<?xml version="1.0" encoding="utf-8" standalone="no"?>
<!DOCTYPE svg PUBLIC "-//W3C//DTD SVG 1.1//EN"
  "http://www.w3.org/Graphics/SVG/1.1/DTD/svg11.dtd">
<svg height="432pt" version="1.1" viewBox="0 0 576 432" width="576pt" xmlns="http://www.w3.org/2000/svg" xmlns:xlink="http://www.w3.org/1999/xlink">
 <metadata>
  <rdf:RDF xmlns:cc="http://creativecommons.org/ns#" xmlns:dc="http://purl.org/dc/elements/1.1/" xmlns:rdf="http://www.w3.org/1999/02/22-rdf-syntax-ns#">
   <cc:Work>
    <dc:type rdf:resource="http://purl.org/dc/dcmitype/StillImage"/>
    <dc:date>2021-06-08T15:03:58.872354</dc:date>
    <dc:format>image/svg+xml</dc:format>
    <dc:creator>
     <cc:Agent>
      <dc:title>Matplotlib v3.4.1, https://matplotlib.org/</dc:title>
     </cc:Agent>
    </dc:creator>
   </cc:Work>
  </rdf:RDF>
 </metadata>
 <defs>
  <style type="text/css">*{stroke-linecap:butt;stroke-linejoin:round;}</style>
 </defs>
 <g id="figure_1">
  <g id="patch_1">
   <path d="M 0 432 
L 576 432 
L 576 0 
L 0 0 
z
" style="fill:#ffffff;"/>
  </g>
  <g id="axes_1">
   <g id="patch_2">
    <path d="M 72 384.48 
L 518.4 384.48 
L 518.4 51.84 
L 72 51.84 
z
" style="fill:#ffffff;"/>
   </g>
   <g id="PolyCollection_1">
    <defs>
     <path d="M 152.64 -47.52 
L 69.12 -47.52 
L 69.12 -380.16 
L 152.64 -380.16 
L 152.64 -380.16 
L 152.64 -47.52 
z
" id="m9919297e53"/>
    </defs>
    <g clip-path="url(#p8270e22b14)">
     <use style="fill:#ff0000;fill-opacity:0.35;" x="0" xlink:href="#m9919297e53" y="432"/>
    </g>
   </g>
   <g id="PolyCollection_2">
    <defs>
     <path d="M 273.6 -47.52 
L 152.64 -47.52 
L 152.64 -380.16 
L 273.6 -380.16 
L 273.6 -380.16 
L 273.6 -47.52 
z
" id="m71d0f9ef9c"/>
    </defs>
    <g clip-path="url(#p8270e22b14)">
     <use style="fill:#ffa500;fill-opacity:0.35;" x="0" xlink:href="#m71d0f9ef9c" y="432"/>
    </g>
   </g>
   <g id="PolyCollection_3">
    <defs>
     <path d="M 432 -47.52 
L 273.6 -47.52 
L 273.6 -380.16 
L 432 -380.16 
L 432 -380.16 
L 432 -47.52 
z
" id="mc2bdd66c5e"/>
    </defs>
    <g clip-path="url(#p8270e22b14)">
     <use style="fill:#ffff00;fill-opacity:0.35;" x="0" xlink:href="#mc2bdd66c5e" y="432"/>
    </g>
   </g>
   <g id="PolyCollection_4">
    <defs>
     <path d="M 434.88 -47.52 
L 432 -47.52 
L 432 -380.16 
L 434.88 -380.16 
L 434.88 -380.16 
L 434.88 -47.52 
z
" id="m5b6b7ace2d"/>
    </defs>
    <g clip-path="url(#p8270e22b14)">
     <use style="fill:#ffff00;fill-opacity:0.3;" x="0" xlink:href="#m5b6b7ace2d" y="432"/>
    </g>
   </g>
   <g id="PolyCollection_5">
    <defs>
     <path d="M 437.76 -47.52 
L 434.88 -47.52 
L 434.88 -380.16 
L 437.76 -380.16 
L 437.76 -380.16 
L 437.76 -47.52 
z
" id="mfc77f129db"/>
    </defs>
    <g clip-path="url(#p8270e22b14)">
     <use style="fill:#ffff00;fill-opacity:0.27;" x="0" xlink:href="#mfc77f129db" y="432"/>
    </g>
   </g>
   <g id="PolyCollection_6">
    <defs>
     <path d="M 440.64 -47.52 
L 437.76 -47.52 
L 437.76 -380.16 
L 440.64 -380.16 
L 440.64 -380.16 
L 440.64 -47.52 
z
" id="m3d24495e04"/>
    </defs>
    <g clip-path="url(#p8270e22b14)">
     <use style="fill:#ffff00;fill-opacity:0.24;" x="0" xlink:href="#m3d24495e04" y="432"/>
    </g>
   </g>
   <g id="PolyCollection_7">
    <defs>
     <path d="M 443.52 -47.52 
L 440.64 -47.52 
L 440.64 -380.16 
L 443.52 -380.16 
L 443.52 -380.16 
L 443.52 -47.52 
z
" id="m26623ca92a"/>
    </defs>
    <g clip-path="url(#p8270e22b14)">
     <use style="fill:#ffff00;fill-opacity:0.21;" x="0" xlink:href="#m26623ca92a" y="432"/>
    </g>
   </g>
   <g id="PolyCollection_8">
    <defs>
     <path d="M 446.4 -47.52 
L 443.52 -47.52 
L 443.52 -380.16 
L 446.4 -380.16 
L 446.4 -380.16 
L 446.4 -47.52 
z
" id="mc242b62772"/>
    </defs>
    <g clip-path="url(#p8270e22b14)">
     <use style="fill:#ffff00;fill-opacity:0.18;" x="0" xlink:href="#mc242b62772" y="432"/>
    </g>
   </g>
   <g id="PolyCollection_9">
    <defs>
     <path d="M 449.28 -47.52 
L 446.4 -47.52 
L 446.4 -380.16 
L 449.28 -380.16 
L 449.28 -380.16 
L 449.28 -47.52 
z
" id="mde098db9ee"/>
    </defs>
    <g clip-path="url(#p8270e22b14)">
     <use style="fill:#ffff00;fill-opacity:0.15;" x="0" xlink:href="#mde098db9ee" y="432"/>
    </g>
   </g>
   <g id="PolyCollection_10">
    <defs>
     <path d="M 452.16 -47.52 
L 449.28 -47.52 
L 449.28 -380.16 
L 452.16 -380.16 
L 452.16 -380.16 
L 452.16 -47.52 
z
" id="m6236b7808b"/>
    </defs>
    <g clip-path="url(#p8270e22b14)">
     <use style="fill:#ffff00;fill-opacity:0.12;" x="0" xlink:href="#m6236b7808b" y="432"/>
    </g>
   </g>
   <g id="PolyCollection_11">
    <defs>
     <path d="M 455.04 -47.52 
L 452.16 -47.52 
L 452.16 -380.16 
L 455.04 -380.16 
L 455.04 -380.16 
L 455.04 -47.52 
z
" id="m1e126dbccc"/>
    </defs>
    <g clip-path="url(#p8270e22b14)">
     <use style="fill:#ffff00;fill-opacity:0.09;" x="0" xlink:href="#m1e126dbccc" y="432"/>
    </g>
   </g>
   <g id="PolyCollection_12">
    <defs>
     <path d="M 457.92 -47.52 
L 455.04 -47.52 
L 455.04 -380.16 
L 457.92 -380.16 
L 457.92 -380.16 
L 457.92 -47.52 
z
" id="ma3bfffda84"/>
    </defs>
    <g clip-path="url(#p8270e22b14)">
     <use style="fill:#ffff00;fill-opacity:0.06;" x="0" xlink:href="#ma3bfffda84" y="432"/>
    </g>
   </g>
   <g id="PolyCollection_13">
    <defs>
     <path d="M 460.8 -47.52 
L 457.92 -47.52 
L 457.92 -380.16 
L 460.8 -380.16 
L 460.8 -380.16 
L 460.8 -47.52 
z
" id="mf79fcac3d8"/>
    </defs>
    <g clip-path="url(#p8270e22b14)">
     <use style="fill:#ffff00;fill-opacity:0.03;" x="0" xlink:href="#mf79fcac3d8" y="432"/>
    </g>
   </g>
   <g id="PolyCollection_14">
    <defs>
     <path d="M 72 -47.52 
L 72 -47.52 
L 72 -47.52 
L 74.88 -47.52 
L 74.88 -47.52 
L 77.76 -47.52 
L 77.76 -47.52 
L 80.64 -47.52 
L 80.64 -47.52 
L 83.52 -47.52 
L 83.52 -47.52 
L 86.4 -47.52 
L 86.4 -47.52 
L 89.28 -47.52 
L 89.28 -47.52 
L 92.16 -47.52 
L 92.16 -47.52 
L 95.04 -47.52 
L 95.04 -47.52 
L 97.92 -47.52 
L 97.92 -47.52 
L 100.8 -47.52 
L 100.8 -47.52 
L 103.68 -47.52 
L 103.68 -47.52 
L 106.56 -47.52 
L 106.56 -47.52 
L 109.44 -47.52 
L 109.44 -47.52 
L 112.32 -47.52 
L 112.32 -47.52 
L 115.2 -47.52 
L 115.2 -47.52 
L 118.08 -47.52 
L 118.08 -47.52 
L 120.96 -47.52 
L 120.96 -47.52 
L 123.84 -47.52 
L 123.84 -47.52 
L 126.72 -47.52 
L 126.72 -47.52 
L 129.6 -47.52 
L 129.6 -47.52 
L 132.48 -47.52 
L 132.48 -47.52 
L 135.36 -47.52 
L 135.36 -47.52 
L 138.24 -47.52 
L 138.24 -47.52 
L 141.12 -47.52 
L 141.12 -47.52 
L 144 -47.52 
L 144 -47.52 
L 146.88 -47.52 
L 146.88 -47.52 
L 149.76 -47.52 
L 149.76 -47.52 
L 152.64 -47.52 
L 152.64 -47.52 
L 155.52 -47.52 
L 155.52 -47.52 
L 158.4 -47.52 
L 158.4 -47.52 
L 161.28 -47.52 
L 161.28 -47.52 
L 164.16 -47.52 
L 164.16 -47.52 
L 167.04 -47.52 
L 167.04 -47.52 
L 169.92 -47.52 
L 169.92 -47.52 
L 172.8 -47.52 
L 172.8 -47.52 
L 175.68 -47.52 
L 175.68 -47.52 
L 178.56 -47.52 
L 178.56 -47.52 
L 181.44 -47.52 
L 181.44 -47.52 
L 184.32 -47.52 
L 184.32 -47.52 
L 187.2 -47.52 
L 187.2 -47.52 
L 190.08 -47.52 
L 190.08 -47.52 
L 192.96 -47.52 
L 192.96 -47.52 
L 195.84 -47.52 
L 195.84 -47.52 
L 198.72 -47.52 
L 198.72 -47.52 
L 201.6 -47.52 
L 201.6 -47.52 
L 204.48 -47.52 
L 204.48 -47.52 
L 207.36 -47.52 
L 207.36 -47.52 
L 210.24 -47.52 
L 210.24 -47.52 
L 213.12 -47.52 
L 213.12 -47.52 
L 216 -47.52 
L 216 -47.52 
L 218.88 -47.52 
L 218.88 -47.52 
L 221.76 -47.52 
L 221.76 -47.52 
L 224.64 -47.52 
L 224.64 -47.52 
L 227.52 -47.52 
L 227.52 -47.52 
L 230.4 -47.52 
L 230.4 -47.52 
L 233.28 -47.52 
L 233.28 -47.52 
L 236.16 -47.52 
L 236.16 -47.52 
L 239.04 -47.52 
L 239.04 -47.52 
L 241.92 -47.52 
L 241.92 -47.52 
L 244.8 -47.52 
L 244.8 -47.52 
L 247.68 -47.52 
L 247.68 -47.52 
L 250.56 -47.52 
L 250.56 -47.52 
L 253.44 -47.52 
L 253.44 -47.52 
L 256.32 -47.52 
L 256.32 -47.52 
L 259.2 -47.52 
L 259.2 -47.52 
L 262.08 -47.52 
L 262.08 -47.52 
L 264.96 -47.52 
L 264.96 -47.52 
L 267.84 -47.52 
L 267.84 -47.52 
L 270.72 -47.52 
L 270.72 -47.52 
L 273.6 -47.52 
L 273.6 -47.52 
L 276.48 -47.52 
L 276.48 -47.52 
L 279.36 -47.52 
L 279.36 -47.52 
L 282.24 -47.52 
L 282.24 -47.52 
L 285.12 -47.52 
L 285.12 -47.52 
L 288 -47.52 
L 288 -47.52 
L 290.88 -47.52 
L 290.88 -47.52 
L 293.76 -47.52 
L 293.76 -47.52 
L 296.64 -47.52 
L 296.64 -47.52 
L 299.52 -47.52 
L 299.52 -47.52 
L 302.4 -47.52 
L 302.4 -47.52 
L 305.28 -47.52 
L 305.28 -47.52 
L 308.16 -47.52 
L 308.16 -47.52 
L 311.04 -47.52 
L 311.04 -47.52 
L 313.92 -47.52 
L 313.92 -47.52 
L 316.8 -47.52 
L 316.8 -47.52 
L 319.68 -47.52 
L 319.68 -47.52 
L 322.56 -47.52 
L 322.56 -47.52 
L 325.44 -47.52 
L 325.44 -47.52 
L 328.32 -47.52 
L 328.32 -47.52 
L 331.2 -47.52 
L 331.2 -47.52 
L 334.08 -47.52 
L 334.08 -47.52 
L 336.96 -47.52 
L 336.96 -47.52 
L 339.84 -47.52 
L 339.84 -47.52 
L 342.72 -47.52 
L 342.72 -47.52 
L 345.6 -47.52 
L 345.6 -47.52 
L 348.48 -47.52 
L 348.48 -47.52 
L 351.36 -47.52 
L 351.36 -47.52 
L 354.24 -47.52 
L 354.24 -47.52 
L 357.12 -47.52 
L 357.12 -47.52 
L 360 -47.52 
L 360 -47.52 
L 362.88 -47.52 
L 362.88 -47.52 
L 365.76 -47.52 
L 365.76 -47.52 
L 368.64 -47.52 
L 368.64 -47.52 
L 371.52 -47.52 
L 371.52 -47.52 
L 374.4 -47.52 
L 374.4 -47.52 
L 377.28 -47.52 
L 377.28 -164.349788 
L 377.28 -164.349788 
L 374.4 -164.349788 
L 374.4 -161.519483 
L 371.52 -161.519483 
L 371.52 -160.005944 
L 368.64 -160.005944 
L 368.64 -157.851433 
L 365.76 -157.851433 
L 365.76 -154.812995 
L 362.88 -154.812995 
L 362.88 -151.540909 
L 360 -151.540909 
L 360 -148.45225 
L 357.12 -148.45225 
L 357.12 -145.293253 
L 354.24 -145.293253 
L 354.24 -142.590607 
L 351.36 -142.590607 
L 351.36 -141.795267 
L 348.48 -141.795267 
L 348.48 -140.316838 
L 345.6 -140.316838 
L 345.6 -137.400875 
L 342.72 -137.400875 
L 342.72 -134.432824 
L 339.84 -134.432824 
L 339.84 -131.806412 
L 336.96 -131.806412 
L 336.96 -129.371036 
L 334.08 -129.371036 
L 334.08 -127.301078 
L 331.2 -127.301078 
L 331.2 -126.980637 
L 328.32 -126.980637 
L 328.32 -126.064667 
L 325.44 -126.064667 
L 325.44 -123.940466 
L 322.56 -123.940466 
L 322.56 -121.557108 
L 319.68 -121.557108 
L 319.68 -119.500258 
L 316.8 -119.500258 
L 316.8 -117.250015 
L 313.92 -117.250015 
L 313.92 -115.218844 
L 311.04 -115.218844 
L 311.04 -114.947095 
L 308.16 -114.947095 
L 308.16 -114.196031 
L 305.28 -114.196031 
L 305.28 -112.467759 
L 302.4 -112.467759 
L 302.4 -110.589514 
L 299.52 -110.589514 
L 299.52 -108.736244 
L 296.64 -108.736244 
L 296.64 -107.021676 
L 293.76 -107.021676 
L 293.76 -105.424826 
L 290.88 -105.424826 
L 290.88 -105.645124 
L 288 -105.645124 
L 288 -104.964881 
L 285.12 -104.964881 
L 285.12 -103.055095 
L 282.24 -103.055095 
L 282.24 -100.946817 
L 279.36 -100.946817 
L 279.36 -98.94679 
L 276.48 -98.94679 
L 276.48 -96.885091 
L 273.6 -96.885091 
L 273.6 -95.453657 
L 270.72 -95.453657 
L 270.72 -95.285301 
L 267.84 -95.285301 
L 267.84 -94.92581 
L 264.96 -94.92581 
L 264.96 -93.788156 
L 262.08 -93.788156 
L 262.08 -92.445842 
L 259.2 -92.445842 
L 259.2 -90.665082 
L 256.32 -90.665082 
L 256.32 -89.394037 
L 253.44 -89.394037 
L 253.44 -88.585813 
L 250.56 -88.585813 
L 250.56 -88.497353 
L 247.68 -88.497353 
L 247.68 -88.035805 
L 244.8 -88.035805 
L 244.8 -86.45908 
L 241.92 -86.45908 
L 241.92 -84.983409 
L 239.04 -84.983409 
L 239.04 -83.540298 
L 236.16 -83.540298 
L 236.16 -82.172662 
L 233.28 -82.172662 
L 233.28 -80.673982 
L 230.4 -80.673982 
L 230.4 -78.447893 
L 227.52 -78.447893 
L 227.52 -77.765802 
L 224.64 -77.765802 
L 224.64 -76.477094 
L 221.76 -76.477094 
L 221.76 -74.971907 
L 218.88 -74.971907 
L 218.88 -73.390893 
L 216 -73.390893 
L 216 -71.86439 
L 213.12 -71.86439 
L 213.12 -70.284112 
L 210.24 -70.284112 
L 210.24 -70.134035 
L 207.36 -70.134035 
L 207.36 -69.411925 
L 204.48 -69.411925 
L 204.48 -67.898683 
L 201.6 -67.898683 
L 201.6 -65.833827 
L 198.72 -65.833827 
L 198.72 -63.995902 
L 195.84 -63.995902 
L 195.84 -62.524352 
L 192.96 -62.524352 
L 192.96 -62.482366 
L 190.08 -62.482366 
L 190.08 -62.488635 
L 187.2 -62.488635 
L 187.2 -62.132671 
L 184.32 -62.132671 
L 184.32 -62.303322 
L 181.44 -62.303322 
L 181.44 -60.300583 
L 178.56 -60.300583 
L 178.56 -58.547912 
L 175.68 -58.547912 
L 175.68 -56.733197 
L 172.8 -56.733197 
L 172.8 -55.342365 
L 169.92 -55.342365 
L 169.92 -54.592954 
L 167.04 -54.592954 
L 167.04 -54.57768 
L 164.16 -54.57768 
L 164.16 -53.608702 
L 161.28 -53.608702 
L 161.28 -52.647971 
L 158.4 -52.647971 
L 158.4 -51.637848 
L 155.52 -51.637848 
L 155.52 -50.726228 
L 152.64 -50.726228 
L 152.64 -50.32357 
L 149.76 -50.32357 
L 149.76 -49.774732 
L 146.88 -49.774732 
L 146.88 -49.758187 
L 144 -49.758187 
L 144 -49.654921 
L 141.12 -49.654921 
L 141.12 -49.562905 
L 138.24 -49.562905 
L 138.24 -49.410658 
L 135.36 -49.410658 
L 135.36 -49.192145 
L 132.48 -49.192145 
L 132.48 -49.002961 
L 129.6 -49.002961 
L 129.6 -48.974706 
L 126.72 -48.974706 
L 126.72 -48.916361 
L 123.84 -48.916361 
L 123.84 -48.483009 
L 120.96 -48.483009 
L 120.96 -48.302026 
L 118.08 -48.302026 
L 118.08 -47.965247 
L 115.2 -47.965247 
L 115.2 -47.762965 
L 112.32 -47.762965 
L 112.32 -47.609999 
L 109.44 -47.609999 
L 109.44 -47.52 
L 106.56 -47.52 
L 106.56 -47.52 
L 103.68 -47.52 
L 103.68 -47.52 
L 100.8 -47.52 
L 100.8 -47.52 
L 97.92 -47.52 
L 97.92 -47.52 
L 95.04 -47.52 
L 95.04 -47.52 
L 92.16 -47.52 
L 92.16 -47.52 
L 89.28 -47.52 
L 89.28 -47.52 
L 86.4 -47.52 
L 86.4 -47.52 
L 83.52 -47.52 
L 83.52 -47.52 
L 80.64 -47.52 
L 80.64 -47.52 
L 77.76 -47.52 
L 77.76 -47.52 
L 74.88 -47.52 
L 74.88 -47.52 
L 72 -47.52 
L 72 -47.52 
z
" id="me8774245c6"/>
    </defs>
    <g clip-path="url(#p8270e22b14)">
     <use style="fill:#1f77b4;" x="0" xlink:href="#me8774245c6" y="432"/>
    </g>
   </g>
   <g id="PolyCollection_15">
    <defs>
     <path d="M 72 -47.52 
L 72 -47.52 
L 72 -47.52 
L 74.88 -47.52 
L 74.88 -47.52 
L 77.76 -47.52 
L 77.76 -47.52 
L 80.64 -47.52 
L 80.64 -47.52 
L 83.52 -47.52 
L 83.52 -47.52 
L 86.4 -47.52 
L 86.4 -47.52 
L 89.28 -47.52 
L 89.28 -47.52 
L 92.16 -47.52 
L 92.16 -47.52 
L 95.04 -47.52 
L 95.04 -47.52 
L 97.92 -47.52 
L 97.92 -47.52 
L 100.8 -47.52 
L 100.8 -47.52 
L 103.68 -47.52 
L 103.68 -47.52 
L 106.56 -47.52 
L 106.56 -47.52 
L 109.44 -47.52 
L 109.44 -47.609999 
L 112.32 -47.609999 
L 112.32 -47.762965 
L 115.2 -47.762965 
L 115.2 -47.965247 
L 118.08 -47.965247 
L 118.08 -48.302026 
L 120.96 -48.302026 
L 120.96 -48.483009 
L 123.84 -48.483009 
L 123.84 -48.916361 
L 126.72 -48.916361 
L 126.72 -48.974706 
L 129.6 -48.974706 
L 129.6 -49.002961 
L 132.48 -49.002961 
L 132.48 -49.192145 
L 135.36 -49.192145 
L 135.36 -49.410658 
L 138.24 -49.410658 
L 138.24 -49.562905 
L 141.12 -49.562905 
L 141.12 -49.654921 
L 144 -49.654921 
L 144 -49.758187 
L 146.88 -49.758187 
L 146.88 -49.774732 
L 149.76 -49.774732 
L 149.76 -50.32357 
L 152.64 -50.32357 
L 152.64 -50.726228 
L 155.52 -50.726228 
L 155.52 -51.637848 
L 158.4 -51.637848 
L 158.4 -52.647971 
L 161.28 -52.647971 
L 161.28 -53.608702 
L 164.16 -53.608702 
L 164.16 -54.57768 
L 167.04 -54.57768 
L 167.04 -54.592954 
L 169.92 -54.592954 
L 169.92 -55.342365 
L 172.8 -55.342365 
L 172.8 -56.733197 
L 175.68 -56.733197 
L 175.68 -58.547912 
L 178.56 -58.547912 
L 178.56 -60.300583 
L 181.44 -60.300583 
L 181.44 -62.303322 
L 184.32 -62.303322 
L 184.32 -62.132671 
L 187.2 -62.132671 
L 187.2 -62.488635 
L 190.08 -62.488635 
L 190.08 -62.482366 
L 192.96 -62.482366 
L 192.96 -62.524352 
L 195.84 -62.524352 
L 195.84 -63.995902 
L 198.72 -63.995902 
L 198.72 -65.833827 
L 201.6 -65.833827 
L 201.6 -67.898683 
L 204.48 -67.898683 
L 204.48 -69.411925 
L 207.36 -69.411925 
L 207.36 -70.134035 
L 210.24 -70.134035 
L 210.24 -70.284112 
L 213.12 -70.284112 
L 213.12 -71.86439 
L 216 -71.86439 
L 216 -73.390893 
L 218.88 -73.390893 
L 218.88 -74.971907 
L 221.76 -74.971907 
L 221.76 -76.477094 
L 224.64 -76.477094 
L 224.64 -77.765802 
L 227.52 -77.765802 
L 227.52 -78.447893 
L 230.4 -78.447893 
L 230.4 -80.673982 
L 233.28 -80.673982 
L 233.28 -82.172662 
L 236.16 -82.172662 
L 236.16 -83.540298 
L 239.04 -83.540298 
L 239.04 -84.983409 
L 241.92 -84.983409 
L 241.92 -86.45908 
L 244.8 -86.45908 
L 244.8 -88.035805 
L 247.68 -88.035805 
L 247.68 -88.497353 
L 250.56 -88.497353 
L 250.56 -88.585813 
L 253.44 -88.585813 
L 253.44 -89.394037 
L 256.32 -89.394037 
L 256.32 -90.665082 
L 259.2 -90.665082 
L 259.2 -92.445842 
L 262.08 -92.445842 
L 262.08 -93.788156 
L 264.96 -93.788156 
L 264.96 -94.92581 
L 267.84 -94.92581 
L 267.84 -95.285301 
L 270.72 -95.285301 
L 270.72 -95.453657 
L 273.6 -95.453657 
L 273.6 -96.885091 
L 276.48 -96.885091 
L 276.48 -98.94679 
L 279.36 -98.94679 
L 279.36 -100.946817 
L 282.24 -100.946817 
L 282.24 -103.055095 
L 285.12 -103.055095 
L 285.12 -104.964881 
L 288 -104.964881 
L 288 -105.645124 
L 290.88 -105.645124 
L 290.88 -105.424826 
L 293.76 -105.424826 
L 293.76 -107.021676 
L 296.64 -107.021676 
L 296.64 -108.736244 
L 299.52 -108.736244 
L 299.52 -110.589514 
L 302.4 -110.589514 
L 302.4 -112.467759 
L 305.28 -112.467759 
L 305.28 -114.196031 
L 308.16 -114.196031 
L 308.16 -114.947095 
L 311.04 -114.947095 
L 311.04 -115.218844 
L 313.92 -115.218844 
L 313.92 -117.250015 
L 316.8 -117.250015 
L 316.8 -119.500258 
L 319.68 -119.500258 
L 319.68 -121.557108 
L 322.56 -121.557108 
L 322.56 -123.940466 
L 325.44 -123.940466 
L 325.44 -126.064667 
L 328.32 -126.064667 
L 328.32 -126.980637 
L 331.2 -126.980637 
L 331.2 -127.301078 
L 334.08 -127.301078 
L 334.08 -129.371036 
L 336.96 -129.371036 
L 336.96 -131.806412 
L 339.84 -131.806412 
L 339.84 -134.432824 
L 342.72 -134.432824 
L 342.72 -137.400875 
L 345.6 -137.400875 
L 345.6 -140.316838 
L 348.48 -140.316838 
L 348.48 -141.795267 
L 351.36 -141.795267 
L 351.36 -142.590607 
L 354.24 -142.590607 
L 354.24 -145.293253 
L 357.12 -145.293253 
L 357.12 -148.45225 
L 360 -148.45225 
L 360 -151.540909 
L 362.88 -151.540909 
L 362.88 -154.812995 
L 365.76 -154.812995 
L 365.76 -157.851433 
L 368.64 -157.851433 
L 368.64 -160.005944 
L 371.52 -160.005944 
L 371.52 -161.519483 
L 374.4 -161.519483 
L 374.4 -164.349788 
L 377.28 -164.349788 
L 377.28 -217.338235 
L 377.28 -217.338235 
L 374.4 -217.338235 
L 374.4 -217.338235 
L 371.52 -217.338235 
L 371.52 -202.200563 
L 368.64 -202.200563 
L 368.64 -202.200563 
L 365.76 -202.200563 
L 365.76 -202.200563 
L 362.88 -202.200563 
L 362.88 -202.200563 
L 360 -202.200563 
L 360 -202.200563 
L 357.12 -202.200563 
L 357.12 -202.200563 
L 354.24 -202.200563 
L 354.24 -202.200563 
L 351.36 -202.200563 
L 351.36 -182.125689 
L 348.48 -182.125689 
L 348.48 -182.125689 
L 345.6 -182.125689 
L 345.6 -182.125689 
L 342.72 -182.125689 
L 342.72 -182.125689 
L 339.84 -182.125689 
L 339.84 -182.125689 
L 336.96 -182.125689 
L 336.96 -182.125689 
L 334.08 -182.125689 
L 334.08 -182.125689 
L 331.2 -182.125689 
L 331.2 -160.961826 
L 328.32 -160.961826 
L 328.32 -160.961826 
L 325.44 -160.961826 
L 325.44 -160.961826 
L 322.56 -160.961826 
L 322.56 -160.961826 
L 319.68 -160.961826 
L 319.68 -160.961826 
L 316.8 -160.961826 
L 316.8 -160.961826 
L 313.92 -160.961826 
L 313.92 -160.961826 
L 311.04 -160.961826 
L 311.04 -137.104484 
L 308.16 -137.104484 
L 308.16 -137.104484 
L 305.28 -137.104484 
L 305.28 -137.104484 
L 302.4 -137.104484 
L 302.4 -137.104484 
L 299.52 -137.104484 
L 299.52 -137.104484 
L 296.64 -137.104484 
L 296.64 -137.104484 
L 293.76 -137.104484 
L 293.76 -137.104484 
L 290.88 -137.104484 
L 290.88 -121.766105 
L 288 -121.766105 
L 288 -121.766105 
L 285.12 -121.766105 
L 285.12 -121.766105 
L 282.24 -121.766105 
L 282.24 -121.766105 
L 279.36 -121.766105 
L 279.36 -121.766105 
L 276.48 -121.766105 
L 276.48 -121.766105 
L 273.6 -121.766105 
L 273.6 -121.766105 
L 270.72 -121.766105 
L 270.72 -106.395859 
L 267.84 -106.395859 
L 267.84 -106.395859 
L 264.96 -106.395859 
L 264.96 -106.395859 
L 262.08 -106.395859 
L 262.08 -106.395859 
L 259.2 -106.395859 
L 259.2 -106.395859 
L 256.32 -106.395859 
L 256.32 -106.395859 
L 253.44 -106.395859 
L 253.44 -106.395859 
L 250.56 -106.395859 
L 250.56 -99.406895 
L 247.68 -99.406895 
L 247.68 -99.406895 
L 244.8 -99.406895 
L 244.8 -99.406895 
L 241.92 -99.406895 
L 241.92 -99.406895 
L 239.04 -99.406895 
L 239.04 -99.406895 
L 236.16 -99.406895 
L 236.16 -99.406895 
L 233.28 -99.406895 
L 233.28 -99.406895 
L 230.4 -99.406895 
L 230.4 -91.214221 
L 227.52 -91.214221 
L 227.52 -91.214221 
L 224.64 -91.214221 
L 224.64 -91.214221 
L 221.76 -91.214221 
L 221.76 -91.214221 
L 218.88 -91.214221 
L 218.88 -91.214221 
L 216 -91.214221 
L 216 -91.214221 
L 213.12 -91.214221 
L 213.12 -91.214221 
L 210.24 -91.214221 
L 210.24 -70.018938 
L 207.36 -70.018938 
L 207.36 -70.018938 
L 204.48 -70.018938 
L 204.48 -70.018938 
L 201.6 -70.018938 
L 201.6 -70.018938 
L 198.72 -70.018938 
L 198.72 -70.018938 
L 195.84 -70.018938 
L 195.84 -70.018938 
L 192.96 -70.018938 
L 192.96 -70.018938 
L 190.08 -70.018938 
L 190.08 -70.018938 
L 187.2 -70.018938 
L 187.2 -70.018938 
L 184.32 -70.018938 
L 184.32 -70.018938 
L 181.44 -70.018938 
L 181.44 -70.018938 
L 178.56 -70.018938 
L 178.56 -70.018938 
L 175.68 -70.018938 
L 175.68 -70.018938 
L 172.8 -70.018938 
L 172.8 -70.018938 
L 169.92 -70.018938 
L 169.92 -57.910842 
L 167.04 -57.910842 
L 167.04 -57.910842 
L 164.16 -57.910842 
L 164.16 -57.910842 
L 161.28 -57.910842 
L 161.28 -57.910842 
L 158.4 -57.910842 
L 158.4 -57.910842 
L 155.52 -57.910842 
L 155.52 -57.910842 
L 152.64 -57.910842 
L 152.64 -57.910842 
L 149.76 -57.910842 
L 149.76 -51.8859 
L 146.88 -51.8859 
L 146.88 -51.8859 
L 144 -51.8859 
L 144 -51.8859 
L 141.12 -51.8859 
L 141.12 -51.8859 
L 138.24 -51.8859 
L 138.24 -51.8859 
L 135.36 -51.8859 
L 135.36 -51.8859 
L 132.48 -51.8859 
L 132.48 -51.8859 
L 129.6 -51.8859 
L 129.6 -51.8859 
L 126.72 -51.8859 
L 126.72 -51.8859 
L 123.84 -51.8859 
L 123.84 -51.8859 
L 120.96 -51.8859 
L 120.96 -51.8859 
L 118.08 -51.8859 
L 118.08 -51.8859 
L 115.2 -51.8859 
L 115.2 -51.8859 
L 112.32 -51.8859 
L 112.32 -51.8859 
L 109.44 -51.8859 
L 109.44 -47.52 
L 106.56 -47.52 
L 106.56 -47.52 
L 103.68 -47.52 
L 103.68 -47.52 
L 100.8 -47.52 
L 100.8 -47.52 
L 97.92 -47.52 
L 97.92 -47.52 
L 95.04 -47.52 
L 95.04 -47.52 
L 92.16 -47.52 
L 92.16 -47.52 
L 89.28 -47.52 
L 89.28 -47.52 
L 86.4 -47.52 
L 86.4 -47.52 
L 83.52 -47.52 
L 83.52 -47.52 
L 80.64 -47.52 
L 80.64 -47.52 
L 77.76 -47.52 
L 77.76 -47.52 
L 74.88 -47.52 
L 74.88 -47.52 
L 72 -47.52 
L 72 -47.52 
z
" id="m6e4ea0fb1a"/>
    </defs>
    <g clip-path="url(#p8270e22b14)">
     <use style="fill:#2ca02c;" x="0" xlink:href="#m6e4ea0fb1a" y="432"/>
    </g>
   </g>
   <g id="PolyCollection_16">
    <defs>
     <path d="M 72 -47.52 
L 72 -47.52 
L 72 -47.52 
L 74.88 -47.52 
L 74.88 -47.52 
L 77.76 -47.52 
L 77.76 -47.52 
L 80.64 -47.52 
L 80.64 -47.52 
L 83.52 -47.52 
L 83.52 -47.52 
L 86.4 -47.52 
L 86.4 -47.52 
L 89.28 -47.52 
L 89.28 -47.52 
L 92.16 -47.52 
L 92.16 -47.52 
L 95.04 -47.52 
L 95.04 -47.52 
L 97.92 -47.52 
L 97.92 -47.52 
L 100.8 -47.52 
L 100.8 -47.52 
L 103.68 -47.52 
L 103.68 -47.52 
L 106.56 -47.52 
L 106.56 -47.52 
L 109.44 -47.52 
L 109.44 -51.8859 
L 112.32 -51.8859 
L 112.32 -51.8859 
L 115.2 -51.8859 
L 115.2 -51.8859 
L 118.08 -51.8859 
L 118.08 -51.8859 
L 120.96 -51.8859 
L 120.96 -51.8859 
L 123.84 -51.8859 
L 123.84 -51.8859 
L 126.72 -51.8859 
L 126.72 -51.8859 
L 129.6 -51.8859 
L 129.6 -51.8859 
L 132.48 -51.8859 
L 132.48 -51.8859 
L 135.36 -51.8859 
L 135.36 -51.8859 
L 138.24 -51.8859 
L 138.24 -51.8859 
L 141.12 -51.8859 
L 141.12 -51.8859 
L 144 -51.8859 
L 144 -51.8859 
L 146.88 -51.8859 
L 146.88 -51.8859 
L 149.76 -51.8859 
L 149.76 -57.910842 
L 152.64 -57.910842 
L 152.64 -57.910842 
L 155.52 -57.910842 
L 155.52 -57.910842 
L 158.4 -57.910842 
L 158.4 -57.910842 
L 161.28 -57.910842 
L 161.28 -57.910842 
L 164.16 -57.910842 
L 164.16 -57.910842 
L 167.04 -57.910842 
L 167.04 -57.910842 
L 169.92 -57.910842 
L 169.92 -70.018938 
L 172.8 -70.018938 
L 172.8 -70.018938 
L 175.68 -70.018938 
L 175.68 -70.018938 
L 178.56 -70.018938 
L 178.56 -70.018938 
L 181.44 -70.018938 
L 181.44 -70.018938 
L 184.32 -70.018938 
L 184.32 -70.018938 
L 187.2 -70.018938 
L 187.2 -70.018938 
L 190.08 -70.018938 
L 190.08 -70.018938 
L 192.96 -70.018938 
L 192.96 -70.018938 
L 195.84 -70.018938 
L 195.84 -70.018938 
L 198.72 -70.018938 
L 198.72 -70.018938 
L 201.6 -70.018938 
L 201.6 -70.018938 
L 204.48 -70.018938 
L 204.48 -70.018938 
L 207.36 -70.018938 
L 207.36 -70.018938 
L 210.24 -70.018938 
L 210.24 -91.214221 
L 213.12 -91.214221 
L 213.12 -91.214221 
L 216 -91.214221 
L 216 -91.214221 
L 218.88 -91.214221 
L 218.88 -91.214221 
L 221.76 -91.214221 
L 221.76 -91.214221 
L 224.64 -91.214221 
L 224.64 -91.214221 
L 227.52 -91.214221 
L 227.52 -91.214221 
L 230.4 -91.214221 
L 230.4 -99.406895 
L 233.28 -99.406895 
L 233.28 -99.406895 
L 236.16 -99.406895 
L 236.16 -99.406895 
L 239.04 -99.406895 
L 239.04 -99.406895 
L 241.92 -99.406895 
L 241.92 -99.406895 
L 244.8 -99.406895 
L 244.8 -99.406895 
L 247.68 -99.406895 
L 247.68 -99.406895 
L 250.56 -99.406895 
L 250.56 -106.395859 
L 253.44 -106.395859 
L 253.44 -106.395859 
L 256.32 -106.395859 
L 256.32 -106.395859 
L 259.2 -106.395859 
L 259.2 -106.395859 
L 262.08 -106.395859 
L 262.08 -106.395859 
L 264.96 -106.395859 
L 264.96 -106.395859 
L 267.84 -106.395859 
L 267.84 -106.395859 
L 270.72 -106.395859 
L 270.72 -121.766105 
L 273.6 -121.766105 
L 273.6 -121.766105 
L 276.48 -121.766105 
L 276.48 -121.766105 
L 279.36 -121.766105 
L 279.36 -121.766105 
L 282.24 -121.766105 
L 282.24 -121.766105 
L 285.12 -121.766105 
L 285.12 -121.766105 
L 288 -121.766105 
L 288 -121.766105 
L 290.88 -121.766105 
L 290.88 -137.104484 
L 293.76 -137.104484 
L 293.76 -137.104484 
L 296.64 -137.104484 
L 296.64 -137.104484 
L 299.52 -137.104484 
L 299.52 -137.104484 
L 302.4 -137.104484 
L 302.4 -137.104484 
L 305.28 -137.104484 
L 305.28 -137.104484 
L 308.16 -137.104484 
L 308.16 -137.104484 
L 311.04 -137.104484 
L 311.04 -160.961826 
L 313.92 -160.961826 
L 313.92 -160.961826 
L 316.8 -160.961826 
L 316.8 -160.961826 
L 319.68 -160.961826 
L 319.68 -160.961826 
L 322.56 -160.961826 
L 322.56 -160.961826 
L 325.44 -160.961826 
L 325.44 -160.961826 
L 328.32 -160.961826 
L 328.32 -160.961826 
L 331.2 -160.961826 
L 331.2 -182.125689 
L 334.08 -182.125689 
L 334.08 -182.125689 
L 336.96 -182.125689 
L 336.96 -182.125689 
L 339.84 -182.125689 
L 339.84 -182.125689 
L 342.72 -182.125689 
L 342.72 -182.125689 
L 345.6 -182.125689 
L 345.6 -182.125689 
L 348.48 -182.125689 
L 348.48 -182.125689 
L 351.36 -182.125689 
L 351.36 -202.200563 
L 354.24 -202.200563 
L 354.24 -202.200563 
L 357.12 -202.200563 
L 357.12 -202.200563 
L 360 -202.200563 
L 360 -202.200563 
L 362.88 -202.200563 
L 362.88 -202.200563 
L 365.76 -202.200563 
L 365.76 -202.200563 
L 368.64 -202.200563 
L 368.64 -202.200563 
L 371.52 -202.200563 
L 371.52 -217.338235 
L 374.4 -217.338235 
L 374.4 -217.338235 
L 377.28 -217.338235 
L 377.28 -219.01038 
L 377.28 -219.01038 
L 374.4 -219.01038 
L 374.4 -218.821196 
L 371.52 -218.821196 
L 371.52 -203.655269 
L 368.64 -203.655269 
L 368.64 -203.596924 
L 365.76 -203.596924 
L 365.76 -203.163572 
L 362.88 -203.163572 
L 362.88 -202.982589 
L 360 -202.982589 
L 360 -202.64581 
L 357.12 -202.64581 
L 357.12 -202.443528 
L 354.24 -202.443528 
L 354.24 -202.290562 
L 351.36 -202.290562 
L 351.36 -182.125689 
L 348.48 -182.125689 
L 348.48 -182.125689 
L 345.6 -182.125689 
L 345.6 -182.125689 
L 342.72 -182.125689 
L 342.72 -182.125689 
L 339.84 -182.125689 
L 339.84 -182.125689 
L 336.96 -182.125689 
L 336.96 -182.125689 
L 334.08 -182.125689 
L 334.08 -182.125689 
L 331.2 -182.125689 
L 331.2 -160.961826 
L 328.32 -160.961826 
L 328.32 -160.961826 
L 325.44 -160.961826 
L 325.44 -160.961826 
L 322.56 -160.961826 
L 322.56 -160.961826 
L 319.68 -160.961826 
L 319.68 -160.961826 
L 316.8 -160.961826 
L 316.8 -160.961826 
L 313.92 -160.961826 
L 313.92 -160.961826 
L 311.04 -160.961826 
L 311.04 -137.104484 
L 308.16 -137.104484 
L 308.16 -137.104484 
L 305.28 -137.104484 
L 305.28 -137.104484 
L 302.4 -137.104484 
L 302.4 -137.104484 
L 299.52 -137.104484 
L 299.52 -137.104484 
L 296.64 -137.104484 
L 296.64 -137.104484 
L 293.76 -137.104484 
L 293.76 -137.104484 
L 290.88 -137.104484 
L 290.88 -121.766105 
L 288 -121.766105 
L 288 -121.766105 
L 285.12 -121.766105 
L 285.12 -121.766105 
L 282.24 -121.766105 
L 282.24 -121.766105 
L 279.36 -121.766105 
L 279.36 -121.766105 
L 276.48 -121.766105 
L 276.48 -121.766105 
L 273.6 -121.766105 
L 273.6 -121.766105 
L 270.72 -121.766105 
L 270.72 -106.395859 
L 267.84 -106.395859 
L 267.84 -106.395859 
L 264.96 -106.395859 
L 264.96 -106.395859 
L 262.08 -106.395859 
L 262.08 -106.395859 
L 259.2 -106.395859 
L 259.2 -106.395859 
L 256.32 -106.395859 
L 256.32 -106.395859 
L 253.44 -106.395859 
L 253.44 -106.395859 
L 250.56 -106.395859 
L 250.56 -99.406895 
L 247.68 -99.406895 
L 247.68 -99.406895 
L 244.8 -99.406895 
L 244.8 -99.406895 
L 241.92 -99.406895 
L 241.92 -99.406895 
L 239.04 -99.406895 
L 239.04 -99.406895 
L 236.16 -99.406895 
L 236.16 -99.406895 
L 233.28 -99.406895 
L 233.28 -99.406895 
L 230.4 -99.406895 
L 230.4 -91.214221 
L 227.52 -91.214221 
L 227.52 -91.214221 
L 224.64 -91.214221 
L 224.64 -91.214221 
L 221.76 -91.214221 
L 221.76 -91.214221 
L 218.88 -91.214221 
L 218.88 -91.214221 
L 216 -91.214221 
L 216 -91.214221 
L 213.12 -91.214221 
L 213.12 -91.214221 
L 210.24 -91.214221 
L 210.24 -70.018938 
L 207.36 -70.018938 
L 207.36 -70.018938 
L 204.48 -70.018938 
L 204.48 -70.018938 
L 201.6 -70.018938 
L 201.6 -70.018938 
L 198.72 -70.018938 
L 198.72 -70.018938 
L 195.84 -70.018938 
L 195.84 -70.018938 
L 192.96 -70.018938 
L 192.96 -70.018938 
L 190.08 -70.018938 
L 190.08 -70.018938 
L 187.2 -70.018938 
L 187.2 -70.018938 
L 184.32 -70.018938 
L 184.32 -70.018938 
L 181.44 -70.018938 
L 181.44 -70.018938 
L 178.56 -70.018938 
L 178.56 -70.018938 
L 175.68 -70.018938 
L 175.68 -70.018938 
L 172.8 -70.018938 
L 172.8 -70.018938 
L 169.92 -70.018938 
L 169.92 -57.910842 
L 167.04 -57.910842 
L 167.04 -57.910842 
L 164.16 -57.910842 
L 164.16 -57.910842 
L 161.28 -57.910842 
L 161.28 -57.910842 
L 158.4 -57.910842 
L 158.4 -57.910842 
L 155.52 -57.910842 
L 155.52 -57.910842 
L 152.64 -57.910842 
L 152.64 -57.910842 
L 149.76 -57.910842 
L 149.76 -51.8859 
L 146.88 -51.8859 
L 146.88 -51.8859 
L 144 -51.8859 
L 144 -51.8859 
L 141.12 -51.8859 
L 141.12 -51.8859 
L 138.24 -51.8859 
L 138.24 -51.8859 
L 135.36 -51.8859 
L 135.36 -51.8859 
L 132.48 -51.8859 
L 132.48 -51.8859 
L 129.6 -51.8859 
L 129.6 -51.8859 
L 126.72 -51.8859 
L 126.72 -51.8859 
L 123.84 -51.8859 
L 123.84 -51.8859 
L 120.96 -51.8859 
L 120.96 -51.8859 
L 118.08 -51.8859 
L 118.08 -51.8859 
L 115.2 -51.8859 
L 115.2 -51.8859 
L 112.32 -51.8859 
L 112.32 -51.8859 
L 109.44 -51.8859 
L 109.44 -47.52 
L 106.56 -47.52 
L 106.56 -47.52 
L 103.68 -47.52 
L 103.68 -47.52 
L 100.8 -47.52 
L 100.8 -47.52 
L 97.92 -47.52 
L 97.92 -47.52 
L 95.04 -47.52 
L 95.04 -47.52 
L 92.16 -47.52 
L 92.16 -47.52 
L 89.28 -47.52 
L 89.28 -47.52 
L 86.4 -47.52 
L 86.4 -47.52 
L 83.52 -47.52 
L 83.52 -47.52 
L 80.64 -47.52 
L 80.64 -47.52 
L 77.76 -47.52 
L 77.76 -47.52 
L 74.88 -47.52 
L 74.88 -47.52 
L 72 -47.52 
L 72 -47.52 
z
" id="m069285680d"/>
    </defs>
    <g clip-path="url(#p8270e22b14)">
     <use style="fill:#ff7f0e;" x="0" xlink:href="#m069285680d" y="432"/>
    </g>
   </g>
   <g id="PolyCollection_17">
    <defs>
     <path d="M 72 -47.52 
L 72 -47.52 
L 72 -47.52 
L 74.88 -47.52 
L 74.88 -47.52 
L 77.76 -47.52 
L 77.76 -47.52 
L 80.64 -47.52 
L 80.64 -47.52 
L 83.52 -47.52 
L 83.52 -47.52 
L 86.4 -47.52 
L 86.4 -47.52 
L 89.28 -47.52 
L 89.28 -47.52 
L 92.16 -47.52 
L 92.16 -47.52 
L 95.04 -47.52 
L 95.04 -47.52 
L 97.92 -47.52 
L 97.92 -47.52 
L 100.8 -47.52 
L 100.8 -47.52 
L 103.68 -47.52 
L 103.68 -47.52 
L 106.56 -47.52 
L 106.56 -47.52 
L 109.44 -47.52 
L 109.44 -51.8859 
L 112.32 -51.8859 
L 112.32 -51.8859 
L 115.2 -51.8859 
L 115.2 -51.8859 
L 118.08 -51.8859 
L 118.08 -51.8859 
L 120.96 -51.8859 
L 120.96 -51.8859 
L 123.84 -51.8859 
L 123.84 -51.8859 
L 126.72 -51.8859 
L 126.72 -51.8859 
L 129.6 -51.8859 
L 129.6 -51.8859 
L 132.48 -51.8859 
L 132.48 -51.8859 
L 135.36 -51.8859 
L 135.36 -51.8859 
L 138.24 -51.8859 
L 138.24 -51.8859 
L 141.12 -51.8859 
L 141.12 -51.8859 
L 144 -51.8859 
L 144 -51.8859 
L 146.88 -51.8859 
L 146.88 -51.8859 
L 149.76 -51.8859 
L 149.76 -57.910842 
L 152.64 -57.910842 
L 152.64 -57.910842 
L 155.52 -57.910842 
L 155.52 -57.910842 
L 158.4 -57.910842 
L 158.4 -57.910842 
L 161.28 -57.910842 
L 161.28 -57.910842 
L 164.16 -57.910842 
L 164.16 -57.910842 
L 167.04 -57.910842 
L 167.04 -57.910842 
L 169.92 -57.910842 
L 169.92 -70.018938 
L 172.8 -70.018938 
L 172.8 -70.018938 
L 175.68 -70.018938 
L 175.68 -70.018938 
L 178.56 -70.018938 
L 178.56 -70.018938 
L 181.44 -70.018938 
L 181.44 -70.018938 
L 184.32 -70.018938 
L 184.32 -70.018938 
L 187.2 -70.018938 
L 187.2 -70.018938 
L 190.08 -70.018938 
L 190.08 -70.018938 
L 192.96 -70.018938 
L 192.96 -70.018938 
L 195.84 -70.018938 
L 195.84 -70.018938 
L 198.72 -70.018938 
L 198.72 -70.018938 
L 201.6 -70.018938 
L 201.6 -70.018938 
L 204.48 -70.018938 
L 204.48 -70.018938 
L 207.36 -70.018938 
L 207.36 -70.018938 
L 210.24 -70.018938 
L 210.24 -91.214221 
L 213.12 -91.214221 
L 213.12 -91.214221 
L 216 -91.214221 
L 216 -91.214221 
L 218.88 -91.214221 
L 218.88 -91.214221 
L 221.76 -91.214221 
L 221.76 -91.214221 
L 224.64 -91.214221 
L 224.64 -91.214221 
L 227.52 -91.214221 
L 227.52 -91.214221 
L 230.4 -91.214221 
L 230.4 -99.406895 
L 233.28 -99.406895 
L 233.28 -99.406895 
L 236.16 -99.406895 
L 236.16 -99.406895 
L 239.04 -99.406895 
L 239.04 -99.406895 
L 241.92 -99.406895 
L 241.92 -99.406895 
L 244.8 -99.406895 
L 244.8 -99.406895 
L 247.68 -99.406895 
L 247.68 -99.406895 
L 250.56 -99.406895 
L 250.56 -106.395859 
L 253.44 -106.395859 
L 253.44 -106.395859 
L 256.32 -106.395859 
L 256.32 -106.395859 
L 259.2 -106.395859 
L 259.2 -106.395859 
L 262.08 -106.395859 
L 262.08 -106.395859 
L 264.96 -106.395859 
L 264.96 -106.395859 
L 267.84 -106.395859 
L 267.84 -106.395859 
L 270.72 -106.395859 
L 270.72 -121.766105 
L 273.6 -121.766105 
L 273.6 -121.766105 
L 276.48 -121.766105 
L 276.48 -121.766105 
L 279.36 -121.766105 
L 279.36 -121.766105 
L 282.24 -121.766105 
L 282.24 -121.766105 
L 285.12 -121.766105 
L 285.12 -121.766105 
L 288 -121.766105 
L 288 -121.766105 
L 290.88 -121.766105 
L 290.88 -137.104484 
L 293.76 -137.104484 
L 293.76 -137.104484 
L 296.64 -137.104484 
L 296.64 -137.104484 
L 299.52 -137.104484 
L 299.52 -137.104484 
L 302.4 -137.104484 
L 302.4 -137.104484 
L 305.28 -137.104484 
L 305.28 -137.104484 
L 308.16 -137.104484 
L 308.16 -137.104484 
L 311.04 -137.104484 
L 311.04 -160.961826 
L 313.92 -160.961826 
L 313.92 -160.961826 
L 316.8 -160.961826 
L 316.8 -160.961826 
L 319.68 -160.961826 
L 319.68 -160.961826 
L 322.56 -160.961826 
L 322.56 -160.961826 
L 325.44 -160.961826 
L 325.44 -160.961826 
L 328.32 -160.961826 
L 328.32 -160.961826 
L 331.2 -160.961826 
L 331.2 -182.125689 
L 334.08 -182.125689 
L 334.08 -182.125689 
L 336.96 -182.125689 
L 336.96 -182.125689 
L 339.84 -182.125689 
L 339.84 -182.125689 
L 342.72 -182.125689 
L 342.72 -182.125689 
L 345.6 -182.125689 
L 345.6 -182.125689 
L 348.48 -182.125689 
L 348.48 -182.125689 
L 351.36 -182.125689 
L 351.36 -202.290562 
L 354.24 -202.290562 
L 354.24 -202.443528 
L 357.12 -202.443528 
L 357.12 -202.64581 
L 360 -202.64581 
L 360 -202.982589 
L 362.88 -202.982589 
L 362.88 -203.163572 
L 365.76 -203.163572 
L 365.76 -203.596924 
L 368.64 -203.596924 
L 368.64 -203.655269 
L 371.52 -203.655269 
L 371.52 -218.821196 
L 374.4 -218.821196 
L 374.4 -219.01038 
L 377.28 -219.01038 
L 377.28 -292.083165 
L 377.28 -292.083165 
L 374.4 -292.083165 
L 374.4 -292.083165 
L 371.52 -292.083165 
L 371.52 -264.452839 
L 368.64 -264.452839 
L 368.64 -264.452839 
L 365.76 -264.452839 
L 365.76 -264.452839 
L 362.88 -264.452839 
L 362.88 -264.452839 
L 360 -264.452839 
L 360 -264.452839 
L 357.12 -264.452839 
L 357.12 -264.452839 
L 354.24 -264.452839 
L 354.24 -264.452839 
L 351.36 -264.452839 
L 351.36 -234.569709 
L 348.48 -234.569709 
L 348.48 -234.569709 
L 345.6 -234.569709 
L 345.6 -234.569709 
L 342.72 -234.569709 
L 342.72 -234.569709 
L 339.84 -234.569709 
L 339.84 -234.569709 
L 336.96 -234.569709 
L 336.96 -234.569709 
L 334.08 -234.569709 
L 334.08 -234.569709 
L 331.2 -234.569709 
L 331.2 -205.463709 
L 328.32 -205.463709 
L 328.32 -205.463709 
L 325.44 -205.463709 
L 325.44 -205.463709 
L 322.56 -205.463709 
L 322.56 -205.463709 
L 319.68 -205.463709 
L 319.68 -205.463709 
L 316.8 -205.463709 
L 316.8 -205.463709 
L 313.92 -205.463709 
L 313.92 -205.463709 
L 311.04 -205.463709 
L 311.04 -175.467065 
L 308.16 -175.467065 
L 308.16 -175.467065 
L 305.28 -175.467065 
L 305.28 -175.467065 
L 302.4 -175.467065 
L 302.4 -175.467065 
L 299.52 -175.467065 
L 299.52 -175.467065 
L 296.64 -175.467065 
L 296.64 -175.467065 
L 293.76 -175.467065 
L 293.76 -175.467065 
L 290.88 -175.467065 
L 290.88 -153.291204 
L 288 -153.291204 
L 288 -153.291204 
L 285.12 -153.291204 
L 285.12 -153.291204 
L 282.24 -153.291204 
L 282.24 -153.291204 
L 279.36 -153.291204 
L 279.36 -153.291204 
L 276.48 -153.291204 
L 276.48 -153.291204 
L 273.6 -153.291204 
L 273.6 -153.291204 
L 270.72 -153.291204 
L 270.72 -133.440912 
L 267.84 -133.440912 
L 267.84 -133.440912 
L 264.96 -133.440912 
L 264.96 -133.440912 
L 262.08 -133.440912 
L 262.08 -133.440912 
L 259.2 -133.440912 
L 259.2 -133.440912 
L 256.32 -133.440912 
L 256.32 -133.440912 
L 253.44 -133.440912 
L 253.44 -133.440912 
L 250.56 -133.440912 
L 250.56 -119.819304 
L 247.68 -119.819304 
L 247.68 -119.819304 
L 244.8 -119.819304 
L 244.8 -119.819304 
L 241.92 -119.819304 
L 241.92 -119.819304 
L 239.04 -119.819304 
L 239.04 -119.819304 
L 236.16 -119.819304 
L 236.16 -119.819304 
L 233.28 -119.819304 
L 233.28 -119.819304 
L 230.4 -119.819304 
L 230.4 -106.139484 
L 227.52 -106.139484 
L 227.52 -106.139484 
L 224.64 -106.139484 
L 224.64 -106.139484 
L 221.76 -106.139484 
L 221.76 -106.139484 
L 218.88 -106.139484 
L 218.88 -106.139484 
L 216 -106.139484 
L 216 -106.139484 
L 213.12 -106.139484 
L 213.12 -106.139484 
L 210.24 -106.139484 
L 210.24 -92.517876 
L 207.36 -92.517876 
L 207.36 -92.517876 
L 204.48 -92.517876 
L 204.48 -92.517876 
L 201.6 -92.517876 
L 201.6 -92.517876 
L 198.72 -92.517876 
L 198.72 -92.517876 
L 195.84 -92.517876 
L 195.84 -92.517876 
L 192.96 -92.517876 
L 192.96 -92.517876 
L 190.08 -92.517876 
L 190.08 -92.517876 
L 187.2 -92.517876 
L 187.2 -92.517876 
L 184.32 -92.517876 
L 184.32 -92.517876 
L 181.44 -92.517876 
L 181.44 -92.517876 
L 178.56 -92.517876 
L 178.56 -92.517876 
L 175.68 -92.517876 
L 175.68 -92.517876 
L 172.8 -92.517876 
L 172.8 -92.517876 
L 169.92 -92.517876 
L 169.92 -68.301684 
L 167.04 -68.301684 
L 167.04 -68.301684 
L 164.16 -68.301684 
L 164.16 -68.301684 
L 161.28 -68.301684 
L 161.28 -68.301684 
L 158.4 -68.301684 
L 158.4 -68.301684 
L 155.52 -68.301684 
L 155.52 -68.301684 
L 152.64 -68.301684 
L 152.64 -68.301684 
L 149.76 -68.301684 
L 149.76 -56.2518 
L 146.88 -56.2518 
L 146.88 -56.2518 
L 144 -56.2518 
L 144 -56.2518 
L 141.12 -56.2518 
L 141.12 -56.2518 
L 138.24 -56.2518 
L 138.24 -56.2518 
L 135.36 -56.2518 
L 135.36 -56.2518 
L 132.48 -56.2518 
L 132.48 -56.2518 
L 129.6 -56.2518 
L 129.6 -56.2518 
L 126.72 -56.2518 
L 126.72 -56.2518 
L 123.84 -56.2518 
L 123.84 -56.2518 
L 120.96 -56.2518 
L 120.96 -56.2518 
L 118.08 -56.2518 
L 118.08 -56.2518 
L 115.2 -56.2518 
L 115.2 -56.2518 
L 112.32 -56.2518 
L 112.32 -56.2518 
L 109.44 -56.2518 
L 109.44 -47.52 
L 106.56 -47.52 
L 106.56 -47.52 
L 103.68 -47.52 
L 103.68 -47.52 
L 100.8 -47.52 
L 100.8 -47.52 
L 97.92 -47.52 
L 97.92 -47.52 
L 95.04 -47.52 
L 95.04 -47.52 
L 92.16 -47.52 
L 92.16 -47.52 
L 89.28 -47.52 
L 89.28 -47.52 
L 86.4 -47.52 
L 86.4 -47.52 
L 83.52 -47.52 
L 83.52 -47.52 
L 80.64 -47.52 
L 80.64 -47.52 
L 77.76 -47.52 
L 77.76 -47.52 
L 74.88 -47.52 
L 74.88 -47.52 
L 72 -47.52 
L 72 -47.52 
z
" id="m9517e7641c"/>
    </defs>
    <g clip-path="url(#p8270e22b14)">
     <use style="fill:#d62728;" x="0" xlink:href="#m9517e7641c" y="432"/>
    </g>
   </g>
   <g id="matplotlib.axis_1">
    <g id="xtick_1">
     <g id="line2d_1">
      <path clip-path="url(#p8270e22b14)" d="M 92.16 384.48 
L 92.16 51.84 
" style="fill:none;stroke:#000000;stroke-dasharray:0.8,1.32;stroke-dashoffset:0;stroke-width:0.8;"/>
     </g>
     <g id="line2d_2">
      <defs>
       <path d="M 0 0 
L 0 3.5 
" id="m8939294519" style="stroke:#000000;stroke-width:0.8;"/>
      </defs>
      <g>
       <use style="stroke:#000000;stroke-width:0.8;" x="92.16" xlink:href="#m8939294519" y="384.48"/>
      </g>
     </g>
     <g id="text_1">
      <!-- Mar -->
      <g transform="translate(82.726406 399.078438)scale(0.1 -0.1)">
       <defs>
        <path d="M 628 4666 
L 1569 4666 
L 2759 1491 
L 3956 4666 
L 4897 4666 
L 4897 0 
L 4281 0 
L 4281 4097 
L 3078 897 
L 2444 897 
L 1241 4097 
L 1241 0 
L 628 0 
L 628 4666 
z
" id="DejaVuSans-4d" transform="scale(0.015625)"/>
        <path d="M 2194 1759 
Q 1497 1759 1228 1600 
Q 959 1441 959 1056 
Q 959 750 1161 570 
Q 1363 391 1709 391 
Q 2188 391 2477 730 
Q 2766 1069 2766 1631 
L 2766 1759 
L 2194 1759 
z
M 3341 1997 
L 3341 0 
L 2766 0 
L 2766 531 
Q 2569 213 2275 61 
Q 1981 -91 1556 -91 
Q 1019 -91 701 211 
Q 384 513 384 1019 
Q 384 1609 779 1909 
Q 1175 2209 1959 2209 
L 2766 2209 
L 2766 2266 
Q 2766 2663 2505 2880 
Q 2244 3097 1772 3097 
Q 1472 3097 1187 3025 
Q 903 2953 641 2809 
L 641 3341 
Q 956 3463 1253 3523 
Q 1550 3584 1831 3584 
Q 2591 3584 2966 3190 
Q 3341 2797 3341 1997 
z
" id="DejaVuSans-61" transform="scale(0.015625)"/>
        <path d="M 2631 2963 
Q 2534 3019 2420 3045 
Q 2306 3072 2169 3072 
Q 1681 3072 1420 2755 
Q 1159 2438 1159 1844 
L 1159 0 
L 581 0 
L 581 3500 
L 1159 3500 
L 1159 2956 
Q 1341 3275 1631 3429 
Q 1922 3584 2338 3584 
Q 2397 3584 2469 3576 
Q 2541 3569 2628 3553 
L 2631 2963 
z
" id="DejaVuSans-72" transform="scale(0.015625)"/>
       </defs>
       <use xlink:href="#DejaVuSans-4d"/>
       <use x="86.279297" xlink:href="#DejaVuSans-61"/>
       <use x="147.558594" xlink:href="#DejaVuSans-72"/>
      </g>
     </g>
    </g>
    <g id="xtick_2">
     <g id="line2d_3">
      <path clip-path="url(#p8270e22b14)" d="M 132.48 384.48 
L 132.48 51.84 
" style="fill:none;stroke:#000000;stroke-dasharray:0.8,1.32;stroke-dashoffset:0;stroke-width:0.8;"/>
     </g>
     <g id="line2d_4">
      <g>
       <use style="stroke:#000000;stroke-width:0.8;" x="132.48" xlink:href="#m8939294519" y="384.48"/>
      </g>
     </g>
     <g id="text_2">
      <!-- 15 -->
      <g transform="translate(126.1175 399.078438)scale(0.1 -0.1)">
       <defs>
        <path d="M 794 531 
L 1825 531 
L 1825 4091 
L 703 3866 
L 703 4441 
L 1819 4666 
L 2450 4666 
L 2450 531 
L 3481 531 
L 3481 0 
L 794 0 
L 794 531 
z
" id="DejaVuSans-31" transform="scale(0.015625)"/>
        <path d="M 691 4666 
L 3169 4666 
L 3169 4134 
L 1269 4134 
L 1269 2991 
Q 1406 3038 1543 3061 
Q 1681 3084 1819 3084 
Q 2600 3084 3056 2656 
Q 3513 2228 3513 1497 
Q 3513 744 3044 326 
Q 2575 -91 1722 -91 
Q 1428 -91 1123 -41 
Q 819 9 494 109 
L 494 744 
Q 775 591 1075 516 
Q 1375 441 1709 441 
Q 2250 441 2565 725 
Q 2881 1009 2881 1497 
Q 2881 1984 2565 2268 
Q 2250 2553 1709 2553 
Q 1456 2553 1204 2497 
Q 953 2441 691 2322 
L 691 4666 
z
" id="DejaVuSans-35" transform="scale(0.015625)"/>
       </defs>
       <use xlink:href="#DejaVuSans-31"/>
       <use x="63.623047" xlink:href="#DejaVuSans-35"/>
      </g>
     </g>
    </g>
    <g id="xtick_3">
     <g id="line2d_5">
      <path clip-path="url(#p8270e22b14)" d="M 181.44 384.48 
L 181.44 51.84 
" style="fill:none;stroke:#000000;stroke-dasharray:0.8,1.32;stroke-dashoffset:0;stroke-width:0.8;"/>
     </g>
     <g id="line2d_6">
      <g>
       <use style="stroke:#000000;stroke-width:0.8;" x="181.44" xlink:href="#m8939294519" y="384.48"/>
      </g>
     </g>
     <g id="text_3">
      <!-- Apr -->
      <g transform="translate(172.79 399.078438)scale(0.1 -0.1)">
       <defs>
        <path d="M 2188 4044 
L 1331 1722 
L 3047 1722 
L 2188 4044 
z
M 1831 4666 
L 2547 4666 
L 4325 0 
L 3669 0 
L 3244 1197 
L 1141 1197 
L 716 0 
L 50 0 
L 1831 4666 
z
" id="DejaVuSans-41" transform="scale(0.015625)"/>
        <path d="M 1159 525 
L 1159 -1331 
L 581 -1331 
L 581 3500 
L 1159 3500 
L 1159 2969 
Q 1341 3281 1617 3432 
Q 1894 3584 2278 3584 
Q 2916 3584 3314 3078 
Q 3713 2572 3713 1747 
Q 3713 922 3314 415 
Q 2916 -91 2278 -91 
Q 1894 -91 1617 61 
Q 1341 213 1159 525 
z
M 3116 1747 
Q 3116 2381 2855 2742 
Q 2594 3103 2138 3103 
Q 1681 3103 1420 2742 
Q 1159 2381 1159 1747 
Q 1159 1113 1420 752 
Q 1681 391 2138 391 
Q 2594 391 2855 752 
Q 3116 1113 3116 1747 
z
" id="DejaVuSans-70" transform="scale(0.015625)"/>
       </defs>
       <use xlink:href="#DejaVuSans-41"/>
       <use x="68.408203" xlink:href="#DejaVuSans-70"/>
       <use x="131.884766" xlink:href="#DejaVuSans-72"/>
      </g>
     </g>
    </g>
    <g id="xtick_4">
     <g id="line2d_7">
      <path clip-path="url(#p8270e22b14)" d="M 221.76 384.48 
L 221.76 51.84 
" style="fill:none;stroke:#000000;stroke-dasharray:0.8,1.32;stroke-dashoffset:0;stroke-width:0.8;"/>
     </g>
     <g id="line2d_8">
      <g>
       <use style="stroke:#000000;stroke-width:0.8;" x="221.76" xlink:href="#m8939294519" y="384.48"/>
      </g>
     </g>
     <g id="text_4">
      <!-- 15 -->
      <g transform="translate(215.3975 399.078438)scale(0.1 -0.1)">
       <use xlink:href="#DejaVuSans-31"/>
       <use x="63.623047" xlink:href="#DejaVuSans-35"/>
      </g>
     </g>
    </g>
    <g id="xtick_5">
     <g id="line2d_9">
      <path clip-path="url(#p8270e22b14)" d="M 267.84 384.48 
L 267.84 51.84 
" style="fill:none;stroke:#000000;stroke-dasharray:0.8,1.32;stroke-dashoffset:0;stroke-width:0.8;"/>
     </g>
     <g id="line2d_10">
      <g>
       <use style="stroke:#000000;stroke-width:0.8;" x="267.84" xlink:href="#m8939294519" y="384.48"/>
      </g>
     </g>
     <g id="text_5">
      <!-- May -->
      <g transform="translate(257.5025 399.078438)scale(0.1 -0.1)">
       <defs>
        <path d="M 2059 -325 
Q 1816 -950 1584 -1140 
Q 1353 -1331 966 -1331 
L 506 -1331 
L 506 -850 
L 844 -850 
Q 1081 -850 1212 -737 
Q 1344 -625 1503 -206 
L 1606 56 
L 191 3500 
L 800 3500 
L 1894 763 
L 2988 3500 
L 3597 3500 
L 2059 -325 
z
" id="DejaVuSans-79" transform="scale(0.015625)"/>
       </defs>
       <use xlink:href="#DejaVuSans-4d"/>
       <use x="86.279297" xlink:href="#DejaVuSans-61"/>
       <use x="147.558594" xlink:href="#DejaVuSans-79"/>
      </g>
     </g>
    </g>
    <g id="xtick_6">
     <g id="line2d_11">
      <path clip-path="url(#p8270e22b14)" d="M 308.16 384.48 
L 308.16 51.84 
" style="fill:none;stroke:#000000;stroke-dasharray:0.8,1.32;stroke-dashoffset:0;stroke-width:0.8;"/>
     </g>
     <g id="line2d_12">
      <g>
       <use style="stroke:#000000;stroke-width:0.8;" x="308.16" xlink:href="#m8939294519" y="384.48"/>
      </g>
     </g>
     <g id="text_6">
      <!-- 15 -->
      <g transform="translate(301.7975 399.078438)scale(0.1 -0.1)">
       <use xlink:href="#DejaVuSans-31"/>
       <use x="63.623047" xlink:href="#DejaVuSans-35"/>
      </g>
     </g>
    </g>
    <g id="xtick_7">
     <g id="line2d_13">
      <path clip-path="url(#p8270e22b14)" d="M 357.12 384.48 
L 357.12 51.84 
" style="fill:none;stroke:#000000;stroke-dasharray:0.8,1.32;stroke-dashoffset:0;stroke-width:0.8;"/>
     </g>
     <g id="line2d_14">
      <g>
       <use style="stroke:#000000;stroke-width:0.8;" x="357.12" xlink:href="#m8939294519" y="384.48"/>
      </g>
     </g>
     <g id="text_7">
      <!-- Jun -->
      <g transform="translate(349.3075 399.078438)scale(0.1 -0.1)">
       <defs>
        <path d="M 628 4666 
L 1259 4666 
L 1259 325 
Q 1259 -519 939 -900 
Q 619 -1281 -91 -1281 
L -331 -1281 
L -331 -750 
L -134 -750 
Q 284 -750 456 -515 
Q 628 -281 628 325 
L 628 4666 
z
" id="DejaVuSans-4a" transform="scale(0.015625)"/>
        <path d="M 544 1381 
L 544 3500 
L 1119 3500 
L 1119 1403 
Q 1119 906 1312 657 
Q 1506 409 1894 409 
Q 2359 409 2629 706 
Q 2900 1003 2900 1516 
L 2900 3500 
L 3475 3500 
L 3475 0 
L 2900 0 
L 2900 538 
Q 2691 219 2414 64 
Q 2138 -91 1772 -91 
Q 1169 -91 856 284 
Q 544 659 544 1381 
z
M 1991 3584 
L 1991 3584 
z
" id="DejaVuSans-75" transform="scale(0.015625)"/>
        <path d="M 3513 2113 
L 3513 0 
L 2938 0 
L 2938 2094 
Q 2938 2591 2744 2837 
Q 2550 3084 2163 3084 
Q 1697 3084 1428 2787 
Q 1159 2491 1159 1978 
L 1159 0 
L 581 0 
L 581 3500 
L 1159 3500 
L 1159 2956 
Q 1366 3272 1645 3428 
Q 1925 3584 2291 3584 
Q 2894 3584 3203 3211 
Q 3513 2838 3513 2113 
z
" id="DejaVuSans-6e" transform="scale(0.015625)"/>
       </defs>
       <use xlink:href="#DejaVuSans-4a"/>
       <use x="29.492188" xlink:href="#DejaVuSans-75"/>
       <use x="92.871094" xlink:href="#DejaVuSans-6e"/>
      </g>
     </g>
    </g>
    <g id="xtick_8">
     <g id="line2d_15">
      <path clip-path="url(#p8270e22b14)" d="M 397.44 384.48 
L 397.44 51.84 
" style="fill:none;stroke:#000000;stroke-dasharray:0.8,1.32;stroke-dashoffset:0;stroke-width:0.8;"/>
     </g>
     <g id="line2d_16">
      <g>
       <use style="stroke:#000000;stroke-width:0.8;" x="397.44" xlink:href="#m8939294519" y="384.48"/>
      </g>
     </g>
     <g id="text_8">
      <!-- 15 -->
      <g transform="translate(391.0775 399.078438)scale(0.1 -0.1)">
       <use xlink:href="#DejaVuSans-31"/>
       <use x="63.623047" xlink:href="#DejaVuSans-35"/>
      </g>
     </g>
    </g>
    <g id="xtick_9">
     <g id="line2d_17">
      <path clip-path="url(#p8270e22b14)" d="M 443.52 384.48 
L 443.52 51.84 
" style="fill:none;stroke:#000000;stroke-dasharray:0.8,1.32;stroke-dashoffset:0;stroke-width:0.8;"/>
     </g>
     <g id="line2d_18">
      <g>
       <use style="stroke:#000000;stroke-width:0.8;" x="443.52" xlink:href="#m8939294519" y="384.48"/>
      </g>
     </g>
     <g id="text_9">
      <!-- Jul -->
      <g transform="translate(437.487188 399.078438)scale(0.1 -0.1)">
       <defs>
        <path d="M 603 4863 
L 1178 4863 
L 1178 0 
L 603 0 
L 603 4863 
z
" id="DejaVuSans-6c" transform="scale(0.015625)"/>
       </defs>
       <use xlink:href="#DejaVuSans-4a"/>
       <use x="29.492188" xlink:href="#DejaVuSans-75"/>
       <use x="92.871094" xlink:href="#DejaVuSans-6c"/>
      </g>
     </g>
    </g>
    <g id="xtick_10">
     <g id="line2d_19">
      <path clip-path="url(#p8270e22b14)" d="M 483.84 384.48 
L 483.84 51.84 
" style="fill:none;stroke:#000000;stroke-dasharray:0.8,1.32;stroke-dashoffset:0;stroke-width:0.8;"/>
     </g>
     <g id="line2d_20">
      <g>
       <use style="stroke:#000000;stroke-width:0.8;" x="483.84" xlink:href="#m8939294519" y="384.48"/>
      </g>
     </g>
     <g id="text_10">
      <!-- 15 -->
      <g transform="translate(477.4775 399.078438)scale(0.1 -0.1)">
       <use xlink:href="#DejaVuSans-31"/>
       <use x="63.623047" xlink:href="#DejaVuSans-35"/>
      </g>
     </g>
    </g>
   </g>
   <g id="matplotlib.axis_2">
    <g id="ytick_1">
     <g id="line2d_21">
      <path clip-path="url(#p8270e22b14)" d="M 72 384.48 
L 518.4 384.48 
" style="fill:none;stroke:#000000;stroke-dasharray:0.8,1.32;stroke-dashoffset:0;stroke-width:0.8;"/>
     </g>
     <g id="line2d_22">
      <defs>
       <path d="M 0 0 
L -3.5 0 
" id="mdeb616ff82" style="stroke:#000000;stroke-width:0.8;"/>
      </defs>
      <g>
       <use style="stroke:#000000;stroke-width:0.8;" x="72" xlink:href="#mdeb616ff82" y="384.48"/>
      </g>
     </g>
     <g id="text_11">
      <!-- 0 -->
      <g transform="translate(58.6375 388.279219)scale(0.1 -0.1)">
       <defs>
        <path d="M 2034 4250 
Q 1547 4250 1301 3770 
Q 1056 3291 1056 2328 
Q 1056 1369 1301 889 
Q 1547 409 2034 409 
Q 2525 409 2770 889 
Q 3016 1369 3016 2328 
Q 3016 3291 2770 3770 
Q 2525 4250 2034 4250 
z
M 2034 4750 
Q 2819 4750 3233 4129 
Q 3647 3509 3647 2328 
Q 3647 1150 3233 529 
Q 2819 -91 2034 -91 
Q 1250 -91 836 529 
Q 422 1150 422 2328 
Q 422 3509 836 4129 
Q 1250 4750 2034 4750 
z
" id="DejaVuSans-30" transform="scale(0.015625)"/>
       </defs>
       <use xlink:href="#DejaVuSans-30"/>
      </g>
     </g>
    </g>
    <g id="ytick_2">
     <g id="line2d_23">
      <path clip-path="url(#p8270e22b14)" d="M 72 351.216 
L 518.4 351.216 
" style="fill:none;stroke:#000000;stroke-dasharray:0.8,1.32;stroke-dashoffset:0;stroke-width:0.8;"/>
     </g>
     <g id="line2d_24">
      <g>
       <use style="stroke:#000000;stroke-width:0.8;" x="72" xlink:href="#mdeb616ff82" y="351.216"/>
      </g>
     </g>
     <g id="text_12">
      <!-- 1 -->
      <g transform="translate(58.6375 355.015219)scale(0.1 -0.1)">
       <use xlink:href="#DejaVuSans-31"/>
      </g>
     </g>
    </g>
    <g id="ytick_3">
     <g id="line2d_25">
      <path clip-path="url(#p8270e22b14)" d="M 72 317.952 
L 518.4 317.952 
" style="fill:none;stroke:#000000;stroke-dasharray:0.8,1.32;stroke-dashoffset:0;stroke-width:0.8;"/>
     </g>
     <g id="line2d_26">
      <g>
       <use style="stroke:#000000;stroke-width:0.8;" x="72" xlink:href="#mdeb616ff82" y="317.952"/>
      </g>
     </g>
     <g id="text_13">
      <!-- 2 -->
      <g transform="translate(58.6375 321.751219)scale(0.1 -0.1)">
       <defs>
        <path d="M 1228 531 
L 3431 531 
L 3431 0 
L 469 0 
L 469 531 
Q 828 903 1448 1529 
Q 2069 2156 2228 2338 
Q 2531 2678 2651 2914 
Q 2772 3150 2772 3378 
Q 2772 3750 2511 3984 
Q 2250 4219 1831 4219 
Q 1534 4219 1204 4116 
Q 875 4013 500 3803 
L 500 4441 
Q 881 4594 1212 4672 
Q 1544 4750 1819 4750 
Q 2544 4750 2975 4387 
Q 3406 4025 3406 3419 
Q 3406 3131 3298 2873 
Q 3191 2616 2906 2266 
Q 2828 2175 2409 1742 
Q 1991 1309 1228 531 
z
" id="DejaVuSans-32" transform="scale(0.015625)"/>
       </defs>
       <use xlink:href="#DejaVuSans-32"/>
      </g>
     </g>
    </g>
    <g id="ytick_4">
     <g id="line2d_27">
      <path clip-path="url(#p8270e22b14)" d="M 72 284.688 
L 518.4 284.688 
" style="fill:none;stroke:#000000;stroke-dasharray:0.8,1.32;stroke-dashoffset:0;stroke-width:0.8;"/>
     </g>
     <g id="line2d_28">
      <g>
       <use style="stroke:#000000;stroke-width:0.8;" x="72" xlink:href="#mdeb616ff82" y="284.688"/>
      </g>
     </g>
     <g id="text_14">
      <!-- 3 -->
      <g transform="translate(58.6375 288.487219)scale(0.1 -0.1)">
       <defs>
        <path d="M 2597 2516 
Q 3050 2419 3304 2112 
Q 3559 1806 3559 1356 
Q 3559 666 3084 287 
Q 2609 -91 1734 -91 
Q 1441 -91 1130 -33 
Q 819 25 488 141 
L 488 750 
Q 750 597 1062 519 
Q 1375 441 1716 441 
Q 2309 441 2620 675 
Q 2931 909 2931 1356 
Q 2931 1769 2642 2001 
Q 2353 2234 1838 2234 
L 1294 2234 
L 1294 2753 
L 1863 2753 
Q 2328 2753 2575 2939 
Q 2822 3125 2822 3475 
Q 2822 3834 2567 4026 
Q 2313 4219 1838 4219 
Q 1578 4219 1281 4162 
Q 984 4106 628 3988 
L 628 4550 
Q 988 4650 1302 4700 
Q 1616 4750 1894 4750 
Q 2613 4750 3031 4423 
Q 3450 4097 3450 3541 
Q 3450 3153 3228 2886 
Q 3006 2619 2597 2516 
z
" id="DejaVuSans-33" transform="scale(0.015625)"/>
       </defs>
       <use xlink:href="#DejaVuSans-33"/>
      </g>
     </g>
    </g>
    <g id="ytick_5">
     <g id="line2d_29">
      <path clip-path="url(#p8270e22b14)" d="M 72 251.424 
L 518.4 251.424 
" style="fill:none;stroke:#000000;stroke-dasharray:0.8,1.32;stroke-dashoffset:0;stroke-width:0.8;"/>
     </g>
     <g id="line2d_30">
      <g>
       <use style="stroke:#000000;stroke-width:0.8;" x="72" xlink:href="#mdeb616ff82" y="251.424"/>
      </g>
     </g>
     <g id="text_15">
      <!-- 4 -->
      <g transform="translate(58.6375 255.223219)scale(0.1 -0.1)">
       <defs>
        <path d="M 2419 4116 
L 825 1625 
L 2419 1625 
L 2419 4116 
z
M 2253 4666 
L 3047 4666 
L 3047 1625 
L 3713 1625 
L 3713 1100 
L 3047 1100 
L 3047 0 
L 2419 0 
L 2419 1100 
L 313 1100 
L 313 1709 
L 2253 4666 
z
" id="DejaVuSans-34" transform="scale(0.015625)"/>
       </defs>
       <use xlink:href="#DejaVuSans-34"/>
      </g>
     </g>
    </g>
    <g id="ytick_6">
     <g id="line2d_31">
      <path clip-path="url(#p8270e22b14)" d="M 72 218.16 
L 518.4 218.16 
" style="fill:none;stroke:#000000;stroke-dasharray:0.8,1.32;stroke-dashoffset:0;stroke-width:0.8;"/>
     </g>
     <g id="line2d_32">
      <g>
       <use style="stroke:#000000;stroke-width:0.8;" x="72" xlink:href="#mdeb616ff82" y="218.16"/>
      </g>
     </g>
     <g id="text_16">
      <!-- 5 -->
      <g transform="translate(58.6375 221.959219)scale(0.1 -0.1)">
       <use xlink:href="#DejaVuSans-35"/>
      </g>
     </g>
    </g>
    <g id="ytick_7">
     <g id="line2d_33">
      <path clip-path="url(#p8270e22b14)" d="M 72 184.896 
L 518.4 184.896 
" style="fill:none;stroke:#000000;stroke-dasharray:0.8,1.32;stroke-dashoffset:0;stroke-width:0.8;"/>
     </g>
     <g id="line2d_34">
      <g>
       <use style="stroke:#000000;stroke-width:0.8;" x="72" xlink:href="#mdeb616ff82" y="184.896"/>
      </g>
     </g>
     <g id="text_17">
      <!-- 6 -->
      <g transform="translate(58.6375 188.695219)scale(0.1 -0.1)">
       <defs>
        <path d="M 2113 2584 
Q 1688 2584 1439 2293 
Q 1191 2003 1191 1497 
Q 1191 994 1439 701 
Q 1688 409 2113 409 
Q 2538 409 2786 701 
Q 3034 994 3034 1497 
Q 3034 2003 2786 2293 
Q 2538 2584 2113 2584 
z
M 3366 4563 
L 3366 3988 
Q 3128 4100 2886 4159 
Q 2644 4219 2406 4219 
Q 1781 4219 1451 3797 
Q 1122 3375 1075 2522 
Q 1259 2794 1537 2939 
Q 1816 3084 2150 3084 
Q 2853 3084 3261 2657 
Q 3669 2231 3669 1497 
Q 3669 778 3244 343 
Q 2819 -91 2113 -91 
Q 1303 -91 875 529 
Q 447 1150 447 2328 
Q 447 3434 972 4092 
Q 1497 4750 2381 4750 
Q 2619 4750 2861 4703 
Q 3103 4656 3366 4563 
z
" id="DejaVuSans-36" transform="scale(0.015625)"/>
       </defs>
       <use xlink:href="#DejaVuSans-36"/>
      </g>
     </g>
    </g>
    <g id="ytick_8">
     <g id="line2d_35">
      <path clip-path="url(#p8270e22b14)" d="M 72 151.632 
L 518.4 151.632 
" style="fill:none;stroke:#000000;stroke-dasharray:0.8,1.32;stroke-dashoffset:0;stroke-width:0.8;"/>
     </g>
     <g id="line2d_36">
      <g>
       <use style="stroke:#000000;stroke-width:0.8;" x="72" xlink:href="#mdeb616ff82" y="151.632"/>
      </g>
     </g>
     <g id="text_18">
      <!-- 7 -->
      <g transform="translate(58.6375 155.431219)scale(0.1 -0.1)">
       <defs>
        <path d="M 525 4666 
L 3525 4666 
L 3525 4397 
L 1831 0 
L 1172 0 
L 2766 4134 
L 525 4134 
L 525 4666 
z
" id="DejaVuSans-37" transform="scale(0.015625)"/>
       </defs>
       <use xlink:href="#DejaVuSans-37"/>
      </g>
     </g>
    </g>
    <g id="ytick_9">
     <g id="line2d_37">
      <path clip-path="url(#p8270e22b14)" d="M 72 118.368 
L 518.4 118.368 
" style="fill:none;stroke:#000000;stroke-dasharray:0.8,1.32;stroke-dashoffset:0;stroke-width:0.8;"/>
     </g>
     <g id="line2d_38">
      <g>
       <use style="stroke:#000000;stroke-width:0.8;" x="72" xlink:href="#mdeb616ff82" y="118.368"/>
      </g>
     </g>
     <g id="text_19">
      <!-- 8 -->
      <g transform="translate(58.6375 122.167219)scale(0.1 -0.1)">
       <defs>
        <path d="M 2034 2216 
Q 1584 2216 1326 1975 
Q 1069 1734 1069 1313 
Q 1069 891 1326 650 
Q 1584 409 2034 409 
Q 2484 409 2743 651 
Q 3003 894 3003 1313 
Q 3003 1734 2745 1975 
Q 2488 2216 2034 2216 
z
M 1403 2484 
Q 997 2584 770 2862 
Q 544 3141 544 3541 
Q 544 4100 942 4425 
Q 1341 4750 2034 4750 
Q 2731 4750 3128 4425 
Q 3525 4100 3525 3541 
Q 3525 3141 3298 2862 
Q 3072 2584 2669 2484 
Q 3125 2378 3379 2068 
Q 3634 1759 3634 1313 
Q 3634 634 3220 271 
Q 2806 -91 2034 -91 
Q 1263 -91 848 271 
Q 434 634 434 1313 
Q 434 1759 690 2068 
Q 947 2378 1403 2484 
z
M 1172 3481 
Q 1172 3119 1398 2916 
Q 1625 2713 2034 2713 
Q 2441 2713 2670 2916 
Q 2900 3119 2900 3481 
Q 2900 3844 2670 4047 
Q 2441 4250 2034 4250 
Q 1625 4250 1398 4047 
Q 1172 3844 1172 3481 
z
" id="DejaVuSans-38" transform="scale(0.015625)"/>
       </defs>
       <use xlink:href="#DejaVuSans-38"/>
      </g>
     </g>
    </g>
    <g id="ytick_10">
     <g id="line2d_39">
      <path clip-path="url(#p8270e22b14)" d="M 72 85.104 
L 518.4 85.104 
" style="fill:none;stroke:#000000;stroke-dasharray:0.8,1.32;stroke-dashoffset:0;stroke-width:0.8;"/>
     </g>
     <g id="line2d_40">
      <g>
       <use style="stroke:#000000;stroke-width:0.8;" x="72" xlink:href="#mdeb616ff82" y="85.104"/>
      </g>
     </g>
     <g id="text_20">
      <!-- 9 -->
      <g transform="translate(58.6375 88.903219)scale(0.1 -0.1)">
       <defs>
        <path d="M 703 97 
L 703 672 
Q 941 559 1184 500 
Q 1428 441 1663 441 
Q 2288 441 2617 861 
Q 2947 1281 2994 2138 
Q 2813 1869 2534 1725 
Q 2256 1581 1919 1581 
Q 1219 1581 811 2004 
Q 403 2428 403 3163 
Q 403 3881 828 4315 
Q 1253 4750 1959 4750 
Q 2769 4750 3195 4129 
Q 3622 3509 3622 2328 
Q 3622 1225 3098 567 
Q 2575 -91 1691 -91 
Q 1453 -91 1209 -44 
Q 966 3 703 97 
z
M 1959 2075 
Q 2384 2075 2632 2365 
Q 2881 2656 2881 3163 
Q 2881 3666 2632 3958 
Q 2384 4250 1959 4250 
Q 1534 4250 1286 3958 
Q 1038 3666 1038 3163 
Q 1038 2656 1286 2365 
Q 1534 2075 1959 2075 
z
" id="DejaVuSans-39" transform="scale(0.015625)"/>
       </defs>
       <use xlink:href="#DejaVuSans-39"/>
      </g>
     </g>
    </g>
    <g id="ytick_11">
     <g id="line2d_41">
      <path clip-path="url(#p8270e22b14)" d="M 72 51.84 
L 518.4 51.84 
" style="fill:none;stroke:#000000;stroke-dasharray:0.8,1.32;stroke-dashoffset:0;stroke-width:0.8;"/>
     </g>
     <g id="line2d_42">
      <g>
       <use style="stroke:#000000;stroke-width:0.8;" x="72" xlink:href="#mdeb616ff82" y="51.84"/>
      </g>
     </g>
     <g id="text_21">
      <!-- 10 -->
      <g transform="translate(52.275 55.639219)scale(0.1 -0.1)">
       <use xlink:href="#DejaVuSans-31"/>
       <use x="63.623047" xlink:href="#DejaVuSans-30"/>
      </g>
     </g>
    </g>
    <g id="text_22">
     <!-- Cumulative doses (millions) -->
     <g transform="translate(46.195312 287.556094)rotate(-90)scale(0.1 -0.1)">
      <defs>
       <path d="M 4122 4306 
L 4122 3641 
Q 3803 3938 3442 4084 
Q 3081 4231 2675 4231 
Q 1875 4231 1450 3742 
Q 1025 3253 1025 2328 
Q 1025 1406 1450 917 
Q 1875 428 2675 428 
Q 3081 428 3442 575 
Q 3803 722 4122 1019 
L 4122 359 
Q 3791 134 3420 21 
Q 3050 -91 2638 -91 
Q 1578 -91 968 557 
Q 359 1206 359 2328 
Q 359 3453 968 4101 
Q 1578 4750 2638 4750 
Q 3056 4750 3426 4639 
Q 3797 4528 4122 4306 
z
" id="DejaVuSans-43" transform="scale(0.015625)"/>
       <path d="M 3328 2828 
Q 3544 3216 3844 3400 
Q 4144 3584 4550 3584 
Q 5097 3584 5394 3201 
Q 5691 2819 5691 2113 
L 5691 0 
L 5113 0 
L 5113 2094 
Q 5113 2597 4934 2840 
Q 4756 3084 4391 3084 
Q 3944 3084 3684 2787 
Q 3425 2491 3425 1978 
L 3425 0 
L 2847 0 
L 2847 2094 
Q 2847 2600 2669 2842 
Q 2491 3084 2119 3084 
Q 1678 3084 1418 2786 
Q 1159 2488 1159 1978 
L 1159 0 
L 581 0 
L 581 3500 
L 1159 3500 
L 1159 2956 
Q 1356 3278 1631 3431 
Q 1906 3584 2284 3584 
Q 2666 3584 2933 3390 
Q 3200 3197 3328 2828 
z
" id="DejaVuSans-6d" transform="scale(0.015625)"/>
       <path d="M 1172 4494 
L 1172 3500 
L 2356 3500 
L 2356 3053 
L 1172 3053 
L 1172 1153 
Q 1172 725 1289 603 
Q 1406 481 1766 481 
L 2356 481 
L 2356 0 
L 1766 0 
Q 1100 0 847 248 
Q 594 497 594 1153 
L 594 3053 
L 172 3053 
L 172 3500 
L 594 3500 
L 594 4494 
L 1172 4494 
z
" id="DejaVuSans-74" transform="scale(0.015625)"/>
       <path d="M 603 3500 
L 1178 3500 
L 1178 0 
L 603 0 
L 603 3500 
z
M 603 4863 
L 1178 4863 
L 1178 4134 
L 603 4134 
L 603 4863 
z
" id="DejaVuSans-69" transform="scale(0.015625)"/>
       <path d="M 191 3500 
L 800 3500 
L 1894 563 
L 2988 3500 
L 3597 3500 
L 2284 0 
L 1503 0 
L 191 3500 
z
" id="DejaVuSans-76" transform="scale(0.015625)"/>
       <path d="M 3597 1894 
L 3597 1613 
L 953 1613 
Q 991 1019 1311 708 
Q 1631 397 2203 397 
Q 2534 397 2845 478 
Q 3156 559 3463 722 
L 3463 178 
Q 3153 47 2828 -22 
Q 2503 -91 2169 -91 
Q 1331 -91 842 396 
Q 353 884 353 1716 
Q 353 2575 817 3079 
Q 1281 3584 2069 3584 
Q 2775 3584 3186 3129 
Q 3597 2675 3597 1894 
z
M 3022 2063 
Q 3016 2534 2758 2815 
Q 2500 3097 2075 3097 
Q 1594 3097 1305 2825 
Q 1016 2553 972 2059 
L 3022 2063 
z
" id="DejaVuSans-65" transform="scale(0.015625)"/>
       <path id="DejaVuSans-20" transform="scale(0.015625)"/>
       <path d="M 2906 2969 
L 2906 4863 
L 3481 4863 
L 3481 0 
L 2906 0 
L 2906 525 
Q 2725 213 2448 61 
Q 2172 -91 1784 -91 
Q 1150 -91 751 415 
Q 353 922 353 1747 
Q 353 2572 751 3078 
Q 1150 3584 1784 3584 
Q 2172 3584 2448 3432 
Q 2725 3281 2906 2969 
z
M 947 1747 
Q 947 1113 1208 752 
Q 1469 391 1925 391 
Q 2381 391 2643 752 
Q 2906 1113 2906 1747 
Q 2906 2381 2643 2742 
Q 2381 3103 1925 3103 
Q 1469 3103 1208 2742 
Q 947 2381 947 1747 
z
" id="DejaVuSans-64" transform="scale(0.015625)"/>
       <path d="M 1959 3097 
Q 1497 3097 1228 2736 
Q 959 2375 959 1747 
Q 959 1119 1226 758 
Q 1494 397 1959 397 
Q 2419 397 2687 759 
Q 2956 1122 2956 1747 
Q 2956 2369 2687 2733 
Q 2419 3097 1959 3097 
z
M 1959 3584 
Q 2709 3584 3137 3096 
Q 3566 2609 3566 1747 
Q 3566 888 3137 398 
Q 2709 -91 1959 -91 
Q 1206 -91 779 398 
Q 353 888 353 1747 
Q 353 2609 779 3096 
Q 1206 3584 1959 3584 
z
" id="DejaVuSans-6f" transform="scale(0.015625)"/>
       <path d="M 2834 3397 
L 2834 2853 
Q 2591 2978 2328 3040 
Q 2066 3103 1784 3103 
Q 1356 3103 1142 2972 
Q 928 2841 928 2578 
Q 928 2378 1081 2264 
Q 1234 2150 1697 2047 
L 1894 2003 
Q 2506 1872 2764 1633 
Q 3022 1394 3022 966 
Q 3022 478 2636 193 
Q 2250 -91 1575 -91 
Q 1294 -91 989 -36 
Q 684 19 347 128 
L 347 722 
Q 666 556 975 473 
Q 1284 391 1588 391 
Q 1994 391 2212 530 
Q 2431 669 2431 922 
Q 2431 1156 2273 1281 
Q 2116 1406 1581 1522 
L 1381 1569 
Q 847 1681 609 1914 
Q 372 2147 372 2553 
Q 372 3047 722 3315 
Q 1072 3584 1716 3584 
Q 2034 3584 2315 3537 
Q 2597 3491 2834 3397 
z
" id="DejaVuSans-73" transform="scale(0.015625)"/>
       <path d="M 1984 4856 
Q 1566 4138 1362 3434 
Q 1159 2731 1159 2009 
Q 1159 1288 1364 580 
Q 1569 -128 1984 -844 
L 1484 -844 
Q 1016 -109 783 600 
Q 550 1309 550 2009 
Q 550 2706 781 3412 
Q 1013 4119 1484 4856 
L 1984 4856 
z
" id="DejaVuSans-28" transform="scale(0.015625)"/>
       <path d="M 513 4856 
L 1013 4856 
Q 1481 4119 1714 3412 
Q 1947 2706 1947 2009 
Q 1947 1309 1714 600 
Q 1481 -109 1013 -844 
L 513 -844 
Q 928 -128 1133 580 
Q 1338 1288 1338 2009 
Q 1338 2731 1133 3434 
Q 928 4138 513 4856 
z
" id="DejaVuSans-29" transform="scale(0.015625)"/>
      </defs>
      <use xlink:href="#DejaVuSans-43"/>
      <use x="69.824219" xlink:href="#DejaVuSans-75"/>
      <use x="133.203125" xlink:href="#DejaVuSans-6d"/>
      <use x="230.615234" xlink:href="#DejaVuSans-75"/>
      <use x="293.994141" xlink:href="#DejaVuSans-6c"/>
      <use x="321.777344" xlink:href="#DejaVuSans-61"/>
      <use x="383.056641" xlink:href="#DejaVuSans-74"/>
      <use x="422.265625" xlink:href="#DejaVuSans-69"/>
      <use x="450.048828" xlink:href="#DejaVuSans-76"/>
      <use x="509.228516" xlink:href="#DejaVuSans-65"/>
      <use x="570.751953" xlink:href="#DejaVuSans-20"/>
      <use x="602.539062" xlink:href="#DejaVuSans-64"/>
      <use x="666.015625" xlink:href="#DejaVuSans-6f"/>
      <use x="727.197266" xlink:href="#DejaVuSans-73"/>
      <use x="779.296875" xlink:href="#DejaVuSans-65"/>
      <use x="840.820312" xlink:href="#DejaVuSans-73"/>
      <use x="892.919922" xlink:href="#DejaVuSans-20"/>
      <use x="924.707031" xlink:href="#DejaVuSans-28"/>
      <use x="963.720703" xlink:href="#DejaVuSans-6d"/>
      <use x="1061.132812" xlink:href="#DejaVuSans-69"/>
      <use x="1088.916016" xlink:href="#DejaVuSans-6c"/>
      <use x="1116.699219" xlink:href="#DejaVuSans-6c"/>
      <use x="1144.482422" xlink:href="#DejaVuSans-69"/>
      <use x="1172.265625" xlink:href="#DejaVuSans-6f"/>
      <use x="1233.447266" xlink:href="#DejaVuSans-6e"/>
      <use x="1296.826172" xlink:href="#DejaVuSans-73"/>
      <use x="1348.925781" xlink:href="#DejaVuSans-29"/>
     </g>
    </g>
   </g>
   <g id="patch_3">
    <path d="M 72 384.48 
L 72 51.84 
" style="fill:none;stroke:#000000;stroke-linecap:square;stroke-linejoin:miter;stroke-width:0.8;"/>
   </g>
   <g id="patch_4">
    <path d="M 518.4 384.48 
L 518.4 51.84 
" style="fill:none;stroke:#000000;stroke-linecap:square;stroke-linejoin:miter;stroke-width:0.8;"/>
   </g>
   <g id="patch_5">
    <path d="M 72 384.48 
L 518.4 384.48 
" style="fill:none;stroke:#000000;stroke-linecap:square;stroke-linejoin:miter;stroke-width:0.8;"/>
   </g>
   <g id="patch_6">
    <path d="M 72 51.84 
L 518.4 51.84 
" style="fill:none;stroke:#000000;stroke-linecap:square;stroke-linejoin:miter;stroke-width:0.8;"/>
   </g>
   <g id="text_23">
    <!-- Estimated AZ vaccine utilisation: first dose utilisation rate: 68.8% -->
    <g transform="translate(98.22 45.84)scale(0.12 -0.12)">
     <defs>
      <path d="M 628 4666 
L 3578 4666 
L 3578 4134 
L 1259 4134 
L 1259 2753 
L 3481 2753 
L 3481 2222 
L 1259 2222 
L 1259 531 
L 3634 531 
L 3634 0 
L 628 0 
L 628 4666 
z
" id="DejaVuSans-45" transform="scale(0.015625)"/>
      <path d="M 359 4666 
L 4025 4666 
L 4025 4184 
L 1075 531 
L 4097 531 
L 4097 0 
L 288 0 
L 288 481 
L 3238 4134 
L 359 4134 
L 359 4666 
z
" id="DejaVuSans-5a" transform="scale(0.015625)"/>
      <path d="M 3122 3366 
L 3122 2828 
Q 2878 2963 2633 3030 
Q 2388 3097 2138 3097 
Q 1578 3097 1268 2742 
Q 959 2388 959 1747 
Q 959 1106 1268 751 
Q 1578 397 2138 397 
Q 2388 397 2633 464 
Q 2878 531 3122 666 
L 3122 134 
Q 2881 22 2623 -34 
Q 2366 -91 2075 -91 
Q 1284 -91 818 406 
Q 353 903 353 1747 
Q 353 2603 823 3093 
Q 1294 3584 2113 3584 
Q 2378 3584 2631 3529 
Q 2884 3475 3122 3366 
z
" id="DejaVuSans-63" transform="scale(0.015625)"/>
      <path d="M 750 794 
L 1409 794 
L 1409 0 
L 750 0 
L 750 794 
z
M 750 3309 
L 1409 3309 
L 1409 2516 
L 750 2516 
L 750 3309 
z
" id="DejaVuSans-3a" transform="scale(0.015625)"/>
      <path d="M 2375 4863 
L 2375 4384 
L 1825 4384 
Q 1516 4384 1395 4259 
Q 1275 4134 1275 3809 
L 1275 3500 
L 2222 3500 
L 2222 3053 
L 1275 3053 
L 1275 0 
L 697 0 
L 697 3053 
L 147 3053 
L 147 3500 
L 697 3500 
L 697 3744 
Q 697 4328 969 4595 
Q 1241 4863 1831 4863 
L 2375 4863 
z
" id="DejaVuSans-66" transform="scale(0.015625)"/>
      <path d="M 684 794 
L 1344 794 
L 1344 0 
L 684 0 
L 684 794 
z
" id="DejaVuSans-2e" transform="scale(0.015625)"/>
      <path d="M 4653 2053 
Q 4381 2053 4226 1822 
Q 4072 1591 4072 1178 
Q 4072 772 4226 539 
Q 4381 306 4653 306 
Q 4919 306 5073 539 
Q 5228 772 5228 1178 
Q 5228 1588 5073 1820 
Q 4919 2053 4653 2053 
z
M 4653 2450 
Q 5147 2450 5437 2106 
Q 5728 1763 5728 1178 
Q 5728 594 5436 251 
Q 5144 -91 4653 -91 
Q 4153 -91 3862 251 
Q 3572 594 3572 1178 
Q 3572 1766 3864 2108 
Q 4156 2450 4653 2450 
z
M 1428 4353 
Q 1159 4353 1004 4120 
Q 850 3888 850 3481 
Q 850 3069 1003 2837 
Q 1156 2606 1428 2606 
Q 1700 2606 1854 2837 
Q 2009 3069 2009 3481 
Q 2009 3884 1853 4118 
Q 1697 4353 1428 4353 
z
M 4250 4750 
L 4750 4750 
L 1831 -91 
L 1331 -91 
L 4250 4750 
z
M 1428 4750 
Q 1922 4750 2215 4408 
Q 2509 4066 2509 3481 
Q 2509 2891 2217 2550 
Q 1925 2209 1428 2209 
Q 931 2209 642 2551 
Q 353 2894 353 3481 
Q 353 4063 643 4406 
Q 934 4750 1428 4750 
z
" id="DejaVuSans-25" transform="scale(0.015625)"/>
     </defs>
     <use xlink:href="#DejaVuSans-45"/>
     <use x="63.183594" xlink:href="#DejaVuSans-73"/>
     <use x="115.283203" xlink:href="#DejaVuSans-74"/>
     <use x="154.492188" xlink:href="#DejaVuSans-69"/>
     <use x="182.275391" xlink:href="#DejaVuSans-6d"/>
     <use x="279.6875" xlink:href="#DejaVuSans-61"/>
     <use x="340.966797" xlink:href="#DejaVuSans-74"/>
     <use x="380.175781" xlink:href="#DejaVuSans-65"/>
     <use x="441.699219" xlink:href="#DejaVuSans-64"/>
     <use x="505.175781" xlink:href="#DejaVuSans-20"/>
     <use x="536.962891" xlink:href="#DejaVuSans-41"/>
     <use x="605.371094" xlink:href="#DejaVuSans-5a"/>
     <use x="673.876953" xlink:href="#DejaVuSans-20"/>
     <use x="705.664062" xlink:href="#DejaVuSans-76"/>
     <use x="764.84375" xlink:href="#DejaVuSans-61"/>
     <use x="826.123047" xlink:href="#DejaVuSans-63"/>
     <use x="881.103516" xlink:href="#DejaVuSans-63"/>
     <use x="936.083984" xlink:href="#DejaVuSans-69"/>
     <use x="963.867188" xlink:href="#DejaVuSans-6e"/>
     <use x="1027.246094" xlink:href="#DejaVuSans-65"/>
     <use x="1088.769531" xlink:href="#DejaVuSans-20"/>
     <use x="1120.556641" xlink:href="#DejaVuSans-75"/>
     <use x="1183.935547" xlink:href="#DejaVuSans-74"/>
     <use x="1223.144531" xlink:href="#DejaVuSans-69"/>
     <use x="1250.927734" xlink:href="#DejaVuSans-6c"/>
     <use x="1278.710938" xlink:href="#DejaVuSans-69"/>
     <use x="1306.494141" xlink:href="#DejaVuSans-73"/>
     <use x="1358.59375" xlink:href="#DejaVuSans-61"/>
     <use x="1419.873047" xlink:href="#DejaVuSans-74"/>
     <use x="1459.082031" xlink:href="#DejaVuSans-69"/>
     <use x="1486.865234" xlink:href="#DejaVuSans-6f"/>
     <use x="1548.046875" xlink:href="#DejaVuSans-6e"/>
     <use x="1611.425781" xlink:href="#DejaVuSans-3a"/>
     <use x="1645.117188" xlink:href="#DejaVuSans-20"/>
     <use x="1676.904297" xlink:href="#DejaVuSans-66"/>
     <use x="1712.109375" xlink:href="#DejaVuSans-69"/>
     <use x="1739.892578" xlink:href="#DejaVuSans-72"/>
     <use x="1781.005859" xlink:href="#DejaVuSans-73"/>
     <use x="1833.105469" xlink:href="#DejaVuSans-74"/>
     <use x="1872.314453" xlink:href="#DejaVuSans-20"/>
     <use x="1904.101562" xlink:href="#DejaVuSans-64"/>
     <use x="1967.578125" xlink:href="#DejaVuSans-6f"/>
     <use x="2028.759766" xlink:href="#DejaVuSans-73"/>
     <use x="2080.859375" xlink:href="#DejaVuSans-65"/>
     <use x="2142.382812" xlink:href="#DejaVuSans-20"/>
     <use x="2174.169922" xlink:href="#DejaVuSans-75"/>
     <use x="2237.548828" xlink:href="#DejaVuSans-74"/>
     <use x="2276.757812" xlink:href="#DejaVuSans-69"/>
     <use x="2304.541016" xlink:href="#DejaVuSans-6c"/>
     <use x="2332.324219" xlink:href="#DejaVuSans-69"/>
     <use x="2360.107422" xlink:href="#DejaVuSans-73"/>
     <use x="2412.207031" xlink:href="#DejaVuSans-61"/>
     <use x="2473.486328" xlink:href="#DejaVuSans-74"/>
     <use x="2512.695312" xlink:href="#DejaVuSans-69"/>
     <use x="2540.478516" xlink:href="#DejaVuSans-6f"/>
     <use x="2601.660156" xlink:href="#DejaVuSans-6e"/>
     <use x="2665.039062" xlink:href="#DejaVuSans-20"/>
     <use x="2696.826172" xlink:href="#DejaVuSans-72"/>
     <use x="2737.939453" xlink:href="#DejaVuSans-61"/>
     <use x="2799.21875" xlink:href="#DejaVuSans-74"/>
     <use x="2838.427734" xlink:href="#DejaVuSans-65"/>
     <use x="2899.951172" xlink:href="#DejaVuSans-3a"/>
     <use x="2933.642578" xlink:href="#DejaVuSans-20"/>
     <use x="2965.429688" xlink:href="#DejaVuSans-36"/>
     <use x="3029.052734" xlink:href="#DejaVuSans-38"/>
     <use x="3092.675781" xlink:href="#DejaVuSans-2e"/>
     <use x="3124.462891" xlink:href="#DejaVuSans-38"/>
     <use x="3188.085938" xlink:href="#DejaVuSans-25"/>
    </g>
   </g>
   <g id="legend_1">
    <g id="patch_7">
     <path d="M 77.831 144.092147 
L 263.600413 144.092147 
Q 265.266413 144.092147 265.266413 142.426147 
L 265.266413 57.671 
Q 265.266413 56.005 263.600413 56.005 
L 77.831 56.005 
Q 76.165 56.005 76.165 57.671 
L 76.165 142.426147 
Q 76.165 144.092147 77.831 144.092147 
z
" style="fill:#ffffff;opacity:0.8;stroke:#cccccc;stroke-linejoin:miter;"/>
    </g>
    <g id="patch_8">
     <path d="M 79.497 65.666498 
L 96.157 65.666498 
L 96.157 59.835498 
L 79.497 59.835498 
z
" style="fill:#d62728;"/>
    </g>
    <g id="text_24">
     <!-- AZ reserved for second doses (2197k) -->
     <g transform="translate(102.821 65.666498)scale(0.0833 -0.0833)">
      <defs>
       <path d="M 581 4863 
L 1159 4863 
L 1159 1991 
L 2875 3500 
L 3609 3500 
L 1753 1863 
L 3688 0 
L 2938 0 
L 1159 1709 
L 1159 0 
L 581 0 
L 581 4863 
z
" id="DejaVuSans-6b" transform="scale(0.015625)"/>
      </defs>
      <use xlink:href="#DejaVuSans-41"/>
      <use x="68.408203" xlink:href="#DejaVuSans-5a"/>
      <use x="136.914062" xlink:href="#DejaVuSans-20"/>
      <use x="168.701172" xlink:href="#DejaVuSans-72"/>
      <use x="207.564453" xlink:href="#DejaVuSans-65"/>
      <use x="269.087891" xlink:href="#DejaVuSans-73"/>
      <use x="321.1875" xlink:href="#DejaVuSans-65"/>
      <use x="382.710938" xlink:href="#DejaVuSans-72"/>
      <use x="423.824219" xlink:href="#DejaVuSans-76"/>
      <use x="483.003906" xlink:href="#DejaVuSans-65"/>
      <use x="544.527344" xlink:href="#DejaVuSans-64"/>
      <use x="608.003906" xlink:href="#DejaVuSans-20"/>
      <use x="639.791016" xlink:href="#DejaVuSans-66"/>
      <use x="674.996094" xlink:href="#DejaVuSans-6f"/>
      <use x="736.177734" xlink:href="#DejaVuSans-72"/>
      <use x="777.291016" xlink:href="#DejaVuSans-20"/>
      <use x="809.078125" xlink:href="#DejaVuSans-73"/>
      <use x="861.177734" xlink:href="#DejaVuSans-65"/>
      <use x="922.701172" xlink:href="#DejaVuSans-63"/>
      <use x="977.681641" xlink:href="#DejaVuSans-6f"/>
      <use x="1038.863281" xlink:href="#DejaVuSans-6e"/>
      <use x="1102.242188" xlink:href="#DejaVuSans-64"/>
      <use x="1165.71875" xlink:href="#DejaVuSans-20"/>
      <use x="1197.505859" xlink:href="#DejaVuSans-64"/>
      <use x="1260.982422" xlink:href="#DejaVuSans-6f"/>
      <use x="1322.164062" xlink:href="#DejaVuSans-73"/>
      <use x="1374.263672" xlink:href="#DejaVuSans-65"/>
      <use x="1435.787109" xlink:href="#DejaVuSans-73"/>
      <use x="1487.886719" xlink:href="#DejaVuSans-20"/>
      <use x="1519.673828" xlink:href="#DejaVuSans-28"/>
      <use x="1558.6875" xlink:href="#DejaVuSans-32"/>
      <use x="1622.310547" xlink:href="#DejaVuSans-31"/>
      <use x="1685.933594" xlink:href="#DejaVuSans-39"/>
      <use x="1749.556641" xlink:href="#DejaVuSans-37"/>
      <use x="1813.179688" xlink:href="#DejaVuSans-6b"/>
      <use x="1871.089844" xlink:href="#DejaVuSans-29"/>
     </g>
    </g>
    <g id="patch_9">
     <path d="M 79.497 77.893377 
L 96.157 77.893377 
L 96.157 72.062377 
L 79.497 72.062377 
z
" style="fill:#ff7f0e;"/>
    </g>
    <g id="text_25">
     <!-- AZ administered second doses (50k) -->
     <g transform="translate(102.821 77.893377)scale(0.0833 -0.0833)">
      <use xlink:href="#DejaVuSans-41"/>
      <use x="68.408203" xlink:href="#DejaVuSans-5a"/>
      <use x="136.914062" xlink:href="#DejaVuSans-20"/>
      <use x="168.701172" xlink:href="#DejaVuSans-61"/>
      <use x="229.980469" xlink:href="#DejaVuSans-64"/>
      <use x="293.457031" xlink:href="#DejaVuSans-6d"/>
      <use x="390.869141" xlink:href="#DejaVuSans-69"/>
      <use x="418.652344" xlink:href="#DejaVuSans-6e"/>
      <use x="482.03125" xlink:href="#DejaVuSans-69"/>
      <use x="509.814453" xlink:href="#DejaVuSans-73"/>
      <use x="561.914062" xlink:href="#DejaVuSans-74"/>
      <use x="601.123047" xlink:href="#DejaVuSans-65"/>
      <use x="662.646484" xlink:href="#DejaVuSans-72"/>
      <use x="701.509766" xlink:href="#DejaVuSans-65"/>
      <use x="763.033203" xlink:href="#DejaVuSans-64"/>
      <use x="826.509766" xlink:href="#DejaVuSans-20"/>
      <use x="858.296875" xlink:href="#DejaVuSans-73"/>
      <use x="910.396484" xlink:href="#DejaVuSans-65"/>
      <use x="971.919922" xlink:href="#DejaVuSans-63"/>
      <use x="1026.900391" xlink:href="#DejaVuSans-6f"/>
      <use x="1088.082031" xlink:href="#DejaVuSans-6e"/>
      <use x="1151.460938" xlink:href="#DejaVuSans-64"/>
      <use x="1214.9375" xlink:href="#DejaVuSans-20"/>
      <use x="1246.724609" xlink:href="#DejaVuSans-64"/>
      <use x="1310.201172" xlink:href="#DejaVuSans-6f"/>
      <use x="1371.382812" xlink:href="#DejaVuSans-73"/>
      <use x="1423.482422" xlink:href="#DejaVuSans-65"/>
      <use x="1485.005859" xlink:href="#DejaVuSans-73"/>
      <use x="1537.105469" xlink:href="#DejaVuSans-20"/>
      <use x="1568.892578" xlink:href="#DejaVuSans-28"/>
      <use x="1607.90625" xlink:href="#DejaVuSans-35"/>
      <use x="1671.529297" xlink:href="#DejaVuSans-30"/>
      <use x="1735.152344" xlink:href="#DejaVuSans-6b"/>
      <use x="1793.0625" xlink:href="#DejaVuSans-29"/>
     </g>
    </g>
    <g id="patch_10">
     <path d="M 79.497 90.120255 
L 96.157 90.120255 
L 96.157 84.289255 
L 79.497 84.289255 
z
" style="fill:#2ca02c;"/>
    </g>
    <g id="text_26">
     <!-- AZ available for first doses (1593k) -->
     <g transform="translate(102.821 90.120255)scale(0.0833 -0.0833)">
      <defs>
       <path d="M 3116 1747 
Q 3116 2381 2855 2742 
Q 2594 3103 2138 3103 
Q 1681 3103 1420 2742 
Q 1159 2381 1159 1747 
Q 1159 1113 1420 752 
Q 1681 391 2138 391 
Q 2594 391 2855 752 
Q 3116 1113 3116 1747 
z
M 1159 2969 
Q 1341 3281 1617 3432 
Q 1894 3584 2278 3584 
Q 2916 3584 3314 3078 
Q 3713 2572 3713 1747 
Q 3713 922 3314 415 
Q 2916 -91 2278 -91 
Q 1894 -91 1617 61 
Q 1341 213 1159 525 
L 1159 0 
L 581 0 
L 581 4863 
L 1159 4863 
L 1159 2969 
z
" id="DejaVuSans-62" transform="scale(0.015625)"/>
      </defs>
      <use xlink:href="#DejaVuSans-41"/>
      <use x="68.408203" xlink:href="#DejaVuSans-5a"/>
      <use x="136.914062" xlink:href="#DejaVuSans-20"/>
      <use x="168.701172" xlink:href="#DejaVuSans-61"/>
      <use x="229.980469" xlink:href="#DejaVuSans-76"/>
      <use x="289.160156" xlink:href="#DejaVuSans-61"/>
      <use x="350.439453" xlink:href="#DejaVuSans-69"/>
      <use x="378.222656" xlink:href="#DejaVuSans-6c"/>
      <use x="406.005859" xlink:href="#DejaVuSans-61"/>
      <use x="467.285156" xlink:href="#DejaVuSans-62"/>
      <use x="530.761719" xlink:href="#DejaVuSans-6c"/>
      <use x="558.544922" xlink:href="#DejaVuSans-65"/>
      <use x="620.068359" xlink:href="#DejaVuSans-20"/>
      <use x="651.855469" xlink:href="#DejaVuSans-66"/>
      <use x="687.060547" xlink:href="#DejaVuSans-6f"/>
      <use x="748.242188" xlink:href="#DejaVuSans-72"/>
      <use x="789.355469" xlink:href="#DejaVuSans-20"/>
      <use x="821.142578" xlink:href="#DejaVuSans-66"/>
      <use x="856.347656" xlink:href="#DejaVuSans-69"/>
      <use x="884.130859" xlink:href="#DejaVuSans-72"/>
      <use x="925.244141" xlink:href="#DejaVuSans-73"/>
      <use x="977.34375" xlink:href="#DejaVuSans-74"/>
      <use x="1016.552734" xlink:href="#DejaVuSans-20"/>
      <use x="1048.339844" xlink:href="#DejaVuSans-64"/>
      <use x="1111.816406" xlink:href="#DejaVuSans-6f"/>
      <use x="1172.998047" xlink:href="#DejaVuSans-73"/>
      <use x="1225.097656" xlink:href="#DejaVuSans-65"/>
      <use x="1286.621094" xlink:href="#DejaVuSans-73"/>
      <use x="1338.720703" xlink:href="#DejaVuSans-20"/>
      <use x="1370.507812" xlink:href="#DejaVuSans-28"/>
      <use x="1409.521484" xlink:href="#DejaVuSans-31"/>
      <use x="1473.144531" xlink:href="#DejaVuSans-35"/>
      <use x="1536.767578" xlink:href="#DejaVuSans-39"/>
      <use x="1600.390625" xlink:href="#DejaVuSans-33"/>
      <use x="1664.013672" xlink:href="#DejaVuSans-6b"/>
      <use x="1721.923828" xlink:href="#DejaVuSans-29"/>
     </g>
    </g>
    <g id="patch_11">
     <path d="M 79.497 102.347133 
L 96.157 102.347133 
L 96.157 96.516133 
L 79.497 96.516133 
z
" style="fill:#1f77b4;"/>
    </g>
    <g id="text_27">
     <!-- AZ administered first doses (3512k) -->
     <g transform="translate(102.821 102.347133)scale(0.0833 -0.0833)">
      <use xlink:href="#DejaVuSans-41"/>
      <use x="68.408203" xlink:href="#DejaVuSans-5a"/>
      <use x="136.914062" xlink:href="#DejaVuSans-20"/>
      <use x="168.701172" xlink:href="#DejaVuSans-61"/>
      <use x="229.980469" xlink:href="#DejaVuSans-64"/>
      <use x="293.457031" xlink:href="#DejaVuSans-6d"/>
      <use x="390.869141" xlink:href="#DejaVuSans-69"/>
      <use x="418.652344" xlink:href="#DejaVuSans-6e"/>
      <use x="482.03125" xlink:href="#DejaVuSans-69"/>
      <use x="509.814453" xlink:href="#DejaVuSans-73"/>
      <use x="561.914062" xlink:href="#DejaVuSans-74"/>
      <use x="601.123047" xlink:href="#DejaVuSans-65"/>
      <use x="662.646484" xlink:href="#DejaVuSans-72"/>
      <use x="701.509766" xlink:href="#DejaVuSans-65"/>
      <use x="763.033203" xlink:href="#DejaVuSans-64"/>
      <use x="826.509766" xlink:href="#DejaVuSans-20"/>
      <use x="858.296875" xlink:href="#DejaVuSans-66"/>
      <use x="893.501953" xlink:href="#DejaVuSans-69"/>
      <use x="921.285156" xlink:href="#DejaVuSans-72"/>
      <use x="962.398438" xlink:href="#DejaVuSans-73"/>
      <use x="1014.498047" xlink:href="#DejaVuSans-74"/>
      <use x="1053.707031" xlink:href="#DejaVuSans-20"/>
      <use x="1085.494141" xlink:href="#DejaVuSans-64"/>
      <use x="1148.970703" xlink:href="#DejaVuSans-6f"/>
      <use x="1210.152344" xlink:href="#DejaVuSans-73"/>
      <use x="1262.251953" xlink:href="#DejaVuSans-65"/>
      <use x="1323.775391" xlink:href="#DejaVuSans-73"/>
      <use x="1375.875" xlink:href="#DejaVuSans-20"/>
      <use x="1407.662109" xlink:href="#DejaVuSans-28"/>
      <use x="1446.675781" xlink:href="#DejaVuSans-33"/>
      <use x="1510.298828" xlink:href="#DejaVuSans-35"/>
      <use x="1573.921875" xlink:href="#DejaVuSans-31"/>
      <use x="1637.544922" xlink:href="#DejaVuSans-32"/>
      <use x="1701.167969" xlink:href="#DejaVuSans-6b"/>
      <use x="1759.078125" xlink:href="#DejaVuSans-29"/>
     </g>
    </g>
    <g id="patch_12">
     <path d="M 79.497 114.574011 
L 96.157 114.574011 
L 96.157 108.743011 
L 79.497 108.743011 
z
" style="fill:#ff0000;opacity:0.35;"/>
    </g>
    <g id="text_28">
     <!-- Phase 1a -->
     <g transform="translate(102.821 114.574011)scale(0.0833 -0.0833)">
      <defs>
       <path d="M 1259 4147 
L 1259 2394 
L 2053 2394 
Q 2494 2394 2734 2622 
Q 2975 2850 2975 3272 
Q 2975 3691 2734 3919 
Q 2494 4147 2053 4147 
L 1259 4147 
z
M 628 4666 
L 2053 4666 
Q 2838 4666 3239 4311 
Q 3641 3956 3641 3272 
Q 3641 2581 3239 2228 
Q 2838 1875 2053 1875 
L 1259 1875 
L 1259 0 
L 628 0 
L 628 4666 
z
" id="DejaVuSans-50" transform="scale(0.015625)"/>
       <path d="M 3513 2113 
L 3513 0 
L 2938 0 
L 2938 2094 
Q 2938 2591 2744 2837 
Q 2550 3084 2163 3084 
Q 1697 3084 1428 2787 
Q 1159 2491 1159 1978 
L 1159 0 
L 581 0 
L 581 4863 
L 1159 4863 
L 1159 2956 
Q 1366 3272 1645 3428 
Q 1925 3584 2291 3584 
Q 2894 3584 3203 3211 
Q 3513 2838 3513 2113 
z
" id="DejaVuSans-68" transform="scale(0.015625)"/>
      </defs>
      <use xlink:href="#DejaVuSans-50"/>
      <use x="60.302734" xlink:href="#DejaVuSans-68"/>
      <use x="123.681641" xlink:href="#DejaVuSans-61"/>
      <use x="184.960938" xlink:href="#DejaVuSans-73"/>
      <use x="237.060547" xlink:href="#DejaVuSans-65"/>
      <use x="298.583984" xlink:href="#DejaVuSans-20"/>
      <use x="330.371094" xlink:href="#DejaVuSans-31"/>
      <use x="393.994141" xlink:href="#DejaVuSans-61"/>
     </g>
    </g>
    <g id="patch_13">
     <path d="M 79.497 126.800889 
L 96.157 126.800889 
L 96.157 120.969889 
L 79.497 120.969889 
z
" style="fill:#ffa500;opacity:0.35;"/>
    </g>
    <g id="text_29">
     <!-- Phase 1b -->
     <g transform="translate(102.821 126.800889)scale(0.0833 -0.0833)">
      <use xlink:href="#DejaVuSans-50"/>
      <use x="60.302734" xlink:href="#DejaVuSans-68"/>
      <use x="123.681641" xlink:href="#DejaVuSans-61"/>
      <use x="184.960938" xlink:href="#DejaVuSans-73"/>
      <use x="237.060547" xlink:href="#DejaVuSans-65"/>
      <use x="298.583984" xlink:href="#DejaVuSans-20"/>
      <use x="330.371094" xlink:href="#DejaVuSans-31"/>
      <use x="393.994141" xlink:href="#DejaVuSans-62"/>
     </g>
    </g>
    <g id="patch_14">
     <path d="M 79.497 139.027767 
L 96.157 139.027767 
L 96.157 133.196767 
L 79.497 133.196767 
z
" style="fill:#ffff00;opacity:0.35;"/>
    </g>
    <g id="text_30">
     <!-- Phase 2a -->
     <g transform="translate(102.821 139.027767)scale(0.0833 -0.0833)">
      <use xlink:href="#DejaVuSans-50"/>
      <use x="60.302734" xlink:href="#DejaVuSans-68"/>
      <use x="123.681641" xlink:href="#DejaVuSans-61"/>
      <use x="184.960938" xlink:href="#DejaVuSans-73"/>
      <use x="237.060547" xlink:href="#DejaVuSans-65"/>
      <use x="298.583984" xlink:href="#DejaVuSans-20"/>
      <use x="330.371094" xlink:href="#DejaVuSans-32"/>
      <use x="393.994141" xlink:href="#DejaVuSans-61"/>
     </g>
    </g>
   </g>
  </g>
 </g>
 <defs>
  <clipPath id="p8270e22b14">
   <rect height="332.64" width="446.4" x="72" y="51.84"/>
  </clipPath>
 </defs>
</svg>
