<?xml version="1.0" encoding="utf-8" standalone="no"?>
<!DOCTYPE svg PUBLIC "-//W3C//DTD SVG 1.1//EN"
  "http://www.w3.org/Graphics/SVG/1.1/DTD/svg11.dtd">
<svg height="432pt" version="1.1" viewBox="0 0 576 432" width="576pt" xmlns="http://www.w3.org/2000/svg" xmlns:xlink="http://www.w3.org/1999/xlink">
 <metadata>
  <rdf:RDF xmlns:cc="http://creativecommons.org/ns#" xmlns:dc="http://purl.org/dc/elements/1.1/" xmlns:rdf="http://www.w3.org/1999/02/22-rdf-syntax-ns#">
   <cc:Work>
    <dc:type rdf:resource="http://purl.org/dc/dcmitype/StillImage"/>
    <dc:date>2021-04-13T22:12:47.107049</dc:date>
    <dc:format>image/svg+xml</dc:format>
    <dc:creator>
     <cc:Agent>
      <dc:title>Matplotlib v3.4.1, https://matplotlib.org/</dc:title>
     </cc:Agent>
    </dc:creator>
   </cc:Work>
  </rdf:RDF>
 </metadata>
 <defs>
  <style type="text/css">*{stroke-linecap:butt;stroke-linejoin:round;}</style>
 </defs>
 <g id="figure_1">
  <g id="patch_1">
   <path d="M 0 432 
L 576 432 
L 576 0 
L 0 0 
z
" style="fill:#ffffff;"/>
  </g>
  <g id="axes_1">
   <g id="patch_2">
    <path d="M 72 384.48 
L 518.4 384.48 
L 518.4 51.84 
L 72 51.84 
z
" style="fill:#ffffff;"/>
   </g>
   <g id="PolyCollection_1">
    <defs>
     <path d="M 169.2 -47.52 
L 68.4 -47.52 
L 68.4 -380.16 
L 169.2 -380.16 
L 169.2 -380.16 
L 169.2 -47.52 
z
" id="me6273a4f47"/>
    </defs>
    <g clip-path="url(#pab52e3c420)">
     <use style="fill:#ff0000;fill-opacity:0.5;" x="0" xlink:href="#me6273a4f47" y="432"/>
    </g>
   </g>
   <g id="PolyCollection_2">
    <defs>
     <path d="M 356.4 -47.52 
L 169.2 -47.52 
L 169.2 -380.16 
L 356.4 -380.16 
L 356.4 -380.16 
L 356.4 -47.52 
z
" id="mef7acf945d"/>
    </defs>
    <g clip-path="url(#pab52e3c420)">
     <use style="fill:#ffa500;fill-opacity:0.5;" x="0" xlink:href="#mef7acf945d" y="432"/>
    </g>
   </g>
   <g id="PolyCollection_3">
    <defs>
     <path d="M 360 -47.52 
L 356.4 -47.52 
L 356.4 -380.16 
L 360 -380.16 
L 360 -380.16 
L 360 -47.52 
z
" id="md2bb601df3"/>
    </defs>
    <g clip-path="url(#pab52e3c420)">
     <use style="fill:#ffa500;fill-opacity:0.5;" x="0" xlink:href="#md2bb601df3" y="432"/>
    </g>
   </g>
   <g id="PolyCollection_4">
    <defs>
     <path d="M 363.6 -47.52 
L 360 -47.52 
L 360 -380.16 
L 363.6 -380.16 
L 363.6 -380.16 
L 363.6 -47.52 
z
" id="m60e7006904"/>
    </defs>
    <g clip-path="url(#pab52e3c420)">
     <use style="fill:#ffa500;fill-opacity:0.45;" x="0" xlink:href="#m60e7006904" y="432"/>
    </g>
   </g>
   <g id="PolyCollection_5">
    <defs>
     <path d="M 367.2 -47.52 
L 363.6 -47.52 
L 363.6 -380.16 
L 367.2 -380.16 
L 367.2 -380.16 
L 367.2 -47.52 
z
" id="m81d2d652f0"/>
    </defs>
    <g clip-path="url(#pab52e3c420)">
     <use style="fill:#ffa500;fill-opacity:0.4;" x="0" xlink:href="#m81d2d652f0" y="432"/>
    </g>
   </g>
   <g id="PolyCollection_6">
    <defs>
     <path d="M 370.8 -47.52 
L 367.2 -47.52 
L 367.2 -380.16 
L 370.8 -380.16 
L 370.8 -380.16 
L 370.8 -47.52 
z
" id="mac6c7bfc4f"/>
    </defs>
    <g clip-path="url(#pab52e3c420)">
     <use style="fill:#ffa500;fill-opacity:0.35;" x="0" xlink:href="#mac6c7bfc4f" y="432"/>
    </g>
   </g>
   <g id="PolyCollection_7">
    <defs>
     <path d="M 374.4 -47.52 
L 370.8 -47.52 
L 370.8 -380.16 
L 374.4 -380.16 
L 374.4 -380.16 
L 374.4 -47.52 
z
" id="md930aa2f7c"/>
    </defs>
    <g clip-path="url(#pab52e3c420)">
     <use style="fill:#ffa500;fill-opacity:0.3;" x="0" xlink:href="#md930aa2f7c" y="432"/>
    </g>
   </g>
   <g id="PolyCollection_8">
    <defs>
     <path d="M 378 -47.52 
L 374.4 -47.52 
L 374.4 -380.16 
L 378 -380.16 
L 378 -380.16 
L 378 -47.52 
z
" id="mba56ee678a"/>
    </defs>
    <g clip-path="url(#pab52e3c420)">
     <use style="fill:#ffa500;fill-opacity:0.25;" x="0" xlink:href="#mba56ee678a" y="432"/>
    </g>
   </g>
   <g id="PolyCollection_9">
    <defs>
     <path d="M 381.6 -47.52 
L 378 -47.52 
L 378 -380.16 
L 381.6 -380.16 
L 381.6 -380.16 
L 381.6 -47.52 
z
" id="m2cc3423106"/>
    </defs>
    <g clip-path="url(#pab52e3c420)">
     <use style="fill:#ffa500;fill-opacity:0.2;" x="0" xlink:href="#m2cc3423106" y="432"/>
    </g>
   </g>
   <g id="PolyCollection_10">
    <defs>
     <path d="M 385.2 -47.52 
L 381.6 -47.52 
L 381.6 -380.16 
L 385.2 -380.16 
L 385.2 -380.16 
L 385.2 -47.52 
z
" id="mfd4876ee0c"/>
    </defs>
    <g clip-path="url(#pab52e3c420)">
     <use style="fill:#ffa500;fill-opacity:0.15;" x="0" xlink:href="#mfd4876ee0c" y="432"/>
    </g>
   </g>
   <g id="PolyCollection_11">
    <defs>
     <path d="M 388.8 -47.52 
L 385.2 -47.52 
L 385.2 -380.16 
L 388.8 -380.16 
L 388.8 -380.16 
L 388.8 -47.52 
z
" id="m909524c308"/>
    </defs>
    <g clip-path="url(#pab52e3c420)">
     <use style="fill:#ffa500;fill-opacity:0.1;" x="0" xlink:href="#m909524c308" y="432"/>
    </g>
   </g>
   <g id="PolyCollection_12">
    <defs>
     <path d="M 392.4 -47.52 
L 388.8 -47.52 
L 388.8 -380.16 
L 392.4 -380.16 
L 392.4 -380.16 
L 392.4 -47.52 
z
" id="m5fd066659c"/>
    </defs>
    <g clip-path="url(#pab52e3c420)">
     <use style="fill:#ffa500;fill-opacity:0.05;" x="0" xlink:href="#m5fd066659c" y="432"/>
    </g>
   </g>
   <g id="PolyCollection_13">
    <defs>
     <path d="M 72 -47.52 
L 72 -47.52 
L 72 -47.52 
L 75.6 -47.52 
L 75.6 -47.52 
L 79.2 -47.52 
L 79.2 -47.52 
L 82.8 -47.52 
L 82.8 -47.52 
L 86.4 -47.52 
L 86.4 -47.52 
L 90 -47.52 
L 90 -47.52 
L 93.6 -47.52 
L 93.6 -47.52 
L 97.2 -47.52 
L 97.2 -47.52 
L 100.8 -47.52 
L 100.8 -47.52 
L 104.4 -47.52 
L 104.4 -47.52 
L 108 -47.52 
L 108 -47.52 
L 111.6 -47.52 
L 111.6 -47.52 
L 115.2 -47.52 
L 115.2 -47.52 
L 118.8 -47.52 
L 118.8 -47.52 
L 122.4 -47.52 
L 122.4 -47.52 
L 126 -47.52 
L 126 -47.52 
L 129.6 -47.52 
L 129.6 -47.52 
L 133.2 -47.52 
L 133.2 -47.52 
L 136.8 -47.52 
L 136.8 -47.52 
L 140.4 -47.52 
L 140.4 -47.52 
L 144 -47.52 
L 144 -47.52 
L 147.6 -47.52 
L 147.6 -47.52 
L 151.2 -47.52 
L 151.2 -47.52 
L 154.8 -47.52 
L 154.8 -47.52 
L 158.4 -47.52 
L 158.4 -47.52 
L 162 -47.52 
L 162 -47.52 
L 165.6 -47.52 
L 165.6 -47.52 
L 169.2 -47.52 
L 169.2 -47.52 
L 172.8 -47.52 
L 172.8 -47.52 
L 176.4 -47.52 
L 176.4 -47.52 
L 180 -47.52 
L 180 -47.52 
L 183.6 -47.52 
L 183.6 -47.52 
L 187.2 -47.52 
L 187.2 -47.52 
L 190.8 -47.52 
L 190.8 -47.52 
L 194.4 -47.52 
L 194.4 -47.52 
L 198 -47.52 
L 198 -47.52 
L 201.6 -47.52 
L 201.6 -47.52 
L 205.2 -47.52 
L 205.2 -47.52 
L 208.8 -47.52 
L 208.8 -47.52 
L 212.4 -47.52 
L 212.4 -47.52 
L 216 -47.52 
L 216 -47.52 
L 219.6 -47.52 
L 219.6 -47.52 
L 223.2 -47.52 
L 223.2 -47.52 
L 226.8 -47.52 
L 226.8 -47.52 
L 230.4 -47.52 
L 230.4 -47.52 
L 234 -47.52 
L 234 -47.52 
L 237.6 -47.52 
L 237.6 -47.52 
L 241.2 -47.52 
L 241.2 -47.52 
L 244.8 -47.52 
L 244.8 -47.52 
L 248.4 -47.52 
L 248.4 -47.52 
L 252 -47.52 
L 252 -92.213257 
L 252 -92.213257 
L 248.4 -92.213257 
L 248.4 -89.797397 
L 244.8 -89.797397 
L 244.8 -89.718857 
L 241.2 -89.718857 
L 241.2 -88.379055 
L 237.6 -88.379055 
L 237.6 -85.523344 
L 234 -85.523344 
L 234 -81.660901 
L 230.4 -81.660901 
L 230.4 -78.17368 
L 226.8 -78.17368 
L 226.8 -75.313943 
L 223.2 -75.313943 
L 223.2 -75.293201 
L 219.6 -75.293201 
L 219.6 -75.312141 
L 216 -75.312141 
L 216 -74.721887 
L 212.4 -74.721887 
L 212.4 -75.284466 
L 208.8 -75.284466 
L 208.8 -71.874288 
L 205.2 -71.874288 
L 205.2 -68.99804 
L 201.6 -68.99804 
L 201.6 -65.931231 
L 198 -65.931231 
L 198 -63.552896 
L 194.4 -63.552896 
L 194.4 -62.274671 
L 190.8 -62.274671 
L 190.8 -62.166206 
L 187.2 -62.166206 
L 187.2 -60.13145 
L 183.6 -60.13145 
L 183.6 -58.011055 
L 180 -58.011055 
L 180 -55.803713 
L 176.4 -55.803713 
L 176.4 -53.815921 
L 172.8 -53.815921 
L 172.8 -53.170966 
L 169.2 -53.170966 
L 169.2 -52.291867 
L 165.6 -52.291867 
L 165.6 -52.243164 
L 162 -52.243164 
L 162 -51.939166 
L 158.4 -51.939166 
L 158.4 -51.668289 
L 154.8 -51.668289 
L 154.8 -51.220102 
L 151.2 -51.220102 
L 151.2 -50.57684 
L 147.6 -50.57684 
L 147.6 -50.273291 
L 144 -50.273291 
L 144 -50.227955 
L 140.4 -50.227955 
L 140.4 -50.16114 
L 136.8 -50.16114 
L 136.8 -49.664881 
L 133.2 -49.664881 
L 133.2 -49.457626 
L 129.6 -49.457626 
L 129.6 -49.071958 
L 126 -49.071958 
L 126 -48.840312 
L 122.4 -48.840312 
L 122.4 -48.627596 
L 118.8 -48.627596 
L 118.8 -48.502443 
L 115.2 -48.502443 
L 115.2 -48.392709 
L 111.6 -48.392709 
L 111.6 -48.266336 
L 108 -48.266336 
L 108 -47.995826 
L 104.4 -47.995826 
L 104.4 -47.742531 
L 100.8 -47.742531 
L 100.8 -47.52 
L 97.2 -47.52 
L 97.2 -47.52 
L 93.6 -47.52 
L 93.6 -47.52 
L 90 -47.52 
L 90 -47.52 
L 86.4 -47.52 
L 86.4 -47.52 
L 82.8 -47.52 
L 82.8 -47.52 
L 79.2 -47.52 
L 79.2 -47.52 
L 75.6 -47.52 
L 75.6 -47.52 
L 72 -47.52 
L 72 -47.52 
z
" id="m702952662f"/>
    </defs>
    <g clip-path="url(#pab52e3c420)">
     <use style="fill:#1f77b4;" x="0" xlink:href="#m702952662f" y="432"/>
    </g>
   </g>
   <g id="PolyCollection_14">
    <defs>
     <path d="M 72 -47.52 
L 72 -47.52 
L 72 -47.52 
L 75.6 -47.52 
L 75.6 -47.52 
L 79.2 -47.52 
L 79.2 -47.52 
L 82.8 -47.52 
L 82.8 -47.52 
L 86.4 -47.52 
L 86.4 -47.52 
L 90 -47.52 
L 90 -47.52 
L 93.6 -47.52 
L 93.6 -47.52 
L 97.2 -47.52 
L 97.2 -47.52 
L 100.8 -47.52 
L 100.8 -47.742531 
L 104.4 -47.742531 
L 104.4 -47.995826 
L 108 -47.995826 
L 108 -48.266336 
L 111.6 -48.266336 
L 111.6 -48.392709 
L 115.2 -48.392709 
L 115.2 -48.502443 
L 118.8 -48.502443 
L 118.8 -48.627596 
L 122.4 -48.627596 
L 122.4 -48.840312 
L 126 -48.840312 
L 126 -49.071958 
L 129.6 -49.071958 
L 129.6 -49.457626 
L 133.2 -49.457626 
L 133.2 -49.664881 
L 136.8 -49.664881 
L 136.8 -50.16114 
L 140.4 -50.16114 
L 140.4 -50.227955 
L 144 -50.227955 
L 144 -50.273291 
L 147.6 -50.273291 
L 147.6 -50.57684 
L 151.2 -50.57684 
L 151.2 -51.220102 
L 154.8 -51.220102 
L 154.8 -51.668289 
L 158.4 -51.668289 
L 158.4 -51.939166 
L 162 -51.939166 
L 162 -52.243164 
L 165.6 -52.243164 
L 165.6 -52.291867 
L 169.2 -52.291867 
L 169.2 -53.170966 
L 172.8 -53.170966 
L 172.8 -53.815921 
L 176.4 -53.815921 
L 176.4 -55.803713 
L 180 -55.803713 
L 180 -58.011055 
L 183.6 -58.011055 
L 183.6 -60.13145 
L 187.2 -60.13145 
L 187.2 -62.166206 
L 190.8 -62.166206 
L 190.8 -62.274671 
L 194.4 -62.274671 
L 194.4 -63.552896 
L 198 -63.552896 
L 198 -65.931231 
L 201.6 -65.931231 
L 201.6 -68.99804 
L 205.2 -68.99804 
L 205.2 -71.874288 
L 208.8 -71.874288 
L 208.8 -75.284466 
L 212.4 -75.284466 
L 212.4 -74.721887 
L 216 -74.721887 
L 216 -75.312141 
L 219.6 -75.312141 
L 219.6 -75.293201 
L 223.2 -75.293201 
L 223.2 -75.313943 
L 226.8 -75.313943 
L 226.8 -78.17368 
L 230.4 -78.17368 
L 230.4 -81.660901 
L 234 -81.660901 
L 234 -85.523344 
L 237.6 -85.523344 
L 237.6 -88.379055 
L 241.2 -88.379055 
L 241.2 -89.718857 
L 244.8 -89.718857 
L 244.8 -89.797397 
L 248.4 -89.797397 
L 248.4 -92.213257 
L 252 -92.213257 
L 252 -114.048 
L 252 -114.048 
L 248.4 -114.048 
L 248.4 -114.048 
L 244.8 -114.048 
L 244.8 -114.048 
L 241.2 -114.048 
L 241.2 -114.048 
L 237.6 -114.048 
L 237.6 -114.048 
L 234 -114.048 
L 234 -114.048 
L 230.4 -114.048 
L 230.4 -114.048 
L 226.8 -114.048 
L 226.8 -98.480448 
L 223.2 -98.480448 
L 223.2 -98.480448 
L 219.6 -98.480448 
L 219.6 -98.480448 
L 216 -98.480448 
L 216 -98.480448 
L 212.4 -98.480448 
L 212.4 -98.480448 
L 208.8 -98.480448 
L 208.8 -98.480448 
L 205.2 -98.480448 
L 205.2 -98.480448 
L 201.6 -98.480448 
L 201.6 -98.480448 
L 198 -98.480448 
L 198 -98.480448 
L 194.4 -98.480448 
L 194.4 -98.480448 
L 190.8 -98.480448 
L 190.8 -98.480448 
L 187.2 -98.480448 
L 187.2 -98.480448 
L 183.6 -98.480448 
L 183.6 -98.480448 
L 180 -98.480448 
L 180 -98.480448 
L 176.4 -98.480448 
L 176.4 -70.8048 
L 172.8 -70.8048 
L 172.8 -70.8048 
L 169.2 -70.8048 
L 169.2 -70.8048 
L 165.6 -70.8048 
L 165.6 -70.8048 
L 162 -70.8048 
L 162 -70.8048 
L 158.4 -70.8048 
L 158.4 -70.8048 
L 154.8 -70.8048 
L 154.8 -70.8048 
L 151.2 -70.8048 
L 151.2 -57.4992 
L 147.6 -57.4992 
L 147.6 -57.4992 
L 144 -57.4992 
L 144 -57.4992 
L 140.4 -57.4992 
L 140.4 -57.4992 
L 136.8 -57.4992 
L 136.8 -57.4992 
L 133.2 -57.4992 
L 133.2 -57.4992 
L 129.6 -57.4992 
L 129.6 -57.4992 
L 126 -57.4992 
L 126 -57.4992 
L 122.4 -57.4992 
L 122.4 -57.4992 
L 118.8 -57.4992 
L 118.8 -57.4992 
L 115.2 -57.4992 
L 115.2 -57.4992 
L 111.6 -57.4992 
L 111.6 -57.4992 
L 108 -57.4992 
L 108 -57.4992 
L 104.4 -57.4992 
L 104.4 -57.4992 
L 100.8 -57.4992 
L 100.8 -47.52 
L 97.2 -47.52 
L 97.2 -47.52 
L 93.6 -47.52 
L 93.6 -47.52 
L 90 -47.52 
L 90 -47.52 
L 86.4 -47.52 
L 86.4 -47.52 
L 82.8 -47.52 
L 82.8 -47.52 
L 79.2 -47.52 
L 79.2 -47.52 
L 75.6 -47.52 
L 75.6 -47.52 
L 72 -47.52 
L 72 -47.52 
z
" id="m1677eaa59b"/>
    </defs>
    <g clip-path="url(#pab52e3c420)">
     <use style="fill:#2ca02c;" x="0" xlink:href="#m1677eaa59b" y="432"/>
    </g>
   </g>
   <g id="PolyCollection_15">
    <defs>
     <path d="M 72 -47.52 
L 72 -47.52 
L 72 -47.52 
L 75.6 -47.52 
L 75.6 -47.52 
L 79.2 -47.52 
L 79.2 -47.52 
L 82.8 -47.52 
L 82.8 -47.52 
L 86.4 -47.52 
L 86.4 -47.52 
L 90 -47.52 
L 90 -47.52 
L 93.6 -47.52 
L 93.6 -47.52 
L 97.2 -47.52 
L 97.2 -47.52 
L 100.8 -47.52 
L 100.8 -57.4992 
L 104.4 -57.4992 
L 104.4 -57.4992 
L 108 -57.4992 
L 108 -57.4992 
L 111.6 -57.4992 
L 111.6 -57.4992 
L 115.2 -57.4992 
L 115.2 -57.4992 
L 118.8 -57.4992 
L 118.8 -57.4992 
L 122.4 -57.4992 
L 122.4 -57.4992 
L 126 -57.4992 
L 126 -57.4992 
L 129.6 -57.4992 
L 129.6 -57.4992 
L 133.2 -57.4992 
L 133.2 -57.4992 
L 136.8 -57.4992 
L 136.8 -57.4992 
L 140.4 -57.4992 
L 140.4 -57.4992 
L 144 -57.4992 
L 144 -57.4992 
L 147.6 -57.4992 
L 147.6 -57.4992 
L 151.2 -57.4992 
L 151.2 -70.8048 
L 154.8 -70.8048 
L 154.8 -70.8048 
L 158.4 -70.8048 
L 158.4 -70.8048 
L 162 -70.8048 
L 162 -70.8048 
L 165.6 -70.8048 
L 165.6 -70.8048 
L 169.2 -70.8048 
L 169.2 -70.8048 
L 172.8 -70.8048 
L 172.8 -70.8048 
L 176.4 -70.8048 
L 176.4 -98.480448 
L 180 -98.480448 
L 180 -98.480448 
L 183.6 -98.480448 
L 183.6 -98.480448 
L 187.2 -98.480448 
L 187.2 -98.480448 
L 190.8 -98.480448 
L 190.8 -98.480448 
L 194.4 -98.480448 
L 194.4 -98.480448 
L 198 -98.480448 
L 198 -98.480448 
L 201.6 -98.480448 
L 201.6 -98.480448 
L 205.2 -98.480448 
L 205.2 -98.480448 
L 208.8 -98.480448 
L 208.8 -98.480448 
L 212.4 -98.480448 
L 212.4 -98.480448 
L 216 -98.480448 
L 216 -98.480448 
L 219.6 -98.480448 
L 219.6 -98.480448 
L 223.2 -98.480448 
L 223.2 -98.480448 
L 226.8 -98.480448 
L 226.8 -114.048 
L 230.4 -114.048 
L 230.4 -114.048 
L 234 -114.048 
L 234 -114.048 
L 237.6 -114.048 
L 237.6 -114.048 
L 241.2 -114.048 
L 241.2 -114.048 
L 244.8 -114.048 
L 244.8 -114.048 
L 248.4 -114.048 
L 248.4 -114.048 
L 252 -114.048 
L 252 -114.048 
L 252 -114.048 
L 248.4 -114.048 
L 248.4 -114.048 
L 244.8 -114.048 
L 244.8 -114.048 
L 241.2 -114.048 
L 241.2 -114.048 
L 237.6 -114.048 
L 237.6 -114.048 
L 234 -114.048 
L 234 -114.048 
L 230.4 -114.048 
L 230.4 -114.048 
L 226.8 -114.048 
L 226.8 -98.480448 
L 223.2 -98.480448 
L 223.2 -98.480448 
L 219.6 -98.480448 
L 219.6 -98.480448 
L 216 -98.480448 
L 216 -98.480448 
L 212.4 -98.480448 
L 212.4 -98.480448 
L 208.8 -98.480448 
L 208.8 -98.480448 
L 205.2 -98.480448 
L 205.2 -98.480448 
L 201.6 -98.480448 
L 201.6 -98.480448 
L 198 -98.480448 
L 198 -98.480448 
L 194.4 -98.480448 
L 194.4 -98.480448 
L 190.8 -98.480448 
L 190.8 -98.480448 
L 187.2 -98.480448 
L 187.2 -98.480448 
L 183.6 -98.480448 
L 183.6 -98.480448 
L 180 -98.480448 
L 180 -98.480448 
L 176.4 -98.480448 
L 176.4 -70.8048 
L 172.8 -70.8048 
L 172.8 -70.8048 
L 169.2 -70.8048 
L 169.2 -70.8048 
L 165.6 -70.8048 
L 165.6 -70.8048 
L 162 -70.8048 
L 162 -70.8048 
L 158.4 -70.8048 
L 158.4 -70.8048 
L 154.8 -70.8048 
L 154.8 -70.8048 
L 151.2 -70.8048 
L 151.2 -57.4992 
L 147.6 -57.4992 
L 147.6 -57.4992 
L 144 -57.4992 
L 144 -57.4992 
L 140.4 -57.4992 
L 140.4 -57.4992 
L 136.8 -57.4992 
L 136.8 -57.4992 
L 133.2 -57.4992 
L 133.2 -57.4992 
L 129.6 -57.4992 
L 129.6 -57.4992 
L 126 -57.4992 
L 126 -57.4992 
L 122.4 -57.4992 
L 122.4 -57.4992 
L 118.8 -57.4992 
L 118.8 -57.4992 
L 115.2 -57.4992 
L 115.2 -57.4992 
L 111.6 -57.4992 
L 111.6 -57.4992 
L 108 -57.4992 
L 108 -57.4992 
L 104.4 -57.4992 
L 104.4 -57.4992 
L 100.8 -57.4992 
L 100.8 -47.52 
L 97.2 -47.52 
L 97.2 -47.52 
L 93.6 -47.52 
L 93.6 -47.52 
L 90 -47.52 
L 90 -47.52 
L 86.4 -47.52 
L 86.4 -47.52 
L 82.8 -47.52 
L 82.8 -47.52 
L 79.2 -47.52 
L 79.2 -47.52 
L 75.6 -47.52 
L 75.6 -47.52 
L 72 -47.52 
L 72 -47.52 
z
" id="m18838eeb02"/>
    </defs>
    <g clip-path="url(#pab52e3c420)">
     <use style="fill:#ff7f0e;" x="0" xlink:href="#m18838eeb02" y="432"/>
    </g>
   </g>
   <g id="PolyCollection_16">
    <defs>
     <path d="M 72 -47.52 
L 72 -47.52 
L 72 -47.52 
L 75.6 -47.52 
L 75.6 -47.52 
L 79.2 -47.52 
L 79.2 -47.52 
L 82.8 -47.52 
L 82.8 -47.52 
L 86.4 -47.52 
L 86.4 -47.52 
L 90 -47.52 
L 90 -47.52 
L 93.6 -47.52 
L 93.6 -47.52 
L 97.2 -47.52 
L 97.2 -47.52 
L 100.8 -47.52 
L 100.8 -57.4992 
L 104.4 -57.4992 
L 104.4 -57.4992 
L 108 -57.4992 
L 108 -57.4992 
L 111.6 -57.4992 
L 111.6 -57.4992 
L 115.2 -57.4992 
L 115.2 -57.4992 
L 118.8 -57.4992 
L 118.8 -57.4992 
L 122.4 -57.4992 
L 122.4 -57.4992 
L 126 -57.4992 
L 126 -57.4992 
L 129.6 -57.4992 
L 129.6 -57.4992 
L 133.2 -57.4992 
L 133.2 -57.4992 
L 136.8 -57.4992 
L 136.8 -57.4992 
L 140.4 -57.4992 
L 140.4 -57.4992 
L 144 -57.4992 
L 144 -57.4992 
L 147.6 -57.4992 
L 147.6 -57.4992 
L 151.2 -57.4992 
L 151.2 -70.8048 
L 154.8 -70.8048 
L 154.8 -70.8048 
L 158.4 -70.8048 
L 158.4 -70.8048 
L 162 -70.8048 
L 162 -70.8048 
L 165.6 -70.8048 
L 165.6 -70.8048 
L 169.2 -70.8048 
L 169.2 -70.8048 
L 172.8 -70.8048 
L 172.8 -70.8048 
L 176.4 -70.8048 
L 176.4 -98.480448 
L 180 -98.480448 
L 180 -98.480448 
L 183.6 -98.480448 
L 183.6 -98.480448 
L 187.2 -98.480448 
L 187.2 -98.480448 
L 190.8 -98.480448 
L 190.8 -98.480448 
L 194.4 -98.480448 
L 194.4 -98.480448 
L 198 -98.480448 
L 198 -98.480448 
L 201.6 -98.480448 
L 201.6 -98.480448 
L 205.2 -98.480448 
L 205.2 -98.480448 
L 208.8 -98.480448 
L 208.8 -98.480448 
L 212.4 -98.480448 
L 212.4 -98.480448 
L 216 -98.480448 
L 216 -98.480448 
L 219.6 -98.480448 
L 219.6 -98.480448 
L 223.2 -98.480448 
L 223.2 -98.480448 
L 226.8 -98.480448 
L 226.8 -114.048 
L 230.4 -114.048 
L 230.4 -114.048 
L 234 -114.048 
L 234 -114.048 
L 237.6 -114.048 
L 237.6 -114.048 
L 241.2 -114.048 
L 241.2 -114.048 
L 244.8 -114.048 
L 244.8 -114.048 
L 248.4 -114.048 
L 248.4 -114.048 
L 252 -114.048 
L 252 -180.576 
L 252 -180.576 
L 248.4 -180.576 
L 248.4 -180.576 
L 244.8 -180.576 
L 244.8 -180.576 
L 241.2 -180.576 
L 241.2 -180.576 
L 237.6 -180.576 
L 237.6 -180.576 
L 234 -180.576 
L 234 -180.576 
L 230.4 -180.576 
L 230.4 -180.576 
L 226.8 -180.576 
L 226.8 -149.440896 
L 223.2 -149.440896 
L 223.2 -149.440896 
L 219.6 -149.440896 
L 219.6 -149.440896 
L 216 -149.440896 
L 216 -149.440896 
L 212.4 -149.440896 
L 212.4 -149.440896 
L 208.8 -149.440896 
L 208.8 -149.440896 
L 205.2 -149.440896 
L 205.2 -149.440896 
L 201.6 -149.440896 
L 201.6 -149.440896 
L 198 -149.440896 
L 198 -149.440896 
L 194.4 -149.440896 
L 194.4 -149.440896 
L 190.8 -149.440896 
L 190.8 -149.440896 
L 187.2 -149.440896 
L 187.2 -149.440896 
L 183.6 -149.440896 
L 183.6 -149.440896 
L 180 -149.440896 
L 180 -149.440896 
L 176.4 -149.440896 
L 176.4 -94.0896 
L 172.8 -94.0896 
L 172.8 -94.0896 
L 169.2 -94.0896 
L 169.2 -94.0896 
L 165.6 -94.0896 
L 165.6 -94.0896 
L 162 -94.0896 
L 162 -94.0896 
L 158.4 -94.0896 
L 158.4 -94.0896 
L 154.8 -94.0896 
L 154.8 -94.0896 
L 151.2 -94.0896 
L 151.2 -67.4784 
L 147.6 -67.4784 
L 147.6 -67.4784 
L 144 -67.4784 
L 144 -67.4784 
L 140.4 -67.4784 
L 140.4 -67.4784 
L 136.8 -67.4784 
L 136.8 -67.4784 
L 133.2 -67.4784 
L 133.2 -67.4784 
L 129.6 -67.4784 
L 129.6 -67.4784 
L 126 -67.4784 
L 126 -67.4784 
L 122.4 -67.4784 
L 122.4 -67.4784 
L 118.8 -67.4784 
L 118.8 -67.4784 
L 115.2 -67.4784 
L 115.2 -67.4784 
L 111.6 -67.4784 
L 111.6 -67.4784 
L 108 -67.4784 
L 108 -67.4784 
L 104.4 -67.4784 
L 104.4 -67.4784 
L 100.8 -67.4784 
L 100.8 -47.52 
L 97.2 -47.52 
L 97.2 -47.52 
L 93.6 -47.52 
L 93.6 -47.52 
L 90 -47.52 
L 90 -47.52 
L 86.4 -47.52 
L 86.4 -47.52 
L 82.8 -47.52 
L 82.8 -47.52 
L 79.2 -47.52 
L 79.2 -47.52 
L 75.6 -47.52 
L 75.6 -47.52 
L 72 -47.52 
L 72 -47.52 
z
" id="mbebc136741"/>
    </defs>
    <g clip-path="url(#pab52e3c420)">
     <use style="fill:#d62728;" x="0" xlink:href="#mbebc136741" y="432"/>
    </g>
   </g>
   <g id="matplotlib.axis_1">
    <g id="xtick_1">
     <g id="line2d_1">
      <path clip-path="url(#pab52e3c420)" d="M 93.6 384.48 
L 93.6 51.84 
" style="fill:none;stroke:#000000;stroke-dasharray:0.8,1.32;stroke-dashoffset:0;stroke-width:0.8;"/>
     </g>
     <g id="line2d_2">
      <defs>
       <path d="M 0 0 
L 0 3.5 
" id="m61caf74013" style="stroke:#000000;stroke-width:0.8;"/>
      </defs>
      <g>
       <use style="stroke:#000000;stroke-width:0.8;" x="93.6" xlink:href="#m61caf74013" y="384.48"/>
      </g>
     </g>
     <g id="text_1">
      <!-- Mar -->
      <g transform="translate(84.166406 399.078438)scale(0.1 -0.1)">
       <defs>
        <path d="M 628 4666 
L 1569 4666 
L 2759 1491 
L 3956 4666 
L 4897 4666 
L 4897 0 
L 4281 0 
L 4281 4097 
L 3078 897 
L 2444 897 
L 1241 4097 
L 1241 0 
L 628 0 
L 628 4666 
z
" id="DejaVuSans-4d" transform="scale(0.015625)"/>
        <path d="M 2194 1759 
Q 1497 1759 1228 1600 
Q 959 1441 959 1056 
Q 959 750 1161 570 
Q 1363 391 1709 391 
Q 2188 391 2477 730 
Q 2766 1069 2766 1631 
L 2766 1759 
L 2194 1759 
z
M 3341 1997 
L 3341 0 
L 2766 0 
L 2766 531 
Q 2569 213 2275 61 
Q 1981 -91 1556 -91 
Q 1019 -91 701 211 
Q 384 513 384 1019 
Q 384 1609 779 1909 
Q 1175 2209 1959 2209 
L 2766 2209 
L 2766 2266 
Q 2766 2663 2505 2880 
Q 2244 3097 1772 3097 
Q 1472 3097 1187 3025 
Q 903 2953 641 2809 
L 641 3341 
Q 956 3463 1253 3523 
Q 1550 3584 1831 3584 
Q 2591 3584 2966 3190 
Q 3341 2797 3341 1997 
z
" id="DejaVuSans-61" transform="scale(0.015625)"/>
        <path d="M 2631 2963 
Q 2534 3019 2420 3045 
Q 2306 3072 2169 3072 
Q 1681 3072 1420 2755 
Q 1159 2438 1159 1844 
L 1159 0 
L 581 0 
L 581 3500 
L 1159 3500 
L 1159 2956 
Q 1341 3275 1631 3429 
Q 1922 3584 2338 3584 
Q 2397 3584 2469 3576 
Q 2541 3569 2628 3553 
L 2631 2963 
z
" id="DejaVuSans-72" transform="scale(0.015625)"/>
       </defs>
       <use xlink:href="#DejaVuSans-4d"/>
       <use x="86.279297" xlink:href="#DejaVuSans-61"/>
       <use x="147.558594" xlink:href="#DejaVuSans-72"/>
      </g>
     </g>
    </g>
    <g id="xtick_2">
     <g id="line2d_3">
      <path clip-path="url(#pab52e3c420)" d="M 205.2 384.48 
L 205.2 51.84 
" style="fill:none;stroke:#000000;stroke-dasharray:0.8,1.32;stroke-dashoffset:0;stroke-width:0.8;"/>
     </g>
     <g id="line2d_4">
      <g>
       <use style="stroke:#000000;stroke-width:0.8;" x="205.2" xlink:href="#m61caf74013" y="384.48"/>
      </g>
     </g>
     <g id="text_2">
      <!-- Apr -->
      <g transform="translate(196.55 399.078438)scale(0.1 -0.1)">
       <defs>
        <path d="M 2188 4044 
L 1331 1722 
L 3047 1722 
L 2188 4044 
z
M 1831 4666 
L 2547 4666 
L 4325 0 
L 3669 0 
L 3244 1197 
L 1141 1197 
L 716 0 
L 50 0 
L 1831 4666 
z
" id="DejaVuSans-41" transform="scale(0.015625)"/>
        <path d="M 1159 525 
L 1159 -1331 
L 581 -1331 
L 581 3500 
L 1159 3500 
L 1159 2969 
Q 1341 3281 1617 3432 
Q 1894 3584 2278 3584 
Q 2916 3584 3314 3078 
Q 3713 2572 3713 1747 
Q 3713 922 3314 415 
Q 2916 -91 2278 -91 
Q 1894 -91 1617 61 
Q 1341 213 1159 525 
z
M 3116 1747 
Q 3116 2381 2855 2742 
Q 2594 3103 2138 3103 
Q 1681 3103 1420 2742 
Q 1159 2381 1159 1747 
Q 1159 1113 1420 752 
Q 1681 391 2138 391 
Q 2594 391 2855 752 
Q 3116 1113 3116 1747 
z
" id="DejaVuSans-70" transform="scale(0.015625)"/>
       </defs>
       <use xlink:href="#DejaVuSans-41"/>
       <use x="68.408203" xlink:href="#DejaVuSans-70"/>
       <use x="131.884766" xlink:href="#DejaVuSans-72"/>
      </g>
     </g>
    </g>
    <g id="xtick_3">
     <g id="line2d_5">
      <path clip-path="url(#pab52e3c420)" d="M 313.2 384.48 
L 313.2 51.84 
" style="fill:none;stroke:#000000;stroke-dasharray:0.8,1.32;stroke-dashoffset:0;stroke-width:0.8;"/>
     </g>
     <g id="line2d_6">
      <g>
       <use style="stroke:#000000;stroke-width:0.8;" x="313.2" xlink:href="#m61caf74013" y="384.48"/>
      </g>
     </g>
     <g id="text_3">
      <!-- May -->
      <g transform="translate(302.8625 399.078438)scale(0.1 -0.1)">
       <defs>
        <path d="M 2059 -325 
Q 1816 -950 1584 -1140 
Q 1353 -1331 966 -1331 
L 506 -1331 
L 506 -850 
L 844 -850 
Q 1081 -850 1212 -737 
Q 1344 -625 1503 -206 
L 1606 56 
L 191 3500 
L 800 3500 
L 1894 763 
L 2988 3500 
L 3597 3500 
L 2059 -325 
z
" id="DejaVuSans-79" transform="scale(0.015625)"/>
       </defs>
       <use xlink:href="#DejaVuSans-4d"/>
       <use x="86.279297" xlink:href="#DejaVuSans-61"/>
       <use x="147.558594" xlink:href="#DejaVuSans-79"/>
      </g>
     </g>
    </g>
    <g id="xtick_4">
     <g id="line2d_7">
      <path clip-path="url(#pab52e3c420)" d="M 424.8 384.48 
L 424.8 51.84 
" style="fill:none;stroke:#000000;stroke-dasharray:0.8,1.32;stroke-dashoffset:0;stroke-width:0.8;"/>
     </g>
     <g id="line2d_8">
      <g>
       <use style="stroke:#000000;stroke-width:0.8;" x="424.8" xlink:href="#m61caf74013" y="384.48"/>
      </g>
     </g>
     <g id="text_4">
      <!-- Jun -->
      <g transform="translate(416.9875 399.078438)scale(0.1 -0.1)">
       <defs>
        <path d="M 628 4666 
L 1259 4666 
L 1259 325 
Q 1259 -519 939 -900 
Q 619 -1281 -91 -1281 
L -331 -1281 
L -331 -750 
L -134 -750 
Q 284 -750 456 -515 
Q 628 -281 628 325 
L 628 4666 
z
" id="DejaVuSans-4a" transform="scale(0.015625)"/>
        <path d="M 544 1381 
L 544 3500 
L 1119 3500 
L 1119 1403 
Q 1119 906 1312 657 
Q 1506 409 1894 409 
Q 2359 409 2629 706 
Q 2900 1003 2900 1516 
L 2900 3500 
L 3475 3500 
L 3475 0 
L 2900 0 
L 2900 538 
Q 2691 219 2414 64 
Q 2138 -91 1772 -91 
Q 1169 -91 856 284 
Q 544 659 544 1381 
z
M 1991 3584 
L 1991 3584 
z
" id="DejaVuSans-75" transform="scale(0.015625)"/>
        <path d="M 3513 2113 
L 3513 0 
L 2938 0 
L 2938 2094 
Q 2938 2591 2744 2837 
Q 2550 3084 2163 3084 
Q 1697 3084 1428 2787 
Q 1159 2491 1159 1978 
L 1159 0 
L 581 0 
L 581 3500 
L 1159 3500 
L 1159 2956 
Q 1366 3272 1645 3428 
Q 1925 3584 2291 3584 
Q 2894 3584 3203 3211 
Q 3513 2838 3513 2113 
z
" id="DejaVuSans-6e" transform="scale(0.015625)"/>
       </defs>
       <use xlink:href="#DejaVuSans-4a"/>
       <use x="29.492188" xlink:href="#DejaVuSans-75"/>
       <use x="92.871094" xlink:href="#DejaVuSans-6e"/>
      </g>
     </g>
    </g>
   </g>
   <g id="matplotlib.axis_2">
    <g id="ytick_1">
     <g id="line2d_9">
      <path clip-path="url(#pab52e3c420)" d="M 72 384.48 
L 518.4 384.48 
" style="fill:none;stroke:#000000;stroke-dasharray:0.8,1.32;stroke-dashoffset:0;stroke-width:0.8;"/>
     </g>
     <g id="line2d_10">
      <defs>
       <path d="M 0 0 
L -3.5 0 
" id="me66f51e835" style="stroke:#000000;stroke-width:0.8;"/>
      </defs>
      <g>
       <use style="stroke:#000000;stroke-width:0.8;" x="72" xlink:href="#me66f51e835" y="384.48"/>
      </g>
     </g>
     <g id="text_5">
      <!-- 0 -->
      <g transform="translate(58.6375 388.279219)scale(0.1 -0.1)">
       <defs>
        <path d="M 2034 4250 
Q 1547 4250 1301 3770 
Q 1056 3291 1056 2328 
Q 1056 1369 1301 889 
Q 1547 409 2034 409 
Q 2525 409 2770 889 
Q 3016 1369 3016 2328 
Q 3016 3291 2770 3770 
Q 2525 4250 2034 4250 
z
M 2034 4750 
Q 2819 4750 3233 4129 
Q 3647 3509 3647 2328 
Q 3647 1150 3233 529 
Q 2819 -91 2034 -91 
Q 1250 -91 836 529 
Q 422 1150 422 2328 
Q 422 3509 836 4129 
Q 1250 4750 2034 4750 
z
" id="DejaVuSans-30" transform="scale(0.015625)"/>
       </defs>
       <use xlink:href="#DejaVuSans-30"/>
      </g>
     </g>
    </g>
    <g id="ytick_2">
     <g id="line2d_11">
      <path clip-path="url(#pab52e3c420)" d="M 72 317.952 
L 518.4 317.952 
" style="fill:none;stroke:#000000;stroke-dasharray:0.8,1.32;stroke-dashoffset:0;stroke-width:0.8;"/>
     </g>
     <g id="line2d_12">
      <g>
       <use style="stroke:#000000;stroke-width:0.8;" x="72" xlink:href="#me66f51e835" y="317.952"/>
      </g>
     </g>
     <g id="text_6">
      <!-- 1000 -->
      <g transform="translate(39.55 321.751219)scale(0.1 -0.1)">
       <defs>
        <path d="M 794 531 
L 1825 531 
L 1825 4091 
L 703 3866 
L 703 4441 
L 1819 4666 
L 2450 4666 
L 2450 531 
L 3481 531 
L 3481 0 
L 794 0 
L 794 531 
z
" id="DejaVuSans-31" transform="scale(0.015625)"/>
       </defs>
       <use xlink:href="#DejaVuSans-31"/>
       <use x="63.623047" xlink:href="#DejaVuSans-30"/>
       <use x="127.246094" xlink:href="#DejaVuSans-30"/>
       <use x="190.869141" xlink:href="#DejaVuSans-30"/>
      </g>
     </g>
    </g>
    <g id="ytick_3">
     <g id="line2d_13">
      <path clip-path="url(#pab52e3c420)" d="M 72 251.424 
L 518.4 251.424 
" style="fill:none;stroke:#000000;stroke-dasharray:0.8,1.32;stroke-dashoffset:0;stroke-width:0.8;"/>
     </g>
     <g id="line2d_14">
      <g>
       <use style="stroke:#000000;stroke-width:0.8;" x="72" xlink:href="#me66f51e835" y="251.424"/>
      </g>
     </g>
     <g id="text_7">
      <!-- 2000 -->
      <g transform="translate(39.55 255.223219)scale(0.1 -0.1)">
       <defs>
        <path d="M 1228 531 
L 3431 531 
L 3431 0 
L 469 0 
L 469 531 
Q 828 903 1448 1529 
Q 2069 2156 2228 2338 
Q 2531 2678 2651 2914 
Q 2772 3150 2772 3378 
Q 2772 3750 2511 3984 
Q 2250 4219 1831 4219 
Q 1534 4219 1204 4116 
Q 875 4013 500 3803 
L 500 4441 
Q 881 4594 1212 4672 
Q 1544 4750 1819 4750 
Q 2544 4750 2975 4387 
Q 3406 4025 3406 3419 
Q 3406 3131 3298 2873 
Q 3191 2616 2906 2266 
Q 2828 2175 2409 1742 
Q 1991 1309 1228 531 
z
" id="DejaVuSans-32" transform="scale(0.015625)"/>
       </defs>
       <use xlink:href="#DejaVuSans-32"/>
       <use x="63.623047" xlink:href="#DejaVuSans-30"/>
       <use x="127.246094" xlink:href="#DejaVuSans-30"/>
       <use x="190.869141" xlink:href="#DejaVuSans-30"/>
      </g>
     </g>
    </g>
    <g id="ytick_4">
     <g id="line2d_15">
      <path clip-path="url(#pab52e3c420)" d="M 72 184.896 
L 518.4 184.896 
" style="fill:none;stroke:#000000;stroke-dasharray:0.8,1.32;stroke-dashoffset:0;stroke-width:0.8;"/>
     </g>
     <g id="line2d_16">
      <g>
       <use style="stroke:#000000;stroke-width:0.8;" x="72" xlink:href="#me66f51e835" y="184.896"/>
      </g>
     </g>
     <g id="text_8">
      <!-- 3000 -->
      <g transform="translate(39.55 188.695219)scale(0.1 -0.1)">
       <defs>
        <path d="M 2597 2516 
Q 3050 2419 3304 2112 
Q 3559 1806 3559 1356 
Q 3559 666 3084 287 
Q 2609 -91 1734 -91 
Q 1441 -91 1130 -33 
Q 819 25 488 141 
L 488 750 
Q 750 597 1062 519 
Q 1375 441 1716 441 
Q 2309 441 2620 675 
Q 2931 909 2931 1356 
Q 2931 1769 2642 2001 
Q 2353 2234 1838 2234 
L 1294 2234 
L 1294 2753 
L 1863 2753 
Q 2328 2753 2575 2939 
Q 2822 3125 2822 3475 
Q 2822 3834 2567 4026 
Q 2313 4219 1838 4219 
Q 1578 4219 1281 4162 
Q 984 4106 628 3988 
L 628 4550 
Q 988 4650 1302 4700 
Q 1616 4750 1894 4750 
Q 2613 4750 3031 4423 
Q 3450 4097 3450 3541 
Q 3450 3153 3228 2886 
Q 3006 2619 2597 2516 
z
" id="DejaVuSans-33" transform="scale(0.015625)"/>
       </defs>
       <use xlink:href="#DejaVuSans-33"/>
       <use x="63.623047" xlink:href="#DejaVuSans-30"/>
       <use x="127.246094" xlink:href="#DejaVuSans-30"/>
       <use x="190.869141" xlink:href="#DejaVuSans-30"/>
      </g>
     </g>
    </g>
    <g id="ytick_5">
     <g id="line2d_17">
      <path clip-path="url(#pab52e3c420)" d="M 72 118.368 
L 518.4 118.368 
" style="fill:none;stroke:#000000;stroke-dasharray:0.8,1.32;stroke-dashoffset:0;stroke-width:0.8;"/>
     </g>
     <g id="line2d_18">
      <g>
       <use style="stroke:#000000;stroke-width:0.8;" x="72" xlink:href="#me66f51e835" y="118.368"/>
      </g>
     </g>
     <g id="text_9">
      <!-- 4000 -->
      <g transform="translate(39.55 122.167219)scale(0.1 -0.1)">
       <defs>
        <path d="M 2419 4116 
L 825 1625 
L 2419 1625 
L 2419 4116 
z
M 2253 4666 
L 3047 4666 
L 3047 1625 
L 3713 1625 
L 3713 1100 
L 3047 1100 
L 3047 0 
L 2419 0 
L 2419 1100 
L 313 1100 
L 313 1709 
L 2253 4666 
z
" id="DejaVuSans-34" transform="scale(0.015625)"/>
       </defs>
       <use xlink:href="#DejaVuSans-34"/>
       <use x="63.623047" xlink:href="#DejaVuSans-30"/>
       <use x="127.246094" xlink:href="#DejaVuSans-30"/>
       <use x="190.869141" xlink:href="#DejaVuSans-30"/>
      </g>
     </g>
    </g>
    <g id="ytick_6">
     <g id="line2d_19">
      <path clip-path="url(#pab52e3c420)" d="M 72 51.84 
L 518.4 51.84 
" style="fill:none;stroke:#000000;stroke-dasharray:0.8,1.32;stroke-dashoffset:0;stroke-width:0.8;"/>
     </g>
     <g id="line2d_20">
      <g>
       <use style="stroke:#000000;stroke-width:0.8;" x="72" xlink:href="#me66f51e835" y="51.84"/>
      </g>
     </g>
     <g id="text_10">
      <!-- 5000 -->
      <g transform="translate(39.55 55.639219)scale(0.1 -0.1)">
       <defs>
        <path d="M 691 4666 
L 3169 4666 
L 3169 4134 
L 1269 4134 
L 1269 2991 
Q 1406 3038 1543 3061 
Q 1681 3084 1819 3084 
Q 2600 3084 3056 2656 
Q 3513 2228 3513 1497 
Q 3513 744 3044 326 
Q 2575 -91 1722 -91 
Q 1428 -91 1123 -41 
Q 819 9 494 109 
L 494 744 
Q 775 591 1075 516 
Q 1375 441 1709 441 
Q 2250 441 2565 725 
Q 2881 1009 2881 1497 
Q 2881 1984 2565 2268 
Q 2250 2553 1709 2553 
Q 1456 2553 1204 2497 
Q 953 2441 691 2322 
L 691 4666 
z
" id="DejaVuSans-35" transform="scale(0.015625)"/>
       </defs>
       <use xlink:href="#DejaVuSans-35"/>
       <use x="63.623047" xlink:href="#DejaVuSans-30"/>
       <use x="127.246094" xlink:href="#DejaVuSans-30"/>
       <use x="190.869141" xlink:href="#DejaVuSans-30"/>
      </g>
     </g>
    </g>
    <g id="text_11">
     <!-- Cumulative doses (thousands) -->
     <g transform="translate(33.470312 294.270156)rotate(-90)scale(0.1 -0.1)">
      <defs>
       <path d="M 4122 4306 
L 4122 3641 
Q 3803 3938 3442 4084 
Q 3081 4231 2675 4231 
Q 1875 4231 1450 3742 
Q 1025 3253 1025 2328 
Q 1025 1406 1450 917 
Q 1875 428 2675 428 
Q 3081 428 3442 575 
Q 3803 722 4122 1019 
L 4122 359 
Q 3791 134 3420 21 
Q 3050 -91 2638 -91 
Q 1578 -91 968 557 
Q 359 1206 359 2328 
Q 359 3453 968 4101 
Q 1578 4750 2638 4750 
Q 3056 4750 3426 4639 
Q 3797 4528 4122 4306 
z
" id="DejaVuSans-43" transform="scale(0.015625)"/>
       <path d="M 3328 2828 
Q 3544 3216 3844 3400 
Q 4144 3584 4550 3584 
Q 5097 3584 5394 3201 
Q 5691 2819 5691 2113 
L 5691 0 
L 5113 0 
L 5113 2094 
Q 5113 2597 4934 2840 
Q 4756 3084 4391 3084 
Q 3944 3084 3684 2787 
Q 3425 2491 3425 1978 
L 3425 0 
L 2847 0 
L 2847 2094 
Q 2847 2600 2669 2842 
Q 2491 3084 2119 3084 
Q 1678 3084 1418 2786 
Q 1159 2488 1159 1978 
L 1159 0 
L 581 0 
L 581 3500 
L 1159 3500 
L 1159 2956 
Q 1356 3278 1631 3431 
Q 1906 3584 2284 3584 
Q 2666 3584 2933 3390 
Q 3200 3197 3328 2828 
z
" id="DejaVuSans-6d" transform="scale(0.015625)"/>
       <path d="M 603 4863 
L 1178 4863 
L 1178 0 
L 603 0 
L 603 4863 
z
" id="DejaVuSans-6c" transform="scale(0.015625)"/>
       <path d="M 1172 4494 
L 1172 3500 
L 2356 3500 
L 2356 3053 
L 1172 3053 
L 1172 1153 
Q 1172 725 1289 603 
Q 1406 481 1766 481 
L 2356 481 
L 2356 0 
L 1766 0 
Q 1100 0 847 248 
Q 594 497 594 1153 
L 594 3053 
L 172 3053 
L 172 3500 
L 594 3500 
L 594 4494 
L 1172 4494 
z
" id="DejaVuSans-74" transform="scale(0.015625)"/>
       <path d="M 603 3500 
L 1178 3500 
L 1178 0 
L 603 0 
L 603 3500 
z
M 603 4863 
L 1178 4863 
L 1178 4134 
L 603 4134 
L 603 4863 
z
" id="DejaVuSans-69" transform="scale(0.015625)"/>
       <path d="M 191 3500 
L 800 3500 
L 1894 563 
L 2988 3500 
L 3597 3500 
L 2284 0 
L 1503 0 
L 191 3500 
z
" id="DejaVuSans-76" transform="scale(0.015625)"/>
       <path d="M 3597 1894 
L 3597 1613 
L 953 1613 
Q 991 1019 1311 708 
Q 1631 397 2203 397 
Q 2534 397 2845 478 
Q 3156 559 3463 722 
L 3463 178 
Q 3153 47 2828 -22 
Q 2503 -91 2169 -91 
Q 1331 -91 842 396 
Q 353 884 353 1716 
Q 353 2575 817 3079 
Q 1281 3584 2069 3584 
Q 2775 3584 3186 3129 
Q 3597 2675 3597 1894 
z
M 3022 2063 
Q 3016 2534 2758 2815 
Q 2500 3097 2075 3097 
Q 1594 3097 1305 2825 
Q 1016 2553 972 2059 
L 3022 2063 
z
" id="DejaVuSans-65" transform="scale(0.015625)"/>
       <path id="DejaVuSans-20" transform="scale(0.015625)"/>
       <path d="M 2906 2969 
L 2906 4863 
L 3481 4863 
L 3481 0 
L 2906 0 
L 2906 525 
Q 2725 213 2448 61 
Q 2172 -91 1784 -91 
Q 1150 -91 751 415 
Q 353 922 353 1747 
Q 353 2572 751 3078 
Q 1150 3584 1784 3584 
Q 2172 3584 2448 3432 
Q 2725 3281 2906 2969 
z
M 947 1747 
Q 947 1113 1208 752 
Q 1469 391 1925 391 
Q 2381 391 2643 752 
Q 2906 1113 2906 1747 
Q 2906 2381 2643 2742 
Q 2381 3103 1925 3103 
Q 1469 3103 1208 2742 
Q 947 2381 947 1747 
z
" id="DejaVuSans-64" transform="scale(0.015625)"/>
       <path d="M 1959 3097 
Q 1497 3097 1228 2736 
Q 959 2375 959 1747 
Q 959 1119 1226 758 
Q 1494 397 1959 397 
Q 2419 397 2687 759 
Q 2956 1122 2956 1747 
Q 2956 2369 2687 2733 
Q 2419 3097 1959 3097 
z
M 1959 3584 
Q 2709 3584 3137 3096 
Q 3566 2609 3566 1747 
Q 3566 888 3137 398 
Q 2709 -91 1959 -91 
Q 1206 -91 779 398 
Q 353 888 353 1747 
Q 353 2609 779 3096 
Q 1206 3584 1959 3584 
z
" id="DejaVuSans-6f" transform="scale(0.015625)"/>
       <path d="M 2834 3397 
L 2834 2853 
Q 2591 2978 2328 3040 
Q 2066 3103 1784 3103 
Q 1356 3103 1142 2972 
Q 928 2841 928 2578 
Q 928 2378 1081 2264 
Q 1234 2150 1697 2047 
L 1894 2003 
Q 2506 1872 2764 1633 
Q 3022 1394 3022 966 
Q 3022 478 2636 193 
Q 2250 -91 1575 -91 
Q 1294 -91 989 -36 
Q 684 19 347 128 
L 347 722 
Q 666 556 975 473 
Q 1284 391 1588 391 
Q 1994 391 2212 530 
Q 2431 669 2431 922 
Q 2431 1156 2273 1281 
Q 2116 1406 1581 1522 
L 1381 1569 
Q 847 1681 609 1914 
Q 372 2147 372 2553 
Q 372 3047 722 3315 
Q 1072 3584 1716 3584 
Q 2034 3584 2315 3537 
Q 2597 3491 2834 3397 
z
" id="DejaVuSans-73" transform="scale(0.015625)"/>
       <path d="M 1984 4856 
Q 1566 4138 1362 3434 
Q 1159 2731 1159 2009 
Q 1159 1288 1364 580 
Q 1569 -128 1984 -844 
L 1484 -844 
Q 1016 -109 783 600 
Q 550 1309 550 2009 
Q 550 2706 781 3412 
Q 1013 4119 1484 4856 
L 1984 4856 
z
" id="DejaVuSans-28" transform="scale(0.015625)"/>
       <path d="M 3513 2113 
L 3513 0 
L 2938 0 
L 2938 2094 
Q 2938 2591 2744 2837 
Q 2550 3084 2163 3084 
Q 1697 3084 1428 2787 
Q 1159 2491 1159 1978 
L 1159 0 
L 581 0 
L 581 4863 
L 1159 4863 
L 1159 2956 
Q 1366 3272 1645 3428 
Q 1925 3584 2291 3584 
Q 2894 3584 3203 3211 
Q 3513 2838 3513 2113 
z
" id="DejaVuSans-68" transform="scale(0.015625)"/>
       <path d="M 513 4856 
L 1013 4856 
Q 1481 4119 1714 3412 
Q 1947 2706 1947 2009 
Q 1947 1309 1714 600 
Q 1481 -109 1013 -844 
L 513 -844 
Q 928 -128 1133 580 
Q 1338 1288 1338 2009 
Q 1338 2731 1133 3434 
Q 928 4138 513 4856 
z
" id="DejaVuSans-29" transform="scale(0.015625)"/>
      </defs>
      <use xlink:href="#DejaVuSans-43"/>
      <use x="69.824219" xlink:href="#DejaVuSans-75"/>
      <use x="133.203125" xlink:href="#DejaVuSans-6d"/>
      <use x="230.615234" xlink:href="#DejaVuSans-75"/>
      <use x="293.994141" xlink:href="#DejaVuSans-6c"/>
      <use x="321.777344" xlink:href="#DejaVuSans-61"/>
      <use x="383.056641" xlink:href="#DejaVuSans-74"/>
      <use x="422.265625" xlink:href="#DejaVuSans-69"/>
      <use x="450.048828" xlink:href="#DejaVuSans-76"/>
      <use x="509.228516" xlink:href="#DejaVuSans-65"/>
      <use x="570.751953" xlink:href="#DejaVuSans-20"/>
      <use x="602.539062" xlink:href="#DejaVuSans-64"/>
      <use x="666.015625" xlink:href="#DejaVuSans-6f"/>
      <use x="727.197266" xlink:href="#DejaVuSans-73"/>
      <use x="779.296875" xlink:href="#DejaVuSans-65"/>
      <use x="840.820312" xlink:href="#DejaVuSans-73"/>
      <use x="892.919922" xlink:href="#DejaVuSans-20"/>
      <use x="924.707031" xlink:href="#DejaVuSans-28"/>
      <use x="963.720703" xlink:href="#DejaVuSans-74"/>
      <use x="1002.929688" xlink:href="#DejaVuSans-68"/>
      <use x="1066.308594" xlink:href="#DejaVuSans-6f"/>
      <use x="1127.490234" xlink:href="#DejaVuSans-75"/>
      <use x="1190.869141" xlink:href="#DejaVuSans-73"/>
      <use x="1242.96875" xlink:href="#DejaVuSans-61"/>
      <use x="1304.248047" xlink:href="#DejaVuSans-6e"/>
      <use x="1367.626953" xlink:href="#DejaVuSans-64"/>
      <use x="1431.103516" xlink:href="#DejaVuSans-73"/>
      <use x="1483.203125" xlink:href="#DejaVuSans-29"/>
     </g>
    </g>
   </g>
   <g id="patch_3">
    <path d="M 72 384.48 
L 72 51.84 
" style="fill:none;stroke:#000000;stroke-linecap:square;stroke-linejoin:miter;stroke-width:0.8;"/>
   </g>
   <g id="patch_4">
    <path d="M 518.4 384.48 
L 518.4 51.84 
" style="fill:none;stroke:#000000;stroke-linecap:square;stroke-linejoin:miter;stroke-width:0.8;"/>
   </g>
   <g id="patch_5">
    <path d="M 72 384.48 
L 518.4 384.48 
" style="fill:none;stroke:#000000;stroke-linecap:square;stroke-linejoin:miter;stroke-width:0.8;"/>
   </g>
   <g id="patch_6">
    <path d="M 72 51.84 
L 518.4 51.84 
" style="fill:none;stroke:#000000;stroke-linecap:square;stroke-linejoin:miter;stroke-width:0.8;"/>
   </g>
   <g id="text_12">
    <!-- Estimated AZ vaccine utilisation: first dose utilisation rate: 67.2% -->
    <g transform="translate(98.22 45.84)scale(0.12 -0.12)">
     <defs>
      <path d="M 628 4666 
L 3578 4666 
L 3578 4134 
L 1259 4134 
L 1259 2753 
L 3481 2753 
L 3481 2222 
L 1259 2222 
L 1259 531 
L 3634 531 
L 3634 0 
L 628 0 
L 628 4666 
z
" id="DejaVuSans-45" transform="scale(0.015625)"/>
      <path d="M 359 4666 
L 4025 4666 
L 4025 4184 
L 1075 531 
L 4097 531 
L 4097 0 
L 288 0 
L 288 481 
L 3238 4134 
L 359 4134 
L 359 4666 
z
" id="DejaVuSans-5a" transform="scale(0.015625)"/>
      <path d="M 3122 3366 
L 3122 2828 
Q 2878 2963 2633 3030 
Q 2388 3097 2138 3097 
Q 1578 3097 1268 2742 
Q 959 2388 959 1747 
Q 959 1106 1268 751 
Q 1578 397 2138 397 
Q 2388 397 2633 464 
Q 2878 531 3122 666 
L 3122 134 
Q 2881 22 2623 -34 
Q 2366 -91 2075 -91 
Q 1284 -91 818 406 
Q 353 903 353 1747 
Q 353 2603 823 3093 
Q 1294 3584 2113 3584 
Q 2378 3584 2631 3529 
Q 2884 3475 3122 3366 
z
" id="DejaVuSans-63" transform="scale(0.015625)"/>
      <path d="M 750 794 
L 1409 794 
L 1409 0 
L 750 0 
L 750 794 
z
M 750 3309 
L 1409 3309 
L 1409 2516 
L 750 2516 
L 750 3309 
z
" id="DejaVuSans-3a" transform="scale(0.015625)"/>
      <path d="M 2375 4863 
L 2375 4384 
L 1825 4384 
Q 1516 4384 1395 4259 
Q 1275 4134 1275 3809 
L 1275 3500 
L 2222 3500 
L 2222 3053 
L 1275 3053 
L 1275 0 
L 697 0 
L 697 3053 
L 147 3053 
L 147 3500 
L 697 3500 
L 697 3744 
Q 697 4328 969 4595 
Q 1241 4863 1831 4863 
L 2375 4863 
z
" id="DejaVuSans-66" transform="scale(0.015625)"/>
      <path d="M 2113 2584 
Q 1688 2584 1439 2293 
Q 1191 2003 1191 1497 
Q 1191 994 1439 701 
Q 1688 409 2113 409 
Q 2538 409 2786 701 
Q 3034 994 3034 1497 
Q 3034 2003 2786 2293 
Q 2538 2584 2113 2584 
z
M 3366 4563 
L 3366 3988 
Q 3128 4100 2886 4159 
Q 2644 4219 2406 4219 
Q 1781 4219 1451 3797 
Q 1122 3375 1075 2522 
Q 1259 2794 1537 2939 
Q 1816 3084 2150 3084 
Q 2853 3084 3261 2657 
Q 3669 2231 3669 1497 
Q 3669 778 3244 343 
Q 2819 -91 2113 -91 
Q 1303 -91 875 529 
Q 447 1150 447 2328 
Q 447 3434 972 4092 
Q 1497 4750 2381 4750 
Q 2619 4750 2861 4703 
Q 3103 4656 3366 4563 
z
" id="DejaVuSans-36" transform="scale(0.015625)"/>
      <path d="M 525 4666 
L 3525 4666 
L 3525 4397 
L 1831 0 
L 1172 0 
L 2766 4134 
L 525 4134 
L 525 4666 
z
" id="DejaVuSans-37" transform="scale(0.015625)"/>
      <path d="M 684 794 
L 1344 794 
L 1344 0 
L 684 0 
L 684 794 
z
" id="DejaVuSans-2e" transform="scale(0.015625)"/>
      <path d="M 4653 2053 
Q 4381 2053 4226 1822 
Q 4072 1591 4072 1178 
Q 4072 772 4226 539 
Q 4381 306 4653 306 
Q 4919 306 5073 539 
Q 5228 772 5228 1178 
Q 5228 1588 5073 1820 
Q 4919 2053 4653 2053 
z
M 4653 2450 
Q 5147 2450 5437 2106 
Q 5728 1763 5728 1178 
Q 5728 594 5436 251 
Q 5144 -91 4653 -91 
Q 4153 -91 3862 251 
Q 3572 594 3572 1178 
Q 3572 1766 3864 2108 
Q 4156 2450 4653 2450 
z
M 1428 4353 
Q 1159 4353 1004 4120 
Q 850 3888 850 3481 
Q 850 3069 1003 2837 
Q 1156 2606 1428 2606 
Q 1700 2606 1854 2837 
Q 2009 3069 2009 3481 
Q 2009 3884 1853 4118 
Q 1697 4353 1428 4353 
z
M 4250 4750 
L 4750 4750 
L 1831 -91 
L 1331 -91 
L 4250 4750 
z
M 1428 4750 
Q 1922 4750 2215 4408 
Q 2509 4066 2509 3481 
Q 2509 2891 2217 2550 
Q 1925 2209 1428 2209 
Q 931 2209 642 2551 
Q 353 2894 353 3481 
Q 353 4063 643 4406 
Q 934 4750 1428 4750 
z
" id="DejaVuSans-25" transform="scale(0.015625)"/>
     </defs>
     <use xlink:href="#DejaVuSans-45"/>
     <use x="63.183594" xlink:href="#DejaVuSans-73"/>
     <use x="115.283203" xlink:href="#DejaVuSans-74"/>
     <use x="154.492188" xlink:href="#DejaVuSans-69"/>
     <use x="182.275391" xlink:href="#DejaVuSans-6d"/>
     <use x="279.6875" xlink:href="#DejaVuSans-61"/>
     <use x="340.966797" xlink:href="#DejaVuSans-74"/>
     <use x="380.175781" xlink:href="#DejaVuSans-65"/>
     <use x="441.699219" xlink:href="#DejaVuSans-64"/>
     <use x="505.175781" xlink:href="#DejaVuSans-20"/>
     <use x="536.962891" xlink:href="#DejaVuSans-41"/>
     <use x="605.371094" xlink:href="#DejaVuSans-5a"/>
     <use x="673.876953" xlink:href="#DejaVuSans-20"/>
     <use x="705.664062" xlink:href="#DejaVuSans-76"/>
     <use x="764.84375" xlink:href="#DejaVuSans-61"/>
     <use x="826.123047" xlink:href="#DejaVuSans-63"/>
     <use x="881.103516" xlink:href="#DejaVuSans-63"/>
     <use x="936.083984" xlink:href="#DejaVuSans-69"/>
     <use x="963.867188" xlink:href="#DejaVuSans-6e"/>
     <use x="1027.246094" xlink:href="#DejaVuSans-65"/>
     <use x="1088.769531" xlink:href="#DejaVuSans-20"/>
     <use x="1120.556641" xlink:href="#DejaVuSans-75"/>
     <use x="1183.935547" xlink:href="#DejaVuSans-74"/>
     <use x="1223.144531" xlink:href="#DejaVuSans-69"/>
     <use x="1250.927734" xlink:href="#DejaVuSans-6c"/>
     <use x="1278.710938" xlink:href="#DejaVuSans-69"/>
     <use x="1306.494141" xlink:href="#DejaVuSans-73"/>
     <use x="1358.59375" xlink:href="#DejaVuSans-61"/>
     <use x="1419.873047" xlink:href="#DejaVuSans-74"/>
     <use x="1459.082031" xlink:href="#DejaVuSans-69"/>
     <use x="1486.865234" xlink:href="#DejaVuSans-6f"/>
     <use x="1548.046875" xlink:href="#DejaVuSans-6e"/>
     <use x="1611.425781" xlink:href="#DejaVuSans-3a"/>
     <use x="1645.117188" xlink:href="#DejaVuSans-20"/>
     <use x="1676.904297" xlink:href="#DejaVuSans-66"/>
     <use x="1712.109375" xlink:href="#DejaVuSans-69"/>
     <use x="1739.892578" xlink:href="#DejaVuSans-72"/>
     <use x="1781.005859" xlink:href="#DejaVuSans-73"/>
     <use x="1833.105469" xlink:href="#DejaVuSans-74"/>
     <use x="1872.314453" xlink:href="#DejaVuSans-20"/>
     <use x="1904.101562" xlink:href="#DejaVuSans-64"/>
     <use x="1967.578125" xlink:href="#DejaVuSans-6f"/>
     <use x="2028.759766" xlink:href="#DejaVuSans-73"/>
     <use x="2080.859375" xlink:href="#DejaVuSans-65"/>
     <use x="2142.382812" xlink:href="#DejaVuSans-20"/>
     <use x="2174.169922" xlink:href="#DejaVuSans-75"/>
     <use x="2237.548828" xlink:href="#DejaVuSans-74"/>
     <use x="2276.757812" xlink:href="#DejaVuSans-69"/>
     <use x="2304.541016" xlink:href="#DejaVuSans-6c"/>
     <use x="2332.324219" xlink:href="#DejaVuSans-69"/>
     <use x="2360.107422" xlink:href="#DejaVuSans-73"/>
     <use x="2412.207031" xlink:href="#DejaVuSans-61"/>
     <use x="2473.486328" xlink:href="#DejaVuSans-74"/>
     <use x="2512.695312" xlink:href="#DejaVuSans-69"/>
     <use x="2540.478516" xlink:href="#DejaVuSans-6f"/>
     <use x="2601.660156" xlink:href="#DejaVuSans-6e"/>
     <use x="2665.039062" xlink:href="#DejaVuSans-20"/>
     <use x="2696.826172" xlink:href="#DejaVuSans-72"/>
     <use x="2737.939453" xlink:href="#DejaVuSans-61"/>
     <use x="2799.21875" xlink:href="#DejaVuSans-74"/>
     <use x="2838.427734" xlink:href="#DejaVuSans-65"/>
     <use x="2899.951172" xlink:href="#DejaVuSans-3a"/>
     <use x="2933.642578" xlink:href="#DejaVuSans-20"/>
     <use x="2965.429688" xlink:href="#DejaVuSans-36"/>
     <use x="3029.052734" xlink:href="#DejaVuSans-37"/>
     <use x="3092.675781" xlink:href="#DejaVuSans-2e"/>
     <use x="3124.462891" xlink:href="#DejaVuSans-32"/>
     <use x="3188.085938" xlink:href="#DejaVuSans-25"/>
    </g>
   </g>
   <g id="legend_1">
    <g id="patch_7">
     <path d="M 79 147.90875 
L 302.0125 147.90875 
Q 304.0125 147.90875 304.0125 145.90875 
L 304.0125 58.84 
Q 304.0125 56.84 302.0125 56.84 
L 79 56.84 
Q 77 56.84 77 58.84 
L 77 145.90875 
Q 77 147.90875 79 147.90875 
z
" style="fill:#ffffff;opacity:0.8;stroke:#cccccc;stroke-linejoin:miter;"/>
    </g>
    <g id="patch_8">
     <path d="M 81 68.438437 
L 101 68.438437 
L 101 61.438437 
L 81 61.438437 
z
" style="fill:#d62728;"/>
    </g>
    <g id="text_13">
     <!-- AZ reserved for second doses (1000k) -->
     <g transform="translate(109 68.438437)scale(0.1 -0.1)">
      <defs>
       <path d="M 581 4863 
L 1159 4863 
L 1159 1991 
L 2875 3500 
L 3609 3500 
L 1753 1863 
L 3688 0 
L 2938 0 
L 1159 1709 
L 1159 0 
L 581 0 
L 581 4863 
z
" id="DejaVuSans-6b" transform="scale(0.015625)"/>
      </defs>
      <use xlink:href="#DejaVuSans-41"/>
      <use x="68.408203" xlink:href="#DejaVuSans-5a"/>
      <use x="136.914062" xlink:href="#DejaVuSans-20"/>
      <use x="168.701172" xlink:href="#DejaVuSans-72"/>
      <use x="207.564453" xlink:href="#DejaVuSans-65"/>
      <use x="269.087891" xlink:href="#DejaVuSans-73"/>
      <use x="321.1875" xlink:href="#DejaVuSans-65"/>
      <use x="382.710938" xlink:href="#DejaVuSans-72"/>
      <use x="423.824219" xlink:href="#DejaVuSans-76"/>
      <use x="483.003906" xlink:href="#DejaVuSans-65"/>
      <use x="544.527344" xlink:href="#DejaVuSans-64"/>
      <use x="608.003906" xlink:href="#DejaVuSans-20"/>
      <use x="639.791016" xlink:href="#DejaVuSans-66"/>
      <use x="674.996094" xlink:href="#DejaVuSans-6f"/>
      <use x="736.177734" xlink:href="#DejaVuSans-72"/>
      <use x="777.291016" xlink:href="#DejaVuSans-20"/>
      <use x="809.078125" xlink:href="#DejaVuSans-73"/>
      <use x="861.177734" xlink:href="#DejaVuSans-65"/>
      <use x="922.701172" xlink:href="#DejaVuSans-63"/>
      <use x="977.681641" xlink:href="#DejaVuSans-6f"/>
      <use x="1038.863281" xlink:href="#DejaVuSans-6e"/>
      <use x="1102.242188" xlink:href="#DejaVuSans-64"/>
      <use x="1165.71875" xlink:href="#DejaVuSans-20"/>
      <use x="1197.505859" xlink:href="#DejaVuSans-64"/>
      <use x="1260.982422" xlink:href="#DejaVuSans-6f"/>
      <use x="1322.164062" xlink:href="#DejaVuSans-73"/>
      <use x="1374.263672" xlink:href="#DejaVuSans-65"/>
      <use x="1435.787109" xlink:href="#DejaVuSans-73"/>
      <use x="1487.886719" xlink:href="#DejaVuSans-20"/>
      <use x="1519.673828" xlink:href="#DejaVuSans-28"/>
      <use x="1558.6875" xlink:href="#DejaVuSans-31"/>
      <use x="1622.310547" xlink:href="#DejaVuSans-30"/>
      <use x="1685.933594" xlink:href="#DejaVuSans-30"/>
      <use x="1749.556641" xlink:href="#DejaVuSans-30"/>
      <use x="1813.179688" xlink:href="#DejaVuSans-6b"/>
      <use x="1871.089844" xlink:href="#DejaVuSans-29"/>
     </g>
    </g>
    <g id="patch_9">
     <path d="M 81 83.116562 
L 101 83.116562 
L 101 76.116562 
L 81 76.116562 
z
" style="fill:#ff7f0e;"/>
    </g>
    <g id="text_14">
     <!-- AZ administered second doses (0k) -->
     <g transform="translate(109 83.116562)scale(0.1 -0.1)">
      <use xlink:href="#DejaVuSans-41"/>
      <use x="68.408203" xlink:href="#DejaVuSans-5a"/>
      <use x="136.914062" xlink:href="#DejaVuSans-20"/>
      <use x="168.701172" xlink:href="#DejaVuSans-61"/>
      <use x="229.980469" xlink:href="#DejaVuSans-64"/>
      <use x="293.457031" xlink:href="#DejaVuSans-6d"/>
      <use x="390.869141" xlink:href="#DejaVuSans-69"/>
      <use x="418.652344" xlink:href="#DejaVuSans-6e"/>
      <use x="482.03125" xlink:href="#DejaVuSans-69"/>
      <use x="509.814453" xlink:href="#DejaVuSans-73"/>
      <use x="561.914062" xlink:href="#DejaVuSans-74"/>
      <use x="601.123047" xlink:href="#DejaVuSans-65"/>
      <use x="662.646484" xlink:href="#DejaVuSans-72"/>
      <use x="701.509766" xlink:href="#DejaVuSans-65"/>
      <use x="763.033203" xlink:href="#DejaVuSans-64"/>
      <use x="826.509766" xlink:href="#DejaVuSans-20"/>
      <use x="858.296875" xlink:href="#DejaVuSans-73"/>
      <use x="910.396484" xlink:href="#DejaVuSans-65"/>
      <use x="971.919922" xlink:href="#DejaVuSans-63"/>
      <use x="1026.900391" xlink:href="#DejaVuSans-6f"/>
      <use x="1088.082031" xlink:href="#DejaVuSans-6e"/>
      <use x="1151.460938" xlink:href="#DejaVuSans-64"/>
      <use x="1214.9375" xlink:href="#DejaVuSans-20"/>
      <use x="1246.724609" xlink:href="#DejaVuSans-64"/>
      <use x="1310.201172" xlink:href="#DejaVuSans-6f"/>
      <use x="1371.382812" xlink:href="#DejaVuSans-73"/>
      <use x="1423.482422" xlink:href="#DejaVuSans-65"/>
      <use x="1485.005859" xlink:href="#DejaVuSans-73"/>
      <use x="1537.105469" xlink:href="#DejaVuSans-20"/>
      <use x="1568.892578" xlink:href="#DejaVuSans-28"/>
      <use x="1607.90625" xlink:href="#DejaVuSans-30"/>
      <use x="1671.529297" xlink:href="#DejaVuSans-6b"/>
      <use x="1729.439453" xlink:href="#DejaVuSans-29"/>
     </g>
    </g>
    <g id="patch_10">
     <path d="M 81 97.794687 
L 101 97.794687 
L 101 90.794687 
L 81 90.794687 
z
" style="fill:#2ca02c;"/>
    </g>
    <g id="text_15">
     <!-- AZ available for first doses (328k) -->
     <g transform="translate(109 97.794687)scale(0.1 -0.1)">
      <defs>
       <path d="M 3116 1747 
Q 3116 2381 2855 2742 
Q 2594 3103 2138 3103 
Q 1681 3103 1420 2742 
Q 1159 2381 1159 1747 
Q 1159 1113 1420 752 
Q 1681 391 2138 391 
Q 2594 391 2855 752 
Q 3116 1113 3116 1747 
z
M 1159 2969 
Q 1341 3281 1617 3432 
Q 1894 3584 2278 3584 
Q 2916 3584 3314 3078 
Q 3713 2572 3713 1747 
Q 3713 922 3314 415 
Q 2916 -91 2278 -91 
Q 1894 -91 1617 61 
Q 1341 213 1159 525 
L 1159 0 
L 581 0 
L 581 4863 
L 1159 4863 
L 1159 2969 
z
" id="DejaVuSans-62" transform="scale(0.015625)"/>
       <path d="M 2034 2216 
Q 1584 2216 1326 1975 
Q 1069 1734 1069 1313 
Q 1069 891 1326 650 
Q 1584 409 2034 409 
Q 2484 409 2743 651 
Q 3003 894 3003 1313 
Q 3003 1734 2745 1975 
Q 2488 2216 2034 2216 
z
M 1403 2484 
Q 997 2584 770 2862 
Q 544 3141 544 3541 
Q 544 4100 942 4425 
Q 1341 4750 2034 4750 
Q 2731 4750 3128 4425 
Q 3525 4100 3525 3541 
Q 3525 3141 3298 2862 
Q 3072 2584 2669 2484 
Q 3125 2378 3379 2068 
Q 3634 1759 3634 1313 
Q 3634 634 3220 271 
Q 2806 -91 2034 -91 
Q 1263 -91 848 271 
Q 434 634 434 1313 
Q 434 1759 690 2068 
Q 947 2378 1403 2484 
z
M 1172 3481 
Q 1172 3119 1398 2916 
Q 1625 2713 2034 2713 
Q 2441 2713 2670 2916 
Q 2900 3119 2900 3481 
Q 2900 3844 2670 4047 
Q 2441 4250 2034 4250 
Q 1625 4250 1398 4047 
Q 1172 3844 1172 3481 
z
" id="DejaVuSans-38" transform="scale(0.015625)"/>
      </defs>
      <use xlink:href="#DejaVuSans-41"/>
      <use x="68.408203" xlink:href="#DejaVuSans-5a"/>
      <use x="136.914062" xlink:href="#DejaVuSans-20"/>
      <use x="168.701172" xlink:href="#DejaVuSans-61"/>
      <use x="229.980469" xlink:href="#DejaVuSans-76"/>
      <use x="289.160156" xlink:href="#DejaVuSans-61"/>
      <use x="350.439453" xlink:href="#DejaVuSans-69"/>
      <use x="378.222656" xlink:href="#DejaVuSans-6c"/>
      <use x="406.005859" xlink:href="#DejaVuSans-61"/>
      <use x="467.285156" xlink:href="#DejaVuSans-62"/>
      <use x="530.761719" xlink:href="#DejaVuSans-6c"/>
      <use x="558.544922" xlink:href="#DejaVuSans-65"/>
      <use x="620.068359" xlink:href="#DejaVuSans-20"/>
      <use x="651.855469" xlink:href="#DejaVuSans-66"/>
      <use x="687.060547" xlink:href="#DejaVuSans-6f"/>
      <use x="748.242188" xlink:href="#DejaVuSans-72"/>
      <use x="789.355469" xlink:href="#DejaVuSans-20"/>
      <use x="821.142578" xlink:href="#DejaVuSans-66"/>
      <use x="856.347656" xlink:href="#DejaVuSans-69"/>
      <use x="884.130859" xlink:href="#DejaVuSans-72"/>
      <use x="925.244141" xlink:href="#DejaVuSans-73"/>
      <use x="977.34375" xlink:href="#DejaVuSans-74"/>
      <use x="1016.552734" xlink:href="#DejaVuSans-20"/>
      <use x="1048.339844" xlink:href="#DejaVuSans-64"/>
      <use x="1111.816406" xlink:href="#DejaVuSans-6f"/>
      <use x="1172.998047" xlink:href="#DejaVuSans-73"/>
      <use x="1225.097656" xlink:href="#DejaVuSans-65"/>
      <use x="1286.621094" xlink:href="#DejaVuSans-73"/>
      <use x="1338.720703" xlink:href="#DejaVuSans-20"/>
      <use x="1370.507812" xlink:href="#DejaVuSans-28"/>
      <use x="1409.521484" xlink:href="#DejaVuSans-33"/>
      <use x="1473.144531" xlink:href="#DejaVuSans-32"/>
      <use x="1536.767578" xlink:href="#DejaVuSans-38"/>
      <use x="1600.390625" xlink:href="#DejaVuSans-6b"/>
      <use x="1658.300781" xlink:href="#DejaVuSans-29"/>
     </g>
    </g>
    <g id="patch_11">
     <path d="M 81 112.472812 
L 101 112.472812 
L 101 105.472812 
L 81 105.472812 
z
" style="fill:#1f77b4;"/>
    </g>
    <g id="text_16">
     <!-- AZ administered first doses (672k) -->
     <g transform="translate(109 112.472812)scale(0.1 -0.1)">
      <use xlink:href="#DejaVuSans-41"/>
      <use x="68.408203" xlink:href="#DejaVuSans-5a"/>
      <use x="136.914062" xlink:href="#DejaVuSans-20"/>
      <use x="168.701172" xlink:href="#DejaVuSans-61"/>
      <use x="229.980469" xlink:href="#DejaVuSans-64"/>
      <use x="293.457031" xlink:href="#DejaVuSans-6d"/>
      <use x="390.869141" xlink:href="#DejaVuSans-69"/>
      <use x="418.652344" xlink:href="#DejaVuSans-6e"/>
      <use x="482.03125" xlink:href="#DejaVuSans-69"/>
      <use x="509.814453" xlink:href="#DejaVuSans-73"/>
      <use x="561.914062" xlink:href="#DejaVuSans-74"/>
      <use x="601.123047" xlink:href="#DejaVuSans-65"/>
      <use x="662.646484" xlink:href="#DejaVuSans-72"/>
      <use x="701.509766" xlink:href="#DejaVuSans-65"/>
      <use x="763.033203" xlink:href="#DejaVuSans-64"/>
      <use x="826.509766" xlink:href="#DejaVuSans-20"/>
      <use x="858.296875" xlink:href="#DejaVuSans-66"/>
      <use x="893.501953" xlink:href="#DejaVuSans-69"/>
      <use x="921.285156" xlink:href="#DejaVuSans-72"/>
      <use x="962.398438" xlink:href="#DejaVuSans-73"/>
      <use x="1014.498047" xlink:href="#DejaVuSans-74"/>
      <use x="1053.707031" xlink:href="#DejaVuSans-20"/>
      <use x="1085.494141" xlink:href="#DejaVuSans-64"/>
      <use x="1148.970703" xlink:href="#DejaVuSans-6f"/>
      <use x="1210.152344" xlink:href="#DejaVuSans-73"/>
      <use x="1262.251953" xlink:href="#DejaVuSans-65"/>
      <use x="1323.775391" xlink:href="#DejaVuSans-73"/>
      <use x="1375.875" xlink:href="#DejaVuSans-20"/>
      <use x="1407.662109" xlink:href="#DejaVuSans-28"/>
      <use x="1446.675781" xlink:href="#DejaVuSans-36"/>
      <use x="1510.298828" xlink:href="#DejaVuSans-37"/>
      <use x="1573.921875" xlink:href="#DejaVuSans-32"/>
      <use x="1637.544922" xlink:href="#DejaVuSans-6b"/>
      <use x="1695.455078" xlink:href="#DejaVuSans-29"/>
     </g>
    </g>
    <g id="patch_12">
     <path d="M 81 127.150937 
L 101 127.150937 
L 101 120.150937 
L 81 120.150937 
z
" style="fill:#ff0000;opacity:0.5;"/>
    </g>
    <g id="text_17">
     <!-- Phase 1a -->
     <g transform="translate(109 127.150937)scale(0.1 -0.1)">
      <defs>
       <path d="M 1259 4147 
L 1259 2394 
L 2053 2394 
Q 2494 2394 2734 2622 
Q 2975 2850 2975 3272 
Q 2975 3691 2734 3919 
Q 2494 4147 2053 4147 
L 1259 4147 
z
M 628 4666 
L 2053 4666 
Q 2838 4666 3239 4311 
Q 3641 3956 3641 3272 
Q 3641 2581 3239 2228 
Q 2838 1875 2053 1875 
L 1259 1875 
L 1259 0 
L 628 0 
L 628 4666 
z
" id="DejaVuSans-50" transform="scale(0.015625)"/>
      </defs>
      <use xlink:href="#DejaVuSans-50"/>
      <use x="60.302734" xlink:href="#DejaVuSans-68"/>
      <use x="123.681641" xlink:href="#DejaVuSans-61"/>
      <use x="184.960938" xlink:href="#DejaVuSans-73"/>
      <use x="237.060547" xlink:href="#DejaVuSans-65"/>
      <use x="298.583984" xlink:href="#DejaVuSans-20"/>
      <use x="330.371094" xlink:href="#DejaVuSans-31"/>
      <use x="393.994141" xlink:href="#DejaVuSans-61"/>
     </g>
    </g>
    <g id="patch_13">
     <path d="M 81 141.829062 
L 101 141.829062 
L 101 134.829062 
L 81 134.829062 
z
" style="fill:#ffa500;opacity:0.5;"/>
    </g>
    <g id="text_18">
     <!-- Phase 1b -->
     <g transform="translate(109 141.829062)scale(0.1 -0.1)">
      <use xlink:href="#DejaVuSans-50"/>
      <use x="60.302734" xlink:href="#DejaVuSans-68"/>
      <use x="123.681641" xlink:href="#DejaVuSans-61"/>
      <use x="184.960938" xlink:href="#DejaVuSans-73"/>
      <use x="237.060547" xlink:href="#DejaVuSans-65"/>
      <use x="298.583984" xlink:href="#DejaVuSans-20"/>
      <use x="330.371094" xlink:href="#DejaVuSans-31"/>
      <use x="393.994141" xlink:href="#DejaVuSans-62"/>
     </g>
    </g>
   </g>
  </g>
 </g>
 <defs>
  <clipPath id="pab52e3c420">
   <rect height="332.64" width="446.4" x="72" y="51.84"/>
  </clipPath>
 </defs>
</svg>
