<?xml version="1.0" encoding="utf-8" standalone="no"?>
<!DOCTYPE svg PUBLIC "-//W3C//DTD SVG 1.1//EN"
  "http://www.w3.org/Graphics/SVG/1.1/DTD/svg11.dtd">
<svg xmlns:xlink="http://www.w3.org/1999/xlink" width="576pt" height="432pt" viewBox="0 0 576 432" xmlns="http://www.w3.org/2000/svg" version="1.1">
 <metadata>
  <rdf:RDF xmlns:dc="http://purl.org/dc/elements/1.1/" xmlns:cc="http://creativecommons.org/ns#" xmlns:rdf="http://www.w3.org/1999/02/22-rdf-syntax-ns#">
   <cc:Work>
    <dc:type rdf:resource="http://purl.org/dc/dcmitype/StillImage"/>
    <dc:date>2022-01-26T13:01:58.524798</dc:date>
    <dc:format>image/svg+xml</dc:format>
    <dc:creator>
     <cc:Agent>
      <dc:title>Matplotlib v3.5.1, https://matplotlib.org/</dc:title>
     </cc:Agent>
    </dc:creator>
   </cc:Work>
  </rdf:RDF>
 </metadata>
 <defs>
  <style type="text/css">*{stroke-linejoin: round; stroke-linecap: butt}</style>
 </defs>
 <g id="figure_1">
  <g id="patch_1">
   <path d="M 0 432 
L 576 432 
L 576 0 
L 0 0 
z
" style="fill: #ffffff"/>
  </g>
  <g id="axes_1">
   <g id="patch_2">
    <path d="M 72 384.48 
L 518.4 384.48 
L 518.4 51.84 
L 72 51.84 
z
" style="fill: #ffffff"/>
   </g>
   <g id="matplotlib.axis_1">
    <g id="xtick_1">
     <g id="line2d_1">
      <path d="M 72 384.48 
L 72 51.84 
" clip-path="url(#p786697bf48)" style="fill: none; stroke-dasharray: 0.8,1.32; stroke-dashoffset: 0; stroke: #000000; stroke-opacity: 0.5; stroke-width: 0.8"/>
     </g>
     <g id="line2d_2">
      <defs>
       <path id="m966a97a9f1" d="M 0 0 
L 0 3.5 
" style="stroke: #000000; stroke-width: 0.8"/>
      </defs>
      <g>
       <use xlink:href="#m966a97a9f1" x="72" y="384.48" style="stroke: #000000; stroke-width: 0.8"/>
      </g>
     </g>
     <g id="text_1">
      <!-- 15 -->
      <g transform="translate(65.6375 399.078438)scale(0.1 -0.1)">
       <defs>
        <path id="DejaVuSans-31" d="M 794 531 
L 1825 531 
L 1825 4091 
L 703 3866 
L 703 4441 
L 1819 4666 
L 2450 4666 
L 2450 531 
L 3481 531 
L 3481 0 
L 794 0 
L 794 531 
z
" transform="scale(0.015625)"/>
        <path id="DejaVuSans-35" d="M 691 4666 
L 3169 4666 
L 3169 4134 
L 1269 4134 
L 1269 2991 
Q 1406 3038 1543 3061 
Q 1681 3084 1819 3084 
Q 2600 3084 3056 2656 
Q 3513 2228 3513 1497 
Q 3513 744 3044 326 
Q 2575 -91 1722 -91 
Q 1428 -91 1123 -41 
Q 819 9 494 109 
L 494 744 
Q 775 591 1075 516 
Q 1375 441 1709 441 
Q 2250 441 2565 725 
Q 2881 1009 2881 1497 
Q 2881 1984 2565 2268 
Q 2250 2553 1709 2553 
Q 1456 2553 1204 2497 
Q 953 2441 691 2322 
L 691 4666 
z
" transform="scale(0.015625)"/>
       </defs>
       <use xlink:href="#DejaVuSans-31"/>
       <use xlink:href="#DejaVuSans-35" x="63.623047"/>
      </g>
     </g>
    </g>
    <g id="xtick_2">
     <g id="line2d_3">
      <path d="M 95.641121 384.48 
L 95.641121 51.84 
" clip-path="url(#p786697bf48)" style="fill: none; stroke-dasharray: 0.8,1.32; stroke-dashoffset: 0; stroke: #000000; stroke-opacity: 0.5; stroke-width: 0.8"/>
     </g>
     <g id="line2d_4">
      <g>
       <use xlink:href="#m966a97a9f1" x="95.641121" y="384.48" style="stroke: #000000; stroke-width: 0.8"/>
      </g>
     </g>
     <g id="text_2">
      <!-- Aug -->
      <g transform="translate(85.87784 399.078438)scale(0.1 -0.1)">
       <defs>
        <path id="DejaVuSans-41" d="M 2188 4044 
L 1331 1722 
L 3047 1722 
L 2188 4044 
z
M 1831 4666 
L 2547 4666 
L 4325 0 
L 3669 0 
L 3244 1197 
L 1141 1197 
L 716 0 
L 50 0 
L 1831 4666 
z
" transform="scale(0.015625)"/>
        <path id="DejaVuSans-75" d="M 544 1381 
L 544 3500 
L 1119 3500 
L 1119 1403 
Q 1119 906 1312 657 
Q 1506 409 1894 409 
Q 2359 409 2629 706 
Q 2900 1003 2900 1516 
L 2900 3500 
L 3475 3500 
L 3475 0 
L 2900 0 
L 2900 538 
Q 2691 219 2414 64 
Q 2138 -91 1772 -91 
Q 1169 -91 856 284 
Q 544 659 544 1381 
z
M 1991 3584 
L 1991 3584 
z
" transform="scale(0.015625)"/>
        <path id="DejaVuSans-67" d="M 2906 1791 
Q 2906 2416 2648 2759 
Q 2391 3103 1925 3103 
Q 1463 3103 1205 2759 
Q 947 2416 947 1791 
Q 947 1169 1205 825 
Q 1463 481 1925 481 
Q 2391 481 2648 825 
Q 2906 1169 2906 1791 
z
M 3481 434 
Q 3481 -459 3084 -895 
Q 2688 -1331 1869 -1331 
Q 1566 -1331 1297 -1286 
Q 1028 -1241 775 -1147 
L 775 -588 
Q 1028 -725 1275 -790 
Q 1522 -856 1778 -856 
Q 2344 -856 2625 -561 
Q 2906 -266 2906 331 
L 2906 616 
Q 2728 306 2450 153 
Q 2172 0 1784 0 
Q 1141 0 747 490 
Q 353 981 353 1791 
Q 353 2603 747 3093 
Q 1141 3584 1784 3584 
Q 2172 3584 2450 3431 
Q 2728 3278 2906 2969 
L 2906 3500 
L 3481 3500 
L 3481 434 
z
" transform="scale(0.015625)"/>
       </defs>
       <use xlink:href="#DejaVuSans-41"/>
       <use xlink:href="#DejaVuSans-75" x="68.408203"/>
       <use xlink:href="#DejaVuSans-67" x="131.787109"/>
      </g>
     </g>
    </g>
    <g id="xtick_3">
     <g id="line2d_5">
      <path d="M 115.11028 384.48 
L 115.11028 51.84 
" clip-path="url(#p786697bf48)" style="fill: none; stroke-dasharray: 0.8,1.32; stroke-dashoffset: 0; stroke: #000000; stroke-opacity: 0.5; stroke-width: 0.8"/>
     </g>
     <g id="line2d_6">
      <g>
       <use xlink:href="#m966a97a9f1" x="115.11028" y="384.48" style="stroke: #000000; stroke-width: 0.8"/>
      </g>
     </g>
     <g id="text_3">
      <!-- 15 -->
      <g transform="translate(108.74778 399.078438)scale(0.1 -0.1)">
       <use xlink:href="#DejaVuSans-31"/>
       <use xlink:href="#DejaVuSans-35" x="63.623047"/>
      </g>
     </g>
    </g>
    <g id="xtick_4">
     <g id="line2d_7">
      <path d="M 138.751402 384.48 
L 138.751402 51.84 
" clip-path="url(#p786697bf48)" style="fill: none; stroke-dasharray: 0.8,1.32; stroke-dashoffset: 0; stroke: #000000; stroke-opacity: 0.5; stroke-width: 0.8"/>
     </g>
     <g id="line2d_8">
      <g>
       <use xlink:href="#m966a97a9f1" x="138.751402" y="384.48" style="stroke: #000000; stroke-width: 0.8"/>
      </g>
     </g>
     <g id="text_4">
      <!-- Sep -->
      <g transform="translate(129.326402 399.078438)scale(0.1 -0.1)">
       <defs>
        <path id="DejaVuSans-53" d="M 3425 4513 
L 3425 3897 
Q 3066 4069 2747 4153 
Q 2428 4238 2131 4238 
Q 1616 4238 1336 4038 
Q 1056 3838 1056 3469 
Q 1056 3159 1242 3001 
Q 1428 2844 1947 2747 
L 2328 2669 
Q 3034 2534 3370 2195 
Q 3706 1856 3706 1288 
Q 3706 609 3251 259 
Q 2797 -91 1919 -91 
Q 1588 -91 1214 -16 
Q 841 59 441 206 
L 441 856 
Q 825 641 1194 531 
Q 1563 422 1919 422 
Q 2459 422 2753 634 
Q 3047 847 3047 1241 
Q 3047 1584 2836 1778 
Q 2625 1972 2144 2069 
L 1759 2144 
Q 1053 2284 737 2584 
Q 422 2884 422 3419 
Q 422 4038 858 4394 
Q 1294 4750 2059 4750 
Q 2388 4750 2728 4690 
Q 3069 4631 3425 4513 
z
" transform="scale(0.015625)"/>
        <path id="DejaVuSans-65" d="M 3597 1894 
L 3597 1613 
L 953 1613 
Q 991 1019 1311 708 
Q 1631 397 2203 397 
Q 2534 397 2845 478 
Q 3156 559 3463 722 
L 3463 178 
Q 3153 47 2828 -22 
Q 2503 -91 2169 -91 
Q 1331 -91 842 396 
Q 353 884 353 1716 
Q 353 2575 817 3079 
Q 1281 3584 2069 3584 
Q 2775 3584 3186 3129 
Q 3597 2675 3597 1894 
z
M 3022 2063 
Q 3016 2534 2758 2815 
Q 2500 3097 2075 3097 
Q 1594 3097 1305 2825 
Q 1016 2553 972 2059 
L 3022 2063 
z
" transform="scale(0.015625)"/>
        <path id="DejaVuSans-70" d="M 1159 525 
L 1159 -1331 
L 581 -1331 
L 581 3500 
L 1159 3500 
L 1159 2969 
Q 1341 3281 1617 3432 
Q 1894 3584 2278 3584 
Q 2916 3584 3314 3078 
Q 3713 2572 3713 1747 
Q 3713 922 3314 415 
Q 2916 -91 2278 -91 
Q 1894 -91 1617 61 
Q 1341 213 1159 525 
z
M 3116 1747 
Q 3116 2381 2855 2742 
Q 2594 3103 2138 3103 
Q 1681 3103 1420 2742 
Q 1159 2381 1159 1747 
Q 1159 1113 1420 752 
Q 1681 391 2138 391 
Q 2594 391 2855 752 
Q 3116 1113 3116 1747 
z
" transform="scale(0.015625)"/>
       </defs>
       <use xlink:href="#DejaVuSans-53"/>
       <use xlink:href="#DejaVuSans-65" x="63.476562"/>
       <use xlink:href="#DejaVuSans-70" x="125"/>
      </g>
     </g>
    </g>
    <g id="xtick_5">
     <g id="line2d_9">
      <path d="M 158.220561 384.48 
L 158.220561 51.84 
" clip-path="url(#p786697bf48)" style="fill: none; stroke-dasharray: 0.8,1.32; stroke-dashoffset: 0; stroke: #000000; stroke-opacity: 0.5; stroke-width: 0.8"/>
     </g>
     <g id="line2d_10">
      <g>
       <use xlink:href="#m966a97a9f1" x="158.220561" y="384.48" style="stroke: #000000; stroke-width: 0.8"/>
      </g>
     </g>
     <g id="text_5">
      <!-- 15 -->
      <g transform="translate(151.858061 399.078438)scale(0.1 -0.1)">
       <use xlink:href="#DejaVuSans-31"/>
       <use xlink:href="#DejaVuSans-35" x="63.623047"/>
      </g>
     </g>
    </g>
    <g id="xtick_6">
     <g id="line2d_11">
      <path d="M 180.471028 384.48 
L 180.471028 51.84 
" clip-path="url(#p786697bf48)" style="fill: none; stroke-dasharray: 0.8,1.32; stroke-dashoffset: 0; stroke: #000000; stroke-opacity: 0.5; stroke-width: 0.8"/>
     </g>
     <g id="line2d_12">
      <g>
       <use xlink:href="#m966a97a9f1" x="180.471028" y="384.48" style="stroke: #000000; stroke-width: 0.8"/>
      </g>
     </g>
     <g id="text_6">
      <!-- Oct -->
      <g transform="translate(171.825716 399.078438)scale(0.1 -0.1)">
       <defs>
        <path id="DejaVuSans-4f" d="M 2522 4238 
Q 1834 4238 1429 3725 
Q 1025 3213 1025 2328 
Q 1025 1447 1429 934 
Q 1834 422 2522 422 
Q 3209 422 3611 934 
Q 4013 1447 4013 2328 
Q 4013 3213 3611 3725 
Q 3209 4238 2522 4238 
z
M 2522 4750 
Q 3503 4750 4090 4092 
Q 4678 3434 4678 2328 
Q 4678 1225 4090 567 
Q 3503 -91 2522 -91 
Q 1538 -91 948 565 
Q 359 1222 359 2328 
Q 359 3434 948 4092 
Q 1538 4750 2522 4750 
z
" transform="scale(0.015625)"/>
        <path id="DejaVuSans-63" d="M 3122 3366 
L 3122 2828 
Q 2878 2963 2633 3030 
Q 2388 3097 2138 3097 
Q 1578 3097 1268 2742 
Q 959 2388 959 1747 
Q 959 1106 1268 751 
Q 1578 397 2138 397 
Q 2388 397 2633 464 
Q 2878 531 3122 666 
L 3122 134 
Q 2881 22 2623 -34 
Q 2366 -91 2075 -91 
Q 1284 -91 818 406 
Q 353 903 353 1747 
Q 353 2603 823 3093 
Q 1294 3584 2113 3584 
Q 2378 3584 2631 3529 
Q 2884 3475 3122 3366 
z
" transform="scale(0.015625)"/>
        <path id="DejaVuSans-74" d="M 1172 4494 
L 1172 3500 
L 2356 3500 
L 2356 3053 
L 1172 3053 
L 1172 1153 
Q 1172 725 1289 603 
Q 1406 481 1766 481 
L 2356 481 
L 2356 0 
L 1766 0 
Q 1100 0 847 248 
Q 594 497 594 1153 
L 594 3053 
L 172 3053 
L 172 3500 
L 594 3500 
L 594 4494 
L 1172 4494 
z
" transform="scale(0.015625)"/>
       </defs>
       <use xlink:href="#DejaVuSans-4f"/>
       <use xlink:href="#DejaVuSans-63" x="78.710938"/>
       <use xlink:href="#DejaVuSans-74" x="133.691406"/>
      </g>
     </g>
    </g>
    <g id="xtick_7">
     <g id="line2d_13">
      <path d="M 199.940187 384.48 
L 199.940187 51.84 
" clip-path="url(#p786697bf48)" style="fill: none; stroke-dasharray: 0.8,1.32; stroke-dashoffset: 0; stroke: #000000; stroke-opacity: 0.5; stroke-width: 0.8"/>
     </g>
     <g id="line2d_14">
      <g>
       <use xlink:href="#m966a97a9f1" x="199.940187" y="384.48" style="stroke: #000000; stroke-width: 0.8"/>
      </g>
     </g>
     <g id="text_7">
      <!-- 15 -->
      <g transform="translate(193.577687 399.078438)scale(0.1 -0.1)">
       <use xlink:href="#DejaVuSans-31"/>
       <use xlink:href="#DejaVuSans-35" x="63.623047"/>
      </g>
     </g>
    </g>
    <g id="xtick_8">
     <g id="line2d_15">
      <path d="M 223.581308 384.48 
L 223.581308 51.84 
" clip-path="url(#p786697bf48)" style="fill: none; stroke-dasharray: 0.8,1.32; stroke-dashoffset: 0; stroke: #000000; stroke-opacity: 0.5; stroke-width: 0.8"/>
     </g>
     <g id="line2d_16">
      <g>
       <use xlink:href="#m966a97a9f1" x="223.581308" y="384.48" style="stroke: #000000; stroke-width: 0.8"/>
      </g>
     </g>
     <g id="text_8">
      <!-- Nov -->
      <g transform="translate(213.821933 399.078438)scale(0.1 -0.1)">
       <defs>
        <path id="DejaVuSans-4e" d="M 628 4666 
L 1478 4666 
L 3547 763 
L 3547 4666 
L 4159 4666 
L 4159 0 
L 3309 0 
L 1241 3903 
L 1241 0 
L 628 0 
L 628 4666 
z
" transform="scale(0.015625)"/>
        <path id="DejaVuSans-6f" d="M 1959 3097 
Q 1497 3097 1228 2736 
Q 959 2375 959 1747 
Q 959 1119 1226 758 
Q 1494 397 1959 397 
Q 2419 397 2687 759 
Q 2956 1122 2956 1747 
Q 2956 2369 2687 2733 
Q 2419 3097 1959 3097 
z
M 1959 3584 
Q 2709 3584 3137 3096 
Q 3566 2609 3566 1747 
Q 3566 888 3137 398 
Q 2709 -91 1959 -91 
Q 1206 -91 779 398 
Q 353 888 353 1747 
Q 353 2609 779 3096 
Q 1206 3584 1959 3584 
z
" transform="scale(0.015625)"/>
        <path id="DejaVuSans-76" d="M 191 3500 
L 800 3500 
L 1894 563 
L 2988 3500 
L 3597 3500 
L 2284 0 
L 1503 0 
L 191 3500 
z
" transform="scale(0.015625)"/>
       </defs>
       <use xlink:href="#DejaVuSans-4e"/>
       <use xlink:href="#DejaVuSans-6f" x="74.804688"/>
       <use xlink:href="#DejaVuSans-76" x="135.986328"/>
      </g>
     </g>
    </g>
    <g id="xtick_9">
     <g id="line2d_17">
      <path d="M 243.050467 384.48 
L 243.050467 51.84 
" clip-path="url(#p786697bf48)" style="fill: none; stroke-dasharray: 0.8,1.32; stroke-dashoffset: 0; stroke: #000000; stroke-opacity: 0.5; stroke-width: 0.8"/>
     </g>
     <g id="line2d_18">
      <g>
       <use xlink:href="#m966a97a9f1" x="243.050467" y="384.48" style="stroke: #000000; stroke-width: 0.8"/>
      </g>
     </g>
     <g id="text_9">
      <!-- 15 -->
      <g transform="translate(236.687967 399.078438)scale(0.1 -0.1)">
       <use xlink:href="#DejaVuSans-31"/>
       <use xlink:href="#DejaVuSans-35" x="63.623047"/>
      </g>
     </g>
    </g>
    <g id="xtick_10">
     <g id="line2d_19">
      <path d="M 265.300935 384.48 
L 265.300935 51.84 
" clip-path="url(#p786697bf48)" style="fill: none; stroke-dasharray: 0.8,1.32; stroke-dashoffset: 0; stroke: #000000; stroke-opacity: 0.5; stroke-width: 0.8"/>
     </g>
     <g id="line2d_20">
      <g>
       <use xlink:href="#m966a97a9f1" x="265.300935" y="384.48" style="stroke: #000000; stroke-width: 0.8"/>
      </g>
     </g>
     <g id="text_10">
      <!-- Dec -->
      <g transform="translate(255.625153 399.078438)scale(0.1 -0.1)">
       <defs>
        <path id="DejaVuSans-44" d="M 1259 4147 
L 1259 519 
L 2022 519 
Q 2988 519 3436 956 
Q 3884 1394 3884 2338 
Q 3884 3275 3436 3711 
Q 2988 4147 2022 4147 
L 1259 4147 
z
M 628 4666 
L 1925 4666 
Q 3281 4666 3915 4102 
Q 4550 3538 4550 2338 
Q 4550 1131 3912 565 
Q 3275 0 1925 0 
L 628 0 
L 628 4666 
z
" transform="scale(0.015625)"/>
       </defs>
       <use xlink:href="#DejaVuSans-44"/>
       <use xlink:href="#DejaVuSans-65" x="77.001953"/>
       <use xlink:href="#DejaVuSans-63" x="138.525391"/>
      </g>
     </g>
    </g>
    <g id="xtick_11">
     <g id="line2d_21">
      <path d="M 284.770093 384.48 
L 284.770093 51.84 
" clip-path="url(#p786697bf48)" style="fill: none; stroke-dasharray: 0.8,1.32; stroke-dashoffset: 0; stroke: #000000; stroke-opacity: 0.5; stroke-width: 0.8"/>
     </g>
     <g id="line2d_22">
      <g>
       <use xlink:href="#m966a97a9f1" x="284.770093" y="384.48" style="stroke: #000000; stroke-width: 0.8"/>
      </g>
     </g>
     <g id="text_11">
      <!-- 15 -->
      <g transform="translate(278.407593 399.078438)scale(0.1 -0.1)">
       <use xlink:href="#DejaVuSans-31"/>
       <use xlink:href="#DejaVuSans-35" x="63.623047"/>
      </g>
     </g>
    </g>
    <g id="xtick_12">
     <g id="line2d_23">
      <path d="M 308.411215 384.48 
L 308.411215 51.84 
" clip-path="url(#p786697bf48)" style="fill: none; stroke-dasharray: 0.8,1.32; stroke-dashoffset: 0; stroke: #000000; stroke-opacity: 0.5; stroke-width: 0.8"/>
     </g>
     <g id="line2d_24">
      <g>
       <use xlink:href="#m966a97a9f1" x="308.411215" y="384.48" style="stroke: #000000; stroke-width: 0.8"/>
      </g>
     </g>
     <g id="text_12">
      <!-- Jan -->
      <g transform="translate(300.703402 399.078438)scale(0.1 -0.1)">
       <defs>
        <path id="DejaVuSans-4a" d="M 628 4666 
L 1259 4666 
L 1259 325 
Q 1259 -519 939 -900 
Q 619 -1281 -91 -1281 
L -331 -1281 
L -331 -750 
L -134 -750 
Q 284 -750 456 -515 
Q 628 -281 628 325 
L 628 4666 
z
" transform="scale(0.015625)"/>
        <path id="DejaVuSans-61" d="M 2194 1759 
Q 1497 1759 1228 1600 
Q 959 1441 959 1056 
Q 959 750 1161 570 
Q 1363 391 1709 391 
Q 2188 391 2477 730 
Q 2766 1069 2766 1631 
L 2766 1759 
L 2194 1759 
z
M 3341 1997 
L 3341 0 
L 2766 0 
L 2766 531 
Q 2569 213 2275 61 
Q 1981 -91 1556 -91 
Q 1019 -91 701 211 
Q 384 513 384 1019 
Q 384 1609 779 1909 
Q 1175 2209 1959 2209 
L 2766 2209 
L 2766 2266 
Q 2766 2663 2505 2880 
Q 2244 3097 1772 3097 
Q 1472 3097 1187 3025 
Q 903 2953 641 2809 
L 641 3341 
Q 956 3463 1253 3523 
Q 1550 3584 1831 3584 
Q 2591 3584 2966 3190 
Q 3341 2797 3341 1997 
z
" transform="scale(0.015625)"/>
        <path id="DejaVuSans-6e" d="M 3513 2113 
L 3513 0 
L 2938 0 
L 2938 2094 
Q 2938 2591 2744 2837 
Q 2550 3084 2163 3084 
Q 1697 3084 1428 2787 
Q 1159 2491 1159 1978 
L 1159 0 
L 581 0 
L 581 3500 
L 1159 3500 
L 1159 2956 
Q 1366 3272 1645 3428 
Q 1925 3584 2291 3584 
Q 2894 3584 3203 3211 
Q 3513 2838 3513 2113 
z
" transform="scale(0.015625)"/>
       </defs>
       <use xlink:href="#DejaVuSans-4a"/>
       <use xlink:href="#DejaVuSans-61" x="29.492188"/>
       <use xlink:href="#DejaVuSans-6e" x="90.771484"/>
      </g>
     </g>
    </g>
    <g id="xtick_13">
     <g id="line2d_25">
      <path d="M 327.880374 384.48 
L 327.880374 51.84 
" clip-path="url(#p786697bf48)" style="fill: none; stroke-dasharray: 0.8,1.32; stroke-dashoffset: 0; stroke: #000000; stroke-opacity: 0.5; stroke-width: 0.8"/>
     </g>
     <g id="line2d_26">
      <g>
       <use xlink:href="#m966a97a9f1" x="327.880374" y="384.48" style="stroke: #000000; stroke-width: 0.8"/>
      </g>
     </g>
     <g id="text_13">
      <!-- 15 -->
      <g transform="translate(321.517874 399.078438)scale(0.1 -0.1)">
       <use xlink:href="#DejaVuSans-31"/>
       <use xlink:href="#DejaVuSans-35" x="63.623047"/>
      </g>
     </g>
    </g>
    <g id="xtick_14">
     <g id="line2d_27">
      <path d="M 351.521495 384.48 
L 351.521495 51.84 
" clip-path="url(#p786697bf48)" style="fill: none; stroke-dasharray: 0.8,1.32; stroke-dashoffset: 0; stroke: #000000; stroke-opacity: 0.5; stroke-width: 0.8"/>
     </g>
     <g id="line2d_28">
      <g>
       <use xlink:href="#m966a97a9f1" x="351.521495" y="384.48" style="stroke: #000000; stroke-width: 0.8"/>
      </g>
     </g>
     <g id="text_14">
      <!-- Feb -->
      <g transform="translate(342.669933 399.078438)scale(0.1 -0.1)">
       <defs>
        <path id="DejaVuSans-46" d="M 628 4666 
L 3309 4666 
L 3309 4134 
L 1259 4134 
L 1259 2759 
L 3109 2759 
L 3109 2228 
L 1259 2228 
L 1259 0 
L 628 0 
L 628 4666 
z
" transform="scale(0.015625)"/>
        <path id="DejaVuSans-62" d="M 3116 1747 
Q 3116 2381 2855 2742 
Q 2594 3103 2138 3103 
Q 1681 3103 1420 2742 
Q 1159 2381 1159 1747 
Q 1159 1113 1420 752 
Q 1681 391 2138 391 
Q 2594 391 2855 752 
Q 3116 1113 3116 1747 
z
M 1159 2969 
Q 1341 3281 1617 3432 
Q 1894 3584 2278 3584 
Q 2916 3584 3314 3078 
Q 3713 2572 3713 1747 
Q 3713 922 3314 415 
Q 2916 -91 2278 -91 
Q 1894 -91 1617 61 
Q 1341 213 1159 525 
L 1159 0 
L 581 0 
L 581 4863 
L 1159 4863 
L 1159 2969 
z
" transform="scale(0.015625)"/>
       </defs>
       <use xlink:href="#DejaVuSans-46"/>
       <use xlink:href="#DejaVuSans-65" x="52.019531"/>
       <use xlink:href="#DejaVuSans-62" x="113.542969"/>
      </g>
     </g>
    </g>
    <g id="xtick_15">
     <g id="line2d_29">
      <path d="M 370.990654 384.48 
L 370.990654 51.84 
" clip-path="url(#p786697bf48)" style="fill: none; stroke-dasharray: 0.8,1.32; stroke-dashoffset: 0; stroke: #000000; stroke-opacity: 0.5; stroke-width: 0.8"/>
     </g>
     <g id="line2d_30">
      <g>
       <use xlink:href="#m966a97a9f1" x="370.990654" y="384.48" style="stroke: #000000; stroke-width: 0.8"/>
      </g>
     </g>
     <g id="text_15">
      <!-- 15 -->
      <g transform="translate(364.628154 399.078438)scale(0.1 -0.1)">
       <use xlink:href="#DejaVuSans-31"/>
       <use xlink:href="#DejaVuSans-35" x="63.623047"/>
      </g>
     </g>
    </g>
    <g id="xtick_16">
     <g id="line2d_31">
      <path d="M 390.459813 384.48 
L 390.459813 51.84 
" clip-path="url(#p786697bf48)" style="fill: none; stroke-dasharray: 0.8,1.32; stroke-dashoffset: 0; stroke: #000000; stroke-opacity: 0.5; stroke-width: 0.8"/>
     </g>
     <g id="line2d_32">
      <g>
       <use xlink:href="#m966a97a9f1" x="390.459813" y="384.48" style="stroke: #000000; stroke-width: 0.8"/>
      </g>
     </g>
     <g id="text_16">
      <!-- Mar -->
      <g transform="translate(381.026219 399.078438)scale(0.1 -0.1)">
       <defs>
        <path id="DejaVuSans-4d" d="M 628 4666 
L 1569 4666 
L 2759 1491 
L 3956 4666 
L 4897 4666 
L 4897 0 
L 4281 0 
L 4281 4097 
L 3078 897 
L 2444 897 
L 1241 4097 
L 1241 0 
L 628 0 
L 628 4666 
z
" transform="scale(0.015625)"/>
        <path id="DejaVuSans-72" d="M 2631 2963 
Q 2534 3019 2420 3045 
Q 2306 3072 2169 3072 
Q 1681 3072 1420 2755 
Q 1159 2438 1159 1844 
L 1159 0 
L 581 0 
L 581 3500 
L 1159 3500 
L 1159 2956 
Q 1341 3275 1631 3429 
Q 1922 3584 2338 3584 
Q 2397 3584 2469 3576 
Q 2541 3569 2628 3553 
L 2631 2963 
z
" transform="scale(0.015625)"/>
       </defs>
       <use xlink:href="#DejaVuSans-4d"/>
       <use xlink:href="#DejaVuSans-61" x="86.279297"/>
       <use xlink:href="#DejaVuSans-72" x="147.558594"/>
      </g>
     </g>
    </g>
    <g id="xtick_17">
     <g id="line2d_33">
      <path d="M 409.928972 384.48 
L 409.928972 51.84 
" clip-path="url(#p786697bf48)" style="fill: none; stroke-dasharray: 0.8,1.32; stroke-dashoffset: 0; stroke: #000000; stroke-opacity: 0.5; stroke-width: 0.8"/>
     </g>
     <g id="line2d_34">
      <g>
       <use xlink:href="#m966a97a9f1" x="409.928972" y="384.48" style="stroke: #000000; stroke-width: 0.8"/>
      </g>
     </g>
     <g id="text_17">
      <!-- 15 -->
      <g transform="translate(403.566472 399.078438)scale(0.1 -0.1)">
       <use xlink:href="#DejaVuSans-31"/>
       <use xlink:href="#DejaVuSans-35" x="63.623047"/>
      </g>
     </g>
    </g>
    <g id="xtick_18">
     <g id="line2d_35">
      <path d="M 433.570093 384.48 
L 433.570093 51.84 
" clip-path="url(#p786697bf48)" style="fill: none; stroke-dasharray: 0.8,1.32; stroke-dashoffset: 0; stroke: #000000; stroke-opacity: 0.5; stroke-width: 0.8"/>
     </g>
     <g id="line2d_36">
      <g>
       <use xlink:href="#m966a97a9f1" x="433.570093" y="384.48" style="stroke: #000000; stroke-width: 0.8"/>
      </g>
     </g>
     <g id="text_18">
      <!-- Apr -->
      <g transform="translate(424.920093 399.078438)scale(0.1 -0.1)">
       <use xlink:href="#DejaVuSans-41"/>
       <use xlink:href="#DejaVuSans-70" x="68.408203"/>
       <use xlink:href="#DejaVuSans-72" x="131.884766"/>
      </g>
     </g>
    </g>
    <g id="xtick_19">
     <g id="line2d_37">
      <path d="M 453.039252 384.48 
L 453.039252 51.84 
" clip-path="url(#p786697bf48)" style="fill: none; stroke-dasharray: 0.8,1.32; stroke-dashoffset: 0; stroke: #000000; stroke-opacity: 0.5; stroke-width: 0.8"/>
     </g>
     <g id="line2d_38">
      <g>
       <use xlink:href="#m966a97a9f1" x="453.039252" y="384.48" style="stroke: #000000; stroke-width: 0.8"/>
      </g>
     </g>
     <g id="text_19">
      <!-- 15 -->
      <g transform="translate(446.676752 399.078438)scale(0.1 -0.1)">
       <use xlink:href="#DejaVuSans-31"/>
       <use xlink:href="#DejaVuSans-35" x="63.623047"/>
      </g>
     </g>
    </g>
    <g id="xtick_20">
     <g id="line2d_39">
      <path d="M 475.28972 384.48 
L 475.28972 51.84 
" clip-path="url(#p786697bf48)" style="fill: none; stroke-dasharray: 0.8,1.32; stroke-dashoffset: 0; stroke: #000000; stroke-opacity: 0.5; stroke-width: 0.8"/>
     </g>
     <g id="line2d_40">
      <g>
       <use xlink:href="#m966a97a9f1" x="475.28972" y="384.48" style="stroke: #000000; stroke-width: 0.8"/>
      </g>
     </g>
     <g id="text_20">
      <!-- May -->
      <g transform="translate(464.95222 399.078438)scale(0.1 -0.1)">
       <defs>
        <path id="DejaVuSans-79" d="M 2059 -325 
Q 1816 -950 1584 -1140 
Q 1353 -1331 966 -1331 
L 506 -1331 
L 506 -850 
L 844 -850 
Q 1081 -850 1212 -737 
Q 1344 -625 1503 -206 
L 1606 56 
L 191 3500 
L 800 3500 
L 1894 763 
L 2988 3500 
L 3597 3500 
L 2059 -325 
z
" transform="scale(0.015625)"/>
       </defs>
       <use xlink:href="#DejaVuSans-4d"/>
       <use xlink:href="#DejaVuSans-61" x="86.279297"/>
       <use xlink:href="#DejaVuSans-79" x="147.558594"/>
      </g>
     </g>
    </g>
    <g id="xtick_21">
     <g id="line2d_41">
      <path d="M 494.758879 384.48 
L 494.758879 51.84 
" clip-path="url(#p786697bf48)" style="fill: none; stroke-dasharray: 0.8,1.32; stroke-dashoffset: 0; stroke: #000000; stroke-opacity: 0.5; stroke-width: 0.8"/>
     </g>
     <g id="line2d_42">
      <g>
       <use xlink:href="#m966a97a9f1" x="494.758879" y="384.48" style="stroke: #000000; stroke-width: 0.8"/>
      </g>
     </g>
     <g id="text_21">
      <!-- 15 -->
      <g transform="translate(488.396379 399.078438)scale(0.1 -0.1)">
       <use xlink:href="#DejaVuSans-31"/>
       <use xlink:href="#DejaVuSans-35" x="63.623047"/>
      </g>
     </g>
    </g>
    <g id="xtick_22">
     <g id="line2d_43">
      <path d="M 518.4 384.48 
L 518.4 51.84 
" clip-path="url(#p786697bf48)" style="fill: none; stroke-dasharray: 0.8,1.32; stroke-dashoffset: 0; stroke: #000000; stroke-opacity: 0.5; stroke-width: 0.8"/>
     </g>
     <g id="line2d_44">
      <g>
       <use xlink:href="#m966a97a9f1" x="518.4" y="384.48" style="stroke: #000000; stroke-width: 0.8"/>
      </g>
     </g>
     <g id="text_22">
      <!-- Jun -->
      <g transform="translate(510.5875 399.078438)scale(0.1 -0.1)">
       <use xlink:href="#DejaVuSans-4a"/>
       <use xlink:href="#DejaVuSans-75" x="29.492188"/>
       <use xlink:href="#DejaVuSans-6e" x="92.871094"/>
      </g>
     </g>
    </g>
    <g id="text_23">
     <!-- 2022-Jun -->
     <g transform="translate(473.154687 411.756563)scale(0.1 -0.1)">
      <defs>
       <path id="DejaVuSans-32" d="M 1228 531 
L 3431 531 
L 3431 0 
L 469 0 
L 469 531 
Q 828 903 1448 1529 
Q 2069 2156 2228 2338 
Q 2531 2678 2651 2914 
Q 2772 3150 2772 3378 
Q 2772 3750 2511 3984 
Q 2250 4219 1831 4219 
Q 1534 4219 1204 4116 
Q 875 4013 500 3803 
L 500 4441 
Q 881 4594 1212 4672 
Q 1544 4750 1819 4750 
Q 2544 4750 2975 4387 
Q 3406 4025 3406 3419 
Q 3406 3131 3298 2873 
Q 3191 2616 2906 2266 
Q 2828 2175 2409 1742 
Q 1991 1309 1228 531 
z
" transform="scale(0.015625)"/>
       <path id="DejaVuSans-30" d="M 2034 4250 
Q 1547 4250 1301 3770 
Q 1056 3291 1056 2328 
Q 1056 1369 1301 889 
Q 1547 409 2034 409 
Q 2525 409 2770 889 
Q 3016 1369 3016 2328 
Q 3016 3291 2770 3770 
Q 2525 4250 2034 4250 
z
M 2034 4750 
Q 2819 4750 3233 4129 
Q 3647 3509 3647 2328 
Q 3647 1150 3233 529 
Q 2819 -91 2034 -91 
Q 1250 -91 836 529 
Q 422 1150 422 2328 
Q 422 3509 836 4129 
Q 1250 4750 2034 4750 
z
" transform="scale(0.015625)"/>
       <path id="DejaVuSans-2d" d="M 313 2009 
L 1997 2009 
L 1997 1497 
L 313 1497 
L 313 2009 
z
" transform="scale(0.015625)"/>
      </defs>
      <use xlink:href="#DejaVuSans-32"/>
      <use xlink:href="#DejaVuSans-30" x="63.623047"/>
      <use xlink:href="#DejaVuSans-32" x="127.246094"/>
      <use xlink:href="#DejaVuSans-32" x="190.869141"/>
      <use xlink:href="#DejaVuSans-2d" x="254.492188"/>
      <use xlink:href="#DejaVuSans-4a" x="296.201172"/>
      <use xlink:href="#DejaVuSans-75" x="325.693359"/>
      <use xlink:href="#DejaVuSans-6e" x="389.072266"/>
     </g>
    </g>
   </g>
   <g id="matplotlib.axis_2">
    <g id="ytick_1">
     <g id="line2d_45">
      <path d="M 72 384.48 
L 518.4 384.48 
" clip-path="url(#p786697bf48)" style="fill: none; stroke-dasharray: 0.8,1.32; stroke-dashoffset: 0; stroke: #000000; stroke-opacity: 0.5; stroke-width: 0.8"/>
     </g>
     <g id="line2d_46">
      <defs>
       <path id="md1c3c28263" d="M 0 0 
L -3.5 0 
" style="stroke: #000000; stroke-width: 0.8"/>
      </defs>
      <g>
       <use xlink:href="#md1c3c28263" x="72" y="384.48" style="stroke: #000000; stroke-width: 0.8"/>
      </g>
     </g>
     <g id="text_24">
      <!-- 0 -->
      <g transform="translate(58.6375 388.279219)scale(0.1 -0.1)">
       <use xlink:href="#DejaVuSans-30"/>
      </g>
     </g>
    </g>
    <g id="ytick_2">
     <g id="line2d_47">
      <path d="M 72 351.216 
L 518.4 351.216 
" clip-path="url(#p786697bf48)" style="fill: none; stroke-dasharray: 0.8,1.32; stroke-dashoffset: 0; stroke: #000000; stroke-opacity: 0.5; stroke-width: 0.8"/>
     </g>
     <g id="line2d_48">
      <g>
       <use xlink:href="#md1c3c28263" x="72" y="351.216" style="stroke: #000000; stroke-width: 0.8"/>
      </g>
     </g>
     <g id="text_25">
      <!-- 10 -->
      <g transform="translate(52.275 355.015219)scale(0.1 -0.1)">
       <use xlink:href="#DejaVuSans-31"/>
       <use xlink:href="#DejaVuSans-30" x="63.623047"/>
      </g>
     </g>
    </g>
    <g id="ytick_3">
     <g id="line2d_49">
      <path d="M 72 317.952 
L 518.4 317.952 
" clip-path="url(#p786697bf48)" style="fill: none; stroke-dasharray: 0.8,1.32; stroke-dashoffset: 0; stroke: #000000; stroke-opacity: 0.5; stroke-width: 0.8"/>
     </g>
     <g id="line2d_50">
      <g>
       <use xlink:href="#md1c3c28263" x="72" y="317.952" style="stroke: #000000; stroke-width: 0.8"/>
      </g>
     </g>
     <g id="text_26">
      <!-- 20 -->
      <g transform="translate(52.275 321.751219)scale(0.1 -0.1)">
       <use xlink:href="#DejaVuSans-32"/>
       <use xlink:href="#DejaVuSans-30" x="63.623047"/>
      </g>
     </g>
    </g>
    <g id="ytick_4">
     <g id="line2d_51">
      <path d="M 72 284.688 
L 518.4 284.688 
" clip-path="url(#p786697bf48)" style="fill: none; stroke-dasharray: 0.8,1.32; stroke-dashoffset: 0; stroke: #000000; stroke-opacity: 0.5; stroke-width: 0.8"/>
     </g>
     <g id="line2d_52">
      <g>
       <use xlink:href="#md1c3c28263" x="72" y="284.688" style="stroke: #000000; stroke-width: 0.8"/>
      </g>
     </g>
     <g id="text_27">
      <!-- 30 -->
      <g transform="translate(52.275 288.487219)scale(0.1 -0.1)">
       <defs>
        <path id="DejaVuSans-33" d="M 2597 2516 
Q 3050 2419 3304 2112 
Q 3559 1806 3559 1356 
Q 3559 666 3084 287 
Q 2609 -91 1734 -91 
Q 1441 -91 1130 -33 
Q 819 25 488 141 
L 488 750 
Q 750 597 1062 519 
Q 1375 441 1716 441 
Q 2309 441 2620 675 
Q 2931 909 2931 1356 
Q 2931 1769 2642 2001 
Q 2353 2234 1838 2234 
L 1294 2234 
L 1294 2753 
L 1863 2753 
Q 2328 2753 2575 2939 
Q 2822 3125 2822 3475 
Q 2822 3834 2567 4026 
Q 2313 4219 1838 4219 
Q 1578 4219 1281 4162 
Q 984 4106 628 3988 
L 628 4550 
Q 988 4650 1302 4700 
Q 1616 4750 1894 4750 
Q 2613 4750 3031 4423 
Q 3450 4097 3450 3541 
Q 3450 3153 3228 2886 
Q 3006 2619 2597 2516 
z
" transform="scale(0.015625)"/>
       </defs>
       <use xlink:href="#DejaVuSans-33"/>
       <use xlink:href="#DejaVuSans-30" x="63.623047"/>
      </g>
     </g>
    </g>
    <g id="ytick_5">
     <g id="line2d_53">
      <path d="M 72 251.424 
L 518.4 251.424 
" clip-path="url(#p786697bf48)" style="fill: none; stroke-dasharray: 0.8,1.32; stroke-dashoffset: 0; stroke: #000000; stroke-opacity: 0.5; stroke-width: 0.8"/>
     </g>
     <g id="line2d_54">
      <g>
       <use xlink:href="#md1c3c28263" x="72" y="251.424" style="stroke: #000000; stroke-width: 0.8"/>
      </g>
     </g>
     <g id="text_28">
      <!-- 40 -->
      <g transform="translate(52.275 255.223219)scale(0.1 -0.1)">
       <defs>
        <path id="DejaVuSans-34" d="M 2419 4116 
L 825 1625 
L 2419 1625 
L 2419 4116 
z
M 2253 4666 
L 3047 4666 
L 3047 1625 
L 3713 1625 
L 3713 1100 
L 3047 1100 
L 3047 0 
L 2419 0 
L 2419 1100 
L 313 1100 
L 313 1709 
L 2253 4666 
z
" transform="scale(0.015625)"/>
       </defs>
       <use xlink:href="#DejaVuSans-34"/>
       <use xlink:href="#DejaVuSans-30" x="63.623047"/>
      </g>
     </g>
    </g>
    <g id="ytick_6">
     <g id="line2d_55">
      <path d="M 72 218.16 
L 518.4 218.16 
" clip-path="url(#p786697bf48)" style="fill: none; stroke-dasharray: 0.8,1.32; stroke-dashoffset: 0; stroke: #000000; stroke-opacity: 0.5; stroke-width: 0.8"/>
     </g>
     <g id="line2d_56">
      <g>
       <use xlink:href="#md1c3c28263" x="72" y="218.16" style="stroke: #000000; stroke-width: 0.8"/>
      </g>
     </g>
     <g id="text_29">
      <!-- 50 -->
      <g transform="translate(52.275 221.959219)scale(0.1 -0.1)">
       <use xlink:href="#DejaVuSans-35"/>
       <use xlink:href="#DejaVuSans-30" x="63.623047"/>
      </g>
     </g>
    </g>
    <g id="ytick_7">
     <g id="line2d_57">
      <path d="M 72 184.896 
L 518.4 184.896 
" clip-path="url(#p786697bf48)" style="fill: none; stroke-dasharray: 0.8,1.32; stroke-dashoffset: 0; stroke: #000000; stroke-opacity: 0.5; stroke-width: 0.8"/>
     </g>
     <g id="line2d_58">
      <g>
       <use xlink:href="#md1c3c28263" x="72" y="184.896" style="stroke: #000000; stroke-width: 0.8"/>
      </g>
     </g>
     <g id="text_30">
      <!-- 60 -->
      <g transform="translate(52.275 188.695219)scale(0.1 -0.1)">
       <defs>
        <path id="DejaVuSans-36" d="M 2113 2584 
Q 1688 2584 1439 2293 
Q 1191 2003 1191 1497 
Q 1191 994 1439 701 
Q 1688 409 2113 409 
Q 2538 409 2786 701 
Q 3034 994 3034 1497 
Q 3034 2003 2786 2293 
Q 2538 2584 2113 2584 
z
M 3366 4563 
L 3366 3988 
Q 3128 4100 2886 4159 
Q 2644 4219 2406 4219 
Q 1781 4219 1451 3797 
Q 1122 3375 1075 2522 
Q 1259 2794 1537 2939 
Q 1816 3084 2150 3084 
Q 2853 3084 3261 2657 
Q 3669 2231 3669 1497 
Q 3669 778 3244 343 
Q 2819 -91 2113 -91 
Q 1303 -91 875 529 
Q 447 1150 447 2328 
Q 447 3434 972 4092 
Q 1497 4750 2381 4750 
Q 2619 4750 2861 4703 
Q 3103 4656 3366 4563 
z
" transform="scale(0.015625)"/>
       </defs>
       <use xlink:href="#DejaVuSans-36"/>
       <use xlink:href="#DejaVuSans-30" x="63.623047"/>
      </g>
     </g>
    </g>
    <g id="ytick_8">
     <g id="line2d_59">
      <path d="M 72 151.632 
L 518.4 151.632 
" clip-path="url(#p786697bf48)" style="fill: none; stroke-dasharray: 0.8,1.32; stroke-dashoffset: 0; stroke: #000000; stroke-opacity: 0.5; stroke-width: 0.8"/>
     </g>
     <g id="line2d_60">
      <g>
       <use xlink:href="#md1c3c28263" x="72" y="151.632" style="stroke: #000000; stroke-width: 0.8"/>
      </g>
     </g>
     <g id="text_31">
      <!-- 70 -->
      <g transform="translate(52.275 155.431219)scale(0.1 -0.1)">
       <defs>
        <path id="DejaVuSans-37" d="M 525 4666 
L 3525 4666 
L 3525 4397 
L 1831 0 
L 1172 0 
L 2766 4134 
L 525 4134 
L 525 4666 
z
" transform="scale(0.015625)"/>
       </defs>
       <use xlink:href="#DejaVuSans-37"/>
       <use xlink:href="#DejaVuSans-30" x="63.623047"/>
      </g>
     </g>
    </g>
    <g id="ytick_9">
     <g id="line2d_61">
      <path d="M 72 118.368 
L 518.4 118.368 
" clip-path="url(#p786697bf48)" style="fill: none; stroke-dasharray: 0.8,1.32; stroke-dashoffset: 0; stroke: #000000; stroke-opacity: 0.5; stroke-width: 0.8"/>
     </g>
     <g id="line2d_62">
      <g>
       <use xlink:href="#md1c3c28263" x="72" y="118.368" style="stroke: #000000; stroke-width: 0.8"/>
      </g>
     </g>
     <g id="text_32">
      <!-- 80 -->
      <g transform="translate(52.275 122.167219)scale(0.1 -0.1)">
       <defs>
        <path id="DejaVuSans-38" d="M 2034 2216 
Q 1584 2216 1326 1975 
Q 1069 1734 1069 1313 
Q 1069 891 1326 650 
Q 1584 409 2034 409 
Q 2484 409 2743 651 
Q 3003 894 3003 1313 
Q 3003 1734 2745 1975 
Q 2488 2216 2034 2216 
z
M 1403 2484 
Q 997 2584 770 2862 
Q 544 3141 544 3541 
Q 544 4100 942 4425 
Q 1341 4750 2034 4750 
Q 2731 4750 3128 4425 
Q 3525 4100 3525 3541 
Q 3525 3141 3298 2862 
Q 3072 2584 2669 2484 
Q 3125 2378 3379 2068 
Q 3634 1759 3634 1313 
Q 3634 634 3220 271 
Q 2806 -91 2034 -91 
Q 1263 -91 848 271 
Q 434 634 434 1313 
Q 434 1759 690 2068 
Q 947 2378 1403 2484 
z
M 1172 3481 
Q 1172 3119 1398 2916 
Q 1625 2713 2034 2713 
Q 2441 2713 2670 2916 
Q 2900 3119 2900 3481 
Q 2900 3844 2670 4047 
Q 2441 4250 2034 4250 
Q 1625 4250 1398 4047 
Q 1172 3844 1172 3481 
z
" transform="scale(0.015625)"/>
       </defs>
       <use xlink:href="#DejaVuSans-38"/>
       <use xlink:href="#DejaVuSans-30" x="63.623047"/>
      </g>
     </g>
    </g>
    <g id="ytick_10">
     <g id="line2d_63">
      <path d="M 72 85.104 
L 518.4 85.104 
" clip-path="url(#p786697bf48)" style="fill: none; stroke-dasharray: 0.8,1.32; stroke-dashoffset: 0; stroke: #000000; stroke-opacity: 0.5; stroke-width: 0.8"/>
     </g>
     <g id="line2d_64">
      <g>
       <use xlink:href="#md1c3c28263" x="72" y="85.104" style="stroke: #000000; stroke-width: 0.8"/>
      </g>
     </g>
     <g id="text_33">
      <!-- 90 -->
      <g transform="translate(52.275 88.903219)scale(0.1 -0.1)">
       <defs>
        <path id="DejaVuSans-39" d="M 703 97 
L 703 672 
Q 941 559 1184 500 
Q 1428 441 1663 441 
Q 2288 441 2617 861 
Q 2947 1281 2994 2138 
Q 2813 1869 2534 1725 
Q 2256 1581 1919 1581 
Q 1219 1581 811 2004 
Q 403 2428 403 3163 
Q 403 3881 828 4315 
Q 1253 4750 1959 4750 
Q 2769 4750 3195 4129 
Q 3622 3509 3622 2328 
Q 3622 1225 3098 567 
Q 2575 -91 1691 -91 
Q 1453 -91 1209 -44 
Q 966 3 703 97 
z
M 1959 2075 
Q 2384 2075 2632 2365 
Q 2881 2656 2881 3163 
Q 2881 3666 2632 3958 
Q 2384 4250 1959 4250 
Q 1534 4250 1286 3958 
Q 1038 3666 1038 3163 
Q 1038 2656 1286 2365 
Q 1534 2075 1959 2075 
z
" transform="scale(0.015625)"/>
       </defs>
       <use xlink:href="#DejaVuSans-39"/>
       <use xlink:href="#DejaVuSans-30" x="63.623047"/>
      </g>
     </g>
    </g>
    <g id="ytick_11">
     <g id="line2d_65">
      <path d="M 72 51.84 
L 518.4 51.84 
" clip-path="url(#p786697bf48)" style="fill: none; stroke-dasharray: 0.8,1.32; stroke-dashoffset: 0; stroke: #000000; stroke-opacity: 0.5; stroke-width: 0.8"/>
     </g>
     <g id="line2d_66">
      <g>
       <use xlink:href="#md1c3c28263" x="72" y="51.84" style="stroke: #000000; stroke-width: 0.8"/>
      </g>
     </g>
     <g id="text_34">
      <!-- 100 -->
      <g transform="translate(45.9125 55.639219)scale(0.1 -0.1)">
       <use xlink:href="#DejaVuSans-31"/>
       <use xlink:href="#DejaVuSans-30" x="63.623047"/>
       <use xlink:href="#DejaVuSans-30" x="127.246094"/>
      </g>
     </g>
    </g>
    <g id="text_35">
     <!-- Vaccine coverage (% of 5+ population) -->
     <g transform="translate(39.832812 315.999844)rotate(-90)scale(0.1 -0.1)">
      <defs>
       <path id="DejaVuSans-56" d="M 1831 0 
L 50 4666 
L 709 4666 
L 2188 738 
L 3669 4666 
L 4325 4666 
L 2547 0 
L 1831 0 
z
" transform="scale(0.015625)"/>
       <path id="DejaVuSans-69" d="M 603 3500 
L 1178 3500 
L 1178 0 
L 603 0 
L 603 3500 
z
M 603 4863 
L 1178 4863 
L 1178 4134 
L 603 4134 
L 603 4863 
z
" transform="scale(0.015625)"/>
       <path id="DejaVuSans-20" transform="scale(0.015625)"/>
       <path id="DejaVuSans-28" d="M 1984 4856 
Q 1566 4138 1362 3434 
Q 1159 2731 1159 2009 
Q 1159 1288 1364 580 
Q 1569 -128 1984 -844 
L 1484 -844 
Q 1016 -109 783 600 
Q 550 1309 550 2009 
Q 550 2706 781 3412 
Q 1013 4119 1484 4856 
L 1984 4856 
z
" transform="scale(0.015625)"/>
       <path id="DejaVuSans-25" d="M 4653 2053 
Q 4381 2053 4226 1822 
Q 4072 1591 4072 1178 
Q 4072 772 4226 539 
Q 4381 306 4653 306 
Q 4919 306 5073 539 
Q 5228 772 5228 1178 
Q 5228 1588 5073 1820 
Q 4919 2053 4653 2053 
z
M 4653 2450 
Q 5147 2450 5437 2106 
Q 5728 1763 5728 1178 
Q 5728 594 5436 251 
Q 5144 -91 4653 -91 
Q 4153 -91 3862 251 
Q 3572 594 3572 1178 
Q 3572 1766 3864 2108 
Q 4156 2450 4653 2450 
z
M 1428 4353 
Q 1159 4353 1004 4120 
Q 850 3888 850 3481 
Q 850 3069 1003 2837 
Q 1156 2606 1428 2606 
Q 1700 2606 1854 2837 
Q 2009 3069 2009 3481 
Q 2009 3884 1853 4118 
Q 1697 4353 1428 4353 
z
M 4250 4750 
L 4750 4750 
L 1831 -91 
L 1331 -91 
L 4250 4750 
z
M 1428 4750 
Q 1922 4750 2215 4408 
Q 2509 4066 2509 3481 
Q 2509 2891 2217 2550 
Q 1925 2209 1428 2209 
Q 931 2209 642 2551 
Q 353 2894 353 3481 
Q 353 4063 643 4406 
Q 934 4750 1428 4750 
z
" transform="scale(0.015625)"/>
       <path id="DejaVuSans-66" d="M 2375 4863 
L 2375 4384 
L 1825 4384 
Q 1516 4384 1395 4259 
Q 1275 4134 1275 3809 
L 1275 3500 
L 2222 3500 
L 2222 3053 
L 1275 3053 
L 1275 0 
L 697 0 
L 697 3053 
L 147 3053 
L 147 3500 
L 697 3500 
L 697 3744 
Q 697 4328 969 4595 
Q 1241 4863 1831 4863 
L 2375 4863 
z
" transform="scale(0.015625)"/>
       <path id="DejaVuSans-2b" d="M 2944 4013 
L 2944 2272 
L 4684 2272 
L 4684 1741 
L 2944 1741 
L 2944 0 
L 2419 0 
L 2419 1741 
L 678 1741 
L 678 2272 
L 2419 2272 
L 2419 4013 
L 2944 4013 
z
" transform="scale(0.015625)"/>
       <path id="DejaVuSans-6c" d="M 603 4863 
L 1178 4863 
L 1178 0 
L 603 0 
L 603 4863 
z
" transform="scale(0.015625)"/>
       <path id="DejaVuSans-29" d="M 513 4856 
L 1013 4856 
Q 1481 4119 1714 3412 
Q 1947 2706 1947 2009 
Q 1947 1309 1714 600 
Q 1481 -109 1013 -844 
L 513 -844 
Q 928 -128 1133 580 
Q 1338 1288 1338 2009 
Q 1338 2731 1133 3434 
Q 928 4138 513 4856 
z
" transform="scale(0.015625)"/>
      </defs>
      <use xlink:href="#DejaVuSans-56"/>
      <use xlink:href="#DejaVuSans-61" x="60.658203"/>
      <use xlink:href="#DejaVuSans-63" x="121.9375"/>
      <use xlink:href="#DejaVuSans-63" x="176.917969"/>
      <use xlink:href="#DejaVuSans-69" x="231.898438"/>
      <use xlink:href="#DejaVuSans-6e" x="259.681641"/>
      <use xlink:href="#DejaVuSans-65" x="323.060547"/>
      <use xlink:href="#DejaVuSans-20" x="384.583984"/>
      <use xlink:href="#DejaVuSans-63" x="416.371094"/>
      <use xlink:href="#DejaVuSans-6f" x="471.351562"/>
      <use xlink:href="#DejaVuSans-76" x="532.533203"/>
      <use xlink:href="#DejaVuSans-65" x="591.712891"/>
      <use xlink:href="#DejaVuSans-72" x="653.236328"/>
      <use xlink:href="#DejaVuSans-61" x="694.349609"/>
      <use xlink:href="#DejaVuSans-67" x="755.628906"/>
      <use xlink:href="#DejaVuSans-65" x="819.105469"/>
      <use xlink:href="#DejaVuSans-20" x="880.628906"/>
      <use xlink:href="#DejaVuSans-28" x="912.416016"/>
      <use xlink:href="#DejaVuSans-25" x="951.429688"/>
      <use xlink:href="#DejaVuSans-20" x="1046.449219"/>
      <use xlink:href="#DejaVuSans-6f" x="1078.236328"/>
      <use xlink:href="#DejaVuSans-66" x="1139.417969"/>
      <use xlink:href="#DejaVuSans-20" x="1174.623047"/>
      <use xlink:href="#DejaVuSans-35" x="1206.410156"/>
      <use xlink:href="#DejaVuSans-2b" x="1270.033203"/>
      <use xlink:href="#DejaVuSans-20" x="1353.822266"/>
      <use xlink:href="#DejaVuSans-70" x="1385.609375"/>
      <use xlink:href="#DejaVuSans-6f" x="1449.085938"/>
      <use xlink:href="#DejaVuSans-70" x="1510.267578"/>
      <use xlink:href="#DejaVuSans-75" x="1573.744141"/>
      <use xlink:href="#DejaVuSans-6c" x="1637.123047"/>
      <use xlink:href="#DejaVuSans-61" x="1664.90625"/>
      <use xlink:href="#DejaVuSans-74" x="1726.185547"/>
      <use xlink:href="#DejaVuSans-69" x="1765.394531"/>
      <use xlink:href="#DejaVuSans-6f" x="1793.177734"/>
      <use xlink:href="#DejaVuSans-6e" x="1854.359375"/>
      <use xlink:href="#DejaVuSans-29" x="1917.738281"/>
     </g>
    </g>
   </g>
   <g id="line2d_67">
    <path d="M -1 378.668131 
L 1.076636 377.967213 
L 3.857944 377.688598 
L 8.029907 377.562103 
L 13.592523 376.760047 
L 16.373832 376.581391 
L 17.764486 376.220146 
L 19.15514 375.706351 
L 23.327103 375.185985 
L 26.108411 374.919534 
L 27.499065 374.847324 
L 28.88972 374.408608 
L 30.280374 373.706891 
L 33.061682 373.06489 
L 35.842991 372.551351 
L 37.233645 371.353632 
L 38.624299 369.581567 
L 40.014953 369.04158 
L 45.57757 367.640208 
L 46.968224 366.251345 
L 48.358879 364.25308 
L 49.749533 363.622549 
L 51.140187 362.388857 
L 52.530841 360.445339 
L 53.921495 359.375238 
L 56.702804 358.224151 
L 59.484112 356.22298 
L 62.265421 354.084791 
L 63.656075 353.199491 
L 66.437383 351.99609 
L 67.828037 350.950366 
L 72 347.296658 
L 73.390654 346.333343 
L 76.171963 345.052453 
L 77.562617 343.974634 
L 83.125234 339.15091 
L 85.906542 337.695275 
L 87.297196 336.48967 
L 92.859813 330.936357 
L 95.641121 329.27561 
L 97.031776 327.919672 
L 102.594393 321.710759 
L 105.375701 319.729282 
L 106.766355 318.181388 
L 112.328972 311.166662 
L 115.11028 309.148761 
L 117.891589 305.574408 
L 120.672897 301.646837 
L 122.063551 299.976983 
L 124.84486 297.725038 
L 126.235514 295.979665 
L 130.407477 289.945953 
L 131.798131 288.257694 
L 134.579439 285.937096 
L 135.970093 284.164591 
L 140.142056 278.29555 
L 141.53271 276.670821 
L 144.314019 274.524313 
L 145.704673 272.827901 
L 148.485981 268.871593 
L 149.876636 266.822884 
L 151.26729 265.102948 
L 152.657944 263.966667 
L 154.048598 262.682721 
L 156.829907 258.742339 
L 161.001869 252.654601 
L 163.783178 249.880533 
L 166.564486 245.535478 
L 169.345794 240.91098 
L 170.736449 238.911104 
L 173.517757 236.01118 
L 176.299065 231.475058 
L 180.471028 224.428494 
L 181.861682 222.934162 
L 183.252336 221.648104 
L 184.642991 219.65637 
L 190.205607 208.359351 
L 192.986916 204.095526 
L 195.768224 197.988134 
L 198.549533 191.95285 
L 199.940187 189.410817 
L 202.721495 185.410108 
L 209.674766 172.306555 
L 212.456075 168.898346 
L 218.018692 160.20806 
L 219.409346 158.371192 
L 222.190654 155.730418 
L 227.753271 148.966689 
L 229.143925 147.48375 
L 231.925234 145.550381 
L 237.48785 140.188151 
L 238.878505 139.070083 
L 241.659813 137.531343 
L 245.831776 134.260672 
L 247.22243 133.239991 
L 248.613084 132.396154 
L 251.394393 131.284786 
L 254.175701 129.42605 
L 256.957009 127.757776 
L 258.347664 127.085228 
L 261.128972 126.212736 
L 268.082243 122.850977 
L 270.863551 122.060916 
L 277.816822 119.056538 
L 280.598131 118.368016 
L 286.160748 115.764547 
L 287.551402 115.246491 
L 290.33271 114.618797 
L 294.504673 113.335932 
L 295.895327 113.10144 
L 298.676636 112.955126 
L 307.020561 111.997192 
L 309.801869 111.690658 
L 311.192523 111.502981 
L 316.75514 110.209414 
L 319.536449 109.826267 
L 326.48972 108.513079 
L 330.661682 108.072424 
L 336.224299 107.252029 
L 341.786916 106.762929 
L 341.786916 106.762929 
" clip-path="url(#p786697bf48)" style="fill: none; stroke: #1f77b4; stroke-width: 1.5; stroke-linecap: square"/>
   </g>
   <g id="line2d_68">
    <path d="M -1 378.894893 
L -0.314019 378.689888 
L 1.076636 378.155432 
L 2.46729 377.915732 
L 5.248598 377.80841 
L 8.029907 377.754325 
L 14.983178 376.698868 
L 16.373832 376.634341 
L 17.764486 376.238117 
L 19.15514 375.54091 
L 20.545794 375.238416 
L 21.936449 375.050418 
L 24.717757 374.357865 
L 27.499065 374.168559 
L 28.88972 373.805713 
L 30.280374 373.123068 
L 33.061682 372.215991 
L 34.452336 371.861471 
L 35.842991 371.637235 
L 37.233645 370.616443 
L 38.624299 369.028538 
L 40.014953 368.444965 
L 42.796262 367.68555 
L 45.57757 367.229971 
L 46.968224 366.140437 
L 48.358879 364.487244 
L 49.749533 364.009191 
L 51.140187 362.956236 
L 52.530841 361.186093 
L 53.921495 360.344024 
L 56.702804 359.538633 
L 59.484112 357.773695 
L 62.265421 355.95366 
L 63.656075 355.221093 
L 66.437383 354.28357 
L 67.828037 353.204847 
L 72 349.329076 
L 73.390654 348.292282 
L 76.171963 346.944429 
L 77.562617 345.752353 
L 83.125234 340.299236 
L 85.906542 338.702492 
L 87.297196 337.426851 
L 91.469159 332.301456 
L 92.859813 330.925192 
L 95.641121 329.013877 
L 97.031776 327.469145 
L 102.594393 320.523147 
L 103.985047 319.324997 
L 105.375701 318.319141 
L 106.766355 316.560778 
L 110.938318 310.367542 
L 112.328972 308.669658 
L 113.719626 307.656926 
L 115.11028 306.482806 
L 116.500935 304.634416 
L 122.063551 296.437377 
L 124.84486 294.087846 
L 126.235514 292.127522 
L 130.407477 285.174023 
L 131.798131 283.329877 
L 133.188785 282.149831 
L 134.579439 280.595339 
L 140.142056 271.380321 
L 141.53271 269.410691 
L 144.314019 266.854058 
L 145.704673 264.654558 
L 148.485981 259.517102 
L 149.876636 256.719152 
L 151.26729 254.296144 
L 152.657944 252.768867 
L 154.048598 250.945914 
L 158.220561 242.225356 
L 161.001869 236.002691 
L 163.783178 231.98106 
L 166.564486 225.249861 
L 170.736449 214.838338 
L 173.517757 210.579314 
L 179.080374 196.916151 
L 180.471028 193.945009 
L 181.861682 192.276267 
L 183.252336 191.265502 
L 184.642991 189.119785 
L 188.814953 177.69829 
L 190.205607 174.302319 
L 191.596262 171.955312 
L 192.986916 169.364847 
L 197.158879 157.577954 
L 198.549533 154.150821 
L 199.940187 151.427385 
L 201.330841 149.600085 
L 202.721495 147.545984 
L 205.502804 142.38291 
L 208.284112 137.559198 
L 209.674766 135.538894 
L 211.065421 134.302911 
L 212.456075 133.21677 
L 215.237383 129.915291 
L 218.018692 126.456946 
L 219.409346 125.060539 
L 222.190654 123.313907 
L 224.971963 120.597501 
L 227.753271 118.32777 
L 229.143925 117.457901 
L 231.925234 116.536198 
L 236.097196 114.276907 
L 237.48785 113.583851 
L 238.878505 113.056467 
L 241.659813 112.513315 
L 247.22243 110.72326 
L 248.613084 110.418304 
L 251.394393 110.090752 
L 256.957009 108.848213 
L 258.347664 108.617631 
L 261.128972 108.370949 
L 266.691589 107.450619 
L 269.472897 107.1887 
L 272.254206 106.913867 
L 277.816822 106.243684 
L 281.988785 105.965911 
L 287.551402 105.458853 
L 293.114019 105.159158 
L 295.895327 105.037038 
L 304.239252 104.897651 
L 332.052336 104.094977 
L 340.396262 103.850528 
L 341.786916 103.821943 
L 341.786916 103.821943 
" clip-path="url(#p786697bf48)" style="fill: none; stroke: #ff7f0e; stroke-width: 1.5; stroke-linecap: square"/>
   </g>
   <g id="line2d_69">
    <path d="M -1 379.742391 
L 2.46729 378.958112 
L 16.373832 377.751193 
L 20.545794 377.100549 
L 26.108411 376.63276 
L 27.499065 376.547815 
L 28.88972 376.206212 
L 30.280374 375.642906 
L 35.842991 374.087983 
L 37.233645 372.787612 
L 38.624299 370.897493 
L 40.014953 370.22325 
L 41.405607 369.681958 
L 42.796262 368.720622 
L 44.186916 368.029259 
L 45.57757 367.493381 
L 46.968224 366.111027 
L 48.358879 364.229575 
L 49.749533 363.307922 
L 51.140187 361.892211 
L 52.530841 359.975921 
L 53.921495 358.750294 
L 56.702804 357.24763 
L 62.265421 352.580969 
L 63.656075 351.628859 
L 66.437383 350.292227 
L 70.609346 346.944995 
L 72 345.842955 
L 73.390654 344.933292 
L 76.171963 343.695211 
L 80.343925 340.40816 
L 83.125234 338.208451 
L 85.906542 336.753098 
L 87.297196 335.564554 
L 88.68785 334.17163 
L 90.078505 332.609196 
L 91.469159 331.254209 
L 92.859813 330.169279 
L 94.250467 329.455564 
L 95.641121 328.606706 
L 98.42243 325.993993 
L 102.594393 321.703591 
L 105.375701 319.653075 
L 108.157009 316.476577 
L 112.328972 311.493621 
L 115.11028 309.506638 
L 119.282243 303.907058 
L 120.672897 301.923365 
L 122.063551 300.162051 
L 124.84486 297.660858 
L 127.626168 293.953685 
L 130.407477 290.414853 
L 131.798131 288.681795 
L 133.188785 287.324478 
L 134.579439 286.267484 
L 135.970093 284.691993 
L 138.751402 281.007073 
L 140.142056 279.281385 
L 141.53271 277.808672 
L 144.314019 275.922273 
L 147.095327 272.974715 
L 149.876636 269.843815 
L 151.26729 268.628458 
L 154.048598 266.900126 
L 158.220561 262.666439 
L 161.001869 259.825261 
L 163.783178 257.764293 
L 166.564486 254.48814 
L 167.95514 252.638106 
L 169.345794 250.983182 
L 173.517757 247.22465 
L 176.299065 243.249169 
L 177.68972 241.11429 
L 180.471028 236.563074 
L 181.861682 234.767987 
L 183.252336 232.789996 
L 186.033645 227.130762 
L 191.596262 215.095016 
L 192.986916 212.437404 
L 195.768224 205.621968 
L 199.940187 194.823831 
L 202.721495 188.827447 
L 206.893458 176.900154 
L 209.674766 168.986457 
L 212.456075 163.230752 
L 215.237383 156.661907 
L 218.018692 150.641258 
L 219.409346 147.936785 
L 223.581308 142.213772 
L 224.971963 140.612346 
L 227.753271 135.905347 
L 229.143925 133.93639 
L 231.925234 131.490767 
L 236.097196 126.836844 
L 237.48785 125.316813 
L 238.878505 124.038454 
L 241.659813 122.477997 
L 244.441121 120.361808 
L 247.22243 118.472874 
L 248.613084 117.741145 
L 251.394393 116.723801 
L 252.785047 115.831743 
L 256.957009 113.745375 
L 258.347664 113.202941 
L 261.128972 112.637811 
L 265.300935 111.464063 
L 268.082243 110.828305 
L 270.863551 110.493667 
L 277.816822 109.182719 
L 280.598131 108.929274 
L 287.551402 107.836125 
L 290.33271 107.63719 
L 294.504673 107.126911 
L 300.06729 106.96525 
L 311.192523 106.665892 
L 316.75514 106.268485 
L 322.317757 106.132381 
L 337.614953 105.527069 
L 341.786916 105.384237 
L 341.786916 105.384237 
" clip-path="url(#p786697bf48)" style="fill: none; stroke: #2ca02c; stroke-width: 1.5; stroke-linecap: square"/>
   </g>
   <g id="line2d_70">
    <path d="M -1 379.216905 
L -0.314019 378.931294 
L 1.076636 378.712315 
L 6.639252 378.679474 
L 8.029907 378.665431 
L 12.201869 378.148758 
L 16.373832 378.125069 
L 17.764486 377.81008 
L 19.15514 377.354178 
L 21.936449 377.28384 
L 27.499065 377.241666 
L 28.88972 376.664331 
L 30.280374 375.828722 
L 31.671028 375.701822 
L 35.842991 375.590326 
L 37.233645 374.091664 
L 38.624299 371.922566 
L 40.014953 371.593157 
L 44.186916 371.586732 
L 45.57757 371.433175 
L 46.968224 369.314983 
L 48.358879 366.248401 
L 49.749533 365.676893 
L 51.140187 364.177281 
L 52.530841 361.568872 
L 53.921495 360.230204 
L 55.31215 359.495218 
L 56.702804 358.929305 
L 58.093458 358.053865 
L 60.874766 355.456733 
L 62.265421 354.134089 
L 63.656075 353.072753 
L 66.437383 351.75416 
L 67.828037 350.814514 
L 70.609346 348.198742 
L 72 346.893182 
L 73.390654 345.850681 
L 74.781308 345.162429 
L 76.171963 344.647193 
L 77.562617 343.855779 
L 83.125234 339.333738 
L 87.297196 337.380266 
L 90.078505 335.763512 
L 91.469159 334.499342 
L 92.859813 333.450639 
L 95.641121 332.113951 
L 97.031776 330.983944 
L 99.813084 327.778238 
L 101.203738 326.136901 
L 102.594393 324.843222 
L 105.375701 323.35345 
L 106.766355 322.140228 
L 112.328972 316.056166 
L 115.11028 314.435314 
L 116.500935 313.111453 
L 120.672897 308.44006 
L 122.063551 307.17176 
L 124.84486 305.587474 
L 126.235514 304.300444 
L 127.626168 302.668426 
L 130.407477 299.102683 
L 131.798131 297.714032 
L 134.579439 295.989995 
L 135.970093 294.67959 
L 138.751402 291.28211 
L 140.142056 289.542207 
L 141.53271 288.125343 
L 144.314019 286.190962 
L 145.704673 284.785323 
L 151.26729 278.11972 
L 154.048598 276.110915 
L 155.439252 274.699567 
L 159.611215 269.764427 
L 161.001869 268.387197 
L 163.783178 266.37204 
L 166.564486 263.360406 
L 169.345794 260.083589 
L 170.736449 258.717853 
L 173.517757 256.729772 
L 174.908411 255.340186 
L 177.68972 252.02932 
L 179.080374 250.285802 
L 180.471028 248.804154 
L 181.861682 247.716995 
L 183.252336 246.847448 
L 184.642991 245.674043 
L 186.033645 243.753371 
L 188.814953 239.373283 
L 190.205607 237.491527 
L 192.986916 234.190466 
L 199.940187 223.80641 
L 202.721495 221.119533 
L 205.502804 217.403869 
L 208.284112 213.37286 
L 209.674766 211.633121 
L 212.456075 209.039663 
L 215.237383 205.558988 
L 218.018692 201.844757 
L 219.409346 200.462074 
L 220.8 199.408493 
L 222.190654 198.148342 
L 226.362617 193.071809 
L 227.753271 191.457387 
L 229.143925 190.102737 
L 230.534579 189.173932 
L 231.925234 188.102879 
L 234.706542 185.180529 
L 238.878505 180.448088 
L 240.269159 179.385425 
L 241.659813 178.109517 
L 245.831776 173.390049 
L 247.22243 171.891121 
L 248.613084 170.646742 
L 250.003738 169.911685 
L 251.394393 168.906214 
L 252.785047 167.23236 
L 255.566355 164.55414 
L 256.957009 163.336377 
L 258.347664 162.337178 
L 259.738318 161.67298 
L 261.128972 160.878179 
L 263.91028 158.608104 
L 268.082243 154.639729 
L 270.863551 152.788153 
L 273.64486 149.947127 
L 275.035514 148.405503 
L 276.426168 147.04139 
L 277.816822 146.051841 
L 279.207477 145.434255 
L 280.598131 144.392223 
L 281.988785 142.549743 
L 286.160748 137.63884 
L 287.551402 136.224257 
L 291.723364 133.615148 
L 294.504673 131.887487 
L 295.895327 131.440336 
L 297.285981 131.36428 
L 298.676636 131.113233 
L 300.06729 130.720437 
L 301.457944 130.559779 
L 302.848598 130.26625 
L 304.239252 129.711345 
L 305.629907 129.295267 
L 307.020561 129.220655 
L 308.411215 128.977413 
L 312.583178 127.689998 
L 315.364486 126.380684 
L 316.75514 125.854475 
L 319.536449 125.177567 
L 326.48972 122.841138 
L 330.661682 122.262146 
L 334.833645 121.48471 
L 337.614953 121.250042 
L 341.786916 120.835585 
L 341.786916 120.835585 
" clip-path="url(#p786697bf48)" style="fill: none; stroke: #d62728; stroke-width: 1.5; stroke-linecap: square"/>
   </g>
   <g id="line2d_71">
    <path d="M -1 377.979307 
L 1.076636 377.544626 
L 5.248598 376.718248 
L 8.029907 376.667365 
L 9.420561 376.441102 
L 10.811215 376.011185 
L 12.201869 375.70121 
L 13.592523 375.519432 
L 14.983178 375.479638 
L 19.15514 374.780131 
L 26.108411 373.450846 
L 27.499065 373.236562 
L 30.280374 372.441543 
L 31.671028 371.990921 
L 34.452336 371.317298 
L 35.842991 370.821277 
L 37.233645 370.4946 
L 40.014953 369.449135 
L 41.405607 368.808386 
L 44.186916 367.927849 
L 45.57757 367.304209 
L 48.358879 366.470639 
L 51.140187 365.153891 
L 53.921495 363.719729 
L 56.702804 362.831036 
L 59.484112 361.413387 
L 62.265421 359.919982 
L 63.656075 359.320835 
L 66.437383 358.398148 
L 67.828037 357.53114 
L 70.609346 355.498316 
L 72 354.614577 
L 73.390654 353.91176 
L 76.171963 352.776255 
L 77.562617 351.817121 
L 81.734579 348.390088 
L 83.125234 347.52845 
L 84.515888 346.888911 
L 85.906542 346.043305 
L 92.859813 339.5445 
L 94.250467 338.766418 
L 95.641121 337.825299 
L 98.42243 334.91732 
L 101.203738 331.905604 
L 102.594393 330.655566 
L 103.985047 329.742064 
L 105.375701 328.652747 
L 108.157009 325.473515 
L 110.938318 322.065358 
L 112.328972 320.667344 
L 113.719626 319.654713 
L 115.11028 318.414967 
L 117.891589 314.934568 
L 120.672897 311.264559 
L 122.063551 309.670019 
L 124.84486 307.14638 
L 127.626168 303.512876 
L 130.407477 299.775748 
L 131.798131 298.175214 
L 134.579439 296.197892 
L 135.970093 294.871818 
L 141.53271 288.688985 
L 144.314019 286.639343 
L 147.095327 283.256168 
L 149.876636 279.661629 
L 151.26729 278.16562 
L 154.048598 275.933095 
L 158.220561 271.213499 
L 159.611215 269.57644 
L 161.001869 268.139429 
L 163.783178 265.835055 
L 166.564486 262.981264 
L 170.736449 258.623291 
L 172.127103 257.738726 
L 173.517757 256.992482 
L 174.908411 255.950761 
L 177.68972 252.649782 
L 179.080374 250.945633 
L 180.471028 249.458584 
L 183.252336 247.02149 
L 186.033645 243.901332 
L 190.205607 238.984878 
L 192.986916 236.509861 
L 194.37757 234.859172 
L 198.549533 228.93222 
L 199.940187 227.279283 
L 202.721495 224.691869 
L 205.502804 221.454933 
L 209.674766 215.984865 
L 212.456075 213.37267 
L 216.628037 207.917235 
L 219.409346 204.152304 
L 222.190654 201.437137 
L 223.581308 199.772919 
L 226.362617 196.821897 
L 229.143925 193.090216 
L 231.925234 190.621711 
L 238.878505 182.904705 
L 241.659813 180.826888 
L 248.613084 173.542624 
L 251.394393 171.782333 
L 255.566355 167.783792 
L 256.957009 166.451785 
L 258.347664 165.293634 
L 261.128972 163.610374 
L 265.300935 159.688241 
L 266.691589 158.467668 
L 268.082243 157.43988 
L 270.863551 156.063201 
L 276.426168 151.950138 
L 277.816822 151.095109 
L 280.598131 149.904462 
L 287.551402 144.985589 
L 290.33271 143.887725 
L 294.504673 141.17361 
L 295.895327 140.682366 
L 297.285981 140.602356 
L 298.676636 140.379971 
L 302.848598 139.070154 
L 304.239252 138.166512 
L 305.629907 137.607371 
L 307.020561 137.512129 
L 308.411215 137.203358 
L 311.192523 136.018731 
L 316.75514 132.312683 
L 319.536449 131.236538 
L 325.099065 127.903512 
L 326.48972 127.196171 
L 329.271028 126.345221 
L 332.052336 124.90056 
L 334.833645 123.211609 
L 336.224299 122.549582 
L 339.005607 121.648477 
L 340.396262 120.91753 
L 341.786916 120.417336 
L 341.786916 120.417336 
" clip-path="url(#p786697bf48)" style="fill: none; stroke: #9467bd; stroke-width: 1.5; stroke-linecap: square"/>
   </g>
   <g id="line2d_72">
    <path d="M -1 377.90335 
L -0.314019 377.441835 
L 1.076636 376.845777 
L 3.857944 376.755103 
L 8.029907 376.724131 
L 9.420561 376.300154 
L 10.811215 375.686508 
L 13.592523 375.591832 
L 16.373832 375.549112 
L 17.764486 374.964304 
L 19.15514 374.117877 
L 20.545794 373.989335 
L 27.499065 373.939063 
L 28.88972 373.278914 
L 30.280374 372.323444 
L 31.671028 372.178343 
L 35.842991 372.081979 
L 37.233645 370.794458 
L 38.624299 368.930956 
L 40.014953 368.647956 
L 44.186916 368.642489 
L 45.57757 368.517611 
L 46.968224 366.795019 
L 48.358879 364.301158 
L 49.749533 363.836163 
L 51.140187 362.609821 
L 52.530841 360.430274 
L 53.921495 359.302634 
L 56.702804 358.142704 
L 58.093458 357.207289 
L 60.874766 354.795311 
L 62.265421 353.584754 
L 63.656075 352.603678 
L 66.437383 351.210326 
L 67.828037 350.124694 
L 73.390654 345.320643 
L 76.171963 344.017077 
L 77.562617 343.014499 
L 80.343925 340.347377 
L 81.734579 339.038879 
L 83.125234 338.002876 
L 84.515888 337.312834 
L 85.906542 336.495654 
L 87.297196 335.288187 
L 91.469159 331.084426 
L 92.859813 330.04095 
L 94.250467 329.426459 
L 95.641121 328.645962 
L 97.031776 327.397596 
L 102.594393 321.691312 
L 105.375701 319.984476 
L 106.766355 318.556403 
L 109.547664 315.017582 
L 110.938318 313.203423 
L 112.328972 311.81728 
L 113.719626 310.984947 
L 115.11028 309.986926 
L 116.500935 308.361055 
L 122.063551 301.23437 
L 124.84486 299.286182 
L 126.235514 297.54802 
L 130.407477 291.404299 
L 131.798131 289.724902 
L 134.579439 287.500897 
L 137.360748 283.986359 
L 140.142056 280.221812 
L 141.53271 278.790617 
L 144.314019 277.159089 
L 145.704673 275.809786 
L 149.876636 270.678337 
L 151.26729 269.370134 
L 152.657944 268.529022 
L 154.048598 267.468051 
L 156.829907 264.129697 
L 159.611215 260.787546 
L 161.001869 259.420664 
L 162.392523 258.473199 
L 163.783178 257.363568 
L 166.564486 254.034047 
L 169.345794 250.506832 
L 170.736449 248.989368 
L 173.517757 246.74117 
L 176.299065 243.481663 
L 179.080374 239.923202 
L 180.471028 238.461533 
L 181.861682 237.43388 
L 183.252336 236.636409 
L 184.642991 235.465022 
L 190.205607 228.178961 
L 192.986916 225.652496 
L 194.37757 223.843113 
L 198.549533 217.916188 
L 199.940187 216.356974 
L 201.330841 215.245892 
L 202.721495 213.977949 
L 205.502804 210.196951 
L 208.284112 206.367703 
L 209.674766 204.713162 
L 212.456075 202.128465 
L 213.846729 200.32359 
L 219.409346 192.06669 
L 222.190654 189.243859 
L 224.971963 185.217875 
L 227.753271 181.020091 
L 229.143925 179.182825 
L 231.925234 176.444235 
L 237.48785 169.370884 
L 238.878505 167.790293 
L 241.659813 165.335628 
L 245.831776 160.205397 
L 248.613084 156.904467 
L 251.394393 154.69165 
L 256.957009 148.352433 
L 258.347664 147.082594 
L 261.128972 145.315388 
L 265.300935 141.540958 
L 266.691589 140.437704 
L 268.082243 139.478532 
L 270.863551 138.195478 
L 273.64486 136.147696 
L 276.426168 134.002979 
L 277.816822 133.10581 
L 280.598131 131.834874 
L 283.379439 129.708322 
L 286.160748 127.549627 
L 287.551402 126.716176 
L 290.33271 125.551081 
L 293.114019 123.885622 
L 294.504673 123.227244 
L 295.895327 122.860727 
L 298.676636 122.680827 
L 302.848598 122.036335 
L 304.239252 121.568634 
L 305.629907 121.287054 
L 308.411215 121.112028 
L 309.801869 120.875324 
L 311.192523 120.502251 
L 313.973832 119.195561 
L 315.364486 118.658732 
L 316.75514 118.24144 
L 319.536449 117.787445 
L 325.099065 116.294608 
L 326.48972 116.03954 
L 329.271028 115.757808 
L 336.224299 114.458217 
L 339.005607 114.196234 
L 341.786916 113.799045 
L 341.786916 113.799045 
" clip-path="url(#p786697bf48)" style="fill: none; stroke: #8c564b; stroke-width: 1.5; stroke-linecap: square"/>
   </g>
   <g id="line2d_73">
    <path d="M -1 372.886608 
L -0.314019 372.095951 
L 1.076636 371.095063 
L 3.857944 370.237896 
L 6.639252 370.17319 
L 8.029907 370.162914 
L 12.201869 369.784881 
L 16.373832 369.731769 
L 17.764486 369.011475 
L 19.15514 367.968953 
L 20.545794 367.810631 
L 27.499065 367.777633 
L 28.88972 367.360483 
L 30.280374 366.756719 
L 33.061682 366.663568 
L 34.452336 366.661823 
L 35.842991 366.432764 
L 37.233645 363.273093 
L 38.624299 358.699922 
L 40.014953 358.00542 
L 44.186916 357.993039 
L 45.57757 357.822693 
L 46.968224 355.472909 
L 48.358879 352.071215 
L 49.749533 351.460265 
L 51.140187 350.117156 
L 52.530841 347.725532 
L 53.921495 346.412222 
L 55.31215 345.736846 
L 56.702804 344.90725 
L 58.093458 343.716007 
L 60.874766 342.366953 
L 62.265421 341.55224 
L 63.656075 339.949713 
L 65.046729 337.980196 
L 66.437383 337.056486 
L 72 332.515024 
L 73.390654 331.642644 
L 74.781308 331.184714 
L 76.171963 330.378306 
L 78.953271 327.60799 
L 80.343925 326.315501 
L 81.734579 325.209559 
L 83.125234 324.344257 
L 84.515888 323.914718 
L 85.906542 323.030842 
L 90.078505 318.120771 
L 91.469159 316.599538 
L 92.859813 315.288749 
L 95.641121 313.43738 
L 97.031776 312.057239 
L 99.813084 308.86553 
L 102.594393 306.173582 
L 105.375701 303.685993 
L 108.157009 299.744344 
L 110.938318 295.222117 
L 112.328972 293.337465 
L 113.719626 291.931513 
L 115.11028 290.751704 
L 116.500935 289.060986 
L 117.891589 287.132028 
L 122.063551 280.895046 
L 123.454206 279.417656 
L 124.84486 278.139977 
L 126.235514 276.412975 
L 127.626168 274.40219 
L 130.407477 269.647935 
L 131.798131 267.605304 
L 133.188785 266.163772 
L 134.579439 265.048457 
L 135.970093 263.168575 
L 137.360748 260.891501 
L 138.751402 258.857607 
L 140.142056 257.055314 
L 141.53271 255.539438 
L 144.314019 253.396348 
L 145.704673 252.285563 
L 147.095327 250.889914 
L 148.485981 249.045378 
L 149.876636 247.387532 
L 151.26729 246.227183 
L 152.657944 245.521535 
L 154.048598 244.624513 
L 156.829907 241.323943 
L 162.392523 235.811293 
L 163.783178 234.264955 
L 165.173832 232.277993 
L 167.95514 227.772891 
L 170.736449 224.160876 
L 172.127103 222.722798 
L 173.517757 221.598801 
L 174.908411 220.055685 
L 177.68972 216.157534 
L 179.080374 214.156768 
L 180.471028 212.950518 
L 181.861682 212.222724 
L 183.252336 210.545074 
L 184.642991 207.717265 
L 188.814953 201.44658 
L 190.205607 199.563047 
L 191.596262 198.149353 
L 192.986916 196.985721 
L 194.37757 195.420448 
L 195.768224 193.42476 
L 198.549533 189.200345 
L 199.940187 187.680411 
L 202.721495 185.190675 
L 208.284112 178.496408 
L 209.674766 177.171649 
L 212.456075 174.989881 
L 218.018692 168.943995 
L 222.190654 165.046339 
L 223.581308 163.430299 
L 227.753271 157.585524 
L 229.143925 155.835429 
L 231.925234 152.688862 
L 234.706542 148.176401 
L 237.48785 144.600051 
L 238.878505 143.140246 
L 241.659813 140.770017 
L 244.441121 137.457245 
L 247.22243 134.77427 
L 248.613084 133.253158 
L 251.394393 131.958602 
L 254.175701 129.53888 
L 256.957009 127.255714 
L 258.347664 126.356711 
L 261.128972 125.096265 
L 266.691589 121.596511 
L 268.082243 120.956842 
L 270.863551 120.124015 
L 273.64486 118.503369 
L 275.035514 117.549458 
L 276.426168 116.459419 
L 277.816822 115.662986 
L 280.598131 114.819619 
L 281.988785 114.193524 
L 283.379439 113.351396 
L 286.160748 111.357586 
L 287.551402 110.722143 
L 290.33271 109.950186 
L 293.114019 108.635925 
L 294.504673 107.944464 
L 295.895327 107.445511 
L 298.676636 107.203494 
L 300.06729 106.954187 
L 302.848598 106.695705 
L 305.629907 106.074107 
L 308.411215 105.904059 
L 311.192523 105.426038 
L 312.583178 104.911558 
L 313.973832 104.160387 
L 315.364486 103.237238 
L 316.75514 102.585822 
L 320.927103 101.513641 
L 326.48972 99.434786 
L 329.271028 99.203483 
L 332.052336 98.557986 
L 334.833645 97.838353 
L 336.224299 97.613484 
L 339.005607 97.366816 
L 341.786916 97.014445 
L 341.786916 97.014445 
" clip-path="url(#p786697bf48)" style="fill: none; stroke: #e377c2; stroke-width: 1.5; stroke-linecap: square"/>
   </g>
   <g id="line2d_74">
    <path d="M -1 383.70338 
L -0.314019 382.767606 
L 1.076636 381.596401 
L 2.46729 381.421169 
L 8.029907 381.377903 
L 9.420561 380.823873 
L 10.811215 380.021995 
L 12.201869 379.900219 
L 16.373832 379.804212 
L 17.764486 378.516484 
L 19.15514 376.652683 
L 20.545794 376.369638 
L 27.499065 376.287693 
L 28.88972 375.227706 
L 30.280374 373.693527 
L 31.671028 373.46054 
L 34.452336 373.455691 
L 35.842991 373.30708 
L 37.233645 371.257111 
L 38.624299 368.290075 
L 40.014953 367.839488 
L 44.186916 367.83119 
L 45.57757 367.685759 
L 46.968224 365.679656 
L 48.358879 362.775281 
L 49.749533 362.225103 
L 51.140187 360.66485 
L 52.530841 357.768794 
L 53.921495 356.277826 
L 55.31215 355.710631 
L 56.702804 354.552454 
L 58.093458 352.998 
L 63.656075 349.111118 
L 65.046729 348.583606 
L 66.437383 347.507145 
L 67.828037 345.825348 
L 69.218692 344.549395 
L 72 342.567899 
L 73.390654 341.662018 
L 74.781308 341.04721 
L 76.171963 339.041864 
L 77.562617 335.875742 
L 81.734579 331.876795 
L 83.125234 331.151942 
L 84.515888 330.679246 
L 85.906542 328.638688 
L 87.297196 325.324205 
L 88.68785 324.105329 
L 90.078505 323.584101 
L 91.469159 322.322384 
L 92.859813 320.646228 
L 95.641121 318.131848 
L 97.031776 316.254216 
L 98.42243 314.91573 
L 99.813084 313.931951 
L 101.203738 312.784904 
L 102.594393 311.380297 
L 103.985047 310.220021 
L 105.375701 308.860173 
L 109.547664 304.104757 
L 110.938318 301.923462 
L 112.328972 299.448534 
L 113.719626 298.372039 
L 115.11028 297.147574 
L 119.282243 290.327502 
L 120.672897 286.280684 
L 122.063551 283.251522 
L 123.454206 282.095854 
L 124.84486 280.249601 
L 126.235514 277.784838 
L 127.626168 275.965237 
L 130.407477 270.885457 
L 131.798131 269.634316 
L 133.188785 268.851499 
L 134.579439 267.854986 
L 135.970093 265.525671 
L 137.360748 262.069494 
L 138.751402 259.493421 
L 141.53271 255.489359 
L 144.314019 252.416324 
L 145.704673 250.343037 
L 147.095327 247.952426 
L 149.876636 243.771497 
L 152.657944 239.892165 
L 154.048598 238.001594 
L 159.611215 229.146429 
L 161.001869 227.017844 
L 162.392523 225.338018 
L 163.783178 223.882904 
L 165.173832 221.693122 
L 166.564486 219.136602 
L 170.736449 212.489783 
L 173.517757 208.922862 
L 177.68972 202.14776 
L 180.471028 196.818014 
L 181.861682 194.398351 
L 184.642991 190.412068 
L 186.033645 187.479737 
L 188.814953 181.113098 
L 191.596262 175.509926 
L 192.986916 172.852102 
L 194.37757 169.49732 
L 195.768224 165.795163 
L 198.549533 159.75785 
L 201.330841 152.807849 
L 202.721495 149.58649 
L 205.502804 142.345507 
L 209.674766 130.414813 
L 211.065421 127.152418 
L 212.456075 124.232574 
L 213.846729 120.68506 
L 215.237383 117.53676 
L 216.628037 114.886683 
L 218.018692 112.543313 
L 219.409346 110.567266 
L 220.8 109.059773 
L 222.190654 107.741858 
L 223.581308 106.096026 
L 224.971963 104.627139 
L 227.753271 102.146059 
L 229.143925 101.128562 
L 233.315888 98.843105 
L 237.48785 96.498591 
L 238.878505 95.925197 
L 241.659813 95.196851 
L 247.22243 93.032319 
L 248.613084 92.641527 
L 251.394393 92.163134 
L 254.175701 91.327539 
L 258.347664 90.539677 
L 261.128972 90.179781 
L 265.300935 89.481344 
L 269.472897 88.990045 
L 290.33271 87.0994 
L 295.895327 86.730482 
L 304.239252 86.593418 
L 308.411215 86.564284 
L 311.192523 86.511453 
L 315.364486 86.22306 
L 341.786916 85.389487 
L 341.786916 85.389487 
" clip-path="url(#p786697bf48)" style="fill: none; stroke: #7f7f7f; stroke-width: 1.5; stroke-linecap: square"/>
   </g>
   <g id="line2d_75">
    <path d="M -1 381.978067 
L -0.314019 381.384828 
L 3.857944 380.333321 
L 5.248598 380.275172 
L 6.639252 380.086746 
L 8.029907 379.772094 
L 9.420561 379.120542 
L 10.811215 378.067273 
L 13.592523 376.910268 
L 14.983178 376.546485 
L 16.373832 376.476234 
L 17.764486 376.1663 
L 21.936449 374.073333 
L 23.327103 373.287649 
L 24.717757 372.797916 
L 27.499065 372.679083 
L 28.88972 371.886712 
L 30.280374 369.758894 
L 31.671028 367.982437 
L 34.452336 366.59026 
L 35.842991 366.432617 
L 37.233645 365.673955 
L 40.014953 363.285403 
L 41.405607 361.190903 
L 42.796262 360.053461 
L 45.57757 359.79803 
L 46.968224 358.284029 
L 48.358879 356.09179 
L 49.749533 355.634771 
L 51.140187 353.882389 
L 52.530841 350.887583 
L 53.921495 349.662227 
L 55.31215 349.338526 
L 56.702804 348.860642 
L 58.093458 347.779509 
L 60.874766 344.894277 
L 62.265421 343.376634 
L 63.656075 342.318413 
L 65.046729 341.915728 
L 66.437383 341.208839 
L 67.828037 339.582007 
L 72 333.420448 
L 73.390654 332.286174 
L 74.781308 331.920871 
L 76.171963 331.390194 
L 77.562617 330.133509 
L 80.343925 326.463551 
L 81.734579 325.059916 
L 83.125234 324.353551 
L 84.515888 323.932391 
L 85.906542 323.323981 
L 87.297196 321.966339 
L 88.68785 320.77604 
L 90.078505 319.975719 
L 91.469159 318.448799 
L 92.859813 317.163359 
L 94.250467 316.659735 
L 95.641121 316.368956 
L 97.031776 315.680949 
L 98.42243 314.319515 
L 101.203738 311.043606 
L 102.594393 309.757339 
L 105.375701 308.381136 
L 106.766355 307.115222 
L 109.547664 303.880987 
L 110.938318 302.263071 
L 112.328972 301.046924 
L 115.11028 299.773687 
L 116.500935 298.73508 
L 117.891589 297.226613 
L 120.672897 293.470948 
L 122.063551 291.919141 
L 123.454206 290.95785 
L 124.84486 290.20512 
L 126.235514 289.061531 
L 127.626168 287.497455 
L 130.407477 283.948213 
L 131.798131 282.424446 
L 134.579439 280.676351 
L 135.970093 279.189341 
L 138.751402 275.710619 
L 140.142056 274.179701 
L 141.53271 273.052386 
L 142.923364 272.330639 
L 144.314019 271.397194 
L 145.704673 269.829411 
L 149.876636 264.15912 
L 151.26729 262.660664 
L 152.657944 261.816416 
L 154.048598 260.7717 
L 159.611215 254.091895 
L 161.001869 252.677234 
L 163.783178 250.852481 
L 165.173832 249.541648 
L 167.95514 246.071644 
L 169.345794 244.143268 
L 170.736449 242.50472 
L 173.517757 240.717169 
L 174.908411 239.468743 
L 179.080374 234.84241 
L 180.471028 233.78225 
L 183.252336 232.130047 
L 184.642991 230.967774 
L 187.424299 228.165603 
L 188.814953 226.659839 
L 190.205607 225.348214 
L 192.986916 223.88552 
L 194.37757 222.791143 
L 195.768224 221.423069 
L 198.549533 218.302379 
L 199.940187 217.135495 
L 201.330841 216.540489 
L 202.721495 215.797216 
L 205.502804 213.418608 
L 208.284112 210.869883 
L 209.674766 209.860658 
L 212.456075 208.625976 
L 215.237383 206.518596 
L 218.018692 204.059242 
L 219.409346 203.061766 
L 220.8 202.571974 
L 222.190654 201.84148 
L 224.971963 199.428639 
L 226.362617 197.985803 
L 227.753271 195.865544 
L 229.143925 193.539118 
L 230.534579 192.303588 
L 231.925234 190.906606 
L 236.097196 184.598094 
L 237.48785 182.697191 
L 238.878505 181.306189 
L 240.269159 180.608467 
L 241.659813 179.748804 
L 243.050467 178.214389 
L 245.831776 174.75667 
L 247.22243 173.191483 
L 248.613084 172.008988 
L 250.003738 171.462137 
L 251.394393 170.775277 
L 254.175701 168.177161 
L 258.347664 163.80807 
L 259.738318 163.074692 
L 261.128972 162.103244 
L 266.691589 155.904268 
L 268.082243 154.830289 
L 270.863551 153.812429 
L 272.254206 152.78435 
L 275.035514 150.261373 
L 276.426168 148.984343 
L 277.816822 148.087663 
L 279.207477 147.748571 
L 280.598131 147.228114 
L 283.379439 145.170185 
L 286.160748 143.166664 
L 287.551402 142.514652 
L 288.942056 142.237628 
L 290.33271 141.822828 
L 294.504673 139.630841 
L 295.895327 139.165444 
L 298.676636 138.937027 
L 300.06729 138.672566 
L 302.848598 138.438059 
L 305.629907 137.959847 
L 308.411215 137.799503 
L 311.192523 137.333112 
L 313.973832 136.413736 
L 316.75514 135.144499 
L 319.536449 134.597328 
L 322.317757 133.556002 
L 325.099065 132.746469 
L 326.48972 132.488756 
L 329.271028 132.382282 
L 336.224299 130.913714 
L 339.005607 130.80401 
L 341.786916 130.403656 
L 341.786916 130.403656 
" clip-path="url(#p786697bf48)" style="fill: none; stroke: #bcbd22; stroke-width: 1.5; stroke-linecap: square"/>
   </g>
   <g id="patch_3">
    <path d="M 72 384.48 
L 72 51.84 
" style="fill: none; stroke: #000000; stroke-width: 0.8; stroke-linejoin: miter; stroke-linecap: square"/>
   </g>
   <g id="patch_4">
    <path d="M 518.4 384.48 
L 518.4 51.84 
" style="fill: none; stroke: #000000; stroke-width: 0.8; stroke-linejoin: miter; stroke-linecap: square"/>
   </g>
   <g id="patch_5">
    <path d="M 72 384.48 
L 518.4 384.48 
" style="fill: none; stroke: #000000; stroke-width: 0.8; stroke-linejoin: miter; stroke-linecap: square"/>
   </g>
   <g id="patch_6">
    <path d="M 72 51.84 
L 518.4 51.84 
" style="fill: none; stroke: #000000; stroke-width: 0.8; stroke-linejoin: miter; stroke-linecap: square"/>
   </g>
   <g id="text_36">
    <!-- Second dose coverage by state/territory -->
    <g transform="translate(174.173437 45.84)scale(0.12 -0.12)">
     <defs>
      <path id="DejaVuSans-64" d="M 2906 2969 
L 2906 4863 
L 3481 4863 
L 3481 0 
L 2906 0 
L 2906 525 
Q 2725 213 2448 61 
Q 2172 -91 1784 -91 
Q 1150 -91 751 415 
Q 353 922 353 1747 
Q 353 2572 751 3078 
Q 1150 3584 1784 3584 
Q 2172 3584 2448 3432 
Q 2725 3281 2906 2969 
z
M 947 1747 
Q 947 1113 1208 752 
Q 1469 391 1925 391 
Q 2381 391 2643 752 
Q 2906 1113 2906 1747 
Q 2906 2381 2643 2742 
Q 2381 3103 1925 3103 
Q 1469 3103 1208 2742 
Q 947 2381 947 1747 
z
" transform="scale(0.015625)"/>
      <path id="DejaVuSans-73" d="M 2834 3397 
L 2834 2853 
Q 2591 2978 2328 3040 
Q 2066 3103 1784 3103 
Q 1356 3103 1142 2972 
Q 928 2841 928 2578 
Q 928 2378 1081 2264 
Q 1234 2150 1697 2047 
L 1894 2003 
Q 2506 1872 2764 1633 
Q 3022 1394 3022 966 
Q 3022 478 2636 193 
Q 2250 -91 1575 -91 
Q 1294 -91 989 -36 
Q 684 19 347 128 
L 347 722 
Q 666 556 975 473 
Q 1284 391 1588 391 
Q 1994 391 2212 530 
Q 2431 669 2431 922 
Q 2431 1156 2273 1281 
Q 2116 1406 1581 1522 
L 1381 1569 
Q 847 1681 609 1914 
Q 372 2147 372 2553 
Q 372 3047 722 3315 
Q 1072 3584 1716 3584 
Q 2034 3584 2315 3537 
Q 2597 3491 2834 3397 
z
" transform="scale(0.015625)"/>
      <path id="DejaVuSans-2f" d="M 1625 4666 
L 2156 4666 
L 531 -594 
L 0 -594 
L 1625 4666 
z
" transform="scale(0.015625)"/>
     </defs>
     <use xlink:href="#DejaVuSans-53"/>
     <use xlink:href="#DejaVuSans-65" x="63.476562"/>
     <use xlink:href="#DejaVuSans-63" x="125"/>
     <use xlink:href="#DejaVuSans-6f" x="179.980469"/>
     <use xlink:href="#DejaVuSans-6e" x="241.162109"/>
     <use xlink:href="#DejaVuSans-64" x="304.541016"/>
     <use xlink:href="#DejaVuSans-20" x="368.017578"/>
     <use xlink:href="#DejaVuSans-64" x="399.804688"/>
     <use xlink:href="#DejaVuSans-6f" x="463.28125"/>
     <use xlink:href="#DejaVuSans-73" x="524.462891"/>
     <use xlink:href="#DejaVuSans-65" x="576.5625"/>
     <use xlink:href="#DejaVuSans-20" x="638.085938"/>
     <use xlink:href="#DejaVuSans-63" x="669.873047"/>
     <use xlink:href="#DejaVuSans-6f" x="724.853516"/>
     <use xlink:href="#DejaVuSans-76" x="786.035156"/>
     <use xlink:href="#DejaVuSans-65" x="845.214844"/>
     <use xlink:href="#DejaVuSans-72" x="906.738281"/>
     <use xlink:href="#DejaVuSans-61" x="947.851562"/>
     <use xlink:href="#DejaVuSans-67" x="1009.130859"/>
     <use xlink:href="#DejaVuSans-65" x="1072.607422"/>
     <use xlink:href="#DejaVuSans-20" x="1134.130859"/>
     <use xlink:href="#DejaVuSans-62" x="1165.917969"/>
     <use xlink:href="#DejaVuSans-79" x="1229.394531"/>
     <use xlink:href="#DejaVuSans-20" x="1288.574219"/>
     <use xlink:href="#DejaVuSans-73" x="1320.361328"/>
     <use xlink:href="#DejaVuSans-74" x="1372.460938"/>
     <use xlink:href="#DejaVuSans-61" x="1411.669922"/>
     <use xlink:href="#DejaVuSans-74" x="1472.949219"/>
     <use xlink:href="#DejaVuSans-65" x="1512.158203"/>
     <use xlink:href="#DejaVuSans-2f" x="1573.681641"/>
     <use xlink:href="#DejaVuSans-74" x="1607.373047"/>
     <use xlink:href="#DejaVuSans-65" x="1646.582031"/>
     <use xlink:href="#DejaVuSans-72" x="1708.105469"/>
     <use xlink:href="#DejaVuSans-72" x="1747.46875"/>
     <use xlink:href="#DejaVuSans-69" x="1788.582031"/>
     <use xlink:href="#DejaVuSans-74" x="1816.365234"/>
     <use xlink:href="#DejaVuSans-6f" x="1855.574219"/>
     <use xlink:href="#DejaVuSans-72" x="1916.755859"/>
     <use xlink:href="#DejaVuSans-79" x="1957.869141"/>
    </g>
   </g>
   <g id="legend_1">
    <g id="patch_7">
     <path d="M 417.1225 380.48 
L 512.8 380.48 
Q 514.4 380.48 514.4 378.88 
L 514.4 273.9975 
Q 514.4 272.3975 512.8 272.3975 
L 417.1225 272.3975 
Q 415.5225 272.3975 415.5225 273.9975 
L 415.5225 378.88 
Q 415.5225 380.48 417.1225 380.48 
z
" style="fill: #ffffff; opacity: 0.8; stroke: #cccccc; stroke-linejoin: miter"/>
    </g>
    <g id="line2d_76">
     <path d="M 418.7225 278.87625 
L 426.7225 278.87625 
L 434.7225 278.87625 
" style="fill: none; stroke: #1f77b4; stroke-width: 1.5; stroke-linecap: square"/>
    </g>
    <g id="text_37">
     <!-- National (83.5 %) -->
     <g transform="translate(441.1225 281.67625)scale(0.08 -0.08)">
      <defs>
       <path id="DejaVuSans-2e" d="M 684 794 
L 1344 794 
L 1344 0 
L 684 0 
L 684 794 
z
" transform="scale(0.015625)"/>
      </defs>
      <use xlink:href="#DejaVuSans-4e"/>
      <use xlink:href="#DejaVuSans-61" x="74.804688"/>
      <use xlink:href="#DejaVuSans-74" x="136.083984"/>
      <use xlink:href="#DejaVuSans-69" x="175.292969"/>
      <use xlink:href="#DejaVuSans-6f" x="203.076172"/>
      <use xlink:href="#DejaVuSans-6e" x="264.257812"/>
      <use xlink:href="#DejaVuSans-61" x="327.636719"/>
      <use xlink:href="#DejaVuSans-6c" x="388.916016"/>
      <use xlink:href="#DejaVuSans-20" x="416.699219"/>
      <use xlink:href="#DejaVuSans-28" x="448.486328"/>
      <use xlink:href="#DejaVuSans-38" x="487.5"/>
      <use xlink:href="#DejaVuSans-33" x="551.123047"/>
      <use xlink:href="#DejaVuSans-2e" x="614.746094"/>
      <use xlink:href="#DejaVuSans-35" x="646.533203"/>
      <use xlink:href="#DejaVuSans-20" x="710.15625"/>
      <use xlink:href="#DejaVuSans-25" x="741.943359"/>
      <use xlink:href="#DejaVuSans-29" x="836.962891"/>
     </g>
    </g>
    <g id="line2d_77">
     <path d="M 418.7225 290.61875 
L 426.7225 290.61875 
L 434.7225 290.61875 
" style="fill: none; stroke: #ff7f0e; stroke-width: 1.5; stroke-linecap: square"/>
    </g>
    <g id="text_38">
     <!-- NSW (84.4 %) -->
     <g transform="translate(441.1225 293.41875)scale(0.08 -0.08)">
      <defs>
       <path id="DejaVuSans-57" d="M 213 4666 
L 850 4666 
L 1831 722 
L 2809 4666 
L 3519 4666 
L 4500 722 
L 5478 4666 
L 6119 4666 
L 4947 0 
L 4153 0 
L 3169 4050 
L 2175 0 
L 1381 0 
L 213 4666 
z
" transform="scale(0.015625)"/>
      </defs>
      <use xlink:href="#DejaVuSans-4e"/>
      <use xlink:href="#DejaVuSans-53" x="74.804688"/>
      <use xlink:href="#DejaVuSans-57" x="138.28125"/>
      <use xlink:href="#DejaVuSans-20" x="237.158203"/>
      <use xlink:href="#DejaVuSans-28" x="268.945312"/>
      <use xlink:href="#DejaVuSans-38" x="307.958984"/>
      <use xlink:href="#DejaVuSans-34" x="371.582031"/>
      <use xlink:href="#DejaVuSans-2e" x="435.205078"/>
      <use xlink:href="#DejaVuSans-34" x="466.992188"/>
      <use xlink:href="#DejaVuSans-20" x="530.615234"/>
      <use xlink:href="#DejaVuSans-25" x="562.402344"/>
      <use xlink:href="#DejaVuSans-29" x="657.421875"/>
     </g>
    </g>
    <g id="line2d_78">
     <path d="M 418.7225 302.36125 
L 426.7225 302.36125 
L 434.7225 302.36125 
" style="fill: none; stroke: #2ca02c; stroke-width: 1.5; stroke-linecap: square"/>
    </g>
    <g id="text_39">
     <!-- VIC (83.9 %) -->
     <g transform="translate(441.1225 305.16125)scale(0.08 -0.08)">
      <defs>
       <path id="DejaVuSans-49" d="M 628 4666 
L 1259 4666 
L 1259 0 
L 628 0 
L 628 4666 
z
" transform="scale(0.015625)"/>
       <path id="DejaVuSans-43" d="M 4122 4306 
L 4122 3641 
Q 3803 3938 3442 4084 
Q 3081 4231 2675 4231 
Q 1875 4231 1450 3742 
Q 1025 3253 1025 2328 
Q 1025 1406 1450 917 
Q 1875 428 2675 428 
Q 3081 428 3442 575 
Q 3803 722 4122 1019 
L 4122 359 
Q 3791 134 3420 21 
Q 3050 -91 2638 -91 
Q 1578 -91 968 557 
Q 359 1206 359 2328 
Q 359 3453 968 4101 
Q 1578 4750 2638 4750 
Q 3056 4750 3426 4639 
Q 3797 4528 4122 4306 
z
" transform="scale(0.015625)"/>
      </defs>
      <use xlink:href="#DejaVuSans-56"/>
      <use xlink:href="#DejaVuSans-49" x="68.408203"/>
      <use xlink:href="#DejaVuSans-43" x="97.900391"/>
      <use xlink:href="#DejaVuSans-20" x="167.724609"/>
      <use xlink:href="#DejaVuSans-28" x="199.511719"/>
      <use xlink:href="#DejaVuSans-38" x="238.525391"/>
      <use xlink:href="#DejaVuSans-33" x="302.148438"/>
      <use xlink:href="#DejaVuSans-2e" x="365.771484"/>
      <use xlink:href="#DejaVuSans-39" x="397.558594"/>
      <use xlink:href="#DejaVuSans-20" x="461.181641"/>
      <use xlink:href="#DejaVuSans-25" x="492.96875"/>
      <use xlink:href="#DejaVuSans-29" x="587.988281"/>
     </g>
    </g>
    <g id="line2d_79">
     <path d="M 418.7225 314.10375 
L 426.7225 314.10375 
L 434.7225 314.10375 
" style="fill: none; stroke: #d62728; stroke-width: 1.5; stroke-linecap: square"/>
    </g>
    <g id="text_40">
     <!-- QLD (79.3 %) -->
     <g transform="translate(441.1225 316.90375)scale(0.08 -0.08)">
      <defs>
       <path id="DejaVuSans-51" d="M 2522 4238 
Q 1834 4238 1429 3725 
Q 1025 3213 1025 2328 
Q 1025 1447 1429 934 
Q 1834 422 2522 422 
Q 3209 422 3611 934 
Q 4013 1447 4013 2328 
Q 4013 3213 3611 3725 
Q 3209 4238 2522 4238 
z
M 3406 84 
L 4238 -825 
L 3475 -825 
L 2784 -78 
Q 2681 -84 2626 -87 
Q 2572 -91 2522 -91 
Q 1538 -91 948 567 
Q 359 1225 359 2328 
Q 359 3434 948 4092 
Q 1538 4750 2522 4750 
Q 3503 4750 4090 4092 
Q 4678 3434 4678 2328 
Q 4678 1516 4351 937 
Q 4025 359 3406 84 
z
" transform="scale(0.015625)"/>
       <path id="DejaVuSans-4c" d="M 628 4666 
L 1259 4666 
L 1259 531 
L 3531 531 
L 3531 0 
L 628 0 
L 628 4666 
z
" transform="scale(0.015625)"/>
      </defs>
      <use xlink:href="#DejaVuSans-51"/>
      <use xlink:href="#DejaVuSans-4c" x="78.710938"/>
      <use xlink:href="#DejaVuSans-44" x="134.423828"/>
      <use xlink:href="#DejaVuSans-20" x="211.425781"/>
      <use xlink:href="#DejaVuSans-28" x="243.212891"/>
      <use xlink:href="#DejaVuSans-37" x="282.226562"/>
      <use xlink:href="#DejaVuSans-39" x="345.849609"/>
      <use xlink:href="#DejaVuSans-2e" x="409.472656"/>
      <use xlink:href="#DejaVuSans-33" x="441.259766"/>
      <use xlink:href="#DejaVuSans-20" x="504.882812"/>
      <use xlink:href="#DejaVuSans-25" x="536.669922"/>
      <use xlink:href="#DejaVuSans-29" x="631.689453"/>
     </g>
    </g>
    <g id="line2d_80">
     <path d="M 418.7225 325.84625 
L 426.7225 325.84625 
L 434.7225 325.84625 
" style="fill: none; stroke: #9467bd; stroke-width: 1.5; stroke-linecap: square"/>
    </g>
    <g id="text_41">
     <!-- WA (79.4 %) -->
     <g transform="translate(441.1225 328.64625)scale(0.08 -0.08)">
      <use xlink:href="#DejaVuSans-57"/>
      <use xlink:href="#DejaVuSans-41" x="93.376953"/>
      <use xlink:href="#DejaVuSans-20" x="161.785156"/>
      <use xlink:href="#DejaVuSans-28" x="193.572266"/>
      <use xlink:href="#DejaVuSans-37" x="232.585938"/>
      <use xlink:href="#DejaVuSans-39" x="296.208984"/>
      <use xlink:href="#DejaVuSans-2e" x="359.832031"/>
      <use xlink:href="#DejaVuSans-34" x="391.619141"/>
      <use xlink:href="#DejaVuSans-20" x="455.242188"/>
      <use xlink:href="#DejaVuSans-25" x="487.029297"/>
      <use xlink:href="#DejaVuSans-29" x="582.048828"/>
     </g>
    </g>
    <g id="line2d_81">
     <path d="M 418.7225 337.58875 
L 426.7225 337.58875 
L 434.7225 337.58875 
" style="fill: none; stroke: #8c564b; stroke-width: 1.5; stroke-linecap: square"/>
    </g>
    <g id="text_42">
     <!-- SA (81.4 %) -->
     <g transform="translate(441.1225 340.38875)scale(0.08 -0.08)">
      <use xlink:href="#DejaVuSans-53"/>
      <use xlink:href="#DejaVuSans-41" x="65.351562"/>
      <use xlink:href="#DejaVuSans-20" x="133.759766"/>
      <use xlink:href="#DejaVuSans-28" x="165.546875"/>
      <use xlink:href="#DejaVuSans-38" x="204.560547"/>
      <use xlink:href="#DejaVuSans-31" x="268.183594"/>
      <use xlink:href="#DejaVuSans-2e" x="331.806641"/>
      <use xlink:href="#DejaVuSans-34" x="363.59375"/>
      <use xlink:href="#DejaVuSans-20" x="427.216797"/>
      <use xlink:href="#DejaVuSans-25" x="459.003906"/>
      <use xlink:href="#DejaVuSans-29" x="554.023438"/>
     </g>
    </g>
    <g id="line2d_82">
     <path d="M 418.7225 349.33125 
L 426.7225 349.33125 
L 434.7225 349.33125 
" style="fill: none; stroke: #e377c2; stroke-width: 1.5; stroke-linecap: square"/>
    </g>
    <g id="text_43">
     <!-- TAS (86.4 %) -->
     <g transform="translate(441.1225 352.13125)scale(0.08 -0.08)">
      <defs>
       <path id="DejaVuSans-54" d="M -19 4666 
L 3928 4666 
L 3928 4134 
L 2272 4134 
L 2272 0 
L 1638 0 
L 1638 4134 
L -19 4134 
L -19 4666 
z
" transform="scale(0.015625)"/>
      </defs>
      <use xlink:href="#DejaVuSans-54"/>
      <use xlink:href="#DejaVuSans-41" x="53.333984"/>
      <use xlink:href="#DejaVuSans-53" x="121.742188"/>
      <use xlink:href="#DejaVuSans-20" x="185.21875"/>
      <use xlink:href="#DejaVuSans-28" x="217.005859"/>
      <use xlink:href="#DejaVuSans-38" x="256.019531"/>
      <use xlink:href="#DejaVuSans-36" x="319.642578"/>
      <use xlink:href="#DejaVuSans-2e" x="383.265625"/>
      <use xlink:href="#DejaVuSans-34" x="415.052734"/>
      <use xlink:href="#DejaVuSans-20" x="478.675781"/>
      <use xlink:href="#DejaVuSans-25" x="510.462891"/>
      <use xlink:href="#DejaVuSans-29" x="605.482422"/>
     </g>
    </g>
    <g id="line2d_83">
     <path d="M 418.7225 361.07375 
L 426.7225 361.07375 
L 434.7225 361.07375 
" style="fill: none; stroke: #7f7f7f; stroke-width: 1.5; stroke-linecap: square"/>
    </g>
    <g id="text_44">
     <!-- ACT (89.9 %) -->
     <g transform="translate(441.1225 363.87375)scale(0.08 -0.08)">
      <use xlink:href="#DejaVuSans-41"/>
      <use xlink:href="#DejaVuSans-43" x="66.658203"/>
      <use xlink:href="#DejaVuSans-54" x="136.482422"/>
      <use xlink:href="#DejaVuSans-20" x="197.566406"/>
      <use xlink:href="#DejaVuSans-28" x="229.353516"/>
      <use xlink:href="#DejaVuSans-38" x="268.367188"/>
      <use xlink:href="#DejaVuSans-39" x="331.990234"/>
      <use xlink:href="#DejaVuSans-2e" x="395.613281"/>
      <use xlink:href="#DejaVuSans-39" x="427.400391"/>
      <use xlink:href="#DejaVuSans-20" x="491.023438"/>
      <use xlink:href="#DejaVuSans-25" x="522.810547"/>
      <use xlink:href="#DejaVuSans-29" x="617.830078"/>
     </g>
    </g>
    <g id="line2d_84">
     <path d="M 418.7225 372.81625 
L 426.7225 372.81625 
L 434.7225 372.81625 
" style="fill: none; stroke: #bcbd22; stroke-width: 1.5; stroke-linecap: square"/>
    </g>
    <g id="text_45">
     <!-- NT (76.4 %) -->
     <g transform="translate(441.1225 375.61625)scale(0.08 -0.08)">
      <use xlink:href="#DejaVuSans-4e"/>
      <use xlink:href="#DejaVuSans-54" x="74.804688"/>
      <use xlink:href="#DejaVuSans-20" x="135.888672"/>
      <use xlink:href="#DejaVuSans-28" x="167.675781"/>
      <use xlink:href="#DejaVuSans-37" x="206.689453"/>
      <use xlink:href="#DejaVuSans-36" x="270.3125"/>
      <use xlink:href="#DejaVuSans-2e" x="333.935547"/>
      <use xlink:href="#DejaVuSans-34" x="365.722656"/>
      <use xlink:href="#DejaVuSans-20" x="429.345703"/>
      <use xlink:href="#DejaVuSans-25" x="461.132812"/>
      <use xlink:href="#DejaVuSans-29" x="556.152344"/>
     </g>
    </g>
   </g>
  </g>
 </g>
 <defs>
  <clipPath id="p786697bf48">
   <rect x="72" y="51.84" width="446.4" height="332.64"/>
  </clipPath>
 </defs>
</svg>
