<?xml version="1.0" encoding="utf-8" standalone="no"?>
<!DOCTYPE svg PUBLIC "-//W3C//DTD SVG 1.1//EN"
  "http://www.w3.org/Graphics/SVG/1.1/DTD/svg11.dtd">
<svg height="432pt" version="1.1" viewBox="0 0 576 432" width="576pt" xmlns="http://www.w3.org/2000/svg" xmlns:xlink="http://www.w3.org/1999/xlink">
 <metadata>
  <rdf:RDF xmlns:cc="http://creativecommons.org/ns#" xmlns:dc="http://purl.org/dc/elements/1.1/" xmlns:rdf="http://www.w3.org/1999/02/22-rdf-syntax-ns#">
   <cc:Work>
    <dc:type rdf:resource="http://purl.org/dc/dcmitype/StillImage"/>
    <dc:date>2021-10-07T16:53:26.878578</dc:date>
    <dc:format>image/svg+xml</dc:format>
    <dc:creator>
     <cc:Agent>
      <dc:title>Matplotlib v3.4.3, https://matplotlib.org/</dc:title>
     </cc:Agent>
    </dc:creator>
   </cc:Work>
  </rdf:RDF>
 </metadata>
 <defs>
  <style type="text/css">*{stroke-linecap:butt;stroke-linejoin:round;}</style>
 </defs>
 <g id="figure_1">
  <g id="patch_1">
   <path d="M 0 432 
L 576 432 
L 576 0 
L 0 0 
z
" style="fill:#ffffff;"/>
  </g>
  <g id="axes_1">
   <g id="patch_2">
    <path d="M 72 384.48 
L 518.4 384.48 
L 518.4 51.84 
L 72 51.84 
z
" style="fill:#ffffff;"/>
   </g>
   <g id="matplotlib.axis_1">
    <g id="xtick_1">
     <g id="line2d_1">
      <path clip-path="url(#p630a19415f)" d="M 72 384.48 
L 72 51.84 
" style="fill:none;stroke:#000000;stroke-dasharray:0.8,1.32;stroke-dashoffset:0;stroke-opacity:0.5;stroke-width:0.8;"/>
     </g>
     <g id="line2d_2">
      <defs>
       <path d="M 0 0 
L 0 3.5 
" id="md5885a8260" style="stroke:#000000;stroke-width:0.8;"/>
      </defs>
      <g>
       <use style="stroke:#000000;stroke-width:0.8;" x="72" xlink:href="#md5885a8260" y="384.48"/>
      </g>
     </g>
     <g id="text_1">
      <!-- 15 -->
      <g transform="translate(65.6375 399.078438)scale(0.1 -0.1)">
       <defs>
        <path d="M 794 531 
L 1825 531 
L 1825 4091 
L 703 3866 
L 703 4441 
L 1819 4666 
L 2450 4666 
L 2450 531 
L 3481 531 
L 3481 0 
L 794 0 
L 794 531 
z
" id="DejaVuSans-31" transform="scale(0.015625)"/>
        <path d="M 691 4666 
L 3169 4666 
L 3169 4134 
L 1269 4134 
L 1269 2991 
Q 1406 3038 1543 3061 
Q 1681 3084 1819 3084 
Q 2600 3084 3056 2656 
Q 3513 2228 3513 1497 
Q 3513 744 3044 326 
Q 2575 -91 1722 -91 
Q 1428 -91 1123 -41 
Q 819 9 494 109 
L 494 744 
Q 775 591 1075 516 
Q 1375 441 1709 441 
Q 2250 441 2565 725 
Q 2881 1009 2881 1497 
Q 2881 1984 2565 2268 
Q 2250 2553 1709 2553 
Q 1456 2553 1204 2497 
Q 953 2441 691 2322 
L 691 4666 
z
" id="DejaVuSans-35" transform="scale(0.015625)"/>
       </defs>
       <use xlink:href="#DejaVuSans-31"/>
       <use x="63.623047" xlink:href="#DejaVuSans-35"/>
      </g>
     </g>
    </g>
    <g id="xtick_2">
     <g id="line2d_3">
      <path clip-path="url(#p630a19415f)" d="M 116.64 384.48 
L 116.64 51.84 
" style="fill:none;stroke:#000000;stroke-dasharray:0.8,1.32;stroke-dashoffset:0;stroke-opacity:0.5;stroke-width:0.8;"/>
     </g>
     <g id="line2d_4">
      <g>
       <use style="stroke:#000000;stroke-width:0.8;" x="116.64" xlink:href="#md5885a8260" y="384.48"/>
      </g>
     </g>
     <g id="text_2">
      <!-- Aug -->
      <g transform="translate(106.876719 399.078438)scale(0.1 -0.1)">
       <defs>
        <path d="M 2188 4044 
L 1331 1722 
L 3047 1722 
L 2188 4044 
z
M 1831 4666 
L 2547 4666 
L 4325 0 
L 3669 0 
L 3244 1197 
L 1141 1197 
L 716 0 
L 50 0 
L 1831 4666 
z
" id="DejaVuSans-41" transform="scale(0.015625)"/>
        <path d="M 544 1381 
L 544 3500 
L 1119 3500 
L 1119 1403 
Q 1119 906 1312 657 
Q 1506 409 1894 409 
Q 2359 409 2629 706 
Q 2900 1003 2900 1516 
L 2900 3500 
L 3475 3500 
L 3475 0 
L 2900 0 
L 2900 538 
Q 2691 219 2414 64 
Q 2138 -91 1772 -91 
Q 1169 -91 856 284 
Q 544 659 544 1381 
z
M 1991 3584 
L 1991 3584 
z
" id="DejaVuSans-75" transform="scale(0.015625)"/>
        <path d="M 2906 1791 
Q 2906 2416 2648 2759 
Q 2391 3103 1925 3103 
Q 1463 3103 1205 2759 
Q 947 2416 947 1791 
Q 947 1169 1205 825 
Q 1463 481 1925 481 
Q 2391 481 2648 825 
Q 2906 1169 2906 1791 
z
M 3481 434 
Q 3481 -459 3084 -895 
Q 2688 -1331 1869 -1331 
Q 1566 -1331 1297 -1286 
Q 1028 -1241 775 -1147 
L 775 -588 
Q 1028 -725 1275 -790 
Q 1522 -856 1778 -856 
Q 2344 -856 2625 -561 
Q 2906 -266 2906 331 
L 2906 616 
Q 2728 306 2450 153 
Q 2172 0 1784 0 
Q 1141 0 747 490 
Q 353 981 353 1791 
Q 353 2603 747 3093 
Q 1141 3584 1784 3584 
Q 2172 3584 2450 3431 
Q 2728 3278 2906 2969 
L 2906 3500 
L 3481 3500 
L 3481 434 
z
" id="DejaVuSans-67" transform="scale(0.015625)"/>
       </defs>
       <use xlink:href="#DejaVuSans-41"/>
       <use x="68.408203" xlink:href="#DejaVuSans-75"/>
       <use x="131.787109" xlink:href="#DejaVuSans-67"/>
      </g>
     </g>
    </g>
    <g id="xtick_3">
     <g id="line2d_5">
      <path clip-path="url(#p630a19415f)" d="M 153.402353 384.48 
L 153.402353 51.84 
" style="fill:none;stroke:#000000;stroke-dasharray:0.8,1.32;stroke-dashoffset:0;stroke-opacity:0.5;stroke-width:0.8;"/>
     </g>
     <g id="line2d_6">
      <g>
       <use style="stroke:#000000;stroke-width:0.8;" x="153.402353" xlink:href="#md5885a8260" y="384.48"/>
      </g>
     </g>
     <g id="text_3">
      <!-- 15 -->
      <g transform="translate(147.039853 399.078438)scale(0.1 -0.1)">
       <use xlink:href="#DejaVuSans-31"/>
       <use x="63.623047" xlink:href="#DejaVuSans-35"/>
      </g>
     </g>
    </g>
    <g id="xtick_4">
     <g id="line2d_7">
      <path clip-path="url(#p630a19415f)" d="M 198.042353 384.48 
L 198.042353 51.84 
" style="fill:none;stroke:#000000;stroke-dasharray:0.8,1.32;stroke-dashoffset:0;stroke-opacity:0.5;stroke-width:0.8;"/>
     </g>
     <g id="line2d_8">
      <g>
       <use style="stroke:#000000;stroke-width:0.8;" x="198.042353" xlink:href="#md5885a8260" y="384.48"/>
      </g>
     </g>
     <g id="text_4">
      <!-- Sep -->
      <g transform="translate(188.617353 399.078438)scale(0.1 -0.1)">
       <defs>
        <path d="M 3425 4513 
L 3425 3897 
Q 3066 4069 2747 4153 
Q 2428 4238 2131 4238 
Q 1616 4238 1336 4038 
Q 1056 3838 1056 3469 
Q 1056 3159 1242 3001 
Q 1428 2844 1947 2747 
L 2328 2669 
Q 3034 2534 3370 2195 
Q 3706 1856 3706 1288 
Q 3706 609 3251 259 
Q 2797 -91 1919 -91 
Q 1588 -91 1214 -16 
Q 841 59 441 206 
L 441 856 
Q 825 641 1194 531 
Q 1563 422 1919 422 
Q 2459 422 2753 634 
Q 3047 847 3047 1241 
Q 3047 1584 2836 1778 
Q 2625 1972 2144 2069 
L 1759 2144 
Q 1053 2284 737 2584 
Q 422 2884 422 3419 
Q 422 4038 858 4394 
Q 1294 4750 2059 4750 
Q 2388 4750 2728 4690 
Q 3069 4631 3425 4513 
z
" id="DejaVuSans-53" transform="scale(0.015625)"/>
        <path d="M 3597 1894 
L 3597 1613 
L 953 1613 
Q 991 1019 1311 708 
Q 1631 397 2203 397 
Q 2534 397 2845 478 
Q 3156 559 3463 722 
L 3463 178 
Q 3153 47 2828 -22 
Q 2503 -91 2169 -91 
Q 1331 -91 842 396 
Q 353 884 353 1716 
Q 353 2575 817 3079 
Q 1281 3584 2069 3584 
Q 2775 3584 3186 3129 
Q 3597 2675 3597 1894 
z
M 3022 2063 
Q 3016 2534 2758 2815 
Q 2500 3097 2075 3097 
Q 1594 3097 1305 2825 
Q 1016 2553 972 2059 
L 3022 2063 
z
" id="DejaVuSans-65" transform="scale(0.015625)"/>
        <path d="M 1159 525 
L 1159 -1331 
L 581 -1331 
L 581 3500 
L 1159 3500 
L 1159 2969 
Q 1341 3281 1617 3432 
Q 1894 3584 2278 3584 
Q 2916 3584 3314 3078 
Q 3713 2572 3713 1747 
Q 3713 922 3314 415 
Q 2916 -91 2278 -91 
Q 1894 -91 1617 61 
Q 1341 213 1159 525 
z
M 3116 1747 
Q 3116 2381 2855 2742 
Q 2594 3103 2138 3103 
Q 1681 3103 1420 2742 
Q 1159 2381 1159 1747 
Q 1159 1113 1420 752 
Q 1681 391 2138 391 
Q 2594 391 2855 752 
Q 3116 1113 3116 1747 
z
" id="DejaVuSans-70" transform="scale(0.015625)"/>
       </defs>
       <use xlink:href="#DejaVuSans-53"/>
       <use x="63.476562" xlink:href="#DejaVuSans-65"/>
       <use x="125" xlink:href="#DejaVuSans-70"/>
      </g>
     </g>
    </g>
    <g id="xtick_5">
     <g id="line2d_9">
      <path clip-path="url(#p630a19415f)" d="M 234.804706 384.48 
L 234.804706 51.84 
" style="fill:none;stroke:#000000;stroke-dasharray:0.8,1.32;stroke-dashoffset:0;stroke-opacity:0.5;stroke-width:0.8;"/>
     </g>
     <g id="line2d_10">
      <g>
       <use style="stroke:#000000;stroke-width:0.8;" x="234.804706" xlink:href="#md5885a8260" y="384.48"/>
      </g>
     </g>
     <g id="text_5">
      <!-- 15 -->
      <g transform="translate(228.442206 399.078438)scale(0.1 -0.1)">
       <use xlink:href="#DejaVuSans-31"/>
       <use x="63.623047" xlink:href="#DejaVuSans-35"/>
      </g>
     </g>
    </g>
    <g id="xtick_6">
     <g id="line2d_11">
      <path clip-path="url(#p630a19415f)" d="M 276.818824 384.48 
L 276.818824 51.84 
" style="fill:none;stroke:#000000;stroke-dasharray:0.8,1.32;stroke-dashoffset:0;stroke-opacity:0.5;stroke-width:0.8;"/>
     </g>
     <g id="line2d_12">
      <g>
       <use style="stroke:#000000;stroke-width:0.8;" x="276.818824" xlink:href="#md5885a8260" y="384.48"/>
      </g>
     </g>
     <g id="text_6">
      <!-- Oct -->
      <g transform="translate(268.173511 399.078438)scale(0.1 -0.1)">
       <defs>
        <path d="M 2522 4238 
Q 1834 4238 1429 3725 
Q 1025 3213 1025 2328 
Q 1025 1447 1429 934 
Q 1834 422 2522 422 
Q 3209 422 3611 934 
Q 4013 1447 4013 2328 
Q 4013 3213 3611 3725 
Q 3209 4238 2522 4238 
z
M 2522 4750 
Q 3503 4750 4090 4092 
Q 4678 3434 4678 2328 
Q 4678 1225 4090 567 
Q 3503 -91 2522 -91 
Q 1538 -91 948 565 
Q 359 1222 359 2328 
Q 359 3434 948 4092 
Q 1538 4750 2522 4750 
z
" id="DejaVuSans-4f" transform="scale(0.015625)"/>
        <path d="M 3122 3366 
L 3122 2828 
Q 2878 2963 2633 3030 
Q 2388 3097 2138 3097 
Q 1578 3097 1268 2742 
Q 959 2388 959 1747 
Q 959 1106 1268 751 
Q 1578 397 2138 397 
Q 2388 397 2633 464 
Q 2878 531 3122 666 
L 3122 134 
Q 2881 22 2623 -34 
Q 2366 -91 2075 -91 
Q 1284 -91 818 406 
Q 353 903 353 1747 
Q 353 2603 823 3093 
Q 1294 3584 2113 3584 
Q 2378 3584 2631 3529 
Q 2884 3475 3122 3366 
z
" id="DejaVuSans-63" transform="scale(0.015625)"/>
        <path d="M 1172 4494 
L 1172 3500 
L 2356 3500 
L 2356 3053 
L 1172 3053 
L 1172 1153 
Q 1172 725 1289 603 
Q 1406 481 1766 481 
L 2356 481 
L 2356 0 
L 1766 0 
Q 1100 0 847 248 
Q 594 497 594 1153 
L 594 3053 
L 172 3053 
L 172 3500 
L 594 3500 
L 594 4494 
L 1172 4494 
z
" id="DejaVuSans-74" transform="scale(0.015625)"/>
       </defs>
       <use xlink:href="#DejaVuSans-4f"/>
       <use x="78.710938" xlink:href="#DejaVuSans-63"/>
       <use x="133.691406" xlink:href="#DejaVuSans-74"/>
      </g>
     </g>
    </g>
    <g id="xtick_7">
     <g id="line2d_13">
      <path clip-path="url(#p630a19415f)" d="M 313.581176 384.48 
L 313.581176 51.84 
" style="fill:none;stroke:#000000;stroke-dasharray:0.8,1.32;stroke-dashoffset:0;stroke-opacity:0.5;stroke-width:0.8;"/>
     </g>
     <g id="line2d_14">
      <g>
       <use style="stroke:#000000;stroke-width:0.8;" x="313.581176" xlink:href="#md5885a8260" y="384.48"/>
      </g>
     </g>
     <g id="text_7">
      <!-- 15 -->
      <g transform="translate(307.218676 399.078438)scale(0.1 -0.1)">
       <use xlink:href="#DejaVuSans-31"/>
       <use x="63.623047" xlink:href="#DejaVuSans-35"/>
      </g>
     </g>
    </g>
    <g id="xtick_8">
     <g id="line2d_15">
      <path clip-path="url(#p630a19415f)" d="M 358.221176 384.48 
L 358.221176 51.84 
" style="fill:none;stroke:#000000;stroke-dasharray:0.8,1.32;stroke-dashoffset:0;stroke-opacity:0.5;stroke-width:0.8;"/>
     </g>
     <g id="line2d_16">
      <g>
       <use style="stroke:#000000;stroke-width:0.8;" x="358.221176" xlink:href="#md5885a8260" y="384.48"/>
      </g>
     </g>
     <g id="text_8">
      <!-- Nov -->
      <g transform="translate(348.461801 399.078438)scale(0.1 -0.1)">
       <defs>
        <path d="M 628 4666 
L 1478 4666 
L 3547 763 
L 3547 4666 
L 4159 4666 
L 4159 0 
L 3309 0 
L 1241 3903 
L 1241 0 
L 628 0 
L 628 4666 
z
" id="DejaVuSans-4e" transform="scale(0.015625)"/>
        <path d="M 1959 3097 
Q 1497 3097 1228 2736 
Q 959 2375 959 1747 
Q 959 1119 1226 758 
Q 1494 397 1959 397 
Q 2419 397 2687 759 
Q 2956 1122 2956 1747 
Q 2956 2369 2687 2733 
Q 2419 3097 1959 3097 
z
M 1959 3584 
Q 2709 3584 3137 3096 
Q 3566 2609 3566 1747 
Q 3566 888 3137 398 
Q 2709 -91 1959 -91 
Q 1206 -91 779 398 
Q 353 888 353 1747 
Q 353 2609 779 3096 
Q 1206 3584 1959 3584 
z
" id="DejaVuSans-6f" transform="scale(0.015625)"/>
        <path d="M 191 3500 
L 800 3500 
L 1894 563 
L 2988 3500 
L 3597 3500 
L 2284 0 
L 1503 0 
L 191 3500 
z
" id="DejaVuSans-76" transform="scale(0.015625)"/>
       </defs>
       <use xlink:href="#DejaVuSans-4e"/>
       <use x="74.804688" xlink:href="#DejaVuSans-6f"/>
       <use x="135.986328" xlink:href="#DejaVuSans-76"/>
      </g>
     </g>
    </g>
    <g id="xtick_9">
     <g id="line2d_17">
      <path clip-path="url(#p630a19415f)" d="M 394.983529 384.48 
L 394.983529 51.84 
" style="fill:none;stroke:#000000;stroke-dasharray:0.8,1.32;stroke-dashoffset:0;stroke-opacity:0.5;stroke-width:0.8;"/>
     </g>
     <g id="line2d_18">
      <g>
       <use style="stroke:#000000;stroke-width:0.8;" x="394.983529" xlink:href="#md5885a8260" y="384.48"/>
      </g>
     </g>
     <g id="text_9">
      <!-- 15 -->
      <g transform="translate(388.621029 399.078438)scale(0.1 -0.1)">
       <use xlink:href="#DejaVuSans-31"/>
       <use x="63.623047" xlink:href="#DejaVuSans-35"/>
      </g>
     </g>
    </g>
    <g id="xtick_10">
     <g id="line2d_19">
      <path clip-path="url(#p630a19415f)" d="M 436.997647 384.48 
L 436.997647 51.84 
" style="fill:none;stroke:#000000;stroke-dasharray:0.8,1.32;stroke-dashoffset:0;stroke-opacity:0.5;stroke-width:0.8;"/>
     </g>
     <g id="line2d_20">
      <g>
       <use style="stroke:#000000;stroke-width:0.8;" x="436.997647" xlink:href="#md5885a8260" y="384.48"/>
      </g>
     </g>
     <g id="text_10">
      <!-- Dec -->
      <g transform="translate(427.321866 399.078438)scale(0.1 -0.1)">
       <defs>
        <path d="M 1259 4147 
L 1259 519 
L 2022 519 
Q 2988 519 3436 956 
Q 3884 1394 3884 2338 
Q 3884 3275 3436 3711 
Q 2988 4147 2022 4147 
L 1259 4147 
z
M 628 4666 
L 1925 4666 
Q 3281 4666 3915 4102 
Q 4550 3538 4550 2338 
Q 4550 1131 3912 565 
Q 3275 0 1925 0 
L 628 0 
L 628 4666 
z
" id="DejaVuSans-44" transform="scale(0.015625)"/>
       </defs>
       <use xlink:href="#DejaVuSans-44"/>
       <use x="77.001953" xlink:href="#DejaVuSans-65"/>
       <use x="138.525391" xlink:href="#DejaVuSans-63"/>
      </g>
     </g>
    </g>
    <g id="xtick_11">
     <g id="line2d_21">
      <path clip-path="url(#p630a19415f)" d="M 473.76 384.48 
L 473.76 51.84 
" style="fill:none;stroke:#000000;stroke-dasharray:0.8,1.32;stroke-dashoffset:0;stroke-opacity:0.5;stroke-width:0.8;"/>
     </g>
     <g id="line2d_22">
      <g>
       <use style="stroke:#000000;stroke-width:0.8;" x="473.76" xlink:href="#md5885a8260" y="384.48"/>
      </g>
     </g>
     <g id="text_11">
      <!-- 15 -->
      <g transform="translate(467.3975 399.078438)scale(0.1 -0.1)">
       <use xlink:href="#DejaVuSans-31"/>
       <use x="63.623047" xlink:href="#DejaVuSans-35"/>
      </g>
     </g>
    </g>
    <g id="xtick_12">
     <g id="line2d_23">
      <path clip-path="url(#p630a19415f)" d="M 518.4 384.48 
L 518.4 51.84 
" style="fill:none;stroke:#000000;stroke-dasharray:0.8,1.32;stroke-dashoffset:0;stroke-opacity:0.5;stroke-width:0.8;"/>
     </g>
     <g id="line2d_24">
      <g>
       <use style="stroke:#000000;stroke-width:0.8;" x="518.4" xlink:href="#md5885a8260" y="384.48"/>
      </g>
     </g>
     <g id="text_12">
      <!-- Jan -->
      <g transform="translate(510.692188 399.078438)scale(0.1 -0.1)">
       <defs>
        <path d="M 628 4666 
L 1259 4666 
L 1259 325 
Q 1259 -519 939 -900 
Q 619 -1281 -91 -1281 
L -331 -1281 
L -331 -750 
L -134 -750 
Q 284 -750 456 -515 
Q 628 -281 628 325 
L 628 4666 
z
" id="DejaVuSans-4a" transform="scale(0.015625)"/>
        <path d="M 2194 1759 
Q 1497 1759 1228 1600 
Q 959 1441 959 1056 
Q 959 750 1161 570 
Q 1363 391 1709 391 
Q 2188 391 2477 730 
Q 2766 1069 2766 1631 
L 2766 1759 
L 2194 1759 
z
M 3341 1997 
L 3341 0 
L 2766 0 
L 2766 531 
Q 2569 213 2275 61 
Q 1981 -91 1556 -91 
Q 1019 -91 701 211 
Q 384 513 384 1019 
Q 384 1609 779 1909 
Q 1175 2209 1959 2209 
L 2766 2209 
L 2766 2266 
Q 2766 2663 2505 2880 
Q 2244 3097 1772 3097 
Q 1472 3097 1187 3025 
Q 903 2953 641 2809 
L 641 3341 
Q 956 3463 1253 3523 
Q 1550 3584 1831 3584 
Q 2591 3584 2966 3190 
Q 3341 2797 3341 1997 
z
" id="DejaVuSans-61" transform="scale(0.015625)"/>
        <path d="M 3513 2113 
L 3513 0 
L 2938 0 
L 2938 2094 
Q 2938 2591 2744 2837 
Q 2550 3084 2163 3084 
Q 1697 3084 1428 2787 
Q 1159 2491 1159 1978 
L 1159 0 
L 581 0 
L 581 3500 
L 1159 3500 
L 1159 2956 
Q 1366 3272 1645 3428 
Q 1925 3584 2291 3584 
Q 2894 3584 3203 3211 
Q 3513 2838 3513 2113 
z
" id="DejaVuSans-6e" transform="scale(0.015625)"/>
       </defs>
       <use xlink:href="#DejaVuSans-4a"/>
       <use x="29.492188" xlink:href="#DejaVuSans-61"/>
       <use x="90.771484" xlink:href="#DejaVuSans-6e"/>
      </g>
     </g>
    </g>
    <g id="text_13">
     <!-- 2022-Jan -->
     <g transform="translate(473.364062 411.756563)scale(0.1 -0.1)">
      <defs>
       <path d="M 1228 531 
L 3431 531 
L 3431 0 
L 469 0 
L 469 531 
Q 828 903 1448 1529 
Q 2069 2156 2228 2338 
Q 2531 2678 2651 2914 
Q 2772 3150 2772 3378 
Q 2772 3750 2511 3984 
Q 2250 4219 1831 4219 
Q 1534 4219 1204 4116 
Q 875 4013 500 3803 
L 500 4441 
Q 881 4594 1212 4672 
Q 1544 4750 1819 4750 
Q 2544 4750 2975 4387 
Q 3406 4025 3406 3419 
Q 3406 3131 3298 2873 
Q 3191 2616 2906 2266 
Q 2828 2175 2409 1742 
Q 1991 1309 1228 531 
z
" id="DejaVuSans-32" transform="scale(0.015625)"/>
       <path d="M 2034 4250 
Q 1547 4250 1301 3770 
Q 1056 3291 1056 2328 
Q 1056 1369 1301 889 
Q 1547 409 2034 409 
Q 2525 409 2770 889 
Q 3016 1369 3016 2328 
Q 3016 3291 2770 3770 
Q 2525 4250 2034 4250 
z
M 2034 4750 
Q 2819 4750 3233 4129 
Q 3647 3509 3647 2328 
Q 3647 1150 3233 529 
Q 2819 -91 2034 -91 
Q 1250 -91 836 529 
Q 422 1150 422 2328 
Q 422 3509 836 4129 
Q 1250 4750 2034 4750 
z
" id="DejaVuSans-30" transform="scale(0.015625)"/>
       <path d="M 313 2009 
L 1997 2009 
L 1997 1497 
L 313 1497 
L 313 2009 
z
" id="DejaVuSans-2d" transform="scale(0.015625)"/>
      </defs>
      <use xlink:href="#DejaVuSans-32"/>
      <use x="63.623047" xlink:href="#DejaVuSans-30"/>
      <use x="127.246094" xlink:href="#DejaVuSans-32"/>
      <use x="190.869141" xlink:href="#DejaVuSans-32"/>
      <use x="254.492188" xlink:href="#DejaVuSans-2d"/>
      <use x="296.201172" xlink:href="#DejaVuSans-4a"/>
      <use x="325.693359" xlink:href="#DejaVuSans-61"/>
      <use x="386.972656" xlink:href="#DejaVuSans-6e"/>
     </g>
    </g>
   </g>
   <g id="matplotlib.axis_2">
    <g id="ytick_1">
     <g id="line2d_25">
      <path clip-path="url(#p630a19415f)" d="M 72 384.48 
L 518.4 384.48 
" style="fill:none;stroke:#000000;stroke-dasharray:0.8,1.32;stroke-dashoffset:0;stroke-opacity:0.5;stroke-width:0.8;"/>
     </g>
     <g id="line2d_26">
      <defs>
       <path d="M 0 0 
L -3.5 0 
" id="me116099971" style="stroke:#000000;stroke-width:0.8;"/>
      </defs>
      <g>
       <use style="stroke:#000000;stroke-width:0.8;" x="72" xlink:href="#me116099971" y="384.48"/>
      </g>
     </g>
     <g id="text_14">
      <!-- 0 -->
      <g transform="translate(58.6375 388.279219)scale(0.1 -0.1)">
       <use xlink:href="#DejaVuSans-30"/>
      </g>
     </g>
    </g>
    <g id="ytick_2">
     <g id="line2d_27">
      <path clip-path="url(#p630a19415f)" d="M 72 351.216 
L 518.4 351.216 
" style="fill:none;stroke:#000000;stroke-dasharray:0.8,1.32;stroke-dashoffset:0;stroke-opacity:0.5;stroke-width:0.8;"/>
     </g>
     <g id="line2d_28">
      <g>
       <use style="stroke:#000000;stroke-width:0.8;" x="72" xlink:href="#me116099971" y="351.216"/>
      </g>
     </g>
     <g id="text_15">
      <!-- 1 -->
      <g transform="translate(58.6375 355.015219)scale(0.1 -0.1)">
       <use xlink:href="#DejaVuSans-31"/>
      </g>
     </g>
    </g>
    <g id="ytick_3">
     <g id="line2d_29">
      <path clip-path="url(#p630a19415f)" d="M 72 317.952 
L 518.4 317.952 
" style="fill:none;stroke:#000000;stroke-dasharray:0.8,1.32;stroke-dashoffset:0;stroke-opacity:0.5;stroke-width:0.8;"/>
     </g>
     <g id="line2d_30">
      <g>
       <use style="stroke:#000000;stroke-width:0.8;" x="72" xlink:href="#me116099971" y="317.952"/>
      </g>
     </g>
     <g id="text_16">
      <!-- 2 -->
      <g transform="translate(58.6375 321.751219)scale(0.1 -0.1)">
       <use xlink:href="#DejaVuSans-32"/>
      </g>
     </g>
    </g>
    <g id="ytick_4">
     <g id="line2d_31">
      <path clip-path="url(#p630a19415f)" d="M 72 284.688 
L 518.4 284.688 
" style="fill:none;stroke:#000000;stroke-dasharray:0.8,1.32;stroke-dashoffset:0;stroke-opacity:0.5;stroke-width:0.8;"/>
     </g>
     <g id="line2d_32">
      <g>
       <use style="stroke:#000000;stroke-width:0.8;" x="72" xlink:href="#me116099971" y="284.688"/>
      </g>
     </g>
     <g id="text_17">
      <!-- 3 -->
      <g transform="translate(58.6375 288.487219)scale(0.1 -0.1)">
       <defs>
        <path d="M 2597 2516 
Q 3050 2419 3304 2112 
Q 3559 1806 3559 1356 
Q 3559 666 3084 287 
Q 2609 -91 1734 -91 
Q 1441 -91 1130 -33 
Q 819 25 488 141 
L 488 750 
Q 750 597 1062 519 
Q 1375 441 1716 441 
Q 2309 441 2620 675 
Q 2931 909 2931 1356 
Q 2931 1769 2642 2001 
Q 2353 2234 1838 2234 
L 1294 2234 
L 1294 2753 
L 1863 2753 
Q 2328 2753 2575 2939 
Q 2822 3125 2822 3475 
Q 2822 3834 2567 4026 
Q 2313 4219 1838 4219 
Q 1578 4219 1281 4162 
Q 984 4106 628 3988 
L 628 4550 
Q 988 4650 1302 4700 
Q 1616 4750 1894 4750 
Q 2613 4750 3031 4423 
Q 3450 4097 3450 3541 
Q 3450 3153 3228 2886 
Q 3006 2619 2597 2516 
z
" id="DejaVuSans-33" transform="scale(0.015625)"/>
       </defs>
       <use xlink:href="#DejaVuSans-33"/>
      </g>
     </g>
    </g>
    <g id="ytick_5">
     <g id="line2d_33">
      <path clip-path="url(#p630a19415f)" d="M 72 251.424 
L 518.4 251.424 
" style="fill:none;stroke:#000000;stroke-dasharray:0.8,1.32;stroke-dashoffset:0;stroke-opacity:0.5;stroke-width:0.8;"/>
     </g>
     <g id="line2d_34">
      <g>
       <use style="stroke:#000000;stroke-width:0.8;" x="72" xlink:href="#me116099971" y="251.424"/>
      </g>
     </g>
     <g id="text_18">
      <!-- 4 -->
      <g transform="translate(58.6375 255.223219)scale(0.1 -0.1)">
       <defs>
        <path d="M 2419 4116 
L 825 1625 
L 2419 1625 
L 2419 4116 
z
M 2253 4666 
L 3047 4666 
L 3047 1625 
L 3713 1625 
L 3713 1100 
L 3047 1100 
L 3047 0 
L 2419 0 
L 2419 1100 
L 313 1100 
L 313 1709 
L 2253 4666 
z
" id="DejaVuSans-34" transform="scale(0.015625)"/>
       </defs>
       <use xlink:href="#DejaVuSans-34"/>
      </g>
     </g>
    </g>
    <g id="ytick_6">
     <g id="line2d_35">
      <path clip-path="url(#p630a19415f)" d="M 72 218.16 
L 518.4 218.16 
" style="fill:none;stroke:#000000;stroke-dasharray:0.8,1.32;stroke-dashoffset:0;stroke-opacity:0.5;stroke-width:0.8;"/>
     </g>
     <g id="line2d_36">
      <g>
       <use style="stroke:#000000;stroke-width:0.8;" x="72" xlink:href="#me116099971" y="218.16"/>
      </g>
     </g>
     <g id="text_19">
      <!-- 5 -->
      <g transform="translate(58.6375 221.959219)scale(0.1 -0.1)">
       <use xlink:href="#DejaVuSans-35"/>
      </g>
     </g>
    </g>
    <g id="ytick_7">
     <g id="line2d_37">
      <path clip-path="url(#p630a19415f)" d="M 72 184.896 
L 518.4 184.896 
" style="fill:none;stroke:#000000;stroke-dasharray:0.8,1.32;stroke-dashoffset:0;stroke-opacity:0.5;stroke-width:0.8;"/>
     </g>
     <g id="line2d_38">
      <g>
       <use style="stroke:#000000;stroke-width:0.8;" x="72" xlink:href="#me116099971" y="184.896"/>
      </g>
     </g>
     <g id="text_20">
      <!-- 6 -->
      <g transform="translate(58.6375 188.695219)scale(0.1 -0.1)">
       <defs>
        <path d="M 2113 2584 
Q 1688 2584 1439 2293 
Q 1191 2003 1191 1497 
Q 1191 994 1439 701 
Q 1688 409 2113 409 
Q 2538 409 2786 701 
Q 3034 994 3034 1497 
Q 3034 2003 2786 2293 
Q 2538 2584 2113 2584 
z
M 3366 4563 
L 3366 3988 
Q 3128 4100 2886 4159 
Q 2644 4219 2406 4219 
Q 1781 4219 1451 3797 
Q 1122 3375 1075 2522 
Q 1259 2794 1537 2939 
Q 1816 3084 2150 3084 
Q 2853 3084 3261 2657 
Q 3669 2231 3669 1497 
Q 3669 778 3244 343 
Q 2819 -91 2113 -91 
Q 1303 -91 875 529 
Q 447 1150 447 2328 
Q 447 3434 972 4092 
Q 1497 4750 2381 4750 
Q 2619 4750 2861 4703 
Q 3103 4656 3366 4563 
z
" id="DejaVuSans-36" transform="scale(0.015625)"/>
       </defs>
       <use xlink:href="#DejaVuSans-36"/>
      </g>
     </g>
    </g>
    <g id="ytick_8">
     <g id="line2d_39">
      <path clip-path="url(#p630a19415f)" d="M 72 151.632 
L 518.4 151.632 
" style="fill:none;stroke:#000000;stroke-dasharray:0.8,1.32;stroke-dashoffset:0;stroke-opacity:0.5;stroke-width:0.8;"/>
     </g>
     <g id="line2d_40">
      <g>
       <use style="stroke:#000000;stroke-width:0.8;" x="72" xlink:href="#me116099971" y="151.632"/>
      </g>
     </g>
     <g id="text_21">
      <!-- 7 -->
      <g transform="translate(58.6375 155.431219)scale(0.1 -0.1)">
       <defs>
        <path d="M 525 4666 
L 3525 4666 
L 3525 4397 
L 1831 0 
L 1172 0 
L 2766 4134 
L 525 4134 
L 525 4666 
z
" id="DejaVuSans-37" transform="scale(0.015625)"/>
       </defs>
       <use xlink:href="#DejaVuSans-37"/>
      </g>
     </g>
    </g>
    <g id="ytick_9">
     <g id="line2d_41">
      <path clip-path="url(#p630a19415f)" d="M 72 118.368 
L 518.4 118.368 
" style="fill:none;stroke:#000000;stroke-dasharray:0.8,1.32;stroke-dashoffset:0;stroke-opacity:0.5;stroke-width:0.8;"/>
     </g>
     <g id="line2d_42">
      <g>
       <use style="stroke:#000000;stroke-width:0.8;" x="72" xlink:href="#me116099971" y="118.368"/>
      </g>
     </g>
     <g id="text_22">
      <!-- 8 -->
      <g transform="translate(58.6375 122.167219)scale(0.1 -0.1)">
       <defs>
        <path d="M 2034 2216 
Q 1584 2216 1326 1975 
Q 1069 1734 1069 1313 
Q 1069 891 1326 650 
Q 1584 409 2034 409 
Q 2484 409 2743 651 
Q 3003 894 3003 1313 
Q 3003 1734 2745 1975 
Q 2488 2216 2034 2216 
z
M 1403 2484 
Q 997 2584 770 2862 
Q 544 3141 544 3541 
Q 544 4100 942 4425 
Q 1341 4750 2034 4750 
Q 2731 4750 3128 4425 
Q 3525 4100 3525 3541 
Q 3525 3141 3298 2862 
Q 3072 2584 2669 2484 
Q 3125 2378 3379 2068 
Q 3634 1759 3634 1313 
Q 3634 634 3220 271 
Q 2806 -91 2034 -91 
Q 1263 -91 848 271 
Q 434 634 434 1313 
Q 434 1759 690 2068 
Q 947 2378 1403 2484 
z
M 1172 3481 
Q 1172 3119 1398 2916 
Q 1625 2713 2034 2713 
Q 2441 2713 2670 2916 
Q 2900 3119 2900 3481 
Q 2900 3844 2670 4047 
Q 2441 4250 2034 4250 
Q 1625 4250 1398 4047 
Q 1172 3844 1172 3481 
z
" id="DejaVuSans-38" transform="scale(0.015625)"/>
       </defs>
       <use xlink:href="#DejaVuSans-38"/>
      </g>
     </g>
    </g>
    <g id="ytick_10">
     <g id="line2d_43">
      <path clip-path="url(#p630a19415f)" d="M 72 85.104 
L 518.4 85.104 
" style="fill:none;stroke:#000000;stroke-dasharray:0.8,1.32;stroke-dashoffset:0;stroke-opacity:0.5;stroke-width:0.8;"/>
     </g>
     <g id="line2d_44">
      <g>
       <use style="stroke:#000000;stroke-width:0.8;" x="72" xlink:href="#me116099971" y="85.104"/>
      </g>
     </g>
     <g id="text_23">
      <!-- 9 -->
      <g transform="translate(58.6375 88.903219)scale(0.1 -0.1)">
       <defs>
        <path d="M 703 97 
L 703 672 
Q 941 559 1184 500 
Q 1428 441 1663 441 
Q 2288 441 2617 861 
Q 2947 1281 2994 2138 
Q 2813 1869 2534 1725 
Q 2256 1581 1919 1581 
Q 1219 1581 811 2004 
Q 403 2428 403 3163 
Q 403 3881 828 4315 
Q 1253 4750 1959 4750 
Q 2769 4750 3195 4129 
Q 3622 3509 3622 2328 
Q 3622 1225 3098 567 
Q 2575 -91 1691 -91 
Q 1453 -91 1209 -44 
Q 966 3 703 97 
z
M 1959 2075 
Q 2384 2075 2632 2365 
Q 2881 2656 2881 3163 
Q 2881 3666 2632 3958 
Q 2384 4250 1959 4250 
Q 1534 4250 1286 3958 
Q 1038 3666 1038 3163 
Q 1038 2656 1286 2365 
Q 1534 2075 1959 2075 
z
" id="DejaVuSans-39" transform="scale(0.015625)"/>
       </defs>
       <use xlink:href="#DejaVuSans-39"/>
      </g>
     </g>
    </g>
    <g id="ytick_11">
     <g id="line2d_45">
      <path clip-path="url(#p630a19415f)" d="M 72 51.84 
L 518.4 51.84 
" style="fill:none;stroke:#000000;stroke-dasharray:0.8,1.32;stroke-dashoffset:0;stroke-opacity:0.5;stroke-width:0.8;"/>
     </g>
     <g id="line2d_46">
      <g>
       <use style="stroke:#000000;stroke-width:0.8;" x="72" xlink:href="#me116099971" y="51.84"/>
      </g>
     </g>
     <g id="text_24">
      <!-- 10 -->
      <g transform="translate(52.275 55.639219)scale(0.1 -0.1)">
       <use xlink:href="#DejaVuSans-31"/>
       <use x="63.623047" xlink:href="#DejaVuSans-30"/>
      </g>
     </g>
    </g>
    <g id="text_25">
     <!-- Vaccination rate (% of 12+ population / week) -->
     <g transform="translate(46.195312 333.687344)rotate(-90)scale(0.1 -0.1)">
      <defs>
       <path d="M 1831 0 
L 50 4666 
L 709 4666 
L 2188 738 
L 3669 4666 
L 4325 4666 
L 2547 0 
L 1831 0 
z
" id="DejaVuSans-56" transform="scale(0.015625)"/>
       <path d="M 603 3500 
L 1178 3500 
L 1178 0 
L 603 0 
L 603 3500 
z
M 603 4863 
L 1178 4863 
L 1178 4134 
L 603 4134 
L 603 4863 
z
" id="DejaVuSans-69" transform="scale(0.015625)"/>
       <path id="DejaVuSans-20" transform="scale(0.015625)"/>
       <path d="M 2631 2963 
Q 2534 3019 2420 3045 
Q 2306 3072 2169 3072 
Q 1681 3072 1420 2755 
Q 1159 2438 1159 1844 
L 1159 0 
L 581 0 
L 581 3500 
L 1159 3500 
L 1159 2956 
Q 1341 3275 1631 3429 
Q 1922 3584 2338 3584 
Q 2397 3584 2469 3576 
Q 2541 3569 2628 3553 
L 2631 2963 
z
" id="DejaVuSans-72" transform="scale(0.015625)"/>
       <path d="M 1984 4856 
Q 1566 4138 1362 3434 
Q 1159 2731 1159 2009 
Q 1159 1288 1364 580 
Q 1569 -128 1984 -844 
L 1484 -844 
Q 1016 -109 783 600 
Q 550 1309 550 2009 
Q 550 2706 781 3412 
Q 1013 4119 1484 4856 
L 1984 4856 
z
" id="DejaVuSans-28" transform="scale(0.015625)"/>
       <path d="M 4653 2053 
Q 4381 2053 4226 1822 
Q 4072 1591 4072 1178 
Q 4072 772 4226 539 
Q 4381 306 4653 306 
Q 4919 306 5073 539 
Q 5228 772 5228 1178 
Q 5228 1588 5073 1820 
Q 4919 2053 4653 2053 
z
M 4653 2450 
Q 5147 2450 5437 2106 
Q 5728 1763 5728 1178 
Q 5728 594 5436 251 
Q 5144 -91 4653 -91 
Q 4153 -91 3862 251 
Q 3572 594 3572 1178 
Q 3572 1766 3864 2108 
Q 4156 2450 4653 2450 
z
M 1428 4353 
Q 1159 4353 1004 4120 
Q 850 3888 850 3481 
Q 850 3069 1003 2837 
Q 1156 2606 1428 2606 
Q 1700 2606 1854 2837 
Q 2009 3069 2009 3481 
Q 2009 3884 1853 4118 
Q 1697 4353 1428 4353 
z
M 4250 4750 
L 4750 4750 
L 1831 -91 
L 1331 -91 
L 4250 4750 
z
M 1428 4750 
Q 1922 4750 2215 4408 
Q 2509 4066 2509 3481 
Q 2509 2891 2217 2550 
Q 1925 2209 1428 2209 
Q 931 2209 642 2551 
Q 353 2894 353 3481 
Q 353 4063 643 4406 
Q 934 4750 1428 4750 
z
" id="DejaVuSans-25" transform="scale(0.015625)"/>
       <path d="M 2375 4863 
L 2375 4384 
L 1825 4384 
Q 1516 4384 1395 4259 
Q 1275 4134 1275 3809 
L 1275 3500 
L 2222 3500 
L 2222 3053 
L 1275 3053 
L 1275 0 
L 697 0 
L 697 3053 
L 147 3053 
L 147 3500 
L 697 3500 
L 697 3744 
Q 697 4328 969 4595 
Q 1241 4863 1831 4863 
L 2375 4863 
z
" id="DejaVuSans-66" transform="scale(0.015625)"/>
       <path d="M 2944 4013 
L 2944 2272 
L 4684 2272 
L 4684 1741 
L 2944 1741 
L 2944 0 
L 2419 0 
L 2419 1741 
L 678 1741 
L 678 2272 
L 2419 2272 
L 2419 4013 
L 2944 4013 
z
" id="DejaVuSans-2b" transform="scale(0.015625)"/>
       <path d="M 603 4863 
L 1178 4863 
L 1178 0 
L 603 0 
L 603 4863 
z
" id="DejaVuSans-6c" transform="scale(0.015625)"/>
       <path d="M 1625 4666 
L 2156 4666 
L 531 -594 
L 0 -594 
L 1625 4666 
z
" id="DejaVuSans-2f" transform="scale(0.015625)"/>
       <path d="M 269 3500 
L 844 3500 
L 1563 769 
L 2278 3500 
L 2956 3500 
L 3675 769 
L 4391 3500 
L 4966 3500 
L 4050 0 
L 3372 0 
L 2619 2869 
L 1863 0 
L 1184 0 
L 269 3500 
z
" id="DejaVuSans-77" transform="scale(0.015625)"/>
       <path d="M 581 4863 
L 1159 4863 
L 1159 1991 
L 2875 3500 
L 3609 3500 
L 1753 1863 
L 3688 0 
L 2938 0 
L 1159 1709 
L 1159 0 
L 581 0 
L 581 4863 
z
" id="DejaVuSans-6b" transform="scale(0.015625)"/>
       <path d="M 513 4856 
L 1013 4856 
Q 1481 4119 1714 3412 
Q 1947 2706 1947 2009 
Q 1947 1309 1714 600 
Q 1481 -109 1013 -844 
L 513 -844 
Q 928 -128 1133 580 
Q 1338 1288 1338 2009 
Q 1338 2731 1133 3434 
Q 928 4138 513 4856 
z
" id="DejaVuSans-29" transform="scale(0.015625)"/>
      </defs>
      <use xlink:href="#DejaVuSans-56"/>
      <use x="60.658203" xlink:href="#DejaVuSans-61"/>
      <use x="121.9375" xlink:href="#DejaVuSans-63"/>
      <use x="176.917969" xlink:href="#DejaVuSans-63"/>
      <use x="231.898438" xlink:href="#DejaVuSans-69"/>
      <use x="259.681641" xlink:href="#DejaVuSans-6e"/>
      <use x="323.060547" xlink:href="#DejaVuSans-61"/>
      <use x="384.339844" xlink:href="#DejaVuSans-74"/>
      <use x="423.548828" xlink:href="#DejaVuSans-69"/>
      <use x="451.332031" xlink:href="#DejaVuSans-6f"/>
      <use x="512.513672" xlink:href="#DejaVuSans-6e"/>
      <use x="575.892578" xlink:href="#DejaVuSans-20"/>
      <use x="607.679688" xlink:href="#DejaVuSans-72"/>
      <use x="648.792969" xlink:href="#DejaVuSans-61"/>
      <use x="710.072266" xlink:href="#DejaVuSans-74"/>
      <use x="749.28125" xlink:href="#DejaVuSans-65"/>
      <use x="810.804688" xlink:href="#DejaVuSans-20"/>
      <use x="842.591797" xlink:href="#DejaVuSans-28"/>
      <use x="881.605469" xlink:href="#DejaVuSans-25"/>
      <use x="976.625" xlink:href="#DejaVuSans-20"/>
      <use x="1008.412109" xlink:href="#DejaVuSans-6f"/>
      <use x="1069.59375" xlink:href="#DejaVuSans-66"/>
      <use x="1104.798828" xlink:href="#DejaVuSans-20"/>
      <use x="1136.585938" xlink:href="#DejaVuSans-31"/>
      <use x="1200.208984" xlink:href="#DejaVuSans-32"/>
      <use x="1263.832031" xlink:href="#DejaVuSans-2b"/>
      <use x="1347.621094" xlink:href="#DejaVuSans-20"/>
      <use x="1379.408203" xlink:href="#DejaVuSans-70"/>
      <use x="1442.884766" xlink:href="#DejaVuSans-6f"/>
      <use x="1504.066406" xlink:href="#DejaVuSans-70"/>
      <use x="1567.542969" xlink:href="#DejaVuSans-75"/>
      <use x="1630.921875" xlink:href="#DejaVuSans-6c"/>
      <use x="1658.705078" xlink:href="#DejaVuSans-61"/>
      <use x="1719.984375" xlink:href="#DejaVuSans-74"/>
      <use x="1759.193359" xlink:href="#DejaVuSans-69"/>
      <use x="1786.976562" xlink:href="#DejaVuSans-6f"/>
      <use x="1848.158203" xlink:href="#DejaVuSans-6e"/>
      <use x="1911.537109" xlink:href="#DejaVuSans-20"/>
      <use x="1943.324219" xlink:href="#DejaVuSans-2f"/>
      <use x="1977.015625" xlink:href="#DejaVuSans-20"/>
      <use x="2008.802734" xlink:href="#DejaVuSans-77"/>
      <use x="2090.589844" xlink:href="#DejaVuSans-65"/>
      <use x="2152.113281" xlink:href="#DejaVuSans-65"/>
      <use x="2213.636719" xlink:href="#DejaVuSans-6b"/>
      <use x="2271.546875" xlink:href="#DejaVuSans-29"/>
     </g>
    </g>
   </g>
   <g id="line2d_47">
    <path clip-path="url(#p630a19415f)" d="M -1 297.681032 
L 1.101176 299.014576 
L 3.727059 301.008244 
L 6.352941 306.704667 
L 8.978824 314.630367 
L 11.604706 317.697123 
L 14.230588 317.812 
L 16.856471 319.020519 
L 19.482353 320.408138 
L 22.108235 320.907973 
L 24.734118 321.602509 
L 27.36 323.065736 
L 29.985882 324.665352 
L 32.611765 330.503059 
L 35.237647 341.883086 
L 37.863529 350.083238 
L 40.489412 351.47123 
L 43.115294 345.615508 
L 45.741176 335.977258 
L 48.367059 332.450838 
L 50.992941 330.569615 
L 53.618824 323.57449 
L 56.244706 318.202492 
L 58.870588 316.633376 
L 61.496471 316.10086 
L 66.748235 315.22418 
L 69.374118 314.543799 
L 79.877647 311.093892 
L 82.503529 309.670113 
L 85.129412 307.908076 
L 87.755294 305.742635 
L 90.381176 303.398494 
L 93.007059 301.276811 
L 95.632941 299.653868 
L 98.258824 298.498741 
L 100.884706 297.530025 
L 103.510588 296.413312 
L 108.762353 293.908832 
L 111.388235 292.973728 
L 114.014118 292.538726 
L 116.64 292.363485 
L 119.265882 291.884932 
L 121.891765 291.000394 
L 124.517647 289.875091 
L 135.021176 283.017305 
L 137.647059 280.379541 
L 142.898824 273.530196 
L 148.150588 267.660517 
L 150.776471 264.968958 
L 153.402353 262.033877 
L 158.654118 255.161288 
L 171.783529 236.575535 
L 174.409412 233.343776 
L 177.035294 230.534556 
L 179.661176 228.474547 
L 182.287059 227.212498 
L 184.912941 225.763518 
L 187.538824 223.802015 
L 190.164706 222.273789 
L 192.790588 221.37555 
L 195.416471 220.176396 
L 198.042353 219.153308 
L 200.668235 218.842704 
L 203.294118 219.049993 
L 205.92 219.995934 
L 208.545882 222.074709 
L 211.171765 225.0678 
L 213.797647 228.455329 
L 216.423529 230.923931 
L 219.049412 232.359968 
L 221.675294 234.149177 
L 224.301176 235.752237 
L 226.927059 234.893742 
L 229.552941 231.839383 
L 232.178824 230.123815 
L 237.430588 230.712961 
L 240.056471 229.514465 
L 242.682353 227.462072 
L 245.308235 226.158502 
L 247.934118 226.038921 
L 250.56 225.344644 
L 253.185882 223.728298 
L 255.811765 223.030239 
L 258.437647 224.562371 
L 261.063529 227.466027 
L 266.315294 234.27345 
L 271.567059 240.430223 
L 274.192941 242.890523 
L 276.818824 244.63614 
L 279.444706 246.813651 
L 282.070588 250.692157 
L 284.696471 255.912629 
L 287.322353 259.969836 
L 289.948235 262.045827 
L 289.948235 262.045827 
" style="fill:none;stroke:#1f77b4;stroke-linecap:square;stroke-width:1.5;"/>
   </g>
   <g id="line2d_48">
    <path clip-path="url(#p630a19415f)" d="M -1 322.036628 
L 1.101176 321.869432 
L 3.727059 321.938573 
L 6.352941 325.500148 
L 8.978824 331.374442 
L 11.604706 333.42261 
L 14.230588 332.559004 
L 16.856471 331.526925 
L 19.482353 330.221196 
L 22.108235 328.101216 
L 24.734118 325.813363 
L 27.36 323.866628 
L 29.985882 321.378945 
L 32.611765 321.78533 
L 35.237647 327.490477 
L 37.863529 331.700787 
L 40.489412 330.737298 
L 43.115294 324.019385 
L 45.741176 314.346246 
L 48.367059 310.454339 
L 50.992941 309.309427 
L 53.618824 304.282451 
L 56.244706 299.8033 
L 58.870588 298.087931 
L 61.496471 296.904522 
L 64.122353 295.333776 
L 66.748235 293.534629 
L 69.374118 291.962492 
L 72 290.790785 
L 74.625882 290.041223 
L 77.251765 290.11165 
L 79.877647 290.791536 
L 82.503529 291.007432 
L 85.129412 289.914712 
L 87.755294 286.974023 
L 90.381176 283.303974 
L 93.007059 279.912006 
L 95.632941 277.364771 
L 98.258824 275.678824 
L 100.884706 273.49782 
L 103.510588 268.328662 
L 106.136471 260.799005 
L 108.762353 254.705503 
L 111.388235 250.960488 
L 116.64 247.140424 
L 119.265882 244.2741 
L 121.891765 243.248825 
L 124.517647 244.681872 
L 127.143529 244.385321 
L 129.769412 242.615491 
L 132.395294 240.657742 
L 135.021176 237.902464 
L 137.647059 233.362034 
L 140.272941 227.240726 
L 142.898824 221.532746 
L 148.150588 212.358426 
L 150.776471 207.137429 
L 153.402353 201.650419 
L 156.028235 197.515349 
L 158.654118 194.397426 
L 161.28 189.692259 
L 169.157647 171.459554 
L 171.783529 164.980592 
L 174.409412 157.982241 
L 177.035294 151.729032 
L 179.661176 146.792415 
L 182.287059 142.95396 
L 184.912941 140.997698 
L 187.538824 140.514076 
L 190.164706 139.350012 
L 192.790588 138.497253 
L 195.416471 139.976921 
L 198.042353 143.946415 
L 200.668235 149.421956 
L 203.294118 152.744415 
L 205.92 154.548087 
L 208.545882 161.57349 
L 213.797647 186.678178 
L 216.423529 197.042041 
L 219.049412 205.711744 
L 224.301176 225.791501 
L 226.927059 229.932538 
L 229.552941 227.736044 
L 232.178824 226.446867 
L 234.804706 228.558041 
L 237.430588 231.180656 
L 240.056471 231.699699 
L 242.682353 231.108457 
L 245.308235 232.881926 
L 247.934118 237.162759 
L 250.56 239.785207 
L 253.185882 240.131548 
L 255.811765 240.356516 
L 258.437647 241.652468 
L 263.689412 245.274965 
L 266.315294 247.297787 
L 268.941176 249.53621 
L 271.567059 252.16606 
L 274.192941 255.104966 
L 276.818824 258.607331 
L 279.444706 263.257423 
L 282.070588 270.451047 
L 284.696471 279.62966 
L 287.322353 286.122653 
L 289.948235 289.001319 
L 289.948235 289.001319 
" style="fill:none;stroke:#ff7f0e;stroke-linecap:square;stroke-width:1.5;"/>
   </g>
   <g id="line2d_49">
    <path clip-path="url(#p630a19415f)" d="M -1 274.201221 
L 1.101176 279.985578 
L 3.727059 286.532126 
L 6.352941 294.839103 
L 8.978824 304.610407 
L 11.604706 311.339285 
L 14.230588 315.84384 
L 16.856471 321.884694 
L 19.482353 327.392074 
L 22.108235 330.174681 
L 27.36 331.531102 
L 29.985882 335.990549 
L 32.611765 348.804067 
L 35.237647 366.505053 
L 37.863529 377.586264 
L 40.489412 380.548507 
L 43.115294 377.936029 
L 45.741176 372.58444 
L 48.367059 369.74053 
L 50.992941 363.645937 
L 53.618824 350.750039 
L 56.244706 342.279495 
L 58.870588 340.074892 
L 66.748235 337.391994 
L 69.374118 335.745482 
L 72 333.239991 
L 74.625882 330.060544 
L 77.251765 326.676345 
L 85.129412 316.982343 
L 87.755294 314.192942 
L 93.007059 309.539118 
L 95.632941 307.798894 
L 98.258824 306.718483 
L 100.884706 306.540948 
L 103.510588 308.187795 
L 106.136471 310.675255 
L 108.762353 312.274129 
L 114.014118 314.6012 
L 119.265882 316.891473 
L 121.891765 316.635375 
L 124.517647 315.295949 
L 127.143529 314.587677 
L 132.395294 314.354013 
L 135.021176 313.408974 
L 137.647059 311.094306 
L 140.272941 307.423729 
L 142.898824 302.750186 
L 145.524706 297.646556 
L 148.150588 293.074842 
L 150.776471 290.345135 
L 153.402353 288.272447 
L 158.654118 280.38562 
L 161.28 277.664827 
L 163.905882 275.810447 
L 166.531765 274.158072 
L 169.157647 271.459771 
L 171.783529 268.374707 
L 174.409412 266.475772 
L 177.035294 264.4014 
L 179.661176 262.855082 
L 182.287059 262.180535 
L 184.912941 257.812572 
L 187.538824 250.174917 
L 190.164706 245.706241 
L 192.790588 243.431398 
L 195.416471 237.65225 
L 198.042353 229.560172 
L 200.668235 222.190167 
L 203.294118 219.86951 
L 205.92 222.015665 
L 208.545882 221.221777 
L 211.171765 216.946149 
L 216.423529 211.930926 
L 219.049412 207.915805 
L 221.675294 203.218043 
L 226.927059 193.21782 
L 229.552941 189.161777 
L 232.178824 187.105831 
L 234.804706 186.123014 
L 237.430588 184.153939 
L 240.056471 180.717482 
L 242.682353 176.686511 
L 245.308235 173.253953 
L 247.934118 170.671933 
L 250.56 167.928508 
L 253.185882 165.530891 
L 255.811765 166.572908 
L 258.437647 172.484933 
L 261.063529 179.83873 
L 263.689412 185.798489 
L 266.315294 190.753429 
L 268.941176 196.413131 
L 271.567059 202.852435 
L 274.192941 207.451607 
L 276.818824 208.973926 
L 279.444706 210.360699 
L 282.070588 213.808913 
L 287.322353 223.575204 
L 289.948235 226.752663 
L 289.948235 226.752663 
" style="fill:none;stroke:#2ca02c;stroke-linecap:square;stroke-width:1.5;"/>
   </g>
   <g id="line2d_50">
    <path clip-path="url(#p630a19415f)" d="M -1 284.609681 
L 1.101176 283.215576 
L 3.727059 283.79094 
L 6.352941 292.776845 
L 8.978824 306.4663 
L 11.604706 310.347507 
L 14.230588 308.112491 
L 16.856471 307.490084 
L 19.482353 308.039689 
L 22.108235 309.042287 
L 24.734118 313.263764 
L 27.36 320.117596 
L 29.985882 325.078062 
L 32.611765 336.076229 
L 35.237647 357.477995 
L 37.863529 373.687935 
L 40.489412 377.795962 
L 43.115294 368.58433 
L 45.741176 352.6254 
L 48.367059 347.651946 
L 50.992941 345.181177 
L 53.618824 333.66431 
L 56.244706 325.340017 
L 58.870588 323.797982 
L 61.496471 323.877542 
L 64.122353 324.106413 
L 69.374118 324.816273 
L 72 324.965792 
L 74.625882 324.910789 
L 79.877647 324.537662 
L 93.007059 323.068316 
L 95.632941 322.467569 
L 98.258824 321.631394 
L 100.884706 321.466519 
L 103.510588 324.472669 
L 106.136471 330.333517 
L 108.762353 334.272285 
L 111.388235 335.537148 
L 114.014118 335.940555 
L 116.64 335.754642 
L 119.265882 333.909381 
L 121.891765 327.828335 
L 124.517647 317.641784 
L 127.143529 308.185977 
L 129.769412 301.364636 
L 132.395294 296.78308 
L 135.021176 293.735011 
L 137.647059 291.387419 
L 140.272941 289.55911 
L 142.898824 288.433063 
L 145.524706 287.963229 
L 148.150588 287.808497 
L 150.776471 287.116462 
L 153.402353 285.548974 
L 158.654118 281.004801 
L 161.28 279.298281 
L 163.905882 277.996738 
L 169.157647 274.656194 
L 171.783529 273.650941 
L 179.661176 272.380938 
L 182.287059 272.288269 
L 187.538824 274.177773 
L 190.164706 274.696772 
L 192.790588 275.404562 
L 195.416471 276.727424 
L 200.668235 280.90074 
L 203.294118 282.281687 
L 208.545882 283.981603 
L 211.171765 284.527653 
L 213.797647 284.678263 
L 216.423529 284.319929 
L 219.049412 283.478439 
L 221.675294 282.34862 
L 224.301176 280.745553 
L 226.927059 277.893992 
L 229.552941 274.162302 
L 232.178824 271.609945 
L 234.804706 270.04689 
L 240.056471 266.282268 
L 242.682353 265.225065 
L 245.308235 261.982753 
L 247.934118 253.929863 
L 250.56 246.836594 
L 253.185882 242.710996 
L 255.811765 239.960669 
L 258.437647 238.402961 
L 261.063529 237.412499 
L 263.689412 239.830836 
L 266.315294 247.558477 
L 268.941176 252.978628 
L 271.567059 254.287916 
L 276.818824 254.332813 
L 279.444706 255.443526 
L 282.070588 259.051787 
L 284.696471 264.618084 
L 287.322353 269.013053 
L 289.948235 271.228731 
L 289.948235 271.228731 
" style="fill:none;stroke:#d62728;stroke-linecap:square;stroke-width:1.5;"/>
   </g>
   <g id="line2d_51">
    <path clip-path="url(#p630a19415f)" d="M -1 316.599578 
L 1.101176 319.022982 
L 3.727059 321.571474 
L 6.352941 322.68006 
L 8.978824 322.694948 
L 11.604706 322.519295 
L 14.230588 322.945141 
L 19.482353 325.244437 
L 22.108235 325.943219 
L 24.734118 325.850581 
L 27.36 325.038464 
L 29.985882 323.26122 
L 32.611765 320.164438 
L 35.237647 316.681735 
L 37.863529 313.433241 
L 40.489412 309.642727 
L 43.115294 307.107197 
L 45.741176 306.474788 
L 48.367059 306.804421 
L 53.618824 308.797438 
L 58.870588 309.635989 
L 61.496471 310.636924 
L 64.122353 312.203118 
L 69.374118 316.157163 
L 72 317.685493 
L 74.625882 318.620882 
L 77.251765 318.746452 
L 79.877647 317.973088 
L 82.503529 316.969009 
L 85.129412 316.21311 
L 87.755294 315.255859 
L 90.381176 314.179569 
L 95.632941 312.475616 
L 98.258824 312.187041 
L 100.884706 313.228903 
L 103.510588 316.173997 
L 106.136471 320.224358 
L 108.762353 322.182889 
L 111.388235 322.061217 
L 114.014118 321.776693 
L 116.64 321.829511 
L 119.265882 321.34148 
L 121.891765 318.772565 
L 124.517647 314.480887 
L 127.143529 311.812212 
L 129.769412 311.429519 
L 132.395294 311.859069 
L 135.021176 312.130956 
L 137.647059 311.665919 
L 140.272941 310.665395 
L 142.898824 309.9648 
L 145.524706 309.699759 
L 148.150588 309.088002 
L 150.776471 307.669293 
L 153.402353 304.75049 
L 156.028235 299.865361 
L 158.654118 293.837967 
L 163.905882 280.335768 
L 166.531765 275.095376 
L 169.157647 270.928176 
L 171.783529 267.547695 
L 174.409412 265.360071 
L 177.035294 264.5862 
L 179.661176 265.199524 
L 182.287059 265.698533 
L 184.912941 265.089003 
L 195.416471 261.143208 
L 198.042353 259.700639 
L 200.668235 258.894052 
L 203.294118 259.167707 
L 205.92 259.94308 
L 208.545882 261.316855 
L 211.171765 263.254519 
L 213.797647 265.338249 
L 216.423529 267.767957 
L 221.675294 273.005697 
L 224.301176 275.120704 
L 226.927059 276.652309 
L 232.178824 278.515434 
L 237.430588 281.316124 
L 240.056471 282.13835 
L 242.682353 282.728535 
L 245.308235 282.778985 
L 247.934118 281.337893 
L 250.56 278.27594 
L 255.811765 269.868821 
L 258.437647 266.824844 
L 261.063529 266.254213 
L 263.689412 268.912016 
L 266.315294 273.670258 
L 268.941176 277.090083 
L 271.567059 278.296834 
L 274.192941 278.415809 
L 276.818824 277.767459 
L 279.444706 275.483146 
L 282.070588 270.642646 
L 284.696471 264.459346 
L 287.322353 260.382563 
L 289.948235 258.846324 
L 289.948235 258.846324 
" style="fill:none;stroke:#9467bd;stroke-linecap:square;stroke-width:1.5;"/>
   </g>
   <g id="line2d_52">
    <path clip-path="url(#p630a19415f)" d="M -1 292.686203 
L 1.101176 292.473666 
L 3.727059 291.568015 
L 6.352941 292.89651 
L 8.978824 293.830032 
L 11.604706 289.321642 
L 14.230588 284.584784 
L 16.856471 283.00747 
L 19.482353 282.856856 
L 22.108235 284.010035 
L 24.734118 289.502146 
L 27.36 299.07393 
L 29.985882 307.305763 
L 32.611765 319.75904 
L 35.237647 340.207474 
L 37.863529 356.159553 
L 40.489412 361.376576 
L 43.115294 354.20226 
L 45.741176 340.170904 
L 48.367059 334.793332 
L 50.992941 332.332349 
L 53.618824 323.524047 
L 56.244706 317.552462 
L 58.870588 317.111556 
L 61.496471 318.422113 
L 64.122353 320.105887 
L 66.748235 321.505734 
L 69.374118 322.2973 
L 72 322.593839 
L 74.625882 322.014198 
L 77.251765 320.665841 
L 79.877647 318.938456 
L 82.503529 316.744474 
L 85.129412 313.779529 
L 87.755294 310.058648 
L 90.381176 305.957397 
L 93.007059 302.590554 
L 95.632941 300.572267 
L 98.258824 299.319981 
L 100.884706 298.322448 
L 103.510588 298.641876 
L 106.136471 300.766912 
L 108.762353 303.094518 
L 111.388235 304.768385 
L 114.014118 306.116163 
L 116.64 307.16988 
L 119.265882 307.830204 
L 121.891765 307.673068 
L 124.517647 306.537968 
L 127.143529 305.662222 
L 129.769412 305.194173 
L 135.021176 303.747517 
L 137.647059 303.336931 
L 140.272941 303.266961 
L 145.524706 303.68288 
L 150.776471 303.634651 
L 153.402353 303.706512 
L 156.028235 303.390947 
L 158.654118 302.211408 
L 161.28 300.143698 
L 166.531765 295.498315 
L 169.157647 293.456557 
L 171.783529 291.821492 
L 174.409412 290.690357 
L 177.035294 290.198325 
L 179.661176 290.207352 
L 182.287059 290.607411 
L 187.538824 292.29527 
L 190.164706 292.83901 
L 192.790588 292.86365 
L 195.416471 292.091969 
L 198.042353 290.58843 
L 200.668235 288.135012 
L 205.92 281.84674 
L 208.545882 278.962711 
L 211.171765 275.911467 
L 216.423529 269.25665 
L 219.049412 266.996886 
L 221.675294 266.263302 
L 224.301176 265.844436 
L 226.927059 265.019832 
L 229.552941 264.412425 
L 232.178824 265.096924 
L 234.804706 266.823775 
L 237.430588 267.911467 
L 240.056471 267.578155 
L 242.682353 266.922194 
L 245.308235 266.991432 
L 247.934118 267.460456 
L 250.56 267.157384 
L 253.185882 266.244716 
L 255.811765 265.910548 
L 258.437647 266.660018 
L 261.063529 267.589921 
L 263.689412 267.613077 
L 266.315294 266.61546 
L 268.941176 265.900419 
L 271.567059 265.802395 
L 274.192941 265.428817 
L 276.818824 264.823331 
L 279.444706 265.165997 
L 282.070588 267.543693 
L 284.696471 270.957337 
L 287.322353 271.840248 
L 289.948235 270.80711 
L 289.948235 270.80711 
" style="fill:none;stroke:#8c564b;stroke-linecap:square;stroke-width:1.5;"/>
   </g>
   <g id="line2d_53">
    <path clip-path="url(#p630a19415f)" d="M -1 282.05012 
L 3.727059 276.300788 
L 6.352941 286.287895 
L 8.978824 308.888342 
L 11.604706 319.563715 
L 14.230588 317.943636 
L 16.856471 317.095068 
L 19.482353 319.659471 
L 22.108235 321.671349 
L 24.734118 319.472759 
L 27.36 314.325895 
L 29.985882 315.235759 
L 32.611765 331.090664 
L 35.237647 359.307377 
L 37.863529 382.552059 
L 40.489412 394.028253 
L 43.115294 386.994377 
L 45.741176 367.021596 
L 48.367059 360.452731 
L 50.992941 359.742583 
L 53.618824 348.502696 
L 56.244706 334.113673 
L 58.870588 320.624643 
L 61.496471 312.846333 
L 64.122353 310.097678 
L 66.748235 305.521736 
L 69.374118 298.22811 
L 72 292.207525 
L 74.625882 294.144548 
L 77.251765 304.140489 
L 79.877647 310.381427 
L 82.503529 309.655848 
L 85.129412 307.551225 
L 87.755294 305.997942 
L 90.381176 303.635713 
L 93.007059 300.81462 
L 95.632941 299.182653 
L 98.258824 298.59969 
L 100.884706 298.345225 
L 103.510588 299.817366 
L 106.136471 303.22323 
L 108.762353 305.465295 
L 111.388235 305.122937 
L 114.014118 302.541138 
L 116.64 302.603135 
L 119.265882 307.099024 
L 121.891765 309.254121 
L 124.517647 307.331001 
L 127.143529 305.956164 
L 129.769412 305.503877 
L 132.395294 304.912 
L 135.021176 304.166965 
L 137.647059 303.807727 
L 140.272941 304.514026 
L 142.898824 305.775602 
L 145.524706 307.219239 
L 150.776471 311.131759 
L 153.402353 311.468457 
L 156.028235 309.880558 
L 158.654118 307.506222 
L 161.28 305.541019 
L 163.905882 304.374301 
L 166.531765 303.554641 
L 171.783529 302.691427 
L 174.409412 301.519756 
L 177.035294 299.881226 
L 179.661176 299.143717 
L 182.287059 299.017717 
L 184.912941 297.229457 
L 187.538824 292.757633 
L 190.164706 286.905228 
L 192.790588 281.869491 
L 195.416471 277.855623 
L 198.042353 273.118597 
L 200.668235 267.563184 
L 203.294118 263.38091 
L 205.92 263.056401 
L 208.545882 267.025248 
L 211.171765 271.370028 
L 213.797647 272.238247 
L 216.423529 269.972682 
L 219.049412 267.124333 
L 221.675294 265.090644 
L 224.301176 262.646894 
L 226.927059 257.047623 
L 229.552941 246.287764 
L 232.178824 236.454517 
L 234.804706 231.356251 
L 237.430588 228.382589 
L 240.056471 226.275779 
L 242.682353 225.748893 
L 245.308235 228.772242 
L 247.934118 238.01077 
L 250.56 248.144306 
L 253.185882 254.516798 
L 255.811765 259.212368 
L 258.437647 263.642964 
L 261.063529 266.904663 
L 263.689412 267.89281 
L 266.315294 267.975546 
L 268.941176 269.961087 
L 274.192941 277.172437 
L 276.818824 281.673377 
L 279.444706 286.822563 
L 282.070588 288.950856 
L 284.696471 286.762852 
L 287.322353 284.173563 
L 289.948235 283.096632 
L 289.948235 283.096632 
" style="fill:none;stroke:#e377c2;stroke-linecap:square;stroke-width:1.5;"/>
   </g>
   <g id="line2d_54">
    <path clip-path="url(#p630a19415f)" d="M -1 278.969284 
L 1.101176 280.220088 
L 3.727059 283.215544 
L 6.352941 294.174245 
L 8.978824 310.109247 
L 11.604706 315.804478 
L 14.230588 316.258966 
L 16.856471 317.295452 
L 19.482353 317.992191 
L 22.108235 318.91525 
L 24.734118 319.423494 
L 27.36 317.479116 
L 29.985882 307.825855 
L 32.611765 276.156166 
L 35.237647 227.567195 
L 37.863529 198.944072 
L 40.489412 192.67359 
L 43.115294 179.56103 
L 45.741176 155.129614 
L 48.367059 149.034412 
L 50.992941 178.385304 
L 53.618824 230.001034 
L 56.244706 262.488862 
L 58.870588 270.743709 
L 61.496471 273.245875 
L 66.748235 277.416142 
L 69.374118 281.846935 
L 72 286.702117 
L 74.625882 290.563714 
L 77.251765 290.109589 
L 79.877647 278.31119 
L 82.503529 258.343438 
L 85.129412 246.880719 
L 90.381176 239.136171 
L 93.007059 238.709371 
L 95.632941 239.908075 
L 98.258824 239.782675 
L 100.884706 238.525681 
L 103.510588 238.873467 
L 106.136471 244.137146 
L 108.762353 248.091305 
L 114.014118 238.222176 
L 116.64 246.042552 
L 119.265882 263.748679 
L 121.891765 274.220736 
L 127.143529 275.676209 
L 129.769412 278.800226 
L 132.395294 281.294007 
L 135.021176 284.203741 
L 137.647059 289.777362 
L 140.272941 294.162085 
L 142.898824 293.264459 
L 148.150588 283.39287 
L 150.776471 282.869215 
L 153.402353 284.612722 
L 156.028235 281.613218 
L 158.654118 270.572164 
L 163.905882 242.405262 
L 166.531765 232.622431 
L 169.157647 226.793562 
L 171.783529 219.586818 
L 174.409412 212.721216 
L 177.035294 211.903964 
L 179.661176 212.637101 
L 182.287059 216.193637 
L 184.912941 224.130115 
L 187.538824 230.754677 
L 190.164706 237.789004 
L 192.790588 243.617079 
L 195.416471 240.997821 
L 198.042353 238.740705 
L 200.668235 239.93489 
L 203.294118 236.492284 
L 208.545882 220.851411 
L 211.171765 216.673719 
L 213.797647 217.444991 
L 216.423529 217.884592 
L 219.049412 215.984459 
L 221.675294 213.608054 
L 224.301176 209.638891 
L 226.927059 203.599282 
L 229.552941 198.058613 
L 232.178824 194.244866 
L 234.804706 191.012068 
L 237.430588 187.185378 
L 242.682353 177.430229 
L 245.308235 173.687748 
L 247.934118 171.588193 
L 250.56 169.72394 
L 253.185882 165.233042 
L 255.811765 158.297731 
L 261.063529 143.627343 
L 263.689412 137.300144 
L 266.315294 132.183964 
L 268.941176 129.694704 
L 271.567059 129.97252 
L 274.192941 130.126011 
L 276.818824 132.043483 
L 279.444706 138.188811 
L 282.070588 147.956658 
L 284.696471 158.438922 
L 287.322353 164.143835 
L 289.948235 165.253427 
L 289.948235 165.253427 
" style="fill:none;stroke:#7f7f7f;stroke-linecap:square;stroke-width:1.5;"/>
   </g>
   <g id="line2d_55">
    <path clip-path="url(#p630a19415f)" d="M -1 303.903551 
L 1.101176 298.957853 
L 3.727059 294.974057 
L 6.352941 293.600888 
L 8.978824 287.441055 
L 11.604706 275.301217 
L 14.230588 272.420645 
L 16.856471 280.842805 
L 19.482353 288.885632 
L 22.108235 292.673105 
L 24.734118 298.812554 
L 27.36 309.187023 
L 29.985882 306.880788 
L 32.611765 283.388954 
L 35.237647 258.335239 
L 37.863529 248.052331 
L 40.489412 245.796319 
L 43.115294 239.347825 
L 45.741176 230.062961 
L 48.367059 233.979904 
L 50.992941 253.428875 
L 53.618824 273.899301 
L 56.244706 282.877688 
L 58.870588 283.405918 
L 61.496471 283.513777 
L 66.748235 287.61788 
L 69.374118 288.438073 
L 72 288.979771 
L 77.251765 290.594093 
L 79.877647 292.068497 
L 82.503529 293.755645 
L 85.129412 294.16373 
L 87.755294 293.896154 
L 90.381176 295.778448 
L 93.007059 299.146983 
L 95.632941 299.571052 
L 98.258824 297.386629 
L 100.884706 297.277894 
L 103.510588 303.433116 
L 106.136471 313.761075 
L 108.762353 318.587345 
L 111.388235 316.847007 
L 114.014118 316.047206 
L 116.64 318.143505 
L 119.265882 320.003517 
L 121.891765 317.571295 
L 124.517647 311.444014 
L 127.143529 307.219094 
L 129.769412 306.244687 
L 132.395294 306.042882 
L 135.021176 303.430159 
L 140.272941 291.570763 
L 142.898824 287.649812 
L 145.524706 285.152374 
L 148.150588 283.687494 
L 150.776471 282.942593 
L 153.402353 282.55536 
L 156.028235 281.548656 
L 158.654118 278.787313 
L 163.905882 271.194563 
L 166.531765 268.272963 
L 169.157647 266.469361 
L 171.783529 266.22589 
L 174.409412 268.145691 
L 177.035294 272.123648 
L 179.661176 277.312814 
L 182.287059 283.141208 
L 184.912941 288.339356 
L 187.538824 291.097017 
L 190.164706 292.060247 
L 195.416471 293.552012 
L 198.042353 294.69977 
L 200.668235 295.978071 
L 203.294118 296.289371 
L 205.92 296.345375 
L 208.545882 297.056395 
L 211.171765 298.283836 
L 213.797647 299.105235 
L 216.423529 298.768115 
L 219.049412 297.329017 
L 221.675294 296.166817 
L 224.301176 294.01454 
L 226.927059 284.484178 
L 229.552941 268.869156 
L 232.178824 260.084164 
L 234.804706 258.829916 
L 237.430588 258.595511 
L 240.056471 257.397557 
L 242.682353 257.847425 
L 245.308235 266.277871 
L 247.934118 281.361157 
L 250.56 290.360036 
L 253.185882 292.584954 
L 255.811765 294.126197 
L 261.063529 298.835366 
L 263.689412 300.904823 
L 266.315294 303.387133 
L 268.941176 306.657004 
L 271.567059 310.400703 
L 274.192941 315.682322 
L 276.818824 321.758818 
L 279.444706 325.343126 
L 282.070588 326.493281 
L 287.322353 327.385027 
L 289.948235 328.118932 
L 289.948235 328.118932 
" style="fill:none;stroke:#bcbd22;stroke-linecap:square;stroke-width:1.5;"/>
   </g>
   <g id="patch_3">
    <path d="M 72 384.48 
L 72 51.84 
" style="fill:none;stroke:#000000;stroke-linecap:square;stroke-linejoin:miter;stroke-width:0.8;"/>
   </g>
   <g id="patch_4">
    <path d="M 518.4 384.48 
L 518.4 51.84 
" style="fill:none;stroke:#000000;stroke-linecap:square;stroke-linejoin:miter;stroke-width:0.8;"/>
   </g>
   <g id="patch_5">
    <path d="M 72 384.48 
L 518.4 384.48 
" style="fill:none;stroke:#000000;stroke-linecap:square;stroke-linejoin:miter;stroke-width:0.8;"/>
   </g>
   <g id="patch_6">
    <path d="M 72 51.84 
L 518.4 51.84 
" style="fill:none;stroke:#000000;stroke-linecap:square;stroke-linejoin:miter;stroke-width:0.8;"/>
   </g>
   <g id="text_26">
    <!-- First dose weekly increase by state/territory -->
    <g transform="translate(163.310625 45.84)scale(0.12 -0.12)">
     <defs>
      <path d="M 628 4666 
L 3309 4666 
L 3309 4134 
L 1259 4134 
L 1259 2759 
L 3109 2759 
L 3109 2228 
L 1259 2228 
L 1259 0 
L 628 0 
L 628 4666 
z
" id="DejaVuSans-46" transform="scale(0.015625)"/>
      <path d="M 2834 3397 
L 2834 2853 
Q 2591 2978 2328 3040 
Q 2066 3103 1784 3103 
Q 1356 3103 1142 2972 
Q 928 2841 928 2578 
Q 928 2378 1081 2264 
Q 1234 2150 1697 2047 
L 1894 2003 
Q 2506 1872 2764 1633 
Q 3022 1394 3022 966 
Q 3022 478 2636 193 
Q 2250 -91 1575 -91 
Q 1294 -91 989 -36 
Q 684 19 347 128 
L 347 722 
Q 666 556 975 473 
Q 1284 391 1588 391 
Q 1994 391 2212 530 
Q 2431 669 2431 922 
Q 2431 1156 2273 1281 
Q 2116 1406 1581 1522 
L 1381 1569 
Q 847 1681 609 1914 
Q 372 2147 372 2553 
Q 372 3047 722 3315 
Q 1072 3584 1716 3584 
Q 2034 3584 2315 3537 
Q 2597 3491 2834 3397 
z
" id="DejaVuSans-73" transform="scale(0.015625)"/>
      <path d="M 2906 2969 
L 2906 4863 
L 3481 4863 
L 3481 0 
L 2906 0 
L 2906 525 
Q 2725 213 2448 61 
Q 2172 -91 1784 -91 
Q 1150 -91 751 415 
Q 353 922 353 1747 
Q 353 2572 751 3078 
Q 1150 3584 1784 3584 
Q 2172 3584 2448 3432 
Q 2725 3281 2906 2969 
z
M 947 1747 
Q 947 1113 1208 752 
Q 1469 391 1925 391 
Q 2381 391 2643 752 
Q 2906 1113 2906 1747 
Q 2906 2381 2643 2742 
Q 2381 3103 1925 3103 
Q 1469 3103 1208 2742 
Q 947 2381 947 1747 
z
" id="DejaVuSans-64" transform="scale(0.015625)"/>
      <path d="M 2059 -325 
Q 1816 -950 1584 -1140 
Q 1353 -1331 966 -1331 
L 506 -1331 
L 506 -850 
L 844 -850 
Q 1081 -850 1212 -737 
Q 1344 -625 1503 -206 
L 1606 56 
L 191 3500 
L 800 3500 
L 1894 763 
L 2988 3500 
L 3597 3500 
L 2059 -325 
z
" id="DejaVuSans-79" transform="scale(0.015625)"/>
      <path d="M 3116 1747 
Q 3116 2381 2855 2742 
Q 2594 3103 2138 3103 
Q 1681 3103 1420 2742 
Q 1159 2381 1159 1747 
Q 1159 1113 1420 752 
Q 1681 391 2138 391 
Q 2594 391 2855 752 
Q 3116 1113 3116 1747 
z
M 1159 2969 
Q 1341 3281 1617 3432 
Q 1894 3584 2278 3584 
Q 2916 3584 3314 3078 
Q 3713 2572 3713 1747 
Q 3713 922 3314 415 
Q 2916 -91 2278 -91 
Q 1894 -91 1617 61 
Q 1341 213 1159 525 
L 1159 0 
L 581 0 
L 581 4863 
L 1159 4863 
L 1159 2969 
z
" id="DejaVuSans-62" transform="scale(0.015625)"/>
     </defs>
     <use xlink:href="#DejaVuSans-46"/>
     <use x="50.269531" xlink:href="#DejaVuSans-69"/>
     <use x="78.052734" xlink:href="#DejaVuSans-72"/>
     <use x="119.166016" xlink:href="#DejaVuSans-73"/>
     <use x="171.265625" xlink:href="#DejaVuSans-74"/>
     <use x="210.474609" xlink:href="#DejaVuSans-20"/>
     <use x="242.261719" xlink:href="#DejaVuSans-64"/>
     <use x="305.738281" xlink:href="#DejaVuSans-6f"/>
     <use x="366.919922" xlink:href="#DejaVuSans-73"/>
     <use x="419.019531" xlink:href="#DejaVuSans-65"/>
     <use x="480.542969" xlink:href="#DejaVuSans-20"/>
     <use x="512.330078" xlink:href="#DejaVuSans-77"/>
     <use x="594.117188" xlink:href="#DejaVuSans-65"/>
     <use x="655.640625" xlink:href="#DejaVuSans-65"/>
     <use x="717.164062" xlink:href="#DejaVuSans-6b"/>
     <use x="775.074219" xlink:href="#DejaVuSans-6c"/>
     <use x="802.857422" xlink:href="#DejaVuSans-79"/>
     <use x="862.037109" xlink:href="#DejaVuSans-20"/>
     <use x="893.824219" xlink:href="#DejaVuSans-69"/>
     <use x="921.607422" xlink:href="#DejaVuSans-6e"/>
     <use x="984.986328" xlink:href="#DejaVuSans-63"/>
     <use x="1039.966797" xlink:href="#DejaVuSans-72"/>
     <use x="1078.830078" xlink:href="#DejaVuSans-65"/>
     <use x="1140.353516" xlink:href="#DejaVuSans-61"/>
     <use x="1201.632812" xlink:href="#DejaVuSans-73"/>
     <use x="1253.732422" xlink:href="#DejaVuSans-65"/>
     <use x="1315.255859" xlink:href="#DejaVuSans-20"/>
     <use x="1347.042969" xlink:href="#DejaVuSans-62"/>
     <use x="1410.519531" xlink:href="#DejaVuSans-79"/>
     <use x="1469.699219" xlink:href="#DejaVuSans-20"/>
     <use x="1501.486328" xlink:href="#DejaVuSans-73"/>
     <use x="1553.585938" xlink:href="#DejaVuSans-74"/>
     <use x="1592.794922" xlink:href="#DejaVuSans-61"/>
     <use x="1654.074219" xlink:href="#DejaVuSans-74"/>
     <use x="1693.283203" xlink:href="#DejaVuSans-65"/>
     <use x="1754.806641" xlink:href="#DejaVuSans-2f"/>
     <use x="1788.498047" xlink:href="#DejaVuSans-74"/>
     <use x="1827.707031" xlink:href="#DejaVuSans-65"/>
     <use x="1889.230469" xlink:href="#DejaVuSans-72"/>
     <use x="1928.59375" xlink:href="#DejaVuSans-72"/>
     <use x="1969.707031" xlink:href="#DejaVuSans-69"/>
     <use x="1997.490234" xlink:href="#DejaVuSans-74"/>
     <use x="2036.699219" xlink:href="#DejaVuSans-6f"/>
     <use x="2097.880859" xlink:href="#DejaVuSans-72"/>
     <use x="2138.994141" xlink:href="#DejaVuSans-79"/>
    </g>
   </g>
   <g id="legend_1">
    <g id="patch_7">
     <path d="M 383.509687 177.932812 
L 512.1 177.932812 
Q 513.9 177.932812 513.9 176.132812 
L 513.9 58.14 
Q 513.9 56.34 512.1 56.34 
L 383.509687 56.34 
Q 381.709687 56.34 381.709687 58.14 
L 381.709687 176.132812 
Q 381.709687 177.932812 383.509687 177.932812 
z
" style="fill:#ffffff;opacity:0.8;stroke:#cccccc;stroke-linejoin:miter;"/>
    </g>
    <g id="line2d_56">
     <path d="M 385.309687 63.628594 
L 403.309687 63.628594 
" style="fill:none;stroke:#1f77b4;stroke-linecap:square;stroke-width:1.5;"/>
    </g>
    <g id="line2d_57"/>
    <g id="text_27">
     <!-- National (3.7 %/week) -->
     <g transform="translate(410.509687 66.778594)scale(0.09 -0.09)">
      <defs>
       <path d="M 684 794 
L 1344 794 
L 1344 0 
L 684 0 
L 684 794 
z
" id="DejaVuSans-2e" transform="scale(0.015625)"/>
      </defs>
      <use xlink:href="#DejaVuSans-4e"/>
      <use x="74.804688" xlink:href="#DejaVuSans-61"/>
      <use x="136.083984" xlink:href="#DejaVuSans-74"/>
      <use x="175.292969" xlink:href="#DejaVuSans-69"/>
      <use x="203.076172" xlink:href="#DejaVuSans-6f"/>
      <use x="264.257812" xlink:href="#DejaVuSans-6e"/>
      <use x="327.636719" xlink:href="#DejaVuSans-61"/>
      <use x="388.916016" xlink:href="#DejaVuSans-6c"/>
      <use x="416.699219" xlink:href="#DejaVuSans-20"/>
      <use x="448.486328" xlink:href="#DejaVuSans-28"/>
      <use x="487.5" xlink:href="#DejaVuSans-33"/>
      <use x="551.123047" xlink:href="#DejaVuSans-2e"/>
      <use x="582.910156" xlink:href="#DejaVuSans-37"/>
      <use x="646.533203" xlink:href="#DejaVuSans-20"/>
      <use x="678.320312" xlink:href="#DejaVuSans-25"/>
      <use x="773.339844" xlink:href="#DejaVuSans-2f"/>
      <use x="807.03125" xlink:href="#DejaVuSans-77"/>
      <use x="888.818359" xlink:href="#DejaVuSans-65"/>
      <use x="950.341797" xlink:href="#DejaVuSans-65"/>
      <use x="1011.865234" xlink:href="#DejaVuSans-6b"/>
      <use x="1069.775391" xlink:href="#DejaVuSans-29"/>
     </g>
    </g>
    <g id="line2d_58">
     <path d="M 385.309687 76.838906 
L 403.309687 76.838906 
" style="fill:none;stroke:#ff7f0e;stroke-linecap:square;stroke-width:1.5;"/>
    </g>
    <g id="line2d_59"/>
    <g id="text_28">
     <!-- NSW (2.9 %/week) -->
     <g transform="translate(410.509687 79.988906)scale(0.09 -0.09)">
      <defs>
       <path d="M 213 4666 
L 850 4666 
L 1831 722 
L 2809 4666 
L 3519 4666 
L 4500 722 
L 5478 4666 
L 6119 4666 
L 4947 0 
L 4153 0 
L 3169 4050 
L 2175 0 
L 1381 0 
L 213 4666 
z
" id="DejaVuSans-57" transform="scale(0.015625)"/>
      </defs>
      <use xlink:href="#DejaVuSans-4e"/>
      <use x="74.804688" xlink:href="#DejaVuSans-53"/>
      <use x="138.28125" xlink:href="#DejaVuSans-57"/>
      <use x="237.158203" xlink:href="#DejaVuSans-20"/>
      <use x="268.945312" xlink:href="#DejaVuSans-28"/>
      <use x="307.958984" xlink:href="#DejaVuSans-32"/>
      <use x="371.582031" xlink:href="#DejaVuSans-2e"/>
      <use x="403.369141" xlink:href="#DejaVuSans-39"/>
      <use x="466.992188" xlink:href="#DejaVuSans-20"/>
      <use x="498.779297" xlink:href="#DejaVuSans-25"/>
      <use x="593.798828" xlink:href="#DejaVuSans-2f"/>
      <use x="627.490234" xlink:href="#DejaVuSans-77"/>
      <use x="709.277344" xlink:href="#DejaVuSans-65"/>
      <use x="770.800781" xlink:href="#DejaVuSans-65"/>
      <use x="832.324219" xlink:href="#DejaVuSans-6b"/>
      <use x="890.234375" xlink:href="#DejaVuSans-29"/>
     </g>
    </g>
    <g id="line2d_60">
     <path d="M 385.309687 90.049219 
L 403.309687 90.049219 
" style="fill:none;stroke:#2ca02c;stroke-linecap:square;stroke-width:1.5;"/>
    </g>
    <g id="line2d_61"/>
    <g id="text_29">
     <!-- VIC (4.7 %/week) -->
     <g transform="translate(410.509687 93.199219)scale(0.09 -0.09)">
      <defs>
       <path d="M 628 4666 
L 1259 4666 
L 1259 0 
L 628 0 
L 628 4666 
z
" id="DejaVuSans-49" transform="scale(0.015625)"/>
       <path d="M 4122 4306 
L 4122 3641 
Q 3803 3938 3442 4084 
Q 3081 4231 2675 4231 
Q 1875 4231 1450 3742 
Q 1025 3253 1025 2328 
Q 1025 1406 1450 917 
Q 1875 428 2675 428 
Q 3081 428 3442 575 
Q 3803 722 4122 1019 
L 4122 359 
Q 3791 134 3420 21 
Q 3050 -91 2638 -91 
Q 1578 -91 968 557 
Q 359 1206 359 2328 
Q 359 3453 968 4101 
Q 1578 4750 2638 4750 
Q 3056 4750 3426 4639 
Q 3797 4528 4122 4306 
z
" id="DejaVuSans-43" transform="scale(0.015625)"/>
      </defs>
      <use xlink:href="#DejaVuSans-56"/>
      <use x="68.408203" xlink:href="#DejaVuSans-49"/>
      <use x="97.900391" xlink:href="#DejaVuSans-43"/>
      <use x="167.724609" xlink:href="#DejaVuSans-20"/>
      <use x="199.511719" xlink:href="#DejaVuSans-28"/>
      <use x="238.525391" xlink:href="#DejaVuSans-34"/>
      <use x="302.148438" xlink:href="#DejaVuSans-2e"/>
      <use x="333.935547" xlink:href="#DejaVuSans-37"/>
      <use x="397.558594" xlink:href="#DejaVuSans-20"/>
      <use x="429.345703" xlink:href="#DejaVuSans-25"/>
      <use x="524.365234" xlink:href="#DejaVuSans-2f"/>
      <use x="558.056641" xlink:href="#DejaVuSans-77"/>
      <use x="639.84375" xlink:href="#DejaVuSans-65"/>
      <use x="701.367188" xlink:href="#DejaVuSans-65"/>
      <use x="762.890625" xlink:href="#DejaVuSans-6b"/>
      <use x="820.800781" xlink:href="#DejaVuSans-29"/>
     </g>
    </g>
    <g id="line2d_62">
     <path d="M 385.309687 103.259531 
L 403.309687 103.259531 
" style="fill:none;stroke:#d62728;stroke-linecap:square;stroke-width:1.5;"/>
    </g>
    <g id="line2d_63"/>
    <g id="text_30">
     <!-- QLD (3.4 %/week) -->
     <g transform="translate(410.509687 106.409531)scale(0.09 -0.09)">
      <defs>
       <path d="M 2522 4238 
Q 1834 4238 1429 3725 
Q 1025 3213 1025 2328 
Q 1025 1447 1429 934 
Q 1834 422 2522 422 
Q 3209 422 3611 934 
Q 4013 1447 4013 2328 
Q 4013 3213 3611 3725 
Q 3209 4238 2522 4238 
z
M 3406 84 
L 4238 -825 
L 3475 -825 
L 2784 -78 
Q 2681 -84 2626 -87 
Q 2572 -91 2522 -91 
Q 1538 -91 948 567 
Q 359 1225 359 2328 
Q 359 3434 948 4092 
Q 1538 4750 2522 4750 
Q 3503 4750 4090 4092 
Q 4678 3434 4678 2328 
Q 4678 1516 4351 937 
Q 4025 359 3406 84 
z
" id="DejaVuSans-51" transform="scale(0.015625)"/>
       <path d="M 628 4666 
L 1259 4666 
L 1259 531 
L 3531 531 
L 3531 0 
L 628 0 
L 628 4666 
z
" id="DejaVuSans-4c" transform="scale(0.015625)"/>
      </defs>
      <use xlink:href="#DejaVuSans-51"/>
      <use x="78.710938" xlink:href="#DejaVuSans-4c"/>
      <use x="134.423828" xlink:href="#DejaVuSans-44"/>
      <use x="211.425781" xlink:href="#DejaVuSans-20"/>
      <use x="243.212891" xlink:href="#DejaVuSans-28"/>
      <use x="282.226562" xlink:href="#DejaVuSans-33"/>
      <use x="345.849609" xlink:href="#DejaVuSans-2e"/>
      <use x="377.636719" xlink:href="#DejaVuSans-34"/>
      <use x="441.259766" xlink:href="#DejaVuSans-20"/>
      <use x="473.046875" xlink:href="#DejaVuSans-25"/>
      <use x="568.066406" xlink:href="#DejaVuSans-2f"/>
      <use x="601.757812" xlink:href="#DejaVuSans-77"/>
      <use x="683.544922" xlink:href="#DejaVuSans-65"/>
      <use x="745.068359" xlink:href="#DejaVuSans-65"/>
      <use x="806.591797" xlink:href="#DejaVuSans-6b"/>
      <use x="864.501953" xlink:href="#DejaVuSans-29"/>
     </g>
    </g>
    <g id="line2d_64">
     <path d="M 385.309687 116.469844 
L 403.309687 116.469844 
" style="fill:none;stroke:#9467bd;stroke-linecap:square;stroke-width:1.5;"/>
    </g>
    <g id="line2d_65"/>
    <g id="text_31">
     <!-- WA (3.8 %/week) -->
     <g transform="translate(410.509687 119.619844)scale(0.09 -0.09)">
      <use xlink:href="#DejaVuSans-57"/>
      <use x="93.376953" xlink:href="#DejaVuSans-41"/>
      <use x="161.785156" xlink:href="#DejaVuSans-20"/>
      <use x="193.572266" xlink:href="#DejaVuSans-28"/>
      <use x="232.585938" xlink:href="#DejaVuSans-33"/>
      <use x="296.208984" xlink:href="#DejaVuSans-2e"/>
      <use x="327.996094" xlink:href="#DejaVuSans-38"/>
      <use x="391.619141" xlink:href="#DejaVuSans-20"/>
      <use x="423.40625" xlink:href="#DejaVuSans-25"/>
      <use x="518.425781" xlink:href="#DejaVuSans-2f"/>
      <use x="552.117188" xlink:href="#DejaVuSans-77"/>
      <use x="633.904297" xlink:href="#DejaVuSans-65"/>
      <use x="695.427734" xlink:href="#DejaVuSans-65"/>
      <use x="756.951172" xlink:href="#DejaVuSans-6b"/>
      <use x="814.861328" xlink:href="#DejaVuSans-29"/>
     </g>
    </g>
    <g id="line2d_66">
     <path d="M 385.309687 129.680156 
L 403.309687 129.680156 
" style="fill:none;stroke:#8c564b;stroke-linecap:square;stroke-width:1.5;"/>
    </g>
    <g id="line2d_67"/>
    <g id="text_32">
     <!-- SA (3.4 %/week) -->
     <g transform="translate(410.509687 132.830156)scale(0.09 -0.09)">
      <use xlink:href="#DejaVuSans-53"/>
      <use x="65.351562" xlink:href="#DejaVuSans-41"/>
      <use x="133.759766" xlink:href="#DejaVuSans-20"/>
      <use x="165.546875" xlink:href="#DejaVuSans-28"/>
      <use x="204.560547" xlink:href="#DejaVuSans-33"/>
      <use x="268.183594" xlink:href="#DejaVuSans-2e"/>
      <use x="299.970703" xlink:href="#DejaVuSans-34"/>
      <use x="363.59375" xlink:href="#DejaVuSans-20"/>
      <use x="395.380859" xlink:href="#DejaVuSans-25"/>
      <use x="490.400391" xlink:href="#DejaVuSans-2f"/>
      <use x="524.091797" xlink:href="#DejaVuSans-77"/>
      <use x="605.878906" xlink:href="#DejaVuSans-65"/>
      <use x="667.402344" xlink:href="#DejaVuSans-65"/>
      <use x="728.925781" xlink:href="#DejaVuSans-6b"/>
      <use x="786.835938" xlink:href="#DejaVuSans-29"/>
     </g>
    </g>
    <g id="line2d_68">
     <path d="M 385.309687 142.890469 
L 403.309687 142.890469 
" style="fill:none;stroke:#e377c2;stroke-linecap:square;stroke-width:1.5;"/>
    </g>
    <g id="line2d_69"/>
    <g id="text_33">
     <!-- TAS (3.0 %/week) -->
     <g transform="translate(410.509687 146.040469)scale(0.09 -0.09)">
      <defs>
       <path d="M -19 4666 
L 3928 4666 
L 3928 4134 
L 2272 4134 
L 2272 0 
L 1638 0 
L 1638 4134 
L -19 4134 
L -19 4666 
z
" id="DejaVuSans-54" transform="scale(0.015625)"/>
      </defs>
      <use xlink:href="#DejaVuSans-54"/>
      <use x="53.333984" xlink:href="#DejaVuSans-41"/>
      <use x="121.742188" xlink:href="#DejaVuSans-53"/>
      <use x="185.21875" xlink:href="#DejaVuSans-20"/>
      <use x="217.005859" xlink:href="#DejaVuSans-28"/>
      <use x="256.019531" xlink:href="#DejaVuSans-33"/>
      <use x="319.642578" xlink:href="#DejaVuSans-2e"/>
      <use x="351.429688" xlink:href="#DejaVuSans-30"/>
      <use x="415.052734" xlink:href="#DejaVuSans-20"/>
      <use x="446.839844" xlink:href="#DejaVuSans-25"/>
      <use x="541.859375" xlink:href="#DejaVuSans-2f"/>
      <use x="575.550781" xlink:href="#DejaVuSans-77"/>
      <use x="657.337891" xlink:href="#DejaVuSans-65"/>
      <use x="718.861328" xlink:href="#DejaVuSans-65"/>
      <use x="780.384766" xlink:href="#DejaVuSans-6b"/>
      <use x="838.294922" xlink:href="#DejaVuSans-29"/>
     </g>
    </g>
    <g id="line2d_70">
     <path d="M 385.309687 156.100781 
L 403.309687 156.100781 
" style="fill:none;stroke:#7f7f7f;stroke-linecap:square;stroke-width:1.5;"/>
    </g>
    <g id="line2d_71"/>
    <g id="text_34">
     <!-- ACT (6.6 %/week) -->
     <g transform="translate(410.509687 159.250781)scale(0.09 -0.09)">
      <use xlink:href="#DejaVuSans-41"/>
      <use x="66.658203" xlink:href="#DejaVuSans-43"/>
      <use x="136.482422" xlink:href="#DejaVuSans-54"/>
      <use x="197.566406" xlink:href="#DejaVuSans-20"/>
      <use x="229.353516" xlink:href="#DejaVuSans-28"/>
      <use x="268.367188" xlink:href="#DejaVuSans-36"/>
      <use x="331.990234" xlink:href="#DejaVuSans-2e"/>
      <use x="363.777344" xlink:href="#DejaVuSans-36"/>
      <use x="427.400391" xlink:href="#DejaVuSans-20"/>
      <use x="459.1875" xlink:href="#DejaVuSans-25"/>
      <use x="554.207031" xlink:href="#DejaVuSans-2f"/>
      <use x="587.898438" xlink:href="#DejaVuSans-77"/>
      <use x="669.685547" xlink:href="#DejaVuSans-65"/>
      <use x="731.208984" xlink:href="#DejaVuSans-65"/>
      <use x="792.732422" xlink:href="#DejaVuSans-6b"/>
      <use x="850.642578" xlink:href="#DejaVuSans-29"/>
     </g>
    </g>
    <g id="line2d_72">
     <path d="M 385.309687 169.311094 
L 403.309687 169.311094 
" style="fill:none;stroke:#bcbd22;stroke-linecap:square;stroke-width:1.5;"/>
    </g>
    <g id="line2d_73"/>
    <g id="text_35">
     <!-- NT (1.7 %/week) -->
     <g transform="translate(410.509687 172.461094)scale(0.09 -0.09)">
      <use xlink:href="#DejaVuSans-4e"/>
      <use x="74.804688" xlink:href="#DejaVuSans-54"/>
      <use x="135.888672" xlink:href="#DejaVuSans-20"/>
      <use x="167.675781" xlink:href="#DejaVuSans-28"/>
      <use x="206.689453" xlink:href="#DejaVuSans-31"/>
      <use x="270.3125" xlink:href="#DejaVuSans-2e"/>
      <use x="302.099609" xlink:href="#DejaVuSans-37"/>
      <use x="365.722656" xlink:href="#DejaVuSans-20"/>
      <use x="397.509766" xlink:href="#DejaVuSans-25"/>
      <use x="492.529297" xlink:href="#DejaVuSans-2f"/>
      <use x="526.220703" xlink:href="#DejaVuSans-77"/>
      <use x="608.007812" xlink:href="#DejaVuSans-65"/>
      <use x="669.53125" xlink:href="#DejaVuSans-65"/>
      <use x="731.054688" xlink:href="#DejaVuSans-6b"/>
      <use x="788.964844" xlink:href="#DejaVuSans-29"/>
     </g>
    </g>
   </g>
  </g>
 </g>
 <defs>
  <clipPath id="p630a19415f">
   <rect height="332.64" width="446.4" x="72" y="51.84"/>
  </clipPath>
 </defs>
</svg>
