<?xml version="1.0" encoding="utf-8" standalone="no"?>
<!DOCTYPE svg PUBLIC "-//W3C//DTD SVG 1.1//EN"
  "http://www.w3.org/Graphics/SVG/1.1/DTD/svg11.dtd">
<svg height="432pt" version="1.1" viewBox="0 0 576 432" width="576pt" xmlns="http://www.w3.org/2000/svg" xmlns:xlink="http://www.w3.org/1999/xlink">
 <metadata>
  <rdf:RDF xmlns:cc="http://creativecommons.org/ns#" xmlns:dc="http://purl.org/dc/elements/1.1/" xmlns:rdf="http://www.w3.org/1999/02/22-rdf-syntax-ns#">
   <cc:Work>
    <dc:type rdf:resource="http://purl.org/dc/dcmitype/StillImage"/>
    <dc:date>2021-09-10T06:48:01.220767</dc:date>
    <dc:format>image/svg+xml</dc:format>
    <dc:creator>
     <cc:Agent>
      <dc:title>Matplotlib v3.4.3, https://matplotlib.org/</dc:title>
     </cc:Agent>
    </dc:creator>
   </cc:Work>
  </rdf:RDF>
 </metadata>
 <defs>
  <style type="text/css">*{stroke-linecap:butt;stroke-linejoin:round;}</style>
 </defs>
 <g id="figure_1">
  <g id="patch_1">
   <path d="M 0 432 
L 576 432 
L 576 0 
L 0 0 
z
" style="fill:#ffffff;"/>
  </g>
  <g id="axes_1">
   <g id="patch_2">
    <path d="M 72 384.48 
L 518.4 384.48 
L 518.4 51.84 
L 72 51.84 
z
" style="fill:#ffffff;"/>
   </g>
   <g id="matplotlib.axis_1">
    <g id="xtick_1">
     <g id="line2d_1">
      <path clip-path="url(#pb42b4c4f7a)" d="M 72 384.48 
L 72 51.84 
" style="fill:none;stroke:#000000;stroke-dasharray:0.8,1.32;stroke-dashoffset:0;stroke-opacity:0.5;stroke-width:0.8;"/>
     </g>
     <g id="line2d_2">
      <defs>
       <path d="M 0 0 
L 0 3.5 
" id="m816cb79053" style="stroke:#000000;stroke-width:0.8;"/>
      </defs>
      <g>
       <use style="stroke:#000000;stroke-width:0.8;" x="72" xlink:href="#m816cb79053" y="384.48"/>
      </g>
     </g>
     <g id="text_1">
      <!-- 15 -->
      <g transform="translate(65.6375 399.078438)scale(0.1 -0.1)">
       <defs>
        <path d="M 794 531 
L 1825 531 
L 1825 4091 
L 703 3866 
L 703 4441 
L 1819 4666 
L 2450 4666 
L 2450 531 
L 3481 531 
L 3481 0 
L 794 0 
L 794 531 
z
" id="DejaVuSans-31" transform="scale(0.015625)"/>
        <path d="M 691 4666 
L 3169 4666 
L 3169 4134 
L 1269 4134 
L 1269 2991 
Q 1406 3038 1543 3061 
Q 1681 3084 1819 3084 
Q 2600 3084 3056 2656 
Q 3513 2228 3513 1497 
Q 3513 744 3044 326 
Q 2575 -91 1722 -91 
Q 1428 -91 1123 -41 
Q 819 9 494 109 
L 494 744 
Q 775 591 1075 516 
Q 1375 441 1709 441 
Q 2250 441 2565 725 
Q 2881 1009 2881 1497 
Q 2881 1984 2565 2268 
Q 2250 2553 1709 2553 
Q 1456 2553 1204 2497 
Q 953 2441 691 2322 
L 691 4666 
z
" id="DejaVuSans-35" transform="scale(0.015625)"/>
       </defs>
       <use xlink:href="#DejaVuSans-31"/>
       <use x="63.623047" xlink:href="#DejaVuSans-35"/>
      </g>
     </g>
    </g>
    <g id="xtick_2">
     <g id="line2d_3">
      <path clip-path="url(#pb42b4c4f7a)" d="M 116.64 384.48 
L 116.64 51.84 
" style="fill:none;stroke:#000000;stroke-dasharray:0.8,1.32;stroke-dashoffset:0;stroke-opacity:0.5;stroke-width:0.8;"/>
     </g>
     <g id="line2d_4">
      <g>
       <use style="stroke:#000000;stroke-width:0.8;" x="116.64" xlink:href="#m816cb79053" y="384.48"/>
      </g>
     </g>
     <g id="text_2">
      <!-- Aug -->
      <g transform="translate(106.876719 399.078438)scale(0.1 -0.1)">
       <defs>
        <path d="M 2188 4044 
L 1331 1722 
L 3047 1722 
L 2188 4044 
z
M 1831 4666 
L 2547 4666 
L 4325 0 
L 3669 0 
L 3244 1197 
L 1141 1197 
L 716 0 
L 50 0 
L 1831 4666 
z
" id="DejaVuSans-41" transform="scale(0.015625)"/>
        <path d="M 544 1381 
L 544 3500 
L 1119 3500 
L 1119 1403 
Q 1119 906 1312 657 
Q 1506 409 1894 409 
Q 2359 409 2629 706 
Q 2900 1003 2900 1516 
L 2900 3500 
L 3475 3500 
L 3475 0 
L 2900 0 
L 2900 538 
Q 2691 219 2414 64 
Q 2138 -91 1772 -91 
Q 1169 -91 856 284 
Q 544 659 544 1381 
z
M 1991 3584 
L 1991 3584 
z
" id="DejaVuSans-75" transform="scale(0.015625)"/>
        <path d="M 2906 1791 
Q 2906 2416 2648 2759 
Q 2391 3103 1925 3103 
Q 1463 3103 1205 2759 
Q 947 2416 947 1791 
Q 947 1169 1205 825 
Q 1463 481 1925 481 
Q 2391 481 2648 825 
Q 2906 1169 2906 1791 
z
M 3481 434 
Q 3481 -459 3084 -895 
Q 2688 -1331 1869 -1331 
Q 1566 -1331 1297 -1286 
Q 1028 -1241 775 -1147 
L 775 -588 
Q 1028 -725 1275 -790 
Q 1522 -856 1778 -856 
Q 2344 -856 2625 -561 
Q 2906 -266 2906 331 
L 2906 616 
Q 2728 306 2450 153 
Q 2172 0 1784 0 
Q 1141 0 747 490 
Q 353 981 353 1791 
Q 353 2603 747 3093 
Q 1141 3584 1784 3584 
Q 2172 3584 2450 3431 
Q 2728 3278 2906 2969 
L 2906 3500 
L 3481 3500 
L 3481 434 
z
" id="DejaVuSans-67" transform="scale(0.015625)"/>
       </defs>
       <use xlink:href="#DejaVuSans-41"/>
       <use x="68.408203" xlink:href="#DejaVuSans-75"/>
       <use x="131.787109" xlink:href="#DejaVuSans-67"/>
      </g>
     </g>
    </g>
    <g id="xtick_3">
     <g id="line2d_5">
      <path clip-path="url(#pb42b4c4f7a)" d="M 153.402353 384.48 
L 153.402353 51.84 
" style="fill:none;stroke:#000000;stroke-dasharray:0.8,1.32;stroke-dashoffset:0;stroke-opacity:0.5;stroke-width:0.8;"/>
     </g>
     <g id="line2d_6">
      <g>
       <use style="stroke:#000000;stroke-width:0.8;" x="153.402353" xlink:href="#m816cb79053" y="384.48"/>
      </g>
     </g>
     <g id="text_3">
      <!-- 15 -->
      <g transform="translate(147.039853 399.078438)scale(0.1 -0.1)">
       <use xlink:href="#DejaVuSans-31"/>
       <use x="63.623047" xlink:href="#DejaVuSans-35"/>
      </g>
     </g>
    </g>
    <g id="xtick_4">
     <g id="line2d_7">
      <path clip-path="url(#pb42b4c4f7a)" d="M 198.042353 384.48 
L 198.042353 51.84 
" style="fill:none;stroke:#000000;stroke-dasharray:0.8,1.32;stroke-dashoffset:0;stroke-opacity:0.5;stroke-width:0.8;"/>
     </g>
     <g id="line2d_8">
      <g>
       <use style="stroke:#000000;stroke-width:0.8;" x="198.042353" xlink:href="#m816cb79053" y="384.48"/>
      </g>
     </g>
     <g id="text_4">
      <!-- Sep -->
      <g transform="translate(188.617353 399.078438)scale(0.1 -0.1)">
       <defs>
        <path d="M 3425 4513 
L 3425 3897 
Q 3066 4069 2747 4153 
Q 2428 4238 2131 4238 
Q 1616 4238 1336 4038 
Q 1056 3838 1056 3469 
Q 1056 3159 1242 3001 
Q 1428 2844 1947 2747 
L 2328 2669 
Q 3034 2534 3370 2195 
Q 3706 1856 3706 1288 
Q 3706 609 3251 259 
Q 2797 -91 1919 -91 
Q 1588 -91 1214 -16 
Q 841 59 441 206 
L 441 856 
Q 825 641 1194 531 
Q 1563 422 1919 422 
Q 2459 422 2753 634 
Q 3047 847 3047 1241 
Q 3047 1584 2836 1778 
Q 2625 1972 2144 2069 
L 1759 2144 
Q 1053 2284 737 2584 
Q 422 2884 422 3419 
Q 422 4038 858 4394 
Q 1294 4750 2059 4750 
Q 2388 4750 2728 4690 
Q 3069 4631 3425 4513 
z
" id="DejaVuSans-53" transform="scale(0.015625)"/>
        <path d="M 3597 1894 
L 3597 1613 
L 953 1613 
Q 991 1019 1311 708 
Q 1631 397 2203 397 
Q 2534 397 2845 478 
Q 3156 559 3463 722 
L 3463 178 
Q 3153 47 2828 -22 
Q 2503 -91 2169 -91 
Q 1331 -91 842 396 
Q 353 884 353 1716 
Q 353 2575 817 3079 
Q 1281 3584 2069 3584 
Q 2775 3584 3186 3129 
Q 3597 2675 3597 1894 
z
M 3022 2063 
Q 3016 2534 2758 2815 
Q 2500 3097 2075 3097 
Q 1594 3097 1305 2825 
Q 1016 2553 972 2059 
L 3022 2063 
z
" id="DejaVuSans-65" transform="scale(0.015625)"/>
        <path d="M 1159 525 
L 1159 -1331 
L 581 -1331 
L 581 3500 
L 1159 3500 
L 1159 2969 
Q 1341 3281 1617 3432 
Q 1894 3584 2278 3584 
Q 2916 3584 3314 3078 
Q 3713 2572 3713 1747 
Q 3713 922 3314 415 
Q 2916 -91 2278 -91 
Q 1894 -91 1617 61 
Q 1341 213 1159 525 
z
M 3116 1747 
Q 3116 2381 2855 2742 
Q 2594 3103 2138 3103 
Q 1681 3103 1420 2742 
Q 1159 2381 1159 1747 
Q 1159 1113 1420 752 
Q 1681 391 2138 391 
Q 2594 391 2855 752 
Q 3116 1113 3116 1747 
z
" id="DejaVuSans-70" transform="scale(0.015625)"/>
       </defs>
       <use xlink:href="#DejaVuSans-53"/>
       <use x="63.476562" xlink:href="#DejaVuSans-65"/>
       <use x="125" xlink:href="#DejaVuSans-70"/>
      </g>
     </g>
    </g>
    <g id="xtick_5">
     <g id="line2d_9">
      <path clip-path="url(#pb42b4c4f7a)" d="M 234.804706 384.48 
L 234.804706 51.84 
" style="fill:none;stroke:#000000;stroke-dasharray:0.8,1.32;stroke-dashoffset:0;stroke-opacity:0.5;stroke-width:0.8;"/>
     </g>
     <g id="line2d_10">
      <g>
       <use style="stroke:#000000;stroke-width:0.8;" x="234.804706" xlink:href="#m816cb79053" y="384.48"/>
      </g>
     </g>
     <g id="text_5">
      <!-- 15 -->
      <g transform="translate(228.442206 399.078438)scale(0.1 -0.1)">
       <use xlink:href="#DejaVuSans-31"/>
       <use x="63.623047" xlink:href="#DejaVuSans-35"/>
      </g>
     </g>
    </g>
    <g id="xtick_6">
     <g id="line2d_11">
      <path clip-path="url(#pb42b4c4f7a)" d="M 276.818824 384.48 
L 276.818824 51.84 
" style="fill:none;stroke:#000000;stroke-dasharray:0.8,1.32;stroke-dashoffset:0;stroke-opacity:0.5;stroke-width:0.8;"/>
     </g>
     <g id="line2d_12">
      <g>
       <use style="stroke:#000000;stroke-width:0.8;" x="276.818824" xlink:href="#m816cb79053" y="384.48"/>
      </g>
     </g>
     <g id="text_6">
      <!-- Oct -->
      <g transform="translate(268.173511 399.078438)scale(0.1 -0.1)">
       <defs>
        <path d="M 2522 4238 
Q 1834 4238 1429 3725 
Q 1025 3213 1025 2328 
Q 1025 1447 1429 934 
Q 1834 422 2522 422 
Q 3209 422 3611 934 
Q 4013 1447 4013 2328 
Q 4013 3213 3611 3725 
Q 3209 4238 2522 4238 
z
M 2522 4750 
Q 3503 4750 4090 4092 
Q 4678 3434 4678 2328 
Q 4678 1225 4090 567 
Q 3503 -91 2522 -91 
Q 1538 -91 948 565 
Q 359 1222 359 2328 
Q 359 3434 948 4092 
Q 1538 4750 2522 4750 
z
" id="DejaVuSans-4f" transform="scale(0.015625)"/>
        <path d="M 3122 3366 
L 3122 2828 
Q 2878 2963 2633 3030 
Q 2388 3097 2138 3097 
Q 1578 3097 1268 2742 
Q 959 2388 959 1747 
Q 959 1106 1268 751 
Q 1578 397 2138 397 
Q 2388 397 2633 464 
Q 2878 531 3122 666 
L 3122 134 
Q 2881 22 2623 -34 
Q 2366 -91 2075 -91 
Q 1284 -91 818 406 
Q 353 903 353 1747 
Q 353 2603 823 3093 
Q 1294 3584 2113 3584 
Q 2378 3584 2631 3529 
Q 2884 3475 3122 3366 
z
" id="DejaVuSans-63" transform="scale(0.015625)"/>
        <path d="M 1172 4494 
L 1172 3500 
L 2356 3500 
L 2356 3053 
L 1172 3053 
L 1172 1153 
Q 1172 725 1289 603 
Q 1406 481 1766 481 
L 2356 481 
L 2356 0 
L 1766 0 
Q 1100 0 847 248 
Q 594 497 594 1153 
L 594 3053 
L 172 3053 
L 172 3500 
L 594 3500 
L 594 4494 
L 1172 4494 
z
" id="DejaVuSans-74" transform="scale(0.015625)"/>
       </defs>
       <use xlink:href="#DejaVuSans-4f"/>
       <use x="78.710938" xlink:href="#DejaVuSans-63"/>
       <use x="133.691406" xlink:href="#DejaVuSans-74"/>
      </g>
     </g>
    </g>
    <g id="xtick_7">
     <g id="line2d_13">
      <path clip-path="url(#pb42b4c4f7a)" d="M 313.581176 384.48 
L 313.581176 51.84 
" style="fill:none;stroke:#000000;stroke-dasharray:0.8,1.32;stroke-dashoffset:0;stroke-opacity:0.5;stroke-width:0.8;"/>
     </g>
     <g id="line2d_14">
      <g>
       <use style="stroke:#000000;stroke-width:0.8;" x="313.581176" xlink:href="#m816cb79053" y="384.48"/>
      </g>
     </g>
     <g id="text_7">
      <!-- 15 -->
      <g transform="translate(307.218676 399.078438)scale(0.1 -0.1)">
       <use xlink:href="#DejaVuSans-31"/>
       <use x="63.623047" xlink:href="#DejaVuSans-35"/>
      </g>
     </g>
    </g>
    <g id="xtick_8">
     <g id="line2d_15">
      <path clip-path="url(#pb42b4c4f7a)" d="M 358.221176 384.48 
L 358.221176 51.84 
" style="fill:none;stroke:#000000;stroke-dasharray:0.8,1.32;stroke-dashoffset:0;stroke-opacity:0.5;stroke-width:0.8;"/>
     </g>
     <g id="line2d_16">
      <g>
       <use style="stroke:#000000;stroke-width:0.8;" x="358.221176" xlink:href="#m816cb79053" y="384.48"/>
      </g>
     </g>
     <g id="text_8">
      <!-- Nov -->
      <g transform="translate(348.461801 399.078438)scale(0.1 -0.1)">
       <defs>
        <path d="M 628 4666 
L 1478 4666 
L 3547 763 
L 3547 4666 
L 4159 4666 
L 4159 0 
L 3309 0 
L 1241 3903 
L 1241 0 
L 628 0 
L 628 4666 
z
" id="DejaVuSans-4e" transform="scale(0.015625)"/>
        <path d="M 1959 3097 
Q 1497 3097 1228 2736 
Q 959 2375 959 1747 
Q 959 1119 1226 758 
Q 1494 397 1959 397 
Q 2419 397 2687 759 
Q 2956 1122 2956 1747 
Q 2956 2369 2687 2733 
Q 2419 3097 1959 3097 
z
M 1959 3584 
Q 2709 3584 3137 3096 
Q 3566 2609 3566 1747 
Q 3566 888 3137 398 
Q 2709 -91 1959 -91 
Q 1206 -91 779 398 
Q 353 888 353 1747 
Q 353 2609 779 3096 
Q 1206 3584 1959 3584 
z
" id="DejaVuSans-6f" transform="scale(0.015625)"/>
        <path d="M 191 3500 
L 800 3500 
L 1894 563 
L 2988 3500 
L 3597 3500 
L 2284 0 
L 1503 0 
L 191 3500 
z
" id="DejaVuSans-76" transform="scale(0.015625)"/>
       </defs>
       <use xlink:href="#DejaVuSans-4e"/>
       <use x="74.804688" xlink:href="#DejaVuSans-6f"/>
       <use x="135.986328" xlink:href="#DejaVuSans-76"/>
      </g>
     </g>
    </g>
    <g id="xtick_9">
     <g id="line2d_17">
      <path clip-path="url(#pb42b4c4f7a)" d="M 394.983529 384.48 
L 394.983529 51.84 
" style="fill:none;stroke:#000000;stroke-dasharray:0.8,1.32;stroke-dashoffset:0;stroke-opacity:0.5;stroke-width:0.8;"/>
     </g>
     <g id="line2d_18">
      <g>
       <use style="stroke:#000000;stroke-width:0.8;" x="394.983529" xlink:href="#m816cb79053" y="384.48"/>
      </g>
     </g>
     <g id="text_9">
      <!-- 15 -->
      <g transform="translate(388.621029 399.078438)scale(0.1 -0.1)">
       <use xlink:href="#DejaVuSans-31"/>
       <use x="63.623047" xlink:href="#DejaVuSans-35"/>
      </g>
     </g>
    </g>
    <g id="xtick_10">
     <g id="line2d_19">
      <path clip-path="url(#pb42b4c4f7a)" d="M 436.997647 384.48 
L 436.997647 51.84 
" style="fill:none;stroke:#000000;stroke-dasharray:0.8,1.32;stroke-dashoffset:0;stroke-opacity:0.5;stroke-width:0.8;"/>
     </g>
     <g id="line2d_20">
      <g>
       <use style="stroke:#000000;stroke-width:0.8;" x="436.997647" xlink:href="#m816cb79053" y="384.48"/>
      </g>
     </g>
     <g id="text_10">
      <!-- Dec -->
      <g transform="translate(427.321866 399.078438)scale(0.1 -0.1)">
       <defs>
        <path d="M 1259 4147 
L 1259 519 
L 2022 519 
Q 2988 519 3436 956 
Q 3884 1394 3884 2338 
Q 3884 3275 3436 3711 
Q 2988 4147 2022 4147 
L 1259 4147 
z
M 628 4666 
L 1925 4666 
Q 3281 4666 3915 4102 
Q 4550 3538 4550 2338 
Q 4550 1131 3912 565 
Q 3275 0 1925 0 
L 628 0 
L 628 4666 
z
" id="DejaVuSans-44" transform="scale(0.015625)"/>
       </defs>
       <use xlink:href="#DejaVuSans-44"/>
       <use x="77.001953" xlink:href="#DejaVuSans-65"/>
       <use x="138.525391" xlink:href="#DejaVuSans-63"/>
      </g>
     </g>
    </g>
    <g id="xtick_11">
     <g id="line2d_21">
      <path clip-path="url(#pb42b4c4f7a)" d="M 473.76 384.48 
L 473.76 51.84 
" style="fill:none;stroke:#000000;stroke-dasharray:0.8,1.32;stroke-dashoffset:0;stroke-opacity:0.5;stroke-width:0.8;"/>
     </g>
     <g id="line2d_22">
      <g>
       <use style="stroke:#000000;stroke-width:0.8;" x="473.76" xlink:href="#m816cb79053" y="384.48"/>
      </g>
     </g>
     <g id="text_11">
      <!-- 15 -->
      <g transform="translate(467.3975 399.078438)scale(0.1 -0.1)">
       <use xlink:href="#DejaVuSans-31"/>
       <use x="63.623047" xlink:href="#DejaVuSans-35"/>
      </g>
     </g>
    </g>
    <g id="xtick_12">
     <g id="line2d_23">
      <path clip-path="url(#pb42b4c4f7a)" d="M 518.4 384.48 
L 518.4 51.84 
" style="fill:none;stroke:#000000;stroke-dasharray:0.8,1.32;stroke-dashoffset:0;stroke-opacity:0.5;stroke-width:0.8;"/>
     </g>
     <g id="line2d_24">
      <g>
       <use style="stroke:#000000;stroke-width:0.8;" x="518.4" xlink:href="#m816cb79053" y="384.48"/>
      </g>
     </g>
     <g id="text_12">
      <!-- Jan -->
      <g transform="translate(510.692188 399.078438)scale(0.1 -0.1)">
       <defs>
        <path d="M 628 4666 
L 1259 4666 
L 1259 325 
Q 1259 -519 939 -900 
Q 619 -1281 -91 -1281 
L -331 -1281 
L -331 -750 
L -134 -750 
Q 284 -750 456 -515 
Q 628 -281 628 325 
L 628 4666 
z
" id="DejaVuSans-4a" transform="scale(0.015625)"/>
        <path d="M 2194 1759 
Q 1497 1759 1228 1600 
Q 959 1441 959 1056 
Q 959 750 1161 570 
Q 1363 391 1709 391 
Q 2188 391 2477 730 
Q 2766 1069 2766 1631 
L 2766 1759 
L 2194 1759 
z
M 3341 1997 
L 3341 0 
L 2766 0 
L 2766 531 
Q 2569 213 2275 61 
Q 1981 -91 1556 -91 
Q 1019 -91 701 211 
Q 384 513 384 1019 
Q 384 1609 779 1909 
Q 1175 2209 1959 2209 
L 2766 2209 
L 2766 2266 
Q 2766 2663 2505 2880 
Q 2244 3097 1772 3097 
Q 1472 3097 1187 3025 
Q 903 2953 641 2809 
L 641 3341 
Q 956 3463 1253 3523 
Q 1550 3584 1831 3584 
Q 2591 3584 2966 3190 
Q 3341 2797 3341 1997 
z
" id="DejaVuSans-61" transform="scale(0.015625)"/>
        <path d="M 3513 2113 
L 3513 0 
L 2938 0 
L 2938 2094 
Q 2938 2591 2744 2837 
Q 2550 3084 2163 3084 
Q 1697 3084 1428 2787 
Q 1159 2491 1159 1978 
L 1159 0 
L 581 0 
L 581 3500 
L 1159 3500 
L 1159 2956 
Q 1366 3272 1645 3428 
Q 1925 3584 2291 3584 
Q 2894 3584 3203 3211 
Q 3513 2838 3513 2113 
z
" id="DejaVuSans-6e" transform="scale(0.015625)"/>
       </defs>
       <use xlink:href="#DejaVuSans-4a"/>
       <use x="29.492188" xlink:href="#DejaVuSans-61"/>
       <use x="90.771484" xlink:href="#DejaVuSans-6e"/>
      </g>
     </g>
    </g>
    <g id="text_13">
     <!-- 2022-Jan -->
     <g transform="translate(473.364062 411.756563)scale(0.1 -0.1)">
      <defs>
       <path d="M 1228 531 
L 3431 531 
L 3431 0 
L 469 0 
L 469 531 
Q 828 903 1448 1529 
Q 2069 2156 2228 2338 
Q 2531 2678 2651 2914 
Q 2772 3150 2772 3378 
Q 2772 3750 2511 3984 
Q 2250 4219 1831 4219 
Q 1534 4219 1204 4116 
Q 875 4013 500 3803 
L 500 4441 
Q 881 4594 1212 4672 
Q 1544 4750 1819 4750 
Q 2544 4750 2975 4387 
Q 3406 4025 3406 3419 
Q 3406 3131 3298 2873 
Q 3191 2616 2906 2266 
Q 2828 2175 2409 1742 
Q 1991 1309 1228 531 
z
" id="DejaVuSans-32" transform="scale(0.015625)"/>
       <path d="M 2034 4250 
Q 1547 4250 1301 3770 
Q 1056 3291 1056 2328 
Q 1056 1369 1301 889 
Q 1547 409 2034 409 
Q 2525 409 2770 889 
Q 3016 1369 3016 2328 
Q 3016 3291 2770 3770 
Q 2525 4250 2034 4250 
z
M 2034 4750 
Q 2819 4750 3233 4129 
Q 3647 3509 3647 2328 
Q 3647 1150 3233 529 
Q 2819 -91 2034 -91 
Q 1250 -91 836 529 
Q 422 1150 422 2328 
Q 422 3509 836 4129 
Q 1250 4750 2034 4750 
z
" id="DejaVuSans-30" transform="scale(0.015625)"/>
       <path d="M 313 2009 
L 1997 2009 
L 1997 1497 
L 313 1497 
L 313 2009 
z
" id="DejaVuSans-2d" transform="scale(0.015625)"/>
      </defs>
      <use xlink:href="#DejaVuSans-32"/>
      <use x="63.623047" xlink:href="#DejaVuSans-30"/>
      <use x="127.246094" xlink:href="#DejaVuSans-32"/>
      <use x="190.869141" xlink:href="#DejaVuSans-32"/>
      <use x="254.492188" xlink:href="#DejaVuSans-2d"/>
      <use x="296.201172" xlink:href="#DejaVuSans-4a"/>
      <use x="325.693359" xlink:href="#DejaVuSans-61"/>
      <use x="386.972656" xlink:href="#DejaVuSans-6e"/>
     </g>
    </g>
   </g>
   <g id="matplotlib.axis_2">
    <g id="ytick_1">
     <g id="line2d_25">
      <path clip-path="url(#pb42b4c4f7a)" d="M 72 384.48 
L 518.4 384.48 
" style="fill:none;stroke:#000000;stroke-dasharray:0.8,1.32;stroke-dashoffset:0;stroke-opacity:0.5;stroke-width:0.8;"/>
     </g>
     <g id="line2d_26">
      <defs>
       <path d="M 0 0 
L -3.5 0 
" id="m239ada6d03" style="stroke:#000000;stroke-width:0.8;"/>
      </defs>
      <g>
       <use style="stroke:#000000;stroke-width:0.8;" x="72" xlink:href="#m239ada6d03" y="384.48"/>
      </g>
     </g>
     <g id="text_14">
      <!-- 0 -->
      <g transform="translate(58.6375 388.279219)scale(0.1 -0.1)">
       <use xlink:href="#DejaVuSans-30"/>
      </g>
     </g>
    </g>
    <g id="ytick_2">
     <g id="line2d_27">
      <path clip-path="url(#pb42b4c4f7a)" d="M 72 351.216 
L 518.4 351.216 
" style="fill:none;stroke:#000000;stroke-dasharray:0.8,1.32;stroke-dashoffset:0;stroke-opacity:0.5;stroke-width:0.8;"/>
     </g>
     <g id="line2d_28">
      <g>
       <use style="stroke:#000000;stroke-width:0.8;" x="72" xlink:href="#m239ada6d03" y="351.216"/>
      </g>
     </g>
     <g id="text_15">
      <!-- 10 -->
      <g transform="translate(52.275 355.015219)scale(0.1 -0.1)">
       <use xlink:href="#DejaVuSans-31"/>
       <use x="63.623047" xlink:href="#DejaVuSans-30"/>
      </g>
     </g>
    </g>
    <g id="ytick_3">
     <g id="line2d_29">
      <path clip-path="url(#pb42b4c4f7a)" d="M 72 317.952 
L 518.4 317.952 
" style="fill:none;stroke:#000000;stroke-dasharray:0.8,1.32;stroke-dashoffset:0;stroke-opacity:0.5;stroke-width:0.8;"/>
     </g>
     <g id="line2d_30">
      <g>
       <use style="stroke:#000000;stroke-width:0.8;" x="72" xlink:href="#m239ada6d03" y="317.952"/>
      </g>
     </g>
     <g id="text_16">
      <!-- 20 -->
      <g transform="translate(52.275 321.751219)scale(0.1 -0.1)">
       <use xlink:href="#DejaVuSans-32"/>
       <use x="63.623047" xlink:href="#DejaVuSans-30"/>
      </g>
     </g>
    </g>
    <g id="ytick_4">
     <g id="line2d_31">
      <path clip-path="url(#pb42b4c4f7a)" d="M 72 284.688 
L 518.4 284.688 
" style="fill:none;stroke:#000000;stroke-dasharray:0.8,1.32;stroke-dashoffset:0;stroke-opacity:0.5;stroke-width:0.8;"/>
     </g>
     <g id="line2d_32">
      <g>
       <use style="stroke:#000000;stroke-width:0.8;" x="72" xlink:href="#m239ada6d03" y="284.688"/>
      </g>
     </g>
     <g id="text_17">
      <!-- 30 -->
      <g transform="translate(52.275 288.487219)scale(0.1 -0.1)">
       <defs>
        <path d="M 2597 2516 
Q 3050 2419 3304 2112 
Q 3559 1806 3559 1356 
Q 3559 666 3084 287 
Q 2609 -91 1734 -91 
Q 1441 -91 1130 -33 
Q 819 25 488 141 
L 488 750 
Q 750 597 1062 519 
Q 1375 441 1716 441 
Q 2309 441 2620 675 
Q 2931 909 2931 1356 
Q 2931 1769 2642 2001 
Q 2353 2234 1838 2234 
L 1294 2234 
L 1294 2753 
L 1863 2753 
Q 2328 2753 2575 2939 
Q 2822 3125 2822 3475 
Q 2822 3834 2567 4026 
Q 2313 4219 1838 4219 
Q 1578 4219 1281 4162 
Q 984 4106 628 3988 
L 628 4550 
Q 988 4650 1302 4700 
Q 1616 4750 1894 4750 
Q 2613 4750 3031 4423 
Q 3450 4097 3450 3541 
Q 3450 3153 3228 2886 
Q 3006 2619 2597 2516 
z
" id="DejaVuSans-33" transform="scale(0.015625)"/>
       </defs>
       <use xlink:href="#DejaVuSans-33"/>
       <use x="63.623047" xlink:href="#DejaVuSans-30"/>
      </g>
     </g>
    </g>
    <g id="ytick_5">
     <g id="line2d_33">
      <path clip-path="url(#pb42b4c4f7a)" d="M 72 251.424 
L 518.4 251.424 
" style="fill:none;stroke:#000000;stroke-dasharray:0.8,1.32;stroke-dashoffset:0;stroke-opacity:0.5;stroke-width:0.8;"/>
     </g>
     <g id="line2d_34">
      <g>
       <use style="stroke:#000000;stroke-width:0.8;" x="72" xlink:href="#m239ada6d03" y="251.424"/>
      </g>
     </g>
     <g id="text_18">
      <!-- 40 -->
      <g transform="translate(52.275 255.223219)scale(0.1 -0.1)">
       <defs>
        <path d="M 2419 4116 
L 825 1625 
L 2419 1625 
L 2419 4116 
z
M 2253 4666 
L 3047 4666 
L 3047 1625 
L 3713 1625 
L 3713 1100 
L 3047 1100 
L 3047 0 
L 2419 0 
L 2419 1100 
L 313 1100 
L 313 1709 
L 2253 4666 
z
" id="DejaVuSans-34" transform="scale(0.015625)"/>
       </defs>
       <use xlink:href="#DejaVuSans-34"/>
       <use x="63.623047" xlink:href="#DejaVuSans-30"/>
      </g>
     </g>
    </g>
    <g id="ytick_6">
     <g id="line2d_35">
      <path clip-path="url(#pb42b4c4f7a)" d="M 72 218.16 
L 518.4 218.16 
" style="fill:none;stroke:#000000;stroke-dasharray:0.8,1.32;stroke-dashoffset:0;stroke-opacity:0.5;stroke-width:0.8;"/>
     </g>
     <g id="line2d_36">
      <g>
       <use style="stroke:#000000;stroke-width:0.8;" x="72" xlink:href="#m239ada6d03" y="218.16"/>
      </g>
     </g>
     <g id="text_19">
      <!-- 50 -->
      <g transform="translate(52.275 221.959219)scale(0.1 -0.1)">
       <use xlink:href="#DejaVuSans-35"/>
       <use x="63.623047" xlink:href="#DejaVuSans-30"/>
      </g>
     </g>
    </g>
    <g id="ytick_7">
     <g id="line2d_37">
      <path clip-path="url(#pb42b4c4f7a)" d="M 72 184.896 
L 518.4 184.896 
" style="fill:none;stroke:#000000;stroke-dasharray:0.8,1.32;stroke-dashoffset:0;stroke-opacity:0.5;stroke-width:0.8;"/>
     </g>
     <g id="line2d_38">
      <g>
       <use style="stroke:#000000;stroke-width:0.8;" x="72" xlink:href="#m239ada6d03" y="184.896"/>
      </g>
     </g>
     <g id="text_20">
      <!-- 60 -->
      <g transform="translate(52.275 188.695219)scale(0.1 -0.1)">
       <defs>
        <path d="M 2113 2584 
Q 1688 2584 1439 2293 
Q 1191 2003 1191 1497 
Q 1191 994 1439 701 
Q 1688 409 2113 409 
Q 2538 409 2786 701 
Q 3034 994 3034 1497 
Q 3034 2003 2786 2293 
Q 2538 2584 2113 2584 
z
M 3366 4563 
L 3366 3988 
Q 3128 4100 2886 4159 
Q 2644 4219 2406 4219 
Q 1781 4219 1451 3797 
Q 1122 3375 1075 2522 
Q 1259 2794 1537 2939 
Q 1816 3084 2150 3084 
Q 2853 3084 3261 2657 
Q 3669 2231 3669 1497 
Q 3669 778 3244 343 
Q 2819 -91 2113 -91 
Q 1303 -91 875 529 
Q 447 1150 447 2328 
Q 447 3434 972 4092 
Q 1497 4750 2381 4750 
Q 2619 4750 2861 4703 
Q 3103 4656 3366 4563 
z
" id="DejaVuSans-36" transform="scale(0.015625)"/>
       </defs>
       <use xlink:href="#DejaVuSans-36"/>
       <use x="63.623047" xlink:href="#DejaVuSans-30"/>
      </g>
     </g>
    </g>
    <g id="ytick_8">
     <g id="line2d_39">
      <path clip-path="url(#pb42b4c4f7a)" d="M 72 151.632 
L 518.4 151.632 
" style="fill:none;stroke:#000000;stroke-dasharray:0.8,1.32;stroke-dashoffset:0;stroke-opacity:0.5;stroke-width:0.8;"/>
     </g>
     <g id="line2d_40">
      <g>
       <use style="stroke:#000000;stroke-width:0.8;" x="72" xlink:href="#m239ada6d03" y="151.632"/>
      </g>
     </g>
     <g id="text_21">
      <!-- 70 -->
      <g transform="translate(52.275 155.431219)scale(0.1 -0.1)">
       <defs>
        <path d="M 525 4666 
L 3525 4666 
L 3525 4397 
L 1831 0 
L 1172 0 
L 2766 4134 
L 525 4134 
L 525 4666 
z
" id="DejaVuSans-37" transform="scale(0.015625)"/>
       </defs>
       <use xlink:href="#DejaVuSans-37"/>
       <use x="63.623047" xlink:href="#DejaVuSans-30"/>
      </g>
     </g>
    </g>
    <g id="ytick_9">
     <g id="line2d_41">
      <path clip-path="url(#pb42b4c4f7a)" d="M 72 118.368 
L 518.4 118.368 
" style="fill:none;stroke:#000000;stroke-dasharray:0.8,1.32;stroke-dashoffset:0;stroke-opacity:0.5;stroke-width:0.8;"/>
     </g>
     <g id="line2d_42">
      <g>
       <use style="stroke:#000000;stroke-width:0.8;" x="72" xlink:href="#m239ada6d03" y="118.368"/>
      </g>
     </g>
     <g id="text_22">
      <!-- 80 -->
      <g transform="translate(52.275 122.167219)scale(0.1 -0.1)">
       <defs>
        <path d="M 2034 2216 
Q 1584 2216 1326 1975 
Q 1069 1734 1069 1313 
Q 1069 891 1326 650 
Q 1584 409 2034 409 
Q 2484 409 2743 651 
Q 3003 894 3003 1313 
Q 3003 1734 2745 1975 
Q 2488 2216 2034 2216 
z
M 1403 2484 
Q 997 2584 770 2862 
Q 544 3141 544 3541 
Q 544 4100 942 4425 
Q 1341 4750 2034 4750 
Q 2731 4750 3128 4425 
Q 3525 4100 3525 3541 
Q 3525 3141 3298 2862 
Q 3072 2584 2669 2484 
Q 3125 2378 3379 2068 
Q 3634 1759 3634 1313 
Q 3634 634 3220 271 
Q 2806 -91 2034 -91 
Q 1263 -91 848 271 
Q 434 634 434 1313 
Q 434 1759 690 2068 
Q 947 2378 1403 2484 
z
M 1172 3481 
Q 1172 3119 1398 2916 
Q 1625 2713 2034 2713 
Q 2441 2713 2670 2916 
Q 2900 3119 2900 3481 
Q 2900 3844 2670 4047 
Q 2441 4250 2034 4250 
Q 1625 4250 1398 4047 
Q 1172 3844 1172 3481 
z
" id="DejaVuSans-38" transform="scale(0.015625)"/>
       </defs>
       <use xlink:href="#DejaVuSans-38"/>
       <use x="63.623047" xlink:href="#DejaVuSans-30"/>
      </g>
     </g>
    </g>
    <g id="ytick_10">
     <g id="line2d_43">
      <path clip-path="url(#pb42b4c4f7a)" d="M 72 85.104 
L 518.4 85.104 
" style="fill:none;stroke:#000000;stroke-dasharray:0.8,1.32;stroke-dashoffset:0;stroke-opacity:0.5;stroke-width:0.8;"/>
     </g>
     <g id="line2d_44">
      <g>
       <use style="stroke:#000000;stroke-width:0.8;" x="72" xlink:href="#m239ada6d03" y="85.104"/>
      </g>
     </g>
     <g id="text_23">
      <!-- 90 -->
      <g transform="translate(52.275 88.903219)scale(0.1 -0.1)">
       <defs>
        <path d="M 703 97 
L 703 672 
Q 941 559 1184 500 
Q 1428 441 1663 441 
Q 2288 441 2617 861 
Q 2947 1281 2994 2138 
Q 2813 1869 2534 1725 
Q 2256 1581 1919 1581 
Q 1219 1581 811 2004 
Q 403 2428 403 3163 
Q 403 3881 828 4315 
Q 1253 4750 1959 4750 
Q 2769 4750 3195 4129 
Q 3622 3509 3622 2328 
Q 3622 1225 3098 567 
Q 2575 -91 1691 -91 
Q 1453 -91 1209 -44 
Q 966 3 703 97 
z
M 1959 2075 
Q 2384 2075 2632 2365 
Q 2881 2656 2881 3163 
Q 2881 3666 2632 3958 
Q 2384 4250 1959 4250 
Q 1534 4250 1286 3958 
Q 1038 3666 1038 3163 
Q 1038 2656 1286 2365 
Q 1534 2075 1959 2075 
z
" id="DejaVuSans-39" transform="scale(0.015625)"/>
       </defs>
       <use xlink:href="#DejaVuSans-39"/>
       <use x="63.623047" xlink:href="#DejaVuSans-30"/>
      </g>
     </g>
    </g>
    <g id="ytick_11">
     <g id="line2d_45">
      <path clip-path="url(#pb42b4c4f7a)" d="M 72 51.84 
L 518.4 51.84 
" style="fill:none;stroke:#000000;stroke-dasharray:0.8,1.32;stroke-dashoffset:0;stroke-opacity:0.5;stroke-width:0.8;"/>
     </g>
     <g id="line2d_46">
      <g>
       <use style="stroke:#000000;stroke-width:0.8;" x="72" xlink:href="#m239ada6d03" y="51.84"/>
      </g>
     </g>
     <g id="text_24">
      <!-- 100 -->
      <g transform="translate(45.9125 55.639219)scale(0.1 -0.1)">
       <use xlink:href="#DejaVuSans-31"/>
       <use x="63.623047" xlink:href="#DejaVuSans-30"/>
       <use x="127.246094" xlink:href="#DejaVuSans-30"/>
      </g>
     </g>
    </g>
    <g id="text_25">
     <!-- Vaccine coverage (% of 16+ population) -->
     <g transform="translate(39.832812 319.181094)rotate(-90)scale(0.1 -0.1)">
      <defs>
       <path d="M 1831 0 
L 50 4666 
L 709 4666 
L 2188 738 
L 3669 4666 
L 4325 4666 
L 2547 0 
L 1831 0 
z
" id="DejaVuSans-56" transform="scale(0.015625)"/>
       <path d="M 603 3500 
L 1178 3500 
L 1178 0 
L 603 0 
L 603 3500 
z
M 603 4863 
L 1178 4863 
L 1178 4134 
L 603 4134 
L 603 4863 
z
" id="DejaVuSans-69" transform="scale(0.015625)"/>
       <path id="DejaVuSans-20" transform="scale(0.015625)"/>
       <path d="M 2631 2963 
Q 2534 3019 2420 3045 
Q 2306 3072 2169 3072 
Q 1681 3072 1420 2755 
Q 1159 2438 1159 1844 
L 1159 0 
L 581 0 
L 581 3500 
L 1159 3500 
L 1159 2956 
Q 1341 3275 1631 3429 
Q 1922 3584 2338 3584 
Q 2397 3584 2469 3576 
Q 2541 3569 2628 3553 
L 2631 2963 
z
" id="DejaVuSans-72" transform="scale(0.015625)"/>
       <path d="M 1984 4856 
Q 1566 4138 1362 3434 
Q 1159 2731 1159 2009 
Q 1159 1288 1364 580 
Q 1569 -128 1984 -844 
L 1484 -844 
Q 1016 -109 783 600 
Q 550 1309 550 2009 
Q 550 2706 781 3412 
Q 1013 4119 1484 4856 
L 1984 4856 
z
" id="DejaVuSans-28" transform="scale(0.015625)"/>
       <path d="M 4653 2053 
Q 4381 2053 4226 1822 
Q 4072 1591 4072 1178 
Q 4072 772 4226 539 
Q 4381 306 4653 306 
Q 4919 306 5073 539 
Q 5228 772 5228 1178 
Q 5228 1588 5073 1820 
Q 4919 2053 4653 2053 
z
M 4653 2450 
Q 5147 2450 5437 2106 
Q 5728 1763 5728 1178 
Q 5728 594 5436 251 
Q 5144 -91 4653 -91 
Q 4153 -91 3862 251 
Q 3572 594 3572 1178 
Q 3572 1766 3864 2108 
Q 4156 2450 4653 2450 
z
M 1428 4353 
Q 1159 4353 1004 4120 
Q 850 3888 850 3481 
Q 850 3069 1003 2837 
Q 1156 2606 1428 2606 
Q 1700 2606 1854 2837 
Q 2009 3069 2009 3481 
Q 2009 3884 1853 4118 
Q 1697 4353 1428 4353 
z
M 4250 4750 
L 4750 4750 
L 1831 -91 
L 1331 -91 
L 4250 4750 
z
M 1428 4750 
Q 1922 4750 2215 4408 
Q 2509 4066 2509 3481 
Q 2509 2891 2217 2550 
Q 1925 2209 1428 2209 
Q 931 2209 642 2551 
Q 353 2894 353 3481 
Q 353 4063 643 4406 
Q 934 4750 1428 4750 
z
" id="DejaVuSans-25" transform="scale(0.015625)"/>
       <path d="M 2375 4863 
L 2375 4384 
L 1825 4384 
Q 1516 4384 1395 4259 
Q 1275 4134 1275 3809 
L 1275 3500 
L 2222 3500 
L 2222 3053 
L 1275 3053 
L 1275 0 
L 697 0 
L 697 3053 
L 147 3053 
L 147 3500 
L 697 3500 
L 697 3744 
Q 697 4328 969 4595 
Q 1241 4863 1831 4863 
L 2375 4863 
z
" id="DejaVuSans-66" transform="scale(0.015625)"/>
       <path d="M 2944 4013 
L 2944 2272 
L 4684 2272 
L 4684 1741 
L 2944 1741 
L 2944 0 
L 2419 0 
L 2419 1741 
L 678 1741 
L 678 2272 
L 2419 2272 
L 2419 4013 
L 2944 4013 
z
" id="DejaVuSans-2b" transform="scale(0.015625)"/>
       <path d="M 603 4863 
L 1178 4863 
L 1178 0 
L 603 0 
L 603 4863 
z
" id="DejaVuSans-6c" transform="scale(0.015625)"/>
       <path d="M 513 4856 
L 1013 4856 
Q 1481 4119 1714 3412 
Q 1947 2706 1947 2009 
Q 1947 1309 1714 600 
Q 1481 -109 1013 -844 
L 513 -844 
Q 928 -128 1133 580 
Q 1338 1288 1338 2009 
Q 1338 2731 1133 3434 
Q 928 4138 513 4856 
z
" id="DejaVuSans-29" transform="scale(0.015625)"/>
      </defs>
      <use xlink:href="#DejaVuSans-56"/>
      <use x="60.658203" xlink:href="#DejaVuSans-61"/>
      <use x="121.9375" xlink:href="#DejaVuSans-63"/>
      <use x="176.917969" xlink:href="#DejaVuSans-63"/>
      <use x="231.898438" xlink:href="#DejaVuSans-69"/>
      <use x="259.681641" xlink:href="#DejaVuSans-6e"/>
      <use x="323.060547" xlink:href="#DejaVuSans-65"/>
      <use x="384.583984" xlink:href="#DejaVuSans-20"/>
      <use x="416.371094" xlink:href="#DejaVuSans-63"/>
      <use x="471.351562" xlink:href="#DejaVuSans-6f"/>
      <use x="532.533203" xlink:href="#DejaVuSans-76"/>
      <use x="591.712891" xlink:href="#DejaVuSans-65"/>
      <use x="653.236328" xlink:href="#DejaVuSans-72"/>
      <use x="694.349609" xlink:href="#DejaVuSans-61"/>
      <use x="755.628906" xlink:href="#DejaVuSans-67"/>
      <use x="819.105469" xlink:href="#DejaVuSans-65"/>
      <use x="880.628906" xlink:href="#DejaVuSans-20"/>
      <use x="912.416016" xlink:href="#DejaVuSans-28"/>
      <use x="951.429688" xlink:href="#DejaVuSans-25"/>
      <use x="1046.449219" xlink:href="#DejaVuSans-20"/>
      <use x="1078.236328" xlink:href="#DejaVuSans-6f"/>
      <use x="1139.417969" xlink:href="#DejaVuSans-66"/>
      <use x="1174.623047" xlink:href="#DejaVuSans-20"/>
      <use x="1206.410156" xlink:href="#DejaVuSans-31"/>
      <use x="1270.033203" xlink:href="#DejaVuSans-36"/>
      <use x="1333.65625" xlink:href="#DejaVuSans-2b"/>
      <use x="1417.445312" xlink:href="#DejaVuSans-20"/>
      <use x="1449.232422" xlink:href="#DejaVuSans-70"/>
      <use x="1512.708984" xlink:href="#DejaVuSans-6f"/>
      <use x="1573.890625" xlink:href="#DejaVuSans-70"/>
      <use x="1637.367188" xlink:href="#DejaVuSans-75"/>
      <use x="1700.746094" xlink:href="#DejaVuSans-6c"/>
      <use x="1728.529297" xlink:href="#DejaVuSans-61"/>
      <use x="1789.808594" xlink:href="#DejaVuSans-74"/>
      <use x="1829.017578" xlink:href="#DejaVuSans-69"/>
      <use x="1856.800781" xlink:href="#DejaVuSans-6f"/>
      <use x="1917.982422" xlink:href="#DejaVuSans-6e"/>
      <use x="1981.361328" xlink:href="#DejaVuSans-29"/>
     </g>
    </g>
   </g>
   <g id="line2d_47">
    <path clip-path="url(#pb42b4c4f7a)" d="M -1 371.390033 
L 6.352941 370.525055 
L 8.978824 369.123882 
L 11.604706 367.050799 
L 14.230588 366.419087 
L 24.734118 364.779666 
L 27.36 363.154879 
L 29.985882 360.817173 
L 32.611765 360.079431 
L 35.237647 358.634733 
L 37.863529 356.358833 
L 40.489412 355.10637 
L 45.741176 353.759576 
L 48.367059 352.662203 
L 56.244706 348.916483 
L 58.870588 347.880639 
L 64.122353 346.472673 
L 66.748235 345.249201 
L 74.625882 340.974264 
L 77.251765 339.847075 
L 82.503529 338.348084 
L 85.129412 337.086585 
L 93.007059 332.657468 
L 95.632941 331.442585 
L 100.884706 329.739424 
L 106.136471 326.864598 
L 108.762353 325.393048 
L 111.388235 323.76238 
L 114.014118 322.374525 
L 119.265882 320.446012 
L 121.891765 318.868133 
L 127.143529 315.193338 
L 129.769412 313.311727 
L 132.395294 311.647564 
L 137.647059 309.343123 
L 140.272941 307.543362 
L 150.776471 299.390039 
L 153.402353 298.286691 
L 156.028235 297.043282 
L 158.654118 295.054905 
L 163.905882 290.594185 
L 166.531765 288.312132 
L 169.157647 286.368324 
L 174.409412 283.747495 
L 177.035294 281.715454 
L 184.912941 274.695068 
L 187.538824 272.730423 
L 192.790588 270.032021 
L 195.416471 267.969317 
L 203.294118 261.143994 
L 205.92 259.25577 
L 211.171765 256.760444 
L 213.797647 254.786537 
L 219.049412 250.299745 
L 221.675294 248.911477 
L 221.675294 248.911477 
" style="fill:none;stroke:#1f77b4;stroke-linecap:square;stroke-width:1.5;"/>
   </g>
   <g id="line2d_48">
    <path clip-path="url(#pb42b4c4f7a)" d="M -1 370.549533 
L 3.727059 369.734331 
L 6.352941 369.472294 
L 8.978824 368.279425 
L 11.604706 366.423842 
L 14.230588 365.741895 
L 19.482353 364.854462 
L 24.734118 364.322085 
L 27.36 363.048886 
L 29.985882 361.11701 
L 32.611765 360.55837 
L 35.237647 359.327915 
L 37.863529 357.259375 
L 40.489412 356.275356 
L 45.741176 355.334198 
L 48.367059 354.364061 
L 56.244706 351.144896 
L 58.870588 350.288838 
L 61.496471 349.805533 
L 64.122353 349.193274 
L 66.748235 347.932708 
L 74.625882 343.403588 
L 77.251765 342.192017 
L 79.877647 341.466641 
L 82.503529 340.616954 
L 85.129412 339.223926 
L 95.632941 332.851562 
L 100.884706 330.985651 
L 103.510588 329.494971 
L 111.388235 323.505574 
L 114.014118 321.89731 
L 119.265882 319.663799 
L 121.891765 317.858667 
L 132.395294 309.741763 
L 135.021176 308.341637 
L 137.647059 307.166221 
L 140.272941 305.111447 
L 148.150588 297.874199 
L 150.776471 295.890098 
L 153.402353 294.706647 
L 156.028235 293.334602 
L 158.654118 291.174625 
L 163.905882 286.15759 
L 166.531765 283.687506 
L 169.157647 281.595788 
L 174.409412 278.85019 
L 177.035294 276.559408 
L 182.287059 271.145122 
L 184.912941 268.433739 
L 187.538824 266.27872 
L 190.164706 264.89975 
L 192.790588 263.083213 
L 203.294118 252.314794 
L 205.92 250.013139 
L 211.171765 247.025527 
L 213.797647 244.45525 
L 219.049412 238.605408 
L 221.675294 236.765774 
L 221.675294 236.765774 
" style="fill:none;stroke:#ff7f0e;stroke-linecap:square;stroke-width:1.5;"/>
   </g>
   <g id="line2d_49">
    <path clip-path="url(#pb42b4c4f7a)" d="M -1 373.641648 
L 6.352941 372.383177 
L 8.978824 370.869481 
L 11.604706 368.66929 
L 14.230588 367.884437 
L 16.856471 367.254346 
L 19.482353 366.135303 
L 22.108235 365.330523 
L 24.734118 364.706734 
L 27.36 363.097606 
L 29.985882 360.907503 
L 32.611765 359.834652 
L 35.237647 358.186694 
L 37.863529 355.956039 
L 40.489412 354.529348 
L 45.741176 352.780172 
L 56.244706 347.347948 
L 58.870588 346.239644 
L 61.496471 345.521451 
L 64.122353 344.683739 
L 69.374118 342.120631 
L 74.625882 339.504566 
L 77.251765 338.445673 
L 82.503529 337.004486 
L 87.755294 334.469228 
L 95.632941 330.617625 
L 100.884706 328.923522 
L 103.510588 327.539998 
L 106.136471 325.918565 
L 108.762353 324.099814 
L 111.388235 322.522543 
L 114.014118 321.25963 
L 116.64 320.428831 
L 119.265882 319.440719 
L 124.517647 316.399391 
L 132.395294 311.40515 
L 135.021176 310.279906 
L 137.647059 309.018248 
L 140.272941 307.241618 
L 145.524706 303.323637 
L 148.150588 301.306829 
L 150.776471 299.520239 
L 153.402353 298.438941 
L 156.028235 297.207293 
L 161.28 292.952737 
L 166.531765 288.379988 
L 169.157647 286.32973 
L 174.409412 283.418218 
L 177.035294 281.346973 
L 182.287059 276.964969 
L 187.538824 272.966144 
L 190.164706 271.386159 
L 192.790588 270.155766 
L 195.416471 268.321817 
L 198.042353 266.096352 
L 203.294118 262.023601 
L 205.92 260.30929 
L 211.171765 258.113428 
L 213.797647 256.475415 
L 219.049412 252.910742 
L 221.675294 251.81139 
L 221.675294 251.81139 
" style="fill:none;stroke:#2ca02c;stroke-linecap:square;stroke-width:1.5;"/>
   </g>
   <g id="line2d_50">
    <path clip-path="url(#pb42b4c4f7a)" d="M -1 374.102939 
L 3.727059 374.100045 
L 6.352941 373.971618 
L 8.978824 372.200067 
L 11.604706 369.636001 
L 14.230588 369.24661 
L 22.108235 369.239015 
L 24.734118 369.057497 
L 27.36 366.553607 
L 29.985882 362.928635 
L 32.611765 362.253062 
L 35.237647 360.480388 
L 37.863529 357.397017 
L 40.489412 355.814593 
L 43.115294 354.945774 
L 45.741176 354.276815 
L 48.367059 353.241967 
L 50.992941 351.788776 
L 56.244706 348.608445 
L 58.870588 347.353852 
L 64.122353 345.795158 
L 66.748235 344.684414 
L 69.374118 343.202622 
L 74.625882 340.049052 
L 77.251765 338.816723 
L 79.877647 338.003149 
L 82.503529 337.394094 
L 85.129412 336.458572 
L 90.381176 333.665843 
L 93.007059 332.259233 
L 95.632941 331.113119 
L 100.884706 329.761195 
L 108.762353 326.892796 
L 111.388235 325.398435 
L 114.014118 324.158775 
L 119.265882 322.578691 
L 121.891765 321.242923 
L 124.517647 319.437681 
L 129.769412 315.513288 
L 132.395294 313.984045 
L 137.647059 312.223003 
L 140.272941 310.788867 
L 145.524706 307.072777 
L 148.150588 305.17054 
L 150.776471 303.596966 
L 156.028235 301.680977 
L 158.654118 300.116055 
L 166.531765 294.594055 
L 169.157647 293.094812 
L 174.409412 291.222046 
L 177.035294 289.700662 
L 179.661176 287.771472 
L 184.912941 283.556448 
L 187.538824 281.91494 
L 192.790588 279.876975 
L 195.416471 278.327961 
L 198.042353 276.39516 
L 203.294118 272.255118 
L 205.92 270.58026 
L 211.171765 268.29365 
L 213.797647 266.63206 
L 219.049412 262.649468 
L 221.675294 261.460904 
L 221.675294 261.460904 
" style="fill:none;stroke:#d62728;stroke-linecap:square;stroke-width:1.5;"/>
   </g>
   <g id="line2d_51">
    <path clip-path="url(#pb42b4c4f7a)" d="M -1 369.68772 
L 3.727059 368.970871 
L 6.352941 368.386427 
L 8.978824 368.001516 
L 14.230588 366.769683 
L 16.856471 366.014712 
L 22.108235 364.977208 
L 24.734118 364.242395 
L 27.36 363.816482 
L 29.985882 363.260231 
L 35.237647 361.708754 
L 40.489412 360.018934 
L 45.741176 358.97182 
L 50.992941 357.301456 
L 56.244706 355.541832 
L 58.870588 354.835879 
L 64.122353 353.748711 
L 66.748235 352.727147 
L 72 350.331944 
L 74.625882 349.290668 
L 77.251765 348.462564 
L 82.503529 347.124641 
L 85.129412 345.994527 
L 93.007059 341.95658 
L 95.632941 340.941344 
L 98.258824 340.187798 
L 100.884706 339.191452 
L 108.762353 334.447529 
L 111.388235 332.834495 
L 114.014118 331.534149 
L 116.64 330.617363 
L 119.265882 329.508478 
L 124.517647 326.082112 
L 129.769412 322.533517 
L 132.395294 321.060644 
L 135.021176 319.984298 
L 137.647059 318.700795 
L 140.272941 316.896577 
L 148.150588 310.939116 
L 150.776471 309.291888 
L 153.402353 308.098742 
L 156.028235 306.637995 
L 161.28 302.537169 
L 166.531765 298.212932 
L 169.157647 296.334144 
L 174.409412 293.360632 
L 177.035294 291.304077 
L 184.912941 284.676087 
L 187.538824 282.790237 
L 192.790588 280.46043 
L 195.416471 278.897966 
L 200.668235 275.169042 
L 203.294118 273.247877 
L 205.92 271.61296 
L 208.545882 270.477525 
L 211.171765 269.197942 
L 216.423529 265.212807 
L 219.049412 263.210109 
L 221.675294 261.939984 
L 221.675294 261.939984 
" style="fill:none;stroke:#9467bd;stroke-linecap:square;stroke-width:1.5;"/>
   </g>
   <g id="line2d_52">
    <path clip-path="url(#pb42b4c4f7a)" d="M -1 370.200155 
L 6.352941 370.088836 
L 8.978824 368.594329 
L 11.604706 366.431245 
L 14.230588 366.102749 
L 22.108235 366.096404 
L 24.734118 365.95145 
L 27.36 363.951928 
L 29.985882 361.057147 
L 32.611765 360.517398 
L 35.237647 359.093906 
L 37.863529 356.563969 
L 40.489412 355.255045 
L 45.741176 353.908642 
L 48.367059 352.822847 
L 50.992941 351.495349 
L 56.244706 348.617943 
L 58.870588 347.479146 
L 64.122353 345.861794 
L 66.748235 344.601633 
L 74.625882 340.182575 
L 77.251765 339.025268 
L 82.503529 337.512137 
L 85.129412 336.348382 
L 87.755294 334.880519 
L 93.007059 331.733629 
L 95.632941 330.531074 
L 98.258824 329.7301 
L 100.884706 328.781547 
L 103.510588 327.379964 
L 108.762353 324.137805 
L 111.388235 322.500394 
L 114.014118 321.289166 
L 116.64 320.575887 
L 119.265882 319.669915 
L 121.891765 318.220858 
L 129.769412 313.017427 
L 132.395294 311.597215 
L 137.647059 309.615983 
L 140.272941 307.958329 
L 142.898824 305.976865 
L 148.150588 301.744788 
L 150.776471 300.135805 
L 153.402353 299.169663 
L 156.028235 298.011198 
L 158.654118 296.123946 
L 163.905882 291.819944 
L 166.531765 289.643532 
L 169.157647 287.851554 
L 171.783529 286.797034 
L 174.409412 285.59017 
L 177.035294 283.572575 
L 184.912941 276.441172 
L 187.538824 274.49179 
L 192.790588 271.910247 
L 195.416471 269.952762 
L 203.294118 263.460955 
L 205.92 261.799676 
L 211.171765 259.905859 
L 213.797647 258.339639 
L 219.049412 254.434933 
L 221.675294 253.241844 
L 221.675294 253.241844 
" style="fill:none;stroke:#8c564b;stroke-linecap:square;stroke-width:1.5;"/>
   </g>
   <g id="line2d_53">
    <path clip-path="url(#pb42b4c4f7a)" d="M -1 363.777323 
L 3.727059 363.773937 
L 6.352941 363.507753 
L 8.978824 359.835978 
L 11.604706 354.521608 
L 14.230588 353.714545 
L 22.108235 353.700158 
L 24.734118 353.502203 
L 27.36 350.771576 
L 29.985882 346.818552 
L 32.611765 346.108582 
L 35.237647 344.547788 
L 37.863529 341.768541 
L 40.489412 340.242376 
L 43.115294 339.457539 
L 45.741176 338.493485 
L 48.367059 337.109171 
L 53.618824 335.541469 
L 56.244706 334.594712 
L 58.870588 332.732454 
L 61.496471 330.443727 
L 64.122353 329.370307 
L 74.625882 324.092786 
L 77.251765 323.079015 
L 79.877647 322.546865 
L 82.503529 321.609759 
L 85.129412 319.91945 
L 90.381176 316.888474 
L 93.007059 315.603285 
L 95.632941 314.59774 
L 98.258824 314.098582 
L 100.884706 313.071453 
L 108.762353 307.36558 
L 111.388235 305.597793 
L 114.014118 304.074558 
L 119.265882 301.923127 
L 121.891765 300.319299 
L 127.143529 296.610293 
L 132.395294 293.482048 
L 135.021176 292.116796 
L 137.647059 290.591281 
L 140.272941 288.390942 
L 142.898824 286.010789 
L 148.150588 280.75562 
L 150.776471 278.565514 
L 153.402353 276.931691 
L 156.028235 275.560664 
L 158.654118 273.595923 
L 161.28 271.354328 
L 166.531765 266.27812 
L 169.157647 264.106485 
L 171.783529 262.389647 
L 174.409412 260.904887 
L 177.035294 258.897982 
L 179.661176 256.561299 
L 184.912941 251.036496 
L 187.538824 248.662805 
L 190.164706 246.987637 
L 192.790588 245.691556 
L 195.416471 243.506992 
L 198.042353 240.86086 
L 200.668235 238.497322 
L 203.294118 236.402923 
L 205.92 234.64136 
L 208.545882 233.32446 
L 213.797647 230.860113 
L 216.423529 229.239282 
L 219.049412 227.175052 
L 221.675294 225.861971 
L 221.675294 225.861971 
" style="fill:none;stroke:#e377c2;stroke-linecap:square;stroke-width:1.5;"/>
   </g>
   <g id="line2d_54">
    <path clip-path="url(#pb42b4c4f7a)" d="M -1 371.554469 
L 3.727059 371.549652 
L 6.352941 371.375346 
L 8.978824 368.97095 
L 11.604706 365.490931 
L 14.230588 364.96244 
L 22.108235 364.952707 
L 24.734118 364.782132 
L 27.36 362.429186 
L 29.985882 359.022661 
L 32.611765 358.37736 
L 35.237647 356.547349 
L 37.863529 353.150582 
L 40.489412 351.401834 
L 43.115294 350.736574 
L 45.741176 349.378155 
L 48.367059 347.554945 
L 58.870588 342.996044 
L 61.496471 342.377328 
L 64.122353 341.114753 
L 66.748235 339.142183 
L 69.374118 337.645625 
L 74.625882 335.32154 
L 77.251765 334.259037 
L 79.877647 333.537932 
L 82.503529 331.185874 
L 85.129412 327.472348 
L 87.755294 325.899197 
L 90.381176 324.465795 
L 93.007059 322.782007 
L 95.632941 321.93183 
L 98.258824 321.377408 
L 100.884706 318.984049 
L 103.510588 315.096511 
L 106.136471 313.666899 
L 108.762353 313.055554 
L 111.388235 311.575693 
L 114.014118 309.609739 
L 116.64 308.205834 
L 119.265882 306.660637 
L 121.891765 304.458374 
L 124.517647 302.888471 
L 127.143529 301.734603 
L 129.769412 300.389239 
L 132.395294 298.741783 
L 135.021176 297.380902 
L 137.647059 295.785944 
L 140.272941 293.906856 
L 142.898824 292.199507 
L 145.524706 290.208345 
L 148.150588 287.649916 
L 150.776471 284.747088 
L 153.402353 283.484473 
L 156.028235 282.048304 
L 161.28 277.020836 
L 163.905882 274.049082 
L 166.531765 269.302592 
L 169.157647 265.749706 
L 171.783529 264.394229 
L 174.409412 262.22877 
L 177.035294 259.337864 
L 179.661176 257.203664 
L 182.287059 254.108846 
L 184.912941 251.24562 
L 187.538824 249.778164 
L 190.164706 248.860003 
L 192.790588 247.691199 
L 195.416471 244.959158 
L 198.042353 240.905428 
L 200.668235 237.883967 
L 203.294118 235.437049 
L 205.92 233.187626 
L 211.171765 229.583281 
L 213.797647 227.151534 
L 216.423529 224.348905 
L 219.049412 221.940712 
L 221.675294 220.562827 
L 221.675294 220.562827 
" style="fill:none;stroke:#7f7f7f;stroke-linecap:square;stroke-width:1.5;"/>
   </g>
   <g id="line2d_55">
    <path clip-path="url(#pb42b4c4f7a)" d="M -1 364.538996 
L 3.727059 363.040869 
L 6.352941 362.851948 
L 8.978824 361.942765 
L 14.230588 359.080315 
L 16.856471 356.570259 
L 19.482353 355.207144 
L 24.734118 354.901035 
L 27.36 353.08665 
L 29.985882 350.459463 
L 32.611765 349.911769 
L 35.237647 347.811708 
L 37.863529 344.222722 
L 40.489412 342.754251 
L 43.115294 342.366325 
L 45.741176 341.793628 
L 48.367059 340.497994 
L 50.992941 338.861274 
L 56.244706 335.221572 
L 58.870588 333.953396 
L 61.496471 333.470817 
L 64.122353 332.623679 
L 66.748235 330.674077 
L 69.374118 328.284192 
L 72 325.678601 
L 74.625882 323.290042 
L 77.251765 321.930724 
L 79.877647 321.492943 
L 82.503529 320.856977 
L 85.129412 319.350962 
L 87.755294 317.241895 
L 90.381176 314.95287 
L 93.007059 313.270749 
L 95.632941 312.424238 
L 98.258824 311.919518 
L 100.884706 311.190398 
L 103.510588 309.563395 
L 106.136471 308.136936 
L 108.762353 307.177828 
L 111.388235 305.347961 
L 114.014118 303.807486 
L 116.64 303.203941 
L 119.265882 302.85547 
L 121.891765 302.030959 
L 124.517647 300.399413 
L 127.143529 298.363767 
L 129.769412 296.47355 
L 132.395294 294.932083 
L 137.647059 293.282836 
L 140.272941 291.765761 
L 142.898824 289.920219 
L 148.150588 285.950924 
L 150.776471 284.493489 
L 156.028235 282.967638 
L 158.654118 281.722966 
L 161.28 279.915214 
L 166.531765 275.414411 
L 169.157647 273.55472 
L 171.783529 272.402705 
L 174.409412 271.50063 
L 177.035294 270.13015 
L 179.661176 268.255754 
L 184.912941 264.00233 
L 187.538824 262.176242 
L 192.790588 260.081318 
L 195.416471 258.29928 
L 200.668235 254.130366 
L 203.294118 252.295708 
L 205.92 250.94473 
L 208.545882 250.079785 
L 211.171765 248.961142 
L 213.797647 247.082305 
L 219.049412 242.664351 
L 221.675294 241.339993 
L 221.675294 241.339993 
" style="fill:none;stroke:#bcbd22;stroke-linecap:square;stroke-width:1.5;"/>
   </g>
   <g id="patch_3">
    <path d="M 72 384.48 
L 72 51.84 
" style="fill:none;stroke:#000000;stroke-linecap:square;stroke-linejoin:miter;stroke-width:0.8;"/>
   </g>
   <g id="patch_4">
    <path d="M 518.4 384.48 
L 518.4 51.84 
" style="fill:none;stroke:#000000;stroke-linecap:square;stroke-linejoin:miter;stroke-width:0.8;"/>
   </g>
   <g id="patch_5">
    <path d="M 72 384.48 
L 518.4 384.48 
" style="fill:none;stroke:#000000;stroke-linecap:square;stroke-linejoin:miter;stroke-width:0.8;"/>
   </g>
   <g id="patch_6">
    <path d="M 72 51.84 
L 518.4 51.84 
" style="fill:none;stroke:#000000;stroke-linecap:square;stroke-linejoin:miter;stroke-width:0.8;"/>
   </g>
   <g id="text_26">
    <!-- Second dose coverage by state/territory -->
    <g transform="translate(174.173437 45.84)scale(0.12 -0.12)">
     <defs>
      <path d="M 2906 2969 
L 2906 4863 
L 3481 4863 
L 3481 0 
L 2906 0 
L 2906 525 
Q 2725 213 2448 61 
Q 2172 -91 1784 -91 
Q 1150 -91 751 415 
Q 353 922 353 1747 
Q 353 2572 751 3078 
Q 1150 3584 1784 3584 
Q 2172 3584 2448 3432 
Q 2725 3281 2906 2969 
z
M 947 1747 
Q 947 1113 1208 752 
Q 1469 391 1925 391 
Q 2381 391 2643 752 
Q 2906 1113 2906 1747 
Q 2906 2381 2643 2742 
Q 2381 3103 1925 3103 
Q 1469 3103 1208 2742 
Q 947 2381 947 1747 
z
" id="DejaVuSans-64" transform="scale(0.015625)"/>
      <path d="M 2834 3397 
L 2834 2853 
Q 2591 2978 2328 3040 
Q 2066 3103 1784 3103 
Q 1356 3103 1142 2972 
Q 928 2841 928 2578 
Q 928 2378 1081 2264 
Q 1234 2150 1697 2047 
L 1894 2003 
Q 2506 1872 2764 1633 
Q 3022 1394 3022 966 
Q 3022 478 2636 193 
Q 2250 -91 1575 -91 
Q 1294 -91 989 -36 
Q 684 19 347 128 
L 347 722 
Q 666 556 975 473 
Q 1284 391 1588 391 
Q 1994 391 2212 530 
Q 2431 669 2431 922 
Q 2431 1156 2273 1281 
Q 2116 1406 1581 1522 
L 1381 1569 
Q 847 1681 609 1914 
Q 372 2147 372 2553 
Q 372 3047 722 3315 
Q 1072 3584 1716 3584 
Q 2034 3584 2315 3537 
Q 2597 3491 2834 3397 
z
" id="DejaVuSans-73" transform="scale(0.015625)"/>
      <path d="M 3116 1747 
Q 3116 2381 2855 2742 
Q 2594 3103 2138 3103 
Q 1681 3103 1420 2742 
Q 1159 2381 1159 1747 
Q 1159 1113 1420 752 
Q 1681 391 2138 391 
Q 2594 391 2855 752 
Q 3116 1113 3116 1747 
z
M 1159 2969 
Q 1341 3281 1617 3432 
Q 1894 3584 2278 3584 
Q 2916 3584 3314 3078 
Q 3713 2572 3713 1747 
Q 3713 922 3314 415 
Q 2916 -91 2278 -91 
Q 1894 -91 1617 61 
Q 1341 213 1159 525 
L 1159 0 
L 581 0 
L 581 4863 
L 1159 4863 
L 1159 2969 
z
" id="DejaVuSans-62" transform="scale(0.015625)"/>
      <path d="M 2059 -325 
Q 1816 -950 1584 -1140 
Q 1353 -1331 966 -1331 
L 506 -1331 
L 506 -850 
L 844 -850 
Q 1081 -850 1212 -737 
Q 1344 -625 1503 -206 
L 1606 56 
L 191 3500 
L 800 3500 
L 1894 763 
L 2988 3500 
L 3597 3500 
L 2059 -325 
z
" id="DejaVuSans-79" transform="scale(0.015625)"/>
      <path d="M 1625 4666 
L 2156 4666 
L 531 -594 
L 0 -594 
L 1625 4666 
z
" id="DejaVuSans-2f" transform="scale(0.015625)"/>
     </defs>
     <use xlink:href="#DejaVuSans-53"/>
     <use x="63.476562" xlink:href="#DejaVuSans-65"/>
     <use x="125" xlink:href="#DejaVuSans-63"/>
     <use x="179.980469" xlink:href="#DejaVuSans-6f"/>
     <use x="241.162109" xlink:href="#DejaVuSans-6e"/>
     <use x="304.541016" xlink:href="#DejaVuSans-64"/>
     <use x="368.017578" xlink:href="#DejaVuSans-20"/>
     <use x="399.804688" xlink:href="#DejaVuSans-64"/>
     <use x="463.28125" xlink:href="#DejaVuSans-6f"/>
     <use x="524.462891" xlink:href="#DejaVuSans-73"/>
     <use x="576.5625" xlink:href="#DejaVuSans-65"/>
     <use x="638.085938" xlink:href="#DejaVuSans-20"/>
     <use x="669.873047" xlink:href="#DejaVuSans-63"/>
     <use x="724.853516" xlink:href="#DejaVuSans-6f"/>
     <use x="786.035156" xlink:href="#DejaVuSans-76"/>
     <use x="845.214844" xlink:href="#DejaVuSans-65"/>
     <use x="906.738281" xlink:href="#DejaVuSans-72"/>
     <use x="947.851562" xlink:href="#DejaVuSans-61"/>
     <use x="1009.130859" xlink:href="#DejaVuSans-67"/>
     <use x="1072.607422" xlink:href="#DejaVuSans-65"/>
     <use x="1134.130859" xlink:href="#DejaVuSans-20"/>
     <use x="1165.917969" xlink:href="#DejaVuSans-62"/>
     <use x="1229.394531" xlink:href="#DejaVuSans-79"/>
     <use x="1288.574219" xlink:href="#DejaVuSans-20"/>
     <use x="1320.361328" xlink:href="#DejaVuSans-73"/>
     <use x="1372.460938" xlink:href="#DejaVuSans-74"/>
     <use x="1411.669922" xlink:href="#DejaVuSans-61"/>
     <use x="1472.949219" xlink:href="#DejaVuSans-74"/>
     <use x="1512.158203" xlink:href="#DejaVuSans-65"/>
     <use x="1573.681641" xlink:href="#DejaVuSans-2f"/>
     <use x="1607.373047" xlink:href="#DejaVuSans-74"/>
     <use x="1646.582031" xlink:href="#DejaVuSans-65"/>
     <use x="1708.105469" xlink:href="#DejaVuSans-72"/>
     <use x="1747.46875" xlink:href="#DejaVuSans-72"/>
     <use x="1788.582031" xlink:href="#DejaVuSans-69"/>
     <use x="1816.365234" xlink:href="#DejaVuSans-74"/>
     <use x="1855.574219" xlink:href="#DejaVuSans-6f"/>
     <use x="1916.755859" xlink:href="#DejaVuSans-72"/>
     <use x="1957.869141" xlink:href="#DejaVuSans-79"/>
    </g>
   </g>
   <g id="legend_1">
    <g id="patch_7">
     <path d="M 78.3 177.932812 
L 185.937187 177.932812 
Q 187.737188 177.932812 187.737188 176.132812 
L 187.737188 58.14 
Q 187.737188 56.34 185.937187 56.34 
L 78.3 56.34 
Q 76.5 56.34 76.5 58.14 
L 76.5 176.132812 
Q 76.5 177.932812 78.3 177.932812 
z
" style="fill:#ffffff;opacity:0.8;stroke:#cccccc;stroke-linejoin:miter;"/>
    </g>
    <g id="line2d_56">
     <path d="M 80.1 63.628594 
L 98.1 63.628594 
" style="fill:none;stroke:#1f77b4;stroke-linecap:square;stroke-width:1.5;"/>
    </g>
    <g id="line2d_57"/>
    <g id="text_27">
     <!-- National (40.9 %) -->
     <g transform="translate(105.3 66.778594)scale(0.09 -0.09)">
      <defs>
       <path d="M 684 794 
L 1344 794 
L 1344 0 
L 684 0 
L 684 794 
z
" id="DejaVuSans-2e" transform="scale(0.015625)"/>
      </defs>
      <use xlink:href="#DejaVuSans-4e"/>
      <use x="74.804688" xlink:href="#DejaVuSans-61"/>
      <use x="136.083984" xlink:href="#DejaVuSans-74"/>
      <use x="175.292969" xlink:href="#DejaVuSans-69"/>
      <use x="203.076172" xlink:href="#DejaVuSans-6f"/>
      <use x="264.257812" xlink:href="#DejaVuSans-6e"/>
      <use x="327.636719" xlink:href="#DejaVuSans-61"/>
      <use x="388.916016" xlink:href="#DejaVuSans-6c"/>
      <use x="416.699219" xlink:href="#DejaVuSans-20"/>
      <use x="448.486328" xlink:href="#DejaVuSans-28"/>
      <use x="487.5" xlink:href="#DejaVuSans-34"/>
      <use x="551.123047" xlink:href="#DejaVuSans-30"/>
      <use x="614.746094" xlink:href="#DejaVuSans-2e"/>
      <use x="646.533203" xlink:href="#DejaVuSans-39"/>
      <use x="710.15625" xlink:href="#DejaVuSans-20"/>
      <use x="741.943359" xlink:href="#DejaVuSans-25"/>
      <use x="836.962891" xlink:href="#DejaVuSans-29"/>
     </g>
    </g>
    <g id="line2d_58">
     <path d="M 80.1 76.838906 
L 98.1 76.838906 
" style="fill:none;stroke:#ff7f0e;stroke-linecap:square;stroke-width:1.5;"/>
    </g>
    <g id="line2d_59"/>
    <g id="text_28">
     <!-- NSW (44.5 %) -->
     <g transform="translate(105.3 79.988906)scale(0.09 -0.09)">
      <defs>
       <path d="M 213 4666 
L 850 4666 
L 1831 722 
L 2809 4666 
L 3519 4666 
L 4500 722 
L 5478 4666 
L 6119 4666 
L 4947 0 
L 4153 0 
L 3169 4050 
L 2175 0 
L 1381 0 
L 213 4666 
z
" id="DejaVuSans-57" transform="scale(0.015625)"/>
      </defs>
      <use xlink:href="#DejaVuSans-4e"/>
      <use x="74.804688" xlink:href="#DejaVuSans-53"/>
      <use x="138.28125" xlink:href="#DejaVuSans-57"/>
      <use x="237.158203" xlink:href="#DejaVuSans-20"/>
      <use x="268.945312" xlink:href="#DejaVuSans-28"/>
      <use x="307.958984" xlink:href="#DejaVuSans-34"/>
      <use x="371.582031" xlink:href="#DejaVuSans-34"/>
      <use x="435.205078" xlink:href="#DejaVuSans-2e"/>
      <use x="466.992188" xlink:href="#DejaVuSans-35"/>
      <use x="530.615234" xlink:href="#DejaVuSans-20"/>
      <use x="562.402344" xlink:href="#DejaVuSans-25"/>
      <use x="657.421875" xlink:href="#DejaVuSans-29"/>
     </g>
    </g>
    <g id="line2d_60">
     <path d="M 80.1 90.049219 
L 98.1 90.049219 
" style="fill:none;stroke:#2ca02c;stroke-linecap:square;stroke-width:1.5;"/>
    </g>
    <g id="line2d_61"/>
    <g id="text_29">
     <!-- VIC (40.0 %) -->
     <g transform="translate(105.3 93.199219)scale(0.09 -0.09)">
      <defs>
       <path d="M 628 4666 
L 1259 4666 
L 1259 0 
L 628 0 
L 628 4666 
z
" id="DejaVuSans-49" transform="scale(0.015625)"/>
       <path d="M 4122 4306 
L 4122 3641 
Q 3803 3938 3442 4084 
Q 3081 4231 2675 4231 
Q 1875 4231 1450 3742 
Q 1025 3253 1025 2328 
Q 1025 1406 1450 917 
Q 1875 428 2675 428 
Q 3081 428 3442 575 
Q 3803 722 4122 1019 
L 4122 359 
Q 3791 134 3420 21 
Q 3050 -91 2638 -91 
Q 1578 -91 968 557 
Q 359 1206 359 2328 
Q 359 3453 968 4101 
Q 1578 4750 2638 4750 
Q 3056 4750 3426 4639 
Q 3797 4528 4122 4306 
z
" id="DejaVuSans-43" transform="scale(0.015625)"/>
      </defs>
      <use xlink:href="#DejaVuSans-56"/>
      <use x="68.408203" xlink:href="#DejaVuSans-49"/>
      <use x="97.900391" xlink:href="#DejaVuSans-43"/>
      <use x="167.724609" xlink:href="#DejaVuSans-20"/>
      <use x="199.511719" xlink:href="#DejaVuSans-28"/>
      <use x="238.525391" xlink:href="#DejaVuSans-34"/>
      <use x="302.148438" xlink:href="#DejaVuSans-30"/>
      <use x="365.771484" xlink:href="#DejaVuSans-2e"/>
      <use x="397.558594" xlink:href="#DejaVuSans-30"/>
      <use x="461.181641" xlink:href="#DejaVuSans-20"/>
      <use x="492.96875" xlink:href="#DejaVuSans-25"/>
      <use x="587.988281" xlink:href="#DejaVuSans-29"/>
     </g>
    </g>
    <g id="line2d_62">
     <path d="M 80.1 103.259531 
L 98.1 103.259531 
" style="fill:none;stroke:#d62728;stroke-linecap:square;stroke-width:1.5;"/>
    </g>
    <g id="line2d_63"/>
    <g id="text_30">
     <!-- QLD (37.1 %) -->
     <g transform="translate(105.3 106.409531)scale(0.09 -0.09)">
      <defs>
       <path d="M 2522 4238 
Q 1834 4238 1429 3725 
Q 1025 3213 1025 2328 
Q 1025 1447 1429 934 
Q 1834 422 2522 422 
Q 3209 422 3611 934 
Q 4013 1447 4013 2328 
Q 4013 3213 3611 3725 
Q 3209 4238 2522 4238 
z
M 3406 84 
L 4238 -825 
L 3475 -825 
L 2784 -78 
Q 2681 -84 2626 -87 
Q 2572 -91 2522 -91 
Q 1538 -91 948 567 
Q 359 1225 359 2328 
Q 359 3434 948 4092 
Q 1538 4750 2522 4750 
Q 3503 4750 4090 4092 
Q 4678 3434 4678 2328 
Q 4678 1516 4351 937 
Q 4025 359 3406 84 
z
" id="DejaVuSans-51" transform="scale(0.015625)"/>
       <path d="M 628 4666 
L 1259 4666 
L 1259 531 
L 3531 531 
L 3531 0 
L 628 0 
L 628 4666 
z
" id="DejaVuSans-4c" transform="scale(0.015625)"/>
      </defs>
      <use xlink:href="#DejaVuSans-51"/>
      <use x="78.710938" xlink:href="#DejaVuSans-4c"/>
      <use x="134.423828" xlink:href="#DejaVuSans-44"/>
      <use x="211.425781" xlink:href="#DejaVuSans-20"/>
      <use x="243.212891" xlink:href="#DejaVuSans-28"/>
      <use x="282.226562" xlink:href="#DejaVuSans-33"/>
      <use x="345.849609" xlink:href="#DejaVuSans-37"/>
      <use x="409.472656" xlink:href="#DejaVuSans-2e"/>
      <use x="441.259766" xlink:href="#DejaVuSans-31"/>
      <use x="504.882812" xlink:href="#DejaVuSans-20"/>
      <use x="536.669922" xlink:href="#DejaVuSans-25"/>
      <use x="631.689453" xlink:href="#DejaVuSans-29"/>
     </g>
    </g>
    <g id="line2d_64">
     <path d="M 80.1 116.469844 
L 98.1 116.469844 
" style="fill:none;stroke:#9467bd;stroke-linecap:square;stroke-width:1.5;"/>
    </g>
    <g id="line2d_65"/>
    <g id="text_31">
     <!-- WA (36.9 %) -->
     <g transform="translate(105.3 119.619844)scale(0.09 -0.09)">
      <use xlink:href="#DejaVuSans-57"/>
      <use x="93.376953" xlink:href="#DejaVuSans-41"/>
      <use x="161.785156" xlink:href="#DejaVuSans-20"/>
      <use x="193.572266" xlink:href="#DejaVuSans-28"/>
      <use x="232.585938" xlink:href="#DejaVuSans-33"/>
      <use x="296.208984" xlink:href="#DejaVuSans-36"/>
      <use x="359.832031" xlink:href="#DejaVuSans-2e"/>
      <use x="391.619141" xlink:href="#DejaVuSans-39"/>
      <use x="455.242188" xlink:href="#DejaVuSans-20"/>
      <use x="487.029297" xlink:href="#DejaVuSans-25"/>
      <use x="582.048828" xlink:href="#DejaVuSans-29"/>
     </g>
    </g>
    <g id="line2d_66">
     <path d="M 80.1 129.680156 
L 98.1 129.680156 
" style="fill:none;stroke:#8c564b;stroke-linecap:square;stroke-width:1.5;"/>
    </g>
    <g id="line2d_67"/>
    <g id="text_32">
     <!-- SA (39.5 %) -->
     <g transform="translate(105.3 132.830156)scale(0.09 -0.09)">
      <use xlink:href="#DejaVuSans-53"/>
      <use x="65.351562" xlink:href="#DejaVuSans-41"/>
      <use x="133.759766" xlink:href="#DejaVuSans-20"/>
      <use x="165.546875" xlink:href="#DejaVuSans-28"/>
      <use x="204.560547" xlink:href="#DejaVuSans-33"/>
      <use x="268.183594" xlink:href="#DejaVuSans-39"/>
      <use x="331.806641" xlink:href="#DejaVuSans-2e"/>
      <use x="363.59375" xlink:href="#DejaVuSans-35"/>
      <use x="427.216797" xlink:href="#DejaVuSans-20"/>
      <use x="459.003906" xlink:href="#DejaVuSans-25"/>
      <use x="554.023438" xlink:href="#DejaVuSans-29"/>
     </g>
    </g>
    <g id="line2d_68">
     <path d="M 80.1 142.890469 
L 98.1 142.890469 
" style="fill:none;stroke:#e377c2;stroke-linecap:square;stroke-width:1.5;"/>
    </g>
    <g id="line2d_69"/>
    <g id="text_33">
     <!-- TAS (47.8 %) -->
     <g transform="translate(105.3 146.040469)scale(0.09 -0.09)">
      <defs>
       <path d="M -19 4666 
L 3928 4666 
L 3928 4134 
L 2272 4134 
L 2272 0 
L 1638 0 
L 1638 4134 
L -19 4134 
L -19 4666 
z
" id="DejaVuSans-54" transform="scale(0.015625)"/>
      </defs>
      <use xlink:href="#DejaVuSans-54"/>
      <use x="53.333984" xlink:href="#DejaVuSans-41"/>
      <use x="121.742188" xlink:href="#DejaVuSans-53"/>
      <use x="185.21875" xlink:href="#DejaVuSans-20"/>
      <use x="217.005859" xlink:href="#DejaVuSans-28"/>
      <use x="256.019531" xlink:href="#DejaVuSans-34"/>
      <use x="319.642578" xlink:href="#DejaVuSans-37"/>
      <use x="383.265625" xlink:href="#DejaVuSans-2e"/>
      <use x="415.052734" xlink:href="#DejaVuSans-38"/>
      <use x="478.675781" xlink:href="#DejaVuSans-20"/>
      <use x="510.462891" xlink:href="#DejaVuSans-25"/>
      <use x="605.482422" xlink:href="#DejaVuSans-29"/>
     </g>
    </g>
    <g id="line2d_70">
     <path d="M 80.1 156.100781 
L 98.1 156.100781 
" style="fill:none;stroke:#7f7f7f;stroke-linecap:square;stroke-width:1.5;"/>
    </g>
    <g id="line2d_71"/>
    <g id="text_34">
     <!-- ACT (49.4 %) -->
     <g transform="translate(105.3 159.250781)scale(0.09 -0.09)">
      <use xlink:href="#DejaVuSans-41"/>
      <use x="66.658203" xlink:href="#DejaVuSans-43"/>
      <use x="136.482422" xlink:href="#DejaVuSans-54"/>
      <use x="197.566406" xlink:href="#DejaVuSans-20"/>
      <use x="229.353516" xlink:href="#DejaVuSans-28"/>
      <use x="268.367188" xlink:href="#DejaVuSans-34"/>
      <use x="331.990234" xlink:href="#DejaVuSans-39"/>
      <use x="395.613281" xlink:href="#DejaVuSans-2e"/>
      <use x="427.400391" xlink:href="#DejaVuSans-34"/>
      <use x="491.023438" xlink:href="#DejaVuSans-20"/>
      <use x="522.810547" xlink:href="#DejaVuSans-25"/>
      <use x="617.830078" xlink:href="#DejaVuSans-29"/>
     </g>
    </g>
    <g id="line2d_72">
     <path d="M 80.1 169.311094 
L 98.1 169.311094 
" style="fill:none;stroke:#bcbd22;stroke-linecap:square;stroke-width:1.5;"/>
    </g>
    <g id="line2d_73"/>
    <g id="text_35">
     <!-- NT (43.1 %) -->
     <g transform="translate(105.3 172.461094)scale(0.09 -0.09)">
      <use xlink:href="#DejaVuSans-4e"/>
      <use x="74.804688" xlink:href="#DejaVuSans-54"/>
      <use x="135.888672" xlink:href="#DejaVuSans-20"/>
      <use x="167.675781" xlink:href="#DejaVuSans-28"/>
      <use x="206.689453" xlink:href="#DejaVuSans-34"/>
      <use x="270.3125" xlink:href="#DejaVuSans-33"/>
      <use x="333.935547" xlink:href="#DejaVuSans-2e"/>
      <use x="365.722656" xlink:href="#DejaVuSans-31"/>
      <use x="429.345703" xlink:href="#DejaVuSans-20"/>
      <use x="461.132812" xlink:href="#DejaVuSans-25"/>
      <use x="556.152344" xlink:href="#DejaVuSans-29"/>
     </g>
    </g>
   </g>
  </g>
 </g>
 <defs>
  <clipPath id="pb42b4c4f7a">
   <rect height="332.64" width="446.4" x="72" y="51.84"/>
  </clipPath>
 </defs>
</svg>
