<?xml version="1.0" encoding="utf-8" standalone="no"?>
<!DOCTYPE svg PUBLIC "-//W3C//DTD SVG 1.1//EN"
  "http://www.w3.org/Graphics/SVG/1.1/DTD/svg11.dtd">
<svg height="432pt" version="1.1" viewBox="0 0 576 432" width="576pt" xmlns="http://www.w3.org/2000/svg" xmlns:xlink="http://www.w3.org/1999/xlink">
 <metadata>
  <rdf:RDF xmlns:cc="http://creativecommons.org/ns#" xmlns:dc="http://purl.org/dc/elements/1.1/" xmlns:rdf="http://www.w3.org/1999/02/22-rdf-syntax-ns#">
   <cc:Work>
    <dc:type rdf:resource="http://purl.org/dc/dcmitype/StillImage"/>
    <dc:date>2021-09-10T06:48:00.830896</dc:date>
    <dc:format>image/svg+xml</dc:format>
    <dc:creator>
     <cc:Agent>
      <dc:title>Matplotlib v3.4.3, https://matplotlib.org/</dc:title>
     </cc:Agent>
    </dc:creator>
   </cc:Work>
  </rdf:RDF>
 </metadata>
 <defs>
  <style type="text/css">*{stroke-linecap:butt;stroke-linejoin:round;}</style>
 </defs>
 <g id="figure_1">
  <g id="patch_1">
   <path d="M 0 432 
L 576 432 
L 576 0 
L 0 0 
z
" style="fill:#ffffff;"/>
  </g>
  <g id="axes_1">
   <g id="patch_2">
    <path d="M 72 384.48 
L 518.4 384.48 
L 518.4 51.84 
L 72 51.84 
z
" style="fill:#ffffff;"/>
   </g>
   <g id="matplotlib.axis_1">
    <g id="xtick_1">
     <g id="line2d_1">
      <path clip-path="url(#p265d4ad7b9)" d="M 83.301266 384.48 
L 83.301266 51.84 
" style="fill:none;stroke:#000000;stroke-dasharray:0.8,1.32;stroke-dashoffset:0;stroke-opacity:0.5;stroke-width:0.8;"/>
     </g>
     <g id="line2d_2">
      <defs>
       <path d="M 0 0 
L 0 3.5 
" id="mb98d414f12" style="stroke:#000000;stroke-width:0.8;"/>
      </defs>
      <g>
       <use style="stroke:#000000;stroke-width:0.8;" x="83.301266" xlink:href="#mb98d414f12" y="384.48"/>
      </g>
     </g>
     <g id="text_1">
      <!-- 15 -->
      <g transform="translate(76.938766 399.078438)scale(0.1 -0.1)">
       <defs>
        <path d="M 794 531 
L 1825 531 
L 1825 4091 
L 703 3866 
L 703 4441 
L 1819 4666 
L 2450 4666 
L 2450 531 
L 3481 531 
L 3481 0 
L 794 0 
L 794 531 
z
" id="DejaVuSans-31" transform="scale(0.015625)"/>
        <path d="M 691 4666 
L 3169 4666 
L 3169 4134 
L 1269 4134 
L 1269 2991 
Q 1406 3038 1543 3061 
Q 1681 3084 1819 3084 
Q 2600 3084 3056 2656 
Q 3513 2228 3513 1497 
Q 3513 744 3044 326 
Q 2575 -91 1722 -91 
Q 1428 -91 1123 -41 
Q 819 9 494 109 
L 494 744 
Q 775 591 1075 516 
Q 1375 441 1709 441 
Q 2250 441 2565 725 
Q 2881 1009 2881 1497 
Q 2881 1984 2565 2268 
Q 2250 2553 1709 2553 
Q 1456 2553 1204 2497 
Q 953 2441 691 2322 
L 691 4666 
z
" id="DejaVuSans-35" transform="scale(0.015625)"/>
       </defs>
       <use xlink:href="#DejaVuSans-31"/>
       <use x="63.623047" xlink:href="#DejaVuSans-35"/>
      </g>
     </g>
    </g>
    <g id="xtick_2">
     <g id="line2d_3">
      <path clip-path="url(#p265d4ad7b9)" d="M 115.321519 384.48 
L 115.321519 51.84 
" style="fill:none;stroke:#000000;stroke-dasharray:0.8,1.32;stroke-dashoffset:0;stroke-opacity:0.5;stroke-width:0.8;"/>
     </g>
     <g id="line2d_4">
      <g>
       <use style="stroke:#000000;stroke-width:0.8;" x="115.321519" xlink:href="#mb98d414f12" y="384.48"/>
      </g>
     </g>
     <g id="text_2">
      <!-- Jun -->
      <g transform="translate(107.509019 399.078438)scale(0.1 -0.1)">
       <defs>
        <path d="M 628 4666 
L 1259 4666 
L 1259 325 
Q 1259 -519 939 -900 
Q 619 -1281 -91 -1281 
L -331 -1281 
L -331 -750 
L -134 -750 
Q 284 -750 456 -515 
Q 628 -281 628 325 
L 628 4666 
z
" id="DejaVuSans-4a" transform="scale(0.015625)"/>
        <path d="M 544 1381 
L 544 3500 
L 1119 3500 
L 1119 1403 
Q 1119 906 1312 657 
Q 1506 409 1894 409 
Q 2359 409 2629 706 
Q 2900 1003 2900 1516 
L 2900 3500 
L 3475 3500 
L 3475 0 
L 2900 0 
L 2900 538 
Q 2691 219 2414 64 
Q 2138 -91 1772 -91 
Q 1169 -91 856 284 
Q 544 659 544 1381 
z
M 1991 3584 
L 1991 3584 
z
" id="DejaVuSans-75" transform="scale(0.015625)"/>
        <path d="M 3513 2113 
L 3513 0 
L 2938 0 
L 2938 2094 
Q 2938 2591 2744 2837 
Q 2550 3084 2163 3084 
Q 1697 3084 1428 2787 
Q 1159 2491 1159 1978 
L 1159 0 
L 581 0 
L 581 3500 
L 1159 3500 
L 1159 2956 
Q 1366 3272 1645 3428 
Q 1925 3584 2291 3584 
Q 2894 3584 3203 3211 
Q 3513 2838 3513 2113 
z
" id="DejaVuSans-6e" transform="scale(0.015625)"/>
       </defs>
       <use xlink:href="#DejaVuSans-4a"/>
       <use x="29.492188" xlink:href="#DejaVuSans-75"/>
       <use x="92.871094" xlink:href="#DejaVuSans-6e"/>
      </g>
     </g>
    </g>
    <g id="xtick_3">
     <g id="line2d_5">
      <path clip-path="url(#p265d4ad7b9)" d="M 141.691139 384.48 
L 141.691139 51.84 
" style="fill:none;stroke:#000000;stroke-dasharray:0.8,1.32;stroke-dashoffset:0;stroke-opacity:0.5;stroke-width:0.8;"/>
     </g>
     <g id="line2d_6">
      <g>
       <use style="stroke:#000000;stroke-width:0.8;" x="141.691139" xlink:href="#mb98d414f12" y="384.48"/>
      </g>
     </g>
     <g id="text_3">
      <!-- 15 -->
      <g transform="translate(135.328639 399.078438)scale(0.1 -0.1)">
       <use xlink:href="#DejaVuSans-31"/>
       <use x="63.623047" xlink:href="#DejaVuSans-35"/>
      </g>
     </g>
    </g>
    <g id="xtick_4">
     <g id="line2d_7">
      <path clip-path="url(#p265d4ad7b9)" d="M 171.827848 384.48 
L 171.827848 51.84 
" style="fill:none;stroke:#000000;stroke-dasharray:0.8,1.32;stroke-dashoffset:0;stroke-opacity:0.5;stroke-width:0.8;"/>
     </g>
     <g id="line2d_8">
      <g>
       <use style="stroke:#000000;stroke-width:0.8;" x="171.827848" xlink:href="#mb98d414f12" y="384.48"/>
      </g>
     </g>
     <g id="text_4">
      <!-- Jul -->
      <g transform="translate(165.795036 399.078438)scale(0.1 -0.1)">
       <defs>
        <path d="M 603 4863 
L 1178 4863 
L 1178 0 
L 603 0 
L 603 4863 
z
" id="DejaVuSans-6c" transform="scale(0.015625)"/>
       </defs>
       <use xlink:href="#DejaVuSans-4a"/>
       <use x="29.492188" xlink:href="#DejaVuSans-75"/>
       <use x="92.871094" xlink:href="#DejaVuSans-6c"/>
      </g>
     </g>
    </g>
    <g id="xtick_5">
     <g id="line2d_9">
      <path clip-path="url(#p265d4ad7b9)" d="M 198.197468 384.48 
L 198.197468 51.84 
" style="fill:none;stroke:#000000;stroke-dasharray:0.8,1.32;stroke-dashoffset:0;stroke-opacity:0.5;stroke-width:0.8;"/>
     </g>
     <g id="line2d_10">
      <g>
       <use style="stroke:#000000;stroke-width:0.8;" x="198.197468" xlink:href="#mb98d414f12" y="384.48"/>
      </g>
     </g>
     <g id="text_5">
      <!-- 15 -->
      <g transform="translate(191.834968 399.078438)scale(0.1 -0.1)">
       <use xlink:href="#DejaVuSans-31"/>
       <use x="63.623047" xlink:href="#DejaVuSans-35"/>
      </g>
     </g>
    </g>
    <g id="xtick_6">
     <g id="line2d_11">
      <path clip-path="url(#p265d4ad7b9)" d="M 230.217722 384.48 
L 230.217722 51.84 
" style="fill:none;stroke:#000000;stroke-dasharray:0.8,1.32;stroke-dashoffset:0;stroke-opacity:0.5;stroke-width:0.8;"/>
     </g>
     <g id="line2d_12">
      <g>
       <use style="stroke:#000000;stroke-width:0.8;" x="230.217722" xlink:href="#mb98d414f12" y="384.48"/>
      </g>
     </g>
     <g id="text_6">
      <!-- Aug -->
      <g transform="translate(220.45444 399.078438)scale(0.1 -0.1)">
       <defs>
        <path d="M 2188 4044 
L 1331 1722 
L 3047 1722 
L 2188 4044 
z
M 1831 4666 
L 2547 4666 
L 4325 0 
L 3669 0 
L 3244 1197 
L 1141 1197 
L 716 0 
L 50 0 
L 1831 4666 
z
" id="DejaVuSans-41" transform="scale(0.015625)"/>
        <path d="M 2906 1791 
Q 2906 2416 2648 2759 
Q 2391 3103 1925 3103 
Q 1463 3103 1205 2759 
Q 947 2416 947 1791 
Q 947 1169 1205 825 
Q 1463 481 1925 481 
Q 2391 481 2648 825 
Q 2906 1169 2906 1791 
z
M 3481 434 
Q 3481 -459 3084 -895 
Q 2688 -1331 1869 -1331 
Q 1566 -1331 1297 -1286 
Q 1028 -1241 775 -1147 
L 775 -588 
Q 1028 -725 1275 -790 
Q 1522 -856 1778 -856 
Q 2344 -856 2625 -561 
Q 2906 -266 2906 331 
L 2906 616 
Q 2728 306 2450 153 
Q 2172 0 1784 0 
Q 1141 0 747 490 
Q 353 981 353 1791 
Q 353 2603 747 3093 
Q 1141 3584 1784 3584 
Q 2172 3584 2450 3431 
Q 2728 3278 2906 2969 
L 2906 3500 
L 3481 3500 
L 3481 434 
z
" id="DejaVuSans-67" transform="scale(0.015625)"/>
       </defs>
       <use xlink:href="#DejaVuSans-41"/>
       <use x="68.408203" xlink:href="#DejaVuSans-75"/>
       <use x="131.787109" xlink:href="#DejaVuSans-67"/>
      </g>
     </g>
    </g>
    <g id="xtick_7">
     <g id="line2d_13">
      <path clip-path="url(#p265d4ad7b9)" d="M 256.587342 384.48 
L 256.587342 51.84 
" style="fill:none;stroke:#000000;stroke-dasharray:0.8,1.32;stroke-dashoffset:0;stroke-opacity:0.5;stroke-width:0.8;"/>
     </g>
     <g id="line2d_14">
      <g>
       <use style="stroke:#000000;stroke-width:0.8;" x="256.587342" xlink:href="#mb98d414f12" y="384.48"/>
      </g>
     </g>
     <g id="text_7">
      <!-- 15 -->
      <g transform="translate(250.224842 399.078438)scale(0.1 -0.1)">
       <use xlink:href="#DejaVuSans-31"/>
       <use x="63.623047" xlink:href="#DejaVuSans-35"/>
      </g>
     </g>
    </g>
    <g id="xtick_8">
     <g id="line2d_15">
      <path clip-path="url(#p265d4ad7b9)" d="M 288.607595 384.48 
L 288.607595 51.84 
" style="fill:none;stroke:#000000;stroke-dasharray:0.8,1.32;stroke-dashoffset:0;stroke-opacity:0.5;stroke-width:0.8;"/>
     </g>
     <g id="line2d_16">
      <g>
       <use style="stroke:#000000;stroke-width:0.8;" x="288.607595" xlink:href="#mb98d414f12" y="384.48"/>
      </g>
     </g>
     <g id="text_8">
      <!-- Sep -->
      <g transform="translate(279.182595 399.078438)scale(0.1 -0.1)">
       <defs>
        <path d="M 3425 4513 
L 3425 3897 
Q 3066 4069 2747 4153 
Q 2428 4238 2131 4238 
Q 1616 4238 1336 4038 
Q 1056 3838 1056 3469 
Q 1056 3159 1242 3001 
Q 1428 2844 1947 2747 
L 2328 2669 
Q 3034 2534 3370 2195 
Q 3706 1856 3706 1288 
Q 3706 609 3251 259 
Q 2797 -91 1919 -91 
Q 1588 -91 1214 -16 
Q 841 59 441 206 
L 441 856 
Q 825 641 1194 531 
Q 1563 422 1919 422 
Q 2459 422 2753 634 
Q 3047 847 3047 1241 
Q 3047 1584 2836 1778 
Q 2625 1972 2144 2069 
L 1759 2144 
Q 1053 2284 737 2584 
Q 422 2884 422 3419 
Q 422 4038 858 4394 
Q 1294 4750 2059 4750 
Q 2388 4750 2728 4690 
Q 3069 4631 3425 4513 
z
" id="DejaVuSans-53" transform="scale(0.015625)"/>
        <path d="M 3597 1894 
L 3597 1613 
L 953 1613 
Q 991 1019 1311 708 
Q 1631 397 2203 397 
Q 2534 397 2845 478 
Q 3156 559 3463 722 
L 3463 178 
Q 3153 47 2828 -22 
Q 2503 -91 2169 -91 
Q 1331 -91 842 396 
Q 353 884 353 1716 
Q 353 2575 817 3079 
Q 1281 3584 2069 3584 
Q 2775 3584 3186 3129 
Q 3597 2675 3597 1894 
z
M 3022 2063 
Q 3016 2534 2758 2815 
Q 2500 3097 2075 3097 
Q 1594 3097 1305 2825 
Q 1016 2553 972 2059 
L 3022 2063 
z
" id="DejaVuSans-65" transform="scale(0.015625)"/>
        <path d="M 1159 525 
L 1159 -1331 
L 581 -1331 
L 581 3500 
L 1159 3500 
L 1159 2969 
Q 1341 3281 1617 3432 
Q 1894 3584 2278 3584 
Q 2916 3584 3314 3078 
Q 3713 2572 3713 1747 
Q 3713 922 3314 415 
Q 2916 -91 2278 -91 
Q 1894 -91 1617 61 
Q 1341 213 1159 525 
z
M 3116 1747 
Q 3116 2381 2855 2742 
Q 2594 3103 2138 3103 
Q 1681 3103 1420 2742 
Q 1159 2381 1159 1747 
Q 1159 1113 1420 752 
Q 1681 391 2138 391 
Q 2594 391 2855 752 
Q 3116 1113 3116 1747 
z
" id="DejaVuSans-70" transform="scale(0.015625)"/>
       </defs>
       <use xlink:href="#DejaVuSans-53"/>
       <use x="63.476562" xlink:href="#DejaVuSans-65"/>
       <use x="125" xlink:href="#DejaVuSans-70"/>
      </g>
     </g>
    </g>
    <g id="xtick_9">
     <g id="line2d_17">
      <path clip-path="url(#p265d4ad7b9)" d="M 314.977215 384.48 
L 314.977215 51.84 
" style="fill:none;stroke:#000000;stroke-dasharray:0.8,1.32;stroke-dashoffset:0;stroke-opacity:0.5;stroke-width:0.8;"/>
     </g>
     <g id="line2d_18">
      <g>
       <use style="stroke:#000000;stroke-width:0.8;" x="314.977215" xlink:href="#mb98d414f12" y="384.48"/>
      </g>
     </g>
     <g id="text_9">
      <!-- 15 -->
      <g transform="translate(308.614715 399.078438)scale(0.1 -0.1)">
       <use xlink:href="#DejaVuSans-31"/>
       <use x="63.623047" xlink:href="#DejaVuSans-35"/>
      </g>
     </g>
    </g>
    <g id="xtick_10">
     <g id="line2d_19">
      <path clip-path="url(#p265d4ad7b9)" d="M 345.113924 384.48 
L 345.113924 51.84 
" style="fill:none;stroke:#000000;stroke-dasharray:0.8,1.32;stroke-dashoffset:0;stroke-opacity:0.5;stroke-width:0.8;"/>
     </g>
     <g id="line2d_20">
      <g>
       <use style="stroke:#000000;stroke-width:0.8;" x="345.113924" xlink:href="#mb98d414f12" y="384.48"/>
      </g>
     </g>
     <g id="text_10">
      <!-- Oct -->
      <g transform="translate(336.468612 399.078438)scale(0.1 -0.1)">
       <defs>
        <path d="M 2522 4238 
Q 1834 4238 1429 3725 
Q 1025 3213 1025 2328 
Q 1025 1447 1429 934 
Q 1834 422 2522 422 
Q 3209 422 3611 934 
Q 4013 1447 4013 2328 
Q 4013 3213 3611 3725 
Q 3209 4238 2522 4238 
z
M 2522 4750 
Q 3503 4750 4090 4092 
Q 4678 3434 4678 2328 
Q 4678 1225 4090 567 
Q 3503 -91 2522 -91 
Q 1538 -91 948 565 
Q 359 1222 359 2328 
Q 359 3434 948 4092 
Q 1538 4750 2522 4750 
z
" id="DejaVuSans-4f" transform="scale(0.015625)"/>
        <path d="M 3122 3366 
L 3122 2828 
Q 2878 2963 2633 3030 
Q 2388 3097 2138 3097 
Q 1578 3097 1268 2742 
Q 959 2388 959 1747 
Q 959 1106 1268 751 
Q 1578 397 2138 397 
Q 2388 397 2633 464 
Q 2878 531 3122 666 
L 3122 134 
Q 2881 22 2623 -34 
Q 2366 -91 2075 -91 
Q 1284 -91 818 406 
Q 353 903 353 1747 
Q 353 2603 823 3093 
Q 1294 3584 2113 3584 
Q 2378 3584 2631 3529 
Q 2884 3475 3122 3366 
z
" id="DejaVuSans-63" transform="scale(0.015625)"/>
        <path d="M 1172 4494 
L 1172 3500 
L 2356 3500 
L 2356 3053 
L 1172 3053 
L 1172 1153 
Q 1172 725 1289 603 
Q 1406 481 1766 481 
L 2356 481 
L 2356 0 
L 1766 0 
Q 1100 0 847 248 
Q 594 497 594 1153 
L 594 3053 
L 172 3053 
L 172 3500 
L 594 3500 
L 594 4494 
L 1172 4494 
z
" id="DejaVuSans-74" transform="scale(0.015625)"/>
       </defs>
       <use xlink:href="#DejaVuSans-4f"/>
       <use x="78.710938" xlink:href="#DejaVuSans-63"/>
       <use x="133.691406" xlink:href="#DejaVuSans-74"/>
      </g>
     </g>
    </g>
    <g id="xtick_11">
     <g id="line2d_21">
      <path clip-path="url(#p265d4ad7b9)" d="M 371.483544 384.48 
L 371.483544 51.84 
" style="fill:none;stroke:#000000;stroke-dasharray:0.8,1.32;stroke-dashoffset:0;stroke-opacity:0.5;stroke-width:0.8;"/>
     </g>
     <g id="line2d_22">
      <g>
       <use style="stroke:#000000;stroke-width:0.8;" x="371.483544" xlink:href="#mb98d414f12" y="384.48"/>
      </g>
     </g>
     <g id="text_11">
      <!-- 15 -->
      <g transform="translate(365.121044 399.078438)scale(0.1 -0.1)">
       <use xlink:href="#DejaVuSans-31"/>
       <use x="63.623047" xlink:href="#DejaVuSans-35"/>
      </g>
     </g>
    </g>
    <g id="xtick_12">
     <g id="line2d_23">
      <path clip-path="url(#p265d4ad7b9)" d="M 403.503797 384.48 
L 403.503797 51.84 
" style="fill:none;stroke:#000000;stroke-dasharray:0.8,1.32;stroke-dashoffset:0;stroke-opacity:0.5;stroke-width:0.8;"/>
     </g>
     <g id="line2d_24">
      <g>
       <use style="stroke:#000000;stroke-width:0.8;" x="403.503797" xlink:href="#mb98d414f12" y="384.48"/>
      </g>
     </g>
     <g id="text_12">
      <!-- Nov -->
      <g transform="translate(393.744422 399.078438)scale(0.1 -0.1)">
       <defs>
        <path d="M 628 4666 
L 1478 4666 
L 3547 763 
L 3547 4666 
L 4159 4666 
L 4159 0 
L 3309 0 
L 1241 3903 
L 1241 0 
L 628 0 
L 628 4666 
z
" id="DejaVuSans-4e" transform="scale(0.015625)"/>
        <path d="M 1959 3097 
Q 1497 3097 1228 2736 
Q 959 2375 959 1747 
Q 959 1119 1226 758 
Q 1494 397 1959 397 
Q 2419 397 2687 759 
Q 2956 1122 2956 1747 
Q 2956 2369 2687 2733 
Q 2419 3097 1959 3097 
z
M 1959 3584 
Q 2709 3584 3137 3096 
Q 3566 2609 3566 1747 
Q 3566 888 3137 398 
Q 2709 -91 1959 -91 
Q 1206 -91 779 398 
Q 353 888 353 1747 
Q 353 2609 779 3096 
Q 1206 3584 1959 3584 
z
" id="DejaVuSans-6f" transform="scale(0.015625)"/>
        <path d="M 191 3500 
L 800 3500 
L 1894 563 
L 2988 3500 
L 3597 3500 
L 2284 0 
L 1503 0 
L 191 3500 
z
" id="DejaVuSans-76" transform="scale(0.015625)"/>
       </defs>
       <use xlink:href="#DejaVuSans-4e"/>
       <use x="74.804688" xlink:href="#DejaVuSans-6f"/>
       <use x="135.986328" xlink:href="#DejaVuSans-76"/>
      </g>
     </g>
    </g>
    <g id="xtick_13">
     <g id="line2d_25">
      <path clip-path="url(#p265d4ad7b9)" d="M 429.873418 384.48 
L 429.873418 51.84 
" style="fill:none;stroke:#000000;stroke-dasharray:0.8,1.32;stroke-dashoffset:0;stroke-opacity:0.5;stroke-width:0.8;"/>
     </g>
     <g id="line2d_26">
      <g>
       <use style="stroke:#000000;stroke-width:0.8;" x="429.873418" xlink:href="#mb98d414f12" y="384.48"/>
      </g>
     </g>
     <g id="text_13">
      <!-- 15 -->
      <g transform="translate(423.510918 399.078438)scale(0.1 -0.1)">
       <use xlink:href="#DejaVuSans-31"/>
       <use x="63.623047" xlink:href="#DejaVuSans-35"/>
      </g>
     </g>
    </g>
    <g id="xtick_14">
     <g id="line2d_27">
      <path clip-path="url(#p265d4ad7b9)" d="M 460.010127 384.48 
L 460.010127 51.84 
" style="fill:none;stroke:#000000;stroke-dasharray:0.8,1.32;stroke-dashoffset:0;stroke-opacity:0.5;stroke-width:0.8;"/>
     </g>
     <g id="line2d_28">
      <g>
       <use style="stroke:#000000;stroke-width:0.8;" x="460.010127" xlink:href="#mb98d414f12" y="384.48"/>
      </g>
     </g>
     <g id="text_14">
      <!-- Dec -->
      <g transform="translate(450.334345 399.078438)scale(0.1 -0.1)">
       <defs>
        <path d="M 1259 4147 
L 1259 519 
L 2022 519 
Q 2988 519 3436 956 
Q 3884 1394 3884 2338 
Q 3884 3275 3436 3711 
Q 2988 4147 2022 4147 
L 1259 4147 
z
M 628 4666 
L 1925 4666 
Q 3281 4666 3915 4102 
Q 4550 3538 4550 2338 
Q 4550 1131 3912 565 
Q 3275 0 1925 0 
L 628 0 
L 628 4666 
z
" id="DejaVuSans-44" transform="scale(0.015625)"/>
       </defs>
       <use xlink:href="#DejaVuSans-44"/>
       <use x="77.001953" xlink:href="#DejaVuSans-65"/>
       <use x="138.525391" xlink:href="#DejaVuSans-63"/>
      </g>
     </g>
    </g>
    <g id="xtick_15">
     <g id="line2d_29">
      <path clip-path="url(#p265d4ad7b9)" d="M 486.379747 384.48 
L 486.379747 51.84 
" style="fill:none;stroke:#000000;stroke-dasharray:0.8,1.32;stroke-dashoffset:0;stroke-opacity:0.5;stroke-width:0.8;"/>
     </g>
     <g id="line2d_30">
      <g>
       <use style="stroke:#000000;stroke-width:0.8;" x="486.379747" xlink:href="#mb98d414f12" y="384.48"/>
      </g>
     </g>
     <g id="text_15">
      <!-- 15 -->
      <g transform="translate(480.017247 399.078438)scale(0.1 -0.1)">
       <use xlink:href="#DejaVuSans-31"/>
       <use x="63.623047" xlink:href="#DejaVuSans-35"/>
      </g>
     </g>
    </g>
    <g id="xtick_16">
     <g id="line2d_31">
      <path clip-path="url(#p265d4ad7b9)" d="M 518.4 384.48 
L 518.4 51.84 
" style="fill:none;stroke:#000000;stroke-dasharray:0.8,1.32;stroke-dashoffset:0;stroke-opacity:0.5;stroke-width:0.8;"/>
     </g>
     <g id="line2d_32">
      <g>
       <use style="stroke:#000000;stroke-width:0.8;" x="518.4" xlink:href="#mb98d414f12" y="384.48"/>
      </g>
     </g>
     <g id="text_16">
      <!-- Jan -->
      <g transform="translate(510.692188 399.078438)scale(0.1 -0.1)">
       <defs>
        <path d="M 2194 1759 
Q 1497 1759 1228 1600 
Q 959 1441 959 1056 
Q 959 750 1161 570 
Q 1363 391 1709 391 
Q 2188 391 2477 730 
Q 2766 1069 2766 1631 
L 2766 1759 
L 2194 1759 
z
M 3341 1997 
L 3341 0 
L 2766 0 
L 2766 531 
Q 2569 213 2275 61 
Q 1981 -91 1556 -91 
Q 1019 -91 701 211 
Q 384 513 384 1019 
Q 384 1609 779 1909 
Q 1175 2209 1959 2209 
L 2766 2209 
L 2766 2266 
Q 2766 2663 2505 2880 
Q 2244 3097 1772 3097 
Q 1472 3097 1187 3025 
Q 903 2953 641 2809 
L 641 3341 
Q 956 3463 1253 3523 
Q 1550 3584 1831 3584 
Q 2591 3584 2966 3190 
Q 3341 2797 3341 1997 
z
" id="DejaVuSans-61" transform="scale(0.015625)"/>
       </defs>
       <use xlink:href="#DejaVuSans-4a"/>
       <use x="29.492188" xlink:href="#DejaVuSans-61"/>
       <use x="90.771484" xlink:href="#DejaVuSans-6e"/>
      </g>
     </g>
    </g>
    <g id="text_17">
     <!-- 2022-Jan -->
     <g transform="translate(473.364062 411.756563)scale(0.1 -0.1)">
      <defs>
       <path d="M 1228 531 
L 3431 531 
L 3431 0 
L 469 0 
L 469 531 
Q 828 903 1448 1529 
Q 2069 2156 2228 2338 
Q 2531 2678 2651 2914 
Q 2772 3150 2772 3378 
Q 2772 3750 2511 3984 
Q 2250 4219 1831 4219 
Q 1534 4219 1204 4116 
Q 875 4013 500 3803 
L 500 4441 
Q 881 4594 1212 4672 
Q 1544 4750 1819 4750 
Q 2544 4750 2975 4387 
Q 3406 4025 3406 3419 
Q 3406 3131 3298 2873 
Q 3191 2616 2906 2266 
Q 2828 2175 2409 1742 
Q 1991 1309 1228 531 
z
" id="DejaVuSans-32" transform="scale(0.015625)"/>
       <path d="M 2034 4250 
Q 1547 4250 1301 3770 
Q 1056 3291 1056 2328 
Q 1056 1369 1301 889 
Q 1547 409 2034 409 
Q 2525 409 2770 889 
Q 3016 1369 3016 2328 
Q 3016 3291 2770 3770 
Q 2525 4250 2034 4250 
z
M 2034 4750 
Q 2819 4750 3233 4129 
Q 3647 3509 3647 2328 
Q 3647 1150 3233 529 
Q 2819 -91 2034 -91 
Q 1250 -91 836 529 
Q 422 1150 422 2328 
Q 422 3509 836 4129 
Q 1250 4750 2034 4750 
z
" id="DejaVuSans-30" transform="scale(0.015625)"/>
       <path d="M 313 2009 
L 1997 2009 
L 1997 1497 
L 313 1497 
L 313 2009 
z
" id="DejaVuSans-2d" transform="scale(0.015625)"/>
      </defs>
      <use xlink:href="#DejaVuSans-32"/>
      <use x="63.623047" xlink:href="#DejaVuSans-30"/>
      <use x="127.246094" xlink:href="#DejaVuSans-32"/>
      <use x="190.869141" xlink:href="#DejaVuSans-32"/>
      <use x="254.492188" xlink:href="#DejaVuSans-2d"/>
      <use x="296.201172" xlink:href="#DejaVuSans-4a"/>
      <use x="325.693359" xlink:href="#DejaVuSans-61"/>
      <use x="386.972656" xlink:href="#DejaVuSans-6e"/>
     </g>
    </g>
   </g>
   <g id="matplotlib.axis_2">
    <g id="ytick_1">
     <g id="line2d_33">
      <path clip-path="url(#p265d4ad7b9)" d="M 72 384.48 
L 518.4 384.48 
" style="fill:none;stroke:#000000;stroke-dasharray:0.8,1.32;stroke-dashoffset:0;stroke-opacity:0.5;stroke-width:0.8;"/>
     </g>
     <g id="line2d_34">
      <defs>
       <path d="M 0 0 
L -3.5 0 
" id="mc86db2d625" style="stroke:#000000;stroke-width:0.8;"/>
      </defs>
      <g>
       <use style="stroke:#000000;stroke-width:0.8;" x="72" xlink:href="#mc86db2d625" y="384.48"/>
      </g>
     </g>
     <g id="text_18">
      <!-- 0 -->
      <g transform="translate(58.6375 388.279219)scale(0.1 -0.1)">
       <use xlink:href="#DejaVuSans-30"/>
      </g>
     </g>
    </g>
    <g id="ytick_2">
     <g id="line2d_35">
      <path clip-path="url(#p265d4ad7b9)" d="M 72 351.216 
L 518.4 351.216 
" style="fill:none;stroke:#000000;stroke-dasharray:0.8,1.32;stroke-dashoffset:0;stroke-opacity:0.5;stroke-width:0.8;"/>
     </g>
     <g id="line2d_36">
      <g>
       <use style="stroke:#000000;stroke-width:0.8;" x="72" xlink:href="#mc86db2d625" y="351.216"/>
      </g>
     </g>
     <g id="text_19">
      <!-- 1 -->
      <g transform="translate(58.6375 355.015219)scale(0.1 -0.1)">
       <use xlink:href="#DejaVuSans-31"/>
      </g>
     </g>
    </g>
    <g id="ytick_3">
     <g id="line2d_37">
      <path clip-path="url(#p265d4ad7b9)" d="M 72 317.952 
L 518.4 317.952 
" style="fill:none;stroke:#000000;stroke-dasharray:0.8,1.32;stroke-dashoffset:0;stroke-opacity:0.5;stroke-width:0.8;"/>
     </g>
     <g id="line2d_38">
      <g>
       <use style="stroke:#000000;stroke-width:0.8;" x="72" xlink:href="#mc86db2d625" y="317.952"/>
      </g>
     </g>
     <g id="text_20">
      <!-- 2 -->
      <g transform="translate(58.6375 321.751219)scale(0.1 -0.1)">
       <use xlink:href="#DejaVuSans-32"/>
      </g>
     </g>
    </g>
    <g id="ytick_4">
     <g id="line2d_39">
      <path clip-path="url(#p265d4ad7b9)" d="M 72 284.688 
L 518.4 284.688 
" style="fill:none;stroke:#000000;stroke-dasharray:0.8,1.32;stroke-dashoffset:0;stroke-opacity:0.5;stroke-width:0.8;"/>
     </g>
     <g id="line2d_40">
      <g>
       <use style="stroke:#000000;stroke-width:0.8;" x="72" xlink:href="#mc86db2d625" y="284.688"/>
      </g>
     </g>
     <g id="text_21">
      <!-- 3 -->
      <g transform="translate(58.6375 288.487219)scale(0.1 -0.1)">
       <defs>
        <path d="M 2597 2516 
Q 3050 2419 3304 2112 
Q 3559 1806 3559 1356 
Q 3559 666 3084 287 
Q 2609 -91 1734 -91 
Q 1441 -91 1130 -33 
Q 819 25 488 141 
L 488 750 
Q 750 597 1062 519 
Q 1375 441 1716 441 
Q 2309 441 2620 675 
Q 2931 909 2931 1356 
Q 2931 1769 2642 2001 
Q 2353 2234 1838 2234 
L 1294 2234 
L 1294 2753 
L 1863 2753 
Q 2328 2753 2575 2939 
Q 2822 3125 2822 3475 
Q 2822 3834 2567 4026 
Q 2313 4219 1838 4219 
Q 1578 4219 1281 4162 
Q 984 4106 628 3988 
L 628 4550 
Q 988 4650 1302 4700 
Q 1616 4750 1894 4750 
Q 2613 4750 3031 4423 
Q 3450 4097 3450 3541 
Q 3450 3153 3228 2886 
Q 3006 2619 2597 2516 
z
" id="DejaVuSans-33" transform="scale(0.015625)"/>
       </defs>
       <use xlink:href="#DejaVuSans-33"/>
      </g>
     </g>
    </g>
    <g id="ytick_5">
     <g id="line2d_41">
      <path clip-path="url(#p265d4ad7b9)" d="M 72 251.424 
L 518.4 251.424 
" style="fill:none;stroke:#000000;stroke-dasharray:0.8,1.32;stroke-dashoffset:0;stroke-opacity:0.5;stroke-width:0.8;"/>
     </g>
     <g id="line2d_42">
      <g>
       <use style="stroke:#000000;stroke-width:0.8;" x="72" xlink:href="#mc86db2d625" y="251.424"/>
      </g>
     </g>
     <g id="text_22">
      <!-- 4 -->
      <g transform="translate(58.6375 255.223219)scale(0.1 -0.1)">
       <defs>
        <path d="M 2419 4116 
L 825 1625 
L 2419 1625 
L 2419 4116 
z
M 2253 4666 
L 3047 4666 
L 3047 1625 
L 3713 1625 
L 3713 1100 
L 3047 1100 
L 3047 0 
L 2419 0 
L 2419 1100 
L 313 1100 
L 313 1709 
L 2253 4666 
z
" id="DejaVuSans-34" transform="scale(0.015625)"/>
       </defs>
       <use xlink:href="#DejaVuSans-34"/>
      </g>
     </g>
    </g>
    <g id="ytick_6">
     <g id="line2d_43">
      <path clip-path="url(#p265d4ad7b9)" d="M 72 218.16 
L 518.4 218.16 
" style="fill:none;stroke:#000000;stroke-dasharray:0.8,1.32;stroke-dashoffset:0;stroke-opacity:0.5;stroke-width:0.8;"/>
     </g>
     <g id="line2d_44">
      <g>
       <use style="stroke:#000000;stroke-width:0.8;" x="72" xlink:href="#mc86db2d625" y="218.16"/>
      </g>
     </g>
     <g id="text_23">
      <!-- 5 -->
      <g transform="translate(58.6375 221.959219)scale(0.1 -0.1)">
       <use xlink:href="#DejaVuSans-35"/>
      </g>
     </g>
    </g>
    <g id="ytick_7">
     <g id="line2d_45">
      <path clip-path="url(#p265d4ad7b9)" d="M 72 184.896 
L 518.4 184.896 
" style="fill:none;stroke:#000000;stroke-dasharray:0.8,1.32;stroke-dashoffset:0;stroke-opacity:0.5;stroke-width:0.8;"/>
     </g>
     <g id="line2d_46">
      <g>
       <use style="stroke:#000000;stroke-width:0.8;" x="72" xlink:href="#mc86db2d625" y="184.896"/>
      </g>
     </g>
     <g id="text_24">
      <!-- 6 -->
      <g transform="translate(58.6375 188.695219)scale(0.1 -0.1)">
       <defs>
        <path d="M 2113 2584 
Q 1688 2584 1439 2293 
Q 1191 2003 1191 1497 
Q 1191 994 1439 701 
Q 1688 409 2113 409 
Q 2538 409 2786 701 
Q 3034 994 3034 1497 
Q 3034 2003 2786 2293 
Q 2538 2584 2113 2584 
z
M 3366 4563 
L 3366 3988 
Q 3128 4100 2886 4159 
Q 2644 4219 2406 4219 
Q 1781 4219 1451 3797 
Q 1122 3375 1075 2522 
Q 1259 2794 1537 2939 
Q 1816 3084 2150 3084 
Q 2853 3084 3261 2657 
Q 3669 2231 3669 1497 
Q 3669 778 3244 343 
Q 2819 -91 2113 -91 
Q 1303 -91 875 529 
Q 447 1150 447 2328 
Q 447 3434 972 4092 
Q 1497 4750 2381 4750 
Q 2619 4750 2861 4703 
Q 3103 4656 3366 4563 
z
" id="DejaVuSans-36" transform="scale(0.015625)"/>
       </defs>
       <use xlink:href="#DejaVuSans-36"/>
      </g>
     </g>
    </g>
    <g id="ytick_8">
     <g id="line2d_47">
      <path clip-path="url(#p265d4ad7b9)" d="M 72 151.632 
L 518.4 151.632 
" style="fill:none;stroke:#000000;stroke-dasharray:0.8,1.32;stroke-dashoffset:0;stroke-opacity:0.5;stroke-width:0.8;"/>
     </g>
     <g id="line2d_48">
      <g>
       <use style="stroke:#000000;stroke-width:0.8;" x="72" xlink:href="#mc86db2d625" y="151.632"/>
      </g>
     </g>
     <g id="text_25">
      <!-- 7 -->
      <g transform="translate(58.6375 155.431219)scale(0.1 -0.1)">
       <defs>
        <path d="M 525 4666 
L 3525 4666 
L 3525 4397 
L 1831 0 
L 1172 0 
L 2766 4134 
L 525 4134 
L 525 4666 
z
" id="DejaVuSans-37" transform="scale(0.015625)"/>
       </defs>
       <use xlink:href="#DejaVuSans-37"/>
      </g>
     </g>
    </g>
    <g id="ytick_9">
     <g id="line2d_49">
      <path clip-path="url(#p265d4ad7b9)" d="M 72 118.368 
L 518.4 118.368 
" style="fill:none;stroke:#000000;stroke-dasharray:0.8,1.32;stroke-dashoffset:0;stroke-opacity:0.5;stroke-width:0.8;"/>
     </g>
     <g id="line2d_50">
      <g>
       <use style="stroke:#000000;stroke-width:0.8;" x="72" xlink:href="#mc86db2d625" y="118.368"/>
      </g>
     </g>
     <g id="text_26">
      <!-- 8 -->
      <g transform="translate(58.6375 122.167219)scale(0.1 -0.1)">
       <defs>
        <path d="M 2034 2216 
Q 1584 2216 1326 1975 
Q 1069 1734 1069 1313 
Q 1069 891 1326 650 
Q 1584 409 2034 409 
Q 2484 409 2743 651 
Q 3003 894 3003 1313 
Q 3003 1734 2745 1975 
Q 2488 2216 2034 2216 
z
M 1403 2484 
Q 997 2584 770 2862 
Q 544 3141 544 3541 
Q 544 4100 942 4425 
Q 1341 4750 2034 4750 
Q 2731 4750 3128 4425 
Q 3525 4100 3525 3541 
Q 3525 3141 3298 2862 
Q 3072 2584 2669 2484 
Q 3125 2378 3379 2068 
Q 3634 1759 3634 1313 
Q 3634 634 3220 271 
Q 2806 -91 2034 -91 
Q 1263 -91 848 271 
Q 434 634 434 1313 
Q 434 1759 690 2068 
Q 947 2378 1403 2484 
z
M 1172 3481 
Q 1172 3119 1398 2916 
Q 1625 2713 2034 2713 
Q 2441 2713 2670 2916 
Q 2900 3119 2900 3481 
Q 2900 3844 2670 4047 
Q 2441 4250 2034 4250 
Q 1625 4250 1398 4047 
Q 1172 3844 1172 3481 
z
" id="DejaVuSans-38" transform="scale(0.015625)"/>
       </defs>
       <use xlink:href="#DejaVuSans-38"/>
      </g>
     </g>
    </g>
    <g id="ytick_10">
     <g id="line2d_51">
      <path clip-path="url(#p265d4ad7b9)" d="M 72 85.104 
L 518.4 85.104 
" style="fill:none;stroke:#000000;stroke-dasharray:0.8,1.32;stroke-dashoffset:0;stroke-opacity:0.5;stroke-width:0.8;"/>
     </g>
     <g id="line2d_52">
      <g>
       <use style="stroke:#000000;stroke-width:0.8;" x="72" xlink:href="#mc86db2d625" y="85.104"/>
      </g>
     </g>
     <g id="text_27">
      <!-- 9 -->
      <g transform="translate(58.6375 88.903219)scale(0.1 -0.1)">
       <defs>
        <path d="M 703 97 
L 703 672 
Q 941 559 1184 500 
Q 1428 441 1663 441 
Q 2288 441 2617 861 
Q 2947 1281 2994 2138 
Q 2813 1869 2534 1725 
Q 2256 1581 1919 1581 
Q 1219 1581 811 2004 
Q 403 2428 403 3163 
Q 403 3881 828 4315 
Q 1253 4750 1959 4750 
Q 2769 4750 3195 4129 
Q 3622 3509 3622 2328 
Q 3622 1225 3098 567 
Q 2575 -91 1691 -91 
Q 1453 -91 1209 -44 
Q 966 3 703 97 
z
M 1959 2075 
Q 2384 2075 2632 2365 
Q 2881 2656 2881 3163 
Q 2881 3666 2632 3958 
Q 2384 4250 1959 4250 
Q 1534 4250 1286 3958 
Q 1038 3666 1038 3163 
Q 1038 2656 1286 2365 
Q 1534 2075 1959 2075 
z
" id="DejaVuSans-39" transform="scale(0.015625)"/>
       </defs>
       <use xlink:href="#DejaVuSans-39"/>
      </g>
     </g>
    </g>
    <g id="ytick_11">
     <g id="line2d_53">
      <path clip-path="url(#p265d4ad7b9)" d="M 72 51.84 
L 518.4 51.84 
" style="fill:none;stroke:#000000;stroke-dasharray:0.8,1.32;stroke-dashoffset:0;stroke-opacity:0.5;stroke-width:0.8;"/>
     </g>
     <g id="line2d_54">
      <g>
       <use style="stroke:#000000;stroke-width:0.8;" x="72" xlink:href="#mc86db2d625" y="51.84"/>
      </g>
     </g>
     <g id="text_28">
      <!-- 10 -->
      <g transform="translate(52.275 55.639219)scale(0.1 -0.1)">
       <use xlink:href="#DejaVuSans-31"/>
       <use x="63.623047" xlink:href="#DejaVuSans-30"/>
      </g>
     </g>
    </g>
    <g id="text_29">
     <!-- Vaccination rate (% of age group / week) -->
     <g transform="translate(46.195312 320.362344)rotate(-90)scale(0.1 -0.1)">
      <defs>
       <path d="M 1831 0 
L 50 4666 
L 709 4666 
L 2188 738 
L 3669 4666 
L 4325 4666 
L 2547 0 
L 1831 0 
z
" id="DejaVuSans-56" transform="scale(0.015625)"/>
       <path d="M 603 3500 
L 1178 3500 
L 1178 0 
L 603 0 
L 603 3500 
z
M 603 4863 
L 1178 4863 
L 1178 4134 
L 603 4134 
L 603 4863 
z
" id="DejaVuSans-69" transform="scale(0.015625)"/>
       <path id="DejaVuSans-20" transform="scale(0.015625)"/>
       <path d="M 2631 2963 
Q 2534 3019 2420 3045 
Q 2306 3072 2169 3072 
Q 1681 3072 1420 2755 
Q 1159 2438 1159 1844 
L 1159 0 
L 581 0 
L 581 3500 
L 1159 3500 
L 1159 2956 
Q 1341 3275 1631 3429 
Q 1922 3584 2338 3584 
Q 2397 3584 2469 3576 
Q 2541 3569 2628 3553 
L 2631 2963 
z
" id="DejaVuSans-72" transform="scale(0.015625)"/>
       <path d="M 1984 4856 
Q 1566 4138 1362 3434 
Q 1159 2731 1159 2009 
Q 1159 1288 1364 580 
Q 1569 -128 1984 -844 
L 1484 -844 
Q 1016 -109 783 600 
Q 550 1309 550 2009 
Q 550 2706 781 3412 
Q 1013 4119 1484 4856 
L 1984 4856 
z
" id="DejaVuSans-28" transform="scale(0.015625)"/>
       <path d="M 4653 2053 
Q 4381 2053 4226 1822 
Q 4072 1591 4072 1178 
Q 4072 772 4226 539 
Q 4381 306 4653 306 
Q 4919 306 5073 539 
Q 5228 772 5228 1178 
Q 5228 1588 5073 1820 
Q 4919 2053 4653 2053 
z
M 4653 2450 
Q 5147 2450 5437 2106 
Q 5728 1763 5728 1178 
Q 5728 594 5436 251 
Q 5144 -91 4653 -91 
Q 4153 -91 3862 251 
Q 3572 594 3572 1178 
Q 3572 1766 3864 2108 
Q 4156 2450 4653 2450 
z
M 1428 4353 
Q 1159 4353 1004 4120 
Q 850 3888 850 3481 
Q 850 3069 1003 2837 
Q 1156 2606 1428 2606 
Q 1700 2606 1854 2837 
Q 2009 3069 2009 3481 
Q 2009 3884 1853 4118 
Q 1697 4353 1428 4353 
z
M 4250 4750 
L 4750 4750 
L 1831 -91 
L 1331 -91 
L 4250 4750 
z
M 1428 4750 
Q 1922 4750 2215 4408 
Q 2509 4066 2509 3481 
Q 2509 2891 2217 2550 
Q 1925 2209 1428 2209 
Q 931 2209 642 2551 
Q 353 2894 353 3481 
Q 353 4063 643 4406 
Q 934 4750 1428 4750 
z
" id="DejaVuSans-25" transform="scale(0.015625)"/>
       <path d="M 2375 4863 
L 2375 4384 
L 1825 4384 
Q 1516 4384 1395 4259 
Q 1275 4134 1275 3809 
L 1275 3500 
L 2222 3500 
L 2222 3053 
L 1275 3053 
L 1275 0 
L 697 0 
L 697 3053 
L 147 3053 
L 147 3500 
L 697 3500 
L 697 3744 
Q 697 4328 969 4595 
Q 1241 4863 1831 4863 
L 2375 4863 
z
" id="DejaVuSans-66" transform="scale(0.015625)"/>
       <path d="M 1625 4666 
L 2156 4666 
L 531 -594 
L 0 -594 
L 1625 4666 
z
" id="DejaVuSans-2f" transform="scale(0.015625)"/>
       <path d="M 269 3500 
L 844 3500 
L 1563 769 
L 2278 3500 
L 2956 3500 
L 3675 769 
L 4391 3500 
L 4966 3500 
L 4050 0 
L 3372 0 
L 2619 2869 
L 1863 0 
L 1184 0 
L 269 3500 
z
" id="DejaVuSans-77" transform="scale(0.015625)"/>
       <path d="M 581 4863 
L 1159 4863 
L 1159 1991 
L 2875 3500 
L 3609 3500 
L 1753 1863 
L 3688 0 
L 2938 0 
L 1159 1709 
L 1159 0 
L 581 0 
L 581 4863 
z
" id="DejaVuSans-6b" transform="scale(0.015625)"/>
       <path d="M 513 4856 
L 1013 4856 
Q 1481 4119 1714 3412 
Q 1947 2706 1947 2009 
Q 1947 1309 1714 600 
Q 1481 -109 1013 -844 
L 513 -844 
Q 928 -128 1133 580 
Q 1338 1288 1338 2009 
Q 1338 2731 1133 3434 
Q 928 4138 513 4856 
z
" id="DejaVuSans-29" transform="scale(0.015625)"/>
      </defs>
      <use xlink:href="#DejaVuSans-56"/>
      <use x="60.658203" xlink:href="#DejaVuSans-61"/>
      <use x="121.9375" xlink:href="#DejaVuSans-63"/>
      <use x="176.917969" xlink:href="#DejaVuSans-63"/>
      <use x="231.898438" xlink:href="#DejaVuSans-69"/>
      <use x="259.681641" xlink:href="#DejaVuSans-6e"/>
      <use x="323.060547" xlink:href="#DejaVuSans-61"/>
      <use x="384.339844" xlink:href="#DejaVuSans-74"/>
      <use x="423.548828" xlink:href="#DejaVuSans-69"/>
      <use x="451.332031" xlink:href="#DejaVuSans-6f"/>
      <use x="512.513672" xlink:href="#DejaVuSans-6e"/>
      <use x="575.892578" xlink:href="#DejaVuSans-20"/>
      <use x="607.679688" xlink:href="#DejaVuSans-72"/>
      <use x="648.792969" xlink:href="#DejaVuSans-61"/>
      <use x="710.072266" xlink:href="#DejaVuSans-74"/>
      <use x="749.28125" xlink:href="#DejaVuSans-65"/>
      <use x="810.804688" xlink:href="#DejaVuSans-20"/>
      <use x="842.591797" xlink:href="#DejaVuSans-28"/>
      <use x="881.605469" xlink:href="#DejaVuSans-25"/>
      <use x="976.625" xlink:href="#DejaVuSans-20"/>
      <use x="1008.412109" xlink:href="#DejaVuSans-6f"/>
      <use x="1069.59375" xlink:href="#DejaVuSans-66"/>
      <use x="1104.798828" xlink:href="#DejaVuSans-20"/>
      <use x="1136.585938" xlink:href="#DejaVuSans-61"/>
      <use x="1197.865234" xlink:href="#DejaVuSans-67"/>
      <use x="1261.341797" xlink:href="#DejaVuSans-65"/>
      <use x="1322.865234" xlink:href="#DejaVuSans-20"/>
      <use x="1354.652344" xlink:href="#DejaVuSans-67"/>
      <use x="1418.128906" xlink:href="#DejaVuSans-72"/>
      <use x="1456.992188" xlink:href="#DejaVuSans-6f"/>
      <use x="1518.173828" xlink:href="#DejaVuSans-75"/>
      <use x="1581.552734" xlink:href="#DejaVuSans-70"/>
      <use x="1645.029297" xlink:href="#DejaVuSans-20"/>
      <use x="1676.816406" xlink:href="#DejaVuSans-2f"/>
      <use x="1710.507812" xlink:href="#DejaVuSans-20"/>
      <use x="1742.294922" xlink:href="#DejaVuSans-77"/>
      <use x="1824.082031" xlink:href="#DejaVuSans-65"/>
      <use x="1885.605469" xlink:href="#DejaVuSans-65"/>
      <use x="1947.128906" xlink:href="#DejaVuSans-6b"/>
      <use x="2005.039062" xlink:href="#DejaVuSans-29"/>
     </g>
    </g>
   </g>
   <g id="line2d_55">
    <path clip-path="url(#p265d4ad7b9)" d="M 87.068354 215.115639 
L 88.951899 205.28852 
L 90.835443 200.472147 
L 92.718987 200.004319 
L 94.602532 200.065481 
L 96.486076 203.026995 
L 98.36962 205.047144 
L 100.253165 215.05162 
L 102.136709 236.809427 
L 104.020253 256.178125 
L 105.903797 268.270711 
L 107.787342 272.927767 
L 109.670886 274.234445 
L 111.55443 275.561511 
L 113.437975 268.803664 
L 115.321519 253.739316 
L 117.205063 246.416295 
L 119.088608 251.997572 
L 120.972152 262.628479 
L 122.855696 269.104399 
L 124.739241 270.685826 
L 126.622785 270.269111 
L 128.506329 270.03318 
L 130.389873 270.997022 
L 132.273418 271.436926 
L 134.156962 271.737175 
L 136.040506 274.751331 
L 137.924051 281.08835 
L 139.807595 292.769292 
L 141.691139 306.612843 
L 143.574684 314.133277 
L 145.458228 313.945408 
L 147.341772 309.527555 
L 149.225316 304.608784 
L 151.108861 300.800505 
L 152.992405 298.709155 
L 154.875949 300.229386 
L 156.759494 303.272698 
L 158.643038 305.476047 
L 160.526582 307.163818 
L 162.410127 308.503382 
L 164.293671 309.569761 
L 166.177215 310.252131 
L 168.060759 309.929003 
L 169.944304 309.220385 
L 171.827848 309.00538 
L 173.711392 308.625854 
L 175.594937 308.260355 
L 177.478481 308.53005 
L 179.362025 309.544789 
L 181.24557 311.661267 
L 183.129114 314.933394 
L 185.012658 318.206383 
L 186.896203 320.741849 
L 188.779747 322.044936 
L 190.663291 322.483638 
L 192.546835 322.905274 
L 194.43038 323.473412 
L 196.313924 323.932258 
L 198.197468 323.804616 
L 200.081013 322.800502 
L 201.964557 321.698142 
L 203.848101 321.162649 
L 205.731646 320.91355 
L 207.61519 320.718234 
L 209.498734 320.476391 
L 211.382278 320.446465 
L 213.265823 321.178972 
L 215.149367 322.402647 
L 217.032911 323.194902 
L 218.916456 323.703425 
L 220.8 324.385019 
L 222.683544 325.117374 
L 224.567089 325.647672 
L 226.450633 325.911113 
L 228.334177 325.905606 
L 230.217722 325.866943 
L 232.101266 325.961177 
L 233.98481 325.961031 
L 235.868354 325.850725 
L 237.751899 325.822151 
L 239.635443 325.821305 
L 241.518987 325.81086 
L 243.402532 325.659629 
L 245.286076 325.179851 
L 247.16962 324.562614 
L 249.053165 324.301573 
L 250.936709 324.112337 
L 252.820253 323.402316 
L 254.703797 322.545702 
L 256.587342 322.023374 
L 258.470886 321.857236 
L 260.35443 321.812949 
L 262.237975 321.730243 
L 264.121519 321.999395 
L 266.005063 322.676967 
L 267.888608 323.273467 
L 269.772152 323.756256 
L 271.655696 324.319662 
L 273.539241 324.871083 
L 275.422785 325.042436 
L 277.306329 324.833756 
L 279.189873 324.780594 
L 281.073418 324.913616 
L 282.956962 325.038387 
L 284.840506 325.143794 
L 286.724051 325.337514 
L 288.607595 325.670043 
L 290.491139 325.883552 
L 292.374684 326.099628 
L 294.258228 326.48479 
L 296.141772 326.763738 
L 298.025316 326.702108 
L 299.908861 326.161192 
L 301.792405 325.182839 
L 303.675949 324.464805 
" style="fill:none;stroke:#1f77b4;stroke-linecap:square;stroke-width:1.5;"/>
   </g>
   <g id="line2d_56">
    <path clip-path="url(#p265d4ad7b9)" d="M 87.068354 222.262732 
L 88.951899 220.438774 
L 90.835443 220.039476 
L 92.718987 217.431844 
L 94.602532 213.14428 
L 96.486076 213.617755 
L 98.36962 212.443849 
L 100.253165 216.158245 
L 102.136709 229.021291 
L 104.020253 238.842349 
L 105.903797 243.683942 
L 107.787342 247.396745 
L 109.670886 250.756261 
L 111.55443 253.355757 
L 113.437975 244.462378 
L 115.321519 224.796847 
L 117.205063 214.845045 
L 119.088608 220.33954 
L 120.972152 231.415409 
L 122.855696 238.02037 
L 124.739241 240.392038 
L 126.622785 241.910154 
L 128.506329 242.872931 
L 130.389873 243.403853 
L 132.273418 243.066293 
L 134.156962 243.255061 
L 136.040506 247.19189 
L 137.924051 255.409757 
L 139.807595 270.157967 
L 141.691139 287.567605 
L 143.574684 297.318055 
L 145.458228 296.923119 
L 147.341772 290.494848 
L 149.225316 283.748568 
L 151.108861 279.064865 
L 152.992405 276.210917 
L 154.875949 276.81379 
L 156.759494 279.95389 
L 158.643038 283.591247 
L 160.526582 286.736933 
L 162.410127 288.970085 
L 164.293671 290.474533 
L 166.177215 291.648158 
L 168.060759 292.49181 
L 169.944304 293.051052 
L 171.827848 293.843111 
L 173.711392 295.011956 
L 175.594937 296.014359 
L 177.478481 296.954889 
L 179.362025 298.556221 
L 181.24557 301.329724 
L 183.129114 304.938214 
L 185.012658 308.106663 
L 186.896203 310.200669 
L 188.779747 311.277143 
L 190.663291 311.906188 
L 192.546835 312.841551 
L 194.43038 314.202137 
L 196.313924 315.52141 
L 198.197468 316.51047 
L 200.081013 317.037462 
L 201.964557 317.16286 
L 203.848101 317.132962 
L 205.731646 317.102709 
L 207.61519 317.157092 
L 209.498734 317.217966 
L 211.382278 317.146403 
L 213.265823 317.083808 
L 215.149367 317.208456 
L 217.032911 317.466902 
L 218.916456 317.889631 
L 220.8 318.437066 
L 222.683544 319.149168 
L 224.567089 320.011084 
L 226.450633 320.687585 
L 228.334177 321.110456 
L 230.217722 321.352919 
L 232.101266 321.503475 
L 233.98481 321.439047 
L 235.868354 321.000855 
L 237.751899 320.339541 
L 239.635443 319.726161 
L 241.518987 319.325999 
L 243.402532 319.226355 
L 245.286076 319.346916 
L 247.16962 319.519291 
L 249.053165 319.818085 
L 250.936709 320.16625 
L 252.820253 320.353539 
L 254.703797 320.31251 
L 256.587342 320.209108 
L 258.470886 320.159462 
L 260.35443 320.198029 
L 262.237975 320.28422 
L 264.121519 320.51413 
L 266.005063 320.813078 
L 267.888608 320.903496 
L 269.772152 320.669975 
L 271.655696 320.387014 
L 273.539241 320.349675 
L 275.422785 320.450473 
L 277.306329 320.46891 
L 279.189873 320.39054 
L 281.073418 320.3624 
L 282.956962 320.720322 
L 284.840506 321.494348 
L 286.724051 322.461847 
L 288.607595 323.643673 
L 290.491139 324.916307 
L 292.374684 326.059199 
L 294.258228 326.877876 
L 296.141772 327.192253 
L 298.025316 327.090581 
L 299.908861 326.690018 
L 301.792405 325.985832 
L 303.675949 325.356966 
" style="fill:none;stroke:#ff7f0e;stroke-linecap:square;stroke-width:1.5;"/>
   </g>
   <g id="line2d_57">
    <path clip-path="url(#p265d4ad7b9)" d="M 87.068354 226.425453 
L 88.951899 226.314821 
L 90.835443 225.664096 
L 92.718987 220.752718 
L 94.602532 215.187983 
L 96.486076 215.458168 
L 98.36962 213.802224 
L 100.253165 215.799367 
L 102.136709 225.299947 
L 104.020253 231.687564 
L 105.903797 233.769067 
L 107.787342 234.867063 
L 109.670886 236.857048 
L 111.55443 239.183785 
L 113.437975 228.367942 
L 115.321519 204.5943 
L 117.205063 191.670956 
L 119.088608 196.548503 
L 120.972152 208.459903 
L 122.855696 215.327563 
L 124.739241 217.145244 
L 126.622785 218.793574 
L 128.506329 220.442652 
L 130.389873 221.524572 
L 132.273418 221.634965 
L 134.156962 222.04684 
L 136.040506 226.640024 
L 137.924051 236.440783 
L 139.807595 253.955503 
L 141.691139 275.071823 
L 143.574684 287.49415 
L 145.458228 287.812243 
L 147.341772 281.32501 
L 149.225316 274.492247 
L 151.108861 269.597809 
L 152.992405 266.710926 
L 154.875949 268.012132 
L 156.759494 272.578416 
L 158.643038 277.825975 
L 160.526582 282.324959 
L 162.410127 285.12863 
L 164.293671 286.915606 
L 166.177215 288.547587 
L 168.060759 288.977138 
L 169.944304 287.779097 
L 171.827848 286.815037 
L 173.711392 286.738841 
L 175.594937 287.242383 
L 177.478481 288.087636 
L 179.362025 289.5559 
L 181.24557 292.965089 
L 183.129114 298.142893 
L 185.012658 302.747784 
L 186.896203 305.692003 
L 188.779747 307.219916 
L 190.663291 308.15308 
L 192.546835 309.283954 
L 194.43038 310.548216 
L 196.313924 311.66563 
L 198.197468 312.450399 
L 200.081013 312.809051 
L 201.964557 312.905486 
L 203.848101 312.913639 
L 205.731646 313.062377 
L 207.61519 313.504148 
L 209.498734 314.004855 
L 211.382278 314.407197 
L 213.265823 314.589195 
L 215.149367 314.635915 
L 217.032911 314.854579 
L 218.916456 315.373208 
L 220.8 316.014608 
L 222.683544 316.610437 
L 224.567089 317.101743 
L 226.450633 317.53746 
L 228.334177 317.879081 
L 230.217722 318.061499 
L 232.101266 318.09056 
L 233.98481 317.772465 
L 235.868354 317.025294 
L 237.751899 316.01142 
L 239.635443 314.991573 
L 241.518987 314.289262 
L 243.402532 313.922896 
L 245.286076 313.711532 
L 247.16962 313.766695 
L 249.053165 314.35337 
L 250.936709 315.263804 
L 252.820253 315.985687 
L 254.703797 316.212886 
L 256.587342 316.184588 
L 258.470886 316.268258 
L 260.35443 316.40139 
L 262.237975 316.284184 
L 264.121519 316.105216 
L 266.005063 316.101616 
L 267.888608 316.199881 
L 269.772152 316.206916 
L 271.655696 316.07152 
L 273.539241 316.002655 
L 275.422785 316.152986 
L 277.306329 316.387782 
L 279.189873 316.579555 
L 281.073418 316.751004 
L 282.956962 317.097869 
L 284.840506 317.744416 
L 286.724051 318.548311 
L 288.607595 319.413638 
L 290.491139 320.147772 
L 292.374684 320.678639 
L 294.258228 321.023335 
L 296.141772 321.132136 
L 298.025316 321.041722 
L 299.908861 320.993154 
L 301.792405 321.054287 
L 303.675949 321.181161 
" style="fill:none;stroke:#2ca02c;stroke-linecap:square;stroke-width:1.5;"/>
   </g>
   <g id="line2d_58">
    <path clip-path="url(#p265d4ad7b9)" d="M 87.068354 245.607892 
L 88.951899 240.086916 
L 90.835443 230.84527 
L 92.718987 216.599435 
L 94.602532 203.667883 
L 96.486076 198.102869 
L 98.36962 190.80873 
L 100.253165 188.911804 
L 102.136709 196.767323 
L 104.020253 201.094583 
L 105.903797 200.08421 
L 107.787342 197.810298 
L 109.670886 197.205444 
L 111.55443 197.244216 
L 113.437975 179.433019 
L 115.321519 144.679557 
L 117.205063 124.701415 
L 119.088608 129.42101 
L 120.972152 144.84107 
L 122.855696 153.689411 
L 124.739241 154.401591 
L 126.622785 153.649293 
L 128.506329 153.112688 
L 130.389873 152.791187 
L 132.273418 151.555776 
L 134.156962 151.689185 
L 136.040506 159.420163 
L 137.924051 176.168445 
L 139.807595 203.920456 
L 141.691139 235.299365 
L 143.574684 254.450465 
L 145.458228 257.975916 
L 147.341772 251.33106 
L 149.225316 242.677155 
L 151.108861 236.725548 
L 152.992405 234.423182 
L 154.875949 238.707599 
L 156.759494 246.970293 
L 158.643038 254.783429 
L 160.526582 261.029049 
L 162.410127 265.068168 
L 164.293671 267.157095 
L 166.177215 268.235726 
L 168.060759 266.902868 
L 169.944304 262.4906 
L 171.827848 258.268641 
L 173.711392 256.147568 
L 175.594937 255.537201 
L 177.478481 255.49224 
L 179.362025 256.39911 
L 181.24557 260.365281 
L 183.129114 267.329089 
L 185.012658 273.708461 
L 186.896203 277.673467 
L 188.779747 279.723507 
L 190.663291 281.167244 
L 192.546835 283.047189 
L 194.43038 285.034226 
L 196.313924 286.56538 
L 198.197468 287.574135 
L 200.081013 288.073469 
L 201.964557 288.205736 
L 203.848101 288.135284 
L 205.731646 287.987756 
L 207.61519 287.863231 
L 209.498734 287.578032 
L 211.382278 287.22952 
L 213.265823 286.908788 
L 215.149367 286.627864 
L 217.032911 286.411831 
L 218.916456 286.279528 
L 220.8 286.214332 
L 222.683544 286.3684 
L 224.567089 286.907911 
L 226.450633 287.717726 
L 228.334177 288.463757 
L 230.217722 288.937628 
L 232.101266 289.117395 
L 233.98481 288.773843 
L 235.868354 287.704357 
L 237.751899 285.717612 
L 239.635443 283.35852 
L 241.518987 281.527848 
L 243.402532 280.426947 
L 245.286076 279.737294 
L 247.16962 279.35443 
L 249.053165 279.602486 
L 250.936709 280.588431 
L 252.820253 281.658938 
L 254.703797 282.183682 
L 256.587342 282.30317 
L 258.470886 282.458607 
L 260.35443 282.736378 
L 262.237975 282.750405 
L 264.121519 282.555844 
L 266.005063 282.366918 
L 267.888608 282.216478 
L 269.772152 281.887604 
L 271.655696 281.298875 
L 273.539241 280.742839 
L 275.422785 280.511619 
L 277.306329 280.493418 
L 279.189873 280.477497 
L 281.073418 280.460138 
L 282.956962 280.880676 
L 284.840506 281.960484 
L 286.724051 283.447286 
L 288.607595 285.155965 
L 290.491139 286.74616 
L 292.374684 287.974726 
L 294.258228 288.858473 
L 296.141772 289.420492 
L 298.025316 289.825567 
L 299.908861 290.411722 
L 301.792405 291.086021 
L 303.675949 291.557362 
" style="fill:none;stroke:#d62728;stroke-linecap:square;stroke-width:1.5;"/>
   </g>
   <g id="line2d_59">
    <path clip-path="url(#p265d4ad7b9)" d="M 87.068354 304.30173 
L 88.951899 299.980739 
L 90.835443 293.286093 
L 92.718987 283.552513 
L 94.602532 274.59763 
L 96.486076 270.482712 
L 98.36962 264.713997 
L 100.253165 261.737149 
L 102.136709 265.455815 
L 104.020253 266.804203 
L 105.903797 263.383095 
L 107.787342 258.013689 
L 109.670886 253.375875 
L 111.55443 249.489716 
L 113.437975 233.252137 
L 115.321519 204.520253 
L 117.205063 185.966073 
L 119.088608 186.748516 
L 120.972152 197.792791 
L 122.855696 204.611731 
L 124.739241 203.612364 
L 126.622785 198.813266 
L 128.506329 193.081199 
L 130.389873 188.71319 
L 132.273418 185.240664 
L 134.156962 184.334274 
L 136.040506 190.701296 
L 137.924051 204.80639 
L 139.807595 228.213107 
L 141.691139 255.566373 
L 143.574684 274.488555 
L 145.458228 282.259731 
L 147.341772 281.92817 
L 149.225316 278.832139 
L 151.108861 278.397334 
L 152.992405 283.742712 
L 154.875949 295.215575 
L 156.759494 308.057036 
L 158.643038 317.818036 
L 160.526582 323.217827 
L 162.410127 324.343351 
L 164.293671 322.898703 
L 166.177215 320.267547 
L 168.060759 316.280752 
L 169.944304 310.994993 
L 171.827848 305.523473 
L 173.711392 301.117281 
L 175.594937 297.855124 
L 177.478481 294.83064 
L 179.362025 291.665127 
L 181.24557 289.509824 
L 183.129114 288.56633 
L 185.012658 287.601996 
L 186.896203 285.901253 
L 188.779747 284.217543 
L 190.663291 282.822455 
L 192.546835 281.169731 
L 194.43038 279.263957 
L 196.313924 277.148074 
L 198.197468 274.921621 
L 200.081013 272.955773 
L 201.964557 271.460291 
L 203.848101 269.592629 
L 205.731646 266.468028 
L 207.61519 262.447158 
L 209.498734 257.745214 
L 211.382278 252.893295 
L 213.265823 248.755773 
L 215.149367 245.839365 
L 217.032911 244.050896 
L 218.916456 242.902296 
L 220.8 241.90472 
L 222.683544 241.021901 
L 224.567089 240.648099 
L 226.450633 240.792842 
L 228.334177 241.566928 
L 230.217722 242.748089 
L 232.101266 243.83808 
L 233.98481 244.527564 
L 235.868354 244.856956 
L 237.751899 244.462444 
L 239.635443 243.952175 
L 241.518987 243.544647 
L 243.402532 243.124656 
L 245.286076 242.466635 
L 247.16962 241.518596 
L 249.053165 241.049754 
L 250.936709 241.180589 
L 252.820253 241.265981 
L 254.703797 241.117357 
L 256.587342 240.324646 
L 258.470886 238.95733 
L 260.35443 237.871378 
L 262.237975 236.950952 
L 264.121519 236.275766 
L 266.005063 235.825875 
L 267.888608 235.2877 
L 269.772152 234.860954 
L 271.655696 234.852365 
L 273.539241 235.030688 
L 275.422785 235.475311 
L 277.306329 236.241904 
L 279.189873 236.868031 
L 281.073418 237.103928 
L 282.956962 237.7355 
L 284.840506 239.286319 
L 286.724051 241.353911 
L 288.607595 243.761975 
L 290.491139 246.191855 
L 292.374684 248.522665 
L 294.258228 250.923618 
L 296.141772 253.621004 
L 298.025316 256.947148 
L 299.908861 260.868018 
L 301.792405 264.367386 
L 303.675949 266.539936 
" style="fill:none;stroke:#9467bd;stroke-linecap:square;stroke-width:1.5;"/>
   </g>
   <g id="line2d_60">
    <path clip-path="url(#p265d4ad7b9)" d="M 87.068354 361.728294 
L 88.951899 357.616166 
L 90.835443 352.371754 
L 92.718987 347.103169 
L 94.602532 342.322826 
L 96.486076 339.535384 
L 98.36962 336.86751 
L 100.253165 335.936451 
L 102.136709 338.811889 
L 104.020253 341.404926 
L 105.903797 341.353744 
L 107.787342 338.981615 
L 109.670886 334.035755 
L 111.55443 328.602357 
L 113.437975 319.131746 
L 115.321519 304.456455 
L 117.205063 294.479134 
L 119.088608 294.03272 
L 120.972152 298.832063 
L 122.855696 301.403879 
L 124.739241 295.431022 
L 126.622785 279.154559 
L 128.506329 257.688059 
L 130.389873 240.646948 
L 132.273418 228.966717 
L 134.156962 222.882633 
L 136.040506 225.48143 
L 137.924051 236.269322 
L 139.807595 253.371043 
L 141.691139 270.996789 
L 143.574684 280.853073 
L 145.458228 281.496162 
L 147.341772 274.180631 
L 149.225316 264.259728 
L 151.108861 257.426728 
L 152.992405 257.49464 
L 154.875949 265.629218 
L 156.759494 274.857647 
L 158.643038 281.85508 
L 160.526582 288.572359 
L 162.410127 293.533208 
L 164.293671 296.056451 
L 166.177215 296.625999 
L 168.060759 295.097095 
L 169.944304 291.73408 
L 171.827848 286.995126 
L 173.711392 283.005448 
L 175.594937 280.463251 
L 177.478481 278.351414 
L 179.362025 276.548816 
L 181.24557 275.80569 
L 183.129114 276.185932 
L 185.012658 277.516087 
L 186.896203 277.970535 
L 188.779747 277.257113 
L 190.663291 276.325632 
L 192.546835 275.375195 
L 194.43038 274.089234 
L 196.313924 272.165314 
L 198.197468 269.847258 
L 200.081013 267.516604 
L 201.964557 265.436702 
L 203.848101 262.979902 
L 205.731646 259.597831 
L 207.61519 255.654385 
L 209.498734 250.926764 
L 211.382278 245.78634 
L 213.265823 241.075143 
L 215.149367 237.458078 
L 217.032911 235.242754 
L 218.916456 233.984348 
L 220.8 232.829172 
L 222.683544 231.358815 
L 224.567089 229.969629 
L 226.450633 229.071976 
L 228.334177 229.191673 
L 230.217722 229.992309 
L 232.101266 230.609909 
L 233.98481 230.976162 
L 235.868354 231.463988 
L 237.751899 231.205196 
L 239.635443 230.691749 
L 241.518987 230.138118 
L 243.402532 229.087036 
L 245.286076 227.371976 
L 247.16962 225.270617 
L 249.053165 223.59152 
L 250.936709 222.479634 
L 252.820253 221.368329 
L 254.703797 220.406343 
L 256.587342 218.99439 
L 258.470886 216.858586 
L 260.35443 215.011393 
L 262.237975 213.37478 
L 264.121519 212.225941 
L 266.005063 211.567391 
L 267.888608 210.740437 
L 269.772152 210.024558 
L 271.655696 209.786912 
L 273.539241 209.415094 
L 275.422785 209.119681 
L 277.306329 209.173644 
L 279.189873 208.839304 
L 281.073418 207.550037 
L 282.956962 206.094395 
L 284.840506 205.569582 
L 286.724051 206.152049 
L 288.607595 207.995325 
L 290.491139 210.835098 
L 292.374684 214.297315 
L 294.258228 218.600721 
L 296.141772 224.205114 
L 298.025316 230.884448 
L 299.908861 237.733007 
L 301.792405 243.054423 
L 303.675949 245.914769 
" style="fill:none;stroke:#8c564b;stroke-linecap:square;stroke-width:1.5;"/>
   </g>
   <g id="line2d_61">
    <path clip-path="url(#p265d4ad7b9)" d="M 87.068354 368.05067 
L 88.951899 366.936917 
L 90.835443 364.99787 
L 92.718987 362.631906 
L 94.602532 360.736889 
L 96.486076 359.960805 
L 98.36962 358.762967 
L 100.253165 358.022073 
L 102.136709 359.44374 
L 104.020253 361.262985 
L 105.903797 361.850215 
L 107.787342 361.599047 
L 109.670886 361.089224 
L 111.55443 361.050248 
L 113.437975 359.579247 
L 115.321519 355.658071 
L 117.205063 353.159811 
L 119.088608 353.888464 
L 120.972152 355.86155 
L 122.855696 356.467582 
L 124.739241 354.814373 
L 126.622785 351.606036 
L 128.506329 348.055234 
L 130.389873 345.442306 
L 132.273418 343.691299 
L 134.156962 342.596694 
L 136.040506 343.28442 
L 137.924051 345.98183 
L 139.807595 350.533277 
L 141.691139 355.172665 
L 143.574684 356.873837 
L 145.458228 355.582147 
L 147.341772 353.134667 
L 149.225316 350.534439 
L 151.108861 348.380877 
L 152.992405 347.028809 
L 154.875949 346.961057 
L 156.759494 347.875133 
L 158.643038 349.357283 
L 160.526582 350.649218 
L 162.410127 351.269702 
L 164.293671 351.632275 
L 166.177215 351.635342 
L 168.060759 350.564659 
L 169.944304 348.275785 
L 171.827848 344.974651 
L 173.711392 341.972312 
L 175.594937 339.991763 
L 177.478481 338.405968 
L 179.362025 337.010808 
L 181.24557 336.428133 
L 183.129114 336.681051 
L 185.012658 337.308874 
L 186.896203 337.46977 
L 188.779747 336.828956 
L 190.663291 335.750399 
L 192.546835 334.466595 
L 194.43038 333.100196 
L 196.313924 331.669559 
L 198.197468 330.146043 
L 200.081013 328.724735 
L 201.964557 327.790741 
L 203.848101 326.967073 
L 205.731646 325.579577 
L 207.61519 323.66998 
L 209.498734 321.19136 
L 211.382278 318.498614 
L 213.265823 316.034589 
L 215.149367 314.092664 
L 217.032911 312.39773 
L 218.916456 310.37086 
L 220.8 307.589549 
L 222.683544 304.18651 
L 224.567089 300.60673 
L 226.450633 297.333776 
L 228.334177 295.016781 
L 230.217722 293.250283 
L 232.101266 290.851553 
L 233.98481 287.839279 
L 235.868354 284.705989 
L 237.751899 280.966294 
L 239.635443 277.2829 
L 241.518987 274.140284 
L 243.402532 270.444783 
L 245.286076 265.012624 
L 247.16962 257.990887 
L 249.053165 250.45111 
L 250.936709 242.918973 
L 252.820253 235.517758 
L 254.703797 228.820716 
L 256.587342 221.750327 
L 258.470886 213.084643 
L 260.35443 203.86032 
L 262.237975 194.246224 
L 264.121519 184.63183 
L 266.005063 175.382216 
L 267.888608 165.987189 
L 269.772152 156.758954 
L 271.655696 149.034095 
L 273.539241 142.548605 
L 275.422785 137.446274 
L 277.306329 133.962943 
L 279.189873 130.229583 
L 281.073418 126.074269 
L 282.956962 124.09036 
L 284.840506 123.890796 
L 286.724051 122.282742 
L 288.607595 120.123222 
L 290.491139 119.169921 
L 292.374684 120.059803 
L 294.258228 122.925164 
L 296.141772 126.993203 
L 298.025316 131.774535 
L 299.908861 137.665686 
L 301.792405 142.282496 
L 303.675949 144.122778 
" style="fill:none;stroke:#e377c2;stroke-linecap:square;stroke-width:1.5;"/>
   </g>
   <g id="line2d_62">
    <path clip-path="url(#p265d4ad7b9)" d="M 87.068354 371.690349 
L 88.951899 370.843446 
L 90.835443 369.174172 
L 92.718987 367.200979 
L 94.602532 365.755654 
L 96.486076 365.196794 
L 98.36962 364.587077 
L 100.253165 364.659348 
L 102.136709 365.951181 
L 104.020253 367.432487 
L 105.903797 368.37599 
L 107.787342 368.56188 
L 109.670886 368.454676 
L 111.55443 368.699595 
L 113.437975 367.733587 
L 115.321519 365.256134 
L 117.205063 363.965753 
L 119.088608 364.510421 
L 120.972152 365.553461 
L 122.855696 365.450273 
L 124.739241 363.786871 
L 126.622785 361.114434 
L 128.506329 358.360566 
L 130.389873 356.059691 
L 132.273418 354.248455 
L 134.156962 353.744253 
L 136.040506 355.102076 
L 137.924051 357.595016 
L 139.807595 360.938271 
L 141.691139 364.220201 
L 143.574684 365.822378 
L 145.458228 365.54354 
L 147.341772 363.893183 
L 149.225316 362.211298 
L 151.108861 361.223891 
L 152.992405 360.710134 
L 154.875949 361.094768 
L 156.759494 362.202096 
L 158.643038 363.549786 
L 160.526582 364.543744 
L 162.410127 364.56398 
L 164.293671 364.130979 
L 166.177215 363.786649 
L 168.060759 362.539926 
L 169.944304 360.218112 
L 171.827848 357.538831 
L 173.711392 355.364722 
L 175.594937 353.952474 
L 177.478481 352.802524 
L 179.362025 351.706587 
L 181.24557 351.257847 
L 183.129114 351.443436 
L 185.012658 351.738599 
L 186.896203 351.64007 
L 188.779747 351.006967 
L 190.663291 350.158769 
L 192.546835 349.326764 
L 194.43038 348.45677 
L 196.313924 347.560513 
L 198.197468 346.742343 
L 200.081013 346.02735 
L 201.964557 345.530845 
L 203.848101 344.919502 
L 205.731646 343.730946 
L 207.61519 342.186069 
L 209.498734 340.245755 
L 211.382278 338.107245 
L 213.265823 336.133913 
L 215.149367 334.558398 
L 217.032911 333.178508 
L 218.916456 331.644837 
L 220.8 329.69657 
L 222.683544 327.390414 
L 224.567089 325.05733 
L 226.450633 322.963849 
L 228.334177 321.439708 
L 230.217722 320.2119 
L 232.101266 318.488967 
L 233.98481 316.26685 
L 235.868354 313.813352 
L 237.751899 310.702284 
L 239.635443 307.553696 
L 241.518987 304.794157 
L 243.402532 301.323424 
L 245.286076 296.025325 
L 247.16962 289.190294 
L 249.053165 281.990123 
L 250.936709 274.956304 
L 252.820253 268.12047 
L 254.703797 261.873651 
L 256.587342 255.389203 
L 258.470886 247.595479 
L 260.35443 238.768741 
L 262.237975 228.63132 
L 264.121519 218.0253 
L 266.005063 208.250379 
L 267.888608 199.223806 
L 269.772152 190.675231 
L 271.655696 183.213613 
L 273.539241 177.137636 
L 275.422785 173.17474 
L 277.306329 171.166101 
L 279.189873 169.032854 
L 281.073418 165.992789 
L 282.956962 162.901361 
L 284.840506 159.353261 
L 286.724051 153.523817 
L 288.607595 146.590395 
L 290.491139 140.443128 
L 292.374684 135.718868 
L 294.258228 133.204825 
L 296.141772 133.948296 
L 298.025316 137.56541 
L 299.908861 142.272172 
L 301.792405 145.144626 
L 303.675949 145.587317 
" style="fill:none;stroke:#7f7f7f;stroke-linecap:square;stroke-width:1.5;"/>
   </g>
   <g id="line2d_63">
    <path clip-path="url(#p265d4ad7b9)" d="M 87.068354 380.887653 
L 88.951899 380.191587 
L 90.835443 379.237262 
L 92.718987 378.718779 
L 94.602532 378.198301 
L 96.486076 377.45645 
L 98.36962 376.715081 
L 100.253165 376.391866 
L 102.136709 376.615739 
L 104.020253 376.958451 
L 105.903797 377.195261 
L 107.787342 378.022214 
L 109.670886 379.21971 
L 111.55443 379.466919 
L 113.437975 378.239168 
L 115.321519 376.883709 
L 117.205063 376.319227 
L 119.088608 376.216753 
L 120.972152 376.208777 
L 122.855696 376.200899 
L 124.739241 376.102246 
L 126.622785 375.609018 
L 128.506329 374.616081 
L 130.389873 373.861214 
L 132.273418 373.631898 
L 134.156962 373.298047 
L 136.040506 373.166747 
L 137.924051 373.90519 
L 139.807595 375.389715 
L 141.691139 376.826321 
L 143.574684 377.601331 
L 145.458228 377.306338 
L 147.341772 376.521686 
L 149.225316 375.420404 
L 151.108861 374.681667 
L 152.992405 374.436492 
L 154.875949 374.203432 
L 156.759494 374.277513 
L 158.643038 374.891014 
L 160.526582 375.333246 
L 162.410127 375.689839 
L 164.293671 375.698116 
L 166.177215 375.429698 
L 168.060759 375.222565 
L 169.944304 374.265252 
L 171.827848 372.684612 
L 173.711392 371.578909 
L 175.594937 370.979387 
L 177.478481 370.426776 
L 179.362025 369.962858 
L 181.24557 369.762756 
L 183.129114 369.89749 
L 185.012658 370.059217 
L 186.896203 369.896614 
L 188.779747 369.394461 
L 190.663291 368.755148 
L 192.546835 368.125659 
L 194.43038 367.480567 
L 196.313924 366.868862 
L 198.197468 366.382571 
L 200.081013 366.00281 
L 201.964557 365.727744 
L 203.848101 365.471734 
L 205.731646 365.038422 
L 207.61519 364.445215 
L 209.498734 363.67338 
L 211.382278 362.789789 
L 213.265823 361.850211 
L 215.149367 360.885933 
L 217.032911 359.865744 
L 218.916456 358.731244 
L 220.8 357.377978 
L 222.683544 355.790648 
L 224.567089 354.154482 
L 226.450633 352.758478 
L 228.334177 351.847332 
L 230.217722 351.112588 
L 232.101266 350.004698 
L 233.98481 348.540935 
L 235.868354 346.947402 
L 237.751899 344.982269 
L 239.635443 342.911905 
L 241.518987 340.949336 
L 243.402532 337.799303 
L 245.286076 331.019652 
L 247.16962 319.885718 
L 249.053165 307.308697 
L 250.936709 296.24559 
L 252.820253 287.10564 
L 254.703797 279.551056 
L 256.587342 273.654008 
L 258.470886 270.619353 
L 260.35443 270.684404 
L 262.237975 270.542283 
L 264.121519 267.692325 
L 266.005063 262.437852 
L 267.888608 255.821738 
L 269.772152 247.720552 
L 271.655696 237.826886 
L 273.539241 227.100213 
L 275.422785 217.316261 
L 277.306329 208.825678 
L 279.189873 199.621238 
L 281.073418 188.735917 
L 282.956962 176.996356 
L 284.840506 165.340507 
L 286.724051 153.803577 
L 288.607595 145.426124 
L 290.491139 141.525896 
L 292.374684 136.75472 
L 294.258228 131.348654 
L 296.141772 130.118446 
L 298.025316 131.056497 
L 299.908861 129.796855 
L 301.792405 123.700787 
L 303.675949 114.814302 
" style="fill:none;stroke:#bcbd22;stroke-linecap:square;stroke-width:1.5;"/>
   </g>
   <g id="patch_3">
    <path d="M 72 384.48 
L 72 51.84 
" style="fill:none;stroke:#000000;stroke-linecap:square;stroke-linejoin:miter;stroke-width:0.8;"/>
   </g>
   <g id="patch_4">
    <path d="M 518.4 384.48 
L 518.4 51.84 
" style="fill:none;stroke:#000000;stroke-linecap:square;stroke-linejoin:miter;stroke-width:0.8;"/>
   </g>
   <g id="patch_5">
    <path d="M 72 384.48 
L 518.4 384.48 
" style="fill:none;stroke:#000000;stroke-linecap:square;stroke-linejoin:miter;stroke-width:0.8;"/>
   </g>
   <g id="patch_6">
    <path d="M 72 51.84 
L 518.4 51.84 
" style="fill:none;stroke:#000000;stroke-linecap:square;stroke-linejoin:miter;stroke-width:0.8;"/>
   </g>
   <g id="text_30">
    <!-- First dose weekly increase by age group -->
    <g transform="translate(174.602812 45.84)scale(0.12 -0.12)">
     <defs>
      <path d="M 628 4666 
L 3309 4666 
L 3309 4134 
L 1259 4134 
L 1259 2759 
L 3109 2759 
L 3109 2228 
L 1259 2228 
L 1259 0 
L 628 0 
L 628 4666 
z
" id="DejaVuSans-46" transform="scale(0.015625)"/>
      <path d="M 2834 3397 
L 2834 2853 
Q 2591 2978 2328 3040 
Q 2066 3103 1784 3103 
Q 1356 3103 1142 2972 
Q 928 2841 928 2578 
Q 928 2378 1081 2264 
Q 1234 2150 1697 2047 
L 1894 2003 
Q 2506 1872 2764 1633 
Q 3022 1394 3022 966 
Q 3022 478 2636 193 
Q 2250 -91 1575 -91 
Q 1294 -91 989 -36 
Q 684 19 347 128 
L 347 722 
Q 666 556 975 473 
Q 1284 391 1588 391 
Q 1994 391 2212 530 
Q 2431 669 2431 922 
Q 2431 1156 2273 1281 
Q 2116 1406 1581 1522 
L 1381 1569 
Q 847 1681 609 1914 
Q 372 2147 372 2553 
Q 372 3047 722 3315 
Q 1072 3584 1716 3584 
Q 2034 3584 2315 3537 
Q 2597 3491 2834 3397 
z
" id="DejaVuSans-73" transform="scale(0.015625)"/>
      <path d="M 2906 2969 
L 2906 4863 
L 3481 4863 
L 3481 0 
L 2906 0 
L 2906 525 
Q 2725 213 2448 61 
Q 2172 -91 1784 -91 
Q 1150 -91 751 415 
Q 353 922 353 1747 
Q 353 2572 751 3078 
Q 1150 3584 1784 3584 
Q 2172 3584 2448 3432 
Q 2725 3281 2906 2969 
z
M 947 1747 
Q 947 1113 1208 752 
Q 1469 391 1925 391 
Q 2381 391 2643 752 
Q 2906 1113 2906 1747 
Q 2906 2381 2643 2742 
Q 2381 3103 1925 3103 
Q 1469 3103 1208 2742 
Q 947 2381 947 1747 
z
" id="DejaVuSans-64" transform="scale(0.015625)"/>
      <path d="M 2059 -325 
Q 1816 -950 1584 -1140 
Q 1353 -1331 966 -1331 
L 506 -1331 
L 506 -850 
L 844 -850 
Q 1081 -850 1212 -737 
Q 1344 -625 1503 -206 
L 1606 56 
L 191 3500 
L 800 3500 
L 1894 763 
L 2988 3500 
L 3597 3500 
L 2059 -325 
z
" id="DejaVuSans-79" transform="scale(0.015625)"/>
      <path d="M 3116 1747 
Q 3116 2381 2855 2742 
Q 2594 3103 2138 3103 
Q 1681 3103 1420 2742 
Q 1159 2381 1159 1747 
Q 1159 1113 1420 752 
Q 1681 391 2138 391 
Q 2594 391 2855 752 
Q 3116 1113 3116 1747 
z
M 1159 2969 
Q 1341 3281 1617 3432 
Q 1894 3584 2278 3584 
Q 2916 3584 3314 3078 
Q 3713 2572 3713 1747 
Q 3713 922 3314 415 
Q 2916 -91 2278 -91 
Q 1894 -91 1617 61 
Q 1341 213 1159 525 
L 1159 0 
L 581 0 
L 581 4863 
L 1159 4863 
L 1159 2969 
z
" id="DejaVuSans-62" transform="scale(0.015625)"/>
     </defs>
     <use xlink:href="#DejaVuSans-46"/>
     <use x="50.269531" xlink:href="#DejaVuSans-69"/>
     <use x="78.052734" xlink:href="#DejaVuSans-72"/>
     <use x="119.166016" xlink:href="#DejaVuSans-73"/>
     <use x="171.265625" xlink:href="#DejaVuSans-74"/>
     <use x="210.474609" xlink:href="#DejaVuSans-20"/>
     <use x="242.261719" xlink:href="#DejaVuSans-64"/>
     <use x="305.738281" xlink:href="#DejaVuSans-6f"/>
     <use x="366.919922" xlink:href="#DejaVuSans-73"/>
     <use x="419.019531" xlink:href="#DejaVuSans-65"/>
     <use x="480.542969" xlink:href="#DejaVuSans-20"/>
     <use x="512.330078" xlink:href="#DejaVuSans-77"/>
     <use x="594.117188" xlink:href="#DejaVuSans-65"/>
     <use x="655.640625" xlink:href="#DejaVuSans-65"/>
     <use x="717.164062" xlink:href="#DejaVuSans-6b"/>
     <use x="775.074219" xlink:href="#DejaVuSans-6c"/>
     <use x="802.857422" xlink:href="#DejaVuSans-79"/>
     <use x="862.037109" xlink:href="#DejaVuSans-20"/>
     <use x="893.824219" xlink:href="#DejaVuSans-69"/>
     <use x="921.607422" xlink:href="#DejaVuSans-6e"/>
     <use x="984.986328" xlink:href="#DejaVuSans-63"/>
     <use x="1039.966797" xlink:href="#DejaVuSans-72"/>
     <use x="1078.830078" xlink:href="#DejaVuSans-65"/>
     <use x="1140.353516" xlink:href="#DejaVuSans-61"/>
     <use x="1201.632812" xlink:href="#DejaVuSans-73"/>
     <use x="1253.732422" xlink:href="#DejaVuSans-65"/>
     <use x="1315.255859" xlink:href="#DejaVuSans-20"/>
     <use x="1347.042969" xlink:href="#DejaVuSans-62"/>
     <use x="1410.519531" xlink:href="#DejaVuSans-79"/>
     <use x="1469.699219" xlink:href="#DejaVuSans-20"/>
     <use x="1501.486328" xlink:href="#DejaVuSans-61"/>
     <use x="1562.765625" xlink:href="#DejaVuSans-67"/>
     <use x="1626.242188" xlink:href="#DejaVuSans-65"/>
     <use x="1687.765625" xlink:href="#DejaVuSans-20"/>
     <use x="1719.552734" xlink:href="#DejaVuSans-67"/>
     <use x="1783.029297" xlink:href="#DejaVuSans-72"/>
     <use x="1821.892578" xlink:href="#DejaVuSans-6f"/>
     <use x="1883.074219" xlink:href="#DejaVuSans-75"/>
     <use x="1946.453125" xlink:href="#DejaVuSans-70"/>
    </g>
   </g>
   <g id="legend_1">
    <g id="patch_7">
     <path d="M 368.65125 177.932812 
L 512.1 177.932812 
Q 513.9 177.932812 513.9 176.132812 
L 513.9 58.14 
Q 513.9 56.34 512.1 56.34 
L 368.65125 56.34 
Q 366.85125 56.34 366.85125 58.14 
L 366.85125 176.132812 
Q 366.85125 177.932812 368.65125 177.932812 
z
" style="fill:#ffffff;opacity:0.8;stroke:#cccccc;stroke-linejoin:miter;"/>
    </g>
    <g id="line2d_64">
     <path d="M 370.45125 63.628594 
L 388.45125 63.628594 
" style="fill:none;stroke:#1f77b4;stroke-linecap:square;stroke-width:1.5;"/>
    </g>
    <g id="line2d_65"/>
    <g id="text_31">
     <!-- Ages 90+ (1.8 %/week) -->
     <g transform="translate(395.65125 66.778594)scale(0.09 -0.09)">
      <defs>
       <path d="M 2944 4013 
L 2944 2272 
L 4684 2272 
L 4684 1741 
L 2944 1741 
L 2944 0 
L 2419 0 
L 2419 1741 
L 678 1741 
L 678 2272 
L 2419 2272 
L 2419 4013 
L 2944 4013 
z
" id="DejaVuSans-2b" transform="scale(0.015625)"/>
       <path d="M 684 794 
L 1344 794 
L 1344 0 
L 684 0 
L 684 794 
z
" id="DejaVuSans-2e" transform="scale(0.015625)"/>
      </defs>
      <use xlink:href="#DejaVuSans-41"/>
      <use x="68.408203" xlink:href="#DejaVuSans-67"/>
      <use x="131.884766" xlink:href="#DejaVuSans-65"/>
      <use x="193.408203" xlink:href="#DejaVuSans-73"/>
      <use x="245.507812" xlink:href="#DejaVuSans-20"/>
      <use x="277.294922" xlink:href="#DejaVuSans-39"/>
      <use x="340.917969" xlink:href="#DejaVuSans-30"/>
      <use x="404.541016" xlink:href="#DejaVuSans-2b"/>
      <use x="488.330078" xlink:href="#DejaVuSans-20"/>
      <use x="520.117188" xlink:href="#DejaVuSans-28"/>
      <use x="559.130859" xlink:href="#DejaVuSans-31"/>
      <use x="622.753906" xlink:href="#DejaVuSans-2e"/>
      <use x="654.541016" xlink:href="#DejaVuSans-38"/>
      <use x="718.164062" xlink:href="#DejaVuSans-20"/>
      <use x="749.951172" xlink:href="#DejaVuSans-25"/>
      <use x="844.970703" xlink:href="#DejaVuSans-2f"/>
      <use x="878.662109" xlink:href="#DejaVuSans-77"/>
      <use x="960.449219" xlink:href="#DejaVuSans-65"/>
      <use x="1021.972656" xlink:href="#DejaVuSans-65"/>
      <use x="1083.496094" xlink:href="#DejaVuSans-6b"/>
      <use x="1141.40625" xlink:href="#DejaVuSans-29"/>
     </g>
    </g>
    <g id="line2d_66">
     <path d="M 370.45125 76.838906 
L 388.45125 76.838906 
" style="fill:none;stroke:#ff7f0e;stroke-linecap:square;stroke-width:1.5;"/>
    </g>
    <g id="line2d_67"/>
    <g id="text_32">
     <!-- Ages 8089 (1.8 %/week) -->
     <g transform="translate(395.65125 79.988906)scale(0.09 -0.09)">
      <defs>
       <path d="M 313 1978 
L 2888 1978 
L 2888 1528 
L 313 1528 
L 313 1978 
z
" id="DejaVuSans-2013" transform="scale(0.015625)"/>
      </defs>
      <use xlink:href="#DejaVuSans-41"/>
      <use x="68.408203" xlink:href="#DejaVuSans-67"/>
      <use x="131.884766" xlink:href="#DejaVuSans-65"/>
      <use x="193.408203" xlink:href="#DejaVuSans-73"/>
      <use x="245.507812" xlink:href="#DejaVuSans-20"/>
      <use x="277.294922" xlink:href="#DejaVuSans-38"/>
      <use x="340.917969" xlink:href="#DejaVuSans-30"/>
      <use x="404.541016" xlink:href="#DejaVuSans-2013"/>
      <use x="454.541016" xlink:href="#DejaVuSans-38"/>
      <use x="518.164062" xlink:href="#DejaVuSans-39"/>
      <use x="581.787109" xlink:href="#DejaVuSans-20"/>
      <use x="613.574219" xlink:href="#DejaVuSans-28"/>
      <use x="652.587891" xlink:href="#DejaVuSans-31"/>
      <use x="716.210938" xlink:href="#DejaVuSans-2e"/>
      <use x="747.998047" xlink:href="#DejaVuSans-38"/>
      <use x="811.621094" xlink:href="#DejaVuSans-20"/>
      <use x="843.408203" xlink:href="#DejaVuSans-25"/>
      <use x="938.427734" xlink:href="#DejaVuSans-2f"/>
      <use x="972.119141" xlink:href="#DejaVuSans-77"/>
      <use x="1053.90625" xlink:href="#DejaVuSans-65"/>
      <use x="1115.429688" xlink:href="#DejaVuSans-65"/>
      <use x="1176.953125" xlink:href="#DejaVuSans-6b"/>
      <use x="1234.863281" xlink:href="#DejaVuSans-29"/>
     </g>
    </g>
    <g id="line2d_68">
     <path d="M 370.45125 90.049219 
L 388.45125 90.049219 
" style="fill:none;stroke:#2ca02c;stroke-linecap:square;stroke-width:1.5;"/>
    </g>
    <g id="line2d_69"/>
    <g id="text_33">
     <!-- Ages 7079 (1.9 %/week) -->
     <g transform="translate(395.65125 93.199219)scale(0.09 -0.09)">
      <use xlink:href="#DejaVuSans-41"/>
      <use x="68.408203" xlink:href="#DejaVuSans-67"/>
      <use x="131.884766" xlink:href="#DejaVuSans-65"/>
      <use x="193.408203" xlink:href="#DejaVuSans-73"/>
      <use x="245.507812" xlink:href="#DejaVuSans-20"/>
      <use x="277.294922" xlink:href="#DejaVuSans-37"/>
      <use x="340.917969" xlink:href="#DejaVuSans-30"/>
      <use x="404.541016" xlink:href="#DejaVuSans-2013"/>
      <use x="454.541016" xlink:href="#DejaVuSans-37"/>
      <use x="518.164062" xlink:href="#DejaVuSans-39"/>
      <use x="581.787109" xlink:href="#DejaVuSans-20"/>
      <use x="613.574219" xlink:href="#DejaVuSans-28"/>
      <use x="652.587891" xlink:href="#DejaVuSans-31"/>
      <use x="716.210938" xlink:href="#DejaVuSans-2e"/>
      <use x="747.998047" xlink:href="#DejaVuSans-39"/>
      <use x="811.621094" xlink:href="#DejaVuSans-20"/>
      <use x="843.408203" xlink:href="#DejaVuSans-25"/>
      <use x="938.427734" xlink:href="#DejaVuSans-2f"/>
      <use x="972.119141" xlink:href="#DejaVuSans-77"/>
      <use x="1053.90625" xlink:href="#DejaVuSans-65"/>
      <use x="1115.429688" xlink:href="#DejaVuSans-65"/>
      <use x="1176.953125" xlink:href="#DejaVuSans-6b"/>
      <use x="1234.863281" xlink:href="#DejaVuSans-29"/>
     </g>
    </g>
    <g id="line2d_70">
     <path d="M 370.45125 103.259531 
L 388.45125 103.259531 
" style="fill:none;stroke:#d62728;stroke-linecap:square;stroke-width:1.5;"/>
    </g>
    <g id="line2d_71"/>
    <g id="text_34">
     <!-- Ages 6069 (2.8 %/week) -->
     <g transform="translate(395.65125 106.409531)scale(0.09 -0.09)">
      <use xlink:href="#DejaVuSans-41"/>
      <use x="68.408203" xlink:href="#DejaVuSans-67"/>
      <use x="131.884766" xlink:href="#DejaVuSans-65"/>
      <use x="193.408203" xlink:href="#DejaVuSans-73"/>
      <use x="245.507812" xlink:href="#DejaVuSans-20"/>
      <use x="277.294922" xlink:href="#DejaVuSans-36"/>
      <use x="340.917969" xlink:href="#DejaVuSans-30"/>
      <use x="404.541016" xlink:href="#DejaVuSans-2013"/>
      <use x="454.541016" xlink:href="#DejaVuSans-36"/>
      <use x="518.164062" xlink:href="#DejaVuSans-39"/>
      <use x="581.787109" xlink:href="#DejaVuSans-20"/>
      <use x="613.574219" xlink:href="#DejaVuSans-28"/>
      <use x="652.587891" xlink:href="#DejaVuSans-32"/>
      <use x="716.210938" xlink:href="#DejaVuSans-2e"/>
      <use x="747.998047" xlink:href="#DejaVuSans-38"/>
      <use x="811.621094" xlink:href="#DejaVuSans-20"/>
      <use x="843.408203" xlink:href="#DejaVuSans-25"/>
      <use x="938.427734" xlink:href="#DejaVuSans-2f"/>
      <use x="972.119141" xlink:href="#DejaVuSans-77"/>
      <use x="1053.90625" xlink:href="#DejaVuSans-65"/>
      <use x="1115.429688" xlink:href="#DejaVuSans-65"/>
      <use x="1176.953125" xlink:href="#DejaVuSans-6b"/>
      <use x="1234.863281" xlink:href="#DejaVuSans-29"/>
     </g>
    </g>
    <g id="line2d_72">
     <path d="M 370.45125 116.469844 
L 388.45125 116.469844 
" style="fill:none;stroke:#9467bd;stroke-linecap:square;stroke-width:1.5;"/>
    </g>
    <g id="line2d_73"/>
    <g id="text_35">
     <!-- Ages 5059 (3.5 %/week) -->
     <g transform="translate(395.65125 119.619844)scale(0.09 -0.09)">
      <use xlink:href="#DejaVuSans-41"/>
      <use x="68.408203" xlink:href="#DejaVuSans-67"/>
      <use x="131.884766" xlink:href="#DejaVuSans-65"/>
      <use x="193.408203" xlink:href="#DejaVuSans-73"/>
      <use x="245.507812" xlink:href="#DejaVuSans-20"/>
      <use x="277.294922" xlink:href="#DejaVuSans-35"/>
      <use x="340.917969" xlink:href="#DejaVuSans-30"/>
      <use x="404.541016" xlink:href="#DejaVuSans-2013"/>
      <use x="454.541016" xlink:href="#DejaVuSans-35"/>
      <use x="518.164062" xlink:href="#DejaVuSans-39"/>
      <use x="581.787109" xlink:href="#DejaVuSans-20"/>
      <use x="613.574219" xlink:href="#DejaVuSans-28"/>
      <use x="652.587891" xlink:href="#DejaVuSans-33"/>
      <use x="716.210938" xlink:href="#DejaVuSans-2e"/>
      <use x="747.998047" xlink:href="#DejaVuSans-35"/>
      <use x="811.621094" xlink:href="#DejaVuSans-20"/>
      <use x="843.408203" xlink:href="#DejaVuSans-25"/>
      <use x="938.427734" xlink:href="#DejaVuSans-2f"/>
      <use x="972.119141" xlink:href="#DejaVuSans-77"/>
      <use x="1053.90625" xlink:href="#DejaVuSans-65"/>
      <use x="1115.429688" xlink:href="#DejaVuSans-65"/>
      <use x="1176.953125" xlink:href="#DejaVuSans-6b"/>
      <use x="1234.863281" xlink:href="#DejaVuSans-29"/>
     </g>
    </g>
    <g id="line2d_74">
     <path d="M 370.45125 129.680156 
L 388.45125 129.680156 
" style="fill:none;stroke:#8c564b;stroke-linecap:square;stroke-width:1.5;"/>
    </g>
    <g id="line2d_75"/>
    <g id="text_36">
     <!-- Ages 4049 (4.2 %/week) -->
     <g transform="translate(395.65125 132.830156)scale(0.09 -0.09)">
      <use xlink:href="#DejaVuSans-41"/>
      <use x="68.408203" xlink:href="#DejaVuSans-67"/>
      <use x="131.884766" xlink:href="#DejaVuSans-65"/>
      <use x="193.408203" xlink:href="#DejaVuSans-73"/>
      <use x="245.507812" xlink:href="#DejaVuSans-20"/>
      <use x="277.294922" xlink:href="#DejaVuSans-34"/>
      <use x="340.917969" xlink:href="#DejaVuSans-30"/>
      <use x="404.541016" xlink:href="#DejaVuSans-2013"/>
      <use x="454.541016" xlink:href="#DejaVuSans-34"/>
      <use x="518.164062" xlink:href="#DejaVuSans-39"/>
      <use x="581.787109" xlink:href="#DejaVuSans-20"/>
      <use x="613.574219" xlink:href="#DejaVuSans-28"/>
      <use x="652.587891" xlink:href="#DejaVuSans-34"/>
      <use x="716.210938" xlink:href="#DejaVuSans-2e"/>
      <use x="747.998047" xlink:href="#DejaVuSans-32"/>
      <use x="811.621094" xlink:href="#DejaVuSans-20"/>
      <use x="843.408203" xlink:href="#DejaVuSans-25"/>
      <use x="938.427734" xlink:href="#DejaVuSans-2f"/>
      <use x="972.119141" xlink:href="#DejaVuSans-77"/>
      <use x="1053.90625" xlink:href="#DejaVuSans-65"/>
      <use x="1115.429688" xlink:href="#DejaVuSans-65"/>
      <use x="1176.953125" xlink:href="#DejaVuSans-6b"/>
      <use x="1234.863281" xlink:href="#DejaVuSans-29"/>
     </g>
    </g>
    <g id="line2d_76">
     <path d="M 370.45125 142.890469 
L 388.45125 142.890469 
" style="fill:none;stroke:#e377c2;stroke-linecap:square;stroke-width:1.5;"/>
    </g>
    <g id="line2d_77"/>
    <g id="text_37">
     <!-- Ages 3039 (7.2 %/week) -->
     <g transform="translate(395.65125 146.040469)scale(0.09 -0.09)">
      <use xlink:href="#DejaVuSans-41"/>
      <use x="68.408203" xlink:href="#DejaVuSans-67"/>
      <use x="131.884766" xlink:href="#DejaVuSans-65"/>
      <use x="193.408203" xlink:href="#DejaVuSans-73"/>
      <use x="245.507812" xlink:href="#DejaVuSans-20"/>
      <use x="277.294922" xlink:href="#DejaVuSans-33"/>
      <use x="340.917969" xlink:href="#DejaVuSans-30"/>
      <use x="404.541016" xlink:href="#DejaVuSans-2013"/>
      <use x="454.541016" xlink:href="#DejaVuSans-33"/>
      <use x="518.164062" xlink:href="#DejaVuSans-39"/>
      <use x="581.787109" xlink:href="#DejaVuSans-20"/>
      <use x="613.574219" xlink:href="#DejaVuSans-28"/>
      <use x="652.587891" xlink:href="#DejaVuSans-37"/>
      <use x="716.210938" xlink:href="#DejaVuSans-2e"/>
      <use x="747.998047" xlink:href="#DejaVuSans-32"/>
      <use x="811.621094" xlink:href="#DejaVuSans-20"/>
      <use x="843.408203" xlink:href="#DejaVuSans-25"/>
      <use x="938.427734" xlink:href="#DejaVuSans-2f"/>
      <use x="972.119141" xlink:href="#DejaVuSans-77"/>
      <use x="1053.90625" xlink:href="#DejaVuSans-65"/>
      <use x="1115.429688" xlink:href="#DejaVuSans-65"/>
      <use x="1176.953125" xlink:href="#DejaVuSans-6b"/>
      <use x="1234.863281" xlink:href="#DejaVuSans-29"/>
     </g>
    </g>
    <g id="line2d_78">
     <path d="M 370.45125 156.100781 
L 388.45125 156.100781 
" style="fill:none;stroke:#7f7f7f;stroke-linecap:square;stroke-width:1.5;"/>
    </g>
    <g id="line2d_79"/>
    <g id="text_38">
     <!-- Ages 2029 (7.2 %/week) -->
     <g transform="translate(395.65125 159.250781)scale(0.09 -0.09)">
      <use xlink:href="#DejaVuSans-41"/>
      <use x="68.408203" xlink:href="#DejaVuSans-67"/>
      <use x="131.884766" xlink:href="#DejaVuSans-65"/>
      <use x="193.408203" xlink:href="#DejaVuSans-73"/>
      <use x="245.507812" xlink:href="#DejaVuSans-20"/>
      <use x="277.294922" xlink:href="#DejaVuSans-32"/>
      <use x="340.917969" xlink:href="#DejaVuSans-30"/>
      <use x="404.541016" xlink:href="#DejaVuSans-2013"/>
      <use x="454.541016" xlink:href="#DejaVuSans-32"/>
      <use x="518.164062" xlink:href="#DejaVuSans-39"/>
      <use x="581.787109" xlink:href="#DejaVuSans-20"/>
      <use x="613.574219" xlink:href="#DejaVuSans-28"/>
      <use x="652.587891" xlink:href="#DejaVuSans-37"/>
      <use x="716.210938" xlink:href="#DejaVuSans-2e"/>
      <use x="747.998047" xlink:href="#DejaVuSans-32"/>
      <use x="811.621094" xlink:href="#DejaVuSans-20"/>
      <use x="843.408203" xlink:href="#DejaVuSans-25"/>
      <use x="938.427734" xlink:href="#DejaVuSans-2f"/>
      <use x="972.119141" xlink:href="#DejaVuSans-77"/>
      <use x="1053.90625" xlink:href="#DejaVuSans-65"/>
      <use x="1115.429688" xlink:href="#DejaVuSans-65"/>
      <use x="1176.953125" xlink:href="#DejaVuSans-6b"/>
      <use x="1234.863281" xlink:href="#DejaVuSans-29"/>
     </g>
    </g>
    <g id="line2d_80">
     <path d="M 370.45125 169.311094 
L 388.45125 169.311094 
" style="fill:none;stroke:#bcbd22;stroke-linecap:square;stroke-width:1.5;"/>
    </g>
    <g id="line2d_81"/>
    <g id="text_39">
     <!-- Ages 1619 (8.1 %/week) -->
     <g transform="translate(395.65125 172.461094)scale(0.09 -0.09)">
      <use xlink:href="#DejaVuSans-41"/>
      <use x="68.408203" xlink:href="#DejaVuSans-67"/>
      <use x="131.884766" xlink:href="#DejaVuSans-65"/>
      <use x="193.408203" xlink:href="#DejaVuSans-73"/>
      <use x="245.507812" xlink:href="#DejaVuSans-20"/>
      <use x="277.294922" xlink:href="#DejaVuSans-31"/>
      <use x="340.917969" xlink:href="#DejaVuSans-36"/>
      <use x="404.541016" xlink:href="#DejaVuSans-2013"/>
      <use x="454.541016" xlink:href="#DejaVuSans-31"/>
      <use x="518.164062" xlink:href="#DejaVuSans-39"/>
      <use x="581.787109" xlink:href="#DejaVuSans-20"/>
      <use x="613.574219" xlink:href="#DejaVuSans-28"/>
      <use x="652.587891" xlink:href="#DejaVuSans-38"/>
      <use x="716.210938" xlink:href="#DejaVuSans-2e"/>
      <use x="747.998047" xlink:href="#DejaVuSans-31"/>
      <use x="811.621094" xlink:href="#DejaVuSans-20"/>
      <use x="843.408203" xlink:href="#DejaVuSans-25"/>
      <use x="938.427734" xlink:href="#DejaVuSans-2f"/>
      <use x="972.119141" xlink:href="#DejaVuSans-77"/>
      <use x="1053.90625" xlink:href="#DejaVuSans-65"/>
      <use x="1115.429688" xlink:href="#DejaVuSans-65"/>
      <use x="1176.953125" xlink:href="#DejaVuSans-6b"/>
      <use x="1234.863281" xlink:href="#DejaVuSans-29"/>
     </g>
    </g>
   </g>
  </g>
 </g>
 <defs>
  <clipPath id="p265d4ad7b9">
   <rect height="332.64" width="446.4" x="72" y="51.84"/>
  </clipPath>
 </defs>
</svg>
