<?xml version="1.0" encoding="utf-8" standalone="no"?>
<!DOCTYPE svg PUBLIC "-//W3C//DTD SVG 1.1//EN"
  "http://www.w3.org/Graphics/SVG/1.1/DTD/svg11.dtd">
<svg height="432pt" version="1.1" viewBox="0 0 576 432" width="576pt" xmlns="http://www.w3.org/2000/svg" xmlns:xlink="http://www.w3.org/1999/xlink">
 <metadata>
  <rdf:RDF xmlns:cc="http://creativecommons.org/ns#" xmlns:dc="http://purl.org/dc/elements/1.1/" xmlns:rdf="http://www.w3.org/1999/02/22-rdf-syntax-ns#">
   <cc:Work>
    <dc:type rdf:resource="http://purl.org/dc/dcmitype/StillImage"/>
    <dc:date>2021-11-01T14:31:38.822901</dc:date>
    <dc:format>image/svg+xml</dc:format>
    <dc:creator>
     <cc:Agent>
      <dc:title>Matplotlib v3.4.3, https://matplotlib.org/</dc:title>
     </cc:Agent>
    </dc:creator>
   </cc:Work>
  </rdf:RDF>
 </metadata>
 <defs>
  <style type="text/css">*{stroke-linecap:butt;stroke-linejoin:round;}</style>
 </defs>
 <g id="figure_1">
  <g id="patch_1">
   <path d="M 0 432 
L 576 432 
L 576 0 
L 0 0 
z
" style="fill:#ffffff;"/>
  </g>
  <g id="axes_1">
   <g id="patch_2">
    <path d="M 72 384.48 
L 518.4 384.48 
L 518.4 51.84 
L 72 51.84 
z
" style="fill:#ffffff;"/>
   </g>
   <g id="matplotlib.axis_1">
    <g id="xtick_1">
     <g id="line2d_1">
      <path clip-path="url(#p4c9b8b38cb)" d="M 72 384.48 
L 72 51.84 
" style="fill:none;stroke:#000000;stroke-dasharray:0.8,1.32;stroke-dashoffset:0;stroke-opacity:0.5;stroke-width:0.8;"/>
     </g>
     <g id="line2d_2">
      <defs>
       <path d="M 0 0 
L 0 3.5 
" id="m92286629f5" style="stroke:#000000;stroke-width:0.8;"/>
      </defs>
      <g>
       <use style="stroke:#000000;stroke-width:0.8;" x="72" xlink:href="#m92286629f5" y="384.48"/>
      </g>
     </g>
     <g id="text_1">
      <!-- 15 -->
      <g transform="translate(65.6375 399.078438)scale(0.1 -0.1)">
       <defs>
        <path d="M 794 531 
L 1825 531 
L 1825 4091 
L 703 3866 
L 703 4441 
L 1819 4666 
L 2450 4666 
L 2450 531 
L 3481 531 
L 3481 0 
L 794 0 
L 794 531 
z
" id="DejaVuSans-31" transform="scale(0.015625)"/>
        <path d="M 691 4666 
L 3169 4666 
L 3169 4134 
L 1269 4134 
L 1269 2991 
Q 1406 3038 1543 3061 
Q 1681 3084 1819 3084 
Q 2600 3084 3056 2656 
Q 3513 2228 3513 1497 
Q 3513 744 3044 326 
Q 2575 -91 1722 -91 
Q 1428 -91 1123 -41 
Q 819 9 494 109 
L 494 744 
Q 775 591 1075 516 
Q 1375 441 1709 441 
Q 2250 441 2565 725 
Q 2881 1009 2881 1497 
Q 2881 1984 2565 2268 
Q 2250 2553 1709 2553 
Q 1456 2553 1204 2497 
Q 953 2441 691 2322 
L 691 4666 
z
" id="DejaVuSans-35" transform="scale(0.015625)"/>
       </defs>
       <use xlink:href="#DejaVuSans-31"/>
       <use x="63.623047" xlink:href="#DejaVuSans-35"/>
      </g>
     </g>
    </g>
    <g id="xtick_2">
     <g id="line2d_3">
      <path clip-path="url(#p4c9b8b38cb)" d="M 109.755224 384.48 
L 109.755224 51.84 
" style="fill:none;stroke:#000000;stroke-dasharray:0.8,1.32;stroke-dashoffset:0;stroke-opacity:0.5;stroke-width:0.8;"/>
     </g>
     <g id="line2d_4">
      <g>
       <use style="stroke:#000000;stroke-width:0.8;" x="109.755224" xlink:href="#m92286629f5" y="384.48"/>
      </g>
     </g>
     <g id="text_2">
      <!-- Aug -->
      <g transform="translate(99.991943 399.078438)scale(0.1 -0.1)">
       <defs>
        <path d="M 2188 4044 
L 1331 1722 
L 3047 1722 
L 2188 4044 
z
M 1831 4666 
L 2547 4666 
L 4325 0 
L 3669 0 
L 3244 1197 
L 1141 1197 
L 716 0 
L 50 0 
L 1831 4666 
z
" id="DejaVuSans-41" transform="scale(0.015625)"/>
        <path d="M 544 1381 
L 544 3500 
L 1119 3500 
L 1119 1403 
Q 1119 906 1312 657 
Q 1506 409 1894 409 
Q 2359 409 2629 706 
Q 2900 1003 2900 1516 
L 2900 3500 
L 3475 3500 
L 3475 0 
L 2900 0 
L 2900 538 
Q 2691 219 2414 64 
Q 2138 -91 1772 -91 
Q 1169 -91 856 284 
Q 544 659 544 1381 
z
M 1991 3584 
L 1991 3584 
z
" id="DejaVuSans-75" transform="scale(0.015625)"/>
        <path d="M 2906 1791 
Q 2906 2416 2648 2759 
Q 2391 3103 1925 3103 
Q 1463 3103 1205 2759 
Q 947 2416 947 1791 
Q 947 1169 1205 825 
Q 1463 481 1925 481 
Q 2391 481 2648 825 
Q 2906 1169 2906 1791 
z
M 3481 434 
Q 3481 -459 3084 -895 
Q 2688 -1331 1869 -1331 
Q 1566 -1331 1297 -1286 
Q 1028 -1241 775 -1147 
L 775 -588 
Q 1028 -725 1275 -790 
Q 1522 -856 1778 -856 
Q 2344 -856 2625 -561 
Q 2906 -266 2906 331 
L 2906 616 
Q 2728 306 2450 153 
Q 2172 0 1784 0 
Q 1141 0 747 490 
Q 353 981 353 1791 
Q 353 2603 747 3093 
Q 1141 3584 1784 3584 
Q 2172 3584 2450 3431 
Q 2728 3278 2906 2969 
L 2906 3500 
L 3481 3500 
L 3481 434 
z
" id="DejaVuSans-67" transform="scale(0.015625)"/>
       </defs>
       <use xlink:href="#DejaVuSans-41"/>
       <use x="68.408203" xlink:href="#DejaVuSans-75"/>
       <use x="131.787109" xlink:href="#DejaVuSans-67"/>
      </g>
     </g>
    </g>
    <g id="xtick_3">
     <g id="line2d_5">
      <path clip-path="url(#p4c9b8b38cb)" d="M 140.847761 384.48 
L 140.847761 51.84 
" style="fill:none;stroke:#000000;stroke-dasharray:0.8,1.32;stroke-dashoffset:0;stroke-opacity:0.5;stroke-width:0.8;"/>
     </g>
     <g id="line2d_6">
      <g>
       <use style="stroke:#000000;stroke-width:0.8;" x="140.847761" xlink:href="#m92286629f5" y="384.48"/>
      </g>
     </g>
     <g id="text_3">
      <!-- 15 -->
      <g transform="translate(134.485261 399.078438)scale(0.1 -0.1)">
       <use xlink:href="#DejaVuSans-31"/>
       <use x="63.623047" xlink:href="#DejaVuSans-35"/>
      </g>
     </g>
    </g>
    <g id="xtick_4">
     <g id="line2d_7">
      <path clip-path="url(#p4c9b8b38cb)" d="M 178.602985 384.48 
L 178.602985 51.84 
" style="fill:none;stroke:#000000;stroke-dasharray:0.8,1.32;stroke-dashoffset:0;stroke-opacity:0.5;stroke-width:0.8;"/>
     </g>
     <g id="line2d_8">
      <g>
       <use style="stroke:#000000;stroke-width:0.8;" x="178.602985" xlink:href="#m92286629f5" y="384.48"/>
      </g>
     </g>
     <g id="text_4">
      <!-- Sep -->
      <g transform="translate(169.177985 399.078438)scale(0.1 -0.1)">
       <defs>
        <path d="M 3425 4513 
L 3425 3897 
Q 3066 4069 2747 4153 
Q 2428 4238 2131 4238 
Q 1616 4238 1336 4038 
Q 1056 3838 1056 3469 
Q 1056 3159 1242 3001 
Q 1428 2844 1947 2747 
L 2328 2669 
Q 3034 2534 3370 2195 
Q 3706 1856 3706 1288 
Q 3706 609 3251 259 
Q 2797 -91 1919 -91 
Q 1588 -91 1214 -16 
Q 841 59 441 206 
L 441 856 
Q 825 641 1194 531 
Q 1563 422 1919 422 
Q 2459 422 2753 634 
Q 3047 847 3047 1241 
Q 3047 1584 2836 1778 
Q 2625 1972 2144 2069 
L 1759 2144 
Q 1053 2284 737 2584 
Q 422 2884 422 3419 
Q 422 4038 858 4394 
Q 1294 4750 2059 4750 
Q 2388 4750 2728 4690 
Q 3069 4631 3425 4513 
z
" id="DejaVuSans-53" transform="scale(0.015625)"/>
        <path d="M 3597 1894 
L 3597 1613 
L 953 1613 
Q 991 1019 1311 708 
Q 1631 397 2203 397 
Q 2534 397 2845 478 
Q 3156 559 3463 722 
L 3463 178 
Q 3153 47 2828 -22 
Q 2503 -91 2169 -91 
Q 1331 -91 842 396 
Q 353 884 353 1716 
Q 353 2575 817 3079 
Q 1281 3584 2069 3584 
Q 2775 3584 3186 3129 
Q 3597 2675 3597 1894 
z
M 3022 2063 
Q 3016 2534 2758 2815 
Q 2500 3097 2075 3097 
Q 1594 3097 1305 2825 
Q 1016 2553 972 2059 
L 3022 2063 
z
" id="DejaVuSans-65" transform="scale(0.015625)"/>
        <path d="M 1159 525 
L 1159 -1331 
L 581 -1331 
L 581 3500 
L 1159 3500 
L 1159 2969 
Q 1341 3281 1617 3432 
Q 1894 3584 2278 3584 
Q 2916 3584 3314 3078 
Q 3713 2572 3713 1747 
Q 3713 922 3314 415 
Q 2916 -91 2278 -91 
Q 1894 -91 1617 61 
Q 1341 213 1159 525 
z
M 3116 1747 
Q 3116 2381 2855 2742 
Q 2594 3103 2138 3103 
Q 1681 3103 1420 2742 
Q 1159 2381 1159 1747 
Q 1159 1113 1420 752 
Q 1681 391 2138 391 
Q 2594 391 2855 752 
Q 3116 1113 3116 1747 
z
" id="DejaVuSans-70" transform="scale(0.015625)"/>
       </defs>
       <use xlink:href="#DejaVuSans-53"/>
       <use x="63.476562" xlink:href="#DejaVuSans-65"/>
       <use x="125" xlink:href="#DejaVuSans-70"/>
      </g>
     </g>
    </g>
    <g id="xtick_5">
     <g id="line2d_9">
      <path clip-path="url(#p4c9b8b38cb)" d="M 209.695522 384.48 
L 209.695522 51.84 
" style="fill:none;stroke:#000000;stroke-dasharray:0.8,1.32;stroke-dashoffset:0;stroke-opacity:0.5;stroke-width:0.8;"/>
     </g>
     <g id="line2d_10">
      <g>
       <use style="stroke:#000000;stroke-width:0.8;" x="209.695522" xlink:href="#m92286629f5" y="384.48"/>
      </g>
     </g>
     <g id="text_5">
      <!-- 15 -->
      <g transform="translate(203.333022 399.078438)scale(0.1 -0.1)">
       <use xlink:href="#DejaVuSans-31"/>
       <use x="63.623047" xlink:href="#DejaVuSans-35"/>
      </g>
     </g>
    </g>
    <g id="xtick_6">
     <g id="line2d_11">
      <path clip-path="url(#p4c9b8b38cb)" d="M 245.229851 384.48 
L 245.229851 51.84 
" style="fill:none;stroke:#000000;stroke-dasharray:0.8,1.32;stroke-dashoffset:0;stroke-opacity:0.5;stroke-width:0.8;"/>
     </g>
     <g id="line2d_12">
      <g>
       <use style="stroke:#000000;stroke-width:0.8;" x="245.229851" xlink:href="#m92286629f5" y="384.48"/>
      </g>
     </g>
     <g id="text_6">
      <!-- Oct -->
      <g transform="translate(236.584538 399.078438)scale(0.1 -0.1)">
       <defs>
        <path d="M 2522 4238 
Q 1834 4238 1429 3725 
Q 1025 3213 1025 2328 
Q 1025 1447 1429 934 
Q 1834 422 2522 422 
Q 3209 422 3611 934 
Q 4013 1447 4013 2328 
Q 4013 3213 3611 3725 
Q 3209 4238 2522 4238 
z
M 2522 4750 
Q 3503 4750 4090 4092 
Q 4678 3434 4678 2328 
Q 4678 1225 4090 567 
Q 3503 -91 2522 -91 
Q 1538 -91 948 565 
Q 359 1222 359 2328 
Q 359 3434 948 4092 
Q 1538 4750 2522 4750 
z
" id="DejaVuSans-4f" transform="scale(0.015625)"/>
        <path d="M 3122 3366 
L 3122 2828 
Q 2878 2963 2633 3030 
Q 2388 3097 2138 3097 
Q 1578 3097 1268 2742 
Q 959 2388 959 1747 
Q 959 1106 1268 751 
Q 1578 397 2138 397 
Q 2388 397 2633 464 
Q 2878 531 3122 666 
L 3122 134 
Q 2881 22 2623 -34 
Q 2366 -91 2075 -91 
Q 1284 -91 818 406 
Q 353 903 353 1747 
Q 353 2603 823 3093 
Q 1294 3584 2113 3584 
Q 2378 3584 2631 3529 
Q 2884 3475 3122 3366 
z
" id="DejaVuSans-63" transform="scale(0.015625)"/>
        <path d="M 1172 4494 
L 1172 3500 
L 2356 3500 
L 2356 3053 
L 1172 3053 
L 1172 1153 
Q 1172 725 1289 603 
Q 1406 481 1766 481 
L 2356 481 
L 2356 0 
L 1766 0 
Q 1100 0 847 248 
Q 594 497 594 1153 
L 594 3053 
L 172 3053 
L 172 3500 
L 594 3500 
L 594 4494 
L 1172 4494 
z
" id="DejaVuSans-74" transform="scale(0.015625)"/>
       </defs>
       <use xlink:href="#DejaVuSans-4f"/>
       <use x="78.710938" xlink:href="#DejaVuSans-63"/>
       <use x="133.691406" xlink:href="#DejaVuSans-74"/>
      </g>
     </g>
    </g>
    <g id="xtick_7">
     <g id="line2d_13">
      <path clip-path="url(#p4c9b8b38cb)" d="M 276.322388 384.48 
L 276.322388 51.84 
" style="fill:none;stroke:#000000;stroke-dasharray:0.8,1.32;stroke-dashoffset:0;stroke-opacity:0.5;stroke-width:0.8;"/>
     </g>
     <g id="line2d_14">
      <g>
       <use style="stroke:#000000;stroke-width:0.8;" x="276.322388" xlink:href="#m92286629f5" y="384.48"/>
      </g>
     </g>
     <g id="text_7">
      <!-- 15 -->
      <g transform="translate(269.959888 399.078438)scale(0.1 -0.1)">
       <use xlink:href="#DejaVuSans-31"/>
       <use x="63.623047" xlink:href="#DejaVuSans-35"/>
      </g>
     </g>
    </g>
    <g id="xtick_8">
     <g id="line2d_15">
      <path clip-path="url(#p4c9b8b38cb)" d="M 314.077612 384.48 
L 314.077612 51.84 
" style="fill:none;stroke:#000000;stroke-dasharray:0.8,1.32;stroke-dashoffset:0;stroke-opacity:0.5;stroke-width:0.8;"/>
     </g>
     <g id="line2d_16">
      <g>
       <use style="stroke:#000000;stroke-width:0.8;" x="314.077612" xlink:href="#m92286629f5" y="384.48"/>
      </g>
     </g>
     <g id="text_8">
      <!-- Nov -->
      <g transform="translate(304.318237 399.078438)scale(0.1 -0.1)">
       <defs>
        <path d="M 628 4666 
L 1478 4666 
L 3547 763 
L 3547 4666 
L 4159 4666 
L 4159 0 
L 3309 0 
L 1241 3903 
L 1241 0 
L 628 0 
L 628 4666 
z
" id="DejaVuSans-4e" transform="scale(0.015625)"/>
        <path d="M 1959 3097 
Q 1497 3097 1228 2736 
Q 959 2375 959 1747 
Q 959 1119 1226 758 
Q 1494 397 1959 397 
Q 2419 397 2687 759 
Q 2956 1122 2956 1747 
Q 2956 2369 2687 2733 
Q 2419 3097 1959 3097 
z
M 1959 3584 
Q 2709 3584 3137 3096 
Q 3566 2609 3566 1747 
Q 3566 888 3137 398 
Q 2709 -91 1959 -91 
Q 1206 -91 779 398 
Q 353 888 353 1747 
Q 353 2609 779 3096 
Q 1206 3584 1959 3584 
z
" id="DejaVuSans-6f" transform="scale(0.015625)"/>
        <path d="M 191 3500 
L 800 3500 
L 1894 563 
L 2988 3500 
L 3597 3500 
L 2284 0 
L 1503 0 
L 191 3500 
z
" id="DejaVuSans-76" transform="scale(0.015625)"/>
       </defs>
       <use xlink:href="#DejaVuSans-4e"/>
       <use x="74.804688" xlink:href="#DejaVuSans-6f"/>
       <use x="135.986328" xlink:href="#DejaVuSans-76"/>
      </g>
     </g>
    </g>
    <g id="xtick_9">
     <g id="line2d_17">
      <path clip-path="url(#p4c9b8b38cb)" d="M 345.170149 384.48 
L 345.170149 51.84 
" style="fill:none;stroke:#000000;stroke-dasharray:0.8,1.32;stroke-dashoffset:0;stroke-opacity:0.5;stroke-width:0.8;"/>
     </g>
     <g id="line2d_18">
      <g>
       <use style="stroke:#000000;stroke-width:0.8;" x="345.170149" xlink:href="#m92286629f5" y="384.48"/>
      </g>
     </g>
     <g id="text_9">
      <!-- 15 -->
      <g transform="translate(338.807649 399.078438)scale(0.1 -0.1)">
       <use xlink:href="#DejaVuSans-31"/>
       <use x="63.623047" xlink:href="#DejaVuSans-35"/>
      </g>
     </g>
    </g>
    <g id="xtick_10">
     <g id="line2d_19">
      <path clip-path="url(#p4c9b8b38cb)" d="M 380.704478 384.48 
L 380.704478 51.84 
" style="fill:none;stroke:#000000;stroke-dasharray:0.8,1.32;stroke-dashoffset:0;stroke-opacity:0.5;stroke-width:0.8;"/>
     </g>
     <g id="line2d_20">
      <g>
       <use style="stroke:#000000;stroke-width:0.8;" x="380.704478" xlink:href="#m92286629f5" y="384.48"/>
      </g>
     </g>
     <g id="text_10">
      <!-- Dec -->
      <g transform="translate(371.028696 399.078438)scale(0.1 -0.1)">
       <defs>
        <path d="M 1259 4147 
L 1259 519 
L 2022 519 
Q 2988 519 3436 956 
Q 3884 1394 3884 2338 
Q 3884 3275 3436 3711 
Q 2988 4147 2022 4147 
L 1259 4147 
z
M 628 4666 
L 1925 4666 
Q 3281 4666 3915 4102 
Q 4550 3538 4550 2338 
Q 4550 1131 3912 565 
Q 3275 0 1925 0 
L 628 0 
L 628 4666 
z
" id="DejaVuSans-44" transform="scale(0.015625)"/>
       </defs>
       <use xlink:href="#DejaVuSans-44"/>
       <use x="77.001953" xlink:href="#DejaVuSans-65"/>
       <use x="138.525391" xlink:href="#DejaVuSans-63"/>
      </g>
     </g>
    </g>
    <g id="xtick_11">
     <g id="line2d_21">
      <path clip-path="url(#p4c9b8b38cb)" d="M 411.797015 384.48 
L 411.797015 51.84 
" style="fill:none;stroke:#000000;stroke-dasharray:0.8,1.32;stroke-dashoffset:0;stroke-opacity:0.5;stroke-width:0.8;"/>
     </g>
     <g id="line2d_22">
      <g>
       <use style="stroke:#000000;stroke-width:0.8;" x="411.797015" xlink:href="#m92286629f5" y="384.48"/>
      </g>
     </g>
     <g id="text_11">
      <!-- 15 -->
      <g transform="translate(405.434515 399.078438)scale(0.1 -0.1)">
       <use xlink:href="#DejaVuSans-31"/>
       <use x="63.623047" xlink:href="#DejaVuSans-35"/>
      </g>
     </g>
    </g>
    <g id="xtick_12">
     <g id="line2d_23">
      <path clip-path="url(#p4c9b8b38cb)" d="M 449.552239 384.48 
L 449.552239 51.84 
" style="fill:none;stroke:#000000;stroke-dasharray:0.8,1.32;stroke-dashoffset:0;stroke-opacity:0.5;stroke-width:0.8;"/>
     </g>
     <g id="line2d_24">
      <g>
       <use style="stroke:#000000;stroke-width:0.8;" x="449.552239" xlink:href="#m92286629f5" y="384.48"/>
      </g>
     </g>
     <g id="text_12">
      <!-- Jan -->
      <g transform="translate(441.844426 399.078438)scale(0.1 -0.1)">
       <defs>
        <path d="M 628 4666 
L 1259 4666 
L 1259 325 
Q 1259 -519 939 -900 
Q 619 -1281 -91 -1281 
L -331 -1281 
L -331 -750 
L -134 -750 
Q 284 -750 456 -515 
Q 628 -281 628 325 
L 628 4666 
z
" id="DejaVuSans-4a" transform="scale(0.015625)"/>
        <path d="M 2194 1759 
Q 1497 1759 1228 1600 
Q 959 1441 959 1056 
Q 959 750 1161 570 
Q 1363 391 1709 391 
Q 2188 391 2477 730 
Q 2766 1069 2766 1631 
L 2766 1759 
L 2194 1759 
z
M 3341 1997 
L 3341 0 
L 2766 0 
L 2766 531 
Q 2569 213 2275 61 
Q 1981 -91 1556 -91 
Q 1019 -91 701 211 
Q 384 513 384 1019 
Q 384 1609 779 1909 
Q 1175 2209 1959 2209 
L 2766 2209 
L 2766 2266 
Q 2766 2663 2505 2880 
Q 2244 3097 1772 3097 
Q 1472 3097 1187 3025 
Q 903 2953 641 2809 
L 641 3341 
Q 956 3463 1253 3523 
Q 1550 3584 1831 3584 
Q 2591 3584 2966 3190 
Q 3341 2797 3341 1997 
z
" id="DejaVuSans-61" transform="scale(0.015625)"/>
        <path d="M 3513 2113 
L 3513 0 
L 2938 0 
L 2938 2094 
Q 2938 2591 2744 2837 
Q 2550 3084 2163 3084 
Q 1697 3084 1428 2787 
Q 1159 2491 1159 1978 
L 1159 0 
L 581 0 
L 581 3500 
L 1159 3500 
L 1159 2956 
Q 1366 3272 1645 3428 
Q 1925 3584 2291 3584 
Q 2894 3584 3203 3211 
Q 3513 2838 3513 2113 
z
" id="DejaVuSans-6e" transform="scale(0.015625)"/>
       </defs>
       <use xlink:href="#DejaVuSans-4a"/>
       <use x="29.492188" xlink:href="#DejaVuSans-61"/>
       <use x="90.771484" xlink:href="#DejaVuSans-6e"/>
      </g>
     </g>
    </g>
    <g id="xtick_13">
     <g id="line2d_25">
      <path clip-path="url(#p4c9b8b38cb)" d="M 480.644776 384.48 
L 480.644776 51.84 
" style="fill:none;stroke:#000000;stroke-dasharray:0.8,1.32;stroke-dashoffset:0;stroke-opacity:0.5;stroke-width:0.8;"/>
     </g>
     <g id="line2d_26">
      <g>
       <use style="stroke:#000000;stroke-width:0.8;" x="480.644776" xlink:href="#m92286629f5" y="384.48"/>
      </g>
     </g>
     <g id="text_13">
      <!-- 15 -->
      <g transform="translate(474.282276 399.078438)scale(0.1 -0.1)">
       <use xlink:href="#DejaVuSans-31"/>
       <use x="63.623047" xlink:href="#DejaVuSans-35"/>
      </g>
     </g>
    </g>
    <g id="xtick_14">
     <g id="line2d_27">
      <path clip-path="url(#p4c9b8b38cb)" d="M 518.4 384.48 
L 518.4 51.84 
" style="fill:none;stroke:#000000;stroke-dasharray:0.8,1.32;stroke-dashoffset:0;stroke-opacity:0.5;stroke-width:0.8;"/>
     </g>
     <g id="line2d_28">
      <g>
       <use style="stroke:#000000;stroke-width:0.8;" x="518.4" xlink:href="#m92286629f5" y="384.48"/>
      </g>
     </g>
     <g id="text_14">
      <!-- Feb -->
      <g transform="translate(509.548437 399.078438)scale(0.1 -0.1)">
       <defs>
        <path d="M 628 4666 
L 3309 4666 
L 3309 4134 
L 1259 4134 
L 1259 2759 
L 3109 2759 
L 3109 2228 
L 1259 2228 
L 1259 0 
L 628 0 
L 628 4666 
z
" id="DejaVuSans-46" transform="scale(0.015625)"/>
        <path d="M 3116 1747 
Q 3116 2381 2855 2742 
Q 2594 3103 2138 3103 
Q 1681 3103 1420 2742 
Q 1159 2381 1159 1747 
Q 1159 1113 1420 752 
Q 1681 391 2138 391 
Q 2594 391 2855 752 
Q 3116 1113 3116 1747 
z
M 1159 2969 
Q 1341 3281 1617 3432 
Q 1894 3584 2278 3584 
Q 2916 3584 3314 3078 
Q 3713 2572 3713 1747 
Q 3713 922 3314 415 
Q 2916 -91 2278 -91 
Q 1894 -91 1617 61 
Q 1341 213 1159 525 
L 1159 0 
L 581 0 
L 581 4863 
L 1159 4863 
L 1159 2969 
z
" id="DejaVuSans-62" transform="scale(0.015625)"/>
       </defs>
       <use xlink:href="#DejaVuSans-46"/>
       <use x="52.019531" xlink:href="#DejaVuSans-65"/>
       <use x="113.542969" xlink:href="#DejaVuSans-62"/>
      </g>
     </g>
    </g>
    <g id="text_15">
     <!-- 2022-Feb -->
     <g transform="translate(471.639062 411.756563)scale(0.1 -0.1)">
      <defs>
       <path d="M 1228 531 
L 3431 531 
L 3431 0 
L 469 0 
L 469 531 
Q 828 903 1448 1529 
Q 2069 2156 2228 2338 
Q 2531 2678 2651 2914 
Q 2772 3150 2772 3378 
Q 2772 3750 2511 3984 
Q 2250 4219 1831 4219 
Q 1534 4219 1204 4116 
Q 875 4013 500 3803 
L 500 4441 
Q 881 4594 1212 4672 
Q 1544 4750 1819 4750 
Q 2544 4750 2975 4387 
Q 3406 4025 3406 3419 
Q 3406 3131 3298 2873 
Q 3191 2616 2906 2266 
Q 2828 2175 2409 1742 
Q 1991 1309 1228 531 
z
" id="DejaVuSans-32" transform="scale(0.015625)"/>
       <path d="M 2034 4250 
Q 1547 4250 1301 3770 
Q 1056 3291 1056 2328 
Q 1056 1369 1301 889 
Q 1547 409 2034 409 
Q 2525 409 2770 889 
Q 3016 1369 3016 2328 
Q 3016 3291 2770 3770 
Q 2525 4250 2034 4250 
z
M 2034 4750 
Q 2819 4750 3233 4129 
Q 3647 3509 3647 2328 
Q 3647 1150 3233 529 
Q 2819 -91 2034 -91 
Q 1250 -91 836 529 
Q 422 1150 422 2328 
Q 422 3509 836 4129 
Q 1250 4750 2034 4750 
z
" id="DejaVuSans-30" transform="scale(0.015625)"/>
       <path d="M 313 2009 
L 1997 2009 
L 1997 1497 
L 313 1497 
L 313 2009 
z
" id="DejaVuSans-2d" transform="scale(0.015625)"/>
      </defs>
      <use xlink:href="#DejaVuSans-32"/>
      <use x="63.623047" xlink:href="#DejaVuSans-30"/>
      <use x="127.246094" xlink:href="#DejaVuSans-32"/>
      <use x="190.869141" xlink:href="#DejaVuSans-32"/>
      <use x="254.492188" xlink:href="#DejaVuSans-2d"/>
      <use x="290.576172" xlink:href="#DejaVuSans-46"/>
      <use x="342.595703" xlink:href="#DejaVuSans-65"/>
      <use x="404.119141" xlink:href="#DejaVuSans-62"/>
     </g>
    </g>
   </g>
   <g id="matplotlib.axis_2">
    <g id="ytick_1">
     <g id="line2d_29">
      <path clip-path="url(#p4c9b8b38cb)" d="M 72 384.48 
L 518.4 384.48 
" style="fill:none;stroke:#000000;stroke-dasharray:0.8,1.32;stroke-dashoffset:0;stroke-opacity:0.5;stroke-width:0.8;"/>
     </g>
     <g id="line2d_30">
      <defs>
       <path d="M 0 0 
L -3.5 0 
" id="m98f494f214" style="stroke:#000000;stroke-width:0.8;"/>
      </defs>
      <g>
       <use style="stroke:#000000;stroke-width:0.8;" x="72" xlink:href="#m98f494f214" y="384.48"/>
      </g>
     </g>
     <g id="text_16">
      <!-- 0 -->
      <g transform="translate(58.6375 388.279219)scale(0.1 -0.1)">
       <use xlink:href="#DejaVuSans-30"/>
      </g>
     </g>
    </g>
    <g id="ytick_2">
     <g id="line2d_31">
      <path clip-path="url(#p4c9b8b38cb)" d="M 72 351.216 
L 518.4 351.216 
" style="fill:none;stroke:#000000;stroke-dasharray:0.8,1.32;stroke-dashoffset:0;stroke-opacity:0.5;stroke-width:0.8;"/>
     </g>
     <g id="line2d_32">
      <g>
       <use style="stroke:#000000;stroke-width:0.8;" x="72" xlink:href="#m98f494f214" y="351.216"/>
      </g>
     </g>
     <g id="text_17">
      <!-- 1 -->
      <g transform="translate(58.6375 355.015219)scale(0.1 -0.1)">
       <use xlink:href="#DejaVuSans-31"/>
      </g>
     </g>
    </g>
    <g id="ytick_3">
     <g id="line2d_33">
      <path clip-path="url(#p4c9b8b38cb)" d="M 72 317.952 
L 518.4 317.952 
" style="fill:none;stroke:#000000;stroke-dasharray:0.8,1.32;stroke-dashoffset:0;stroke-opacity:0.5;stroke-width:0.8;"/>
     </g>
     <g id="line2d_34">
      <g>
       <use style="stroke:#000000;stroke-width:0.8;" x="72" xlink:href="#m98f494f214" y="317.952"/>
      </g>
     </g>
     <g id="text_18">
      <!-- 2 -->
      <g transform="translate(58.6375 321.751219)scale(0.1 -0.1)">
       <use xlink:href="#DejaVuSans-32"/>
      </g>
     </g>
    </g>
    <g id="ytick_4">
     <g id="line2d_35">
      <path clip-path="url(#p4c9b8b38cb)" d="M 72 284.688 
L 518.4 284.688 
" style="fill:none;stroke:#000000;stroke-dasharray:0.8,1.32;stroke-dashoffset:0;stroke-opacity:0.5;stroke-width:0.8;"/>
     </g>
     <g id="line2d_36">
      <g>
       <use style="stroke:#000000;stroke-width:0.8;" x="72" xlink:href="#m98f494f214" y="284.688"/>
      </g>
     </g>
     <g id="text_19">
      <!-- 3 -->
      <g transform="translate(58.6375 288.487219)scale(0.1 -0.1)">
       <defs>
        <path d="M 2597 2516 
Q 3050 2419 3304 2112 
Q 3559 1806 3559 1356 
Q 3559 666 3084 287 
Q 2609 -91 1734 -91 
Q 1441 -91 1130 -33 
Q 819 25 488 141 
L 488 750 
Q 750 597 1062 519 
Q 1375 441 1716 441 
Q 2309 441 2620 675 
Q 2931 909 2931 1356 
Q 2931 1769 2642 2001 
Q 2353 2234 1838 2234 
L 1294 2234 
L 1294 2753 
L 1863 2753 
Q 2328 2753 2575 2939 
Q 2822 3125 2822 3475 
Q 2822 3834 2567 4026 
Q 2313 4219 1838 4219 
Q 1578 4219 1281 4162 
Q 984 4106 628 3988 
L 628 4550 
Q 988 4650 1302 4700 
Q 1616 4750 1894 4750 
Q 2613 4750 3031 4423 
Q 3450 4097 3450 3541 
Q 3450 3153 3228 2886 
Q 3006 2619 2597 2516 
z
" id="DejaVuSans-33" transform="scale(0.015625)"/>
       </defs>
       <use xlink:href="#DejaVuSans-33"/>
      </g>
     </g>
    </g>
    <g id="ytick_5">
     <g id="line2d_37">
      <path clip-path="url(#p4c9b8b38cb)" d="M 72 251.424 
L 518.4 251.424 
" style="fill:none;stroke:#000000;stroke-dasharray:0.8,1.32;stroke-dashoffset:0;stroke-opacity:0.5;stroke-width:0.8;"/>
     </g>
     <g id="line2d_38">
      <g>
       <use style="stroke:#000000;stroke-width:0.8;" x="72" xlink:href="#m98f494f214" y="251.424"/>
      </g>
     </g>
     <g id="text_20">
      <!-- 4 -->
      <g transform="translate(58.6375 255.223219)scale(0.1 -0.1)">
       <defs>
        <path d="M 2419 4116 
L 825 1625 
L 2419 1625 
L 2419 4116 
z
M 2253 4666 
L 3047 4666 
L 3047 1625 
L 3713 1625 
L 3713 1100 
L 3047 1100 
L 3047 0 
L 2419 0 
L 2419 1100 
L 313 1100 
L 313 1709 
L 2253 4666 
z
" id="DejaVuSans-34" transform="scale(0.015625)"/>
       </defs>
       <use xlink:href="#DejaVuSans-34"/>
      </g>
     </g>
    </g>
    <g id="ytick_6">
     <g id="line2d_39">
      <path clip-path="url(#p4c9b8b38cb)" d="M 72 218.16 
L 518.4 218.16 
" style="fill:none;stroke:#000000;stroke-dasharray:0.8,1.32;stroke-dashoffset:0;stroke-opacity:0.5;stroke-width:0.8;"/>
     </g>
     <g id="line2d_40">
      <g>
       <use style="stroke:#000000;stroke-width:0.8;" x="72" xlink:href="#m98f494f214" y="218.16"/>
      </g>
     </g>
     <g id="text_21">
      <!-- 5 -->
      <g transform="translate(58.6375 221.959219)scale(0.1 -0.1)">
       <use xlink:href="#DejaVuSans-35"/>
      </g>
     </g>
    </g>
    <g id="ytick_7">
     <g id="line2d_41">
      <path clip-path="url(#p4c9b8b38cb)" d="M 72 184.896 
L 518.4 184.896 
" style="fill:none;stroke:#000000;stroke-dasharray:0.8,1.32;stroke-dashoffset:0;stroke-opacity:0.5;stroke-width:0.8;"/>
     </g>
     <g id="line2d_42">
      <g>
       <use style="stroke:#000000;stroke-width:0.8;" x="72" xlink:href="#m98f494f214" y="184.896"/>
      </g>
     </g>
     <g id="text_22">
      <!-- 6 -->
      <g transform="translate(58.6375 188.695219)scale(0.1 -0.1)">
       <defs>
        <path d="M 2113 2584 
Q 1688 2584 1439 2293 
Q 1191 2003 1191 1497 
Q 1191 994 1439 701 
Q 1688 409 2113 409 
Q 2538 409 2786 701 
Q 3034 994 3034 1497 
Q 3034 2003 2786 2293 
Q 2538 2584 2113 2584 
z
M 3366 4563 
L 3366 3988 
Q 3128 4100 2886 4159 
Q 2644 4219 2406 4219 
Q 1781 4219 1451 3797 
Q 1122 3375 1075 2522 
Q 1259 2794 1537 2939 
Q 1816 3084 2150 3084 
Q 2853 3084 3261 2657 
Q 3669 2231 3669 1497 
Q 3669 778 3244 343 
Q 2819 -91 2113 -91 
Q 1303 -91 875 529 
Q 447 1150 447 2328 
Q 447 3434 972 4092 
Q 1497 4750 2381 4750 
Q 2619 4750 2861 4703 
Q 3103 4656 3366 4563 
z
" id="DejaVuSans-36" transform="scale(0.015625)"/>
       </defs>
       <use xlink:href="#DejaVuSans-36"/>
      </g>
     </g>
    </g>
    <g id="ytick_8">
     <g id="line2d_43">
      <path clip-path="url(#p4c9b8b38cb)" d="M 72 151.632 
L 518.4 151.632 
" style="fill:none;stroke:#000000;stroke-dasharray:0.8,1.32;stroke-dashoffset:0;stroke-opacity:0.5;stroke-width:0.8;"/>
     </g>
     <g id="line2d_44">
      <g>
       <use style="stroke:#000000;stroke-width:0.8;" x="72" xlink:href="#m98f494f214" y="151.632"/>
      </g>
     </g>
     <g id="text_23">
      <!-- 7 -->
      <g transform="translate(58.6375 155.431219)scale(0.1 -0.1)">
       <defs>
        <path d="M 525 4666 
L 3525 4666 
L 3525 4397 
L 1831 0 
L 1172 0 
L 2766 4134 
L 525 4134 
L 525 4666 
z
" id="DejaVuSans-37" transform="scale(0.015625)"/>
       </defs>
       <use xlink:href="#DejaVuSans-37"/>
      </g>
     </g>
    </g>
    <g id="ytick_9">
     <g id="line2d_45">
      <path clip-path="url(#p4c9b8b38cb)" d="M 72 118.368 
L 518.4 118.368 
" style="fill:none;stroke:#000000;stroke-dasharray:0.8,1.32;stroke-dashoffset:0;stroke-opacity:0.5;stroke-width:0.8;"/>
     </g>
     <g id="line2d_46">
      <g>
       <use style="stroke:#000000;stroke-width:0.8;" x="72" xlink:href="#m98f494f214" y="118.368"/>
      </g>
     </g>
     <g id="text_24">
      <!-- 8 -->
      <g transform="translate(58.6375 122.167219)scale(0.1 -0.1)">
       <defs>
        <path d="M 2034 2216 
Q 1584 2216 1326 1975 
Q 1069 1734 1069 1313 
Q 1069 891 1326 650 
Q 1584 409 2034 409 
Q 2484 409 2743 651 
Q 3003 894 3003 1313 
Q 3003 1734 2745 1975 
Q 2488 2216 2034 2216 
z
M 1403 2484 
Q 997 2584 770 2862 
Q 544 3141 544 3541 
Q 544 4100 942 4425 
Q 1341 4750 2034 4750 
Q 2731 4750 3128 4425 
Q 3525 4100 3525 3541 
Q 3525 3141 3298 2862 
Q 3072 2584 2669 2484 
Q 3125 2378 3379 2068 
Q 3634 1759 3634 1313 
Q 3634 634 3220 271 
Q 2806 -91 2034 -91 
Q 1263 -91 848 271 
Q 434 634 434 1313 
Q 434 1759 690 2068 
Q 947 2378 1403 2484 
z
M 1172 3481 
Q 1172 3119 1398 2916 
Q 1625 2713 2034 2713 
Q 2441 2713 2670 2916 
Q 2900 3119 2900 3481 
Q 2900 3844 2670 4047 
Q 2441 4250 2034 4250 
Q 1625 4250 1398 4047 
Q 1172 3844 1172 3481 
z
" id="DejaVuSans-38" transform="scale(0.015625)"/>
       </defs>
       <use xlink:href="#DejaVuSans-38"/>
      </g>
     </g>
    </g>
    <g id="ytick_10">
     <g id="line2d_47">
      <path clip-path="url(#p4c9b8b38cb)" d="M 72 85.104 
L 518.4 85.104 
" style="fill:none;stroke:#000000;stroke-dasharray:0.8,1.32;stroke-dashoffset:0;stroke-opacity:0.5;stroke-width:0.8;"/>
     </g>
     <g id="line2d_48">
      <g>
       <use style="stroke:#000000;stroke-width:0.8;" x="72" xlink:href="#m98f494f214" y="85.104"/>
      </g>
     </g>
     <g id="text_25">
      <!-- 9 -->
      <g transform="translate(58.6375 88.903219)scale(0.1 -0.1)">
       <defs>
        <path d="M 703 97 
L 703 672 
Q 941 559 1184 500 
Q 1428 441 1663 441 
Q 2288 441 2617 861 
Q 2947 1281 2994 2138 
Q 2813 1869 2534 1725 
Q 2256 1581 1919 1581 
Q 1219 1581 811 2004 
Q 403 2428 403 3163 
Q 403 3881 828 4315 
Q 1253 4750 1959 4750 
Q 2769 4750 3195 4129 
Q 3622 3509 3622 2328 
Q 3622 1225 3098 567 
Q 2575 -91 1691 -91 
Q 1453 -91 1209 -44 
Q 966 3 703 97 
z
M 1959 2075 
Q 2384 2075 2632 2365 
Q 2881 2656 2881 3163 
Q 2881 3666 2632 3958 
Q 2384 4250 1959 4250 
Q 1534 4250 1286 3958 
Q 1038 3666 1038 3163 
Q 1038 2656 1286 2365 
Q 1534 2075 1959 2075 
z
" id="DejaVuSans-39" transform="scale(0.015625)"/>
       </defs>
       <use xlink:href="#DejaVuSans-39"/>
      </g>
     </g>
    </g>
    <g id="ytick_11">
     <g id="line2d_49">
      <path clip-path="url(#p4c9b8b38cb)" d="M 72 51.84 
L 518.4 51.84 
" style="fill:none;stroke:#000000;stroke-dasharray:0.8,1.32;stroke-dashoffset:0;stroke-opacity:0.5;stroke-width:0.8;"/>
     </g>
     <g id="line2d_50">
      <g>
       <use style="stroke:#000000;stroke-width:0.8;" x="72" xlink:href="#m98f494f214" y="51.84"/>
      </g>
     </g>
     <g id="text_26">
      <!-- 10 -->
      <g transform="translate(52.275 55.639219)scale(0.1 -0.1)">
       <use xlink:href="#DejaVuSans-31"/>
       <use x="63.623047" xlink:href="#DejaVuSans-30"/>
      </g>
     </g>
    </g>
    <g id="text_27">
     <!-- Vaccination rate (% of 12+ population / week) -->
     <g transform="translate(46.195312 333.687344)rotate(-90)scale(0.1 -0.1)">
      <defs>
       <path d="M 1831 0 
L 50 4666 
L 709 4666 
L 2188 738 
L 3669 4666 
L 4325 4666 
L 2547 0 
L 1831 0 
z
" id="DejaVuSans-56" transform="scale(0.015625)"/>
       <path d="M 603 3500 
L 1178 3500 
L 1178 0 
L 603 0 
L 603 3500 
z
M 603 4863 
L 1178 4863 
L 1178 4134 
L 603 4134 
L 603 4863 
z
" id="DejaVuSans-69" transform="scale(0.015625)"/>
       <path id="DejaVuSans-20" transform="scale(0.015625)"/>
       <path d="M 2631 2963 
Q 2534 3019 2420 3045 
Q 2306 3072 2169 3072 
Q 1681 3072 1420 2755 
Q 1159 2438 1159 1844 
L 1159 0 
L 581 0 
L 581 3500 
L 1159 3500 
L 1159 2956 
Q 1341 3275 1631 3429 
Q 1922 3584 2338 3584 
Q 2397 3584 2469 3576 
Q 2541 3569 2628 3553 
L 2631 2963 
z
" id="DejaVuSans-72" transform="scale(0.015625)"/>
       <path d="M 1984 4856 
Q 1566 4138 1362 3434 
Q 1159 2731 1159 2009 
Q 1159 1288 1364 580 
Q 1569 -128 1984 -844 
L 1484 -844 
Q 1016 -109 783 600 
Q 550 1309 550 2009 
Q 550 2706 781 3412 
Q 1013 4119 1484 4856 
L 1984 4856 
z
" id="DejaVuSans-28" transform="scale(0.015625)"/>
       <path d="M 4653 2053 
Q 4381 2053 4226 1822 
Q 4072 1591 4072 1178 
Q 4072 772 4226 539 
Q 4381 306 4653 306 
Q 4919 306 5073 539 
Q 5228 772 5228 1178 
Q 5228 1588 5073 1820 
Q 4919 2053 4653 2053 
z
M 4653 2450 
Q 5147 2450 5437 2106 
Q 5728 1763 5728 1178 
Q 5728 594 5436 251 
Q 5144 -91 4653 -91 
Q 4153 -91 3862 251 
Q 3572 594 3572 1178 
Q 3572 1766 3864 2108 
Q 4156 2450 4653 2450 
z
M 1428 4353 
Q 1159 4353 1004 4120 
Q 850 3888 850 3481 
Q 850 3069 1003 2837 
Q 1156 2606 1428 2606 
Q 1700 2606 1854 2837 
Q 2009 3069 2009 3481 
Q 2009 3884 1853 4118 
Q 1697 4353 1428 4353 
z
M 4250 4750 
L 4750 4750 
L 1831 -91 
L 1331 -91 
L 4250 4750 
z
M 1428 4750 
Q 1922 4750 2215 4408 
Q 2509 4066 2509 3481 
Q 2509 2891 2217 2550 
Q 1925 2209 1428 2209 
Q 931 2209 642 2551 
Q 353 2894 353 3481 
Q 353 4063 643 4406 
Q 934 4750 1428 4750 
z
" id="DejaVuSans-25" transform="scale(0.015625)"/>
       <path d="M 2375 4863 
L 2375 4384 
L 1825 4384 
Q 1516 4384 1395 4259 
Q 1275 4134 1275 3809 
L 1275 3500 
L 2222 3500 
L 2222 3053 
L 1275 3053 
L 1275 0 
L 697 0 
L 697 3053 
L 147 3053 
L 147 3500 
L 697 3500 
L 697 3744 
Q 697 4328 969 4595 
Q 1241 4863 1831 4863 
L 2375 4863 
z
" id="DejaVuSans-66" transform="scale(0.015625)"/>
       <path d="M 2944 4013 
L 2944 2272 
L 4684 2272 
L 4684 1741 
L 2944 1741 
L 2944 0 
L 2419 0 
L 2419 1741 
L 678 1741 
L 678 2272 
L 2419 2272 
L 2419 4013 
L 2944 4013 
z
" id="DejaVuSans-2b" transform="scale(0.015625)"/>
       <path d="M 603 4863 
L 1178 4863 
L 1178 0 
L 603 0 
L 603 4863 
z
" id="DejaVuSans-6c" transform="scale(0.015625)"/>
       <path d="M 1625 4666 
L 2156 4666 
L 531 -594 
L 0 -594 
L 1625 4666 
z
" id="DejaVuSans-2f" transform="scale(0.015625)"/>
       <path d="M 269 3500 
L 844 3500 
L 1563 769 
L 2278 3500 
L 2956 3500 
L 3675 769 
L 4391 3500 
L 4966 3500 
L 4050 0 
L 3372 0 
L 2619 2869 
L 1863 0 
L 1184 0 
L 269 3500 
z
" id="DejaVuSans-77" transform="scale(0.015625)"/>
       <path d="M 581 4863 
L 1159 4863 
L 1159 1991 
L 2875 3500 
L 3609 3500 
L 1753 1863 
L 3688 0 
L 2938 0 
L 1159 1709 
L 1159 0 
L 581 0 
L 581 4863 
z
" id="DejaVuSans-6b" transform="scale(0.015625)"/>
       <path d="M 513 4856 
L 1013 4856 
Q 1481 4119 1714 3412 
Q 1947 2706 1947 2009 
Q 1947 1309 1714 600 
Q 1481 -109 1013 -844 
L 513 -844 
Q 928 -128 1133 580 
Q 1338 1288 1338 2009 
Q 1338 2731 1133 3434 
Q 928 4138 513 4856 
z
" id="DejaVuSans-29" transform="scale(0.015625)"/>
      </defs>
      <use xlink:href="#DejaVuSans-56"/>
      <use x="60.658203" xlink:href="#DejaVuSans-61"/>
      <use x="121.9375" xlink:href="#DejaVuSans-63"/>
      <use x="176.917969" xlink:href="#DejaVuSans-63"/>
      <use x="231.898438" xlink:href="#DejaVuSans-69"/>
      <use x="259.681641" xlink:href="#DejaVuSans-6e"/>
      <use x="323.060547" xlink:href="#DejaVuSans-61"/>
      <use x="384.339844" xlink:href="#DejaVuSans-74"/>
      <use x="423.548828" xlink:href="#DejaVuSans-69"/>
      <use x="451.332031" xlink:href="#DejaVuSans-6f"/>
      <use x="512.513672" xlink:href="#DejaVuSans-6e"/>
      <use x="575.892578" xlink:href="#DejaVuSans-20"/>
      <use x="607.679688" xlink:href="#DejaVuSans-72"/>
      <use x="648.792969" xlink:href="#DejaVuSans-61"/>
      <use x="710.072266" xlink:href="#DejaVuSans-74"/>
      <use x="749.28125" xlink:href="#DejaVuSans-65"/>
      <use x="810.804688" xlink:href="#DejaVuSans-20"/>
      <use x="842.591797" xlink:href="#DejaVuSans-28"/>
      <use x="881.605469" xlink:href="#DejaVuSans-25"/>
      <use x="976.625" xlink:href="#DejaVuSans-20"/>
      <use x="1008.412109" xlink:href="#DejaVuSans-6f"/>
      <use x="1069.59375" xlink:href="#DejaVuSans-66"/>
      <use x="1104.798828" xlink:href="#DejaVuSans-20"/>
      <use x="1136.585938" xlink:href="#DejaVuSans-31"/>
      <use x="1200.208984" xlink:href="#DejaVuSans-32"/>
      <use x="1263.832031" xlink:href="#DejaVuSans-2b"/>
      <use x="1347.621094" xlink:href="#DejaVuSans-20"/>
      <use x="1379.408203" xlink:href="#DejaVuSans-70"/>
      <use x="1442.884766" xlink:href="#DejaVuSans-6f"/>
      <use x="1504.066406" xlink:href="#DejaVuSans-70"/>
      <use x="1567.542969" xlink:href="#DejaVuSans-75"/>
      <use x="1630.921875" xlink:href="#DejaVuSans-6c"/>
      <use x="1658.705078" xlink:href="#DejaVuSans-61"/>
      <use x="1719.984375" xlink:href="#DejaVuSans-74"/>
      <use x="1759.193359" xlink:href="#DejaVuSans-69"/>
      <use x="1786.976562" xlink:href="#DejaVuSans-6f"/>
      <use x="1848.158203" xlink:href="#DejaVuSans-6e"/>
      <use x="1911.537109" xlink:href="#DejaVuSans-20"/>
      <use x="1943.324219" xlink:href="#DejaVuSans-2f"/>
      <use x="1977.015625" xlink:href="#DejaVuSans-20"/>
      <use x="2008.802734" xlink:href="#DejaVuSans-77"/>
      <use x="2090.589844" xlink:href="#DejaVuSans-65"/>
      <use x="2152.113281" xlink:href="#DejaVuSans-65"/>
      <use x="2213.636719" xlink:href="#DejaVuSans-6b"/>
      <use x="2271.546875" xlink:href="#DejaVuSans-29"/>
     </g>
    </g>
   </g>
   <g id="line2d_51">
    <path clip-path="url(#p4c9b8b38cb)" d="M -1 366.760643 
L 0.931343 368.111187 
L 3.152239 369.09316 
L 5.373134 366.587931 
L 7.59403 363.377446 
L 9.814925 361.559369 
L 12.035821 360.313664 
L 14.256716 357.670454 
L 16.477612 349.438909 
L 18.698507 337.867185 
L 20.919403 333.000763 
L 23.140299 332.780607 
L 25.361194 332.044929 
L 29.802985 330.325668 
L 32.023881 328.789613 
L 34.244776 326.635806 
L 36.465672 324.072627 
L 38.686567 317.099806 
L 40.907463 304.476808 
L 43.128358 293.726328 
L 45.349254 289.560833 
L 47.570149 293.685357 
L 49.791045 302.018686 
L 52.01194 304.437953 
L 54.232836 305.160491 
L 56.453731 310.573123 
L 58.674627 315.05597 
L 60.895522 316.145379 
L 63.116418 315.839857 
L 65.337313 314.894706 
L 67.558209 313.467904 
L 72 310.194495 
L 74.220896 309.106195 
L 76.441791 308.520884 
L 87.546269 306.20572 
L 89.767164 305.485556 
L 91.98806 304.595581 
L 94.208955 303.584396 
L 96.429851 302.278076 
L 98.650746 300.492653 
L 103.092537 296.319398 
L 105.313433 294.521705 
L 116.41791 287.641327 
L 118.638806 285.865452 
L 123.080597 281.306951 
L 127.522388 277.655414 
L 134.185075 270.474819 
L 136.40597 268.849578 
L 140.847761 267.886134 
L 151.952239 261.421348 
L 154.173134 260.012502 
L 156.39403 258.853946 
L 158.614925 258.103987 
L 163.056716 256.14771 
L 165.277612 255.534994 
L 174.161194 254.259825 
L 176.38209 254.261692 
L 178.602985 254.851245 
L 185.265672 257.323621 
L 189.707463 259.074676 
L 191.928358 259.595178 
L 194.149254 259.368751 
L 196.370149 258.375292 
L 200.81194 256.125184 
L 203.032836 254.461421 
L 205.253731 252.365047 
L 207.474627 250.905352 
L 211.916418 249.561282 
L 214.137313 247.887896 
L 216.358209 245.736885 
L 220.8 241.926902 
L 223.020896 239.581174 
L 225.241791 236.865766 
L 227.462687 234.492658 
L 229.683582 233.136238 
L 236.346269 230.715006 
L 240.78806 228.731904 
L 243.008955 227.2497 
L 245.229851 225.474449 
L 247.450746 224.49016 
L 249.671642 225.349466 
L 251.892537 226.595269 
L 254.113433 224.350858 
L 258.555224 214.24289 
L 260.776119 208.886579 
L 262.997015 202.429481 
L 265.21791 193.931392 
L 267.438806 184.52303 
L 269.659701 178.236277 
L 271.880597 175.319895 
L 274.101493 174.350174 
L 276.322388 175.016005 
L 278.543284 176.493865 
L 280.764179 178.161168 
L 282.985075 181.027049 
L 287.426866 189.805949 
L 289.647761 193.087887 
L 294.089552 197.454979 
L 296.310448 201.010492 
L 298.531343 205.787881 
L 302.973134 216.628128 
L 307.414925 228.440927 
L 309.635821 233.351298 
L 311.856716 236.295371 
L 311.856716 236.295371 
" style="fill:none;stroke:#1f77b4;stroke-linecap:square;stroke-width:1.5;"/>
   </g>
   <g id="line2d_52">
    <path clip-path="url(#p4c9b8b38cb)" d="M -1 358.906852 
L 0.931343 360.503938 
L 3.152239 363.221538 
L 5.373134 362.298099 
L 7.59403 359.344978 
L 9.814925 357.643994 
L 12.035821 356.95981 
L 14.256716 355.194121 
L 16.477612 348.230896 
L 18.698507 337.805962 
L 20.919403 333.192258 
L 23.140299 333.429014 
L 27.58209 335.122101 
L 29.802985 335.60121 
L 32.023881 335.326381 
L 36.465672 334.253832 
L 38.686567 329.499807 
L 40.907463 318.651318 
L 43.128358 309.502809 
L 45.349254 306.315175 
L 47.570149 309.765358 
L 49.791045 316.234197 
L 52.01194 317.502768 
L 54.232836 317.843721 
L 56.453731 323.004565 
L 58.674627 326.987909 
L 60.895522 327.560009 
L 63.116418 326.655363 
L 65.337313 324.510146 
L 67.558209 321.242108 
L 69.779104 317.290399 
L 72 313.055478 
L 74.220896 309.356446 
L 76.441791 306.598883 
L 78.662687 304.395521 
L 80.883582 302.726059 
L 83.104478 301.288496 
L 85.325373 299.595464 
L 94.208955 293.835087 
L 96.429851 292.637607 
L 98.650746 290.085416 
L 100.871642 286.74067 
L 103.092537 284.069497 
L 105.313433 281.928812 
L 107.534328 280.156241 
L 109.755224 278.219931 
L 111.976119 275.918289 
L 114.197015 274.707112 
L 116.41791 274.61464 
L 118.638806 273.470268 
L 120.859701 270.847948 
L 123.080597 268.050028 
L 125.301493 266.473393 
L 127.522388 264.710153 
L 129.743284 261.738078 
L 131.964179 258.409004 
L 134.185075 255.44916 
L 136.40597 254.19333 
L 138.626866 254.774565 
L 140.847761 254.465464 
L 143.068657 253.381532 
L 145.289552 252.679622 
L 149.731343 250.712894 
L 151.952239 249.844112 
L 154.173134 248.762671 
L 156.39403 247.878537 
L 158.614925 246.845326 
L 160.835821 245.286298 
L 165.277612 241.439831 
L 167.498507 240.175568 
L 169.719403 239.188813 
L 171.940299 236.730203 
L 174.161194 233.334957 
L 176.38209 231.547657 
L 178.602985 231.556156 
L 180.823881 231.914435 
L 185.265672 230.865696 
L 187.486567 232.003144 
L 189.707463 233.386249 
L 191.928358 232.498747 
L 194.149254 229.44873 
L 196.370149 224.722082 
L 198.591045 219.685791 
L 200.81194 215.511322 
L 203.032836 210.665237 
L 205.253731 204.586462 
L 207.474627 199.193332 
L 211.916418 190.680878 
L 214.137313 185.159502 
L 216.358209 179.983873 
L 218.579104 176.142404 
L 220.8 172.022857 
L 227.462687 156.105329 
L 229.683582 152.344905 
L 231.904478 150.099806 
L 234.125373 148.730769 
L 236.346269 147.54509 
L 238.567164 147.168522 
L 240.78806 148.015696 
L 243.008955 149.769062 
L 245.229851 152.914957 
L 247.450746 158.061771 
L 249.671642 167.519584 
L 251.892537 178.581818 
L 254.113433 181.355924 
L 256.334328 177.632728 
L 258.555224 173.509681 
L 260.776119 168.968399 
L 262.997015 161.560689 
L 265.21791 148.161406 
L 267.438806 131.76844 
L 269.659701 122.834445 
L 271.880597 121.429313 
L 274.101493 124.023185 
L 276.322388 129.658421 
L 278.543284 135.969881 
L 280.764179 142.77632 
L 282.985075 153.920581 
L 287.426866 184.528497 
L 289.647761 197.040022 
L 291.868657 206.335905 
L 294.089552 213.975788 
L 296.310448 223.129045 
L 298.531343 233.840799 
L 300.752239 243.664805 
L 302.973134 251.951031 
L 305.19403 259.45061 
L 307.414925 266.237806 
L 309.635821 271.158901 
L 311.856716 273.626326 
L 311.856716 273.626326 
" style="fill:none;stroke:#ff7f0e;stroke-linecap:square;stroke-width:1.5;"/>
   </g>
   <g id="line2d_53">
    <path clip-path="url(#p4c9b8b38cb)" d="M -1 372.12272 
L 0.931343 372.907152 
L 3.152239 372.535429 
L 5.373134 369.837435 
L 9.814925 363.448734 
L 12.035821 360.480483 
L 14.256716 356.328953 
L 16.477612 346.760833 
L 18.698507 333.325258 
L 20.919403 325.89454 
L 23.140299 323.215304 
L 27.58209 315.081181 
L 29.802985 312.63689 
L 32.023881 311.403695 
L 34.244776 310.71412 
L 36.465672 308.32364 
L 38.686567 301.520934 
L 40.907463 292.197651 
L 43.128358 284.939001 
L 45.349254 281.991402 
L 47.570149 285.060094 
L 49.791045 291.033398 
L 52.01194 292.900174 
L 54.232836 294.525813 
L 56.453731 299.915355 
L 58.674627 304.611798 
L 60.895522 306.812099 
L 63.116418 307.756925 
L 67.558209 309.339007 
L 74.220896 310.584276 
L 78.662687 311.590489 
L 80.883582 311.940637 
L 85.325373 312.261169 
L 87.546269 311.948861 
L 89.767164 310.906721 
L 94.208955 308.404534 
L 96.429851 306.856153 
L 98.650746 304.303895 
L 100.871642 300.496613 
L 103.092537 297.477933 
L 105.313433 296.201519 
L 109.755224 295.022394 
L 111.976119 294.352813 
L 114.197015 294.388352 
L 116.41791 295.012339 
L 118.638806 294.392825 
L 120.859701 292.167985 
L 127.522388 283.923283 
L 131.964179 277.742359 
L 134.185075 275.062392 
L 136.40597 273.052249 
L 138.626866 272.404654 
L 140.847761 272.272394 
L 143.068657 270.60266 
L 147.510448 265.756935 
L 151.952239 260.446614 
L 154.173134 257.546544 
L 156.39403 255.133261 
L 158.614925 254.265475 
L 160.835821 253.960019 
L 163.056716 254.551432 
L 165.277612 256.476286 
L 167.498507 257.658399 
L 169.719403 257.502469 
L 171.940299 258.401587 
L 174.161194 260.283729 
L 176.38209 261.327393 
L 180.823881 262.281838 
L 183.044776 264.104274 
L 185.265672 267.491237 
L 187.486567 270.064991 
L 189.707463 272.054602 
L 191.928358 275.005245 
L 194.149254 277.74671 
L 196.370149 279.94903 
L 198.591045 282.310276 
L 200.81194 284.140971 
L 203.032836 284.992727 
L 205.253731 285.560585 
L 207.474627 286.511557 
L 209.695522 287.810715 
L 211.916418 288.553873 
L 214.137313 287.903172 
L 216.358209 286.346847 
L 218.579104 284.474109 
L 220.8 282.27938 
L 223.020896 279.407379 
L 225.241791 275.823481 
L 227.462687 273.337854 
L 229.683582 273.050745 
L 231.904478 272.196459 
L 234.125373 269.432549 
L 240.78806 258.124567 
L 243.008955 251.969695 
L 245.229851 242.957301 
L 247.450746 234.492599 
L 249.671642 227.419634 
L 251.892537 219.580593 
L 254.113433 210.280855 
L 262.997015 171.442987 
L 265.21791 163.119459 
L 267.438806 156.247456 
L 271.880597 143.47686 
L 274.101493 137.720104 
L 276.322388 133.168348 
L 278.543284 129.68425 
L 280.764179 125.660879 
L 285.20597 114.514519 
L 287.426866 109.58803 
L 289.647761 105.014663 
L 291.868657 101.485454 
L 294.089552 100.327153 
L 296.310448 102.120877 
L 298.531343 106.813551 
L 300.752239 114.581178 
L 302.973134 124.862139 
L 307.414925 148.365814 
L 309.635821 158.490384 
L 311.856716 165.071852 
L 311.856716 165.071852 
" style="fill:none;stroke:#2ca02c;stroke-linecap:square;stroke-width:1.5;"/>
   </g>
   <g id="line2d_54">
    <path clip-path="url(#p4c9b8b38cb)" d="M -1 375.553475 
L 0.931343 376.745708 
L 3.152239 376.318547 
L 5.373134 371.628492 
L 7.59403 367.894482 
L 9.814925 366.982206 
L 12.035821 366.705831 
L 14.256716 364.318797 
L 16.477612 354.23106 
L 18.698507 340.286711 
L 20.919403 336.260003 
L 23.140299 338.049041 
L 25.361194 338.793037 
L 27.58209 338.781242 
L 29.802985 337.765602 
L 32.023881 333.197346 
L 34.244776 325.476823 
L 36.465672 318.454074 
L 38.686567 305.877388 
L 40.907463 284.058241 
L 43.128358 265.208446 
L 45.349254 257.373218 
L 47.570149 265.23944 
L 49.791045 282.29548 
L 52.01194 288.28538 
L 54.232836 289.023975 
L 56.453731 296.589359 
L 58.674627 303.207977 
L 60.895522 305.071657 
L 63.116418 305.004696 
L 65.337313 304.459977 
L 67.558209 304.05939 
L 69.779104 303.982641 
L 74.220896 304.304244 
L 76.441791 304.60132 
L 78.662687 305.386238 
L 83.104478 308.136059 
L 87.546269 310.888524 
L 89.767164 311.89037 
L 91.98806 312.616619 
L 96.429851 313.143429 
L 98.650746 315.238649 
L 100.871642 318.747466 
L 103.092537 320.100317 
L 105.313433 319.552331 
L 107.534328 318.779824 
L 109.755224 317.354532 
L 111.976119 314.137938 
L 114.197015 307.982877 
L 116.41791 299.757003 
L 118.638806 293.573833 
L 120.859701 290.1792 
L 123.080597 288.440912 
L 125.301493 287.523145 
L 127.522388 286.774737 
L 129.743284 286.433465 
L 134.185075 287.197313 
L 136.40597 287.096766 
L 138.626866 286.584694 
L 140.847761 285.809678 
L 143.068657 284.856892 
L 145.289552 284.38638 
L 147.510448 284.453997 
L 149.731343 284.975267 
L 151.952239 285.645109 
L 154.173134 286.098332 
L 158.614925 286.460508 
L 160.835821 285.861383 
L 163.056716 284.099396 
L 165.277612 281.852029 
L 167.498507 280.095147 
L 169.719403 278.879751 
L 171.940299 278.193172 
L 174.161194 277.883846 
L 176.38209 277.811847 
L 180.823881 278.298433 
L 183.044776 278.130178 
L 185.265672 277.42959 
L 189.707463 275.156439 
L 191.928358 274.430392 
L 194.149254 274.188407 
L 196.370149 274.144617 
L 198.591045 273.74023 
L 200.81194 273.159968 
L 203.032836 272.795693 
L 205.253731 272.724794 
L 207.474627 273.141006 
L 209.695522 273.952653 
L 214.137313 276.036608 
L 216.358209 276.708769 
L 218.579104 276.612481 
L 220.8 276.247412 
L 223.020896 276.462272 
L 225.241791 276.898882 
L 227.462687 277.084496 
L 231.904478 277.157644 
L 234.125373 277.410961 
L 236.346269 277.901389 
L 238.567164 277.827586 
L 240.78806 277.20018 
L 243.008955 276.188296 
L 245.229851 274.975756 
L 247.450746 274.095033 
L 249.671642 274.574508 
L 251.892537 275.831777 
L 254.113433 274.415704 
L 256.334328 269.996405 
L 260.776119 260.360945 
L 262.997015 254.854354 
L 265.21791 246.995647 
L 267.438806 237.976625 
L 269.659701 232.429531 
L 271.880597 231.189512 
L 274.101493 231.487173 
L 276.322388 232.518088 
L 278.543284 234.85075 
L 280.764179 238.246573 
L 282.985075 241.872301 
L 285.20597 244.920724 
L 287.426866 246.993811 
L 289.647761 248.466441 
L 291.868657 249.283433 
L 294.089552 249.722081 
L 296.310448 250.316193 
L 298.531343 251.26148 
L 300.752239 252.571625 
L 302.973134 254.064217 
L 305.19403 256.095551 
L 307.414925 259.136975 
L 309.635821 261.892384 
L 311.856716 263.47512 
L 311.856716 263.47512 
" style="fill:none;stroke:#d62728;stroke-linecap:square;stroke-width:1.5;"/>
   </g>
   <g id="line2d_55">
    <path clip-path="url(#p4c9b8b38cb)" d="M -1 364.855138 
L 0.931343 364.844578 
L 3.152239 363.945823 
L 5.373134 362.287519 
L 7.59403 360.802969 
L 9.814925 359.546946 
L 12.035821 358.108457 
L 14.256716 356.20525 
L 16.477612 354.553197 
L 18.698507 353.219579 
L 20.919403 351.744947 
L 23.140299 349.963737 
L 25.361194 348.371562 
L 29.802985 346.059329 
L 32.023881 345.329334 
L 34.244776 345.1027 
L 36.465672 344.738309 
L 38.686567 343.858741 
L 40.907463 341.701647 
L 43.128358 339.315632 
L 47.570149 338.975 
L 52.01194 335.841175 
L 54.232836 334.940053 
L 56.453731 334.830086 
L 58.674627 335.338481 
L 60.895522 335.628743 
L 63.116418 335.254022 
L 65.337313 333.746741 
L 69.779104 328.391256 
L 72 326.343597 
L 74.220896 324.925357 
L 80.883582 321.42683 
L 83.104478 320.05144 
L 85.325373 318.258491 
L 87.546269 316.238749 
L 89.767164 314.378302 
L 91.98806 312.772609 
L 94.208955 310.52508 
L 96.429851 307.299527 
L 98.650746 304.372735 
L 100.871642 302.234974 
L 103.092537 299.714804 
L 105.313433 297.024885 
L 107.534328 295.056296 
L 109.755224 293.767896 
L 111.976119 292.721518 
L 114.197015 291.498022 
L 120.859701 286.487749 
L 129.743284 280.220303 
L 134.185075 276.132259 
L 136.40597 274.375364 
L 140.847761 271.483869 
L 143.068657 269.722838 
L 145.289552 268.12795 
L 149.731343 265.168639 
L 151.952239 263.241063 
L 154.173134 261.135783 
L 156.39403 259.843012 
L 158.614925 259.205096 
L 160.835821 258.373206 
L 163.056716 257.756516 
L 165.277612 257.358684 
L 167.498507 257.35683 
L 169.719403 258.816477 
L 171.940299 261.979828 
L 176.38209 270.081937 
L 178.602985 273.251345 
L 180.823881 275.980308 
L 183.044776 278.316662 
L 185.265672 279.475355 
L 187.486567 278.714162 
L 191.928358 273.671554 
L 196.370149 269.783339 
L 198.591045 268.267757 
L 200.81194 267.12097 
L 203.032836 266.354341 
L 205.253731 266.79233 
L 207.474627 268.266485 
L 211.916418 271.868261 
L 214.137313 272.890877 
L 218.579104 272.757124 
L 220.8 273.613295 
L 225.241791 276.142602 
L 227.462687 277.26715 
L 229.683582 278.675668 
L 231.904478 281.088177 
L 236.346269 288.401127 
L 238.567164 289.019673 
L 240.78806 287.37632 
L 245.229851 283.359024 
L 247.450746 280.259879 
L 251.892537 271.041412 
L 254.113433 268.922165 
L 256.334328 268.825404 
L 258.555224 268.856055 
L 265.21791 267.822226 
L 267.438806 266.584877 
L 269.659701 263.619616 
L 271.880597 259.853993 
L 274.101493 256.976591 
L 276.322388 255.26067 
L 278.543284 254.269179 
L 280.764179 253.839778 
L 282.985075 254.557976 
L 287.426866 258.952572 
L 289.647761 259.816423 
L 294.089552 259.310675 
L 296.310448 258.84299 
L 300.752239 255.525194 
L 302.973134 254.784226 
L 305.19403 254.315222 
L 309.635821 252.843205 
L 311.856716 252.437165 
L 311.856716 252.437165 
" style="fill:none;stroke:#9467bd;stroke-linecap:square;stroke-width:1.5;"/>
   </g>
   <g id="line2d_56">
    <path clip-path="url(#p4c9b8b38cb)" d="M -1 368.223138 
L 0.931343 370.99586 
L 3.152239 373.211581 
L 7.59403 365.681602 
L 9.814925 364.681008 
L 12.035821 364.426055 
L 14.256716 362.417878 
L 16.477612 354.108338 
L 18.698507 343.449309 
L 20.919403 341.998187 
L 23.140299 344.715486 
L 25.361194 345.61534 
L 27.58209 345.640193 
L 29.802985 344.935387 
L 32.023881 341.759951 
L 36.465672 331.209488 
L 38.686567 321.092619 
L 40.907463 303.162116 
L 43.128358 287.581101 
L 45.349254 281.117427 
L 47.570149 286.566479 
L 49.791045 298.39735 
L 52.01194 301.337811 
L 54.232836 300.361868 
L 56.453731 305.287288 
L 58.674627 309.672934 
L 60.895522 310.056161 
L 63.116418 308.848944 
L 65.337313 307.354944 
L 67.558209 306.159759 
L 69.779104 305.461492 
L 72 304.955884 
L 74.220896 304.679722 
L 76.441791 304.863356 
L 78.662687 305.370373 
L 80.883582 305.999748 
L 83.104478 306.080907 
L 91.98806 303.546622 
L 94.208955 302.297196 
L 96.429851 300.528102 
L 98.650746 299.118462 
L 103.092537 297.625095 
L 105.313433 297.259437 
L 109.755224 298.06062 
L 111.976119 297.895074 
L 114.197015 297.071786 
L 118.638806 294.909149 
L 120.859701 293.409063 
L 123.080597 291.467189 
L 127.522388 287.973894 
L 129.743284 285.542749 
L 131.964179 282.583841 
L 134.185075 279.332753 
L 136.40597 276.958273 
L 140.847761 274.968407 
L 145.289552 271.862759 
L 147.510448 270.936199 
L 149.731343 270.150356 
L 154.173134 267.836129 
L 156.39403 267.098532 
L 158.614925 266.061708 
L 160.835821 264.320884 
L 163.056716 262.171846 
L 165.277612 260.244809 
L 169.719403 256.957958 
L 171.940299 255.726697 
L 174.161194 255.738453 
L 176.38209 257.127171 
L 183.044776 263.651866 
L 185.265672 266.637824 
L 189.707463 273.223059 
L 191.928358 275.706564 
L 198.591045 280.354232 
L 200.81194 280.371646 
L 203.032836 278.753168 
L 205.253731 276.355517 
L 207.474627 274.982832 
L 209.695522 275.085559 
L 211.916418 275.561506 
L 214.137313 275.364176 
L 216.358209 274.540397 
L 218.579104 273.872657 
L 223.020896 273.670096 
L 225.241791 273.044295 
L 227.462687 271.964967 
L 231.904478 269.019767 
L 234.125373 268.178415 
L 236.346269 268.161518 
L 238.567164 268.449867 
L 240.78806 268.523282 
L 243.008955 268.457925 
L 245.229851 268.780176 
L 247.450746 269.791726 
L 249.671642 272.403731 
L 251.892537 275.696446 
L 254.113433 276.340615 
L 258.555224 273.69466 
L 260.776119 272.110001 
L 262.997015 269.759127 
L 265.21791 265.473736 
L 267.438806 259.768907 
L 269.659701 256.084053 
L 271.880597 254.716824 
L 274.101493 254.270953 
L 276.322388 254.585597 
L 278.543284 255.458913 
L 280.764179 256.094548 
L 282.985075 256.235499 
L 285.20597 256.663295 
L 287.426866 257.310893 
L 289.647761 257.52447 
L 291.868657 256.895482 
L 294.089552 255.645066 
L 296.310448 254.746128 
L 298.531343 254.483303 
L 300.752239 253.666644 
L 302.973134 251.704647 
L 307.414925 246.742234 
L 309.635821 245.181373 
L 311.856716 244.533239 
L 311.856716 244.533239 
" style="fill:none;stroke:#8c564b;stroke-linecap:square;stroke-width:1.5;"/>
   </g>
   <g id="line2d_57">
    <path clip-path="url(#p4c9b8b38cb)" d="M -1 364.616312 
L 0.931343 368.58708 
L 3.152239 374.195634 
L 5.373134 374.432455 
L 7.59403 372.565664 
L 9.814925 371.971378 
L 12.035821 371.499038 
L 14.256716 366.420508 
L 16.477612 344.09597 
L 18.698507 309.208663 
L 20.919403 291.21338 
L 23.140299 289.117723 
L 27.58209 289.528176 
L 29.802985 290.84541 
L 32.023881 296.736084 
L 34.244776 306.281577 
L 36.465672 310.000552 
L 38.686567 301.021917 
L 40.907463 281.466412 
L 43.128358 263.978255 
L 45.349254 256.8125 
L 47.570149 264.794261 
L 49.791045 282.371122 
L 52.01194 292.213211 
L 54.232836 298.449609 
L 56.453731 309.106594 
L 58.674627 312.545565 
L 60.895522 305.124684 
L 63.116418 299.484742 
L 65.337313 297.988774 
L 67.558209 294.568836 
L 69.779104 289.74303 
L 72 287.49645 
L 74.220896 292.064547 
L 76.441791 303.090703 
L 78.662687 309.59422 
L 80.883582 309.108152 
L 83.104478 307.322949 
L 85.325373 305.903943 
L 87.546269 304.838364 
L 89.767164 304.494679 
L 91.98806 304.530793 
L 94.208955 303.9759 
L 96.429851 302.227867 
L 98.650746 299.447803 
L 100.871642 295.83012 
L 103.092537 291.52448 
L 107.534328 282.163385 
L 109.755224 280.071209 
L 111.976119 281.130892 
L 114.197015 282.02159 
L 116.41791 282.697895 
L 118.638806 283.756225 
L 120.859701 284.079091 
L 123.080597 282.355455 
L 125.301493 278.731386 
L 127.522388 273.863196 
L 129.743284 268.700139 
L 131.964179 262.162902 
L 134.185075 253.776169 
L 136.40597 246.519101 
L 138.626866 242.685516 
L 140.847761 242.436813 
L 145.289552 245.657606 
L 147.510448 246.769534 
L 149.731343 247.542475 
L 151.952239 247.85033 
L 154.173134 247.4462 
L 160.835821 244.98777 
L 167.498507 239.645243 
L 169.719403 239.264744 
L 171.940299 239.995978 
L 174.161194 239.54663 
L 176.38209 238.011896 
L 178.602985 239.437104 
L 180.823881 244.346436 
L 183.044776 249.924118 
L 185.265672 254.096736 
L 187.486567 257.043391 
L 189.707463 262.757976 
L 191.928358 270.777471 
L 194.149254 275.78446 
L 196.370149 278.169875 
L 198.591045 281.252263 
L 200.81194 285.082865 
L 203.032836 286.833587 
L 207.474627 281.251202 
L 209.695522 283.261447 
L 211.916418 286.379123 
L 214.137313 285.612983 
L 216.358209 280.362776 
L 218.579104 273.751718 
L 220.8 268.734513 
L 223.020896 262.804939 
L 225.241791 254.503959 
L 227.462687 247.449452 
L 229.683582 243.176772 
L 231.904478 241.869842 
L 234.125373 244.302261 
L 236.346269 248.742258 
L 238.567164 252.858055 
L 240.78806 255.720217 
L 243.008955 256.773224 
L 245.229851 260.071921 
L 247.450746 265.206683 
L 249.671642 263.81843 
L 251.892537 254.757385 
L 254.113433 248.025261 
L 256.334328 246.046433 
L 258.555224 244.62199 
L 260.776119 239.902044 
L 262.997015 234.215717 
L 265.21791 235.379424 
L 267.438806 244.018229 
L 269.659701 249.758656 
L 271.880597 250.271943 
L 274.101493 250.479355 
L 278.543284 255.194191 
L 280.764179 255.439971 
L 282.985075 254.802783 
L 285.20597 256.30737 
L 287.426866 260.228111 
L 289.647761 264.969752 
L 291.868657 268.350342 
L 294.089552 270.494876 
L 302.973134 277.274595 
L 305.19403 278.982812 
L 307.414925 279.713145 
L 309.635821 278.629499 
L 311.856716 276.640041 
L 311.856716 276.640041 
" style="fill:none;stroke:#e377c2;stroke-linecap:square;stroke-width:1.5;"/>
   </g>
   <g id="line2d_58">
    <path clip-path="url(#p4c9b8b38cb)" d="M -1 348.440825 
L 3.152239 363.003966 
L 5.373134 359.616723 
L 7.59403 353.925918 
L 9.814925 352.349288 
L 12.035821 351.939321 
L 14.256716 348.709056 
L 16.477612 335.352512 
L 18.698507 318.266304 
L 20.919403 316.03945 
L 23.140299 320.477581 
L 25.361194 321.943213 
L 29.802985 322.160178 
L 34.244776 322.804373 
L 36.465672 320.563243 
L 38.686567 308.3869 
L 40.907463 284.69197 
L 43.128358 263.982462 
L 45.349254 255.417655 
L 47.570149 259.063819 
L 49.791045 269.140359 
L 52.01194 273.473657 
L 54.232836 278.08718 
L 56.453731 291.128071 
L 58.674627 301.676681 
L 60.895522 305.037584 
L 63.116418 305.758774 
L 65.337313 305.042338 
L 67.558209 302.715935 
L 69.779104 300.975963 
L 72 300.969294 
L 74.220896 301.418118 
L 76.441791 300.014801 
L 78.662687 292.982207 
L 80.883582 281.076551 
L 83.104478 274.194701 
L 85.325373 271.626212 
L 87.546269 268.366729 
L 89.767164 267.50978 
L 91.98806 268.684699 
L 94.208955 268.97597 
L 96.429851 268.286146 
L 98.650746 269.166803 
L 100.871642 273.525414 
L 103.092537 276.175413 
L 105.313433 271.220542 
L 107.534328 264.572109 
L 109.755224 266.783755 
L 111.976119 276.947845 
L 114.197015 281.758653 
L 116.41791 279.655273 
L 118.638806 278.734486 
L 120.859701 280.460185 
L 123.080597 281.754339 
L 125.301493 282.112785 
L 127.522388 283.288963 
L 129.743284 282.857002 
L 131.964179 277.37069 
L 134.185075 267.69393 
L 136.40597 257.504666 
L 138.626866 253.37012 
L 140.847761 253.134346 
L 143.068657 249.67372 
L 145.289552 242.853682 
L 147.510448 233.446637 
L 149.731343 218.983089 
L 151.952239 208.11039 
L 156.39403 199.551827 
L 158.614925 195.902861 
L 160.835821 196.013893 
L 163.056716 198.222696 
L 165.277612 208.745129 
L 167.498507 225.178431 
L 169.719403 235.994694 
L 171.940299 243.024169 
L 174.161194 245.513243 
L 176.38209 237.590907 
L 178.602985 231.97679 
L 180.823881 232.524912 
L 183.044776 229.398456 
L 185.265672 222.257648 
L 187.486567 216.385315 
L 189.707463 216.482992 
L 194.149254 230.231844 
L 196.370149 232.623102 
L 198.591045 232.175025 
L 200.81194 229.592735 
L 203.032836 226.106122 
L 205.253731 223.665264 
L 207.474627 223.166315 
L 209.695522 223.223632 
L 211.916418 222.562504 
L 214.137313 221.723159 
L 216.358209 222.742337 
L 218.579104 225.869011 
L 220.8 227.728707 
L 223.020896 226.813261 
L 225.241791 225.430148 
L 229.683582 223.525138 
L 231.904478 222.120716 
L 234.125373 219.842852 
L 236.346269 218.464595 
L 238.567164 219.530316 
L 240.78806 219.967015 
L 243.008955 216.904963 
L 245.229851 212.017658 
L 247.450746 206.623943 
L 249.671642 203.364194 
L 251.892537 202.715976 
L 254.113433 198.611623 
L 256.334328 190.267935 
L 258.555224 183.279355 
L 260.776119 179.091275 
L 262.997015 175.32466 
L 265.21791 168.520962 
L 267.438806 157.592194 
L 269.659701 148.178272 
L 271.880597 145.369317 
L 274.101493 145.788445 
L 276.322388 142.17422 
L 278.543284 135.305891 
L 280.764179 129.00186 
L 282.985075 125.306594 
L 285.20597 123.317777 
L 287.426866 117.52479 
L 289.647761 107.739987 
L 291.868657 101.036053 
L 294.089552 99.915932 
L 298.531343 103.810662 
L 300.752239 108.447839 
L 302.973134 119.438705 
L 305.19403 136.446633 
L 307.414925 156.516109 
L 309.635821 174.424579 
L 311.856716 185.370567 
L 311.856716 185.370567 
" style="fill:none;stroke:#7f7f7f;stroke-linecap:square;stroke-width:1.5;"/>
   </g>
   <g id="line2d_59">
    <path clip-path="url(#p4c9b8b38cb)" d="M -1 343.001722 
L 0.931343 343.999842 
L 3.152239 342.72451 
L 5.373134 333.279355 
L 7.59403 321.725473 
L 9.814925 317.016589 
L 12.035821 315.533067 
L 14.256716 313.449351 
L 16.477612 308.755834 
L 18.698507 304.816095 
L 20.919403 307.599647 
L 23.140299 308.792006 
L 25.361194 306.236576 
L 29.802985 308.594171 
L 32.023881 303.77778 
L 34.244776 296.065176 
L 36.465672 296.072967 
L 38.686567 298.304298 
L 40.907463 288.495075 
L 43.128358 275.180753 
L 45.349254 270.047011 
L 47.570149 275.523579 
L 49.791045 284.646974 
L 52.01194 284.926651 
L 54.232836 284.868761 
L 56.453731 293.713073 
L 58.674627 300.467536 
L 60.895522 301.178107 
L 63.116418 299.03676 
L 65.337313 294.315518 
L 67.558209 287.783684 
L 69.779104 280.848607 
L 72 275.210204 
L 74.220896 272.615785 
L 76.441791 272.496041 
L 78.662687 274.007676 
L 83.104478 280.244119 
L 85.325373 283.527889 
L 89.767164 293.210852 
L 91.98806 294.803878 
L 94.208955 294.292495 
L 96.429851 294.142972 
L 98.650746 298.087607 
L 100.871642 306.257495 
L 103.092537 309.594806 
L 105.313433 306.406143 
L 107.534328 304.018467 
L 109.755224 305.901881 
L 111.976119 310.542083 
L 114.197015 311.407373 
L 116.41791 306.039123 
L 118.638806 302.117429 
L 120.859701 301.178614 
L 123.080597 299.479866 
L 125.301493 295.944381 
L 127.522388 290.982549 
L 129.743284 287.520307 
L 131.964179 286.493952 
L 134.185075 286.271235 
L 136.40597 286.554501 
L 138.626866 287.158732 
L 140.847761 287.946785 
L 143.068657 289.469458 
L 145.289552 290.331376 
L 147.510448 289.164791 
L 149.731343 286.648532 
L 154.173134 280.153795 
L 156.39403 277.867321 
L 158.614925 276.483378 
L 160.835821 275.817525 
L 163.056716 276.311849 
L 165.277612 277.265189 
L 167.498507 277.875963 
L 169.719403 278.169378 
L 171.940299 277.52638 
L 176.38209 272.784075 
L 178.602985 272.415019 
L 180.823881 274.297383 
L 183.044776 277.682601 
L 185.265672 280.334981 
L 187.486567 280.64358 
L 189.707463 279.742608 
L 191.928358 278.384147 
L 194.149254 276.492161 
L 196.370149 273.360857 
L 198.591045 269.638479 
L 200.81194 267.163826 
L 203.032836 265.781287 
L 205.253731 264.961882 
L 207.474627 265.732504 
L 209.695522 267.855571 
L 211.916418 270.367038 
L 214.137313 271.92273 
L 216.358209 272.221132 
L 218.579104 273.114866 
L 220.8 275.585728 
L 223.020896 277.212258 
L 225.241791 276.486528 
L 229.683582 271.567663 
L 231.904478 270.62773 
L 234.125373 270.775049 
L 236.346269 271.392421 
L 238.567164 272.638342 
L 240.78806 274.691852 
L 243.008955 278.659413 
L 245.229851 283.937169 
L 247.450746 287.067035 
L 249.671642 288.075413 
L 251.892537 288.952484 
L 254.113433 290.495031 
L 256.334328 292.220938 
L 258.555224 292.530857 
L 260.776119 291.110634 
L 262.997015 290.543687 
L 267.438806 292.352862 
L 269.659701 292.376677 
L 271.880597 291.504764 
L 274.101493 291.049425 
L 276.322388 291.901855 
L 278.543284 293.249093 
L 280.764179 293.731096 
L 282.985075 293.607499 
L 285.20597 294.484821 
L 287.426866 296.910165 
L 289.647761 299.871477 
L 291.868657 302.049227 
L 294.089552 303.00317 
L 296.310448 303.814825 
L 302.973134 307.662262 
L 305.19403 308.09343 
L 307.414925 308.296695 
L 311.856716 309.575374 
L 311.856716 309.575374 
" style="fill:none;stroke:#bcbd22;stroke-linecap:square;stroke-width:1.5;"/>
   </g>
   <g id="patch_3">
    <path d="M 72 384.48 
L 72 51.84 
" style="fill:none;stroke:#000000;stroke-linecap:square;stroke-linejoin:miter;stroke-width:0.8;"/>
   </g>
   <g id="patch_4">
    <path d="M 518.4 384.48 
L 518.4 51.84 
" style="fill:none;stroke:#000000;stroke-linecap:square;stroke-linejoin:miter;stroke-width:0.8;"/>
   </g>
   <g id="patch_5">
    <path d="M 72 384.48 
L 518.4 384.48 
" style="fill:none;stroke:#000000;stroke-linecap:square;stroke-linejoin:miter;stroke-width:0.8;"/>
   </g>
   <g id="patch_6">
    <path d="M 72 51.84 
L 518.4 51.84 
" style="fill:none;stroke:#000000;stroke-linecap:square;stroke-linejoin:miter;stroke-width:0.8;"/>
   </g>
   <g id="text_28">
    <!-- Second dose weekly increase by state/territory -->
    <g transform="translate(153.855 45.84)scale(0.12 -0.12)">
     <defs>
      <path d="M 2906 2969 
L 2906 4863 
L 3481 4863 
L 3481 0 
L 2906 0 
L 2906 525 
Q 2725 213 2448 61 
Q 2172 -91 1784 -91 
Q 1150 -91 751 415 
Q 353 922 353 1747 
Q 353 2572 751 3078 
Q 1150 3584 1784 3584 
Q 2172 3584 2448 3432 
Q 2725 3281 2906 2969 
z
M 947 1747 
Q 947 1113 1208 752 
Q 1469 391 1925 391 
Q 2381 391 2643 752 
Q 2906 1113 2906 1747 
Q 2906 2381 2643 2742 
Q 2381 3103 1925 3103 
Q 1469 3103 1208 2742 
Q 947 2381 947 1747 
z
" id="DejaVuSans-64" transform="scale(0.015625)"/>
      <path d="M 2834 3397 
L 2834 2853 
Q 2591 2978 2328 3040 
Q 2066 3103 1784 3103 
Q 1356 3103 1142 2972 
Q 928 2841 928 2578 
Q 928 2378 1081 2264 
Q 1234 2150 1697 2047 
L 1894 2003 
Q 2506 1872 2764 1633 
Q 3022 1394 3022 966 
Q 3022 478 2636 193 
Q 2250 -91 1575 -91 
Q 1294 -91 989 -36 
Q 684 19 347 128 
L 347 722 
Q 666 556 975 473 
Q 1284 391 1588 391 
Q 1994 391 2212 530 
Q 2431 669 2431 922 
Q 2431 1156 2273 1281 
Q 2116 1406 1581 1522 
L 1381 1569 
Q 847 1681 609 1914 
Q 372 2147 372 2553 
Q 372 3047 722 3315 
Q 1072 3584 1716 3584 
Q 2034 3584 2315 3537 
Q 2597 3491 2834 3397 
z
" id="DejaVuSans-73" transform="scale(0.015625)"/>
      <path d="M 2059 -325 
Q 1816 -950 1584 -1140 
Q 1353 -1331 966 -1331 
L 506 -1331 
L 506 -850 
L 844 -850 
Q 1081 -850 1212 -737 
Q 1344 -625 1503 -206 
L 1606 56 
L 191 3500 
L 800 3500 
L 1894 763 
L 2988 3500 
L 3597 3500 
L 2059 -325 
z
" id="DejaVuSans-79" transform="scale(0.015625)"/>
     </defs>
     <use xlink:href="#DejaVuSans-53"/>
     <use x="63.476562" xlink:href="#DejaVuSans-65"/>
     <use x="125" xlink:href="#DejaVuSans-63"/>
     <use x="179.980469" xlink:href="#DejaVuSans-6f"/>
     <use x="241.162109" xlink:href="#DejaVuSans-6e"/>
     <use x="304.541016" xlink:href="#DejaVuSans-64"/>
     <use x="368.017578" xlink:href="#DejaVuSans-20"/>
     <use x="399.804688" xlink:href="#DejaVuSans-64"/>
     <use x="463.28125" xlink:href="#DejaVuSans-6f"/>
     <use x="524.462891" xlink:href="#DejaVuSans-73"/>
     <use x="576.5625" xlink:href="#DejaVuSans-65"/>
     <use x="638.085938" xlink:href="#DejaVuSans-20"/>
     <use x="669.873047" xlink:href="#DejaVuSans-77"/>
     <use x="751.660156" xlink:href="#DejaVuSans-65"/>
     <use x="813.183594" xlink:href="#DejaVuSans-65"/>
     <use x="874.707031" xlink:href="#DejaVuSans-6b"/>
     <use x="932.617188" xlink:href="#DejaVuSans-6c"/>
     <use x="960.400391" xlink:href="#DejaVuSans-79"/>
     <use x="1019.580078" xlink:href="#DejaVuSans-20"/>
     <use x="1051.367188" xlink:href="#DejaVuSans-69"/>
     <use x="1079.150391" xlink:href="#DejaVuSans-6e"/>
     <use x="1142.529297" xlink:href="#DejaVuSans-63"/>
     <use x="1197.509766" xlink:href="#DejaVuSans-72"/>
     <use x="1236.373047" xlink:href="#DejaVuSans-65"/>
     <use x="1297.896484" xlink:href="#DejaVuSans-61"/>
     <use x="1359.175781" xlink:href="#DejaVuSans-73"/>
     <use x="1411.275391" xlink:href="#DejaVuSans-65"/>
     <use x="1472.798828" xlink:href="#DejaVuSans-20"/>
     <use x="1504.585938" xlink:href="#DejaVuSans-62"/>
     <use x="1568.0625" xlink:href="#DejaVuSans-79"/>
     <use x="1627.242188" xlink:href="#DejaVuSans-20"/>
     <use x="1659.029297" xlink:href="#DejaVuSans-73"/>
     <use x="1711.128906" xlink:href="#DejaVuSans-74"/>
     <use x="1750.337891" xlink:href="#DejaVuSans-61"/>
     <use x="1811.617188" xlink:href="#DejaVuSans-74"/>
     <use x="1850.826172" xlink:href="#DejaVuSans-65"/>
     <use x="1912.349609" xlink:href="#DejaVuSans-2f"/>
     <use x="1946.041016" xlink:href="#DejaVuSans-74"/>
     <use x="1985.25" xlink:href="#DejaVuSans-65"/>
     <use x="2046.773438" xlink:href="#DejaVuSans-72"/>
     <use x="2086.136719" xlink:href="#DejaVuSans-72"/>
     <use x="2127.25" xlink:href="#DejaVuSans-69"/>
     <use x="2155.033203" xlink:href="#DejaVuSans-74"/>
     <use x="2194.242188" xlink:href="#DejaVuSans-6f"/>
     <use x="2255.423828" xlink:href="#DejaVuSans-72"/>
     <use x="2296.537109" xlink:href="#DejaVuSans-79"/>
    </g>
   </g>
   <g id="legend_1">
    <g id="patch_7">
     <path d="M 398.4975 163.9225 
L 512.8 163.9225 
Q 514.4 163.9225 514.4 162.3225 
L 514.4 57.44 
Q 514.4 55.84 512.8 55.84 
L 398.4975 55.84 
Q 396.8975 55.84 396.8975 57.44 
L 396.8975 162.3225 
Q 396.8975 163.9225 398.4975 163.9225 
z
" style="fill:#ffffff;opacity:0.8;stroke:#cccccc;stroke-linejoin:miter;"/>
    </g>
    <g id="line2d_60">
     <path d="M 400.0975 62.31875 
L 416.0975 62.31875 
" style="fill:none;stroke:#1f77b4;stroke-linecap:square;stroke-width:1.5;"/>
    </g>
    <g id="line2d_61"/>
    <g id="text_29">
     <!-- National (4.5 %/week) -->
     <g transform="translate(422.4975 65.11875)scale(0.08 -0.08)">
      <defs>
       <path d="M 684 794 
L 1344 794 
L 1344 0 
L 684 0 
L 684 794 
z
" id="DejaVuSans-2e" transform="scale(0.015625)"/>
      </defs>
      <use xlink:href="#DejaVuSans-4e"/>
      <use x="74.804688" xlink:href="#DejaVuSans-61"/>
      <use x="136.083984" xlink:href="#DejaVuSans-74"/>
      <use x="175.292969" xlink:href="#DejaVuSans-69"/>
      <use x="203.076172" xlink:href="#DejaVuSans-6f"/>
      <use x="264.257812" xlink:href="#DejaVuSans-6e"/>
      <use x="327.636719" xlink:href="#DejaVuSans-61"/>
      <use x="388.916016" xlink:href="#DejaVuSans-6c"/>
      <use x="416.699219" xlink:href="#DejaVuSans-20"/>
      <use x="448.486328" xlink:href="#DejaVuSans-28"/>
      <use x="487.5" xlink:href="#DejaVuSans-34"/>
      <use x="551.123047" xlink:href="#DejaVuSans-2e"/>
      <use x="582.910156" xlink:href="#DejaVuSans-35"/>
      <use x="646.533203" xlink:href="#DejaVuSans-20"/>
      <use x="678.320312" xlink:href="#DejaVuSans-25"/>
      <use x="773.339844" xlink:href="#DejaVuSans-2f"/>
      <use x="807.03125" xlink:href="#DejaVuSans-77"/>
      <use x="888.818359" xlink:href="#DejaVuSans-65"/>
      <use x="950.341797" xlink:href="#DejaVuSans-65"/>
      <use x="1011.865234" xlink:href="#DejaVuSans-6b"/>
      <use x="1069.775391" xlink:href="#DejaVuSans-29"/>
     </g>
    </g>
    <g id="line2d_62">
     <path d="M 400.0975 74.06125 
L 416.0975 74.06125 
" style="fill:none;stroke:#ff7f0e;stroke-linecap:square;stroke-width:1.5;"/>
    </g>
    <g id="line2d_63"/>
    <g id="text_30">
     <!-- NSW (3.3 %/week) -->
     <g transform="translate(422.4975 76.86125)scale(0.08 -0.08)">
      <defs>
       <path d="M 213 4666 
L 850 4666 
L 1831 722 
L 2809 4666 
L 3519 4666 
L 4500 722 
L 5478 4666 
L 6119 4666 
L 4947 0 
L 4153 0 
L 3169 4050 
L 2175 0 
L 1381 0 
L 213 4666 
z
" id="DejaVuSans-57" transform="scale(0.015625)"/>
      </defs>
      <use xlink:href="#DejaVuSans-4e"/>
      <use x="74.804688" xlink:href="#DejaVuSans-53"/>
      <use x="138.28125" xlink:href="#DejaVuSans-57"/>
      <use x="237.158203" xlink:href="#DejaVuSans-20"/>
      <use x="268.945312" xlink:href="#DejaVuSans-28"/>
      <use x="307.958984" xlink:href="#DejaVuSans-33"/>
      <use x="371.582031" xlink:href="#DejaVuSans-2e"/>
      <use x="403.369141" xlink:href="#DejaVuSans-33"/>
      <use x="466.992188" xlink:href="#DejaVuSans-20"/>
      <use x="498.779297" xlink:href="#DejaVuSans-25"/>
      <use x="593.798828" xlink:href="#DejaVuSans-2f"/>
      <use x="627.490234" xlink:href="#DejaVuSans-77"/>
      <use x="709.277344" xlink:href="#DejaVuSans-65"/>
      <use x="770.800781" xlink:href="#DejaVuSans-65"/>
      <use x="832.324219" xlink:href="#DejaVuSans-6b"/>
      <use x="890.234375" xlink:href="#DejaVuSans-29"/>
     </g>
    </g>
    <g id="line2d_64">
     <path d="M 400.0975 85.80375 
L 416.0975 85.80375 
" style="fill:none;stroke:#2ca02c;stroke-linecap:square;stroke-width:1.5;"/>
    </g>
    <g id="line2d_65"/>
    <g id="text_31">
     <!-- VIC (6.6 %/week) -->
     <g transform="translate(422.4975 88.60375)scale(0.08 -0.08)">
      <defs>
       <path d="M 628 4666 
L 1259 4666 
L 1259 0 
L 628 0 
L 628 4666 
z
" id="DejaVuSans-49" transform="scale(0.015625)"/>
       <path d="M 4122 4306 
L 4122 3641 
Q 3803 3938 3442 4084 
Q 3081 4231 2675 4231 
Q 1875 4231 1450 3742 
Q 1025 3253 1025 2328 
Q 1025 1406 1450 917 
Q 1875 428 2675 428 
Q 3081 428 3442 575 
Q 3803 722 4122 1019 
L 4122 359 
Q 3791 134 3420 21 
Q 3050 -91 2638 -91 
Q 1578 -91 968 557 
Q 359 1206 359 2328 
Q 359 3453 968 4101 
Q 1578 4750 2638 4750 
Q 3056 4750 3426 4639 
Q 3797 4528 4122 4306 
z
" id="DejaVuSans-43" transform="scale(0.015625)"/>
      </defs>
      <use xlink:href="#DejaVuSans-56"/>
      <use x="68.408203" xlink:href="#DejaVuSans-49"/>
      <use x="97.900391" xlink:href="#DejaVuSans-43"/>
      <use x="167.724609" xlink:href="#DejaVuSans-20"/>
      <use x="199.511719" xlink:href="#DejaVuSans-28"/>
      <use x="238.525391" xlink:href="#DejaVuSans-36"/>
      <use x="302.148438" xlink:href="#DejaVuSans-2e"/>
      <use x="333.935547" xlink:href="#DejaVuSans-36"/>
      <use x="397.558594" xlink:href="#DejaVuSans-20"/>
      <use x="429.345703" xlink:href="#DejaVuSans-25"/>
      <use x="524.365234" xlink:href="#DejaVuSans-2f"/>
      <use x="558.056641" xlink:href="#DejaVuSans-77"/>
      <use x="639.84375" xlink:href="#DejaVuSans-65"/>
      <use x="701.367188" xlink:href="#DejaVuSans-65"/>
      <use x="762.890625" xlink:href="#DejaVuSans-6b"/>
      <use x="820.800781" xlink:href="#DejaVuSans-29"/>
     </g>
    </g>
    <g id="line2d_66">
     <path d="M 400.0975 97.54625 
L 416.0975 97.54625 
" style="fill:none;stroke:#d62728;stroke-linecap:square;stroke-width:1.5;"/>
    </g>
    <g id="line2d_67"/>
    <g id="text_32">
     <!-- QLD (3.6 %/week) -->
     <g transform="translate(422.4975 100.34625)scale(0.08 -0.08)">
      <defs>
       <path d="M 2522 4238 
Q 1834 4238 1429 3725 
Q 1025 3213 1025 2328 
Q 1025 1447 1429 934 
Q 1834 422 2522 422 
Q 3209 422 3611 934 
Q 4013 1447 4013 2328 
Q 4013 3213 3611 3725 
Q 3209 4238 2522 4238 
z
M 3406 84 
L 4238 -825 
L 3475 -825 
L 2784 -78 
Q 2681 -84 2626 -87 
Q 2572 -91 2522 -91 
Q 1538 -91 948 567 
Q 359 1225 359 2328 
Q 359 3434 948 4092 
Q 1538 4750 2522 4750 
Q 3503 4750 4090 4092 
Q 4678 3434 4678 2328 
Q 4678 1516 4351 937 
Q 4025 359 3406 84 
z
" id="DejaVuSans-51" transform="scale(0.015625)"/>
       <path d="M 628 4666 
L 1259 4666 
L 1259 531 
L 3531 531 
L 3531 0 
L 628 0 
L 628 4666 
z
" id="DejaVuSans-4c" transform="scale(0.015625)"/>
      </defs>
      <use xlink:href="#DejaVuSans-51"/>
      <use x="78.710938" xlink:href="#DejaVuSans-4c"/>
      <use x="134.423828" xlink:href="#DejaVuSans-44"/>
      <use x="211.425781" xlink:href="#DejaVuSans-20"/>
      <use x="243.212891" xlink:href="#DejaVuSans-28"/>
      <use x="282.226562" xlink:href="#DejaVuSans-33"/>
      <use x="345.849609" xlink:href="#DejaVuSans-2e"/>
      <use x="377.636719" xlink:href="#DejaVuSans-36"/>
      <use x="441.259766" xlink:href="#DejaVuSans-20"/>
      <use x="473.046875" xlink:href="#DejaVuSans-25"/>
      <use x="568.066406" xlink:href="#DejaVuSans-2f"/>
      <use x="601.757812" xlink:href="#DejaVuSans-77"/>
      <use x="683.544922" xlink:href="#DejaVuSans-65"/>
      <use x="745.068359" xlink:href="#DejaVuSans-65"/>
      <use x="806.591797" xlink:href="#DejaVuSans-6b"/>
      <use x="864.501953" xlink:href="#DejaVuSans-29"/>
     </g>
    </g>
    <g id="line2d_68">
     <path d="M 400.0975 109.28875 
L 416.0975 109.28875 
" style="fill:none;stroke:#9467bd;stroke-linecap:square;stroke-width:1.5;"/>
    </g>
    <g id="line2d_69"/>
    <g id="text_33">
     <!-- WA (4.0 %/week) -->
     <g transform="translate(422.4975 112.08875)scale(0.08 -0.08)">
      <use xlink:href="#DejaVuSans-57"/>
      <use x="93.376953" xlink:href="#DejaVuSans-41"/>
      <use x="161.785156" xlink:href="#DejaVuSans-20"/>
      <use x="193.572266" xlink:href="#DejaVuSans-28"/>
      <use x="232.585938" xlink:href="#DejaVuSans-34"/>
      <use x="296.208984" xlink:href="#DejaVuSans-2e"/>
      <use x="327.996094" xlink:href="#DejaVuSans-30"/>
      <use x="391.619141" xlink:href="#DejaVuSans-20"/>
      <use x="423.40625" xlink:href="#DejaVuSans-25"/>
      <use x="518.425781" xlink:href="#DejaVuSans-2f"/>
      <use x="552.117188" xlink:href="#DejaVuSans-77"/>
      <use x="633.904297" xlink:href="#DejaVuSans-65"/>
      <use x="695.427734" xlink:href="#DejaVuSans-65"/>
      <use x="756.951172" xlink:href="#DejaVuSans-6b"/>
      <use x="814.861328" xlink:href="#DejaVuSans-29"/>
     </g>
    </g>
    <g id="line2d_70">
     <path d="M 400.0975 121.03125 
L 416.0975 121.03125 
" style="fill:none;stroke:#8c564b;stroke-linecap:square;stroke-width:1.5;"/>
    </g>
    <g id="line2d_71"/>
    <g id="text_34">
     <!-- SA (4.2 %/week) -->
     <g transform="translate(422.4975 123.83125)scale(0.08 -0.08)">
      <use xlink:href="#DejaVuSans-53"/>
      <use x="65.351562" xlink:href="#DejaVuSans-41"/>
      <use x="133.759766" xlink:href="#DejaVuSans-20"/>
      <use x="165.546875" xlink:href="#DejaVuSans-28"/>
      <use x="204.560547" xlink:href="#DejaVuSans-34"/>
      <use x="268.183594" xlink:href="#DejaVuSans-2e"/>
      <use x="299.970703" xlink:href="#DejaVuSans-32"/>
      <use x="363.59375" xlink:href="#DejaVuSans-20"/>
      <use x="395.380859" xlink:href="#DejaVuSans-25"/>
      <use x="490.400391" xlink:href="#DejaVuSans-2f"/>
      <use x="524.091797" xlink:href="#DejaVuSans-77"/>
      <use x="605.878906" xlink:href="#DejaVuSans-65"/>
      <use x="667.402344" xlink:href="#DejaVuSans-65"/>
      <use x="728.925781" xlink:href="#DejaVuSans-6b"/>
      <use x="786.835938" xlink:href="#DejaVuSans-29"/>
     </g>
    </g>
    <g id="line2d_72">
     <path d="M 400.0975 132.77375 
L 416.0975 132.77375 
" style="fill:none;stroke:#e377c2;stroke-linecap:square;stroke-width:1.5;"/>
    </g>
    <g id="line2d_73"/>
    <g id="text_35">
     <!-- TAS (3.2 %/week) -->
     <g transform="translate(422.4975 135.57375)scale(0.08 -0.08)">
      <defs>
       <path d="M -19 4666 
L 3928 4666 
L 3928 4134 
L 2272 4134 
L 2272 0 
L 1638 0 
L 1638 4134 
L -19 4134 
L -19 4666 
z
" id="DejaVuSans-54" transform="scale(0.015625)"/>
      </defs>
      <use xlink:href="#DejaVuSans-54"/>
      <use x="53.333984" xlink:href="#DejaVuSans-41"/>
      <use x="121.742188" xlink:href="#DejaVuSans-53"/>
      <use x="185.21875" xlink:href="#DejaVuSans-20"/>
      <use x="217.005859" xlink:href="#DejaVuSans-28"/>
      <use x="256.019531" xlink:href="#DejaVuSans-33"/>
      <use x="319.642578" xlink:href="#DejaVuSans-2e"/>
      <use x="351.429688" xlink:href="#DejaVuSans-32"/>
      <use x="415.052734" xlink:href="#DejaVuSans-20"/>
      <use x="446.839844" xlink:href="#DejaVuSans-25"/>
      <use x="541.859375" xlink:href="#DejaVuSans-2f"/>
      <use x="575.550781" xlink:href="#DejaVuSans-77"/>
      <use x="657.337891" xlink:href="#DejaVuSans-65"/>
      <use x="718.861328" xlink:href="#DejaVuSans-65"/>
      <use x="780.384766" xlink:href="#DejaVuSans-6b"/>
      <use x="838.294922" xlink:href="#DejaVuSans-29"/>
     </g>
    </g>
    <g id="line2d_74">
     <path d="M 400.0975 144.51625 
L 416.0975 144.51625 
" style="fill:none;stroke:#7f7f7f;stroke-linecap:square;stroke-width:1.5;"/>
    </g>
    <g id="line2d_75"/>
    <g id="text_36">
     <!-- ACT (6.0 %/week) -->
     <g transform="translate(422.4975 147.31625)scale(0.08 -0.08)">
      <use xlink:href="#DejaVuSans-41"/>
      <use x="66.658203" xlink:href="#DejaVuSans-43"/>
      <use x="136.482422" xlink:href="#DejaVuSans-54"/>
      <use x="197.566406" xlink:href="#DejaVuSans-20"/>
      <use x="229.353516" xlink:href="#DejaVuSans-28"/>
      <use x="268.367188" xlink:href="#DejaVuSans-36"/>
      <use x="331.990234" xlink:href="#DejaVuSans-2e"/>
      <use x="363.777344" xlink:href="#DejaVuSans-30"/>
      <use x="427.400391" xlink:href="#DejaVuSans-20"/>
      <use x="459.1875" xlink:href="#DejaVuSans-25"/>
      <use x="554.207031" xlink:href="#DejaVuSans-2f"/>
      <use x="587.898438" xlink:href="#DejaVuSans-77"/>
      <use x="669.685547" xlink:href="#DejaVuSans-65"/>
      <use x="731.208984" xlink:href="#DejaVuSans-65"/>
      <use x="792.732422" xlink:href="#DejaVuSans-6b"/>
      <use x="850.642578" xlink:href="#DejaVuSans-29"/>
     </g>
    </g>
    <g id="line2d_76">
     <path d="M 400.0975 156.25875 
L 416.0975 156.25875 
" style="fill:none;stroke:#bcbd22;stroke-linecap:square;stroke-width:1.5;"/>
    </g>
    <g id="line2d_77"/>
    <g id="text_37">
     <!-- NT (2.3 %/week) -->
     <g transform="translate(422.4975 159.05875)scale(0.08 -0.08)">
      <use xlink:href="#DejaVuSans-4e"/>
      <use x="74.804688" xlink:href="#DejaVuSans-54"/>
      <use x="135.888672" xlink:href="#DejaVuSans-20"/>
      <use x="167.675781" xlink:href="#DejaVuSans-28"/>
      <use x="206.689453" xlink:href="#DejaVuSans-32"/>
      <use x="270.3125" xlink:href="#DejaVuSans-2e"/>
      <use x="302.099609" xlink:href="#DejaVuSans-33"/>
      <use x="365.722656" xlink:href="#DejaVuSans-20"/>
      <use x="397.509766" xlink:href="#DejaVuSans-25"/>
      <use x="492.529297" xlink:href="#DejaVuSans-2f"/>
      <use x="526.220703" xlink:href="#DejaVuSans-77"/>
      <use x="608.007812" xlink:href="#DejaVuSans-65"/>
      <use x="669.53125" xlink:href="#DejaVuSans-65"/>
      <use x="731.054688" xlink:href="#DejaVuSans-6b"/>
      <use x="788.964844" xlink:href="#DejaVuSans-29"/>
     </g>
    </g>
   </g>
  </g>
 </g>
 <defs>
  <clipPath id="p4c9b8b38cb">
   <rect height="332.64" width="446.4" x="72" y="51.84"/>
  </clipPath>
 </defs>
</svg>
