<?xml version="1.0" encoding="utf-8" standalone="no"?>
<!DOCTYPE svg PUBLIC "-//W3C//DTD SVG 1.1//EN"
  "http://www.w3.org/Graphics/SVG/1.1/DTD/svg11.dtd">
<svg xmlns:xlink="http://www.w3.org/1999/xlink" width="576pt" height="432pt" viewBox="0 0 576 432" xmlns="http://www.w3.org/2000/svg" version="1.1">
 <metadata>
  <rdf:RDF xmlns:dc="http://purl.org/dc/elements/1.1/" xmlns:cc="http://creativecommons.org/ns#" xmlns:rdf="http://www.w3.org/1999/02/22-rdf-syntax-ns#">
   <cc:Work>
    <dc:type rdf:resource="http://purl.org/dc/dcmitype/StillImage"/>
    <dc:date>2022-01-15T08:21:58.066183</dc:date>
    <dc:format>image/svg+xml</dc:format>
    <dc:creator>
     <cc:Agent>
      <dc:title>Matplotlib v3.5.1, https://matplotlib.org/</dc:title>
     </cc:Agent>
    </dc:creator>
   </cc:Work>
  </rdf:RDF>
 </metadata>
 <defs>
  <style type="text/css">*{stroke-linejoin: round; stroke-linecap: butt}</style>
 </defs>
 <g id="figure_1">
  <g id="patch_1">
   <path d="M 0 432 
L 576 432 
L 576 0 
L 0 0 
z
" style="fill: #ffffff"/>
  </g>
  <g id="axes_1">
   <g id="patch_2">
    <path d="M 72 384.48 
L 518.4 384.48 
L 518.4 51.84 
L 72 51.84 
z
" style="fill: #ffffff"/>
   </g>
   <g id="matplotlib.axis_1">
    <g id="xtick_1">
     <g id="line2d_1">
      <path d="M 72 384.48 
L 72 51.84 
" clip-path="url(#p9701912741)" style="fill: none; stroke-dasharray: 0.8,1.32; stroke-dashoffset: 0; stroke: #000000; stroke-opacity: 0.5; stroke-width: 0.8"/>
     </g>
     <g id="line2d_2">
      <defs>
       <path id="m07038d85b4" d="M 0 0 
L 0 3.5 
" style="stroke: #000000; stroke-width: 0.8"/>
      </defs>
      <g>
       <use xlink:href="#m07038d85b4" x="72" y="384.48" style="stroke: #000000; stroke-width: 0.8"/>
      </g>
     </g>
     <g id="text_1">
      <!-- 15 -->
      <g transform="translate(65.6375 399.078438)scale(0.1 -0.1)">
       <defs>
        <path id="DejaVuSans-31" d="M 794 531 
L 1825 531 
L 1825 4091 
L 703 3866 
L 703 4441 
L 1819 4666 
L 2450 4666 
L 2450 531 
L 3481 531 
L 3481 0 
L 794 0 
L 794 531 
z
" transform="scale(0.015625)"/>
        <path id="DejaVuSans-35" d="M 691 4666 
L 3169 4666 
L 3169 4134 
L 1269 4134 
L 1269 2991 
Q 1406 3038 1543 3061 
Q 1681 3084 1819 3084 
Q 2600 3084 3056 2656 
Q 3513 2228 3513 1497 
Q 3513 744 3044 326 
Q 2575 -91 1722 -91 
Q 1428 -91 1123 -41 
Q 819 9 494 109 
L 494 744 
Q 775 591 1075 516 
Q 1375 441 1709 441 
Q 2250 441 2565 725 
Q 2881 1009 2881 1497 
Q 2881 1984 2565 2268 
Q 2250 2553 1709 2553 
Q 1456 2553 1204 2497 
Q 953 2441 691 2322 
L 691 4666 
z
" transform="scale(0.015625)"/>
       </defs>
       <use xlink:href="#DejaVuSans-31"/>
       <use xlink:href="#DejaVuSans-35" x="63.623047"/>
      </g>
     </g>
    </g>
    <g id="xtick_2">
     <g id="line2d_3">
      <path d="M 95.641121 384.48 
L 95.641121 51.84 
" clip-path="url(#p9701912741)" style="fill: none; stroke-dasharray: 0.8,1.32; stroke-dashoffset: 0; stroke: #000000; stroke-opacity: 0.5; stroke-width: 0.8"/>
     </g>
     <g id="line2d_4">
      <g>
       <use xlink:href="#m07038d85b4" x="95.641121" y="384.48" style="stroke: #000000; stroke-width: 0.8"/>
      </g>
     </g>
     <g id="text_2">
      <!-- Aug -->
      <g transform="translate(85.87784 399.078438)scale(0.1 -0.1)">
       <defs>
        <path id="DejaVuSans-41" d="M 2188 4044 
L 1331 1722 
L 3047 1722 
L 2188 4044 
z
M 1831 4666 
L 2547 4666 
L 4325 0 
L 3669 0 
L 3244 1197 
L 1141 1197 
L 716 0 
L 50 0 
L 1831 4666 
z
" transform="scale(0.015625)"/>
        <path id="DejaVuSans-75" d="M 544 1381 
L 544 3500 
L 1119 3500 
L 1119 1403 
Q 1119 906 1312 657 
Q 1506 409 1894 409 
Q 2359 409 2629 706 
Q 2900 1003 2900 1516 
L 2900 3500 
L 3475 3500 
L 3475 0 
L 2900 0 
L 2900 538 
Q 2691 219 2414 64 
Q 2138 -91 1772 -91 
Q 1169 -91 856 284 
Q 544 659 544 1381 
z
M 1991 3584 
L 1991 3584 
z
" transform="scale(0.015625)"/>
        <path id="DejaVuSans-67" d="M 2906 1791 
Q 2906 2416 2648 2759 
Q 2391 3103 1925 3103 
Q 1463 3103 1205 2759 
Q 947 2416 947 1791 
Q 947 1169 1205 825 
Q 1463 481 1925 481 
Q 2391 481 2648 825 
Q 2906 1169 2906 1791 
z
M 3481 434 
Q 3481 -459 3084 -895 
Q 2688 -1331 1869 -1331 
Q 1566 -1331 1297 -1286 
Q 1028 -1241 775 -1147 
L 775 -588 
Q 1028 -725 1275 -790 
Q 1522 -856 1778 -856 
Q 2344 -856 2625 -561 
Q 2906 -266 2906 331 
L 2906 616 
Q 2728 306 2450 153 
Q 2172 0 1784 0 
Q 1141 0 747 490 
Q 353 981 353 1791 
Q 353 2603 747 3093 
Q 1141 3584 1784 3584 
Q 2172 3584 2450 3431 
Q 2728 3278 2906 2969 
L 2906 3500 
L 3481 3500 
L 3481 434 
z
" transform="scale(0.015625)"/>
       </defs>
       <use xlink:href="#DejaVuSans-41"/>
       <use xlink:href="#DejaVuSans-75" x="68.408203"/>
       <use xlink:href="#DejaVuSans-67" x="131.787109"/>
      </g>
     </g>
    </g>
    <g id="xtick_3">
     <g id="line2d_5">
      <path d="M 115.11028 384.48 
L 115.11028 51.84 
" clip-path="url(#p9701912741)" style="fill: none; stroke-dasharray: 0.8,1.32; stroke-dashoffset: 0; stroke: #000000; stroke-opacity: 0.5; stroke-width: 0.8"/>
     </g>
     <g id="line2d_6">
      <g>
       <use xlink:href="#m07038d85b4" x="115.11028" y="384.48" style="stroke: #000000; stroke-width: 0.8"/>
      </g>
     </g>
     <g id="text_3">
      <!-- 15 -->
      <g transform="translate(108.74778 399.078438)scale(0.1 -0.1)">
       <use xlink:href="#DejaVuSans-31"/>
       <use xlink:href="#DejaVuSans-35" x="63.623047"/>
      </g>
     </g>
    </g>
    <g id="xtick_4">
     <g id="line2d_7">
      <path d="M 138.751402 384.48 
L 138.751402 51.84 
" clip-path="url(#p9701912741)" style="fill: none; stroke-dasharray: 0.8,1.32; stroke-dashoffset: 0; stroke: #000000; stroke-opacity: 0.5; stroke-width: 0.8"/>
     </g>
     <g id="line2d_8">
      <g>
       <use xlink:href="#m07038d85b4" x="138.751402" y="384.48" style="stroke: #000000; stroke-width: 0.8"/>
      </g>
     </g>
     <g id="text_4">
      <!-- Sep -->
      <g transform="translate(129.326402 399.078438)scale(0.1 -0.1)">
       <defs>
        <path id="DejaVuSans-53" d="M 3425 4513 
L 3425 3897 
Q 3066 4069 2747 4153 
Q 2428 4238 2131 4238 
Q 1616 4238 1336 4038 
Q 1056 3838 1056 3469 
Q 1056 3159 1242 3001 
Q 1428 2844 1947 2747 
L 2328 2669 
Q 3034 2534 3370 2195 
Q 3706 1856 3706 1288 
Q 3706 609 3251 259 
Q 2797 -91 1919 -91 
Q 1588 -91 1214 -16 
Q 841 59 441 206 
L 441 856 
Q 825 641 1194 531 
Q 1563 422 1919 422 
Q 2459 422 2753 634 
Q 3047 847 3047 1241 
Q 3047 1584 2836 1778 
Q 2625 1972 2144 2069 
L 1759 2144 
Q 1053 2284 737 2584 
Q 422 2884 422 3419 
Q 422 4038 858 4394 
Q 1294 4750 2059 4750 
Q 2388 4750 2728 4690 
Q 3069 4631 3425 4513 
z
" transform="scale(0.015625)"/>
        <path id="DejaVuSans-65" d="M 3597 1894 
L 3597 1613 
L 953 1613 
Q 991 1019 1311 708 
Q 1631 397 2203 397 
Q 2534 397 2845 478 
Q 3156 559 3463 722 
L 3463 178 
Q 3153 47 2828 -22 
Q 2503 -91 2169 -91 
Q 1331 -91 842 396 
Q 353 884 353 1716 
Q 353 2575 817 3079 
Q 1281 3584 2069 3584 
Q 2775 3584 3186 3129 
Q 3597 2675 3597 1894 
z
M 3022 2063 
Q 3016 2534 2758 2815 
Q 2500 3097 2075 3097 
Q 1594 3097 1305 2825 
Q 1016 2553 972 2059 
L 3022 2063 
z
" transform="scale(0.015625)"/>
        <path id="DejaVuSans-70" d="M 1159 525 
L 1159 -1331 
L 581 -1331 
L 581 3500 
L 1159 3500 
L 1159 2969 
Q 1341 3281 1617 3432 
Q 1894 3584 2278 3584 
Q 2916 3584 3314 3078 
Q 3713 2572 3713 1747 
Q 3713 922 3314 415 
Q 2916 -91 2278 -91 
Q 1894 -91 1617 61 
Q 1341 213 1159 525 
z
M 3116 1747 
Q 3116 2381 2855 2742 
Q 2594 3103 2138 3103 
Q 1681 3103 1420 2742 
Q 1159 2381 1159 1747 
Q 1159 1113 1420 752 
Q 1681 391 2138 391 
Q 2594 391 2855 752 
Q 3116 1113 3116 1747 
z
" transform="scale(0.015625)"/>
       </defs>
       <use xlink:href="#DejaVuSans-53"/>
       <use xlink:href="#DejaVuSans-65" x="63.476562"/>
       <use xlink:href="#DejaVuSans-70" x="125"/>
      </g>
     </g>
    </g>
    <g id="xtick_5">
     <g id="line2d_9">
      <path d="M 158.220561 384.48 
L 158.220561 51.84 
" clip-path="url(#p9701912741)" style="fill: none; stroke-dasharray: 0.8,1.32; stroke-dashoffset: 0; stroke: #000000; stroke-opacity: 0.5; stroke-width: 0.8"/>
     </g>
     <g id="line2d_10">
      <g>
       <use xlink:href="#m07038d85b4" x="158.220561" y="384.48" style="stroke: #000000; stroke-width: 0.8"/>
      </g>
     </g>
     <g id="text_5">
      <!-- 15 -->
      <g transform="translate(151.858061 399.078438)scale(0.1 -0.1)">
       <use xlink:href="#DejaVuSans-31"/>
       <use xlink:href="#DejaVuSans-35" x="63.623047"/>
      </g>
     </g>
    </g>
    <g id="xtick_6">
     <g id="line2d_11">
      <path d="M 180.471028 384.48 
L 180.471028 51.84 
" clip-path="url(#p9701912741)" style="fill: none; stroke-dasharray: 0.8,1.32; stroke-dashoffset: 0; stroke: #000000; stroke-opacity: 0.5; stroke-width: 0.8"/>
     </g>
     <g id="line2d_12">
      <g>
       <use xlink:href="#m07038d85b4" x="180.471028" y="384.48" style="stroke: #000000; stroke-width: 0.8"/>
      </g>
     </g>
     <g id="text_6">
      <!-- Oct -->
      <g transform="translate(171.825716 399.078438)scale(0.1 -0.1)">
       <defs>
        <path id="DejaVuSans-4f" d="M 2522 4238 
Q 1834 4238 1429 3725 
Q 1025 3213 1025 2328 
Q 1025 1447 1429 934 
Q 1834 422 2522 422 
Q 3209 422 3611 934 
Q 4013 1447 4013 2328 
Q 4013 3213 3611 3725 
Q 3209 4238 2522 4238 
z
M 2522 4750 
Q 3503 4750 4090 4092 
Q 4678 3434 4678 2328 
Q 4678 1225 4090 567 
Q 3503 -91 2522 -91 
Q 1538 -91 948 565 
Q 359 1222 359 2328 
Q 359 3434 948 4092 
Q 1538 4750 2522 4750 
z
" transform="scale(0.015625)"/>
        <path id="DejaVuSans-63" d="M 3122 3366 
L 3122 2828 
Q 2878 2963 2633 3030 
Q 2388 3097 2138 3097 
Q 1578 3097 1268 2742 
Q 959 2388 959 1747 
Q 959 1106 1268 751 
Q 1578 397 2138 397 
Q 2388 397 2633 464 
Q 2878 531 3122 666 
L 3122 134 
Q 2881 22 2623 -34 
Q 2366 -91 2075 -91 
Q 1284 -91 818 406 
Q 353 903 353 1747 
Q 353 2603 823 3093 
Q 1294 3584 2113 3584 
Q 2378 3584 2631 3529 
Q 2884 3475 3122 3366 
z
" transform="scale(0.015625)"/>
        <path id="DejaVuSans-74" d="M 1172 4494 
L 1172 3500 
L 2356 3500 
L 2356 3053 
L 1172 3053 
L 1172 1153 
Q 1172 725 1289 603 
Q 1406 481 1766 481 
L 2356 481 
L 2356 0 
L 1766 0 
Q 1100 0 847 248 
Q 594 497 594 1153 
L 594 3053 
L 172 3053 
L 172 3500 
L 594 3500 
L 594 4494 
L 1172 4494 
z
" transform="scale(0.015625)"/>
       </defs>
       <use xlink:href="#DejaVuSans-4f"/>
       <use xlink:href="#DejaVuSans-63" x="78.710938"/>
       <use xlink:href="#DejaVuSans-74" x="133.691406"/>
      </g>
     </g>
    </g>
    <g id="xtick_7">
     <g id="line2d_13">
      <path d="M 199.940187 384.48 
L 199.940187 51.84 
" clip-path="url(#p9701912741)" style="fill: none; stroke-dasharray: 0.8,1.32; stroke-dashoffset: 0; stroke: #000000; stroke-opacity: 0.5; stroke-width: 0.8"/>
     </g>
     <g id="line2d_14">
      <g>
       <use xlink:href="#m07038d85b4" x="199.940187" y="384.48" style="stroke: #000000; stroke-width: 0.8"/>
      </g>
     </g>
     <g id="text_7">
      <!-- 15 -->
      <g transform="translate(193.577687 399.078438)scale(0.1 -0.1)">
       <use xlink:href="#DejaVuSans-31"/>
       <use xlink:href="#DejaVuSans-35" x="63.623047"/>
      </g>
     </g>
    </g>
    <g id="xtick_8">
     <g id="line2d_15">
      <path d="M 223.581308 384.48 
L 223.581308 51.84 
" clip-path="url(#p9701912741)" style="fill: none; stroke-dasharray: 0.8,1.32; stroke-dashoffset: 0; stroke: #000000; stroke-opacity: 0.5; stroke-width: 0.8"/>
     </g>
     <g id="line2d_16">
      <g>
       <use xlink:href="#m07038d85b4" x="223.581308" y="384.48" style="stroke: #000000; stroke-width: 0.8"/>
      </g>
     </g>
     <g id="text_8">
      <!-- Nov -->
      <g transform="translate(213.821933 399.078438)scale(0.1 -0.1)">
       <defs>
        <path id="DejaVuSans-4e" d="M 628 4666 
L 1478 4666 
L 3547 763 
L 3547 4666 
L 4159 4666 
L 4159 0 
L 3309 0 
L 1241 3903 
L 1241 0 
L 628 0 
L 628 4666 
z
" transform="scale(0.015625)"/>
        <path id="DejaVuSans-6f" d="M 1959 3097 
Q 1497 3097 1228 2736 
Q 959 2375 959 1747 
Q 959 1119 1226 758 
Q 1494 397 1959 397 
Q 2419 397 2687 759 
Q 2956 1122 2956 1747 
Q 2956 2369 2687 2733 
Q 2419 3097 1959 3097 
z
M 1959 3584 
Q 2709 3584 3137 3096 
Q 3566 2609 3566 1747 
Q 3566 888 3137 398 
Q 2709 -91 1959 -91 
Q 1206 -91 779 398 
Q 353 888 353 1747 
Q 353 2609 779 3096 
Q 1206 3584 1959 3584 
z
" transform="scale(0.015625)"/>
        <path id="DejaVuSans-76" d="M 191 3500 
L 800 3500 
L 1894 563 
L 2988 3500 
L 3597 3500 
L 2284 0 
L 1503 0 
L 191 3500 
z
" transform="scale(0.015625)"/>
       </defs>
       <use xlink:href="#DejaVuSans-4e"/>
       <use xlink:href="#DejaVuSans-6f" x="74.804688"/>
       <use xlink:href="#DejaVuSans-76" x="135.986328"/>
      </g>
     </g>
    </g>
    <g id="xtick_9">
     <g id="line2d_17">
      <path d="M 243.050467 384.48 
L 243.050467 51.84 
" clip-path="url(#p9701912741)" style="fill: none; stroke-dasharray: 0.8,1.32; stroke-dashoffset: 0; stroke: #000000; stroke-opacity: 0.5; stroke-width: 0.8"/>
     </g>
     <g id="line2d_18">
      <g>
       <use xlink:href="#m07038d85b4" x="243.050467" y="384.48" style="stroke: #000000; stroke-width: 0.8"/>
      </g>
     </g>
     <g id="text_9">
      <!-- 15 -->
      <g transform="translate(236.687967 399.078438)scale(0.1 -0.1)">
       <use xlink:href="#DejaVuSans-31"/>
       <use xlink:href="#DejaVuSans-35" x="63.623047"/>
      </g>
     </g>
    </g>
    <g id="xtick_10">
     <g id="line2d_19">
      <path d="M 265.300935 384.48 
L 265.300935 51.84 
" clip-path="url(#p9701912741)" style="fill: none; stroke-dasharray: 0.8,1.32; stroke-dashoffset: 0; stroke: #000000; stroke-opacity: 0.5; stroke-width: 0.8"/>
     </g>
     <g id="line2d_20">
      <g>
       <use xlink:href="#m07038d85b4" x="265.300935" y="384.48" style="stroke: #000000; stroke-width: 0.8"/>
      </g>
     </g>
     <g id="text_10">
      <!-- Dec -->
      <g transform="translate(255.625153 399.078438)scale(0.1 -0.1)">
       <defs>
        <path id="DejaVuSans-44" d="M 1259 4147 
L 1259 519 
L 2022 519 
Q 2988 519 3436 956 
Q 3884 1394 3884 2338 
Q 3884 3275 3436 3711 
Q 2988 4147 2022 4147 
L 1259 4147 
z
M 628 4666 
L 1925 4666 
Q 3281 4666 3915 4102 
Q 4550 3538 4550 2338 
Q 4550 1131 3912 565 
Q 3275 0 1925 0 
L 628 0 
L 628 4666 
z
" transform="scale(0.015625)"/>
       </defs>
       <use xlink:href="#DejaVuSans-44"/>
       <use xlink:href="#DejaVuSans-65" x="77.001953"/>
       <use xlink:href="#DejaVuSans-63" x="138.525391"/>
      </g>
     </g>
    </g>
    <g id="xtick_11">
     <g id="line2d_21">
      <path d="M 284.770093 384.48 
L 284.770093 51.84 
" clip-path="url(#p9701912741)" style="fill: none; stroke-dasharray: 0.8,1.32; stroke-dashoffset: 0; stroke: #000000; stroke-opacity: 0.5; stroke-width: 0.8"/>
     </g>
     <g id="line2d_22">
      <g>
       <use xlink:href="#m07038d85b4" x="284.770093" y="384.48" style="stroke: #000000; stroke-width: 0.8"/>
      </g>
     </g>
     <g id="text_11">
      <!-- 15 -->
      <g transform="translate(278.407593 399.078438)scale(0.1 -0.1)">
       <use xlink:href="#DejaVuSans-31"/>
       <use xlink:href="#DejaVuSans-35" x="63.623047"/>
      </g>
     </g>
    </g>
    <g id="xtick_12">
     <g id="line2d_23">
      <path d="M 308.411215 384.48 
L 308.411215 51.84 
" clip-path="url(#p9701912741)" style="fill: none; stroke-dasharray: 0.8,1.32; stroke-dashoffset: 0; stroke: #000000; stroke-opacity: 0.5; stroke-width: 0.8"/>
     </g>
     <g id="line2d_24">
      <g>
       <use xlink:href="#m07038d85b4" x="308.411215" y="384.48" style="stroke: #000000; stroke-width: 0.8"/>
      </g>
     </g>
     <g id="text_12">
      <!-- Jan -->
      <g transform="translate(300.703402 399.078438)scale(0.1 -0.1)">
       <defs>
        <path id="DejaVuSans-4a" d="M 628 4666 
L 1259 4666 
L 1259 325 
Q 1259 -519 939 -900 
Q 619 -1281 -91 -1281 
L -331 -1281 
L -331 -750 
L -134 -750 
Q 284 -750 456 -515 
Q 628 -281 628 325 
L 628 4666 
z
" transform="scale(0.015625)"/>
        <path id="DejaVuSans-61" d="M 2194 1759 
Q 1497 1759 1228 1600 
Q 959 1441 959 1056 
Q 959 750 1161 570 
Q 1363 391 1709 391 
Q 2188 391 2477 730 
Q 2766 1069 2766 1631 
L 2766 1759 
L 2194 1759 
z
M 3341 1997 
L 3341 0 
L 2766 0 
L 2766 531 
Q 2569 213 2275 61 
Q 1981 -91 1556 -91 
Q 1019 -91 701 211 
Q 384 513 384 1019 
Q 384 1609 779 1909 
Q 1175 2209 1959 2209 
L 2766 2209 
L 2766 2266 
Q 2766 2663 2505 2880 
Q 2244 3097 1772 3097 
Q 1472 3097 1187 3025 
Q 903 2953 641 2809 
L 641 3341 
Q 956 3463 1253 3523 
Q 1550 3584 1831 3584 
Q 2591 3584 2966 3190 
Q 3341 2797 3341 1997 
z
" transform="scale(0.015625)"/>
        <path id="DejaVuSans-6e" d="M 3513 2113 
L 3513 0 
L 2938 0 
L 2938 2094 
Q 2938 2591 2744 2837 
Q 2550 3084 2163 3084 
Q 1697 3084 1428 2787 
Q 1159 2491 1159 1978 
L 1159 0 
L 581 0 
L 581 3500 
L 1159 3500 
L 1159 2956 
Q 1366 3272 1645 3428 
Q 1925 3584 2291 3584 
Q 2894 3584 3203 3211 
Q 3513 2838 3513 2113 
z
" transform="scale(0.015625)"/>
       </defs>
       <use xlink:href="#DejaVuSans-4a"/>
       <use xlink:href="#DejaVuSans-61" x="29.492188"/>
       <use xlink:href="#DejaVuSans-6e" x="90.771484"/>
      </g>
     </g>
    </g>
    <g id="xtick_13">
     <g id="line2d_25">
      <path d="M 327.880374 384.48 
L 327.880374 51.84 
" clip-path="url(#p9701912741)" style="fill: none; stroke-dasharray: 0.8,1.32; stroke-dashoffset: 0; stroke: #000000; stroke-opacity: 0.5; stroke-width: 0.8"/>
     </g>
     <g id="line2d_26">
      <g>
       <use xlink:href="#m07038d85b4" x="327.880374" y="384.48" style="stroke: #000000; stroke-width: 0.8"/>
      </g>
     </g>
     <g id="text_13">
      <!-- 15 -->
      <g transform="translate(321.517874 399.078438)scale(0.1 -0.1)">
       <use xlink:href="#DejaVuSans-31"/>
       <use xlink:href="#DejaVuSans-35" x="63.623047"/>
      </g>
     </g>
    </g>
    <g id="xtick_14">
     <g id="line2d_27">
      <path d="M 351.521495 384.48 
L 351.521495 51.84 
" clip-path="url(#p9701912741)" style="fill: none; stroke-dasharray: 0.8,1.32; stroke-dashoffset: 0; stroke: #000000; stroke-opacity: 0.5; stroke-width: 0.8"/>
     </g>
     <g id="line2d_28">
      <g>
       <use xlink:href="#m07038d85b4" x="351.521495" y="384.48" style="stroke: #000000; stroke-width: 0.8"/>
      </g>
     </g>
     <g id="text_14">
      <!-- Feb -->
      <g transform="translate(342.669933 399.078438)scale(0.1 -0.1)">
       <defs>
        <path id="DejaVuSans-46" d="M 628 4666 
L 3309 4666 
L 3309 4134 
L 1259 4134 
L 1259 2759 
L 3109 2759 
L 3109 2228 
L 1259 2228 
L 1259 0 
L 628 0 
L 628 4666 
z
" transform="scale(0.015625)"/>
        <path id="DejaVuSans-62" d="M 3116 1747 
Q 3116 2381 2855 2742 
Q 2594 3103 2138 3103 
Q 1681 3103 1420 2742 
Q 1159 2381 1159 1747 
Q 1159 1113 1420 752 
Q 1681 391 2138 391 
Q 2594 391 2855 752 
Q 3116 1113 3116 1747 
z
M 1159 2969 
Q 1341 3281 1617 3432 
Q 1894 3584 2278 3584 
Q 2916 3584 3314 3078 
Q 3713 2572 3713 1747 
Q 3713 922 3314 415 
Q 2916 -91 2278 -91 
Q 1894 -91 1617 61 
Q 1341 213 1159 525 
L 1159 0 
L 581 0 
L 581 4863 
L 1159 4863 
L 1159 2969 
z
" transform="scale(0.015625)"/>
       </defs>
       <use xlink:href="#DejaVuSans-46"/>
       <use xlink:href="#DejaVuSans-65" x="52.019531"/>
       <use xlink:href="#DejaVuSans-62" x="113.542969"/>
      </g>
     </g>
    </g>
    <g id="xtick_15">
     <g id="line2d_29">
      <path d="M 370.990654 384.48 
L 370.990654 51.84 
" clip-path="url(#p9701912741)" style="fill: none; stroke-dasharray: 0.8,1.32; stroke-dashoffset: 0; stroke: #000000; stroke-opacity: 0.5; stroke-width: 0.8"/>
     </g>
     <g id="line2d_30">
      <g>
       <use xlink:href="#m07038d85b4" x="370.990654" y="384.48" style="stroke: #000000; stroke-width: 0.8"/>
      </g>
     </g>
     <g id="text_15">
      <!-- 15 -->
      <g transform="translate(364.628154 399.078438)scale(0.1 -0.1)">
       <use xlink:href="#DejaVuSans-31"/>
       <use xlink:href="#DejaVuSans-35" x="63.623047"/>
      </g>
     </g>
    </g>
    <g id="xtick_16">
     <g id="line2d_31">
      <path d="M 390.459813 384.48 
L 390.459813 51.84 
" clip-path="url(#p9701912741)" style="fill: none; stroke-dasharray: 0.8,1.32; stroke-dashoffset: 0; stroke: #000000; stroke-opacity: 0.5; stroke-width: 0.8"/>
     </g>
     <g id="line2d_32">
      <g>
       <use xlink:href="#m07038d85b4" x="390.459813" y="384.48" style="stroke: #000000; stroke-width: 0.8"/>
      </g>
     </g>
     <g id="text_16">
      <!-- Mar -->
      <g transform="translate(381.026219 399.078438)scale(0.1 -0.1)">
       <defs>
        <path id="DejaVuSans-4d" d="M 628 4666 
L 1569 4666 
L 2759 1491 
L 3956 4666 
L 4897 4666 
L 4897 0 
L 4281 0 
L 4281 4097 
L 3078 897 
L 2444 897 
L 1241 4097 
L 1241 0 
L 628 0 
L 628 4666 
z
" transform="scale(0.015625)"/>
        <path id="DejaVuSans-72" d="M 2631 2963 
Q 2534 3019 2420 3045 
Q 2306 3072 2169 3072 
Q 1681 3072 1420 2755 
Q 1159 2438 1159 1844 
L 1159 0 
L 581 0 
L 581 3500 
L 1159 3500 
L 1159 2956 
Q 1341 3275 1631 3429 
Q 1922 3584 2338 3584 
Q 2397 3584 2469 3576 
Q 2541 3569 2628 3553 
L 2631 2963 
z
" transform="scale(0.015625)"/>
       </defs>
       <use xlink:href="#DejaVuSans-4d"/>
       <use xlink:href="#DejaVuSans-61" x="86.279297"/>
       <use xlink:href="#DejaVuSans-72" x="147.558594"/>
      </g>
     </g>
    </g>
    <g id="xtick_17">
     <g id="line2d_33">
      <path d="M 409.928972 384.48 
L 409.928972 51.84 
" clip-path="url(#p9701912741)" style="fill: none; stroke-dasharray: 0.8,1.32; stroke-dashoffset: 0; stroke: #000000; stroke-opacity: 0.5; stroke-width: 0.8"/>
     </g>
     <g id="line2d_34">
      <g>
       <use xlink:href="#m07038d85b4" x="409.928972" y="384.48" style="stroke: #000000; stroke-width: 0.8"/>
      </g>
     </g>
     <g id="text_17">
      <!-- 15 -->
      <g transform="translate(403.566472 399.078438)scale(0.1 -0.1)">
       <use xlink:href="#DejaVuSans-31"/>
       <use xlink:href="#DejaVuSans-35" x="63.623047"/>
      </g>
     </g>
    </g>
    <g id="xtick_18">
     <g id="line2d_35">
      <path d="M 433.570093 384.48 
L 433.570093 51.84 
" clip-path="url(#p9701912741)" style="fill: none; stroke-dasharray: 0.8,1.32; stroke-dashoffset: 0; stroke: #000000; stroke-opacity: 0.5; stroke-width: 0.8"/>
     </g>
     <g id="line2d_36">
      <g>
       <use xlink:href="#m07038d85b4" x="433.570093" y="384.48" style="stroke: #000000; stroke-width: 0.8"/>
      </g>
     </g>
     <g id="text_18">
      <!-- Apr -->
      <g transform="translate(424.920093 399.078438)scale(0.1 -0.1)">
       <use xlink:href="#DejaVuSans-41"/>
       <use xlink:href="#DejaVuSans-70" x="68.408203"/>
       <use xlink:href="#DejaVuSans-72" x="131.884766"/>
      </g>
     </g>
    </g>
    <g id="xtick_19">
     <g id="line2d_37">
      <path d="M 453.039252 384.48 
L 453.039252 51.84 
" clip-path="url(#p9701912741)" style="fill: none; stroke-dasharray: 0.8,1.32; stroke-dashoffset: 0; stroke: #000000; stroke-opacity: 0.5; stroke-width: 0.8"/>
     </g>
     <g id="line2d_38">
      <g>
       <use xlink:href="#m07038d85b4" x="453.039252" y="384.48" style="stroke: #000000; stroke-width: 0.8"/>
      </g>
     </g>
     <g id="text_19">
      <!-- 15 -->
      <g transform="translate(446.676752 399.078438)scale(0.1 -0.1)">
       <use xlink:href="#DejaVuSans-31"/>
       <use xlink:href="#DejaVuSans-35" x="63.623047"/>
      </g>
     </g>
    </g>
    <g id="xtick_20">
     <g id="line2d_39">
      <path d="M 475.28972 384.48 
L 475.28972 51.84 
" clip-path="url(#p9701912741)" style="fill: none; stroke-dasharray: 0.8,1.32; stroke-dashoffset: 0; stroke: #000000; stroke-opacity: 0.5; stroke-width: 0.8"/>
     </g>
     <g id="line2d_40">
      <g>
       <use xlink:href="#m07038d85b4" x="475.28972" y="384.48" style="stroke: #000000; stroke-width: 0.8"/>
      </g>
     </g>
     <g id="text_20">
      <!-- May -->
      <g transform="translate(464.95222 399.078438)scale(0.1 -0.1)">
       <defs>
        <path id="DejaVuSans-79" d="M 2059 -325 
Q 1816 -950 1584 -1140 
Q 1353 -1331 966 -1331 
L 506 -1331 
L 506 -850 
L 844 -850 
Q 1081 -850 1212 -737 
Q 1344 -625 1503 -206 
L 1606 56 
L 191 3500 
L 800 3500 
L 1894 763 
L 2988 3500 
L 3597 3500 
L 2059 -325 
z
" transform="scale(0.015625)"/>
       </defs>
       <use xlink:href="#DejaVuSans-4d"/>
       <use xlink:href="#DejaVuSans-61" x="86.279297"/>
       <use xlink:href="#DejaVuSans-79" x="147.558594"/>
      </g>
     </g>
    </g>
    <g id="xtick_21">
     <g id="line2d_41">
      <path d="M 494.758879 384.48 
L 494.758879 51.84 
" clip-path="url(#p9701912741)" style="fill: none; stroke-dasharray: 0.8,1.32; stroke-dashoffset: 0; stroke: #000000; stroke-opacity: 0.5; stroke-width: 0.8"/>
     </g>
     <g id="line2d_42">
      <g>
       <use xlink:href="#m07038d85b4" x="494.758879" y="384.48" style="stroke: #000000; stroke-width: 0.8"/>
      </g>
     </g>
     <g id="text_21">
      <!-- 15 -->
      <g transform="translate(488.396379 399.078438)scale(0.1 -0.1)">
       <use xlink:href="#DejaVuSans-31"/>
       <use xlink:href="#DejaVuSans-35" x="63.623047"/>
      </g>
     </g>
    </g>
    <g id="xtick_22">
     <g id="line2d_43">
      <path d="M 518.4 384.48 
L 518.4 51.84 
" clip-path="url(#p9701912741)" style="fill: none; stroke-dasharray: 0.8,1.32; stroke-dashoffset: 0; stroke: #000000; stroke-opacity: 0.5; stroke-width: 0.8"/>
     </g>
     <g id="line2d_44">
      <g>
       <use xlink:href="#m07038d85b4" x="518.4" y="384.48" style="stroke: #000000; stroke-width: 0.8"/>
      </g>
     </g>
     <g id="text_22">
      <!-- Jun -->
      <g transform="translate(510.5875 399.078438)scale(0.1 -0.1)">
       <use xlink:href="#DejaVuSans-4a"/>
       <use xlink:href="#DejaVuSans-75" x="29.492188"/>
       <use xlink:href="#DejaVuSans-6e" x="92.871094"/>
      </g>
     </g>
    </g>
    <g id="text_23">
     <!-- 2022-Jun -->
     <g transform="translate(473.154687 411.756563)scale(0.1 -0.1)">
      <defs>
       <path id="DejaVuSans-32" d="M 1228 531 
L 3431 531 
L 3431 0 
L 469 0 
L 469 531 
Q 828 903 1448 1529 
Q 2069 2156 2228 2338 
Q 2531 2678 2651 2914 
Q 2772 3150 2772 3378 
Q 2772 3750 2511 3984 
Q 2250 4219 1831 4219 
Q 1534 4219 1204 4116 
Q 875 4013 500 3803 
L 500 4441 
Q 881 4594 1212 4672 
Q 1544 4750 1819 4750 
Q 2544 4750 2975 4387 
Q 3406 4025 3406 3419 
Q 3406 3131 3298 2873 
Q 3191 2616 2906 2266 
Q 2828 2175 2409 1742 
Q 1991 1309 1228 531 
z
" transform="scale(0.015625)"/>
       <path id="DejaVuSans-30" d="M 2034 4250 
Q 1547 4250 1301 3770 
Q 1056 3291 1056 2328 
Q 1056 1369 1301 889 
Q 1547 409 2034 409 
Q 2525 409 2770 889 
Q 3016 1369 3016 2328 
Q 3016 3291 2770 3770 
Q 2525 4250 2034 4250 
z
M 2034 4750 
Q 2819 4750 3233 4129 
Q 3647 3509 3647 2328 
Q 3647 1150 3233 529 
Q 2819 -91 2034 -91 
Q 1250 -91 836 529 
Q 422 1150 422 2328 
Q 422 3509 836 4129 
Q 1250 4750 2034 4750 
z
" transform="scale(0.015625)"/>
       <path id="DejaVuSans-2d" d="M 313 2009 
L 1997 2009 
L 1997 1497 
L 313 1497 
L 313 2009 
z
" transform="scale(0.015625)"/>
      </defs>
      <use xlink:href="#DejaVuSans-32"/>
      <use xlink:href="#DejaVuSans-30" x="63.623047"/>
      <use xlink:href="#DejaVuSans-32" x="127.246094"/>
      <use xlink:href="#DejaVuSans-32" x="190.869141"/>
      <use xlink:href="#DejaVuSans-2d" x="254.492188"/>
      <use xlink:href="#DejaVuSans-4a" x="296.201172"/>
      <use xlink:href="#DejaVuSans-75" x="325.693359"/>
      <use xlink:href="#DejaVuSans-6e" x="389.072266"/>
     </g>
    </g>
   </g>
   <g id="matplotlib.axis_2">
    <g id="ytick_1">
     <g id="line2d_45">
      <path d="M 72 384.48 
L 518.4 384.48 
" clip-path="url(#p9701912741)" style="fill: none; stroke-dasharray: 0.8,1.32; stroke-dashoffset: 0; stroke: #000000; stroke-opacity: 0.5; stroke-width: 0.8"/>
     </g>
     <g id="line2d_46">
      <defs>
       <path id="mf711ee7a61" d="M 0 0 
L -3.5 0 
" style="stroke: #000000; stroke-width: 0.8"/>
      </defs>
      <g>
       <use xlink:href="#mf711ee7a61" x="72" y="384.48" style="stroke: #000000; stroke-width: 0.8"/>
      </g>
     </g>
     <g id="text_24">
      <!-- 0 -->
      <g transform="translate(58.6375 388.279219)scale(0.1 -0.1)">
       <use xlink:href="#DejaVuSans-30"/>
      </g>
     </g>
    </g>
    <g id="ytick_2">
     <g id="line2d_47">
      <path d="M 72 351.216 
L 518.4 351.216 
" clip-path="url(#p9701912741)" style="fill: none; stroke-dasharray: 0.8,1.32; stroke-dashoffset: 0; stroke: #000000; stroke-opacity: 0.5; stroke-width: 0.8"/>
     </g>
     <g id="line2d_48">
      <g>
       <use xlink:href="#mf711ee7a61" x="72" y="351.216" style="stroke: #000000; stroke-width: 0.8"/>
      </g>
     </g>
     <g id="text_25">
      <!-- 10 -->
      <g transform="translate(52.275 355.015219)scale(0.1 -0.1)">
       <use xlink:href="#DejaVuSans-31"/>
       <use xlink:href="#DejaVuSans-30" x="63.623047"/>
      </g>
     </g>
    </g>
    <g id="ytick_3">
     <g id="line2d_49">
      <path d="M 72 317.952 
L 518.4 317.952 
" clip-path="url(#p9701912741)" style="fill: none; stroke-dasharray: 0.8,1.32; stroke-dashoffset: 0; stroke: #000000; stroke-opacity: 0.5; stroke-width: 0.8"/>
     </g>
     <g id="line2d_50">
      <g>
       <use xlink:href="#mf711ee7a61" x="72" y="317.952" style="stroke: #000000; stroke-width: 0.8"/>
      </g>
     </g>
     <g id="text_26">
      <!-- 20 -->
      <g transform="translate(52.275 321.751219)scale(0.1 -0.1)">
       <use xlink:href="#DejaVuSans-32"/>
       <use xlink:href="#DejaVuSans-30" x="63.623047"/>
      </g>
     </g>
    </g>
    <g id="ytick_4">
     <g id="line2d_51">
      <path d="M 72 284.688 
L 518.4 284.688 
" clip-path="url(#p9701912741)" style="fill: none; stroke-dasharray: 0.8,1.32; stroke-dashoffset: 0; stroke: #000000; stroke-opacity: 0.5; stroke-width: 0.8"/>
     </g>
     <g id="line2d_52">
      <g>
       <use xlink:href="#mf711ee7a61" x="72" y="284.688" style="stroke: #000000; stroke-width: 0.8"/>
      </g>
     </g>
     <g id="text_27">
      <!-- 30 -->
      <g transform="translate(52.275 288.487219)scale(0.1 -0.1)">
       <defs>
        <path id="DejaVuSans-33" d="M 2597 2516 
Q 3050 2419 3304 2112 
Q 3559 1806 3559 1356 
Q 3559 666 3084 287 
Q 2609 -91 1734 -91 
Q 1441 -91 1130 -33 
Q 819 25 488 141 
L 488 750 
Q 750 597 1062 519 
Q 1375 441 1716 441 
Q 2309 441 2620 675 
Q 2931 909 2931 1356 
Q 2931 1769 2642 2001 
Q 2353 2234 1838 2234 
L 1294 2234 
L 1294 2753 
L 1863 2753 
Q 2328 2753 2575 2939 
Q 2822 3125 2822 3475 
Q 2822 3834 2567 4026 
Q 2313 4219 1838 4219 
Q 1578 4219 1281 4162 
Q 984 4106 628 3988 
L 628 4550 
Q 988 4650 1302 4700 
Q 1616 4750 1894 4750 
Q 2613 4750 3031 4423 
Q 3450 4097 3450 3541 
Q 3450 3153 3228 2886 
Q 3006 2619 2597 2516 
z
" transform="scale(0.015625)"/>
       </defs>
       <use xlink:href="#DejaVuSans-33"/>
       <use xlink:href="#DejaVuSans-30" x="63.623047"/>
      </g>
     </g>
    </g>
    <g id="ytick_5">
     <g id="line2d_53">
      <path d="M 72 251.424 
L 518.4 251.424 
" clip-path="url(#p9701912741)" style="fill: none; stroke-dasharray: 0.8,1.32; stroke-dashoffset: 0; stroke: #000000; stroke-opacity: 0.5; stroke-width: 0.8"/>
     </g>
     <g id="line2d_54">
      <g>
       <use xlink:href="#mf711ee7a61" x="72" y="251.424" style="stroke: #000000; stroke-width: 0.8"/>
      </g>
     </g>
     <g id="text_28">
      <!-- 40 -->
      <g transform="translate(52.275 255.223219)scale(0.1 -0.1)">
       <defs>
        <path id="DejaVuSans-34" d="M 2419 4116 
L 825 1625 
L 2419 1625 
L 2419 4116 
z
M 2253 4666 
L 3047 4666 
L 3047 1625 
L 3713 1625 
L 3713 1100 
L 3047 1100 
L 3047 0 
L 2419 0 
L 2419 1100 
L 313 1100 
L 313 1709 
L 2253 4666 
z
" transform="scale(0.015625)"/>
       </defs>
       <use xlink:href="#DejaVuSans-34"/>
       <use xlink:href="#DejaVuSans-30" x="63.623047"/>
      </g>
     </g>
    </g>
    <g id="ytick_6">
     <g id="line2d_55">
      <path d="M 72 218.16 
L 518.4 218.16 
" clip-path="url(#p9701912741)" style="fill: none; stroke-dasharray: 0.8,1.32; stroke-dashoffset: 0; stroke: #000000; stroke-opacity: 0.5; stroke-width: 0.8"/>
     </g>
     <g id="line2d_56">
      <g>
       <use xlink:href="#mf711ee7a61" x="72" y="218.16" style="stroke: #000000; stroke-width: 0.8"/>
      </g>
     </g>
     <g id="text_29">
      <!-- 50 -->
      <g transform="translate(52.275 221.959219)scale(0.1 -0.1)">
       <use xlink:href="#DejaVuSans-35"/>
       <use xlink:href="#DejaVuSans-30" x="63.623047"/>
      </g>
     </g>
    </g>
    <g id="ytick_7">
     <g id="line2d_57">
      <path d="M 72 184.896 
L 518.4 184.896 
" clip-path="url(#p9701912741)" style="fill: none; stroke-dasharray: 0.8,1.32; stroke-dashoffset: 0; stroke: #000000; stroke-opacity: 0.5; stroke-width: 0.8"/>
     </g>
     <g id="line2d_58">
      <g>
       <use xlink:href="#mf711ee7a61" x="72" y="184.896" style="stroke: #000000; stroke-width: 0.8"/>
      </g>
     </g>
     <g id="text_30">
      <!-- 60 -->
      <g transform="translate(52.275 188.695219)scale(0.1 -0.1)">
       <defs>
        <path id="DejaVuSans-36" d="M 2113 2584 
Q 1688 2584 1439 2293 
Q 1191 2003 1191 1497 
Q 1191 994 1439 701 
Q 1688 409 2113 409 
Q 2538 409 2786 701 
Q 3034 994 3034 1497 
Q 3034 2003 2786 2293 
Q 2538 2584 2113 2584 
z
M 3366 4563 
L 3366 3988 
Q 3128 4100 2886 4159 
Q 2644 4219 2406 4219 
Q 1781 4219 1451 3797 
Q 1122 3375 1075 2522 
Q 1259 2794 1537 2939 
Q 1816 3084 2150 3084 
Q 2853 3084 3261 2657 
Q 3669 2231 3669 1497 
Q 3669 778 3244 343 
Q 2819 -91 2113 -91 
Q 1303 -91 875 529 
Q 447 1150 447 2328 
Q 447 3434 972 4092 
Q 1497 4750 2381 4750 
Q 2619 4750 2861 4703 
Q 3103 4656 3366 4563 
z
" transform="scale(0.015625)"/>
       </defs>
       <use xlink:href="#DejaVuSans-36"/>
       <use xlink:href="#DejaVuSans-30" x="63.623047"/>
      </g>
     </g>
    </g>
    <g id="ytick_8">
     <g id="line2d_59">
      <path d="M 72 151.632 
L 518.4 151.632 
" clip-path="url(#p9701912741)" style="fill: none; stroke-dasharray: 0.8,1.32; stroke-dashoffset: 0; stroke: #000000; stroke-opacity: 0.5; stroke-width: 0.8"/>
     </g>
     <g id="line2d_60">
      <g>
       <use xlink:href="#mf711ee7a61" x="72" y="151.632" style="stroke: #000000; stroke-width: 0.8"/>
      </g>
     </g>
     <g id="text_31">
      <!-- 70 -->
      <g transform="translate(52.275 155.431219)scale(0.1 -0.1)">
       <defs>
        <path id="DejaVuSans-37" d="M 525 4666 
L 3525 4666 
L 3525 4397 
L 1831 0 
L 1172 0 
L 2766 4134 
L 525 4134 
L 525 4666 
z
" transform="scale(0.015625)"/>
       </defs>
       <use xlink:href="#DejaVuSans-37"/>
       <use xlink:href="#DejaVuSans-30" x="63.623047"/>
      </g>
     </g>
    </g>
    <g id="ytick_9">
     <g id="line2d_61">
      <path d="M 72 118.368 
L 518.4 118.368 
" clip-path="url(#p9701912741)" style="fill: none; stroke-dasharray: 0.8,1.32; stroke-dashoffset: 0; stroke: #000000; stroke-opacity: 0.5; stroke-width: 0.8"/>
     </g>
     <g id="line2d_62">
      <g>
       <use xlink:href="#mf711ee7a61" x="72" y="118.368" style="stroke: #000000; stroke-width: 0.8"/>
      </g>
     </g>
     <g id="text_32">
      <!-- 80 -->
      <g transform="translate(52.275 122.167219)scale(0.1 -0.1)">
       <defs>
        <path id="DejaVuSans-38" d="M 2034 2216 
Q 1584 2216 1326 1975 
Q 1069 1734 1069 1313 
Q 1069 891 1326 650 
Q 1584 409 2034 409 
Q 2484 409 2743 651 
Q 3003 894 3003 1313 
Q 3003 1734 2745 1975 
Q 2488 2216 2034 2216 
z
M 1403 2484 
Q 997 2584 770 2862 
Q 544 3141 544 3541 
Q 544 4100 942 4425 
Q 1341 4750 2034 4750 
Q 2731 4750 3128 4425 
Q 3525 4100 3525 3541 
Q 3525 3141 3298 2862 
Q 3072 2584 2669 2484 
Q 3125 2378 3379 2068 
Q 3634 1759 3634 1313 
Q 3634 634 3220 271 
Q 2806 -91 2034 -91 
Q 1263 -91 848 271 
Q 434 634 434 1313 
Q 434 1759 690 2068 
Q 947 2378 1403 2484 
z
M 1172 3481 
Q 1172 3119 1398 2916 
Q 1625 2713 2034 2713 
Q 2441 2713 2670 2916 
Q 2900 3119 2900 3481 
Q 2900 3844 2670 4047 
Q 2441 4250 2034 4250 
Q 1625 4250 1398 4047 
Q 1172 3844 1172 3481 
z
" transform="scale(0.015625)"/>
       </defs>
       <use xlink:href="#DejaVuSans-38"/>
       <use xlink:href="#DejaVuSans-30" x="63.623047"/>
      </g>
     </g>
    </g>
    <g id="ytick_10">
     <g id="line2d_63">
      <path d="M 72 85.104 
L 518.4 85.104 
" clip-path="url(#p9701912741)" style="fill: none; stroke-dasharray: 0.8,1.32; stroke-dashoffset: 0; stroke: #000000; stroke-opacity: 0.5; stroke-width: 0.8"/>
     </g>
     <g id="line2d_64">
      <g>
       <use xlink:href="#mf711ee7a61" x="72" y="85.104" style="stroke: #000000; stroke-width: 0.8"/>
      </g>
     </g>
     <g id="text_33">
      <!-- 90 -->
      <g transform="translate(52.275 88.903219)scale(0.1 -0.1)">
       <defs>
        <path id="DejaVuSans-39" d="M 703 97 
L 703 672 
Q 941 559 1184 500 
Q 1428 441 1663 441 
Q 2288 441 2617 861 
Q 2947 1281 2994 2138 
Q 2813 1869 2534 1725 
Q 2256 1581 1919 1581 
Q 1219 1581 811 2004 
Q 403 2428 403 3163 
Q 403 3881 828 4315 
Q 1253 4750 1959 4750 
Q 2769 4750 3195 4129 
Q 3622 3509 3622 2328 
Q 3622 1225 3098 567 
Q 2575 -91 1691 -91 
Q 1453 -91 1209 -44 
Q 966 3 703 97 
z
M 1959 2075 
Q 2384 2075 2632 2365 
Q 2881 2656 2881 3163 
Q 2881 3666 2632 3958 
Q 2384 4250 1959 4250 
Q 1534 4250 1286 3958 
Q 1038 3666 1038 3163 
Q 1038 2656 1286 2365 
Q 1534 2075 1959 2075 
z
" transform="scale(0.015625)"/>
       </defs>
       <use xlink:href="#DejaVuSans-39"/>
       <use xlink:href="#DejaVuSans-30" x="63.623047"/>
      </g>
     </g>
    </g>
    <g id="ytick_11">
     <g id="line2d_65">
      <path d="M 72 51.84 
L 518.4 51.84 
" clip-path="url(#p9701912741)" style="fill: none; stroke-dasharray: 0.8,1.32; stroke-dashoffset: 0; stroke: #000000; stroke-opacity: 0.5; stroke-width: 0.8"/>
     </g>
     <g id="line2d_66">
      <g>
       <use xlink:href="#mf711ee7a61" x="72" y="51.84" style="stroke: #000000; stroke-width: 0.8"/>
      </g>
     </g>
     <g id="text_34">
      <!-- 100 -->
      <g transform="translate(45.9125 55.639219)scale(0.1 -0.1)">
       <use xlink:href="#DejaVuSans-31"/>
       <use xlink:href="#DejaVuSans-30" x="63.623047"/>
       <use xlink:href="#DejaVuSans-30" x="127.246094"/>
      </g>
     </g>
    </g>
    <g id="text_35">
     <!-- Vaccine coverage (% of 12+ population) -->
     <g transform="translate(39.832812 319.181094)rotate(-90)scale(0.1 -0.1)">
      <defs>
       <path id="DejaVuSans-56" d="M 1831 0 
L 50 4666 
L 709 4666 
L 2188 738 
L 3669 4666 
L 4325 4666 
L 2547 0 
L 1831 0 
z
" transform="scale(0.015625)"/>
       <path id="DejaVuSans-69" d="M 603 3500 
L 1178 3500 
L 1178 0 
L 603 0 
L 603 3500 
z
M 603 4863 
L 1178 4863 
L 1178 4134 
L 603 4134 
L 603 4863 
z
" transform="scale(0.015625)"/>
       <path id="DejaVuSans-20" transform="scale(0.015625)"/>
       <path id="DejaVuSans-28" d="M 1984 4856 
Q 1566 4138 1362 3434 
Q 1159 2731 1159 2009 
Q 1159 1288 1364 580 
Q 1569 -128 1984 -844 
L 1484 -844 
Q 1016 -109 783 600 
Q 550 1309 550 2009 
Q 550 2706 781 3412 
Q 1013 4119 1484 4856 
L 1984 4856 
z
" transform="scale(0.015625)"/>
       <path id="DejaVuSans-25" d="M 4653 2053 
Q 4381 2053 4226 1822 
Q 4072 1591 4072 1178 
Q 4072 772 4226 539 
Q 4381 306 4653 306 
Q 4919 306 5073 539 
Q 5228 772 5228 1178 
Q 5228 1588 5073 1820 
Q 4919 2053 4653 2053 
z
M 4653 2450 
Q 5147 2450 5437 2106 
Q 5728 1763 5728 1178 
Q 5728 594 5436 251 
Q 5144 -91 4653 -91 
Q 4153 -91 3862 251 
Q 3572 594 3572 1178 
Q 3572 1766 3864 2108 
Q 4156 2450 4653 2450 
z
M 1428 4353 
Q 1159 4353 1004 4120 
Q 850 3888 850 3481 
Q 850 3069 1003 2837 
Q 1156 2606 1428 2606 
Q 1700 2606 1854 2837 
Q 2009 3069 2009 3481 
Q 2009 3884 1853 4118 
Q 1697 4353 1428 4353 
z
M 4250 4750 
L 4750 4750 
L 1831 -91 
L 1331 -91 
L 4250 4750 
z
M 1428 4750 
Q 1922 4750 2215 4408 
Q 2509 4066 2509 3481 
Q 2509 2891 2217 2550 
Q 1925 2209 1428 2209 
Q 931 2209 642 2551 
Q 353 2894 353 3481 
Q 353 4063 643 4406 
Q 934 4750 1428 4750 
z
" transform="scale(0.015625)"/>
       <path id="DejaVuSans-66" d="M 2375 4863 
L 2375 4384 
L 1825 4384 
Q 1516 4384 1395 4259 
Q 1275 4134 1275 3809 
L 1275 3500 
L 2222 3500 
L 2222 3053 
L 1275 3053 
L 1275 0 
L 697 0 
L 697 3053 
L 147 3053 
L 147 3500 
L 697 3500 
L 697 3744 
Q 697 4328 969 4595 
Q 1241 4863 1831 4863 
L 2375 4863 
z
" transform="scale(0.015625)"/>
       <path id="DejaVuSans-2b" d="M 2944 4013 
L 2944 2272 
L 4684 2272 
L 4684 1741 
L 2944 1741 
L 2944 0 
L 2419 0 
L 2419 1741 
L 678 1741 
L 678 2272 
L 2419 2272 
L 2419 4013 
L 2944 4013 
z
" transform="scale(0.015625)"/>
       <path id="DejaVuSans-6c" d="M 603 4863 
L 1178 4863 
L 1178 0 
L 603 0 
L 603 4863 
z
" transform="scale(0.015625)"/>
       <path id="DejaVuSans-29" d="M 513 4856 
L 1013 4856 
Q 1481 4119 1714 3412 
Q 1947 2706 1947 2009 
Q 1947 1309 1714 600 
Q 1481 -109 1013 -844 
L 513 -844 
Q 928 -128 1133 580 
Q 1338 1288 1338 2009 
Q 1338 2731 1133 3434 
Q 928 4138 513 4856 
z
" transform="scale(0.015625)"/>
      </defs>
      <use xlink:href="#DejaVuSans-56"/>
      <use xlink:href="#DejaVuSans-61" x="60.658203"/>
      <use xlink:href="#DejaVuSans-63" x="121.9375"/>
      <use xlink:href="#DejaVuSans-63" x="176.917969"/>
      <use xlink:href="#DejaVuSans-69" x="231.898438"/>
      <use xlink:href="#DejaVuSans-6e" x="259.681641"/>
      <use xlink:href="#DejaVuSans-65" x="323.060547"/>
      <use xlink:href="#DejaVuSans-20" x="384.583984"/>
      <use xlink:href="#DejaVuSans-63" x="416.371094"/>
      <use xlink:href="#DejaVuSans-6f" x="471.351562"/>
      <use xlink:href="#DejaVuSans-76" x="532.533203"/>
      <use xlink:href="#DejaVuSans-65" x="591.712891"/>
      <use xlink:href="#DejaVuSans-72" x="653.236328"/>
      <use xlink:href="#DejaVuSans-61" x="694.349609"/>
      <use xlink:href="#DejaVuSans-67" x="755.628906"/>
      <use xlink:href="#DejaVuSans-65" x="819.105469"/>
      <use xlink:href="#DejaVuSans-20" x="880.628906"/>
      <use xlink:href="#DejaVuSans-28" x="912.416016"/>
      <use xlink:href="#DejaVuSans-25" x="951.429688"/>
      <use xlink:href="#DejaVuSans-20" x="1046.449219"/>
      <use xlink:href="#DejaVuSans-6f" x="1078.236328"/>
      <use xlink:href="#DejaVuSans-66" x="1139.417969"/>
      <use xlink:href="#DejaVuSans-20" x="1174.623047"/>
      <use xlink:href="#DejaVuSans-31" x="1206.410156"/>
      <use xlink:href="#DejaVuSans-32" x="1270.033203"/>
      <use xlink:href="#DejaVuSans-2b" x="1333.65625"/>
      <use xlink:href="#DejaVuSans-20" x="1417.445312"/>
      <use xlink:href="#DejaVuSans-70" x="1449.232422"/>
      <use xlink:href="#DejaVuSans-6f" x="1512.708984"/>
      <use xlink:href="#DejaVuSans-70" x="1573.890625"/>
      <use xlink:href="#DejaVuSans-75" x="1637.367188"/>
      <use xlink:href="#DejaVuSans-6c" x="1700.746094"/>
      <use xlink:href="#DejaVuSans-61" x="1728.529297"/>
      <use xlink:href="#DejaVuSans-74" x="1789.808594"/>
      <use xlink:href="#DejaVuSans-69" x="1829.017578"/>
      <use xlink:href="#DejaVuSans-6f" x="1856.800781"/>
      <use xlink:href="#DejaVuSans-6e" x="1917.982422"/>
      <use xlink:href="#DejaVuSans-29" x="1981.361328"/>
     </g>
    </g>
   </g>
   <g id="line2d_67">
    <path d="M -1 335.5054 
L -0.314019 334.465368 
L 1.076636 333.330374 
L 5.248598 328.619687 
L 6.639252 327.800604 
L 8.029907 326.811508 
L 10.811215 323.489316 
L 13.592523 319.467662 
L 14.983178 317.732379 
L 16.373832 316.564191 
L 17.764486 315.605135 
L 19.15514 314.23383 
L 21.936449 310.248657 
L 23.327103 308.272222 
L 24.717757 306.851216 
L 27.499065 305.424396 
L 28.88972 304.455716 
L 30.280374 303.119048 
L 33.061682 299.657467 
L 34.452336 298.342543 
L 35.842991 297.701647 
L 37.233645 297.892678 
L 38.624299 297.93391 
L 40.014953 296.41471 
L 41.405607 294.702929 
L 42.796262 293.191779 
L 44.186916 291.998068 
L 45.57757 291.32352 
L 48.358879 291.887848 
L 49.749533 290.321968 
L 51.140187 289.478572 
L 52.530841 289.561304 
L 55.31215 288.175396 
L 56.702804 287.47832 
L 59.484112 285.255511 
L 62.265421 283.002338 
L 63.656075 282.053686 
L 66.437383 280.623944 
L 69.218692 278.317574 
L 72 275.892465 
L 73.390654 274.844339 
L 76.171963 273.261896 
L 78.953271 270.611676 
L 81.734579 267.700539 
L 83.125234 266.444981 
L 85.906542 264.628222 
L 87.297196 263.277263 
L 92.859813 257.253373 
L 95.641121 255.423751 
L 97.031776 253.999595 
L 99.813084 250.677118 
L 101.203738 248.889695 
L 102.594393 247.377302 
L 105.375701 245.234217 
L 106.766355 243.50094 
L 112.328972 235.58877 
L 113.719626 234.333253 
L 115.11028 232.892591 
L 117.891589 228.470864 
L 120.672897 223.578132 
L 122.063551 221.416662 
L 123.454206 219.781569 
L 124.84486 217.967543 
L 127.626168 212.963638 
L 130.407477 207.83463 
L 131.798131 205.498651 
L 134.579439 201.699118 
L 135.970093 199.251707 
L 138.751402 193.781382 
L 141.53271 188.949129 
L 144.314019 185.530977 
L 145.704673 183.410751 
L 151.26729 174.000595 
L 152.657944 172.436639 
L 154.048598 170.533052 
L 156.829907 165.5345 
L 161.001869 158.451588 
L 163.783178 154.650344 
L 169.345794 144.522281 
L 170.736449 142.535026 
L 173.517757 139.417692 
L 176.299065 134.977258 
L 179.080374 130.445526 
L 180.471028 128.584842 
L 181.861682 127.296716 
L 183.252336 126.174577 
L 184.642991 124.636469 
L 188.814953 119.028112 
L 190.205607 117.550593 
L 192.986916 115.421765 
L 198.549533 109.685114 
L 199.940187 108.557091 
L 202.721495 106.87168 
L 209.674766 101.175888 
L 212.456075 99.656936 
L 216.628037 96.822842 
L 218.018692 95.961734 
L 219.409346 95.275109 
L 222.190654 94.285574 
L 227.753271 91.81476 
L 229.143925 91.275864 
L 231.925234 90.541567 
L 234.706542 89.434171 
L 238.878505 87.418701 
L 241.659813 86.546294 
L 247.22243 84.180247 
L 248.613084 83.732443 
L 251.394393 83.123851 
L 255.566355 81.629131 
L 258.347664 80.83624 
L 261.128972 80.362569 
L 266.691589 78.997727 
L 269.472897 78.590184 
L 272.254206 78.151136 
L 277.816822 77.120637 
L 280.598131 76.832296 
L 287.551402 75.386304 
L 291.723364 74.78359 
L 294.504673 74.269816 
L 295.895327 74.119197 
L 298.676636 74.016483 
L 305.629907 73.397233 
L 308.411215 73.283646 
L 315.364486 72.419976 
L 318.145794 72.114696 
L 319.536449 71.76558 
L 320.927103 70.97433 
L 323.708411 68.958571 
L 325.099065 68.342357 
L 325.099065 68.342357 
" clip-path="url(#p9701912741)" style="fill: none; stroke: #1f77b4; stroke-width: 1.5; stroke-linecap: square"/>
   </g>
   <g id="line2d_68">
    <path d="M -1 337.199433 
L -0.314019 337.251431 
L 2.46729 335.265691 
L 6.639252 330.850411 
L 9.420561 329.5082 
L 12.201869 326.651068 
L 14.983178 323.271794 
L 16.373832 322.051249 
L 17.764486 321.465076 
L 19.15514 321.084149 
L 20.545794 320.190074 
L 24.717757 315.570289 
L 26.108411 314.626053 
L 28.88972 313.947863 
L 30.280374 313.233932 
L 31.671028 312.172225 
L 34.452336 309.362457 
L 35.842991 308.340644 
L 37.233645 307.917575 
L 38.624299 308.21677 
L 40.014953 308.283486 
L 41.405607 307.046166 
L 44.186916 304.043217 
L 45.57757 302.889551 
L 46.968224 302.184203 
L 48.358879 302.264465 
L 49.749533 302.213533 
L 51.140187 300.516369 
L 52.530841 299.227418 
L 53.921495 298.741086 
L 56.702804 296.860445 
L 58.093458 295.947607 
L 60.874766 293.171755 
L 63.656075 290.376625 
L 65.046729 289.151628 
L 67.828037 287.154276 
L 74.781308 279.664037 
L 77.562617 277.82905 
L 78.953271 276.320161 
L 81.734579 272.591429 
L 83.125234 270.722937 
L 84.515888 269.076106 
L 87.297196 266.917136 
L 88.68785 265.226315 
L 90.078505 262.722644 
L 91.469159 259.884448 
L 92.859813 257.55206 
L 94.250467 255.580303 
L 97.031776 253.144458 
L 98.42243 251.006985 
L 101.203738 246.070902 
L 102.594393 243.469458 
L 103.985047 241.340432 
L 105.375701 239.972675 
L 106.766355 238.426297 
L 108.157009 235.742668 
L 110.938318 229.583149 
L 112.328972 226.594841 
L 113.719626 223.974976 
L 115.11028 222.06665 
L 116.500935 219.901901 
L 117.891589 216.930459 
L 120.672897 209.915328 
L 122.063551 206.301725 
L 123.454206 203.064138 
L 124.84486 200.583738 
L 126.235514 197.734568 
L 129.016822 190.057144 
L 131.798131 181.977796 
L 133.188785 178.662579 
L 134.579439 176.229699 
L 135.970093 173.12609 
L 140.142056 162.058959 
L 142.923364 155.559401 
L 144.314019 153.107124 
L 145.704673 151.113959 
L 148.485981 146.315111 
L 151.26729 141.094395 
L 152.657944 138.97104 
L 154.048598 136.36213 
L 155.439252 132.968671 
L 158.220561 128.196614 
L 161.001869 123.77828 
L 163.783178 120.701477 
L 169.345794 111.481288 
L 170.736449 109.562225 
L 173.517757 106.847263 
L 179.080374 98.629319 
L 180.471028 97.086839 
L 181.861682 96.219324 
L 183.252336 95.694262 
L 184.642991 94.716896 
L 187.424299 91.442933 
L 188.814953 89.963862 
L 190.205607 88.775538 
L 192.986916 87.244786 
L 197.158879 83.726297 
L 198.549533 82.742699 
L 199.940187 81.99232 
L 202.721495 81.081856 
L 206.893458 79.051263 
L 208.284112 78.473194 
L 209.674766 78.054902 
L 212.456075 77.570978 
L 216.628037 76.524139 
L 219.409346 76.011418 
L 222.190654 75.755787 
L 229.143925 74.722498 
L 233.315888 74.414402 
L 240.269159 73.69479 
L 244.441121 73.402193 
L 248.613084 73.087342 
L 252.785047 72.867064 
L 258.347664 72.558291 
L 265.300935 72.268716 
L 279.207477 71.723437 
L 284.770093 71.508105 
L 294.504673 71.147442 
L 318.145794 70.669874 
L 319.536449 70.384625 
L 320.927103 69.669327 
L 323.708411 67.926975 
L 325.099065 67.404265 
L 325.099065 67.404265 
" clip-path="url(#p9701912741)" style="fill: none; stroke: #ff7f0e; stroke-width: 1.5; stroke-linecap: square"/>
   </g>
   <g id="line2d_69">
    <path d="M -1 335.161483 
L -0.314019 335.14997 
L 1.076636 334.469113 
L 2.46729 333.267466 
L 3.857944 331.420162 
L 6.639252 327.123925 
L 8.029907 325.656561 
L 9.420561 324.02405 
L 10.811215 321.679858 
L 17.764486 308.437125 
L 20.545794 303.532826 
L 24.717757 295.43611 
L 26.108411 293.493444 
L 27.499065 292.274873 
L 28.88972 291.417782 
L 30.280374 290.239151 
L 34.452336 284.576789 
L 35.842991 283.276154 
L 37.233645 282.627124 
L 38.624299 282.746905 
L 40.014953 282.717715 
L 42.796262 279.577256 
L 45.57757 277.772902 
L 46.968224 277.286905 
L 49.749533 277.365954 
L 51.140187 276.303774 
L 52.530841 276.52423 
L 53.921495 277.698246 
L 56.702804 277.037817 
L 58.093458 276.59846 
L 63.656075 273.553465 
L 65.046729 272.972691 
L 66.437383 272.576615 
L 67.828037 272.02612 
L 70.609346 270.287515 
L 74.781308 267.412071 
L 77.562617 265.828961 
L 84.515888 259.82444 
L 87.297196 258.006643 
L 88.68785 256.802845 
L 91.469159 254.959981 
L 94.250467 252.778782 
L 97.031776 251.171564 
L 101.203738 247.961783 
L 103.985047 245.782999 
L 105.375701 244.994032 
L 106.766355 244.046833 
L 108.157009 242.720421 
L 110.938318 239.626279 
L 112.328972 237.94364 
L 113.719626 236.441888 
L 115.11028 235.530825 
L 116.500935 234.416946 
L 120.672897 228.855602 
L 122.063551 227.019153 
L 123.454206 225.397265 
L 126.235514 222.664976 
L 127.626168 220.711771 
L 129.016822 218.545396 
L 130.407477 216.637531 
L 131.798131 214.918955 
L 134.579439 210.245493 
L 135.970093 208.727648 
L 137.360748 206.652195 
L 138.751402 203.594349 
L 141.53271 198.294975 
L 142.923364 196.030239 
L 144.314019 194.267834 
L 145.704673 192.318247 
L 147.095327 189.635303 
L 152.657944 177.661863 
L 154.048598 174.204348 
L 155.439252 170.085597 
L 161.001869 157.244707 
L 163.783178 151.76566 
L 166.564486 145.067362 
L 167.95514 141.623743 
L 169.345794 138.604883 
L 170.736449 136.327018 
L 172.127103 134.33724 
L 173.517757 132.084723 
L 177.68972 123.751507 
L 179.080374 121.08182 
L 180.471028 118.749353 
L 183.252336 115.142777 
L 187.424299 108.509112 
L 188.814953 106.530378 
L 190.205607 104.840414 
L 192.986916 102.348604 
L 199.940187 94.459712 
L 202.721495 92.674493 
L 208.284112 87.474831 
L 209.674766 86.4922 
L 212.456075 85.147738 
L 215.237383 83.449146 
L 218.018692 82.094157 
L 219.409346 81.589865 
L 223.581308 80.62797 
L 224.971963 80.38942 
L 229.143925 79.402993 
L 233.315888 78.839879 
L 238.878505 77.866674 
L 244.441121 77.250954 
L 250.003738 76.638123 
L 252.785047 76.25427 
L 258.347664 75.550498 
L 263.91028 75.129594 
L 269.472897 74.80006 
L 275.035514 74.472973 
L 286.160748 73.907158 
L 297.285981 73.529776 
L 313.973832 73.256591 
L 318.145794 73.124769 
L 319.536449 72.884447 
L 320.927103 72.204849 
L 323.708411 70.52498 
L 325.099065 69.977563 
L 325.099065 69.977563 
" clip-path="url(#p9701912741)" style="fill: none; stroke: #2ca02c; stroke-width: 1.5; stroke-linecap: square"/>
   </g>
   <g id="line2d_70">
    <path d="M -1 353.454211 
L -0.314019 341.06576 
L 1.076636 336.28164 
L 2.46729 335.012852 
L 5.248598 331.958349 
L 6.639252 330.932427 
L 8.029907 330.555715 
L 9.420561 329.910246 
L 10.811215 328.632832 
L 12.201869 327.153912 
L 16.373832 321.82739 
L 17.764486 320.840083 
L 19.15514 320.082544 
L 20.545794 318.85423 
L 23.327103 314.936133 
L 24.717757 312.937137 
L 26.108411 311.479613 
L 27.499065 310.698951 
L 28.88972 309.700036 
L 31.671028 307.142347 
L 35.842991 301.252075 
L 37.233645 300.422725 
L 40.014953 301.456905 
L 41.405607 299.604756 
L 44.186916 295.250209 
L 45.57757 293.638891 
L 46.968224 292.800808 
L 48.358879 294.003594 
L 49.749533 295.416233 
L 51.140187 293.490559 
L 52.530841 292.819445 
L 53.921495 293.721279 
L 56.702804 292.47687 
L 58.093458 291.971697 
L 59.484112 291.180865 
L 65.046729 286.964699 
L 67.828037 285.911745 
L 69.218692 285.150237 
L 72 282.992147 
L 73.390654 281.895246 
L 74.781308 281.004419 
L 77.562617 279.915143 
L 78.953271 279.113412 
L 81.734579 276.920969 
L 83.125234 275.790895 
L 84.515888 274.847334 
L 87.297196 273.58528 
L 88.68785 272.723951 
L 90.078505 272.185342 
L 91.469159 271.829783 
L 94.250467 269.97776 
L 97.031776 268.726738 
L 98.42243 267.695602 
L 99.813084 266.31579 
L 103.985047 261.423066 
L 106.766355 259.558857 
L 108.157009 258.302249 
L 109.547664 256.755422 
L 113.719626 251.772593 
L 116.500935 249.616118 
L 117.891589 248.090715 
L 120.672897 244.469978 
L 123.454206 240.884165 
L 126.235514 238.501602 
L 127.626168 236.96302 
L 130.407477 233.223801 
L 131.798131 231.355627 
L 133.188785 229.81823 
L 135.970093 227.524375 
L 137.360748 226.074778 
L 141.53271 221.091696 
L 142.923364 219.63041 
L 145.704673 217.511993 
L 147.095327 216.097207 
L 149.876636 212.704477 
L 154.048598 207.33481 
L 155.439252 204.957488 
L 161.001869 197.461322 
L 162.392523 196.367406 
L 163.783178 194.541946 
L 165.173832 191.382286 
L 169.345794 184.692534 
L 170.736449 182.843331 
L 173.517757 180.017793 
L 174.908411 178.17616 
L 177.68972 173.925127 
L 179.080374 171.670369 
L 180.471028 169.804756 
L 181.861682 168.534955 
L 183.252336 167.604558 
L 184.642991 166.455147 
L 188.814953 161.373654 
L 190.205607 160.0351 
L 192.986916 157.922014 
L 197.158879 153.927585 
L 198.549533 152.668988 
L 199.940187 151.648959 
L 201.330841 150.859833 
L 202.721495 149.900643 
L 204.11215 148.632128 
L 206.893458 145.669551 
L 209.674766 142.733704 
L 211.065421 141.482732 
L 218.018692 133.824777 
L 219.409346 132.676294 
L 220.8 131.748385 
L 222.190654 130.682836 
L 223.581308 129.435918 
L 226.362617 127.391189 
L 227.753271 126.455238 
L 229.143925 125.672779 
L 231.925234 124.471879 
L 233.315888 123.648338 
L 234.706542 122.519713 
L 236.097196 120.918337 
L 237.48785 119.093541 
L 238.878505 117.527762 
L 241.659813 115.086483 
L 244.441121 112.095573 
L 247.22243 109.473503 
L 248.613084 108.518277 
L 250.003738 107.96883 
L 251.394393 107.264578 
L 252.785047 106.122036 
L 255.566355 104.261161 
L 256.957009 103.444658 
L 258.347664 102.787324 
L 261.128972 101.876728 
L 266.691589 99.360323 
L 268.082243 98.877461 
L 270.863551 98.186482 
L 273.64486 97.018261 
L 276.426168 95.803889 
L 277.816822 95.400015 
L 279.207477 95.138938 
L 280.598131 94.711094 
L 287.551402 90.895164 
L 291.723364 89.41337 
L 294.504673 88.392108 
L 295.895327 88.143853 
L 298.676636 87.960478 
L 300.06729 87.739653 
L 302.848598 87.528844 
L 305.629907 87.110229 
L 308.411215 86.955034 
L 313.973832 86.064583 
L 316.75514 85.490588 
L 318.145794 85.33922 
L 319.536449 85.046114 
L 320.927103 84.211693 
L 323.708411 81.804968 
L 325.099065 81.094125 
L 325.099065 81.094125 
" clip-path="url(#p9701912741)" style="fill: none; stroke: #d62728; stroke-width: 1.5; stroke-linecap: square"/>
   </g>
   <g id="line2d_71">
    <path d="M -1 334.923045 
L -0.314019 335.107462 
L 1.076636 334.192531 
L 3.857944 331.718393 
L 5.248598 330.498223 
L 6.639252 329.496289 
L 8.029907 328.784271 
L 9.420561 327.931886 
L 13.592523 324.427961 
L 14.983178 322.999586 
L 16.373832 321.738681 
L 17.764486 321.290818 
L 19.15514 321.300671 
L 20.545794 320.762343 
L 21.936449 319.696911 
L 23.327103 318.408695 
L 24.717757 316.92545 
L 26.108411 315.74686 
L 28.88972 314.512847 
L 31.671028 312.432304 
L 34.452336 310.182907 
L 35.842991 309.312361 
L 37.233645 309.001791 
L 38.624299 308.355186 
L 40.014953 307.353843 
L 42.796262 305.198863 
L 44.186916 304.188623 
L 45.57757 303.438544 
L 46.968224 303.180085 
L 48.358879 302.486996 
L 49.749533 301.395129 
L 53.921495 297.291158 
L 55.31215 296.26007 
L 58.093458 294.675124 
L 59.484112 293.581567 
L 63.656075 289.773608 
L 65.046729 288.731057 
L 67.828037 287.325795 
L 69.218692 286.402685 
L 74.781308 282.185291 
L 77.562617 280.631274 
L 80.343925 278.502581 
L 83.125234 276.079427 
L 84.515888 275.047792 
L 90.078505 271.781764 
L 91.469159 271.08107 
L 94.250467 268.776783 
L 98.42243 266.21237 
L 99.813084 265.117964 
L 102.594393 262.542808 
L 103.985047 261.475209 
L 106.766355 259.922627 
L 108.157009 258.91048 
L 110.938318 256.373087 
L 113.719626 253.916005 
L 115.11028 252.985804 
L 116.500935 251.866293 
L 117.891589 250.266204 
L 119.282243 248.435258 
L 122.063551 244.419218 
L 123.454206 242.812999 
L 126.235514 240.044207 
L 129.016822 236.404774 
L 133.188785 230.833147 
L 135.970093 227.872681 
L 138.751402 224.041519 
L 141.53271 219.980212 
L 142.923364 218.324225 
L 145.704673 215.60703 
L 148.485981 212.183761 
L 151.26729 208.67508 
L 152.657944 207.226564 
L 154.048598 205.506215 
L 155.439252 203.387406 
L 158.220561 199.965229 
L 159.611215 198.409681 
L 161.001869 197.049984 
L 162.392523 195.971877 
L 163.783178 194.739999 
L 165.173832 192.945531 
L 169.345794 186.772295 
L 170.736449 185.15708 
L 172.127103 184.092942 
L 173.517757 183.287854 
L 174.908411 182.107436 
L 176.299065 180.25071 
L 179.080374 176.174154 
L 180.471028 174.490621 
L 183.252336 171.718879 
L 184.642991 169.808497 
L 190.205607 161.534381 
L 192.986916 158.909671 
L 199.940187 150.100565 
L 202.721495 147.723643 
L 205.502804 144.808849 
L 209.674766 140.153772 
L 212.456075 138.082357 
L 218.018692 132.302965 
L 219.409346 131.112426 
L 222.190654 129.560739 
L 224.971963 127.440394 
L 226.362617 126.430184 
L 229.143925 123.985684 
L 231.925234 122.240952 
L 238.878505 116.784612 
L 241.659813 115.488131 
L 247.22243 111.283317 
L 248.613084 110.414231 
L 251.394393 109.250554 
L 256.957009 105.480281 
L 258.347664 104.714336 
L 259.738318 104.226227 
L 261.128972 103.600043 
L 263.91028 101.641694 
L 266.691589 100.06484 
L 268.082243 99.483281 
L 270.863551 98.701434 
L 276.426168 96.431734 
L 277.816822 95.957108 
L 280.598131 95.28264 
L 283.379439 93.976803 
L 287.551402 91.855583 
L 290.33271 90.959983 
L 294.504673 88.703785 
L 295.895327 88.250797 
L 297.285981 88.172027 
L 298.676636 87.912427 
L 300.06729 87.434546 
L 301.457944 87.08216 
L 302.848598 86.515821 
L 304.239252 85.62326 
L 305.629907 85.013124 
L 307.020561 84.904735 
L 308.411215 84.536274 
L 313.973832 81.818259 
L 315.364486 81.049462 
L 316.75514 80.413187 
L 318.145794 80.01443 
L 319.536449 79.448363 
L 320.927103 78.349119 
L 323.708411 75.835824 
L 325.099065 75.079481 
L 325.099065 75.079481 
" clip-path="url(#p9701912741)" style="fill: none; stroke: #9467bd; stroke-width: 1.5; stroke-linecap: square"/>
   </g>
   <g id="line2d_72">
    <path d="M -1 350.587865 
L -0.314019 337.076785 
L 1.076636 332.235348 
L 2.46729 331.321904 
L 5.248598 328.152024 
L 6.639252 326.923308 
L 8.029907 326.330787 
L 9.420561 325.551472 
L 12.201869 323.269915 
L 14.983178 319.298806 
L 16.373832 317.690334 
L 17.764486 316.875968 
L 19.15514 316.413865 
L 20.545794 315.326092 
L 21.936449 313.198377 
L 24.717757 308.412461 
L 26.108411 306.794574 
L 27.499065 305.949354 
L 30.280374 304.823785 
L 31.671028 303.70027 
L 34.452336 299.318611 
L 35.842991 297.56411 
L 37.233645 296.529661 
L 38.624299 296.359293 
L 40.014953 295.924726 
L 41.405607 293.833819 
L 44.186916 289.145257 
L 45.57757 287.391812 
L 46.968224 286.406048 
L 48.358879 287.055609 
L 49.749533 287.886876 
L 51.140187 286.1152 
L 52.530841 285.323133 
L 53.921495 285.767638 
L 58.093458 283.680846 
L 63.656075 279.057792 
L 65.046729 278.265432 
L 67.828037 277.123755 
L 69.218692 276.180697 
L 73.390654 272.89914 
L 74.781308 271.993041 
L 77.562617 270.519025 
L 78.953271 269.342822 
L 81.734579 266.373346 
L 83.125234 264.879763 
L 84.515888 263.67954 
L 87.297196 261.970164 
L 92.859813 256.821673 
L 94.250467 255.756993 
L 97.031776 254.272623 
L 99.813084 251.649089 
L 102.594393 248.923903 
L 103.985047 247.823825 
L 106.766355 246.168005 
L 109.547664 243.519963 
L 112.328972 240.847796 
L 113.719626 239.727402 
L 116.500935 238.102468 
L 117.891589 236.794448 
L 123.454206 230.745141 
L 126.235514 228.777338 
L 129.016822 225.814973 
L 131.798131 222.722032 
L 133.188785 221.481072 
L 135.970093 219.638607 
L 137.360748 218.219406 
L 140.142056 214.803095 
L 141.53271 213.0009 
L 142.923364 211.399506 
L 145.704673 208.995375 
L 147.095327 207.26079 
L 151.26729 201.172359 
L 152.657944 199.528763 
L 154.048598 197.627291 
L 155.439252 195.28595 
L 159.611215 189.564071 
L 161.001869 187.851972 
L 163.783178 185.268613 
L 165.173832 183.549159 
L 169.345794 177.686041 
L 170.736449 176.116148 
L 172.127103 174.940703 
L 173.517757 173.587826 
L 177.68972 167.731963 
L 179.080374 165.758996 
L 180.471028 164.106873 
L 183.252336 161.993654 
L 184.642991 160.560806 
L 188.814953 153.973457 
L 190.205607 152.175394 
L 192.986916 149.526814 
L 199.940187 140.348696 
L 202.721495 137.780728 
L 208.284112 131.078937 
L 211.065421 128.245356 
L 212.456075 127.058677 
L 215.237383 124.181958 
L 218.018692 121.154304 
L 219.409346 119.880305 
L 222.190654 118.083829 
L 226.362617 114.45418 
L 227.753271 113.22993 
L 229.143925 112.19511 
L 233.315888 109.837918 
L 238.878505 105.99634 
L 241.659813 104.808842 
L 244.441121 103.007332 
L 250.003738 99.019187 
L 251.394393 98.179951 
L 255.566355 94.635524 
L 256.957009 93.572504 
L 258.347664 92.706302 
L 261.128972 91.532133 
L 265.300935 89.348464 
L 268.082243 88.215326 
L 270.863551 87.559604 
L 277.816822 85.190438 
L 280.598131 84.770765 
L 287.551402 83.050994 
L 290.33271 82.658603 
L 294.504673 81.714957 
L 295.895327 81.549866 
L 298.676636 81.451288 
L 311.192523 80.224979 
L 315.364486 79.299414 
L 319.536449 78.611215 
L 320.927103 77.877936 
L 323.708411 76.055841 
L 325.099065 75.494443 
L 325.099065 75.494443 
" clip-path="url(#p9701912741)" style="fill: none; stroke: #8c564b; stroke-width: 1.5; stroke-linecap: square"/>
   </g>
   <g id="line2d_73">
    <path d="M -1 336.555695 
L -0.314019 317.466249 
L 1.076636 310.851801 
L 2.46729 309.94283 
L 6.639252 305.575421 
L 8.029907 304.430742 
L 9.420561 303.015306 
L 10.811215 300.649475 
L 12.201869 298.733326 
L 14.983178 295.155274 
L 16.373832 292.934061 
L 17.764486 291.371258 
L 19.15514 290.521615 
L 20.545794 289.229289 
L 24.717757 282.679413 
L 26.108411 280.774418 
L 27.499065 279.779413 
L 28.88972 279.330505 
L 30.280374 278.579546 
L 31.671028 276.956398 
L 33.061682 274.868193 
L 35.842991 270.152974 
L 37.233645 268.407379 
L 38.624299 269.90624 
L 40.014953 272.462138 
L 41.405607 270.567182 
L 42.796262 267.996076 
L 44.186916 265.759395 
L 45.57757 263.83928 
L 46.968224 262.277233 
L 48.358879 263.312007 
L 49.749533 265.067528 
L 51.140187 263.433701 
L 52.530841 263.211561 
L 53.921495 264.626991 
L 56.702804 264.026481 
L 58.093458 263.189705 
L 59.484112 261.905078 
L 62.265421 260.90731 
L 63.656075 260.38321 
L 65.046729 258.931303 
L 66.437383 256.957018 
L 67.828037 255.849151 
L 70.609346 253.282513 
L 73.390654 250.751209 
L 74.781308 249.956036 
L 76.171963 249.576906 
L 77.562617 248.61417 
L 78.953271 246.899919 
L 81.734579 244.124912 
L 83.125234 242.564987 
L 84.515888 241.456252 
L 85.906542 241.006755 
L 87.297196 240.023212 
L 88.68785 238.21591 
L 90.078505 237.110143 
L 91.469159 236.190507 
L 92.859813 234.746536 
L 94.250467 233.544012 
L 95.641121 232.568383 
L 97.031776 231.81596 
L 98.42243 230.82768 
L 101.203738 228.30614 
L 103.985047 225.629816 
L 105.375701 224.596935 
L 106.766355 223.743007 
L 109.547664 221.678953 
L 113.719626 218.168675 
L 115.11028 217.379915 
L 116.500935 216.449429 
L 119.282243 213.878691 
L 122.063551 211.164253 
L 123.454206 210.035948 
L 124.84486 209.237301 
L 126.235514 208.278591 
L 135.970093 198.277353 
L 142.923364 188.957953 
L 144.314019 187.711309 
L 145.704673 186.759046 
L 147.095327 185.338077 
L 148.485981 183.36926 
L 151.26729 178.900359 
L 152.657944 176.884449 
L 154.048598 174.192353 
L 155.439252 170.981318 
L 158.220561 165.670474 
L 159.611215 163.174253 
L 161.001869 161.076728 
L 162.392523 159.565264 
L 163.783178 158.329414 
L 165.173832 156.800695 
L 166.564486 154.965089 
L 169.345794 150.808103 
L 170.736449 149.166242 
L 173.517757 146.668154 
L 177.68972 141.881954 
L 179.080374 140.149443 
L 180.471028 139.04615 
L 181.861682 138.469442 
L 183.252336 137.209266 
L 184.642991 135.14008 
L 186.033645 133.501766 
L 187.424299 132.082506 
L 190.205607 129.494167 
L 191.596262 128.064949 
L 194.37757 124.739118 
L 202.721495 113.114619 
L 205.502804 107.875415 
L 206.893458 105.856161 
L 208.284112 104.298415 
L 209.674766 102.910947 
L 213.846729 99.476442 
L 216.628037 96.872358 
L 218.018692 95.47349 
L 219.409346 94.407439 
L 222.190654 93.016957 
L 224.971963 91.734395 
L 229.143925 89.239985 
L 230.534579 88.667738 
L 231.925234 88.217782 
L 237.48785 85.937561 
L 238.878505 85.416204 
L 241.659813 84.571694 
L 247.22243 81.932644 
L 248.613084 81.179729 
L 251.394393 80.504 
L 256.957009 77.701182 
L 258.347664 77.204858 
L 261.128972 76.415518 
L 268.082243 73.934701 
L 269.472897 73.649997 
L 270.863551 73.203555 
L 273.64486 71.774004 
L 277.816822 69.381243 
L 280.598131 68.750649 
L 281.988785 68.307074 
L 287.551402 65.98899 
L 290.33271 65.350537 
L 295.895327 63.655211 
L 298.676636 63.513432 
L 301.457944 63.307726 
L 304.239252 63.069326 
L 305.629907 62.923662 
L 308.411215 62.819309 
L 312.583178 62.398916 
L 315.364486 61.733973 
L 318.145794 61.173755 
L 319.536449 60.886282 
L 320.927103 60.169111 
L 323.708411 57.94612 
L 325.099065 57.144011 
L 325.099065 57.144011 
" clip-path="url(#p9701912741)" style="fill: none; stroke: #e377c2; stroke-width: 1.5; stroke-linecap: square"/>
   </g>
   <g id="line2d_74">
    <path d="M -1 340.633465 
L -0.314019 323.908729 
L 1.076636 318.000208 
L 2.46729 317.562224 
L 3.857944 316.007738 
L 5.248598 314.142005 
L 6.639252 312.551407 
L 8.029907 311.543686 
L 9.420561 310.744348 
L 10.811215 310.074222 
L 12.201869 309.048437 
L 13.592523 307.069577 
L 16.373832 302.587043 
L 17.764486 300.953099 
L 20.545794 300.391012 
L 21.936449 298.519477 
L 26.108411 292.021102 
L 27.499065 290.522911 
L 28.88972 289.352374 
L 30.280374 288.686344 
L 31.671028 287.786638 
L 34.452336 283.4966 
L 35.842991 281.659168 
L 37.233645 280.227999 
L 38.624299 280.815623 
L 40.014953 282.203559 
L 41.405607 280.786934 
L 45.57757 275.009221 
L 46.968224 273.729862 
L 48.358879 274.366096 
L 49.749533 275.510795 
L 51.140187 273.337603 
L 52.530841 266.845578 
L 53.921495 258.494624 
L 55.31215 255.714482 
L 56.702804 254.986792 
L 58.093458 253.363426 
L 59.484112 251.0106 
L 63.656075 245.869133 
L 65.046729 244.337316 
L 66.437383 243.660824 
L 67.828037 242.35517 
L 69.218692 240.150568 
L 70.609346 238.53674 
L 73.390654 236.229495 
L 74.781308 235.161238 
L 76.171963 234.450938 
L 77.562617 231.270696 
L 78.953271 226.406853 
L 80.343925 224.616109 
L 81.734579 223.102369 
L 83.125234 221.406023 
L 85.906542 220.044054 
L 87.297196 216.86858 
L 88.68785 213.241833 
L 90.078505 222.628403 
L 91.469159 236.86551 
L 92.859813 237.710241 
L 94.250467 235.78008 
L 95.641121 234.645092 
L 97.031776 232.961267 
L 98.42243 230.325381 
L 99.813084 228.849559 
L 101.203738 228.014013 
L 102.594393 226.903234 
L 103.985047 225.398672 
L 105.375701 224.340751 
L 106.766355 222.972654 
L 108.157009 221.167823 
L 110.938318 218.841768 
L 112.328972 217.064393 
L 113.719626 215.005979 
L 115.11028 214.229329 
L 116.500935 213.207141 
L 117.891589 210.849486 
L 120.672897 205.612842 
L 122.063551 202.212841 
L 123.454206 199.540013 
L 124.84486 198.399521 
L 126.235514 196.368833 
L 127.626168 193.288671 
L 129.016822 191.07337 
L 131.798131 185.50936 
L 133.188785 183.944036 
L 134.579439 183.072076 
L 135.970093 182.060217 
L 137.360748 179.6287 
L 138.751402 176.275201 
L 141.53271 171.293082 
L 142.923364 168.947813 
L 145.704673 165.326466 
L 147.095327 162.672482 
L 149.876636 157.037184 
L 152.657944 151.765831 
L 154.048598 148.388105 
L 155.439252 144.027216 
L 156.829907 140.623485 
L 165.173832 122.503082 
L 166.564486 119.16218 
L 180.471028 82.659338 
L 181.861682 79.89348 
L 183.252336 77.561944 
L 184.642991 74.931695 
L 186.033645 71.783416 
L 187.424299 69.063826 
L 188.814953 66.95104 
L 190.205607 65.465878 
L 191.596262 64.276162 
L 195.768224 61.288669 
L 197.158879 61.309722 
L 198.549533 61.807896 
L 202.721495 60.100764 
L 206.893458 57.902923 
L 208.284112 57.319278 
L 211.065421 56.533325 
L 213.846729 55.697545 
L 218.018692 54.574616 
L 220.8 54.127427 
L 229.143925 52.989011 
L 233.315888 52.629251 
L 238.878505 51.94931 
L 251.394393 51.057871 
L 254.175701 50.779137 
L 297.285981 49.023814 
L 318.145794 48.658176 
L 319.536449 48.317872 
L 320.927103 47.216436 
L 323.708411 43.964826 
L 325.099065 43.044278 
L 325.099065 43.044278 
" clip-path="url(#p9701912741)" style="fill: none; stroke: #7f7f7f; stroke-width: 1.5; stroke-linecap: square"/>
   </g>
   <g id="line2d_75">
    <path d="M -1 330.51448 
L -0.314019 330.648365 
L 1.076636 330.231039 
L 3.857944 326.158092 
L 5.248598 324.871698 
L 6.639252 324.252728 
L 8.029907 323.465745 
L 12.201869 317.974144 
L 14.983178 313.207574 
L 16.373832 311.968777 
L 17.764486 311.4655 
L 19.15514 310.493057 
L 20.545794 308.604401 
L 24.717757 301.497253 
L 26.108411 300.189171 
L 27.499065 299.899279 
L 28.88972 299.139078 
L 30.280374 298.217003 
L 31.671028 297.984353 
L 33.061682 296.393039 
L 34.452336 293.353123 
L 35.842991 291.346219 
L 38.624299 290.24575 
L 40.014953 288.319205 
L 41.405607 286.195278 
L 42.796262 285.177772 
L 44.186916 283.491593 
L 45.57757 282.088367 
L 46.968224 281.541095 
L 48.358879 281.827909 
L 49.749533 281.661954 
L 51.140187 278.528578 
L 52.530841 273.773738 
L 53.921495 269.794322 
L 55.31215 268.287837 
L 56.702804 267.829886 
L 58.093458 267.022778 
L 59.484112 265.455366 
L 60.874766 263.629046 
L 63.656075 259.670063 
L 65.046729 258.307122 
L 67.828037 256.913798 
L 69.218692 255.693067 
L 70.609346 254.018853 
L 73.390654 250.138798 
L 74.781308 248.86656 
L 77.562617 247.738328 
L 78.953271 246.718158 
L 80.343925 244.982744 
L 81.734579 242.848956 
L 83.125234 241.36422 
L 87.297196 238.908366 
L 88.68785 238.882079 
L 90.078505 246.018001 
L 91.469159 255.881208 
L 92.859813 255.9793 
L 94.250467 254.700618 
L 95.641121 253.987462 
L 97.031776 253.472889 
L 98.42243 252.719102 
L 99.813084 251.438978 
L 102.594393 248.151862 
L 103.985047 246.871855 
L 105.375701 246.215075 
L 106.766355 245.305066 
L 109.547664 241.959751 
L 112.328972 238.137403 
L 113.719626 236.742747 
L 115.11028 236.03689 
L 116.500935 235.123069 
L 117.891589 233.408144 
L 119.282243 231.276897 
L 122.063551 226.67187 
L 123.454206 225.01652 
L 126.235514 223.265236 
L 127.626168 221.834706 
L 131.798131 216.764432 
L 133.188785 215.627386 
L 135.970093 214.03568 
L 137.360748 212.697628 
L 141.53271 207.989289 
L 142.923364 206.787597 
L 145.704673 205.318675 
L 147.095327 204.139988 
L 148.485981 202.605989 
L 151.26729 199.181286 
L 152.657944 197.808066 
L 154.048598 195.285596 
L 155.439252 191.751317 
L 159.611215 186.600695 
L 161.001869 185.14723 
L 163.783178 183.452305 
L 165.173832 182.24454 
L 170.736449 176.447896 
L 173.517757 175.144112 
L 174.908411 174.212789 
L 176.299065 173.09846 
L 177.68972 171.83279 
L 179.080374 170.942012 
L 181.861682 170.003052 
L 183.252336 169.371077 
L 186.033645 167.422158 
L 188.814953 165.211585 
L 190.205607 164.355167 
L 192.986916 163.463721 
L 194.37757 162.562312 
L 195.768224 161.406538 
L 197.158879 159.921512 
L 198.549533 158.216162 
L 199.940187 156.791904 
L 201.330841 155.969205 
L 202.721495 154.860732 
L 205.502804 151.223504 
L 208.284112 147.139447 
L 209.674766 145.706206 
L 211.065421 144.93457 
L 212.456075 143.937283 
L 215.237383 140.577333 
L 218.018692 136.978609 
L 219.409346 135.739542 
L 220.8 135.191658 
L 222.190654 134.454933 
L 223.581308 133.14462 
L 224.971963 131.654479 
L 226.362617 129.966456 
L 227.753271 127.480417 
L 229.143925 124.601121 
L 231.925234 121.18535 
L 234.706542 116.313067 
L 237.48785 111.798498 
L 238.878505 110.195903 
L 241.659813 108.894727 
L 243.050467 107.702103 
L 247.22243 103.553573 
L 248.613084 102.68544 
L 250.003738 102.32829 
L 251.394393 101.833943 
L 255.566355 98.986875 
L 256.957009 98.273193 
L 258.347664 97.845194 
L 261.128972 97.404945 
L 265.300935 95.979994 
L 268.082243 95.331579 
L 270.863551 95.083044 
L 275.035514 94.025049 
L 277.816822 93.415964 
L 280.598131 93.237276 
L 283.379439 92.70304 
L 286.160748 92.101691 
L 287.551402 91.899703 
L 290.33271 91.708934 
L 295.895327 90.721767 
L 304.239252 90.494537 
L 312.583178 90.077213 
L 315.364486 89.530013 
L 316.75514 89.200537 
L 318.145794 89.051042 
L 319.536449 88.620781 
L 320.927103 87.56444 
L 323.708411 85.028933 
L 325.099065 84.287724 
L 325.099065 84.287724 
" clip-path="url(#p9701912741)" style="fill: none; stroke: #bcbd22; stroke-width: 1.5; stroke-linecap: square"/>
   </g>
   <g id="patch_3">
    <path d="M 72 384.48 
L 72 51.84 
" style="fill: none; stroke: #000000; stroke-width: 0.8; stroke-linejoin: miter; stroke-linecap: square"/>
   </g>
   <g id="patch_4">
    <path d="M 518.4 384.48 
L 518.4 51.84 
" style="fill: none; stroke: #000000; stroke-width: 0.8; stroke-linejoin: miter; stroke-linecap: square"/>
   </g>
   <g id="patch_5">
    <path d="M 72 384.48 
L 518.4 384.48 
" style="fill: none; stroke: #000000; stroke-width: 0.8; stroke-linejoin: miter; stroke-linecap: square"/>
   </g>
   <g id="patch_6">
    <path d="M 72 51.84 
L 518.4 51.84 
" style="fill: none; stroke: #000000; stroke-width: 0.8; stroke-linejoin: miter; stroke-linecap: square"/>
   </g>
   <g id="text_36">
    <!-- First dose coverage by state/territory -->
    <g transform="translate(183.629062 45.84)scale(0.12 -0.12)">
     <defs>
      <path id="DejaVuSans-73" d="M 2834 3397 
L 2834 2853 
Q 2591 2978 2328 3040 
Q 2066 3103 1784 3103 
Q 1356 3103 1142 2972 
Q 928 2841 928 2578 
Q 928 2378 1081 2264 
Q 1234 2150 1697 2047 
L 1894 2003 
Q 2506 1872 2764 1633 
Q 3022 1394 3022 966 
Q 3022 478 2636 193 
Q 2250 -91 1575 -91 
Q 1294 -91 989 -36 
Q 684 19 347 128 
L 347 722 
Q 666 556 975 473 
Q 1284 391 1588 391 
Q 1994 391 2212 530 
Q 2431 669 2431 922 
Q 2431 1156 2273 1281 
Q 2116 1406 1581 1522 
L 1381 1569 
Q 847 1681 609 1914 
Q 372 2147 372 2553 
Q 372 3047 722 3315 
Q 1072 3584 1716 3584 
Q 2034 3584 2315 3537 
Q 2597 3491 2834 3397 
z
" transform="scale(0.015625)"/>
      <path id="DejaVuSans-64" d="M 2906 2969 
L 2906 4863 
L 3481 4863 
L 3481 0 
L 2906 0 
L 2906 525 
Q 2725 213 2448 61 
Q 2172 -91 1784 -91 
Q 1150 -91 751 415 
Q 353 922 353 1747 
Q 353 2572 751 3078 
Q 1150 3584 1784 3584 
Q 2172 3584 2448 3432 
Q 2725 3281 2906 2969 
z
M 947 1747 
Q 947 1113 1208 752 
Q 1469 391 1925 391 
Q 2381 391 2643 752 
Q 2906 1113 2906 1747 
Q 2906 2381 2643 2742 
Q 2381 3103 1925 3103 
Q 1469 3103 1208 2742 
Q 947 2381 947 1747 
z
" transform="scale(0.015625)"/>
      <path id="DejaVuSans-2f" d="M 1625 4666 
L 2156 4666 
L 531 -594 
L 0 -594 
L 1625 4666 
z
" transform="scale(0.015625)"/>
     </defs>
     <use xlink:href="#DejaVuSans-46"/>
     <use xlink:href="#DejaVuSans-69" x="50.269531"/>
     <use xlink:href="#DejaVuSans-72" x="78.052734"/>
     <use xlink:href="#DejaVuSans-73" x="119.166016"/>
     <use xlink:href="#DejaVuSans-74" x="171.265625"/>
     <use xlink:href="#DejaVuSans-20" x="210.474609"/>
     <use xlink:href="#DejaVuSans-64" x="242.261719"/>
     <use xlink:href="#DejaVuSans-6f" x="305.738281"/>
     <use xlink:href="#DejaVuSans-73" x="366.919922"/>
     <use xlink:href="#DejaVuSans-65" x="419.019531"/>
     <use xlink:href="#DejaVuSans-20" x="480.542969"/>
     <use xlink:href="#DejaVuSans-63" x="512.330078"/>
     <use xlink:href="#DejaVuSans-6f" x="567.310547"/>
     <use xlink:href="#DejaVuSans-76" x="628.492188"/>
     <use xlink:href="#DejaVuSans-65" x="687.671875"/>
     <use xlink:href="#DejaVuSans-72" x="749.195312"/>
     <use xlink:href="#DejaVuSans-61" x="790.308594"/>
     <use xlink:href="#DejaVuSans-67" x="851.587891"/>
     <use xlink:href="#DejaVuSans-65" x="915.064453"/>
     <use xlink:href="#DejaVuSans-20" x="976.587891"/>
     <use xlink:href="#DejaVuSans-62" x="1008.375"/>
     <use xlink:href="#DejaVuSans-79" x="1071.851562"/>
     <use xlink:href="#DejaVuSans-20" x="1131.03125"/>
     <use xlink:href="#DejaVuSans-73" x="1162.818359"/>
     <use xlink:href="#DejaVuSans-74" x="1214.917969"/>
     <use xlink:href="#DejaVuSans-61" x="1254.126953"/>
     <use xlink:href="#DejaVuSans-74" x="1315.40625"/>
     <use xlink:href="#DejaVuSans-65" x="1354.615234"/>
     <use xlink:href="#DejaVuSans-2f" x="1416.138672"/>
     <use xlink:href="#DejaVuSans-74" x="1449.830078"/>
     <use xlink:href="#DejaVuSans-65" x="1489.039062"/>
     <use xlink:href="#DejaVuSans-72" x="1550.5625"/>
     <use xlink:href="#DejaVuSans-72" x="1589.925781"/>
     <use xlink:href="#DejaVuSans-69" x="1631.039062"/>
     <use xlink:href="#DejaVuSans-74" x="1658.822266"/>
     <use xlink:href="#DejaVuSans-6f" x="1698.03125"/>
     <use xlink:href="#DejaVuSans-72" x="1759.212891"/>
     <use xlink:href="#DejaVuSans-79" x="1800.326172"/>
    </g>
   </g>
   <g id="legend_1">
    <g id="patch_7">
     <path d="M 417.1225 380.48 
L 512.8 380.48 
Q 514.4 380.48 514.4 378.88 
L 514.4 273.9975 
Q 514.4 272.3975 512.8 272.3975 
L 417.1225 272.3975 
Q 415.5225 272.3975 415.5225 273.9975 
L 415.5225 378.88 
Q 415.5225 380.48 417.1225 380.48 
z
" style="fill: #ffffff; opacity: 0.8; stroke: #cccccc; stroke-linejoin: miter"/>
    </g>
    <g id="line2d_76">
     <path d="M 418.7225 278.87625 
L 426.7225 278.87625 
L 434.7225 278.87625 
" style="fill: none; stroke: #1f77b4; stroke-width: 1.5; stroke-linecap: square"/>
    </g>
    <g id="text_37">
     <!-- National (95.1 %) -->
     <g transform="translate(441.1225 281.67625)scale(0.08 -0.08)">
      <defs>
       <path id="DejaVuSans-2e" d="M 684 794 
L 1344 794 
L 1344 0 
L 684 0 
L 684 794 
z
" transform="scale(0.015625)"/>
      </defs>
      <use xlink:href="#DejaVuSans-4e"/>
      <use xlink:href="#DejaVuSans-61" x="74.804688"/>
      <use xlink:href="#DejaVuSans-74" x="136.083984"/>
      <use xlink:href="#DejaVuSans-69" x="175.292969"/>
      <use xlink:href="#DejaVuSans-6f" x="203.076172"/>
      <use xlink:href="#DejaVuSans-6e" x="264.257812"/>
      <use xlink:href="#DejaVuSans-61" x="327.636719"/>
      <use xlink:href="#DejaVuSans-6c" x="388.916016"/>
      <use xlink:href="#DejaVuSans-20" x="416.699219"/>
      <use xlink:href="#DejaVuSans-28" x="448.486328"/>
      <use xlink:href="#DejaVuSans-39" x="487.5"/>
      <use xlink:href="#DejaVuSans-35" x="551.123047"/>
      <use xlink:href="#DejaVuSans-2e" x="614.746094"/>
      <use xlink:href="#DejaVuSans-31" x="646.533203"/>
      <use xlink:href="#DejaVuSans-20" x="710.15625"/>
      <use xlink:href="#DejaVuSans-25" x="741.943359"/>
      <use xlink:href="#DejaVuSans-29" x="836.962891"/>
     </g>
    </g>
    <g id="line2d_77">
     <path d="M 418.7225 290.61875 
L 426.7225 290.61875 
L 434.7225 290.61875 
" style="fill: none; stroke: #ff7f0e; stroke-width: 1.5; stroke-linecap: square"/>
    </g>
    <g id="text_38">
     <!-- NSW (95.4 %) -->
     <g transform="translate(441.1225 293.41875)scale(0.08 -0.08)">
      <defs>
       <path id="DejaVuSans-57" d="M 213 4666 
L 850 4666 
L 1831 722 
L 2809 4666 
L 3519 4666 
L 4500 722 
L 5478 4666 
L 6119 4666 
L 4947 0 
L 4153 0 
L 3169 4050 
L 2175 0 
L 1381 0 
L 213 4666 
z
" transform="scale(0.015625)"/>
      </defs>
      <use xlink:href="#DejaVuSans-4e"/>
      <use xlink:href="#DejaVuSans-53" x="74.804688"/>
      <use xlink:href="#DejaVuSans-57" x="138.28125"/>
      <use xlink:href="#DejaVuSans-20" x="237.158203"/>
      <use xlink:href="#DejaVuSans-28" x="268.945312"/>
      <use xlink:href="#DejaVuSans-39" x="307.958984"/>
      <use xlink:href="#DejaVuSans-35" x="371.582031"/>
      <use xlink:href="#DejaVuSans-2e" x="435.205078"/>
      <use xlink:href="#DejaVuSans-34" x="466.992188"/>
      <use xlink:href="#DejaVuSans-20" x="530.615234"/>
      <use xlink:href="#DejaVuSans-25" x="562.402344"/>
      <use xlink:href="#DejaVuSans-29" x="657.421875"/>
     </g>
    </g>
    <g id="line2d_78">
     <path d="M 418.7225 302.36125 
L 426.7225 302.36125 
L 434.7225 302.36125 
" style="fill: none; stroke: #2ca02c; stroke-width: 1.5; stroke-linecap: square"/>
    </g>
    <g id="text_39">
     <!-- VIC (94.6 %) -->
     <g transform="translate(441.1225 305.16125)scale(0.08 -0.08)">
      <defs>
       <path id="DejaVuSans-49" d="M 628 4666 
L 1259 4666 
L 1259 0 
L 628 0 
L 628 4666 
z
" transform="scale(0.015625)"/>
       <path id="DejaVuSans-43" d="M 4122 4306 
L 4122 3641 
Q 3803 3938 3442 4084 
Q 3081 4231 2675 4231 
Q 1875 4231 1450 3742 
Q 1025 3253 1025 2328 
Q 1025 1406 1450 917 
Q 1875 428 2675 428 
Q 3081 428 3442 575 
Q 3803 722 4122 1019 
L 4122 359 
Q 3791 134 3420 21 
Q 3050 -91 2638 -91 
Q 1578 -91 968 557 
Q 359 1206 359 2328 
Q 359 3453 968 4101 
Q 1578 4750 2638 4750 
Q 3056 4750 3426 4639 
Q 3797 4528 4122 4306 
z
" transform="scale(0.015625)"/>
      </defs>
      <use xlink:href="#DejaVuSans-56"/>
      <use xlink:href="#DejaVuSans-49" x="68.408203"/>
      <use xlink:href="#DejaVuSans-43" x="97.900391"/>
      <use xlink:href="#DejaVuSans-20" x="167.724609"/>
      <use xlink:href="#DejaVuSans-28" x="199.511719"/>
      <use xlink:href="#DejaVuSans-39" x="238.525391"/>
      <use xlink:href="#DejaVuSans-34" x="302.148438"/>
      <use xlink:href="#DejaVuSans-2e" x="365.771484"/>
      <use xlink:href="#DejaVuSans-36" x="397.558594"/>
      <use xlink:href="#DejaVuSans-20" x="461.181641"/>
      <use xlink:href="#DejaVuSans-25" x="492.96875"/>
      <use xlink:href="#DejaVuSans-29" x="587.988281"/>
     </g>
    </g>
    <g id="line2d_79">
     <path d="M 418.7225 314.10375 
L 426.7225 314.10375 
L 434.7225 314.10375 
" style="fill: none; stroke: #d62728; stroke-width: 1.5; stroke-linecap: square"/>
    </g>
    <g id="text_40">
     <!-- QLD (91.3 %) -->
     <g transform="translate(441.1225 316.90375)scale(0.08 -0.08)">
      <defs>
       <path id="DejaVuSans-51" d="M 2522 4238 
Q 1834 4238 1429 3725 
Q 1025 3213 1025 2328 
Q 1025 1447 1429 934 
Q 1834 422 2522 422 
Q 3209 422 3611 934 
Q 4013 1447 4013 2328 
Q 4013 3213 3611 3725 
Q 3209 4238 2522 4238 
z
M 3406 84 
L 4238 -825 
L 3475 -825 
L 2784 -78 
Q 2681 -84 2626 -87 
Q 2572 -91 2522 -91 
Q 1538 -91 948 567 
Q 359 1225 359 2328 
Q 359 3434 948 4092 
Q 1538 4750 2522 4750 
Q 3503 4750 4090 4092 
Q 4678 3434 4678 2328 
Q 4678 1516 4351 937 
Q 4025 359 3406 84 
z
" transform="scale(0.015625)"/>
       <path id="DejaVuSans-4c" d="M 628 4666 
L 1259 4666 
L 1259 531 
L 3531 531 
L 3531 0 
L 628 0 
L 628 4666 
z
" transform="scale(0.015625)"/>
      </defs>
      <use xlink:href="#DejaVuSans-51"/>
      <use xlink:href="#DejaVuSans-4c" x="78.710938"/>
      <use xlink:href="#DejaVuSans-44" x="134.423828"/>
      <use xlink:href="#DejaVuSans-20" x="211.425781"/>
      <use xlink:href="#DejaVuSans-28" x="243.212891"/>
      <use xlink:href="#DejaVuSans-39" x="282.226562"/>
      <use xlink:href="#DejaVuSans-31" x="345.849609"/>
      <use xlink:href="#DejaVuSans-2e" x="409.472656"/>
      <use xlink:href="#DejaVuSans-33" x="441.259766"/>
      <use xlink:href="#DejaVuSans-20" x="504.882812"/>
      <use xlink:href="#DejaVuSans-25" x="536.669922"/>
      <use xlink:href="#DejaVuSans-29" x="631.689453"/>
     </g>
    </g>
    <g id="line2d_80">
     <path d="M 418.7225 325.84625 
L 426.7225 325.84625 
L 434.7225 325.84625 
" style="fill: none; stroke: #9467bd; stroke-width: 1.5; stroke-linecap: square"/>
    </g>
    <g id="text_41">
     <!-- WA (93.1 %) -->
     <g transform="translate(441.1225 328.64625)scale(0.08 -0.08)">
      <use xlink:href="#DejaVuSans-57"/>
      <use xlink:href="#DejaVuSans-41" x="93.376953"/>
      <use xlink:href="#DejaVuSans-20" x="161.785156"/>
      <use xlink:href="#DejaVuSans-28" x="193.572266"/>
      <use xlink:href="#DejaVuSans-39" x="232.585938"/>
      <use xlink:href="#DejaVuSans-33" x="296.208984"/>
      <use xlink:href="#DejaVuSans-2e" x="359.832031"/>
      <use xlink:href="#DejaVuSans-31" x="391.619141"/>
      <use xlink:href="#DejaVuSans-20" x="455.242188"/>
      <use xlink:href="#DejaVuSans-25" x="487.029297"/>
      <use xlink:href="#DejaVuSans-29" x="582.048828"/>
     </g>
    </g>
    <g id="line2d_81">
     <path d="M 418.7225 337.58875 
L 426.7225 337.58875 
L 434.7225 337.58875 
" style="fill: none; stroke: #8c564b; stroke-width: 1.5; stroke-linecap: square"/>
    </g>
    <g id="text_42">
     <!-- SA (92.9 %) -->
     <g transform="translate(441.1225 340.38875)scale(0.08 -0.08)">
      <use xlink:href="#DejaVuSans-53"/>
      <use xlink:href="#DejaVuSans-41" x="65.351562"/>
      <use xlink:href="#DejaVuSans-20" x="133.759766"/>
      <use xlink:href="#DejaVuSans-28" x="165.546875"/>
      <use xlink:href="#DejaVuSans-39" x="204.560547"/>
      <use xlink:href="#DejaVuSans-32" x="268.183594"/>
      <use xlink:href="#DejaVuSans-2e" x="331.806641"/>
      <use xlink:href="#DejaVuSans-39" x="363.59375"/>
      <use xlink:href="#DejaVuSans-20" x="427.216797"/>
      <use xlink:href="#DejaVuSans-25" x="459.003906"/>
      <use xlink:href="#DejaVuSans-29" x="554.023438"/>
     </g>
    </g>
    <g id="line2d_82">
     <path d="M 418.7225 349.33125 
L 426.7225 349.33125 
L 434.7225 349.33125 
" style="fill: none; stroke: #e377c2; stroke-width: 1.5; stroke-linecap: square"/>
    </g>
    <g id="text_43">
     <!-- TAS (98.5 %) -->
     <g transform="translate(441.1225 352.13125)scale(0.08 -0.08)">
      <defs>
       <path id="DejaVuSans-54" d="M -19 4666 
L 3928 4666 
L 3928 4134 
L 2272 4134 
L 2272 0 
L 1638 0 
L 1638 4134 
L -19 4134 
L -19 4666 
z
" transform="scale(0.015625)"/>
      </defs>
      <use xlink:href="#DejaVuSans-54"/>
      <use xlink:href="#DejaVuSans-41" x="53.333984"/>
      <use xlink:href="#DejaVuSans-53" x="121.742188"/>
      <use xlink:href="#DejaVuSans-20" x="185.21875"/>
      <use xlink:href="#DejaVuSans-28" x="217.005859"/>
      <use xlink:href="#DejaVuSans-39" x="256.019531"/>
      <use xlink:href="#DejaVuSans-38" x="319.642578"/>
      <use xlink:href="#DejaVuSans-2e" x="383.265625"/>
      <use xlink:href="#DejaVuSans-35" x="415.052734"/>
      <use xlink:href="#DejaVuSans-20" x="478.675781"/>
      <use xlink:href="#DejaVuSans-25" x="510.462891"/>
      <use xlink:href="#DejaVuSans-29" x="605.482422"/>
     </g>
    </g>
    <g id="line2d_83">
     <path d="M 418.7225 361.07375 
L 426.7225 361.07375 
L 434.7225 361.07375 
" style="fill: none; stroke: #7f7f7f; stroke-width: 1.5; stroke-linecap: square"/>
    </g>
    <g id="text_44">
     <!-- ACT (102.7 %) -->
     <g transform="translate(441.1225 363.87375)scale(0.08 -0.08)">
      <use xlink:href="#DejaVuSans-41"/>
      <use xlink:href="#DejaVuSans-43" x="66.658203"/>
      <use xlink:href="#DejaVuSans-54" x="136.482422"/>
      <use xlink:href="#DejaVuSans-20" x="197.566406"/>
      <use xlink:href="#DejaVuSans-28" x="229.353516"/>
      <use xlink:href="#DejaVuSans-31" x="268.367188"/>
      <use xlink:href="#DejaVuSans-30" x="331.990234"/>
      <use xlink:href="#DejaVuSans-32" x="395.613281"/>
      <use xlink:href="#DejaVuSans-2e" x="459.236328"/>
      <use xlink:href="#DejaVuSans-37" x="491.023438"/>
      <use xlink:href="#DejaVuSans-20" x="554.646484"/>
      <use xlink:href="#DejaVuSans-25" x="586.433594"/>
      <use xlink:href="#DejaVuSans-29" x="681.453125"/>
     </g>
    </g>
    <g id="line2d_84">
     <path d="M 418.7225 372.81625 
L 426.7225 372.81625 
L 434.7225 372.81625 
" style="fill: none; stroke: #bcbd22; stroke-width: 1.5; stroke-linecap: square"/>
    </g>
    <g id="text_45">
     <!-- NT (90.3 %) -->
     <g transform="translate(441.1225 375.61625)scale(0.08 -0.08)">
      <use xlink:href="#DejaVuSans-4e"/>
      <use xlink:href="#DejaVuSans-54" x="74.804688"/>
      <use xlink:href="#DejaVuSans-20" x="135.888672"/>
      <use xlink:href="#DejaVuSans-28" x="167.675781"/>
      <use xlink:href="#DejaVuSans-39" x="206.689453"/>
      <use xlink:href="#DejaVuSans-30" x="270.3125"/>
      <use xlink:href="#DejaVuSans-2e" x="333.935547"/>
      <use xlink:href="#DejaVuSans-33" x="365.722656"/>
      <use xlink:href="#DejaVuSans-20" x="429.345703"/>
      <use xlink:href="#DejaVuSans-25" x="461.132812"/>
      <use xlink:href="#DejaVuSans-29" x="556.152344"/>
     </g>
    </g>
   </g>
  </g>
 </g>
 <defs>
  <clipPath id="p9701912741">
   <rect x="72" y="51.84" width="446.4" height="332.64"/>
  </clipPath>
 </defs>
</svg>
