<?xml version="1.0" encoding="utf-8" standalone="no"?>
<!DOCTYPE svg PUBLIC "-//W3C//DTD SVG 1.1//EN"
  "http://www.w3.org/Graphics/SVG/1.1/DTD/svg11.dtd">
<svg height="432pt" version="1.1" viewBox="0 0 576 432" width="576pt" xmlns="http://www.w3.org/2000/svg" xmlns:xlink="http://www.w3.org/1999/xlink">
 <metadata>
  <rdf:RDF xmlns:cc="http://creativecommons.org/ns#" xmlns:dc="http://purl.org/dc/elements/1.1/" xmlns:rdf="http://www.w3.org/1999/02/22-rdf-syntax-ns#">
   <cc:Work>
    <dc:type rdf:resource="http://purl.org/dc/dcmitype/StillImage"/>
    <dc:date>2021-10-26T15:27:16.927007</dc:date>
    <dc:format>image/svg+xml</dc:format>
    <dc:creator>
     <cc:Agent>
      <dc:title>Matplotlib v3.4.3, https://matplotlib.org/</dc:title>
     </cc:Agent>
    </dc:creator>
   </cc:Work>
  </rdf:RDF>
 </metadata>
 <defs>
  <style type="text/css">*{stroke-linecap:butt;stroke-linejoin:round;}</style>
 </defs>
 <g id="figure_1">
  <g id="patch_1">
   <path d="M 0 432 
L 576 432 
L 576 0 
L 0 0 
z
" style="fill:#ffffff;"/>
  </g>
  <g id="axes_1">
   <g id="patch_2">
    <path d="M 72 384.48 
L 518.4 384.48 
L 518.4 51.84 
L 72 51.84 
z
" style="fill:#ffffff;"/>
   </g>
   <g id="matplotlib.axis_1">
    <g id="xtick_1">
     <g id="line2d_1">
      <path clip-path="url(#p548d44cd1f)" d="M 83.301266 384.48 
L 83.301266 51.84 
" style="fill:none;stroke:#000000;stroke-dasharray:0.8,1.32;stroke-dashoffset:0;stroke-opacity:0.5;stroke-width:0.8;"/>
     </g>
     <g id="line2d_2">
      <defs>
       <path d="M 0 0 
L 0 3.5 
" id="m51a91e6b56" style="stroke:#000000;stroke-width:0.8;"/>
      </defs>
      <g>
       <use style="stroke:#000000;stroke-width:0.8;" x="83.301266" xlink:href="#m51a91e6b56" y="384.48"/>
      </g>
     </g>
     <g id="text_1">
      <!-- 15 -->
      <g transform="translate(76.938766 399.078438)scale(0.1 -0.1)">
       <defs>
        <path d="M 794 531 
L 1825 531 
L 1825 4091 
L 703 3866 
L 703 4441 
L 1819 4666 
L 2450 4666 
L 2450 531 
L 3481 531 
L 3481 0 
L 794 0 
L 794 531 
z
" id="DejaVuSans-31" transform="scale(0.015625)"/>
        <path d="M 691 4666 
L 3169 4666 
L 3169 4134 
L 1269 4134 
L 1269 2991 
Q 1406 3038 1543 3061 
Q 1681 3084 1819 3084 
Q 2600 3084 3056 2656 
Q 3513 2228 3513 1497 
Q 3513 744 3044 326 
Q 2575 -91 1722 -91 
Q 1428 -91 1123 -41 
Q 819 9 494 109 
L 494 744 
Q 775 591 1075 516 
Q 1375 441 1709 441 
Q 2250 441 2565 725 
Q 2881 1009 2881 1497 
Q 2881 1984 2565 2268 
Q 2250 2553 1709 2553 
Q 1456 2553 1204 2497 
Q 953 2441 691 2322 
L 691 4666 
z
" id="DejaVuSans-35" transform="scale(0.015625)"/>
       </defs>
       <use xlink:href="#DejaVuSans-31"/>
       <use x="63.623047" xlink:href="#DejaVuSans-35"/>
      </g>
     </g>
    </g>
    <g id="xtick_2">
     <g id="line2d_3">
      <path clip-path="url(#p548d44cd1f)" d="M 115.321519 384.48 
L 115.321519 51.84 
" style="fill:none;stroke:#000000;stroke-dasharray:0.8,1.32;stroke-dashoffset:0;stroke-opacity:0.5;stroke-width:0.8;"/>
     </g>
     <g id="line2d_4">
      <g>
       <use style="stroke:#000000;stroke-width:0.8;" x="115.321519" xlink:href="#m51a91e6b56" y="384.48"/>
      </g>
     </g>
     <g id="text_2">
      <!-- Jun -->
      <g transform="translate(107.509019 399.078438)scale(0.1 -0.1)">
       <defs>
        <path d="M 628 4666 
L 1259 4666 
L 1259 325 
Q 1259 -519 939 -900 
Q 619 -1281 -91 -1281 
L -331 -1281 
L -331 -750 
L -134 -750 
Q 284 -750 456 -515 
Q 628 -281 628 325 
L 628 4666 
z
" id="DejaVuSans-4a" transform="scale(0.015625)"/>
        <path d="M 544 1381 
L 544 3500 
L 1119 3500 
L 1119 1403 
Q 1119 906 1312 657 
Q 1506 409 1894 409 
Q 2359 409 2629 706 
Q 2900 1003 2900 1516 
L 2900 3500 
L 3475 3500 
L 3475 0 
L 2900 0 
L 2900 538 
Q 2691 219 2414 64 
Q 2138 -91 1772 -91 
Q 1169 -91 856 284 
Q 544 659 544 1381 
z
M 1991 3584 
L 1991 3584 
z
" id="DejaVuSans-75" transform="scale(0.015625)"/>
        <path d="M 3513 2113 
L 3513 0 
L 2938 0 
L 2938 2094 
Q 2938 2591 2744 2837 
Q 2550 3084 2163 3084 
Q 1697 3084 1428 2787 
Q 1159 2491 1159 1978 
L 1159 0 
L 581 0 
L 581 3500 
L 1159 3500 
L 1159 2956 
Q 1366 3272 1645 3428 
Q 1925 3584 2291 3584 
Q 2894 3584 3203 3211 
Q 3513 2838 3513 2113 
z
" id="DejaVuSans-6e" transform="scale(0.015625)"/>
       </defs>
       <use xlink:href="#DejaVuSans-4a"/>
       <use x="29.492188" xlink:href="#DejaVuSans-75"/>
       <use x="92.871094" xlink:href="#DejaVuSans-6e"/>
      </g>
     </g>
    </g>
    <g id="xtick_3">
     <g id="line2d_5">
      <path clip-path="url(#p548d44cd1f)" d="M 141.691139 384.48 
L 141.691139 51.84 
" style="fill:none;stroke:#000000;stroke-dasharray:0.8,1.32;stroke-dashoffset:0;stroke-opacity:0.5;stroke-width:0.8;"/>
     </g>
     <g id="line2d_6">
      <g>
       <use style="stroke:#000000;stroke-width:0.8;" x="141.691139" xlink:href="#m51a91e6b56" y="384.48"/>
      </g>
     </g>
     <g id="text_3">
      <!-- 15 -->
      <g transform="translate(135.328639 399.078438)scale(0.1 -0.1)">
       <use xlink:href="#DejaVuSans-31"/>
       <use x="63.623047" xlink:href="#DejaVuSans-35"/>
      </g>
     </g>
    </g>
    <g id="xtick_4">
     <g id="line2d_7">
      <path clip-path="url(#p548d44cd1f)" d="M 171.827848 384.48 
L 171.827848 51.84 
" style="fill:none;stroke:#000000;stroke-dasharray:0.8,1.32;stroke-dashoffset:0;stroke-opacity:0.5;stroke-width:0.8;"/>
     </g>
     <g id="line2d_8">
      <g>
       <use style="stroke:#000000;stroke-width:0.8;" x="171.827848" xlink:href="#m51a91e6b56" y="384.48"/>
      </g>
     </g>
     <g id="text_4">
      <!-- Jul -->
      <g transform="translate(165.795036 399.078438)scale(0.1 -0.1)">
       <defs>
        <path d="M 603 4863 
L 1178 4863 
L 1178 0 
L 603 0 
L 603 4863 
z
" id="DejaVuSans-6c" transform="scale(0.015625)"/>
       </defs>
       <use xlink:href="#DejaVuSans-4a"/>
       <use x="29.492188" xlink:href="#DejaVuSans-75"/>
       <use x="92.871094" xlink:href="#DejaVuSans-6c"/>
      </g>
     </g>
    </g>
    <g id="xtick_5">
     <g id="line2d_9">
      <path clip-path="url(#p548d44cd1f)" d="M 198.197468 384.48 
L 198.197468 51.84 
" style="fill:none;stroke:#000000;stroke-dasharray:0.8,1.32;stroke-dashoffset:0;stroke-opacity:0.5;stroke-width:0.8;"/>
     </g>
     <g id="line2d_10">
      <g>
       <use style="stroke:#000000;stroke-width:0.8;" x="198.197468" xlink:href="#m51a91e6b56" y="384.48"/>
      </g>
     </g>
     <g id="text_5">
      <!-- 15 -->
      <g transform="translate(191.834968 399.078438)scale(0.1 -0.1)">
       <use xlink:href="#DejaVuSans-31"/>
       <use x="63.623047" xlink:href="#DejaVuSans-35"/>
      </g>
     </g>
    </g>
    <g id="xtick_6">
     <g id="line2d_11">
      <path clip-path="url(#p548d44cd1f)" d="M 230.217722 384.48 
L 230.217722 51.84 
" style="fill:none;stroke:#000000;stroke-dasharray:0.8,1.32;stroke-dashoffset:0;stroke-opacity:0.5;stroke-width:0.8;"/>
     </g>
     <g id="line2d_12">
      <g>
       <use style="stroke:#000000;stroke-width:0.8;" x="230.217722" xlink:href="#m51a91e6b56" y="384.48"/>
      </g>
     </g>
     <g id="text_6">
      <!-- Aug -->
      <g transform="translate(220.45444 399.078438)scale(0.1 -0.1)">
       <defs>
        <path d="M 2188 4044 
L 1331 1722 
L 3047 1722 
L 2188 4044 
z
M 1831 4666 
L 2547 4666 
L 4325 0 
L 3669 0 
L 3244 1197 
L 1141 1197 
L 716 0 
L 50 0 
L 1831 4666 
z
" id="DejaVuSans-41" transform="scale(0.015625)"/>
        <path d="M 2906 1791 
Q 2906 2416 2648 2759 
Q 2391 3103 1925 3103 
Q 1463 3103 1205 2759 
Q 947 2416 947 1791 
Q 947 1169 1205 825 
Q 1463 481 1925 481 
Q 2391 481 2648 825 
Q 2906 1169 2906 1791 
z
M 3481 434 
Q 3481 -459 3084 -895 
Q 2688 -1331 1869 -1331 
Q 1566 -1331 1297 -1286 
Q 1028 -1241 775 -1147 
L 775 -588 
Q 1028 -725 1275 -790 
Q 1522 -856 1778 -856 
Q 2344 -856 2625 -561 
Q 2906 -266 2906 331 
L 2906 616 
Q 2728 306 2450 153 
Q 2172 0 1784 0 
Q 1141 0 747 490 
Q 353 981 353 1791 
Q 353 2603 747 3093 
Q 1141 3584 1784 3584 
Q 2172 3584 2450 3431 
Q 2728 3278 2906 2969 
L 2906 3500 
L 3481 3500 
L 3481 434 
z
" id="DejaVuSans-67" transform="scale(0.015625)"/>
       </defs>
       <use xlink:href="#DejaVuSans-41"/>
       <use x="68.408203" xlink:href="#DejaVuSans-75"/>
       <use x="131.787109" xlink:href="#DejaVuSans-67"/>
      </g>
     </g>
    </g>
    <g id="xtick_7">
     <g id="line2d_13">
      <path clip-path="url(#p548d44cd1f)" d="M 256.587342 384.48 
L 256.587342 51.84 
" style="fill:none;stroke:#000000;stroke-dasharray:0.8,1.32;stroke-dashoffset:0;stroke-opacity:0.5;stroke-width:0.8;"/>
     </g>
     <g id="line2d_14">
      <g>
       <use style="stroke:#000000;stroke-width:0.8;" x="256.587342" xlink:href="#m51a91e6b56" y="384.48"/>
      </g>
     </g>
     <g id="text_7">
      <!-- 15 -->
      <g transform="translate(250.224842 399.078438)scale(0.1 -0.1)">
       <use xlink:href="#DejaVuSans-31"/>
       <use x="63.623047" xlink:href="#DejaVuSans-35"/>
      </g>
     </g>
    </g>
    <g id="xtick_8">
     <g id="line2d_15">
      <path clip-path="url(#p548d44cd1f)" d="M 288.607595 384.48 
L 288.607595 51.84 
" style="fill:none;stroke:#000000;stroke-dasharray:0.8,1.32;stroke-dashoffset:0;stroke-opacity:0.5;stroke-width:0.8;"/>
     </g>
     <g id="line2d_16">
      <g>
       <use style="stroke:#000000;stroke-width:0.8;" x="288.607595" xlink:href="#m51a91e6b56" y="384.48"/>
      </g>
     </g>
     <g id="text_8">
      <!-- Sep -->
      <g transform="translate(279.182595 399.078438)scale(0.1 -0.1)">
       <defs>
        <path d="M 3425 4513 
L 3425 3897 
Q 3066 4069 2747 4153 
Q 2428 4238 2131 4238 
Q 1616 4238 1336 4038 
Q 1056 3838 1056 3469 
Q 1056 3159 1242 3001 
Q 1428 2844 1947 2747 
L 2328 2669 
Q 3034 2534 3370 2195 
Q 3706 1856 3706 1288 
Q 3706 609 3251 259 
Q 2797 -91 1919 -91 
Q 1588 -91 1214 -16 
Q 841 59 441 206 
L 441 856 
Q 825 641 1194 531 
Q 1563 422 1919 422 
Q 2459 422 2753 634 
Q 3047 847 3047 1241 
Q 3047 1584 2836 1778 
Q 2625 1972 2144 2069 
L 1759 2144 
Q 1053 2284 737 2584 
Q 422 2884 422 3419 
Q 422 4038 858 4394 
Q 1294 4750 2059 4750 
Q 2388 4750 2728 4690 
Q 3069 4631 3425 4513 
z
" id="DejaVuSans-53" transform="scale(0.015625)"/>
        <path d="M 3597 1894 
L 3597 1613 
L 953 1613 
Q 991 1019 1311 708 
Q 1631 397 2203 397 
Q 2534 397 2845 478 
Q 3156 559 3463 722 
L 3463 178 
Q 3153 47 2828 -22 
Q 2503 -91 2169 -91 
Q 1331 -91 842 396 
Q 353 884 353 1716 
Q 353 2575 817 3079 
Q 1281 3584 2069 3584 
Q 2775 3584 3186 3129 
Q 3597 2675 3597 1894 
z
M 3022 2063 
Q 3016 2534 2758 2815 
Q 2500 3097 2075 3097 
Q 1594 3097 1305 2825 
Q 1016 2553 972 2059 
L 3022 2063 
z
" id="DejaVuSans-65" transform="scale(0.015625)"/>
        <path d="M 1159 525 
L 1159 -1331 
L 581 -1331 
L 581 3500 
L 1159 3500 
L 1159 2969 
Q 1341 3281 1617 3432 
Q 1894 3584 2278 3584 
Q 2916 3584 3314 3078 
Q 3713 2572 3713 1747 
Q 3713 922 3314 415 
Q 2916 -91 2278 -91 
Q 1894 -91 1617 61 
Q 1341 213 1159 525 
z
M 3116 1747 
Q 3116 2381 2855 2742 
Q 2594 3103 2138 3103 
Q 1681 3103 1420 2742 
Q 1159 2381 1159 1747 
Q 1159 1113 1420 752 
Q 1681 391 2138 391 
Q 2594 391 2855 752 
Q 3116 1113 3116 1747 
z
" id="DejaVuSans-70" transform="scale(0.015625)"/>
       </defs>
       <use xlink:href="#DejaVuSans-53"/>
       <use x="63.476562" xlink:href="#DejaVuSans-65"/>
       <use x="125" xlink:href="#DejaVuSans-70"/>
      </g>
     </g>
    </g>
    <g id="xtick_9">
     <g id="line2d_17">
      <path clip-path="url(#p548d44cd1f)" d="M 314.977215 384.48 
L 314.977215 51.84 
" style="fill:none;stroke:#000000;stroke-dasharray:0.8,1.32;stroke-dashoffset:0;stroke-opacity:0.5;stroke-width:0.8;"/>
     </g>
     <g id="line2d_18">
      <g>
       <use style="stroke:#000000;stroke-width:0.8;" x="314.977215" xlink:href="#m51a91e6b56" y="384.48"/>
      </g>
     </g>
     <g id="text_9">
      <!-- 15 -->
      <g transform="translate(308.614715 399.078438)scale(0.1 -0.1)">
       <use xlink:href="#DejaVuSans-31"/>
       <use x="63.623047" xlink:href="#DejaVuSans-35"/>
      </g>
     </g>
    </g>
    <g id="xtick_10">
     <g id="line2d_19">
      <path clip-path="url(#p548d44cd1f)" d="M 345.113924 384.48 
L 345.113924 51.84 
" style="fill:none;stroke:#000000;stroke-dasharray:0.8,1.32;stroke-dashoffset:0;stroke-opacity:0.5;stroke-width:0.8;"/>
     </g>
     <g id="line2d_20">
      <g>
       <use style="stroke:#000000;stroke-width:0.8;" x="345.113924" xlink:href="#m51a91e6b56" y="384.48"/>
      </g>
     </g>
     <g id="text_10">
      <!-- Oct -->
      <g transform="translate(336.468612 399.078438)scale(0.1 -0.1)">
       <defs>
        <path d="M 2522 4238 
Q 1834 4238 1429 3725 
Q 1025 3213 1025 2328 
Q 1025 1447 1429 934 
Q 1834 422 2522 422 
Q 3209 422 3611 934 
Q 4013 1447 4013 2328 
Q 4013 3213 3611 3725 
Q 3209 4238 2522 4238 
z
M 2522 4750 
Q 3503 4750 4090 4092 
Q 4678 3434 4678 2328 
Q 4678 1225 4090 567 
Q 3503 -91 2522 -91 
Q 1538 -91 948 565 
Q 359 1222 359 2328 
Q 359 3434 948 4092 
Q 1538 4750 2522 4750 
z
" id="DejaVuSans-4f" transform="scale(0.015625)"/>
        <path d="M 3122 3366 
L 3122 2828 
Q 2878 2963 2633 3030 
Q 2388 3097 2138 3097 
Q 1578 3097 1268 2742 
Q 959 2388 959 1747 
Q 959 1106 1268 751 
Q 1578 397 2138 397 
Q 2388 397 2633 464 
Q 2878 531 3122 666 
L 3122 134 
Q 2881 22 2623 -34 
Q 2366 -91 2075 -91 
Q 1284 -91 818 406 
Q 353 903 353 1747 
Q 353 2603 823 3093 
Q 1294 3584 2113 3584 
Q 2378 3584 2631 3529 
Q 2884 3475 3122 3366 
z
" id="DejaVuSans-63" transform="scale(0.015625)"/>
        <path d="M 1172 4494 
L 1172 3500 
L 2356 3500 
L 2356 3053 
L 1172 3053 
L 1172 1153 
Q 1172 725 1289 603 
Q 1406 481 1766 481 
L 2356 481 
L 2356 0 
L 1766 0 
Q 1100 0 847 248 
Q 594 497 594 1153 
L 594 3053 
L 172 3053 
L 172 3500 
L 594 3500 
L 594 4494 
L 1172 4494 
z
" id="DejaVuSans-74" transform="scale(0.015625)"/>
       </defs>
       <use xlink:href="#DejaVuSans-4f"/>
       <use x="78.710938" xlink:href="#DejaVuSans-63"/>
       <use x="133.691406" xlink:href="#DejaVuSans-74"/>
      </g>
     </g>
    </g>
    <g id="xtick_11">
     <g id="line2d_21">
      <path clip-path="url(#p548d44cd1f)" d="M 371.483544 384.48 
L 371.483544 51.84 
" style="fill:none;stroke:#000000;stroke-dasharray:0.8,1.32;stroke-dashoffset:0;stroke-opacity:0.5;stroke-width:0.8;"/>
     </g>
     <g id="line2d_22">
      <g>
       <use style="stroke:#000000;stroke-width:0.8;" x="371.483544" xlink:href="#m51a91e6b56" y="384.48"/>
      </g>
     </g>
     <g id="text_11">
      <!-- 15 -->
      <g transform="translate(365.121044 399.078438)scale(0.1 -0.1)">
       <use xlink:href="#DejaVuSans-31"/>
       <use x="63.623047" xlink:href="#DejaVuSans-35"/>
      </g>
     </g>
    </g>
    <g id="xtick_12">
     <g id="line2d_23">
      <path clip-path="url(#p548d44cd1f)" d="M 403.503797 384.48 
L 403.503797 51.84 
" style="fill:none;stroke:#000000;stroke-dasharray:0.8,1.32;stroke-dashoffset:0;stroke-opacity:0.5;stroke-width:0.8;"/>
     </g>
     <g id="line2d_24">
      <g>
       <use style="stroke:#000000;stroke-width:0.8;" x="403.503797" xlink:href="#m51a91e6b56" y="384.48"/>
      </g>
     </g>
     <g id="text_12">
      <!-- Nov -->
      <g transform="translate(393.744422 399.078438)scale(0.1 -0.1)">
       <defs>
        <path d="M 628 4666 
L 1478 4666 
L 3547 763 
L 3547 4666 
L 4159 4666 
L 4159 0 
L 3309 0 
L 1241 3903 
L 1241 0 
L 628 0 
L 628 4666 
z
" id="DejaVuSans-4e" transform="scale(0.015625)"/>
        <path d="M 1959 3097 
Q 1497 3097 1228 2736 
Q 959 2375 959 1747 
Q 959 1119 1226 758 
Q 1494 397 1959 397 
Q 2419 397 2687 759 
Q 2956 1122 2956 1747 
Q 2956 2369 2687 2733 
Q 2419 3097 1959 3097 
z
M 1959 3584 
Q 2709 3584 3137 3096 
Q 3566 2609 3566 1747 
Q 3566 888 3137 398 
Q 2709 -91 1959 -91 
Q 1206 -91 779 398 
Q 353 888 353 1747 
Q 353 2609 779 3096 
Q 1206 3584 1959 3584 
z
" id="DejaVuSans-6f" transform="scale(0.015625)"/>
        <path d="M 191 3500 
L 800 3500 
L 1894 563 
L 2988 3500 
L 3597 3500 
L 2284 0 
L 1503 0 
L 191 3500 
z
" id="DejaVuSans-76" transform="scale(0.015625)"/>
       </defs>
       <use xlink:href="#DejaVuSans-4e"/>
       <use x="74.804688" xlink:href="#DejaVuSans-6f"/>
       <use x="135.986328" xlink:href="#DejaVuSans-76"/>
      </g>
     </g>
    </g>
    <g id="xtick_13">
     <g id="line2d_25">
      <path clip-path="url(#p548d44cd1f)" d="M 429.873418 384.48 
L 429.873418 51.84 
" style="fill:none;stroke:#000000;stroke-dasharray:0.8,1.32;stroke-dashoffset:0;stroke-opacity:0.5;stroke-width:0.8;"/>
     </g>
     <g id="line2d_26">
      <g>
       <use style="stroke:#000000;stroke-width:0.8;" x="429.873418" xlink:href="#m51a91e6b56" y="384.48"/>
      </g>
     </g>
     <g id="text_13">
      <!-- 15 -->
      <g transform="translate(423.510918 399.078438)scale(0.1 -0.1)">
       <use xlink:href="#DejaVuSans-31"/>
       <use x="63.623047" xlink:href="#DejaVuSans-35"/>
      </g>
     </g>
    </g>
    <g id="xtick_14">
     <g id="line2d_27">
      <path clip-path="url(#p548d44cd1f)" d="M 460.010127 384.48 
L 460.010127 51.84 
" style="fill:none;stroke:#000000;stroke-dasharray:0.8,1.32;stroke-dashoffset:0;stroke-opacity:0.5;stroke-width:0.8;"/>
     </g>
     <g id="line2d_28">
      <g>
       <use style="stroke:#000000;stroke-width:0.8;" x="460.010127" xlink:href="#m51a91e6b56" y="384.48"/>
      </g>
     </g>
     <g id="text_14">
      <!-- Dec -->
      <g transform="translate(450.334345 399.078438)scale(0.1 -0.1)">
       <defs>
        <path d="M 1259 4147 
L 1259 519 
L 2022 519 
Q 2988 519 3436 956 
Q 3884 1394 3884 2338 
Q 3884 3275 3436 3711 
Q 2988 4147 2022 4147 
L 1259 4147 
z
M 628 4666 
L 1925 4666 
Q 3281 4666 3915 4102 
Q 4550 3538 4550 2338 
Q 4550 1131 3912 565 
Q 3275 0 1925 0 
L 628 0 
L 628 4666 
z
" id="DejaVuSans-44" transform="scale(0.015625)"/>
       </defs>
       <use xlink:href="#DejaVuSans-44"/>
       <use x="77.001953" xlink:href="#DejaVuSans-65"/>
       <use x="138.525391" xlink:href="#DejaVuSans-63"/>
      </g>
     </g>
    </g>
    <g id="xtick_15">
     <g id="line2d_29">
      <path clip-path="url(#p548d44cd1f)" d="M 486.379747 384.48 
L 486.379747 51.84 
" style="fill:none;stroke:#000000;stroke-dasharray:0.8,1.32;stroke-dashoffset:0;stroke-opacity:0.5;stroke-width:0.8;"/>
     </g>
     <g id="line2d_30">
      <g>
       <use style="stroke:#000000;stroke-width:0.8;" x="486.379747" xlink:href="#m51a91e6b56" y="384.48"/>
      </g>
     </g>
     <g id="text_15">
      <!-- 15 -->
      <g transform="translate(480.017247 399.078438)scale(0.1 -0.1)">
       <use xlink:href="#DejaVuSans-31"/>
       <use x="63.623047" xlink:href="#DejaVuSans-35"/>
      </g>
     </g>
    </g>
    <g id="xtick_16">
     <g id="line2d_31">
      <path clip-path="url(#p548d44cd1f)" d="M 518.4 384.48 
L 518.4 51.84 
" style="fill:none;stroke:#000000;stroke-dasharray:0.8,1.32;stroke-dashoffset:0;stroke-opacity:0.5;stroke-width:0.8;"/>
     </g>
     <g id="line2d_32">
      <g>
       <use style="stroke:#000000;stroke-width:0.8;" x="518.4" xlink:href="#m51a91e6b56" y="384.48"/>
      </g>
     </g>
     <g id="text_16">
      <!-- Jan -->
      <g transform="translate(510.692188 399.078438)scale(0.1 -0.1)">
       <defs>
        <path d="M 2194 1759 
Q 1497 1759 1228 1600 
Q 959 1441 959 1056 
Q 959 750 1161 570 
Q 1363 391 1709 391 
Q 2188 391 2477 730 
Q 2766 1069 2766 1631 
L 2766 1759 
L 2194 1759 
z
M 3341 1997 
L 3341 0 
L 2766 0 
L 2766 531 
Q 2569 213 2275 61 
Q 1981 -91 1556 -91 
Q 1019 -91 701 211 
Q 384 513 384 1019 
Q 384 1609 779 1909 
Q 1175 2209 1959 2209 
L 2766 2209 
L 2766 2266 
Q 2766 2663 2505 2880 
Q 2244 3097 1772 3097 
Q 1472 3097 1187 3025 
Q 903 2953 641 2809 
L 641 3341 
Q 956 3463 1253 3523 
Q 1550 3584 1831 3584 
Q 2591 3584 2966 3190 
Q 3341 2797 3341 1997 
z
" id="DejaVuSans-61" transform="scale(0.015625)"/>
       </defs>
       <use xlink:href="#DejaVuSans-4a"/>
       <use x="29.492188" xlink:href="#DejaVuSans-61"/>
       <use x="90.771484" xlink:href="#DejaVuSans-6e"/>
      </g>
     </g>
    </g>
    <g id="text_17">
     <!-- 2022-Jan -->
     <g transform="translate(473.364062 411.756563)scale(0.1 -0.1)">
      <defs>
       <path d="M 1228 531 
L 3431 531 
L 3431 0 
L 469 0 
L 469 531 
Q 828 903 1448 1529 
Q 2069 2156 2228 2338 
Q 2531 2678 2651 2914 
Q 2772 3150 2772 3378 
Q 2772 3750 2511 3984 
Q 2250 4219 1831 4219 
Q 1534 4219 1204 4116 
Q 875 4013 500 3803 
L 500 4441 
Q 881 4594 1212 4672 
Q 1544 4750 1819 4750 
Q 2544 4750 2975 4387 
Q 3406 4025 3406 3419 
Q 3406 3131 3298 2873 
Q 3191 2616 2906 2266 
Q 2828 2175 2409 1742 
Q 1991 1309 1228 531 
z
" id="DejaVuSans-32" transform="scale(0.015625)"/>
       <path d="M 2034 4250 
Q 1547 4250 1301 3770 
Q 1056 3291 1056 2328 
Q 1056 1369 1301 889 
Q 1547 409 2034 409 
Q 2525 409 2770 889 
Q 3016 1369 3016 2328 
Q 3016 3291 2770 3770 
Q 2525 4250 2034 4250 
z
M 2034 4750 
Q 2819 4750 3233 4129 
Q 3647 3509 3647 2328 
Q 3647 1150 3233 529 
Q 2819 -91 2034 -91 
Q 1250 -91 836 529 
Q 422 1150 422 2328 
Q 422 3509 836 4129 
Q 1250 4750 2034 4750 
z
" id="DejaVuSans-30" transform="scale(0.015625)"/>
       <path d="M 313 2009 
L 1997 2009 
L 1997 1497 
L 313 1497 
L 313 2009 
z
" id="DejaVuSans-2d" transform="scale(0.015625)"/>
      </defs>
      <use xlink:href="#DejaVuSans-32"/>
      <use x="63.623047" xlink:href="#DejaVuSans-30"/>
      <use x="127.246094" xlink:href="#DejaVuSans-32"/>
      <use x="190.869141" xlink:href="#DejaVuSans-32"/>
      <use x="254.492188" xlink:href="#DejaVuSans-2d"/>
      <use x="296.201172" xlink:href="#DejaVuSans-4a"/>
      <use x="325.693359" xlink:href="#DejaVuSans-61"/>
      <use x="386.972656" xlink:href="#DejaVuSans-6e"/>
     </g>
    </g>
   </g>
   <g id="matplotlib.axis_2">
    <g id="ytick_1">
     <g id="line2d_33">
      <path clip-path="url(#p548d44cd1f)" d="M 72 384.48 
L 518.4 384.48 
" style="fill:none;stroke:#000000;stroke-dasharray:0.8,1.32;stroke-dashoffset:0;stroke-opacity:0.5;stroke-width:0.8;"/>
     </g>
     <g id="line2d_34">
      <defs>
       <path d="M 0 0 
L -3.5 0 
" id="m0232989cb7" style="stroke:#000000;stroke-width:0.8;"/>
      </defs>
      <g>
       <use style="stroke:#000000;stroke-width:0.8;" x="72" xlink:href="#m0232989cb7" y="384.48"/>
      </g>
     </g>
     <g id="text_18">
      <!-- 0 -->
      <g transform="translate(58.6375 388.279219)scale(0.1 -0.1)">
       <use xlink:href="#DejaVuSans-30"/>
      </g>
     </g>
    </g>
    <g id="ytick_2">
     <g id="line2d_35">
      <path clip-path="url(#p548d44cd1f)" d="M 72 351.216 
L 518.4 351.216 
" style="fill:none;stroke:#000000;stroke-dasharray:0.8,1.32;stroke-dashoffset:0;stroke-opacity:0.5;stroke-width:0.8;"/>
     </g>
     <g id="line2d_36">
      <g>
       <use style="stroke:#000000;stroke-width:0.8;" x="72" xlink:href="#m0232989cb7" y="351.216"/>
      </g>
     </g>
     <g id="text_19">
      <!-- 10 -->
      <g transform="translate(52.275 355.015219)scale(0.1 -0.1)">
       <use xlink:href="#DejaVuSans-31"/>
       <use x="63.623047" xlink:href="#DejaVuSans-30"/>
      </g>
     </g>
    </g>
    <g id="ytick_3">
     <g id="line2d_37">
      <path clip-path="url(#p548d44cd1f)" d="M 72 317.952 
L 518.4 317.952 
" style="fill:none;stroke:#000000;stroke-dasharray:0.8,1.32;stroke-dashoffset:0;stroke-opacity:0.5;stroke-width:0.8;"/>
     </g>
     <g id="line2d_38">
      <g>
       <use style="stroke:#000000;stroke-width:0.8;" x="72" xlink:href="#m0232989cb7" y="317.952"/>
      </g>
     </g>
     <g id="text_20">
      <!-- 20 -->
      <g transform="translate(52.275 321.751219)scale(0.1 -0.1)">
       <use xlink:href="#DejaVuSans-32"/>
       <use x="63.623047" xlink:href="#DejaVuSans-30"/>
      </g>
     </g>
    </g>
    <g id="ytick_4">
     <g id="line2d_39">
      <path clip-path="url(#p548d44cd1f)" d="M 72 284.688 
L 518.4 284.688 
" style="fill:none;stroke:#000000;stroke-dasharray:0.8,1.32;stroke-dashoffset:0;stroke-opacity:0.5;stroke-width:0.8;"/>
     </g>
     <g id="line2d_40">
      <g>
       <use style="stroke:#000000;stroke-width:0.8;" x="72" xlink:href="#m0232989cb7" y="284.688"/>
      </g>
     </g>
     <g id="text_21">
      <!-- 30 -->
      <g transform="translate(52.275 288.487219)scale(0.1 -0.1)">
       <defs>
        <path d="M 2597 2516 
Q 3050 2419 3304 2112 
Q 3559 1806 3559 1356 
Q 3559 666 3084 287 
Q 2609 -91 1734 -91 
Q 1441 -91 1130 -33 
Q 819 25 488 141 
L 488 750 
Q 750 597 1062 519 
Q 1375 441 1716 441 
Q 2309 441 2620 675 
Q 2931 909 2931 1356 
Q 2931 1769 2642 2001 
Q 2353 2234 1838 2234 
L 1294 2234 
L 1294 2753 
L 1863 2753 
Q 2328 2753 2575 2939 
Q 2822 3125 2822 3475 
Q 2822 3834 2567 4026 
Q 2313 4219 1838 4219 
Q 1578 4219 1281 4162 
Q 984 4106 628 3988 
L 628 4550 
Q 988 4650 1302 4700 
Q 1616 4750 1894 4750 
Q 2613 4750 3031 4423 
Q 3450 4097 3450 3541 
Q 3450 3153 3228 2886 
Q 3006 2619 2597 2516 
z
" id="DejaVuSans-33" transform="scale(0.015625)"/>
       </defs>
       <use xlink:href="#DejaVuSans-33"/>
       <use x="63.623047" xlink:href="#DejaVuSans-30"/>
      </g>
     </g>
    </g>
    <g id="ytick_5">
     <g id="line2d_41">
      <path clip-path="url(#p548d44cd1f)" d="M 72 251.424 
L 518.4 251.424 
" style="fill:none;stroke:#000000;stroke-dasharray:0.8,1.32;stroke-dashoffset:0;stroke-opacity:0.5;stroke-width:0.8;"/>
     </g>
     <g id="line2d_42">
      <g>
       <use style="stroke:#000000;stroke-width:0.8;" x="72" xlink:href="#m0232989cb7" y="251.424"/>
      </g>
     </g>
     <g id="text_22">
      <!-- 40 -->
      <g transform="translate(52.275 255.223219)scale(0.1 -0.1)">
       <defs>
        <path d="M 2419 4116 
L 825 1625 
L 2419 1625 
L 2419 4116 
z
M 2253 4666 
L 3047 4666 
L 3047 1625 
L 3713 1625 
L 3713 1100 
L 3047 1100 
L 3047 0 
L 2419 0 
L 2419 1100 
L 313 1100 
L 313 1709 
L 2253 4666 
z
" id="DejaVuSans-34" transform="scale(0.015625)"/>
       </defs>
       <use xlink:href="#DejaVuSans-34"/>
       <use x="63.623047" xlink:href="#DejaVuSans-30"/>
      </g>
     </g>
    </g>
    <g id="ytick_6">
     <g id="line2d_43">
      <path clip-path="url(#p548d44cd1f)" d="M 72 218.16 
L 518.4 218.16 
" style="fill:none;stroke:#000000;stroke-dasharray:0.8,1.32;stroke-dashoffset:0;stroke-opacity:0.5;stroke-width:0.8;"/>
     </g>
     <g id="line2d_44">
      <g>
       <use style="stroke:#000000;stroke-width:0.8;" x="72" xlink:href="#m0232989cb7" y="218.16"/>
      </g>
     </g>
     <g id="text_23">
      <!-- 50 -->
      <g transform="translate(52.275 221.959219)scale(0.1 -0.1)">
       <use xlink:href="#DejaVuSans-35"/>
       <use x="63.623047" xlink:href="#DejaVuSans-30"/>
      </g>
     </g>
    </g>
    <g id="ytick_7">
     <g id="line2d_45">
      <path clip-path="url(#p548d44cd1f)" d="M 72 184.896 
L 518.4 184.896 
" style="fill:none;stroke:#000000;stroke-dasharray:0.8,1.32;stroke-dashoffset:0;stroke-opacity:0.5;stroke-width:0.8;"/>
     </g>
     <g id="line2d_46">
      <g>
       <use style="stroke:#000000;stroke-width:0.8;" x="72" xlink:href="#m0232989cb7" y="184.896"/>
      </g>
     </g>
     <g id="text_24">
      <!-- 60 -->
      <g transform="translate(52.275 188.695219)scale(0.1 -0.1)">
       <defs>
        <path d="M 2113 2584 
Q 1688 2584 1439 2293 
Q 1191 2003 1191 1497 
Q 1191 994 1439 701 
Q 1688 409 2113 409 
Q 2538 409 2786 701 
Q 3034 994 3034 1497 
Q 3034 2003 2786 2293 
Q 2538 2584 2113 2584 
z
M 3366 4563 
L 3366 3988 
Q 3128 4100 2886 4159 
Q 2644 4219 2406 4219 
Q 1781 4219 1451 3797 
Q 1122 3375 1075 2522 
Q 1259 2794 1537 2939 
Q 1816 3084 2150 3084 
Q 2853 3084 3261 2657 
Q 3669 2231 3669 1497 
Q 3669 778 3244 343 
Q 2819 -91 2113 -91 
Q 1303 -91 875 529 
Q 447 1150 447 2328 
Q 447 3434 972 4092 
Q 1497 4750 2381 4750 
Q 2619 4750 2861 4703 
Q 3103 4656 3366 4563 
z
" id="DejaVuSans-36" transform="scale(0.015625)"/>
       </defs>
       <use xlink:href="#DejaVuSans-36"/>
       <use x="63.623047" xlink:href="#DejaVuSans-30"/>
      </g>
     </g>
    </g>
    <g id="ytick_8">
     <g id="line2d_47">
      <path clip-path="url(#p548d44cd1f)" d="M 72 151.632 
L 518.4 151.632 
" style="fill:none;stroke:#000000;stroke-dasharray:0.8,1.32;stroke-dashoffset:0;stroke-opacity:0.5;stroke-width:0.8;"/>
     </g>
     <g id="line2d_48">
      <g>
       <use style="stroke:#000000;stroke-width:0.8;" x="72" xlink:href="#m0232989cb7" y="151.632"/>
      </g>
     </g>
     <g id="text_25">
      <!-- 70 -->
      <g transform="translate(52.275 155.431219)scale(0.1 -0.1)">
       <defs>
        <path d="M 525 4666 
L 3525 4666 
L 3525 4397 
L 1831 0 
L 1172 0 
L 2766 4134 
L 525 4134 
L 525 4666 
z
" id="DejaVuSans-37" transform="scale(0.015625)"/>
       </defs>
       <use xlink:href="#DejaVuSans-37"/>
       <use x="63.623047" xlink:href="#DejaVuSans-30"/>
      </g>
     </g>
    </g>
    <g id="ytick_9">
     <g id="line2d_49">
      <path clip-path="url(#p548d44cd1f)" d="M 72 118.368 
L 518.4 118.368 
" style="fill:none;stroke:#000000;stroke-dasharray:0.8,1.32;stroke-dashoffset:0;stroke-opacity:0.5;stroke-width:0.8;"/>
     </g>
     <g id="line2d_50">
      <g>
       <use style="stroke:#000000;stroke-width:0.8;" x="72" xlink:href="#m0232989cb7" y="118.368"/>
      </g>
     </g>
     <g id="text_26">
      <!-- 80 -->
      <g transform="translate(52.275 122.167219)scale(0.1 -0.1)">
       <defs>
        <path d="M 2034 2216 
Q 1584 2216 1326 1975 
Q 1069 1734 1069 1313 
Q 1069 891 1326 650 
Q 1584 409 2034 409 
Q 2484 409 2743 651 
Q 3003 894 3003 1313 
Q 3003 1734 2745 1975 
Q 2488 2216 2034 2216 
z
M 1403 2484 
Q 997 2584 770 2862 
Q 544 3141 544 3541 
Q 544 4100 942 4425 
Q 1341 4750 2034 4750 
Q 2731 4750 3128 4425 
Q 3525 4100 3525 3541 
Q 3525 3141 3298 2862 
Q 3072 2584 2669 2484 
Q 3125 2378 3379 2068 
Q 3634 1759 3634 1313 
Q 3634 634 3220 271 
Q 2806 -91 2034 -91 
Q 1263 -91 848 271 
Q 434 634 434 1313 
Q 434 1759 690 2068 
Q 947 2378 1403 2484 
z
M 1172 3481 
Q 1172 3119 1398 2916 
Q 1625 2713 2034 2713 
Q 2441 2713 2670 2916 
Q 2900 3119 2900 3481 
Q 2900 3844 2670 4047 
Q 2441 4250 2034 4250 
Q 1625 4250 1398 4047 
Q 1172 3844 1172 3481 
z
" id="DejaVuSans-38" transform="scale(0.015625)"/>
       </defs>
       <use xlink:href="#DejaVuSans-38"/>
       <use x="63.623047" xlink:href="#DejaVuSans-30"/>
      </g>
     </g>
    </g>
    <g id="ytick_10">
     <g id="line2d_51">
      <path clip-path="url(#p548d44cd1f)" d="M 72 85.104 
L 518.4 85.104 
" style="fill:none;stroke:#000000;stroke-dasharray:0.8,1.32;stroke-dashoffset:0;stroke-opacity:0.5;stroke-width:0.8;"/>
     </g>
     <g id="line2d_52">
      <g>
       <use style="stroke:#000000;stroke-width:0.8;" x="72" xlink:href="#m0232989cb7" y="85.104"/>
      </g>
     </g>
     <g id="text_27">
      <!-- 90 -->
      <g transform="translate(52.275 88.903219)scale(0.1 -0.1)">
       <defs>
        <path d="M 703 97 
L 703 672 
Q 941 559 1184 500 
Q 1428 441 1663 441 
Q 2288 441 2617 861 
Q 2947 1281 2994 2138 
Q 2813 1869 2534 1725 
Q 2256 1581 1919 1581 
Q 1219 1581 811 2004 
Q 403 2428 403 3163 
Q 403 3881 828 4315 
Q 1253 4750 1959 4750 
Q 2769 4750 3195 4129 
Q 3622 3509 3622 2328 
Q 3622 1225 3098 567 
Q 2575 -91 1691 -91 
Q 1453 -91 1209 -44 
Q 966 3 703 97 
z
M 1959 2075 
Q 2384 2075 2632 2365 
Q 2881 2656 2881 3163 
Q 2881 3666 2632 3958 
Q 2384 4250 1959 4250 
Q 1534 4250 1286 3958 
Q 1038 3666 1038 3163 
Q 1038 2656 1286 2365 
Q 1534 2075 1959 2075 
z
" id="DejaVuSans-39" transform="scale(0.015625)"/>
       </defs>
       <use xlink:href="#DejaVuSans-39"/>
       <use x="63.623047" xlink:href="#DejaVuSans-30"/>
      </g>
     </g>
    </g>
    <g id="ytick_11">
     <g id="line2d_53">
      <path clip-path="url(#p548d44cd1f)" d="M 72 51.84 
L 518.4 51.84 
" style="fill:none;stroke:#000000;stroke-dasharray:0.8,1.32;stroke-dashoffset:0;stroke-opacity:0.5;stroke-width:0.8;"/>
     </g>
     <g id="line2d_54">
      <g>
       <use style="stroke:#000000;stroke-width:0.8;" x="72" xlink:href="#m0232989cb7" y="51.84"/>
      </g>
     </g>
     <g id="text_28">
      <!-- 100 -->
      <g transform="translate(45.9125 55.639219)scale(0.1 -0.1)">
       <use xlink:href="#DejaVuSans-31"/>
       <use x="63.623047" xlink:href="#DejaVuSans-30"/>
       <use x="127.246094" xlink:href="#DejaVuSans-30"/>
      </g>
     </g>
    </g>
    <g id="text_29">
     <!-- Vaccine coverage (%) -->
     <g transform="translate(39.832812 272.435)rotate(-90)scale(0.1 -0.1)">
      <defs>
       <path d="M 1831 0 
L 50 4666 
L 709 4666 
L 2188 738 
L 3669 4666 
L 4325 4666 
L 2547 0 
L 1831 0 
z
" id="DejaVuSans-56" transform="scale(0.015625)"/>
       <path d="M 603 3500 
L 1178 3500 
L 1178 0 
L 603 0 
L 603 3500 
z
M 603 4863 
L 1178 4863 
L 1178 4134 
L 603 4134 
L 603 4863 
z
" id="DejaVuSans-69" transform="scale(0.015625)"/>
       <path id="DejaVuSans-20" transform="scale(0.015625)"/>
       <path d="M 2631 2963 
Q 2534 3019 2420 3045 
Q 2306 3072 2169 3072 
Q 1681 3072 1420 2755 
Q 1159 2438 1159 1844 
L 1159 0 
L 581 0 
L 581 3500 
L 1159 3500 
L 1159 2956 
Q 1341 3275 1631 3429 
Q 1922 3584 2338 3584 
Q 2397 3584 2469 3576 
Q 2541 3569 2628 3553 
L 2631 2963 
z
" id="DejaVuSans-72" transform="scale(0.015625)"/>
       <path d="M 1984 4856 
Q 1566 4138 1362 3434 
Q 1159 2731 1159 2009 
Q 1159 1288 1364 580 
Q 1569 -128 1984 -844 
L 1484 -844 
Q 1016 -109 783 600 
Q 550 1309 550 2009 
Q 550 2706 781 3412 
Q 1013 4119 1484 4856 
L 1984 4856 
z
" id="DejaVuSans-28" transform="scale(0.015625)"/>
       <path d="M 4653 2053 
Q 4381 2053 4226 1822 
Q 4072 1591 4072 1178 
Q 4072 772 4226 539 
Q 4381 306 4653 306 
Q 4919 306 5073 539 
Q 5228 772 5228 1178 
Q 5228 1588 5073 1820 
Q 4919 2053 4653 2053 
z
M 4653 2450 
Q 5147 2450 5437 2106 
Q 5728 1763 5728 1178 
Q 5728 594 5436 251 
Q 5144 -91 4653 -91 
Q 4153 -91 3862 251 
Q 3572 594 3572 1178 
Q 3572 1766 3864 2108 
Q 4156 2450 4653 2450 
z
M 1428 4353 
Q 1159 4353 1004 4120 
Q 850 3888 850 3481 
Q 850 3069 1003 2837 
Q 1156 2606 1428 2606 
Q 1700 2606 1854 2837 
Q 2009 3069 2009 3481 
Q 2009 3884 1853 4118 
Q 1697 4353 1428 4353 
z
M 4250 4750 
L 4750 4750 
L 1831 -91 
L 1331 -91 
L 4250 4750 
z
M 1428 4750 
Q 1922 4750 2215 4408 
Q 2509 4066 2509 3481 
Q 2509 2891 2217 2550 
Q 1925 2209 1428 2209 
Q 931 2209 642 2551 
Q 353 2894 353 3481 
Q 353 4063 643 4406 
Q 934 4750 1428 4750 
z
" id="DejaVuSans-25" transform="scale(0.015625)"/>
       <path d="M 513 4856 
L 1013 4856 
Q 1481 4119 1714 3412 
Q 1947 2706 1947 2009 
Q 1947 1309 1714 600 
Q 1481 -109 1013 -844 
L 513 -844 
Q 928 -128 1133 580 
Q 1338 1288 1338 2009 
Q 1338 2731 1133 3434 
Q 928 4138 513 4856 
z
" id="DejaVuSans-29" transform="scale(0.015625)"/>
      </defs>
      <use xlink:href="#DejaVuSans-56"/>
      <use x="60.658203" xlink:href="#DejaVuSans-61"/>
      <use x="121.9375" xlink:href="#DejaVuSans-63"/>
      <use x="176.917969" xlink:href="#DejaVuSans-63"/>
      <use x="231.898438" xlink:href="#DejaVuSans-69"/>
      <use x="259.681641" xlink:href="#DejaVuSans-6e"/>
      <use x="323.060547" xlink:href="#DejaVuSans-65"/>
      <use x="384.583984" xlink:href="#DejaVuSans-20"/>
      <use x="416.371094" xlink:href="#DejaVuSans-63"/>
      <use x="471.351562" xlink:href="#DejaVuSans-6f"/>
      <use x="532.533203" xlink:href="#DejaVuSans-76"/>
      <use x="591.712891" xlink:href="#DejaVuSans-65"/>
      <use x="653.236328" xlink:href="#DejaVuSans-72"/>
      <use x="694.349609" xlink:href="#DejaVuSans-61"/>
      <use x="755.628906" xlink:href="#DejaVuSans-67"/>
      <use x="819.105469" xlink:href="#DejaVuSans-65"/>
      <use x="880.628906" xlink:href="#DejaVuSans-20"/>
      <use x="912.416016" xlink:href="#DejaVuSans-28"/>
      <use x="951.429688" xlink:href="#DejaVuSans-25"/>
      <use x="1046.449219" xlink:href="#DejaVuSans-29"/>
     </g>
    </g>
   </g>
   <g id="line2d_55">
    <path clip-path="url(#p548d44cd1f)" d="M 72 237.611407 
L 73.883544 235.632738 
L 75.767089 233.880742 
L 77.650633 230.87732 
L 79.534177 225.068815 
L 81.417722 225.068815 
L 83.301266 221.800941 
L 85.18481 221.800941 
L 87.068354 220.105613 
L 88.951899 215.070001 
L 90.835443 211.983151 
L 92.718987 207.540983 
L 94.602532 205.245915 
L 96.486076 204.855533 
L 100.253165 201.51525 
L 102.136709 201.51525 
L 105.903797 196.635476 
L 107.787342 194.330964 
L 109.670886 193.332971 
L 111.55443 192.81666 
L 113.437975 191.33069 
L 115.321519 187.165567 
L 117.205063 184.646974 
L 119.088608 182.833587 
L 120.972152 182.833587 
L 122.855696 181.934764 
L 124.739241 181.538086 
L 126.622785 179.932483 
L 128.506329 175.524946 
L 130.389873 173.363678 
L 132.273418 171.758075 
L 134.156962 171.093796 
L 136.040506 171.093796 
L 139.807595 170.338219 
L 143.574684 166.654777 
L 145.458228 164.959449 
L 147.341772 163.59626 
L 149.225316 162.906796 
L 151.108861 162.574656 
L 156.759494 158.659818 
L 158.643038 157.021159 
L 160.526582 155.908256 
L 162.410127 155.325831 
L 164.293671 155.059805 
L 168.060759 152.692328 
L 169.944304 150.981259 
L 173.711392 148.292661 
L 175.594937 147.666161 
L 177.478481 147.423746 
L 179.362025 146.430476 
L 185.012658 142.934354 
L 186.896203 142.035532 
L 188.779747 141.470422 
L 190.663291 141.1981 
L 192.546835 140.264646 
L 200.081013 135.866553 
L 201.964557 135.117272 
L 203.848101 134.885876 
L 207.61519 132.797018 
L 213.265823 129.459883 
L 215.149367 129.001814 
L 217.032911 128.754677 
L 222.683544 125.7607 
L 224.567089 124.628907 
L 226.450633 123.62934 
L 228.334177 123.14766 
L 230.217722 122.865892 
L 233.98481 120.947039 
L 239.635443 117.751574 
L 241.518987 117.290357 
L 243.402532 117.000719 
L 245.286076 116.054672 
L 249.053165 113.825718 
L 250.936709 112.823003 
L 252.820253 111.632968 
L 254.703797 111.071007 
L 256.587342 110.740442 
L 260.35443 108.678344 
L 262.237975 107.518217 
L 266.005063 105.489176 
L 267.888608 104.950826 
L 269.772152 104.659614 
L 273.539241 102.734465 
L 279.189873 99.518536 
L 281.073418 99.000651 
L 282.956962 98.709438 
L 284.840506 97.827931 
L 292.374684 93.658086 
L 294.258228 93.207887 
L 296.141772 92.971769 
L 299.908861 91.032453 
L 303.675949 88.603585 
L 305.559494 87.693743 
L 307.443038 87.139653 
L 309.326582 86.84844 
L 313.093671 85.112185 
L 318.744304 82.514887 
L 322.511392 81.738845 
L 328.162025 79.352478 
L 330.04557 78.425321 
L 331.929114 77.838175 
L 335.696203 77.158154 
L 341.346835 75.069297 
L 345.113924 73.671477 
L 350.764557 72.547555 
L 358.298734 69.706268 
L 360.182278 69.243476 
L 362.065823 69.007358 
L 363.949367 68.442249 
L 369.6 66.454135 
L 371.483544 65.874859 
L 375.250633 65.267248 
L 384.668354 62.098543 
L 386.551899 61.73807 
L 388.435443 61.5051 
L 390.318987 60.908508 
L 390.318987 60.908508 
" style="fill:none;stroke:#1f77b4;stroke-linecap:square;stroke-width:1.5;"/>
   </g>
   <g id="line2d_56">
    <path clip-path="url(#p548d44cd1f)" d="M 72 249.334238 
L 73.883544 246.797492 
L 75.767089 244.063732 
L 77.650633 240.861474 
L 79.534177 236.83767 
L 81.417722 236.83767 
L 83.301266 233.04319 
L 85.18481 233.04319 
L 87.068354 230.901653 
L 88.951899 227.377869 
L 92.718987 221.338616 
L 94.602532 217.793161 
L 96.486076 217.460602 
L 98.36962 215.256415 
L 100.253165 212.781925 
L 102.136709 212.781925 
L 105.903797 206.992091 
L 107.787342 204.568825 
L 109.670886 203.427329 
L 111.55443 202.906031 
L 113.437975 200.461487 
L 115.321519 195.212259 
L 117.205063 192.291336 
L 119.088608 190.014254 
L 120.972152 190.014254 
L 122.855696 188.903097 
L 124.739241 188.424355 
L 126.622785 186.314734 
L 128.506329 181.022556 
L 130.389873 178.1962 
L 132.273418 176.105887 
L 134.156962 175.315863 
L 136.040506 175.315863 
L 137.924051 174.983304 
L 139.807595 174.391081 
L 145.458228 167.768275 
L 147.341772 165.845423 
L 149.225316 164.961226 
L 151.108861 164.628667 
L 152.992405 163.13294 
L 154.875949 161.374792 
L 156.759494 159.452334 
L 160.526582 156.125957 
L 162.410127 155.460052 
L 164.293671 155.222059 
L 166.177215 153.870152 
L 168.060759 152.206964 
L 169.944304 150.296327 
L 171.827848 148.591372 
L 173.711392 147.22528 
L 175.594937 146.627541 
L 177.478481 146.420283 
L 179.362025 145.228351 
L 185.012658 140.992954 
L 186.896203 139.869583 
L 188.779747 139.332918 
L 190.663291 139.135117 
L 194.43038 136.781987 
L 200.081013 133.153786 
L 201.964557 132.598996 
L 203.848101 132.405923 
L 207.61519 130.045307 
L 213.265823 126.384402 
L 215.149367 125.884775 
L 217.032911 125.682245 
L 220.8 123.443778 
L 226.450633 120.000769 
L 228.334177 119.571674 
L 230.217722 119.360081 
L 233.98481 117.169291 
L 239.635443 113.513114 
L 241.518987 113.043828 
L 243.402532 112.807017 
L 245.286076 111.833771 
L 252.820253 107.130664 
L 254.703797 106.6137 
L 256.587342 106.390287 
L 258.470886 105.379214 
L 266.005063 100.773825 
L 267.888608 100.285626 
L 269.772152 100.012565 
L 273.539241 97.812318 
L 279.189873 94.378372 
L 281.073418 93.843678 
L 282.956962 93.599775 
L 284.840506 92.662384 
L 290.491139 89.488103 
L 292.374684 88.547954 
L 294.258228 88.116888 
L 296.141772 87.89978 
L 299.908861 85.848081 
L 303.675949 83.520563 
L 305.559494 82.564653 
L 307.443038 82.089851 
L 309.326582 81.886533 
L 313.093671 80.040516 
L 318.744304 77.358374 
L 322.511392 76.637698 
L 331.929114 72.516963 
L 333.812658 72.135545 
L 335.696203 71.88258 
L 339.463291 70.437683 
L 345.113924 68.111741 
L 346.997468 67.706287 
L 348.881013 67.466325 
L 350.764557 67.017922 
L 358.298734 63.982732 
L 360.182278 63.632048 
L 362.065823 63.418091 
L 365.832911 62.194637 
L 369.6 60.917595 
L 371.483544 60.337587 
L 373.367089 60.025124 
L 375.250633 59.843477 
L 384.668354 57.112476 
L 390.318987 56.190847 
L 390.318987 56.190847 
" style="fill:none;stroke:#ff7f0e;stroke-linecap:square;stroke-width:1.5;"/>
   </g>
   <g id="line2d_57">
    <path clip-path="url(#p548d44cd1f)" d="M 72 260.277597 
L 75.767089 254.818197 
L 79.534177 248.224112 
L 81.417722 248.224112 
L 83.301266 244.427996 
L 85.18481 244.427996 
L 87.068354 241.86693 
L 92.718987 232.778275 
L 94.602532 229.386453 
L 96.486076 229.053797 
L 98.36962 226.796661 
L 100.253165 223.902583 
L 102.136709 223.902583 
L 105.903797 217.582639 
L 107.787342 214.760022 
L 109.670886 213.525149 
L 111.55443 213.096739 
L 113.437975 210.33583 
L 115.321519 204.015531 
L 117.205063 200.689319 
L 119.088608 198.028243 
L 120.972152 198.028243 
L 122.855696 196.834686 
L 124.739241 196.169373 
L 126.622785 193.840953 
L 128.506329 187.657724 
L 130.389873 184.331335 
L 132.273418 182.074376 
L 134.156962 181.142193 
L 136.040506 181.142193 
L 137.924051 180.809536 
L 139.807595 180.144223 
L 145.458228 172.825954 
L 147.341772 170.730358 
L 149.225316 169.898007 
L 151.108861 169.49389 
L 152.992405 167.902067 
L 154.875949 165.906305 
L 158.643038 162.147249 
L 160.526582 160.679729 
L 162.410127 160.014416 
L 164.293671 159.681759 
L 166.177215 158.351133 
L 168.060759 156.588194 
L 169.944304 154.265981 
L 171.827848 152.366859 
L 173.711392 150.870081 
L 175.594937 150.266654 
L 177.478481 150.065215 
L 179.362025 148.738667 
L 185.012658 144.262697 
L 186.896203 143.081199 
L 188.779747 142.580795 
L 190.663291 142.381307 
L 192.546835 141.225698 
L 198.197468 137.095152 
L 200.081013 135.920391 
L 201.964557 135.427435 
L 203.848101 135.230076 
L 207.61519 132.771324 
L 211.382278 130.112199 
L 213.265823 128.94063 
L 215.149367 128.433311 
L 217.032911 128.238434 
L 220.8 125.922959 
L 226.450633 122.246004 
L 228.334177 121.794896 
L 230.217722 121.586187 
L 232.101266 120.517643 
L 235.868354 117.926964 
L 239.635443 115.26642 
L 241.518987 114.756086 
L 243.402532 114.52805 
L 245.286076 113.442128 
L 250.936709 109.621009 
L 252.820253 108.464868 
L 254.703797 107.937334 
L 256.587342 107.690324 
L 260.35443 105.39666 
L 264.121519 102.770693 
L 266.005063 101.618985 
L 267.888608 101.116276 
L 269.772152 100.877955 
L 273.539241 98.524533 
L 277.306329 95.964354 
L 279.189873 94.832505 
L 281.073418 94.341677 
L 282.956962 94.101405 
L 284.840506 93.09386 
L 292.374684 88.465215 
L 294.258228 87.999567 
L 296.141772 87.797597 
L 299.908861 85.564222 
L 303.675949 83.225696 
L 305.559494 82.204496 
L 307.443038 81.756048 
L 309.326582 81.543971 
L 318.744304 76.909297 
L 322.511392 76.121454 
L 330.04557 72.444144 
L 331.929114 71.77493 
L 333.812658 71.399361 
L 335.696203 71.181432 
L 337.579747 70.496436 
L 345.113924 67.276617 
L 346.997468 66.904063 
L 348.881013 66.708476 
L 350.764557 66.262156 
L 356.41519 63.837451 
L 358.298734 63.161675 
L 360.182278 62.845864 
L 362.065823 62.6634 
L 371.483544 59.681016 
L 375.250633 59.29002 
L 384.668354 56.730727 
L 390.318987 55.913803 
L 390.318987 55.913803 
" style="fill:none;stroke:#2ca02c;stroke-linecap:square;stroke-width:1.5;"/>
   </g>
   <g id="line2d_58">
    <path clip-path="url(#p548d44cd1f)" d="M 72 339.172606 
L 73.883544 337.11265 
L 77.650633 332.344304 
L 79.534177 329.705252 
L 81.417722 329.705252 
L 83.301266 326.159483 
L 85.18481 326.159483 
L 87.068354 323.697738 
L 92.718987 313.645346 
L 94.602532 309.589448 
L 96.486076 309.176639 
L 98.36962 306.129856 
L 100.253165 302.73923 
L 102.136709 302.73923 
L 107.787342 291.339205 
L 109.670886 289.343387 
L 111.55443 288.678114 
L 113.437975 284.788627 
L 115.321519 276.339303 
L 117.205063 271.956897 
L 119.088608 268.475142 
L 120.972152 268.475142 
L 122.855696 266.720892 
L 124.739241 265.46538 
L 126.622785 261.822414 
L 128.506329 253.104529 
L 130.389873 248.791337 
L 132.273418 245.55115 
L 134.156962 244.220481 
L 136.040506 244.220481 
L 137.924051 243.801729 
L 139.807595 243.050155 
L 141.691139 239.563571 
L 143.574684 236.414514 
L 147.341772 230.93694 
L 149.225316 229.606395 
L 151.108861 229.27382 
L 152.992405 227.277878 
L 154.875949 224.874204 
L 160.526582 218.731357 
L 162.410127 217.82464 
L 164.293671 217.492065 
L 166.177215 215.737691 
L 168.060759 213.500304 
L 169.944304 210.436434 
L 171.827848 207.911542 
L 173.711392 205.808745 
L 175.594937 204.922086 
L 177.478481 204.609199 
L 179.362025 202.758742 
L 183.129114 198.901819 
L 185.012658 196.955156 
L 186.896203 195.242261 
L 188.779747 194.488459 
L 190.663291 194.196249 
L 192.546835 192.623392 
L 200.081013 185.622984 
L 201.964557 184.857418 
L 203.848101 184.589972 
L 207.61519 181.233892 
L 213.265823 175.855991 
L 215.149367 175.076806 
L 217.032911 174.768995 
L 220.8 171.396695 
L 224.567089 167.81217 
L 226.450633 166.17629 
L 228.334177 165.513989 
L 230.217722 165.19553 
L 232.101266 163.641988 
L 235.868354 159.980945 
L 239.635443 156.014071 
L 241.518987 155.172977 
L 243.402532 154.775646 
L 245.286076 153.16552 
L 252.820253 145.791925 
L 254.703797 144.95306 
L 256.587342 144.568482 
L 260.35443 141.16857 
L 266.005063 135.559625 
L 267.888608 134.746762 
L 269.772152 134.3264 
L 273.539241 130.754877 
L 279.189873 125.183078 
L 281.073418 124.315982 
L 282.956962 123.907879 
L 284.840506 122.356814 
L 292.374684 115.548694 
L 294.258228 114.765795 
L 296.141772 114.430372 
L 301.792405 109.611385 
L 305.559494 106.441898 
L 307.443038 105.759539 
L 309.326582 105.416811 
L 316.860759 100.228971 
L 318.744304 98.961077 
L 322.511392 97.693059 
L 330.04557 92.594863 
L 331.929114 91.634409 
L 333.812658 91.076857 
L 335.696203 90.777466 
L 337.579747 89.842394 
L 345.113924 85.538613 
L 346.997468 84.978337 
L 348.881013 84.664583 
L 350.764557 84.030389 
L 354.531646 81.882274 
L 358.298734 79.98972 
L 360.182278 79.538899 
L 362.065823 79.291016 
L 371.483544 75.422454 
L 375.250633 74.880132 
L 384.668354 71.702226 
L 386.551899 71.376337 
L 388.435443 71.179839 
L 390.318987 70.643336 
L 390.318987 70.643336 
" style="fill:none;stroke:#d62728;stroke-linecap:square;stroke-width:1.5;"/>
   </g>
   <g id="line2d_59">
    <path clip-path="url(#p548d44cd1f)" d="M 72 353.372376 
L 73.883544 352.208688 
L 77.650633 349.55656 
L 79.534177 348.060223 
L 81.417722 348.060223 
L 83.301266 345.817264 
L 85.18481 345.817264 
L 87.068354 344.572574 
L 90.835443 340.505217 
L 92.718987 338.513799 
L 94.602532 335.686862 
L 96.486076 335.521231 
L 98.36962 333.529813 
L 100.253165 331.290483 
L 102.136709 331.290483 
L 104.020253 328.966522 
L 105.903797 326.309805 
L 107.787342 323.401973 
L 109.670886 321.572559 
L 111.55443 320.907366 
L 113.437975 317.999534 
L 115.321519 311.680572 
L 117.205063 308.269443 
L 119.088608 305.527349 
L 120.972152 305.527349 
L 122.855696 304.031012 
L 124.739241 302.862948 
L 126.622785 299.617984 
L 128.506329 292.304381 
L 130.389873 288.645339 
L 132.273418 285.818508 
L 134.156962 284.650445 
L 136.040506 284.650445 
L 137.924051 284.23626 
L 139.807595 283.319845 
L 141.691139 280.496216 
L 143.574684 278.002035 
L 145.458228 276.173154 
L 147.341772 274.510012 
L 149.225316 273.844712 
L 151.108861 273.426578 
L 152.992405 272.676648 
L 156.759494 270.599747 
L 162.410127 267.934919 
L 164.293671 267.26962 
L 166.177215 266.353205 
L 169.944304 263.28273 
L 171.827848 261.682446 
L 173.711392 260.29539 
L 175.594937 259.228392 
L 177.478481 258.416991 
L 179.362025 256.944559 
L 186.896203 250.402657 
L 188.779747 249.148683 
L 190.663291 248.319033 
L 194.43038 244.792751 
L 200.081013 239.198961 
L 201.964557 237.83357 
L 203.848101 236.986524 
L 211.382278 227.947666 
L 213.265823 225.552096 
L 215.149367 223.901973 
L 217.032911 222.921632 
L 218.916456 220.585719 
L 220.8 218.458766 
L 222.683544 215.842603 
L 224.567089 213.598577 
L 226.450633 211.096285 
L 228.334177 209.628335 
L 230.217722 208.702102 
L 232.101266 206.631711 
L 235.868354 202.050384 
L 239.635443 197.076643 
L 241.518987 195.520862 
L 243.402532 194.565601 
L 245.286076 192.495957 
L 249.053165 187.641851 
L 252.820253 182.738119 
L 254.703797 181.20731 
L 256.587342 180.264002 
L 266.005063 167.885305 
L 267.888608 166.305298 
L 269.772152 165.230936 
L 273.539241 160.446305 
L 275.422785 157.913278 
L 279.189873 153.187344 
L 281.073418 151.544798 
L 282.956962 150.451866 
L 284.840506 148.401753 
L 288.607595 143.870798 
L 292.374684 139.591812 
L 294.258228 138.172954 
L 296.141772 137.344157 
L 305.559494 128.360048 
L 307.443038 127.288034 
L 309.326582 126.608754 
L 314.977215 121.925935 
L 318.744304 118.717469 
L 320.627848 117.691132 
L 322.511392 116.940561 
L 328.162025 112.432979 
L 330.04557 110.799931 
L 331.929114 109.533685 
L 333.812658 108.64982 
L 335.696203 108.08313 
L 339.463291 105.376361 
L 345.113924 101.260125 
L 346.997468 100.482661 
L 348.881013 100.04233 
L 350.764557 99.290799 
L 354.531646 96.719672 
L 358.298734 94.311936 
L 360.182278 93.650584 
L 362.065823 93.25006 
L 371.483544 88.239821 
L 373.367089 87.745701 
L 375.250633 87.415826 
L 384.668354 83.271736 
L 386.551899 82.784874 
L 388.435443 82.43024 
L 390.318987 81.727374 
L 390.318987 81.727374 
" style="fill:none;stroke:#9467bd;stroke-linecap:square;stroke-width:1.5;"/>
   </g>
   <g id="line2d_60">
    <path clip-path="url(#p548d44cd1f)" d="M 72 366.789301 
L 75.767089 366.370762 
L 77.650633 366.038171 
L 79.534177 365.537417 
L 81.417722 365.537417 
L 83.301266 364.953339 
L 85.18481 364.953339 
L 87.068354 364.703064 
L 88.951899 363.786394 
L 90.835443 362.618239 
L 92.718987 362.120007 
L 94.602532 360.781268 
L 96.486076 360.781268 
L 100.253165 359.363846 
L 102.136709 359.363846 
L 104.020253 358.615237 
L 105.903797 357.617261 
L 107.787342 356.782907 
L 109.670886 355.366594 
L 111.55443 354.70121 
L 113.437975 353.701216 
L 115.321519 350.703958 
L 117.205063 349.036159 
L 119.088608 348.28291 
L 120.972152 348.28291 
L 122.855696 347.700951 
L 124.739241 346.201213 
L 126.622785 343.953976 
L 128.506329 337.128537 
L 130.389873 334.634454 
L 132.273418 332.552756 
L 134.156962 331.469034 
L 136.040506 331.469034 
L 137.924051 331.053118 
L 139.807595 330.471159 
L 141.691139 326.726302 
L 143.574684 324.397859 
L 145.458228 322.983967 
L 147.341772 320.487362 
L 149.225316 319.156794 
L 151.108861 318.242243 
L 152.992405 316.828351 
L 154.875949 315.079346 
L 160.526582 311.170967 
L 162.410127 310.172991 
L 164.293671 309.425392 
L 166.177215 308.258345 
L 168.060759 306.099073 
L 169.944304 304.729567 
L 171.827848 302.49383 
L 173.711392 300.957978 
L 175.594937 299.737467 
L 177.478481 298.895951 
L 179.362025 297.271327 
L 181.24557 295.329747 
L 186.896203 290.348037 
L 188.779747 289.003044 
L 190.663291 288.084761 
L 192.546835 286.358352 
L 196.313924 282.411438 
L 200.081013 278.606559 
L 201.964557 277.093808 
L 203.848101 276.072125 
L 207.61519 271.595103 
L 211.382278 266.668472 
L 213.265823 264.21474 
L 215.149367 262.291419 
L 217.032911 261.10793 
L 220.8 256.509654 
L 222.683544 253.680558 
L 224.567089 251.26072 
L 226.450633 248.548441 
L 228.334177 246.760497 
L 230.217722 245.628657 
L 232.101266 243.4712 
L 237.751899 235.837333 
L 239.635443 233.196978 
L 241.518987 231.349517 
L 243.402532 230.127392 
L 245.286076 227.799252 
L 249.053165 222.422911 
L 250.936709 219.724955 
L 252.820253 216.816268 
L 254.703797 214.947017 
L 256.587342 213.739217 
L 266.005063 199.565393 
L 267.888608 197.595769 
L 269.772152 196.18218 
L 273.539241 190.635155 
L 275.422785 187.65777 
L 279.189873 182.082702 
L 281.073418 179.938763 
L 282.956962 178.224358 
L 284.840506 175.604582 
L 288.607595 169.977058 
L 292.374684 165.052545 
L 294.258228 163.238272 
L 296.141772 162.165345 
L 299.908861 158.1113 
L 305.559494 151.793776 
L 307.443038 150.392494 
L 309.326582 149.481272 
L 313.093671 145.795226 
L 318.744304 140.076711 
L 320.627848 138.691468 
L 322.511392 137.637303 
L 330.04557 130.157374 
L 331.929114 128.541426 
L 333.812658 127.400708 
L 335.696203 126.655933 
L 339.463291 123.445725 
L 341.346835 121.838855 
L 345.113924 118.436677 
L 346.997468 117.404302 
L 348.881013 116.78522 
L 350.764557 115.849283 
L 356.41519 111.321519 
L 358.298734 109.901978 
L 360.182278 109.027677 
L 362.065823 108.474972 
L 371.483544 102.331361 
L 373.367089 101.703099 
L 375.250633 101.238056 
L 382.78481 97.124594 
L 384.668354 96.081829 
L 386.551899 95.41715 
L 388.435443 94.932134 
L 390.318987 94.01385 
L 390.318987 94.01385 
" style="fill:none;stroke:#8c564b;stroke-linecap:square;stroke-width:1.5;"/>
   </g>
   <g id="line2d_61">
    <path clip-path="url(#p548d44cd1f)" d="M 72 369.819254 
L 73.883544 369.819254 
L 79.534177 368.905274 
L 81.417722 368.905274 
L 83.301266 368.490705 
L 85.18481 368.490705 
L 87.068354 368.240071 
L 88.951899 367.825414 
L 90.835443 367.160122 
L 92.718987 366.827476 
L 94.602532 366.246142 
L 96.486076 366.246142 
L 98.36962 365.913585 
L 100.253165 365.334551 
L 102.136709 365.334551 
L 104.020253 365.001905 
L 107.787342 364.087925 
L 109.670886 363.75528 
L 111.55443 363.592938 
L 113.437975 363.260203 
L 115.321519 362.180343 
L 117.205063 361.685355 
L 119.088608 361.35271 
L 120.972152 361.35271 
L 122.855696 361.100483 
L 124.739241 360.687418 
L 126.622785 360.024073 
L 128.506329 358.44489 
L 130.389873 357.697586 
L 134.156962 356.950372 
L 136.040506 356.950372 
L 139.807595 356.537307 
L 143.574684 355.124801 
L 147.341772 353.878087 
L 152.992405 352.63385 
L 158.643038 350.972655 
L 164.293671 349.812288 
L 166.177215 349.47973 
L 173.711392 346.23024 
L 175.594937 345.680402 
L 177.478481 345.251501 
L 179.362025 344.629913 
L 185.012658 342.286972 
L 188.779747 340.914896 
L 190.663291 340.400445 
L 192.546835 339.622355 
L 200.081013 335.972451 
L 201.964557 335.20595 
L 203.848101 334.750863 
L 207.61519 332.716857 
L 211.382278 330.288985 
L 213.265823 329.063946 
L 215.149367 328.165094 
L 217.032911 327.552442 
L 220.8 325.072638 
L 222.683544 323.392246 
L 224.567089 321.926038 
L 226.450633 320.257147 
L 228.334177 319.16959 
L 230.217722 318.48917 
L 232.101266 317.05835 
L 235.868354 313.563181 
L 239.635443 309.474556 
L 241.518987 308.160428 
L 243.402532 307.210176 
L 245.286076 305.210762 
L 250.936709 297.435342 
L 252.820253 294.48143 
L 254.703797 292.545714 
L 256.587342 291.212742 
L 260.35443 284.730749 
L 266.005063 273.56013 
L 269.772152 268.22311 
L 273.539241 260.508823 
L 275.422785 256.129045 
L 277.306329 252.468172 
L 279.189873 248.244454 
L 281.073418 244.805286 
L 282.956962 241.870128 
L 284.840506 238.704508 
L 288.607595 229.666273 
L 292.374684 221.719222 
L 294.258228 218.513967 
L 296.141772 216.259141 
L 298.025316 213.15775 
L 299.908861 209.647363 
L 303.675949 201.822223 
L 305.559494 198.211866 
L 307.443038 195.586087 
L 309.326582 193.463258 
L 313.093671 187.175279 
L 316.860759 180.73637 
L 318.744304 177.315957 
L 320.627848 174.775197 
L 322.511392 172.591767 
L 326.278481 166.500455 
L 330.04557 160.053142 
L 331.929114 157.390383 
L 333.812658 155.352042 
L 335.696203 153.811963 
L 345.113924 141.227864 
L 346.997468 139.599492 
L 348.881013 138.432932 
L 350.764557 137.019983 
L 354.531646 132.697003 
L 358.298734 128.721266 
L 360.182278 127.437837 
L 362.065823 126.515187 
L 371.483544 118.19214 
L 375.250633 116.488126 
L 379.017722 113.695759 
L 384.668354 109.438866 
L 386.551899 108.574429 
L 388.435443 107.871184 
L 390.318987 106.684629 
L 390.318987 106.684629 
" style="fill:none;stroke:#e377c2;stroke-linecap:square;stroke-width:1.5;"/>
   </g>
   <g id="line2d_62">
    <path clip-path="url(#p548d44cd1f)" d="M 72 372.293695 
L 73.883544 372.293695 
L 79.534177 371.629754 
L 81.417722 371.629754 
L 83.301266 371.301552 
L 85.18481 371.301552 
L 88.951899 370.793671 
L 90.835443 370.297646 
L 94.602532 369.545382 
L 96.486076 369.545382 
L 100.253165 368.961033 
L 102.136709 368.961033 
L 107.787342 368.043979 
L 109.670886 367.799781 
L 113.437975 367.547954 
L 115.321519 366.795782 
L 119.088608 366.287901 
L 120.972152 366.287901 
L 126.622785 365.207527 
L 128.506329 364.126969 
L 132.273418 363.211385 
L 134.156962 363.036118 
L 137.924051 362.95965 
L 139.807595 362.790449 
L 143.574684 361.874865 
L 149.225316 360.706076 
L 151.108861 360.706076 
L 154.875949 359.953904 
L 160.526582 359.03685 
L 166.177215 358.365557 
L 173.711392 356.082021 
L 179.362025 354.999349 
L 186.896203 352.840072 
L 194.43038 350.846963 
L 201.964557 348.436503 
L 203.848101 348.136424 
L 211.382278 344.983074 
L 213.265823 344.092949 
L 215.149367 343.445276 
L 217.032911 343.00991 
L 220.8 341.247122 
L 222.683544 340.047544 
L 224.567089 339.054299 
L 226.450633 337.888451 
L 228.334177 337.109993 
L 230.217722 336.625089 
L 232.101266 335.574033 
L 235.868354 333.108612 
L 239.635443 330.13393 
L 241.518987 329.179562 
L 243.402532 328.438051 
L 245.286076 326.826727 
L 250.936709 320.741433 
L 252.820253 318.421409 
L 254.703797 316.88067 
L 256.587342 315.732192 
L 260.35443 310.425631 
L 266.005063 300.733515 
L 269.772152 296.222138 
L 273.539241 289.586501 
L 275.422785 285.89108 
L 277.306329 282.79894 
L 279.189873 279.234304 
L 282.956962 273.916897 
L 284.840506 270.729725 
L 288.607595 262.058978 
L 292.374684 254.314292 
L 294.258228 251.202944 
L 296.141772 248.770793 
L 298.025316 245.87892 
L 299.908861 242.421724 
L 303.675949 234.336428 
L 305.559494 230.745506 
L 307.443038 228.254166 
L 309.326582 226.052979 
L 316.860759 213.589389 
L 318.744304 210.153331 
L 322.511392 205.294636 
L 326.278481 198.694383 
L 330.04557 191.439197 
L 331.929114 188.442733 
L 333.812658 186.40459 
L 335.696203 184.570941 
L 345.113924 170.070586 
L 346.997468 168.225266 
L 348.881013 166.743807 
L 350.764557 165.026146 
L 354.531646 159.942276 
L 358.298734 155.345701 
L 360.182278 153.864794 
L 362.065823 152.703266 
L 371.483544 142.943413 
L 375.250633 140.759873 
L 377.134177 139.166287 
L 382.78481 133.938398 
L 384.668354 132.490578 
L 386.551899 131.482719 
L 388.435443 130.665201 
L 390.318987 129.287782 
L 390.318987 129.287782 
" style="fill:none;stroke:#7f7f7f;stroke-linecap:square;stroke-width:1.5;"/>
   </g>
   <g id="line2d_63">
    <path clip-path="url(#p548d44cd1f)" d="M 72 382.996853 
L 77.650633 382.996853 
L 79.534177 382.826031 
L 81.417722 382.826031 
L 83.301266 382.66439 
L 88.951899 382.66439 
L 90.835443 382.331649 
L 92.718987 382.331649 
L 98.36962 381.837266 
L 102.136709 381.837266 
L 105.903797 381.504803 
L 111.55443 381.504803 
L 113.437975 381.172062 
L 119.088608 380.67768 
L 124.739241 380.67768 
L 130.389873 379.679734 
L 132.273418 379.679734 
L 134.156962 379.518093 
L 139.807595 379.518093 
L 141.691139 379.185352 
L 143.574684 379.185352 
L 145.458228 378.852889 
L 147.341772 378.852889 
L 149.225316 378.520148 
L 152.992405 378.520148 
L 154.875949 378.187685 
L 156.759494 378.025765 
L 158.643038 378.025765 
L 162.410127 377.693302 
L 164.293671 377.693302 
L 168.060759 377.360561 
L 173.711392 376.53455 
L 183.129114 375.611444 
L 190.663291 374.68472 
L 194.43038 374.149719 
L 201.964557 372.97344 
L 203.848101 372.820423 
L 211.382278 371.382625 
L 215.149367 370.621994 
L 217.032911 370.360475 
L 220.8 369.487168 
L 226.450633 367.756969 
L 228.334177 367.347163 
L 230.217722 367.052815 
L 232.101266 366.515588 
L 237.751899 364.404796 
L 239.635443 363.557919 
L 243.402532 362.575275 
L 245.286076 361.51807 
L 249.053165 357.297598 
L 252.820253 353.730923 
L 254.703797 352.472293 
L 256.587342 351.400621 
L 260.35443 348.181433 
L 264.121519 343.986556 
L 266.005063 341.536623 
L 269.772152 337.855325 
L 273.539241 332.412112 
L 275.422785 329.148688 
L 277.306329 326.572725 
L 279.189873 323.10732 
L 281.073418 320.231445 
L 282.956962 316.958005 
L 284.840506 313.384653 
L 286.724051 309.262946 
L 288.607595 304.592605 
L 290.491139 302.629265 
L 294.258228 294.321583 
L 296.141772 291.504411 
L 298.025316 288.193413 
L 299.908861 283.962368 
L 303.675949 274.478407 
L 307.443038 265.587038 
L 309.326582 262.414867 
L 316.860759 246.077994 
L 318.744304 241.660548 
L 320.627848 237.823451 
L 322.511392 234.799289 
L 330.04557 215.771274 
L 331.929114 211.797297 
L 333.812658 208.575883 
L 335.696203 206.362708 
L 341.346835 193.901047 
L 343.23038 189.465517 
L 345.113924 185.773647 
L 346.997468 183.19991 
L 348.881013 181.425753 
L 350.764557 179.157215 
L 354.531646 172.167979 
L 356.41519 169.072038 
L 358.298734 166.214803 
L 360.182278 164.122095 
L 362.065823 162.552702 
L 367.716456 154.763329 
L 369.6 152.472533 
L 371.483544 150.433798 
L 373.367089 148.980976 
L 375.250633 147.799689 
L 379.017722 143.828772 
L 380.901266 141.950008 
L 384.668354 138.761145 
L 388.435443 136.199927 
L 390.318987 134.497271 
L 390.318987 134.497271 
" style="fill:none;stroke:#bcbd22;stroke-linecap:square;stroke-width:1.5;"/>
   </g>
   <g id="line2d_64">
    <path clip-path="url(#p548d44cd1f)" d="M 311.210127 368.038759 
L 313.093671 363.111707 
L 314.977215 357.63506 
L 316.860759 352.136363 
L 318.744304 345.83064 
L 320.627848 339.769395 
L 322.511392 335.049336 
L 324.394937 326.881497 
L 326.278481 319.145837 
L 328.162025 311.405767 
L 330.04557 303.425904 
L 331.929114 296.610001 
L 333.812658 290.494458 
L 335.696203 286.807989 
L 337.579747 278.938651 
L 339.463291 270.665524 
L 341.346835 262.97231 
L 343.23038 254.453051 
L 345.113924 246.925212 
L 346.997468 241.680089 
L 348.881013 238.697012 
L 350.764557 234.557692 
L 352.648101 227.892831 
L 354.531646 222.015151 
L 356.41519 216.547876 
L 358.298734 211.624958 
L 360.182278 208.02531 
L 362.065823 205.465315 
L 363.949367 201.372851 
L 365.832911 197.527071 
L 367.716456 194.218482 
L 369.6 190.865517 
L 371.483544 187.769985 
L 373.367089 185.32217 
L 375.250633 183.283655 
L 377.134177 180.176547 
L 379.017722 177.499412 
L 380.901266 174.874922 
L 382.78481 172.427657 
L 384.668354 170.020909 
L 386.551899 167.847891 
L 388.435443 165.71842 
L 390.318987 163.345299 
" style="fill:none;stroke:#17becf;stroke-linecap:square;stroke-width:1.5;"/>
   </g>
   <g id="patch_3">
    <path d="M 72 384.48 
L 72 51.84 
" style="fill:none;stroke:#000000;stroke-linecap:square;stroke-linejoin:miter;stroke-width:0.8;"/>
   </g>
   <g id="patch_4">
    <path d="M 518.4 384.48 
L 518.4 51.84 
" style="fill:none;stroke:#000000;stroke-linecap:square;stroke-linejoin:miter;stroke-width:0.8;"/>
   </g>
   <g id="patch_5">
    <path d="M 72 384.48 
L 518.4 384.48 
" style="fill:none;stroke:#000000;stroke-linecap:square;stroke-linejoin:miter;stroke-width:0.8;"/>
   </g>
   <g id="patch_6">
    <path d="M 72 51.84 
L 518.4 51.84 
" style="fill:none;stroke:#000000;stroke-linecap:square;stroke-linejoin:miter;stroke-width:0.8;"/>
   </g>
   <g id="text_30">
    <!-- First dose coverage by age group -->
    <g transform="translate(194.92125 45.84)scale(0.12 -0.12)">
     <defs>
      <path d="M 628 4666 
L 3309 4666 
L 3309 4134 
L 1259 4134 
L 1259 2759 
L 3109 2759 
L 3109 2228 
L 1259 2228 
L 1259 0 
L 628 0 
L 628 4666 
z
" id="DejaVuSans-46" transform="scale(0.015625)"/>
      <path d="M 2834 3397 
L 2834 2853 
Q 2591 2978 2328 3040 
Q 2066 3103 1784 3103 
Q 1356 3103 1142 2972 
Q 928 2841 928 2578 
Q 928 2378 1081 2264 
Q 1234 2150 1697 2047 
L 1894 2003 
Q 2506 1872 2764 1633 
Q 3022 1394 3022 966 
Q 3022 478 2636 193 
Q 2250 -91 1575 -91 
Q 1294 -91 989 -36 
Q 684 19 347 128 
L 347 722 
Q 666 556 975 473 
Q 1284 391 1588 391 
Q 1994 391 2212 530 
Q 2431 669 2431 922 
Q 2431 1156 2273 1281 
Q 2116 1406 1581 1522 
L 1381 1569 
Q 847 1681 609 1914 
Q 372 2147 372 2553 
Q 372 3047 722 3315 
Q 1072 3584 1716 3584 
Q 2034 3584 2315 3537 
Q 2597 3491 2834 3397 
z
" id="DejaVuSans-73" transform="scale(0.015625)"/>
      <path d="M 2906 2969 
L 2906 4863 
L 3481 4863 
L 3481 0 
L 2906 0 
L 2906 525 
Q 2725 213 2448 61 
Q 2172 -91 1784 -91 
Q 1150 -91 751 415 
Q 353 922 353 1747 
Q 353 2572 751 3078 
Q 1150 3584 1784 3584 
Q 2172 3584 2448 3432 
Q 2725 3281 2906 2969 
z
M 947 1747 
Q 947 1113 1208 752 
Q 1469 391 1925 391 
Q 2381 391 2643 752 
Q 2906 1113 2906 1747 
Q 2906 2381 2643 2742 
Q 2381 3103 1925 3103 
Q 1469 3103 1208 2742 
Q 947 2381 947 1747 
z
" id="DejaVuSans-64" transform="scale(0.015625)"/>
      <path d="M 3116 1747 
Q 3116 2381 2855 2742 
Q 2594 3103 2138 3103 
Q 1681 3103 1420 2742 
Q 1159 2381 1159 1747 
Q 1159 1113 1420 752 
Q 1681 391 2138 391 
Q 2594 391 2855 752 
Q 3116 1113 3116 1747 
z
M 1159 2969 
Q 1341 3281 1617 3432 
Q 1894 3584 2278 3584 
Q 2916 3584 3314 3078 
Q 3713 2572 3713 1747 
Q 3713 922 3314 415 
Q 2916 -91 2278 -91 
Q 1894 -91 1617 61 
Q 1341 213 1159 525 
L 1159 0 
L 581 0 
L 581 4863 
L 1159 4863 
L 1159 2969 
z
" id="DejaVuSans-62" transform="scale(0.015625)"/>
      <path d="M 2059 -325 
Q 1816 -950 1584 -1140 
Q 1353 -1331 966 -1331 
L 506 -1331 
L 506 -850 
L 844 -850 
Q 1081 -850 1212 -737 
Q 1344 -625 1503 -206 
L 1606 56 
L 191 3500 
L 800 3500 
L 1894 763 
L 2988 3500 
L 3597 3500 
L 2059 -325 
z
" id="DejaVuSans-79" transform="scale(0.015625)"/>
     </defs>
     <use xlink:href="#DejaVuSans-46"/>
     <use x="50.269531" xlink:href="#DejaVuSans-69"/>
     <use x="78.052734" xlink:href="#DejaVuSans-72"/>
     <use x="119.166016" xlink:href="#DejaVuSans-73"/>
     <use x="171.265625" xlink:href="#DejaVuSans-74"/>
     <use x="210.474609" xlink:href="#DejaVuSans-20"/>
     <use x="242.261719" xlink:href="#DejaVuSans-64"/>
     <use x="305.738281" xlink:href="#DejaVuSans-6f"/>
     <use x="366.919922" xlink:href="#DejaVuSans-73"/>
     <use x="419.019531" xlink:href="#DejaVuSans-65"/>
     <use x="480.542969" xlink:href="#DejaVuSans-20"/>
     <use x="512.330078" xlink:href="#DejaVuSans-63"/>
     <use x="567.310547" xlink:href="#DejaVuSans-6f"/>
     <use x="628.492188" xlink:href="#DejaVuSans-76"/>
     <use x="687.671875" xlink:href="#DejaVuSans-65"/>
     <use x="749.195312" xlink:href="#DejaVuSans-72"/>
     <use x="790.308594" xlink:href="#DejaVuSans-61"/>
     <use x="851.587891" xlink:href="#DejaVuSans-67"/>
     <use x="915.064453" xlink:href="#DejaVuSans-65"/>
     <use x="976.587891" xlink:href="#DejaVuSans-20"/>
     <use x="1008.375" xlink:href="#DejaVuSans-62"/>
     <use x="1071.851562" xlink:href="#DejaVuSans-79"/>
     <use x="1131.03125" xlink:href="#DejaVuSans-20"/>
     <use x="1162.818359" xlink:href="#DejaVuSans-61"/>
     <use x="1224.097656" xlink:href="#DejaVuSans-67"/>
     <use x="1287.574219" xlink:href="#DejaVuSans-65"/>
     <use x="1349.097656" xlink:href="#DejaVuSans-20"/>
     <use x="1380.884766" xlink:href="#DejaVuSans-67"/>
     <use x="1444.361328" xlink:href="#DejaVuSans-72"/>
     <use x="1483.224609" xlink:href="#DejaVuSans-6f"/>
     <use x="1544.40625" xlink:href="#DejaVuSans-75"/>
     <use x="1607.785156" xlink:href="#DejaVuSans-70"/>
    </g>
   </g>
   <g id="legend_1">
    <g id="patch_7">
     <path d="M 389.604375 379.98 
L 512.1 379.98 
Q 513.9 379.98 513.9 378.18 
L 513.9 246.976875 
Q 513.9 245.176875 512.1 245.176875 
L 389.604375 245.176875 
Q 387.804375 245.176875 387.804375 246.976875 
L 387.804375 378.18 
Q 387.804375 379.98 389.604375 379.98 
z
" style="fill:#ffffff;opacity:0.8;stroke:#cccccc;stroke-linejoin:miter;"/>
    </g>
    <g id="line2d_65">
     <path d="M 391.404375 252.465469 
L 409.404375 252.465469 
" style="fill:none;stroke:#1f77b4;stroke-linecap:square;stroke-width:1.5;"/>
    </g>
    <g id="line2d_66"/>
    <g id="text_31">
     <!-- Ages 90+ (97.3 %) -->
     <g transform="translate(416.604375 255.615469)scale(0.09 -0.09)">
      <defs>
       <path d="M 2944 4013 
L 2944 2272 
L 4684 2272 
L 4684 1741 
L 2944 1741 
L 2944 0 
L 2419 0 
L 2419 1741 
L 678 1741 
L 678 2272 
L 2419 2272 
L 2419 4013 
L 2944 4013 
z
" id="DejaVuSans-2b" transform="scale(0.015625)"/>
       <path d="M 684 794 
L 1344 794 
L 1344 0 
L 684 0 
L 684 794 
z
" id="DejaVuSans-2e" transform="scale(0.015625)"/>
      </defs>
      <use xlink:href="#DejaVuSans-41"/>
      <use x="68.408203" xlink:href="#DejaVuSans-67"/>
      <use x="131.884766" xlink:href="#DejaVuSans-65"/>
      <use x="193.408203" xlink:href="#DejaVuSans-73"/>
      <use x="245.507812" xlink:href="#DejaVuSans-20"/>
      <use x="277.294922" xlink:href="#DejaVuSans-39"/>
      <use x="340.917969" xlink:href="#DejaVuSans-30"/>
      <use x="404.541016" xlink:href="#DejaVuSans-2b"/>
      <use x="488.330078" xlink:href="#DejaVuSans-20"/>
      <use x="520.117188" xlink:href="#DejaVuSans-28"/>
      <use x="559.130859" xlink:href="#DejaVuSans-39"/>
      <use x="622.753906" xlink:href="#DejaVuSans-37"/>
      <use x="686.376953" xlink:href="#DejaVuSans-2e"/>
      <use x="718.164062" xlink:href="#DejaVuSans-33"/>
      <use x="781.787109" xlink:href="#DejaVuSans-20"/>
      <use x="813.574219" xlink:href="#DejaVuSans-25"/>
      <use x="908.59375" xlink:href="#DejaVuSans-29"/>
     </g>
    </g>
    <g id="line2d_67">
     <path d="M 391.404375 265.675781 
L 409.404375 265.675781 
" style="fill:none;stroke:#ff7f0e;stroke-linecap:square;stroke-width:1.5;"/>
    </g>
    <g id="line2d_68"/>
    <g id="text_32">
     <!-- Ages 8089 (98.7 %) -->
     <g transform="translate(416.604375 268.825781)scale(0.09 -0.09)">
      <defs>
       <path d="M 313 1978 
L 2888 1978 
L 2888 1528 
L 313 1528 
L 313 1978 
z
" id="DejaVuSans-2013" transform="scale(0.015625)"/>
      </defs>
      <use xlink:href="#DejaVuSans-41"/>
      <use x="68.408203" xlink:href="#DejaVuSans-67"/>
      <use x="131.884766" xlink:href="#DejaVuSans-65"/>
      <use x="193.408203" xlink:href="#DejaVuSans-73"/>
      <use x="245.507812" xlink:href="#DejaVuSans-20"/>
      <use x="277.294922" xlink:href="#DejaVuSans-38"/>
      <use x="340.917969" xlink:href="#DejaVuSans-30"/>
      <use x="404.541016" xlink:href="#DejaVuSans-2013"/>
      <use x="454.541016" xlink:href="#DejaVuSans-38"/>
      <use x="518.164062" xlink:href="#DejaVuSans-39"/>
      <use x="581.787109" xlink:href="#DejaVuSans-20"/>
      <use x="613.574219" xlink:href="#DejaVuSans-28"/>
      <use x="652.587891" xlink:href="#DejaVuSans-39"/>
      <use x="716.210938" xlink:href="#DejaVuSans-38"/>
      <use x="779.833984" xlink:href="#DejaVuSans-2e"/>
      <use x="811.621094" xlink:href="#DejaVuSans-37"/>
      <use x="875.244141" xlink:href="#DejaVuSans-20"/>
      <use x="907.03125" xlink:href="#DejaVuSans-25"/>
      <use x="1002.050781" xlink:href="#DejaVuSans-29"/>
     </g>
    </g>
    <g id="line2d_69">
     <path d="M 391.404375 278.886094 
L 409.404375 278.886094 
" style="fill:none;stroke:#2ca02c;stroke-linecap:square;stroke-width:1.5;"/>
    </g>
    <g id="line2d_70"/>
    <g id="text_33">
     <!-- Ages 7079 (98.8 %) -->
     <g transform="translate(416.604375 282.036094)scale(0.09 -0.09)">
      <use xlink:href="#DejaVuSans-41"/>
      <use x="68.408203" xlink:href="#DejaVuSans-67"/>
      <use x="131.884766" xlink:href="#DejaVuSans-65"/>
      <use x="193.408203" xlink:href="#DejaVuSans-73"/>
      <use x="245.507812" xlink:href="#DejaVuSans-20"/>
      <use x="277.294922" xlink:href="#DejaVuSans-37"/>
      <use x="340.917969" xlink:href="#DejaVuSans-30"/>
      <use x="404.541016" xlink:href="#DejaVuSans-2013"/>
      <use x="454.541016" xlink:href="#DejaVuSans-37"/>
      <use x="518.164062" xlink:href="#DejaVuSans-39"/>
      <use x="581.787109" xlink:href="#DejaVuSans-20"/>
      <use x="613.574219" xlink:href="#DejaVuSans-28"/>
      <use x="652.587891" xlink:href="#DejaVuSans-39"/>
      <use x="716.210938" xlink:href="#DejaVuSans-38"/>
      <use x="779.833984" xlink:href="#DejaVuSans-2e"/>
      <use x="811.621094" xlink:href="#DejaVuSans-38"/>
      <use x="875.244141" xlink:href="#DejaVuSans-20"/>
      <use x="907.03125" xlink:href="#DejaVuSans-25"/>
      <use x="1002.050781" xlink:href="#DejaVuSans-29"/>
     </g>
    </g>
    <g id="line2d_71">
     <path d="M 391.404375 292.096406 
L 409.404375 292.096406 
" style="fill:none;stroke:#d62728;stroke-linecap:square;stroke-width:1.5;"/>
    </g>
    <g id="line2d_72"/>
    <g id="text_34">
     <!-- Ages 6069 (94.3 %) -->
     <g transform="translate(416.604375 295.246406)scale(0.09 -0.09)">
      <use xlink:href="#DejaVuSans-41"/>
      <use x="68.408203" xlink:href="#DejaVuSans-67"/>
      <use x="131.884766" xlink:href="#DejaVuSans-65"/>
      <use x="193.408203" xlink:href="#DejaVuSans-73"/>
      <use x="245.507812" xlink:href="#DejaVuSans-20"/>
      <use x="277.294922" xlink:href="#DejaVuSans-36"/>
      <use x="340.917969" xlink:href="#DejaVuSans-30"/>
      <use x="404.541016" xlink:href="#DejaVuSans-2013"/>
      <use x="454.541016" xlink:href="#DejaVuSans-36"/>
      <use x="518.164062" xlink:href="#DejaVuSans-39"/>
      <use x="581.787109" xlink:href="#DejaVuSans-20"/>
      <use x="613.574219" xlink:href="#DejaVuSans-28"/>
      <use x="652.587891" xlink:href="#DejaVuSans-39"/>
      <use x="716.210938" xlink:href="#DejaVuSans-34"/>
      <use x="779.833984" xlink:href="#DejaVuSans-2e"/>
      <use x="811.621094" xlink:href="#DejaVuSans-33"/>
      <use x="875.244141" xlink:href="#DejaVuSans-20"/>
      <use x="907.03125" xlink:href="#DejaVuSans-25"/>
      <use x="1002.050781" xlink:href="#DejaVuSans-29"/>
     </g>
    </g>
    <g id="line2d_73">
     <path d="M 391.404375 305.306719 
L 409.404375 305.306719 
" style="fill:none;stroke:#9467bd;stroke-linecap:square;stroke-width:1.5;"/>
    </g>
    <g id="line2d_74"/>
    <g id="text_35">
     <!-- Ages 5059 (91.0 %) -->
     <g transform="translate(416.604375 308.456719)scale(0.09 -0.09)">
      <use xlink:href="#DejaVuSans-41"/>
      <use x="68.408203" xlink:href="#DejaVuSans-67"/>
      <use x="131.884766" xlink:href="#DejaVuSans-65"/>
      <use x="193.408203" xlink:href="#DejaVuSans-73"/>
      <use x="245.507812" xlink:href="#DejaVuSans-20"/>
      <use x="277.294922" xlink:href="#DejaVuSans-35"/>
      <use x="340.917969" xlink:href="#DejaVuSans-30"/>
      <use x="404.541016" xlink:href="#DejaVuSans-2013"/>
      <use x="454.541016" xlink:href="#DejaVuSans-35"/>
      <use x="518.164062" xlink:href="#DejaVuSans-39"/>
      <use x="581.787109" xlink:href="#DejaVuSans-20"/>
      <use x="613.574219" xlink:href="#DejaVuSans-28"/>
      <use x="652.587891" xlink:href="#DejaVuSans-39"/>
      <use x="716.210938" xlink:href="#DejaVuSans-31"/>
      <use x="779.833984" xlink:href="#DejaVuSans-2e"/>
      <use x="811.621094" xlink:href="#DejaVuSans-30"/>
      <use x="875.244141" xlink:href="#DejaVuSans-20"/>
      <use x="907.03125" xlink:href="#DejaVuSans-25"/>
      <use x="1002.050781" xlink:href="#DejaVuSans-29"/>
     </g>
    </g>
    <g id="line2d_75">
     <path d="M 391.404375 318.517031 
L 409.404375 318.517031 
" style="fill:none;stroke:#8c564b;stroke-linecap:square;stroke-width:1.5;"/>
    </g>
    <g id="line2d_76"/>
    <g id="text_36">
     <!-- Ages 4049 (87.3 %) -->
     <g transform="translate(416.604375 321.667031)scale(0.09 -0.09)">
      <use xlink:href="#DejaVuSans-41"/>
      <use x="68.408203" xlink:href="#DejaVuSans-67"/>
      <use x="131.884766" xlink:href="#DejaVuSans-65"/>
      <use x="193.408203" xlink:href="#DejaVuSans-73"/>
      <use x="245.507812" xlink:href="#DejaVuSans-20"/>
      <use x="277.294922" xlink:href="#DejaVuSans-34"/>
      <use x="340.917969" xlink:href="#DejaVuSans-30"/>
      <use x="404.541016" xlink:href="#DejaVuSans-2013"/>
      <use x="454.541016" xlink:href="#DejaVuSans-34"/>
      <use x="518.164062" xlink:href="#DejaVuSans-39"/>
      <use x="581.787109" xlink:href="#DejaVuSans-20"/>
      <use x="613.574219" xlink:href="#DejaVuSans-28"/>
      <use x="652.587891" xlink:href="#DejaVuSans-38"/>
      <use x="716.210938" xlink:href="#DejaVuSans-37"/>
      <use x="779.833984" xlink:href="#DejaVuSans-2e"/>
      <use x="811.621094" xlink:href="#DejaVuSans-33"/>
      <use x="875.244141" xlink:href="#DejaVuSans-20"/>
      <use x="907.03125" xlink:href="#DejaVuSans-25"/>
      <use x="1002.050781" xlink:href="#DejaVuSans-29"/>
     </g>
    </g>
    <g id="line2d_77">
     <path d="M 391.404375 331.727344 
L 409.404375 331.727344 
" style="fill:none;stroke:#e377c2;stroke-linecap:square;stroke-width:1.5;"/>
    </g>
    <g id="line2d_78"/>
    <g id="text_37">
     <!-- Ages 3039 (83.5 %) -->
     <g transform="translate(416.604375 334.877344)scale(0.09 -0.09)">
      <use xlink:href="#DejaVuSans-41"/>
      <use x="68.408203" xlink:href="#DejaVuSans-67"/>
      <use x="131.884766" xlink:href="#DejaVuSans-65"/>
      <use x="193.408203" xlink:href="#DejaVuSans-73"/>
      <use x="245.507812" xlink:href="#DejaVuSans-20"/>
      <use x="277.294922" xlink:href="#DejaVuSans-33"/>
      <use x="340.917969" xlink:href="#DejaVuSans-30"/>
      <use x="404.541016" xlink:href="#DejaVuSans-2013"/>
      <use x="454.541016" xlink:href="#DejaVuSans-33"/>
      <use x="518.164062" xlink:href="#DejaVuSans-39"/>
      <use x="581.787109" xlink:href="#DejaVuSans-20"/>
      <use x="613.574219" xlink:href="#DejaVuSans-28"/>
      <use x="652.587891" xlink:href="#DejaVuSans-38"/>
      <use x="716.210938" xlink:href="#DejaVuSans-33"/>
      <use x="779.833984" xlink:href="#DejaVuSans-2e"/>
      <use x="811.621094" xlink:href="#DejaVuSans-35"/>
      <use x="875.244141" xlink:href="#DejaVuSans-20"/>
      <use x="907.03125" xlink:href="#DejaVuSans-25"/>
      <use x="1002.050781" xlink:href="#DejaVuSans-29"/>
     </g>
    </g>
    <g id="line2d_79">
     <path d="M 391.404375 344.937656 
L 409.404375 344.937656 
" style="fill:none;stroke:#7f7f7f;stroke-linecap:square;stroke-width:1.5;"/>
    </g>
    <g id="line2d_80"/>
    <g id="text_38">
     <!-- Ages 2029 (76.7 %) -->
     <g transform="translate(416.604375 348.087656)scale(0.09 -0.09)">
      <use xlink:href="#DejaVuSans-41"/>
      <use x="68.408203" xlink:href="#DejaVuSans-67"/>
      <use x="131.884766" xlink:href="#DejaVuSans-65"/>
      <use x="193.408203" xlink:href="#DejaVuSans-73"/>
      <use x="245.507812" xlink:href="#DejaVuSans-20"/>
      <use x="277.294922" xlink:href="#DejaVuSans-32"/>
      <use x="340.917969" xlink:href="#DejaVuSans-30"/>
      <use x="404.541016" xlink:href="#DejaVuSans-2013"/>
      <use x="454.541016" xlink:href="#DejaVuSans-32"/>
      <use x="518.164062" xlink:href="#DejaVuSans-39"/>
      <use x="581.787109" xlink:href="#DejaVuSans-20"/>
      <use x="613.574219" xlink:href="#DejaVuSans-28"/>
      <use x="652.587891" xlink:href="#DejaVuSans-37"/>
      <use x="716.210938" xlink:href="#DejaVuSans-36"/>
      <use x="779.833984" xlink:href="#DejaVuSans-2e"/>
      <use x="811.621094" xlink:href="#DejaVuSans-37"/>
      <use x="875.244141" xlink:href="#DejaVuSans-20"/>
      <use x="907.03125" xlink:href="#DejaVuSans-25"/>
      <use x="1002.050781" xlink:href="#DejaVuSans-29"/>
     </g>
    </g>
    <g id="line2d_81">
     <path d="M 391.404375 358.147969 
L 409.404375 358.147969 
" style="fill:none;stroke:#bcbd22;stroke-linecap:square;stroke-width:1.5;"/>
    </g>
    <g id="line2d_82"/>
    <g id="text_39">
     <!-- Ages 1619 (75.2 %) -->
     <g transform="translate(416.604375 361.297969)scale(0.09 -0.09)">
      <use xlink:href="#DejaVuSans-41"/>
      <use x="68.408203" xlink:href="#DejaVuSans-67"/>
      <use x="131.884766" xlink:href="#DejaVuSans-65"/>
      <use x="193.408203" xlink:href="#DejaVuSans-73"/>
      <use x="245.507812" xlink:href="#DejaVuSans-20"/>
      <use x="277.294922" xlink:href="#DejaVuSans-31"/>
      <use x="340.917969" xlink:href="#DejaVuSans-36"/>
      <use x="404.541016" xlink:href="#DejaVuSans-2013"/>
      <use x="454.541016" xlink:href="#DejaVuSans-31"/>
      <use x="518.164062" xlink:href="#DejaVuSans-39"/>
      <use x="581.787109" xlink:href="#DejaVuSans-20"/>
      <use x="613.574219" xlink:href="#DejaVuSans-28"/>
      <use x="652.587891" xlink:href="#DejaVuSans-37"/>
      <use x="716.210938" xlink:href="#DejaVuSans-35"/>
      <use x="779.833984" xlink:href="#DejaVuSans-2e"/>
      <use x="811.621094" xlink:href="#DejaVuSans-32"/>
      <use x="875.244141" xlink:href="#DejaVuSans-20"/>
      <use x="907.03125" xlink:href="#DejaVuSans-25"/>
      <use x="1002.050781" xlink:href="#DejaVuSans-29"/>
     </g>
    </g>
    <g id="line2d_83">
     <path d="M 391.404375 371.358281 
L 409.404375 371.358281 
" style="fill:none;stroke:#17becf;stroke-linecap:square;stroke-width:1.5;"/>
    </g>
    <g id="line2d_84"/>
    <g id="text_40">
     <!-- Ages 1215 (66.5 %) -->
     <g transform="translate(416.604375 374.508281)scale(0.09 -0.09)">
      <use xlink:href="#DejaVuSans-41"/>
      <use x="68.408203" xlink:href="#DejaVuSans-67"/>
      <use x="131.884766" xlink:href="#DejaVuSans-65"/>
      <use x="193.408203" xlink:href="#DejaVuSans-73"/>
      <use x="245.507812" xlink:href="#DejaVuSans-20"/>
      <use x="277.294922" xlink:href="#DejaVuSans-31"/>
      <use x="340.917969" xlink:href="#DejaVuSans-32"/>
      <use x="404.541016" xlink:href="#DejaVuSans-2013"/>
      <use x="454.541016" xlink:href="#DejaVuSans-31"/>
      <use x="518.164062" xlink:href="#DejaVuSans-35"/>
      <use x="581.787109" xlink:href="#DejaVuSans-20"/>
      <use x="613.574219" xlink:href="#DejaVuSans-28"/>
      <use x="652.587891" xlink:href="#DejaVuSans-36"/>
      <use x="716.210938" xlink:href="#DejaVuSans-36"/>
      <use x="779.833984" xlink:href="#DejaVuSans-2e"/>
      <use x="811.621094" xlink:href="#DejaVuSans-35"/>
      <use x="875.244141" xlink:href="#DejaVuSans-20"/>
      <use x="907.03125" xlink:href="#DejaVuSans-25"/>
      <use x="1002.050781" xlink:href="#DejaVuSans-29"/>
     </g>
    </g>
   </g>
  </g>
 </g>
 <defs>
  <clipPath id="p548d44cd1f">
   <rect height="332.64" width="446.4" x="72" y="51.84"/>
  </clipPath>
 </defs>
</svg>
