<?xml version="1.0" encoding="utf-8" standalone="no"?>
<!DOCTYPE svg PUBLIC "-//W3C//DTD SVG 1.1//EN"
  "http://www.w3.org/Graphics/SVG/1.1/DTD/svg11.dtd">
<svg height="432pt" version="1.1" viewBox="0 0 576 432" width="576pt" xmlns="http://www.w3.org/2000/svg" xmlns:xlink="http://www.w3.org/1999/xlink">
 <metadata>
  <rdf:RDF xmlns:cc="http://creativecommons.org/ns#" xmlns:dc="http://purl.org/dc/elements/1.1/" xmlns:rdf="http://www.w3.org/1999/02/22-rdf-syntax-ns#">
   <cc:Work>
    <dc:type rdf:resource="http://purl.org/dc/dcmitype/StillImage"/>
    <dc:date>2021-09-10T06:48:01.030186</dc:date>
    <dc:format>image/svg+xml</dc:format>
    <dc:creator>
     <cc:Agent>
      <dc:title>Matplotlib v3.4.3, https://matplotlib.org/</dc:title>
     </cc:Agent>
    </dc:creator>
   </cc:Work>
  </rdf:RDF>
 </metadata>
 <defs>
  <style type="text/css">*{stroke-linecap:butt;stroke-linejoin:round;}</style>
 </defs>
 <g id="figure_1">
  <g id="patch_1">
   <path d="M 0 432 
L 576 432 
L 576 0 
L 0 0 
z
" style="fill:#ffffff;"/>
  </g>
  <g id="axes_1">
   <g id="patch_2">
    <path d="M 72 384.48 
L 518.4 384.48 
L 518.4 51.84 
L 72 51.84 
z
" style="fill:#ffffff;"/>
   </g>
   <g id="matplotlib.axis_1">
    <g id="xtick_1">
     <g id="line2d_1">
      <path clip-path="url(#pf759cc1837)" d="M 83.301266 384.48 
L 83.301266 51.84 
" style="fill:none;stroke:#000000;stroke-dasharray:0.8,1.32;stroke-dashoffset:0;stroke-opacity:0.5;stroke-width:0.8;"/>
     </g>
     <g id="line2d_2">
      <defs>
       <path d="M 0 0 
L 0 3.5 
" id="m9a05c12e79" style="stroke:#000000;stroke-width:0.8;"/>
      </defs>
      <g>
       <use style="stroke:#000000;stroke-width:0.8;" x="83.301266" xlink:href="#m9a05c12e79" y="384.48"/>
      </g>
     </g>
     <g id="text_1">
      <!-- 15 -->
      <g transform="translate(76.938766 399.078438)scale(0.1 -0.1)">
       <defs>
        <path d="M 794 531 
L 1825 531 
L 1825 4091 
L 703 3866 
L 703 4441 
L 1819 4666 
L 2450 4666 
L 2450 531 
L 3481 531 
L 3481 0 
L 794 0 
L 794 531 
z
" id="DejaVuSans-31" transform="scale(0.015625)"/>
        <path d="M 691 4666 
L 3169 4666 
L 3169 4134 
L 1269 4134 
L 1269 2991 
Q 1406 3038 1543 3061 
Q 1681 3084 1819 3084 
Q 2600 3084 3056 2656 
Q 3513 2228 3513 1497 
Q 3513 744 3044 326 
Q 2575 -91 1722 -91 
Q 1428 -91 1123 -41 
Q 819 9 494 109 
L 494 744 
Q 775 591 1075 516 
Q 1375 441 1709 441 
Q 2250 441 2565 725 
Q 2881 1009 2881 1497 
Q 2881 1984 2565 2268 
Q 2250 2553 1709 2553 
Q 1456 2553 1204 2497 
Q 953 2441 691 2322 
L 691 4666 
z
" id="DejaVuSans-35" transform="scale(0.015625)"/>
       </defs>
       <use xlink:href="#DejaVuSans-31"/>
       <use x="63.623047" xlink:href="#DejaVuSans-35"/>
      </g>
     </g>
    </g>
    <g id="xtick_2">
     <g id="line2d_3">
      <path clip-path="url(#pf759cc1837)" d="M 115.321519 384.48 
L 115.321519 51.84 
" style="fill:none;stroke:#000000;stroke-dasharray:0.8,1.32;stroke-dashoffset:0;stroke-opacity:0.5;stroke-width:0.8;"/>
     </g>
     <g id="line2d_4">
      <g>
       <use style="stroke:#000000;stroke-width:0.8;" x="115.321519" xlink:href="#m9a05c12e79" y="384.48"/>
      </g>
     </g>
     <g id="text_2">
      <!-- Jun -->
      <g transform="translate(107.509019 399.078438)scale(0.1 -0.1)">
       <defs>
        <path d="M 628 4666 
L 1259 4666 
L 1259 325 
Q 1259 -519 939 -900 
Q 619 -1281 -91 -1281 
L -331 -1281 
L -331 -750 
L -134 -750 
Q 284 -750 456 -515 
Q 628 -281 628 325 
L 628 4666 
z
" id="DejaVuSans-4a" transform="scale(0.015625)"/>
        <path d="M 544 1381 
L 544 3500 
L 1119 3500 
L 1119 1403 
Q 1119 906 1312 657 
Q 1506 409 1894 409 
Q 2359 409 2629 706 
Q 2900 1003 2900 1516 
L 2900 3500 
L 3475 3500 
L 3475 0 
L 2900 0 
L 2900 538 
Q 2691 219 2414 64 
Q 2138 -91 1772 -91 
Q 1169 -91 856 284 
Q 544 659 544 1381 
z
M 1991 3584 
L 1991 3584 
z
" id="DejaVuSans-75" transform="scale(0.015625)"/>
        <path d="M 3513 2113 
L 3513 0 
L 2938 0 
L 2938 2094 
Q 2938 2591 2744 2837 
Q 2550 3084 2163 3084 
Q 1697 3084 1428 2787 
Q 1159 2491 1159 1978 
L 1159 0 
L 581 0 
L 581 3500 
L 1159 3500 
L 1159 2956 
Q 1366 3272 1645 3428 
Q 1925 3584 2291 3584 
Q 2894 3584 3203 3211 
Q 3513 2838 3513 2113 
z
" id="DejaVuSans-6e" transform="scale(0.015625)"/>
       </defs>
       <use xlink:href="#DejaVuSans-4a"/>
       <use x="29.492188" xlink:href="#DejaVuSans-75"/>
       <use x="92.871094" xlink:href="#DejaVuSans-6e"/>
      </g>
     </g>
    </g>
    <g id="xtick_3">
     <g id="line2d_5">
      <path clip-path="url(#pf759cc1837)" d="M 141.691139 384.48 
L 141.691139 51.84 
" style="fill:none;stroke:#000000;stroke-dasharray:0.8,1.32;stroke-dashoffset:0;stroke-opacity:0.5;stroke-width:0.8;"/>
     </g>
     <g id="line2d_6">
      <g>
       <use style="stroke:#000000;stroke-width:0.8;" x="141.691139" xlink:href="#m9a05c12e79" y="384.48"/>
      </g>
     </g>
     <g id="text_3">
      <!-- 15 -->
      <g transform="translate(135.328639 399.078438)scale(0.1 -0.1)">
       <use xlink:href="#DejaVuSans-31"/>
       <use x="63.623047" xlink:href="#DejaVuSans-35"/>
      </g>
     </g>
    </g>
    <g id="xtick_4">
     <g id="line2d_7">
      <path clip-path="url(#pf759cc1837)" d="M 171.827848 384.48 
L 171.827848 51.84 
" style="fill:none;stroke:#000000;stroke-dasharray:0.8,1.32;stroke-dashoffset:0;stroke-opacity:0.5;stroke-width:0.8;"/>
     </g>
     <g id="line2d_8">
      <g>
       <use style="stroke:#000000;stroke-width:0.8;" x="171.827848" xlink:href="#m9a05c12e79" y="384.48"/>
      </g>
     </g>
     <g id="text_4">
      <!-- Jul -->
      <g transform="translate(165.795036 399.078438)scale(0.1 -0.1)">
       <defs>
        <path d="M 603 4863 
L 1178 4863 
L 1178 0 
L 603 0 
L 603 4863 
z
" id="DejaVuSans-6c" transform="scale(0.015625)"/>
       </defs>
       <use xlink:href="#DejaVuSans-4a"/>
       <use x="29.492188" xlink:href="#DejaVuSans-75"/>
       <use x="92.871094" xlink:href="#DejaVuSans-6c"/>
      </g>
     </g>
    </g>
    <g id="xtick_5">
     <g id="line2d_9">
      <path clip-path="url(#pf759cc1837)" d="M 198.197468 384.48 
L 198.197468 51.84 
" style="fill:none;stroke:#000000;stroke-dasharray:0.8,1.32;stroke-dashoffset:0;stroke-opacity:0.5;stroke-width:0.8;"/>
     </g>
     <g id="line2d_10">
      <g>
       <use style="stroke:#000000;stroke-width:0.8;" x="198.197468" xlink:href="#m9a05c12e79" y="384.48"/>
      </g>
     </g>
     <g id="text_5">
      <!-- 15 -->
      <g transform="translate(191.834968 399.078438)scale(0.1 -0.1)">
       <use xlink:href="#DejaVuSans-31"/>
       <use x="63.623047" xlink:href="#DejaVuSans-35"/>
      </g>
     </g>
    </g>
    <g id="xtick_6">
     <g id="line2d_11">
      <path clip-path="url(#pf759cc1837)" d="M 230.217722 384.48 
L 230.217722 51.84 
" style="fill:none;stroke:#000000;stroke-dasharray:0.8,1.32;stroke-dashoffset:0;stroke-opacity:0.5;stroke-width:0.8;"/>
     </g>
     <g id="line2d_12">
      <g>
       <use style="stroke:#000000;stroke-width:0.8;" x="230.217722" xlink:href="#m9a05c12e79" y="384.48"/>
      </g>
     </g>
     <g id="text_6">
      <!-- Aug -->
      <g transform="translate(220.45444 399.078438)scale(0.1 -0.1)">
       <defs>
        <path d="M 2188 4044 
L 1331 1722 
L 3047 1722 
L 2188 4044 
z
M 1831 4666 
L 2547 4666 
L 4325 0 
L 3669 0 
L 3244 1197 
L 1141 1197 
L 716 0 
L 50 0 
L 1831 4666 
z
" id="DejaVuSans-41" transform="scale(0.015625)"/>
        <path d="M 2906 1791 
Q 2906 2416 2648 2759 
Q 2391 3103 1925 3103 
Q 1463 3103 1205 2759 
Q 947 2416 947 1791 
Q 947 1169 1205 825 
Q 1463 481 1925 481 
Q 2391 481 2648 825 
Q 2906 1169 2906 1791 
z
M 3481 434 
Q 3481 -459 3084 -895 
Q 2688 -1331 1869 -1331 
Q 1566 -1331 1297 -1286 
Q 1028 -1241 775 -1147 
L 775 -588 
Q 1028 -725 1275 -790 
Q 1522 -856 1778 -856 
Q 2344 -856 2625 -561 
Q 2906 -266 2906 331 
L 2906 616 
Q 2728 306 2450 153 
Q 2172 0 1784 0 
Q 1141 0 747 490 
Q 353 981 353 1791 
Q 353 2603 747 3093 
Q 1141 3584 1784 3584 
Q 2172 3584 2450 3431 
Q 2728 3278 2906 2969 
L 2906 3500 
L 3481 3500 
L 3481 434 
z
" id="DejaVuSans-67" transform="scale(0.015625)"/>
       </defs>
       <use xlink:href="#DejaVuSans-41"/>
       <use x="68.408203" xlink:href="#DejaVuSans-75"/>
       <use x="131.787109" xlink:href="#DejaVuSans-67"/>
      </g>
     </g>
    </g>
    <g id="xtick_7">
     <g id="line2d_13">
      <path clip-path="url(#pf759cc1837)" d="M 256.587342 384.48 
L 256.587342 51.84 
" style="fill:none;stroke:#000000;stroke-dasharray:0.8,1.32;stroke-dashoffset:0;stroke-opacity:0.5;stroke-width:0.8;"/>
     </g>
     <g id="line2d_14">
      <g>
       <use style="stroke:#000000;stroke-width:0.8;" x="256.587342" xlink:href="#m9a05c12e79" y="384.48"/>
      </g>
     </g>
     <g id="text_7">
      <!-- 15 -->
      <g transform="translate(250.224842 399.078438)scale(0.1 -0.1)">
       <use xlink:href="#DejaVuSans-31"/>
       <use x="63.623047" xlink:href="#DejaVuSans-35"/>
      </g>
     </g>
    </g>
    <g id="xtick_8">
     <g id="line2d_15">
      <path clip-path="url(#pf759cc1837)" d="M 288.607595 384.48 
L 288.607595 51.84 
" style="fill:none;stroke:#000000;stroke-dasharray:0.8,1.32;stroke-dashoffset:0;stroke-opacity:0.5;stroke-width:0.8;"/>
     </g>
     <g id="line2d_16">
      <g>
       <use style="stroke:#000000;stroke-width:0.8;" x="288.607595" xlink:href="#m9a05c12e79" y="384.48"/>
      </g>
     </g>
     <g id="text_8">
      <!-- Sep -->
      <g transform="translate(279.182595 399.078438)scale(0.1 -0.1)">
       <defs>
        <path d="M 3425 4513 
L 3425 3897 
Q 3066 4069 2747 4153 
Q 2428 4238 2131 4238 
Q 1616 4238 1336 4038 
Q 1056 3838 1056 3469 
Q 1056 3159 1242 3001 
Q 1428 2844 1947 2747 
L 2328 2669 
Q 3034 2534 3370 2195 
Q 3706 1856 3706 1288 
Q 3706 609 3251 259 
Q 2797 -91 1919 -91 
Q 1588 -91 1214 -16 
Q 841 59 441 206 
L 441 856 
Q 825 641 1194 531 
Q 1563 422 1919 422 
Q 2459 422 2753 634 
Q 3047 847 3047 1241 
Q 3047 1584 2836 1778 
Q 2625 1972 2144 2069 
L 1759 2144 
Q 1053 2284 737 2584 
Q 422 2884 422 3419 
Q 422 4038 858 4394 
Q 1294 4750 2059 4750 
Q 2388 4750 2728 4690 
Q 3069 4631 3425 4513 
z
" id="DejaVuSans-53" transform="scale(0.015625)"/>
        <path d="M 3597 1894 
L 3597 1613 
L 953 1613 
Q 991 1019 1311 708 
Q 1631 397 2203 397 
Q 2534 397 2845 478 
Q 3156 559 3463 722 
L 3463 178 
Q 3153 47 2828 -22 
Q 2503 -91 2169 -91 
Q 1331 -91 842 396 
Q 353 884 353 1716 
Q 353 2575 817 3079 
Q 1281 3584 2069 3584 
Q 2775 3584 3186 3129 
Q 3597 2675 3597 1894 
z
M 3022 2063 
Q 3016 2534 2758 2815 
Q 2500 3097 2075 3097 
Q 1594 3097 1305 2825 
Q 1016 2553 972 2059 
L 3022 2063 
z
" id="DejaVuSans-65" transform="scale(0.015625)"/>
        <path d="M 1159 525 
L 1159 -1331 
L 581 -1331 
L 581 3500 
L 1159 3500 
L 1159 2969 
Q 1341 3281 1617 3432 
Q 1894 3584 2278 3584 
Q 2916 3584 3314 3078 
Q 3713 2572 3713 1747 
Q 3713 922 3314 415 
Q 2916 -91 2278 -91 
Q 1894 -91 1617 61 
Q 1341 213 1159 525 
z
M 3116 1747 
Q 3116 2381 2855 2742 
Q 2594 3103 2138 3103 
Q 1681 3103 1420 2742 
Q 1159 2381 1159 1747 
Q 1159 1113 1420 752 
Q 1681 391 2138 391 
Q 2594 391 2855 752 
Q 3116 1113 3116 1747 
z
" id="DejaVuSans-70" transform="scale(0.015625)"/>
       </defs>
       <use xlink:href="#DejaVuSans-53"/>
       <use x="63.476562" xlink:href="#DejaVuSans-65"/>
       <use x="125" xlink:href="#DejaVuSans-70"/>
      </g>
     </g>
    </g>
    <g id="xtick_9">
     <g id="line2d_17">
      <path clip-path="url(#pf759cc1837)" d="M 314.977215 384.48 
L 314.977215 51.84 
" style="fill:none;stroke:#000000;stroke-dasharray:0.8,1.32;stroke-dashoffset:0;stroke-opacity:0.5;stroke-width:0.8;"/>
     </g>
     <g id="line2d_18">
      <g>
       <use style="stroke:#000000;stroke-width:0.8;" x="314.977215" xlink:href="#m9a05c12e79" y="384.48"/>
      </g>
     </g>
     <g id="text_9">
      <!-- 15 -->
      <g transform="translate(308.614715 399.078438)scale(0.1 -0.1)">
       <use xlink:href="#DejaVuSans-31"/>
       <use x="63.623047" xlink:href="#DejaVuSans-35"/>
      </g>
     </g>
    </g>
    <g id="xtick_10">
     <g id="line2d_19">
      <path clip-path="url(#pf759cc1837)" d="M 345.113924 384.48 
L 345.113924 51.84 
" style="fill:none;stroke:#000000;stroke-dasharray:0.8,1.32;stroke-dashoffset:0;stroke-opacity:0.5;stroke-width:0.8;"/>
     </g>
     <g id="line2d_20">
      <g>
       <use style="stroke:#000000;stroke-width:0.8;" x="345.113924" xlink:href="#m9a05c12e79" y="384.48"/>
      </g>
     </g>
     <g id="text_10">
      <!-- Oct -->
      <g transform="translate(336.468612 399.078438)scale(0.1 -0.1)">
       <defs>
        <path d="M 2522 4238 
Q 1834 4238 1429 3725 
Q 1025 3213 1025 2328 
Q 1025 1447 1429 934 
Q 1834 422 2522 422 
Q 3209 422 3611 934 
Q 4013 1447 4013 2328 
Q 4013 3213 3611 3725 
Q 3209 4238 2522 4238 
z
M 2522 4750 
Q 3503 4750 4090 4092 
Q 4678 3434 4678 2328 
Q 4678 1225 4090 567 
Q 3503 -91 2522 -91 
Q 1538 -91 948 565 
Q 359 1222 359 2328 
Q 359 3434 948 4092 
Q 1538 4750 2522 4750 
z
" id="DejaVuSans-4f" transform="scale(0.015625)"/>
        <path d="M 3122 3366 
L 3122 2828 
Q 2878 2963 2633 3030 
Q 2388 3097 2138 3097 
Q 1578 3097 1268 2742 
Q 959 2388 959 1747 
Q 959 1106 1268 751 
Q 1578 397 2138 397 
Q 2388 397 2633 464 
Q 2878 531 3122 666 
L 3122 134 
Q 2881 22 2623 -34 
Q 2366 -91 2075 -91 
Q 1284 -91 818 406 
Q 353 903 353 1747 
Q 353 2603 823 3093 
Q 1294 3584 2113 3584 
Q 2378 3584 2631 3529 
Q 2884 3475 3122 3366 
z
" id="DejaVuSans-63" transform="scale(0.015625)"/>
        <path d="M 1172 4494 
L 1172 3500 
L 2356 3500 
L 2356 3053 
L 1172 3053 
L 1172 1153 
Q 1172 725 1289 603 
Q 1406 481 1766 481 
L 2356 481 
L 2356 0 
L 1766 0 
Q 1100 0 847 248 
Q 594 497 594 1153 
L 594 3053 
L 172 3053 
L 172 3500 
L 594 3500 
L 594 4494 
L 1172 4494 
z
" id="DejaVuSans-74" transform="scale(0.015625)"/>
       </defs>
       <use xlink:href="#DejaVuSans-4f"/>
       <use x="78.710938" xlink:href="#DejaVuSans-63"/>
       <use x="133.691406" xlink:href="#DejaVuSans-74"/>
      </g>
     </g>
    </g>
    <g id="xtick_11">
     <g id="line2d_21">
      <path clip-path="url(#pf759cc1837)" d="M 371.483544 384.48 
L 371.483544 51.84 
" style="fill:none;stroke:#000000;stroke-dasharray:0.8,1.32;stroke-dashoffset:0;stroke-opacity:0.5;stroke-width:0.8;"/>
     </g>
     <g id="line2d_22">
      <g>
       <use style="stroke:#000000;stroke-width:0.8;" x="371.483544" xlink:href="#m9a05c12e79" y="384.48"/>
      </g>
     </g>
     <g id="text_11">
      <!-- 15 -->
      <g transform="translate(365.121044 399.078438)scale(0.1 -0.1)">
       <use xlink:href="#DejaVuSans-31"/>
       <use x="63.623047" xlink:href="#DejaVuSans-35"/>
      </g>
     </g>
    </g>
    <g id="xtick_12">
     <g id="line2d_23">
      <path clip-path="url(#pf759cc1837)" d="M 403.503797 384.48 
L 403.503797 51.84 
" style="fill:none;stroke:#000000;stroke-dasharray:0.8,1.32;stroke-dashoffset:0;stroke-opacity:0.5;stroke-width:0.8;"/>
     </g>
     <g id="line2d_24">
      <g>
       <use style="stroke:#000000;stroke-width:0.8;" x="403.503797" xlink:href="#m9a05c12e79" y="384.48"/>
      </g>
     </g>
     <g id="text_12">
      <!-- Nov -->
      <g transform="translate(393.744422 399.078438)scale(0.1 -0.1)">
       <defs>
        <path d="M 628 4666 
L 1478 4666 
L 3547 763 
L 3547 4666 
L 4159 4666 
L 4159 0 
L 3309 0 
L 1241 3903 
L 1241 0 
L 628 0 
L 628 4666 
z
" id="DejaVuSans-4e" transform="scale(0.015625)"/>
        <path d="M 1959 3097 
Q 1497 3097 1228 2736 
Q 959 2375 959 1747 
Q 959 1119 1226 758 
Q 1494 397 1959 397 
Q 2419 397 2687 759 
Q 2956 1122 2956 1747 
Q 2956 2369 2687 2733 
Q 2419 3097 1959 3097 
z
M 1959 3584 
Q 2709 3584 3137 3096 
Q 3566 2609 3566 1747 
Q 3566 888 3137 398 
Q 2709 -91 1959 -91 
Q 1206 -91 779 398 
Q 353 888 353 1747 
Q 353 2609 779 3096 
Q 1206 3584 1959 3584 
z
" id="DejaVuSans-6f" transform="scale(0.015625)"/>
        <path d="M 191 3500 
L 800 3500 
L 1894 563 
L 2988 3500 
L 3597 3500 
L 2284 0 
L 1503 0 
L 191 3500 
z
" id="DejaVuSans-76" transform="scale(0.015625)"/>
       </defs>
       <use xlink:href="#DejaVuSans-4e"/>
       <use x="74.804688" xlink:href="#DejaVuSans-6f"/>
       <use x="135.986328" xlink:href="#DejaVuSans-76"/>
      </g>
     </g>
    </g>
    <g id="xtick_13">
     <g id="line2d_25">
      <path clip-path="url(#pf759cc1837)" d="M 429.873418 384.48 
L 429.873418 51.84 
" style="fill:none;stroke:#000000;stroke-dasharray:0.8,1.32;stroke-dashoffset:0;stroke-opacity:0.5;stroke-width:0.8;"/>
     </g>
     <g id="line2d_26">
      <g>
       <use style="stroke:#000000;stroke-width:0.8;" x="429.873418" xlink:href="#m9a05c12e79" y="384.48"/>
      </g>
     </g>
     <g id="text_13">
      <!-- 15 -->
      <g transform="translate(423.510918 399.078438)scale(0.1 -0.1)">
       <use xlink:href="#DejaVuSans-31"/>
       <use x="63.623047" xlink:href="#DejaVuSans-35"/>
      </g>
     </g>
    </g>
    <g id="xtick_14">
     <g id="line2d_27">
      <path clip-path="url(#pf759cc1837)" d="M 460.010127 384.48 
L 460.010127 51.84 
" style="fill:none;stroke:#000000;stroke-dasharray:0.8,1.32;stroke-dashoffset:0;stroke-opacity:0.5;stroke-width:0.8;"/>
     </g>
     <g id="line2d_28">
      <g>
       <use style="stroke:#000000;stroke-width:0.8;" x="460.010127" xlink:href="#m9a05c12e79" y="384.48"/>
      </g>
     </g>
     <g id="text_14">
      <!-- Dec -->
      <g transform="translate(450.334345 399.078438)scale(0.1 -0.1)">
       <defs>
        <path d="M 1259 4147 
L 1259 519 
L 2022 519 
Q 2988 519 3436 956 
Q 3884 1394 3884 2338 
Q 3884 3275 3436 3711 
Q 2988 4147 2022 4147 
L 1259 4147 
z
M 628 4666 
L 1925 4666 
Q 3281 4666 3915 4102 
Q 4550 3538 4550 2338 
Q 4550 1131 3912 565 
Q 3275 0 1925 0 
L 628 0 
L 628 4666 
z
" id="DejaVuSans-44" transform="scale(0.015625)"/>
       </defs>
       <use xlink:href="#DejaVuSans-44"/>
       <use x="77.001953" xlink:href="#DejaVuSans-65"/>
       <use x="138.525391" xlink:href="#DejaVuSans-63"/>
      </g>
     </g>
    </g>
    <g id="xtick_15">
     <g id="line2d_29">
      <path clip-path="url(#pf759cc1837)" d="M 486.379747 384.48 
L 486.379747 51.84 
" style="fill:none;stroke:#000000;stroke-dasharray:0.8,1.32;stroke-dashoffset:0;stroke-opacity:0.5;stroke-width:0.8;"/>
     </g>
     <g id="line2d_30">
      <g>
       <use style="stroke:#000000;stroke-width:0.8;" x="486.379747" xlink:href="#m9a05c12e79" y="384.48"/>
      </g>
     </g>
     <g id="text_15">
      <!-- 15 -->
      <g transform="translate(480.017247 399.078438)scale(0.1 -0.1)">
       <use xlink:href="#DejaVuSans-31"/>
       <use x="63.623047" xlink:href="#DejaVuSans-35"/>
      </g>
     </g>
    </g>
    <g id="xtick_16">
     <g id="line2d_31">
      <path clip-path="url(#pf759cc1837)" d="M 518.4 384.48 
L 518.4 51.84 
" style="fill:none;stroke:#000000;stroke-dasharray:0.8,1.32;stroke-dashoffset:0;stroke-opacity:0.5;stroke-width:0.8;"/>
     </g>
     <g id="line2d_32">
      <g>
       <use style="stroke:#000000;stroke-width:0.8;" x="518.4" xlink:href="#m9a05c12e79" y="384.48"/>
      </g>
     </g>
     <g id="text_16">
      <!-- Jan -->
      <g transform="translate(510.692188 399.078438)scale(0.1 -0.1)">
       <defs>
        <path d="M 2194 1759 
Q 1497 1759 1228 1600 
Q 959 1441 959 1056 
Q 959 750 1161 570 
Q 1363 391 1709 391 
Q 2188 391 2477 730 
Q 2766 1069 2766 1631 
L 2766 1759 
L 2194 1759 
z
M 3341 1997 
L 3341 0 
L 2766 0 
L 2766 531 
Q 2569 213 2275 61 
Q 1981 -91 1556 -91 
Q 1019 -91 701 211 
Q 384 513 384 1019 
Q 384 1609 779 1909 
Q 1175 2209 1959 2209 
L 2766 2209 
L 2766 2266 
Q 2766 2663 2505 2880 
Q 2244 3097 1772 3097 
Q 1472 3097 1187 3025 
Q 903 2953 641 2809 
L 641 3341 
Q 956 3463 1253 3523 
Q 1550 3584 1831 3584 
Q 2591 3584 2966 3190 
Q 3341 2797 3341 1997 
z
" id="DejaVuSans-61" transform="scale(0.015625)"/>
       </defs>
       <use xlink:href="#DejaVuSans-4a"/>
       <use x="29.492188" xlink:href="#DejaVuSans-61"/>
       <use x="90.771484" xlink:href="#DejaVuSans-6e"/>
      </g>
     </g>
    </g>
    <g id="text_17">
     <!-- 2022-Jan -->
     <g transform="translate(473.364062 411.756563)scale(0.1 -0.1)">
      <defs>
       <path d="M 1228 531 
L 3431 531 
L 3431 0 
L 469 0 
L 469 531 
Q 828 903 1448 1529 
Q 2069 2156 2228 2338 
Q 2531 2678 2651 2914 
Q 2772 3150 2772 3378 
Q 2772 3750 2511 3984 
Q 2250 4219 1831 4219 
Q 1534 4219 1204 4116 
Q 875 4013 500 3803 
L 500 4441 
Q 881 4594 1212 4672 
Q 1544 4750 1819 4750 
Q 2544 4750 2975 4387 
Q 3406 4025 3406 3419 
Q 3406 3131 3298 2873 
Q 3191 2616 2906 2266 
Q 2828 2175 2409 1742 
Q 1991 1309 1228 531 
z
" id="DejaVuSans-32" transform="scale(0.015625)"/>
       <path d="M 2034 4250 
Q 1547 4250 1301 3770 
Q 1056 3291 1056 2328 
Q 1056 1369 1301 889 
Q 1547 409 2034 409 
Q 2525 409 2770 889 
Q 3016 1369 3016 2328 
Q 3016 3291 2770 3770 
Q 2525 4250 2034 4250 
z
M 2034 4750 
Q 2819 4750 3233 4129 
Q 3647 3509 3647 2328 
Q 3647 1150 3233 529 
Q 2819 -91 2034 -91 
Q 1250 -91 836 529 
Q 422 1150 422 2328 
Q 422 3509 836 4129 
Q 1250 4750 2034 4750 
z
" id="DejaVuSans-30" transform="scale(0.015625)"/>
       <path d="M 313 2009 
L 1997 2009 
L 1997 1497 
L 313 1497 
L 313 2009 
z
" id="DejaVuSans-2d" transform="scale(0.015625)"/>
      </defs>
      <use xlink:href="#DejaVuSans-32"/>
      <use x="63.623047" xlink:href="#DejaVuSans-30"/>
      <use x="127.246094" xlink:href="#DejaVuSans-32"/>
      <use x="190.869141" xlink:href="#DejaVuSans-32"/>
      <use x="254.492188" xlink:href="#DejaVuSans-2d"/>
      <use x="296.201172" xlink:href="#DejaVuSans-4a"/>
      <use x="325.693359" xlink:href="#DejaVuSans-61"/>
      <use x="386.972656" xlink:href="#DejaVuSans-6e"/>
     </g>
    </g>
   </g>
   <g id="matplotlib.axis_2">
    <g id="ytick_1">
     <g id="line2d_33">
      <path clip-path="url(#pf759cc1837)" d="M 72 384.48 
L 518.4 384.48 
" style="fill:none;stroke:#000000;stroke-dasharray:0.8,1.32;stroke-dashoffset:0;stroke-opacity:0.5;stroke-width:0.8;"/>
     </g>
     <g id="line2d_34">
      <defs>
       <path d="M 0 0 
L -3.5 0 
" id="mbaa5dc033b" style="stroke:#000000;stroke-width:0.8;"/>
      </defs>
      <g>
       <use style="stroke:#000000;stroke-width:0.8;" x="72" xlink:href="#mbaa5dc033b" y="384.48"/>
      </g>
     </g>
     <g id="text_18">
      <!-- 0 -->
      <g transform="translate(58.6375 388.279219)scale(0.1 -0.1)">
       <use xlink:href="#DejaVuSans-30"/>
      </g>
     </g>
    </g>
    <g id="ytick_2">
     <g id="line2d_35">
      <path clip-path="url(#pf759cc1837)" d="M 72 351.216 
L 518.4 351.216 
" style="fill:none;stroke:#000000;stroke-dasharray:0.8,1.32;stroke-dashoffset:0;stroke-opacity:0.5;stroke-width:0.8;"/>
     </g>
     <g id="line2d_36">
      <g>
       <use style="stroke:#000000;stroke-width:0.8;" x="72" xlink:href="#mbaa5dc033b" y="351.216"/>
      </g>
     </g>
     <g id="text_19">
      <!-- 1 -->
      <g transform="translate(58.6375 355.015219)scale(0.1 -0.1)">
       <use xlink:href="#DejaVuSans-31"/>
      </g>
     </g>
    </g>
    <g id="ytick_3">
     <g id="line2d_37">
      <path clip-path="url(#pf759cc1837)" d="M 72 317.952 
L 518.4 317.952 
" style="fill:none;stroke:#000000;stroke-dasharray:0.8,1.32;stroke-dashoffset:0;stroke-opacity:0.5;stroke-width:0.8;"/>
     </g>
     <g id="line2d_38">
      <g>
       <use style="stroke:#000000;stroke-width:0.8;" x="72" xlink:href="#mbaa5dc033b" y="317.952"/>
      </g>
     </g>
     <g id="text_20">
      <!-- 2 -->
      <g transform="translate(58.6375 321.751219)scale(0.1 -0.1)">
       <use xlink:href="#DejaVuSans-32"/>
      </g>
     </g>
    </g>
    <g id="ytick_4">
     <g id="line2d_39">
      <path clip-path="url(#pf759cc1837)" d="M 72 284.688 
L 518.4 284.688 
" style="fill:none;stroke:#000000;stroke-dasharray:0.8,1.32;stroke-dashoffset:0;stroke-opacity:0.5;stroke-width:0.8;"/>
     </g>
     <g id="line2d_40">
      <g>
       <use style="stroke:#000000;stroke-width:0.8;" x="72" xlink:href="#mbaa5dc033b" y="284.688"/>
      </g>
     </g>
     <g id="text_21">
      <!-- 3 -->
      <g transform="translate(58.6375 288.487219)scale(0.1 -0.1)">
       <defs>
        <path d="M 2597 2516 
Q 3050 2419 3304 2112 
Q 3559 1806 3559 1356 
Q 3559 666 3084 287 
Q 2609 -91 1734 -91 
Q 1441 -91 1130 -33 
Q 819 25 488 141 
L 488 750 
Q 750 597 1062 519 
Q 1375 441 1716 441 
Q 2309 441 2620 675 
Q 2931 909 2931 1356 
Q 2931 1769 2642 2001 
Q 2353 2234 1838 2234 
L 1294 2234 
L 1294 2753 
L 1863 2753 
Q 2328 2753 2575 2939 
Q 2822 3125 2822 3475 
Q 2822 3834 2567 4026 
Q 2313 4219 1838 4219 
Q 1578 4219 1281 4162 
Q 984 4106 628 3988 
L 628 4550 
Q 988 4650 1302 4700 
Q 1616 4750 1894 4750 
Q 2613 4750 3031 4423 
Q 3450 4097 3450 3541 
Q 3450 3153 3228 2886 
Q 3006 2619 2597 2516 
z
" id="DejaVuSans-33" transform="scale(0.015625)"/>
       </defs>
       <use xlink:href="#DejaVuSans-33"/>
      </g>
     </g>
    </g>
    <g id="ytick_5">
     <g id="line2d_41">
      <path clip-path="url(#pf759cc1837)" d="M 72 251.424 
L 518.4 251.424 
" style="fill:none;stroke:#000000;stroke-dasharray:0.8,1.32;stroke-dashoffset:0;stroke-opacity:0.5;stroke-width:0.8;"/>
     </g>
     <g id="line2d_42">
      <g>
       <use style="stroke:#000000;stroke-width:0.8;" x="72" xlink:href="#mbaa5dc033b" y="251.424"/>
      </g>
     </g>
     <g id="text_22">
      <!-- 4 -->
      <g transform="translate(58.6375 255.223219)scale(0.1 -0.1)">
       <defs>
        <path d="M 2419 4116 
L 825 1625 
L 2419 1625 
L 2419 4116 
z
M 2253 4666 
L 3047 4666 
L 3047 1625 
L 3713 1625 
L 3713 1100 
L 3047 1100 
L 3047 0 
L 2419 0 
L 2419 1100 
L 313 1100 
L 313 1709 
L 2253 4666 
z
" id="DejaVuSans-34" transform="scale(0.015625)"/>
       </defs>
       <use xlink:href="#DejaVuSans-34"/>
      </g>
     </g>
    </g>
    <g id="ytick_6">
     <g id="line2d_43">
      <path clip-path="url(#pf759cc1837)" d="M 72 218.16 
L 518.4 218.16 
" style="fill:none;stroke:#000000;stroke-dasharray:0.8,1.32;stroke-dashoffset:0;stroke-opacity:0.5;stroke-width:0.8;"/>
     </g>
     <g id="line2d_44">
      <g>
       <use style="stroke:#000000;stroke-width:0.8;" x="72" xlink:href="#mbaa5dc033b" y="218.16"/>
      </g>
     </g>
     <g id="text_23">
      <!-- 5 -->
      <g transform="translate(58.6375 221.959219)scale(0.1 -0.1)">
       <use xlink:href="#DejaVuSans-35"/>
      </g>
     </g>
    </g>
    <g id="ytick_7">
     <g id="line2d_45">
      <path clip-path="url(#pf759cc1837)" d="M 72 184.896 
L 518.4 184.896 
" style="fill:none;stroke:#000000;stroke-dasharray:0.8,1.32;stroke-dashoffset:0;stroke-opacity:0.5;stroke-width:0.8;"/>
     </g>
     <g id="line2d_46">
      <g>
       <use style="stroke:#000000;stroke-width:0.8;" x="72" xlink:href="#mbaa5dc033b" y="184.896"/>
      </g>
     </g>
     <g id="text_24">
      <!-- 6 -->
      <g transform="translate(58.6375 188.695219)scale(0.1 -0.1)">
       <defs>
        <path d="M 2113 2584 
Q 1688 2584 1439 2293 
Q 1191 2003 1191 1497 
Q 1191 994 1439 701 
Q 1688 409 2113 409 
Q 2538 409 2786 701 
Q 3034 994 3034 1497 
Q 3034 2003 2786 2293 
Q 2538 2584 2113 2584 
z
M 3366 4563 
L 3366 3988 
Q 3128 4100 2886 4159 
Q 2644 4219 2406 4219 
Q 1781 4219 1451 3797 
Q 1122 3375 1075 2522 
Q 1259 2794 1537 2939 
Q 1816 3084 2150 3084 
Q 2853 3084 3261 2657 
Q 3669 2231 3669 1497 
Q 3669 778 3244 343 
Q 2819 -91 2113 -91 
Q 1303 -91 875 529 
Q 447 1150 447 2328 
Q 447 3434 972 4092 
Q 1497 4750 2381 4750 
Q 2619 4750 2861 4703 
Q 3103 4656 3366 4563 
z
" id="DejaVuSans-36" transform="scale(0.015625)"/>
       </defs>
       <use xlink:href="#DejaVuSans-36"/>
      </g>
     </g>
    </g>
    <g id="ytick_8">
     <g id="line2d_47">
      <path clip-path="url(#pf759cc1837)" d="M 72 151.632 
L 518.4 151.632 
" style="fill:none;stroke:#000000;stroke-dasharray:0.8,1.32;stroke-dashoffset:0;stroke-opacity:0.5;stroke-width:0.8;"/>
     </g>
     <g id="line2d_48">
      <g>
       <use style="stroke:#000000;stroke-width:0.8;" x="72" xlink:href="#mbaa5dc033b" y="151.632"/>
      </g>
     </g>
     <g id="text_25">
      <!-- 7 -->
      <g transform="translate(58.6375 155.431219)scale(0.1 -0.1)">
       <defs>
        <path d="M 525 4666 
L 3525 4666 
L 3525 4397 
L 1831 0 
L 1172 0 
L 2766 4134 
L 525 4134 
L 525 4666 
z
" id="DejaVuSans-37" transform="scale(0.015625)"/>
       </defs>
       <use xlink:href="#DejaVuSans-37"/>
      </g>
     </g>
    </g>
    <g id="ytick_9">
     <g id="line2d_49">
      <path clip-path="url(#pf759cc1837)" d="M 72 118.368 
L 518.4 118.368 
" style="fill:none;stroke:#000000;stroke-dasharray:0.8,1.32;stroke-dashoffset:0;stroke-opacity:0.5;stroke-width:0.8;"/>
     </g>
     <g id="line2d_50">
      <g>
       <use style="stroke:#000000;stroke-width:0.8;" x="72" xlink:href="#mbaa5dc033b" y="118.368"/>
      </g>
     </g>
     <g id="text_26">
      <!-- 8 -->
      <g transform="translate(58.6375 122.167219)scale(0.1 -0.1)">
       <defs>
        <path d="M 2034 2216 
Q 1584 2216 1326 1975 
Q 1069 1734 1069 1313 
Q 1069 891 1326 650 
Q 1584 409 2034 409 
Q 2484 409 2743 651 
Q 3003 894 3003 1313 
Q 3003 1734 2745 1975 
Q 2488 2216 2034 2216 
z
M 1403 2484 
Q 997 2584 770 2862 
Q 544 3141 544 3541 
Q 544 4100 942 4425 
Q 1341 4750 2034 4750 
Q 2731 4750 3128 4425 
Q 3525 4100 3525 3541 
Q 3525 3141 3298 2862 
Q 3072 2584 2669 2484 
Q 3125 2378 3379 2068 
Q 3634 1759 3634 1313 
Q 3634 634 3220 271 
Q 2806 -91 2034 -91 
Q 1263 -91 848 271 
Q 434 634 434 1313 
Q 434 1759 690 2068 
Q 947 2378 1403 2484 
z
M 1172 3481 
Q 1172 3119 1398 2916 
Q 1625 2713 2034 2713 
Q 2441 2713 2670 2916 
Q 2900 3119 2900 3481 
Q 2900 3844 2670 4047 
Q 2441 4250 2034 4250 
Q 1625 4250 1398 4047 
Q 1172 3844 1172 3481 
z
" id="DejaVuSans-38" transform="scale(0.015625)"/>
       </defs>
       <use xlink:href="#DejaVuSans-38"/>
      </g>
     </g>
    </g>
    <g id="ytick_10">
     <g id="line2d_51">
      <path clip-path="url(#pf759cc1837)" d="M 72 85.104 
L 518.4 85.104 
" style="fill:none;stroke:#000000;stroke-dasharray:0.8,1.32;stroke-dashoffset:0;stroke-opacity:0.5;stroke-width:0.8;"/>
     </g>
     <g id="line2d_52">
      <g>
       <use style="stroke:#000000;stroke-width:0.8;" x="72" xlink:href="#mbaa5dc033b" y="85.104"/>
      </g>
     </g>
     <g id="text_27">
      <!-- 9 -->
      <g transform="translate(58.6375 88.903219)scale(0.1 -0.1)">
       <defs>
        <path d="M 703 97 
L 703 672 
Q 941 559 1184 500 
Q 1428 441 1663 441 
Q 2288 441 2617 861 
Q 2947 1281 2994 2138 
Q 2813 1869 2534 1725 
Q 2256 1581 1919 1581 
Q 1219 1581 811 2004 
Q 403 2428 403 3163 
Q 403 3881 828 4315 
Q 1253 4750 1959 4750 
Q 2769 4750 3195 4129 
Q 3622 3509 3622 2328 
Q 3622 1225 3098 567 
Q 2575 -91 1691 -91 
Q 1453 -91 1209 -44 
Q 966 3 703 97 
z
M 1959 2075 
Q 2384 2075 2632 2365 
Q 2881 2656 2881 3163 
Q 2881 3666 2632 3958 
Q 2384 4250 1959 4250 
Q 1534 4250 1286 3958 
Q 1038 3666 1038 3163 
Q 1038 2656 1286 2365 
Q 1534 2075 1959 2075 
z
" id="DejaVuSans-39" transform="scale(0.015625)"/>
       </defs>
       <use xlink:href="#DejaVuSans-39"/>
      </g>
     </g>
    </g>
    <g id="ytick_11">
     <g id="line2d_53">
      <path clip-path="url(#pf759cc1837)" d="M 72 51.84 
L 518.4 51.84 
" style="fill:none;stroke:#000000;stroke-dasharray:0.8,1.32;stroke-dashoffset:0;stroke-opacity:0.5;stroke-width:0.8;"/>
     </g>
     <g id="line2d_54">
      <g>
       <use style="stroke:#000000;stroke-width:0.8;" x="72" xlink:href="#mbaa5dc033b" y="51.84"/>
      </g>
     </g>
     <g id="text_28">
      <!-- 10 -->
      <g transform="translate(52.275 55.639219)scale(0.1 -0.1)">
       <use xlink:href="#DejaVuSans-31"/>
       <use x="63.623047" xlink:href="#DejaVuSans-30"/>
      </g>
     </g>
    </g>
    <g id="text_29">
     <!-- Vaccination rate (% of age group / week) -->
     <g transform="translate(46.195312 320.362344)rotate(-90)scale(0.1 -0.1)">
      <defs>
       <path d="M 1831 0 
L 50 4666 
L 709 4666 
L 2188 738 
L 3669 4666 
L 4325 4666 
L 2547 0 
L 1831 0 
z
" id="DejaVuSans-56" transform="scale(0.015625)"/>
       <path d="M 603 3500 
L 1178 3500 
L 1178 0 
L 603 0 
L 603 3500 
z
M 603 4863 
L 1178 4863 
L 1178 4134 
L 603 4134 
L 603 4863 
z
" id="DejaVuSans-69" transform="scale(0.015625)"/>
       <path id="DejaVuSans-20" transform="scale(0.015625)"/>
       <path d="M 2631 2963 
Q 2534 3019 2420 3045 
Q 2306 3072 2169 3072 
Q 1681 3072 1420 2755 
Q 1159 2438 1159 1844 
L 1159 0 
L 581 0 
L 581 3500 
L 1159 3500 
L 1159 2956 
Q 1341 3275 1631 3429 
Q 1922 3584 2338 3584 
Q 2397 3584 2469 3576 
Q 2541 3569 2628 3553 
L 2631 2963 
z
" id="DejaVuSans-72" transform="scale(0.015625)"/>
       <path d="M 1984 4856 
Q 1566 4138 1362 3434 
Q 1159 2731 1159 2009 
Q 1159 1288 1364 580 
Q 1569 -128 1984 -844 
L 1484 -844 
Q 1016 -109 783 600 
Q 550 1309 550 2009 
Q 550 2706 781 3412 
Q 1013 4119 1484 4856 
L 1984 4856 
z
" id="DejaVuSans-28" transform="scale(0.015625)"/>
       <path d="M 4653 2053 
Q 4381 2053 4226 1822 
Q 4072 1591 4072 1178 
Q 4072 772 4226 539 
Q 4381 306 4653 306 
Q 4919 306 5073 539 
Q 5228 772 5228 1178 
Q 5228 1588 5073 1820 
Q 4919 2053 4653 2053 
z
M 4653 2450 
Q 5147 2450 5437 2106 
Q 5728 1763 5728 1178 
Q 5728 594 5436 251 
Q 5144 -91 4653 -91 
Q 4153 -91 3862 251 
Q 3572 594 3572 1178 
Q 3572 1766 3864 2108 
Q 4156 2450 4653 2450 
z
M 1428 4353 
Q 1159 4353 1004 4120 
Q 850 3888 850 3481 
Q 850 3069 1003 2837 
Q 1156 2606 1428 2606 
Q 1700 2606 1854 2837 
Q 2009 3069 2009 3481 
Q 2009 3884 1853 4118 
Q 1697 4353 1428 4353 
z
M 4250 4750 
L 4750 4750 
L 1831 -91 
L 1331 -91 
L 4250 4750 
z
M 1428 4750 
Q 1922 4750 2215 4408 
Q 2509 4066 2509 3481 
Q 2509 2891 2217 2550 
Q 1925 2209 1428 2209 
Q 931 2209 642 2551 
Q 353 2894 353 3481 
Q 353 4063 643 4406 
Q 934 4750 1428 4750 
z
" id="DejaVuSans-25" transform="scale(0.015625)"/>
       <path d="M 2375 4863 
L 2375 4384 
L 1825 4384 
Q 1516 4384 1395 4259 
Q 1275 4134 1275 3809 
L 1275 3500 
L 2222 3500 
L 2222 3053 
L 1275 3053 
L 1275 0 
L 697 0 
L 697 3053 
L 147 3053 
L 147 3500 
L 697 3500 
L 697 3744 
Q 697 4328 969 4595 
Q 1241 4863 1831 4863 
L 2375 4863 
z
" id="DejaVuSans-66" transform="scale(0.015625)"/>
       <path d="M 1625 4666 
L 2156 4666 
L 531 -594 
L 0 -594 
L 1625 4666 
z
" id="DejaVuSans-2f" transform="scale(0.015625)"/>
       <path d="M 269 3500 
L 844 3500 
L 1563 769 
L 2278 3500 
L 2956 3500 
L 3675 769 
L 4391 3500 
L 4966 3500 
L 4050 0 
L 3372 0 
L 2619 2869 
L 1863 0 
L 1184 0 
L 269 3500 
z
" id="DejaVuSans-77" transform="scale(0.015625)"/>
       <path d="M 581 4863 
L 1159 4863 
L 1159 1991 
L 2875 3500 
L 3609 3500 
L 1753 1863 
L 3688 0 
L 2938 0 
L 1159 1709 
L 1159 0 
L 581 0 
L 581 4863 
z
" id="DejaVuSans-6b" transform="scale(0.015625)"/>
       <path d="M 513 4856 
L 1013 4856 
Q 1481 4119 1714 3412 
Q 1947 2706 1947 2009 
Q 1947 1309 1714 600 
Q 1481 -109 1013 -844 
L 513 -844 
Q 928 -128 1133 580 
Q 1338 1288 1338 2009 
Q 1338 2731 1133 3434 
Q 928 4138 513 4856 
z
" id="DejaVuSans-29" transform="scale(0.015625)"/>
      </defs>
      <use xlink:href="#DejaVuSans-56"/>
      <use x="60.658203" xlink:href="#DejaVuSans-61"/>
      <use x="121.9375" xlink:href="#DejaVuSans-63"/>
      <use x="176.917969" xlink:href="#DejaVuSans-63"/>
      <use x="231.898438" xlink:href="#DejaVuSans-69"/>
      <use x="259.681641" xlink:href="#DejaVuSans-6e"/>
      <use x="323.060547" xlink:href="#DejaVuSans-61"/>
      <use x="384.339844" xlink:href="#DejaVuSans-74"/>
      <use x="423.548828" xlink:href="#DejaVuSans-69"/>
      <use x="451.332031" xlink:href="#DejaVuSans-6f"/>
      <use x="512.513672" xlink:href="#DejaVuSans-6e"/>
      <use x="575.892578" xlink:href="#DejaVuSans-20"/>
      <use x="607.679688" xlink:href="#DejaVuSans-72"/>
      <use x="648.792969" xlink:href="#DejaVuSans-61"/>
      <use x="710.072266" xlink:href="#DejaVuSans-74"/>
      <use x="749.28125" xlink:href="#DejaVuSans-65"/>
      <use x="810.804688" xlink:href="#DejaVuSans-20"/>
      <use x="842.591797" xlink:href="#DejaVuSans-28"/>
      <use x="881.605469" xlink:href="#DejaVuSans-25"/>
      <use x="976.625" xlink:href="#DejaVuSans-20"/>
      <use x="1008.412109" xlink:href="#DejaVuSans-6f"/>
      <use x="1069.59375" xlink:href="#DejaVuSans-66"/>
      <use x="1104.798828" xlink:href="#DejaVuSans-20"/>
      <use x="1136.585938" xlink:href="#DejaVuSans-61"/>
      <use x="1197.865234" xlink:href="#DejaVuSans-67"/>
      <use x="1261.341797" xlink:href="#DejaVuSans-65"/>
      <use x="1322.865234" xlink:href="#DejaVuSans-20"/>
      <use x="1354.652344" xlink:href="#DejaVuSans-67"/>
      <use x="1418.128906" xlink:href="#DejaVuSans-72"/>
      <use x="1456.992188" xlink:href="#DejaVuSans-6f"/>
      <use x="1518.173828" xlink:href="#DejaVuSans-75"/>
      <use x="1581.552734" xlink:href="#DejaVuSans-70"/>
      <use x="1645.029297" xlink:href="#DejaVuSans-20"/>
      <use x="1676.816406" xlink:href="#DejaVuSans-2f"/>
      <use x="1710.507812" xlink:href="#DejaVuSans-20"/>
      <use x="1742.294922" xlink:href="#DejaVuSans-77"/>
      <use x="1824.082031" xlink:href="#DejaVuSans-65"/>
      <use x="1885.605469" xlink:href="#DejaVuSans-65"/>
      <use x="1947.128906" xlink:href="#DejaVuSans-6b"/>
      <use x="2005.039062" xlink:href="#DejaVuSans-29"/>
     </g>
    </g>
   </g>
   <g id="line2d_55">
    <path clip-path="url(#pf759cc1837)" d="M 185.012658 230.772828 
L 186.896203 231.47451 
L 188.779747 232.278871 
L 190.663291 232.446879 
L 192.546835 232.061892 
L 194.43038 232.021788 
L 196.313924 232.602625 
L 198.197468 233.795236 
L 200.081013 235.254323 
L 201.964557 236.791973 
L 203.848101 239.147846 
L 205.731646 242.655777 
L 207.61519 246.607912 
L 209.498734 250.294492 
L 211.382278 252.983587 
L 213.265823 254.804326 
L 215.149367 256.083423 
L 217.032911 256.897749 
L 218.916456 258.033846 
L 220.8 259.970791 
L 222.683544 262.551817 
L 224.567089 265.272474 
L 226.450633 267.031724 
L 228.334177 267.421786 
L 230.217722 267.338692 
L 232.101266 267.728761 
L 233.98481 268.510008 
L 235.868354 269.117149 
L 237.751899 269.288294 
L 239.635443 269.113613 
L 241.518987 269.042217 
L 243.402532 269.413882 
L 245.286076 270.107859 
L 247.16962 271.142521 
L 249.053165 272.415763 
L 250.936709 273.383283 
L 252.820253 273.952303 
L 254.703797 274.258631 
L 256.587342 274.344696 
L 258.470886 274.047267 
L 260.35443 273.020389 
L 262.237975 271.784088 
L 264.121519 271.488789 
L 266.005063 271.888992 
L 267.888608 272.217727 
L 269.772152 272.234916 
L 271.655696 272.172913 
L 273.539241 272.215048 
L 275.422785 271.983152 
L 277.306329 271.087323 
L 279.189873 269.977481 
L 281.073418 269.117857 
L 282.956962 268.491089 
L 284.840506 267.946061 
L 286.724051 267.835887 
L 288.607595 268.53217 
L 290.491139 269.72246 
L 292.374684 271.318745 
L 294.258228 273.06827 
L 296.141772 274.756093 
L 298.025316 276.531882 
L 299.908861 277.968605 
L 301.792405 278.563714 
L 303.675949 278.690534 
" style="fill:none;stroke:#1f77b4;stroke-linecap:square;stroke-width:1.5;"/>
   </g>
   <g id="line2d_56">
    <path clip-path="url(#pf759cc1837)" d="M 185.012658 175.14732 
L 186.896203 174.932709 
L 188.779747 174.813084 
L 190.663291 174.894148 
L 192.546835 174.219547 
L 194.43038 172.373496 
L 196.313924 170.357863 
L 198.197468 169.149234 
L 200.081013 168.97253 
L 201.964557 169.893919 
L 203.848101 172.043476 
L 205.731646 175.461049 
L 207.61519 179.524347 
L 209.498734 183.548043 
L 211.382278 187.00407 
L 213.265823 189.81222 
L 215.149367 192.119314 
L 217.032911 194.189838 
L 218.916456 197.027202 
L 220.8 200.567883 
L 222.683544 203.947229 
L 224.567089 206.802445 
L 226.450633 208.948036 
L 228.334177 209.949712 
L 230.217722 209.867838 
L 232.101266 209.743934 
L 233.98481 210.71812 
L 235.868354 212.744016 
L 237.751899 215.050581 
L 239.635443 216.561949 
L 241.518987 217.228156 
L 243.402532 217.94627 
L 245.286076 219.163501 
L 247.16962 220.654935 
L 249.053165 222.289624 
L 250.936709 223.792398 
L 252.820253 224.78816 
L 254.703797 225.189292 
L 256.587342 225.421057 
L 258.470886 226.073404 
L 260.35443 227.335096 
L 262.237975 228.655877 
L 264.121519 229.786777 
L 266.005063 230.581016 
L 267.888608 230.997502 
L 269.772152 231.471828 
L 271.655696 231.868337 
L 273.539241 231.00558 
L 275.422785 229.232875 
L 277.306329 227.886712 
L 279.189873 227.25649 
L 281.073418 227.019374 
L 282.956962 227.152078 
L 284.840506 227.992685 
L 286.724051 230.138614 
L 288.607595 233.608086 
L 290.491139 237.284447 
L 292.374684 240.51287 
L 294.258228 243.099882 
L 296.141772 245.391651 
L 298.025316 248.267215 
L 299.908861 251.464948 
L 301.792405 253.888921 
L 303.675949 255.171962 
" style="fill:none;stroke:#ff7f0e;stroke-linecap:square;stroke-width:1.5;"/>
   </g>
   <g id="line2d_57">
    <path clip-path="url(#pf759cc1837)" d="M 185.012658 178.611441 
L 186.896203 178.731598 
L 188.779747 178.372465 
L 190.663291 177.413725 
L 192.546835 175.098692 
L 194.43038 171.205014 
L 196.313924 166.996936 
L 198.197468 163.512876 
L 200.081013 161.379743 
L 201.964557 161.26658 
L 203.848101 163.070896 
L 205.731646 166.435422 
L 207.61519 170.422755 
L 209.498734 173.996882 
L 211.382278 176.960791 
L 213.265823 179.466968 
L 215.149367 181.523832 
L 217.032911 183.216388 
L 218.916456 185.229477 
L 220.8 187.748571 
L 222.683544 190.381313 
L 224.567089 192.982293 
L 226.450633 195.227777 
L 228.334177 196.427203 
L 230.217722 196.563144 
L 232.101266 196.558547 
L 233.98481 197.361266 
L 235.868354 198.898994 
L 237.751899 200.266129 
L 239.635443 200.568615 
L 241.518987 200.279288 
L 243.402532 200.424394 
L 245.286076 201.223628 
L 247.16962 202.304182 
L 249.053165 203.579645 
L 250.936709 204.850954 
L 252.820253 206.022347 
L 254.703797 206.746621 
L 256.587342 207.006858 
L 258.470886 207.407482 
L 260.35443 208.32447 
L 262.237975 209.33374 
L 264.121519 210.124345 
L 266.005063 210.37595 
L 267.888608 210.286389 
L 269.772152 210.446905 
L 271.655696 210.680835 
L 273.539241 209.914934 
L 275.422785 208.290472 
L 277.306329 207.001234 
L 279.189873 206.319693 
L 281.073418 205.900962 
L 282.956962 206.022228 
L 284.840506 207.252314 
L 286.724051 210.074974 
L 288.607595 214.406583 
L 290.491139 218.982113 
L 292.374684 223.036056 
L 294.258228 226.415423 
L 296.141772 229.44524 
L 298.025316 233.049124 
L 299.908861 236.909112 
L 301.792405 239.94713 
L 303.675949 241.831725 
" style="fill:none;stroke:#2ca02c;stroke-linecap:square;stroke-width:1.5;"/>
   </g>
   <g id="line2d_58">
    <path clip-path="url(#pf759cc1837)" d="M 185.012658 319.060831 
L 186.896203 318.866119 
L 188.779747 318.219487 
L 190.663291 316.696875 
L 192.546835 313.711623 
L 194.43038 309.468164 
L 196.313924 304.533923 
L 198.197468 299.307249 
L 200.081013 294.93236 
L 201.964557 292.461056 
L 203.848101 291.044829 
L 205.731646 289.489305 
L 207.61519 287.721373 
L 209.498734 285.972882 
L 211.382278 284.528804 
L 213.265823 283.48719 
L 215.149367 282.560779 
L 217.032911 280.805113 
L 218.916456 276.996759 
L 220.8 270.96388 
L 222.683544 263.686609 
L 224.567089 256.45043 
L 226.450633 250.502927 
L 228.334177 246.504585 
L 230.217722 243.006723 
L 232.101266 238.432938 
L 233.98481 233.573518 
L 235.868354 229.144952 
L 237.751899 224.442329 
L 239.635443 219.4413 
L 241.518987 214.933707 
L 243.402532 210.713251 
L 245.286076 205.304346 
L 247.16962 198.59305 
L 249.053165 191.88189 
L 250.936709 186.290375 
L 252.820253 182.727981 
L 254.703797 181.272215 
L 256.587342 180.231967 
L 258.470886 178.342802 
L 260.35443 176.357772 
L 262.237975 174.199038 
L 264.121519 171.676151 
L 266.005063 168.972422 
L 267.888608 166.36118 
L 269.772152 164.082349 
L 271.655696 161.724067 
L 273.539241 158.470255 
L 275.422785 155.119085 
L 277.306329 152.717654 
L 279.189873 150.982593 
L 281.073418 149.671025 
L 282.956962 149.686922 
L 284.840506 151.180248 
L 286.724051 153.70722 
L 288.607595 157.388504 
L 290.491139 161.64422 
L 292.374684 166.130481 
L 294.258228 170.596014 
L 296.141772 174.95089 
L 298.025316 180.342235 
L 299.908861 186.56302 
L 301.792405 191.636369 
L 303.675949 194.637952 
" style="fill:none;stroke:#d62728;stroke-linecap:square;stroke-width:1.5;"/>
   </g>
   <g id="line2d_59">
    <path clip-path="url(#pf759cc1837)" d="M 185.012658 337.768361 
L 186.896203 337.336991 
L 188.779747 336.266521 
L 190.663291 334.340306 
L 192.546835 331.184033 
L 194.43038 326.824682 
L 196.313924 321.720609 
L 198.197468 316.37677 
L 200.081013 311.645054 
L 201.964557 307.948946 
L 203.848101 304.500947 
L 205.731646 300.676029 
L 207.61519 296.619237 
L 209.498734 292.643798 
L 211.382278 289.040391 
L 213.265823 285.705254 
L 215.149367 282.429012 
L 217.032911 278.561215 
L 218.916456 273.079524 
L 220.8 265.901318 
L 222.683544 257.784168 
L 224.567089 249.632621 
L 226.450633 242.403633 
L 228.334177 236.984112 
L 230.217722 232.531041 
L 232.101266 227.737146 
L 233.98481 222.885826 
L 235.868354 218.100193 
L 237.751899 212.575687 
L 239.635443 206.447542 
L 241.518987 200.899888 
L 243.402532 196.222857 
L 245.286076 190.740935 
L 247.16962 183.989763 
L 249.053165 176.857496 
L 250.936709 170.039264 
L 252.820253 164.964248 
L 254.703797 162.915878 
L 256.587342 161.536899 
L 258.470886 158.578291 
L 260.35443 155.446324 
L 262.237975 152.568448 
L 264.121519 149.582594 
L 266.005063 146.37616 
L 267.888608 143.070855 
L 269.772152 140.318879 
L 271.655696 138.367884 
L 273.539241 136.293649 
L 275.422785 134.384321 
L 277.306329 133.75382 
L 279.189873 133.847779 
L 281.073418 133.670526 
L 282.956962 134.325062 
L 284.840506 135.886637 
L 286.724051 137.5001 
L 288.607595 140.265734 
L 290.491139 144.187326 
L 292.374684 148.748014 
L 294.258228 153.652304 
L 296.141772 158.528976 
L 298.025316 164.455444 
L 299.908861 171.746697 
L 301.792405 178.194915 
L 303.675949 182.119447 
" style="fill:none;stroke:#9467bd;stroke-linecap:square;stroke-width:1.5;"/>
   </g>
   <g id="line2d_60">
    <path clip-path="url(#pf759cc1837)" d="M 185.012658 274.42963 
L 186.896203 275.791985 
L 188.779747 277.238204 
L 190.663291 278.084001 
L 192.546835 278.638431 
L 194.43038 279.339314 
L 196.313924 279.83065 
L 198.197468 280.767127 
L 200.081013 282.173234 
L 201.964557 283.220488 
L 203.848101 283.542597 
L 205.731646 283.538394 
L 207.61519 283.343431 
L 209.498734 282.842917 
L 211.382278 282.037758 
L 213.265823 280.73208 
L 215.149367 279.08309 
L 217.032911 277.860247 
L 218.916456 277.26798 
L 220.8 276.749607 
L 222.683544 276.128874 
L 224.567089 275.76509 
L 226.450633 275.622215 
L 228.334177 275.647242 
L 230.217722 275.860157 
L 232.101266 276.0471 
L 233.98481 275.907689 
L 235.868354 275.348584 
L 237.751899 273.725162 
L 239.635443 270.731117 
L 241.518987 267.155575 
L 243.402532 264.632145 
L 245.286076 262.795442 
L 247.16962 260.6478 
L 249.053165 258.077553 
L 250.936709 255.274107 
L 252.820253 253.675079 
L 254.703797 254.337127 
L 256.587342 254.498739 
L 258.470886 252.830571 
L 260.35443 251.034863 
L 262.237975 249.311234 
L 264.121519 247.801079 
L 266.005063 246.835733 
L 267.888608 245.851985 
L 269.772152 245.231935 
L 271.655696 245.713735 
L 273.539241 246.601772 
L 275.422785 247.614272 
L 277.306329 248.998045 
L 279.189873 250.321252 
L 281.073418 250.770643 
L 282.956962 250.593469 
L 284.840506 250.155025 
L 286.724051 249.697021 
L 288.607595 249.664517 
L 290.491139 249.73056 
L 292.374684 249.641169 
L 294.258228 249.957521 
L 296.141772 250.488811 
L 298.025316 250.437509 
L 299.908861 249.724011 
L 301.792405 248.682173 
L 303.675949 247.624265 
" style="fill:none;stroke:#8c564b;stroke-linecap:square;stroke-width:1.5;"/>
   </g>
   <g id="line2d_61">
    <path clip-path="url(#pf759cc1837)" d="M 185.012658 351.53393 
L 186.896203 352.039799 
L 188.779747 352.312307 
L 190.663291 352.2976 
L 192.546835 352.204133 
L 194.43038 352.043543 
L 196.313924 351.781159 
L 198.197468 351.645516 
L 200.081013 351.793059 
L 201.964557 351.857997 
L 203.848101 351.496067 
L 205.731646 351.071727 
L 207.61519 350.80096 
L 209.498734 350.440204 
L 211.382278 349.920649 
L 213.265823 349.100064 
L 215.149367 348.056084 
L 217.032911 347.156101 
L 218.916456 346.366033 
L 220.8 345.415722 
L 222.683544 344.388955 
L 224.567089 343.450129 
L 226.450633 342.668401 
L 228.334177 342.146579 
L 230.217722 341.69408 
L 232.101266 341.069107 
L 233.98481 340.31191 
L 235.868354 339.46037 
L 237.751899 338.302731 
L 239.635443 336.851258 
L 241.518987 335.48722 
L 243.402532 334.626495 
L 245.286076 333.763046 
L 247.16962 332.481675 
L 249.053165 331.008167 
L 250.936709 329.502275 
L 252.820253 328.343455 
L 254.703797 327.888256 
L 256.587342 327.168912 
L 258.470886 325.832046 
L 260.35443 324.476039 
L 262.237975 322.948844 
L 264.121519 321.344487 
L 266.005063 319.773988 
L 267.888608 318.044562 
L 269.772152 316.521233 
L 271.655696 315.439125 
L 273.539241 314.341592 
L 275.422785 313.185218 
L 277.306329 312.149988 
L 279.189873 311.317356 
L 281.073418 310.559419 
L 282.956962 309.351353 
L 284.840506 307.346795 
L 286.724051 305.043976 
L 288.607595 302.754959 
L 290.491139 300.173241 
L 292.374684 297.261437 
L 294.258228 294.64694 
L 296.141772 292.164277 
L 298.025316 288.508406 
L 299.908861 283.486476 
L 301.792405 278.209671 
L 303.675949 274.112092 
" style="fill:none;stroke:#e377c2;stroke-linecap:square;stroke-width:1.5;"/>
   </g>
   <g id="line2d_62">
    <path clip-path="url(#pf759cc1837)" d="M 185.012658 360.513041 
L 186.896203 361.067322 
L 188.779747 361.470198 
L 190.663291 361.657569 
L 192.546835 361.872215 
L 194.43038 362.143316 
L 196.313924 362.369597 
L 198.197468 362.625353 
L 200.081013 362.987065 
L 201.964557 363.206572 
L 203.848101 363.030226 
L 205.731646 362.716991 
L 207.61519 362.494312 
L 209.498734 362.237332 
L 211.382278 361.889184 
L 213.265823 361.276035 
L 215.149367 360.443454 
L 217.032911 359.720459 
L 218.916456 359.060308 
L 220.8 358.259569 
L 222.683544 357.4135 
L 224.567089 356.571896 
L 226.450633 355.717884 
L 228.334177 354.983793 
L 230.217722 354.391022 
L 232.101266 353.847281 
L 233.98481 353.215689 
L 235.868354 352.457347 
L 237.751899 351.593709 
L 239.635443 350.718076 
L 241.518987 349.947912 
L 243.402532 349.409176 
L 245.286076 348.743053 
L 247.16962 347.833901 
L 249.053165 346.886167 
L 250.936709 345.835115 
L 252.820253 344.930867 
L 254.703797 344.503108 
L 256.587342 343.922367 
L 258.470886 342.968626 
L 260.35443 342.043439 
L 262.237975 341.034672 
L 264.121519 340.126511 
L 266.005063 339.350474 
L 267.888608 338.445533 
L 269.772152 337.626999 
L 271.655696 337.125344 
L 273.539241 336.721825 
L 275.422785 336.338275 
L 277.306329 335.938822 
L 279.189873 335.571335 
L 281.073418 335.161187 
L 282.956962 334.203424 
L 284.840506 332.476701 
L 286.724051 330.500008 
L 288.607595 328.590869 
L 290.491139 326.613734 
L 292.374684 324.536352 
L 294.258228 322.723223 
L 296.141772 321.148307 
L 298.025316 318.774321 
L 299.908861 314.964786 
L 301.792405 310.42077 
L 303.675949 306.71766 
" style="fill:none;stroke:#7f7f7f;stroke-linecap:square;stroke-width:1.5;"/>
   </g>
   <g id="line2d_63">
    <path clip-path="url(#pf759cc1837)" d="M 185.012658 376.299415 
L 186.896203 376.31092 
L 188.779747 376.205777 
L 190.663291 376.04637 
L 192.546835 375.946253 
L 194.43038 375.930142 
L 196.313924 375.974413 
L 198.197468 376.036496 
L 200.081013 376.081166 
L 201.964557 376.066463 
L 203.848101 375.897134 
L 205.731646 375.631227 
L 207.61519 375.326478 
L 209.498734 374.963403 
L 211.382278 374.630155 
L 213.265823 374.299066 
L 215.149367 373.918988 
L 217.032911 373.589173 
L 218.916456 373.306745 
L 220.8 372.979554 
L 222.683544 372.615814 
L 224.567089 372.156226 
L 226.450633 371.586497 
L 228.334177 371.044496 
L 230.217722 370.553582 
L 232.101266 370.077714 
L 233.98481 369.586159 
L 235.868354 369.043307 
L 237.751899 368.471519 
L 239.635443 367.891191 
L 241.518987 367.371043 
L 243.402532 367.067704 
L 245.286076 366.787632 
L 247.16962 366.414819 
L 249.053165 366.022348 
L 250.936709 365.601587 
L 252.820253 365.271718 
L 254.703797 365.059463 
L 256.587342 364.614151 
L 258.470886 363.945424 
L 260.35443 363.233849 
L 262.237975 362.447928 
L 264.121519 361.661086 
L 266.005063 360.973599 
L 267.888608 360.378874 
L 269.772152 359.879975 
L 271.655696 359.510105 
L 273.539241 359.189327 
L 275.422785 358.842831 
L 277.306329 358.459977 
L 279.189873 358.033696 
L 281.073418 357.533952 
L 282.956962 356.744024 
L 284.840506 355.520788 
L 286.724051 354.234939 
L 288.607595 353.230547 
L 290.491139 352.356359 
L 292.374684 351.212791 
L 294.258228 349.965185 
L 296.141772 348.810403 
L 298.025316 347.188176 
L 299.908861 344.662564 
L 301.792405 341.540758 
L 303.675949 338.858805 
" style="fill:none;stroke:#bcbd22;stroke-linecap:square;stroke-width:1.5;"/>
   </g>
   <g id="patch_3">
    <path d="M 72 384.48 
L 72 51.84 
" style="fill:none;stroke:#000000;stroke-linecap:square;stroke-linejoin:miter;stroke-width:0.8;"/>
   </g>
   <g id="patch_4">
    <path d="M 518.4 384.48 
L 518.4 51.84 
" style="fill:none;stroke:#000000;stroke-linecap:square;stroke-linejoin:miter;stroke-width:0.8;"/>
   </g>
   <g id="patch_5">
    <path d="M 72 384.48 
L 518.4 384.48 
" style="fill:none;stroke:#000000;stroke-linecap:square;stroke-linejoin:miter;stroke-width:0.8;"/>
   </g>
   <g id="patch_6">
    <path d="M 72 51.84 
L 518.4 51.84 
" style="fill:none;stroke:#000000;stroke-linecap:square;stroke-linejoin:miter;stroke-width:0.8;"/>
   </g>
   <g id="text_30">
    <!-- Second dose weekly increase by age group -->
    <g transform="translate(165.147188 45.84)scale(0.12 -0.12)">
     <defs>
      <path d="M 2906 2969 
L 2906 4863 
L 3481 4863 
L 3481 0 
L 2906 0 
L 2906 525 
Q 2725 213 2448 61 
Q 2172 -91 1784 -91 
Q 1150 -91 751 415 
Q 353 922 353 1747 
Q 353 2572 751 3078 
Q 1150 3584 1784 3584 
Q 2172 3584 2448 3432 
Q 2725 3281 2906 2969 
z
M 947 1747 
Q 947 1113 1208 752 
Q 1469 391 1925 391 
Q 2381 391 2643 752 
Q 2906 1113 2906 1747 
Q 2906 2381 2643 2742 
Q 2381 3103 1925 3103 
Q 1469 3103 1208 2742 
Q 947 2381 947 1747 
z
" id="DejaVuSans-64" transform="scale(0.015625)"/>
      <path d="M 2834 3397 
L 2834 2853 
Q 2591 2978 2328 3040 
Q 2066 3103 1784 3103 
Q 1356 3103 1142 2972 
Q 928 2841 928 2578 
Q 928 2378 1081 2264 
Q 1234 2150 1697 2047 
L 1894 2003 
Q 2506 1872 2764 1633 
Q 3022 1394 3022 966 
Q 3022 478 2636 193 
Q 2250 -91 1575 -91 
Q 1294 -91 989 -36 
Q 684 19 347 128 
L 347 722 
Q 666 556 975 473 
Q 1284 391 1588 391 
Q 1994 391 2212 530 
Q 2431 669 2431 922 
Q 2431 1156 2273 1281 
Q 2116 1406 1581 1522 
L 1381 1569 
Q 847 1681 609 1914 
Q 372 2147 372 2553 
Q 372 3047 722 3315 
Q 1072 3584 1716 3584 
Q 2034 3584 2315 3537 
Q 2597 3491 2834 3397 
z
" id="DejaVuSans-73" transform="scale(0.015625)"/>
      <path d="M 2059 -325 
Q 1816 -950 1584 -1140 
Q 1353 -1331 966 -1331 
L 506 -1331 
L 506 -850 
L 844 -850 
Q 1081 -850 1212 -737 
Q 1344 -625 1503 -206 
L 1606 56 
L 191 3500 
L 800 3500 
L 1894 763 
L 2988 3500 
L 3597 3500 
L 2059 -325 
z
" id="DejaVuSans-79" transform="scale(0.015625)"/>
      <path d="M 3116 1747 
Q 3116 2381 2855 2742 
Q 2594 3103 2138 3103 
Q 1681 3103 1420 2742 
Q 1159 2381 1159 1747 
Q 1159 1113 1420 752 
Q 1681 391 2138 391 
Q 2594 391 2855 752 
Q 3116 1113 3116 1747 
z
M 1159 2969 
Q 1341 3281 1617 3432 
Q 1894 3584 2278 3584 
Q 2916 3584 3314 3078 
Q 3713 2572 3713 1747 
Q 3713 922 3314 415 
Q 2916 -91 2278 -91 
Q 1894 -91 1617 61 
Q 1341 213 1159 525 
L 1159 0 
L 581 0 
L 581 4863 
L 1159 4863 
L 1159 2969 
z
" id="DejaVuSans-62" transform="scale(0.015625)"/>
     </defs>
     <use xlink:href="#DejaVuSans-53"/>
     <use x="63.476562" xlink:href="#DejaVuSans-65"/>
     <use x="125" xlink:href="#DejaVuSans-63"/>
     <use x="179.980469" xlink:href="#DejaVuSans-6f"/>
     <use x="241.162109" xlink:href="#DejaVuSans-6e"/>
     <use x="304.541016" xlink:href="#DejaVuSans-64"/>
     <use x="368.017578" xlink:href="#DejaVuSans-20"/>
     <use x="399.804688" xlink:href="#DejaVuSans-64"/>
     <use x="463.28125" xlink:href="#DejaVuSans-6f"/>
     <use x="524.462891" xlink:href="#DejaVuSans-73"/>
     <use x="576.5625" xlink:href="#DejaVuSans-65"/>
     <use x="638.085938" xlink:href="#DejaVuSans-20"/>
     <use x="669.873047" xlink:href="#DejaVuSans-77"/>
     <use x="751.660156" xlink:href="#DejaVuSans-65"/>
     <use x="813.183594" xlink:href="#DejaVuSans-65"/>
     <use x="874.707031" xlink:href="#DejaVuSans-6b"/>
     <use x="932.617188" xlink:href="#DejaVuSans-6c"/>
     <use x="960.400391" xlink:href="#DejaVuSans-79"/>
     <use x="1019.580078" xlink:href="#DejaVuSans-20"/>
     <use x="1051.367188" xlink:href="#DejaVuSans-69"/>
     <use x="1079.150391" xlink:href="#DejaVuSans-6e"/>
     <use x="1142.529297" xlink:href="#DejaVuSans-63"/>
     <use x="1197.509766" xlink:href="#DejaVuSans-72"/>
     <use x="1236.373047" xlink:href="#DejaVuSans-65"/>
     <use x="1297.896484" xlink:href="#DejaVuSans-61"/>
     <use x="1359.175781" xlink:href="#DejaVuSans-73"/>
     <use x="1411.275391" xlink:href="#DejaVuSans-65"/>
     <use x="1472.798828" xlink:href="#DejaVuSans-20"/>
     <use x="1504.585938" xlink:href="#DejaVuSans-62"/>
     <use x="1568.0625" xlink:href="#DejaVuSans-79"/>
     <use x="1627.242188" xlink:href="#DejaVuSans-20"/>
     <use x="1659.029297" xlink:href="#DejaVuSans-61"/>
     <use x="1720.308594" xlink:href="#DejaVuSans-67"/>
     <use x="1783.785156" xlink:href="#DejaVuSans-65"/>
     <use x="1845.308594" xlink:href="#DejaVuSans-20"/>
     <use x="1877.095703" xlink:href="#DejaVuSans-67"/>
     <use x="1940.572266" xlink:href="#DejaVuSans-72"/>
     <use x="1979.435547" xlink:href="#DejaVuSans-6f"/>
     <use x="2040.617188" xlink:href="#DejaVuSans-75"/>
     <use x="2103.996094" xlink:href="#DejaVuSans-70"/>
    </g>
   </g>
   <g id="legend_1">
    <g id="patch_7">
     <path d="M 368.65125 177.932812 
L 512.1 177.932812 
Q 513.9 177.932812 513.9 176.132812 
L 513.9 58.14 
Q 513.9 56.34 512.1 56.34 
L 368.65125 56.34 
Q 366.85125 56.34 366.85125 58.14 
L 366.85125 176.132812 
Q 366.85125 177.932812 368.65125 177.932812 
z
" style="fill:#ffffff;opacity:0.8;stroke:#cccccc;stroke-linejoin:miter;"/>
    </g>
    <g id="line2d_64">
     <path d="M 370.45125 63.628594 
L 388.45125 63.628594 
" style="fill:none;stroke:#1f77b4;stroke-linecap:square;stroke-width:1.5;"/>
    </g>
    <g id="line2d_65"/>
    <g id="text_31">
     <!-- Ages 90+ (3.2 %/week) -->
     <g transform="translate(395.65125 66.778594)scale(0.09 -0.09)">
      <defs>
       <path d="M 2944 4013 
L 2944 2272 
L 4684 2272 
L 4684 1741 
L 2944 1741 
L 2944 0 
L 2419 0 
L 2419 1741 
L 678 1741 
L 678 2272 
L 2419 2272 
L 2419 4013 
L 2944 4013 
z
" id="DejaVuSans-2b" transform="scale(0.015625)"/>
       <path d="M 684 794 
L 1344 794 
L 1344 0 
L 684 0 
L 684 794 
z
" id="DejaVuSans-2e" transform="scale(0.015625)"/>
      </defs>
      <use xlink:href="#DejaVuSans-41"/>
      <use x="68.408203" xlink:href="#DejaVuSans-67"/>
      <use x="131.884766" xlink:href="#DejaVuSans-65"/>
      <use x="193.408203" xlink:href="#DejaVuSans-73"/>
      <use x="245.507812" xlink:href="#DejaVuSans-20"/>
      <use x="277.294922" xlink:href="#DejaVuSans-39"/>
      <use x="340.917969" xlink:href="#DejaVuSans-30"/>
      <use x="404.541016" xlink:href="#DejaVuSans-2b"/>
      <use x="488.330078" xlink:href="#DejaVuSans-20"/>
      <use x="520.117188" xlink:href="#DejaVuSans-28"/>
      <use x="559.130859" xlink:href="#DejaVuSans-33"/>
      <use x="622.753906" xlink:href="#DejaVuSans-2e"/>
      <use x="654.541016" xlink:href="#DejaVuSans-32"/>
      <use x="718.164062" xlink:href="#DejaVuSans-20"/>
      <use x="749.951172" xlink:href="#DejaVuSans-25"/>
      <use x="844.970703" xlink:href="#DejaVuSans-2f"/>
      <use x="878.662109" xlink:href="#DejaVuSans-77"/>
      <use x="960.449219" xlink:href="#DejaVuSans-65"/>
      <use x="1021.972656" xlink:href="#DejaVuSans-65"/>
      <use x="1083.496094" xlink:href="#DejaVuSans-6b"/>
      <use x="1141.40625" xlink:href="#DejaVuSans-29"/>
     </g>
    </g>
    <g id="line2d_66">
     <path d="M 370.45125 76.838906 
L 388.45125 76.838906 
" style="fill:none;stroke:#ff7f0e;stroke-linecap:square;stroke-width:1.5;"/>
    </g>
    <g id="line2d_67"/>
    <g id="text_32">
     <!-- Ages 8089 (3.9 %/week) -->
     <g transform="translate(395.65125 79.988906)scale(0.09 -0.09)">
      <defs>
       <path d="M 313 1978 
L 2888 1978 
L 2888 1528 
L 313 1528 
L 313 1978 
z
" id="DejaVuSans-2013" transform="scale(0.015625)"/>
      </defs>
      <use xlink:href="#DejaVuSans-41"/>
      <use x="68.408203" xlink:href="#DejaVuSans-67"/>
      <use x="131.884766" xlink:href="#DejaVuSans-65"/>
      <use x="193.408203" xlink:href="#DejaVuSans-73"/>
      <use x="245.507812" xlink:href="#DejaVuSans-20"/>
      <use x="277.294922" xlink:href="#DejaVuSans-38"/>
      <use x="340.917969" xlink:href="#DejaVuSans-30"/>
      <use x="404.541016" xlink:href="#DejaVuSans-2013"/>
      <use x="454.541016" xlink:href="#DejaVuSans-38"/>
      <use x="518.164062" xlink:href="#DejaVuSans-39"/>
      <use x="581.787109" xlink:href="#DejaVuSans-20"/>
      <use x="613.574219" xlink:href="#DejaVuSans-28"/>
      <use x="652.587891" xlink:href="#DejaVuSans-33"/>
      <use x="716.210938" xlink:href="#DejaVuSans-2e"/>
      <use x="747.998047" xlink:href="#DejaVuSans-39"/>
      <use x="811.621094" xlink:href="#DejaVuSans-20"/>
      <use x="843.408203" xlink:href="#DejaVuSans-25"/>
      <use x="938.427734" xlink:href="#DejaVuSans-2f"/>
      <use x="972.119141" xlink:href="#DejaVuSans-77"/>
      <use x="1053.90625" xlink:href="#DejaVuSans-65"/>
      <use x="1115.429688" xlink:href="#DejaVuSans-65"/>
      <use x="1176.953125" xlink:href="#DejaVuSans-6b"/>
      <use x="1234.863281" xlink:href="#DejaVuSans-29"/>
     </g>
    </g>
    <g id="line2d_68">
     <path d="M 370.45125 90.049219 
L 388.45125 90.049219 
" style="fill:none;stroke:#2ca02c;stroke-linecap:square;stroke-width:1.5;"/>
    </g>
    <g id="line2d_69"/>
    <g id="text_33">
     <!-- Ages 7079 (4.3 %/week) -->
     <g transform="translate(395.65125 93.199219)scale(0.09 -0.09)">
      <use xlink:href="#DejaVuSans-41"/>
      <use x="68.408203" xlink:href="#DejaVuSans-67"/>
      <use x="131.884766" xlink:href="#DejaVuSans-65"/>
      <use x="193.408203" xlink:href="#DejaVuSans-73"/>
      <use x="245.507812" xlink:href="#DejaVuSans-20"/>
      <use x="277.294922" xlink:href="#DejaVuSans-37"/>
      <use x="340.917969" xlink:href="#DejaVuSans-30"/>
      <use x="404.541016" xlink:href="#DejaVuSans-2013"/>
      <use x="454.541016" xlink:href="#DejaVuSans-37"/>
      <use x="518.164062" xlink:href="#DejaVuSans-39"/>
      <use x="581.787109" xlink:href="#DejaVuSans-20"/>
      <use x="613.574219" xlink:href="#DejaVuSans-28"/>
      <use x="652.587891" xlink:href="#DejaVuSans-34"/>
      <use x="716.210938" xlink:href="#DejaVuSans-2e"/>
      <use x="747.998047" xlink:href="#DejaVuSans-33"/>
      <use x="811.621094" xlink:href="#DejaVuSans-20"/>
      <use x="843.408203" xlink:href="#DejaVuSans-25"/>
      <use x="938.427734" xlink:href="#DejaVuSans-2f"/>
      <use x="972.119141" xlink:href="#DejaVuSans-77"/>
      <use x="1053.90625" xlink:href="#DejaVuSans-65"/>
      <use x="1115.429688" xlink:href="#DejaVuSans-65"/>
      <use x="1176.953125" xlink:href="#DejaVuSans-6b"/>
      <use x="1234.863281" xlink:href="#DejaVuSans-29"/>
     </g>
    </g>
    <g id="line2d_70">
     <path d="M 370.45125 103.259531 
L 388.45125 103.259531 
" style="fill:none;stroke:#d62728;stroke-linecap:square;stroke-width:1.5;"/>
    </g>
    <g id="line2d_71"/>
    <g id="text_34">
     <!-- Ages 6069 (5.7 %/week) -->
     <g transform="translate(395.65125 106.409531)scale(0.09 -0.09)">
      <use xlink:href="#DejaVuSans-41"/>
      <use x="68.408203" xlink:href="#DejaVuSans-67"/>
      <use x="131.884766" xlink:href="#DejaVuSans-65"/>
      <use x="193.408203" xlink:href="#DejaVuSans-73"/>
      <use x="245.507812" xlink:href="#DejaVuSans-20"/>
      <use x="277.294922" xlink:href="#DejaVuSans-36"/>
      <use x="340.917969" xlink:href="#DejaVuSans-30"/>
      <use x="404.541016" xlink:href="#DejaVuSans-2013"/>
      <use x="454.541016" xlink:href="#DejaVuSans-36"/>
      <use x="518.164062" xlink:href="#DejaVuSans-39"/>
      <use x="581.787109" xlink:href="#DejaVuSans-20"/>
      <use x="613.574219" xlink:href="#DejaVuSans-28"/>
      <use x="652.587891" xlink:href="#DejaVuSans-35"/>
      <use x="716.210938" xlink:href="#DejaVuSans-2e"/>
      <use x="747.998047" xlink:href="#DejaVuSans-37"/>
      <use x="811.621094" xlink:href="#DejaVuSans-20"/>
      <use x="843.408203" xlink:href="#DejaVuSans-25"/>
      <use x="938.427734" xlink:href="#DejaVuSans-2f"/>
      <use x="972.119141" xlink:href="#DejaVuSans-77"/>
      <use x="1053.90625" xlink:href="#DejaVuSans-65"/>
      <use x="1115.429688" xlink:href="#DejaVuSans-65"/>
      <use x="1176.953125" xlink:href="#DejaVuSans-6b"/>
      <use x="1234.863281" xlink:href="#DejaVuSans-29"/>
     </g>
    </g>
    <g id="line2d_72">
     <path d="M 370.45125 116.469844 
L 388.45125 116.469844 
" style="fill:none;stroke:#9467bd;stroke-linecap:square;stroke-width:1.5;"/>
    </g>
    <g id="line2d_73"/>
    <g id="text_35">
     <!-- Ages 5059 (6.1 %/week) -->
     <g transform="translate(395.65125 119.619844)scale(0.09 -0.09)">
      <use xlink:href="#DejaVuSans-41"/>
      <use x="68.408203" xlink:href="#DejaVuSans-67"/>
      <use x="131.884766" xlink:href="#DejaVuSans-65"/>
      <use x="193.408203" xlink:href="#DejaVuSans-73"/>
      <use x="245.507812" xlink:href="#DejaVuSans-20"/>
      <use x="277.294922" xlink:href="#DejaVuSans-35"/>
      <use x="340.917969" xlink:href="#DejaVuSans-30"/>
      <use x="404.541016" xlink:href="#DejaVuSans-2013"/>
      <use x="454.541016" xlink:href="#DejaVuSans-35"/>
      <use x="518.164062" xlink:href="#DejaVuSans-39"/>
      <use x="581.787109" xlink:href="#DejaVuSans-20"/>
      <use x="613.574219" xlink:href="#DejaVuSans-28"/>
      <use x="652.587891" xlink:href="#DejaVuSans-36"/>
      <use x="716.210938" xlink:href="#DejaVuSans-2e"/>
      <use x="747.998047" xlink:href="#DejaVuSans-31"/>
      <use x="811.621094" xlink:href="#DejaVuSans-20"/>
      <use x="843.408203" xlink:href="#DejaVuSans-25"/>
      <use x="938.427734" xlink:href="#DejaVuSans-2f"/>
      <use x="972.119141" xlink:href="#DejaVuSans-77"/>
      <use x="1053.90625" xlink:href="#DejaVuSans-65"/>
      <use x="1115.429688" xlink:href="#DejaVuSans-65"/>
      <use x="1176.953125" xlink:href="#DejaVuSans-6b"/>
      <use x="1234.863281" xlink:href="#DejaVuSans-29"/>
     </g>
    </g>
    <g id="line2d_74">
     <path d="M 370.45125 129.680156 
L 388.45125 129.680156 
" style="fill:none;stroke:#8c564b;stroke-linecap:square;stroke-width:1.5;"/>
    </g>
    <g id="line2d_75"/>
    <g id="text_36">
     <!-- Ages 4049 (4.1 %/week) -->
     <g transform="translate(395.65125 132.830156)scale(0.09 -0.09)">
      <use xlink:href="#DejaVuSans-41"/>
      <use x="68.408203" xlink:href="#DejaVuSans-67"/>
      <use x="131.884766" xlink:href="#DejaVuSans-65"/>
      <use x="193.408203" xlink:href="#DejaVuSans-73"/>
      <use x="245.507812" xlink:href="#DejaVuSans-20"/>
      <use x="277.294922" xlink:href="#DejaVuSans-34"/>
      <use x="340.917969" xlink:href="#DejaVuSans-30"/>
      <use x="404.541016" xlink:href="#DejaVuSans-2013"/>
      <use x="454.541016" xlink:href="#DejaVuSans-34"/>
      <use x="518.164062" xlink:href="#DejaVuSans-39"/>
      <use x="581.787109" xlink:href="#DejaVuSans-20"/>
      <use x="613.574219" xlink:href="#DejaVuSans-28"/>
      <use x="652.587891" xlink:href="#DejaVuSans-34"/>
      <use x="716.210938" xlink:href="#DejaVuSans-2e"/>
      <use x="747.998047" xlink:href="#DejaVuSans-31"/>
      <use x="811.621094" xlink:href="#DejaVuSans-20"/>
      <use x="843.408203" xlink:href="#DejaVuSans-25"/>
      <use x="938.427734" xlink:href="#DejaVuSans-2f"/>
      <use x="972.119141" xlink:href="#DejaVuSans-77"/>
      <use x="1053.90625" xlink:href="#DejaVuSans-65"/>
      <use x="1115.429688" xlink:href="#DejaVuSans-65"/>
      <use x="1176.953125" xlink:href="#DejaVuSans-6b"/>
      <use x="1234.863281" xlink:href="#DejaVuSans-29"/>
     </g>
    </g>
    <g id="line2d_76">
     <path d="M 370.45125 142.890469 
L 388.45125 142.890469 
" style="fill:none;stroke:#e377c2;stroke-linecap:square;stroke-width:1.5;"/>
    </g>
    <g id="line2d_77"/>
    <g id="text_37">
     <!-- Ages 3039 (3.3 %/week) -->
     <g transform="translate(395.65125 146.040469)scale(0.09 -0.09)">
      <use xlink:href="#DejaVuSans-41"/>
      <use x="68.408203" xlink:href="#DejaVuSans-67"/>
      <use x="131.884766" xlink:href="#DejaVuSans-65"/>
      <use x="193.408203" xlink:href="#DejaVuSans-73"/>
      <use x="245.507812" xlink:href="#DejaVuSans-20"/>
      <use x="277.294922" xlink:href="#DejaVuSans-33"/>
      <use x="340.917969" xlink:href="#DejaVuSans-30"/>
      <use x="404.541016" xlink:href="#DejaVuSans-2013"/>
      <use x="454.541016" xlink:href="#DejaVuSans-33"/>
      <use x="518.164062" xlink:href="#DejaVuSans-39"/>
      <use x="581.787109" xlink:href="#DejaVuSans-20"/>
      <use x="613.574219" xlink:href="#DejaVuSans-28"/>
      <use x="652.587891" xlink:href="#DejaVuSans-33"/>
      <use x="716.210938" xlink:href="#DejaVuSans-2e"/>
      <use x="747.998047" xlink:href="#DejaVuSans-33"/>
      <use x="811.621094" xlink:href="#DejaVuSans-20"/>
      <use x="843.408203" xlink:href="#DejaVuSans-25"/>
      <use x="938.427734" xlink:href="#DejaVuSans-2f"/>
      <use x="972.119141" xlink:href="#DejaVuSans-77"/>
      <use x="1053.90625" xlink:href="#DejaVuSans-65"/>
      <use x="1115.429688" xlink:href="#DejaVuSans-65"/>
      <use x="1176.953125" xlink:href="#DejaVuSans-6b"/>
      <use x="1234.863281" xlink:href="#DejaVuSans-29"/>
     </g>
    </g>
    <g id="line2d_78">
     <path d="M 370.45125 156.100781 
L 388.45125 156.100781 
" style="fill:none;stroke:#7f7f7f;stroke-linecap:square;stroke-width:1.5;"/>
    </g>
    <g id="line2d_79"/>
    <g id="text_38">
     <!-- Ages 2029 (2.3 %/week) -->
     <g transform="translate(395.65125 159.250781)scale(0.09 -0.09)">
      <use xlink:href="#DejaVuSans-41"/>
      <use x="68.408203" xlink:href="#DejaVuSans-67"/>
      <use x="131.884766" xlink:href="#DejaVuSans-65"/>
      <use x="193.408203" xlink:href="#DejaVuSans-73"/>
      <use x="245.507812" xlink:href="#DejaVuSans-20"/>
      <use x="277.294922" xlink:href="#DejaVuSans-32"/>
      <use x="340.917969" xlink:href="#DejaVuSans-30"/>
      <use x="404.541016" xlink:href="#DejaVuSans-2013"/>
      <use x="454.541016" xlink:href="#DejaVuSans-32"/>
      <use x="518.164062" xlink:href="#DejaVuSans-39"/>
      <use x="581.787109" xlink:href="#DejaVuSans-20"/>
      <use x="613.574219" xlink:href="#DejaVuSans-28"/>
      <use x="652.587891" xlink:href="#DejaVuSans-32"/>
      <use x="716.210938" xlink:href="#DejaVuSans-2e"/>
      <use x="747.998047" xlink:href="#DejaVuSans-33"/>
      <use x="811.621094" xlink:href="#DejaVuSans-20"/>
      <use x="843.408203" xlink:href="#DejaVuSans-25"/>
      <use x="938.427734" xlink:href="#DejaVuSans-2f"/>
      <use x="972.119141" xlink:href="#DejaVuSans-77"/>
      <use x="1053.90625" xlink:href="#DejaVuSans-65"/>
      <use x="1115.429688" xlink:href="#DejaVuSans-65"/>
      <use x="1176.953125" xlink:href="#DejaVuSans-6b"/>
      <use x="1234.863281" xlink:href="#DejaVuSans-29"/>
     </g>
    </g>
    <g id="line2d_80">
     <path d="M 370.45125 169.311094 
L 388.45125 169.311094 
" style="fill:none;stroke:#bcbd22;stroke-linecap:square;stroke-width:1.5;"/>
    </g>
    <g id="line2d_81"/>
    <g id="text_39">
     <!-- Ages 1619 (1.4 %/week) -->
     <g transform="translate(395.65125 172.461094)scale(0.09 -0.09)">
      <use xlink:href="#DejaVuSans-41"/>
      <use x="68.408203" xlink:href="#DejaVuSans-67"/>
      <use x="131.884766" xlink:href="#DejaVuSans-65"/>
      <use x="193.408203" xlink:href="#DejaVuSans-73"/>
      <use x="245.507812" xlink:href="#DejaVuSans-20"/>
      <use x="277.294922" xlink:href="#DejaVuSans-31"/>
      <use x="340.917969" xlink:href="#DejaVuSans-36"/>
      <use x="404.541016" xlink:href="#DejaVuSans-2013"/>
      <use x="454.541016" xlink:href="#DejaVuSans-31"/>
      <use x="518.164062" xlink:href="#DejaVuSans-39"/>
      <use x="581.787109" xlink:href="#DejaVuSans-20"/>
      <use x="613.574219" xlink:href="#DejaVuSans-28"/>
      <use x="652.587891" xlink:href="#DejaVuSans-31"/>
      <use x="716.210938" xlink:href="#DejaVuSans-2e"/>
      <use x="747.998047" xlink:href="#DejaVuSans-34"/>
      <use x="811.621094" xlink:href="#DejaVuSans-20"/>
      <use x="843.408203" xlink:href="#DejaVuSans-25"/>
      <use x="938.427734" xlink:href="#DejaVuSans-2f"/>
      <use x="972.119141" xlink:href="#DejaVuSans-77"/>
      <use x="1053.90625" xlink:href="#DejaVuSans-65"/>
      <use x="1115.429688" xlink:href="#DejaVuSans-65"/>
      <use x="1176.953125" xlink:href="#DejaVuSans-6b"/>
      <use x="1234.863281" xlink:href="#DejaVuSans-29"/>
     </g>
    </g>
   </g>
  </g>
 </g>
 <defs>
  <clipPath id="pf759cc1837">
   <rect height="332.64" width="446.4" x="72" y="51.84"/>
  </clipPath>
 </defs>
</svg>
