<?xml version="1.0" encoding="utf-8" standalone="no"?>
<!DOCTYPE svg PUBLIC "-//W3C//DTD SVG 1.1//EN"
  "http://www.w3.org/Graphics/SVG/1.1/DTD/svg11.dtd">
<svg height="432pt" version="1.1" viewBox="0 0 576 432" width="576pt" xmlns="http://www.w3.org/2000/svg" xmlns:xlink="http://www.w3.org/1999/xlink">
 <metadata>
  <rdf:RDF xmlns:cc="http://creativecommons.org/ns#" xmlns:dc="http://purl.org/dc/elements/1.1/" xmlns:rdf="http://www.w3.org/1999/02/22-rdf-syntax-ns#">
   <cc:Work>
    <dc:type rdf:resource="http://purl.org/dc/dcmitype/StillImage"/>
    <dc:date>2021-10-28T13:51:24.201827</dc:date>
    <dc:format>image/svg+xml</dc:format>
    <dc:creator>
     <cc:Agent>
      <dc:title>Matplotlib v3.4.3, https://matplotlib.org/</dc:title>
     </cc:Agent>
    </dc:creator>
   </cc:Work>
  </rdf:RDF>
 </metadata>
 <defs>
  <style type="text/css">*{stroke-linecap:butt;stroke-linejoin:round;}</style>
 </defs>
 <g id="figure_1">
  <g id="patch_1">
   <path d="M 0 432 
L 576 432 
L 576 0 
L 0 0 
z
" style="fill:#ffffff;"/>
  </g>
  <g id="axes_1">
   <g id="patch_2">
    <path d="M 72 384.48 
L 518.4 384.48 
L 518.4 51.84 
L 72 51.84 
z
" style="fill:#ffffff;"/>
   </g>
   <g id="matplotlib.axis_1">
    <g id="xtick_1">
     <g id="line2d_1">
      <path clip-path="url(#p9c3660c12a)" d="M 72 384.48 
L 72 51.84 
" style="fill:none;stroke:#000000;stroke-dasharray:0.8,1.32;stroke-dashoffset:0;stroke-opacity:0.5;stroke-width:0.8;"/>
     </g>
     <g id="line2d_2">
      <defs>
       <path d="M 0 0 
L 0 3.5 
" id="m8b0f1a011e" style="stroke:#000000;stroke-width:0.8;"/>
      </defs>
      <g>
       <use style="stroke:#000000;stroke-width:0.8;" x="72" xlink:href="#m8b0f1a011e" y="384.48"/>
      </g>
     </g>
     <g id="text_1">
      <!-- 15 -->
      <g transform="translate(65.6375 399.078438)scale(0.1 -0.1)">
       <defs>
        <path d="M 794 531 
L 1825 531 
L 1825 4091 
L 703 3866 
L 703 4441 
L 1819 4666 
L 2450 4666 
L 2450 531 
L 3481 531 
L 3481 0 
L 794 0 
L 794 531 
z
" id="DejaVuSans-31" transform="scale(0.015625)"/>
        <path d="M 691 4666 
L 3169 4666 
L 3169 4134 
L 1269 4134 
L 1269 2991 
Q 1406 3038 1543 3061 
Q 1681 3084 1819 3084 
Q 2600 3084 3056 2656 
Q 3513 2228 3513 1497 
Q 3513 744 3044 326 
Q 2575 -91 1722 -91 
Q 1428 -91 1123 -41 
Q 819 9 494 109 
L 494 744 
Q 775 591 1075 516 
Q 1375 441 1709 441 
Q 2250 441 2565 725 
Q 2881 1009 2881 1497 
Q 2881 1984 2565 2268 
Q 2250 2553 1709 2553 
Q 1456 2553 1204 2497 
Q 953 2441 691 2322 
L 691 4666 
z
" id="DejaVuSans-35" transform="scale(0.015625)"/>
       </defs>
       <use xlink:href="#DejaVuSans-31"/>
       <use x="63.623047" xlink:href="#DejaVuSans-35"/>
      </g>
     </g>
    </g>
    <g id="xtick_2">
     <g id="line2d_3">
      <path clip-path="url(#p9c3660c12a)" d="M 116.64 384.48 
L 116.64 51.84 
" style="fill:none;stroke:#000000;stroke-dasharray:0.8,1.32;stroke-dashoffset:0;stroke-opacity:0.5;stroke-width:0.8;"/>
     </g>
     <g id="line2d_4">
      <g>
       <use style="stroke:#000000;stroke-width:0.8;" x="116.64" xlink:href="#m8b0f1a011e" y="384.48"/>
      </g>
     </g>
     <g id="text_2">
      <!-- Aug -->
      <g transform="translate(106.876719 399.078438)scale(0.1 -0.1)">
       <defs>
        <path d="M 2188 4044 
L 1331 1722 
L 3047 1722 
L 2188 4044 
z
M 1831 4666 
L 2547 4666 
L 4325 0 
L 3669 0 
L 3244 1197 
L 1141 1197 
L 716 0 
L 50 0 
L 1831 4666 
z
" id="DejaVuSans-41" transform="scale(0.015625)"/>
        <path d="M 544 1381 
L 544 3500 
L 1119 3500 
L 1119 1403 
Q 1119 906 1312 657 
Q 1506 409 1894 409 
Q 2359 409 2629 706 
Q 2900 1003 2900 1516 
L 2900 3500 
L 3475 3500 
L 3475 0 
L 2900 0 
L 2900 538 
Q 2691 219 2414 64 
Q 2138 -91 1772 -91 
Q 1169 -91 856 284 
Q 544 659 544 1381 
z
M 1991 3584 
L 1991 3584 
z
" id="DejaVuSans-75" transform="scale(0.015625)"/>
        <path d="M 2906 1791 
Q 2906 2416 2648 2759 
Q 2391 3103 1925 3103 
Q 1463 3103 1205 2759 
Q 947 2416 947 1791 
Q 947 1169 1205 825 
Q 1463 481 1925 481 
Q 2391 481 2648 825 
Q 2906 1169 2906 1791 
z
M 3481 434 
Q 3481 -459 3084 -895 
Q 2688 -1331 1869 -1331 
Q 1566 -1331 1297 -1286 
Q 1028 -1241 775 -1147 
L 775 -588 
Q 1028 -725 1275 -790 
Q 1522 -856 1778 -856 
Q 2344 -856 2625 -561 
Q 2906 -266 2906 331 
L 2906 616 
Q 2728 306 2450 153 
Q 2172 0 1784 0 
Q 1141 0 747 490 
Q 353 981 353 1791 
Q 353 2603 747 3093 
Q 1141 3584 1784 3584 
Q 2172 3584 2450 3431 
Q 2728 3278 2906 2969 
L 2906 3500 
L 3481 3500 
L 3481 434 
z
" id="DejaVuSans-67" transform="scale(0.015625)"/>
       </defs>
       <use xlink:href="#DejaVuSans-41"/>
       <use x="68.408203" xlink:href="#DejaVuSans-75"/>
       <use x="131.787109" xlink:href="#DejaVuSans-67"/>
      </g>
     </g>
    </g>
    <g id="xtick_3">
     <g id="line2d_5">
      <path clip-path="url(#p9c3660c12a)" d="M 153.402353 384.48 
L 153.402353 51.84 
" style="fill:none;stroke:#000000;stroke-dasharray:0.8,1.32;stroke-dashoffset:0;stroke-opacity:0.5;stroke-width:0.8;"/>
     </g>
     <g id="line2d_6">
      <g>
       <use style="stroke:#000000;stroke-width:0.8;" x="153.402353" xlink:href="#m8b0f1a011e" y="384.48"/>
      </g>
     </g>
     <g id="text_3">
      <!-- 15 -->
      <g transform="translate(147.039853 399.078438)scale(0.1 -0.1)">
       <use xlink:href="#DejaVuSans-31"/>
       <use x="63.623047" xlink:href="#DejaVuSans-35"/>
      </g>
     </g>
    </g>
    <g id="xtick_4">
     <g id="line2d_7">
      <path clip-path="url(#p9c3660c12a)" d="M 198.042353 384.48 
L 198.042353 51.84 
" style="fill:none;stroke:#000000;stroke-dasharray:0.8,1.32;stroke-dashoffset:0;stroke-opacity:0.5;stroke-width:0.8;"/>
     </g>
     <g id="line2d_8">
      <g>
       <use style="stroke:#000000;stroke-width:0.8;" x="198.042353" xlink:href="#m8b0f1a011e" y="384.48"/>
      </g>
     </g>
     <g id="text_4">
      <!-- Sep -->
      <g transform="translate(188.617353 399.078438)scale(0.1 -0.1)">
       <defs>
        <path d="M 3425 4513 
L 3425 3897 
Q 3066 4069 2747 4153 
Q 2428 4238 2131 4238 
Q 1616 4238 1336 4038 
Q 1056 3838 1056 3469 
Q 1056 3159 1242 3001 
Q 1428 2844 1947 2747 
L 2328 2669 
Q 3034 2534 3370 2195 
Q 3706 1856 3706 1288 
Q 3706 609 3251 259 
Q 2797 -91 1919 -91 
Q 1588 -91 1214 -16 
Q 841 59 441 206 
L 441 856 
Q 825 641 1194 531 
Q 1563 422 1919 422 
Q 2459 422 2753 634 
Q 3047 847 3047 1241 
Q 3047 1584 2836 1778 
Q 2625 1972 2144 2069 
L 1759 2144 
Q 1053 2284 737 2584 
Q 422 2884 422 3419 
Q 422 4038 858 4394 
Q 1294 4750 2059 4750 
Q 2388 4750 2728 4690 
Q 3069 4631 3425 4513 
z
" id="DejaVuSans-53" transform="scale(0.015625)"/>
        <path d="M 3597 1894 
L 3597 1613 
L 953 1613 
Q 991 1019 1311 708 
Q 1631 397 2203 397 
Q 2534 397 2845 478 
Q 3156 559 3463 722 
L 3463 178 
Q 3153 47 2828 -22 
Q 2503 -91 2169 -91 
Q 1331 -91 842 396 
Q 353 884 353 1716 
Q 353 2575 817 3079 
Q 1281 3584 2069 3584 
Q 2775 3584 3186 3129 
Q 3597 2675 3597 1894 
z
M 3022 2063 
Q 3016 2534 2758 2815 
Q 2500 3097 2075 3097 
Q 1594 3097 1305 2825 
Q 1016 2553 972 2059 
L 3022 2063 
z
" id="DejaVuSans-65" transform="scale(0.015625)"/>
        <path d="M 1159 525 
L 1159 -1331 
L 581 -1331 
L 581 3500 
L 1159 3500 
L 1159 2969 
Q 1341 3281 1617 3432 
Q 1894 3584 2278 3584 
Q 2916 3584 3314 3078 
Q 3713 2572 3713 1747 
Q 3713 922 3314 415 
Q 2916 -91 2278 -91 
Q 1894 -91 1617 61 
Q 1341 213 1159 525 
z
M 3116 1747 
Q 3116 2381 2855 2742 
Q 2594 3103 2138 3103 
Q 1681 3103 1420 2742 
Q 1159 2381 1159 1747 
Q 1159 1113 1420 752 
Q 1681 391 2138 391 
Q 2594 391 2855 752 
Q 3116 1113 3116 1747 
z
" id="DejaVuSans-70" transform="scale(0.015625)"/>
       </defs>
       <use xlink:href="#DejaVuSans-53"/>
       <use x="63.476562" xlink:href="#DejaVuSans-65"/>
       <use x="125" xlink:href="#DejaVuSans-70"/>
      </g>
     </g>
    </g>
    <g id="xtick_5">
     <g id="line2d_9">
      <path clip-path="url(#p9c3660c12a)" d="M 234.804706 384.48 
L 234.804706 51.84 
" style="fill:none;stroke:#000000;stroke-dasharray:0.8,1.32;stroke-dashoffset:0;stroke-opacity:0.5;stroke-width:0.8;"/>
     </g>
     <g id="line2d_10">
      <g>
       <use style="stroke:#000000;stroke-width:0.8;" x="234.804706" xlink:href="#m8b0f1a011e" y="384.48"/>
      </g>
     </g>
     <g id="text_5">
      <!-- 15 -->
      <g transform="translate(228.442206 399.078438)scale(0.1 -0.1)">
       <use xlink:href="#DejaVuSans-31"/>
       <use x="63.623047" xlink:href="#DejaVuSans-35"/>
      </g>
     </g>
    </g>
    <g id="xtick_6">
     <g id="line2d_11">
      <path clip-path="url(#p9c3660c12a)" d="M 276.818824 384.48 
L 276.818824 51.84 
" style="fill:none;stroke:#000000;stroke-dasharray:0.8,1.32;stroke-dashoffset:0;stroke-opacity:0.5;stroke-width:0.8;"/>
     </g>
     <g id="line2d_12">
      <g>
       <use style="stroke:#000000;stroke-width:0.8;" x="276.818824" xlink:href="#m8b0f1a011e" y="384.48"/>
      </g>
     </g>
     <g id="text_6">
      <!-- Oct -->
      <g transform="translate(268.173511 399.078438)scale(0.1 -0.1)">
       <defs>
        <path d="M 2522 4238 
Q 1834 4238 1429 3725 
Q 1025 3213 1025 2328 
Q 1025 1447 1429 934 
Q 1834 422 2522 422 
Q 3209 422 3611 934 
Q 4013 1447 4013 2328 
Q 4013 3213 3611 3725 
Q 3209 4238 2522 4238 
z
M 2522 4750 
Q 3503 4750 4090 4092 
Q 4678 3434 4678 2328 
Q 4678 1225 4090 567 
Q 3503 -91 2522 -91 
Q 1538 -91 948 565 
Q 359 1222 359 2328 
Q 359 3434 948 4092 
Q 1538 4750 2522 4750 
z
" id="DejaVuSans-4f" transform="scale(0.015625)"/>
        <path d="M 3122 3366 
L 3122 2828 
Q 2878 2963 2633 3030 
Q 2388 3097 2138 3097 
Q 1578 3097 1268 2742 
Q 959 2388 959 1747 
Q 959 1106 1268 751 
Q 1578 397 2138 397 
Q 2388 397 2633 464 
Q 2878 531 3122 666 
L 3122 134 
Q 2881 22 2623 -34 
Q 2366 -91 2075 -91 
Q 1284 -91 818 406 
Q 353 903 353 1747 
Q 353 2603 823 3093 
Q 1294 3584 2113 3584 
Q 2378 3584 2631 3529 
Q 2884 3475 3122 3366 
z
" id="DejaVuSans-63" transform="scale(0.015625)"/>
        <path d="M 1172 4494 
L 1172 3500 
L 2356 3500 
L 2356 3053 
L 1172 3053 
L 1172 1153 
Q 1172 725 1289 603 
Q 1406 481 1766 481 
L 2356 481 
L 2356 0 
L 1766 0 
Q 1100 0 847 248 
Q 594 497 594 1153 
L 594 3053 
L 172 3053 
L 172 3500 
L 594 3500 
L 594 4494 
L 1172 4494 
z
" id="DejaVuSans-74" transform="scale(0.015625)"/>
       </defs>
       <use xlink:href="#DejaVuSans-4f"/>
       <use x="78.710938" xlink:href="#DejaVuSans-63"/>
       <use x="133.691406" xlink:href="#DejaVuSans-74"/>
      </g>
     </g>
    </g>
    <g id="xtick_7">
     <g id="line2d_13">
      <path clip-path="url(#p9c3660c12a)" d="M 313.581176 384.48 
L 313.581176 51.84 
" style="fill:none;stroke:#000000;stroke-dasharray:0.8,1.32;stroke-dashoffset:0;stroke-opacity:0.5;stroke-width:0.8;"/>
     </g>
     <g id="line2d_14">
      <g>
       <use style="stroke:#000000;stroke-width:0.8;" x="313.581176" xlink:href="#m8b0f1a011e" y="384.48"/>
      </g>
     </g>
     <g id="text_7">
      <!-- 15 -->
      <g transform="translate(307.218676 399.078438)scale(0.1 -0.1)">
       <use xlink:href="#DejaVuSans-31"/>
       <use x="63.623047" xlink:href="#DejaVuSans-35"/>
      </g>
     </g>
    </g>
    <g id="xtick_8">
     <g id="line2d_15">
      <path clip-path="url(#p9c3660c12a)" d="M 358.221176 384.48 
L 358.221176 51.84 
" style="fill:none;stroke:#000000;stroke-dasharray:0.8,1.32;stroke-dashoffset:0;stroke-opacity:0.5;stroke-width:0.8;"/>
     </g>
     <g id="line2d_16">
      <g>
       <use style="stroke:#000000;stroke-width:0.8;" x="358.221176" xlink:href="#m8b0f1a011e" y="384.48"/>
      </g>
     </g>
     <g id="text_8">
      <!-- Nov -->
      <g transform="translate(348.461801 399.078438)scale(0.1 -0.1)">
       <defs>
        <path d="M 628 4666 
L 1478 4666 
L 3547 763 
L 3547 4666 
L 4159 4666 
L 4159 0 
L 3309 0 
L 1241 3903 
L 1241 0 
L 628 0 
L 628 4666 
z
" id="DejaVuSans-4e" transform="scale(0.015625)"/>
        <path d="M 1959 3097 
Q 1497 3097 1228 2736 
Q 959 2375 959 1747 
Q 959 1119 1226 758 
Q 1494 397 1959 397 
Q 2419 397 2687 759 
Q 2956 1122 2956 1747 
Q 2956 2369 2687 2733 
Q 2419 3097 1959 3097 
z
M 1959 3584 
Q 2709 3584 3137 3096 
Q 3566 2609 3566 1747 
Q 3566 888 3137 398 
Q 2709 -91 1959 -91 
Q 1206 -91 779 398 
Q 353 888 353 1747 
Q 353 2609 779 3096 
Q 1206 3584 1959 3584 
z
" id="DejaVuSans-6f" transform="scale(0.015625)"/>
        <path d="M 191 3500 
L 800 3500 
L 1894 563 
L 2988 3500 
L 3597 3500 
L 2284 0 
L 1503 0 
L 191 3500 
z
" id="DejaVuSans-76" transform="scale(0.015625)"/>
       </defs>
       <use xlink:href="#DejaVuSans-4e"/>
       <use x="74.804688" xlink:href="#DejaVuSans-6f"/>
       <use x="135.986328" xlink:href="#DejaVuSans-76"/>
      </g>
     </g>
    </g>
    <g id="xtick_9">
     <g id="line2d_17">
      <path clip-path="url(#p9c3660c12a)" d="M 394.983529 384.48 
L 394.983529 51.84 
" style="fill:none;stroke:#000000;stroke-dasharray:0.8,1.32;stroke-dashoffset:0;stroke-opacity:0.5;stroke-width:0.8;"/>
     </g>
     <g id="line2d_18">
      <g>
       <use style="stroke:#000000;stroke-width:0.8;" x="394.983529" xlink:href="#m8b0f1a011e" y="384.48"/>
      </g>
     </g>
     <g id="text_9">
      <!-- 15 -->
      <g transform="translate(388.621029 399.078438)scale(0.1 -0.1)">
       <use xlink:href="#DejaVuSans-31"/>
       <use x="63.623047" xlink:href="#DejaVuSans-35"/>
      </g>
     </g>
    </g>
    <g id="xtick_10">
     <g id="line2d_19">
      <path clip-path="url(#p9c3660c12a)" d="M 436.997647 384.48 
L 436.997647 51.84 
" style="fill:none;stroke:#000000;stroke-dasharray:0.8,1.32;stroke-dashoffset:0;stroke-opacity:0.5;stroke-width:0.8;"/>
     </g>
     <g id="line2d_20">
      <g>
       <use style="stroke:#000000;stroke-width:0.8;" x="436.997647" xlink:href="#m8b0f1a011e" y="384.48"/>
      </g>
     </g>
     <g id="text_10">
      <!-- Dec -->
      <g transform="translate(427.321866 399.078438)scale(0.1 -0.1)">
       <defs>
        <path d="M 1259 4147 
L 1259 519 
L 2022 519 
Q 2988 519 3436 956 
Q 3884 1394 3884 2338 
Q 3884 3275 3436 3711 
Q 2988 4147 2022 4147 
L 1259 4147 
z
M 628 4666 
L 1925 4666 
Q 3281 4666 3915 4102 
Q 4550 3538 4550 2338 
Q 4550 1131 3912 565 
Q 3275 0 1925 0 
L 628 0 
L 628 4666 
z
" id="DejaVuSans-44" transform="scale(0.015625)"/>
       </defs>
       <use xlink:href="#DejaVuSans-44"/>
       <use x="77.001953" xlink:href="#DejaVuSans-65"/>
       <use x="138.525391" xlink:href="#DejaVuSans-63"/>
      </g>
     </g>
    </g>
    <g id="xtick_11">
     <g id="line2d_21">
      <path clip-path="url(#p9c3660c12a)" d="M 473.76 384.48 
L 473.76 51.84 
" style="fill:none;stroke:#000000;stroke-dasharray:0.8,1.32;stroke-dashoffset:0;stroke-opacity:0.5;stroke-width:0.8;"/>
     </g>
     <g id="line2d_22">
      <g>
       <use style="stroke:#000000;stroke-width:0.8;" x="473.76" xlink:href="#m8b0f1a011e" y="384.48"/>
      </g>
     </g>
     <g id="text_11">
      <!-- 15 -->
      <g transform="translate(467.3975 399.078438)scale(0.1 -0.1)">
       <use xlink:href="#DejaVuSans-31"/>
       <use x="63.623047" xlink:href="#DejaVuSans-35"/>
      </g>
     </g>
    </g>
    <g id="xtick_12">
     <g id="line2d_23">
      <path clip-path="url(#p9c3660c12a)" d="M 518.4 384.48 
L 518.4 51.84 
" style="fill:none;stroke:#000000;stroke-dasharray:0.8,1.32;stroke-dashoffset:0;stroke-opacity:0.5;stroke-width:0.8;"/>
     </g>
     <g id="line2d_24">
      <g>
       <use style="stroke:#000000;stroke-width:0.8;" x="518.4" xlink:href="#m8b0f1a011e" y="384.48"/>
      </g>
     </g>
     <g id="text_12">
      <!-- Jan -->
      <g transform="translate(510.692188 399.078438)scale(0.1 -0.1)">
       <defs>
        <path d="M 628 4666 
L 1259 4666 
L 1259 325 
Q 1259 -519 939 -900 
Q 619 -1281 -91 -1281 
L -331 -1281 
L -331 -750 
L -134 -750 
Q 284 -750 456 -515 
Q 628 -281 628 325 
L 628 4666 
z
" id="DejaVuSans-4a" transform="scale(0.015625)"/>
        <path d="M 2194 1759 
Q 1497 1759 1228 1600 
Q 959 1441 959 1056 
Q 959 750 1161 570 
Q 1363 391 1709 391 
Q 2188 391 2477 730 
Q 2766 1069 2766 1631 
L 2766 1759 
L 2194 1759 
z
M 3341 1997 
L 3341 0 
L 2766 0 
L 2766 531 
Q 2569 213 2275 61 
Q 1981 -91 1556 -91 
Q 1019 -91 701 211 
Q 384 513 384 1019 
Q 384 1609 779 1909 
Q 1175 2209 1959 2209 
L 2766 2209 
L 2766 2266 
Q 2766 2663 2505 2880 
Q 2244 3097 1772 3097 
Q 1472 3097 1187 3025 
Q 903 2953 641 2809 
L 641 3341 
Q 956 3463 1253 3523 
Q 1550 3584 1831 3584 
Q 2591 3584 2966 3190 
Q 3341 2797 3341 1997 
z
" id="DejaVuSans-61" transform="scale(0.015625)"/>
        <path d="M 3513 2113 
L 3513 0 
L 2938 0 
L 2938 2094 
Q 2938 2591 2744 2837 
Q 2550 3084 2163 3084 
Q 1697 3084 1428 2787 
Q 1159 2491 1159 1978 
L 1159 0 
L 581 0 
L 581 3500 
L 1159 3500 
L 1159 2956 
Q 1366 3272 1645 3428 
Q 1925 3584 2291 3584 
Q 2894 3584 3203 3211 
Q 3513 2838 3513 2113 
z
" id="DejaVuSans-6e" transform="scale(0.015625)"/>
       </defs>
       <use xlink:href="#DejaVuSans-4a"/>
       <use x="29.492188" xlink:href="#DejaVuSans-61"/>
       <use x="90.771484" xlink:href="#DejaVuSans-6e"/>
      </g>
     </g>
    </g>
    <g id="text_13">
     <!-- 2022-Jan -->
     <g transform="translate(473.364062 411.756563)scale(0.1 -0.1)">
      <defs>
       <path d="M 1228 531 
L 3431 531 
L 3431 0 
L 469 0 
L 469 531 
Q 828 903 1448 1529 
Q 2069 2156 2228 2338 
Q 2531 2678 2651 2914 
Q 2772 3150 2772 3378 
Q 2772 3750 2511 3984 
Q 2250 4219 1831 4219 
Q 1534 4219 1204 4116 
Q 875 4013 500 3803 
L 500 4441 
Q 881 4594 1212 4672 
Q 1544 4750 1819 4750 
Q 2544 4750 2975 4387 
Q 3406 4025 3406 3419 
Q 3406 3131 3298 2873 
Q 3191 2616 2906 2266 
Q 2828 2175 2409 1742 
Q 1991 1309 1228 531 
z
" id="DejaVuSans-32" transform="scale(0.015625)"/>
       <path d="M 2034 4250 
Q 1547 4250 1301 3770 
Q 1056 3291 1056 2328 
Q 1056 1369 1301 889 
Q 1547 409 2034 409 
Q 2525 409 2770 889 
Q 3016 1369 3016 2328 
Q 3016 3291 2770 3770 
Q 2525 4250 2034 4250 
z
M 2034 4750 
Q 2819 4750 3233 4129 
Q 3647 3509 3647 2328 
Q 3647 1150 3233 529 
Q 2819 -91 2034 -91 
Q 1250 -91 836 529 
Q 422 1150 422 2328 
Q 422 3509 836 4129 
Q 1250 4750 2034 4750 
z
" id="DejaVuSans-30" transform="scale(0.015625)"/>
       <path d="M 313 2009 
L 1997 2009 
L 1997 1497 
L 313 1497 
L 313 2009 
z
" id="DejaVuSans-2d" transform="scale(0.015625)"/>
      </defs>
      <use xlink:href="#DejaVuSans-32"/>
      <use x="63.623047" xlink:href="#DejaVuSans-30"/>
      <use x="127.246094" xlink:href="#DejaVuSans-32"/>
      <use x="190.869141" xlink:href="#DejaVuSans-32"/>
      <use x="254.492188" xlink:href="#DejaVuSans-2d"/>
      <use x="296.201172" xlink:href="#DejaVuSans-4a"/>
      <use x="325.693359" xlink:href="#DejaVuSans-61"/>
      <use x="386.972656" xlink:href="#DejaVuSans-6e"/>
     </g>
    </g>
   </g>
   <g id="matplotlib.axis_2">
    <g id="ytick_1">
     <g id="line2d_25">
      <path clip-path="url(#p9c3660c12a)" d="M 72 384.48 
L 518.4 384.48 
" style="fill:none;stroke:#000000;stroke-dasharray:0.8,1.32;stroke-dashoffset:0;stroke-opacity:0.5;stroke-width:0.8;"/>
     </g>
     <g id="line2d_26">
      <defs>
       <path d="M 0 0 
L -3.5 0 
" id="me335284b7a" style="stroke:#000000;stroke-width:0.8;"/>
      </defs>
      <g>
       <use style="stroke:#000000;stroke-width:0.8;" x="72" xlink:href="#me335284b7a" y="384.48"/>
      </g>
     </g>
     <g id="text_14">
      <!-- 0 -->
      <g transform="translate(58.6375 388.279219)scale(0.1 -0.1)">
       <use xlink:href="#DejaVuSans-30"/>
      </g>
     </g>
    </g>
    <g id="ytick_2">
     <g id="line2d_27">
      <path clip-path="url(#p9c3660c12a)" d="M 72 351.216 
L 518.4 351.216 
" style="fill:none;stroke:#000000;stroke-dasharray:0.8,1.32;stroke-dashoffset:0;stroke-opacity:0.5;stroke-width:0.8;"/>
     </g>
     <g id="line2d_28">
      <g>
       <use style="stroke:#000000;stroke-width:0.8;" x="72" xlink:href="#me335284b7a" y="351.216"/>
      </g>
     </g>
     <g id="text_15">
      <!-- 10 -->
      <g transform="translate(52.275 355.015219)scale(0.1 -0.1)">
       <use xlink:href="#DejaVuSans-31"/>
       <use x="63.623047" xlink:href="#DejaVuSans-30"/>
      </g>
     </g>
    </g>
    <g id="ytick_3">
     <g id="line2d_29">
      <path clip-path="url(#p9c3660c12a)" d="M 72 317.952 
L 518.4 317.952 
" style="fill:none;stroke:#000000;stroke-dasharray:0.8,1.32;stroke-dashoffset:0;stroke-opacity:0.5;stroke-width:0.8;"/>
     </g>
     <g id="line2d_30">
      <g>
       <use style="stroke:#000000;stroke-width:0.8;" x="72" xlink:href="#me335284b7a" y="317.952"/>
      </g>
     </g>
     <g id="text_16">
      <!-- 20 -->
      <g transform="translate(52.275 321.751219)scale(0.1 -0.1)">
       <use xlink:href="#DejaVuSans-32"/>
       <use x="63.623047" xlink:href="#DejaVuSans-30"/>
      </g>
     </g>
    </g>
    <g id="ytick_4">
     <g id="line2d_31">
      <path clip-path="url(#p9c3660c12a)" d="M 72 284.688 
L 518.4 284.688 
" style="fill:none;stroke:#000000;stroke-dasharray:0.8,1.32;stroke-dashoffset:0;stroke-opacity:0.5;stroke-width:0.8;"/>
     </g>
     <g id="line2d_32">
      <g>
       <use style="stroke:#000000;stroke-width:0.8;" x="72" xlink:href="#me335284b7a" y="284.688"/>
      </g>
     </g>
     <g id="text_17">
      <!-- 30 -->
      <g transform="translate(52.275 288.487219)scale(0.1 -0.1)">
       <defs>
        <path d="M 2597 2516 
Q 3050 2419 3304 2112 
Q 3559 1806 3559 1356 
Q 3559 666 3084 287 
Q 2609 -91 1734 -91 
Q 1441 -91 1130 -33 
Q 819 25 488 141 
L 488 750 
Q 750 597 1062 519 
Q 1375 441 1716 441 
Q 2309 441 2620 675 
Q 2931 909 2931 1356 
Q 2931 1769 2642 2001 
Q 2353 2234 1838 2234 
L 1294 2234 
L 1294 2753 
L 1863 2753 
Q 2328 2753 2575 2939 
Q 2822 3125 2822 3475 
Q 2822 3834 2567 4026 
Q 2313 4219 1838 4219 
Q 1578 4219 1281 4162 
Q 984 4106 628 3988 
L 628 4550 
Q 988 4650 1302 4700 
Q 1616 4750 1894 4750 
Q 2613 4750 3031 4423 
Q 3450 4097 3450 3541 
Q 3450 3153 3228 2886 
Q 3006 2619 2597 2516 
z
" id="DejaVuSans-33" transform="scale(0.015625)"/>
       </defs>
       <use xlink:href="#DejaVuSans-33"/>
       <use x="63.623047" xlink:href="#DejaVuSans-30"/>
      </g>
     </g>
    </g>
    <g id="ytick_5">
     <g id="line2d_33">
      <path clip-path="url(#p9c3660c12a)" d="M 72 251.424 
L 518.4 251.424 
" style="fill:none;stroke:#000000;stroke-dasharray:0.8,1.32;stroke-dashoffset:0;stroke-opacity:0.5;stroke-width:0.8;"/>
     </g>
     <g id="line2d_34">
      <g>
       <use style="stroke:#000000;stroke-width:0.8;" x="72" xlink:href="#me335284b7a" y="251.424"/>
      </g>
     </g>
     <g id="text_18">
      <!-- 40 -->
      <g transform="translate(52.275 255.223219)scale(0.1 -0.1)">
       <defs>
        <path d="M 2419 4116 
L 825 1625 
L 2419 1625 
L 2419 4116 
z
M 2253 4666 
L 3047 4666 
L 3047 1625 
L 3713 1625 
L 3713 1100 
L 3047 1100 
L 3047 0 
L 2419 0 
L 2419 1100 
L 313 1100 
L 313 1709 
L 2253 4666 
z
" id="DejaVuSans-34" transform="scale(0.015625)"/>
       </defs>
       <use xlink:href="#DejaVuSans-34"/>
       <use x="63.623047" xlink:href="#DejaVuSans-30"/>
      </g>
     </g>
    </g>
    <g id="ytick_6">
     <g id="line2d_35">
      <path clip-path="url(#p9c3660c12a)" d="M 72 218.16 
L 518.4 218.16 
" style="fill:none;stroke:#000000;stroke-dasharray:0.8,1.32;stroke-dashoffset:0;stroke-opacity:0.5;stroke-width:0.8;"/>
     </g>
     <g id="line2d_36">
      <g>
       <use style="stroke:#000000;stroke-width:0.8;" x="72" xlink:href="#me335284b7a" y="218.16"/>
      </g>
     </g>
     <g id="text_19">
      <!-- 50 -->
      <g transform="translate(52.275 221.959219)scale(0.1 -0.1)">
       <use xlink:href="#DejaVuSans-35"/>
       <use x="63.623047" xlink:href="#DejaVuSans-30"/>
      </g>
     </g>
    </g>
    <g id="ytick_7">
     <g id="line2d_37">
      <path clip-path="url(#p9c3660c12a)" d="M 72 184.896 
L 518.4 184.896 
" style="fill:none;stroke:#000000;stroke-dasharray:0.8,1.32;stroke-dashoffset:0;stroke-opacity:0.5;stroke-width:0.8;"/>
     </g>
     <g id="line2d_38">
      <g>
       <use style="stroke:#000000;stroke-width:0.8;" x="72" xlink:href="#me335284b7a" y="184.896"/>
      </g>
     </g>
     <g id="text_20">
      <!-- 60 -->
      <g transform="translate(52.275 188.695219)scale(0.1 -0.1)">
       <defs>
        <path d="M 2113 2584 
Q 1688 2584 1439 2293 
Q 1191 2003 1191 1497 
Q 1191 994 1439 701 
Q 1688 409 2113 409 
Q 2538 409 2786 701 
Q 3034 994 3034 1497 
Q 3034 2003 2786 2293 
Q 2538 2584 2113 2584 
z
M 3366 4563 
L 3366 3988 
Q 3128 4100 2886 4159 
Q 2644 4219 2406 4219 
Q 1781 4219 1451 3797 
Q 1122 3375 1075 2522 
Q 1259 2794 1537 2939 
Q 1816 3084 2150 3084 
Q 2853 3084 3261 2657 
Q 3669 2231 3669 1497 
Q 3669 778 3244 343 
Q 2819 -91 2113 -91 
Q 1303 -91 875 529 
Q 447 1150 447 2328 
Q 447 3434 972 4092 
Q 1497 4750 2381 4750 
Q 2619 4750 2861 4703 
Q 3103 4656 3366 4563 
z
" id="DejaVuSans-36" transform="scale(0.015625)"/>
       </defs>
       <use xlink:href="#DejaVuSans-36"/>
       <use x="63.623047" xlink:href="#DejaVuSans-30"/>
      </g>
     </g>
    </g>
    <g id="ytick_8">
     <g id="line2d_39">
      <path clip-path="url(#p9c3660c12a)" d="M 72 151.632 
L 518.4 151.632 
" style="fill:none;stroke:#000000;stroke-dasharray:0.8,1.32;stroke-dashoffset:0;stroke-opacity:0.5;stroke-width:0.8;"/>
     </g>
     <g id="line2d_40">
      <g>
       <use style="stroke:#000000;stroke-width:0.8;" x="72" xlink:href="#me335284b7a" y="151.632"/>
      </g>
     </g>
     <g id="text_21">
      <!-- 70 -->
      <g transform="translate(52.275 155.431219)scale(0.1 -0.1)">
       <defs>
        <path d="M 525 4666 
L 3525 4666 
L 3525 4397 
L 1831 0 
L 1172 0 
L 2766 4134 
L 525 4134 
L 525 4666 
z
" id="DejaVuSans-37" transform="scale(0.015625)"/>
       </defs>
       <use xlink:href="#DejaVuSans-37"/>
       <use x="63.623047" xlink:href="#DejaVuSans-30"/>
      </g>
     </g>
    </g>
    <g id="ytick_9">
     <g id="line2d_41">
      <path clip-path="url(#p9c3660c12a)" d="M 72 118.368 
L 518.4 118.368 
" style="fill:none;stroke:#000000;stroke-dasharray:0.8,1.32;stroke-dashoffset:0;stroke-opacity:0.5;stroke-width:0.8;"/>
     </g>
     <g id="line2d_42">
      <g>
       <use style="stroke:#000000;stroke-width:0.8;" x="72" xlink:href="#me335284b7a" y="118.368"/>
      </g>
     </g>
     <g id="text_22">
      <!-- 80 -->
      <g transform="translate(52.275 122.167219)scale(0.1 -0.1)">
       <defs>
        <path d="M 2034 2216 
Q 1584 2216 1326 1975 
Q 1069 1734 1069 1313 
Q 1069 891 1326 650 
Q 1584 409 2034 409 
Q 2484 409 2743 651 
Q 3003 894 3003 1313 
Q 3003 1734 2745 1975 
Q 2488 2216 2034 2216 
z
M 1403 2484 
Q 997 2584 770 2862 
Q 544 3141 544 3541 
Q 544 4100 942 4425 
Q 1341 4750 2034 4750 
Q 2731 4750 3128 4425 
Q 3525 4100 3525 3541 
Q 3525 3141 3298 2862 
Q 3072 2584 2669 2484 
Q 3125 2378 3379 2068 
Q 3634 1759 3634 1313 
Q 3634 634 3220 271 
Q 2806 -91 2034 -91 
Q 1263 -91 848 271 
Q 434 634 434 1313 
Q 434 1759 690 2068 
Q 947 2378 1403 2484 
z
M 1172 3481 
Q 1172 3119 1398 2916 
Q 1625 2713 2034 2713 
Q 2441 2713 2670 2916 
Q 2900 3119 2900 3481 
Q 2900 3844 2670 4047 
Q 2441 4250 2034 4250 
Q 1625 4250 1398 4047 
Q 1172 3844 1172 3481 
z
" id="DejaVuSans-38" transform="scale(0.015625)"/>
       </defs>
       <use xlink:href="#DejaVuSans-38"/>
       <use x="63.623047" xlink:href="#DejaVuSans-30"/>
      </g>
     </g>
    </g>
    <g id="ytick_10">
     <g id="line2d_43">
      <path clip-path="url(#p9c3660c12a)" d="M 72 85.104 
L 518.4 85.104 
" style="fill:none;stroke:#000000;stroke-dasharray:0.8,1.32;stroke-dashoffset:0;stroke-opacity:0.5;stroke-width:0.8;"/>
     </g>
     <g id="line2d_44">
      <g>
       <use style="stroke:#000000;stroke-width:0.8;" x="72" xlink:href="#me335284b7a" y="85.104"/>
      </g>
     </g>
     <g id="text_23">
      <!-- 90 -->
      <g transform="translate(52.275 88.903219)scale(0.1 -0.1)">
       <defs>
        <path d="M 703 97 
L 703 672 
Q 941 559 1184 500 
Q 1428 441 1663 441 
Q 2288 441 2617 861 
Q 2947 1281 2994 2138 
Q 2813 1869 2534 1725 
Q 2256 1581 1919 1581 
Q 1219 1581 811 2004 
Q 403 2428 403 3163 
Q 403 3881 828 4315 
Q 1253 4750 1959 4750 
Q 2769 4750 3195 4129 
Q 3622 3509 3622 2328 
Q 3622 1225 3098 567 
Q 2575 -91 1691 -91 
Q 1453 -91 1209 -44 
Q 966 3 703 97 
z
M 1959 2075 
Q 2384 2075 2632 2365 
Q 2881 2656 2881 3163 
Q 2881 3666 2632 3958 
Q 2384 4250 1959 4250 
Q 1534 4250 1286 3958 
Q 1038 3666 1038 3163 
Q 1038 2656 1286 2365 
Q 1534 2075 1959 2075 
z
" id="DejaVuSans-39" transform="scale(0.015625)"/>
       </defs>
       <use xlink:href="#DejaVuSans-39"/>
       <use x="63.623047" xlink:href="#DejaVuSans-30"/>
      </g>
     </g>
    </g>
    <g id="ytick_11">
     <g id="line2d_45">
      <path clip-path="url(#p9c3660c12a)" d="M 72 51.84 
L 518.4 51.84 
" style="fill:none;stroke:#000000;stroke-dasharray:0.8,1.32;stroke-dashoffset:0;stroke-opacity:0.5;stroke-width:0.8;"/>
     </g>
     <g id="line2d_46">
      <g>
       <use style="stroke:#000000;stroke-width:0.8;" x="72" xlink:href="#me335284b7a" y="51.84"/>
      </g>
     </g>
     <g id="text_24">
      <!-- 100 -->
      <g transform="translate(45.9125 55.639219)scale(0.1 -0.1)">
       <use xlink:href="#DejaVuSans-31"/>
       <use x="63.623047" xlink:href="#DejaVuSans-30"/>
       <use x="127.246094" xlink:href="#DejaVuSans-30"/>
      </g>
     </g>
    </g>
    <g id="text_25">
     <!-- Vaccine coverage (% of 12+ population) -->
     <g transform="translate(39.832812 319.181094)rotate(-90)scale(0.1 -0.1)">
      <defs>
       <path d="M 1831 0 
L 50 4666 
L 709 4666 
L 2188 738 
L 3669 4666 
L 4325 4666 
L 2547 0 
L 1831 0 
z
" id="DejaVuSans-56" transform="scale(0.015625)"/>
       <path d="M 603 3500 
L 1178 3500 
L 1178 0 
L 603 0 
L 603 3500 
z
M 603 4863 
L 1178 4863 
L 1178 4134 
L 603 4134 
L 603 4863 
z
" id="DejaVuSans-69" transform="scale(0.015625)"/>
       <path id="DejaVuSans-20" transform="scale(0.015625)"/>
       <path d="M 2631 2963 
Q 2534 3019 2420 3045 
Q 2306 3072 2169 3072 
Q 1681 3072 1420 2755 
Q 1159 2438 1159 1844 
L 1159 0 
L 581 0 
L 581 3500 
L 1159 3500 
L 1159 2956 
Q 1341 3275 1631 3429 
Q 1922 3584 2338 3584 
Q 2397 3584 2469 3576 
Q 2541 3569 2628 3553 
L 2631 2963 
z
" id="DejaVuSans-72" transform="scale(0.015625)"/>
       <path d="M 1984 4856 
Q 1566 4138 1362 3434 
Q 1159 2731 1159 2009 
Q 1159 1288 1364 580 
Q 1569 -128 1984 -844 
L 1484 -844 
Q 1016 -109 783 600 
Q 550 1309 550 2009 
Q 550 2706 781 3412 
Q 1013 4119 1484 4856 
L 1984 4856 
z
" id="DejaVuSans-28" transform="scale(0.015625)"/>
       <path d="M 4653 2053 
Q 4381 2053 4226 1822 
Q 4072 1591 4072 1178 
Q 4072 772 4226 539 
Q 4381 306 4653 306 
Q 4919 306 5073 539 
Q 5228 772 5228 1178 
Q 5228 1588 5073 1820 
Q 4919 2053 4653 2053 
z
M 4653 2450 
Q 5147 2450 5437 2106 
Q 5728 1763 5728 1178 
Q 5728 594 5436 251 
Q 5144 -91 4653 -91 
Q 4153 -91 3862 251 
Q 3572 594 3572 1178 
Q 3572 1766 3864 2108 
Q 4156 2450 4653 2450 
z
M 1428 4353 
Q 1159 4353 1004 4120 
Q 850 3888 850 3481 
Q 850 3069 1003 2837 
Q 1156 2606 1428 2606 
Q 1700 2606 1854 2837 
Q 2009 3069 2009 3481 
Q 2009 3884 1853 4118 
Q 1697 4353 1428 4353 
z
M 4250 4750 
L 4750 4750 
L 1831 -91 
L 1331 -91 
L 4250 4750 
z
M 1428 4750 
Q 1922 4750 2215 4408 
Q 2509 4066 2509 3481 
Q 2509 2891 2217 2550 
Q 1925 2209 1428 2209 
Q 931 2209 642 2551 
Q 353 2894 353 3481 
Q 353 4063 643 4406 
Q 934 4750 1428 4750 
z
" id="DejaVuSans-25" transform="scale(0.015625)"/>
       <path d="M 2375 4863 
L 2375 4384 
L 1825 4384 
Q 1516 4384 1395 4259 
Q 1275 4134 1275 3809 
L 1275 3500 
L 2222 3500 
L 2222 3053 
L 1275 3053 
L 1275 0 
L 697 0 
L 697 3053 
L 147 3053 
L 147 3500 
L 697 3500 
L 697 3744 
Q 697 4328 969 4595 
Q 1241 4863 1831 4863 
L 2375 4863 
z
" id="DejaVuSans-66" transform="scale(0.015625)"/>
       <path d="M 2944 4013 
L 2944 2272 
L 4684 2272 
L 4684 1741 
L 2944 1741 
L 2944 0 
L 2419 0 
L 2419 1741 
L 678 1741 
L 678 2272 
L 2419 2272 
L 2419 4013 
L 2944 4013 
z
" id="DejaVuSans-2b" transform="scale(0.015625)"/>
       <path d="M 603 4863 
L 1178 4863 
L 1178 0 
L 603 0 
L 603 4863 
z
" id="DejaVuSans-6c" transform="scale(0.015625)"/>
       <path d="M 513 4856 
L 1013 4856 
Q 1481 4119 1714 3412 
Q 1947 2706 1947 2009 
Q 1947 1309 1714 600 
Q 1481 -109 1013 -844 
L 513 -844 
Q 928 -128 1133 580 
Q 1338 1288 1338 2009 
Q 1338 2731 1133 3434 
Q 928 4138 513 4856 
z
" id="DejaVuSans-29" transform="scale(0.015625)"/>
      </defs>
      <use xlink:href="#DejaVuSans-56"/>
      <use x="60.658203" xlink:href="#DejaVuSans-61"/>
      <use x="121.9375" xlink:href="#DejaVuSans-63"/>
      <use x="176.917969" xlink:href="#DejaVuSans-63"/>
      <use x="231.898438" xlink:href="#DejaVuSans-69"/>
      <use x="259.681641" xlink:href="#DejaVuSans-6e"/>
      <use x="323.060547" xlink:href="#DejaVuSans-65"/>
      <use x="384.583984" xlink:href="#DejaVuSans-20"/>
      <use x="416.371094" xlink:href="#DejaVuSans-63"/>
      <use x="471.351562" xlink:href="#DejaVuSans-6f"/>
      <use x="532.533203" xlink:href="#DejaVuSans-76"/>
      <use x="591.712891" xlink:href="#DejaVuSans-65"/>
      <use x="653.236328" xlink:href="#DejaVuSans-72"/>
      <use x="694.349609" xlink:href="#DejaVuSans-61"/>
      <use x="755.628906" xlink:href="#DejaVuSans-67"/>
      <use x="819.105469" xlink:href="#DejaVuSans-65"/>
      <use x="880.628906" xlink:href="#DejaVuSans-20"/>
      <use x="912.416016" xlink:href="#DejaVuSans-28"/>
      <use x="951.429688" xlink:href="#DejaVuSans-25"/>
      <use x="1046.449219" xlink:href="#DejaVuSans-20"/>
      <use x="1078.236328" xlink:href="#DejaVuSans-6f"/>
      <use x="1139.417969" xlink:href="#DejaVuSans-66"/>
      <use x="1174.623047" xlink:href="#DejaVuSans-20"/>
      <use x="1206.410156" xlink:href="#DejaVuSans-31"/>
      <use x="1270.033203" xlink:href="#DejaVuSans-32"/>
      <use x="1333.65625" xlink:href="#DejaVuSans-2b"/>
      <use x="1417.445312" xlink:href="#DejaVuSans-20"/>
      <use x="1449.232422" xlink:href="#DejaVuSans-70"/>
      <use x="1512.708984" xlink:href="#DejaVuSans-6f"/>
      <use x="1573.890625" xlink:href="#DejaVuSans-70"/>
      <use x="1637.367188" xlink:href="#DejaVuSans-75"/>
      <use x="1700.746094" xlink:href="#DejaVuSans-6c"/>
      <use x="1728.529297" xlink:href="#DejaVuSans-61"/>
      <use x="1789.808594" xlink:href="#DejaVuSans-74"/>
      <use x="1829.017578" xlink:href="#DejaVuSans-69"/>
      <use x="1856.800781" xlink:href="#DejaVuSans-6f"/>
      <use x="1917.982422" xlink:href="#DejaVuSans-6e"/>
      <use x="1981.361328" xlink:href="#DejaVuSans-29"/>
     </g>
    </g>
   </g>
   <g id="line2d_47">
    <path clip-path="url(#p9c3660c12a)" d="M -1 299.394718 
L 1.101176 298.342543 
L 3.727059 297.701647 
L 6.352941 297.892678 
L 8.978824 297.93391 
L 11.604706 296.41471 
L 14.230588 294.702929 
L 16.856471 293.191779 
L 19.482353 291.998068 
L 22.108235 291.32352 
L 27.36 291.887848 
L 29.985882 290.321968 
L 32.611765 289.478572 
L 35.237647 289.561304 
L 40.489412 288.175396 
L 43.115294 287.47832 
L 48.367059 285.255511 
L 53.618824 283.002338 
L 56.244706 282.053686 
L 61.496471 280.623944 
L 64.122353 279.532289 
L 72 275.892465 
L 74.625882 274.844339 
L 79.877647 273.261896 
L 85.129412 270.611676 
L 90.381176 267.700539 
L 93.007059 266.444981 
L 98.258824 264.628222 
L 100.884706 263.277263 
L 106.136471 260.156769 
L 108.762353 258.600802 
L 111.388235 257.253373 
L 116.64 255.423751 
L 119.265882 253.999595 
L 124.517647 250.677118 
L 127.143529 248.889695 
L 129.769412 247.377302 
L 135.021176 245.234217 
L 137.647059 243.50094 
L 148.150588 235.58877 
L 150.776471 234.333253 
L 153.402353 232.892591 
L 156.028235 230.781032 
L 161.28 226.023305 
L 163.905882 223.578132 
L 166.531765 221.416662 
L 169.157647 219.781569 
L 171.783529 217.967543 
L 174.409412 215.565498 
L 182.287059 207.83463 
L 184.912941 205.498651 
L 190.164706 201.699118 
L 192.790588 199.251707 
L 198.042353 193.781382 
L 200.668235 191.265099 
L 203.294118 188.949129 
L 208.545882 185.530977 
L 211.171765 183.410751 
L 216.423529 178.502126 
L 219.049412 176.06503 
L 221.675294 174.000595 
L 224.301176 172.436639 
L 226.927059 170.533052 
L 229.552941 167.954263 
L 237.430588 160.718738 
L 240.056471 158.451588 
L 242.682353 156.629133 
L 245.308235 154.650344 
L 250.56 149.591948 
L 255.811765 144.522281 
L 258.437647 142.535026 
L 263.689412 139.417692 
L 268.941176 134.977258 
L 274.192941 130.445526 
L 276.818824 128.584842 
L 279.444706 127.296716 
L 282.070588 126.174577 
L 284.696471 124.636469 
L 289.948235 120.807041 
L 292.574118 119.028112 
L 295.2 117.550593 
L 300.451765 115.421765 
L 310.955294 109.685114 
L 313.581176 108.557091 
L 318.832941 106.87168 
L 329.336471 102.142183 
L 331.962353 101.175888 
L 337.214118 99.656936 
L 342.465882 97.780454 
L 345.091765 97.251396 
L 345.091765 97.251396 
" style="fill:none;stroke:#1f77b4;stroke-linecap:square;stroke-width:1.5;"/>
   </g>
   <g id="line2d_48">
    <path clip-path="url(#p9c3660c12a)" d="M -1 309.158277 
L 1.101176 308.340644 
L 3.727059 307.917575 
L 6.352941 308.21677 
L 8.978824 308.283486 
L 11.604706 307.046166 
L 16.856471 304.043217 
L 19.482353 302.889551 
L 22.108235 302.184203 
L 24.734118 302.264465 
L 27.36 302.213533 
L 29.985882 300.516369 
L 32.611765 299.227418 
L 35.237647 298.741086 
L 40.489412 296.860445 
L 43.115294 295.947607 
L 48.367059 293.171755 
L 53.618824 290.376625 
L 56.244706 289.151628 
L 61.496471 287.154276 
L 66.748235 284.005786 
L 72 280.967808 
L 74.625882 279.664037 
L 79.877647 277.82905 
L 82.503529 276.320161 
L 85.129412 274.537036 
L 90.381176 270.722937 
L 93.007059 269.076106 
L 98.258824 266.917136 
L 100.884706 265.226315 
L 103.510588 262.722644 
L 106.136471 259.884448 
L 108.762353 257.55206 
L 111.388235 255.580303 
L 116.64 253.144458 
L 119.265882 251.006985 
L 124.517647 246.070902 
L 127.143529 243.469458 
L 129.769412 241.340432 
L 132.395294 239.972675 
L 135.021176 238.426297 
L 137.647059 235.742668 
L 142.898824 229.583149 
L 145.524706 226.594841 
L 148.150588 223.974976 
L 150.776471 222.06665 
L 153.402353 219.901901 
L 156.028235 216.930459 
L 158.654118 213.546435 
L 163.905882 206.301725 
L 166.531765 203.064138 
L 169.157647 200.583738 
L 171.783529 197.734568 
L 174.409412 194.010266 
L 182.287059 181.977796 
L 184.912941 178.662579 
L 187.538824 176.229699 
L 190.164706 173.12609 
L 195.416471 165.648706 
L 198.042353 162.058959 
L 203.294118 155.559401 
L 205.92 153.107124 
L 208.545882 151.113959 
L 211.171765 148.817241 
L 216.423529 143.665192 
L 219.049412 141.095125 
L 221.675294 139.06751 
L 224.301176 137.748008 
L 226.927059 135.790672 
L 229.552941 132.896883 
L 234.804706 128.196612 
L 237.430588 125.906297 
L 240.056471 123.77828 
L 245.308235 120.701477 
L 255.811765 111.481288 
L 258.437647 109.562225 
L 263.689412 106.847263 
L 274.192941 98.629319 
L 276.818824 97.086839 
L 279.444706 96.219324 
L 282.070588 95.694262 
L 284.696471 94.716896 
L 289.948235 91.442933 
L 292.574118 89.963862 
L 295.2 88.775538 
L 300.451765 87.244786 
L 308.329412 83.726297 
L 310.955294 82.742699 
L 313.581176 81.99232 
L 318.832941 81.081856 
L 326.710588 79.051263 
L 329.336471 78.473194 
L 331.962353 78.054902 
L 337.214118 77.570978 
L 342.465882 76.854784 
L 345.091765 76.664101 
L 345.091765 76.664101 
" style="fill:none;stroke:#ff7f0e;stroke-linecap:square;stroke-width:1.5;"/>
   </g>
   <g id="line2d_49">
    <path clip-path="url(#p9c3660c12a)" d="M -1 284.316895 
L 1.101176 283.276154 
L 3.727059 282.627124 
L 6.352941 282.746905 
L 8.978824 282.717715 
L 14.230588 279.577256 
L 16.856471 278.614612 
L 19.482353 277.772902 
L 22.108235 277.286905 
L 27.36 277.365954 
L 29.985882 276.303774 
L 32.611765 276.52423 
L 35.237647 277.698246 
L 40.489412 277.037817 
L 43.115294 276.59846 
L 53.618824 273.553465 
L 56.244706 272.972691 
L 58.870588 272.576615 
L 61.496471 272.02612 
L 66.748235 270.287515 
L 74.625882 267.412071 
L 79.877647 265.828961 
L 93.007059 259.82444 
L 98.258824 258.006643 
L 100.884706 256.802845 
L 106.136471 254.959981 
L 111.388235 252.778782 
L 116.64 251.171564 
L 124.517647 247.961783 
L 129.769412 245.782999 
L 132.395294 244.994032 
L 135.021176 244.046833 
L 137.647059 242.720421 
L 142.898824 239.626279 
L 145.524706 237.94364 
L 148.150588 236.441888 
L 150.776471 235.530825 
L 153.402353 234.416946 
L 158.654118 230.686197 
L 163.905882 227.019153 
L 166.531765 225.397265 
L 169.157647 224.105258 
L 171.783529 222.664976 
L 174.409412 220.711771 
L 177.035294 218.545396 
L 179.661176 216.637531 
L 182.287059 214.918955 
L 187.538824 210.245493 
L 190.164706 208.727648 
L 192.790588 206.652195 
L 195.416471 203.594349 
L 200.668235 198.294975 
L 203.294118 196.030239 
L 205.92 194.267834 
L 208.545882 192.318247 
L 211.171765 189.635303 
L 219.049412 180.495548 
L 221.675294 177.747818 
L 224.301176 175.464352 
L 226.927059 173.006035 
L 234.804706 163.688629 
L 240.056471 157.244707 
L 245.308235 151.76566 
L 250.56 145.067362 
L 253.185882 141.623743 
L 255.811765 138.604883 
L 258.437647 136.327018 
L 261.063529 134.33724 
L 263.689412 132.084723 
L 268.941176 126.451808 
L 274.192941 121.08182 
L 276.818824 118.749353 
L 282.070588 115.142777 
L 287.322353 110.621933 
L 292.574118 106.530378 
L 295.2 104.840414 
L 300.451765 102.348604 
L 305.703529 99.0449 
L 310.955294 95.755773 
L 313.581176 94.459712 
L 318.832941 92.674493 
L 329.336471 87.474831 
L 331.962353 86.4922 
L 337.214118 85.147738 
L 342.465882 83.481411 
L 345.091765 83.0509 
L 345.091765 83.0509 
" style="fill:none;stroke:#2ca02c;stroke-linecap:square;stroke-width:1.5;"/>
   </g>
   <g id="line2d_50">
    <path clip-path="url(#p9c3660c12a)" d="M -1 302.600743 
L 1.101176 301.252075 
L 3.727059 300.422725 
L 8.978824 301.456905 
L 11.604706 299.604756 
L 16.856471 295.250209 
L 19.482353 293.638891 
L 22.108235 292.800808 
L 24.734118 294.003594 
L 27.36 295.416233 
L 29.985882 293.490559 
L 32.611765 292.819445 
L 35.237647 293.721279 
L 40.489412 292.47687 
L 43.115294 291.971697 
L 45.741176 291.180865 
L 50.992941 288.944966 
L 53.618824 287.840248 
L 56.244706 286.964699 
L 61.496471 285.911745 
L 64.122353 285.150237 
L 69.374118 282.992147 
L 72 281.895246 
L 74.625882 281.004419 
L 79.877647 279.915143 
L 82.503529 279.113412 
L 87.755294 276.920969 
L 90.381176 275.790895 
L 93.007059 274.847334 
L 98.258824 273.58528 
L 100.884706 272.723951 
L 103.510588 272.185342 
L 106.136471 271.829783 
L 111.388235 269.97776 
L 116.64 268.726738 
L 119.265882 267.695602 
L 121.891765 266.31579 
L 129.769412 261.423066 
L 135.021176 259.558857 
L 137.647059 258.302249 
L 140.272941 256.755422 
L 145.524706 253.264649 
L 148.150588 251.772593 
L 153.402353 249.616118 
L 156.028235 248.090715 
L 161.28 244.469978 
L 163.905882 242.594546 
L 166.531765 240.884165 
L 171.783529 238.501602 
L 174.409412 236.96302 
L 179.661176 233.223801 
L 182.287059 231.355627 
L 184.912941 229.81823 
L 190.164706 227.524375 
L 192.790588 226.074778 
L 200.668235 221.091696 
L 203.294118 219.63041 
L 208.545882 217.511993 
L 211.171765 216.097207 
L 216.423529 212.704477 
L 219.049412 210.960851 
L 221.675294 209.384121 
L 224.301176 208.159029 
L 226.927059 206.74817 
L 240.056471 197.457105 
L 242.682353 196.309234 
L 245.308235 194.457749 
L 247.934118 191.369499 
L 255.811765 184.692534 
L 258.437647 182.843331 
L 263.689412 180.017793 
L 266.315294 178.17616 
L 271.567059 173.925127 
L 274.192941 171.670369 
L 276.818824 169.804756 
L 279.444706 168.534955 
L 282.070588 167.604558 
L 284.696471 166.455147 
L 292.574118 161.373654 
L 295.2 160.0351 
L 300.451765 157.922014 
L 308.329412 153.927585 
L 310.955294 152.668988 
L 313.581176 151.648959 
L 316.207059 150.859833 
L 318.832941 149.900643 
L 321.458824 148.632128 
L 326.710588 145.669551 
L 329.336471 144.126641 
L 331.962353 142.733704 
L 334.588235 141.482732 
L 342.465882 136.855781 
L 345.091765 135.997627 
L 345.091765 135.997627 
" style="fill:none;stroke:#d62728;stroke-linecap:square;stroke-width:1.5;"/>
   </g>
   <g id="line2d_51">
    <path clip-path="url(#p9c3660c12a)" d="M -1 310.008954 
L 1.101176 309.312361 
L 3.727059 309.001791 
L 6.352941 308.355186 
L 8.978824 307.353843 
L 11.604706 306.210614 
L 16.856471 304.188623 
L 19.482353 303.438544 
L 22.108235 303.180085 
L 24.734118 302.486996 
L 27.36 301.395129 
L 35.237647 297.291158 
L 37.863529 296.26007 
L 43.115294 294.675124 
L 45.741176 293.581567 
L 53.618824 289.773608 
L 56.244706 288.731057 
L 61.496471 287.325795 
L 64.122353 286.402685 
L 74.625882 282.185291 
L 79.877647 280.631274 
L 85.129412 278.502581 
L 90.381176 276.079427 
L 93.007059 275.047792 
L 103.510588 271.781764 
L 106.136471 271.08107 
L 111.388235 268.776783 
L 119.265882 266.21237 
L 121.891765 265.117964 
L 127.143529 262.542808 
L 129.769412 261.475209 
L 135.021176 259.922627 
L 137.647059 258.91048 
L 142.898824 256.373087 
L 145.524706 255.076322 
L 148.150588 253.916005 
L 150.776471 252.985804 
L 153.402353 251.866293 
L 156.028235 250.266204 
L 158.654118 248.435258 
L 161.28 246.355668 
L 163.905882 244.419218 
L 166.531765 242.812999 
L 171.783529 240.044207 
L 177.035294 236.404774 
L 182.287059 232.568405 
L 184.912941 230.833147 
L 187.538824 229.417523 
L 190.164706 227.872681 
L 192.790588 226.027904 
L 200.668235 219.980212 
L 203.294118 218.324225 
L 208.545882 215.60703 
L 211.171765 213.977867 
L 219.049412 208.675389 
L 221.675294 207.267509 
L 226.927059 204.88124 
L 232.178824 201.606545 
L 237.430588 198.409681 
L 240.056471 197.049984 
L 242.682353 195.971877 
L 245.308235 194.739999 
L 247.934118 192.945531 
L 255.811765 186.772295 
L 258.437647 185.15708 
L 261.063529 184.092942 
L 263.689412 183.287854 
L 266.315294 182.107436 
L 268.941176 180.25071 
L 274.192941 176.174154 
L 276.818824 174.490621 
L 282.070588 171.718879 
L 284.696471 169.808497 
L 292.574118 163.411082 
L 295.2 161.534381 
L 300.451765 158.909671 
L 313.581176 150.100565 
L 318.832941 147.723643 
L 324.084706 144.808849 
L 329.336471 141.563599 
L 331.962353 140.153772 
L 337.214118 138.082357 
L 342.465882 135.214281 
L 345.091765 134.384351 
L 345.091765 134.384351 
" style="fill:none;stroke:#9467bd;stroke-linecap:square;stroke-width:1.5;"/>
   </g>
   <g id="line2d_52">
    <path clip-path="url(#p9c3660c12a)" d="M -1 298.968025 
L 1.101176 297.56411 
L 3.727059 296.529661 
L 6.352941 296.359293 
L 8.978824 295.924726 
L 11.604706 293.833819 
L 16.856471 289.145257 
L 19.482353 287.391812 
L 22.108235 286.406048 
L 24.734118 287.055609 
L 27.36 287.886876 
L 29.985882 286.1152 
L 32.611765 285.323133 
L 35.237647 285.767638 
L 43.115294 283.680846 
L 48.367059 281.324143 
L 53.618824 279.057792 
L 56.244706 278.265432 
L 61.496471 277.123755 
L 64.122353 276.180697 
L 72 272.89914 
L 74.625882 271.993041 
L 79.877647 270.519025 
L 82.503529 269.342822 
L 87.755294 266.373346 
L 90.381176 264.879763 
L 93.007059 263.67954 
L 98.258824 261.970164 
L 106.136471 258.114308 
L 108.762353 256.821673 
L 111.388235 255.756993 
L 114.014118 255.075018 
L 116.64 254.272623 
L 119.265882 253.027481 
L 127.143529 248.923903 
L 129.769412 247.823825 
L 135.021176 246.168005 
L 140.272941 243.519963 
L 145.524706 240.847796 
L 148.150588 239.727402 
L 153.402353 238.102468 
L 156.028235 236.794448 
L 166.531765 230.745141 
L 171.783529 228.777338 
L 174.409412 227.370416 
L 182.287059 222.722032 
L 184.912941 221.481072 
L 190.164706 219.638607 
L 192.790588 218.219406 
L 198.042353 214.803095 
L 200.668235 213.0009 
L 203.294118 211.399506 
L 208.545882 208.995375 
L 211.171765 207.26079 
L 219.049412 201.172744 
L 221.675294 199.579686 
L 224.301176 198.37284 
L 226.927059 197.00507 
L 232.178824 193.347269 
L 237.430588 189.564071 
L 240.056471 187.851972 
L 245.308235 185.268613 
L 247.934118 183.549159 
L 255.811765 177.686041 
L 258.437647 176.116148 
L 261.063529 174.940703 
L 263.689412 173.587826 
L 268.941176 169.71582 
L 274.192941 165.758996 
L 276.818824 164.106873 
L 279.444706 162.98423 
L 282.070588 161.993654 
L 284.696471 160.560806 
L 292.574118 153.973457 
L 295.2 152.175394 
L 300.451765 149.526814 
L 305.703529 145.738252 
L 310.955294 141.967383 
L 313.581176 140.348696 
L 318.832941 137.780728 
L 329.336471 131.078937 
L 331.962353 129.587389 
L 334.588235 128.245356 
L 337.214118 127.058677 
L 342.465882 124.252376 
L 345.091765 123.349131 
L 345.091765 123.349131 
" style="fill:none;stroke:#8c564b;stroke-linecap:square;stroke-width:1.5;"/>
   </g>
   <g id="line2d_53">
    <path clip-path="url(#p9c3660c12a)" d="M -1 272.054174 
L 1.101176 270.152974 
L 3.727059 268.407379 
L 6.352941 269.90624 
L 8.978824 272.462138 
L 11.604706 270.567182 
L 14.230588 267.996076 
L 16.856471 265.759395 
L 19.482353 263.83928 
L 22.108235 262.277233 
L 24.734118 263.312007 
L 27.36 265.067528 
L 29.985882 263.433701 
L 32.611765 263.211561 
L 35.237647 264.626991 
L 40.489412 264.026481 
L 43.115294 263.189705 
L 45.741176 261.905078 
L 50.992941 260.90731 
L 53.618824 260.38321 
L 56.244706 258.931303 
L 58.870588 256.957018 
L 61.496471 255.849151 
L 66.748235 253.282513 
L 72 250.751209 
L 74.625882 249.956036 
L 77.251765 249.576906 
L 79.877647 248.61417 
L 82.503529 246.899919 
L 87.755294 244.124912 
L 90.381176 242.564987 
L 93.007059 241.456252 
L 95.632941 241.006755 
L 98.258824 240.023212 
L 100.884706 238.21591 
L 103.510588 237.110143 
L 106.136471 236.190507 
L 108.762353 234.746536 
L 111.388235 233.544012 
L 114.014118 232.568383 
L 116.64 231.81596 
L 119.265882 230.82768 
L 121.891765 229.634477 
L 129.769412 225.629816 
L 132.395294 224.596935 
L 135.021176 223.743007 
L 140.272941 221.678953 
L 148.150588 218.168675 
L 150.776471 217.379915 
L 153.402353 216.449429 
L 158.654118 213.878691 
L 163.905882 211.164253 
L 166.531765 210.035948 
L 169.157647 209.237301 
L 171.783529 208.278591 
L 184.912941 201.270084 
L 187.538824 199.894213 
L 190.164706 198.277353 
L 198.042353 192.665439 
L 203.294118 188.957953 
L 205.92 187.711309 
L 208.545882 186.759046 
L 211.171765 185.338077 
L 213.797647 183.36926 
L 219.049412 178.901046 
L 221.675294 176.97536 
L 224.301176 175.515917 
L 226.927059 173.912054 
L 229.552941 170.962924 
L 232.178824 168.210053 
L 237.430588 163.174253 
L 240.056471 161.076728 
L 242.682353 159.565264 
L 245.308235 158.329414 
L 247.934118 156.800695 
L 250.56 154.965089 
L 255.811765 150.808103 
L 258.437647 149.166242 
L 263.689412 146.668154 
L 271.567059 141.881954 
L 274.192941 140.149443 
L 276.818824 139.04615 
L 279.444706 138.469442 
L 282.070588 137.209266 
L 284.696471 135.14008 
L 287.322353 133.501766 
L 289.948235 132.082506 
L 295.2 129.494167 
L 297.825882 128.064949 
L 303.077647 124.739118 
L 308.329412 120.771563 
L 313.581176 116.879523 
L 316.207059 115.07102 
L 318.832941 113.114619 
L 324.084706 107.875415 
L 326.710588 105.856161 
L 329.336471 104.298415 
L 331.962353 102.910947 
L 339.84 99.477173 
L 342.465882 98.257347 
L 345.091765 97.590106 
L 345.091765 97.590106 
" style="fill:none;stroke:#e377c2;stroke-linecap:square;stroke-width:1.5;"/>
   </g>
   <g id="line2d_54">
    <path clip-path="url(#p9c3660c12a)" d="M -1 312.793874 
L 1.101176 311.323599 
L 3.727059 309.89243 
L 6.352941 310.480054 
L 8.978824 311.867991 
L 11.604706 310.451365 
L 19.482353 304.673652 
L 22.108235 303.394293 
L 24.734118 304.030528 
L 27.36 305.175226 
L 29.985882 303.002034 
L 32.611765 296.510009 
L 35.237647 288.159056 
L 37.863529 285.378913 
L 40.489412 284.651224 
L 43.115294 283.027857 
L 45.741176 280.675032 
L 48.367059 278.917255 
L 50.992941 277.020767 
L 56.244706 274.001748 
L 58.870588 273.325256 
L 61.496471 272.019601 
L 64.122353 269.814999 
L 66.748235 268.201172 
L 72 265.893927 
L 74.625882 264.825669 
L 77.251765 264.115369 
L 79.877647 260.935128 
L 82.503529 256.071284 
L 85.129412 254.280541 
L 87.755294 252.766801 
L 90.381176 251.070454 
L 95.632941 249.708073 
L 98.258824 246.472802 
L 100.884706 241.368213 
L 103.510588 239.608245 
L 106.136471 239.115415 
L 108.762353 237.74555 
L 111.388235 235.780139 
L 114.014118 234.645092 
L 116.64 232.961267 
L 119.265882 230.325381 
L 121.891765 228.849559 
L 124.517647 228.014013 
L 127.143529 226.903234 
L 129.769412 225.398672 
L 132.395294 224.340751 
L 135.021176 222.972654 
L 137.647059 221.167823 
L 142.898824 218.841768 
L 145.524706 217.064393 
L 148.150588 215.005979 
L 150.776471 214.229329 
L 153.402353 213.207141 
L 156.028235 210.849486 
L 158.654118 208.145546 
L 161.28 205.612842 
L 163.905882 202.212841 
L 166.531765 199.540013 
L 169.157647 198.399521 
L 171.783529 196.368833 
L 174.409412 193.288671 
L 177.035294 191.07337 
L 182.287059 185.50936 
L 184.912941 183.944036 
L 187.538824 183.072076 
L 190.164706 182.060217 
L 192.790588 179.6287 
L 195.416471 176.275201 
L 198.042353 173.697788 
L 203.294118 168.947813 
L 205.92 167.214776 
L 208.545882 165.326466 
L 211.171765 162.672482 
L 213.797647 159.747702 
L 219.049412 154.338323 
L 221.675294 151.847754 
L 224.301176 149.59942 
L 226.927059 146.971469 
L 240.056471 131.449941 
L 242.682353 128.705673 
L 245.308235 125.749139 
L 250.56 119.16218 
L 253.185882 115.497245 
L 258.437647 107.87004 
L 263.689412 100.843867 
L 266.315294 97.0265 
L 271.567059 90.138912 
L 274.192941 86.077639 
L 276.818824 82.659338 
L 279.444706 79.89348 
L 282.070588 77.561944 
L 284.696471 74.931695 
L 287.322353 71.783416 
L 289.948235 69.063826 
L 292.574118 66.95104 
L 295.2 65.465878 
L 297.825882 64.276162 
L 305.703529 61.288669 
L 308.329412 61.309722 
L 310.955294 61.807896 
L 318.832941 60.100764 
L 326.710588 57.902923 
L 329.336471 57.319278 
L 334.588235 56.533325 
L 345.091765 55.088286 
L 345.091765 55.088286 
" style="fill:none;stroke:#7f7f7f;stroke-linecap:square;stroke-width:1.5;"/>
   </g>
   <g id="line2d_55">
    <path clip-path="url(#p9c3660c12a)" d="M -1 314.067279 
L 1.101176 312.461396 
L 6.352941 311.360927 
L 8.978824 309.434382 
L 11.604706 307.310455 
L 14.230588 306.292949 
L 16.856471 304.60677 
L 19.482353 303.203544 
L 22.108235 302.656272 
L 24.734118 302.943086 
L 27.36 302.777131 
L 29.985882 299.643755 
L 32.611765 294.888915 
L 35.237647 290.909499 
L 37.863529 289.403014 
L 40.489412 288.945063 
L 43.115294 288.137955 
L 45.741176 286.570543 
L 48.367059 284.744223 
L 53.618824 280.78524 
L 56.244706 279.422299 
L 61.496471 278.028975 
L 64.122353 276.808244 
L 66.748235 275.13403 
L 69.374118 273.114152 
L 72 271.253975 
L 74.625882 269.981737 
L 79.877647 268.853505 
L 82.503529 267.833335 
L 85.129412 266.097921 
L 87.755294 263.964133 
L 90.381176 262.479397 
L 98.258824 259.987273 
L 100.884706 258.993337 
L 106.136471 257.502665 
L 108.762353 256.004752 
L 111.388235 254.700661 
L 114.014118 253.987462 
L 116.64 253.472889 
L 119.265882 252.719102 
L 121.891765 251.438978 
L 127.143529 248.151862 
L 129.769412 246.871855 
L 132.395294 246.215075 
L 135.021176 245.305066 
L 137.647059 243.702977 
L 140.272941 241.959751 
L 145.524706 238.137403 
L 148.150588 236.742747 
L 150.776471 236.03689 
L 153.402353 235.123069 
L 156.028235 233.408144 
L 158.654118 231.276897 
L 163.905882 226.67187 
L 166.531765 225.01652 
L 171.783529 223.265236 
L 174.409412 221.834706 
L 177.035294 220.186354 
L 179.661176 218.388328 
L 182.287059 216.764432 
L 184.912941 215.627386 
L 190.164706 214.03568 
L 192.790588 212.697628 
L 200.668235 207.989289 
L 203.294118 206.787597 
L 208.545882 205.318675 
L 211.171765 204.139988 
L 213.797647 202.605989 
L 219.049412 199.182305 
L 221.675294 197.942261 
L 224.301176 197.168158 
L 226.927059 194.947499 
L 229.552941 191.706602 
L 237.430588 186.600695 
L 240.056471 185.14723 
L 245.308235 183.452305 
L 247.934118 182.24454 
L 253.185882 179.170576 
L 255.811765 177.615152 
L 258.437647 176.447896 
L 263.689412 175.144112 
L 266.315294 174.212789 
L 268.941176 173.09846 
L 271.567059 171.83279 
L 274.192941 170.942012 
L 279.444706 170.003052 
L 282.070588 169.371077 
L 287.322353 167.422158 
L 292.574118 165.211585 
L 295.2 164.355167 
L 300.451765 163.463721 
L 303.077647 162.562312 
L 305.703529 161.406538 
L 308.329412 159.921512 
L 310.955294 158.216162 
L 313.581176 156.791904 
L 316.207059 155.969205 
L 318.832941 154.860732 
L 324.084706 151.223504 
L 329.336471 147.139447 
L 331.962353 145.706206 
L 334.588235 144.93457 
L 337.214118 143.937283 
L 342.465882 140.661725 
L 345.091765 139.593169 
L 345.091765 139.593169 
" style="fill:none;stroke:#bcbd22;stroke-linecap:square;stroke-width:1.5;"/>
   </g>
   <g id="patch_3">
    <path d="M 72 384.48 
L 72 51.84 
" style="fill:none;stroke:#000000;stroke-linecap:square;stroke-linejoin:miter;stroke-width:0.8;"/>
   </g>
   <g id="patch_4">
    <path d="M 518.4 384.48 
L 518.4 51.84 
" style="fill:none;stroke:#000000;stroke-linecap:square;stroke-linejoin:miter;stroke-width:0.8;"/>
   </g>
   <g id="patch_5">
    <path d="M 72 384.48 
L 518.4 384.48 
" style="fill:none;stroke:#000000;stroke-linecap:square;stroke-linejoin:miter;stroke-width:0.8;"/>
   </g>
   <g id="patch_6">
    <path d="M 72 51.84 
L 518.4 51.84 
" style="fill:none;stroke:#000000;stroke-linecap:square;stroke-linejoin:miter;stroke-width:0.8;"/>
   </g>
   <g id="text_26">
    <!-- First dose coverage by state/territory -->
    <g transform="translate(183.629062 45.84)scale(0.12 -0.12)">
     <defs>
      <path d="M 628 4666 
L 3309 4666 
L 3309 4134 
L 1259 4134 
L 1259 2759 
L 3109 2759 
L 3109 2228 
L 1259 2228 
L 1259 0 
L 628 0 
L 628 4666 
z
" id="DejaVuSans-46" transform="scale(0.015625)"/>
      <path d="M 2834 3397 
L 2834 2853 
Q 2591 2978 2328 3040 
Q 2066 3103 1784 3103 
Q 1356 3103 1142 2972 
Q 928 2841 928 2578 
Q 928 2378 1081 2264 
Q 1234 2150 1697 2047 
L 1894 2003 
Q 2506 1872 2764 1633 
Q 3022 1394 3022 966 
Q 3022 478 2636 193 
Q 2250 -91 1575 -91 
Q 1294 -91 989 -36 
Q 684 19 347 128 
L 347 722 
Q 666 556 975 473 
Q 1284 391 1588 391 
Q 1994 391 2212 530 
Q 2431 669 2431 922 
Q 2431 1156 2273 1281 
Q 2116 1406 1581 1522 
L 1381 1569 
Q 847 1681 609 1914 
Q 372 2147 372 2553 
Q 372 3047 722 3315 
Q 1072 3584 1716 3584 
Q 2034 3584 2315 3537 
Q 2597 3491 2834 3397 
z
" id="DejaVuSans-73" transform="scale(0.015625)"/>
      <path d="M 2906 2969 
L 2906 4863 
L 3481 4863 
L 3481 0 
L 2906 0 
L 2906 525 
Q 2725 213 2448 61 
Q 2172 -91 1784 -91 
Q 1150 -91 751 415 
Q 353 922 353 1747 
Q 353 2572 751 3078 
Q 1150 3584 1784 3584 
Q 2172 3584 2448 3432 
Q 2725 3281 2906 2969 
z
M 947 1747 
Q 947 1113 1208 752 
Q 1469 391 1925 391 
Q 2381 391 2643 752 
Q 2906 1113 2906 1747 
Q 2906 2381 2643 2742 
Q 2381 3103 1925 3103 
Q 1469 3103 1208 2742 
Q 947 2381 947 1747 
z
" id="DejaVuSans-64" transform="scale(0.015625)"/>
      <path d="M 3116 1747 
Q 3116 2381 2855 2742 
Q 2594 3103 2138 3103 
Q 1681 3103 1420 2742 
Q 1159 2381 1159 1747 
Q 1159 1113 1420 752 
Q 1681 391 2138 391 
Q 2594 391 2855 752 
Q 3116 1113 3116 1747 
z
M 1159 2969 
Q 1341 3281 1617 3432 
Q 1894 3584 2278 3584 
Q 2916 3584 3314 3078 
Q 3713 2572 3713 1747 
Q 3713 922 3314 415 
Q 2916 -91 2278 -91 
Q 1894 -91 1617 61 
Q 1341 213 1159 525 
L 1159 0 
L 581 0 
L 581 4863 
L 1159 4863 
L 1159 2969 
z
" id="DejaVuSans-62" transform="scale(0.015625)"/>
      <path d="M 2059 -325 
Q 1816 -950 1584 -1140 
Q 1353 -1331 966 -1331 
L 506 -1331 
L 506 -850 
L 844 -850 
Q 1081 -850 1212 -737 
Q 1344 -625 1503 -206 
L 1606 56 
L 191 3500 
L 800 3500 
L 1894 763 
L 2988 3500 
L 3597 3500 
L 2059 -325 
z
" id="DejaVuSans-79" transform="scale(0.015625)"/>
      <path d="M 1625 4666 
L 2156 4666 
L 531 -594 
L 0 -594 
L 1625 4666 
z
" id="DejaVuSans-2f" transform="scale(0.015625)"/>
     </defs>
     <use xlink:href="#DejaVuSans-46"/>
     <use x="50.269531" xlink:href="#DejaVuSans-69"/>
     <use x="78.052734" xlink:href="#DejaVuSans-72"/>
     <use x="119.166016" xlink:href="#DejaVuSans-73"/>
     <use x="171.265625" xlink:href="#DejaVuSans-74"/>
     <use x="210.474609" xlink:href="#DejaVuSans-20"/>
     <use x="242.261719" xlink:href="#DejaVuSans-64"/>
     <use x="305.738281" xlink:href="#DejaVuSans-6f"/>
     <use x="366.919922" xlink:href="#DejaVuSans-73"/>
     <use x="419.019531" xlink:href="#DejaVuSans-65"/>
     <use x="480.542969" xlink:href="#DejaVuSans-20"/>
     <use x="512.330078" xlink:href="#DejaVuSans-63"/>
     <use x="567.310547" xlink:href="#DejaVuSans-6f"/>
     <use x="628.492188" xlink:href="#DejaVuSans-76"/>
     <use x="687.671875" xlink:href="#DejaVuSans-65"/>
     <use x="749.195312" xlink:href="#DejaVuSans-72"/>
     <use x="790.308594" xlink:href="#DejaVuSans-61"/>
     <use x="851.587891" xlink:href="#DejaVuSans-67"/>
     <use x="915.064453" xlink:href="#DejaVuSans-65"/>
     <use x="976.587891" xlink:href="#DejaVuSans-20"/>
     <use x="1008.375" xlink:href="#DejaVuSans-62"/>
     <use x="1071.851562" xlink:href="#DejaVuSans-79"/>
     <use x="1131.03125" xlink:href="#DejaVuSans-20"/>
     <use x="1162.818359" xlink:href="#DejaVuSans-73"/>
     <use x="1214.917969" xlink:href="#DejaVuSans-74"/>
     <use x="1254.126953" xlink:href="#DejaVuSans-61"/>
     <use x="1315.40625" xlink:href="#DejaVuSans-74"/>
     <use x="1354.615234" xlink:href="#DejaVuSans-65"/>
     <use x="1416.138672" xlink:href="#DejaVuSans-2f"/>
     <use x="1449.830078" xlink:href="#DejaVuSans-74"/>
     <use x="1489.039062" xlink:href="#DejaVuSans-65"/>
     <use x="1550.5625" xlink:href="#DejaVuSans-72"/>
     <use x="1589.925781" xlink:href="#DejaVuSans-72"/>
     <use x="1631.039062" xlink:href="#DejaVuSans-69"/>
     <use x="1658.822266" xlink:href="#DejaVuSans-74"/>
     <use x="1698.03125" xlink:href="#DejaVuSans-6f"/>
     <use x="1759.212891" xlink:href="#DejaVuSans-72"/>
     <use x="1800.326172" xlink:href="#DejaVuSans-79"/>
    </g>
   </g>
   <g id="legend_1">
    <g id="patch_7">
     <path d="M 404.462812 177.932812 
L 512.1 177.932812 
Q 513.9 177.932812 513.9 176.132812 
L 513.9 58.14 
Q 513.9 56.34 512.1 56.34 
L 404.462812 56.34 
Q 402.662812 56.34 402.662812 58.14 
L 402.662812 176.132812 
Q 402.662812 177.932812 404.462812 177.932812 
z
" style="fill:#ffffff;opacity:0.8;stroke:#cccccc;stroke-linejoin:miter;"/>
    </g>
    <g id="line2d_56">
     <path d="M 406.262812 63.628594 
L 424.262812 63.628594 
" style="fill:none;stroke:#1f77b4;stroke-linecap:square;stroke-width:1.5;"/>
    </g>
    <g id="line2d_57"/>
    <g id="text_27">
     <!-- National (86.4 %) -->
     <g transform="translate(431.462812 66.778594)scale(0.09 -0.09)">
      <defs>
       <path d="M 684 794 
L 1344 794 
L 1344 0 
L 684 0 
L 684 794 
z
" id="DejaVuSans-2e" transform="scale(0.015625)"/>
      </defs>
      <use xlink:href="#DejaVuSans-4e"/>
      <use x="74.804688" xlink:href="#DejaVuSans-61"/>
      <use x="136.083984" xlink:href="#DejaVuSans-74"/>
      <use x="175.292969" xlink:href="#DejaVuSans-69"/>
      <use x="203.076172" xlink:href="#DejaVuSans-6f"/>
      <use x="264.257812" xlink:href="#DejaVuSans-6e"/>
      <use x="327.636719" xlink:href="#DejaVuSans-61"/>
      <use x="388.916016" xlink:href="#DejaVuSans-6c"/>
      <use x="416.699219" xlink:href="#DejaVuSans-20"/>
      <use x="448.486328" xlink:href="#DejaVuSans-28"/>
      <use x="487.5" xlink:href="#DejaVuSans-38"/>
      <use x="551.123047" xlink:href="#DejaVuSans-36"/>
      <use x="614.746094" xlink:href="#DejaVuSans-2e"/>
      <use x="646.533203" xlink:href="#DejaVuSans-34"/>
      <use x="710.15625" xlink:href="#DejaVuSans-20"/>
      <use x="741.943359" xlink:href="#DejaVuSans-25"/>
      <use x="836.962891" xlink:href="#DejaVuSans-29"/>
     </g>
    </g>
    <g id="line2d_58">
     <path d="M 406.262812 76.838906 
L 424.262812 76.838906 
" style="fill:none;stroke:#ff7f0e;stroke-linecap:square;stroke-width:1.5;"/>
    </g>
    <g id="line2d_59"/>
    <g id="text_28">
     <!-- NSW (92.6 %) -->
     <g transform="translate(431.462812 79.988906)scale(0.09 -0.09)">
      <defs>
       <path d="M 213 4666 
L 850 4666 
L 1831 722 
L 2809 4666 
L 3519 4666 
L 4500 722 
L 5478 4666 
L 6119 4666 
L 4947 0 
L 4153 0 
L 3169 4050 
L 2175 0 
L 1381 0 
L 213 4666 
z
" id="DejaVuSans-57" transform="scale(0.015625)"/>
      </defs>
      <use xlink:href="#DejaVuSans-4e"/>
      <use x="74.804688" xlink:href="#DejaVuSans-53"/>
      <use x="138.28125" xlink:href="#DejaVuSans-57"/>
      <use x="237.158203" xlink:href="#DejaVuSans-20"/>
      <use x="268.945312" xlink:href="#DejaVuSans-28"/>
      <use x="307.958984" xlink:href="#DejaVuSans-39"/>
      <use x="371.582031" xlink:href="#DejaVuSans-32"/>
      <use x="435.205078" xlink:href="#DejaVuSans-2e"/>
      <use x="466.992188" xlink:href="#DejaVuSans-36"/>
      <use x="530.615234" xlink:href="#DejaVuSans-20"/>
      <use x="562.402344" xlink:href="#DejaVuSans-25"/>
      <use x="657.421875" xlink:href="#DejaVuSans-29"/>
     </g>
    </g>
    <g id="line2d_60">
     <path d="M 406.262812 90.049219 
L 424.262812 90.049219 
" style="fill:none;stroke:#2ca02c;stroke-linecap:square;stroke-width:1.5;"/>
    </g>
    <g id="line2d_61"/>
    <g id="text_29">
     <!-- VIC (90.6 %) -->
     <g transform="translate(431.462812 93.199219)scale(0.09 -0.09)">
      <defs>
       <path d="M 628 4666 
L 1259 4666 
L 1259 0 
L 628 0 
L 628 4666 
z
" id="DejaVuSans-49" transform="scale(0.015625)"/>
       <path d="M 4122 4306 
L 4122 3641 
Q 3803 3938 3442 4084 
Q 3081 4231 2675 4231 
Q 1875 4231 1450 3742 
Q 1025 3253 1025 2328 
Q 1025 1406 1450 917 
Q 1875 428 2675 428 
Q 3081 428 3442 575 
Q 3803 722 4122 1019 
L 4122 359 
Q 3791 134 3420 21 
Q 3050 -91 2638 -91 
Q 1578 -91 968 557 
Q 359 1206 359 2328 
Q 359 3453 968 4101 
Q 1578 4750 2638 4750 
Q 3056 4750 3426 4639 
Q 3797 4528 4122 4306 
z
" id="DejaVuSans-43" transform="scale(0.015625)"/>
      </defs>
      <use xlink:href="#DejaVuSans-56"/>
      <use x="68.408203" xlink:href="#DejaVuSans-49"/>
      <use x="97.900391" xlink:href="#DejaVuSans-43"/>
      <use x="167.724609" xlink:href="#DejaVuSans-20"/>
      <use x="199.511719" xlink:href="#DejaVuSans-28"/>
      <use x="238.525391" xlink:href="#DejaVuSans-39"/>
      <use x="302.148438" xlink:href="#DejaVuSans-30"/>
      <use x="365.771484" xlink:href="#DejaVuSans-2e"/>
      <use x="397.558594" xlink:href="#DejaVuSans-36"/>
      <use x="461.181641" xlink:href="#DejaVuSans-20"/>
      <use x="492.96875" xlink:href="#DejaVuSans-25"/>
      <use x="587.988281" xlink:href="#DejaVuSans-29"/>
     </g>
    </g>
    <g id="line2d_62">
     <path d="M 406.262812 103.259531 
L 424.262812 103.259531 
" style="fill:none;stroke:#d62728;stroke-linecap:square;stroke-width:1.5;"/>
    </g>
    <g id="line2d_63"/>
    <g id="text_30">
     <!-- QLD (74.8 %) -->
     <g transform="translate(431.462812 106.409531)scale(0.09 -0.09)">
      <defs>
       <path d="M 2522 4238 
Q 1834 4238 1429 3725 
Q 1025 3213 1025 2328 
Q 1025 1447 1429 934 
Q 1834 422 2522 422 
Q 3209 422 3611 934 
Q 4013 1447 4013 2328 
Q 4013 3213 3611 3725 
Q 3209 4238 2522 4238 
z
M 3406 84 
L 4238 -825 
L 3475 -825 
L 2784 -78 
Q 2681 -84 2626 -87 
Q 2572 -91 2522 -91 
Q 1538 -91 948 567 
Q 359 1225 359 2328 
Q 359 3434 948 4092 
Q 1538 4750 2522 4750 
Q 3503 4750 4090 4092 
Q 4678 3434 4678 2328 
Q 4678 1516 4351 937 
Q 4025 359 3406 84 
z
" id="DejaVuSans-51" transform="scale(0.015625)"/>
       <path d="M 628 4666 
L 1259 4666 
L 1259 531 
L 3531 531 
L 3531 0 
L 628 0 
L 628 4666 
z
" id="DejaVuSans-4c" transform="scale(0.015625)"/>
      </defs>
      <use xlink:href="#DejaVuSans-51"/>
      <use x="78.710938" xlink:href="#DejaVuSans-4c"/>
      <use x="134.423828" xlink:href="#DejaVuSans-44"/>
      <use x="211.425781" xlink:href="#DejaVuSans-20"/>
      <use x="243.212891" xlink:href="#DejaVuSans-28"/>
      <use x="282.226562" xlink:href="#DejaVuSans-37"/>
      <use x="345.849609" xlink:href="#DejaVuSans-34"/>
      <use x="409.472656" xlink:href="#DejaVuSans-2e"/>
      <use x="441.259766" xlink:href="#DejaVuSans-38"/>
      <use x="504.882812" xlink:href="#DejaVuSans-20"/>
      <use x="536.669922" xlink:href="#DejaVuSans-25"/>
      <use x="631.689453" xlink:href="#DejaVuSans-29"/>
     </g>
    </g>
    <g id="line2d_64">
     <path d="M 406.262812 116.469844 
L 424.262812 116.469844 
" style="fill:none;stroke:#9467bd;stroke-linecap:square;stroke-width:1.5;"/>
    </g>
    <g id="line2d_65"/>
    <g id="text_31">
     <!-- WA (75.2 %) -->
     <g transform="translate(431.462812 119.619844)scale(0.09 -0.09)">
      <use xlink:href="#DejaVuSans-57"/>
      <use x="93.376953" xlink:href="#DejaVuSans-41"/>
      <use x="161.785156" xlink:href="#DejaVuSans-20"/>
      <use x="193.572266" xlink:href="#DejaVuSans-28"/>
      <use x="232.585938" xlink:href="#DejaVuSans-37"/>
      <use x="296.208984" xlink:href="#DejaVuSans-35"/>
      <use x="359.832031" xlink:href="#DejaVuSans-2e"/>
      <use x="391.619141" xlink:href="#DejaVuSans-32"/>
      <use x="455.242188" xlink:href="#DejaVuSans-20"/>
      <use x="487.029297" xlink:href="#DejaVuSans-25"/>
      <use x="582.048828" xlink:href="#DejaVuSans-29"/>
     </g>
    </g>
    <g id="line2d_66">
     <path d="M 406.262812 129.680156 
L 424.262812 129.680156 
" style="fill:none;stroke:#8c564b;stroke-linecap:square;stroke-width:1.5;"/>
    </g>
    <g id="line2d_67"/>
    <g id="text_32">
     <!-- SA (78.6 %) -->
     <g transform="translate(431.462812 132.830156)scale(0.09 -0.09)">
      <use xlink:href="#DejaVuSans-53"/>
      <use x="65.351562" xlink:href="#DejaVuSans-41"/>
      <use x="133.759766" xlink:href="#DejaVuSans-20"/>
      <use x="165.546875" xlink:href="#DejaVuSans-28"/>
      <use x="204.560547" xlink:href="#DejaVuSans-37"/>
      <use x="268.183594" xlink:href="#DejaVuSans-38"/>
      <use x="331.806641" xlink:href="#DejaVuSans-2e"/>
      <use x="363.59375" xlink:href="#DejaVuSans-36"/>
      <use x="427.216797" xlink:href="#DejaVuSans-20"/>
      <use x="459.003906" xlink:href="#DejaVuSans-25"/>
      <use x="554.023438" xlink:href="#DejaVuSans-29"/>
     </g>
    </g>
    <g id="line2d_68">
     <path d="M 406.262812 142.890469 
L 424.262812 142.890469 
" style="fill:none;stroke:#e377c2;stroke-linecap:square;stroke-width:1.5;"/>
    </g>
    <g id="line2d_69"/>
    <g id="text_33">
     <!-- TAS (86.3 %) -->
     <g transform="translate(431.462812 146.040469)scale(0.09 -0.09)">
      <defs>
       <path d="M -19 4666 
L 3928 4666 
L 3928 4134 
L 2272 4134 
L 2272 0 
L 1638 0 
L 1638 4134 
L -19 4134 
L -19 4666 
z
" id="DejaVuSans-54" transform="scale(0.015625)"/>
      </defs>
      <use xlink:href="#DejaVuSans-54"/>
      <use x="53.333984" xlink:href="#DejaVuSans-41"/>
      <use x="121.742188" xlink:href="#DejaVuSans-53"/>
      <use x="185.21875" xlink:href="#DejaVuSans-20"/>
      <use x="217.005859" xlink:href="#DejaVuSans-28"/>
      <use x="256.019531" xlink:href="#DejaVuSans-38"/>
      <use x="319.642578" xlink:href="#DejaVuSans-36"/>
      <use x="383.265625" xlink:href="#DejaVuSans-2e"/>
      <use x="415.052734" xlink:href="#DejaVuSans-33"/>
      <use x="478.675781" xlink:href="#DejaVuSans-20"/>
      <use x="510.462891" xlink:href="#DejaVuSans-25"/>
      <use x="605.482422" xlink:href="#DejaVuSans-29"/>
     </g>
    </g>
    <g id="line2d_70">
     <path d="M 406.262812 156.100781 
L 424.262812 156.100781 
" style="fill:none;stroke:#7f7f7f;stroke-linecap:square;stroke-width:1.5;"/>
    </g>
    <g id="line2d_71"/>
    <g id="text_34">
     <!-- ACT (99.0 %) -->
     <g transform="translate(431.462812 159.250781)scale(0.09 -0.09)">
      <use xlink:href="#DejaVuSans-41"/>
      <use x="66.658203" xlink:href="#DejaVuSans-43"/>
      <use x="136.482422" xlink:href="#DejaVuSans-54"/>
      <use x="197.566406" xlink:href="#DejaVuSans-20"/>
      <use x="229.353516" xlink:href="#DejaVuSans-28"/>
      <use x="268.367188" xlink:href="#DejaVuSans-39"/>
      <use x="331.990234" xlink:href="#DejaVuSans-39"/>
      <use x="395.613281" xlink:href="#DejaVuSans-2e"/>
      <use x="427.400391" xlink:href="#DejaVuSans-30"/>
      <use x="491.023438" xlink:href="#DejaVuSans-20"/>
      <use x="522.810547" xlink:href="#DejaVuSans-25"/>
      <use x="617.830078" xlink:href="#DejaVuSans-29"/>
     </g>
    </g>
    <g id="line2d_72">
     <path d="M 406.262812 169.311094 
L 424.262812 169.311094 
" style="fill:none;stroke:#bcbd22;stroke-linecap:square;stroke-width:1.5;"/>
    </g>
    <g id="line2d_73"/>
    <g id="text_35">
     <!-- NT (73.7 %) -->
     <g transform="translate(431.462812 172.461094)scale(0.09 -0.09)">
      <use xlink:href="#DejaVuSans-4e"/>
      <use x="74.804688" xlink:href="#DejaVuSans-54"/>
      <use x="135.888672" xlink:href="#DejaVuSans-20"/>
      <use x="167.675781" xlink:href="#DejaVuSans-28"/>
      <use x="206.689453" xlink:href="#DejaVuSans-37"/>
      <use x="270.3125" xlink:href="#DejaVuSans-33"/>
      <use x="333.935547" xlink:href="#DejaVuSans-2e"/>
      <use x="365.722656" xlink:href="#DejaVuSans-37"/>
      <use x="429.345703" xlink:href="#DejaVuSans-20"/>
      <use x="461.132812" xlink:href="#DejaVuSans-25"/>
      <use x="556.152344" xlink:href="#DejaVuSans-29"/>
     </g>
    </g>
   </g>
  </g>
 </g>
 <defs>
  <clipPath id="p9c3660c12a">
   <rect height="332.64" width="446.4" x="72" y="51.84"/>
  </clipPath>
 </defs>
</svg>
