<?xml version="1.0" encoding="utf-8" standalone="no"?>
<!DOCTYPE svg PUBLIC "-//W3C//DTD SVG 1.1//EN"
  "http://www.w3.org/Graphics/SVG/1.1/DTD/svg11.dtd">
<svg height="432pt" version="1.1" viewBox="0 0 576 432" width="576pt" xmlns="http://www.w3.org/2000/svg" xmlns:xlink="http://www.w3.org/1999/xlink">
 <metadata>
  <rdf:RDF xmlns:cc="http://creativecommons.org/ns#" xmlns:dc="http://purl.org/dc/elements/1.1/" xmlns:rdf="http://www.w3.org/1999/02/22-rdf-syntax-ns#">
   <cc:Work>
    <dc:type rdf:resource="http://purl.org/dc/dcmitype/StillImage"/>
    <dc:date>2021-09-10T06:48:01.131269</dc:date>
    <dc:format>image/svg+xml</dc:format>
    <dc:creator>
     <cc:Agent>
      <dc:title>Matplotlib v3.4.3, https://matplotlib.org/</dc:title>
     </cc:Agent>
    </dc:creator>
   </cc:Work>
  </rdf:RDF>
 </metadata>
 <defs>
  <style type="text/css">*{stroke-linecap:butt;stroke-linejoin:round;}</style>
 </defs>
 <g id="figure_1">
  <g id="patch_1">
   <path d="M 0 432 
L 576 432 
L 576 0 
L 0 0 
z
" style="fill:#ffffff;"/>
  </g>
  <g id="axes_1">
   <g id="patch_2">
    <path d="M 72 384.48 
L 518.4 384.48 
L 518.4 51.84 
L 72 51.84 
z
" style="fill:#ffffff;"/>
   </g>
   <g id="matplotlib.axis_1">
    <g id="xtick_1">
     <g id="line2d_1">
      <path clip-path="url(#p06b213433e)" d="M 72 384.48 
L 72 51.84 
" style="fill:none;stroke:#000000;stroke-dasharray:0.8,1.32;stroke-dashoffset:0;stroke-opacity:0.5;stroke-width:0.8;"/>
     </g>
     <g id="line2d_2">
      <defs>
       <path d="M 0 0 
L 0 3.5 
" id="m2c76c2ab92" style="stroke:#000000;stroke-width:0.8;"/>
      </defs>
      <g>
       <use style="stroke:#000000;stroke-width:0.8;" x="72" xlink:href="#m2c76c2ab92" y="384.48"/>
      </g>
     </g>
     <g id="text_1">
      <!-- 15 -->
      <g transform="translate(65.6375 399.078438)scale(0.1 -0.1)">
       <defs>
        <path d="M 794 531 
L 1825 531 
L 1825 4091 
L 703 3866 
L 703 4441 
L 1819 4666 
L 2450 4666 
L 2450 531 
L 3481 531 
L 3481 0 
L 794 0 
L 794 531 
z
" id="DejaVuSans-31" transform="scale(0.015625)"/>
        <path d="M 691 4666 
L 3169 4666 
L 3169 4134 
L 1269 4134 
L 1269 2991 
Q 1406 3038 1543 3061 
Q 1681 3084 1819 3084 
Q 2600 3084 3056 2656 
Q 3513 2228 3513 1497 
Q 3513 744 3044 326 
Q 2575 -91 1722 -91 
Q 1428 -91 1123 -41 
Q 819 9 494 109 
L 494 744 
Q 775 591 1075 516 
Q 1375 441 1709 441 
Q 2250 441 2565 725 
Q 2881 1009 2881 1497 
Q 2881 1984 2565 2268 
Q 2250 2553 1709 2553 
Q 1456 2553 1204 2497 
Q 953 2441 691 2322 
L 691 4666 
z
" id="DejaVuSans-35" transform="scale(0.015625)"/>
       </defs>
       <use xlink:href="#DejaVuSans-31"/>
       <use x="63.623047" xlink:href="#DejaVuSans-35"/>
      </g>
     </g>
    </g>
    <g id="xtick_2">
     <g id="line2d_3">
      <path clip-path="url(#p06b213433e)" d="M 116.64 384.48 
L 116.64 51.84 
" style="fill:none;stroke:#000000;stroke-dasharray:0.8,1.32;stroke-dashoffset:0;stroke-opacity:0.5;stroke-width:0.8;"/>
     </g>
     <g id="line2d_4">
      <g>
       <use style="stroke:#000000;stroke-width:0.8;" x="116.64" xlink:href="#m2c76c2ab92" y="384.48"/>
      </g>
     </g>
     <g id="text_2">
      <!-- Aug -->
      <g transform="translate(106.876719 399.078438)scale(0.1 -0.1)">
       <defs>
        <path d="M 2188 4044 
L 1331 1722 
L 3047 1722 
L 2188 4044 
z
M 1831 4666 
L 2547 4666 
L 4325 0 
L 3669 0 
L 3244 1197 
L 1141 1197 
L 716 0 
L 50 0 
L 1831 4666 
z
" id="DejaVuSans-41" transform="scale(0.015625)"/>
        <path d="M 544 1381 
L 544 3500 
L 1119 3500 
L 1119 1403 
Q 1119 906 1312 657 
Q 1506 409 1894 409 
Q 2359 409 2629 706 
Q 2900 1003 2900 1516 
L 2900 3500 
L 3475 3500 
L 3475 0 
L 2900 0 
L 2900 538 
Q 2691 219 2414 64 
Q 2138 -91 1772 -91 
Q 1169 -91 856 284 
Q 544 659 544 1381 
z
M 1991 3584 
L 1991 3584 
z
" id="DejaVuSans-75" transform="scale(0.015625)"/>
        <path d="M 2906 1791 
Q 2906 2416 2648 2759 
Q 2391 3103 1925 3103 
Q 1463 3103 1205 2759 
Q 947 2416 947 1791 
Q 947 1169 1205 825 
Q 1463 481 1925 481 
Q 2391 481 2648 825 
Q 2906 1169 2906 1791 
z
M 3481 434 
Q 3481 -459 3084 -895 
Q 2688 -1331 1869 -1331 
Q 1566 -1331 1297 -1286 
Q 1028 -1241 775 -1147 
L 775 -588 
Q 1028 -725 1275 -790 
Q 1522 -856 1778 -856 
Q 2344 -856 2625 -561 
Q 2906 -266 2906 331 
L 2906 616 
Q 2728 306 2450 153 
Q 2172 0 1784 0 
Q 1141 0 747 490 
Q 353 981 353 1791 
Q 353 2603 747 3093 
Q 1141 3584 1784 3584 
Q 2172 3584 2450 3431 
Q 2728 3278 2906 2969 
L 2906 3500 
L 3481 3500 
L 3481 434 
z
" id="DejaVuSans-67" transform="scale(0.015625)"/>
       </defs>
       <use xlink:href="#DejaVuSans-41"/>
       <use x="68.408203" xlink:href="#DejaVuSans-75"/>
       <use x="131.787109" xlink:href="#DejaVuSans-67"/>
      </g>
     </g>
    </g>
    <g id="xtick_3">
     <g id="line2d_5">
      <path clip-path="url(#p06b213433e)" d="M 153.402353 384.48 
L 153.402353 51.84 
" style="fill:none;stroke:#000000;stroke-dasharray:0.8,1.32;stroke-dashoffset:0;stroke-opacity:0.5;stroke-width:0.8;"/>
     </g>
     <g id="line2d_6">
      <g>
       <use style="stroke:#000000;stroke-width:0.8;" x="153.402353" xlink:href="#m2c76c2ab92" y="384.48"/>
      </g>
     </g>
     <g id="text_3">
      <!-- 15 -->
      <g transform="translate(147.039853 399.078438)scale(0.1 -0.1)">
       <use xlink:href="#DejaVuSans-31"/>
       <use x="63.623047" xlink:href="#DejaVuSans-35"/>
      </g>
     </g>
    </g>
    <g id="xtick_4">
     <g id="line2d_7">
      <path clip-path="url(#p06b213433e)" d="M 198.042353 384.48 
L 198.042353 51.84 
" style="fill:none;stroke:#000000;stroke-dasharray:0.8,1.32;stroke-dashoffset:0;stroke-opacity:0.5;stroke-width:0.8;"/>
     </g>
     <g id="line2d_8">
      <g>
       <use style="stroke:#000000;stroke-width:0.8;" x="198.042353" xlink:href="#m2c76c2ab92" y="384.48"/>
      </g>
     </g>
     <g id="text_4">
      <!-- Sep -->
      <g transform="translate(188.617353 399.078438)scale(0.1 -0.1)">
       <defs>
        <path d="M 3425 4513 
L 3425 3897 
Q 3066 4069 2747 4153 
Q 2428 4238 2131 4238 
Q 1616 4238 1336 4038 
Q 1056 3838 1056 3469 
Q 1056 3159 1242 3001 
Q 1428 2844 1947 2747 
L 2328 2669 
Q 3034 2534 3370 2195 
Q 3706 1856 3706 1288 
Q 3706 609 3251 259 
Q 2797 -91 1919 -91 
Q 1588 -91 1214 -16 
Q 841 59 441 206 
L 441 856 
Q 825 641 1194 531 
Q 1563 422 1919 422 
Q 2459 422 2753 634 
Q 3047 847 3047 1241 
Q 3047 1584 2836 1778 
Q 2625 1972 2144 2069 
L 1759 2144 
Q 1053 2284 737 2584 
Q 422 2884 422 3419 
Q 422 4038 858 4394 
Q 1294 4750 2059 4750 
Q 2388 4750 2728 4690 
Q 3069 4631 3425 4513 
z
" id="DejaVuSans-53" transform="scale(0.015625)"/>
        <path d="M 3597 1894 
L 3597 1613 
L 953 1613 
Q 991 1019 1311 708 
Q 1631 397 2203 397 
Q 2534 397 2845 478 
Q 3156 559 3463 722 
L 3463 178 
Q 3153 47 2828 -22 
Q 2503 -91 2169 -91 
Q 1331 -91 842 396 
Q 353 884 353 1716 
Q 353 2575 817 3079 
Q 1281 3584 2069 3584 
Q 2775 3584 3186 3129 
Q 3597 2675 3597 1894 
z
M 3022 2063 
Q 3016 2534 2758 2815 
Q 2500 3097 2075 3097 
Q 1594 3097 1305 2825 
Q 1016 2553 972 2059 
L 3022 2063 
z
" id="DejaVuSans-65" transform="scale(0.015625)"/>
        <path d="M 1159 525 
L 1159 -1331 
L 581 -1331 
L 581 3500 
L 1159 3500 
L 1159 2969 
Q 1341 3281 1617 3432 
Q 1894 3584 2278 3584 
Q 2916 3584 3314 3078 
Q 3713 2572 3713 1747 
Q 3713 922 3314 415 
Q 2916 -91 2278 -91 
Q 1894 -91 1617 61 
Q 1341 213 1159 525 
z
M 3116 1747 
Q 3116 2381 2855 2742 
Q 2594 3103 2138 3103 
Q 1681 3103 1420 2742 
Q 1159 2381 1159 1747 
Q 1159 1113 1420 752 
Q 1681 391 2138 391 
Q 2594 391 2855 752 
Q 3116 1113 3116 1747 
z
" id="DejaVuSans-70" transform="scale(0.015625)"/>
       </defs>
       <use xlink:href="#DejaVuSans-53"/>
       <use x="63.476562" xlink:href="#DejaVuSans-65"/>
       <use x="125" xlink:href="#DejaVuSans-70"/>
      </g>
     </g>
    </g>
    <g id="xtick_5">
     <g id="line2d_9">
      <path clip-path="url(#p06b213433e)" d="M 234.804706 384.48 
L 234.804706 51.84 
" style="fill:none;stroke:#000000;stroke-dasharray:0.8,1.32;stroke-dashoffset:0;stroke-opacity:0.5;stroke-width:0.8;"/>
     </g>
     <g id="line2d_10">
      <g>
       <use style="stroke:#000000;stroke-width:0.8;" x="234.804706" xlink:href="#m2c76c2ab92" y="384.48"/>
      </g>
     </g>
     <g id="text_5">
      <!-- 15 -->
      <g transform="translate(228.442206 399.078438)scale(0.1 -0.1)">
       <use xlink:href="#DejaVuSans-31"/>
       <use x="63.623047" xlink:href="#DejaVuSans-35"/>
      </g>
     </g>
    </g>
    <g id="xtick_6">
     <g id="line2d_11">
      <path clip-path="url(#p06b213433e)" d="M 276.818824 384.48 
L 276.818824 51.84 
" style="fill:none;stroke:#000000;stroke-dasharray:0.8,1.32;stroke-dashoffset:0;stroke-opacity:0.5;stroke-width:0.8;"/>
     </g>
     <g id="line2d_12">
      <g>
       <use style="stroke:#000000;stroke-width:0.8;" x="276.818824" xlink:href="#m2c76c2ab92" y="384.48"/>
      </g>
     </g>
     <g id="text_6">
      <!-- Oct -->
      <g transform="translate(268.173511 399.078438)scale(0.1 -0.1)">
       <defs>
        <path d="M 2522 4238 
Q 1834 4238 1429 3725 
Q 1025 3213 1025 2328 
Q 1025 1447 1429 934 
Q 1834 422 2522 422 
Q 3209 422 3611 934 
Q 4013 1447 4013 2328 
Q 4013 3213 3611 3725 
Q 3209 4238 2522 4238 
z
M 2522 4750 
Q 3503 4750 4090 4092 
Q 4678 3434 4678 2328 
Q 4678 1225 4090 567 
Q 3503 -91 2522 -91 
Q 1538 -91 948 565 
Q 359 1222 359 2328 
Q 359 3434 948 4092 
Q 1538 4750 2522 4750 
z
" id="DejaVuSans-4f" transform="scale(0.015625)"/>
        <path d="M 3122 3366 
L 3122 2828 
Q 2878 2963 2633 3030 
Q 2388 3097 2138 3097 
Q 1578 3097 1268 2742 
Q 959 2388 959 1747 
Q 959 1106 1268 751 
Q 1578 397 2138 397 
Q 2388 397 2633 464 
Q 2878 531 3122 666 
L 3122 134 
Q 2881 22 2623 -34 
Q 2366 -91 2075 -91 
Q 1284 -91 818 406 
Q 353 903 353 1747 
Q 353 2603 823 3093 
Q 1294 3584 2113 3584 
Q 2378 3584 2631 3529 
Q 2884 3475 3122 3366 
z
" id="DejaVuSans-63" transform="scale(0.015625)"/>
        <path d="M 1172 4494 
L 1172 3500 
L 2356 3500 
L 2356 3053 
L 1172 3053 
L 1172 1153 
Q 1172 725 1289 603 
Q 1406 481 1766 481 
L 2356 481 
L 2356 0 
L 1766 0 
Q 1100 0 847 248 
Q 594 497 594 1153 
L 594 3053 
L 172 3053 
L 172 3500 
L 594 3500 
L 594 4494 
L 1172 4494 
z
" id="DejaVuSans-74" transform="scale(0.015625)"/>
       </defs>
       <use xlink:href="#DejaVuSans-4f"/>
       <use x="78.710938" xlink:href="#DejaVuSans-63"/>
       <use x="133.691406" xlink:href="#DejaVuSans-74"/>
      </g>
     </g>
    </g>
    <g id="xtick_7">
     <g id="line2d_13">
      <path clip-path="url(#p06b213433e)" d="M 313.581176 384.48 
L 313.581176 51.84 
" style="fill:none;stroke:#000000;stroke-dasharray:0.8,1.32;stroke-dashoffset:0;stroke-opacity:0.5;stroke-width:0.8;"/>
     </g>
     <g id="line2d_14">
      <g>
       <use style="stroke:#000000;stroke-width:0.8;" x="313.581176" xlink:href="#m2c76c2ab92" y="384.48"/>
      </g>
     </g>
     <g id="text_7">
      <!-- 15 -->
      <g transform="translate(307.218676 399.078438)scale(0.1 -0.1)">
       <use xlink:href="#DejaVuSans-31"/>
       <use x="63.623047" xlink:href="#DejaVuSans-35"/>
      </g>
     </g>
    </g>
    <g id="xtick_8">
     <g id="line2d_15">
      <path clip-path="url(#p06b213433e)" d="M 358.221176 384.48 
L 358.221176 51.84 
" style="fill:none;stroke:#000000;stroke-dasharray:0.8,1.32;stroke-dashoffset:0;stroke-opacity:0.5;stroke-width:0.8;"/>
     </g>
     <g id="line2d_16">
      <g>
       <use style="stroke:#000000;stroke-width:0.8;" x="358.221176" xlink:href="#m2c76c2ab92" y="384.48"/>
      </g>
     </g>
     <g id="text_8">
      <!-- Nov -->
      <g transform="translate(348.461801 399.078438)scale(0.1 -0.1)">
       <defs>
        <path d="M 628 4666 
L 1478 4666 
L 3547 763 
L 3547 4666 
L 4159 4666 
L 4159 0 
L 3309 0 
L 1241 3903 
L 1241 0 
L 628 0 
L 628 4666 
z
" id="DejaVuSans-4e" transform="scale(0.015625)"/>
        <path d="M 1959 3097 
Q 1497 3097 1228 2736 
Q 959 2375 959 1747 
Q 959 1119 1226 758 
Q 1494 397 1959 397 
Q 2419 397 2687 759 
Q 2956 1122 2956 1747 
Q 2956 2369 2687 2733 
Q 2419 3097 1959 3097 
z
M 1959 3584 
Q 2709 3584 3137 3096 
Q 3566 2609 3566 1747 
Q 3566 888 3137 398 
Q 2709 -91 1959 -91 
Q 1206 -91 779 398 
Q 353 888 353 1747 
Q 353 2609 779 3096 
Q 1206 3584 1959 3584 
z
" id="DejaVuSans-6f" transform="scale(0.015625)"/>
        <path d="M 191 3500 
L 800 3500 
L 1894 563 
L 2988 3500 
L 3597 3500 
L 2284 0 
L 1503 0 
L 191 3500 
z
" id="DejaVuSans-76" transform="scale(0.015625)"/>
       </defs>
       <use xlink:href="#DejaVuSans-4e"/>
       <use x="74.804688" xlink:href="#DejaVuSans-6f"/>
       <use x="135.986328" xlink:href="#DejaVuSans-76"/>
      </g>
     </g>
    </g>
    <g id="xtick_9">
     <g id="line2d_17">
      <path clip-path="url(#p06b213433e)" d="M 394.983529 384.48 
L 394.983529 51.84 
" style="fill:none;stroke:#000000;stroke-dasharray:0.8,1.32;stroke-dashoffset:0;stroke-opacity:0.5;stroke-width:0.8;"/>
     </g>
     <g id="line2d_18">
      <g>
       <use style="stroke:#000000;stroke-width:0.8;" x="394.983529" xlink:href="#m2c76c2ab92" y="384.48"/>
      </g>
     </g>
     <g id="text_9">
      <!-- 15 -->
      <g transform="translate(388.621029 399.078438)scale(0.1 -0.1)">
       <use xlink:href="#DejaVuSans-31"/>
       <use x="63.623047" xlink:href="#DejaVuSans-35"/>
      </g>
     </g>
    </g>
    <g id="xtick_10">
     <g id="line2d_19">
      <path clip-path="url(#p06b213433e)" d="M 436.997647 384.48 
L 436.997647 51.84 
" style="fill:none;stroke:#000000;stroke-dasharray:0.8,1.32;stroke-dashoffset:0;stroke-opacity:0.5;stroke-width:0.8;"/>
     </g>
     <g id="line2d_20">
      <g>
       <use style="stroke:#000000;stroke-width:0.8;" x="436.997647" xlink:href="#m2c76c2ab92" y="384.48"/>
      </g>
     </g>
     <g id="text_10">
      <!-- Dec -->
      <g transform="translate(427.321866 399.078438)scale(0.1 -0.1)">
       <defs>
        <path d="M 1259 4147 
L 1259 519 
L 2022 519 
Q 2988 519 3436 956 
Q 3884 1394 3884 2338 
Q 3884 3275 3436 3711 
Q 2988 4147 2022 4147 
L 1259 4147 
z
M 628 4666 
L 1925 4666 
Q 3281 4666 3915 4102 
Q 4550 3538 4550 2338 
Q 4550 1131 3912 565 
Q 3275 0 1925 0 
L 628 0 
L 628 4666 
z
" id="DejaVuSans-44" transform="scale(0.015625)"/>
       </defs>
       <use xlink:href="#DejaVuSans-44"/>
       <use x="77.001953" xlink:href="#DejaVuSans-65"/>
       <use x="138.525391" xlink:href="#DejaVuSans-63"/>
      </g>
     </g>
    </g>
    <g id="xtick_11">
     <g id="line2d_21">
      <path clip-path="url(#p06b213433e)" d="M 473.76 384.48 
L 473.76 51.84 
" style="fill:none;stroke:#000000;stroke-dasharray:0.8,1.32;stroke-dashoffset:0;stroke-opacity:0.5;stroke-width:0.8;"/>
     </g>
     <g id="line2d_22">
      <g>
       <use style="stroke:#000000;stroke-width:0.8;" x="473.76" xlink:href="#m2c76c2ab92" y="384.48"/>
      </g>
     </g>
     <g id="text_11">
      <!-- 15 -->
      <g transform="translate(467.3975 399.078438)scale(0.1 -0.1)">
       <use xlink:href="#DejaVuSans-31"/>
       <use x="63.623047" xlink:href="#DejaVuSans-35"/>
      </g>
     </g>
    </g>
    <g id="xtick_12">
     <g id="line2d_23">
      <path clip-path="url(#p06b213433e)" d="M 518.4 384.48 
L 518.4 51.84 
" style="fill:none;stroke:#000000;stroke-dasharray:0.8,1.32;stroke-dashoffset:0;stroke-opacity:0.5;stroke-width:0.8;"/>
     </g>
     <g id="line2d_24">
      <g>
       <use style="stroke:#000000;stroke-width:0.8;" x="518.4" xlink:href="#m2c76c2ab92" y="384.48"/>
      </g>
     </g>
     <g id="text_12">
      <!-- Jan -->
      <g transform="translate(510.692188 399.078438)scale(0.1 -0.1)">
       <defs>
        <path d="M 628 4666 
L 1259 4666 
L 1259 325 
Q 1259 -519 939 -900 
Q 619 -1281 -91 -1281 
L -331 -1281 
L -331 -750 
L -134 -750 
Q 284 -750 456 -515 
Q 628 -281 628 325 
L 628 4666 
z
" id="DejaVuSans-4a" transform="scale(0.015625)"/>
        <path d="M 2194 1759 
Q 1497 1759 1228 1600 
Q 959 1441 959 1056 
Q 959 750 1161 570 
Q 1363 391 1709 391 
Q 2188 391 2477 730 
Q 2766 1069 2766 1631 
L 2766 1759 
L 2194 1759 
z
M 3341 1997 
L 3341 0 
L 2766 0 
L 2766 531 
Q 2569 213 2275 61 
Q 1981 -91 1556 -91 
Q 1019 -91 701 211 
Q 384 513 384 1019 
Q 384 1609 779 1909 
Q 1175 2209 1959 2209 
L 2766 2209 
L 2766 2266 
Q 2766 2663 2505 2880 
Q 2244 3097 1772 3097 
Q 1472 3097 1187 3025 
Q 903 2953 641 2809 
L 641 3341 
Q 956 3463 1253 3523 
Q 1550 3584 1831 3584 
Q 2591 3584 2966 3190 
Q 3341 2797 3341 1997 
z
" id="DejaVuSans-61" transform="scale(0.015625)"/>
        <path d="M 3513 2113 
L 3513 0 
L 2938 0 
L 2938 2094 
Q 2938 2591 2744 2837 
Q 2550 3084 2163 3084 
Q 1697 3084 1428 2787 
Q 1159 2491 1159 1978 
L 1159 0 
L 581 0 
L 581 3500 
L 1159 3500 
L 1159 2956 
Q 1366 3272 1645 3428 
Q 1925 3584 2291 3584 
Q 2894 3584 3203 3211 
Q 3513 2838 3513 2113 
z
" id="DejaVuSans-6e" transform="scale(0.015625)"/>
       </defs>
       <use xlink:href="#DejaVuSans-4a"/>
       <use x="29.492188" xlink:href="#DejaVuSans-61"/>
       <use x="90.771484" xlink:href="#DejaVuSans-6e"/>
      </g>
     </g>
    </g>
    <g id="text_13">
     <!-- 2022-Jan -->
     <g transform="translate(473.364062 411.756563)scale(0.1 -0.1)">
      <defs>
       <path d="M 1228 531 
L 3431 531 
L 3431 0 
L 469 0 
L 469 531 
Q 828 903 1448 1529 
Q 2069 2156 2228 2338 
Q 2531 2678 2651 2914 
Q 2772 3150 2772 3378 
Q 2772 3750 2511 3984 
Q 2250 4219 1831 4219 
Q 1534 4219 1204 4116 
Q 875 4013 500 3803 
L 500 4441 
Q 881 4594 1212 4672 
Q 1544 4750 1819 4750 
Q 2544 4750 2975 4387 
Q 3406 4025 3406 3419 
Q 3406 3131 3298 2873 
Q 3191 2616 2906 2266 
Q 2828 2175 2409 1742 
Q 1991 1309 1228 531 
z
" id="DejaVuSans-32" transform="scale(0.015625)"/>
       <path d="M 2034 4250 
Q 1547 4250 1301 3770 
Q 1056 3291 1056 2328 
Q 1056 1369 1301 889 
Q 1547 409 2034 409 
Q 2525 409 2770 889 
Q 3016 1369 3016 2328 
Q 3016 3291 2770 3770 
Q 2525 4250 2034 4250 
z
M 2034 4750 
Q 2819 4750 3233 4129 
Q 3647 3509 3647 2328 
Q 3647 1150 3233 529 
Q 2819 -91 2034 -91 
Q 1250 -91 836 529 
Q 422 1150 422 2328 
Q 422 3509 836 4129 
Q 1250 4750 2034 4750 
z
" id="DejaVuSans-30" transform="scale(0.015625)"/>
       <path d="M 313 2009 
L 1997 2009 
L 1997 1497 
L 313 1497 
L 313 2009 
z
" id="DejaVuSans-2d" transform="scale(0.015625)"/>
      </defs>
      <use xlink:href="#DejaVuSans-32"/>
      <use x="63.623047" xlink:href="#DejaVuSans-30"/>
      <use x="127.246094" xlink:href="#DejaVuSans-32"/>
      <use x="190.869141" xlink:href="#DejaVuSans-32"/>
      <use x="254.492188" xlink:href="#DejaVuSans-2d"/>
      <use x="296.201172" xlink:href="#DejaVuSans-4a"/>
      <use x="325.693359" xlink:href="#DejaVuSans-61"/>
      <use x="386.972656" xlink:href="#DejaVuSans-6e"/>
     </g>
    </g>
   </g>
   <g id="matplotlib.axis_2">
    <g id="ytick_1">
     <g id="line2d_25">
      <path clip-path="url(#p06b213433e)" d="M 72 384.48 
L 518.4 384.48 
" style="fill:none;stroke:#000000;stroke-dasharray:0.8,1.32;stroke-dashoffset:0;stroke-opacity:0.5;stroke-width:0.8;"/>
     </g>
     <g id="line2d_26">
      <defs>
       <path d="M 0 0 
L -3.5 0 
" id="m4dd22fae99" style="stroke:#000000;stroke-width:0.8;"/>
      </defs>
      <g>
       <use style="stroke:#000000;stroke-width:0.8;" x="72" xlink:href="#m4dd22fae99" y="384.48"/>
      </g>
     </g>
     <g id="text_14">
      <!-- 0 -->
      <g transform="translate(58.6375 388.279219)scale(0.1 -0.1)">
       <use xlink:href="#DejaVuSans-30"/>
      </g>
     </g>
    </g>
    <g id="ytick_2">
     <g id="line2d_27">
      <path clip-path="url(#p06b213433e)" d="M 72 351.216 
L 518.4 351.216 
" style="fill:none;stroke:#000000;stroke-dasharray:0.8,1.32;stroke-dashoffset:0;stroke-opacity:0.5;stroke-width:0.8;"/>
     </g>
     <g id="line2d_28">
      <g>
       <use style="stroke:#000000;stroke-width:0.8;" x="72" xlink:href="#m4dd22fae99" y="351.216"/>
      </g>
     </g>
     <g id="text_15">
      <!-- 10 -->
      <g transform="translate(52.275 355.015219)scale(0.1 -0.1)">
       <use xlink:href="#DejaVuSans-31"/>
       <use x="63.623047" xlink:href="#DejaVuSans-30"/>
      </g>
     </g>
    </g>
    <g id="ytick_3">
     <g id="line2d_29">
      <path clip-path="url(#p06b213433e)" d="M 72 317.952 
L 518.4 317.952 
" style="fill:none;stroke:#000000;stroke-dasharray:0.8,1.32;stroke-dashoffset:0;stroke-opacity:0.5;stroke-width:0.8;"/>
     </g>
     <g id="line2d_30">
      <g>
       <use style="stroke:#000000;stroke-width:0.8;" x="72" xlink:href="#m4dd22fae99" y="317.952"/>
      </g>
     </g>
     <g id="text_16">
      <!-- 20 -->
      <g transform="translate(52.275 321.751219)scale(0.1 -0.1)">
       <use xlink:href="#DejaVuSans-32"/>
       <use x="63.623047" xlink:href="#DejaVuSans-30"/>
      </g>
     </g>
    </g>
    <g id="ytick_4">
     <g id="line2d_31">
      <path clip-path="url(#p06b213433e)" d="M 72 284.688 
L 518.4 284.688 
" style="fill:none;stroke:#000000;stroke-dasharray:0.8,1.32;stroke-dashoffset:0;stroke-opacity:0.5;stroke-width:0.8;"/>
     </g>
     <g id="line2d_32">
      <g>
       <use style="stroke:#000000;stroke-width:0.8;" x="72" xlink:href="#m4dd22fae99" y="284.688"/>
      </g>
     </g>
     <g id="text_17">
      <!-- 30 -->
      <g transform="translate(52.275 288.487219)scale(0.1 -0.1)">
       <defs>
        <path d="M 2597 2516 
Q 3050 2419 3304 2112 
Q 3559 1806 3559 1356 
Q 3559 666 3084 287 
Q 2609 -91 1734 -91 
Q 1441 -91 1130 -33 
Q 819 25 488 141 
L 488 750 
Q 750 597 1062 519 
Q 1375 441 1716 441 
Q 2309 441 2620 675 
Q 2931 909 2931 1356 
Q 2931 1769 2642 2001 
Q 2353 2234 1838 2234 
L 1294 2234 
L 1294 2753 
L 1863 2753 
Q 2328 2753 2575 2939 
Q 2822 3125 2822 3475 
Q 2822 3834 2567 4026 
Q 2313 4219 1838 4219 
Q 1578 4219 1281 4162 
Q 984 4106 628 3988 
L 628 4550 
Q 988 4650 1302 4700 
Q 1616 4750 1894 4750 
Q 2613 4750 3031 4423 
Q 3450 4097 3450 3541 
Q 3450 3153 3228 2886 
Q 3006 2619 2597 2516 
z
" id="DejaVuSans-33" transform="scale(0.015625)"/>
       </defs>
       <use xlink:href="#DejaVuSans-33"/>
       <use x="63.623047" xlink:href="#DejaVuSans-30"/>
      </g>
     </g>
    </g>
    <g id="ytick_5">
     <g id="line2d_33">
      <path clip-path="url(#p06b213433e)" d="M 72 251.424 
L 518.4 251.424 
" style="fill:none;stroke:#000000;stroke-dasharray:0.8,1.32;stroke-dashoffset:0;stroke-opacity:0.5;stroke-width:0.8;"/>
     </g>
     <g id="line2d_34">
      <g>
       <use style="stroke:#000000;stroke-width:0.8;" x="72" xlink:href="#m4dd22fae99" y="251.424"/>
      </g>
     </g>
     <g id="text_18">
      <!-- 40 -->
      <g transform="translate(52.275 255.223219)scale(0.1 -0.1)">
       <defs>
        <path d="M 2419 4116 
L 825 1625 
L 2419 1625 
L 2419 4116 
z
M 2253 4666 
L 3047 4666 
L 3047 1625 
L 3713 1625 
L 3713 1100 
L 3047 1100 
L 3047 0 
L 2419 0 
L 2419 1100 
L 313 1100 
L 313 1709 
L 2253 4666 
z
" id="DejaVuSans-34" transform="scale(0.015625)"/>
       </defs>
       <use xlink:href="#DejaVuSans-34"/>
       <use x="63.623047" xlink:href="#DejaVuSans-30"/>
      </g>
     </g>
    </g>
    <g id="ytick_6">
     <g id="line2d_35">
      <path clip-path="url(#p06b213433e)" d="M 72 218.16 
L 518.4 218.16 
" style="fill:none;stroke:#000000;stroke-dasharray:0.8,1.32;stroke-dashoffset:0;stroke-opacity:0.5;stroke-width:0.8;"/>
     </g>
     <g id="line2d_36">
      <g>
       <use style="stroke:#000000;stroke-width:0.8;" x="72" xlink:href="#m4dd22fae99" y="218.16"/>
      </g>
     </g>
     <g id="text_19">
      <!-- 50 -->
      <g transform="translate(52.275 221.959219)scale(0.1 -0.1)">
       <use xlink:href="#DejaVuSans-35"/>
       <use x="63.623047" xlink:href="#DejaVuSans-30"/>
      </g>
     </g>
    </g>
    <g id="ytick_7">
     <g id="line2d_37">
      <path clip-path="url(#p06b213433e)" d="M 72 184.896 
L 518.4 184.896 
" style="fill:none;stroke:#000000;stroke-dasharray:0.8,1.32;stroke-dashoffset:0;stroke-opacity:0.5;stroke-width:0.8;"/>
     </g>
     <g id="line2d_38">
      <g>
       <use style="stroke:#000000;stroke-width:0.8;" x="72" xlink:href="#m4dd22fae99" y="184.896"/>
      </g>
     </g>
     <g id="text_20">
      <!-- 60 -->
      <g transform="translate(52.275 188.695219)scale(0.1 -0.1)">
       <defs>
        <path d="M 2113 2584 
Q 1688 2584 1439 2293 
Q 1191 2003 1191 1497 
Q 1191 994 1439 701 
Q 1688 409 2113 409 
Q 2538 409 2786 701 
Q 3034 994 3034 1497 
Q 3034 2003 2786 2293 
Q 2538 2584 2113 2584 
z
M 3366 4563 
L 3366 3988 
Q 3128 4100 2886 4159 
Q 2644 4219 2406 4219 
Q 1781 4219 1451 3797 
Q 1122 3375 1075 2522 
Q 1259 2794 1537 2939 
Q 1816 3084 2150 3084 
Q 2853 3084 3261 2657 
Q 3669 2231 3669 1497 
Q 3669 778 3244 343 
Q 2819 -91 2113 -91 
Q 1303 -91 875 529 
Q 447 1150 447 2328 
Q 447 3434 972 4092 
Q 1497 4750 2381 4750 
Q 2619 4750 2861 4703 
Q 3103 4656 3366 4563 
z
" id="DejaVuSans-36" transform="scale(0.015625)"/>
       </defs>
       <use xlink:href="#DejaVuSans-36"/>
       <use x="63.623047" xlink:href="#DejaVuSans-30"/>
      </g>
     </g>
    </g>
    <g id="ytick_8">
     <g id="line2d_39">
      <path clip-path="url(#p06b213433e)" d="M 72 151.632 
L 518.4 151.632 
" style="fill:none;stroke:#000000;stroke-dasharray:0.8,1.32;stroke-dashoffset:0;stroke-opacity:0.5;stroke-width:0.8;"/>
     </g>
     <g id="line2d_40">
      <g>
       <use style="stroke:#000000;stroke-width:0.8;" x="72" xlink:href="#m4dd22fae99" y="151.632"/>
      </g>
     </g>
     <g id="text_21">
      <!-- 70 -->
      <g transform="translate(52.275 155.431219)scale(0.1 -0.1)">
       <defs>
        <path d="M 525 4666 
L 3525 4666 
L 3525 4397 
L 1831 0 
L 1172 0 
L 2766 4134 
L 525 4134 
L 525 4666 
z
" id="DejaVuSans-37" transform="scale(0.015625)"/>
       </defs>
       <use xlink:href="#DejaVuSans-37"/>
       <use x="63.623047" xlink:href="#DejaVuSans-30"/>
      </g>
     </g>
    </g>
    <g id="ytick_9">
     <g id="line2d_41">
      <path clip-path="url(#p06b213433e)" d="M 72 118.368 
L 518.4 118.368 
" style="fill:none;stroke:#000000;stroke-dasharray:0.8,1.32;stroke-dashoffset:0;stroke-opacity:0.5;stroke-width:0.8;"/>
     </g>
     <g id="line2d_42">
      <g>
       <use style="stroke:#000000;stroke-width:0.8;" x="72" xlink:href="#m4dd22fae99" y="118.368"/>
      </g>
     </g>
     <g id="text_22">
      <!-- 80 -->
      <g transform="translate(52.275 122.167219)scale(0.1 -0.1)">
       <defs>
        <path d="M 2034 2216 
Q 1584 2216 1326 1975 
Q 1069 1734 1069 1313 
Q 1069 891 1326 650 
Q 1584 409 2034 409 
Q 2484 409 2743 651 
Q 3003 894 3003 1313 
Q 3003 1734 2745 1975 
Q 2488 2216 2034 2216 
z
M 1403 2484 
Q 997 2584 770 2862 
Q 544 3141 544 3541 
Q 544 4100 942 4425 
Q 1341 4750 2034 4750 
Q 2731 4750 3128 4425 
Q 3525 4100 3525 3541 
Q 3525 3141 3298 2862 
Q 3072 2584 2669 2484 
Q 3125 2378 3379 2068 
Q 3634 1759 3634 1313 
Q 3634 634 3220 271 
Q 2806 -91 2034 -91 
Q 1263 -91 848 271 
Q 434 634 434 1313 
Q 434 1759 690 2068 
Q 947 2378 1403 2484 
z
M 1172 3481 
Q 1172 3119 1398 2916 
Q 1625 2713 2034 2713 
Q 2441 2713 2670 2916 
Q 2900 3119 2900 3481 
Q 2900 3844 2670 4047 
Q 2441 4250 2034 4250 
Q 1625 4250 1398 4047 
Q 1172 3844 1172 3481 
z
" id="DejaVuSans-38" transform="scale(0.015625)"/>
       </defs>
       <use xlink:href="#DejaVuSans-38"/>
       <use x="63.623047" xlink:href="#DejaVuSans-30"/>
      </g>
     </g>
    </g>
    <g id="ytick_10">
     <g id="line2d_43">
      <path clip-path="url(#p06b213433e)" d="M 72 85.104 
L 518.4 85.104 
" style="fill:none;stroke:#000000;stroke-dasharray:0.8,1.32;stroke-dashoffset:0;stroke-opacity:0.5;stroke-width:0.8;"/>
     </g>
     <g id="line2d_44">
      <g>
       <use style="stroke:#000000;stroke-width:0.8;" x="72" xlink:href="#m4dd22fae99" y="85.104"/>
      </g>
     </g>
     <g id="text_23">
      <!-- 90 -->
      <g transform="translate(52.275 88.903219)scale(0.1 -0.1)">
       <defs>
        <path d="M 703 97 
L 703 672 
Q 941 559 1184 500 
Q 1428 441 1663 441 
Q 2288 441 2617 861 
Q 2947 1281 2994 2138 
Q 2813 1869 2534 1725 
Q 2256 1581 1919 1581 
Q 1219 1581 811 2004 
Q 403 2428 403 3163 
Q 403 3881 828 4315 
Q 1253 4750 1959 4750 
Q 2769 4750 3195 4129 
Q 3622 3509 3622 2328 
Q 3622 1225 3098 567 
Q 2575 -91 1691 -91 
Q 1453 -91 1209 -44 
Q 966 3 703 97 
z
M 1959 2075 
Q 2384 2075 2632 2365 
Q 2881 2656 2881 3163 
Q 2881 3666 2632 3958 
Q 2384 4250 1959 4250 
Q 1534 4250 1286 3958 
Q 1038 3666 1038 3163 
Q 1038 2656 1286 2365 
Q 1534 2075 1959 2075 
z
" id="DejaVuSans-39" transform="scale(0.015625)"/>
       </defs>
       <use xlink:href="#DejaVuSans-39"/>
       <use x="63.623047" xlink:href="#DejaVuSans-30"/>
      </g>
     </g>
    </g>
    <g id="ytick_11">
     <g id="line2d_45">
      <path clip-path="url(#p06b213433e)" d="M 72 51.84 
L 518.4 51.84 
" style="fill:none;stroke:#000000;stroke-dasharray:0.8,1.32;stroke-dashoffset:0;stroke-opacity:0.5;stroke-width:0.8;"/>
     </g>
     <g id="line2d_46">
      <g>
       <use style="stroke:#000000;stroke-width:0.8;" x="72" xlink:href="#m4dd22fae99" y="51.84"/>
      </g>
     </g>
     <g id="text_24">
      <!-- 100 -->
      <g transform="translate(45.9125 55.639219)scale(0.1 -0.1)">
       <use xlink:href="#DejaVuSans-31"/>
       <use x="63.623047" xlink:href="#DejaVuSans-30"/>
       <use x="127.246094" xlink:href="#DejaVuSans-30"/>
      </g>
     </g>
    </g>
    <g id="text_25">
     <!-- Vaccine coverage (% of 16+ population) -->
     <g transform="translate(39.832812 319.181094)rotate(-90)scale(0.1 -0.1)">
      <defs>
       <path d="M 1831 0 
L 50 4666 
L 709 4666 
L 2188 738 
L 3669 4666 
L 4325 4666 
L 2547 0 
L 1831 0 
z
" id="DejaVuSans-56" transform="scale(0.015625)"/>
       <path d="M 603 3500 
L 1178 3500 
L 1178 0 
L 603 0 
L 603 3500 
z
M 603 4863 
L 1178 4863 
L 1178 4134 
L 603 4134 
L 603 4863 
z
" id="DejaVuSans-69" transform="scale(0.015625)"/>
       <path id="DejaVuSans-20" transform="scale(0.015625)"/>
       <path d="M 2631 2963 
Q 2534 3019 2420 3045 
Q 2306 3072 2169 3072 
Q 1681 3072 1420 2755 
Q 1159 2438 1159 1844 
L 1159 0 
L 581 0 
L 581 3500 
L 1159 3500 
L 1159 2956 
Q 1341 3275 1631 3429 
Q 1922 3584 2338 3584 
Q 2397 3584 2469 3576 
Q 2541 3569 2628 3553 
L 2631 2963 
z
" id="DejaVuSans-72" transform="scale(0.015625)"/>
       <path d="M 1984 4856 
Q 1566 4138 1362 3434 
Q 1159 2731 1159 2009 
Q 1159 1288 1364 580 
Q 1569 -128 1984 -844 
L 1484 -844 
Q 1016 -109 783 600 
Q 550 1309 550 2009 
Q 550 2706 781 3412 
Q 1013 4119 1484 4856 
L 1984 4856 
z
" id="DejaVuSans-28" transform="scale(0.015625)"/>
       <path d="M 4653 2053 
Q 4381 2053 4226 1822 
Q 4072 1591 4072 1178 
Q 4072 772 4226 539 
Q 4381 306 4653 306 
Q 4919 306 5073 539 
Q 5228 772 5228 1178 
Q 5228 1588 5073 1820 
Q 4919 2053 4653 2053 
z
M 4653 2450 
Q 5147 2450 5437 2106 
Q 5728 1763 5728 1178 
Q 5728 594 5436 251 
Q 5144 -91 4653 -91 
Q 4153 -91 3862 251 
Q 3572 594 3572 1178 
Q 3572 1766 3864 2108 
Q 4156 2450 4653 2450 
z
M 1428 4353 
Q 1159 4353 1004 4120 
Q 850 3888 850 3481 
Q 850 3069 1003 2837 
Q 1156 2606 1428 2606 
Q 1700 2606 1854 2837 
Q 2009 3069 2009 3481 
Q 2009 3884 1853 4118 
Q 1697 4353 1428 4353 
z
M 4250 4750 
L 4750 4750 
L 1831 -91 
L 1331 -91 
L 4250 4750 
z
M 1428 4750 
Q 1922 4750 2215 4408 
Q 2509 4066 2509 3481 
Q 2509 2891 2217 2550 
Q 1925 2209 1428 2209 
Q 931 2209 642 2551 
Q 353 2894 353 3481 
Q 353 4063 643 4406 
Q 934 4750 1428 4750 
z
" id="DejaVuSans-25" transform="scale(0.015625)"/>
       <path d="M 2375 4863 
L 2375 4384 
L 1825 4384 
Q 1516 4384 1395 4259 
Q 1275 4134 1275 3809 
L 1275 3500 
L 2222 3500 
L 2222 3053 
L 1275 3053 
L 1275 0 
L 697 0 
L 697 3053 
L 147 3053 
L 147 3500 
L 697 3500 
L 697 3744 
Q 697 4328 969 4595 
Q 1241 4863 1831 4863 
L 2375 4863 
z
" id="DejaVuSans-66" transform="scale(0.015625)"/>
       <path d="M 2944 4013 
L 2944 2272 
L 4684 2272 
L 4684 1741 
L 2944 1741 
L 2944 0 
L 2419 0 
L 2419 1741 
L 678 1741 
L 678 2272 
L 2419 2272 
L 2419 4013 
L 2944 4013 
z
" id="DejaVuSans-2b" transform="scale(0.015625)"/>
       <path d="M 603 4863 
L 1178 4863 
L 1178 0 
L 603 0 
L 603 4863 
z
" id="DejaVuSans-6c" transform="scale(0.015625)"/>
       <path d="M 513 4856 
L 1013 4856 
Q 1481 4119 1714 3412 
Q 1947 2706 1947 2009 
Q 1947 1309 1714 600 
Q 1481 -109 1013 -844 
L 513 -844 
Q 928 -128 1133 580 
Q 1338 1288 1338 2009 
Q 1338 2731 1133 3434 
Q 928 4138 513 4856 
z
" id="DejaVuSans-29" transform="scale(0.015625)"/>
      </defs>
      <use xlink:href="#DejaVuSans-56"/>
      <use x="60.658203" xlink:href="#DejaVuSans-61"/>
      <use x="121.9375" xlink:href="#DejaVuSans-63"/>
      <use x="176.917969" xlink:href="#DejaVuSans-63"/>
      <use x="231.898438" xlink:href="#DejaVuSans-69"/>
      <use x="259.681641" xlink:href="#DejaVuSans-6e"/>
      <use x="323.060547" xlink:href="#DejaVuSans-65"/>
      <use x="384.583984" xlink:href="#DejaVuSans-20"/>
      <use x="416.371094" xlink:href="#DejaVuSans-63"/>
      <use x="471.351562" xlink:href="#DejaVuSans-6f"/>
      <use x="532.533203" xlink:href="#DejaVuSans-76"/>
      <use x="591.712891" xlink:href="#DejaVuSans-65"/>
      <use x="653.236328" xlink:href="#DejaVuSans-72"/>
      <use x="694.349609" xlink:href="#DejaVuSans-61"/>
      <use x="755.628906" xlink:href="#DejaVuSans-67"/>
      <use x="819.105469" xlink:href="#DejaVuSans-65"/>
      <use x="880.628906" xlink:href="#DejaVuSans-20"/>
      <use x="912.416016" xlink:href="#DejaVuSans-28"/>
      <use x="951.429688" xlink:href="#DejaVuSans-25"/>
      <use x="1046.449219" xlink:href="#DejaVuSans-20"/>
      <use x="1078.236328" xlink:href="#DejaVuSans-6f"/>
      <use x="1139.417969" xlink:href="#DejaVuSans-66"/>
      <use x="1174.623047" xlink:href="#DejaVuSans-20"/>
      <use x="1206.410156" xlink:href="#DejaVuSans-31"/>
      <use x="1270.033203" xlink:href="#DejaVuSans-36"/>
      <use x="1333.65625" xlink:href="#DejaVuSans-2b"/>
      <use x="1417.445312" xlink:href="#DejaVuSans-20"/>
      <use x="1449.232422" xlink:href="#DejaVuSans-70"/>
      <use x="1512.708984" xlink:href="#DejaVuSans-6f"/>
      <use x="1573.890625" xlink:href="#DejaVuSans-70"/>
      <use x="1637.367188" xlink:href="#DejaVuSans-75"/>
      <use x="1700.746094" xlink:href="#DejaVuSans-6c"/>
      <use x="1728.529297" xlink:href="#DejaVuSans-61"/>
      <use x="1789.808594" xlink:href="#DejaVuSans-74"/>
      <use x="1829.017578" xlink:href="#DejaVuSans-69"/>
      <use x="1856.800781" xlink:href="#DejaVuSans-6f"/>
      <use x="1917.982422" xlink:href="#DejaVuSans-6e"/>
      <use x="1981.361328" xlink:href="#DejaVuSans-29"/>
     </g>
    </g>
   </g>
   <g id="line2d_47">
    <path clip-path="url(#p06b213433e)" d="M -1 296.019374 
L 1.101176 294.540143 
L 3.727059 293.14589 
L 6.352941 292.466329 
L 8.978824 292.668884 
L 11.604706 292.712604 
L 14.230588 291.101751 
L 16.856471 289.286699 
L 19.482353 287.684381 
L 22.108235 286.418654 
L 24.734118 285.703411 
L 29.985882 286.301784 
L 32.611765 284.641309 
L 35.237647 283.745307 
L 37.863529 283.830511 
L 40.489412 283.036958 
L 45.741176 281.621253 
L 50.992941 279.264094 
L 56.244706 276.874635 
L 58.870588 275.868594 
L 64.122353 274.352328 
L 66.748235 273.194618 
L 74.625882 269.334668 
L 77.251765 268.223182 
L 82.503529 266.545038 
L 85.129412 265.203706 
L 90.381176 262.176145 
L 93.007059 260.647347 
L 95.632941 259.315878 
L 100.884706 257.389452 
L 103.510588 255.985488 
L 108.762353 253.650035 
L 111.388235 252.098316 
L 114.014118 250.683126 
L 119.265882 248.759919 
L 121.891765 247.262586 
L 127.143529 243.765911 
L 129.769412 241.888068 
L 132.395294 240.298342 
L 137.647059 238.044805 
L 140.272941 236.229822 
L 150.776471 227.922906 
L 153.402353 226.604162 
L 156.028235 225.098547 
L 158.654118 222.884659 
L 163.905882 217.879455 
L 166.531765 215.313479 
L 169.157647 213.043409 
L 171.783529 211.325918 
L 174.409412 209.420802 
L 177.035294 206.897927 
L 184.912941 198.792275 
L 187.538824 196.336529 
L 192.790588 192.347504 
L 195.416471 189.786198 
L 200.668235 184.09006 
L 203.294118 181.473907 
L 205.92 179.057988 
L 211.171765 175.476451 
L 213.797647 173.26045 
L 219.049412 168.29001 
L 221.675294 166.796369 
L 221.675294 166.796369 
" style="fill:none;stroke:#1f77b4;stroke-linecap:square;stroke-width:1.5;"/>
   </g>
   <g id="line2d_48">
    <path clip-path="url(#p06b213433e)" d="M -1 306.092289 
L 1.101176 304.896696 
L 3.727059 303.814136 
L 6.352941 303.365915 
L 8.978824 303.682897 
L 11.604706 303.753579 
L 14.230588 302.4427 
L 19.482353 299.261225 
L 22.108235 298.038974 
L 24.734118 297.291692 
L 27.36 297.376726 
L 29.985882 297.322766 
L 32.611765 295.524705 
L 35.237647 294.159126 
L 37.863529 293.643881 
L 43.115294 291.651435 
L 45.741176 290.684329 
L 50.992941 287.743452 
L 56.244706 284.78215 
L 58.870588 283.484327 
L 64.122353 281.368231 
L 66.748235 279.767752 
L 72 276.408292 
L 74.625882 274.813976 
L 77.251765 273.432695 
L 82.503529 271.488618 
L 85.129412 269.890024 
L 87.755294 268.000892 
L 93.007059 263.960044 
L 95.632941 262.215308 
L 100.884706 259.927987 
L 103.510588 258.136647 
L 106.136471 255.484132 
L 108.762353 252.477203 
L 111.388235 250.006155 
L 114.014118 247.917176 
L 119.265882 245.336519 
L 121.891765 243.071973 
L 127.143529 237.842438 
L 129.769412 235.086337 
L 132.395294 232.83074 
L 135.021176 231.381669 
L 137.647059 229.743359 
L 140.272941 226.900187 
L 145.524706 220.374483 
L 148.150588 217.208519 
L 150.776471 214.432902 
L 153.402353 212.411125 
L 156.028235 210.117682 
L 158.654118 206.969587 
L 161.28 203.384381 
L 166.531765 195.708971 
L 169.157647 192.278908 
L 171.783529 189.651048 
L 174.409412 186.632494 
L 177.035294 182.686781 
L 184.912941 169.938976 
L 187.538824 166.426669 
L 190.164706 163.849153 
L 192.790588 160.561035 
L 198.042353 152.639117 
L 200.668235 148.835959 
L 205.92 141.95 
L 208.545882 139.351935 
L 211.171765 137.240275 
L 213.797647 134.807016 
L 219.049412 129.472291 
L 221.675294 127.835027 
L 221.675294 127.835027 
" style="fill:none;stroke:#ff7f0e;stroke-linecap:square;stroke-width:1.5;"/>
   </g>
   <g id="line2d_49">
    <path clip-path="url(#p06b213433e)" d="M -1 280.387768 
L 1.101176 278.875299 
L 3.727059 277.500436 
L 6.352941 276.814366 
L 8.978824 276.940984 
L 11.604706 276.910128 
L 16.856471 273.590442 
L 19.482353 272.57286 
L 22.108235 271.683113 
L 24.734118 271.16938 
L 27.36 271.267959 
L 29.985882 271.25294 
L 32.611765 270.130141 
L 35.237647 270.363179 
L 37.863529 271.604196 
L 43.115294 270.906077 
L 45.741176 270.441646 
L 56.244706 267.222872 
L 58.870588 266.608953 
L 61.496471 266.190273 
L 64.122353 265.608361 
L 69.374118 263.770534 
L 77.251765 260.730989 
L 79.877647 259.954589 
L 82.503529 259.05753 
L 95.632941 252.710329 
L 100.884706 250.788791 
L 103.510588 249.516292 
L 108.762353 247.568255 
L 114.014118 245.262575 
L 119.265882 243.563633 
L 127.143529 240.17067 
L 129.769412 238.95695 
L 132.395294 237.867542 
L 135.021176 237.033548 
L 137.647059 236.032293 
L 140.272941 234.630182 
L 145.524706 231.359457 
L 148.150588 229.58079 
L 150.776471 227.993332 
L 153.402353 227.030275 
L 156.028235 225.852827 
L 161.28 221.909164 
L 166.531765 218.032841 
L 169.157647 216.318391 
L 171.783529 214.952649 
L 174.409412 213.43017 
L 177.035294 211.365496 
L 179.661176 209.075485 
L 182.287059 207.058738 
L 184.912941 205.242082 
L 190.164706 200.301905 
L 192.790588 198.697437 
L 195.416471 196.503537 
L 198.042353 193.27118 
L 200.668235 190.3863 
L 203.294118 187.669369 
L 205.92 185.275385 
L 208.545882 183.4124 
L 211.171765 181.351549 
L 213.797647 178.515489 
L 219.049412 172.193764 
L 221.675294 170.328972 
L 221.675294 170.328972 
" style="fill:none;stroke:#2ca02c;stroke-linecap:square;stroke-width:1.5;"/>
   </g>
   <g id="line2d_50">
    <path clip-path="url(#p06b213433e)" d="M -1 299.442507 
L 1.101176 297.581359 
L 3.727059 295.785191 
L 6.352941 294.901365 
L 11.604706 296.003475 
L 14.230588 294.029667 
L 19.482353 289.389089 
L 22.108235 287.67193 
L 24.734118 286.778797 
L 27.36 288.060589 
L 29.985882 289.566018 
L 32.611765 287.513854 
L 35.237647 286.798658 
L 37.863529 287.759729 
L 43.115294 286.433581 
L 45.741176 285.895226 
L 48.367059 285.052447 
L 53.618824 282.669682 
L 56.244706 281.492399 
L 58.870588 280.559339 
L 64.122353 279.437222 
L 66.748235 278.625693 
L 72 276.325848 
L 74.625882 275.156896 
L 77.251765 274.207554 
L 82.503529 273.046728 
L 85.129412 272.192335 
L 87.755294 271.0854 
L 93.007059 268.651576 
L 95.632941 267.646037 
L 100.884706 266.301084 
L 103.510588 265.383177 
L 106.136471 264.809189 
L 108.762353 264.430276 
L 114.014118 262.456601 
L 119.265882 261.123405 
L 121.891765 260.024538 
L 124.517647 258.554092 
L 127.143529 256.817777 
L 129.769412 254.944871 
L 132.395294 253.339987 
L 137.647059 251.353326 
L 140.272941 250.014176 
L 142.898824 248.365745 
L 148.150588 244.645678 
L 150.776471 243.055615 
L 156.028235 240.75749 
L 158.654118 239.131891 
L 163.905882 235.273323 
L 166.531765 233.274702 
L 169.157647 231.451973 
L 174.409412 228.91291 
L 177.035294 227.273266 
L 182.287059 223.288433 
L 184.912941 221.297547 
L 187.538824 219.659165 
L 192.790588 217.214636 
L 195.416471 215.669822 
L 203.294118 210.359423 
L 205.92 208.802151 
L 211.171765 206.544584 
L 213.797647 205.036867 
L 219.049412 201.506896 
L 221.675294 200.4349 
L 221.675294 200.4349 
" style="fill:none;stroke:#d62728;stroke-linecap:square;stroke-width:1.5;"/>
   </g>
   <g id="line2d_51">
    <path clip-path="url(#p06b213433e)" d="M -1 306.496367 
L 1.101176 305.51535 
L 3.727059 304.590113 
L 6.352941 304.260032 
L 8.978824 303.572806 
L 11.604706 302.508556 
L 14.230588 301.293507 
L 19.482353 299.144488 
L 22.108235 298.347286 
L 24.734118 298.07259 
L 27.36 297.33596 
L 29.985882 296.175498 
L 37.863529 291.813705 
L 40.489412 290.71784 
L 45.741176 289.033323 
L 48.367059 287.871066 
L 56.244706 283.82388 
L 58.870588 282.715833 
L 64.122353 281.222288 
L 66.748235 280.241186 
L 77.251765 275.758843 
L 82.503529 274.107198 
L 87.755294 271.844775 
L 93.007059 269.269391 
L 95.632941 268.172946 
L 106.136471 264.701736 
L 108.762353 263.957023 
L 114.014118 261.507974 
L 121.891765 258.782457 
L 124.517647 257.619298 
L 129.769412 254.882363 
L 132.395294 253.747695 
L 137.647059 252.097575 
L 140.272941 251.021841 
L 145.524706 248.325043 
L 148.150588 246.946811 
L 150.776471 245.713599 
L 153.402353 244.724961 
L 156.028235 243.535118 
L 158.654118 241.834508 
L 161.28 239.888536 
L 163.905882 237.6783 
L 166.531765 235.620197 
L 169.157647 233.91307 
L 174.409412 230.970335 
L 179.661176 227.102262 
L 184.912941 223.024882 
L 187.538824 221.18061 
L 190.164706 219.676052 
L 192.790588 218.034159 
L 195.416471 216.073488 
L 203.294118 209.645862 
L 205.92 207.885842 
L 211.171765 204.997944 
L 213.797647 203.266432 
L 219.049412 199.488418 
L 221.675294 198.399479 
L 221.675294 198.399479 
" style="fill:none;stroke:#9467bd;stroke-linecap:square;stroke-width:1.5;"/>
   </g>
   <g id="line2d_52">
    <path clip-path="url(#p06b213433e)" d="M -1 296.335717 
L 1.101176 294.426324 
L 3.727059 292.571032 
L 6.352941 291.477157 
L 8.978824 291.297002 
L 11.604706 290.83747 
L 14.230588 288.626446 
L 19.482353 283.668539 
L 22.108235 281.814364 
L 24.734118 280.77197 
L 27.36 281.458847 
L 29.985882 282.337868 
L 32.611765 280.464414 
L 35.237647 279.626845 
L 37.863529 280.096885 
L 45.741176 277.890213 
L 50.992941 275.398124 
L 56.244706 273.001577 
L 58.870588 272.163698 
L 64.122353 270.956435 
L 66.748235 269.959202 
L 74.625882 266.489127 
L 77.251765 265.530976 
L 82.503529 263.972282 
L 85.129412 262.728509 
L 90.381176 259.588445 
L 93.007059 258.00906 
L 95.632941 256.739888 
L 100.884706 254.932313 
L 108.762353 250.854948 
L 111.388235 249.488055 
L 114.014118 248.362211 
L 116.64 247.64106 
L 119.265882 246.792569 
L 121.891765 245.475897 
L 129.769412 241.13658 
L 132.395294 239.973305 
L 137.647059 238.222363 
L 142.898824 235.422199 
L 148.150588 232.596523 
L 150.776471 231.411765 
L 156.028235 229.693483 
L 158.654118 228.310321 
L 169.157647 221.913499 
L 174.409412 219.83265 
L 177.035294 218.344905 
L 184.912941 213.429484 
L 187.538824 212.117234 
L 192.790588 210.168925 
L 195.416471 208.668194 
L 200.668235 205.055626 
L 203.294118 203.149899 
L 205.92 201.45651 
L 211.171765 198.914268 
L 213.797647 197.080036 
L 219.049412 192.801315 
L 221.675294 191.538146 
L 221.675294 191.538146 
" style="fill:none;stroke:#8c564b;stroke-linecap:square;stroke-width:1.5;"/>
   </g>
   <g id="line2d_53">
    <path clip-path="url(#p06b213433e)" d="M -1 267.821596 
L 3.727059 263.319929 
L 6.352941 261.470004 
L 8.978824 263.058448 
L 11.604706 265.767105 
L 14.230588 263.758892 
L 16.856471 261.034118 
L 19.482353 258.663756 
L 22.108235 256.62888 
L 24.734118 254.973474 
L 27.36 256.070093 
L 29.985882 257.930537 
L 32.611765 256.199061 
L 35.237647 255.963644 
L 37.863529 257.463671 
L 43.115294 256.82727 
L 45.741176 255.940482 
L 48.367059 254.579076 
L 53.618824 253.521674 
L 56.244706 252.966249 
L 58.870588 251.427566 
L 61.496471 249.335283 
L 64.122353 248.161201 
L 69.374118 245.441161 
L 74.625882 242.758568 
L 77.251765 241.915868 
L 79.877647 241.514079 
L 82.503529 240.493803 
L 85.129412 238.677095 
L 90.381176 235.736232 
L 93.007059 234.083075 
L 95.632941 232.908074 
L 98.258824 232.431711 
L 100.884706 231.389385 
L 103.510588 229.474064 
L 106.136471 228.302209 
L 108.762353 227.327608 
L 111.388235 225.797335 
L 114.014118 224.522939 
L 116.64 223.488999 
L 119.265882 222.691605 
L 121.891765 221.644258 
L 124.517647 220.37974 
L 132.395294 216.13573 
L 135.021176 215.041117 
L 137.647059 214.136151 
L 142.898824 211.948734 
L 150.776471 208.228655 
L 153.402353 207.392753 
L 156.028235 206.406654 
L 161.28 203.682269 
L 166.531765 200.805596 
L 169.157647 199.609856 
L 171.783529 198.763475 
L 174.409412 197.747465 
L 187.538824 190.320077 
L 190.164706 188.861973 
L 192.790588 187.148477 
L 200.668235 181.201153 
L 205.92 177.272081 
L 208.545882 175.950928 
L 211.171765 174.94175 
L 213.797647 173.435853 
L 216.423529 171.350574 
L 219.049412 169.034553 
L 221.675294 167.538287 
L 221.675294 167.538287 
" style="fill:none;stroke:#e377c2;stroke-linecap:square;stroke-width:1.5;"/>
   </g>
   <g id="line2d_54">
    <path clip-path="url(#p06b213433e)" d="M -1 310.878887 
L 1.101176 309.078667 
L 3.727059 307.136059 
L 6.352941 305.622968 
L 8.978824 306.244228 
L 11.604706 307.711611 
L 14.230588 306.213897 
L 22.108235 300.105462 
L 24.734118 298.752872 
L 27.36 299.425525 
L 29.985882 300.635747 
L 32.611765 298.338159 
L 35.237647 291.474525 
L 37.863529 282.645554 
L 40.489412 279.706274 
L 43.115294 278.936931 
L 45.741176 277.220642 
L 48.367059 274.733138 
L 50.992941 272.874744 
L 53.618824 270.8697 
L 58.870588 267.677869 
L 61.496471 266.962654 
L 64.122353 265.582263 
L 66.748235 263.251467 
L 69.374118 261.545263 
L 74.625882 259.105949 
L 77.251765 257.976543 
L 79.877647 257.225585 
L 82.503529 253.863304 
L 85.129412 248.721049 
L 87.755294 246.827802 
L 90.381176 245.227414 
L 93.007059 243.433967 
L 98.258824 241.993602 
L 100.884706 238.573141 
L 103.510588 233.17636 
L 106.136471 231.31565 
L 108.762353 230.79461 
L 111.388235 229.346333 
L 114.014118 227.26842 
L 116.64 226.068401 
L 119.265882 224.288193 
L 121.891765 221.501427 
L 124.517647 219.941127 
L 127.143529 219.057753 
L 129.769412 217.883392 
L 132.395294 216.292708 
L 135.021176 215.174231 
L 137.647059 213.727822 
L 140.272941 211.819681 
L 145.524706 209.360481 
L 148.150588 207.481367 
L 150.776471 205.305128 
L 153.402353 204.484021 
L 156.028235 203.403322 
L 158.654118 200.910713 
L 161.28 198.051997 
L 163.905882 195.374318 
L 166.531765 191.779698 
L 169.157647 188.953875 
L 171.783529 187.7481 
L 174.409412 185.601174 
L 177.035294 182.3447 
L 179.661176 180.002594 
L 184.912941 174.120094 
L 187.538824 172.465169 
L 190.164706 171.543298 
L 192.790588 170.473519 
L 195.416471 167.902819 
L 198.042353 164.357363 
L 200.668235 161.632417 
L 205.92 156.610549 
L 208.545882 154.778311 
L 211.171765 152.781912 
L 213.797647 149.976012 
L 216.423529 146.885359 
L 219.049412 144.150349 
L 221.675294 142.521457 
L 221.675294 142.521457 
" style="fill:none;stroke:#7f7f7f;stroke-linecap:square;stroke-width:1.5;"/>
   </g>
   <g id="line2d_55">
    <path clip-path="url(#p06b213433e)" d="M -1 312.269513 
L 1.101176 309.670336 
L 3.727059 307.525897 
L 8.978824 306.350012 
L 11.604706 304.291439 
L 14.230588 302.021958 
L 16.856471 300.934721 
L 19.482353 299.132987 
L 22.108235 297.633596 
L 24.734118 297.048819 
L 27.36 297.355289 
L 29.985882 297.177961 
L 32.611765 293.829852 
L 35.237647 288.749159 
L 37.863529 284.497029 
L 40.489412 282.887303 
L 43.115294 282.397969 
L 45.741176 281.535549 
L 48.367059 279.860721 
L 50.992941 277.909242 
L 56.244706 273.678946 
L 58.870588 272.222601 
L 64.122353 270.733792 
L 66.748235 269.429403 
L 69.374118 267.640454 
L 72 265.482151 
L 74.625882 263.494495 
L 77.251765 262.135069 
L 79.877647 261.471652 
L 82.503529 260.929519 
L 85.129412 259.839435 
L 87.755294 257.985092 
L 90.381176 255.705073 
L 93.007059 254.118587 
L 100.884706 251.455676 
L 103.510588 250.393625 
L 108.762353 248.800796 
L 111.388235 247.200229 
L 114.014118 245.806767 
L 116.64 245.044692 
L 119.265882 244.494855 
L 121.891765 243.689411 
L 124.517647 242.321558 
L 127.143529 240.632545 
L 129.769412 238.809173 
L 132.395294 237.441447 
L 135.021176 236.739657 
L 137.647059 235.767284 
L 140.272941 234.055403 
L 142.898824 232.192711 
L 148.150588 228.108414 
L 150.776471 226.618182 
L 153.402353 225.863951 
L 156.028235 224.887506 
L 158.654118 223.055056 
L 161.28 220.777753 
L 166.531765 215.857138 
L 169.157647 214.088346 
L 174.409412 212.217045 
L 177.035294 210.688479 
L 179.661176 208.927164 
L 182.287059 207.005918 
L 184.912941 205.270735 
L 187.538824 204.055766 
L 190.164706 203.265583 
L 192.790588 202.354979 
L 195.416471 200.925229 
L 203.294118 195.894224 
L 205.92 194.610179 
L 211.171765 193.04059 
L 213.797647 191.781126 
L 219.049412 188.385515 
L 221.675294 187.289015 
L 221.675294 187.289015 
" style="fill:none;stroke:#bcbd22;stroke-linecap:square;stroke-width:1.5;"/>
   </g>
   <g id="patch_3">
    <path d="M 72 384.48 
L 72 51.84 
" style="fill:none;stroke:#000000;stroke-linecap:square;stroke-linejoin:miter;stroke-width:0.8;"/>
   </g>
   <g id="patch_4">
    <path d="M 518.4 384.48 
L 518.4 51.84 
" style="fill:none;stroke:#000000;stroke-linecap:square;stroke-linejoin:miter;stroke-width:0.8;"/>
   </g>
   <g id="patch_5">
    <path d="M 72 384.48 
L 518.4 384.48 
" style="fill:none;stroke:#000000;stroke-linecap:square;stroke-linejoin:miter;stroke-width:0.8;"/>
   </g>
   <g id="patch_6">
    <path d="M 72 51.84 
L 518.4 51.84 
" style="fill:none;stroke:#000000;stroke-linecap:square;stroke-linejoin:miter;stroke-width:0.8;"/>
   </g>
   <g id="text_26">
    <!-- First dose coverage by state/territory -->
    <g transform="translate(183.629062 45.84)scale(0.12 -0.12)">
     <defs>
      <path d="M 628 4666 
L 3309 4666 
L 3309 4134 
L 1259 4134 
L 1259 2759 
L 3109 2759 
L 3109 2228 
L 1259 2228 
L 1259 0 
L 628 0 
L 628 4666 
z
" id="DejaVuSans-46" transform="scale(0.015625)"/>
      <path d="M 2834 3397 
L 2834 2853 
Q 2591 2978 2328 3040 
Q 2066 3103 1784 3103 
Q 1356 3103 1142 2972 
Q 928 2841 928 2578 
Q 928 2378 1081 2264 
Q 1234 2150 1697 2047 
L 1894 2003 
Q 2506 1872 2764 1633 
Q 3022 1394 3022 966 
Q 3022 478 2636 193 
Q 2250 -91 1575 -91 
Q 1294 -91 989 -36 
Q 684 19 347 128 
L 347 722 
Q 666 556 975 473 
Q 1284 391 1588 391 
Q 1994 391 2212 530 
Q 2431 669 2431 922 
Q 2431 1156 2273 1281 
Q 2116 1406 1581 1522 
L 1381 1569 
Q 847 1681 609 1914 
Q 372 2147 372 2553 
Q 372 3047 722 3315 
Q 1072 3584 1716 3584 
Q 2034 3584 2315 3537 
Q 2597 3491 2834 3397 
z
" id="DejaVuSans-73" transform="scale(0.015625)"/>
      <path d="M 2906 2969 
L 2906 4863 
L 3481 4863 
L 3481 0 
L 2906 0 
L 2906 525 
Q 2725 213 2448 61 
Q 2172 -91 1784 -91 
Q 1150 -91 751 415 
Q 353 922 353 1747 
Q 353 2572 751 3078 
Q 1150 3584 1784 3584 
Q 2172 3584 2448 3432 
Q 2725 3281 2906 2969 
z
M 947 1747 
Q 947 1113 1208 752 
Q 1469 391 1925 391 
Q 2381 391 2643 752 
Q 2906 1113 2906 1747 
Q 2906 2381 2643 2742 
Q 2381 3103 1925 3103 
Q 1469 3103 1208 2742 
Q 947 2381 947 1747 
z
" id="DejaVuSans-64" transform="scale(0.015625)"/>
      <path d="M 3116 1747 
Q 3116 2381 2855 2742 
Q 2594 3103 2138 3103 
Q 1681 3103 1420 2742 
Q 1159 2381 1159 1747 
Q 1159 1113 1420 752 
Q 1681 391 2138 391 
Q 2594 391 2855 752 
Q 3116 1113 3116 1747 
z
M 1159 2969 
Q 1341 3281 1617 3432 
Q 1894 3584 2278 3584 
Q 2916 3584 3314 3078 
Q 3713 2572 3713 1747 
Q 3713 922 3314 415 
Q 2916 -91 2278 -91 
Q 1894 -91 1617 61 
Q 1341 213 1159 525 
L 1159 0 
L 581 0 
L 581 4863 
L 1159 4863 
L 1159 2969 
z
" id="DejaVuSans-62" transform="scale(0.015625)"/>
      <path d="M 2059 -325 
Q 1816 -950 1584 -1140 
Q 1353 -1331 966 -1331 
L 506 -1331 
L 506 -850 
L 844 -850 
Q 1081 -850 1212 -737 
Q 1344 -625 1503 -206 
L 1606 56 
L 191 3500 
L 800 3500 
L 1894 763 
L 2988 3500 
L 3597 3500 
L 2059 -325 
z
" id="DejaVuSans-79" transform="scale(0.015625)"/>
      <path d="M 1625 4666 
L 2156 4666 
L 531 -594 
L 0 -594 
L 1625 4666 
z
" id="DejaVuSans-2f" transform="scale(0.015625)"/>
     </defs>
     <use xlink:href="#DejaVuSans-46"/>
     <use x="50.269531" xlink:href="#DejaVuSans-69"/>
     <use x="78.052734" xlink:href="#DejaVuSans-72"/>
     <use x="119.166016" xlink:href="#DejaVuSans-73"/>
     <use x="171.265625" xlink:href="#DejaVuSans-74"/>
     <use x="210.474609" xlink:href="#DejaVuSans-20"/>
     <use x="242.261719" xlink:href="#DejaVuSans-64"/>
     <use x="305.738281" xlink:href="#DejaVuSans-6f"/>
     <use x="366.919922" xlink:href="#DejaVuSans-73"/>
     <use x="419.019531" xlink:href="#DejaVuSans-65"/>
     <use x="480.542969" xlink:href="#DejaVuSans-20"/>
     <use x="512.330078" xlink:href="#DejaVuSans-63"/>
     <use x="567.310547" xlink:href="#DejaVuSans-6f"/>
     <use x="628.492188" xlink:href="#DejaVuSans-76"/>
     <use x="687.671875" xlink:href="#DejaVuSans-65"/>
     <use x="749.195312" xlink:href="#DejaVuSans-72"/>
     <use x="790.308594" xlink:href="#DejaVuSans-61"/>
     <use x="851.587891" xlink:href="#DejaVuSans-67"/>
     <use x="915.064453" xlink:href="#DejaVuSans-65"/>
     <use x="976.587891" xlink:href="#DejaVuSans-20"/>
     <use x="1008.375" xlink:href="#DejaVuSans-62"/>
     <use x="1071.851562" xlink:href="#DejaVuSans-79"/>
     <use x="1131.03125" xlink:href="#DejaVuSans-20"/>
     <use x="1162.818359" xlink:href="#DejaVuSans-73"/>
     <use x="1214.917969" xlink:href="#DejaVuSans-74"/>
     <use x="1254.126953" xlink:href="#DejaVuSans-61"/>
     <use x="1315.40625" xlink:href="#DejaVuSans-74"/>
     <use x="1354.615234" xlink:href="#DejaVuSans-65"/>
     <use x="1416.138672" xlink:href="#DejaVuSans-2f"/>
     <use x="1449.830078" xlink:href="#DejaVuSans-74"/>
     <use x="1489.039062" xlink:href="#DejaVuSans-65"/>
     <use x="1550.5625" xlink:href="#DejaVuSans-72"/>
     <use x="1589.925781" xlink:href="#DejaVuSans-72"/>
     <use x="1631.039062" xlink:href="#DejaVuSans-69"/>
     <use x="1658.822266" xlink:href="#DejaVuSans-74"/>
     <use x="1698.03125" xlink:href="#DejaVuSans-6f"/>
     <use x="1759.212891" xlink:href="#DejaVuSans-72"/>
     <use x="1800.326172" xlink:href="#DejaVuSans-79"/>
    </g>
   </g>
   <g id="legend_1">
    <g id="patch_7">
     <path d="M 78.3 177.932812 
L 185.937187 177.932812 
Q 187.737188 177.932812 187.737188 176.132812 
L 187.737188 58.14 
Q 187.737188 56.34 185.937187 56.34 
L 78.3 56.34 
Q 76.5 56.34 76.5 58.14 
L 76.5 176.132812 
Q 76.5 177.932812 78.3 177.932812 
z
" style="fill:#ffffff;opacity:0.8;stroke:#cccccc;stroke-linejoin:miter;"/>
    </g>
    <g id="line2d_56">
     <path d="M 80.1 63.628594 
L 98.1 63.628594 
" style="fill:none;stroke:#1f77b4;stroke-linecap:square;stroke-width:1.5;"/>
    </g>
    <g id="line2d_57"/>
    <g id="text_27">
     <!-- National (65.5 %) -->
     <g transform="translate(105.3 66.778594)scale(0.09 -0.09)">
      <defs>
       <path d="M 684 794 
L 1344 794 
L 1344 0 
L 684 0 
L 684 794 
z
" id="DejaVuSans-2e" transform="scale(0.015625)"/>
      </defs>
      <use xlink:href="#DejaVuSans-4e"/>
      <use x="74.804688" xlink:href="#DejaVuSans-61"/>
      <use x="136.083984" xlink:href="#DejaVuSans-74"/>
      <use x="175.292969" xlink:href="#DejaVuSans-69"/>
      <use x="203.076172" xlink:href="#DejaVuSans-6f"/>
      <use x="264.257812" xlink:href="#DejaVuSans-6e"/>
      <use x="327.636719" xlink:href="#DejaVuSans-61"/>
      <use x="388.916016" xlink:href="#DejaVuSans-6c"/>
      <use x="416.699219" xlink:href="#DejaVuSans-20"/>
      <use x="448.486328" xlink:href="#DejaVuSans-28"/>
      <use x="487.5" xlink:href="#DejaVuSans-36"/>
      <use x="551.123047" xlink:href="#DejaVuSans-35"/>
      <use x="614.746094" xlink:href="#DejaVuSans-2e"/>
      <use x="646.533203" xlink:href="#DejaVuSans-35"/>
      <use x="710.15625" xlink:href="#DejaVuSans-20"/>
      <use x="741.943359" xlink:href="#DejaVuSans-25"/>
      <use x="836.962891" xlink:href="#DejaVuSans-29"/>
     </g>
    </g>
    <g id="line2d_58">
     <path d="M 80.1 76.838906 
L 98.1 76.838906 
" style="fill:none;stroke:#ff7f0e;stroke-linecap:square;stroke-width:1.5;"/>
    </g>
    <g id="line2d_59"/>
    <g id="text_28">
     <!-- NSW (77.3 %) -->
     <g transform="translate(105.3 79.988906)scale(0.09 -0.09)">
      <defs>
       <path d="M 213 4666 
L 850 4666 
L 1831 722 
L 2809 4666 
L 3519 4666 
L 4500 722 
L 5478 4666 
L 6119 4666 
L 4947 0 
L 4153 0 
L 3169 4050 
L 2175 0 
L 1381 0 
L 213 4666 
z
" id="DejaVuSans-57" transform="scale(0.015625)"/>
      </defs>
      <use xlink:href="#DejaVuSans-4e"/>
      <use x="74.804688" xlink:href="#DejaVuSans-53"/>
      <use x="138.28125" xlink:href="#DejaVuSans-57"/>
      <use x="237.158203" xlink:href="#DejaVuSans-20"/>
      <use x="268.945312" xlink:href="#DejaVuSans-28"/>
      <use x="307.958984" xlink:href="#DejaVuSans-37"/>
      <use x="371.582031" xlink:href="#DejaVuSans-37"/>
      <use x="435.205078" xlink:href="#DejaVuSans-2e"/>
      <use x="466.992188" xlink:href="#DejaVuSans-33"/>
      <use x="530.615234" xlink:href="#DejaVuSans-20"/>
      <use x="562.402344" xlink:href="#DejaVuSans-25"/>
      <use x="657.421875" xlink:href="#DejaVuSans-29"/>
     </g>
    </g>
    <g id="line2d_60">
     <path d="M 80.1 90.049219 
L 98.1 90.049219 
" style="fill:none;stroke:#2ca02c;stroke-linecap:square;stroke-width:1.5;"/>
    </g>
    <g id="line2d_61"/>
    <g id="text_29">
     <!-- VIC (64.5 %) -->
     <g transform="translate(105.3 93.199219)scale(0.09 -0.09)">
      <defs>
       <path d="M 628 4666 
L 1259 4666 
L 1259 0 
L 628 0 
L 628 4666 
z
" id="DejaVuSans-49" transform="scale(0.015625)"/>
       <path d="M 4122 4306 
L 4122 3641 
Q 3803 3938 3442 4084 
Q 3081 4231 2675 4231 
Q 1875 4231 1450 3742 
Q 1025 3253 1025 2328 
Q 1025 1406 1450 917 
Q 1875 428 2675 428 
Q 3081 428 3442 575 
Q 3803 722 4122 1019 
L 4122 359 
Q 3791 134 3420 21 
Q 3050 -91 2638 -91 
Q 1578 -91 968 557 
Q 359 1206 359 2328 
Q 359 3453 968 4101 
Q 1578 4750 2638 4750 
Q 3056 4750 3426 4639 
Q 3797 4528 4122 4306 
z
" id="DejaVuSans-43" transform="scale(0.015625)"/>
      </defs>
      <use xlink:href="#DejaVuSans-56"/>
      <use x="68.408203" xlink:href="#DejaVuSans-49"/>
      <use x="97.900391" xlink:href="#DejaVuSans-43"/>
      <use x="167.724609" xlink:href="#DejaVuSans-20"/>
      <use x="199.511719" xlink:href="#DejaVuSans-28"/>
      <use x="238.525391" xlink:href="#DejaVuSans-36"/>
      <use x="302.148438" xlink:href="#DejaVuSans-34"/>
      <use x="365.771484" xlink:href="#DejaVuSans-2e"/>
      <use x="397.558594" xlink:href="#DejaVuSans-35"/>
      <use x="461.181641" xlink:href="#DejaVuSans-20"/>
      <use x="492.96875" xlink:href="#DejaVuSans-25"/>
      <use x="587.988281" xlink:href="#DejaVuSans-29"/>
     </g>
    </g>
    <g id="line2d_62">
     <path d="M 80.1 103.259531 
L 98.1 103.259531 
" style="fill:none;stroke:#d62728;stroke-linecap:square;stroke-width:1.5;"/>
    </g>
    <g id="line2d_63"/>
    <g id="text_30">
     <!-- QLD (55.4 %) -->
     <g transform="translate(105.3 106.409531)scale(0.09 -0.09)">
      <defs>
       <path d="M 2522 4238 
Q 1834 4238 1429 3725 
Q 1025 3213 1025 2328 
Q 1025 1447 1429 934 
Q 1834 422 2522 422 
Q 3209 422 3611 934 
Q 4013 1447 4013 2328 
Q 4013 3213 3611 3725 
Q 3209 4238 2522 4238 
z
M 3406 84 
L 4238 -825 
L 3475 -825 
L 2784 -78 
Q 2681 -84 2626 -87 
Q 2572 -91 2522 -91 
Q 1538 -91 948 567 
Q 359 1225 359 2328 
Q 359 3434 948 4092 
Q 1538 4750 2522 4750 
Q 3503 4750 4090 4092 
Q 4678 3434 4678 2328 
Q 4678 1516 4351 937 
Q 4025 359 3406 84 
z
" id="DejaVuSans-51" transform="scale(0.015625)"/>
       <path d="M 628 4666 
L 1259 4666 
L 1259 531 
L 3531 531 
L 3531 0 
L 628 0 
L 628 4666 
z
" id="DejaVuSans-4c" transform="scale(0.015625)"/>
      </defs>
      <use xlink:href="#DejaVuSans-51"/>
      <use x="78.710938" xlink:href="#DejaVuSans-4c"/>
      <use x="134.423828" xlink:href="#DejaVuSans-44"/>
      <use x="211.425781" xlink:href="#DejaVuSans-20"/>
      <use x="243.212891" xlink:href="#DejaVuSans-28"/>
      <use x="282.226562" xlink:href="#DejaVuSans-35"/>
      <use x="345.849609" xlink:href="#DejaVuSans-35"/>
      <use x="409.472656" xlink:href="#DejaVuSans-2e"/>
      <use x="441.259766" xlink:href="#DejaVuSans-34"/>
      <use x="504.882812" xlink:href="#DejaVuSans-20"/>
      <use x="536.669922" xlink:href="#DejaVuSans-25"/>
      <use x="631.689453" xlink:href="#DejaVuSans-29"/>
     </g>
    </g>
    <g id="line2d_64">
     <path d="M 80.1 116.469844 
L 98.1 116.469844 
" style="fill:none;stroke:#9467bd;stroke-linecap:square;stroke-width:1.5;"/>
    </g>
    <g id="line2d_65"/>
    <g id="text_31">
     <!-- WA (56.0 %) -->
     <g transform="translate(105.3 119.619844)scale(0.09 -0.09)">
      <use xlink:href="#DejaVuSans-57"/>
      <use x="93.376953" xlink:href="#DejaVuSans-41"/>
      <use x="161.785156" xlink:href="#DejaVuSans-20"/>
      <use x="193.572266" xlink:href="#DejaVuSans-28"/>
      <use x="232.585938" xlink:href="#DejaVuSans-35"/>
      <use x="296.208984" xlink:href="#DejaVuSans-36"/>
      <use x="359.832031" xlink:href="#DejaVuSans-2e"/>
      <use x="391.619141" xlink:href="#DejaVuSans-30"/>
      <use x="455.242188" xlink:href="#DejaVuSans-20"/>
      <use x="487.029297" xlink:href="#DejaVuSans-25"/>
      <use x="582.048828" xlink:href="#DejaVuSans-29"/>
     </g>
    </g>
    <g id="line2d_66">
     <path d="M 80.1 129.680156 
L 98.1 129.680156 
" style="fill:none;stroke:#8c564b;stroke-linecap:square;stroke-width:1.5;"/>
    </g>
    <g id="line2d_67"/>
    <g id="text_32">
     <!-- SA (58.1 %) -->
     <g transform="translate(105.3 132.830156)scale(0.09 -0.09)">
      <use xlink:href="#DejaVuSans-53"/>
      <use x="65.351562" xlink:href="#DejaVuSans-41"/>
      <use x="133.759766" xlink:href="#DejaVuSans-20"/>
      <use x="165.546875" xlink:href="#DejaVuSans-28"/>
      <use x="204.560547" xlink:href="#DejaVuSans-35"/>
      <use x="268.183594" xlink:href="#DejaVuSans-38"/>
      <use x="331.806641" xlink:href="#DejaVuSans-2e"/>
      <use x="363.59375" xlink:href="#DejaVuSans-31"/>
      <use x="427.216797" xlink:href="#DejaVuSans-20"/>
      <use x="459.003906" xlink:href="#DejaVuSans-25"/>
      <use x="554.023438" xlink:href="#DejaVuSans-29"/>
     </g>
    </g>
    <g id="line2d_68">
     <path d="M 80.1 142.890469 
L 98.1 142.890469 
" style="fill:none;stroke:#e377c2;stroke-linecap:square;stroke-width:1.5;"/>
    </g>
    <g id="line2d_69"/>
    <g id="text_33">
     <!-- TAS (65.3 %) -->
     <g transform="translate(105.3 146.040469)scale(0.09 -0.09)">
      <defs>
       <path d="M -19 4666 
L 3928 4666 
L 3928 4134 
L 2272 4134 
L 2272 0 
L 1638 0 
L 1638 4134 
L -19 4134 
L -19 4666 
z
" id="DejaVuSans-54" transform="scale(0.015625)"/>
      </defs>
      <use xlink:href="#DejaVuSans-54"/>
      <use x="53.333984" xlink:href="#DejaVuSans-41"/>
      <use x="121.742188" xlink:href="#DejaVuSans-53"/>
      <use x="185.21875" xlink:href="#DejaVuSans-20"/>
      <use x="217.005859" xlink:href="#DejaVuSans-28"/>
      <use x="256.019531" xlink:href="#DejaVuSans-36"/>
      <use x="319.642578" xlink:href="#DejaVuSans-35"/>
      <use x="383.265625" xlink:href="#DejaVuSans-2e"/>
      <use x="415.052734" xlink:href="#DejaVuSans-33"/>
      <use x="478.675781" xlink:href="#DejaVuSans-20"/>
      <use x="510.462891" xlink:href="#DejaVuSans-25"/>
      <use x="605.482422" xlink:href="#DejaVuSans-29"/>
     </g>
    </g>
    <g id="line2d_70">
     <path d="M 80.1 156.100781 
L 98.1 156.100781 
" style="fill:none;stroke:#7f7f7f;stroke-linecap:square;stroke-width:1.5;"/>
    </g>
    <g id="line2d_71"/>
    <g id="text_34">
     <!-- ACT (72.9 %) -->
     <g transform="translate(105.3 159.250781)scale(0.09 -0.09)">
      <use xlink:href="#DejaVuSans-41"/>
      <use x="66.658203" xlink:href="#DejaVuSans-43"/>
      <use x="136.482422" xlink:href="#DejaVuSans-54"/>
      <use x="197.566406" xlink:href="#DejaVuSans-20"/>
      <use x="229.353516" xlink:href="#DejaVuSans-28"/>
      <use x="268.367188" xlink:href="#DejaVuSans-37"/>
      <use x="331.990234" xlink:href="#DejaVuSans-32"/>
      <use x="395.613281" xlink:href="#DejaVuSans-2e"/>
      <use x="427.400391" xlink:href="#DejaVuSans-39"/>
      <use x="491.023438" xlink:href="#DejaVuSans-20"/>
      <use x="522.810547" xlink:href="#DejaVuSans-25"/>
      <use x="617.830078" xlink:href="#DejaVuSans-29"/>
     </g>
    </g>
    <g id="line2d_72">
     <path d="M 80.1 169.311094 
L 98.1 169.311094 
" style="fill:none;stroke:#bcbd22;stroke-linecap:square;stroke-width:1.5;"/>
    </g>
    <g id="line2d_73"/>
    <g id="text_35">
     <!-- NT (59.4 %) -->
     <g transform="translate(105.3 172.461094)scale(0.09 -0.09)">
      <use xlink:href="#DejaVuSans-4e"/>
      <use x="74.804688" xlink:href="#DejaVuSans-54"/>
      <use x="135.888672" xlink:href="#DejaVuSans-20"/>
      <use x="167.675781" xlink:href="#DejaVuSans-28"/>
      <use x="206.689453" xlink:href="#DejaVuSans-35"/>
      <use x="270.3125" xlink:href="#DejaVuSans-39"/>
      <use x="333.935547" xlink:href="#DejaVuSans-2e"/>
      <use x="365.722656" xlink:href="#DejaVuSans-34"/>
      <use x="429.345703" xlink:href="#DejaVuSans-20"/>
      <use x="461.132812" xlink:href="#DejaVuSans-25"/>
      <use x="556.152344" xlink:href="#DejaVuSans-29"/>
     </g>
    </g>
   </g>
  </g>
 </g>
 <defs>
  <clipPath id="p06b213433e">
   <rect height="332.64" width="446.4" x="72" y="51.84"/>
  </clipPath>
 </defs>
</svg>
