<?xml version="1.0" encoding="utf-8" standalone="no"?>
<!DOCTYPE svg PUBLIC "-//W3C//DTD SVG 1.1//EN"
  "http://www.w3.org/Graphics/SVG/1.1/DTD/svg11.dtd">
<svg height="432pt" version="1.1" viewBox="0 0 576 432" width="576pt" xmlns="http://www.w3.org/2000/svg" xmlns:xlink="http://www.w3.org/1999/xlink">
 <metadata>
  <rdf:RDF xmlns:cc="http://creativecommons.org/ns#" xmlns:dc="http://purl.org/dc/elements/1.1/" xmlns:rdf="http://www.w3.org/1999/02/22-rdf-syntax-ns#">
   <cc:Work>
    <dc:type rdf:resource="http://purl.org/dc/dcmitype/StillImage"/>
    <dc:date>2021-09-21T15:22:49.502341</dc:date>
    <dc:format>image/svg+xml</dc:format>
    <dc:creator>
     <cc:Agent>
      <dc:title>Matplotlib v3.4.3, https://matplotlib.org/</dc:title>
     </cc:Agent>
    </dc:creator>
   </cc:Work>
  </rdf:RDF>
 </metadata>
 <defs>
  <style type="text/css">*{stroke-linecap:butt;stroke-linejoin:round;}</style>
 </defs>
 <g id="figure_1">
  <g id="patch_1">
   <path d="M 0 432 
L 576 432 
L 576 0 
L 0 0 
z
" style="fill:#ffffff;"/>
  </g>
  <g id="axes_1">
   <g id="patch_2">
    <path d="M 72 384.48 
L 518.4 384.48 
L 518.4 51.84 
L 72 51.84 
z
" style="fill:#ffffff;"/>
   </g>
   <g id="matplotlib.axis_1">
    <g id="xtick_1">
     <g id="line2d_1">
      <path clip-path="url(#p92943299c9)" d="M 83.301266 384.48 
L 83.301266 51.84 
" style="fill:none;stroke:#000000;stroke-dasharray:0.8,1.32;stroke-dashoffset:0;stroke-opacity:0.5;stroke-width:0.8;"/>
     </g>
     <g id="line2d_2">
      <defs>
       <path d="M 0 0 
L 0 3.5 
" id="md29a12dbcc" style="stroke:#000000;stroke-width:0.8;"/>
      </defs>
      <g>
       <use style="stroke:#000000;stroke-width:0.8;" x="83.301266" xlink:href="#md29a12dbcc" y="384.48"/>
      </g>
     </g>
     <g id="text_1">
      <!-- 15 -->
      <g transform="translate(76.938766 399.078438)scale(0.1 -0.1)">
       <defs>
        <path d="M 794 531 
L 1825 531 
L 1825 4091 
L 703 3866 
L 703 4441 
L 1819 4666 
L 2450 4666 
L 2450 531 
L 3481 531 
L 3481 0 
L 794 0 
L 794 531 
z
" id="DejaVuSans-31" transform="scale(0.015625)"/>
        <path d="M 691 4666 
L 3169 4666 
L 3169 4134 
L 1269 4134 
L 1269 2991 
Q 1406 3038 1543 3061 
Q 1681 3084 1819 3084 
Q 2600 3084 3056 2656 
Q 3513 2228 3513 1497 
Q 3513 744 3044 326 
Q 2575 -91 1722 -91 
Q 1428 -91 1123 -41 
Q 819 9 494 109 
L 494 744 
Q 775 591 1075 516 
Q 1375 441 1709 441 
Q 2250 441 2565 725 
Q 2881 1009 2881 1497 
Q 2881 1984 2565 2268 
Q 2250 2553 1709 2553 
Q 1456 2553 1204 2497 
Q 953 2441 691 2322 
L 691 4666 
z
" id="DejaVuSans-35" transform="scale(0.015625)"/>
       </defs>
       <use xlink:href="#DejaVuSans-31"/>
       <use x="63.623047" xlink:href="#DejaVuSans-35"/>
      </g>
     </g>
    </g>
    <g id="xtick_2">
     <g id="line2d_3">
      <path clip-path="url(#p92943299c9)" d="M 115.321519 384.48 
L 115.321519 51.84 
" style="fill:none;stroke:#000000;stroke-dasharray:0.8,1.32;stroke-dashoffset:0;stroke-opacity:0.5;stroke-width:0.8;"/>
     </g>
     <g id="line2d_4">
      <g>
       <use style="stroke:#000000;stroke-width:0.8;" x="115.321519" xlink:href="#md29a12dbcc" y="384.48"/>
      </g>
     </g>
     <g id="text_2">
      <!-- Jun -->
      <g transform="translate(107.509019 399.078438)scale(0.1 -0.1)">
       <defs>
        <path d="M 628 4666 
L 1259 4666 
L 1259 325 
Q 1259 -519 939 -900 
Q 619 -1281 -91 -1281 
L -331 -1281 
L -331 -750 
L -134 -750 
Q 284 -750 456 -515 
Q 628 -281 628 325 
L 628 4666 
z
" id="DejaVuSans-4a" transform="scale(0.015625)"/>
        <path d="M 544 1381 
L 544 3500 
L 1119 3500 
L 1119 1403 
Q 1119 906 1312 657 
Q 1506 409 1894 409 
Q 2359 409 2629 706 
Q 2900 1003 2900 1516 
L 2900 3500 
L 3475 3500 
L 3475 0 
L 2900 0 
L 2900 538 
Q 2691 219 2414 64 
Q 2138 -91 1772 -91 
Q 1169 -91 856 284 
Q 544 659 544 1381 
z
M 1991 3584 
L 1991 3584 
z
" id="DejaVuSans-75" transform="scale(0.015625)"/>
        <path d="M 3513 2113 
L 3513 0 
L 2938 0 
L 2938 2094 
Q 2938 2591 2744 2837 
Q 2550 3084 2163 3084 
Q 1697 3084 1428 2787 
Q 1159 2491 1159 1978 
L 1159 0 
L 581 0 
L 581 3500 
L 1159 3500 
L 1159 2956 
Q 1366 3272 1645 3428 
Q 1925 3584 2291 3584 
Q 2894 3584 3203 3211 
Q 3513 2838 3513 2113 
z
" id="DejaVuSans-6e" transform="scale(0.015625)"/>
       </defs>
       <use xlink:href="#DejaVuSans-4a"/>
       <use x="29.492188" xlink:href="#DejaVuSans-75"/>
       <use x="92.871094" xlink:href="#DejaVuSans-6e"/>
      </g>
     </g>
    </g>
    <g id="xtick_3">
     <g id="line2d_5">
      <path clip-path="url(#p92943299c9)" d="M 141.691139 384.48 
L 141.691139 51.84 
" style="fill:none;stroke:#000000;stroke-dasharray:0.8,1.32;stroke-dashoffset:0;stroke-opacity:0.5;stroke-width:0.8;"/>
     </g>
     <g id="line2d_6">
      <g>
       <use style="stroke:#000000;stroke-width:0.8;" x="141.691139" xlink:href="#md29a12dbcc" y="384.48"/>
      </g>
     </g>
     <g id="text_3">
      <!-- 15 -->
      <g transform="translate(135.328639 399.078438)scale(0.1 -0.1)">
       <use xlink:href="#DejaVuSans-31"/>
       <use x="63.623047" xlink:href="#DejaVuSans-35"/>
      </g>
     </g>
    </g>
    <g id="xtick_4">
     <g id="line2d_7">
      <path clip-path="url(#p92943299c9)" d="M 171.827848 384.48 
L 171.827848 51.84 
" style="fill:none;stroke:#000000;stroke-dasharray:0.8,1.32;stroke-dashoffset:0;stroke-opacity:0.5;stroke-width:0.8;"/>
     </g>
     <g id="line2d_8">
      <g>
       <use style="stroke:#000000;stroke-width:0.8;" x="171.827848" xlink:href="#md29a12dbcc" y="384.48"/>
      </g>
     </g>
     <g id="text_4">
      <!-- Jul -->
      <g transform="translate(165.795036 399.078438)scale(0.1 -0.1)">
       <defs>
        <path d="M 603 4863 
L 1178 4863 
L 1178 0 
L 603 0 
L 603 4863 
z
" id="DejaVuSans-6c" transform="scale(0.015625)"/>
       </defs>
       <use xlink:href="#DejaVuSans-4a"/>
       <use x="29.492188" xlink:href="#DejaVuSans-75"/>
       <use x="92.871094" xlink:href="#DejaVuSans-6c"/>
      </g>
     </g>
    </g>
    <g id="xtick_5">
     <g id="line2d_9">
      <path clip-path="url(#p92943299c9)" d="M 198.197468 384.48 
L 198.197468 51.84 
" style="fill:none;stroke:#000000;stroke-dasharray:0.8,1.32;stroke-dashoffset:0;stroke-opacity:0.5;stroke-width:0.8;"/>
     </g>
     <g id="line2d_10">
      <g>
       <use style="stroke:#000000;stroke-width:0.8;" x="198.197468" xlink:href="#md29a12dbcc" y="384.48"/>
      </g>
     </g>
     <g id="text_5">
      <!-- 15 -->
      <g transform="translate(191.834968 399.078438)scale(0.1 -0.1)">
       <use xlink:href="#DejaVuSans-31"/>
       <use x="63.623047" xlink:href="#DejaVuSans-35"/>
      </g>
     </g>
    </g>
    <g id="xtick_6">
     <g id="line2d_11">
      <path clip-path="url(#p92943299c9)" d="M 230.217722 384.48 
L 230.217722 51.84 
" style="fill:none;stroke:#000000;stroke-dasharray:0.8,1.32;stroke-dashoffset:0;stroke-opacity:0.5;stroke-width:0.8;"/>
     </g>
     <g id="line2d_12">
      <g>
       <use style="stroke:#000000;stroke-width:0.8;" x="230.217722" xlink:href="#md29a12dbcc" y="384.48"/>
      </g>
     </g>
     <g id="text_6">
      <!-- Aug -->
      <g transform="translate(220.45444 399.078438)scale(0.1 -0.1)">
       <defs>
        <path d="M 2188 4044 
L 1331 1722 
L 3047 1722 
L 2188 4044 
z
M 1831 4666 
L 2547 4666 
L 4325 0 
L 3669 0 
L 3244 1197 
L 1141 1197 
L 716 0 
L 50 0 
L 1831 4666 
z
" id="DejaVuSans-41" transform="scale(0.015625)"/>
        <path d="M 2906 1791 
Q 2906 2416 2648 2759 
Q 2391 3103 1925 3103 
Q 1463 3103 1205 2759 
Q 947 2416 947 1791 
Q 947 1169 1205 825 
Q 1463 481 1925 481 
Q 2391 481 2648 825 
Q 2906 1169 2906 1791 
z
M 3481 434 
Q 3481 -459 3084 -895 
Q 2688 -1331 1869 -1331 
Q 1566 -1331 1297 -1286 
Q 1028 -1241 775 -1147 
L 775 -588 
Q 1028 -725 1275 -790 
Q 1522 -856 1778 -856 
Q 2344 -856 2625 -561 
Q 2906 -266 2906 331 
L 2906 616 
Q 2728 306 2450 153 
Q 2172 0 1784 0 
Q 1141 0 747 490 
Q 353 981 353 1791 
Q 353 2603 747 3093 
Q 1141 3584 1784 3584 
Q 2172 3584 2450 3431 
Q 2728 3278 2906 2969 
L 2906 3500 
L 3481 3500 
L 3481 434 
z
" id="DejaVuSans-67" transform="scale(0.015625)"/>
       </defs>
       <use xlink:href="#DejaVuSans-41"/>
       <use x="68.408203" xlink:href="#DejaVuSans-75"/>
       <use x="131.787109" xlink:href="#DejaVuSans-67"/>
      </g>
     </g>
    </g>
    <g id="xtick_7">
     <g id="line2d_13">
      <path clip-path="url(#p92943299c9)" d="M 256.587342 384.48 
L 256.587342 51.84 
" style="fill:none;stroke:#000000;stroke-dasharray:0.8,1.32;stroke-dashoffset:0;stroke-opacity:0.5;stroke-width:0.8;"/>
     </g>
     <g id="line2d_14">
      <g>
       <use style="stroke:#000000;stroke-width:0.8;" x="256.587342" xlink:href="#md29a12dbcc" y="384.48"/>
      </g>
     </g>
     <g id="text_7">
      <!-- 15 -->
      <g transform="translate(250.224842 399.078438)scale(0.1 -0.1)">
       <use xlink:href="#DejaVuSans-31"/>
       <use x="63.623047" xlink:href="#DejaVuSans-35"/>
      </g>
     </g>
    </g>
    <g id="xtick_8">
     <g id="line2d_15">
      <path clip-path="url(#p92943299c9)" d="M 288.607595 384.48 
L 288.607595 51.84 
" style="fill:none;stroke:#000000;stroke-dasharray:0.8,1.32;stroke-dashoffset:0;stroke-opacity:0.5;stroke-width:0.8;"/>
     </g>
     <g id="line2d_16">
      <g>
       <use style="stroke:#000000;stroke-width:0.8;" x="288.607595" xlink:href="#md29a12dbcc" y="384.48"/>
      </g>
     </g>
     <g id="text_8">
      <!-- Sep -->
      <g transform="translate(279.182595 399.078438)scale(0.1 -0.1)">
       <defs>
        <path d="M 3425 4513 
L 3425 3897 
Q 3066 4069 2747 4153 
Q 2428 4238 2131 4238 
Q 1616 4238 1336 4038 
Q 1056 3838 1056 3469 
Q 1056 3159 1242 3001 
Q 1428 2844 1947 2747 
L 2328 2669 
Q 3034 2534 3370 2195 
Q 3706 1856 3706 1288 
Q 3706 609 3251 259 
Q 2797 -91 1919 -91 
Q 1588 -91 1214 -16 
Q 841 59 441 206 
L 441 856 
Q 825 641 1194 531 
Q 1563 422 1919 422 
Q 2459 422 2753 634 
Q 3047 847 3047 1241 
Q 3047 1584 2836 1778 
Q 2625 1972 2144 2069 
L 1759 2144 
Q 1053 2284 737 2584 
Q 422 2884 422 3419 
Q 422 4038 858 4394 
Q 1294 4750 2059 4750 
Q 2388 4750 2728 4690 
Q 3069 4631 3425 4513 
z
" id="DejaVuSans-53" transform="scale(0.015625)"/>
        <path d="M 3597 1894 
L 3597 1613 
L 953 1613 
Q 991 1019 1311 708 
Q 1631 397 2203 397 
Q 2534 397 2845 478 
Q 3156 559 3463 722 
L 3463 178 
Q 3153 47 2828 -22 
Q 2503 -91 2169 -91 
Q 1331 -91 842 396 
Q 353 884 353 1716 
Q 353 2575 817 3079 
Q 1281 3584 2069 3584 
Q 2775 3584 3186 3129 
Q 3597 2675 3597 1894 
z
M 3022 2063 
Q 3016 2534 2758 2815 
Q 2500 3097 2075 3097 
Q 1594 3097 1305 2825 
Q 1016 2553 972 2059 
L 3022 2063 
z
" id="DejaVuSans-65" transform="scale(0.015625)"/>
        <path d="M 1159 525 
L 1159 -1331 
L 581 -1331 
L 581 3500 
L 1159 3500 
L 1159 2969 
Q 1341 3281 1617 3432 
Q 1894 3584 2278 3584 
Q 2916 3584 3314 3078 
Q 3713 2572 3713 1747 
Q 3713 922 3314 415 
Q 2916 -91 2278 -91 
Q 1894 -91 1617 61 
Q 1341 213 1159 525 
z
M 3116 1747 
Q 3116 2381 2855 2742 
Q 2594 3103 2138 3103 
Q 1681 3103 1420 2742 
Q 1159 2381 1159 1747 
Q 1159 1113 1420 752 
Q 1681 391 2138 391 
Q 2594 391 2855 752 
Q 3116 1113 3116 1747 
z
" id="DejaVuSans-70" transform="scale(0.015625)"/>
       </defs>
       <use xlink:href="#DejaVuSans-53"/>
       <use x="63.476562" xlink:href="#DejaVuSans-65"/>
       <use x="125" xlink:href="#DejaVuSans-70"/>
      </g>
     </g>
    </g>
    <g id="xtick_9">
     <g id="line2d_17">
      <path clip-path="url(#p92943299c9)" d="M 314.977215 384.48 
L 314.977215 51.84 
" style="fill:none;stroke:#000000;stroke-dasharray:0.8,1.32;stroke-dashoffset:0;stroke-opacity:0.5;stroke-width:0.8;"/>
     </g>
     <g id="line2d_18">
      <g>
       <use style="stroke:#000000;stroke-width:0.8;" x="314.977215" xlink:href="#md29a12dbcc" y="384.48"/>
      </g>
     </g>
     <g id="text_9">
      <!-- 15 -->
      <g transform="translate(308.614715 399.078438)scale(0.1 -0.1)">
       <use xlink:href="#DejaVuSans-31"/>
       <use x="63.623047" xlink:href="#DejaVuSans-35"/>
      </g>
     </g>
    </g>
    <g id="xtick_10">
     <g id="line2d_19">
      <path clip-path="url(#p92943299c9)" d="M 345.113924 384.48 
L 345.113924 51.84 
" style="fill:none;stroke:#000000;stroke-dasharray:0.8,1.32;stroke-dashoffset:0;stroke-opacity:0.5;stroke-width:0.8;"/>
     </g>
     <g id="line2d_20">
      <g>
       <use style="stroke:#000000;stroke-width:0.8;" x="345.113924" xlink:href="#md29a12dbcc" y="384.48"/>
      </g>
     </g>
     <g id="text_10">
      <!-- Oct -->
      <g transform="translate(336.468612 399.078438)scale(0.1 -0.1)">
       <defs>
        <path d="M 2522 4238 
Q 1834 4238 1429 3725 
Q 1025 3213 1025 2328 
Q 1025 1447 1429 934 
Q 1834 422 2522 422 
Q 3209 422 3611 934 
Q 4013 1447 4013 2328 
Q 4013 3213 3611 3725 
Q 3209 4238 2522 4238 
z
M 2522 4750 
Q 3503 4750 4090 4092 
Q 4678 3434 4678 2328 
Q 4678 1225 4090 567 
Q 3503 -91 2522 -91 
Q 1538 -91 948 565 
Q 359 1222 359 2328 
Q 359 3434 948 4092 
Q 1538 4750 2522 4750 
z
" id="DejaVuSans-4f" transform="scale(0.015625)"/>
        <path d="M 3122 3366 
L 3122 2828 
Q 2878 2963 2633 3030 
Q 2388 3097 2138 3097 
Q 1578 3097 1268 2742 
Q 959 2388 959 1747 
Q 959 1106 1268 751 
Q 1578 397 2138 397 
Q 2388 397 2633 464 
Q 2878 531 3122 666 
L 3122 134 
Q 2881 22 2623 -34 
Q 2366 -91 2075 -91 
Q 1284 -91 818 406 
Q 353 903 353 1747 
Q 353 2603 823 3093 
Q 1294 3584 2113 3584 
Q 2378 3584 2631 3529 
Q 2884 3475 3122 3366 
z
" id="DejaVuSans-63" transform="scale(0.015625)"/>
        <path d="M 1172 4494 
L 1172 3500 
L 2356 3500 
L 2356 3053 
L 1172 3053 
L 1172 1153 
Q 1172 725 1289 603 
Q 1406 481 1766 481 
L 2356 481 
L 2356 0 
L 1766 0 
Q 1100 0 847 248 
Q 594 497 594 1153 
L 594 3053 
L 172 3053 
L 172 3500 
L 594 3500 
L 594 4494 
L 1172 4494 
z
" id="DejaVuSans-74" transform="scale(0.015625)"/>
       </defs>
       <use xlink:href="#DejaVuSans-4f"/>
       <use x="78.710938" xlink:href="#DejaVuSans-63"/>
       <use x="133.691406" xlink:href="#DejaVuSans-74"/>
      </g>
     </g>
    </g>
    <g id="xtick_11">
     <g id="line2d_21">
      <path clip-path="url(#p92943299c9)" d="M 371.483544 384.48 
L 371.483544 51.84 
" style="fill:none;stroke:#000000;stroke-dasharray:0.8,1.32;stroke-dashoffset:0;stroke-opacity:0.5;stroke-width:0.8;"/>
     </g>
     <g id="line2d_22">
      <g>
       <use style="stroke:#000000;stroke-width:0.8;" x="371.483544" xlink:href="#md29a12dbcc" y="384.48"/>
      </g>
     </g>
     <g id="text_11">
      <!-- 15 -->
      <g transform="translate(365.121044 399.078438)scale(0.1 -0.1)">
       <use xlink:href="#DejaVuSans-31"/>
       <use x="63.623047" xlink:href="#DejaVuSans-35"/>
      </g>
     </g>
    </g>
    <g id="xtick_12">
     <g id="line2d_23">
      <path clip-path="url(#p92943299c9)" d="M 403.503797 384.48 
L 403.503797 51.84 
" style="fill:none;stroke:#000000;stroke-dasharray:0.8,1.32;stroke-dashoffset:0;stroke-opacity:0.5;stroke-width:0.8;"/>
     </g>
     <g id="line2d_24">
      <g>
       <use style="stroke:#000000;stroke-width:0.8;" x="403.503797" xlink:href="#md29a12dbcc" y="384.48"/>
      </g>
     </g>
     <g id="text_12">
      <!-- Nov -->
      <g transform="translate(393.744422 399.078438)scale(0.1 -0.1)">
       <defs>
        <path d="M 628 4666 
L 1478 4666 
L 3547 763 
L 3547 4666 
L 4159 4666 
L 4159 0 
L 3309 0 
L 1241 3903 
L 1241 0 
L 628 0 
L 628 4666 
z
" id="DejaVuSans-4e" transform="scale(0.015625)"/>
        <path d="M 1959 3097 
Q 1497 3097 1228 2736 
Q 959 2375 959 1747 
Q 959 1119 1226 758 
Q 1494 397 1959 397 
Q 2419 397 2687 759 
Q 2956 1122 2956 1747 
Q 2956 2369 2687 2733 
Q 2419 3097 1959 3097 
z
M 1959 3584 
Q 2709 3584 3137 3096 
Q 3566 2609 3566 1747 
Q 3566 888 3137 398 
Q 2709 -91 1959 -91 
Q 1206 -91 779 398 
Q 353 888 353 1747 
Q 353 2609 779 3096 
Q 1206 3584 1959 3584 
z
" id="DejaVuSans-6f" transform="scale(0.015625)"/>
        <path d="M 191 3500 
L 800 3500 
L 1894 563 
L 2988 3500 
L 3597 3500 
L 2284 0 
L 1503 0 
L 191 3500 
z
" id="DejaVuSans-76" transform="scale(0.015625)"/>
       </defs>
       <use xlink:href="#DejaVuSans-4e"/>
       <use x="74.804688" xlink:href="#DejaVuSans-6f"/>
       <use x="135.986328" xlink:href="#DejaVuSans-76"/>
      </g>
     </g>
    </g>
    <g id="xtick_13">
     <g id="line2d_25">
      <path clip-path="url(#p92943299c9)" d="M 429.873418 384.48 
L 429.873418 51.84 
" style="fill:none;stroke:#000000;stroke-dasharray:0.8,1.32;stroke-dashoffset:0;stroke-opacity:0.5;stroke-width:0.8;"/>
     </g>
     <g id="line2d_26">
      <g>
       <use style="stroke:#000000;stroke-width:0.8;" x="429.873418" xlink:href="#md29a12dbcc" y="384.48"/>
      </g>
     </g>
     <g id="text_13">
      <!-- 15 -->
      <g transform="translate(423.510918 399.078438)scale(0.1 -0.1)">
       <use xlink:href="#DejaVuSans-31"/>
       <use x="63.623047" xlink:href="#DejaVuSans-35"/>
      </g>
     </g>
    </g>
    <g id="xtick_14">
     <g id="line2d_27">
      <path clip-path="url(#p92943299c9)" d="M 460.010127 384.48 
L 460.010127 51.84 
" style="fill:none;stroke:#000000;stroke-dasharray:0.8,1.32;stroke-dashoffset:0;stroke-opacity:0.5;stroke-width:0.8;"/>
     </g>
     <g id="line2d_28">
      <g>
       <use style="stroke:#000000;stroke-width:0.8;" x="460.010127" xlink:href="#md29a12dbcc" y="384.48"/>
      </g>
     </g>
     <g id="text_14">
      <!-- Dec -->
      <g transform="translate(450.334345 399.078438)scale(0.1 -0.1)">
       <defs>
        <path d="M 1259 4147 
L 1259 519 
L 2022 519 
Q 2988 519 3436 956 
Q 3884 1394 3884 2338 
Q 3884 3275 3436 3711 
Q 2988 4147 2022 4147 
L 1259 4147 
z
M 628 4666 
L 1925 4666 
Q 3281 4666 3915 4102 
Q 4550 3538 4550 2338 
Q 4550 1131 3912 565 
Q 3275 0 1925 0 
L 628 0 
L 628 4666 
z
" id="DejaVuSans-44" transform="scale(0.015625)"/>
       </defs>
       <use xlink:href="#DejaVuSans-44"/>
       <use x="77.001953" xlink:href="#DejaVuSans-65"/>
       <use x="138.525391" xlink:href="#DejaVuSans-63"/>
      </g>
     </g>
    </g>
    <g id="xtick_15">
     <g id="line2d_29">
      <path clip-path="url(#p92943299c9)" d="M 486.379747 384.48 
L 486.379747 51.84 
" style="fill:none;stroke:#000000;stroke-dasharray:0.8,1.32;stroke-dashoffset:0;stroke-opacity:0.5;stroke-width:0.8;"/>
     </g>
     <g id="line2d_30">
      <g>
       <use style="stroke:#000000;stroke-width:0.8;" x="486.379747" xlink:href="#md29a12dbcc" y="384.48"/>
      </g>
     </g>
     <g id="text_15">
      <!-- 15 -->
      <g transform="translate(480.017247 399.078438)scale(0.1 -0.1)">
       <use xlink:href="#DejaVuSans-31"/>
       <use x="63.623047" xlink:href="#DejaVuSans-35"/>
      </g>
     </g>
    </g>
    <g id="xtick_16">
     <g id="line2d_31">
      <path clip-path="url(#p92943299c9)" d="M 518.4 384.48 
L 518.4 51.84 
" style="fill:none;stroke:#000000;stroke-dasharray:0.8,1.32;stroke-dashoffset:0;stroke-opacity:0.5;stroke-width:0.8;"/>
     </g>
     <g id="line2d_32">
      <g>
       <use style="stroke:#000000;stroke-width:0.8;" x="518.4" xlink:href="#md29a12dbcc" y="384.48"/>
      </g>
     </g>
     <g id="text_16">
      <!-- Jan -->
      <g transform="translate(510.692188 399.078438)scale(0.1 -0.1)">
       <defs>
        <path d="M 2194 1759 
Q 1497 1759 1228 1600 
Q 959 1441 959 1056 
Q 959 750 1161 570 
Q 1363 391 1709 391 
Q 2188 391 2477 730 
Q 2766 1069 2766 1631 
L 2766 1759 
L 2194 1759 
z
M 3341 1997 
L 3341 0 
L 2766 0 
L 2766 531 
Q 2569 213 2275 61 
Q 1981 -91 1556 -91 
Q 1019 -91 701 211 
Q 384 513 384 1019 
Q 384 1609 779 1909 
Q 1175 2209 1959 2209 
L 2766 2209 
L 2766 2266 
Q 2766 2663 2505 2880 
Q 2244 3097 1772 3097 
Q 1472 3097 1187 3025 
Q 903 2953 641 2809 
L 641 3341 
Q 956 3463 1253 3523 
Q 1550 3584 1831 3584 
Q 2591 3584 2966 3190 
Q 3341 2797 3341 1997 
z
" id="DejaVuSans-61" transform="scale(0.015625)"/>
       </defs>
       <use xlink:href="#DejaVuSans-4a"/>
       <use x="29.492188" xlink:href="#DejaVuSans-61"/>
       <use x="90.771484" xlink:href="#DejaVuSans-6e"/>
      </g>
     </g>
    </g>
    <g id="text_17">
     <!-- 2022-Jan -->
     <g transform="translate(473.364062 411.756563)scale(0.1 -0.1)">
      <defs>
       <path d="M 1228 531 
L 3431 531 
L 3431 0 
L 469 0 
L 469 531 
Q 828 903 1448 1529 
Q 2069 2156 2228 2338 
Q 2531 2678 2651 2914 
Q 2772 3150 2772 3378 
Q 2772 3750 2511 3984 
Q 2250 4219 1831 4219 
Q 1534 4219 1204 4116 
Q 875 4013 500 3803 
L 500 4441 
Q 881 4594 1212 4672 
Q 1544 4750 1819 4750 
Q 2544 4750 2975 4387 
Q 3406 4025 3406 3419 
Q 3406 3131 3298 2873 
Q 3191 2616 2906 2266 
Q 2828 2175 2409 1742 
Q 1991 1309 1228 531 
z
" id="DejaVuSans-32" transform="scale(0.015625)"/>
       <path d="M 2034 4250 
Q 1547 4250 1301 3770 
Q 1056 3291 1056 2328 
Q 1056 1369 1301 889 
Q 1547 409 2034 409 
Q 2525 409 2770 889 
Q 3016 1369 3016 2328 
Q 3016 3291 2770 3770 
Q 2525 4250 2034 4250 
z
M 2034 4750 
Q 2819 4750 3233 4129 
Q 3647 3509 3647 2328 
Q 3647 1150 3233 529 
Q 2819 -91 2034 -91 
Q 1250 -91 836 529 
Q 422 1150 422 2328 
Q 422 3509 836 4129 
Q 1250 4750 2034 4750 
z
" id="DejaVuSans-30" transform="scale(0.015625)"/>
       <path d="M 313 2009 
L 1997 2009 
L 1997 1497 
L 313 1497 
L 313 2009 
z
" id="DejaVuSans-2d" transform="scale(0.015625)"/>
      </defs>
      <use xlink:href="#DejaVuSans-32"/>
      <use x="63.623047" xlink:href="#DejaVuSans-30"/>
      <use x="127.246094" xlink:href="#DejaVuSans-32"/>
      <use x="190.869141" xlink:href="#DejaVuSans-32"/>
      <use x="254.492188" xlink:href="#DejaVuSans-2d"/>
      <use x="296.201172" xlink:href="#DejaVuSans-4a"/>
      <use x="325.693359" xlink:href="#DejaVuSans-61"/>
      <use x="386.972656" xlink:href="#DejaVuSans-6e"/>
     </g>
    </g>
   </g>
   <g id="matplotlib.axis_2">
    <g id="ytick_1">
     <g id="line2d_33">
      <path clip-path="url(#p92943299c9)" d="M 72 384.48 
L 518.4 384.48 
" style="fill:none;stroke:#000000;stroke-dasharray:0.8,1.32;stroke-dashoffset:0;stroke-opacity:0.5;stroke-width:0.8;"/>
     </g>
     <g id="line2d_34">
      <defs>
       <path d="M 0 0 
L -3.5 0 
" id="m44503fee88" style="stroke:#000000;stroke-width:0.8;"/>
      </defs>
      <g>
       <use style="stroke:#000000;stroke-width:0.8;" x="72" xlink:href="#m44503fee88" y="384.48"/>
      </g>
     </g>
     <g id="text_18">
      <!-- 0 -->
      <g transform="translate(58.6375 388.279219)scale(0.1 -0.1)">
       <use xlink:href="#DejaVuSans-30"/>
      </g>
     </g>
    </g>
    <g id="ytick_2">
     <g id="line2d_35">
      <path clip-path="url(#p92943299c9)" d="M 72 358.892308 
L 518.4 358.892308 
" style="fill:none;stroke:#000000;stroke-dasharray:0.8,1.32;stroke-dashoffset:0;stroke-opacity:0.5;stroke-width:0.8;"/>
     </g>
     <g id="line2d_36">
      <g>
       <use style="stroke:#000000;stroke-width:0.8;" x="72" xlink:href="#m44503fee88" y="358.892308"/>
      </g>
     </g>
     <g id="text_19">
      <!-- 1 -->
      <g transform="translate(58.6375 362.691526)scale(0.1 -0.1)">
       <use xlink:href="#DejaVuSans-31"/>
      </g>
     </g>
    </g>
    <g id="ytick_3">
     <g id="line2d_37">
      <path clip-path="url(#p92943299c9)" d="M 72 333.304615 
L 518.4 333.304615 
" style="fill:none;stroke:#000000;stroke-dasharray:0.8,1.32;stroke-dashoffset:0;stroke-opacity:0.5;stroke-width:0.8;"/>
     </g>
     <g id="line2d_38">
      <g>
       <use style="stroke:#000000;stroke-width:0.8;" x="72" xlink:href="#m44503fee88" y="333.304615"/>
      </g>
     </g>
     <g id="text_20">
      <!-- 2 -->
      <g transform="translate(58.6375 337.103834)scale(0.1 -0.1)">
       <use xlink:href="#DejaVuSans-32"/>
      </g>
     </g>
    </g>
    <g id="ytick_4">
     <g id="line2d_39">
      <path clip-path="url(#p92943299c9)" d="M 72 307.716923 
L 518.4 307.716923 
" style="fill:none;stroke:#000000;stroke-dasharray:0.8,1.32;stroke-dashoffset:0;stroke-opacity:0.5;stroke-width:0.8;"/>
     </g>
     <g id="line2d_40">
      <g>
       <use style="stroke:#000000;stroke-width:0.8;" x="72" xlink:href="#m44503fee88" y="307.716923"/>
      </g>
     </g>
     <g id="text_21">
      <!-- 3 -->
      <g transform="translate(58.6375 311.516142)scale(0.1 -0.1)">
       <defs>
        <path d="M 2597 2516 
Q 3050 2419 3304 2112 
Q 3559 1806 3559 1356 
Q 3559 666 3084 287 
Q 2609 -91 1734 -91 
Q 1441 -91 1130 -33 
Q 819 25 488 141 
L 488 750 
Q 750 597 1062 519 
Q 1375 441 1716 441 
Q 2309 441 2620 675 
Q 2931 909 2931 1356 
Q 2931 1769 2642 2001 
Q 2353 2234 1838 2234 
L 1294 2234 
L 1294 2753 
L 1863 2753 
Q 2328 2753 2575 2939 
Q 2822 3125 2822 3475 
Q 2822 3834 2567 4026 
Q 2313 4219 1838 4219 
Q 1578 4219 1281 4162 
Q 984 4106 628 3988 
L 628 4550 
Q 988 4650 1302 4700 
Q 1616 4750 1894 4750 
Q 2613 4750 3031 4423 
Q 3450 4097 3450 3541 
Q 3450 3153 3228 2886 
Q 3006 2619 2597 2516 
z
" id="DejaVuSans-33" transform="scale(0.015625)"/>
       </defs>
       <use xlink:href="#DejaVuSans-33"/>
      </g>
     </g>
    </g>
    <g id="ytick_5">
     <g id="line2d_41">
      <path clip-path="url(#p92943299c9)" d="M 72 282.129231 
L 518.4 282.129231 
" style="fill:none;stroke:#000000;stroke-dasharray:0.8,1.32;stroke-dashoffset:0;stroke-opacity:0.5;stroke-width:0.8;"/>
     </g>
     <g id="line2d_42">
      <g>
       <use style="stroke:#000000;stroke-width:0.8;" x="72" xlink:href="#m44503fee88" y="282.129231"/>
      </g>
     </g>
     <g id="text_22">
      <!-- 4 -->
      <g transform="translate(58.6375 285.92845)scale(0.1 -0.1)">
       <defs>
        <path d="M 2419 4116 
L 825 1625 
L 2419 1625 
L 2419 4116 
z
M 2253 4666 
L 3047 4666 
L 3047 1625 
L 3713 1625 
L 3713 1100 
L 3047 1100 
L 3047 0 
L 2419 0 
L 2419 1100 
L 313 1100 
L 313 1709 
L 2253 4666 
z
" id="DejaVuSans-34" transform="scale(0.015625)"/>
       </defs>
       <use xlink:href="#DejaVuSans-34"/>
      </g>
     </g>
    </g>
    <g id="ytick_6">
     <g id="line2d_43">
      <path clip-path="url(#p92943299c9)" d="M 72 256.541538 
L 518.4 256.541538 
" style="fill:none;stroke:#000000;stroke-dasharray:0.8,1.32;stroke-dashoffset:0;stroke-opacity:0.5;stroke-width:0.8;"/>
     </g>
     <g id="line2d_44">
      <g>
       <use style="stroke:#000000;stroke-width:0.8;" x="72" xlink:href="#m44503fee88" y="256.541538"/>
      </g>
     </g>
     <g id="text_23">
      <!-- 5 -->
      <g transform="translate(58.6375 260.340757)scale(0.1 -0.1)">
       <use xlink:href="#DejaVuSans-35"/>
      </g>
     </g>
    </g>
    <g id="ytick_7">
     <g id="line2d_45">
      <path clip-path="url(#p92943299c9)" d="M 72 230.953846 
L 518.4 230.953846 
" style="fill:none;stroke:#000000;stroke-dasharray:0.8,1.32;stroke-dashoffset:0;stroke-opacity:0.5;stroke-width:0.8;"/>
     </g>
     <g id="line2d_46">
      <g>
       <use style="stroke:#000000;stroke-width:0.8;" x="72" xlink:href="#m44503fee88" y="230.953846"/>
      </g>
     </g>
     <g id="text_24">
      <!-- 6 -->
      <g transform="translate(58.6375 234.753065)scale(0.1 -0.1)">
       <defs>
        <path d="M 2113 2584 
Q 1688 2584 1439 2293 
Q 1191 2003 1191 1497 
Q 1191 994 1439 701 
Q 1688 409 2113 409 
Q 2538 409 2786 701 
Q 3034 994 3034 1497 
Q 3034 2003 2786 2293 
Q 2538 2584 2113 2584 
z
M 3366 4563 
L 3366 3988 
Q 3128 4100 2886 4159 
Q 2644 4219 2406 4219 
Q 1781 4219 1451 3797 
Q 1122 3375 1075 2522 
Q 1259 2794 1537 2939 
Q 1816 3084 2150 3084 
Q 2853 3084 3261 2657 
Q 3669 2231 3669 1497 
Q 3669 778 3244 343 
Q 2819 -91 2113 -91 
Q 1303 -91 875 529 
Q 447 1150 447 2328 
Q 447 3434 972 4092 
Q 1497 4750 2381 4750 
Q 2619 4750 2861 4703 
Q 3103 4656 3366 4563 
z
" id="DejaVuSans-36" transform="scale(0.015625)"/>
       </defs>
       <use xlink:href="#DejaVuSans-36"/>
      </g>
     </g>
    </g>
    <g id="ytick_8">
     <g id="line2d_47">
      <path clip-path="url(#p92943299c9)" d="M 72 205.366154 
L 518.4 205.366154 
" style="fill:none;stroke:#000000;stroke-dasharray:0.8,1.32;stroke-dashoffset:0;stroke-opacity:0.5;stroke-width:0.8;"/>
     </g>
     <g id="line2d_48">
      <g>
       <use style="stroke:#000000;stroke-width:0.8;" x="72" xlink:href="#m44503fee88" y="205.366154"/>
      </g>
     </g>
     <g id="text_25">
      <!-- 7 -->
      <g transform="translate(58.6375 209.165373)scale(0.1 -0.1)">
       <defs>
        <path d="M 525 4666 
L 3525 4666 
L 3525 4397 
L 1831 0 
L 1172 0 
L 2766 4134 
L 525 4134 
L 525 4666 
z
" id="DejaVuSans-37" transform="scale(0.015625)"/>
       </defs>
       <use xlink:href="#DejaVuSans-37"/>
      </g>
     </g>
    </g>
    <g id="ytick_9">
     <g id="line2d_49">
      <path clip-path="url(#p92943299c9)" d="M 72 179.778462 
L 518.4 179.778462 
" style="fill:none;stroke:#000000;stroke-dasharray:0.8,1.32;stroke-dashoffset:0;stroke-opacity:0.5;stroke-width:0.8;"/>
     </g>
     <g id="line2d_50">
      <g>
       <use style="stroke:#000000;stroke-width:0.8;" x="72" xlink:href="#m44503fee88" y="179.778462"/>
      </g>
     </g>
     <g id="text_26">
      <!-- 8 -->
      <g transform="translate(58.6375 183.57768)scale(0.1 -0.1)">
       <defs>
        <path d="M 2034 2216 
Q 1584 2216 1326 1975 
Q 1069 1734 1069 1313 
Q 1069 891 1326 650 
Q 1584 409 2034 409 
Q 2484 409 2743 651 
Q 3003 894 3003 1313 
Q 3003 1734 2745 1975 
Q 2488 2216 2034 2216 
z
M 1403 2484 
Q 997 2584 770 2862 
Q 544 3141 544 3541 
Q 544 4100 942 4425 
Q 1341 4750 2034 4750 
Q 2731 4750 3128 4425 
Q 3525 4100 3525 3541 
Q 3525 3141 3298 2862 
Q 3072 2584 2669 2484 
Q 3125 2378 3379 2068 
Q 3634 1759 3634 1313 
Q 3634 634 3220 271 
Q 2806 -91 2034 -91 
Q 1263 -91 848 271 
Q 434 634 434 1313 
Q 434 1759 690 2068 
Q 947 2378 1403 2484 
z
M 1172 3481 
Q 1172 3119 1398 2916 
Q 1625 2713 2034 2713 
Q 2441 2713 2670 2916 
Q 2900 3119 2900 3481 
Q 2900 3844 2670 4047 
Q 2441 4250 2034 4250 
Q 1625 4250 1398 4047 
Q 1172 3844 1172 3481 
z
" id="DejaVuSans-38" transform="scale(0.015625)"/>
       </defs>
       <use xlink:href="#DejaVuSans-38"/>
      </g>
     </g>
    </g>
    <g id="ytick_10">
     <g id="line2d_51">
      <path clip-path="url(#p92943299c9)" d="M 72 154.190769 
L 518.4 154.190769 
" style="fill:none;stroke:#000000;stroke-dasharray:0.8,1.32;stroke-dashoffset:0;stroke-opacity:0.5;stroke-width:0.8;"/>
     </g>
     <g id="line2d_52">
      <g>
       <use style="stroke:#000000;stroke-width:0.8;" x="72" xlink:href="#m44503fee88" y="154.190769"/>
      </g>
     </g>
     <g id="text_27">
      <!-- 9 -->
      <g transform="translate(58.6375 157.989988)scale(0.1 -0.1)">
       <defs>
        <path d="M 703 97 
L 703 672 
Q 941 559 1184 500 
Q 1428 441 1663 441 
Q 2288 441 2617 861 
Q 2947 1281 2994 2138 
Q 2813 1869 2534 1725 
Q 2256 1581 1919 1581 
Q 1219 1581 811 2004 
Q 403 2428 403 3163 
Q 403 3881 828 4315 
Q 1253 4750 1959 4750 
Q 2769 4750 3195 4129 
Q 3622 3509 3622 2328 
Q 3622 1225 3098 567 
Q 2575 -91 1691 -91 
Q 1453 -91 1209 -44 
Q 966 3 703 97 
z
M 1959 2075 
Q 2384 2075 2632 2365 
Q 2881 2656 2881 3163 
Q 2881 3666 2632 3958 
Q 2384 4250 1959 4250 
Q 1534 4250 1286 3958 
Q 1038 3666 1038 3163 
Q 1038 2656 1286 2365 
Q 1534 2075 1959 2075 
z
" id="DejaVuSans-39" transform="scale(0.015625)"/>
       </defs>
       <use xlink:href="#DejaVuSans-39"/>
      </g>
     </g>
    </g>
    <g id="ytick_11">
     <g id="line2d_53">
      <path clip-path="url(#p92943299c9)" d="M 72 128.603077 
L 518.4 128.603077 
" style="fill:none;stroke:#000000;stroke-dasharray:0.8,1.32;stroke-dashoffset:0;stroke-opacity:0.5;stroke-width:0.8;"/>
     </g>
     <g id="line2d_54">
      <g>
       <use style="stroke:#000000;stroke-width:0.8;" x="72" xlink:href="#m44503fee88" y="128.603077"/>
      </g>
     </g>
     <g id="text_28">
      <!-- 10 -->
      <g transform="translate(52.275 132.402296)scale(0.1 -0.1)">
       <use xlink:href="#DejaVuSans-31"/>
       <use x="63.623047" xlink:href="#DejaVuSans-30"/>
      </g>
     </g>
    </g>
    <g id="ytick_12">
     <g id="line2d_55">
      <path clip-path="url(#p92943299c9)" d="M 72 103.015385 
L 518.4 103.015385 
" style="fill:none;stroke:#000000;stroke-dasharray:0.8,1.32;stroke-dashoffset:0;stroke-opacity:0.5;stroke-width:0.8;"/>
     </g>
     <g id="line2d_56">
      <g>
       <use style="stroke:#000000;stroke-width:0.8;" x="72" xlink:href="#m44503fee88" y="103.015385"/>
      </g>
     </g>
     <g id="text_29">
      <!-- 11 -->
      <g transform="translate(52.275 106.814603)scale(0.1 -0.1)">
       <use xlink:href="#DejaVuSans-31"/>
       <use x="63.623047" xlink:href="#DejaVuSans-31"/>
      </g>
     </g>
    </g>
    <g id="ytick_13">
     <g id="line2d_57">
      <path clip-path="url(#p92943299c9)" d="M 72 77.427692 
L 518.4 77.427692 
" style="fill:none;stroke:#000000;stroke-dasharray:0.8,1.32;stroke-dashoffset:0;stroke-opacity:0.5;stroke-width:0.8;"/>
     </g>
     <g id="line2d_58">
      <g>
       <use style="stroke:#000000;stroke-width:0.8;" x="72" xlink:href="#m44503fee88" y="77.427692"/>
      </g>
     </g>
     <g id="text_30">
      <!-- 12 -->
      <g transform="translate(52.275 81.226911)scale(0.1 -0.1)">
       <use xlink:href="#DejaVuSans-31"/>
       <use x="63.623047" xlink:href="#DejaVuSans-32"/>
      </g>
     </g>
    </g>
    <g id="ytick_14">
     <g id="line2d_59">
      <path clip-path="url(#p92943299c9)" d="M 72 51.84 
L 518.4 51.84 
" style="fill:none;stroke:#000000;stroke-dasharray:0.8,1.32;stroke-dashoffset:0;stroke-opacity:0.5;stroke-width:0.8;"/>
     </g>
     <g id="line2d_60">
      <g>
       <use style="stroke:#000000;stroke-width:0.8;" x="72" xlink:href="#m44503fee88" y="51.84"/>
      </g>
     </g>
     <g id="text_31">
      <!-- 13 -->
      <g transform="translate(52.275 55.639219)scale(0.1 -0.1)">
       <use xlink:href="#DejaVuSans-31"/>
       <use x="63.623047" xlink:href="#DejaVuSans-33"/>
      </g>
     </g>
    </g>
    <g id="text_32">
     <!-- Vaccination rate (% of age group / week) -->
     <g transform="translate(46.195312 320.362344)rotate(-90)scale(0.1 -0.1)">
      <defs>
       <path d="M 1831 0 
L 50 4666 
L 709 4666 
L 2188 738 
L 3669 4666 
L 4325 4666 
L 2547 0 
L 1831 0 
z
" id="DejaVuSans-56" transform="scale(0.015625)"/>
       <path d="M 603 3500 
L 1178 3500 
L 1178 0 
L 603 0 
L 603 3500 
z
M 603 4863 
L 1178 4863 
L 1178 4134 
L 603 4134 
L 603 4863 
z
" id="DejaVuSans-69" transform="scale(0.015625)"/>
       <path id="DejaVuSans-20" transform="scale(0.015625)"/>
       <path d="M 2631 2963 
Q 2534 3019 2420 3045 
Q 2306 3072 2169 3072 
Q 1681 3072 1420 2755 
Q 1159 2438 1159 1844 
L 1159 0 
L 581 0 
L 581 3500 
L 1159 3500 
L 1159 2956 
Q 1341 3275 1631 3429 
Q 1922 3584 2338 3584 
Q 2397 3584 2469 3576 
Q 2541 3569 2628 3553 
L 2631 2963 
z
" id="DejaVuSans-72" transform="scale(0.015625)"/>
       <path d="M 1984 4856 
Q 1566 4138 1362 3434 
Q 1159 2731 1159 2009 
Q 1159 1288 1364 580 
Q 1569 -128 1984 -844 
L 1484 -844 
Q 1016 -109 783 600 
Q 550 1309 550 2009 
Q 550 2706 781 3412 
Q 1013 4119 1484 4856 
L 1984 4856 
z
" id="DejaVuSans-28" transform="scale(0.015625)"/>
       <path d="M 4653 2053 
Q 4381 2053 4226 1822 
Q 4072 1591 4072 1178 
Q 4072 772 4226 539 
Q 4381 306 4653 306 
Q 4919 306 5073 539 
Q 5228 772 5228 1178 
Q 5228 1588 5073 1820 
Q 4919 2053 4653 2053 
z
M 4653 2450 
Q 5147 2450 5437 2106 
Q 5728 1763 5728 1178 
Q 5728 594 5436 251 
Q 5144 -91 4653 -91 
Q 4153 -91 3862 251 
Q 3572 594 3572 1178 
Q 3572 1766 3864 2108 
Q 4156 2450 4653 2450 
z
M 1428 4353 
Q 1159 4353 1004 4120 
Q 850 3888 850 3481 
Q 850 3069 1003 2837 
Q 1156 2606 1428 2606 
Q 1700 2606 1854 2837 
Q 2009 3069 2009 3481 
Q 2009 3884 1853 4118 
Q 1697 4353 1428 4353 
z
M 4250 4750 
L 4750 4750 
L 1831 -91 
L 1331 -91 
L 4250 4750 
z
M 1428 4750 
Q 1922 4750 2215 4408 
Q 2509 4066 2509 3481 
Q 2509 2891 2217 2550 
Q 1925 2209 1428 2209 
Q 931 2209 642 2551 
Q 353 2894 353 3481 
Q 353 4063 643 4406 
Q 934 4750 1428 4750 
z
" id="DejaVuSans-25" transform="scale(0.015625)"/>
       <path d="M 2375 4863 
L 2375 4384 
L 1825 4384 
Q 1516 4384 1395 4259 
Q 1275 4134 1275 3809 
L 1275 3500 
L 2222 3500 
L 2222 3053 
L 1275 3053 
L 1275 0 
L 697 0 
L 697 3053 
L 147 3053 
L 147 3500 
L 697 3500 
L 697 3744 
Q 697 4328 969 4595 
Q 1241 4863 1831 4863 
L 2375 4863 
z
" id="DejaVuSans-66" transform="scale(0.015625)"/>
       <path d="M 1625 4666 
L 2156 4666 
L 531 -594 
L 0 -594 
L 1625 4666 
z
" id="DejaVuSans-2f" transform="scale(0.015625)"/>
       <path d="M 269 3500 
L 844 3500 
L 1563 769 
L 2278 3500 
L 2956 3500 
L 3675 769 
L 4391 3500 
L 4966 3500 
L 4050 0 
L 3372 0 
L 2619 2869 
L 1863 0 
L 1184 0 
L 269 3500 
z
" id="DejaVuSans-77" transform="scale(0.015625)"/>
       <path d="M 581 4863 
L 1159 4863 
L 1159 1991 
L 2875 3500 
L 3609 3500 
L 1753 1863 
L 3688 0 
L 2938 0 
L 1159 1709 
L 1159 0 
L 581 0 
L 581 4863 
z
" id="DejaVuSans-6b" transform="scale(0.015625)"/>
       <path d="M 513 4856 
L 1013 4856 
Q 1481 4119 1714 3412 
Q 1947 2706 1947 2009 
Q 1947 1309 1714 600 
Q 1481 -109 1013 -844 
L 513 -844 
Q 928 -128 1133 580 
Q 1338 1288 1338 2009 
Q 1338 2731 1133 3434 
Q 928 4138 513 4856 
z
" id="DejaVuSans-29" transform="scale(0.015625)"/>
      </defs>
      <use xlink:href="#DejaVuSans-56"/>
      <use x="60.658203" xlink:href="#DejaVuSans-61"/>
      <use x="121.9375" xlink:href="#DejaVuSans-63"/>
      <use x="176.917969" xlink:href="#DejaVuSans-63"/>
      <use x="231.898438" xlink:href="#DejaVuSans-69"/>
      <use x="259.681641" xlink:href="#DejaVuSans-6e"/>
      <use x="323.060547" xlink:href="#DejaVuSans-61"/>
      <use x="384.339844" xlink:href="#DejaVuSans-74"/>
      <use x="423.548828" xlink:href="#DejaVuSans-69"/>
      <use x="451.332031" xlink:href="#DejaVuSans-6f"/>
      <use x="512.513672" xlink:href="#DejaVuSans-6e"/>
      <use x="575.892578" xlink:href="#DejaVuSans-20"/>
      <use x="607.679688" xlink:href="#DejaVuSans-72"/>
      <use x="648.792969" xlink:href="#DejaVuSans-61"/>
      <use x="710.072266" xlink:href="#DejaVuSans-74"/>
      <use x="749.28125" xlink:href="#DejaVuSans-65"/>
      <use x="810.804688" xlink:href="#DejaVuSans-20"/>
      <use x="842.591797" xlink:href="#DejaVuSans-28"/>
      <use x="881.605469" xlink:href="#DejaVuSans-25"/>
      <use x="976.625" xlink:href="#DejaVuSans-20"/>
      <use x="1008.412109" xlink:href="#DejaVuSans-6f"/>
      <use x="1069.59375" xlink:href="#DejaVuSans-66"/>
      <use x="1104.798828" xlink:href="#DejaVuSans-20"/>
      <use x="1136.585938" xlink:href="#DejaVuSans-61"/>
      <use x="1197.865234" xlink:href="#DejaVuSans-67"/>
      <use x="1261.341797" xlink:href="#DejaVuSans-65"/>
      <use x="1322.865234" xlink:href="#DejaVuSans-20"/>
      <use x="1354.652344" xlink:href="#DejaVuSans-67"/>
      <use x="1418.128906" xlink:href="#DejaVuSans-72"/>
      <use x="1456.992188" xlink:href="#DejaVuSans-6f"/>
      <use x="1518.173828" xlink:href="#DejaVuSans-75"/>
      <use x="1581.552734" xlink:href="#DejaVuSans-70"/>
      <use x="1645.029297" xlink:href="#DejaVuSans-20"/>
      <use x="1676.816406" xlink:href="#DejaVuSans-2f"/>
      <use x="1710.507812" xlink:href="#DejaVuSans-20"/>
      <use x="1742.294922" xlink:href="#DejaVuSans-77"/>
      <use x="1824.082031" xlink:href="#DejaVuSans-65"/>
      <use x="1885.605469" xlink:href="#DejaVuSans-65"/>
      <use x="1947.128906" xlink:href="#DejaVuSans-6b"/>
      <use x="2005.039062" xlink:href="#DejaVuSans-29"/>
     </g>
    </g>
   </g>
   <g id="line2d_61">
    <path clip-path="url(#p92943299c9)" d="M 183.129114 266.588529 
L 185.012658 266.451103 
L 186.896203 266.797959 
L 188.779747 267.40065 
L 190.663291 267.531381 
L 192.546835 267.235301 
L 194.43038 267.204452 
L 196.313924 267.65125 
L 198.197468 268.568643 
L 200.081013 269.691017 
L 201.964557 270.873826 
L 203.848101 272.686035 
L 205.731646 275.384444 
L 207.61519 278.424548 
L 209.498734 281.260379 
L 211.382278 283.328913 
L 213.265823 284.729482 
L 215.149367 285.713402 
L 217.032911 286.339807 
L 218.916456 287.213727 
L 220.8 288.703686 
L 222.683544 290.68909 
L 224.567089 292.781903 
L 226.450633 294.135172 
L 228.334177 294.43522 
L 230.217722 294.371301 
L 232.101266 294.671355 
L 233.98481 295.272314 
L 235.868354 295.739346 
L 237.751899 295.870995 
L 239.635443 295.736626 
L 241.518987 295.681705 
L 243.402532 295.967602 
L 245.286076 296.50143 
L 247.16962 297.297324 
L 249.053165 298.276741 
L 250.936709 299.020987 
L 252.820253 299.458695 
L 254.703797 299.694332 
L 256.587342 299.760535 
L 258.470886 299.531743 
L 260.35443 298.741838 
L 262.237975 297.790837 
L 264.121519 297.563683 
L 266.005063 297.871532 
L 267.888608 298.124406 
L 269.772152 298.137628 
L 271.655696 298.089933 
L 273.539241 298.122344 
L 275.422785 297.943963 
L 277.306329 297.254864 
L 279.189873 296.401139 
L 281.073418 295.73989 
L 282.956962 295.257761 
L 284.840506 294.838508 
L 286.724051 294.753759 
L 288.607595 295.289362 
L 290.491139 296.204969 
L 292.374684 297.432881 
L 294.258228 298.77867 
L 296.141772 300.076995 
L 298.025316 301.443295 
L 299.908861 302.553668 
L 301.792405 303.050055 
L 303.675949 303.302741 
L 305.559494 303.570106 
L 307.443038 303.609194 
L 309.326582 303.27353 
L 311.210127 302.995173 
L 313.093671 303.618243 
L 314.977215 305.281461 
L 316.860759 307.08126 
L 318.744304 308.221933 
L 320.627848 308.811741 
L 322.511392 309.360861 
L 324.394937 310.005429 
" style="fill:none;stroke:#1f77b4;stroke-linecap:square;stroke-width:1.5;"/>
   </g>
   <g id="line2d_62">
    <path clip-path="url(#p92943299c9)" d="M 183.129114 224.740551 
L 185.012658 224.020805 
L 186.896203 223.41816 
L 188.779747 223.208657 
L 190.663291 223.260434 
L 192.546835 222.74119 
L 194.43038 221.321151 
L 196.313924 219.770664 
L 198.197468 218.840949 
L 200.081013 218.705023 
L 201.964557 219.413784 
L 203.848101 221.06729 
L 205.731646 223.696191 
L 207.61519 226.821805 
L 209.498734 229.916957 
L 211.382278 232.575438 
L 213.265823 234.735554 
L 215.149367 236.510242 
L 217.032911 238.102952 
L 218.916456 240.28554 
L 220.8 243.009141 
L 222.683544 245.608638 
L 224.567089 247.804958 
L 226.450633 249.455412 
L 228.334177 250.225933 
L 230.217722 250.162952 
L 232.101266 250.067642 
L 233.98481 250.817015 
L 235.868354 252.375397 
L 237.751899 254.149678 
L 239.635443 255.312269 
L 241.518987 255.824735 
L 243.402532 256.37713 
L 245.286076 257.313462 
L 247.16962 258.460719 
L 249.053165 259.718172 
L 250.936709 260.874153 
L 252.820253 261.640123 
L 254.703797 261.948686 
L 256.587342 262.126967 
L 258.470886 262.628773 
L 260.35443 263.599305 
L 262.237975 264.61529 
L 264.121519 265.485213 
L 266.005063 266.096166 
L 267.888608 266.41654 
L 269.772152 266.781406 
L 271.655696 267.086413 
L 273.539241 266.422754 
L 275.422785 265.059134 
L 277.306329 264.023625 
L 279.189873 263.538839 
L 281.073418 263.356441 
L 282.956962 263.458522 
L 284.840506 264.105143 
L 286.724051 265.755857 
L 288.607595 268.424681 
L 290.491139 271.252652 
L 292.374684 273.736054 
L 294.258228 275.726063 
L 296.141772 277.488962 
L 298.025316 279.701874 
L 299.908861 282.181615 
L 301.792405 284.185932 
L 303.675949 285.564009 
L 305.559494 286.536046 
L 307.443038 287.12004 
L 309.326582 287.215272 
L 311.210127 287.206746 
L 313.093671 288.0011 
L 314.977215 289.841115 
L 316.860759 292.052585 
L 318.744304 293.780367 
L 320.627848 294.91509 
L 322.511392 295.931468 
L 324.394937 296.922474 
" style="fill:none;stroke:#ff7f0e;stroke-linecap:square;stroke-width:1.5;"/>
   </g>
   <g id="line2d_63">
    <path clip-path="url(#p92943299c9)" d="M 183.129114 226.398587 
L 185.012658 226.28417 
L 186.896203 226.24172 
L 188.779747 225.939396 
L 190.663291 225.198459 
L 192.546835 223.417455 
L 194.43038 220.422318 
L 196.313924 217.185335 
L 198.197468 214.505289 
L 200.081013 212.864417 
L 201.964557 212.777369 
L 203.848101 214.165304 
L 205.731646 216.753401 
L 207.61519 219.820581 
L 209.498734 222.569909 
L 211.382278 224.849839 
L 213.265823 226.777668 
L 215.149367 228.359871 
L 217.032911 229.661837 
L 218.916456 231.210367 
L 220.8 233.148132 
L 222.683544 235.173317 
L 224.567089 237.174072 
L 226.450633 238.901367 
L 228.334177 239.824002 
L 230.217722 239.928572 
L 232.101266 239.925036 
L 233.98481 240.542512 
L 235.868354 241.72538 
L 237.751899 242.777022 
L 239.635443 243.009704 
L 241.518987 242.787144 
L 243.402532 242.898765 
L 245.286076 243.51356 
L 247.16962 244.344755 
L 249.053165 245.325881 
L 250.936709 246.303811 
L 252.820253 247.204882 
L 254.703797 247.762016 
L 256.587342 247.962199 
L 258.470886 248.270371 
L 260.35443 248.975746 
L 262.237975 249.752108 
L 264.121519 250.360266 
L 266.005063 250.553808 
L 267.888608 250.484914 
L 269.772152 250.608389 
L 271.655696 250.788335 
L 273.539241 250.19918 
L 275.422785 248.949594 
L 277.306329 247.957872 
L 279.189873 247.43361 
L 281.073418 247.11151 
L 282.956962 247.20479 
L 284.840506 248.151011 
L 286.724051 250.322288 
L 288.607595 253.654295 
L 290.491139 257.173933 
L 292.374684 260.292351 
L 294.258228 262.891864 
L 296.141772 265.222492 
L 298.025316 267.996034 
L 299.908861 270.995595 
L 301.792405 273.571919 
L 303.675949 275.728644 
L 305.559494 277.35903 
L 307.443038 278.267625 
L 309.326582 278.776165 
L 311.210127 279.747406 
L 313.093671 282.000172 
L 314.977215 285.266967 
L 316.860759 288.5204 
L 318.744304 291.012597 
L 320.627848 292.63393 
L 322.511392 293.734364 
L 324.394937 294.562299 
" style="fill:none;stroke:#2ca02c;stroke-linecap:square;stroke-width:1.5;"/>
   </g>
   <g id="line2d_64">
    <path clip-path="url(#p92943299c9)" d="M 183.129114 333.940556 
L 185.012658 334.05843 
L 186.896203 333.994988 
L 188.779747 333.511533 
L 190.663291 332.339326 
L 192.546835 330.042787 
L 194.43038 326.778588 
L 196.313924 322.983017 
L 198.197468 318.962499 
L 200.081013 315.5972 
L 201.964557 313.696197 
L 203.848101 312.606792 
L 205.731646 311.410235 
L 207.61519 310.050287 
L 209.498734 308.705294 
L 211.382278 307.594465 
L 213.265823 306.793223 
L 215.149367 306.080599 
L 217.032911 304.730087 
L 218.916456 301.800584 
L 220.8 297.159908 
L 222.683544 291.562007 
L 224.567089 285.995716 
L 226.450633 281.420713 
L 228.334177 278.345066 
L 230.217722 275.654402 
L 232.101266 272.136106 
L 233.98481 268.398091 
L 235.868354 264.991501 
L 237.751899 261.374099 
L 239.635443 257.527154 
L 241.518987 254.059774 
L 243.402532 250.81327 
L 245.286076 246.652574 
L 247.16962 241.490039 
L 249.053165 236.327608 
L 250.936709 232.026442 
L 252.820253 229.286139 
L 254.703797 228.166319 
L 256.587342 227.366129 
L 258.470886 225.912925 
L 260.35443 224.385979 
L 262.237975 222.725414 
L 264.121519 220.784732 
L 266.005063 218.70494 
L 267.888608 216.696292 
L 269.772152 214.943346 
L 271.655696 213.129282 
L 273.539241 210.62635 
L 275.422785 208.048527 
L 277.306329 206.201272 
L 279.189873 204.86661 
L 281.073418 203.857711 
L 282.956962 203.86994 
L 284.840506 205.018652 
L 286.724051 206.962477 
L 288.607595 209.794234 
L 290.491139 213.067862 
L 292.374684 216.518831 
L 294.258228 219.953857 
L 296.141772 223.303762 
L 298.025316 227.453097 
L 299.908861 232.2878 
L 301.792405 236.577614 
L 303.675949 240.071624 
L 305.559494 242.877348 
L 307.443038 244.743257 
L 309.326582 245.872033 
L 311.210127 247.34793 
L 313.093671 250.220042 
L 314.977215 254.302443 
L 316.860759 258.511271 
L 318.744304 261.735974 
L 320.627848 263.692498 
L 322.511392 264.919194 
L 324.394937 265.842268 
" style="fill:none;stroke:#d62728;stroke-linecap:square;stroke-width:1.5;"/>
   </g>
   <g id="line2d_65">
    <path clip-path="url(#p92943299c9)" d="M 183.129114 348.009721 
L 185.012658 348.290087 
L 186.896203 348.179724 
L 188.779747 347.393382 
L 190.663291 345.911224 
L 192.546835 343.483102 
L 194.43038 340.129756 
L 196.313924 336.203546 
L 198.197468 332.0929 
L 200.081013 328.453119 
L 201.964557 325.609958 
L 203.848101 322.957652 
L 205.731646 320.015407 
L 207.61519 316.894797 
L 209.498734 313.836768 
L 211.382278 311.064916 
L 213.265823 308.499426 
L 215.149367 305.97924 
L 217.032911 303.004012 
L 218.916456 298.787326 
L 220.8 293.26563 
L 222.683544 287.021668 
L 224.567089 280.751247 
L 226.450633 275.190487 
L 228.334177 271.021625 
L 230.217722 267.596185 
L 232.101266 263.908574 
L 233.98481 260.176789 
L 235.868354 256.495533 
L 237.751899 252.245913 
L 239.635443 247.531955 
L 241.518987 243.26453 
L 243.402532 239.666813 
L 245.286076 235.44995 
L 247.16962 230.256741 
L 249.053165 224.770381 
L 250.936709 219.525587 
L 252.820253 215.621729 
L 254.703797 214.04606 
L 256.587342 212.985307 
L 258.470886 210.709455 
L 260.35443 208.300249 
L 262.237975 206.086498 
L 264.121519 203.789687 
L 266.005063 201.3232 
L 267.888608 198.780658 
L 269.772152 196.663753 
L 271.655696 195.162988 
L 273.539241 193.567423 
L 275.422785 192.098708 
L 277.306329 191.613708 
L 279.189873 191.685984 
L 281.073418 191.549636 
L 282.956962 192.053125 
L 284.840506 193.254336 
L 286.724051 194.495462 
L 288.607595 196.622872 
L 290.491139 199.639482 
L 292.374684 203.147703 
L 294.258228 206.920234 
L 296.141772 210.67152 
L 298.025316 215.233397 
L 299.908861 220.918351 
L 301.792405 226.541994 
L 303.675949 231.918734 
L 305.559494 237.429971 
L 307.443038 242.10633 
L 309.326582 245.628643 
L 311.210127 249.603339 
L 313.093671 255.00133 
L 314.977215 261.102876 
L 316.860759 266.49142 
L 318.744304 269.765971 
L 320.627848 271.101257 
L 322.511392 271.858362 
L 324.394937 272.722955 
" style="fill:none;stroke:#9467bd;stroke-linecap:square;stroke-width:1.5;"/>
   </g>
   <g id="line2d_66">
    <path clip-path="url(#p92943299c9)" d="M 183.129114 296.485834 
L 185.012658 298.440461 
L 186.896203 300.524634 
L 188.779747 301.952843 
L 190.663291 302.635827 
L 192.546835 303.063408 
L 194.43038 303.602549 
L 196.313924 303.9805 
L 198.197468 304.700867 
L 200.081013 305.782487 
L 201.964557 306.588068 
L 203.848101 306.835844 
L 205.731646 306.83261 
L 207.61519 306.682639 
L 209.498734 306.297629 
L 211.382278 305.678276 
L 213.265823 304.673908 
L 215.149367 303.405454 
L 217.032911 302.464806 
L 218.916456 302.009215 
L 220.8 301.610467 
L 222.683544 301.13298 
L 224.567089 300.853146 
L 226.450633 300.743243 
L 228.334177 300.762494 
L 230.217722 300.926275 
L 232.101266 301.070077 
L 233.98481 300.962837 
L 235.868354 300.532757 
L 237.751899 299.283971 
L 239.635443 296.980859 
L 241.518987 294.230443 
L 243.402532 292.289342 
L 245.286076 290.876494 
L 247.16962 289.224462 
L 249.053165 287.247348 
L 250.936709 285.090852 
L 252.820253 283.86083 
L 254.703797 284.370098 
L 256.587342 284.494414 
L 258.470886 283.211208 
L 260.35443 281.829895 
L 262.237975 280.504026 
L 264.121519 279.342368 
L 266.005063 278.599795 
L 267.888608 277.843065 
L 269.772152 277.366104 
L 271.655696 277.736719 
L 273.539241 278.419825 
L 275.422785 279.198671 
L 277.306329 280.263112 
L 279.189873 281.280963 
L 281.073418 281.626649 
L 282.956962 281.490361 
L 284.840506 281.153096 
L 286.724051 280.800785 
L 288.607595 280.775782 
L 290.491139 280.826585 
L 292.374684 280.757822 
L 294.258228 281.00117 
L 296.141772 281.409855 
L 298.025316 281.369692 
L 299.908861 280.800196 
L 301.792405 279.793308 
L 303.675949 278.287566 
L 305.559494 276.899036 
L 307.443038 276.120609 
L 309.326582 275.173648 
L 311.210127 273.484494 
L 313.093671 271.688443 
L 314.977215 270.280264 
L 316.860759 269.176953 
L 318.744304 267.781632 
L 320.627848 266.31423 
L 322.511392 265.324885 
L 324.394937 264.959834 
" style="fill:none;stroke:#8c564b;stroke-linecap:square;stroke-width:1.5;"/>
   </g>
   <g id="line2d_67">
    <path clip-path="url(#p92943299c9)" d="M 183.129114 357.444502 
L 185.012658 358.433192 
L 186.896203 359.356398 
L 188.779747 359.720832 
L 190.663291 359.723863 
L 192.546835 359.65241 
L 194.43038 359.528879 
L 196.313924 359.327045 
L 198.197468 359.222704 
L 200.081013 359.336199 
L 201.964557 359.386152 
L 203.848101 359.107744 
L 205.731646 358.781329 
L 207.61519 358.573046 
L 209.498734 358.295542 
L 211.382278 357.895884 
L 213.265823 357.264664 
L 215.149367 356.461603 
L 217.032911 355.769309 
L 218.916456 355.161564 
L 220.8 354.430555 
L 222.683544 353.640734 
L 224.567089 352.918561 
L 226.450633 352.317231 
L 228.334177 351.91583 
L 230.217722 351.567754 
L 232.101266 351.087005 
L 233.98481 350.504546 
L 235.868354 349.849516 
L 237.751899 348.959024 
L 239.635443 347.842506 
L 241.518987 346.793246 
L 243.402532 346.13115 
L 245.286076 345.466959 
L 247.16962 344.481289 
L 249.053165 343.347821 
L 250.936709 342.189442 
L 252.820253 341.298042 
L 254.703797 340.94789 
L 256.587342 340.394548 
L 258.470886 339.366189 
L 260.35443 338.323107 
L 262.237975 337.148342 
L 264.121519 335.914221 
L 266.005063 334.706145 
L 267.888608 333.375817 
L 269.772152 332.204026 
L 271.655696 331.371635 
L 273.539241 330.527378 
L 275.422785 329.63786 
L 277.306329 328.841529 
L 279.189873 328.201043 
L 281.073418 327.618015 
L 282.956962 326.688733 
L 284.840506 325.146766 
L 286.724051 323.375366 
L 288.607595 321.614583 
L 290.491139 319.628647 
L 292.374684 317.388798 
L 294.258228 315.377646 
L 296.141772 313.467905 
L 298.025316 310.652946 
L 299.908861 306.715983 
L 301.792405 301.977082 
L 303.675949 296.506271 
L 305.559494 291.10391 
L 307.443038 286.475398 
L 309.326582 281.794782 
L 311.210127 276.344998 
L 313.093671 270.674858 
L 314.977215 265.237448 
L 316.860759 259.738636 
L 318.744304 253.940861 
L 320.627848 249.010898 
L 322.511392 245.621401 
L 324.394937 243.572221 
" style="fill:none;stroke:#e377c2;stroke-linecap:square;stroke-width:1.5;"/>
   </g>
   <g id="line2d_68">
    <path clip-path="url(#p92943299c9)" d="M 183.129114 364.593381 
L 185.012658 365.449547 
L 186.896203 366.321701 
L 188.779747 366.766639 
L 190.663291 366.923856 
L 192.546835 367.089396 
L 194.43038 367.297935 
L 196.313924 367.471998 
L 198.197468 367.668733 
L 200.081013 367.946973 
L 201.964557 368.115825 
L 203.848101 367.980174 
L 205.731646 367.739224 
L 207.61519 367.567933 
L 209.498734 367.370255 
L 211.382278 367.102449 
L 213.265823 366.630796 
L 215.149367 365.990349 
L 217.032911 365.434199 
L 218.916456 364.926391 
L 220.8 364.310437 
L 222.683544 363.659616 
L 224.567089 363.012228 
L 226.450633 362.355295 
L 228.334177 361.79061 
L 230.217722 361.334633 
L 232.101266 360.91637 
L 233.98481 360.43053 
L 235.868354 359.84719 
L 237.751899 359.182853 
L 239.635443 358.509289 
L 241.518987 357.916856 
L 243.402532 357.502443 
L 245.286076 356.990041 
L 247.16962 356.290693 
L 249.053165 355.561667 
L 250.936709 354.753166 
L 252.820253 354.05759 
L 254.703797 353.728544 
L 256.587342 353.281821 
L 258.470886 352.548174 
L 260.35443 351.836492 
L 262.237975 351.060517 
L 264.121519 350.361931 
L 266.005063 349.76498 
L 267.888608 349.068872 
L 269.772152 348.43923 
L 271.655696 348.053342 
L 273.539241 347.742942 
L 275.422785 347.447904 
L 277.306329 347.140632 
L 279.189873 346.85795 
L 281.073418 346.542451 
L 282.956962 345.805711 
L 284.840506 344.477463 
L 286.724051 342.956929 
L 288.607595 341.488361 
L 290.491139 339.967487 
L 292.374684 338.369502 
L 294.258228 336.974787 
L 296.141772 335.763313 
L 298.025316 333.934747 
L 299.908861 330.936974 
L 301.792405 326.810089 
L 303.675949 321.777406 
L 305.559494 316.690186 
L 307.443038 312.362262 
L 309.326582 308.252206 
L 311.210127 303.615687 
L 313.093671 298.871039 
L 314.977215 294.544662 
L 316.860759 290.350978 
L 318.744304 285.806504 
L 320.627848 281.570145 
L 322.511392 278.052398 
L 324.394937 275.506749 
" style="fill:none;stroke:#7f7f7f;stroke-linecap:square;stroke-width:1.5;"/>
   </g>
   <g id="line2d_69">
    <path clip-path="url(#p92943299c9)" d="M 183.129114 377.946386 
L 185.012658 378.085712 
L 186.896203 378.174187 
L 188.779747 378.113781 
L 190.663291 377.992566 
L 192.546835 377.91558 
L 194.43038 377.903186 
L 196.313924 377.937241 
L 198.197468 377.984997 
L 200.081013 378.019359 
L 201.964557 378.008048 
L 203.848101 377.877796 
L 205.731646 377.673252 
L 207.61519 377.43883 
L 209.498734 377.159541 
L 211.382278 376.903196 
L 213.265823 376.648512 
L 215.149367 376.356145 
L 217.032911 376.102441 
L 218.916456 375.885189 
L 220.8 375.633503 
L 222.683544 375.353703 
L 224.567089 375.000174 
L 226.450633 374.561921 
L 228.334177 374.144997 
L 230.217722 373.767371 
L 232.101266 373.401319 
L 233.98481 373.023199 
L 235.868354 372.605621 
L 237.751899 372.165784 
L 239.635443 371.719377 
L 241.518987 371.319264 
L 243.402532 371.085926 
L 245.286076 370.870486 
L 247.16962 370.583707 
L 249.053165 370.281806 
L 250.936709 369.958144 
L 252.820253 369.704398 
L 254.703797 369.541125 
L 256.587342 369.198578 
L 258.470886 368.684172 
L 260.35443 368.136807 
L 262.237975 367.532252 
L 264.121519 366.926989 
L 266.005063 366.398153 
L 267.888608 365.940673 
L 269.772152 365.556904 
L 271.655696 365.272388 
L 273.539241 365.025636 
L 275.422785 364.759101 
L 277.306329 364.464597 
L 279.189873 364.136689 
L 281.073418 363.752271 
L 282.956962 363.144634 
L 284.840506 362.203683 
L 286.724051 361.214568 
L 288.607595 360.441959 
L 290.491139 359.769507 
L 292.374684 358.889839 
L 294.258228 357.930142 
L 296.141772 357.041848 
L 298.025316 355.792278 
L 299.908861 353.80155 
L 301.792405 350.9446 
L 303.675949 347.29646 
L 305.559494 343.518358 
L 307.443038 340.146177 
L 309.326582 336.797419 
L 311.210127 332.871813 
L 313.093671 328.400892 
L 314.977215 323.591003 
L 316.860759 318.001308 
L 318.744304 310.970713 
L 320.627848 303.257586 
L 322.511392 295.577751 
L 324.394937 289.19195 
" style="fill:none;stroke:#bcbd22;stroke-linecap:square;stroke-width:1.5;"/>
   </g>
   <g id="line2d_70">
    <path clip-path="url(#p92943299c9)" d="M 324.394937 372.653615 
L 322.511392 372.653615 
" style="fill:none;stroke:#17becf;stroke-linecap:square;stroke-width:1.5;"/>
   </g>
   <g id="patch_3">
    <path d="M 72 384.48 
L 72 51.84 
" style="fill:none;stroke:#000000;stroke-linecap:square;stroke-linejoin:miter;stroke-width:0.8;"/>
   </g>
   <g id="patch_4">
    <path d="M 518.4 384.48 
L 518.4 51.84 
" style="fill:none;stroke:#000000;stroke-linecap:square;stroke-linejoin:miter;stroke-width:0.8;"/>
   </g>
   <g id="patch_5">
    <path d="M 72 384.48 
L 518.4 384.48 
" style="fill:none;stroke:#000000;stroke-linecap:square;stroke-linejoin:miter;stroke-width:0.8;"/>
   </g>
   <g id="patch_6">
    <path d="M 72 51.84 
L 518.4 51.84 
" style="fill:none;stroke:#000000;stroke-linecap:square;stroke-linejoin:miter;stroke-width:0.8;"/>
   </g>
   <g id="text_33">
    <!-- Second dose weekly increase by age group -->
    <g transform="translate(165.147188 45.84)scale(0.12 -0.12)">
     <defs>
      <path d="M 2906 2969 
L 2906 4863 
L 3481 4863 
L 3481 0 
L 2906 0 
L 2906 525 
Q 2725 213 2448 61 
Q 2172 -91 1784 -91 
Q 1150 -91 751 415 
Q 353 922 353 1747 
Q 353 2572 751 3078 
Q 1150 3584 1784 3584 
Q 2172 3584 2448 3432 
Q 2725 3281 2906 2969 
z
M 947 1747 
Q 947 1113 1208 752 
Q 1469 391 1925 391 
Q 2381 391 2643 752 
Q 2906 1113 2906 1747 
Q 2906 2381 2643 2742 
Q 2381 3103 1925 3103 
Q 1469 3103 1208 2742 
Q 947 2381 947 1747 
z
" id="DejaVuSans-64" transform="scale(0.015625)"/>
      <path d="M 2834 3397 
L 2834 2853 
Q 2591 2978 2328 3040 
Q 2066 3103 1784 3103 
Q 1356 3103 1142 2972 
Q 928 2841 928 2578 
Q 928 2378 1081 2264 
Q 1234 2150 1697 2047 
L 1894 2003 
Q 2506 1872 2764 1633 
Q 3022 1394 3022 966 
Q 3022 478 2636 193 
Q 2250 -91 1575 -91 
Q 1294 -91 989 -36 
Q 684 19 347 128 
L 347 722 
Q 666 556 975 473 
Q 1284 391 1588 391 
Q 1994 391 2212 530 
Q 2431 669 2431 922 
Q 2431 1156 2273 1281 
Q 2116 1406 1581 1522 
L 1381 1569 
Q 847 1681 609 1914 
Q 372 2147 372 2553 
Q 372 3047 722 3315 
Q 1072 3584 1716 3584 
Q 2034 3584 2315 3537 
Q 2597 3491 2834 3397 
z
" id="DejaVuSans-73" transform="scale(0.015625)"/>
      <path d="M 2059 -325 
Q 1816 -950 1584 -1140 
Q 1353 -1331 966 -1331 
L 506 -1331 
L 506 -850 
L 844 -850 
Q 1081 -850 1212 -737 
Q 1344 -625 1503 -206 
L 1606 56 
L 191 3500 
L 800 3500 
L 1894 763 
L 2988 3500 
L 3597 3500 
L 2059 -325 
z
" id="DejaVuSans-79" transform="scale(0.015625)"/>
      <path d="M 3116 1747 
Q 3116 2381 2855 2742 
Q 2594 3103 2138 3103 
Q 1681 3103 1420 2742 
Q 1159 2381 1159 1747 
Q 1159 1113 1420 752 
Q 1681 391 2138 391 
Q 2594 391 2855 752 
Q 3116 1113 3116 1747 
z
M 1159 2969 
Q 1341 3281 1617 3432 
Q 1894 3584 2278 3584 
Q 2916 3584 3314 3078 
Q 3713 2572 3713 1747 
Q 3713 922 3314 415 
Q 2916 -91 2278 -91 
Q 1894 -91 1617 61 
Q 1341 213 1159 525 
L 1159 0 
L 581 0 
L 581 4863 
L 1159 4863 
L 1159 2969 
z
" id="DejaVuSans-62" transform="scale(0.015625)"/>
     </defs>
     <use xlink:href="#DejaVuSans-53"/>
     <use x="63.476562" xlink:href="#DejaVuSans-65"/>
     <use x="125" xlink:href="#DejaVuSans-63"/>
     <use x="179.980469" xlink:href="#DejaVuSans-6f"/>
     <use x="241.162109" xlink:href="#DejaVuSans-6e"/>
     <use x="304.541016" xlink:href="#DejaVuSans-64"/>
     <use x="368.017578" xlink:href="#DejaVuSans-20"/>
     <use x="399.804688" xlink:href="#DejaVuSans-64"/>
     <use x="463.28125" xlink:href="#DejaVuSans-6f"/>
     <use x="524.462891" xlink:href="#DejaVuSans-73"/>
     <use x="576.5625" xlink:href="#DejaVuSans-65"/>
     <use x="638.085938" xlink:href="#DejaVuSans-20"/>
     <use x="669.873047" xlink:href="#DejaVuSans-77"/>
     <use x="751.660156" xlink:href="#DejaVuSans-65"/>
     <use x="813.183594" xlink:href="#DejaVuSans-65"/>
     <use x="874.707031" xlink:href="#DejaVuSans-6b"/>
     <use x="932.617188" xlink:href="#DejaVuSans-6c"/>
     <use x="960.400391" xlink:href="#DejaVuSans-79"/>
     <use x="1019.580078" xlink:href="#DejaVuSans-20"/>
     <use x="1051.367188" xlink:href="#DejaVuSans-69"/>
     <use x="1079.150391" xlink:href="#DejaVuSans-6e"/>
     <use x="1142.529297" xlink:href="#DejaVuSans-63"/>
     <use x="1197.509766" xlink:href="#DejaVuSans-72"/>
     <use x="1236.373047" xlink:href="#DejaVuSans-65"/>
     <use x="1297.896484" xlink:href="#DejaVuSans-61"/>
     <use x="1359.175781" xlink:href="#DejaVuSans-73"/>
     <use x="1411.275391" xlink:href="#DejaVuSans-65"/>
     <use x="1472.798828" xlink:href="#DejaVuSans-20"/>
     <use x="1504.585938" xlink:href="#DejaVuSans-62"/>
     <use x="1568.0625" xlink:href="#DejaVuSans-79"/>
     <use x="1627.242188" xlink:href="#DejaVuSans-20"/>
     <use x="1659.029297" xlink:href="#DejaVuSans-61"/>
     <use x="1720.308594" xlink:href="#DejaVuSans-67"/>
     <use x="1783.785156" xlink:href="#DejaVuSans-65"/>
     <use x="1845.308594" xlink:href="#DejaVuSans-20"/>
     <use x="1877.095703" xlink:href="#DejaVuSans-67"/>
     <use x="1940.572266" xlink:href="#DejaVuSans-72"/>
     <use x="1979.435547" xlink:href="#DejaVuSans-6f"/>
     <use x="2040.617188" xlink:href="#DejaVuSans-75"/>
     <use x="2103.996094" xlink:href="#DejaVuSans-70"/>
    </g>
   </g>
   <g id="legend_1">
    <g id="patch_7">
     <path d="M 368.65125 191.143125 
L 512.1 191.143125 
Q 513.9 191.143125 513.9 189.343125 
L 513.9 58.14 
Q 513.9 56.34 512.1 56.34 
L 368.65125 56.34 
Q 366.85125 56.34 366.85125 58.14 
L 366.85125 189.343125 
Q 366.85125 191.143125 368.65125 191.143125 
z
" style="fill:#ffffff;opacity:0.8;stroke:#cccccc;stroke-linejoin:miter;"/>
    </g>
    <g id="line2d_71">
     <path d="M 370.45125 63.628594 
L 388.45125 63.628594 
" style="fill:none;stroke:#1f77b4;stroke-linecap:square;stroke-width:1.5;"/>
    </g>
    <g id="line2d_72"/>
    <g id="text_34">
     <!-- Ages 90+ (2.9 %/week) -->
     <g transform="translate(395.65125 66.778594)scale(0.09 -0.09)">
      <defs>
       <path d="M 2944 4013 
L 2944 2272 
L 4684 2272 
L 4684 1741 
L 2944 1741 
L 2944 0 
L 2419 0 
L 2419 1741 
L 678 1741 
L 678 2272 
L 2419 2272 
L 2419 4013 
L 2944 4013 
z
" id="DejaVuSans-2b" transform="scale(0.015625)"/>
       <path d="M 684 794 
L 1344 794 
L 1344 0 
L 684 0 
L 684 794 
z
" id="DejaVuSans-2e" transform="scale(0.015625)"/>
      </defs>
      <use xlink:href="#DejaVuSans-41"/>
      <use x="68.408203" xlink:href="#DejaVuSans-67"/>
      <use x="131.884766" xlink:href="#DejaVuSans-65"/>
      <use x="193.408203" xlink:href="#DejaVuSans-73"/>
      <use x="245.507812" xlink:href="#DejaVuSans-20"/>
      <use x="277.294922" xlink:href="#DejaVuSans-39"/>
      <use x="340.917969" xlink:href="#DejaVuSans-30"/>
      <use x="404.541016" xlink:href="#DejaVuSans-2b"/>
      <use x="488.330078" xlink:href="#DejaVuSans-20"/>
      <use x="520.117188" xlink:href="#DejaVuSans-28"/>
      <use x="559.130859" xlink:href="#DejaVuSans-32"/>
      <use x="622.753906" xlink:href="#DejaVuSans-2e"/>
      <use x="654.541016" xlink:href="#DejaVuSans-39"/>
      <use x="718.164062" xlink:href="#DejaVuSans-20"/>
      <use x="749.951172" xlink:href="#DejaVuSans-25"/>
      <use x="844.970703" xlink:href="#DejaVuSans-2f"/>
      <use x="878.662109" xlink:href="#DejaVuSans-77"/>
      <use x="960.449219" xlink:href="#DejaVuSans-65"/>
      <use x="1021.972656" xlink:href="#DejaVuSans-65"/>
      <use x="1083.496094" xlink:href="#DejaVuSans-6b"/>
      <use x="1141.40625" xlink:href="#DejaVuSans-29"/>
     </g>
    </g>
    <g id="line2d_73">
     <path d="M 370.45125 76.838906 
L 388.45125 76.838906 
" style="fill:none;stroke:#ff7f0e;stroke-linecap:square;stroke-width:1.5;"/>
    </g>
    <g id="line2d_74"/>
    <g id="text_35">
     <!-- Ages 8089 (3.4 %/week) -->
     <g transform="translate(395.65125 79.988906)scale(0.09 -0.09)">
      <defs>
       <path d="M 313 1978 
L 2888 1978 
L 2888 1528 
L 313 1528 
L 313 1978 
z
" id="DejaVuSans-2013" transform="scale(0.015625)"/>
      </defs>
      <use xlink:href="#DejaVuSans-41"/>
      <use x="68.408203" xlink:href="#DejaVuSans-67"/>
      <use x="131.884766" xlink:href="#DejaVuSans-65"/>
      <use x="193.408203" xlink:href="#DejaVuSans-73"/>
      <use x="245.507812" xlink:href="#DejaVuSans-20"/>
      <use x="277.294922" xlink:href="#DejaVuSans-38"/>
      <use x="340.917969" xlink:href="#DejaVuSans-30"/>
      <use x="404.541016" xlink:href="#DejaVuSans-2013"/>
      <use x="454.541016" xlink:href="#DejaVuSans-38"/>
      <use x="518.164062" xlink:href="#DejaVuSans-39"/>
      <use x="581.787109" xlink:href="#DejaVuSans-20"/>
      <use x="613.574219" xlink:href="#DejaVuSans-28"/>
      <use x="652.587891" xlink:href="#DejaVuSans-33"/>
      <use x="716.210938" xlink:href="#DejaVuSans-2e"/>
      <use x="747.998047" xlink:href="#DejaVuSans-34"/>
      <use x="811.621094" xlink:href="#DejaVuSans-20"/>
      <use x="843.408203" xlink:href="#DejaVuSans-25"/>
      <use x="938.427734" xlink:href="#DejaVuSans-2f"/>
      <use x="972.119141" xlink:href="#DejaVuSans-77"/>
      <use x="1053.90625" xlink:href="#DejaVuSans-65"/>
      <use x="1115.429688" xlink:href="#DejaVuSans-65"/>
      <use x="1176.953125" xlink:href="#DejaVuSans-6b"/>
      <use x="1234.863281" xlink:href="#DejaVuSans-29"/>
     </g>
    </g>
    <g id="line2d_75">
     <path d="M 370.45125 90.049219 
L 388.45125 90.049219 
" style="fill:none;stroke:#2ca02c;stroke-linecap:square;stroke-width:1.5;"/>
    </g>
    <g id="line2d_76"/>
    <g id="text_36">
     <!-- Ages 7079 (3.5 %/week) -->
     <g transform="translate(395.65125 93.199219)scale(0.09 -0.09)">
      <use xlink:href="#DejaVuSans-41"/>
      <use x="68.408203" xlink:href="#DejaVuSans-67"/>
      <use x="131.884766" xlink:href="#DejaVuSans-65"/>
      <use x="193.408203" xlink:href="#DejaVuSans-73"/>
      <use x="245.507812" xlink:href="#DejaVuSans-20"/>
      <use x="277.294922" xlink:href="#DejaVuSans-37"/>
      <use x="340.917969" xlink:href="#DejaVuSans-30"/>
      <use x="404.541016" xlink:href="#DejaVuSans-2013"/>
      <use x="454.541016" xlink:href="#DejaVuSans-37"/>
      <use x="518.164062" xlink:href="#DejaVuSans-39"/>
      <use x="581.787109" xlink:href="#DejaVuSans-20"/>
      <use x="613.574219" xlink:href="#DejaVuSans-28"/>
      <use x="652.587891" xlink:href="#DejaVuSans-33"/>
      <use x="716.210938" xlink:href="#DejaVuSans-2e"/>
      <use x="747.998047" xlink:href="#DejaVuSans-35"/>
      <use x="811.621094" xlink:href="#DejaVuSans-20"/>
      <use x="843.408203" xlink:href="#DejaVuSans-25"/>
      <use x="938.427734" xlink:href="#DejaVuSans-2f"/>
      <use x="972.119141" xlink:href="#DejaVuSans-77"/>
      <use x="1053.90625" xlink:href="#DejaVuSans-65"/>
      <use x="1115.429688" xlink:href="#DejaVuSans-65"/>
      <use x="1176.953125" xlink:href="#DejaVuSans-6b"/>
      <use x="1234.863281" xlink:href="#DejaVuSans-29"/>
     </g>
    </g>
    <g id="line2d_77">
     <path d="M 370.45125 103.259531 
L 388.45125 103.259531 
" style="fill:none;stroke:#d62728;stroke-linecap:square;stroke-width:1.5;"/>
    </g>
    <g id="line2d_78"/>
    <g id="text_37">
     <!-- Ages 6069 (4.6 %/week) -->
     <g transform="translate(395.65125 106.409531)scale(0.09 -0.09)">
      <use xlink:href="#DejaVuSans-41"/>
      <use x="68.408203" xlink:href="#DejaVuSans-67"/>
      <use x="131.884766" xlink:href="#DejaVuSans-65"/>
      <use x="193.408203" xlink:href="#DejaVuSans-73"/>
      <use x="245.507812" xlink:href="#DejaVuSans-20"/>
      <use x="277.294922" xlink:href="#DejaVuSans-36"/>
      <use x="340.917969" xlink:href="#DejaVuSans-30"/>
      <use x="404.541016" xlink:href="#DejaVuSans-2013"/>
      <use x="454.541016" xlink:href="#DejaVuSans-36"/>
      <use x="518.164062" xlink:href="#DejaVuSans-39"/>
      <use x="581.787109" xlink:href="#DejaVuSans-20"/>
      <use x="613.574219" xlink:href="#DejaVuSans-28"/>
      <use x="652.587891" xlink:href="#DejaVuSans-34"/>
      <use x="716.210938" xlink:href="#DejaVuSans-2e"/>
      <use x="747.998047" xlink:href="#DejaVuSans-36"/>
      <use x="811.621094" xlink:href="#DejaVuSans-20"/>
      <use x="843.408203" xlink:href="#DejaVuSans-25"/>
      <use x="938.427734" xlink:href="#DejaVuSans-2f"/>
      <use x="972.119141" xlink:href="#DejaVuSans-77"/>
      <use x="1053.90625" xlink:href="#DejaVuSans-65"/>
      <use x="1115.429688" xlink:href="#DejaVuSans-65"/>
      <use x="1176.953125" xlink:href="#DejaVuSans-6b"/>
      <use x="1234.863281" xlink:href="#DejaVuSans-29"/>
     </g>
    </g>
    <g id="line2d_79">
     <path d="M 370.45125 116.469844 
L 388.45125 116.469844 
" style="fill:none;stroke:#9467bd;stroke-linecap:square;stroke-width:1.5;"/>
    </g>
    <g id="line2d_80"/>
    <g id="text_38">
     <!-- Ages 5059 (4.4 %/week) -->
     <g transform="translate(395.65125 119.619844)scale(0.09 -0.09)">
      <use xlink:href="#DejaVuSans-41"/>
      <use x="68.408203" xlink:href="#DejaVuSans-67"/>
      <use x="131.884766" xlink:href="#DejaVuSans-65"/>
      <use x="193.408203" xlink:href="#DejaVuSans-73"/>
      <use x="245.507812" xlink:href="#DejaVuSans-20"/>
      <use x="277.294922" xlink:href="#DejaVuSans-35"/>
      <use x="340.917969" xlink:href="#DejaVuSans-30"/>
      <use x="404.541016" xlink:href="#DejaVuSans-2013"/>
      <use x="454.541016" xlink:href="#DejaVuSans-35"/>
      <use x="518.164062" xlink:href="#DejaVuSans-39"/>
      <use x="581.787109" xlink:href="#DejaVuSans-20"/>
      <use x="613.574219" xlink:href="#DejaVuSans-28"/>
      <use x="652.587891" xlink:href="#DejaVuSans-34"/>
      <use x="716.210938" xlink:href="#DejaVuSans-2e"/>
      <use x="747.998047" xlink:href="#DejaVuSans-34"/>
      <use x="811.621094" xlink:href="#DejaVuSans-20"/>
      <use x="843.408203" xlink:href="#DejaVuSans-25"/>
      <use x="938.427734" xlink:href="#DejaVuSans-2f"/>
      <use x="972.119141" xlink:href="#DejaVuSans-77"/>
      <use x="1053.90625" xlink:href="#DejaVuSans-65"/>
      <use x="1115.429688" xlink:href="#DejaVuSans-65"/>
      <use x="1176.953125" xlink:href="#DejaVuSans-6b"/>
      <use x="1234.863281" xlink:href="#DejaVuSans-29"/>
     </g>
    </g>
    <g id="line2d_81">
     <path d="M 370.45125 129.680156 
L 388.45125 129.680156 
" style="fill:none;stroke:#8c564b;stroke-linecap:square;stroke-width:1.5;"/>
    </g>
    <g id="line2d_82"/>
    <g id="text_39">
     <!-- Ages 4049 (4.7 %/week) -->
     <g transform="translate(395.65125 132.830156)scale(0.09 -0.09)">
      <use xlink:href="#DejaVuSans-41"/>
      <use x="68.408203" xlink:href="#DejaVuSans-67"/>
      <use x="131.884766" xlink:href="#DejaVuSans-65"/>
      <use x="193.408203" xlink:href="#DejaVuSans-73"/>
      <use x="245.507812" xlink:href="#DejaVuSans-20"/>
      <use x="277.294922" xlink:href="#DejaVuSans-34"/>
      <use x="340.917969" xlink:href="#DejaVuSans-30"/>
      <use x="404.541016" xlink:href="#DejaVuSans-2013"/>
      <use x="454.541016" xlink:href="#DejaVuSans-34"/>
      <use x="518.164062" xlink:href="#DejaVuSans-39"/>
      <use x="581.787109" xlink:href="#DejaVuSans-20"/>
      <use x="613.574219" xlink:href="#DejaVuSans-28"/>
      <use x="652.587891" xlink:href="#DejaVuSans-34"/>
      <use x="716.210938" xlink:href="#DejaVuSans-2e"/>
      <use x="747.998047" xlink:href="#DejaVuSans-37"/>
      <use x="811.621094" xlink:href="#DejaVuSans-20"/>
      <use x="843.408203" xlink:href="#DejaVuSans-25"/>
      <use x="938.427734" xlink:href="#DejaVuSans-2f"/>
      <use x="972.119141" xlink:href="#DejaVuSans-77"/>
      <use x="1053.90625" xlink:href="#DejaVuSans-65"/>
      <use x="1115.429688" xlink:href="#DejaVuSans-65"/>
      <use x="1176.953125" xlink:href="#DejaVuSans-6b"/>
      <use x="1234.863281" xlink:href="#DejaVuSans-29"/>
     </g>
    </g>
    <g id="line2d_83">
     <path d="M 370.45125 142.890469 
L 388.45125 142.890469 
" style="fill:none;stroke:#e377c2;stroke-linecap:square;stroke-width:1.5;"/>
    </g>
    <g id="line2d_84"/>
    <g id="text_40">
     <!-- Ages 3039 (5.5 %/week) -->
     <g transform="translate(395.65125 146.040469)scale(0.09 -0.09)">
      <use xlink:href="#DejaVuSans-41"/>
      <use x="68.408203" xlink:href="#DejaVuSans-67"/>
      <use x="131.884766" xlink:href="#DejaVuSans-65"/>
      <use x="193.408203" xlink:href="#DejaVuSans-73"/>
      <use x="245.507812" xlink:href="#DejaVuSans-20"/>
      <use x="277.294922" xlink:href="#DejaVuSans-33"/>
      <use x="340.917969" xlink:href="#DejaVuSans-30"/>
      <use x="404.541016" xlink:href="#DejaVuSans-2013"/>
      <use x="454.541016" xlink:href="#DejaVuSans-33"/>
      <use x="518.164062" xlink:href="#DejaVuSans-39"/>
      <use x="581.787109" xlink:href="#DejaVuSans-20"/>
      <use x="613.574219" xlink:href="#DejaVuSans-28"/>
      <use x="652.587891" xlink:href="#DejaVuSans-35"/>
      <use x="716.210938" xlink:href="#DejaVuSans-2e"/>
      <use x="747.998047" xlink:href="#DejaVuSans-35"/>
      <use x="811.621094" xlink:href="#DejaVuSans-20"/>
      <use x="843.408203" xlink:href="#DejaVuSans-25"/>
      <use x="938.427734" xlink:href="#DejaVuSans-2f"/>
      <use x="972.119141" xlink:href="#DejaVuSans-77"/>
      <use x="1053.90625" xlink:href="#DejaVuSans-65"/>
      <use x="1115.429688" xlink:href="#DejaVuSans-65"/>
      <use x="1176.953125" xlink:href="#DejaVuSans-6b"/>
      <use x="1234.863281" xlink:href="#DejaVuSans-29"/>
     </g>
    </g>
    <g id="line2d_85">
     <path d="M 370.45125 156.100781 
L 388.45125 156.100781 
" style="fill:none;stroke:#7f7f7f;stroke-linecap:square;stroke-width:1.5;"/>
    </g>
    <g id="line2d_86"/>
    <g id="text_41">
     <!-- Ages 2029 (4.3 %/week) -->
     <g transform="translate(395.65125 159.250781)scale(0.09 -0.09)">
      <use xlink:href="#DejaVuSans-41"/>
      <use x="68.408203" xlink:href="#DejaVuSans-67"/>
      <use x="131.884766" xlink:href="#DejaVuSans-65"/>
      <use x="193.408203" xlink:href="#DejaVuSans-73"/>
      <use x="245.507812" xlink:href="#DejaVuSans-20"/>
      <use x="277.294922" xlink:href="#DejaVuSans-32"/>
      <use x="340.917969" xlink:href="#DejaVuSans-30"/>
      <use x="404.541016" xlink:href="#DejaVuSans-2013"/>
      <use x="454.541016" xlink:href="#DejaVuSans-32"/>
      <use x="518.164062" xlink:href="#DejaVuSans-39"/>
      <use x="581.787109" xlink:href="#DejaVuSans-20"/>
      <use x="613.574219" xlink:href="#DejaVuSans-28"/>
      <use x="652.587891" xlink:href="#DejaVuSans-34"/>
      <use x="716.210938" xlink:href="#DejaVuSans-2e"/>
      <use x="747.998047" xlink:href="#DejaVuSans-33"/>
      <use x="811.621094" xlink:href="#DejaVuSans-20"/>
      <use x="843.408203" xlink:href="#DejaVuSans-25"/>
      <use x="938.427734" xlink:href="#DejaVuSans-2f"/>
      <use x="972.119141" xlink:href="#DejaVuSans-77"/>
      <use x="1053.90625" xlink:href="#DejaVuSans-65"/>
      <use x="1115.429688" xlink:href="#DejaVuSans-65"/>
      <use x="1176.953125" xlink:href="#DejaVuSans-6b"/>
      <use x="1234.863281" xlink:href="#DejaVuSans-29"/>
     </g>
    </g>
    <g id="line2d_87">
     <path d="M 370.45125 169.311094 
L 388.45125 169.311094 
" style="fill:none;stroke:#bcbd22;stroke-linecap:square;stroke-width:1.5;"/>
    </g>
    <g id="line2d_88"/>
    <g id="text_42">
     <!-- Ages 1619 (3.7 %/week) -->
     <g transform="translate(395.65125 172.461094)scale(0.09 -0.09)">
      <use xlink:href="#DejaVuSans-41"/>
      <use x="68.408203" xlink:href="#DejaVuSans-67"/>
      <use x="131.884766" xlink:href="#DejaVuSans-65"/>
      <use x="193.408203" xlink:href="#DejaVuSans-73"/>
      <use x="245.507812" xlink:href="#DejaVuSans-20"/>
      <use x="277.294922" xlink:href="#DejaVuSans-31"/>
      <use x="340.917969" xlink:href="#DejaVuSans-36"/>
      <use x="404.541016" xlink:href="#DejaVuSans-2013"/>
      <use x="454.541016" xlink:href="#DejaVuSans-31"/>
      <use x="518.164062" xlink:href="#DejaVuSans-39"/>
      <use x="581.787109" xlink:href="#DejaVuSans-20"/>
      <use x="613.574219" xlink:href="#DejaVuSans-28"/>
      <use x="652.587891" xlink:href="#DejaVuSans-33"/>
      <use x="716.210938" xlink:href="#DejaVuSans-2e"/>
      <use x="747.998047" xlink:href="#DejaVuSans-37"/>
      <use x="811.621094" xlink:href="#DejaVuSans-20"/>
      <use x="843.408203" xlink:href="#DejaVuSans-25"/>
      <use x="938.427734" xlink:href="#DejaVuSans-2f"/>
      <use x="972.119141" xlink:href="#DejaVuSans-77"/>
      <use x="1053.90625" xlink:href="#DejaVuSans-65"/>
      <use x="1115.429688" xlink:href="#DejaVuSans-65"/>
      <use x="1176.953125" xlink:href="#DejaVuSans-6b"/>
      <use x="1234.863281" xlink:href="#DejaVuSans-29"/>
     </g>
    </g>
    <g id="line2d_89">
     <path d="M 370.45125 182.521406 
L 388.45125 182.521406 
" style="fill:none;stroke:#17becf;stroke-linecap:square;stroke-width:1.5;"/>
    </g>
    <g id="line2d_90"/>
    <g id="text_43">
     <!-- Ages 1215 (0.5 %/week) -->
     <g transform="translate(395.65125 185.671406)scale(0.09 -0.09)">
      <use xlink:href="#DejaVuSans-41"/>
      <use x="68.408203" xlink:href="#DejaVuSans-67"/>
      <use x="131.884766" xlink:href="#DejaVuSans-65"/>
      <use x="193.408203" xlink:href="#DejaVuSans-73"/>
      <use x="245.507812" xlink:href="#DejaVuSans-20"/>
      <use x="277.294922" xlink:href="#DejaVuSans-31"/>
      <use x="340.917969" xlink:href="#DejaVuSans-32"/>
      <use x="404.541016" xlink:href="#DejaVuSans-2013"/>
      <use x="454.541016" xlink:href="#DejaVuSans-31"/>
      <use x="518.164062" xlink:href="#DejaVuSans-35"/>
      <use x="581.787109" xlink:href="#DejaVuSans-20"/>
      <use x="613.574219" xlink:href="#DejaVuSans-28"/>
      <use x="652.587891" xlink:href="#DejaVuSans-30"/>
      <use x="716.210938" xlink:href="#DejaVuSans-2e"/>
      <use x="747.998047" xlink:href="#DejaVuSans-35"/>
      <use x="811.621094" xlink:href="#DejaVuSans-20"/>
      <use x="843.408203" xlink:href="#DejaVuSans-25"/>
      <use x="938.427734" xlink:href="#DejaVuSans-2f"/>
      <use x="972.119141" xlink:href="#DejaVuSans-77"/>
      <use x="1053.90625" xlink:href="#DejaVuSans-65"/>
      <use x="1115.429688" xlink:href="#DejaVuSans-65"/>
      <use x="1176.953125" xlink:href="#DejaVuSans-6b"/>
      <use x="1234.863281" xlink:href="#DejaVuSans-29"/>
     </g>
    </g>
   </g>
  </g>
 </g>
 <defs>
  <clipPath id="p92943299c9">
   <rect height="332.64" width="446.4" x="72" y="51.84"/>
  </clipPath>
 </defs>
</svg>
