<?xml version="1.0" encoding="utf-8" standalone="no"?>
<!DOCTYPE svg PUBLIC "-//W3C//DTD SVG 1.1//EN"
  "http://www.w3.org/Graphics/SVG/1.1/DTD/svg11.dtd">
<svg height="432pt" version="1.1" viewBox="0 0 576 432" width="576pt" xmlns="http://www.w3.org/2000/svg" xmlns:xlink="http://www.w3.org/1999/xlink">
 <metadata>
  <rdf:RDF xmlns:cc="http://creativecommons.org/ns#" xmlns:dc="http://purl.org/dc/elements/1.1/" xmlns:rdf="http://www.w3.org/1999/02/22-rdf-syntax-ns#">
   <cc:Work>
    <dc:type rdf:resource="http://purl.org/dc/dcmitype/StillImage"/>
    <dc:date>2021-10-03T14:24:46.223435</dc:date>
    <dc:format>image/svg+xml</dc:format>
    <dc:creator>
     <cc:Agent>
      <dc:title>Matplotlib v3.4.3, https://matplotlib.org/</dc:title>
     </cc:Agent>
    </dc:creator>
   </cc:Work>
  </rdf:RDF>
 </metadata>
 <defs>
  <style type="text/css">*{stroke-linecap:butt;stroke-linejoin:round;}</style>
 </defs>
 <g id="figure_1">
  <g id="patch_1">
   <path d="M 0 432 
L 576 432 
L 576 0 
L 0 0 
z
" style="fill:#ffffff;"/>
  </g>
  <g id="axes_1">
   <g id="patch_2">
    <path d="M 72 384.48 
L 518.4 384.48 
L 518.4 51.84 
L 72 51.84 
z
" style="fill:#ffffff;"/>
   </g>
   <g id="matplotlib.axis_1">
    <g id="xtick_1">
     <g id="line2d_1">
      <path clip-path="url(#p776d828305)" d="M 83.301266 384.48 
L 83.301266 51.84 
" style="fill:none;stroke:#000000;stroke-dasharray:0.8,1.32;stroke-dashoffset:0;stroke-opacity:0.5;stroke-width:0.8;"/>
     </g>
     <g id="line2d_2">
      <defs>
       <path d="M 0 0 
L 0 3.5 
" id="mf18cd4b603" style="stroke:#000000;stroke-width:0.8;"/>
      </defs>
      <g>
       <use style="stroke:#000000;stroke-width:0.8;" x="83.301266" xlink:href="#mf18cd4b603" y="384.48"/>
      </g>
     </g>
     <g id="text_1">
      <!-- 15 -->
      <g transform="translate(76.938766 399.078438)scale(0.1 -0.1)">
       <defs>
        <path d="M 794 531 
L 1825 531 
L 1825 4091 
L 703 3866 
L 703 4441 
L 1819 4666 
L 2450 4666 
L 2450 531 
L 3481 531 
L 3481 0 
L 794 0 
L 794 531 
z
" id="DejaVuSans-31" transform="scale(0.015625)"/>
        <path d="M 691 4666 
L 3169 4666 
L 3169 4134 
L 1269 4134 
L 1269 2991 
Q 1406 3038 1543 3061 
Q 1681 3084 1819 3084 
Q 2600 3084 3056 2656 
Q 3513 2228 3513 1497 
Q 3513 744 3044 326 
Q 2575 -91 1722 -91 
Q 1428 -91 1123 -41 
Q 819 9 494 109 
L 494 744 
Q 775 591 1075 516 
Q 1375 441 1709 441 
Q 2250 441 2565 725 
Q 2881 1009 2881 1497 
Q 2881 1984 2565 2268 
Q 2250 2553 1709 2553 
Q 1456 2553 1204 2497 
Q 953 2441 691 2322 
L 691 4666 
z
" id="DejaVuSans-35" transform="scale(0.015625)"/>
       </defs>
       <use xlink:href="#DejaVuSans-31"/>
       <use x="63.623047" xlink:href="#DejaVuSans-35"/>
      </g>
     </g>
    </g>
    <g id="xtick_2">
     <g id="line2d_3">
      <path clip-path="url(#p776d828305)" d="M 115.321519 384.48 
L 115.321519 51.84 
" style="fill:none;stroke:#000000;stroke-dasharray:0.8,1.32;stroke-dashoffset:0;stroke-opacity:0.5;stroke-width:0.8;"/>
     </g>
     <g id="line2d_4">
      <g>
       <use style="stroke:#000000;stroke-width:0.8;" x="115.321519" xlink:href="#mf18cd4b603" y="384.48"/>
      </g>
     </g>
     <g id="text_2">
      <!-- Jun -->
      <g transform="translate(107.509019 399.078438)scale(0.1 -0.1)">
       <defs>
        <path d="M 628 4666 
L 1259 4666 
L 1259 325 
Q 1259 -519 939 -900 
Q 619 -1281 -91 -1281 
L -331 -1281 
L -331 -750 
L -134 -750 
Q 284 -750 456 -515 
Q 628 -281 628 325 
L 628 4666 
z
" id="DejaVuSans-4a" transform="scale(0.015625)"/>
        <path d="M 544 1381 
L 544 3500 
L 1119 3500 
L 1119 1403 
Q 1119 906 1312 657 
Q 1506 409 1894 409 
Q 2359 409 2629 706 
Q 2900 1003 2900 1516 
L 2900 3500 
L 3475 3500 
L 3475 0 
L 2900 0 
L 2900 538 
Q 2691 219 2414 64 
Q 2138 -91 1772 -91 
Q 1169 -91 856 284 
Q 544 659 544 1381 
z
M 1991 3584 
L 1991 3584 
z
" id="DejaVuSans-75" transform="scale(0.015625)"/>
        <path d="M 3513 2113 
L 3513 0 
L 2938 0 
L 2938 2094 
Q 2938 2591 2744 2837 
Q 2550 3084 2163 3084 
Q 1697 3084 1428 2787 
Q 1159 2491 1159 1978 
L 1159 0 
L 581 0 
L 581 3500 
L 1159 3500 
L 1159 2956 
Q 1366 3272 1645 3428 
Q 1925 3584 2291 3584 
Q 2894 3584 3203 3211 
Q 3513 2838 3513 2113 
z
" id="DejaVuSans-6e" transform="scale(0.015625)"/>
       </defs>
       <use xlink:href="#DejaVuSans-4a"/>
       <use x="29.492188" xlink:href="#DejaVuSans-75"/>
       <use x="92.871094" xlink:href="#DejaVuSans-6e"/>
      </g>
     </g>
    </g>
    <g id="xtick_3">
     <g id="line2d_5">
      <path clip-path="url(#p776d828305)" d="M 141.691139 384.48 
L 141.691139 51.84 
" style="fill:none;stroke:#000000;stroke-dasharray:0.8,1.32;stroke-dashoffset:0;stroke-opacity:0.5;stroke-width:0.8;"/>
     </g>
     <g id="line2d_6">
      <g>
       <use style="stroke:#000000;stroke-width:0.8;" x="141.691139" xlink:href="#mf18cd4b603" y="384.48"/>
      </g>
     </g>
     <g id="text_3">
      <!-- 15 -->
      <g transform="translate(135.328639 399.078438)scale(0.1 -0.1)">
       <use xlink:href="#DejaVuSans-31"/>
       <use x="63.623047" xlink:href="#DejaVuSans-35"/>
      </g>
     </g>
    </g>
    <g id="xtick_4">
     <g id="line2d_7">
      <path clip-path="url(#p776d828305)" d="M 171.827848 384.48 
L 171.827848 51.84 
" style="fill:none;stroke:#000000;stroke-dasharray:0.8,1.32;stroke-dashoffset:0;stroke-opacity:0.5;stroke-width:0.8;"/>
     </g>
     <g id="line2d_8">
      <g>
       <use style="stroke:#000000;stroke-width:0.8;" x="171.827848" xlink:href="#mf18cd4b603" y="384.48"/>
      </g>
     </g>
     <g id="text_4">
      <!-- Jul -->
      <g transform="translate(165.795036 399.078438)scale(0.1 -0.1)">
       <defs>
        <path d="M 603 4863 
L 1178 4863 
L 1178 0 
L 603 0 
L 603 4863 
z
" id="DejaVuSans-6c" transform="scale(0.015625)"/>
       </defs>
       <use xlink:href="#DejaVuSans-4a"/>
       <use x="29.492188" xlink:href="#DejaVuSans-75"/>
       <use x="92.871094" xlink:href="#DejaVuSans-6c"/>
      </g>
     </g>
    </g>
    <g id="xtick_5">
     <g id="line2d_9">
      <path clip-path="url(#p776d828305)" d="M 198.197468 384.48 
L 198.197468 51.84 
" style="fill:none;stroke:#000000;stroke-dasharray:0.8,1.32;stroke-dashoffset:0;stroke-opacity:0.5;stroke-width:0.8;"/>
     </g>
     <g id="line2d_10">
      <g>
       <use style="stroke:#000000;stroke-width:0.8;" x="198.197468" xlink:href="#mf18cd4b603" y="384.48"/>
      </g>
     </g>
     <g id="text_5">
      <!-- 15 -->
      <g transform="translate(191.834968 399.078438)scale(0.1 -0.1)">
       <use xlink:href="#DejaVuSans-31"/>
       <use x="63.623047" xlink:href="#DejaVuSans-35"/>
      </g>
     </g>
    </g>
    <g id="xtick_6">
     <g id="line2d_11">
      <path clip-path="url(#p776d828305)" d="M 230.217722 384.48 
L 230.217722 51.84 
" style="fill:none;stroke:#000000;stroke-dasharray:0.8,1.32;stroke-dashoffset:0;stroke-opacity:0.5;stroke-width:0.8;"/>
     </g>
     <g id="line2d_12">
      <g>
       <use style="stroke:#000000;stroke-width:0.8;" x="230.217722" xlink:href="#mf18cd4b603" y="384.48"/>
      </g>
     </g>
     <g id="text_6">
      <!-- Aug -->
      <g transform="translate(220.45444 399.078438)scale(0.1 -0.1)">
       <defs>
        <path d="M 2188 4044 
L 1331 1722 
L 3047 1722 
L 2188 4044 
z
M 1831 4666 
L 2547 4666 
L 4325 0 
L 3669 0 
L 3244 1197 
L 1141 1197 
L 716 0 
L 50 0 
L 1831 4666 
z
" id="DejaVuSans-41" transform="scale(0.015625)"/>
        <path d="M 2906 1791 
Q 2906 2416 2648 2759 
Q 2391 3103 1925 3103 
Q 1463 3103 1205 2759 
Q 947 2416 947 1791 
Q 947 1169 1205 825 
Q 1463 481 1925 481 
Q 2391 481 2648 825 
Q 2906 1169 2906 1791 
z
M 3481 434 
Q 3481 -459 3084 -895 
Q 2688 -1331 1869 -1331 
Q 1566 -1331 1297 -1286 
Q 1028 -1241 775 -1147 
L 775 -588 
Q 1028 -725 1275 -790 
Q 1522 -856 1778 -856 
Q 2344 -856 2625 -561 
Q 2906 -266 2906 331 
L 2906 616 
Q 2728 306 2450 153 
Q 2172 0 1784 0 
Q 1141 0 747 490 
Q 353 981 353 1791 
Q 353 2603 747 3093 
Q 1141 3584 1784 3584 
Q 2172 3584 2450 3431 
Q 2728 3278 2906 2969 
L 2906 3500 
L 3481 3500 
L 3481 434 
z
" id="DejaVuSans-67" transform="scale(0.015625)"/>
       </defs>
       <use xlink:href="#DejaVuSans-41"/>
       <use x="68.408203" xlink:href="#DejaVuSans-75"/>
       <use x="131.787109" xlink:href="#DejaVuSans-67"/>
      </g>
     </g>
    </g>
    <g id="xtick_7">
     <g id="line2d_13">
      <path clip-path="url(#p776d828305)" d="M 256.587342 384.48 
L 256.587342 51.84 
" style="fill:none;stroke:#000000;stroke-dasharray:0.8,1.32;stroke-dashoffset:0;stroke-opacity:0.5;stroke-width:0.8;"/>
     </g>
     <g id="line2d_14">
      <g>
       <use style="stroke:#000000;stroke-width:0.8;" x="256.587342" xlink:href="#mf18cd4b603" y="384.48"/>
      </g>
     </g>
     <g id="text_7">
      <!-- 15 -->
      <g transform="translate(250.224842 399.078438)scale(0.1 -0.1)">
       <use xlink:href="#DejaVuSans-31"/>
       <use x="63.623047" xlink:href="#DejaVuSans-35"/>
      </g>
     </g>
    </g>
    <g id="xtick_8">
     <g id="line2d_15">
      <path clip-path="url(#p776d828305)" d="M 288.607595 384.48 
L 288.607595 51.84 
" style="fill:none;stroke:#000000;stroke-dasharray:0.8,1.32;stroke-dashoffset:0;stroke-opacity:0.5;stroke-width:0.8;"/>
     </g>
     <g id="line2d_16">
      <g>
       <use style="stroke:#000000;stroke-width:0.8;" x="288.607595" xlink:href="#mf18cd4b603" y="384.48"/>
      </g>
     </g>
     <g id="text_8">
      <!-- Sep -->
      <g transform="translate(279.182595 399.078438)scale(0.1 -0.1)">
       <defs>
        <path d="M 3425 4513 
L 3425 3897 
Q 3066 4069 2747 4153 
Q 2428 4238 2131 4238 
Q 1616 4238 1336 4038 
Q 1056 3838 1056 3469 
Q 1056 3159 1242 3001 
Q 1428 2844 1947 2747 
L 2328 2669 
Q 3034 2534 3370 2195 
Q 3706 1856 3706 1288 
Q 3706 609 3251 259 
Q 2797 -91 1919 -91 
Q 1588 -91 1214 -16 
Q 841 59 441 206 
L 441 856 
Q 825 641 1194 531 
Q 1563 422 1919 422 
Q 2459 422 2753 634 
Q 3047 847 3047 1241 
Q 3047 1584 2836 1778 
Q 2625 1972 2144 2069 
L 1759 2144 
Q 1053 2284 737 2584 
Q 422 2884 422 3419 
Q 422 4038 858 4394 
Q 1294 4750 2059 4750 
Q 2388 4750 2728 4690 
Q 3069 4631 3425 4513 
z
" id="DejaVuSans-53" transform="scale(0.015625)"/>
        <path d="M 3597 1894 
L 3597 1613 
L 953 1613 
Q 991 1019 1311 708 
Q 1631 397 2203 397 
Q 2534 397 2845 478 
Q 3156 559 3463 722 
L 3463 178 
Q 3153 47 2828 -22 
Q 2503 -91 2169 -91 
Q 1331 -91 842 396 
Q 353 884 353 1716 
Q 353 2575 817 3079 
Q 1281 3584 2069 3584 
Q 2775 3584 3186 3129 
Q 3597 2675 3597 1894 
z
M 3022 2063 
Q 3016 2534 2758 2815 
Q 2500 3097 2075 3097 
Q 1594 3097 1305 2825 
Q 1016 2553 972 2059 
L 3022 2063 
z
" id="DejaVuSans-65" transform="scale(0.015625)"/>
        <path d="M 1159 525 
L 1159 -1331 
L 581 -1331 
L 581 3500 
L 1159 3500 
L 1159 2969 
Q 1341 3281 1617 3432 
Q 1894 3584 2278 3584 
Q 2916 3584 3314 3078 
Q 3713 2572 3713 1747 
Q 3713 922 3314 415 
Q 2916 -91 2278 -91 
Q 1894 -91 1617 61 
Q 1341 213 1159 525 
z
M 3116 1747 
Q 3116 2381 2855 2742 
Q 2594 3103 2138 3103 
Q 1681 3103 1420 2742 
Q 1159 2381 1159 1747 
Q 1159 1113 1420 752 
Q 1681 391 2138 391 
Q 2594 391 2855 752 
Q 3116 1113 3116 1747 
z
" id="DejaVuSans-70" transform="scale(0.015625)"/>
       </defs>
       <use xlink:href="#DejaVuSans-53"/>
       <use x="63.476562" xlink:href="#DejaVuSans-65"/>
       <use x="125" xlink:href="#DejaVuSans-70"/>
      </g>
     </g>
    </g>
    <g id="xtick_9">
     <g id="line2d_17">
      <path clip-path="url(#p776d828305)" d="M 314.977215 384.48 
L 314.977215 51.84 
" style="fill:none;stroke:#000000;stroke-dasharray:0.8,1.32;stroke-dashoffset:0;stroke-opacity:0.5;stroke-width:0.8;"/>
     </g>
     <g id="line2d_18">
      <g>
       <use style="stroke:#000000;stroke-width:0.8;" x="314.977215" xlink:href="#mf18cd4b603" y="384.48"/>
      </g>
     </g>
     <g id="text_9">
      <!-- 15 -->
      <g transform="translate(308.614715 399.078438)scale(0.1 -0.1)">
       <use xlink:href="#DejaVuSans-31"/>
       <use x="63.623047" xlink:href="#DejaVuSans-35"/>
      </g>
     </g>
    </g>
    <g id="xtick_10">
     <g id="line2d_19">
      <path clip-path="url(#p776d828305)" d="M 345.113924 384.48 
L 345.113924 51.84 
" style="fill:none;stroke:#000000;stroke-dasharray:0.8,1.32;stroke-dashoffset:0;stroke-opacity:0.5;stroke-width:0.8;"/>
     </g>
     <g id="line2d_20">
      <g>
       <use style="stroke:#000000;stroke-width:0.8;" x="345.113924" xlink:href="#mf18cd4b603" y="384.48"/>
      </g>
     </g>
     <g id="text_10">
      <!-- Oct -->
      <g transform="translate(336.468612 399.078438)scale(0.1 -0.1)">
       <defs>
        <path d="M 2522 4238 
Q 1834 4238 1429 3725 
Q 1025 3213 1025 2328 
Q 1025 1447 1429 934 
Q 1834 422 2522 422 
Q 3209 422 3611 934 
Q 4013 1447 4013 2328 
Q 4013 3213 3611 3725 
Q 3209 4238 2522 4238 
z
M 2522 4750 
Q 3503 4750 4090 4092 
Q 4678 3434 4678 2328 
Q 4678 1225 4090 567 
Q 3503 -91 2522 -91 
Q 1538 -91 948 565 
Q 359 1222 359 2328 
Q 359 3434 948 4092 
Q 1538 4750 2522 4750 
z
" id="DejaVuSans-4f" transform="scale(0.015625)"/>
        <path d="M 3122 3366 
L 3122 2828 
Q 2878 2963 2633 3030 
Q 2388 3097 2138 3097 
Q 1578 3097 1268 2742 
Q 959 2388 959 1747 
Q 959 1106 1268 751 
Q 1578 397 2138 397 
Q 2388 397 2633 464 
Q 2878 531 3122 666 
L 3122 134 
Q 2881 22 2623 -34 
Q 2366 -91 2075 -91 
Q 1284 -91 818 406 
Q 353 903 353 1747 
Q 353 2603 823 3093 
Q 1294 3584 2113 3584 
Q 2378 3584 2631 3529 
Q 2884 3475 3122 3366 
z
" id="DejaVuSans-63" transform="scale(0.015625)"/>
        <path d="M 1172 4494 
L 1172 3500 
L 2356 3500 
L 2356 3053 
L 1172 3053 
L 1172 1153 
Q 1172 725 1289 603 
Q 1406 481 1766 481 
L 2356 481 
L 2356 0 
L 1766 0 
Q 1100 0 847 248 
Q 594 497 594 1153 
L 594 3053 
L 172 3053 
L 172 3500 
L 594 3500 
L 594 4494 
L 1172 4494 
z
" id="DejaVuSans-74" transform="scale(0.015625)"/>
       </defs>
       <use xlink:href="#DejaVuSans-4f"/>
       <use x="78.710938" xlink:href="#DejaVuSans-63"/>
       <use x="133.691406" xlink:href="#DejaVuSans-74"/>
      </g>
     </g>
    </g>
    <g id="xtick_11">
     <g id="line2d_21">
      <path clip-path="url(#p776d828305)" d="M 371.483544 384.48 
L 371.483544 51.84 
" style="fill:none;stroke:#000000;stroke-dasharray:0.8,1.32;stroke-dashoffset:0;stroke-opacity:0.5;stroke-width:0.8;"/>
     </g>
     <g id="line2d_22">
      <g>
       <use style="stroke:#000000;stroke-width:0.8;" x="371.483544" xlink:href="#mf18cd4b603" y="384.48"/>
      </g>
     </g>
     <g id="text_11">
      <!-- 15 -->
      <g transform="translate(365.121044 399.078438)scale(0.1 -0.1)">
       <use xlink:href="#DejaVuSans-31"/>
       <use x="63.623047" xlink:href="#DejaVuSans-35"/>
      </g>
     </g>
    </g>
    <g id="xtick_12">
     <g id="line2d_23">
      <path clip-path="url(#p776d828305)" d="M 403.503797 384.48 
L 403.503797 51.84 
" style="fill:none;stroke:#000000;stroke-dasharray:0.8,1.32;stroke-dashoffset:0;stroke-opacity:0.5;stroke-width:0.8;"/>
     </g>
     <g id="line2d_24">
      <g>
       <use style="stroke:#000000;stroke-width:0.8;" x="403.503797" xlink:href="#mf18cd4b603" y="384.48"/>
      </g>
     </g>
     <g id="text_12">
      <!-- Nov -->
      <g transform="translate(393.744422 399.078438)scale(0.1 -0.1)">
       <defs>
        <path d="M 628 4666 
L 1478 4666 
L 3547 763 
L 3547 4666 
L 4159 4666 
L 4159 0 
L 3309 0 
L 1241 3903 
L 1241 0 
L 628 0 
L 628 4666 
z
" id="DejaVuSans-4e" transform="scale(0.015625)"/>
        <path d="M 1959 3097 
Q 1497 3097 1228 2736 
Q 959 2375 959 1747 
Q 959 1119 1226 758 
Q 1494 397 1959 397 
Q 2419 397 2687 759 
Q 2956 1122 2956 1747 
Q 2956 2369 2687 2733 
Q 2419 3097 1959 3097 
z
M 1959 3584 
Q 2709 3584 3137 3096 
Q 3566 2609 3566 1747 
Q 3566 888 3137 398 
Q 2709 -91 1959 -91 
Q 1206 -91 779 398 
Q 353 888 353 1747 
Q 353 2609 779 3096 
Q 1206 3584 1959 3584 
z
" id="DejaVuSans-6f" transform="scale(0.015625)"/>
        <path d="M 191 3500 
L 800 3500 
L 1894 563 
L 2988 3500 
L 3597 3500 
L 2284 0 
L 1503 0 
L 191 3500 
z
" id="DejaVuSans-76" transform="scale(0.015625)"/>
       </defs>
       <use xlink:href="#DejaVuSans-4e"/>
       <use x="74.804688" xlink:href="#DejaVuSans-6f"/>
       <use x="135.986328" xlink:href="#DejaVuSans-76"/>
      </g>
     </g>
    </g>
    <g id="xtick_13">
     <g id="line2d_25">
      <path clip-path="url(#p776d828305)" d="M 429.873418 384.48 
L 429.873418 51.84 
" style="fill:none;stroke:#000000;stroke-dasharray:0.8,1.32;stroke-dashoffset:0;stroke-opacity:0.5;stroke-width:0.8;"/>
     </g>
     <g id="line2d_26">
      <g>
       <use style="stroke:#000000;stroke-width:0.8;" x="429.873418" xlink:href="#mf18cd4b603" y="384.48"/>
      </g>
     </g>
     <g id="text_13">
      <!-- 15 -->
      <g transform="translate(423.510918 399.078438)scale(0.1 -0.1)">
       <use xlink:href="#DejaVuSans-31"/>
       <use x="63.623047" xlink:href="#DejaVuSans-35"/>
      </g>
     </g>
    </g>
    <g id="xtick_14">
     <g id="line2d_27">
      <path clip-path="url(#p776d828305)" d="M 460.010127 384.48 
L 460.010127 51.84 
" style="fill:none;stroke:#000000;stroke-dasharray:0.8,1.32;stroke-dashoffset:0;stroke-opacity:0.5;stroke-width:0.8;"/>
     </g>
     <g id="line2d_28">
      <g>
       <use style="stroke:#000000;stroke-width:0.8;" x="460.010127" xlink:href="#mf18cd4b603" y="384.48"/>
      </g>
     </g>
     <g id="text_14">
      <!-- Dec -->
      <g transform="translate(450.334345 399.078438)scale(0.1 -0.1)">
       <defs>
        <path d="M 1259 4147 
L 1259 519 
L 2022 519 
Q 2988 519 3436 956 
Q 3884 1394 3884 2338 
Q 3884 3275 3436 3711 
Q 2988 4147 2022 4147 
L 1259 4147 
z
M 628 4666 
L 1925 4666 
Q 3281 4666 3915 4102 
Q 4550 3538 4550 2338 
Q 4550 1131 3912 565 
Q 3275 0 1925 0 
L 628 0 
L 628 4666 
z
" id="DejaVuSans-44" transform="scale(0.015625)"/>
       </defs>
       <use xlink:href="#DejaVuSans-44"/>
       <use x="77.001953" xlink:href="#DejaVuSans-65"/>
       <use x="138.525391" xlink:href="#DejaVuSans-63"/>
      </g>
     </g>
    </g>
    <g id="xtick_15">
     <g id="line2d_29">
      <path clip-path="url(#p776d828305)" d="M 486.379747 384.48 
L 486.379747 51.84 
" style="fill:none;stroke:#000000;stroke-dasharray:0.8,1.32;stroke-dashoffset:0;stroke-opacity:0.5;stroke-width:0.8;"/>
     </g>
     <g id="line2d_30">
      <g>
       <use style="stroke:#000000;stroke-width:0.8;" x="486.379747" xlink:href="#mf18cd4b603" y="384.48"/>
      </g>
     </g>
     <g id="text_15">
      <!-- 15 -->
      <g transform="translate(480.017247 399.078438)scale(0.1 -0.1)">
       <use xlink:href="#DejaVuSans-31"/>
       <use x="63.623047" xlink:href="#DejaVuSans-35"/>
      </g>
     </g>
    </g>
    <g id="xtick_16">
     <g id="line2d_31">
      <path clip-path="url(#p776d828305)" d="M 518.4 384.48 
L 518.4 51.84 
" style="fill:none;stroke:#000000;stroke-dasharray:0.8,1.32;stroke-dashoffset:0;stroke-opacity:0.5;stroke-width:0.8;"/>
     </g>
     <g id="line2d_32">
      <g>
       <use style="stroke:#000000;stroke-width:0.8;" x="518.4" xlink:href="#mf18cd4b603" y="384.48"/>
      </g>
     </g>
     <g id="text_16">
      <!-- Jan -->
      <g transform="translate(510.692188 399.078438)scale(0.1 -0.1)">
       <defs>
        <path d="M 2194 1759 
Q 1497 1759 1228 1600 
Q 959 1441 959 1056 
Q 959 750 1161 570 
Q 1363 391 1709 391 
Q 2188 391 2477 730 
Q 2766 1069 2766 1631 
L 2766 1759 
L 2194 1759 
z
M 3341 1997 
L 3341 0 
L 2766 0 
L 2766 531 
Q 2569 213 2275 61 
Q 1981 -91 1556 -91 
Q 1019 -91 701 211 
Q 384 513 384 1019 
Q 384 1609 779 1909 
Q 1175 2209 1959 2209 
L 2766 2209 
L 2766 2266 
Q 2766 2663 2505 2880 
Q 2244 3097 1772 3097 
Q 1472 3097 1187 3025 
Q 903 2953 641 2809 
L 641 3341 
Q 956 3463 1253 3523 
Q 1550 3584 1831 3584 
Q 2591 3584 2966 3190 
Q 3341 2797 3341 1997 
z
" id="DejaVuSans-61" transform="scale(0.015625)"/>
       </defs>
       <use xlink:href="#DejaVuSans-4a"/>
       <use x="29.492188" xlink:href="#DejaVuSans-61"/>
       <use x="90.771484" xlink:href="#DejaVuSans-6e"/>
      </g>
     </g>
    </g>
    <g id="text_17">
     <!-- 2022-Jan -->
     <g transform="translate(473.364062 411.756563)scale(0.1 -0.1)">
      <defs>
       <path d="M 1228 531 
L 3431 531 
L 3431 0 
L 469 0 
L 469 531 
Q 828 903 1448 1529 
Q 2069 2156 2228 2338 
Q 2531 2678 2651 2914 
Q 2772 3150 2772 3378 
Q 2772 3750 2511 3984 
Q 2250 4219 1831 4219 
Q 1534 4219 1204 4116 
Q 875 4013 500 3803 
L 500 4441 
Q 881 4594 1212 4672 
Q 1544 4750 1819 4750 
Q 2544 4750 2975 4387 
Q 3406 4025 3406 3419 
Q 3406 3131 3298 2873 
Q 3191 2616 2906 2266 
Q 2828 2175 2409 1742 
Q 1991 1309 1228 531 
z
" id="DejaVuSans-32" transform="scale(0.015625)"/>
       <path d="M 2034 4250 
Q 1547 4250 1301 3770 
Q 1056 3291 1056 2328 
Q 1056 1369 1301 889 
Q 1547 409 2034 409 
Q 2525 409 2770 889 
Q 3016 1369 3016 2328 
Q 3016 3291 2770 3770 
Q 2525 4250 2034 4250 
z
M 2034 4750 
Q 2819 4750 3233 4129 
Q 3647 3509 3647 2328 
Q 3647 1150 3233 529 
Q 2819 -91 2034 -91 
Q 1250 -91 836 529 
Q 422 1150 422 2328 
Q 422 3509 836 4129 
Q 1250 4750 2034 4750 
z
" id="DejaVuSans-30" transform="scale(0.015625)"/>
       <path d="M 313 2009 
L 1997 2009 
L 1997 1497 
L 313 1497 
L 313 2009 
z
" id="DejaVuSans-2d" transform="scale(0.015625)"/>
      </defs>
      <use xlink:href="#DejaVuSans-32"/>
      <use x="63.623047" xlink:href="#DejaVuSans-30"/>
      <use x="127.246094" xlink:href="#DejaVuSans-32"/>
      <use x="190.869141" xlink:href="#DejaVuSans-32"/>
      <use x="254.492188" xlink:href="#DejaVuSans-2d"/>
      <use x="296.201172" xlink:href="#DejaVuSans-4a"/>
      <use x="325.693359" xlink:href="#DejaVuSans-61"/>
      <use x="386.972656" xlink:href="#DejaVuSans-6e"/>
     </g>
    </g>
   </g>
   <g id="matplotlib.axis_2">
    <g id="ytick_1">
     <g id="line2d_33">
      <path clip-path="url(#p776d828305)" d="M 72 384.48 
L 518.4 384.48 
" style="fill:none;stroke:#000000;stroke-dasharray:0.8,1.32;stroke-dashoffset:0;stroke-opacity:0.5;stroke-width:0.8;"/>
     </g>
     <g id="line2d_34">
      <defs>
       <path d="M 0 0 
L -3.5 0 
" id="m794d99b694" style="stroke:#000000;stroke-width:0.8;"/>
      </defs>
      <g>
       <use style="stroke:#000000;stroke-width:0.8;" x="72" xlink:href="#m794d99b694" y="384.48"/>
      </g>
     </g>
     <g id="text_18">
      <!-- 0 -->
      <g transform="translate(58.6375 388.279219)scale(0.1 -0.1)">
       <use xlink:href="#DejaVuSans-30"/>
      </g>
     </g>
    </g>
    <g id="ytick_2">
     <g id="line2d_35">
      <path clip-path="url(#p776d828305)" d="M 72 362.304 
L 518.4 362.304 
" style="fill:none;stroke:#000000;stroke-dasharray:0.8,1.32;stroke-dashoffset:0;stroke-opacity:0.5;stroke-width:0.8;"/>
     </g>
     <g id="line2d_36">
      <g>
       <use style="stroke:#000000;stroke-width:0.8;" x="72" xlink:href="#m794d99b694" y="362.304"/>
      </g>
     </g>
     <g id="text_19">
      <!-- 1 -->
      <g transform="translate(58.6375 366.103219)scale(0.1 -0.1)">
       <use xlink:href="#DejaVuSans-31"/>
      </g>
     </g>
    </g>
    <g id="ytick_3">
     <g id="line2d_37">
      <path clip-path="url(#p776d828305)" d="M 72 340.128 
L 518.4 340.128 
" style="fill:none;stroke:#000000;stroke-dasharray:0.8,1.32;stroke-dashoffset:0;stroke-opacity:0.5;stroke-width:0.8;"/>
     </g>
     <g id="line2d_38">
      <g>
       <use style="stroke:#000000;stroke-width:0.8;" x="72" xlink:href="#m794d99b694" y="340.128"/>
      </g>
     </g>
     <g id="text_20">
      <!-- 2 -->
      <g transform="translate(58.6375 343.927219)scale(0.1 -0.1)">
       <use xlink:href="#DejaVuSans-32"/>
      </g>
     </g>
    </g>
    <g id="ytick_4">
     <g id="line2d_39">
      <path clip-path="url(#p776d828305)" d="M 72 317.952 
L 518.4 317.952 
" style="fill:none;stroke:#000000;stroke-dasharray:0.8,1.32;stroke-dashoffset:0;stroke-opacity:0.5;stroke-width:0.8;"/>
     </g>
     <g id="line2d_40">
      <g>
       <use style="stroke:#000000;stroke-width:0.8;" x="72" xlink:href="#m794d99b694" y="317.952"/>
      </g>
     </g>
     <g id="text_21">
      <!-- 3 -->
      <g transform="translate(58.6375 321.751219)scale(0.1 -0.1)">
       <defs>
        <path d="M 2597 2516 
Q 3050 2419 3304 2112 
Q 3559 1806 3559 1356 
Q 3559 666 3084 287 
Q 2609 -91 1734 -91 
Q 1441 -91 1130 -33 
Q 819 25 488 141 
L 488 750 
Q 750 597 1062 519 
Q 1375 441 1716 441 
Q 2309 441 2620 675 
Q 2931 909 2931 1356 
Q 2931 1769 2642 2001 
Q 2353 2234 1838 2234 
L 1294 2234 
L 1294 2753 
L 1863 2753 
Q 2328 2753 2575 2939 
Q 2822 3125 2822 3475 
Q 2822 3834 2567 4026 
Q 2313 4219 1838 4219 
Q 1578 4219 1281 4162 
Q 984 4106 628 3988 
L 628 4550 
Q 988 4650 1302 4700 
Q 1616 4750 1894 4750 
Q 2613 4750 3031 4423 
Q 3450 4097 3450 3541 
Q 3450 3153 3228 2886 
Q 3006 2619 2597 2516 
z
" id="DejaVuSans-33" transform="scale(0.015625)"/>
       </defs>
       <use xlink:href="#DejaVuSans-33"/>
      </g>
     </g>
    </g>
    <g id="ytick_5">
     <g id="line2d_41">
      <path clip-path="url(#p776d828305)" d="M 72 295.776 
L 518.4 295.776 
" style="fill:none;stroke:#000000;stroke-dasharray:0.8,1.32;stroke-dashoffset:0;stroke-opacity:0.5;stroke-width:0.8;"/>
     </g>
     <g id="line2d_42">
      <g>
       <use style="stroke:#000000;stroke-width:0.8;" x="72" xlink:href="#m794d99b694" y="295.776"/>
      </g>
     </g>
     <g id="text_22">
      <!-- 4 -->
      <g transform="translate(58.6375 299.575219)scale(0.1 -0.1)">
       <defs>
        <path d="M 2419 4116 
L 825 1625 
L 2419 1625 
L 2419 4116 
z
M 2253 4666 
L 3047 4666 
L 3047 1625 
L 3713 1625 
L 3713 1100 
L 3047 1100 
L 3047 0 
L 2419 0 
L 2419 1100 
L 313 1100 
L 313 1709 
L 2253 4666 
z
" id="DejaVuSans-34" transform="scale(0.015625)"/>
       </defs>
       <use xlink:href="#DejaVuSans-34"/>
      </g>
     </g>
    </g>
    <g id="ytick_6">
     <g id="line2d_43">
      <path clip-path="url(#p776d828305)" d="M 72 273.6 
L 518.4 273.6 
" style="fill:none;stroke:#000000;stroke-dasharray:0.8,1.32;stroke-dashoffset:0;stroke-opacity:0.5;stroke-width:0.8;"/>
     </g>
     <g id="line2d_44">
      <g>
       <use style="stroke:#000000;stroke-width:0.8;" x="72" xlink:href="#m794d99b694" y="273.6"/>
      </g>
     </g>
     <g id="text_23">
      <!-- 5 -->
      <g transform="translate(58.6375 277.399219)scale(0.1 -0.1)">
       <use xlink:href="#DejaVuSans-35"/>
      </g>
     </g>
    </g>
    <g id="ytick_7">
     <g id="line2d_45">
      <path clip-path="url(#p776d828305)" d="M 72 251.424 
L 518.4 251.424 
" style="fill:none;stroke:#000000;stroke-dasharray:0.8,1.32;stroke-dashoffset:0;stroke-opacity:0.5;stroke-width:0.8;"/>
     </g>
     <g id="line2d_46">
      <g>
       <use style="stroke:#000000;stroke-width:0.8;" x="72" xlink:href="#m794d99b694" y="251.424"/>
      </g>
     </g>
     <g id="text_24">
      <!-- 6 -->
      <g transform="translate(58.6375 255.223219)scale(0.1 -0.1)">
       <defs>
        <path d="M 2113 2584 
Q 1688 2584 1439 2293 
Q 1191 2003 1191 1497 
Q 1191 994 1439 701 
Q 1688 409 2113 409 
Q 2538 409 2786 701 
Q 3034 994 3034 1497 
Q 3034 2003 2786 2293 
Q 2538 2584 2113 2584 
z
M 3366 4563 
L 3366 3988 
Q 3128 4100 2886 4159 
Q 2644 4219 2406 4219 
Q 1781 4219 1451 3797 
Q 1122 3375 1075 2522 
Q 1259 2794 1537 2939 
Q 1816 3084 2150 3084 
Q 2853 3084 3261 2657 
Q 3669 2231 3669 1497 
Q 3669 778 3244 343 
Q 2819 -91 2113 -91 
Q 1303 -91 875 529 
Q 447 1150 447 2328 
Q 447 3434 972 4092 
Q 1497 4750 2381 4750 
Q 2619 4750 2861 4703 
Q 3103 4656 3366 4563 
z
" id="DejaVuSans-36" transform="scale(0.015625)"/>
       </defs>
       <use xlink:href="#DejaVuSans-36"/>
      </g>
     </g>
    </g>
    <g id="ytick_8">
     <g id="line2d_47">
      <path clip-path="url(#p776d828305)" d="M 72 229.248 
L 518.4 229.248 
" style="fill:none;stroke:#000000;stroke-dasharray:0.8,1.32;stroke-dashoffset:0;stroke-opacity:0.5;stroke-width:0.8;"/>
     </g>
     <g id="line2d_48">
      <g>
       <use style="stroke:#000000;stroke-width:0.8;" x="72" xlink:href="#m794d99b694" y="229.248"/>
      </g>
     </g>
     <g id="text_25">
      <!-- 7 -->
      <g transform="translate(58.6375 233.047219)scale(0.1 -0.1)">
       <defs>
        <path d="M 525 4666 
L 3525 4666 
L 3525 4397 
L 1831 0 
L 1172 0 
L 2766 4134 
L 525 4134 
L 525 4666 
z
" id="DejaVuSans-37" transform="scale(0.015625)"/>
       </defs>
       <use xlink:href="#DejaVuSans-37"/>
      </g>
     </g>
    </g>
    <g id="ytick_9">
     <g id="line2d_49">
      <path clip-path="url(#p776d828305)" d="M 72 207.072 
L 518.4 207.072 
" style="fill:none;stroke:#000000;stroke-dasharray:0.8,1.32;stroke-dashoffset:0;stroke-opacity:0.5;stroke-width:0.8;"/>
     </g>
     <g id="line2d_50">
      <g>
       <use style="stroke:#000000;stroke-width:0.8;" x="72" xlink:href="#m794d99b694" y="207.072"/>
      </g>
     </g>
     <g id="text_26">
      <!-- 8 -->
      <g transform="translate(58.6375 210.871219)scale(0.1 -0.1)">
       <defs>
        <path d="M 2034 2216 
Q 1584 2216 1326 1975 
Q 1069 1734 1069 1313 
Q 1069 891 1326 650 
Q 1584 409 2034 409 
Q 2484 409 2743 651 
Q 3003 894 3003 1313 
Q 3003 1734 2745 1975 
Q 2488 2216 2034 2216 
z
M 1403 2484 
Q 997 2584 770 2862 
Q 544 3141 544 3541 
Q 544 4100 942 4425 
Q 1341 4750 2034 4750 
Q 2731 4750 3128 4425 
Q 3525 4100 3525 3541 
Q 3525 3141 3298 2862 
Q 3072 2584 2669 2484 
Q 3125 2378 3379 2068 
Q 3634 1759 3634 1313 
Q 3634 634 3220 271 
Q 2806 -91 2034 -91 
Q 1263 -91 848 271 
Q 434 634 434 1313 
Q 434 1759 690 2068 
Q 947 2378 1403 2484 
z
M 1172 3481 
Q 1172 3119 1398 2916 
Q 1625 2713 2034 2713 
Q 2441 2713 2670 2916 
Q 2900 3119 2900 3481 
Q 2900 3844 2670 4047 
Q 2441 4250 2034 4250 
Q 1625 4250 1398 4047 
Q 1172 3844 1172 3481 
z
" id="DejaVuSans-38" transform="scale(0.015625)"/>
       </defs>
       <use xlink:href="#DejaVuSans-38"/>
      </g>
     </g>
    </g>
    <g id="ytick_10">
     <g id="line2d_51">
      <path clip-path="url(#p776d828305)" d="M 72 184.896 
L 518.4 184.896 
" style="fill:none;stroke:#000000;stroke-dasharray:0.8,1.32;stroke-dashoffset:0;stroke-opacity:0.5;stroke-width:0.8;"/>
     </g>
     <g id="line2d_52">
      <g>
       <use style="stroke:#000000;stroke-width:0.8;" x="72" xlink:href="#m794d99b694" y="184.896"/>
      </g>
     </g>
     <g id="text_27">
      <!-- 9 -->
      <g transform="translate(58.6375 188.695219)scale(0.1 -0.1)">
       <defs>
        <path d="M 703 97 
L 703 672 
Q 941 559 1184 500 
Q 1428 441 1663 441 
Q 2288 441 2617 861 
Q 2947 1281 2994 2138 
Q 2813 1869 2534 1725 
Q 2256 1581 1919 1581 
Q 1219 1581 811 2004 
Q 403 2428 403 3163 
Q 403 3881 828 4315 
Q 1253 4750 1959 4750 
Q 2769 4750 3195 4129 
Q 3622 3509 3622 2328 
Q 3622 1225 3098 567 
Q 2575 -91 1691 -91 
Q 1453 -91 1209 -44 
Q 966 3 703 97 
z
M 1959 2075 
Q 2384 2075 2632 2365 
Q 2881 2656 2881 3163 
Q 2881 3666 2632 3958 
Q 2384 4250 1959 4250 
Q 1534 4250 1286 3958 
Q 1038 3666 1038 3163 
Q 1038 2656 1286 2365 
Q 1534 2075 1959 2075 
z
" id="DejaVuSans-39" transform="scale(0.015625)"/>
       </defs>
       <use xlink:href="#DejaVuSans-39"/>
      </g>
     </g>
    </g>
    <g id="ytick_11">
     <g id="line2d_53">
      <path clip-path="url(#p776d828305)" d="M 72 162.72 
L 518.4 162.72 
" style="fill:none;stroke:#000000;stroke-dasharray:0.8,1.32;stroke-dashoffset:0;stroke-opacity:0.5;stroke-width:0.8;"/>
     </g>
     <g id="line2d_54">
      <g>
       <use style="stroke:#000000;stroke-width:0.8;" x="72" xlink:href="#m794d99b694" y="162.72"/>
      </g>
     </g>
     <g id="text_28">
      <!-- 10 -->
      <g transform="translate(52.275 166.519219)scale(0.1 -0.1)">
       <use xlink:href="#DejaVuSans-31"/>
       <use x="63.623047" xlink:href="#DejaVuSans-30"/>
      </g>
     </g>
    </g>
    <g id="ytick_12">
     <g id="line2d_55">
      <path clip-path="url(#p776d828305)" d="M 72 140.544 
L 518.4 140.544 
" style="fill:none;stroke:#000000;stroke-dasharray:0.8,1.32;stroke-dashoffset:0;stroke-opacity:0.5;stroke-width:0.8;"/>
     </g>
     <g id="line2d_56">
      <g>
       <use style="stroke:#000000;stroke-width:0.8;" x="72" xlink:href="#m794d99b694" y="140.544"/>
      </g>
     </g>
     <g id="text_29">
      <!-- 11 -->
      <g transform="translate(52.275 144.343219)scale(0.1 -0.1)">
       <use xlink:href="#DejaVuSans-31"/>
       <use x="63.623047" xlink:href="#DejaVuSans-31"/>
      </g>
     </g>
    </g>
    <g id="ytick_13">
     <g id="line2d_57">
      <path clip-path="url(#p776d828305)" d="M 72 118.368 
L 518.4 118.368 
" style="fill:none;stroke:#000000;stroke-dasharray:0.8,1.32;stroke-dashoffset:0;stroke-opacity:0.5;stroke-width:0.8;"/>
     </g>
     <g id="line2d_58">
      <g>
       <use style="stroke:#000000;stroke-width:0.8;" x="72" xlink:href="#m794d99b694" y="118.368"/>
      </g>
     </g>
     <g id="text_30">
      <!-- 12 -->
      <g transform="translate(52.275 122.167219)scale(0.1 -0.1)">
       <use xlink:href="#DejaVuSans-31"/>
       <use x="63.623047" xlink:href="#DejaVuSans-32"/>
      </g>
     </g>
    </g>
    <g id="ytick_14">
     <g id="line2d_59">
      <path clip-path="url(#p776d828305)" d="M 72 96.192 
L 518.4 96.192 
" style="fill:none;stroke:#000000;stroke-dasharray:0.8,1.32;stroke-dashoffset:0;stroke-opacity:0.5;stroke-width:0.8;"/>
     </g>
     <g id="line2d_60">
      <g>
       <use style="stroke:#000000;stroke-width:0.8;" x="72" xlink:href="#m794d99b694" y="96.192"/>
      </g>
     </g>
     <g id="text_31">
      <!-- 13 -->
      <g transform="translate(52.275 99.991219)scale(0.1 -0.1)">
       <use xlink:href="#DejaVuSans-31"/>
       <use x="63.623047" xlink:href="#DejaVuSans-33"/>
      </g>
     </g>
    </g>
    <g id="ytick_15">
     <g id="line2d_61">
      <path clip-path="url(#p776d828305)" d="M 72 74.016 
L 518.4 74.016 
" style="fill:none;stroke:#000000;stroke-dasharray:0.8,1.32;stroke-dashoffset:0;stroke-opacity:0.5;stroke-width:0.8;"/>
     </g>
     <g id="line2d_62">
      <g>
       <use style="stroke:#000000;stroke-width:0.8;" x="72" xlink:href="#m794d99b694" y="74.016"/>
      </g>
     </g>
     <g id="text_32">
      <!-- 14 -->
      <g transform="translate(52.275 77.815219)scale(0.1 -0.1)">
       <use xlink:href="#DejaVuSans-31"/>
       <use x="63.623047" xlink:href="#DejaVuSans-34"/>
      </g>
     </g>
    </g>
    <g id="ytick_16">
     <g id="line2d_63">
      <path clip-path="url(#p776d828305)" d="M 72 51.84 
L 518.4 51.84 
" style="fill:none;stroke:#000000;stroke-dasharray:0.8,1.32;stroke-dashoffset:0;stroke-opacity:0.5;stroke-width:0.8;"/>
     </g>
     <g id="line2d_64">
      <g>
       <use style="stroke:#000000;stroke-width:0.8;" x="72" xlink:href="#m794d99b694" y="51.84"/>
      </g>
     </g>
     <g id="text_33">
      <!-- 15 -->
      <g transform="translate(52.275 55.639219)scale(0.1 -0.1)">
       <use xlink:href="#DejaVuSans-31"/>
       <use x="63.623047" xlink:href="#DejaVuSans-35"/>
      </g>
     </g>
    </g>
    <g id="text_34">
     <!-- Vaccination rate (% of age group / week) -->
     <g transform="translate(46.195312 320.362344)rotate(-90)scale(0.1 -0.1)">
      <defs>
       <path d="M 1831 0 
L 50 4666 
L 709 4666 
L 2188 738 
L 3669 4666 
L 4325 4666 
L 2547 0 
L 1831 0 
z
" id="DejaVuSans-56" transform="scale(0.015625)"/>
       <path d="M 603 3500 
L 1178 3500 
L 1178 0 
L 603 0 
L 603 3500 
z
M 603 4863 
L 1178 4863 
L 1178 4134 
L 603 4134 
L 603 4863 
z
" id="DejaVuSans-69" transform="scale(0.015625)"/>
       <path id="DejaVuSans-20" transform="scale(0.015625)"/>
       <path d="M 2631 2963 
Q 2534 3019 2420 3045 
Q 2306 3072 2169 3072 
Q 1681 3072 1420 2755 
Q 1159 2438 1159 1844 
L 1159 0 
L 581 0 
L 581 3500 
L 1159 3500 
L 1159 2956 
Q 1341 3275 1631 3429 
Q 1922 3584 2338 3584 
Q 2397 3584 2469 3576 
Q 2541 3569 2628 3553 
L 2631 2963 
z
" id="DejaVuSans-72" transform="scale(0.015625)"/>
       <path d="M 1984 4856 
Q 1566 4138 1362 3434 
Q 1159 2731 1159 2009 
Q 1159 1288 1364 580 
Q 1569 -128 1984 -844 
L 1484 -844 
Q 1016 -109 783 600 
Q 550 1309 550 2009 
Q 550 2706 781 3412 
Q 1013 4119 1484 4856 
L 1984 4856 
z
" id="DejaVuSans-28" transform="scale(0.015625)"/>
       <path d="M 4653 2053 
Q 4381 2053 4226 1822 
Q 4072 1591 4072 1178 
Q 4072 772 4226 539 
Q 4381 306 4653 306 
Q 4919 306 5073 539 
Q 5228 772 5228 1178 
Q 5228 1588 5073 1820 
Q 4919 2053 4653 2053 
z
M 4653 2450 
Q 5147 2450 5437 2106 
Q 5728 1763 5728 1178 
Q 5728 594 5436 251 
Q 5144 -91 4653 -91 
Q 4153 -91 3862 251 
Q 3572 594 3572 1178 
Q 3572 1766 3864 2108 
Q 4156 2450 4653 2450 
z
M 1428 4353 
Q 1159 4353 1004 4120 
Q 850 3888 850 3481 
Q 850 3069 1003 2837 
Q 1156 2606 1428 2606 
Q 1700 2606 1854 2837 
Q 2009 3069 2009 3481 
Q 2009 3884 1853 4118 
Q 1697 4353 1428 4353 
z
M 4250 4750 
L 4750 4750 
L 1831 -91 
L 1331 -91 
L 4250 4750 
z
M 1428 4750 
Q 1922 4750 2215 4408 
Q 2509 4066 2509 3481 
Q 2509 2891 2217 2550 
Q 1925 2209 1428 2209 
Q 931 2209 642 2551 
Q 353 2894 353 3481 
Q 353 4063 643 4406 
Q 934 4750 1428 4750 
z
" id="DejaVuSans-25" transform="scale(0.015625)"/>
       <path d="M 2375 4863 
L 2375 4384 
L 1825 4384 
Q 1516 4384 1395 4259 
Q 1275 4134 1275 3809 
L 1275 3500 
L 2222 3500 
L 2222 3053 
L 1275 3053 
L 1275 0 
L 697 0 
L 697 3053 
L 147 3053 
L 147 3500 
L 697 3500 
L 697 3744 
Q 697 4328 969 4595 
Q 1241 4863 1831 4863 
L 2375 4863 
z
" id="DejaVuSans-66" transform="scale(0.015625)"/>
       <path d="M 1625 4666 
L 2156 4666 
L 531 -594 
L 0 -594 
L 1625 4666 
z
" id="DejaVuSans-2f" transform="scale(0.015625)"/>
       <path d="M 269 3500 
L 844 3500 
L 1563 769 
L 2278 3500 
L 2956 3500 
L 3675 769 
L 4391 3500 
L 4966 3500 
L 4050 0 
L 3372 0 
L 2619 2869 
L 1863 0 
L 1184 0 
L 269 3500 
z
" id="DejaVuSans-77" transform="scale(0.015625)"/>
       <path d="M 581 4863 
L 1159 4863 
L 1159 1991 
L 2875 3500 
L 3609 3500 
L 1753 1863 
L 3688 0 
L 2938 0 
L 1159 1709 
L 1159 0 
L 581 0 
L 581 4863 
z
" id="DejaVuSans-6b" transform="scale(0.015625)"/>
       <path d="M 513 4856 
L 1013 4856 
Q 1481 4119 1714 3412 
Q 1947 2706 1947 2009 
Q 1947 1309 1714 600 
Q 1481 -109 1013 -844 
L 513 -844 
Q 928 -128 1133 580 
Q 1338 1288 1338 2009 
Q 1338 2731 1133 3434 
Q 928 4138 513 4856 
z
" id="DejaVuSans-29" transform="scale(0.015625)"/>
      </defs>
      <use xlink:href="#DejaVuSans-56"/>
      <use x="60.658203" xlink:href="#DejaVuSans-61"/>
      <use x="121.9375" xlink:href="#DejaVuSans-63"/>
      <use x="176.917969" xlink:href="#DejaVuSans-63"/>
      <use x="231.898438" xlink:href="#DejaVuSans-69"/>
      <use x="259.681641" xlink:href="#DejaVuSans-6e"/>
      <use x="323.060547" xlink:href="#DejaVuSans-61"/>
      <use x="384.339844" xlink:href="#DejaVuSans-74"/>
      <use x="423.548828" xlink:href="#DejaVuSans-69"/>
      <use x="451.332031" xlink:href="#DejaVuSans-6f"/>
      <use x="512.513672" xlink:href="#DejaVuSans-6e"/>
      <use x="575.892578" xlink:href="#DejaVuSans-20"/>
      <use x="607.679688" xlink:href="#DejaVuSans-72"/>
      <use x="648.792969" xlink:href="#DejaVuSans-61"/>
      <use x="710.072266" xlink:href="#DejaVuSans-74"/>
      <use x="749.28125" xlink:href="#DejaVuSans-65"/>
      <use x="810.804688" xlink:href="#DejaVuSans-20"/>
      <use x="842.591797" xlink:href="#DejaVuSans-28"/>
      <use x="881.605469" xlink:href="#DejaVuSans-25"/>
      <use x="976.625" xlink:href="#DejaVuSans-20"/>
      <use x="1008.412109" xlink:href="#DejaVuSans-6f"/>
      <use x="1069.59375" xlink:href="#DejaVuSans-66"/>
      <use x="1104.798828" xlink:href="#DejaVuSans-20"/>
      <use x="1136.585938" xlink:href="#DejaVuSans-61"/>
      <use x="1197.865234" xlink:href="#DejaVuSans-67"/>
      <use x="1261.341797" xlink:href="#DejaVuSans-65"/>
      <use x="1322.865234" xlink:href="#DejaVuSans-20"/>
      <use x="1354.652344" xlink:href="#DejaVuSans-67"/>
      <use x="1418.128906" xlink:href="#DejaVuSans-72"/>
      <use x="1456.992188" xlink:href="#DejaVuSans-6f"/>
      <use x="1518.173828" xlink:href="#DejaVuSans-75"/>
      <use x="1581.552734" xlink:href="#DejaVuSans-70"/>
      <use x="1645.029297" xlink:href="#DejaVuSans-20"/>
      <use x="1676.816406" xlink:href="#DejaVuSans-2f"/>
      <use x="1710.507812" xlink:href="#DejaVuSans-20"/>
      <use x="1742.294922" xlink:href="#DejaVuSans-77"/>
      <use x="1824.082031" xlink:href="#DejaVuSans-65"/>
      <use x="1885.605469" xlink:href="#DejaVuSans-65"/>
      <use x="1947.128906" xlink:href="#DejaVuSans-6b"/>
      <use x="2005.039062" xlink:href="#DejaVuSans-29"/>
     </g>
    </g>
   </g>
   <g id="line2d_65">
    <path clip-path="url(#p776d828305)" d="M 85.18481 278.053985 
L 87.068354 273.499751 
L 88.951899 265.781495 
L 90.835443 261.884641 
L 92.718987 261.498565 
L 94.602532 261.536987 
L 96.486076 263.51133 
L 98.36962 264.858096 
L 100.253165 271.527747 
L 102.136709 286.032952 
L 104.020253 298.945416 
L 105.903797 307.00714 
L 107.787342 310.111845 
L 111.55443 311.867674 
L 113.437975 307.362443 
L 115.321519 297.319544 
L 117.205063 292.43753 
L 119.088608 296.158381 
L 120.972152 303.245653 
L 122.855696 307.562933 
L 124.739241 308.617217 
L 126.622785 308.339407 
L 128.506329 308.18212 
L 130.389873 308.824682 
L 134.156962 309.318117 
L 136.040506 311.327554 
L 137.924051 315.552233 
L 139.807595 323.339528 
L 141.691139 332.568562 
L 143.574684 337.582185 
L 145.458228 337.456938 
L 147.341772 334.511703 
L 149.225316 331.232522 
L 151.108861 328.69367 
L 152.992405 327.299436 
L 154.875949 328.312924 
L 156.759494 330.341799 
L 158.643038 331.810698 
L 160.526582 332.935879 
L 162.410127 333.828922 
L 164.293671 334.539841 
L 166.177215 334.994754 
L 168.060759 334.779335 
L 169.944304 334.306923 
L 173.711392 333.910569 
L 175.594937 333.666903 
L 177.478481 333.8467 
L 179.362025 334.523193 
L 181.24557 335.934178 
L 185.012658 340.297589 
L 186.896203 341.987899 
L 188.779747 342.856624 
L 196.313924 344.114839 
L 198.197468 344.029744 
L 201.964557 342.625428 
L 203.848101 342.268432 
L 209.498734 341.810928 
L 211.382278 341.790976 
L 213.265823 342.279315 
L 215.149367 343.095098 
L 217.032911 343.623268 
L 218.916456 343.962284 
L 224.567089 345.258448 
L 226.450633 345.434075 
L 241.518987 345.36724 
L 243.402532 345.266419 
L 249.053165 344.361049 
L 250.936709 344.234891 
L 256.587342 342.842249 
L 260.35443 342.701966 
L 262.237975 342.646829 
L 264.121519 342.826263 
L 267.888608 343.675645 
L 275.422785 344.854957 
L 279.189873 344.680396 
L 286.724051 345.051676 
L 290.491139 345.415701 
L 292.374684 345.559752 
L 296.141772 346.002492 
L 298.025316 345.961239 
L 299.908861 345.59667 
L 301.792405 344.931831 
L 303.675949 344.502216 
L 309.326582 344.069011 
L 311.210127 344.516798 
L 313.093671 345.587451 
L 316.860759 348.835911 
L 318.744304 349.920598 
L 320.627848 350.482842 
L 324.394937 350.942443 
L 331.929114 352.918321 
L 339.463291 355.21263 
L 341.346835 355.964518 
L 343.23038 356.570402 
L 345.113924 356.749278 
L 346.997468 356.726757 
L 346.997468 356.726757 
" style="fill:none;stroke:#1f77b4;stroke-linecap:square;stroke-width:1.5;"/>
   </g>
   <g id="line2d_66">
    <path clip-path="url(#p776d828305)" d="M 85.18481 276.569165 
L 87.068354 276.216373 
L 88.951899 275.16007 
L 90.835443 274.857505 
L 92.718987 273.114932 
L 94.602532 270.256187 
L 96.486076 270.571837 
L 98.36962 269.789232 
L 100.253165 272.265496 
L 102.136709 280.840861 
L 104.020253 287.388232 
L 105.903797 290.615962 
L 107.787342 293.091164 
L 109.670886 295.330841 
L 111.55443 297.063838 
L 113.437975 291.134919 
L 115.321519 278.024565 
L 117.205063 271.39003 
L 119.088608 275.053027 
L 120.972152 282.436939 
L 122.855696 286.840247 
L 124.739241 288.421359 
L 126.622785 289.433436 
L 128.506329 290.075287 
L 130.389873 290.429235 
L 132.273418 290.204195 
L 134.156962 290.330041 
L 136.040506 292.954593 
L 137.924051 298.433171 
L 139.807595 308.265311 
L 141.691139 319.871737 
L 143.574684 326.372036 
L 145.458228 326.108746 
L 149.225316 317.325712 
L 151.108861 314.203243 
L 152.992405 312.300611 
L 154.875949 312.702527 
L 156.759494 314.795926 
L 158.643038 317.220831 
L 160.526582 319.317955 
L 162.410127 320.806723 
L 164.293671 321.809689 
L 166.177215 322.592106 
L 168.060759 323.15454 
L 169.944304 323.527368 
L 171.827848 324.055407 
L 175.594937 325.502906 
L 177.478481 326.129926 
L 179.362025 327.19748 
L 181.24557 329.046483 
L 183.129114 331.452142 
L 185.012658 333.564442 
L 186.896203 334.960446 
L 188.779747 335.678095 
L 190.663291 336.097458 
L 192.546835 336.721034 
L 196.313924 338.507607 
L 198.197468 339.16698 
L 200.081013 339.518308 
L 203.848101 339.581975 
L 207.61519 339.598061 
L 211.382278 339.590935 
L 213.265823 339.549206 
L 217.032911 339.804602 
L 220.8 340.451377 
L 226.450633 341.951723 
L 228.334177 342.233637 
L 232.101266 342.49565 
L 233.98481 342.452698 
L 235.868354 342.16057 
L 239.635443 341.310774 
L 241.518987 341.043999 
L 243.402532 340.97757 
L 247.16962 341.172861 
L 252.820253 341.729026 
L 262.237975 341.682813 
L 267.888608 342.095664 
L 273.539241 341.72645 
L 277.306329 341.80594 
L 281.073418 341.734934 
L 282.956962 341.973548 
L 284.840506 342.489565 
L 286.724051 343.134564 
L 292.374684 345.532799 
L 294.258228 346.078584 
L 296.141772 346.288168 
L 298.025316 346.220169 
L 299.908861 345.947088 
L 303.675949 344.905841 
L 305.559494 344.588221 
L 307.443038 344.469749 
L 309.326582 344.643873 
L 311.210127 345.190599 
L 313.093671 346.117367 
L 316.860759 348.696659 
L 318.744304 349.555936 
L 320.627848 349.855796 
L 322.511392 349.816071 
L 324.394937 349.964328 
L 330.04557 351.245047 
L 333.812658 352.411004 
L 335.696203 352.98703 
L 341.346835 355.0978 
L 343.23038 355.398623 
L 346.997468 355.080889 
L 346.997468 355.080889 
" style="fill:none;stroke:#ff7f0e;stroke-linecap:square;stroke-width:1.5;"/>
   </g>
   <g id="line2d_67">
    <path clip-path="url(#p776d828305)" d="M 85.18481 279.017671 
L 88.951899 279.024585 
L 90.835443 278.603676 
L 92.718987 275.328946 
L 94.602532 271.618655 
L 96.486076 271.798779 
L 98.36962 270.694816 
L 100.253165 272.026245 
L 102.136709 278.359964 
L 104.020253 282.618376 
L 105.903797 284.006044 
L 107.787342 284.738042 
L 109.670886 286.064699 
L 111.55443 287.615857 
L 113.437975 280.405294 
L 115.321519 264.5562 
L 117.205063 255.940637 
L 119.088608 259.192335 
L 120.972152 267.133268 
L 122.855696 271.711708 
L 126.622785 274.022383 
L 128.506329 275.121768 
L 130.389873 275.843048 
L 132.273418 275.916643 
L 134.156962 276.191226 
L 136.040506 279.253349 
L 137.924051 285.787189 
L 139.807595 297.463669 
L 141.691139 311.541215 
L 143.574684 319.822767 
L 145.458228 320.034829 
L 149.225316 311.154831 
L 151.108861 307.891873 
L 152.992405 305.967284 
L 154.875949 306.834755 
L 156.759494 309.878944 
L 158.643038 313.377317 
L 160.526582 316.376639 
L 162.410127 318.245754 
L 166.177215 320.525058 
L 168.060759 320.811426 
L 169.944304 320.012732 
L 171.827848 319.370025 
L 173.711392 319.319227 
L 175.594937 319.654922 
L 177.478481 320.218424 
L 179.362025 321.197267 
L 181.24557 323.470059 
L 183.129114 326.921929 
L 185.012658 329.991856 
L 186.896203 331.954669 
L 188.779747 332.973277 
L 190.663291 333.595387 
L 196.313924 335.937087 
L 198.197468 336.460266 
L 200.081013 336.699367 
L 205.731646 336.868251 
L 211.382278 337.764798 
L 217.032911 338.063053 
L 220.8 338.836406 
L 224.567089 339.561162 
L 228.334177 340.079387 
L 232.101266 340.220373 
L 233.98481 340.00831 
L 235.868354 339.510196 
L 239.635443 338.154382 
L 241.518987 337.686175 
L 245.286076 337.301021 
L 247.16962 337.337797 
L 249.053165 337.728913 
L 250.936709 338.335869 
L 252.820253 338.817125 
L 254.703797 338.968591 
L 258.470886 339.005505 
L 260.35443 339.09426 
L 266.005063 338.894411 
L 269.772152 338.96461 
L 273.539241 338.828436 
L 281.073418 339.327336 
L 282.956962 339.558579 
L 286.724051 340.525541 
L 290.491139 341.591848 
L 292.374684 341.945759 
L 294.258228 342.175556 
L 296.141772 342.248091 
L 299.908861 342.158129 
L 301.792405 342.228659 
L 307.443038 342.84524 
L 309.326582 343.176703 
L 311.210127 343.93848 
L 313.093671 345.105248 
L 316.860759 347.88268 
L 318.744304 348.788088 
L 320.627848 348.964583 
L 322.511392 348.654982 
L 324.394937 348.50264 
L 328.162025 348.936049 
L 330.04557 349.33187 
L 333.812658 350.745999 
L 335.696203 351.743994 
L 337.579747 352.913508 
L 339.463291 353.92576 
L 341.346835 354.65137 
L 343.23038 354.904123 
L 346.997468 354.571493 
L 346.997468 354.571493 
" style="fill:none;stroke:#2ca02c;stroke-linecap:square;stroke-width:1.5;"/>
   </g>
   <g id="line2d_68">
    <path clip-path="url(#p776d828305)" d="M 85.18481 296.022857 
L 87.068354 293.396326 
L 88.951899 288.733641 
L 90.835443 282.126299 
L 92.718987 272.562991 
L 94.602532 263.938588 
L 96.486076 260.228579 
L 98.36962 255.36582 
L 100.253165 254.101203 
L 102.136709 259.338215 
L 104.020253 262.223055 
L 105.903797 261.549473 
L 107.787342 260.033532 
L 109.670886 259.630296 
L 111.55443 259.656144 
L 113.437975 247.782012 
L 115.321519 224.613038 
L 117.205063 211.294276 
L 119.088608 214.440674 
L 120.972152 224.720713 
L 122.855696 230.619607 
L 124.739241 231.094394 
L 126.622785 230.592862 
L 128.506329 230.235126 
L 130.389873 230.020791 
L 132.273418 229.197184 
L 134.156962 229.286123 
L 136.040506 234.440109 
L 137.924051 245.60563 
L 139.807595 264.106971 
L 141.691139 285.026243 
L 143.574684 297.793643 
L 145.458228 300.143944 
L 147.341772 295.71404 
L 149.225316 289.94477 
L 151.108861 285.977032 
L 152.992405 284.442122 
L 154.875949 287.2984 
L 158.643038 298.015619 
L 160.526582 302.179366 
L 162.410127 304.872112 
L 164.293671 306.26473 
L 166.177215 306.983817 
L 168.060759 306.095246 
L 171.827848 300.339094 
L 173.711392 298.925045 
L 175.594937 298.518134 
L 177.478481 298.48816 
L 179.362025 299.09274 
L 181.24557 301.736854 
L 183.129114 306.379393 
L 185.012658 310.632307 
L 186.896203 313.275645 
L 188.779747 314.642338 
L 190.663291 315.604829 
L 194.43038 318.182817 
L 196.313924 319.203587 
L 198.197468 319.87609 
L 200.081013 320.208979 
L 201.964557 320.297157 
L 207.61519 320.068821 
L 218.916456 319.013019 
L 220.8 318.969554 
L 222.683544 319.072267 
L 224.567089 319.431941 
L 228.334177 320.469171 
L 230.217722 320.785085 
L 232.101266 320.90493 
L 233.98481 320.675895 
L 235.868354 319.962904 
L 237.751899 318.638408 
L 239.635443 317.06568 
L 241.518987 315.845232 
L 243.402532 315.111298 
L 245.286076 314.651529 
L 247.16962 314.396287 
L 249.053165 314.561657 
L 252.820253 315.932626 
L 254.703797 316.282455 
L 258.470886 316.465738 
L 260.35443 316.650919 
L 262.237975 316.66027 
L 269.772152 316.085069 
L 273.539241 315.321893 
L 275.422785 315.167746 
L 281.073418 315.133426 
L 282.956962 315.413784 
L 284.840506 316.133656 
L 286.724051 317.124857 
L 290.491139 319.324107 
L 292.374684 320.143151 
L 294.258228 320.732316 
L 301.792405 322.311204 
L 307.443038 324.2717 
L 309.326582 325.000264 
L 311.210127 326.329339 
L 313.093671 328.237585 
L 316.860759 332.518744 
L 318.744304 333.956875 
L 320.627848 334.226324 
L 322.511392 333.693024 
L 324.394937 333.446544 
L 328.162025 333.828207 
L 330.04557 334.296942 
L 331.929114 335.282291 
L 333.812658 336.611905 
L 335.696203 338.406458 
L 337.579747 340.359579 
L 339.463291 342.037321 
L 341.346835 343.391076 
L 343.23038 344.117448 
L 345.113924 344.098381 
L 346.997468 343.914207 
L 346.997468 343.914207 
" style="fill:none;stroke:#d62728;stroke-linecap:square;stroke-width:1.5;"/>
   </g>
   <g id="line2d_69">
    <path clip-path="url(#p776d828305)" d="M 85.18481 333.43239 
L 87.068354 331.820671 
L 88.951899 328.470716 
L 90.835443 323.730286 
L 92.718987 317.197273 
L 94.602532 311.225087 
L 96.486076 308.481808 
L 98.36962 304.635998 
L 100.253165 302.651433 
L 102.136709 305.130543 
L 104.020253 306.029469 
L 105.903797 303.74873 
L 107.787342 300.169126 
L 109.670886 297.07725 
L 111.55443 294.486477 
L 113.437975 283.661425 
L 115.321519 264.506835 
L 117.205063 252.137382 
L 119.088608 252.659011 
L 120.972152 260.021861 
L 122.855696 264.567821 
L 124.739241 263.901576 
L 126.622785 260.702177 
L 128.506329 256.880799 
L 130.389873 253.968793 
L 132.273418 251.653776 
L 134.156962 251.049516 
L 136.040506 255.294198 
L 137.924051 264.697593 
L 139.807595 280.302071 
L 141.691139 298.537582 
L 143.574684 311.15237 
L 145.458228 316.333154 
L 147.341772 316.112113 
L 149.225316 314.048093 
L 151.108861 313.758223 
L 152.992405 317.321808 
L 154.875949 324.970383 
L 156.759494 333.531357 
L 158.643038 340.038691 
L 160.526582 343.638551 
L 162.410127 344.388901 
L 164.293671 343.425802 
L 166.177215 341.671698 
L 168.060759 339.013835 
L 171.827848 331.842315 
L 173.711392 328.904854 
L 177.478481 324.71376 
L 179.362025 322.603418 
L 181.24557 321.166549 
L 185.012658 319.894664 
L 188.779747 317.638362 
L 190.663291 316.708303 
L 192.546835 315.606487 
L 194.43038 314.335972 
L 200.081013 310.130515 
L 201.964557 309.133527 
L 203.848101 307.888419 
L 205.731646 305.805352 
L 207.61519 303.124772 
L 211.382278 296.75553 
L 213.265823 293.997182 
L 215.149367 292.05291 
L 217.032911 290.860597 
L 220.8 289.429813 
L 222.683544 288.841267 
L 224.567089 288.592066 
L 226.450633 288.688561 
L 228.334177 289.204618 
L 232.101266 290.71872 
L 233.98481 291.178376 
L 235.868354 291.397971 
L 243.402532 290.243104 
L 245.286076 289.804424 
L 247.16962 289.172397 
L 249.053165 288.859836 
L 252.820253 289.003988 
L 254.703797 288.904905 
L 256.587342 288.376431 
L 258.470886 287.464887 
L 262.237975 286.127301 
L 264.121519 285.677178 
L 269.772152 284.733969 
L 271.655696 284.728243 
L 273.539241 284.847126 
L 275.422785 285.143541 
L 279.189873 286.072021 
L 281.073418 286.229286 
L 282.956962 286.650333 
L 284.840506 287.684212 
L 286.724051 289.062607 
L 294.258228 295.442412 
L 296.141772 297.240669 
L 298.025316 299.459456 
L 301.792405 304.719914 
L 305.559494 309.438455 
L 307.443038 311.456246 
L 313.093671 316.084983 
L 314.977215 317.667604 
L 316.860759 319.048146 
L 318.744304 319.91901 
L 320.627848 320.227224 
L 322.511392 320.251349 
L 324.394937 320.440411 
L 330.04557 321.692566 
L 333.812658 324.225328 
L 337.579747 326.517619 
L 341.346835 328.39744 
L 343.23038 329.139528 
L 345.113924 329.515787 
L 346.997468 329.742515 
L 346.997468 329.742515 
" style="fill:none;stroke:#9467bd;stroke-linecap:square;stroke-width:1.5;"/>
   </g>
   <g id="line2d_70">
    <path clip-path="url(#p776d828305)" d="M 85.18481 371.594278 
L 87.068354 370.064771 
L 88.951899 366.878283 
L 92.718987 359.563809 
L 94.602532 356.375217 
L 98.36962 352.73834 
L 100.253165 352.117634 
L 102.136709 354.034593 
L 104.020253 355.763284 
L 105.903797 355.729162 
L 107.787342 354.147744 
L 109.670886 350.850503 
L 111.55443 347.228238 
L 113.437975 340.914497 
L 115.321519 331.13097 
L 117.205063 324.479422 
L 119.088608 324.181814 
L 120.972152 327.381375 
L 122.855696 329.095919 
L 124.739241 325.114014 
L 126.622785 314.263039 
L 128.506329 299.952039 
L 130.389873 288.591299 
L 132.273418 280.804478 
L 134.156962 276.748422 
L 136.040506 278.480953 
L 137.924051 285.672881 
L 141.691139 308.824526 
L 143.574684 315.395382 
L 145.458228 315.824108 
L 147.341772 310.947087 
L 149.225316 304.333152 
L 151.108861 299.777818 
L 152.992405 299.823093 
L 154.875949 305.246145 
L 156.759494 311.398431 
L 160.526582 320.541573 
L 162.410127 323.848805 
L 164.293671 325.530967 
L 166.177215 325.910666 
L 168.060759 324.891397 
L 169.944304 322.649387 
L 171.827848 319.490084 
L 173.711392 316.830298 
L 175.594937 315.135501 
L 177.478481 313.72761 
L 179.362025 312.525877 
L 181.24557 312.03046 
L 183.129114 312.283955 
L 185.012658 313.170725 
L 186.896203 313.47369 
L 188.779747 312.998076 
L 192.546835 311.743463 
L 194.43038 310.886156 
L 196.313924 309.603543 
L 200.081013 306.504403 
L 201.964557 305.117801 
L 203.848101 303.479934 
L 205.731646 301.225221 
L 207.61519 298.596256 
L 209.498734 295.44451 
L 211.382278 292.01756 
L 213.265823 288.876762 
L 215.149367 286.465385 
L 217.032911 284.988502 
L 222.683544 282.39921 
L 224.567089 281.473086 
L 226.450633 280.874651 
L 228.334177 280.954449 
L 230.217722 281.488206 
L 232.101266 281.89994 
L 235.868354 282.469325 
L 237.751899 282.296797 
L 241.518987 281.585412 
L 243.402532 280.88469 
L 245.286076 279.741317 
L 247.16962 278.340412 
L 249.053165 277.221013 
L 256.587342 274.15626 
L 258.470886 272.732391 
L 260.35443 271.500929 
L 262.237975 270.409853 
L 264.121519 269.643961 
L 267.888608 268.653625 
L 269.772152 268.176372 
L 273.539241 267.770063 
L 275.422785 267.573121 
L 277.306329 267.609096 
L 279.189873 267.386203 
L 282.956962 265.556263 
L 284.840506 265.206388 
L 286.724051 265.5947 
L 288.607595 266.82355 
L 290.491139 268.716732 
L 292.374684 271.024876 
L 294.258228 273.893814 
L 296.141772 277.630076 
L 299.908861 286.692138 
L 301.792405 290.55401 
L 303.675949 293.467116 
L 305.559494 296.02067 
L 307.443038 298.250249 
L 309.326582 299.89546 
L 313.093671 302.557959 
L 314.977215 304.0539 
L 316.860759 305.399486 
L 318.744304 306.099454 
L 320.627848 306.093079 
L 324.394937 305.342049 
L 328.162025 305.445816 
L 330.04557 305.970466 
L 331.929114 307.415589 
L 337.579747 313.028595 
L 339.463291 314.564205 
L 341.346835 315.872235 
L 343.23038 316.781022 
L 345.113924 317.249677 
L 346.997468 317.525955 
L 346.997468 317.525955 
" style="fill:none;stroke:#8c564b;stroke-linecap:square;stroke-width:1.5;"/>
   </g>
   <g id="line2d_71">
    <path clip-path="url(#p776d828305)" d="M 85.18481 374.844751 
L 87.068354 374.065804 
L 88.951899 372.938562 
L 90.835443 371.510224 
L 92.718987 369.915368 
L 94.602532 368.651259 
L 96.486076 368.13387 
L 98.36962 367.335311 
L 100.253165 366.841382 
L 102.136709 367.78916 
L 104.020253 369.00199 
L 105.903797 369.393477 
L 107.787342 369.226031 
L 109.670886 368.886149 
L 111.55443 368.860165 
L 113.437975 367.879498 
L 115.321519 365.265381 
L 117.205063 363.599874 
L 119.088608 364.085642 
L 120.972152 365.401033 
L 122.855696 365.805055 
L 124.739241 364.702915 
L 126.622785 362.564024 
L 128.506329 360.196823 
L 130.389873 358.454871 
L 132.273418 357.287532 
L 134.156962 356.557796 
L 136.040506 357.01628 
L 137.924051 358.814553 
L 141.691139 364.941777 
L 143.574684 366.075891 
L 145.458228 365.214765 
L 151.108861 360.413918 
L 152.992405 359.512539 
L 154.875949 359.467371 
L 156.759494 360.076755 
L 158.643038 361.064855 
L 160.526582 361.926145 
L 162.410127 362.339801 
L 164.293671 362.581517 
L 166.177215 362.583561 
L 168.060759 361.869772 
L 169.944304 360.343857 
L 171.827848 358.143101 
L 173.711392 356.141541 
L 175.594937 354.821175 
L 179.362025 352.833872 
L 181.24557 352.445422 
L 183.129114 352.614034 
L 185.012658 353.032582 
L 186.896203 353.139847 
L 188.779747 352.712637 
L 190.663291 351.993599 
L 194.43038 350.226797 
L 200.081013 347.309823 
L 203.848101 346.138049 
L 205.731646 345.213051 
L 207.61519 343.939986 
L 213.265823 338.849726 
L 215.149367 337.55511 
L 217.032911 336.425153 
L 218.916456 335.073907 
L 220.8 333.219699 
L 226.450633 326.382517 
L 228.334177 324.837854 
L 230.217722 323.660188 
L 232.101266 322.061035 
L 235.868354 317.963993 
L 239.635443 313.015267 
L 241.518987 310.920189 
L 243.402532 308.456522 
L 245.286076 304.835082 
L 247.16962 300.153924 
L 252.820253 285.171838 
L 256.587342 275.993551 
L 258.470886 270.216428 
L 262.237975 257.657483 
L 267.888608 238.818126 
L 269.772152 232.66597 
L 271.655696 227.516063 
L 273.539241 223.192404 
L 275.422785 219.790849 
L 279.189873 214.979722 
L 281.073418 212.209513 
L 282.956962 210.886907 
L 284.840506 210.753864 
L 286.724051 209.681828 
L 288.607595 208.242148 
L 290.491139 207.606614 
L 292.374684 208.199868 
L 294.258228 210.110109 
L 296.141772 212.822136 
L 298.025316 216.011263 
L 299.908861 219.973377 
L 301.792405 223.310857 
L 303.675949 225.5307 
L 307.443038 230.562128 
L 309.326582 232.191632 
L 311.210127 233.463392 
L 313.093671 235.804312 
L 316.860759 242.737794 
L 318.744304 244.66987 
L 320.627848 245.388227 
L 324.394937 245.954425 
L 328.162025 246.884761 
L 330.04557 248.333768 
L 331.929114 251.399735 
L 337.579747 262.522637 
L 339.463291 266.256367 
L 341.346835 270.348512 
L 343.23038 273.997718 
L 345.113924 276.554005 
L 346.997468 278.104839 
L 346.997468 278.104839 
" style="fill:none;stroke:#e377c2;stroke-linecap:square;stroke-width:1.5;"/>
   </g>
   <g id="line2d_72">
    <path clip-path="url(#p776d828305)" d="M 85.18481 377.113848 
L 87.068354 376.44503 
L 88.951899 375.5233 
L 92.718987 372.961309 
L 94.602532 371.997102 
L 98.36962 371.218051 
L 100.253165 371.266232 
L 102.136709 372.127454 
L 104.020253 373.114991 
L 105.903797 373.743994 
L 107.787342 373.86792 
L 109.670886 373.796451 
L 111.55443 373.95973 
L 113.437975 373.315725 
L 115.321519 371.66409 
L 117.205063 370.803835 
L 119.088608 371.166948 
L 120.972152 371.862307 
L 122.855696 371.793515 
L 124.739241 370.68458 
L 128.506329 367.067044 
L 130.389873 365.533127 
L 132.273418 364.325637 
L 134.156962 363.989502 
L 136.040506 364.894718 
L 137.924051 366.556678 
L 141.691139 370.973468 
L 143.574684 372.041586 
L 145.458228 371.855694 
L 149.225316 369.634198 
L 151.108861 368.975928 
L 152.992405 368.633423 
L 154.875949 368.889845 
L 156.759494 369.628064 
L 158.643038 370.526524 
L 160.526582 371.189163 
L 162.410127 371.202653 
L 166.177215 370.684433 
L 168.060759 369.853284 
L 169.944304 368.305408 
L 171.827848 366.51922 
L 173.711392 365.069815 
L 175.594937 364.128316 
L 179.362025 362.631058 
L 181.24557 362.331898 
L 185.012658 362.652399 
L 186.896203 362.586713 
L 188.779747 362.164644 
L 200.081013 358.8449 
L 203.848101 358.106335 
L 205.731646 357.313964 
L 207.61519 356.284046 
L 211.382278 353.56483 
L 213.265823 352.249276 
L 215.149367 351.198932 
L 218.916456 349.256558 
L 220.8 347.957714 
L 226.450633 343.469232 
L 228.334177 342.453139 
L 230.217722 341.6346 
L 232.101266 340.485978 
L 233.98481 339.004567 
L 235.868354 337.368901 
L 239.635443 333.195797 
L 241.518987 331.356105 
L 243.402532 329.042283 
L 245.286076 325.510217 
L 249.053165 316.153415 
L 252.820253 306.90698 
L 256.587342 298.419469 
L 258.470886 293.223653 
L 260.35443 287.339161 
L 266.005063 266.993586 
L 269.772152 255.276821 
L 271.655696 250.302409 
L 273.539241 246.251758 
L 275.422785 243.609827 
L 279.189873 240.848569 
L 282.956962 236.760907 
L 284.840506 234.395507 
L 286.724051 230.509212 
L 288.607595 225.88693 
L 290.491139 221.788752 
L 292.374684 218.639245 
L 294.258228 216.963217 
L 296.141772 217.458864 
L 298.025316 219.871275 
L 299.908861 223.028513 
L 301.792405 225.084553 
L 303.675949 226.109207 
L 305.559494 227.972986 
L 307.443038 230.498686 
L 309.326582 232.095067 
L 311.210127 233.105485 
L 313.093671 235.665709 
L 314.977215 240.180308 
L 316.860759 244.392719 
L 318.744304 246.505063 
L 320.627848 246.770205 
L 322.511392 245.9595 
L 324.394937 244.60998 
L 326.278481 242.709138 
L 328.162025 240.325081 
L 330.04557 239.02336 
L 331.929114 240.139022 
L 333.812658 242.835599 
L 335.696203 245.853062 
L 337.579747 248.602183 
L 339.463291 251.571058 
L 343.23038 258.929147 
L 345.113924 261.340629 
L 346.997468 262.520802 
L 346.997468 262.520802 
" style="fill:none;stroke:#7f7f7f;stroke-linecap:square;stroke-width:1.5;"/>
   </g>
   <g id="line2d_73">
    <path clip-path="url(#p776d828305)" d="M 85.18481 382.249318 
L 87.068354 382.130975 
L 88.951899 381.655908 
L 90.835443 380.990509 
L 94.602532 380.292201 
L 98.36962 379.303388 
L 100.253165 379.08791 
L 105.903797 379.623507 
L 107.787342 380.174809 
L 109.670886 380.97314 
L 111.55443 381.137946 
L 115.321519 379.415806 
L 117.205063 379.039485 
L 120.972152 378.965851 
L 124.739241 378.894831 
L 126.622785 378.566012 
L 128.506329 377.904054 
L 130.389873 377.400809 
L 136.040506 376.937831 
L 137.924051 377.430127 
L 141.691139 379.377547 
L 143.574684 379.89422 
L 145.458228 379.697559 
L 147.341772 379.174458 
L 149.225316 378.440269 
L 151.108861 377.947778 
L 154.875949 377.628955 
L 156.759494 377.678342 
L 158.643038 378.087343 
L 162.410127 378.619893 
L 164.293671 378.625411 
L 168.060759 378.308377 
L 169.944304 377.670168 
L 171.827848 376.616408 
L 173.711392 375.879273 
L 177.478481 375.111184 
L 179.362025 374.801905 
L 181.24557 374.668504 
L 185.012658 374.866145 
L 186.896203 374.757743 
L 190.663291 373.996765 
L 198.197468 372.415047 
L 201.964557 371.978496 
L 203.848101 371.807823 
L 207.61519 371.123477 
L 211.382278 370.019859 
L 217.032911 368.070496 
L 218.916456 367.314163 
L 220.8 366.411985 
L 226.450633 363.332319 
L 228.334177 362.724888 
L 230.217722 362.235059 
L 232.101266 361.496465 
L 235.868354 359.458268 
L 241.518987 355.459557 
L 243.402532 353.359535 
L 245.286076 348.839768 
L 247.16962 341.417145 
L 249.053165 333.032465 
L 250.936709 325.65706 
L 252.820253 319.56376 
L 254.703797 314.527371 
L 256.587342 310.596006 
L 258.470886 308.572902 
L 260.35443 308.616269 
L 262.237975 308.521522 
L 264.121519 306.62155 
L 266.005063 303.118568 
L 267.888608 298.707826 
L 269.772152 293.307035 
L 271.655696 286.711257 
L 273.539241 279.560142 
L 275.422785 273.037508 
L 277.306329 267.377119 
L 279.189873 261.240826 
L 281.073418 253.983945 
L 286.724051 230.695718 
L 288.607595 225.110749 
L 290.491139 222.510597 
L 292.374684 219.329814 
L 294.258228 215.725769 
L 296.141772 214.90563 
L 298.025316 215.528188 
L 299.908861 214.598987 
L 301.792405 209.677107 
L 303.675949 201.540589 
L 305.559494 195.640666 
L 307.443038 192.629702 
L 309.326582 189.989983 
L 311.210127 187.863787 
L 313.093671 188.233815 
L 316.860759 193.914561 
L 318.744304 196.156147 
L 320.627848 198.042674 
L 322.511392 198.026297 
L 324.394937 195.249142 
L 328.162025 187.309463 
L 330.04557 185.18899 
L 331.929114 186.353222 
L 333.812658 190.033453 
L 337.579747 199.001312 
L 339.463291 202.723541 
L 341.346835 206.1258 
L 343.23038 208.95283 
L 345.113924 211.339367 
L 346.997468 213.279082 
L 346.997468 213.279082 
" style="fill:none;stroke:#bcbd22;stroke-linecap:square;stroke-width:1.5;"/>
   </g>
   <g id="line2d_74">
    <path clip-path="url(#p776d828305)" d="M 324.394937 100.681612 
L 326.278481 90.324428 
L 328.162025 76.59201 
L 330.04557 64.666052 
L 331.929114 58.70787 
L 333.812658 58.536944 
L 335.696203 61.228321 
L 337.579747 62.786 
L 339.463291 62.069214 
L 341.346835 60.364271 
L 343.23038 57.981337 
L 345.113924 56.477277 
L 346.997468 56.978444 
" style="fill:none;stroke:#17becf;stroke-linecap:square;stroke-width:1.5;"/>
   </g>
   <g id="patch_3">
    <path d="M 72 384.48 
L 72 51.84 
" style="fill:none;stroke:#000000;stroke-linecap:square;stroke-linejoin:miter;stroke-width:0.8;"/>
   </g>
   <g id="patch_4">
    <path d="M 518.4 384.48 
L 518.4 51.84 
" style="fill:none;stroke:#000000;stroke-linecap:square;stroke-linejoin:miter;stroke-width:0.8;"/>
   </g>
   <g id="patch_5">
    <path d="M 72 384.48 
L 518.4 384.48 
" style="fill:none;stroke:#000000;stroke-linecap:square;stroke-linejoin:miter;stroke-width:0.8;"/>
   </g>
   <g id="patch_6">
    <path d="M 72 51.84 
L 518.4 51.84 
" style="fill:none;stroke:#000000;stroke-linecap:square;stroke-linejoin:miter;stroke-width:0.8;"/>
   </g>
   <g id="text_35">
    <!-- First dose weekly increase by age group -->
    <g transform="translate(174.602812 45.84)scale(0.12 -0.12)">
     <defs>
      <path d="M 628 4666 
L 3309 4666 
L 3309 4134 
L 1259 4134 
L 1259 2759 
L 3109 2759 
L 3109 2228 
L 1259 2228 
L 1259 0 
L 628 0 
L 628 4666 
z
" id="DejaVuSans-46" transform="scale(0.015625)"/>
      <path d="M 2834 3397 
L 2834 2853 
Q 2591 2978 2328 3040 
Q 2066 3103 1784 3103 
Q 1356 3103 1142 2972 
Q 928 2841 928 2578 
Q 928 2378 1081 2264 
Q 1234 2150 1697 2047 
L 1894 2003 
Q 2506 1872 2764 1633 
Q 3022 1394 3022 966 
Q 3022 478 2636 193 
Q 2250 -91 1575 -91 
Q 1294 -91 989 -36 
Q 684 19 347 128 
L 347 722 
Q 666 556 975 473 
Q 1284 391 1588 391 
Q 1994 391 2212 530 
Q 2431 669 2431 922 
Q 2431 1156 2273 1281 
Q 2116 1406 1581 1522 
L 1381 1569 
Q 847 1681 609 1914 
Q 372 2147 372 2553 
Q 372 3047 722 3315 
Q 1072 3584 1716 3584 
Q 2034 3584 2315 3537 
Q 2597 3491 2834 3397 
z
" id="DejaVuSans-73" transform="scale(0.015625)"/>
      <path d="M 2906 2969 
L 2906 4863 
L 3481 4863 
L 3481 0 
L 2906 0 
L 2906 525 
Q 2725 213 2448 61 
Q 2172 -91 1784 -91 
Q 1150 -91 751 415 
Q 353 922 353 1747 
Q 353 2572 751 3078 
Q 1150 3584 1784 3584 
Q 2172 3584 2448 3432 
Q 2725 3281 2906 2969 
z
M 947 1747 
Q 947 1113 1208 752 
Q 1469 391 1925 391 
Q 2381 391 2643 752 
Q 2906 1113 2906 1747 
Q 2906 2381 2643 2742 
Q 2381 3103 1925 3103 
Q 1469 3103 1208 2742 
Q 947 2381 947 1747 
z
" id="DejaVuSans-64" transform="scale(0.015625)"/>
      <path d="M 2059 -325 
Q 1816 -950 1584 -1140 
Q 1353 -1331 966 -1331 
L 506 -1331 
L 506 -850 
L 844 -850 
Q 1081 -850 1212 -737 
Q 1344 -625 1503 -206 
L 1606 56 
L 191 3500 
L 800 3500 
L 1894 763 
L 2988 3500 
L 3597 3500 
L 2059 -325 
z
" id="DejaVuSans-79" transform="scale(0.015625)"/>
      <path d="M 3116 1747 
Q 3116 2381 2855 2742 
Q 2594 3103 2138 3103 
Q 1681 3103 1420 2742 
Q 1159 2381 1159 1747 
Q 1159 1113 1420 752 
Q 1681 391 2138 391 
Q 2594 391 2855 752 
Q 3116 1113 3116 1747 
z
M 1159 2969 
Q 1341 3281 1617 3432 
Q 1894 3584 2278 3584 
Q 2916 3584 3314 3078 
Q 3713 2572 3713 1747 
Q 3713 922 3314 415 
Q 2916 -91 2278 -91 
Q 1894 -91 1617 61 
Q 1341 213 1159 525 
L 1159 0 
L 581 0 
L 581 4863 
L 1159 4863 
L 1159 2969 
z
" id="DejaVuSans-62" transform="scale(0.015625)"/>
     </defs>
     <use xlink:href="#DejaVuSans-46"/>
     <use x="50.269531" xlink:href="#DejaVuSans-69"/>
     <use x="78.052734" xlink:href="#DejaVuSans-72"/>
     <use x="119.166016" xlink:href="#DejaVuSans-73"/>
     <use x="171.265625" xlink:href="#DejaVuSans-74"/>
     <use x="210.474609" xlink:href="#DejaVuSans-20"/>
     <use x="242.261719" xlink:href="#DejaVuSans-64"/>
     <use x="305.738281" xlink:href="#DejaVuSans-6f"/>
     <use x="366.919922" xlink:href="#DejaVuSans-73"/>
     <use x="419.019531" xlink:href="#DejaVuSans-65"/>
     <use x="480.542969" xlink:href="#DejaVuSans-20"/>
     <use x="512.330078" xlink:href="#DejaVuSans-77"/>
     <use x="594.117188" xlink:href="#DejaVuSans-65"/>
     <use x="655.640625" xlink:href="#DejaVuSans-65"/>
     <use x="717.164062" xlink:href="#DejaVuSans-6b"/>
     <use x="775.074219" xlink:href="#DejaVuSans-6c"/>
     <use x="802.857422" xlink:href="#DejaVuSans-79"/>
     <use x="862.037109" xlink:href="#DejaVuSans-20"/>
     <use x="893.824219" xlink:href="#DejaVuSans-69"/>
     <use x="921.607422" xlink:href="#DejaVuSans-6e"/>
     <use x="984.986328" xlink:href="#DejaVuSans-63"/>
     <use x="1039.966797" xlink:href="#DejaVuSans-72"/>
     <use x="1078.830078" xlink:href="#DejaVuSans-65"/>
     <use x="1140.353516" xlink:href="#DejaVuSans-61"/>
     <use x="1201.632812" xlink:href="#DejaVuSans-73"/>
     <use x="1253.732422" xlink:href="#DejaVuSans-65"/>
     <use x="1315.255859" xlink:href="#DejaVuSans-20"/>
     <use x="1347.042969" xlink:href="#DejaVuSans-62"/>
     <use x="1410.519531" xlink:href="#DejaVuSans-79"/>
     <use x="1469.699219" xlink:href="#DejaVuSans-20"/>
     <use x="1501.486328" xlink:href="#DejaVuSans-61"/>
     <use x="1562.765625" xlink:href="#DejaVuSans-67"/>
     <use x="1626.242188" xlink:href="#DejaVuSans-65"/>
     <use x="1687.765625" xlink:href="#DejaVuSans-20"/>
     <use x="1719.552734" xlink:href="#DejaVuSans-67"/>
     <use x="1783.029297" xlink:href="#DejaVuSans-72"/>
     <use x="1821.892578" xlink:href="#DejaVuSans-6f"/>
     <use x="1883.074219" xlink:href="#DejaVuSans-75"/>
     <use x="1946.453125" xlink:href="#DejaVuSans-70"/>
    </g>
   </g>
   <g id="legend_1">
    <g id="patch_7">
     <path d="M 362.925 191.143125 
L 512.1 191.143125 
Q 513.9 191.143125 513.9 189.343125 
L 513.9 58.14 
Q 513.9 56.34 512.1 56.34 
L 362.925 56.34 
Q 361.125 56.34 361.125 58.14 
L 361.125 189.343125 
Q 361.125 191.143125 362.925 191.143125 
z
" style="fill:#ffffff;opacity:0.8;stroke:#cccccc;stroke-linejoin:miter;"/>
    </g>
    <g id="line2d_75">
     <path d="M 364.725 63.628594 
L 382.725 63.628594 
" style="fill:none;stroke:#1f77b4;stroke-linecap:square;stroke-width:1.5;"/>
    </g>
    <g id="line2d_76"/>
    <g id="text_36">
     <!-- Ages 90+ (1.3 %/week) -->
     <g transform="translate(389.925 66.778594)scale(0.09 -0.09)">
      <defs>
       <path d="M 2944 4013 
L 2944 2272 
L 4684 2272 
L 4684 1741 
L 2944 1741 
L 2944 0 
L 2419 0 
L 2419 1741 
L 678 1741 
L 678 2272 
L 2419 2272 
L 2419 4013 
L 2944 4013 
z
" id="DejaVuSans-2b" transform="scale(0.015625)"/>
       <path d="M 684 794 
L 1344 794 
L 1344 0 
L 684 0 
L 684 794 
z
" id="DejaVuSans-2e" transform="scale(0.015625)"/>
      </defs>
      <use xlink:href="#DejaVuSans-41"/>
      <use x="68.408203" xlink:href="#DejaVuSans-67"/>
      <use x="131.884766" xlink:href="#DejaVuSans-65"/>
      <use x="193.408203" xlink:href="#DejaVuSans-73"/>
      <use x="245.507812" xlink:href="#DejaVuSans-20"/>
      <use x="277.294922" xlink:href="#DejaVuSans-39"/>
      <use x="340.917969" xlink:href="#DejaVuSans-30"/>
      <use x="404.541016" xlink:href="#DejaVuSans-2b"/>
      <use x="488.330078" xlink:href="#DejaVuSans-20"/>
      <use x="520.117188" xlink:href="#DejaVuSans-28"/>
      <use x="559.130859" xlink:href="#DejaVuSans-31"/>
      <use x="622.753906" xlink:href="#DejaVuSans-2e"/>
      <use x="654.541016" xlink:href="#DejaVuSans-33"/>
      <use x="718.164062" xlink:href="#DejaVuSans-20"/>
      <use x="749.951172" xlink:href="#DejaVuSans-25"/>
      <use x="844.970703" xlink:href="#DejaVuSans-2f"/>
      <use x="878.662109" xlink:href="#DejaVuSans-77"/>
      <use x="960.449219" xlink:href="#DejaVuSans-65"/>
      <use x="1021.972656" xlink:href="#DejaVuSans-65"/>
      <use x="1083.496094" xlink:href="#DejaVuSans-6b"/>
      <use x="1141.40625" xlink:href="#DejaVuSans-29"/>
     </g>
    </g>
    <g id="line2d_77">
     <path d="M 364.725 76.838906 
L 382.725 76.838906 
" style="fill:none;stroke:#ff7f0e;stroke-linecap:square;stroke-width:1.5;"/>
    </g>
    <g id="line2d_78"/>
    <g id="text_37">
     <!-- Ages 8089 (1.3 %/week) -->
     <g transform="translate(389.925 79.988906)scale(0.09 -0.09)">
      <defs>
       <path d="M 313 1978 
L 2888 1978 
L 2888 1528 
L 313 1528 
L 313 1978 
z
" id="DejaVuSans-2013" transform="scale(0.015625)"/>
      </defs>
      <use xlink:href="#DejaVuSans-41"/>
      <use x="68.408203" xlink:href="#DejaVuSans-67"/>
      <use x="131.884766" xlink:href="#DejaVuSans-65"/>
      <use x="193.408203" xlink:href="#DejaVuSans-73"/>
      <use x="245.507812" xlink:href="#DejaVuSans-20"/>
      <use x="277.294922" xlink:href="#DejaVuSans-38"/>
      <use x="340.917969" xlink:href="#DejaVuSans-30"/>
      <use x="404.541016" xlink:href="#DejaVuSans-2013"/>
      <use x="454.541016" xlink:href="#DejaVuSans-38"/>
      <use x="518.164062" xlink:href="#DejaVuSans-39"/>
      <use x="581.787109" xlink:href="#DejaVuSans-20"/>
      <use x="613.574219" xlink:href="#DejaVuSans-28"/>
      <use x="652.587891" xlink:href="#DejaVuSans-31"/>
      <use x="716.210938" xlink:href="#DejaVuSans-2e"/>
      <use x="747.998047" xlink:href="#DejaVuSans-33"/>
      <use x="811.621094" xlink:href="#DejaVuSans-20"/>
      <use x="843.408203" xlink:href="#DejaVuSans-25"/>
      <use x="938.427734" xlink:href="#DejaVuSans-2f"/>
      <use x="972.119141" xlink:href="#DejaVuSans-77"/>
      <use x="1053.90625" xlink:href="#DejaVuSans-65"/>
      <use x="1115.429688" xlink:href="#DejaVuSans-65"/>
      <use x="1176.953125" xlink:href="#DejaVuSans-6b"/>
      <use x="1234.863281" xlink:href="#DejaVuSans-29"/>
     </g>
    </g>
    <g id="line2d_79">
     <path d="M 364.725 90.049219 
L 382.725 90.049219 
" style="fill:none;stroke:#2ca02c;stroke-linecap:square;stroke-width:1.5;"/>
    </g>
    <g id="line2d_80"/>
    <g id="text_38">
     <!-- Ages 7079 (1.3 %/week) -->
     <g transform="translate(389.925 93.199219)scale(0.09 -0.09)">
      <use xlink:href="#DejaVuSans-41"/>
      <use x="68.408203" xlink:href="#DejaVuSans-67"/>
      <use x="131.884766" xlink:href="#DejaVuSans-65"/>
      <use x="193.408203" xlink:href="#DejaVuSans-73"/>
      <use x="245.507812" xlink:href="#DejaVuSans-20"/>
      <use x="277.294922" xlink:href="#DejaVuSans-37"/>
      <use x="340.917969" xlink:href="#DejaVuSans-30"/>
      <use x="404.541016" xlink:href="#DejaVuSans-2013"/>
      <use x="454.541016" xlink:href="#DejaVuSans-37"/>
      <use x="518.164062" xlink:href="#DejaVuSans-39"/>
      <use x="581.787109" xlink:href="#DejaVuSans-20"/>
      <use x="613.574219" xlink:href="#DejaVuSans-28"/>
      <use x="652.587891" xlink:href="#DejaVuSans-31"/>
      <use x="716.210938" xlink:href="#DejaVuSans-2e"/>
      <use x="747.998047" xlink:href="#DejaVuSans-33"/>
      <use x="811.621094" xlink:href="#DejaVuSans-20"/>
      <use x="843.408203" xlink:href="#DejaVuSans-25"/>
      <use x="938.427734" xlink:href="#DejaVuSans-2f"/>
      <use x="972.119141" xlink:href="#DejaVuSans-77"/>
      <use x="1053.90625" xlink:href="#DejaVuSans-65"/>
      <use x="1115.429688" xlink:href="#DejaVuSans-65"/>
      <use x="1176.953125" xlink:href="#DejaVuSans-6b"/>
      <use x="1234.863281" xlink:href="#DejaVuSans-29"/>
     </g>
    </g>
    <g id="line2d_81">
     <path d="M 364.725 103.259531 
L 382.725 103.259531 
" style="fill:none;stroke:#d62728;stroke-linecap:square;stroke-width:1.5;"/>
    </g>
    <g id="line2d_82"/>
    <g id="text_39">
     <!-- Ages 6069 (1.8 %/week) -->
     <g transform="translate(389.925 106.409531)scale(0.09 -0.09)">
      <use xlink:href="#DejaVuSans-41"/>
      <use x="68.408203" xlink:href="#DejaVuSans-67"/>
      <use x="131.884766" xlink:href="#DejaVuSans-65"/>
      <use x="193.408203" xlink:href="#DejaVuSans-73"/>
      <use x="245.507812" xlink:href="#DejaVuSans-20"/>
      <use x="277.294922" xlink:href="#DejaVuSans-36"/>
      <use x="340.917969" xlink:href="#DejaVuSans-30"/>
      <use x="404.541016" xlink:href="#DejaVuSans-2013"/>
      <use x="454.541016" xlink:href="#DejaVuSans-36"/>
      <use x="518.164062" xlink:href="#DejaVuSans-39"/>
      <use x="581.787109" xlink:href="#DejaVuSans-20"/>
      <use x="613.574219" xlink:href="#DejaVuSans-28"/>
      <use x="652.587891" xlink:href="#DejaVuSans-31"/>
      <use x="716.210938" xlink:href="#DejaVuSans-2e"/>
      <use x="747.998047" xlink:href="#DejaVuSans-38"/>
      <use x="811.621094" xlink:href="#DejaVuSans-20"/>
      <use x="843.408203" xlink:href="#DejaVuSans-25"/>
      <use x="938.427734" xlink:href="#DejaVuSans-2f"/>
      <use x="972.119141" xlink:href="#DejaVuSans-77"/>
      <use x="1053.90625" xlink:href="#DejaVuSans-65"/>
      <use x="1115.429688" xlink:href="#DejaVuSans-65"/>
      <use x="1176.953125" xlink:href="#DejaVuSans-6b"/>
      <use x="1234.863281" xlink:href="#DejaVuSans-29"/>
     </g>
    </g>
    <g id="line2d_83">
     <path d="M 364.725 116.469844 
L 382.725 116.469844 
" style="fill:none;stroke:#9467bd;stroke-linecap:square;stroke-width:1.5;"/>
    </g>
    <g id="line2d_84"/>
    <g id="text_40">
     <!-- Ages 5059 (2.5 %/week) -->
     <g transform="translate(389.925 119.619844)scale(0.09 -0.09)">
      <use xlink:href="#DejaVuSans-41"/>
      <use x="68.408203" xlink:href="#DejaVuSans-67"/>
      <use x="131.884766" xlink:href="#DejaVuSans-65"/>
      <use x="193.408203" xlink:href="#DejaVuSans-73"/>
      <use x="245.507812" xlink:href="#DejaVuSans-20"/>
      <use x="277.294922" xlink:href="#DejaVuSans-35"/>
      <use x="340.917969" xlink:href="#DejaVuSans-30"/>
      <use x="404.541016" xlink:href="#DejaVuSans-2013"/>
      <use x="454.541016" xlink:href="#DejaVuSans-35"/>
      <use x="518.164062" xlink:href="#DejaVuSans-39"/>
      <use x="581.787109" xlink:href="#DejaVuSans-20"/>
      <use x="613.574219" xlink:href="#DejaVuSans-28"/>
      <use x="652.587891" xlink:href="#DejaVuSans-32"/>
      <use x="716.210938" xlink:href="#DejaVuSans-2e"/>
      <use x="747.998047" xlink:href="#DejaVuSans-35"/>
      <use x="811.621094" xlink:href="#DejaVuSans-20"/>
      <use x="843.408203" xlink:href="#DejaVuSans-25"/>
      <use x="938.427734" xlink:href="#DejaVuSans-2f"/>
      <use x="972.119141" xlink:href="#DejaVuSans-77"/>
      <use x="1053.90625" xlink:href="#DejaVuSans-65"/>
      <use x="1115.429688" xlink:href="#DejaVuSans-65"/>
      <use x="1176.953125" xlink:href="#DejaVuSans-6b"/>
      <use x="1234.863281" xlink:href="#DejaVuSans-29"/>
     </g>
    </g>
    <g id="line2d_85">
     <path d="M 364.725 129.680156 
L 382.725 129.680156 
" style="fill:none;stroke:#8c564b;stroke-linecap:square;stroke-width:1.5;"/>
    </g>
    <g id="line2d_86"/>
    <g id="text_41">
     <!-- Ages 4049 (3.0 %/week) -->
     <g transform="translate(389.925 132.830156)scale(0.09 -0.09)">
      <use xlink:href="#DejaVuSans-41"/>
      <use x="68.408203" xlink:href="#DejaVuSans-67"/>
      <use x="131.884766" xlink:href="#DejaVuSans-65"/>
      <use x="193.408203" xlink:href="#DejaVuSans-73"/>
      <use x="245.507812" xlink:href="#DejaVuSans-20"/>
      <use x="277.294922" xlink:href="#DejaVuSans-34"/>
      <use x="340.917969" xlink:href="#DejaVuSans-30"/>
      <use x="404.541016" xlink:href="#DejaVuSans-2013"/>
      <use x="454.541016" xlink:href="#DejaVuSans-34"/>
      <use x="518.164062" xlink:href="#DejaVuSans-39"/>
      <use x="581.787109" xlink:href="#DejaVuSans-20"/>
      <use x="613.574219" xlink:href="#DejaVuSans-28"/>
      <use x="652.587891" xlink:href="#DejaVuSans-33"/>
      <use x="716.210938" xlink:href="#DejaVuSans-2e"/>
      <use x="747.998047" xlink:href="#DejaVuSans-30"/>
      <use x="811.621094" xlink:href="#DejaVuSans-20"/>
      <use x="843.408203" xlink:href="#DejaVuSans-25"/>
      <use x="938.427734" xlink:href="#DejaVuSans-2f"/>
      <use x="972.119141" xlink:href="#DejaVuSans-77"/>
      <use x="1053.90625" xlink:href="#DejaVuSans-65"/>
      <use x="1115.429688" xlink:href="#DejaVuSans-65"/>
      <use x="1176.953125" xlink:href="#DejaVuSans-6b"/>
      <use x="1234.863281" xlink:href="#DejaVuSans-29"/>
     </g>
    </g>
    <g id="line2d_87">
     <path d="M 364.725 142.890469 
L 382.725 142.890469 
" style="fill:none;stroke:#e377c2;stroke-linecap:square;stroke-width:1.5;"/>
    </g>
    <g id="line2d_88"/>
    <g id="text_42">
     <!-- Ages 3039 (4.8 %/week) -->
     <g transform="translate(389.925 146.040469)scale(0.09 -0.09)">
      <use xlink:href="#DejaVuSans-41"/>
      <use x="68.408203" xlink:href="#DejaVuSans-67"/>
      <use x="131.884766" xlink:href="#DejaVuSans-65"/>
      <use x="193.408203" xlink:href="#DejaVuSans-73"/>
      <use x="245.507812" xlink:href="#DejaVuSans-20"/>
      <use x="277.294922" xlink:href="#DejaVuSans-33"/>
      <use x="340.917969" xlink:href="#DejaVuSans-30"/>
      <use x="404.541016" xlink:href="#DejaVuSans-2013"/>
      <use x="454.541016" xlink:href="#DejaVuSans-33"/>
      <use x="518.164062" xlink:href="#DejaVuSans-39"/>
      <use x="581.787109" xlink:href="#DejaVuSans-20"/>
      <use x="613.574219" xlink:href="#DejaVuSans-28"/>
      <use x="652.587891" xlink:href="#DejaVuSans-34"/>
      <use x="716.210938" xlink:href="#DejaVuSans-2e"/>
      <use x="747.998047" xlink:href="#DejaVuSans-38"/>
      <use x="811.621094" xlink:href="#DejaVuSans-20"/>
      <use x="843.408203" xlink:href="#DejaVuSans-25"/>
      <use x="938.427734" xlink:href="#DejaVuSans-2f"/>
      <use x="972.119141" xlink:href="#DejaVuSans-77"/>
      <use x="1053.90625" xlink:href="#DejaVuSans-65"/>
      <use x="1115.429688" xlink:href="#DejaVuSans-65"/>
      <use x="1176.953125" xlink:href="#DejaVuSans-6b"/>
      <use x="1234.863281" xlink:href="#DejaVuSans-29"/>
     </g>
    </g>
    <g id="line2d_89">
     <path d="M 364.725 156.100781 
L 382.725 156.100781 
" style="fill:none;stroke:#7f7f7f;stroke-linecap:square;stroke-width:1.5;"/>
    </g>
    <g id="line2d_90"/>
    <g id="text_43">
     <!-- Ages 2029 (5.5 %/week) -->
     <g transform="translate(389.925 159.250781)scale(0.09 -0.09)">
      <use xlink:href="#DejaVuSans-41"/>
      <use x="68.408203" xlink:href="#DejaVuSans-67"/>
      <use x="131.884766" xlink:href="#DejaVuSans-65"/>
      <use x="193.408203" xlink:href="#DejaVuSans-73"/>
      <use x="245.507812" xlink:href="#DejaVuSans-20"/>
      <use x="277.294922" xlink:href="#DejaVuSans-32"/>
      <use x="340.917969" xlink:href="#DejaVuSans-30"/>
      <use x="404.541016" xlink:href="#DejaVuSans-2013"/>
      <use x="454.541016" xlink:href="#DejaVuSans-32"/>
      <use x="518.164062" xlink:href="#DejaVuSans-39"/>
      <use x="581.787109" xlink:href="#DejaVuSans-20"/>
      <use x="613.574219" xlink:href="#DejaVuSans-28"/>
      <use x="652.587891" xlink:href="#DejaVuSans-35"/>
      <use x="716.210938" xlink:href="#DejaVuSans-2e"/>
      <use x="747.998047" xlink:href="#DejaVuSans-35"/>
      <use x="811.621094" xlink:href="#DejaVuSans-20"/>
      <use x="843.408203" xlink:href="#DejaVuSans-25"/>
      <use x="938.427734" xlink:href="#DejaVuSans-2f"/>
      <use x="972.119141" xlink:href="#DejaVuSans-77"/>
      <use x="1053.90625" xlink:href="#DejaVuSans-65"/>
      <use x="1115.429688" xlink:href="#DejaVuSans-65"/>
      <use x="1176.953125" xlink:href="#DejaVuSans-6b"/>
      <use x="1234.863281" xlink:href="#DejaVuSans-29"/>
     </g>
    </g>
    <g id="line2d_91">
     <path d="M 364.725 169.311094 
L 382.725 169.311094 
" style="fill:none;stroke:#bcbd22;stroke-linecap:square;stroke-width:1.5;"/>
    </g>
    <g id="line2d_92"/>
    <g id="text_44">
     <!-- Ages 1619 (7.7 %/week) -->
     <g transform="translate(389.925 172.461094)scale(0.09 -0.09)">
      <use xlink:href="#DejaVuSans-41"/>
      <use x="68.408203" xlink:href="#DejaVuSans-67"/>
      <use x="131.884766" xlink:href="#DejaVuSans-65"/>
      <use x="193.408203" xlink:href="#DejaVuSans-73"/>
      <use x="245.507812" xlink:href="#DejaVuSans-20"/>
      <use x="277.294922" xlink:href="#DejaVuSans-31"/>
      <use x="340.917969" xlink:href="#DejaVuSans-36"/>
      <use x="404.541016" xlink:href="#DejaVuSans-2013"/>
      <use x="454.541016" xlink:href="#DejaVuSans-31"/>
      <use x="518.164062" xlink:href="#DejaVuSans-39"/>
      <use x="581.787109" xlink:href="#DejaVuSans-20"/>
      <use x="613.574219" xlink:href="#DejaVuSans-28"/>
      <use x="652.587891" xlink:href="#DejaVuSans-37"/>
      <use x="716.210938" xlink:href="#DejaVuSans-2e"/>
      <use x="747.998047" xlink:href="#DejaVuSans-37"/>
      <use x="811.621094" xlink:href="#DejaVuSans-20"/>
      <use x="843.408203" xlink:href="#DejaVuSans-25"/>
      <use x="938.427734" xlink:href="#DejaVuSans-2f"/>
      <use x="972.119141" xlink:href="#DejaVuSans-77"/>
      <use x="1053.90625" xlink:href="#DejaVuSans-65"/>
      <use x="1115.429688" xlink:href="#DejaVuSans-65"/>
      <use x="1176.953125" xlink:href="#DejaVuSans-6b"/>
      <use x="1234.863281" xlink:href="#DejaVuSans-29"/>
     </g>
    </g>
    <g id="line2d_93">
     <path d="M 364.725 182.521406 
L 382.725 182.521406 
" style="fill:none;stroke:#17becf;stroke-linecap:square;stroke-width:1.5;"/>
    </g>
    <g id="line2d_94"/>
    <g id="text_45">
     <!-- Ages 1215 (14.8 %/week) -->
     <g transform="translate(389.925 185.671406)scale(0.09 -0.09)">
      <use xlink:href="#DejaVuSans-41"/>
      <use x="68.408203" xlink:href="#DejaVuSans-67"/>
      <use x="131.884766" xlink:href="#DejaVuSans-65"/>
      <use x="193.408203" xlink:href="#DejaVuSans-73"/>
      <use x="245.507812" xlink:href="#DejaVuSans-20"/>
      <use x="277.294922" xlink:href="#DejaVuSans-31"/>
      <use x="340.917969" xlink:href="#DejaVuSans-32"/>
      <use x="404.541016" xlink:href="#DejaVuSans-2013"/>
      <use x="454.541016" xlink:href="#DejaVuSans-31"/>
      <use x="518.164062" xlink:href="#DejaVuSans-35"/>
      <use x="581.787109" xlink:href="#DejaVuSans-20"/>
      <use x="613.574219" xlink:href="#DejaVuSans-28"/>
      <use x="652.587891" xlink:href="#DejaVuSans-31"/>
      <use x="716.210938" xlink:href="#DejaVuSans-34"/>
      <use x="779.833984" xlink:href="#DejaVuSans-2e"/>
      <use x="811.621094" xlink:href="#DejaVuSans-38"/>
      <use x="875.244141" xlink:href="#DejaVuSans-20"/>
      <use x="907.03125" xlink:href="#DejaVuSans-25"/>
      <use x="1002.050781" xlink:href="#DejaVuSans-2f"/>
      <use x="1035.742188" xlink:href="#DejaVuSans-77"/>
      <use x="1117.529297" xlink:href="#DejaVuSans-65"/>
      <use x="1179.052734" xlink:href="#DejaVuSans-65"/>
      <use x="1240.576172" xlink:href="#DejaVuSans-6b"/>
      <use x="1298.486328" xlink:href="#DejaVuSans-29"/>
     </g>
    </g>
   </g>
  </g>
 </g>
 <defs>
  <clipPath id="p776d828305">
   <rect height="332.64" width="446.4" x="72" y="51.84"/>
  </clipPath>
 </defs>
</svg>
