<?xml version="1.0" encoding="utf-8" standalone="no"?>
<!DOCTYPE svg PUBLIC "-//W3C//DTD SVG 1.1//EN"
  "http://www.w3.org/Graphics/SVG/1.1/DTD/svg11.dtd">
<svg height="432pt" version="1.1" viewBox="0 0 576 432" width="576pt" xmlns="http://www.w3.org/2000/svg" xmlns:xlink="http://www.w3.org/1999/xlink">
 <metadata>
  <rdf:RDF xmlns:cc="http://creativecommons.org/ns#" xmlns:dc="http://purl.org/dc/elements/1.1/" xmlns:rdf="http://www.w3.org/1999/02/22-rdf-syntax-ns#">
   <cc:Work>
    <dc:type rdf:resource="http://purl.org/dc/dcmitype/StillImage"/>
    <dc:date>2021-12-10T15:31:12.464031</dc:date>
    <dc:format>image/svg+xml</dc:format>
    <dc:creator>
     <cc:Agent>
      <dc:title>Matplotlib v3.4.3, https://matplotlib.org/</dc:title>
     </cc:Agent>
    </dc:creator>
   </cc:Work>
  </rdf:RDF>
 </metadata>
 <defs>
  <style type="text/css">*{stroke-linecap:butt;stroke-linejoin:round;}</style>
 </defs>
 <g id="figure_1">
  <g id="patch_1">
   <path d="M 0 432 
L 576 432 
L 576 0 
L 0 0 
z
" style="fill:#ffffff;"/>
  </g>
  <g id="axes_1">
   <g id="patch_2">
    <path d="M 72 384.48 
L 518.4 384.48 
L 518.4 51.84 
L 72 51.84 
z
" style="fill:#ffffff;"/>
   </g>
   <g id="matplotlib.axis_1">
    <g id="xtick_1">
     <g id="line2d_1">
      <path clip-path="url(#paf58f2ea45)" d="M 72 384.48 
L 72 51.84 
" style="fill:none;stroke:#000000;stroke-dasharray:0.8,1.32;stroke-dashoffset:0;stroke-opacity:0.5;stroke-width:0.8;"/>
     </g>
     <g id="line2d_2">
      <defs>
       <path d="M 0 0 
L 0 3.5 
" id="mf6a8a00937" style="stroke:#000000;stroke-width:0.8;"/>
      </defs>
      <g>
       <use style="stroke:#000000;stroke-width:0.8;" x="72" xlink:href="#mf6a8a00937" y="384.48"/>
      </g>
     </g>
     <g id="text_1">
      <!-- 15 -->
      <g transform="translate(65.6375 399.078438)scale(0.1 -0.1)">
       <defs>
        <path d="M 794 531 
L 1825 531 
L 1825 4091 
L 703 3866 
L 703 4441 
L 1819 4666 
L 2450 4666 
L 2450 531 
L 3481 531 
L 3481 0 
L 794 0 
L 794 531 
z
" id="DejaVuSans-31" transform="scale(0.015625)"/>
        <path d="M 691 4666 
L 3169 4666 
L 3169 4134 
L 1269 4134 
L 1269 2991 
Q 1406 3038 1543 3061 
Q 1681 3084 1819 3084 
Q 2600 3084 3056 2656 
Q 3513 2228 3513 1497 
Q 3513 744 3044 326 
Q 2575 -91 1722 -91 
Q 1428 -91 1123 -41 
Q 819 9 494 109 
L 494 744 
Q 775 591 1075 516 
Q 1375 441 1709 441 
Q 2250 441 2565 725 
Q 2881 1009 2881 1497 
Q 2881 1984 2565 2268 
Q 2250 2553 1709 2553 
Q 1456 2553 1204 2497 
Q 953 2441 691 2322 
L 691 4666 
z
" id="DejaVuSans-35" transform="scale(0.015625)"/>
       </defs>
       <use xlink:href="#DejaVuSans-31"/>
       <use x="63.623047" xlink:href="#DejaVuSans-35"/>
      </g>
     </g>
    </g>
    <g id="xtick_2">
     <g id="line2d_3">
      <path clip-path="url(#paf58f2ea45)" d="M 109.755224 384.48 
L 109.755224 51.84 
" style="fill:none;stroke:#000000;stroke-dasharray:0.8,1.32;stroke-dashoffset:0;stroke-opacity:0.5;stroke-width:0.8;"/>
     </g>
     <g id="line2d_4">
      <g>
       <use style="stroke:#000000;stroke-width:0.8;" x="109.755224" xlink:href="#mf6a8a00937" y="384.48"/>
      </g>
     </g>
     <g id="text_2">
      <!-- Aug -->
      <g transform="translate(99.991943 399.078438)scale(0.1 -0.1)">
       <defs>
        <path d="M 2188 4044 
L 1331 1722 
L 3047 1722 
L 2188 4044 
z
M 1831 4666 
L 2547 4666 
L 4325 0 
L 3669 0 
L 3244 1197 
L 1141 1197 
L 716 0 
L 50 0 
L 1831 4666 
z
" id="DejaVuSans-41" transform="scale(0.015625)"/>
        <path d="M 544 1381 
L 544 3500 
L 1119 3500 
L 1119 1403 
Q 1119 906 1312 657 
Q 1506 409 1894 409 
Q 2359 409 2629 706 
Q 2900 1003 2900 1516 
L 2900 3500 
L 3475 3500 
L 3475 0 
L 2900 0 
L 2900 538 
Q 2691 219 2414 64 
Q 2138 -91 1772 -91 
Q 1169 -91 856 284 
Q 544 659 544 1381 
z
M 1991 3584 
L 1991 3584 
z
" id="DejaVuSans-75" transform="scale(0.015625)"/>
        <path d="M 2906 1791 
Q 2906 2416 2648 2759 
Q 2391 3103 1925 3103 
Q 1463 3103 1205 2759 
Q 947 2416 947 1791 
Q 947 1169 1205 825 
Q 1463 481 1925 481 
Q 2391 481 2648 825 
Q 2906 1169 2906 1791 
z
M 3481 434 
Q 3481 -459 3084 -895 
Q 2688 -1331 1869 -1331 
Q 1566 -1331 1297 -1286 
Q 1028 -1241 775 -1147 
L 775 -588 
Q 1028 -725 1275 -790 
Q 1522 -856 1778 -856 
Q 2344 -856 2625 -561 
Q 2906 -266 2906 331 
L 2906 616 
Q 2728 306 2450 153 
Q 2172 0 1784 0 
Q 1141 0 747 490 
Q 353 981 353 1791 
Q 353 2603 747 3093 
Q 1141 3584 1784 3584 
Q 2172 3584 2450 3431 
Q 2728 3278 2906 2969 
L 2906 3500 
L 3481 3500 
L 3481 434 
z
" id="DejaVuSans-67" transform="scale(0.015625)"/>
       </defs>
       <use xlink:href="#DejaVuSans-41"/>
       <use x="68.408203" xlink:href="#DejaVuSans-75"/>
       <use x="131.787109" xlink:href="#DejaVuSans-67"/>
      </g>
     </g>
    </g>
    <g id="xtick_3">
     <g id="line2d_5">
      <path clip-path="url(#paf58f2ea45)" d="M 140.847761 384.48 
L 140.847761 51.84 
" style="fill:none;stroke:#000000;stroke-dasharray:0.8,1.32;stroke-dashoffset:0;stroke-opacity:0.5;stroke-width:0.8;"/>
     </g>
     <g id="line2d_6">
      <g>
       <use style="stroke:#000000;stroke-width:0.8;" x="140.847761" xlink:href="#mf6a8a00937" y="384.48"/>
      </g>
     </g>
     <g id="text_3">
      <!-- 15 -->
      <g transform="translate(134.485261 399.078438)scale(0.1 -0.1)">
       <use xlink:href="#DejaVuSans-31"/>
       <use x="63.623047" xlink:href="#DejaVuSans-35"/>
      </g>
     </g>
    </g>
    <g id="xtick_4">
     <g id="line2d_7">
      <path clip-path="url(#paf58f2ea45)" d="M 178.602985 384.48 
L 178.602985 51.84 
" style="fill:none;stroke:#000000;stroke-dasharray:0.8,1.32;stroke-dashoffset:0;stroke-opacity:0.5;stroke-width:0.8;"/>
     </g>
     <g id="line2d_8">
      <g>
       <use style="stroke:#000000;stroke-width:0.8;" x="178.602985" xlink:href="#mf6a8a00937" y="384.48"/>
      </g>
     </g>
     <g id="text_4">
      <!-- Sep -->
      <g transform="translate(169.177985 399.078438)scale(0.1 -0.1)">
       <defs>
        <path d="M 3425 4513 
L 3425 3897 
Q 3066 4069 2747 4153 
Q 2428 4238 2131 4238 
Q 1616 4238 1336 4038 
Q 1056 3838 1056 3469 
Q 1056 3159 1242 3001 
Q 1428 2844 1947 2747 
L 2328 2669 
Q 3034 2534 3370 2195 
Q 3706 1856 3706 1288 
Q 3706 609 3251 259 
Q 2797 -91 1919 -91 
Q 1588 -91 1214 -16 
Q 841 59 441 206 
L 441 856 
Q 825 641 1194 531 
Q 1563 422 1919 422 
Q 2459 422 2753 634 
Q 3047 847 3047 1241 
Q 3047 1584 2836 1778 
Q 2625 1972 2144 2069 
L 1759 2144 
Q 1053 2284 737 2584 
Q 422 2884 422 3419 
Q 422 4038 858 4394 
Q 1294 4750 2059 4750 
Q 2388 4750 2728 4690 
Q 3069 4631 3425 4513 
z
" id="DejaVuSans-53" transform="scale(0.015625)"/>
        <path d="M 3597 1894 
L 3597 1613 
L 953 1613 
Q 991 1019 1311 708 
Q 1631 397 2203 397 
Q 2534 397 2845 478 
Q 3156 559 3463 722 
L 3463 178 
Q 3153 47 2828 -22 
Q 2503 -91 2169 -91 
Q 1331 -91 842 396 
Q 353 884 353 1716 
Q 353 2575 817 3079 
Q 1281 3584 2069 3584 
Q 2775 3584 3186 3129 
Q 3597 2675 3597 1894 
z
M 3022 2063 
Q 3016 2534 2758 2815 
Q 2500 3097 2075 3097 
Q 1594 3097 1305 2825 
Q 1016 2553 972 2059 
L 3022 2063 
z
" id="DejaVuSans-65" transform="scale(0.015625)"/>
        <path d="M 1159 525 
L 1159 -1331 
L 581 -1331 
L 581 3500 
L 1159 3500 
L 1159 2969 
Q 1341 3281 1617 3432 
Q 1894 3584 2278 3584 
Q 2916 3584 3314 3078 
Q 3713 2572 3713 1747 
Q 3713 922 3314 415 
Q 2916 -91 2278 -91 
Q 1894 -91 1617 61 
Q 1341 213 1159 525 
z
M 3116 1747 
Q 3116 2381 2855 2742 
Q 2594 3103 2138 3103 
Q 1681 3103 1420 2742 
Q 1159 2381 1159 1747 
Q 1159 1113 1420 752 
Q 1681 391 2138 391 
Q 2594 391 2855 752 
Q 3116 1113 3116 1747 
z
" id="DejaVuSans-70" transform="scale(0.015625)"/>
       </defs>
       <use xlink:href="#DejaVuSans-53"/>
       <use x="63.476562" xlink:href="#DejaVuSans-65"/>
       <use x="125" xlink:href="#DejaVuSans-70"/>
      </g>
     </g>
    </g>
    <g id="xtick_5">
     <g id="line2d_9">
      <path clip-path="url(#paf58f2ea45)" d="M 209.695522 384.48 
L 209.695522 51.84 
" style="fill:none;stroke:#000000;stroke-dasharray:0.8,1.32;stroke-dashoffset:0;stroke-opacity:0.5;stroke-width:0.8;"/>
     </g>
     <g id="line2d_10">
      <g>
       <use style="stroke:#000000;stroke-width:0.8;" x="209.695522" xlink:href="#mf6a8a00937" y="384.48"/>
      </g>
     </g>
     <g id="text_5">
      <!-- 15 -->
      <g transform="translate(203.333022 399.078438)scale(0.1 -0.1)">
       <use xlink:href="#DejaVuSans-31"/>
       <use x="63.623047" xlink:href="#DejaVuSans-35"/>
      </g>
     </g>
    </g>
    <g id="xtick_6">
     <g id="line2d_11">
      <path clip-path="url(#paf58f2ea45)" d="M 245.229851 384.48 
L 245.229851 51.84 
" style="fill:none;stroke:#000000;stroke-dasharray:0.8,1.32;stroke-dashoffset:0;stroke-opacity:0.5;stroke-width:0.8;"/>
     </g>
     <g id="line2d_12">
      <g>
       <use style="stroke:#000000;stroke-width:0.8;" x="245.229851" xlink:href="#mf6a8a00937" y="384.48"/>
      </g>
     </g>
     <g id="text_6">
      <!-- Oct -->
      <g transform="translate(236.584538 399.078438)scale(0.1 -0.1)">
       <defs>
        <path d="M 2522 4238 
Q 1834 4238 1429 3725 
Q 1025 3213 1025 2328 
Q 1025 1447 1429 934 
Q 1834 422 2522 422 
Q 3209 422 3611 934 
Q 4013 1447 4013 2328 
Q 4013 3213 3611 3725 
Q 3209 4238 2522 4238 
z
M 2522 4750 
Q 3503 4750 4090 4092 
Q 4678 3434 4678 2328 
Q 4678 1225 4090 567 
Q 3503 -91 2522 -91 
Q 1538 -91 948 565 
Q 359 1222 359 2328 
Q 359 3434 948 4092 
Q 1538 4750 2522 4750 
z
" id="DejaVuSans-4f" transform="scale(0.015625)"/>
        <path d="M 3122 3366 
L 3122 2828 
Q 2878 2963 2633 3030 
Q 2388 3097 2138 3097 
Q 1578 3097 1268 2742 
Q 959 2388 959 1747 
Q 959 1106 1268 751 
Q 1578 397 2138 397 
Q 2388 397 2633 464 
Q 2878 531 3122 666 
L 3122 134 
Q 2881 22 2623 -34 
Q 2366 -91 2075 -91 
Q 1284 -91 818 406 
Q 353 903 353 1747 
Q 353 2603 823 3093 
Q 1294 3584 2113 3584 
Q 2378 3584 2631 3529 
Q 2884 3475 3122 3366 
z
" id="DejaVuSans-63" transform="scale(0.015625)"/>
        <path d="M 1172 4494 
L 1172 3500 
L 2356 3500 
L 2356 3053 
L 1172 3053 
L 1172 1153 
Q 1172 725 1289 603 
Q 1406 481 1766 481 
L 2356 481 
L 2356 0 
L 1766 0 
Q 1100 0 847 248 
Q 594 497 594 1153 
L 594 3053 
L 172 3053 
L 172 3500 
L 594 3500 
L 594 4494 
L 1172 4494 
z
" id="DejaVuSans-74" transform="scale(0.015625)"/>
       </defs>
       <use xlink:href="#DejaVuSans-4f"/>
       <use x="78.710938" xlink:href="#DejaVuSans-63"/>
       <use x="133.691406" xlink:href="#DejaVuSans-74"/>
      </g>
     </g>
    </g>
    <g id="xtick_7">
     <g id="line2d_13">
      <path clip-path="url(#paf58f2ea45)" d="M 276.322388 384.48 
L 276.322388 51.84 
" style="fill:none;stroke:#000000;stroke-dasharray:0.8,1.32;stroke-dashoffset:0;stroke-opacity:0.5;stroke-width:0.8;"/>
     </g>
     <g id="line2d_14">
      <g>
       <use style="stroke:#000000;stroke-width:0.8;" x="276.322388" xlink:href="#mf6a8a00937" y="384.48"/>
      </g>
     </g>
     <g id="text_7">
      <!-- 15 -->
      <g transform="translate(269.959888 399.078438)scale(0.1 -0.1)">
       <use xlink:href="#DejaVuSans-31"/>
       <use x="63.623047" xlink:href="#DejaVuSans-35"/>
      </g>
     </g>
    </g>
    <g id="xtick_8">
     <g id="line2d_15">
      <path clip-path="url(#paf58f2ea45)" d="M 314.077612 384.48 
L 314.077612 51.84 
" style="fill:none;stroke:#000000;stroke-dasharray:0.8,1.32;stroke-dashoffset:0;stroke-opacity:0.5;stroke-width:0.8;"/>
     </g>
     <g id="line2d_16">
      <g>
       <use style="stroke:#000000;stroke-width:0.8;" x="314.077612" xlink:href="#mf6a8a00937" y="384.48"/>
      </g>
     </g>
     <g id="text_8">
      <!-- Nov -->
      <g transform="translate(304.318237 399.078438)scale(0.1 -0.1)">
       <defs>
        <path d="M 628 4666 
L 1478 4666 
L 3547 763 
L 3547 4666 
L 4159 4666 
L 4159 0 
L 3309 0 
L 1241 3903 
L 1241 0 
L 628 0 
L 628 4666 
z
" id="DejaVuSans-4e" transform="scale(0.015625)"/>
        <path d="M 1959 3097 
Q 1497 3097 1228 2736 
Q 959 2375 959 1747 
Q 959 1119 1226 758 
Q 1494 397 1959 397 
Q 2419 397 2687 759 
Q 2956 1122 2956 1747 
Q 2956 2369 2687 2733 
Q 2419 3097 1959 3097 
z
M 1959 3584 
Q 2709 3584 3137 3096 
Q 3566 2609 3566 1747 
Q 3566 888 3137 398 
Q 2709 -91 1959 -91 
Q 1206 -91 779 398 
Q 353 888 353 1747 
Q 353 2609 779 3096 
Q 1206 3584 1959 3584 
z
" id="DejaVuSans-6f" transform="scale(0.015625)"/>
        <path d="M 191 3500 
L 800 3500 
L 1894 563 
L 2988 3500 
L 3597 3500 
L 2284 0 
L 1503 0 
L 191 3500 
z
" id="DejaVuSans-76" transform="scale(0.015625)"/>
       </defs>
       <use xlink:href="#DejaVuSans-4e"/>
       <use x="74.804688" xlink:href="#DejaVuSans-6f"/>
       <use x="135.986328" xlink:href="#DejaVuSans-76"/>
      </g>
     </g>
    </g>
    <g id="xtick_9">
     <g id="line2d_17">
      <path clip-path="url(#paf58f2ea45)" d="M 345.170149 384.48 
L 345.170149 51.84 
" style="fill:none;stroke:#000000;stroke-dasharray:0.8,1.32;stroke-dashoffset:0;stroke-opacity:0.5;stroke-width:0.8;"/>
     </g>
     <g id="line2d_18">
      <g>
       <use style="stroke:#000000;stroke-width:0.8;" x="345.170149" xlink:href="#mf6a8a00937" y="384.48"/>
      </g>
     </g>
     <g id="text_9">
      <!-- 15 -->
      <g transform="translate(338.807649 399.078438)scale(0.1 -0.1)">
       <use xlink:href="#DejaVuSans-31"/>
       <use x="63.623047" xlink:href="#DejaVuSans-35"/>
      </g>
     </g>
    </g>
    <g id="xtick_10">
     <g id="line2d_19">
      <path clip-path="url(#paf58f2ea45)" d="M 380.704478 384.48 
L 380.704478 51.84 
" style="fill:none;stroke:#000000;stroke-dasharray:0.8,1.32;stroke-dashoffset:0;stroke-opacity:0.5;stroke-width:0.8;"/>
     </g>
     <g id="line2d_20">
      <g>
       <use style="stroke:#000000;stroke-width:0.8;" x="380.704478" xlink:href="#mf6a8a00937" y="384.48"/>
      </g>
     </g>
     <g id="text_10">
      <!-- Dec -->
      <g transform="translate(371.028696 399.078438)scale(0.1 -0.1)">
       <defs>
        <path d="M 1259 4147 
L 1259 519 
L 2022 519 
Q 2988 519 3436 956 
Q 3884 1394 3884 2338 
Q 3884 3275 3436 3711 
Q 2988 4147 2022 4147 
L 1259 4147 
z
M 628 4666 
L 1925 4666 
Q 3281 4666 3915 4102 
Q 4550 3538 4550 2338 
Q 4550 1131 3912 565 
Q 3275 0 1925 0 
L 628 0 
L 628 4666 
z
" id="DejaVuSans-44" transform="scale(0.015625)"/>
       </defs>
       <use xlink:href="#DejaVuSans-44"/>
       <use x="77.001953" xlink:href="#DejaVuSans-65"/>
       <use x="138.525391" xlink:href="#DejaVuSans-63"/>
      </g>
     </g>
    </g>
    <g id="xtick_11">
     <g id="line2d_21">
      <path clip-path="url(#paf58f2ea45)" d="M 411.797015 384.48 
L 411.797015 51.84 
" style="fill:none;stroke:#000000;stroke-dasharray:0.8,1.32;stroke-dashoffset:0;stroke-opacity:0.5;stroke-width:0.8;"/>
     </g>
     <g id="line2d_22">
      <g>
       <use style="stroke:#000000;stroke-width:0.8;" x="411.797015" xlink:href="#mf6a8a00937" y="384.48"/>
      </g>
     </g>
     <g id="text_11">
      <!-- 15 -->
      <g transform="translate(405.434515 399.078438)scale(0.1 -0.1)">
       <use xlink:href="#DejaVuSans-31"/>
       <use x="63.623047" xlink:href="#DejaVuSans-35"/>
      </g>
     </g>
    </g>
    <g id="xtick_12">
     <g id="line2d_23">
      <path clip-path="url(#paf58f2ea45)" d="M 449.552239 384.48 
L 449.552239 51.84 
" style="fill:none;stroke:#000000;stroke-dasharray:0.8,1.32;stroke-dashoffset:0;stroke-opacity:0.5;stroke-width:0.8;"/>
     </g>
     <g id="line2d_24">
      <g>
       <use style="stroke:#000000;stroke-width:0.8;" x="449.552239" xlink:href="#mf6a8a00937" y="384.48"/>
      </g>
     </g>
     <g id="text_12">
      <!-- Jan -->
      <g transform="translate(441.844426 399.078438)scale(0.1 -0.1)">
       <defs>
        <path d="M 628 4666 
L 1259 4666 
L 1259 325 
Q 1259 -519 939 -900 
Q 619 -1281 -91 -1281 
L -331 -1281 
L -331 -750 
L -134 -750 
Q 284 -750 456 -515 
Q 628 -281 628 325 
L 628 4666 
z
" id="DejaVuSans-4a" transform="scale(0.015625)"/>
        <path d="M 2194 1759 
Q 1497 1759 1228 1600 
Q 959 1441 959 1056 
Q 959 750 1161 570 
Q 1363 391 1709 391 
Q 2188 391 2477 730 
Q 2766 1069 2766 1631 
L 2766 1759 
L 2194 1759 
z
M 3341 1997 
L 3341 0 
L 2766 0 
L 2766 531 
Q 2569 213 2275 61 
Q 1981 -91 1556 -91 
Q 1019 -91 701 211 
Q 384 513 384 1019 
Q 384 1609 779 1909 
Q 1175 2209 1959 2209 
L 2766 2209 
L 2766 2266 
Q 2766 2663 2505 2880 
Q 2244 3097 1772 3097 
Q 1472 3097 1187 3025 
Q 903 2953 641 2809 
L 641 3341 
Q 956 3463 1253 3523 
Q 1550 3584 1831 3584 
Q 2591 3584 2966 3190 
Q 3341 2797 3341 1997 
z
" id="DejaVuSans-61" transform="scale(0.015625)"/>
        <path d="M 3513 2113 
L 3513 0 
L 2938 0 
L 2938 2094 
Q 2938 2591 2744 2837 
Q 2550 3084 2163 3084 
Q 1697 3084 1428 2787 
Q 1159 2491 1159 1978 
L 1159 0 
L 581 0 
L 581 3500 
L 1159 3500 
L 1159 2956 
Q 1366 3272 1645 3428 
Q 1925 3584 2291 3584 
Q 2894 3584 3203 3211 
Q 3513 2838 3513 2113 
z
" id="DejaVuSans-6e" transform="scale(0.015625)"/>
       </defs>
       <use xlink:href="#DejaVuSans-4a"/>
       <use x="29.492188" xlink:href="#DejaVuSans-61"/>
       <use x="90.771484" xlink:href="#DejaVuSans-6e"/>
      </g>
     </g>
    </g>
    <g id="xtick_13">
     <g id="line2d_25">
      <path clip-path="url(#paf58f2ea45)" d="M 480.644776 384.48 
L 480.644776 51.84 
" style="fill:none;stroke:#000000;stroke-dasharray:0.8,1.32;stroke-dashoffset:0;stroke-opacity:0.5;stroke-width:0.8;"/>
     </g>
     <g id="line2d_26">
      <g>
       <use style="stroke:#000000;stroke-width:0.8;" x="480.644776" xlink:href="#mf6a8a00937" y="384.48"/>
      </g>
     </g>
     <g id="text_13">
      <!-- 15 -->
      <g transform="translate(474.282276 399.078438)scale(0.1 -0.1)">
       <use xlink:href="#DejaVuSans-31"/>
       <use x="63.623047" xlink:href="#DejaVuSans-35"/>
      </g>
     </g>
    </g>
    <g id="xtick_14">
     <g id="line2d_27">
      <path clip-path="url(#paf58f2ea45)" d="M 518.4 384.48 
L 518.4 51.84 
" style="fill:none;stroke:#000000;stroke-dasharray:0.8,1.32;stroke-dashoffset:0;stroke-opacity:0.5;stroke-width:0.8;"/>
     </g>
     <g id="line2d_28">
      <g>
       <use style="stroke:#000000;stroke-width:0.8;" x="518.4" xlink:href="#mf6a8a00937" y="384.48"/>
      </g>
     </g>
     <g id="text_14">
      <!-- Feb -->
      <g transform="translate(509.548437 399.078438)scale(0.1 -0.1)">
       <defs>
        <path d="M 628 4666 
L 3309 4666 
L 3309 4134 
L 1259 4134 
L 1259 2759 
L 3109 2759 
L 3109 2228 
L 1259 2228 
L 1259 0 
L 628 0 
L 628 4666 
z
" id="DejaVuSans-46" transform="scale(0.015625)"/>
        <path d="M 3116 1747 
Q 3116 2381 2855 2742 
Q 2594 3103 2138 3103 
Q 1681 3103 1420 2742 
Q 1159 2381 1159 1747 
Q 1159 1113 1420 752 
Q 1681 391 2138 391 
Q 2594 391 2855 752 
Q 3116 1113 3116 1747 
z
M 1159 2969 
Q 1341 3281 1617 3432 
Q 1894 3584 2278 3584 
Q 2916 3584 3314 3078 
Q 3713 2572 3713 1747 
Q 3713 922 3314 415 
Q 2916 -91 2278 -91 
Q 1894 -91 1617 61 
Q 1341 213 1159 525 
L 1159 0 
L 581 0 
L 581 4863 
L 1159 4863 
L 1159 2969 
z
" id="DejaVuSans-62" transform="scale(0.015625)"/>
       </defs>
       <use xlink:href="#DejaVuSans-46"/>
       <use x="52.019531" xlink:href="#DejaVuSans-65"/>
       <use x="113.542969" xlink:href="#DejaVuSans-62"/>
      </g>
     </g>
    </g>
    <g id="text_15">
     <!-- 2022-Feb -->
     <g transform="translate(471.639062 411.756563)scale(0.1 -0.1)">
      <defs>
       <path d="M 1228 531 
L 3431 531 
L 3431 0 
L 469 0 
L 469 531 
Q 828 903 1448 1529 
Q 2069 2156 2228 2338 
Q 2531 2678 2651 2914 
Q 2772 3150 2772 3378 
Q 2772 3750 2511 3984 
Q 2250 4219 1831 4219 
Q 1534 4219 1204 4116 
Q 875 4013 500 3803 
L 500 4441 
Q 881 4594 1212 4672 
Q 1544 4750 1819 4750 
Q 2544 4750 2975 4387 
Q 3406 4025 3406 3419 
Q 3406 3131 3298 2873 
Q 3191 2616 2906 2266 
Q 2828 2175 2409 1742 
Q 1991 1309 1228 531 
z
" id="DejaVuSans-32" transform="scale(0.015625)"/>
       <path d="M 2034 4250 
Q 1547 4250 1301 3770 
Q 1056 3291 1056 2328 
Q 1056 1369 1301 889 
Q 1547 409 2034 409 
Q 2525 409 2770 889 
Q 3016 1369 3016 2328 
Q 3016 3291 2770 3770 
Q 2525 4250 2034 4250 
z
M 2034 4750 
Q 2819 4750 3233 4129 
Q 3647 3509 3647 2328 
Q 3647 1150 3233 529 
Q 2819 -91 2034 -91 
Q 1250 -91 836 529 
Q 422 1150 422 2328 
Q 422 3509 836 4129 
Q 1250 4750 2034 4750 
z
" id="DejaVuSans-30" transform="scale(0.015625)"/>
       <path d="M 313 2009 
L 1997 2009 
L 1997 1497 
L 313 1497 
L 313 2009 
z
" id="DejaVuSans-2d" transform="scale(0.015625)"/>
      </defs>
      <use xlink:href="#DejaVuSans-32"/>
      <use x="63.623047" xlink:href="#DejaVuSans-30"/>
      <use x="127.246094" xlink:href="#DejaVuSans-32"/>
      <use x="190.869141" xlink:href="#DejaVuSans-32"/>
      <use x="254.492188" xlink:href="#DejaVuSans-2d"/>
      <use x="290.576172" xlink:href="#DejaVuSans-46"/>
      <use x="342.595703" xlink:href="#DejaVuSans-65"/>
      <use x="404.119141" xlink:href="#DejaVuSans-62"/>
     </g>
    </g>
   </g>
   <g id="matplotlib.axis_2">
    <g id="ytick_1">
     <g id="line2d_29">
      <path clip-path="url(#paf58f2ea45)" d="M 72 384.48 
L 518.4 384.48 
" style="fill:none;stroke:#000000;stroke-dasharray:0.8,1.32;stroke-dashoffset:0;stroke-opacity:0.5;stroke-width:0.8;"/>
     </g>
     <g id="line2d_30">
      <defs>
       <path d="M 0 0 
L -3.5 0 
" id="m9edad40cc0" style="stroke:#000000;stroke-width:0.8;"/>
      </defs>
      <g>
       <use style="stroke:#000000;stroke-width:0.8;" x="72" xlink:href="#m9edad40cc0" y="384.48"/>
      </g>
     </g>
     <g id="text_16">
      <!-- 0 -->
      <g transform="translate(58.6375 388.279219)scale(0.1 -0.1)">
       <use xlink:href="#DejaVuSans-30"/>
      </g>
     </g>
    </g>
    <g id="ytick_2">
     <g id="line2d_31">
      <path clip-path="url(#paf58f2ea45)" d="M 72 351.216 
L 518.4 351.216 
" style="fill:none;stroke:#000000;stroke-dasharray:0.8,1.32;stroke-dashoffset:0;stroke-opacity:0.5;stroke-width:0.8;"/>
     </g>
     <g id="line2d_32">
      <g>
       <use style="stroke:#000000;stroke-width:0.8;" x="72" xlink:href="#m9edad40cc0" y="351.216"/>
      </g>
     </g>
     <g id="text_17">
      <!-- 10 -->
      <g transform="translate(52.275 355.015219)scale(0.1 -0.1)">
       <use xlink:href="#DejaVuSans-31"/>
       <use x="63.623047" xlink:href="#DejaVuSans-30"/>
      </g>
     </g>
    </g>
    <g id="ytick_3">
     <g id="line2d_33">
      <path clip-path="url(#paf58f2ea45)" d="M 72 317.952 
L 518.4 317.952 
" style="fill:none;stroke:#000000;stroke-dasharray:0.8,1.32;stroke-dashoffset:0;stroke-opacity:0.5;stroke-width:0.8;"/>
     </g>
     <g id="line2d_34">
      <g>
       <use style="stroke:#000000;stroke-width:0.8;" x="72" xlink:href="#m9edad40cc0" y="317.952"/>
      </g>
     </g>
     <g id="text_18">
      <!-- 20 -->
      <g transform="translate(52.275 321.751219)scale(0.1 -0.1)">
       <use xlink:href="#DejaVuSans-32"/>
       <use x="63.623047" xlink:href="#DejaVuSans-30"/>
      </g>
     </g>
    </g>
    <g id="ytick_4">
     <g id="line2d_35">
      <path clip-path="url(#paf58f2ea45)" d="M 72 284.688 
L 518.4 284.688 
" style="fill:none;stroke:#000000;stroke-dasharray:0.8,1.32;stroke-dashoffset:0;stroke-opacity:0.5;stroke-width:0.8;"/>
     </g>
     <g id="line2d_36">
      <g>
       <use style="stroke:#000000;stroke-width:0.8;" x="72" xlink:href="#m9edad40cc0" y="284.688"/>
      </g>
     </g>
     <g id="text_19">
      <!-- 30 -->
      <g transform="translate(52.275 288.487219)scale(0.1 -0.1)">
       <defs>
        <path d="M 2597 2516 
Q 3050 2419 3304 2112 
Q 3559 1806 3559 1356 
Q 3559 666 3084 287 
Q 2609 -91 1734 -91 
Q 1441 -91 1130 -33 
Q 819 25 488 141 
L 488 750 
Q 750 597 1062 519 
Q 1375 441 1716 441 
Q 2309 441 2620 675 
Q 2931 909 2931 1356 
Q 2931 1769 2642 2001 
Q 2353 2234 1838 2234 
L 1294 2234 
L 1294 2753 
L 1863 2753 
Q 2328 2753 2575 2939 
Q 2822 3125 2822 3475 
Q 2822 3834 2567 4026 
Q 2313 4219 1838 4219 
Q 1578 4219 1281 4162 
Q 984 4106 628 3988 
L 628 4550 
Q 988 4650 1302 4700 
Q 1616 4750 1894 4750 
Q 2613 4750 3031 4423 
Q 3450 4097 3450 3541 
Q 3450 3153 3228 2886 
Q 3006 2619 2597 2516 
z
" id="DejaVuSans-33" transform="scale(0.015625)"/>
       </defs>
       <use xlink:href="#DejaVuSans-33"/>
       <use x="63.623047" xlink:href="#DejaVuSans-30"/>
      </g>
     </g>
    </g>
    <g id="ytick_5">
     <g id="line2d_37">
      <path clip-path="url(#paf58f2ea45)" d="M 72 251.424 
L 518.4 251.424 
" style="fill:none;stroke:#000000;stroke-dasharray:0.8,1.32;stroke-dashoffset:0;stroke-opacity:0.5;stroke-width:0.8;"/>
     </g>
     <g id="line2d_38">
      <g>
       <use style="stroke:#000000;stroke-width:0.8;" x="72" xlink:href="#m9edad40cc0" y="251.424"/>
      </g>
     </g>
     <g id="text_20">
      <!-- 40 -->
      <g transform="translate(52.275 255.223219)scale(0.1 -0.1)">
       <defs>
        <path d="M 2419 4116 
L 825 1625 
L 2419 1625 
L 2419 4116 
z
M 2253 4666 
L 3047 4666 
L 3047 1625 
L 3713 1625 
L 3713 1100 
L 3047 1100 
L 3047 0 
L 2419 0 
L 2419 1100 
L 313 1100 
L 313 1709 
L 2253 4666 
z
" id="DejaVuSans-34" transform="scale(0.015625)"/>
       </defs>
       <use xlink:href="#DejaVuSans-34"/>
       <use x="63.623047" xlink:href="#DejaVuSans-30"/>
      </g>
     </g>
    </g>
    <g id="ytick_6">
     <g id="line2d_39">
      <path clip-path="url(#paf58f2ea45)" d="M 72 218.16 
L 518.4 218.16 
" style="fill:none;stroke:#000000;stroke-dasharray:0.8,1.32;stroke-dashoffset:0;stroke-opacity:0.5;stroke-width:0.8;"/>
     </g>
     <g id="line2d_40">
      <g>
       <use style="stroke:#000000;stroke-width:0.8;" x="72" xlink:href="#m9edad40cc0" y="218.16"/>
      </g>
     </g>
     <g id="text_21">
      <!-- 50 -->
      <g transform="translate(52.275 221.959219)scale(0.1 -0.1)">
       <use xlink:href="#DejaVuSans-35"/>
       <use x="63.623047" xlink:href="#DejaVuSans-30"/>
      </g>
     </g>
    </g>
    <g id="ytick_7">
     <g id="line2d_41">
      <path clip-path="url(#paf58f2ea45)" d="M 72 184.896 
L 518.4 184.896 
" style="fill:none;stroke:#000000;stroke-dasharray:0.8,1.32;stroke-dashoffset:0;stroke-opacity:0.5;stroke-width:0.8;"/>
     </g>
     <g id="line2d_42">
      <g>
       <use style="stroke:#000000;stroke-width:0.8;" x="72" xlink:href="#m9edad40cc0" y="184.896"/>
      </g>
     </g>
     <g id="text_22">
      <!-- 60 -->
      <g transform="translate(52.275 188.695219)scale(0.1 -0.1)">
       <defs>
        <path d="M 2113 2584 
Q 1688 2584 1439 2293 
Q 1191 2003 1191 1497 
Q 1191 994 1439 701 
Q 1688 409 2113 409 
Q 2538 409 2786 701 
Q 3034 994 3034 1497 
Q 3034 2003 2786 2293 
Q 2538 2584 2113 2584 
z
M 3366 4563 
L 3366 3988 
Q 3128 4100 2886 4159 
Q 2644 4219 2406 4219 
Q 1781 4219 1451 3797 
Q 1122 3375 1075 2522 
Q 1259 2794 1537 2939 
Q 1816 3084 2150 3084 
Q 2853 3084 3261 2657 
Q 3669 2231 3669 1497 
Q 3669 778 3244 343 
Q 2819 -91 2113 -91 
Q 1303 -91 875 529 
Q 447 1150 447 2328 
Q 447 3434 972 4092 
Q 1497 4750 2381 4750 
Q 2619 4750 2861 4703 
Q 3103 4656 3366 4563 
z
" id="DejaVuSans-36" transform="scale(0.015625)"/>
       </defs>
       <use xlink:href="#DejaVuSans-36"/>
       <use x="63.623047" xlink:href="#DejaVuSans-30"/>
      </g>
     </g>
    </g>
    <g id="ytick_8">
     <g id="line2d_43">
      <path clip-path="url(#paf58f2ea45)" d="M 72 151.632 
L 518.4 151.632 
" style="fill:none;stroke:#000000;stroke-dasharray:0.8,1.32;stroke-dashoffset:0;stroke-opacity:0.5;stroke-width:0.8;"/>
     </g>
     <g id="line2d_44">
      <g>
       <use style="stroke:#000000;stroke-width:0.8;" x="72" xlink:href="#m9edad40cc0" y="151.632"/>
      </g>
     </g>
     <g id="text_23">
      <!-- 70 -->
      <g transform="translate(52.275 155.431219)scale(0.1 -0.1)">
       <defs>
        <path d="M 525 4666 
L 3525 4666 
L 3525 4397 
L 1831 0 
L 1172 0 
L 2766 4134 
L 525 4134 
L 525 4666 
z
" id="DejaVuSans-37" transform="scale(0.015625)"/>
       </defs>
       <use xlink:href="#DejaVuSans-37"/>
       <use x="63.623047" xlink:href="#DejaVuSans-30"/>
      </g>
     </g>
    </g>
    <g id="ytick_9">
     <g id="line2d_45">
      <path clip-path="url(#paf58f2ea45)" d="M 72 118.368 
L 518.4 118.368 
" style="fill:none;stroke:#000000;stroke-dasharray:0.8,1.32;stroke-dashoffset:0;stroke-opacity:0.5;stroke-width:0.8;"/>
     </g>
     <g id="line2d_46">
      <g>
       <use style="stroke:#000000;stroke-width:0.8;" x="72" xlink:href="#m9edad40cc0" y="118.368"/>
      </g>
     </g>
     <g id="text_24">
      <!-- 80 -->
      <g transform="translate(52.275 122.167219)scale(0.1 -0.1)">
       <defs>
        <path d="M 2034 2216 
Q 1584 2216 1326 1975 
Q 1069 1734 1069 1313 
Q 1069 891 1326 650 
Q 1584 409 2034 409 
Q 2484 409 2743 651 
Q 3003 894 3003 1313 
Q 3003 1734 2745 1975 
Q 2488 2216 2034 2216 
z
M 1403 2484 
Q 997 2584 770 2862 
Q 544 3141 544 3541 
Q 544 4100 942 4425 
Q 1341 4750 2034 4750 
Q 2731 4750 3128 4425 
Q 3525 4100 3525 3541 
Q 3525 3141 3298 2862 
Q 3072 2584 2669 2484 
Q 3125 2378 3379 2068 
Q 3634 1759 3634 1313 
Q 3634 634 3220 271 
Q 2806 -91 2034 -91 
Q 1263 -91 848 271 
Q 434 634 434 1313 
Q 434 1759 690 2068 
Q 947 2378 1403 2484 
z
M 1172 3481 
Q 1172 3119 1398 2916 
Q 1625 2713 2034 2713 
Q 2441 2713 2670 2916 
Q 2900 3119 2900 3481 
Q 2900 3844 2670 4047 
Q 2441 4250 2034 4250 
Q 1625 4250 1398 4047 
Q 1172 3844 1172 3481 
z
" id="DejaVuSans-38" transform="scale(0.015625)"/>
       </defs>
       <use xlink:href="#DejaVuSans-38"/>
       <use x="63.623047" xlink:href="#DejaVuSans-30"/>
      </g>
     </g>
    </g>
    <g id="ytick_10">
     <g id="line2d_47">
      <path clip-path="url(#paf58f2ea45)" d="M 72 85.104 
L 518.4 85.104 
" style="fill:none;stroke:#000000;stroke-dasharray:0.8,1.32;stroke-dashoffset:0;stroke-opacity:0.5;stroke-width:0.8;"/>
     </g>
     <g id="line2d_48">
      <g>
       <use style="stroke:#000000;stroke-width:0.8;" x="72" xlink:href="#m9edad40cc0" y="85.104"/>
      </g>
     </g>
     <g id="text_25">
      <!-- 90 -->
      <g transform="translate(52.275 88.903219)scale(0.1 -0.1)">
       <defs>
        <path d="M 703 97 
L 703 672 
Q 941 559 1184 500 
Q 1428 441 1663 441 
Q 2288 441 2617 861 
Q 2947 1281 2994 2138 
Q 2813 1869 2534 1725 
Q 2256 1581 1919 1581 
Q 1219 1581 811 2004 
Q 403 2428 403 3163 
Q 403 3881 828 4315 
Q 1253 4750 1959 4750 
Q 2769 4750 3195 4129 
Q 3622 3509 3622 2328 
Q 3622 1225 3098 567 
Q 2575 -91 1691 -91 
Q 1453 -91 1209 -44 
Q 966 3 703 97 
z
M 1959 2075 
Q 2384 2075 2632 2365 
Q 2881 2656 2881 3163 
Q 2881 3666 2632 3958 
Q 2384 4250 1959 4250 
Q 1534 4250 1286 3958 
Q 1038 3666 1038 3163 
Q 1038 2656 1286 2365 
Q 1534 2075 1959 2075 
z
" id="DejaVuSans-39" transform="scale(0.015625)"/>
       </defs>
       <use xlink:href="#DejaVuSans-39"/>
       <use x="63.623047" xlink:href="#DejaVuSans-30"/>
      </g>
     </g>
    </g>
    <g id="ytick_11">
     <g id="line2d_49">
      <path clip-path="url(#paf58f2ea45)" d="M 72 51.84 
L 518.4 51.84 
" style="fill:none;stroke:#000000;stroke-dasharray:0.8,1.32;stroke-dashoffset:0;stroke-opacity:0.5;stroke-width:0.8;"/>
     </g>
     <g id="line2d_50">
      <g>
       <use style="stroke:#000000;stroke-width:0.8;" x="72" xlink:href="#m9edad40cc0" y="51.84"/>
      </g>
     </g>
     <g id="text_26">
      <!-- 100 -->
      <g transform="translate(45.9125 55.639219)scale(0.1 -0.1)">
       <use xlink:href="#DejaVuSans-31"/>
       <use x="63.623047" xlink:href="#DejaVuSans-30"/>
       <use x="127.246094" xlink:href="#DejaVuSans-30"/>
      </g>
     </g>
    </g>
    <g id="text_27">
     <!-- Vaccine coverage (% of 12+ population) -->
     <g transform="translate(39.832812 319.181094)rotate(-90)scale(0.1 -0.1)">
      <defs>
       <path d="M 1831 0 
L 50 4666 
L 709 4666 
L 2188 738 
L 3669 4666 
L 4325 4666 
L 2547 0 
L 1831 0 
z
" id="DejaVuSans-56" transform="scale(0.015625)"/>
       <path d="M 603 3500 
L 1178 3500 
L 1178 0 
L 603 0 
L 603 3500 
z
M 603 4863 
L 1178 4863 
L 1178 4134 
L 603 4134 
L 603 4863 
z
" id="DejaVuSans-69" transform="scale(0.015625)"/>
       <path id="DejaVuSans-20" transform="scale(0.015625)"/>
       <path d="M 2631 2963 
Q 2534 3019 2420 3045 
Q 2306 3072 2169 3072 
Q 1681 3072 1420 2755 
Q 1159 2438 1159 1844 
L 1159 0 
L 581 0 
L 581 3500 
L 1159 3500 
L 1159 2956 
Q 1341 3275 1631 3429 
Q 1922 3584 2338 3584 
Q 2397 3584 2469 3576 
Q 2541 3569 2628 3553 
L 2631 2963 
z
" id="DejaVuSans-72" transform="scale(0.015625)"/>
       <path d="M 1984 4856 
Q 1566 4138 1362 3434 
Q 1159 2731 1159 2009 
Q 1159 1288 1364 580 
Q 1569 -128 1984 -844 
L 1484 -844 
Q 1016 -109 783 600 
Q 550 1309 550 2009 
Q 550 2706 781 3412 
Q 1013 4119 1484 4856 
L 1984 4856 
z
" id="DejaVuSans-28" transform="scale(0.015625)"/>
       <path d="M 4653 2053 
Q 4381 2053 4226 1822 
Q 4072 1591 4072 1178 
Q 4072 772 4226 539 
Q 4381 306 4653 306 
Q 4919 306 5073 539 
Q 5228 772 5228 1178 
Q 5228 1588 5073 1820 
Q 4919 2053 4653 2053 
z
M 4653 2450 
Q 5147 2450 5437 2106 
Q 5728 1763 5728 1178 
Q 5728 594 5436 251 
Q 5144 -91 4653 -91 
Q 4153 -91 3862 251 
Q 3572 594 3572 1178 
Q 3572 1766 3864 2108 
Q 4156 2450 4653 2450 
z
M 1428 4353 
Q 1159 4353 1004 4120 
Q 850 3888 850 3481 
Q 850 3069 1003 2837 
Q 1156 2606 1428 2606 
Q 1700 2606 1854 2837 
Q 2009 3069 2009 3481 
Q 2009 3884 1853 4118 
Q 1697 4353 1428 4353 
z
M 4250 4750 
L 4750 4750 
L 1831 -91 
L 1331 -91 
L 4250 4750 
z
M 1428 4750 
Q 1922 4750 2215 4408 
Q 2509 4066 2509 3481 
Q 2509 2891 2217 2550 
Q 1925 2209 1428 2209 
Q 931 2209 642 2551 
Q 353 2894 353 3481 
Q 353 4063 643 4406 
Q 934 4750 1428 4750 
z
" id="DejaVuSans-25" transform="scale(0.015625)"/>
       <path d="M 2375 4863 
L 2375 4384 
L 1825 4384 
Q 1516 4384 1395 4259 
Q 1275 4134 1275 3809 
L 1275 3500 
L 2222 3500 
L 2222 3053 
L 1275 3053 
L 1275 0 
L 697 0 
L 697 3053 
L 147 3053 
L 147 3500 
L 697 3500 
L 697 3744 
Q 697 4328 969 4595 
Q 1241 4863 1831 4863 
L 2375 4863 
z
" id="DejaVuSans-66" transform="scale(0.015625)"/>
       <path d="M 2944 4013 
L 2944 2272 
L 4684 2272 
L 4684 1741 
L 2944 1741 
L 2944 0 
L 2419 0 
L 2419 1741 
L 678 1741 
L 678 2272 
L 2419 2272 
L 2419 4013 
L 2944 4013 
z
" id="DejaVuSans-2b" transform="scale(0.015625)"/>
       <path d="M 603 4863 
L 1178 4863 
L 1178 0 
L 603 0 
L 603 4863 
z
" id="DejaVuSans-6c" transform="scale(0.015625)"/>
       <path d="M 513 4856 
L 1013 4856 
Q 1481 4119 1714 3412 
Q 1947 2706 1947 2009 
Q 1947 1309 1714 600 
Q 1481 -109 1013 -844 
L 513 -844 
Q 928 -128 1133 580 
Q 1338 1288 1338 2009 
Q 1338 2731 1133 3434 
Q 928 4138 513 4856 
z
" id="DejaVuSans-29" transform="scale(0.015625)"/>
      </defs>
      <use xlink:href="#DejaVuSans-56"/>
      <use x="60.658203" xlink:href="#DejaVuSans-61"/>
      <use x="121.9375" xlink:href="#DejaVuSans-63"/>
      <use x="176.917969" xlink:href="#DejaVuSans-63"/>
      <use x="231.898438" xlink:href="#DejaVuSans-69"/>
      <use x="259.681641" xlink:href="#DejaVuSans-6e"/>
      <use x="323.060547" xlink:href="#DejaVuSans-65"/>
      <use x="384.583984" xlink:href="#DejaVuSans-20"/>
      <use x="416.371094" xlink:href="#DejaVuSans-63"/>
      <use x="471.351562" xlink:href="#DejaVuSans-6f"/>
      <use x="532.533203" xlink:href="#DejaVuSans-76"/>
      <use x="591.712891" xlink:href="#DejaVuSans-65"/>
      <use x="653.236328" xlink:href="#DejaVuSans-72"/>
      <use x="694.349609" xlink:href="#DejaVuSans-61"/>
      <use x="755.628906" xlink:href="#DejaVuSans-67"/>
      <use x="819.105469" xlink:href="#DejaVuSans-65"/>
      <use x="880.628906" xlink:href="#DejaVuSans-20"/>
      <use x="912.416016" xlink:href="#DejaVuSans-28"/>
      <use x="951.429688" xlink:href="#DejaVuSans-25"/>
      <use x="1046.449219" xlink:href="#DejaVuSans-20"/>
      <use x="1078.236328" xlink:href="#DejaVuSans-6f"/>
      <use x="1139.417969" xlink:href="#DejaVuSans-66"/>
      <use x="1174.623047" xlink:href="#DejaVuSans-20"/>
      <use x="1206.410156" xlink:href="#DejaVuSans-31"/>
      <use x="1270.033203" xlink:href="#DejaVuSans-32"/>
      <use x="1333.65625" xlink:href="#DejaVuSans-2b"/>
      <use x="1417.445312" xlink:href="#DejaVuSans-20"/>
      <use x="1449.232422" xlink:href="#DejaVuSans-70"/>
      <use x="1512.708984" xlink:href="#DejaVuSans-6f"/>
      <use x="1573.890625" xlink:href="#DejaVuSans-70"/>
      <use x="1637.367188" xlink:href="#DejaVuSans-75"/>
      <use x="1700.746094" xlink:href="#DejaVuSans-6c"/>
      <use x="1728.529297" xlink:href="#DejaVuSans-61"/>
      <use x="1789.808594" xlink:href="#DejaVuSans-74"/>
      <use x="1829.017578" xlink:href="#DejaVuSans-69"/>
      <use x="1856.800781" xlink:href="#DejaVuSans-6f"/>
      <use x="1917.982422" xlink:href="#DejaVuSans-6e"/>
      <use x="1981.361328" xlink:href="#DejaVuSans-29"/>
     </g>
    </g>
   </g>
   <g id="line2d_51">
    <path clip-path="url(#paf58f2ea45)" d="M -1 373.921495 
L 0.931343 373.852213 
L 3.152239 373.368175 
L 5.373134 372.593966 
L 9.814925 371.885643 
L 14.256716 371.319052 
L 16.477612 369.997602 
L 18.698507 368.042472 
L 20.919403 367.446702 
L 29.802985 365.900559 
L 32.023881 364.368218 
L 34.244776 362.163521 
L 36.465672 361.467853 
L 38.686567 360.106714 
L 40.907463 357.962419 
L 43.128358 356.78177 
L 47.570149 355.511769 
L 49.791045 354.476958 
L 56.453731 350.94479 
L 58.674627 349.968033 
L 63.116418 348.640313 
L 65.337313 347.48656 
L 72 343.455403 
L 74.220896 342.392571 
L 78.662687 340.979358 
L 80.883582 339.790195 
L 87.546269 335.613786 
L 89.767164 334.468152 
L 94.208955 332.86214 
L 96.429851 331.53199 
L 103.092537 326.724041 
L 105.313433 325.404987 
L 109.755224 323.572675 
L 111.976119 322.076662 
L 116.41791 318.591596 
L 118.638806 316.805711 
L 120.859701 315.226331 
L 125.301493 313.040156 
L 127.522388 311.332356 
L 136.40597 303.592968 
L 138.626866 302.546186 
L 140.847761 301.366606 
L 143.068657 299.481156 
L 147.510448 295.252938 
L 149.731343 293.089689 
L 151.952239 291.24733 
L 156.39403 288.762746 
L 158.614925 286.837066 
L 165.277612 280.180036 
L 167.498507 278.317371 
L 171.940299 275.757041 
L 174.161194 273.801426 
L 180.823881 267.326079 
L 183.044776 265.533506 
L 187.486567 263.165251 
L 189.707463 261.29359 
L 194.149254 256.928572 
L 196.370149 254.66822 
L 198.591045 252.770605 
L 200.81194 251.516939 
L 203.032836 250.100354 
L 207.474627 245.752907 
L 214.137313 239.03627 
L 218.579104 235.975625 
L 220.8 233.679352 
L 227.462687 226.079466 
L 229.683582 223.872991 
L 234.125373 220.673488 
L 236.346269 218.267113 
L 240.78806 213.046938 
L 243.008955 210.295647 
L 245.229851 207.894243 
L 247.450746 206.245538 
L 249.671642 204.826622 
L 251.892537 202.629131 
L 256.334328 196.338195 
L 258.555224 193.121711 
L 260.776119 190.165064 
L 265.21791 185.460761 
L 267.438806 182.206888 
L 271.880597 175.324407 
L 274.101493 172.063676 
L 276.322388 169.259036 
L 280.764179 164.845031 
L 287.426866 156.020762 
L 289.647761 153.039002 
L 291.868657 150.387805 
L 296.310448 146.627507 
L 305.19403 137.039465 
L 307.414925 135.012837 
L 311.856716 132.099257 
L 320.740299 124.636795 
L 322.961194 123.000659 
L 327.402985 120.867563 
L 336.286567 114.951383 
L 338.507463 113.717812 
L 342.949254 112.020111 
L 349.61194 108.41156 
L 351.832836 107.285438 
L 354.053731 106.354427 
L 356.274627 105.80419 
L 358.495522 105.128249 
L 360.716418 104.040263 
L 367.379104 101.236878 
L 369.6 100.494852 
L 374.041791 99.532226 
L 385.146269 95.823178 
L 389.58806 94.951499 
L 396.250746 92.875655 
L 398.471642 92.45904 
L 398.471642 92.45904 
" style="fill:none;stroke:#1f77b4;stroke-linecap:square;stroke-width:1.5;"/>
   </g>
   <g id="line2d_52">
    <path clip-path="url(#paf58f2ea45)" d="M -1 373.147836 
L 0.931343 373.10649 
L 3.152239 372.706271 
L 5.373134 371.953314 
L 9.814925 370.952808 
L 12.035821 370.561774 
L 14.256716 370.314441 
L 16.477612 369.188509 
L 18.698507 367.43705 
L 20.919403 366.793371 
L 25.361194 365.955736 
L 29.802985 365.453233 
L 32.023881 364.251478 
L 34.244776 362.428007 
L 36.465672 361.900715 
L 38.686567 360.739307 
L 40.907463 358.786841 
L 43.128358 357.85804 
L 47.570149 356.969694 
L 52.01194 355.022969 
L 56.453731 353.015472 
L 58.674627 352.207451 
L 60.895522 351.751266 
L 63.116418 351.173364 
L 65.337313 349.983534 
L 72 345.708562 
L 74.220896 344.564978 
L 76.441791 343.880305 
L 78.662687 343.078298 
L 80.883582 341.763439 
L 89.767164 335.748656 
L 94.208955 333.987449 
L 96.429851 332.580418 
L 103.092537 326.927111 
L 105.313433 325.409094 
L 109.755224 323.300914 
L 111.976119 321.597077 
L 120.859701 313.935647 
L 123.080597 312.614088 
L 125.301493 311.50463 
L 127.522388 309.565158 
L 134.185075 302.734023 
L 136.40597 300.861259 
L 138.626866 299.744216 
L 140.847761 298.449162 
L 143.068657 296.41039 
L 149.731343 289.343406 
L 151.952239 287.369064 
L 156.39403 284.777533 
L 158.614925 282.615297 
L 163.056716 277.504829 
L 165.277612 274.945594 
L 167.498507 272.911502 
L 169.719403 271.609912 
L 171.940299 269.895309 
L 180.823881 259.731152 
L 183.044776 257.558652 
L 187.486567 254.738688 
L 189.707463 252.312641 
L 194.149254 246.646032 
L 196.370149 243.559895 
L 198.591045 240.88732 
L 200.81194 239.202735 
L 203.032836 237.192019 
L 207.474627 230.838206 
L 209.695522 227.573252 
L 214.137313 220.709657 
L 216.358209 218.572039 
L 218.579104 216.273802 
L 220.8 212.69744 
L 229.683582 197.365394 
L 234.125373 192.667694 
L 243.008955 177.597237 
L 245.229851 174.320071 
L 247.450746 172.479449 
L 249.671642 171.364577 
L 251.892537 168.997853 
L 258.555224 156.399954 
L 260.776119 152.654201 
L 262.997015 150.065453 
L 265.21791 147.208173 
L 271.880597 134.20724 
L 274.101493 130.427116 
L 276.322388 127.423168 
L 278.543284 125.407658 
L 280.764179 123.141986 
L 285.20597 117.44712 
L 289.647761 112.12657 
L 291.868657 109.898176 
L 294.089552 108.534888 
L 296.310448 107.336876 
L 300.752239 103.695347 
L 305.19403 99.880796 
L 307.414925 98.34056 
L 311.856716 96.414026 
L 316.298507 93.417833 
L 320.740299 90.914321 
L 322.961194 89.954857 
L 327.402985 88.938219 
L 334.065672 86.446223 
L 336.286567 85.681783 
L 338.507463 85.100078 
L 342.949254 84.500983 
L 351.832836 82.526554 
L 354.053731 82.190187 
L 358.495522 81.828898 
L 367.379104 80.458379 
L 369.6 80.204047 
L 374.041791 79.931957 
L 382.925373 78.916833 
L 387.367164 78.627937 
L 391.808955 78.324797 
L 398.471642 77.818449 
L 398.471642 77.818449 
" style="fill:none;stroke:#ff7f0e;stroke-linecap:square;stroke-width:1.5;"/>
   </g>
   <g id="line2d_53">
    <path clip-path="url(#paf58f2ea45)" d="M -1 375.826395 
L 0.931343 375.745048 
L 3.152239 375.368874 
L 5.373134 374.748559 
L 14.256716 373.036272 
L 16.477612 371.604299 
L 18.698507 369.522894 
L 20.919403 368.780415 
L 23.140299 368.184342 
L 25.361194 367.125715 
L 27.58209 366.364384 
L 29.802985 365.774273 
L 32.023881 364.25202 
L 34.244776 362.180158 
L 36.465672 361.165229 
L 38.686567 359.606243 
L 40.907463 357.496018 
L 43.128358 356.146353 
L 47.570149 354.491613 
L 56.453731 349.352669 
L 58.674627 348.304202 
L 63.116418 346.832299 
L 67.558209 344.40757 
L 72 341.932744 
L 74.220896 340.931019 
L 78.662687 339.56764 
L 83.104478 337.169259 
L 89.767164 333.5256 
L 94.208955 331.922959 
L 96.429851 330.61413 
L 98.650746 329.080237 
L 100.871642 327.359679 
L 103.092537 325.867563 
L 105.313433 324.672834 
L 107.534328 323.886888 
L 109.755224 322.952123 
L 114.197015 320.074993 
L 120.859701 315.350387 
L 123.080597 314.285894 
L 125.301493 313.092351 
L 129.743284 309.59438 
L 134.185075 305.797264 
L 136.40597 304.10713 
L 138.626866 303.08421 
L 140.847761 301.919058 
L 145.289552 297.894201 
L 149.731343 293.568329 
L 151.952239 291.628763 
L 156.39403 288.87444 
L 158.614925 286.91502 
L 163.056716 282.769596 
L 167.498507 278.986663 
L 169.719403 277.49198 
L 171.940299 276.328015 
L 174.161194 274.593079 
L 178.602985 270.535231 
L 180.823881 268.634897 
L 183.044776 267.01314 
L 187.486567 264.935831 
L 189.707463 263.386252 
L 196.370149 258.24221 
L 198.591045 256.903855 
L 203.032836 255.000609 
L 207.474627 251.924163 
L 214.137313 247.209742 
L 216.358209 246.13956 
L 218.579104 244.940196 
L 220.8 243.220854 
L 223.020896 241.332484 
L 225.241791 239.29522 
L 227.462687 237.472811 
L 231.904478 234.883533 
L 234.125373 233.333903 
L 238.567164 228.956088 
L 240.78806 226.605151 
L 245.229851 221.593335 
L 247.450746 219.616579 
L 249.671642 217.438409 
L 251.892537 214.442445 
L 256.334328 207.858794 
L 260.776119 200.916653 
L 265.21791 195.026059 
L 267.438806 191.407197 
L 271.880597 183.534606 
L 276.322388 175.629928 
L 280.764179 169.026688 
L 285.20597 160.331712 
L 291.868657 147.177716 
L 296.310448 140.839512 
L 298.531343 137.113295 
L 302.973134 130.281884 
L 305.19403 126.975915 
L 307.414925 123.99774 
L 311.856716 119.802327 
L 314.077612 117.695536 
L 316.298507 115.93204 
L 320.740299 110.748675 
L 322.961194 108.580452 
L 327.402985 105.887324 
L 331.844776 102.425284 
L 336.286567 99.088542 
L 338.507463 97.680809 
L 342.949254 95.962428 
L 347.391045 93.632073 
L 351.832836 91.551972 
L 354.053731 90.74619 
L 356.274627 90.248502 
L 358.495522 89.625886 
L 360.716418 88.643549 
L 367.379104 86.346032 
L 369.6 85.748702 
L 374.041791 85.12638 
L 378.483582 84.235102 
L 385.146269 83.133744 
L 389.58806 82.765239 
L 396.250746 81.879449 
L 398.471642 81.712503 
L 398.471642 81.712503 
" style="fill:none;stroke:#2ca02c;stroke-linecap:square;stroke-width:1.5;"/>
   </g>
   <g id="line2d_54">
    <path clip-path="url(#paf58f2ea45)" d="M -1 376.491408 
L 0.931343 376.451036 
L 3.152239 375.81064 
L 5.373134 374.883758 
L 7.59403 374.742998 
L 12.035821 374.739835 
L 14.256716 374.619323 
L 16.477612 372.956965 
L 18.698507 370.550941 
L 20.919403 370.185551 
L 27.58209 370.178424 
L 29.802985 370.008094 
L 32.023881 367.658537 
L 34.244776 364.256997 
L 36.465672 363.623064 
L 38.686567 361.959653 
L 40.907463 359.066331 
L 43.128358 357.581443 
L 45.349254 356.766176 
L 47.570149 356.13845 
L 49.791045 355.167387 
L 52.01194 353.803765 
L 56.453731 350.81946 
L 58.674627 349.642197 
L 63.116418 348.179577 
L 65.337313 347.137295 
L 69.779104 344.235807 
L 72 342.787643 
L 74.220896 341.631271 
L 76.441791 340.867843 
L 78.662687 340.296329 
L 80.883582 339.41847 
L 85.325373 336.797876 
L 87.546269 335.477966 
L 89.767164 334.402494 
L 96.429851 332.235649 
L 100.871642 330.4423 
L 103.092537 329.040046 
L 105.313433 327.876796 
L 109.755224 326.394103 
L 111.976119 325.140668 
L 114.197015 323.446695 
L 118.638806 319.764191 
L 120.859701 318.329206 
L 125.301493 316.676709 
L 127.522388 315.330969 
L 131.964179 311.843927 
L 134.185075 310.058939 
L 136.40597 308.582356 
L 140.847761 306.784462 
L 143.068657 305.315998 
L 149.731343 300.134357 
L 151.952239 298.727523 
L 156.39403 296.970188 
L 158.614925 295.542578 
L 160.835821 293.732297 
L 165.277612 289.777075 
L 167.498507 288.236744 
L 171.940299 286.324394 
L 174.161194 284.870856 
L 178.602985 281.102275 
L 180.823881 279.172326 
L 183.044776 277.600701 
L 187.486567 275.45503 
L 189.707463 273.895856 
L 198.591045 266.502182 
L 203.032836 264.273958 
L 205.253731 262.708452 
L 211.916418 257.234255 
L 214.137313 255.706593 
L 218.579104 253.471324 
L 223.020896 250.130735 
L 227.462687 246.495997 
L 229.683582 244.981084 
L 234.125373 242.775848 
L 236.346269 241.234481 
L 240.78806 237.561975 
L 243.008955 235.628016 
L 245.229851 233.98453 
L 247.450746 232.778623 
L 249.671642 231.814097 
L 251.892537 230.512523 
L 254.113433 228.382059 
L 258.555224 223.523542 
L 260.776119 221.436245 
L 262.997015 219.683473 
L 265.21791 217.774615 
L 271.880597 210.599471 
L 274.101493 208.219553 
L 276.322388 206.256328 
L 280.764179 203.275968 
L 282.985075 201.311844 
L 287.426866 196.909583 
L 289.647761 194.683141 
L 291.868657 192.753373 
L 296.310448 189.876636 
L 300.752239 186.015774 
L 305.19403 181.895844 
L 307.414925 180.362133 
L 309.635821 179.193471 
L 311.856716 177.795676 
L 318.519403 172.164643 
L 320.740299 170.373881 
L 322.961194 168.871265 
L 325.18209 167.841008 
L 327.402985 166.652966 
L 331.844776 163.411414 
L 336.286567 159.745685 
L 338.507463 158.162056 
L 340.728358 156.98332 
L 342.949254 155.568047 
L 349.61194 150.33308 
L 351.832836 148.670428 
L 354.053731 147.290127 
L 356.274627 146.474782 
L 358.495522 145.359485 
L 360.716418 143.502798 
L 362.937313 141.949331 
L 367.379104 139.181265 
L 369.6 138.072925 
L 371.820896 137.336178 
L 374.041791 136.454562 
L 378.483582 133.93653 
L 385.146269 129.534698 
L 387.367164 128.577365 
L 389.58806 127.480877 
L 391.808955 125.981704 
L 396.250746 122.684859 
L 398.471642 121.701258 
L 398.471642 121.701258 
" style="fill:none;stroke:#d62728;stroke-linecap:square;stroke-width:1.5;"/>
   </g>
   <g id="line2d_55">
    <path clip-path="url(#paf58f2ea45)" d="M -1 372.221923 
L 0.931343 372.015335 
L 5.373134 371.133965 
L 7.59403 370.634397 
L 12.035821 369.887607 
L 14.256716 369.337709 
L 16.477612 368.97555 
L 20.919403 367.81653 
L 23.140299 367.106185 
L 27.58209 366.130007 
L 29.802985 365.438629 
L 32.023881 365.037891 
L 34.244776 364.51452 
L 38.686567 363.05475 
L 43.128358 361.464815 
L 47.570149 360.479594 
L 52.01194 358.907965 
L 56.453731 357.252351 
L 58.674627 356.588127 
L 63.116418 355.56522 
L 65.337313 354.60404 
L 69.779104 352.350417 
L 72 351.37069 
L 74.220896 350.591535 
L 78.662687 349.332695 
L 80.883582 348.269382 
L 87.546269 344.470116 
L 89.767164 343.51489 
L 91.98806 342.805886 
L 94.208955 341.868433 
L 105.313433 334.663749 
L 107.534328 333.801153 
L 109.755224 332.757814 
L 114.197015 329.533979 
L 118.638806 326.19514 
L 120.859701 324.809327 
L 123.080597 323.796604 
L 125.301493 322.588968 
L 129.743284 319.064418 
L 134.185075 315.286077 
L 136.40597 313.736216 
L 138.626866 312.613596 
L 140.847761 311.239193 
L 145.289552 307.380764 
L 149.731343 303.312131 
L 151.952239 301.544397 
L 156.39403 298.746648 
L 158.614925 296.811655 
L 165.277612 290.575441 
L 167.498507 288.801063 
L 171.940299 286.60897 
L 174.161194 285.138862 
L 178.602985 281.630353 
L 180.823881 279.822747 
L 183.044776 278.284469 
L 185.265672 277.216149 
L 187.486567 276.012201 
L 191.928358 272.261556 
L 196.370149 268.27659 
L 198.591045 266.61809 
L 203.032836 264.143075 
L 209.695522 258.910851 
L 211.916418 257.09598 
L 214.137313 255.502886 
L 218.579104 252.948218 
L 223.020896 249.784457 
L 227.462687 246.402346 
L 229.683582 244.953135 
L 231.904478 243.972491 
L 234.125373 243.145193 
L 236.346269 241.990323 
L 240.78806 238.330803 
L 243.008955 236.441554 
L 245.229851 234.792986 
L 249.671642 232.091183 
L 254.113433 228.632124 
L 260.776119 223.181661 
L 265.21791 220.437815 
L 267.438806 218.607833 
L 274.101493 212.037114 
L 276.322388 210.204641 
L 280.764179 207.33619 
L 282.985075 205.627925 
L 285.20597 203.747668 
L 291.868657 197.683459 
L 296.310448 194.787536 
L 302.973134 188.739548 
L 305.19403 186.561279 
L 307.414925 184.565682 
L 311.856716 181.555602 
L 314.077612 179.710623 
L 318.519403 176.43907 
L 322.961194 172.302066 
L 327.402985 169.565439 
L 338.507463 161.010237 
L 342.949254 158.706734 
L 354.053731 150.631276 
L 358.495522 148.679788 
L 362.937313 145.691997 
L 369.6 141.486307 
L 371.820896 140.616113 
L 374.041791 139.620217 
L 380.704478 135.272074 
L 382.925373 133.918926 
L 385.146269 132.779504 
L 389.58806 131.253294 
L 396.250746 127.853398 
L 398.471642 127.208107 
L 398.471642 127.208107 
" style="fill:none;stroke:#9467bd;stroke-linecap:square;stroke-width:1.5;"/>
   </g>
   <g id="line2d_56">
    <path clip-path="url(#paf58f2ea45)" d="M -1 372.954865 
L 0.931343 372.909182 
L 3.152239 372.184535 
L 5.373134 371.135713 
L 7.59403 370.976434 
L 14.256716 370.870655 
L 16.477612 369.45734 
L 18.698507 367.411768 
L 20.919403 367.101118 
L 27.58209 367.095117 
L 29.802985 366.958038 
L 32.023881 365.067143 
L 34.244776 362.329625 
L 36.465672 361.819199 
L 38.686567 360.47304 
L 40.907463 358.080544 
L 43.128358 356.84273 
L 47.570149 355.569472 
L 49.791045 354.542664 
L 52.01194 353.287284 
L 56.453731 350.566197 
L 58.674627 349.489267 
L 63.116418 347.95978 
L 65.337313 346.768079 
L 72 342.589092 
L 74.220896 341.494657 
L 78.662687 340.063729 
L 80.883582 338.963196 
L 83.104478 337.575077 
L 87.546269 334.599146 
L 89.767164 333.461922 
L 91.98806 332.704461 
L 94.208955 331.80744 
L 96.429851 330.482 
L 100.871642 327.415975 
L 103.092537 325.86752 
L 105.313433 324.722093 
L 107.534328 324.047564 
L 109.755224 323.19081 
L 111.976119 321.820475 
L 118.638806 316.899727 
L 120.859701 315.55667 
L 125.301493 313.683071 
L 127.522388 312.115472 
L 131.964179 308.230896 
L 134.185075 306.239489 
L 136.40597 304.717916 
L 138.626866 303.804262 
L 140.847761 302.708731 
L 143.068657 300.924007 
L 149.731343 294.79565 
L 151.952239 293.101024 
L 154.173134 292.103791 
L 156.39403 290.962493 
L 158.614925 289.054506 
L 165.277612 282.310526 
L 167.498507 280.467047 
L 171.940299 278.02575 
L 174.161194 276.174608 
L 180.823881 270.035477 
L 183.044776 268.464449 
L 187.486567 266.673516 
L 189.707463 265.192383 
L 194.149254 261.415994 
L 196.370149 259.559576 
L 198.591045 258.123557 
L 200.81194 257.200265 
L 203.032836 256.035635 
L 207.474627 252.371114 
L 211.916418 248.702424 
L 214.137313 247.201994 
L 216.358209 246.161959 
L 218.579104 244.943914 
L 220.8 243.204155 
L 227.462687 237.417254 
L 229.683582 235.75153 
L 234.125373 233.283676 
L 236.346269 231.580303 
L 240.78806 227.738441 
L 243.008955 225.799572 
L 245.229851 224.195094 
L 247.450746 223.067036 
L 249.671642 222.191649 
L 251.892537 220.905814 
L 258.555224 214.688774 
L 260.776119 212.907884 
L 265.21791 210.134575 
L 267.438806 208.14841 
L 271.880597 203.727872 
L 274.101493 201.642407 
L 276.322388 199.930853 
L 278.543284 198.711216 
L 280.764179 197.31939 
L 285.20597 193.168978 
L 289.647761 188.965601 
L 291.868657 187.149407 
L 296.310448 184.312176 
L 298.531343 182.33096 
L 302.973134 177.689402 
L 305.19403 175.348503 
L 307.414925 173.267336 
L 311.856716 170.168706 
L 316.298507 165.749372 
L 320.740299 161.141452 
L 322.961194 159.124679 
L 327.402985 156.118521 
L 334.065672 150.230528 
L 338.507463 146.619063 
L 342.949254 143.92457 
L 349.61194 138.2931 
L 351.832836 136.389745 
L 354.053731 134.669659 
L 358.495522 132.240643 
L 367.379104 125.282067 
L 369.6 123.888161 
L 374.041791 121.948293 
L 378.483582 119.099878 
L 382.925373 116.594044 
L 385.146269 115.541159 
L 389.58806 114.132746 
L 391.808955 113.07805 
L 396.250746 110.736983 
L 398.471642 110.069614 
L 398.471642 110.069614 
" style="fill:none;stroke:#8c564b;stroke-linecap:square;stroke-width:1.5;"/>
   </g>
   <g id="line2d_57">
    <path clip-path="url(#paf58f2ea45)" d="M -1 366.194058 
L 0.931343 366.165221 
L 3.152239 365.707801 
L 5.373134 365.04575 
L 9.814925 364.943607 
L 12.035821 364.941693 
L 14.256716 364.690522 
L 16.477612 361.225823 
L 18.698507 356.211167 
L 20.919403 355.44962 
L 27.58209 355.436044 
L 29.802985 355.249253 
L 32.023881 352.672625 
L 34.244776 348.942539 
L 36.465672 348.272609 
L 38.686567 346.799839 
L 40.907463 344.177332 
L 43.128358 342.737239 
L 45.349254 341.996664 
L 47.570149 341.08698 
L 49.791045 339.780736 
L 54.232836 338.301447 
L 56.453731 337.408085 
L 58.674627 335.650852 
L 60.895522 333.491202 
L 63.116418 332.47832 
L 72 327.498434 
L 74.220896 326.541837 
L 76.441791 326.039699 
L 78.662687 325.155443 
L 80.883582 323.560461 
L 85.325373 320.700423 
L 87.546269 319.487715 
L 89.767164 318.538879 
L 91.98806 318.067872 
L 94.208955 317.098669 
L 100.871642 311.71459 
L 103.092537 310.046501 
L 105.313433 308.609171 
L 109.755224 306.579074 
L 111.976119 305.065697 
L 116.41791 301.565868 
L 120.859701 298.614045 
L 123.080597 297.325789 
L 125.301493 295.886309 
L 127.522388 293.810062 
L 129.743284 291.564142 
L 134.185075 286.605348 
L 136.40597 284.538757 
L 138.626866 282.997076 
L 140.847761 281.703371 
L 143.068657 279.849435 
L 145.289552 277.734259 
L 149.731343 272.944333 
L 151.952239 270.895172 
L 154.173134 269.275158 
L 156.39403 267.874134 
L 158.614925 265.980411 
L 160.835821 263.77551 
L 165.277612 258.562288 
L 167.498507 256.322467 
L 169.719403 254.741772 
L 171.940299 253.518786 
L 174.161194 251.457425 
L 176.38209 248.960526 
L 178.602985 246.730284 
L 180.823881 244.754003 
L 183.044776 243.091787 
L 185.265672 241.849156 
L 189.707463 239.52379 
L 191.928358 237.993407 
L 194.149254 235.970804 
L 196.370149 234.152913 
L 198.591045 232.880546 
L 200.81194 232.106776 
L 203.032836 231.123158 
L 205.253731 229.220669 
L 207.474627 227.503958 
L 216.358209 221.459128 
L 218.579104 219.76351 
L 220.8 217.58473 
L 225.241791 212.644716 
L 229.683582 208.684004 
L 231.904478 207.107097 
L 234.125373 205.874592 
L 236.346269 204.182507 
L 238.567164 202.137761 
L 243.008955 197.71412 
L 245.229851 196.391422 
L 247.450746 195.593368 
L 249.671642 193.753761 
L 251.892537 190.652961 
L 256.334328 186.054689 
L 258.555224 183.776918 
L 260.776119 181.711552 
L 262.997015 180.161383 
L 265.21791 178.885417 
L 267.438806 177.169036 
L 269.659701 174.980688 
L 271.880597 172.569401 
L 274.101493 170.348457 
L 276.322388 168.681792 
L 280.764179 165.951702 
L 289.647761 158.611185 
L 291.868657 157.158536 
L 294.089552 156.032031 
L 296.310448 154.766145 
L 305.19403 148.136601 
L 311.856716 143.862674 
L 314.077612 142.090625 
L 318.519403 137.659432 
L 322.961194 133.762562 
L 327.402985 130.312232 
L 331.844776 125.364147 
L 334.065672 123.320552 
L 336.286567 121.442544 
L 338.507463 119.841813 
L 342.949254 117.242767 
L 347.391045 113.610187 
L 349.61194 112.205497 
L 354.053731 109.000246 
L 358.495522 107.580716 
L 360.716418 106.180127 
L 367.379104 102.423821 
L 369.6 101.438031 
L 374.041791 100.055904 
L 382.925373 96.218291 
L 385.146269 95.516869 
L 387.367164 95.122906 
L 389.58806 94.603643 
L 394.029851 92.827152 
L 396.250746 91.834853 
L 398.471642 91.110084 
L 398.471642 91.110084 
" style="fill:none;stroke:#e377c2;stroke-linecap:square;stroke-width:1.5;"/>
   </g>
   <g id="line2d_58">
    <path clip-path="url(#paf58f2ea45)" d="M -1 375.465658 
L 0.931343 375.391523 
L 3.152239 374.215583 
L 5.373134 372.513578 
L 7.59403 372.255104 
L 12.035821 372.249724 
L 14.256716 372.084856 
L 16.477612 369.810638 
L 18.698507 366.519033 
L 20.919403 366.019156 
L 27.58209 366.00995 
L 29.802985 365.84861 
L 32.023881 363.623057 
L 34.244776 360.400968 
L 36.465672 359.790604 
L 38.686567 358.059673 
L 40.907463 354.846813 
L 43.128358 353.192745 
L 45.349254 352.563504 
L 47.570149 351.278632 
L 49.791045 349.554134 
L 58.674627 345.24206 
L 60.895522 344.656843 
L 63.116418 343.462626 
L 65.337313 341.596854 
L 67.558209 340.181323 
L 72 337.983068 
L 74.220896 336.978091 
L 76.441791 336.296028 
L 78.662687 334.071314 
L 80.883582 330.558845 
L 87.546269 326.122448 
L 89.767164 325.318301 
L 91.98806 324.793896 
L 94.208955 322.530118 
L 96.429851 318.853059 
L 98.650746 317.500848 
L 100.871642 316.922603 
L 103.092537 315.522864 
L 105.313433 313.66335 
L 107.534328 312.335455 
L 109.755224 310.873918 
L 111.976119 308.79089 
L 114.197015 307.305984 
L 116.41791 306.214588 
L 118.638806 304.942065 
L 120.859701 303.383805 
L 123.080597 302.096604 
L 125.301493 300.588001 
L 127.522388 298.81065 
L 129.743284 297.19574 
L 131.964179 295.312382 
L 134.185075 292.892472 
L 136.40597 290.146808 
L 138.626866 288.952553 
L 140.847761 287.594141 
L 145.289552 282.838869 
L 147.510448 280.028011 
L 149.731343 275.538506 
L 151.952239 272.177979 
L 154.173134 270.89589 
L 156.39403 268.847673 
L 158.614925 266.113286 
L 160.835821 264.094635 
L 163.056716 261.167376 
L 165.277612 258.45917 
L 167.498507 257.071165 
L 169.719403 256.202715 
L 171.940299 255.097192 
L 174.161194 252.513069 
L 176.38209 248.678815 
L 178.602985 245.820941 
L 180.823881 243.506504 
L 183.044776 241.378869 
L 187.486567 237.969669 
L 189.707463 235.669582 
L 191.928358 233.017459 
L 196.370149 228.379172 
L 200.81194 224.075473 
L 203.032836 221.978089 
L 211.916418 212.154244 
L 214.137313 209.79281 
L 216.358209 207.929225 
L 218.579104 206.314934 
L 220.8 203.885608 
L 223.020896 201.049426 
L 229.683582 193.675501 
L 234.125373 189.718389 
L 240.78806 182.202148 
L 245.229851 176.289373 
L 247.450746 173.605019 
L 249.671642 171.489454 
L 251.892537 169.18267 
L 254.113433 165.929567 
L 258.555224 158.866471 
L 260.776119 155.639464 
L 265.21791 149.701792 
L 267.438806 145.980025 
L 269.659701 141.872883 
L 274.101493 135.175139 
L 278.543284 127.464866 
L 280.764179 123.891118 
L 285.20597 115.858031 
L 289.647761 107.00387 
L 291.868657 102.62222 
L 294.089552 99.002947 
L 296.310448 95.763697 
L 298.531343 91.828114 
L 300.752239 88.335417 
L 302.973134 85.395444 
L 305.19403 82.795729 
L 307.414925 80.603519 
L 309.635821 78.931118 
L 311.856716 77.469035 
L 314.077612 75.643162 
L 316.298507 74.013591 
L 320.740299 71.261102 
L 322.961194 70.1323 
L 329.623881 67.596834 
L 336.286567 64.995849 
L 338.507463 64.359731 
L 342.949254 63.55171 
L 351.832836 61.150397 
L 354.053731 60.716855 
L 358.495522 60.18613 
L 362.937313 59.259127 
L 369.6 58.38508 
L 374.041791 57.985815 
L 380.704478 57.210974 
L 387.367164 56.665932 
L 396.250746 56.038714 
L 396.250746 56.038714 
" style="fill:none;stroke:#7f7f7f;stroke-linecap:square;stroke-width:1.5;"/>
   </g>
   <g id="line2d_59">
    <path clip-path="url(#paf58f2ea45)" d="M -1 371.296755 
L 0.931343 371.244759 
L 3.152239 370.356081 
L 5.373134 367.969641 
L 7.59403 365.977268 
L 12.035821 364.415881 
L 14.256716 364.239077 
L 16.477612 363.388204 
L 20.919403 360.70934 
L 23.140299 358.360268 
L 25.361194 357.084576 
L 29.802985 356.7981 
L 32.023881 355.100082 
L 34.244776 352.641391 
L 36.465672 352.128824 
L 38.686567 350.163452 
L 40.907463 346.804648 
L 43.128358 345.430357 
L 45.349254 345.067312 
L 47.570149 344.531345 
L 49.791045 343.318808 
L 52.01194 341.78706 
L 56.453731 338.380792 
L 58.674627 337.193951 
L 60.895522 336.742323 
L 63.116418 335.949516 
L 65.337313 334.124953 
L 67.558209 331.888345 
L 69.779104 329.449865 
L 72 327.214498 
L 74.220896 325.94236 
L 76.441791 325.532657 
L 78.662687 324.937479 
L 80.883582 323.528053 
L 83.104478 321.554253 
L 85.325373 319.412035 
L 87.546269 317.837798 
L 89.767164 317.045579 
L 91.98806 316.57323 
L 94.208955 315.890872 
L 96.429851 314.368218 
L 98.650746 313.033246 
L 100.871642 312.13565 
L 103.092537 310.423144 
L 105.313433 308.981467 
L 107.534328 308.416631 
L 109.755224 308.09051 
L 111.976119 307.318879 
L 114.197015 305.791973 
L 118.638806 302.117898 
L 120.859701 300.675294 
L 125.301493 299.131823 
L 127.522388 297.712046 
L 129.743284 295.984869 
L 134.185075 292.270147 
L 136.40597 290.906185 
L 140.847761 289.478196 
L 143.068657 288.313352 
L 145.289552 286.621541 
L 149.731343 282.4094 
L 151.952239 280.668981 
L 154.173134 279.590851 
L 156.39403 278.746632 
L 158.614925 277.464048 
L 160.835821 275.709868 
L 165.277612 271.72924 
L 167.498507 270.020269 
L 171.940299 268.059705 
L 174.161194 266.391958 
L 178.602985 262.49042 
L 180.823881 260.773429 
L 183.044776 259.509097 
L 185.265672 258.699626 
L 187.486567 257.652727 
L 189.707463 255.894391 
L 196.370149 249.534914 
L 198.591045 247.85433 
L 200.81194 246.907469 
L 203.032836 245.735775 
L 211.916418 238.244084 
L 214.137313 236.65748 
L 218.579104 234.610941 
L 220.8 233.140784 
L 223.020896 231.285567 
L 229.683582 225.248565 
L 234.125373 223.243748 
L 236.346269 221.843584 
L 238.567164 220.14613 
L 240.78806 218.288247 
L 243.008955 216.654952 
L 245.229851 215.465936 
L 249.671642 213.612919 
L 251.892537 212.30938 
L 254.113433 210.806744 
L 260.776119 206.006799 
L 265.21791 204.366324 
L 267.438806 203.138933 
L 269.659701 201.604579 
L 274.101493 198.104589 
L 276.322388 196.795878 
L 278.543284 196.128554 
L 280.764179 195.29494 
L 285.20597 192.627228 
L 289.647761 189.768723 
L 291.868657 188.636833 
L 296.310448 187.252084 
L 300.752239 184.888565 
L 305.19403 182.130293 
L 307.414925 181.01158 
L 309.635821 180.462258 
L 311.856716 179.642977 
L 316.298507 176.936872 
L 318.519403 175.318668 
L 320.740299 172.940705 
L 322.961194 170.331518 
L 325.18209 168.945818 
L 327.402985 167.379041 
L 334.065672 160.303772 
L 336.286567 158.171827 
L 338.507463 156.611757 
L 340.728358 155.829232 
L 342.949254 154.865082 
L 345.170149 153.144169 
L 349.61194 149.266188 
L 351.832836 147.510763 
L 354.053731 146.184543 
L 356.274627 145.571226 
L 358.495522 144.800882 
L 360.716418 143.422716 
L 365.158209 140.272698 
L 367.379104 138.542723 
L 369.6 136.986858 
L 371.820896 136.164342 
L 374.041791 135.074821 
L 380.704478 129.710071 
L 382.925373 128.122401 
L 385.146269 126.917887 
L 389.58806 125.776313 
L 391.808955 124.623277 
L 396.250746 121.860034 
L 398.471642 121.013197 
L 398.471642 121.013197 
" style="fill:none;stroke:#bcbd22;stroke-linecap:square;stroke-width:1.5;"/>
   </g>
   <g id="patch_3">
    <path d="M 72 384.48 
L 72 51.84 
" style="fill:none;stroke:#000000;stroke-linecap:square;stroke-linejoin:miter;stroke-width:0.8;"/>
   </g>
   <g id="patch_4">
    <path d="M 518.4 384.48 
L 518.4 51.84 
" style="fill:none;stroke:#000000;stroke-linecap:square;stroke-linejoin:miter;stroke-width:0.8;"/>
   </g>
   <g id="patch_5">
    <path d="M 72 384.48 
L 518.4 384.48 
" style="fill:none;stroke:#000000;stroke-linecap:square;stroke-linejoin:miter;stroke-width:0.8;"/>
   </g>
   <g id="patch_6">
    <path d="M 72 51.84 
L 518.4 51.84 
" style="fill:none;stroke:#000000;stroke-linecap:square;stroke-linejoin:miter;stroke-width:0.8;"/>
   </g>
   <g id="text_28">
    <!-- Second dose coverage by state/territory -->
    <g transform="translate(174.173437 45.84)scale(0.12 -0.12)">
     <defs>
      <path d="M 2906 2969 
L 2906 4863 
L 3481 4863 
L 3481 0 
L 2906 0 
L 2906 525 
Q 2725 213 2448 61 
Q 2172 -91 1784 -91 
Q 1150 -91 751 415 
Q 353 922 353 1747 
Q 353 2572 751 3078 
Q 1150 3584 1784 3584 
Q 2172 3584 2448 3432 
Q 2725 3281 2906 2969 
z
M 947 1747 
Q 947 1113 1208 752 
Q 1469 391 1925 391 
Q 2381 391 2643 752 
Q 2906 1113 2906 1747 
Q 2906 2381 2643 2742 
Q 2381 3103 1925 3103 
Q 1469 3103 1208 2742 
Q 947 2381 947 1747 
z
" id="DejaVuSans-64" transform="scale(0.015625)"/>
      <path d="M 2834 3397 
L 2834 2853 
Q 2591 2978 2328 3040 
Q 2066 3103 1784 3103 
Q 1356 3103 1142 2972 
Q 928 2841 928 2578 
Q 928 2378 1081 2264 
Q 1234 2150 1697 2047 
L 1894 2003 
Q 2506 1872 2764 1633 
Q 3022 1394 3022 966 
Q 3022 478 2636 193 
Q 2250 -91 1575 -91 
Q 1294 -91 989 -36 
Q 684 19 347 128 
L 347 722 
Q 666 556 975 473 
Q 1284 391 1588 391 
Q 1994 391 2212 530 
Q 2431 669 2431 922 
Q 2431 1156 2273 1281 
Q 2116 1406 1581 1522 
L 1381 1569 
Q 847 1681 609 1914 
Q 372 2147 372 2553 
Q 372 3047 722 3315 
Q 1072 3584 1716 3584 
Q 2034 3584 2315 3537 
Q 2597 3491 2834 3397 
z
" id="DejaVuSans-73" transform="scale(0.015625)"/>
      <path d="M 2059 -325 
Q 1816 -950 1584 -1140 
Q 1353 -1331 966 -1331 
L 506 -1331 
L 506 -850 
L 844 -850 
Q 1081 -850 1212 -737 
Q 1344 -625 1503 -206 
L 1606 56 
L 191 3500 
L 800 3500 
L 1894 763 
L 2988 3500 
L 3597 3500 
L 2059 -325 
z
" id="DejaVuSans-79" transform="scale(0.015625)"/>
      <path d="M 1625 4666 
L 2156 4666 
L 531 -594 
L 0 -594 
L 1625 4666 
z
" id="DejaVuSans-2f" transform="scale(0.015625)"/>
     </defs>
     <use xlink:href="#DejaVuSans-53"/>
     <use x="63.476562" xlink:href="#DejaVuSans-65"/>
     <use x="125" xlink:href="#DejaVuSans-63"/>
     <use x="179.980469" xlink:href="#DejaVuSans-6f"/>
     <use x="241.162109" xlink:href="#DejaVuSans-6e"/>
     <use x="304.541016" xlink:href="#DejaVuSans-64"/>
     <use x="368.017578" xlink:href="#DejaVuSans-20"/>
     <use x="399.804688" xlink:href="#DejaVuSans-64"/>
     <use x="463.28125" xlink:href="#DejaVuSans-6f"/>
     <use x="524.462891" xlink:href="#DejaVuSans-73"/>
     <use x="576.5625" xlink:href="#DejaVuSans-65"/>
     <use x="638.085938" xlink:href="#DejaVuSans-20"/>
     <use x="669.873047" xlink:href="#DejaVuSans-63"/>
     <use x="724.853516" xlink:href="#DejaVuSans-6f"/>
     <use x="786.035156" xlink:href="#DejaVuSans-76"/>
     <use x="845.214844" xlink:href="#DejaVuSans-65"/>
     <use x="906.738281" xlink:href="#DejaVuSans-72"/>
     <use x="947.851562" xlink:href="#DejaVuSans-61"/>
     <use x="1009.130859" xlink:href="#DejaVuSans-67"/>
     <use x="1072.607422" xlink:href="#DejaVuSans-65"/>
     <use x="1134.130859" xlink:href="#DejaVuSans-20"/>
     <use x="1165.917969" xlink:href="#DejaVuSans-62"/>
     <use x="1229.394531" xlink:href="#DejaVuSans-79"/>
     <use x="1288.574219" xlink:href="#DejaVuSans-20"/>
     <use x="1320.361328" xlink:href="#DejaVuSans-73"/>
     <use x="1372.460938" xlink:href="#DejaVuSans-74"/>
     <use x="1411.669922" xlink:href="#DejaVuSans-61"/>
     <use x="1472.949219" xlink:href="#DejaVuSans-74"/>
     <use x="1512.158203" xlink:href="#DejaVuSans-65"/>
     <use x="1573.681641" xlink:href="#DejaVuSans-2f"/>
     <use x="1607.373047" xlink:href="#DejaVuSans-74"/>
     <use x="1646.582031" xlink:href="#DejaVuSans-65"/>
     <use x="1708.105469" xlink:href="#DejaVuSans-72"/>
     <use x="1747.46875" xlink:href="#DejaVuSans-72"/>
     <use x="1788.582031" xlink:href="#DejaVuSans-69"/>
     <use x="1816.365234" xlink:href="#DejaVuSans-74"/>
     <use x="1855.574219" xlink:href="#DejaVuSans-6f"/>
     <use x="1916.755859" xlink:href="#DejaVuSans-72"/>
     <use x="1957.869141" xlink:href="#DejaVuSans-79"/>
    </g>
   </g>
   <g id="legend_1">
    <g id="patch_7">
     <path d="M 417.1225 380.48 
L 512.8 380.48 
Q 514.4 380.48 514.4 378.88 
L 514.4 273.9975 
Q 514.4 272.3975 512.8 272.3975 
L 417.1225 272.3975 
Q 415.5225 272.3975 415.5225 273.9975 
L 415.5225 378.88 
Q 415.5225 380.48 417.1225 380.48 
z
" style="fill:#ffffff;opacity:0.8;stroke:#cccccc;stroke-linejoin:miter;"/>
    </g>
    <g id="line2d_60">
     <path d="M 418.7225 278.87625 
L 434.7225 278.87625 
" style="fill:none;stroke:#1f77b4;stroke-linecap:square;stroke-width:1.5;"/>
    </g>
    <g id="line2d_61"/>
    <g id="text_29">
     <!-- National (87.8 %) -->
     <g transform="translate(441.1225 281.67625)scale(0.08 -0.08)">
      <defs>
       <path d="M 684 794 
L 1344 794 
L 1344 0 
L 684 0 
L 684 794 
z
" id="DejaVuSans-2e" transform="scale(0.015625)"/>
      </defs>
      <use xlink:href="#DejaVuSans-4e"/>
      <use x="74.804688" xlink:href="#DejaVuSans-61"/>
      <use x="136.083984" xlink:href="#DejaVuSans-74"/>
      <use x="175.292969" xlink:href="#DejaVuSans-69"/>
      <use x="203.076172" xlink:href="#DejaVuSans-6f"/>
      <use x="264.257812" xlink:href="#DejaVuSans-6e"/>
      <use x="327.636719" xlink:href="#DejaVuSans-61"/>
      <use x="388.916016" xlink:href="#DejaVuSans-6c"/>
      <use x="416.699219" xlink:href="#DejaVuSans-20"/>
      <use x="448.486328" xlink:href="#DejaVuSans-28"/>
      <use x="487.5" xlink:href="#DejaVuSans-38"/>
      <use x="551.123047" xlink:href="#DejaVuSans-37"/>
      <use x="614.746094" xlink:href="#DejaVuSans-2e"/>
      <use x="646.533203" xlink:href="#DejaVuSans-38"/>
      <use x="710.15625" xlink:href="#DejaVuSans-20"/>
      <use x="741.943359" xlink:href="#DejaVuSans-25"/>
      <use x="836.962891" xlink:href="#DejaVuSans-29"/>
     </g>
    </g>
    <g id="line2d_62">
     <path d="M 418.7225 290.61875 
L 434.7225 290.61875 
" style="fill:none;stroke:#ff7f0e;stroke-linecap:square;stroke-width:1.5;"/>
    </g>
    <g id="line2d_63"/>
    <g id="text_30">
     <!-- NSW (92.2 %) -->
     <g transform="translate(441.1225 293.41875)scale(0.08 -0.08)">
      <defs>
       <path d="M 213 4666 
L 850 4666 
L 1831 722 
L 2809 4666 
L 3519 4666 
L 4500 722 
L 5478 4666 
L 6119 4666 
L 4947 0 
L 4153 0 
L 3169 4050 
L 2175 0 
L 1381 0 
L 213 4666 
z
" id="DejaVuSans-57" transform="scale(0.015625)"/>
      </defs>
      <use xlink:href="#DejaVuSans-4e"/>
      <use x="74.804688" xlink:href="#DejaVuSans-53"/>
      <use x="138.28125" xlink:href="#DejaVuSans-57"/>
      <use x="237.158203" xlink:href="#DejaVuSans-20"/>
      <use x="268.945312" xlink:href="#DejaVuSans-28"/>
      <use x="307.958984" xlink:href="#DejaVuSans-39"/>
      <use x="371.582031" xlink:href="#DejaVuSans-32"/>
      <use x="435.205078" xlink:href="#DejaVuSans-2e"/>
      <use x="466.992188" xlink:href="#DejaVuSans-32"/>
      <use x="530.615234" xlink:href="#DejaVuSans-20"/>
      <use x="562.402344" xlink:href="#DejaVuSans-25"/>
      <use x="657.421875" xlink:href="#DejaVuSans-29"/>
     </g>
    </g>
    <g id="line2d_64">
     <path d="M 418.7225 302.36125 
L 434.7225 302.36125 
" style="fill:none;stroke:#2ca02c;stroke-linecap:square;stroke-width:1.5;"/>
    </g>
    <g id="line2d_65"/>
    <g id="text_31">
     <!-- VIC (91.0 %) -->
     <g transform="translate(441.1225 305.16125)scale(0.08 -0.08)">
      <defs>
       <path d="M 628 4666 
L 1259 4666 
L 1259 0 
L 628 0 
L 628 4666 
z
" id="DejaVuSans-49" transform="scale(0.015625)"/>
       <path d="M 4122 4306 
L 4122 3641 
Q 3803 3938 3442 4084 
Q 3081 4231 2675 4231 
Q 1875 4231 1450 3742 
Q 1025 3253 1025 2328 
Q 1025 1406 1450 917 
Q 1875 428 2675 428 
Q 3081 428 3442 575 
Q 3803 722 4122 1019 
L 4122 359 
Q 3791 134 3420 21 
Q 3050 -91 2638 -91 
Q 1578 -91 968 557 
Q 359 1206 359 2328 
Q 359 3453 968 4101 
Q 1578 4750 2638 4750 
Q 3056 4750 3426 4639 
Q 3797 4528 4122 4306 
z
" id="DejaVuSans-43" transform="scale(0.015625)"/>
      </defs>
      <use xlink:href="#DejaVuSans-56"/>
      <use x="68.408203" xlink:href="#DejaVuSans-49"/>
      <use x="97.900391" xlink:href="#DejaVuSans-43"/>
      <use x="167.724609" xlink:href="#DejaVuSans-20"/>
      <use x="199.511719" xlink:href="#DejaVuSans-28"/>
      <use x="238.525391" xlink:href="#DejaVuSans-39"/>
      <use x="302.148438" xlink:href="#DejaVuSans-31"/>
      <use x="365.771484" xlink:href="#DejaVuSans-2e"/>
      <use x="397.558594" xlink:href="#DejaVuSans-30"/>
      <use x="461.181641" xlink:href="#DejaVuSans-20"/>
      <use x="492.96875" xlink:href="#DejaVuSans-25"/>
      <use x="587.988281" xlink:href="#DejaVuSans-29"/>
     </g>
    </g>
    <g id="line2d_66">
     <path d="M 418.7225 314.10375 
L 434.7225 314.10375 
" style="fill:none;stroke:#d62728;stroke-linecap:square;stroke-width:1.5;"/>
    </g>
    <g id="line2d_67"/>
    <g id="text_32">
     <!-- QLD (79.1 %) -->
     <g transform="translate(441.1225 316.90375)scale(0.08 -0.08)">
      <defs>
       <path d="M 2522 4238 
Q 1834 4238 1429 3725 
Q 1025 3213 1025 2328 
Q 1025 1447 1429 934 
Q 1834 422 2522 422 
Q 3209 422 3611 934 
Q 4013 1447 4013 2328 
Q 4013 3213 3611 3725 
Q 3209 4238 2522 4238 
z
M 3406 84 
L 4238 -825 
L 3475 -825 
L 2784 -78 
Q 2681 -84 2626 -87 
Q 2572 -91 2522 -91 
Q 1538 -91 948 567 
Q 359 1225 359 2328 
Q 359 3434 948 4092 
Q 1538 4750 2522 4750 
Q 3503 4750 4090 4092 
Q 4678 3434 4678 2328 
Q 4678 1516 4351 937 
Q 4025 359 3406 84 
z
" id="DejaVuSans-51" transform="scale(0.015625)"/>
       <path d="M 628 4666 
L 1259 4666 
L 1259 531 
L 3531 531 
L 3531 0 
L 628 0 
L 628 4666 
z
" id="DejaVuSans-4c" transform="scale(0.015625)"/>
      </defs>
      <use xlink:href="#DejaVuSans-51"/>
      <use x="78.710938" xlink:href="#DejaVuSans-4c"/>
      <use x="134.423828" xlink:href="#DejaVuSans-44"/>
      <use x="211.425781" xlink:href="#DejaVuSans-20"/>
      <use x="243.212891" xlink:href="#DejaVuSans-28"/>
      <use x="282.226562" xlink:href="#DejaVuSans-37"/>
      <use x="345.849609" xlink:href="#DejaVuSans-39"/>
      <use x="409.472656" xlink:href="#DejaVuSans-2e"/>
      <use x="441.259766" xlink:href="#DejaVuSans-31"/>
      <use x="504.882812" xlink:href="#DejaVuSans-20"/>
      <use x="536.669922" xlink:href="#DejaVuSans-25"/>
      <use x="631.689453" xlink:href="#DejaVuSans-29"/>
     </g>
    </g>
    <g id="line2d_68">
     <path d="M 418.7225 325.84625 
L 434.7225 325.84625 
" style="fill:none;stroke:#9467bd;stroke-linecap:square;stroke-width:1.5;"/>
    </g>
    <g id="line2d_69"/>
    <g id="text_33">
     <!-- WA (77.4 %) -->
     <g transform="translate(441.1225 328.64625)scale(0.08 -0.08)">
      <use xlink:href="#DejaVuSans-57"/>
      <use x="93.376953" xlink:href="#DejaVuSans-41"/>
      <use x="161.785156" xlink:href="#DejaVuSans-20"/>
      <use x="193.572266" xlink:href="#DejaVuSans-28"/>
      <use x="232.585938" xlink:href="#DejaVuSans-37"/>
      <use x="296.208984" xlink:href="#DejaVuSans-37"/>
      <use x="359.832031" xlink:href="#DejaVuSans-2e"/>
      <use x="391.619141" xlink:href="#DejaVuSans-34"/>
      <use x="455.242188" xlink:href="#DejaVuSans-20"/>
      <use x="487.029297" xlink:href="#DejaVuSans-25"/>
      <use x="582.048828" xlink:href="#DejaVuSans-29"/>
     </g>
    </g>
    <g id="line2d_70">
     <path d="M 418.7225 337.58875 
L 434.7225 337.58875 
" style="fill:none;stroke:#8c564b;stroke-linecap:square;stroke-width:1.5;"/>
    </g>
    <g id="line2d_71"/>
    <g id="text_34">
     <!-- SA (82.5 %) -->
     <g transform="translate(441.1225 340.38875)scale(0.08 -0.08)">
      <use xlink:href="#DejaVuSans-53"/>
      <use x="65.351562" xlink:href="#DejaVuSans-41"/>
      <use x="133.759766" xlink:href="#DejaVuSans-20"/>
      <use x="165.546875" xlink:href="#DejaVuSans-28"/>
      <use x="204.560547" xlink:href="#DejaVuSans-38"/>
      <use x="268.183594" xlink:href="#DejaVuSans-32"/>
      <use x="331.806641" xlink:href="#DejaVuSans-2e"/>
      <use x="363.59375" xlink:href="#DejaVuSans-35"/>
      <use x="427.216797" xlink:href="#DejaVuSans-20"/>
      <use x="459.003906" xlink:href="#DejaVuSans-25"/>
      <use x="554.023438" xlink:href="#DejaVuSans-29"/>
     </g>
    </g>
    <g id="line2d_72">
     <path d="M 418.7225 349.33125 
L 434.7225 349.33125 
" style="fill:none;stroke:#e377c2;stroke-linecap:square;stroke-width:1.5;"/>
    </g>
    <g id="line2d_73"/>
    <g id="text_35">
     <!-- TAS (88.2 %) -->
     <g transform="translate(441.1225 352.13125)scale(0.08 -0.08)">
      <defs>
       <path d="M -19 4666 
L 3928 4666 
L 3928 4134 
L 2272 4134 
L 2272 0 
L 1638 0 
L 1638 4134 
L -19 4134 
L -19 4666 
z
" id="DejaVuSans-54" transform="scale(0.015625)"/>
      </defs>
      <use xlink:href="#DejaVuSans-54"/>
      <use x="53.333984" xlink:href="#DejaVuSans-41"/>
      <use x="121.742188" xlink:href="#DejaVuSans-53"/>
      <use x="185.21875" xlink:href="#DejaVuSans-20"/>
      <use x="217.005859" xlink:href="#DejaVuSans-28"/>
      <use x="256.019531" xlink:href="#DejaVuSans-38"/>
      <use x="319.642578" xlink:href="#DejaVuSans-38"/>
      <use x="383.265625" xlink:href="#DejaVuSans-2e"/>
      <use x="415.052734" xlink:href="#DejaVuSans-32"/>
      <use x="478.675781" xlink:href="#DejaVuSans-20"/>
      <use x="510.462891" xlink:href="#DejaVuSans-25"/>
      <use x="605.482422" xlink:href="#DejaVuSans-29"/>
     </g>
    </g>
    <g id="line2d_74">
     <path d="M 418.7225 361.07375 
L 434.7225 361.07375 
" style="fill:none;stroke:#7f7f7f;stroke-linecap:square;stroke-width:1.5;"/>
    </g>
    <g id="line2d_75"/>
    <g id="text_36">
     <!-- ACT (98.7 %) -->
     <g transform="translate(441.1225 363.87375)scale(0.08 -0.08)">
      <use xlink:href="#DejaVuSans-41"/>
      <use x="66.658203" xlink:href="#DejaVuSans-43"/>
      <use x="136.482422" xlink:href="#DejaVuSans-54"/>
      <use x="197.566406" xlink:href="#DejaVuSans-20"/>
      <use x="229.353516" xlink:href="#DejaVuSans-28"/>
      <use x="268.367188" xlink:href="#DejaVuSans-39"/>
      <use x="331.990234" xlink:href="#DejaVuSans-38"/>
      <use x="395.613281" xlink:href="#DejaVuSans-2e"/>
      <use x="427.400391" xlink:href="#DejaVuSans-37"/>
      <use x="491.023438" xlink:href="#DejaVuSans-20"/>
      <use x="522.810547" xlink:href="#DejaVuSans-25"/>
      <use x="617.830078" xlink:href="#DejaVuSans-29"/>
     </g>
    </g>
    <g id="line2d_76">
     <path d="M 418.7225 372.81625 
L 434.7225 372.81625 
" style="fill:none;stroke:#bcbd22;stroke-linecap:square;stroke-width:1.5;"/>
    </g>
    <g id="line2d_77"/>
    <g id="text_37">
     <!-- NT (79.3 %) -->
     <g transform="translate(441.1225 375.61625)scale(0.08 -0.08)">
      <use xlink:href="#DejaVuSans-4e"/>
      <use x="74.804688" xlink:href="#DejaVuSans-54"/>
      <use x="135.888672" xlink:href="#DejaVuSans-20"/>
      <use x="167.675781" xlink:href="#DejaVuSans-28"/>
      <use x="206.689453" xlink:href="#DejaVuSans-37"/>
      <use x="270.3125" xlink:href="#DejaVuSans-39"/>
      <use x="333.935547" xlink:href="#DejaVuSans-2e"/>
      <use x="365.722656" xlink:href="#DejaVuSans-33"/>
      <use x="429.345703" xlink:href="#DejaVuSans-20"/>
      <use x="461.132812" xlink:href="#DejaVuSans-25"/>
      <use x="556.152344" xlink:href="#DejaVuSans-29"/>
     </g>
    </g>
   </g>
  </g>
 </g>
 <defs>
  <clipPath id="paf58f2ea45">
   <rect height="332.64" width="446.4" x="72" y="51.84"/>
  </clipPath>
 </defs>
</svg>
