<?xml version="1.0" encoding="utf-8" standalone="no"?>
<!DOCTYPE svg PUBLIC "-//W3C//DTD SVG 1.1//EN"
  "http://www.w3.org/Graphics/SVG/1.1/DTD/svg11.dtd">
<svg height="432pt" version="1.1" viewBox="0 0 576 432" width="576pt" xmlns="http://www.w3.org/2000/svg" xmlns:xlink="http://www.w3.org/1999/xlink">
 <metadata>
  <rdf:RDF xmlns:cc="http://creativecommons.org/ns#" xmlns:dc="http://purl.org/dc/elements/1.1/" xmlns:rdf="http://www.w3.org/1999/02/22-rdf-syntax-ns#">
   <cc:Work>
    <dc:type rdf:resource="http://purl.org/dc/dcmitype/StillImage"/>
    <dc:date>2021-10-04T16:12:20.825820</dc:date>
    <dc:format>image/svg+xml</dc:format>
    <dc:creator>
     <cc:Agent>
      <dc:title>Matplotlib v3.4.3, https://matplotlib.org/</dc:title>
     </cc:Agent>
    </dc:creator>
   </cc:Work>
  </rdf:RDF>
 </metadata>
 <defs>
  <style type="text/css">*{stroke-linecap:butt;stroke-linejoin:round;}</style>
 </defs>
 <g id="figure_1">
  <g id="patch_1">
   <path d="M 0 432 
L 576 432 
L 576 0 
L 0 0 
z
" style="fill:#ffffff;"/>
  </g>
  <g id="axes_1">
   <g id="patch_2">
    <path d="M 72 384.48 
L 518.4 384.48 
L 518.4 51.84 
L 72 51.84 
z
" style="fill:#ffffff;"/>
   </g>
   <g id="matplotlib.axis_1">
    <g id="xtick_1">
     <g id="line2d_1">
      <path clip-path="url(#p6e9d79e15b)" d="M 72 384.48 
L 72 51.84 
" style="fill:none;stroke:#000000;stroke-dasharray:0.8,1.32;stroke-dashoffset:0;stroke-opacity:0.5;stroke-width:0.8;"/>
     </g>
     <g id="line2d_2">
      <defs>
       <path d="M 0 0 
L 0 3.5 
" id="m0ddf0566a8" style="stroke:#000000;stroke-width:0.8;"/>
      </defs>
      <g>
       <use style="stroke:#000000;stroke-width:0.8;" x="72" xlink:href="#m0ddf0566a8" y="384.48"/>
      </g>
     </g>
     <g id="text_1">
      <!-- 15 -->
      <g transform="translate(65.6375 399.078438)scale(0.1 -0.1)">
       <defs>
        <path d="M 794 531 
L 1825 531 
L 1825 4091 
L 703 3866 
L 703 4441 
L 1819 4666 
L 2450 4666 
L 2450 531 
L 3481 531 
L 3481 0 
L 794 0 
L 794 531 
z
" id="DejaVuSans-31" transform="scale(0.015625)"/>
        <path d="M 691 4666 
L 3169 4666 
L 3169 4134 
L 1269 4134 
L 1269 2991 
Q 1406 3038 1543 3061 
Q 1681 3084 1819 3084 
Q 2600 3084 3056 2656 
Q 3513 2228 3513 1497 
Q 3513 744 3044 326 
Q 2575 -91 1722 -91 
Q 1428 -91 1123 -41 
Q 819 9 494 109 
L 494 744 
Q 775 591 1075 516 
Q 1375 441 1709 441 
Q 2250 441 2565 725 
Q 2881 1009 2881 1497 
Q 2881 1984 2565 2268 
Q 2250 2553 1709 2553 
Q 1456 2553 1204 2497 
Q 953 2441 691 2322 
L 691 4666 
z
" id="DejaVuSans-35" transform="scale(0.015625)"/>
       </defs>
       <use xlink:href="#DejaVuSans-31"/>
       <use x="63.623047" xlink:href="#DejaVuSans-35"/>
      </g>
     </g>
    </g>
    <g id="xtick_2">
     <g id="line2d_3">
      <path clip-path="url(#p6e9d79e15b)" d="M 116.64 384.48 
L 116.64 51.84 
" style="fill:none;stroke:#000000;stroke-dasharray:0.8,1.32;stroke-dashoffset:0;stroke-opacity:0.5;stroke-width:0.8;"/>
     </g>
     <g id="line2d_4">
      <g>
       <use style="stroke:#000000;stroke-width:0.8;" x="116.64" xlink:href="#m0ddf0566a8" y="384.48"/>
      </g>
     </g>
     <g id="text_2">
      <!-- Aug -->
      <g transform="translate(106.876719 399.078438)scale(0.1 -0.1)">
       <defs>
        <path d="M 2188 4044 
L 1331 1722 
L 3047 1722 
L 2188 4044 
z
M 1831 4666 
L 2547 4666 
L 4325 0 
L 3669 0 
L 3244 1197 
L 1141 1197 
L 716 0 
L 50 0 
L 1831 4666 
z
" id="DejaVuSans-41" transform="scale(0.015625)"/>
        <path d="M 544 1381 
L 544 3500 
L 1119 3500 
L 1119 1403 
Q 1119 906 1312 657 
Q 1506 409 1894 409 
Q 2359 409 2629 706 
Q 2900 1003 2900 1516 
L 2900 3500 
L 3475 3500 
L 3475 0 
L 2900 0 
L 2900 538 
Q 2691 219 2414 64 
Q 2138 -91 1772 -91 
Q 1169 -91 856 284 
Q 544 659 544 1381 
z
M 1991 3584 
L 1991 3584 
z
" id="DejaVuSans-75" transform="scale(0.015625)"/>
        <path d="M 2906 1791 
Q 2906 2416 2648 2759 
Q 2391 3103 1925 3103 
Q 1463 3103 1205 2759 
Q 947 2416 947 1791 
Q 947 1169 1205 825 
Q 1463 481 1925 481 
Q 2391 481 2648 825 
Q 2906 1169 2906 1791 
z
M 3481 434 
Q 3481 -459 3084 -895 
Q 2688 -1331 1869 -1331 
Q 1566 -1331 1297 -1286 
Q 1028 -1241 775 -1147 
L 775 -588 
Q 1028 -725 1275 -790 
Q 1522 -856 1778 -856 
Q 2344 -856 2625 -561 
Q 2906 -266 2906 331 
L 2906 616 
Q 2728 306 2450 153 
Q 2172 0 1784 0 
Q 1141 0 747 490 
Q 353 981 353 1791 
Q 353 2603 747 3093 
Q 1141 3584 1784 3584 
Q 2172 3584 2450 3431 
Q 2728 3278 2906 2969 
L 2906 3500 
L 3481 3500 
L 3481 434 
z
" id="DejaVuSans-67" transform="scale(0.015625)"/>
       </defs>
       <use xlink:href="#DejaVuSans-41"/>
       <use x="68.408203" xlink:href="#DejaVuSans-75"/>
       <use x="131.787109" xlink:href="#DejaVuSans-67"/>
      </g>
     </g>
    </g>
    <g id="xtick_3">
     <g id="line2d_5">
      <path clip-path="url(#p6e9d79e15b)" d="M 153.402353 384.48 
L 153.402353 51.84 
" style="fill:none;stroke:#000000;stroke-dasharray:0.8,1.32;stroke-dashoffset:0;stroke-opacity:0.5;stroke-width:0.8;"/>
     </g>
     <g id="line2d_6">
      <g>
       <use style="stroke:#000000;stroke-width:0.8;" x="153.402353" xlink:href="#m0ddf0566a8" y="384.48"/>
      </g>
     </g>
     <g id="text_3">
      <!-- 15 -->
      <g transform="translate(147.039853 399.078438)scale(0.1 -0.1)">
       <use xlink:href="#DejaVuSans-31"/>
       <use x="63.623047" xlink:href="#DejaVuSans-35"/>
      </g>
     </g>
    </g>
    <g id="xtick_4">
     <g id="line2d_7">
      <path clip-path="url(#p6e9d79e15b)" d="M 198.042353 384.48 
L 198.042353 51.84 
" style="fill:none;stroke:#000000;stroke-dasharray:0.8,1.32;stroke-dashoffset:0;stroke-opacity:0.5;stroke-width:0.8;"/>
     </g>
     <g id="line2d_8">
      <g>
       <use style="stroke:#000000;stroke-width:0.8;" x="198.042353" xlink:href="#m0ddf0566a8" y="384.48"/>
      </g>
     </g>
     <g id="text_4">
      <!-- Sep -->
      <g transform="translate(188.617353 399.078438)scale(0.1 -0.1)">
       <defs>
        <path d="M 3425 4513 
L 3425 3897 
Q 3066 4069 2747 4153 
Q 2428 4238 2131 4238 
Q 1616 4238 1336 4038 
Q 1056 3838 1056 3469 
Q 1056 3159 1242 3001 
Q 1428 2844 1947 2747 
L 2328 2669 
Q 3034 2534 3370 2195 
Q 3706 1856 3706 1288 
Q 3706 609 3251 259 
Q 2797 -91 1919 -91 
Q 1588 -91 1214 -16 
Q 841 59 441 206 
L 441 856 
Q 825 641 1194 531 
Q 1563 422 1919 422 
Q 2459 422 2753 634 
Q 3047 847 3047 1241 
Q 3047 1584 2836 1778 
Q 2625 1972 2144 2069 
L 1759 2144 
Q 1053 2284 737 2584 
Q 422 2884 422 3419 
Q 422 4038 858 4394 
Q 1294 4750 2059 4750 
Q 2388 4750 2728 4690 
Q 3069 4631 3425 4513 
z
" id="DejaVuSans-53" transform="scale(0.015625)"/>
        <path d="M 3597 1894 
L 3597 1613 
L 953 1613 
Q 991 1019 1311 708 
Q 1631 397 2203 397 
Q 2534 397 2845 478 
Q 3156 559 3463 722 
L 3463 178 
Q 3153 47 2828 -22 
Q 2503 -91 2169 -91 
Q 1331 -91 842 396 
Q 353 884 353 1716 
Q 353 2575 817 3079 
Q 1281 3584 2069 3584 
Q 2775 3584 3186 3129 
Q 3597 2675 3597 1894 
z
M 3022 2063 
Q 3016 2534 2758 2815 
Q 2500 3097 2075 3097 
Q 1594 3097 1305 2825 
Q 1016 2553 972 2059 
L 3022 2063 
z
" id="DejaVuSans-65" transform="scale(0.015625)"/>
        <path d="M 1159 525 
L 1159 -1331 
L 581 -1331 
L 581 3500 
L 1159 3500 
L 1159 2969 
Q 1341 3281 1617 3432 
Q 1894 3584 2278 3584 
Q 2916 3584 3314 3078 
Q 3713 2572 3713 1747 
Q 3713 922 3314 415 
Q 2916 -91 2278 -91 
Q 1894 -91 1617 61 
Q 1341 213 1159 525 
z
M 3116 1747 
Q 3116 2381 2855 2742 
Q 2594 3103 2138 3103 
Q 1681 3103 1420 2742 
Q 1159 2381 1159 1747 
Q 1159 1113 1420 752 
Q 1681 391 2138 391 
Q 2594 391 2855 752 
Q 3116 1113 3116 1747 
z
" id="DejaVuSans-70" transform="scale(0.015625)"/>
       </defs>
       <use xlink:href="#DejaVuSans-53"/>
       <use x="63.476562" xlink:href="#DejaVuSans-65"/>
       <use x="125" xlink:href="#DejaVuSans-70"/>
      </g>
     </g>
    </g>
    <g id="xtick_5">
     <g id="line2d_9">
      <path clip-path="url(#p6e9d79e15b)" d="M 234.804706 384.48 
L 234.804706 51.84 
" style="fill:none;stroke:#000000;stroke-dasharray:0.8,1.32;stroke-dashoffset:0;stroke-opacity:0.5;stroke-width:0.8;"/>
     </g>
     <g id="line2d_10">
      <g>
       <use style="stroke:#000000;stroke-width:0.8;" x="234.804706" xlink:href="#m0ddf0566a8" y="384.48"/>
      </g>
     </g>
     <g id="text_5">
      <!-- 15 -->
      <g transform="translate(228.442206 399.078438)scale(0.1 -0.1)">
       <use xlink:href="#DejaVuSans-31"/>
       <use x="63.623047" xlink:href="#DejaVuSans-35"/>
      </g>
     </g>
    </g>
    <g id="xtick_6">
     <g id="line2d_11">
      <path clip-path="url(#p6e9d79e15b)" d="M 276.818824 384.48 
L 276.818824 51.84 
" style="fill:none;stroke:#000000;stroke-dasharray:0.8,1.32;stroke-dashoffset:0;stroke-opacity:0.5;stroke-width:0.8;"/>
     </g>
     <g id="line2d_12">
      <g>
       <use style="stroke:#000000;stroke-width:0.8;" x="276.818824" xlink:href="#m0ddf0566a8" y="384.48"/>
      </g>
     </g>
     <g id="text_6">
      <!-- Oct -->
      <g transform="translate(268.173511 399.078438)scale(0.1 -0.1)">
       <defs>
        <path d="M 2522 4238 
Q 1834 4238 1429 3725 
Q 1025 3213 1025 2328 
Q 1025 1447 1429 934 
Q 1834 422 2522 422 
Q 3209 422 3611 934 
Q 4013 1447 4013 2328 
Q 4013 3213 3611 3725 
Q 3209 4238 2522 4238 
z
M 2522 4750 
Q 3503 4750 4090 4092 
Q 4678 3434 4678 2328 
Q 4678 1225 4090 567 
Q 3503 -91 2522 -91 
Q 1538 -91 948 565 
Q 359 1222 359 2328 
Q 359 3434 948 4092 
Q 1538 4750 2522 4750 
z
" id="DejaVuSans-4f" transform="scale(0.015625)"/>
        <path d="M 3122 3366 
L 3122 2828 
Q 2878 2963 2633 3030 
Q 2388 3097 2138 3097 
Q 1578 3097 1268 2742 
Q 959 2388 959 1747 
Q 959 1106 1268 751 
Q 1578 397 2138 397 
Q 2388 397 2633 464 
Q 2878 531 3122 666 
L 3122 134 
Q 2881 22 2623 -34 
Q 2366 -91 2075 -91 
Q 1284 -91 818 406 
Q 353 903 353 1747 
Q 353 2603 823 3093 
Q 1294 3584 2113 3584 
Q 2378 3584 2631 3529 
Q 2884 3475 3122 3366 
z
" id="DejaVuSans-63" transform="scale(0.015625)"/>
        <path d="M 1172 4494 
L 1172 3500 
L 2356 3500 
L 2356 3053 
L 1172 3053 
L 1172 1153 
Q 1172 725 1289 603 
Q 1406 481 1766 481 
L 2356 481 
L 2356 0 
L 1766 0 
Q 1100 0 847 248 
Q 594 497 594 1153 
L 594 3053 
L 172 3053 
L 172 3500 
L 594 3500 
L 594 4494 
L 1172 4494 
z
" id="DejaVuSans-74" transform="scale(0.015625)"/>
       </defs>
       <use xlink:href="#DejaVuSans-4f"/>
       <use x="78.710938" xlink:href="#DejaVuSans-63"/>
       <use x="133.691406" xlink:href="#DejaVuSans-74"/>
      </g>
     </g>
    </g>
    <g id="xtick_7">
     <g id="line2d_13">
      <path clip-path="url(#p6e9d79e15b)" d="M 313.581176 384.48 
L 313.581176 51.84 
" style="fill:none;stroke:#000000;stroke-dasharray:0.8,1.32;stroke-dashoffset:0;stroke-opacity:0.5;stroke-width:0.8;"/>
     </g>
     <g id="line2d_14">
      <g>
       <use style="stroke:#000000;stroke-width:0.8;" x="313.581176" xlink:href="#m0ddf0566a8" y="384.48"/>
      </g>
     </g>
     <g id="text_7">
      <!-- 15 -->
      <g transform="translate(307.218676 399.078438)scale(0.1 -0.1)">
       <use xlink:href="#DejaVuSans-31"/>
       <use x="63.623047" xlink:href="#DejaVuSans-35"/>
      </g>
     </g>
    </g>
    <g id="xtick_8">
     <g id="line2d_15">
      <path clip-path="url(#p6e9d79e15b)" d="M 358.221176 384.48 
L 358.221176 51.84 
" style="fill:none;stroke:#000000;stroke-dasharray:0.8,1.32;stroke-dashoffset:0;stroke-opacity:0.5;stroke-width:0.8;"/>
     </g>
     <g id="line2d_16">
      <g>
       <use style="stroke:#000000;stroke-width:0.8;" x="358.221176" xlink:href="#m0ddf0566a8" y="384.48"/>
      </g>
     </g>
     <g id="text_8">
      <!-- Nov -->
      <g transform="translate(348.461801 399.078438)scale(0.1 -0.1)">
       <defs>
        <path d="M 628 4666 
L 1478 4666 
L 3547 763 
L 3547 4666 
L 4159 4666 
L 4159 0 
L 3309 0 
L 1241 3903 
L 1241 0 
L 628 0 
L 628 4666 
z
" id="DejaVuSans-4e" transform="scale(0.015625)"/>
        <path d="M 1959 3097 
Q 1497 3097 1228 2736 
Q 959 2375 959 1747 
Q 959 1119 1226 758 
Q 1494 397 1959 397 
Q 2419 397 2687 759 
Q 2956 1122 2956 1747 
Q 2956 2369 2687 2733 
Q 2419 3097 1959 3097 
z
M 1959 3584 
Q 2709 3584 3137 3096 
Q 3566 2609 3566 1747 
Q 3566 888 3137 398 
Q 2709 -91 1959 -91 
Q 1206 -91 779 398 
Q 353 888 353 1747 
Q 353 2609 779 3096 
Q 1206 3584 1959 3584 
z
" id="DejaVuSans-6f" transform="scale(0.015625)"/>
        <path d="M 191 3500 
L 800 3500 
L 1894 563 
L 2988 3500 
L 3597 3500 
L 2284 0 
L 1503 0 
L 191 3500 
z
" id="DejaVuSans-76" transform="scale(0.015625)"/>
       </defs>
       <use xlink:href="#DejaVuSans-4e"/>
       <use x="74.804688" xlink:href="#DejaVuSans-6f"/>
       <use x="135.986328" xlink:href="#DejaVuSans-76"/>
      </g>
     </g>
    </g>
    <g id="xtick_9">
     <g id="line2d_17">
      <path clip-path="url(#p6e9d79e15b)" d="M 394.983529 384.48 
L 394.983529 51.84 
" style="fill:none;stroke:#000000;stroke-dasharray:0.8,1.32;stroke-dashoffset:0;stroke-opacity:0.5;stroke-width:0.8;"/>
     </g>
     <g id="line2d_18">
      <g>
       <use style="stroke:#000000;stroke-width:0.8;" x="394.983529" xlink:href="#m0ddf0566a8" y="384.48"/>
      </g>
     </g>
     <g id="text_9">
      <!-- 15 -->
      <g transform="translate(388.621029 399.078438)scale(0.1 -0.1)">
       <use xlink:href="#DejaVuSans-31"/>
       <use x="63.623047" xlink:href="#DejaVuSans-35"/>
      </g>
     </g>
    </g>
    <g id="xtick_10">
     <g id="line2d_19">
      <path clip-path="url(#p6e9d79e15b)" d="M 436.997647 384.48 
L 436.997647 51.84 
" style="fill:none;stroke:#000000;stroke-dasharray:0.8,1.32;stroke-dashoffset:0;stroke-opacity:0.5;stroke-width:0.8;"/>
     </g>
     <g id="line2d_20">
      <g>
       <use style="stroke:#000000;stroke-width:0.8;" x="436.997647" xlink:href="#m0ddf0566a8" y="384.48"/>
      </g>
     </g>
     <g id="text_10">
      <!-- Dec -->
      <g transform="translate(427.321866 399.078438)scale(0.1 -0.1)">
       <defs>
        <path d="M 1259 4147 
L 1259 519 
L 2022 519 
Q 2988 519 3436 956 
Q 3884 1394 3884 2338 
Q 3884 3275 3436 3711 
Q 2988 4147 2022 4147 
L 1259 4147 
z
M 628 4666 
L 1925 4666 
Q 3281 4666 3915 4102 
Q 4550 3538 4550 2338 
Q 4550 1131 3912 565 
Q 3275 0 1925 0 
L 628 0 
L 628 4666 
z
" id="DejaVuSans-44" transform="scale(0.015625)"/>
       </defs>
       <use xlink:href="#DejaVuSans-44"/>
       <use x="77.001953" xlink:href="#DejaVuSans-65"/>
       <use x="138.525391" xlink:href="#DejaVuSans-63"/>
      </g>
     </g>
    </g>
    <g id="xtick_11">
     <g id="line2d_21">
      <path clip-path="url(#p6e9d79e15b)" d="M 473.76 384.48 
L 473.76 51.84 
" style="fill:none;stroke:#000000;stroke-dasharray:0.8,1.32;stroke-dashoffset:0;stroke-opacity:0.5;stroke-width:0.8;"/>
     </g>
     <g id="line2d_22">
      <g>
       <use style="stroke:#000000;stroke-width:0.8;" x="473.76" xlink:href="#m0ddf0566a8" y="384.48"/>
      </g>
     </g>
     <g id="text_11">
      <!-- 15 -->
      <g transform="translate(467.3975 399.078438)scale(0.1 -0.1)">
       <use xlink:href="#DejaVuSans-31"/>
       <use x="63.623047" xlink:href="#DejaVuSans-35"/>
      </g>
     </g>
    </g>
    <g id="xtick_12">
     <g id="line2d_23">
      <path clip-path="url(#p6e9d79e15b)" d="M 518.4 384.48 
L 518.4 51.84 
" style="fill:none;stroke:#000000;stroke-dasharray:0.8,1.32;stroke-dashoffset:0;stroke-opacity:0.5;stroke-width:0.8;"/>
     </g>
     <g id="line2d_24">
      <g>
       <use style="stroke:#000000;stroke-width:0.8;" x="518.4" xlink:href="#m0ddf0566a8" y="384.48"/>
      </g>
     </g>
     <g id="text_12">
      <!-- Jan -->
      <g transform="translate(510.692188 399.078438)scale(0.1 -0.1)">
       <defs>
        <path d="M 628 4666 
L 1259 4666 
L 1259 325 
Q 1259 -519 939 -900 
Q 619 -1281 -91 -1281 
L -331 -1281 
L -331 -750 
L -134 -750 
Q 284 -750 456 -515 
Q 628 -281 628 325 
L 628 4666 
z
" id="DejaVuSans-4a" transform="scale(0.015625)"/>
        <path d="M 2194 1759 
Q 1497 1759 1228 1600 
Q 959 1441 959 1056 
Q 959 750 1161 570 
Q 1363 391 1709 391 
Q 2188 391 2477 730 
Q 2766 1069 2766 1631 
L 2766 1759 
L 2194 1759 
z
M 3341 1997 
L 3341 0 
L 2766 0 
L 2766 531 
Q 2569 213 2275 61 
Q 1981 -91 1556 -91 
Q 1019 -91 701 211 
Q 384 513 384 1019 
Q 384 1609 779 1909 
Q 1175 2209 1959 2209 
L 2766 2209 
L 2766 2266 
Q 2766 2663 2505 2880 
Q 2244 3097 1772 3097 
Q 1472 3097 1187 3025 
Q 903 2953 641 2809 
L 641 3341 
Q 956 3463 1253 3523 
Q 1550 3584 1831 3584 
Q 2591 3584 2966 3190 
Q 3341 2797 3341 1997 
z
" id="DejaVuSans-61" transform="scale(0.015625)"/>
        <path d="M 3513 2113 
L 3513 0 
L 2938 0 
L 2938 2094 
Q 2938 2591 2744 2837 
Q 2550 3084 2163 3084 
Q 1697 3084 1428 2787 
Q 1159 2491 1159 1978 
L 1159 0 
L 581 0 
L 581 3500 
L 1159 3500 
L 1159 2956 
Q 1366 3272 1645 3428 
Q 1925 3584 2291 3584 
Q 2894 3584 3203 3211 
Q 3513 2838 3513 2113 
z
" id="DejaVuSans-6e" transform="scale(0.015625)"/>
       </defs>
       <use xlink:href="#DejaVuSans-4a"/>
       <use x="29.492188" xlink:href="#DejaVuSans-61"/>
       <use x="90.771484" xlink:href="#DejaVuSans-6e"/>
      </g>
     </g>
    </g>
    <g id="text_13">
     <!-- 2022-Jan -->
     <g transform="translate(473.364062 411.756563)scale(0.1 -0.1)">
      <defs>
       <path d="M 1228 531 
L 3431 531 
L 3431 0 
L 469 0 
L 469 531 
Q 828 903 1448 1529 
Q 2069 2156 2228 2338 
Q 2531 2678 2651 2914 
Q 2772 3150 2772 3378 
Q 2772 3750 2511 3984 
Q 2250 4219 1831 4219 
Q 1534 4219 1204 4116 
Q 875 4013 500 3803 
L 500 4441 
Q 881 4594 1212 4672 
Q 1544 4750 1819 4750 
Q 2544 4750 2975 4387 
Q 3406 4025 3406 3419 
Q 3406 3131 3298 2873 
Q 3191 2616 2906 2266 
Q 2828 2175 2409 1742 
Q 1991 1309 1228 531 
z
" id="DejaVuSans-32" transform="scale(0.015625)"/>
       <path d="M 2034 4250 
Q 1547 4250 1301 3770 
Q 1056 3291 1056 2328 
Q 1056 1369 1301 889 
Q 1547 409 2034 409 
Q 2525 409 2770 889 
Q 3016 1369 3016 2328 
Q 3016 3291 2770 3770 
Q 2525 4250 2034 4250 
z
M 2034 4750 
Q 2819 4750 3233 4129 
Q 3647 3509 3647 2328 
Q 3647 1150 3233 529 
Q 2819 -91 2034 -91 
Q 1250 -91 836 529 
Q 422 1150 422 2328 
Q 422 3509 836 4129 
Q 1250 4750 2034 4750 
z
" id="DejaVuSans-30" transform="scale(0.015625)"/>
       <path d="M 313 2009 
L 1997 2009 
L 1997 1497 
L 313 1497 
L 313 2009 
z
" id="DejaVuSans-2d" transform="scale(0.015625)"/>
      </defs>
      <use xlink:href="#DejaVuSans-32"/>
      <use x="63.623047" xlink:href="#DejaVuSans-30"/>
      <use x="127.246094" xlink:href="#DejaVuSans-32"/>
      <use x="190.869141" xlink:href="#DejaVuSans-32"/>
      <use x="254.492188" xlink:href="#DejaVuSans-2d"/>
      <use x="296.201172" xlink:href="#DejaVuSans-4a"/>
      <use x="325.693359" xlink:href="#DejaVuSans-61"/>
      <use x="386.972656" xlink:href="#DejaVuSans-6e"/>
     </g>
    </g>
   </g>
   <g id="matplotlib.axis_2">
    <g id="ytick_1">
     <g id="line2d_25">
      <path clip-path="url(#p6e9d79e15b)" d="M 72 384.48 
L 518.4 384.48 
" style="fill:none;stroke:#000000;stroke-dasharray:0.8,1.32;stroke-dashoffset:0;stroke-opacity:0.5;stroke-width:0.8;"/>
     </g>
     <g id="line2d_26">
      <defs>
       <path d="M 0 0 
L -3.5 0 
" id="m3525b79671" style="stroke:#000000;stroke-width:0.8;"/>
      </defs>
      <g>
       <use style="stroke:#000000;stroke-width:0.8;" x="72" xlink:href="#m3525b79671" y="384.48"/>
      </g>
     </g>
     <g id="text_14">
      <!-- 0 -->
      <g transform="translate(58.6375 388.279219)scale(0.1 -0.1)">
       <use xlink:href="#DejaVuSans-30"/>
      </g>
     </g>
    </g>
    <g id="ytick_2">
     <g id="line2d_27">
      <path clip-path="url(#p6e9d79e15b)" d="M 72 351.216 
L 518.4 351.216 
" style="fill:none;stroke:#000000;stroke-dasharray:0.8,1.32;stroke-dashoffset:0;stroke-opacity:0.5;stroke-width:0.8;"/>
     </g>
     <g id="line2d_28">
      <g>
       <use style="stroke:#000000;stroke-width:0.8;" x="72" xlink:href="#m3525b79671" y="351.216"/>
      </g>
     </g>
     <g id="text_15">
      <!-- 10 -->
      <g transform="translate(52.275 355.015219)scale(0.1 -0.1)">
       <use xlink:href="#DejaVuSans-31"/>
       <use x="63.623047" xlink:href="#DejaVuSans-30"/>
      </g>
     </g>
    </g>
    <g id="ytick_3">
     <g id="line2d_29">
      <path clip-path="url(#p6e9d79e15b)" d="M 72 317.952 
L 518.4 317.952 
" style="fill:none;stroke:#000000;stroke-dasharray:0.8,1.32;stroke-dashoffset:0;stroke-opacity:0.5;stroke-width:0.8;"/>
     </g>
     <g id="line2d_30">
      <g>
       <use style="stroke:#000000;stroke-width:0.8;" x="72" xlink:href="#m3525b79671" y="317.952"/>
      </g>
     </g>
     <g id="text_16">
      <!-- 20 -->
      <g transform="translate(52.275 321.751219)scale(0.1 -0.1)">
       <use xlink:href="#DejaVuSans-32"/>
       <use x="63.623047" xlink:href="#DejaVuSans-30"/>
      </g>
     </g>
    </g>
    <g id="ytick_4">
     <g id="line2d_31">
      <path clip-path="url(#p6e9d79e15b)" d="M 72 284.688 
L 518.4 284.688 
" style="fill:none;stroke:#000000;stroke-dasharray:0.8,1.32;stroke-dashoffset:0;stroke-opacity:0.5;stroke-width:0.8;"/>
     </g>
     <g id="line2d_32">
      <g>
       <use style="stroke:#000000;stroke-width:0.8;" x="72" xlink:href="#m3525b79671" y="284.688"/>
      </g>
     </g>
     <g id="text_17">
      <!-- 30 -->
      <g transform="translate(52.275 288.487219)scale(0.1 -0.1)">
       <defs>
        <path d="M 2597 2516 
Q 3050 2419 3304 2112 
Q 3559 1806 3559 1356 
Q 3559 666 3084 287 
Q 2609 -91 1734 -91 
Q 1441 -91 1130 -33 
Q 819 25 488 141 
L 488 750 
Q 750 597 1062 519 
Q 1375 441 1716 441 
Q 2309 441 2620 675 
Q 2931 909 2931 1356 
Q 2931 1769 2642 2001 
Q 2353 2234 1838 2234 
L 1294 2234 
L 1294 2753 
L 1863 2753 
Q 2328 2753 2575 2939 
Q 2822 3125 2822 3475 
Q 2822 3834 2567 4026 
Q 2313 4219 1838 4219 
Q 1578 4219 1281 4162 
Q 984 4106 628 3988 
L 628 4550 
Q 988 4650 1302 4700 
Q 1616 4750 1894 4750 
Q 2613 4750 3031 4423 
Q 3450 4097 3450 3541 
Q 3450 3153 3228 2886 
Q 3006 2619 2597 2516 
z
" id="DejaVuSans-33" transform="scale(0.015625)"/>
       </defs>
       <use xlink:href="#DejaVuSans-33"/>
       <use x="63.623047" xlink:href="#DejaVuSans-30"/>
      </g>
     </g>
    </g>
    <g id="ytick_5">
     <g id="line2d_33">
      <path clip-path="url(#p6e9d79e15b)" d="M 72 251.424 
L 518.4 251.424 
" style="fill:none;stroke:#000000;stroke-dasharray:0.8,1.32;stroke-dashoffset:0;stroke-opacity:0.5;stroke-width:0.8;"/>
     </g>
     <g id="line2d_34">
      <g>
       <use style="stroke:#000000;stroke-width:0.8;" x="72" xlink:href="#m3525b79671" y="251.424"/>
      </g>
     </g>
     <g id="text_18">
      <!-- 40 -->
      <g transform="translate(52.275 255.223219)scale(0.1 -0.1)">
       <defs>
        <path d="M 2419 4116 
L 825 1625 
L 2419 1625 
L 2419 4116 
z
M 2253 4666 
L 3047 4666 
L 3047 1625 
L 3713 1625 
L 3713 1100 
L 3047 1100 
L 3047 0 
L 2419 0 
L 2419 1100 
L 313 1100 
L 313 1709 
L 2253 4666 
z
" id="DejaVuSans-34" transform="scale(0.015625)"/>
       </defs>
       <use xlink:href="#DejaVuSans-34"/>
       <use x="63.623047" xlink:href="#DejaVuSans-30"/>
      </g>
     </g>
    </g>
    <g id="ytick_6">
     <g id="line2d_35">
      <path clip-path="url(#p6e9d79e15b)" d="M 72 218.16 
L 518.4 218.16 
" style="fill:none;stroke:#000000;stroke-dasharray:0.8,1.32;stroke-dashoffset:0;stroke-opacity:0.5;stroke-width:0.8;"/>
     </g>
     <g id="line2d_36">
      <g>
       <use style="stroke:#000000;stroke-width:0.8;" x="72" xlink:href="#m3525b79671" y="218.16"/>
      </g>
     </g>
     <g id="text_19">
      <!-- 50 -->
      <g transform="translate(52.275 221.959219)scale(0.1 -0.1)">
       <use xlink:href="#DejaVuSans-35"/>
       <use x="63.623047" xlink:href="#DejaVuSans-30"/>
      </g>
     </g>
    </g>
    <g id="ytick_7">
     <g id="line2d_37">
      <path clip-path="url(#p6e9d79e15b)" d="M 72 184.896 
L 518.4 184.896 
" style="fill:none;stroke:#000000;stroke-dasharray:0.8,1.32;stroke-dashoffset:0;stroke-opacity:0.5;stroke-width:0.8;"/>
     </g>
     <g id="line2d_38">
      <g>
       <use style="stroke:#000000;stroke-width:0.8;" x="72" xlink:href="#m3525b79671" y="184.896"/>
      </g>
     </g>
     <g id="text_20">
      <!-- 60 -->
      <g transform="translate(52.275 188.695219)scale(0.1 -0.1)">
       <defs>
        <path d="M 2113 2584 
Q 1688 2584 1439 2293 
Q 1191 2003 1191 1497 
Q 1191 994 1439 701 
Q 1688 409 2113 409 
Q 2538 409 2786 701 
Q 3034 994 3034 1497 
Q 3034 2003 2786 2293 
Q 2538 2584 2113 2584 
z
M 3366 4563 
L 3366 3988 
Q 3128 4100 2886 4159 
Q 2644 4219 2406 4219 
Q 1781 4219 1451 3797 
Q 1122 3375 1075 2522 
Q 1259 2794 1537 2939 
Q 1816 3084 2150 3084 
Q 2853 3084 3261 2657 
Q 3669 2231 3669 1497 
Q 3669 778 3244 343 
Q 2819 -91 2113 -91 
Q 1303 -91 875 529 
Q 447 1150 447 2328 
Q 447 3434 972 4092 
Q 1497 4750 2381 4750 
Q 2619 4750 2861 4703 
Q 3103 4656 3366 4563 
z
" id="DejaVuSans-36" transform="scale(0.015625)"/>
       </defs>
       <use xlink:href="#DejaVuSans-36"/>
       <use x="63.623047" xlink:href="#DejaVuSans-30"/>
      </g>
     </g>
    </g>
    <g id="ytick_8">
     <g id="line2d_39">
      <path clip-path="url(#p6e9d79e15b)" d="M 72 151.632 
L 518.4 151.632 
" style="fill:none;stroke:#000000;stroke-dasharray:0.8,1.32;stroke-dashoffset:0;stroke-opacity:0.5;stroke-width:0.8;"/>
     </g>
     <g id="line2d_40">
      <g>
       <use style="stroke:#000000;stroke-width:0.8;" x="72" xlink:href="#m3525b79671" y="151.632"/>
      </g>
     </g>
     <g id="text_21">
      <!-- 70 -->
      <g transform="translate(52.275 155.431219)scale(0.1 -0.1)">
       <defs>
        <path d="M 525 4666 
L 3525 4666 
L 3525 4397 
L 1831 0 
L 1172 0 
L 2766 4134 
L 525 4134 
L 525 4666 
z
" id="DejaVuSans-37" transform="scale(0.015625)"/>
       </defs>
       <use xlink:href="#DejaVuSans-37"/>
       <use x="63.623047" xlink:href="#DejaVuSans-30"/>
      </g>
     </g>
    </g>
    <g id="ytick_9">
     <g id="line2d_41">
      <path clip-path="url(#p6e9d79e15b)" d="M 72 118.368 
L 518.4 118.368 
" style="fill:none;stroke:#000000;stroke-dasharray:0.8,1.32;stroke-dashoffset:0;stroke-opacity:0.5;stroke-width:0.8;"/>
     </g>
     <g id="line2d_42">
      <g>
       <use style="stroke:#000000;stroke-width:0.8;" x="72" xlink:href="#m3525b79671" y="118.368"/>
      </g>
     </g>
     <g id="text_22">
      <!-- 80 -->
      <g transform="translate(52.275 122.167219)scale(0.1 -0.1)">
       <defs>
        <path d="M 2034 2216 
Q 1584 2216 1326 1975 
Q 1069 1734 1069 1313 
Q 1069 891 1326 650 
Q 1584 409 2034 409 
Q 2484 409 2743 651 
Q 3003 894 3003 1313 
Q 3003 1734 2745 1975 
Q 2488 2216 2034 2216 
z
M 1403 2484 
Q 997 2584 770 2862 
Q 544 3141 544 3541 
Q 544 4100 942 4425 
Q 1341 4750 2034 4750 
Q 2731 4750 3128 4425 
Q 3525 4100 3525 3541 
Q 3525 3141 3298 2862 
Q 3072 2584 2669 2484 
Q 3125 2378 3379 2068 
Q 3634 1759 3634 1313 
Q 3634 634 3220 271 
Q 2806 -91 2034 -91 
Q 1263 -91 848 271 
Q 434 634 434 1313 
Q 434 1759 690 2068 
Q 947 2378 1403 2484 
z
M 1172 3481 
Q 1172 3119 1398 2916 
Q 1625 2713 2034 2713 
Q 2441 2713 2670 2916 
Q 2900 3119 2900 3481 
Q 2900 3844 2670 4047 
Q 2441 4250 2034 4250 
Q 1625 4250 1398 4047 
Q 1172 3844 1172 3481 
z
" id="DejaVuSans-38" transform="scale(0.015625)"/>
       </defs>
       <use xlink:href="#DejaVuSans-38"/>
       <use x="63.623047" xlink:href="#DejaVuSans-30"/>
      </g>
     </g>
    </g>
    <g id="ytick_10">
     <g id="line2d_43">
      <path clip-path="url(#p6e9d79e15b)" d="M 72 85.104 
L 518.4 85.104 
" style="fill:none;stroke:#000000;stroke-dasharray:0.8,1.32;stroke-dashoffset:0;stroke-opacity:0.5;stroke-width:0.8;"/>
     </g>
     <g id="line2d_44">
      <g>
       <use style="stroke:#000000;stroke-width:0.8;" x="72" xlink:href="#m3525b79671" y="85.104"/>
      </g>
     </g>
     <g id="text_23">
      <!-- 90 -->
      <g transform="translate(52.275 88.903219)scale(0.1 -0.1)">
       <defs>
        <path d="M 703 97 
L 703 672 
Q 941 559 1184 500 
Q 1428 441 1663 441 
Q 2288 441 2617 861 
Q 2947 1281 2994 2138 
Q 2813 1869 2534 1725 
Q 2256 1581 1919 1581 
Q 1219 1581 811 2004 
Q 403 2428 403 3163 
Q 403 3881 828 4315 
Q 1253 4750 1959 4750 
Q 2769 4750 3195 4129 
Q 3622 3509 3622 2328 
Q 3622 1225 3098 567 
Q 2575 -91 1691 -91 
Q 1453 -91 1209 -44 
Q 966 3 703 97 
z
M 1959 2075 
Q 2384 2075 2632 2365 
Q 2881 2656 2881 3163 
Q 2881 3666 2632 3958 
Q 2384 4250 1959 4250 
Q 1534 4250 1286 3958 
Q 1038 3666 1038 3163 
Q 1038 2656 1286 2365 
Q 1534 2075 1959 2075 
z
" id="DejaVuSans-39" transform="scale(0.015625)"/>
       </defs>
       <use xlink:href="#DejaVuSans-39"/>
       <use x="63.623047" xlink:href="#DejaVuSans-30"/>
      </g>
     </g>
    </g>
    <g id="ytick_11">
     <g id="line2d_45">
      <path clip-path="url(#p6e9d79e15b)" d="M 72 51.84 
L 518.4 51.84 
" style="fill:none;stroke:#000000;stroke-dasharray:0.8,1.32;stroke-dashoffset:0;stroke-opacity:0.5;stroke-width:0.8;"/>
     </g>
     <g id="line2d_46">
      <g>
       <use style="stroke:#000000;stroke-width:0.8;" x="72" xlink:href="#m3525b79671" y="51.84"/>
      </g>
     </g>
     <g id="text_24">
      <!-- 100 -->
      <g transform="translate(45.9125 55.639219)scale(0.1 -0.1)">
       <use xlink:href="#DejaVuSans-31"/>
       <use x="63.623047" xlink:href="#DejaVuSans-30"/>
       <use x="127.246094" xlink:href="#DejaVuSans-30"/>
      </g>
     </g>
    </g>
    <g id="text_25">
     <!-- Vaccine coverage (% of 12+ population) -->
     <g transform="translate(39.832812 319.181094)rotate(-90)scale(0.1 -0.1)">
      <defs>
       <path d="M 1831 0 
L 50 4666 
L 709 4666 
L 2188 738 
L 3669 4666 
L 4325 4666 
L 2547 0 
L 1831 0 
z
" id="DejaVuSans-56" transform="scale(0.015625)"/>
       <path d="M 603 3500 
L 1178 3500 
L 1178 0 
L 603 0 
L 603 3500 
z
M 603 4863 
L 1178 4863 
L 1178 4134 
L 603 4134 
L 603 4863 
z
" id="DejaVuSans-69" transform="scale(0.015625)"/>
       <path id="DejaVuSans-20" transform="scale(0.015625)"/>
       <path d="M 2631 2963 
Q 2534 3019 2420 3045 
Q 2306 3072 2169 3072 
Q 1681 3072 1420 2755 
Q 1159 2438 1159 1844 
L 1159 0 
L 581 0 
L 581 3500 
L 1159 3500 
L 1159 2956 
Q 1341 3275 1631 3429 
Q 1922 3584 2338 3584 
Q 2397 3584 2469 3576 
Q 2541 3569 2628 3553 
L 2631 2963 
z
" id="DejaVuSans-72" transform="scale(0.015625)"/>
       <path d="M 1984 4856 
Q 1566 4138 1362 3434 
Q 1159 2731 1159 2009 
Q 1159 1288 1364 580 
Q 1569 -128 1984 -844 
L 1484 -844 
Q 1016 -109 783 600 
Q 550 1309 550 2009 
Q 550 2706 781 3412 
Q 1013 4119 1484 4856 
L 1984 4856 
z
" id="DejaVuSans-28" transform="scale(0.015625)"/>
       <path d="M 4653 2053 
Q 4381 2053 4226 1822 
Q 4072 1591 4072 1178 
Q 4072 772 4226 539 
Q 4381 306 4653 306 
Q 4919 306 5073 539 
Q 5228 772 5228 1178 
Q 5228 1588 5073 1820 
Q 4919 2053 4653 2053 
z
M 4653 2450 
Q 5147 2450 5437 2106 
Q 5728 1763 5728 1178 
Q 5728 594 5436 251 
Q 5144 -91 4653 -91 
Q 4153 -91 3862 251 
Q 3572 594 3572 1178 
Q 3572 1766 3864 2108 
Q 4156 2450 4653 2450 
z
M 1428 4353 
Q 1159 4353 1004 4120 
Q 850 3888 850 3481 
Q 850 3069 1003 2837 
Q 1156 2606 1428 2606 
Q 1700 2606 1854 2837 
Q 2009 3069 2009 3481 
Q 2009 3884 1853 4118 
Q 1697 4353 1428 4353 
z
M 4250 4750 
L 4750 4750 
L 1831 -91 
L 1331 -91 
L 4250 4750 
z
M 1428 4750 
Q 1922 4750 2215 4408 
Q 2509 4066 2509 3481 
Q 2509 2891 2217 2550 
Q 1925 2209 1428 2209 
Q 931 2209 642 2551 
Q 353 2894 353 3481 
Q 353 4063 643 4406 
Q 934 4750 1428 4750 
z
" id="DejaVuSans-25" transform="scale(0.015625)"/>
       <path d="M 2375 4863 
L 2375 4384 
L 1825 4384 
Q 1516 4384 1395 4259 
Q 1275 4134 1275 3809 
L 1275 3500 
L 2222 3500 
L 2222 3053 
L 1275 3053 
L 1275 0 
L 697 0 
L 697 3053 
L 147 3053 
L 147 3500 
L 697 3500 
L 697 3744 
Q 697 4328 969 4595 
Q 1241 4863 1831 4863 
L 2375 4863 
z
" id="DejaVuSans-66" transform="scale(0.015625)"/>
       <path d="M 2944 4013 
L 2944 2272 
L 4684 2272 
L 4684 1741 
L 2944 1741 
L 2944 0 
L 2419 0 
L 2419 1741 
L 678 1741 
L 678 2272 
L 2419 2272 
L 2419 4013 
L 2944 4013 
z
" id="DejaVuSans-2b" transform="scale(0.015625)"/>
       <path d="M 603 4863 
L 1178 4863 
L 1178 0 
L 603 0 
L 603 4863 
z
" id="DejaVuSans-6c" transform="scale(0.015625)"/>
       <path d="M 513 4856 
L 1013 4856 
Q 1481 4119 1714 3412 
Q 1947 2706 1947 2009 
Q 1947 1309 1714 600 
Q 1481 -109 1013 -844 
L 513 -844 
Q 928 -128 1133 580 
Q 1338 1288 1338 2009 
Q 1338 2731 1133 3434 
Q 928 4138 513 4856 
z
" id="DejaVuSans-29" transform="scale(0.015625)"/>
      </defs>
      <use xlink:href="#DejaVuSans-56"/>
      <use x="60.658203" xlink:href="#DejaVuSans-61"/>
      <use x="121.9375" xlink:href="#DejaVuSans-63"/>
      <use x="176.917969" xlink:href="#DejaVuSans-63"/>
      <use x="231.898438" xlink:href="#DejaVuSans-69"/>
      <use x="259.681641" xlink:href="#DejaVuSans-6e"/>
      <use x="323.060547" xlink:href="#DejaVuSans-65"/>
      <use x="384.583984" xlink:href="#DejaVuSans-20"/>
      <use x="416.371094" xlink:href="#DejaVuSans-63"/>
      <use x="471.351562" xlink:href="#DejaVuSans-6f"/>
      <use x="532.533203" xlink:href="#DejaVuSans-76"/>
      <use x="591.712891" xlink:href="#DejaVuSans-65"/>
      <use x="653.236328" xlink:href="#DejaVuSans-72"/>
      <use x="694.349609" xlink:href="#DejaVuSans-61"/>
      <use x="755.628906" xlink:href="#DejaVuSans-67"/>
      <use x="819.105469" xlink:href="#DejaVuSans-65"/>
      <use x="880.628906" xlink:href="#DejaVuSans-20"/>
      <use x="912.416016" xlink:href="#DejaVuSans-28"/>
      <use x="951.429688" xlink:href="#DejaVuSans-25"/>
      <use x="1046.449219" xlink:href="#DejaVuSans-20"/>
      <use x="1078.236328" xlink:href="#DejaVuSans-6f"/>
      <use x="1139.417969" xlink:href="#DejaVuSans-66"/>
      <use x="1174.623047" xlink:href="#DejaVuSans-20"/>
      <use x="1206.410156" xlink:href="#DejaVuSans-31"/>
      <use x="1270.033203" xlink:href="#DejaVuSans-32"/>
      <use x="1333.65625" xlink:href="#DejaVuSans-2b"/>
      <use x="1417.445312" xlink:href="#DejaVuSans-20"/>
      <use x="1449.232422" xlink:href="#DejaVuSans-70"/>
      <use x="1512.708984" xlink:href="#DejaVuSans-6f"/>
      <use x="1573.890625" xlink:href="#DejaVuSans-70"/>
      <use x="1637.367188" xlink:href="#DejaVuSans-75"/>
      <use x="1700.746094" xlink:href="#DejaVuSans-6c"/>
      <use x="1728.529297" xlink:href="#DejaVuSans-61"/>
      <use x="1789.808594" xlink:href="#DejaVuSans-74"/>
      <use x="1829.017578" xlink:href="#DejaVuSans-69"/>
      <use x="1856.800781" xlink:href="#DejaVuSans-6f"/>
      <use x="1917.982422" xlink:href="#DejaVuSans-6e"/>
      <use x="1981.361328" xlink:href="#DejaVuSans-29"/>
     </g>
    </g>
   </g>
   <g id="line2d_47">
    <path clip-path="url(#p6e9d79e15b)" d="M -1 371.829209 
L 3.727059 371.319052 
L 6.352941 369.997602 
L 8.978824 368.042472 
L 11.604706 367.446702 
L 22.108235 365.900559 
L 24.734118 364.368218 
L 27.36 362.163521 
L 29.985882 361.467853 
L 32.611765 360.106714 
L 35.237647 357.962419 
L 37.863529 356.78177 
L 43.115294 355.511769 
L 45.741176 354.476958 
L 53.618824 350.94479 
L 56.244706 349.968033 
L 61.496471 348.640313 
L 64.122353 347.48656 
L 72 343.455403 
L 74.625882 342.392571 
L 79.877647 340.979358 
L 82.503529 339.790195 
L 90.381176 335.613786 
L 93.007059 334.468152 
L 98.258824 332.86214 
L 100.884706 331.53199 
L 108.762353 326.724041 
L 111.388235 325.404987 
L 116.64 323.572675 
L 119.265882 322.076662 
L 124.517647 318.591596 
L 127.143529 316.805711 
L 129.769412 315.226331 
L 135.021176 313.040156 
L 137.647059 311.332356 
L 148.150588 303.592968 
L 150.776471 302.546186 
L 153.402353 301.366606 
L 156.028235 299.481156 
L 161.28 295.252938 
L 163.905882 293.089689 
L 166.531765 291.24733 
L 171.783529 288.762746 
L 174.409412 286.837066 
L 182.287059 280.180036 
L 184.912941 278.317371 
L 190.164706 275.757041 
L 192.790588 273.801426 
L 200.668235 267.326079 
L 203.294118 265.533506 
L 208.545882 263.165251 
L 211.171765 261.29359 
L 216.423529 256.928572 
L 219.049412 254.66822 
L 221.675294 252.770605 
L 224.301176 251.516939 
L 226.927059 250.100354 
L 232.178824 245.752907 
L 240.056471 239.03627 
L 245.308235 235.975625 
L 247.934118 233.679352 
L 255.811765 226.079466 
L 258.437647 223.872991 
L 263.689412 220.673488 
L 266.315294 218.267113 
L 271.567059 213.046938 
L 274.192941 210.295647 
L 276.818824 207.895052 
L 279.444706 206.311141 
L 282.070588 205.584649 
L 282.070588 205.584649 
" style="fill:none;stroke:#1f77b4;stroke-linecap:square;stroke-width:1.5;"/>
   </g>
   <g id="line2d_48">
    <path clip-path="url(#p6e9d79e15b)" d="M -1 370.874671 
L 1.101176 370.561774 
L 3.727059 370.314441 
L 6.352941 369.188509 
L 8.978824 367.43705 
L 11.604706 366.793371 
L 16.856471 365.955736 
L 22.108235 365.453233 
L 24.734118 364.251478 
L 27.36 362.428007 
L 29.985882 361.900715 
L 32.611765 360.739307 
L 35.237647 358.786841 
L 37.863529 357.85804 
L 43.115294 356.969694 
L 48.367059 355.022969 
L 53.618824 353.015472 
L 56.244706 352.207451 
L 58.870588 351.751266 
L 61.496471 351.173364 
L 64.122353 349.983534 
L 72 345.708562 
L 74.625882 344.564978 
L 77.251765 343.880305 
L 79.877647 343.078298 
L 82.503529 341.763439 
L 93.007059 335.748656 
L 98.258824 333.987449 
L 100.884706 332.580418 
L 108.762353 326.927111 
L 111.388235 325.409094 
L 116.64 323.300914 
L 119.265882 321.597077 
L 129.769412 313.935647 
L 132.395294 312.614088 
L 135.021176 311.50463 
L 137.647059 309.565158 
L 145.524706 302.734023 
L 148.150588 300.861259 
L 150.776471 299.744216 
L 153.402353 298.449162 
L 156.028235 296.41039 
L 161.28 291.674883 
L 163.905882 289.343406 
L 166.531765 287.369064 
L 171.783529 284.777533 
L 174.409412 282.615297 
L 179.661176 277.504829 
L 182.287059 274.945594 
L 184.912941 272.911502 
L 187.538824 271.609912 
L 190.164706 269.895309 
L 200.668235 259.731152 
L 203.294118 257.558652 
L 208.545882 254.738688 
L 211.171765 252.312641 
L 216.423529 246.646032 
L 219.049412 243.559895 
L 221.675294 240.88732 
L 224.301176 239.202735 
L 226.927059 237.192019 
L 232.178824 230.838206 
L 234.804706 227.573252 
L 240.056471 220.709657 
L 242.682353 218.572039 
L 245.308235 216.273802 
L 247.934118 212.69744 
L 258.437647 197.365394 
L 263.689412 192.667694 
L 274.192941 177.597237 
L 276.818824 174.320747 
L 279.444706 172.522081 
L 282.070588 171.840907 
L 282.070588 171.840907 
" style="fill:none;stroke:#ff7f0e;stroke-linecap:square;stroke-width:1.5;"/>
   </g>
   <g id="line2d_49">
    <path clip-path="url(#p6e9d79e15b)" d="M -1 373.788433 
L 3.727059 373.036272 
L 6.352941 371.604299 
L 8.978824 369.522894 
L 11.604706 368.780415 
L 14.230588 368.184342 
L 16.856471 367.125715 
L 19.482353 366.364384 
L 22.108235 365.774273 
L 24.734118 364.25202 
L 27.36 362.180158 
L 29.985882 361.165229 
L 32.611765 359.606243 
L 35.237647 357.496018 
L 37.863529 356.146353 
L 43.115294 354.491613 
L 53.618824 349.352669 
L 56.244706 348.304202 
L 61.496471 346.832299 
L 66.748235 344.40757 
L 72 341.932744 
L 74.625882 340.931019 
L 79.877647 339.56764 
L 85.129412 337.169259 
L 93.007059 333.5256 
L 98.258824 331.922959 
L 100.884706 330.61413 
L 103.510588 329.080237 
L 106.136471 327.359679 
L 108.762353 325.867563 
L 111.388235 324.672834 
L 114.014118 323.886888 
L 116.64 322.952123 
L 121.891765 320.074993 
L 129.769412 315.350387 
L 132.395294 314.285894 
L 135.021176 313.092351 
L 137.647059 311.41164 
L 142.898824 307.705186 
L 145.524706 305.797264 
L 148.150588 304.10713 
L 150.776471 303.08421 
L 153.402353 301.919058 
L 158.654118 297.894201 
L 163.905882 293.568329 
L 166.531765 291.628763 
L 171.783529 288.87444 
L 174.409412 286.91502 
L 179.661176 282.769596 
L 184.912941 278.986663 
L 187.538824 277.49198 
L 190.164706 276.328015 
L 192.790588 274.593079 
L 195.416471 272.487764 
L 200.668235 268.634897 
L 203.294118 267.01314 
L 208.545882 264.935831 
L 211.171765 263.386252 
L 219.049412 258.24221 
L 221.675294 256.903855 
L 226.927059 255.000609 
L 232.178824 251.924163 
L 240.056471 247.209742 
L 242.682353 246.13956 
L 245.308235 244.940196 
L 247.934118 243.220854 
L 250.56 241.332484 
L 253.185882 239.29522 
L 255.811765 237.472811 
L 261.063529 234.883533 
L 263.689412 233.333903 
L 268.941176 228.956088 
L 271.567059 226.605151 
L 276.818824 221.594554 
L 279.444706 219.728944 
L 282.070588 218.803642 
L 282.070588 218.803642 
" style="fill:none;stroke:#2ca02c;stroke-linecap:square;stroke-width:1.5;"/>
   </g>
   <g id="line2d_50">
    <path clip-path="url(#p6e9d79e15b)" d="M -1 374.740571 
L 1.101176 374.739835 
L 3.727059 374.619323 
L 6.352941 372.956965 
L 8.978824 370.550941 
L 11.604706 370.185551 
L 19.482353 370.178424 
L 22.108235 370.008094 
L 24.734118 367.658537 
L 27.36 364.256997 
L 29.985882 363.623064 
L 32.611765 361.959653 
L 35.237647 359.066331 
L 37.863529 357.581443 
L 40.489412 356.766176 
L 43.115294 356.13845 
L 45.741176 355.167387 
L 48.367059 353.803765 
L 53.618824 350.81946 
L 56.244706 349.642197 
L 61.496471 348.179577 
L 64.122353 347.137295 
L 69.374118 344.235807 
L 72 342.787643 
L 74.625882 341.631271 
L 77.251765 340.867843 
L 79.877647 340.296329 
L 82.503529 339.41847 
L 87.755294 336.797876 
L 90.381176 335.477966 
L 93.007059 334.402494 
L 98.258824 333.133899 
L 106.136471 330.4423 
L 108.762353 329.040046 
L 111.388235 327.876796 
L 116.64 326.394103 
L 119.265882 325.140668 
L 121.891765 323.446695 
L 127.143529 319.764191 
L 129.769412 318.329206 
L 135.021176 316.676709 
L 137.647059 315.330969 
L 142.898824 311.843927 
L 145.524706 310.058939 
L 148.150588 308.582356 
L 153.402353 306.784462 
L 156.028235 305.315998 
L 163.905882 300.134357 
L 166.531765 298.727523 
L 171.783529 296.970188 
L 174.409412 295.542578 
L 177.035294 293.732297 
L 182.287059 289.777075 
L 184.912941 288.236744 
L 190.164706 286.324394 
L 192.790588 284.870856 
L 195.416471 283.057188 
L 200.668235 279.172326 
L 203.294118 277.600701 
L 208.545882 275.45503 
L 211.171765 273.895856 
L 221.675294 266.502182 
L 226.927059 264.273958 
L 229.552941 262.708452 
L 237.430588 257.234255 
L 240.056471 255.706593 
L 245.308235 253.471324 
L 250.56 250.130735 
L 255.811765 246.495997 
L 258.437647 244.981084 
L 263.689412 242.775848 
L 266.315294 241.234481 
L 271.567059 237.561975 
L 274.192941 235.628016 
L 276.818824 233.985066 
L 279.444706 232.81893 
L 282.070588 232.221877 
L 282.070588 232.221877 
" style="fill:none;stroke:#d62728;stroke-linecap:square;stroke-width:1.5;"/>
   </g>
   <g id="line2d_51">
    <path clip-path="url(#p6e9d79e15b)" d="M -1 370.195593 
L 1.101176 369.887607 
L 3.727059 369.337709 
L 6.352941 368.97555 
L 11.604706 367.81653 
L 14.230588 367.106185 
L 19.482353 366.130007 
L 22.108235 365.438629 
L 24.734118 365.037891 
L 27.36 364.51452 
L 32.611765 363.05475 
L 37.863529 361.464815 
L 43.115294 360.479594 
L 48.367059 358.907965 
L 53.618824 357.252351 
L 56.244706 356.588127 
L 61.496471 355.56522 
L 64.122353 354.60404 
L 69.374118 352.350417 
L 72 351.37069 
L 74.625882 350.591535 
L 79.877647 349.332695 
L 82.503529 348.269382 
L 90.381176 344.470116 
L 93.007059 343.51489 
L 95.632941 342.805886 
L 98.258824 341.868433 
L 106.136471 337.404921 
L 108.762353 335.887233 
L 111.388235 334.663749 
L 114.014118 333.801153 
L 116.64 332.757814 
L 121.891765 329.533979 
L 127.143529 326.19514 
L 129.769412 324.809327 
L 132.395294 323.796604 
L 135.021176 322.588968 
L 140.272941 319.064418 
L 145.524706 315.286077 
L 148.150588 313.736216 
L 150.776471 312.613596 
L 153.402353 311.239193 
L 158.654118 307.380764 
L 163.905882 303.312131 
L 166.531765 301.544397 
L 171.783529 298.746648 
L 174.409412 296.811655 
L 182.287059 290.575441 
L 184.912941 288.801063 
L 190.164706 286.60897 
L 192.790588 285.138862 
L 198.042353 281.630353 
L 200.668235 279.822747 
L 203.294118 278.284469 
L 205.92 277.216149 
L 208.545882 276.012201 
L 213.797647 272.261556 
L 219.049412 268.27659 
L 221.675294 266.61809 
L 226.927059 264.143075 
L 234.804706 258.910851 
L 237.430588 257.09598 
L 240.056471 255.502886 
L 245.308235 252.948218 
L 250.56 249.784457 
L 255.811765 246.402346 
L 258.437647 244.953135 
L 261.063529 243.972491 
L 263.689412 243.145193 
L 266.315294 241.990323 
L 271.567059 238.330803 
L 274.192941 236.441554 
L 276.818824 234.793744 
L 279.444706 233.53034 
L 282.070588 232.856277 
L 282.070588 232.856277 
" style="fill:none;stroke:#9467bd;stroke-linecap:square;stroke-width:1.5;"/>
   </g>
   <g id="line2d_52">
    <path clip-path="url(#p6e9d79e15b)" d="M -1 370.973739 
L 3.727059 370.870655 
L 6.352941 369.45734 
L 8.978824 367.411768 
L 11.604706 367.101118 
L 19.482353 367.095117 
L 22.108235 366.958038 
L 24.734118 365.067143 
L 27.36 362.329625 
L 29.985882 361.819199 
L 32.611765 360.47304 
L 35.237647 358.080544 
L 37.863529 356.84273 
L 43.115294 355.569472 
L 45.741176 354.542664 
L 48.367059 353.287284 
L 53.618824 350.566197 
L 56.244706 349.489267 
L 61.496471 347.95978 
L 64.122353 346.768079 
L 72 342.589092 
L 74.625882 341.494657 
L 79.877647 340.063729 
L 82.503529 338.963196 
L 85.129412 337.575077 
L 90.381176 334.599146 
L 93.007059 333.461922 
L 95.632941 332.704461 
L 98.258824 331.80744 
L 100.884706 330.482 
L 106.136471 327.415975 
L 108.762353 325.86752 
L 111.388235 324.722093 
L 114.014118 324.047564 
L 116.64 323.19081 
L 119.265882 321.820475 
L 127.143529 316.899727 
L 129.769412 315.55667 
L 135.021176 313.683071 
L 137.647059 312.115472 
L 140.272941 310.241653 
L 145.524706 306.239489 
L 148.150588 304.717916 
L 150.776471 303.804262 
L 153.402353 302.708731 
L 156.028235 300.924007 
L 163.905882 294.79565 
L 166.531765 293.101024 
L 169.157647 292.103791 
L 171.783529 290.962493 
L 174.409412 289.054506 
L 182.287059 282.310526 
L 184.912941 280.467047 
L 190.164706 278.02575 
L 192.790588 276.174608 
L 200.668235 270.035477 
L 203.294118 268.464449 
L 208.545882 266.673516 
L 211.171765 265.192383 
L 216.423529 261.415994 
L 219.049412 259.559576 
L 221.675294 258.123557 
L 224.301176 257.200265 
L 226.927059 256.035635 
L 232.178824 252.371114 
L 237.430588 248.702424 
L 240.056471 247.201994 
L 242.682353 246.161959 
L 245.308235 244.943914 
L 247.934118 243.204155 
L 255.811765 237.417254 
L 258.437647 235.75153 
L 263.689412 233.283676 
L 266.315294 231.580303 
L 271.567059 227.738441 
L 274.192941 225.799572 
L 276.818824 224.195583 
L 279.444706 223.103222 
L 282.070588 222.564745 
L 282.070588 222.564745 
" style="fill:none;stroke:#8c564b;stroke-linecap:square;stroke-width:1.5;"/>
   </g>
   <g id="line2d_53">
    <path clip-path="url(#p6e9d79e15b)" d="M -1 364.943224 
L 1.101176 364.941693 
L 3.727059 364.690522 
L 6.352941 361.225823 
L 8.978824 356.211167 
L 11.604706 355.44962 
L 19.482353 355.436044 
L 22.108235 355.249253 
L 24.734118 352.672625 
L 27.36 348.942539 
L 29.985882 348.272609 
L 32.611765 346.799839 
L 35.237647 344.177332 
L 37.863529 342.737239 
L 40.489412 341.996664 
L 43.115294 341.08698 
L 45.741176 339.780736 
L 50.992941 338.301447 
L 53.618824 337.408085 
L 56.244706 335.650852 
L 58.870588 333.491202 
L 61.496471 332.47832 
L 72 327.498434 
L 74.625882 326.541837 
L 77.251765 326.039699 
L 79.877647 325.155443 
L 82.503529 323.560461 
L 87.755294 320.700423 
L 90.381176 319.487715 
L 93.007059 318.538879 
L 95.632941 318.067872 
L 98.258824 317.098669 
L 106.136471 311.71459 
L 108.762353 310.046501 
L 111.388235 308.609171 
L 116.64 306.579074 
L 119.265882 305.065697 
L 124.517647 301.565868 
L 129.769412 298.614045 
L 132.395294 297.325789 
L 135.021176 295.886309 
L 137.647059 293.810062 
L 140.272941 291.564142 
L 145.524706 286.605348 
L 148.150588 284.538757 
L 150.776471 282.997076 
L 153.402353 281.703371 
L 156.028235 279.849435 
L 158.654118 277.734259 
L 163.905882 272.944333 
L 166.531765 270.895172 
L 169.157647 269.275158 
L 171.783529 267.874134 
L 174.409412 265.980411 
L 177.035294 263.77551 
L 182.287059 258.562288 
L 184.912941 256.322467 
L 187.538824 254.741772 
L 190.164706 253.518786 
L 192.790588 251.457425 
L 195.416471 248.960526 
L 198.042353 246.730284 
L 200.668235 244.754003 
L 203.294118 243.091787 
L 205.92 241.849156 
L 211.171765 239.52379 
L 213.797647 237.993407 
L 216.423529 235.970804 
L 219.049412 234.152913 
L 221.675294 232.880546 
L 224.301176 232.106776 
L 226.927059 231.123158 
L 229.552941 229.220669 
L 232.178824 227.503958 
L 242.682353 221.459128 
L 245.308235 219.76351 
L 247.934118 217.58473 
L 253.185882 212.644716 
L 258.437647 208.684004 
L 261.063529 207.107097 
L 263.689412 205.874592 
L 266.315294 204.182507 
L 268.941176 202.137761 
L 274.192941 197.71412 
L 276.818824 196.392462 
L 279.444706 195.713501 
L 282.070588 195.478397 
L 282.070588 195.478397 
" style="fill:none;stroke:#e377c2;stroke-linecap:square;stroke-width:1.5;"/>
   </g>
   <g id="line2d_54">
    <path clip-path="url(#p6e9d79e15b)" d="M -1 372.250733 
L 1.101176 372.249724 
L 3.727059 372.084856 
L 6.352941 369.810638 
L 8.978824 366.519033 
L 11.604706 366.019156 
L 19.482353 366.00995 
L 22.108235 365.84861 
L 24.734118 363.623057 
L 27.36 360.400968 
L 29.985882 359.790604 
L 32.611765 358.059673 
L 35.237647 354.846813 
L 37.863529 353.192745 
L 40.489412 352.563504 
L 43.115294 351.278632 
L 45.741176 349.554134 
L 56.244706 345.24206 
L 58.870588 344.656843 
L 61.496471 343.462626 
L 64.122353 341.596854 
L 66.748235 340.181323 
L 72 337.983068 
L 74.625882 336.978091 
L 77.251765 336.296028 
L 79.877647 334.071314 
L 82.503529 330.558845 
L 85.129412 329.070868 
L 87.755294 327.715072 
L 90.381176 326.122448 
L 93.007059 325.318301 
L 95.632941 324.793896 
L 98.258824 322.530118 
L 100.884706 318.853059 
L 103.510588 317.500848 
L 106.136471 316.922603 
L 108.762353 315.522864 
L 111.388235 313.66335 
L 114.014118 312.335455 
L 116.64 310.873918 
L 119.265882 308.79089 
L 121.891765 307.305984 
L 124.517647 306.214588 
L 127.143529 304.942065 
L 129.769412 303.383805 
L 132.395294 302.096604 
L 135.021176 300.588001 
L 137.647059 298.81065 
L 140.272941 297.19574 
L 142.898824 295.312382 
L 145.524706 292.892472 
L 148.150588 290.146808 
L 150.776471 288.952553 
L 153.402353 287.594141 
L 158.654118 282.838869 
L 161.28 280.028011 
L 163.905882 275.538506 
L 166.531765 272.177979 
L 169.157647 270.89589 
L 171.783529 268.847673 
L 174.409412 266.113286 
L 177.035294 264.094635 
L 179.661176 261.167376 
L 182.287059 258.45917 
L 184.912941 257.071165 
L 187.538824 256.202715 
L 190.164706 255.097192 
L 192.790588 252.513069 
L 195.416471 248.678815 
L 198.042353 245.820941 
L 200.668235 243.506504 
L 203.294118 241.378869 
L 208.545882 237.969669 
L 211.171765 235.669582 
L 213.797647 233.017459 
L 219.049412 228.379172 
L 224.301176 224.075473 
L 226.927059 221.978089 
L 237.430588 212.154244 
L 240.056471 209.79281 
L 242.682353 207.929225 
L 245.308235 206.314934 
L 247.934118 203.885608 
L 250.56 201.049426 
L 258.437647 193.675501 
L 263.689412 189.718389 
L 271.567059 182.202148 
L 276.818824 176.290545 
L 279.444706 173.691774 
L 282.070588 172.299253 
L 282.070588 172.299253 
" style="fill:none;stroke:#7f7f7f;stroke-linecap:square;stroke-width:1.5;"/>
   </g>
   <g id="line2d_55">
    <path clip-path="url(#p6e9d79e15b)" d="M -1 365.027181 
L 1.101176 364.415881 
L 3.727059 364.239077 
L 6.352941 363.388204 
L 11.604706 360.70934 
L 14.230588 358.360268 
L 16.856471 357.084576 
L 22.108235 356.7981 
L 24.734118 355.100082 
L 27.36 352.641391 
L 29.985882 352.128824 
L 32.611765 350.163452 
L 35.237647 346.804648 
L 37.863529 345.430357 
L 40.489412 345.067312 
L 43.115294 344.531345 
L 45.741176 343.318808 
L 48.367059 341.78706 
L 53.618824 338.380792 
L 56.244706 337.193951 
L 58.870588 336.742323 
L 61.496471 335.949516 
L 64.122353 334.124953 
L 66.748235 331.888345 
L 69.374118 329.449865 
L 72 327.214498 
L 74.625882 325.94236 
L 77.251765 325.532657 
L 79.877647 324.937479 
L 82.503529 323.528053 
L 85.129412 321.554253 
L 87.755294 319.412035 
L 90.381176 317.837798 
L 93.007059 317.045579 
L 95.632941 316.57323 
L 98.258824 315.890872 
L 100.884706 314.368218 
L 103.510588 313.033246 
L 106.136471 312.13565 
L 108.762353 310.423144 
L 111.388235 308.981467 
L 114.014118 308.416631 
L 116.64 308.09051 
L 119.265882 307.318879 
L 121.891765 305.791973 
L 127.143529 302.117898 
L 129.769412 300.675294 
L 135.021176 299.131823 
L 137.647059 297.712046 
L 140.272941 295.984869 
L 145.524706 292.270147 
L 148.150588 290.906185 
L 153.402353 289.478196 
L 156.028235 288.313352 
L 158.654118 286.621541 
L 163.905882 282.4094 
L 166.531765 280.668981 
L 169.157647 279.590851 
L 171.783529 278.746632 
L 174.409412 277.464048 
L 177.035294 275.709868 
L 182.287059 271.72924 
L 184.912941 270.020269 
L 190.164706 268.059705 
L 192.790588 266.391958 
L 198.042353 262.49042 
L 200.668235 260.773429 
L 203.294118 259.509097 
L 205.92 258.699626 
L 208.545882 257.652727 
L 211.171765 255.894391 
L 219.049412 249.534914 
L 221.675294 247.85433 
L 224.301176 246.907469 
L 226.927059 245.735775 
L 237.430588 238.244084 
L 240.056471 236.65748 
L 245.308235 234.610941 
L 247.934118 233.140784 
L 250.56 231.285567 
L 258.437647 225.248565 
L 263.689412 223.243748 
L 266.315294 221.843584 
L 268.941176 220.14613 
L 271.567059 218.288247 
L 274.192941 216.654952 
L 276.818824 215.466474 
L 279.444706 214.624842 
L 282.070588 214.202008 
L 282.070588 214.202008 
" style="fill:none;stroke:#bcbd22;stroke-linecap:square;stroke-width:1.5;"/>
   </g>
   <g id="patch_3">
    <path d="M 72 384.48 
L 72 51.84 
" style="fill:none;stroke:#000000;stroke-linecap:square;stroke-linejoin:miter;stroke-width:0.8;"/>
   </g>
   <g id="patch_4">
    <path d="M 518.4 384.48 
L 518.4 51.84 
" style="fill:none;stroke:#000000;stroke-linecap:square;stroke-linejoin:miter;stroke-width:0.8;"/>
   </g>
   <g id="patch_5">
    <path d="M 72 384.48 
L 518.4 384.48 
" style="fill:none;stroke:#000000;stroke-linecap:square;stroke-linejoin:miter;stroke-width:0.8;"/>
   </g>
   <g id="patch_6">
    <path d="M 72 51.84 
L 518.4 51.84 
" style="fill:none;stroke:#000000;stroke-linecap:square;stroke-linejoin:miter;stroke-width:0.8;"/>
   </g>
   <g id="text_26">
    <!-- Second dose coverage by state/territory -->
    <g transform="translate(174.173437 45.84)scale(0.12 -0.12)">
     <defs>
      <path d="M 2906 2969 
L 2906 4863 
L 3481 4863 
L 3481 0 
L 2906 0 
L 2906 525 
Q 2725 213 2448 61 
Q 2172 -91 1784 -91 
Q 1150 -91 751 415 
Q 353 922 353 1747 
Q 353 2572 751 3078 
Q 1150 3584 1784 3584 
Q 2172 3584 2448 3432 
Q 2725 3281 2906 2969 
z
M 947 1747 
Q 947 1113 1208 752 
Q 1469 391 1925 391 
Q 2381 391 2643 752 
Q 2906 1113 2906 1747 
Q 2906 2381 2643 2742 
Q 2381 3103 1925 3103 
Q 1469 3103 1208 2742 
Q 947 2381 947 1747 
z
" id="DejaVuSans-64" transform="scale(0.015625)"/>
      <path d="M 2834 3397 
L 2834 2853 
Q 2591 2978 2328 3040 
Q 2066 3103 1784 3103 
Q 1356 3103 1142 2972 
Q 928 2841 928 2578 
Q 928 2378 1081 2264 
Q 1234 2150 1697 2047 
L 1894 2003 
Q 2506 1872 2764 1633 
Q 3022 1394 3022 966 
Q 3022 478 2636 193 
Q 2250 -91 1575 -91 
Q 1294 -91 989 -36 
Q 684 19 347 128 
L 347 722 
Q 666 556 975 473 
Q 1284 391 1588 391 
Q 1994 391 2212 530 
Q 2431 669 2431 922 
Q 2431 1156 2273 1281 
Q 2116 1406 1581 1522 
L 1381 1569 
Q 847 1681 609 1914 
Q 372 2147 372 2553 
Q 372 3047 722 3315 
Q 1072 3584 1716 3584 
Q 2034 3584 2315 3537 
Q 2597 3491 2834 3397 
z
" id="DejaVuSans-73" transform="scale(0.015625)"/>
      <path d="M 3116 1747 
Q 3116 2381 2855 2742 
Q 2594 3103 2138 3103 
Q 1681 3103 1420 2742 
Q 1159 2381 1159 1747 
Q 1159 1113 1420 752 
Q 1681 391 2138 391 
Q 2594 391 2855 752 
Q 3116 1113 3116 1747 
z
M 1159 2969 
Q 1341 3281 1617 3432 
Q 1894 3584 2278 3584 
Q 2916 3584 3314 3078 
Q 3713 2572 3713 1747 
Q 3713 922 3314 415 
Q 2916 -91 2278 -91 
Q 1894 -91 1617 61 
Q 1341 213 1159 525 
L 1159 0 
L 581 0 
L 581 4863 
L 1159 4863 
L 1159 2969 
z
" id="DejaVuSans-62" transform="scale(0.015625)"/>
      <path d="M 2059 -325 
Q 1816 -950 1584 -1140 
Q 1353 -1331 966 -1331 
L 506 -1331 
L 506 -850 
L 844 -850 
Q 1081 -850 1212 -737 
Q 1344 -625 1503 -206 
L 1606 56 
L 191 3500 
L 800 3500 
L 1894 763 
L 2988 3500 
L 3597 3500 
L 2059 -325 
z
" id="DejaVuSans-79" transform="scale(0.015625)"/>
      <path d="M 1625 4666 
L 2156 4666 
L 531 -594 
L 0 -594 
L 1625 4666 
z
" id="DejaVuSans-2f" transform="scale(0.015625)"/>
     </defs>
     <use xlink:href="#DejaVuSans-53"/>
     <use x="63.476562" xlink:href="#DejaVuSans-65"/>
     <use x="125" xlink:href="#DejaVuSans-63"/>
     <use x="179.980469" xlink:href="#DejaVuSans-6f"/>
     <use x="241.162109" xlink:href="#DejaVuSans-6e"/>
     <use x="304.541016" xlink:href="#DejaVuSans-64"/>
     <use x="368.017578" xlink:href="#DejaVuSans-20"/>
     <use x="399.804688" xlink:href="#DejaVuSans-64"/>
     <use x="463.28125" xlink:href="#DejaVuSans-6f"/>
     <use x="524.462891" xlink:href="#DejaVuSans-73"/>
     <use x="576.5625" xlink:href="#DejaVuSans-65"/>
     <use x="638.085938" xlink:href="#DejaVuSans-20"/>
     <use x="669.873047" xlink:href="#DejaVuSans-63"/>
     <use x="724.853516" xlink:href="#DejaVuSans-6f"/>
     <use x="786.035156" xlink:href="#DejaVuSans-76"/>
     <use x="845.214844" xlink:href="#DejaVuSans-65"/>
     <use x="906.738281" xlink:href="#DejaVuSans-72"/>
     <use x="947.851562" xlink:href="#DejaVuSans-61"/>
     <use x="1009.130859" xlink:href="#DejaVuSans-67"/>
     <use x="1072.607422" xlink:href="#DejaVuSans-65"/>
     <use x="1134.130859" xlink:href="#DejaVuSans-20"/>
     <use x="1165.917969" xlink:href="#DejaVuSans-62"/>
     <use x="1229.394531" xlink:href="#DejaVuSans-79"/>
     <use x="1288.574219" xlink:href="#DejaVuSans-20"/>
     <use x="1320.361328" xlink:href="#DejaVuSans-73"/>
     <use x="1372.460938" xlink:href="#DejaVuSans-74"/>
     <use x="1411.669922" xlink:href="#DejaVuSans-61"/>
     <use x="1472.949219" xlink:href="#DejaVuSans-74"/>
     <use x="1512.158203" xlink:href="#DejaVuSans-65"/>
     <use x="1573.681641" xlink:href="#DejaVuSans-2f"/>
     <use x="1607.373047" xlink:href="#DejaVuSans-74"/>
     <use x="1646.582031" xlink:href="#DejaVuSans-65"/>
     <use x="1708.105469" xlink:href="#DejaVuSans-72"/>
     <use x="1747.46875" xlink:href="#DejaVuSans-72"/>
     <use x="1788.582031" xlink:href="#DejaVuSans-69"/>
     <use x="1816.365234" xlink:href="#DejaVuSans-74"/>
     <use x="1855.574219" xlink:href="#DejaVuSans-6f"/>
     <use x="1916.755859" xlink:href="#DejaVuSans-72"/>
     <use x="1957.869141" xlink:href="#DejaVuSans-79"/>
    </g>
   </g>
   <g id="legend_1">
    <g id="patch_7">
     <path d="M 404.462812 177.932812 
L 512.1 177.932812 
Q 513.9 177.932812 513.9 176.132812 
L 513.9 58.14 
Q 513.9 56.34 512.1 56.34 
L 404.462812 56.34 
Q 402.662812 56.34 402.662812 58.14 
L 402.662812 176.132812 
Q 402.662812 177.932812 404.462812 177.932812 
z
" style="fill:#ffffff;opacity:0.8;stroke:#cccccc;stroke-linejoin:miter;"/>
    </g>
    <g id="line2d_56">
     <path d="M 406.262812 63.628594 
L 424.262812 63.628594 
" style="fill:none;stroke:#1f77b4;stroke-linecap:square;stroke-width:1.5;"/>
    </g>
    <g id="line2d_57"/>
    <g id="text_27">
     <!-- National (53.8 %) -->
     <g transform="translate(431.462812 66.778594)scale(0.09 -0.09)">
      <defs>
       <path d="M 684 794 
L 1344 794 
L 1344 0 
L 684 0 
L 684 794 
z
" id="DejaVuSans-2e" transform="scale(0.015625)"/>
      </defs>
      <use xlink:href="#DejaVuSans-4e"/>
      <use x="74.804688" xlink:href="#DejaVuSans-61"/>
      <use x="136.083984" xlink:href="#DejaVuSans-74"/>
      <use x="175.292969" xlink:href="#DejaVuSans-69"/>
      <use x="203.076172" xlink:href="#DejaVuSans-6f"/>
      <use x="264.257812" xlink:href="#DejaVuSans-6e"/>
      <use x="327.636719" xlink:href="#DejaVuSans-61"/>
      <use x="388.916016" xlink:href="#DejaVuSans-6c"/>
      <use x="416.699219" xlink:href="#DejaVuSans-20"/>
      <use x="448.486328" xlink:href="#DejaVuSans-28"/>
      <use x="487.5" xlink:href="#DejaVuSans-35"/>
      <use x="551.123047" xlink:href="#DejaVuSans-33"/>
      <use x="614.746094" xlink:href="#DejaVuSans-2e"/>
      <use x="646.533203" xlink:href="#DejaVuSans-38"/>
      <use x="710.15625" xlink:href="#DejaVuSans-20"/>
      <use x="741.943359" xlink:href="#DejaVuSans-25"/>
      <use x="836.962891" xlink:href="#DejaVuSans-29"/>
     </g>
    </g>
    <g id="line2d_58">
     <path d="M 406.262812 76.838906 
L 424.262812 76.838906 
" style="fill:none;stroke:#ff7f0e;stroke-linecap:square;stroke-width:1.5;"/>
    </g>
    <g id="line2d_59"/>
    <g id="text_28">
     <!-- NSW (64.0 %) -->
     <g transform="translate(431.462812 79.988906)scale(0.09 -0.09)">
      <defs>
       <path d="M 213 4666 
L 850 4666 
L 1831 722 
L 2809 4666 
L 3519 4666 
L 4500 722 
L 5478 4666 
L 6119 4666 
L 4947 0 
L 4153 0 
L 3169 4050 
L 2175 0 
L 1381 0 
L 213 4666 
z
" id="DejaVuSans-57" transform="scale(0.015625)"/>
      </defs>
      <use xlink:href="#DejaVuSans-4e"/>
      <use x="74.804688" xlink:href="#DejaVuSans-53"/>
      <use x="138.28125" xlink:href="#DejaVuSans-57"/>
      <use x="237.158203" xlink:href="#DejaVuSans-20"/>
      <use x="268.945312" xlink:href="#DejaVuSans-28"/>
      <use x="307.958984" xlink:href="#DejaVuSans-36"/>
      <use x="371.582031" xlink:href="#DejaVuSans-34"/>
      <use x="435.205078" xlink:href="#DejaVuSans-2e"/>
      <use x="466.992188" xlink:href="#DejaVuSans-30"/>
      <use x="530.615234" xlink:href="#DejaVuSans-20"/>
      <use x="562.402344" xlink:href="#DejaVuSans-25"/>
      <use x="657.421875" xlink:href="#DejaVuSans-29"/>
     </g>
    </g>
    <g id="line2d_60">
     <path d="M 406.262812 90.049219 
L 424.262812 90.049219 
" style="fill:none;stroke:#2ca02c;stroke-linecap:square;stroke-width:1.5;"/>
    </g>
    <g id="line2d_61"/>
    <g id="text_29">
     <!-- VIC (49.9 %) -->
     <g transform="translate(431.462812 93.199219)scale(0.09 -0.09)">
      <defs>
       <path d="M 628 4666 
L 1259 4666 
L 1259 0 
L 628 0 
L 628 4666 
z
" id="DejaVuSans-49" transform="scale(0.015625)"/>
       <path d="M 4122 4306 
L 4122 3641 
Q 3803 3938 3442 4084 
Q 3081 4231 2675 4231 
Q 1875 4231 1450 3742 
Q 1025 3253 1025 2328 
Q 1025 1406 1450 917 
Q 1875 428 2675 428 
Q 3081 428 3442 575 
Q 3803 722 4122 1019 
L 4122 359 
Q 3791 134 3420 21 
Q 3050 -91 2638 -91 
Q 1578 -91 968 557 
Q 359 1206 359 2328 
Q 359 3453 968 4101 
Q 1578 4750 2638 4750 
Q 3056 4750 3426 4639 
Q 3797 4528 4122 4306 
z
" id="DejaVuSans-43" transform="scale(0.015625)"/>
      </defs>
      <use xlink:href="#DejaVuSans-56"/>
      <use x="68.408203" xlink:href="#DejaVuSans-49"/>
      <use x="97.900391" xlink:href="#DejaVuSans-43"/>
      <use x="167.724609" xlink:href="#DejaVuSans-20"/>
      <use x="199.511719" xlink:href="#DejaVuSans-28"/>
      <use x="238.525391" xlink:href="#DejaVuSans-34"/>
      <use x="302.148438" xlink:href="#DejaVuSans-39"/>
      <use x="365.771484" xlink:href="#DejaVuSans-2e"/>
      <use x="397.558594" xlink:href="#DejaVuSans-39"/>
      <use x="461.181641" xlink:href="#DejaVuSans-20"/>
      <use x="492.96875" xlink:href="#DejaVuSans-25"/>
      <use x="587.988281" xlink:href="#DejaVuSans-29"/>
     </g>
    </g>
    <g id="line2d_62">
     <path d="M 406.262812 103.259531 
L 424.262812 103.259531 
" style="fill:none;stroke:#d62728;stroke-linecap:square;stroke-width:1.5;"/>
    </g>
    <g id="line2d_63"/>
    <g id="text_30">
     <!-- QLD (45.8 %) -->
     <g transform="translate(431.462812 106.409531)scale(0.09 -0.09)">
      <defs>
       <path d="M 2522 4238 
Q 1834 4238 1429 3725 
Q 1025 3213 1025 2328 
Q 1025 1447 1429 934 
Q 1834 422 2522 422 
Q 3209 422 3611 934 
Q 4013 1447 4013 2328 
Q 4013 3213 3611 3725 
Q 3209 4238 2522 4238 
z
M 3406 84 
L 4238 -825 
L 3475 -825 
L 2784 -78 
Q 2681 -84 2626 -87 
Q 2572 -91 2522 -91 
Q 1538 -91 948 567 
Q 359 1225 359 2328 
Q 359 3434 948 4092 
Q 1538 4750 2522 4750 
Q 3503 4750 4090 4092 
Q 4678 3434 4678 2328 
Q 4678 1516 4351 937 
Q 4025 359 3406 84 
z
" id="DejaVuSans-51" transform="scale(0.015625)"/>
       <path d="M 628 4666 
L 1259 4666 
L 1259 531 
L 3531 531 
L 3531 0 
L 628 0 
L 628 4666 
z
" id="DejaVuSans-4c" transform="scale(0.015625)"/>
      </defs>
      <use xlink:href="#DejaVuSans-51"/>
      <use x="78.710938" xlink:href="#DejaVuSans-4c"/>
      <use x="134.423828" xlink:href="#DejaVuSans-44"/>
      <use x="211.425781" xlink:href="#DejaVuSans-20"/>
      <use x="243.212891" xlink:href="#DejaVuSans-28"/>
      <use x="282.226562" xlink:href="#DejaVuSans-34"/>
      <use x="345.849609" xlink:href="#DejaVuSans-35"/>
      <use x="409.472656" xlink:href="#DejaVuSans-2e"/>
      <use x="441.259766" xlink:href="#DejaVuSans-38"/>
      <use x="504.882812" xlink:href="#DejaVuSans-20"/>
      <use x="536.669922" xlink:href="#DejaVuSans-25"/>
      <use x="631.689453" xlink:href="#DejaVuSans-29"/>
     </g>
    </g>
    <g id="line2d_64">
     <path d="M 406.262812 116.469844 
L 424.262812 116.469844 
" style="fill:none;stroke:#9467bd;stroke-linecap:square;stroke-width:1.5;"/>
    </g>
    <g id="line2d_65"/>
    <g id="text_31">
     <!-- WA (45.6 %) -->
     <g transform="translate(431.462812 119.619844)scale(0.09 -0.09)">
      <use xlink:href="#DejaVuSans-57"/>
      <use x="93.376953" xlink:href="#DejaVuSans-41"/>
      <use x="161.785156" xlink:href="#DejaVuSans-20"/>
      <use x="193.572266" xlink:href="#DejaVuSans-28"/>
      <use x="232.585938" xlink:href="#DejaVuSans-34"/>
      <use x="296.208984" xlink:href="#DejaVuSans-35"/>
      <use x="359.832031" xlink:href="#DejaVuSans-2e"/>
      <use x="391.619141" xlink:href="#DejaVuSans-36"/>
      <use x="455.242188" xlink:href="#DejaVuSans-20"/>
      <use x="487.029297" xlink:href="#DejaVuSans-25"/>
      <use x="582.048828" xlink:href="#DejaVuSans-29"/>
     </g>
    </g>
    <g id="line2d_66">
     <path d="M 406.262812 129.680156 
L 424.262812 129.680156 
" style="fill:none;stroke:#8c564b;stroke-linecap:square;stroke-width:1.5;"/>
    </g>
    <g id="line2d_67"/>
    <g id="text_32">
     <!-- SA (48.7 %) -->
     <g transform="translate(431.462812 132.830156)scale(0.09 -0.09)">
      <use xlink:href="#DejaVuSans-53"/>
      <use x="65.351562" xlink:href="#DejaVuSans-41"/>
      <use x="133.759766" xlink:href="#DejaVuSans-20"/>
      <use x="165.546875" xlink:href="#DejaVuSans-28"/>
      <use x="204.560547" xlink:href="#DejaVuSans-34"/>
      <use x="268.183594" xlink:href="#DejaVuSans-38"/>
      <use x="331.806641" xlink:href="#DejaVuSans-2e"/>
      <use x="363.59375" xlink:href="#DejaVuSans-37"/>
      <use x="427.216797" xlink:href="#DejaVuSans-20"/>
      <use x="459.003906" xlink:href="#DejaVuSans-25"/>
      <use x="554.023438" xlink:href="#DejaVuSans-29"/>
     </g>
    </g>
    <g id="line2d_68">
     <path d="M 406.262812 142.890469 
L 424.262812 142.890469 
" style="fill:none;stroke:#e377c2;stroke-linecap:square;stroke-width:1.5;"/>
    </g>
    <g id="line2d_69"/>
    <g id="text_33">
     <!-- TAS (56.8 %) -->
     <g transform="translate(431.462812 146.040469)scale(0.09 -0.09)">
      <defs>
       <path d="M -19 4666 
L 3928 4666 
L 3928 4134 
L 2272 4134 
L 2272 0 
L 1638 0 
L 1638 4134 
L -19 4134 
L -19 4666 
z
" id="DejaVuSans-54" transform="scale(0.015625)"/>
      </defs>
      <use xlink:href="#DejaVuSans-54"/>
      <use x="53.333984" xlink:href="#DejaVuSans-41"/>
      <use x="121.742188" xlink:href="#DejaVuSans-53"/>
      <use x="185.21875" xlink:href="#DejaVuSans-20"/>
      <use x="217.005859" xlink:href="#DejaVuSans-28"/>
      <use x="256.019531" xlink:href="#DejaVuSans-35"/>
      <use x="319.642578" xlink:href="#DejaVuSans-36"/>
      <use x="383.265625" xlink:href="#DejaVuSans-2e"/>
      <use x="415.052734" xlink:href="#DejaVuSans-38"/>
      <use x="478.675781" xlink:href="#DejaVuSans-20"/>
      <use x="510.462891" xlink:href="#DejaVuSans-25"/>
      <use x="605.482422" xlink:href="#DejaVuSans-29"/>
     </g>
    </g>
    <g id="line2d_70">
     <path d="M 406.262812 156.100781 
L 424.262812 156.100781 
" style="fill:none;stroke:#7f7f7f;stroke-linecap:square;stroke-width:1.5;"/>
    </g>
    <g id="line2d_71"/>
    <g id="text_34">
     <!-- ACT (63.9 %) -->
     <g transform="translate(431.462812 159.250781)scale(0.09 -0.09)">
      <use xlink:href="#DejaVuSans-41"/>
      <use x="66.658203" xlink:href="#DejaVuSans-43"/>
      <use x="136.482422" xlink:href="#DejaVuSans-54"/>
      <use x="197.566406" xlink:href="#DejaVuSans-20"/>
      <use x="229.353516" xlink:href="#DejaVuSans-28"/>
      <use x="268.367188" xlink:href="#DejaVuSans-36"/>
      <use x="331.990234" xlink:href="#DejaVuSans-33"/>
      <use x="395.613281" xlink:href="#DejaVuSans-2e"/>
      <use x="427.400391" xlink:href="#DejaVuSans-39"/>
      <use x="491.023438" xlink:href="#DejaVuSans-20"/>
      <use x="522.810547" xlink:href="#DejaVuSans-25"/>
      <use x="617.830078" xlink:href="#DejaVuSans-29"/>
     </g>
    </g>
    <g id="line2d_72">
     <path d="M 406.262812 169.311094 
L 424.262812 169.311094 
" style="fill:none;stroke:#bcbd22;stroke-linecap:square;stroke-width:1.5;"/>
    </g>
    <g id="line2d_73"/>
    <g id="text_35">
     <!-- NT (51.2 %) -->
     <g transform="translate(431.462812 172.461094)scale(0.09 -0.09)">
      <use xlink:href="#DejaVuSans-4e"/>
      <use x="74.804688" xlink:href="#DejaVuSans-54"/>
      <use x="135.888672" xlink:href="#DejaVuSans-20"/>
      <use x="167.675781" xlink:href="#DejaVuSans-28"/>
      <use x="206.689453" xlink:href="#DejaVuSans-35"/>
      <use x="270.3125" xlink:href="#DejaVuSans-31"/>
      <use x="333.935547" xlink:href="#DejaVuSans-2e"/>
      <use x="365.722656" xlink:href="#DejaVuSans-32"/>
      <use x="429.345703" xlink:href="#DejaVuSans-20"/>
      <use x="461.132812" xlink:href="#DejaVuSans-25"/>
      <use x="556.152344" xlink:href="#DejaVuSans-29"/>
     </g>
    </g>
   </g>
  </g>
 </g>
 <defs>
  <clipPath id="p6e9d79e15b">
   <rect height="332.64" width="446.4" x="72" y="51.84"/>
  </clipPath>
 </defs>
</svg>
