<?xml version="1.0" encoding="utf-8" standalone="no"?>
<!DOCTYPE svg PUBLIC "-//W3C//DTD SVG 1.1//EN"
  "http://www.w3.org/Graphics/SVG/1.1/DTD/svg11.dtd">
<svg height="432pt" version="1.1" viewBox="0 0 576 432" width="576pt" xmlns="http://www.w3.org/2000/svg" xmlns:xlink="http://www.w3.org/1999/xlink">
 <metadata>
  <rdf:RDF xmlns:cc="http://creativecommons.org/ns#" xmlns:dc="http://purl.org/dc/elements/1.1/" xmlns:rdf="http://www.w3.org/1999/02/22-rdf-syntax-ns#">
   <cc:Work>
    <dc:type rdf:resource="http://purl.org/dc/dcmitype/StillImage"/>
    <dc:date>2021-09-10T06:48:00.730151</dc:date>
    <dc:format>image/svg+xml</dc:format>
    <dc:creator>
     <cc:Agent>
      <dc:title>Matplotlib v3.4.3, https://matplotlib.org/</dc:title>
     </cc:Agent>
    </dc:creator>
   </cc:Work>
  </rdf:RDF>
 </metadata>
 <defs>
  <style type="text/css">*{stroke-linecap:butt;stroke-linejoin:round;}</style>
 </defs>
 <g id="figure_1">
  <g id="patch_1">
   <path d="M 0 432 
L 576 432 
L 576 0 
L 0 0 
z
" style="fill:#ffffff;"/>
  </g>
  <g id="axes_1">
   <g id="patch_2">
    <path d="M 72 384.48 
L 518.4 384.48 
L 518.4 51.84 
L 72 51.84 
z
" style="fill:#ffffff;"/>
   </g>
   <g id="matplotlib.axis_1">
    <g id="xtick_1">
     <g id="line2d_1">
      <path clip-path="url(#pda31dc3110)" d="M 83.301266 384.48 
L 83.301266 51.84 
" style="fill:none;stroke:#000000;stroke-dasharray:0.8,1.32;stroke-dashoffset:0;stroke-opacity:0.5;stroke-width:0.8;"/>
     </g>
     <g id="line2d_2">
      <defs>
       <path d="M 0 0 
L 0 3.5 
" id="ma127ea76db" style="stroke:#000000;stroke-width:0.8;"/>
      </defs>
      <g>
       <use style="stroke:#000000;stroke-width:0.8;" x="83.301266" xlink:href="#ma127ea76db" y="384.48"/>
      </g>
     </g>
     <g id="text_1">
      <!-- 15 -->
      <g transform="translate(76.938766 399.078438)scale(0.1 -0.1)">
       <defs>
        <path d="M 794 531 
L 1825 531 
L 1825 4091 
L 703 3866 
L 703 4441 
L 1819 4666 
L 2450 4666 
L 2450 531 
L 3481 531 
L 3481 0 
L 794 0 
L 794 531 
z
" id="DejaVuSans-31" transform="scale(0.015625)"/>
        <path d="M 691 4666 
L 3169 4666 
L 3169 4134 
L 1269 4134 
L 1269 2991 
Q 1406 3038 1543 3061 
Q 1681 3084 1819 3084 
Q 2600 3084 3056 2656 
Q 3513 2228 3513 1497 
Q 3513 744 3044 326 
Q 2575 -91 1722 -91 
Q 1428 -91 1123 -41 
Q 819 9 494 109 
L 494 744 
Q 775 591 1075 516 
Q 1375 441 1709 441 
Q 2250 441 2565 725 
Q 2881 1009 2881 1497 
Q 2881 1984 2565 2268 
Q 2250 2553 1709 2553 
Q 1456 2553 1204 2497 
Q 953 2441 691 2322 
L 691 4666 
z
" id="DejaVuSans-35" transform="scale(0.015625)"/>
       </defs>
       <use xlink:href="#DejaVuSans-31"/>
       <use x="63.623047" xlink:href="#DejaVuSans-35"/>
      </g>
     </g>
    </g>
    <g id="xtick_2">
     <g id="line2d_3">
      <path clip-path="url(#pda31dc3110)" d="M 115.321519 384.48 
L 115.321519 51.84 
" style="fill:none;stroke:#000000;stroke-dasharray:0.8,1.32;stroke-dashoffset:0;stroke-opacity:0.5;stroke-width:0.8;"/>
     </g>
     <g id="line2d_4">
      <g>
       <use style="stroke:#000000;stroke-width:0.8;" x="115.321519" xlink:href="#ma127ea76db" y="384.48"/>
      </g>
     </g>
     <g id="text_2">
      <!-- Jun -->
      <g transform="translate(107.509019 399.078438)scale(0.1 -0.1)">
       <defs>
        <path d="M 628 4666 
L 1259 4666 
L 1259 325 
Q 1259 -519 939 -900 
Q 619 -1281 -91 -1281 
L -331 -1281 
L -331 -750 
L -134 -750 
Q 284 -750 456 -515 
Q 628 -281 628 325 
L 628 4666 
z
" id="DejaVuSans-4a" transform="scale(0.015625)"/>
        <path d="M 544 1381 
L 544 3500 
L 1119 3500 
L 1119 1403 
Q 1119 906 1312 657 
Q 1506 409 1894 409 
Q 2359 409 2629 706 
Q 2900 1003 2900 1516 
L 2900 3500 
L 3475 3500 
L 3475 0 
L 2900 0 
L 2900 538 
Q 2691 219 2414 64 
Q 2138 -91 1772 -91 
Q 1169 -91 856 284 
Q 544 659 544 1381 
z
M 1991 3584 
L 1991 3584 
z
" id="DejaVuSans-75" transform="scale(0.015625)"/>
        <path d="M 3513 2113 
L 3513 0 
L 2938 0 
L 2938 2094 
Q 2938 2591 2744 2837 
Q 2550 3084 2163 3084 
Q 1697 3084 1428 2787 
Q 1159 2491 1159 1978 
L 1159 0 
L 581 0 
L 581 3500 
L 1159 3500 
L 1159 2956 
Q 1366 3272 1645 3428 
Q 1925 3584 2291 3584 
Q 2894 3584 3203 3211 
Q 3513 2838 3513 2113 
z
" id="DejaVuSans-6e" transform="scale(0.015625)"/>
       </defs>
       <use xlink:href="#DejaVuSans-4a"/>
       <use x="29.492188" xlink:href="#DejaVuSans-75"/>
       <use x="92.871094" xlink:href="#DejaVuSans-6e"/>
      </g>
     </g>
    </g>
    <g id="xtick_3">
     <g id="line2d_5">
      <path clip-path="url(#pda31dc3110)" d="M 141.691139 384.48 
L 141.691139 51.84 
" style="fill:none;stroke:#000000;stroke-dasharray:0.8,1.32;stroke-dashoffset:0;stroke-opacity:0.5;stroke-width:0.8;"/>
     </g>
     <g id="line2d_6">
      <g>
       <use style="stroke:#000000;stroke-width:0.8;" x="141.691139" xlink:href="#ma127ea76db" y="384.48"/>
      </g>
     </g>
     <g id="text_3">
      <!-- 15 -->
      <g transform="translate(135.328639 399.078438)scale(0.1 -0.1)">
       <use xlink:href="#DejaVuSans-31"/>
       <use x="63.623047" xlink:href="#DejaVuSans-35"/>
      </g>
     </g>
    </g>
    <g id="xtick_4">
     <g id="line2d_7">
      <path clip-path="url(#pda31dc3110)" d="M 171.827848 384.48 
L 171.827848 51.84 
" style="fill:none;stroke:#000000;stroke-dasharray:0.8,1.32;stroke-dashoffset:0;stroke-opacity:0.5;stroke-width:0.8;"/>
     </g>
     <g id="line2d_8">
      <g>
       <use style="stroke:#000000;stroke-width:0.8;" x="171.827848" xlink:href="#ma127ea76db" y="384.48"/>
      </g>
     </g>
     <g id="text_4">
      <!-- Jul -->
      <g transform="translate(165.795036 399.078438)scale(0.1 -0.1)">
       <defs>
        <path d="M 603 4863 
L 1178 4863 
L 1178 0 
L 603 0 
L 603 4863 
z
" id="DejaVuSans-6c" transform="scale(0.015625)"/>
       </defs>
       <use xlink:href="#DejaVuSans-4a"/>
       <use x="29.492188" xlink:href="#DejaVuSans-75"/>
       <use x="92.871094" xlink:href="#DejaVuSans-6c"/>
      </g>
     </g>
    </g>
    <g id="xtick_5">
     <g id="line2d_9">
      <path clip-path="url(#pda31dc3110)" d="M 198.197468 384.48 
L 198.197468 51.84 
" style="fill:none;stroke:#000000;stroke-dasharray:0.8,1.32;stroke-dashoffset:0;stroke-opacity:0.5;stroke-width:0.8;"/>
     </g>
     <g id="line2d_10">
      <g>
       <use style="stroke:#000000;stroke-width:0.8;" x="198.197468" xlink:href="#ma127ea76db" y="384.48"/>
      </g>
     </g>
     <g id="text_5">
      <!-- 15 -->
      <g transform="translate(191.834968 399.078438)scale(0.1 -0.1)">
       <use xlink:href="#DejaVuSans-31"/>
       <use x="63.623047" xlink:href="#DejaVuSans-35"/>
      </g>
     </g>
    </g>
    <g id="xtick_6">
     <g id="line2d_11">
      <path clip-path="url(#pda31dc3110)" d="M 230.217722 384.48 
L 230.217722 51.84 
" style="fill:none;stroke:#000000;stroke-dasharray:0.8,1.32;stroke-dashoffset:0;stroke-opacity:0.5;stroke-width:0.8;"/>
     </g>
     <g id="line2d_12">
      <g>
       <use style="stroke:#000000;stroke-width:0.8;" x="230.217722" xlink:href="#ma127ea76db" y="384.48"/>
      </g>
     </g>
     <g id="text_6">
      <!-- Aug -->
      <g transform="translate(220.45444 399.078438)scale(0.1 -0.1)">
       <defs>
        <path d="M 2188 4044 
L 1331 1722 
L 3047 1722 
L 2188 4044 
z
M 1831 4666 
L 2547 4666 
L 4325 0 
L 3669 0 
L 3244 1197 
L 1141 1197 
L 716 0 
L 50 0 
L 1831 4666 
z
" id="DejaVuSans-41" transform="scale(0.015625)"/>
        <path d="M 2906 1791 
Q 2906 2416 2648 2759 
Q 2391 3103 1925 3103 
Q 1463 3103 1205 2759 
Q 947 2416 947 1791 
Q 947 1169 1205 825 
Q 1463 481 1925 481 
Q 2391 481 2648 825 
Q 2906 1169 2906 1791 
z
M 3481 434 
Q 3481 -459 3084 -895 
Q 2688 -1331 1869 -1331 
Q 1566 -1331 1297 -1286 
Q 1028 -1241 775 -1147 
L 775 -588 
Q 1028 -725 1275 -790 
Q 1522 -856 1778 -856 
Q 2344 -856 2625 -561 
Q 2906 -266 2906 331 
L 2906 616 
Q 2728 306 2450 153 
Q 2172 0 1784 0 
Q 1141 0 747 490 
Q 353 981 353 1791 
Q 353 2603 747 3093 
Q 1141 3584 1784 3584 
Q 2172 3584 2450 3431 
Q 2728 3278 2906 2969 
L 2906 3500 
L 3481 3500 
L 3481 434 
z
" id="DejaVuSans-67" transform="scale(0.015625)"/>
       </defs>
       <use xlink:href="#DejaVuSans-41"/>
       <use x="68.408203" xlink:href="#DejaVuSans-75"/>
       <use x="131.787109" xlink:href="#DejaVuSans-67"/>
      </g>
     </g>
    </g>
    <g id="xtick_7">
     <g id="line2d_13">
      <path clip-path="url(#pda31dc3110)" d="M 256.587342 384.48 
L 256.587342 51.84 
" style="fill:none;stroke:#000000;stroke-dasharray:0.8,1.32;stroke-dashoffset:0;stroke-opacity:0.5;stroke-width:0.8;"/>
     </g>
     <g id="line2d_14">
      <g>
       <use style="stroke:#000000;stroke-width:0.8;" x="256.587342" xlink:href="#ma127ea76db" y="384.48"/>
      </g>
     </g>
     <g id="text_7">
      <!-- 15 -->
      <g transform="translate(250.224842 399.078438)scale(0.1 -0.1)">
       <use xlink:href="#DejaVuSans-31"/>
       <use x="63.623047" xlink:href="#DejaVuSans-35"/>
      </g>
     </g>
    </g>
    <g id="xtick_8">
     <g id="line2d_15">
      <path clip-path="url(#pda31dc3110)" d="M 288.607595 384.48 
L 288.607595 51.84 
" style="fill:none;stroke:#000000;stroke-dasharray:0.8,1.32;stroke-dashoffset:0;stroke-opacity:0.5;stroke-width:0.8;"/>
     </g>
     <g id="line2d_16">
      <g>
       <use style="stroke:#000000;stroke-width:0.8;" x="288.607595" xlink:href="#ma127ea76db" y="384.48"/>
      </g>
     </g>
     <g id="text_8">
      <!-- Sep -->
      <g transform="translate(279.182595 399.078438)scale(0.1 -0.1)">
       <defs>
        <path d="M 3425 4513 
L 3425 3897 
Q 3066 4069 2747 4153 
Q 2428 4238 2131 4238 
Q 1616 4238 1336 4038 
Q 1056 3838 1056 3469 
Q 1056 3159 1242 3001 
Q 1428 2844 1947 2747 
L 2328 2669 
Q 3034 2534 3370 2195 
Q 3706 1856 3706 1288 
Q 3706 609 3251 259 
Q 2797 -91 1919 -91 
Q 1588 -91 1214 -16 
Q 841 59 441 206 
L 441 856 
Q 825 641 1194 531 
Q 1563 422 1919 422 
Q 2459 422 2753 634 
Q 3047 847 3047 1241 
Q 3047 1584 2836 1778 
Q 2625 1972 2144 2069 
L 1759 2144 
Q 1053 2284 737 2584 
Q 422 2884 422 3419 
Q 422 4038 858 4394 
Q 1294 4750 2059 4750 
Q 2388 4750 2728 4690 
Q 3069 4631 3425 4513 
z
" id="DejaVuSans-53" transform="scale(0.015625)"/>
        <path d="M 3597 1894 
L 3597 1613 
L 953 1613 
Q 991 1019 1311 708 
Q 1631 397 2203 397 
Q 2534 397 2845 478 
Q 3156 559 3463 722 
L 3463 178 
Q 3153 47 2828 -22 
Q 2503 -91 2169 -91 
Q 1331 -91 842 396 
Q 353 884 353 1716 
Q 353 2575 817 3079 
Q 1281 3584 2069 3584 
Q 2775 3584 3186 3129 
Q 3597 2675 3597 1894 
z
M 3022 2063 
Q 3016 2534 2758 2815 
Q 2500 3097 2075 3097 
Q 1594 3097 1305 2825 
Q 1016 2553 972 2059 
L 3022 2063 
z
" id="DejaVuSans-65" transform="scale(0.015625)"/>
        <path d="M 1159 525 
L 1159 -1331 
L 581 -1331 
L 581 3500 
L 1159 3500 
L 1159 2969 
Q 1341 3281 1617 3432 
Q 1894 3584 2278 3584 
Q 2916 3584 3314 3078 
Q 3713 2572 3713 1747 
Q 3713 922 3314 415 
Q 2916 -91 2278 -91 
Q 1894 -91 1617 61 
Q 1341 213 1159 525 
z
M 3116 1747 
Q 3116 2381 2855 2742 
Q 2594 3103 2138 3103 
Q 1681 3103 1420 2742 
Q 1159 2381 1159 1747 
Q 1159 1113 1420 752 
Q 1681 391 2138 391 
Q 2594 391 2855 752 
Q 3116 1113 3116 1747 
z
" id="DejaVuSans-70" transform="scale(0.015625)"/>
       </defs>
       <use xlink:href="#DejaVuSans-53"/>
       <use x="63.476562" xlink:href="#DejaVuSans-65"/>
       <use x="125" xlink:href="#DejaVuSans-70"/>
      </g>
     </g>
    </g>
    <g id="xtick_9">
     <g id="line2d_17">
      <path clip-path="url(#pda31dc3110)" d="M 314.977215 384.48 
L 314.977215 51.84 
" style="fill:none;stroke:#000000;stroke-dasharray:0.8,1.32;stroke-dashoffset:0;stroke-opacity:0.5;stroke-width:0.8;"/>
     </g>
     <g id="line2d_18">
      <g>
       <use style="stroke:#000000;stroke-width:0.8;" x="314.977215" xlink:href="#ma127ea76db" y="384.48"/>
      </g>
     </g>
     <g id="text_9">
      <!-- 15 -->
      <g transform="translate(308.614715 399.078438)scale(0.1 -0.1)">
       <use xlink:href="#DejaVuSans-31"/>
       <use x="63.623047" xlink:href="#DejaVuSans-35"/>
      </g>
     </g>
    </g>
    <g id="xtick_10">
     <g id="line2d_19">
      <path clip-path="url(#pda31dc3110)" d="M 345.113924 384.48 
L 345.113924 51.84 
" style="fill:none;stroke:#000000;stroke-dasharray:0.8,1.32;stroke-dashoffset:0;stroke-opacity:0.5;stroke-width:0.8;"/>
     </g>
     <g id="line2d_20">
      <g>
       <use style="stroke:#000000;stroke-width:0.8;" x="345.113924" xlink:href="#ma127ea76db" y="384.48"/>
      </g>
     </g>
     <g id="text_10">
      <!-- Oct -->
      <g transform="translate(336.468612 399.078438)scale(0.1 -0.1)">
       <defs>
        <path d="M 2522 4238 
Q 1834 4238 1429 3725 
Q 1025 3213 1025 2328 
Q 1025 1447 1429 934 
Q 1834 422 2522 422 
Q 3209 422 3611 934 
Q 4013 1447 4013 2328 
Q 4013 3213 3611 3725 
Q 3209 4238 2522 4238 
z
M 2522 4750 
Q 3503 4750 4090 4092 
Q 4678 3434 4678 2328 
Q 4678 1225 4090 567 
Q 3503 -91 2522 -91 
Q 1538 -91 948 565 
Q 359 1222 359 2328 
Q 359 3434 948 4092 
Q 1538 4750 2522 4750 
z
" id="DejaVuSans-4f" transform="scale(0.015625)"/>
        <path d="M 3122 3366 
L 3122 2828 
Q 2878 2963 2633 3030 
Q 2388 3097 2138 3097 
Q 1578 3097 1268 2742 
Q 959 2388 959 1747 
Q 959 1106 1268 751 
Q 1578 397 2138 397 
Q 2388 397 2633 464 
Q 2878 531 3122 666 
L 3122 134 
Q 2881 22 2623 -34 
Q 2366 -91 2075 -91 
Q 1284 -91 818 406 
Q 353 903 353 1747 
Q 353 2603 823 3093 
Q 1294 3584 2113 3584 
Q 2378 3584 2631 3529 
Q 2884 3475 3122 3366 
z
" id="DejaVuSans-63" transform="scale(0.015625)"/>
        <path d="M 1172 4494 
L 1172 3500 
L 2356 3500 
L 2356 3053 
L 1172 3053 
L 1172 1153 
Q 1172 725 1289 603 
Q 1406 481 1766 481 
L 2356 481 
L 2356 0 
L 1766 0 
Q 1100 0 847 248 
Q 594 497 594 1153 
L 594 3053 
L 172 3053 
L 172 3500 
L 594 3500 
L 594 4494 
L 1172 4494 
z
" id="DejaVuSans-74" transform="scale(0.015625)"/>
       </defs>
       <use xlink:href="#DejaVuSans-4f"/>
       <use x="78.710938" xlink:href="#DejaVuSans-63"/>
       <use x="133.691406" xlink:href="#DejaVuSans-74"/>
      </g>
     </g>
    </g>
    <g id="xtick_11">
     <g id="line2d_21">
      <path clip-path="url(#pda31dc3110)" d="M 371.483544 384.48 
L 371.483544 51.84 
" style="fill:none;stroke:#000000;stroke-dasharray:0.8,1.32;stroke-dashoffset:0;stroke-opacity:0.5;stroke-width:0.8;"/>
     </g>
     <g id="line2d_22">
      <g>
       <use style="stroke:#000000;stroke-width:0.8;" x="371.483544" xlink:href="#ma127ea76db" y="384.48"/>
      </g>
     </g>
     <g id="text_11">
      <!-- 15 -->
      <g transform="translate(365.121044 399.078438)scale(0.1 -0.1)">
       <use xlink:href="#DejaVuSans-31"/>
       <use x="63.623047" xlink:href="#DejaVuSans-35"/>
      </g>
     </g>
    </g>
    <g id="xtick_12">
     <g id="line2d_23">
      <path clip-path="url(#pda31dc3110)" d="M 403.503797 384.48 
L 403.503797 51.84 
" style="fill:none;stroke:#000000;stroke-dasharray:0.8,1.32;stroke-dashoffset:0;stroke-opacity:0.5;stroke-width:0.8;"/>
     </g>
     <g id="line2d_24">
      <g>
       <use style="stroke:#000000;stroke-width:0.8;" x="403.503797" xlink:href="#ma127ea76db" y="384.48"/>
      </g>
     </g>
     <g id="text_12">
      <!-- Nov -->
      <g transform="translate(393.744422 399.078438)scale(0.1 -0.1)">
       <defs>
        <path d="M 628 4666 
L 1478 4666 
L 3547 763 
L 3547 4666 
L 4159 4666 
L 4159 0 
L 3309 0 
L 1241 3903 
L 1241 0 
L 628 0 
L 628 4666 
z
" id="DejaVuSans-4e" transform="scale(0.015625)"/>
        <path d="M 1959 3097 
Q 1497 3097 1228 2736 
Q 959 2375 959 1747 
Q 959 1119 1226 758 
Q 1494 397 1959 397 
Q 2419 397 2687 759 
Q 2956 1122 2956 1747 
Q 2956 2369 2687 2733 
Q 2419 3097 1959 3097 
z
M 1959 3584 
Q 2709 3584 3137 3096 
Q 3566 2609 3566 1747 
Q 3566 888 3137 398 
Q 2709 -91 1959 -91 
Q 1206 -91 779 398 
Q 353 888 353 1747 
Q 353 2609 779 3096 
Q 1206 3584 1959 3584 
z
" id="DejaVuSans-6f" transform="scale(0.015625)"/>
        <path d="M 191 3500 
L 800 3500 
L 1894 563 
L 2988 3500 
L 3597 3500 
L 2284 0 
L 1503 0 
L 191 3500 
z
" id="DejaVuSans-76" transform="scale(0.015625)"/>
       </defs>
       <use xlink:href="#DejaVuSans-4e"/>
       <use x="74.804688" xlink:href="#DejaVuSans-6f"/>
       <use x="135.986328" xlink:href="#DejaVuSans-76"/>
      </g>
     </g>
    </g>
    <g id="xtick_13">
     <g id="line2d_25">
      <path clip-path="url(#pda31dc3110)" d="M 429.873418 384.48 
L 429.873418 51.84 
" style="fill:none;stroke:#000000;stroke-dasharray:0.8,1.32;stroke-dashoffset:0;stroke-opacity:0.5;stroke-width:0.8;"/>
     </g>
     <g id="line2d_26">
      <g>
       <use style="stroke:#000000;stroke-width:0.8;" x="429.873418" xlink:href="#ma127ea76db" y="384.48"/>
      </g>
     </g>
     <g id="text_13">
      <!-- 15 -->
      <g transform="translate(423.510918 399.078438)scale(0.1 -0.1)">
       <use xlink:href="#DejaVuSans-31"/>
       <use x="63.623047" xlink:href="#DejaVuSans-35"/>
      </g>
     </g>
    </g>
    <g id="xtick_14">
     <g id="line2d_27">
      <path clip-path="url(#pda31dc3110)" d="M 460.010127 384.48 
L 460.010127 51.84 
" style="fill:none;stroke:#000000;stroke-dasharray:0.8,1.32;stroke-dashoffset:0;stroke-opacity:0.5;stroke-width:0.8;"/>
     </g>
     <g id="line2d_28">
      <g>
       <use style="stroke:#000000;stroke-width:0.8;" x="460.010127" xlink:href="#ma127ea76db" y="384.48"/>
      </g>
     </g>
     <g id="text_14">
      <!-- Dec -->
      <g transform="translate(450.334345 399.078438)scale(0.1 -0.1)">
       <defs>
        <path d="M 1259 4147 
L 1259 519 
L 2022 519 
Q 2988 519 3436 956 
Q 3884 1394 3884 2338 
Q 3884 3275 3436 3711 
Q 2988 4147 2022 4147 
L 1259 4147 
z
M 628 4666 
L 1925 4666 
Q 3281 4666 3915 4102 
Q 4550 3538 4550 2338 
Q 4550 1131 3912 565 
Q 3275 0 1925 0 
L 628 0 
L 628 4666 
z
" id="DejaVuSans-44" transform="scale(0.015625)"/>
       </defs>
       <use xlink:href="#DejaVuSans-44"/>
       <use x="77.001953" xlink:href="#DejaVuSans-65"/>
       <use x="138.525391" xlink:href="#DejaVuSans-63"/>
      </g>
     </g>
    </g>
    <g id="xtick_15">
     <g id="line2d_29">
      <path clip-path="url(#pda31dc3110)" d="M 486.379747 384.48 
L 486.379747 51.84 
" style="fill:none;stroke:#000000;stroke-dasharray:0.8,1.32;stroke-dashoffset:0;stroke-opacity:0.5;stroke-width:0.8;"/>
     </g>
     <g id="line2d_30">
      <g>
       <use style="stroke:#000000;stroke-width:0.8;" x="486.379747" xlink:href="#ma127ea76db" y="384.48"/>
      </g>
     </g>
     <g id="text_15">
      <!-- 15 -->
      <g transform="translate(480.017247 399.078438)scale(0.1 -0.1)">
       <use xlink:href="#DejaVuSans-31"/>
       <use x="63.623047" xlink:href="#DejaVuSans-35"/>
      </g>
     </g>
    </g>
    <g id="xtick_16">
     <g id="line2d_31">
      <path clip-path="url(#pda31dc3110)" d="M 518.4 384.48 
L 518.4 51.84 
" style="fill:none;stroke:#000000;stroke-dasharray:0.8,1.32;stroke-dashoffset:0;stroke-opacity:0.5;stroke-width:0.8;"/>
     </g>
     <g id="line2d_32">
      <g>
       <use style="stroke:#000000;stroke-width:0.8;" x="518.4" xlink:href="#ma127ea76db" y="384.48"/>
      </g>
     </g>
     <g id="text_16">
      <!-- Jan -->
      <g transform="translate(510.692188 399.078438)scale(0.1 -0.1)">
       <defs>
        <path d="M 2194 1759 
Q 1497 1759 1228 1600 
Q 959 1441 959 1056 
Q 959 750 1161 570 
Q 1363 391 1709 391 
Q 2188 391 2477 730 
Q 2766 1069 2766 1631 
L 2766 1759 
L 2194 1759 
z
M 3341 1997 
L 3341 0 
L 2766 0 
L 2766 531 
Q 2569 213 2275 61 
Q 1981 -91 1556 -91 
Q 1019 -91 701 211 
Q 384 513 384 1019 
Q 384 1609 779 1909 
Q 1175 2209 1959 2209 
L 2766 2209 
L 2766 2266 
Q 2766 2663 2505 2880 
Q 2244 3097 1772 3097 
Q 1472 3097 1187 3025 
Q 903 2953 641 2809 
L 641 3341 
Q 956 3463 1253 3523 
Q 1550 3584 1831 3584 
Q 2591 3584 2966 3190 
Q 3341 2797 3341 1997 
z
" id="DejaVuSans-61" transform="scale(0.015625)"/>
       </defs>
       <use xlink:href="#DejaVuSans-4a"/>
       <use x="29.492188" xlink:href="#DejaVuSans-61"/>
       <use x="90.771484" xlink:href="#DejaVuSans-6e"/>
      </g>
     </g>
    </g>
    <g id="text_17">
     <!-- 2022-Jan -->
     <g transform="translate(473.364062 411.756563)scale(0.1 -0.1)">
      <defs>
       <path d="M 1228 531 
L 3431 531 
L 3431 0 
L 469 0 
L 469 531 
Q 828 903 1448 1529 
Q 2069 2156 2228 2338 
Q 2531 2678 2651 2914 
Q 2772 3150 2772 3378 
Q 2772 3750 2511 3984 
Q 2250 4219 1831 4219 
Q 1534 4219 1204 4116 
Q 875 4013 500 3803 
L 500 4441 
Q 881 4594 1212 4672 
Q 1544 4750 1819 4750 
Q 2544 4750 2975 4387 
Q 3406 4025 3406 3419 
Q 3406 3131 3298 2873 
Q 3191 2616 2906 2266 
Q 2828 2175 2409 1742 
Q 1991 1309 1228 531 
z
" id="DejaVuSans-32" transform="scale(0.015625)"/>
       <path d="M 2034 4250 
Q 1547 4250 1301 3770 
Q 1056 3291 1056 2328 
Q 1056 1369 1301 889 
Q 1547 409 2034 409 
Q 2525 409 2770 889 
Q 3016 1369 3016 2328 
Q 3016 3291 2770 3770 
Q 2525 4250 2034 4250 
z
M 2034 4750 
Q 2819 4750 3233 4129 
Q 3647 3509 3647 2328 
Q 3647 1150 3233 529 
Q 2819 -91 2034 -91 
Q 1250 -91 836 529 
Q 422 1150 422 2328 
Q 422 3509 836 4129 
Q 1250 4750 2034 4750 
z
" id="DejaVuSans-30" transform="scale(0.015625)"/>
       <path d="M 313 2009 
L 1997 2009 
L 1997 1497 
L 313 1497 
L 313 2009 
z
" id="DejaVuSans-2d" transform="scale(0.015625)"/>
      </defs>
      <use xlink:href="#DejaVuSans-32"/>
      <use x="63.623047" xlink:href="#DejaVuSans-30"/>
      <use x="127.246094" xlink:href="#DejaVuSans-32"/>
      <use x="190.869141" xlink:href="#DejaVuSans-32"/>
      <use x="254.492188" xlink:href="#DejaVuSans-2d"/>
      <use x="296.201172" xlink:href="#DejaVuSans-4a"/>
      <use x="325.693359" xlink:href="#DejaVuSans-61"/>
      <use x="386.972656" xlink:href="#DejaVuSans-6e"/>
     </g>
    </g>
   </g>
   <g id="matplotlib.axis_2">
    <g id="ytick_1">
     <g id="line2d_33">
      <path clip-path="url(#pda31dc3110)" d="M 72 384.48 
L 518.4 384.48 
" style="fill:none;stroke:#000000;stroke-dasharray:0.8,1.32;stroke-dashoffset:0;stroke-opacity:0.5;stroke-width:0.8;"/>
     </g>
     <g id="line2d_34">
      <defs>
       <path d="M 0 0 
L -3.5 0 
" id="mec302dc193" style="stroke:#000000;stroke-width:0.8;"/>
      </defs>
      <g>
       <use style="stroke:#000000;stroke-width:0.8;" x="72" xlink:href="#mec302dc193" y="384.48"/>
      </g>
     </g>
     <g id="text_18">
      <!-- 0 -->
      <g transform="translate(58.6375 388.279219)scale(0.1 -0.1)">
       <use xlink:href="#DejaVuSans-30"/>
      </g>
     </g>
    </g>
    <g id="ytick_2">
     <g id="line2d_35">
      <path clip-path="url(#pda31dc3110)" d="M 72 351.216 
L 518.4 351.216 
" style="fill:none;stroke:#000000;stroke-dasharray:0.8,1.32;stroke-dashoffset:0;stroke-opacity:0.5;stroke-width:0.8;"/>
     </g>
     <g id="line2d_36">
      <g>
       <use style="stroke:#000000;stroke-width:0.8;" x="72" xlink:href="#mec302dc193" y="351.216"/>
      </g>
     </g>
     <g id="text_19">
      <!-- 10 -->
      <g transform="translate(52.275 355.015219)scale(0.1 -0.1)">
       <use xlink:href="#DejaVuSans-31"/>
       <use x="63.623047" xlink:href="#DejaVuSans-30"/>
      </g>
     </g>
    </g>
    <g id="ytick_3">
     <g id="line2d_37">
      <path clip-path="url(#pda31dc3110)" d="M 72 317.952 
L 518.4 317.952 
" style="fill:none;stroke:#000000;stroke-dasharray:0.8,1.32;stroke-dashoffset:0;stroke-opacity:0.5;stroke-width:0.8;"/>
     </g>
     <g id="line2d_38">
      <g>
       <use style="stroke:#000000;stroke-width:0.8;" x="72" xlink:href="#mec302dc193" y="317.952"/>
      </g>
     </g>
     <g id="text_20">
      <!-- 20 -->
      <g transform="translate(52.275 321.751219)scale(0.1 -0.1)">
       <use xlink:href="#DejaVuSans-32"/>
       <use x="63.623047" xlink:href="#DejaVuSans-30"/>
      </g>
     </g>
    </g>
    <g id="ytick_4">
     <g id="line2d_39">
      <path clip-path="url(#pda31dc3110)" d="M 72 284.688 
L 518.4 284.688 
" style="fill:none;stroke:#000000;stroke-dasharray:0.8,1.32;stroke-dashoffset:0;stroke-opacity:0.5;stroke-width:0.8;"/>
     </g>
     <g id="line2d_40">
      <g>
       <use style="stroke:#000000;stroke-width:0.8;" x="72" xlink:href="#mec302dc193" y="284.688"/>
      </g>
     </g>
     <g id="text_21">
      <!-- 30 -->
      <g transform="translate(52.275 288.487219)scale(0.1 -0.1)">
       <defs>
        <path d="M 2597 2516 
Q 3050 2419 3304 2112 
Q 3559 1806 3559 1356 
Q 3559 666 3084 287 
Q 2609 -91 1734 -91 
Q 1441 -91 1130 -33 
Q 819 25 488 141 
L 488 750 
Q 750 597 1062 519 
Q 1375 441 1716 441 
Q 2309 441 2620 675 
Q 2931 909 2931 1356 
Q 2931 1769 2642 2001 
Q 2353 2234 1838 2234 
L 1294 2234 
L 1294 2753 
L 1863 2753 
Q 2328 2753 2575 2939 
Q 2822 3125 2822 3475 
Q 2822 3834 2567 4026 
Q 2313 4219 1838 4219 
Q 1578 4219 1281 4162 
Q 984 4106 628 3988 
L 628 4550 
Q 988 4650 1302 4700 
Q 1616 4750 1894 4750 
Q 2613 4750 3031 4423 
Q 3450 4097 3450 3541 
Q 3450 3153 3228 2886 
Q 3006 2619 2597 2516 
z
" id="DejaVuSans-33" transform="scale(0.015625)"/>
       </defs>
       <use xlink:href="#DejaVuSans-33"/>
       <use x="63.623047" xlink:href="#DejaVuSans-30"/>
      </g>
     </g>
    </g>
    <g id="ytick_5">
     <g id="line2d_41">
      <path clip-path="url(#pda31dc3110)" d="M 72 251.424 
L 518.4 251.424 
" style="fill:none;stroke:#000000;stroke-dasharray:0.8,1.32;stroke-dashoffset:0;stroke-opacity:0.5;stroke-width:0.8;"/>
     </g>
     <g id="line2d_42">
      <g>
       <use style="stroke:#000000;stroke-width:0.8;" x="72" xlink:href="#mec302dc193" y="251.424"/>
      </g>
     </g>
     <g id="text_22">
      <!-- 40 -->
      <g transform="translate(52.275 255.223219)scale(0.1 -0.1)">
       <defs>
        <path d="M 2419 4116 
L 825 1625 
L 2419 1625 
L 2419 4116 
z
M 2253 4666 
L 3047 4666 
L 3047 1625 
L 3713 1625 
L 3713 1100 
L 3047 1100 
L 3047 0 
L 2419 0 
L 2419 1100 
L 313 1100 
L 313 1709 
L 2253 4666 
z
" id="DejaVuSans-34" transform="scale(0.015625)"/>
       </defs>
       <use xlink:href="#DejaVuSans-34"/>
       <use x="63.623047" xlink:href="#DejaVuSans-30"/>
      </g>
     </g>
    </g>
    <g id="ytick_6">
     <g id="line2d_43">
      <path clip-path="url(#pda31dc3110)" d="M 72 218.16 
L 518.4 218.16 
" style="fill:none;stroke:#000000;stroke-dasharray:0.8,1.32;stroke-dashoffset:0;stroke-opacity:0.5;stroke-width:0.8;"/>
     </g>
     <g id="line2d_44">
      <g>
       <use style="stroke:#000000;stroke-width:0.8;" x="72" xlink:href="#mec302dc193" y="218.16"/>
      </g>
     </g>
     <g id="text_23">
      <!-- 50 -->
      <g transform="translate(52.275 221.959219)scale(0.1 -0.1)">
       <use xlink:href="#DejaVuSans-35"/>
       <use x="63.623047" xlink:href="#DejaVuSans-30"/>
      </g>
     </g>
    </g>
    <g id="ytick_7">
     <g id="line2d_45">
      <path clip-path="url(#pda31dc3110)" d="M 72 184.896 
L 518.4 184.896 
" style="fill:none;stroke:#000000;stroke-dasharray:0.8,1.32;stroke-dashoffset:0;stroke-opacity:0.5;stroke-width:0.8;"/>
     </g>
     <g id="line2d_46">
      <g>
       <use style="stroke:#000000;stroke-width:0.8;" x="72" xlink:href="#mec302dc193" y="184.896"/>
      </g>
     </g>
     <g id="text_24">
      <!-- 60 -->
      <g transform="translate(52.275 188.695219)scale(0.1 -0.1)">
       <defs>
        <path d="M 2113 2584 
Q 1688 2584 1439 2293 
Q 1191 2003 1191 1497 
Q 1191 994 1439 701 
Q 1688 409 2113 409 
Q 2538 409 2786 701 
Q 3034 994 3034 1497 
Q 3034 2003 2786 2293 
Q 2538 2584 2113 2584 
z
M 3366 4563 
L 3366 3988 
Q 3128 4100 2886 4159 
Q 2644 4219 2406 4219 
Q 1781 4219 1451 3797 
Q 1122 3375 1075 2522 
Q 1259 2794 1537 2939 
Q 1816 3084 2150 3084 
Q 2853 3084 3261 2657 
Q 3669 2231 3669 1497 
Q 3669 778 3244 343 
Q 2819 -91 2113 -91 
Q 1303 -91 875 529 
Q 447 1150 447 2328 
Q 447 3434 972 4092 
Q 1497 4750 2381 4750 
Q 2619 4750 2861 4703 
Q 3103 4656 3366 4563 
z
" id="DejaVuSans-36" transform="scale(0.015625)"/>
       </defs>
       <use xlink:href="#DejaVuSans-36"/>
       <use x="63.623047" xlink:href="#DejaVuSans-30"/>
      </g>
     </g>
    </g>
    <g id="ytick_8">
     <g id="line2d_47">
      <path clip-path="url(#pda31dc3110)" d="M 72 151.632 
L 518.4 151.632 
" style="fill:none;stroke:#000000;stroke-dasharray:0.8,1.32;stroke-dashoffset:0;stroke-opacity:0.5;stroke-width:0.8;"/>
     </g>
     <g id="line2d_48">
      <g>
       <use style="stroke:#000000;stroke-width:0.8;" x="72" xlink:href="#mec302dc193" y="151.632"/>
      </g>
     </g>
     <g id="text_25">
      <!-- 70 -->
      <g transform="translate(52.275 155.431219)scale(0.1 -0.1)">
       <defs>
        <path d="M 525 4666 
L 3525 4666 
L 3525 4397 
L 1831 0 
L 1172 0 
L 2766 4134 
L 525 4134 
L 525 4666 
z
" id="DejaVuSans-37" transform="scale(0.015625)"/>
       </defs>
       <use xlink:href="#DejaVuSans-37"/>
       <use x="63.623047" xlink:href="#DejaVuSans-30"/>
      </g>
     </g>
    </g>
    <g id="ytick_9">
     <g id="line2d_49">
      <path clip-path="url(#pda31dc3110)" d="M 72 118.368 
L 518.4 118.368 
" style="fill:none;stroke:#000000;stroke-dasharray:0.8,1.32;stroke-dashoffset:0;stroke-opacity:0.5;stroke-width:0.8;"/>
     </g>
     <g id="line2d_50">
      <g>
       <use style="stroke:#000000;stroke-width:0.8;" x="72" xlink:href="#mec302dc193" y="118.368"/>
      </g>
     </g>
     <g id="text_26">
      <!-- 80 -->
      <g transform="translate(52.275 122.167219)scale(0.1 -0.1)">
       <defs>
        <path d="M 2034 2216 
Q 1584 2216 1326 1975 
Q 1069 1734 1069 1313 
Q 1069 891 1326 650 
Q 1584 409 2034 409 
Q 2484 409 2743 651 
Q 3003 894 3003 1313 
Q 3003 1734 2745 1975 
Q 2488 2216 2034 2216 
z
M 1403 2484 
Q 997 2584 770 2862 
Q 544 3141 544 3541 
Q 544 4100 942 4425 
Q 1341 4750 2034 4750 
Q 2731 4750 3128 4425 
Q 3525 4100 3525 3541 
Q 3525 3141 3298 2862 
Q 3072 2584 2669 2484 
Q 3125 2378 3379 2068 
Q 3634 1759 3634 1313 
Q 3634 634 3220 271 
Q 2806 -91 2034 -91 
Q 1263 -91 848 271 
Q 434 634 434 1313 
Q 434 1759 690 2068 
Q 947 2378 1403 2484 
z
M 1172 3481 
Q 1172 3119 1398 2916 
Q 1625 2713 2034 2713 
Q 2441 2713 2670 2916 
Q 2900 3119 2900 3481 
Q 2900 3844 2670 4047 
Q 2441 4250 2034 4250 
Q 1625 4250 1398 4047 
Q 1172 3844 1172 3481 
z
" id="DejaVuSans-38" transform="scale(0.015625)"/>
       </defs>
       <use xlink:href="#DejaVuSans-38"/>
       <use x="63.623047" xlink:href="#DejaVuSans-30"/>
      </g>
     </g>
    </g>
    <g id="ytick_10">
     <g id="line2d_51">
      <path clip-path="url(#pda31dc3110)" d="M 72 85.104 
L 518.4 85.104 
" style="fill:none;stroke:#000000;stroke-dasharray:0.8,1.32;stroke-dashoffset:0;stroke-opacity:0.5;stroke-width:0.8;"/>
     </g>
     <g id="line2d_52">
      <g>
       <use style="stroke:#000000;stroke-width:0.8;" x="72" xlink:href="#mec302dc193" y="85.104"/>
      </g>
     </g>
     <g id="text_27">
      <!-- 90 -->
      <g transform="translate(52.275 88.903219)scale(0.1 -0.1)">
       <defs>
        <path d="M 703 97 
L 703 672 
Q 941 559 1184 500 
Q 1428 441 1663 441 
Q 2288 441 2617 861 
Q 2947 1281 2994 2138 
Q 2813 1869 2534 1725 
Q 2256 1581 1919 1581 
Q 1219 1581 811 2004 
Q 403 2428 403 3163 
Q 403 3881 828 4315 
Q 1253 4750 1959 4750 
Q 2769 4750 3195 4129 
Q 3622 3509 3622 2328 
Q 3622 1225 3098 567 
Q 2575 -91 1691 -91 
Q 1453 -91 1209 -44 
Q 966 3 703 97 
z
M 1959 2075 
Q 2384 2075 2632 2365 
Q 2881 2656 2881 3163 
Q 2881 3666 2632 3958 
Q 2384 4250 1959 4250 
Q 1534 4250 1286 3958 
Q 1038 3666 1038 3163 
Q 1038 2656 1286 2365 
Q 1534 2075 1959 2075 
z
" id="DejaVuSans-39" transform="scale(0.015625)"/>
       </defs>
       <use xlink:href="#DejaVuSans-39"/>
       <use x="63.623047" xlink:href="#DejaVuSans-30"/>
      </g>
     </g>
    </g>
    <g id="ytick_11">
     <g id="line2d_53">
      <path clip-path="url(#pda31dc3110)" d="M 72 51.84 
L 518.4 51.84 
" style="fill:none;stroke:#000000;stroke-dasharray:0.8,1.32;stroke-dashoffset:0;stroke-opacity:0.5;stroke-width:0.8;"/>
     </g>
     <g id="line2d_54">
      <g>
       <use style="stroke:#000000;stroke-width:0.8;" x="72" xlink:href="#mec302dc193" y="51.84"/>
      </g>
     </g>
     <g id="text_28">
      <!-- 100 -->
      <g transform="translate(45.9125 55.639219)scale(0.1 -0.1)">
       <use xlink:href="#DejaVuSans-31"/>
       <use x="63.623047" xlink:href="#DejaVuSans-30"/>
       <use x="127.246094" xlink:href="#DejaVuSans-30"/>
      </g>
     </g>
    </g>
    <g id="text_29">
     <!-- Vaccine coverage (%) -->
     <g transform="translate(39.832812 272.435)rotate(-90)scale(0.1 -0.1)">
      <defs>
       <path d="M 1831 0 
L 50 4666 
L 709 4666 
L 2188 738 
L 3669 4666 
L 4325 4666 
L 2547 0 
L 1831 0 
z
" id="DejaVuSans-56" transform="scale(0.015625)"/>
       <path d="M 603 3500 
L 1178 3500 
L 1178 0 
L 603 0 
L 603 3500 
z
M 603 4863 
L 1178 4863 
L 1178 4134 
L 603 4134 
L 603 4863 
z
" id="DejaVuSans-69" transform="scale(0.015625)"/>
       <path id="DejaVuSans-20" transform="scale(0.015625)"/>
       <path d="M 2631 2963 
Q 2534 3019 2420 3045 
Q 2306 3072 2169 3072 
Q 1681 3072 1420 2755 
Q 1159 2438 1159 1844 
L 1159 0 
L 581 0 
L 581 3500 
L 1159 3500 
L 1159 2956 
Q 1341 3275 1631 3429 
Q 1922 3584 2338 3584 
Q 2397 3584 2469 3576 
Q 2541 3569 2628 3553 
L 2631 2963 
z
" id="DejaVuSans-72" transform="scale(0.015625)"/>
       <path d="M 1984 4856 
Q 1566 4138 1362 3434 
Q 1159 2731 1159 2009 
Q 1159 1288 1364 580 
Q 1569 -128 1984 -844 
L 1484 -844 
Q 1016 -109 783 600 
Q 550 1309 550 2009 
Q 550 2706 781 3412 
Q 1013 4119 1484 4856 
L 1984 4856 
z
" id="DejaVuSans-28" transform="scale(0.015625)"/>
       <path d="M 4653 2053 
Q 4381 2053 4226 1822 
Q 4072 1591 4072 1178 
Q 4072 772 4226 539 
Q 4381 306 4653 306 
Q 4919 306 5073 539 
Q 5228 772 5228 1178 
Q 5228 1588 5073 1820 
Q 4919 2053 4653 2053 
z
M 4653 2450 
Q 5147 2450 5437 2106 
Q 5728 1763 5728 1178 
Q 5728 594 5436 251 
Q 5144 -91 4653 -91 
Q 4153 -91 3862 251 
Q 3572 594 3572 1178 
Q 3572 1766 3864 2108 
Q 4156 2450 4653 2450 
z
M 1428 4353 
Q 1159 4353 1004 4120 
Q 850 3888 850 3481 
Q 850 3069 1003 2837 
Q 1156 2606 1428 2606 
Q 1700 2606 1854 2837 
Q 2009 3069 2009 3481 
Q 2009 3884 1853 4118 
Q 1697 4353 1428 4353 
z
M 4250 4750 
L 4750 4750 
L 1831 -91 
L 1331 -91 
L 4250 4750 
z
M 1428 4750 
Q 1922 4750 2215 4408 
Q 2509 4066 2509 3481 
Q 2509 2891 2217 2550 
Q 1925 2209 1428 2209 
Q 931 2209 642 2551 
Q 353 2894 353 3481 
Q 353 4063 643 4406 
Q 934 4750 1428 4750 
z
" id="DejaVuSans-25" transform="scale(0.015625)"/>
       <path d="M 513 4856 
L 1013 4856 
Q 1481 4119 1714 3412 
Q 1947 2706 1947 2009 
Q 1947 1309 1714 600 
Q 1481 -109 1013 -844 
L 513 -844 
Q 928 -128 1133 580 
Q 1338 1288 1338 2009 
Q 1338 2731 1133 3434 
Q 928 4138 513 4856 
z
" id="DejaVuSans-29" transform="scale(0.015625)"/>
      </defs>
      <use xlink:href="#DejaVuSans-56"/>
      <use x="60.658203" xlink:href="#DejaVuSans-61"/>
      <use x="121.9375" xlink:href="#DejaVuSans-63"/>
      <use x="176.917969" xlink:href="#DejaVuSans-63"/>
      <use x="231.898438" xlink:href="#DejaVuSans-69"/>
      <use x="259.681641" xlink:href="#DejaVuSans-6e"/>
      <use x="323.060547" xlink:href="#DejaVuSans-65"/>
      <use x="384.583984" xlink:href="#DejaVuSans-20"/>
      <use x="416.371094" xlink:href="#DejaVuSans-63"/>
      <use x="471.351562" xlink:href="#DejaVuSans-6f"/>
      <use x="532.533203" xlink:href="#DejaVuSans-76"/>
      <use x="591.712891" xlink:href="#DejaVuSans-65"/>
      <use x="653.236328" xlink:href="#DejaVuSans-72"/>
      <use x="694.349609" xlink:href="#DejaVuSans-61"/>
      <use x="755.628906" xlink:href="#DejaVuSans-67"/>
      <use x="819.105469" xlink:href="#DejaVuSans-65"/>
      <use x="880.628906" xlink:href="#DejaVuSans-20"/>
      <use x="912.416016" xlink:href="#DejaVuSans-28"/>
      <use x="951.429688" xlink:href="#DejaVuSans-25"/>
      <use x="1046.449219" xlink:href="#DejaVuSans-29"/>
     </g>
    </g>
   </g>
   <g id="line2d_55">
    <path clip-path="url(#pda31dc3110)" d="M 72 237.611407 
L 73.883544 235.632738 
L 75.767089 233.880742 
L 77.650633 230.87732 
L 79.534177 225.068815 
L 81.417722 225.068815 
L 83.301266 221.800941 
L 85.18481 221.800941 
L 87.068354 220.105613 
L 88.951899 215.070001 
L 90.835443 211.983151 
L 92.718987 207.540983 
L 94.602532 205.245915 
L 96.486076 204.855533 
L 98.36962 203.243634 
L 100.253165 201.51525 
L 102.136709 201.51525 
L 104.020253 198.995083 
L 105.903797 196.635476 
L 107.787342 194.330964 
L 109.670886 193.332971 
L 111.55443 192.81666 
L 113.437975 191.33069 
L 115.321519 187.165567 
L 117.205063 184.646974 
L 119.088608 182.833587 
L 120.972152 182.833587 
L 122.855696 181.934764 
L 124.739241 181.538086 
L 126.622785 179.932483 
L 128.506329 175.524946 
L 130.389873 173.363678 
L 132.273418 171.758075 
L 134.156962 171.093796 
L 136.040506 171.093796 
L 137.924051 170.761657 
L 139.807595 170.338219 
L 141.691139 168.483905 
L 143.574684 166.654777 
L 145.458228 164.959449 
L 147.341772 163.59626 
L 149.225316 162.906796 
L 151.108861 162.574656 
L 152.992405 161.268136 
L 154.875949 160.079675 
L 156.759494 158.659818 
L 158.643038 157.021159 
L 160.526582 155.908256 
L 162.410127 155.325831 
L 164.293671 155.059805 
L 166.177215 153.939031 
L 168.060759 152.692328 
L 169.944304 150.981259 
L 171.827848 149.586588 
L 173.711392 148.292661 
L 175.594937 147.666161 
L 177.478481 147.423746 
L 179.362025 146.430476 
L 181.24557 145.248312 
L 183.129114 144.119667 
L 185.012658 142.934354 
L 186.896203 142.035532 
L 188.779747 141.470422 
L 190.663291 141.1981 
L 192.546835 140.264646 
L 194.43038 139.154891 
L 196.313924 138.075044 
L 198.197468 136.960567 
L 200.081013 135.866553 
L 201.964557 135.117272 
L 203.848101 134.885876 
L 205.731646 133.88631 
L 207.61519 132.797018 
L 209.498734 131.673096 
L 211.382278 130.509821 
L 213.265823 129.459883 
L 215.149367 129.001814 
L 217.032911 128.754677 
L 218.916456 127.788167 
L 220.8 126.78073 
L 222.683544 125.7607 
L 224.567089 124.628907 
L 226.450633 123.62934 
L 228.334177 123.14766 
L 230.217722 122.865892 
L 232.101266 121.952902 
L 233.98481 120.947039 
L 235.868354 119.870341 
L 237.751899 118.779475 
L 239.635443 117.751574 
L 241.518987 117.290357 
L 243.402532 117.000719 
L 245.286076 116.054672 
L 247.16962 114.908713 
L 249.053165 113.825718 
L 250.936709 112.823003 
L 252.820253 111.632968 
L 254.703797 111.071007 
L 256.587342 110.740442 
L 258.470886 109.770783 
L 260.35443 108.678344 
L 262.237975 107.518217 
L 264.121519 106.526521 
L 266.005063 105.489176 
L 267.888608 104.950826 
L 269.772152 104.659614 
L 271.655696 103.748198 
L 273.539241 102.734465 
L 275.422785 101.63258 
L 277.306329 100.513381 
L 279.189873 99.518536 
L 281.073418 99.000651 
L 282.956962 98.709438 
L 284.840506 97.827931 
L 286.724051 96.777993 
L 288.607595 95.791019 
L 290.491139 94.646633 
L 292.374684 93.658086 
L 294.258228 93.207887 
L 296.141772 92.971769 
L 298.025316 92.041464 
L 299.908861 91.032453 
L 301.792405 89.796768 
L 303.675949 88.603585 
" style="fill:none;stroke:#1f77b4;stroke-linecap:square;stroke-width:1.5;"/>
   </g>
   <g id="line2d_56">
    <path clip-path="url(#pda31dc3110)" d="M 72 249.334238 
L 73.883544 246.797492 
L 75.767089 244.063732 
L 77.650633 240.861474 
L 79.534177 236.83767 
L 81.417722 236.83767 
L 83.301266 233.04319 
L 85.18481 233.04319 
L 87.068354 230.901653 
L 88.951899 227.377869 
L 90.835443 224.259539 
L 92.718987 221.338616 
L 94.602532 217.793161 
L 96.486076 217.460602 
L 98.36962 215.256415 
L 100.253165 212.781925 
L 102.136709 212.781925 
L 104.020253 209.913014 
L 105.903797 206.992091 
L 107.787342 204.568825 
L 109.670886 203.427329 
L 111.55443 202.906031 
L 113.437975 200.461487 
L 115.321519 195.212259 
L 117.205063 192.291336 
L 119.088608 190.014254 
L 120.972152 190.014254 
L 122.855696 188.903097 
L 124.739241 188.424355 
L 126.622785 186.314734 
L 128.506329 181.022556 
L 130.389873 178.1962 
L 132.273418 176.105887 
L 134.156962 175.315863 
L 136.040506 175.315863 
L 137.924051 174.983304 
L 139.807595 174.391081 
L 141.691139 172.186894 
L 143.574684 169.931877 
L 145.458228 167.768275 
L 147.341772 165.845423 
L 149.225316 164.961226 
L 151.108861 164.628667 
L 152.992405 163.13294 
L 154.875949 161.374792 
L 156.759494 159.452334 
L 158.643038 157.715856 
L 160.526582 156.125957 
L 162.410127 155.460052 
L 164.293671 155.222059 
L 166.177215 153.870152 
L 168.060759 152.206964 
L 169.944304 150.296327 
L 171.827848 148.591372 
L 173.711392 147.22528 
L 175.594937 146.627541 
L 177.478481 146.420283 
L 179.362025 145.228351 
L 181.24557 143.785424 
L 183.129114 142.424061 
L 185.012658 140.992954 
L 186.896203 139.869583 
L 188.779747 139.332918 
L 190.663291 139.135117 
L 192.546835 138.018838 
L 194.43038 136.781987 
L 196.313924 135.536468 
L 198.197468 134.225146 
L 200.081013 133.153786 
L 201.964557 132.598996 
L 203.848101 132.405923 
L 205.731646 131.270731 
L 207.61519 130.045307 
L 209.498734 128.826187 
L 211.382278 127.497528 
L 213.265823 126.384402 
L 215.149367 125.884775 
L 217.032911 125.682245 
L 218.916456 124.610098 
L 220.8 123.443778 
L 222.683544 122.253816 
L 224.567089 121.092224 
L 226.450633 120.000769 
L 228.334177 119.571674 
L 230.217722 119.360081 
L 232.101266 118.323002 
L 233.98481 117.169291 
L 235.868354 115.917467 
L 237.751899 114.672341 
L 239.635443 113.513114 
L 241.518987 113.043828 
L 243.402532 112.807017 
L 245.286076 111.833771 
L 247.16962 110.645385 
L 249.053165 109.456999 
L 250.936709 108.24182 
L 252.820253 107.130664 
L 254.703797 106.6137 
L 256.587342 106.390287 
L 258.470886 105.379214 
L 260.35443 104.235353 
L 262.237975 103.015051 
L 264.121519 101.841639 
L 266.005063 100.773825 
L 267.888608 100.285626 
L 269.772152 100.012565 
L 271.655696 98.944358 
L 273.539241 97.812318 
L 275.422785 96.628661 
L 277.306329 95.437123 
L 279.189873 94.378372 
L 281.073418 93.843678 
L 282.956962 93.599775 
L 284.840506 92.662384 
L 286.724051 91.579598 
L 288.607595 90.546065 
L 290.491139 89.488103 
L 292.374684 88.547954 
L 294.258228 88.116888 
L 296.141772 87.89978 
L 298.025316 86.914318 
L 299.908861 85.848081 
L 301.792405 84.681367 
L 303.675949 83.520563 
" style="fill:none;stroke:#ff7f0e;stroke-linecap:square;stroke-width:1.5;"/>
   </g>
   <g id="line2d_57">
    <path clip-path="url(#pda31dc3110)" d="M 72 260.277597 
L 73.883544 257.616521 
L 75.767089 254.818197 
L 77.650633 251.591818 
L 79.534177 248.224112 
L 81.417722 248.224112 
L 83.301266 244.427996 
L 85.18481 244.427996 
L 87.068354 241.86693 
L 88.951899 238.902987 
L 90.835443 235.843468 
L 92.718987 232.778275 
L 94.602532 229.386453 
L 96.486076 229.053797 
L 98.36962 226.796661 
L 100.253165 223.902583 
L 102.136709 223.902583 
L 104.020253 220.647832 
L 105.903797 217.582639 
L 107.787342 214.760022 
L 109.670886 213.525149 
L 111.55443 213.096739 
L 113.437975 210.33583 
L 115.321519 204.015531 
L 117.205063 200.689319 
L 119.088608 198.028243 
L 120.972152 198.028243 
L 122.855696 196.834686 
L 124.739241 196.169373 
L 126.622785 193.840953 
L 128.506329 187.657724 
L 130.389873 184.331335 
L 132.273418 182.074376 
L 134.156962 181.142193 
L 136.040506 181.142193 
L 137.924051 180.809536 
L 139.807595 180.144223 
L 141.691139 177.678556 
L 143.574684 175.250127 
L 145.458228 172.825954 
L 147.341772 170.730358 
L 149.225316 169.898007 
L 151.108861 169.49389 
L 152.992405 167.902067 
L 154.875949 165.906305 
L 156.759494 164.077402 
L 158.643038 162.147249 
L 160.526582 160.679729 
L 162.410127 160.014416 
L 164.293671 159.681759 
L 166.177215 158.351133 
L 168.060759 156.588194 
L 169.944304 154.265981 
L 171.827848 152.366859 
L 173.711392 150.870081 
L 175.594937 150.266654 
L 177.478481 150.065215 
L 179.362025 148.738667 
L 181.24557 147.232669 
L 183.129114 145.767454 
L 185.012658 144.262697 
L 186.896203 143.081199 
L 188.779747 142.580795 
L 190.663291 142.381307 
L 192.546835 141.225698 
L 194.43038 139.84613 
L 196.313924 138.498835 
L 198.197468 137.095152 
L 200.081013 135.920391 
L 201.964557 135.427435 
L 203.848101 135.230076 
L 205.731646 134.037938 
L 207.61519 132.771324 
L 209.498734 131.439102 
L 211.382278 130.112199 
L 213.265823 128.94063 
L 215.149367 128.433311 
L 217.032911 128.238434 
L 218.916456 127.13017 
L 220.8 125.922959 
L 222.683544 124.665212 
L 224.567089 123.372532 
L 226.450633 122.246004 
L 228.334177 121.794896 
L 230.217722 121.586187 
L 232.101266 120.517643 
L 233.98481 119.280643 
L 235.868354 117.926964 
L 237.751899 116.538353 
L 239.635443 115.26642 
L 241.518987 114.756086 
L 243.402532 114.52805 
L 245.286076 113.442128 
L 247.16962 112.15796 
L 249.053165 110.901454 
L 250.936709 109.621009 
L 252.820253 108.464868 
L 254.703797 107.937334 
L 256.587342 107.690324 
L 258.470886 106.595536 
L 260.35443 105.39666 
L 262.237975 104.072594 
L 264.121519 102.770693 
L 266.005063 101.618985 
L 267.888608 101.116276 
L 269.772152 100.877955 
L 271.655696 99.751958 
L 273.539241 98.524533 
L 275.422785 97.242138 
L 277.306329 95.964354 
L 279.189873 94.832505 
L 281.073418 94.341677 
L 282.956962 94.101405 
L 284.840506 93.09386 
L 286.724051 91.905978 
L 288.607595 90.759234 
L 290.491139 89.535178 
L 292.374684 88.465215 
L 294.258228 87.999567 
L 296.141772 87.797597 
L 298.025316 86.726393 
L 299.908861 85.564222 
L 301.792405 84.399037 
L 303.675949 83.225696 
" style="fill:none;stroke:#2ca02c;stroke-linecap:square;stroke-width:1.5;"/>
   </g>
   <g id="line2d_58">
    <path clip-path="url(#pda31dc3110)" d="M 72 339.172606 
L 73.883544 337.11265 
L 75.767089 334.731015 
L 77.650633 332.344304 
L 79.534177 329.705252 
L 81.417722 329.705252 
L 83.301266 326.159483 
L 85.18481 326.159483 
L 87.068354 323.697738 
L 88.951899 320.39329 
L 90.835443 317.180095 
L 92.718987 313.645346 
L 94.602532 309.589448 
L 96.486076 309.176639 
L 98.36962 306.129856 
L 100.253165 302.73923 
L 102.136709 302.73923 
L 104.020253 298.951892 
L 105.903797 295.062405 
L 107.787342 291.339205 
L 109.670886 289.343387 
L 111.55443 288.678114 
L 113.437975 284.788627 
L 115.321519 276.339303 
L 117.205063 271.956897 
L 119.088608 268.475142 
L 120.972152 268.475142 
L 122.855696 266.720892 
L 124.739241 265.46538 
L 126.622785 261.822414 
L 128.506329 253.104529 
L 130.389873 248.791337 
L 132.273418 245.55115 
L 134.156962 244.220481 
L 136.040506 244.220481 
L 137.924051 243.801729 
L 139.807595 243.050155 
L 141.691139 239.563571 
L 143.574684 236.414514 
L 145.458228 233.598032 
L 147.341772 230.93694 
L 149.225316 229.606395 
L 151.108861 229.27382 
L 152.992405 227.277878 
L 154.875949 224.874204 
L 156.759494 222.798275 
L 158.643038 220.647065 
L 160.526582 218.731357 
L 162.410127 217.82464 
L 164.293671 217.492065 
L 166.177215 215.737691 
L 168.060759 213.500304 
L 169.944304 210.436434 
L 171.827848 207.911542 
L 173.711392 205.808745 
L 175.594937 204.922086 
L 177.478481 204.609199 
L 179.362025 202.758742 
L 181.24557 200.752523 
L 183.129114 198.901819 
L 185.012658 196.955156 
L 186.896203 195.242261 
L 188.779747 194.488459 
L 190.663291 194.196249 
L 192.546835 192.623392 
L 194.43038 190.847598 
L 196.313924 189.126159 
L 198.197468 187.298114 
L 200.081013 185.622984 
L 201.964557 184.857418 
L 203.848101 184.589972 
L 205.731646 182.932919 
L 207.61519 181.233892 
L 209.498734 179.415133 
L 211.382278 177.583125 
L 213.265823 175.855991 
L 215.149367 175.076806 
L 217.032911 174.768995 
L 218.916456 173.11999 
L 220.8 171.396695 
L 222.683544 169.575088 
L 224.567089 167.81217 
L 226.450633 166.17629 
L 228.334177 165.513989 
L 230.217722 165.19553 
L 232.101266 163.641988 
L 233.98481 161.829296 
L 235.868354 159.980945 
L 237.751899 157.961106 
L 239.635443 156.014071 
L 241.518987 155.172977 
L 243.402532 154.775646 
L 245.286076 153.16552 
L 247.16962 151.283738 
L 249.053165 149.431176 
L 250.936709 147.565243 
L 252.820253 145.791925 
L 254.703797 144.95306 
L 256.587342 144.568482 
L 258.470886 142.913657 
L 260.35443 141.16857 
L 262.237975 139.247413 
L 264.121519 137.384451 
L 266.005063 135.559625 
L 267.888608 134.746762 
L 269.772152 134.3264 
L 271.655696 132.602733 
L 273.539241 130.754877 
L 275.422785 128.85217 
L 277.306329 126.975835 
L 279.189873 125.183078 
L 281.073418 124.315982 
L 282.956962 123.907879 
L 284.840506 122.356814 
L 286.724051 120.617051 
L 288.607595 118.937463 
L 290.491139 117.225063 
L 292.374684 115.548694 
L 294.258228 114.765795 
L 296.141772 114.430372 
L 298.025316 112.856401 
L 299.908861 111.20851 
L 301.792405 109.611385 
L 303.675949 107.971419 
" style="fill:none;stroke:#d62728;stroke-linecap:square;stroke-width:1.5;"/>
   </g>
   <g id="line2d_59">
    <path clip-path="url(#pda31dc3110)" d="M 72 353.372376 
L 73.883544 352.208688 
L 75.767089 350.882678 
L 77.650633 349.55656 
L 79.534177 348.060223 
L 81.417722 348.060223 
L 83.301266 345.817264 
L 85.18481 345.817264 
L 87.068354 344.572574 
L 88.951899 342.496527 
L 90.835443 340.505217 
L 92.718987 338.513799 
L 94.602532 335.686862 
L 96.486076 335.521231 
L 98.36962 333.529813 
L 100.253165 331.290483 
L 102.136709 331.290483 
L 104.020253 328.966522 
L 105.903797 326.309805 
L 107.787342 323.401973 
L 109.670886 321.572559 
L 111.55443 320.907366 
L 113.437975 317.999534 
L 115.321519 311.680572 
L 117.205063 308.269443 
L 119.088608 305.527349 
L 120.972152 305.527349 
L 122.855696 304.031012 
L 124.739241 302.862948 
L 126.622785 299.617984 
L 128.506329 292.304381 
L 130.389873 288.645339 
L 132.273418 285.818508 
L 134.156962 284.650445 
L 136.040506 284.650445 
L 137.924051 284.23626 
L 139.807595 283.319845 
L 141.691139 280.496216 
L 143.574684 278.002035 
L 145.458228 276.173154 
L 147.341772 274.510012 
L 149.225316 273.844712 
L 151.108861 273.426578 
L 152.992405 272.676648 
L 154.875949 271.59759 
L 156.759494 270.599747 
L 158.643038 269.682799 
L 160.526582 268.684956 
L 162.410127 267.934919 
L 164.293671 267.26962 
L 166.177215 266.353205 
L 168.060759 264.855693 
L 169.944304 263.28273 
L 171.827848 261.682446 
L 173.711392 260.29539 
L 175.594937 259.228392 
L 177.478481 258.416991 
L 179.362025 256.944559 
L 181.24557 255.286325 
L 183.129114 253.683586 
L 185.012658 252.103579 
L 186.896203 250.402657 
L 188.779747 249.148683 
L 190.663291 248.319033 
L 192.546835 246.592924 
L 194.43038 244.792751 
L 196.313924 242.953305 
L 198.197468 241.144808 
L 200.081013 239.198961 
L 201.964557 237.83357 
L 203.848101 236.986524 
L 205.731646 234.762988 
L 207.61519 232.671786 
L 209.498734 230.278991 
L 211.382278 227.947666 
L 213.265823 225.552096 
L 215.149367 223.901973 
L 217.032911 222.921632 
L 218.916456 220.585719 
L 220.8 218.458766 
L 222.683544 215.842603 
L 224.567089 213.598577 
L 226.450633 211.096285 
L 228.334177 209.628335 
L 230.217722 208.702102 
L 232.101266 206.631711 
L 233.98481 204.362072 
L 235.868354 202.050384 
L 237.751899 199.508819 
L 239.635443 197.076643 
L 241.518987 195.520862 
L 243.402532 194.565601 
L 245.286076 192.495957 
L 247.16962 190.011168 
L 249.053165 187.641851 
L 250.936709 185.229952 
L 252.820253 182.738119 
L 254.703797 181.20731 
L 256.587342 180.264002 
L 258.470886 177.817205 
L 260.35443 175.421101 
L 262.237975 172.836741 
L 264.121519 170.400403 
L 266.005063 167.885305 
L 267.888608 166.305298 
L 269.772152 165.230936 
L 271.655696 162.887979 
L 273.539241 160.446305 
L 275.422785 157.913278 
L 277.306329 155.573203 
L 279.189873 153.187344 
L 281.073418 151.544798 
L 282.956962 150.451866 
L 284.840506 148.401753 
L 286.724051 146.069681 
L 288.607595 143.870798 
L 290.491139 141.744058 
L 292.374684 139.591812 
L 294.258228 138.172954 
L 296.141772 137.344157 
L 298.025316 135.574293 
L 299.908861 133.742638 
L 301.792405 131.941718 
L 303.675949 130.116038 
" style="fill:none;stroke:#9467bd;stroke-linecap:square;stroke-width:1.5;"/>
   </g>
   <g id="line2d_60">
    <path clip-path="url(#pda31dc3110)" d="M 72 366.789301 
L 73.883544 366.622249 
L 75.767089 366.370762 
L 77.650633 366.038171 
L 79.534177 365.537417 
L 81.417722 365.537417 
L 83.301266 364.953339 
L 85.18481 364.953339 
L 87.068354 364.703064 
L 88.951899 363.786394 
L 90.835443 362.618239 
L 92.718987 362.120007 
L 94.602532 360.781268 
L 96.486076 360.781268 
L 98.36962 360.114875 
L 100.253165 359.363846 
L 102.136709 359.363846 
L 104.020253 358.615237 
L 105.903797 357.617261 
L 107.787342 356.782907 
L 109.670886 355.366594 
L 111.55443 354.70121 
L 113.437975 353.701216 
L 115.321519 350.703958 
L 117.205063 349.036159 
L 119.088608 348.28291 
L 120.972152 348.28291 
L 122.855696 347.700951 
L 124.739241 346.201213 
L 126.622785 343.953976 
L 128.506329 337.128537 
L 130.389873 334.634454 
L 132.273418 332.552756 
L 134.156962 331.469034 
L 136.040506 331.469034 
L 137.924051 331.053118 
L 139.807595 330.471159 
L 141.691139 326.726302 
L 143.574684 324.397859 
L 145.458228 322.983967 
L 147.341772 320.487362 
L 149.225316 319.156794 
L 151.108861 318.242243 
L 152.992405 316.828351 
L 154.875949 315.079346 
L 156.759494 313.748778 
L 158.643038 312.41821 
L 160.526582 311.170967 
L 162.410127 310.172991 
L 164.293671 309.425392 
L 166.177215 308.258345 
L 168.060759 306.099073 
L 169.944304 304.729567 
L 171.827848 302.49383 
L 173.711392 300.957978 
L 175.594937 299.737467 
L 177.478481 298.895951 
L 179.362025 297.271327 
L 181.24557 295.329747 
L 183.129114 293.648632 
L 185.012658 291.99778 
L 186.896203 290.348037 
L 188.779747 289.003044 
L 190.663291 288.084761 
L 192.546835 286.358352 
L 194.43038 284.362097 
L 196.313924 282.411438 
L 198.197468 280.559538 
L 200.081013 278.606559 
L 201.964557 277.093808 
L 203.848101 276.072125 
L 205.731646 273.797046 
L 207.61519 271.595103 
L 209.498734 269.058248 
L 211.382278 266.668472 
L 213.265823 264.21474 
L 215.149367 262.291419 
L 217.032911 261.10793 
L 218.916456 258.724913 
L 220.8 256.509654 
L 222.683544 253.680558 
L 224.567089 251.26072 
L 226.450633 248.548441 
L 228.334177 246.760497 
L 230.217722 245.628657 
L 232.101266 243.4712 
L 233.98481 240.9636 
L 235.868354 238.604692 
L 237.751899 235.837333 
L 239.635443 233.196978 
L 241.518987 231.349517 
L 243.402532 230.127392 
L 245.286076 227.799252 
L 247.16962 225.018375 
L 249.053165 222.422911 
L 250.936709 219.724955 
L 252.820253 216.816268 
L 254.703797 214.947017 
L 256.587342 213.739217 
L 258.470886 210.874209 
L 260.35443 208.16667 
L 262.237975 205.240127 
L 264.121519 202.45572 
L 266.005063 199.565393 
L 267.888608 197.595769 
L 269.772152 196.18218 
L 271.655696 193.493101 
L 273.539241 190.635155 
L 275.422785 187.65777 
L 277.306329 184.94781 
L 279.189873 182.082702 
L 281.073418 179.938763 
L 282.956962 178.224358 
L 284.840506 175.604582 
L 286.724051 172.690347 
L 288.607595 169.977058 
L 290.491139 167.551874 
L 292.374684 165.052545 
L 294.258228 163.238272 
L 296.141772 162.165345 
L 298.025316 160.189568 
L 299.908861 158.1113 
L 301.792405 156.00872 
L 303.675949 153.879005 
" style="fill:none;stroke:#8c564b;stroke-linecap:square;stroke-width:1.5;"/>
   </g>
   <g id="line2d_61">
    <path clip-path="url(#pda31dc3110)" d="M 72 369.819254 
L 73.883544 369.819254 
L 75.767089 369.486608 
L 77.650633 369.154051 
L 79.534177 368.905274 
L 81.417722 368.905274 
L 83.301266 368.490705 
L 85.18481 368.490705 
L 87.068354 368.240071 
L 88.951899 367.825414 
L 90.835443 367.160122 
L 92.718987 366.827476 
L 94.602532 366.246142 
L 96.486076 366.246142 
L 98.36962 365.913585 
L 100.253165 365.334551 
L 102.136709 365.334551 
L 104.020253 365.001905 
L 105.903797 364.506918 
L 107.787342 364.087925 
L 109.670886 363.75528 
L 111.55443 363.592938 
L 113.437975 363.260203 
L 115.321519 362.180343 
L 117.205063 361.685355 
L 119.088608 361.35271 
L 120.972152 361.35271 
L 122.855696 361.100483 
L 124.739241 360.687418 
L 126.622785 360.024073 
L 128.506329 358.44489 
L 130.389873 357.697586 
L 132.273418 357.366975 
L 134.156962 356.950372 
L 136.040506 356.950372 
L 137.924051 356.699649 
L 139.807595 356.537307 
L 141.691139 355.790004 
L 143.574684 355.124801 
L 145.458228 354.459509 
L 147.341772 353.878087 
L 149.225316 353.463518 
L 151.108861 353.130872 
L 152.992405 352.63385 
L 154.875949 352.052516 
L 156.759494 351.387313 
L 158.643038 350.972655 
L 160.526582 350.559591 
L 162.410127 350.145022 
L 164.293671 349.812288 
L 166.177215 349.47973 
L 168.060759 348.652008 
L 169.944304 347.912668 
L 171.827848 346.956399 
L 173.711392 346.23024 
L 175.594937 345.680402 
L 177.478481 345.251501 
L 179.362025 344.629913 
L 181.24557 343.836341 
L 183.129114 343.074971 
L 185.012658 342.286972 
L 186.896203 341.592839 
L 188.779747 340.914896 
L 190.663291 340.400445 
L 192.546835 339.622355 
L 194.43038 338.705544 
L 196.313924 337.795545 
L 198.197468 336.867587 
L 200.081013 335.972451 
L 201.964557 335.20595 
L 203.848101 334.750863 
L 205.731646 333.690023 
L 207.61519 332.716857 
L 209.498734 331.437055 
L 211.382278 330.288985 
L 213.265823 329.063946 
L 215.149367 328.165094 
L 217.032911 327.552442 
L 218.916456 326.332623 
L 220.8 325.072638 
L 222.683544 323.392246 
L 224.567089 321.926038 
L 226.450633 320.257147 
L 228.334177 319.16959 
L 230.217722 318.48917 
L 232.101266 317.05835 
L 233.98481 315.295239 
L 235.868354 313.563181 
L 237.751899 311.529175 
L 239.635443 309.474556 
L 241.518987 308.160428 
L 243.402532 307.210176 
L 245.286076 305.210762 
L 247.16962 302.661067 
L 249.053165 300.118892 
L 250.936709 297.435342 
L 252.820253 294.48143 
L 254.703797 292.545714 
L 256.587342 291.212742 
L 258.470886 287.921318 
L 260.35443 284.730749 
L 262.237975 281.048819 
L 264.121519 277.427226 
L 266.005063 273.56013 
L 267.888608 270.800319 
L 269.772152 268.22311 
L 271.655696 264.379547 
L 273.539241 260.508823 
L 275.422785 256.129045 
L 277.306329 252.468172 
L 279.189873 248.244454 
L 281.073418 244.805286 
L 282.956962 241.870128 
L 284.840506 238.704508 
L 286.724051 234.183886 
L 288.607595 229.666273 
L 290.491139 225.811827 
L 292.374684 221.719222 
L 294.258228 218.513967 
L 296.141772 216.259141 
L 298.025316 213.15775 
L 299.908861 209.647363 
L 301.792405 205.694805 
L 303.675949 201.822223 
" style="fill:none;stroke:#e377c2;stroke-linecap:square;stroke-width:1.5;"/>
   </g>
   <g id="line2d_62">
    <path clip-path="url(#pda31dc3110)" d="M 72 372.293695 
L 73.883544 372.293695 
L 75.767089 372.049313 
L 77.650633 371.874137 
L 79.534177 371.629754 
L 81.417722 371.629754 
L 83.301266 371.301552 
L 85.18481 371.301552 
L 87.068354 371.045406 
L 88.951899 370.793671 
L 90.835443 370.297646 
L 92.718987 369.96494 
L 94.602532 369.545382 
L 96.486076 369.545382 
L 98.36962 369.212768 
L 100.253165 368.961033 
L 102.136709 368.961033 
L 104.020253 368.628328 
L 105.903797 368.376685 
L 107.787342 368.043979 
L 109.670886 367.799781 
L 111.55443 367.711457 
L 113.437975 367.547954 
L 115.321519 366.795782 
L 117.205063 366.533662 
L 119.088608 366.287901 
L 120.972152 366.287901 
L 122.855696 365.959607 
L 124.739241 365.715316 
L 126.622785 365.207527 
L 128.506329 364.126969 
L 130.389873 363.707503 
L 132.273418 363.211385 
L 134.156962 363.036118 
L 136.040506 363.036118 
L 137.924051 362.95965 
L 139.807595 362.790449 
L 141.691139 362.294423 
L 143.574684 361.874865 
L 145.458228 361.453836 
L 147.341772 360.957811 
L 149.225316 360.706076 
L 151.108861 360.706076 
L 152.992405 360.286518 
L 154.875949 359.953904 
L 156.759494 359.621199 
L 158.643038 359.369464 
L 160.526582 359.03685 
L 162.410127 358.785115 
L 164.293671 358.540825 
L 166.177215 358.365557 
L 168.060759 357.781208 
L 169.944304 357.246306 
L 171.827848 356.61775 
L 173.711392 356.082021 
L 175.594937 355.703821 
L 177.478481 355.43251 
L 179.362025 354.999349 
L 181.24557 354.439724 
L 183.129114 353.929085 
L 185.012658 353.371573 
L 186.896203 352.840072 
L 188.779747 352.360682 
L 190.663291 351.990937 
L 192.546835 351.48903 
L 194.43038 350.846963 
L 196.313924 350.219326 
L 198.197468 349.607038 
L 200.081013 348.976919 
L 201.964557 348.436503 
L 203.848101 348.136424 
L 205.731646 347.363481 
L 207.61519 346.689707 
L 209.498734 345.778167 
L 211.382278 344.983074 
L 213.265823 344.092949 
L 215.149367 343.445276 
L 217.032911 343.00991 
L 218.916456 342.104988 
L 220.8 341.247122 
L 222.683544 340.047544 
L 224.567089 339.054299 
L 226.450633 337.888451 
L 228.334177 337.109993 
L 230.217722 336.625089 
L 232.101266 335.574033 
L 233.98481 334.346148 
L 235.868354 333.108612 
L 237.751899 331.648843 
L 239.635443 330.13393 
L 241.518987 329.179562 
L 243.402532 328.438051 
L 245.286076 326.826727 
L 247.16962 324.817535 
L 249.053165 322.816798 
L 250.936709 320.741433 
L 252.820253 318.421409 
L 254.703797 316.88067 
L 256.587342 315.732192 
L 258.470886 313.049226 
L 260.35443 310.425631 
L 262.237975 307.23515 
L 264.121519 304.024726 
L 266.005063 300.733515 
L 267.888608 298.410734 
L 269.772152 296.222138 
L 271.655696 292.905744 
L 273.539241 289.586501 
L 275.422785 285.89108 
L 277.306329 282.79894 
L 279.189873 279.234304 
L 281.073418 276.595728 
L 282.956962 273.916897 
L 284.840506 270.729725 
L 286.724051 266.468429 
L 288.607595 262.058978 
L 290.491139 258.304553 
L 292.374684 254.314292 
L 294.258228 251.202944 
L 296.141772 248.770793 
L 298.025316 245.87892 
L 299.908861 242.421724 
L 301.792405 238.353158 
L 303.675949 234.336428 
" style="fill:none;stroke:#7f7f7f;stroke-linecap:square;stroke-width:1.5;"/>
   </g>
   <g id="line2d_63">
    <path clip-path="url(#pda31dc3110)" d="M 72 382.996853 
L 73.883544 382.996853 
L 75.767089 382.996853 
L 77.650633 382.996853 
L 79.534177 382.826031 
L 81.417722 382.826031 
L 83.301266 382.66439 
L 85.18481 382.66439 
L 87.068354 382.66439 
L 88.951899 382.66439 
L 90.835443 382.331649 
L 92.718987 382.331649 
L 94.602532 382.170008 
L 96.486076 381.999186 
L 98.36962 381.837266 
L 100.253165 381.837266 
L 102.136709 381.837266 
L 104.020253 381.666444 
L 105.903797 381.504803 
L 107.787342 381.504803 
L 109.670886 381.504803 
L 111.55443 381.504803 
L 113.437975 381.172062 
L 115.321519 381.010421 
L 117.205063 380.839321 
L 119.088608 380.67768 
L 120.972152 380.67768 
L 122.855696 380.67768 
L 124.739241 380.67768 
L 126.622785 380.345217 
L 128.506329 380.012476 
L 130.389873 379.679734 
L 132.273418 379.679734 
L 134.156962 379.518093 
L 136.040506 379.518093 
L 137.924051 379.518093 
L 139.807595 379.518093 
L 141.691139 379.185352 
L 143.574684 379.185352 
L 145.458228 378.852889 
L 147.341772 378.852889 
L 149.225316 378.520148 
L 151.108861 378.520148 
L 152.992405 378.520148 
L 154.875949 378.187685 
L 156.759494 378.025765 
L 158.643038 378.025765 
L 160.526582 377.854943 
L 162.410127 377.693302 
L 164.293671 377.693302 
L 166.177215 377.522202 
L 168.060759 377.360561 
L 169.944304 377.066769 
L 171.827848 376.770474 
L 173.711392 376.53455 
L 175.594937 376.369014 
L 177.478481 376.268023 
L 179.362025 376.071049 
L 181.24557 375.850706 
L 183.129114 375.611444 
L 185.012658 375.353263 
L 186.896203 375.095639 
L 188.779747 374.868896 
L 190.663291 374.68472 
L 192.546835 374.443789 
L 194.43038 374.149719 
L 196.313924 373.838956 
L 198.197468 373.539322 
L 200.081013 373.248035 
L 201.964557 372.97344 
L 203.848101 372.820423 
L 205.731646 372.483787 
L 207.61519 372.175528 
L 209.498734 371.749864 
L 211.382278 371.382625 
L 213.265823 370.977548 
L 215.149367 370.621994 
L 217.032911 370.360475 
L 218.916456 369.920066 
L 220.8 369.487168 
L 222.683544 368.875659 
L 224.567089 368.352064 
L 226.450633 367.756969 
L 228.334177 367.347163 
L 230.217722 367.052815 
L 232.101266 366.515588 
L 233.98481 365.849827 
L 235.868354 365.184345 
L 237.751899 364.404796 
L 239.635443 363.557919 
L 241.518987 363.024865 
L 243.402532 362.575275 
L 245.286076 361.51807 
L 247.16962 359.444836 
L 249.053165 357.297598 
L 250.936709 355.511757 
L 252.820253 353.730923 
L 254.703797 352.472293 
L 256.587342 351.400621 
L 258.470886 349.778369 
L 260.35443 348.181433 
L 262.237975 346.073144 
L 264.121519 343.986556 
L 266.005063 341.536623 
L 267.888608 339.682064 
L 269.772152 337.855325 
L 271.655696 335.158619 
L 273.539241 332.412112 
L 275.422785 329.148688 
L 277.306329 326.572725 
L 279.189873 323.10732 
L 281.073418 320.231445 
L 282.956962 316.958005 
L 284.840506 313.384653 
L 286.724051 309.262946 
L 288.607595 304.592605 
L 290.491139 302.629265 
L 292.374684 298.570433 
L 294.258228 294.321583 
L 296.141772 291.504411 
L 298.025316 288.193413 
L 299.908861 283.962368 
L 301.792405 279.173509 
L 303.675949 274.478407 
" style="fill:none;stroke:#bcbd22;stroke-linecap:square;stroke-width:1.5;"/>
   </g>
   <g id="patch_3">
    <path d="M 72 384.48 
L 72 51.84 
" style="fill:none;stroke:#000000;stroke-linecap:square;stroke-linejoin:miter;stroke-width:0.8;"/>
   </g>
   <g id="patch_4">
    <path d="M 518.4 384.48 
L 518.4 51.84 
" style="fill:none;stroke:#000000;stroke-linecap:square;stroke-linejoin:miter;stroke-width:0.8;"/>
   </g>
   <g id="patch_5">
    <path d="M 72 384.48 
L 518.4 384.48 
" style="fill:none;stroke:#000000;stroke-linecap:square;stroke-linejoin:miter;stroke-width:0.8;"/>
   </g>
   <g id="patch_6">
    <path d="M 72 51.84 
L 518.4 51.84 
" style="fill:none;stroke:#000000;stroke-linecap:square;stroke-linejoin:miter;stroke-width:0.8;"/>
   </g>
   <g id="text_30">
    <!-- First dose coverage by age group -->
    <g transform="translate(194.92125 45.84)scale(0.12 -0.12)">
     <defs>
      <path d="M 628 4666 
L 3309 4666 
L 3309 4134 
L 1259 4134 
L 1259 2759 
L 3109 2759 
L 3109 2228 
L 1259 2228 
L 1259 0 
L 628 0 
L 628 4666 
z
" id="DejaVuSans-46" transform="scale(0.015625)"/>
      <path d="M 2834 3397 
L 2834 2853 
Q 2591 2978 2328 3040 
Q 2066 3103 1784 3103 
Q 1356 3103 1142 2972 
Q 928 2841 928 2578 
Q 928 2378 1081 2264 
Q 1234 2150 1697 2047 
L 1894 2003 
Q 2506 1872 2764 1633 
Q 3022 1394 3022 966 
Q 3022 478 2636 193 
Q 2250 -91 1575 -91 
Q 1294 -91 989 -36 
Q 684 19 347 128 
L 347 722 
Q 666 556 975 473 
Q 1284 391 1588 391 
Q 1994 391 2212 530 
Q 2431 669 2431 922 
Q 2431 1156 2273 1281 
Q 2116 1406 1581 1522 
L 1381 1569 
Q 847 1681 609 1914 
Q 372 2147 372 2553 
Q 372 3047 722 3315 
Q 1072 3584 1716 3584 
Q 2034 3584 2315 3537 
Q 2597 3491 2834 3397 
z
" id="DejaVuSans-73" transform="scale(0.015625)"/>
      <path d="M 2906 2969 
L 2906 4863 
L 3481 4863 
L 3481 0 
L 2906 0 
L 2906 525 
Q 2725 213 2448 61 
Q 2172 -91 1784 -91 
Q 1150 -91 751 415 
Q 353 922 353 1747 
Q 353 2572 751 3078 
Q 1150 3584 1784 3584 
Q 2172 3584 2448 3432 
Q 2725 3281 2906 2969 
z
M 947 1747 
Q 947 1113 1208 752 
Q 1469 391 1925 391 
Q 2381 391 2643 752 
Q 2906 1113 2906 1747 
Q 2906 2381 2643 2742 
Q 2381 3103 1925 3103 
Q 1469 3103 1208 2742 
Q 947 2381 947 1747 
z
" id="DejaVuSans-64" transform="scale(0.015625)"/>
      <path d="M 3116 1747 
Q 3116 2381 2855 2742 
Q 2594 3103 2138 3103 
Q 1681 3103 1420 2742 
Q 1159 2381 1159 1747 
Q 1159 1113 1420 752 
Q 1681 391 2138 391 
Q 2594 391 2855 752 
Q 3116 1113 3116 1747 
z
M 1159 2969 
Q 1341 3281 1617 3432 
Q 1894 3584 2278 3584 
Q 2916 3584 3314 3078 
Q 3713 2572 3713 1747 
Q 3713 922 3314 415 
Q 2916 -91 2278 -91 
Q 1894 -91 1617 61 
Q 1341 213 1159 525 
L 1159 0 
L 581 0 
L 581 4863 
L 1159 4863 
L 1159 2969 
z
" id="DejaVuSans-62" transform="scale(0.015625)"/>
      <path d="M 2059 -325 
Q 1816 -950 1584 -1140 
Q 1353 -1331 966 -1331 
L 506 -1331 
L 506 -850 
L 844 -850 
Q 1081 -850 1212 -737 
Q 1344 -625 1503 -206 
L 1606 56 
L 191 3500 
L 800 3500 
L 1894 763 
L 2988 3500 
L 3597 3500 
L 2059 -325 
z
" id="DejaVuSans-79" transform="scale(0.015625)"/>
     </defs>
     <use xlink:href="#DejaVuSans-46"/>
     <use x="50.269531" xlink:href="#DejaVuSans-69"/>
     <use x="78.052734" xlink:href="#DejaVuSans-72"/>
     <use x="119.166016" xlink:href="#DejaVuSans-73"/>
     <use x="171.265625" xlink:href="#DejaVuSans-74"/>
     <use x="210.474609" xlink:href="#DejaVuSans-20"/>
     <use x="242.261719" xlink:href="#DejaVuSans-64"/>
     <use x="305.738281" xlink:href="#DejaVuSans-6f"/>
     <use x="366.919922" xlink:href="#DejaVuSans-73"/>
     <use x="419.019531" xlink:href="#DejaVuSans-65"/>
     <use x="480.542969" xlink:href="#DejaVuSans-20"/>
     <use x="512.330078" xlink:href="#DejaVuSans-63"/>
     <use x="567.310547" xlink:href="#DejaVuSans-6f"/>
     <use x="628.492188" xlink:href="#DejaVuSans-76"/>
     <use x="687.671875" xlink:href="#DejaVuSans-65"/>
     <use x="749.195312" xlink:href="#DejaVuSans-72"/>
     <use x="790.308594" xlink:href="#DejaVuSans-61"/>
     <use x="851.587891" xlink:href="#DejaVuSans-67"/>
     <use x="915.064453" xlink:href="#DejaVuSans-65"/>
     <use x="976.587891" xlink:href="#DejaVuSans-20"/>
     <use x="1008.375" xlink:href="#DejaVuSans-62"/>
     <use x="1071.851562" xlink:href="#DejaVuSans-79"/>
     <use x="1131.03125" xlink:href="#DejaVuSans-20"/>
     <use x="1162.818359" xlink:href="#DejaVuSans-61"/>
     <use x="1224.097656" xlink:href="#DejaVuSans-67"/>
     <use x="1287.574219" xlink:href="#DejaVuSans-65"/>
     <use x="1349.097656" xlink:href="#DejaVuSans-20"/>
     <use x="1380.884766" xlink:href="#DejaVuSans-67"/>
     <use x="1444.361328" xlink:href="#DejaVuSans-72"/>
     <use x="1483.224609" xlink:href="#DejaVuSans-6f"/>
     <use x="1544.40625" xlink:href="#DejaVuSans-75"/>
     <use x="1607.785156" xlink:href="#DejaVuSans-70"/>
    </g>
   </g>
   <g id="legend_1">
    <g id="patch_7">
     <path d="M 389.604375 177.932812 
L 512.1 177.932812 
Q 513.9 177.932812 513.9 176.132812 
L 513.9 58.14 
Q 513.9 56.34 512.1 56.34 
L 389.604375 56.34 
Q 387.804375 56.34 387.804375 58.14 
L 387.804375 176.132812 
Q 387.804375 177.932812 389.604375 177.932812 
z
" style="fill:#ffffff;opacity:0.8;stroke:#cccccc;stroke-linejoin:miter;"/>
    </g>
    <g id="line2d_64">
     <path d="M 391.404375 63.628594 
L 409.404375 63.628594 
" style="fill:none;stroke:#1f77b4;stroke-linecap:square;stroke-width:1.5;"/>
    </g>
    <g id="line2d_65"/>
    <g id="text_31">
     <!-- Ages 90+ (88.9 %) -->
     <g transform="translate(416.604375 66.778594)scale(0.09 -0.09)">
      <defs>
       <path d="M 2944 4013 
L 2944 2272 
L 4684 2272 
L 4684 1741 
L 2944 1741 
L 2944 0 
L 2419 0 
L 2419 1741 
L 678 1741 
L 678 2272 
L 2419 2272 
L 2419 4013 
L 2944 4013 
z
" id="DejaVuSans-2b" transform="scale(0.015625)"/>
       <path d="M 684 794 
L 1344 794 
L 1344 0 
L 684 0 
L 684 794 
z
" id="DejaVuSans-2e" transform="scale(0.015625)"/>
      </defs>
      <use xlink:href="#DejaVuSans-41"/>
      <use x="68.408203" xlink:href="#DejaVuSans-67"/>
      <use x="131.884766" xlink:href="#DejaVuSans-65"/>
      <use x="193.408203" xlink:href="#DejaVuSans-73"/>
      <use x="245.507812" xlink:href="#DejaVuSans-20"/>
      <use x="277.294922" xlink:href="#DejaVuSans-39"/>
      <use x="340.917969" xlink:href="#DejaVuSans-30"/>
      <use x="404.541016" xlink:href="#DejaVuSans-2b"/>
      <use x="488.330078" xlink:href="#DejaVuSans-20"/>
      <use x="520.117188" xlink:href="#DejaVuSans-28"/>
      <use x="559.130859" xlink:href="#DejaVuSans-38"/>
      <use x="622.753906" xlink:href="#DejaVuSans-38"/>
      <use x="686.376953" xlink:href="#DejaVuSans-2e"/>
      <use x="718.164062" xlink:href="#DejaVuSans-39"/>
      <use x="781.787109" xlink:href="#DejaVuSans-20"/>
      <use x="813.574219" xlink:href="#DejaVuSans-25"/>
      <use x="908.59375" xlink:href="#DejaVuSans-29"/>
     </g>
    </g>
    <g id="line2d_66">
     <path d="M 391.404375 76.838906 
L 409.404375 76.838906 
" style="fill:none;stroke:#ff7f0e;stroke-linecap:square;stroke-width:1.5;"/>
    </g>
    <g id="line2d_67"/>
    <g id="text_32">
     <!-- Ages 8089 (90.5 %) -->
     <g transform="translate(416.604375 79.988906)scale(0.09 -0.09)">
      <defs>
       <path d="M 313 1978 
L 2888 1978 
L 2888 1528 
L 313 1528 
L 313 1978 
z
" id="DejaVuSans-2013" transform="scale(0.015625)"/>
      </defs>
      <use xlink:href="#DejaVuSans-41"/>
      <use x="68.408203" xlink:href="#DejaVuSans-67"/>
      <use x="131.884766" xlink:href="#DejaVuSans-65"/>
      <use x="193.408203" xlink:href="#DejaVuSans-73"/>
      <use x="245.507812" xlink:href="#DejaVuSans-20"/>
      <use x="277.294922" xlink:href="#DejaVuSans-38"/>
      <use x="340.917969" xlink:href="#DejaVuSans-30"/>
      <use x="404.541016" xlink:href="#DejaVuSans-2013"/>
      <use x="454.541016" xlink:href="#DejaVuSans-38"/>
      <use x="518.164062" xlink:href="#DejaVuSans-39"/>
      <use x="581.787109" xlink:href="#DejaVuSans-20"/>
      <use x="613.574219" xlink:href="#DejaVuSans-28"/>
      <use x="652.587891" xlink:href="#DejaVuSans-39"/>
      <use x="716.210938" xlink:href="#DejaVuSans-30"/>
      <use x="779.833984" xlink:href="#DejaVuSans-2e"/>
      <use x="811.621094" xlink:href="#DejaVuSans-35"/>
      <use x="875.244141" xlink:href="#DejaVuSans-20"/>
      <use x="907.03125" xlink:href="#DejaVuSans-25"/>
      <use x="1002.050781" xlink:href="#DejaVuSans-29"/>
     </g>
    </g>
    <g id="line2d_68">
     <path d="M 391.404375 90.049219 
L 409.404375 90.049219 
" style="fill:none;stroke:#2ca02c;stroke-linecap:square;stroke-width:1.5;"/>
    </g>
    <g id="line2d_69"/>
    <g id="text_33">
     <!-- Ages 7079 (90.6 %) -->
     <g transform="translate(416.604375 93.199219)scale(0.09 -0.09)">
      <use xlink:href="#DejaVuSans-41"/>
      <use x="68.408203" xlink:href="#DejaVuSans-67"/>
      <use x="131.884766" xlink:href="#DejaVuSans-65"/>
      <use x="193.408203" xlink:href="#DejaVuSans-73"/>
      <use x="245.507812" xlink:href="#DejaVuSans-20"/>
      <use x="277.294922" xlink:href="#DejaVuSans-37"/>
      <use x="340.917969" xlink:href="#DejaVuSans-30"/>
      <use x="404.541016" xlink:href="#DejaVuSans-2013"/>
      <use x="454.541016" xlink:href="#DejaVuSans-37"/>
      <use x="518.164062" xlink:href="#DejaVuSans-39"/>
      <use x="581.787109" xlink:href="#DejaVuSans-20"/>
      <use x="613.574219" xlink:href="#DejaVuSans-28"/>
      <use x="652.587891" xlink:href="#DejaVuSans-39"/>
      <use x="716.210938" xlink:href="#DejaVuSans-30"/>
      <use x="779.833984" xlink:href="#DejaVuSans-2e"/>
      <use x="811.621094" xlink:href="#DejaVuSans-36"/>
      <use x="875.244141" xlink:href="#DejaVuSans-20"/>
      <use x="907.03125" xlink:href="#DejaVuSans-25"/>
      <use x="1002.050781" xlink:href="#DejaVuSans-29"/>
     </g>
    </g>
    <g id="line2d_70">
     <path d="M 391.404375 103.259531 
L 409.404375 103.259531 
" style="fill:none;stroke:#d62728;stroke-linecap:square;stroke-width:1.5;"/>
    </g>
    <g id="line2d_71"/>
    <g id="text_34">
     <!-- Ages 6069 (83.1 %) -->
     <g transform="translate(416.604375 106.409531)scale(0.09 -0.09)">
      <use xlink:href="#DejaVuSans-41"/>
      <use x="68.408203" xlink:href="#DejaVuSans-67"/>
      <use x="131.884766" xlink:href="#DejaVuSans-65"/>
      <use x="193.408203" xlink:href="#DejaVuSans-73"/>
      <use x="245.507812" xlink:href="#DejaVuSans-20"/>
      <use x="277.294922" xlink:href="#DejaVuSans-36"/>
      <use x="340.917969" xlink:href="#DejaVuSans-30"/>
      <use x="404.541016" xlink:href="#DejaVuSans-2013"/>
      <use x="454.541016" xlink:href="#DejaVuSans-36"/>
      <use x="518.164062" xlink:href="#DejaVuSans-39"/>
      <use x="581.787109" xlink:href="#DejaVuSans-20"/>
      <use x="613.574219" xlink:href="#DejaVuSans-28"/>
      <use x="652.587891" xlink:href="#DejaVuSans-38"/>
      <use x="716.210938" xlink:href="#DejaVuSans-33"/>
      <use x="779.833984" xlink:href="#DejaVuSans-2e"/>
      <use x="811.621094" xlink:href="#DejaVuSans-31"/>
      <use x="875.244141" xlink:href="#DejaVuSans-20"/>
      <use x="907.03125" xlink:href="#DejaVuSans-25"/>
      <use x="1002.050781" xlink:href="#DejaVuSans-29"/>
     </g>
    </g>
    <g id="line2d_72">
     <path d="M 391.404375 116.469844 
L 409.404375 116.469844 
" style="fill:none;stroke:#9467bd;stroke-linecap:square;stroke-width:1.5;"/>
    </g>
    <g id="line2d_73"/>
    <g id="text_35">
     <!-- Ages 5059 (76.5 %) -->
     <g transform="translate(416.604375 119.619844)scale(0.09 -0.09)">
      <use xlink:href="#DejaVuSans-41"/>
      <use x="68.408203" xlink:href="#DejaVuSans-67"/>
      <use x="131.884766" xlink:href="#DejaVuSans-65"/>
      <use x="193.408203" xlink:href="#DejaVuSans-73"/>
      <use x="245.507812" xlink:href="#DejaVuSans-20"/>
      <use x="277.294922" xlink:href="#DejaVuSans-35"/>
      <use x="340.917969" xlink:href="#DejaVuSans-30"/>
      <use x="404.541016" xlink:href="#DejaVuSans-2013"/>
      <use x="454.541016" xlink:href="#DejaVuSans-35"/>
      <use x="518.164062" xlink:href="#DejaVuSans-39"/>
      <use x="581.787109" xlink:href="#DejaVuSans-20"/>
      <use x="613.574219" xlink:href="#DejaVuSans-28"/>
      <use x="652.587891" xlink:href="#DejaVuSans-37"/>
      <use x="716.210938" xlink:href="#DejaVuSans-36"/>
      <use x="779.833984" xlink:href="#DejaVuSans-2e"/>
      <use x="811.621094" xlink:href="#DejaVuSans-35"/>
      <use x="875.244141" xlink:href="#DejaVuSans-20"/>
      <use x="907.03125" xlink:href="#DejaVuSans-25"/>
      <use x="1002.050781" xlink:href="#DejaVuSans-29"/>
     </g>
    </g>
    <g id="line2d_74">
     <path d="M 391.404375 129.680156 
L 409.404375 129.680156 
" style="fill:none;stroke:#8c564b;stroke-linecap:square;stroke-width:1.5;"/>
    </g>
    <g id="line2d_75"/>
    <g id="text_36">
     <!-- Ages 4049 (69.3 %) -->
     <g transform="translate(416.604375 132.830156)scale(0.09 -0.09)">
      <use xlink:href="#DejaVuSans-41"/>
      <use x="68.408203" xlink:href="#DejaVuSans-67"/>
      <use x="131.884766" xlink:href="#DejaVuSans-65"/>
      <use x="193.408203" xlink:href="#DejaVuSans-73"/>
      <use x="245.507812" xlink:href="#DejaVuSans-20"/>
      <use x="277.294922" xlink:href="#DejaVuSans-34"/>
      <use x="340.917969" xlink:href="#DejaVuSans-30"/>
      <use x="404.541016" xlink:href="#DejaVuSans-2013"/>
      <use x="454.541016" xlink:href="#DejaVuSans-34"/>
      <use x="518.164062" xlink:href="#DejaVuSans-39"/>
      <use x="581.787109" xlink:href="#DejaVuSans-20"/>
      <use x="613.574219" xlink:href="#DejaVuSans-28"/>
      <use x="652.587891" xlink:href="#DejaVuSans-36"/>
      <use x="716.210938" xlink:href="#DejaVuSans-39"/>
      <use x="779.833984" xlink:href="#DejaVuSans-2e"/>
      <use x="811.621094" xlink:href="#DejaVuSans-33"/>
      <use x="875.244141" xlink:href="#DejaVuSans-20"/>
      <use x="907.03125" xlink:href="#DejaVuSans-25"/>
      <use x="1002.050781" xlink:href="#DejaVuSans-29"/>
     </g>
    </g>
    <g id="line2d_76">
     <path d="M 391.404375 142.890469 
L 409.404375 142.890469 
" style="fill:none;stroke:#e377c2;stroke-linecap:square;stroke-width:1.5;"/>
    </g>
    <g id="line2d_77"/>
    <g id="text_37">
     <!-- Ages 3039 (54.9 %) -->
     <g transform="translate(416.604375 146.040469)scale(0.09 -0.09)">
      <use xlink:href="#DejaVuSans-41"/>
      <use x="68.408203" xlink:href="#DejaVuSans-67"/>
      <use x="131.884766" xlink:href="#DejaVuSans-65"/>
      <use x="193.408203" xlink:href="#DejaVuSans-73"/>
      <use x="245.507812" xlink:href="#DejaVuSans-20"/>
      <use x="277.294922" xlink:href="#DejaVuSans-33"/>
      <use x="340.917969" xlink:href="#DejaVuSans-30"/>
      <use x="404.541016" xlink:href="#DejaVuSans-2013"/>
      <use x="454.541016" xlink:href="#DejaVuSans-33"/>
      <use x="518.164062" xlink:href="#DejaVuSans-39"/>
      <use x="581.787109" xlink:href="#DejaVuSans-20"/>
      <use x="613.574219" xlink:href="#DejaVuSans-28"/>
      <use x="652.587891" xlink:href="#DejaVuSans-35"/>
      <use x="716.210938" xlink:href="#DejaVuSans-34"/>
      <use x="779.833984" xlink:href="#DejaVuSans-2e"/>
      <use x="811.621094" xlink:href="#DejaVuSans-39"/>
      <use x="875.244141" xlink:href="#DejaVuSans-20"/>
      <use x="907.03125" xlink:href="#DejaVuSans-25"/>
      <use x="1002.050781" xlink:href="#DejaVuSans-29"/>
     </g>
    </g>
    <g id="line2d_78">
     <path d="M 391.404375 156.100781 
L 409.404375 156.100781 
" style="fill:none;stroke:#7f7f7f;stroke-linecap:square;stroke-width:1.5;"/>
    </g>
    <g id="line2d_79"/>
    <g id="text_38">
     <!-- Ages 2029 (45.1 %) -->
     <g transform="translate(416.604375 159.250781)scale(0.09 -0.09)">
      <use xlink:href="#DejaVuSans-41"/>
      <use x="68.408203" xlink:href="#DejaVuSans-67"/>
      <use x="131.884766" xlink:href="#DejaVuSans-65"/>
      <use x="193.408203" xlink:href="#DejaVuSans-73"/>
      <use x="245.507812" xlink:href="#DejaVuSans-20"/>
      <use x="277.294922" xlink:href="#DejaVuSans-32"/>
      <use x="340.917969" xlink:href="#DejaVuSans-30"/>
      <use x="404.541016" xlink:href="#DejaVuSans-2013"/>
      <use x="454.541016" xlink:href="#DejaVuSans-32"/>
      <use x="518.164062" xlink:href="#DejaVuSans-39"/>
      <use x="581.787109" xlink:href="#DejaVuSans-20"/>
      <use x="613.574219" xlink:href="#DejaVuSans-28"/>
      <use x="652.587891" xlink:href="#DejaVuSans-34"/>
      <use x="716.210938" xlink:href="#DejaVuSans-35"/>
      <use x="779.833984" xlink:href="#DejaVuSans-2e"/>
      <use x="811.621094" xlink:href="#DejaVuSans-31"/>
      <use x="875.244141" xlink:href="#DejaVuSans-20"/>
      <use x="907.03125" xlink:href="#DejaVuSans-25"/>
      <use x="1002.050781" xlink:href="#DejaVuSans-29"/>
     </g>
    </g>
    <g id="line2d_80">
     <path d="M 391.404375 169.311094 
L 409.404375 169.311094 
" style="fill:none;stroke:#bcbd22;stroke-linecap:square;stroke-width:1.5;"/>
    </g>
    <g id="line2d_81"/>
    <g id="text_39">
     <!-- Ages 1619 (33.1 %) -->
     <g transform="translate(416.604375 172.461094)scale(0.09 -0.09)">
      <use xlink:href="#DejaVuSans-41"/>
      <use x="68.408203" xlink:href="#DejaVuSans-67"/>
      <use x="131.884766" xlink:href="#DejaVuSans-65"/>
      <use x="193.408203" xlink:href="#DejaVuSans-73"/>
      <use x="245.507812" xlink:href="#DejaVuSans-20"/>
      <use x="277.294922" xlink:href="#DejaVuSans-31"/>
      <use x="340.917969" xlink:href="#DejaVuSans-36"/>
      <use x="404.541016" xlink:href="#DejaVuSans-2013"/>
      <use x="454.541016" xlink:href="#DejaVuSans-31"/>
      <use x="518.164062" xlink:href="#DejaVuSans-39"/>
      <use x="581.787109" xlink:href="#DejaVuSans-20"/>
      <use x="613.574219" xlink:href="#DejaVuSans-28"/>
      <use x="652.587891" xlink:href="#DejaVuSans-33"/>
      <use x="716.210938" xlink:href="#DejaVuSans-33"/>
      <use x="779.833984" xlink:href="#DejaVuSans-2e"/>
      <use x="811.621094" xlink:href="#DejaVuSans-31"/>
      <use x="875.244141" xlink:href="#DejaVuSans-20"/>
      <use x="907.03125" xlink:href="#DejaVuSans-25"/>
      <use x="1002.050781" xlink:href="#DejaVuSans-29"/>
     </g>
    </g>
   </g>
  </g>
 </g>
 <defs>
  <clipPath id="pda31dc3110">
   <rect height="332.64" width="446.4" x="72" y="51.84"/>
  </clipPath>
 </defs>
</svg>
