<?xml version="1.0" encoding="utf-8" standalone="no"?>
<!DOCTYPE svg PUBLIC "-//W3C//DTD SVG 1.1//EN"
  "http://www.w3.org/Graphics/SVG/1.1/DTD/svg11.dtd">
<svg height="432pt" version="1.1" viewBox="0 0 576 432" width="576pt" xmlns="http://www.w3.org/2000/svg" xmlns:xlink="http://www.w3.org/1999/xlink">
 <metadata>
  <rdf:RDF xmlns:cc="http://creativecommons.org/ns#" xmlns:dc="http://purl.org/dc/elements/1.1/" xmlns:rdf="http://www.w3.org/1999/02/22-rdf-syntax-ns#">
   <cc:Work>
    <dc:type rdf:resource="http://purl.org/dc/dcmitype/StillImage"/>
    <dc:date>2021-12-09T13:50:49.753823</dc:date>
    <dc:format>image/svg+xml</dc:format>
    <dc:creator>
     <cc:Agent>
      <dc:title>Matplotlib v3.4.3, https://matplotlib.org/</dc:title>
     </cc:Agent>
    </dc:creator>
   </cc:Work>
  </rdf:RDF>
 </metadata>
 <defs>
  <style type="text/css">*{stroke-linecap:butt;stroke-linejoin:round;}</style>
 </defs>
 <g id="figure_1">
  <g id="patch_1">
   <path d="M 0 432 
L 576 432 
L 576 0 
L 0 0 
z
" style="fill:#ffffff;"/>
  </g>
  <g id="axes_1">
   <g id="patch_2">
    <path d="M 72 384.48 
L 518.4 384.48 
L 518.4 51.84 
L 72 51.84 
z
" style="fill:#ffffff;"/>
   </g>
   <g id="matplotlib.axis_1">
    <g id="xtick_1">
     <g id="line2d_1">
      <path clip-path="url(#p5cb16fe166)" d="M 81.99403 384.48 
L 81.99403 51.84 
" style="fill:none;stroke:#000000;stroke-dasharray:0.8,1.32;stroke-dashoffset:0;stroke-opacity:0.5;stroke-width:0.8;"/>
     </g>
     <g id="line2d_2">
      <defs>
       <path d="M 0 0 
L 0 3.5 
" id="m40c10ad862" style="stroke:#000000;stroke-width:0.8;"/>
      </defs>
      <g>
       <use style="stroke:#000000;stroke-width:0.8;" x="81.99403" xlink:href="#m40c10ad862" y="384.48"/>
      </g>
     </g>
     <g id="text_1">
      <!-- 15 -->
      <g transform="translate(75.63153 399.078438)scale(0.1 -0.1)">
       <defs>
        <path d="M 794 531 
L 1825 531 
L 1825 4091 
L 703 3866 
L 703 4441 
L 1819 4666 
L 2450 4666 
L 2450 531 
L 3481 531 
L 3481 0 
L 794 0 
L 794 531 
z
" id="DejaVuSans-31" transform="scale(0.015625)"/>
        <path d="M 691 4666 
L 3169 4666 
L 3169 4134 
L 1269 4134 
L 1269 2991 
Q 1406 3038 1543 3061 
Q 1681 3084 1819 3084 
Q 2600 3084 3056 2656 
Q 3513 2228 3513 1497 
Q 3513 744 3044 326 
Q 2575 -91 1722 -91 
Q 1428 -91 1123 -41 
Q 819 9 494 109 
L 494 744 
Q 775 591 1075 516 
Q 1375 441 1709 441 
Q 2250 441 2565 725 
Q 2881 1009 2881 1497 
Q 2881 1984 2565 2268 
Q 2250 2553 1709 2553 
Q 1456 2553 1204 2497 
Q 953 2441 691 2322 
L 691 4666 
z
" id="DejaVuSans-35" transform="scale(0.015625)"/>
       </defs>
       <use xlink:href="#DejaVuSans-31"/>
       <use x="63.623047" xlink:href="#DejaVuSans-35"/>
      </g>
     </g>
    </g>
    <g id="xtick_2">
     <g id="line2d_3">
      <path clip-path="url(#p5cb16fe166)" d="M 110.310448 384.48 
L 110.310448 51.84 
" style="fill:none;stroke:#000000;stroke-dasharray:0.8,1.32;stroke-dashoffset:0;stroke-opacity:0.5;stroke-width:0.8;"/>
     </g>
     <g id="line2d_4">
      <g>
       <use style="stroke:#000000;stroke-width:0.8;" x="110.310448" xlink:href="#m40c10ad862" y="384.48"/>
      </g>
     </g>
     <g id="text_2">
      <!-- Jun -->
      <g transform="translate(102.497948 399.078438)scale(0.1 -0.1)">
       <defs>
        <path d="M 628 4666 
L 1259 4666 
L 1259 325 
Q 1259 -519 939 -900 
Q 619 -1281 -91 -1281 
L -331 -1281 
L -331 -750 
L -134 -750 
Q 284 -750 456 -515 
Q 628 -281 628 325 
L 628 4666 
z
" id="DejaVuSans-4a" transform="scale(0.015625)"/>
        <path d="M 544 1381 
L 544 3500 
L 1119 3500 
L 1119 1403 
Q 1119 906 1312 657 
Q 1506 409 1894 409 
Q 2359 409 2629 706 
Q 2900 1003 2900 1516 
L 2900 3500 
L 3475 3500 
L 3475 0 
L 2900 0 
L 2900 538 
Q 2691 219 2414 64 
Q 2138 -91 1772 -91 
Q 1169 -91 856 284 
Q 544 659 544 1381 
z
M 1991 3584 
L 1991 3584 
z
" id="DejaVuSans-75" transform="scale(0.015625)"/>
        <path d="M 3513 2113 
L 3513 0 
L 2938 0 
L 2938 2094 
Q 2938 2591 2744 2837 
Q 2550 3084 2163 3084 
Q 1697 3084 1428 2787 
Q 1159 2491 1159 1978 
L 1159 0 
L 581 0 
L 581 3500 
L 1159 3500 
L 1159 2956 
Q 1366 3272 1645 3428 
Q 1925 3584 2291 3584 
Q 2894 3584 3203 3211 
Q 3513 2838 3513 2113 
z
" id="DejaVuSans-6e" transform="scale(0.015625)"/>
       </defs>
       <use xlink:href="#DejaVuSans-4a"/>
       <use x="29.492188" xlink:href="#DejaVuSans-75"/>
       <use x="92.871094" xlink:href="#DejaVuSans-6e"/>
      </g>
     </g>
    </g>
    <g id="xtick_3">
     <g id="line2d_5">
      <path clip-path="url(#p5cb16fe166)" d="M 133.629851 384.48 
L 133.629851 51.84 
" style="fill:none;stroke:#000000;stroke-dasharray:0.8,1.32;stroke-dashoffset:0;stroke-opacity:0.5;stroke-width:0.8;"/>
     </g>
     <g id="line2d_6">
      <g>
       <use style="stroke:#000000;stroke-width:0.8;" x="133.629851" xlink:href="#m40c10ad862" y="384.48"/>
      </g>
     </g>
     <g id="text_3">
      <!-- 15 -->
      <g transform="translate(127.267351 399.078438)scale(0.1 -0.1)">
       <use xlink:href="#DejaVuSans-31"/>
       <use x="63.623047" xlink:href="#DejaVuSans-35"/>
      </g>
     </g>
    </g>
    <g id="xtick_4">
     <g id="line2d_7">
      <path clip-path="url(#p5cb16fe166)" d="M 160.280597 384.48 
L 160.280597 51.84 
" style="fill:none;stroke:#000000;stroke-dasharray:0.8,1.32;stroke-dashoffset:0;stroke-opacity:0.5;stroke-width:0.8;"/>
     </g>
     <g id="line2d_8">
      <g>
       <use style="stroke:#000000;stroke-width:0.8;" x="160.280597" xlink:href="#m40c10ad862" y="384.48"/>
      </g>
     </g>
     <g id="text_4">
      <!-- Jul -->
      <g transform="translate(154.247785 399.078438)scale(0.1 -0.1)">
       <defs>
        <path d="M 603 4863 
L 1178 4863 
L 1178 0 
L 603 0 
L 603 4863 
z
" id="DejaVuSans-6c" transform="scale(0.015625)"/>
       </defs>
       <use xlink:href="#DejaVuSans-4a"/>
       <use x="29.492188" xlink:href="#DejaVuSans-75"/>
       <use x="92.871094" xlink:href="#DejaVuSans-6c"/>
      </g>
     </g>
    </g>
    <g id="xtick_5">
     <g id="line2d_9">
      <path clip-path="url(#p5cb16fe166)" d="M 183.6 384.48 
L 183.6 51.84 
" style="fill:none;stroke:#000000;stroke-dasharray:0.8,1.32;stroke-dashoffset:0;stroke-opacity:0.5;stroke-width:0.8;"/>
     </g>
     <g id="line2d_10">
      <g>
       <use style="stroke:#000000;stroke-width:0.8;" x="183.6" xlink:href="#m40c10ad862" y="384.48"/>
      </g>
     </g>
     <g id="text_5">
      <!-- 15 -->
      <g transform="translate(177.2375 399.078438)scale(0.1 -0.1)">
       <use xlink:href="#DejaVuSans-31"/>
       <use x="63.623047" xlink:href="#DejaVuSans-35"/>
      </g>
     </g>
    </g>
    <g id="xtick_6">
     <g id="line2d_11">
      <path clip-path="url(#p5cb16fe166)" d="M 211.916418 384.48 
L 211.916418 51.84 
" style="fill:none;stroke:#000000;stroke-dasharray:0.8,1.32;stroke-dashoffset:0;stroke-opacity:0.5;stroke-width:0.8;"/>
     </g>
     <g id="line2d_12">
      <g>
       <use style="stroke:#000000;stroke-width:0.8;" x="211.916418" xlink:href="#m40c10ad862" y="384.48"/>
      </g>
     </g>
     <g id="text_6">
      <!-- Aug -->
      <g transform="translate(202.153137 399.078438)scale(0.1 -0.1)">
       <defs>
        <path d="M 2188 4044 
L 1331 1722 
L 3047 1722 
L 2188 4044 
z
M 1831 4666 
L 2547 4666 
L 4325 0 
L 3669 0 
L 3244 1197 
L 1141 1197 
L 716 0 
L 50 0 
L 1831 4666 
z
" id="DejaVuSans-41" transform="scale(0.015625)"/>
        <path d="M 2906 1791 
Q 2906 2416 2648 2759 
Q 2391 3103 1925 3103 
Q 1463 3103 1205 2759 
Q 947 2416 947 1791 
Q 947 1169 1205 825 
Q 1463 481 1925 481 
Q 2391 481 2648 825 
Q 2906 1169 2906 1791 
z
M 3481 434 
Q 3481 -459 3084 -895 
Q 2688 -1331 1869 -1331 
Q 1566 -1331 1297 -1286 
Q 1028 -1241 775 -1147 
L 775 -588 
Q 1028 -725 1275 -790 
Q 1522 -856 1778 -856 
Q 2344 -856 2625 -561 
Q 2906 -266 2906 331 
L 2906 616 
Q 2728 306 2450 153 
Q 2172 0 1784 0 
Q 1141 0 747 490 
Q 353 981 353 1791 
Q 353 2603 747 3093 
Q 1141 3584 1784 3584 
Q 2172 3584 2450 3431 
Q 2728 3278 2906 2969 
L 2906 3500 
L 3481 3500 
L 3481 434 
z
" id="DejaVuSans-67" transform="scale(0.015625)"/>
       </defs>
       <use xlink:href="#DejaVuSans-41"/>
       <use x="68.408203" xlink:href="#DejaVuSans-75"/>
       <use x="131.787109" xlink:href="#DejaVuSans-67"/>
      </g>
     </g>
    </g>
    <g id="xtick_7">
     <g id="line2d_13">
      <path clip-path="url(#p5cb16fe166)" d="M 235.235821 384.48 
L 235.235821 51.84 
" style="fill:none;stroke:#000000;stroke-dasharray:0.8,1.32;stroke-dashoffset:0;stroke-opacity:0.5;stroke-width:0.8;"/>
     </g>
     <g id="line2d_14">
      <g>
       <use style="stroke:#000000;stroke-width:0.8;" x="235.235821" xlink:href="#m40c10ad862" y="384.48"/>
      </g>
     </g>
     <g id="text_7">
      <!-- 15 -->
      <g transform="translate(228.873321 399.078438)scale(0.1 -0.1)">
       <use xlink:href="#DejaVuSans-31"/>
       <use x="63.623047" xlink:href="#DejaVuSans-35"/>
      </g>
     </g>
    </g>
    <g id="xtick_8">
     <g id="line2d_15">
      <path clip-path="url(#p5cb16fe166)" d="M 263.552239 384.48 
L 263.552239 51.84 
" style="fill:none;stroke:#000000;stroke-dasharray:0.8,1.32;stroke-dashoffset:0;stroke-opacity:0.5;stroke-width:0.8;"/>
     </g>
     <g id="line2d_16">
      <g>
       <use style="stroke:#000000;stroke-width:0.8;" x="263.552239" xlink:href="#m40c10ad862" y="384.48"/>
      </g>
     </g>
     <g id="text_8">
      <!-- Sep -->
      <g transform="translate(254.127239 399.078438)scale(0.1 -0.1)">
       <defs>
        <path d="M 3425 4513 
L 3425 3897 
Q 3066 4069 2747 4153 
Q 2428 4238 2131 4238 
Q 1616 4238 1336 4038 
Q 1056 3838 1056 3469 
Q 1056 3159 1242 3001 
Q 1428 2844 1947 2747 
L 2328 2669 
Q 3034 2534 3370 2195 
Q 3706 1856 3706 1288 
Q 3706 609 3251 259 
Q 2797 -91 1919 -91 
Q 1588 -91 1214 -16 
Q 841 59 441 206 
L 441 856 
Q 825 641 1194 531 
Q 1563 422 1919 422 
Q 2459 422 2753 634 
Q 3047 847 3047 1241 
Q 3047 1584 2836 1778 
Q 2625 1972 2144 2069 
L 1759 2144 
Q 1053 2284 737 2584 
Q 422 2884 422 3419 
Q 422 4038 858 4394 
Q 1294 4750 2059 4750 
Q 2388 4750 2728 4690 
Q 3069 4631 3425 4513 
z
" id="DejaVuSans-53" transform="scale(0.015625)"/>
        <path d="M 3597 1894 
L 3597 1613 
L 953 1613 
Q 991 1019 1311 708 
Q 1631 397 2203 397 
Q 2534 397 2845 478 
Q 3156 559 3463 722 
L 3463 178 
Q 3153 47 2828 -22 
Q 2503 -91 2169 -91 
Q 1331 -91 842 396 
Q 353 884 353 1716 
Q 353 2575 817 3079 
Q 1281 3584 2069 3584 
Q 2775 3584 3186 3129 
Q 3597 2675 3597 1894 
z
M 3022 2063 
Q 3016 2534 2758 2815 
Q 2500 3097 2075 3097 
Q 1594 3097 1305 2825 
Q 1016 2553 972 2059 
L 3022 2063 
z
" id="DejaVuSans-65" transform="scale(0.015625)"/>
        <path d="M 1159 525 
L 1159 -1331 
L 581 -1331 
L 581 3500 
L 1159 3500 
L 1159 2969 
Q 1341 3281 1617 3432 
Q 1894 3584 2278 3584 
Q 2916 3584 3314 3078 
Q 3713 2572 3713 1747 
Q 3713 922 3314 415 
Q 2916 -91 2278 -91 
Q 1894 -91 1617 61 
Q 1341 213 1159 525 
z
M 3116 1747 
Q 3116 2381 2855 2742 
Q 2594 3103 2138 3103 
Q 1681 3103 1420 2742 
Q 1159 2381 1159 1747 
Q 1159 1113 1420 752 
Q 1681 391 2138 391 
Q 2594 391 2855 752 
Q 3116 1113 3116 1747 
z
" id="DejaVuSans-70" transform="scale(0.015625)"/>
       </defs>
       <use xlink:href="#DejaVuSans-53"/>
       <use x="63.476562" xlink:href="#DejaVuSans-65"/>
       <use x="125" xlink:href="#DejaVuSans-70"/>
      </g>
     </g>
    </g>
    <g id="xtick_9">
     <g id="line2d_17">
      <path clip-path="url(#p5cb16fe166)" d="M 286.871642 384.48 
L 286.871642 51.84 
" style="fill:none;stroke:#000000;stroke-dasharray:0.8,1.32;stroke-dashoffset:0;stroke-opacity:0.5;stroke-width:0.8;"/>
     </g>
     <g id="line2d_18">
      <g>
       <use style="stroke:#000000;stroke-width:0.8;" x="286.871642" xlink:href="#m40c10ad862" y="384.48"/>
      </g>
     </g>
     <g id="text_9">
      <!-- 15 -->
      <g transform="translate(280.509142 399.078438)scale(0.1 -0.1)">
       <use xlink:href="#DejaVuSans-31"/>
       <use x="63.623047" xlink:href="#DejaVuSans-35"/>
      </g>
     </g>
    </g>
    <g id="xtick_10">
     <g id="line2d_19">
      <path clip-path="url(#p5cb16fe166)" d="M 313.522388 384.48 
L 313.522388 51.84 
" style="fill:none;stroke:#000000;stroke-dasharray:0.8,1.32;stroke-dashoffset:0;stroke-opacity:0.5;stroke-width:0.8;"/>
     </g>
     <g id="line2d_20">
      <g>
       <use style="stroke:#000000;stroke-width:0.8;" x="313.522388" xlink:href="#m40c10ad862" y="384.48"/>
      </g>
     </g>
     <g id="text_10">
      <!-- Oct -->
      <g transform="translate(304.877076 399.078438)scale(0.1 -0.1)">
       <defs>
        <path d="M 2522 4238 
Q 1834 4238 1429 3725 
Q 1025 3213 1025 2328 
Q 1025 1447 1429 934 
Q 1834 422 2522 422 
Q 3209 422 3611 934 
Q 4013 1447 4013 2328 
Q 4013 3213 3611 3725 
Q 3209 4238 2522 4238 
z
M 2522 4750 
Q 3503 4750 4090 4092 
Q 4678 3434 4678 2328 
Q 4678 1225 4090 567 
Q 3503 -91 2522 -91 
Q 1538 -91 948 565 
Q 359 1222 359 2328 
Q 359 3434 948 4092 
Q 1538 4750 2522 4750 
z
" id="DejaVuSans-4f" transform="scale(0.015625)"/>
        <path d="M 3122 3366 
L 3122 2828 
Q 2878 2963 2633 3030 
Q 2388 3097 2138 3097 
Q 1578 3097 1268 2742 
Q 959 2388 959 1747 
Q 959 1106 1268 751 
Q 1578 397 2138 397 
Q 2388 397 2633 464 
Q 2878 531 3122 666 
L 3122 134 
Q 2881 22 2623 -34 
Q 2366 -91 2075 -91 
Q 1284 -91 818 406 
Q 353 903 353 1747 
Q 353 2603 823 3093 
Q 1294 3584 2113 3584 
Q 2378 3584 2631 3529 
Q 2884 3475 3122 3366 
z
" id="DejaVuSans-63" transform="scale(0.015625)"/>
        <path d="M 1172 4494 
L 1172 3500 
L 2356 3500 
L 2356 3053 
L 1172 3053 
L 1172 1153 
Q 1172 725 1289 603 
Q 1406 481 1766 481 
L 2356 481 
L 2356 0 
L 1766 0 
Q 1100 0 847 248 
Q 594 497 594 1153 
L 594 3053 
L 172 3053 
L 172 3500 
L 594 3500 
L 594 4494 
L 1172 4494 
z
" id="DejaVuSans-74" transform="scale(0.015625)"/>
       </defs>
       <use xlink:href="#DejaVuSans-4f"/>
       <use x="78.710938" xlink:href="#DejaVuSans-63"/>
       <use x="133.691406" xlink:href="#DejaVuSans-74"/>
      </g>
     </g>
    </g>
    <g id="xtick_11">
     <g id="line2d_21">
      <path clip-path="url(#p5cb16fe166)" d="M 336.841791 384.48 
L 336.841791 51.84 
" style="fill:none;stroke:#000000;stroke-dasharray:0.8,1.32;stroke-dashoffset:0;stroke-opacity:0.5;stroke-width:0.8;"/>
     </g>
     <g id="line2d_22">
      <g>
       <use style="stroke:#000000;stroke-width:0.8;" x="336.841791" xlink:href="#m40c10ad862" y="384.48"/>
      </g>
     </g>
     <g id="text_11">
      <!-- 15 -->
      <g transform="translate(330.479291 399.078438)scale(0.1 -0.1)">
       <use xlink:href="#DejaVuSans-31"/>
       <use x="63.623047" xlink:href="#DejaVuSans-35"/>
      </g>
     </g>
    </g>
    <g id="xtick_12">
     <g id="line2d_23">
      <path clip-path="url(#p5cb16fe166)" d="M 365.158209 384.48 
L 365.158209 51.84 
" style="fill:none;stroke:#000000;stroke-dasharray:0.8,1.32;stroke-dashoffset:0;stroke-opacity:0.5;stroke-width:0.8;"/>
     </g>
     <g id="line2d_24">
      <g>
       <use style="stroke:#000000;stroke-width:0.8;" x="365.158209" xlink:href="#m40c10ad862" y="384.48"/>
      </g>
     </g>
     <g id="text_12">
      <!-- Nov -->
      <g transform="translate(355.398834 399.078438)scale(0.1 -0.1)">
       <defs>
        <path d="M 628 4666 
L 1478 4666 
L 3547 763 
L 3547 4666 
L 4159 4666 
L 4159 0 
L 3309 0 
L 1241 3903 
L 1241 0 
L 628 0 
L 628 4666 
z
" id="DejaVuSans-4e" transform="scale(0.015625)"/>
        <path d="M 1959 3097 
Q 1497 3097 1228 2736 
Q 959 2375 959 1747 
Q 959 1119 1226 758 
Q 1494 397 1959 397 
Q 2419 397 2687 759 
Q 2956 1122 2956 1747 
Q 2956 2369 2687 2733 
Q 2419 3097 1959 3097 
z
M 1959 3584 
Q 2709 3584 3137 3096 
Q 3566 2609 3566 1747 
Q 3566 888 3137 398 
Q 2709 -91 1959 -91 
Q 1206 -91 779 398 
Q 353 888 353 1747 
Q 353 2609 779 3096 
Q 1206 3584 1959 3584 
z
" id="DejaVuSans-6f" transform="scale(0.015625)"/>
        <path d="M 191 3500 
L 800 3500 
L 1894 563 
L 2988 3500 
L 3597 3500 
L 2284 0 
L 1503 0 
L 191 3500 
z
" id="DejaVuSans-76" transform="scale(0.015625)"/>
       </defs>
       <use xlink:href="#DejaVuSans-4e"/>
       <use x="74.804688" xlink:href="#DejaVuSans-6f"/>
       <use x="135.986328" xlink:href="#DejaVuSans-76"/>
      </g>
     </g>
    </g>
    <g id="xtick_13">
     <g id="line2d_25">
      <path clip-path="url(#p5cb16fe166)" d="M 388.477612 384.48 
L 388.477612 51.84 
" style="fill:none;stroke:#000000;stroke-dasharray:0.8,1.32;stroke-dashoffset:0;stroke-opacity:0.5;stroke-width:0.8;"/>
     </g>
     <g id="line2d_26">
      <g>
       <use style="stroke:#000000;stroke-width:0.8;" x="388.477612" xlink:href="#m40c10ad862" y="384.48"/>
      </g>
     </g>
     <g id="text_13">
      <!-- 15 -->
      <g transform="translate(382.115112 399.078438)scale(0.1 -0.1)">
       <use xlink:href="#DejaVuSans-31"/>
       <use x="63.623047" xlink:href="#DejaVuSans-35"/>
      </g>
     </g>
    </g>
    <g id="xtick_14">
     <g id="line2d_27">
      <path clip-path="url(#p5cb16fe166)" d="M 415.128358 384.48 
L 415.128358 51.84 
" style="fill:none;stroke:#000000;stroke-dasharray:0.8,1.32;stroke-dashoffset:0;stroke-opacity:0.5;stroke-width:0.8;"/>
     </g>
     <g id="line2d_28">
      <g>
       <use style="stroke:#000000;stroke-width:0.8;" x="415.128358" xlink:href="#m40c10ad862" y="384.48"/>
      </g>
     </g>
     <g id="text_14">
      <!-- Dec -->
      <g transform="translate(405.452577 399.078438)scale(0.1 -0.1)">
       <defs>
        <path d="M 1259 4147 
L 1259 519 
L 2022 519 
Q 2988 519 3436 956 
Q 3884 1394 3884 2338 
Q 3884 3275 3436 3711 
Q 2988 4147 2022 4147 
L 1259 4147 
z
M 628 4666 
L 1925 4666 
Q 3281 4666 3915 4102 
Q 4550 3538 4550 2338 
Q 4550 1131 3912 565 
Q 3275 0 1925 0 
L 628 0 
L 628 4666 
z
" id="DejaVuSans-44" transform="scale(0.015625)"/>
       </defs>
       <use xlink:href="#DejaVuSans-44"/>
       <use x="77.001953" xlink:href="#DejaVuSans-65"/>
       <use x="138.525391" xlink:href="#DejaVuSans-63"/>
      </g>
     </g>
    </g>
    <g id="xtick_15">
     <g id="line2d_29">
      <path clip-path="url(#p5cb16fe166)" d="M 438.447761 384.48 
L 438.447761 51.84 
" style="fill:none;stroke:#000000;stroke-dasharray:0.8,1.32;stroke-dashoffset:0;stroke-opacity:0.5;stroke-width:0.8;"/>
     </g>
     <g id="line2d_30">
      <g>
       <use style="stroke:#000000;stroke-width:0.8;" x="438.447761" xlink:href="#m40c10ad862" y="384.48"/>
      </g>
     </g>
     <g id="text_15">
      <!-- 15 -->
      <g transform="translate(432.085261 399.078438)scale(0.1 -0.1)">
       <use xlink:href="#DejaVuSans-31"/>
       <use x="63.623047" xlink:href="#DejaVuSans-35"/>
      </g>
     </g>
    </g>
    <g id="xtick_16">
     <g id="line2d_31">
      <path clip-path="url(#p5cb16fe166)" d="M 466.764179 384.48 
L 466.764179 51.84 
" style="fill:none;stroke:#000000;stroke-dasharray:0.8,1.32;stroke-dashoffset:0;stroke-opacity:0.5;stroke-width:0.8;"/>
     </g>
     <g id="line2d_32">
      <g>
       <use style="stroke:#000000;stroke-width:0.8;" x="466.764179" xlink:href="#m40c10ad862" y="384.48"/>
      </g>
     </g>
     <g id="text_16">
      <!-- Jan -->
      <g transform="translate(459.056367 399.078438)scale(0.1 -0.1)">
       <defs>
        <path d="M 2194 1759 
Q 1497 1759 1228 1600 
Q 959 1441 959 1056 
Q 959 750 1161 570 
Q 1363 391 1709 391 
Q 2188 391 2477 730 
Q 2766 1069 2766 1631 
L 2766 1759 
L 2194 1759 
z
M 3341 1997 
L 3341 0 
L 2766 0 
L 2766 531 
Q 2569 213 2275 61 
Q 1981 -91 1556 -91 
Q 1019 -91 701 211 
Q 384 513 384 1019 
Q 384 1609 779 1909 
Q 1175 2209 1959 2209 
L 2766 2209 
L 2766 2266 
Q 2766 2663 2505 2880 
Q 2244 3097 1772 3097 
Q 1472 3097 1187 3025 
Q 903 2953 641 2809 
L 641 3341 
Q 956 3463 1253 3523 
Q 1550 3584 1831 3584 
Q 2591 3584 2966 3190 
Q 3341 2797 3341 1997 
z
" id="DejaVuSans-61" transform="scale(0.015625)"/>
       </defs>
       <use xlink:href="#DejaVuSans-4a"/>
       <use x="29.492188" xlink:href="#DejaVuSans-61"/>
       <use x="90.771484" xlink:href="#DejaVuSans-6e"/>
      </g>
     </g>
    </g>
    <g id="xtick_17">
     <g id="line2d_33">
      <path clip-path="url(#p5cb16fe166)" d="M 490.083582 384.48 
L 490.083582 51.84 
" style="fill:none;stroke:#000000;stroke-dasharray:0.8,1.32;stroke-dashoffset:0;stroke-opacity:0.5;stroke-width:0.8;"/>
     </g>
     <g id="line2d_34">
      <g>
       <use style="stroke:#000000;stroke-width:0.8;" x="490.083582" xlink:href="#m40c10ad862" y="384.48"/>
      </g>
     </g>
     <g id="text_17">
      <!-- 15 -->
      <g transform="translate(483.721082 399.078438)scale(0.1 -0.1)">
       <use xlink:href="#DejaVuSans-31"/>
       <use x="63.623047" xlink:href="#DejaVuSans-35"/>
      </g>
     </g>
    </g>
    <g id="xtick_18">
     <g id="line2d_35">
      <path clip-path="url(#p5cb16fe166)" d="M 518.4 384.48 
L 518.4 51.84 
" style="fill:none;stroke:#000000;stroke-dasharray:0.8,1.32;stroke-dashoffset:0;stroke-opacity:0.5;stroke-width:0.8;"/>
     </g>
     <g id="line2d_36">
      <g>
       <use style="stroke:#000000;stroke-width:0.8;" x="518.4" xlink:href="#m40c10ad862" y="384.48"/>
      </g>
     </g>
     <g id="text_18">
      <!-- Feb -->
      <g transform="translate(509.548438 399.078438)scale(0.1 -0.1)">
       <defs>
        <path d="M 628 4666 
L 3309 4666 
L 3309 4134 
L 1259 4134 
L 1259 2759 
L 3109 2759 
L 3109 2228 
L 1259 2228 
L 1259 0 
L 628 0 
L 628 4666 
z
" id="DejaVuSans-46" transform="scale(0.015625)"/>
        <path d="M 3116 1747 
Q 3116 2381 2855 2742 
Q 2594 3103 2138 3103 
Q 1681 3103 1420 2742 
Q 1159 2381 1159 1747 
Q 1159 1113 1420 752 
Q 1681 391 2138 391 
Q 2594 391 2855 752 
Q 3116 1113 3116 1747 
z
M 1159 2969 
Q 1341 3281 1617 3432 
Q 1894 3584 2278 3584 
Q 2916 3584 3314 3078 
Q 3713 2572 3713 1747 
Q 3713 922 3314 415 
Q 2916 -91 2278 -91 
Q 1894 -91 1617 61 
Q 1341 213 1159 525 
L 1159 0 
L 581 0 
L 581 4863 
L 1159 4863 
L 1159 2969 
z
" id="DejaVuSans-62" transform="scale(0.015625)"/>
       </defs>
       <use xlink:href="#DejaVuSans-46"/>
       <use x="52.019531" xlink:href="#DejaVuSans-65"/>
       <use x="113.542969" xlink:href="#DejaVuSans-62"/>
      </g>
     </g>
    </g>
    <g id="text_19">
     <!-- 2022-Feb -->
     <g transform="translate(471.639062 411.756563)scale(0.1 -0.1)">
      <defs>
       <path d="M 1228 531 
L 3431 531 
L 3431 0 
L 469 0 
L 469 531 
Q 828 903 1448 1529 
Q 2069 2156 2228 2338 
Q 2531 2678 2651 2914 
Q 2772 3150 2772 3378 
Q 2772 3750 2511 3984 
Q 2250 4219 1831 4219 
Q 1534 4219 1204 4116 
Q 875 4013 500 3803 
L 500 4441 
Q 881 4594 1212 4672 
Q 1544 4750 1819 4750 
Q 2544 4750 2975 4387 
Q 3406 4025 3406 3419 
Q 3406 3131 3298 2873 
Q 3191 2616 2906 2266 
Q 2828 2175 2409 1742 
Q 1991 1309 1228 531 
z
" id="DejaVuSans-32" transform="scale(0.015625)"/>
       <path d="M 2034 4250 
Q 1547 4250 1301 3770 
Q 1056 3291 1056 2328 
Q 1056 1369 1301 889 
Q 1547 409 2034 409 
Q 2525 409 2770 889 
Q 3016 1369 3016 2328 
Q 3016 3291 2770 3770 
Q 2525 4250 2034 4250 
z
M 2034 4750 
Q 2819 4750 3233 4129 
Q 3647 3509 3647 2328 
Q 3647 1150 3233 529 
Q 2819 -91 2034 -91 
Q 1250 -91 836 529 
Q 422 1150 422 2328 
Q 422 3509 836 4129 
Q 1250 4750 2034 4750 
z
" id="DejaVuSans-30" transform="scale(0.015625)"/>
       <path d="M 313 2009 
L 1997 2009 
L 1997 1497 
L 313 1497 
L 313 2009 
z
" id="DejaVuSans-2d" transform="scale(0.015625)"/>
      </defs>
      <use xlink:href="#DejaVuSans-32"/>
      <use x="63.623047" xlink:href="#DejaVuSans-30"/>
      <use x="127.246094" xlink:href="#DejaVuSans-32"/>
      <use x="190.869141" xlink:href="#DejaVuSans-32"/>
      <use x="254.492188" xlink:href="#DejaVuSans-2d"/>
      <use x="290.576172" xlink:href="#DejaVuSans-46"/>
      <use x="342.595703" xlink:href="#DejaVuSans-65"/>
      <use x="404.119141" xlink:href="#DejaVuSans-62"/>
     </g>
    </g>
   </g>
   <g id="matplotlib.axis_2">
    <g id="ytick_1">
     <g id="line2d_37">
      <path clip-path="url(#p5cb16fe166)" d="M 72 384.48 
L 518.4 384.48 
" style="fill:none;stroke:#000000;stroke-dasharray:0.8,1.32;stroke-dashoffset:0;stroke-opacity:0.5;stroke-width:0.8;"/>
     </g>
     <g id="line2d_38">
      <defs>
       <path d="M 0 0 
L -3.5 0 
" id="m5b063fe383" style="stroke:#000000;stroke-width:0.8;"/>
      </defs>
      <g>
       <use style="stroke:#000000;stroke-width:0.8;" x="72" xlink:href="#m5b063fe383" y="384.48"/>
      </g>
     </g>
     <g id="text_20">
      <!-- 0 -->
      <g transform="translate(58.6375 388.279219)scale(0.1 -0.1)">
       <use xlink:href="#DejaVuSans-30"/>
      </g>
     </g>
    </g>
    <g id="ytick_2">
     <g id="line2d_39">
      <path clip-path="url(#p5cb16fe166)" d="M 72 351.216 
L 518.4 351.216 
" style="fill:none;stroke:#000000;stroke-dasharray:0.8,1.32;stroke-dashoffset:0;stroke-opacity:0.5;stroke-width:0.8;"/>
     </g>
     <g id="line2d_40">
      <g>
       <use style="stroke:#000000;stroke-width:0.8;" x="72" xlink:href="#m5b063fe383" y="351.216"/>
      </g>
     </g>
     <g id="text_21">
      <!-- 10 -->
      <g transform="translate(52.275 355.015219)scale(0.1 -0.1)">
       <use xlink:href="#DejaVuSans-31"/>
       <use x="63.623047" xlink:href="#DejaVuSans-30"/>
      </g>
     </g>
    </g>
    <g id="ytick_3">
     <g id="line2d_41">
      <path clip-path="url(#p5cb16fe166)" d="M 72 317.952 
L 518.4 317.952 
" style="fill:none;stroke:#000000;stroke-dasharray:0.8,1.32;stroke-dashoffset:0;stroke-opacity:0.5;stroke-width:0.8;"/>
     </g>
     <g id="line2d_42">
      <g>
       <use style="stroke:#000000;stroke-width:0.8;" x="72" xlink:href="#m5b063fe383" y="317.952"/>
      </g>
     </g>
     <g id="text_22">
      <!-- 20 -->
      <g transform="translate(52.275 321.751219)scale(0.1 -0.1)">
       <use xlink:href="#DejaVuSans-32"/>
       <use x="63.623047" xlink:href="#DejaVuSans-30"/>
      </g>
     </g>
    </g>
    <g id="ytick_4">
     <g id="line2d_43">
      <path clip-path="url(#p5cb16fe166)" d="M 72 284.688 
L 518.4 284.688 
" style="fill:none;stroke:#000000;stroke-dasharray:0.8,1.32;stroke-dashoffset:0;stroke-opacity:0.5;stroke-width:0.8;"/>
     </g>
     <g id="line2d_44">
      <g>
       <use style="stroke:#000000;stroke-width:0.8;" x="72" xlink:href="#m5b063fe383" y="284.688"/>
      </g>
     </g>
     <g id="text_23">
      <!-- 30 -->
      <g transform="translate(52.275 288.487219)scale(0.1 -0.1)">
       <defs>
        <path d="M 2597 2516 
Q 3050 2419 3304 2112 
Q 3559 1806 3559 1356 
Q 3559 666 3084 287 
Q 2609 -91 1734 -91 
Q 1441 -91 1130 -33 
Q 819 25 488 141 
L 488 750 
Q 750 597 1062 519 
Q 1375 441 1716 441 
Q 2309 441 2620 675 
Q 2931 909 2931 1356 
Q 2931 1769 2642 2001 
Q 2353 2234 1838 2234 
L 1294 2234 
L 1294 2753 
L 1863 2753 
Q 2328 2753 2575 2939 
Q 2822 3125 2822 3475 
Q 2822 3834 2567 4026 
Q 2313 4219 1838 4219 
Q 1578 4219 1281 4162 
Q 984 4106 628 3988 
L 628 4550 
Q 988 4650 1302 4700 
Q 1616 4750 1894 4750 
Q 2613 4750 3031 4423 
Q 3450 4097 3450 3541 
Q 3450 3153 3228 2886 
Q 3006 2619 2597 2516 
z
" id="DejaVuSans-33" transform="scale(0.015625)"/>
       </defs>
       <use xlink:href="#DejaVuSans-33"/>
       <use x="63.623047" xlink:href="#DejaVuSans-30"/>
      </g>
     </g>
    </g>
    <g id="ytick_5">
     <g id="line2d_45">
      <path clip-path="url(#p5cb16fe166)" d="M 72 251.424 
L 518.4 251.424 
" style="fill:none;stroke:#000000;stroke-dasharray:0.8,1.32;stroke-dashoffset:0;stroke-opacity:0.5;stroke-width:0.8;"/>
     </g>
     <g id="line2d_46">
      <g>
       <use style="stroke:#000000;stroke-width:0.8;" x="72" xlink:href="#m5b063fe383" y="251.424"/>
      </g>
     </g>
     <g id="text_24">
      <!-- 40 -->
      <g transform="translate(52.275 255.223219)scale(0.1 -0.1)">
       <defs>
        <path d="M 2419 4116 
L 825 1625 
L 2419 1625 
L 2419 4116 
z
M 2253 4666 
L 3047 4666 
L 3047 1625 
L 3713 1625 
L 3713 1100 
L 3047 1100 
L 3047 0 
L 2419 0 
L 2419 1100 
L 313 1100 
L 313 1709 
L 2253 4666 
z
" id="DejaVuSans-34" transform="scale(0.015625)"/>
       </defs>
       <use xlink:href="#DejaVuSans-34"/>
       <use x="63.623047" xlink:href="#DejaVuSans-30"/>
      </g>
     </g>
    </g>
    <g id="ytick_6">
     <g id="line2d_47">
      <path clip-path="url(#p5cb16fe166)" d="M 72 218.16 
L 518.4 218.16 
" style="fill:none;stroke:#000000;stroke-dasharray:0.8,1.32;stroke-dashoffset:0;stroke-opacity:0.5;stroke-width:0.8;"/>
     </g>
     <g id="line2d_48">
      <g>
       <use style="stroke:#000000;stroke-width:0.8;" x="72" xlink:href="#m5b063fe383" y="218.16"/>
      </g>
     </g>
     <g id="text_25">
      <!-- 50 -->
      <g transform="translate(52.275 221.959219)scale(0.1 -0.1)">
       <use xlink:href="#DejaVuSans-35"/>
       <use x="63.623047" xlink:href="#DejaVuSans-30"/>
      </g>
     </g>
    </g>
    <g id="ytick_7">
     <g id="line2d_49">
      <path clip-path="url(#p5cb16fe166)" d="M 72 184.896 
L 518.4 184.896 
" style="fill:none;stroke:#000000;stroke-dasharray:0.8,1.32;stroke-dashoffset:0;stroke-opacity:0.5;stroke-width:0.8;"/>
     </g>
     <g id="line2d_50">
      <g>
       <use style="stroke:#000000;stroke-width:0.8;" x="72" xlink:href="#m5b063fe383" y="184.896"/>
      </g>
     </g>
     <g id="text_26">
      <!-- 60 -->
      <g transform="translate(52.275 188.695219)scale(0.1 -0.1)">
       <defs>
        <path d="M 2113 2584 
Q 1688 2584 1439 2293 
Q 1191 2003 1191 1497 
Q 1191 994 1439 701 
Q 1688 409 2113 409 
Q 2538 409 2786 701 
Q 3034 994 3034 1497 
Q 3034 2003 2786 2293 
Q 2538 2584 2113 2584 
z
M 3366 4563 
L 3366 3988 
Q 3128 4100 2886 4159 
Q 2644 4219 2406 4219 
Q 1781 4219 1451 3797 
Q 1122 3375 1075 2522 
Q 1259 2794 1537 2939 
Q 1816 3084 2150 3084 
Q 2853 3084 3261 2657 
Q 3669 2231 3669 1497 
Q 3669 778 3244 343 
Q 2819 -91 2113 -91 
Q 1303 -91 875 529 
Q 447 1150 447 2328 
Q 447 3434 972 4092 
Q 1497 4750 2381 4750 
Q 2619 4750 2861 4703 
Q 3103 4656 3366 4563 
z
" id="DejaVuSans-36" transform="scale(0.015625)"/>
       </defs>
       <use xlink:href="#DejaVuSans-36"/>
       <use x="63.623047" xlink:href="#DejaVuSans-30"/>
      </g>
     </g>
    </g>
    <g id="ytick_8">
     <g id="line2d_51">
      <path clip-path="url(#p5cb16fe166)" d="M 72 151.632 
L 518.4 151.632 
" style="fill:none;stroke:#000000;stroke-dasharray:0.8,1.32;stroke-dashoffset:0;stroke-opacity:0.5;stroke-width:0.8;"/>
     </g>
     <g id="line2d_52">
      <g>
       <use style="stroke:#000000;stroke-width:0.8;" x="72" xlink:href="#m5b063fe383" y="151.632"/>
      </g>
     </g>
     <g id="text_27">
      <!-- 70 -->
      <g transform="translate(52.275 155.431219)scale(0.1 -0.1)">
       <defs>
        <path d="M 525 4666 
L 3525 4666 
L 3525 4397 
L 1831 0 
L 1172 0 
L 2766 4134 
L 525 4134 
L 525 4666 
z
" id="DejaVuSans-37" transform="scale(0.015625)"/>
       </defs>
       <use xlink:href="#DejaVuSans-37"/>
       <use x="63.623047" xlink:href="#DejaVuSans-30"/>
      </g>
     </g>
    </g>
    <g id="ytick_9">
     <g id="line2d_53">
      <path clip-path="url(#p5cb16fe166)" d="M 72 118.368 
L 518.4 118.368 
" style="fill:none;stroke:#000000;stroke-dasharray:0.8,1.32;stroke-dashoffset:0;stroke-opacity:0.5;stroke-width:0.8;"/>
     </g>
     <g id="line2d_54">
      <g>
       <use style="stroke:#000000;stroke-width:0.8;" x="72" xlink:href="#m5b063fe383" y="118.368"/>
      </g>
     </g>
     <g id="text_28">
      <!-- 80 -->
      <g transform="translate(52.275 122.167219)scale(0.1 -0.1)">
       <defs>
        <path d="M 2034 2216 
Q 1584 2216 1326 1975 
Q 1069 1734 1069 1313 
Q 1069 891 1326 650 
Q 1584 409 2034 409 
Q 2484 409 2743 651 
Q 3003 894 3003 1313 
Q 3003 1734 2745 1975 
Q 2488 2216 2034 2216 
z
M 1403 2484 
Q 997 2584 770 2862 
Q 544 3141 544 3541 
Q 544 4100 942 4425 
Q 1341 4750 2034 4750 
Q 2731 4750 3128 4425 
Q 3525 4100 3525 3541 
Q 3525 3141 3298 2862 
Q 3072 2584 2669 2484 
Q 3125 2378 3379 2068 
Q 3634 1759 3634 1313 
Q 3634 634 3220 271 
Q 2806 -91 2034 -91 
Q 1263 -91 848 271 
Q 434 634 434 1313 
Q 434 1759 690 2068 
Q 947 2378 1403 2484 
z
M 1172 3481 
Q 1172 3119 1398 2916 
Q 1625 2713 2034 2713 
Q 2441 2713 2670 2916 
Q 2900 3119 2900 3481 
Q 2900 3844 2670 4047 
Q 2441 4250 2034 4250 
Q 1625 4250 1398 4047 
Q 1172 3844 1172 3481 
z
" id="DejaVuSans-38" transform="scale(0.015625)"/>
       </defs>
       <use xlink:href="#DejaVuSans-38"/>
       <use x="63.623047" xlink:href="#DejaVuSans-30"/>
      </g>
     </g>
    </g>
    <g id="ytick_10">
     <g id="line2d_55">
      <path clip-path="url(#p5cb16fe166)" d="M 72 85.104 
L 518.4 85.104 
" style="fill:none;stroke:#000000;stroke-dasharray:0.8,1.32;stroke-dashoffset:0;stroke-opacity:0.5;stroke-width:0.8;"/>
     </g>
     <g id="line2d_56">
      <g>
       <use style="stroke:#000000;stroke-width:0.8;" x="72" xlink:href="#m5b063fe383" y="85.104"/>
      </g>
     </g>
     <g id="text_29">
      <!-- 90 -->
      <g transform="translate(52.275 88.903219)scale(0.1 -0.1)">
       <defs>
        <path d="M 703 97 
L 703 672 
Q 941 559 1184 500 
Q 1428 441 1663 441 
Q 2288 441 2617 861 
Q 2947 1281 2994 2138 
Q 2813 1869 2534 1725 
Q 2256 1581 1919 1581 
Q 1219 1581 811 2004 
Q 403 2428 403 3163 
Q 403 3881 828 4315 
Q 1253 4750 1959 4750 
Q 2769 4750 3195 4129 
Q 3622 3509 3622 2328 
Q 3622 1225 3098 567 
Q 2575 -91 1691 -91 
Q 1453 -91 1209 -44 
Q 966 3 703 97 
z
M 1959 2075 
Q 2384 2075 2632 2365 
Q 2881 2656 2881 3163 
Q 2881 3666 2632 3958 
Q 2384 4250 1959 4250 
Q 1534 4250 1286 3958 
Q 1038 3666 1038 3163 
Q 1038 2656 1286 2365 
Q 1534 2075 1959 2075 
z
" id="DejaVuSans-39" transform="scale(0.015625)"/>
       </defs>
       <use xlink:href="#DejaVuSans-39"/>
       <use x="63.623047" xlink:href="#DejaVuSans-30"/>
      </g>
     </g>
    </g>
    <g id="ytick_11">
     <g id="line2d_57">
      <path clip-path="url(#p5cb16fe166)" d="M 72 51.84 
L 518.4 51.84 
" style="fill:none;stroke:#000000;stroke-dasharray:0.8,1.32;stroke-dashoffset:0;stroke-opacity:0.5;stroke-width:0.8;"/>
     </g>
     <g id="line2d_58">
      <g>
       <use style="stroke:#000000;stroke-width:0.8;" x="72" xlink:href="#m5b063fe383" y="51.84"/>
      </g>
     </g>
     <g id="text_30">
      <!-- 100 -->
      <g transform="translate(45.9125 55.639219)scale(0.1 -0.1)">
       <use xlink:href="#DejaVuSans-31"/>
       <use x="63.623047" xlink:href="#DejaVuSans-30"/>
       <use x="127.246094" xlink:href="#DejaVuSans-30"/>
      </g>
     </g>
    </g>
    <g id="text_31">
     <!-- Vaccine coverage (%) -->
     <g transform="translate(39.832812 272.435)rotate(-90)scale(0.1 -0.1)">
      <defs>
       <path d="M 1831 0 
L 50 4666 
L 709 4666 
L 2188 738 
L 3669 4666 
L 4325 4666 
L 2547 0 
L 1831 0 
z
" id="DejaVuSans-56" transform="scale(0.015625)"/>
       <path d="M 603 3500 
L 1178 3500 
L 1178 0 
L 603 0 
L 603 3500 
z
M 603 4863 
L 1178 4863 
L 1178 4134 
L 603 4134 
L 603 4863 
z
" id="DejaVuSans-69" transform="scale(0.015625)"/>
       <path id="DejaVuSans-20" transform="scale(0.015625)"/>
       <path d="M 2631 2963 
Q 2534 3019 2420 3045 
Q 2306 3072 2169 3072 
Q 1681 3072 1420 2755 
Q 1159 2438 1159 1844 
L 1159 0 
L 581 0 
L 581 3500 
L 1159 3500 
L 1159 2956 
Q 1341 3275 1631 3429 
Q 1922 3584 2338 3584 
Q 2397 3584 2469 3576 
Q 2541 3569 2628 3553 
L 2631 2963 
z
" id="DejaVuSans-72" transform="scale(0.015625)"/>
       <path d="M 1984 4856 
Q 1566 4138 1362 3434 
Q 1159 2731 1159 2009 
Q 1159 1288 1364 580 
Q 1569 -128 1984 -844 
L 1484 -844 
Q 1016 -109 783 600 
Q 550 1309 550 2009 
Q 550 2706 781 3412 
Q 1013 4119 1484 4856 
L 1984 4856 
z
" id="DejaVuSans-28" transform="scale(0.015625)"/>
       <path d="M 4653 2053 
Q 4381 2053 4226 1822 
Q 4072 1591 4072 1178 
Q 4072 772 4226 539 
Q 4381 306 4653 306 
Q 4919 306 5073 539 
Q 5228 772 5228 1178 
Q 5228 1588 5073 1820 
Q 4919 2053 4653 2053 
z
M 4653 2450 
Q 5147 2450 5437 2106 
Q 5728 1763 5728 1178 
Q 5728 594 5436 251 
Q 5144 -91 4653 -91 
Q 4153 -91 3862 251 
Q 3572 594 3572 1178 
Q 3572 1766 3864 2108 
Q 4156 2450 4653 2450 
z
M 1428 4353 
Q 1159 4353 1004 4120 
Q 850 3888 850 3481 
Q 850 3069 1003 2837 
Q 1156 2606 1428 2606 
Q 1700 2606 1854 2837 
Q 2009 3069 2009 3481 
Q 2009 3884 1853 4118 
Q 1697 4353 1428 4353 
z
M 4250 4750 
L 4750 4750 
L 1831 -91 
L 1331 -91 
L 4250 4750 
z
M 1428 4750 
Q 1922 4750 2215 4408 
Q 2509 4066 2509 3481 
Q 2509 2891 2217 2550 
Q 1925 2209 1428 2209 
Q 931 2209 642 2551 
Q 353 2894 353 3481 
Q 353 4063 643 4406 
Q 934 4750 1428 4750 
z
" id="DejaVuSans-25" transform="scale(0.015625)"/>
       <path d="M 513 4856 
L 1013 4856 
Q 1481 4119 1714 3412 
Q 1947 2706 1947 2009 
Q 1947 1309 1714 600 
Q 1481 -109 1013 -844 
L 513 -844 
Q 928 -128 1133 580 
Q 1338 1288 1338 2009 
Q 1338 2731 1133 3434 
Q 928 4138 513 4856 
z
" id="DejaVuSans-29" transform="scale(0.015625)"/>
      </defs>
      <use xlink:href="#DejaVuSans-56"/>
      <use x="60.658203" xlink:href="#DejaVuSans-61"/>
      <use x="121.9375" xlink:href="#DejaVuSans-63"/>
      <use x="176.917969" xlink:href="#DejaVuSans-63"/>
      <use x="231.898438" xlink:href="#DejaVuSans-69"/>
      <use x="259.681641" xlink:href="#DejaVuSans-6e"/>
      <use x="323.060547" xlink:href="#DejaVuSans-65"/>
      <use x="384.583984" xlink:href="#DejaVuSans-20"/>
      <use x="416.371094" xlink:href="#DejaVuSans-63"/>
      <use x="471.351562" xlink:href="#DejaVuSans-6f"/>
      <use x="532.533203" xlink:href="#DejaVuSans-76"/>
      <use x="591.712891" xlink:href="#DejaVuSans-65"/>
      <use x="653.236328" xlink:href="#DejaVuSans-72"/>
      <use x="694.349609" xlink:href="#DejaVuSans-61"/>
      <use x="755.628906" xlink:href="#DejaVuSans-67"/>
      <use x="819.105469" xlink:href="#DejaVuSans-65"/>
      <use x="880.628906" xlink:href="#DejaVuSans-20"/>
      <use x="912.416016" xlink:href="#DejaVuSans-28"/>
      <use x="951.429688" xlink:href="#DejaVuSans-25"/>
      <use x="1046.449219" xlink:href="#DejaVuSans-29"/>
     </g>
    </g>
   </g>
   <g id="line2d_59">
    <path clip-path="url(#p5cb16fe166)" d="M 158.614925 278.104084 
L 160.280597 275.250203 
L 161.946269 272.668645 
L 163.61194 271.31805 
L 165.277612 270.820628 
L 166.943284 268.604266 
L 168.608955 265.843259 
L 171.940299 259.822248 
L 173.60597 257.343008 
L 175.271642 256.148251 
L 176.937313 255.691756 
L 178.602985 253.286499 
L 180.268657 250.596327 
L 183.6 244.737451 
L 185.265672 242.454976 
L 186.931343 241.332628 
L 188.597015 241.04299 
L 190.262687 239.135156 
L 193.59403 234.283716 
L 195.259701 231.628175 
L 196.925373 229.477927 
L 198.591045 228.574381 
L 200.256716 228.23752 
L 201.922388 226.435152 
L 205.253731 222.040207 
L 206.919403 219.784492 
L 208.585075 217.832583 
L 210.250746 216.894407 
L 211.916418 216.466246 
L 213.58209 214.73314 
L 215.247761 212.730858 
L 220.244776 206.292705 
L 221.910448 205.304158 
L 223.576119 204.957851 
L 225.241791 203.286135 
L 228.573134 199.372872 
L 230.238806 197.192715 
L 231.904478 195.256546 
L 233.570149 194.290036 
L 235.235821 193.953175 
L 236.901493 192.286181 
L 238.567164 190.272881 
L 240.232836 187.966794 
L 241.898507 185.882659 
L 243.564179 184.001585 
L 245.229851 183.096465 
L 246.895522 182.728121 
L 248.561194 181.040664 
L 250.226866 179.041531 
L 253.558209 174.53325 
L 255.223881 172.535691 
L 256.889552 171.539273 
L 258.555224 171.137872 
L 260.220896 169.38745 
L 265.21791 163.005965 
L 266.883582 161.214616 
L 268.549254 160.427556 
L 270.214925 160.133195 
L 271.880597 158.596854 
L 273.546269 156.717354 
L 276.877612 152.434172 
L 278.543284 150.719955 
L 280.208955 149.947061 
L 281.874627 149.600755 
L 285.20597 146.101485 
L 290.202985 140.837626 
L 291.868657 140.121401 
L 293.534328 139.771946 
L 295.2 138.347367 
L 300.197015 133.541577 
L 301.862687 132.364135 
L 303.528358 131.739209 
L 305.19403 131.507814 
L 306.859701 130.240647 
L 311.856716 125.858295 
L 313.522388 124.72178 
L 315.18806 124.196024 
L 316.853731 123.906386 
L 318.519403 123.3885 
L 325.18209 117.724814 
L 326.847761 117.063684 
L 328.513433 116.80238 
L 330.179104 115.536787 
L 336.841791 110.011624 
L 338.507463 109.470126 
L 340.173134 109.133265 
L 341.838806 107.902302 
L 343.504478 106.402165 
L 345.170149 105.116109 
L 346.835821 103.680511 
L 348.501493 102.397603 
L 350.167164 101.868698 
L 351.832836 101.604246 
L 356.829851 97.697279 
L 358.495522 96.340387 
L 360.161194 95.247947 
L 361.826866 94.657652 
L 363.492537 94.368014 
L 365.158209 93.001677 
L 366.823881 92.148504 
L 371.820896 88.488674 
L 373.486567 88.002271 
L 375.152239 87.717355 
L 378.483582 85.576551 
L 380.149254 84.525038 
L 381.814925 83.320836 
L 383.480597 82.314973 
L 385.146269 81.849034 
L 386.81194 81.590878 
L 395.140299 76.906295 
L 396.80597 76.473412 
L 398.471642 76.242016 
L 401.802985 74.582893 
L 403.468657 73.660459 
L 406.8 72.154025 
L 410.131343 71.596787 
L 413.462687 70.118687 
L 418.459701 67.776396 
L 421.791045 67.252214 
L 425.122388 65.969306 
L 426.78806 65.229469 
L 426.78806 65.229469 
" style="fill:none;stroke:#1f77b4;stroke-linecap:square;stroke-width:1.5;"/>
   </g>
   <g id="line2d_60">
    <path clip-path="url(#p5cb16fe166)" d="M 158.614925 326.64865 
L 160.280597 322.759603 
L 161.946269 319.447411 
L 163.61194 317.730636 
L 165.277612 317.052515 
L 166.943284 313.709196 
L 170.274627 306.001632 
L 171.940299 301.838737 
L 173.60597 298.517877 
L 175.271642 296.685257 
L 176.937313 296.164747 
L 178.602985 292.778873 
L 183.6 280.273636 
L 185.265672 276.892884 
L 186.931343 275.194233 
L 188.597015 274.808875 
L 190.262687 271.871403 
L 193.59403 264.460937 
L 195.259701 260.583316 
L 196.925373 257.401942 
L 198.591045 256.057128 
L 200.256716 255.663101 
L 201.922388 253.092074 
L 205.253731 246.44405 
L 206.919403 242.825699 
L 208.585075 239.929206 
L 210.250746 238.667532 
L 211.916418 238.235284 
L 213.58209 235.493644 
L 216.913433 229.206548 
L 218.579104 225.974344 
L 220.244776 223.192513 
L 221.910448 221.932415 
L 223.576119 221.522627 
L 225.241791 218.980364 
L 231.904478 207.281307 
L 233.570149 205.995203 
L 235.235821 205.616937 
L 238.567164 200.355494 
L 241.898507 194.481338 
L 243.564179 191.91504 
L 245.229851 190.664004 
L 246.895522 190.229393 
L 248.561194 187.943248 
L 250.226866 185.065274 
L 253.558209 178.779755 
L 255.223881 176.185086 
L 256.889552 174.904498 
L 258.555224 174.4624 
L 260.220896 172.243634 
L 265.21791 164.068361 
L 266.883582 161.823982 
L 268.549254 160.824336 
L 270.214925 160.47247 
L 271.880597 158.588232 
L 275.21194 153.789377 
L 276.877612 151.223867 
L 278.543284 149.11464 
L 280.208955 148.201285 
L 281.874627 147.879365 
L 285.20597 143.636088 
L 288.537313 139.278543 
L 290.202985 137.37027 
L 291.868657 136.568819 
L 293.534328 136.307185 
L 295.2 134.615627 
L 300.197015 128.92627 
L 301.862687 127.569241 
L 303.528358 126.923825 
L 305.19403 126.663767 
L 306.859701 125.268911 
L 311.856716 120.206057 
L 313.522388 118.778497 
L 315.18806 118.231588 
L 316.853731 118.006992 
L 318.519403 117.416346 
L 321.850746 114.07342 
L 323.516418 112.403534 
L 325.18209 111.003556 
L 326.847761 110.311644 
L 328.513433 109.9649 
L 330.179104 108.449866 
L 336.841791 101.85543 
L 338.507463 101.234443 
L 340.173134 100.906612 
L 343.504478 97.798527 
L 346.835821 94.576568 
L 348.501493 93.162405 
L 350.167164 92.553239 
L 351.832836 92.261659 
L 356.829851 87.752807 
L 358.495522 86.217678 
L 360.161194 84.935908 
L 361.826866 84.350384 
L 363.492537 84.086386 
L 365.158209 82.480726 
L 366.823881 81.53309 
L 370.155224 78.752442 
L 371.820896 77.519925 
L 373.486567 77.086889 
L 375.152239 76.855595 
L 381.814925 72.395209 
L 383.480597 71.438905 
L 385.146269 71.056305 
L 386.81194 70.86205 
L 393.474627 67.052596 
L 395.140299 66.304733 
L 396.80597 65.963506 
L 398.471642 65.811411 
L 403.468657 63.494138 
L 406.8 62.080763 
L 410.131343 61.682402 
L 416.79403 59.085763 
L 418.459701 58.541218 
L 421.791045 58.172803 
L 425.122388 57.220439 
L 426.78806 56.679046 
L 426.78806 56.679046 
" style="fill:none;stroke:#ff7f0e;stroke-linecap:square;stroke-width:1.5;"/>
   </g>
   <g id="line2d_61">
    <path clip-path="url(#p5cb16fe166)" d="M 158.614925 342.114506 
L 160.280597 338.164829 
L 161.946269 334.79872 
L 163.61194 333.1842 
L 165.277612 332.604711 
L 166.943284 329.252964 
L 170.274627 321.610904 
L 171.940299 317.523625 
L 173.60597 314.314977 
L 175.271642 312.539981 
L 176.937313 311.985671 
L 178.602985 308.450574 
L 183.6 295.404439 
L 185.265672 291.836714 
L 186.931343 290.164387 
L 188.597015 289.729593 
L 190.262687 286.611025 
L 193.59403 278.776216 
L 195.259701 274.685745 
L 196.925373 271.33187 
L 198.591045 269.937585 
L 200.256716 269.551731 
L 201.922388 266.648433 
L 205.253731 259.36616 
L 206.919403 255.526423 
L 208.585075 252.489601 
L 210.250746 251.19568 
L 211.916418 250.784824 
L 213.58209 247.768394 
L 216.913433 240.779412 
L 218.579104 237.227114 
L 220.244776 234.118299 
L 221.910448 232.74813 
L 223.576119 232.304647 
L 225.241791 229.483449 
L 230.238806 219.221451 
L 231.904478 216.32826 
L 233.570149 214.995506 
L 235.235821 214.57206 
L 236.901493 211.687026 
L 240.232836 205.191178 
L 241.898507 201.852553 
L 243.564179 198.930459 
L 245.229851 197.567027 
L 246.895522 197.104039 
L 248.561194 194.414768 
L 250.226866 191.131823 
L 253.558209 184.057372 
L 255.223881 181.131731 
L 256.889552 179.68354 
L 258.555224 179.188101 
L 260.220896 176.638206 
L 265.21791 167.533769 
L 266.883582 165.00799 
L 268.549254 163.953631 
L 270.214925 163.591894 
L 271.880597 161.465799 
L 275.21194 156.129639 
L 276.877612 153.430084 
L 278.543284 151.150073 
L 280.208955 150.176751 
L 281.874627 149.840725 
L 285.20597 145.4598 
L 288.537313 141.022664 
L 290.202985 139.06343 
L 291.868657 138.281438 
L 293.534328 138.014391 
L 298.531343 132.244854 
L 300.197015 130.224976 
L 301.862687 128.809944 
L 303.528358 128.157575 
L 305.19403 127.896557 
L 306.859701 126.368925 
L 311.856716 120.957934 
L 313.522388 119.413457 
L 315.18806 118.870851 
L 316.853731 118.67225 
L 318.519403 118.059069 
L 321.850746 114.339911 
L 323.516418 112.549842 
L 325.18209 110.989228 
L 326.847761 110.243943 
L 328.513433 109.861281 
L 330.179104 108.131856 
L 333.510448 104.244951 
L 335.176119 102.411261 
L 336.841791 100.824404 
L 338.507463 100.176823 
L 340.173134 99.884773 
L 345.170149 94.795622 
L 346.835821 93.116203 
L 348.501493 91.607012 
L 350.167164 90.972021 
L 351.832836 90.710471 
L 356.829851 85.893155 
L 358.495522 84.2148 
L 360.161194 82.811116 
L 361.826866 82.227903 
L 363.492537 81.991355 
L 365.158209 80.264236 
L 366.823881 79.199592 
L 370.155224 76.304451 
L 371.820896 75.056456 
L 373.486567 74.624677 
L 375.152239 74.410117 
L 378.483582 72.17089 
L 381.814925 69.879354 
L 383.480597 68.950717 
L 385.146269 68.60352 
L 386.81194 68.428857 
L 393.474627 64.754384 
L 395.140299 63.999169 
L 396.80597 63.709956 
L 398.471642 63.612074 
L 401.802985 62.025926 
L 405.134328 60.598304 
L 406.8 59.991684 
L 410.131343 59.677114 
L 416.79403 57.364654 
L 418.459701 56.867797 
L 421.791045 56.602877 
L 426.78806 55.301332 
L 426.78806 55.301332 
" style="fill:none;stroke:#2ca02c;stroke-linecap:square;stroke-width:1.5;"/>
   </g>
   <g id="line2d_62">
    <path clip-path="url(#p5cb16fe166)" d="M 158.614925 364.412856 
L 161.946269 361.95173 
L 163.61194 361.368549 
L 165.277612 361.174155 
L 166.943284 360.187451 
L 170.274627 357.820798 
L 173.60597 355.434211 
L 175.271642 354.749251 
L 176.937313 354.512883 
L 178.602985 353.175775 
L 181.934328 349.86786 
L 185.265672 346.304261 
L 186.931343 345.498084 
L 188.597015 345.225808 
L 190.262687 343.663971 
L 193.59403 339.98745 
L 196.925373 336.188226 
L 198.591045 335.323978 
L 200.256716 334.999823 
L 201.922388 333.043874 
L 203.58806 330.61197 
L 208.585075 322.613095 
L 210.250746 321.484991 
L 211.916418 321.009779 
L 213.58209 318.431398 
L 216.913433 312.421284 
L 220.244776 306.081443 
L 221.910448 304.439 
L 223.576119 303.762955 
L 225.241791 300.60845 
L 230.238806 289.270706 
L 231.904478 285.75812 
L 233.570149 284.063055 
L 235.235821 283.531876 
L 238.567164 276.084238 
L 243.564179 264.185599 
L 245.229851 262.252061 
L 246.895522 261.425206 
L 248.561194 257.733456 
L 255.223881 240.88483 
L 256.889552 238.661187 
L 258.555224 237.833961 
L 260.220896 234.433306 
L 261.886567 230.241208 
L 265.21791 222.497893 
L 266.883582 219.011804 
L 268.549254 217.371467 
L 270.214925 216.769093 
L 271.880597 213.911998 
L 278.543284 200.683309 
L 280.208955 199.277606 
L 281.874627 198.743332 
L 290.202985 184.824235 
L 291.868657 183.634966 
L 293.534328 183.15901 
L 298.531343 175.549418 
L 300.197015 172.85923 
L 301.862687 170.777482 
L 303.528358 169.785578 
L 305.19403 169.416972 
L 306.859701 167.278516 
L 311.856716 160.040377 
L 313.522388 157.782189 
L 315.18806 156.902588 
L 316.853731 156.551193 
L 318.519403 155.599282 
L 320.185075 152.952801 
L 325.18209 145.74475 
L 326.847761 144.576158 
L 328.513433 143.92983 
L 330.179104 141.461027 
L 333.510448 136.156551 
L 336.841791 131.228852 
L 338.507463 130.235462 
L 340.173134 129.710474 
L 346.835821 120.54437 
L 348.501493 118.331994 
L 350.167164 117.332784 
L 351.832836 116.884069 
L 360.161194 106.203797 
L 361.826866 105.29126 
L 363.492537 104.907672 
L 365.158209 102.624968 
L 366.823881 101.231399 
L 370.155224 97.481207 
L 371.820896 95.759397 
L 373.486567 95.088676 
L 375.152239 94.783713 
L 381.814925 88.890236 
L 383.480597 87.585816 
L 385.146269 87.053894 
L 386.81194 86.806507 
L 391.808955 83.173446 
L 395.140299 81.000692 
L 396.80597 80.543681 
L 398.471642 80.4133 
L 401.802985 78.321895 
L 406.8 75.599142 
L 408.465672 75.305942 
L 410.131343 75.173085 
L 416.79403 72.225727 
L 418.459701 71.581751 
L 420.125373 71.323096 
L 421.791045 71.209926 
L 426.78806 69.534672 
L 426.78806 69.534672 
" style="fill:none;stroke:#d62728;stroke-linecap:square;stroke-width:1.5;"/>
   </g>
   <g id="line2d_63">
    <path clip-path="url(#p5cb16fe166)" d="M 158.614925 362.656906 
L 161.946269 360.777119 
L 163.61194 360.293672 
L 165.277612 360.104348 
L 166.943284 359.446839 
L 171.940299 357.02192 
L 173.60597 356.122154 
L 175.271642 355.485242 
L 176.937313 355.174363 
L 178.602985 354.188366 
L 181.934328 351.610303 
L 185.265672 348.733847 
L 186.931343 347.839096 
L 188.597015 347.221394 
L 190.262687 345.801682 
L 193.59403 342.377 
L 196.925373 338.847623 
L 198.591045 337.629081 
L 200.256716 336.75973 
L 201.922388 334.744194 
L 203.58806 332.359616 
L 208.585075 324.473134 
L 210.250746 322.815434 
L 211.916418 321.655695 
L 213.58209 319.056287 
L 216.913433 313.139451 
L 220.244776 306.672361 
L 221.910448 304.282767 
L 223.576119 302.96999 
L 225.241791 299.756721 
L 230.238806 288.5304 
L 231.904478 284.423022 
L 233.570149 282.058401 
L 235.235821 280.985746 
L 241.898507 265.071483 
L 243.564179 260.613953 
L 245.229851 257.922445 
L 246.895522 256.432937 
L 250.226866 248.428529 
L 253.558209 239.902146 
L 255.223881 235.698506 
L 256.889552 232.741155 
L 258.555224 231.277901 
L 260.220896 227.799004 
L 261.886567 223.523433 
L 266.883582 212.053787 
L 268.549254 209.746689 
L 270.214925 208.613737 
L 271.880597 205.622769 
L 276.877612 195.917865 
L 278.543284 193.019424 
L 280.208955 191.41135 
L 281.874627 190.488211 
L 285.20597 185.495901 
L 290.202985 178.242809 
L 291.868657 176.715416 
L 293.534328 175.740518 
L 298.531343 169.105875 
L 301.862687 164.677907 
L 303.528358 163.305046 
L 305.19403 162.478703 
L 308.525373 158.415828 
L 310.191045 156.383537 
L 313.522388 151.949058 
L 315.18806 150.654317 
L 316.853731 149.85807 
L 318.519403 148.784882 
L 321.850746 144.117004 
L 325.18209 139.628951 
L 326.847761 138.174662 
L 328.513433 137.251417 
L 336.841791 126.727214 
L 338.507463 125.549119 
L 340.173134 124.765038 
L 348.501493 115.982846 
L 350.167164 114.860245 
L 351.832836 114.246705 
L 358.495522 107.993805 
L 360.161194 106.424576 
L 361.826866 105.495995 
L 363.492537 105.018632 
L 365.158209 103.349726 
L 366.823881 102.337369 
L 371.820896 98.23618 
L 373.486567 97.592865 
L 375.152239 97.206001 
L 380.149254 94.029978 
L 383.480597 91.930346 
L 385.146269 91.405278 
L 386.81194 91.081272 
L 391.808955 88.465002 
L 395.140299 86.756076 
L 396.80597 86.325456 
L 398.471642 86.211371 
L 400.137313 85.331455 
L 406.8 82.626073 
L 408.465672 82.335791 
L 410.131343 82.168666 
L 413.462687 81.078936 
L 418.459701 79.458908 
L 421.791045 79.068842 
L 426.78806 77.658842 
L 426.78806 77.658842 
" style="fill:none;stroke:#9467bd;stroke-linecap:square;stroke-width:1.5;"/>
   </g>
   <g id="line2d_64">
    <path clip-path="url(#p5cb16fe166)" d="M 158.614925 347.217044 
L 160.280597 344.962544 
L 161.946269 342.912118 
L 163.61194 341.406529 
L 165.277612 340.492583 
L 166.943284 338.943717 
L 168.608955 336.984484 
L 170.274627 335.511277 
L 173.60597 332.058257 
L 175.271642 330.719619 
L 176.937313 329.920169 
L 181.934328 324.933516 
L 185.265672 321.835583 
L 186.931343 320.675094 
L 188.597015 319.81199 
L 196.925373 311.510923 
L 198.591045 310.087044 
L 200.256716 309.101274 
L 203.58806 305.799166 
L 205.253731 303.875441 
L 206.919403 302.368541 
L 208.585075 300.600268 
L 210.250746 299.210485 
L 211.916418 298.201917 
L 213.58209 296.667174 
L 220.244776 289.373868 
L 221.910448 287.283495 
L 223.576119 286.216418 
L 225.241791 284.537522 
L 230.238806 278.423165 
L 231.904478 275.956117 
L 233.570149 274.385765 
L 235.235821 273.451038 
L 236.901493 271.218227 
L 238.567164 269.236195 
L 243.564179 262.234524 
L 245.229851 260.547861 
L 246.895522 259.364977 
L 250.226866 255.427042 
L 255.223881 248.937624 
L 256.889552 247.179136 
L 258.555224 245.98223 
L 261.886567 241.884707 
L 266.883582 235.387623 
L 268.549254 233.702876 
L 270.214925 232.639229 
L 271.880597 230.63672 
L 276.877612 223.850018 
L 278.543284 221.303983 
L 280.208955 219.622666 
L 281.874627 218.568501 
L 288.537313 208.977318 
L 290.202985 206.098792 
L 291.868657 204.250121 
L 293.534328 202.99168 
L 298.531343 195.703216 
L 301.862687 190.670159 
L 303.528358 188.975527 
L 305.19403 187.905524 
L 306.859701 185.679169 
L 313.522388 175.910744 
L 315.18806 174.236892 
L 316.853731 173.106162 
L 318.519403 171.804747 
L 321.850746 166.419328 
L 325.18209 161.136399 
L 326.847761 159.216105 
L 328.513433 157.94919 
L 336.841791 145.768998 
L 338.507463 144.219931 
L 340.173134 143.126122 
L 348.501493 133.067071 
L 350.167164 131.596687 
L 351.832836 130.751742 
L 360.161194 122.00278 
L 361.826866 120.834624 
L 363.492537 120.189718 
L 365.158209 118.549659 
L 366.823881 117.433556 
L 371.820896 112.864837 
L 373.486567 112.021707 
L 375.152239 111.515405 
L 378.483582 109.110094 
L 381.814925 106.729397 
L 383.480597 105.429596 
L 385.146269 104.749988 
L 386.81194 104.320252 
L 390.143284 102.257317 
L 395.140299 99.387669 
L 396.80597 98.824574 
L 398.471642 98.663574 
L 400.137313 97.551809 
L 406.8 94.429665 
L 408.465672 94.015666 
L 410.131343 93.806145 
L 413.462687 92.543971 
L 416.79403 91.305404 
L 418.459701 90.633865 
L 420.125373 90.276559 
L 421.791045 90.068551 
L 426.78806 88.327515 
L 426.78806 88.327515 
" style="fill:none;stroke:#8c564b;stroke-linecap:square;stroke-width:1.5;"/>
   </g>
   <g id="line2d_65">
    <path clip-path="url(#p5cb16fe166)" d="M 158.614925 362.56262 
L 161.946269 361.022187 
L 163.61194 360.578158 
L 165.277612 360.360788 
L 166.943284 359.953739 
L 173.60597 357.826929 
L 175.271642 357.371134 
L 176.937313 357.143324 
L 178.602985 356.723359 
L 185.265672 354.552756 
L 190.262687 353.349746 
L 191.928358 352.849716 
L 196.925373 351.039715 
L 198.591045 350.498812 
L 200.256716 350.090879 
L 203.58806 348.94617 
L 206.919403 347.53676 
L 208.585075 346.824579 
L 215.247761 344.507383 
L 220.244776 342.096674 
L 221.910448 341.280984 
L 223.576119 340.863849 
L 225.241791 340.204662 
L 230.238806 337.447948 
L 231.904478 336.358533 
L 233.570149 335.675016 
L 235.235821 335.216036 
L 238.567164 333.371356 
L 243.564179 329.923782 
L 245.229851 329.026169 
L 246.895522 328.3492 
L 250.226866 326.343504 
L 255.223881 322.598762 
L 256.889552 321.642847 
L 258.555224 320.923147 
L 261.886567 318.386457 
L 265.21791 315.479875 
L 266.883582 313.849645 
L 268.549254 312.590191 
L 270.214925 311.808474 
L 271.880597 310.178686 
L 275.21194 306.30345 
L 276.877612 304.049686 
L 278.543284 301.580145 
L 280.208955 299.86003 
L 281.874627 298.588102 
L 285.20597 293.491101 
L 288.537313 287.988731 
L 290.202985 284.473125 
L 291.868657 282.133368 
L 293.534328 280.487214 
L 295.2 277.540467 
L 300.197015 267.395123 
L 301.862687 263.636137 
L 303.528358 261.023628 
L 305.19403 259.239815 
L 306.859701 255.806662 
L 308.525373 251.973626 
L 310.191045 248.548524 
L 311.856716 244.649579 
L 313.522388 240.453553 
L 315.18806 237.542725 
L 316.853731 235.580026 
L 318.519403 233.062622 
L 321.850746 224.005631 
L 323.516418 219.57401 
L 325.18209 214.813724 
L 326.847761 211.201421 
L 328.513433 208.589001 
L 330.179104 204.347324 
L 333.510448 195.190716 
L 336.841791 186.598722 
L 338.507463 183.550058 
L 340.173134 180.948786 
L 343.504478 173.608725 
L 346.835821 166.396857 
L 348.501493 162.643179 
L 350.167164 159.869567 
L 351.832836 158.162546 
L 355.164179 152.703261 
L 360.161194 144.754972 
L 361.826866 142.84739 
L 363.492537 141.714094 
L 365.158209 139.301703 
L 366.823881 137.750388 
L 370.155224 133.731832 
L 371.820896 131.502574 
L 373.486567 130.225426 
L 375.152239 129.412125 
L 378.483582 126.150072 
L 381.814925 123.10769 
L 383.480597 121.433048 
L 385.146269 120.441127 
L 386.81194 119.788929 
L 390.143284 117.141652 
L 395.140299 113.525809 
L 396.80597 112.772402 
L 398.471642 112.514955 
L 400.137313 111.08794 
L 406.8 107.179616 
L 408.465672 106.636944 
L 410.131343 106.265194 
L 418.459701 102.142509 
L 420.125373 101.629474 
L 421.791045 101.29037 
L 426.78806 98.945039 
L 426.78806 98.945039 
" style="fill:none;stroke:#e377c2;stroke-linecap:square;stroke-width:1.5;"/>
   </g>
   <g id="line2d_66">
    <path clip-path="url(#p5cb16fe166)" d="M 158.614925 367.560729 
L 161.946269 366.395984 
L 163.61194 366.063186 
L 165.277612 365.918064 
L 168.608955 365.223978 
L 175.271642 363.775422 
L 176.937313 363.626992 
L 180.268657 363.001009 
L 186.931343 361.690498 
L 188.597015 361.487199 
L 196.925373 359.648219 
L 198.591045 359.262667 
L 200.256716 359.003671 
L 203.58806 358.200675 
L 208.585075 356.750924 
L 211.916418 355.980463 
L 215.247761 355.068004 
L 221.910448 352.806617 
L 223.576119 352.503874 
L 225.241791 352.025311 
L 233.570149 348.841815 
L 235.235821 348.506812 
L 241.898507 345.664477 
L 243.564179 344.873796 
L 245.229851 344.240185 
L 246.895522 343.773111 
L 250.226866 342.404423 
L 255.223881 339.969882 
L 258.555224 338.820118 
L 265.21791 335.037936 
L 266.883582 333.96611 
L 268.549254 333.099697 
L 270.214925 332.549262 
L 271.880597 331.420729 
L 273.546269 330.086598 
L 275.21194 328.60615 
L 276.877612 326.904573 
L 278.543284 325.041698 
L 280.208955 323.694516 
L 281.874627 322.751728 
L 285.20597 318.941146 
L 288.537313 314.812933 
L 290.202985 312.117466 
L 291.868657 310.279774 
L 293.534328 308.907134 
L 295.2 306.401181 
L 298.531343 300.771289 
L 300.197015 297.779237 
L 301.862687 294.487566 
L 303.528358 292.080781 
L 305.19403 290.461553 
L 306.859701 287.293038 
L 308.525373 283.717097 
L 310.191045 280.560898 
L 311.856716 276.990839 
L 313.522388 273.152778 
L 315.18806 270.497567 
L 316.853731 268.63653 
L 318.519403 266.384334 
L 321.850746 257.693827 
L 325.18209 248.961317 
L 326.847761 245.339055 
L 328.513433 242.68752 
L 330.179104 238.25693 
L 335.176119 224.090108 
L 336.841791 219.751242 
L 340.173134 213.531028 
L 346.835821 197.011647 
L 348.501493 192.916795 
L 350.167164 189.722271 
L 351.832836 187.716387 
L 355.164179 181.364928 
L 360.161194 172.596299 
L 361.826866 170.473326 
L 363.492537 169.125317 
L 365.158209 166.484995 
L 366.823881 164.648405 
L 371.820896 157.73199 
L 373.486567 156.250716 
L 375.152239 155.276035 
L 378.483582 151.590632 
L 383.480597 146.458696 
L 385.146269 145.339996 
L 386.81194 144.577071 
L 390.143284 141.527944 
L 395.140299 137.609188 
L 396.80597 136.774483 
L 398.471642 136.467236 
L 400.137313 134.837714 
L 406.8 130.584506 
L 408.465672 130.00705 
L 410.131343 129.586849 
L 413.462687 127.71515 
L 416.79403 125.779668 
L 418.459701 124.792948 
L 420.125373 124.183968 
L 421.791045 123.734173 
L 426.78806 120.821161 
L 426.78806 120.821161 
" style="fill:none;stroke:#7f7f7f;stroke-linecap:square;stroke-width:1.5;"/>
   </g>
   <g id="line2d_67">
    <path clip-path="url(#p5cb16fe166)" d="M 158.614925 381.0324 
L 161.946269 380.664326 
L 171.940299 380.005798 
L 176.937313 379.683629 
L 191.928358 378.54157 
L 198.591045 377.852161 
L 203.58806 377.386156 
L 220.244776 375.070322 
L 221.910448 374.757612 
L 225.241791 374.368393 
L 230.238806 373.473108 
L 233.570149 372.855756 
L 236.901493 372.303506 
L 240.232836 371.578208 
L 245.229851 370.446442 
L 248.561194 369.80739 
L 251.892537 369.014486 
L 256.889552 367.756691 
L 258.555224 367.436469 
L 263.552239 365.862069 
L 265.21791 365.415261 
L 268.549254 364.262351 
L 270.214925 363.9093 
L 273.546269 362.464825 
L 275.21194 361.59124 
L 276.877612 360.583001 
L 278.543284 359.412007 
L 280.208955 358.483336 
L 281.874627 357.791702 
L 285.20597 355.211288 
L 288.537313 352.168208 
L 290.202985 349.83874 
L 291.868657 347.895153 
L 293.534328 346.367214 
L 295.2 343.291583 
L 300.197015 332.536473 
L 301.862687 328.886613 
L 303.528358 325.688012 
L 305.19403 323.802014 
L 306.859701 320.47488 
L 311.856716 308.508436 
L 313.522388 304.114637 
L 315.18806 300.516803 
L 318.519403 295.498697 
L 323.516418 281.093727 
L 326.847761 271.159063 
L 328.513433 267.633563 
L 330.179104 262.279378 
L 333.510448 250.554143 
L 335.176119 245.1841 
L 336.841791 240.260864 
L 338.507463 236.143052 
L 340.173134 232.6412 
L 346.835821 213.340538 
L 348.501493 208.781203 
L 350.167164 204.832822 
L 351.832836 202.279951 
L 356.829851 191.100289 
L 358.495522 187.514696 
L 360.161194 184.402063 
L 361.826866 181.658895 
L 363.492537 179.975435 
L 365.158209 176.94404 
L 366.823881 174.643507 
L 370.155224 168.967152 
L 371.820896 166.163056 
L 373.486567 164.233936 
L 375.152239 162.966403 
L 376.81791 160.646395 
L 383.480597 152.222421 
L 385.146269 150.751794 
L 386.81194 149.620028 
L 390.143284 145.649668 
L 393.474627 142.412952 
L 395.140299 140.972372 
L 396.80597 139.974148 
L 398.471642 139.643354 
L 400.137313 137.678066 
L 406.8 132.732852 
L 408.465672 131.989192 
L 410.131343 131.455582 
L 413.462687 128.998138 
L 418.459701 125.322404 
L 420.125373 124.51392 
L 421.791045 123.900463 
L 426.78806 120.054742 
L 426.78806 120.054742 
" style="fill:none;stroke:#bcbd22;stroke-linecap:square;stroke-width:1.5;"/>
   </g>
   <g id="line2d_68">
    <path clip-path="url(#p5cb16fe166)" d="M 283.540299 383.025257 
L 285.20597 382.87642 
L 286.871642 382.686791 
L 288.537313 382.492201 
L 290.202985 382.201693 
L 291.868657 381.990565 
L 293.534328 381.823261 
L 295.2 381.487827 
L 296.865672 381.174718 
L 298.531343 380.782506 
L 300.197015 380.359974 
L 301.862687 379.845384 
L 303.528358 379.377099 
L 305.19403 379.118288 
L 306.859701 378.51798 
L 308.525373 377.933381 
L 310.191045 377.302754 
L 311.856716 376.556364 
L 313.522388 375.710199 
L 315.18806 374.840606 
L 316.853731 374.215491 
L 318.519403 373.127879 
L 320.185075 370.143975 
L 321.850746 366.573543 
L 323.516418 362.494585 
L 325.18209 357.928875 
L 326.847761 353.323475 
L 328.513433 349.486791 
L 330.179104 343.930489 
L 331.844776 337.794825 
L 333.510448 332.03842 
L 335.176119 325.456522 
L 336.841791 319.451229 
L 338.507463 314.007381 
L 340.173134 309.855383 
L 341.838806 303.298015 
L 343.504478 296.906572 
L 345.170149 290.43768 
L 346.835821 283.628116 
L 348.501493 276.736967 
L 350.167164 270.332019 
L 351.832836 266.307084 
L 353.498507 260.496381 
L 355.164179 255.222593 
L 356.829851 249.876868 
L 358.495522 244.232918 
L 360.161194 238.60137 
L 361.826866 233.511699 
L 363.492537 230.643282 
L 365.158209 225.80746 
L 366.823881 222.485917 
L 368.489552 218.234418 
L 370.155224 214.088208 
L 371.820896 209.660035 
L 373.486567 206.160714 
L 375.152239 203.957652 
L 376.81791 200.336781 
L 378.483582 197.533411 
L 380.149254 194.818515 
L 381.814925 191.934662 
L 383.480597 188.977769 
L 385.146269 186.553657 
L 386.81194 184.797382 
L 388.477612 182.078628 
L 390.143284 179.918288 
L 391.808955 177.874261 
L 393.474627 175.801569 
L 395.140299 173.615321 
L 396.80597 171.970122 
L 398.471642 171.549795 
L 400.137313 168.391145 
L 401.802985 166.77847 
L 403.468657 165.196664 
L 405.134328 163.558632 
L 406.8 161.693209 
L 408.465672 160.519327 
L 410.131343 159.806839 
L 411.797015 158.187549 
L 413.462687 156.977836 
L 415.128358 155.750207 
L 416.79403 154.434103 
L 418.459701 153.042202 
L 420.125373 152.130163 
L 421.791045 151.570922 
L 423.456716 150.280726 
L 425.122388 149.271667 
L 426.78806 148.20583 
" style="fill:none;stroke:#17becf;stroke-linecap:square;stroke-width:1.5;"/>
   </g>
   <g id="patch_3">
    <path d="M 72 384.48 
L 72 51.84 
" style="fill:none;stroke:#000000;stroke-linecap:square;stroke-linejoin:miter;stroke-width:0.8;"/>
   </g>
   <g id="patch_4">
    <path d="M 518.4 384.48 
L 518.4 51.84 
" style="fill:none;stroke:#000000;stroke-linecap:square;stroke-linejoin:miter;stroke-width:0.8;"/>
   </g>
   <g id="patch_5">
    <path d="M 72 384.48 
L 518.4 384.48 
" style="fill:none;stroke:#000000;stroke-linecap:square;stroke-linejoin:miter;stroke-width:0.8;"/>
   </g>
   <g id="patch_6">
    <path d="M 72 51.84 
L 518.4 51.84 
" style="fill:none;stroke:#000000;stroke-linecap:square;stroke-linejoin:miter;stroke-width:0.8;"/>
   </g>
   <g id="text_32">
    <!-- Second dose coverage by age group -->
    <g transform="translate(185.465625 45.84)scale(0.12 -0.12)">
     <defs>
      <path d="M 2906 2969 
L 2906 4863 
L 3481 4863 
L 3481 0 
L 2906 0 
L 2906 525 
Q 2725 213 2448 61 
Q 2172 -91 1784 -91 
Q 1150 -91 751 415 
Q 353 922 353 1747 
Q 353 2572 751 3078 
Q 1150 3584 1784 3584 
Q 2172 3584 2448 3432 
Q 2725 3281 2906 2969 
z
M 947 1747 
Q 947 1113 1208 752 
Q 1469 391 1925 391 
Q 2381 391 2643 752 
Q 2906 1113 2906 1747 
Q 2906 2381 2643 2742 
Q 2381 3103 1925 3103 
Q 1469 3103 1208 2742 
Q 947 2381 947 1747 
z
" id="DejaVuSans-64" transform="scale(0.015625)"/>
      <path d="M 2834 3397 
L 2834 2853 
Q 2591 2978 2328 3040 
Q 2066 3103 1784 3103 
Q 1356 3103 1142 2972 
Q 928 2841 928 2578 
Q 928 2378 1081 2264 
Q 1234 2150 1697 2047 
L 1894 2003 
Q 2506 1872 2764 1633 
Q 3022 1394 3022 966 
Q 3022 478 2636 193 
Q 2250 -91 1575 -91 
Q 1294 -91 989 -36 
Q 684 19 347 128 
L 347 722 
Q 666 556 975 473 
Q 1284 391 1588 391 
Q 1994 391 2212 530 
Q 2431 669 2431 922 
Q 2431 1156 2273 1281 
Q 2116 1406 1581 1522 
L 1381 1569 
Q 847 1681 609 1914 
Q 372 2147 372 2553 
Q 372 3047 722 3315 
Q 1072 3584 1716 3584 
Q 2034 3584 2315 3537 
Q 2597 3491 2834 3397 
z
" id="DejaVuSans-73" transform="scale(0.015625)"/>
      <path d="M 2059 -325 
Q 1816 -950 1584 -1140 
Q 1353 -1331 966 -1331 
L 506 -1331 
L 506 -850 
L 844 -850 
Q 1081 -850 1212 -737 
Q 1344 -625 1503 -206 
L 1606 56 
L 191 3500 
L 800 3500 
L 1894 763 
L 2988 3500 
L 3597 3500 
L 2059 -325 
z
" id="DejaVuSans-79" transform="scale(0.015625)"/>
     </defs>
     <use xlink:href="#DejaVuSans-53"/>
     <use x="63.476562" xlink:href="#DejaVuSans-65"/>
     <use x="125" xlink:href="#DejaVuSans-63"/>
     <use x="179.980469" xlink:href="#DejaVuSans-6f"/>
     <use x="241.162109" xlink:href="#DejaVuSans-6e"/>
     <use x="304.541016" xlink:href="#DejaVuSans-64"/>
     <use x="368.017578" xlink:href="#DejaVuSans-20"/>
     <use x="399.804688" xlink:href="#DejaVuSans-64"/>
     <use x="463.28125" xlink:href="#DejaVuSans-6f"/>
     <use x="524.462891" xlink:href="#DejaVuSans-73"/>
     <use x="576.5625" xlink:href="#DejaVuSans-65"/>
     <use x="638.085938" xlink:href="#DejaVuSans-20"/>
     <use x="669.873047" xlink:href="#DejaVuSans-63"/>
     <use x="724.853516" xlink:href="#DejaVuSans-6f"/>
     <use x="786.035156" xlink:href="#DejaVuSans-76"/>
     <use x="845.214844" xlink:href="#DejaVuSans-65"/>
     <use x="906.738281" xlink:href="#DejaVuSans-72"/>
     <use x="947.851562" xlink:href="#DejaVuSans-61"/>
     <use x="1009.130859" xlink:href="#DejaVuSans-67"/>
     <use x="1072.607422" xlink:href="#DejaVuSans-65"/>
     <use x="1134.130859" xlink:href="#DejaVuSans-20"/>
     <use x="1165.917969" xlink:href="#DejaVuSans-62"/>
     <use x="1229.394531" xlink:href="#DejaVuSans-79"/>
     <use x="1288.574219" xlink:href="#DejaVuSans-20"/>
     <use x="1320.361328" xlink:href="#DejaVuSans-61"/>
     <use x="1381.640625" xlink:href="#DejaVuSans-67"/>
     <use x="1445.117188" xlink:href="#DejaVuSans-65"/>
     <use x="1506.640625" xlink:href="#DejaVuSans-20"/>
     <use x="1538.427734" xlink:href="#DejaVuSans-67"/>
     <use x="1601.904297" xlink:href="#DejaVuSans-72"/>
     <use x="1640.767578" xlink:href="#DejaVuSans-6f"/>
     <use x="1701.949219" xlink:href="#DejaVuSans-75"/>
     <use x="1765.328125" xlink:href="#DejaVuSans-70"/>
    </g>
   </g>
   <g id="legend_1">
    <g id="patch_7">
     <path d="M 78.3 191.143125 
L 200.795625 191.143125 
Q 202.595625 191.143125 202.595625 189.343125 
L 202.595625 58.14 
Q 202.595625 56.34 200.795625 56.34 
L 78.3 56.34 
Q 76.5 56.34 76.5 58.14 
L 76.5 189.343125 
Q 76.5 191.143125 78.3 191.143125 
z
" style="fill:#ffffff;opacity:0.8;stroke:#cccccc;stroke-linejoin:miter;"/>
    </g>
    <g id="line2d_69">
     <path d="M 80.1 63.628594 
L 98.1 63.628594 
" style="fill:none;stroke:#1f77b4;stroke-linecap:square;stroke-width:1.5;"/>
    </g>
    <g id="line2d_70"/>
    <g id="text_33">
     <!-- Ages 90+ (96.0 %) -->
     <g transform="translate(105.3 66.778594)scale(0.09 -0.09)">
      <defs>
       <path d="M 2944 4013 
L 2944 2272 
L 4684 2272 
L 4684 1741 
L 2944 1741 
L 2944 0 
L 2419 0 
L 2419 1741 
L 678 1741 
L 678 2272 
L 2419 2272 
L 2419 4013 
L 2944 4013 
z
" id="DejaVuSans-2b" transform="scale(0.015625)"/>
       <path d="M 684 794 
L 1344 794 
L 1344 0 
L 684 0 
L 684 794 
z
" id="DejaVuSans-2e" transform="scale(0.015625)"/>
      </defs>
      <use xlink:href="#DejaVuSans-41"/>
      <use x="68.408203" xlink:href="#DejaVuSans-67"/>
      <use x="131.884766" xlink:href="#DejaVuSans-65"/>
      <use x="193.408203" xlink:href="#DejaVuSans-73"/>
      <use x="245.507812" xlink:href="#DejaVuSans-20"/>
      <use x="277.294922" xlink:href="#DejaVuSans-39"/>
      <use x="340.917969" xlink:href="#DejaVuSans-30"/>
      <use x="404.541016" xlink:href="#DejaVuSans-2b"/>
      <use x="488.330078" xlink:href="#DejaVuSans-20"/>
      <use x="520.117188" xlink:href="#DejaVuSans-28"/>
      <use x="559.130859" xlink:href="#DejaVuSans-39"/>
      <use x="622.753906" xlink:href="#DejaVuSans-36"/>
      <use x="686.376953" xlink:href="#DejaVuSans-2e"/>
      <use x="718.164062" xlink:href="#DejaVuSans-30"/>
      <use x="781.787109" xlink:href="#DejaVuSans-20"/>
      <use x="813.574219" xlink:href="#DejaVuSans-25"/>
      <use x="908.59375" xlink:href="#DejaVuSans-29"/>
     </g>
    </g>
    <g id="line2d_71">
     <path d="M 80.1 76.838906 
L 98.1 76.838906 
" style="fill:none;stroke:#ff7f0e;stroke-linecap:square;stroke-width:1.5;"/>
    </g>
    <g id="line2d_72"/>
    <g id="text_34">
     <!-- Ages 8089 (98.5 %) -->
     <g transform="translate(105.3 79.988906)scale(0.09 -0.09)">
      <defs>
       <path d="M 313 1978 
L 2888 1978 
L 2888 1528 
L 313 1528 
L 313 1978 
z
" id="DejaVuSans-2013" transform="scale(0.015625)"/>
      </defs>
      <use xlink:href="#DejaVuSans-41"/>
      <use x="68.408203" xlink:href="#DejaVuSans-67"/>
      <use x="131.884766" xlink:href="#DejaVuSans-65"/>
      <use x="193.408203" xlink:href="#DejaVuSans-73"/>
      <use x="245.507812" xlink:href="#DejaVuSans-20"/>
      <use x="277.294922" xlink:href="#DejaVuSans-38"/>
      <use x="340.917969" xlink:href="#DejaVuSans-30"/>
      <use x="404.541016" xlink:href="#DejaVuSans-2013"/>
      <use x="454.541016" xlink:href="#DejaVuSans-38"/>
      <use x="518.164062" xlink:href="#DejaVuSans-39"/>
      <use x="581.787109" xlink:href="#DejaVuSans-20"/>
      <use x="613.574219" xlink:href="#DejaVuSans-28"/>
      <use x="652.587891" xlink:href="#DejaVuSans-39"/>
      <use x="716.210938" xlink:href="#DejaVuSans-38"/>
      <use x="779.833984" xlink:href="#DejaVuSans-2e"/>
      <use x="811.621094" xlink:href="#DejaVuSans-35"/>
      <use x="875.244141" xlink:href="#DejaVuSans-20"/>
      <use x="907.03125" xlink:href="#DejaVuSans-25"/>
      <use x="1002.050781" xlink:href="#DejaVuSans-29"/>
     </g>
    </g>
    <g id="line2d_73">
     <path d="M 80.1 90.049219 
L 98.1 90.049219 
" style="fill:none;stroke:#2ca02c;stroke-linecap:square;stroke-width:1.5;"/>
    </g>
    <g id="line2d_74"/>
    <g id="text_35">
     <!-- Ages 7079 (99.0 %) -->
     <g transform="translate(105.3 93.199219)scale(0.09 -0.09)">
      <use xlink:href="#DejaVuSans-41"/>
      <use x="68.408203" xlink:href="#DejaVuSans-67"/>
      <use x="131.884766" xlink:href="#DejaVuSans-65"/>
      <use x="193.408203" xlink:href="#DejaVuSans-73"/>
      <use x="245.507812" xlink:href="#DejaVuSans-20"/>
      <use x="277.294922" xlink:href="#DejaVuSans-37"/>
      <use x="340.917969" xlink:href="#DejaVuSans-30"/>
      <use x="404.541016" xlink:href="#DejaVuSans-2013"/>
      <use x="454.541016" xlink:href="#DejaVuSans-37"/>
      <use x="518.164062" xlink:href="#DejaVuSans-39"/>
      <use x="581.787109" xlink:href="#DejaVuSans-20"/>
      <use x="613.574219" xlink:href="#DejaVuSans-28"/>
      <use x="652.587891" xlink:href="#DejaVuSans-39"/>
      <use x="716.210938" xlink:href="#DejaVuSans-39"/>
      <use x="779.833984" xlink:href="#DejaVuSans-2e"/>
      <use x="811.621094" xlink:href="#DejaVuSans-30"/>
      <use x="875.244141" xlink:href="#DejaVuSans-20"/>
      <use x="907.03125" xlink:href="#DejaVuSans-25"/>
      <use x="1002.050781" xlink:href="#DejaVuSans-29"/>
     </g>
    </g>
    <g id="line2d_75">
     <path d="M 80.1 103.259531 
L 98.1 103.259531 
" style="fill:none;stroke:#d62728;stroke-linecap:square;stroke-width:1.5;"/>
    </g>
    <g id="line2d_76"/>
    <g id="text_36">
     <!-- Ages 6069 (94.7 %) -->
     <g transform="translate(105.3 106.409531)scale(0.09 -0.09)">
      <use xlink:href="#DejaVuSans-41"/>
      <use x="68.408203" xlink:href="#DejaVuSans-67"/>
      <use x="131.884766" xlink:href="#DejaVuSans-65"/>
      <use x="193.408203" xlink:href="#DejaVuSans-73"/>
      <use x="245.507812" xlink:href="#DejaVuSans-20"/>
      <use x="277.294922" xlink:href="#DejaVuSans-36"/>
      <use x="340.917969" xlink:href="#DejaVuSans-30"/>
      <use x="404.541016" xlink:href="#DejaVuSans-2013"/>
      <use x="454.541016" xlink:href="#DejaVuSans-36"/>
      <use x="518.164062" xlink:href="#DejaVuSans-39"/>
      <use x="581.787109" xlink:href="#DejaVuSans-20"/>
      <use x="613.574219" xlink:href="#DejaVuSans-28"/>
      <use x="652.587891" xlink:href="#DejaVuSans-39"/>
      <use x="716.210938" xlink:href="#DejaVuSans-34"/>
      <use x="779.833984" xlink:href="#DejaVuSans-2e"/>
      <use x="811.621094" xlink:href="#DejaVuSans-37"/>
      <use x="875.244141" xlink:href="#DejaVuSans-20"/>
      <use x="907.03125" xlink:href="#DejaVuSans-25"/>
      <use x="1002.050781" xlink:href="#DejaVuSans-29"/>
     </g>
    </g>
    <g id="line2d_77">
     <path d="M 80.1 116.469844 
L 98.1 116.469844 
" style="fill:none;stroke:#9467bd;stroke-linecap:square;stroke-width:1.5;"/>
    </g>
    <g id="line2d_78"/>
    <g id="text_37">
     <!-- Ages 5059 (92.2 %) -->
     <g transform="translate(105.3 119.619844)scale(0.09 -0.09)">
      <use xlink:href="#DejaVuSans-41"/>
      <use x="68.408203" xlink:href="#DejaVuSans-67"/>
      <use x="131.884766" xlink:href="#DejaVuSans-65"/>
      <use x="193.408203" xlink:href="#DejaVuSans-73"/>
      <use x="245.507812" xlink:href="#DejaVuSans-20"/>
      <use x="277.294922" xlink:href="#DejaVuSans-35"/>
      <use x="340.917969" xlink:href="#DejaVuSans-30"/>
      <use x="404.541016" xlink:href="#DejaVuSans-2013"/>
      <use x="454.541016" xlink:href="#DejaVuSans-35"/>
      <use x="518.164062" xlink:href="#DejaVuSans-39"/>
      <use x="581.787109" xlink:href="#DejaVuSans-20"/>
      <use x="613.574219" xlink:href="#DejaVuSans-28"/>
      <use x="652.587891" xlink:href="#DejaVuSans-39"/>
      <use x="716.210938" xlink:href="#DejaVuSans-32"/>
      <use x="779.833984" xlink:href="#DejaVuSans-2e"/>
      <use x="811.621094" xlink:href="#DejaVuSans-32"/>
      <use x="875.244141" xlink:href="#DejaVuSans-20"/>
      <use x="907.03125" xlink:href="#DejaVuSans-25"/>
      <use x="1002.050781" xlink:href="#DejaVuSans-29"/>
     </g>
    </g>
    <g id="line2d_79">
     <path d="M 80.1 129.680156 
L 98.1 129.680156 
" style="fill:none;stroke:#8c564b;stroke-linecap:square;stroke-width:1.5;"/>
    </g>
    <g id="line2d_80"/>
    <g id="text_38">
     <!-- Ages 4049 (89.0 %) -->
     <g transform="translate(105.3 132.830156)scale(0.09 -0.09)">
      <use xlink:href="#DejaVuSans-41"/>
      <use x="68.408203" xlink:href="#DejaVuSans-67"/>
      <use x="131.884766" xlink:href="#DejaVuSans-65"/>
      <use x="193.408203" xlink:href="#DejaVuSans-73"/>
      <use x="245.507812" xlink:href="#DejaVuSans-20"/>
      <use x="277.294922" xlink:href="#DejaVuSans-34"/>
      <use x="340.917969" xlink:href="#DejaVuSans-30"/>
      <use x="404.541016" xlink:href="#DejaVuSans-2013"/>
      <use x="454.541016" xlink:href="#DejaVuSans-34"/>
      <use x="518.164062" xlink:href="#DejaVuSans-39"/>
      <use x="581.787109" xlink:href="#DejaVuSans-20"/>
      <use x="613.574219" xlink:href="#DejaVuSans-28"/>
      <use x="652.587891" xlink:href="#DejaVuSans-38"/>
      <use x="716.210938" xlink:href="#DejaVuSans-39"/>
      <use x="779.833984" xlink:href="#DejaVuSans-2e"/>
      <use x="811.621094" xlink:href="#DejaVuSans-30"/>
      <use x="875.244141" xlink:href="#DejaVuSans-20"/>
      <use x="907.03125" xlink:href="#DejaVuSans-25"/>
      <use x="1002.050781" xlink:href="#DejaVuSans-29"/>
     </g>
    </g>
    <g id="line2d_81">
     <path d="M 80.1 142.890469 
L 98.1 142.890469 
" style="fill:none;stroke:#e377c2;stroke-linecap:square;stroke-width:1.5;"/>
    </g>
    <g id="line2d_82"/>
    <g id="text_39">
     <!-- Ages 3039 (85.8 %) -->
     <g transform="translate(105.3 146.040469)scale(0.09 -0.09)">
      <use xlink:href="#DejaVuSans-41"/>
      <use x="68.408203" xlink:href="#DejaVuSans-67"/>
      <use x="131.884766" xlink:href="#DejaVuSans-65"/>
      <use x="193.408203" xlink:href="#DejaVuSans-73"/>
      <use x="245.507812" xlink:href="#DejaVuSans-20"/>
      <use x="277.294922" xlink:href="#DejaVuSans-33"/>
      <use x="340.917969" xlink:href="#DejaVuSans-30"/>
      <use x="404.541016" xlink:href="#DejaVuSans-2013"/>
      <use x="454.541016" xlink:href="#DejaVuSans-33"/>
      <use x="518.164062" xlink:href="#DejaVuSans-39"/>
      <use x="581.787109" xlink:href="#DejaVuSans-20"/>
      <use x="613.574219" xlink:href="#DejaVuSans-28"/>
      <use x="652.587891" xlink:href="#DejaVuSans-38"/>
      <use x="716.210938" xlink:href="#DejaVuSans-35"/>
      <use x="779.833984" xlink:href="#DejaVuSans-2e"/>
      <use x="811.621094" xlink:href="#DejaVuSans-38"/>
      <use x="875.244141" xlink:href="#DejaVuSans-20"/>
      <use x="907.03125" xlink:href="#DejaVuSans-25"/>
      <use x="1002.050781" xlink:href="#DejaVuSans-29"/>
     </g>
    </g>
    <g id="line2d_83">
     <path d="M 80.1 156.100781 
L 98.1 156.100781 
" style="fill:none;stroke:#7f7f7f;stroke-linecap:square;stroke-width:1.5;"/>
    </g>
    <g id="line2d_84"/>
    <g id="text_40">
     <!-- Ages 2029 (79.3 %) -->
     <g transform="translate(105.3 159.250781)scale(0.09 -0.09)">
      <use xlink:href="#DejaVuSans-41"/>
      <use x="68.408203" xlink:href="#DejaVuSans-67"/>
      <use x="131.884766" xlink:href="#DejaVuSans-65"/>
      <use x="193.408203" xlink:href="#DejaVuSans-73"/>
      <use x="245.507812" xlink:href="#DejaVuSans-20"/>
      <use x="277.294922" xlink:href="#DejaVuSans-32"/>
      <use x="340.917969" xlink:href="#DejaVuSans-30"/>
      <use x="404.541016" xlink:href="#DejaVuSans-2013"/>
      <use x="454.541016" xlink:href="#DejaVuSans-32"/>
      <use x="518.164062" xlink:href="#DejaVuSans-39"/>
      <use x="581.787109" xlink:href="#DejaVuSans-20"/>
      <use x="613.574219" xlink:href="#DejaVuSans-28"/>
      <use x="652.587891" xlink:href="#DejaVuSans-37"/>
      <use x="716.210938" xlink:href="#DejaVuSans-39"/>
      <use x="779.833984" xlink:href="#DejaVuSans-2e"/>
      <use x="811.621094" xlink:href="#DejaVuSans-33"/>
      <use x="875.244141" xlink:href="#DejaVuSans-20"/>
      <use x="907.03125" xlink:href="#DejaVuSans-25"/>
      <use x="1002.050781" xlink:href="#DejaVuSans-29"/>
     </g>
    </g>
    <g id="line2d_85">
     <path d="M 80.1 169.311094 
L 98.1 169.311094 
" style="fill:none;stroke:#bcbd22;stroke-linecap:square;stroke-width:1.5;"/>
    </g>
    <g id="line2d_86"/>
    <g id="text_41">
     <!-- Ages 1619 (79.5 %) -->
     <g transform="translate(105.3 172.461094)scale(0.09 -0.09)">
      <use xlink:href="#DejaVuSans-41"/>
      <use x="68.408203" xlink:href="#DejaVuSans-67"/>
      <use x="131.884766" xlink:href="#DejaVuSans-65"/>
      <use x="193.408203" xlink:href="#DejaVuSans-73"/>
      <use x="245.507812" xlink:href="#DejaVuSans-20"/>
      <use x="277.294922" xlink:href="#DejaVuSans-31"/>
      <use x="340.917969" xlink:href="#DejaVuSans-36"/>
      <use x="404.541016" xlink:href="#DejaVuSans-2013"/>
      <use x="454.541016" xlink:href="#DejaVuSans-31"/>
      <use x="518.164062" xlink:href="#DejaVuSans-39"/>
      <use x="581.787109" xlink:href="#DejaVuSans-20"/>
      <use x="613.574219" xlink:href="#DejaVuSans-28"/>
      <use x="652.587891" xlink:href="#DejaVuSans-37"/>
      <use x="716.210938" xlink:href="#DejaVuSans-39"/>
      <use x="779.833984" xlink:href="#DejaVuSans-2e"/>
      <use x="811.621094" xlink:href="#DejaVuSans-35"/>
      <use x="875.244141" xlink:href="#DejaVuSans-20"/>
      <use x="907.03125" xlink:href="#DejaVuSans-25"/>
      <use x="1002.050781" xlink:href="#DejaVuSans-29"/>
     </g>
    </g>
    <g id="line2d_87">
     <path d="M 80.1 182.521406 
L 98.1 182.521406 
" style="fill:none;stroke:#17becf;stroke-linecap:square;stroke-width:1.5;"/>
    </g>
    <g id="line2d_88"/>
    <g id="text_42">
     <!-- Ages 1215 (71.0 %) -->
     <g transform="translate(105.3 185.671406)scale(0.09 -0.09)">
      <use xlink:href="#DejaVuSans-41"/>
      <use x="68.408203" xlink:href="#DejaVuSans-67"/>
      <use x="131.884766" xlink:href="#DejaVuSans-65"/>
      <use x="193.408203" xlink:href="#DejaVuSans-73"/>
      <use x="245.507812" xlink:href="#DejaVuSans-20"/>
      <use x="277.294922" xlink:href="#DejaVuSans-31"/>
      <use x="340.917969" xlink:href="#DejaVuSans-32"/>
      <use x="404.541016" xlink:href="#DejaVuSans-2013"/>
      <use x="454.541016" xlink:href="#DejaVuSans-31"/>
      <use x="518.164062" xlink:href="#DejaVuSans-35"/>
      <use x="581.787109" xlink:href="#DejaVuSans-20"/>
      <use x="613.574219" xlink:href="#DejaVuSans-28"/>
      <use x="652.587891" xlink:href="#DejaVuSans-37"/>
      <use x="716.210938" xlink:href="#DejaVuSans-31"/>
      <use x="779.833984" xlink:href="#DejaVuSans-2e"/>
      <use x="811.621094" xlink:href="#DejaVuSans-30"/>
      <use x="875.244141" xlink:href="#DejaVuSans-20"/>
      <use x="907.03125" xlink:href="#DejaVuSans-25"/>
      <use x="1002.050781" xlink:href="#DejaVuSans-29"/>
     </g>
    </g>
   </g>
  </g>
 </g>
 <defs>
  <clipPath id="p5cb16fe166">
   <rect height="332.64" width="446.4" x="72" y="51.84"/>
  </clipPath>
 </defs>
</svg>
