<?xml version="1.0" encoding="utf-8" standalone="no"?>
<!DOCTYPE svg PUBLIC "-//W3C//DTD SVG 1.1//EN"
  "http://www.w3.org/Graphics/SVG/1.1/DTD/svg11.dtd">
<svg height="360pt" version="1.1" viewBox="0 0 720 360" width="720pt" xmlns="http://www.w3.org/2000/svg" xmlns:xlink="http://www.w3.org/1999/xlink">
 <metadata>
  <rdf:RDF xmlns:cc="http://creativecommons.org/ns#" xmlns:dc="http://purl.org/dc/elements/1.1/" xmlns:rdf="http://www.w3.org/1999/02/22-rdf-syntax-ns#">
   <cc:Work>
    <dc:type rdf:resource="http://purl.org/dc/dcmitype/StillImage"/>
    <dc:date>2021-08-28T19:45:29.539195</dc:date>
    <dc:format>image/svg+xml</dc:format>
    <dc:creator>
     <cc:Agent>
      <dc:title>Matplotlib v3.4.2, https://matplotlib.org/</dc:title>
     </cc:Agent>
    </dc:creator>
   </cc:Work>
  </rdf:RDF>
 </metadata>
 <defs>
  <style type="text/css">*{stroke-linecap:butt;stroke-linejoin:round;}</style>
 </defs>
 <g id="figure_1">
  <g id="patch_1">
   <path d="M 0 360 
L 720 360 
L 720 0 
L 0 0 
z
" style="fill:#ffffff;"/>
  </g>
  <g id="axes_1">
   <g id="patch_2">
    <path d="M 54.11 319.04 
L 356.1975 319.04 
L 356.1975 26.16 
L 54.11 26.16 
z
" style="fill:#ffffff;"/>
   </g>
   <g id="matplotlib.axis_1">
    <g id="xtick_1">
     <g id="line2d_1">
      <path clip-path="url(#p8faf7b566f)" d="M 54.11 319.04 
L 54.11 26.16 
" style="fill:none;stroke:#000000;stroke-dasharray:0.8,1.32;stroke-dashoffset:0;stroke-opacity:0.5;stroke-width:0.8;"/>
     </g>
     <g id="line2d_2">
      <defs>
       <path d="M 0 0 
L 0 3.5 
" id="md47c1202f7" style="stroke:#000000;stroke-width:0.8;"/>
      </defs>
      <g>
       <use style="stroke:#000000;stroke-width:0.8;" x="54.11" xlink:href="#md47c1202f7" y="319.04"/>
      </g>
     </g>
     <g id="text_1">
      <!-- May -->
      <g transform="translate(43.7725 333.638438)scale(0.1 -0.1)">
       <defs>
        <path d="M 628 4666 
L 1569 4666 
L 2759 1491 
L 3956 4666 
L 4897 4666 
L 4897 0 
L 4281 0 
L 4281 4097 
L 3078 897 
L 2444 897 
L 1241 4097 
L 1241 0 
L 628 0 
L 628 4666 
z
" id="DejaVuSans-4d" transform="scale(0.015625)"/>
        <path d="M 2194 1759 
Q 1497 1759 1228 1600 
Q 959 1441 959 1056 
Q 959 750 1161 570 
Q 1363 391 1709 391 
Q 2188 391 2477 730 
Q 2766 1069 2766 1631 
L 2766 1759 
L 2194 1759 
z
M 3341 1997 
L 3341 0 
L 2766 0 
L 2766 531 
Q 2569 213 2275 61 
Q 1981 -91 1556 -91 
Q 1019 -91 701 211 
Q 384 513 384 1019 
Q 384 1609 779 1909 
Q 1175 2209 1959 2209 
L 2766 2209 
L 2766 2266 
Q 2766 2663 2505 2880 
Q 2244 3097 1772 3097 
Q 1472 3097 1187 3025 
Q 903 2953 641 2809 
L 641 3341 
Q 956 3463 1253 3523 
Q 1550 3584 1831 3584 
Q 2591 3584 2966 3190 
Q 3341 2797 3341 1997 
z
" id="DejaVuSans-61" transform="scale(0.015625)"/>
        <path d="M 2059 -325 
Q 1816 -950 1584 -1140 
Q 1353 -1331 966 -1331 
L 506 -1331 
L 506 -850 
L 844 -850 
Q 1081 -850 1212 -737 
Q 1344 -625 1503 -206 
L 1606 56 
L 191 3500 
L 800 3500 
L 1894 763 
L 2988 3500 
L 3597 3500 
L 2059 -325 
z
" id="DejaVuSans-79" transform="scale(0.015625)"/>
       </defs>
       <use xlink:href="#DejaVuSans-4d"/>
       <use x="86.279297" xlink:href="#DejaVuSans-61"/>
       <use x="147.558594" xlink:href="#DejaVuSans-79"/>
      </g>
     </g>
    </g>
    <g id="xtick_2">
     <g id="line2d_3">
      <path clip-path="url(#p8faf7b566f)" d="M 71.442889 319.04 
L 71.442889 26.16 
" style="fill:none;stroke:#000000;stroke-dasharray:0.8,1.32;stroke-dashoffset:0;stroke-opacity:0.5;stroke-width:0.8;"/>
     </g>
     <g id="line2d_4">
      <g>
       <use style="stroke:#000000;stroke-width:0.8;" x="71.442889" xlink:href="#md47c1202f7" y="319.04"/>
      </g>
     </g>
     <g id="text_2">
      <!-- 15 -->
      <g transform="translate(65.080389 333.638438)scale(0.1 -0.1)">
       <defs>
        <path d="M 794 531 
L 1825 531 
L 1825 4091 
L 703 3866 
L 703 4441 
L 1819 4666 
L 2450 4666 
L 2450 531 
L 3481 531 
L 3481 0 
L 794 0 
L 794 531 
z
" id="DejaVuSans-31" transform="scale(0.015625)"/>
        <path d="M 691 4666 
L 3169 4666 
L 3169 4134 
L 1269 4134 
L 1269 2991 
Q 1406 3038 1543 3061 
Q 1681 3084 1819 3084 
Q 2600 3084 3056 2656 
Q 3513 2228 3513 1497 
Q 3513 744 3044 326 
Q 2575 -91 1722 -91 
Q 1428 -91 1123 -41 
Q 819 9 494 109 
L 494 744 
Q 775 591 1075 516 
Q 1375 441 1709 441 
Q 2250 441 2565 725 
Q 2881 1009 2881 1497 
Q 2881 1984 2565 2268 
Q 2250 2553 1709 2553 
Q 1456 2553 1204 2497 
Q 953 2441 691 2322 
L 691 4666 
z
" id="DejaVuSans-35" transform="scale(0.015625)"/>
       </defs>
       <use xlink:href="#DejaVuSans-31"/>
       <use x="63.623047" xlink:href="#DejaVuSans-35"/>
      </g>
     </g>
    </g>
    <g id="xtick_3">
     <g id="line2d_5">
      <path clip-path="url(#p8faf7b566f)" d="M 92.489969 319.04 
L 92.489969 26.16 
" style="fill:none;stroke:#000000;stroke-dasharray:0.8,1.32;stroke-dashoffset:0;stroke-opacity:0.5;stroke-width:0.8;"/>
     </g>
     <g id="line2d_6">
      <g>
       <use style="stroke:#000000;stroke-width:0.8;" x="92.489969" xlink:href="#md47c1202f7" y="319.04"/>
      </g>
     </g>
     <g id="text_3">
      <!-- Jun -->
      <g transform="translate(84.677469 333.638438)scale(0.1 -0.1)">
       <defs>
        <path d="M 628 4666 
L 1259 4666 
L 1259 325 
Q 1259 -519 939 -900 
Q 619 -1281 -91 -1281 
L -331 -1281 
L -331 -750 
L -134 -750 
Q 284 -750 456 -515 
Q 628 -281 628 325 
L 628 4666 
z
" id="DejaVuSans-4a" transform="scale(0.015625)"/>
        <path d="M 544 1381 
L 544 3500 
L 1119 3500 
L 1119 1403 
Q 1119 906 1312 657 
Q 1506 409 1894 409 
Q 2359 409 2629 706 
Q 2900 1003 2900 1516 
L 2900 3500 
L 3475 3500 
L 3475 0 
L 2900 0 
L 2900 538 
Q 2691 219 2414 64 
Q 2138 -91 1772 -91 
Q 1169 -91 856 284 
Q 544 659 544 1381 
z
M 1991 3584 
L 1991 3584 
z
" id="DejaVuSans-75" transform="scale(0.015625)"/>
        <path d="M 3513 2113 
L 3513 0 
L 2938 0 
L 2938 2094 
Q 2938 2591 2744 2837 
Q 2550 3084 2163 3084 
Q 1697 3084 1428 2787 
Q 1159 2491 1159 1978 
L 1159 0 
L 581 0 
L 581 3500 
L 1159 3500 
L 1159 2956 
Q 1366 3272 1645 3428 
Q 1925 3584 2291 3584 
Q 2894 3584 3203 3211 
Q 3513 2838 3513 2113 
z
" id="DejaVuSans-6e" transform="scale(0.015625)"/>
       </defs>
       <use xlink:href="#DejaVuSans-4a"/>
       <use x="29.492188" xlink:href="#DejaVuSans-75"/>
       <use x="92.871094" xlink:href="#DejaVuSans-6e"/>
      </g>
     </g>
    </g>
    <g id="xtick_4">
     <g id="line2d_7">
      <path clip-path="url(#p8faf7b566f)" d="M 109.822859 319.04 
L 109.822859 26.16 
" style="fill:none;stroke:#000000;stroke-dasharray:0.8,1.32;stroke-dashoffset:0;stroke-opacity:0.5;stroke-width:0.8;"/>
     </g>
     <g id="line2d_8">
      <g>
       <use style="stroke:#000000;stroke-width:0.8;" x="109.822859" xlink:href="#md47c1202f7" y="319.04"/>
      </g>
     </g>
     <g id="text_4">
      <!-- 15 -->
      <g transform="translate(103.460359 333.638438)scale(0.1 -0.1)">
       <use xlink:href="#DejaVuSans-31"/>
       <use x="63.623047" xlink:href="#DejaVuSans-35"/>
      </g>
     </g>
    </g>
    <g id="xtick_5">
     <g id="line2d_9">
      <path clip-path="url(#p8faf7b566f)" d="M 129.631875 319.04 
L 129.631875 26.16 
" style="fill:none;stroke:#000000;stroke-dasharray:0.8,1.32;stroke-dashoffset:0;stroke-opacity:0.5;stroke-width:0.8;"/>
     </g>
     <g id="line2d_10">
      <g>
       <use style="stroke:#000000;stroke-width:0.8;" x="129.631875" xlink:href="#md47c1202f7" y="319.04"/>
      </g>
     </g>
     <g id="text_5">
      <!-- Jul -->
      <g transform="translate(123.599062 333.638438)scale(0.1 -0.1)">
       <defs>
        <path d="M 603 4863 
L 1178 4863 
L 1178 0 
L 603 0 
L 603 4863 
z
" id="DejaVuSans-6c" transform="scale(0.015625)"/>
       </defs>
       <use xlink:href="#DejaVuSans-4a"/>
       <use x="29.492188" xlink:href="#DejaVuSans-75"/>
       <use x="92.871094" xlink:href="#DejaVuSans-6c"/>
      </g>
     </g>
    </g>
    <g id="xtick_6">
     <g id="line2d_11">
      <path clip-path="url(#p8faf7b566f)" d="M 146.964764 319.04 
L 146.964764 26.16 
" style="fill:none;stroke:#000000;stroke-dasharray:0.8,1.32;stroke-dashoffset:0;stroke-opacity:0.5;stroke-width:0.8;"/>
     </g>
     <g id="line2d_12">
      <g>
       <use style="stroke:#000000;stroke-width:0.8;" x="146.964764" xlink:href="#md47c1202f7" y="319.04"/>
      </g>
     </g>
     <g id="text_6">
      <!-- 15 -->
      <g transform="translate(140.602264 333.638438)scale(0.1 -0.1)">
       <use xlink:href="#DejaVuSans-31"/>
       <use x="63.623047" xlink:href="#DejaVuSans-35"/>
      </g>
     </g>
    </g>
    <g id="xtick_7">
     <g id="line2d_13">
      <path clip-path="url(#p8faf7b566f)" d="M 168.011844 319.04 
L 168.011844 26.16 
" style="fill:none;stroke:#000000;stroke-dasharray:0.8,1.32;stroke-dashoffset:0;stroke-opacity:0.5;stroke-width:0.8;"/>
     </g>
     <g id="line2d_14">
      <g>
       <use style="stroke:#000000;stroke-width:0.8;" x="168.011844" xlink:href="#md47c1202f7" y="319.04"/>
      </g>
     </g>
     <g id="text_7">
      <!-- Aug -->
      <g transform="translate(158.248563 333.638438)scale(0.1 -0.1)">
       <defs>
        <path d="M 2188 4044 
L 1331 1722 
L 3047 1722 
L 2188 4044 
z
M 1831 4666 
L 2547 4666 
L 4325 0 
L 3669 0 
L 3244 1197 
L 1141 1197 
L 716 0 
L 50 0 
L 1831 4666 
z
" id="DejaVuSans-41" transform="scale(0.015625)"/>
        <path d="M 2906 1791 
Q 2906 2416 2648 2759 
Q 2391 3103 1925 3103 
Q 1463 3103 1205 2759 
Q 947 2416 947 1791 
Q 947 1169 1205 825 
Q 1463 481 1925 481 
Q 2391 481 2648 825 
Q 2906 1169 2906 1791 
z
M 3481 434 
Q 3481 -459 3084 -895 
Q 2688 -1331 1869 -1331 
Q 1566 -1331 1297 -1286 
Q 1028 -1241 775 -1147 
L 775 -588 
Q 1028 -725 1275 -790 
Q 1522 -856 1778 -856 
Q 2344 -856 2625 -561 
Q 2906 -266 2906 331 
L 2906 616 
Q 2728 306 2450 153 
Q 2172 0 1784 0 
Q 1141 0 747 490 
Q 353 981 353 1791 
Q 353 2603 747 3093 
Q 1141 3584 1784 3584 
Q 2172 3584 2450 3431 
Q 2728 3278 2906 2969 
L 2906 3500 
L 3481 3500 
L 3481 434 
z
" id="DejaVuSans-67" transform="scale(0.015625)"/>
       </defs>
       <use xlink:href="#DejaVuSans-41"/>
       <use x="68.408203" xlink:href="#DejaVuSans-75"/>
       <use x="131.787109" xlink:href="#DejaVuSans-67"/>
      </g>
     </g>
    </g>
    <g id="xtick_8">
     <g id="line2d_15">
      <path clip-path="url(#p8faf7b566f)" d="M 185.344734 319.04 
L 185.344734 26.16 
" style="fill:none;stroke:#000000;stroke-dasharray:0.8,1.32;stroke-dashoffset:0;stroke-opacity:0.5;stroke-width:0.8;"/>
     </g>
     <g id="line2d_16">
      <g>
       <use style="stroke:#000000;stroke-width:0.8;" x="185.344734" xlink:href="#md47c1202f7" y="319.04"/>
      </g>
     </g>
     <g id="text_8">
      <!-- 15 -->
      <g transform="translate(178.982234 333.638438)scale(0.1 -0.1)">
       <use xlink:href="#DejaVuSans-31"/>
       <use x="63.623047" xlink:href="#DejaVuSans-35"/>
      </g>
     </g>
    </g>
    <g id="xtick_9">
     <g id="line2d_17">
      <path clip-path="url(#p8faf7b566f)" d="M 206.391814 319.04 
L 206.391814 26.16 
" style="fill:none;stroke:#000000;stroke-dasharray:0.8,1.32;stroke-dashoffset:0;stroke-opacity:0.5;stroke-width:0.8;"/>
     </g>
     <g id="line2d_18">
      <g>
       <use style="stroke:#000000;stroke-width:0.8;" x="206.391814" xlink:href="#md47c1202f7" y="319.04"/>
      </g>
     </g>
     <g id="text_9">
      <!-- Sep -->
      <g transform="translate(196.966814 333.638438)scale(0.1 -0.1)">
       <defs>
        <path d="M 3425 4513 
L 3425 3897 
Q 3066 4069 2747 4153 
Q 2428 4238 2131 4238 
Q 1616 4238 1336 4038 
Q 1056 3838 1056 3469 
Q 1056 3159 1242 3001 
Q 1428 2844 1947 2747 
L 2328 2669 
Q 3034 2534 3370 2195 
Q 3706 1856 3706 1288 
Q 3706 609 3251 259 
Q 2797 -91 1919 -91 
Q 1588 -91 1214 -16 
Q 841 59 441 206 
L 441 856 
Q 825 641 1194 531 
Q 1563 422 1919 422 
Q 2459 422 2753 634 
Q 3047 847 3047 1241 
Q 3047 1584 2836 1778 
Q 2625 1972 2144 2069 
L 1759 2144 
Q 1053 2284 737 2584 
Q 422 2884 422 3419 
Q 422 4038 858 4394 
Q 1294 4750 2059 4750 
Q 2388 4750 2728 4690 
Q 3069 4631 3425 4513 
z
" id="DejaVuSans-53" transform="scale(0.015625)"/>
        <path d="M 3597 1894 
L 3597 1613 
L 953 1613 
Q 991 1019 1311 708 
Q 1631 397 2203 397 
Q 2534 397 2845 478 
Q 3156 559 3463 722 
L 3463 178 
Q 3153 47 2828 -22 
Q 2503 -91 2169 -91 
Q 1331 -91 842 396 
Q 353 884 353 1716 
Q 353 2575 817 3079 
Q 1281 3584 2069 3584 
Q 2775 3584 3186 3129 
Q 3597 2675 3597 1894 
z
M 3022 2063 
Q 3016 2534 2758 2815 
Q 2500 3097 2075 3097 
Q 1594 3097 1305 2825 
Q 1016 2553 972 2059 
L 3022 2063 
z
" id="DejaVuSans-65" transform="scale(0.015625)"/>
        <path d="M 1159 525 
L 1159 -1331 
L 581 -1331 
L 581 3500 
L 1159 3500 
L 1159 2969 
Q 1341 3281 1617 3432 
Q 1894 3584 2278 3584 
Q 2916 3584 3314 3078 
Q 3713 2572 3713 1747 
Q 3713 922 3314 415 
Q 2916 -91 2278 -91 
Q 1894 -91 1617 61 
Q 1341 213 1159 525 
z
M 3116 1747 
Q 3116 2381 2855 2742 
Q 2594 3103 2138 3103 
Q 1681 3103 1420 2742 
Q 1159 2381 1159 1747 
Q 1159 1113 1420 752 
Q 1681 391 2138 391 
Q 2594 391 2855 752 
Q 3116 1113 3116 1747 
z
" id="DejaVuSans-70" transform="scale(0.015625)"/>
       </defs>
       <use xlink:href="#DejaVuSans-53"/>
       <use x="63.476562" xlink:href="#DejaVuSans-65"/>
       <use x="125" xlink:href="#DejaVuSans-70"/>
      </g>
     </g>
    </g>
    <g id="xtick_10">
     <g id="line2d_19">
      <path clip-path="url(#p8faf7b566f)" d="M 223.724703 319.04 
L 223.724703 26.16 
" style="fill:none;stroke:#000000;stroke-dasharray:0.8,1.32;stroke-dashoffset:0;stroke-opacity:0.5;stroke-width:0.8;"/>
     </g>
     <g id="line2d_20">
      <g>
       <use style="stroke:#000000;stroke-width:0.8;" x="223.724703" xlink:href="#md47c1202f7" y="319.04"/>
      </g>
     </g>
     <g id="text_10">
      <!-- 15 -->
      <g transform="translate(217.362203 333.638438)scale(0.1 -0.1)">
       <use xlink:href="#DejaVuSans-31"/>
       <use x="63.623047" xlink:href="#DejaVuSans-35"/>
      </g>
     </g>
    </g>
    <g id="xtick_11">
     <g id="line2d_21">
      <path clip-path="url(#p8faf7b566f)" d="M 243.533719 319.04 
L 243.533719 26.16 
" style="fill:none;stroke:#000000;stroke-dasharray:0.8,1.32;stroke-dashoffset:0;stroke-opacity:0.5;stroke-width:0.8;"/>
     </g>
     <g id="line2d_22">
      <g>
       <use style="stroke:#000000;stroke-width:0.8;" x="243.533719" xlink:href="#md47c1202f7" y="319.04"/>
      </g>
     </g>
     <g id="text_11">
      <!-- Oct -->
      <g transform="translate(234.888407 333.638438)scale(0.1 -0.1)">
       <defs>
        <path d="M 2522 4238 
Q 1834 4238 1429 3725 
Q 1025 3213 1025 2328 
Q 1025 1447 1429 934 
Q 1834 422 2522 422 
Q 3209 422 3611 934 
Q 4013 1447 4013 2328 
Q 4013 3213 3611 3725 
Q 3209 4238 2522 4238 
z
M 2522 4750 
Q 3503 4750 4090 4092 
Q 4678 3434 4678 2328 
Q 4678 1225 4090 567 
Q 3503 -91 2522 -91 
Q 1538 -91 948 565 
Q 359 1222 359 2328 
Q 359 3434 948 4092 
Q 1538 4750 2522 4750 
z
" id="DejaVuSans-4f" transform="scale(0.015625)"/>
        <path d="M 3122 3366 
L 3122 2828 
Q 2878 2963 2633 3030 
Q 2388 3097 2138 3097 
Q 1578 3097 1268 2742 
Q 959 2388 959 1747 
Q 959 1106 1268 751 
Q 1578 397 2138 397 
Q 2388 397 2633 464 
Q 2878 531 3122 666 
L 3122 134 
Q 2881 22 2623 -34 
Q 2366 -91 2075 -91 
Q 1284 -91 818 406 
Q 353 903 353 1747 
Q 353 2603 823 3093 
Q 1294 3584 2113 3584 
Q 2378 3584 2631 3529 
Q 2884 3475 3122 3366 
z
" id="DejaVuSans-63" transform="scale(0.015625)"/>
        <path d="M 1172 4494 
L 1172 3500 
L 2356 3500 
L 2356 3053 
L 1172 3053 
L 1172 1153 
Q 1172 725 1289 603 
Q 1406 481 1766 481 
L 2356 481 
L 2356 0 
L 1766 0 
Q 1100 0 847 248 
Q 594 497 594 1153 
L 594 3053 
L 172 3053 
L 172 3500 
L 594 3500 
L 594 4494 
L 1172 4494 
z
" id="DejaVuSans-74" transform="scale(0.015625)"/>
       </defs>
       <use xlink:href="#DejaVuSans-4f"/>
       <use x="78.710938" xlink:href="#DejaVuSans-63"/>
       <use x="133.691406" xlink:href="#DejaVuSans-74"/>
      </g>
     </g>
    </g>
    <g id="xtick_12">
     <g id="line2d_23">
      <path clip-path="url(#p8faf7b566f)" d="M 260.866609 319.04 
L 260.866609 26.16 
" style="fill:none;stroke:#000000;stroke-dasharray:0.8,1.32;stroke-dashoffset:0;stroke-opacity:0.5;stroke-width:0.8;"/>
     </g>
     <g id="line2d_24">
      <g>
       <use style="stroke:#000000;stroke-width:0.8;" x="260.866609" xlink:href="#md47c1202f7" y="319.04"/>
      </g>
     </g>
     <g id="text_12">
      <!-- 15 -->
      <g transform="translate(254.504109 333.638438)scale(0.1 -0.1)">
       <use xlink:href="#DejaVuSans-31"/>
       <use x="63.623047" xlink:href="#DejaVuSans-35"/>
      </g>
     </g>
    </g>
    <g id="xtick_13">
     <g id="line2d_25">
      <path clip-path="url(#p8faf7b566f)" d="M 281.913689 319.04 
L 281.913689 26.16 
" style="fill:none;stroke:#000000;stroke-dasharray:0.8,1.32;stroke-dashoffset:0;stroke-opacity:0.5;stroke-width:0.8;"/>
     </g>
     <g id="line2d_26">
      <g>
       <use style="stroke:#000000;stroke-width:0.8;" x="281.913689" xlink:href="#md47c1202f7" y="319.04"/>
      </g>
     </g>
     <g id="text_13">
      <!-- Nov -->
      <g transform="translate(272.154314 333.638438)scale(0.1 -0.1)">
       <defs>
        <path d="M 628 4666 
L 1478 4666 
L 3547 763 
L 3547 4666 
L 4159 4666 
L 4159 0 
L 3309 0 
L 1241 3903 
L 1241 0 
L 628 0 
L 628 4666 
z
" id="DejaVuSans-4e" transform="scale(0.015625)"/>
        <path d="M 1959 3097 
Q 1497 3097 1228 2736 
Q 959 2375 959 1747 
Q 959 1119 1226 758 
Q 1494 397 1959 397 
Q 2419 397 2687 759 
Q 2956 1122 2956 1747 
Q 2956 2369 2687 2733 
Q 2419 3097 1959 3097 
z
M 1959 3584 
Q 2709 3584 3137 3096 
Q 3566 2609 3566 1747 
Q 3566 888 3137 398 
Q 2709 -91 1959 -91 
Q 1206 -91 779 398 
Q 353 888 353 1747 
Q 353 2609 779 3096 
Q 1206 3584 1959 3584 
z
" id="DejaVuSans-6f" transform="scale(0.015625)"/>
        <path d="M 191 3500 
L 800 3500 
L 1894 563 
L 2988 3500 
L 3597 3500 
L 2284 0 
L 1503 0 
L 191 3500 
z
" id="DejaVuSans-76" transform="scale(0.015625)"/>
       </defs>
       <use xlink:href="#DejaVuSans-4e"/>
       <use x="74.804688" xlink:href="#DejaVuSans-6f"/>
       <use x="135.986328" xlink:href="#DejaVuSans-76"/>
      </g>
     </g>
    </g>
    <g id="xtick_14">
     <g id="line2d_27">
      <path clip-path="url(#p8faf7b566f)" d="M 299.246578 319.04 
L 299.246578 26.16 
" style="fill:none;stroke:#000000;stroke-dasharray:0.8,1.32;stroke-dashoffset:0;stroke-opacity:0.5;stroke-width:0.8;"/>
     </g>
     <g id="line2d_28">
      <g>
       <use style="stroke:#000000;stroke-width:0.8;" x="299.246578" xlink:href="#md47c1202f7" y="319.04"/>
      </g>
     </g>
     <g id="text_14">
      <!-- 15 -->
      <g transform="translate(292.884078 333.638438)scale(0.1 -0.1)">
       <use xlink:href="#DejaVuSans-31"/>
       <use x="63.623047" xlink:href="#DejaVuSans-35"/>
      </g>
     </g>
    </g>
    <g id="xtick_15">
     <g id="line2d_29">
      <path clip-path="url(#p8faf7b566f)" d="M 319.055594 319.04 
L 319.055594 26.16 
" style="fill:none;stroke:#000000;stroke-dasharray:0.8,1.32;stroke-dashoffset:0;stroke-opacity:0.5;stroke-width:0.8;"/>
     </g>
     <g id="line2d_30">
      <g>
       <use style="stroke:#000000;stroke-width:0.8;" x="319.055594" xlink:href="#md47c1202f7" y="319.04"/>
      </g>
     </g>
     <g id="text_15">
      <!-- Dec -->
      <g transform="translate(309.379813 333.638438)scale(0.1 -0.1)">
       <defs>
        <path d="M 1259 4147 
L 1259 519 
L 2022 519 
Q 2988 519 3436 956 
Q 3884 1394 3884 2338 
Q 3884 3275 3436 3711 
Q 2988 4147 2022 4147 
L 1259 4147 
z
M 628 4666 
L 1925 4666 
Q 3281 4666 3915 4102 
Q 4550 3538 4550 2338 
Q 4550 1131 3912 565 
Q 3275 0 1925 0 
L 628 0 
L 628 4666 
z
" id="DejaVuSans-44" transform="scale(0.015625)"/>
       </defs>
       <use xlink:href="#DejaVuSans-44"/>
       <use x="77.001953" xlink:href="#DejaVuSans-65"/>
       <use x="138.525391" xlink:href="#DejaVuSans-63"/>
      </g>
     </g>
    </g>
    <g id="xtick_16">
     <g id="line2d_31">
      <path clip-path="url(#p8faf7b566f)" d="M 336.388484 319.04 
L 336.388484 26.16 
" style="fill:none;stroke:#000000;stroke-dasharray:0.8,1.32;stroke-dashoffset:0;stroke-opacity:0.5;stroke-width:0.8;"/>
     </g>
     <g id="line2d_32">
      <g>
       <use style="stroke:#000000;stroke-width:0.8;" x="336.388484" xlink:href="#md47c1202f7" y="319.04"/>
      </g>
     </g>
     <g id="text_16">
      <!-- 15 -->
      <g transform="translate(330.025984 333.638438)scale(0.1 -0.1)">
       <use xlink:href="#DejaVuSans-31"/>
       <use x="63.623047" xlink:href="#DejaVuSans-35"/>
      </g>
     </g>
    </g>
    <g id="text_17">
     <!-- 2021-Dec -->
     <g transform="translate(307.788125 346.316563)scale(0.1 -0.1)">
      <defs>
       <path d="M 1228 531 
L 3431 531 
L 3431 0 
L 469 0 
L 469 531 
Q 828 903 1448 1529 
Q 2069 2156 2228 2338 
Q 2531 2678 2651 2914 
Q 2772 3150 2772 3378 
Q 2772 3750 2511 3984 
Q 2250 4219 1831 4219 
Q 1534 4219 1204 4116 
Q 875 4013 500 3803 
L 500 4441 
Q 881 4594 1212 4672 
Q 1544 4750 1819 4750 
Q 2544 4750 2975 4387 
Q 3406 4025 3406 3419 
Q 3406 3131 3298 2873 
Q 3191 2616 2906 2266 
Q 2828 2175 2409 1742 
Q 1991 1309 1228 531 
z
" id="DejaVuSans-32" transform="scale(0.015625)"/>
       <path d="M 2034 4250 
Q 1547 4250 1301 3770 
Q 1056 3291 1056 2328 
Q 1056 1369 1301 889 
Q 1547 409 2034 409 
Q 2525 409 2770 889 
Q 3016 1369 3016 2328 
Q 3016 3291 2770 3770 
Q 2525 4250 2034 4250 
z
M 2034 4750 
Q 2819 4750 3233 4129 
Q 3647 3509 3647 2328 
Q 3647 1150 3233 529 
Q 2819 -91 2034 -91 
Q 1250 -91 836 529 
Q 422 1150 422 2328 
Q 422 3509 836 4129 
Q 1250 4750 2034 4750 
z
" id="DejaVuSans-30" transform="scale(0.015625)"/>
       <path d="M 313 2009 
L 1997 2009 
L 1997 1497 
L 313 1497 
L 313 2009 
z
" id="DejaVuSans-2d" transform="scale(0.015625)"/>
      </defs>
      <use xlink:href="#DejaVuSans-32"/>
      <use x="63.623047" xlink:href="#DejaVuSans-30"/>
      <use x="127.246094" xlink:href="#DejaVuSans-32"/>
      <use x="190.869141" xlink:href="#DejaVuSans-31"/>
      <use x="254.492188" xlink:href="#DejaVuSans-2d"/>
      <use x="290.576172" xlink:href="#DejaVuSans-44"/>
      <use x="367.578125" xlink:href="#DejaVuSans-65"/>
      <use x="429.101562" xlink:href="#DejaVuSans-63"/>
     </g>
    </g>
   </g>
   <g id="matplotlib.axis_2">
    <g id="ytick_1">
     <g id="line2d_33">
      <path clip-path="url(#p8faf7b566f)" d="M 54.11 319.04 
L 356.1975 319.04 
" style="fill:none;stroke:#000000;stroke-dasharray:0.8,1.32;stroke-dashoffset:0;stroke-opacity:0.5;stroke-width:0.8;"/>
     </g>
     <g id="line2d_34">
      <defs>
       <path d="M 0 0 
L -3.5 0 
" id="m57cf846ad6" style="stroke:#000000;stroke-width:0.8;"/>
      </defs>
      <g>
       <use style="stroke:#000000;stroke-width:0.8;" x="54.11" xlink:href="#m57cf846ad6" y="319.04"/>
      </g>
     </g>
     <g id="text_18">
      <!-- 0.00 -->
      <g transform="translate(24.844375 322.839219)scale(0.1 -0.1)">
       <defs>
        <path d="M 684 794 
L 1344 794 
L 1344 0 
L 684 0 
L 684 794 
z
" id="DejaVuSans-2e" transform="scale(0.015625)"/>
       </defs>
       <use xlink:href="#DejaVuSans-30"/>
       <use x="63.623047" xlink:href="#DejaVuSans-2e"/>
       <use x="95.410156" xlink:href="#DejaVuSans-30"/>
       <use x="159.033203" xlink:href="#DejaVuSans-30"/>
      </g>
     </g>
    </g>
    <g id="ytick_2">
     <g id="line2d_35">
      <path clip-path="url(#p8faf7b566f)" d="M 54.11 285.758182 
L 356.1975 285.758182 
" style="fill:none;stroke:#000000;stroke-dasharray:0.8,1.32;stroke-dashoffset:0;stroke-opacity:0.5;stroke-width:0.8;"/>
     </g>
     <g id="line2d_36">
      <g>
       <use style="stroke:#000000;stroke-width:0.8;" x="54.11" xlink:href="#m57cf846ad6" y="285.758182"/>
      </g>
     </g>
     <g id="text_19">
      <!-- 0.25 -->
      <g transform="translate(24.844375 289.557401)scale(0.1 -0.1)">
       <use xlink:href="#DejaVuSans-30"/>
       <use x="63.623047" xlink:href="#DejaVuSans-2e"/>
       <use x="95.410156" xlink:href="#DejaVuSans-32"/>
       <use x="159.033203" xlink:href="#DejaVuSans-35"/>
      </g>
     </g>
    </g>
    <g id="ytick_3">
     <g id="line2d_37">
      <path clip-path="url(#p8faf7b566f)" d="M 54.11 252.476364 
L 356.1975 252.476364 
" style="fill:none;stroke:#000000;stroke-dasharray:0.8,1.32;stroke-dashoffset:0;stroke-opacity:0.5;stroke-width:0.8;"/>
     </g>
     <g id="line2d_38">
      <g>
       <use style="stroke:#000000;stroke-width:0.8;" x="54.11" xlink:href="#m57cf846ad6" y="252.476364"/>
      </g>
     </g>
     <g id="text_20">
      <!-- 0.50 -->
      <g transform="translate(24.844375 256.275582)scale(0.1 -0.1)">
       <use xlink:href="#DejaVuSans-30"/>
       <use x="63.623047" xlink:href="#DejaVuSans-2e"/>
       <use x="95.410156" xlink:href="#DejaVuSans-35"/>
       <use x="159.033203" xlink:href="#DejaVuSans-30"/>
      </g>
     </g>
    </g>
    <g id="ytick_4">
     <g id="line2d_39">
      <path clip-path="url(#p8faf7b566f)" d="M 54.11 219.194545 
L 356.1975 219.194545 
" style="fill:none;stroke:#000000;stroke-dasharray:0.8,1.32;stroke-dashoffset:0;stroke-opacity:0.5;stroke-width:0.8;"/>
     </g>
     <g id="line2d_40">
      <g>
       <use style="stroke:#000000;stroke-width:0.8;" x="54.11" xlink:href="#m57cf846ad6" y="219.194545"/>
      </g>
     </g>
     <g id="text_21">
      <!-- 0.75 -->
      <g transform="translate(24.844375 222.993764)scale(0.1 -0.1)">
       <defs>
        <path d="M 525 4666 
L 3525 4666 
L 3525 4397 
L 1831 0 
L 1172 0 
L 2766 4134 
L 525 4134 
L 525 4666 
z
" id="DejaVuSans-37" transform="scale(0.015625)"/>
       </defs>
       <use xlink:href="#DejaVuSans-30"/>
       <use x="63.623047" xlink:href="#DejaVuSans-2e"/>
       <use x="95.410156" xlink:href="#DejaVuSans-37"/>
       <use x="159.033203" xlink:href="#DejaVuSans-35"/>
      </g>
     </g>
    </g>
    <g id="ytick_5">
     <g id="line2d_41">
      <path clip-path="url(#p8faf7b566f)" d="M 54.11 185.912727 
L 356.1975 185.912727 
" style="fill:none;stroke:#000000;stroke-dasharray:0.8,1.32;stroke-dashoffset:0;stroke-opacity:0.5;stroke-width:0.8;"/>
     </g>
     <g id="line2d_42">
      <g>
       <use style="stroke:#000000;stroke-width:0.8;" x="54.11" xlink:href="#m57cf846ad6" y="185.912727"/>
      </g>
     </g>
     <g id="text_22">
      <!-- 1.00 -->
      <g transform="translate(24.844375 189.711946)scale(0.1 -0.1)">
       <use xlink:href="#DejaVuSans-31"/>
       <use x="63.623047" xlink:href="#DejaVuSans-2e"/>
       <use x="95.410156" xlink:href="#DejaVuSans-30"/>
       <use x="159.033203" xlink:href="#DejaVuSans-30"/>
      </g>
     </g>
    </g>
    <g id="ytick_6">
     <g id="line2d_43">
      <path clip-path="url(#p8faf7b566f)" d="M 54.11 152.630909 
L 356.1975 152.630909 
" style="fill:none;stroke:#000000;stroke-dasharray:0.8,1.32;stroke-dashoffset:0;stroke-opacity:0.5;stroke-width:0.8;"/>
     </g>
     <g id="line2d_44">
      <g>
       <use style="stroke:#000000;stroke-width:0.8;" x="54.11" xlink:href="#m57cf846ad6" y="152.630909"/>
      </g>
     </g>
     <g id="text_23">
      <!-- 1.25 -->
      <g transform="translate(24.844375 156.430128)scale(0.1 -0.1)">
       <use xlink:href="#DejaVuSans-31"/>
       <use x="63.623047" xlink:href="#DejaVuSans-2e"/>
       <use x="95.410156" xlink:href="#DejaVuSans-32"/>
       <use x="159.033203" xlink:href="#DejaVuSans-35"/>
      </g>
     </g>
    </g>
    <g id="ytick_7">
     <g id="line2d_45">
      <path clip-path="url(#p8faf7b566f)" d="M 54.11 119.349091 
L 356.1975 119.349091 
" style="fill:none;stroke:#000000;stroke-dasharray:0.8,1.32;stroke-dashoffset:0;stroke-opacity:0.5;stroke-width:0.8;"/>
     </g>
     <g id="line2d_46">
      <g>
       <use style="stroke:#000000;stroke-width:0.8;" x="54.11" xlink:href="#m57cf846ad6" y="119.349091"/>
      </g>
     </g>
     <g id="text_24">
      <!-- 1.50 -->
      <g transform="translate(24.844375 123.14831)scale(0.1 -0.1)">
       <use xlink:href="#DejaVuSans-31"/>
       <use x="63.623047" xlink:href="#DejaVuSans-2e"/>
       <use x="95.410156" xlink:href="#DejaVuSans-35"/>
       <use x="159.033203" xlink:href="#DejaVuSans-30"/>
      </g>
     </g>
    </g>
    <g id="ytick_8">
     <g id="line2d_47">
      <path clip-path="url(#p8faf7b566f)" d="M 54.11 86.067273 
L 356.1975 86.067273 
" style="fill:none;stroke:#000000;stroke-dasharray:0.8,1.32;stroke-dashoffset:0;stroke-opacity:0.5;stroke-width:0.8;"/>
     </g>
     <g id="line2d_48">
      <g>
       <use style="stroke:#000000;stroke-width:0.8;" x="54.11" xlink:href="#m57cf846ad6" y="86.067273"/>
      </g>
     </g>
     <g id="text_25">
      <!-- 1.75 -->
      <g transform="translate(24.844375 89.866491)scale(0.1 -0.1)">
       <use xlink:href="#DejaVuSans-31"/>
       <use x="63.623047" xlink:href="#DejaVuSans-2e"/>
       <use x="95.410156" xlink:href="#DejaVuSans-37"/>
       <use x="159.033203" xlink:href="#DejaVuSans-35"/>
      </g>
     </g>
    </g>
    <g id="ytick_9">
     <g id="line2d_49">
      <path clip-path="url(#p8faf7b566f)" d="M 54.11 52.785455 
L 356.1975 52.785455 
" style="fill:none;stroke:#000000;stroke-dasharray:0.8,1.32;stroke-dashoffset:0;stroke-opacity:0.5;stroke-width:0.8;"/>
     </g>
     <g id="line2d_50">
      <g>
       <use style="stroke:#000000;stroke-width:0.8;" x="54.11" xlink:href="#m57cf846ad6" y="52.785455"/>
      </g>
     </g>
     <g id="text_26">
      <!-- 2.00 -->
      <g transform="translate(24.844375 56.584673)scale(0.1 -0.1)">
       <use xlink:href="#DejaVuSans-32"/>
       <use x="63.623047" xlink:href="#DejaVuSans-2e"/>
       <use x="95.410156" xlink:href="#DejaVuSans-30"/>
       <use x="159.033203" xlink:href="#DejaVuSans-30"/>
      </g>
     </g>
    </g>
    <g id="text_27">
     <!-- 7d avg doses per hundred population per day -->
     <g transform="translate(18.764688 287.0875)rotate(-90)scale(0.1 -0.1)">
      <defs>
       <path d="M 2906 2969 
L 2906 4863 
L 3481 4863 
L 3481 0 
L 2906 0 
L 2906 525 
Q 2725 213 2448 61 
Q 2172 -91 1784 -91 
Q 1150 -91 751 415 
Q 353 922 353 1747 
Q 353 2572 751 3078 
Q 1150 3584 1784 3584 
Q 2172 3584 2448 3432 
Q 2725 3281 2906 2969 
z
M 947 1747 
Q 947 1113 1208 752 
Q 1469 391 1925 391 
Q 2381 391 2643 752 
Q 2906 1113 2906 1747 
Q 2906 2381 2643 2742 
Q 2381 3103 1925 3103 
Q 1469 3103 1208 2742 
Q 947 2381 947 1747 
z
" id="DejaVuSans-64" transform="scale(0.015625)"/>
       <path id="DejaVuSans-20" transform="scale(0.015625)"/>
       <path d="M 2834 3397 
L 2834 2853 
Q 2591 2978 2328 3040 
Q 2066 3103 1784 3103 
Q 1356 3103 1142 2972 
Q 928 2841 928 2578 
Q 928 2378 1081 2264 
Q 1234 2150 1697 2047 
L 1894 2003 
Q 2506 1872 2764 1633 
Q 3022 1394 3022 966 
Q 3022 478 2636 193 
Q 2250 -91 1575 -91 
Q 1294 -91 989 -36 
Q 684 19 347 128 
L 347 722 
Q 666 556 975 473 
Q 1284 391 1588 391 
Q 1994 391 2212 530 
Q 2431 669 2431 922 
Q 2431 1156 2273 1281 
Q 2116 1406 1581 1522 
L 1381 1569 
Q 847 1681 609 1914 
Q 372 2147 372 2553 
Q 372 3047 722 3315 
Q 1072 3584 1716 3584 
Q 2034 3584 2315 3537 
Q 2597 3491 2834 3397 
z
" id="DejaVuSans-73" transform="scale(0.015625)"/>
       <path d="M 2631 2963 
Q 2534 3019 2420 3045 
Q 2306 3072 2169 3072 
Q 1681 3072 1420 2755 
Q 1159 2438 1159 1844 
L 1159 0 
L 581 0 
L 581 3500 
L 1159 3500 
L 1159 2956 
Q 1341 3275 1631 3429 
Q 1922 3584 2338 3584 
Q 2397 3584 2469 3576 
Q 2541 3569 2628 3553 
L 2631 2963 
z
" id="DejaVuSans-72" transform="scale(0.015625)"/>
       <path d="M 3513 2113 
L 3513 0 
L 2938 0 
L 2938 2094 
Q 2938 2591 2744 2837 
Q 2550 3084 2163 3084 
Q 1697 3084 1428 2787 
Q 1159 2491 1159 1978 
L 1159 0 
L 581 0 
L 581 4863 
L 1159 4863 
L 1159 2956 
Q 1366 3272 1645 3428 
Q 1925 3584 2291 3584 
Q 2894 3584 3203 3211 
Q 3513 2838 3513 2113 
z
" id="DejaVuSans-68" transform="scale(0.015625)"/>
       <path d="M 603 3500 
L 1178 3500 
L 1178 0 
L 603 0 
L 603 3500 
z
M 603 4863 
L 1178 4863 
L 1178 4134 
L 603 4134 
L 603 4863 
z
" id="DejaVuSans-69" transform="scale(0.015625)"/>
      </defs>
      <use xlink:href="#DejaVuSans-37"/>
      <use x="63.623047" xlink:href="#DejaVuSans-64"/>
      <use x="127.099609" xlink:href="#DejaVuSans-20"/>
      <use x="158.886719" xlink:href="#DejaVuSans-61"/>
      <use x="220.166016" xlink:href="#DejaVuSans-76"/>
      <use x="279.345703" xlink:href="#DejaVuSans-67"/>
      <use x="342.822266" xlink:href="#DejaVuSans-20"/>
      <use x="374.609375" xlink:href="#DejaVuSans-64"/>
      <use x="438.085938" xlink:href="#DejaVuSans-6f"/>
      <use x="499.267578" xlink:href="#DejaVuSans-73"/>
      <use x="551.367188" xlink:href="#DejaVuSans-65"/>
      <use x="612.890625" xlink:href="#DejaVuSans-73"/>
      <use x="664.990234" xlink:href="#DejaVuSans-20"/>
      <use x="696.777344" xlink:href="#DejaVuSans-70"/>
      <use x="760.253906" xlink:href="#DejaVuSans-65"/>
      <use x="821.777344" xlink:href="#DejaVuSans-72"/>
      <use x="862.890625" xlink:href="#DejaVuSans-20"/>
      <use x="894.677734" xlink:href="#DejaVuSans-68"/>
      <use x="958.056641" xlink:href="#DejaVuSans-75"/>
      <use x="1021.435547" xlink:href="#DejaVuSans-6e"/>
      <use x="1084.814453" xlink:href="#DejaVuSans-64"/>
      <use x="1148.291016" xlink:href="#DejaVuSans-72"/>
      <use x="1187.154297" xlink:href="#DejaVuSans-65"/>
      <use x="1248.677734" xlink:href="#DejaVuSans-64"/>
      <use x="1312.154297" xlink:href="#DejaVuSans-20"/>
      <use x="1343.941406" xlink:href="#DejaVuSans-70"/>
      <use x="1407.417969" xlink:href="#DejaVuSans-6f"/>
      <use x="1468.599609" xlink:href="#DejaVuSans-70"/>
      <use x="1532.076172" xlink:href="#DejaVuSans-75"/>
      <use x="1595.455078" xlink:href="#DejaVuSans-6c"/>
      <use x="1623.238281" xlink:href="#DejaVuSans-61"/>
      <use x="1684.517578" xlink:href="#DejaVuSans-74"/>
      <use x="1723.726562" xlink:href="#DejaVuSans-69"/>
      <use x="1751.509766" xlink:href="#DejaVuSans-6f"/>
      <use x="1812.691406" xlink:href="#DejaVuSans-6e"/>
      <use x="1876.070312" xlink:href="#DejaVuSans-20"/>
      <use x="1907.857422" xlink:href="#DejaVuSans-70"/>
      <use x="1971.333984" xlink:href="#DejaVuSans-65"/>
      <use x="2032.857422" xlink:href="#DejaVuSans-72"/>
      <use x="2073.970703" xlink:href="#DejaVuSans-20"/>
      <use x="2105.757812" xlink:href="#DejaVuSans-64"/>
      <use x="2169.234375" xlink:href="#DejaVuSans-61"/>
      <use x="2230.513672" xlink:href="#DejaVuSans-79"/>
     </g>
    </g>
   </g>
   <g id="line2d_51">
    <path clip-path="url(#p8faf7b566f)" d="M -1 313.265473 
L -0.364795 313.265473 
L -0.364795 312.955126 
L 2.111332 312.898699 
L 2.111332 312.760705 
L 3.349395 312.760705 
L 3.349395 312.55511 
L 4.587459 312.55511 
L 4.587459 312.272418 
L 5.825523 312.272418 
L 5.825523 312.071572 
L 7.063586 312.071572 
L 7.063586 311.608705 
L 8.30165 311.608705 
L 8.30165 311.247797 
L 9.539713 311.247797 
L 9.539713 311.10254 
L 10.777777 311.10254 
L 10.777777 310.512014 
L 12.01584 310.512014 
L 12.01584 310.308095 
L 13.253904 310.308095 
L 13.253904 309.750252 
L 14.491967 309.750252 
L 14.491967 309.215315 
L 15.730031 309.215315 
L 15.730031 308.444615 
L 16.968094 308.444615 
L 16.968094 308.019738 
L 18.206158 308.019738 
L 18.206158 309.182353 
L 19.444221 309.182353 
L 19.444221 310.0944 
L 20.682285 310.0944 
L 20.682285 310.549445 
L 21.920348 310.549445 
L 21.920348 312.074644 
L 24.396475 312.141966 
L 24.396475 312.890319 
L 25.634539 312.890319 
L 25.634539 278.263828 
L 26.872602 278.263828 
L 26.872602 274.815091 
L 28.110666 274.815091 
L 28.110666 272.814733 
L 29.34873 272.814733 
L 29.34873 271.952968 
L 30.586793 271.952968 
L 30.586793 268.581048 
L 31.824857 268.581048 
L 31.824857 266.256097 
L 33.06292 266.256097 
L 33.06292 263.797063 
L 34.300984 263.797063 
L 34.300984 296.572364 
L 36.777111 296.641361 
L 36.777111 297.234959 
L 38.015174 297.234959 
L 38.015174 292.975296 
L 39.253238 292.975296 
L 39.253238 291.966598 
L 40.491301 291.966598 
L 40.491301 291.773294 
L 41.729365 291.773294 
L 41.729365 291.115168 
L 42.967428 291.115168 
L 42.967428 289.717627 
L 45.443555 289.609802 
L 45.443555 289.304483 
L 46.681619 289.304483 
L 46.681619 294.239871 
L 47.919682 294.239871 
L 47.919682 295.594951 
L 49.157746 295.594951 
L 49.157746 295.00247 
L 50.395809 295.00247 
L 50.395809 294.010253 
L 51.633873 294.010253 
L 51.633873 294.675083 
L 52.871936 294.675083 
L 52.871936 294.924255 
L 54.11 294.924255 
L 54.11 295.318684 
L 55.348064 295.318684 
L 55.348064 294.991297 
L 56.586127 294.991297 
L 56.586127 292.951832 
L 57.824191 292.951832 
L 57.824191 291.088072 
L 59.062254 291.088072 
L 59.062254 290.515982 
L 60.300318 290.515982 
L 60.300318 288.348579 
L 61.538381 288.348579 
L 61.538381 286.665553 
L 62.776445 286.665553 
L 62.776445 285.829766 
L 64.014508 285.829766 
L 64.014508 285.569421 
L 65.252572 285.569421 
L 65.252572 284.762406 
L 66.490635 284.762406 
L 66.490635 285.907143 
L 67.728699 285.907143 
L 67.728699 285.668028 
L 68.966762 285.668028 
L 68.966762 286.413588 
L 70.204826 286.413588 
L 70.204826 286.015248 
L 72.680953 286.095977 
L 72.680953 285.772781 
L 73.919016 285.772781 
L 73.919016 285.165774 
L 75.15708 285.165774 
L 75.15708 283.65929 
L 76.395143 283.65929 
L 76.395143 283.221284 
L 77.633207 283.221284 
L 77.633207 281.920116 
L 78.87127 281.920116 
L 78.87127 281.420935 
L 80.109334 281.420935 
L 80.109334 280.999689 
L 81.347398 280.999689 
L 81.347398 280.833761 
L 82.585461 280.833761 
L 82.585461 284.407364 
L 83.823525 284.407364 
L 83.823525 282.916803 
L 85.061588 282.916803 
L 85.061588 281.390207 
L 86.299652 281.390207 
L 86.299652 277.245912 
L 87.537715 277.245912 
L 87.537715 271.179474 
L 88.775779 271.179474 
L 88.775779 266.075085 
L 90.013842 266.075085 
L 90.013842 261.621 
L 91.251906 261.621 
L 91.251906 253.529903 
L 92.489969 253.529903 
L 92.489969 247.7537 
L 93.728033 247.7537 
L 93.728033 242.087557 
L 94.966096 242.087557 
L 94.966096 240.180779 
L 96.20416 240.180779 
L 96.20416 237.766159 
L 97.442223 237.766159 
L 97.442223 233.599237 
L 98.680287 233.599237 
L 98.680287 227.54537 
L 99.91835 227.54537 
L 99.91835 225.065385 
L 101.156414 225.065385 
L 101.156414 226.159282 
L 102.394477 226.159282 
L 102.394477 225.981342 
L 103.632541 225.981342 
L 103.632541 225.304779 
L 104.870605 225.304779 
L 104.870605 227.600958 
L 106.108668 227.600958 
L 106.108668 232.948374 
L 107.346732 232.948374 
L 107.346732 239.97267 
L 108.584795 239.97267 
L 108.584795 250.773371 
L 109.822859 250.773371 
L 109.822859 249.702658 
L 111.060922 249.702658 
L 111.060922 252.743 
L 112.298986 252.743 
L 112.298986 255.681383 
L 113.537049 255.681383 
L 113.537049 257.698222 
L 114.775113 257.698222 
L 114.775113 259.05023 
L 116.013176 259.05023 
L 116.013176 260.407266 
L 117.25124 260.407266 
L 117.25124 253.173464 
L 118.489303 253.173464 
L 118.489303 255.975808 
L 119.727367 255.975808 
L 119.727367 256.579742 
L 120.96543 256.579742 
L 120.96543 257.805488 
L 122.203494 257.805488 
L 122.203494 258.623397 
L 123.441557 258.623397 
L 123.441557 258.819774 
L 124.679621 258.819774 
L 124.679621 258.219192 
L 125.917684 258.219192 
L 125.917684 257.383405 
L 127.155748 257.383405 
L 127.155748 259.047995 
L 129.631875 258.956651 
L 129.631875 258.472554 
L 130.869939 258.472554 
L 130.869939 257.601011 
L 132.108002 257.601011 
L 132.108002 257.124736 
L 134.584129 257.204068 
L 134.584129 256.66969 
L 135.822193 256.66969 
L 135.822193 254.129926 
L 137.060256 254.129926 
L 137.060256 258.187068 
L 138.29832 258.187068 
L 138.29832 259.074253 
L 139.536383 259.074253 
L 139.536383 260.454195 
L 140.774447 260.454195 
L 140.774447 260.229605 
L 143.250574 260.132116 
L 143.250574 260.512577 
L 144.488637 260.512577 
L 144.488637 263.802929 
L 145.726701 263.802929 
L 145.726701 260.598614 
L 146.964764 260.598614 
L 146.964764 259.675952 
L 148.202828 259.675952 
L 148.202828 257.632856 
L 149.440891 257.632856 
L 149.440891 256.328615 
L 150.678955 256.328615 
L 150.678955 255.783343 
L 151.917018 255.783343 
L 151.917018 254.250322 
L 153.155082 254.250322 
L 153.155082 252.899431 
L 154.393145 252.899431 
L 154.393145 249.859089 
L 155.631209 249.859089 
L 155.631209 247.089987 
L 156.869273 247.089987 
L 156.869273 245.706972 
L 158.107336 245.706972 
L 158.107336 244.705536 
L 159.3454 244.705536 
L 159.3454 243.369171 
L 160.583463 243.369171 
L 160.583463 242.583666 
L 161.821527 242.583666 
L 161.821527 240.943378 
L 163.05959 240.943378 
L 163.05959 241.741175 
L 164.297654 241.741175 
L 164.297654 242.178343 
L 165.535717 242.178343 
L 165.535717 241.870789 
L 168.011844 241.913807 
L 168.011844 242.478354 
L 169.249908 242.478354 
L 169.249908 243.345707 
L 170.487971 243.345707 
L 170.487971 243.724492 
L 171.726035 243.724492 
L 171.726035 243.071953 
L 172.964098 243.071953 
L 172.964098 242.289799 
L 174.202162 242.289799 
L 174.202162 240.939188 
L 175.440225 240.939188 
L 175.440225 239.778528 
L 176.678289 239.778528 
L 176.678289 238.181259 
L 177.916352 238.181259 
L 177.916352 234.745371 
L 179.154416 234.745371 
L 179.154416 230.917847 
L 180.39248 230.917847 
L 180.39248 226.54142 
L 181.630543 226.54142 
L 181.630543 222.20382 
L 182.868607 222.20382 
L 182.868607 217.991924 
L 184.10667 217.991924 
L 184.10667 215.085386 
L 185.344734 215.085386 
L 185.344734 209.601271 
L 186.582797 209.601271 
L 186.582797 202.954635 
L 187.820861 202.954635 
L 187.820861 200.3051 
L 189.058924 200.3051 
L 189.058924 197.948282 
L 190.296988 197.948282 
L 190.296988 195.78967 
L 191.535051 195.78967 
L 191.535051 193.875773 
L 192.773115 193.875773 
L 192.773115 191.76649 
L 194.011178 191.76649 
L 194.011178 194.2957 
L 195.249242 194.2957 
L 195.249242 197.662667 
L 196.487305 197.662667 
L 196.487305 194.713867 
L 197.725369 194.713867 
L 197.725369 191.700733 
L 198.963432 191.700733 
L 198.963432 197.298871 
L 200.201496 197.298871 
L 200.201496 197.298871 
" style="fill:none;stroke:#1f77b4;stroke-linecap:square;stroke-width:1.5;"/>
   </g>
   <g id="line2d_52">
    <path clip-path="url(#p8faf7b566f)" d="M 200.201496 185.912727 
L 205.15375 185.912727 
L 205.15375 159.287273 
L 242.295656 159.287273 
L 242.295656 132.661818 
L 293.05626 132.661818 
L 293.05626 319.04 
L 447.814201 319.04 
L 447.814201 319.04 
" style="fill:none;stroke:#ff7f0e;stroke-linecap:square;stroke-width:1.5;"/>
   </g>
   <g id="patch_3">
    <path d="M 54.11 319.04 
L 54.11 26.16 
" style="fill:none;stroke:#000000;stroke-linecap:square;stroke-linejoin:miter;stroke-width:0.8;"/>
   </g>
   <g id="patch_4">
    <path d="M 356.1975 319.04 
L 356.1975 26.16 
" style="fill:none;stroke:#000000;stroke-linecap:square;stroke-linejoin:miter;stroke-width:0.8;"/>
   </g>
   <g id="patch_5">
    <path d="M 54.11 319.04 
L 356.1975 319.04 
" style="fill:none;stroke:#000000;stroke-linecap:square;stroke-linejoin:miter;stroke-width:0.8;"/>
   </g>
   <g id="patch_6">
    <path d="M 54.11 26.16 
L 356.1975 26.16 
" style="fill:none;stroke:#000000;stroke-linecap:square;stroke-linejoin:miter;stroke-width:0.8;"/>
   </g>
   <g id="text_28">
    <!-- VIC daily vaccinations per capita -->
    <g transform="translate(107.051875 20.16)scale(0.12 -0.12)">
     <defs>
      <path d="M 1831 0 
L 50 4666 
L 709 4666 
L 2188 738 
L 3669 4666 
L 4325 4666 
L 2547 0 
L 1831 0 
z
" id="DejaVuSans-56" transform="scale(0.015625)"/>
      <path d="M 628 4666 
L 1259 4666 
L 1259 0 
L 628 0 
L 628 4666 
z
" id="DejaVuSans-49" transform="scale(0.015625)"/>
      <path d="M 4122 4306 
L 4122 3641 
Q 3803 3938 3442 4084 
Q 3081 4231 2675 4231 
Q 1875 4231 1450 3742 
Q 1025 3253 1025 2328 
Q 1025 1406 1450 917 
Q 1875 428 2675 428 
Q 3081 428 3442 575 
Q 3803 722 4122 1019 
L 4122 359 
Q 3791 134 3420 21 
Q 3050 -91 2638 -91 
Q 1578 -91 968 557 
Q 359 1206 359 2328 
Q 359 3453 968 4101 
Q 1578 4750 2638 4750 
Q 3056 4750 3426 4639 
Q 3797 4528 4122 4306 
z
" id="DejaVuSans-43" transform="scale(0.015625)"/>
     </defs>
     <use xlink:href="#DejaVuSans-56"/>
     <use x="68.408203" xlink:href="#DejaVuSans-49"/>
     <use x="97.900391" xlink:href="#DejaVuSans-43"/>
     <use x="167.724609" xlink:href="#DejaVuSans-20"/>
     <use x="199.511719" xlink:href="#DejaVuSans-64"/>
     <use x="262.988281" xlink:href="#DejaVuSans-61"/>
     <use x="324.267578" xlink:href="#DejaVuSans-69"/>
     <use x="352.050781" xlink:href="#DejaVuSans-6c"/>
     <use x="379.833984" xlink:href="#DejaVuSans-79"/>
     <use x="439.013672" xlink:href="#DejaVuSans-20"/>
     <use x="470.800781" xlink:href="#DejaVuSans-76"/>
     <use x="529.980469" xlink:href="#DejaVuSans-61"/>
     <use x="591.259766" xlink:href="#DejaVuSans-63"/>
     <use x="646.240234" xlink:href="#DejaVuSans-63"/>
     <use x="701.220703" xlink:href="#DejaVuSans-69"/>
     <use x="729.003906" xlink:href="#DejaVuSans-6e"/>
     <use x="792.382812" xlink:href="#DejaVuSans-61"/>
     <use x="853.662109" xlink:href="#DejaVuSans-74"/>
     <use x="892.871094" xlink:href="#DejaVuSans-69"/>
     <use x="920.654297" xlink:href="#DejaVuSans-6f"/>
     <use x="981.835938" xlink:href="#DejaVuSans-6e"/>
     <use x="1045.214844" xlink:href="#DejaVuSans-73"/>
     <use x="1097.314453" xlink:href="#DejaVuSans-20"/>
     <use x="1129.101562" xlink:href="#DejaVuSans-70"/>
     <use x="1192.578125" xlink:href="#DejaVuSans-65"/>
     <use x="1254.101562" xlink:href="#DejaVuSans-72"/>
     <use x="1295.214844" xlink:href="#DejaVuSans-20"/>
     <use x="1327.001953" xlink:href="#DejaVuSans-63"/>
     <use x="1381.982422" xlink:href="#DejaVuSans-61"/>
     <use x="1443.261719" xlink:href="#DejaVuSans-70"/>
     <use x="1506.738281" xlink:href="#DejaVuSans-69"/>
     <use x="1534.521484" xlink:href="#DejaVuSans-74"/>
     <use x="1573.730469" xlink:href="#DejaVuSans-61"/>
    </g>
   </g>
   <g id="legend_1">
    <g id="patch_7">
     <path d="M 201.314687 63.51625 
L 349.1975 63.51625 
Q 351.1975 63.51625 351.1975 61.51625 
L 351.1975 33.16 
Q 351.1975 31.16 349.1975 31.16 
L 201.314687 31.16 
Q 199.314687 31.16 199.314687 33.16 
L 199.314687 61.51625 
Q 199.314687 63.51625 201.314687 63.51625 
z
" style="fill:#ffffff;opacity:0.8;stroke:#cccccc;stroke-linejoin:miter;"/>
    </g>
    <g id="line2d_53">
     <path d="M 203.314687 39.258437 
L 223.314687 39.258437 
" style="fill:none;stroke:#1f77b4;stroke-linecap:square;stroke-width:1.5;"/>
    </g>
    <g id="line2d_54"/>
    <g id="text_29">
     <!-- Actual -->
     <g transform="translate(231.314687 42.758437)scale(0.1 -0.1)">
      <use xlink:href="#DejaVuSans-41"/>
      <use x="66.658203" xlink:href="#DejaVuSans-63"/>
      <use x="121.638672" xlink:href="#DejaVuSans-74"/>
      <use x="160.847656" xlink:href="#DejaVuSans-75"/>
      <use x="224.226562" xlink:href="#DejaVuSans-61"/>
      <use x="285.505859" xlink:href="#DejaVuSans-6c"/>
     </g>
    </g>
    <g id="line2d_55">
     <path d="M 203.314687 53.936562 
L 223.314687 53.936562 
" style="fill:none;stroke:#ff7f0e;stroke-linecap:square;stroke-width:1.5;"/>
    </g>
    <g id="line2d_56"/>
    <g id="text_30">
     <!-- Assumed for projection -->
     <g transform="translate(231.314687 57.436562)scale(0.1 -0.1)">
      <defs>
       <path d="M 3328 2828 
Q 3544 3216 3844 3400 
Q 4144 3584 4550 3584 
Q 5097 3584 5394 3201 
Q 5691 2819 5691 2113 
L 5691 0 
L 5113 0 
L 5113 2094 
Q 5113 2597 4934 2840 
Q 4756 3084 4391 3084 
Q 3944 3084 3684 2787 
Q 3425 2491 3425 1978 
L 3425 0 
L 2847 0 
L 2847 2094 
Q 2847 2600 2669 2842 
Q 2491 3084 2119 3084 
Q 1678 3084 1418 2786 
Q 1159 2488 1159 1978 
L 1159 0 
L 581 0 
L 581 3500 
L 1159 3500 
L 1159 2956 
Q 1356 3278 1631 3431 
Q 1906 3584 2284 3584 
Q 2666 3584 2933 3390 
Q 3200 3197 3328 2828 
z
" id="DejaVuSans-6d" transform="scale(0.015625)"/>
       <path d="M 2375 4863 
L 2375 4384 
L 1825 4384 
Q 1516 4384 1395 4259 
Q 1275 4134 1275 3809 
L 1275 3500 
L 2222 3500 
L 2222 3053 
L 1275 3053 
L 1275 0 
L 697 0 
L 697 3053 
L 147 3053 
L 147 3500 
L 697 3500 
L 697 3744 
Q 697 4328 969 4595 
Q 1241 4863 1831 4863 
L 2375 4863 
z
" id="DejaVuSans-66" transform="scale(0.015625)"/>
       <path d="M 603 3500 
L 1178 3500 
L 1178 -63 
Q 1178 -731 923 -1031 
Q 669 -1331 103 -1331 
L -116 -1331 
L -116 -844 
L 38 -844 
Q 366 -844 484 -692 
Q 603 -541 603 -63 
L 603 3500 
z
M 603 4863 
L 1178 4863 
L 1178 4134 
L 603 4134 
L 603 4863 
z
" id="DejaVuSans-6a" transform="scale(0.015625)"/>
      </defs>
      <use xlink:href="#DejaVuSans-41"/>
      <use x="68.408203" xlink:href="#DejaVuSans-73"/>
      <use x="120.507812" xlink:href="#DejaVuSans-73"/>
      <use x="172.607422" xlink:href="#DejaVuSans-75"/>
      <use x="235.986328" xlink:href="#DejaVuSans-6d"/>
      <use x="333.398438" xlink:href="#DejaVuSans-65"/>
      <use x="394.921875" xlink:href="#DejaVuSans-64"/>
      <use x="458.398438" xlink:href="#DejaVuSans-20"/>
      <use x="490.185547" xlink:href="#DejaVuSans-66"/>
      <use x="525.390625" xlink:href="#DejaVuSans-6f"/>
      <use x="586.572266" xlink:href="#DejaVuSans-72"/>
      <use x="627.685547" xlink:href="#DejaVuSans-20"/>
      <use x="659.472656" xlink:href="#DejaVuSans-70"/>
      <use x="722.949219" xlink:href="#DejaVuSans-72"/>
      <use x="761.8125" xlink:href="#DejaVuSans-6f"/>
      <use x="822.994141" xlink:href="#DejaVuSans-6a"/>
      <use x="850.777344" xlink:href="#DejaVuSans-65"/>
      <use x="912.300781" xlink:href="#DejaVuSans-63"/>
      <use x="967.28125" xlink:href="#DejaVuSans-74"/>
      <use x="1006.490234" xlink:href="#DejaVuSans-69"/>
      <use x="1034.273438" xlink:href="#DejaVuSans-6f"/>
      <use x="1095.455078" xlink:href="#DejaVuSans-6e"/>
     </g>
    </g>
   </g>
  </g>
  <g id="axes_2">
   <g id="patch_8">
    <path d="M 407.1125 319.04 
L 709.2 319.04 
L 709.2 26.16 
L 407.1125 26.16 
z
" style="fill:#ffffff;"/>
   </g>
   <g id="matplotlib.axis_3">
    <g id="xtick_17">
     <g id="line2d_57">
      <path clip-path="url(#pa1555a5687)" d="M 407.1125 319.04 
L 407.1125 26.16 
" style="fill:none;stroke:#000000;stroke-dasharray:0.8,1.32;stroke-dashoffset:0;stroke-opacity:0.5;stroke-width:0.8;"/>
     </g>
     <g id="line2d_58">
      <g>
       <use style="stroke:#000000;stroke-width:0.8;" x="407.1125" xlink:href="#md47c1202f7" y="319.04"/>
      </g>
     </g>
     <g id="text_31">
      <!-- May -->
      <g transform="translate(396.775 333.638438)scale(0.1 -0.1)">
       <use xlink:href="#DejaVuSans-4d"/>
       <use x="86.279297" xlink:href="#DejaVuSans-61"/>
       <use x="147.558594" xlink:href="#DejaVuSans-79"/>
      </g>
     </g>
    </g>
    <g id="xtick_18">
     <g id="line2d_59">
      <path clip-path="url(#pa1555a5687)" d="M 424.445389 319.04 
L 424.445389 26.16 
" style="fill:none;stroke:#000000;stroke-dasharray:0.8,1.32;stroke-dashoffset:0;stroke-opacity:0.5;stroke-width:0.8;"/>
     </g>
     <g id="line2d_60">
      <g>
       <use style="stroke:#000000;stroke-width:0.8;" x="424.445389" xlink:href="#md47c1202f7" y="319.04"/>
      </g>
     </g>
     <g id="text_32">
      <!-- 15 -->
      <g transform="translate(418.082889 333.638438)scale(0.1 -0.1)">
       <use xlink:href="#DejaVuSans-31"/>
       <use x="63.623047" xlink:href="#DejaVuSans-35"/>
      </g>
     </g>
    </g>
    <g id="xtick_19">
     <g id="line2d_61">
      <path clip-path="url(#pa1555a5687)" d="M 445.492469 319.04 
L 445.492469 26.16 
" style="fill:none;stroke:#000000;stroke-dasharray:0.8,1.32;stroke-dashoffset:0;stroke-opacity:0.5;stroke-width:0.8;"/>
     </g>
     <g id="line2d_62">
      <g>
       <use style="stroke:#000000;stroke-width:0.8;" x="445.492469" xlink:href="#md47c1202f7" y="319.04"/>
      </g>
     </g>
     <g id="text_33">
      <!-- Jun -->
      <g transform="translate(437.679969 333.638438)scale(0.1 -0.1)">
       <use xlink:href="#DejaVuSans-4a"/>
       <use x="29.492188" xlink:href="#DejaVuSans-75"/>
       <use x="92.871094" xlink:href="#DejaVuSans-6e"/>
      </g>
     </g>
    </g>
    <g id="xtick_20">
     <g id="line2d_63">
      <path clip-path="url(#pa1555a5687)" d="M 462.825359 319.04 
L 462.825359 26.16 
" style="fill:none;stroke:#000000;stroke-dasharray:0.8,1.32;stroke-dashoffset:0;stroke-opacity:0.5;stroke-width:0.8;"/>
     </g>
     <g id="line2d_64">
      <g>
       <use style="stroke:#000000;stroke-width:0.8;" x="462.825359" xlink:href="#md47c1202f7" y="319.04"/>
      </g>
     </g>
     <g id="text_34">
      <!-- 15 -->
      <g transform="translate(456.462859 333.638438)scale(0.1 -0.1)">
       <use xlink:href="#DejaVuSans-31"/>
       <use x="63.623047" xlink:href="#DejaVuSans-35"/>
      </g>
     </g>
    </g>
    <g id="xtick_21">
     <g id="line2d_65">
      <path clip-path="url(#pa1555a5687)" d="M 482.634375 319.04 
L 482.634375 26.16 
" style="fill:none;stroke:#000000;stroke-dasharray:0.8,1.32;stroke-dashoffset:0;stroke-opacity:0.5;stroke-width:0.8;"/>
     </g>
     <g id="line2d_66">
      <g>
       <use style="stroke:#000000;stroke-width:0.8;" x="482.634375" xlink:href="#md47c1202f7" y="319.04"/>
      </g>
     </g>
     <g id="text_35">
      <!-- Jul -->
      <g transform="translate(476.601563 333.638438)scale(0.1 -0.1)">
       <use xlink:href="#DejaVuSans-4a"/>
       <use x="29.492188" xlink:href="#DejaVuSans-75"/>
       <use x="92.871094" xlink:href="#DejaVuSans-6c"/>
      </g>
     </g>
    </g>
    <g id="xtick_22">
     <g id="line2d_67">
      <path clip-path="url(#pa1555a5687)" d="M 499.967264 319.04 
L 499.967264 26.16 
" style="fill:none;stroke:#000000;stroke-dasharray:0.8,1.32;stroke-dashoffset:0;stroke-opacity:0.5;stroke-width:0.8;"/>
     </g>
     <g id="line2d_68">
      <g>
       <use style="stroke:#000000;stroke-width:0.8;" x="499.967264" xlink:href="#md47c1202f7" y="319.04"/>
      </g>
     </g>
     <g id="text_36">
      <!-- 15 -->
      <g transform="translate(493.604764 333.638438)scale(0.1 -0.1)">
       <use xlink:href="#DejaVuSans-31"/>
       <use x="63.623047" xlink:href="#DejaVuSans-35"/>
      </g>
     </g>
    </g>
    <g id="xtick_23">
     <g id="line2d_69">
      <path clip-path="url(#pa1555a5687)" d="M 521.014344 319.04 
L 521.014344 26.16 
" style="fill:none;stroke:#000000;stroke-dasharray:0.8,1.32;stroke-dashoffset:0;stroke-opacity:0.5;stroke-width:0.8;"/>
     </g>
     <g id="line2d_70">
      <g>
       <use style="stroke:#000000;stroke-width:0.8;" x="521.014344" xlink:href="#md47c1202f7" y="319.04"/>
      </g>
     </g>
     <g id="text_37">
      <!-- Aug -->
      <g transform="translate(511.251063 333.638438)scale(0.1 -0.1)">
       <use xlink:href="#DejaVuSans-41"/>
       <use x="68.408203" xlink:href="#DejaVuSans-75"/>
       <use x="131.787109" xlink:href="#DejaVuSans-67"/>
      </g>
     </g>
    </g>
    <g id="xtick_24">
     <g id="line2d_71">
      <path clip-path="url(#pa1555a5687)" d="M 538.347234 319.04 
L 538.347234 26.16 
" style="fill:none;stroke:#000000;stroke-dasharray:0.8,1.32;stroke-dashoffset:0;stroke-opacity:0.5;stroke-width:0.8;"/>
     </g>
     <g id="line2d_72">
      <g>
       <use style="stroke:#000000;stroke-width:0.8;" x="538.347234" xlink:href="#md47c1202f7" y="319.04"/>
      </g>
     </g>
     <g id="text_38">
      <!-- 15 -->
      <g transform="translate(531.984734 333.638438)scale(0.1 -0.1)">
       <use xlink:href="#DejaVuSans-31"/>
       <use x="63.623047" xlink:href="#DejaVuSans-35"/>
      </g>
     </g>
    </g>
    <g id="xtick_25">
     <g id="line2d_73">
      <path clip-path="url(#pa1555a5687)" d="M 559.394314 319.04 
L 559.394314 26.16 
" style="fill:none;stroke:#000000;stroke-dasharray:0.8,1.32;stroke-dashoffset:0;stroke-opacity:0.5;stroke-width:0.8;"/>
     </g>
     <g id="line2d_74">
      <g>
       <use style="stroke:#000000;stroke-width:0.8;" x="559.394314" xlink:href="#md47c1202f7" y="319.04"/>
      </g>
     </g>
     <g id="text_39">
      <!-- Sep -->
      <g transform="translate(549.969314 333.638438)scale(0.1 -0.1)">
       <use xlink:href="#DejaVuSans-53"/>
       <use x="63.476562" xlink:href="#DejaVuSans-65"/>
       <use x="125" xlink:href="#DejaVuSans-70"/>
      </g>
     </g>
    </g>
    <g id="xtick_26">
     <g id="line2d_75">
      <path clip-path="url(#pa1555a5687)" d="M 576.727203 319.04 
L 576.727203 26.16 
" style="fill:none;stroke:#000000;stroke-dasharray:0.8,1.32;stroke-dashoffset:0;stroke-opacity:0.5;stroke-width:0.8;"/>
     </g>
     <g id="line2d_76">
      <g>
       <use style="stroke:#000000;stroke-width:0.8;" x="576.727203" xlink:href="#md47c1202f7" y="319.04"/>
      </g>
     </g>
     <g id="text_40">
      <!-- 15 -->
      <g transform="translate(570.364703 333.638438)scale(0.1 -0.1)">
       <use xlink:href="#DejaVuSans-31"/>
       <use x="63.623047" xlink:href="#DejaVuSans-35"/>
      </g>
     </g>
    </g>
    <g id="xtick_27">
     <g id="line2d_77">
      <path clip-path="url(#pa1555a5687)" d="M 596.536219 319.04 
L 596.536219 26.16 
" style="fill:none;stroke:#000000;stroke-dasharray:0.8,1.32;stroke-dashoffset:0;stroke-opacity:0.5;stroke-width:0.8;"/>
     </g>
     <g id="line2d_78">
      <g>
       <use style="stroke:#000000;stroke-width:0.8;" x="596.536219" xlink:href="#md47c1202f7" y="319.04"/>
      </g>
     </g>
     <g id="text_41">
      <!-- Oct -->
      <g transform="translate(587.890907 333.638438)scale(0.1 -0.1)">
       <use xlink:href="#DejaVuSans-4f"/>
       <use x="78.710938" xlink:href="#DejaVuSans-63"/>
       <use x="133.691406" xlink:href="#DejaVuSans-74"/>
      </g>
     </g>
    </g>
    <g id="xtick_28">
     <g id="line2d_79">
      <path clip-path="url(#pa1555a5687)" d="M 613.869109 319.04 
L 613.869109 26.16 
" style="fill:none;stroke:#000000;stroke-dasharray:0.8,1.32;stroke-dashoffset:0;stroke-opacity:0.5;stroke-width:0.8;"/>
     </g>
     <g id="line2d_80">
      <g>
       <use style="stroke:#000000;stroke-width:0.8;" x="613.869109" xlink:href="#md47c1202f7" y="319.04"/>
      </g>
     </g>
     <g id="text_42">
      <!-- 15 -->
      <g transform="translate(607.506609 333.638438)scale(0.1 -0.1)">
       <use xlink:href="#DejaVuSans-31"/>
       <use x="63.623047" xlink:href="#DejaVuSans-35"/>
      </g>
     </g>
    </g>
    <g id="xtick_29">
     <g id="line2d_81">
      <path clip-path="url(#pa1555a5687)" d="M 634.916189 319.04 
L 634.916189 26.16 
" style="fill:none;stroke:#000000;stroke-dasharray:0.8,1.32;stroke-dashoffset:0;stroke-opacity:0.5;stroke-width:0.8;"/>
     </g>
     <g id="line2d_82">
      <g>
       <use style="stroke:#000000;stroke-width:0.8;" x="634.916189" xlink:href="#md47c1202f7" y="319.04"/>
      </g>
     </g>
     <g id="text_43">
      <!-- Nov -->
      <g transform="translate(625.156814 333.638438)scale(0.1 -0.1)">
       <use xlink:href="#DejaVuSans-4e"/>
       <use x="74.804688" xlink:href="#DejaVuSans-6f"/>
       <use x="135.986328" xlink:href="#DejaVuSans-76"/>
      </g>
     </g>
    </g>
    <g id="xtick_30">
     <g id="line2d_83">
      <path clip-path="url(#pa1555a5687)" d="M 652.249078 319.04 
L 652.249078 26.16 
" style="fill:none;stroke:#000000;stroke-dasharray:0.8,1.32;stroke-dashoffset:0;stroke-opacity:0.5;stroke-width:0.8;"/>
     </g>
     <g id="line2d_84">
      <g>
       <use style="stroke:#000000;stroke-width:0.8;" x="652.249078" xlink:href="#md47c1202f7" y="319.04"/>
      </g>
     </g>
     <g id="text_44">
      <!-- 15 -->
      <g transform="translate(645.886578 333.638438)scale(0.1 -0.1)">
       <use xlink:href="#DejaVuSans-31"/>
       <use x="63.623047" xlink:href="#DejaVuSans-35"/>
      </g>
     </g>
    </g>
    <g id="xtick_31">
     <g id="line2d_85">
      <path clip-path="url(#pa1555a5687)" d="M 672.058094 319.04 
L 672.058094 26.16 
" style="fill:none;stroke:#000000;stroke-dasharray:0.8,1.32;stroke-dashoffset:0;stroke-opacity:0.5;stroke-width:0.8;"/>
     </g>
     <g id="line2d_86">
      <g>
       <use style="stroke:#000000;stroke-width:0.8;" x="672.058094" xlink:href="#md47c1202f7" y="319.04"/>
      </g>
     </g>
     <g id="text_45">
      <!-- Dec -->
      <g transform="translate(662.382313 333.638438)scale(0.1 -0.1)">
       <use xlink:href="#DejaVuSans-44"/>
       <use x="77.001953" xlink:href="#DejaVuSans-65"/>
       <use x="138.525391" xlink:href="#DejaVuSans-63"/>
      </g>
     </g>
    </g>
    <g id="xtick_32">
     <g id="line2d_87">
      <path clip-path="url(#pa1555a5687)" d="M 689.390984 319.04 
L 689.390984 26.16 
" style="fill:none;stroke:#000000;stroke-dasharray:0.8,1.32;stroke-dashoffset:0;stroke-opacity:0.5;stroke-width:0.8;"/>
     </g>
     <g id="line2d_88">
      <g>
       <use style="stroke:#000000;stroke-width:0.8;" x="689.390984" xlink:href="#md47c1202f7" y="319.04"/>
      </g>
     </g>
     <g id="text_46">
      <!-- 15 -->
      <g transform="translate(683.028484 333.638438)scale(0.1 -0.1)">
       <use xlink:href="#DejaVuSans-31"/>
       <use x="63.623047" xlink:href="#DejaVuSans-35"/>
      </g>
     </g>
    </g>
    <g id="text_47">
     <!-- 2021-Dec -->
     <g transform="translate(660.790625 346.316563)scale(0.1 -0.1)">
      <use xlink:href="#DejaVuSans-32"/>
      <use x="63.623047" xlink:href="#DejaVuSans-30"/>
      <use x="127.246094" xlink:href="#DejaVuSans-32"/>
      <use x="190.869141" xlink:href="#DejaVuSans-31"/>
      <use x="254.492188" xlink:href="#DejaVuSans-2d"/>
      <use x="290.576172" xlink:href="#DejaVuSans-44"/>
      <use x="367.578125" xlink:href="#DejaVuSans-65"/>
      <use x="429.101562" xlink:href="#DejaVuSans-63"/>
     </g>
    </g>
   </g>
   <g id="matplotlib.axis_4">
    <g id="ytick_10">
     <g id="line2d_89">
      <path clip-path="url(#pa1555a5687)" d="M 407.1125 319.04 
L 709.2 319.04 
" style="fill:none;stroke:#000000;stroke-dasharray:0.8,1.32;stroke-dashoffset:0;stroke-opacity:0.5;stroke-width:0.8;"/>
     </g>
     <g id="line2d_90">
      <g>
       <use style="stroke:#000000;stroke-width:0.8;" x="407.1125" xlink:href="#m57cf846ad6" y="319.04"/>
      </g>
     </g>
     <g id="text_48">
      <!-- 0 -->
      <g transform="translate(393.75 322.839219)scale(0.1 -0.1)">
       <use xlink:href="#DejaVuSans-30"/>
      </g>
     </g>
    </g>
    <g id="ytick_11">
     <g id="line2d_91">
      <path clip-path="url(#pa1555a5687)" d="M 407.1125 282.43 
L 709.2 282.43 
" style="fill:none;stroke:#000000;stroke-dasharray:0.8,1.32;stroke-dashoffset:0;stroke-opacity:0.5;stroke-width:0.8;"/>
     </g>
     <g id="line2d_92">
      <g>
       <use style="stroke:#000000;stroke-width:0.8;" x="407.1125" xlink:href="#m57cf846ad6" y="282.43"/>
      </g>
     </g>
     <g id="text_49">
      <!-- 25 -->
      <g transform="translate(387.3875 286.229219)scale(0.1 -0.1)">
       <use xlink:href="#DejaVuSans-32"/>
       <use x="63.623047" xlink:href="#DejaVuSans-35"/>
      </g>
     </g>
    </g>
    <g id="ytick_12">
     <g id="line2d_93">
      <path clip-path="url(#pa1555a5687)" d="M 407.1125 245.82 
L 709.2 245.82 
" style="fill:none;stroke:#000000;stroke-dasharray:0.8,1.32;stroke-dashoffset:0;stroke-opacity:0.5;stroke-width:0.8;"/>
     </g>
     <g id="line2d_94">
      <g>
       <use style="stroke:#000000;stroke-width:0.8;" x="407.1125" xlink:href="#m57cf846ad6" y="245.82"/>
      </g>
     </g>
     <g id="text_50">
      <!-- 50 -->
      <g transform="translate(387.3875 249.619219)scale(0.1 -0.1)">
       <use xlink:href="#DejaVuSans-35"/>
       <use x="63.623047" xlink:href="#DejaVuSans-30"/>
      </g>
     </g>
    </g>
    <g id="ytick_13">
     <g id="line2d_95">
      <path clip-path="url(#pa1555a5687)" d="M 407.1125 209.21 
L 709.2 209.21 
" style="fill:none;stroke:#000000;stroke-dasharray:0.8,1.32;stroke-dashoffset:0;stroke-opacity:0.5;stroke-width:0.8;"/>
     </g>
     <g id="line2d_96">
      <g>
       <use style="stroke:#000000;stroke-width:0.8;" x="407.1125" xlink:href="#m57cf846ad6" y="209.21"/>
      </g>
     </g>
     <g id="text_51">
      <!-- 75 -->
      <g transform="translate(387.3875 213.009219)scale(0.1 -0.1)">
       <use xlink:href="#DejaVuSans-37"/>
       <use x="63.623047" xlink:href="#DejaVuSans-35"/>
      </g>
     </g>
    </g>
    <g id="ytick_14">
     <g id="line2d_97">
      <path clip-path="url(#pa1555a5687)" d="M 407.1125 172.6 
L 709.2 172.6 
" style="fill:none;stroke:#000000;stroke-dasharray:0.8,1.32;stroke-dashoffset:0;stroke-opacity:0.5;stroke-width:0.8;"/>
     </g>
     <g id="line2d_98">
      <g>
       <use style="stroke:#000000;stroke-width:0.8;" x="407.1125" xlink:href="#m57cf846ad6" y="172.6"/>
      </g>
     </g>
     <g id="text_52">
      <!-- 100 -->
      <g transform="translate(381.025 176.399219)scale(0.1 -0.1)">
       <use xlink:href="#DejaVuSans-31"/>
       <use x="63.623047" xlink:href="#DejaVuSans-30"/>
       <use x="127.246094" xlink:href="#DejaVuSans-30"/>
      </g>
     </g>
    </g>
    <g id="ytick_15">
     <g id="line2d_99">
      <path clip-path="url(#pa1555a5687)" d="M 407.1125 135.99 
L 709.2 135.99 
" style="fill:none;stroke:#000000;stroke-dasharray:0.8,1.32;stroke-dashoffset:0;stroke-opacity:0.5;stroke-width:0.8;"/>
     </g>
     <g id="line2d_100">
      <g>
       <use style="stroke:#000000;stroke-width:0.8;" x="407.1125" xlink:href="#m57cf846ad6" y="135.99"/>
      </g>
     </g>
     <g id="text_53">
      <!-- 125 -->
      <g transform="translate(381.025 139.789219)scale(0.1 -0.1)">
       <use xlink:href="#DejaVuSans-31"/>
       <use x="63.623047" xlink:href="#DejaVuSans-32"/>
       <use x="127.246094" xlink:href="#DejaVuSans-35"/>
      </g>
     </g>
    </g>
    <g id="ytick_16">
     <g id="line2d_101">
      <path clip-path="url(#pa1555a5687)" d="M 407.1125 99.38 
L 709.2 99.38 
" style="fill:none;stroke:#000000;stroke-dasharray:0.8,1.32;stroke-dashoffset:0;stroke-opacity:0.5;stroke-width:0.8;"/>
     </g>
     <g id="line2d_102">
      <g>
       <use style="stroke:#000000;stroke-width:0.8;" x="407.1125" xlink:href="#m57cf846ad6" y="99.38"/>
      </g>
     </g>
     <g id="text_54">
      <!-- 150 -->
      <g transform="translate(381.025 103.179219)scale(0.1 -0.1)">
       <use xlink:href="#DejaVuSans-31"/>
       <use x="63.623047" xlink:href="#DejaVuSans-35"/>
       <use x="127.246094" xlink:href="#DejaVuSans-30"/>
      </g>
     </g>
    </g>
    <g id="ytick_17">
     <g id="line2d_103">
      <path clip-path="url(#pa1555a5687)" d="M 407.1125 62.77 
L 709.2 62.77 
" style="fill:none;stroke:#000000;stroke-dasharray:0.8,1.32;stroke-dashoffset:0;stroke-opacity:0.5;stroke-width:0.8;"/>
     </g>
     <g id="line2d_104">
      <g>
       <use style="stroke:#000000;stroke-width:0.8;" x="407.1125" xlink:href="#m57cf846ad6" y="62.77"/>
      </g>
     </g>
     <g id="text_55">
      <!-- 175 -->
      <g transform="translate(381.025 66.569219)scale(0.1 -0.1)">
       <use xlink:href="#DejaVuSans-31"/>
       <use x="63.623047" xlink:href="#DejaVuSans-37"/>
       <use x="127.246094" xlink:href="#DejaVuSans-35"/>
      </g>
     </g>
    </g>
    <g id="ytick_18">
     <g id="line2d_105">
      <path clip-path="url(#pa1555a5687)" d="M 407.1125 26.16 
L 709.2 26.16 
" style="fill:none;stroke:#000000;stroke-dasharray:0.8,1.32;stroke-dashoffset:0;stroke-opacity:0.5;stroke-width:0.8;"/>
     </g>
     <g id="line2d_106">
      <g>
       <use style="stroke:#000000;stroke-width:0.8;" x="407.1125" xlink:href="#m57cf846ad6" y="26.16"/>
      </g>
     </g>
     <g id="text_56">
      <!-- 200 -->
      <g transform="translate(381.025 29.959219)scale(0.1 -0.1)">
       <use xlink:href="#DejaVuSans-32"/>
       <use x="63.623047" xlink:href="#DejaVuSans-30"/>
       <use x="127.246094" xlink:href="#DejaVuSans-30"/>
      </g>
     </g>
    </g>
    <g id="text_57">
     <!-- cumulative doses per hundred population -->
     <g transform="translate(374.945313 277.058594)rotate(-90)scale(0.1 -0.1)">
      <use xlink:href="#DejaVuSans-63"/>
      <use x="54.980469" xlink:href="#DejaVuSans-75"/>
      <use x="118.359375" xlink:href="#DejaVuSans-6d"/>
      <use x="215.771484" xlink:href="#DejaVuSans-75"/>
      <use x="279.150391" xlink:href="#DejaVuSans-6c"/>
      <use x="306.933594" xlink:href="#DejaVuSans-61"/>
      <use x="368.212891" xlink:href="#DejaVuSans-74"/>
      <use x="407.421875" xlink:href="#DejaVuSans-69"/>
      <use x="435.205078" xlink:href="#DejaVuSans-76"/>
      <use x="494.384766" xlink:href="#DejaVuSans-65"/>
      <use x="555.908203" xlink:href="#DejaVuSans-20"/>
      <use x="587.695312" xlink:href="#DejaVuSans-64"/>
      <use x="651.171875" xlink:href="#DejaVuSans-6f"/>
      <use x="712.353516" xlink:href="#DejaVuSans-73"/>
      <use x="764.453125" xlink:href="#DejaVuSans-65"/>
      <use x="825.976562" xlink:href="#DejaVuSans-73"/>
      <use x="878.076172" xlink:href="#DejaVuSans-20"/>
      <use x="909.863281" xlink:href="#DejaVuSans-70"/>
      <use x="973.339844" xlink:href="#DejaVuSans-65"/>
      <use x="1034.863281" xlink:href="#DejaVuSans-72"/>
      <use x="1075.976562" xlink:href="#DejaVuSans-20"/>
      <use x="1107.763672" xlink:href="#DejaVuSans-68"/>
      <use x="1171.142578" xlink:href="#DejaVuSans-75"/>
      <use x="1234.521484" xlink:href="#DejaVuSans-6e"/>
      <use x="1297.900391" xlink:href="#DejaVuSans-64"/>
      <use x="1361.376953" xlink:href="#DejaVuSans-72"/>
      <use x="1400.240234" xlink:href="#DejaVuSans-65"/>
      <use x="1461.763672" xlink:href="#DejaVuSans-64"/>
      <use x="1525.240234" xlink:href="#DejaVuSans-20"/>
      <use x="1557.027344" xlink:href="#DejaVuSans-70"/>
      <use x="1620.503906" xlink:href="#DejaVuSans-6f"/>
      <use x="1681.685547" xlink:href="#DejaVuSans-70"/>
      <use x="1745.162109" xlink:href="#DejaVuSans-75"/>
      <use x="1808.541016" xlink:href="#DejaVuSans-6c"/>
      <use x="1836.324219" xlink:href="#DejaVuSans-61"/>
      <use x="1897.603516" xlink:href="#DejaVuSans-74"/>
      <use x="1936.8125" xlink:href="#DejaVuSans-69"/>
      <use x="1964.595703" xlink:href="#DejaVuSans-6f"/>
      <use x="2025.777344" xlink:href="#DejaVuSans-6e"/>
     </g>
    </g>
   </g>
   <g id="line2d_107">
    <path clip-path="url(#pa1555a5687)" d="M 314.257736 319.04 
L 332.828689 318.932024 
L 332.828689 318.896404 
L 336.542879 318.805399 
L 336.542879 318.763585 
L 341.495133 318.706736 
L 341.495133 318.645844 
L 343.97126 318.559979 
L 343.97126 318.481879 
L 346.447387 318.388314 
L 346.447387 318.368869 
L 350.161578 318.281112 
L 350.161578 318.202259 
L 352.637705 318.11534 
L 352.637705 318.013343 
L 355.113832 317.915434 
L 355.113832 317.885364 
L 357.589959 317.856498 
L 357.589959 317.760008 
L 360.066086 317.66569 
L 360.066086 317.54313 
L 361.30415 317.54313 
L 361.30415 317.413344 
L 363.780277 317.304249 
L 363.780277 317.228709 
L 366.256404 317.184142 
L 366.256404 317.044697 
L 367.494467 317.044697 
L 367.494467 316.909189 
L 368.732531 316.909189 
L 368.732531 316.727286 
L 369.970594 316.727286 
L 369.970594 316.564784 
L 376.160912 316.508365 
L 376.160912 316.378041 
L 377.398975 316.378041 
L 377.398975 316.25376 
L 378.637039 316.25376 
L 378.637039 313.425018 
L 379.875102 313.425018 
L 379.875102 313.139892 
L 381.113166 313.139892 
L 381.113166 312.980552 
L 383.589293 312.904667 
L 383.589293 312.623026 
L 384.827357 312.623026 
L 384.827357 312.31368 
L 386.06542 312.31368 
L 386.06542 312.000054 
L 387.303484 312.000054 
L 387.303484 311.69501 
L 388.541547 311.69501 
L 388.541547 311.415197 
L 389.779611 311.415197 
L 389.779611 311.301564 
L 391.017674 311.301564 
L 391.017674 310.897685 
L 392.255738 310.897685 
L 392.255738 310.538374 
L 393.493801 310.538374 
L 393.493801 310.214144 
L 394.731865 310.214144 
L 394.731865 309.849842 
L 395.969928 309.849842 
L 395.969928 309.437188 
L 397.207992 309.437188 
L 397.207992 309.149072 
L 398.446055 309.149072 
L 398.446055 309.011929 
L 400.922182 308.988075 
L 400.922182 308.733105 
L 402.160246 308.733105 
L 402.160246 308.363254 
L 403.398309 308.363254 
L 403.398309 307.922552 
L 404.636373 307.922552 
L 404.636373 307.561089 
L 405.874436 307.561089 
L 405.874436 307.292159 
L 408.350564 307.185388 
L 408.350564 307.136325 
L 409.588627 307.136325 
L 409.588627 306.724316 
L 410.826691 306.724316 
L 410.826691 306.210955 
L 412.064754 306.210955 
L 412.064754 305.726202 
L 413.302818 305.726202 
L 413.302818 305.19785 
L 414.540881 305.19785 
L 414.540881 304.799327 
L 415.778945 304.799327 
L 415.778945 304.6282 
L 418.255072 304.55909 
L 418.255072 304.084941 
L 419.493135 304.084941 
L 419.493135 303.659725 
L 420.731199 303.659725 
L 420.731199 303.15656 
L 421.969262 303.15656 
L 421.969262 302.685616 
L 423.207326 302.685616 
L 423.207326 302.256421 
L 424.445389 302.256421 
L 424.445389 302.09151 
L 426.921516 301.997515 
L 426.921516 301.476626 
L 428.15958 301.476626 
L 428.15958 300.935411 
L 429.397643 300.935411 
L 429.397643 300.398519 
L 430.635707 300.398519 
L 430.635707 299.827385 
L 431.87377 299.827385 
L 431.87377 299.359753 
L 433.111834 299.359753 
L 433.111834 299.162406 
L 435.587961 299.055634 
L 435.587961 298.809913 
L 436.826025 298.809913 
L 436.826025 298.153925 
L 438.064088 298.153925 
L 438.064088 297.499485 
L 439.302152 297.499485 
L 439.302152 296.60924 
L 440.540215 296.60924 
L 440.540215 295.674492 
L 441.778279 295.674492 
L 441.778279 295.084107 
L 443.016342 295.084107 
L 443.016342 294.634371 
L 444.254406 294.634371 
L 444.254406 293.765635 
L 445.492469 293.765635 
L 445.492469 292.66488 
L 446.730533 292.66488 
L 446.730533 291.574147 
L 447.968596 291.574147 
L 447.968596 290.53708 
L 449.20666 290.53708 
L 449.20666 289.416407 
L 450.444723 289.416407 
L 450.444723 288.505169 
L 451.682787 288.505169 
L 451.682787 287.589285 
L 452.92085 287.589285 
L 452.92085 286.52959 
L 454.158914 286.52959 
L 454.158914 285.513064 
L 455.396977 285.513064 
L 455.396977 284.40863 
L 456.635041 284.40863 
L 456.635041 283.319468 
L 457.873105 283.319468 
L 457.873105 282.375601 
L 459.111168 282.375601 
L 459.111168 281.876113 
L 460.349232 281.876113 
L 460.349232 281.5011 
L 461.587295 281.5011 
L 461.587295 281.273059 
L 462.825359 281.273059 
L 462.825359 280.174089 
L 464.063422 280.174089 
L 464.063422 279.303761 
L 465.301486 279.303761 
L 465.301486 278.440855 
L 466.539549 278.440855 
L 466.539549 277.652284 
L 467.777613 277.652284 
L 467.777613 277.256901 
L 469.015676 277.256901 
L 469.015676 276.98638 
L 470.25374 276.98638 
L 470.25374 276.201336 
L 471.491803 276.201336 
L 471.491803 275.318146 
L 472.729867 275.318146 
L 472.729867 274.494322 
L 473.96793 274.494322 
L 473.96793 273.725797 
L 475.205994 273.725797 
L 475.205994 273.000205 
L 476.444057 273.000205 
L 476.444057 272.619944 
L 477.682121 272.619944 
L 477.682121 272.303177 
L 478.920184 272.303177 
L 478.920184 271.453778 
L 480.158248 271.453778 
L 480.158248 270.698762 
L 481.396311 270.698762 
L 481.396311 269.867904 
L 482.634375 269.867904 
L 482.634375 269.062104 
L 483.872439 269.062104 
L 483.872439 268.269403 
L 485.110502 268.269403 
L 485.110502 267.852468 
L 486.348566 267.852468 
L 486.348566 267.541811 
L 487.586629 267.541811 
L 487.586629 266.651265 
L 488.824693 266.651265 
L 488.824693 265.700686 
L 490.062756 265.700686 
L 490.062756 265.182228 
L 491.30082 265.182228 
L 491.30082 264.444741 
L 492.538883 264.444741 
L 492.538883 263.758296 
L 493.776947 263.758296 
L 493.776947 263.324068 
L 495.01501 263.324068 
L 495.01501 263.005904 
L 496.253074 263.005904 
L 496.253074 262.144653 
L 497.491137 262.144653 
L 497.491137 261.447432 
L 498.729201 261.447432 
L 498.729201 260.682241 
L 499.967264 260.682241 
L 499.967264 259.87371 
L 501.205328 259.87371 
L 501.205328 259.029946 
L 502.443391 259.029946 
L 502.443391 258.495291 
L 503.681455 258.495291 
L 503.681455 258.135141 
L 504.919518 258.135141 
L 504.919518 257.155848 
L 506.157582 257.155848 
L 506.157582 256.354608 
L 507.395645 256.354608 
L 507.395645 255.355311 
L 508.633709 255.355311 
L 508.633709 254.333559 
L 509.871773 254.333559 
L 509.871773 253.383303 
L 511.109836 253.383303 
L 511.109836 252.771538 
L 512.3479 252.771538 
L 512.3479 252.308487 
L 513.585963 252.308487 
L 513.585963 251.26871 
L 514.824027 251.26871 
L 514.824027 250.341168 
L 516.06209 250.341168 
L 516.06209 249.403301 
L 517.300154 249.403301 
L 517.300154 248.415211 
L 518.538217 248.415211 
L 518.538217 247.441274 
L 519.776281 247.441274 
L 519.776281 246.832821 
L 521.014344 246.832821 
L 521.014344 246.41324 
L 522.252408 246.41324 
L 522.252408 245.440249 
L 523.490471 245.440249 
L 523.490471 244.541874 
L 524.728535 244.541874 
L 524.728535 243.553762 
L 525.966598 243.553762 
L 525.966598 242.505446 
L 527.204662 242.505446 
L 527.204662 241.427511 
L 528.442725 241.427511 
L 528.442725 240.729687 
L 529.680789 240.729687 
L 529.680789 240.187117 
L 530.918852 240.187117 
L 530.918852 238.949563 
L 532.156916 238.949563 
L 532.156916 237.756468 
L 533.39498 237.756468 
L 533.39498 236.431371 
L 534.633043 236.431371 
L 534.633043 235.04906 
L 535.871107 235.04906 
L 535.871107 233.646809 
L 537.10917 233.646809 
L 537.10917 232.725182 
L 538.347234 232.725182 
L 538.347234 231.760335 
L 539.585297 231.760335 
L 539.585297 230.01099 
L 540.823361 230.01099 
L 540.823361 228.613881 
L 542.061424 228.613881 
L 542.061424 227.107309 
L 543.299488 227.107309 
L 543.299488 225.558784 
L 544.537551 225.558784 
L 544.537551 224.009164 
L 545.775615 224.009164 
L 545.775615 222.925122 
L 547.013678 222.925122 
L 547.013678 222.155024 
L 548.251742 222.155024 
L 548.251742 220.664935 
L 549.489805 220.664935 
L 549.489805 219.040769 
L 550.727869 219.040769 
L 550.727869 217.302185 
L 551.965932 217.302185 
L 551.965932 216.184717 
L 553.203996 216.184717 
L 553.203996 216.184717 
" style="fill:none;stroke:#1f77b4;stroke-linecap:square;stroke-width:1.5;"/>
   </g>
   <g id="line2d_108">
    <path clip-path="url(#pa1555a5687)" d="M 553.203996 214.720317 
L 553.203996 213.255917 
L 554.442059 213.255917 
L 554.442059 211.791517 
L 555.680123 211.791517 
L 555.680123 210.327117 
L 556.918186 210.327117 
L 556.918186 208.862717 
L 558.15625 208.862717 
L 558.15625 207.105437 
L 559.394314 207.105437 
L 559.394314 205.348157 
L 560.632377 205.348157 
L 560.632377 203.590877 
L 561.870441 203.590877 
L 561.870441 201.833597 
L 563.108504 201.833597 
L 563.108504 200.076317 
L 564.346568 200.076317 
L 564.346568 198.319037 
L 565.584631 198.319037 
L 565.584631 196.561757 
L 566.822695 196.561757 
L 566.822695 194.804477 
L 568.060758 194.804477 
L 568.060758 193.047197 
L 569.298822 193.047197 
L 569.298822 191.289917 
L 570.536885 191.289917 
L 570.536885 189.532637 
L 571.774949 189.532637 
L 571.774949 187.775357 
L 573.013012 187.775357 
L 573.013012 186.018077 
L 574.251076 186.018077 
L 574.251076 184.260797 
L 575.489139 184.260797 
L 575.489139 182.503517 
L 576.727203 182.503517 
L 576.727203 180.746237 
L 577.965266 180.746237 
L 577.965266 178.988957 
L 579.20333 178.988957 
L 579.20333 177.231677 
L 580.441393 177.231677 
L 580.441393 175.474397 
L 581.679457 175.474397 
L 581.679457 173.717117 
L 582.91752 173.717117 
L 582.91752 171.959837 
L 584.155584 171.959837 
L 584.155584 170.202557 
L 585.393648 170.202557 
L 585.393648 168.445277 
L 586.631711 168.445277 
L 586.631711 166.687997 
L 587.869775 166.687997 
L 587.869775 164.930717 
L 589.107838 164.930717 
L 589.107838 163.173437 
L 590.345902 163.173437 
L 590.345902 161.416157 
L 591.583965 161.416157 
L 591.583965 159.658877 
L 592.822029 159.658877 
L 592.822029 157.901597 
L 594.060092 157.901597 
L 594.060092 156.144317 
L 595.298156 156.144317 
L 595.298156 154.094157 
L 596.536219 154.094157 
L 596.536219 152.043997 
L 597.774283 152.043997 
L 597.774283 149.993837 
L 599.012346 149.993837 
L 599.012346 147.943677 
L 600.25041 147.943677 
L 600.25041 145.893517 
L 601.488473 145.893517 
L 601.488473 143.843357 
L 602.726537 143.843357 
L 602.726537 141.793197 
L 603.9646 141.793197 
L 603.9646 139.743037 
L 605.202664 139.743037 
L 605.202664 137.692877 
L 606.440727 137.692877 
L 606.440727 135.642717 
L 607.678791 135.642717 
L 607.678791 133.592557 
L 608.916855 133.592557 
L 608.916855 131.542397 
L 610.154918 131.542397 
L 610.154918 129.492237 
L 611.392982 129.492237 
L 611.392982 127.442077 
L 612.631045 127.442077 
L 612.631045 125.391917 
L 613.869109 125.391917 
L 613.869109 123.341757 
L 615.107172 123.341757 
L 615.107172 121.291597 
L 616.345236 121.291597 
L 616.345236 119.241437 
L 617.583299 119.241437 
L 617.583299 117.191277 
L 618.821363 117.191277 
L 618.821363 115.141117 
L 620.059426 115.141117 
L 620.059426 113.090957 
L 621.29749 113.090957 
L 621.29749 111.040797 
L 622.535553 111.040797 
L 622.535553 108.990637 
L 623.773617 108.990637 
L 623.773617 106.940477 
L 625.01168 106.940477 
L 625.01168 104.890317 
L 626.249744 104.890317 
L 626.249744 102.840157 
L 627.487807 102.840157 
L 627.487807 100.789997 
L 628.725871 100.789997 
L 628.725871 98.739837 
L 629.963934 98.739837 
L 629.963934 96.689677 
L 631.201998 96.689677 
L 631.201998 94.639517 
L 632.440061 94.639517 
L 632.440061 92.589357 
L 633.678125 92.589357 
L 633.678125 90.539197 
L 634.916189 90.539197 
L 634.916189 88.489037 
L 636.154252 88.489037 
L 636.154252 86.438877 
L 637.392316 86.438877 
L 637.392316 84.388717 
L 638.630379 84.388717 
L 638.630379 82.338557 
L 639.868443 82.338557 
L 639.868443 80.288397 
L 641.106506 80.288397 
L 641.106506 78.238237 
L 642.34457 78.238237 
L 642.34457 76.188077 
L 643.582633 76.188077 
L 643.582633 74.137917 
L 644.820697 74.137917 
L 644.820697 72.087757 
L 721 72.087757 
L 721 72.087757 
" style="fill:none;stroke:#ff7f0e;stroke-linecap:square;stroke-width:1.5;"/>
   </g>
   <g id="patch_9">
    <path d="M 407.1125 319.04 
L 407.1125 26.16 
" style="fill:none;stroke:#000000;stroke-linecap:square;stroke-linejoin:miter;stroke-width:0.8;"/>
   </g>
   <g id="patch_10">
    <path d="M 709.2 319.04 
L 709.2 26.16 
" style="fill:none;stroke:#000000;stroke-linecap:square;stroke-linejoin:miter;stroke-width:0.8;"/>
   </g>
   <g id="patch_11">
    <path d="M 407.1125 319.04 
L 709.2 319.04 
" style="fill:none;stroke:#000000;stroke-linecap:square;stroke-linejoin:miter;stroke-width:0.8;"/>
   </g>
   <g id="patch_12">
    <path d="M 407.1125 26.16 
L 709.2 26.16 
" style="fill:none;stroke:#000000;stroke-linecap:square;stroke-linejoin:miter;stroke-width:0.8;"/>
   </g>
   <g id="text_58">
    <!-- VIC cumulative vaccinations per capita -->
    <g transform="translate(441.070938 20.16)scale(0.12 -0.12)">
     <use xlink:href="#DejaVuSans-56"/>
     <use x="68.408203" xlink:href="#DejaVuSans-49"/>
     <use x="97.900391" xlink:href="#DejaVuSans-43"/>
     <use x="167.724609" xlink:href="#DejaVuSans-20"/>
     <use x="199.511719" xlink:href="#DejaVuSans-63"/>
     <use x="254.492188" xlink:href="#DejaVuSans-75"/>
     <use x="317.871094" xlink:href="#DejaVuSans-6d"/>
     <use x="415.283203" xlink:href="#DejaVuSans-75"/>
     <use x="478.662109" xlink:href="#DejaVuSans-6c"/>
     <use x="506.445312" xlink:href="#DejaVuSans-61"/>
     <use x="567.724609" xlink:href="#DejaVuSans-74"/>
     <use x="606.933594" xlink:href="#DejaVuSans-69"/>
     <use x="634.716797" xlink:href="#DejaVuSans-76"/>
     <use x="693.896484" xlink:href="#DejaVuSans-65"/>
     <use x="755.419922" xlink:href="#DejaVuSans-20"/>
     <use x="787.207031" xlink:href="#DejaVuSans-76"/>
     <use x="846.386719" xlink:href="#DejaVuSans-61"/>
     <use x="907.666016" xlink:href="#DejaVuSans-63"/>
     <use x="962.646484" xlink:href="#DejaVuSans-63"/>
     <use x="1017.626953" xlink:href="#DejaVuSans-69"/>
     <use x="1045.410156" xlink:href="#DejaVuSans-6e"/>
     <use x="1108.789062" xlink:href="#DejaVuSans-61"/>
     <use x="1170.068359" xlink:href="#DejaVuSans-74"/>
     <use x="1209.277344" xlink:href="#DejaVuSans-69"/>
     <use x="1237.060547" xlink:href="#DejaVuSans-6f"/>
     <use x="1298.242188" xlink:href="#DejaVuSans-6e"/>
     <use x="1361.621094" xlink:href="#DejaVuSans-73"/>
     <use x="1413.720703" xlink:href="#DejaVuSans-20"/>
     <use x="1445.507812" xlink:href="#DejaVuSans-70"/>
     <use x="1508.984375" xlink:href="#DejaVuSans-65"/>
     <use x="1570.507812" xlink:href="#DejaVuSans-72"/>
     <use x="1611.621094" xlink:href="#DejaVuSans-20"/>
     <use x="1643.408203" xlink:href="#DejaVuSans-63"/>
     <use x="1698.388672" xlink:href="#DejaVuSans-61"/>
     <use x="1759.667969" xlink:href="#DejaVuSans-70"/>
     <use x="1823.144531" xlink:href="#DejaVuSans-69"/>
     <use x="1850.927734" xlink:href="#DejaVuSans-74"/>
     <use x="1890.136719" xlink:href="#DejaVuSans-61"/>
    </g>
   </g>
   <g id="legend_2">
    <g id="patch_13">
     <path d="M 554.317187 63.51625 
L 702.2 63.51625 
Q 704.2 63.51625 704.2 61.51625 
L 704.2 33.16 
Q 704.2 31.16 702.2 31.16 
L 554.317187 31.16 
Q 552.317187 31.16 552.317187 33.16 
L 552.317187 61.51625 
Q 552.317187 63.51625 554.317187 63.51625 
z
" style="fill:#ffffff;opacity:0.8;stroke:#cccccc;stroke-linejoin:miter;"/>
    </g>
    <g id="line2d_109">
     <path d="M 556.317187 39.258437 
L 576.317187 39.258437 
" style="fill:none;stroke:#1f77b4;stroke-linecap:square;stroke-width:1.5;"/>
    </g>
    <g id="line2d_110"/>
    <g id="text_59">
     <!-- Actual -->
     <g transform="translate(584.317187 42.758437)scale(0.1 -0.1)">
      <use xlink:href="#DejaVuSans-41"/>
      <use x="66.658203" xlink:href="#DejaVuSans-63"/>
      <use x="121.638672" xlink:href="#DejaVuSans-74"/>
      <use x="160.847656" xlink:href="#DejaVuSans-75"/>
      <use x="224.226562" xlink:href="#DejaVuSans-61"/>
      <use x="285.505859" xlink:href="#DejaVuSans-6c"/>
     </g>
    </g>
    <g id="line2d_111">
     <path d="M 556.317187 53.936562 
L 576.317187 53.936562 
" style="fill:none;stroke:#ff7f0e;stroke-linecap:square;stroke-width:1.5;"/>
    </g>
    <g id="line2d_112"/>
    <g id="text_60">
     <!-- Assumed for projection -->
     <g transform="translate(584.317187 57.436562)scale(0.1 -0.1)">
      <use xlink:href="#DejaVuSans-41"/>
      <use x="68.408203" xlink:href="#DejaVuSans-73"/>
      <use x="120.507812" xlink:href="#DejaVuSans-73"/>
      <use x="172.607422" xlink:href="#DejaVuSans-75"/>
      <use x="235.986328" xlink:href="#DejaVuSans-6d"/>
      <use x="333.398438" xlink:href="#DejaVuSans-65"/>
      <use x="394.921875" xlink:href="#DejaVuSans-64"/>
      <use x="458.398438" xlink:href="#DejaVuSans-20"/>
      <use x="490.185547" xlink:href="#DejaVuSans-66"/>
      <use x="525.390625" xlink:href="#DejaVuSans-6f"/>
      <use x="586.572266" xlink:href="#DejaVuSans-72"/>
      <use x="627.685547" xlink:href="#DejaVuSans-20"/>
      <use x="659.472656" xlink:href="#DejaVuSans-70"/>
      <use x="722.949219" xlink:href="#DejaVuSans-72"/>
      <use x="761.8125" xlink:href="#DejaVuSans-6f"/>
      <use x="822.994141" xlink:href="#DejaVuSans-6a"/>
      <use x="850.777344" xlink:href="#DejaVuSans-65"/>
      <use x="912.300781" xlink:href="#DejaVuSans-63"/>
      <use x="967.28125" xlink:href="#DejaVuSans-74"/>
      <use x="1006.490234" xlink:href="#DejaVuSans-69"/>
      <use x="1034.273438" xlink:href="#DejaVuSans-6f"/>
      <use x="1095.455078" xlink:href="#DejaVuSans-6e"/>
     </g>
    </g>
   </g>
  </g>
 </g>
 <defs>
  <clipPath id="p8faf7b566f">
   <rect height="292.88" width="302.0875" x="54.11" y="26.16"/>
  </clipPath>
  <clipPath id="pa1555a5687">
   <rect height="292.88" width="302.0875" x="407.1125" y="26.16"/>
  </clipPath>
 </defs>
</svg>
