<?xml version="1.0" encoding="utf-8" standalone="no"?>
<!DOCTYPE svg PUBLIC "-//W3C//DTD SVG 1.1//EN"
  "http://www.w3.org/Graphics/SVG/1.1/DTD/svg11.dtd">
<svg height="360pt" version="1.1" viewBox="0 0 720 360" width="720pt" xmlns="http://www.w3.org/2000/svg" xmlns:xlink="http://www.w3.org/1999/xlink">
 <metadata>
  <rdf:RDF xmlns:cc="http://creativecommons.org/ns#" xmlns:dc="http://purl.org/dc/elements/1.1/" xmlns:rdf="http://www.w3.org/1999/02/22-rdf-syntax-ns#">
   <cc:Work>
    <dc:type rdf:resource="http://purl.org/dc/dcmitype/StillImage"/>
    <dc:date>2021-11-15T09:13:00.247107</dc:date>
    <dc:format>image/svg+xml</dc:format>
    <dc:creator>
     <cc:Agent>
      <dc:title>Matplotlib v3.4.3, https://matplotlib.org/</dc:title>
     </cc:Agent>
    </dc:creator>
   </cc:Work>
  </rdf:RDF>
 </metadata>
 <defs>
  <style type="text/css">*{stroke-linecap:butt;stroke-linejoin:round;}</style>
 </defs>
 <g id="figure_1">
  <g id="patch_1">
   <path d="M 0 360 
L 720 360 
L 720 0 
L 0 0 
z
" style="fill:#ffffff;"/>
  </g>
  <g id="axes_1">
   <g id="patch_2">
    <path d="M 54.02 319.04 
L 356.175 319.04 
L 356.175 26.88 
L 54.02 26.88 
z
" style="fill:#ffffff;"/>
   </g>
   <g id="matplotlib.axis_1">
    <g id="xtick_1">
     <g id="line2d_1">
      <path clip-path="url(#pc57048c218)" d="M 54.02 319.04 
L 54.02 26.88 
" style="fill:none;stroke:#000000;stroke-dasharray:0.8,1.32;stroke-dashoffset:0;stroke-opacity:0.5;stroke-width:0.8;"/>
     </g>
     <g id="line2d_2">
      <defs>
       <path d="M 0 0 
L 0 3.5 
" id="maf2fcf8993" style="stroke:#000000;stroke-width:0.8;"/>
      </defs>
      <g>
       <use style="stroke:#000000;stroke-width:0.8;" x="54.02" xlink:href="#maf2fcf8993" y="319.04"/>
      </g>
     </g>
     <g id="text_1">
      <!-- May -->
      <g transform="translate(43.6825 333.638438)scale(0.1 -0.1)">
       <defs>
        <path d="M 628 4666 
L 1569 4666 
L 2759 1491 
L 3956 4666 
L 4897 4666 
L 4897 0 
L 4281 0 
L 4281 4097 
L 3078 897 
L 2444 897 
L 1241 4097 
L 1241 0 
L 628 0 
L 628 4666 
z
" id="DejaVuSans-4d" transform="scale(0.015625)"/>
        <path d="M 2194 1759 
Q 1497 1759 1228 1600 
Q 959 1441 959 1056 
Q 959 750 1161 570 
Q 1363 391 1709 391 
Q 2188 391 2477 730 
Q 2766 1069 2766 1631 
L 2766 1759 
L 2194 1759 
z
M 3341 1997 
L 3341 0 
L 2766 0 
L 2766 531 
Q 2569 213 2275 61 
Q 1981 -91 1556 -91 
Q 1019 -91 701 211 
Q 384 513 384 1019 
Q 384 1609 779 1909 
Q 1175 2209 1959 2209 
L 2766 2209 
L 2766 2266 
Q 2766 2663 2505 2880 
Q 2244 3097 1772 3097 
Q 1472 3097 1187 3025 
Q 903 2953 641 2809 
L 641 3341 
Q 956 3463 1253 3523 
Q 1550 3584 1831 3584 
Q 2591 3584 2966 3190 
Q 3341 2797 3341 1997 
z
" id="DejaVuSans-61" transform="scale(0.015625)"/>
        <path d="M 2059 -325 
Q 1816 -950 1584 -1140 
Q 1353 -1331 966 -1331 
L 506 -1331 
L 506 -850 
L 844 -850 
Q 1081 -850 1212 -737 
Q 1344 -625 1503 -206 
L 1606 56 
L 191 3500 
L 800 3500 
L 1894 763 
L 2988 3500 
L 3597 3500 
L 2059 -325 
z
" id="DejaVuSans-79" transform="scale(0.015625)"/>
       </defs>
       <use xlink:href="#DejaVuSans-4d"/>
       <use x="86.279297" xlink:href="#DejaVuSans-61"/>
       <use x="147.558594" xlink:href="#DejaVuSans-79"/>
      </g>
     </g>
    </g>
    <g id="xtick_2">
     <g id="line2d_3">
      <path clip-path="url(#pc57048c218)" d="M 71.356762 319.04 
L 71.356762 26.88 
" style="fill:none;stroke:#000000;stroke-dasharray:0.8,1.32;stroke-dashoffset:0;stroke-opacity:0.5;stroke-width:0.8;"/>
     </g>
     <g id="line2d_4">
      <g>
       <use style="stroke:#000000;stroke-width:0.8;" x="71.356762" xlink:href="#maf2fcf8993" y="319.04"/>
      </g>
     </g>
     <g id="text_2">
      <!-- 15 -->
      <g transform="translate(64.994262 333.638438)scale(0.1 -0.1)">
       <defs>
        <path d="M 794 531 
L 1825 531 
L 1825 4091 
L 703 3866 
L 703 4441 
L 1819 4666 
L 2450 4666 
L 2450 531 
L 3481 531 
L 3481 0 
L 794 0 
L 794 531 
z
" id="DejaVuSans-31" transform="scale(0.015625)"/>
        <path d="M 691 4666 
L 3169 4666 
L 3169 4134 
L 1269 4134 
L 1269 2991 
Q 1406 3038 1543 3061 
Q 1681 3084 1819 3084 
Q 2600 3084 3056 2656 
Q 3513 2228 3513 1497 
Q 3513 744 3044 326 
Q 2575 -91 1722 -91 
Q 1428 -91 1123 -41 
Q 819 9 494 109 
L 494 744 
Q 775 591 1075 516 
Q 1375 441 1709 441 
Q 2250 441 2565 725 
Q 2881 1009 2881 1497 
Q 2881 1984 2565 2268 
Q 2250 2553 1709 2553 
Q 1456 2553 1204 2497 
Q 953 2441 691 2322 
L 691 4666 
z
" id="DejaVuSans-35" transform="scale(0.015625)"/>
       </defs>
       <use xlink:href="#DejaVuSans-31"/>
       <use x="63.623047" xlink:href="#DejaVuSans-35"/>
      </g>
     </g>
    </g>
    <g id="xtick_3">
     <g id="line2d_5">
      <path clip-path="url(#pc57048c218)" d="M 92.408545 319.04 
L 92.408545 26.88 
" style="fill:none;stroke:#000000;stroke-dasharray:0.8,1.32;stroke-dashoffset:0;stroke-opacity:0.5;stroke-width:0.8;"/>
     </g>
     <g id="line2d_6">
      <g>
       <use style="stroke:#000000;stroke-width:0.8;" x="92.408545" xlink:href="#maf2fcf8993" y="319.04"/>
      </g>
     </g>
     <g id="text_3">
      <!-- Jun -->
      <g transform="translate(84.596045 333.638438)scale(0.1 -0.1)">
       <defs>
        <path d="M 628 4666 
L 1259 4666 
L 1259 325 
Q 1259 -519 939 -900 
Q 619 -1281 -91 -1281 
L -331 -1281 
L -331 -750 
L -134 -750 
Q 284 -750 456 -515 
Q 628 -281 628 325 
L 628 4666 
z
" id="DejaVuSans-4a" transform="scale(0.015625)"/>
        <path d="M 544 1381 
L 544 3500 
L 1119 3500 
L 1119 1403 
Q 1119 906 1312 657 
Q 1506 409 1894 409 
Q 2359 409 2629 706 
Q 2900 1003 2900 1516 
L 2900 3500 
L 3475 3500 
L 3475 0 
L 2900 0 
L 2900 538 
Q 2691 219 2414 64 
Q 2138 -91 1772 -91 
Q 1169 -91 856 284 
Q 544 659 544 1381 
z
M 1991 3584 
L 1991 3584 
z
" id="DejaVuSans-75" transform="scale(0.015625)"/>
        <path d="M 3513 2113 
L 3513 0 
L 2938 0 
L 2938 2094 
Q 2938 2591 2744 2837 
Q 2550 3084 2163 3084 
Q 1697 3084 1428 2787 
Q 1159 2491 1159 1978 
L 1159 0 
L 581 0 
L 581 3500 
L 1159 3500 
L 1159 2956 
Q 1366 3272 1645 3428 
Q 1925 3584 2291 3584 
Q 2894 3584 3203 3211 
Q 3513 2838 3513 2113 
z
" id="DejaVuSans-6e" transform="scale(0.015625)"/>
       </defs>
       <use xlink:href="#DejaVuSans-4a"/>
       <use x="29.492188" xlink:href="#DejaVuSans-75"/>
       <use x="92.871094" xlink:href="#DejaVuSans-6e"/>
      </g>
     </g>
    </g>
    <g id="xtick_4">
     <g id="line2d_7">
      <path clip-path="url(#pc57048c218)" d="M 109.745307 319.04 
L 109.745307 26.88 
" style="fill:none;stroke:#000000;stroke-dasharray:0.8,1.32;stroke-dashoffset:0;stroke-opacity:0.5;stroke-width:0.8;"/>
     </g>
     <g id="line2d_8">
      <g>
       <use style="stroke:#000000;stroke-width:0.8;" x="109.745307" xlink:href="#maf2fcf8993" y="319.04"/>
      </g>
     </g>
     <g id="text_4">
      <!-- 15 -->
      <g transform="translate(103.382807 333.638438)scale(0.1 -0.1)">
       <use xlink:href="#DejaVuSans-31"/>
       <use x="63.623047" xlink:href="#DejaVuSans-35"/>
      </g>
     </g>
    </g>
    <g id="xtick_5">
     <g id="line2d_9">
      <path clip-path="url(#pc57048c218)" d="M 129.55875 319.04 
L 129.55875 26.88 
" style="fill:none;stroke:#000000;stroke-dasharray:0.8,1.32;stroke-dashoffset:0;stroke-opacity:0.5;stroke-width:0.8;"/>
     </g>
     <g id="line2d_10">
      <g>
       <use style="stroke:#000000;stroke-width:0.8;" x="129.55875" xlink:href="#maf2fcf8993" y="319.04"/>
      </g>
     </g>
     <g id="text_5">
      <!-- Jul -->
      <g transform="translate(123.525938 333.638438)scale(0.1 -0.1)">
       <defs>
        <path d="M 603 4863 
L 1178 4863 
L 1178 0 
L 603 0 
L 603 4863 
z
" id="DejaVuSans-6c" transform="scale(0.015625)"/>
       </defs>
       <use xlink:href="#DejaVuSans-4a"/>
       <use x="29.492188" xlink:href="#DejaVuSans-75"/>
       <use x="92.871094" xlink:href="#DejaVuSans-6c"/>
      </g>
     </g>
    </g>
    <g id="xtick_6">
     <g id="line2d_11">
      <path clip-path="url(#pc57048c218)" d="M 146.895512 319.04 
L 146.895512 26.88 
" style="fill:none;stroke:#000000;stroke-dasharray:0.8,1.32;stroke-dashoffset:0;stroke-opacity:0.5;stroke-width:0.8;"/>
     </g>
     <g id="line2d_12">
      <g>
       <use style="stroke:#000000;stroke-width:0.8;" x="146.895512" xlink:href="#maf2fcf8993" y="319.04"/>
      </g>
     </g>
     <g id="text_6">
      <!-- 15 -->
      <g transform="translate(140.533012 333.638438)scale(0.1 -0.1)">
       <use xlink:href="#DejaVuSans-31"/>
       <use x="63.623047" xlink:href="#DejaVuSans-35"/>
      </g>
     </g>
    </g>
    <g id="xtick_7">
     <g id="line2d_13">
      <path clip-path="url(#pc57048c218)" d="M 167.947295 319.04 
L 167.947295 26.88 
" style="fill:none;stroke:#000000;stroke-dasharray:0.8,1.32;stroke-dashoffset:0;stroke-opacity:0.5;stroke-width:0.8;"/>
     </g>
     <g id="line2d_14">
      <g>
       <use style="stroke:#000000;stroke-width:0.8;" x="167.947295" xlink:href="#maf2fcf8993" y="319.04"/>
      </g>
     </g>
     <g id="text_7">
      <!-- Aug -->
      <g transform="translate(158.184014 333.638438)scale(0.1 -0.1)">
       <defs>
        <path d="M 2188 4044 
L 1331 1722 
L 3047 1722 
L 2188 4044 
z
M 1831 4666 
L 2547 4666 
L 4325 0 
L 3669 0 
L 3244 1197 
L 1141 1197 
L 716 0 
L 50 0 
L 1831 4666 
z
" id="DejaVuSans-41" transform="scale(0.015625)"/>
        <path d="M 2906 1791 
Q 2906 2416 2648 2759 
Q 2391 3103 1925 3103 
Q 1463 3103 1205 2759 
Q 947 2416 947 1791 
Q 947 1169 1205 825 
Q 1463 481 1925 481 
Q 2391 481 2648 825 
Q 2906 1169 2906 1791 
z
M 3481 434 
Q 3481 -459 3084 -895 
Q 2688 -1331 1869 -1331 
Q 1566 -1331 1297 -1286 
Q 1028 -1241 775 -1147 
L 775 -588 
Q 1028 -725 1275 -790 
Q 1522 -856 1778 -856 
Q 2344 -856 2625 -561 
Q 2906 -266 2906 331 
L 2906 616 
Q 2728 306 2450 153 
Q 2172 0 1784 0 
Q 1141 0 747 490 
Q 353 981 353 1791 
Q 353 2603 747 3093 
Q 1141 3584 1784 3584 
Q 2172 3584 2450 3431 
Q 2728 3278 2906 2969 
L 2906 3500 
L 3481 3500 
L 3481 434 
z
" id="DejaVuSans-67" transform="scale(0.015625)"/>
       </defs>
       <use xlink:href="#DejaVuSans-41"/>
       <use x="68.408203" xlink:href="#DejaVuSans-75"/>
       <use x="131.787109" xlink:href="#DejaVuSans-67"/>
      </g>
     </g>
    </g>
    <g id="xtick_8">
     <g id="line2d_15">
      <path clip-path="url(#pc57048c218)" d="M 185.284057 319.04 
L 185.284057 26.88 
" style="fill:none;stroke:#000000;stroke-dasharray:0.8,1.32;stroke-dashoffset:0;stroke-opacity:0.5;stroke-width:0.8;"/>
     </g>
     <g id="line2d_16">
      <g>
       <use style="stroke:#000000;stroke-width:0.8;" x="185.284057" xlink:href="#maf2fcf8993" y="319.04"/>
      </g>
     </g>
     <g id="text_8">
      <!-- 15 -->
      <g transform="translate(178.921557 333.638438)scale(0.1 -0.1)">
       <use xlink:href="#DejaVuSans-31"/>
       <use x="63.623047" xlink:href="#DejaVuSans-35"/>
      </g>
     </g>
    </g>
    <g id="xtick_9">
     <g id="line2d_17">
      <path clip-path="url(#pc57048c218)" d="M 206.33584 319.04 
L 206.33584 26.88 
" style="fill:none;stroke:#000000;stroke-dasharray:0.8,1.32;stroke-dashoffset:0;stroke-opacity:0.5;stroke-width:0.8;"/>
     </g>
     <g id="line2d_18">
      <g>
       <use style="stroke:#000000;stroke-width:0.8;" x="206.33584" xlink:href="#maf2fcf8993" y="319.04"/>
      </g>
     </g>
     <g id="text_9">
      <!-- Sep -->
      <g transform="translate(196.91084 333.638438)scale(0.1 -0.1)">
       <defs>
        <path d="M 3425 4513 
L 3425 3897 
Q 3066 4069 2747 4153 
Q 2428 4238 2131 4238 
Q 1616 4238 1336 4038 
Q 1056 3838 1056 3469 
Q 1056 3159 1242 3001 
Q 1428 2844 1947 2747 
L 2328 2669 
Q 3034 2534 3370 2195 
Q 3706 1856 3706 1288 
Q 3706 609 3251 259 
Q 2797 -91 1919 -91 
Q 1588 -91 1214 -16 
Q 841 59 441 206 
L 441 856 
Q 825 641 1194 531 
Q 1563 422 1919 422 
Q 2459 422 2753 634 
Q 3047 847 3047 1241 
Q 3047 1584 2836 1778 
Q 2625 1972 2144 2069 
L 1759 2144 
Q 1053 2284 737 2584 
Q 422 2884 422 3419 
Q 422 4038 858 4394 
Q 1294 4750 2059 4750 
Q 2388 4750 2728 4690 
Q 3069 4631 3425 4513 
z
" id="DejaVuSans-53" transform="scale(0.015625)"/>
        <path d="M 3597 1894 
L 3597 1613 
L 953 1613 
Q 991 1019 1311 708 
Q 1631 397 2203 397 
Q 2534 397 2845 478 
Q 3156 559 3463 722 
L 3463 178 
Q 3153 47 2828 -22 
Q 2503 -91 2169 -91 
Q 1331 -91 842 396 
Q 353 884 353 1716 
Q 353 2575 817 3079 
Q 1281 3584 2069 3584 
Q 2775 3584 3186 3129 
Q 3597 2675 3597 1894 
z
M 3022 2063 
Q 3016 2534 2758 2815 
Q 2500 3097 2075 3097 
Q 1594 3097 1305 2825 
Q 1016 2553 972 2059 
L 3022 2063 
z
" id="DejaVuSans-65" transform="scale(0.015625)"/>
        <path d="M 1159 525 
L 1159 -1331 
L 581 -1331 
L 581 3500 
L 1159 3500 
L 1159 2969 
Q 1341 3281 1617 3432 
Q 1894 3584 2278 3584 
Q 2916 3584 3314 3078 
Q 3713 2572 3713 1747 
Q 3713 922 3314 415 
Q 2916 -91 2278 -91 
Q 1894 -91 1617 61 
Q 1341 213 1159 525 
z
M 3116 1747 
Q 3116 2381 2855 2742 
Q 2594 3103 2138 3103 
Q 1681 3103 1420 2742 
Q 1159 2381 1159 1747 
Q 1159 1113 1420 752 
Q 1681 391 2138 391 
Q 2594 391 2855 752 
Q 3116 1113 3116 1747 
z
" id="DejaVuSans-70" transform="scale(0.015625)"/>
       </defs>
       <use xlink:href="#DejaVuSans-53"/>
       <use x="63.476562" xlink:href="#DejaVuSans-65"/>
       <use x="125" xlink:href="#DejaVuSans-70"/>
      </g>
     </g>
    </g>
    <g id="xtick_10">
     <g id="line2d_19">
      <path clip-path="url(#pc57048c218)" d="M 223.672602 319.04 
L 223.672602 26.88 
" style="fill:none;stroke:#000000;stroke-dasharray:0.8,1.32;stroke-dashoffset:0;stroke-opacity:0.5;stroke-width:0.8;"/>
     </g>
     <g id="line2d_20">
      <g>
       <use style="stroke:#000000;stroke-width:0.8;" x="223.672602" xlink:href="#maf2fcf8993" y="319.04"/>
      </g>
     </g>
     <g id="text_10">
      <!-- 15 -->
      <g transform="translate(217.310102 333.638438)scale(0.1 -0.1)">
       <use xlink:href="#DejaVuSans-31"/>
       <use x="63.623047" xlink:href="#DejaVuSans-35"/>
      </g>
     </g>
    </g>
    <g id="xtick_11">
     <g id="line2d_21">
      <path clip-path="url(#pc57048c218)" d="M 243.486045 319.04 
L 243.486045 26.88 
" style="fill:none;stroke:#000000;stroke-dasharray:0.8,1.32;stroke-dashoffset:0;stroke-opacity:0.5;stroke-width:0.8;"/>
     </g>
     <g id="line2d_22">
      <g>
       <use style="stroke:#000000;stroke-width:0.8;" x="243.486045" xlink:href="#maf2fcf8993" y="319.04"/>
      </g>
     </g>
     <g id="text_11">
      <!-- Oct -->
      <g transform="translate(234.840733 333.638438)scale(0.1 -0.1)">
       <defs>
        <path d="M 2522 4238 
Q 1834 4238 1429 3725 
Q 1025 3213 1025 2328 
Q 1025 1447 1429 934 
Q 1834 422 2522 422 
Q 3209 422 3611 934 
Q 4013 1447 4013 2328 
Q 4013 3213 3611 3725 
Q 3209 4238 2522 4238 
z
M 2522 4750 
Q 3503 4750 4090 4092 
Q 4678 3434 4678 2328 
Q 4678 1225 4090 567 
Q 3503 -91 2522 -91 
Q 1538 -91 948 565 
Q 359 1222 359 2328 
Q 359 3434 948 4092 
Q 1538 4750 2522 4750 
z
" id="DejaVuSans-4f" transform="scale(0.015625)"/>
        <path d="M 3122 3366 
L 3122 2828 
Q 2878 2963 2633 3030 
Q 2388 3097 2138 3097 
Q 1578 3097 1268 2742 
Q 959 2388 959 1747 
Q 959 1106 1268 751 
Q 1578 397 2138 397 
Q 2388 397 2633 464 
Q 2878 531 3122 666 
L 3122 134 
Q 2881 22 2623 -34 
Q 2366 -91 2075 -91 
Q 1284 -91 818 406 
Q 353 903 353 1747 
Q 353 2603 823 3093 
Q 1294 3584 2113 3584 
Q 2378 3584 2631 3529 
Q 2884 3475 3122 3366 
z
" id="DejaVuSans-63" transform="scale(0.015625)"/>
        <path d="M 1172 4494 
L 1172 3500 
L 2356 3500 
L 2356 3053 
L 1172 3053 
L 1172 1153 
Q 1172 725 1289 603 
Q 1406 481 1766 481 
L 2356 481 
L 2356 0 
L 1766 0 
Q 1100 0 847 248 
Q 594 497 594 1153 
L 594 3053 
L 172 3053 
L 172 3500 
L 594 3500 
L 594 4494 
L 1172 4494 
z
" id="DejaVuSans-74" transform="scale(0.015625)"/>
       </defs>
       <use xlink:href="#DejaVuSans-4f"/>
       <use x="78.710938" xlink:href="#DejaVuSans-63"/>
       <use x="133.691406" xlink:href="#DejaVuSans-74"/>
      </g>
     </g>
    </g>
    <g id="xtick_12">
     <g id="line2d_23">
      <path clip-path="url(#pc57048c218)" d="M 260.822807 319.04 
L 260.822807 26.88 
" style="fill:none;stroke:#000000;stroke-dasharray:0.8,1.32;stroke-dashoffset:0;stroke-opacity:0.5;stroke-width:0.8;"/>
     </g>
     <g id="line2d_24">
      <g>
       <use style="stroke:#000000;stroke-width:0.8;" x="260.822807" xlink:href="#maf2fcf8993" y="319.04"/>
      </g>
     </g>
     <g id="text_12">
      <!-- 15 -->
      <g transform="translate(254.460307 333.638438)scale(0.1 -0.1)">
       <use xlink:href="#DejaVuSans-31"/>
       <use x="63.623047" xlink:href="#DejaVuSans-35"/>
      </g>
     </g>
    </g>
    <g id="xtick_13">
     <g id="line2d_25">
      <path clip-path="url(#pc57048c218)" d="M 281.87459 319.04 
L 281.87459 26.88 
" style="fill:none;stroke:#000000;stroke-dasharray:0.8,1.32;stroke-dashoffset:0;stroke-opacity:0.5;stroke-width:0.8;"/>
     </g>
     <g id="line2d_26">
      <g>
       <use style="stroke:#000000;stroke-width:0.8;" x="281.87459" xlink:href="#maf2fcf8993" y="319.04"/>
      </g>
     </g>
     <g id="text_13">
      <!-- Nov -->
      <g transform="translate(272.115215 333.638438)scale(0.1 -0.1)">
       <defs>
        <path d="M 628 4666 
L 1478 4666 
L 3547 763 
L 3547 4666 
L 4159 4666 
L 4159 0 
L 3309 0 
L 1241 3903 
L 1241 0 
L 628 0 
L 628 4666 
z
" id="DejaVuSans-4e" transform="scale(0.015625)"/>
        <path d="M 1959 3097 
Q 1497 3097 1228 2736 
Q 959 2375 959 1747 
Q 959 1119 1226 758 
Q 1494 397 1959 397 
Q 2419 397 2687 759 
Q 2956 1122 2956 1747 
Q 2956 2369 2687 2733 
Q 2419 3097 1959 3097 
z
M 1959 3584 
Q 2709 3584 3137 3096 
Q 3566 2609 3566 1747 
Q 3566 888 3137 398 
Q 2709 -91 1959 -91 
Q 1206 -91 779 398 
Q 353 888 353 1747 
Q 353 2609 779 3096 
Q 1206 3584 1959 3584 
z
" id="DejaVuSans-6f" transform="scale(0.015625)"/>
        <path d="M 191 3500 
L 800 3500 
L 1894 563 
L 2988 3500 
L 3597 3500 
L 2284 0 
L 1503 0 
L 191 3500 
z
" id="DejaVuSans-76" transform="scale(0.015625)"/>
       </defs>
       <use xlink:href="#DejaVuSans-4e"/>
       <use x="74.804688" xlink:href="#DejaVuSans-6f"/>
       <use x="135.986328" xlink:href="#DejaVuSans-76"/>
      </g>
     </g>
    </g>
    <g id="xtick_14">
     <g id="line2d_27">
      <path clip-path="url(#pc57048c218)" d="M 299.211352 319.04 
L 299.211352 26.88 
" style="fill:none;stroke:#000000;stroke-dasharray:0.8,1.32;stroke-dashoffset:0;stroke-opacity:0.5;stroke-width:0.8;"/>
     </g>
     <g id="line2d_28">
      <g>
       <use style="stroke:#000000;stroke-width:0.8;" x="299.211352" xlink:href="#maf2fcf8993" y="319.04"/>
      </g>
     </g>
     <g id="text_14">
      <!-- 15 -->
      <g transform="translate(292.848852 333.638438)scale(0.1 -0.1)">
       <use xlink:href="#DejaVuSans-31"/>
       <use x="63.623047" xlink:href="#DejaVuSans-35"/>
      </g>
     </g>
    </g>
    <g id="xtick_15">
     <g id="line2d_29">
      <path clip-path="url(#pc57048c218)" d="M 319.024795 319.04 
L 319.024795 26.88 
" style="fill:none;stroke:#000000;stroke-dasharray:0.8,1.32;stroke-dashoffset:0;stroke-opacity:0.5;stroke-width:0.8;"/>
     </g>
     <g id="line2d_30">
      <g>
       <use style="stroke:#000000;stroke-width:0.8;" x="319.024795" xlink:href="#maf2fcf8993" y="319.04"/>
      </g>
     </g>
     <g id="text_15">
      <!-- Dec -->
      <g transform="translate(309.349014 333.638438)scale(0.1 -0.1)">
       <defs>
        <path d="M 1259 4147 
L 1259 519 
L 2022 519 
Q 2988 519 3436 956 
Q 3884 1394 3884 2338 
Q 3884 3275 3436 3711 
Q 2988 4147 2022 4147 
L 1259 4147 
z
M 628 4666 
L 1925 4666 
Q 3281 4666 3915 4102 
Q 4550 3538 4550 2338 
Q 4550 1131 3912 565 
Q 3275 0 1925 0 
L 628 0 
L 628 4666 
z
" id="DejaVuSans-44" transform="scale(0.015625)"/>
       </defs>
       <use xlink:href="#DejaVuSans-44"/>
       <use x="77.001953" xlink:href="#DejaVuSans-65"/>
       <use x="138.525391" xlink:href="#DejaVuSans-63"/>
      </g>
     </g>
    </g>
    <g id="xtick_16">
     <g id="line2d_31">
      <path clip-path="url(#pc57048c218)" d="M 336.361557 319.04 
L 336.361557 26.88 
" style="fill:none;stroke:#000000;stroke-dasharray:0.8,1.32;stroke-dashoffset:0;stroke-opacity:0.5;stroke-width:0.8;"/>
     </g>
     <g id="line2d_32">
      <g>
       <use style="stroke:#000000;stroke-width:0.8;" x="336.361557" xlink:href="#maf2fcf8993" y="319.04"/>
      </g>
     </g>
     <g id="text_16">
      <!-- 15 -->
      <g transform="translate(329.999057 333.638438)scale(0.1 -0.1)">
       <use xlink:href="#DejaVuSans-31"/>
       <use x="63.623047" xlink:href="#DejaVuSans-35"/>
      </g>
     </g>
    </g>
    <g id="text_17">
     <!-- 2021-Dec -->
     <g transform="translate(307.765625 346.316563)scale(0.1 -0.1)">
      <defs>
       <path d="M 1228 531 
L 3431 531 
L 3431 0 
L 469 0 
L 469 531 
Q 828 903 1448 1529 
Q 2069 2156 2228 2338 
Q 2531 2678 2651 2914 
Q 2772 3150 2772 3378 
Q 2772 3750 2511 3984 
Q 2250 4219 1831 4219 
Q 1534 4219 1204 4116 
Q 875 4013 500 3803 
L 500 4441 
Q 881 4594 1212 4672 
Q 1544 4750 1819 4750 
Q 2544 4750 2975 4387 
Q 3406 4025 3406 3419 
Q 3406 3131 3298 2873 
Q 3191 2616 2906 2266 
Q 2828 2175 2409 1742 
Q 1991 1309 1228 531 
z
" id="DejaVuSans-32" transform="scale(0.015625)"/>
       <path d="M 2034 4250 
Q 1547 4250 1301 3770 
Q 1056 3291 1056 2328 
Q 1056 1369 1301 889 
Q 1547 409 2034 409 
Q 2525 409 2770 889 
Q 3016 1369 3016 2328 
Q 3016 3291 2770 3770 
Q 2525 4250 2034 4250 
z
M 2034 4750 
Q 2819 4750 3233 4129 
Q 3647 3509 3647 2328 
Q 3647 1150 3233 529 
Q 2819 -91 2034 -91 
Q 1250 -91 836 529 
Q 422 1150 422 2328 
Q 422 3509 836 4129 
Q 1250 4750 2034 4750 
z
" id="DejaVuSans-30" transform="scale(0.015625)"/>
       <path d="M 313 2009 
L 1997 2009 
L 1997 1497 
L 313 1497 
L 313 2009 
z
" id="DejaVuSans-2d" transform="scale(0.015625)"/>
      </defs>
      <use xlink:href="#DejaVuSans-32"/>
      <use x="63.623047" xlink:href="#DejaVuSans-30"/>
      <use x="127.246094" xlink:href="#DejaVuSans-32"/>
      <use x="190.869141" xlink:href="#DejaVuSans-31"/>
      <use x="254.492188" xlink:href="#DejaVuSans-2d"/>
      <use x="290.576172" xlink:href="#DejaVuSans-44"/>
      <use x="367.578125" xlink:href="#DejaVuSans-65"/>
      <use x="429.101562" xlink:href="#DejaVuSans-63"/>
     </g>
    </g>
   </g>
   <g id="matplotlib.axis_2">
    <g id="ytick_1">
     <g id="line2d_33">
      <path clip-path="url(#pc57048c218)" d="M 54.02 319.04 
L 356.175 319.04 
" style="fill:none;stroke:#000000;stroke-dasharray:0.8,1.32;stroke-dashoffset:0;stroke-opacity:0.5;stroke-width:0.8;"/>
     </g>
     <g id="line2d_34">
      <defs>
       <path d="M 0 0 
L -3.5 0 
" id="mb8ae30a8ed" style="stroke:#000000;stroke-width:0.8;"/>
      </defs>
      <g>
       <use style="stroke:#000000;stroke-width:0.8;" x="54.02" xlink:href="#mb8ae30a8ed" y="319.04"/>
      </g>
     </g>
     <g id="text_18">
      <!-- 0.00 -->
      <g transform="translate(24.754375 322.839219)scale(0.1 -0.1)">
       <defs>
        <path d="M 684 794 
L 1344 794 
L 1344 0 
L 684 0 
L 684 794 
z
" id="DejaVuSans-2e" transform="scale(0.015625)"/>
       </defs>
       <use xlink:href="#DejaVuSans-30"/>
       <use x="63.623047" xlink:href="#DejaVuSans-2e"/>
       <use x="95.410156" xlink:href="#DejaVuSans-30"/>
       <use x="159.033203" xlink:href="#DejaVuSans-30"/>
      </g>
     </g>
    </g>
    <g id="ytick_2">
     <g id="line2d_35">
      <path clip-path="url(#pc57048c218)" d="M 54.02 285.84 
L 356.175 285.84 
" style="fill:none;stroke:#000000;stroke-dasharray:0.8,1.32;stroke-dashoffset:0;stroke-opacity:0.5;stroke-width:0.8;"/>
     </g>
     <g id="line2d_36">
      <g>
       <use style="stroke:#000000;stroke-width:0.8;" x="54.02" xlink:href="#mb8ae30a8ed" y="285.84"/>
      </g>
     </g>
     <g id="text_19">
      <!-- 0.25 -->
      <g transform="translate(24.754375 289.639219)scale(0.1 -0.1)">
       <use xlink:href="#DejaVuSans-30"/>
       <use x="63.623047" xlink:href="#DejaVuSans-2e"/>
       <use x="95.410156" xlink:href="#DejaVuSans-32"/>
       <use x="159.033203" xlink:href="#DejaVuSans-35"/>
      </g>
     </g>
    </g>
    <g id="ytick_3">
     <g id="line2d_37">
      <path clip-path="url(#pc57048c218)" d="M 54.02 252.64 
L 356.175 252.64 
" style="fill:none;stroke:#000000;stroke-dasharray:0.8,1.32;stroke-dashoffset:0;stroke-opacity:0.5;stroke-width:0.8;"/>
     </g>
     <g id="line2d_38">
      <g>
       <use style="stroke:#000000;stroke-width:0.8;" x="54.02" xlink:href="#mb8ae30a8ed" y="252.64"/>
      </g>
     </g>
     <g id="text_20">
      <!-- 0.50 -->
      <g transform="translate(24.754375 256.439219)scale(0.1 -0.1)">
       <use xlink:href="#DejaVuSans-30"/>
       <use x="63.623047" xlink:href="#DejaVuSans-2e"/>
       <use x="95.410156" xlink:href="#DejaVuSans-35"/>
       <use x="159.033203" xlink:href="#DejaVuSans-30"/>
      </g>
     </g>
    </g>
    <g id="ytick_4">
     <g id="line2d_39">
      <path clip-path="url(#pc57048c218)" d="M 54.02 219.44 
L 356.175 219.44 
" style="fill:none;stroke:#000000;stroke-dasharray:0.8,1.32;stroke-dashoffset:0;stroke-opacity:0.5;stroke-width:0.8;"/>
     </g>
     <g id="line2d_40">
      <g>
       <use style="stroke:#000000;stroke-width:0.8;" x="54.02" xlink:href="#mb8ae30a8ed" y="219.44"/>
      </g>
     </g>
     <g id="text_21">
      <!-- 0.75 -->
      <g transform="translate(24.754375 223.239219)scale(0.1 -0.1)">
       <defs>
        <path d="M 525 4666 
L 3525 4666 
L 3525 4397 
L 1831 0 
L 1172 0 
L 2766 4134 
L 525 4134 
L 525 4666 
z
" id="DejaVuSans-37" transform="scale(0.015625)"/>
       </defs>
       <use xlink:href="#DejaVuSans-30"/>
       <use x="63.623047" xlink:href="#DejaVuSans-2e"/>
       <use x="95.410156" xlink:href="#DejaVuSans-37"/>
       <use x="159.033203" xlink:href="#DejaVuSans-35"/>
      </g>
     </g>
    </g>
    <g id="ytick_5">
     <g id="line2d_41">
      <path clip-path="url(#pc57048c218)" d="M 54.02 186.24 
L 356.175 186.24 
" style="fill:none;stroke:#000000;stroke-dasharray:0.8,1.32;stroke-dashoffset:0;stroke-opacity:0.5;stroke-width:0.8;"/>
     </g>
     <g id="line2d_42">
      <g>
       <use style="stroke:#000000;stroke-width:0.8;" x="54.02" xlink:href="#mb8ae30a8ed" y="186.24"/>
      </g>
     </g>
     <g id="text_22">
      <!-- 1.00 -->
      <g transform="translate(24.754375 190.039219)scale(0.1 -0.1)">
       <use xlink:href="#DejaVuSans-31"/>
       <use x="63.623047" xlink:href="#DejaVuSans-2e"/>
       <use x="95.410156" xlink:href="#DejaVuSans-30"/>
       <use x="159.033203" xlink:href="#DejaVuSans-30"/>
      </g>
     </g>
    </g>
    <g id="ytick_6">
     <g id="line2d_43">
      <path clip-path="url(#pc57048c218)" d="M 54.02 153.04 
L 356.175 153.04 
" style="fill:none;stroke:#000000;stroke-dasharray:0.8,1.32;stroke-dashoffset:0;stroke-opacity:0.5;stroke-width:0.8;"/>
     </g>
     <g id="line2d_44">
      <g>
       <use style="stroke:#000000;stroke-width:0.8;" x="54.02" xlink:href="#mb8ae30a8ed" y="153.04"/>
      </g>
     </g>
     <g id="text_23">
      <!-- 1.25 -->
      <g transform="translate(24.754375 156.839219)scale(0.1 -0.1)">
       <use xlink:href="#DejaVuSans-31"/>
       <use x="63.623047" xlink:href="#DejaVuSans-2e"/>
       <use x="95.410156" xlink:href="#DejaVuSans-32"/>
       <use x="159.033203" xlink:href="#DejaVuSans-35"/>
      </g>
     </g>
    </g>
    <g id="ytick_7">
     <g id="line2d_45">
      <path clip-path="url(#pc57048c218)" d="M 54.02 119.84 
L 356.175 119.84 
" style="fill:none;stroke:#000000;stroke-dasharray:0.8,1.32;stroke-dashoffset:0;stroke-opacity:0.5;stroke-width:0.8;"/>
     </g>
     <g id="line2d_46">
      <g>
       <use style="stroke:#000000;stroke-width:0.8;" x="54.02" xlink:href="#mb8ae30a8ed" y="119.84"/>
      </g>
     </g>
     <g id="text_24">
      <!-- 1.50 -->
      <g transform="translate(24.754375 123.639219)scale(0.1 -0.1)">
       <use xlink:href="#DejaVuSans-31"/>
       <use x="63.623047" xlink:href="#DejaVuSans-2e"/>
       <use x="95.410156" xlink:href="#DejaVuSans-35"/>
       <use x="159.033203" xlink:href="#DejaVuSans-30"/>
      </g>
     </g>
    </g>
    <g id="ytick_8">
     <g id="line2d_47">
      <path clip-path="url(#pc57048c218)" d="M 54.02 86.64 
L 356.175 86.64 
" style="fill:none;stroke:#000000;stroke-dasharray:0.8,1.32;stroke-dashoffset:0;stroke-opacity:0.5;stroke-width:0.8;"/>
     </g>
     <g id="line2d_48">
      <g>
       <use style="stroke:#000000;stroke-width:0.8;" x="54.02" xlink:href="#mb8ae30a8ed" y="86.64"/>
      </g>
     </g>
     <g id="text_25">
      <!-- 1.75 -->
      <g transform="translate(24.754375 90.439219)scale(0.1 -0.1)">
       <use xlink:href="#DejaVuSans-31"/>
       <use x="63.623047" xlink:href="#DejaVuSans-2e"/>
       <use x="95.410156" xlink:href="#DejaVuSans-37"/>
       <use x="159.033203" xlink:href="#DejaVuSans-35"/>
      </g>
     </g>
    </g>
    <g id="ytick_9">
     <g id="line2d_49">
      <path clip-path="url(#pc57048c218)" d="M 54.02 53.44 
L 356.175 53.44 
" style="fill:none;stroke:#000000;stroke-dasharray:0.8,1.32;stroke-dashoffset:0;stroke-opacity:0.5;stroke-width:0.8;"/>
     </g>
     <g id="line2d_50">
      <g>
       <use style="stroke:#000000;stroke-width:0.8;" x="54.02" xlink:href="#mb8ae30a8ed" y="53.44"/>
      </g>
     </g>
     <g id="text_26">
      <!-- 2.00 -->
      <g transform="translate(24.754375 57.239219)scale(0.1 -0.1)">
       <use xlink:href="#DejaVuSans-32"/>
       <use x="63.623047" xlink:href="#DejaVuSans-2e"/>
       <use x="95.410156" xlink:href="#DejaVuSans-30"/>
       <use x="159.033203" xlink:href="#DejaVuSans-30"/>
      </g>
     </g>
    </g>
    <g id="text_27">
     <!-- 7d avg doses per hundred population per day -->
     <g transform="translate(18.674688 287.4475)rotate(-90)scale(0.1 -0.1)">
      <defs>
       <path d="M 2906 2969 
L 2906 4863 
L 3481 4863 
L 3481 0 
L 2906 0 
L 2906 525 
Q 2725 213 2448 61 
Q 2172 -91 1784 -91 
Q 1150 -91 751 415 
Q 353 922 353 1747 
Q 353 2572 751 3078 
Q 1150 3584 1784 3584 
Q 2172 3584 2448 3432 
Q 2725 3281 2906 2969 
z
M 947 1747 
Q 947 1113 1208 752 
Q 1469 391 1925 391 
Q 2381 391 2643 752 
Q 2906 1113 2906 1747 
Q 2906 2381 2643 2742 
Q 2381 3103 1925 3103 
Q 1469 3103 1208 2742 
Q 947 2381 947 1747 
z
" id="DejaVuSans-64" transform="scale(0.015625)"/>
       <path id="DejaVuSans-20" transform="scale(0.015625)"/>
       <path d="M 2834 3397 
L 2834 2853 
Q 2591 2978 2328 3040 
Q 2066 3103 1784 3103 
Q 1356 3103 1142 2972 
Q 928 2841 928 2578 
Q 928 2378 1081 2264 
Q 1234 2150 1697 2047 
L 1894 2003 
Q 2506 1872 2764 1633 
Q 3022 1394 3022 966 
Q 3022 478 2636 193 
Q 2250 -91 1575 -91 
Q 1294 -91 989 -36 
Q 684 19 347 128 
L 347 722 
Q 666 556 975 473 
Q 1284 391 1588 391 
Q 1994 391 2212 530 
Q 2431 669 2431 922 
Q 2431 1156 2273 1281 
Q 2116 1406 1581 1522 
L 1381 1569 
Q 847 1681 609 1914 
Q 372 2147 372 2553 
Q 372 3047 722 3315 
Q 1072 3584 1716 3584 
Q 2034 3584 2315 3537 
Q 2597 3491 2834 3397 
z
" id="DejaVuSans-73" transform="scale(0.015625)"/>
       <path d="M 2631 2963 
Q 2534 3019 2420 3045 
Q 2306 3072 2169 3072 
Q 1681 3072 1420 2755 
Q 1159 2438 1159 1844 
L 1159 0 
L 581 0 
L 581 3500 
L 1159 3500 
L 1159 2956 
Q 1341 3275 1631 3429 
Q 1922 3584 2338 3584 
Q 2397 3584 2469 3576 
Q 2541 3569 2628 3553 
L 2631 2963 
z
" id="DejaVuSans-72" transform="scale(0.015625)"/>
       <path d="M 3513 2113 
L 3513 0 
L 2938 0 
L 2938 2094 
Q 2938 2591 2744 2837 
Q 2550 3084 2163 3084 
Q 1697 3084 1428 2787 
Q 1159 2491 1159 1978 
L 1159 0 
L 581 0 
L 581 4863 
L 1159 4863 
L 1159 2956 
Q 1366 3272 1645 3428 
Q 1925 3584 2291 3584 
Q 2894 3584 3203 3211 
Q 3513 2838 3513 2113 
z
" id="DejaVuSans-68" transform="scale(0.015625)"/>
       <path d="M 603 3500 
L 1178 3500 
L 1178 0 
L 603 0 
L 603 3500 
z
M 603 4863 
L 1178 4863 
L 1178 4134 
L 603 4134 
L 603 4863 
z
" id="DejaVuSans-69" transform="scale(0.015625)"/>
      </defs>
      <use xlink:href="#DejaVuSans-37"/>
      <use x="63.623047" xlink:href="#DejaVuSans-64"/>
      <use x="127.099609" xlink:href="#DejaVuSans-20"/>
      <use x="158.886719" xlink:href="#DejaVuSans-61"/>
      <use x="220.166016" xlink:href="#DejaVuSans-76"/>
      <use x="279.345703" xlink:href="#DejaVuSans-67"/>
      <use x="342.822266" xlink:href="#DejaVuSans-20"/>
      <use x="374.609375" xlink:href="#DejaVuSans-64"/>
      <use x="438.085938" xlink:href="#DejaVuSans-6f"/>
      <use x="499.267578" xlink:href="#DejaVuSans-73"/>
      <use x="551.367188" xlink:href="#DejaVuSans-65"/>
      <use x="612.890625" xlink:href="#DejaVuSans-73"/>
      <use x="664.990234" xlink:href="#DejaVuSans-20"/>
      <use x="696.777344" xlink:href="#DejaVuSans-70"/>
      <use x="760.253906" xlink:href="#DejaVuSans-65"/>
      <use x="821.777344" xlink:href="#DejaVuSans-72"/>
      <use x="862.890625" xlink:href="#DejaVuSans-20"/>
      <use x="894.677734" xlink:href="#DejaVuSans-68"/>
      <use x="958.056641" xlink:href="#DejaVuSans-75"/>
      <use x="1021.435547" xlink:href="#DejaVuSans-6e"/>
      <use x="1084.814453" xlink:href="#DejaVuSans-64"/>
      <use x="1148.291016" xlink:href="#DejaVuSans-72"/>
      <use x="1187.154297" xlink:href="#DejaVuSans-65"/>
      <use x="1248.677734" xlink:href="#DejaVuSans-64"/>
      <use x="1312.154297" xlink:href="#DejaVuSans-20"/>
      <use x="1343.941406" xlink:href="#DejaVuSans-70"/>
      <use x="1407.417969" xlink:href="#DejaVuSans-6f"/>
      <use x="1468.599609" xlink:href="#DejaVuSans-70"/>
      <use x="1532.076172" xlink:href="#DejaVuSans-75"/>
      <use x="1595.455078" xlink:href="#DejaVuSans-6c"/>
      <use x="1623.238281" xlink:href="#DejaVuSans-61"/>
      <use x="1684.517578" xlink:href="#DejaVuSans-74"/>
      <use x="1723.726562" xlink:href="#DejaVuSans-69"/>
      <use x="1751.509766" xlink:href="#DejaVuSans-6f"/>
      <use x="1812.691406" xlink:href="#DejaVuSans-6e"/>
      <use x="1876.070312" xlink:href="#DejaVuSans-20"/>
      <use x="1907.857422" xlink:href="#DejaVuSans-70"/>
      <use x="1971.333984" xlink:href="#DejaVuSans-65"/>
      <use x="2032.857422" xlink:href="#DejaVuSans-72"/>
      <use x="2073.970703" xlink:href="#DejaVuSans-20"/>
      <use x="2105.757812" xlink:href="#DejaVuSans-64"/>
      <use x="2169.234375" xlink:href="#DejaVuSans-61"/>
      <use x="2230.513672" xlink:href="#DejaVuSans-79"/>
     </g>
    </g>
   </g>
   <g id="line2d_51">
    <path clip-path="url(#pc57048c218)" d="M -1 313.279669 
L -0.466967 313.279669 
L -0.466967 312.970084 
L 2.009713 312.913796 
L 2.009713 312.776141 
L 3.248053 312.776141 
L 3.248053 312.571052 
L 4.486393 312.571052 
L 4.486393 312.289055 
L 5.724734 312.289055 
L 5.724734 312.088703 
L 6.963074 312.088703 
L 6.963074 311.626973 
L 8.201414 311.626973 
L 8.201414 311.266953 
L 9.439754 311.266953 
L 9.439754 311.122053 
L 10.678094 311.122053 
L 10.678094 310.532978 
L 11.916434 310.532978 
L 11.916434 310.329561 
L 13.154775 310.329561 
L 13.154775 309.77309 
L 14.393115 309.77309 
L 14.393115 309.239468 
L 15.631455 309.239468 
L 15.631455 308.470662 
L 16.869795 308.470662 
L 16.869795 308.046829 
L 18.108135 308.046829 
L 18.108135 309.206586 
L 19.346475 309.206586 
L 19.346475 310.116391 
L 20.584816 310.116391 
L 20.584816 310.570318 
L 21.823156 310.570318 
L 21.823156 312.091768 
L 24.299836 312.158923 
L 24.299836 312.905437 
L 25.538176 312.905437 
L 25.538176 278.36407 
L 26.776516 278.36407 
L 26.776516 274.923811 
L 28.014857 274.923811 
L 28.014857 272.928371 
L 29.253197 272.928371 
L 29.253197 272.068724 
L 30.491537 272.068724 
L 30.491537 268.705094 
L 31.729877 268.705094 
L 31.729877 266.385858 
L 32.968217 266.385858 
L 32.968217 263.932869 
L 34.206557 263.932869 
L 34.206557 296.627597 
L 36.683238 296.696424 
L 36.683238 297.288564 
L 37.921578 297.288564 
L 37.921578 293.039372 
L 39.159918 293.039372 
L 39.159918 292.033153 
L 40.398258 292.033153 
L 40.398258 291.840325 
L 41.636598 291.840325 
L 41.636598 291.183817 
L 42.874939 291.183817 
L 42.874939 289.789712 
L 45.351619 289.682151 
L 45.351619 289.377583 
L 46.589959 289.377583 
L 46.589959 294.300838 
L 47.828299 294.300838 
L 47.828299 295.652587 
L 49.066639 295.652587 
L 49.066639 295.061563 
L 50.30498 295.061563 
L 50.30498 294.071784 
L 51.54332 294.071784 
L 51.54332 294.73498 
L 52.78166 294.73498 
L 52.78166 294.98354 
L 54.02 294.98354 
L 54.02 295.376999 
L 55.25834 295.376999 
L 55.25834 295.050417 
L 56.49668 295.050417 
L 56.49668 293.015965 
L 57.73502 293.015965 
L 57.73502 291.156787 
L 58.973361 291.156787 
L 58.973361 290.586104 
L 60.211701 290.586104 
L 60.211701 288.424029 
L 61.450041 288.424029 
L 61.450041 286.74514 
L 62.688381 286.74514 
L 62.688381 285.911408 
L 63.926721 285.911408 
L 63.926721 285.651703 
L 65.165061 285.651703 
L 65.165061 284.846672 
L 66.403402 284.846672 
L 66.403402 285.988595 
L 67.641742 285.988595 
L 67.641742 285.750068 
L 68.880082 285.750068 
L 68.880082 286.493795 
L 70.118422 286.493795 
L 70.118422 286.096434 
L 72.595102 286.176965 
L 72.595102 285.854563 
L 73.833443 285.854563 
L 73.833443 285.249048 
L 75.071783 285.249048 
L 75.071783 283.746268 
L 76.310123 283.746268 
L 76.310123 283.309339 
L 77.548463 283.309339 
L 77.548463 282.01137 
L 78.786803 282.01137 
L 78.786803 281.513415 
L 80.025143 281.513415 
L 80.025143 281.093206 
L 81.263484 281.093206 
L 81.263484 280.927685 
L 82.501824 280.927685 
L 82.501824 284.492503 
L 83.740164 284.492503 
L 83.740164 283.005606 
L 84.978504 283.005606 
L 84.978504 281.482764 
L 86.216844 281.482764 
L 86.216844 277.348656 
L 87.455184 277.348656 
L 87.455184 271.297132 
L 88.693525 271.297132 
L 88.693525 266.205291 
L 89.931865 266.205291 
L 89.931865 261.762156 
L 91.170205 261.762156 
L 91.170205 253.690949 
L 92.408545 253.690949 
L 92.408545 247.928946 
L 93.646885 247.928946 
L 93.646885 242.276733 
L 94.885225 242.276733 
L 94.885225 240.374642 
L 96.123566 240.374642 
L 96.123566 237.965958 
L 97.361906 237.965958 
L 97.361906 233.80928 
L 98.600246 233.80928 
L 98.600246 227.770295 
L 99.838586 227.770295 
L 99.838586 225.296407 
L 101.076926 225.296407 
L 101.076926 226.387615 
L 102.315266 226.387615 
L 102.315266 226.210112 
L 103.553607 226.210112 
L 103.553607 225.535213 
L 104.791947 225.535213 
L 104.791947 227.825747 
L 106.030287 227.825747 
L 106.030287 233.160016 
L 107.268627 233.160016 
L 107.268627 240.167045 
L 108.506967 240.167045 
L 108.506967 250.941193 
L 109.745307 250.941193 
L 109.745307 249.873114 
L 110.983648 249.873114 
L 110.983648 252.905981 
L 112.221988 252.905981 
L 112.221988 255.837141 
L 113.460328 255.837141 
L 113.460328 257.849021 
L 114.698668 257.849021 
L 114.698668 259.197705 
L 115.937008 259.197705 
L 115.937008 260.551405 
L 117.175348 260.551405 
L 117.175348 253.335387 
L 118.413689 253.335387 
L 118.413689 256.130842 
L 119.652029 256.130842 
L 119.652029 256.733291 
L 120.890369 256.733291 
L 120.890369 257.956024 
L 122.128709 257.956024 
L 122.128709 258.771922 
L 123.367049 258.771922 
L 123.367049 258.967816 
L 124.605389 258.967816 
L 124.605389 258.36871 
L 125.84373 258.36871 
L 125.84373 257.534978 
L 127.08207 257.534978 
L 127.08207 259.195476 
L 129.55875 259.104356 
L 129.55875 258.621449 
L 130.79709 258.621449 
L 130.79709 257.752049 
L 132.03543 257.752049 
L 132.03543 257.276945 
L 134.512111 257.356082 
L 134.512111 256.823018 
L 135.750451 256.823018 
L 135.750451 254.289497 
L 136.988791 254.289497 
L 136.988791 258.336665 
L 138.227131 258.336665 
L 138.227131 259.22167 
L 139.465471 259.22167 
L 139.465471 260.598219 
L 140.703811 260.598219 
L 140.703811 260.374182 
L 143.180492 260.276931 
L 143.180492 260.656458 
L 144.418832 260.656458 
L 144.418832 263.938721 
L 145.657172 263.938721 
L 145.657172 260.742283 
L 146.895512 260.742283 
L 146.895512 259.82189 
L 148.133852 259.82189 
L 148.133852 257.783816 
L 149.372193 257.783816 
L 149.372193 256.482781 
L 150.610533 256.482781 
L 150.610533 255.938849 
L 151.848873 255.938849 
L 151.848873 254.409597 
L 153.087213 254.409597 
L 153.087213 253.062027 
L 154.325553 253.062027 
L 154.325553 250.02916 
L 155.563893 250.02916 
L 155.563893 247.266865 
L 156.802234 247.266865 
L 156.802234 245.88725 
L 158.040574 245.88725 
L 158.040574 244.888276 
L 159.278914 244.888276 
L 159.278914 243.555196 
L 160.517254 243.555196 
L 160.517254 242.771622 
L 161.755594 242.771622 
L 161.755594 241.135367 
L 162.993934 241.135367 
L 162.993934 241.931202 
L 164.232275 241.931202 
L 164.232275 242.367295 
L 165.470615 242.367295 
L 165.470615 242.060497 
L 167.947295 242.10341 
L 167.947295 242.666569 
L 169.185635 242.666569 
L 169.185635 243.531789 
L 170.423975 243.531789 
L 170.423975 243.909644 
L 171.662316 243.909644 
L 171.662316 243.258708 
L 172.900656 243.258708 
L 172.900656 242.478478 
L 174.138996 242.478478 
L 174.138996 241.131187 
L 175.377336 241.131187 
L 175.377336 239.97338 
L 176.615676 239.97338 
L 176.615676 238.380038 
L 177.854016 238.380038 
L 177.854016 234.952596 
L 179.092357 234.952596 
L 179.092357 231.134482 
L 180.330697 231.134482 
L 180.330697 226.768813 
L 181.569037 226.768813 
L 181.569037 222.441877 
L 182.807377 222.441877 
L 182.807377 218.240335 
L 184.045717 218.240335 
L 184.045717 215.340943 
L 185.284057 215.340943 
L 185.284057 209.870309 
L 186.522398 209.870309 
L 186.522398 203.240013 
L 187.760738 203.240013 
L 187.760738 200.596992 
L 188.999078 200.596992 
L 188.999078 198.245968 
L 190.237418 198.245968 
L 190.237418 196.092662 
L 191.475758 196.092662 
L 191.475758 194.183469 
L 192.714098 194.183469 
L 192.714098 192.079372 
L 193.952439 192.079372 
L 193.952439 194.602365 
L 195.190779 194.602365 
L 195.190779 197.961055 
L 196.429119 197.961055 
L 196.429119 195.019503 
L 197.667459 195.019503 
L 197.667459 192.013777 
L 198.905799 192.013777 
L 198.905799 197.598153 
L 200.144139 197.598153 
L 200.144139 196.678119 
L 201.38248 196.678119 
L 201.38248 186.356424 
L 202.62082 186.356424 
L 202.62082 184.833258 
L 203.85916 184.833258 
L 203.85916 192.299158 
L 205.0975 192.299158 
L 205.0975 183.51937 
L 206.33584 183.51937 
L 206.33584 182.848087 
L 207.57418 182.848087 
L 207.57418 174.996568 
L 208.81252 174.996568 
L 208.81252 173.459487 
L 210.050861 173.459487 
L 210.050861 183.183729 
L 211.289201 183.183729 
L 211.289201 184.501591 
L 212.527541 184.501591 
L 212.527541 175.451757 
L 213.765881 175.451757 
L 213.765881 181.690094 
L 215.004221 181.690094 
L 215.004221 180.5764 
L 216.242561 180.5764 
L 216.242561 178.229179 
L 217.480902 178.229179 
L 217.480902 177.776545 
L 218.719242 177.776545 
L 218.719242 175.470498 
L 219.957582 175.470498 
L 219.957582 172.942962 
L 221.195922 172.942962 
L 221.195922 173.666211 
L 222.434262 173.666211 
L 222.434262 175.384458 
L 223.672602 175.384458 
L 223.672602 170.849602 
L 226.149283 170.819787 
L 226.149283 168.074736 
L 227.387623 168.074736 
L 227.387623 165.057084 
L 228.625963 165.057084 
L 228.625963 162.266032 
L 229.864303 162.266032 
L 229.864303 157.328804 
L 231.102643 157.328804 
L 231.102643 152.920027 
L 232.340984 152.920027 
L 232.340984 154.418488 
L 233.579324 154.418488 
L 233.579324 150.19457 
L 234.817664 150.19457 
L 234.817664 158.67989 
L 236.056004 158.67989 
L 236.056004 161.694987 
L 237.294344 161.694987 
L 237.294344 163.13552 
L 238.532684 163.13552 
L 238.532684 162.314305 
L 239.771025 162.314305 
L 239.771025 163.012281 
L 241.009365 163.012281 
L 241.009365 166.302536 
L 242.247705 166.302536 
L 242.247705 168.466035 
L 243.486045 168.466035 
L 243.486045 159.742755 
L 244.724385 159.742755 
L 244.724385 156.191256 
L 245.962725 156.191256 
L 245.962725 156.048424 
L 247.201066 156.048424 
L 247.201066 154.615841 
L 248.439406 154.615841 
L 248.439406 153.044401 
L 249.677746 153.044401 
L 249.677746 149.768344 
L 250.916086 149.768344 
L 250.916086 149.472457 
L 252.154426 149.472457 
L 252.154426 147.682651 
L 253.392766 147.682651 
L 253.392766 145.19061 
L 254.631107 145.19061 
L 254.631107 143.069706 
L 255.869447 143.069706 
L 255.869447 144.573279 
L 257.107787 144.573279 
L 257.107787 144.089694 
L 258.346127 144.089694 
L 258.346127 143.700952 
L 259.584467 143.700952 
L 259.584467 142.558009 
L 260.822807 142.558009 
L 260.822807 142.149105 
L 262.061148 142.149105 
L 262.061148 143.213675 
L 263.299488 143.213675 
L 263.299488 143.681358 
L 264.537828 143.681358 
L 264.537828 141.054152 
L 265.776168 141.054152 
L 265.776168 139.836811 
L 267.014508 139.836811 
L 267.014508 139.564209 
L 268.252848 139.564209 
L 268.252848 138.797514 
L 270.729529 138.693869 
L 270.729529 138.637077 
L 271.967869 138.637077 
L 271.967869 140.835502 
L 273.206209 140.835502 
L 273.206209 144.458275 
L 274.444549 144.458275 
L 274.444549 151.193544 
L 275.682889 151.193544 
L 275.682889 159.088793 
L 276.92123 159.088793 
L 276.92123 167.716946 
L 278.15957 167.716946 
L 278.15957 176.162227 
L 279.39791 176.162227 
L 279.39791 183.417996 
L 280.63625 183.417996 
L 280.63625 189.462672 
L 281.87459 189.462672 
L 281.87459 197.545336 
L 283.11293 197.545336 
L 283.11293 214.824925 
L 284.35127 214.824925 
L 284.35127 218.138181 
L 285.589611 218.138181 
L 285.589611 222.283727 
L 286.827951 222.283727 
L 286.827951 226.62918 
L 288.066291 226.62918 
L 288.066291 232.257002 
L 289.304631 232.257002 
L 289.304631 235.430833 
L 290.542971 235.430833 
L 290.542971 240.284009 
L 291.781311 240.284009 
L 291.781311 234.190492 
L 293.019652 234.190492 
L 293.019652 240.409236 
L 294.257992 240.409236 
L 294.257992 245.999574 
L 295.496332 245.999574 
L 295.496332 250.582419 
L 296.734672 250.582419 
L 296.734672 253.677877 
L 297.973012 253.677877 
L 297.973012 253.677877 
" style="fill:none;stroke:#1f77b4;stroke-linecap:square;stroke-width:1.5;"/>
   </g>
   <g id="line2d_52">
    <path clip-path="url(#pc57048c218)" d="M 297.973012 252.64 
L 332.646537 252.64 
L 332.646537 319.04 
L 545.641045 319.04 
L 545.641045 319.04 
" style="fill:none;stroke:#ff7f0e;stroke-linecap:square;stroke-width:1.5;"/>
   </g>
   <g id="patch_3">
    <path d="M 54.02 319.04 
L 54.02 26.88 
" style="fill:none;stroke:#000000;stroke-linecap:square;stroke-linejoin:miter;stroke-width:0.8;"/>
   </g>
   <g id="patch_4">
    <path d="M 356.175 319.04 
L 356.175 26.88 
" style="fill:none;stroke:#000000;stroke-linecap:square;stroke-linejoin:miter;stroke-width:0.8;"/>
   </g>
   <g id="patch_5">
    <path d="M 54.02 319.04 
L 356.175 319.04 
" style="fill:none;stroke:#000000;stroke-linecap:square;stroke-linejoin:miter;stroke-width:0.8;"/>
   </g>
   <g id="patch_6">
    <path d="M 54.02 26.88 
L 356.175 26.88 
" style="fill:none;stroke:#000000;stroke-linecap:square;stroke-linejoin:miter;stroke-width:0.8;"/>
   </g>
   <g id="text_28">
    <!-- VIC daily vaccinations per capita -->
    <g transform="translate(106.995625 20.88)scale(0.12 -0.12)">
     <defs>
      <path d="M 1831 0 
L 50 4666 
L 709 4666 
L 2188 738 
L 3669 4666 
L 4325 4666 
L 2547 0 
L 1831 0 
z
" id="DejaVuSans-56" transform="scale(0.015625)"/>
      <path d="M 628 4666 
L 1259 4666 
L 1259 0 
L 628 0 
L 628 4666 
z
" id="DejaVuSans-49" transform="scale(0.015625)"/>
      <path d="M 4122 4306 
L 4122 3641 
Q 3803 3938 3442 4084 
Q 3081 4231 2675 4231 
Q 1875 4231 1450 3742 
Q 1025 3253 1025 2328 
Q 1025 1406 1450 917 
Q 1875 428 2675 428 
Q 3081 428 3442 575 
Q 3803 722 4122 1019 
L 4122 359 
Q 3791 134 3420 21 
Q 3050 -91 2638 -91 
Q 1578 -91 968 557 
Q 359 1206 359 2328 
Q 359 3453 968 4101 
Q 1578 4750 2638 4750 
Q 3056 4750 3426 4639 
Q 3797 4528 4122 4306 
z
" id="DejaVuSans-43" transform="scale(0.015625)"/>
     </defs>
     <use xlink:href="#DejaVuSans-56"/>
     <use x="68.408203" xlink:href="#DejaVuSans-49"/>
     <use x="97.900391" xlink:href="#DejaVuSans-43"/>
     <use x="167.724609" xlink:href="#DejaVuSans-20"/>
     <use x="199.511719" xlink:href="#DejaVuSans-64"/>
     <use x="262.988281" xlink:href="#DejaVuSans-61"/>
     <use x="324.267578" xlink:href="#DejaVuSans-69"/>
     <use x="352.050781" xlink:href="#DejaVuSans-6c"/>
     <use x="379.833984" xlink:href="#DejaVuSans-79"/>
     <use x="439.013672" xlink:href="#DejaVuSans-20"/>
     <use x="470.800781" xlink:href="#DejaVuSans-76"/>
     <use x="529.980469" xlink:href="#DejaVuSans-61"/>
     <use x="591.259766" xlink:href="#DejaVuSans-63"/>
     <use x="646.240234" xlink:href="#DejaVuSans-63"/>
     <use x="701.220703" xlink:href="#DejaVuSans-69"/>
     <use x="729.003906" xlink:href="#DejaVuSans-6e"/>
     <use x="792.382812" xlink:href="#DejaVuSans-61"/>
     <use x="853.662109" xlink:href="#DejaVuSans-74"/>
     <use x="892.871094" xlink:href="#DejaVuSans-69"/>
     <use x="920.654297" xlink:href="#DejaVuSans-6f"/>
     <use x="981.835938" xlink:href="#DejaVuSans-6e"/>
     <use x="1045.214844" xlink:href="#DejaVuSans-73"/>
     <use x="1097.314453" xlink:href="#DejaVuSans-20"/>
     <use x="1129.101562" xlink:href="#DejaVuSans-70"/>
     <use x="1192.578125" xlink:href="#DejaVuSans-65"/>
     <use x="1254.101562" xlink:href="#DejaVuSans-72"/>
     <use x="1295.214844" xlink:href="#DejaVuSans-20"/>
     <use x="1327.001953" xlink:href="#DejaVuSans-63"/>
     <use x="1381.982422" xlink:href="#DejaVuSans-61"/>
     <use x="1443.261719" xlink:href="#DejaVuSans-70"/>
     <use x="1506.738281" xlink:href="#DejaVuSans-69"/>
     <use x="1534.521484" xlink:href="#DejaVuSans-74"/>
     <use x="1573.730469" xlink:href="#DejaVuSans-61"/>
    </g>
   </g>
   <g id="legend_1">
    <g id="patch_7">
     <path d="M 201.292187 64.23625 
L 349.175 64.23625 
Q 351.175 64.23625 351.175 62.23625 
L 351.175 33.88 
Q 351.175 31.88 349.175 31.88 
L 201.292187 31.88 
Q 199.292187 31.88 199.292187 33.88 
L 199.292187 62.23625 
Q 199.292187 64.23625 201.292187 64.23625 
z
" style="fill:#ffffff;opacity:0.8;stroke:#cccccc;stroke-linejoin:miter;"/>
    </g>
    <g id="line2d_53">
     <path d="M 203.292187 39.978437 
L 223.292187 39.978437 
" style="fill:none;stroke:#1f77b4;stroke-linecap:square;stroke-width:1.5;"/>
    </g>
    <g id="line2d_54"/>
    <g id="text_29">
     <!-- Actual -->
     <g transform="translate(231.292187 43.478437)scale(0.1 -0.1)">
      <use xlink:href="#DejaVuSans-41"/>
      <use x="66.658203" xlink:href="#DejaVuSans-63"/>
      <use x="121.638672" xlink:href="#DejaVuSans-74"/>
      <use x="160.847656" xlink:href="#DejaVuSans-75"/>
      <use x="224.226562" xlink:href="#DejaVuSans-61"/>
      <use x="285.505859" xlink:href="#DejaVuSans-6c"/>
     </g>
    </g>
    <g id="line2d_55">
     <path d="M 203.292187 54.656563 
L 223.292187 54.656563 
" style="fill:none;stroke:#ff7f0e;stroke-linecap:square;stroke-width:1.5;"/>
    </g>
    <g id="line2d_56"/>
    <g id="text_30">
     <!-- Assumed for projection -->
     <g transform="translate(231.292187 58.156563)scale(0.1 -0.1)">
      <defs>
       <path d="M 3328 2828 
Q 3544 3216 3844 3400 
Q 4144 3584 4550 3584 
Q 5097 3584 5394 3201 
Q 5691 2819 5691 2113 
L 5691 0 
L 5113 0 
L 5113 2094 
Q 5113 2597 4934 2840 
Q 4756 3084 4391 3084 
Q 3944 3084 3684 2787 
Q 3425 2491 3425 1978 
L 3425 0 
L 2847 0 
L 2847 2094 
Q 2847 2600 2669 2842 
Q 2491 3084 2119 3084 
Q 1678 3084 1418 2786 
Q 1159 2488 1159 1978 
L 1159 0 
L 581 0 
L 581 3500 
L 1159 3500 
L 1159 2956 
Q 1356 3278 1631 3431 
Q 1906 3584 2284 3584 
Q 2666 3584 2933 3390 
Q 3200 3197 3328 2828 
z
" id="DejaVuSans-6d" transform="scale(0.015625)"/>
       <path d="M 2375 4863 
L 2375 4384 
L 1825 4384 
Q 1516 4384 1395 4259 
Q 1275 4134 1275 3809 
L 1275 3500 
L 2222 3500 
L 2222 3053 
L 1275 3053 
L 1275 0 
L 697 0 
L 697 3053 
L 147 3053 
L 147 3500 
L 697 3500 
L 697 3744 
Q 697 4328 969 4595 
Q 1241 4863 1831 4863 
L 2375 4863 
z
" id="DejaVuSans-66" transform="scale(0.015625)"/>
       <path d="M 603 3500 
L 1178 3500 
L 1178 -63 
Q 1178 -731 923 -1031 
Q 669 -1331 103 -1331 
L -116 -1331 
L -116 -844 
L 38 -844 
Q 366 -844 484 -692 
Q 603 -541 603 -63 
L 603 3500 
z
M 603 4863 
L 1178 4863 
L 1178 4134 
L 603 4134 
L 603 4863 
z
" id="DejaVuSans-6a" transform="scale(0.015625)"/>
      </defs>
      <use xlink:href="#DejaVuSans-41"/>
      <use x="68.408203" xlink:href="#DejaVuSans-73"/>
      <use x="120.507812" xlink:href="#DejaVuSans-73"/>
      <use x="172.607422" xlink:href="#DejaVuSans-75"/>
      <use x="235.986328" xlink:href="#DejaVuSans-6d"/>
      <use x="333.398438" xlink:href="#DejaVuSans-65"/>
      <use x="394.921875" xlink:href="#DejaVuSans-64"/>
      <use x="458.398438" xlink:href="#DejaVuSans-20"/>
      <use x="490.185547" xlink:href="#DejaVuSans-66"/>
      <use x="525.390625" xlink:href="#DejaVuSans-6f"/>
      <use x="586.572266" xlink:href="#DejaVuSans-72"/>
      <use x="627.685547" xlink:href="#DejaVuSans-20"/>
      <use x="659.472656" xlink:href="#DejaVuSans-70"/>
      <use x="722.949219" xlink:href="#DejaVuSans-72"/>
      <use x="761.8125" xlink:href="#DejaVuSans-6f"/>
      <use x="822.994141" xlink:href="#DejaVuSans-6a"/>
      <use x="850.777344" xlink:href="#DejaVuSans-65"/>
      <use x="912.300781" xlink:href="#DejaVuSans-63"/>
      <use x="967.28125" xlink:href="#DejaVuSans-74"/>
      <use x="1006.490234" xlink:href="#DejaVuSans-69"/>
      <use x="1034.273438" xlink:href="#DejaVuSans-6f"/>
      <use x="1095.455078" xlink:href="#DejaVuSans-6e"/>
     </g>
    </g>
   </g>
  </g>
  <g id="axes_2">
   <g id="patch_8">
    <path d="M 407.045 319.04 
L 709.2 319.04 
L 709.2 26.88 
L 407.045 26.88 
z
" style="fill:#ffffff;"/>
   </g>
   <g id="matplotlib.axis_3">
    <g id="xtick_17">
     <g id="line2d_57">
      <path clip-path="url(#pa0b788f663)" d="M 407.045 319.04 
L 407.045 26.88 
" style="fill:none;stroke:#000000;stroke-dasharray:0.8,1.32;stroke-dashoffset:0;stroke-opacity:0.5;stroke-width:0.8;"/>
     </g>
     <g id="line2d_58">
      <g>
       <use style="stroke:#000000;stroke-width:0.8;" x="407.045" xlink:href="#maf2fcf8993" y="319.04"/>
      </g>
     </g>
     <g id="text_31">
      <!-- May -->
      <g transform="translate(396.7075 333.638438)scale(0.1 -0.1)">
       <use xlink:href="#DejaVuSans-4d"/>
       <use x="86.279297" xlink:href="#DejaVuSans-61"/>
       <use x="147.558594" xlink:href="#DejaVuSans-79"/>
      </g>
     </g>
    </g>
    <g id="xtick_18">
     <g id="line2d_59">
      <path clip-path="url(#pa0b788f663)" d="M 424.381762 319.04 
L 424.381762 26.88 
" style="fill:none;stroke:#000000;stroke-dasharray:0.8,1.32;stroke-dashoffset:0;stroke-opacity:0.5;stroke-width:0.8;"/>
     </g>
     <g id="line2d_60">
      <g>
       <use style="stroke:#000000;stroke-width:0.8;" x="424.381762" xlink:href="#maf2fcf8993" y="319.04"/>
      </g>
     </g>
     <g id="text_32">
      <!-- 15 -->
      <g transform="translate(418.019262 333.638438)scale(0.1 -0.1)">
       <use xlink:href="#DejaVuSans-31"/>
       <use x="63.623047" xlink:href="#DejaVuSans-35"/>
      </g>
     </g>
    </g>
    <g id="xtick_19">
     <g id="line2d_61">
      <path clip-path="url(#pa0b788f663)" d="M 445.433545 319.04 
L 445.433545 26.88 
" style="fill:none;stroke:#000000;stroke-dasharray:0.8,1.32;stroke-dashoffset:0;stroke-opacity:0.5;stroke-width:0.8;"/>
     </g>
     <g id="line2d_62">
      <g>
       <use style="stroke:#000000;stroke-width:0.8;" x="445.433545" xlink:href="#maf2fcf8993" y="319.04"/>
      </g>
     </g>
     <g id="text_33">
      <!-- Jun -->
      <g transform="translate(437.621045 333.638438)scale(0.1 -0.1)">
       <use xlink:href="#DejaVuSans-4a"/>
       <use x="29.492188" xlink:href="#DejaVuSans-75"/>
       <use x="92.871094" xlink:href="#DejaVuSans-6e"/>
      </g>
     </g>
    </g>
    <g id="xtick_20">
     <g id="line2d_63">
      <path clip-path="url(#pa0b788f663)" d="M 462.770307 319.04 
L 462.770307 26.88 
" style="fill:none;stroke:#000000;stroke-dasharray:0.8,1.32;stroke-dashoffset:0;stroke-opacity:0.5;stroke-width:0.8;"/>
     </g>
     <g id="line2d_64">
      <g>
       <use style="stroke:#000000;stroke-width:0.8;" x="462.770307" xlink:href="#maf2fcf8993" y="319.04"/>
      </g>
     </g>
     <g id="text_34">
      <!-- 15 -->
      <g transform="translate(456.407807 333.638438)scale(0.1 -0.1)">
       <use xlink:href="#DejaVuSans-31"/>
       <use x="63.623047" xlink:href="#DejaVuSans-35"/>
      </g>
     </g>
    </g>
    <g id="xtick_21">
     <g id="line2d_65">
      <path clip-path="url(#pa0b788f663)" d="M 482.58375 319.04 
L 482.58375 26.88 
" style="fill:none;stroke:#000000;stroke-dasharray:0.8,1.32;stroke-dashoffset:0;stroke-opacity:0.5;stroke-width:0.8;"/>
     </g>
     <g id="line2d_66">
      <g>
       <use style="stroke:#000000;stroke-width:0.8;" x="482.58375" xlink:href="#maf2fcf8993" y="319.04"/>
      </g>
     </g>
     <g id="text_35">
      <!-- Jul -->
      <g transform="translate(476.550938 333.638438)scale(0.1 -0.1)">
       <use xlink:href="#DejaVuSans-4a"/>
       <use x="29.492188" xlink:href="#DejaVuSans-75"/>
       <use x="92.871094" xlink:href="#DejaVuSans-6c"/>
      </g>
     </g>
    </g>
    <g id="xtick_22">
     <g id="line2d_67">
      <path clip-path="url(#pa0b788f663)" d="M 499.920512 319.04 
L 499.920512 26.88 
" style="fill:none;stroke:#000000;stroke-dasharray:0.8,1.32;stroke-dashoffset:0;stroke-opacity:0.5;stroke-width:0.8;"/>
     </g>
     <g id="line2d_68">
      <g>
       <use style="stroke:#000000;stroke-width:0.8;" x="499.920512" xlink:href="#maf2fcf8993" y="319.04"/>
      </g>
     </g>
     <g id="text_36">
      <!-- 15 -->
      <g transform="translate(493.558012 333.638438)scale(0.1 -0.1)">
       <use xlink:href="#DejaVuSans-31"/>
       <use x="63.623047" xlink:href="#DejaVuSans-35"/>
      </g>
     </g>
    </g>
    <g id="xtick_23">
     <g id="line2d_69">
      <path clip-path="url(#pa0b788f663)" d="M 520.972295 319.04 
L 520.972295 26.88 
" style="fill:none;stroke:#000000;stroke-dasharray:0.8,1.32;stroke-dashoffset:0;stroke-opacity:0.5;stroke-width:0.8;"/>
     </g>
     <g id="line2d_70">
      <g>
       <use style="stroke:#000000;stroke-width:0.8;" x="520.972295" xlink:href="#maf2fcf8993" y="319.04"/>
      </g>
     </g>
     <g id="text_37">
      <!-- Aug -->
      <g transform="translate(511.209014 333.638438)scale(0.1 -0.1)">
       <use xlink:href="#DejaVuSans-41"/>
       <use x="68.408203" xlink:href="#DejaVuSans-75"/>
       <use x="131.787109" xlink:href="#DejaVuSans-67"/>
      </g>
     </g>
    </g>
    <g id="xtick_24">
     <g id="line2d_71">
      <path clip-path="url(#pa0b788f663)" d="M 538.309057 319.04 
L 538.309057 26.88 
" style="fill:none;stroke:#000000;stroke-dasharray:0.8,1.32;stroke-dashoffset:0;stroke-opacity:0.5;stroke-width:0.8;"/>
     </g>
     <g id="line2d_72">
      <g>
       <use style="stroke:#000000;stroke-width:0.8;" x="538.309057" xlink:href="#maf2fcf8993" y="319.04"/>
      </g>
     </g>
     <g id="text_38">
      <!-- 15 -->
      <g transform="translate(531.946557 333.638438)scale(0.1 -0.1)">
       <use xlink:href="#DejaVuSans-31"/>
       <use x="63.623047" xlink:href="#DejaVuSans-35"/>
      </g>
     </g>
    </g>
    <g id="xtick_25">
     <g id="line2d_73">
      <path clip-path="url(#pa0b788f663)" d="M 559.36084 319.04 
L 559.36084 26.88 
" style="fill:none;stroke:#000000;stroke-dasharray:0.8,1.32;stroke-dashoffset:0;stroke-opacity:0.5;stroke-width:0.8;"/>
     </g>
     <g id="line2d_74">
      <g>
       <use style="stroke:#000000;stroke-width:0.8;" x="559.36084" xlink:href="#maf2fcf8993" y="319.04"/>
      </g>
     </g>
     <g id="text_39">
      <!-- Sep -->
      <g transform="translate(549.93584 333.638438)scale(0.1 -0.1)">
       <use xlink:href="#DejaVuSans-53"/>
       <use x="63.476562" xlink:href="#DejaVuSans-65"/>
       <use x="125" xlink:href="#DejaVuSans-70"/>
      </g>
     </g>
    </g>
    <g id="xtick_26">
     <g id="line2d_75">
      <path clip-path="url(#pa0b788f663)" d="M 576.697602 319.04 
L 576.697602 26.88 
" style="fill:none;stroke:#000000;stroke-dasharray:0.8,1.32;stroke-dashoffset:0;stroke-opacity:0.5;stroke-width:0.8;"/>
     </g>
     <g id="line2d_76">
      <g>
       <use style="stroke:#000000;stroke-width:0.8;" x="576.697602" xlink:href="#maf2fcf8993" y="319.04"/>
      </g>
     </g>
     <g id="text_40">
      <!-- 15 -->
      <g transform="translate(570.335102 333.638438)scale(0.1 -0.1)">
       <use xlink:href="#DejaVuSans-31"/>
       <use x="63.623047" xlink:href="#DejaVuSans-35"/>
      </g>
     </g>
    </g>
    <g id="xtick_27">
     <g id="line2d_77">
      <path clip-path="url(#pa0b788f663)" d="M 596.511045 319.04 
L 596.511045 26.88 
" style="fill:none;stroke:#000000;stroke-dasharray:0.8,1.32;stroke-dashoffset:0;stroke-opacity:0.5;stroke-width:0.8;"/>
     </g>
     <g id="line2d_78">
      <g>
       <use style="stroke:#000000;stroke-width:0.8;" x="596.511045" xlink:href="#maf2fcf8993" y="319.04"/>
      </g>
     </g>
     <g id="text_41">
      <!-- Oct -->
      <g transform="translate(587.865733 333.638438)scale(0.1 -0.1)">
       <use xlink:href="#DejaVuSans-4f"/>
       <use x="78.710938" xlink:href="#DejaVuSans-63"/>
       <use x="133.691406" xlink:href="#DejaVuSans-74"/>
      </g>
     </g>
    </g>
    <g id="xtick_28">
     <g id="line2d_79">
      <path clip-path="url(#pa0b788f663)" d="M 613.847807 319.04 
L 613.847807 26.88 
" style="fill:none;stroke:#000000;stroke-dasharray:0.8,1.32;stroke-dashoffset:0;stroke-opacity:0.5;stroke-width:0.8;"/>
     </g>
     <g id="line2d_80">
      <g>
       <use style="stroke:#000000;stroke-width:0.8;" x="613.847807" xlink:href="#maf2fcf8993" y="319.04"/>
      </g>
     </g>
     <g id="text_42">
      <!-- 15 -->
      <g transform="translate(607.485307 333.638438)scale(0.1 -0.1)">
       <use xlink:href="#DejaVuSans-31"/>
       <use x="63.623047" xlink:href="#DejaVuSans-35"/>
      </g>
     </g>
    </g>
    <g id="xtick_29">
     <g id="line2d_81">
      <path clip-path="url(#pa0b788f663)" d="M 634.89959 319.04 
L 634.89959 26.88 
" style="fill:none;stroke:#000000;stroke-dasharray:0.8,1.32;stroke-dashoffset:0;stroke-opacity:0.5;stroke-width:0.8;"/>
     </g>
     <g id="line2d_82">
      <g>
       <use style="stroke:#000000;stroke-width:0.8;" x="634.89959" xlink:href="#maf2fcf8993" y="319.04"/>
      </g>
     </g>
     <g id="text_43">
      <!-- Nov -->
      <g transform="translate(625.140215 333.638438)scale(0.1 -0.1)">
       <use xlink:href="#DejaVuSans-4e"/>
       <use x="74.804688" xlink:href="#DejaVuSans-6f"/>
       <use x="135.986328" xlink:href="#DejaVuSans-76"/>
      </g>
     </g>
    </g>
    <g id="xtick_30">
     <g id="line2d_83">
      <path clip-path="url(#pa0b788f663)" d="M 652.236352 319.04 
L 652.236352 26.88 
" style="fill:none;stroke:#000000;stroke-dasharray:0.8,1.32;stroke-dashoffset:0;stroke-opacity:0.5;stroke-width:0.8;"/>
     </g>
     <g id="line2d_84">
      <g>
       <use style="stroke:#000000;stroke-width:0.8;" x="652.236352" xlink:href="#maf2fcf8993" y="319.04"/>
      </g>
     </g>
     <g id="text_44">
      <!-- 15 -->
      <g transform="translate(645.873852 333.638438)scale(0.1 -0.1)">
       <use xlink:href="#DejaVuSans-31"/>
       <use x="63.623047" xlink:href="#DejaVuSans-35"/>
      </g>
     </g>
    </g>
    <g id="xtick_31">
     <g id="line2d_85">
      <path clip-path="url(#pa0b788f663)" d="M 672.049795 319.04 
L 672.049795 26.88 
" style="fill:none;stroke:#000000;stroke-dasharray:0.8,1.32;stroke-dashoffset:0;stroke-opacity:0.5;stroke-width:0.8;"/>
     </g>
     <g id="line2d_86">
      <g>
       <use style="stroke:#000000;stroke-width:0.8;" x="672.049795" xlink:href="#maf2fcf8993" y="319.04"/>
      </g>
     </g>
     <g id="text_45">
      <!-- Dec -->
      <g transform="translate(662.374014 333.638438)scale(0.1 -0.1)">
       <use xlink:href="#DejaVuSans-44"/>
       <use x="77.001953" xlink:href="#DejaVuSans-65"/>
       <use x="138.525391" xlink:href="#DejaVuSans-63"/>
      </g>
     </g>
    </g>
    <g id="xtick_32">
     <g id="line2d_87">
      <path clip-path="url(#pa0b788f663)" d="M 689.386557 319.04 
L 689.386557 26.88 
" style="fill:none;stroke:#000000;stroke-dasharray:0.8,1.32;stroke-dashoffset:0;stroke-opacity:0.5;stroke-width:0.8;"/>
     </g>
     <g id="line2d_88">
      <g>
       <use style="stroke:#000000;stroke-width:0.8;" x="689.386557" xlink:href="#maf2fcf8993" y="319.04"/>
      </g>
     </g>
     <g id="text_46">
      <!-- 15 -->
      <g transform="translate(683.024057 333.638438)scale(0.1 -0.1)">
       <use xlink:href="#DejaVuSans-31"/>
       <use x="63.623047" xlink:href="#DejaVuSans-35"/>
      </g>
     </g>
    </g>
    <g id="text_47">
     <!-- 2021-Dec -->
     <g transform="translate(660.790625 346.316563)scale(0.1 -0.1)">
      <use xlink:href="#DejaVuSans-32"/>
      <use x="63.623047" xlink:href="#DejaVuSans-30"/>
      <use x="127.246094" xlink:href="#DejaVuSans-32"/>
      <use x="190.869141" xlink:href="#DejaVuSans-31"/>
      <use x="254.492188" xlink:href="#DejaVuSans-2d"/>
      <use x="290.576172" xlink:href="#DejaVuSans-44"/>
      <use x="367.578125" xlink:href="#DejaVuSans-65"/>
      <use x="429.101562" xlink:href="#DejaVuSans-63"/>
     </g>
    </g>
   </g>
   <g id="matplotlib.axis_4">
    <g id="ytick_10">
     <g id="line2d_89">
      <path clip-path="url(#pa0b788f663)" d="M 407.045 319.04 
L 709.2 319.04 
" style="fill:none;stroke:#000000;stroke-dasharray:0.8,1.32;stroke-dashoffset:0;stroke-opacity:0.5;stroke-width:0.8;"/>
     </g>
     <g id="line2d_90">
      <g>
       <use style="stroke:#000000;stroke-width:0.8;" x="407.045" xlink:href="#mb8ae30a8ed" y="319.04"/>
      </g>
     </g>
     <g id="text_48">
      <!-- 0 -->
      <g transform="translate(393.6825 322.839219)scale(0.1 -0.1)">
       <use xlink:href="#DejaVuSans-30"/>
      </g>
     </g>
    </g>
    <g id="ytick_11">
     <g id="line2d_91">
      <path clip-path="url(#pa0b788f663)" d="M 407.045 282.52 
L 709.2 282.52 
" style="fill:none;stroke:#000000;stroke-dasharray:0.8,1.32;stroke-dashoffset:0;stroke-opacity:0.5;stroke-width:0.8;"/>
     </g>
     <g id="line2d_92">
      <g>
       <use style="stroke:#000000;stroke-width:0.8;" x="407.045" xlink:href="#mb8ae30a8ed" y="282.52"/>
      </g>
     </g>
     <g id="text_49">
      <!-- 25 -->
      <g transform="translate(387.32 286.319219)scale(0.1 -0.1)">
       <use xlink:href="#DejaVuSans-32"/>
       <use x="63.623047" xlink:href="#DejaVuSans-35"/>
      </g>
     </g>
    </g>
    <g id="ytick_12">
     <g id="line2d_93">
      <path clip-path="url(#pa0b788f663)" d="M 407.045 246 
L 709.2 246 
" style="fill:none;stroke:#000000;stroke-dasharray:0.8,1.32;stroke-dashoffset:0;stroke-opacity:0.5;stroke-width:0.8;"/>
     </g>
     <g id="line2d_94">
      <g>
       <use style="stroke:#000000;stroke-width:0.8;" x="407.045" xlink:href="#mb8ae30a8ed" y="246"/>
      </g>
     </g>
     <g id="text_50">
      <!-- 50 -->
      <g transform="translate(387.32 249.799219)scale(0.1 -0.1)">
       <use xlink:href="#DejaVuSans-35"/>
       <use x="63.623047" xlink:href="#DejaVuSans-30"/>
      </g>
     </g>
    </g>
    <g id="ytick_13">
     <g id="line2d_95">
      <path clip-path="url(#pa0b788f663)" d="M 407.045 209.48 
L 709.2 209.48 
" style="fill:none;stroke:#000000;stroke-dasharray:0.8,1.32;stroke-dashoffset:0;stroke-opacity:0.5;stroke-width:0.8;"/>
     </g>
     <g id="line2d_96">
      <g>
       <use style="stroke:#000000;stroke-width:0.8;" x="407.045" xlink:href="#mb8ae30a8ed" y="209.48"/>
      </g>
     </g>
     <g id="text_51">
      <!-- 75 -->
      <g transform="translate(387.32 213.279219)scale(0.1 -0.1)">
       <use xlink:href="#DejaVuSans-37"/>
       <use x="63.623047" xlink:href="#DejaVuSans-35"/>
      </g>
     </g>
    </g>
    <g id="ytick_14">
     <g id="line2d_97">
      <path clip-path="url(#pa0b788f663)" d="M 407.045 172.96 
L 709.2 172.96 
" style="fill:none;stroke:#000000;stroke-dasharray:0.8,1.32;stroke-dashoffset:0;stroke-opacity:0.5;stroke-width:0.8;"/>
     </g>
     <g id="line2d_98">
      <g>
       <use style="stroke:#000000;stroke-width:0.8;" x="407.045" xlink:href="#mb8ae30a8ed" y="172.96"/>
      </g>
     </g>
     <g id="text_52">
      <!-- 100 -->
      <g transform="translate(380.9575 176.759219)scale(0.1 -0.1)">
       <use xlink:href="#DejaVuSans-31"/>
       <use x="63.623047" xlink:href="#DejaVuSans-30"/>
       <use x="127.246094" xlink:href="#DejaVuSans-30"/>
      </g>
     </g>
    </g>
    <g id="ytick_15">
     <g id="line2d_99">
      <path clip-path="url(#pa0b788f663)" d="M 407.045 136.44 
L 709.2 136.44 
" style="fill:none;stroke:#000000;stroke-dasharray:0.8,1.32;stroke-dashoffset:0;stroke-opacity:0.5;stroke-width:0.8;"/>
     </g>
     <g id="line2d_100">
      <g>
       <use style="stroke:#000000;stroke-width:0.8;" x="407.045" xlink:href="#mb8ae30a8ed" y="136.44"/>
      </g>
     </g>
     <g id="text_53">
      <!-- 125 -->
      <g transform="translate(380.9575 140.239219)scale(0.1 -0.1)">
       <use xlink:href="#DejaVuSans-31"/>
       <use x="63.623047" xlink:href="#DejaVuSans-32"/>
       <use x="127.246094" xlink:href="#DejaVuSans-35"/>
      </g>
     </g>
    </g>
    <g id="ytick_16">
     <g id="line2d_101">
      <path clip-path="url(#pa0b788f663)" d="M 407.045 99.92 
L 709.2 99.92 
" style="fill:none;stroke:#000000;stroke-dasharray:0.8,1.32;stroke-dashoffset:0;stroke-opacity:0.5;stroke-width:0.8;"/>
     </g>
     <g id="line2d_102">
      <g>
       <use style="stroke:#000000;stroke-width:0.8;" x="407.045" xlink:href="#mb8ae30a8ed" y="99.92"/>
      </g>
     </g>
     <g id="text_54">
      <!-- 150 -->
      <g transform="translate(380.9575 103.719219)scale(0.1 -0.1)">
       <use xlink:href="#DejaVuSans-31"/>
       <use x="63.623047" xlink:href="#DejaVuSans-35"/>
       <use x="127.246094" xlink:href="#DejaVuSans-30"/>
      </g>
     </g>
    </g>
    <g id="ytick_17">
     <g id="line2d_103">
      <path clip-path="url(#pa0b788f663)" d="M 407.045 63.4 
L 709.2 63.4 
" style="fill:none;stroke:#000000;stroke-dasharray:0.8,1.32;stroke-dashoffset:0;stroke-opacity:0.5;stroke-width:0.8;"/>
     </g>
     <g id="line2d_104">
      <g>
       <use style="stroke:#000000;stroke-width:0.8;" x="407.045" xlink:href="#mb8ae30a8ed" y="63.4"/>
      </g>
     </g>
     <g id="text_55">
      <!-- 175 -->
      <g transform="translate(380.9575 67.199219)scale(0.1 -0.1)">
       <use xlink:href="#DejaVuSans-31"/>
       <use x="63.623047" xlink:href="#DejaVuSans-37"/>
       <use x="127.246094" xlink:href="#DejaVuSans-35"/>
      </g>
     </g>
    </g>
    <g id="ytick_18">
     <g id="line2d_105">
      <path clip-path="url(#pa0b788f663)" d="M 407.045 26.88 
L 709.2 26.88 
" style="fill:none;stroke:#000000;stroke-dasharray:0.8,1.32;stroke-dashoffset:0;stroke-opacity:0.5;stroke-width:0.8;"/>
     </g>
     <g id="line2d_106">
      <g>
       <use style="stroke:#000000;stroke-width:0.8;" x="407.045" xlink:href="#mb8ae30a8ed" y="26.88"/>
      </g>
     </g>
     <g id="text_56">
      <!-- 200 -->
      <g transform="translate(380.9575 30.679219)scale(0.1 -0.1)">
       <use xlink:href="#DejaVuSans-32"/>
       <use x="63.623047" xlink:href="#DejaVuSans-30"/>
       <use x="127.246094" xlink:href="#DejaVuSans-30"/>
      </g>
     </g>
    </g>
    <g id="text_57">
     <!-- cumulative doses per hundred population -->
     <g transform="translate(374.877813 277.418594)rotate(-90)scale(0.1 -0.1)">
      <use xlink:href="#DejaVuSans-63"/>
      <use x="54.980469" xlink:href="#DejaVuSans-75"/>
      <use x="118.359375" xlink:href="#DejaVuSans-6d"/>
      <use x="215.771484" xlink:href="#DejaVuSans-75"/>
      <use x="279.150391" xlink:href="#DejaVuSans-6c"/>
      <use x="306.933594" xlink:href="#DejaVuSans-61"/>
      <use x="368.212891" xlink:href="#DejaVuSans-74"/>
      <use x="407.421875" xlink:href="#DejaVuSans-69"/>
      <use x="435.205078" xlink:href="#DejaVuSans-76"/>
      <use x="494.384766" xlink:href="#DejaVuSans-65"/>
      <use x="555.908203" xlink:href="#DejaVuSans-20"/>
      <use x="587.695312" xlink:href="#DejaVuSans-64"/>
      <use x="651.171875" xlink:href="#DejaVuSans-6f"/>
      <use x="712.353516" xlink:href="#DejaVuSans-73"/>
      <use x="764.453125" xlink:href="#DejaVuSans-65"/>
      <use x="825.976562" xlink:href="#DejaVuSans-73"/>
      <use x="878.076172" xlink:href="#DejaVuSans-20"/>
      <use x="909.863281" xlink:href="#DejaVuSans-70"/>
      <use x="973.339844" xlink:href="#DejaVuSans-65"/>
      <use x="1034.863281" xlink:href="#DejaVuSans-72"/>
      <use x="1075.976562" xlink:href="#DejaVuSans-20"/>
      <use x="1107.763672" xlink:href="#DejaVuSans-68"/>
      <use x="1171.142578" xlink:href="#DejaVuSans-75"/>
      <use x="1234.521484" xlink:href="#DejaVuSans-6e"/>
      <use x="1297.900391" xlink:href="#DejaVuSans-64"/>
      <use x="1361.376953" xlink:href="#DejaVuSans-72"/>
      <use x="1400.240234" xlink:href="#DejaVuSans-65"/>
      <use x="1461.763672" xlink:href="#DejaVuSans-64"/>
      <use x="1525.240234" xlink:href="#DejaVuSans-20"/>
      <use x="1557.027344" xlink:href="#DejaVuSans-70"/>
      <use x="1620.503906" xlink:href="#DejaVuSans-6f"/>
      <use x="1681.685547" xlink:href="#DejaVuSans-70"/>
      <use x="1745.162109" xlink:href="#DejaVuSans-75"/>
      <use x="1808.541016" xlink:href="#DejaVuSans-6c"/>
      <use x="1836.324219" xlink:href="#DejaVuSans-61"/>
      <use x="1897.603516" xlink:href="#DejaVuSans-74"/>
      <use x="1936.8125" xlink:href="#DejaVuSans-69"/>
      <use x="1964.595703" xlink:href="#DejaVuSans-6f"/>
      <use x="2025.777344" xlink:href="#DejaVuSans-6e"/>
     </g>
    </g>
   </g>
   <g id="line2d_107">
    <path clip-path="url(#pa0b788f663)" d="M 322.837869 319.04 
L 322.837869 319.027555 
L 332.74459 318.932289 
L 332.74459 318.896757 
L 336.459611 318.805976 
L 336.459611 318.764265 
L 341.412971 318.707555 
L 341.412971 318.646813 
L 343.889652 318.561159 
L 343.889652 318.483251 
L 346.366332 318.389916 
L 346.366332 318.370519 
L 350.081352 318.282977 
L 350.081352 318.204318 
L 352.558033 318.117613 
L 352.558033 318.015867 
L 355.034713 317.918198 
L 355.034713 317.888202 
L 357.511393 317.859408 
L 357.511393 317.763155 
L 359.988074 317.669068 
L 359.988074 317.54681 
L 361.226414 317.54681 
L 361.226414 317.417343 
L 363.703094 317.308516 
L 363.703094 317.233161 
L 366.179775 317.188704 
L 366.179775 317.049602 
L 367.418115 317.049602 
L 367.418115 316.914427 
L 368.656455 316.914427 
L 368.656455 316.732971 
L 369.894795 316.732971 
L 369.894795 316.570869 
L 376.086496 316.514589 
L 376.086496 316.384585 
L 377.324836 316.384585 
L 377.324836 316.26061 
L 378.563176 316.26061 
L 378.563176 313.438822 
L 379.801516 313.438822 
L 379.801516 313.154397 
L 381.039857 313.154397 
L 381.039857 312.995448 
L 383.516537 312.91975 
L 383.516537 312.638801 
L 384.754877 312.638801 
L 384.754877 312.330216 
L 385.993217 312.330216 
L 385.993217 312.017361 
L 387.231557 312.017361 
L 387.231557 311.713067 
L 388.469898 311.713067 
L 388.469898 311.433941 
L 389.708238 311.433941 
L 389.708238 311.320588 
L 390.946578 311.320588 
L 390.946578 310.917702 
L 392.184918 310.917702 
L 392.184918 310.559274 
L 393.423258 310.559274 
L 393.423258 310.235841 
L 394.661598 310.235841 
L 394.661598 309.872435 
L 395.899939 309.872435 
L 395.899939 309.460795 
L 397.138279 309.460795 
L 397.138279 309.173387 
L 398.376619 309.173387 
L 398.376619 309.036581 
L 400.853299 309.012786 
L 400.853299 308.758443 
L 402.091639 308.758443 
L 402.091639 308.389501 
L 403.32998 308.389501 
L 403.32998 307.949882 
L 404.56832 307.949882 
L 404.56832 307.589308 
L 405.80666 307.589308 
L 405.80666 307.32104 
L 408.28334 307.21453 
L 408.28334 307.165588 
L 409.52168 307.165588 
L 409.52168 306.754592 
L 410.76002 306.754592 
L 410.76002 306.242494 
L 411.998361 306.242494 
L 411.998361 305.758932 
L 413.236701 305.758932 
L 413.236701 305.231878 
L 414.475041 305.231878 
L 414.475041 304.834335 
L 415.713381 304.834335 
L 415.713381 304.663629 
L 418.190061 304.59469 
L 418.190061 304.121706 
L 419.428402 304.121706 
L 419.428402 303.697535 
L 420.666742 303.697535 
L 420.666742 303.195607 
L 421.905082 303.195607 
L 421.905082 302.725821 
L 423.143422 302.725821 
L 423.143422 302.297681 
L 424.381762 302.297681 
L 424.381762 302.133175 
L 426.858443 302.039411 
L 426.858443 301.519803 
L 428.096783 301.519803 
L 428.096783 300.979918 
L 429.335123 300.979918 
L 429.335123 300.444346 
L 430.573463 300.444346 
L 430.573463 299.874616 
L 431.811803 299.874616 
L 431.811803 299.408134 
L 433.050143 299.408134 
L 433.050143 299.211272 
L 435.526824 299.104763 
L 435.526824 298.859645 
L 436.765164 298.859645 
L 436.765164 298.20527 
L 438.003504 298.20527 
L 438.003504 297.552439 
L 439.241844 297.552439 
L 439.241844 296.664383 
L 440.480184 296.664383 
L 440.480184 295.731933 
L 441.718525 295.731933 
L 441.718525 295.142999 
L 442.956865 295.142999 
L 442.956865 294.694369 
L 444.195205 294.694369 
L 444.195205 293.827768 
L 445.433545 293.827768 
L 445.433545 292.729719 
L 446.671885 292.729719 
L 446.671885 291.641668 
L 447.910225 291.641668 
L 447.910225 290.60715 
L 449.148566 290.60715 
L 449.148566 289.489232 
L 450.386906 289.489232 
L 450.386906 288.580234 
L 451.625246 288.580234 
L 451.625246 287.666601 
L 452.863586 287.666601 
L 452.863586 286.609512 
L 454.101926 286.609512 
L 454.101926 285.595485 
L 455.340266 285.595485 
L 455.340266 284.493766 
L 456.578607 284.493766 
L 456.578607 283.407281 
L 457.816947 283.407281 
L 457.816947 282.465734 
L 459.055287 282.465734 
L 459.055287 281.967475 
L 460.293627 281.967475 
L 460.293627 281.593384 
L 461.531967 281.593384 
L 461.531967 281.365904 
L 462.770307 281.365904 
L 462.770307 280.269635 
L 464.008648 280.269635 
L 464.008648 279.401447 
L 465.246988 279.401447 
L 465.246988 278.540661 
L 466.485328 278.540661 
L 466.485328 277.754029 
L 467.723668 277.754029 
L 467.723668 277.359618 
L 468.962008 277.359618 
L 468.962008 277.089762 
L 470.200348 277.089762 
L 470.200348 276.306648 
L 471.438689 276.306648 
L 471.438689 275.42563 
L 472.677029 275.42563 
L 472.677029 274.60383 
L 473.915369 274.60383 
L 473.915369 273.837195 
L 475.153709 273.837195 
L 475.153709 273.113387 
L 476.392049 273.113387 
L 476.392049 272.73406 
L 477.630389 272.73406 
L 477.630389 272.418073 
L 478.86873 272.418073 
L 478.86873 271.570762 
L 480.10707 271.570762 
L 480.10707 270.817601 
L 481.34541 270.817601 
L 481.34541 269.988786 
L 482.58375 269.988786 
L 482.58375 269.184967 
L 483.82209 269.184967 
L 483.82209 268.394215 
L 485.06043 268.394215 
L 485.06043 267.978305 
L 486.29877 267.978305 
L 486.29877 267.668411 
L 487.537111 267.668411 
L 487.537111 266.780054 
L 488.775451 266.780054 
L 488.775451 265.831813 
L 490.013791 265.831813 
L 490.013791 265.314629 
L 491.252131 265.314629 
L 491.252131 264.578955 
L 492.490471 264.578955 
L 492.490471 263.894198 
L 493.728811 263.894198 
L 493.728811 263.461037 
L 494.967152 263.461037 
L 494.967152 263.143655 
L 496.205492 263.143655 
L 496.205492 262.284521 
L 497.443832 262.284521 
L 497.443832 261.589014 
L 498.682172 261.589014 
L 498.682172 260.825705 
L 499.920512 260.825705 
L 499.920512 260.019161 
L 501.158852 260.019161 
L 501.158852 259.177471 
L 502.397193 259.177471 
L 502.397193 258.644131 
L 503.635533 258.644131 
L 503.635533 258.284866 
L 504.873873 258.284866 
L 504.873873 257.30798 
L 506.112213 257.30798 
L 506.112213 256.50871 
L 507.350553 256.50871 
L 507.350553 255.51187 
L 508.588893 255.51187 
L 508.588893 254.492629 
L 509.827234 254.492629 
L 509.827234 253.54471 
L 511.065574 253.54471 
L 511.065574 252.934448 
L 512.303914 252.934448 
L 512.303914 252.472536 
L 513.542254 252.472536 
L 513.542254 251.435315 
L 514.780594 251.435315 
L 514.780594 250.510053 
L 516.018934 250.510053 
L 516.018934 249.574493 
L 517.257275 249.574493 
L 517.257275 248.588831 
L 518.495615 248.588831 
L 518.495615 247.617288 
L 519.733955 247.617288 
L 519.733955 247.010331 
L 520.972295 247.010331 
L 520.972295 246.591782 
L 522.210635 246.591782 
L 522.210635 245.621183 
L 523.448975 245.621183 
L 523.448975 244.725016 
L 524.687316 244.725016 
L 524.687316 243.739333 
L 525.925656 243.739333 
L 525.925656 242.693594 
L 527.163996 242.693594 
L 527.163996 241.618309 
L 528.402336 241.618309 
L 528.402336 240.922201 
L 529.640676 240.922201 
L 529.640676 240.380965 
L 530.879016 240.380965 
L 530.879016 239.146453 
L 532.117357 239.146453 
L 532.117357 237.956291 
L 533.355697 237.956291 
L 533.355697 236.634452 
L 534.594037 236.634452 
L 534.594037 235.255538 
L 535.832377 235.255538 
L 535.832377 233.856735 
L 537.070717 233.856735 
L 537.070717 232.937374 
L 538.309057 232.937374 
L 538.309057 231.974899 
L 539.547398 231.974899 
L 539.547398 230.229854 
L 540.785738 230.229854 
L 540.785738 228.836179 
L 542.024078 228.836179 
L 542.024078 227.333311 
L 543.262418 227.333311 
L 543.262418 225.788593 
L 544.500758 225.788593 
L 544.500758 224.242782 
L 545.739098 224.242782 
L 545.739098 223.161405 
L 546.977439 223.161405 
L 546.977439 222.393201 
L 548.215779 222.393201 
L 548.215779 220.906775 
L 549.454119 220.906775 
L 549.454119 219.286601 
L 550.692459 219.286601 
L 550.692459 217.552292 
L 551.930799 217.552292 
L 551.930799 216.437571 
L 553.169139 216.437571 
L 553.169139 214.820917 
L 554.40748 214.820917 
L 554.40748 212.94477 
L 555.64582 212.94477 
L 555.64582 212.059282 
L 556.88416 212.059282 
L 556.88416 211.14773 
L 558.1225 211.14773 
L 558.1225 208.851513 
L 559.36084 208.851513 
L 559.36084 207.065515 
L 560.59918 207.065515 
L 560.59918 205.346227 
L 561.83752 205.346227 
L 561.83752 203.611218 
L 563.075861 203.611218 
L 563.075861 202.483837 
L 564.314201 202.483837 
L 564.314201 201.699824 
L 565.552541 201.699824 
L 565.552541 200.091436 
L 566.790881 200.091436 
L 566.790881 198.27557 
L 568.029221 198.27557 
L 568.029221 196.403817 
L 569.267561 196.403817 
L 569.267561 194.503794 
L 570.505902 194.503794 
L 570.505902 192.733932 
L 571.744242 192.733932 
L 571.744242 191.428986 
L 572.982582 191.428986 
L 572.982582 190.450352 
L 574.220922 190.450352 
L 574.220922 188.897654 
L 575.459262 188.897654 
L 575.459262 187.214093 
L 576.697602 187.214093 
L 576.697602 184.993157 
L 577.935943 184.993157 
L 577.935943 183.090837 
L 579.174283 183.090837 
L 579.174283 181.109607 
L 580.412623 181.109607 
L 580.412623 179.572301 
L 581.650963 179.572301 
L 581.650963 178.378757 
L 582.889303 178.378757 
L 582.889303 176.445892 
L 584.127643 176.445892 
L 584.127643 174.422855 
L 585.365984 174.422855 
L 585.365984 172.3173 
L 586.604324 172.3173 
L 586.604324 170.089739 
L 587.842664 170.089739 
L 587.842664 168.761878 
L 589.081004 168.761878 
L 589.081004 167.456735 
L 590.319344 167.456735 
L 590.319344 166.374112 
L 591.557684 166.374112 
L 591.557684 164.378013 
L 592.796025 164.378013 
L 592.796025 162.408721 
L 594.034365 162.408721 
L 594.034365 160.556516 
L 595.272705 160.556516 
L 595.272705 158.495544 
L 596.511045 158.495544 
L 596.511045 156.49599 
L 597.749385 156.49599 
L 597.749385 154.917382 
L 598.987725 154.917382 
L 598.987725 153.823761 
L 600.226066 153.823761 
L 600.226066 151.717353 
L 601.464406 151.717353 
L 601.464406 149.62706 
L 602.702746 149.62706 
L 602.702746 147.522598 
L 603.941086 147.522598 
L 603.941086 145.438843 
L 605.179426 145.438843 
L 605.179426 143.301474 
L 606.417766 143.301474 
L 606.417766 141.530979 
L 607.656107 141.530979 
L 607.656107 140.274048 
L 608.894447 140.274048 
L 608.894447 138.283415 
L 610.132787 138.283415 
L 610.132787 136.155886 
L 611.371127 136.155886 
L 611.371127 134.021492 
L 612.609467 134.021492 
L 612.609467 131.84973 
L 613.847807 131.84973 
L 613.847807 129.680876 
L 615.086148 129.680876 
L 615.086148 127.992352 
L 616.324488 127.992352 
L 616.324488 126.771432 
L 617.562828 126.771432 
L 617.562828 124.578505 
L 618.801168 124.578505 
L 618.801168 122.357241 
L 620.039508 122.357241 
L 620.039508 120.201856 
L 621.277848 120.201856 
L 621.277848 117.971058 
L 622.516189 117.971058 
L 622.516189 115.794223 
L 623.754529 115.794223 
L 623.754529 114.101327 
L 624.992869 114.101327 
L 624.992869 113.049686 
L 626.231209 113.049686 
L 626.231209 111.135712 
L 627.469549 111.135712 
L 627.469549 109.433064 
L 628.707889 109.433064 
L 628.707889 107.885613 
L 629.94623 107.885613 
L 629.94623 106.319183 
L 631.18457 106.319183 
L 631.18457 104.792635 
L 632.42291 104.792635 
L 632.42291 103.658432 
L 633.66125 103.658432 
L 633.66125 103.072232 
L 634.89959 103.072232 
L 634.89959 101.780623 
L 636.13793 101.780623 
L 636.13793 101.408503 
L 637.37627 101.408503 
L 637.37627 100.116173 
L 638.614611 100.116173 
L 638.614611 98.86895 
L 639.852951 98.86895 
L 639.852951 97.677002 
L 641.091291 97.677002 
L 641.091291 96.976141 
L 642.329631 96.976141 
L 642.329631 96.634326 
L 643.567971 96.634326 
L 643.567971 95.716412 
L 644.806311 95.716412 
L 644.806311 94.875091 
L 646.044652 94.875091 
L 646.044652 94.061604 
L 647.282992 94.061604 
L 647.282992 93.244837 
L 648.521332 93.244837 
L 648.521332 92.405768 
L 649.759672 92.405768 
L 649.759672 91.943258 
L 650.998012 91.943258 
L 650.998012 91.943258 
" style="fill:none;stroke:#1f77b4;stroke-linecap:square;stroke-width:1.5;"/>
   </g>
   <g id="line2d_108">
    <path clip-path="url(#pa0b788f663)" d="M 650.998012 91.212858 
L 650.998012 90.482458 
L 652.236352 90.482458 
L 652.236352 89.752058 
L 653.474693 89.752058 
L 653.474693 89.021658 
L 654.713033 89.021658 
L 654.713033 88.291258 
L 655.951373 88.291258 
L 655.951373 87.560858 
L 657.189713 87.560858 
L 657.189713 86.830458 
L 658.428053 86.830458 
L 658.428053 86.100058 
L 659.666393 86.100058 
L 659.666393 85.369658 
L 660.904734 85.369658 
L 660.904734 84.639258 
L 662.143074 84.639258 
L 662.143074 83.908858 
L 663.381414 83.908858 
L 663.381414 83.178458 
L 664.619754 83.178458 
L 664.619754 82.448058 
L 665.858094 82.448058 
L 665.858094 81.717658 
L 667.096434 81.717658 
L 667.096434 80.987258 
L 668.334775 80.987258 
L 668.334775 80.256858 
L 669.573115 80.256858 
L 669.573115 79.526458 
L 670.811455 79.526458 
L 670.811455 78.796058 
L 672.049795 78.796058 
L 672.049795 78.065658 
L 673.288135 78.065658 
L 673.288135 77.335258 
L 674.526475 77.335258 
L 674.526475 76.604858 
L 675.764816 76.604858 
L 675.764816 75.874458 
L 677.003156 75.874458 
L 677.003156 75.144058 
L 678.241496 75.144058 
L 678.241496 74.413658 
L 679.479836 74.413658 
L 679.479836 73.683258 
L 680.718176 73.683258 
L 680.718176 72.952858 
L 681.956516 72.952858 
L 681.956516 72.222458 
L 683.194857 72.222458 
L 683.194857 71.492058 
L 684.433197 71.492058 
L 684.433197 70.761658 
L 721 70.761658 
L 721 70.761658 
" style="fill:none;stroke:#ff7f0e;stroke-linecap:square;stroke-width:1.5;"/>
   </g>
   <g id="patch_9">
    <path d="M 407.045 319.04 
L 407.045 26.88 
" style="fill:none;stroke:#000000;stroke-linecap:square;stroke-linejoin:miter;stroke-width:0.8;"/>
   </g>
   <g id="patch_10">
    <path d="M 709.2 319.04 
L 709.2 26.88 
" style="fill:none;stroke:#000000;stroke-linecap:square;stroke-linejoin:miter;stroke-width:0.8;"/>
   </g>
   <g id="patch_11">
    <path d="M 407.045 319.04 
L 709.2 319.04 
" style="fill:none;stroke:#000000;stroke-linecap:square;stroke-linejoin:miter;stroke-width:0.8;"/>
   </g>
   <g id="patch_12">
    <path d="M 407.045 26.88 
L 709.2 26.88 
" style="fill:none;stroke:#000000;stroke-linecap:square;stroke-linejoin:miter;stroke-width:0.8;"/>
   </g>
   <g id="text_58">
    <!-- VIC cumulative vaccinations per capita -->
    <g transform="translate(441.037187 20.88)scale(0.12 -0.12)">
     <use xlink:href="#DejaVuSans-56"/>
     <use x="68.408203" xlink:href="#DejaVuSans-49"/>
     <use x="97.900391" xlink:href="#DejaVuSans-43"/>
     <use x="167.724609" xlink:href="#DejaVuSans-20"/>
     <use x="199.511719" xlink:href="#DejaVuSans-63"/>
     <use x="254.492188" xlink:href="#DejaVuSans-75"/>
     <use x="317.871094" xlink:href="#DejaVuSans-6d"/>
     <use x="415.283203" xlink:href="#DejaVuSans-75"/>
     <use x="478.662109" xlink:href="#DejaVuSans-6c"/>
     <use x="506.445312" xlink:href="#DejaVuSans-61"/>
     <use x="567.724609" xlink:href="#DejaVuSans-74"/>
     <use x="606.933594" xlink:href="#DejaVuSans-69"/>
     <use x="634.716797" xlink:href="#DejaVuSans-76"/>
     <use x="693.896484" xlink:href="#DejaVuSans-65"/>
     <use x="755.419922" xlink:href="#DejaVuSans-20"/>
     <use x="787.207031" xlink:href="#DejaVuSans-76"/>
     <use x="846.386719" xlink:href="#DejaVuSans-61"/>
     <use x="907.666016" xlink:href="#DejaVuSans-63"/>
     <use x="962.646484" xlink:href="#DejaVuSans-63"/>
     <use x="1017.626953" xlink:href="#DejaVuSans-69"/>
     <use x="1045.410156" xlink:href="#DejaVuSans-6e"/>
     <use x="1108.789062" xlink:href="#DejaVuSans-61"/>
     <use x="1170.068359" xlink:href="#DejaVuSans-74"/>
     <use x="1209.277344" xlink:href="#DejaVuSans-69"/>
     <use x="1237.060547" xlink:href="#DejaVuSans-6f"/>
     <use x="1298.242188" xlink:href="#DejaVuSans-6e"/>
     <use x="1361.621094" xlink:href="#DejaVuSans-73"/>
     <use x="1413.720703" xlink:href="#DejaVuSans-20"/>
     <use x="1445.507812" xlink:href="#DejaVuSans-70"/>
     <use x="1508.984375" xlink:href="#DejaVuSans-65"/>
     <use x="1570.507812" xlink:href="#DejaVuSans-72"/>
     <use x="1611.621094" xlink:href="#DejaVuSans-20"/>
     <use x="1643.408203" xlink:href="#DejaVuSans-63"/>
     <use x="1698.388672" xlink:href="#DejaVuSans-61"/>
     <use x="1759.667969" xlink:href="#DejaVuSans-70"/>
     <use x="1823.144531" xlink:href="#DejaVuSans-69"/>
     <use x="1850.927734" xlink:href="#DejaVuSans-74"/>
     <use x="1890.136719" xlink:href="#DejaVuSans-61"/>
    </g>
   </g>
   <g id="legend_2">
    <g id="patch_13">
     <path d="M 554.317187 64.23625 
L 702.2 64.23625 
Q 704.2 64.23625 704.2 62.23625 
L 704.2 33.88 
Q 704.2 31.88 702.2 31.88 
L 554.317187 31.88 
Q 552.317187 31.88 552.317187 33.88 
L 552.317187 62.23625 
Q 552.317187 64.23625 554.317187 64.23625 
z
" style="fill:#ffffff;opacity:0.8;stroke:#cccccc;stroke-linejoin:miter;"/>
    </g>
    <g id="line2d_109">
     <path d="M 556.317187 39.978437 
L 576.317187 39.978437 
" style="fill:none;stroke:#1f77b4;stroke-linecap:square;stroke-width:1.5;"/>
    </g>
    <g id="line2d_110"/>
    <g id="text_59">
     <!-- Actual -->
     <g transform="translate(584.317187 43.478437)scale(0.1 -0.1)">
      <use xlink:href="#DejaVuSans-41"/>
      <use x="66.658203" xlink:href="#DejaVuSans-63"/>
      <use x="121.638672" xlink:href="#DejaVuSans-74"/>
      <use x="160.847656" xlink:href="#DejaVuSans-75"/>
      <use x="224.226562" xlink:href="#DejaVuSans-61"/>
      <use x="285.505859" xlink:href="#DejaVuSans-6c"/>
     </g>
    </g>
    <g id="line2d_111">
     <path d="M 556.317187 54.656563 
L 576.317187 54.656563 
" style="fill:none;stroke:#ff7f0e;stroke-linecap:square;stroke-width:1.5;"/>
    </g>
    <g id="line2d_112"/>
    <g id="text_60">
     <!-- Assumed for projection -->
     <g transform="translate(584.317187 58.156563)scale(0.1 -0.1)">
      <use xlink:href="#DejaVuSans-41"/>
      <use x="68.408203" xlink:href="#DejaVuSans-73"/>
      <use x="120.507812" xlink:href="#DejaVuSans-73"/>
      <use x="172.607422" xlink:href="#DejaVuSans-75"/>
      <use x="235.986328" xlink:href="#DejaVuSans-6d"/>
      <use x="333.398438" xlink:href="#DejaVuSans-65"/>
      <use x="394.921875" xlink:href="#DejaVuSans-64"/>
      <use x="458.398438" xlink:href="#DejaVuSans-20"/>
      <use x="490.185547" xlink:href="#DejaVuSans-66"/>
      <use x="525.390625" xlink:href="#DejaVuSans-6f"/>
      <use x="586.572266" xlink:href="#DejaVuSans-72"/>
      <use x="627.685547" xlink:href="#DejaVuSans-20"/>
      <use x="659.472656" xlink:href="#DejaVuSans-70"/>
      <use x="722.949219" xlink:href="#DejaVuSans-72"/>
      <use x="761.8125" xlink:href="#DejaVuSans-6f"/>
      <use x="822.994141" xlink:href="#DejaVuSans-6a"/>
      <use x="850.777344" xlink:href="#DejaVuSans-65"/>
      <use x="912.300781" xlink:href="#DejaVuSans-63"/>
      <use x="967.28125" xlink:href="#DejaVuSans-74"/>
      <use x="1006.490234" xlink:href="#DejaVuSans-69"/>
      <use x="1034.273438" xlink:href="#DejaVuSans-6f"/>
      <use x="1095.455078" xlink:href="#DejaVuSans-6e"/>
     </g>
    </g>
   </g>
  </g>
 </g>
 <defs>
  <clipPath id="pc57048c218">
   <rect height="292.16" width="302.155" x="54.02" y="26.88"/>
  </clipPath>
  <clipPath id="pa0b788f663">
   <rect height="292.16" width="302.155" x="407.045" y="26.88"/>
  </clipPath>
 </defs>
</svg>
