<?xml version="1.0" encoding="utf-8" standalone="no"?>
<!DOCTYPE svg PUBLIC "-//W3C//DTD SVG 1.1//EN"
  "http://www.w3.org/Graphics/SVG/1.1/DTD/svg11.dtd">
<svg height="360pt" version="1.1" viewBox="0 0 720 360" width="720pt" xmlns="http://www.w3.org/2000/svg" xmlns:xlink="http://www.w3.org/1999/xlink">
 <metadata>
  <rdf:RDF xmlns:cc="http://creativecommons.org/ns#" xmlns:dc="http://purl.org/dc/elements/1.1/" xmlns:rdf="http://www.w3.org/1999/02/22-rdf-syntax-ns#">
   <cc:Work>
    <dc:type rdf:resource="http://purl.org/dc/dcmitype/StillImage"/>
    <dc:date>2021-12-13T09:14:40.384127</dc:date>
    <dc:format>image/svg+xml</dc:format>
    <dc:creator>
     <cc:Agent>
      <dc:title>Matplotlib v3.4.3, https://matplotlib.org/</dc:title>
     </cc:Agent>
    </dc:creator>
   </cc:Work>
  </rdf:RDF>
 </metadata>
 <defs>
  <style type="text/css">*{stroke-linecap:butt;stroke-linejoin:round;}</style>
 </defs>
 <g id="figure_1">
  <g id="patch_1">
   <path d="M 0 360 
L 720 360 
L 720 0 
L 0 0 
z
" style="fill:#ffffff;"/>
  </g>
  <g id="axes_1">
   <g id="patch_2">
    <path d="M 54.02 319.04 
L 356.175 319.04 
L 356.175 26.88 
L 54.02 26.88 
z
" style="fill:#ffffff;"/>
   </g>
   <g id="matplotlib.axis_1">
    <g id="xtick_1">
     <g id="line2d_1">
      <path clip-path="url(#p16d0e3cbdd)" d="M 54.02 319.04 
L 54.02 26.88 
" style="fill:none;stroke:#000000;stroke-dasharray:0.8,1.32;stroke-dashoffset:0;stroke-opacity:0.5;stroke-width:0.8;"/>
     </g>
     <g id="line2d_2">
      <defs>
       <path d="M 0 0 
L 0 3.5 
" id="m89890462fb" style="stroke:#000000;stroke-width:0.8;"/>
      </defs>
      <g>
       <use style="stroke:#000000;stroke-width:0.8;" x="54.02" xlink:href="#m89890462fb" y="319.04"/>
      </g>
     </g>
     <g id="text_1">
      <!-- May -->
      <g transform="translate(43.6825 333.638438)scale(0.1 -0.1)">
       <defs>
        <path d="M 628 4666 
L 1569 4666 
L 2759 1491 
L 3956 4666 
L 4897 4666 
L 4897 0 
L 4281 0 
L 4281 4097 
L 3078 897 
L 2444 897 
L 1241 4097 
L 1241 0 
L 628 0 
L 628 4666 
z
" id="DejaVuSans-4d" transform="scale(0.015625)"/>
        <path d="M 2194 1759 
Q 1497 1759 1228 1600 
Q 959 1441 959 1056 
Q 959 750 1161 570 
Q 1363 391 1709 391 
Q 2188 391 2477 730 
Q 2766 1069 2766 1631 
L 2766 1759 
L 2194 1759 
z
M 3341 1997 
L 3341 0 
L 2766 0 
L 2766 531 
Q 2569 213 2275 61 
Q 1981 -91 1556 -91 
Q 1019 -91 701 211 
Q 384 513 384 1019 
Q 384 1609 779 1909 
Q 1175 2209 1959 2209 
L 2766 2209 
L 2766 2266 
Q 2766 2663 2505 2880 
Q 2244 3097 1772 3097 
Q 1472 3097 1187 3025 
Q 903 2953 641 2809 
L 641 3341 
Q 956 3463 1253 3523 
Q 1550 3584 1831 3584 
Q 2591 3584 2966 3190 
Q 3341 2797 3341 1997 
z
" id="DejaVuSans-61" transform="scale(0.015625)"/>
        <path d="M 2059 -325 
Q 1816 -950 1584 -1140 
Q 1353 -1331 966 -1331 
L 506 -1331 
L 506 -850 
L 844 -850 
Q 1081 -850 1212 -737 
Q 1344 -625 1503 -206 
L 1606 56 
L 191 3500 
L 800 3500 
L 1894 763 
L 2988 3500 
L 3597 3500 
L 2059 -325 
z
" id="DejaVuSans-79" transform="scale(0.015625)"/>
       </defs>
       <use xlink:href="#DejaVuSans-4d"/>
       <use x="86.279297" xlink:href="#DejaVuSans-61"/>
       <use x="147.558594" xlink:href="#DejaVuSans-79"/>
      </g>
     </g>
    </g>
    <g id="xtick_2">
     <g id="line2d_3">
      <path clip-path="url(#p16d0e3cbdd)" d="M 71.356762 319.04 
L 71.356762 26.88 
" style="fill:none;stroke:#000000;stroke-dasharray:0.8,1.32;stroke-dashoffset:0;stroke-opacity:0.5;stroke-width:0.8;"/>
     </g>
     <g id="line2d_4">
      <g>
       <use style="stroke:#000000;stroke-width:0.8;" x="71.356762" xlink:href="#m89890462fb" y="319.04"/>
      </g>
     </g>
     <g id="text_2">
      <!-- 15 -->
      <g transform="translate(64.994262 333.638438)scale(0.1 -0.1)">
       <defs>
        <path d="M 794 531 
L 1825 531 
L 1825 4091 
L 703 3866 
L 703 4441 
L 1819 4666 
L 2450 4666 
L 2450 531 
L 3481 531 
L 3481 0 
L 794 0 
L 794 531 
z
" id="DejaVuSans-31" transform="scale(0.015625)"/>
        <path d="M 691 4666 
L 3169 4666 
L 3169 4134 
L 1269 4134 
L 1269 2991 
Q 1406 3038 1543 3061 
Q 1681 3084 1819 3084 
Q 2600 3084 3056 2656 
Q 3513 2228 3513 1497 
Q 3513 744 3044 326 
Q 2575 -91 1722 -91 
Q 1428 -91 1123 -41 
Q 819 9 494 109 
L 494 744 
Q 775 591 1075 516 
Q 1375 441 1709 441 
Q 2250 441 2565 725 
Q 2881 1009 2881 1497 
Q 2881 1984 2565 2268 
Q 2250 2553 1709 2553 
Q 1456 2553 1204 2497 
Q 953 2441 691 2322 
L 691 4666 
z
" id="DejaVuSans-35" transform="scale(0.015625)"/>
       </defs>
       <use xlink:href="#DejaVuSans-31"/>
       <use x="63.623047" xlink:href="#DejaVuSans-35"/>
      </g>
     </g>
    </g>
    <g id="xtick_3">
     <g id="line2d_5">
      <path clip-path="url(#p16d0e3cbdd)" d="M 92.408545 319.04 
L 92.408545 26.88 
" style="fill:none;stroke:#000000;stroke-dasharray:0.8,1.32;stroke-dashoffset:0;stroke-opacity:0.5;stroke-width:0.8;"/>
     </g>
     <g id="line2d_6">
      <g>
       <use style="stroke:#000000;stroke-width:0.8;" x="92.408545" xlink:href="#m89890462fb" y="319.04"/>
      </g>
     </g>
     <g id="text_3">
      <!-- Jun -->
      <g transform="translate(84.596045 333.638438)scale(0.1 -0.1)">
       <defs>
        <path d="M 628 4666 
L 1259 4666 
L 1259 325 
Q 1259 -519 939 -900 
Q 619 -1281 -91 -1281 
L -331 -1281 
L -331 -750 
L -134 -750 
Q 284 -750 456 -515 
Q 628 -281 628 325 
L 628 4666 
z
" id="DejaVuSans-4a" transform="scale(0.015625)"/>
        <path d="M 544 1381 
L 544 3500 
L 1119 3500 
L 1119 1403 
Q 1119 906 1312 657 
Q 1506 409 1894 409 
Q 2359 409 2629 706 
Q 2900 1003 2900 1516 
L 2900 3500 
L 3475 3500 
L 3475 0 
L 2900 0 
L 2900 538 
Q 2691 219 2414 64 
Q 2138 -91 1772 -91 
Q 1169 -91 856 284 
Q 544 659 544 1381 
z
M 1991 3584 
L 1991 3584 
z
" id="DejaVuSans-75" transform="scale(0.015625)"/>
        <path d="M 3513 2113 
L 3513 0 
L 2938 0 
L 2938 2094 
Q 2938 2591 2744 2837 
Q 2550 3084 2163 3084 
Q 1697 3084 1428 2787 
Q 1159 2491 1159 1978 
L 1159 0 
L 581 0 
L 581 3500 
L 1159 3500 
L 1159 2956 
Q 1366 3272 1645 3428 
Q 1925 3584 2291 3584 
Q 2894 3584 3203 3211 
Q 3513 2838 3513 2113 
z
" id="DejaVuSans-6e" transform="scale(0.015625)"/>
       </defs>
       <use xlink:href="#DejaVuSans-4a"/>
       <use x="29.492188" xlink:href="#DejaVuSans-75"/>
       <use x="92.871094" xlink:href="#DejaVuSans-6e"/>
      </g>
     </g>
    </g>
    <g id="xtick_4">
     <g id="line2d_7">
      <path clip-path="url(#p16d0e3cbdd)" d="M 109.745307 319.04 
L 109.745307 26.88 
" style="fill:none;stroke:#000000;stroke-dasharray:0.8,1.32;stroke-dashoffset:0;stroke-opacity:0.5;stroke-width:0.8;"/>
     </g>
     <g id="line2d_8">
      <g>
       <use style="stroke:#000000;stroke-width:0.8;" x="109.745307" xlink:href="#m89890462fb" y="319.04"/>
      </g>
     </g>
     <g id="text_4">
      <!-- 15 -->
      <g transform="translate(103.382807 333.638438)scale(0.1 -0.1)">
       <use xlink:href="#DejaVuSans-31"/>
       <use x="63.623047" xlink:href="#DejaVuSans-35"/>
      </g>
     </g>
    </g>
    <g id="xtick_5">
     <g id="line2d_9">
      <path clip-path="url(#p16d0e3cbdd)" d="M 129.55875 319.04 
L 129.55875 26.88 
" style="fill:none;stroke:#000000;stroke-dasharray:0.8,1.32;stroke-dashoffset:0;stroke-opacity:0.5;stroke-width:0.8;"/>
     </g>
     <g id="line2d_10">
      <g>
       <use style="stroke:#000000;stroke-width:0.8;" x="129.55875" xlink:href="#m89890462fb" y="319.04"/>
      </g>
     </g>
     <g id="text_5">
      <!-- Jul -->
      <g transform="translate(123.525938 333.638438)scale(0.1 -0.1)">
       <defs>
        <path d="M 603 4863 
L 1178 4863 
L 1178 0 
L 603 0 
L 603 4863 
z
" id="DejaVuSans-6c" transform="scale(0.015625)"/>
       </defs>
       <use xlink:href="#DejaVuSans-4a"/>
       <use x="29.492188" xlink:href="#DejaVuSans-75"/>
       <use x="92.871094" xlink:href="#DejaVuSans-6c"/>
      </g>
     </g>
    </g>
    <g id="xtick_6">
     <g id="line2d_11">
      <path clip-path="url(#p16d0e3cbdd)" d="M 146.895512 319.04 
L 146.895512 26.88 
" style="fill:none;stroke:#000000;stroke-dasharray:0.8,1.32;stroke-dashoffset:0;stroke-opacity:0.5;stroke-width:0.8;"/>
     </g>
     <g id="line2d_12">
      <g>
       <use style="stroke:#000000;stroke-width:0.8;" x="146.895512" xlink:href="#m89890462fb" y="319.04"/>
      </g>
     </g>
     <g id="text_6">
      <!-- 15 -->
      <g transform="translate(140.533012 333.638438)scale(0.1 -0.1)">
       <use xlink:href="#DejaVuSans-31"/>
       <use x="63.623047" xlink:href="#DejaVuSans-35"/>
      </g>
     </g>
    </g>
    <g id="xtick_7">
     <g id="line2d_13">
      <path clip-path="url(#p16d0e3cbdd)" d="M 167.947295 319.04 
L 167.947295 26.88 
" style="fill:none;stroke:#000000;stroke-dasharray:0.8,1.32;stroke-dashoffset:0;stroke-opacity:0.5;stroke-width:0.8;"/>
     </g>
     <g id="line2d_14">
      <g>
       <use style="stroke:#000000;stroke-width:0.8;" x="167.947295" xlink:href="#m89890462fb" y="319.04"/>
      </g>
     </g>
     <g id="text_7">
      <!-- Aug -->
      <g transform="translate(158.184014 333.638438)scale(0.1 -0.1)">
       <defs>
        <path d="M 2188 4044 
L 1331 1722 
L 3047 1722 
L 2188 4044 
z
M 1831 4666 
L 2547 4666 
L 4325 0 
L 3669 0 
L 3244 1197 
L 1141 1197 
L 716 0 
L 50 0 
L 1831 4666 
z
" id="DejaVuSans-41" transform="scale(0.015625)"/>
        <path d="M 2906 1791 
Q 2906 2416 2648 2759 
Q 2391 3103 1925 3103 
Q 1463 3103 1205 2759 
Q 947 2416 947 1791 
Q 947 1169 1205 825 
Q 1463 481 1925 481 
Q 2391 481 2648 825 
Q 2906 1169 2906 1791 
z
M 3481 434 
Q 3481 -459 3084 -895 
Q 2688 -1331 1869 -1331 
Q 1566 -1331 1297 -1286 
Q 1028 -1241 775 -1147 
L 775 -588 
Q 1028 -725 1275 -790 
Q 1522 -856 1778 -856 
Q 2344 -856 2625 -561 
Q 2906 -266 2906 331 
L 2906 616 
Q 2728 306 2450 153 
Q 2172 0 1784 0 
Q 1141 0 747 490 
Q 353 981 353 1791 
Q 353 2603 747 3093 
Q 1141 3584 1784 3584 
Q 2172 3584 2450 3431 
Q 2728 3278 2906 2969 
L 2906 3500 
L 3481 3500 
L 3481 434 
z
" id="DejaVuSans-67" transform="scale(0.015625)"/>
       </defs>
       <use xlink:href="#DejaVuSans-41"/>
       <use x="68.408203" xlink:href="#DejaVuSans-75"/>
       <use x="131.787109" xlink:href="#DejaVuSans-67"/>
      </g>
     </g>
    </g>
    <g id="xtick_8">
     <g id="line2d_15">
      <path clip-path="url(#p16d0e3cbdd)" d="M 185.284057 319.04 
L 185.284057 26.88 
" style="fill:none;stroke:#000000;stroke-dasharray:0.8,1.32;stroke-dashoffset:0;stroke-opacity:0.5;stroke-width:0.8;"/>
     </g>
     <g id="line2d_16">
      <g>
       <use style="stroke:#000000;stroke-width:0.8;" x="185.284057" xlink:href="#m89890462fb" y="319.04"/>
      </g>
     </g>
     <g id="text_8">
      <!-- 15 -->
      <g transform="translate(178.921557 333.638438)scale(0.1 -0.1)">
       <use xlink:href="#DejaVuSans-31"/>
       <use x="63.623047" xlink:href="#DejaVuSans-35"/>
      </g>
     </g>
    </g>
    <g id="xtick_9">
     <g id="line2d_17">
      <path clip-path="url(#p16d0e3cbdd)" d="M 206.33584 319.04 
L 206.33584 26.88 
" style="fill:none;stroke:#000000;stroke-dasharray:0.8,1.32;stroke-dashoffset:0;stroke-opacity:0.5;stroke-width:0.8;"/>
     </g>
     <g id="line2d_18">
      <g>
       <use style="stroke:#000000;stroke-width:0.8;" x="206.33584" xlink:href="#m89890462fb" y="319.04"/>
      </g>
     </g>
     <g id="text_9">
      <!-- Sep -->
      <g transform="translate(196.91084 333.638438)scale(0.1 -0.1)">
       <defs>
        <path d="M 3425 4513 
L 3425 3897 
Q 3066 4069 2747 4153 
Q 2428 4238 2131 4238 
Q 1616 4238 1336 4038 
Q 1056 3838 1056 3469 
Q 1056 3159 1242 3001 
Q 1428 2844 1947 2747 
L 2328 2669 
Q 3034 2534 3370 2195 
Q 3706 1856 3706 1288 
Q 3706 609 3251 259 
Q 2797 -91 1919 -91 
Q 1588 -91 1214 -16 
Q 841 59 441 206 
L 441 856 
Q 825 641 1194 531 
Q 1563 422 1919 422 
Q 2459 422 2753 634 
Q 3047 847 3047 1241 
Q 3047 1584 2836 1778 
Q 2625 1972 2144 2069 
L 1759 2144 
Q 1053 2284 737 2584 
Q 422 2884 422 3419 
Q 422 4038 858 4394 
Q 1294 4750 2059 4750 
Q 2388 4750 2728 4690 
Q 3069 4631 3425 4513 
z
" id="DejaVuSans-53" transform="scale(0.015625)"/>
        <path d="M 3597 1894 
L 3597 1613 
L 953 1613 
Q 991 1019 1311 708 
Q 1631 397 2203 397 
Q 2534 397 2845 478 
Q 3156 559 3463 722 
L 3463 178 
Q 3153 47 2828 -22 
Q 2503 -91 2169 -91 
Q 1331 -91 842 396 
Q 353 884 353 1716 
Q 353 2575 817 3079 
Q 1281 3584 2069 3584 
Q 2775 3584 3186 3129 
Q 3597 2675 3597 1894 
z
M 3022 2063 
Q 3016 2534 2758 2815 
Q 2500 3097 2075 3097 
Q 1594 3097 1305 2825 
Q 1016 2553 972 2059 
L 3022 2063 
z
" id="DejaVuSans-65" transform="scale(0.015625)"/>
        <path d="M 1159 525 
L 1159 -1331 
L 581 -1331 
L 581 3500 
L 1159 3500 
L 1159 2969 
Q 1341 3281 1617 3432 
Q 1894 3584 2278 3584 
Q 2916 3584 3314 3078 
Q 3713 2572 3713 1747 
Q 3713 922 3314 415 
Q 2916 -91 2278 -91 
Q 1894 -91 1617 61 
Q 1341 213 1159 525 
z
M 3116 1747 
Q 3116 2381 2855 2742 
Q 2594 3103 2138 3103 
Q 1681 3103 1420 2742 
Q 1159 2381 1159 1747 
Q 1159 1113 1420 752 
Q 1681 391 2138 391 
Q 2594 391 2855 752 
Q 3116 1113 3116 1747 
z
" id="DejaVuSans-70" transform="scale(0.015625)"/>
       </defs>
       <use xlink:href="#DejaVuSans-53"/>
       <use x="63.476562" xlink:href="#DejaVuSans-65"/>
       <use x="125" xlink:href="#DejaVuSans-70"/>
      </g>
     </g>
    </g>
    <g id="xtick_10">
     <g id="line2d_19">
      <path clip-path="url(#p16d0e3cbdd)" d="M 223.672602 319.04 
L 223.672602 26.88 
" style="fill:none;stroke:#000000;stroke-dasharray:0.8,1.32;stroke-dashoffset:0;stroke-opacity:0.5;stroke-width:0.8;"/>
     </g>
     <g id="line2d_20">
      <g>
       <use style="stroke:#000000;stroke-width:0.8;" x="223.672602" xlink:href="#m89890462fb" y="319.04"/>
      </g>
     </g>
     <g id="text_10">
      <!-- 15 -->
      <g transform="translate(217.310102 333.638438)scale(0.1 -0.1)">
       <use xlink:href="#DejaVuSans-31"/>
       <use x="63.623047" xlink:href="#DejaVuSans-35"/>
      </g>
     </g>
    </g>
    <g id="xtick_11">
     <g id="line2d_21">
      <path clip-path="url(#p16d0e3cbdd)" d="M 243.486045 319.04 
L 243.486045 26.88 
" style="fill:none;stroke:#000000;stroke-dasharray:0.8,1.32;stroke-dashoffset:0;stroke-opacity:0.5;stroke-width:0.8;"/>
     </g>
     <g id="line2d_22">
      <g>
       <use style="stroke:#000000;stroke-width:0.8;" x="243.486045" xlink:href="#m89890462fb" y="319.04"/>
      </g>
     </g>
     <g id="text_11">
      <!-- Oct -->
      <g transform="translate(234.840733 333.638438)scale(0.1 -0.1)">
       <defs>
        <path d="M 2522 4238 
Q 1834 4238 1429 3725 
Q 1025 3213 1025 2328 
Q 1025 1447 1429 934 
Q 1834 422 2522 422 
Q 3209 422 3611 934 
Q 4013 1447 4013 2328 
Q 4013 3213 3611 3725 
Q 3209 4238 2522 4238 
z
M 2522 4750 
Q 3503 4750 4090 4092 
Q 4678 3434 4678 2328 
Q 4678 1225 4090 567 
Q 3503 -91 2522 -91 
Q 1538 -91 948 565 
Q 359 1222 359 2328 
Q 359 3434 948 4092 
Q 1538 4750 2522 4750 
z
" id="DejaVuSans-4f" transform="scale(0.015625)"/>
        <path d="M 3122 3366 
L 3122 2828 
Q 2878 2963 2633 3030 
Q 2388 3097 2138 3097 
Q 1578 3097 1268 2742 
Q 959 2388 959 1747 
Q 959 1106 1268 751 
Q 1578 397 2138 397 
Q 2388 397 2633 464 
Q 2878 531 3122 666 
L 3122 134 
Q 2881 22 2623 -34 
Q 2366 -91 2075 -91 
Q 1284 -91 818 406 
Q 353 903 353 1747 
Q 353 2603 823 3093 
Q 1294 3584 2113 3584 
Q 2378 3584 2631 3529 
Q 2884 3475 3122 3366 
z
" id="DejaVuSans-63" transform="scale(0.015625)"/>
        <path d="M 1172 4494 
L 1172 3500 
L 2356 3500 
L 2356 3053 
L 1172 3053 
L 1172 1153 
Q 1172 725 1289 603 
Q 1406 481 1766 481 
L 2356 481 
L 2356 0 
L 1766 0 
Q 1100 0 847 248 
Q 594 497 594 1153 
L 594 3053 
L 172 3053 
L 172 3500 
L 594 3500 
L 594 4494 
L 1172 4494 
z
" id="DejaVuSans-74" transform="scale(0.015625)"/>
       </defs>
       <use xlink:href="#DejaVuSans-4f"/>
       <use x="78.710938" xlink:href="#DejaVuSans-63"/>
       <use x="133.691406" xlink:href="#DejaVuSans-74"/>
      </g>
     </g>
    </g>
    <g id="xtick_12">
     <g id="line2d_23">
      <path clip-path="url(#p16d0e3cbdd)" d="M 260.822807 319.04 
L 260.822807 26.88 
" style="fill:none;stroke:#000000;stroke-dasharray:0.8,1.32;stroke-dashoffset:0;stroke-opacity:0.5;stroke-width:0.8;"/>
     </g>
     <g id="line2d_24">
      <g>
       <use style="stroke:#000000;stroke-width:0.8;" x="260.822807" xlink:href="#m89890462fb" y="319.04"/>
      </g>
     </g>
     <g id="text_12">
      <!-- 15 -->
      <g transform="translate(254.460307 333.638438)scale(0.1 -0.1)">
       <use xlink:href="#DejaVuSans-31"/>
       <use x="63.623047" xlink:href="#DejaVuSans-35"/>
      </g>
     </g>
    </g>
    <g id="xtick_13">
     <g id="line2d_25">
      <path clip-path="url(#p16d0e3cbdd)" d="M 281.87459 319.04 
L 281.87459 26.88 
" style="fill:none;stroke:#000000;stroke-dasharray:0.8,1.32;stroke-dashoffset:0;stroke-opacity:0.5;stroke-width:0.8;"/>
     </g>
     <g id="line2d_26">
      <g>
       <use style="stroke:#000000;stroke-width:0.8;" x="281.87459" xlink:href="#m89890462fb" y="319.04"/>
      </g>
     </g>
     <g id="text_13">
      <!-- Nov -->
      <g transform="translate(272.115215 333.638438)scale(0.1 -0.1)">
       <defs>
        <path d="M 628 4666 
L 1478 4666 
L 3547 763 
L 3547 4666 
L 4159 4666 
L 4159 0 
L 3309 0 
L 1241 3903 
L 1241 0 
L 628 0 
L 628 4666 
z
" id="DejaVuSans-4e" transform="scale(0.015625)"/>
        <path d="M 1959 3097 
Q 1497 3097 1228 2736 
Q 959 2375 959 1747 
Q 959 1119 1226 758 
Q 1494 397 1959 397 
Q 2419 397 2687 759 
Q 2956 1122 2956 1747 
Q 2956 2369 2687 2733 
Q 2419 3097 1959 3097 
z
M 1959 3584 
Q 2709 3584 3137 3096 
Q 3566 2609 3566 1747 
Q 3566 888 3137 398 
Q 2709 -91 1959 -91 
Q 1206 -91 779 398 
Q 353 888 353 1747 
Q 353 2609 779 3096 
Q 1206 3584 1959 3584 
z
" id="DejaVuSans-6f" transform="scale(0.015625)"/>
        <path d="M 191 3500 
L 800 3500 
L 1894 563 
L 2988 3500 
L 3597 3500 
L 2284 0 
L 1503 0 
L 191 3500 
z
" id="DejaVuSans-76" transform="scale(0.015625)"/>
       </defs>
       <use xlink:href="#DejaVuSans-4e"/>
       <use x="74.804688" xlink:href="#DejaVuSans-6f"/>
       <use x="135.986328" xlink:href="#DejaVuSans-76"/>
      </g>
     </g>
    </g>
    <g id="xtick_14">
     <g id="line2d_27">
      <path clip-path="url(#p16d0e3cbdd)" d="M 299.211352 319.04 
L 299.211352 26.88 
" style="fill:none;stroke:#000000;stroke-dasharray:0.8,1.32;stroke-dashoffset:0;stroke-opacity:0.5;stroke-width:0.8;"/>
     </g>
     <g id="line2d_28">
      <g>
       <use style="stroke:#000000;stroke-width:0.8;" x="299.211352" xlink:href="#m89890462fb" y="319.04"/>
      </g>
     </g>
     <g id="text_14">
      <!-- 15 -->
      <g transform="translate(292.848852 333.638438)scale(0.1 -0.1)">
       <use xlink:href="#DejaVuSans-31"/>
       <use x="63.623047" xlink:href="#DejaVuSans-35"/>
      </g>
     </g>
    </g>
    <g id="xtick_15">
     <g id="line2d_29">
      <path clip-path="url(#p16d0e3cbdd)" d="M 319.024795 319.04 
L 319.024795 26.88 
" style="fill:none;stroke:#000000;stroke-dasharray:0.8,1.32;stroke-dashoffset:0;stroke-opacity:0.5;stroke-width:0.8;"/>
     </g>
     <g id="line2d_30">
      <g>
       <use style="stroke:#000000;stroke-width:0.8;" x="319.024795" xlink:href="#m89890462fb" y="319.04"/>
      </g>
     </g>
     <g id="text_15">
      <!-- Dec -->
      <g transform="translate(309.349014 333.638438)scale(0.1 -0.1)">
       <defs>
        <path d="M 1259 4147 
L 1259 519 
L 2022 519 
Q 2988 519 3436 956 
Q 3884 1394 3884 2338 
Q 3884 3275 3436 3711 
Q 2988 4147 2022 4147 
L 1259 4147 
z
M 628 4666 
L 1925 4666 
Q 3281 4666 3915 4102 
Q 4550 3538 4550 2338 
Q 4550 1131 3912 565 
Q 3275 0 1925 0 
L 628 0 
L 628 4666 
z
" id="DejaVuSans-44" transform="scale(0.015625)"/>
       </defs>
       <use xlink:href="#DejaVuSans-44"/>
       <use x="77.001953" xlink:href="#DejaVuSans-65"/>
       <use x="138.525391" xlink:href="#DejaVuSans-63"/>
      </g>
     </g>
    </g>
    <g id="xtick_16">
     <g id="line2d_31">
      <path clip-path="url(#p16d0e3cbdd)" d="M 336.361557 319.04 
L 336.361557 26.88 
" style="fill:none;stroke:#000000;stroke-dasharray:0.8,1.32;stroke-dashoffset:0;stroke-opacity:0.5;stroke-width:0.8;"/>
     </g>
     <g id="line2d_32">
      <g>
       <use style="stroke:#000000;stroke-width:0.8;" x="336.361557" xlink:href="#m89890462fb" y="319.04"/>
      </g>
     </g>
     <g id="text_16">
      <!-- 15 -->
      <g transform="translate(329.999057 333.638438)scale(0.1 -0.1)">
       <use xlink:href="#DejaVuSans-31"/>
       <use x="63.623047" xlink:href="#DejaVuSans-35"/>
      </g>
     </g>
    </g>
    <g id="text_17">
     <!-- 2021-Dec -->
     <g transform="translate(307.765625 346.316563)scale(0.1 -0.1)">
      <defs>
       <path d="M 1228 531 
L 3431 531 
L 3431 0 
L 469 0 
L 469 531 
Q 828 903 1448 1529 
Q 2069 2156 2228 2338 
Q 2531 2678 2651 2914 
Q 2772 3150 2772 3378 
Q 2772 3750 2511 3984 
Q 2250 4219 1831 4219 
Q 1534 4219 1204 4116 
Q 875 4013 500 3803 
L 500 4441 
Q 881 4594 1212 4672 
Q 1544 4750 1819 4750 
Q 2544 4750 2975 4387 
Q 3406 4025 3406 3419 
Q 3406 3131 3298 2873 
Q 3191 2616 2906 2266 
Q 2828 2175 2409 1742 
Q 1991 1309 1228 531 
z
" id="DejaVuSans-32" transform="scale(0.015625)"/>
       <path d="M 2034 4250 
Q 1547 4250 1301 3770 
Q 1056 3291 1056 2328 
Q 1056 1369 1301 889 
Q 1547 409 2034 409 
Q 2525 409 2770 889 
Q 3016 1369 3016 2328 
Q 3016 3291 2770 3770 
Q 2525 4250 2034 4250 
z
M 2034 4750 
Q 2819 4750 3233 4129 
Q 3647 3509 3647 2328 
Q 3647 1150 3233 529 
Q 2819 -91 2034 -91 
Q 1250 -91 836 529 
Q 422 1150 422 2328 
Q 422 3509 836 4129 
Q 1250 4750 2034 4750 
z
" id="DejaVuSans-30" transform="scale(0.015625)"/>
       <path d="M 313 2009 
L 1997 2009 
L 1997 1497 
L 313 1497 
L 313 2009 
z
" id="DejaVuSans-2d" transform="scale(0.015625)"/>
      </defs>
      <use xlink:href="#DejaVuSans-32"/>
      <use x="63.623047" xlink:href="#DejaVuSans-30"/>
      <use x="127.246094" xlink:href="#DejaVuSans-32"/>
      <use x="190.869141" xlink:href="#DejaVuSans-31"/>
      <use x="254.492188" xlink:href="#DejaVuSans-2d"/>
      <use x="290.576172" xlink:href="#DejaVuSans-44"/>
      <use x="367.578125" xlink:href="#DejaVuSans-65"/>
      <use x="429.101562" xlink:href="#DejaVuSans-63"/>
     </g>
    </g>
   </g>
   <g id="matplotlib.axis_2">
    <g id="ytick_1">
     <g id="line2d_33">
      <path clip-path="url(#p16d0e3cbdd)" d="M 54.02 319.04 
L 356.175 319.04 
" style="fill:none;stroke:#000000;stroke-dasharray:0.8,1.32;stroke-dashoffset:0;stroke-opacity:0.5;stroke-width:0.8;"/>
     </g>
     <g id="line2d_34">
      <defs>
       <path d="M 0 0 
L -3.5 0 
" id="mdda9b2d03b" style="stroke:#000000;stroke-width:0.8;"/>
      </defs>
      <g>
       <use style="stroke:#000000;stroke-width:0.8;" x="54.02" xlink:href="#mdda9b2d03b" y="319.04"/>
      </g>
     </g>
     <g id="text_18">
      <!-- 0.00 -->
      <g transform="translate(24.754375 322.839219)scale(0.1 -0.1)">
       <defs>
        <path d="M 684 794 
L 1344 794 
L 1344 0 
L 684 0 
L 684 794 
z
" id="DejaVuSans-2e" transform="scale(0.015625)"/>
       </defs>
       <use xlink:href="#DejaVuSans-30"/>
       <use x="63.623047" xlink:href="#DejaVuSans-2e"/>
       <use x="95.410156" xlink:href="#DejaVuSans-30"/>
       <use x="159.033203" xlink:href="#DejaVuSans-30"/>
      </g>
     </g>
    </g>
    <g id="ytick_2">
     <g id="line2d_35">
      <path clip-path="url(#p16d0e3cbdd)" d="M 54.02 285.84 
L 356.175 285.84 
" style="fill:none;stroke:#000000;stroke-dasharray:0.8,1.32;stroke-dashoffset:0;stroke-opacity:0.5;stroke-width:0.8;"/>
     </g>
     <g id="line2d_36">
      <g>
       <use style="stroke:#000000;stroke-width:0.8;" x="54.02" xlink:href="#mdda9b2d03b" y="285.84"/>
      </g>
     </g>
     <g id="text_19">
      <!-- 0.25 -->
      <g transform="translate(24.754375 289.639219)scale(0.1 -0.1)">
       <use xlink:href="#DejaVuSans-30"/>
       <use x="63.623047" xlink:href="#DejaVuSans-2e"/>
       <use x="95.410156" xlink:href="#DejaVuSans-32"/>
       <use x="159.033203" xlink:href="#DejaVuSans-35"/>
      </g>
     </g>
    </g>
    <g id="ytick_3">
     <g id="line2d_37">
      <path clip-path="url(#p16d0e3cbdd)" d="M 54.02 252.64 
L 356.175 252.64 
" style="fill:none;stroke:#000000;stroke-dasharray:0.8,1.32;stroke-dashoffset:0;stroke-opacity:0.5;stroke-width:0.8;"/>
     </g>
     <g id="line2d_38">
      <g>
       <use style="stroke:#000000;stroke-width:0.8;" x="54.02" xlink:href="#mdda9b2d03b" y="252.64"/>
      </g>
     </g>
     <g id="text_20">
      <!-- 0.50 -->
      <g transform="translate(24.754375 256.439219)scale(0.1 -0.1)">
       <use xlink:href="#DejaVuSans-30"/>
       <use x="63.623047" xlink:href="#DejaVuSans-2e"/>
       <use x="95.410156" xlink:href="#DejaVuSans-35"/>
       <use x="159.033203" xlink:href="#DejaVuSans-30"/>
      </g>
     </g>
    </g>
    <g id="ytick_4">
     <g id="line2d_39">
      <path clip-path="url(#p16d0e3cbdd)" d="M 54.02 219.44 
L 356.175 219.44 
" style="fill:none;stroke:#000000;stroke-dasharray:0.8,1.32;stroke-dashoffset:0;stroke-opacity:0.5;stroke-width:0.8;"/>
     </g>
     <g id="line2d_40">
      <g>
       <use style="stroke:#000000;stroke-width:0.8;" x="54.02" xlink:href="#mdda9b2d03b" y="219.44"/>
      </g>
     </g>
     <g id="text_21">
      <!-- 0.75 -->
      <g transform="translate(24.754375 223.239219)scale(0.1 -0.1)">
       <defs>
        <path d="M 525 4666 
L 3525 4666 
L 3525 4397 
L 1831 0 
L 1172 0 
L 2766 4134 
L 525 4134 
L 525 4666 
z
" id="DejaVuSans-37" transform="scale(0.015625)"/>
       </defs>
       <use xlink:href="#DejaVuSans-30"/>
       <use x="63.623047" xlink:href="#DejaVuSans-2e"/>
       <use x="95.410156" xlink:href="#DejaVuSans-37"/>
       <use x="159.033203" xlink:href="#DejaVuSans-35"/>
      </g>
     </g>
    </g>
    <g id="ytick_5">
     <g id="line2d_41">
      <path clip-path="url(#p16d0e3cbdd)" d="M 54.02 186.24 
L 356.175 186.24 
" style="fill:none;stroke:#000000;stroke-dasharray:0.8,1.32;stroke-dashoffset:0;stroke-opacity:0.5;stroke-width:0.8;"/>
     </g>
     <g id="line2d_42">
      <g>
       <use style="stroke:#000000;stroke-width:0.8;" x="54.02" xlink:href="#mdda9b2d03b" y="186.24"/>
      </g>
     </g>
     <g id="text_22">
      <!-- 1.00 -->
      <g transform="translate(24.754375 190.039219)scale(0.1 -0.1)">
       <use xlink:href="#DejaVuSans-31"/>
       <use x="63.623047" xlink:href="#DejaVuSans-2e"/>
       <use x="95.410156" xlink:href="#DejaVuSans-30"/>
       <use x="159.033203" xlink:href="#DejaVuSans-30"/>
      </g>
     </g>
    </g>
    <g id="ytick_6">
     <g id="line2d_43">
      <path clip-path="url(#p16d0e3cbdd)" d="M 54.02 153.04 
L 356.175 153.04 
" style="fill:none;stroke:#000000;stroke-dasharray:0.8,1.32;stroke-dashoffset:0;stroke-opacity:0.5;stroke-width:0.8;"/>
     </g>
     <g id="line2d_44">
      <g>
       <use style="stroke:#000000;stroke-width:0.8;" x="54.02" xlink:href="#mdda9b2d03b" y="153.04"/>
      </g>
     </g>
     <g id="text_23">
      <!-- 1.25 -->
      <g transform="translate(24.754375 156.839219)scale(0.1 -0.1)">
       <use xlink:href="#DejaVuSans-31"/>
       <use x="63.623047" xlink:href="#DejaVuSans-2e"/>
       <use x="95.410156" xlink:href="#DejaVuSans-32"/>
       <use x="159.033203" xlink:href="#DejaVuSans-35"/>
      </g>
     </g>
    </g>
    <g id="ytick_7">
     <g id="line2d_45">
      <path clip-path="url(#p16d0e3cbdd)" d="M 54.02 119.84 
L 356.175 119.84 
" style="fill:none;stroke:#000000;stroke-dasharray:0.8,1.32;stroke-dashoffset:0;stroke-opacity:0.5;stroke-width:0.8;"/>
     </g>
     <g id="line2d_46">
      <g>
       <use style="stroke:#000000;stroke-width:0.8;" x="54.02" xlink:href="#mdda9b2d03b" y="119.84"/>
      </g>
     </g>
     <g id="text_24">
      <!-- 1.50 -->
      <g transform="translate(24.754375 123.639219)scale(0.1 -0.1)">
       <use xlink:href="#DejaVuSans-31"/>
       <use x="63.623047" xlink:href="#DejaVuSans-2e"/>
       <use x="95.410156" xlink:href="#DejaVuSans-35"/>
       <use x="159.033203" xlink:href="#DejaVuSans-30"/>
      </g>
     </g>
    </g>
    <g id="ytick_8">
     <g id="line2d_47">
      <path clip-path="url(#p16d0e3cbdd)" d="M 54.02 86.64 
L 356.175 86.64 
" style="fill:none;stroke:#000000;stroke-dasharray:0.8,1.32;stroke-dashoffset:0;stroke-opacity:0.5;stroke-width:0.8;"/>
     </g>
     <g id="line2d_48">
      <g>
       <use style="stroke:#000000;stroke-width:0.8;" x="54.02" xlink:href="#mdda9b2d03b" y="86.64"/>
      </g>
     </g>
     <g id="text_25">
      <!-- 1.75 -->
      <g transform="translate(24.754375 90.439219)scale(0.1 -0.1)">
       <use xlink:href="#DejaVuSans-31"/>
       <use x="63.623047" xlink:href="#DejaVuSans-2e"/>
       <use x="95.410156" xlink:href="#DejaVuSans-37"/>
       <use x="159.033203" xlink:href="#DejaVuSans-35"/>
      </g>
     </g>
    </g>
    <g id="ytick_9">
     <g id="line2d_49">
      <path clip-path="url(#p16d0e3cbdd)" d="M 54.02 53.44 
L 356.175 53.44 
" style="fill:none;stroke:#000000;stroke-dasharray:0.8,1.32;stroke-dashoffset:0;stroke-opacity:0.5;stroke-width:0.8;"/>
     </g>
     <g id="line2d_50">
      <g>
       <use style="stroke:#000000;stroke-width:0.8;" x="54.02" xlink:href="#mdda9b2d03b" y="53.44"/>
      </g>
     </g>
     <g id="text_26">
      <!-- 2.00 -->
      <g transform="translate(24.754375 57.239219)scale(0.1 -0.1)">
       <use xlink:href="#DejaVuSans-32"/>
       <use x="63.623047" xlink:href="#DejaVuSans-2e"/>
       <use x="95.410156" xlink:href="#DejaVuSans-30"/>
       <use x="159.033203" xlink:href="#DejaVuSans-30"/>
      </g>
     </g>
    </g>
    <g id="text_27">
     <!-- 7d avg doses per hundred population per day -->
     <g transform="translate(18.674688 287.4475)rotate(-90)scale(0.1 -0.1)">
      <defs>
       <path d="M 2906 2969 
L 2906 4863 
L 3481 4863 
L 3481 0 
L 2906 0 
L 2906 525 
Q 2725 213 2448 61 
Q 2172 -91 1784 -91 
Q 1150 -91 751 415 
Q 353 922 353 1747 
Q 353 2572 751 3078 
Q 1150 3584 1784 3584 
Q 2172 3584 2448 3432 
Q 2725 3281 2906 2969 
z
M 947 1747 
Q 947 1113 1208 752 
Q 1469 391 1925 391 
Q 2381 391 2643 752 
Q 2906 1113 2906 1747 
Q 2906 2381 2643 2742 
Q 2381 3103 1925 3103 
Q 1469 3103 1208 2742 
Q 947 2381 947 1747 
z
" id="DejaVuSans-64" transform="scale(0.015625)"/>
       <path id="DejaVuSans-20" transform="scale(0.015625)"/>
       <path d="M 2834 3397 
L 2834 2853 
Q 2591 2978 2328 3040 
Q 2066 3103 1784 3103 
Q 1356 3103 1142 2972 
Q 928 2841 928 2578 
Q 928 2378 1081 2264 
Q 1234 2150 1697 2047 
L 1894 2003 
Q 2506 1872 2764 1633 
Q 3022 1394 3022 966 
Q 3022 478 2636 193 
Q 2250 -91 1575 -91 
Q 1294 -91 989 -36 
Q 684 19 347 128 
L 347 722 
Q 666 556 975 473 
Q 1284 391 1588 391 
Q 1994 391 2212 530 
Q 2431 669 2431 922 
Q 2431 1156 2273 1281 
Q 2116 1406 1581 1522 
L 1381 1569 
Q 847 1681 609 1914 
Q 372 2147 372 2553 
Q 372 3047 722 3315 
Q 1072 3584 1716 3584 
Q 2034 3584 2315 3537 
Q 2597 3491 2834 3397 
z
" id="DejaVuSans-73" transform="scale(0.015625)"/>
       <path d="M 2631 2963 
Q 2534 3019 2420 3045 
Q 2306 3072 2169 3072 
Q 1681 3072 1420 2755 
Q 1159 2438 1159 1844 
L 1159 0 
L 581 0 
L 581 3500 
L 1159 3500 
L 1159 2956 
Q 1341 3275 1631 3429 
Q 1922 3584 2338 3584 
Q 2397 3584 2469 3576 
Q 2541 3569 2628 3553 
L 2631 2963 
z
" id="DejaVuSans-72" transform="scale(0.015625)"/>
       <path d="M 3513 2113 
L 3513 0 
L 2938 0 
L 2938 2094 
Q 2938 2591 2744 2837 
Q 2550 3084 2163 3084 
Q 1697 3084 1428 2787 
Q 1159 2491 1159 1978 
L 1159 0 
L 581 0 
L 581 4863 
L 1159 4863 
L 1159 2956 
Q 1366 3272 1645 3428 
Q 1925 3584 2291 3584 
Q 2894 3584 3203 3211 
Q 3513 2838 3513 2113 
z
" id="DejaVuSans-68" transform="scale(0.015625)"/>
       <path d="M 603 3500 
L 1178 3500 
L 1178 0 
L 603 0 
L 603 3500 
z
M 603 4863 
L 1178 4863 
L 1178 4134 
L 603 4134 
L 603 4863 
z
" id="DejaVuSans-69" transform="scale(0.015625)"/>
      </defs>
      <use xlink:href="#DejaVuSans-37"/>
      <use x="63.623047" xlink:href="#DejaVuSans-64"/>
      <use x="127.099609" xlink:href="#DejaVuSans-20"/>
      <use x="158.886719" xlink:href="#DejaVuSans-61"/>
      <use x="220.166016" xlink:href="#DejaVuSans-76"/>
      <use x="279.345703" xlink:href="#DejaVuSans-67"/>
      <use x="342.822266" xlink:href="#DejaVuSans-20"/>
      <use x="374.609375" xlink:href="#DejaVuSans-64"/>
      <use x="438.085938" xlink:href="#DejaVuSans-6f"/>
      <use x="499.267578" xlink:href="#DejaVuSans-73"/>
      <use x="551.367188" xlink:href="#DejaVuSans-65"/>
      <use x="612.890625" xlink:href="#DejaVuSans-73"/>
      <use x="664.990234" xlink:href="#DejaVuSans-20"/>
      <use x="696.777344" xlink:href="#DejaVuSans-70"/>
      <use x="760.253906" xlink:href="#DejaVuSans-65"/>
      <use x="821.777344" xlink:href="#DejaVuSans-72"/>
      <use x="862.890625" xlink:href="#DejaVuSans-20"/>
      <use x="894.677734" xlink:href="#DejaVuSans-68"/>
      <use x="958.056641" xlink:href="#DejaVuSans-75"/>
      <use x="1021.435547" xlink:href="#DejaVuSans-6e"/>
      <use x="1084.814453" xlink:href="#DejaVuSans-64"/>
      <use x="1148.291016" xlink:href="#DejaVuSans-72"/>
      <use x="1187.154297" xlink:href="#DejaVuSans-65"/>
      <use x="1248.677734" xlink:href="#DejaVuSans-64"/>
      <use x="1312.154297" xlink:href="#DejaVuSans-20"/>
      <use x="1343.941406" xlink:href="#DejaVuSans-70"/>
      <use x="1407.417969" xlink:href="#DejaVuSans-6f"/>
      <use x="1468.599609" xlink:href="#DejaVuSans-70"/>
      <use x="1532.076172" xlink:href="#DejaVuSans-75"/>
      <use x="1595.455078" xlink:href="#DejaVuSans-6c"/>
      <use x="1623.238281" xlink:href="#DejaVuSans-61"/>
      <use x="1684.517578" xlink:href="#DejaVuSans-74"/>
      <use x="1723.726562" xlink:href="#DejaVuSans-69"/>
      <use x="1751.509766" xlink:href="#DejaVuSans-6f"/>
      <use x="1812.691406" xlink:href="#DejaVuSans-6e"/>
      <use x="1876.070312" xlink:href="#DejaVuSans-20"/>
      <use x="1907.857422" xlink:href="#DejaVuSans-70"/>
      <use x="1971.333984" xlink:href="#DejaVuSans-65"/>
      <use x="2032.857422" xlink:href="#DejaVuSans-72"/>
      <use x="2073.970703" xlink:href="#DejaVuSans-20"/>
      <use x="2105.757812" xlink:href="#DejaVuSans-64"/>
      <use x="2169.234375" xlink:href="#DejaVuSans-61"/>
      <use x="2230.513672" xlink:href="#DejaVuSans-79"/>
     </g>
    </g>
   </g>
   <g id="line2d_51">
    <path clip-path="url(#p16d0e3cbdd)" d="M 4.486393 318.083336 
L 4.486393 317.801362 
L 5.724734 317.801362 
L 5.724734 317.418867 
L 6.963074 317.418867 
L 6.963074 317.109918 
L 8.201414 317.109918 
L 8.201414 316.804092 
L 9.439754 316.804092 
L 9.439754 316.463623 
L 10.678094 316.463623 
L 10.678094 316.310568 
L 11.916434 316.310568 
L 11.916434 316.842426 
L 13.154775 316.842426 
L 13.154775 316.649049 
L 14.393115 316.649049 
L 14.393115 316.274505 
L 15.631455 316.274505 
L 15.631455 315.842032 
L 16.869795 315.842032 
L 16.869795 316.047336 
L 18.108135 316.047336 
L 18.108135 316.387521 
L 20.584816 316.45198 
L 20.584816 316.766041 
L 21.823156 316.766041 
L 21.823156 316.510476 
L 23.061496 316.510476 
L 23.061496 316.670346 
L 24.299836 316.670346 
L 24.299836 250.040054 
L 25.538176 250.040054 
L 25.538176 246.37639 
L 26.776516 246.37639 
L 26.776516 244.273092 
L 28.014857 244.273092 
L 28.014857 243.359873 
L 29.253197 243.359873 
L 29.253197 239.752434 
L 30.491537 239.752434 
L 30.491537 236.399424 
L 31.729877 236.399424 
L 31.729877 232.856159 
L 32.968217 232.856159 
L 32.968217 296.20074 
L 35.444898 296.270878 
L 35.444898 296.874295 
L 36.683238 296.874295 
L 36.683238 292.544175 
L 37.921578 292.544175 
L 37.921578 291.518792 
L 39.159918 291.518792 
L 39.159918 291.322291 
L 40.398258 291.322291 
L 40.398258 290.653279 
L 41.636598 290.653279 
L 41.636598 289.232623 
L 44.113279 289.123014 
L 44.113279 288.812645 
L 45.351619 288.812645 
L 45.351619 293.829666 
L 46.589959 293.829666 
L 46.589959 295.207161 
L 47.828299 295.207161 
L 47.828299 294.60488 
L 49.066639 294.60488 
L 49.066639 293.59625 
L 50.30498 293.59625 
L 50.30498 294.272077 
L 51.54332 294.272077 
L 51.54332 294.52537 
L 52.78166 294.52537 
L 52.78166 294.926323 
L 54.02 294.926323 
L 54.02 294.593521 
L 55.25834 294.593521 
L 55.25834 292.520322 
L 56.49668 292.520322 
L 56.49668 290.625735 
L 57.73502 290.625735 
L 57.73502 290.044183 
L 58.973361 290.044183 
L 58.973361 287.840931 
L 60.211701 287.840931 
L 60.211701 286.130066 
L 61.450041 286.130066 
L 61.450041 285.280455 
L 62.688381 285.280455 
L 62.688381 285.015803 
L 63.926721 285.015803 
L 63.926721 284.19544 
L 65.165061 284.19544 
L 65.165061 285.359112 
L 66.403402 285.359112 
L 66.403402 285.116042 
L 67.641742 285.116042 
L 67.641742 285.873933 
L 68.880082 285.873933 
L 68.880082 285.469005 
L 71.356762 285.55107 
L 71.356762 285.222527 
L 72.595102 285.222527 
L 72.595102 284.60548 
L 73.833443 284.60548 
L 73.833443 283.074079 
L 75.071783 283.074079 
L 75.071783 282.628828 
L 76.310123 282.628828 
L 76.310123 281.306138 
L 77.548463 281.306138 
L 77.548463 280.7987 
L 78.786803 280.7987 
L 78.786803 280.370487 
L 80.025143 280.370487 
L 80.025143 280.201814 
L 81.263484 280.201814 
L 81.263484 283.834526 
L 82.501824 283.834526 
L 82.501824 282.319311 
L 83.740164 282.319311 
L 83.740164 280.767464 
L 84.978504 280.767464 
L 84.978504 276.55462 
L 86.216844 276.55462 
L 86.216844 270.387841 
L 87.455184 270.387841 
L 87.455184 265.199023 
L 88.693525 265.199023 
L 88.693525 260.671266 
L 89.931865 260.671266 
L 89.931865 252.446339 
L 91.170205 252.446339 
L 91.170205 246.574595 
L 92.408545 246.574595 
L 92.408545 240.814732 
L 93.646885 240.814732 
L 93.646885 238.876415 
L 94.885225 238.876415 
L 94.885225 236.421856 
L 96.123566 236.421856 
L 96.123566 232.186012 
L 97.361906 232.186012 
L 97.361906 226.032011 
L 98.600246 226.032011 
L 98.600246 223.511006 
L 99.838586 223.511006 
L 99.838586 224.622997 
L 101.076926 224.622997 
L 101.076926 224.442113 
L 102.315266 224.442113 
L 102.315266 223.75436 
L 103.553607 223.75436 
L 103.553607 226.088519 
L 104.791947 226.088519 
L 104.791947 231.524383 
L 106.030287 231.524383 
L 106.030287 238.664864 
L 107.268627 238.664864 
L 107.268627 249.644212 
L 108.506967 249.644212 
L 108.506967 248.55579 
L 109.745307 248.55579 
L 109.745307 251.646421 
L 110.983648 251.646421 
L 110.983648 254.633406 
L 112.221988 254.633406 
L 112.221988 256.683603 
L 113.460328 256.683603 
L 113.460328 258.057974 
L 114.698668 258.057974 
L 114.698668 259.437456 
L 115.937008 259.437456 
L 115.937008 252.084005 
L 117.175348 252.084005 
L 117.175348 254.9327 
L 118.413689 254.9327 
L 118.413689 255.546624 
L 119.652029 255.546624 
L 119.652029 256.792644 
L 120.890369 256.792644 
L 120.890369 257.624082 
L 122.128709 257.624082 
L 122.128709 257.823706 
L 123.367049 257.823706 
L 123.367049 257.21319 
L 124.605389 257.21319 
L 124.605389 256.363579 
L 125.84373 256.363579 
L 125.84373 258.055703 
L 128.32041 257.962847 
L 128.32041 269.100362 
L 129.55875 269.100362 
L 129.55875 267.60332 
L 130.79709 267.60332 
L 130.79709 266.479403 
L 132.03543 266.479403 
L 132.03543 267.033127 
L 133.27377 267.033127 
L 133.27377 268.731781 
L 134.512111 268.731781 
L 134.512111 266.61826 
L 135.750451 266.61826 
L 135.750451 268.816117 
L 136.988791 268.816117 
L 136.988791 257.555647 
L 138.227131 257.555647 
L 138.227131 259.061492 
L 139.465471 259.061492 
L 139.465471 259.803198 
L 141.942152 259.774802 
L 141.942152 258.552918 
L 143.180492 258.552918 
L 143.180492 260.645994 
L 144.418832 260.645994 
L 144.418832 258.433654 
L 145.657172 258.433654 
L 145.657172 258.094889 
L 146.895512 258.094889 
L 146.895512 256.492782 
L 148.133852 256.492782 
L 148.133852 254.77851 
L 149.372193 254.77851 
L 149.372193 253.817018 
L 150.610533 253.817018 
L 150.610533 252.569578 
L 151.848873 252.569578 
L 151.848873 250.366893 
L 153.087213 250.366893 
L 153.087213 249.501664 
L 154.325553 249.501664 
L 154.325553 248.664831 
L 155.563893 248.664831 
L 155.563893 246.350834 
L 156.802234 246.350834 
L 156.802234 244.681711 
L 158.040574 244.681711 
L 158.040574 244.375886 
L 159.278914 244.375886 
L 159.278914 242.157867 
L 160.517254 242.157867 
L 160.517254 243.318699 
L 161.755594 243.318699 
L 161.755594 242.284229 
L 162.993934 242.284229 
L 162.993934 240.483917 
L 164.232275 240.483917 
L 164.232275 241.254303 
L 165.470615 241.254303 
L 165.470615 241.983799 
L 166.708955 241.983799 
L 166.708955 241.286675 
L 167.947295 241.286675 
L 167.947295 242.813533 
L 169.185635 242.813533 
L 169.185635 241.790137 
L 171.662316 241.736185 
L 171.662316 241.482892 
L 172.900656 241.482892 
L 172.900656 239.764076 
L 174.138996 239.764076 
L 174.138996 238.612899 
L 175.377336 238.612899 
L 175.377336 237.067016 
L 176.615676 237.067016 
L 176.615676 234.668114 
L 177.854016 234.668114 
L 177.854016 231.136208 
L 179.092357 231.136208 
L 179.092357 226.963686 
L 180.330697 226.963686 
L 180.330697 223.264812 
L 181.569037 223.264812 
L 181.569037 219.196787 
L 182.807377 219.196787 
L 182.807377 216.515061 
L 184.045717 216.515061 
L 184.045717 220.749202 
L 185.284057 220.749202 
L 185.284057 213.543694 
L 186.522398 213.543694 
L 186.522398 211.207263 
L 187.760738 211.207263 
L 187.760738 209.038654 
L 188.999078 209.038654 
L 188.999078 206.422806 
L 190.237418 206.422806 
L 190.237418 205.075695 
L 191.475758 205.075695 
L 191.475758 203.148169 
L 192.714098 203.148169 
L 192.714098 196.392738 
L 193.952439 196.392738 
L 193.952439 199.383415 
L 195.190779 199.383415 
L 195.190779 196.633253 
L 196.429119 196.633253 
L 196.429119 193.733161 
L 197.667459 193.733161 
L 197.667459 199.142332 
L 198.905799 199.142332 
L 198.905799 198.389836 
L 200.144139 198.389836 
L 200.144139 188.727498 
L 201.38248 188.727498 
L 201.38248 187.112044 
L 202.62082 187.112044 
L 202.62082 194.215894 
L 203.85916 194.215894 
L 203.85916 185.726599 
L 205.0975 185.726599 
L 205.0975 185.303497 
L 206.33584 185.303497 
L 206.33584 177.795286 
L 207.57418 177.795286 
L 207.57418 176.387976 
L 208.81252 176.387976 
L 208.81252 185.32309 
L 210.050861 185.32309 
L 210.050861 186.597223 
L 211.289201 186.597223 
L 211.289201 178.235994 
L 212.527541 178.235994 
L 212.527541 184.456158 
L 213.765881 184.456158 
L 213.765881 183.346438 
L 215.004221 183.346438 
L 215.004221 181.43169 
L 216.242561 181.43169 
L 216.242561 181.258474 
L 217.480902 181.258474 
L 217.480902 179.420111 
L 218.719242 179.420111 
L 218.719242 177.256329 
L 219.957582 177.256329 
L 219.957582 174.414732 
L 222.434262 174.35794 
L 222.434262 175.650814 
L 224.910943 175.580675 
L 224.910943 172.739078 
L 226.149283 172.739078 
L 226.149283 169.664634 
L 227.387623 169.664634 
L 227.387623 166.650672 
L 228.625963 166.650672 
L 228.625963 165.309525 
L 229.864303 165.309525 
L 229.864303 162.601674 
L 231.102643 162.601674 
L 231.102643 158.624517 
L 232.340984 158.624517 
L 232.340984 154.314843 
L 233.579324 154.314843 
L 233.579324 162.448335 
L 234.817664 162.448335 
L 234.817664 165.33139 
L 236.056004 165.33139 
L 236.056004 166.716835 
L 237.294344 166.716835 
L 237.294344 166.087294 
L 238.532684 166.087294 
L 238.532684 166.609214 
L 239.771025 166.609214 
L 239.771025 169.664066 
L 241.009365 169.664066 
L 241.009365 171.504132 
L 242.247705 171.504132 
L 242.247705 162.953785 
L 243.486045 162.953785 
L 243.486045 159.464758 
L 245.962725 159.356569 
L 245.962725 158.024792 
L 247.201066 158.024792 
L 247.201066 156.365608 
L 248.439406 156.365608 
L 248.439406 153.000387 
L 250.916086 152.893902 
L 250.916086 151.085071 
L 252.154426 151.085071 
L 252.154426 148.779025 
L 253.392766 148.779025 
L 253.392766 146.631428 
L 254.631107 146.631428 
L 254.631107 147.77863 
L 255.869447 147.77863 
L 255.869447 147.257846 
L 257.107787 147.257846 
L 257.107787 146.516708 
L 258.346127 146.516708 
L 258.346127 145.066236 
L 259.584467 145.066236 
L 259.584467 144.577255 
L 260.822807 144.577255 
L 260.822807 145.505523 
L 262.061148 145.505523 
L 262.061148 146.005294 
L 263.299488 146.005294 
L 263.299488 143.55528 
L 264.537828 143.55528 
L 264.537828 142.051991 
L 267.014508 141.984124 
L 267.014508 141.368497 
L 269.491189 141.277345 
L 269.491189 141.221121 
L 270.729529 141.221121 
L 270.729529 143.458733 
L 271.967869 143.458733 
L 271.967869 146.776532 
L 273.206209 146.776532 
L 273.206209 153.98772 
L 274.444549 153.98772 
L 274.444549 161.964466 
L 275.682889 161.964466 
L 275.682889 170.905259 
L 276.92123 170.905259 
L 276.92123 179.707195 
L 278.15957 179.707195 
L 278.15957 187.036226 
L 279.39791 187.036226 
L 279.39791 193.063581 
L 280.63625 193.063581 
L 280.63625 200.345474 
L 281.87459 200.345474 
L 281.87459 217.527381 
L 283.11293 217.527381 
L 283.11293 221.674062 
L 284.35127 221.674062 
L 284.35127 226.35885 
L 285.589611 226.35885 
L 285.589611 231.301757 
L 286.827951 231.301757 
L 286.827951 236.826217 
L 288.066291 236.826217 
L 288.066291 239.912872 
L 289.304631 239.912872 
L 289.304631 246.470665 
L 290.542971 246.470665 
L 290.542971 241.35369 
L 291.781311 241.35369 
L 291.781311 247.64172 
L 293.019652 247.64172 
L 293.019652 252.968259 
L 294.257992 252.968259 
L 294.257992 257.475002 
L 295.496332 257.475002 
L 295.496332 260.576424 
L 296.734672 260.576424 
L 296.734672 262.141332 
L 297.973012 262.141332 
L 297.973012 265.325102 
L 299.211352 265.325102 
L 299.211352 268.576738 
L 300.449693 268.576738 
L 300.449693 271.607737 
L 301.688033 271.607737 
L 301.688033 275.021799 
L 302.926373 275.021799 
L 302.926373 279.369809 
L 304.164713 279.369809 
L 304.164713 281.056536 
L 305.403053 281.056536 
L 305.403053 282.973841 
L 306.641393 282.973841 
L 306.641393 282.61179 
L 307.879734 282.61179 
L 307.879734 284.709126 
L 309.118074 284.709126 
L 309.118074 286.101954 
L 310.356414 286.101954 
L 310.356414 287.58565 
L 311.594754 287.58565 
L 311.594754 288.189635 
L 312.833094 288.189635 
L 312.833094 289.966662 
L 314.071434 289.966662 
L 314.071434 289.833484 
L 315.309775 289.833484 
L 315.309775 294.274633 
L 316.548115 294.274633 
L 316.548115 295.976695 
L 317.786455 295.976695 
L 317.786455 298.172848 
L 319.024795 298.172848 
L 319.024795 300.399102 
L 320.263135 300.399102 
L 320.263135 302.75257 
L 321.501475 302.75257 
L 321.501475 303.542549 
L 322.739816 303.542549 
L 322.739816 303.872228 
L 323.978156 303.872228 
L 323.978156 305.351664 
L 325.216496 305.351664 
L 325.216496 305.983761 
L 326.454836 305.983761 
L 326.454836 306.514484 
L 327.693176 306.514484 
L 327.693176 307.207917 
L 328.931516 307.207917 
L 328.931516 307.45837 
L 330.169857 307.45837 
L 330.169857 307.857335 
L 331.408197 307.857335 
L 331.408197 307.857335 
" style="fill:none;stroke:#1f77b4;stroke-linecap:square;stroke-width:1.5;"/>
   </g>
   <g id="line2d_52">
    <path clip-path="url(#p16d0e3cbdd)" d="M 331.408197 292.48 
L 343.791598 292.48 
L 343.791598 319.04 
L 579.07623 319.04 
L 579.07623 319.04 
" style="fill:none;stroke:#ff7f0e;stroke-linecap:square;stroke-width:1.5;"/>
   </g>
   <g id="patch_3">
    <path d="M 54.02 319.04 
L 54.02 26.88 
" style="fill:none;stroke:#000000;stroke-linecap:square;stroke-linejoin:miter;stroke-width:0.8;"/>
   </g>
   <g id="patch_4">
    <path d="M 356.175 319.04 
L 356.175 26.88 
" style="fill:none;stroke:#000000;stroke-linecap:square;stroke-linejoin:miter;stroke-width:0.8;"/>
   </g>
   <g id="patch_5">
    <path d="M 54.02 319.04 
L 356.175 319.04 
" style="fill:none;stroke:#000000;stroke-linecap:square;stroke-linejoin:miter;stroke-width:0.8;"/>
   </g>
   <g id="patch_6">
    <path d="M 54.02 26.88 
L 356.175 26.88 
" style="fill:none;stroke:#000000;stroke-linecap:square;stroke-linejoin:miter;stroke-width:0.8;"/>
   </g>
   <g id="text_28">
    <!-- VIC daily vaccinations per capita -->
    <g transform="translate(106.995625 20.88)scale(0.12 -0.12)">
     <defs>
      <path d="M 1831 0 
L 50 4666 
L 709 4666 
L 2188 738 
L 3669 4666 
L 4325 4666 
L 2547 0 
L 1831 0 
z
" id="DejaVuSans-56" transform="scale(0.015625)"/>
      <path d="M 628 4666 
L 1259 4666 
L 1259 0 
L 628 0 
L 628 4666 
z
" id="DejaVuSans-49" transform="scale(0.015625)"/>
      <path d="M 4122 4306 
L 4122 3641 
Q 3803 3938 3442 4084 
Q 3081 4231 2675 4231 
Q 1875 4231 1450 3742 
Q 1025 3253 1025 2328 
Q 1025 1406 1450 917 
Q 1875 428 2675 428 
Q 3081 428 3442 575 
Q 3803 722 4122 1019 
L 4122 359 
Q 3791 134 3420 21 
Q 3050 -91 2638 -91 
Q 1578 -91 968 557 
Q 359 1206 359 2328 
Q 359 3453 968 4101 
Q 1578 4750 2638 4750 
Q 3056 4750 3426 4639 
Q 3797 4528 4122 4306 
z
" id="DejaVuSans-43" transform="scale(0.015625)"/>
     </defs>
     <use xlink:href="#DejaVuSans-56"/>
     <use x="68.408203" xlink:href="#DejaVuSans-49"/>
     <use x="97.900391" xlink:href="#DejaVuSans-43"/>
     <use x="167.724609" xlink:href="#DejaVuSans-20"/>
     <use x="199.511719" xlink:href="#DejaVuSans-64"/>
     <use x="262.988281" xlink:href="#DejaVuSans-61"/>
     <use x="324.267578" xlink:href="#DejaVuSans-69"/>
     <use x="352.050781" xlink:href="#DejaVuSans-6c"/>
     <use x="379.833984" xlink:href="#DejaVuSans-79"/>
     <use x="439.013672" xlink:href="#DejaVuSans-20"/>
     <use x="470.800781" xlink:href="#DejaVuSans-76"/>
     <use x="529.980469" xlink:href="#DejaVuSans-61"/>
     <use x="591.259766" xlink:href="#DejaVuSans-63"/>
     <use x="646.240234" xlink:href="#DejaVuSans-63"/>
     <use x="701.220703" xlink:href="#DejaVuSans-69"/>
     <use x="729.003906" xlink:href="#DejaVuSans-6e"/>
     <use x="792.382812" xlink:href="#DejaVuSans-61"/>
     <use x="853.662109" xlink:href="#DejaVuSans-74"/>
     <use x="892.871094" xlink:href="#DejaVuSans-69"/>
     <use x="920.654297" xlink:href="#DejaVuSans-6f"/>
     <use x="981.835938" xlink:href="#DejaVuSans-6e"/>
     <use x="1045.214844" xlink:href="#DejaVuSans-73"/>
     <use x="1097.314453" xlink:href="#DejaVuSans-20"/>
     <use x="1129.101562" xlink:href="#DejaVuSans-70"/>
     <use x="1192.578125" xlink:href="#DejaVuSans-65"/>
     <use x="1254.101562" xlink:href="#DejaVuSans-72"/>
     <use x="1295.214844" xlink:href="#DejaVuSans-20"/>
     <use x="1327.001953" xlink:href="#DejaVuSans-63"/>
     <use x="1381.982422" xlink:href="#DejaVuSans-61"/>
     <use x="1443.261719" xlink:href="#DejaVuSans-70"/>
     <use x="1506.738281" xlink:href="#DejaVuSans-69"/>
     <use x="1534.521484" xlink:href="#DejaVuSans-74"/>
     <use x="1573.730469" xlink:href="#DejaVuSans-61"/>
    </g>
   </g>
   <g id="legend_1">
    <g id="patch_7">
     <path d="M 201.292187 64.23625 
L 349.175 64.23625 
Q 351.175 64.23625 351.175 62.23625 
L 351.175 33.88 
Q 351.175 31.88 349.175 31.88 
L 201.292187 31.88 
Q 199.292187 31.88 199.292187 33.88 
L 199.292187 62.23625 
Q 199.292187 64.23625 201.292187 64.23625 
z
" style="fill:#ffffff;opacity:0.8;stroke:#cccccc;stroke-linejoin:miter;"/>
    </g>
    <g id="line2d_53">
     <path d="M 203.292187 39.978437 
L 223.292187 39.978437 
" style="fill:none;stroke:#1f77b4;stroke-linecap:square;stroke-width:1.5;"/>
    </g>
    <g id="line2d_54"/>
    <g id="text_29">
     <!-- Actual -->
     <g transform="translate(231.292187 43.478437)scale(0.1 -0.1)">
      <use xlink:href="#DejaVuSans-41"/>
      <use x="66.658203" xlink:href="#DejaVuSans-63"/>
      <use x="121.638672" xlink:href="#DejaVuSans-74"/>
      <use x="160.847656" xlink:href="#DejaVuSans-75"/>
      <use x="224.226562" xlink:href="#DejaVuSans-61"/>
      <use x="285.505859" xlink:href="#DejaVuSans-6c"/>
     </g>
    </g>
    <g id="line2d_55">
     <path d="M 203.292187 54.656563 
L 223.292187 54.656563 
" style="fill:none;stroke:#ff7f0e;stroke-linecap:square;stroke-width:1.5;"/>
    </g>
    <g id="line2d_56"/>
    <g id="text_30">
     <!-- Assumed for projection -->
     <g transform="translate(231.292187 58.156563)scale(0.1 -0.1)">
      <defs>
       <path d="M 3328 2828 
Q 3544 3216 3844 3400 
Q 4144 3584 4550 3584 
Q 5097 3584 5394 3201 
Q 5691 2819 5691 2113 
L 5691 0 
L 5113 0 
L 5113 2094 
Q 5113 2597 4934 2840 
Q 4756 3084 4391 3084 
Q 3944 3084 3684 2787 
Q 3425 2491 3425 1978 
L 3425 0 
L 2847 0 
L 2847 2094 
Q 2847 2600 2669 2842 
Q 2491 3084 2119 3084 
Q 1678 3084 1418 2786 
Q 1159 2488 1159 1978 
L 1159 0 
L 581 0 
L 581 3500 
L 1159 3500 
L 1159 2956 
Q 1356 3278 1631 3431 
Q 1906 3584 2284 3584 
Q 2666 3584 2933 3390 
Q 3200 3197 3328 2828 
z
" id="DejaVuSans-6d" transform="scale(0.015625)"/>
       <path d="M 2375 4863 
L 2375 4384 
L 1825 4384 
Q 1516 4384 1395 4259 
Q 1275 4134 1275 3809 
L 1275 3500 
L 2222 3500 
L 2222 3053 
L 1275 3053 
L 1275 0 
L 697 0 
L 697 3053 
L 147 3053 
L 147 3500 
L 697 3500 
L 697 3744 
Q 697 4328 969 4595 
Q 1241 4863 1831 4863 
L 2375 4863 
z
" id="DejaVuSans-66" transform="scale(0.015625)"/>
       <path d="M 603 3500 
L 1178 3500 
L 1178 -63 
Q 1178 -731 923 -1031 
Q 669 -1331 103 -1331 
L -116 -1331 
L -116 -844 
L 38 -844 
Q 366 -844 484 -692 
Q 603 -541 603 -63 
L 603 3500 
z
M 603 4863 
L 1178 4863 
L 1178 4134 
L 603 4134 
L 603 4863 
z
" id="DejaVuSans-6a" transform="scale(0.015625)"/>
      </defs>
      <use xlink:href="#DejaVuSans-41"/>
      <use x="68.408203" xlink:href="#DejaVuSans-73"/>
      <use x="120.507812" xlink:href="#DejaVuSans-73"/>
      <use x="172.607422" xlink:href="#DejaVuSans-75"/>
      <use x="235.986328" xlink:href="#DejaVuSans-6d"/>
      <use x="333.398438" xlink:href="#DejaVuSans-65"/>
      <use x="394.921875" xlink:href="#DejaVuSans-64"/>
      <use x="458.398438" xlink:href="#DejaVuSans-20"/>
      <use x="490.185547" xlink:href="#DejaVuSans-66"/>
      <use x="525.390625" xlink:href="#DejaVuSans-6f"/>
      <use x="586.572266" xlink:href="#DejaVuSans-72"/>
      <use x="627.685547" xlink:href="#DejaVuSans-20"/>
      <use x="659.472656" xlink:href="#DejaVuSans-70"/>
      <use x="722.949219" xlink:href="#DejaVuSans-72"/>
      <use x="761.8125" xlink:href="#DejaVuSans-6f"/>
      <use x="822.994141" xlink:href="#DejaVuSans-6a"/>
      <use x="850.777344" xlink:href="#DejaVuSans-65"/>
      <use x="912.300781" xlink:href="#DejaVuSans-63"/>
      <use x="967.28125" xlink:href="#DejaVuSans-74"/>
      <use x="1006.490234" xlink:href="#DejaVuSans-69"/>
      <use x="1034.273438" xlink:href="#DejaVuSans-6f"/>
      <use x="1095.455078" xlink:href="#DejaVuSans-6e"/>
     </g>
    </g>
   </g>
  </g>
  <g id="axes_2">
   <g id="patch_8">
    <path d="M 407.045 319.04 
L 709.2 319.04 
L 709.2 26.88 
L 407.045 26.88 
z
" style="fill:#ffffff;"/>
   </g>
   <g id="matplotlib.axis_3">
    <g id="xtick_17">
     <g id="line2d_57">
      <path clip-path="url(#pced621669d)" d="M 407.045 319.04 
L 407.045 26.88 
" style="fill:none;stroke:#000000;stroke-dasharray:0.8,1.32;stroke-dashoffset:0;stroke-opacity:0.5;stroke-width:0.8;"/>
     </g>
     <g id="line2d_58">
      <g>
       <use style="stroke:#000000;stroke-width:0.8;" x="407.045" xlink:href="#m89890462fb" y="319.04"/>
      </g>
     </g>
     <g id="text_31">
      <!-- May -->
      <g transform="translate(396.7075 333.638438)scale(0.1 -0.1)">
       <use xlink:href="#DejaVuSans-4d"/>
       <use x="86.279297" xlink:href="#DejaVuSans-61"/>
       <use x="147.558594" xlink:href="#DejaVuSans-79"/>
      </g>
     </g>
    </g>
    <g id="xtick_18">
     <g id="line2d_59">
      <path clip-path="url(#pced621669d)" d="M 424.381762 319.04 
L 424.381762 26.88 
" style="fill:none;stroke:#000000;stroke-dasharray:0.8,1.32;stroke-dashoffset:0;stroke-opacity:0.5;stroke-width:0.8;"/>
     </g>
     <g id="line2d_60">
      <g>
       <use style="stroke:#000000;stroke-width:0.8;" x="424.381762" xlink:href="#m89890462fb" y="319.04"/>
      </g>
     </g>
     <g id="text_32">
      <!-- 15 -->
      <g transform="translate(418.019262 333.638438)scale(0.1 -0.1)">
       <use xlink:href="#DejaVuSans-31"/>
       <use x="63.623047" xlink:href="#DejaVuSans-35"/>
      </g>
     </g>
    </g>
    <g id="xtick_19">
     <g id="line2d_61">
      <path clip-path="url(#pced621669d)" d="M 445.433545 319.04 
L 445.433545 26.88 
" style="fill:none;stroke:#000000;stroke-dasharray:0.8,1.32;stroke-dashoffset:0;stroke-opacity:0.5;stroke-width:0.8;"/>
     </g>
     <g id="line2d_62">
      <g>
       <use style="stroke:#000000;stroke-width:0.8;" x="445.433545" xlink:href="#m89890462fb" y="319.04"/>
      </g>
     </g>
     <g id="text_33">
      <!-- Jun -->
      <g transform="translate(437.621045 333.638438)scale(0.1 -0.1)">
       <use xlink:href="#DejaVuSans-4a"/>
       <use x="29.492188" xlink:href="#DejaVuSans-75"/>
       <use x="92.871094" xlink:href="#DejaVuSans-6e"/>
      </g>
     </g>
    </g>
    <g id="xtick_20">
     <g id="line2d_63">
      <path clip-path="url(#pced621669d)" d="M 462.770307 319.04 
L 462.770307 26.88 
" style="fill:none;stroke:#000000;stroke-dasharray:0.8,1.32;stroke-dashoffset:0;stroke-opacity:0.5;stroke-width:0.8;"/>
     </g>
     <g id="line2d_64">
      <g>
       <use style="stroke:#000000;stroke-width:0.8;" x="462.770307" xlink:href="#m89890462fb" y="319.04"/>
      </g>
     </g>
     <g id="text_34">
      <!-- 15 -->
      <g transform="translate(456.407807 333.638438)scale(0.1 -0.1)">
       <use xlink:href="#DejaVuSans-31"/>
       <use x="63.623047" xlink:href="#DejaVuSans-35"/>
      </g>
     </g>
    </g>
    <g id="xtick_21">
     <g id="line2d_65">
      <path clip-path="url(#pced621669d)" d="M 482.58375 319.04 
L 482.58375 26.88 
" style="fill:none;stroke:#000000;stroke-dasharray:0.8,1.32;stroke-dashoffset:0;stroke-opacity:0.5;stroke-width:0.8;"/>
     </g>
     <g id="line2d_66">
      <g>
       <use style="stroke:#000000;stroke-width:0.8;" x="482.58375" xlink:href="#m89890462fb" y="319.04"/>
      </g>
     </g>
     <g id="text_35">
      <!-- Jul -->
      <g transform="translate(476.550938 333.638438)scale(0.1 -0.1)">
       <use xlink:href="#DejaVuSans-4a"/>
       <use x="29.492188" xlink:href="#DejaVuSans-75"/>
       <use x="92.871094" xlink:href="#DejaVuSans-6c"/>
      </g>
     </g>
    </g>
    <g id="xtick_22">
     <g id="line2d_67">
      <path clip-path="url(#pced621669d)" d="M 499.920512 319.04 
L 499.920512 26.88 
" style="fill:none;stroke:#000000;stroke-dasharray:0.8,1.32;stroke-dashoffset:0;stroke-opacity:0.5;stroke-width:0.8;"/>
     </g>
     <g id="line2d_68">
      <g>
       <use style="stroke:#000000;stroke-width:0.8;" x="499.920512" xlink:href="#m89890462fb" y="319.04"/>
      </g>
     </g>
     <g id="text_36">
      <!-- 15 -->
      <g transform="translate(493.558012 333.638438)scale(0.1 -0.1)">
       <use xlink:href="#DejaVuSans-31"/>
       <use x="63.623047" xlink:href="#DejaVuSans-35"/>
      </g>
     </g>
    </g>
    <g id="xtick_23">
     <g id="line2d_69">
      <path clip-path="url(#pced621669d)" d="M 520.972295 319.04 
L 520.972295 26.88 
" style="fill:none;stroke:#000000;stroke-dasharray:0.8,1.32;stroke-dashoffset:0;stroke-opacity:0.5;stroke-width:0.8;"/>
     </g>
     <g id="line2d_70">
      <g>
       <use style="stroke:#000000;stroke-width:0.8;" x="520.972295" xlink:href="#m89890462fb" y="319.04"/>
      </g>
     </g>
     <g id="text_37">
      <!-- Aug -->
      <g transform="translate(511.209014 333.638438)scale(0.1 -0.1)">
       <use xlink:href="#DejaVuSans-41"/>
       <use x="68.408203" xlink:href="#DejaVuSans-75"/>
       <use x="131.787109" xlink:href="#DejaVuSans-67"/>
      </g>
     </g>
    </g>
    <g id="xtick_24">
     <g id="line2d_71">
      <path clip-path="url(#pced621669d)" d="M 538.309057 319.04 
L 538.309057 26.88 
" style="fill:none;stroke:#000000;stroke-dasharray:0.8,1.32;stroke-dashoffset:0;stroke-opacity:0.5;stroke-width:0.8;"/>
     </g>
     <g id="line2d_72">
      <g>
       <use style="stroke:#000000;stroke-width:0.8;" x="538.309057" xlink:href="#m89890462fb" y="319.04"/>
      </g>
     </g>
     <g id="text_38">
      <!-- 15 -->
      <g transform="translate(531.946557 333.638438)scale(0.1 -0.1)">
       <use xlink:href="#DejaVuSans-31"/>
       <use x="63.623047" xlink:href="#DejaVuSans-35"/>
      </g>
     </g>
    </g>
    <g id="xtick_25">
     <g id="line2d_73">
      <path clip-path="url(#pced621669d)" d="M 559.36084 319.04 
L 559.36084 26.88 
" style="fill:none;stroke:#000000;stroke-dasharray:0.8,1.32;stroke-dashoffset:0;stroke-opacity:0.5;stroke-width:0.8;"/>
     </g>
     <g id="line2d_74">
      <g>
       <use style="stroke:#000000;stroke-width:0.8;" x="559.36084" xlink:href="#m89890462fb" y="319.04"/>
      </g>
     </g>
     <g id="text_39">
      <!-- Sep -->
      <g transform="translate(549.93584 333.638438)scale(0.1 -0.1)">
       <use xlink:href="#DejaVuSans-53"/>
       <use x="63.476562" xlink:href="#DejaVuSans-65"/>
       <use x="125" xlink:href="#DejaVuSans-70"/>
      </g>
     </g>
    </g>
    <g id="xtick_26">
     <g id="line2d_75">
      <path clip-path="url(#pced621669d)" d="M 576.697602 319.04 
L 576.697602 26.88 
" style="fill:none;stroke:#000000;stroke-dasharray:0.8,1.32;stroke-dashoffset:0;stroke-opacity:0.5;stroke-width:0.8;"/>
     </g>
     <g id="line2d_76">
      <g>
       <use style="stroke:#000000;stroke-width:0.8;" x="576.697602" xlink:href="#m89890462fb" y="319.04"/>
      </g>
     </g>
     <g id="text_40">
      <!-- 15 -->
      <g transform="translate(570.335102 333.638438)scale(0.1 -0.1)">
       <use xlink:href="#DejaVuSans-31"/>
       <use x="63.623047" xlink:href="#DejaVuSans-35"/>
      </g>
     </g>
    </g>
    <g id="xtick_27">
     <g id="line2d_77">
      <path clip-path="url(#pced621669d)" d="M 596.511045 319.04 
L 596.511045 26.88 
" style="fill:none;stroke:#000000;stroke-dasharray:0.8,1.32;stroke-dashoffset:0;stroke-opacity:0.5;stroke-width:0.8;"/>
     </g>
     <g id="line2d_78">
      <g>
       <use style="stroke:#000000;stroke-width:0.8;" x="596.511045" xlink:href="#m89890462fb" y="319.04"/>
      </g>
     </g>
     <g id="text_41">
      <!-- Oct -->
      <g transform="translate(587.865733 333.638438)scale(0.1 -0.1)">
       <use xlink:href="#DejaVuSans-4f"/>
       <use x="78.710938" xlink:href="#DejaVuSans-63"/>
       <use x="133.691406" xlink:href="#DejaVuSans-74"/>
      </g>
     </g>
    </g>
    <g id="xtick_28">
     <g id="line2d_79">
      <path clip-path="url(#pced621669d)" d="M 613.847807 319.04 
L 613.847807 26.88 
" style="fill:none;stroke:#000000;stroke-dasharray:0.8,1.32;stroke-dashoffset:0;stroke-opacity:0.5;stroke-width:0.8;"/>
     </g>
     <g id="line2d_80">
      <g>
       <use style="stroke:#000000;stroke-width:0.8;" x="613.847807" xlink:href="#m89890462fb" y="319.04"/>
      </g>
     </g>
     <g id="text_42">
      <!-- 15 -->
      <g transform="translate(607.485307 333.638438)scale(0.1 -0.1)">
       <use xlink:href="#DejaVuSans-31"/>
       <use x="63.623047" xlink:href="#DejaVuSans-35"/>
      </g>
     </g>
    </g>
    <g id="xtick_29">
     <g id="line2d_81">
      <path clip-path="url(#pced621669d)" d="M 634.89959 319.04 
L 634.89959 26.88 
" style="fill:none;stroke:#000000;stroke-dasharray:0.8,1.32;stroke-dashoffset:0;stroke-opacity:0.5;stroke-width:0.8;"/>
     </g>
     <g id="line2d_82">
      <g>
       <use style="stroke:#000000;stroke-width:0.8;" x="634.89959" xlink:href="#m89890462fb" y="319.04"/>
      </g>
     </g>
     <g id="text_43">
      <!-- Nov -->
      <g transform="translate(625.140215 333.638438)scale(0.1 -0.1)">
       <use xlink:href="#DejaVuSans-4e"/>
       <use x="74.804688" xlink:href="#DejaVuSans-6f"/>
       <use x="135.986328" xlink:href="#DejaVuSans-76"/>
      </g>
     </g>
    </g>
    <g id="xtick_30">
     <g id="line2d_83">
      <path clip-path="url(#pced621669d)" d="M 652.236352 319.04 
L 652.236352 26.88 
" style="fill:none;stroke:#000000;stroke-dasharray:0.8,1.32;stroke-dashoffset:0;stroke-opacity:0.5;stroke-width:0.8;"/>
     </g>
     <g id="line2d_84">
      <g>
       <use style="stroke:#000000;stroke-width:0.8;" x="652.236352" xlink:href="#m89890462fb" y="319.04"/>
      </g>
     </g>
     <g id="text_44">
      <!-- 15 -->
      <g transform="translate(645.873852 333.638438)scale(0.1 -0.1)">
       <use xlink:href="#DejaVuSans-31"/>
       <use x="63.623047" xlink:href="#DejaVuSans-35"/>
      </g>
     </g>
    </g>
    <g id="xtick_31">
     <g id="line2d_85">
      <path clip-path="url(#pced621669d)" d="M 672.049795 319.04 
L 672.049795 26.88 
" style="fill:none;stroke:#000000;stroke-dasharray:0.8,1.32;stroke-dashoffset:0;stroke-opacity:0.5;stroke-width:0.8;"/>
     </g>
     <g id="line2d_86">
      <g>
       <use style="stroke:#000000;stroke-width:0.8;" x="672.049795" xlink:href="#m89890462fb" y="319.04"/>
      </g>
     </g>
     <g id="text_45">
      <!-- Dec -->
      <g transform="translate(662.374014 333.638438)scale(0.1 -0.1)">
       <use xlink:href="#DejaVuSans-44"/>
       <use x="77.001953" xlink:href="#DejaVuSans-65"/>
       <use x="138.525391" xlink:href="#DejaVuSans-63"/>
      </g>
     </g>
    </g>
    <g id="xtick_32">
     <g id="line2d_87">
      <path clip-path="url(#pced621669d)" d="M 689.386557 319.04 
L 689.386557 26.88 
" style="fill:none;stroke:#000000;stroke-dasharray:0.8,1.32;stroke-dashoffset:0;stroke-opacity:0.5;stroke-width:0.8;"/>
     </g>
     <g id="line2d_88">
      <g>
       <use style="stroke:#000000;stroke-width:0.8;" x="689.386557" xlink:href="#m89890462fb" y="319.04"/>
      </g>
     </g>
     <g id="text_46">
      <!-- 15 -->
      <g transform="translate(683.024057 333.638438)scale(0.1 -0.1)">
       <use xlink:href="#DejaVuSans-31"/>
       <use x="63.623047" xlink:href="#DejaVuSans-35"/>
      </g>
     </g>
    </g>
    <g id="text_47">
     <!-- 2021-Dec -->
     <g transform="translate(660.790625 346.316563)scale(0.1 -0.1)">
      <use xlink:href="#DejaVuSans-32"/>
      <use x="63.623047" xlink:href="#DejaVuSans-30"/>
      <use x="127.246094" xlink:href="#DejaVuSans-32"/>
      <use x="190.869141" xlink:href="#DejaVuSans-31"/>
      <use x="254.492188" xlink:href="#DejaVuSans-2d"/>
      <use x="290.576172" xlink:href="#DejaVuSans-44"/>
      <use x="367.578125" xlink:href="#DejaVuSans-65"/>
      <use x="429.101562" xlink:href="#DejaVuSans-63"/>
     </g>
    </g>
   </g>
   <g id="matplotlib.axis_4">
    <g id="ytick_10">
     <g id="line2d_89">
      <path clip-path="url(#pced621669d)" d="M 407.045 319.04 
L 709.2 319.04 
" style="fill:none;stroke:#000000;stroke-dasharray:0.8,1.32;stroke-dashoffset:0;stroke-opacity:0.5;stroke-width:0.8;"/>
     </g>
     <g id="line2d_90">
      <g>
       <use style="stroke:#000000;stroke-width:0.8;" x="407.045" xlink:href="#mdda9b2d03b" y="319.04"/>
      </g>
     </g>
     <g id="text_48">
      <!-- 0 -->
      <g transform="translate(393.6825 322.839219)scale(0.1 -0.1)">
       <use xlink:href="#DejaVuSans-30"/>
      </g>
     </g>
    </g>
    <g id="ytick_11">
     <g id="line2d_91">
      <path clip-path="url(#pced621669d)" d="M 407.045 282.52 
L 709.2 282.52 
" style="fill:none;stroke:#000000;stroke-dasharray:0.8,1.32;stroke-dashoffset:0;stroke-opacity:0.5;stroke-width:0.8;"/>
     </g>
     <g id="line2d_92">
      <g>
       <use style="stroke:#000000;stroke-width:0.8;" x="407.045" xlink:href="#mdda9b2d03b" y="282.52"/>
      </g>
     </g>
     <g id="text_49">
      <!-- 25 -->
      <g transform="translate(387.32 286.319219)scale(0.1 -0.1)">
       <use xlink:href="#DejaVuSans-32"/>
       <use x="63.623047" xlink:href="#DejaVuSans-35"/>
      </g>
     </g>
    </g>
    <g id="ytick_12">
     <g id="line2d_93">
      <path clip-path="url(#pced621669d)" d="M 407.045 246 
L 709.2 246 
" style="fill:none;stroke:#000000;stroke-dasharray:0.8,1.32;stroke-dashoffset:0;stroke-opacity:0.5;stroke-width:0.8;"/>
     </g>
     <g id="line2d_94">
      <g>
       <use style="stroke:#000000;stroke-width:0.8;" x="407.045" xlink:href="#mdda9b2d03b" y="246"/>
      </g>
     </g>
     <g id="text_50">
      <!-- 50 -->
      <g transform="translate(387.32 249.799219)scale(0.1 -0.1)">
       <use xlink:href="#DejaVuSans-35"/>
       <use x="63.623047" xlink:href="#DejaVuSans-30"/>
      </g>
     </g>
    </g>
    <g id="ytick_13">
     <g id="line2d_95">
      <path clip-path="url(#pced621669d)" d="M 407.045 209.48 
L 709.2 209.48 
" style="fill:none;stroke:#000000;stroke-dasharray:0.8,1.32;stroke-dashoffset:0;stroke-opacity:0.5;stroke-width:0.8;"/>
     </g>
     <g id="line2d_96">
      <g>
       <use style="stroke:#000000;stroke-width:0.8;" x="407.045" xlink:href="#mdda9b2d03b" y="209.48"/>
      </g>
     </g>
     <g id="text_51">
      <!-- 75 -->
      <g transform="translate(387.32 213.279219)scale(0.1 -0.1)">
       <use xlink:href="#DejaVuSans-37"/>
       <use x="63.623047" xlink:href="#DejaVuSans-35"/>
      </g>
     </g>
    </g>
    <g id="ytick_14">
     <g id="line2d_97">
      <path clip-path="url(#pced621669d)" d="M 407.045 172.96 
L 709.2 172.96 
" style="fill:none;stroke:#000000;stroke-dasharray:0.8,1.32;stroke-dashoffset:0;stroke-opacity:0.5;stroke-width:0.8;"/>
     </g>
     <g id="line2d_98">
      <g>
       <use style="stroke:#000000;stroke-width:0.8;" x="407.045" xlink:href="#mdda9b2d03b" y="172.96"/>
      </g>
     </g>
     <g id="text_52">
      <!-- 100 -->
      <g transform="translate(380.9575 176.759219)scale(0.1 -0.1)">
       <use xlink:href="#DejaVuSans-31"/>
       <use x="63.623047" xlink:href="#DejaVuSans-30"/>
       <use x="127.246094" xlink:href="#DejaVuSans-30"/>
      </g>
     </g>
    </g>
    <g id="ytick_15">
     <g id="line2d_99">
      <path clip-path="url(#pced621669d)" d="M 407.045 136.44 
L 709.2 136.44 
" style="fill:none;stroke:#000000;stroke-dasharray:0.8,1.32;stroke-dashoffset:0;stroke-opacity:0.5;stroke-width:0.8;"/>
     </g>
     <g id="line2d_100">
      <g>
       <use style="stroke:#000000;stroke-width:0.8;" x="407.045" xlink:href="#mdda9b2d03b" y="136.44"/>
      </g>
     </g>
     <g id="text_53">
      <!-- 125 -->
      <g transform="translate(380.9575 140.239219)scale(0.1 -0.1)">
       <use xlink:href="#DejaVuSans-31"/>
       <use x="63.623047" xlink:href="#DejaVuSans-32"/>
       <use x="127.246094" xlink:href="#DejaVuSans-35"/>
      </g>
     </g>
    </g>
    <g id="ytick_16">
     <g id="line2d_101">
      <path clip-path="url(#pced621669d)" d="M 407.045 99.92 
L 709.2 99.92 
" style="fill:none;stroke:#000000;stroke-dasharray:0.8,1.32;stroke-dashoffset:0;stroke-opacity:0.5;stroke-width:0.8;"/>
     </g>
     <g id="line2d_102">
      <g>
       <use style="stroke:#000000;stroke-width:0.8;" x="407.045" xlink:href="#mdda9b2d03b" y="99.92"/>
      </g>
     </g>
     <g id="text_54">
      <!-- 150 -->
      <g transform="translate(380.9575 103.719219)scale(0.1 -0.1)">
       <use xlink:href="#DejaVuSans-31"/>
       <use x="63.623047" xlink:href="#DejaVuSans-35"/>
       <use x="127.246094" xlink:href="#DejaVuSans-30"/>
      </g>
     </g>
    </g>
    <g id="ytick_17">
     <g id="line2d_103">
      <path clip-path="url(#pced621669d)" d="M 407.045 63.4 
L 709.2 63.4 
" style="fill:none;stroke:#000000;stroke-dasharray:0.8,1.32;stroke-dashoffset:0;stroke-opacity:0.5;stroke-width:0.8;"/>
     </g>
     <g id="line2d_104">
      <g>
       <use style="stroke:#000000;stroke-width:0.8;" x="407.045" xlink:href="#mdda9b2d03b" y="63.4"/>
      </g>
     </g>
     <g id="text_55">
      <!-- 175 -->
      <g transform="translate(380.9575 67.199219)scale(0.1 -0.1)">
       <use xlink:href="#DejaVuSans-31"/>
       <use x="63.623047" xlink:href="#DejaVuSans-37"/>
       <use x="127.246094" xlink:href="#DejaVuSans-35"/>
      </g>
     </g>
    </g>
    <g id="ytick_18">
     <g id="line2d_105">
      <path clip-path="url(#pced621669d)" d="M 407.045 26.88 
L 709.2 26.88 
" style="fill:none;stroke:#000000;stroke-dasharray:0.8,1.32;stroke-dashoffset:0;stroke-opacity:0.5;stroke-width:0.8;"/>
     </g>
     <g id="line2d_106">
      <g>
       <use style="stroke:#000000;stroke-width:0.8;" x="407.045" xlink:href="#mdda9b2d03b" y="26.88"/>
      </g>
     </g>
     <g id="text_56">
      <!-- 200 -->
      <g transform="translate(380.9575 30.679219)scale(0.1 -0.1)">
       <use xlink:href="#DejaVuSans-32"/>
       <use x="63.623047" xlink:href="#DejaVuSans-30"/>
       <use x="127.246094" xlink:href="#DejaVuSans-30"/>
      </g>
     </g>
    </g>
    <g id="text_57">
     <!-- cumulative doses per hundred population -->
     <g transform="translate(374.877813 277.418594)rotate(-90)scale(0.1 -0.1)">
      <use xlink:href="#DejaVuSans-63"/>
      <use x="54.980469" xlink:href="#DejaVuSans-75"/>
      <use x="118.359375" xlink:href="#DejaVuSans-6d"/>
      <use x="215.771484" xlink:href="#DejaVuSans-75"/>
      <use x="279.150391" xlink:href="#DejaVuSans-6c"/>
      <use x="306.933594" xlink:href="#DejaVuSans-61"/>
      <use x="368.212891" xlink:href="#DejaVuSans-74"/>
      <use x="407.421875" xlink:href="#DejaVuSans-69"/>
      <use x="435.205078" xlink:href="#DejaVuSans-76"/>
      <use x="494.384766" xlink:href="#DejaVuSans-65"/>
      <use x="555.908203" xlink:href="#DejaVuSans-20"/>
      <use x="587.695312" xlink:href="#DejaVuSans-64"/>
      <use x="651.171875" xlink:href="#DejaVuSans-6f"/>
      <use x="712.353516" xlink:href="#DejaVuSans-73"/>
      <use x="764.453125" xlink:href="#DejaVuSans-65"/>
      <use x="825.976562" xlink:href="#DejaVuSans-73"/>
      <use x="878.076172" xlink:href="#DejaVuSans-20"/>
      <use x="909.863281" xlink:href="#DejaVuSans-70"/>
      <use x="973.339844" xlink:href="#DejaVuSans-65"/>
      <use x="1034.863281" xlink:href="#DejaVuSans-72"/>
      <use x="1075.976562" xlink:href="#DejaVuSans-20"/>
      <use x="1107.763672" xlink:href="#DejaVuSans-68"/>
      <use x="1171.142578" xlink:href="#DejaVuSans-75"/>
      <use x="1234.521484" xlink:href="#DejaVuSans-6e"/>
      <use x="1297.900391" xlink:href="#DejaVuSans-64"/>
      <use x="1361.376953" xlink:href="#DejaVuSans-72"/>
      <use x="1400.240234" xlink:href="#DejaVuSans-65"/>
      <use x="1461.763672" xlink:href="#DejaVuSans-64"/>
      <use x="1525.240234" xlink:href="#DejaVuSans-20"/>
      <use x="1557.027344" xlink:href="#DejaVuSans-70"/>
      <use x="1620.503906" xlink:href="#DejaVuSans-6f"/>
      <use x="1681.685547" xlink:href="#DejaVuSans-70"/>
      <use x="1745.162109" xlink:href="#DejaVuSans-75"/>
      <use x="1808.541016" xlink:href="#DejaVuSans-6c"/>
      <use x="1836.324219" xlink:href="#DejaVuSans-61"/>
      <use x="1897.603516" xlink:href="#DejaVuSans-74"/>
      <use x="1936.8125" xlink:href="#DejaVuSans-69"/>
      <use x="1964.595703" xlink:href="#DejaVuSans-6f"/>
      <use x="2025.777344" xlink:href="#DejaVuSans-6e"/>
     </g>
    </g>
   </g>
   <g id="line2d_107">
    <path clip-path="url(#pced621669d)" d="M 357.511393 318.966337 
L 357.511393 318.944625 
L 363.703094 318.841619 
L 363.703094 318.829834 
L 367.418115 318.760522 
L 367.418115 318.70223 
L 374.848156 318.622029 
L 374.848156 318.565748 
L 377.324836 318.519766 
L 377.324836 313.332144 
L 378.563176 313.332144 
L 378.563176 313.042302 
L 379.801516 313.042302 
L 379.801516 312.880326 
L 382.278197 312.803186 
L 382.278197 312.516886 
L 383.516537 312.516886 
L 383.516537 312.202424 
L 384.754877 312.202424 
L 384.754877 311.883611 
L 385.993217 311.883611 
L 385.993217 311.573521 
L 387.231557 311.573521 
L 387.231557 311.28908 
L 388.469898 311.28908 
L 388.469898 311.173567 
L 389.708238 311.173567 
L 389.708238 310.763008 
L 390.946578 310.763008 
L 390.946578 310.397753 
L 392.184918 310.397753 
L 392.184918 310.06816 
L 393.423258 310.06816 
L 393.423258 309.697833 
L 394.661598 309.697833 
L 394.661598 309.278353 
L 395.899939 309.278353 
L 395.899939 308.985472 
L 397.138279 308.985472 
L 397.138279 308.846061 
L 399.614959 308.821812 
L 399.614959 308.562625 
L 400.853299 308.562625 
L 400.853299 308.186656 
L 402.091639 308.186656 
L 402.091639 307.738664 
L 403.32998 307.738664 
L 403.32998 307.371223 
L 404.56832 307.371223 
L 404.56832 307.097845 
L 407.045 306.989307 
L 407.045 306.939433 
L 408.28334 306.939433 
L 408.28334 306.520609 
L 409.52168 306.520609 
L 409.52168 305.998758 
L 410.76002 305.998758 
L 410.76002 305.505986 
L 411.998361 305.505986 
L 411.998361 304.968895 
L 413.236701 304.968895 
L 413.236701 304.56378 
L 414.475041 304.56378 
L 414.475041 304.389822 
L 416.951721 304.31957 
L 416.951721 303.837578 
L 418.190061 303.837578 
L 418.190061 303.405329 
L 419.428402 303.405329 
L 419.428402 302.893842 
L 420.666742 302.893842 
L 420.666742 302.415108 
L 421.905082 302.415108 
L 421.905082 301.978814 
L 423.143422 301.978814 
L 423.143422 301.811175 
L 425.620102 301.715625 
L 425.620102 301.18612 
L 426.858443 301.18612 
L 426.858443 300.635953 
L 428.096783 300.635953 
L 428.096783 300.090181 
L 429.335123 300.090181 
L 429.335123 299.5096 
L 430.573463 299.5096 
L 430.573463 299.034234 
L 431.811803 299.034234 
L 431.811803 298.833622 
L 434.288484 298.725084 
L 434.288484 298.475299 
L 435.526824 298.475299 
L 435.526824 297.80846 
L 436.765164 297.80846 
L 436.765164 297.143196 
L 438.003504 297.143196 
L 438.003504 296.238226 
L 439.241844 296.238226 
L 439.241844 295.288017 
L 440.480184 295.288017 
L 440.480184 294.687867 
L 441.718525 294.687867 
L 441.718525 294.230692 
L 442.956865 294.230692 
L 442.956865 293.347587 
L 444.195205 293.347587 
L 444.195205 292.228624 
L 445.433545 292.228624 
L 445.433545 291.119851 
L 446.671885 291.119851 
L 446.671885 290.06563 
L 447.910225 290.06563 
L 447.910225 288.92642 
L 449.148566 288.92642 
L 449.148566 288.00011 
L 450.386906 288.00011 
L 450.386906 287.069077 
L 451.625246 287.069077 
L 451.625246 285.991854 
L 452.863586 285.991854 
L 452.863586 284.958515 
L 454.101926 284.958515 
L 454.101926 283.835813 
L 455.340266 283.835813 
L 455.340266 282.728636 
L 456.578607 282.728636 
L 456.578607 281.769156 
L 457.816947 281.769156 
L 457.816947 281.261407 
L 459.055287 281.261407 
L 459.055287 280.880191 
L 460.293627 280.880191 
L 460.293627 280.648379 
L 461.531967 280.648379 
L 461.531967 279.531231 
L 462.770307 279.531231 
L 462.770307 278.646508 
L 464.008648 278.646508 
L 464.008648 277.769328 
L 465.246988 277.769328 
L 465.246988 276.967714 
L 466.485328 276.967714 
L 466.485328 276.565791 
L 467.723668 276.565791 
L 467.723668 276.290795 
L 468.962008 276.290795 
L 468.962008 275.492767 
L 470.200348 275.492767 
L 470.200348 274.594969 
L 471.438689 274.594969 
L 471.438689 273.757518 
L 472.677029 273.757518 
L 472.677029 272.976282 
L 473.915369 272.976282 
L 473.915369 272.238688 
L 475.153709 272.238688 
L 475.153709 271.852137 
L 476.392049 271.852137 
L 476.392049 271.530131 
L 477.630389 271.530131 
L 477.630389 270.666683 
L 478.86873 270.666683 
L 478.86873 269.899178 
L 480.10707 269.899178 
L 480.10707 269.054577 
L 482.58375 269.130929 
L 482.58375 268.278064 
L 483.82209 268.278064 
L 483.82209 267.804971 
L 485.06043 267.804971 
L 485.06043 267.525602 
L 486.29877 267.525602 
L 486.29877 266.79295 
L 487.537111 266.79295 
L 487.537111 265.862704 
L 488.775451 265.862704 
L 488.775451 265.187338 
L 490.013791 265.187338 
L 490.013791 264.396634 
L 491.252131 264.396634 
L 491.252131 263.659719 
L 492.490471 263.659719 
L 492.490471 263.243737 
L 493.728811 263.243737 
L 493.728811 262.962182 
L 494.967152 262.962182 
L 494.967152 262.135444 
L 496.205492 262.135444 
L 496.205492 261.366365 
L 497.443832 261.366365 
L 497.443832 260.520649 
L 498.682172 260.520649 
L 498.682172 259.703861 
L 499.920512 259.703861 
L 499.920512 258.843583 
L 501.158852 258.843583 
L 501.158852 258.295602 
L 502.397193 258.295602 
L 502.397193 257.940012 
L 503.635533 257.940012 
L 503.635533 257.017222 
L 504.873873 257.017222 
L 504.873873 256.078536 
L 506.112213 256.078536 
L 506.112213 255.166197 
L 507.350553 255.166197 
L 507.350553 254.284973 
L 508.588893 254.284973 
L 508.588893 253.246517 
L 509.827234 253.246517 
L 509.827234 252.570014 
L 511.065574 252.570014 
L 511.065574 252.190875 
L 512.303914 252.190875 
L 512.303914 251.097298 
L 513.542254 251.097298 
L 513.542254 250.247996 
L 514.780594 250.247996 
L 514.780594 249.256003 
L 516.018934 249.256003 
L 516.018934 248.236154 
L 517.257275 248.236154 
L 517.257275 247.257018 
L 518.495615 247.257018 
L 518.495615 246.636687 
L 519.733955 246.636687 
L 519.733955 246.203869 
L 520.972295 246.203869 
L 520.972295 245.22786 
L 522.210635 245.22786 
L 522.210635 244.299756 
L 523.448975 244.299756 
L 523.448975 243.303609 
L 524.687316 243.303609 
L 524.687316 242.264257 
L 525.925656 242.264257 
L 525.925656 241.152772 
L 527.163996 241.152772 
L 527.163996 240.4438 
L 528.402336 240.4438 
L 528.402336 239.891949 
L 529.640676 239.891949 
L 529.640676 238.731224 
L 530.879016 238.731224 
L 530.879016 237.531165 
L 532.117357 237.531165 
L 532.117357 236.213733 
L 533.355697 236.213733 
L 533.355697 234.889568 
L 534.594037 234.889568 
L 534.594037 233.464845 
L 535.832377 233.464845 
L 535.832377 232.54938 
L 537.070717 232.54938 
L 537.070717 232.323558 
L 538.309057 232.323558 
L 538.309057 230.608009 
L 539.547398 230.608009 
L 539.547398 229.228044 
L 540.785738 229.228044 
L 540.785738 227.74363 
L 542.024078 227.74363 
L 542.024078 226.218044 
L 543.262418 226.218044 
L 543.262418 224.689593 
L 544.500758 224.689593 
L 544.500758 223.625709 
L 545.739098 223.625709 
L 545.739098 222.879719 
L 546.977439 222.879719 
L 546.977439 221.394452 
L 548.215779 221.394452 
L 548.215779 219.802724 
L 549.454119 219.802724 
L 549.454119 218.095003 
L 550.692459 218.095003 
L 550.692459 216.985923 
L 551.930799 216.985923 
L 551.930799 215.399531 
L 553.169139 215.399531 
L 553.169139 213.591646 
L 554.40748 213.591646 
L 554.40748 212.721266 
L 555.64582 212.721266 
L 555.64582 211.782996 
L 556.88416 211.782996 
L 556.88416 209.537592 
L 558.1225 209.537592 
L 558.1225 207.797292 
L 559.36084 207.797292 
L 559.36084 206.11008 
L 560.59918 206.11008 
L 560.59918 204.415325 
L 561.83752 204.415325 
L 561.83752 203.295444 
L 563.075861 203.295444 
L 563.075861 202.523172 
L 564.314201 202.523172 
L 564.314201 200.941087 
L 565.552541 200.941087 
L 565.552541 199.174637 
L 566.790881 199.174637 
L 566.790881 197.348888 
L 568.029221 197.348888 
L 568.029221 195.51424 
L 569.267561 195.51424 
L 569.267561 193.806147 
L 570.505902 193.806147 
L 570.505902 192.544712 
L 571.744242 192.544712 
L 571.744242 191.60583 
L 572.982582 191.60583 
L 572.982582 189.804942 
L 574.220922 189.804942 
L 574.220922 188.034118 
L 575.459262 188.034118 
L 575.459262 186.307921 
L 576.697602 186.307921 
L 576.697602 184.467872 
L 577.935943 184.467872 
L 577.935943 182.540976 
L 579.174283 182.540976 
L 579.174283 181.042809 
L 580.412623 181.042809 
L 580.412623 179.871851 
L 581.650963 179.871851 
L 581.650963 177.967695 
L 582.889303 177.967695 
L 582.889303 175.988367 
L 584.127643 175.988367 
L 584.127643 173.955928 
L 585.365984 173.955928 
L 585.365984 171.784035 
L 586.604324 171.784035 
L 586.604324 170.483418 
L 587.842664 170.483418 
L 587.842664 169.207246 
L 589.081004 169.207246 
L 589.081004 168.142968 
L 590.319344 168.142968 
L 590.319344 166.190337 
L 591.557684 166.190337 
L 591.557684 164.251196 
L 592.796025 164.251196 
L 592.796025 162.453981 
L 594.034365 162.453981 
L 594.034365 160.423773 
L 595.272705 160.423773 
L 595.272705 158.46478 
L 596.511045 158.46478 
L 596.511045 156.919952 
L 597.749385 156.919952 
L 597.749385 155.847343 
L 598.987725 155.847343 
L 598.987725 153.792166 
L 600.226066 153.792166 
L 600.226066 151.725268 
L 601.464406 151.725268 
L 601.464406 149.668931 
L 602.702746 149.668931 
L 602.702746 147.630524 
L 603.941086 147.630524 
L 603.941086 145.53225 
L 605.179426 145.53225 
L 605.179426 143.809857 
L 606.417766 143.809857 
L 606.417766 142.571883 
L 607.656107 142.571883 
L 607.656107 140.60504 
L 608.894447 140.60504 
L 608.894447 138.498042 
L 610.132787 138.498042 
L 610.132787 136.384638 
L 611.371127 136.384638 
L 611.371127 134.234544 
L 612.609467 134.234544 
L 612.609467 132.098619 
L 613.847807 132.098619 
L 613.847807 130.447703 
L 615.086148 130.447703 
L 615.086148 129.248211 
L 616.324488 129.248211 
L 616.324488 127.092717 
L 617.562828 127.092717 
L 617.562828 124.869965 
L 618.801168 124.869965 
L 618.801168 122.751335 
L 620.039508 122.751335 
L 620.039508 120.553838 
L 621.277848 120.553838 
L 621.277848 118.410894 
L 622.516189 118.410894 
L 622.516189 116.755649 
L 623.754529 116.755649 
L 623.754529 115.728454 
L 624.992869 115.728454 
L 624.992869 113.82843 
L 626.231209 113.82843 
L 626.231209 112.16094 
L 627.469549 112.16094 
L 627.469549 110.656519 
L 628.707889 110.656519 
L 628.707889 109.147463 
L 629.94623 109.147463 
L 629.94623 107.682268 
L 631.18457 107.682268 
L 631.18457 106.591358 
L 632.42291 106.591358 
L 632.42291 106.028269 
L 633.66125 106.028269 
L 633.66125 104.688951 
L 634.89959 104.688951 
L 634.89959 104.344468 
L 636.13793 104.344468 
L 636.13793 103.159342 
L 637.37627 103.159342 
L 637.37627 102.011015 
L 638.614611 102.011015 
L 638.614611 100.926424 
L 639.852951 100.926424 
L 639.852951 100.260897 
L 641.091291 100.260897 
L 641.091291 99.93548 
L 642.329631 99.93548 
L 642.329631 99.101112 
L 643.567971 99.101112 
L 643.567971 98.362622 
L 644.806311 98.362622 
L 644.806311 97.661674 
L 646.044652 97.661674 
L 646.044652 96.923491 
L 647.282992 96.923491 
L 647.282992 96.185919 
L 648.521332 96.185919 
L 648.521332 95.759202 
L 649.759672 95.759202 
L 649.759672 95.554283 
L 650.998012 95.554283 
L 650.998012 94.965065 
L 652.236352 94.965065 
L 652.236352 94.476951 
L 653.474693 94.476951 
L 653.474693 94.00939 
L 654.713033 94.00939 
L 654.713033 93.534089 
L 655.951373 93.534089 
L 655.951373 93.131314 
L 657.189713 93.131314 
L 657.189713 92.834475 
L 659.666393 92.777189 
L 659.666393 92.160093 
L 660.904734 92.160093 
L 660.904734 91.833474 
L 662.143074 91.833474 
L 662.143074 91.473161 
L 663.381414 91.473161 
L 663.381414 91.112104 
L 664.619754 91.112104 
L 664.619754 90.755836 
L 665.858094 90.755836 
L 665.858094 90.595828 
L 668.334775 90.528287 
L 668.334775 90.25316 
L 669.573115 90.25316 
L 669.573115 90.057599 
L 670.811455 90.057599 
L 670.811455 89.86639 
L 672.049795 89.86639 
L 672.049795 89.676755 
L 673.288135 89.676755 
L 673.288135 89.501704 
L 675.764816 89.402524 
L 675.764816 89.360369 
L 677.003156 89.360369 
L 677.003156 89.199158 
L 678.241496 89.199158 
L 678.241496 89.052269 
L 679.479836 89.052269 
L 679.479836 88.901925 
L 680.718176 88.901925 
L 680.718176 88.765685 
L 681.956516 88.765685 
L 681.956516 88.609918 
L 684.433197 88.541459 
L 684.433197 88.541459 
" style="fill:none;stroke:#1f77b4;stroke-linecap:square;stroke-width:1.5;"/>
   </g>
   <g id="line2d_108">
    <path clip-path="url(#pced621669d)" d="M 684.433197 88.249299 
L 684.433197 87.957139 
L 685.671537 87.957139 
L 685.671537 87.664979 
L 686.909877 87.664979 
L 686.909877 87.372819 
L 688.148217 87.372819 
L 688.148217 87.080659 
L 689.386557 87.080659 
L 689.386557 86.788499 
L 690.624898 86.788499 
L 690.624898 86.496339 
L 691.863238 86.496339 
L 691.863238 86.204179 
L 693.101578 86.204179 
L 693.101578 85.912019 
L 694.339918 85.912019 
L 694.339918 85.619859 
L 695.578258 85.619859 
L 695.578258 85.327699 
L 721 85.327699 
L 721 85.327699 
" style="fill:none;stroke:#ff7f0e;stroke-linecap:square;stroke-width:1.5;"/>
   </g>
   <g id="patch_9">
    <path d="M 407.045 319.04 
L 407.045 26.88 
" style="fill:none;stroke:#000000;stroke-linecap:square;stroke-linejoin:miter;stroke-width:0.8;"/>
   </g>
   <g id="patch_10">
    <path d="M 709.2 319.04 
L 709.2 26.88 
" style="fill:none;stroke:#000000;stroke-linecap:square;stroke-linejoin:miter;stroke-width:0.8;"/>
   </g>
   <g id="patch_11">
    <path d="M 407.045 319.04 
L 709.2 319.04 
" style="fill:none;stroke:#000000;stroke-linecap:square;stroke-linejoin:miter;stroke-width:0.8;"/>
   </g>
   <g id="patch_12">
    <path d="M 407.045 26.88 
L 709.2 26.88 
" style="fill:none;stroke:#000000;stroke-linecap:square;stroke-linejoin:miter;stroke-width:0.8;"/>
   </g>
   <g id="text_58">
    <!-- VIC cumulative vaccinations per capita -->
    <g transform="translate(441.037187 20.88)scale(0.12 -0.12)">
     <use xlink:href="#DejaVuSans-56"/>
     <use x="68.408203" xlink:href="#DejaVuSans-49"/>
     <use x="97.900391" xlink:href="#DejaVuSans-43"/>
     <use x="167.724609" xlink:href="#DejaVuSans-20"/>
     <use x="199.511719" xlink:href="#DejaVuSans-63"/>
     <use x="254.492188" xlink:href="#DejaVuSans-75"/>
     <use x="317.871094" xlink:href="#DejaVuSans-6d"/>
     <use x="415.283203" xlink:href="#DejaVuSans-75"/>
     <use x="478.662109" xlink:href="#DejaVuSans-6c"/>
     <use x="506.445312" xlink:href="#DejaVuSans-61"/>
     <use x="567.724609" xlink:href="#DejaVuSans-74"/>
     <use x="606.933594" xlink:href="#DejaVuSans-69"/>
     <use x="634.716797" xlink:href="#DejaVuSans-76"/>
     <use x="693.896484" xlink:href="#DejaVuSans-65"/>
     <use x="755.419922" xlink:href="#DejaVuSans-20"/>
     <use x="787.207031" xlink:href="#DejaVuSans-76"/>
     <use x="846.386719" xlink:href="#DejaVuSans-61"/>
     <use x="907.666016" xlink:href="#DejaVuSans-63"/>
     <use x="962.646484" xlink:href="#DejaVuSans-63"/>
     <use x="1017.626953" xlink:href="#DejaVuSans-69"/>
     <use x="1045.410156" xlink:href="#DejaVuSans-6e"/>
     <use x="1108.789062" xlink:href="#DejaVuSans-61"/>
     <use x="1170.068359" xlink:href="#DejaVuSans-74"/>
     <use x="1209.277344" xlink:href="#DejaVuSans-69"/>
     <use x="1237.060547" xlink:href="#DejaVuSans-6f"/>
     <use x="1298.242188" xlink:href="#DejaVuSans-6e"/>
     <use x="1361.621094" xlink:href="#DejaVuSans-73"/>
     <use x="1413.720703" xlink:href="#DejaVuSans-20"/>
     <use x="1445.507812" xlink:href="#DejaVuSans-70"/>
     <use x="1508.984375" xlink:href="#DejaVuSans-65"/>
     <use x="1570.507812" xlink:href="#DejaVuSans-72"/>
     <use x="1611.621094" xlink:href="#DejaVuSans-20"/>
     <use x="1643.408203" xlink:href="#DejaVuSans-63"/>
     <use x="1698.388672" xlink:href="#DejaVuSans-61"/>
     <use x="1759.667969" xlink:href="#DejaVuSans-70"/>
     <use x="1823.144531" xlink:href="#DejaVuSans-69"/>
     <use x="1850.927734" xlink:href="#DejaVuSans-74"/>
     <use x="1890.136719" xlink:href="#DejaVuSans-61"/>
    </g>
   </g>
   <g id="legend_2">
    <g id="patch_13">
     <path d="M 554.317187 64.23625 
L 702.2 64.23625 
Q 704.2 64.23625 704.2 62.23625 
L 704.2 33.88 
Q 704.2 31.88 702.2 31.88 
L 554.317187 31.88 
Q 552.317187 31.88 552.317187 33.88 
L 552.317187 62.23625 
Q 552.317187 64.23625 554.317187 64.23625 
z
" style="fill:#ffffff;opacity:0.8;stroke:#cccccc;stroke-linejoin:miter;"/>
    </g>
    <g id="line2d_109">
     <path d="M 556.317187 39.978437 
L 576.317187 39.978437 
" style="fill:none;stroke:#1f77b4;stroke-linecap:square;stroke-width:1.5;"/>
    </g>
    <g id="line2d_110"/>
    <g id="text_59">
     <!-- Actual -->
     <g transform="translate(584.317187 43.478437)scale(0.1 -0.1)">
      <use xlink:href="#DejaVuSans-41"/>
      <use x="66.658203" xlink:href="#DejaVuSans-63"/>
      <use x="121.638672" xlink:href="#DejaVuSans-74"/>
      <use x="160.847656" xlink:href="#DejaVuSans-75"/>
      <use x="224.226562" xlink:href="#DejaVuSans-61"/>
      <use x="285.505859" xlink:href="#DejaVuSans-6c"/>
     </g>
    </g>
    <g id="line2d_111">
     <path d="M 556.317187 54.656563 
L 576.317187 54.656563 
" style="fill:none;stroke:#ff7f0e;stroke-linecap:square;stroke-width:1.5;"/>
    </g>
    <g id="line2d_112"/>
    <g id="text_60">
     <!-- Assumed for projection -->
     <g transform="translate(584.317187 58.156563)scale(0.1 -0.1)">
      <use xlink:href="#DejaVuSans-41"/>
      <use x="68.408203" xlink:href="#DejaVuSans-73"/>
      <use x="120.507812" xlink:href="#DejaVuSans-73"/>
      <use x="172.607422" xlink:href="#DejaVuSans-75"/>
      <use x="235.986328" xlink:href="#DejaVuSans-6d"/>
      <use x="333.398438" xlink:href="#DejaVuSans-65"/>
      <use x="394.921875" xlink:href="#DejaVuSans-64"/>
      <use x="458.398438" xlink:href="#DejaVuSans-20"/>
      <use x="490.185547" xlink:href="#DejaVuSans-66"/>
      <use x="525.390625" xlink:href="#DejaVuSans-6f"/>
      <use x="586.572266" xlink:href="#DejaVuSans-72"/>
      <use x="627.685547" xlink:href="#DejaVuSans-20"/>
      <use x="659.472656" xlink:href="#DejaVuSans-70"/>
      <use x="722.949219" xlink:href="#DejaVuSans-72"/>
      <use x="761.8125" xlink:href="#DejaVuSans-6f"/>
      <use x="822.994141" xlink:href="#DejaVuSans-6a"/>
      <use x="850.777344" xlink:href="#DejaVuSans-65"/>
      <use x="912.300781" xlink:href="#DejaVuSans-63"/>
      <use x="967.28125" xlink:href="#DejaVuSans-74"/>
      <use x="1006.490234" xlink:href="#DejaVuSans-69"/>
      <use x="1034.273438" xlink:href="#DejaVuSans-6f"/>
      <use x="1095.455078" xlink:href="#DejaVuSans-6e"/>
     </g>
    </g>
   </g>
  </g>
 </g>
 <defs>
  <clipPath id="p16d0e3cbdd">
   <rect height="292.16" width="302.155" x="54.02" y="26.88"/>
  </clipPath>
  <clipPath id="pced621669d">
   <rect height="292.16" width="302.155" x="407.045" y="26.88"/>
  </clipPath>
 </defs>
</svg>
