<?xml version="1.0" encoding="utf-8" standalone="no"?>
<!DOCTYPE svg PUBLIC "-//W3C//DTD SVG 1.1//EN"
  "http://www.w3.org/Graphics/SVG/1.1/DTD/svg11.dtd">
<svg height="432pt" version="1.1" viewBox="0 0 720 432" width="720pt" xmlns="http://www.w3.org/2000/svg" xmlns:xlink="http://www.w3.org/1999/xlink">
 <metadata>
  <rdf:RDF xmlns:cc="http://creativecommons.org/ns#" xmlns:dc="http://purl.org/dc/elements/1.1/" xmlns:rdf="http://www.w3.org/1999/02/22-rdf-syntax-ns#">
   <cc:Work>
    <dc:type rdf:resource="http://purl.org/dc/dcmitype/StillImage"/>
    <dc:date>2021-07-07T11:12:35.614828</dc:date>
    <dc:format>image/svg+xml</dc:format>
    <dc:creator>
     <cc:Agent>
      <dc:title>Matplotlib v3.4.2, https://matplotlib.org/</dc:title>
     </cc:Agent>
    </dc:creator>
   </cc:Work>
  </rdf:RDF>
 </metadata>
 <defs>
  <style type="text/css">*{stroke-linecap:butt;stroke-linejoin:round;}</style>
 </defs>
 <g id="figure_1">
  <g id="patch_1">
   <path d="M 0 432 
L 720 432 
L 720 0 
L 0 0 
z
" style="fill:#ffffff;"/>
  </g>
  <g id="axes_1">
   <g id="patch_2">
    <path d="M 49.538 391.04 
L 669.894791 391.04 
L 669.894791 42.576 
L 49.538 42.576 
z
" style="fill:#ffffff;"/>
   </g>
   <g id="PolyCollection_1">
    <path clip-path="url(#pb26f72a53e)" d="M 395.165355 971.813333 
L 391.367252 971.813333 
L 391.367252 -189.733333 
L 395.165355 -189.733333 
L 395.165355 -189.733333 
L 395.165355 971.813333 
z
" style="fill:#ff0000;fill-opacity:0.2;"/>
   </g>
   <g id="PolyCollection_2">
    <path clip-path="url(#pb26f72a53e)" d="M 398.963458 971.813333 
L 395.165355 971.813333 
L 395.165355 -189.733333 
L 398.963458 -189.733333 
L 398.963458 -189.733333 
L 398.963458 971.813333 
z
" style="fill:#ff0000;fill-opacity:0.18;"/>
   </g>
   <g id="PolyCollection_3">
    <path clip-path="url(#pb26f72a53e)" d="M 402.76156 971.813333 
L 398.963458 971.813333 
L 398.963458 -189.733333 
L 402.76156 -189.733333 
L 402.76156 -189.733333 
L 402.76156 971.813333 
z
" style="fill:#ff0000;fill-opacity:0.16;"/>
   </g>
   <g id="PolyCollection_4">
    <path clip-path="url(#pb26f72a53e)" d="M 406.559663 971.813333 
L 402.76156 971.813333 
L 402.76156 -189.733333 
L 406.559663 -189.733333 
L 406.559663 -189.733333 
L 406.559663 971.813333 
z
" style="fill:#ff0000;fill-opacity:0.14;"/>
   </g>
   <g id="PolyCollection_5">
    <path clip-path="url(#pb26f72a53e)" d="M 410.357766 971.813333 
L 406.559663 971.813333 
L 406.559663 -189.733333 
L 410.357766 -189.733333 
L 410.357766 -189.733333 
L 410.357766 971.813333 
z
" style="fill:#ff0000;fill-opacity:0.12;"/>
   </g>
   <g id="PolyCollection_6">
    <path clip-path="url(#pb26f72a53e)" d="M 414.155869 971.813333 
L 410.357766 971.813333 
L 410.357766 -189.733333 
L 414.155869 -189.733333 
L 414.155869 -189.733333 
L 414.155869 971.813333 
z
" style="fill:#ff0000;fill-opacity:0.1;"/>
   </g>
   <g id="PolyCollection_7">
    <path clip-path="url(#pb26f72a53e)" d="M 417.953972 971.813333 
L 414.155869 971.813333 
L 414.155869 -189.733333 
L 417.953972 -189.733333 
L 417.953972 -189.733333 
L 417.953972 971.813333 
z
" style="fill:#ff0000;fill-opacity:0.08;"/>
   </g>
   <g id="PolyCollection_8">
    <path clip-path="url(#pb26f72a53e)" d="M 421.752074 971.813333 
L 417.953972 971.813333 
L 417.953972 -189.733333 
L 421.752074 -189.733333 
L 421.752074 -189.733333 
L 421.752074 971.813333 
z
" style="fill:#ff0000;fill-opacity:0.06;"/>
   </g>
   <g id="PolyCollection_9">
    <path clip-path="url(#pb26f72a53e)" d="M 425.550177 971.813333 
L 421.752074 971.813333 
L 421.752074 -189.733333 
L 425.550177 -189.733333 
L 425.550177 -189.733333 
L 425.550177 971.813333 
z
" style="fill:#ff0000;fill-opacity:0.04;"/>
   </g>
   <g id="PolyCollection_10">
    <path clip-path="url(#pb26f72a53e)" d="M 429.34828 971.813333 
L 425.550177 971.813333 
L 425.550177 -189.733333 
L 429.34828 -189.733333 
L 429.34828 -189.733333 
L 429.34828 971.813333 
z
" style="fill:#ff0000;fill-opacity:0.02;"/>
   </g>
   <g id="PolyCollection_11">
    <path clip-path="url(#pb26f72a53e)" d="M 214.122455 971.813333 
L 150.820741 971.813333 
L 150.820741 -189.733333 
L 214.122455 -189.733333 
L 214.122455 -189.733333 
L 214.122455 971.813333 
z
" style="fill:#ffff00;fill-opacity:0.3;"/>
   </g>
   <g id="PolyCollection_12">
    <path clip-path="url(#pb26f72a53e)" d="M 226.782797 971.813333 
L 214.122455 971.813333 
L 214.122455 -189.733333 
L 226.782797 -189.733333 
L 226.782797 -189.733333 
L 226.782797 971.813333 
z
" style="fill:#ffa500;fill-opacity:0.3;"/>
   </g>
   <g id="PolyCollection_13">
    <path clip-path="url(#pb26f72a53e)" d="M 391.367252 971.813333 
L 226.782797 971.813333 
L 226.782797 -189.733333 
L 391.367252 -189.733333 
L 391.367252 -189.733333 
L 391.367252 971.813333 
z
" style="fill:#ff0000;fill-opacity:0.3;"/>
   </g>
   <g id="PolyCollection_14">
    <defs>
     <path d="M 36.877657 -40.96 
L 36.877657 -342.610334 
L 36.877657 -341.066972 
L 49.538 -341.066972 
L 49.538 -339.689311 
L 62.198343 -339.689311 
L 62.198343 -336.988748 
L 74.858685 -336.988748 
L 74.858685 -331.655627 
L 87.519028 -331.655627 
L 87.519028 -322.081841 
L 100.179371 -322.081841 
L 100.179371 -307.252456 
L 112.839713 -307.252456 
L 112.839713 -288.036073 
L 125.500056 -288.036073 
L 125.500056 -265.165841 
L 138.160399 -265.165841 
L 138.160399 -240.855421 
L 150.820741 -240.855421 
L 150.820741 -216.864883 
L 163.481084 -216.864883 
L 163.481084 -194.683842 
L 176.141427 -194.683842 
L 176.141427 -175.185006 
L 188.801769 -175.185006 
L 188.801769 -158.711954 
L 201.462112 -158.711954 
L 201.462112 -145.227787 
L 214.122455 -145.227787 
L 214.122455 -134.465235 
L 226.782797 -134.465235 
L 226.782797 -126.046071 
L 239.44314 -126.046071 
L 239.44314 -119.53496 
L 252.103483 -119.53496 
L 252.103483 -114.536041 
L 264.763825 -114.536041 
L 264.763825 -110.694937 
L 277.424168 -110.694937 
L 277.424168 -107.739497 
L 290.084511 -107.739497 
L 290.084511 -105.488305 
L 302.744853 -105.488305 
L 302.744853 -103.836498 
L 315.405196 -103.836498 
L 315.405196 -102.724055 
L 328.065539 -102.724055 
L 328.065539 -102.09408 
L 340.725881 -102.09408 
L 340.725881 -101.865833 
L 353.386224 -101.865833 
L 353.386224 -40.96 
L 353.386224 -40.96 
L 340.725881 -40.96 
L 340.725881 -40.96 
L 328.065539 -40.96 
L 328.065539 -40.96 
L 315.405196 -40.96 
L 315.405196 -40.96 
L 302.744853 -40.96 
L 302.744853 -40.96 
L 290.084511 -40.96 
L 290.084511 -40.96 
L 277.424168 -40.96 
L 277.424168 -40.96 
L 264.763825 -40.96 
L 264.763825 -40.96 
L 252.103483 -40.96 
L 252.103483 -40.96 
L 239.44314 -40.96 
L 239.44314 -40.96 
L 226.782797 -40.96 
L 226.782797 -40.96 
L 214.122455 -40.96 
L 214.122455 -40.96 
L 201.462112 -40.96 
L 201.462112 -40.96 
L 188.801769 -40.96 
L 188.801769 -40.96 
L 176.141427 -40.96 
L 176.141427 -40.96 
L 163.481084 -40.96 
L 163.481084 -40.96 
L 150.820741 -40.96 
L 150.820741 -40.96 
L 138.160399 -40.96 
L 138.160399 -40.96 
L 125.500056 -40.96 
L 125.500056 -40.96 
L 112.839713 -40.96 
L 112.839713 -40.96 
L 100.179371 -40.96 
L 100.179371 -40.96 
L 87.519028 -40.96 
L 87.519028 -40.96 
L 74.858685 -40.96 
L 74.858685 -40.96 
L 62.198343 -40.96 
L 62.198343 -40.96 
L 49.538 -40.96 
L 49.538 -40.96 
L 36.877657 -40.96 
L 36.877657 -40.96 
z
" id="m28780e7743" style="stroke:#1f77b4;"/>
    </defs>
    <g clip-path="url(#pb26f72a53e)">
     <use style="fill:#1f77b4;stroke:#1f77b4;" x="0" xlink:href="#m28780e7743" y="432"/>
    </g>
   </g>
   <g id="matplotlib.axis_1">
    <g id="xtick_1">
     <g id="line2d_1">
      <path clip-path="url(#pb26f72a53e)" d="M 74.858685 391.04 
L 74.858685 42.576 
" style="fill:none;stroke:#000000;stroke-dasharray:0.8,1.32;stroke-dashoffset:0;stroke-opacity:0.5;stroke-width:0.8;"/>
     </g>
     <g id="line2d_2">
      <defs>
       <path d="M 0 0 
L 0 3.5 
" id="mb6f4b0858c" style="stroke:#000000;stroke-width:0.8;"/>
      </defs>
      <g>
       <use style="stroke:#000000;stroke-width:0.8;" x="74.858685" xlink:href="#mb6f4b0858c" y="391.04"/>
      </g>
     </g>
     <g id="text_1">
      <!-- 15 -->
      <g transform="translate(68.496185 405.638438)scale(0.1 -0.1)">
       <defs>
        <path d="M 794 531 
L 1825 531 
L 1825 4091 
L 703 3866 
L 703 4441 
L 1819 4666 
L 2450 4666 
L 2450 531 
L 3481 531 
L 3481 0 
L 794 0 
L 794 531 
z
" id="DejaVuSans-31" transform="scale(0.015625)"/>
        <path d="M 691 4666 
L 3169 4666 
L 3169 4134 
L 1269 4134 
L 1269 2991 
Q 1406 3038 1543 3061 
Q 1681 3084 1819 3084 
Q 2600 3084 3056 2656 
Q 3513 2228 3513 1497 
Q 3513 744 3044 326 
Q 2575 -91 1722 -91 
Q 1428 -91 1123 -41 
Q 819 9 494 109 
L 494 744 
Q 775 591 1075 516 
Q 1375 441 1709 441 
Q 2250 441 2565 725 
Q 2881 1009 2881 1497 
Q 2881 1984 2565 2268 
Q 2250 2553 1709 2553 
Q 1456 2553 1204 2497 
Q 953 2441 691 2322 
L 691 4666 
z
" id="DejaVuSans-35" transform="scale(0.015625)"/>
       </defs>
       <use xlink:href="#DejaVuSans-31"/>
       <use x="63.623047" xlink:href="#DejaVuSans-35"/>
      </g>
     </g>
    </g>
    <g id="xtick_2">
     <g id="line2d_3">
      <path clip-path="url(#pb26f72a53e)" d="M 138.160399 391.04 
L 138.160399 42.576 
" style="fill:none;stroke:#000000;stroke-dasharray:0.8,1.32;stroke-dashoffset:0;stroke-opacity:0.5;stroke-width:0.8;"/>
     </g>
     <g id="line2d_4">
      <g>
       <use style="stroke:#000000;stroke-width:0.8;" x="138.160399" xlink:href="#mb6f4b0858c" y="391.04"/>
      </g>
     </g>
     <g id="text_2">
      <!-- 20 -->
      <g transform="translate(131.797899 405.638438)scale(0.1 -0.1)">
       <defs>
        <path d="M 1228 531 
L 3431 531 
L 3431 0 
L 469 0 
L 469 531 
Q 828 903 1448 1529 
Q 2069 2156 2228 2338 
Q 2531 2678 2651 2914 
Q 2772 3150 2772 3378 
Q 2772 3750 2511 3984 
Q 2250 4219 1831 4219 
Q 1534 4219 1204 4116 
Q 875 4013 500 3803 
L 500 4441 
Q 881 4594 1212 4672 
Q 1544 4750 1819 4750 
Q 2544 4750 2975 4387 
Q 3406 4025 3406 3419 
Q 3406 3131 3298 2873 
Q 3191 2616 2906 2266 
Q 2828 2175 2409 1742 
Q 1991 1309 1228 531 
z
" id="DejaVuSans-32" transform="scale(0.015625)"/>
        <path d="M 2034 4250 
Q 1547 4250 1301 3770 
Q 1056 3291 1056 2328 
Q 1056 1369 1301 889 
Q 1547 409 2034 409 
Q 2525 409 2770 889 
Q 3016 1369 3016 2328 
Q 3016 3291 2770 3770 
Q 2525 4250 2034 4250 
z
M 2034 4750 
Q 2819 4750 3233 4129 
Q 3647 3509 3647 2328 
Q 3647 1150 3233 529 
Q 2819 -91 2034 -91 
Q 1250 -91 836 529 
Q 422 1150 422 2328 
Q 422 3509 836 4129 
Q 1250 4750 2034 4750 
z
" id="DejaVuSans-30" transform="scale(0.015625)"/>
       </defs>
       <use xlink:href="#DejaVuSans-32"/>
       <use x="63.623047" xlink:href="#DejaVuSans-30"/>
      </g>
     </g>
    </g>
    <g id="xtick_3">
     <g id="line2d_5">
      <path clip-path="url(#pb26f72a53e)" d="M 201.462112 391.04 
L 201.462112 42.576 
" style="fill:none;stroke:#000000;stroke-dasharray:0.8,1.32;stroke-dashoffset:0;stroke-opacity:0.5;stroke-width:0.8;"/>
     </g>
     <g id="line2d_6">
      <g>
       <use style="stroke:#000000;stroke-width:0.8;" x="201.462112" xlink:href="#mb6f4b0858c" y="391.04"/>
      </g>
     </g>
     <g id="text_3">
      <!-- 25 -->
      <g transform="translate(195.099612 405.638438)scale(0.1 -0.1)">
       <use xlink:href="#DejaVuSans-32"/>
       <use x="63.623047" xlink:href="#DejaVuSans-35"/>
      </g>
     </g>
    </g>
    <g id="xtick_4">
     <g id="line2d_7">
      <path clip-path="url(#pb26f72a53e)" d="M 277.424168 391.04 
L 277.424168 42.576 
" style="fill:none;stroke:#000000;stroke-dasharray:0.8,1.32;stroke-dashoffset:0;stroke-opacity:0.5;stroke-width:0.8;"/>
     </g>
     <g id="line2d_8">
      <g>
       <use style="stroke:#000000;stroke-width:0.8;" x="277.424168" xlink:href="#mb6f4b0858c" y="391.04"/>
      </g>
     </g>
     <g id="text_4">
      <!-- Jul -->
      <g transform="translate(271.391356 405.638438)scale(0.1 -0.1)">
       <defs>
        <path d="M 628 4666 
L 1259 4666 
L 1259 325 
Q 1259 -519 939 -900 
Q 619 -1281 -91 -1281 
L -331 -1281 
L -331 -750 
L -134 -750 
Q 284 -750 456 -515 
Q 628 -281 628 325 
L 628 4666 
z
" id="DejaVuSans-4a" transform="scale(0.015625)"/>
        <path d="M 544 1381 
L 544 3500 
L 1119 3500 
L 1119 1403 
Q 1119 906 1312 657 
Q 1506 409 1894 409 
Q 2359 409 2629 706 
Q 2900 1003 2900 1516 
L 2900 3500 
L 3475 3500 
L 3475 0 
L 2900 0 
L 2900 538 
Q 2691 219 2414 64 
Q 2138 -91 1772 -91 
Q 1169 -91 856 284 
Q 544 659 544 1381 
z
M 1991 3584 
L 1991 3584 
z
" id="DejaVuSans-75" transform="scale(0.015625)"/>
        <path d="M 603 4863 
L 1178 4863 
L 1178 0 
L 603 0 
L 603 4863 
z
" id="DejaVuSans-6c" transform="scale(0.015625)"/>
       </defs>
       <use xlink:href="#DejaVuSans-4a"/>
       <use x="29.492188" xlink:href="#DejaVuSans-75"/>
       <use x="92.871094" xlink:href="#DejaVuSans-6c"/>
      </g>
     </g>
    </g>
    <g id="xtick_5">
     <g id="line2d_9">
      <path clip-path="url(#pb26f72a53e)" d="M 328.065539 391.04 
L 328.065539 42.576 
" style="fill:none;stroke:#000000;stroke-dasharray:0.8,1.32;stroke-dashoffset:0;stroke-opacity:0.5;stroke-width:0.8;"/>
     </g>
     <g id="line2d_10">
      <g>
       <use style="stroke:#000000;stroke-width:0.8;" x="328.065539" xlink:href="#mb6f4b0858c" y="391.04"/>
      </g>
     </g>
     <g id="text_5">
      <!-- 05 -->
      <g transform="translate(321.703039 405.638438)scale(0.1 -0.1)">
       <use xlink:href="#DejaVuSans-30"/>
       <use x="63.623047" xlink:href="#DejaVuSans-35"/>
      </g>
     </g>
    </g>
    <g id="xtick_6">
     <g id="line2d_11">
      <path clip-path="url(#pb26f72a53e)" d="M 391.367252 391.04 
L 391.367252 42.576 
" style="fill:none;stroke:#000000;stroke-dasharray:0.8,1.32;stroke-dashoffset:0;stroke-opacity:0.5;stroke-width:0.8;"/>
     </g>
     <g id="line2d_12">
      <g>
       <use style="stroke:#000000;stroke-width:0.8;" x="391.367252" xlink:href="#mb6f4b0858c" y="391.04"/>
      </g>
     </g>
     <g id="text_6">
      <!-- 10 -->
      <g transform="translate(385.004752 405.638438)scale(0.1 -0.1)">
       <use xlink:href="#DejaVuSans-31"/>
       <use x="63.623047" xlink:href="#DejaVuSans-30"/>
      </g>
     </g>
    </g>
    <g id="xtick_7">
     <g id="line2d_13">
      <path clip-path="url(#pb26f72a53e)" d="M 454.668965 391.04 
L 454.668965 42.576 
" style="fill:none;stroke:#000000;stroke-dasharray:0.8,1.32;stroke-dashoffset:0;stroke-opacity:0.5;stroke-width:0.8;"/>
     </g>
     <g id="line2d_14">
      <g>
       <use style="stroke:#000000;stroke-width:0.8;" x="454.668965" xlink:href="#mb6f4b0858c" y="391.04"/>
      </g>
     </g>
     <g id="text_7">
      <!-- 15 -->
      <g transform="translate(448.306465 405.638438)scale(0.1 -0.1)">
       <use xlink:href="#DejaVuSans-31"/>
       <use x="63.623047" xlink:href="#DejaVuSans-35"/>
      </g>
     </g>
    </g>
    <g id="xtick_8">
     <g id="line2d_15">
      <path clip-path="url(#pb26f72a53e)" d="M 517.970679 391.04 
L 517.970679 42.576 
" style="fill:none;stroke:#000000;stroke-dasharray:0.8,1.32;stroke-dashoffset:0;stroke-opacity:0.5;stroke-width:0.8;"/>
     </g>
     <g id="line2d_16">
      <g>
       <use style="stroke:#000000;stroke-width:0.8;" x="517.970679" xlink:href="#mb6f4b0858c" y="391.04"/>
      </g>
     </g>
     <g id="text_8">
      <!-- 20 -->
      <g transform="translate(511.608179 405.638438)scale(0.1 -0.1)">
       <use xlink:href="#DejaVuSans-32"/>
       <use x="63.623047" xlink:href="#DejaVuSans-30"/>
      </g>
     </g>
    </g>
    <g id="xtick_9">
     <g id="line2d_17">
      <path clip-path="url(#pb26f72a53e)" d="M 581.272392 391.04 
L 581.272392 42.576 
" style="fill:none;stroke:#000000;stroke-dasharray:0.8,1.32;stroke-dashoffset:0;stroke-opacity:0.5;stroke-width:0.8;"/>
     </g>
     <g id="line2d_18">
      <g>
       <use style="stroke:#000000;stroke-width:0.8;" x="581.272392" xlink:href="#mb6f4b0858c" y="391.04"/>
      </g>
     </g>
     <g id="text_9">
      <!-- 25 -->
      <g transform="translate(574.909892 405.638438)scale(0.1 -0.1)">
       <use xlink:href="#DejaVuSans-32"/>
       <use x="63.623047" xlink:href="#DejaVuSans-35"/>
      </g>
     </g>
    </g>
    <g id="xtick_10">
     <g id="line2d_19">
      <path clip-path="url(#pb26f72a53e)" d="M 669.894791 391.04 
L 669.894791 42.576 
" style="fill:none;stroke:#000000;stroke-dasharray:0.8,1.32;stroke-dashoffset:0;stroke-opacity:0.5;stroke-width:0.8;"/>
     </g>
     <g id="line2d_20">
      <g>
       <use style="stroke:#000000;stroke-width:0.8;" x="669.894791" xlink:href="#mb6f4b0858c" y="391.04"/>
      </g>
     </g>
     <g id="text_10">
      <!-- Aug -->
      <g transform="translate(660.13151 405.638438)scale(0.1 -0.1)">
       <defs>
        <path d="M 2188 4044 
L 1331 1722 
L 3047 1722 
L 2188 4044 
z
M 1831 4666 
L 2547 4666 
L 4325 0 
L 3669 0 
L 3244 1197 
L 1141 1197 
L 716 0 
L 50 0 
L 1831 4666 
z
" id="DejaVuSans-41" transform="scale(0.015625)"/>
        <path d="M 2906 1791 
Q 2906 2416 2648 2759 
Q 2391 3103 1925 3103 
Q 1463 3103 1205 2759 
Q 947 2416 947 1791 
Q 947 1169 1205 825 
Q 1463 481 1925 481 
Q 2391 481 2648 825 
Q 2906 1169 2906 1791 
z
M 3481 434 
Q 3481 -459 3084 -895 
Q 2688 -1331 1869 -1331 
Q 1566 -1331 1297 -1286 
Q 1028 -1241 775 -1147 
L 775 -588 
Q 1028 -725 1275 -790 
Q 1522 -856 1778 -856 
Q 2344 -856 2625 -561 
Q 2906 -266 2906 331 
L 2906 616 
Q 2728 306 2450 153 
Q 2172 0 1784 0 
Q 1141 0 747 490 
Q 353 981 353 1791 
Q 353 2603 747 3093 
Q 1141 3584 1784 3584 
Q 2172 3584 2450 3431 
Q 2728 3278 2906 2969 
L 2906 3500 
L 3481 3500 
L 3481 434 
z
" id="DejaVuSans-67" transform="scale(0.015625)"/>
       </defs>
       <use xlink:href="#DejaVuSans-41"/>
       <use x="68.408203" xlink:href="#DejaVuSans-75"/>
       <use x="131.787109" xlink:href="#DejaVuSans-67"/>
      </g>
     </g>
    </g>
    <g id="text_11">
     <!-- 2021-Aug -->
     <g transform="translate(621.535416 418.316563)scale(0.1 -0.1)">
      <defs>
       <path d="M 313 2009 
L 1997 2009 
L 1997 1497 
L 313 1497 
L 313 2009 
z
" id="DejaVuSans-2d" transform="scale(0.015625)"/>
      </defs>
      <use xlink:href="#DejaVuSans-32"/>
      <use x="63.623047" xlink:href="#DejaVuSans-30"/>
      <use x="127.246094" xlink:href="#DejaVuSans-32"/>
      <use x="190.869141" xlink:href="#DejaVuSans-31"/>
      <use x="254.492188" xlink:href="#DejaVuSans-2d"/>
      <use x="288.326172" xlink:href="#DejaVuSans-41"/>
      <use x="356.734375" xlink:href="#DejaVuSans-75"/>
      <use x="420.113281" xlink:href="#DejaVuSans-67"/>
     </g>
    </g>
   </g>
   <g id="matplotlib.axis_2">
    <g id="ytick_1">
     <g id="line2d_21">
      <path clip-path="url(#pb26f72a53e)" d="M 49.538 391.04 
L 669.894791 391.04 
" style="fill:none;stroke:#000000;stroke-dasharray:0.8,1.32;stroke-dashoffset:0;stroke-opacity:0.5;stroke-width:0.8;"/>
     </g>
     <g id="line2d_22">
      <defs>
       <path d="M 0 0 
L -3.5 0 
" id="m5f790ed7d8" style="stroke:#000000;stroke-width:0.8;"/>
      </defs>
      <g>
       <use style="stroke:#000000;stroke-width:0.8;" x="49.538" xlink:href="#m5f790ed7d8" y="391.04"/>
      </g>
     </g>
     <g id="text_12">
      <!-- 0.0 -->
      <g transform="translate(26.634875 394.839219)scale(0.1 -0.1)">
       <defs>
        <path d="M 684 794 
L 1344 794 
L 1344 0 
L 684 0 
L 684 794 
z
" id="DejaVuSans-2e" transform="scale(0.015625)"/>
       </defs>
       <use xlink:href="#DejaVuSans-30"/>
       <use x="63.623047" xlink:href="#DejaVuSans-2e"/>
       <use x="95.410156" xlink:href="#DejaVuSans-30"/>
      </g>
     </g>
    </g>
    <g id="ytick_2">
     <g id="line2d_23">
      <path clip-path="url(#pb26f72a53e)" d="M 49.538 362.001333 
L 669.894791 362.001333 
" style="fill:none;stroke:#000000;stroke-dasharray:0.8,1.32;stroke-dashoffset:0;stroke-opacity:0.5;stroke-width:0.8;"/>
     </g>
     <g id="line2d_24">
      <g>
       <use style="stroke:#000000;stroke-width:0.8;" x="49.538" xlink:href="#m5f790ed7d8" y="362.001333"/>
      </g>
     </g>
     <g id="text_13">
      <!-- 0.5 -->
      <g transform="translate(26.634875 365.800552)scale(0.1 -0.1)">
       <use xlink:href="#DejaVuSans-30"/>
       <use x="63.623047" xlink:href="#DejaVuSans-2e"/>
       <use x="95.410156" xlink:href="#DejaVuSans-35"/>
      </g>
     </g>
    </g>
    <g id="ytick_3">
     <g id="line2d_25">
      <path clip-path="url(#pb26f72a53e)" d="M 49.538 332.962667 
L 669.894791 332.962667 
" style="fill:none;stroke:#000000;stroke-dasharray:0.8,1.32;stroke-dashoffset:0;stroke-opacity:0.5;stroke-width:0.8;"/>
     </g>
     <g id="line2d_26">
      <g>
       <use style="stroke:#000000;stroke-width:0.8;" x="49.538" xlink:href="#m5f790ed7d8" y="332.962667"/>
      </g>
     </g>
     <g id="text_14">
      <!-- 1.0 -->
      <g transform="translate(26.634875 336.761885)scale(0.1 -0.1)">
       <use xlink:href="#DejaVuSans-31"/>
       <use x="63.623047" xlink:href="#DejaVuSans-2e"/>
       <use x="95.410156" xlink:href="#DejaVuSans-30"/>
      </g>
     </g>
    </g>
    <g id="ytick_4">
     <g id="line2d_27">
      <path clip-path="url(#pb26f72a53e)" d="M 49.538 303.924 
L 669.894791 303.924 
" style="fill:none;stroke:#000000;stroke-dasharray:0.8,1.32;stroke-dashoffset:0;stroke-opacity:0.5;stroke-width:0.8;"/>
     </g>
     <g id="line2d_28">
      <g>
       <use style="stroke:#000000;stroke-width:0.8;" x="49.538" xlink:href="#m5f790ed7d8" y="303.924"/>
      </g>
     </g>
     <g id="text_15">
      <!-- 1.5 -->
      <g transform="translate(26.634875 307.723219)scale(0.1 -0.1)">
       <use xlink:href="#DejaVuSans-31"/>
       <use x="63.623047" xlink:href="#DejaVuSans-2e"/>
       <use x="95.410156" xlink:href="#DejaVuSans-35"/>
      </g>
     </g>
    </g>
    <g id="ytick_5">
     <g id="line2d_29">
      <path clip-path="url(#pb26f72a53e)" d="M 49.538 274.885333 
L 669.894791 274.885333 
" style="fill:none;stroke:#000000;stroke-dasharray:0.8,1.32;stroke-dashoffset:0;stroke-opacity:0.5;stroke-width:0.8;"/>
     </g>
     <g id="line2d_30">
      <g>
       <use style="stroke:#000000;stroke-width:0.8;" x="49.538" xlink:href="#m5f790ed7d8" y="274.885333"/>
      </g>
     </g>
     <g id="text_16">
      <!-- 2.0 -->
      <g transform="translate(26.634875 278.684552)scale(0.1 -0.1)">
       <use xlink:href="#DejaVuSans-32"/>
       <use x="63.623047" xlink:href="#DejaVuSans-2e"/>
       <use x="95.410156" xlink:href="#DejaVuSans-30"/>
      </g>
     </g>
    </g>
    <g id="ytick_6">
     <g id="line2d_31">
      <path clip-path="url(#pb26f72a53e)" d="M 49.538 245.846667 
L 669.894791 245.846667 
" style="fill:none;stroke:#000000;stroke-dasharray:0.8,1.32;stroke-dashoffset:0;stroke-opacity:0.5;stroke-width:0.8;"/>
     </g>
     <g id="line2d_32">
      <g>
       <use style="stroke:#000000;stroke-width:0.8;" x="49.538" xlink:href="#m5f790ed7d8" y="245.846667"/>
      </g>
     </g>
     <g id="text_17">
      <!-- 2.5 -->
      <g transform="translate(26.634875 249.645885)scale(0.1 -0.1)">
       <use xlink:href="#DejaVuSans-32"/>
       <use x="63.623047" xlink:href="#DejaVuSans-2e"/>
       <use x="95.410156" xlink:href="#DejaVuSans-35"/>
      </g>
     </g>
    </g>
    <g id="ytick_7">
     <g id="line2d_33">
      <path clip-path="url(#pb26f72a53e)" d="M 49.538 216.808 
L 669.894791 216.808 
" style="fill:none;stroke:#000000;stroke-dasharray:0.8,1.32;stroke-dashoffset:0;stroke-opacity:0.5;stroke-width:0.8;"/>
     </g>
     <g id="line2d_34">
      <g>
       <use style="stroke:#000000;stroke-width:0.8;" x="49.538" xlink:href="#m5f790ed7d8" y="216.808"/>
      </g>
     </g>
     <g id="text_18">
      <!-- 3.0 -->
      <g transform="translate(26.634875 220.607219)scale(0.1 -0.1)">
       <defs>
        <path d="M 2597 2516 
Q 3050 2419 3304 2112 
Q 3559 1806 3559 1356 
Q 3559 666 3084 287 
Q 2609 -91 1734 -91 
Q 1441 -91 1130 -33 
Q 819 25 488 141 
L 488 750 
Q 750 597 1062 519 
Q 1375 441 1716 441 
Q 2309 441 2620 675 
Q 2931 909 2931 1356 
Q 2931 1769 2642 2001 
Q 2353 2234 1838 2234 
L 1294 2234 
L 1294 2753 
L 1863 2753 
Q 2328 2753 2575 2939 
Q 2822 3125 2822 3475 
Q 2822 3834 2567 4026 
Q 2313 4219 1838 4219 
Q 1578 4219 1281 4162 
Q 984 4106 628 3988 
L 628 4550 
Q 988 4650 1302 4700 
Q 1616 4750 1894 4750 
Q 2613 4750 3031 4423 
Q 3450 4097 3450 3541 
Q 3450 3153 3228 2886 
Q 3006 2619 2597 2516 
z
" id="DejaVuSans-33" transform="scale(0.015625)"/>
       </defs>
       <use xlink:href="#DejaVuSans-33"/>
       <use x="63.623047" xlink:href="#DejaVuSans-2e"/>
       <use x="95.410156" xlink:href="#DejaVuSans-30"/>
      </g>
     </g>
    </g>
    <g id="ytick_8">
     <g id="line2d_35">
      <path clip-path="url(#pb26f72a53e)" d="M 49.538 187.769333 
L 669.894791 187.769333 
" style="fill:none;stroke:#000000;stroke-dasharray:0.8,1.32;stroke-dashoffset:0;stroke-opacity:0.5;stroke-width:0.8;"/>
     </g>
     <g id="line2d_36">
      <g>
       <use style="stroke:#000000;stroke-width:0.8;" x="49.538" xlink:href="#m5f790ed7d8" y="187.769333"/>
      </g>
     </g>
     <g id="text_19">
      <!-- 3.5 -->
      <g transform="translate(26.634875 191.568552)scale(0.1 -0.1)">
       <use xlink:href="#DejaVuSans-33"/>
       <use x="63.623047" xlink:href="#DejaVuSans-2e"/>
       <use x="95.410156" xlink:href="#DejaVuSans-35"/>
      </g>
     </g>
    </g>
    <g id="ytick_9">
     <g id="line2d_37">
      <path clip-path="url(#pb26f72a53e)" d="M 49.538 158.730667 
L 669.894791 158.730667 
" style="fill:none;stroke:#000000;stroke-dasharray:0.8,1.32;stroke-dashoffset:0;stroke-opacity:0.5;stroke-width:0.8;"/>
     </g>
     <g id="line2d_38">
      <g>
       <use style="stroke:#000000;stroke-width:0.8;" x="49.538" xlink:href="#m5f790ed7d8" y="158.730667"/>
      </g>
     </g>
     <g id="text_20">
      <!-- 4.0 -->
      <g transform="translate(26.634875 162.529885)scale(0.1 -0.1)">
       <defs>
        <path d="M 2419 4116 
L 825 1625 
L 2419 1625 
L 2419 4116 
z
M 2253 4666 
L 3047 4666 
L 3047 1625 
L 3713 1625 
L 3713 1100 
L 3047 1100 
L 3047 0 
L 2419 0 
L 2419 1100 
L 313 1100 
L 313 1709 
L 2253 4666 
z
" id="DejaVuSans-34" transform="scale(0.015625)"/>
       </defs>
       <use xlink:href="#DejaVuSans-34"/>
       <use x="63.623047" xlink:href="#DejaVuSans-2e"/>
       <use x="95.410156" xlink:href="#DejaVuSans-30"/>
      </g>
     </g>
    </g>
    <g id="ytick_10">
     <g id="line2d_39">
      <path clip-path="url(#pb26f72a53e)" d="M 49.538 129.692 
L 669.894791 129.692 
" style="fill:none;stroke:#000000;stroke-dasharray:0.8,1.32;stroke-dashoffset:0;stroke-opacity:0.5;stroke-width:0.8;"/>
     </g>
     <g id="line2d_40">
      <g>
       <use style="stroke:#000000;stroke-width:0.8;" x="49.538" xlink:href="#m5f790ed7d8" y="129.692"/>
      </g>
     </g>
     <g id="text_21">
      <!-- 4.5 -->
      <g transform="translate(26.634875 133.491219)scale(0.1 -0.1)">
       <use xlink:href="#DejaVuSans-34"/>
       <use x="63.623047" xlink:href="#DejaVuSans-2e"/>
       <use x="95.410156" xlink:href="#DejaVuSans-35"/>
      </g>
     </g>
    </g>
    <g id="ytick_11">
     <g id="line2d_41">
      <path clip-path="url(#pb26f72a53e)" d="M 49.538 100.653333 
L 669.894791 100.653333 
" style="fill:none;stroke:#000000;stroke-dasharray:0.8,1.32;stroke-dashoffset:0;stroke-opacity:0.5;stroke-width:0.8;"/>
     </g>
     <g id="line2d_42">
      <g>
       <use style="stroke:#000000;stroke-width:0.8;" x="49.538" xlink:href="#m5f790ed7d8" y="100.653333"/>
      </g>
     </g>
     <g id="text_22">
      <!-- 5.0 -->
      <g transform="translate(26.634875 104.452552)scale(0.1 -0.1)">
       <use xlink:href="#DejaVuSans-35"/>
       <use x="63.623047" xlink:href="#DejaVuSans-2e"/>
       <use x="95.410156" xlink:href="#DejaVuSans-30"/>
      </g>
     </g>
    </g>
    <g id="ytick_12">
     <g id="line2d_43">
      <path clip-path="url(#pb26f72a53e)" d="M 49.538 71.614667 
L 669.894791 71.614667 
" style="fill:none;stroke:#000000;stroke-dasharray:0.8,1.32;stroke-dashoffset:0;stroke-opacity:0.5;stroke-width:0.8;"/>
     </g>
     <g id="line2d_44">
      <g>
       <use style="stroke:#000000;stroke-width:0.8;" x="49.538" xlink:href="#m5f790ed7d8" y="71.614667"/>
      </g>
     </g>
     <g id="text_23">
      <!-- 5.5 -->
      <g transform="translate(26.634875 75.413885)scale(0.1 -0.1)">
       <use xlink:href="#DejaVuSans-35"/>
       <use x="63.623047" xlink:href="#DejaVuSans-2e"/>
       <use x="95.410156" xlink:href="#DejaVuSans-35"/>
      </g>
     </g>
    </g>
    <g id="ytick_13">
     <g id="line2d_45">
      <path clip-path="url(#pb26f72a53e)" d="M 49.538 42.576 
L 669.894791 42.576 
" style="fill:none;stroke:#000000;stroke-dasharray:0.8,1.32;stroke-dashoffset:0;stroke-opacity:0.5;stroke-width:0.8;"/>
     </g>
     <g id="line2d_46">
      <g>
       <use style="stroke:#000000;stroke-width:0.8;" x="49.538" xlink:href="#m5f790ed7d8" y="42.576"/>
      </g>
     </g>
     <g id="text_24">
      <!-- 6.0 -->
      <g transform="translate(26.634875 46.375219)scale(0.1 -0.1)">
       <defs>
        <path d="M 2113 2584 
Q 1688 2584 1439 2293 
Q 1191 2003 1191 1497 
Q 1191 994 1439 701 
Q 1688 409 2113 409 
Q 2538 409 2786 701 
Q 3034 994 3034 1497 
Q 3034 2003 2786 2293 
Q 2538 2584 2113 2584 
z
M 3366 4563 
L 3366 3988 
Q 3128 4100 2886 4159 
Q 2644 4219 2406 4219 
Q 1781 4219 1451 3797 
Q 1122 3375 1075 2522 
Q 1259 2794 1537 2939 
Q 1816 3084 2150 3084 
Q 2853 3084 3261 2657 
Q 3669 2231 3669 1497 
Q 3669 778 3244 343 
Q 2819 -91 2113 -91 
Q 1303 -91 875 529 
Q 447 1150 447 2328 
Q 447 3434 972 4092 
Q 1497 4750 2381 4750 
Q 2619 4750 2861 4703 
Q 3103 4656 3366 4563 
z
" id="DejaVuSans-36" transform="scale(0.015625)"/>
       </defs>
       <use xlink:href="#DejaVuSans-36"/>
       <use x="63.623047" xlink:href="#DejaVuSans-2e"/>
       <use x="95.410156" xlink:href="#DejaVuSans-30"/>
      </g>
     </g>
    </g>
    <g id="text_25">
     <!-- $R_\mathrm{eff}$ -->
     <g transform="translate(20.555187 225.058)rotate(-90)scale(0.1 -0.1)">
      <defs>
       <path d="M 1613 4147 
L 1294 2491 
L 2106 2491 
Q 2584 2491 2879 2755 
Q 3175 3019 3175 3444 
Q 3175 3784 2976 3965 
Q 2778 4147 2406 4147 
L 1613 4147 
z
M 2772 2241 
Q 2972 2194 3105 2009 
Q 3238 1825 3413 1275 
L 3809 0 
L 3144 0 
L 2778 1197 
Q 2638 1659 2453 1815 
Q 2269 1972 1888 1972 
L 1191 1972 
L 806 0 
L 172 0 
L 1081 4666 
L 2503 4666 
Q 3150 4666 3495 4373 
Q 3841 4081 3841 3531 
Q 3841 3044 3547 2687 
Q 3253 2331 2772 2241 
z
" id="DejaVuSans-Oblique-52" transform="scale(0.015625)"/>
       <path d="M 3597 1894 
L 3597 1613 
L 953 1613 
Q 991 1019 1311 708 
Q 1631 397 2203 397 
Q 2534 397 2845 478 
Q 3156 559 3463 722 
L 3463 178 
Q 3153 47 2828 -22 
Q 2503 -91 2169 -91 
Q 1331 -91 842 396 
Q 353 884 353 1716 
Q 353 2575 817 3079 
Q 1281 3584 2069 3584 
Q 2775 3584 3186 3129 
Q 3597 2675 3597 1894 
z
M 3022 2063 
Q 3016 2534 2758 2815 
Q 2500 3097 2075 3097 
Q 1594 3097 1305 2825 
Q 1016 2553 972 2059 
L 3022 2063 
z
" id="DejaVuSans-65" transform="scale(0.015625)"/>
       <path d="M 2375 4863 
L 2375 4384 
L 1825 4384 
Q 1516 4384 1395 4259 
Q 1275 4134 1275 3809 
L 1275 3500 
L 2222 3500 
L 2222 3053 
L 1275 3053 
L 1275 0 
L 697 0 
L 697 3053 
L 147 3053 
L 147 3500 
L 697 3500 
L 697 3744 
Q 697 4328 969 4595 
Q 1241 4863 1831 4863 
L 2375 4863 
z
" id="DejaVuSans-66" transform="scale(0.015625)"/>
      </defs>
      <use transform="translate(0 0.09375)" xlink:href="#DejaVuSans-Oblique-52"/>
      <use transform="translate(69.482422 -16.3125)scale(0.7)" xlink:href="#DejaVuSans-65"/>
      <use transform="translate(112.548828 -16.3125)scale(0.7)" xlink:href="#DejaVuSans-66"/>
      <use transform="translate(137.192383 -16.3125)scale(0.7)" xlink:href="#DejaVuSans-66"/>
     </g>
    </g>
   </g>
   <g id="PolyCollection_15">
    <path clip-path="url(#pb26f72a53e)" d="M 36.877657 6.634755 
L 36.877657 172.144577 
L 36.877657 157.256987 
L 49.538 157.256987 
L 49.538 148.445364 
L 62.198343 148.445364 
L 62.198343 145.30538 
L 74.858685 145.30538 
L 74.858685 146.007426 
L 87.519028 146.007426 
L 87.519028 150.163498 
L 100.179371 150.163498 
L 100.179371 158.557143 
L 112.839713 158.557143 
L 112.839713 171.263471 
L 125.500056 171.263471 
L 125.500056 188.309981 
L 138.160399 188.309981 
L 138.160399 207.978609 
L 150.820741 207.978609 
L 150.820741 228.484067 
L 163.481084 228.484067 
L 163.481084 248.119336 
L 176.141427 248.119336 
L 176.141427 265.786706 
L 188.801769 265.786706 
L 188.801769 280.983847 
L 201.462112 280.983847 
L 201.462112 293.627322 
L 214.122455 293.627322 
L 214.122455 303.868623 
L 226.782797 303.868623 
L 226.782797 311.982501 
L 239.44314 311.982501 
L 239.44314 318.351859 
L 252.103483 318.351859 
L 252.103483 323.40843 
L 264.763825 323.40843 
L 264.763825 327.610971 
L 277.424168 327.610971 
L 277.424168 331.316916 
L 290.084511 331.316916 
L 290.084511 334.68487 
L 302.744853 334.68487 
L 302.744853 337.692244 
L 315.405196 337.692244 
L 315.405196 340.231279 
L 328.065539 340.231279 
L 328.065539 342.203156 
L 340.725881 342.203156 
L 340.725881 343.571204 
L 353.386224 343.571204 
L 353.386224 316.69713 
L 353.386224 316.69713 
L 340.725881 316.69713 
L 340.725881 317.608684 
L 328.065539 317.608684 
L 328.065539 318.32061 
L 315.405196 318.32061 
L 315.405196 318.63476 
L 302.744853 318.63476 
L 302.744853 318.33852 
L 290.084511 318.33852 
L 290.084511 317.20409 
L 277.424168 317.20409 
L 277.424168 314.999154 
L 264.763825 314.999154 
L 264.763825 311.519489 
L 252.103483 311.519489 
L 252.103483 306.57822 
L 239.44314 306.57822 
L 239.44314 299.925356 
L 226.782797 299.925356 
L 226.782797 291.200907 
L 214.122455 291.200907 
L 214.122455 279.917103 
L 201.462112 279.917103 
L 201.462112 265.592245 
L 188.801769 265.592245 
L 188.801769 247.843281 
L 176.141427 247.843281 
L 176.141427 226.51298 
L 163.481084 226.51298 
L 163.481084 201.786168 
L 150.820741 201.786168 
L 150.820741 174.310548 
L 138.160399 174.310548 
L 138.160399 145.358336 
L 125.500056 145.358336 
L 125.500056 116.664382 
L 112.839713 116.664382 
L 112.839713 90.937944 
L 100.179371 90.937944 
L 100.179371 69.67282 
L 87.519028 69.67282 
L 87.519028 54.681319 
L 74.858685 54.681319 
L 74.858685 44.717125 
L 62.198343 44.717125 
L 62.198343 36.176014 
L 49.538 36.176014 
L 49.538 24.609069 
L 36.877657 24.609069 
L 36.877657 6.634755 
z
" style="fill:url(#ha02d1e1340);fill-opacity:0.2;stroke:#0000ff;stroke-opacity:0.2;"/>
   </g>
   <g id="line2d_47">
    <path clip-path="url(#pb26f72a53e)" d="M 49.538 332.962667 
L 669.894791 332.962667 
" style="fill:none;stroke:#000000;stroke-linecap:square;"/>
   </g>
   <g id="patch_3">
    <path d="M 49.538 391.04 
L 49.538 42.576 
" style="fill:none;stroke:#000000;stroke-linecap:square;stroke-linejoin:miter;stroke-width:0.8;"/>
   </g>
   <g id="patch_4">
    <path d="M 669.894791 391.04 
L 669.894791 42.576 
" style="fill:none;stroke:#000000;stroke-linecap:square;stroke-linejoin:miter;stroke-width:0.8;"/>
   </g>
   <g id="patch_5">
    <path d="M 49.538 391.04 
L 669.894791 391.04 
" style="fill:none;stroke:#000000;stroke-linecap:square;stroke-linejoin:miter;stroke-width:0.8;"/>
   </g>
   <g id="patch_6">
    <path d="M 49.538 42.576 
L 669.894791 42.576 
" style="fill:none;stroke:#000000;stroke-linecap:square;stroke-linejoin:miter;stroke-width:0.8;"/>
   </g>
   <g id="text_26">
    <!-- $R_\mathrm{eff}$ in New South Wales with Sydney restriction levels and daily cases -->
    <g transform="translate(149.296395 23.11425)scale(0.12 -0.12)">
     <defs>
      <path id="DejaVuSans-20" transform="scale(0.015625)"/>
      <path d="M 603 3500 
L 1178 3500 
L 1178 0 
L 603 0 
L 603 3500 
z
M 603 4863 
L 1178 4863 
L 1178 4134 
L 603 4134 
L 603 4863 
z
" id="DejaVuSans-69" transform="scale(0.015625)"/>
      <path d="M 3513 2113 
L 3513 0 
L 2938 0 
L 2938 2094 
Q 2938 2591 2744 2837 
Q 2550 3084 2163 3084 
Q 1697 3084 1428 2787 
Q 1159 2491 1159 1978 
L 1159 0 
L 581 0 
L 581 3500 
L 1159 3500 
L 1159 2956 
Q 1366 3272 1645 3428 
Q 1925 3584 2291 3584 
Q 2894 3584 3203 3211 
Q 3513 2838 3513 2113 
z
" id="DejaVuSans-6e" transform="scale(0.015625)"/>
      <path d="M 628 4666 
L 1478 4666 
L 3547 763 
L 3547 4666 
L 4159 4666 
L 4159 0 
L 3309 0 
L 1241 3903 
L 1241 0 
L 628 0 
L 628 4666 
z
" id="DejaVuSans-4e" transform="scale(0.015625)"/>
      <path d="M 269 3500 
L 844 3500 
L 1563 769 
L 2278 3500 
L 2956 3500 
L 3675 769 
L 4391 3500 
L 4966 3500 
L 4050 0 
L 3372 0 
L 2619 2869 
L 1863 0 
L 1184 0 
L 269 3500 
z
" id="DejaVuSans-77" transform="scale(0.015625)"/>
      <path d="M 3425 4513 
L 3425 3897 
Q 3066 4069 2747 4153 
Q 2428 4238 2131 4238 
Q 1616 4238 1336 4038 
Q 1056 3838 1056 3469 
Q 1056 3159 1242 3001 
Q 1428 2844 1947 2747 
L 2328 2669 
Q 3034 2534 3370 2195 
Q 3706 1856 3706 1288 
Q 3706 609 3251 259 
Q 2797 -91 1919 -91 
Q 1588 -91 1214 -16 
Q 841 59 441 206 
L 441 856 
Q 825 641 1194 531 
Q 1563 422 1919 422 
Q 2459 422 2753 634 
Q 3047 847 3047 1241 
Q 3047 1584 2836 1778 
Q 2625 1972 2144 2069 
L 1759 2144 
Q 1053 2284 737 2584 
Q 422 2884 422 3419 
Q 422 4038 858 4394 
Q 1294 4750 2059 4750 
Q 2388 4750 2728 4690 
Q 3069 4631 3425 4513 
z
" id="DejaVuSans-53" transform="scale(0.015625)"/>
      <path d="M 1959 3097 
Q 1497 3097 1228 2736 
Q 959 2375 959 1747 
Q 959 1119 1226 758 
Q 1494 397 1959 397 
Q 2419 397 2687 759 
Q 2956 1122 2956 1747 
Q 2956 2369 2687 2733 
Q 2419 3097 1959 3097 
z
M 1959 3584 
Q 2709 3584 3137 3096 
Q 3566 2609 3566 1747 
Q 3566 888 3137 398 
Q 2709 -91 1959 -91 
Q 1206 -91 779 398 
Q 353 888 353 1747 
Q 353 2609 779 3096 
Q 1206 3584 1959 3584 
z
" id="DejaVuSans-6f" transform="scale(0.015625)"/>
      <path d="M 1172 4494 
L 1172 3500 
L 2356 3500 
L 2356 3053 
L 1172 3053 
L 1172 1153 
Q 1172 725 1289 603 
Q 1406 481 1766 481 
L 2356 481 
L 2356 0 
L 1766 0 
Q 1100 0 847 248 
Q 594 497 594 1153 
L 594 3053 
L 172 3053 
L 172 3500 
L 594 3500 
L 594 4494 
L 1172 4494 
z
" id="DejaVuSans-74" transform="scale(0.015625)"/>
      <path d="M 3513 2113 
L 3513 0 
L 2938 0 
L 2938 2094 
Q 2938 2591 2744 2837 
Q 2550 3084 2163 3084 
Q 1697 3084 1428 2787 
Q 1159 2491 1159 1978 
L 1159 0 
L 581 0 
L 581 4863 
L 1159 4863 
L 1159 2956 
Q 1366 3272 1645 3428 
Q 1925 3584 2291 3584 
Q 2894 3584 3203 3211 
Q 3513 2838 3513 2113 
z
" id="DejaVuSans-68" transform="scale(0.015625)"/>
      <path d="M 213 4666 
L 850 4666 
L 1831 722 
L 2809 4666 
L 3519 4666 
L 4500 722 
L 5478 4666 
L 6119 4666 
L 4947 0 
L 4153 0 
L 3169 4050 
L 2175 0 
L 1381 0 
L 213 4666 
z
" id="DejaVuSans-57" transform="scale(0.015625)"/>
      <path d="M 2194 1759 
Q 1497 1759 1228 1600 
Q 959 1441 959 1056 
Q 959 750 1161 570 
Q 1363 391 1709 391 
Q 2188 391 2477 730 
Q 2766 1069 2766 1631 
L 2766 1759 
L 2194 1759 
z
M 3341 1997 
L 3341 0 
L 2766 0 
L 2766 531 
Q 2569 213 2275 61 
Q 1981 -91 1556 -91 
Q 1019 -91 701 211 
Q 384 513 384 1019 
Q 384 1609 779 1909 
Q 1175 2209 1959 2209 
L 2766 2209 
L 2766 2266 
Q 2766 2663 2505 2880 
Q 2244 3097 1772 3097 
Q 1472 3097 1187 3025 
Q 903 2953 641 2809 
L 641 3341 
Q 956 3463 1253 3523 
Q 1550 3584 1831 3584 
Q 2591 3584 2966 3190 
Q 3341 2797 3341 1997 
z
" id="DejaVuSans-61" transform="scale(0.015625)"/>
      <path d="M 2834 3397 
L 2834 2853 
Q 2591 2978 2328 3040 
Q 2066 3103 1784 3103 
Q 1356 3103 1142 2972 
Q 928 2841 928 2578 
Q 928 2378 1081 2264 
Q 1234 2150 1697 2047 
L 1894 2003 
Q 2506 1872 2764 1633 
Q 3022 1394 3022 966 
Q 3022 478 2636 193 
Q 2250 -91 1575 -91 
Q 1294 -91 989 -36 
Q 684 19 347 128 
L 347 722 
Q 666 556 975 473 
Q 1284 391 1588 391 
Q 1994 391 2212 530 
Q 2431 669 2431 922 
Q 2431 1156 2273 1281 
Q 2116 1406 1581 1522 
L 1381 1569 
Q 847 1681 609 1914 
Q 372 2147 372 2553 
Q 372 3047 722 3315 
Q 1072 3584 1716 3584 
Q 2034 3584 2315 3537 
Q 2597 3491 2834 3397 
z
" id="DejaVuSans-73" transform="scale(0.015625)"/>
      <path d="M 2059 -325 
Q 1816 -950 1584 -1140 
Q 1353 -1331 966 -1331 
L 506 -1331 
L 506 -850 
L 844 -850 
Q 1081 -850 1212 -737 
Q 1344 -625 1503 -206 
L 1606 56 
L 191 3500 
L 800 3500 
L 1894 763 
L 2988 3500 
L 3597 3500 
L 2059 -325 
z
" id="DejaVuSans-79" transform="scale(0.015625)"/>
      <path d="M 2906 2969 
L 2906 4863 
L 3481 4863 
L 3481 0 
L 2906 0 
L 2906 525 
Q 2725 213 2448 61 
Q 2172 -91 1784 -91 
Q 1150 -91 751 415 
Q 353 922 353 1747 
Q 353 2572 751 3078 
Q 1150 3584 1784 3584 
Q 2172 3584 2448 3432 
Q 2725 3281 2906 2969 
z
M 947 1747 
Q 947 1113 1208 752 
Q 1469 391 1925 391 
Q 2381 391 2643 752 
Q 2906 1113 2906 1747 
Q 2906 2381 2643 2742 
Q 2381 3103 1925 3103 
Q 1469 3103 1208 2742 
Q 947 2381 947 1747 
z
" id="DejaVuSans-64" transform="scale(0.015625)"/>
      <path d="M 2631 2963 
Q 2534 3019 2420 3045 
Q 2306 3072 2169 3072 
Q 1681 3072 1420 2755 
Q 1159 2438 1159 1844 
L 1159 0 
L 581 0 
L 581 3500 
L 1159 3500 
L 1159 2956 
Q 1341 3275 1631 3429 
Q 1922 3584 2338 3584 
Q 2397 3584 2469 3576 
Q 2541 3569 2628 3553 
L 2631 2963 
z
" id="DejaVuSans-72" transform="scale(0.015625)"/>
      <path d="M 3122 3366 
L 3122 2828 
Q 2878 2963 2633 3030 
Q 2388 3097 2138 3097 
Q 1578 3097 1268 2742 
Q 959 2388 959 1747 
Q 959 1106 1268 751 
Q 1578 397 2138 397 
Q 2388 397 2633 464 
Q 2878 531 3122 666 
L 3122 134 
Q 2881 22 2623 -34 
Q 2366 -91 2075 -91 
Q 1284 -91 818 406 
Q 353 903 353 1747 
Q 353 2603 823 3093 
Q 1294 3584 2113 3584 
Q 2378 3584 2631 3529 
Q 2884 3475 3122 3366 
z
" id="DejaVuSans-63" transform="scale(0.015625)"/>
      <path d="M 191 3500 
L 800 3500 
L 1894 563 
L 2988 3500 
L 3597 3500 
L 2284 0 
L 1503 0 
L 191 3500 
z
" id="DejaVuSans-76" transform="scale(0.015625)"/>
     </defs>
     <use transform="translate(0 0.015625)" xlink:href="#DejaVuSans-Oblique-52"/>
     <use transform="translate(69.482422 -16.390625)scale(0.7)" xlink:href="#DejaVuSans-65"/>
     <use transform="translate(112.548828 -16.390625)scale(0.7)" xlink:href="#DejaVuSans-66"/>
     <use transform="translate(137.192383 -16.390625)scale(0.7)" xlink:href="#DejaVuSans-66"/>
     <use transform="translate(164.570312 0.015625)" xlink:href="#DejaVuSans-20"/>
     <use transform="translate(196.357422 0.015625)" xlink:href="#DejaVuSans-69"/>
     <use transform="translate(224.140625 0.015625)" xlink:href="#DejaVuSans-6e"/>
     <use transform="translate(287.519531 0.015625)" xlink:href="#DejaVuSans-20"/>
     <use transform="translate(319.306641 0.015625)" xlink:href="#DejaVuSans-4e"/>
     <use transform="translate(394.111328 0.015625)" xlink:href="#DejaVuSans-65"/>
     <use transform="translate(455.634766 0.015625)" xlink:href="#DejaVuSans-77"/>
     <use transform="translate(537.421875 0.015625)" xlink:href="#DejaVuSans-20"/>
     <use transform="translate(569.208984 0.015625)" xlink:href="#DejaVuSans-53"/>
     <use transform="translate(632.685547 0.015625)" xlink:href="#DejaVuSans-6f"/>
     <use transform="translate(693.867188 0.015625)" xlink:href="#DejaVuSans-75"/>
     <use transform="translate(757.246094 0.015625)" xlink:href="#DejaVuSans-74"/>
     <use transform="translate(796.455078 0.015625)" xlink:href="#DejaVuSans-68"/>
     <use transform="translate(859.833984 0.015625)" xlink:href="#DejaVuSans-20"/>
     <use transform="translate(891.621094 0.015625)" xlink:href="#DejaVuSans-57"/>
     <use transform="translate(990.498047 0.015625)" xlink:href="#DejaVuSans-61"/>
     <use transform="translate(1051.777344 0.015625)" xlink:href="#DejaVuSans-6c"/>
     <use transform="translate(1079.560547 0.015625)" xlink:href="#DejaVuSans-65"/>
     <use transform="translate(1141.083984 0.015625)" xlink:href="#DejaVuSans-73"/>
     <use transform="translate(1193.183594 0.015625)" xlink:href="#DejaVuSans-20"/>
     <use transform="translate(1224.970703 0.015625)" xlink:href="#DejaVuSans-77"/>
     <use transform="translate(1306.757812 0.015625)" xlink:href="#DejaVuSans-69"/>
     <use transform="translate(1334.541016 0.015625)" xlink:href="#DejaVuSans-74"/>
     <use transform="translate(1373.75 0.015625)" xlink:href="#DejaVuSans-68"/>
     <use transform="translate(1437.128906 0.015625)" xlink:href="#DejaVuSans-20"/>
     <use transform="translate(1468.916016 0.015625)" xlink:href="#DejaVuSans-53"/>
     <use transform="translate(1532.392578 0.015625)" xlink:href="#DejaVuSans-79"/>
     <use transform="translate(1591.572266 0.015625)" xlink:href="#DejaVuSans-64"/>
     <use transform="translate(1655.048828 0.015625)" xlink:href="#DejaVuSans-6e"/>
     <use transform="translate(1718.427734 0.015625)" xlink:href="#DejaVuSans-65"/>
     <use transform="translate(1779.951172 0.015625)" xlink:href="#DejaVuSans-79"/>
     <use transform="translate(1839.130859 0.015625)" xlink:href="#DejaVuSans-20"/>
     <use transform="translate(1870.917969 0.015625)" xlink:href="#DejaVuSans-72"/>
     <use transform="translate(1912.03125 0.015625)" xlink:href="#DejaVuSans-65"/>
     <use transform="translate(1973.554688 0.015625)" xlink:href="#DejaVuSans-73"/>
     <use transform="translate(2025.654297 0.015625)" xlink:href="#DejaVuSans-74"/>
     <use transform="translate(2064.863281 0.015625)" xlink:href="#DejaVuSans-72"/>
     <use transform="translate(2105.976562 0.015625)" xlink:href="#DejaVuSans-69"/>
     <use transform="translate(2133.759766 0.015625)" xlink:href="#DejaVuSans-63"/>
     <use transform="translate(2188.740234 0.015625)" xlink:href="#DejaVuSans-74"/>
     <use transform="translate(2227.949219 0.015625)" xlink:href="#DejaVuSans-69"/>
     <use transform="translate(2255.732422 0.015625)" xlink:href="#DejaVuSans-6f"/>
     <use transform="translate(2316.914062 0.015625)" xlink:href="#DejaVuSans-6e"/>
     <use transform="translate(2380.292969 0.015625)" xlink:href="#DejaVuSans-20"/>
     <use transform="translate(2412.080078 0.015625)" xlink:href="#DejaVuSans-6c"/>
     <use transform="translate(2439.863281 0.015625)" xlink:href="#DejaVuSans-65"/>
     <use transform="translate(2501.386719 0.015625)" xlink:href="#DejaVuSans-76"/>
     <use transform="translate(2560.566406 0.015625)" xlink:href="#DejaVuSans-65"/>
     <use transform="translate(2622.089844 0.015625)" xlink:href="#DejaVuSans-6c"/>
     <use transform="translate(2649.873047 0.015625)" xlink:href="#DejaVuSans-73"/>
     <use transform="translate(2701.972656 0.015625)" xlink:href="#DejaVuSans-20"/>
     <use transform="translate(2733.759766 0.015625)" xlink:href="#DejaVuSans-61"/>
     <use transform="translate(2795.039062 0.015625)" xlink:href="#DejaVuSans-6e"/>
     <use transform="translate(2858.417969 0.015625)" xlink:href="#DejaVuSans-64"/>
     <use transform="translate(2921.894531 0.015625)" xlink:href="#DejaVuSans-20"/>
     <use transform="translate(2953.681641 0.015625)" xlink:href="#DejaVuSans-64"/>
     <use transform="translate(3017.158203 0.015625)" xlink:href="#DejaVuSans-61"/>
     <use transform="translate(3078.4375 0.015625)" xlink:href="#DejaVuSans-69"/>
     <use transform="translate(3106.220703 0.015625)" xlink:href="#DejaVuSans-6c"/>
     <use transform="translate(3134.003906 0.015625)" xlink:href="#DejaVuSans-79"/>
     <use transform="translate(3193.183594 0.015625)" xlink:href="#DejaVuSans-20"/>
     <use transform="translate(3224.970703 0.015625)" xlink:href="#DejaVuSans-63"/>
     <use transform="translate(3279.951172 0.015625)" xlink:href="#DejaVuSans-61"/>
     <use transform="translate(3341.230469 0.015625)" xlink:href="#DejaVuSans-73"/>
     <use transform="translate(3393.330078 0.015625)" xlink:href="#DejaVuSans-65"/>
     <use transform="translate(3454.853516 0.015625)" xlink:href="#DejaVuSans-73"/>
    </g>
    <!-- Latest estimate: $R_\mathrm{eff}=1.05 \pm 0.23$ -->
    <g transform="translate(257.896395 36.576)scale(0.12 -0.12)">
     <defs>
      <path d="M 628 4666 
L 1259 4666 
L 1259 531 
L 3531 531 
L 3531 0 
L 628 0 
L 628 4666 
z
" id="DejaVuSans-4c" transform="scale(0.015625)"/>
      <path d="M 3328 2828 
Q 3544 3216 3844 3400 
Q 4144 3584 4550 3584 
Q 5097 3584 5394 3201 
Q 5691 2819 5691 2113 
L 5691 0 
L 5113 0 
L 5113 2094 
Q 5113 2597 4934 2840 
Q 4756 3084 4391 3084 
Q 3944 3084 3684 2787 
Q 3425 2491 3425 1978 
L 3425 0 
L 2847 0 
L 2847 2094 
Q 2847 2600 2669 2842 
Q 2491 3084 2119 3084 
Q 1678 3084 1418 2786 
Q 1159 2488 1159 1978 
L 1159 0 
L 581 0 
L 581 3500 
L 1159 3500 
L 1159 2956 
Q 1356 3278 1631 3431 
Q 1906 3584 2284 3584 
Q 2666 3584 2933 3390 
Q 3200 3197 3328 2828 
z
" id="DejaVuSans-6d" transform="scale(0.015625)"/>
      <path d="M 750 794 
L 1409 794 
L 1409 0 
L 750 0 
L 750 794 
z
M 750 3309 
L 1409 3309 
L 1409 2516 
L 750 2516 
L 750 3309 
z
" id="DejaVuSans-3a" transform="scale(0.015625)"/>
      <path d="M 678 2906 
L 4684 2906 
L 4684 2381 
L 678 2381 
L 678 2906 
z
M 678 1631 
L 4684 1631 
L 4684 1100 
L 678 1100 
L 678 1631 
z
" id="DejaVuSans-3d" transform="scale(0.015625)"/>
      <path d="M 2944 4013 
L 2944 2803 
L 4684 2803 
L 4684 2272 
L 2944 2272 
L 2944 1063 
L 2419 1063 
L 2419 2272 
L 678 2272 
L 678 2803 
L 2419 2803 
L 2419 4013 
L 2944 4013 
z
M 678 531 
L 4684 531 
L 4684 0 
L 678 0 
L 678 531 
z
" id="DejaVuSans-b1" transform="scale(0.015625)"/>
     </defs>
     <use transform="translate(0 0.015625)" xlink:href="#DejaVuSans-4c"/>
     <use transform="translate(55.712891 0.015625)" xlink:href="#DejaVuSans-61"/>
     <use transform="translate(116.992188 0.015625)" xlink:href="#DejaVuSans-74"/>
     <use transform="translate(156.201172 0.015625)" xlink:href="#DejaVuSans-65"/>
     <use transform="translate(217.724609 0.015625)" xlink:href="#DejaVuSans-73"/>
     <use transform="translate(269.824219 0.015625)" xlink:href="#DejaVuSans-74"/>
     <use transform="translate(309.033203 0.015625)" xlink:href="#DejaVuSans-20"/>
     <use transform="translate(340.820312 0.015625)" xlink:href="#DejaVuSans-65"/>
     <use transform="translate(402.34375 0.015625)" xlink:href="#DejaVuSans-73"/>
     <use transform="translate(454.443359 0.015625)" xlink:href="#DejaVuSans-74"/>
     <use transform="translate(493.652344 0.015625)" xlink:href="#DejaVuSans-69"/>
     <use transform="translate(521.435547 0.015625)" xlink:href="#DejaVuSans-6d"/>
     <use transform="translate(618.847656 0.015625)" xlink:href="#DejaVuSans-61"/>
     <use transform="translate(680.126953 0.015625)" xlink:href="#DejaVuSans-74"/>
     <use transform="translate(719.335938 0.015625)" xlink:href="#DejaVuSans-65"/>
     <use transform="translate(780.859375 0.015625)" xlink:href="#DejaVuSans-3a"/>
     <use transform="translate(814.550781 0.015625)" xlink:href="#DejaVuSans-20"/>
     <use transform="translate(846.337891 0.015625)" xlink:href="#DejaVuSans-Oblique-52"/>
     <use transform="translate(915.820312 -16.390625)scale(0.7)" xlink:href="#DejaVuSans-65"/>
     <use transform="translate(958.886719 -16.390625)scale(0.7)" xlink:href="#DejaVuSans-66"/>
     <use transform="translate(983.530273 -16.390625)scale(0.7)" xlink:href="#DejaVuSans-66"/>
     <use transform="translate(1030.390625 0.015625)" xlink:href="#DejaVuSans-3d"/>
     <use transform="translate(1133.662109 0.015625)" xlink:href="#DejaVuSans-31"/>
     <use transform="translate(1197.285156 0.015625)" xlink:href="#DejaVuSans-2e"/>
     <use transform="translate(1229.072266 0.015625)" xlink:href="#DejaVuSans-30"/>
     <use transform="translate(1292.695312 0.015625)" xlink:href="#DejaVuSans-35"/>
     <use transform="translate(1375.800781 0.015625)" xlink:href="#DejaVuSans-b1"/>
     <use transform="translate(1479.072266 0.015625)" xlink:href="#DejaVuSans-30"/>
     <use transform="translate(1542.695312 0.015625)" xlink:href="#DejaVuSans-2e"/>
     <use transform="translate(1568.982422 0.015625)" xlink:href="#DejaVuSans-32"/>
     <use transform="translate(1632.605469 0.015625)" xlink:href="#DejaVuSans-33"/>
    </g>
   </g>
  </g>
  <g id="axes_2">
   <g id="PolyCollection_16">
    <defs>
     <path d="M 347.056053 -217.404627 
L 347.056053 -195.591137 
L 359.716395 -194.032597 
L 372.376738 -192.420779 
L 385.037081 -190.775153 
L 397.697423 -189.106878 
L 410.357766 -187.42275 
L 423.018109 -185.72712 
L 435.678451 -184.022894 
L 448.338794 -182.312081 
L 460.999137 -180.596115 
L 473.659479 -178.876041 
L 486.319822 -177.152643 
L 498.980165 -175.426517 
L 511.640507 -173.698126 
L 524.30085 -171.967834 
L 536.961193 -170.23593 
L 549.621535 -168.502649 
L 562.281878 -166.768182 
L 574.942221 -165.032686 
L 587.602563 -163.296292 
L 600.262906 -161.559109 
L 612.923249 -159.821229 
L 625.583591 -158.082732 
L 638.243934 -156.343684 
L 650.904277 -154.604144 
L 663.564619 -152.86416 
L 676.224962 -151.123778 
L 676.224962 -286.820044 
L 676.224962 -286.820044 
L 663.564619 -284.120121 
L 650.904277 -281.420597 
L 638.243934 -278.721515 
L 625.583591 -276.022927 
L 612.923249 -273.324889 
L 600.262906 -270.627469 
L 587.602563 -267.930745 
L 574.942221 -265.23481 
L 562.281878 -262.539773 
L 549.621535 -259.845765 
L 536.961193 -257.152944 
L 524.30085 -254.4615 
L 511.640507 -251.771667 
L 498.980165 -249.083735 
L 486.319822 -246.398069 
L 473.659479 -243.71513 
L 460.999137 -241.035516 
L 448.338794 -238.360008 
L 435.678451 -235.689655 
L 423.018109 -233.025888 
L 410.357766 -230.370717 
L 397.697423 -227.727049 
L 385.037081 -225.099233 
L 372.376738 -222.494066 
L 359.716395 -219.922708 
L 347.056053 -217.404627 
z
" id="m00bc831766"/>
    </defs>
    <g clip-path="url(#pb26f72a53e)">
     <use style="fill:#ff00ff;fill-opacity:0.3;" x="0" xlink:href="#m00bc831766" y="432"/>
    </g>
   </g>
   <g id="matplotlib.axis_3">
    <g id="ytick_14">
     <g id="line2d_48">
      <defs>
       <path d="M 0 0 
L 3.5 0 
" id="m881023ef85" style="stroke:#000000;stroke-width:0.8;"/>
      </defs>
      <g>
       <use style="stroke:#000000;stroke-width:0.8;" x="669.894791" xlink:href="#m881023ef85" y="391.04"/>
      </g>
     </g>
     <g id="text_27">
      <!-- 1 -->
      <g transform="translate(676.894791 394.839219)scale(0.1 -0.1)">
       <use xlink:href="#DejaVuSans-31"/>
      </g>
     </g>
    </g>
    <g id="ytick_15">
     <g id="line2d_49">
      <g>
       <use style="stroke:#000000;stroke-width:0.8;" x="669.894791" xlink:href="#m881023ef85" y="274.885333"/>
      </g>
     </g>
     <g id="text_28">
      <!-- 10 -->
      <g transform="translate(676.894791 278.684552)scale(0.1 -0.1)">
       <use xlink:href="#DejaVuSans-31"/>
       <use x="63.623047" xlink:href="#DejaVuSans-30"/>
      </g>
     </g>
    </g>
    <g id="ytick_16">
     <g id="line2d_50">
      <g>
       <use style="stroke:#000000;stroke-width:0.8;" x="669.894791" xlink:href="#m881023ef85" y="158.730667"/>
      </g>
     </g>
     <g id="text_29">
      <!-- 100 -->
      <g transform="translate(676.894791 162.529885)scale(0.1 -0.1)">
       <use xlink:href="#DejaVuSans-31"/>
       <use x="63.623047" xlink:href="#DejaVuSans-30"/>
       <use x="127.246094" xlink:href="#DejaVuSans-30"/>
      </g>
     </g>
    </g>
    <g id="ytick_17">
     <g id="line2d_51">
      <g>
       <use style="stroke:#000000;stroke-width:0.8;" x="669.894791" xlink:href="#m881023ef85" y="42.576"/>
      </g>
     </g>
     <g id="text_30">
      <!-- 1000 -->
      <g transform="translate(676.894791 46.375219)scale(0.1 -0.1)">
       <use xlink:href="#DejaVuSans-31"/>
       <use x="63.623047" xlink:href="#DejaVuSans-30"/>
       <use x="127.246094" xlink:href="#DejaVuSans-30"/>
       <use x="190.869141" xlink:href="#DejaVuSans-30"/>
      </g>
     </g>
    </g>
    <g id="ytick_18">
     <g id="line2d_52">
      <defs>
       <path d="M 0 0 
L 2 0 
" id="m600f913af8" style="stroke:#000000;stroke-width:0.6;"/>
      </defs>
      <g>
       <use style="stroke:#000000;stroke-width:0.6;" x="669.894791" xlink:href="#m600f913af8" y="356.073961"/>
      </g>
     </g>
     <g id="text_31">
      <!-- 2 -->
      <g transform="translate(675.294791 358.710619)scale(0.0694 -0.0694)">
       <use xlink:href="#DejaVuSans-32"/>
      </g>
     </g>
    </g>
    <g id="ytick_19">
     <g id="line2d_53">
      <g>
       <use style="stroke:#000000;stroke-width:0.6;" x="669.894791" xlink:href="#m600f913af8" y="335.62014"/>
      </g>
     </g>
    </g>
    <g id="ytick_20">
     <g id="line2d_54">
      <g>
       <use style="stroke:#000000;stroke-width:0.6;" x="669.894791" xlink:href="#m600f913af8" y="321.107922"/>
      </g>
     </g>
     <g id="text_32">
      <!-- 4 -->
      <g transform="translate(675.294791 323.74458)scale(0.0694 -0.0694)">
       <use xlink:href="#DejaVuSans-34"/>
      </g>
     </g>
    </g>
    <g id="ytick_21">
     <g id="line2d_55">
      <g>
       <use style="stroke:#000000;stroke-width:0.6;" x="669.894791" xlink:href="#m600f913af8" y="309.851372"/>
      </g>
     </g>
    </g>
    <g id="ytick_22">
     <g id="line2d_56">
      <g>
       <use style="stroke:#000000;stroke-width:0.6;" x="669.894791" xlink:href="#m600f913af8" y="300.654101"/>
      </g>
     </g>
     <g id="text_33">
      <!-- 6 -->
      <g transform="translate(675.294791 303.290759)scale(0.0694 -0.0694)">
       <use xlink:href="#DejaVuSans-36"/>
      </g>
     </g>
    </g>
    <g id="ytick_23">
     <g id="line2d_57">
      <g>
       <use style="stroke:#000000;stroke-width:0.6;" x="669.894791" xlink:href="#m600f913af8" y="292.877919"/>
      </g>
     </g>
    </g>
    <g id="ytick_24">
     <g id="line2d_58">
      <g>
       <use style="stroke:#000000;stroke-width:0.6;" x="669.894791" xlink:href="#m600f913af8" y="286.141884"/>
      </g>
     </g>
     <g id="text_34">
      <!-- 8 -->
      <g transform="translate(675.294791 288.778541)scale(0.0694 -0.0694)">
       <defs>
        <path d="M 2034 2216 
Q 1584 2216 1326 1975 
Q 1069 1734 1069 1313 
Q 1069 891 1326 650 
Q 1584 409 2034 409 
Q 2484 409 2743 651 
Q 3003 894 3003 1313 
Q 3003 1734 2745 1975 
Q 2488 2216 2034 2216 
z
M 1403 2484 
Q 997 2584 770 2862 
Q 544 3141 544 3541 
Q 544 4100 942 4425 
Q 1341 4750 2034 4750 
Q 2731 4750 3128 4425 
Q 3525 4100 3525 3541 
Q 3525 3141 3298 2862 
Q 3072 2584 2669 2484 
Q 3125 2378 3379 2068 
Q 3634 1759 3634 1313 
Q 3634 634 3220 271 
Q 2806 -91 2034 -91 
Q 1263 -91 848 271 
Q 434 634 434 1313 
Q 434 1759 690 2068 
Q 947 2378 1403 2484 
z
M 1172 3481 
Q 1172 3119 1398 2916 
Q 1625 2713 2034 2713 
Q 2441 2713 2670 2916 
Q 2900 3119 2900 3481 
Q 2900 3844 2670 4047 
Q 2441 4250 2034 4250 
Q 1625 4250 1398 4047 
Q 1172 3844 1172 3481 
z
" id="DejaVuSans-38" transform="scale(0.015625)"/>
       </defs>
       <use xlink:href="#DejaVuSans-38"/>
      </g>
     </g>
    </g>
    <g id="ytick_25">
     <g id="line2d_59">
      <g>
       <use style="stroke:#000000;stroke-width:0.6;" x="669.894791" xlink:href="#m600f913af8" y="280.200279"/>
      </g>
     </g>
    </g>
    <g id="ytick_26">
     <g id="line2d_60">
      <g>
       <use style="stroke:#000000;stroke-width:0.6;" x="669.894791" xlink:href="#m600f913af8" y="239.919295"/>
      </g>
     </g>
     <g id="text_35">
      <!-- 20 -->
      <g transform="translate(675.294791 242.555952)scale(0.0694 -0.0694)">
       <use xlink:href="#DejaVuSans-32"/>
       <use x="63.623047" xlink:href="#DejaVuSans-30"/>
      </g>
     </g>
    </g>
    <g id="ytick_27">
     <g id="line2d_61">
      <g>
       <use style="stroke:#000000;stroke-width:0.6;" x="669.894791" xlink:href="#m600f913af8" y="219.465473"/>
      </g>
     </g>
    </g>
    <g id="ytick_28">
     <g id="line2d_62">
      <g>
       <use style="stroke:#000000;stroke-width:0.6;" x="669.894791" xlink:href="#m600f913af8" y="204.953256"/>
      </g>
     </g>
     <g id="text_36">
      <!-- 40 -->
      <g transform="translate(675.294791 207.589914)scale(0.0694 -0.0694)">
       <use xlink:href="#DejaVuSans-34"/>
       <use x="63.623047" xlink:href="#DejaVuSans-30"/>
      </g>
     </g>
    </g>
    <g id="ytick_29">
     <g id="line2d_63">
      <g>
       <use style="stroke:#000000;stroke-width:0.6;" x="669.894791" xlink:href="#m600f913af8" y="193.696705"/>
      </g>
     </g>
    </g>
    <g id="ytick_30">
     <g id="line2d_64">
      <g>
       <use style="stroke:#000000;stroke-width:0.6;" x="669.894791" xlink:href="#m600f913af8" y="184.499434"/>
      </g>
     </g>
     <g id="text_37">
      <!-- 60 -->
      <g transform="translate(675.294791 187.136092)scale(0.0694 -0.0694)">
       <use xlink:href="#DejaVuSans-36"/>
       <use x="63.623047" xlink:href="#DejaVuSans-30"/>
      </g>
     </g>
    </g>
    <g id="ytick_31">
     <g id="line2d_65">
      <g>
       <use style="stroke:#000000;stroke-width:0.6;" x="669.894791" xlink:href="#m600f913af8" y="176.723252"/>
      </g>
     </g>
    </g>
    <g id="ytick_32">
     <g id="line2d_66">
      <g>
       <use style="stroke:#000000;stroke-width:0.6;" x="669.894791" xlink:href="#m600f913af8" y="169.987217"/>
      </g>
     </g>
     <g id="text_38">
      <!-- 80 -->
      <g transform="translate(675.294791 172.623875)scale(0.0694 -0.0694)">
       <use xlink:href="#DejaVuSans-38"/>
       <use x="63.623047" xlink:href="#DejaVuSans-30"/>
      </g>
     </g>
    </g>
    <g id="ytick_33">
     <g id="line2d_67">
      <g>
       <use style="stroke:#000000;stroke-width:0.6;" x="669.894791" xlink:href="#m600f913af8" y="164.045613"/>
      </g>
     </g>
    </g>
    <g id="ytick_34">
     <g id="line2d_68">
      <g>
       <use style="stroke:#000000;stroke-width:0.6;" x="669.894791" xlink:href="#m600f913af8" y="123.764628"/>
      </g>
     </g>
     <g id="text_39">
      <!-- 200 -->
      <g transform="translate(675.294791 126.401286)scale(0.0694 -0.0694)">
       <use xlink:href="#DejaVuSans-32"/>
       <use x="63.623047" xlink:href="#DejaVuSans-30"/>
       <use x="127.246094" xlink:href="#DejaVuSans-30"/>
      </g>
     </g>
    </g>
    <g id="ytick_35">
     <g id="line2d_69">
      <g>
       <use style="stroke:#000000;stroke-width:0.6;" x="669.894791" xlink:href="#m600f913af8" y="103.310806"/>
      </g>
     </g>
    </g>
    <g id="ytick_36">
     <g id="line2d_70">
      <g>
       <use style="stroke:#000000;stroke-width:0.6;" x="669.894791" xlink:href="#m600f913af8" y="88.798589"/>
      </g>
     </g>
     <g id="text_40">
      <!-- 400 -->
      <g transform="translate(675.294791 91.435247)scale(0.0694 -0.0694)">
       <use xlink:href="#DejaVuSans-34"/>
       <use x="63.623047" xlink:href="#DejaVuSans-30"/>
       <use x="127.246094" xlink:href="#DejaVuSans-30"/>
      </g>
     </g>
    </g>
    <g id="ytick_37">
     <g id="line2d_71">
      <g>
       <use style="stroke:#000000;stroke-width:0.6;" x="669.894791" xlink:href="#m600f913af8" y="77.542039"/>
      </g>
     </g>
    </g>
    <g id="ytick_38">
     <g id="line2d_72">
      <g>
       <use style="stroke:#000000;stroke-width:0.6;" x="669.894791" xlink:href="#m600f913af8" y="68.344768"/>
      </g>
     </g>
     <g id="text_41">
      <!-- 600 -->
      <g transform="translate(675.294791 70.981425)scale(0.0694 -0.0694)">
       <use xlink:href="#DejaVuSans-36"/>
       <use x="63.623047" xlink:href="#DejaVuSans-30"/>
       <use x="127.246094" xlink:href="#DejaVuSans-30"/>
      </g>
     </g>
    </g>
    <g id="ytick_39">
     <g id="line2d_73">
      <g>
       <use style="stroke:#000000;stroke-width:0.6;" x="669.894791" xlink:href="#m600f913af8" y="60.568586"/>
      </g>
     </g>
    </g>
    <g id="ytick_40">
     <g id="line2d_74">
      <g>
       <use style="stroke:#000000;stroke-width:0.6;" x="669.894791" xlink:href="#m600f913af8" y="53.83255"/>
      </g>
     </g>
     <g id="text_42">
      <!-- 800 -->
      <g transform="translate(675.294791 56.469208)scale(0.0694 -0.0694)">
       <use xlink:href="#DejaVuSans-38"/>
       <use x="63.623047" xlink:href="#DejaVuSans-30"/>
       <use x="127.246094" xlink:href="#DejaVuSans-30"/>
      </g>
     </g>
    </g>
    <g id="ytick_41">
     <g id="line2d_75">
      <g>
       <use style="stroke:#000000;stroke-width:0.6;" x="669.894791" xlink:href="#m600f913af8" y="47.890946"/>
      </g>
     </g>
    </g>
    <g id="text_43">
     <!-- Daily confirmed cases -->
     <g transform="translate(713.943228 271.952531)rotate(-90)scale(0.1 -0.1)">
      <defs>
       <path d="M 1259 4147 
L 1259 519 
L 2022 519 
Q 2988 519 3436 956 
Q 3884 1394 3884 2338 
Q 3884 3275 3436 3711 
Q 2988 4147 2022 4147 
L 1259 4147 
z
M 628 4666 
L 1925 4666 
Q 3281 4666 3915 4102 
Q 4550 3538 4550 2338 
Q 4550 1131 3912 565 
Q 3275 0 1925 0 
L 628 0 
L 628 4666 
z
" id="DejaVuSans-44" transform="scale(0.015625)"/>
      </defs>
      <use xlink:href="#DejaVuSans-44"/>
      <use x="77.001953" xlink:href="#DejaVuSans-61"/>
      <use x="138.28125" xlink:href="#DejaVuSans-69"/>
      <use x="166.064453" xlink:href="#DejaVuSans-6c"/>
      <use x="193.847656" xlink:href="#DejaVuSans-79"/>
      <use x="253.027344" xlink:href="#DejaVuSans-20"/>
      <use x="284.814453" xlink:href="#DejaVuSans-63"/>
      <use x="339.794922" xlink:href="#DejaVuSans-6f"/>
      <use x="400.976562" xlink:href="#DejaVuSans-6e"/>
      <use x="464.355469" xlink:href="#DejaVuSans-66"/>
      <use x="499.560547" xlink:href="#DejaVuSans-69"/>
      <use x="527.34375" xlink:href="#DejaVuSans-72"/>
      <use x="566.707031" xlink:href="#DejaVuSans-6d"/>
      <use x="664.119141" xlink:href="#DejaVuSans-65"/>
      <use x="725.642578" xlink:href="#DejaVuSans-64"/>
      <use x="789.119141" xlink:href="#DejaVuSans-20"/>
      <use x="820.90625" xlink:href="#DejaVuSans-63"/>
      <use x="875.886719" xlink:href="#DejaVuSans-61"/>
      <use x="937.166016" xlink:href="#DejaVuSans-73"/>
      <use x="989.265625" xlink:href="#DejaVuSans-65"/>
      <use x="1050.789062" xlink:href="#DejaVuSans-73"/>
     </g>
    </g>
   </g>
   <g id="line2d_76">
    <path clip-path="url(#pb26f72a53e)" d="M 87.519028 433 
L 87.519028 355.572013 
L 100.179371 355.572013 
L 100.179371 355.572013 
L 112.839713 355.572013 
L 112.839713 355.572013 
L 125.500056 355.572013 
L 125.500056 390.04105 
L 138.160399 390.04105 
L 138.160399 320.856324 
L 150.820741 320.856324 
L 150.820741 320.856324 
L 163.481084 320.856324 
L 163.481084 274.784543 
L 176.141427 274.784543 
L 176.141427 245.178221 
L 188.801769 245.178221 
L 188.801769 269.985744 
L 201.462112 269.985744 
L 201.462112 222.909822 
L 214.122455 222.909822 
L 214.122455 219.431854 
L 226.782797 219.431854 
L 226.782797 242.453729 
L 239.44314 242.453729 
L 239.44314 242.453729 
L 252.103483 242.453729 
L 252.103483 235.065502 
L 264.763825 235.065502 
L 264.763825 230.680003 
L 277.424168 230.680003 
L 277.424168 217.778845 
L 290.084511 217.778845 
L 290.084511 211.660473 
L 302.744853 211.660473 
L 302.744853 251.112828 
L 315.405196 251.112828 
L 315.405196 211.660473 
L 328.065539 211.660473 
L 328.065539 245.178221 
L 340.725881 245.178221 
L 340.725881 224.743066 
L 353.386224 224.743066 
" style="fill:none;stroke:#800080;stroke-linecap:square;stroke-width:1.5;"/>
   </g>
   <g id="line2d_77">
    <path clip-path="url(#pb26f72a53e)" d="M 25.653632 433 
L 30.547486 426.574897 
L 43.207829 410.004982 
L 55.868171 393.481489 
L 68.528514 377.049618 
L 81.188857 360.801164 
L 93.849199 344.890578 
L 106.509542 329.526749 
L 119.169885 314.91858 
L 131.830227 301.290379 
L 144.49057 288.820103 
L 157.150913 277.639723 
L 169.811255 267.819205 
L 182.471598 259.36717 
L 195.131941 252.236169 
L 207.792283 246.332178 
L 220.452626 241.527341 
L 233.112969 237.674449 
L 245.773311 234.62475 
L 258.433654 232.238242 
L 271.093997 230.39269 
L 283.754339 228.984048 
L 296.414682 227.921382 
L 309.075025 227.12034 
L 321.735367 226.499397 
L 334.39571 225.981888 
L 347.056053 225.502118 
" style="fill:none;stroke:#ff00ff;stroke-linecap:square;stroke-width:1.5;"/>
   </g>
   <g id="line2d_78">
    <path clip-path="url(#pb26f72a53e)" d="M 347.056053 225.502118 
L 359.716395 225.022348 
L 372.376738 224.542577 
L 385.037081 224.062807 
L 397.697423 223.583037 
L 410.357766 223.103266 
L 423.018109 222.623496 
L 435.678451 222.143726 
L 448.338794 221.663955 
L 460.999137 221.184185 
L 473.659479 220.704415 
L 486.319822 220.224644 
L 498.980165 219.744874 
L 511.640507 219.265104 
L 524.30085 218.785333 
L 536.961193 218.305563 
L 549.621535 217.825793 
L 562.281878 217.346022 
L 574.942221 216.866252 
L 587.602563 216.386482 
L 600.262906 215.906711 
L 612.923249 215.426941 
L 625.583591 214.94717 
L 638.243934 214.4674 
L 650.904277 213.98763 
L 663.564619 213.507859 
L 676.224962 213.028089 
" style="fill:none;stroke:#ff00ff;stroke-dasharray:5.55,2.4;stroke-dashoffset:0;stroke-width:1.5;"/>
   </g>
   <g id="patch_7">
    <path d="M 49.538 391.04 
L 49.538 42.576 
" style="fill:none;stroke:#000000;stroke-linecap:square;stroke-linejoin:miter;stroke-width:0.8;"/>
   </g>
   <g id="patch_8">
    <path d="M 669.894791 391.04 
L 669.894791 42.576 
" style="fill:none;stroke:#000000;stroke-linecap:square;stroke-linejoin:miter;stroke-width:0.8;"/>
   </g>
   <g id="patch_9">
    <path d="M 49.538 391.04 
L 669.894791 391.04 
" style="fill:none;stroke:#000000;stroke-linecap:square;stroke-linejoin:miter;stroke-width:0.8;"/>
   </g>
   <g id="patch_10">
    <path d="M 49.538 42.576 
L 669.894791 42.576 
" style="fill:none;stroke:#000000;stroke-linecap:square;stroke-linejoin:miter;stroke-width:0.8;"/>
   </g>
   <g id="legend_1">
    <g id="patch_11">
     <path d="M 486.213541 182.701 
L 662.894791 182.701 
Q 664.894791 182.701 664.894791 180.701 
L 664.894791 49.576 
Q 664.894791 47.576 662.894791 47.576 
L 486.213541 47.576 
Q 484.213541 47.576 484.213541 49.576 
L 484.213541 180.701 
Q 484.213541 182.701 486.213541 182.701 
z
" style="fill:#ffffff;opacity:0.8;stroke:#cccccc;stroke-linejoin:miter;"/>
    </g>
    <g id="patch_12">
     <path d="M 488.213541 59.174437 
L 508.213541 59.174437 
L 508.213541 52.174437 
L 488.213541 52.174437 
z
" style="fill:#1f77b4;stroke:#1f77b4;stroke-linejoin:miter;"/>
    </g>
    <g id="text_44">
     <!-- $R_\mathrm{eff}$ -->
     <g transform="translate(516.213541 59.174437)scale(0.1 -0.1)">
      <use transform="translate(0 0.09375)" xlink:href="#DejaVuSans-Oblique-52"/>
      <use transform="translate(69.482422 -16.3125)scale(0.7)" xlink:href="#DejaVuSans-65"/>
      <use transform="translate(112.548828 -16.3125)scale(0.7)" xlink:href="#DejaVuSans-66"/>
      <use transform="translate(137.192383 -16.3125)scale(0.7)" xlink:href="#DejaVuSans-66"/>
     </g>
    </g>
    <g id="patch_13">
     <path d="M 488.213541 73.854125 
L 508.213541 73.854125 
L 508.213541 66.854125 
L 488.213541 66.854125 
z
" style="fill:url(#ha02d1e1340);opacity:0.2;stroke:#0000ff;stroke-linejoin:miter;"/>
    </g>
    <g id="text_45">
     <!-- $R_\mathrm{eff}$ uncertainty -->
     <g transform="translate(516.213541 73.854125)scale(0.1 -0.1)">
      <use transform="translate(0 0.015625)" xlink:href="#DejaVuSans-Oblique-52"/>
      <use transform="translate(69.482422 -16.390625)scale(0.7)" xlink:href="#DejaVuSans-65"/>
      <use transform="translate(112.548828 -16.390625)scale(0.7)" xlink:href="#DejaVuSans-66"/>
      <use transform="translate(137.192383 -16.390625)scale(0.7)" xlink:href="#DejaVuSans-66"/>
      <use transform="translate(164.570312 0.015625)" xlink:href="#DejaVuSans-20"/>
      <use transform="translate(196.357422 0.015625)" xlink:href="#DejaVuSans-75"/>
      <use transform="translate(259.736328 0.015625)" xlink:href="#DejaVuSans-6e"/>
      <use transform="translate(323.115234 0.015625)" xlink:href="#DejaVuSans-63"/>
      <use transform="translate(378.095703 0.015625)" xlink:href="#DejaVuSans-65"/>
      <use transform="translate(439.619141 0.015625)" xlink:href="#DejaVuSans-72"/>
      <use transform="translate(480.732422 0.015625)" xlink:href="#DejaVuSans-74"/>
      <use transform="translate(519.941406 0.015625)" xlink:href="#DejaVuSans-61"/>
      <use transform="translate(581.220703 0.015625)" xlink:href="#DejaVuSans-69"/>
      <use transform="translate(609.003906 0.015625)" xlink:href="#DejaVuSans-6e"/>
      <use transform="translate(672.382812 0.015625)" xlink:href="#DejaVuSans-74"/>
      <use transform="translate(711.591797 0.015625)" xlink:href="#DejaVuSans-79"/>
     </g>
    </g>
    <g id="line2d_79">
     <path d="M 488.213541 85.052562 
L 508.213541 85.052562 
" style="fill:none;stroke:#800080;stroke-linecap:square;stroke-width:1.5;"/>
    </g>
    <g id="line2d_80"/>
    <g id="text_46">
     <!-- Daily cases -->
     <g transform="translate(516.213541 88.552562)scale(0.1 -0.1)">
      <use xlink:href="#DejaVuSans-44"/>
      <use x="77.001953" xlink:href="#DejaVuSans-61"/>
      <use x="138.28125" xlink:href="#DejaVuSans-69"/>
      <use x="166.064453" xlink:href="#DejaVuSans-6c"/>
      <use x="193.847656" xlink:href="#DejaVuSans-79"/>
      <use x="253.027344" xlink:href="#DejaVuSans-20"/>
      <use x="284.814453" xlink:href="#DejaVuSans-63"/>
      <use x="339.794922" xlink:href="#DejaVuSans-61"/>
      <use x="401.074219" xlink:href="#DejaVuSans-73"/>
      <use x="453.173828" xlink:href="#DejaVuSans-65"/>
      <use x="514.697266" xlink:href="#DejaVuSans-73"/>
     </g>
    </g>
    <g id="line2d_81">
     <path d="M 488.213541 99.730687 
L 508.213541 99.730687 
" style="fill:none;stroke:#ff00ff;stroke-linecap:square;stroke-width:1.5;"/>
    </g>
    <g id="line2d_82"/>
    <g id="text_47">
     <!-- Daily cases (smoothed) -->
     <g transform="translate(516.213541 103.230687)scale(0.1 -0.1)">
      <defs>
       <path d="M 1984 4856 
Q 1566 4138 1362 3434 
Q 1159 2731 1159 2009 
Q 1159 1288 1364 580 
Q 1569 -128 1984 -844 
L 1484 -844 
Q 1016 -109 783 600 
Q 550 1309 550 2009 
Q 550 2706 781 3412 
Q 1013 4119 1484 4856 
L 1984 4856 
z
" id="DejaVuSans-28" transform="scale(0.015625)"/>
       <path d="M 513 4856 
L 1013 4856 
Q 1481 4119 1714 3412 
Q 1947 2706 1947 2009 
Q 1947 1309 1714 600 
Q 1481 -109 1013 -844 
L 513 -844 
Q 928 -128 1133 580 
Q 1338 1288 1338 2009 
Q 1338 2731 1133 3434 
Q 928 4138 513 4856 
z
" id="DejaVuSans-29" transform="scale(0.015625)"/>
      </defs>
      <use xlink:href="#DejaVuSans-44"/>
      <use x="77.001953" xlink:href="#DejaVuSans-61"/>
      <use x="138.28125" xlink:href="#DejaVuSans-69"/>
      <use x="166.064453" xlink:href="#DejaVuSans-6c"/>
      <use x="193.847656" xlink:href="#DejaVuSans-79"/>
      <use x="253.027344" xlink:href="#DejaVuSans-20"/>
      <use x="284.814453" xlink:href="#DejaVuSans-63"/>
      <use x="339.794922" xlink:href="#DejaVuSans-61"/>
      <use x="401.074219" xlink:href="#DejaVuSans-73"/>
      <use x="453.173828" xlink:href="#DejaVuSans-65"/>
      <use x="514.697266" xlink:href="#DejaVuSans-73"/>
      <use x="566.796875" xlink:href="#DejaVuSans-20"/>
      <use x="598.583984" xlink:href="#DejaVuSans-28"/>
      <use x="637.597656" xlink:href="#DejaVuSans-73"/>
      <use x="689.697266" xlink:href="#DejaVuSans-6d"/>
      <use x="787.109375" xlink:href="#DejaVuSans-6f"/>
      <use x="848.291016" xlink:href="#DejaVuSans-6f"/>
      <use x="909.472656" xlink:href="#DejaVuSans-74"/>
      <use x="948.681641" xlink:href="#DejaVuSans-68"/>
      <use x="1012.060547" xlink:href="#DejaVuSans-65"/>
      <use x="1073.583984" xlink:href="#DejaVuSans-64"/>
      <use x="1137.060547" xlink:href="#DejaVuSans-29"/>
     </g>
    </g>
    <g id="line2d_83">
     <path d="M 488.213541 114.408812 
L 508.213541 114.408812 
" style="fill:none;stroke:#ff00ff;stroke-dasharray:5.55,2.4;stroke-dashoffset:0;stroke-width:1.5;"/>
    </g>
    <g id="line2d_84"/>
    <g id="text_48">
     <!-- Daily cases (trend) -->
     <g transform="translate(516.213541 117.908812)scale(0.1 -0.1)">
      <use xlink:href="#DejaVuSans-44"/>
      <use x="77.001953" xlink:href="#DejaVuSans-61"/>
      <use x="138.28125" xlink:href="#DejaVuSans-69"/>
      <use x="166.064453" xlink:href="#DejaVuSans-6c"/>
      <use x="193.847656" xlink:href="#DejaVuSans-79"/>
      <use x="253.027344" xlink:href="#DejaVuSans-20"/>
      <use x="284.814453" xlink:href="#DejaVuSans-63"/>
      <use x="339.794922" xlink:href="#DejaVuSans-61"/>
      <use x="401.074219" xlink:href="#DejaVuSans-73"/>
      <use x="453.173828" xlink:href="#DejaVuSans-65"/>
      <use x="514.697266" xlink:href="#DejaVuSans-73"/>
      <use x="566.796875" xlink:href="#DejaVuSans-20"/>
      <use x="598.583984" xlink:href="#DejaVuSans-28"/>
      <use x="637.597656" xlink:href="#DejaVuSans-74"/>
      <use x="676.806641" xlink:href="#DejaVuSans-72"/>
      <use x="715.669922" xlink:href="#DejaVuSans-65"/>
      <use x="777.193359" xlink:href="#DejaVuSans-6e"/>
      <use x="840.572266" xlink:href="#DejaVuSans-64"/>
      <use x="904.048828" xlink:href="#DejaVuSans-29"/>
     </g>
    </g>
    <g id="patch_14">
     <path d="M 488.213541 132.586937 
L 508.213541 132.586937 
L 508.213541 125.586937 
L 488.213541 125.586937 
z
" style="fill:#ff00ff;opacity:0.3;"/>
    </g>
    <g id="text_49">
     <!-- Smoothing/trend uncertainty -->
     <g transform="translate(516.213541 132.586937)scale(0.1 -0.1)">
      <defs>
       <path d="M 1625 4666 
L 2156 4666 
L 531 -594 
L 0 -594 
L 1625 4666 
z
" id="DejaVuSans-2f" transform="scale(0.015625)"/>
      </defs>
      <use xlink:href="#DejaVuSans-53"/>
      <use x="63.476562" xlink:href="#DejaVuSans-6d"/>
      <use x="160.888672" xlink:href="#DejaVuSans-6f"/>
      <use x="222.070312" xlink:href="#DejaVuSans-6f"/>
      <use x="283.251953" xlink:href="#DejaVuSans-74"/>
      <use x="322.460938" xlink:href="#DejaVuSans-68"/>
      <use x="385.839844" xlink:href="#DejaVuSans-69"/>
      <use x="413.623047" xlink:href="#DejaVuSans-6e"/>
      <use x="477.001953" xlink:href="#DejaVuSans-67"/>
      <use x="540.478516" xlink:href="#DejaVuSans-2f"/>
      <use x="574.169922" xlink:href="#DejaVuSans-74"/>
      <use x="613.378906" xlink:href="#DejaVuSans-72"/>
      <use x="652.242188" xlink:href="#DejaVuSans-65"/>
      <use x="713.765625" xlink:href="#DejaVuSans-6e"/>
      <use x="777.144531" xlink:href="#DejaVuSans-64"/>
      <use x="840.621094" xlink:href="#DejaVuSans-20"/>
      <use x="872.408203" xlink:href="#DejaVuSans-75"/>
      <use x="935.787109" xlink:href="#DejaVuSans-6e"/>
      <use x="999.166016" xlink:href="#DejaVuSans-63"/>
      <use x="1054.146484" xlink:href="#DejaVuSans-65"/>
      <use x="1115.669922" xlink:href="#DejaVuSans-72"/>
      <use x="1156.783203" xlink:href="#DejaVuSans-74"/>
      <use x="1195.992188" xlink:href="#DejaVuSans-61"/>
      <use x="1257.271484" xlink:href="#DejaVuSans-69"/>
      <use x="1285.054688" xlink:href="#DejaVuSans-6e"/>
      <use x="1348.433594" xlink:href="#DejaVuSans-74"/>
      <use x="1387.642578" xlink:href="#DejaVuSans-79"/>
     </g>
    </g>
    <g id="patch_15">
     <path d="M 488.213541 147.265062 
L 508.213541 147.265062 
L 508.213541 140.265062 
L 488.213541 140.265062 
z
" style="fill:#ffff00;opacity:0.3;"/>
    </g>
    <g id="text_50">
     <!-- Initial restrictions -->
     <g transform="translate(516.213541 147.265062)scale(0.1 -0.1)">
      <defs>
       <path d="M 628 4666 
L 1259 4666 
L 1259 0 
L 628 0 
L 628 4666 
z
" id="DejaVuSans-49" transform="scale(0.015625)"/>
      </defs>
      <use xlink:href="#DejaVuSans-49"/>
      <use x="29.492188" xlink:href="#DejaVuSans-6e"/>
      <use x="92.871094" xlink:href="#DejaVuSans-69"/>
      <use x="120.654297" xlink:href="#DejaVuSans-74"/>
      <use x="159.863281" xlink:href="#DejaVuSans-69"/>
      <use x="187.646484" xlink:href="#DejaVuSans-61"/>
      <use x="248.925781" xlink:href="#DejaVuSans-6c"/>
      <use x="276.708984" xlink:href="#DejaVuSans-20"/>
      <use x="308.496094" xlink:href="#DejaVuSans-72"/>
      <use x="347.359375" xlink:href="#DejaVuSans-65"/>
      <use x="408.882812" xlink:href="#DejaVuSans-73"/>
      <use x="460.982422" xlink:href="#DejaVuSans-74"/>
      <use x="500.191406" xlink:href="#DejaVuSans-72"/>
      <use x="541.304688" xlink:href="#DejaVuSans-69"/>
      <use x="569.087891" xlink:href="#DejaVuSans-63"/>
      <use x="624.068359" xlink:href="#DejaVuSans-74"/>
      <use x="663.277344" xlink:href="#DejaVuSans-69"/>
      <use x="691.060547" xlink:href="#DejaVuSans-6f"/>
      <use x="752.242188" xlink:href="#DejaVuSans-6e"/>
      <use x="815.621094" xlink:href="#DejaVuSans-73"/>
     </g>
    </g>
    <g id="patch_16">
     <path d="M 488.213541 161.943187 
L 508.213541 161.943187 
L 508.213541 154.943187 
L 488.213541 154.943187 
z
" style="fill:#ffa500;opacity:0.3;"/>
    </g>
    <g id="text_51">
     <!-- East Sydney LGA lockdown -->
     <g transform="translate(516.213541 161.943187)scale(0.1 -0.1)">
      <defs>
       <path d="M 628 4666 
L 3578 4666 
L 3578 4134 
L 1259 4134 
L 1259 2753 
L 3481 2753 
L 3481 2222 
L 1259 2222 
L 1259 531 
L 3634 531 
L 3634 0 
L 628 0 
L 628 4666 
z
" id="DejaVuSans-45" transform="scale(0.015625)"/>
       <path d="M 3809 666 
L 3809 1919 
L 2778 1919 
L 2778 2438 
L 4434 2438 
L 4434 434 
Q 4069 175 3628 42 
Q 3188 -91 2688 -91 
Q 1594 -91 976 548 
Q 359 1188 359 2328 
Q 359 3472 976 4111 
Q 1594 4750 2688 4750 
Q 3144 4750 3555 4637 
Q 3966 4525 4313 4306 
L 4313 3634 
Q 3963 3931 3569 4081 
Q 3175 4231 2741 4231 
Q 1884 4231 1454 3753 
Q 1025 3275 1025 2328 
Q 1025 1384 1454 906 
Q 1884 428 2741 428 
Q 3075 428 3337 486 
Q 3600 544 3809 666 
z
" id="DejaVuSans-47" transform="scale(0.015625)"/>
       <path d="M 581 4863 
L 1159 4863 
L 1159 1991 
L 2875 3500 
L 3609 3500 
L 1753 1863 
L 3688 0 
L 2938 0 
L 1159 1709 
L 1159 0 
L 581 0 
L 581 4863 
z
" id="DejaVuSans-6b" transform="scale(0.015625)"/>
      </defs>
      <use xlink:href="#DejaVuSans-45"/>
      <use x="63.183594" xlink:href="#DejaVuSans-61"/>
      <use x="124.462891" xlink:href="#DejaVuSans-73"/>
      <use x="176.5625" xlink:href="#DejaVuSans-74"/>
      <use x="215.771484" xlink:href="#DejaVuSans-20"/>
      <use x="247.558594" xlink:href="#DejaVuSans-53"/>
      <use x="311.035156" xlink:href="#DejaVuSans-79"/>
      <use x="370.214844" xlink:href="#DejaVuSans-64"/>
      <use x="433.691406" xlink:href="#DejaVuSans-6e"/>
      <use x="497.070312" xlink:href="#DejaVuSans-65"/>
      <use x="558.59375" xlink:href="#DejaVuSans-79"/>
      <use x="617.773438" xlink:href="#DejaVuSans-20"/>
      <use x="649.560547" xlink:href="#DejaVuSans-4c"/>
      <use x="705.273438" xlink:href="#DejaVuSans-47"/>
      <use x="782.763672" xlink:href="#DejaVuSans-41"/>
      <use x="851.171875" xlink:href="#DejaVuSans-20"/>
      <use x="882.958984" xlink:href="#DejaVuSans-6c"/>
      <use x="910.742188" xlink:href="#DejaVuSans-6f"/>
      <use x="971.923828" xlink:href="#DejaVuSans-63"/>
      <use x="1026.904297" xlink:href="#DejaVuSans-6b"/>
      <use x="1084.814453" xlink:href="#DejaVuSans-64"/>
      <use x="1148.291016" xlink:href="#DejaVuSans-6f"/>
      <use x="1209.472656" xlink:href="#DejaVuSans-77"/>
      <use x="1291.259766" xlink:href="#DejaVuSans-6e"/>
     </g>
    </g>
    <g id="patch_17">
     <path d="M 488.213541 176.621312 
L 508.213541 176.621312 
L 508.213541 169.621312 
L 488.213541 169.621312 
z
" style="fill:#ff0000;opacity:0.3;"/>
    </g>
    <g id="text_52">
     <!-- Greater Sydney lockdown -->
     <g transform="translate(516.213541 176.621312)scale(0.1 -0.1)">
      <use xlink:href="#DejaVuSans-47"/>
      <use x="77.490234" xlink:href="#DejaVuSans-72"/>
      <use x="116.353516" xlink:href="#DejaVuSans-65"/>
      <use x="177.876953" xlink:href="#DejaVuSans-61"/>
      <use x="239.15625" xlink:href="#DejaVuSans-74"/>
      <use x="278.365234" xlink:href="#DejaVuSans-65"/>
      <use x="339.888672" xlink:href="#DejaVuSans-72"/>
      <use x="381.001953" xlink:href="#DejaVuSans-20"/>
      <use x="412.789062" xlink:href="#DejaVuSans-53"/>
      <use x="476.265625" xlink:href="#DejaVuSans-79"/>
      <use x="535.445312" xlink:href="#DejaVuSans-64"/>
      <use x="598.921875" xlink:href="#DejaVuSans-6e"/>
      <use x="662.300781" xlink:href="#DejaVuSans-65"/>
      <use x="723.824219" xlink:href="#DejaVuSans-79"/>
      <use x="783.003906" xlink:href="#DejaVuSans-20"/>
      <use x="814.791016" xlink:href="#DejaVuSans-6c"/>
      <use x="842.574219" xlink:href="#DejaVuSans-6f"/>
      <use x="903.755859" xlink:href="#DejaVuSans-63"/>
      <use x="958.736328" xlink:href="#DejaVuSans-6b"/>
      <use x="1016.646484" xlink:href="#DejaVuSans-64"/>
      <use x="1080.123047" xlink:href="#DejaVuSans-6f"/>
      <use x="1141.304688" xlink:href="#DejaVuSans-77"/>
      <use x="1223.091797" xlink:href="#DejaVuSans-6e"/>
     </g>
    </g>
   </g>
   <g id="PolyCollection_17">
    <defs>
     <path d="M 17.887143 -5.046245 
L 17.887143 35.300554 
L 30.547486 13.322501 
L 43.207829 -6.910931 
L 55.868171 -26.11207 
L 68.528514 -44.567437 
L 81.188857 -62.343705 
L 93.849199 -79.374481 
L 106.509542 -95.525564 
L 119.169885 -110.672887 
L 131.830227 -124.671844 
L 144.49057 -137.410643 
L 157.150913 -148.802957 
L 169.811255 -158.808199 
L 182.471598 -167.43595 
L 195.131941 -174.74378 
L 207.792283 -180.828154 
L 220.452626 -185.81105 
L 233.112969 -189.82553 
L 245.773311 -192.998543 
L 258.433654 -195.438726 
L 271.093997 -197.21903 
L 283.754339 -198.364553 
L 296.414682 -198.858457 
L 309.075025 -198.674941 
L 321.735367 -197.815323 
L 334.39571 -196.312582 
L 347.056053 -194.208735 
L 347.056053 -216.371992 
L 347.056053 -216.371992 
L 334.39571 -214.154225 
L 321.735367 -212.168353 
L 309.075025 -210.404114 
L 296.414682 -208.808888 
L 283.754339 -207.274436 
L 271.093997 -205.644213 
L 258.433654 -203.743382 
L 245.773311 -201.402358 
L 233.112969 -198.456815 
L 220.452626 -194.739697 
L 207.792283 -190.083553 
L 195.131941 -184.329218 
L 182.471598 -177.343978 
L 169.811255 -169.035868 
L 157.150913 -159.365673 
L 144.49057 -148.356537 
L 131.830227 -136.101372 
L 119.169885 -122.766822 
L 106.509542 -108.578862 
L 93.849199 -93.814505 
L 81.188857 -78.729204 
L 68.528514 -63.55673 
L 55.868171 -48.468067 
L 43.207829 -33.591603 
L 30.547486 -19.062071 
L 17.887143 -5.046245 
z
" id="m647654c00b"/>
    </defs>
    <g clip-path="url(#pb26f72a53e)">
     <use style="fill:#ff00ff;fill-opacity:0.3;" x="0" xlink:href="#m647654c00b" y="432"/>
    </g>
   </g>
  </g>
 </g>
 <defs>
  <clipPath id="pb26f72a53e">
   <rect height="348.464" width="620.356791" x="49.538" y="42.576"/>
  </clipPath>
 </defs>
 <defs>
  <pattern height="72" id="ha02d1e1340" patternUnits="userSpaceOnUse" width="72" x="0" y="0">
   <rect fill="#00ffff" height="73" width="73" x="0" y="0"/>
   <path d="M -36 36 
L 36 -36 
M -33 39 
L 39 -33 
M -30 42 
L 42 -30 
M -27 45 
L 45 -27 
M -24 48 
L 48 -24 
M -21 51 
L 51 -21 
M -18 54 
L 54 -18 
M -15 57 
L 57 -15 
M -12 60 
L 60 -12 
M -9 63 
L 63 -9 
M -6 66 
L 66 -6 
M -3 69 
L 69 -3 
M 0 72 
L 72 0 
M 3 75 
L 75 3 
M 6 78 
L 78 6 
M 9 81 
L 81 9 
M 12 84 
L 84 12 
M 15 87 
L 87 15 
M 18 90 
L 90 18 
M 21 93 
L 93 21 
M 24 96 
L 96 24 
M 27 99 
L 99 27 
M 30 102 
L 102 30 
M 33 105 
L 105 33 
M 36 108 
L 108 36 
" style="fill:#0000ff;stroke:#0000ff;stroke-linecap:butt;stroke-linejoin:miter;stroke-opacity:0.2;stroke-width:1.0;"/>
  </pattern>
 </defs>
</svg>
