<?xml version="1.0" encoding="utf-8" standalone="no"?>
<!DOCTYPE svg PUBLIC "-//W3C//DTD SVG 1.1//EN"
  "http://www.w3.org/Graphics/SVG/1.1/DTD/svg11.dtd">
<svg height="360pt" version="1.1" viewBox="0 0 720 360" width="720pt" xmlns="http://www.w3.org/2000/svg" xmlns:xlink="http://www.w3.org/1999/xlink">
 <metadata>
  <rdf:RDF xmlns:cc="http://creativecommons.org/ns#" xmlns:dc="http://purl.org/dc/elements/1.1/" xmlns:rdf="http://www.w3.org/1999/02/22-rdf-syntax-ns#">
   <cc:Work>
    <dc:type rdf:resource="http://purl.org/dc/dcmitype/StillImage"/>
    <dc:date>2021-08-29T15:49:43.847853</dc:date>
    <dc:format>image/svg+xml</dc:format>
    <dc:creator>
     <cc:Agent>
      <dc:title>Matplotlib v3.4.2, https://matplotlib.org/</dc:title>
     </cc:Agent>
    </dc:creator>
   </cc:Work>
  </rdf:RDF>
 </metadata>
 <defs>
  <style type="text/css">*{stroke-linecap:butt;stroke-linejoin:round;}</style>
 </defs>
 <g id="figure_1">
  <g id="patch_1">
   <path d="M 0 360 
L 720 360 
L 720 0 
L 0 0 
z
" style="fill:#ffffff;"/>
  </g>
  <g id="axes_1">
   <g id="patch_2">
    <path d="M 54.11 319.04 
L 356.1975 319.04 
L 356.1975 26.16 
L 54.11 26.16 
z
" style="fill:#ffffff;"/>
   </g>
   <g id="matplotlib.axis_1">
    <g id="xtick_1">
     <g id="line2d_1">
      <path clip-path="url(#pccffaf0b48)" d="M 54.11 319.04 
L 54.11 26.16 
" style="fill:none;stroke:#000000;stroke-dasharray:0.8,1.32;stroke-dashoffset:0;stroke-opacity:0.5;stroke-width:0.8;"/>
     </g>
     <g id="line2d_2">
      <defs>
       <path d="M 0 0 
L 0 3.5 
" id="m2c292995a8" style="stroke:#000000;stroke-width:0.8;"/>
      </defs>
      <g>
       <use style="stroke:#000000;stroke-width:0.8;" x="54.11" xlink:href="#m2c292995a8" y="319.04"/>
      </g>
     </g>
     <g id="text_1">
      <!-- May -->
      <g transform="translate(43.7725 333.638438)scale(0.1 -0.1)">
       <defs>
        <path d="M 628 4666 
L 1569 4666 
L 2759 1491 
L 3956 4666 
L 4897 4666 
L 4897 0 
L 4281 0 
L 4281 4097 
L 3078 897 
L 2444 897 
L 1241 4097 
L 1241 0 
L 628 0 
L 628 4666 
z
" id="DejaVuSans-4d" transform="scale(0.015625)"/>
        <path d="M 2194 1759 
Q 1497 1759 1228 1600 
Q 959 1441 959 1056 
Q 959 750 1161 570 
Q 1363 391 1709 391 
Q 2188 391 2477 730 
Q 2766 1069 2766 1631 
L 2766 1759 
L 2194 1759 
z
M 3341 1997 
L 3341 0 
L 2766 0 
L 2766 531 
Q 2569 213 2275 61 
Q 1981 -91 1556 -91 
Q 1019 -91 701 211 
Q 384 513 384 1019 
Q 384 1609 779 1909 
Q 1175 2209 1959 2209 
L 2766 2209 
L 2766 2266 
Q 2766 2663 2505 2880 
Q 2244 3097 1772 3097 
Q 1472 3097 1187 3025 
Q 903 2953 641 2809 
L 641 3341 
Q 956 3463 1253 3523 
Q 1550 3584 1831 3584 
Q 2591 3584 2966 3190 
Q 3341 2797 3341 1997 
z
" id="DejaVuSans-61" transform="scale(0.015625)"/>
        <path d="M 2059 -325 
Q 1816 -950 1584 -1140 
Q 1353 -1331 966 -1331 
L 506 -1331 
L 506 -850 
L 844 -850 
Q 1081 -850 1212 -737 
Q 1344 -625 1503 -206 
L 1606 56 
L 191 3500 
L 800 3500 
L 1894 763 
L 2988 3500 
L 3597 3500 
L 2059 -325 
z
" id="DejaVuSans-79" transform="scale(0.015625)"/>
       </defs>
       <use xlink:href="#DejaVuSans-4d"/>
       <use x="86.279297" xlink:href="#DejaVuSans-61"/>
       <use x="147.558594" xlink:href="#DejaVuSans-79"/>
      </g>
     </g>
    </g>
    <g id="xtick_2">
     <g id="line2d_3">
      <path clip-path="url(#pccffaf0b48)" d="M 71.442889 319.04 
L 71.442889 26.16 
" style="fill:none;stroke:#000000;stroke-dasharray:0.8,1.32;stroke-dashoffset:0;stroke-opacity:0.5;stroke-width:0.8;"/>
     </g>
     <g id="line2d_4">
      <g>
       <use style="stroke:#000000;stroke-width:0.8;" x="71.442889" xlink:href="#m2c292995a8" y="319.04"/>
      </g>
     </g>
     <g id="text_2">
      <!-- 15 -->
      <g transform="translate(65.080389 333.638438)scale(0.1 -0.1)">
       <defs>
        <path d="M 794 531 
L 1825 531 
L 1825 4091 
L 703 3866 
L 703 4441 
L 1819 4666 
L 2450 4666 
L 2450 531 
L 3481 531 
L 3481 0 
L 794 0 
L 794 531 
z
" id="DejaVuSans-31" transform="scale(0.015625)"/>
        <path d="M 691 4666 
L 3169 4666 
L 3169 4134 
L 1269 4134 
L 1269 2991 
Q 1406 3038 1543 3061 
Q 1681 3084 1819 3084 
Q 2600 3084 3056 2656 
Q 3513 2228 3513 1497 
Q 3513 744 3044 326 
Q 2575 -91 1722 -91 
Q 1428 -91 1123 -41 
Q 819 9 494 109 
L 494 744 
Q 775 591 1075 516 
Q 1375 441 1709 441 
Q 2250 441 2565 725 
Q 2881 1009 2881 1497 
Q 2881 1984 2565 2268 
Q 2250 2553 1709 2553 
Q 1456 2553 1204 2497 
Q 953 2441 691 2322 
L 691 4666 
z
" id="DejaVuSans-35" transform="scale(0.015625)"/>
       </defs>
       <use xlink:href="#DejaVuSans-31"/>
       <use x="63.623047" xlink:href="#DejaVuSans-35"/>
      </g>
     </g>
    </g>
    <g id="xtick_3">
     <g id="line2d_5">
      <path clip-path="url(#pccffaf0b48)" d="M 92.489969 319.04 
L 92.489969 26.16 
" style="fill:none;stroke:#000000;stroke-dasharray:0.8,1.32;stroke-dashoffset:0;stroke-opacity:0.5;stroke-width:0.8;"/>
     </g>
     <g id="line2d_6">
      <g>
       <use style="stroke:#000000;stroke-width:0.8;" x="92.489969" xlink:href="#m2c292995a8" y="319.04"/>
      </g>
     </g>
     <g id="text_3">
      <!-- Jun -->
      <g transform="translate(84.677469 333.638438)scale(0.1 -0.1)">
       <defs>
        <path d="M 628 4666 
L 1259 4666 
L 1259 325 
Q 1259 -519 939 -900 
Q 619 -1281 -91 -1281 
L -331 -1281 
L -331 -750 
L -134 -750 
Q 284 -750 456 -515 
Q 628 -281 628 325 
L 628 4666 
z
" id="DejaVuSans-4a" transform="scale(0.015625)"/>
        <path d="M 544 1381 
L 544 3500 
L 1119 3500 
L 1119 1403 
Q 1119 906 1312 657 
Q 1506 409 1894 409 
Q 2359 409 2629 706 
Q 2900 1003 2900 1516 
L 2900 3500 
L 3475 3500 
L 3475 0 
L 2900 0 
L 2900 538 
Q 2691 219 2414 64 
Q 2138 -91 1772 -91 
Q 1169 -91 856 284 
Q 544 659 544 1381 
z
M 1991 3584 
L 1991 3584 
z
" id="DejaVuSans-75" transform="scale(0.015625)"/>
        <path d="M 3513 2113 
L 3513 0 
L 2938 0 
L 2938 2094 
Q 2938 2591 2744 2837 
Q 2550 3084 2163 3084 
Q 1697 3084 1428 2787 
Q 1159 2491 1159 1978 
L 1159 0 
L 581 0 
L 581 3500 
L 1159 3500 
L 1159 2956 
Q 1366 3272 1645 3428 
Q 1925 3584 2291 3584 
Q 2894 3584 3203 3211 
Q 3513 2838 3513 2113 
z
" id="DejaVuSans-6e" transform="scale(0.015625)"/>
       </defs>
       <use xlink:href="#DejaVuSans-4a"/>
       <use x="29.492188" xlink:href="#DejaVuSans-75"/>
       <use x="92.871094" xlink:href="#DejaVuSans-6e"/>
      </g>
     </g>
    </g>
    <g id="xtick_4">
     <g id="line2d_7">
      <path clip-path="url(#pccffaf0b48)" d="M 109.822859 319.04 
L 109.822859 26.16 
" style="fill:none;stroke:#000000;stroke-dasharray:0.8,1.32;stroke-dashoffset:0;stroke-opacity:0.5;stroke-width:0.8;"/>
     </g>
     <g id="line2d_8">
      <g>
       <use style="stroke:#000000;stroke-width:0.8;" x="109.822859" xlink:href="#m2c292995a8" y="319.04"/>
      </g>
     </g>
     <g id="text_4">
      <!-- 15 -->
      <g transform="translate(103.460359 333.638438)scale(0.1 -0.1)">
       <use xlink:href="#DejaVuSans-31"/>
       <use x="63.623047" xlink:href="#DejaVuSans-35"/>
      </g>
     </g>
    </g>
    <g id="xtick_5">
     <g id="line2d_9">
      <path clip-path="url(#pccffaf0b48)" d="M 129.631875 319.04 
L 129.631875 26.16 
" style="fill:none;stroke:#000000;stroke-dasharray:0.8,1.32;stroke-dashoffset:0;stroke-opacity:0.5;stroke-width:0.8;"/>
     </g>
     <g id="line2d_10">
      <g>
       <use style="stroke:#000000;stroke-width:0.8;" x="129.631875" xlink:href="#m2c292995a8" y="319.04"/>
      </g>
     </g>
     <g id="text_5">
      <!-- Jul -->
      <g transform="translate(123.599062 333.638438)scale(0.1 -0.1)">
       <defs>
        <path d="M 603 4863 
L 1178 4863 
L 1178 0 
L 603 0 
L 603 4863 
z
" id="DejaVuSans-6c" transform="scale(0.015625)"/>
       </defs>
       <use xlink:href="#DejaVuSans-4a"/>
       <use x="29.492188" xlink:href="#DejaVuSans-75"/>
       <use x="92.871094" xlink:href="#DejaVuSans-6c"/>
      </g>
     </g>
    </g>
    <g id="xtick_6">
     <g id="line2d_11">
      <path clip-path="url(#pccffaf0b48)" d="M 146.964764 319.04 
L 146.964764 26.16 
" style="fill:none;stroke:#000000;stroke-dasharray:0.8,1.32;stroke-dashoffset:0;stroke-opacity:0.5;stroke-width:0.8;"/>
     </g>
     <g id="line2d_12">
      <g>
       <use style="stroke:#000000;stroke-width:0.8;" x="146.964764" xlink:href="#m2c292995a8" y="319.04"/>
      </g>
     </g>
     <g id="text_6">
      <!-- 15 -->
      <g transform="translate(140.602264 333.638438)scale(0.1 -0.1)">
       <use xlink:href="#DejaVuSans-31"/>
       <use x="63.623047" xlink:href="#DejaVuSans-35"/>
      </g>
     </g>
    </g>
    <g id="xtick_7">
     <g id="line2d_13">
      <path clip-path="url(#pccffaf0b48)" d="M 168.011844 319.04 
L 168.011844 26.16 
" style="fill:none;stroke:#000000;stroke-dasharray:0.8,1.32;stroke-dashoffset:0;stroke-opacity:0.5;stroke-width:0.8;"/>
     </g>
     <g id="line2d_14">
      <g>
       <use style="stroke:#000000;stroke-width:0.8;" x="168.011844" xlink:href="#m2c292995a8" y="319.04"/>
      </g>
     </g>
     <g id="text_7">
      <!-- Aug -->
      <g transform="translate(158.248563 333.638438)scale(0.1 -0.1)">
       <defs>
        <path d="M 2188 4044 
L 1331 1722 
L 3047 1722 
L 2188 4044 
z
M 1831 4666 
L 2547 4666 
L 4325 0 
L 3669 0 
L 3244 1197 
L 1141 1197 
L 716 0 
L 50 0 
L 1831 4666 
z
" id="DejaVuSans-41" transform="scale(0.015625)"/>
        <path d="M 2906 1791 
Q 2906 2416 2648 2759 
Q 2391 3103 1925 3103 
Q 1463 3103 1205 2759 
Q 947 2416 947 1791 
Q 947 1169 1205 825 
Q 1463 481 1925 481 
Q 2391 481 2648 825 
Q 2906 1169 2906 1791 
z
M 3481 434 
Q 3481 -459 3084 -895 
Q 2688 -1331 1869 -1331 
Q 1566 -1331 1297 -1286 
Q 1028 -1241 775 -1147 
L 775 -588 
Q 1028 -725 1275 -790 
Q 1522 -856 1778 -856 
Q 2344 -856 2625 -561 
Q 2906 -266 2906 331 
L 2906 616 
Q 2728 306 2450 153 
Q 2172 0 1784 0 
Q 1141 0 747 490 
Q 353 981 353 1791 
Q 353 2603 747 3093 
Q 1141 3584 1784 3584 
Q 2172 3584 2450 3431 
Q 2728 3278 2906 2969 
L 2906 3500 
L 3481 3500 
L 3481 434 
z
" id="DejaVuSans-67" transform="scale(0.015625)"/>
       </defs>
       <use xlink:href="#DejaVuSans-41"/>
       <use x="68.408203" xlink:href="#DejaVuSans-75"/>
       <use x="131.787109" xlink:href="#DejaVuSans-67"/>
      </g>
     </g>
    </g>
    <g id="xtick_8">
     <g id="line2d_15">
      <path clip-path="url(#pccffaf0b48)" d="M 185.344734 319.04 
L 185.344734 26.16 
" style="fill:none;stroke:#000000;stroke-dasharray:0.8,1.32;stroke-dashoffset:0;stroke-opacity:0.5;stroke-width:0.8;"/>
     </g>
     <g id="line2d_16">
      <g>
       <use style="stroke:#000000;stroke-width:0.8;" x="185.344734" xlink:href="#m2c292995a8" y="319.04"/>
      </g>
     </g>
     <g id="text_8">
      <!-- 15 -->
      <g transform="translate(178.982234 333.638438)scale(0.1 -0.1)">
       <use xlink:href="#DejaVuSans-31"/>
       <use x="63.623047" xlink:href="#DejaVuSans-35"/>
      </g>
     </g>
    </g>
    <g id="xtick_9">
     <g id="line2d_17">
      <path clip-path="url(#pccffaf0b48)" d="M 206.391814 319.04 
L 206.391814 26.16 
" style="fill:none;stroke:#000000;stroke-dasharray:0.8,1.32;stroke-dashoffset:0;stroke-opacity:0.5;stroke-width:0.8;"/>
     </g>
     <g id="line2d_18">
      <g>
       <use style="stroke:#000000;stroke-width:0.8;" x="206.391814" xlink:href="#m2c292995a8" y="319.04"/>
      </g>
     </g>
     <g id="text_9">
      <!-- Sep -->
      <g transform="translate(196.966814 333.638438)scale(0.1 -0.1)">
       <defs>
        <path d="M 3425 4513 
L 3425 3897 
Q 3066 4069 2747 4153 
Q 2428 4238 2131 4238 
Q 1616 4238 1336 4038 
Q 1056 3838 1056 3469 
Q 1056 3159 1242 3001 
Q 1428 2844 1947 2747 
L 2328 2669 
Q 3034 2534 3370 2195 
Q 3706 1856 3706 1288 
Q 3706 609 3251 259 
Q 2797 -91 1919 -91 
Q 1588 -91 1214 -16 
Q 841 59 441 206 
L 441 856 
Q 825 641 1194 531 
Q 1563 422 1919 422 
Q 2459 422 2753 634 
Q 3047 847 3047 1241 
Q 3047 1584 2836 1778 
Q 2625 1972 2144 2069 
L 1759 2144 
Q 1053 2284 737 2584 
Q 422 2884 422 3419 
Q 422 4038 858 4394 
Q 1294 4750 2059 4750 
Q 2388 4750 2728 4690 
Q 3069 4631 3425 4513 
z
" id="DejaVuSans-53" transform="scale(0.015625)"/>
        <path d="M 3597 1894 
L 3597 1613 
L 953 1613 
Q 991 1019 1311 708 
Q 1631 397 2203 397 
Q 2534 397 2845 478 
Q 3156 559 3463 722 
L 3463 178 
Q 3153 47 2828 -22 
Q 2503 -91 2169 -91 
Q 1331 -91 842 396 
Q 353 884 353 1716 
Q 353 2575 817 3079 
Q 1281 3584 2069 3584 
Q 2775 3584 3186 3129 
Q 3597 2675 3597 1894 
z
M 3022 2063 
Q 3016 2534 2758 2815 
Q 2500 3097 2075 3097 
Q 1594 3097 1305 2825 
Q 1016 2553 972 2059 
L 3022 2063 
z
" id="DejaVuSans-65" transform="scale(0.015625)"/>
        <path d="M 1159 525 
L 1159 -1331 
L 581 -1331 
L 581 3500 
L 1159 3500 
L 1159 2969 
Q 1341 3281 1617 3432 
Q 1894 3584 2278 3584 
Q 2916 3584 3314 3078 
Q 3713 2572 3713 1747 
Q 3713 922 3314 415 
Q 2916 -91 2278 -91 
Q 1894 -91 1617 61 
Q 1341 213 1159 525 
z
M 3116 1747 
Q 3116 2381 2855 2742 
Q 2594 3103 2138 3103 
Q 1681 3103 1420 2742 
Q 1159 2381 1159 1747 
Q 1159 1113 1420 752 
Q 1681 391 2138 391 
Q 2594 391 2855 752 
Q 3116 1113 3116 1747 
z
" id="DejaVuSans-70" transform="scale(0.015625)"/>
       </defs>
       <use xlink:href="#DejaVuSans-53"/>
       <use x="63.476562" xlink:href="#DejaVuSans-65"/>
       <use x="125" xlink:href="#DejaVuSans-70"/>
      </g>
     </g>
    </g>
    <g id="xtick_10">
     <g id="line2d_19">
      <path clip-path="url(#pccffaf0b48)" d="M 223.724703 319.04 
L 223.724703 26.16 
" style="fill:none;stroke:#000000;stroke-dasharray:0.8,1.32;stroke-dashoffset:0;stroke-opacity:0.5;stroke-width:0.8;"/>
     </g>
     <g id="line2d_20">
      <g>
       <use style="stroke:#000000;stroke-width:0.8;" x="223.724703" xlink:href="#m2c292995a8" y="319.04"/>
      </g>
     </g>
     <g id="text_10">
      <!-- 15 -->
      <g transform="translate(217.362203 333.638438)scale(0.1 -0.1)">
       <use xlink:href="#DejaVuSans-31"/>
       <use x="63.623047" xlink:href="#DejaVuSans-35"/>
      </g>
     </g>
    </g>
    <g id="xtick_11">
     <g id="line2d_21">
      <path clip-path="url(#pccffaf0b48)" d="M 243.533719 319.04 
L 243.533719 26.16 
" style="fill:none;stroke:#000000;stroke-dasharray:0.8,1.32;stroke-dashoffset:0;stroke-opacity:0.5;stroke-width:0.8;"/>
     </g>
     <g id="line2d_22">
      <g>
       <use style="stroke:#000000;stroke-width:0.8;" x="243.533719" xlink:href="#m2c292995a8" y="319.04"/>
      </g>
     </g>
     <g id="text_11">
      <!-- Oct -->
      <g transform="translate(234.888407 333.638438)scale(0.1 -0.1)">
       <defs>
        <path d="M 2522 4238 
Q 1834 4238 1429 3725 
Q 1025 3213 1025 2328 
Q 1025 1447 1429 934 
Q 1834 422 2522 422 
Q 3209 422 3611 934 
Q 4013 1447 4013 2328 
Q 4013 3213 3611 3725 
Q 3209 4238 2522 4238 
z
M 2522 4750 
Q 3503 4750 4090 4092 
Q 4678 3434 4678 2328 
Q 4678 1225 4090 567 
Q 3503 -91 2522 -91 
Q 1538 -91 948 565 
Q 359 1222 359 2328 
Q 359 3434 948 4092 
Q 1538 4750 2522 4750 
z
" id="DejaVuSans-4f" transform="scale(0.015625)"/>
        <path d="M 3122 3366 
L 3122 2828 
Q 2878 2963 2633 3030 
Q 2388 3097 2138 3097 
Q 1578 3097 1268 2742 
Q 959 2388 959 1747 
Q 959 1106 1268 751 
Q 1578 397 2138 397 
Q 2388 397 2633 464 
Q 2878 531 3122 666 
L 3122 134 
Q 2881 22 2623 -34 
Q 2366 -91 2075 -91 
Q 1284 -91 818 406 
Q 353 903 353 1747 
Q 353 2603 823 3093 
Q 1294 3584 2113 3584 
Q 2378 3584 2631 3529 
Q 2884 3475 3122 3366 
z
" id="DejaVuSans-63" transform="scale(0.015625)"/>
        <path d="M 1172 4494 
L 1172 3500 
L 2356 3500 
L 2356 3053 
L 1172 3053 
L 1172 1153 
Q 1172 725 1289 603 
Q 1406 481 1766 481 
L 2356 481 
L 2356 0 
L 1766 0 
Q 1100 0 847 248 
Q 594 497 594 1153 
L 594 3053 
L 172 3053 
L 172 3500 
L 594 3500 
L 594 4494 
L 1172 4494 
z
" id="DejaVuSans-74" transform="scale(0.015625)"/>
       </defs>
       <use xlink:href="#DejaVuSans-4f"/>
       <use x="78.710938" xlink:href="#DejaVuSans-63"/>
       <use x="133.691406" xlink:href="#DejaVuSans-74"/>
      </g>
     </g>
    </g>
    <g id="xtick_12">
     <g id="line2d_23">
      <path clip-path="url(#pccffaf0b48)" d="M 260.866609 319.04 
L 260.866609 26.16 
" style="fill:none;stroke:#000000;stroke-dasharray:0.8,1.32;stroke-dashoffset:0;stroke-opacity:0.5;stroke-width:0.8;"/>
     </g>
     <g id="line2d_24">
      <g>
       <use style="stroke:#000000;stroke-width:0.8;" x="260.866609" xlink:href="#m2c292995a8" y="319.04"/>
      </g>
     </g>
     <g id="text_12">
      <!-- 15 -->
      <g transform="translate(254.504109 333.638438)scale(0.1 -0.1)">
       <use xlink:href="#DejaVuSans-31"/>
       <use x="63.623047" xlink:href="#DejaVuSans-35"/>
      </g>
     </g>
    </g>
    <g id="xtick_13">
     <g id="line2d_25">
      <path clip-path="url(#pccffaf0b48)" d="M 281.913689 319.04 
L 281.913689 26.16 
" style="fill:none;stroke:#000000;stroke-dasharray:0.8,1.32;stroke-dashoffset:0;stroke-opacity:0.5;stroke-width:0.8;"/>
     </g>
     <g id="line2d_26">
      <g>
       <use style="stroke:#000000;stroke-width:0.8;" x="281.913689" xlink:href="#m2c292995a8" y="319.04"/>
      </g>
     </g>
     <g id="text_13">
      <!-- Nov -->
      <g transform="translate(272.154314 333.638438)scale(0.1 -0.1)">
       <defs>
        <path d="M 628 4666 
L 1478 4666 
L 3547 763 
L 3547 4666 
L 4159 4666 
L 4159 0 
L 3309 0 
L 1241 3903 
L 1241 0 
L 628 0 
L 628 4666 
z
" id="DejaVuSans-4e" transform="scale(0.015625)"/>
        <path d="M 1959 3097 
Q 1497 3097 1228 2736 
Q 959 2375 959 1747 
Q 959 1119 1226 758 
Q 1494 397 1959 397 
Q 2419 397 2687 759 
Q 2956 1122 2956 1747 
Q 2956 2369 2687 2733 
Q 2419 3097 1959 3097 
z
M 1959 3584 
Q 2709 3584 3137 3096 
Q 3566 2609 3566 1747 
Q 3566 888 3137 398 
Q 2709 -91 1959 -91 
Q 1206 -91 779 398 
Q 353 888 353 1747 
Q 353 2609 779 3096 
Q 1206 3584 1959 3584 
z
" id="DejaVuSans-6f" transform="scale(0.015625)"/>
        <path d="M 191 3500 
L 800 3500 
L 1894 563 
L 2988 3500 
L 3597 3500 
L 2284 0 
L 1503 0 
L 191 3500 
z
" id="DejaVuSans-76" transform="scale(0.015625)"/>
       </defs>
       <use xlink:href="#DejaVuSans-4e"/>
       <use x="74.804688" xlink:href="#DejaVuSans-6f"/>
       <use x="135.986328" xlink:href="#DejaVuSans-76"/>
      </g>
     </g>
    </g>
    <g id="xtick_14">
     <g id="line2d_27">
      <path clip-path="url(#pccffaf0b48)" d="M 299.246578 319.04 
L 299.246578 26.16 
" style="fill:none;stroke:#000000;stroke-dasharray:0.8,1.32;stroke-dashoffset:0;stroke-opacity:0.5;stroke-width:0.8;"/>
     </g>
     <g id="line2d_28">
      <g>
       <use style="stroke:#000000;stroke-width:0.8;" x="299.246578" xlink:href="#m2c292995a8" y="319.04"/>
      </g>
     </g>
     <g id="text_14">
      <!-- 15 -->
      <g transform="translate(292.884078 333.638438)scale(0.1 -0.1)">
       <use xlink:href="#DejaVuSans-31"/>
       <use x="63.623047" xlink:href="#DejaVuSans-35"/>
      </g>
     </g>
    </g>
    <g id="xtick_15">
     <g id="line2d_29">
      <path clip-path="url(#pccffaf0b48)" d="M 319.055594 319.04 
L 319.055594 26.16 
" style="fill:none;stroke:#000000;stroke-dasharray:0.8,1.32;stroke-dashoffset:0;stroke-opacity:0.5;stroke-width:0.8;"/>
     </g>
     <g id="line2d_30">
      <g>
       <use style="stroke:#000000;stroke-width:0.8;" x="319.055594" xlink:href="#m2c292995a8" y="319.04"/>
      </g>
     </g>
     <g id="text_15">
      <!-- Dec -->
      <g transform="translate(309.379813 333.638438)scale(0.1 -0.1)">
       <defs>
        <path d="M 1259 4147 
L 1259 519 
L 2022 519 
Q 2988 519 3436 956 
Q 3884 1394 3884 2338 
Q 3884 3275 3436 3711 
Q 2988 4147 2022 4147 
L 1259 4147 
z
M 628 4666 
L 1925 4666 
Q 3281 4666 3915 4102 
Q 4550 3538 4550 2338 
Q 4550 1131 3912 565 
Q 3275 0 1925 0 
L 628 0 
L 628 4666 
z
" id="DejaVuSans-44" transform="scale(0.015625)"/>
       </defs>
       <use xlink:href="#DejaVuSans-44"/>
       <use x="77.001953" xlink:href="#DejaVuSans-65"/>
       <use x="138.525391" xlink:href="#DejaVuSans-63"/>
      </g>
     </g>
    </g>
    <g id="xtick_16">
     <g id="line2d_31">
      <path clip-path="url(#pccffaf0b48)" d="M 336.388484 319.04 
L 336.388484 26.16 
" style="fill:none;stroke:#000000;stroke-dasharray:0.8,1.32;stroke-dashoffset:0;stroke-opacity:0.5;stroke-width:0.8;"/>
     </g>
     <g id="line2d_32">
      <g>
       <use style="stroke:#000000;stroke-width:0.8;" x="336.388484" xlink:href="#m2c292995a8" y="319.04"/>
      </g>
     </g>
     <g id="text_16">
      <!-- 15 -->
      <g transform="translate(330.025984 333.638438)scale(0.1 -0.1)">
       <use xlink:href="#DejaVuSans-31"/>
       <use x="63.623047" xlink:href="#DejaVuSans-35"/>
      </g>
     </g>
    </g>
    <g id="text_17">
     <!-- 2021-Dec -->
     <g transform="translate(307.788125 346.316563)scale(0.1 -0.1)">
      <defs>
       <path d="M 1228 531 
L 3431 531 
L 3431 0 
L 469 0 
L 469 531 
Q 828 903 1448 1529 
Q 2069 2156 2228 2338 
Q 2531 2678 2651 2914 
Q 2772 3150 2772 3378 
Q 2772 3750 2511 3984 
Q 2250 4219 1831 4219 
Q 1534 4219 1204 4116 
Q 875 4013 500 3803 
L 500 4441 
Q 881 4594 1212 4672 
Q 1544 4750 1819 4750 
Q 2544 4750 2975 4387 
Q 3406 4025 3406 3419 
Q 3406 3131 3298 2873 
Q 3191 2616 2906 2266 
Q 2828 2175 2409 1742 
Q 1991 1309 1228 531 
z
" id="DejaVuSans-32" transform="scale(0.015625)"/>
       <path d="M 2034 4250 
Q 1547 4250 1301 3770 
Q 1056 3291 1056 2328 
Q 1056 1369 1301 889 
Q 1547 409 2034 409 
Q 2525 409 2770 889 
Q 3016 1369 3016 2328 
Q 3016 3291 2770 3770 
Q 2525 4250 2034 4250 
z
M 2034 4750 
Q 2819 4750 3233 4129 
Q 3647 3509 3647 2328 
Q 3647 1150 3233 529 
Q 2819 -91 2034 -91 
Q 1250 -91 836 529 
Q 422 1150 422 2328 
Q 422 3509 836 4129 
Q 1250 4750 2034 4750 
z
" id="DejaVuSans-30" transform="scale(0.015625)"/>
       <path d="M 313 2009 
L 1997 2009 
L 1997 1497 
L 313 1497 
L 313 2009 
z
" id="DejaVuSans-2d" transform="scale(0.015625)"/>
      </defs>
      <use xlink:href="#DejaVuSans-32"/>
      <use x="63.623047" xlink:href="#DejaVuSans-30"/>
      <use x="127.246094" xlink:href="#DejaVuSans-32"/>
      <use x="190.869141" xlink:href="#DejaVuSans-31"/>
      <use x="254.492188" xlink:href="#DejaVuSans-2d"/>
      <use x="290.576172" xlink:href="#DejaVuSans-44"/>
      <use x="367.578125" xlink:href="#DejaVuSans-65"/>
      <use x="429.101562" xlink:href="#DejaVuSans-63"/>
     </g>
    </g>
   </g>
   <g id="matplotlib.axis_2">
    <g id="ytick_1">
     <g id="line2d_33">
      <path clip-path="url(#pccffaf0b48)" d="M 54.11 319.04 
L 356.1975 319.04 
" style="fill:none;stroke:#000000;stroke-dasharray:0.8,1.32;stroke-dashoffset:0;stroke-opacity:0.5;stroke-width:0.8;"/>
     </g>
     <g id="line2d_34">
      <defs>
       <path d="M 0 0 
L -3.5 0 
" id="mf20f6bb712" style="stroke:#000000;stroke-width:0.8;"/>
      </defs>
      <g>
       <use style="stroke:#000000;stroke-width:0.8;" x="54.11" xlink:href="#mf20f6bb712" y="319.04"/>
      </g>
     </g>
     <g id="text_18">
      <!-- 0.00 -->
      <g transform="translate(24.844375 322.839219)scale(0.1 -0.1)">
       <defs>
        <path d="M 684 794 
L 1344 794 
L 1344 0 
L 684 0 
L 684 794 
z
" id="DejaVuSans-2e" transform="scale(0.015625)"/>
       </defs>
       <use xlink:href="#DejaVuSans-30"/>
       <use x="63.623047" xlink:href="#DejaVuSans-2e"/>
       <use x="95.410156" xlink:href="#DejaVuSans-30"/>
       <use x="159.033203" xlink:href="#DejaVuSans-30"/>
      </g>
     </g>
    </g>
    <g id="ytick_2">
     <g id="line2d_35">
      <path clip-path="url(#pccffaf0b48)" d="M 54.11 285.758182 
L 356.1975 285.758182 
" style="fill:none;stroke:#000000;stroke-dasharray:0.8,1.32;stroke-dashoffset:0;stroke-opacity:0.5;stroke-width:0.8;"/>
     </g>
     <g id="line2d_36">
      <g>
       <use style="stroke:#000000;stroke-width:0.8;" x="54.11" xlink:href="#mf20f6bb712" y="285.758182"/>
      </g>
     </g>
     <g id="text_19">
      <!-- 0.25 -->
      <g transform="translate(24.844375 289.557401)scale(0.1 -0.1)">
       <use xlink:href="#DejaVuSans-30"/>
       <use x="63.623047" xlink:href="#DejaVuSans-2e"/>
       <use x="95.410156" xlink:href="#DejaVuSans-32"/>
       <use x="159.033203" xlink:href="#DejaVuSans-35"/>
      </g>
     </g>
    </g>
    <g id="ytick_3">
     <g id="line2d_37">
      <path clip-path="url(#pccffaf0b48)" d="M 54.11 252.476364 
L 356.1975 252.476364 
" style="fill:none;stroke:#000000;stroke-dasharray:0.8,1.32;stroke-dashoffset:0;stroke-opacity:0.5;stroke-width:0.8;"/>
     </g>
     <g id="line2d_38">
      <g>
       <use style="stroke:#000000;stroke-width:0.8;" x="54.11" xlink:href="#mf20f6bb712" y="252.476364"/>
      </g>
     </g>
     <g id="text_20">
      <!-- 0.50 -->
      <g transform="translate(24.844375 256.275582)scale(0.1 -0.1)">
       <use xlink:href="#DejaVuSans-30"/>
       <use x="63.623047" xlink:href="#DejaVuSans-2e"/>
       <use x="95.410156" xlink:href="#DejaVuSans-35"/>
       <use x="159.033203" xlink:href="#DejaVuSans-30"/>
      </g>
     </g>
    </g>
    <g id="ytick_4">
     <g id="line2d_39">
      <path clip-path="url(#pccffaf0b48)" d="M 54.11 219.194545 
L 356.1975 219.194545 
" style="fill:none;stroke:#000000;stroke-dasharray:0.8,1.32;stroke-dashoffset:0;stroke-opacity:0.5;stroke-width:0.8;"/>
     </g>
     <g id="line2d_40">
      <g>
       <use style="stroke:#000000;stroke-width:0.8;" x="54.11" xlink:href="#mf20f6bb712" y="219.194545"/>
      </g>
     </g>
     <g id="text_21">
      <!-- 0.75 -->
      <g transform="translate(24.844375 222.993764)scale(0.1 -0.1)">
       <defs>
        <path d="M 525 4666 
L 3525 4666 
L 3525 4397 
L 1831 0 
L 1172 0 
L 2766 4134 
L 525 4134 
L 525 4666 
z
" id="DejaVuSans-37" transform="scale(0.015625)"/>
       </defs>
       <use xlink:href="#DejaVuSans-30"/>
       <use x="63.623047" xlink:href="#DejaVuSans-2e"/>
       <use x="95.410156" xlink:href="#DejaVuSans-37"/>
       <use x="159.033203" xlink:href="#DejaVuSans-35"/>
      </g>
     </g>
    </g>
    <g id="ytick_5">
     <g id="line2d_41">
      <path clip-path="url(#pccffaf0b48)" d="M 54.11 185.912727 
L 356.1975 185.912727 
" style="fill:none;stroke:#000000;stroke-dasharray:0.8,1.32;stroke-dashoffset:0;stroke-opacity:0.5;stroke-width:0.8;"/>
     </g>
     <g id="line2d_42">
      <g>
       <use style="stroke:#000000;stroke-width:0.8;" x="54.11" xlink:href="#mf20f6bb712" y="185.912727"/>
      </g>
     </g>
     <g id="text_22">
      <!-- 1.00 -->
      <g transform="translate(24.844375 189.711946)scale(0.1 -0.1)">
       <use xlink:href="#DejaVuSans-31"/>
       <use x="63.623047" xlink:href="#DejaVuSans-2e"/>
       <use x="95.410156" xlink:href="#DejaVuSans-30"/>
       <use x="159.033203" xlink:href="#DejaVuSans-30"/>
      </g>
     </g>
    </g>
    <g id="ytick_6">
     <g id="line2d_43">
      <path clip-path="url(#pccffaf0b48)" d="M 54.11 152.630909 
L 356.1975 152.630909 
" style="fill:none;stroke:#000000;stroke-dasharray:0.8,1.32;stroke-dashoffset:0;stroke-opacity:0.5;stroke-width:0.8;"/>
     </g>
     <g id="line2d_44">
      <g>
       <use style="stroke:#000000;stroke-width:0.8;" x="54.11" xlink:href="#mf20f6bb712" y="152.630909"/>
      </g>
     </g>
     <g id="text_23">
      <!-- 1.25 -->
      <g transform="translate(24.844375 156.430128)scale(0.1 -0.1)">
       <use xlink:href="#DejaVuSans-31"/>
       <use x="63.623047" xlink:href="#DejaVuSans-2e"/>
       <use x="95.410156" xlink:href="#DejaVuSans-32"/>
       <use x="159.033203" xlink:href="#DejaVuSans-35"/>
      </g>
     </g>
    </g>
    <g id="ytick_7">
     <g id="line2d_45">
      <path clip-path="url(#pccffaf0b48)" d="M 54.11 119.349091 
L 356.1975 119.349091 
" style="fill:none;stroke:#000000;stroke-dasharray:0.8,1.32;stroke-dashoffset:0;stroke-opacity:0.5;stroke-width:0.8;"/>
     </g>
     <g id="line2d_46">
      <g>
       <use style="stroke:#000000;stroke-width:0.8;" x="54.11" xlink:href="#mf20f6bb712" y="119.349091"/>
      </g>
     </g>
     <g id="text_24">
      <!-- 1.50 -->
      <g transform="translate(24.844375 123.14831)scale(0.1 -0.1)">
       <use xlink:href="#DejaVuSans-31"/>
       <use x="63.623047" xlink:href="#DejaVuSans-2e"/>
       <use x="95.410156" xlink:href="#DejaVuSans-35"/>
       <use x="159.033203" xlink:href="#DejaVuSans-30"/>
      </g>
     </g>
    </g>
    <g id="ytick_8">
     <g id="line2d_47">
      <path clip-path="url(#pccffaf0b48)" d="M 54.11 86.067273 
L 356.1975 86.067273 
" style="fill:none;stroke:#000000;stroke-dasharray:0.8,1.32;stroke-dashoffset:0;stroke-opacity:0.5;stroke-width:0.8;"/>
     </g>
     <g id="line2d_48">
      <g>
       <use style="stroke:#000000;stroke-width:0.8;" x="54.11" xlink:href="#mf20f6bb712" y="86.067273"/>
      </g>
     </g>
     <g id="text_25">
      <!-- 1.75 -->
      <g transform="translate(24.844375 89.866491)scale(0.1 -0.1)">
       <use xlink:href="#DejaVuSans-31"/>
       <use x="63.623047" xlink:href="#DejaVuSans-2e"/>
       <use x="95.410156" xlink:href="#DejaVuSans-37"/>
       <use x="159.033203" xlink:href="#DejaVuSans-35"/>
      </g>
     </g>
    </g>
    <g id="ytick_9">
     <g id="line2d_49">
      <path clip-path="url(#pccffaf0b48)" d="M 54.11 52.785455 
L 356.1975 52.785455 
" style="fill:none;stroke:#000000;stroke-dasharray:0.8,1.32;stroke-dashoffset:0;stroke-opacity:0.5;stroke-width:0.8;"/>
     </g>
     <g id="line2d_50">
      <g>
       <use style="stroke:#000000;stroke-width:0.8;" x="54.11" xlink:href="#mf20f6bb712" y="52.785455"/>
      </g>
     </g>
     <g id="text_26">
      <!-- 2.00 -->
      <g transform="translate(24.844375 56.584673)scale(0.1 -0.1)">
       <use xlink:href="#DejaVuSans-32"/>
       <use x="63.623047" xlink:href="#DejaVuSans-2e"/>
       <use x="95.410156" xlink:href="#DejaVuSans-30"/>
       <use x="159.033203" xlink:href="#DejaVuSans-30"/>
      </g>
     </g>
    </g>
    <g id="text_27">
     <!-- 7d avg doses per hundred population per day -->
     <g transform="translate(18.764688 287.0875)rotate(-90)scale(0.1 -0.1)">
      <defs>
       <path d="M 2906 2969 
L 2906 4863 
L 3481 4863 
L 3481 0 
L 2906 0 
L 2906 525 
Q 2725 213 2448 61 
Q 2172 -91 1784 -91 
Q 1150 -91 751 415 
Q 353 922 353 1747 
Q 353 2572 751 3078 
Q 1150 3584 1784 3584 
Q 2172 3584 2448 3432 
Q 2725 3281 2906 2969 
z
M 947 1747 
Q 947 1113 1208 752 
Q 1469 391 1925 391 
Q 2381 391 2643 752 
Q 2906 1113 2906 1747 
Q 2906 2381 2643 2742 
Q 2381 3103 1925 3103 
Q 1469 3103 1208 2742 
Q 947 2381 947 1747 
z
" id="DejaVuSans-64" transform="scale(0.015625)"/>
       <path id="DejaVuSans-20" transform="scale(0.015625)"/>
       <path d="M 2834 3397 
L 2834 2853 
Q 2591 2978 2328 3040 
Q 2066 3103 1784 3103 
Q 1356 3103 1142 2972 
Q 928 2841 928 2578 
Q 928 2378 1081 2264 
Q 1234 2150 1697 2047 
L 1894 2003 
Q 2506 1872 2764 1633 
Q 3022 1394 3022 966 
Q 3022 478 2636 193 
Q 2250 -91 1575 -91 
Q 1294 -91 989 -36 
Q 684 19 347 128 
L 347 722 
Q 666 556 975 473 
Q 1284 391 1588 391 
Q 1994 391 2212 530 
Q 2431 669 2431 922 
Q 2431 1156 2273 1281 
Q 2116 1406 1581 1522 
L 1381 1569 
Q 847 1681 609 1914 
Q 372 2147 372 2553 
Q 372 3047 722 3315 
Q 1072 3584 1716 3584 
Q 2034 3584 2315 3537 
Q 2597 3491 2834 3397 
z
" id="DejaVuSans-73" transform="scale(0.015625)"/>
       <path d="M 2631 2963 
Q 2534 3019 2420 3045 
Q 2306 3072 2169 3072 
Q 1681 3072 1420 2755 
Q 1159 2438 1159 1844 
L 1159 0 
L 581 0 
L 581 3500 
L 1159 3500 
L 1159 2956 
Q 1341 3275 1631 3429 
Q 1922 3584 2338 3584 
Q 2397 3584 2469 3576 
Q 2541 3569 2628 3553 
L 2631 2963 
z
" id="DejaVuSans-72" transform="scale(0.015625)"/>
       <path d="M 3513 2113 
L 3513 0 
L 2938 0 
L 2938 2094 
Q 2938 2591 2744 2837 
Q 2550 3084 2163 3084 
Q 1697 3084 1428 2787 
Q 1159 2491 1159 1978 
L 1159 0 
L 581 0 
L 581 4863 
L 1159 4863 
L 1159 2956 
Q 1366 3272 1645 3428 
Q 1925 3584 2291 3584 
Q 2894 3584 3203 3211 
Q 3513 2838 3513 2113 
z
" id="DejaVuSans-68" transform="scale(0.015625)"/>
       <path d="M 603 3500 
L 1178 3500 
L 1178 0 
L 603 0 
L 603 3500 
z
M 603 4863 
L 1178 4863 
L 1178 4134 
L 603 4134 
L 603 4863 
z
" id="DejaVuSans-69" transform="scale(0.015625)"/>
      </defs>
      <use xlink:href="#DejaVuSans-37"/>
      <use x="63.623047" xlink:href="#DejaVuSans-64"/>
      <use x="127.099609" xlink:href="#DejaVuSans-20"/>
      <use x="158.886719" xlink:href="#DejaVuSans-61"/>
      <use x="220.166016" xlink:href="#DejaVuSans-76"/>
      <use x="279.345703" xlink:href="#DejaVuSans-67"/>
      <use x="342.822266" xlink:href="#DejaVuSans-20"/>
      <use x="374.609375" xlink:href="#DejaVuSans-64"/>
      <use x="438.085938" xlink:href="#DejaVuSans-6f"/>
      <use x="499.267578" xlink:href="#DejaVuSans-73"/>
      <use x="551.367188" xlink:href="#DejaVuSans-65"/>
      <use x="612.890625" xlink:href="#DejaVuSans-73"/>
      <use x="664.990234" xlink:href="#DejaVuSans-20"/>
      <use x="696.777344" xlink:href="#DejaVuSans-70"/>
      <use x="760.253906" xlink:href="#DejaVuSans-65"/>
      <use x="821.777344" xlink:href="#DejaVuSans-72"/>
      <use x="862.890625" xlink:href="#DejaVuSans-20"/>
      <use x="894.677734" xlink:href="#DejaVuSans-68"/>
      <use x="958.056641" xlink:href="#DejaVuSans-75"/>
      <use x="1021.435547" xlink:href="#DejaVuSans-6e"/>
      <use x="1084.814453" xlink:href="#DejaVuSans-64"/>
      <use x="1148.291016" xlink:href="#DejaVuSans-72"/>
      <use x="1187.154297" xlink:href="#DejaVuSans-65"/>
      <use x="1248.677734" xlink:href="#DejaVuSans-64"/>
      <use x="1312.154297" xlink:href="#DejaVuSans-20"/>
      <use x="1343.941406" xlink:href="#DejaVuSans-70"/>
      <use x="1407.417969" xlink:href="#DejaVuSans-6f"/>
      <use x="1468.599609" xlink:href="#DejaVuSans-70"/>
      <use x="1532.076172" xlink:href="#DejaVuSans-75"/>
      <use x="1595.455078" xlink:href="#DejaVuSans-6c"/>
      <use x="1623.238281" xlink:href="#DejaVuSans-61"/>
      <use x="1684.517578" xlink:href="#DejaVuSans-74"/>
      <use x="1723.726562" xlink:href="#DejaVuSans-69"/>
      <use x="1751.509766" xlink:href="#DejaVuSans-6f"/>
      <use x="1812.691406" xlink:href="#DejaVuSans-6e"/>
      <use x="1876.070312" xlink:href="#DejaVuSans-20"/>
      <use x="1907.857422" xlink:href="#DejaVuSans-70"/>
      <use x="1971.333984" xlink:href="#DejaVuSans-65"/>
      <use x="2032.857422" xlink:href="#DejaVuSans-72"/>
      <use x="2073.970703" xlink:href="#DejaVuSans-20"/>
      <use x="2105.757812" xlink:href="#DejaVuSans-64"/>
      <use x="2169.234375" xlink:href="#DejaVuSans-61"/>
      <use x="2230.513672" xlink:href="#DejaVuSans-79"/>
     </g>
    </g>
   </g>
   <g id="line2d_51">
    <path clip-path="url(#pccffaf0b48)" d="M -1 315.046182 
L -0.364795 315.046182 
L -0.364795 314.475636 
L 0.873268 314.475636 
L 0.873268 314.095273 
L 2.111332 314.095273 
L 2.111332 313.905091 
L 3.349395 313.905091 
L 3.349395 313.714909 
L 4.587459 313.714909 
L 4.587459 313.524727 
L 5.825523 313.524727 
L 5.825523 312.764 
L 7.063586 312.764 
L 7.063586 312.193455 
L 8.30165 312.193455 
L 8.30165 311.432727 
L 9.539713 311.432727 
L 9.539713 311.242545 
L 12.01584 311.242545 
L 12.01584 310.291636 
L 13.253904 310.291636 
L 13.253904 308.960364 
L 14.491967 308.960364 
L 14.491967 307.819273 
L 15.730031 307.819273 
L 15.730031 306.678182 
L 16.968094 306.678182 
L 16.968094 307.629091 
L 19.444221 307.629091 
L 19.444221 307.819273 
L 20.682285 307.819273 
L 20.682285 309.340727 
L 21.920348 309.340727 
L 21.920348 309.721091 
L 23.158412 309.721091 
L 23.158412 309.530909 
L 24.396475 309.530909 
L 24.396475 308.770182 
L 25.634539 308.770182 
L 25.634539 306.678182 
L 26.872602 306.678182 
L 26.872602 305.917455 
L 28.110666 305.917455 
L 28.110666 304.776364 
L 29.34873 304.776364 
L 29.34873 302.113818 
L 30.586793 302.113818 
L 30.586793 300.782545 
L 31.824857 300.782545 
L 31.824857 300.402182 
L 33.06292 300.402182 
L 33.06292 300.212 
L 34.300984 300.212 
L 34.300984 299.451273 
L 35.539047 299.451273 
L 35.539047 298.880727 
L 36.777111 298.880727 
L 36.777111 299.641455 
L 38.015174 299.641455 
L 38.015174 299.831636 
L 39.253238 299.831636 
L 39.253238 299.641455 
L 40.491301 299.641455 
L 40.491301 298.880727 
L 41.729365 298.880727 
L 41.729365 298.12 
L 42.967428 298.12 
L 42.967428 297.169091 
L 44.205492 297.169091 
L 44.205492 297.549455 
L 45.443555 297.549455 
L 45.443555 297.359273 
L 46.681619 297.359273 
L 46.681619 299.261091 
L 47.919682 299.261091 
L 47.919682 298.880727 
L 49.157746 298.880727 
L 49.157746 298.500364 
L 50.395809 298.500364 
L 50.395809 297.739636 
L 51.633873 297.739636 
L 51.633873 297.169091 
L 52.871936 297.169091 
L 52.871936 296.788727 
L 54.11 296.788727 
L 54.11 296.218182 
L 55.348064 296.218182 
L 55.348064 292.985091 
L 56.586127 292.985091 
L 56.586127 291.463636 
L 57.824191 291.463636 
L 57.824191 290.132364 
L 59.062254 290.132364 
L 59.062254 289.181455 
L 60.300318 289.181455 
L 60.300318 287.66 
L 61.538381 287.66 
L 61.538381 286.899273 
L 62.776445 286.899273 
L 62.776445 287.089455 
L 64.014508 287.089455 
L 64.014508 286.709091 
L 65.252572 286.709091 
L 65.252572 286.138545 
L 66.490635 286.138545 
L 66.490635 285.758182 
L 67.728699 285.758182 
L 67.728699 285.568 
L 68.966762 285.568 
L 68.966762 285.948364 
L 70.204826 285.948364 
L 70.204826 286.328727 
L 71.442889 286.328727 
L 71.442889 285.948364 
L 72.680953 285.948364 
L 72.680953 286.328727 
L 76.395143 286.328727 
L 76.395143 286.518909 
L 77.633207 286.518909 
L 77.633207 286.709091 
L 78.87127 286.709091 
L 78.87127 285.948364 
L 80.109334 285.948364 
L 80.109334 286.138545 
L 81.347398 286.138545 
L 81.347398 285.377818 
L 82.585461 285.377818 
L 82.585461 284.426909 
L 83.823525 284.426909 
L 83.823525 283.285818 
L 85.061588 283.285818 
L 85.061588 282.525091 
L 86.299652 282.525091 
L 86.299652 280.433091 
L 87.537715 280.433091 
L 87.537715 279.672364 
L 88.775779 279.672364 
L 88.775779 279.292 
L 90.013842 279.292 
L 90.013842 278.531273 
L 91.251906 278.531273 
L 91.251906 277.580364 
L 92.489969 277.580364 
L 92.489969 276.629455 
L 93.728033 276.629455 
L 93.728033 274.157091 
L 94.966096 274.157091 
L 94.966096 274.347273 
L 96.20416 274.347273 
L 96.20416 274.727636 
L 97.442223 274.727636 
L 97.442223 274.537455 
L 98.680287 274.537455 
L 98.680287 278.150909 
L 99.91835 278.150909 
L 99.91835 277.390182 
L 101.156414 277.390182 
L 101.156414 281.193818 
L 102.394477 281.193818 
L 102.394477 281.003636 
L 103.632541 281.003636 
L 103.632541 280.623273 
L 104.870605 280.623273 
L 104.870605 279.672364 
L 106.108668 279.672364 
L 106.108668 278.911636 
L 107.346732 278.911636 
L 107.346732 273.966909 
L 108.584795 273.966909 
L 108.584795 273.776727 
L 109.822859 273.776727 
L 109.822859 268.641818 
L 111.060922 268.641818 
L 111.060922 268.832 
L 112.298986 268.832 
L 112.298986 269.022182 
L 113.537049 269.022182 
L 113.537049 268.832 
L 116.013176 268.832 
L 116.013176 269.022182 
L 117.25124 269.022182 
L 117.25124 268.832 
L 118.489303 268.832 
L 118.489303 268.641818 
L 119.727367 268.641818 
L 119.727367 268.071273 
L 120.96543 268.071273 
L 120.96543 267.881091 
L 122.203494 267.881091 
L 122.203494 266.930182 
L 124.679621 266.930182 
L 124.679621 267.500727 
L 125.917684 267.500727 
L 125.917684 268.071273 
L 127.155748 268.071273 
L 127.155748 268.832 
L 128.393811 268.832 
L 128.393811 269.592727 
L 129.631875 269.592727 
L 129.631875 270.163273 
L 130.869939 270.163273 
L 130.869939 270.924 
L 132.108002 270.924 
L 132.108002 271.304364 
L 134.584129 271.304364 
L 134.584129 271.494545 
L 137.060256 271.494545 
L 137.060256 270.733818 
L 138.29832 270.733818 
L 138.29832 270.163273 
L 139.536383 270.163273 
L 139.536383 268.832 
L 140.774447 268.832 
L 140.774447 268.451636 
L 142.01251 268.451636 
L 142.01251 267.690909 
L 143.250574 267.690909 
L 143.250574 267.120364 
L 144.488637 267.120364 
L 144.488637 266.359636 
L 145.726701 266.359636 
L 145.726701 266.74 
L 146.964764 266.74 
L 146.964764 266.549818 
L 148.202828 266.549818 
L 148.202828 266.359636 
L 149.440891 266.359636 
L 149.440891 265.789091 
L 150.678955 265.789091 
L 150.678955 264.077455 
L 151.917018 264.077455 
L 151.917018 260.844364 
L 153.155082 260.844364 
L 153.155082 257.230909 
L 154.393145 257.230909 
L 154.393145 253.997818 
L 155.631209 253.997818 
L 155.631209 250.384364 
L 156.869273 250.384364 
L 156.869273 247.151273 
L 158.107336 247.151273 
L 158.107336 245.059273 
L 159.3454 245.059273 
L 159.3454 241.826182 
L 160.583463 241.826182 
L 160.583463 238.593091 
L 161.821527 238.593091 
L 161.821527 235.740364 
L 163.05959 235.740364 
L 163.05959 232.507273 
L 164.297654 232.507273 
L 164.297654 228.323273 
L 165.535717 228.323273 
L 165.535717 222.808 
L 166.773781 222.808 
L 166.773781 219.574909 
L 168.011844 219.574909 
L 168.011844 217.863273 
L 169.249908 217.863273 
L 169.249908 216.341818 
L 170.487971 216.341818 
L 170.487971 214.630182 
L 171.726035 214.630182 
L 171.726035 214.059636 
L 172.964098 214.059636 
L 172.964098 213.869455 
L 174.202162 213.869455 
L 174.202162 214.820364 
L 175.440225 214.820364 
L 175.440225 215.581091 
L 176.678289 215.581091 
L 176.678289 214.059636 
L 177.916352 214.059636 
L 177.916352 212.538182 
L 179.154416 212.538182 
L 179.154416 211.206909 
L 180.39248 211.206909 
L 180.39248 208.354182 
L 181.630543 208.354182 
L 181.630543 206.642545 
L 182.868607 206.642545 
L 182.868607 203.789818 
L 184.10667 203.789818 
L 184.10667 201.888 
L 185.344734 201.888 
L 185.344734 198.845091 
L 186.582797 198.845091 
L 186.582797 195.231636 
L 187.820861 195.231636 
L 187.820861 214.249818 
L 189.058924 214.249818 
L 189.058924 221.666909 
L 190.296988 221.666909 
L 190.296988 217.292727 
L 191.535051 217.292727 
L 191.535051 213.869455 
L 192.773115 213.869455 
L 192.773115 209.685455 
L 194.011178 209.685455 
L 194.011178 203.029091 
L 195.249242 203.029091 
L 195.249242 193.52 
L 196.487305 193.52 
L 196.487305 193.52 
" style="fill:none;stroke:#1f77b4;stroke-linecap:square;stroke-width:1.5;"/>
   </g>
   <g id="line2d_52">
    <path clip-path="url(#pccffaf0b48)" d="M 196.487305 185.912727 
L 205.15375 185.912727 
L 205.15375 159.287273 
L 242.295656 159.287273 
L 242.295656 132.661818 
L 299.246578 132.661818 
L 299.246578 319.04 
L 444.10001 319.04 
L 444.10001 319.04 
" style="fill:none;stroke:#ff7f0e;stroke-linecap:square;stroke-width:1.5;"/>
   </g>
   <g id="patch_3">
    <path d="M 54.11 319.04 
L 54.11 26.16 
" style="fill:none;stroke:#000000;stroke-linecap:square;stroke-linejoin:miter;stroke-width:0.8;"/>
   </g>
   <g id="patch_4">
    <path d="M 356.1975 319.04 
L 356.1975 26.16 
" style="fill:none;stroke:#000000;stroke-linecap:square;stroke-linejoin:miter;stroke-width:0.8;"/>
   </g>
   <g id="patch_5">
    <path d="M 54.11 319.04 
L 356.1975 319.04 
" style="fill:none;stroke:#000000;stroke-linecap:square;stroke-linejoin:miter;stroke-width:0.8;"/>
   </g>
   <g id="patch_6">
    <path d="M 54.11 26.16 
L 356.1975 26.16 
" style="fill:none;stroke:#000000;stroke-linecap:square;stroke-linejoin:miter;stroke-width:0.8;"/>
   </g>
   <g id="text_28">
    <!-- NZ daily vaccinations per capita -->
    <g transform="translate(108.517187 20.16)scale(0.12 -0.12)">
     <defs>
      <path d="M 359 4666 
L 4025 4666 
L 4025 4184 
L 1075 531 
L 4097 531 
L 4097 0 
L 288 0 
L 288 481 
L 3238 4134 
L 359 4134 
L 359 4666 
z
" id="DejaVuSans-5a" transform="scale(0.015625)"/>
     </defs>
     <use xlink:href="#DejaVuSans-4e"/>
     <use x="74.804688" xlink:href="#DejaVuSans-5a"/>
     <use x="143.310547" xlink:href="#DejaVuSans-20"/>
     <use x="175.097656" xlink:href="#DejaVuSans-64"/>
     <use x="238.574219" xlink:href="#DejaVuSans-61"/>
     <use x="299.853516" xlink:href="#DejaVuSans-69"/>
     <use x="327.636719" xlink:href="#DejaVuSans-6c"/>
     <use x="355.419922" xlink:href="#DejaVuSans-79"/>
     <use x="414.599609" xlink:href="#DejaVuSans-20"/>
     <use x="446.386719" xlink:href="#DejaVuSans-76"/>
     <use x="505.566406" xlink:href="#DejaVuSans-61"/>
     <use x="566.845703" xlink:href="#DejaVuSans-63"/>
     <use x="621.826172" xlink:href="#DejaVuSans-63"/>
     <use x="676.806641" xlink:href="#DejaVuSans-69"/>
     <use x="704.589844" xlink:href="#DejaVuSans-6e"/>
     <use x="767.96875" xlink:href="#DejaVuSans-61"/>
     <use x="829.248047" xlink:href="#DejaVuSans-74"/>
     <use x="868.457031" xlink:href="#DejaVuSans-69"/>
     <use x="896.240234" xlink:href="#DejaVuSans-6f"/>
     <use x="957.421875" xlink:href="#DejaVuSans-6e"/>
     <use x="1020.800781" xlink:href="#DejaVuSans-73"/>
     <use x="1072.900391" xlink:href="#DejaVuSans-20"/>
     <use x="1104.6875" xlink:href="#DejaVuSans-70"/>
     <use x="1168.164062" xlink:href="#DejaVuSans-65"/>
     <use x="1229.6875" xlink:href="#DejaVuSans-72"/>
     <use x="1270.800781" xlink:href="#DejaVuSans-20"/>
     <use x="1302.587891" xlink:href="#DejaVuSans-63"/>
     <use x="1357.568359" xlink:href="#DejaVuSans-61"/>
     <use x="1418.847656" xlink:href="#DejaVuSans-70"/>
     <use x="1482.324219" xlink:href="#DejaVuSans-69"/>
     <use x="1510.107422" xlink:href="#DejaVuSans-74"/>
     <use x="1549.316406" xlink:href="#DejaVuSans-61"/>
    </g>
   </g>
   <g id="legend_1">
    <g id="patch_7">
     <path d="M 201.314687 63.51625 
L 349.1975 63.51625 
Q 351.1975 63.51625 351.1975 61.51625 
L 351.1975 33.16 
Q 351.1975 31.16 349.1975 31.16 
L 201.314687 31.16 
Q 199.314687 31.16 199.314687 33.16 
L 199.314687 61.51625 
Q 199.314687 63.51625 201.314687 63.51625 
z
" style="fill:#ffffff;opacity:0.8;stroke:#cccccc;stroke-linejoin:miter;"/>
    </g>
    <g id="line2d_53">
     <path d="M 203.314687 39.258437 
L 223.314687 39.258437 
" style="fill:none;stroke:#1f77b4;stroke-linecap:square;stroke-width:1.5;"/>
    </g>
    <g id="line2d_54"/>
    <g id="text_29">
     <!-- Actual -->
     <g transform="translate(231.314687 42.758437)scale(0.1 -0.1)">
      <use xlink:href="#DejaVuSans-41"/>
      <use x="66.658203" xlink:href="#DejaVuSans-63"/>
      <use x="121.638672" xlink:href="#DejaVuSans-74"/>
      <use x="160.847656" xlink:href="#DejaVuSans-75"/>
      <use x="224.226562" xlink:href="#DejaVuSans-61"/>
      <use x="285.505859" xlink:href="#DejaVuSans-6c"/>
     </g>
    </g>
    <g id="line2d_55">
     <path d="M 203.314687 53.936562 
L 223.314687 53.936562 
" style="fill:none;stroke:#ff7f0e;stroke-linecap:square;stroke-width:1.5;"/>
    </g>
    <g id="line2d_56"/>
    <g id="text_30">
     <!-- Assumed for projection -->
     <g transform="translate(231.314687 57.436562)scale(0.1 -0.1)">
      <defs>
       <path d="M 3328 2828 
Q 3544 3216 3844 3400 
Q 4144 3584 4550 3584 
Q 5097 3584 5394 3201 
Q 5691 2819 5691 2113 
L 5691 0 
L 5113 0 
L 5113 2094 
Q 5113 2597 4934 2840 
Q 4756 3084 4391 3084 
Q 3944 3084 3684 2787 
Q 3425 2491 3425 1978 
L 3425 0 
L 2847 0 
L 2847 2094 
Q 2847 2600 2669 2842 
Q 2491 3084 2119 3084 
Q 1678 3084 1418 2786 
Q 1159 2488 1159 1978 
L 1159 0 
L 581 0 
L 581 3500 
L 1159 3500 
L 1159 2956 
Q 1356 3278 1631 3431 
Q 1906 3584 2284 3584 
Q 2666 3584 2933 3390 
Q 3200 3197 3328 2828 
z
" id="DejaVuSans-6d" transform="scale(0.015625)"/>
       <path d="M 2375 4863 
L 2375 4384 
L 1825 4384 
Q 1516 4384 1395 4259 
Q 1275 4134 1275 3809 
L 1275 3500 
L 2222 3500 
L 2222 3053 
L 1275 3053 
L 1275 0 
L 697 0 
L 697 3053 
L 147 3053 
L 147 3500 
L 697 3500 
L 697 3744 
Q 697 4328 969 4595 
Q 1241 4863 1831 4863 
L 2375 4863 
z
" id="DejaVuSans-66" transform="scale(0.015625)"/>
       <path d="M 603 3500 
L 1178 3500 
L 1178 -63 
Q 1178 -731 923 -1031 
Q 669 -1331 103 -1331 
L -116 -1331 
L -116 -844 
L 38 -844 
Q 366 -844 484 -692 
Q 603 -541 603 -63 
L 603 3500 
z
M 603 4863 
L 1178 4863 
L 1178 4134 
L 603 4134 
L 603 4863 
z
" id="DejaVuSans-6a" transform="scale(0.015625)"/>
      </defs>
      <use xlink:href="#DejaVuSans-41"/>
      <use x="68.408203" xlink:href="#DejaVuSans-73"/>
      <use x="120.507812" xlink:href="#DejaVuSans-73"/>
      <use x="172.607422" xlink:href="#DejaVuSans-75"/>
      <use x="235.986328" xlink:href="#DejaVuSans-6d"/>
      <use x="333.398438" xlink:href="#DejaVuSans-65"/>
      <use x="394.921875" xlink:href="#DejaVuSans-64"/>
      <use x="458.398438" xlink:href="#DejaVuSans-20"/>
      <use x="490.185547" xlink:href="#DejaVuSans-66"/>
      <use x="525.390625" xlink:href="#DejaVuSans-6f"/>
      <use x="586.572266" xlink:href="#DejaVuSans-72"/>
      <use x="627.685547" xlink:href="#DejaVuSans-20"/>
      <use x="659.472656" xlink:href="#DejaVuSans-70"/>
      <use x="722.949219" xlink:href="#DejaVuSans-72"/>
      <use x="761.8125" xlink:href="#DejaVuSans-6f"/>
      <use x="822.994141" xlink:href="#DejaVuSans-6a"/>
      <use x="850.777344" xlink:href="#DejaVuSans-65"/>
      <use x="912.300781" xlink:href="#DejaVuSans-63"/>
      <use x="967.28125" xlink:href="#DejaVuSans-74"/>
      <use x="1006.490234" xlink:href="#DejaVuSans-69"/>
      <use x="1034.273438" xlink:href="#DejaVuSans-6f"/>
      <use x="1095.455078" xlink:href="#DejaVuSans-6e"/>
     </g>
    </g>
   </g>
  </g>
  <g id="axes_2">
   <g id="patch_8">
    <path d="M 407.1125 319.04 
L 709.2 319.04 
L 709.2 26.16 
L 407.1125 26.16 
z
" style="fill:#ffffff;"/>
   </g>
   <g id="matplotlib.axis_3">
    <g id="xtick_17">
     <g id="line2d_57">
      <path clip-path="url(#pb7c25ce837)" d="M 407.1125 319.04 
L 407.1125 26.16 
" style="fill:none;stroke:#000000;stroke-dasharray:0.8,1.32;stroke-dashoffset:0;stroke-opacity:0.5;stroke-width:0.8;"/>
     </g>
     <g id="line2d_58">
      <g>
       <use style="stroke:#000000;stroke-width:0.8;" x="407.1125" xlink:href="#m2c292995a8" y="319.04"/>
      </g>
     </g>
     <g id="text_31">
      <!-- May -->
      <g transform="translate(396.775 333.638438)scale(0.1 -0.1)">
       <use xlink:href="#DejaVuSans-4d"/>
       <use x="86.279297" xlink:href="#DejaVuSans-61"/>
       <use x="147.558594" xlink:href="#DejaVuSans-79"/>
      </g>
     </g>
    </g>
    <g id="xtick_18">
     <g id="line2d_59">
      <path clip-path="url(#pb7c25ce837)" d="M 424.445389 319.04 
L 424.445389 26.16 
" style="fill:none;stroke:#000000;stroke-dasharray:0.8,1.32;stroke-dashoffset:0;stroke-opacity:0.5;stroke-width:0.8;"/>
     </g>
     <g id="line2d_60">
      <g>
       <use style="stroke:#000000;stroke-width:0.8;" x="424.445389" xlink:href="#m2c292995a8" y="319.04"/>
      </g>
     </g>
     <g id="text_32">
      <!-- 15 -->
      <g transform="translate(418.082889 333.638438)scale(0.1 -0.1)">
       <use xlink:href="#DejaVuSans-31"/>
       <use x="63.623047" xlink:href="#DejaVuSans-35"/>
      </g>
     </g>
    </g>
    <g id="xtick_19">
     <g id="line2d_61">
      <path clip-path="url(#pb7c25ce837)" d="M 445.492469 319.04 
L 445.492469 26.16 
" style="fill:none;stroke:#000000;stroke-dasharray:0.8,1.32;stroke-dashoffset:0;stroke-opacity:0.5;stroke-width:0.8;"/>
     </g>
     <g id="line2d_62">
      <g>
       <use style="stroke:#000000;stroke-width:0.8;" x="445.492469" xlink:href="#m2c292995a8" y="319.04"/>
      </g>
     </g>
     <g id="text_33">
      <!-- Jun -->
      <g transform="translate(437.679969 333.638438)scale(0.1 -0.1)">
       <use xlink:href="#DejaVuSans-4a"/>
       <use x="29.492188" xlink:href="#DejaVuSans-75"/>
       <use x="92.871094" xlink:href="#DejaVuSans-6e"/>
      </g>
     </g>
    </g>
    <g id="xtick_20">
     <g id="line2d_63">
      <path clip-path="url(#pb7c25ce837)" d="M 462.825359 319.04 
L 462.825359 26.16 
" style="fill:none;stroke:#000000;stroke-dasharray:0.8,1.32;stroke-dashoffset:0;stroke-opacity:0.5;stroke-width:0.8;"/>
     </g>
     <g id="line2d_64">
      <g>
       <use style="stroke:#000000;stroke-width:0.8;" x="462.825359" xlink:href="#m2c292995a8" y="319.04"/>
      </g>
     </g>
     <g id="text_34">
      <!-- 15 -->
      <g transform="translate(456.462859 333.638438)scale(0.1 -0.1)">
       <use xlink:href="#DejaVuSans-31"/>
       <use x="63.623047" xlink:href="#DejaVuSans-35"/>
      </g>
     </g>
    </g>
    <g id="xtick_21">
     <g id="line2d_65">
      <path clip-path="url(#pb7c25ce837)" d="M 482.634375 319.04 
L 482.634375 26.16 
" style="fill:none;stroke:#000000;stroke-dasharray:0.8,1.32;stroke-dashoffset:0;stroke-opacity:0.5;stroke-width:0.8;"/>
     </g>
     <g id="line2d_66">
      <g>
       <use style="stroke:#000000;stroke-width:0.8;" x="482.634375" xlink:href="#m2c292995a8" y="319.04"/>
      </g>
     </g>
     <g id="text_35">
      <!-- Jul -->
      <g transform="translate(476.601563 333.638438)scale(0.1 -0.1)">
       <use xlink:href="#DejaVuSans-4a"/>
       <use x="29.492188" xlink:href="#DejaVuSans-75"/>
       <use x="92.871094" xlink:href="#DejaVuSans-6c"/>
      </g>
     </g>
    </g>
    <g id="xtick_22">
     <g id="line2d_67">
      <path clip-path="url(#pb7c25ce837)" d="M 499.967264 319.04 
L 499.967264 26.16 
" style="fill:none;stroke:#000000;stroke-dasharray:0.8,1.32;stroke-dashoffset:0;stroke-opacity:0.5;stroke-width:0.8;"/>
     </g>
     <g id="line2d_68">
      <g>
       <use style="stroke:#000000;stroke-width:0.8;" x="499.967264" xlink:href="#m2c292995a8" y="319.04"/>
      </g>
     </g>
     <g id="text_36">
      <!-- 15 -->
      <g transform="translate(493.604764 333.638438)scale(0.1 -0.1)">
       <use xlink:href="#DejaVuSans-31"/>
       <use x="63.623047" xlink:href="#DejaVuSans-35"/>
      </g>
     </g>
    </g>
    <g id="xtick_23">
     <g id="line2d_69">
      <path clip-path="url(#pb7c25ce837)" d="M 521.014344 319.04 
L 521.014344 26.16 
" style="fill:none;stroke:#000000;stroke-dasharray:0.8,1.32;stroke-dashoffset:0;stroke-opacity:0.5;stroke-width:0.8;"/>
     </g>
     <g id="line2d_70">
      <g>
       <use style="stroke:#000000;stroke-width:0.8;" x="521.014344" xlink:href="#m2c292995a8" y="319.04"/>
      </g>
     </g>
     <g id="text_37">
      <!-- Aug -->
      <g transform="translate(511.251063 333.638438)scale(0.1 -0.1)">
       <use xlink:href="#DejaVuSans-41"/>
       <use x="68.408203" xlink:href="#DejaVuSans-75"/>
       <use x="131.787109" xlink:href="#DejaVuSans-67"/>
      </g>
     </g>
    </g>
    <g id="xtick_24">
     <g id="line2d_71">
      <path clip-path="url(#pb7c25ce837)" d="M 538.347234 319.04 
L 538.347234 26.16 
" style="fill:none;stroke:#000000;stroke-dasharray:0.8,1.32;stroke-dashoffset:0;stroke-opacity:0.5;stroke-width:0.8;"/>
     </g>
     <g id="line2d_72">
      <g>
       <use style="stroke:#000000;stroke-width:0.8;" x="538.347234" xlink:href="#m2c292995a8" y="319.04"/>
      </g>
     </g>
     <g id="text_38">
      <!-- 15 -->
      <g transform="translate(531.984734 333.638438)scale(0.1 -0.1)">
       <use xlink:href="#DejaVuSans-31"/>
       <use x="63.623047" xlink:href="#DejaVuSans-35"/>
      </g>
     </g>
    </g>
    <g id="xtick_25">
     <g id="line2d_73">
      <path clip-path="url(#pb7c25ce837)" d="M 559.394314 319.04 
L 559.394314 26.16 
" style="fill:none;stroke:#000000;stroke-dasharray:0.8,1.32;stroke-dashoffset:0;stroke-opacity:0.5;stroke-width:0.8;"/>
     </g>
     <g id="line2d_74">
      <g>
       <use style="stroke:#000000;stroke-width:0.8;" x="559.394314" xlink:href="#m2c292995a8" y="319.04"/>
      </g>
     </g>
     <g id="text_39">
      <!-- Sep -->
      <g transform="translate(549.969314 333.638438)scale(0.1 -0.1)">
       <use xlink:href="#DejaVuSans-53"/>
       <use x="63.476562" xlink:href="#DejaVuSans-65"/>
       <use x="125" xlink:href="#DejaVuSans-70"/>
      </g>
     </g>
    </g>
    <g id="xtick_26">
     <g id="line2d_75">
      <path clip-path="url(#pb7c25ce837)" d="M 576.727203 319.04 
L 576.727203 26.16 
" style="fill:none;stroke:#000000;stroke-dasharray:0.8,1.32;stroke-dashoffset:0;stroke-opacity:0.5;stroke-width:0.8;"/>
     </g>
     <g id="line2d_76">
      <g>
       <use style="stroke:#000000;stroke-width:0.8;" x="576.727203" xlink:href="#m2c292995a8" y="319.04"/>
      </g>
     </g>
     <g id="text_40">
      <!-- 15 -->
      <g transform="translate(570.364703 333.638438)scale(0.1 -0.1)">
       <use xlink:href="#DejaVuSans-31"/>
       <use x="63.623047" xlink:href="#DejaVuSans-35"/>
      </g>
     </g>
    </g>
    <g id="xtick_27">
     <g id="line2d_77">
      <path clip-path="url(#pb7c25ce837)" d="M 596.536219 319.04 
L 596.536219 26.16 
" style="fill:none;stroke:#000000;stroke-dasharray:0.8,1.32;stroke-dashoffset:0;stroke-opacity:0.5;stroke-width:0.8;"/>
     </g>
     <g id="line2d_78">
      <g>
       <use style="stroke:#000000;stroke-width:0.8;" x="596.536219" xlink:href="#m2c292995a8" y="319.04"/>
      </g>
     </g>
     <g id="text_41">
      <!-- Oct -->
      <g transform="translate(587.890907 333.638438)scale(0.1 -0.1)">
       <use xlink:href="#DejaVuSans-4f"/>
       <use x="78.710938" xlink:href="#DejaVuSans-63"/>
       <use x="133.691406" xlink:href="#DejaVuSans-74"/>
      </g>
     </g>
    </g>
    <g id="xtick_28">
     <g id="line2d_79">
      <path clip-path="url(#pb7c25ce837)" d="M 613.869109 319.04 
L 613.869109 26.16 
" style="fill:none;stroke:#000000;stroke-dasharray:0.8,1.32;stroke-dashoffset:0;stroke-opacity:0.5;stroke-width:0.8;"/>
     </g>
     <g id="line2d_80">
      <g>
       <use style="stroke:#000000;stroke-width:0.8;" x="613.869109" xlink:href="#m2c292995a8" y="319.04"/>
      </g>
     </g>
     <g id="text_42">
      <!-- 15 -->
      <g transform="translate(607.506609 333.638438)scale(0.1 -0.1)">
       <use xlink:href="#DejaVuSans-31"/>
       <use x="63.623047" xlink:href="#DejaVuSans-35"/>
      </g>
     </g>
    </g>
    <g id="xtick_29">
     <g id="line2d_81">
      <path clip-path="url(#pb7c25ce837)" d="M 634.916189 319.04 
L 634.916189 26.16 
" style="fill:none;stroke:#000000;stroke-dasharray:0.8,1.32;stroke-dashoffset:0;stroke-opacity:0.5;stroke-width:0.8;"/>
     </g>
     <g id="line2d_82">
      <g>
       <use style="stroke:#000000;stroke-width:0.8;" x="634.916189" xlink:href="#m2c292995a8" y="319.04"/>
      </g>
     </g>
     <g id="text_43">
      <!-- Nov -->
      <g transform="translate(625.156814 333.638438)scale(0.1 -0.1)">
       <use xlink:href="#DejaVuSans-4e"/>
       <use x="74.804688" xlink:href="#DejaVuSans-6f"/>
       <use x="135.986328" xlink:href="#DejaVuSans-76"/>
      </g>
     </g>
    </g>
    <g id="xtick_30">
     <g id="line2d_83">
      <path clip-path="url(#pb7c25ce837)" d="M 652.249078 319.04 
L 652.249078 26.16 
" style="fill:none;stroke:#000000;stroke-dasharray:0.8,1.32;stroke-dashoffset:0;stroke-opacity:0.5;stroke-width:0.8;"/>
     </g>
     <g id="line2d_84">
      <g>
       <use style="stroke:#000000;stroke-width:0.8;" x="652.249078" xlink:href="#m2c292995a8" y="319.04"/>
      </g>
     </g>
     <g id="text_44">
      <!-- 15 -->
      <g transform="translate(645.886578 333.638438)scale(0.1 -0.1)">
       <use xlink:href="#DejaVuSans-31"/>
       <use x="63.623047" xlink:href="#DejaVuSans-35"/>
      </g>
     </g>
    </g>
    <g id="xtick_31">
     <g id="line2d_85">
      <path clip-path="url(#pb7c25ce837)" d="M 672.058094 319.04 
L 672.058094 26.16 
" style="fill:none;stroke:#000000;stroke-dasharray:0.8,1.32;stroke-dashoffset:0;stroke-opacity:0.5;stroke-width:0.8;"/>
     </g>
     <g id="line2d_86">
      <g>
       <use style="stroke:#000000;stroke-width:0.8;" x="672.058094" xlink:href="#m2c292995a8" y="319.04"/>
      </g>
     </g>
     <g id="text_45">
      <!-- Dec -->
      <g transform="translate(662.382313 333.638438)scale(0.1 -0.1)">
       <use xlink:href="#DejaVuSans-44"/>
       <use x="77.001953" xlink:href="#DejaVuSans-65"/>
       <use x="138.525391" xlink:href="#DejaVuSans-63"/>
      </g>
     </g>
    </g>
    <g id="xtick_32">
     <g id="line2d_87">
      <path clip-path="url(#pb7c25ce837)" d="M 689.390984 319.04 
L 689.390984 26.16 
" style="fill:none;stroke:#000000;stroke-dasharray:0.8,1.32;stroke-dashoffset:0;stroke-opacity:0.5;stroke-width:0.8;"/>
     </g>
     <g id="line2d_88">
      <g>
       <use style="stroke:#000000;stroke-width:0.8;" x="689.390984" xlink:href="#m2c292995a8" y="319.04"/>
      </g>
     </g>
     <g id="text_46">
      <!-- 15 -->
      <g transform="translate(683.028484 333.638438)scale(0.1 -0.1)">
       <use xlink:href="#DejaVuSans-31"/>
       <use x="63.623047" xlink:href="#DejaVuSans-35"/>
      </g>
     </g>
    </g>
    <g id="text_47">
     <!-- 2021-Dec -->
     <g transform="translate(660.790625 346.316563)scale(0.1 -0.1)">
      <use xlink:href="#DejaVuSans-32"/>
      <use x="63.623047" xlink:href="#DejaVuSans-30"/>
      <use x="127.246094" xlink:href="#DejaVuSans-32"/>
      <use x="190.869141" xlink:href="#DejaVuSans-31"/>
      <use x="254.492188" xlink:href="#DejaVuSans-2d"/>
      <use x="290.576172" xlink:href="#DejaVuSans-44"/>
      <use x="367.578125" xlink:href="#DejaVuSans-65"/>
      <use x="429.101562" xlink:href="#DejaVuSans-63"/>
     </g>
    </g>
   </g>
   <g id="matplotlib.axis_4">
    <g id="ytick_10">
     <g id="line2d_89">
      <path clip-path="url(#pb7c25ce837)" d="M 407.1125 319.04 
L 709.2 319.04 
" style="fill:none;stroke:#000000;stroke-dasharray:0.8,1.32;stroke-dashoffset:0;stroke-opacity:0.5;stroke-width:0.8;"/>
     </g>
     <g id="line2d_90">
      <g>
       <use style="stroke:#000000;stroke-width:0.8;" x="407.1125" xlink:href="#mf20f6bb712" y="319.04"/>
      </g>
     </g>
     <g id="text_48">
      <!-- 0 -->
      <g transform="translate(393.75 322.839219)scale(0.1 -0.1)">
       <use xlink:href="#DejaVuSans-30"/>
      </g>
     </g>
    </g>
    <g id="ytick_11">
     <g id="line2d_91">
      <path clip-path="url(#pb7c25ce837)" d="M 407.1125 282.43 
L 709.2 282.43 
" style="fill:none;stroke:#000000;stroke-dasharray:0.8,1.32;stroke-dashoffset:0;stroke-opacity:0.5;stroke-width:0.8;"/>
     </g>
     <g id="line2d_92">
      <g>
       <use style="stroke:#000000;stroke-width:0.8;" x="407.1125" xlink:href="#mf20f6bb712" y="282.43"/>
      </g>
     </g>
     <g id="text_49">
      <!-- 25 -->
      <g transform="translate(387.3875 286.229219)scale(0.1 -0.1)">
       <use xlink:href="#DejaVuSans-32"/>
       <use x="63.623047" xlink:href="#DejaVuSans-35"/>
      </g>
     </g>
    </g>
    <g id="ytick_12">
     <g id="line2d_93">
      <path clip-path="url(#pb7c25ce837)" d="M 407.1125 245.82 
L 709.2 245.82 
" style="fill:none;stroke:#000000;stroke-dasharray:0.8,1.32;stroke-dashoffset:0;stroke-opacity:0.5;stroke-width:0.8;"/>
     </g>
     <g id="line2d_94">
      <g>
       <use style="stroke:#000000;stroke-width:0.8;" x="407.1125" xlink:href="#mf20f6bb712" y="245.82"/>
      </g>
     </g>
     <g id="text_50">
      <!-- 50 -->
      <g transform="translate(387.3875 249.619219)scale(0.1 -0.1)">
       <use xlink:href="#DejaVuSans-35"/>
       <use x="63.623047" xlink:href="#DejaVuSans-30"/>
      </g>
     </g>
    </g>
    <g id="ytick_13">
     <g id="line2d_95">
      <path clip-path="url(#pb7c25ce837)" d="M 407.1125 209.21 
L 709.2 209.21 
" style="fill:none;stroke:#000000;stroke-dasharray:0.8,1.32;stroke-dashoffset:0;stroke-opacity:0.5;stroke-width:0.8;"/>
     </g>
     <g id="line2d_96">
      <g>
       <use style="stroke:#000000;stroke-width:0.8;" x="407.1125" xlink:href="#mf20f6bb712" y="209.21"/>
      </g>
     </g>
     <g id="text_51">
      <!-- 75 -->
      <g transform="translate(387.3875 213.009219)scale(0.1 -0.1)">
       <use xlink:href="#DejaVuSans-37"/>
       <use x="63.623047" xlink:href="#DejaVuSans-35"/>
      </g>
     </g>
    </g>
    <g id="ytick_14">
     <g id="line2d_97">
      <path clip-path="url(#pb7c25ce837)" d="M 407.1125 172.6 
L 709.2 172.6 
" style="fill:none;stroke:#000000;stroke-dasharray:0.8,1.32;stroke-dashoffset:0;stroke-opacity:0.5;stroke-width:0.8;"/>
     </g>
     <g id="line2d_98">
      <g>
       <use style="stroke:#000000;stroke-width:0.8;" x="407.1125" xlink:href="#mf20f6bb712" y="172.6"/>
      </g>
     </g>
     <g id="text_52">
      <!-- 100 -->
      <g transform="translate(381.025 176.399219)scale(0.1 -0.1)">
       <use xlink:href="#DejaVuSans-31"/>
       <use x="63.623047" xlink:href="#DejaVuSans-30"/>
       <use x="127.246094" xlink:href="#DejaVuSans-30"/>
      </g>
     </g>
    </g>
    <g id="ytick_15">
     <g id="line2d_99">
      <path clip-path="url(#pb7c25ce837)" d="M 407.1125 135.99 
L 709.2 135.99 
" style="fill:none;stroke:#000000;stroke-dasharray:0.8,1.32;stroke-dashoffset:0;stroke-opacity:0.5;stroke-width:0.8;"/>
     </g>
     <g id="line2d_100">
      <g>
       <use style="stroke:#000000;stroke-width:0.8;" x="407.1125" xlink:href="#mf20f6bb712" y="135.99"/>
      </g>
     </g>
     <g id="text_53">
      <!-- 125 -->
      <g transform="translate(381.025 139.789219)scale(0.1 -0.1)">
       <use xlink:href="#DejaVuSans-31"/>
       <use x="63.623047" xlink:href="#DejaVuSans-32"/>
       <use x="127.246094" xlink:href="#DejaVuSans-35"/>
      </g>
     </g>
    </g>
    <g id="ytick_16">
     <g id="line2d_101">
      <path clip-path="url(#pb7c25ce837)" d="M 407.1125 99.38 
L 709.2 99.38 
" style="fill:none;stroke:#000000;stroke-dasharray:0.8,1.32;stroke-dashoffset:0;stroke-opacity:0.5;stroke-width:0.8;"/>
     </g>
     <g id="line2d_102">
      <g>
       <use style="stroke:#000000;stroke-width:0.8;" x="407.1125" xlink:href="#mf20f6bb712" y="99.38"/>
      </g>
     </g>
     <g id="text_54">
      <!-- 150 -->
      <g transform="translate(381.025 103.179219)scale(0.1 -0.1)">
       <use xlink:href="#DejaVuSans-31"/>
       <use x="63.623047" xlink:href="#DejaVuSans-35"/>
       <use x="127.246094" xlink:href="#DejaVuSans-30"/>
      </g>
     </g>
    </g>
    <g id="ytick_17">
     <g id="line2d_103">
      <path clip-path="url(#pb7c25ce837)" d="M 407.1125 62.77 
L 709.2 62.77 
" style="fill:none;stroke:#000000;stroke-dasharray:0.8,1.32;stroke-dashoffset:0;stroke-opacity:0.5;stroke-width:0.8;"/>
     </g>
     <g id="line2d_104">
      <g>
       <use style="stroke:#000000;stroke-width:0.8;" x="407.1125" xlink:href="#mf20f6bb712" y="62.77"/>
      </g>
     </g>
     <g id="text_55">
      <!-- 175 -->
      <g transform="translate(381.025 66.569219)scale(0.1 -0.1)">
       <use xlink:href="#DejaVuSans-31"/>
       <use x="63.623047" xlink:href="#DejaVuSans-37"/>
       <use x="127.246094" xlink:href="#DejaVuSans-35"/>
      </g>
     </g>
    </g>
    <g id="ytick_18">
     <g id="line2d_105">
      <path clip-path="url(#pb7c25ce837)" d="M 407.1125 26.16 
L 709.2 26.16 
" style="fill:none;stroke:#000000;stroke-dasharray:0.8,1.32;stroke-dashoffset:0;stroke-opacity:0.5;stroke-width:0.8;"/>
     </g>
     <g id="line2d_106">
      <g>
       <use style="stroke:#000000;stroke-width:0.8;" x="407.1125" xlink:href="#mf20f6bb712" y="26.16"/>
      </g>
     </g>
     <g id="text_56">
      <!-- 200 -->
      <g transform="translate(381.025 29.959219)scale(0.1 -0.1)">
       <use xlink:href="#DejaVuSans-32"/>
       <use x="63.623047" xlink:href="#DejaVuSans-30"/>
       <use x="127.246094" xlink:href="#DejaVuSans-30"/>
      </g>
     </g>
    </g>
    <g id="text_57">
     <!-- cumulative doses per hundred population -->
     <g transform="translate(374.945313 277.058594)rotate(-90)scale(0.1 -0.1)">
      <use xlink:href="#DejaVuSans-63"/>
      <use x="54.980469" xlink:href="#DejaVuSans-75"/>
      <use x="118.359375" xlink:href="#DejaVuSans-6d"/>
      <use x="215.771484" xlink:href="#DejaVuSans-75"/>
      <use x="279.150391" xlink:href="#DejaVuSans-6c"/>
      <use x="306.933594" xlink:href="#DejaVuSans-61"/>
      <use x="368.212891" xlink:href="#DejaVuSans-74"/>
      <use x="407.421875" xlink:href="#DejaVuSans-69"/>
      <use x="435.205078" xlink:href="#DejaVuSans-76"/>
      <use x="494.384766" xlink:href="#DejaVuSans-65"/>
      <use x="555.908203" xlink:href="#DejaVuSans-20"/>
      <use x="587.695312" xlink:href="#DejaVuSans-64"/>
      <use x="651.171875" xlink:href="#DejaVuSans-6f"/>
      <use x="712.353516" xlink:href="#DejaVuSans-73"/>
      <use x="764.453125" xlink:href="#DejaVuSans-65"/>
      <use x="825.976562" xlink:href="#DejaVuSans-73"/>
      <use x="878.076172" xlink:href="#DejaVuSans-20"/>
      <use x="909.863281" xlink:href="#DejaVuSans-70"/>
      <use x="973.339844" xlink:href="#DejaVuSans-65"/>
      <use x="1034.863281" xlink:href="#DejaVuSans-72"/>
      <use x="1075.976562" xlink:href="#DejaVuSans-20"/>
      <use x="1107.763672" xlink:href="#DejaVuSans-68"/>
      <use x="1171.142578" xlink:href="#DejaVuSans-75"/>
      <use x="1234.521484" xlink:href="#DejaVuSans-6e"/>
      <use x="1297.900391" xlink:href="#DejaVuSans-64"/>
      <use x="1361.376953" xlink:href="#DejaVuSans-72"/>
      <use x="1400.240234" xlink:href="#DejaVuSans-65"/>
      <use x="1461.763672" xlink:href="#DejaVuSans-64"/>
      <use x="1525.240234" xlink:href="#DejaVuSans-20"/>
      <use x="1557.027344" xlink:href="#DejaVuSans-70"/>
      <use x="1620.503906" xlink:href="#DejaVuSans-6f"/>
      <use x="1681.685547" xlink:href="#DejaVuSans-70"/>
      <use x="1745.162109" xlink:href="#DejaVuSans-75"/>
      <use x="1808.541016" xlink:href="#DejaVuSans-6c"/>
      <use x="1836.324219" xlink:href="#DejaVuSans-61"/>
      <use x="1897.603516" xlink:href="#DejaVuSans-74"/>
      <use x="1936.8125" xlink:href="#DejaVuSans-69"/>
      <use x="1964.595703" xlink:href="#DejaVuSans-6f"/>
      <use x="2025.777344" xlink:href="#DejaVuSans-6e"/>
     </g>
    </g>
   </g>
   <g id="line2d_107">
    <path clip-path="url(#pb7c25ce837)" d="M 319.20999 319.04 
L 326.638371 318.952136 
L 326.638371 318.908204 
L 330.352561 318.834984 
L 330.352561 318.791052 
L 334.066752 318.688544 
L 334.066752 318.644612 
L 340.25707 318.542104 
L 340.25707 318.498172 
L 343.97126 318.410308 
L 343.97126 318.38102 
L 348.923514 318.278512 
L 348.923514 318.219936 
L 351.399641 318.16136 
L 351.399641 318.102784 
L 353.875768 318.029564 
L 353.875768 317.985632 
L 356.351895 317.9417 
L 356.351895 317.86848 
L 358.828023 317.79526 
L 358.828023 317.678108 
L 361.30415 317.5756 
L 361.30415 317.443804 
L 365.01834 317.341296 
L 365.01834 317.194856 
L 366.256404 317.194856 
L 366.256404 317.019128 
L 367.494467 317.019128 
L 367.494467 316.814112 
L 368.732531 316.814112 
L 368.732531 316.62374 
L 371.208658 316.565164 
L 371.208658 316.506588 
L 374.922848 316.448012 
L 374.922848 316.301572 
L 376.160912 316.301572 
L 376.160912 316.081912 
L 377.398975 316.081912 
L 377.398975 315.832964 
L 378.637039 315.832964 
L 378.637039 315.613304 
L 379.875102 315.613304 
L 379.875102 315.496152 
L 381.113166 315.496152 
L 381.113166 315.379 
L 382.35123 315.379 
L 382.35123 315.144696 
L 383.589293 315.144696 
L 383.589293 314.895748 
L 384.827357 314.895748 
L 384.827357 314.6468 
L 386.06542 314.6468 
L 386.06542 314.383208 
L 387.303484 314.383208 
L 387.303484 314.104972 
L 388.541547 314.104972 
L 388.541547 313.943888 
L 391.017674 313.885312 
L 391.017674 313.665652 
L 392.255738 313.665652 
L 392.255738 313.40206 
L 393.493801 313.40206 
L 393.493801 313.094536 
L 394.731865 313.094536 
L 394.731865 312.772368 
L 395.969928 312.772368 
L 395.969928 312.420912 
L 397.207992 312.420912 
L 397.207992 312.289116 
L 399.684119 312.215896 
L 399.684119 312.142676 
L 400.922182 312.142676 
L 400.922182 311.849796 
L 402.160246 311.849796 
L 402.160246 311.512984 
L 403.398309 311.512984 
L 403.398309 311.13224 
L 404.636373 311.13224 
L 404.636373 310.736852 
L 405.874436 310.736852 
L 405.874436 310.575768 
L 407.1125 310.575768 
L 407.1125 310.458616 
L 408.350564 310.458616 
L 408.350564 310.136448 
L 409.588627 310.136448 
L 409.588627 309.726416 
L 410.826691 309.726416 
L 410.826691 309.287096 
L 412.064754 309.287096 
L 412.064754 308.833132 
L 413.302818 308.833132 
L 413.302818 308.320592 
L 414.540881 308.320592 
L 414.540881 308.100932 
L 417.017008 307.998424 
L 417.017008 307.646968 
L 418.255072 307.646968 
L 418.255072 307.193004 
L 419.493135 307.193004 
L 419.493135 306.724396 
L 420.731199 306.724396 
L 420.731199 306.255788 
L 421.969262 306.255788 
L 421.969262 305.772536 
L 423.207326 305.772536 
L 423.207326 305.582164 
L 424.445389 305.582164 
L 424.445389 305.450368 
L 425.683453 305.450368 
L 425.683453 305.1282 
L 426.921516 305.1282 
L 426.921516 304.674236 
L 428.15958 304.674236 
L 428.15958 304.205628 
L 429.397643 304.205628 
L 429.397643 303.751664 
L 430.635707 303.751664 
L 430.635707 303.283056 
L 431.87377 303.283056 
L 431.87377 303.034108 
L 433.111834 303.034108 
L 433.111834 302.916956 
L 434.349898 302.916956 
L 434.349898 302.536212 
L 435.587961 302.536212 
L 435.587961 302.009028 
L 436.826025 302.009028 
L 436.826025 301.452556 
L 438.064088 301.452556 
L 438.064088 300.940016 
L 439.302152 300.940016 
L 439.302152 300.310324 
L 440.540215 300.310324 
L 440.540215 300.0028 
L 441.778279 300.0028 
L 441.778279 299.85636 
L 443.016342 299.85636 
L 443.016342 299.41704 
L 444.254406 299.41704 
L 444.254406 298.816636 
L 445.492469 298.816636 
L 445.492469 298.186944 
L 446.730533 298.186944 
L 446.730533 297.484032 
L 447.968596 297.484032 
L 447.968596 296.868984 
L 449.20666 296.868984 
L 449.20666 296.590748 
L 450.444723 296.590748 
L 450.444723 296.429664 
L 451.682787 296.429664 
L 451.682787 296.26858 
L 452.92085 296.26858 
L 452.92085 295.6096 
L 454.158914 295.6096 
L 454.158914 295.272788 
L 455.396977 295.272788 
L 455.396977 294.555232 
L 456.635041 294.555232 
L 456.635041 293.910896 
L 457.873105 293.910896 
L 457.873105 293.55944 
L 459.111168 293.55944 
L 459.111168 293.33978 
L 460.349232 293.33978 
L 460.349232 292.797952 
L 461.587295 292.797952 
L 461.587295 292.124328 
L 462.825359 292.124328 
L 462.825359 291.392128 
L 464.063422 291.392128 
L 464.063422 290.689216 
L 465.301486 290.689216 
L 465.301486 290.059524 
L 466.539549 290.059524 
L 466.539549 289.693424 
L 467.777613 289.693424 
L 467.777613 289.473764 
L 469.015676 289.473764 
L 469.015676 288.94658 
L 470.25374 288.94658 
L 470.25374 288.258312 
L 471.491803 288.258312 
L 471.491803 287.511468 
L 472.729867 287.511468 
L 472.729867 286.764624 
L 473.96793 286.764624 
L 473.96793 286.120288 
L 475.205994 286.120288 
L 475.205994 285.680968 
L 476.444057 285.680968 
L 476.444057 285.461308 
L 477.682121 285.461308 
L 477.682121 284.978056 
L 478.920184 284.978056 
L 478.920184 284.33372 
L 480.158248 284.33372 
L 480.158248 283.645452 
L 481.396311 283.645452 
L 481.396311 282.957184 
L 482.634375 282.957184 
L 482.634375 282.35678 
L 483.872439 282.35678 
L 483.872439 281.976036 
L 485.110502 281.976036 
L 485.110502 281.785664 
L 486.348566 281.785664 
L 486.348566 281.302412 
L 487.586629 281.302412 
L 487.586629 280.67272 
L 488.824693 280.67272 
L 488.824693 279.984452 
L 490.062756 279.984452 
L 490.062756 279.237608 
L 491.30082 279.237608 
L 491.30082 278.593272 
L 492.538883 278.593272 
L 492.538883 278.11002 
L 493.776947 278.11002 
L 493.776947 277.89036 
L 495.01501 277.89036 
L 495.01501 277.348532 
L 496.253074 277.348532 
L 496.253074 276.674908 
L 497.491137 276.674908 
L 497.491137 275.928064 
L 498.729201 275.928064 
L 498.729201 275.210508 
L 499.967264 275.210508 
L 499.967264 274.551528 
L 501.205328 274.551528 
L 501.205328 274.053632 
L 502.443391 274.053632 
L 502.443391 273.79004 
L 503.681455 273.79004 
L 503.681455 273.116416 
L 504.919518 273.116416 
L 504.919518 272.193844 
L 506.157582 272.193844 
L 506.157582 271.168764 
L 507.395645 271.168764 
L 507.395645 270.20226 
L 508.633709 270.20226 
L 508.633709 269.265044 
L 509.871773 269.265044 
L 509.871773 268.5182 
L 511.109836 268.5182 
L 511.109836 268.093524 
L 512.3479 268.093524 
L 512.3479 267.170952 
L 513.585963 267.170952 
L 513.585963 265.999432 
L 514.824027 265.999432 
L 514.824027 264.754692 
L 516.06209 264.754692 
L 516.06209 263.53924 
L 517.300154 263.53924 
L 517.300154 262.279856 
L 518.538217 262.279856 
L 518.538217 261.108336 
L 519.776281 261.108336 
L 519.776281 260.434712 
L 521.014344 260.434712 
L 521.014344 259.380344 
L 522.252408 259.380344 
L 522.252408 258.091672 
L 523.490471 258.091672 
L 523.490471 256.715136 
L 524.728535 256.715136 
L 524.728535 255.455752 
L 525.966598 255.455752 
L 525.966598 254.181724 
L 527.204662 254.181724 
L 527.204662 253.083424 
L 528.442725 253.083424 
L 528.442725 252.468376 
L 529.680789 252.468376 
L 529.680789 251.296856 
L 530.918852 251.296856 
L 530.918852 249.891032 
L 532.156916 249.891032 
L 532.156916 248.411988 
L 533.39498 248.411988 
L 533.39498 246.932944 
L 534.633043 246.932944 
L 534.633043 245.52712 
L 535.871107 245.52712 
L 535.871107 244.20916 
L 537.10917 244.20916 
L 537.10917 243.447672 
L 538.347234 243.447672 
L 538.347234 242.041848 
L 539.585297 242.041848 
L 539.585297 240.357788 
L 542.061424 240.343144 
L 542.061424 239.435216 
L 543.299488 239.435216 
L 543.299488 237.69258 
L 544.537551 237.69258 
L 544.537551 236.111028 
L 545.775615 236.111028 
L 545.775615 235.027372 
L 547.013678 235.027372 
L 547.013678 233.109008 
L 548.251742 233.109008 
L 548.251742 230.692748 
L 549.489805 230.692748 
L 549.489805 230.692748 
" style="fill:none;stroke:#1f77b4;stroke-linecap:square;stroke-width:1.5;"/>
   </g>
   <g id="line2d_108">
    <path clip-path="url(#pb7c25ce837)" d="M 549.489805 229.228348 
L 549.489805 227.763948 
L 550.727869 227.763948 
L 550.727869 226.299548 
L 551.965932 226.299548 
L 551.965932 224.835148 
L 553.203996 224.835148 
L 553.203996 223.370748 
L 554.442059 223.370748 
L 554.442059 221.906348 
L 555.680123 221.906348 
L 555.680123 220.441948 
L 556.918186 220.441948 
L 556.918186 218.977548 
L 558.15625 218.977548 
L 558.15625 217.220268 
L 559.394314 217.220268 
L 559.394314 215.462988 
L 560.632377 215.462988 
L 560.632377 213.705708 
L 561.870441 213.705708 
L 561.870441 211.948428 
L 563.108504 211.948428 
L 563.108504 210.191148 
L 564.346568 210.191148 
L 564.346568 208.433868 
L 565.584631 208.433868 
L 565.584631 206.676588 
L 566.822695 206.676588 
L 566.822695 204.919308 
L 568.060758 204.919308 
L 568.060758 203.162028 
L 569.298822 203.162028 
L 569.298822 201.404748 
L 570.536885 201.404748 
L 570.536885 199.647468 
L 571.774949 199.647468 
L 571.774949 197.890188 
L 573.013012 197.890188 
L 573.013012 196.132908 
L 574.251076 196.132908 
L 574.251076 194.375628 
L 575.489139 194.375628 
L 575.489139 192.618348 
L 576.727203 192.618348 
L 576.727203 190.861068 
L 577.965266 190.861068 
L 577.965266 189.103788 
L 579.20333 189.103788 
L 579.20333 187.346508 
L 580.441393 187.346508 
L 580.441393 185.589228 
L 581.679457 185.589228 
L 581.679457 183.831948 
L 582.91752 183.831948 
L 582.91752 182.074668 
L 584.155584 182.074668 
L 584.155584 180.317388 
L 585.393648 180.317388 
L 585.393648 178.560108 
L 586.631711 178.560108 
L 586.631711 176.802828 
L 587.869775 176.802828 
L 587.869775 175.045548 
L 589.107838 175.045548 
L 589.107838 173.288268 
L 590.345902 173.288268 
L 590.345902 171.530988 
L 591.583965 171.530988 
L 591.583965 169.773708 
L 592.822029 169.773708 
L 592.822029 168.016428 
L 594.060092 168.016428 
L 594.060092 166.259148 
L 595.298156 166.259148 
L 595.298156 164.208988 
L 596.536219 164.208988 
L 596.536219 162.158828 
L 597.774283 162.158828 
L 597.774283 160.108668 
L 599.012346 160.108668 
L 599.012346 158.058508 
L 600.25041 158.058508 
L 600.25041 156.008348 
L 601.488473 156.008348 
L 601.488473 153.958188 
L 602.726537 153.958188 
L 602.726537 151.908028 
L 603.9646 151.908028 
L 603.9646 149.857868 
L 605.202664 149.857868 
L 605.202664 147.807708 
L 606.440727 147.807708 
L 606.440727 145.757548 
L 607.678791 145.757548 
L 607.678791 143.707388 
L 608.916855 143.707388 
L 608.916855 141.657228 
L 610.154918 141.657228 
L 610.154918 139.607068 
L 611.392982 139.607068 
L 611.392982 137.556908 
L 612.631045 137.556908 
L 612.631045 135.506748 
L 613.869109 135.506748 
L 613.869109 133.456588 
L 615.107172 133.456588 
L 615.107172 131.406428 
L 616.345236 131.406428 
L 616.345236 129.356268 
L 617.583299 129.356268 
L 617.583299 127.306108 
L 618.821363 127.306108 
L 618.821363 125.255948 
L 620.059426 125.255948 
L 620.059426 123.205788 
L 621.29749 123.205788 
L 621.29749 121.155628 
L 622.535553 121.155628 
L 622.535553 119.105468 
L 623.773617 119.105468 
L 623.773617 117.055308 
L 625.01168 117.055308 
L 625.01168 115.005148 
L 626.249744 115.005148 
L 626.249744 112.954988 
L 627.487807 112.954988 
L 627.487807 110.904828 
L 628.725871 110.904828 
L 628.725871 108.854668 
L 629.963934 108.854668 
L 629.963934 106.804508 
L 631.201998 106.804508 
L 631.201998 104.754348 
L 632.440061 104.754348 
L 632.440061 102.704188 
L 633.678125 102.704188 
L 633.678125 100.654028 
L 634.916189 100.654028 
L 634.916189 98.603868 
L 636.154252 98.603868 
L 636.154252 96.553708 
L 637.392316 96.553708 
L 637.392316 94.503548 
L 638.630379 94.503548 
L 638.630379 92.453388 
L 639.868443 92.453388 
L 639.868443 90.403228 
L 641.106506 90.403228 
L 641.106506 88.353068 
L 642.34457 88.353068 
L 642.34457 86.302908 
L 643.582633 86.302908 
L 643.582633 84.252748 
L 644.820697 84.252748 
L 644.820697 82.202588 
L 646.05876 82.202588 
L 646.05876 80.152428 
L 647.296824 80.152428 
L 647.296824 78.102268 
L 648.534887 78.102268 
L 648.534887 76.052108 
L 649.772951 76.052108 
L 649.772951 74.001948 
L 651.011014 74.001948 
L 651.011014 71.951788 
L 721 71.951788 
L 721 71.951788 
" style="fill:none;stroke:#ff7f0e;stroke-linecap:square;stroke-width:1.5;"/>
   </g>
   <g id="patch_9">
    <path d="M 407.1125 319.04 
L 407.1125 26.16 
" style="fill:none;stroke:#000000;stroke-linecap:square;stroke-linejoin:miter;stroke-width:0.8;"/>
   </g>
   <g id="patch_10">
    <path d="M 709.2 319.04 
L 709.2 26.16 
" style="fill:none;stroke:#000000;stroke-linecap:square;stroke-linejoin:miter;stroke-width:0.8;"/>
   </g>
   <g id="patch_11">
    <path d="M 407.1125 319.04 
L 709.2 319.04 
" style="fill:none;stroke:#000000;stroke-linecap:square;stroke-linejoin:miter;stroke-width:0.8;"/>
   </g>
   <g id="patch_12">
    <path d="M 407.1125 26.16 
L 709.2 26.16 
" style="fill:none;stroke:#000000;stroke-linecap:square;stroke-linejoin:miter;stroke-width:0.8;"/>
   </g>
   <g id="text_58">
    <!-- NZ cumulative vaccinations per capita -->
    <g transform="translate(442.53625 20.16)scale(0.12 -0.12)">
     <use xlink:href="#DejaVuSans-4e"/>
     <use x="74.804688" xlink:href="#DejaVuSans-5a"/>
     <use x="143.310547" xlink:href="#DejaVuSans-20"/>
     <use x="175.097656" xlink:href="#DejaVuSans-63"/>
     <use x="230.078125" xlink:href="#DejaVuSans-75"/>
     <use x="293.457031" xlink:href="#DejaVuSans-6d"/>
     <use x="390.869141" xlink:href="#DejaVuSans-75"/>
     <use x="454.248047" xlink:href="#DejaVuSans-6c"/>
     <use x="482.03125" xlink:href="#DejaVuSans-61"/>
     <use x="543.310547" xlink:href="#DejaVuSans-74"/>
     <use x="582.519531" xlink:href="#DejaVuSans-69"/>
     <use x="610.302734" xlink:href="#DejaVuSans-76"/>
     <use x="669.482422" xlink:href="#DejaVuSans-65"/>
     <use x="731.005859" xlink:href="#DejaVuSans-20"/>
     <use x="762.792969" xlink:href="#DejaVuSans-76"/>
     <use x="821.972656" xlink:href="#DejaVuSans-61"/>
     <use x="883.251953" xlink:href="#DejaVuSans-63"/>
     <use x="938.232422" xlink:href="#DejaVuSans-63"/>
     <use x="993.212891" xlink:href="#DejaVuSans-69"/>
     <use x="1020.996094" xlink:href="#DejaVuSans-6e"/>
     <use x="1084.375" xlink:href="#DejaVuSans-61"/>
     <use x="1145.654297" xlink:href="#DejaVuSans-74"/>
     <use x="1184.863281" xlink:href="#DejaVuSans-69"/>
     <use x="1212.646484" xlink:href="#DejaVuSans-6f"/>
     <use x="1273.828125" xlink:href="#DejaVuSans-6e"/>
     <use x="1337.207031" xlink:href="#DejaVuSans-73"/>
     <use x="1389.306641" xlink:href="#DejaVuSans-20"/>
     <use x="1421.09375" xlink:href="#DejaVuSans-70"/>
     <use x="1484.570312" xlink:href="#DejaVuSans-65"/>
     <use x="1546.09375" xlink:href="#DejaVuSans-72"/>
     <use x="1587.207031" xlink:href="#DejaVuSans-20"/>
     <use x="1618.994141" xlink:href="#DejaVuSans-63"/>
     <use x="1673.974609" xlink:href="#DejaVuSans-61"/>
     <use x="1735.253906" xlink:href="#DejaVuSans-70"/>
     <use x="1798.730469" xlink:href="#DejaVuSans-69"/>
     <use x="1826.513672" xlink:href="#DejaVuSans-74"/>
     <use x="1865.722656" xlink:href="#DejaVuSans-61"/>
    </g>
   </g>
   <g id="legend_2">
    <g id="patch_13">
     <path d="M 554.317187 63.51625 
L 702.2 63.51625 
Q 704.2 63.51625 704.2 61.51625 
L 704.2 33.16 
Q 704.2 31.16 702.2 31.16 
L 554.317187 31.16 
Q 552.317187 31.16 552.317187 33.16 
L 552.317187 61.51625 
Q 552.317187 63.51625 554.317187 63.51625 
z
" style="fill:#ffffff;opacity:0.8;stroke:#cccccc;stroke-linejoin:miter;"/>
    </g>
    <g id="line2d_109">
     <path d="M 556.317187 39.258437 
L 576.317187 39.258437 
" style="fill:none;stroke:#1f77b4;stroke-linecap:square;stroke-width:1.5;"/>
    </g>
    <g id="line2d_110"/>
    <g id="text_59">
     <!-- Actual -->
     <g transform="translate(584.317187 42.758437)scale(0.1 -0.1)">
      <use xlink:href="#DejaVuSans-41"/>
      <use x="66.658203" xlink:href="#DejaVuSans-63"/>
      <use x="121.638672" xlink:href="#DejaVuSans-74"/>
      <use x="160.847656" xlink:href="#DejaVuSans-75"/>
      <use x="224.226562" xlink:href="#DejaVuSans-61"/>
      <use x="285.505859" xlink:href="#DejaVuSans-6c"/>
     </g>
    </g>
    <g id="line2d_111">
     <path d="M 556.317187 53.936562 
L 576.317187 53.936562 
" style="fill:none;stroke:#ff7f0e;stroke-linecap:square;stroke-width:1.5;"/>
    </g>
    <g id="line2d_112"/>
    <g id="text_60">
     <!-- Assumed for projection -->
     <g transform="translate(584.317187 57.436562)scale(0.1 -0.1)">
      <use xlink:href="#DejaVuSans-41"/>
      <use x="68.408203" xlink:href="#DejaVuSans-73"/>
      <use x="120.507812" xlink:href="#DejaVuSans-73"/>
      <use x="172.607422" xlink:href="#DejaVuSans-75"/>
      <use x="235.986328" xlink:href="#DejaVuSans-6d"/>
      <use x="333.398438" xlink:href="#DejaVuSans-65"/>
      <use x="394.921875" xlink:href="#DejaVuSans-64"/>
      <use x="458.398438" xlink:href="#DejaVuSans-20"/>
      <use x="490.185547" xlink:href="#DejaVuSans-66"/>
      <use x="525.390625" xlink:href="#DejaVuSans-6f"/>
      <use x="586.572266" xlink:href="#DejaVuSans-72"/>
      <use x="627.685547" xlink:href="#DejaVuSans-20"/>
      <use x="659.472656" xlink:href="#DejaVuSans-70"/>
      <use x="722.949219" xlink:href="#DejaVuSans-72"/>
      <use x="761.8125" xlink:href="#DejaVuSans-6f"/>
      <use x="822.994141" xlink:href="#DejaVuSans-6a"/>
      <use x="850.777344" xlink:href="#DejaVuSans-65"/>
      <use x="912.300781" xlink:href="#DejaVuSans-63"/>
      <use x="967.28125" xlink:href="#DejaVuSans-74"/>
      <use x="1006.490234" xlink:href="#DejaVuSans-69"/>
      <use x="1034.273438" xlink:href="#DejaVuSans-6f"/>
      <use x="1095.455078" xlink:href="#DejaVuSans-6e"/>
     </g>
    </g>
   </g>
  </g>
 </g>
 <defs>
  <clipPath id="pccffaf0b48">
   <rect height="292.88" width="302.0875" x="54.11" y="26.16"/>
  </clipPath>
  <clipPath id="pb7c25ce837">
   <rect height="292.88" width="302.0875" x="407.1125" y="26.16"/>
  </clipPath>
 </defs>
</svg>
