<?xml version="1.0" encoding="utf-8" standalone="no"?>
<!DOCTYPE svg PUBLIC "-//W3C//DTD SVG 1.1//EN"
  "http://www.w3.org/Graphics/SVG/1.1/DTD/svg11.dtd">
<svg height="360pt" version="1.1" viewBox="0 0 720 360" width="720pt" xmlns="http://www.w3.org/2000/svg" xmlns:xlink="http://www.w3.org/1999/xlink">
 <metadata>
  <rdf:RDF xmlns:cc="http://creativecommons.org/ns#" xmlns:dc="http://purl.org/dc/elements/1.1/" xmlns:rdf="http://www.w3.org/1999/02/22-rdf-syntax-ns#">
   <cc:Work>
    <dc:type rdf:resource="http://purl.org/dc/dcmitype/StillImage"/>
    <dc:date>2021-09-11T11:52:40.624661</dc:date>
    <dc:format>image/svg+xml</dc:format>
    <dc:creator>
     <cc:Agent>
      <dc:title>Matplotlib v3.4.3, https://matplotlib.org/</dc:title>
     </cc:Agent>
    </dc:creator>
   </cc:Work>
  </rdf:RDF>
 </metadata>
 <defs>
  <style type="text/css">*{stroke-linecap:butt;stroke-linejoin:round;}</style>
 </defs>
 <g id="figure_1">
  <g id="patch_1">
   <path d="M 0 360 
L 720 360 
L 720 0 
L 0 0 
z
" style="fill:#ffffff;"/>
  </g>
  <g id="axes_1">
   <g id="patch_2">
    <path d="M 54.2 319.04 
L 356.175 319.04 
L 356.175 25.44 
L 54.2 25.44 
z
" style="fill:#ffffff;"/>
   </g>
   <g id="matplotlib.axis_1">
    <g id="xtick_1">
     <g id="line2d_1">
      <path clip-path="url(#p032cd57460)" d="M 54.2 319.04 
L 54.2 25.44 
" style="fill:none;stroke:#000000;stroke-dasharray:0.8,1.32;stroke-dashoffset:0;stroke-opacity:0.5;stroke-width:0.8;"/>
     </g>
     <g id="line2d_2">
      <defs>
       <path d="M 0 0 
L 0 3.5 
" id="m8742254057" style="stroke:#000000;stroke-width:0.8;"/>
      </defs>
      <g>
       <use style="stroke:#000000;stroke-width:0.8;" x="54.2" xlink:href="#m8742254057" y="319.04"/>
      </g>
     </g>
     <g id="text_1">
      <!-- May -->
      <g transform="translate(43.8625 333.638438)scale(0.1 -0.1)">
       <defs>
        <path d="M 628 4666 
L 1569 4666 
L 2759 1491 
L 3956 4666 
L 4897 4666 
L 4897 0 
L 4281 0 
L 4281 4097 
L 3078 897 
L 2444 897 
L 1241 4097 
L 1241 0 
L 628 0 
L 628 4666 
z
" id="DejaVuSans-4d" transform="scale(0.015625)"/>
        <path d="M 2194 1759 
Q 1497 1759 1228 1600 
Q 959 1441 959 1056 
Q 959 750 1161 570 
Q 1363 391 1709 391 
Q 2188 391 2477 730 
Q 2766 1069 2766 1631 
L 2766 1759 
L 2194 1759 
z
M 3341 1997 
L 3341 0 
L 2766 0 
L 2766 531 
Q 2569 213 2275 61 
Q 1981 -91 1556 -91 
Q 1019 -91 701 211 
Q 384 513 384 1019 
Q 384 1609 779 1909 
Q 1175 2209 1959 2209 
L 2766 2209 
L 2766 2266 
Q 2766 2663 2505 2880 
Q 2244 3097 1772 3097 
Q 1472 3097 1187 3025 
Q 903 2953 641 2809 
L 641 3341 
Q 956 3463 1253 3523 
Q 1550 3584 1831 3584 
Q 2591 3584 2966 3190 
Q 3341 2797 3341 1997 
z
" id="DejaVuSans-61" transform="scale(0.015625)"/>
        <path d="M 2059 -325 
Q 1816 -950 1584 -1140 
Q 1353 -1331 966 -1331 
L 506 -1331 
L 506 -850 
L 844 -850 
Q 1081 -850 1212 -737 
Q 1344 -625 1503 -206 
L 1606 56 
L 191 3500 
L 800 3500 
L 1894 763 
L 2988 3500 
L 3597 3500 
L 2059 -325 
z
" id="DejaVuSans-79" transform="scale(0.015625)"/>
       </defs>
       <use xlink:href="#DejaVuSans-4d"/>
       <use x="86.279297" xlink:href="#DejaVuSans-61"/>
       <use x="147.558594" xlink:href="#DejaVuSans-79"/>
      </g>
     </g>
    </g>
    <g id="xtick_2">
     <g id="line2d_3">
      <path clip-path="url(#p032cd57460)" d="M 71.526434 319.04 
L 71.526434 25.44 
" style="fill:none;stroke:#000000;stroke-dasharray:0.8,1.32;stroke-dashoffset:0;stroke-opacity:0.5;stroke-width:0.8;"/>
     </g>
     <g id="line2d_4">
      <g>
       <use style="stroke:#000000;stroke-width:0.8;" x="71.526434" xlink:href="#m8742254057" y="319.04"/>
      </g>
     </g>
     <g id="text_2">
      <!-- 15 -->
      <g transform="translate(65.163934 333.638438)scale(0.1 -0.1)">
       <defs>
        <path d="M 794 531 
L 1825 531 
L 1825 4091 
L 703 3866 
L 703 4441 
L 1819 4666 
L 2450 4666 
L 2450 531 
L 3481 531 
L 3481 0 
L 794 0 
L 794 531 
z
" id="DejaVuSans-31" transform="scale(0.015625)"/>
        <path d="M 691 4666 
L 3169 4666 
L 3169 4134 
L 1269 4134 
L 1269 2991 
Q 1406 3038 1543 3061 
Q 1681 3084 1819 3084 
Q 2600 3084 3056 2656 
Q 3513 2228 3513 1497 
Q 3513 744 3044 326 
Q 2575 -91 1722 -91 
Q 1428 -91 1123 -41 
Q 819 9 494 109 
L 494 744 
Q 775 591 1075 516 
Q 1375 441 1709 441 
Q 2250 441 2565 725 
Q 2881 1009 2881 1497 
Q 2881 1984 2565 2268 
Q 2250 2553 1709 2553 
Q 1456 2553 1204 2497 
Q 953 2441 691 2322 
L 691 4666 
z
" id="DejaVuSans-35" transform="scale(0.015625)"/>
       </defs>
       <use xlink:href="#DejaVuSans-31"/>
       <use x="63.623047" xlink:href="#DejaVuSans-35"/>
      </g>
     </g>
    </g>
    <g id="xtick_3">
     <g id="line2d_5">
      <path clip-path="url(#p032cd57460)" d="M 92.565676 319.04 
L 92.565676 25.44 
" style="fill:none;stroke:#000000;stroke-dasharray:0.8,1.32;stroke-dashoffset:0;stroke-opacity:0.5;stroke-width:0.8;"/>
     </g>
     <g id="line2d_6">
      <g>
       <use style="stroke:#000000;stroke-width:0.8;" x="92.565676" xlink:href="#m8742254057" y="319.04"/>
      </g>
     </g>
     <g id="text_3">
      <!-- Jun -->
      <g transform="translate(84.753176 333.638438)scale(0.1 -0.1)">
       <defs>
        <path d="M 628 4666 
L 1259 4666 
L 1259 325 
Q 1259 -519 939 -900 
Q 619 -1281 -91 -1281 
L -331 -1281 
L -331 -750 
L -134 -750 
Q 284 -750 456 -515 
Q 628 -281 628 325 
L 628 4666 
z
" id="DejaVuSans-4a" transform="scale(0.015625)"/>
        <path d="M 544 1381 
L 544 3500 
L 1119 3500 
L 1119 1403 
Q 1119 906 1312 657 
Q 1506 409 1894 409 
Q 2359 409 2629 706 
Q 2900 1003 2900 1516 
L 2900 3500 
L 3475 3500 
L 3475 0 
L 2900 0 
L 2900 538 
Q 2691 219 2414 64 
Q 2138 -91 1772 -91 
Q 1169 -91 856 284 
Q 544 659 544 1381 
z
M 1991 3584 
L 1991 3584 
z
" id="DejaVuSans-75" transform="scale(0.015625)"/>
        <path d="M 3513 2113 
L 3513 0 
L 2938 0 
L 2938 2094 
Q 2938 2591 2744 2837 
Q 2550 3084 2163 3084 
Q 1697 3084 1428 2787 
Q 1159 2491 1159 1978 
L 1159 0 
L 581 0 
L 581 3500 
L 1159 3500 
L 1159 2956 
Q 1366 3272 1645 3428 
Q 1925 3584 2291 3584 
Q 2894 3584 3203 3211 
Q 3513 2838 3513 2113 
z
" id="DejaVuSans-6e" transform="scale(0.015625)"/>
       </defs>
       <use xlink:href="#DejaVuSans-4a"/>
       <use x="29.492188" xlink:href="#DejaVuSans-75"/>
       <use x="92.871094" xlink:href="#DejaVuSans-6e"/>
      </g>
     </g>
    </g>
    <g id="xtick_4">
     <g id="line2d_7">
      <path clip-path="url(#p032cd57460)" d="M 109.892111 319.04 
L 109.892111 25.44 
" style="fill:none;stroke:#000000;stroke-dasharray:0.8,1.32;stroke-dashoffset:0;stroke-opacity:0.5;stroke-width:0.8;"/>
     </g>
     <g id="line2d_8">
      <g>
       <use style="stroke:#000000;stroke-width:0.8;" x="109.892111" xlink:href="#m8742254057" y="319.04"/>
      </g>
     </g>
     <g id="text_4">
      <!-- 15 -->
      <g transform="translate(103.529611 333.638438)scale(0.1 -0.1)">
       <use xlink:href="#DejaVuSans-31"/>
       <use x="63.623047" xlink:href="#DejaVuSans-35"/>
      </g>
     </g>
    </g>
    <g id="xtick_5">
     <g id="line2d_9">
      <path clip-path="url(#p032cd57460)" d="M 129.69375 319.04 
L 129.69375 25.44 
" style="fill:none;stroke:#000000;stroke-dasharray:0.8,1.32;stroke-dashoffset:0;stroke-opacity:0.5;stroke-width:0.8;"/>
     </g>
     <g id="line2d_10">
      <g>
       <use style="stroke:#000000;stroke-width:0.8;" x="129.69375" xlink:href="#m8742254057" y="319.04"/>
      </g>
     </g>
     <g id="text_5">
      <!-- Jul -->
      <g transform="translate(123.660937 333.638438)scale(0.1 -0.1)">
       <defs>
        <path d="M 603 4863 
L 1178 4863 
L 1178 0 
L 603 0 
L 603 4863 
z
" id="DejaVuSans-6c" transform="scale(0.015625)"/>
       </defs>
       <use xlink:href="#DejaVuSans-4a"/>
       <use x="29.492188" xlink:href="#DejaVuSans-75"/>
       <use x="92.871094" xlink:href="#DejaVuSans-6c"/>
      </g>
     </g>
    </g>
    <g id="xtick_6">
     <g id="line2d_11">
      <path clip-path="url(#p032cd57460)" d="M 147.020184 319.04 
L 147.020184 25.44 
" style="fill:none;stroke:#000000;stroke-dasharray:0.8,1.32;stroke-dashoffset:0;stroke-opacity:0.5;stroke-width:0.8;"/>
     </g>
     <g id="line2d_12">
      <g>
       <use style="stroke:#000000;stroke-width:0.8;" x="147.020184" xlink:href="#m8742254057" y="319.04"/>
      </g>
     </g>
     <g id="text_6">
      <!-- 15 -->
      <g transform="translate(140.657684 333.638438)scale(0.1 -0.1)">
       <use xlink:href="#DejaVuSans-31"/>
       <use x="63.623047" xlink:href="#DejaVuSans-35"/>
      </g>
     </g>
    </g>
    <g id="xtick_7">
     <g id="line2d_13">
      <path clip-path="url(#p032cd57460)" d="M 168.059426 319.04 
L 168.059426 25.44 
" style="fill:none;stroke:#000000;stroke-dasharray:0.8,1.32;stroke-dashoffset:0;stroke-opacity:0.5;stroke-width:0.8;"/>
     </g>
     <g id="line2d_14">
      <g>
       <use style="stroke:#000000;stroke-width:0.8;" x="168.059426" xlink:href="#m8742254057" y="319.04"/>
      </g>
     </g>
     <g id="text_7">
      <!-- Aug -->
      <g transform="translate(158.296145 333.638438)scale(0.1 -0.1)">
       <defs>
        <path d="M 2188 4044 
L 1331 1722 
L 3047 1722 
L 2188 4044 
z
M 1831 4666 
L 2547 4666 
L 4325 0 
L 3669 0 
L 3244 1197 
L 1141 1197 
L 716 0 
L 50 0 
L 1831 4666 
z
" id="DejaVuSans-41" transform="scale(0.015625)"/>
        <path d="M 2906 1791 
Q 2906 2416 2648 2759 
Q 2391 3103 1925 3103 
Q 1463 3103 1205 2759 
Q 947 2416 947 1791 
Q 947 1169 1205 825 
Q 1463 481 1925 481 
Q 2391 481 2648 825 
Q 2906 1169 2906 1791 
z
M 3481 434 
Q 3481 -459 3084 -895 
Q 2688 -1331 1869 -1331 
Q 1566 -1331 1297 -1286 
Q 1028 -1241 775 -1147 
L 775 -588 
Q 1028 -725 1275 -790 
Q 1522 -856 1778 -856 
Q 2344 -856 2625 -561 
Q 2906 -266 2906 331 
L 2906 616 
Q 2728 306 2450 153 
Q 2172 0 1784 0 
Q 1141 0 747 490 
Q 353 981 353 1791 
Q 353 2603 747 3093 
Q 1141 3584 1784 3584 
Q 2172 3584 2450 3431 
Q 2728 3278 2906 2969 
L 2906 3500 
L 3481 3500 
L 3481 434 
z
" id="DejaVuSans-67" transform="scale(0.015625)"/>
       </defs>
       <use xlink:href="#DejaVuSans-41"/>
       <use x="68.408203" xlink:href="#DejaVuSans-75"/>
       <use x="131.787109" xlink:href="#DejaVuSans-67"/>
      </g>
     </g>
    </g>
    <g id="xtick_8">
     <g id="line2d_15">
      <path clip-path="url(#p032cd57460)" d="M 185.385861 319.04 
L 185.385861 25.44 
" style="fill:none;stroke:#000000;stroke-dasharray:0.8,1.32;stroke-dashoffset:0;stroke-opacity:0.5;stroke-width:0.8;"/>
     </g>
     <g id="line2d_16">
      <g>
       <use style="stroke:#000000;stroke-width:0.8;" x="185.385861" xlink:href="#m8742254057" y="319.04"/>
      </g>
     </g>
     <g id="text_8">
      <!-- 15 -->
      <g transform="translate(179.023361 333.638438)scale(0.1 -0.1)">
       <use xlink:href="#DejaVuSans-31"/>
       <use x="63.623047" xlink:href="#DejaVuSans-35"/>
      </g>
     </g>
    </g>
    <g id="xtick_9">
     <g id="line2d_17">
      <path clip-path="url(#p032cd57460)" d="M 206.425102 319.04 
L 206.425102 25.44 
" style="fill:none;stroke:#000000;stroke-dasharray:0.8,1.32;stroke-dashoffset:0;stroke-opacity:0.5;stroke-width:0.8;"/>
     </g>
     <g id="line2d_18">
      <g>
       <use style="stroke:#000000;stroke-width:0.8;" x="206.425102" xlink:href="#m8742254057" y="319.04"/>
      </g>
     </g>
     <g id="text_9">
      <!-- Sep -->
      <g transform="translate(197.000102 333.638438)scale(0.1 -0.1)">
       <defs>
        <path d="M 3425 4513 
L 3425 3897 
Q 3066 4069 2747 4153 
Q 2428 4238 2131 4238 
Q 1616 4238 1336 4038 
Q 1056 3838 1056 3469 
Q 1056 3159 1242 3001 
Q 1428 2844 1947 2747 
L 2328 2669 
Q 3034 2534 3370 2195 
Q 3706 1856 3706 1288 
Q 3706 609 3251 259 
Q 2797 -91 1919 -91 
Q 1588 -91 1214 -16 
Q 841 59 441 206 
L 441 856 
Q 825 641 1194 531 
Q 1563 422 1919 422 
Q 2459 422 2753 634 
Q 3047 847 3047 1241 
Q 3047 1584 2836 1778 
Q 2625 1972 2144 2069 
L 1759 2144 
Q 1053 2284 737 2584 
Q 422 2884 422 3419 
Q 422 4038 858 4394 
Q 1294 4750 2059 4750 
Q 2388 4750 2728 4690 
Q 3069 4631 3425 4513 
z
" id="DejaVuSans-53" transform="scale(0.015625)"/>
        <path d="M 3597 1894 
L 3597 1613 
L 953 1613 
Q 991 1019 1311 708 
Q 1631 397 2203 397 
Q 2534 397 2845 478 
Q 3156 559 3463 722 
L 3463 178 
Q 3153 47 2828 -22 
Q 2503 -91 2169 -91 
Q 1331 -91 842 396 
Q 353 884 353 1716 
Q 353 2575 817 3079 
Q 1281 3584 2069 3584 
Q 2775 3584 3186 3129 
Q 3597 2675 3597 1894 
z
M 3022 2063 
Q 3016 2534 2758 2815 
Q 2500 3097 2075 3097 
Q 1594 3097 1305 2825 
Q 1016 2553 972 2059 
L 3022 2063 
z
" id="DejaVuSans-65" transform="scale(0.015625)"/>
        <path d="M 1159 525 
L 1159 -1331 
L 581 -1331 
L 581 3500 
L 1159 3500 
L 1159 2969 
Q 1341 3281 1617 3432 
Q 1894 3584 2278 3584 
Q 2916 3584 3314 3078 
Q 3713 2572 3713 1747 
Q 3713 922 3314 415 
Q 2916 -91 2278 -91 
Q 1894 -91 1617 61 
Q 1341 213 1159 525 
z
M 3116 1747 
Q 3116 2381 2855 2742 
Q 2594 3103 2138 3103 
Q 1681 3103 1420 2742 
Q 1159 2381 1159 1747 
Q 1159 1113 1420 752 
Q 1681 391 2138 391 
Q 2594 391 2855 752 
Q 3116 1113 3116 1747 
z
" id="DejaVuSans-70" transform="scale(0.015625)"/>
       </defs>
       <use xlink:href="#DejaVuSans-53"/>
       <use x="63.476562" xlink:href="#DejaVuSans-65"/>
       <use x="125" xlink:href="#DejaVuSans-70"/>
      </g>
     </g>
    </g>
    <g id="xtick_10">
     <g id="line2d_19">
      <path clip-path="url(#p032cd57460)" d="M 223.751537 319.04 
L 223.751537 25.44 
" style="fill:none;stroke:#000000;stroke-dasharray:0.8,1.32;stroke-dashoffset:0;stroke-opacity:0.5;stroke-width:0.8;"/>
     </g>
     <g id="line2d_20">
      <g>
       <use style="stroke:#000000;stroke-width:0.8;" x="223.751537" xlink:href="#m8742254057" y="319.04"/>
      </g>
     </g>
     <g id="text_10">
      <!-- 15 -->
      <g transform="translate(217.389037 333.638438)scale(0.1 -0.1)">
       <use xlink:href="#DejaVuSans-31"/>
       <use x="63.623047" xlink:href="#DejaVuSans-35"/>
      </g>
     </g>
    </g>
    <g id="xtick_11">
     <g id="line2d_21">
      <path clip-path="url(#p032cd57460)" d="M 243.553176 319.04 
L 243.553176 25.44 
" style="fill:none;stroke:#000000;stroke-dasharray:0.8,1.32;stroke-dashoffset:0;stroke-opacity:0.5;stroke-width:0.8;"/>
     </g>
     <g id="line2d_22">
      <g>
       <use style="stroke:#000000;stroke-width:0.8;" x="243.553176" xlink:href="#m8742254057" y="319.04"/>
      </g>
     </g>
     <g id="text_11">
      <!-- Oct -->
      <g transform="translate(234.907864 333.638438)scale(0.1 -0.1)">
       <defs>
        <path d="M 2522 4238 
Q 1834 4238 1429 3725 
Q 1025 3213 1025 2328 
Q 1025 1447 1429 934 
Q 1834 422 2522 422 
Q 3209 422 3611 934 
Q 4013 1447 4013 2328 
Q 4013 3213 3611 3725 
Q 3209 4238 2522 4238 
z
M 2522 4750 
Q 3503 4750 4090 4092 
Q 4678 3434 4678 2328 
Q 4678 1225 4090 567 
Q 3503 -91 2522 -91 
Q 1538 -91 948 565 
Q 359 1222 359 2328 
Q 359 3434 948 4092 
Q 1538 4750 2522 4750 
z
" id="DejaVuSans-4f" transform="scale(0.015625)"/>
        <path d="M 3122 3366 
L 3122 2828 
Q 2878 2963 2633 3030 
Q 2388 3097 2138 3097 
Q 1578 3097 1268 2742 
Q 959 2388 959 1747 
Q 959 1106 1268 751 
Q 1578 397 2138 397 
Q 2388 397 2633 464 
Q 2878 531 3122 666 
L 3122 134 
Q 2881 22 2623 -34 
Q 2366 -91 2075 -91 
Q 1284 -91 818 406 
Q 353 903 353 1747 
Q 353 2603 823 3093 
Q 1294 3584 2113 3584 
Q 2378 3584 2631 3529 
Q 2884 3475 3122 3366 
z
" id="DejaVuSans-63" transform="scale(0.015625)"/>
        <path d="M 1172 4494 
L 1172 3500 
L 2356 3500 
L 2356 3053 
L 1172 3053 
L 1172 1153 
Q 1172 725 1289 603 
Q 1406 481 1766 481 
L 2356 481 
L 2356 0 
L 1766 0 
Q 1100 0 847 248 
Q 594 497 594 1153 
L 594 3053 
L 172 3053 
L 172 3500 
L 594 3500 
L 594 4494 
L 1172 4494 
z
" id="DejaVuSans-74" transform="scale(0.015625)"/>
       </defs>
       <use xlink:href="#DejaVuSans-4f"/>
       <use x="78.710938" xlink:href="#DejaVuSans-63"/>
       <use x="133.691406" xlink:href="#DejaVuSans-74"/>
      </g>
     </g>
    </g>
    <g id="xtick_12">
     <g id="line2d_23">
      <path clip-path="url(#p032cd57460)" d="M 260.879611 319.04 
L 260.879611 25.44 
" style="fill:none;stroke:#000000;stroke-dasharray:0.8,1.32;stroke-dashoffset:0;stroke-opacity:0.5;stroke-width:0.8;"/>
     </g>
     <g id="line2d_24">
      <g>
       <use style="stroke:#000000;stroke-width:0.8;" x="260.879611" xlink:href="#m8742254057" y="319.04"/>
      </g>
     </g>
     <g id="text_12">
      <!-- 15 -->
      <g transform="translate(254.517111 333.638438)scale(0.1 -0.1)">
       <use xlink:href="#DejaVuSans-31"/>
       <use x="63.623047" xlink:href="#DejaVuSans-35"/>
      </g>
     </g>
    </g>
    <g id="xtick_13">
     <g id="line2d_25">
      <path clip-path="url(#p032cd57460)" d="M 281.918852 319.04 
L 281.918852 25.44 
" style="fill:none;stroke:#000000;stroke-dasharray:0.8,1.32;stroke-dashoffset:0;stroke-opacity:0.5;stroke-width:0.8;"/>
     </g>
     <g id="line2d_26">
      <g>
       <use style="stroke:#000000;stroke-width:0.8;" x="281.918852" xlink:href="#m8742254057" y="319.04"/>
      </g>
     </g>
     <g id="text_13">
      <!-- Nov -->
      <g transform="translate(272.159477 333.638438)scale(0.1 -0.1)">
       <defs>
        <path d="M 628 4666 
L 1478 4666 
L 3547 763 
L 3547 4666 
L 4159 4666 
L 4159 0 
L 3309 0 
L 1241 3903 
L 1241 0 
L 628 0 
L 628 4666 
z
" id="DejaVuSans-4e" transform="scale(0.015625)"/>
        <path d="M 1959 3097 
Q 1497 3097 1228 2736 
Q 959 2375 959 1747 
Q 959 1119 1226 758 
Q 1494 397 1959 397 
Q 2419 397 2687 759 
Q 2956 1122 2956 1747 
Q 2956 2369 2687 2733 
Q 2419 3097 1959 3097 
z
M 1959 3584 
Q 2709 3584 3137 3096 
Q 3566 2609 3566 1747 
Q 3566 888 3137 398 
Q 2709 -91 1959 -91 
Q 1206 -91 779 398 
Q 353 888 353 1747 
Q 353 2609 779 3096 
Q 1206 3584 1959 3584 
z
" id="DejaVuSans-6f" transform="scale(0.015625)"/>
        <path d="M 191 3500 
L 800 3500 
L 1894 563 
L 2988 3500 
L 3597 3500 
L 2284 0 
L 1503 0 
L 191 3500 
z
" id="DejaVuSans-76" transform="scale(0.015625)"/>
       </defs>
       <use xlink:href="#DejaVuSans-4e"/>
       <use x="74.804688" xlink:href="#DejaVuSans-6f"/>
       <use x="135.986328" xlink:href="#DejaVuSans-76"/>
      </g>
     </g>
    </g>
    <g id="xtick_14">
     <g id="line2d_27">
      <path clip-path="url(#p032cd57460)" d="M 299.245287 319.04 
L 299.245287 25.44 
" style="fill:none;stroke:#000000;stroke-dasharray:0.8,1.32;stroke-dashoffset:0;stroke-opacity:0.5;stroke-width:0.8;"/>
     </g>
     <g id="line2d_28">
      <g>
       <use style="stroke:#000000;stroke-width:0.8;" x="299.245287" xlink:href="#m8742254057" y="319.04"/>
      </g>
     </g>
     <g id="text_14">
      <!-- 15 -->
      <g transform="translate(292.882787 333.638438)scale(0.1 -0.1)">
       <use xlink:href="#DejaVuSans-31"/>
       <use x="63.623047" xlink:href="#DejaVuSans-35"/>
      </g>
     </g>
    </g>
    <g id="xtick_15">
     <g id="line2d_29">
      <path clip-path="url(#p032cd57460)" d="M 319.046926 319.04 
L 319.046926 25.44 
" style="fill:none;stroke:#000000;stroke-dasharray:0.8,1.32;stroke-dashoffset:0;stroke-opacity:0.5;stroke-width:0.8;"/>
     </g>
     <g id="line2d_30">
      <g>
       <use style="stroke:#000000;stroke-width:0.8;" x="319.046926" xlink:href="#m8742254057" y="319.04"/>
      </g>
     </g>
     <g id="text_15">
      <!-- Dec -->
      <g transform="translate(309.371145 333.638438)scale(0.1 -0.1)">
       <defs>
        <path d="M 1259 4147 
L 1259 519 
L 2022 519 
Q 2988 519 3436 956 
Q 3884 1394 3884 2338 
Q 3884 3275 3436 3711 
Q 2988 4147 2022 4147 
L 1259 4147 
z
M 628 4666 
L 1925 4666 
Q 3281 4666 3915 4102 
Q 4550 3538 4550 2338 
Q 4550 1131 3912 565 
Q 3275 0 1925 0 
L 628 0 
L 628 4666 
z
" id="DejaVuSans-44" transform="scale(0.015625)"/>
       </defs>
       <use xlink:href="#DejaVuSans-44"/>
       <use x="77.001953" xlink:href="#DejaVuSans-65"/>
       <use x="138.525391" xlink:href="#DejaVuSans-63"/>
      </g>
     </g>
    </g>
    <g id="xtick_16">
     <g id="line2d_31">
      <path clip-path="url(#p032cd57460)" d="M 336.373361 319.04 
L 336.373361 25.44 
" style="fill:none;stroke:#000000;stroke-dasharray:0.8,1.32;stroke-dashoffset:0;stroke-opacity:0.5;stroke-width:0.8;"/>
     </g>
     <g id="line2d_32">
      <g>
       <use style="stroke:#000000;stroke-width:0.8;" x="336.373361" xlink:href="#m8742254057" y="319.04"/>
      </g>
     </g>
     <g id="text_16">
      <!-- 15 -->
      <g transform="translate(330.010861 333.638438)scale(0.1 -0.1)">
       <use xlink:href="#DejaVuSans-31"/>
       <use x="63.623047" xlink:href="#DejaVuSans-35"/>
      </g>
     </g>
    </g>
    <g id="text_17">
     <!-- 2021-Dec -->
     <g transform="translate(307.765625 346.316563)scale(0.1 -0.1)">
      <defs>
       <path d="M 1228 531 
L 3431 531 
L 3431 0 
L 469 0 
L 469 531 
Q 828 903 1448 1529 
Q 2069 2156 2228 2338 
Q 2531 2678 2651 2914 
Q 2772 3150 2772 3378 
Q 2772 3750 2511 3984 
Q 2250 4219 1831 4219 
Q 1534 4219 1204 4116 
Q 875 4013 500 3803 
L 500 4441 
Q 881 4594 1212 4672 
Q 1544 4750 1819 4750 
Q 2544 4750 2975 4387 
Q 3406 4025 3406 3419 
Q 3406 3131 3298 2873 
Q 3191 2616 2906 2266 
Q 2828 2175 2409 1742 
Q 1991 1309 1228 531 
z
" id="DejaVuSans-32" transform="scale(0.015625)"/>
       <path d="M 2034 4250 
Q 1547 4250 1301 3770 
Q 1056 3291 1056 2328 
Q 1056 1369 1301 889 
Q 1547 409 2034 409 
Q 2525 409 2770 889 
Q 3016 1369 3016 2328 
Q 3016 3291 2770 3770 
Q 2525 4250 2034 4250 
z
M 2034 4750 
Q 2819 4750 3233 4129 
Q 3647 3509 3647 2328 
Q 3647 1150 3233 529 
Q 2819 -91 2034 -91 
Q 1250 -91 836 529 
Q 422 1150 422 2328 
Q 422 3509 836 4129 
Q 1250 4750 2034 4750 
z
" id="DejaVuSans-30" transform="scale(0.015625)"/>
       <path d="M 313 2009 
L 1997 2009 
L 1997 1497 
L 313 1497 
L 313 2009 
z
" id="DejaVuSans-2d" transform="scale(0.015625)"/>
      </defs>
      <use xlink:href="#DejaVuSans-32"/>
      <use x="63.623047" xlink:href="#DejaVuSans-30"/>
      <use x="127.246094" xlink:href="#DejaVuSans-32"/>
      <use x="190.869141" xlink:href="#DejaVuSans-31"/>
      <use x="254.492188" xlink:href="#DejaVuSans-2d"/>
      <use x="290.576172" xlink:href="#DejaVuSans-44"/>
      <use x="367.578125" xlink:href="#DejaVuSans-65"/>
      <use x="429.101562" xlink:href="#DejaVuSans-63"/>
     </g>
    </g>
   </g>
   <g id="matplotlib.axis_2">
    <g id="ytick_1">
     <g id="line2d_33">
      <path clip-path="url(#p032cd57460)" d="M 54.2 319.04 
L 356.175 319.04 
" style="fill:none;stroke:#000000;stroke-dasharray:0.8,1.32;stroke-dashoffset:0;stroke-opacity:0.5;stroke-width:0.8;"/>
     </g>
     <g id="line2d_34">
      <defs>
       <path d="M 0 0 
L -3.5 0 
" id="md4a3043d2c" style="stroke:#000000;stroke-width:0.8;"/>
      </defs>
      <g>
       <use style="stroke:#000000;stroke-width:0.8;" x="54.2" xlink:href="#md4a3043d2c" y="319.04"/>
      </g>
     </g>
     <g id="text_18">
      <!-- 0.00 -->
      <g transform="translate(24.934375 322.839219)scale(0.1 -0.1)">
       <defs>
        <path d="M 684 794 
L 1344 794 
L 1344 0 
L 684 0 
L 684 794 
z
" id="DejaVuSans-2e" transform="scale(0.015625)"/>
       </defs>
       <use xlink:href="#DejaVuSans-30"/>
       <use x="63.623047" xlink:href="#DejaVuSans-2e"/>
       <use x="95.410156" xlink:href="#DejaVuSans-30"/>
       <use x="159.033203" xlink:href="#DejaVuSans-30"/>
      </g>
     </g>
    </g>
    <g id="ytick_2">
     <g id="line2d_35">
      <path clip-path="url(#p032cd57460)" d="M 54.2 285.676364 
L 356.175 285.676364 
" style="fill:none;stroke:#000000;stroke-dasharray:0.8,1.32;stroke-dashoffset:0;stroke-opacity:0.5;stroke-width:0.8;"/>
     </g>
     <g id="line2d_36">
      <g>
       <use style="stroke:#000000;stroke-width:0.8;" x="54.2" xlink:href="#md4a3043d2c" y="285.676364"/>
      </g>
     </g>
     <g id="text_19">
      <!-- 0.25 -->
      <g transform="translate(24.934375 289.475582)scale(0.1 -0.1)">
       <use xlink:href="#DejaVuSans-30"/>
       <use x="63.623047" xlink:href="#DejaVuSans-2e"/>
       <use x="95.410156" xlink:href="#DejaVuSans-32"/>
       <use x="159.033203" xlink:href="#DejaVuSans-35"/>
      </g>
     </g>
    </g>
    <g id="ytick_3">
     <g id="line2d_37">
      <path clip-path="url(#p032cd57460)" d="M 54.2 252.312727 
L 356.175 252.312727 
" style="fill:none;stroke:#000000;stroke-dasharray:0.8,1.32;stroke-dashoffset:0;stroke-opacity:0.5;stroke-width:0.8;"/>
     </g>
     <g id="line2d_38">
      <g>
       <use style="stroke:#000000;stroke-width:0.8;" x="54.2" xlink:href="#md4a3043d2c" y="252.312727"/>
      </g>
     </g>
     <g id="text_20">
      <!-- 0.50 -->
      <g transform="translate(24.934375 256.111946)scale(0.1 -0.1)">
       <use xlink:href="#DejaVuSans-30"/>
       <use x="63.623047" xlink:href="#DejaVuSans-2e"/>
       <use x="95.410156" xlink:href="#DejaVuSans-35"/>
       <use x="159.033203" xlink:href="#DejaVuSans-30"/>
      </g>
     </g>
    </g>
    <g id="ytick_4">
     <g id="line2d_39">
      <path clip-path="url(#p032cd57460)" d="M 54.2 218.949091 
L 356.175 218.949091 
" style="fill:none;stroke:#000000;stroke-dasharray:0.8,1.32;stroke-dashoffset:0;stroke-opacity:0.5;stroke-width:0.8;"/>
     </g>
     <g id="line2d_40">
      <g>
       <use style="stroke:#000000;stroke-width:0.8;" x="54.2" xlink:href="#md4a3043d2c" y="218.949091"/>
      </g>
     </g>
     <g id="text_21">
      <!-- 0.75 -->
      <g transform="translate(24.934375 222.74831)scale(0.1 -0.1)">
       <defs>
        <path d="M 525 4666 
L 3525 4666 
L 3525 4397 
L 1831 0 
L 1172 0 
L 2766 4134 
L 525 4134 
L 525 4666 
z
" id="DejaVuSans-37" transform="scale(0.015625)"/>
       </defs>
       <use xlink:href="#DejaVuSans-30"/>
       <use x="63.623047" xlink:href="#DejaVuSans-2e"/>
       <use x="95.410156" xlink:href="#DejaVuSans-37"/>
       <use x="159.033203" xlink:href="#DejaVuSans-35"/>
      </g>
     </g>
    </g>
    <g id="ytick_5">
     <g id="line2d_41">
      <path clip-path="url(#p032cd57460)" d="M 54.2 185.585455 
L 356.175 185.585455 
" style="fill:none;stroke:#000000;stroke-dasharray:0.8,1.32;stroke-dashoffset:0;stroke-opacity:0.5;stroke-width:0.8;"/>
     </g>
     <g id="line2d_42">
      <g>
       <use style="stroke:#000000;stroke-width:0.8;" x="54.2" xlink:href="#md4a3043d2c" y="185.585455"/>
      </g>
     </g>
     <g id="text_22">
      <!-- 1.00 -->
      <g transform="translate(24.934375 189.384673)scale(0.1 -0.1)">
       <use xlink:href="#DejaVuSans-31"/>
       <use x="63.623047" xlink:href="#DejaVuSans-2e"/>
       <use x="95.410156" xlink:href="#DejaVuSans-30"/>
       <use x="159.033203" xlink:href="#DejaVuSans-30"/>
      </g>
     </g>
    </g>
    <g id="ytick_6">
     <g id="line2d_43">
      <path clip-path="url(#p032cd57460)" d="M 54.2 152.221818 
L 356.175 152.221818 
" style="fill:none;stroke:#000000;stroke-dasharray:0.8,1.32;stroke-dashoffset:0;stroke-opacity:0.5;stroke-width:0.8;"/>
     </g>
     <g id="line2d_44">
      <g>
       <use style="stroke:#000000;stroke-width:0.8;" x="54.2" xlink:href="#md4a3043d2c" y="152.221818"/>
      </g>
     </g>
     <g id="text_23">
      <!-- 1.25 -->
      <g transform="translate(24.934375 156.021037)scale(0.1 -0.1)">
       <use xlink:href="#DejaVuSans-31"/>
       <use x="63.623047" xlink:href="#DejaVuSans-2e"/>
       <use x="95.410156" xlink:href="#DejaVuSans-32"/>
       <use x="159.033203" xlink:href="#DejaVuSans-35"/>
      </g>
     </g>
    </g>
    <g id="ytick_7">
     <g id="line2d_45">
      <path clip-path="url(#p032cd57460)" d="M 54.2 118.858182 
L 356.175 118.858182 
" style="fill:none;stroke:#000000;stroke-dasharray:0.8,1.32;stroke-dashoffset:0;stroke-opacity:0.5;stroke-width:0.8;"/>
     </g>
     <g id="line2d_46">
      <g>
       <use style="stroke:#000000;stroke-width:0.8;" x="54.2" xlink:href="#md4a3043d2c" y="118.858182"/>
      </g>
     </g>
     <g id="text_24">
      <!-- 1.50 -->
      <g transform="translate(24.934375 122.657401)scale(0.1 -0.1)">
       <use xlink:href="#DejaVuSans-31"/>
       <use x="63.623047" xlink:href="#DejaVuSans-2e"/>
       <use x="95.410156" xlink:href="#DejaVuSans-35"/>
       <use x="159.033203" xlink:href="#DejaVuSans-30"/>
      </g>
     </g>
    </g>
    <g id="ytick_8">
     <g id="line2d_47">
      <path clip-path="url(#p032cd57460)" d="M 54.2 85.494545 
L 356.175 85.494545 
" style="fill:none;stroke:#000000;stroke-dasharray:0.8,1.32;stroke-dashoffset:0;stroke-opacity:0.5;stroke-width:0.8;"/>
     </g>
     <g id="line2d_48">
      <g>
       <use style="stroke:#000000;stroke-width:0.8;" x="54.2" xlink:href="#md4a3043d2c" y="85.494545"/>
      </g>
     </g>
     <g id="text_25">
      <!-- 1.75 -->
      <g transform="translate(24.934375 89.293764)scale(0.1 -0.1)">
       <use xlink:href="#DejaVuSans-31"/>
       <use x="63.623047" xlink:href="#DejaVuSans-2e"/>
       <use x="95.410156" xlink:href="#DejaVuSans-37"/>
       <use x="159.033203" xlink:href="#DejaVuSans-35"/>
      </g>
     </g>
    </g>
    <g id="ytick_9">
     <g id="line2d_49">
      <path clip-path="url(#p032cd57460)" d="M 54.2 52.130909 
L 356.175 52.130909 
" style="fill:none;stroke:#000000;stroke-dasharray:0.8,1.32;stroke-dashoffset:0;stroke-opacity:0.5;stroke-width:0.8;"/>
     </g>
     <g id="line2d_50">
      <g>
       <use style="stroke:#000000;stroke-width:0.8;" x="54.2" xlink:href="#md4a3043d2c" y="52.130909"/>
      </g>
     </g>
     <g id="text_26">
      <!-- 2.00 -->
      <g transform="translate(24.934375 55.930128)scale(0.1 -0.1)">
       <use xlink:href="#DejaVuSans-32"/>
       <use x="63.623047" xlink:href="#DejaVuSans-2e"/>
       <use x="95.410156" xlink:href="#DejaVuSans-30"/>
       <use x="159.033203" xlink:href="#DejaVuSans-30"/>
      </g>
     </g>
    </g>
    <g id="text_27">
     <!-- 7d avg doses per hundred population per day -->
     <g transform="translate(18.854688 286.7275)rotate(-90)scale(0.1 -0.1)">
      <defs>
       <path d="M 2906 2969 
L 2906 4863 
L 3481 4863 
L 3481 0 
L 2906 0 
L 2906 525 
Q 2725 213 2448 61 
Q 2172 -91 1784 -91 
Q 1150 -91 751 415 
Q 353 922 353 1747 
Q 353 2572 751 3078 
Q 1150 3584 1784 3584 
Q 2172 3584 2448 3432 
Q 2725 3281 2906 2969 
z
M 947 1747 
Q 947 1113 1208 752 
Q 1469 391 1925 391 
Q 2381 391 2643 752 
Q 2906 1113 2906 1747 
Q 2906 2381 2643 2742 
Q 2381 3103 1925 3103 
Q 1469 3103 1208 2742 
Q 947 2381 947 1747 
z
" id="DejaVuSans-64" transform="scale(0.015625)"/>
       <path id="DejaVuSans-20" transform="scale(0.015625)"/>
       <path d="M 2834 3397 
L 2834 2853 
Q 2591 2978 2328 3040 
Q 2066 3103 1784 3103 
Q 1356 3103 1142 2972 
Q 928 2841 928 2578 
Q 928 2378 1081 2264 
Q 1234 2150 1697 2047 
L 1894 2003 
Q 2506 1872 2764 1633 
Q 3022 1394 3022 966 
Q 3022 478 2636 193 
Q 2250 -91 1575 -91 
Q 1294 -91 989 -36 
Q 684 19 347 128 
L 347 722 
Q 666 556 975 473 
Q 1284 391 1588 391 
Q 1994 391 2212 530 
Q 2431 669 2431 922 
Q 2431 1156 2273 1281 
Q 2116 1406 1581 1522 
L 1381 1569 
Q 847 1681 609 1914 
Q 372 2147 372 2553 
Q 372 3047 722 3315 
Q 1072 3584 1716 3584 
Q 2034 3584 2315 3537 
Q 2597 3491 2834 3397 
z
" id="DejaVuSans-73" transform="scale(0.015625)"/>
       <path d="M 2631 2963 
Q 2534 3019 2420 3045 
Q 2306 3072 2169 3072 
Q 1681 3072 1420 2755 
Q 1159 2438 1159 1844 
L 1159 0 
L 581 0 
L 581 3500 
L 1159 3500 
L 1159 2956 
Q 1341 3275 1631 3429 
Q 1922 3584 2338 3584 
Q 2397 3584 2469 3576 
Q 2541 3569 2628 3553 
L 2631 2963 
z
" id="DejaVuSans-72" transform="scale(0.015625)"/>
       <path d="M 3513 2113 
L 3513 0 
L 2938 0 
L 2938 2094 
Q 2938 2591 2744 2837 
Q 2550 3084 2163 3084 
Q 1697 3084 1428 2787 
Q 1159 2491 1159 1978 
L 1159 0 
L 581 0 
L 581 4863 
L 1159 4863 
L 1159 2956 
Q 1366 3272 1645 3428 
Q 1925 3584 2291 3584 
Q 2894 3584 3203 3211 
Q 3513 2838 3513 2113 
z
" id="DejaVuSans-68" transform="scale(0.015625)"/>
       <path d="M 603 3500 
L 1178 3500 
L 1178 0 
L 603 0 
L 603 3500 
z
M 603 4863 
L 1178 4863 
L 1178 4134 
L 603 4134 
L 603 4863 
z
" id="DejaVuSans-69" transform="scale(0.015625)"/>
      </defs>
      <use xlink:href="#DejaVuSans-37"/>
      <use x="63.623047" xlink:href="#DejaVuSans-64"/>
      <use x="127.099609" xlink:href="#DejaVuSans-20"/>
      <use x="158.886719" xlink:href="#DejaVuSans-61"/>
      <use x="220.166016" xlink:href="#DejaVuSans-76"/>
      <use x="279.345703" xlink:href="#DejaVuSans-67"/>
      <use x="342.822266" xlink:href="#DejaVuSans-20"/>
      <use x="374.609375" xlink:href="#DejaVuSans-64"/>
      <use x="438.085938" xlink:href="#DejaVuSans-6f"/>
      <use x="499.267578" xlink:href="#DejaVuSans-73"/>
      <use x="551.367188" xlink:href="#DejaVuSans-65"/>
      <use x="612.890625" xlink:href="#DejaVuSans-73"/>
      <use x="664.990234" xlink:href="#DejaVuSans-20"/>
      <use x="696.777344" xlink:href="#DejaVuSans-70"/>
      <use x="760.253906" xlink:href="#DejaVuSans-65"/>
      <use x="821.777344" xlink:href="#DejaVuSans-72"/>
      <use x="862.890625" xlink:href="#DejaVuSans-20"/>
      <use x="894.677734" xlink:href="#DejaVuSans-68"/>
      <use x="958.056641" xlink:href="#DejaVuSans-75"/>
      <use x="1021.435547" xlink:href="#DejaVuSans-6e"/>
      <use x="1084.814453" xlink:href="#DejaVuSans-64"/>
      <use x="1148.291016" xlink:href="#DejaVuSans-72"/>
      <use x="1187.154297" xlink:href="#DejaVuSans-65"/>
      <use x="1248.677734" xlink:href="#DejaVuSans-64"/>
      <use x="1312.154297" xlink:href="#DejaVuSans-20"/>
      <use x="1343.941406" xlink:href="#DejaVuSans-70"/>
      <use x="1407.417969" xlink:href="#DejaVuSans-6f"/>
      <use x="1468.599609" xlink:href="#DejaVuSans-70"/>
      <use x="1532.076172" xlink:href="#DejaVuSans-75"/>
      <use x="1595.455078" xlink:href="#DejaVuSans-6c"/>
      <use x="1623.238281" xlink:href="#DejaVuSans-61"/>
      <use x="1684.517578" xlink:href="#DejaVuSans-74"/>
      <use x="1723.726562" xlink:href="#DejaVuSans-69"/>
      <use x="1751.509766" xlink:href="#DejaVuSans-6f"/>
      <use x="1812.691406" xlink:href="#DejaVuSans-6e"/>
      <use x="1876.070312" xlink:href="#DejaVuSans-20"/>
      <use x="1907.857422" xlink:href="#DejaVuSans-70"/>
      <use x="1971.333984" xlink:href="#DejaVuSans-65"/>
      <use x="2032.857422" xlink:href="#DejaVuSans-72"/>
      <use x="2073.970703" xlink:href="#DejaVuSans-20"/>
      <use x="2105.757812" xlink:href="#DejaVuSans-64"/>
      <use x="2169.234375" xlink:href="#DejaVuSans-61"/>
      <use x="2230.513672" xlink:href="#DejaVuSans-79"/>
     </g>
    </g>
   </g>
   <g id="line2d_51">
    <path clip-path="url(#p032cd57460)" d="M -1 308.113748 
L -0.254508 308.113748 
L -0.254508 307.284791 
L 0.983094 307.284791 
L 0.983094 306.365947 
L 3.458299 306.365947 
L 3.458299 303.194937 
L 4.695902 303.194937 
L 4.695902 303.484573 
L 5.933504 303.484573 
L 5.933504 303.35973 
L 8.408709 303.259856 
L 8.408709 303.140007 
L 10.883914 303.085076 
L 10.883914 301.422168 
L 12.121516 301.422168 
L 12.121516 303.01017 
L 13.359119 303.01017 
L 13.359119 302.575717 
L 15.834324 302.530773 
L 15.834324 302.430899 
L 17.071926 302.430899 
L 17.071926 305.067581 
L 18.309529 305.067581 
L 18.309529 302.390949 
L 20.784734 302.316043 
L 20.784734 302.241138 
L 22.022336 302.241138 
L 22.022336 301.596948 
L 23.259939 301.596948 
L 23.259939 300.932784 
L 24.497541 300.932784 
L 24.497541 300.198707 
L 25.735143 300.198707 
L 25.735143 230.711142 
L 26.972746 230.711142 
L 26.972746 229.557593 
L 28.210348 229.557593 
L 28.210348 226.291703 
L 29.447951 226.291703 
L 29.447951 222.846038 
L 30.685553 222.846038 
L 30.685553 219.250562 
L 31.923156 219.250562 
L 31.923156 216.553955 
L 33.160758 216.553955 
L 33.160758 213.367964 
L 34.398361 213.367964 
L 34.398361 277.147712 
L 35.635963 277.147712 
L 35.635963 278.406128 
L 36.873566 278.406128 
L 36.873566 277.771926 
L 38.111168 277.771926 
L 38.111168 281.037817 
L 39.34877 281.037817 
L 39.34877 279.29501 
L 40.586373 279.29501 
L 40.586373 278.036593 
L 41.823975 278.036593 
L 41.823975 278.59589 
L 43.061578 278.59589 
L 43.061578 279.070293 
L 44.29918 279.070293 
L 44.29918 277.587159 
L 45.536783 277.587159 
L 45.536783 278.660808 
L 46.774385 278.660808 
L 46.774385 277.986656 
L 48.011988 277.986656 
L 48.011988 283.389858 
L 49.24959 283.389858 
L 49.24959 284.188852 
L 50.487193 284.188852 
L 50.487193 280.748182 
L 51.724795 280.748182 
L 51.724795 280.03408 
L 52.962398 280.03408 
L 52.962398 281.077767 
L 54.2 281.077767 
L 54.2 282.096485 
L 55.437602 282.096485 
L 55.437602 282.690737 
L 56.675205 282.690737 
L 56.675205 277.192655 
L 57.912807 277.192655 
L 57.912807 275.719509 
L 59.15041 275.719509 
L 59.15041 278.16643 
L 60.388012 278.16643 
L 60.388012 276.808139 
L 61.625615 276.808139 
L 61.625615 274.311281 
L 62.863217 274.311281 
L 62.863217 272.258863 
L 64.10082 272.258863 
L 64.10082 271.30007 
L 65.338422 271.30007 
L 65.338422 270.526044 
L 66.576025 270.526044 
L 66.576025 272.119039 
L 69.05123 272.029152 
L 69.05123 271.769479 
L 70.288832 271.769479 
L 70.288832 272.353744 
L 71.526434 272.353744 
L 71.526434 271.534774 
L 72.764037 271.534774 
L 72.764037 271.165239 
L 74.001639 271.165239 
L 74.001639 272.408675 
L 75.239242 272.408675 
L 75.239242 269.99671 
L 76.476844 269.99671 
L 76.476844 267.669638 
L 77.714447 267.669638 
L 77.714447 265.881887 
L 78.952049 265.881887 
L 78.952049 265.527333 
L 81.427254 265.432453 
L 81.427254 265.722088 
L 82.664857 265.722088 
L 82.664857 261.861946 
L 83.902459 261.861946 
L 83.902459 262.496148 
L 85.140061 262.496148 
L 85.140061 262.66094 
L 86.377664 262.66094 
L 86.377664 261.926864 
L 87.615266 261.926864 
L 87.615266 258.940621 
L 88.852869 258.940621 
L 88.852869 260.01427 
L 90.090471 260.01427 
L 90.090471 258.476206 
L 91.328074 258.476206 
L 91.328074 266.561033 
L 92.565676 266.561033 
L 92.565676 263.080412 
L 93.803279 263.080412 
L 93.803279 262.471179 
L 95.040881 262.471179 
L 95.040881 258.695929 
L 96.278484 258.695929 
L 96.278484 257.66223 
L 97.516086 257.66223 
L 97.516086 251.799607 
L 98.753689 251.799607 
L 98.753689 250.336448 
L 99.991291 250.336448 
L 99.991291 240.134285 
L 102.466496 240.079354 
L 102.466496 238.271629 
L 103.704098 238.271629 
L 103.704098 239.480108 
L 104.941701 239.480108 
L 104.941701 238.965755 
L 106.179303 238.965755 
L 106.179303 241.392701 
L 107.416906 241.392701 
L 107.416906 241.003192 
L 108.654508 241.003192 
L 108.654508 248.778408 
L 109.892111 248.778408 
L 109.892111 244.698542 
L 111.129713 244.698542 
L 111.129713 242.611168 
L 112.367316 242.611168 
L 112.367316 243.28532 
L 113.604918 243.28532 
L 113.604918 244.868328 
L 114.84252 244.868328 
L 114.84252 245.257838 
L 116.080123 245.257838 
L 116.080123 243.165471 
L 117.317725 243.165471 
L 117.317725 239.29534 
L 118.555328 239.29534 
L 118.555328 244.134252 
L 119.79293 244.134252 
L 119.79293 248.224106 
L 121.030533 248.224106 
L 121.030533 248.643578 
L 122.268135 248.643578 
L 122.268135 248.318986 
L 123.505738 248.318986 
L 123.505738 249.018107 
L 124.74334 249.018107 
L 124.74334 250.451303 
L 125.980943 250.451303 
L 125.980943 249.80212 
L 127.218545 249.80212 
L 127.218545 248.174168 
L 128.456148 248.174168 
L 128.456148 243.969459 
L 129.69375 243.969459 
L 129.69375 241.917042 
L 130.931352 241.917042 
L 130.931352 239.16051 
L 132.168955 239.16051 
L 132.168955 235.919588 
L 133.406557 235.919588 
L 133.406557 232.329106 
L 134.64416 232.329106 
L 134.64416 229.99704 
L 135.881762 229.99704 
L 135.881762 228.124397 
L 137.119365 228.124397 
L 137.119365 230.276688 
L 138.356967 230.276688 
L 138.356967 228.55885 
L 139.59457 228.55885 
L 139.59457 229.64748 
L 140.832172 229.64748 
L 140.832172 228.55885 
L 142.069775 228.55885 
L 142.069775 229.68743 
L 143.307377 229.68743 
L 143.307377 227.919654 
L 144.54498 227.919654 
L 144.54498 227.450245 
L 145.782582 227.450245 
L 145.782582 226.061992 
L 147.020184 226.061992 
L 147.020184 227.310421 
L 148.257787 227.310421 
L 148.257787 226.431527 
L 149.495389 226.431527 
L 149.495389 227.73988 
L 150.732992 227.73988 
L 150.732992 230.366575 
L 151.970594 230.366575 
L 151.970594 226.930898 
L 153.208197 226.930898 
L 153.208197 227.155616 
L 154.445799 227.155616 
L 154.445799 222.56639 
L 155.683402 222.56639 
L 155.683402 218.516486 
L 156.921004 218.516486 
L 156.921004 214.696293 
L 158.158607 214.696293 
L 158.158607 210.012187 
L 159.396209 210.012187 
L 159.396209 205.727578 
L 160.633811 205.727578 
L 160.633811 202.616492 
L 161.871414 202.616492 
L 161.871414 198.217028 
L 163.109016 198.217028 
L 163.109016 197.657732 
L 164.346619 197.657732 
L 164.346619 196.344384 
L 165.584221 196.344384 
L 165.584221 195.310685 
L 166.821824 195.310685 
L 166.821824 193.198343 
L 168.059426 193.198343 
L 168.059426 189.458049 
L 169.297029 189.458049 
L 169.297029 192.674003 
L 170.534631 192.674003 
L 170.534631 192.848783 
L 171.772234 192.848783 
L 171.772234 190.941183 
L 174.247439 190.981133 
L 174.247439 188.55918 
L 175.485041 188.55918 
L 175.485041 191.046051 
L 176.722643 191.046051 
L 176.722643 188.044828 
L 177.960246 188.044828 
L 177.960246 187.435594 
L 179.197848 187.435594 
L 179.197848 186.69153 
L 180.435451 186.69153 
L 180.435451 185.6029 
L 181.673053 185.6029 
L 181.673053 184.034873 
L 182.910656 184.034873 
L 182.910656 180.209686 
L 184.148258 180.209686 
L 184.148258 174.986259 
L 185.385861 174.986259 
L 185.385861 159.190658 
L 186.623463 159.190658 
L 186.623463 134.258312 
L 187.861066 134.258312 
L 187.861066 117.977958 
L 189.098668 117.977958 
L 189.098668 123.706363 
L 190.33627 123.706363 
L 190.33627 96.873393 
L 191.573873 96.873393 
L 191.573873 71.53423 
L 192.811475 71.53423 
L 192.811475 81.466102 
L 194.049078 81.466102 
L 194.049078 108.537191 
L 195.28668 108.537191 
L 195.28668 85.440772 
L 196.524283 85.440772 
L 196.524283 107.047242 
L 197.761885 107.047242 
L 197.761885 93.66865 
L 198.999488 93.66865 
L 198.999488 99.743398 
L 200.23709 99.743398 
L 200.23709 132.03594 
L 201.474693 132.03594 
L 201.474693 133.601049 
L 203.949898 133.627577 
L 203.949898 163.0817 
L 205.1875 163.0817 
L 205.1875 124.152916 
L 206.425102 124.152916 
L 206.425102 120.44794 
L 207.662705 120.44794 
L 207.662705 138.605863 
L 208.900307 138.605863 
L 208.900307 125.355486 
L 210.13791 125.355486 
L 210.13791 114.611938 
L 211.375512 114.611938 
L 211.375512 104.222087 
L 212.613115 104.222087 
L 212.613115 107.131245 
L 213.850717 107.131245 
L 213.850717 125.214008 
L 215.08832 125.214008 
L 215.08832 129.104675 
L 216.325922 129.104675 
L 216.325922 124.289974 
L 217.563525 124.289974 
L 217.563525 124.289974 
" style="fill:none;stroke:#1f77b4;stroke-linecap:square;stroke-width:1.5;"/>
   </g>
   <g id="line2d_52">
    <path clip-path="url(#p032cd57460)" d="M 217.563525 105.512727 
L 242.315574 105.512727 
L 242.315574 78.821818 
L 252.216393 78.821818 
L 252.216393 319.04 
L 465.084016 319.04 
L 465.084016 319.04 
" style="fill:none;stroke:#ff7f0e;stroke-linecap:square;stroke-width:1.5;"/>
   </g>
   <g id="patch_3">
    <path d="M 54.2 319.04 
L 54.2 25.44 
" style="fill:none;stroke:#000000;stroke-linecap:square;stroke-linejoin:miter;stroke-width:0.8;"/>
   </g>
   <g id="patch_4">
    <path d="M 356.175 319.04 
L 356.175 25.44 
" style="fill:none;stroke:#000000;stroke-linecap:square;stroke-linejoin:miter;stroke-width:0.8;"/>
   </g>
   <g id="patch_5">
    <path d="M 54.2 319.04 
L 356.175 319.04 
" style="fill:none;stroke:#000000;stroke-linecap:square;stroke-linejoin:miter;stroke-width:0.8;"/>
   </g>
   <g id="patch_6">
    <path d="M 54.2 25.44 
L 356.175 25.44 
" style="fill:none;stroke:#000000;stroke-linecap:square;stroke-linejoin:miter;stroke-width:0.8;"/>
   </g>
   <g id="text_28">
    <!-- ACT daily vaccinations per capita -->
    <g transform="translate(105.295937 19.44)scale(0.12 -0.12)">
     <defs>
      <path d="M 4122 4306 
L 4122 3641 
Q 3803 3938 3442 4084 
Q 3081 4231 2675 4231 
Q 1875 4231 1450 3742 
Q 1025 3253 1025 2328 
Q 1025 1406 1450 917 
Q 1875 428 2675 428 
Q 3081 428 3442 575 
Q 3803 722 4122 1019 
L 4122 359 
Q 3791 134 3420 21 
Q 3050 -91 2638 -91 
Q 1578 -91 968 557 
Q 359 1206 359 2328 
Q 359 3453 968 4101 
Q 1578 4750 2638 4750 
Q 3056 4750 3426 4639 
Q 3797 4528 4122 4306 
z
" id="DejaVuSans-43" transform="scale(0.015625)"/>
      <path d="M -19 4666 
L 3928 4666 
L 3928 4134 
L 2272 4134 
L 2272 0 
L 1638 0 
L 1638 4134 
L -19 4134 
L -19 4666 
z
" id="DejaVuSans-54" transform="scale(0.015625)"/>
     </defs>
     <use xlink:href="#DejaVuSans-41"/>
     <use x="66.658203" xlink:href="#DejaVuSans-43"/>
     <use x="136.482422" xlink:href="#DejaVuSans-54"/>
     <use x="197.566406" xlink:href="#DejaVuSans-20"/>
     <use x="229.353516" xlink:href="#DejaVuSans-64"/>
     <use x="292.830078" xlink:href="#DejaVuSans-61"/>
     <use x="354.109375" xlink:href="#DejaVuSans-69"/>
     <use x="381.892578" xlink:href="#DejaVuSans-6c"/>
     <use x="409.675781" xlink:href="#DejaVuSans-79"/>
     <use x="468.855469" xlink:href="#DejaVuSans-20"/>
     <use x="500.642578" xlink:href="#DejaVuSans-76"/>
     <use x="559.822266" xlink:href="#DejaVuSans-61"/>
     <use x="621.101562" xlink:href="#DejaVuSans-63"/>
     <use x="676.082031" xlink:href="#DejaVuSans-63"/>
     <use x="731.0625" xlink:href="#DejaVuSans-69"/>
     <use x="758.845703" xlink:href="#DejaVuSans-6e"/>
     <use x="822.224609" xlink:href="#DejaVuSans-61"/>
     <use x="883.503906" xlink:href="#DejaVuSans-74"/>
     <use x="922.712891" xlink:href="#DejaVuSans-69"/>
     <use x="950.496094" xlink:href="#DejaVuSans-6f"/>
     <use x="1011.677734" xlink:href="#DejaVuSans-6e"/>
     <use x="1075.056641" xlink:href="#DejaVuSans-73"/>
     <use x="1127.15625" xlink:href="#DejaVuSans-20"/>
     <use x="1158.943359" xlink:href="#DejaVuSans-70"/>
     <use x="1222.419922" xlink:href="#DejaVuSans-65"/>
     <use x="1283.943359" xlink:href="#DejaVuSans-72"/>
     <use x="1325.056641" xlink:href="#DejaVuSans-20"/>
     <use x="1356.84375" xlink:href="#DejaVuSans-63"/>
     <use x="1411.824219" xlink:href="#DejaVuSans-61"/>
     <use x="1473.103516" xlink:href="#DejaVuSans-70"/>
     <use x="1536.580078" xlink:href="#DejaVuSans-69"/>
     <use x="1564.363281" xlink:href="#DejaVuSans-74"/>
     <use x="1603.572266" xlink:href="#DejaVuSans-61"/>
    </g>
   </g>
   <g id="legend_1">
    <g id="patch_7">
     <path d="M 201.292187 62.79625 
L 349.175 62.79625 
Q 351.175 62.79625 351.175 60.79625 
L 351.175 32.44 
Q 351.175 30.44 349.175 30.44 
L 201.292187 30.44 
Q 199.292187 30.44 199.292187 32.44 
L 199.292187 60.79625 
Q 199.292187 62.79625 201.292187 62.79625 
z
" style="fill:#ffffff;opacity:0.8;stroke:#cccccc;stroke-linejoin:miter;"/>
    </g>
    <g id="line2d_53">
     <path d="M 203.292187 38.538437 
L 223.292187 38.538437 
" style="fill:none;stroke:#1f77b4;stroke-linecap:square;stroke-width:1.5;"/>
    </g>
    <g id="line2d_54"/>
    <g id="text_29">
     <!-- Actual -->
     <g transform="translate(231.292187 42.038437)scale(0.1 -0.1)">
      <use xlink:href="#DejaVuSans-41"/>
      <use x="66.658203" xlink:href="#DejaVuSans-63"/>
      <use x="121.638672" xlink:href="#DejaVuSans-74"/>
      <use x="160.847656" xlink:href="#DejaVuSans-75"/>
      <use x="224.226562" xlink:href="#DejaVuSans-61"/>
      <use x="285.505859" xlink:href="#DejaVuSans-6c"/>
     </g>
    </g>
    <g id="line2d_55">
     <path d="M 203.292187 53.216563 
L 223.292187 53.216563 
" style="fill:none;stroke:#ff7f0e;stroke-linecap:square;stroke-width:1.5;"/>
    </g>
    <g id="line2d_56"/>
    <g id="text_30">
     <!-- Assumed for projection -->
     <g transform="translate(231.292187 56.716563)scale(0.1 -0.1)">
      <defs>
       <path d="M 3328 2828 
Q 3544 3216 3844 3400 
Q 4144 3584 4550 3584 
Q 5097 3584 5394 3201 
Q 5691 2819 5691 2113 
L 5691 0 
L 5113 0 
L 5113 2094 
Q 5113 2597 4934 2840 
Q 4756 3084 4391 3084 
Q 3944 3084 3684 2787 
Q 3425 2491 3425 1978 
L 3425 0 
L 2847 0 
L 2847 2094 
Q 2847 2600 2669 2842 
Q 2491 3084 2119 3084 
Q 1678 3084 1418 2786 
Q 1159 2488 1159 1978 
L 1159 0 
L 581 0 
L 581 3500 
L 1159 3500 
L 1159 2956 
Q 1356 3278 1631 3431 
Q 1906 3584 2284 3584 
Q 2666 3584 2933 3390 
Q 3200 3197 3328 2828 
z
" id="DejaVuSans-6d" transform="scale(0.015625)"/>
       <path d="M 2375 4863 
L 2375 4384 
L 1825 4384 
Q 1516 4384 1395 4259 
Q 1275 4134 1275 3809 
L 1275 3500 
L 2222 3500 
L 2222 3053 
L 1275 3053 
L 1275 0 
L 697 0 
L 697 3053 
L 147 3053 
L 147 3500 
L 697 3500 
L 697 3744 
Q 697 4328 969 4595 
Q 1241 4863 1831 4863 
L 2375 4863 
z
" id="DejaVuSans-66" transform="scale(0.015625)"/>
       <path d="M 603 3500 
L 1178 3500 
L 1178 -63 
Q 1178 -731 923 -1031 
Q 669 -1331 103 -1331 
L -116 -1331 
L -116 -844 
L 38 -844 
Q 366 -844 484 -692 
Q 603 -541 603 -63 
L 603 3500 
z
M 603 4863 
L 1178 4863 
L 1178 4134 
L 603 4134 
L 603 4863 
z
" id="DejaVuSans-6a" transform="scale(0.015625)"/>
      </defs>
      <use xlink:href="#DejaVuSans-41"/>
      <use x="68.408203" xlink:href="#DejaVuSans-73"/>
      <use x="120.507812" xlink:href="#DejaVuSans-73"/>
      <use x="172.607422" xlink:href="#DejaVuSans-75"/>
      <use x="235.986328" xlink:href="#DejaVuSans-6d"/>
      <use x="333.398438" xlink:href="#DejaVuSans-65"/>
      <use x="394.921875" xlink:href="#DejaVuSans-64"/>
      <use x="458.398438" xlink:href="#DejaVuSans-20"/>
      <use x="490.185547" xlink:href="#DejaVuSans-66"/>
      <use x="525.390625" xlink:href="#DejaVuSans-6f"/>
      <use x="586.572266" xlink:href="#DejaVuSans-72"/>
      <use x="627.685547" xlink:href="#DejaVuSans-20"/>
      <use x="659.472656" xlink:href="#DejaVuSans-70"/>
      <use x="722.949219" xlink:href="#DejaVuSans-72"/>
      <use x="761.8125" xlink:href="#DejaVuSans-6f"/>
      <use x="822.994141" xlink:href="#DejaVuSans-6a"/>
      <use x="850.777344" xlink:href="#DejaVuSans-65"/>
      <use x="912.300781" xlink:href="#DejaVuSans-63"/>
      <use x="967.28125" xlink:href="#DejaVuSans-74"/>
      <use x="1006.490234" xlink:href="#DejaVuSans-69"/>
      <use x="1034.273438" xlink:href="#DejaVuSans-6f"/>
      <use x="1095.455078" xlink:href="#DejaVuSans-6e"/>
     </g>
    </g>
   </g>
  </g>
  <g id="axes_2">
   <g id="patch_8">
    <path d="M 407.225 319.04 
L 709.2 319.04 
L 709.2 25.44 
L 407.225 25.44 
z
" style="fill:#ffffff;"/>
   </g>
   <g id="matplotlib.axis_3">
    <g id="xtick_17">
     <g id="line2d_57">
      <path clip-path="url(#p09ae2e2923)" d="M 407.225 319.04 
L 407.225 25.44 
" style="fill:none;stroke:#000000;stroke-dasharray:0.8,1.32;stroke-dashoffset:0;stroke-opacity:0.5;stroke-width:0.8;"/>
     </g>
     <g id="line2d_58">
      <g>
       <use style="stroke:#000000;stroke-width:0.8;" x="407.225" xlink:href="#m8742254057" y="319.04"/>
      </g>
     </g>
     <g id="text_31">
      <!-- May -->
      <g transform="translate(396.8875 333.638438)scale(0.1 -0.1)">
       <use xlink:href="#DejaVuSans-4d"/>
       <use x="86.279297" xlink:href="#DejaVuSans-61"/>
       <use x="147.558594" xlink:href="#DejaVuSans-79"/>
      </g>
     </g>
    </g>
    <g id="xtick_18">
     <g id="line2d_59">
      <path clip-path="url(#p09ae2e2923)" d="M 424.551434 319.04 
L 424.551434 25.44 
" style="fill:none;stroke:#000000;stroke-dasharray:0.8,1.32;stroke-dashoffset:0;stroke-opacity:0.5;stroke-width:0.8;"/>
     </g>
     <g id="line2d_60">
      <g>
       <use style="stroke:#000000;stroke-width:0.8;" x="424.551434" xlink:href="#m8742254057" y="319.04"/>
      </g>
     </g>
     <g id="text_32">
      <!-- 15 -->
      <g transform="translate(418.188934 333.638438)scale(0.1 -0.1)">
       <use xlink:href="#DejaVuSans-31"/>
       <use x="63.623047" xlink:href="#DejaVuSans-35"/>
      </g>
     </g>
    </g>
    <g id="xtick_19">
     <g id="line2d_61">
      <path clip-path="url(#p09ae2e2923)" d="M 445.590676 319.04 
L 445.590676 25.44 
" style="fill:none;stroke:#000000;stroke-dasharray:0.8,1.32;stroke-dashoffset:0;stroke-opacity:0.5;stroke-width:0.8;"/>
     </g>
     <g id="line2d_62">
      <g>
       <use style="stroke:#000000;stroke-width:0.8;" x="445.590676" xlink:href="#m8742254057" y="319.04"/>
      </g>
     </g>
     <g id="text_33">
      <!-- Jun -->
      <g transform="translate(437.778176 333.638438)scale(0.1 -0.1)">
       <use xlink:href="#DejaVuSans-4a"/>
       <use x="29.492188" xlink:href="#DejaVuSans-75"/>
       <use x="92.871094" xlink:href="#DejaVuSans-6e"/>
      </g>
     </g>
    </g>
    <g id="xtick_20">
     <g id="line2d_63">
      <path clip-path="url(#p09ae2e2923)" d="M 462.917111 319.04 
L 462.917111 25.44 
" style="fill:none;stroke:#000000;stroke-dasharray:0.8,1.32;stroke-dashoffset:0;stroke-opacity:0.5;stroke-width:0.8;"/>
     </g>
     <g id="line2d_64">
      <g>
       <use style="stroke:#000000;stroke-width:0.8;" x="462.917111" xlink:href="#m8742254057" y="319.04"/>
      </g>
     </g>
     <g id="text_34">
      <!-- 15 -->
      <g transform="translate(456.554611 333.638438)scale(0.1 -0.1)">
       <use xlink:href="#DejaVuSans-31"/>
       <use x="63.623047" xlink:href="#DejaVuSans-35"/>
      </g>
     </g>
    </g>
    <g id="xtick_21">
     <g id="line2d_65">
      <path clip-path="url(#p09ae2e2923)" d="M 482.71875 319.04 
L 482.71875 25.44 
" style="fill:none;stroke:#000000;stroke-dasharray:0.8,1.32;stroke-dashoffset:0;stroke-opacity:0.5;stroke-width:0.8;"/>
     </g>
     <g id="line2d_66">
      <g>
       <use style="stroke:#000000;stroke-width:0.8;" x="482.71875" xlink:href="#m8742254057" y="319.04"/>
      </g>
     </g>
     <g id="text_35">
      <!-- Jul -->
      <g transform="translate(476.685938 333.638438)scale(0.1 -0.1)">
       <use xlink:href="#DejaVuSans-4a"/>
       <use x="29.492188" xlink:href="#DejaVuSans-75"/>
       <use x="92.871094" xlink:href="#DejaVuSans-6c"/>
      </g>
     </g>
    </g>
    <g id="xtick_22">
     <g id="line2d_67">
      <path clip-path="url(#p09ae2e2923)" d="M 500.045184 319.04 
L 500.045184 25.44 
" style="fill:none;stroke:#000000;stroke-dasharray:0.8,1.32;stroke-dashoffset:0;stroke-opacity:0.5;stroke-width:0.8;"/>
     </g>
     <g id="line2d_68">
      <g>
       <use style="stroke:#000000;stroke-width:0.8;" x="500.045184" xlink:href="#m8742254057" y="319.04"/>
      </g>
     </g>
     <g id="text_36">
      <!-- 15 -->
      <g transform="translate(493.682684 333.638438)scale(0.1 -0.1)">
       <use xlink:href="#DejaVuSans-31"/>
       <use x="63.623047" xlink:href="#DejaVuSans-35"/>
      </g>
     </g>
    </g>
    <g id="xtick_23">
     <g id="line2d_69">
      <path clip-path="url(#p09ae2e2923)" d="M 521.084426 319.04 
L 521.084426 25.44 
" style="fill:none;stroke:#000000;stroke-dasharray:0.8,1.32;stroke-dashoffset:0;stroke-opacity:0.5;stroke-width:0.8;"/>
     </g>
     <g id="line2d_70">
      <g>
       <use style="stroke:#000000;stroke-width:0.8;" x="521.084426" xlink:href="#m8742254057" y="319.04"/>
      </g>
     </g>
     <g id="text_37">
      <!-- Aug -->
      <g transform="translate(511.321145 333.638438)scale(0.1 -0.1)">
       <use xlink:href="#DejaVuSans-41"/>
       <use x="68.408203" xlink:href="#DejaVuSans-75"/>
       <use x="131.787109" xlink:href="#DejaVuSans-67"/>
      </g>
     </g>
    </g>
    <g id="xtick_24">
     <g id="line2d_71">
      <path clip-path="url(#p09ae2e2923)" d="M 538.410861 319.04 
L 538.410861 25.44 
" style="fill:none;stroke:#000000;stroke-dasharray:0.8,1.32;stroke-dashoffset:0;stroke-opacity:0.5;stroke-width:0.8;"/>
     </g>
     <g id="line2d_72">
      <g>
       <use style="stroke:#000000;stroke-width:0.8;" x="538.410861" xlink:href="#m8742254057" y="319.04"/>
      </g>
     </g>
     <g id="text_38">
      <!-- 15 -->
      <g transform="translate(532.048361 333.638438)scale(0.1 -0.1)">
       <use xlink:href="#DejaVuSans-31"/>
       <use x="63.623047" xlink:href="#DejaVuSans-35"/>
      </g>
     </g>
    </g>
    <g id="xtick_25">
     <g id="line2d_73">
      <path clip-path="url(#p09ae2e2923)" d="M 559.450102 319.04 
L 559.450102 25.44 
" style="fill:none;stroke:#000000;stroke-dasharray:0.8,1.32;stroke-dashoffset:0;stroke-opacity:0.5;stroke-width:0.8;"/>
     </g>
     <g id="line2d_74">
      <g>
       <use style="stroke:#000000;stroke-width:0.8;" x="559.450102" xlink:href="#m8742254057" y="319.04"/>
      </g>
     </g>
     <g id="text_39">
      <!-- Sep -->
      <g transform="translate(550.025102 333.638438)scale(0.1 -0.1)">
       <use xlink:href="#DejaVuSans-53"/>
       <use x="63.476562" xlink:href="#DejaVuSans-65"/>
       <use x="125" xlink:href="#DejaVuSans-70"/>
      </g>
     </g>
    </g>
    <g id="xtick_26">
     <g id="line2d_75">
      <path clip-path="url(#p09ae2e2923)" d="M 576.776537 319.04 
L 576.776537 25.44 
" style="fill:none;stroke:#000000;stroke-dasharray:0.8,1.32;stroke-dashoffset:0;stroke-opacity:0.5;stroke-width:0.8;"/>
     </g>
     <g id="line2d_76">
      <g>
       <use style="stroke:#000000;stroke-width:0.8;" x="576.776537" xlink:href="#m8742254057" y="319.04"/>
      </g>
     </g>
     <g id="text_40">
      <!-- 15 -->
      <g transform="translate(570.414037 333.638438)scale(0.1 -0.1)">
       <use xlink:href="#DejaVuSans-31"/>
       <use x="63.623047" xlink:href="#DejaVuSans-35"/>
      </g>
     </g>
    </g>
    <g id="xtick_27">
     <g id="line2d_77">
      <path clip-path="url(#p09ae2e2923)" d="M 596.578176 319.04 
L 596.578176 25.44 
" style="fill:none;stroke:#000000;stroke-dasharray:0.8,1.32;stroke-dashoffset:0;stroke-opacity:0.5;stroke-width:0.8;"/>
     </g>
     <g id="line2d_78">
      <g>
       <use style="stroke:#000000;stroke-width:0.8;" x="596.578176" xlink:href="#m8742254057" y="319.04"/>
      </g>
     </g>
     <g id="text_41">
      <!-- Oct -->
      <g transform="translate(587.932864 333.638438)scale(0.1 -0.1)">
       <use xlink:href="#DejaVuSans-4f"/>
       <use x="78.710938" xlink:href="#DejaVuSans-63"/>
       <use x="133.691406" xlink:href="#DejaVuSans-74"/>
      </g>
     </g>
    </g>
    <g id="xtick_28">
     <g id="line2d_79">
      <path clip-path="url(#p09ae2e2923)" d="M 613.904611 319.04 
L 613.904611 25.44 
" style="fill:none;stroke:#000000;stroke-dasharray:0.8,1.32;stroke-dashoffset:0;stroke-opacity:0.5;stroke-width:0.8;"/>
     </g>
     <g id="line2d_80">
      <g>
       <use style="stroke:#000000;stroke-width:0.8;" x="613.904611" xlink:href="#m8742254057" y="319.04"/>
      </g>
     </g>
     <g id="text_42">
      <!-- 15 -->
      <g transform="translate(607.542111 333.638438)scale(0.1 -0.1)">
       <use xlink:href="#DejaVuSans-31"/>
       <use x="63.623047" xlink:href="#DejaVuSans-35"/>
      </g>
     </g>
    </g>
    <g id="xtick_29">
     <g id="line2d_81">
      <path clip-path="url(#p09ae2e2923)" d="M 634.943852 319.04 
L 634.943852 25.44 
" style="fill:none;stroke:#000000;stroke-dasharray:0.8,1.32;stroke-dashoffset:0;stroke-opacity:0.5;stroke-width:0.8;"/>
     </g>
     <g id="line2d_82">
      <g>
       <use style="stroke:#000000;stroke-width:0.8;" x="634.943852" xlink:href="#m8742254057" y="319.04"/>
      </g>
     </g>
     <g id="text_43">
      <!-- Nov -->
      <g transform="translate(625.184477 333.638438)scale(0.1 -0.1)">
       <use xlink:href="#DejaVuSans-4e"/>
       <use x="74.804688" xlink:href="#DejaVuSans-6f"/>
       <use x="135.986328" xlink:href="#DejaVuSans-76"/>
      </g>
     </g>
    </g>
    <g id="xtick_30">
     <g id="line2d_83">
      <path clip-path="url(#p09ae2e2923)" d="M 652.270287 319.04 
L 652.270287 25.44 
" style="fill:none;stroke:#000000;stroke-dasharray:0.8,1.32;stroke-dashoffset:0;stroke-opacity:0.5;stroke-width:0.8;"/>
     </g>
     <g id="line2d_84">
      <g>
       <use style="stroke:#000000;stroke-width:0.8;" x="652.270287" xlink:href="#m8742254057" y="319.04"/>
      </g>
     </g>
     <g id="text_44">
      <!-- 15 -->
      <g transform="translate(645.907787 333.638438)scale(0.1 -0.1)">
       <use xlink:href="#DejaVuSans-31"/>
       <use x="63.623047" xlink:href="#DejaVuSans-35"/>
      </g>
     </g>
    </g>
    <g id="xtick_31">
     <g id="line2d_85">
      <path clip-path="url(#p09ae2e2923)" d="M 672.071926 319.04 
L 672.071926 25.44 
" style="fill:none;stroke:#000000;stroke-dasharray:0.8,1.32;stroke-dashoffset:0;stroke-opacity:0.5;stroke-width:0.8;"/>
     </g>
     <g id="line2d_86">
      <g>
       <use style="stroke:#000000;stroke-width:0.8;" x="672.071926" xlink:href="#m8742254057" y="319.04"/>
      </g>
     </g>
     <g id="text_45">
      <!-- Dec -->
      <g transform="translate(662.396145 333.638438)scale(0.1 -0.1)">
       <use xlink:href="#DejaVuSans-44"/>
       <use x="77.001953" xlink:href="#DejaVuSans-65"/>
       <use x="138.525391" xlink:href="#DejaVuSans-63"/>
      </g>
     </g>
    </g>
    <g id="xtick_32">
     <g id="line2d_87">
      <path clip-path="url(#p09ae2e2923)" d="M 689.398361 319.04 
L 689.398361 25.44 
" style="fill:none;stroke:#000000;stroke-dasharray:0.8,1.32;stroke-dashoffset:0;stroke-opacity:0.5;stroke-width:0.8;"/>
     </g>
     <g id="line2d_88">
      <g>
       <use style="stroke:#000000;stroke-width:0.8;" x="689.398361" xlink:href="#m8742254057" y="319.04"/>
      </g>
     </g>
     <g id="text_46">
      <!-- 15 -->
      <g transform="translate(683.035861 333.638438)scale(0.1 -0.1)">
       <use xlink:href="#DejaVuSans-31"/>
       <use x="63.623047" xlink:href="#DejaVuSans-35"/>
      </g>
     </g>
    </g>
    <g id="text_47">
     <!-- 2021-Dec -->
     <g transform="translate(660.790625 346.316563)scale(0.1 -0.1)">
      <use xlink:href="#DejaVuSans-32"/>
      <use x="63.623047" xlink:href="#DejaVuSans-30"/>
      <use x="127.246094" xlink:href="#DejaVuSans-32"/>
      <use x="190.869141" xlink:href="#DejaVuSans-31"/>
      <use x="254.492188" xlink:href="#DejaVuSans-2d"/>
      <use x="290.576172" xlink:href="#DejaVuSans-44"/>
      <use x="367.578125" xlink:href="#DejaVuSans-65"/>
      <use x="429.101562" xlink:href="#DejaVuSans-63"/>
     </g>
    </g>
   </g>
   <g id="matplotlib.axis_4">
    <g id="ytick_10">
     <g id="line2d_89">
      <path clip-path="url(#p09ae2e2923)" d="M 407.225 319.04 
L 709.2 319.04 
" style="fill:none;stroke:#000000;stroke-dasharray:0.8,1.32;stroke-dashoffset:0;stroke-opacity:0.5;stroke-width:0.8;"/>
     </g>
     <g id="line2d_90">
      <g>
       <use style="stroke:#000000;stroke-width:0.8;" x="407.225" xlink:href="#md4a3043d2c" y="319.04"/>
      </g>
     </g>
     <g id="text_48">
      <!-- 0 -->
      <g transform="translate(393.8625 322.839219)scale(0.1 -0.1)">
       <use xlink:href="#DejaVuSans-30"/>
      </g>
     </g>
    </g>
    <g id="ytick_11">
     <g id="line2d_91">
      <path clip-path="url(#p09ae2e2923)" d="M 407.225 282.34 
L 709.2 282.34 
" style="fill:none;stroke:#000000;stroke-dasharray:0.8,1.32;stroke-dashoffset:0;stroke-opacity:0.5;stroke-width:0.8;"/>
     </g>
     <g id="line2d_92">
      <g>
       <use style="stroke:#000000;stroke-width:0.8;" x="407.225" xlink:href="#md4a3043d2c" y="282.34"/>
      </g>
     </g>
     <g id="text_49">
      <!-- 25 -->
      <g transform="translate(387.5 286.139219)scale(0.1 -0.1)">
       <use xlink:href="#DejaVuSans-32"/>
       <use x="63.623047" xlink:href="#DejaVuSans-35"/>
      </g>
     </g>
    </g>
    <g id="ytick_12">
     <g id="line2d_93">
      <path clip-path="url(#p09ae2e2923)" d="M 407.225 245.64 
L 709.2 245.64 
" style="fill:none;stroke:#000000;stroke-dasharray:0.8,1.32;stroke-dashoffset:0;stroke-opacity:0.5;stroke-width:0.8;"/>
     </g>
     <g id="line2d_94">
      <g>
       <use style="stroke:#000000;stroke-width:0.8;" x="407.225" xlink:href="#md4a3043d2c" y="245.64"/>
      </g>
     </g>
     <g id="text_50">
      <!-- 50 -->
      <g transform="translate(387.5 249.439219)scale(0.1 -0.1)">
       <use xlink:href="#DejaVuSans-35"/>
       <use x="63.623047" xlink:href="#DejaVuSans-30"/>
      </g>
     </g>
    </g>
    <g id="ytick_13">
     <g id="line2d_95">
      <path clip-path="url(#p09ae2e2923)" d="M 407.225 208.94 
L 709.2 208.94 
" style="fill:none;stroke:#000000;stroke-dasharray:0.8,1.32;stroke-dashoffset:0;stroke-opacity:0.5;stroke-width:0.8;"/>
     </g>
     <g id="line2d_96">
      <g>
       <use style="stroke:#000000;stroke-width:0.8;" x="407.225" xlink:href="#md4a3043d2c" y="208.94"/>
      </g>
     </g>
     <g id="text_51">
      <!-- 75 -->
      <g transform="translate(387.5 212.739219)scale(0.1 -0.1)">
       <use xlink:href="#DejaVuSans-37"/>
       <use x="63.623047" xlink:href="#DejaVuSans-35"/>
      </g>
     </g>
    </g>
    <g id="ytick_14">
     <g id="line2d_97">
      <path clip-path="url(#p09ae2e2923)" d="M 407.225 172.24 
L 709.2 172.24 
" style="fill:none;stroke:#000000;stroke-dasharray:0.8,1.32;stroke-dashoffset:0;stroke-opacity:0.5;stroke-width:0.8;"/>
     </g>
     <g id="line2d_98">
      <g>
       <use style="stroke:#000000;stroke-width:0.8;" x="407.225" xlink:href="#md4a3043d2c" y="172.24"/>
      </g>
     </g>
     <g id="text_52">
      <!-- 100 -->
      <g transform="translate(381.1375 176.039219)scale(0.1 -0.1)">
       <use xlink:href="#DejaVuSans-31"/>
       <use x="63.623047" xlink:href="#DejaVuSans-30"/>
       <use x="127.246094" xlink:href="#DejaVuSans-30"/>
      </g>
     </g>
    </g>
    <g id="ytick_15">
     <g id="line2d_99">
      <path clip-path="url(#p09ae2e2923)" d="M 407.225 135.54 
L 709.2 135.54 
" style="fill:none;stroke:#000000;stroke-dasharray:0.8,1.32;stroke-dashoffset:0;stroke-opacity:0.5;stroke-width:0.8;"/>
     </g>
     <g id="line2d_100">
      <g>
       <use style="stroke:#000000;stroke-width:0.8;" x="407.225" xlink:href="#md4a3043d2c" y="135.54"/>
      </g>
     </g>
     <g id="text_53">
      <!-- 125 -->
      <g transform="translate(381.1375 139.339219)scale(0.1 -0.1)">
       <use xlink:href="#DejaVuSans-31"/>
       <use x="63.623047" xlink:href="#DejaVuSans-32"/>
       <use x="127.246094" xlink:href="#DejaVuSans-35"/>
      </g>
     </g>
    </g>
    <g id="ytick_16">
     <g id="line2d_101">
      <path clip-path="url(#p09ae2e2923)" d="M 407.225 98.84 
L 709.2 98.84 
" style="fill:none;stroke:#000000;stroke-dasharray:0.8,1.32;stroke-dashoffset:0;stroke-opacity:0.5;stroke-width:0.8;"/>
     </g>
     <g id="line2d_102">
      <g>
       <use style="stroke:#000000;stroke-width:0.8;" x="407.225" xlink:href="#md4a3043d2c" y="98.84"/>
      </g>
     </g>
     <g id="text_54">
      <!-- 150 -->
      <g transform="translate(381.1375 102.639219)scale(0.1 -0.1)">
       <use xlink:href="#DejaVuSans-31"/>
       <use x="63.623047" xlink:href="#DejaVuSans-35"/>
       <use x="127.246094" xlink:href="#DejaVuSans-30"/>
      </g>
     </g>
    </g>
    <g id="ytick_17">
     <g id="line2d_103">
      <path clip-path="url(#p09ae2e2923)" d="M 407.225 62.14 
L 709.2 62.14 
" style="fill:none;stroke:#000000;stroke-dasharray:0.8,1.32;stroke-dashoffset:0;stroke-opacity:0.5;stroke-width:0.8;"/>
     </g>
     <g id="line2d_104">
      <g>
       <use style="stroke:#000000;stroke-width:0.8;" x="407.225" xlink:href="#md4a3043d2c" y="62.14"/>
      </g>
     </g>
     <g id="text_55">
      <!-- 175 -->
      <g transform="translate(381.1375 65.939219)scale(0.1 -0.1)">
       <use xlink:href="#DejaVuSans-31"/>
       <use x="63.623047" xlink:href="#DejaVuSans-37"/>
       <use x="127.246094" xlink:href="#DejaVuSans-35"/>
      </g>
     </g>
    </g>
    <g id="ytick_18">
     <g id="line2d_105">
      <path clip-path="url(#p09ae2e2923)" d="M 407.225 25.44 
L 709.2 25.44 
" style="fill:none;stroke:#000000;stroke-dasharray:0.8,1.32;stroke-dashoffset:0;stroke-opacity:0.5;stroke-width:0.8;"/>
     </g>
     <g id="line2d_106">
      <g>
       <use style="stroke:#000000;stroke-width:0.8;" x="407.225" xlink:href="#md4a3043d2c" y="25.44"/>
      </g>
     </g>
     <g id="text_56">
      <!-- 200 -->
      <g transform="translate(381.1375 29.239219)scale(0.1 -0.1)">
       <use xlink:href="#DejaVuSans-32"/>
       <use x="63.623047" xlink:href="#DejaVuSans-30"/>
       <use x="127.246094" xlink:href="#DejaVuSans-30"/>
      </g>
     </g>
    </g>
    <g id="text_57">
     <!-- cumulative doses per hundred population -->
     <g transform="translate(375.057813 276.698594)rotate(-90)scale(0.1 -0.1)">
      <use xlink:href="#DejaVuSans-63"/>
      <use x="54.980469" xlink:href="#DejaVuSans-75"/>
      <use x="118.359375" xlink:href="#DejaVuSans-6d"/>
      <use x="215.771484" xlink:href="#DejaVuSans-75"/>
      <use x="279.150391" xlink:href="#DejaVuSans-6c"/>
      <use x="306.933594" xlink:href="#DejaVuSans-61"/>
      <use x="368.212891" xlink:href="#DejaVuSans-74"/>
      <use x="407.421875" xlink:href="#DejaVuSans-69"/>
      <use x="435.205078" xlink:href="#DejaVuSans-76"/>
      <use x="494.384766" xlink:href="#DejaVuSans-65"/>
      <use x="555.908203" xlink:href="#DejaVuSans-20"/>
      <use x="587.695312" xlink:href="#DejaVuSans-64"/>
      <use x="651.171875" xlink:href="#DejaVuSans-6f"/>
      <use x="712.353516" xlink:href="#DejaVuSans-73"/>
      <use x="764.453125" xlink:href="#DejaVuSans-65"/>
      <use x="825.976562" xlink:href="#DejaVuSans-73"/>
      <use x="878.076172" xlink:href="#DejaVuSans-20"/>
      <use x="909.863281" xlink:href="#DejaVuSans-70"/>
      <use x="973.339844" xlink:href="#DejaVuSans-65"/>
      <use x="1034.863281" xlink:href="#DejaVuSans-72"/>
      <use x="1075.976562" xlink:href="#DejaVuSans-20"/>
      <use x="1107.763672" xlink:href="#DejaVuSans-68"/>
      <use x="1171.142578" xlink:href="#DejaVuSans-75"/>
      <use x="1234.521484" xlink:href="#DejaVuSans-6e"/>
      <use x="1297.900391" xlink:href="#DejaVuSans-64"/>
      <use x="1361.376953" xlink:href="#DejaVuSans-72"/>
      <use x="1400.240234" xlink:href="#DejaVuSans-65"/>
      <use x="1461.763672" xlink:href="#DejaVuSans-64"/>
      <use x="1525.240234" xlink:href="#DejaVuSans-20"/>
      <use x="1557.027344" xlink:href="#DejaVuSans-70"/>
      <use x="1620.503906" xlink:href="#DejaVuSans-6f"/>
      <use x="1681.685547" xlink:href="#DejaVuSans-70"/>
      <use x="1745.162109" xlink:href="#DejaVuSans-75"/>
      <use x="1808.541016" xlink:href="#DejaVuSans-6c"/>
      <use x="1836.324219" xlink:href="#DejaVuSans-61"/>
      <use x="1897.603516" xlink:href="#DejaVuSans-74"/>
      <use x="1936.8125" xlink:href="#DejaVuSans-69"/>
      <use x="1964.595703" xlink:href="#DejaVuSans-6f"/>
      <use x="2025.777344" xlink:href="#DejaVuSans-6e"/>
     </g>
    </g>
   </g>
   <g id="line2d_107">
    <path clip-path="url(#p09ae2e2923)" d="M 314.404816 319.04 
L 325.543238 318.943871 
L 325.543238 318.838514 
L 328.018443 318.740846 
L 328.018443 318.663174 
L 332.968852 318.588963 
L 332.968852 318.532823 
L 335.444057 318.439001 
L 335.444057 318.364405 
L 340.394467 318.289809 
L 340.394467 318.210599 
L 342.869672 318.124082 
L 342.869672 318.006805 
L 344.107275 318.006805 
L 344.107275 317.876839 
L 345.344877 317.876839 
L 345.344877 317.746872 
L 349.057684 317.746872 
L 349.057684 317.552307 
L 350.295287 317.552307 
L 350.295287 317.358511 
L 351.532889 317.358511 
L 351.532889 317.165484 
L 352.770492 317.165484 
L 352.770492 316.971687 
L 354.008094 316.971687 
L 354.008094 316.77097 
L 356.483299 316.77097 
L 356.483299 316.526802 
L 357.720902 316.526802 
L 357.720902 316.354539 
L 358.958504 316.354539 
L 358.958504 316.15113 
L 360.196107 316.15113 
L 360.196107 315.950413 
L 361.433709 315.950413 
L 361.433709 315.747388 
L 362.671311 315.747388 
L 362.671311 315.542441 
L 363.908914 315.542441 
L 363.908914 315.414397 
L 365.146516 315.414397 
L 365.146516 315.292505 
L 366.384119 315.292505 
L 366.384119 315.086789 
L 367.621721 315.086789 
L 367.621721 314.87992 
L 368.859324 314.87992 
L 368.859324 314.671512 
L 371.334529 314.671512 
L 371.334529 314.260464 
L 372.572131 314.260464 
L 372.572131 314.126652 
L 373.809734 314.126652 
L 373.809734 313.998993 
L 375.047336 313.998993 
L 375.047336 313.743674 
L 376.284939 313.743674 
L 376.284939 313.485664 
L 377.522541 313.485664 
L 377.522541 313.220732 
L 378.760143 313.220732 
L 378.760143 307.87019 
L 379.997746 307.87019 
L 379.997746 307.370319 
L 381.235348 307.370319 
L 381.235348 306.985033 
L 382.472951 306.985033 
L 382.472951 306.592058 
L 383.710553 306.592058 
L 383.710553 306.059888 
L 384.948156 306.059888 
L 384.948156 305.594238 
L 386.185758 305.594238 
L 386.185758 305.083985 
L 387.423361 305.083985 
L 387.423361 304.644483 
L 388.660963 304.644483 
L 388.660963 304.241511 
L 389.898566 304.241511 
L 389.898566 303.807392 
L 391.136168 303.807392 
L 391.136168 303.66589 
L 392.37377 303.66589 
L 392.37377 302.999523 
L 393.611373 302.999523 
L 393.611373 302.436976 
L 394.848975 302.436976 
L 394.848975 301.969789 
L 396.086578 301.969789 
L 396.086578 301.566816 
L 397.32418 301.566816 
L 397.32418 301.049642 
L 398.561783 301.049642 
L 398.561783 300.698194 
L 399.799385 300.698194 
L 399.799385 300.504782 
L 401.036988 300.504782 
L 401.036988 300.254462 
L 402.27459 300.254462 
L 402.27459 299.753438 
L 403.512193 299.753438 
L 403.512193 299.021319 
L 404.749795 299.021319 
L 404.749795 298.56336 
L 405.987398 298.56336 
L 405.987398 298.12655 
L 407.225 298.12655 
L 407.225 297.853543 
L 408.462602 297.853543 
L 408.462602 297.705889 
L 409.700205 297.705889 
L 409.700205 297.032217 
L 410.937807 297.032217 
L 410.937807 296.41776 
L 412.17541 296.41776 
L 412.17541 295.874054 
L 413.413012 295.874054 
L 413.413012 295.311507 
L 414.650615 295.311507 
L 414.650615 294.682438 
L 415.888217 294.682438 
L 415.888217 294.251396 
L 417.12582 294.251396 
L 417.12582 294.029914 
L 418.363422 294.029914 
L 418.363422 293.296642 
L 419.601025 293.296642 
L 419.601025 292.804846 
L 420.838627 292.804846 
L 420.838627 292.254219 
L 422.07623 292.254219 
L 422.07623 291.671677 
L 423.313832 291.671677 
L 423.313832 291.087597 
L 424.551434 291.087597 
L 424.551434 290.593493 
L 425.789037 290.593493 
L 425.789037 290.343558 
L 427.026639 290.343558 
L 427.026639 289.70603 
L 428.264242 289.70603 
L 428.264242 289.028513 
L 429.501844 289.028513 
L 429.501844 288.298701 
L 430.739447 288.298701 
L 430.739447 287.578502 
L 431.977049 287.578502 
L 431.977049 286.967121 
L 433.214652 286.967121 
L 433.214652 286.465712 
L 434.452254 286.465712 
L 434.452254 286.238079 
L 435.689857 286.238079 
L 435.689857 285.30332 
L 436.927459 285.30332 
L 436.927459 284.674636 
L 438.165061 284.674636 
L 438.165061 283.957513 
L 439.402664 283.957513 
L 439.402664 283.180791 
L 440.640266 283.180791 
L 440.640266 282.339469 
L 441.877869 282.339469 
L 441.877869 281.920731 
L 443.115471 281.920731 
L 443.115471 281.574667 
L 444.353074 281.574667 
L 444.353074 281.262439 
L 445.590676 281.262439 
L 445.590676 280.365748 
L 446.828279 280.365748 
L 446.828279 279.601714 
L 448.065881 279.601714 
L 448.065881 278.534297 
L 449.303484 278.534297 
L 449.303484 277.613381 
L 450.541086 277.613381 
L 450.541086 276.743221 
L 451.778689 276.743221 
L 451.778689 276.284493 
L 453.016291 276.284493 
L 453.016291 275.186699 
L 454.253893 275.186699 
L 454.253893 274.285778 
L 455.491496 274.285778 
L 455.491496 273.382549 
L 456.729098 273.382549 
L 456.729098 272.408186 
L 457.966701 272.408186 
L 457.966701 271.447664 
L 459.204303 271.447664 
L 459.204303 270.764379 
L 460.441906 270.764379 
L 460.441906 270.275659 
L 461.679508 270.275659 
L 461.679508 269.776557 
L 462.917111 269.776557 
L 462.917111 268.561486 
L 464.154713 268.561486 
L 464.154713 267.497529 
L 465.392316 267.497529 
L 465.392316 266.575075 
L 466.629918 266.575075 
L 466.629918 265.736445 
L 467.86752 265.736445 
L 467.86752 265.083152 
L 469.105123 265.083152 
L 469.105123 264.43332 
L 470.342725 264.43332 
L 470.342725 263.636218 
L 471.580328 263.636218 
L 471.580328 262.793743 
L 472.81793 262.793743 
L 472.81793 262.044706 
L 474.055533 262.044706 
L 474.055533 261.154551 
L 475.293135 261.154551 
L 475.293135 260.290927 
L 476.530738 260.290927 
L 476.530738 259.691467 
L 477.76834 259.691467 
L 477.76834 259.15199 
L 479.005943 259.15199 
L 479.005943 258.304901 
L 480.243545 258.304901 
L 480.243545 257.337074 
L 481.481148 257.337074 
L 481.481148 256.264274 
L 482.71875 256.264274 
L 482.71875 255.216083 
L 483.956352 255.216083 
L 483.956352 254.140207 
L 485.193955 254.140207 
L 485.193955 253.291195 
L 486.431557 253.291195 
L 486.431557 252.475252 
L 487.66916 252.475252 
L 487.66916 251.448593 
L 488.906762 251.448593 
L 488.906762 250.336573 
L 490.144365 250.336573 
L 490.144365 249.429499 
L 491.381967 249.429499 
L 491.381967 248.249034 
L 492.61957 248.249034 
L 492.61957 247.256983 
L 493.857172 247.256983 
L 493.857172 246.324146 
L 495.094775 246.324146 
L 495.094775 245.595104 
L 496.332377 245.595104 
L 496.332377 244.432327 
L 497.56998 244.432327 
L 497.56998 243.284161 
L 498.807582 243.284161 
L 498.807582 242.270192 
L 500.045184 242.270192 
L 500.045184 241.185857 
L 501.282787 241.185857 
L 501.282787 240.12613 
L 502.520389 240.12613 
L 502.520389 239.294037 
L 503.757992 239.294037 
L 503.757992 238.76725 
L 504.995594 238.76725 
L 504.995594 237.339926 
L 506.233197 237.339926 
L 506.233197 236.209064 
L 507.470799 236.209064 
L 507.470799 234.841724 
L 508.708402 234.841724 
L 508.708402 233.445546 
L 509.946004 233.445546 
L 509.946004 232.091665 
L 511.183607 232.091665 
L 511.183607 230.898895 
L 512.421209 230.898895 
L 512.421209 230.042193 
L 513.658811 230.042193 
L 513.658811 228.375316 
L 514.896414 228.375316 
L 514.896414 226.905695 
L 516.134016 226.905695 
L 516.134016 225.49529 
L 517.371619 225.49529 
L 517.371619 223.997984 
L 518.609221 223.997984 
L 518.609221 222.564507 
L 519.846824 222.564507 
L 519.846824 221.209088 
L 521.084426 221.209088 
L 521.084426 220.064383 
L 522.322029 220.064383 
L 522.322029 218.645134 
L 523.559631 218.645134 
L 523.559631 217.188971 
L 524.797234 217.188971 
L 524.797234 215.631681 
L 526.034836 215.631681 
L 526.034836 214.137451 
L 527.272439 214.137451 
L 527.272439 212.517484 
L 528.510041 212.517484 
L 528.510041 211.353554 
L 529.747643 211.353554 
L 529.747643 209.977755 
L 530.985246 209.977755 
L 530.985246 208.511595 
L 532.222848 208.511595 
L 532.222848 206.998139 
L 533.460451 206.998139 
L 533.460451 205.357024 
L 534.698053 205.357024 
L 534.698053 203.742056 
L 535.935656 203.742056 
L 535.935656 201.82755 
L 537.173258 201.82755 
L 537.173258 200.261416 
L 538.410861 200.261416 
L 538.410861 197.669356 
L 539.648463 197.669356 
L 539.648463 194.283405 
L 540.886066 194.283405 
L 540.886066 191.516362 
L 542.123668 191.516362 
L 542.123668 190.316334 
L 543.36127 190.316334 
L 543.36127 186.635227 
L 544.598873 186.635227 
L 544.598873 182.769606 
L 545.836475 182.769606 
L 545.836475 181.968226 
L 547.074078 181.968226 
L 547.074078 181.460639 
L 548.31168 181.460639 
L 548.31168 176.296264 
L 549.549283 176.296264 
L 549.549283 175.19292 
L 550.786885 175.19292 
L 550.786885 172.96274 
L 552.024488 172.96274 
L 552.024488 169.749389 
L 553.26209 169.749389 
L 553.26209 168.370293 
L 554.499693 168.370293 
L 554.499693 167.689426 
L 555.737295 167.689426 
L 555.737295 167.183883 
L 556.974898 167.183883 
L 556.974898 164.287475 
L 558.2125 164.287475 
L 558.2125 160.186614 
L 559.450102 160.186614 
L 559.450102 157.671152 
L 560.687705 157.671152 
L 560.687705 155.85596 
L 561.925307 155.85596 
L 561.925307 153.456586 
L 563.16291 153.456586 
L 563.16291 151.948466 
L 564.400512 151.948466 
L 564.400512 150.642903 
L 565.638115 150.642903 
L 565.638115 147.970501 
L 566.875717 147.970501 
L 566.875717 145.262013 
L 568.11332 145.262013 
L 568.11332 143.046132 
L 569.350922 143.046132 
L 569.350922 140.860208 
L 570.588525 140.860208 
L 570.588525 140.860208 
" style="fill:none;stroke:#1f77b4;stroke-linecap:square;stroke-width:1.5;"/>
   </g>
   <g id="line2d_108">
    <path clip-path="url(#p09ae2e2923)" d="M 570.588525 138.511408 
L 570.588525 136.162608 
L 571.826127 136.162608 
L 571.826127 133.813808 
L 573.06373 133.813808 
L 573.06373 131.465008 
L 574.301332 131.465008 
L 574.301332 129.116208 
L 575.538934 129.116208 
L 575.538934 126.767408 
L 576.776537 126.767408 
L 576.776537 124.418608 
L 578.014139 124.418608 
L 578.014139 122.069808 
L 579.251742 122.069808 
L 579.251742 119.721008 
L 580.489344 119.721008 
L 580.489344 117.372208 
L 581.726947 117.372208 
L 581.726947 115.023408 
L 582.964549 115.023408 
L 582.964549 112.674608 
L 584.202152 112.674608 
L 584.202152 110.325808 
L 585.439754 110.325808 
L 585.439754 107.977008 
L 586.677357 107.977008 
L 586.677357 105.628208 
L 587.914959 105.628208 
L 587.914959 103.279408 
L 589.152561 103.279408 
L 589.152561 100.930608 
L 590.390164 100.930608 
L 590.390164 98.581808 
L 591.627766 98.581808 
L 591.627766 96.233008 
L 592.865369 96.233008 
L 592.865369 93.884208 
L 594.102971 93.884208 
L 594.102971 91.535408 
L 595.340574 91.535408 
L 595.340574 88.893008 
L 596.578176 88.893008 
L 596.578176 86.250608 
L 597.815779 86.250608 
L 597.815779 83.608208 
L 599.053381 83.608208 
L 599.053381 80.965808 
L 600.290984 80.965808 
L 600.290984 78.323408 
L 601.528586 78.323408 
L 601.528586 75.681008 
L 602.766189 75.681008 
L 602.766189 73.038608 
L 604.003791 73.038608 
L 604.003791 70.396208 
L 721 70.396208 
L 721 70.396208 
" style="fill:none;stroke:#ff7f0e;stroke-linecap:square;stroke-width:1.5;"/>
   </g>
   <g id="patch_9">
    <path d="M 407.225 319.04 
L 407.225 25.44 
" style="fill:none;stroke:#000000;stroke-linecap:square;stroke-linejoin:miter;stroke-width:0.8;"/>
   </g>
   <g id="patch_10">
    <path d="M 709.2 319.04 
L 709.2 25.44 
" style="fill:none;stroke:#000000;stroke-linecap:square;stroke-linejoin:miter;stroke-width:0.8;"/>
   </g>
   <g id="patch_11">
    <path d="M 407.225 319.04 
L 709.2 319.04 
" style="fill:none;stroke:#000000;stroke-linecap:square;stroke-linejoin:miter;stroke-width:0.8;"/>
   </g>
   <g id="patch_12">
    <path d="M 407.225 25.44 
L 709.2 25.44 
" style="fill:none;stroke:#000000;stroke-linecap:square;stroke-linejoin:miter;stroke-width:0.8;"/>
   </g>
   <g id="text_58">
    <!-- ACT cumulative vaccinations per capita -->
    <g transform="translate(439.3375 19.44)scale(0.12 -0.12)">
     <use xlink:href="#DejaVuSans-41"/>
     <use x="66.658203" xlink:href="#DejaVuSans-43"/>
     <use x="136.482422" xlink:href="#DejaVuSans-54"/>
     <use x="197.566406" xlink:href="#DejaVuSans-20"/>
     <use x="229.353516" xlink:href="#DejaVuSans-63"/>
     <use x="284.333984" xlink:href="#DejaVuSans-75"/>
     <use x="347.712891" xlink:href="#DejaVuSans-6d"/>
     <use x="445.125" xlink:href="#DejaVuSans-75"/>
     <use x="508.503906" xlink:href="#DejaVuSans-6c"/>
     <use x="536.287109" xlink:href="#DejaVuSans-61"/>
     <use x="597.566406" xlink:href="#DejaVuSans-74"/>
     <use x="636.775391" xlink:href="#DejaVuSans-69"/>
     <use x="664.558594" xlink:href="#DejaVuSans-76"/>
     <use x="723.738281" xlink:href="#DejaVuSans-65"/>
     <use x="785.261719" xlink:href="#DejaVuSans-20"/>
     <use x="817.048828" xlink:href="#DejaVuSans-76"/>
     <use x="876.228516" xlink:href="#DejaVuSans-61"/>
     <use x="937.507812" xlink:href="#DejaVuSans-63"/>
     <use x="992.488281" xlink:href="#DejaVuSans-63"/>
     <use x="1047.46875" xlink:href="#DejaVuSans-69"/>
     <use x="1075.251953" xlink:href="#DejaVuSans-6e"/>
     <use x="1138.630859" xlink:href="#DejaVuSans-61"/>
     <use x="1199.910156" xlink:href="#DejaVuSans-74"/>
     <use x="1239.119141" xlink:href="#DejaVuSans-69"/>
     <use x="1266.902344" xlink:href="#DejaVuSans-6f"/>
     <use x="1328.083984" xlink:href="#DejaVuSans-6e"/>
     <use x="1391.462891" xlink:href="#DejaVuSans-73"/>
     <use x="1443.5625" xlink:href="#DejaVuSans-20"/>
     <use x="1475.349609" xlink:href="#DejaVuSans-70"/>
     <use x="1538.826172" xlink:href="#DejaVuSans-65"/>
     <use x="1600.349609" xlink:href="#DejaVuSans-72"/>
     <use x="1641.462891" xlink:href="#DejaVuSans-20"/>
     <use x="1673.25" xlink:href="#DejaVuSans-63"/>
     <use x="1728.230469" xlink:href="#DejaVuSans-61"/>
     <use x="1789.509766" xlink:href="#DejaVuSans-70"/>
     <use x="1852.986328" xlink:href="#DejaVuSans-69"/>
     <use x="1880.769531" xlink:href="#DejaVuSans-74"/>
     <use x="1919.978516" xlink:href="#DejaVuSans-61"/>
    </g>
   </g>
   <g id="legend_2">
    <g id="patch_13">
     <path d="M 554.317187 62.79625 
L 702.2 62.79625 
Q 704.2 62.79625 704.2 60.79625 
L 704.2 32.44 
Q 704.2 30.44 702.2 30.44 
L 554.317187 30.44 
Q 552.317187 30.44 552.317187 32.44 
L 552.317187 60.79625 
Q 552.317187 62.79625 554.317187 62.79625 
z
" style="fill:#ffffff;opacity:0.8;stroke:#cccccc;stroke-linejoin:miter;"/>
    </g>
    <g id="line2d_109">
     <path d="M 556.317187 38.538437 
L 576.317187 38.538437 
" style="fill:none;stroke:#1f77b4;stroke-linecap:square;stroke-width:1.5;"/>
    </g>
    <g id="line2d_110"/>
    <g id="text_59">
     <!-- Actual -->
     <g transform="translate(584.317187 42.038437)scale(0.1 -0.1)">
      <use xlink:href="#DejaVuSans-41"/>
      <use x="66.658203" xlink:href="#DejaVuSans-63"/>
      <use x="121.638672" xlink:href="#DejaVuSans-74"/>
      <use x="160.847656" xlink:href="#DejaVuSans-75"/>
      <use x="224.226562" xlink:href="#DejaVuSans-61"/>
      <use x="285.505859" xlink:href="#DejaVuSans-6c"/>
     </g>
    </g>
    <g id="line2d_111">
     <path d="M 556.317187 53.216563 
L 576.317187 53.216563 
" style="fill:none;stroke:#ff7f0e;stroke-linecap:square;stroke-width:1.5;"/>
    </g>
    <g id="line2d_112"/>
    <g id="text_60">
     <!-- Assumed for projection -->
     <g transform="translate(584.317187 56.716563)scale(0.1 -0.1)">
      <use xlink:href="#DejaVuSans-41"/>
      <use x="68.408203" xlink:href="#DejaVuSans-73"/>
      <use x="120.507812" xlink:href="#DejaVuSans-73"/>
      <use x="172.607422" xlink:href="#DejaVuSans-75"/>
      <use x="235.986328" xlink:href="#DejaVuSans-6d"/>
      <use x="333.398438" xlink:href="#DejaVuSans-65"/>
      <use x="394.921875" xlink:href="#DejaVuSans-64"/>
      <use x="458.398438" xlink:href="#DejaVuSans-20"/>
      <use x="490.185547" xlink:href="#DejaVuSans-66"/>
      <use x="525.390625" xlink:href="#DejaVuSans-6f"/>
      <use x="586.572266" xlink:href="#DejaVuSans-72"/>
      <use x="627.685547" xlink:href="#DejaVuSans-20"/>
      <use x="659.472656" xlink:href="#DejaVuSans-70"/>
      <use x="722.949219" xlink:href="#DejaVuSans-72"/>
      <use x="761.8125" xlink:href="#DejaVuSans-6f"/>
      <use x="822.994141" xlink:href="#DejaVuSans-6a"/>
      <use x="850.777344" xlink:href="#DejaVuSans-65"/>
      <use x="912.300781" xlink:href="#DejaVuSans-63"/>
      <use x="967.28125" xlink:href="#DejaVuSans-74"/>
      <use x="1006.490234" xlink:href="#DejaVuSans-69"/>
      <use x="1034.273438" xlink:href="#DejaVuSans-6f"/>
      <use x="1095.455078" xlink:href="#DejaVuSans-6e"/>
     </g>
    </g>
   </g>
  </g>
 </g>
 <defs>
  <clipPath id="p032cd57460">
   <rect height="293.6" width="301.975" x="54.2" y="25.44"/>
  </clipPath>
  <clipPath id="p09ae2e2923">
   <rect height="293.6" width="301.975" x="407.225" y="25.44"/>
  </clipPath>
 </defs>
</svg>
