<?xml version="1.0" encoding="utf-8" standalone="no"?>
<!DOCTYPE svg PUBLIC "-//W3C//DTD SVG 1.1//EN"
  "http://www.w3.org/Graphics/SVG/1.1/DTD/svg11.dtd">
<svg height="360pt" version="1.1" viewBox="0 0 720 360" width="720pt" xmlns="http://www.w3.org/2000/svg" xmlns:xlink="http://www.w3.org/1999/xlink">
 <metadata>
  <rdf:RDF xmlns:cc="http://creativecommons.org/ns#" xmlns:dc="http://purl.org/dc/elements/1.1/" xmlns:rdf="http://www.w3.org/1999/02/22-rdf-syntax-ns#">
   <cc:Work>
    <dc:type rdf:resource="http://purl.org/dc/dcmitype/StillImage"/>
    <dc:date>2021-12-18T09:17:09.171701</dc:date>
    <dc:format>image/svg+xml</dc:format>
    <dc:creator>
     <cc:Agent>
      <dc:title>Matplotlib v3.4.3, https://matplotlib.org/</dc:title>
     </cc:Agent>
    </dc:creator>
   </cc:Work>
  </rdf:RDF>
 </metadata>
 <defs>
  <style type="text/css">*{stroke-linecap:butt;stroke-linejoin:round;}</style>
 </defs>
 <g id="figure_1">
  <g id="patch_1">
   <path d="M 0 360 
L 720 360 
L 720 0 
L 0 0 
z
" style="fill:#ffffff;"/>
  </g>
  <g id="axes_1">
   <g id="patch_2">
    <path d="M 54.02 319.04 
L 356.175 319.04 
L 356.175 26.88 
L 54.02 26.88 
z
" style="fill:#ffffff;"/>
   </g>
   <g id="matplotlib.axis_1">
    <g id="xtick_1">
     <g id="line2d_1">
      <path clip-path="url(#p3e3d738c66)" d="M 54.02 319.04 
L 54.02 26.88 
" style="fill:none;stroke:#000000;stroke-dasharray:0.8,1.32;stroke-dashoffset:0;stroke-opacity:0.5;stroke-width:0.8;"/>
     </g>
     <g id="line2d_2">
      <defs>
       <path d="M 0 0 
L 0 3.5 
" id="mb26d7b3453" style="stroke:#000000;stroke-width:0.8;"/>
      </defs>
      <g>
       <use style="stroke:#000000;stroke-width:0.8;" x="54.02" xlink:href="#mb26d7b3453" y="319.04"/>
      </g>
     </g>
     <g id="text_1">
      <!-- May -->
      <g transform="translate(43.6825 333.638438)scale(0.1 -0.1)">
       <defs>
        <path d="M 628 4666 
L 1569 4666 
L 2759 1491 
L 3956 4666 
L 4897 4666 
L 4897 0 
L 4281 0 
L 4281 4097 
L 3078 897 
L 2444 897 
L 1241 4097 
L 1241 0 
L 628 0 
L 628 4666 
z
" id="DejaVuSans-4d" transform="scale(0.015625)"/>
        <path d="M 2194 1759 
Q 1497 1759 1228 1600 
Q 959 1441 959 1056 
Q 959 750 1161 570 
Q 1363 391 1709 391 
Q 2188 391 2477 730 
Q 2766 1069 2766 1631 
L 2766 1759 
L 2194 1759 
z
M 3341 1997 
L 3341 0 
L 2766 0 
L 2766 531 
Q 2569 213 2275 61 
Q 1981 -91 1556 -91 
Q 1019 -91 701 211 
Q 384 513 384 1019 
Q 384 1609 779 1909 
Q 1175 2209 1959 2209 
L 2766 2209 
L 2766 2266 
Q 2766 2663 2505 2880 
Q 2244 3097 1772 3097 
Q 1472 3097 1187 3025 
Q 903 2953 641 2809 
L 641 3341 
Q 956 3463 1253 3523 
Q 1550 3584 1831 3584 
Q 2591 3584 2966 3190 
Q 3341 2797 3341 1997 
z
" id="DejaVuSans-61" transform="scale(0.015625)"/>
        <path d="M 2059 -325 
Q 1816 -950 1584 -1140 
Q 1353 -1331 966 -1331 
L 506 -1331 
L 506 -850 
L 844 -850 
Q 1081 -850 1212 -737 
Q 1344 -625 1503 -206 
L 1606 56 
L 191 3500 
L 800 3500 
L 1894 763 
L 2988 3500 
L 3597 3500 
L 2059 -325 
z
" id="DejaVuSans-79" transform="scale(0.015625)"/>
       </defs>
       <use xlink:href="#DejaVuSans-4d"/>
       <use x="86.279297" xlink:href="#DejaVuSans-61"/>
       <use x="147.558594" xlink:href="#DejaVuSans-79"/>
      </g>
     </g>
    </g>
    <g id="xtick_2">
     <g id="line2d_3">
      <path clip-path="url(#p3e3d738c66)" d="M 71.356762 319.04 
L 71.356762 26.88 
" style="fill:none;stroke:#000000;stroke-dasharray:0.8,1.32;stroke-dashoffset:0;stroke-opacity:0.5;stroke-width:0.8;"/>
     </g>
     <g id="line2d_4">
      <g>
       <use style="stroke:#000000;stroke-width:0.8;" x="71.356762" xlink:href="#mb26d7b3453" y="319.04"/>
      </g>
     </g>
     <g id="text_2">
      <!-- 15 -->
      <g transform="translate(64.994262 333.638438)scale(0.1 -0.1)">
       <defs>
        <path d="M 794 531 
L 1825 531 
L 1825 4091 
L 703 3866 
L 703 4441 
L 1819 4666 
L 2450 4666 
L 2450 531 
L 3481 531 
L 3481 0 
L 794 0 
L 794 531 
z
" id="DejaVuSans-31" transform="scale(0.015625)"/>
        <path d="M 691 4666 
L 3169 4666 
L 3169 4134 
L 1269 4134 
L 1269 2991 
Q 1406 3038 1543 3061 
Q 1681 3084 1819 3084 
Q 2600 3084 3056 2656 
Q 3513 2228 3513 1497 
Q 3513 744 3044 326 
Q 2575 -91 1722 -91 
Q 1428 -91 1123 -41 
Q 819 9 494 109 
L 494 744 
Q 775 591 1075 516 
Q 1375 441 1709 441 
Q 2250 441 2565 725 
Q 2881 1009 2881 1497 
Q 2881 1984 2565 2268 
Q 2250 2553 1709 2553 
Q 1456 2553 1204 2497 
Q 953 2441 691 2322 
L 691 4666 
z
" id="DejaVuSans-35" transform="scale(0.015625)"/>
       </defs>
       <use xlink:href="#DejaVuSans-31"/>
       <use x="63.623047" xlink:href="#DejaVuSans-35"/>
      </g>
     </g>
    </g>
    <g id="xtick_3">
     <g id="line2d_5">
      <path clip-path="url(#p3e3d738c66)" d="M 92.408545 319.04 
L 92.408545 26.88 
" style="fill:none;stroke:#000000;stroke-dasharray:0.8,1.32;stroke-dashoffset:0;stroke-opacity:0.5;stroke-width:0.8;"/>
     </g>
     <g id="line2d_6">
      <g>
       <use style="stroke:#000000;stroke-width:0.8;" x="92.408545" xlink:href="#mb26d7b3453" y="319.04"/>
      </g>
     </g>
     <g id="text_3">
      <!-- Jun -->
      <g transform="translate(84.596045 333.638438)scale(0.1 -0.1)">
       <defs>
        <path d="M 628 4666 
L 1259 4666 
L 1259 325 
Q 1259 -519 939 -900 
Q 619 -1281 -91 -1281 
L -331 -1281 
L -331 -750 
L -134 -750 
Q 284 -750 456 -515 
Q 628 -281 628 325 
L 628 4666 
z
" id="DejaVuSans-4a" transform="scale(0.015625)"/>
        <path d="M 544 1381 
L 544 3500 
L 1119 3500 
L 1119 1403 
Q 1119 906 1312 657 
Q 1506 409 1894 409 
Q 2359 409 2629 706 
Q 2900 1003 2900 1516 
L 2900 3500 
L 3475 3500 
L 3475 0 
L 2900 0 
L 2900 538 
Q 2691 219 2414 64 
Q 2138 -91 1772 -91 
Q 1169 -91 856 284 
Q 544 659 544 1381 
z
M 1991 3584 
L 1991 3584 
z
" id="DejaVuSans-75" transform="scale(0.015625)"/>
        <path d="M 3513 2113 
L 3513 0 
L 2938 0 
L 2938 2094 
Q 2938 2591 2744 2837 
Q 2550 3084 2163 3084 
Q 1697 3084 1428 2787 
Q 1159 2491 1159 1978 
L 1159 0 
L 581 0 
L 581 3500 
L 1159 3500 
L 1159 2956 
Q 1366 3272 1645 3428 
Q 1925 3584 2291 3584 
Q 2894 3584 3203 3211 
Q 3513 2838 3513 2113 
z
" id="DejaVuSans-6e" transform="scale(0.015625)"/>
       </defs>
       <use xlink:href="#DejaVuSans-4a"/>
       <use x="29.492188" xlink:href="#DejaVuSans-75"/>
       <use x="92.871094" xlink:href="#DejaVuSans-6e"/>
      </g>
     </g>
    </g>
    <g id="xtick_4">
     <g id="line2d_7">
      <path clip-path="url(#p3e3d738c66)" d="M 109.745307 319.04 
L 109.745307 26.88 
" style="fill:none;stroke:#000000;stroke-dasharray:0.8,1.32;stroke-dashoffset:0;stroke-opacity:0.5;stroke-width:0.8;"/>
     </g>
     <g id="line2d_8">
      <g>
       <use style="stroke:#000000;stroke-width:0.8;" x="109.745307" xlink:href="#mb26d7b3453" y="319.04"/>
      </g>
     </g>
     <g id="text_4">
      <!-- 15 -->
      <g transform="translate(103.382807 333.638438)scale(0.1 -0.1)">
       <use xlink:href="#DejaVuSans-31"/>
       <use x="63.623047" xlink:href="#DejaVuSans-35"/>
      </g>
     </g>
    </g>
    <g id="xtick_5">
     <g id="line2d_9">
      <path clip-path="url(#p3e3d738c66)" d="M 129.55875 319.04 
L 129.55875 26.88 
" style="fill:none;stroke:#000000;stroke-dasharray:0.8,1.32;stroke-dashoffset:0;stroke-opacity:0.5;stroke-width:0.8;"/>
     </g>
     <g id="line2d_10">
      <g>
       <use style="stroke:#000000;stroke-width:0.8;" x="129.55875" xlink:href="#mb26d7b3453" y="319.04"/>
      </g>
     </g>
     <g id="text_5">
      <!-- Jul -->
      <g transform="translate(123.525938 333.638438)scale(0.1 -0.1)">
       <defs>
        <path d="M 603 4863 
L 1178 4863 
L 1178 0 
L 603 0 
L 603 4863 
z
" id="DejaVuSans-6c" transform="scale(0.015625)"/>
       </defs>
       <use xlink:href="#DejaVuSans-4a"/>
       <use x="29.492188" xlink:href="#DejaVuSans-75"/>
       <use x="92.871094" xlink:href="#DejaVuSans-6c"/>
      </g>
     </g>
    </g>
    <g id="xtick_6">
     <g id="line2d_11">
      <path clip-path="url(#p3e3d738c66)" d="M 146.895512 319.04 
L 146.895512 26.88 
" style="fill:none;stroke:#000000;stroke-dasharray:0.8,1.32;stroke-dashoffset:0;stroke-opacity:0.5;stroke-width:0.8;"/>
     </g>
     <g id="line2d_12">
      <g>
       <use style="stroke:#000000;stroke-width:0.8;" x="146.895512" xlink:href="#mb26d7b3453" y="319.04"/>
      </g>
     </g>
     <g id="text_6">
      <!-- 15 -->
      <g transform="translate(140.533012 333.638438)scale(0.1 -0.1)">
       <use xlink:href="#DejaVuSans-31"/>
       <use x="63.623047" xlink:href="#DejaVuSans-35"/>
      </g>
     </g>
    </g>
    <g id="xtick_7">
     <g id="line2d_13">
      <path clip-path="url(#p3e3d738c66)" d="M 167.947295 319.04 
L 167.947295 26.88 
" style="fill:none;stroke:#000000;stroke-dasharray:0.8,1.32;stroke-dashoffset:0;stroke-opacity:0.5;stroke-width:0.8;"/>
     </g>
     <g id="line2d_14">
      <g>
       <use style="stroke:#000000;stroke-width:0.8;" x="167.947295" xlink:href="#mb26d7b3453" y="319.04"/>
      </g>
     </g>
     <g id="text_7">
      <!-- Aug -->
      <g transform="translate(158.184014 333.638438)scale(0.1 -0.1)">
       <defs>
        <path d="M 2188 4044 
L 1331 1722 
L 3047 1722 
L 2188 4044 
z
M 1831 4666 
L 2547 4666 
L 4325 0 
L 3669 0 
L 3244 1197 
L 1141 1197 
L 716 0 
L 50 0 
L 1831 4666 
z
" id="DejaVuSans-41" transform="scale(0.015625)"/>
        <path d="M 2906 1791 
Q 2906 2416 2648 2759 
Q 2391 3103 1925 3103 
Q 1463 3103 1205 2759 
Q 947 2416 947 1791 
Q 947 1169 1205 825 
Q 1463 481 1925 481 
Q 2391 481 2648 825 
Q 2906 1169 2906 1791 
z
M 3481 434 
Q 3481 -459 3084 -895 
Q 2688 -1331 1869 -1331 
Q 1566 -1331 1297 -1286 
Q 1028 -1241 775 -1147 
L 775 -588 
Q 1028 -725 1275 -790 
Q 1522 -856 1778 -856 
Q 2344 -856 2625 -561 
Q 2906 -266 2906 331 
L 2906 616 
Q 2728 306 2450 153 
Q 2172 0 1784 0 
Q 1141 0 747 490 
Q 353 981 353 1791 
Q 353 2603 747 3093 
Q 1141 3584 1784 3584 
Q 2172 3584 2450 3431 
Q 2728 3278 2906 2969 
L 2906 3500 
L 3481 3500 
L 3481 434 
z
" id="DejaVuSans-67" transform="scale(0.015625)"/>
       </defs>
       <use xlink:href="#DejaVuSans-41"/>
       <use x="68.408203" xlink:href="#DejaVuSans-75"/>
       <use x="131.787109" xlink:href="#DejaVuSans-67"/>
      </g>
     </g>
    </g>
    <g id="xtick_8">
     <g id="line2d_15">
      <path clip-path="url(#p3e3d738c66)" d="M 185.284057 319.04 
L 185.284057 26.88 
" style="fill:none;stroke:#000000;stroke-dasharray:0.8,1.32;stroke-dashoffset:0;stroke-opacity:0.5;stroke-width:0.8;"/>
     </g>
     <g id="line2d_16">
      <g>
       <use style="stroke:#000000;stroke-width:0.8;" x="185.284057" xlink:href="#mb26d7b3453" y="319.04"/>
      </g>
     </g>
     <g id="text_8">
      <!-- 15 -->
      <g transform="translate(178.921557 333.638438)scale(0.1 -0.1)">
       <use xlink:href="#DejaVuSans-31"/>
       <use x="63.623047" xlink:href="#DejaVuSans-35"/>
      </g>
     </g>
    </g>
    <g id="xtick_9">
     <g id="line2d_17">
      <path clip-path="url(#p3e3d738c66)" d="M 206.33584 319.04 
L 206.33584 26.88 
" style="fill:none;stroke:#000000;stroke-dasharray:0.8,1.32;stroke-dashoffset:0;stroke-opacity:0.5;stroke-width:0.8;"/>
     </g>
     <g id="line2d_18">
      <g>
       <use style="stroke:#000000;stroke-width:0.8;" x="206.33584" xlink:href="#mb26d7b3453" y="319.04"/>
      </g>
     </g>
     <g id="text_9">
      <!-- Sep -->
      <g transform="translate(196.91084 333.638438)scale(0.1 -0.1)">
       <defs>
        <path d="M 3425 4513 
L 3425 3897 
Q 3066 4069 2747 4153 
Q 2428 4238 2131 4238 
Q 1616 4238 1336 4038 
Q 1056 3838 1056 3469 
Q 1056 3159 1242 3001 
Q 1428 2844 1947 2747 
L 2328 2669 
Q 3034 2534 3370 2195 
Q 3706 1856 3706 1288 
Q 3706 609 3251 259 
Q 2797 -91 1919 -91 
Q 1588 -91 1214 -16 
Q 841 59 441 206 
L 441 856 
Q 825 641 1194 531 
Q 1563 422 1919 422 
Q 2459 422 2753 634 
Q 3047 847 3047 1241 
Q 3047 1584 2836 1778 
Q 2625 1972 2144 2069 
L 1759 2144 
Q 1053 2284 737 2584 
Q 422 2884 422 3419 
Q 422 4038 858 4394 
Q 1294 4750 2059 4750 
Q 2388 4750 2728 4690 
Q 3069 4631 3425 4513 
z
" id="DejaVuSans-53" transform="scale(0.015625)"/>
        <path d="M 3597 1894 
L 3597 1613 
L 953 1613 
Q 991 1019 1311 708 
Q 1631 397 2203 397 
Q 2534 397 2845 478 
Q 3156 559 3463 722 
L 3463 178 
Q 3153 47 2828 -22 
Q 2503 -91 2169 -91 
Q 1331 -91 842 396 
Q 353 884 353 1716 
Q 353 2575 817 3079 
Q 1281 3584 2069 3584 
Q 2775 3584 3186 3129 
Q 3597 2675 3597 1894 
z
M 3022 2063 
Q 3016 2534 2758 2815 
Q 2500 3097 2075 3097 
Q 1594 3097 1305 2825 
Q 1016 2553 972 2059 
L 3022 2063 
z
" id="DejaVuSans-65" transform="scale(0.015625)"/>
        <path d="M 1159 525 
L 1159 -1331 
L 581 -1331 
L 581 3500 
L 1159 3500 
L 1159 2969 
Q 1341 3281 1617 3432 
Q 1894 3584 2278 3584 
Q 2916 3584 3314 3078 
Q 3713 2572 3713 1747 
Q 3713 922 3314 415 
Q 2916 -91 2278 -91 
Q 1894 -91 1617 61 
Q 1341 213 1159 525 
z
M 3116 1747 
Q 3116 2381 2855 2742 
Q 2594 3103 2138 3103 
Q 1681 3103 1420 2742 
Q 1159 2381 1159 1747 
Q 1159 1113 1420 752 
Q 1681 391 2138 391 
Q 2594 391 2855 752 
Q 3116 1113 3116 1747 
z
" id="DejaVuSans-70" transform="scale(0.015625)"/>
       </defs>
       <use xlink:href="#DejaVuSans-53"/>
       <use x="63.476562" xlink:href="#DejaVuSans-65"/>
       <use x="125" xlink:href="#DejaVuSans-70"/>
      </g>
     </g>
    </g>
    <g id="xtick_10">
     <g id="line2d_19">
      <path clip-path="url(#p3e3d738c66)" d="M 223.672602 319.04 
L 223.672602 26.88 
" style="fill:none;stroke:#000000;stroke-dasharray:0.8,1.32;stroke-dashoffset:0;stroke-opacity:0.5;stroke-width:0.8;"/>
     </g>
     <g id="line2d_20">
      <g>
       <use style="stroke:#000000;stroke-width:0.8;" x="223.672602" xlink:href="#mb26d7b3453" y="319.04"/>
      </g>
     </g>
     <g id="text_10">
      <!-- 15 -->
      <g transform="translate(217.310102 333.638438)scale(0.1 -0.1)">
       <use xlink:href="#DejaVuSans-31"/>
       <use x="63.623047" xlink:href="#DejaVuSans-35"/>
      </g>
     </g>
    </g>
    <g id="xtick_11">
     <g id="line2d_21">
      <path clip-path="url(#p3e3d738c66)" d="M 243.486045 319.04 
L 243.486045 26.88 
" style="fill:none;stroke:#000000;stroke-dasharray:0.8,1.32;stroke-dashoffset:0;stroke-opacity:0.5;stroke-width:0.8;"/>
     </g>
     <g id="line2d_22">
      <g>
       <use style="stroke:#000000;stroke-width:0.8;" x="243.486045" xlink:href="#mb26d7b3453" y="319.04"/>
      </g>
     </g>
     <g id="text_11">
      <!-- Oct -->
      <g transform="translate(234.840733 333.638438)scale(0.1 -0.1)">
       <defs>
        <path d="M 2522 4238 
Q 1834 4238 1429 3725 
Q 1025 3213 1025 2328 
Q 1025 1447 1429 934 
Q 1834 422 2522 422 
Q 3209 422 3611 934 
Q 4013 1447 4013 2328 
Q 4013 3213 3611 3725 
Q 3209 4238 2522 4238 
z
M 2522 4750 
Q 3503 4750 4090 4092 
Q 4678 3434 4678 2328 
Q 4678 1225 4090 567 
Q 3503 -91 2522 -91 
Q 1538 -91 948 565 
Q 359 1222 359 2328 
Q 359 3434 948 4092 
Q 1538 4750 2522 4750 
z
" id="DejaVuSans-4f" transform="scale(0.015625)"/>
        <path d="M 3122 3366 
L 3122 2828 
Q 2878 2963 2633 3030 
Q 2388 3097 2138 3097 
Q 1578 3097 1268 2742 
Q 959 2388 959 1747 
Q 959 1106 1268 751 
Q 1578 397 2138 397 
Q 2388 397 2633 464 
Q 2878 531 3122 666 
L 3122 134 
Q 2881 22 2623 -34 
Q 2366 -91 2075 -91 
Q 1284 -91 818 406 
Q 353 903 353 1747 
Q 353 2603 823 3093 
Q 1294 3584 2113 3584 
Q 2378 3584 2631 3529 
Q 2884 3475 3122 3366 
z
" id="DejaVuSans-63" transform="scale(0.015625)"/>
        <path d="M 1172 4494 
L 1172 3500 
L 2356 3500 
L 2356 3053 
L 1172 3053 
L 1172 1153 
Q 1172 725 1289 603 
Q 1406 481 1766 481 
L 2356 481 
L 2356 0 
L 1766 0 
Q 1100 0 847 248 
Q 594 497 594 1153 
L 594 3053 
L 172 3053 
L 172 3500 
L 594 3500 
L 594 4494 
L 1172 4494 
z
" id="DejaVuSans-74" transform="scale(0.015625)"/>
       </defs>
       <use xlink:href="#DejaVuSans-4f"/>
       <use x="78.710938" xlink:href="#DejaVuSans-63"/>
       <use x="133.691406" xlink:href="#DejaVuSans-74"/>
      </g>
     </g>
    </g>
    <g id="xtick_12">
     <g id="line2d_23">
      <path clip-path="url(#p3e3d738c66)" d="M 260.822807 319.04 
L 260.822807 26.88 
" style="fill:none;stroke:#000000;stroke-dasharray:0.8,1.32;stroke-dashoffset:0;stroke-opacity:0.5;stroke-width:0.8;"/>
     </g>
     <g id="line2d_24">
      <g>
       <use style="stroke:#000000;stroke-width:0.8;" x="260.822807" xlink:href="#mb26d7b3453" y="319.04"/>
      </g>
     </g>
     <g id="text_12">
      <!-- 15 -->
      <g transform="translate(254.460307 333.638438)scale(0.1 -0.1)">
       <use xlink:href="#DejaVuSans-31"/>
       <use x="63.623047" xlink:href="#DejaVuSans-35"/>
      </g>
     </g>
    </g>
    <g id="xtick_13">
     <g id="line2d_25">
      <path clip-path="url(#p3e3d738c66)" d="M 281.87459 319.04 
L 281.87459 26.88 
" style="fill:none;stroke:#000000;stroke-dasharray:0.8,1.32;stroke-dashoffset:0;stroke-opacity:0.5;stroke-width:0.8;"/>
     </g>
     <g id="line2d_26">
      <g>
       <use style="stroke:#000000;stroke-width:0.8;" x="281.87459" xlink:href="#mb26d7b3453" y="319.04"/>
      </g>
     </g>
     <g id="text_13">
      <!-- Nov -->
      <g transform="translate(272.115215 333.638438)scale(0.1 -0.1)">
       <defs>
        <path d="M 628 4666 
L 1478 4666 
L 3547 763 
L 3547 4666 
L 4159 4666 
L 4159 0 
L 3309 0 
L 1241 3903 
L 1241 0 
L 628 0 
L 628 4666 
z
" id="DejaVuSans-4e" transform="scale(0.015625)"/>
        <path d="M 1959 3097 
Q 1497 3097 1228 2736 
Q 959 2375 959 1747 
Q 959 1119 1226 758 
Q 1494 397 1959 397 
Q 2419 397 2687 759 
Q 2956 1122 2956 1747 
Q 2956 2369 2687 2733 
Q 2419 3097 1959 3097 
z
M 1959 3584 
Q 2709 3584 3137 3096 
Q 3566 2609 3566 1747 
Q 3566 888 3137 398 
Q 2709 -91 1959 -91 
Q 1206 -91 779 398 
Q 353 888 353 1747 
Q 353 2609 779 3096 
Q 1206 3584 1959 3584 
z
" id="DejaVuSans-6f" transform="scale(0.015625)"/>
        <path d="M 191 3500 
L 800 3500 
L 1894 563 
L 2988 3500 
L 3597 3500 
L 2284 0 
L 1503 0 
L 191 3500 
z
" id="DejaVuSans-76" transform="scale(0.015625)"/>
       </defs>
       <use xlink:href="#DejaVuSans-4e"/>
       <use x="74.804688" xlink:href="#DejaVuSans-6f"/>
       <use x="135.986328" xlink:href="#DejaVuSans-76"/>
      </g>
     </g>
    </g>
    <g id="xtick_14">
     <g id="line2d_27">
      <path clip-path="url(#p3e3d738c66)" d="M 299.211352 319.04 
L 299.211352 26.88 
" style="fill:none;stroke:#000000;stroke-dasharray:0.8,1.32;stroke-dashoffset:0;stroke-opacity:0.5;stroke-width:0.8;"/>
     </g>
     <g id="line2d_28">
      <g>
       <use style="stroke:#000000;stroke-width:0.8;" x="299.211352" xlink:href="#mb26d7b3453" y="319.04"/>
      </g>
     </g>
     <g id="text_14">
      <!-- 15 -->
      <g transform="translate(292.848852 333.638438)scale(0.1 -0.1)">
       <use xlink:href="#DejaVuSans-31"/>
       <use x="63.623047" xlink:href="#DejaVuSans-35"/>
      </g>
     </g>
    </g>
    <g id="xtick_15">
     <g id="line2d_29">
      <path clip-path="url(#p3e3d738c66)" d="M 319.024795 319.04 
L 319.024795 26.88 
" style="fill:none;stroke:#000000;stroke-dasharray:0.8,1.32;stroke-dashoffset:0;stroke-opacity:0.5;stroke-width:0.8;"/>
     </g>
     <g id="line2d_30">
      <g>
       <use style="stroke:#000000;stroke-width:0.8;" x="319.024795" xlink:href="#mb26d7b3453" y="319.04"/>
      </g>
     </g>
     <g id="text_15">
      <!-- Dec -->
      <g transform="translate(309.349014 333.638438)scale(0.1 -0.1)">
       <defs>
        <path d="M 1259 4147 
L 1259 519 
L 2022 519 
Q 2988 519 3436 956 
Q 3884 1394 3884 2338 
Q 3884 3275 3436 3711 
Q 2988 4147 2022 4147 
L 1259 4147 
z
M 628 4666 
L 1925 4666 
Q 3281 4666 3915 4102 
Q 4550 3538 4550 2338 
Q 4550 1131 3912 565 
Q 3275 0 1925 0 
L 628 0 
L 628 4666 
z
" id="DejaVuSans-44" transform="scale(0.015625)"/>
       </defs>
       <use xlink:href="#DejaVuSans-44"/>
       <use x="77.001953" xlink:href="#DejaVuSans-65"/>
       <use x="138.525391" xlink:href="#DejaVuSans-63"/>
      </g>
     </g>
    </g>
    <g id="xtick_16">
     <g id="line2d_31">
      <path clip-path="url(#p3e3d738c66)" d="M 336.361557 319.04 
L 336.361557 26.88 
" style="fill:none;stroke:#000000;stroke-dasharray:0.8,1.32;stroke-dashoffset:0;stroke-opacity:0.5;stroke-width:0.8;"/>
     </g>
     <g id="line2d_32">
      <g>
       <use style="stroke:#000000;stroke-width:0.8;" x="336.361557" xlink:href="#mb26d7b3453" y="319.04"/>
      </g>
     </g>
     <g id="text_16">
      <!-- 15 -->
      <g transform="translate(329.999057 333.638438)scale(0.1 -0.1)">
       <use xlink:href="#DejaVuSans-31"/>
       <use x="63.623047" xlink:href="#DejaVuSans-35"/>
      </g>
     </g>
    </g>
    <g id="text_17">
     <!-- 2021-Dec -->
     <g transform="translate(307.765625 346.316563)scale(0.1 -0.1)">
      <defs>
       <path d="M 1228 531 
L 3431 531 
L 3431 0 
L 469 0 
L 469 531 
Q 828 903 1448 1529 
Q 2069 2156 2228 2338 
Q 2531 2678 2651 2914 
Q 2772 3150 2772 3378 
Q 2772 3750 2511 3984 
Q 2250 4219 1831 4219 
Q 1534 4219 1204 4116 
Q 875 4013 500 3803 
L 500 4441 
Q 881 4594 1212 4672 
Q 1544 4750 1819 4750 
Q 2544 4750 2975 4387 
Q 3406 4025 3406 3419 
Q 3406 3131 3298 2873 
Q 3191 2616 2906 2266 
Q 2828 2175 2409 1742 
Q 1991 1309 1228 531 
z
" id="DejaVuSans-32" transform="scale(0.015625)"/>
       <path d="M 2034 4250 
Q 1547 4250 1301 3770 
Q 1056 3291 1056 2328 
Q 1056 1369 1301 889 
Q 1547 409 2034 409 
Q 2525 409 2770 889 
Q 3016 1369 3016 2328 
Q 3016 3291 2770 3770 
Q 2525 4250 2034 4250 
z
M 2034 4750 
Q 2819 4750 3233 4129 
Q 3647 3509 3647 2328 
Q 3647 1150 3233 529 
Q 2819 -91 2034 -91 
Q 1250 -91 836 529 
Q 422 1150 422 2328 
Q 422 3509 836 4129 
Q 1250 4750 2034 4750 
z
" id="DejaVuSans-30" transform="scale(0.015625)"/>
       <path d="M 313 2009 
L 1997 2009 
L 1997 1497 
L 313 1497 
L 313 2009 
z
" id="DejaVuSans-2d" transform="scale(0.015625)"/>
      </defs>
      <use xlink:href="#DejaVuSans-32"/>
      <use x="63.623047" xlink:href="#DejaVuSans-30"/>
      <use x="127.246094" xlink:href="#DejaVuSans-32"/>
      <use x="190.869141" xlink:href="#DejaVuSans-31"/>
      <use x="254.492188" xlink:href="#DejaVuSans-2d"/>
      <use x="290.576172" xlink:href="#DejaVuSans-44"/>
      <use x="367.578125" xlink:href="#DejaVuSans-65"/>
      <use x="429.101562" xlink:href="#DejaVuSans-63"/>
     </g>
    </g>
   </g>
   <g id="matplotlib.axis_2">
    <g id="ytick_1">
     <g id="line2d_33">
      <path clip-path="url(#p3e3d738c66)" d="M 54.02 319.04 
L 356.175 319.04 
" style="fill:none;stroke:#000000;stroke-dasharray:0.8,1.32;stroke-dashoffset:0;stroke-opacity:0.5;stroke-width:0.8;"/>
     </g>
     <g id="line2d_34">
      <defs>
       <path d="M 0 0 
L -3.5 0 
" id="m7c6cbd7295" style="stroke:#000000;stroke-width:0.8;"/>
      </defs>
      <g>
       <use style="stroke:#000000;stroke-width:0.8;" x="54.02" xlink:href="#m7c6cbd7295" y="319.04"/>
      </g>
     </g>
     <g id="text_18">
      <!-- 0.00 -->
      <g transform="translate(24.754375 322.839219)scale(0.1 -0.1)">
       <defs>
        <path d="M 684 794 
L 1344 794 
L 1344 0 
L 684 0 
L 684 794 
z
" id="DejaVuSans-2e" transform="scale(0.015625)"/>
       </defs>
       <use xlink:href="#DejaVuSans-30"/>
       <use x="63.623047" xlink:href="#DejaVuSans-2e"/>
       <use x="95.410156" xlink:href="#DejaVuSans-30"/>
       <use x="159.033203" xlink:href="#DejaVuSans-30"/>
      </g>
     </g>
    </g>
    <g id="ytick_2">
     <g id="line2d_35">
      <path clip-path="url(#p3e3d738c66)" d="M 54.02 285.84 
L 356.175 285.84 
" style="fill:none;stroke:#000000;stroke-dasharray:0.8,1.32;stroke-dashoffset:0;stroke-opacity:0.5;stroke-width:0.8;"/>
     </g>
     <g id="line2d_36">
      <g>
       <use style="stroke:#000000;stroke-width:0.8;" x="54.02" xlink:href="#m7c6cbd7295" y="285.84"/>
      </g>
     </g>
     <g id="text_19">
      <!-- 0.25 -->
      <g transform="translate(24.754375 289.639219)scale(0.1 -0.1)">
       <use xlink:href="#DejaVuSans-30"/>
       <use x="63.623047" xlink:href="#DejaVuSans-2e"/>
       <use x="95.410156" xlink:href="#DejaVuSans-32"/>
       <use x="159.033203" xlink:href="#DejaVuSans-35"/>
      </g>
     </g>
    </g>
    <g id="ytick_3">
     <g id="line2d_37">
      <path clip-path="url(#p3e3d738c66)" d="M 54.02 252.64 
L 356.175 252.64 
" style="fill:none;stroke:#000000;stroke-dasharray:0.8,1.32;stroke-dashoffset:0;stroke-opacity:0.5;stroke-width:0.8;"/>
     </g>
     <g id="line2d_38">
      <g>
       <use style="stroke:#000000;stroke-width:0.8;" x="54.02" xlink:href="#m7c6cbd7295" y="252.64"/>
      </g>
     </g>
     <g id="text_20">
      <!-- 0.50 -->
      <g transform="translate(24.754375 256.439219)scale(0.1 -0.1)">
       <use xlink:href="#DejaVuSans-30"/>
       <use x="63.623047" xlink:href="#DejaVuSans-2e"/>
       <use x="95.410156" xlink:href="#DejaVuSans-35"/>
       <use x="159.033203" xlink:href="#DejaVuSans-30"/>
      </g>
     </g>
    </g>
    <g id="ytick_4">
     <g id="line2d_39">
      <path clip-path="url(#p3e3d738c66)" d="M 54.02 219.44 
L 356.175 219.44 
" style="fill:none;stroke:#000000;stroke-dasharray:0.8,1.32;stroke-dashoffset:0;stroke-opacity:0.5;stroke-width:0.8;"/>
     </g>
     <g id="line2d_40">
      <g>
       <use style="stroke:#000000;stroke-width:0.8;" x="54.02" xlink:href="#m7c6cbd7295" y="219.44"/>
      </g>
     </g>
     <g id="text_21">
      <!-- 0.75 -->
      <g transform="translate(24.754375 223.239219)scale(0.1 -0.1)">
       <defs>
        <path d="M 525 4666 
L 3525 4666 
L 3525 4397 
L 1831 0 
L 1172 0 
L 2766 4134 
L 525 4134 
L 525 4666 
z
" id="DejaVuSans-37" transform="scale(0.015625)"/>
       </defs>
       <use xlink:href="#DejaVuSans-30"/>
       <use x="63.623047" xlink:href="#DejaVuSans-2e"/>
       <use x="95.410156" xlink:href="#DejaVuSans-37"/>
       <use x="159.033203" xlink:href="#DejaVuSans-35"/>
      </g>
     </g>
    </g>
    <g id="ytick_5">
     <g id="line2d_41">
      <path clip-path="url(#p3e3d738c66)" d="M 54.02 186.24 
L 356.175 186.24 
" style="fill:none;stroke:#000000;stroke-dasharray:0.8,1.32;stroke-dashoffset:0;stroke-opacity:0.5;stroke-width:0.8;"/>
     </g>
     <g id="line2d_42">
      <g>
       <use style="stroke:#000000;stroke-width:0.8;" x="54.02" xlink:href="#m7c6cbd7295" y="186.24"/>
      </g>
     </g>
     <g id="text_22">
      <!-- 1.00 -->
      <g transform="translate(24.754375 190.039219)scale(0.1 -0.1)">
       <use xlink:href="#DejaVuSans-31"/>
       <use x="63.623047" xlink:href="#DejaVuSans-2e"/>
       <use x="95.410156" xlink:href="#DejaVuSans-30"/>
       <use x="159.033203" xlink:href="#DejaVuSans-30"/>
      </g>
     </g>
    </g>
    <g id="ytick_6">
     <g id="line2d_43">
      <path clip-path="url(#p3e3d738c66)" d="M 54.02 153.04 
L 356.175 153.04 
" style="fill:none;stroke:#000000;stroke-dasharray:0.8,1.32;stroke-dashoffset:0;stroke-opacity:0.5;stroke-width:0.8;"/>
     </g>
     <g id="line2d_44">
      <g>
       <use style="stroke:#000000;stroke-width:0.8;" x="54.02" xlink:href="#m7c6cbd7295" y="153.04"/>
      </g>
     </g>
     <g id="text_23">
      <!-- 1.25 -->
      <g transform="translate(24.754375 156.839219)scale(0.1 -0.1)">
       <use xlink:href="#DejaVuSans-31"/>
       <use x="63.623047" xlink:href="#DejaVuSans-2e"/>
       <use x="95.410156" xlink:href="#DejaVuSans-32"/>
       <use x="159.033203" xlink:href="#DejaVuSans-35"/>
      </g>
     </g>
    </g>
    <g id="ytick_7">
     <g id="line2d_45">
      <path clip-path="url(#p3e3d738c66)" d="M 54.02 119.84 
L 356.175 119.84 
" style="fill:none;stroke:#000000;stroke-dasharray:0.8,1.32;stroke-dashoffset:0;stroke-opacity:0.5;stroke-width:0.8;"/>
     </g>
     <g id="line2d_46">
      <g>
       <use style="stroke:#000000;stroke-width:0.8;" x="54.02" xlink:href="#m7c6cbd7295" y="119.84"/>
      </g>
     </g>
     <g id="text_24">
      <!-- 1.50 -->
      <g transform="translate(24.754375 123.639219)scale(0.1 -0.1)">
       <use xlink:href="#DejaVuSans-31"/>
       <use x="63.623047" xlink:href="#DejaVuSans-2e"/>
       <use x="95.410156" xlink:href="#DejaVuSans-35"/>
       <use x="159.033203" xlink:href="#DejaVuSans-30"/>
      </g>
     </g>
    </g>
    <g id="ytick_8">
     <g id="line2d_47">
      <path clip-path="url(#p3e3d738c66)" d="M 54.02 86.64 
L 356.175 86.64 
" style="fill:none;stroke:#000000;stroke-dasharray:0.8,1.32;stroke-dashoffset:0;stroke-opacity:0.5;stroke-width:0.8;"/>
     </g>
     <g id="line2d_48">
      <g>
       <use style="stroke:#000000;stroke-width:0.8;" x="54.02" xlink:href="#m7c6cbd7295" y="86.64"/>
      </g>
     </g>
     <g id="text_25">
      <!-- 1.75 -->
      <g transform="translate(24.754375 90.439219)scale(0.1 -0.1)">
       <use xlink:href="#DejaVuSans-31"/>
       <use x="63.623047" xlink:href="#DejaVuSans-2e"/>
       <use x="95.410156" xlink:href="#DejaVuSans-37"/>
       <use x="159.033203" xlink:href="#DejaVuSans-35"/>
      </g>
     </g>
    </g>
    <g id="ytick_9">
     <g id="line2d_49">
      <path clip-path="url(#p3e3d738c66)" d="M 54.02 53.44 
L 356.175 53.44 
" style="fill:none;stroke:#000000;stroke-dasharray:0.8,1.32;stroke-dashoffset:0;stroke-opacity:0.5;stroke-width:0.8;"/>
     </g>
     <g id="line2d_50">
      <g>
       <use style="stroke:#000000;stroke-width:0.8;" x="54.02" xlink:href="#m7c6cbd7295" y="53.44"/>
      </g>
     </g>
     <g id="text_26">
      <!-- 2.00 -->
      <g transform="translate(24.754375 57.239219)scale(0.1 -0.1)">
       <use xlink:href="#DejaVuSans-32"/>
       <use x="63.623047" xlink:href="#DejaVuSans-2e"/>
       <use x="95.410156" xlink:href="#DejaVuSans-30"/>
       <use x="159.033203" xlink:href="#DejaVuSans-30"/>
      </g>
     </g>
    </g>
    <g id="text_27">
     <!-- 7d avg doses per hundred population per day -->
     <g transform="translate(18.674688 287.4475)rotate(-90)scale(0.1 -0.1)">
      <defs>
       <path d="M 2906 2969 
L 2906 4863 
L 3481 4863 
L 3481 0 
L 2906 0 
L 2906 525 
Q 2725 213 2448 61 
Q 2172 -91 1784 -91 
Q 1150 -91 751 415 
Q 353 922 353 1747 
Q 353 2572 751 3078 
Q 1150 3584 1784 3584 
Q 2172 3584 2448 3432 
Q 2725 3281 2906 2969 
z
M 947 1747 
Q 947 1113 1208 752 
Q 1469 391 1925 391 
Q 2381 391 2643 752 
Q 2906 1113 2906 1747 
Q 2906 2381 2643 2742 
Q 2381 3103 1925 3103 
Q 1469 3103 1208 2742 
Q 947 2381 947 1747 
z
" id="DejaVuSans-64" transform="scale(0.015625)"/>
       <path id="DejaVuSans-20" transform="scale(0.015625)"/>
       <path d="M 2834 3397 
L 2834 2853 
Q 2591 2978 2328 3040 
Q 2066 3103 1784 3103 
Q 1356 3103 1142 2972 
Q 928 2841 928 2578 
Q 928 2378 1081 2264 
Q 1234 2150 1697 2047 
L 1894 2003 
Q 2506 1872 2764 1633 
Q 3022 1394 3022 966 
Q 3022 478 2636 193 
Q 2250 -91 1575 -91 
Q 1294 -91 989 -36 
Q 684 19 347 128 
L 347 722 
Q 666 556 975 473 
Q 1284 391 1588 391 
Q 1994 391 2212 530 
Q 2431 669 2431 922 
Q 2431 1156 2273 1281 
Q 2116 1406 1581 1522 
L 1381 1569 
Q 847 1681 609 1914 
Q 372 2147 372 2553 
Q 372 3047 722 3315 
Q 1072 3584 1716 3584 
Q 2034 3584 2315 3537 
Q 2597 3491 2834 3397 
z
" id="DejaVuSans-73" transform="scale(0.015625)"/>
       <path d="M 2631 2963 
Q 2534 3019 2420 3045 
Q 2306 3072 2169 3072 
Q 1681 3072 1420 2755 
Q 1159 2438 1159 1844 
L 1159 0 
L 581 0 
L 581 3500 
L 1159 3500 
L 1159 2956 
Q 1341 3275 1631 3429 
Q 1922 3584 2338 3584 
Q 2397 3584 2469 3576 
Q 2541 3569 2628 3553 
L 2631 2963 
z
" id="DejaVuSans-72" transform="scale(0.015625)"/>
       <path d="M 3513 2113 
L 3513 0 
L 2938 0 
L 2938 2094 
Q 2938 2591 2744 2837 
Q 2550 3084 2163 3084 
Q 1697 3084 1428 2787 
Q 1159 2491 1159 1978 
L 1159 0 
L 581 0 
L 581 4863 
L 1159 4863 
L 1159 2956 
Q 1366 3272 1645 3428 
Q 1925 3584 2291 3584 
Q 2894 3584 3203 3211 
Q 3513 2838 3513 2113 
z
" id="DejaVuSans-68" transform="scale(0.015625)"/>
       <path d="M 603 3500 
L 1178 3500 
L 1178 0 
L 603 0 
L 603 3500 
z
M 603 4863 
L 1178 4863 
L 1178 4134 
L 603 4134 
L 603 4863 
z
" id="DejaVuSans-69" transform="scale(0.015625)"/>
      </defs>
      <use xlink:href="#DejaVuSans-37"/>
      <use x="63.623047" xlink:href="#DejaVuSans-64"/>
      <use x="127.099609" xlink:href="#DejaVuSans-20"/>
      <use x="158.886719" xlink:href="#DejaVuSans-61"/>
      <use x="220.166016" xlink:href="#DejaVuSans-76"/>
      <use x="279.345703" xlink:href="#DejaVuSans-67"/>
      <use x="342.822266" xlink:href="#DejaVuSans-20"/>
      <use x="374.609375" xlink:href="#DejaVuSans-64"/>
      <use x="438.085938" xlink:href="#DejaVuSans-6f"/>
      <use x="499.267578" xlink:href="#DejaVuSans-73"/>
      <use x="551.367188" xlink:href="#DejaVuSans-65"/>
      <use x="612.890625" xlink:href="#DejaVuSans-73"/>
      <use x="664.990234" xlink:href="#DejaVuSans-20"/>
      <use x="696.777344" xlink:href="#DejaVuSans-70"/>
      <use x="760.253906" xlink:href="#DejaVuSans-65"/>
      <use x="821.777344" xlink:href="#DejaVuSans-72"/>
      <use x="862.890625" xlink:href="#DejaVuSans-20"/>
      <use x="894.677734" xlink:href="#DejaVuSans-68"/>
      <use x="958.056641" xlink:href="#DejaVuSans-75"/>
      <use x="1021.435547" xlink:href="#DejaVuSans-6e"/>
      <use x="1084.814453" xlink:href="#DejaVuSans-64"/>
      <use x="1148.291016" xlink:href="#DejaVuSans-72"/>
      <use x="1187.154297" xlink:href="#DejaVuSans-65"/>
      <use x="1248.677734" xlink:href="#DejaVuSans-64"/>
      <use x="1312.154297" xlink:href="#DejaVuSans-20"/>
      <use x="1343.941406" xlink:href="#DejaVuSans-70"/>
      <use x="1407.417969" xlink:href="#DejaVuSans-6f"/>
      <use x="1468.599609" xlink:href="#DejaVuSans-70"/>
      <use x="1532.076172" xlink:href="#DejaVuSans-75"/>
      <use x="1595.455078" xlink:href="#DejaVuSans-6c"/>
      <use x="1623.238281" xlink:href="#DejaVuSans-61"/>
      <use x="1684.517578" xlink:href="#DejaVuSans-74"/>
      <use x="1723.726562" xlink:href="#DejaVuSans-69"/>
      <use x="1751.509766" xlink:href="#DejaVuSans-6f"/>
      <use x="1812.691406" xlink:href="#DejaVuSans-6e"/>
      <use x="1876.070312" xlink:href="#DejaVuSans-20"/>
      <use x="1907.857422" xlink:href="#DejaVuSans-70"/>
      <use x="1971.333984" xlink:href="#DejaVuSans-65"/>
      <use x="2032.857422" xlink:href="#DejaVuSans-72"/>
      <use x="2073.970703" xlink:href="#DejaVuSans-20"/>
      <use x="2105.757812" xlink:href="#DejaVuSans-64"/>
      <use x="2169.234375" xlink:href="#DejaVuSans-61"/>
      <use x="2230.513672" xlink:href="#DejaVuSans-79"/>
     </g>
    </g>
   </g>
   <g id="line2d_51">
    <path clip-path="url(#p3e3d738c66)" d="M 4.486393 319.04 
L 15.631455 319.04 
L 15.631455 312.117729 
L 16.869795 312.117729 
L 16.869795 311.981355 
L 18.108135 311.981355 
L 18.108135 311.78876 
L 20.584816 311.78876 
L 20.584816 311.653317 
L 21.823156 311.653317 
L 21.823156 310.798371 
L 23.061496 310.798371 
L 23.061496 310.108374 
L 24.299836 310.108374 
L 24.299836 252.505021 
L 25.538176 252.505021 
L 25.538176 248.20799 
L 26.776516 248.20799 
L 26.776516 246.763875 
L 28.014857 246.763875 
L 28.014857 246.298534 
L 29.253197 246.298534 
L 29.253197 242.347895 
L 30.491537 242.347895 
L 30.491537 238.374954 
L 31.729877 238.374954 
L 31.729877 234.31373 
L 32.968217 234.31373 
L 32.968217 294.345779 
L 34.206557 294.345779 
L 34.206557 294.616899 
L 36.683238 294.663828 
L 36.683238 290.114496 
L 37.921578 290.114496 
L 37.921578 289.5697 
L 40.398258 289.578761 
L 40.398258 289.443782 
L 44.113279 289.352711 
L 44.113279 289.6157 
L 45.351619 289.6157 
L 45.351619 294.508405 
L 46.589959 294.508405 
L 46.589959 295.972035 
L 47.828299 295.972035 
L 47.828299 296.897141 
L 49.066639 296.897141 
L 49.066639 295.8805 
L 51.54332 295.910934 
L 51.54332 296.025701 
L 52.78166 296.025701 
L 52.78166 296.163236 
L 55.25834 296.072398 
L 55.25834 295.090837 
L 56.49668 295.090837 
L 56.49668 293.842337 
L 57.73502 293.842337 
L 57.73502 294.661273 
L 58.973361 294.661273 
L 58.973361 294.105791 
L 60.211701 294.105791 
L 60.211701 293.120048 
L 61.450041 293.120048 
L 61.450041 292.603595 
L 63.926721 292.556202 
L 63.926721 291.831589 
L 65.165061 291.831589 
L 65.165061 291.201996 
L 66.403402 291.201996 
L 66.403402 290.210445 
L 67.641742 290.210445 
L 67.641742 288.854845 
L 68.880082 288.854845 
L 68.880082 287.718325 
L 70.118422 287.718325 
L 70.118422 286.494452 
L 72.595102 286.470755 
L 72.595102 284.759237 
L 73.833443 284.759237 
L 73.833443 283.352759 
L 75.071783 283.352759 
L 75.071783 282.046876 
L 76.310123 282.046876 
L 76.310123 280.618327 
L 77.548463 280.618327 
L 77.548463 279.360535 
L 80.025143 279.249485 
L 80.025143 279.12101 
L 81.263484 279.12101 
L 81.263484 278.849658 
L 82.501824 278.849658 
L 82.501824 278.136894 
L 83.740164 278.136894 
L 83.740164 277.173918 
L 84.978504 277.173918 
L 84.978504 276.357306 
L 86.216844 276.357306 
L 86.216844 275.461007 
L 87.455184 275.461007 
L 87.455184 274.791919 
L 89.931865 274.742202 
L 89.931865 273.357097 
L 91.170205 273.357097 
L 91.170205 272.471253 
L 92.408545 272.471253 
L 92.408545 271.434864 
L 93.646885 271.434864 
L 93.646885 270.470262 
L 96.123566 270.418687 
L 96.123566 270.2319 
L 97.361906 270.2319 
L 97.361906 270.058587 
L 98.600246 270.058587 
L 98.600246 269.872265 
L 99.838586 269.872265 
L 99.838586 269.476155 
L 101.076926 269.476155 
L 101.076926 270.0479 
L 104.791947 270.062537 
L 104.791947 270.939321 
L 106.030287 270.939321 
L 106.030287 271.294773 
L 107.268627 271.294773 
L 107.268627 276.464639 
L 108.506967 276.464639 
L 108.506967 276.243933 
L 109.745307 276.243933 
L 109.745307 275.886157 
L 110.983648 275.886157 
L 110.983648 275.773016 
L 112.221988 275.773016 
L 112.221988 275.501896 
L 113.460328 275.501896 
L 113.460328 274.507789 
L 114.698668 274.507789 
L 114.698668 274.242013 
L 115.937008 274.242013 
L 115.937008 268.84935 
L 117.175348 268.84935 
L 117.175348 269.115359 
L 119.652029 269.052632 
L 119.652029 268.770361 
L 120.890369 268.770361 
L 120.890369 269.145793 
L 122.128709 269.145793 
L 122.128709 268.455564 
L 123.367049 268.455564 
L 123.367049 266.061949 
L 124.605389 266.061949 
L 124.605389 265.862152 
L 125.84373 265.862152 
L 125.84373 264.300714 
L 127.08207 264.300714 
L 127.08207 262.271148 
L 128.32041 262.271148 
L 128.32041 259.027001 
L 129.55875 259.027001 
L 129.55875 257.070384 
L 130.79709 257.070384 
L 130.79709 254.255336 
L 132.03543 254.255336 
L 132.03543 253.759561 
L 133.27377 253.759561 
L 133.27377 251.779246 
L 134.512111 251.779246 
L 134.512111 249.757579 
L 136.988791 249.732953 
L 136.988791 250.869008 
L 138.227131 250.869008 
L 138.227131 249.829599 
L 139.465471 249.829599 
L 139.465471 249.661165 
L 140.703811 249.661165 
L 140.703811 248.89729 
L 141.942152 248.89729 
L 141.942152 247.058924 
L 143.180492 247.058924 
L 143.180492 244.070564 
L 144.418832 244.070564 
L 144.418832 241.528031 
L 145.657172 241.528031 
L 145.657172 238.645377 
L 146.895512 238.645377 
L 146.895512 236.031753 
L 148.133852 236.031753 
L 148.133852 234.931707 
L 150.610533 234.977939 
L 150.610533 233.472724 
L 151.848873 233.472724 
L 151.848873 234.333013 
L 153.087213 234.333013 
L 153.087213 229.782286 
L 154.325553 229.782286 
L 154.325553 228.060314 
L 155.563893 228.060314 
L 155.563893 225.561689 
L 156.802234 225.561689 
L 156.802234 223.112549 
L 158.040574 223.112549 
L 158.040574 221.644505 
L 159.278914 221.644505 
L 159.278914 222.118907 
L 160.517254 222.118907 
L 160.517254 218.815518 
L 161.755594 218.815518 
L 161.755594 209.093997 
L 162.993934 209.093997 
L 162.993934 207.505145 
L 164.232275 207.505145 
L 164.232275 203.112398 
L 165.470615 203.112398 
L 165.470615 202.569925 
L 166.708955 202.569925 
L 166.708955 201.980524 
L 167.947295 201.980524 
L 167.947295 197.603574 
L 169.185635 197.603574 
L 169.185635 193.604148 
L 170.423975 193.604148 
L 170.423975 201.30981 
L 171.662316 201.30981 
L 171.662316 196.540236 
L 172.900656 196.540236 
L 172.900656 195.748714 
L 174.138996 195.748714 
L 174.138996 191.40034 
L 176.615676 191.465855 
L 176.615676 188.717019 
L 177.854016 188.717019 
L 177.854016 182.619956 
L 179.092357 182.619956 
L 179.092357 177.888483 
L 180.330697 177.888483 
L 180.330697 175.335262 
L 181.569037 175.335262 
L 181.569037 170.41584 
L 182.807377 170.41584 
L 182.807377 171.609976 
L 184.045717 171.609976 
L 184.045717 166.792311 
L 185.284057 166.792311 
L 185.284057 162.638855 
L 186.522398 162.638855 
L 186.522398 164.952784 
L 187.760738 164.952784 
L 187.760738 159.350567 
L 188.999078 159.350567 
L 188.999078 156.630075 
L 190.237418 156.630075 
L 190.237418 153.150121 
L 191.475758 153.150121 
L 191.475758 149.427855 
L 192.714098 149.427855 
L 192.714098 146.546828 
L 193.952439 146.546828 
L 193.952439 142.096929 
L 195.190779 142.096929 
L 195.190779 137.671424 
L 196.429119 137.671424 
L 196.429119 135.377242 
L 197.667459 135.377242 
L 197.667459 131.372937 
L 198.905799 131.372937 
L 198.905799 129.22024 
L 200.144139 129.22024 
L 200.144139 131.588068 
L 201.38248 131.588068 
L 201.38248 128.93611 
L 202.62082 128.93611 
L 202.62082 123.7918 
L 203.85916 123.7918 
L 203.85916 125.649913 
L 205.0975 125.649913 
L 205.0975 126.333869 
L 206.33584 126.333869 
L 206.33584 132.113116 
L 207.57418 132.113116 
L 207.57418 134.421236 
L 208.81252 134.421236 
L 208.81252 128.904747 
L 210.050861 128.904747 
L 210.050861 134.253732 
L 211.289201 134.253732 
L 211.289201 145.902598 
L 212.527541 145.902598 
L 212.527541 149.084715 
L 213.765881 149.084715 
L 213.765881 154.934123 
L 215.004221 154.934123 
L 215.004221 153.539725 
L 216.242561 153.539725 
L 216.242561 155.507726 
L 217.480902 155.507726 
L 217.480902 161.964192 
L 218.719242 161.964192 
L 218.719242 164.016061 
L 219.957582 164.016061 
L 219.957582 152.613456 
L 221.195922 152.613456 
L 221.195922 151.501795 
L 222.434262 151.501795 
L 222.434262 150.270255 
L 223.672602 150.270255 
L 223.672602 152.803961 
L 224.910943 152.803961 
L 224.910943 147.898478 
L 226.149283 147.898478 
L 226.149283 144.032869 
L 227.387623 144.032869 
L 227.387623 142.208211 
L 228.625963 142.208211 
L 228.625963 146.968725 
L 229.864303 146.968725 
L 229.864303 142.68633 
L 231.102643 142.68633 
L 231.102643 140.949025 
L 232.340984 140.949025 
L 232.340984 136.613429 
L 233.579324 136.613429 
L 233.579324 136.881528 
L 234.817664 136.881528 
L 234.817664 136.034482 
L 236.056004 136.034482 
L 236.056004 137.193305 
L 237.294344 137.193305 
L 237.294344 137.044851 
L 238.532684 137.044851 
L 238.532684 137.346637 
L 239.771025 137.346637 
L 239.771025 140.158897 
L 241.009365 140.158897 
L 241.009365 141.361629 
L 242.247705 141.361629 
L 242.247705 144.774906 
L 243.486045 144.774906 
L 243.486045 149.644844 
L 244.724385 149.644844 
L 244.724385 152.222458 
L 245.962725 152.222458 
L 245.962725 176.303348 
L 247.201066 176.303348 
L 247.201066 173.974319 
L 248.439406 173.974319 
L 248.439406 172.45075 
L 249.677746 172.45075 
L 249.677746 173.857693 
L 250.916086 173.857693 
L 250.916086 174.592993 
L 252.154426 174.592993 
L 252.154426 171.925934 
L 253.392766 171.925934 
L 253.392766 168.971958 
L 254.631107 168.971958 
L 254.631107 146.783564 
L 255.869447 146.783564 
L 255.869447 150.388972 
L 257.107787 150.388972 
L 257.107787 152.131156 
L 258.346127 152.131156 
L 258.346127 155.538393 
L 259.584467 155.538393 
L 259.584467 161.554608 
L 260.822807 161.554608 
L 260.822807 167.764812 
L 262.061148 167.764812 
L 262.061148 168.422283 
L 263.299488 168.422283 
L 263.299488 177.379232 
L 264.537828 177.379232 
L 264.537828 189.222552 
L 265.776168 189.222552 
L 265.776168 199.468889 
L 267.014508 199.468889 
L 267.014508 207.254702 
L 268.252848 207.254702 
L 268.252848 214.191842 
L 269.491189 214.191842 
L 269.491189 216.757376 
L 270.729529 216.757376 
L 270.729529 222.365168 
L 271.967869 222.365168 
L 271.967869 230.352637 
L 273.206209 230.352637 
L 273.206209 236.696194 
L 274.444549 236.696194 
L 274.444549 241.994069 
L 275.682889 241.994069 
L 275.682889 247.06148 
L 276.92123 247.06148 
L 276.92123 252.026902 
L 278.15957 252.026902 
L 278.15957 255.380705 
L 279.39791 255.380705 
L 279.39791 256.698204 
L 280.63625 256.698204 
L 280.63625 257.983642 
L 281.87459 257.983642 
L 281.87459 260.466934 
L 283.11293 260.466934 
L 283.11293 263.718747 
L 284.35127 263.718747 
L 284.35127 267.885213 
L 285.589611 267.885213 
L 285.589611 271.253652 
L 286.827951 271.253652 
L 286.827951 273.875408 
L 288.066291 273.875408 
L 288.066291 275.320684 
L 289.304631 275.320684 
L 289.304631 279.537099 
L 290.542971 279.537099 
L 290.542971 283.015659 
L 291.781311 283.015659 
L 291.781311 285.991706 
L 293.019652 285.991706 
L 293.019652 287.964819 
L 294.257992 287.964819 
L 294.257992 290.59215 
L 295.496332 290.59215 
L 295.496332 291.733317 
L 296.734672 291.733317 
L 296.734672 292.039749 
L 297.973012 292.039749 
L 297.973012 294.212426 
L 299.211352 294.212426 
L 299.211352 296.071004 
L 300.449693 296.071004 
L 300.449693 297.553684 
L 301.688033 297.553684 
L 301.688033 299.524241 
L 302.926373 299.524241 
L 302.926373 301.407676 
L 304.164713 301.407676 
L 304.164713 302.220107 
L 305.403053 302.220107 
L 305.403053 302.726105 
L 306.641393 302.726105 
L 306.641393 303.247668 
L 307.879734 303.247668 
L 307.879734 304.113997 
L 309.118074 304.113997 
L 309.118074 305.076276 
L 310.356414 305.076276 
L 310.356414 306.216978 
L 311.594754 306.216978 
L 311.594754 306.739006 
L 312.833094 306.739006 
L 312.833094 307.060772 
L 315.309775 307.047762 
L 315.309775 307.90294 
L 316.548115 307.90294 
L 316.548115 308.32019 
L 317.786455 308.32019 
L 317.786455 309.147722 
L 319.024795 309.147722 
L 319.024795 309.407458 
L 320.263135 309.407458 
L 320.263135 309.77383 
L 321.501475 309.77383 
L 321.501475 309.958991 
L 323.978156 309.988728 
L 323.978156 310.480554 
L 325.216496 310.480554 
L 325.216496 310.985855 
L 327.693176 311.03534 
L 327.693176 311.141278 
L 328.931516 311.141278 
L 328.931516 311.58664 
L 330.169857 311.58664 
L 330.169857 311.71767 
L 331.408197 311.71767 
L 331.408197 311.872629 
L 332.646537 311.872629 
L 332.646537 312.06987 
L 333.884877 312.06987 
L 333.884877 312.292203 
L 335.123217 312.292203 
L 335.123217 312.634413 
L 336.361557 312.634413 
L 336.361557 312.855816 
L 337.599898 312.855816 
L 337.599898 312.855816 
" style="fill:none;stroke:#1f77b4;stroke-linecap:square;stroke-width:1.5;"/>
   </g>
   <g id="line2d_52">
    <path clip-path="url(#p3e3d738c66)" d="M 337.599898 305.76 
L 348.744959 305.76 
L 348.744959 319.04 
L 585.26793 319.04 
L 585.26793 319.04 
" style="fill:none;stroke:#ff7f0e;stroke-linecap:square;stroke-width:1.5;"/>
   </g>
   <g id="patch_3">
    <path d="M 54.02 319.04 
L 54.02 26.88 
" style="fill:none;stroke:#000000;stroke-linecap:square;stroke-linejoin:miter;stroke-width:0.8;"/>
   </g>
   <g id="patch_4">
    <path d="M 356.175 319.04 
L 356.175 26.88 
" style="fill:none;stroke:#000000;stroke-linecap:square;stroke-linejoin:miter;stroke-width:0.8;"/>
   </g>
   <g id="patch_5">
    <path d="M 54.02 319.04 
L 356.175 319.04 
" style="fill:none;stroke:#000000;stroke-linecap:square;stroke-linejoin:miter;stroke-width:0.8;"/>
   </g>
   <g id="patch_6">
    <path d="M 54.02 26.88 
L 356.175 26.88 
" style="fill:none;stroke:#000000;stroke-linecap:square;stroke-linejoin:miter;stroke-width:0.8;"/>
   </g>
   <g id="text_28">
    <!-- NSW daily vaccinations per capita -->
    <g transform="translate(102.829375 20.88)scale(0.12 -0.12)">
     <defs>
      <path d="M 213 4666 
L 850 4666 
L 1831 722 
L 2809 4666 
L 3519 4666 
L 4500 722 
L 5478 4666 
L 6119 4666 
L 4947 0 
L 4153 0 
L 3169 4050 
L 2175 0 
L 1381 0 
L 213 4666 
z
" id="DejaVuSans-57" transform="scale(0.015625)"/>
     </defs>
     <use xlink:href="#DejaVuSans-4e"/>
     <use x="74.804688" xlink:href="#DejaVuSans-53"/>
     <use x="138.28125" xlink:href="#DejaVuSans-57"/>
     <use x="237.158203" xlink:href="#DejaVuSans-20"/>
     <use x="268.945312" xlink:href="#DejaVuSans-64"/>
     <use x="332.421875" xlink:href="#DejaVuSans-61"/>
     <use x="393.701172" xlink:href="#DejaVuSans-69"/>
     <use x="421.484375" xlink:href="#DejaVuSans-6c"/>
     <use x="449.267578" xlink:href="#DejaVuSans-79"/>
     <use x="508.447266" xlink:href="#DejaVuSans-20"/>
     <use x="540.234375" xlink:href="#DejaVuSans-76"/>
     <use x="599.414062" xlink:href="#DejaVuSans-61"/>
     <use x="660.693359" xlink:href="#DejaVuSans-63"/>
     <use x="715.673828" xlink:href="#DejaVuSans-63"/>
     <use x="770.654297" xlink:href="#DejaVuSans-69"/>
     <use x="798.4375" xlink:href="#DejaVuSans-6e"/>
     <use x="861.816406" xlink:href="#DejaVuSans-61"/>
     <use x="923.095703" xlink:href="#DejaVuSans-74"/>
     <use x="962.304688" xlink:href="#DejaVuSans-69"/>
     <use x="990.087891" xlink:href="#DejaVuSans-6f"/>
     <use x="1051.269531" xlink:href="#DejaVuSans-6e"/>
     <use x="1114.648438" xlink:href="#DejaVuSans-73"/>
     <use x="1166.748047" xlink:href="#DejaVuSans-20"/>
     <use x="1198.535156" xlink:href="#DejaVuSans-70"/>
     <use x="1262.011719" xlink:href="#DejaVuSans-65"/>
     <use x="1323.535156" xlink:href="#DejaVuSans-72"/>
     <use x="1364.648438" xlink:href="#DejaVuSans-20"/>
     <use x="1396.435547" xlink:href="#DejaVuSans-63"/>
     <use x="1451.416016" xlink:href="#DejaVuSans-61"/>
     <use x="1512.695312" xlink:href="#DejaVuSans-70"/>
     <use x="1576.171875" xlink:href="#DejaVuSans-69"/>
     <use x="1603.955078" xlink:href="#DejaVuSans-74"/>
     <use x="1643.164062" xlink:href="#DejaVuSans-61"/>
    </g>
   </g>
   <g id="legend_1">
    <g id="patch_7">
     <path d="M 201.292187 64.23625 
L 349.175 64.23625 
Q 351.175 64.23625 351.175 62.23625 
L 351.175 33.88 
Q 351.175 31.88 349.175 31.88 
L 201.292187 31.88 
Q 199.292187 31.88 199.292187 33.88 
L 199.292187 62.23625 
Q 199.292187 64.23625 201.292187 64.23625 
z
" style="fill:#ffffff;opacity:0.8;stroke:#cccccc;stroke-linejoin:miter;"/>
    </g>
    <g id="line2d_53">
     <path d="M 203.292187 39.978437 
L 223.292187 39.978437 
" style="fill:none;stroke:#1f77b4;stroke-linecap:square;stroke-width:1.5;"/>
    </g>
    <g id="line2d_54"/>
    <g id="text_29">
     <!-- Actual -->
     <g transform="translate(231.292187 43.478437)scale(0.1 -0.1)">
      <use xlink:href="#DejaVuSans-41"/>
      <use x="66.658203" xlink:href="#DejaVuSans-63"/>
      <use x="121.638672" xlink:href="#DejaVuSans-74"/>
      <use x="160.847656" xlink:href="#DejaVuSans-75"/>
      <use x="224.226562" xlink:href="#DejaVuSans-61"/>
      <use x="285.505859" xlink:href="#DejaVuSans-6c"/>
     </g>
    </g>
    <g id="line2d_55">
     <path d="M 203.292187 54.656563 
L 223.292187 54.656563 
" style="fill:none;stroke:#ff7f0e;stroke-linecap:square;stroke-width:1.5;"/>
    </g>
    <g id="line2d_56"/>
    <g id="text_30">
     <!-- Assumed for projection -->
     <g transform="translate(231.292187 58.156563)scale(0.1 -0.1)">
      <defs>
       <path d="M 3328 2828 
Q 3544 3216 3844 3400 
Q 4144 3584 4550 3584 
Q 5097 3584 5394 3201 
Q 5691 2819 5691 2113 
L 5691 0 
L 5113 0 
L 5113 2094 
Q 5113 2597 4934 2840 
Q 4756 3084 4391 3084 
Q 3944 3084 3684 2787 
Q 3425 2491 3425 1978 
L 3425 0 
L 2847 0 
L 2847 2094 
Q 2847 2600 2669 2842 
Q 2491 3084 2119 3084 
Q 1678 3084 1418 2786 
Q 1159 2488 1159 1978 
L 1159 0 
L 581 0 
L 581 3500 
L 1159 3500 
L 1159 2956 
Q 1356 3278 1631 3431 
Q 1906 3584 2284 3584 
Q 2666 3584 2933 3390 
Q 3200 3197 3328 2828 
z
" id="DejaVuSans-6d" transform="scale(0.015625)"/>
       <path d="M 2375 4863 
L 2375 4384 
L 1825 4384 
Q 1516 4384 1395 4259 
Q 1275 4134 1275 3809 
L 1275 3500 
L 2222 3500 
L 2222 3053 
L 1275 3053 
L 1275 0 
L 697 0 
L 697 3053 
L 147 3053 
L 147 3500 
L 697 3500 
L 697 3744 
Q 697 4328 969 4595 
Q 1241 4863 1831 4863 
L 2375 4863 
z
" id="DejaVuSans-66" transform="scale(0.015625)"/>
       <path d="M 603 3500 
L 1178 3500 
L 1178 -63 
Q 1178 -731 923 -1031 
Q 669 -1331 103 -1331 
L -116 -1331 
L -116 -844 
L 38 -844 
Q 366 -844 484 -692 
Q 603 -541 603 -63 
L 603 3500 
z
M 603 4863 
L 1178 4863 
L 1178 4134 
L 603 4134 
L 603 4863 
z
" id="DejaVuSans-6a" transform="scale(0.015625)"/>
      </defs>
      <use xlink:href="#DejaVuSans-41"/>
      <use x="68.408203" xlink:href="#DejaVuSans-73"/>
      <use x="120.507812" xlink:href="#DejaVuSans-73"/>
      <use x="172.607422" xlink:href="#DejaVuSans-75"/>
      <use x="235.986328" xlink:href="#DejaVuSans-6d"/>
      <use x="333.398438" xlink:href="#DejaVuSans-65"/>
      <use x="394.921875" xlink:href="#DejaVuSans-64"/>
      <use x="458.398438" xlink:href="#DejaVuSans-20"/>
      <use x="490.185547" xlink:href="#DejaVuSans-66"/>
      <use x="525.390625" xlink:href="#DejaVuSans-6f"/>
      <use x="586.572266" xlink:href="#DejaVuSans-72"/>
      <use x="627.685547" xlink:href="#DejaVuSans-20"/>
      <use x="659.472656" xlink:href="#DejaVuSans-70"/>
      <use x="722.949219" xlink:href="#DejaVuSans-72"/>
      <use x="761.8125" xlink:href="#DejaVuSans-6f"/>
      <use x="822.994141" xlink:href="#DejaVuSans-6a"/>
      <use x="850.777344" xlink:href="#DejaVuSans-65"/>
      <use x="912.300781" xlink:href="#DejaVuSans-63"/>
      <use x="967.28125" xlink:href="#DejaVuSans-74"/>
      <use x="1006.490234" xlink:href="#DejaVuSans-69"/>
      <use x="1034.273438" xlink:href="#DejaVuSans-6f"/>
      <use x="1095.455078" xlink:href="#DejaVuSans-6e"/>
     </g>
    </g>
   </g>
  </g>
  <g id="axes_2">
   <g id="patch_8">
    <path d="M 407.045 319.04 
L 709.2 319.04 
L 709.2 26.88 
L 407.045 26.88 
z
" style="fill:#ffffff;"/>
   </g>
   <g id="matplotlib.axis_3">
    <g id="xtick_17">
     <g id="line2d_57">
      <path clip-path="url(#p7128c9a23e)" d="M 407.045 319.04 
L 407.045 26.88 
" style="fill:none;stroke:#000000;stroke-dasharray:0.8,1.32;stroke-dashoffset:0;stroke-opacity:0.5;stroke-width:0.8;"/>
     </g>
     <g id="line2d_58">
      <g>
       <use style="stroke:#000000;stroke-width:0.8;" x="407.045" xlink:href="#mb26d7b3453" y="319.04"/>
      </g>
     </g>
     <g id="text_31">
      <!-- May -->
      <g transform="translate(396.7075 333.638438)scale(0.1 -0.1)">
       <use xlink:href="#DejaVuSans-4d"/>
       <use x="86.279297" xlink:href="#DejaVuSans-61"/>
       <use x="147.558594" xlink:href="#DejaVuSans-79"/>
      </g>
     </g>
    </g>
    <g id="xtick_18">
     <g id="line2d_59">
      <path clip-path="url(#p7128c9a23e)" d="M 424.381762 319.04 
L 424.381762 26.88 
" style="fill:none;stroke:#000000;stroke-dasharray:0.8,1.32;stroke-dashoffset:0;stroke-opacity:0.5;stroke-width:0.8;"/>
     </g>
     <g id="line2d_60">
      <g>
       <use style="stroke:#000000;stroke-width:0.8;" x="424.381762" xlink:href="#mb26d7b3453" y="319.04"/>
      </g>
     </g>
     <g id="text_32">
      <!-- 15 -->
      <g transform="translate(418.019262 333.638438)scale(0.1 -0.1)">
       <use xlink:href="#DejaVuSans-31"/>
       <use x="63.623047" xlink:href="#DejaVuSans-35"/>
      </g>
     </g>
    </g>
    <g id="xtick_19">
     <g id="line2d_61">
      <path clip-path="url(#p7128c9a23e)" d="M 445.433545 319.04 
L 445.433545 26.88 
" style="fill:none;stroke:#000000;stroke-dasharray:0.8,1.32;stroke-dashoffset:0;stroke-opacity:0.5;stroke-width:0.8;"/>
     </g>
     <g id="line2d_62">
      <g>
       <use style="stroke:#000000;stroke-width:0.8;" x="445.433545" xlink:href="#mb26d7b3453" y="319.04"/>
      </g>
     </g>
     <g id="text_33">
      <!-- Jun -->
      <g transform="translate(437.621045 333.638438)scale(0.1 -0.1)">
       <use xlink:href="#DejaVuSans-4a"/>
       <use x="29.492188" xlink:href="#DejaVuSans-75"/>
       <use x="92.871094" xlink:href="#DejaVuSans-6e"/>
      </g>
     </g>
    </g>
    <g id="xtick_20">
     <g id="line2d_63">
      <path clip-path="url(#p7128c9a23e)" d="M 462.770307 319.04 
L 462.770307 26.88 
" style="fill:none;stroke:#000000;stroke-dasharray:0.8,1.32;stroke-dashoffset:0;stroke-opacity:0.5;stroke-width:0.8;"/>
     </g>
     <g id="line2d_64">
      <g>
       <use style="stroke:#000000;stroke-width:0.8;" x="462.770307" xlink:href="#mb26d7b3453" y="319.04"/>
      </g>
     </g>
     <g id="text_34">
      <!-- 15 -->
      <g transform="translate(456.407807 333.638438)scale(0.1 -0.1)">
       <use xlink:href="#DejaVuSans-31"/>
       <use x="63.623047" xlink:href="#DejaVuSans-35"/>
      </g>
     </g>
    </g>
    <g id="xtick_21">
     <g id="line2d_65">
      <path clip-path="url(#p7128c9a23e)" d="M 482.58375 319.04 
L 482.58375 26.88 
" style="fill:none;stroke:#000000;stroke-dasharray:0.8,1.32;stroke-dashoffset:0;stroke-opacity:0.5;stroke-width:0.8;"/>
     </g>
     <g id="line2d_66">
      <g>
       <use style="stroke:#000000;stroke-width:0.8;" x="482.58375" xlink:href="#mb26d7b3453" y="319.04"/>
      </g>
     </g>
     <g id="text_35">
      <!-- Jul -->
      <g transform="translate(476.550938 333.638438)scale(0.1 -0.1)">
       <use xlink:href="#DejaVuSans-4a"/>
       <use x="29.492188" xlink:href="#DejaVuSans-75"/>
       <use x="92.871094" xlink:href="#DejaVuSans-6c"/>
      </g>
     </g>
    </g>
    <g id="xtick_22">
     <g id="line2d_67">
      <path clip-path="url(#p7128c9a23e)" d="M 499.920512 319.04 
L 499.920512 26.88 
" style="fill:none;stroke:#000000;stroke-dasharray:0.8,1.32;stroke-dashoffset:0;stroke-opacity:0.5;stroke-width:0.8;"/>
     </g>
     <g id="line2d_68">
      <g>
       <use style="stroke:#000000;stroke-width:0.8;" x="499.920512" xlink:href="#mb26d7b3453" y="319.04"/>
      </g>
     </g>
     <g id="text_36">
      <!-- 15 -->
      <g transform="translate(493.558012 333.638438)scale(0.1 -0.1)">
       <use xlink:href="#DejaVuSans-31"/>
       <use x="63.623047" xlink:href="#DejaVuSans-35"/>
      </g>
     </g>
    </g>
    <g id="xtick_23">
     <g id="line2d_69">
      <path clip-path="url(#p7128c9a23e)" d="M 520.972295 319.04 
L 520.972295 26.88 
" style="fill:none;stroke:#000000;stroke-dasharray:0.8,1.32;stroke-dashoffset:0;stroke-opacity:0.5;stroke-width:0.8;"/>
     </g>
     <g id="line2d_70">
      <g>
       <use style="stroke:#000000;stroke-width:0.8;" x="520.972295" xlink:href="#mb26d7b3453" y="319.04"/>
      </g>
     </g>
     <g id="text_37">
      <!-- Aug -->
      <g transform="translate(511.209014 333.638438)scale(0.1 -0.1)">
       <use xlink:href="#DejaVuSans-41"/>
       <use x="68.408203" xlink:href="#DejaVuSans-75"/>
       <use x="131.787109" xlink:href="#DejaVuSans-67"/>
      </g>
     </g>
    </g>
    <g id="xtick_24">
     <g id="line2d_71">
      <path clip-path="url(#p7128c9a23e)" d="M 538.309057 319.04 
L 538.309057 26.88 
" style="fill:none;stroke:#000000;stroke-dasharray:0.8,1.32;stroke-dashoffset:0;stroke-opacity:0.5;stroke-width:0.8;"/>
     </g>
     <g id="line2d_72">
      <g>
       <use style="stroke:#000000;stroke-width:0.8;" x="538.309057" xlink:href="#mb26d7b3453" y="319.04"/>
      </g>
     </g>
     <g id="text_38">
      <!-- 15 -->
      <g transform="translate(531.946557 333.638438)scale(0.1 -0.1)">
       <use xlink:href="#DejaVuSans-31"/>
       <use x="63.623047" xlink:href="#DejaVuSans-35"/>
      </g>
     </g>
    </g>
    <g id="xtick_25">
     <g id="line2d_73">
      <path clip-path="url(#p7128c9a23e)" d="M 559.36084 319.04 
L 559.36084 26.88 
" style="fill:none;stroke:#000000;stroke-dasharray:0.8,1.32;stroke-dashoffset:0;stroke-opacity:0.5;stroke-width:0.8;"/>
     </g>
     <g id="line2d_74">
      <g>
       <use style="stroke:#000000;stroke-width:0.8;" x="559.36084" xlink:href="#mb26d7b3453" y="319.04"/>
      </g>
     </g>
     <g id="text_39">
      <!-- Sep -->
      <g transform="translate(549.93584 333.638438)scale(0.1 -0.1)">
       <use xlink:href="#DejaVuSans-53"/>
       <use x="63.476562" xlink:href="#DejaVuSans-65"/>
       <use x="125" xlink:href="#DejaVuSans-70"/>
      </g>
     </g>
    </g>
    <g id="xtick_26">
     <g id="line2d_75">
      <path clip-path="url(#p7128c9a23e)" d="M 576.697602 319.04 
L 576.697602 26.88 
" style="fill:none;stroke:#000000;stroke-dasharray:0.8,1.32;stroke-dashoffset:0;stroke-opacity:0.5;stroke-width:0.8;"/>
     </g>
     <g id="line2d_76">
      <g>
       <use style="stroke:#000000;stroke-width:0.8;" x="576.697602" xlink:href="#mb26d7b3453" y="319.04"/>
      </g>
     </g>
     <g id="text_40">
      <!-- 15 -->
      <g transform="translate(570.335102 333.638438)scale(0.1 -0.1)">
       <use xlink:href="#DejaVuSans-31"/>
       <use x="63.623047" xlink:href="#DejaVuSans-35"/>
      </g>
     </g>
    </g>
    <g id="xtick_27">
     <g id="line2d_77">
      <path clip-path="url(#p7128c9a23e)" d="M 596.511045 319.04 
L 596.511045 26.88 
" style="fill:none;stroke:#000000;stroke-dasharray:0.8,1.32;stroke-dashoffset:0;stroke-opacity:0.5;stroke-width:0.8;"/>
     </g>
     <g id="line2d_78">
      <g>
       <use style="stroke:#000000;stroke-width:0.8;" x="596.511045" xlink:href="#mb26d7b3453" y="319.04"/>
      </g>
     </g>
     <g id="text_41">
      <!-- Oct -->
      <g transform="translate(587.865733 333.638438)scale(0.1 -0.1)">
       <use xlink:href="#DejaVuSans-4f"/>
       <use x="78.710938" xlink:href="#DejaVuSans-63"/>
       <use x="133.691406" xlink:href="#DejaVuSans-74"/>
      </g>
     </g>
    </g>
    <g id="xtick_28">
     <g id="line2d_79">
      <path clip-path="url(#p7128c9a23e)" d="M 613.847807 319.04 
L 613.847807 26.88 
" style="fill:none;stroke:#000000;stroke-dasharray:0.8,1.32;stroke-dashoffset:0;stroke-opacity:0.5;stroke-width:0.8;"/>
     </g>
     <g id="line2d_80">
      <g>
       <use style="stroke:#000000;stroke-width:0.8;" x="613.847807" xlink:href="#mb26d7b3453" y="319.04"/>
      </g>
     </g>
     <g id="text_42">
      <!-- 15 -->
      <g transform="translate(607.485307 333.638438)scale(0.1 -0.1)">
       <use xlink:href="#DejaVuSans-31"/>
       <use x="63.623047" xlink:href="#DejaVuSans-35"/>
      </g>
     </g>
    </g>
    <g id="xtick_29">
     <g id="line2d_81">
      <path clip-path="url(#p7128c9a23e)" d="M 634.89959 319.04 
L 634.89959 26.88 
" style="fill:none;stroke:#000000;stroke-dasharray:0.8,1.32;stroke-dashoffset:0;stroke-opacity:0.5;stroke-width:0.8;"/>
     </g>
     <g id="line2d_82">
      <g>
       <use style="stroke:#000000;stroke-width:0.8;" x="634.89959" xlink:href="#mb26d7b3453" y="319.04"/>
      </g>
     </g>
     <g id="text_43">
      <!-- Nov -->
      <g transform="translate(625.140215 333.638438)scale(0.1 -0.1)">
       <use xlink:href="#DejaVuSans-4e"/>
       <use x="74.804688" xlink:href="#DejaVuSans-6f"/>
       <use x="135.986328" xlink:href="#DejaVuSans-76"/>
      </g>
     </g>
    </g>
    <g id="xtick_30">
     <g id="line2d_83">
      <path clip-path="url(#p7128c9a23e)" d="M 652.236352 319.04 
L 652.236352 26.88 
" style="fill:none;stroke:#000000;stroke-dasharray:0.8,1.32;stroke-dashoffset:0;stroke-opacity:0.5;stroke-width:0.8;"/>
     </g>
     <g id="line2d_84">
      <g>
       <use style="stroke:#000000;stroke-width:0.8;" x="652.236352" xlink:href="#mb26d7b3453" y="319.04"/>
      </g>
     </g>
     <g id="text_44">
      <!-- 15 -->
      <g transform="translate(645.873852 333.638438)scale(0.1 -0.1)">
       <use xlink:href="#DejaVuSans-31"/>
       <use x="63.623047" xlink:href="#DejaVuSans-35"/>
      </g>
     </g>
    </g>
    <g id="xtick_31">
     <g id="line2d_85">
      <path clip-path="url(#p7128c9a23e)" d="M 672.049795 319.04 
L 672.049795 26.88 
" style="fill:none;stroke:#000000;stroke-dasharray:0.8,1.32;stroke-dashoffset:0;stroke-opacity:0.5;stroke-width:0.8;"/>
     </g>
     <g id="line2d_86">
      <g>
       <use style="stroke:#000000;stroke-width:0.8;" x="672.049795" xlink:href="#mb26d7b3453" y="319.04"/>
      </g>
     </g>
     <g id="text_45">
      <!-- Dec -->
      <g transform="translate(662.374014 333.638438)scale(0.1 -0.1)">
       <use xlink:href="#DejaVuSans-44"/>
       <use x="77.001953" xlink:href="#DejaVuSans-65"/>
       <use x="138.525391" xlink:href="#DejaVuSans-63"/>
      </g>
     </g>
    </g>
    <g id="xtick_32">
     <g id="line2d_87">
      <path clip-path="url(#p7128c9a23e)" d="M 689.386557 319.04 
L 689.386557 26.88 
" style="fill:none;stroke:#000000;stroke-dasharray:0.8,1.32;stroke-dashoffset:0;stroke-opacity:0.5;stroke-width:0.8;"/>
     </g>
     <g id="line2d_88">
      <g>
       <use style="stroke:#000000;stroke-width:0.8;" x="689.386557" xlink:href="#mb26d7b3453" y="319.04"/>
      </g>
     </g>
     <g id="text_46">
      <!-- 15 -->
      <g transform="translate(683.024057 333.638438)scale(0.1 -0.1)">
       <use xlink:href="#DejaVuSans-31"/>
       <use x="63.623047" xlink:href="#DejaVuSans-35"/>
      </g>
     </g>
    </g>
    <g id="text_47">
     <!-- 2021-Dec -->
     <g transform="translate(660.790625 346.316563)scale(0.1 -0.1)">
      <use xlink:href="#DejaVuSans-32"/>
      <use x="63.623047" xlink:href="#DejaVuSans-30"/>
      <use x="127.246094" xlink:href="#DejaVuSans-32"/>
      <use x="190.869141" xlink:href="#DejaVuSans-31"/>
      <use x="254.492188" xlink:href="#DejaVuSans-2d"/>
      <use x="290.576172" xlink:href="#DejaVuSans-44"/>
      <use x="367.578125" xlink:href="#DejaVuSans-65"/>
      <use x="429.101562" xlink:href="#DejaVuSans-63"/>
     </g>
    </g>
   </g>
   <g id="matplotlib.axis_4">
    <g id="ytick_10">
     <g id="line2d_89">
      <path clip-path="url(#p7128c9a23e)" d="M 407.045 319.04 
L 709.2 319.04 
" style="fill:none;stroke:#000000;stroke-dasharray:0.8,1.32;stroke-dashoffset:0;stroke-opacity:0.5;stroke-width:0.8;"/>
     </g>
     <g id="line2d_90">
      <g>
       <use style="stroke:#000000;stroke-width:0.8;" x="407.045" xlink:href="#m7c6cbd7295" y="319.04"/>
      </g>
     </g>
     <g id="text_48">
      <!-- 0 -->
      <g transform="translate(393.6825 322.839219)scale(0.1 -0.1)">
       <use xlink:href="#DejaVuSans-30"/>
      </g>
     </g>
    </g>
    <g id="ytick_11">
     <g id="line2d_91">
      <path clip-path="url(#p7128c9a23e)" d="M 407.045 282.52 
L 709.2 282.52 
" style="fill:none;stroke:#000000;stroke-dasharray:0.8,1.32;stroke-dashoffset:0;stroke-opacity:0.5;stroke-width:0.8;"/>
     </g>
     <g id="line2d_92">
      <g>
       <use style="stroke:#000000;stroke-width:0.8;" x="407.045" xlink:href="#m7c6cbd7295" y="282.52"/>
      </g>
     </g>
     <g id="text_49">
      <!-- 25 -->
      <g transform="translate(387.32 286.319219)scale(0.1 -0.1)">
       <use xlink:href="#DejaVuSans-32"/>
       <use x="63.623047" xlink:href="#DejaVuSans-35"/>
      </g>
     </g>
    </g>
    <g id="ytick_12">
     <g id="line2d_93">
      <path clip-path="url(#p7128c9a23e)" d="M 407.045 246 
L 709.2 246 
" style="fill:none;stroke:#000000;stroke-dasharray:0.8,1.32;stroke-dashoffset:0;stroke-opacity:0.5;stroke-width:0.8;"/>
     </g>
     <g id="line2d_94">
      <g>
       <use style="stroke:#000000;stroke-width:0.8;" x="407.045" xlink:href="#m7c6cbd7295" y="246"/>
      </g>
     </g>
     <g id="text_50">
      <!-- 50 -->
      <g transform="translate(387.32 249.799219)scale(0.1 -0.1)">
       <use xlink:href="#DejaVuSans-35"/>
       <use x="63.623047" xlink:href="#DejaVuSans-30"/>
      </g>
     </g>
    </g>
    <g id="ytick_13">
     <g id="line2d_95">
      <path clip-path="url(#p7128c9a23e)" d="M 407.045 209.48 
L 709.2 209.48 
" style="fill:none;stroke:#000000;stroke-dasharray:0.8,1.32;stroke-dashoffset:0;stroke-opacity:0.5;stroke-width:0.8;"/>
     </g>
     <g id="line2d_96">
      <g>
       <use style="stroke:#000000;stroke-width:0.8;" x="407.045" xlink:href="#m7c6cbd7295" y="209.48"/>
      </g>
     </g>
     <g id="text_51">
      <!-- 75 -->
      <g transform="translate(387.32 213.279219)scale(0.1 -0.1)">
       <use xlink:href="#DejaVuSans-37"/>
       <use x="63.623047" xlink:href="#DejaVuSans-35"/>
      </g>
     </g>
    </g>
    <g id="ytick_14">
     <g id="line2d_97">
      <path clip-path="url(#p7128c9a23e)" d="M 407.045 172.96 
L 709.2 172.96 
" style="fill:none;stroke:#000000;stroke-dasharray:0.8,1.32;stroke-dashoffset:0;stroke-opacity:0.5;stroke-width:0.8;"/>
     </g>
     <g id="line2d_98">
      <g>
       <use style="stroke:#000000;stroke-width:0.8;" x="407.045" xlink:href="#m7c6cbd7295" y="172.96"/>
      </g>
     </g>
     <g id="text_52">
      <!-- 100 -->
      <g transform="translate(380.9575 176.759219)scale(0.1 -0.1)">
       <use xlink:href="#DejaVuSans-31"/>
       <use x="63.623047" xlink:href="#DejaVuSans-30"/>
       <use x="127.246094" xlink:href="#DejaVuSans-30"/>
      </g>
     </g>
    </g>
    <g id="ytick_15">
     <g id="line2d_99">
      <path clip-path="url(#p7128c9a23e)" d="M 407.045 136.44 
L 709.2 136.44 
" style="fill:none;stroke:#000000;stroke-dasharray:0.8,1.32;stroke-dashoffset:0;stroke-opacity:0.5;stroke-width:0.8;"/>
     </g>
     <g id="line2d_100">
      <g>
       <use style="stroke:#000000;stroke-width:0.8;" x="407.045" xlink:href="#m7c6cbd7295" y="136.44"/>
      </g>
     </g>
     <g id="text_53">
      <!-- 125 -->
      <g transform="translate(380.9575 140.239219)scale(0.1 -0.1)">
       <use xlink:href="#DejaVuSans-31"/>
       <use x="63.623047" xlink:href="#DejaVuSans-32"/>
       <use x="127.246094" xlink:href="#DejaVuSans-35"/>
      </g>
     </g>
    </g>
    <g id="ytick_16">
     <g id="line2d_101">
      <path clip-path="url(#p7128c9a23e)" d="M 407.045 99.92 
L 709.2 99.92 
" style="fill:none;stroke:#000000;stroke-dasharray:0.8,1.32;stroke-dashoffset:0;stroke-opacity:0.5;stroke-width:0.8;"/>
     </g>
     <g id="line2d_102">
      <g>
       <use style="stroke:#000000;stroke-width:0.8;" x="407.045" xlink:href="#m7c6cbd7295" y="99.92"/>
      </g>
     </g>
     <g id="text_54">
      <!-- 150 -->
      <g transform="translate(380.9575 103.719219)scale(0.1 -0.1)">
       <use xlink:href="#DejaVuSans-31"/>
       <use x="63.623047" xlink:href="#DejaVuSans-35"/>
       <use x="127.246094" xlink:href="#DejaVuSans-30"/>
      </g>
     </g>
    </g>
    <g id="ytick_17">
     <g id="line2d_103">
      <path clip-path="url(#p7128c9a23e)" d="M 407.045 63.4 
L 709.2 63.4 
" style="fill:none;stroke:#000000;stroke-dasharray:0.8,1.32;stroke-dashoffset:0;stroke-opacity:0.5;stroke-width:0.8;"/>
     </g>
     <g id="line2d_104">
      <g>
       <use style="stroke:#000000;stroke-width:0.8;" x="407.045" xlink:href="#m7c6cbd7295" y="63.4"/>
      </g>
     </g>
     <g id="text_55">
      <!-- 175 -->
      <g transform="translate(380.9575 67.199219)scale(0.1 -0.1)">
       <use xlink:href="#DejaVuSans-31"/>
       <use x="63.623047" xlink:href="#DejaVuSans-37"/>
       <use x="127.246094" xlink:href="#DejaVuSans-35"/>
      </g>
     </g>
    </g>
    <g id="ytick_18">
     <g id="line2d_105">
      <path clip-path="url(#p7128c9a23e)" d="M 407.045 26.88 
L 709.2 26.88 
" style="fill:none;stroke:#000000;stroke-dasharray:0.8,1.32;stroke-dashoffset:0;stroke-opacity:0.5;stroke-width:0.8;"/>
     </g>
     <g id="line2d_106">
      <g>
       <use style="stroke:#000000;stroke-width:0.8;" x="407.045" xlink:href="#m7c6cbd7295" y="26.88"/>
      </g>
     </g>
     <g id="text_56">
      <!-- 200 -->
      <g transform="translate(380.9575 30.679219)scale(0.1 -0.1)">
       <use xlink:href="#DejaVuSans-32"/>
       <use x="63.623047" xlink:href="#DejaVuSans-30"/>
       <use x="127.246094" xlink:href="#DejaVuSans-30"/>
      </g>
     </g>
    </g>
    <g id="text_57">
     <!-- cumulative doses per hundred population -->
     <g transform="translate(374.877813 277.418594)rotate(-90)scale(0.1 -0.1)">
      <use xlink:href="#DejaVuSans-63"/>
      <use x="54.980469" xlink:href="#DejaVuSans-75"/>
      <use x="118.359375" xlink:href="#DejaVuSans-6d"/>
      <use x="215.771484" xlink:href="#DejaVuSans-75"/>
      <use x="279.150391" xlink:href="#DejaVuSans-6c"/>
      <use x="306.933594" xlink:href="#DejaVuSans-61"/>
      <use x="368.212891" xlink:href="#DejaVuSans-74"/>
      <use x="407.421875" xlink:href="#DejaVuSans-69"/>
      <use x="435.205078" xlink:href="#DejaVuSans-76"/>
      <use x="494.384766" xlink:href="#DejaVuSans-65"/>
      <use x="555.908203" xlink:href="#DejaVuSans-20"/>
      <use x="587.695312" xlink:href="#DejaVuSans-64"/>
      <use x="651.171875" xlink:href="#DejaVuSans-6f"/>
      <use x="712.353516" xlink:href="#DejaVuSans-73"/>
      <use x="764.453125" xlink:href="#DejaVuSans-65"/>
      <use x="825.976562" xlink:href="#DejaVuSans-73"/>
      <use x="878.076172" xlink:href="#DejaVuSans-20"/>
      <use x="909.863281" xlink:href="#DejaVuSans-70"/>
      <use x="973.339844" xlink:href="#DejaVuSans-65"/>
      <use x="1034.863281" xlink:href="#DejaVuSans-72"/>
      <use x="1075.976562" xlink:href="#DejaVuSans-20"/>
      <use x="1107.763672" xlink:href="#DejaVuSans-68"/>
      <use x="1171.142578" xlink:href="#DejaVuSans-75"/>
      <use x="1234.521484" xlink:href="#DejaVuSans-6e"/>
      <use x="1297.900391" xlink:href="#DejaVuSans-64"/>
      <use x="1361.376953" xlink:href="#DejaVuSans-72"/>
      <use x="1400.240234" xlink:href="#DejaVuSans-65"/>
      <use x="1461.763672" xlink:href="#DejaVuSans-64"/>
      <use x="1525.240234" xlink:href="#DejaVuSans-20"/>
      <use x="1557.027344" xlink:href="#DejaVuSans-70"/>
      <use x="1620.503906" xlink:href="#DejaVuSans-6f"/>
      <use x="1681.685547" xlink:href="#DejaVuSans-70"/>
      <use x="1745.162109" xlink:href="#DejaVuSans-75"/>
      <use x="1808.541016" xlink:href="#DejaVuSans-6c"/>
      <use x="1836.324219" xlink:href="#DejaVuSans-61"/>
      <use x="1897.603516" xlink:href="#DejaVuSans-74"/>
      <use x="1936.8125" xlink:href="#DejaVuSans-69"/>
      <use x="1964.595703" xlink:href="#DejaVuSans-6f"/>
      <use x="2025.777344" xlink:href="#DejaVuSans-6e"/>
     </g>
    </g>
   </g>
   <g id="line2d_107">
    <path clip-path="url(#p7128c9a23e)" d="M 357.511393 319.04 
L 368.656455 319.04 
L 368.656455 318.506985 
L 376.086496 318.405395 
L 376.086496 318.352265 
L 377.324836 318.352265 
L 377.324836 313.383792 
L 378.563176 313.383792 
L 378.563176 313.04242 
L 379.801516 313.04242 
L 379.801516 312.916393 
L 382.278197 312.880562 
L 382.278197 312.565933 
L 383.516537 312.565933 
L 383.516537 312.194186 
L 384.754877 312.194186 
L 384.754877 311.828342 
L 385.993217 311.828342 
L 385.993217 311.482337 
L 387.231557 311.482337 
L 387.231557 311.161841 
L 388.469898 311.161841 
L 388.469898 311.039428 
L 389.708238 311.039428 
L 389.708238 310.653298 
L 390.946578 310.653298 
L 390.946578 310.29672 
L 392.184918 310.29672 
L 392.184918 309.925671 
L 393.423258 309.925671 
L 393.423258 309.549433 
L 394.661598 309.549433 
L 394.661598 309.195038 
L 395.899939 309.195038 
L 395.899939 308.87592 
L 398.376619 308.773757 
L 398.376619 308.764365 
L 399.614959 308.764365 
L 399.614959 308.520487 
L 400.853299 308.520487 
L 400.853299 308.22067 
L 402.091639 308.22067 
L 402.091639 307.766152 
L 403.32998 307.766152 
L 403.32998 307.4141 
L 404.56832 307.4141 
L 404.56832 307.103819 
L 408.28334 306.99586 
L 408.28334 306.676401 
L 409.52168 306.676401 
L 409.52168 306.28045 
L 410.76002 306.28045 
L 410.76002 305.88899 
L 411.998361 305.88899 
L 411.998361 305.494166 
L 413.236701 305.494166 
L 413.236701 305.107982 
L 414.475041 305.107982 
L 414.475041 304.976643 
L 416.951721 304.956607 
L 416.951721 304.581354 
L 418.190061 304.581354 
L 418.190061 304.136924 
L 419.428402 304.136924 
L 419.428402 303.669114 
L 420.666742 303.669114 
L 420.666742 303.169909 
L 421.905082 303.169909 
L 421.905082 302.696213 
L 423.143422 302.696213 
L 423.143422 302.470635 
L 425.620102 302.448775 
L 425.620102 301.941735 
L 426.858443 301.941735 
L 426.858443 301.389007 
L 428.096783 301.389007 
L 428.096783 300.820643 
L 429.335123 300.820643 
L 429.335123 300.21144 
L 430.573463 300.21144 
L 430.573463 299.640894 
L 431.811803 299.640894 
L 431.811803 299.406766 
L 434.288484 299.375013 
L 434.288484 298.847079 
L 435.526824 298.847079 
L 435.526824 298.239467 
L 436.765164 298.239467 
L 436.765164 297.596955 
L 438.003504 297.596955 
L 438.003504 296.924873 
L 439.241844 296.924873 
L 439.241844 296.285312 
L 440.480184 296.285312 
L 440.480184 295.999663 
L 442.956865 295.964083 
L 442.956865 295.329495 
L 444.195205 295.329495 
L 444.195205 294.653674 
L 445.433545 294.653674 
L 445.433545 293.93136 
L 446.671885 293.93136 
L 446.671885 293.185003 
L 447.910225 293.185003 
L 447.910225 292.541471 
L 449.148566 292.541471 
L 449.148566 292.24144 
L 451.625246 292.192514 
L 451.625246 291.543579 
L 452.863586 291.543579 
L 452.863586 290.837258 
L 454.101926 290.837258 
L 454.101926 290.158968 
L 455.340266 290.158968 
L 455.340266 289.420089 
L 456.578607 289.420089 
L 456.578607 288.770206 
L 457.816947 288.770206 
L 457.816947 288.537687 
L 460.293627 288.516131 
L 460.293627 288.265277 
L 461.531967 288.265277 
L 461.531967 287.541961 
L 462.770307 287.541961 
L 462.770307 286.836122 
L 464.008648 286.836122 
L 464.008648 286.088531 
L 465.246988 286.088531 
L 465.246988 285.417772 
L 466.485328 285.417772 
L 466.485328 285.108707 
L 468.962008 285.066686 
L 468.962008 284.400597 
L 470.200348 284.400597 
L 470.200348 283.697763 
L 471.438689 283.697763 
L 471.438689 282.987095 
L 472.677029 282.987095 
L 472.677029 282.217769 
L 473.915369 282.217769 
L 473.915369 281.575918 
L 475.153709 281.575918 
L 475.153709 281.213706 
L 476.392049 281.213706 
L 476.392049 280.987376 
L 477.630389 280.987376 
L 477.630389 280.305902 
L 478.86873 280.305902 
L 478.86873 279.482838 
L 480.10707 279.482838 
L 480.10707 278.615893 
L 481.34541 278.615893 
L 481.34541 277.596768 
L 482.58375 277.596768 
L 482.58375 276.804258 
L 483.82209 276.804258 
L 483.82209 276.225287 
L 485.06043 276.225287 
L 485.06043 275.960783 
L 486.29877 275.960783 
L 486.29877 275.126824 
L 487.537111 275.126824 
L 487.537111 274.148092 
L 488.775451 274.148092 
L 488.775451 273.27925 
L 490.013791 273.27925 
L 490.013791 272.347601 
L 491.252131 272.347601 
L 491.252131 271.475057 
L 492.490471 271.475057 
L 492.490471 270.883116 
L 493.728811 270.883116 
L 493.728811 270.559794 
L 494.967152 270.559794 
L 494.967152 269.584281 
L 496.205492 269.584281 
L 496.205492 268.375445 
L 497.443832 268.375445 
L 497.443832 267.310829 
L 498.682172 267.310829 
L 498.682172 266.157215 
L 499.920512 266.157215 
L 499.920512 265.083422 
L 501.158852 265.083422 
L 501.158852 264.406778 
L 502.397193 264.406778 
L 502.397193 264.087015 
L 503.635533 264.087015 
L 503.635533 262.995601 
L 504.873873 262.995601 
L 504.873873 261.853007 
L 506.112213 261.853007 
L 506.112213 260.437985 
L 507.350553 260.437985 
L 507.350553 259.15178 
L 508.588893 259.15178 
L 508.588893 257.885592 
L 509.827234 257.885592 
L 509.827234 257.020364 
L 511.065574 257.020364 
L 511.065574 256.587562 
L 512.303914 256.587562 
L 512.303914 255.532677 
L 513.542254 255.532677 
L 513.542254 254.135722 
L 514.780594 254.135722 
L 514.780594 251.972143 
L 516.018934 251.972143 
L 516.018934 250.563596 
L 517.257275 250.563596 
L 517.257275 248.959166 
L 518.495615 248.959166 
L 518.495615 248.052168 
L 519.733955 248.052168 
L 519.733955 247.573982 
L 520.972295 247.573982 
L 520.972295 246.182072 
L 522.210635 246.182072 
L 522.210635 244.477162 
L 523.448975 244.477162 
L 523.448975 242.906918 
L 524.687316 242.906918 
L 524.687316 241.131114 
L 525.925656 241.131114 
L 525.925656 239.465737 
L 527.163996 239.465737 
L 527.163996 238.223914 
L 528.402336 238.223914 
L 528.402336 237.750773 
L 529.640676 237.750773 
L 529.640676 236.147203 
L 530.879016 236.147203 
L 530.879016 233.972818 
L 532.117357 233.972818 
L 532.117357 232.038251 
L 533.355697 232.038251 
L 533.355697 230.065849 
L 534.594037 230.065849 
L 534.594037 228.021677 
L 535.832377 228.021677 
L 535.832377 226.871803 
L 537.070717 226.871803 
L 537.070717 226.027701 
L 538.309057 226.027701 
L 538.309057 224.104315 
L 539.547398 224.104315 
L 539.547398 222.108103 
L 540.785738 222.108103 
L 540.785738 219.742165 
L 542.024078 219.742165 
L 542.024078 217.560285 
L 543.262418 217.560285 
L 543.262418 215.248156 
L 544.500758 215.248156 
L 544.500758 213.811667 
L 545.739098 213.811667 
L 545.739098 212.745727 
L 546.977439 212.745727 
L 546.977439 210.479698 
L 548.215779 210.479698 
L 548.215779 208.142722 
L 549.454119 208.142722 
L 549.454119 205.600132 
L 550.692459 205.600132 
L 550.692459 203.109921 
L 551.930799 203.109921 
L 551.930799 200.632035 
L 553.169139 200.632035 
L 553.169139 199.377869 
L 554.40748 199.377869 
L 554.40748 198.107727 
L 555.64582 198.107727 
L 555.64582 195.445587 
L 556.88416 195.445587 
L 556.88416 193.251686 
L 558.1225 193.251686 
L 558.1225 190.76176 
L 559.36084 190.76176 
L 559.36084 188.716551 
L 560.59918 188.716551 
L 560.59918 186.41639 
L 561.83752 186.41639 
L 561.83752 184.737454 
L 563.075861 184.737454 
L 563.075861 183.879185 
L 564.314201 183.879185 
L 564.314201 182.114007 
L 565.552541 182.114007 
L 565.552541 180.165129 
L 566.790881 180.165129 
L 566.790881 178.125608 
L 568.029221 178.125608 
L 568.029221 175.97303 
L 569.267561 175.97303 
L 569.267561 173.824405 
L 570.505902 173.824405 
L 570.505902 172.642617 
L 571.744242 172.642617 
L 571.744242 171.942342 
L 572.982582 171.942342 
L 572.982582 169.299163 
L 574.220922 169.299163 
L 574.220922 167.264687 
L 575.459262 167.264687 
L 575.459262 165.130337 
L 576.697602 165.130337 
L 576.697602 163.172855 
L 577.935943 163.172855 
L 577.935943 160.646508 
L 579.174283 160.646508 
L 579.174283 159.167068 
L 580.412623 159.167068 
L 580.412623 158.326294 
L 581.650963 158.326294 
L 581.650963 156.049675 
L 582.889303 156.049675 
L 582.889303 153.685454 
L 584.127643 153.685454 
L 584.127643 151.417332 
L 585.365984 151.417332 
L 585.365984 149.126009 
L 586.604324 149.126009 
L 586.604324 146.620306 
L 587.842664 146.620306 
L 587.842664 145.075643 
L 589.081004 145.075643 
L 589.081004 144.324098 
L 590.319344 144.324098 
L 590.319344 142.036048 
L 591.557684 142.036048 
L 591.557684 139.695065 
L 592.796025 139.695065 
L 592.796025 137.643487 
L 594.034365 137.643487 
L 594.034365 135.444774 
L 595.272705 135.444774 
L 595.272705 133.201893 
L 596.511045 133.201893 
L 596.511045 132.032216 
L 597.749385 132.032216 
L 597.749385 131.479148 
L 598.987725 131.479148 
L 598.987725 131.045326 
L 600.226066 131.045326 
L 600.226066 128.525008 
L 601.464406 128.525008 
L 601.464406 126.356115 
L 602.702746 126.356115 
L 602.702746 124.265736 
L 603.941086 124.265736 
L 603.941086 122.079474 
L 605.179426 122.079474 
L 605.179426 120.704433 
L 606.417766 120.704433 
L 606.417766 119.923908 
L 607.656107 119.923908 
L 607.656107 117.78158 
L 608.894447 117.78158 
L 608.894447 115.538879 
L 610.132787 115.538879 
L 610.132787 113.504134 
L 611.371127 113.504134 
L 611.371127 111.676113 
L 612.609467 111.676113 
L 612.609467 109.953099 
L 613.847807 109.953099 
L 613.847807 109.056243 
L 615.086148 109.056243 
L 615.086148 108.326344 
L 616.324488 108.326344 
L 616.324488 106.873701 
L 617.562828 106.873701 
L 617.562828 105.542935 
L 618.801168 105.542935 
L 618.801168 104.297159 
L 620.039508 104.297159 
L 620.039508 103.068645 
L 621.277848 103.068645 
L 621.277848 101.87979 
L 622.516189 101.87979 
L 622.516189 101.180481 
L 623.754529 101.180481 
L 623.754529 100.882382 
L 624.992869 100.882382 
L 624.992869 100.044774 
L 626.231209 100.044774 
L 626.231209 99.202462 
L 627.469549 99.202462 
L 627.469549 98.364622 
L 628.707889 98.364622 
L 628.707889 97.526299 
L 629.94623 97.526299 
L 629.94623 96.719782 
L 631.18457 96.719782 
L 631.18457 96.278715 
L 632.42291 96.278715 
L 632.42291 96.082064 
L 633.66125 96.082064 
L 633.66125 95.343435 
L 634.89959 95.343435 
L 634.89959 94.692336 
L 636.13793 94.692336 
L 636.13793 94.104885 
L 637.37627 94.104885 
L 637.37627 93.58738 
L 638.614611 93.58738 
L 638.614611 93.040233 
L 639.852951 93.040233 
L 639.852951 92.801042 
L 642.329631 92.715676 
L 642.329631 92.301712 
L 643.567971 92.301712 
L 643.567971 91.918462 
L 644.806311 91.918462 
L 644.806311 91.560167 
L 646.044652 91.560167 
L 646.044652 91.194591 
L 647.282992 91.194591 
L 647.282992 90.849749 
L 648.521332 90.849749 
L 648.521332 90.698427 
L 650.998012 90.636657 
L 650.998012 90.389988 
L 652.236352 90.389988 
L 652.236352 90.149849 
L 653.474693 90.149849 
L 653.474693 89.90572 
L 654.713033 89.90572 
L 654.713033 89.691878 
L 655.951373 89.691878 
L 655.951373 89.49206 
L 658.428053 89.403295 
L 658.428053 89.380487 
L 659.666393 89.380487 
L 659.666393 89.173979 
L 660.904734 89.173979 
L 660.904734 89.000547 
L 662.143074 89.000547 
L 662.143074 88.830514 
L 663.381414 88.830514 
L 663.381414 88.704505 
L 664.619754 88.704505 
L 664.619754 88.544883 
L 668.334775 88.457085 
L 668.334775 88.316425 
L 669.573115 88.316425 
L 669.573115 88.175121 
L 672.049795 88.068808 
L 672.049795 87.962799 
L 673.288135 87.962799 
L 673.288135 87.831388 
L 677.003156 87.760137 
L 677.003156 87.657348 
L 679.479836 87.554952 
L 679.479836 87.452449 
L 681.956516 87.354598 
L 681.956516 87.257479 
L 685.671537 87.208249 
L 685.671537 87.120648 
L 688.148217 87.035372 
L 688.148217 86.959219 
L 690.624898 86.878416 
L 690.624898 86.878416 
" style="fill:none;stroke:#1f77b4;stroke-linecap:square;stroke-width:1.5;"/>
   </g>
   <g id="line2d_108">
    <path clip-path="url(#p7128c9a23e)" d="M 690.624898 86.732336 
L 690.624898 86.586256 
L 691.863238 86.586256 
L 691.863238 86.440176 
L 693.101578 86.440176 
L 693.101578 86.294096 
L 694.339918 86.294096 
L 694.339918 86.148016 
L 695.578258 86.148016 
L 695.578258 86.001936 
L 696.816598 86.001936 
L 696.816598 85.855856 
L 698.054939 85.855856 
L 698.054939 85.709776 
L 699.293279 85.709776 
L 699.293279 85.563696 
L 700.531619 85.563696 
L 700.531619 85.417616 
L 721 85.417616 
L 721 85.417616 
" style="fill:none;stroke:#ff7f0e;stroke-linecap:square;stroke-width:1.5;"/>
   </g>
   <g id="patch_9">
    <path d="M 407.045 319.04 
L 407.045 26.88 
" style="fill:none;stroke:#000000;stroke-linecap:square;stroke-linejoin:miter;stroke-width:0.8;"/>
   </g>
   <g id="patch_10">
    <path d="M 709.2 319.04 
L 709.2 26.88 
" style="fill:none;stroke:#000000;stroke-linecap:square;stroke-linejoin:miter;stroke-width:0.8;"/>
   </g>
   <g id="patch_11">
    <path d="M 407.045 319.04 
L 709.2 319.04 
" style="fill:none;stroke:#000000;stroke-linecap:square;stroke-linejoin:miter;stroke-width:0.8;"/>
   </g>
   <g id="patch_12">
    <path d="M 407.045 26.88 
L 709.2 26.88 
" style="fill:none;stroke:#000000;stroke-linecap:square;stroke-linejoin:miter;stroke-width:0.8;"/>
   </g>
   <g id="text_58">
    <!-- NSW cumulative vaccinations per capita -->
    <g transform="translate(436.870937 20.88)scale(0.12 -0.12)">
     <use xlink:href="#DejaVuSans-4e"/>
     <use x="74.804688" xlink:href="#DejaVuSans-53"/>
     <use x="138.28125" xlink:href="#DejaVuSans-57"/>
     <use x="237.158203" xlink:href="#DejaVuSans-20"/>
     <use x="268.945312" xlink:href="#DejaVuSans-63"/>
     <use x="323.925781" xlink:href="#DejaVuSans-75"/>
     <use x="387.304688" xlink:href="#DejaVuSans-6d"/>
     <use x="484.716797" xlink:href="#DejaVuSans-75"/>
     <use x="548.095703" xlink:href="#DejaVuSans-6c"/>
     <use x="575.878906" xlink:href="#DejaVuSans-61"/>
     <use x="637.158203" xlink:href="#DejaVuSans-74"/>
     <use x="676.367188" xlink:href="#DejaVuSans-69"/>
     <use x="704.150391" xlink:href="#DejaVuSans-76"/>
     <use x="763.330078" xlink:href="#DejaVuSans-65"/>
     <use x="824.853516" xlink:href="#DejaVuSans-20"/>
     <use x="856.640625" xlink:href="#DejaVuSans-76"/>
     <use x="915.820312" xlink:href="#DejaVuSans-61"/>
     <use x="977.099609" xlink:href="#DejaVuSans-63"/>
     <use x="1032.080078" xlink:href="#DejaVuSans-63"/>
     <use x="1087.060547" xlink:href="#DejaVuSans-69"/>
     <use x="1114.84375" xlink:href="#DejaVuSans-6e"/>
     <use x="1178.222656" xlink:href="#DejaVuSans-61"/>
     <use x="1239.501953" xlink:href="#DejaVuSans-74"/>
     <use x="1278.710938" xlink:href="#DejaVuSans-69"/>
     <use x="1306.494141" xlink:href="#DejaVuSans-6f"/>
     <use x="1367.675781" xlink:href="#DejaVuSans-6e"/>
     <use x="1431.054688" xlink:href="#DejaVuSans-73"/>
     <use x="1483.154297" xlink:href="#DejaVuSans-20"/>
     <use x="1514.941406" xlink:href="#DejaVuSans-70"/>
     <use x="1578.417969" xlink:href="#DejaVuSans-65"/>
     <use x="1639.941406" xlink:href="#DejaVuSans-72"/>
     <use x="1681.054688" xlink:href="#DejaVuSans-20"/>
     <use x="1712.841797" xlink:href="#DejaVuSans-63"/>
     <use x="1767.822266" xlink:href="#DejaVuSans-61"/>
     <use x="1829.101562" xlink:href="#DejaVuSans-70"/>
     <use x="1892.578125" xlink:href="#DejaVuSans-69"/>
     <use x="1920.361328" xlink:href="#DejaVuSans-74"/>
     <use x="1959.570312" xlink:href="#DejaVuSans-61"/>
    </g>
   </g>
   <g id="legend_2">
    <g id="patch_13">
     <path d="M 554.317187 64.23625 
L 702.2 64.23625 
Q 704.2 64.23625 704.2 62.23625 
L 704.2 33.88 
Q 704.2 31.88 702.2 31.88 
L 554.317187 31.88 
Q 552.317187 31.88 552.317187 33.88 
L 552.317187 62.23625 
Q 552.317187 64.23625 554.317187 64.23625 
z
" style="fill:#ffffff;opacity:0.8;stroke:#cccccc;stroke-linejoin:miter;"/>
    </g>
    <g id="line2d_109">
     <path d="M 556.317187 39.978437 
L 576.317187 39.978437 
" style="fill:none;stroke:#1f77b4;stroke-linecap:square;stroke-width:1.5;"/>
    </g>
    <g id="line2d_110"/>
    <g id="text_59">
     <!-- Actual -->
     <g transform="translate(584.317187 43.478437)scale(0.1 -0.1)">
      <use xlink:href="#DejaVuSans-41"/>
      <use x="66.658203" xlink:href="#DejaVuSans-63"/>
      <use x="121.638672" xlink:href="#DejaVuSans-74"/>
      <use x="160.847656" xlink:href="#DejaVuSans-75"/>
      <use x="224.226562" xlink:href="#DejaVuSans-61"/>
      <use x="285.505859" xlink:href="#DejaVuSans-6c"/>
     </g>
    </g>
    <g id="line2d_111">
     <path d="M 556.317187 54.656563 
L 576.317187 54.656563 
" style="fill:none;stroke:#ff7f0e;stroke-linecap:square;stroke-width:1.5;"/>
    </g>
    <g id="line2d_112"/>
    <g id="text_60">
     <!-- Assumed for projection -->
     <g transform="translate(584.317187 58.156563)scale(0.1 -0.1)">
      <use xlink:href="#DejaVuSans-41"/>
      <use x="68.408203" xlink:href="#DejaVuSans-73"/>
      <use x="120.507812" xlink:href="#DejaVuSans-73"/>
      <use x="172.607422" xlink:href="#DejaVuSans-75"/>
      <use x="235.986328" xlink:href="#DejaVuSans-6d"/>
      <use x="333.398438" xlink:href="#DejaVuSans-65"/>
      <use x="394.921875" xlink:href="#DejaVuSans-64"/>
      <use x="458.398438" xlink:href="#DejaVuSans-20"/>
      <use x="490.185547" xlink:href="#DejaVuSans-66"/>
      <use x="525.390625" xlink:href="#DejaVuSans-6f"/>
      <use x="586.572266" xlink:href="#DejaVuSans-72"/>
      <use x="627.685547" xlink:href="#DejaVuSans-20"/>
      <use x="659.472656" xlink:href="#DejaVuSans-70"/>
      <use x="722.949219" xlink:href="#DejaVuSans-72"/>
      <use x="761.8125" xlink:href="#DejaVuSans-6f"/>
      <use x="822.994141" xlink:href="#DejaVuSans-6a"/>
      <use x="850.777344" xlink:href="#DejaVuSans-65"/>
      <use x="912.300781" xlink:href="#DejaVuSans-63"/>
      <use x="967.28125" xlink:href="#DejaVuSans-74"/>
      <use x="1006.490234" xlink:href="#DejaVuSans-69"/>
      <use x="1034.273438" xlink:href="#DejaVuSans-6f"/>
      <use x="1095.455078" xlink:href="#DejaVuSans-6e"/>
     </g>
    </g>
   </g>
  </g>
 </g>
 <defs>
  <clipPath id="p3e3d738c66">
   <rect height="292.16" width="302.155" x="54.02" y="26.88"/>
  </clipPath>
  <clipPath id="p7128c9a23e">
   <rect height="292.16" width="302.155" x="407.045" y="26.88"/>
  </clipPath>
 </defs>
</svg>
