<?xml version="1.0" encoding="utf-8" standalone="no"?>
<!DOCTYPE svg PUBLIC "-//W3C//DTD SVG 1.1//EN"
  "http://www.w3.org/Graphics/SVG/1.1/DTD/svg11.dtd">
<svg xmlns:xlink="http://www.w3.org/1999/xlink" width="720pt" height="360pt" viewBox="0 0 720 360" xmlns="http://www.w3.org/2000/svg" version="1.1">
 <metadata>
  <rdf:RDF xmlns:dc="http://purl.org/dc/elements/1.1/" xmlns:cc="http://creativecommons.org/ns#" xmlns:rdf="http://www.w3.org/1999/02/22-rdf-syntax-ns#">
   <cc:Work>
    <dc:type rdf:resource="http://purl.org/dc/dcmitype/StillImage"/>
    <dc:date>2021-12-19T07:55:10.234898</dc:date>
    <dc:format>image/svg+xml</dc:format>
    <dc:creator>
     <cc:Agent>
      <dc:title>Matplotlib v3.5.1, https://matplotlib.org/</dc:title>
     </cc:Agent>
    </dc:creator>
   </cc:Work>
  </rdf:RDF>
 </metadata>
 <defs>
  <style type="text/css">*{stroke-linejoin: round; stroke-linecap: butt}</style>
 </defs>
 <g id="figure_1">
  <g id="patch_1">
   <path d="M 0 360 
L 720 360 
L 720 0 
L 0 0 
z
" style="fill: #ffffff"/>
  </g>
  <g id="axes_1">
   <g id="patch_2">
    <path d="M 54.2 319.04 
L 356.175 319.04 
L 356.175 25.44 
L 54.2 25.44 
z
" style="fill: #ffffff"/>
   </g>
   <g id="matplotlib.axis_1">
    <g id="xtick_1">
     <g id="line2d_1">
      <path d="M 54.2 319.04 
L 54.2 25.44 
" clip-path="url(#p4e807c4b87)" style="fill: none; stroke-dasharray: 0.8,1.32; stroke-dashoffset: 0; stroke: #000000; stroke-opacity: 0.5; stroke-width: 0.8"/>
     </g>
     <g id="line2d_2">
      <defs>
       <path id="m4251e49400" d="M 0 0 
L 0 3.5 
" style="stroke: #000000; stroke-width: 0.8"/>
      </defs>
      <g>
       <use xlink:href="#m4251e49400" x="54.2" y="319.04" style="stroke: #000000; stroke-width: 0.8"/>
      </g>
     </g>
     <g id="text_1">
      <!-- May -->
      <g transform="translate(43.8625 333.638438)scale(0.1 -0.1)">
       <defs>
        <path id="DejaVuSans-4d" d="M 628 4666 
L 1569 4666 
L 2759 1491 
L 3956 4666 
L 4897 4666 
L 4897 0 
L 4281 0 
L 4281 4097 
L 3078 897 
L 2444 897 
L 1241 4097 
L 1241 0 
L 628 0 
L 628 4666 
z
" transform="scale(0.015625)"/>
        <path id="DejaVuSans-61" d="M 2194 1759 
Q 1497 1759 1228 1600 
Q 959 1441 959 1056 
Q 959 750 1161 570 
Q 1363 391 1709 391 
Q 2188 391 2477 730 
Q 2766 1069 2766 1631 
L 2766 1759 
L 2194 1759 
z
M 3341 1997 
L 3341 0 
L 2766 0 
L 2766 531 
Q 2569 213 2275 61 
Q 1981 -91 1556 -91 
Q 1019 -91 701 211 
Q 384 513 384 1019 
Q 384 1609 779 1909 
Q 1175 2209 1959 2209 
L 2766 2209 
L 2766 2266 
Q 2766 2663 2505 2880 
Q 2244 3097 1772 3097 
Q 1472 3097 1187 3025 
Q 903 2953 641 2809 
L 641 3341 
Q 956 3463 1253 3523 
Q 1550 3584 1831 3584 
Q 2591 3584 2966 3190 
Q 3341 2797 3341 1997 
z
" transform="scale(0.015625)"/>
        <path id="DejaVuSans-79" d="M 2059 -325 
Q 1816 -950 1584 -1140 
Q 1353 -1331 966 -1331 
L 506 -1331 
L 506 -850 
L 844 -850 
Q 1081 -850 1212 -737 
Q 1344 -625 1503 -206 
L 1606 56 
L 191 3500 
L 800 3500 
L 1894 763 
L 2988 3500 
L 3597 3500 
L 2059 -325 
z
" transform="scale(0.015625)"/>
       </defs>
       <use xlink:href="#DejaVuSans-4d"/>
       <use xlink:href="#DejaVuSans-61" x="86.279297"/>
       <use xlink:href="#DejaVuSans-79" x="147.558594"/>
      </g>
     </g>
    </g>
    <g id="xtick_2">
     <g id="line2d_3">
      <path d="M 68.15264 319.04 
L 68.15264 25.44 
" clip-path="url(#p4e807c4b87)" style="fill: none; stroke-dasharray: 0.8,1.32; stroke-dashoffset: 0; stroke: #000000; stroke-opacity: 0.5; stroke-width: 0.8"/>
     </g>
     <g id="line2d_4">
      <g>
       <use xlink:href="#m4251e49400" x="68.15264" y="319.04" style="stroke: #000000; stroke-width: 0.8"/>
      </g>
     </g>
     <g id="text_2">
      <!-- 15 -->
      <g transform="translate(61.79014 333.638438)scale(0.1 -0.1)">
       <defs>
        <path id="DejaVuSans-31" d="M 794 531 
L 1825 531 
L 1825 4091 
L 703 3866 
L 703 4441 
L 1819 4666 
L 2450 4666 
L 2450 531 
L 3481 531 
L 3481 0 
L 794 0 
L 794 531 
z
" transform="scale(0.015625)"/>
        <path id="DejaVuSans-35" d="M 691 4666 
L 3169 4666 
L 3169 4134 
L 1269 4134 
L 1269 2991 
Q 1406 3038 1543 3061 
Q 1681 3084 1819 3084 
Q 2600 3084 3056 2656 
Q 3513 2228 3513 1497 
Q 3513 744 3044 326 
Q 2575 -91 1722 -91 
Q 1428 -91 1123 -41 
Q 819 9 494 109 
L 494 744 
Q 775 591 1075 516 
Q 1375 441 1709 441 
Q 2250 441 2565 725 
Q 2881 1009 2881 1497 
Q 2881 1984 2565 2268 
Q 2250 2553 1709 2553 
Q 1456 2553 1204 2497 
Q 953 2441 691 2322 
L 691 4666 
z
" transform="scale(0.015625)"/>
       </defs>
       <use xlink:href="#DejaVuSans-31"/>
       <use xlink:href="#DejaVuSans-35" x="63.623047"/>
      </g>
     </g>
    </g>
    <g id="xtick_3">
     <g id="line2d_5">
      <path d="M 85.095132 319.04 
L 85.095132 25.44 
" clip-path="url(#p4e807c4b87)" style="fill: none; stroke-dasharray: 0.8,1.32; stroke-dashoffset: 0; stroke: #000000; stroke-opacity: 0.5; stroke-width: 0.8"/>
     </g>
     <g id="line2d_6">
      <g>
       <use xlink:href="#m4251e49400" x="85.095132" y="319.04" style="stroke: #000000; stroke-width: 0.8"/>
      </g>
     </g>
     <g id="text_3">
      <!-- Jun -->
      <g transform="translate(77.282632 333.638438)scale(0.1 -0.1)">
       <defs>
        <path id="DejaVuSans-4a" d="M 628 4666 
L 1259 4666 
L 1259 325 
Q 1259 -519 939 -900 
Q 619 -1281 -91 -1281 
L -331 -1281 
L -331 -750 
L -134 -750 
Q 284 -750 456 -515 
Q 628 -281 628 325 
L 628 4666 
z
" transform="scale(0.015625)"/>
        <path id="DejaVuSans-75" d="M 544 1381 
L 544 3500 
L 1119 3500 
L 1119 1403 
Q 1119 906 1312 657 
Q 1506 409 1894 409 
Q 2359 409 2629 706 
Q 2900 1003 2900 1516 
L 2900 3500 
L 3475 3500 
L 3475 0 
L 2900 0 
L 2900 538 
Q 2691 219 2414 64 
Q 2138 -91 1772 -91 
Q 1169 -91 856 284 
Q 544 659 544 1381 
z
M 1991 3584 
L 1991 3584 
z
" transform="scale(0.015625)"/>
        <path id="DejaVuSans-6e" d="M 3513 2113 
L 3513 0 
L 2938 0 
L 2938 2094 
Q 2938 2591 2744 2837 
Q 2550 3084 2163 3084 
Q 1697 3084 1428 2787 
Q 1159 2491 1159 1978 
L 1159 0 
L 581 0 
L 581 3500 
L 1159 3500 
L 1159 2956 
Q 1366 3272 1645 3428 
Q 1925 3584 2291 3584 
Q 2894 3584 3203 3211 
Q 3513 2838 3513 2113 
z
" transform="scale(0.015625)"/>
       </defs>
       <use xlink:href="#DejaVuSans-4a"/>
       <use xlink:href="#DejaVuSans-75" x="29.492188"/>
       <use xlink:href="#DejaVuSans-6e" x="92.871094"/>
      </g>
     </g>
    </g>
    <g id="xtick_4">
     <g id="line2d_7">
      <path d="M 99.047772 319.04 
L 99.047772 25.44 
" clip-path="url(#p4e807c4b87)" style="fill: none; stroke-dasharray: 0.8,1.32; stroke-dashoffset: 0; stroke: #000000; stroke-opacity: 0.5; stroke-width: 0.8"/>
     </g>
     <g id="line2d_8">
      <g>
       <use xlink:href="#m4251e49400" x="99.047772" y="319.04" style="stroke: #000000; stroke-width: 0.8"/>
      </g>
     </g>
     <g id="text_4">
      <!-- 15 -->
      <g transform="translate(92.685272 333.638438)scale(0.1 -0.1)">
       <use xlink:href="#DejaVuSans-31"/>
       <use xlink:href="#DejaVuSans-35" x="63.623047"/>
      </g>
     </g>
    </g>
    <g id="xtick_5">
     <g id="line2d_9">
      <path d="M 114.993647 319.04 
L 114.993647 25.44 
" clip-path="url(#p4e807c4b87)" style="fill: none; stroke-dasharray: 0.8,1.32; stroke-dashoffset: 0; stroke: #000000; stroke-opacity: 0.5; stroke-width: 0.8"/>
     </g>
     <g id="line2d_10">
      <g>
       <use xlink:href="#m4251e49400" x="114.993647" y="319.04" style="stroke: #000000; stroke-width: 0.8"/>
      </g>
     </g>
     <g id="text_5">
      <!-- Jul -->
      <g transform="translate(108.960834 333.638438)scale(0.1 -0.1)">
       <defs>
        <path id="DejaVuSans-6c" d="M 603 4863 
L 1178 4863 
L 1178 0 
L 603 0 
L 603 4863 
z
" transform="scale(0.015625)"/>
       </defs>
       <use xlink:href="#DejaVuSans-4a"/>
       <use xlink:href="#DejaVuSans-75" x="29.492188"/>
       <use xlink:href="#DejaVuSans-6c" x="92.871094"/>
      </g>
     </g>
    </g>
    <g id="xtick_6">
     <g id="line2d_11">
      <path d="M 128.946287 319.04 
L 128.946287 25.44 
" clip-path="url(#p4e807c4b87)" style="fill: none; stroke-dasharray: 0.8,1.32; stroke-dashoffset: 0; stroke: #000000; stroke-opacity: 0.5; stroke-width: 0.8"/>
     </g>
     <g id="line2d_12">
      <g>
       <use xlink:href="#m4251e49400" x="128.946287" y="319.04" style="stroke: #000000; stroke-width: 0.8"/>
      </g>
     </g>
     <g id="text_6">
      <!-- 15 -->
      <g transform="translate(122.583787 333.638438)scale(0.1 -0.1)">
       <use xlink:href="#DejaVuSans-31"/>
       <use xlink:href="#DejaVuSans-35" x="63.623047"/>
      </g>
     </g>
    </g>
    <g id="xtick_7">
     <g id="line2d_13">
      <path d="M 145.888779 319.04 
L 145.888779 25.44 
" clip-path="url(#p4e807c4b87)" style="fill: none; stroke-dasharray: 0.8,1.32; stroke-dashoffset: 0; stroke: #000000; stroke-opacity: 0.5; stroke-width: 0.8"/>
     </g>
     <g id="line2d_14">
      <g>
       <use xlink:href="#m4251e49400" x="145.888779" y="319.04" style="stroke: #000000; stroke-width: 0.8"/>
      </g>
     </g>
     <g id="text_7">
      <!-- Aug -->
      <g transform="translate(136.125498 333.638438)scale(0.1 -0.1)">
       <defs>
        <path id="DejaVuSans-41" d="M 2188 4044 
L 1331 1722 
L 3047 1722 
L 2188 4044 
z
M 1831 4666 
L 2547 4666 
L 4325 0 
L 3669 0 
L 3244 1197 
L 1141 1197 
L 716 0 
L 50 0 
L 1831 4666 
z
" transform="scale(0.015625)"/>
        <path id="DejaVuSans-67" d="M 2906 1791 
Q 2906 2416 2648 2759 
Q 2391 3103 1925 3103 
Q 1463 3103 1205 2759 
Q 947 2416 947 1791 
Q 947 1169 1205 825 
Q 1463 481 1925 481 
Q 2391 481 2648 825 
Q 2906 1169 2906 1791 
z
M 3481 434 
Q 3481 -459 3084 -895 
Q 2688 -1331 1869 -1331 
Q 1566 -1331 1297 -1286 
Q 1028 -1241 775 -1147 
L 775 -588 
Q 1028 -725 1275 -790 
Q 1522 -856 1778 -856 
Q 2344 -856 2625 -561 
Q 2906 -266 2906 331 
L 2906 616 
Q 2728 306 2450 153 
Q 2172 0 1784 0 
Q 1141 0 747 490 
Q 353 981 353 1791 
Q 353 2603 747 3093 
Q 1141 3584 1784 3584 
Q 2172 3584 2450 3431 
Q 2728 3278 2906 2969 
L 2906 3500 
L 3481 3500 
L 3481 434 
z
" transform="scale(0.015625)"/>
       </defs>
       <use xlink:href="#DejaVuSans-41"/>
       <use xlink:href="#DejaVuSans-75" x="68.408203"/>
       <use xlink:href="#DejaVuSans-67" x="131.787109"/>
      </g>
     </g>
    </g>
    <g id="xtick_8">
     <g id="line2d_15">
      <path d="M 159.841419 319.04 
L 159.841419 25.44 
" clip-path="url(#p4e807c4b87)" style="fill: none; stroke-dasharray: 0.8,1.32; stroke-dashoffset: 0; stroke: #000000; stroke-opacity: 0.5; stroke-width: 0.8"/>
     </g>
     <g id="line2d_16">
      <g>
       <use xlink:href="#m4251e49400" x="159.841419" y="319.04" style="stroke: #000000; stroke-width: 0.8"/>
      </g>
     </g>
     <g id="text_8">
      <!-- 15 -->
      <g transform="translate(153.478919 333.638438)scale(0.1 -0.1)">
       <use xlink:href="#DejaVuSans-31"/>
       <use xlink:href="#DejaVuSans-35" x="63.623047"/>
      </g>
     </g>
    </g>
    <g id="xtick_9">
     <g id="line2d_17">
      <path d="M 176.783911 319.04 
L 176.783911 25.44 
" clip-path="url(#p4e807c4b87)" style="fill: none; stroke-dasharray: 0.8,1.32; stroke-dashoffset: 0; stroke: #000000; stroke-opacity: 0.5; stroke-width: 0.8"/>
     </g>
     <g id="line2d_18">
      <g>
       <use xlink:href="#m4251e49400" x="176.783911" y="319.04" style="stroke: #000000; stroke-width: 0.8"/>
      </g>
     </g>
     <g id="text_9">
      <!-- Sep -->
      <g transform="translate(167.358911 333.638438)scale(0.1 -0.1)">
       <defs>
        <path id="DejaVuSans-53" d="M 3425 4513 
L 3425 3897 
Q 3066 4069 2747 4153 
Q 2428 4238 2131 4238 
Q 1616 4238 1336 4038 
Q 1056 3838 1056 3469 
Q 1056 3159 1242 3001 
Q 1428 2844 1947 2747 
L 2328 2669 
Q 3034 2534 3370 2195 
Q 3706 1856 3706 1288 
Q 3706 609 3251 259 
Q 2797 -91 1919 -91 
Q 1588 -91 1214 -16 
Q 841 59 441 206 
L 441 856 
Q 825 641 1194 531 
Q 1563 422 1919 422 
Q 2459 422 2753 634 
Q 3047 847 3047 1241 
Q 3047 1584 2836 1778 
Q 2625 1972 2144 2069 
L 1759 2144 
Q 1053 2284 737 2584 
Q 422 2884 422 3419 
Q 422 4038 858 4394 
Q 1294 4750 2059 4750 
Q 2388 4750 2728 4690 
Q 3069 4631 3425 4513 
z
" transform="scale(0.015625)"/>
        <path id="DejaVuSans-65" d="M 3597 1894 
L 3597 1613 
L 953 1613 
Q 991 1019 1311 708 
Q 1631 397 2203 397 
Q 2534 397 2845 478 
Q 3156 559 3463 722 
L 3463 178 
Q 3153 47 2828 -22 
Q 2503 -91 2169 -91 
Q 1331 -91 842 396 
Q 353 884 353 1716 
Q 353 2575 817 3079 
Q 1281 3584 2069 3584 
Q 2775 3584 3186 3129 
Q 3597 2675 3597 1894 
z
M 3022 2063 
Q 3016 2534 2758 2815 
Q 2500 3097 2075 3097 
Q 1594 3097 1305 2825 
Q 1016 2553 972 2059 
L 3022 2063 
z
" transform="scale(0.015625)"/>
        <path id="DejaVuSans-70" d="M 1159 525 
L 1159 -1331 
L 581 -1331 
L 581 3500 
L 1159 3500 
L 1159 2969 
Q 1341 3281 1617 3432 
Q 1894 3584 2278 3584 
Q 2916 3584 3314 3078 
Q 3713 2572 3713 1747 
Q 3713 922 3314 415 
Q 2916 -91 2278 -91 
Q 1894 -91 1617 61 
Q 1341 213 1159 525 
z
M 3116 1747 
Q 3116 2381 2855 2742 
Q 2594 3103 2138 3103 
Q 1681 3103 1420 2742 
Q 1159 2381 1159 1747 
Q 1159 1113 1420 752 
Q 1681 391 2138 391 
Q 2594 391 2855 752 
Q 3116 1113 3116 1747 
z
" transform="scale(0.015625)"/>
       </defs>
       <use xlink:href="#DejaVuSans-53"/>
       <use xlink:href="#DejaVuSans-65" x="63.476562"/>
       <use xlink:href="#DejaVuSans-70" x="125"/>
      </g>
     </g>
    </g>
    <g id="xtick_10">
     <g id="line2d_19">
      <path d="M 190.736551 319.04 
L 190.736551 25.44 
" clip-path="url(#p4e807c4b87)" style="fill: none; stroke-dasharray: 0.8,1.32; stroke-dashoffset: 0; stroke: #000000; stroke-opacity: 0.5; stroke-width: 0.8"/>
     </g>
     <g id="line2d_20">
      <g>
       <use xlink:href="#m4251e49400" x="190.736551" y="319.04" style="stroke: #000000; stroke-width: 0.8"/>
      </g>
     </g>
     <g id="text_10">
      <!-- 15 -->
      <g transform="translate(184.374051 333.638438)scale(0.1 -0.1)">
       <use xlink:href="#DejaVuSans-31"/>
       <use xlink:href="#DejaVuSans-35" x="63.623047"/>
      </g>
     </g>
    </g>
    <g id="xtick_11">
     <g id="line2d_21">
      <path d="M 206.682426 319.04 
L 206.682426 25.44 
" clip-path="url(#p4e807c4b87)" style="fill: none; stroke-dasharray: 0.8,1.32; stroke-dashoffset: 0; stroke: #000000; stroke-opacity: 0.5; stroke-width: 0.8"/>
     </g>
     <g id="line2d_22">
      <g>
       <use xlink:href="#m4251e49400" x="206.682426" y="319.04" style="stroke: #000000; stroke-width: 0.8"/>
      </g>
     </g>
     <g id="text_11">
      <!-- Oct -->
      <g transform="translate(198.037113 333.638438)scale(0.1 -0.1)">
       <defs>
        <path id="DejaVuSans-4f" d="M 2522 4238 
Q 1834 4238 1429 3725 
Q 1025 3213 1025 2328 
Q 1025 1447 1429 934 
Q 1834 422 2522 422 
Q 3209 422 3611 934 
Q 4013 1447 4013 2328 
Q 4013 3213 3611 3725 
Q 3209 4238 2522 4238 
z
M 2522 4750 
Q 3503 4750 4090 4092 
Q 4678 3434 4678 2328 
Q 4678 1225 4090 567 
Q 3503 -91 2522 -91 
Q 1538 -91 948 565 
Q 359 1222 359 2328 
Q 359 3434 948 4092 
Q 1538 4750 2522 4750 
z
" transform="scale(0.015625)"/>
        <path id="DejaVuSans-63" d="M 3122 3366 
L 3122 2828 
Q 2878 2963 2633 3030 
Q 2388 3097 2138 3097 
Q 1578 3097 1268 2742 
Q 959 2388 959 1747 
Q 959 1106 1268 751 
Q 1578 397 2138 397 
Q 2388 397 2633 464 
Q 2878 531 3122 666 
L 3122 134 
Q 2881 22 2623 -34 
Q 2366 -91 2075 -91 
Q 1284 -91 818 406 
Q 353 903 353 1747 
Q 353 2603 823 3093 
Q 1294 3584 2113 3584 
Q 2378 3584 2631 3529 
Q 2884 3475 3122 3366 
z
" transform="scale(0.015625)"/>
        <path id="DejaVuSans-74" d="M 1172 4494 
L 1172 3500 
L 2356 3500 
L 2356 3053 
L 1172 3053 
L 1172 1153 
Q 1172 725 1289 603 
Q 1406 481 1766 481 
L 2356 481 
L 2356 0 
L 1766 0 
Q 1100 0 847 248 
Q 594 497 594 1153 
L 594 3053 
L 172 3053 
L 172 3500 
L 594 3500 
L 594 4494 
L 1172 4494 
z
" transform="scale(0.015625)"/>
       </defs>
       <use xlink:href="#DejaVuSans-4f"/>
       <use xlink:href="#DejaVuSans-63" x="78.710938"/>
       <use xlink:href="#DejaVuSans-74" x="133.691406"/>
      </g>
     </g>
    </g>
    <g id="xtick_12">
     <g id="line2d_23">
      <path d="M 220.635066 319.04 
L 220.635066 25.44 
" clip-path="url(#p4e807c4b87)" style="fill: none; stroke-dasharray: 0.8,1.32; stroke-dashoffset: 0; stroke: #000000; stroke-opacity: 0.5; stroke-width: 0.8"/>
     </g>
     <g id="line2d_24">
      <g>
       <use xlink:href="#m4251e49400" x="220.635066" y="319.04" style="stroke: #000000; stroke-width: 0.8"/>
      </g>
     </g>
     <g id="text_12">
      <!-- 15 -->
      <g transform="translate(214.272566 333.638438)scale(0.1 -0.1)">
       <use xlink:href="#DejaVuSans-31"/>
       <use xlink:href="#DejaVuSans-35" x="63.623047"/>
      </g>
     </g>
    </g>
    <g id="xtick_13">
     <g id="line2d_25">
      <path d="M 237.577558 319.04 
L 237.577558 25.44 
" clip-path="url(#p4e807c4b87)" style="fill: none; stroke-dasharray: 0.8,1.32; stroke-dashoffset: 0; stroke: #000000; stroke-opacity: 0.5; stroke-width: 0.8"/>
     </g>
     <g id="line2d_26">
      <g>
       <use xlink:href="#m4251e49400" x="237.577558" y="319.04" style="stroke: #000000; stroke-width: 0.8"/>
      </g>
     </g>
     <g id="text_13">
      <!-- Nov -->
      <g transform="translate(227.818183 333.638438)scale(0.1 -0.1)">
       <defs>
        <path id="DejaVuSans-4e" d="M 628 4666 
L 1478 4666 
L 3547 763 
L 3547 4666 
L 4159 4666 
L 4159 0 
L 3309 0 
L 1241 3903 
L 1241 0 
L 628 0 
L 628 4666 
z
" transform="scale(0.015625)"/>
        <path id="DejaVuSans-6f" d="M 1959 3097 
Q 1497 3097 1228 2736 
Q 959 2375 959 1747 
Q 959 1119 1226 758 
Q 1494 397 1959 397 
Q 2419 397 2687 759 
Q 2956 1122 2956 1747 
Q 2956 2369 2687 2733 
Q 2419 3097 1959 3097 
z
M 1959 3584 
Q 2709 3584 3137 3096 
Q 3566 2609 3566 1747 
Q 3566 888 3137 398 
Q 2709 -91 1959 -91 
Q 1206 -91 779 398 
Q 353 888 353 1747 
Q 353 2609 779 3096 
Q 1206 3584 1959 3584 
z
" transform="scale(0.015625)"/>
        <path id="DejaVuSans-76" d="M 191 3500 
L 800 3500 
L 1894 563 
L 2988 3500 
L 3597 3500 
L 2284 0 
L 1503 0 
L 191 3500 
z
" transform="scale(0.015625)"/>
       </defs>
       <use xlink:href="#DejaVuSans-4e"/>
       <use xlink:href="#DejaVuSans-6f" x="74.804688"/>
       <use xlink:href="#DejaVuSans-76" x="135.986328"/>
      </g>
     </g>
    </g>
    <g id="xtick_14">
     <g id="line2d_27">
      <path d="M 251.530198 319.04 
L 251.530198 25.44 
" clip-path="url(#p4e807c4b87)" style="fill: none; stroke-dasharray: 0.8,1.32; stroke-dashoffset: 0; stroke: #000000; stroke-opacity: 0.5; stroke-width: 0.8"/>
     </g>
     <g id="line2d_28">
      <g>
       <use xlink:href="#m4251e49400" x="251.530198" y="319.04" style="stroke: #000000; stroke-width: 0.8"/>
      </g>
     </g>
     <g id="text_14">
      <!-- 15 -->
      <g transform="translate(245.167698 333.638438)scale(0.1 -0.1)">
       <use xlink:href="#DejaVuSans-31"/>
       <use xlink:href="#DejaVuSans-35" x="63.623047"/>
      </g>
     </g>
    </g>
    <g id="xtick_15">
     <g id="line2d_29">
      <path d="M 267.476073 319.04 
L 267.476073 25.44 
" clip-path="url(#p4e807c4b87)" style="fill: none; stroke-dasharray: 0.8,1.32; stroke-dashoffset: 0; stroke: #000000; stroke-opacity: 0.5; stroke-width: 0.8"/>
     </g>
     <g id="line2d_30">
      <g>
       <use xlink:href="#m4251e49400" x="267.476073" y="319.04" style="stroke: #000000; stroke-width: 0.8"/>
      </g>
     </g>
     <g id="text_15">
      <!-- Dec -->
      <g transform="translate(257.800291 333.638438)scale(0.1 -0.1)">
       <defs>
        <path id="DejaVuSans-44" d="M 1259 4147 
L 1259 519 
L 2022 519 
Q 2988 519 3436 956 
Q 3884 1394 3884 2338 
Q 3884 3275 3436 3711 
Q 2988 4147 2022 4147 
L 1259 4147 
z
M 628 4666 
L 1925 4666 
Q 3281 4666 3915 4102 
Q 4550 3538 4550 2338 
Q 4550 1131 3912 565 
Q 3275 0 1925 0 
L 628 0 
L 628 4666 
z
" transform="scale(0.015625)"/>
       </defs>
       <use xlink:href="#DejaVuSans-44"/>
       <use xlink:href="#DejaVuSans-65" x="77.001953"/>
       <use xlink:href="#DejaVuSans-63" x="138.525391"/>
      </g>
     </g>
    </g>
    <g id="xtick_16">
     <g id="line2d_31">
      <path d="M 281.428713 319.04 
L 281.428713 25.44 
" clip-path="url(#p4e807c4b87)" style="fill: none; stroke-dasharray: 0.8,1.32; stroke-dashoffset: 0; stroke: #000000; stroke-opacity: 0.5; stroke-width: 0.8"/>
     </g>
     <g id="line2d_32">
      <g>
       <use xlink:href="#m4251e49400" x="281.428713" y="319.04" style="stroke: #000000; stroke-width: 0.8"/>
      </g>
     </g>
     <g id="text_16">
      <!-- 15 -->
      <g transform="translate(275.066213 333.638438)scale(0.1 -0.1)">
       <use xlink:href="#DejaVuSans-31"/>
       <use xlink:href="#DejaVuSans-35" x="63.623047"/>
      </g>
     </g>
    </g>
    <g id="xtick_17">
     <g id="line2d_33">
      <path d="M 298.371205 319.04 
L 298.371205 25.44 
" clip-path="url(#p4e807c4b87)" style="fill: none; stroke-dasharray: 0.8,1.32; stroke-dashoffset: 0; stroke: #000000; stroke-opacity: 0.5; stroke-width: 0.8"/>
     </g>
     <g id="line2d_34">
      <g>
       <use xlink:href="#m4251e49400" x="298.371205" y="319.04" style="stroke: #000000; stroke-width: 0.8"/>
      </g>
     </g>
     <g id="text_17">
      <!-- Jan -->
      <g transform="translate(290.663392 333.638438)scale(0.1 -0.1)">
       <use xlink:href="#DejaVuSans-4a"/>
       <use xlink:href="#DejaVuSans-61" x="29.492188"/>
       <use xlink:href="#DejaVuSans-6e" x="90.771484"/>
      </g>
     </g>
    </g>
    <g id="xtick_18">
     <g id="line2d_35">
      <path d="M 312.323845 319.04 
L 312.323845 25.44 
" clip-path="url(#p4e807c4b87)" style="fill: none; stroke-dasharray: 0.8,1.32; stroke-dashoffset: 0; stroke: #000000; stroke-opacity: 0.5; stroke-width: 0.8"/>
     </g>
     <g id="line2d_36">
      <g>
       <use xlink:href="#m4251e49400" x="312.323845" y="319.04" style="stroke: #000000; stroke-width: 0.8"/>
      </g>
     </g>
     <g id="text_18">
      <!-- 15 -->
      <g transform="translate(305.961345 333.638438)scale(0.1 -0.1)">
       <use xlink:href="#DejaVuSans-31"/>
       <use xlink:href="#DejaVuSans-35" x="63.623047"/>
      </g>
     </g>
    </g>
    <g id="xtick_19">
     <g id="line2d_37">
      <path d="M 329.266337 319.04 
L 329.266337 25.44 
" clip-path="url(#p4e807c4b87)" style="fill: none; stroke-dasharray: 0.8,1.32; stroke-dashoffset: 0; stroke: #000000; stroke-opacity: 0.5; stroke-width: 0.8"/>
     </g>
     <g id="line2d_38">
      <g>
       <use xlink:href="#m4251e49400" x="329.266337" y="319.04" style="stroke: #000000; stroke-width: 0.8"/>
      </g>
     </g>
     <g id="text_19">
      <!-- Feb -->
      <g transform="translate(320.414774 333.638438)scale(0.1 -0.1)">
       <defs>
        <path id="DejaVuSans-46" d="M 628 4666 
L 3309 4666 
L 3309 4134 
L 1259 4134 
L 1259 2759 
L 3109 2759 
L 3109 2228 
L 1259 2228 
L 1259 0 
L 628 0 
L 628 4666 
z
" transform="scale(0.015625)"/>
        <path id="DejaVuSans-62" d="M 3116 1747 
Q 3116 2381 2855 2742 
Q 2594 3103 2138 3103 
Q 1681 3103 1420 2742 
Q 1159 2381 1159 1747 
Q 1159 1113 1420 752 
Q 1681 391 2138 391 
Q 2594 391 2855 752 
Q 3116 1113 3116 1747 
z
M 1159 2969 
Q 1341 3281 1617 3432 
Q 1894 3584 2278 3584 
Q 2916 3584 3314 3078 
Q 3713 2572 3713 1747 
Q 3713 922 3314 415 
Q 2916 -91 2278 -91 
Q 1894 -91 1617 61 
Q 1341 213 1159 525 
L 1159 0 
L 581 0 
L 581 4863 
L 1159 4863 
L 1159 2969 
z
" transform="scale(0.015625)"/>
       </defs>
       <use xlink:href="#DejaVuSans-46"/>
       <use xlink:href="#DejaVuSans-65" x="52.019531"/>
       <use xlink:href="#DejaVuSans-62" x="113.542969"/>
      </g>
     </g>
    </g>
    <g id="xtick_20">
     <g id="line2d_39">
      <path d="M 343.218977 319.04 
L 343.218977 25.44 
" clip-path="url(#p4e807c4b87)" style="fill: none; stroke-dasharray: 0.8,1.32; stroke-dashoffset: 0; stroke: #000000; stroke-opacity: 0.5; stroke-width: 0.8"/>
     </g>
     <g id="line2d_40">
      <g>
       <use xlink:href="#m4251e49400" x="343.218977" y="319.04" style="stroke: #000000; stroke-width: 0.8"/>
      </g>
     </g>
     <g id="text_20">
      <!-- 15 -->
      <g transform="translate(336.856477 333.638438)scale(0.1 -0.1)">
       <use xlink:href="#DejaVuSans-31"/>
       <use xlink:href="#DejaVuSans-35" x="63.623047"/>
      </g>
     </g>
    </g>
    <g id="text_21">
     <!-- 2022-Feb -->
     <g transform="translate(309.414062 346.316563)scale(0.1 -0.1)">
      <defs>
       <path id="DejaVuSans-32" d="M 1228 531 
L 3431 531 
L 3431 0 
L 469 0 
L 469 531 
Q 828 903 1448 1529 
Q 2069 2156 2228 2338 
Q 2531 2678 2651 2914 
Q 2772 3150 2772 3378 
Q 2772 3750 2511 3984 
Q 2250 4219 1831 4219 
Q 1534 4219 1204 4116 
Q 875 4013 500 3803 
L 500 4441 
Q 881 4594 1212 4672 
Q 1544 4750 1819 4750 
Q 2544 4750 2975 4387 
Q 3406 4025 3406 3419 
Q 3406 3131 3298 2873 
Q 3191 2616 2906 2266 
Q 2828 2175 2409 1742 
Q 1991 1309 1228 531 
z
" transform="scale(0.015625)"/>
       <path id="DejaVuSans-30" d="M 2034 4250 
Q 1547 4250 1301 3770 
Q 1056 3291 1056 2328 
Q 1056 1369 1301 889 
Q 1547 409 2034 409 
Q 2525 409 2770 889 
Q 3016 1369 3016 2328 
Q 3016 3291 2770 3770 
Q 2525 4250 2034 4250 
z
M 2034 4750 
Q 2819 4750 3233 4129 
Q 3647 3509 3647 2328 
Q 3647 1150 3233 529 
Q 2819 -91 2034 -91 
Q 1250 -91 836 529 
Q 422 1150 422 2328 
Q 422 3509 836 4129 
Q 1250 4750 2034 4750 
z
" transform="scale(0.015625)"/>
       <path id="DejaVuSans-2d" d="M 313 2009 
L 1997 2009 
L 1997 1497 
L 313 1497 
L 313 2009 
z
" transform="scale(0.015625)"/>
      </defs>
      <use xlink:href="#DejaVuSans-32"/>
      <use xlink:href="#DejaVuSans-30" x="63.623047"/>
      <use xlink:href="#DejaVuSans-32" x="127.246094"/>
      <use xlink:href="#DejaVuSans-32" x="190.869141"/>
      <use xlink:href="#DejaVuSans-2d" x="254.492188"/>
      <use xlink:href="#DejaVuSans-46" x="290.576172"/>
      <use xlink:href="#DejaVuSans-65" x="342.595703"/>
      <use xlink:href="#DejaVuSans-62" x="404.119141"/>
     </g>
    </g>
   </g>
   <g id="matplotlib.axis_2">
    <g id="ytick_1">
     <g id="line2d_41">
      <path d="M 54.2 319.04 
L 356.175 319.04 
" clip-path="url(#p4e807c4b87)" style="fill: none; stroke-dasharray: 0.8,1.32; stroke-dashoffset: 0; stroke: #000000; stroke-opacity: 0.5; stroke-width: 0.8"/>
     </g>
     <g id="line2d_42">
      <defs>
       <path id="m99c963f465" d="M 0 0 
L -3.5 0 
" style="stroke: #000000; stroke-width: 0.8"/>
      </defs>
      <g>
       <use xlink:href="#m99c963f465" x="54.2" y="319.04" style="stroke: #000000; stroke-width: 0.8"/>
      </g>
     </g>
     <g id="text_22">
      <!-- 0.00 -->
      <g transform="translate(24.934375 322.839219)scale(0.1 -0.1)">
       <defs>
        <path id="DejaVuSans-2e" d="M 684 794 
L 1344 794 
L 1344 0 
L 684 0 
L 684 794 
z
" transform="scale(0.015625)"/>
       </defs>
       <use xlink:href="#DejaVuSans-30"/>
       <use xlink:href="#DejaVuSans-2e" x="63.623047"/>
       <use xlink:href="#DejaVuSans-30" x="95.410156"/>
       <use xlink:href="#DejaVuSans-30" x="159.033203"/>
      </g>
     </g>
    </g>
    <g id="ytick_2">
     <g id="line2d_43">
      <path d="M 54.2 285.676364 
L 356.175 285.676364 
" clip-path="url(#p4e807c4b87)" style="fill: none; stroke-dasharray: 0.8,1.32; stroke-dashoffset: 0; stroke: #000000; stroke-opacity: 0.5; stroke-width: 0.8"/>
     </g>
     <g id="line2d_44">
      <g>
       <use xlink:href="#m99c963f465" x="54.2" y="285.676364" style="stroke: #000000; stroke-width: 0.8"/>
      </g>
     </g>
     <g id="text_23">
      <!-- 0.25 -->
      <g transform="translate(24.934375 289.475582)scale(0.1 -0.1)">
       <use xlink:href="#DejaVuSans-30"/>
       <use xlink:href="#DejaVuSans-2e" x="63.623047"/>
       <use xlink:href="#DejaVuSans-32" x="95.410156"/>
       <use xlink:href="#DejaVuSans-35" x="159.033203"/>
      </g>
     </g>
    </g>
    <g id="ytick_3">
     <g id="line2d_45">
      <path d="M 54.2 252.312727 
L 356.175 252.312727 
" clip-path="url(#p4e807c4b87)" style="fill: none; stroke-dasharray: 0.8,1.32; stroke-dashoffset: 0; stroke: #000000; stroke-opacity: 0.5; stroke-width: 0.8"/>
     </g>
     <g id="line2d_46">
      <g>
       <use xlink:href="#m99c963f465" x="54.2" y="252.312727" style="stroke: #000000; stroke-width: 0.8"/>
      </g>
     </g>
     <g id="text_24">
      <!-- 0.50 -->
      <g transform="translate(24.934375 256.111946)scale(0.1 -0.1)">
       <use xlink:href="#DejaVuSans-30"/>
       <use xlink:href="#DejaVuSans-2e" x="63.623047"/>
       <use xlink:href="#DejaVuSans-35" x="95.410156"/>
       <use xlink:href="#DejaVuSans-30" x="159.033203"/>
      </g>
     </g>
    </g>
    <g id="ytick_4">
     <g id="line2d_47">
      <path d="M 54.2 218.949091 
L 356.175 218.949091 
" clip-path="url(#p4e807c4b87)" style="fill: none; stroke-dasharray: 0.8,1.32; stroke-dashoffset: 0; stroke: #000000; stroke-opacity: 0.5; stroke-width: 0.8"/>
     </g>
     <g id="line2d_48">
      <g>
       <use xlink:href="#m99c963f465" x="54.2" y="218.949091" style="stroke: #000000; stroke-width: 0.8"/>
      </g>
     </g>
     <g id="text_25">
      <!-- 0.75 -->
      <g transform="translate(24.934375 222.74831)scale(0.1 -0.1)">
       <defs>
        <path id="DejaVuSans-37" d="M 525 4666 
L 3525 4666 
L 3525 4397 
L 1831 0 
L 1172 0 
L 2766 4134 
L 525 4134 
L 525 4666 
z
" transform="scale(0.015625)"/>
       </defs>
       <use xlink:href="#DejaVuSans-30"/>
       <use xlink:href="#DejaVuSans-2e" x="63.623047"/>
       <use xlink:href="#DejaVuSans-37" x="95.410156"/>
       <use xlink:href="#DejaVuSans-35" x="159.033203"/>
      </g>
     </g>
    </g>
    <g id="ytick_5">
     <g id="line2d_49">
      <path d="M 54.2 185.585455 
L 356.175 185.585455 
" clip-path="url(#p4e807c4b87)" style="fill: none; stroke-dasharray: 0.8,1.32; stroke-dashoffset: 0; stroke: #000000; stroke-opacity: 0.5; stroke-width: 0.8"/>
     </g>
     <g id="line2d_50">
      <g>
       <use xlink:href="#m99c963f465" x="54.2" y="185.585455" style="stroke: #000000; stroke-width: 0.8"/>
      </g>
     </g>
     <g id="text_26">
      <!-- 1.00 -->
      <g transform="translate(24.934375 189.384673)scale(0.1 -0.1)">
       <use xlink:href="#DejaVuSans-31"/>
       <use xlink:href="#DejaVuSans-2e" x="63.623047"/>
       <use xlink:href="#DejaVuSans-30" x="95.410156"/>
       <use xlink:href="#DejaVuSans-30" x="159.033203"/>
      </g>
     </g>
    </g>
    <g id="ytick_6">
     <g id="line2d_51">
      <path d="M 54.2 152.221818 
L 356.175 152.221818 
" clip-path="url(#p4e807c4b87)" style="fill: none; stroke-dasharray: 0.8,1.32; stroke-dashoffset: 0; stroke: #000000; stroke-opacity: 0.5; stroke-width: 0.8"/>
     </g>
     <g id="line2d_52">
      <g>
       <use xlink:href="#m99c963f465" x="54.2" y="152.221818" style="stroke: #000000; stroke-width: 0.8"/>
      </g>
     </g>
     <g id="text_27">
      <!-- 1.25 -->
      <g transform="translate(24.934375 156.021037)scale(0.1 -0.1)">
       <use xlink:href="#DejaVuSans-31"/>
       <use xlink:href="#DejaVuSans-2e" x="63.623047"/>
       <use xlink:href="#DejaVuSans-32" x="95.410156"/>
       <use xlink:href="#DejaVuSans-35" x="159.033203"/>
      </g>
     </g>
    </g>
    <g id="ytick_7">
     <g id="line2d_53">
      <path d="M 54.2 118.858182 
L 356.175 118.858182 
" clip-path="url(#p4e807c4b87)" style="fill: none; stroke-dasharray: 0.8,1.32; stroke-dashoffset: 0; stroke: #000000; stroke-opacity: 0.5; stroke-width: 0.8"/>
     </g>
     <g id="line2d_54">
      <g>
       <use xlink:href="#m99c963f465" x="54.2" y="118.858182" style="stroke: #000000; stroke-width: 0.8"/>
      </g>
     </g>
     <g id="text_28">
      <!-- 1.50 -->
      <g transform="translate(24.934375 122.657401)scale(0.1 -0.1)">
       <use xlink:href="#DejaVuSans-31"/>
       <use xlink:href="#DejaVuSans-2e" x="63.623047"/>
       <use xlink:href="#DejaVuSans-35" x="95.410156"/>
       <use xlink:href="#DejaVuSans-30" x="159.033203"/>
      </g>
     </g>
    </g>
    <g id="ytick_8">
     <g id="line2d_55">
      <path d="M 54.2 85.494545 
L 356.175 85.494545 
" clip-path="url(#p4e807c4b87)" style="fill: none; stroke-dasharray: 0.8,1.32; stroke-dashoffset: 0; stroke: #000000; stroke-opacity: 0.5; stroke-width: 0.8"/>
     </g>
     <g id="line2d_56">
      <g>
       <use xlink:href="#m99c963f465" x="54.2" y="85.494545" style="stroke: #000000; stroke-width: 0.8"/>
      </g>
     </g>
     <g id="text_29">
      <!-- 1.75 -->
      <g transform="translate(24.934375 89.293764)scale(0.1 -0.1)">
       <use xlink:href="#DejaVuSans-31"/>
       <use xlink:href="#DejaVuSans-2e" x="63.623047"/>
       <use xlink:href="#DejaVuSans-37" x="95.410156"/>
       <use xlink:href="#DejaVuSans-35" x="159.033203"/>
      </g>
     </g>
    </g>
    <g id="ytick_9">
     <g id="line2d_57">
      <path d="M 54.2 52.130909 
L 356.175 52.130909 
" clip-path="url(#p4e807c4b87)" style="fill: none; stroke-dasharray: 0.8,1.32; stroke-dashoffset: 0; stroke: #000000; stroke-opacity: 0.5; stroke-width: 0.8"/>
     </g>
     <g id="line2d_58">
      <g>
       <use xlink:href="#m99c963f465" x="54.2" y="52.130909" style="stroke: #000000; stroke-width: 0.8"/>
      </g>
     </g>
     <g id="text_30">
      <!-- 2.00 -->
      <g transform="translate(24.934375 55.930128)scale(0.1 -0.1)">
       <use xlink:href="#DejaVuSans-32"/>
       <use xlink:href="#DejaVuSans-2e" x="63.623047"/>
       <use xlink:href="#DejaVuSans-30" x="95.410156"/>
       <use xlink:href="#DejaVuSans-30" x="159.033203"/>
      </g>
     </g>
    </g>
    <g id="text_31">
     <!-- 7d avg doses per hundred population per day -->
     <g transform="translate(18.854688 286.7275)rotate(-90)scale(0.1 -0.1)">
      <defs>
       <path id="DejaVuSans-64" d="M 2906 2969 
L 2906 4863 
L 3481 4863 
L 3481 0 
L 2906 0 
L 2906 525 
Q 2725 213 2448 61 
Q 2172 -91 1784 -91 
Q 1150 -91 751 415 
Q 353 922 353 1747 
Q 353 2572 751 3078 
Q 1150 3584 1784 3584 
Q 2172 3584 2448 3432 
Q 2725 3281 2906 2969 
z
M 947 1747 
Q 947 1113 1208 752 
Q 1469 391 1925 391 
Q 2381 391 2643 752 
Q 2906 1113 2906 1747 
Q 2906 2381 2643 2742 
Q 2381 3103 1925 3103 
Q 1469 3103 1208 2742 
Q 947 2381 947 1747 
z
" transform="scale(0.015625)"/>
       <path id="DejaVuSans-20" transform="scale(0.015625)"/>
       <path id="DejaVuSans-73" d="M 2834 3397 
L 2834 2853 
Q 2591 2978 2328 3040 
Q 2066 3103 1784 3103 
Q 1356 3103 1142 2972 
Q 928 2841 928 2578 
Q 928 2378 1081 2264 
Q 1234 2150 1697 2047 
L 1894 2003 
Q 2506 1872 2764 1633 
Q 3022 1394 3022 966 
Q 3022 478 2636 193 
Q 2250 -91 1575 -91 
Q 1294 -91 989 -36 
Q 684 19 347 128 
L 347 722 
Q 666 556 975 473 
Q 1284 391 1588 391 
Q 1994 391 2212 530 
Q 2431 669 2431 922 
Q 2431 1156 2273 1281 
Q 2116 1406 1581 1522 
L 1381 1569 
Q 847 1681 609 1914 
Q 372 2147 372 2553 
Q 372 3047 722 3315 
Q 1072 3584 1716 3584 
Q 2034 3584 2315 3537 
Q 2597 3491 2834 3397 
z
" transform="scale(0.015625)"/>
       <path id="DejaVuSans-72" d="M 2631 2963 
Q 2534 3019 2420 3045 
Q 2306 3072 2169 3072 
Q 1681 3072 1420 2755 
Q 1159 2438 1159 1844 
L 1159 0 
L 581 0 
L 581 3500 
L 1159 3500 
L 1159 2956 
Q 1341 3275 1631 3429 
Q 1922 3584 2338 3584 
Q 2397 3584 2469 3576 
Q 2541 3569 2628 3553 
L 2631 2963 
z
" transform="scale(0.015625)"/>
       <path id="DejaVuSans-68" d="M 3513 2113 
L 3513 0 
L 2938 0 
L 2938 2094 
Q 2938 2591 2744 2837 
Q 2550 3084 2163 3084 
Q 1697 3084 1428 2787 
Q 1159 2491 1159 1978 
L 1159 0 
L 581 0 
L 581 4863 
L 1159 4863 
L 1159 2956 
Q 1366 3272 1645 3428 
Q 1925 3584 2291 3584 
Q 2894 3584 3203 3211 
Q 3513 2838 3513 2113 
z
" transform="scale(0.015625)"/>
       <path id="DejaVuSans-69" d="M 603 3500 
L 1178 3500 
L 1178 0 
L 603 0 
L 603 3500 
z
M 603 4863 
L 1178 4863 
L 1178 4134 
L 603 4134 
L 603 4863 
z
" transform="scale(0.015625)"/>
      </defs>
      <use xlink:href="#DejaVuSans-37"/>
      <use xlink:href="#DejaVuSans-64" x="63.623047"/>
      <use xlink:href="#DejaVuSans-20" x="127.099609"/>
      <use xlink:href="#DejaVuSans-61" x="158.886719"/>
      <use xlink:href="#DejaVuSans-76" x="220.166016"/>
      <use xlink:href="#DejaVuSans-67" x="279.345703"/>
      <use xlink:href="#DejaVuSans-20" x="342.822266"/>
      <use xlink:href="#DejaVuSans-64" x="374.609375"/>
      <use xlink:href="#DejaVuSans-6f" x="438.085938"/>
      <use xlink:href="#DejaVuSans-73" x="499.267578"/>
      <use xlink:href="#DejaVuSans-65" x="551.367188"/>
      <use xlink:href="#DejaVuSans-73" x="612.890625"/>
      <use xlink:href="#DejaVuSans-20" x="664.990234"/>
      <use xlink:href="#DejaVuSans-70" x="696.777344"/>
      <use xlink:href="#DejaVuSans-65" x="760.253906"/>
      <use xlink:href="#DejaVuSans-72" x="821.777344"/>
      <use xlink:href="#DejaVuSans-20" x="862.890625"/>
      <use xlink:href="#DejaVuSans-68" x="894.677734"/>
      <use xlink:href="#DejaVuSans-75" x="958.056641"/>
      <use xlink:href="#DejaVuSans-6e" x="1021.435547"/>
      <use xlink:href="#DejaVuSans-64" x="1084.814453"/>
      <use xlink:href="#DejaVuSans-72" x="1148.291016"/>
      <use xlink:href="#DejaVuSans-65" x="1187.154297"/>
      <use xlink:href="#DejaVuSans-64" x="1248.677734"/>
      <use xlink:href="#DejaVuSans-20" x="1312.154297"/>
      <use xlink:href="#DejaVuSans-70" x="1343.941406"/>
      <use xlink:href="#DejaVuSans-6f" x="1407.417969"/>
      <use xlink:href="#DejaVuSans-70" x="1468.599609"/>
      <use xlink:href="#DejaVuSans-75" x="1532.076172"/>
      <use xlink:href="#DejaVuSans-6c" x="1595.455078"/>
      <use xlink:href="#DejaVuSans-61" x="1623.238281"/>
      <use xlink:href="#DejaVuSans-74" x="1684.517578"/>
      <use xlink:href="#DejaVuSans-69" x="1723.726562"/>
      <use xlink:href="#DejaVuSans-6f" x="1751.509766"/>
      <use xlink:href="#DejaVuSans-6e" x="1812.691406"/>
      <use xlink:href="#DejaVuSans-20" x="1876.070312"/>
      <use xlink:href="#DejaVuSans-70" x="1907.857422"/>
      <use xlink:href="#DejaVuSans-65" x="1971.333984"/>
      <use xlink:href="#DejaVuSans-72" x="2032.857422"/>
      <use xlink:href="#DejaVuSans-20" x="2073.970703"/>
      <use xlink:href="#DejaVuSans-64" x="2105.757812"/>
      <use xlink:href="#DejaVuSans-61" x="2169.234375"/>
      <use xlink:href="#DejaVuSans-79" x="2230.513672"/>
     </g>
    </g>
   </g>
   <g id="line2d_59">
    <path d="M 14.335314 319.04 
L 75.12896 319.04 
L 75.12896 31.427531 
L 76.125578 31.427531 
L 76.125578 25.571334 
L 77.122195 25.571334 
L 77.122195 18.48469 
L 78.118812 18.48469 
L 78.118812 10.439955 
L 79.115429 10.439955 
L 79.115429 2.131475 
L 80.112046 2.131475 
L 80.112046 -1 
M 82.105281 -1 
L 82.105281 277.372729 
L 83.101898 277.372729 
L 83.101898 275.457623 
L 84.098515 275.457623 
L 84.098515 273.847169 
L 85.095132 273.847169 
L 85.095132 271.66186 
L 86.091749 271.66186 
L 86.091749 269.850099 
L 87.088366 269.850099 
L 87.088366 267.665867 
L 88.084983 267.665867 
L 88.084983 266.150145 
L 89.081601 266.150145 
L 89.081601 265.369678 
L 90.078218 265.369678 
L 90.078218 263.106861 
L 91.074835 263.106861 
L 91.074835 260.320861 
L 92.071452 260.320861 
L 92.071452 259.683569 
L 93.068069 259.683569 
L 93.068069 256.301185 
L 94.064686 256.301185 
L 94.064686 256.587536 
L 95.061304 256.587536 
L 95.061304 256.846974 
L 96.057921 256.846974 
L 96.057921 256.091266 
L 97.054538 256.091266 
L 97.054538 263.485791 
L 98.051155 263.485791 
L 98.051155 263.082101 
L 99.047772 263.082101 
L 99.047772 263.241424 
L 100.044389 263.241424 
L 100.044389 264.721621 
L 101.041007 264.721621 
L 101.041007 264.350226 
L 102.037624 264.350226 
L 102.037624 262.763455 
L 103.034241 262.763455 
L 103.034241 262.024971 
L 104.030858 262.024971 
L 104.030858 250.601081 
L 105.027475 250.601081 
L 105.027475 250.973553 
L 106.024092 250.973553 
L 106.024092 249.852909 
L 110.010561 249.855062 
L 110.010561 249.525651 
L 111.007178 249.525651 
L 111.007178 254.565856 
L 112.003795 254.565856 
L 112.003795 255.150399 
L 113.000413 255.150399 
L 113.000413 254.481888 
L 113.99703 254.481888 
L 113.99703 259.066731 
L 114.993647 259.066731 
L 114.993647 257.194686 
L 115.990264 257.194686 
L 115.990264 256.744706 
L 116.986881 256.744706 
L 116.986881 256.170928 
L 117.983498 256.170928 
L 117.983498 254.631523 
L 118.980116 254.631523 
L 118.980116 253.579776 
L 119.976733 253.579776 
L 119.976733 253.16855 
L 120.97335 253.16855 
L 120.97335 247.925962 
L 121.969967 247.925962 
L 121.969967 249.412618 
L 122.966584 249.412618 
L 122.966584 249.045529 
L 123.963201 249.045529 
L 123.963201 249.225306 
L 125.956436 249.190858 
L 125.956436 249.576247 
L 126.953053 249.576247 
L 126.953053 249.240377 
L 127.94967 249.240377 
L 127.94967 249.861521 
L 128.946287 249.861521 
L 128.946287 248.722577 
L 129.942904 248.722577 
L 129.942904 248.536341 
L 130.939521 248.536341 
L 130.939521 247.49213 
L 132.932756 247.563179 
L 132.932756 245.940884 
L 133.929373 245.940884 
L 133.929373 243.611323 
L 134.92599 243.611323 
L 134.92599 240.602487 
L 135.922607 240.602487 
L 135.922607 238.838092 
L 136.919224 238.838092 
L 136.919224 237.531213 
L 137.915842 237.531213 
L 137.915842 237.184578 
L 138.912459 237.184578 
L 138.912459 234.69677 
L 139.909076 234.69677 
L 139.909076 233.21442 
L 140.905693 233.21442 
L 140.905693 235.976737 
L 141.90231 235.976737 
L 141.90231 236.184503 
L 142.898927 236.184503 
L 142.898927 236.389039 
L 143.895545 236.389039 
L 143.895545 237.680847 
L 144.892162 237.680847 
L 144.892162 238.772425 
L 145.888779 238.772425 
L 145.888779 238.578654 
L 146.885396 238.578654 
L 146.885396 239.226711 
L 147.882013 239.226711 
L 147.882013 236.054245 
L 148.87863 236.054245 
L 148.87863 236.270623 
L 149.875248 236.270623 
L 149.875248 235.506303 
L 150.871865 235.506303 
L 150.871865 233.511536 
L 151.868482 233.511536 
L 151.868482 232.313384 
L 152.865099 232.313384 
L 152.865099 231.977514 
L 153.861716 231.977514 
L 153.861716 229.783593 
L 154.858333 229.783593 
L 154.858333 229.518773 
L 155.85495 229.518773 
L 155.85495 227.075102 
L 156.851568 227.075102 
L 156.851568 225.56261 
L 158.844802 225.573375 
L 158.844802 225.964147 
L 159.841419 225.964147 
L 159.841419 224.10825 
L 160.838036 224.10825 
L 160.838036 223.392373 
L 161.834653 223.392373 
L 161.834653 221.082189 
L 162.831271 221.082189 
L 162.831271 220.519176 
L 163.827888 220.519176 
L 163.827888 217.942019 
L 164.824505 217.942019 
L 164.824505 216.325106 
L 165.821122 216.325106 
L 165.821122 215.610305 
L 166.817739 215.610305 
L 166.817739 214.407847 
L 167.814356 214.407847 
L 167.814356 213.39916 
L 168.810974 213.39916 
L 168.810974 212.126729 
L 169.807591 212.126729 
L 169.807591 211.127731 
L 170.804208 211.127731 
L 170.804208 211.289207 
L 171.800825 211.289207 
L 171.800825 210.902741 
L 172.797442 210.902741 
L 172.797442 209.846688 
L 173.794059 209.846688 
L 173.794059 210.615314 
L 174.790677 210.615314 
L 174.790677 210.224542 
L 175.787294 210.224542 
L 175.787294 211.810236 
L 176.783911 211.810236 
L 176.783911 210.954413 
L 177.780528 210.954413 
L 177.780528 209.874677 
L 178.777145 209.874677 
L 178.777145 210.428001 
L 180.77038 210.453838 
L 180.77038 210.859681 
L 181.766997 210.859681 
L 181.766997 211.190168 
L 182.763614 211.190168 
L 182.763614 208.616241 
L 183.760231 208.616241 
L 183.760231 208.410628 
L 184.756848 208.410628 
L 184.756848 210.14488 
L 185.753465 210.14488 
L 185.753465 209.701359 
L 186.750083 209.701359 
L 186.750083 208.709897 
L 187.7467 208.709897 
L 187.7467 205.410403 
L 189.739934 205.337201 
L 189.739934 207.212476 
L 190.736551 207.212476 
L 190.736551 208.987635 
L 191.733168 208.987635 
L 191.733168 207.664609 
L 192.729785 207.664609 
L 192.729785 206.777567 
L 193.726403 206.777567 
L 193.726403 205.716131 
L 194.72302 205.716131 
L 194.72302 207.582794 
L 195.719637 207.582794 
L 195.719637 206.82601 
L 196.716254 206.82601 
L 196.716254 205.864689 
L 197.712871 205.864689 
L 197.712871 204.575034 
L 198.709488 204.575034 
L 198.709488 205.090681 
L 199.706106 205.090681 
L 199.706106 204.301601 
L 200.702723 204.301601 
L 200.702723 204.551351 
L 201.69934 204.551351 
L 201.69934 203.149739 
L 203.692574 203.202488 
L 203.692574 203.735359 
L 204.689191 203.735359 
L 204.689191 203.218636 
L 205.685809 203.218636 
L 205.685809 202.440321 
L 206.682426 202.440321 
L 206.682426 203.405948 
L 207.679043 203.405948 
L 207.679043 203.171269 
L 208.67566 203.171269 
L 208.67566 213.67044 
L 209.672277 213.67044 
L 209.672277 210.606702 
L 210.668894 210.606702 
L 210.668894 208.088752 
L 211.665512 208.088752 
L 211.665512 206.613938 
L 212.662129 206.613938 
L 212.662129 205.325359 
L 213.658746 205.325359 
L 213.658746 203.233707 
L 214.655363 203.233707 
L 214.655363 202.352048 
L 215.65198 202.352048 
L 215.65198 191.366296 
L 216.648597 191.366296 
L 216.648597 192.277021 
L 217.645215 192.277021 
L 217.645215 193.795972 
L 218.641832 193.795972 
L 218.641832 195.046873 
L 219.638449 195.046873 
L 219.638449 196.536758 
L 220.635066 196.536758 
L 220.635066 197.415188 
L 221.631683 197.415188 
L 221.631683 198.088004 
L 222.6283 198.088004 
L 222.6283 197.817801 
L 223.624917 197.817801 
L 223.624917 199.46055 
L 224.621535 199.46055 
L 224.621535 200.769583 
L 225.618152 200.769583 
L 225.618152 202.405873 
L 226.614769 202.405873 
L 226.614769 204.134743 
L 227.611386 204.134743 
L 227.611386 201.6211 
L 228.608003 201.6211 
L 228.608003 200.929982 
L 229.60462 200.929982 
L 229.60462 203.606178 
L 230.601238 203.606178 
L 230.601238 204.948582 
L 231.597855 204.948582 
L 231.597855 204.045393 
L 232.594472 204.045393 
L 232.594472 203.670768 
L 233.591089 203.670768 
L 233.591089 201.716909 
L 234.587706 201.716909 
L 234.587706 203.875305 
L 235.584323 203.875305 
L 235.584323 205.448081 
L 236.580941 205.448081 
L 236.580941 204.783876 
L 237.577558 204.783876 
L 237.577558 205.727973 
L 238.574175 205.727973 
L 238.574175 208.133966 
L 239.570792 208.133966 
L 239.570792 209.300899 
L 240.567409 209.300899 
L 240.567409 211.125578 
L 241.564026 211.125578 
L 241.564026 212.3022 
L 242.560644 212.3022 
L 242.560644 212.604698 
L 243.557261 212.604698 
L 243.557261 214.897658 
L 244.553878 214.897658 
L 244.553878 217.175546 
L 245.550495 217.175546 
L 245.550495 220.285574 
L 246.547112 220.285574 
L 246.547112 223.897254 
L 247.543729 223.897254 
L 247.543729 226.455034 
L 248.540347 226.455034 
L 248.540347 227.885712 
L 249.536964 227.885712 
L 249.536964 229.338996 
L 250.533581 229.338996 
L 250.533581 230.640493 
L 251.530198 230.640493 
L 251.530198 231.179823 
L 252.526815 231.179823 
L 252.526815 231.459714 
L 253.523432 231.459714 
L 253.523432 230.807351 
L 254.52005 230.807351 
L 254.52005 229.974135 
L 255.516667 229.974135 
L 255.516667 229.094629 
L 256.513284 229.094629 
L 256.513284 229.598434 
L 257.509901 229.598434 
L 257.509901 227.662875 
L 258.506518 227.662875 
L 258.506518 226.50886 
L 260.499752 226.561609 
L 260.499752 227.225813 
L 261.49637 227.225813 
L 261.49637 229.96337 
L 262.492987 229.96337 
L 262.492987 232.597582 
L 263.489604 232.597582 
L 263.489604 234.097156 
L 264.486221 234.097156 
L 264.486221 237.803569 
L 265.482838 237.803569 
L 265.482838 242.121438 
L 266.479455 242.121438 
L 266.479455 246.172333 
L 267.476073 246.172333 
L 267.476073 251.300811 
L 268.47269 251.300811 
L 268.47269 254.818835 
L 269.469307 254.818835 
L 269.469307 257.859967 
L 270.465924 257.859967 
L 270.465924 259.43059 
L 271.462541 259.43059 
L 271.462541 263.425507 
L 272.459158 263.425507 
L 272.459158 266.11785 
L 273.455776 266.11785 
L 273.455776 267.445183 
L 274.452393 267.445183 
L 274.452393 268.036185 
L 275.44901 268.036185 
L 275.44901 269.408731 
L 276.445627 269.408731 
L 276.445627 270.26886 
L 277.442244 270.26886 
L 277.442244 270.818955 
L 278.438861 270.818955 
L 278.438861 271.047175 
L 279.435479 271.047175 
L 279.435479 271.57251 
L 280.432096 271.57251 
L 280.432096 272.288387 
L 281.428713 272.288387 
L 281.428713 272.78681 
L 282.42533 272.78681 
L 282.42533 273.737365 
L 283.421947 273.737365 
L 283.421947 273.737365 
" clip-path="url(#p4e807c4b87)" style="fill: none; stroke: #1f77b4; stroke-width: 1.5; stroke-linecap: square"/>
   </g>
   <g id="line2d_60">
    <path d="M 283.421947 279.003636 
L 311.327228 279.003636 
L 311.327228 319.04 
L 482.74538 319.04 
L 482.74538 319.04 
" clip-path="url(#p4e807c4b87)" style="fill: none; stroke: #ff7f0e; stroke-width: 1.5; stroke-linecap: square"/>
   </g>
   <g id="patch_3">
    <path d="M 54.2 319.04 
L 54.2 25.44 
" style="fill: none; stroke: #000000; stroke-width: 0.8; stroke-linejoin: miter; stroke-linecap: square"/>
   </g>
   <g id="patch_4">
    <path d="M 356.175 319.04 
L 356.175 25.44 
" style="fill: none; stroke: #000000; stroke-width: 0.8; stroke-linejoin: miter; stroke-linecap: square"/>
   </g>
   <g id="patch_5">
    <path d="M 54.2 319.04 
L 356.175 319.04 
" style="fill: none; stroke: #000000; stroke-width: 0.8; stroke-linejoin: miter; stroke-linecap: square"/>
   </g>
   <g id="patch_6">
    <path d="M 54.2 25.44 
L 356.175 25.44 
" style="fill: none; stroke: #000000; stroke-width: 0.8; stroke-linejoin: miter; stroke-linecap: square"/>
   </g>
   <g id="text_32">
    <!-- SA daily vaccinations per capita -->
    <g transform="translate(109.12375 19.44)scale(0.12 -0.12)">
     <use xlink:href="#DejaVuSans-53"/>
     <use xlink:href="#DejaVuSans-41" x="65.351562"/>
     <use xlink:href="#DejaVuSans-20" x="133.759766"/>
     <use xlink:href="#DejaVuSans-64" x="165.546875"/>
     <use xlink:href="#DejaVuSans-61" x="229.023438"/>
     <use xlink:href="#DejaVuSans-69" x="290.302734"/>
     <use xlink:href="#DejaVuSans-6c" x="318.085938"/>
     <use xlink:href="#DejaVuSans-79" x="345.869141"/>
     <use xlink:href="#DejaVuSans-20" x="405.048828"/>
     <use xlink:href="#DejaVuSans-76" x="436.835938"/>
     <use xlink:href="#DejaVuSans-61" x="496.015625"/>
     <use xlink:href="#DejaVuSans-63" x="557.294922"/>
     <use xlink:href="#DejaVuSans-63" x="612.275391"/>
     <use xlink:href="#DejaVuSans-69" x="667.255859"/>
     <use xlink:href="#DejaVuSans-6e" x="695.039062"/>
     <use xlink:href="#DejaVuSans-61" x="758.417969"/>
     <use xlink:href="#DejaVuSans-74" x="819.697266"/>
     <use xlink:href="#DejaVuSans-69" x="858.90625"/>
     <use xlink:href="#DejaVuSans-6f" x="886.689453"/>
     <use xlink:href="#DejaVuSans-6e" x="947.871094"/>
     <use xlink:href="#DejaVuSans-73" x="1011.25"/>
     <use xlink:href="#DejaVuSans-20" x="1063.349609"/>
     <use xlink:href="#DejaVuSans-70" x="1095.136719"/>
     <use xlink:href="#DejaVuSans-65" x="1158.613281"/>
     <use xlink:href="#DejaVuSans-72" x="1220.136719"/>
     <use xlink:href="#DejaVuSans-20" x="1261.25"/>
     <use xlink:href="#DejaVuSans-63" x="1293.037109"/>
     <use xlink:href="#DejaVuSans-61" x="1348.017578"/>
     <use xlink:href="#DejaVuSans-70" x="1409.296875"/>
     <use xlink:href="#DejaVuSans-69" x="1472.773438"/>
     <use xlink:href="#DejaVuSans-74" x="1500.556641"/>
     <use xlink:href="#DejaVuSans-61" x="1539.765625"/>
    </g>
   </g>
   <g id="legend_1">
    <g id="patch_7">
     <path d="M 201.292187 62.79625 
L 349.175 62.79625 
Q 351.175 62.79625 351.175 60.79625 
L 351.175 32.44 
Q 351.175 30.44 349.175 30.44 
L 201.292187 30.44 
Q 199.292187 30.44 199.292187 32.44 
L 199.292187 60.79625 
Q 199.292187 62.79625 201.292187 62.79625 
z
" style="fill: #ffffff; opacity: 0.8; stroke: #cccccc; stroke-linejoin: miter"/>
    </g>
    <g id="line2d_61">
     <path d="M 203.292187 38.538437 
L 203.292187 38.538437 
L 213.292187 38.538437 
L 213.292187 38.538437 
L 223.292187 38.538437 
" style="fill: none; stroke: #1f77b4; stroke-width: 1.5; stroke-linecap: square"/>
    </g>
    <g id="text_33">
     <!-- Actual -->
     <g transform="translate(231.292187 42.038437)scale(0.1 -0.1)">
      <use xlink:href="#DejaVuSans-41"/>
      <use xlink:href="#DejaVuSans-63" x="66.658203"/>
      <use xlink:href="#DejaVuSans-74" x="121.638672"/>
      <use xlink:href="#DejaVuSans-75" x="160.847656"/>
      <use xlink:href="#DejaVuSans-61" x="224.226562"/>
      <use xlink:href="#DejaVuSans-6c" x="285.505859"/>
     </g>
    </g>
    <g id="line2d_62">
     <path d="M 203.292187 53.216563 
L 203.292187 53.216563 
L 213.292187 53.216563 
L 213.292187 53.216563 
L 223.292187 53.216563 
" style="fill: none; stroke: #ff7f0e; stroke-width: 1.5; stroke-linecap: square"/>
    </g>
    <g id="text_34">
     <!-- Assumed for projection -->
     <g transform="translate(231.292187 56.716563)scale(0.1 -0.1)">
      <defs>
       <path id="DejaVuSans-6d" d="M 3328 2828 
Q 3544 3216 3844 3400 
Q 4144 3584 4550 3584 
Q 5097 3584 5394 3201 
Q 5691 2819 5691 2113 
L 5691 0 
L 5113 0 
L 5113 2094 
Q 5113 2597 4934 2840 
Q 4756 3084 4391 3084 
Q 3944 3084 3684 2787 
Q 3425 2491 3425 1978 
L 3425 0 
L 2847 0 
L 2847 2094 
Q 2847 2600 2669 2842 
Q 2491 3084 2119 3084 
Q 1678 3084 1418 2786 
Q 1159 2488 1159 1978 
L 1159 0 
L 581 0 
L 581 3500 
L 1159 3500 
L 1159 2956 
Q 1356 3278 1631 3431 
Q 1906 3584 2284 3584 
Q 2666 3584 2933 3390 
Q 3200 3197 3328 2828 
z
" transform="scale(0.015625)"/>
       <path id="DejaVuSans-66" d="M 2375 4863 
L 2375 4384 
L 1825 4384 
Q 1516 4384 1395 4259 
Q 1275 4134 1275 3809 
L 1275 3500 
L 2222 3500 
L 2222 3053 
L 1275 3053 
L 1275 0 
L 697 0 
L 697 3053 
L 147 3053 
L 147 3500 
L 697 3500 
L 697 3744 
Q 697 4328 969 4595 
Q 1241 4863 1831 4863 
L 2375 4863 
z
" transform="scale(0.015625)"/>
       <path id="DejaVuSans-6a" d="M 603 3500 
L 1178 3500 
L 1178 -63 
Q 1178 -731 923 -1031 
Q 669 -1331 103 -1331 
L -116 -1331 
L -116 -844 
L 38 -844 
Q 366 -844 484 -692 
Q 603 -541 603 -63 
L 603 3500 
z
M 603 4863 
L 1178 4863 
L 1178 4134 
L 603 4134 
L 603 4863 
z
" transform="scale(0.015625)"/>
      </defs>
      <use xlink:href="#DejaVuSans-41"/>
      <use xlink:href="#DejaVuSans-73" x="68.408203"/>
      <use xlink:href="#DejaVuSans-73" x="120.507812"/>
      <use xlink:href="#DejaVuSans-75" x="172.607422"/>
      <use xlink:href="#DejaVuSans-6d" x="235.986328"/>
      <use xlink:href="#DejaVuSans-65" x="333.398438"/>
      <use xlink:href="#DejaVuSans-64" x="394.921875"/>
      <use xlink:href="#DejaVuSans-20" x="458.398438"/>
      <use xlink:href="#DejaVuSans-66" x="490.185547"/>
      <use xlink:href="#DejaVuSans-6f" x="525.390625"/>
      <use xlink:href="#DejaVuSans-72" x="586.572266"/>
      <use xlink:href="#DejaVuSans-20" x="627.685547"/>
      <use xlink:href="#DejaVuSans-70" x="659.472656"/>
      <use xlink:href="#DejaVuSans-72" x="722.949219"/>
      <use xlink:href="#DejaVuSans-6f" x="761.8125"/>
      <use xlink:href="#DejaVuSans-6a" x="822.994141"/>
      <use xlink:href="#DejaVuSans-65" x="850.777344"/>
      <use xlink:href="#DejaVuSans-63" x="912.300781"/>
      <use xlink:href="#DejaVuSans-74" x="967.28125"/>
      <use xlink:href="#DejaVuSans-69" x="1006.490234"/>
      <use xlink:href="#DejaVuSans-6f" x="1034.273438"/>
      <use xlink:href="#DejaVuSans-6e" x="1095.455078"/>
     </g>
    </g>
   </g>
  </g>
  <g id="axes_2">
   <g id="patch_8">
    <path d="M 407.225 319.04 
L 709.2 319.04 
L 709.2 25.44 
L 407.225 25.44 
z
" style="fill: #ffffff"/>
   </g>
   <g id="matplotlib.axis_3">
    <g id="xtick_21">
     <g id="line2d_63">
      <path d="M 407.225 319.04 
L 407.225 25.44 
" clip-path="url(#ped68da766e)" style="fill: none; stroke-dasharray: 0.8,1.32; stroke-dashoffset: 0; stroke: #000000; stroke-opacity: 0.5; stroke-width: 0.8"/>
     </g>
     <g id="line2d_64">
      <g>
       <use xlink:href="#m4251e49400" x="407.225" y="319.04" style="stroke: #000000; stroke-width: 0.8"/>
      </g>
     </g>
     <g id="text_35">
      <!-- May -->
      <g transform="translate(396.8875 333.638438)scale(0.1 -0.1)">
       <use xlink:href="#DejaVuSans-4d"/>
       <use xlink:href="#DejaVuSans-61" x="86.279297"/>
       <use xlink:href="#DejaVuSans-79" x="147.558594"/>
      </g>
     </g>
    </g>
    <g id="xtick_22">
     <g id="line2d_65">
      <path d="M 421.17764 319.04 
L 421.17764 25.44 
" clip-path="url(#ped68da766e)" style="fill: none; stroke-dasharray: 0.8,1.32; stroke-dashoffset: 0; stroke: #000000; stroke-opacity: 0.5; stroke-width: 0.8"/>
     </g>
     <g id="line2d_66">
      <g>
       <use xlink:href="#m4251e49400" x="421.17764" y="319.04" style="stroke: #000000; stroke-width: 0.8"/>
      </g>
     </g>
     <g id="text_36">
      <!-- 15 -->
      <g transform="translate(414.81514 333.638438)scale(0.1 -0.1)">
       <use xlink:href="#DejaVuSans-31"/>
       <use xlink:href="#DejaVuSans-35" x="63.623047"/>
      </g>
     </g>
    </g>
    <g id="xtick_23">
     <g id="line2d_67">
      <path d="M 438.120132 319.04 
L 438.120132 25.44 
" clip-path="url(#ped68da766e)" style="fill: none; stroke-dasharray: 0.8,1.32; stroke-dashoffset: 0; stroke: #000000; stroke-opacity: 0.5; stroke-width: 0.8"/>
     </g>
     <g id="line2d_68">
      <g>
       <use xlink:href="#m4251e49400" x="438.120132" y="319.04" style="stroke: #000000; stroke-width: 0.8"/>
      </g>
     </g>
     <g id="text_37">
      <!-- Jun -->
      <g transform="translate(430.307632 333.638438)scale(0.1 -0.1)">
       <use xlink:href="#DejaVuSans-4a"/>
       <use xlink:href="#DejaVuSans-75" x="29.492188"/>
       <use xlink:href="#DejaVuSans-6e" x="92.871094"/>
      </g>
     </g>
    </g>
    <g id="xtick_24">
     <g id="line2d_69">
      <path d="M 452.072772 319.04 
L 452.072772 25.44 
" clip-path="url(#ped68da766e)" style="fill: none; stroke-dasharray: 0.8,1.32; stroke-dashoffset: 0; stroke: #000000; stroke-opacity: 0.5; stroke-width: 0.8"/>
     </g>
     <g id="line2d_70">
      <g>
       <use xlink:href="#m4251e49400" x="452.072772" y="319.04" style="stroke: #000000; stroke-width: 0.8"/>
      </g>
     </g>
     <g id="text_38">
      <!-- 15 -->
      <g transform="translate(445.710272 333.638438)scale(0.1 -0.1)">
       <use xlink:href="#DejaVuSans-31"/>
       <use xlink:href="#DejaVuSans-35" x="63.623047"/>
      </g>
     </g>
    </g>
    <g id="xtick_25">
     <g id="line2d_71">
      <path d="M 468.018647 319.04 
L 468.018647 25.44 
" clip-path="url(#ped68da766e)" style="fill: none; stroke-dasharray: 0.8,1.32; stroke-dashoffset: 0; stroke: #000000; stroke-opacity: 0.5; stroke-width: 0.8"/>
     </g>
     <g id="line2d_72">
      <g>
       <use xlink:href="#m4251e49400" x="468.018647" y="319.04" style="stroke: #000000; stroke-width: 0.8"/>
      </g>
     </g>
     <g id="text_39">
      <!-- Jul -->
      <g transform="translate(461.985834 333.638438)scale(0.1 -0.1)">
       <use xlink:href="#DejaVuSans-4a"/>
       <use xlink:href="#DejaVuSans-75" x="29.492188"/>
       <use xlink:href="#DejaVuSans-6c" x="92.871094"/>
      </g>
     </g>
    </g>
    <g id="xtick_26">
     <g id="line2d_73">
      <path d="M 481.971287 319.04 
L 481.971287 25.44 
" clip-path="url(#ped68da766e)" style="fill: none; stroke-dasharray: 0.8,1.32; stroke-dashoffset: 0; stroke: #000000; stroke-opacity: 0.5; stroke-width: 0.8"/>
     </g>
     <g id="line2d_74">
      <g>
       <use xlink:href="#m4251e49400" x="481.971287" y="319.04" style="stroke: #000000; stroke-width: 0.8"/>
      </g>
     </g>
     <g id="text_40">
      <!-- 15 -->
      <g transform="translate(475.608787 333.638438)scale(0.1 -0.1)">
       <use xlink:href="#DejaVuSans-31"/>
       <use xlink:href="#DejaVuSans-35" x="63.623047"/>
      </g>
     </g>
    </g>
    <g id="xtick_27">
     <g id="line2d_75">
      <path d="M 498.913779 319.04 
L 498.913779 25.44 
" clip-path="url(#ped68da766e)" style="fill: none; stroke-dasharray: 0.8,1.32; stroke-dashoffset: 0; stroke: #000000; stroke-opacity: 0.5; stroke-width: 0.8"/>
     </g>
     <g id="line2d_76">
      <g>
       <use xlink:href="#m4251e49400" x="498.913779" y="319.04" style="stroke: #000000; stroke-width: 0.8"/>
      </g>
     </g>
     <g id="text_41">
      <!-- Aug -->
      <g transform="translate(489.150498 333.638438)scale(0.1 -0.1)">
       <use xlink:href="#DejaVuSans-41"/>
       <use xlink:href="#DejaVuSans-75" x="68.408203"/>
       <use xlink:href="#DejaVuSans-67" x="131.787109"/>
      </g>
     </g>
    </g>
    <g id="xtick_28">
     <g id="line2d_77">
      <path d="M 512.866419 319.04 
L 512.866419 25.44 
" clip-path="url(#ped68da766e)" style="fill: none; stroke-dasharray: 0.8,1.32; stroke-dashoffset: 0; stroke: #000000; stroke-opacity: 0.5; stroke-width: 0.8"/>
     </g>
     <g id="line2d_78">
      <g>
       <use xlink:href="#m4251e49400" x="512.866419" y="319.04" style="stroke: #000000; stroke-width: 0.8"/>
      </g>
     </g>
     <g id="text_42">
      <!-- 15 -->
      <g transform="translate(506.503919 333.638438)scale(0.1 -0.1)">
       <use xlink:href="#DejaVuSans-31"/>
       <use xlink:href="#DejaVuSans-35" x="63.623047"/>
      </g>
     </g>
    </g>
    <g id="xtick_29">
     <g id="line2d_79">
      <path d="M 529.808911 319.04 
L 529.808911 25.44 
" clip-path="url(#ped68da766e)" style="fill: none; stroke-dasharray: 0.8,1.32; stroke-dashoffset: 0; stroke: #000000; stroke-opacity: 0.5; stroke-width: 0.8"/>
     </g>
     <g id="line2d_80">
      <g>
       <use xlink:href="#m4251e49400" x="529.808911" y="319.04" style="stroke: #000000; stroke-width: 0.8"/>
      </g>
     </g>
     <g id="text_43">
      <!-- Sep -->
      <g transform="translate(520.383911 333.638438)scale(0.1 -0.1)">
       <use xlink:href="#DejaVuSans-53"/>
       <use xlink:href="#DejaVuSans-65" x="63.476562"/>
       <use xlink:href="#DejaVuSans-70" x="125"/>
      </g>
     </g>
    </g>
    <g id="xtick_30">
     <g id="line2d_81">
      <path d="M 543.761551 319.04 
L 543.761551 25.44 
" clip-path="url(#ped68da766e)" style="fill: none; stroke-dasharray: 0.8,1.32; stroke-dashoffset: 0; stroke: #000000; stroke-opacity: 0.5; stroke-width: 0.8"/>
     </g>
     <g id="line2d_82">
      <g>
       <use xlink:href="#m4251e49400" x="543.761551" y="319.04" style="stroke: #000000; stroke-width: 0.8"/>
      </g>
     </g>
     <g id="text_44">
      <!-- 15 -->
      <g transform="translate(537.399051 333.638438)scale(0.1 -0.1)">
       <use xlink:href="#DejaVuSans-31"/>
       <use xlink:href="#DejaVuSans-35" x="63.623047"/>
      </g>
     </g>
    </g>
    <g id="xtick_31">
     <g id="line2d_83">
      <path d="M 559.707426 319.04 
L 559.707426 25.44 
" clip-path="url(#ped68da766e)" style="fill: none; stroke-dasharray: 0.8,1.32; stroke-dashoffset: 0; stroke: #000000; stroke-opacity: 0.5; stroke-width: 0.8"/>
     </g>
     <g id="line2d_84">
      <g>
       <use xlink:href="#m4251e49400" x="559.707426" y="319.04" style="stroke: #000000; stroke-width: 0.8"/>
      </g>
     </g>
     <g id="text_45">
      <!-- Oct -->
      <g transform="translate(551.062113 333.638438)scale(0.1 -0.1)">
       <use xlink:href="#DejaVuSans-4f"/>
       <use xlink:href="#DejaVuSans-63" x="78.710938"/>
       <use xlink:href="#DejaVuSans-74" x="133.691406"/>
      </g>
     </g>
    </g>
    <g id="xtick_32">
     <g id="line2d_85">
      <path d="M 573.660066 319.04 
L 573.660066 25.44 
" clip-path="url(#ped68da766e)" style="fill: none; stroke-dasharray: 0.8,1.32; stroke-dashoffset: 0; stroke: #000000; stroke-opacity: 0.5; stroke-width: 0.8"/>
     </g>
     <g id="line2d_86">
      <g>
       <use xlink:href="#m4251e49400" x="573.660066" y="319.04" style="stroke: #000000; stroke-width: 0.8"/>
      </g>
     </g>
     <g id="text_46">
      <!-- 15 -->
      <g transform="translate(567.297566 333.638438)scale(0.1 -0.1)">
       <use xlink:href="#DejaVuSans-31"/>
       <use xlink:href="#DejaVuSans-35" x="63.623047"/>
      </g>
     </g>
    </g>
    <g id="xtick_33">
     <g id="line2d_87">
      <path d="M 590.602558 319.04 
L 590.602558 25.44 
" clip-path="url(#ped68da766e)" style="fill: none; stroke-dasharray: 0.8,1.32; stroke-dashoffset: 0; stroke: #000000; stroke-opacity: 0.5; stroke-width: 0.8"/>
     </g>
     <g id="line2d_88">
      <g>
       <use xlink:href="#m4251e49400" x="590.602558" y="319.04" style="stroke: #000000; stroke-width: 0.8"/>
      </g>
     </g>
     <g id="text_47">
      <!-- Nov -->
      <g transform="translate(580.843183 333.638438)scale(0.1 -0.1)">
       <use xlink:href="#DejaVuSans-4e"/>
       <use xlink:href="#DejaVuSans-6f" x="74.804688"/>
       <use xlink:href="#DejaVuSans-76" x="135.986328"/>
      </g>
     </g>
    </g>
    <g id="xtick_34">
     <g id="line2d_89">
      <path d="M 604.555198 319.04 
L 604.555198 25.44 
" clip-path="url(#ped68da766e)" style="fill: none; stroke-dasharray: 0.8,1.32; stroke-dashoffset: 0; stroke: #000000; stroke-opacity: 0.5; stroke-width: 0.8"/>
     </g>
     <g id="line2d_90">
      <g>
       <use xlink:href="#m4251e49400" x="604.555198" y="319.04" style="stroke: #000000; stroke-width: 0.8"/>
      </g>
     </g>
     <g id="text_48">
      <!-- 15 -->
      <g transform="translate(598.192698 333.638438)scale(0.1 -0.1)">
       <use xlink:href="#DejaVuSans-31"/>
       <use xlink:href="#DejaVuSans-35" x="63.623047"/>
      </g>
     </g>
    </g>
    <g id="xtick_35">
     <g id="line2d_91">
      <path d="M 620.501073 319.04 
L 620.501073 25.44 
" clip-path="url(#ped68da766e)" style="fill: none; stroke-dasharray: 0.8,1.32; stroke-dashoffset: 0; stroke: #000000; stroke-opacity: 0.5; stroke-width: 0.8"/>
     </g>
     <g id="line2d_92">
      <g>
       <use xlink:href="#m4251e49400" x="620.501073" y="319.04" style="stroke: #000000; stroke-width: 0.8"/>
      </g>
     </g>
     <g id="text_49">
      <!-- Dec -->
      <g transform="translate(610.825291 333.638438)scale(0.1 -0.1)">
       <use xlink:href="#DejaVuSans-44"/>
       <use xlink:href="#DejaVuSans-65" x="77.001953"/>
       <use xlink:href="#DejaVuSans-63" x="138.525391"/>
      </g>
     </g>
    </g>
    <g id="xtick_36">
     <g id="line2d_93">
      <path d="M 634.453713 319.04 
L 634.453713 25.44 
" clip-path="url(#ped68da766e)" style="fill: none; stroke-dasharray: 0.8,1.32; stroke-dashoffset: 0; stroke: #000000; stroke-opacity: 0.5; stroke-width: 0.8"/>
     </g>
     <g id="line2d_94">
      <g>
       <use xlink:href="#m4251e49400" x="634.453713" y="319.04" style="stroke: #000000; stroke-width: 0.8"/>
      </g>
     </g>
     <g id="text_50">
      <!-- 15 -->
      <g transform="translate(628.091213 333.638438)scale(0.1 -0.1)">
       <use xlink:href="#DejaVuSans-31"/>
       <use xlink:href="#DejaVuSans-35" x="63.623047"/>
      </g>
     </g>
    </g>
    <g id="xtick_37">
     <g id="line2d_95">
      <path d="M 651.396205 319.04 
L 651.396205 25.44 
" clip-path="url(#ped68da766e)" style="fill: none; stroke-dasharray: 0.8,1.32; stroke-dashoffset: 0; stroke: #000000; stroke-opacity: 0.5; stroke-width: 0.8"/>
     </g>
     <g id="line2d_96">
      <g>
       <use xlink:href="#m4251e49400" x="651.396205" y="319.04" style="stroke: #000000; stroke-width: 0.8"/>
      </g>
     </g>
     <g id="text_51">
      <!-- Jan -->
      <g transform="translate(643.688392 333.638438)scale(0.1 -0.1)">
       <use xlink:href="#DejaVuSans-4a"/>
       <use xlink:href="#DejaVuSans-61" x="29.492188"/>
       <use xlink:href="#DejaVuSans-6e" x="90.771484"/>
      </g>
     </g>
    </g>
    <g id="xtick_38">
     <g id="line2d_97">
      <path d="M 665.348845 319.04 
L 665.348845 25.44 
" clip-path="url(#ped68da766e)" style="fill: none; stroke-dasharray: 0.8,1.32; stroke-dashoffset: 0; stroke: #000000; stroke-opacity: 0.5; stroke-width: 0.8"/>
     </g>
     <g id="line2d_98">
      <g>
       <use xlink:href="#m4251e49400" x="665.348845" y="319.04" style="stroke: #000000; stroke-width: 0.8"/>
      </g>
     </g>
     <g id="text_52">
      <!-- 15 -->
      <g transform="translate(658.986345 333.638438)scale(0.1 -0.1)">
       <use xlink:href="#DejaVuSans-31"/>
       <use xlink:href="#DejaVuSans-35" x="63.623047"/>
      </g>
     </g>
    </g>
    <g id="xtick_39">
     <g id="line2d_99">
      <path d="M 682.291337 319.04 
L 682.291337 25.44 
" clip-path="url(#ped68da766e)" style="fill: none; stroke-dasharray: 0.8,1.32; stroke-dashoffset: 0; stroke: #000000; stroke-opacity: 0.5; stroke-width: 0.8"/>
     </g>
     <g id="line2d_100">
      <g>
       <use xlink:href="#m4251e49400" x="682.291337" y="319.04" style="stroke: #000000; stroke-width: 0.8"/>
      </g>
     </g>
     <g id="text_53">
      <!-- Feb -->
      <g transform="translate(673.439774 333.638438)scale(0.1 -0.1)">
       <use xlink:href="#DejaVuSans-46"/>
       <use xlink:href="#DejaVuSans-65" x="52.019531"/>
       <use xlink:href="#DejaVuSans-62" x="113.542969"/>
      </g>
     </g>
    </g>
    <g id="xtick_40">
     <g id="line2d_101">
      <path d="M 696.243977 319.04 
L 696.243977 25.44 
" clip-path="url(#ped68da766e)" style="fill: none; stroke-dasharray: 0.8,1.32; stroke-dashoffset: 0; stroke: #000000; stroke-opacity: 0.5; stroke-width: 0.8"/>
     </g>
     <g id="line2d_102">
      <g>
       <use xlink:href="#m4251e49400" x="696.243977" y="319.04" style="stroke: #000000; stroke-width: 0.8"/>
      </g>
     </g>
     <g id="text_54">
      <!-- 15 -->
      <g transform="translate(689.881477 333.638438)scale(0.1 -0.1)">
       <use xlink:href="#DejaVuSans-31"/>
       <use xlink:href="#DejaVuSans-35" x="63.623047"/>
      </g>
     </g>
    </g>
    <g id="text_55">
     <!-- 2022-Feb -->
     <g transform="translate(662.439062 346.316563)scale(0.1 -0.1)">
      <use xlink:href="#DejaVuSans-32"/>
      <use xlink:href="#DejaVuSans-30" x="63.623047"/>
      <use xlink:href="#DejaVuSans-32" x="127.246094"/>
      <use xlink:href="#DejaVuSans-32" x="190.869141"/>
      <use xlink:href="#DejaVuSans-2d" x="254.492188"/>
      <use xlink:href="#DejaVuSans-46" x="290.576172"/>
      <use xlink:href="#DejaVuSans-65" x="342.595703"/>
      <use xlink:href="#DejaVuSans-62" x="404.119141"/>
     </g>
    </g>
   </g>
   <g id="matplotlib.axis_4">
    <g id="ytick_10">
     <g id="line2d_103">
      <path d="M 407.225 319.04 
L 709.2 319.04 
" clip-path="url(#ped68da766e)" style="fill: none; stroke-dasharray: 0.8,1.32; stroke-dashoffset: 0; stroke: #000000; stroke-opacity: 0.5; stroke-width: 0.8"/>
     </g>
     <g id="line2d_104">
      <g>
       <use xlink:href="#m99c963f465" x="407.225" y="319.04" style="stroke: #000000; stroke-width: 0.8"/>
      </g>
     </g>
     <g id="text_56">
      <!-- 0 -->
      <g transform="translate(393.8625 322.839219)scale(0.1 -0.1)">
       <use xlink:href="#DejaVuSans-30"/>
      </g>
     </g>
    </g>
    <g id="ytick_11">
     <g id="line2d_105">
      <path d="M 407.225 282.34 
L 709.2 282.34 
" clip-path="url(#ped68da766e)" style="fill: none; stroke-dasharray: 0.8,1.32; stroke-dashoffset: 0; stroke: #000000; stroke-opacity: 0.5; stroke-width: 0.8"/>
     </g>
     <g id="line2d_106">
      <g>
       <use xlink:href="#m99c963f465" x="407.225" y="282.34" style="stroke: #000000; stroke-width: 0.8"/>
      </g>
     </g>
     <g id="text_57">
      <!-- 25 -->
      <g transform="translate(387.5 286.139219)scale(0.1 -0.1)">
       <use xlink:href="#DejaVuSans-32"/>
       <use xlink:href="#DejaVuSans-35" x="63.623047"/>
      </g>
     </g>
    </g>
    <g id="ytick_12">
     <g id="line2d_107">
      <path d="M 407.225 245.64 
L 709.2 245.64 
" clip-path="url(#ped68da766e)" style="fill: none; stroke-dasharray: 0.8,1.32; stroke-dashoffset: 0; stroke: #000000; stroke-opacity: 0.5; stroke-width: 0.8"/>
     </g>
     <g id="line2d_108">
      <g>
       <use xlink:href="#m99c963f465" x="407.225" y="245.64" style="stroke: #000000; stroke-width: 0.8"/>
      </g>
     </g>
     <g id="text_58">
      <!-- 50 -->
      <g transform="translate(387.5 249.439219)scale(0.1 -0.1)">
       <use xlink:href="#DejaVuSans-35"/>
       <use xlink:href="#DejaVuSans-30" x="63.623047"/>
      </g>
     </g>
    </g>
    <g id="ytick_13">
     <g id="line2d_109">
      <path d="M 407.225 208.94 
L 709.2 208.94 
" clip-path="url(#ped68da766e)" style="fill: none; stroke-dasharray: 0.8,1.32; stroke-dashoffset: 0; stroke: #000000; stroke-opacity: 0.5; stroke-width: 0.8"/>
     </g>
     <g id="line2d_110">
      <g>
       <use xlink:href="#m99c963f465" x="407.225" y="208.94" style="stroke: #000000; stroke-width: 0.8"/>
      </g>
     </g>
     <g id="text_59">
      <!-- 75 -->
      <g transform="translate(387.5 212.739219)scale(0.1 -0.1)">
       <use xlink:href="#DejaVuSans-37"/>
       <use xlink:href="#DejaVuSans-35" x="63.623047"/>
      </g>
     </g>
    </g>
    <g id="ytick_14">
     <g id="line2d_111">
      <path d="M 407.225 172.24 
L 709.2 172.24 
" clip-path="url(#ped68da766e)" style="fill: none; stroke-dasharray: 0.8,1.32; stroke-dashoffset: 0; stroke: #000000; stroke-opacity: 0.5; stroke-width: 0.8"/>
     </g>
     <g id="line2d_112">
      <g>
       <use xlink:href="#m99c963f465" x="407.225" y="172.24" style="stroke: #000000; stroke-width: 0.8"/>
      </g>
     </g>
     <g id="text_60">
      <!-- 100 -->
      <g transform="translate(381.1375 176.039219)scale(0.1 -0.1)">
       <use xlink:href="#DejaVuSans-31"/>
       <use xlink:href="#DejaVuSans-30" x="63.623047"/>
       <use xlink:href="#DejaVuSans-30" x="127.246094"/>
      </g>
     </g>
    </g>
    <g id="ytick_15">
     <g id="line2d_113">
      <path d="M 407.225 135.54 
L 709.2 135.54 
" clip-path="url(#ped68da766e)" style="fill: none; stroke-dasharray: 0.8,1.32; stroke-dashoffset: 0; stroke: #000000; stroke-opacity: 0.5; stroke-width: 0.8"/>
     </g>
     <g id="line2d_114">
      <g>
       <use xlink:href="#m99c963f465" x="407.225" y="135.54" style="stroke: #000000; stroke-width: 0.8"/>
      </g>
     </g>
     <g id="text_61">
      <!-- 125 -->
      <g transform="translate(381.1375 139.339219)scale(0.1 -0.1)">
       <use xlink:href="#DejaVuSans-31"/>
       <use xlink:href="#DejaVuSans-32" x="63.623047"/>
       <use xlink:href="#DejaVuSans-35" x="127.246094"/>
      </g>
     </g>
    </g>
    <g id="ytick_16">
     <g id="line2d_115">
      <path d="M 407.225 98.84 
L 709.2 98.84 
" clip-path="url(#ped68da766e)" style="fill: none; stroke-dasharray: 0.8,1.32; stroke-dashoffset: 0; stroke: #000000; stroke-opacity: 0.5; stroke-width: 0.8"/>
     </g>
     <g id="line2d_116">
      <g>
       <use xlink:href="#m99c963f465" x="407.225" y="98.84" style="stroke: #000000; stroke-width: 0.8"/>
      </g>
     </g>
     <g id="text_62">
      <!-- 150 -->
      <g transform="translate(381.1375 102.639219)scale(0.1 -0.1)">
       <use xlink:href="#DejaVuSans-31"/>
       <use xlink:href="#DejaVuSans-35" x="63.623047"/>
       <use xlink:href="#DejaVuSans-30" x="127.246094"/>
      </g>
     </g>
    </g>
    <g id="ytick_17">
     <g id="line2d_117">
      <path d="M 407.225 62.14 
L 709.2 62.14 
" clip-path="url(#ped68da766e)" style="fill: none; stroke-dasharray: 0.8,1.32; stroke-dashoffset: 0; stroke: #000000; stroke-opacity: 0.5; stroke-width: 0.8"/>
     </g>
     <g id="line2d_118">
      <g>
       <use xlink:href="#m99c963f465" x="407.225" y="62.14" style="stroke: #000000; stroke-width: 0.8"/>
      </g>
     </g>
     <g id="text_63">
      <!-- 175 -->
      <g transform="translate(381.1375 65.939219)scale(0.1 -0.1)">
       <use xlink:href="#DejaVuSans-31"/>
       <use xlink:href="#DejaVuSans-37" x="63.623047"/>
       <use xlink:href="#DejaVuSans-35" x="127.246094"/>
      </g>
     </g>
    </g>
    <g id="ytick_18">
     <g id="line2d_119">
      <path d="M 407.225 25.44 
L 709.2 25.44 
" clip-path="url(#ped68da766e)" style="fill: none; stroke-dasharray: 0.8,1.32; stroke-dashoffset: 0; stroke: #000000; stroke-opacity: 0.5; stroke-width: 0.8"/>
     </g>
     <g id="line2d_120">
      <g>
       <use xlink:href="#m99c963f465" x="407.225" y="25.44" style="stroke: #000000; stroke-width: 0.8"/>
      </g>
     </g>
     <g id="text_64">
      <!-- 200 -->
      <g transform="translate(381.1375 29.239219)scale(0.1 -0.1)">
       <use xlink:href="#DejaVuSans-32"/>
       <use xlink:href="#DejaVuSans-30" x="63.623047"/>
       <use xlink:href="#DejaVuSans-30" x="127.246094"/>
      </g>
     </g>
    </g>
    <g id="text_65">
     <!-- cumulative doses per hundred population -->
     <g transform="translate(375.057813 276.698594)rotate(-90)scale(0.1 -0.1)">
      <use xlink:href="#DejaVuSans-63"/>
      <use xlink:href="#DejaVuSans-75" x="54.980469"/>
      <use xlink:href="#DejaVuSans-6d" x="118.359375"/>
      <use xlink:href="#DejaVuSans-75" x="215.771484"/>
      <use xlink:href="#DejaVuSans-6c" x="279.150391"/>
      <use xlink:href="#DejaVuSans-61" x="306.933594"/>
      <use xlink:href="#DejaVuSans-74" x="368.212891"/>
      <use xlink:href="#DejaVuSans-69" x="407.421875"/>
      <use xlink:href="#DejaVuSans-76" x="435.205078"/>
      <use xlink:href="#DejaVuSans-65" x="494.384766"/>
      <use xlink:href="#DejaVuSans-20" x="555.908203"/>
      <use xlink:href="#DejaVuSans-64" x="587.695312"/>
      <use xlink:href="#DejaVuSans-6f" x="651.171875"/>
      <use xlink:href="#DejaVuSans-73" x="712.353516"/>
      <use xlink:href="#DejaVuSans-65" x="764.453125"/>
      <use xlink:href="#DejaVuSans-73" x="825.976562"/>
      <use xlink:href="#DejaVuSans-20" x="878.076172"/>
      <use xlink:href="#DejaVuSans-70" x="909.863281"/>
      <use xlink:href="#DejaVuSans-65" x="973.339844"/>
      <use xlink:href="#DejaVuSans-72" x="1034.863281"/>
      <use xlink:href="#DejaVuSans-20" x="1075.976562"/>
      <use xlink:href="#DejaVuSans-68" x="1107.763672"/>
      <use xlink:href="#DejaVuSans-75" x="1171.142578"/>
      <use xlink:href="#DejaVuSans-6e" x="1234.521484"/>
      <use xlink:href="#DejaVuSans-64" x="1297.900391"/>
      <use xlink:href="#DejaVuSans-72" x="1361.376953"/>
      <use xlink:href="#DejaVuSans-65" x="1400.240234"/>
      <use xlink:href="#DejaVuSans-64" x="1461.763672"/>
      <use xlink:href="#DejaVuSans-20" x="1525.240234"/>
      <use xlink:href="#DejaVuSans-70" x="1557.027344"/>
      <use xlink:href="#DejaVuSans-6f" x="1620.503906"/>
      <use xlink:href="#DejaVuSans-70" x="1681.685547"/>
      <use xlink:href="#DejaVuSans-75" x="1745.162109"/>
      <use xlink:href="#DejaVuSans-6c" x="1808.541016"/>
      <use xlink:href="#DejaVuSans-61" x="1836.324219"/>
      <use xlink:href="#DejaVuSans-74" x="1897.603516"/>
      <use xlink:href="#DejaVuSans-69" x="1936.8125"/>
      <use xlink:href="#DejaVuSans-6f" x="1964.595703"/>
      <use xlink:href="#DejaVuSans-6e" x="2025.777344"/>
     </g>
    </g>
   </g>
   <g id="line2d_121">
    <path d="M 367.360314 319.04 
L 428.15396 319.04 
L 428.15396 296.89384 
L 429.150578 296.89384 
L 429.150578 296.442913 
L 430.147195 296.442913 
L 430.147195 295.897241 
L 431.143812 295.897241 
L 431.143812 295.277796 
L 432.140429 295.277796 
L 432.140429 294.638044 
L 433.137046 294.638044 
L 433.137046 294.01719 
L 434.133663 294.01719 
L 434.133663 293.78667 
L 436.126898 293.68546 
L 436.126898 293.08707 
L 437.123515 293.08707 
L 437.123515 292.417393 
L 438.120132 292.417393 
L 438.120132 291.62968 
L 439.116749 291.62968 
L 439.116749 290.850421 
L 440.113366 290.850421 
L 440.113366 290.061382 
L 441.109983 290.061382 
L 441.109983 289.714151 
L 442.106601 289.714151 
L 442.106601 289.552845 
L 443.103218 289.552845 
L 443.103218 288.780218 
L 444.099835 288.780218 
L 444.099835 287.896019 
L 445.096452 287.896019 
L 445.096452 287.059235 
L 446.093069 287.059235 
L 446.093069 286.019532 
L 447.089686 286.019532 
L 447.089686 285.252542 
L 448.086304 285.252542 
L 448.086304 284.925288 
L 449.082921 284.925288 
L 449.082921 284.705793 
L 450.079538 284.705793 
L 450.079538 284.502544 
L 451.076155 284.502544 
L 451.076155 283.587261 
L 452.072772 283.587261 
L 452.072772 282.762744 
L 453.069389 282.762744 
L 453.069389 281.837017 
L 454.066007 281.837017 
L 454.066007 281.041429 
L 455.062624 281.041429 
L 455.062624 280.591994 
L 456.059241 280.591994 
L 456.059241 280.315635 
L 457.055858 280.315635 
L 457.055858 279.232747 
L 458.052475 279.232747 
L 458.052475 278.346145 
L 459.049092 278.346145 
L 459.049092 277.435338 
L 460.04571 277.435338 
L 460.04571 276.504389 
L 461.042327 276.504389 
L 461.042327 275.705485 
L 462.038944 275.705485 
L 462.038944 275.264754 
L 463.035561 275.264754 
L 463.035561 274.963031 
L 464.032178 274.963031 
L 464.032178 274.268238 
L 465.028795 274.268238 
L 465.028795 273.426646 
L 466.025413 273.426646 
L 466.025413 272.464364 
L 467.02203 272.464364 
L 467.02203 271.886447 
L 468.018647 271.886447 
L 468.018647 270.943396 
L 469.015264 270.943396 
L 469.015264 270.468016 
L 470.011881 270.468016 
L 470.011881 270.122112 
L 471.008498 270.122112 
L 471.008498 269.308785 
L 472.005116 269.308785 
L 472.005116 268.386208 
L 473.001733 268.386208 
L 473.001733 267.392262 
L 473.99835 267.392262 
L 473.99835 266.410667 
L 474.994967 266.410667 
L 474.994967 265.582088 
L 475.991584 265.582088 
L 475.991584 265.078442 
L 476.988201 265.078442 
L 476.988201 264.746381 
L 477.984818 264.746381 
L 477.984818 263.930401 
L 478.981436 263.930401 
L 478.981436 263.037499 
L 479.978053 263.037499 
L 479.978053 262.017691 
L 480.97467 262.017691 
L 480.97467 261.083924 
L 481.971287 261.083924 
L 481.971287 260.167646 
L 482.967904 260.167646 
L 482.967904 259.64966 
L 483.964521 259.64966 
L 483.964521 259.237195 
L 484.961139 259.237195 
L 484.961139 258.426686 
L 485.957756 258.426686 
L 485.957756 257.408867 
L 486.954373 257.408867 
L 486.954373 256.209683 
L 487.95099 256.209683 
L 487.95099 255.044235 
L 488.947607 255.044235 
L 488.947607 253.992099 
L 489.944224 253.992099 
L 489.944224 253.373484 
L 490.940842 253.373484 
L 490.940842 252.934327 
L 491.937459 252.934327 
L 491.937459 251.932257 
L 492.934076 251.932257 
L 492.934076 250.800298 
L 493.930693 250.800298 
L 493.930693 249.813812 
L 494.92731 249.813812 
L 494.92731 248.664362 
L 495.923927 248.664362 
L 495.923927 247.627975 
L 496.920545 247.627975 
L 496.920545 247.108829 
L 497.917162 247.108829 
L 497.917162 246.753724 
L 498.913779 246.753724 
L 498.913779 245.736734 
L 499.910396 245.736734 
L 499.910396 244.654674 
L 500.907013 244.654674 
L 500.907013 243.423909 
L 501.90363 243.423909 
L 501.90363 242.29112 
L 502.900248 242.29112 
L 502.900248 241.195881 
L 503.896865 241.195881 
L 503.896865 240.523137 
L 504.893482 240.523137 
L 504.893482 240.075774 
L 505.890099 240.075774 
L 505.890099 239.032922 
L 506.886716 239.032922 
L 506.886716 237.781931 
L 507.883333 237.781931 
L 507.883333 236.530774 
L 508.87995 236.530774 
L 508.87995 235.209823 
L 509.876568 235.209823 
L 509.876568 233.998122 
L 510.873185 233.998122 
L 510.873185 233.326207 
L 511.869802 233.326207 
L 511.869802 232.908934 
L 512.866419 232.908934 
L 512.866419 231.723178 
L 513.863036 231.723178 
L 513.863036 230.417064 
L 514.859653 230.417064 
L 514.859653 228.988023 
L 515.856271 228.988023 
L 515.856271 227.623719 
L 516.852888 227.623719 
L 516.852888 226.213577 
L 517.849505 226.213577 
L 517.849505 225.41716 
L 518.846122 225.41716 
L 518.846122 224.944847 
L 519.842739 224.944847 
L 519.842739 223.666502 
L 520.839356 223.666502 
L 520.839356 222.282719 
L 521.835974 222.282719 
L 521.835974 220.755701 
L 522.832591 220.755701 
L 522.832591 219.314475 
L 523.829208 219.314475 
L 523.829208 217.916766 
L 524.825825 217.916766 
L 524.825825 217.090591 
L 525.822442 217.090591 
L 525.822442 216.536962 
L 526.819059 216.536962 
L 526.819059 215.317801 
L 527.815677 215.317801 
L 527.815677 213.903929 
L 528.812294 213.903929 
L 528.812294 212.499009 
L 529.808911 212.499009 
L 529.808911 210.991884 
L 530.805528 210.991884 
L 530.805528 209.511036 
L 531.802145 209.511036 
L 531.802145 208.727467 
L 532.798762 208.727467 
L 532.798762 208.175828 
L 533.79538 208.175828 
L 533.79538 206.987916 
L 534.791997 206.987916 
L 534.791997 205.599492 
L 535.788614 205.599492 
L 535.788614 203.996379 
L 536.785231 203.996379 
L 536.785231 202.473423 
L 537.781848 202.473423 
L 537.781848 201.126112 
L 538.778465 201.126112 
L 538.778465 200.308392 
L 539.775083 200.308392 
L 539.775083 199.68041 
L 540.7717 199.68041 
L 540.7717 198.238437 
L 541.768317 198.238437 
L 541.768317 196.844376 
L 542.764934 196.844376 
L 542.764934 195.38566 
L 543.761551 195.38566 
L 543.761551 193.999391 
L 544.758168 193.999391 
L 544.758168 192.550207 
L 545.754785 192.550207 
L 545.754785 191.664185 
L 546.751403 191.664185 
L 546.751403 190.954472 
L 547.74802 190.954472 
L 547.74802 189.656233 
L 548.744637 189.656233 
L 548.744637 188.203899 
L 549.741254 188.203899 
L 549.741254 186.671161 
L 550.737871 186.671161 
L 550.737871 185.185588 
L 551.734488 185.185588 
L 551.734488 183.776109 
L 552.731106 183.776109 
L 552.731106 182.829328 
L 553.727723 182.829328 
L 553.727723 182.138846 
L 554.72434 182.138846 
L 554.72434 180.732683 
L 555.720957 180.732683 
L 555.720957 179.284411 
L 556.717574 179.284411 
L 556.717574 177.792704 
L 557.714191 177.792704 
L 557.714191 176.267343 
L 558.710809 176.267343 
L 558.710809 174.797934 
L 559.707426 174.797934 
L 559.707426 173.925506 
L 560.704043 173.925506 
L 560.704043 173.216954 
L 561.70066 173.216954 
L 561.70066 172.619226 
L 562.697277 172.619226 
L 562.697277 170.935047 
L 563.693894 170.935047 
L 563.693894 169.249458 
L 564.690512 169.249458 
L 564.690512 167.610536 
L 565.687129 167.610536 
L 565.687129 166.041907 
L 566.683746 166.041907 
L 566.683746 165.008421 
L 567.680363 165.008421 
L 567.680363 164.231981 
L 568.67698 164.231981 
L 568.67698 162.788351 
L 569.673597 162.788351 
L 569.673597 161.174297 
L 570.670215 161.174297 
L 570.670215 159.605668 
L 571.666832 159.605668 
L 571.666832 158.063066 
L 572.663449 158.063066 
L 572.663449 156.609157 
L 573.660066 156.609157 
L 573.660066 155.643311 
L 574.656683 155.643311 
L 574.656683 154.918678 
L 575.6533 154.918678 
L 575.6533 153.454242 
L 576.649917 153.454242 
L 576.649917 151.96668 
L 577.646535 151.96668 
L 577.646535 150.498845 
L 578.643152 150.498845 
L 578.643152 149.082238 
L 579.639769 149.082238 
L 579.639769 147.761452 
L 580.636386 147.761452 
L 580.636386 146.602056 
L 581.633003 146.602056 
L 581.633003 145.824206 
L 582.62962 145.824206 
L 582.62962 144.565838 
L 583.626238 144.565838 
L 583.626238 143.18164 
L 584.622855 143.18164 
L 584.622855 141.644261 
L 585.619472 141.644261 
L 585.619472 140.198807 
L 586.616089 140.198807 
L 586.616089 138.727574 
L 587.612706 138.727574 
L 587.612706 137.734374 
L 588.609323 137.734374 
L 588.609323 137.077628 
L 589.605941 137.077628 
L 589.605941 135.768116 
L 590.602558 135.768116 
L 590.602558 134.456614 
L 591.599175 134.456614 
L 591.599175 133.104496 
L 592.595792 133.104496 
L 592.595792 131.748896 
L 593.592409 131.748896 
L 593.592409 130.418164 
L 594.589026 130.418164 
L 594.589026 129.515563 
L 595.585644 129.515563 
L 595.585644 128.88211 
L 596.582261 128.88211 
L 596.582261 127.749156 
L 597.578878 127.749156 
L 597.578878 126.613051 
L 598.575495 126.613051 
L 598.575495 125.500405 
L 599.572112 125.500405 
L 599.572112 124.422905 
L 600.568729 124.422905 
L 600.568729 123.289121 
L 601.565347 123.289121 
L 601.565347 122.496683 
L 602.561964 122.496683 
L 602.561964 121.975133 
L 603.558581 121.975133 
L 603.558581 120.942394 
L 604.555198 120.942394 
L 604.555198 119.847818 
L 605.551815 119.847818 
L 605.551815 118.756723 
L 606.548432 118.756723 
L 606.548432 117.628991 
L 607.54505 117.628991 
L 607.54505 116.43105 
L 608.541667 116.43105 
L 608.541667 115.57089 
L 609.538284 115.57089 
L 609.538284 115.088132 
L 610.534901 115.088132 
L 610.534901 113.906355 
L 611.531518 113.906355 
L 611.531518 112.72292 
L 612.528135 112.72292 
L 612.528135 111.635887 
L 613.524752 111.635887 
L 613.524752 110.559298 
L 614.52137 110.559298 
L 614.52137 109.572149 
L 615.517987 109.572149 
L 615.517987 108.914823 
L 616.514604 108.914823 
L 616.514604 108.547533 
L 617.511221 108.547533 
L 617.511221 107.65115 
L 618.507838 107.65115 
L 618.507838 106.800191 
L 619.504455 106.800191 
L 619.504455 106.025077 
L 620.501073 106.025077 
L 620.501073 105.343381 
L 621.49769 105.343381 
L 621.49769 104.62712 
L 622.494307 104.62712 
L 622.494307 104.203961 
L 623.490924 104.203961 
L 623.490924 103.957609 
L 624.487541 103.957609 
L 624.487541 103.368834 
L 625.484158 103.368834 
L 625.484158 102.725185 
L 626.480776 102.725185 
L 626.480776 102.052276 
L 627.477393 102.052276 
L 627.477393 101.416087 
L 628.47401 101.416087 
L 628.47401 100.805512 
L 629.470627 100.805512 
L 629.470627 100.448583 
L 630.467244 100.448583 
L 630.467244 100.244588 
L 631.463861 100.244588 
L 631.463861 99.673386 
L 632.460479 99.673386 
L 632.460479 99.070188 
L 633.457096 99.070188 
L 633.457096 98.452402 
L 634.453713 98.452402 
L 634.453713 97.854592 
L 635.45033 97.854592 
L 635.45033 97.317209 
L 636.446947 97.317209 
L 636.446947 97.317209 
" clip-path="url(#ped68da766e)" style="fill: none; stroke: #1f77b4; stroke-width: 1.5; stroke-linecap: square"/>
   </g>
   <g id="line2d_122">
    <path d="M 636.446947 96.876809 
L 636.446947 96.436409 
L 637.443564 96.436409 
L 637.443564 95.996009 
L 638.440182 95.996009 
L 638.440182 95.555609 
L 639.436799 95.555609 
L 639.436799 95.115209 
L 640.433416 95.115209 
L 640.433416 94.674809 
L 641.430033 94.674809 
L 641.430033 94.234409 
L 642.42665 94.234409 
L 642.42665 93.794009 
L 643.423267 93.794009 
L 643.423267 93.353609 
L 644.419884 93.353609 
L 644.419884 92.913209 
L 645.416502 92.913209 
L 645.416502 92.472809 
L 646.413119 92.472809 
L 646.413119 92.032409 
L 647.409736 92.032409 
L 647.409736 91.592009 
L 648.406353 91.592009 
L 648.406353 91.151609 
L 649.40297 91.151609 
L 649.40297 90.711209 
L 650.399587 90.711209 
L 650.399587 90.270809 
L 651.396205 90.270809 
L 651.396205 89.830409 
L 652.392822 89.830409 
L 652.392822 89.390009 
L 653.389439 89.390009 
L 653.389439 88.949609 
L 654.386056 88.949609 
L 654.386056 88.509209 
L 655.382673 88.509209 
L 655.382673 88.068809 
L 656.37929 88.068809 
L 656.37929 87.628409 
L 657.375908 87.628409 
L 657.375908 87.188009 
L 658.372525 87.188009 
L 658.372525 86.747609 
L 659.369142 86.747609 
L 659.369142 86.307209 
L 660.365759 86.307209 
L 660.365759 85.866809 
L 661.362376 85.866809 
L 661.362376 85.426409 
L 662.358993 85.426409 
L 662.358993 84.986009 
L 663.355611 84.986009 
L 663.355611 84.545609 
L 721 84.545609 
L 721 84.545609 
" clip-path="url(#ped68da766e)" style="fill: none; stroke: #ff7f0e; stroke-width: 1.5; stroke-linecap: square"/>
   </g>
   <g id="patch_9">
    <path d="M 407.225 319.04 
L 407.225 25.44 
" style="fill: none; stroke: #000000; stroke-width: 0.8; stroke-linejoin: miter; stroke-linecap: square"/>
   </g>
   <g id="patch_10">
    <path d="M 709.2 319.04 
L 709.2 25.44 
" style="fill: none; stroke: #000000; stroke-width: 0.8; stroke-linejoin: miter; stroke-linecap: square"/>
   </g>
   <g id="patch_11">
    <path d="M 407.225 319.04 
L 709.2 319.04 
" style="fill: none; stroke: #000000; stroke-width: 0.8; stroke-linejoin: miter; stroke-linecap: square"/>
   </g>
   <g id="patch_12">
    <path d="M 407.225 25.44 
L 709.2 25.44 
" style="fill: none; stroke: #000000; stroke-width: 0.8; stroke-linejoin: miter; stroke-linecap: square"/>
   </g>
   <g id="text_66">
    <!-- SA cumulative vaccinations per capita -->
    <g transform="translate(443.165313 19.44)scale(0.12 -0.12)">
     <use xlink:href="#DejaVuSans-53"/>
     <use xlink:href="#DejaVuSans-41" x="65.351562"/>
     <use xlink:href="#DejaVuSans-20" x="133.759766"/>
     <use xlink:href="#DejaVuSans-63" x="165.546875"/>
     <use xlink:href="#DejaVuSans-75" x="220.527344"/>
     <use xlink:href="#DejaVuSans-6d" x="283.90625"/>
     <use xlink:href="#DejaVuSans-75" x="381.318359"/>
     <use xlink:href="#DejaVuSans-6c" x="444.697266"/>
     <use xlink:href="#DejaVuSans-61" x="472.480469"/>
     <use xlink:href="#DejaVuSans-74" x="533.759766"/>
     <use xlink:href="#DejaVuSans-69" x="572.96875"/>
     <use xlink:href="#DejaVuSans-76" x="600.751953"/>
     <use xlink:href="#DejaVuSans-65" x="659.931641"/>
     <use xlink:href="#DejaVuSans-20" x="721.455078"/>
     <use xlink:href="#DejaVuSans-76" x="753.242188"/>
     <use xlink:href="#DejaVuSans-61" x="812.421875"/>
     <use xlink:href="#DejaVuSans-63" x="873.701172"/>
     <use xlink:href="#DejaVuSans-63" x="928.681641"/>
     <use xlink:href="#DejaVuSans-69" x="983.662109"/>
     <use xlink:href="#DejaVuSans-6e" x="1011.445312"/>
     <use xlink:href="#DejaVuSans-61" x="1074.824219"/>
     <use xlink:href="#DejaVuSans-74" x="1136.103516"/>
     <use xlink:href="#DejaVuSans-69" x="1175.3125"/>
     <use xlink:href="#DejaVuSans-6f" x="1203.095703"/>
     <use xlink:href="#DejaVuSans-6e" x="1264.277344"/>
     <use xlink:href="#DejaVuSans-73" x="1327.65625"/>
     <use xlink:href="#DejaVuSans-20" x="1379.755859"/>
     <use xlink:href="#DejaVuSans-70" x="1411.542969"/>
     <use xlink:href="#DejaVuSans-65" x="1475.019531"/>
     <use xlink:href="#DejaVuSans-72" x="1536.542969"/>
     <use xlink:href="#DejaVuSans-20" x="1577.65625"/>
     <use xlink:href="#DejaVuSans-63" x="1609.443359"/>
     <use xlink:href="#DejaVuSans-61" x="1664.423828"/>
     <use xlink:href="#DejaVuSans-70" x="1725.703125"/>
     <use xlink:href="#DejaVuSans-69" x="1789.179688"/>
     <use xlink:href="#DejaVuSans-74" x="1816.962891"/>
     <use xlink:href="#DejaVuSans-61" x="1856.171875"/>
    </g>
   </g>
   <g id="legend_2">
    <g id="patch_13">
     <path d="M 554.317187 62.79625 
L 702.2 62.79625 
Q 704.2 62.79625 704.2 60.79625 
L 704.2 32.44 
Q 704.2 30.44 702.2 30.44 
L 554.317187 30.44 
Q 552.317187 30.44 552.317187 32.44 
L 552.317187 60.79625 
Q 552.317187 62.79625 554.317187 62.79625 
z
" style="fill: #ffffff; opacity: 0.8; stroke: #cccccc; stroke-linejoin: miter"/>
    </g>
    <g id="line2d_123">
     <path d="M 556.317187 38.538437 
L 556.317187 38.538437 
L 566.317187 38.538437 
L 566.317187 38.538437 
L 576.317187 38.538437 
" style="fill: none; stroke: #1f77b4; stroke-width: 1.5; stroke-linecap: square"/>
    </g>
    <g id="text_67">
     <!-- Actual -->
     <g transform="translate(584.317187 42.038437)scale(0.1 -0.1)">
      <use xlink:href="#DejaVuSans-41"/>
      <use xlink:href="#DejaVuSans-63" x="66.658203"/>
      <use xlink:href="#DejaVuSans-74" x="121.638672"/>
      <use xlink:href="#DejaVuSans-75" x="160.847656"/>
      <use xlink:href="#DejaVuSans-61" x="224.226562"/>
      <use xlink:href="#DejaVuSans-6c" x="285.505859"/>
     </g>
    </g>
    <g id="line2d_124">
     <path d="M 556.317187 53.216563 
L 556.317187 53.216563 
L 566.317187 53.216563 
L 566.317187 53.216563 
L 576.317187 53.216563 
" style="fill: none; stroke: #ff7f0e; stroke-width: 1.5; stroke-linecap: square"/>
    </g>
    <g id="text_68">
     <!-- Assumed for projection -->
     <g transform="translate(584.317187 56.716563)scale(0.1 -0.1)">
      <use xlink:href="#DejaVuSans-41"/>
      <use xlink:href="#DejaVuSans-73" x="68.408203"/>
      <use xlink:href="#DejaVuSans-73" x="120.507812"/>
      <use xlink:href="#DejaVuSans-75" x="172.607422"/>
      <use xlink:href="#DejaVuSans-6d" x="235.986328"/>
      <use xlink:href="#DejaVuSans-65" x="333.398438"/>
      <use xlink:href="#DejaVuSans-64" x="394.921875"/>
      <use xlink:href="#DejaVuSans-20" x="458.398438"/>
      <use xlink:href="#DejaVuSans-66" x="490.185547"/>
      <use xlink:href="#DejaVuSans-6f" x="525.390625"/>
      <use xlink:href="#DejaVuSans-72" x="586.572266"/>
      <use xlink:href="#DejaVuSans-20" x="627.685547"/>
      <use xlink:href="#DejaVuSans-70" x="659.472656"/>
      <use xlink:href="#DejaVuSans-72" x="722.949219"/>
      <use xlink:href="#DejaVuSans-6f" x="761.8125"/>
      <use xlink:href="#DejaVuSans-6a" x="822.994141"/>
      <use xlink:href="#DejaVuSans-65" x="850.777344"/>
      <use xlink:href="#DejaVuSans-63" x="912.300781"/>
      <use xlink:href="#DejaVuSans-74" x="967.28125"/>
      <use xlink:href="#DejaVuSans-69" x="1006.490234"/>
      <use xlink:href="#DejaVuSans-6f" x="1034.273438"/>
      <use xlink:href="#DejaVuSans-6e" x="1095.455078"/>
     </g>
    </g>
   </g>
  </g>
 </g>
 <defs>
  <clipPath id="p4e807c4b87">
   <rect x="54.2" y="25.44" width="301.975" height="293.6"/>
  </clipPath>
  <clipPath id="ped68da766e">
   <rect x="407.225" y="25.44" width="301.975" height="293.6"/>
  </clipPath>
 </defs>
</svg>
