<?xml version="1.0" encoding="utf-8" standalone="no"?>
<!DOCTYPE svg PUBLIC "-//W3C//DTD SVG 1.1//EN"
  "http://www.w3.org/Graphics/SVG/1.1/DTD/svg11.dtd">
<svg height="432pt" version="1.1" viewBox="0 0 720 432" width="720pt" xmlns="http://www.w3.org/2000/svg" xmlns:xlink="http://www.w3.org/1999/xlink">
 <metadata>
  <rdf:RDF xmlns:cc="http://creativecommons.org/ns#" xmlns:dc="http://purl.org/dc/elements/1.1/" xmlns:rdf="http://www.w3.org/1999/02/22-rdf-syntax-ns#">
   <cc:Work>
    <dc:type rdf:resource="http://purl.org/dc/dcmitype/StillImage"/>
    <dc:date>2021-07-09T12:09:03.790493</dc:date>
    <dc:format>image/svg+xml</dc:format>
    <dc:creator>
     <cc:Agent>
      <dc:title>Matplotlib v3.4.2, https://matplotlib.org/</dc:title>
     </cc:Agent>
    </dc:creator>
   </cc:Work>
  </rdf:RDF>
 </metadata>
 <defs>
  <style type="text/css">*{stroke-linecap:butt;stroke-linejoin:round;}</style>
 </defs>
 <g id="figure_1">
  <g id="patch_1">
   <path d="M 0 432 
L 720 432 
L 720 0 
L 0 0 
z
" style="fill:#ffffff;"/>
  </g>
  <g id="axes_1">
   <g id="patch_2">
    <path d="M 49.538 391.04 
L 669.894791 391.04 
L 669.894791 42.576 
L 49.538 42.576 
z
" style="fill:#ffffff;"/>
   </g>
   <g id="PolyCollection_1">
    <path clip-path="url(#p9dfae787c9)" d="M 483.787754 971.813333 
L 479.989651 971.813333 
L 479.989651 -189.733333 
L 483.787754 -189.733333 
L 483.787754 -189.733333 
L 483.787754 971.813333 
z
" style="fill:#ff0000;fill-opacity:0.4;"/>
   </g>
   <g id="PolyCollection_2">
    <path clip-path="url(#p9dfae787c9)" d="M 487.585856 971.813333 
L 483.787754 971.813333 
L 483.787754 -189.733333 
L 487.585856 -189.733333 
L 487.585856 -189.733333 
L 487.585856 971.813333 
z
" style="fill:#ff0000;fill-opacity:0.36;"/>
   </g>
   <g id="PolyCollection_3">
    <path clip-path="url(#p9dfae787c9)" d="M 491.383959 971.813333 
L 487.585856 971.813333 
L 487.585856 -189.733333 
L 491.383959 -189.733333 
L 491.383959 -189.733333 
L 491.383959 971.813333 
z
" style="fill:#ff0000;fill-opacity:0.32;"/>
   </g>
   <g id="PolyCollection_4">
    <path clip-path="url(#p9dfae787c9)" d="M 495.182062 971.813333 
L 491.383959 971.813333 
L 491.383959 -189.733333 
L 495.182062 -189.733333 
L 495.182062 -189.733333 
L 495.182062 971.813333 
z
" style="fill:#ff0000;fill-opacity:0.28;"/>
   </g>
   <g id="PolyCollection_5">
    <path clip-path="url(#p9dfae787c9)" d="M 498.980165 971.813333 
L 495.182062 971.813333 
L 495.182062 -189.733333 
L 498.980165 -189.733333 
L 498.980165 -189.733333 
L 498.980165 971.813333 
z
" style="fill:#ff0000;fill-opacity:0.24;"/>
   </g>
   <g id="PolyCollection_6">
    <path clip-path="url(#p9dfae787c9)" d="M 502.778268 971.813333 
L 498.980165 971.813333 
L 498.980165 -189.733333 
L 502.778268 -189.733333 
L 502.778268 -189.733333 
L 502.778268 971.813333 
z
" style="fill:#ff0000;fill-opacity:0.2;"/>
   </g>
   <g id="PolyCollection_7">
    <path clip-path="url(#p9dfae787c9)" d="M 506.57637 971.813333 
L 502.778268 971.813333 
L 502.778268 -189.733333 
L 506.57637 -189.733333 
L 506.57637 -189.733333 
L 506.57637 971.813333 
z
" style="fill:#ff0000;fill-opacity:0.16;"/>
   </g>
   <g id="PolyCollection_8">
    <path clip-path="url(#p9dfae787c9)" d="M 510.374473 971.813333 
L 506.57637 971.813333 
L 506.57637 -189.733333 
L 510.374473 -189.733333 
L 510.374473 -189.733333 
L 510.374473 971.813333 
z
" style="fill:#ff0000;fill-opacity:0.12;"/>
   </g>
   <g id="PolyCollection_9">
    <path clip-path="url(#p9dfae787c9)" d="M 514.172576 971.813333 
L 510.374473 971.813333 
L 510.374473 -189.733333 
L 514.172576 -189.733333 
L 514.172576 -189.733333 
L 514.172576 971.813333 
z
" style="fill:#ff0000;fill-opacity:0.08;"/>
   </g>
   <g id="PolyCollection_10">
    <path clip-path="url(#p9dfae787c9)" d="M 517.970679 971.813333 
L 514.172576 971.813333 
L 514.172576 -189.733333 
L 517.970679 -189.733333 
L 517.970679 -189.733333 
L 517.970679 971.813333 
z
" style="fill:#ff0000;fill-opacity:0.04;"/>
   </g>
   <g id="PolyCollection_11">
    <path clip-path="url(#p9dfae787c9)" d="M 214.122455 971.813333 
L 150.820741 971.813333 
L 150.820741 -189.733333 
L 214.122455 -189.733333 
L 214.122455 -189.733333 
L 214.122455 971.813333 
z
" style="fill:#ffff00;fill-opacity:0.5;"/>
   </g>
   <g id="PolyCollection_12">
    <path clip-path="url(#p9dfae787c9)" d="M 226.782797 971.813333 
L 214.122455 971.813333 
L 214.122455 -189.733333 
L 226.782797 -189.733333 
L 226.782797 -189.733333 
L 226.782797 971.813333 
z
" style="fill:url(#h9ee7a6a75f);fill-opacity:0.5;"/>
   </g>
   <g id="PolyCollection_13">
    <path clip-path="url(#p9dfae787c9)" d="M 391.367252 971.813333 
L 226.782797 971.813333 
L 226.782797 -189.733333 
L 391.367252 -189.733333 
L 391.367252 -189.733333 
L 391.367252 971.813333 
z
" style="fill:#ffa500;fill-opacity:0.5;"/>
   </g>
   <g id="PolyCollection_14">
    <path clip-path="url(#p9dfae787c9)" d="M 479.989651 971.813333 
L 391.367252 971.813333 
L 391.367252 -189.733333 
L 479.989651 -189.733333 
L 479.989651 -189.733333 
L 479.989651 971.813333 
z
" style="fill:#ff0000;fill-opacity:0.5;"/>
   </g>
   <g id="PolyCollection_15">
    <defs>
     <path d="M 24.217315 -40.96 
L 24.217315 -316.857675 
L 24.217315 -300.189464 
L 36.877657 -300.189464 
L 36.877657 -285.983927 
L 49.538 -285.983927 
L 49.538 -274.062892 
L 62.198343 -274.062892 
L 62.198343 -264.888176 
L 74.858685 -264.888176 
L 74.858685 -258.007598 
L 87.519028 -258.007598 
L 87.519028 -252.656493 
L 100.179371 -252.656493 
L 100.179371 -247.330815 
L 112.839713 -247.330815 
L 112.839713 -240.564604 
L 125.500056 -240.564604 
L 125.500056 -230.790553 
L 138.160399 -230.790553 
L 138.160399 -217.818059 
L 150.820741 -217.818059 
L 150.820741 -202.283283 
L 163.481084 -202.283283 
L 163.481084 -185.516265 
L 176.141427 -185.516265 
L 176.141427 -168.858575 
L 188.801769 -168.858575 
L 188.801769 -153.407237 
L 201.462112 -153.407237 
L 201.462112 -139.820837 
L 214.122455 -139.820837 
L 214.122455 -128.449535 
L 226.782797 -128.449535 
L 226.782797 -119.440807 
L 239.44314 -119.440807 
L 239.44314 -112.916999 
L 252.103483 -112.916999 
L 252.103483 -109.040497 
L 264.763825 -109.040497 
L 264.763825 -108.093911 
L 277.424168 -108.093911 
L 277.424168 -110.480575 
L 290.084511 -110.480575 
L 290.084511 -116.588324 
L 302.744853 -116.588324 
L 302.744853 -126.419626 
L 315.405196 -126.419626 
L 315.405196 -139.067823 
L 328.065539 -139.067823 
L 328.065539 -152.491733 
L 340.725881 -152.491733 
L 340.725881 -164.221275 
L 353.386224 -164.221275 
L 353.386224 -172.573286 
L 366.046567 -172.573286 
L 366.046567 -177.308005 
L 378.706909 -177.308005 
L 378.706909 -40.96 
L 378.706909 -40.96 
L 366.046567 -40.96 
L 366.046567 -40.96 
L 353.386224 -40.96 
L 353.386224 -40.96 
L 340.725881 -40.96 
L 340.725881 -40.96 
L 328.065539 -40.96 
L 328.065539 -40.96 
L 315.405196 -40.96 
L 315.405196 -40.96 
L 302.744853 -40.96 
L 302.744853 -40.96 
L 290.084511 -40.96 
L 290.084511 -40.96 
L 277.424168 -40.96 
L 277.424168 -40.96 
L 264.763825 -40.96 
L 264.763825 -40.96 
L 252.103483 -40.96 
L 252.103483 -40.96 
L 239.44314 -40.96 
L 239.44314 -40.96 
L 226.782797 -40.96 
L 226.782797 -40.96 
L 214.122455 -40.96 
L 214.122455 -40.96 
L 201.462112 -40.96 
L 201.462112 -40.96 
L 188.801769 -40.96 
L 188.801769 -40.96 
L 176.141427 -40.96 
L 176.141427 -40.96 
L 163.481084 -40.96 
L 163.481084 -40.96 
L 150.820741 -40.96 
L 150.820741 -40.96 
L 138.160399 -40.96 
L 138.160399 -40.96 
L 125.500056 -40.96 
L 125.500056 -40.96 
L 112.839713 -40.96 
L 112.839713 -40.96 
L 100.179371 -40.96 
L 100.179371 -40.96 
L 87.519028 -40.96 
L 87.519028 -40.96 
L 74.858685 -40.96 
L 74.858685 -40.96 
L 62.198343 -40.96 
L 62.198343 -40.96 
L 49.538 -40.96 
L 49.538 -40.96 
L 36.877657 -40.96 
L 36.877657 -40.96 
L 24.217315 -40.96 
L 24.217315 -40.96 
z
" id="m628f17482b" style="stroke:#1f77b4;"/>
    </defs>
    <g clip-path="url(#p9dfae787c9)">
     <use style="fill:#1f77b4;stroke:#1f77b4;" x="0" xlink:href="#m628f17482b" y="432"/>
    </g>
   </g>
   <g id="matplotlib.axis_1">
    <g id="xtick_1">
     <g id="line2d_1">
      <path clip-path="url(#p9dfae787c9)" d="M 74.858685 391.04 
L 74.858685 42.576 
" style="fill:none;stroke:#000000;stroke-dasharray:0.8,1.32;stroke-dashoffset:0;stroke-opacity:0.5;stroke-width:0.8;"/>
     </g>
     <g id="line2d_2">
      <defs>
       <path d="M 0 0 
L 0 3.5 
" id="m5894d61c6b" style="stroke:#000000;stroke-width:0.8;"/>
      </defs>
      <g>
       <use style="stroke:#000000;stroke-width:0.8;" x="74.858685" xlink:href="#m5894d61c6b" y="391.04"/>
      </g>
     </g>
     <g id="text_1">
      <!-- 15 -->
      <g transform="translate(68.496185 405.638438)scale(0.1 -0.1)">
       <defs>
        <path d="M 794 531 
L 1825 531 
L 1825 4091 
L 703 3866 
L 703 4441 
L 1819 4666 
L 2450 4666 
L 2450 531 
L 3481 531 
L 3481 0 
L 794 0 
L 794 531 
z
" id="DejaVuSans-31" transform="scale(0.015625)"/>
        <path d="M 691 4666 
L 3169 4666 
L 3169 4134 
L 1269 4134 
L 1269 2991 
Q 1406 3038 1543 3061 
Q 1681 3084 1819 3084 
Q 2600 3084 3056 2656 
Q 3513 2228 3513 1497 
Q 3513 744 3044 326 
Q 2575 -91 1722 -91 
Q 1428 -91 1123 -41 
Q 819 9 494 109 
L 494 744 
Q 775 591 1075 516 
Q 1375 441 1709 441 
Q 2250 441 2565 725 
Q 2881 1009 2881 1497 
Q 2881 1984 2565 2268 
Q 2250 2553 1709 2553 
Q 1456 2553 1204 2497 
Q 953 2441 691 2322 
L 691 4666 
z
" id="DejaVuSans-35" transform="scale(0.015625)"/>
       </defs>
       <use xlink:href="#DejaVuSans-31"/>
       <use x="63.623047" xlink:href="#DejaVuSans-35"/>
      </g>
     </g>
    </g>
    <g id="xtick_2">
     <g id="line2d_3">
      <path clip-path="url(#p9dfae787c9)" d="M 138.160399 391.04 
L 138.160399 42.576 
" style="fill:none;stroke:#000000;stroke-dasharray:0.8,1.32;stroke-dashoffset:0;stroke-opacity:0.5;stroke-width:0.8;"/>
     </g>
     <g id="line2d_4">
      <g>
       <use style="stroke:#000000;stroke-width:0.8;" x="138.160399" xlink:href="#m5894d61c6b" y="391.04"/>
      </g>
     </g>
     <g id="text_2">
      <!-- 20 -->
      <g transform="translate(131.797899 405.638438)scale(0.1 -0.1)">
       <defs>
        <path d="M 1228 531 
L 3431 531 
L 3431 0 
L 469 0 
L 469 531 
Q 828 903 1448 1529 
Q 2069 2156 2228 2338 
Q 2531 2678 2651 2914 
Q 2772 3150 2772 3378 
Q 2772 3750 2511 3984 
Q 2250 4219 1831 4219 
Q 1534 4219 1204 4116 
Q 875 4013 500 3803 
L 500 4441 
Q 881 4594 1212 4672 
Q 1544 4750 1819 4750 
Q 2544 4750 2975 4387 
Q 3406 4025 3406 3419 
Q 3406 3131 3298 2873 
Q 3191 2616 2906 2266 
Q 2828 2175 2409 1742 
Q 1991 1309 1228 531 
z
" id="DejaVuSans-32" transform="scale(0.015625)"/>
        <path d="M 2034 4250 
Q 1547 4250 1301 3770 
Q 1056 3291 1056 2328 
Q 1056 1369 1301 889 
Q 1547 409 2034 409 
Q 2525 409 2770 889 
Q 3016 1369 3016 2328 
Q 3016 3291 2770 3770 
Q 2525 4250 2034 4250 
z
M 2034 4750 
Q 2819 4750 3233 4129 
Q 3647 3509 3647 2328 
Q 3647 1150 3233 529 
Q 2819 -91 2034 -91 
Q 1250 -91 836 529 
Q 422 1150 422 2328 
Q 422 3509 836 4129 
Q 1250 4750 2034 4750 
z
" id="DejaVuSans-30" transform="scale(0.015625)"/>
       </defs>
       <use xlink:href="#DejaVuSans-32"/>
       <use x="63.623047" xlink:href="#DejaVuSans-30"/>
      </g>
     </g>
    </g>
    <g id="xtick_3">
     <g id="line2d_5">
      <path clip-path="url(#p9dfae787c9)" d="M 201.462112 391.04 
L 201.462112 42.576 
" style="fill:none;stroke:#000000;stroke-dasharray:0.8,1.32;stroke-dashoffset:0;stroke-opacity:0.5;stroke-width:0.8;"/>
     </g>
     <g id="line2d_6">
      <g>
       <use style="stroke:#000000;stroke-width:0.8;" x="201.462112" xlink:href="#m5894d61c6b" y="391.04"/>
      </g>
     </g>
     <g id="text_3">
      <!-- 25 -->
      <g transform="translate(195.099612 405.638438)scale(0.1 -0.1)">
       <use xlink:href="#DejaVuSans-32"/>
       <use x="63.623047" xlink:href="#DejaVuSans-35"/>
      </g>
     </g>
    </g>
    <g id="xtick_4">
     <g id="line2d_7">
      <path clip-path="url(#p9dfae787c9)" d="M 277.424168 391.04 
L 277.424168 42.576 
" style="fill:none;stroke:#000000;stroke-dasharray:0.8,1.32;stroke-dashoffset:0;stroke-opacity:0.5;stroke-width:0.8;"/>
     </g>
     <g id="line2d_8">
      <g>
       <use style="stroke:#000000;stroke-width:0.8;" x="277.424168" xlink:href="#m5894d61c6b" y="391.04"/>
      </g>
     </g>
     <g id="text_4">
      <!-- Jul -->
      <g transform="translate(271.391356 405.638438)scale(0.1 -0.1)">
       <defs>
        <path d="M 628 4666 
L 1259 4666 
L 1259 325 
Q 1259 -519 939 -900 
Q 619 -1281 -91 -1281 
L -331 -1281 
L -331 -750 
L -134 -750 
Q 284 -750 456 -515 
Q 628 -281 628 325 
L 628 4666 
z
" id="DejaVuSans-4a" transform="scale(0.015625)"/>
        <path d="M 544 1381 
L 544 3500 
L 1119 3500 
L 1119 1403 
Q 1119 906 1312 657 
Q 1506 409 1894 409 
Q 2359 409 2629 706 
Q 2900 1003 2900 1516 
L 2900 3500 
L 3475 3500 
L 3475 0 
L 2900 0 
L 2900 538 
Q 2691 219 2414 64 
Q 2138 -91 1772 -91 
Q 1169 -91 856 284 
Q 544 659 544 1381 
z
M 1991 3584 
L 1991 3584 
z
" id="DejaVuSans-75" transform="scale(0.015625)"/>
        <path d="M 603 4863 
L 1178 4863 
L 1178 0 
L 603 0 
L 603 4863 
z
" id="DejaVuSans-6c" transform="scale(0.015625)"/>
       </defs>
       <use xlink:href="#DejaVuSans-4a"/>
       <use x="29.492188" xlink:href="#DejaVuSans-75"/>
       <use x="92.871094" xlink:href="#DejaVuSans-6c"/>
      </g>
     </g>
    </g>
    <g id="xtick_5">
     <g id="line2d_9">
      <path clip-path="url(#p9dfae787c9)" d="M 328.065539 391.04 
L 328.065539 42.576 
" style="fill:none;stroke:#000000;stroke-dasharray:0.8,1.32;stroke-dashoffset:0;stroke-opacity:0.5;stroke-width:0.8;"/>
     </g>
     <g id="line2d_10">
      <g>
       <use style="stroke:#000000;stroke-width:0.8;" x="328.065539" xlink:href="#m5894d61c6b" y="391.04"/>
      </g>
     </g>
     <g id="text_5">
      <!-- 05 -->
      <g transform="translate(321.703039 405.638438)scale(0.1 -0.1)">
       <use xlink:href="#DejaVuSans-30"/>
       <use x="63.623047" xlink:href="#DejaVuSans-35"/>
      </g>
     </g>
    </g>
    <g id="xtick_6">
     <g id="line2d_11">
      <path clip-path="url(#p9dfae787c9)" d="M 391.367252 391.04 
L 391.367252 42.576 
" style="fill:none;stroke:#000000;stroke-dasharray:0.8,1.32;stroke-dashoffset:0;stroke-opacity:0.5;stroke-width:0.8;"/>
     </g>
     <g id="line2d_12">
      <g>
       <use style="stroke:#000000;stroke-width:0.8;" x="391.367252" xlink:href="#m5894d61c6b" y="391.04"/>
      </g>
     </g>
     <g id="text_6">
      <!-- 10 -->
      <g transform="translate(385.004752 405.638438)scale(0.1 -0.1)">
       <use xlink:href="#DejaVuSans-31"/>
       <use x="63.623047" xlink:href="#DejaVuSans-30"/>
      </g>
     </g>
    </g>
    <g id="xtick_7">
     <g id="line2d_13">
      <path clip-path="url(#p9dfae787c9)" d="M 454.668965 391.04 
L 454.668965 42.576 
" style="fill:none;stroke:#000000;stroke-dasharray:0.8,1.32;stroke-dashoffset:0;stroke-opacity:0.5;stroke-width:0.8;"/>
     </g>
     <g id="line2d_14">
      <g>
       <use style="stroke:#000000;stroke-width:0.8;" x="454.668965" xlink:href="#m5894d61c6b" y="391.04"/>
      </g>
     </g>
     <g id="text_7">
      <!-- 15 -->
      <g transform="translate(448.306465 405.638438)scale(0.1 -0.1)">
       <use xlink:href="#DejaVuSans-31"/>
       <use x="63.623047" xlink:href="#DejaVuSans-35"/>
      </g>
     </g>
    </g>
    <g id="xtick_8">
     <g id="line2d_15">
      <path clip-path="url(#p9dfae787c9)" d="M 517.970679 391.04 
L 517.970679 42.576 
" style="fill:none;stroke:#000000;stroke-dasharray:0.8,1.32;stroke-dashoffset:0;stroke-opacity:0.5;stroke-width:0.8;"/>
     </g>
     <g id="line2d_16">
      <g>
       <use style="stroke:#000000;stroke-width:0.8;" x="517.970679" xlink:href="#m5894d61c6b" y="391.04"/>
      </g>
     </g>
     <g id="text_8">
      <!-- 20 -->
      <g transform="translate(511.608179 405.638438)scale(0.1 -0.1)">
       <use xlink:href="#DejaVuSans-32"/>
       <use x="63.623047" xlink:href="#DejaVuSans-30"/>
      </g>
     </g>
    </g>
    <g id="xtick_9">
     <g id="line2d_17">
      <path clip-path="url(#p9dfae787c9)" d="M 581.272392 391.04 
L 581.272392 42.576 
" style="fill:none;stroke:#000000;stroke-dasharray:0.8,1.32;stroke-dashoffset:0;stroke-opacity:0.5;stroke-width:0.8;"/>
     </g>
     <g id="line2d_18">
      <g>
       <use style="stroke:#000000;stroke-width:0.8;" x="581.272392" xlink:href="#m5894d61c6b" y="391.04"/>
      </g>
     </g>
     <g id="text_9">
      <!-- 25 -->
      <g transform="translate(574.909892 405.638438)scale(0.1 -0.1)">
       <use xlink:href="#DejaVuSans-32"/>
       <use x="63.623047" xlink:href="#DejaVuSans-35"/>
      </g>
     </g>
    </g>
    <g id="xtick_10">
     <g id="line2d_19">
      <path clip-path="url(#p9dfae787c9)" d="M 669.894791 391.04 
L 669.894791 42.576 
" style="fill:none;stroke:#000000;stroke-dasharray:0.8,1.32;stroke-dashoffset:0;stroke-opacity:0.5;stroke-width:0.8;"/>
     </g>
     <g id="line2d_20">
      <g>
       <use style="stroke:#000000;stroke-width:0.8;" x="669.894791" xlink:href="#m5894d61c6b" y="391.04"/>
      </g>
     </g>
     <g id="text_10">
      <!-- Aug -->
      <g transform="translate(660.13151 405.638438)scale(0.1 -0.1)">
       <defs>
        <path d="M 2188 4044 
L 1331 1722 
L 3047 1722 
L 2188 4044 
z
M 1831 4666 
L 2547 4666 
L 4325 0 
L 3669 0 
L 3244 1197 
L 1141 1197 
L 716 0 
L 50 0 
L 1831 4666 
z
" id="DejaVuSans-41" transform="scale(0.015625)"/>
        <path d="M 2906 1791 
Q 2906 2416 2648 2759 
Q 2391 3103 1925 3103 
Q 1463 3103 1205 2759 
Q 947 2416 947 1791 
Q 947 1169 1205 825 
Q 1463 481 1925 481 
Q 2391 481 2648 825 
Q 2906 1169 2906 1791 
z
M 3481 434 
Q 3481 -459 3084 -895 
Q 2688 -1331 1869 -1331 
Q 1566 -1331 1297 -1286 
Q 1028 -1241 775 -1147 
L 775 -588 
Q 1028 -725 1275 -790 
Q 1522 -856 1778 -856 
Q 2344 -856 2625 -561 
Q 2906 -266 2906 331 
L 2906 616 
Q 2728 306 2450 153 
Q 2172 0 1784 0 
Q 1141 0 747 490 
Q 353 981 353 1791 
Q 353 2603 747 3093 
Q 1141 3584 1784 3584 
Q 2172 3584 2450 3431 
Q 2728 3278 2906 2969 
L 2906 3500 
L 3481 3500 
L 3481 434 
z
" id="DejaVuSans-67" transform="scale(0.015625)"/>
       </defs>
       <use xlink:href="#DejaVuSans-41"/>
       <use x="68.408203" xlink:href="#DejaVuSans-75"/>
       <use x="131.787109" xlink:href="#DejaVuSans-67"/>
      </g>
     </g>
    </g>
    <g id="text_11">
     <!-- 2021-Aug -->
     <g transform="translate(621.535416 418.316563)scale(0.1 -0.1)">
      <defs>
       <path d="M 313 2009 
L 1997 2009 
L 1997 1497 
L 313 1497 
L 313 2009 
z
" id="DejaVuSans-2d" transform="scale(0.015625)"/>
      </defs>
      <use xlink:href="#DejaVuSans-32"/>
      <use x="63.623047" xlink:href="#DejaVuSans-30"/>
      <use x="127.246094" xlink:href="#DejaVuSans-32"/>
      <use x="190.869141" xlink:href="#DejaVuSans-31"/>
      <use x="254.492188" xlink:href="#DejaVuSans-2d"/>
      <use x="288.326172" xlink:href="#DejaVuSans-41"/>
      <use x="356.734375" xlink:href="#DejaVuSans-75"/>
      <use x="420.113281" xlink:href="#DejaVuSans-67"/>
     </g>
    </g>
   </g>
   <g id="matplotlib.axis_2">
    <g id="ytick_1">
     <g id="line2d_21">
      <path clip-path="url(#p9dfae787c9)" d="M 49.538 391.04 
L 669.894791 391.04 
" style="fill:none;stroke:#000000;stroke-dasharray:0.8,1.32;stroke-dashoffset:0;stroke-opacity:0.5;stroke-width:0.8;"/>
     </g>
     <g id="line2d_22">
      <defs>
       <path d="M 0 0 
L -3.5 0 
" id="mb06acda1bc" style="stroke:#000000;stroke-width:0.8;"/>
      </defs>
      <g>
       <use style="stroke:#000000;stroke-width:0.8;" x="49.538" xlink:href="#mb06acda1bc" y="391.04"/>
      </g>
     </g>
     <g id="text_12">
      <!-- 0.0 -->
      <g transform="translate(26.634875 394.839219)scale(0.1 -0.1)">
       <defs>
        <path d="M 684 794 
L 1344 794 
L 1344 0 
L 684 0 
L 684 794 
z
" id="DejaVuSans-2e" transform="scale(0.015625)"/>
       </defs>
       <use xlink:href="#DejaVuSans-30"/>
       <use x="63.623047" xlink:href="#DejaVuSans-2e"/>
       <use x="95.410156" xlink:href="#DejaVuSans-30"/>
      </g>
     </g>
    </g>
    <g id="ytick_2">
     <g id="line2d_23">
      <path clip-path="url(#p9dfae787c9)" d="M 49.538 362.001333 
L 669.894791 362.001333 
" style="fill:none;stroke:#000000;stroke-dasharray:0.8,1.32;stroke-dashoffset:0;stroke-opacity:0.5;stroke-width:0.8;"/>
     </g>
     <g id="line2d_24">
      <g>
       <use style="stroke:#000000;stroke-width:0.8;" x="49.538" xlink:href="#mb06acda1bc" y="362.001333"/>
      </g>
     </g>
     <g id="text_13">
      <!-- 0.5 -->
      <g transform="translate(26.634875 365.800552)scale(0.1 -0.1)">
       <use xlink:href="#DejaVuSans-30"/>
       <use x="63.623047" xlink:href="#DejaVuSans-2e"/>
       <use x="95.410156" xlink:href="#DejaVuSans-35"/>
      </g>
     </g>
    </g>
    <g id="ytick_3">
     <g id="line2d_25">
      <path clip-path="url(#p9dfae787c9)" d="M 49.538 332.962667 
L 669.894791 332.962667 
" style="fill:none;stroke:#000000;stroke-dasharray:0.8,1.32;stroke-dashoffset:0;stroke-opacity:0.5;stroke-width:0.8;"/>
     </g>
     <g id="line2d_26">
      <g>
       <use style="stroke:#000000;stroke-width:0.8;" x="49.538" xlink:href="#mb06acda1bc" y="332.962667"/>
      </g>
     </g>
     <g id="text_14">
      <!-- 1.0 -->
      <g transform="translate(26.634875 336.761885)scale(0.1 -0.1)">
       <use xlink:href="#DejaVuSans-31"/>
       <use x="63.623047" xlink:href="#DejaVuSans-2e"/>
       <use x="95.410156" xlink:href="#DejaVuSans-30"/>
      </g>
     </g>
    </g>
    <g id="ytick_4">
     <g id="line2d_27">
      <path clip-path="url(#p9dfae787c9)" d="M 49.538 303.924 
L 669.894791 303.924 
" style="fill:none;stroke:#000000;stroke-dasharray:0.8,1.32;stroke-dashoffset:0;stroke-opacity:0.5;stroke-width:0.8;"/>
     </g>
     <g id="line2d_28">
      <g>
       <use style="stroke:#000000;stroke-width:0.8;" x="49.538" xlink:href="#mb06acda1bc" y="303.924"/>
      </g>
     </g>
     <g id="text_15">
      <!-- 1.5 -->
      <g transform="translate(26.634875 307.723219)scale(0.1 -0.1)">
       <use xlink:href="#DejaVuSans-31"/>
       <use x="63.623047" xlink:href="#DejaVuSans-2e"/>
       <use x="95.410156" xlink:href="#DejaVuSans-35"/>
      </g>
     </g>
    </g>
    <g id="ytick_5">
     <g id="line2d_29">
      <path clip-path="url(#p9dfae787c9)" d="M 49.538 274.885333 
L 669.894791 274.885333 
" style="fill:none;stroke:#000000;stroke-dasharray:0.8,1.32;stroke-dashoffset:0;stroke-opacity:0.5;stroke-width:0.8;"/>
     </g>
     <g id="line2d_30">
      <g>
       <use style="stroke:#000000;stroke-width:0.8;" x="49.538" xlink:href="#mb06acda1bc" y="274.885333"/>
      </g>
     </g>
     <g id="text_16">
      <!-- 2.0 -->
      <g transform="translate(26.634875 278.684552)scale(0.1 -0.1)">
       <use xlink:href="#DejaVuSans-32"/>
       <use x="63.623047" xlink:href="#DejaVuSans-2e"/>
       <use x="95.410156" xlink:href="#DejaVuSans-30"/>
      </g>
     </g>
    </g>
    <g id="ytick_6">
     <g id="line2d_31">
      <path clip-path="url(#p9dfae787c9)" d="M 49.538 245.846667 
L 669.894791 245.846667 
" style="fill:none;stroke:#000000;stroke-dasharray:0.8,1.32;stroke-dashoffset:0;stroke-opacity:0.5;stroke-width:0.8;"/>
     </g>
     <g id="line2d_32">
      <g>
       <use style="stroke:#000000;stroke-width:0.8;" x="49.538" xlink:href="#mb06acda1bc" y="245.846667"/>
      </g>
     </g>
     <g id="text_17">
      <!-- 2.5 -->
      <g transform="translate(26.634875 249.645885)scale(0.1 -0.1)">
       <use xlink:href="#DejaVuSans-32"/>
       <use x="63.623047" xlink:href="#DejaVuSans-2e"/>
       <use x="95.410156" xlink:href="#DejaVuSans-35"/>
      </g>
     </g>
    </g>
    <g id="ytick_7">
     <g id="line2d_33">
      <path clip-path="url(#p9dfae787c9)" d="M 49.538 216.808 
L 669.894791 216.808 
" style="fill:none;stroke:#000000;stroke-dasharray:0.8,1.32;stroke-dashoffset:0;stroke-opacity:0.5;stroke-width:0.8;"/>
     </g>
     <g id="line2d_34">
      <g>
       <use style="stroke:#000000;stroke-width:0.8;" x="49.538" xlink:href="#mb06acda1bc" y="216.808"/>
      </g>
     </g>
     <g id="text_18">
      <!-- 3.0 -->
      <g transform="translate(26.634875 220.607219)scale(0.1 -0.1)">
       <defs>
        <path d="M 2597 2516 
Q 3050 2419 3304 2112 
Q 3559 1806 3559 1356 
Q 3559 666 3084 287 
Q 2609 -91 1734 -91 
Q 1441 -91 1130 -33 
Q 819 25 488 141 
L 488 750 
Q 750 597 1062 519 
Q 1375 441 1716 441 
Q 2309 441 2620 675 
Q 2931 909 2931 1356 
Q 2931 1769 2642 2001 
Q 2353 2234 1838 2234 
L 1294 2234 
L 1294 2753 
L 1863 2753 
Q 2328 2753 2575 2939 
Q 2822 3125 2822 3475 
Q 2822 3834 2567 4026 
Q 2313 4219 1838 4219 
Q 1578 4219 1281 4162 
Q 984 4106 628 3988 
L 628 4550 
Q 988 4650 1302 4700 
Q 1616 4750 1894 4750 
Q 2613 4750 3031 4423 
Q 3450 4097 3450 3541 
Q 3450 3153 3228 2886 
Q 3006 2619 2597 2516 
z
" id="DejaVuSans-33" transform="scale(0.015625)"/>
       </defs>
       <use xlink:href="#DejaVuSans-33"/>
       <use x="63.623047" xlink:href="#DejaVuSans-2e"/>
       <use x="95.410156" xlink:href="#DejaVuSans-30"/>
      </g>
     </g>
    </g>
    <g id="ytick_8">
     <g id="line2d_35">
      <path clip-path="url(#p9dfae787c9)" d="M 49.538 187.769333 
L 669.894791 187.769333 
" style="fill:none;stroke:#000000;stroke-dasharray:0.8,1.32;stroke-dashoffset:0;stroke-opacity:0.5;stroke-width:0.8;"/>
     </g>
     <g id="line2d_36">
      <g>
       <use style="stroke:#000000;stroke-width:0.8;" x="49.538" xlink:href="#mb06acda1bc" y="187.769333"/>
      </g>
     </g>
     <g id="text_19">
      <!-- 3.5 -->
      <g transform="translate(26.634875 191.568552)scale(0.1 -0.1)">
       <use xlink:href="#DejaVuSans-33"/>
       <use x="63.623047" xlink:href="#DejaVuSans-2e"/>
       <use x="95.410156" xlink:href="#DejaVuSans-35"/>
      </g>
     </g>
    </g>
    <g id="ytick_9">
     <g id="line2d_37">
      <path clip-path="url(#p9dfae787c9)" d="M 49.538 158.730667 
L 669.894791 158.730667 
" style="fill:none;stroke:#000000;stroke-dasharray:0.8,1.32;stroke-dashoffset:0;stroke-opacity:0.5;stroke-width:0.8;"/>
     </g>
     <g id="line2d_38">
      <g>
       <use style="stroke:#000000;stroke-width:0.8;" x="49.538" xlink:href="#mb06acda1bc" y="158.730667"/>
      </g>
     </g>
     <g id="text_20">
      <!-- 4.0 -->
      <g transform="translate(26.634875 162.529885)scale(0.1 -0.1)">
       <defs>
        <path d="M 2419 4116 
L 825 1625 
L 2419 1625 
L 2419 4116 
z
M 2253 4666 
L 3047 4666 
L 3047 1625 
L 3713 1625 
L 3713 1100 
L 3047 1100 
L 3047 0 
L 2419 0 
L 2419 1100 
L 313 1100 
L 313 1709 
L 2253 4666 
z
" id="DejaVuSans-34" transform="scale(0.015625)"/>
       </defs>
       <use xlink:href="#DejaVuSans-34"/>
       <use x="63.623047" xlink:href="#DejaVuSans-2e"/>
       <use x="95.410156" xlink:href="#DejaVuSans-30"/>
      </g>
     </g>
    </g>
    <g id="ytick_10">
     <g id="line2d_39">
      <path clip-path="url(#p9dfae787c9)" d="M 49.538 129.692 
L 669.894791 129.692 
" style="fill:none;stroke:#000000;stroke-dasharray:0.8,1.32;stroke-dashoffset:0;stroke-opacity:0.5;stroke-width:0.8;"/>
     </g>
     <g id="line2d_40">
      <g>
       <use style="stroke:#000000;stroke-width:0.8;" x="49.538" xlink:href="#mb06acda1bc" y="129.692"/>
      </g>
     </g>
     <g id="text_21">
      <!-- 4.5 -->
      <g transform="translate(26.634875 133.491219)scale(0.1 -0.1)">
       <use xlink:href="#DejaVuSans-34"/>
       <use x="63.623047" xlink:href="#DejaVuSans-2e"/>
       <use x="95.410156" xlink:href="#DejaVuSans-35"/>
      </g>
     </g>
    </g>
    <g id="ytick_11">
     <g id="line2d_41">
      <path clip-path="url(#p9dfae787c9)" d="M 49.538 100.653333 
L 669.894791 100.653333 
" style="fill:none;stroke:#000000;stroke-dasharray:0.8,1.32;stroke-dashoffset:0;stroke-opacity:0.5;stroke-width:0.8;"/>
     </g>
     <g id="line2d_42">
      <g>
       <use style="stroke:#000000;stroke-width:0.8;" x="49.538" xlink:href="#mb06acda1bc" y="100.653333"/>
      </g>
     </g>
     <g id="text_22">
      <!-- 5.0 -->
      <g transform="translate(26.634875 104.452552)scale(0.1 -0.1)">
       <use xlink:href="#DejaVuSans-35"/>
       <use x="63.623047" xlink:href="#DejaVuSans-2e"/>
       <use x="95.410156" xlink:href="#DejaVuSans-30"/>
      </g>
     </g>
    </g>
    <g id="ytick_12">
     <g id="line2d_43">
      <path clip-path="url(#p9dfae787c9)" d="M 49.538 71.614667 
L 669.894791 71.614667 
" style="fill:none;stroke:#000000;stroke-dasharray:0.8,1.32;stroke-dashoffset:0;stroke-opacity:0.5;stroke-width:0.8;"/>
     </g>
     <g id="line2d_44">
      <g>
       <use style="stroke:#000000;stroke-width:0.8;" x="49.538" xlink:href="#mb06acda1bc" y="71.614667"/>
      </g>
     </g>
     <g id="text_23">
      <!-- 5.5 -->
      <g transform="translate(26.634875 75.413885)scale(0.1 -0.1)">
       <use xlink:href="#DejaVuSans-35"/>
       <use x="63.623047" xlink:href="#DejaVuSans-2e"/>
       <use x="95.410156" xlink:href="#DejaVuSans-35"/>
      </g>
     </g>
    </g>
    <g id="ytick_13">
     <g id="line2d_45">
      <path clip-path="url(#p9dfae787c9)" d="M 49.538 42.576 
L 669.894791 42.576 
" style="fill:none;stroke:#000000;stroke-dasharray:0.8,1.32;stroke-dashoffset:0;stroke-opacity:0.5;stroke-width:0.8;"/>
     </g>
     <g id="line2d_46">
      <g>
       <use style="stroke:#000000;stroke-width:0.8;" x="49.538" xlink:href="#mb06acda1bc" y="42.576"/>
      </g>
     </g>
     <g id="text_24">
      <!-- 6.0 -->
      <g transform="translate(26.634875 46.375219)scale(0.1 -0.1)">
       <defs>
        <path d="M 2113 2584 
Q 1688 2584 1439 2293 
Q 1191 2003 1191 1497 
Q 1191 994 1439 701 
Q 1688 409 2113 409 
Q 2538 409 2786 701 
Q 3034 994 3034 1497 
Q 3034 2003 2786 2293 
Q 2538 2584 2113 2584 
z
M 3366 4563 
L 3366 3988 
Q 3128 4100 2886 4159 
Q 2644 4219 2406 4219 
Q 1781 4219 1451 3797 
Q 1122 3375 1075 2522 
Q 1259 2794 1537 2939 
Q 1816 3084 2150 3084 
Q 2853 3084 3261 2657 
Q 3669 2231 3669 1497 
Q 3669 778 3244 343 
Q 2819 -91 2113 -91 
Q 1303 -91 875 529 
Q 447 1150 447 2328 
Q 447 3434 972 4092 
Q 1497 4750 2381 4750 
Q 2619 4750 2861 4703 
Q 3103 4656 3366 4563 
z
" id="DejaVuSans-36" transform="scale(0.015625)"/>
       </defs>
       <use xlink:href="#DejaVuSans-36"/>
       <use x="63.623047" xlink:href="#DejaVuSans-2e"/>
       <use x="95.410156" xlink:href="#DejaVuSans-30"/>
      </g>
     </g>
    </g>
    <g id="text_25">
     <!-- $R_\mathrm{eff}$ -->
     <g transform="translate(20.555187 225.058)rotate(-90)scale(0.1 -0.1)">
      <defs>
       <path d="M 1613 4147 
L 1294 2491 
L 2106 2491 
Q 2584 2491 2879 2755 
Q 3175 3019 3175 3444 
Q 3175 3784 2976 3965 
Q 2778 4147 2406 4147 
L 1613 4147 
z
M 2772 2241 
Q 2972 2194 3105 2009 
Q 3238 1825 3413 1275 
L 3809 0 
L 3144 0 
L 2778 1197 
Q 2638 1659 2453 1815 
Q 2269 1972 1888 1972 
L 1191 1972 
L 806 0 
L 172 0 
L 1081 4666 
L 2503 4666 
Q 3150 4666 3495 4373 
Q 3841 4081 3841 3531 
Q 3841 3044 3547 2687 
Q 3253 2331 2772 2241 
z
" id="DejaVuSans-Oblique-52" transform="scale(0.015625)"/>
       <path d="M 3597 1894 
L 3597 1613 
L 953 1613 
Q 991 1019 1311 708 
Q 1631 397 2203 397 
Q 2534 397 2845 478 
Q 3156 559 3463 722 
L 3463 178 
Q 3153 47 2828 -22 
Q 2503 -91 2169 -91 
Q 1331 -91 842 396 
Q 353 884 353 1716 
Q 353 2575 817 3079 
Q 1281 3584 2069 3584 
Q 2775 3584 3186 3129 
Q 3597 2675 3597 1894 
z
M 3022 2063 
Q 3016 2534 2758 2815 
Q 2500 3097 2075 3097 
Q 1594 3097 1305 2825 
Q 1016 2553 972 2059 
L 3022 2063 
z
" id="DejaVuSans-65" transform="scale(0.015625)"/>
       <path d="M 2375 4863 
L 2375 4384 
L 1825 4384 
Q 1516 4384 1395 4259 
Q 1275 4134 1275 3809 
L 1275 3500 
L 2222 3500 
L 2222 3053 
L 1275 3053 
L 1275 0 
L 697 0 
L 697 3053 
L 147 3053 
L 147 3500 
L 697 3500 
L 697 3744 
Q 697 4328 969 4595 
Q 1241 4863 1831 4863 
L 2375 4863 
z
" id="DejaVuSans-66" transform="scale(0.015625)"/>
      </defs>
      <use transform="translate(0 0.09375)" xlink:href="#DejaVuSans-Oblique-52"/>
      <use transform="translate(69.482422 -16.3125)scale(0.7)" xlink:href="#DejaVuSans-65"/>
      <use transform="translate(112.548828 -16.3125)scale(0.7)" xlink:href="#DejaVuSans-66"/>
      <use transform="translate(137.192383 -16.3125)scale(0.7)" xlink:href="#DejaVuSans-66"/>
     </g>
    </g>
   </g>
   <g id="PolyCollection_16">
    <path clip-path="url(#p9dfae787c9)" d="M 24.217315 16.686474 
L 24.217315 213.598175 
L 24.217315 204.352492 
L 36.877657 204.352492 
L 36.877657 199.905028 
L 49.538 199.905028 
L 49.538 202.852987 
L 62.198343 202.852987 
L 62.198343 211.377462 
L 74.858685 211.377462 
L 74.858685 219.691067 
L 87.519028 219.691067 
L 87.519028 224.231461 
L 100.179371 224.231461 
L 100.179371 225.64237 
L 112.839713 225.64237 
L 112.839713 226.407178 
L 125.500056 226.407178 
L 125.500056 229.503871 
L 138.160399 229.503871 
L 138.160399 236.460232 
L 150.820741 236.460232 
L 150.820741 247.281542 
L 163.481084 247.281542 
L 163.481084 260.611067 
L 176.141427 260.611067 
L 176.141427 274.749434 
L 188.801769 274.749434 
L 188.801769 288.311031 
L 201.462112 288.311031 
L 201.462112 300.484055 
L 214.122455 300.484055 
L 214.122455 310.829098 
L 226.782797 310.829098 
L 226.782797 319.132352 
L 239.44314 319.132352 
L 239.44314 325.306049 
L 252.103483 325.306049 
L 252.103483 329.513541 
L 264.763825 329.513541 
L 264.763825 332.276894 
L 277.424168 332.276894 
L 277.424168 334.259923 
L 290.084511 334.259923 
L 290.084511 335.965781 
L 302.744853 335.965781 
L 302.744853 337.549099 
L 315.405196 337.549099 
L 315.405196 338.381888 
L 328.065539 338.381888 
L 328.065539 337.446904 
L 340.725881 337.446904 
L 340.725881 334.722456 
L 353.386224 334.722456 
L 353.386224 331.473241 
L 366.046567 331.473241 
L 366.046567 329.002532 
L 378.706909 329.002532 
L 378.706909 180.381458 
L 378.706909 180.381458 
L 366.046567 180.381458 
L 366.046567 187.380187 
L 353.386224 187.380187 
L 353.386224 200.834995 
L 340.725881 200.834995 
L 340.725881 221.56963 
L 328.065539 221.56963 
L 328.065539 247.482466 
L 315.405196 247.482466 
L 315.405196 273.611648 
L 302.744853 273.611648 
L 302.744853 294.857572 
L 290.084511 294.857572 
L 290.084511 308.778927 
L 277.424168 308.778927 
L 277.424168 315.535284 
L 264.763825 315.535284 
L 264.763825 316.405465 
L 252.103483 316.405465 
L 252.103483 312.859953 
L 239.44314 312.859953 
L 239.44314 305.986033 
L 226.782797 305.986033 
L 226.782797 296.271832 
L 214.122455 296.271832 
L 214.122455 283.874271 
L 201.462112 283.874271 
L 201.462112 268.874494 
L 188.801769 268.874494 
L 188.801769 251.533416 
L 176.141427 251.533416 
L 176.141427 232.356403 
L 163.481084 232.356403 
L 163.481084 212.151891 
L 150.820741 212.151891 
L 150.820741 191.903651 
L 138.160399 191.903651 
L 138.160399 172.915022 
L 125.500056 172.915022 
L 125.500056 156.463615 
L 112.839713 156.463615 
L 112.839713 143.696 
L 100.179371 143.696 
L 100.179371 134.455553 
L 87.519028 134.455553 
L 87.519028 128.293736 
L 74.858685 128.293736 
L 74.858685 122.846186 
L 62.198343 122.846186 
L 62.198343 113.02123 
L 49.538 113.02123 
L 49.538 92.127118 
L 36.877657 92.127118 
L 36.877657 59.26858 
L 24.217315 59.26858 
L 24.217315 16.686474 
z
" style="fill:url(#he0381bdad5);fill-opacity:0.2;stroke:#0000ff;stroke-opacity:0.2;"/>
   </g>
   <g id="line2d_47">
    <path clip-path="url(#p9dfae787c9)" d="M 49.538 332.962667 
L 669.894791 332.962667 
" style="fill:none;stroke:#000000;stroke-linecap:square;"/>
   </g>
   <g id="patch_3">
    <path d="M 49.538 391.04 
L 49.538 42.576 
" style="fill:none;stroke:#000000;stroke-linecap:square;stroke-linejoin:miter;stroke-width:0.8;"/>
   </g>
   <g id="patch_4">
    <path d="M 669.894791 391.04 
L 669.894791 42.576 
" style="fill:none;stroke:#000000;stroke-linecap:square;stroke-linejoin:miter;stroke-width:0.8;"/>
   </g>
   <g id="patch_5">
    <path d="M 49.538 391.04 
L 669.894791 391.04 
" style="fill:none;stroke:#000000;stroke-linecap:square;stroke-linejoin:miter;stroke-width:0.8;"/>
   </g>
   <g id="patch_6">
    <path d="M 49.538 42.576 
L 669.894791 42.576 
" style="fill:none;stroke:#000000;stroke-linecap:square;stroke-linejoin:miter;stroke-width:0.8;"/>
   </g>
   <g id="text_26">
    <!-- $R_\mathrm{eff}$ in New South Wales with Sydney restriction levels and daily cases (non-isolating cases only) -->
    <g transform="translate(70.396395 23.11425)scale(0.12 -0.12)">
     <defs>
      <path id="DejaVuSans-20" transform="scale(0.015625)"/>
      <path d="M 603 3500 
L 1178 3500 
L 1178 0 
L 603 0 
L 603 3500 
z
M 603 4863 
L 1178 4863 
L 1178 4134 
L 603 4134 
L 603 4863 
z
" id="DejaVuSans-69" transform="scale(0.015625)"/>
      <path d="M 3513 2113 
L 3513 0 
L 2938 0 
L 2938 2094 
Q 2938 2591 2744 2837 
Q 2550 3084 2163 3084 
Q 1697 3084 1428 2787 
Q 1159 2491 1159 1978 
L 1159 0 
L 581 0 
L 581 3500 
L 1159 3500 
L 1159 2956 
Q 1366 3272 1645 3428 
Q 1925 3584 2291 3584 
Q 2894 3584 3203 3211 
Q 3513 2838 3513 2113 
z
" id="DejaVuSans-6e" transform="scale(0.015625)"/>
      <path d="M 628 4666 
L 1478 4666 
L 3547 763 
L 3547 4666 
L 4159 4666 
L 4159 0 
L 3309 0 
L 1241 3903 
L 1241 0 
L 628 0 
L 628 4666 
z
" id="DejaVuSans-4e" transform="scale(0.015625)"/>
      <path d="M 269 3500 
L 844 3500 
L 1563 769 
L 2278 3500 
L 2956 3500 
L 3675 769 
L 4391 3500 
L 4966 3500 
L 4050 0 
L 3372 0 
L 2619 2869 
L 1863 0 
L 1184 0 
L 269 3500 
z
" id="DejaVuSans-77" transform="scale(0.015625)"/>
      <path d="M 3425 4513 
L 3425 3897 
Q 3066 4069 2747 4153 
Q 2428 4238 2131 4238 
Q 1616 4238 1336 4038 
Q 1056 3838 1056 3469 
Q 1056 3159 1242 3001 
Q 1428 2844 1947 2747 
L 2328 2669 
Q 3034 2534 3370 2195 
Q 3706 1856 3706 1288 
Q 3706 609 3251 259 
Q 2797 -91 1919 -91 
Q 1588 -91 1214 -16 
Q 841 59 441 206 
L 441 856 
Q 825 641 1194 531 
Q 1563 422 1919 422 
Q 2459 422 2753 634 
Q 3047 847 3047 1241 
Q 3047 1584 2836 1778 
Q 2625 1972 2144 2069 
L 1759 2144 
Q 1053 2284 737 2584 
Q 422 2884 422 3419 
Q 422 4038 858 4394 
Q 1294 4750 2059 4750 
Q 2388 4750 2728 4690 
Q 3069 4631 3425 4513 
z
" id="DejaVuSans-53" transform="scale(0.015625)"/>
      <path d="M 1959 3097 
Q 1497 3097 1228 2736 
Q 959 2375 959 1747 
Q 959 1119 1226 758 
Q 1494 397 1959 397 
Q 2419 397 2687 759 
Q 2956 1122 2956 1747 
Q 2956 2369 2687 2733 
Q 2419 3097 1959 3097 
z
M 1959 3584 
Q 2709 3584 3137 3096 
Q 3566 2609 3566 1747 
Q 3566 888 3137 398 
Q 2709 -91 1959 -91 
Q 1206 -91 779 398 
Q 353 888 353 1747 
Q 353 2609 779 3096 
Q 1206 3584 1959 3584 
z
" id="DejaVuSans-6f" transform="scale(0.015625)"/>
      <path d="M 1172 4494 
L 1172 3500 
L 2356 3500 
L 2356 3053 
L 1172 3053 
L 1172 1153 
Q 1172 725 1289 603 
Q 1406 481 1766 481 
L 2356 481 
L 2356 0 
L 1766 0 
Q 1100 0 847 248 
Q 594 497 594 1153 
L 594 3053 
L 172 3053 
L 172 3500 
L 594 3500 
L 594 4494 
L 1172 4494 
z
" id="DejaVuSans-74" transform="scale(0.015625)"/>
      <path d="M 3513 2113 
L 3513 0 
L 2938 0 
L 2938 2094 
Q 2938 2591 2744 2837 
Q 2550 3084 2163 3084 
Q 1697 3084 1428 2787 
Q 1159 2491 1159 1978 
L 1159 0 
L 581 0 
L 581 4863 
L 1159 4863 
L 1159 2956 
Q 1366 3272 1645 3428 
Q 1925 3584 2291 3584 
Q 2894 3584 3203 3211 
Q 3513 2838 3513 2113 
z
" id="DejaVuSans-68" transform="scale(0.015625)"/>
      <path d="M 213 4666 
L 850 4666 
L 1831 722 
L 2809 4666 
L 3519 4666 
L 4500 722 
L 5478 4666 
L 6119 4666 
L 4947 0 
L 4153 0 
L 3169 4050 
L 2175 0 
L 1381 0 
L 213 4666 
z
" id="DejaVuSans-57" transform="scale(0.015625)"/>
      <path d="M 2194 1759 
Q 1497 1759 1228 1600 
Q 959 1441 959 1056 
Q 959 750 1161 570 
Q 1363 391 1709 391 
Q 2188 391 2477 730 
Q 2766 1069 2766 1631 
L 2766 1759 
L 2194 1759 
z
M 3341 1997 
L 3341 0 
L 2766 0 
L 2766 531 
Q 2569 213 2275 61 
Q 1981 -91 1556 -91 
Q 1019 -91 701 211 
Q 384 513 384 1019 
Q 384 1609 779 1909 
Q 1175 2209 1959 2209 
L 2766 2209 
L 2766 2266 
Q 2766 2663 2505 2880 
Q 2244 3097 1772 3097 
Q 1472 3097 1187 3025 
Q 903 2953 641 2809 
L 641 3341 
Q 956 3463 1253 3523 
Q 1550 3584 1831 3584 
Q 2591 3584 2966 3190 
Q 3341 2797 3341 1997 
z
" id="DejaVuSans-61" transform="scale(0.015625)"/>
      <path d="M 2834 3397 
L 2834 2853 
Q 2591 2978 2328 3040 
Q 2066 3103 1784 3103 
Q 1356 3103 1142 2972 
Q 928 2841 928 2578 
Q 928 2378 1081 2264 
Q 1234 2150 1697 2047 
L 1894 2003 
Q 2506 1872 2764 1633 
Q 3022 1394 3022 966 
Q 3022 478 2636 193 
Q 2250 -91 1575 -91 
Q 1294 -91 989 -36 
Q 684 19 347 128 
L 347 722 
Q 666 556 975 473 
Q 1284 391 1588 391 
Q 1994 391 2212 530 
Q 2431 669 2431 922 
Q 2431 1156 2273 1281 
Q 2116 1406 1581 1522 
L 1381 1569 
Q 847 1681 609 1914 
Q 372 2147 372 2553 
Q 372 3047 722 3315 
Q 1072 3584 1716 3584 
Q 2034 3584 2315 3537 
Q 2597 3491 2834 3397 
z
" id="DejaVuSans-73" transform="scale(0.015625)"/>
      <path d="M 2059 -325 
Q 1816 -950 1584 -1140 
Q 1353 -1331 966 -1331 
L 506 -1331 
L 506 -850 
L 844 -850 
Q 1081 -850 1212 -737 
Q 1344 -625 1503 -206 
L 1606 56 
L 191 3500 
L 800 3500 
L 1894 763 
L 2988 3500 
L 3597 3500 
L 2059 -325 
z
" id="DejaVuSans-79" transform="scale(0.015625)"/>
      <path d="M 2906 2969 
L 2906 4863 
L 3481 4863 
L 3481 0 
L 2906 0 
L 2906 525 
Q 2725 213 2448 61 
Q 2172 -91 1784 -91 
Q 1150 -91 751 415 
Q 353 922 353 1747 
Q 353 2572 751 3078 
Q 1150 3584 1784 3584 
Q 2172 3584 2448 3432 
Q 2725 3281 2906 2969 
z
M 947 1747 
Q 947 1113 1208 752 
Q 1469 391 1925 391 
Q 2381 391 2643 752 
Q 2906 1113 2906 1747 
Q 2906 2381 2643 2742 
Q 2381 3103 1925 3103 
Q 1469 3103 1208 2742 
Q 947 2381 947 1747 
z
" id="DejaVuSans-64" transform="scale(0.015625)"/>
      <path d="M 2631 2963 
Q 2534 3019 2420 3045 
Q 2306 3072 2169 3072 
Q 1681 3072 1420 2755 
Q 1159 2438 1159 1844 
L 1159 0 
L 581 0 
L 581 3500 
L 1159 3500 
L 1159 2956 
Q 1341 3275 1631 3429 
Q 1922 3584 2338 3584 
Q 2397 3584 2469 3576 
Q 2541 3569 2628 3553 
L 2631 2963 
z
" id="DejaVuSans-72" transform="scale(0.015625)"/>
      <path d="M 3122 3366 
L 3122 2828 
Q 2878 2963 2633 3030 
Q 2388 3097 2138 3097 
Q 1578 3097 1268 2742 
Q 959 2388 959 1747 
Q 959 1106 1268 751 
Q 1578 397 2138 397 
Q 2388 397 2633 464 
Q 2878 531 3122 666 
L 3122 134 
Q 2881 22 2623 -34 
Q 2366 -91 2075 -91 
Q 1284 -91 818 406 
Q 353 903 353 1747 
Q 353 2603 823 3093 
Q 1294 3584 2113 3584 
Q 2378 3584 2631 3529 
Q 2884 3475 3122 3366 
z
" id="DejaVuSans-63" transform="scale(0.015625)"/>
      <path d="M 191 3500 
L 800 3500 
L 1894 563 
L 2988 3500 
L 3597 3500 
L 2284 0 
L 1503 0 
L 191 3500 
z
" id="DejaVuSans-76" transform="scale(0.015625)"/>
      <path d="M 1984 4856 
Q 1566 4138 1362 3434 
Q 1159 2731 1159 2009 
Q 1159 1288 1364 580 
Q 1569 -128 1984 -844 
L 1484 -844 
Q 1016 -109 783 600 
Q 550 1309 550 2009 
Q 550 2706 781 3412 
Q 1013 4119 1484 4856 
L 1984 4856 
z
" id="DejaVuSans-28" transform="scale(0.015625)"/>
      <path d="M 513 4856 
L 1013 4856 
Q 1481 4119 1714 3412 
Q 1947 2706 1947 2009 
Q 1947 1309 1714 600 
Q 1481 -109 1013 -844 
L 513 -844 
Q 928 -128 1133 580 
Q 1338 1288 1338 2009 
Q 1338 2731 1133 3434 
Q 928 4138 513 4856 
z
" id="DejaVuSans-29" transform="scale(0.015625)"/>
     </defs>
     <use transform="translate(0 0.015625)" xlink:href="#DejaVuSans-Oblique-52"/>
     <use transform="translate(69.482422 -16.390625)scale(0.7)" xlink:href="#DejaVuSans-65"/>
     <use transform="translate(112.548828 -16.390625)scale(0.7)" xlink:href="#DejaVuSans-66"/>
     <use transform="translate(137.192383 -16.390625)scale(0.7)" xlink:href="#DejaVuSans-66"/>
     <use transform="translate(164.570312 0.015625)" xlink:href="#DejaVuSans-20"/>
     <use transform="translate(196.357422 0.015625)" xlink:href="#DejaVuSans-69"/>
     <use transform="translate(224.140625 0.015625)" xlink:href="#DejaVuSans-6e"/>
     <use transform="translate(287.519531 0.015625)" xlink:href="#DejaVuSans-20"/>
     <use transform="translate(319.306641 0.015625)" xlink:href="#DejaVuSans-4e"/>
     <use transform="translate(394.111328 0.015625)" xlink:href="#DejaVuSans-65"/>
     <use transform="translate(455.634766 0.015625)" xlink:href="#DejaVuSans-77"/>
     <use transform="translate(537.421875 0.015625)" xlink:href="#DejaVuSans-20"/>
     <use transform="translate(569.208984 0.015625)" xlink:href="#DejaVuSans-53"/>
     <use transform="translate(632.685547 0.015625)" xlink:href="#DejaVuSans-6f"/>
     <use transform="translate(693.867188 0.015625)" xlink:href="#DejaVuSans-75"/>
     <use transform="translate(757.246094 0.015625)" xlink:href="#DejaVuSans-74"/>
     <use transform="translate(796.455078 0.015625)" xlink:href="#DejaVuSans-68"/>
     <use transform="translate(859.833984 0.015625)" xlink:href="#DejaVuSans-20"/>
     <use transform="translate(891.621094 0.015625)" xlink:href="#DejaVuSans-57"/>
     <use transform="translate(990.498047 0.015625)" xlink:href="#DejaVuSans-61"/>
     <use transform="translate(1051.777344 0.015625)" xlink:href="#DejaVuSans-6c"/>
     <use transform="translate(1079.560547 0.015625)" xlink:href="#DejaVuSans-65"/>
     <use transform="translate(1141.083984 0.015625)" xlink:href="#DejaVuSans-73"/>
     <use transform="translate(1193.183594 0.015625)" xlink:href="#DejaVuSans-20"/>
     <use transform="translate(1224.970703 0.015625)" xlink:href="#DejaVuSans-77"/>
     <use transform="translate(1306.757812 0.015625)" xlink:href="#DejaVuSans-69"/>
     <use transform="translate(1334.541016 0.015625)" xlink:href="#DejaVuSans-74"/>
     <use transform="translate(1373.75 0.015625)" xlink:href="#DejaVuSans-68"/>
     <use transform="translate(1437.128906 0.015625)" xlink:href="#DejaVuSans-20"/>
     <use transform="translate(1468.916016 0.015625)" xlink:href="#DejaVuSans-53"/>
     <use transform="translate(1532.392578 0.015625)" xlink:href="#DejaVuSans-79"/>
     <use transform="translate(1591.572266 0.015625)" xlink:href="#DejaVuSans-64"/>
     <use transform="translate(1655.048828 0.015625)" xlink:href="#DejaVuSans-6e"/>
     <use transform="translate(1718.427734 0.015625)" xlink:href="#DejaVuSans-65"/>
     <use transform="translate(1779.951172 0.015625)" xlink:href="#DejaVuSans-79"/>
     <use transform="translate(1839.130859 0.015625)" xlink:href="#DejaVuSans-20"/>
     <use transform="translate(1870.917969 0.015625)" xlink:href="#DejaVuSans-72"/>
     <use transform="translate(1912.03125 0.015625)" xlink:href="#DejaVuSans-65"/>
     <use transform="translate(1973.554688 0.015625)" xlink:href="#DejaVuSans-73"/>
     <use transform="translate(2025.654297 0.015625)" xlink:href="#DejaVuSans-74"/>
     <use transform="translate(2064.863281 0.015625)" xlink:href="#DejaVuSans-72"/>
     <use transform="translate(2105.976562 0.015625)" xlink:href="#DejaVuSans-69"/>
     <use transform="translate(2133.759766 0.015625)" xlink:href="#DejaVuSans-63"/>
     <use transform="translate(2188.740234 0.015625)" xlink:href="#DejaVuSans-74"/>
     <use transform="translate(2227.949219 0.015625)" xlink:href="#DejaVuSans-69"/>
     <use transform="translate(2255.732422 0.015625)" xlink:href="#DejaVuSans-6f"/>
     <use transform="translate(2316.914062 0.015625)" xlink:href="#DejaVuSans-6e"/>
     <use transform="translate(2380.292969 0.015625)" xlink:href="#DejaVuSans-20"/>
     <use transform="translate(2412.080078 0.015625)" xlink:href="#DejaVuSans-6c"/>
     <use transform="translate(2439.863281 0.015625)" xlink:href="#DejaVuSans-65"/>
     <use transform="translate(2501.386719 0.015625)" xlink:href="#DejaVuSans-76"/>
     <use transform="translate(2560.566406 0.015625)" xlink:href="#DejaVuSans-65"/>
     <use transform="translate(2622.089844 0.015625)" xlink:href="#DejaVuSans-6c"/>
     <use transform="translate(2649.873047 0.015625)" xlink:href="#DejaVuSans-73"/>
     <use transform="translate(2701.972656 0.015625)" xlink:href="#DejaVuSans-20"/>
     <use transform="translate(2733.759766 0.015625)" xlink:href="#DejaVuSans-61"/>
     <use transform="translate(2795.039062 0.015625)" xlink:href="#DejaVuSans-6e"/>
     <use transform="translate(2858.417969 0.015625)" xlink:href="#DejaVuSans-64"/>
     <use transform="translate(2921.894531 0.015625)" xlink:href="#DejaVuSans-20"/>
     <use transform="translate(2953.681641 0.015625)" xlink:href="#DejaVuSans-64"/>
     <use transform="translate(3017.158203 0.015625)" xlink:href="#DejaVuSans-61"/>
     <use transform="translate(3078.4375 0.015625)" xlink:href="#DejaVuSans-69"/>
     <use transform="translate(3106.220703 0.015625)" xlink:href="#DejaVuSans-6c"/>
     <use transform="translate(3134.003906 0.015625)" xlink:href="#DejaVuSans-79"/>
     <use transform="translate(3193.183594 0.015625)" xlink:href="#DejaVuSans-20"/>
     <use transform="translate(3224.970703 0.015625)" xlink:href="#DejaVuSans-63"/>
     <use transform="translate(3279.951172 0.015625)" xlink:href="#DejaVuSans-61"/>
     <use transform="translate(3341.230469 0.015625)" xlink:href="#DejaVuSans-73"/>
     <use transform="translate(3393.330078 0.015625)" xlink:href="#DejaVuSans-65"/>
     <use transform="translate(3454.853516 0.015625)" xlink:href="#DejaVuSans-73"/>
     <use transform="translate(3506.953125 0.015625)" xlink:href="#DejaVuSans-20"/>
     <use transform="translate(3538.740234 0.015625)" xlink:href="#DejaVuSans-28"/>
     <use transform="translate(3577.753906 0.015625)" xlink:href="#DejaVuSans-6e"/>
     <use transform="translate(3641.132812 0.015625)" xlink:href="#DejaVuSans-6f"/>
     <use transform="translate(3702.314453 0.015625)" xlink:href="#DejaVuSans-6e"/>
     <use transform="translate(3765.693359 0.015625)" xlink:href="#DejaVuSans-2d"/>
     <use transform="translate(3801.777344 0.015625)" xlink:href="#DejaVuSans-69"/>
     <use transform="translate(3829.560547 0.015625)" xlink:href="#DejaVuSans-73"/>
     <use transform="translate(3881.660156 0.015625)" xlink:href="#DejaVuSans-6f"/>
     <use transform="translate(3942.841797 0.015625)" xlink:href="#DejaVuSans-6c"/>
     <use transform="translate(3970.625 0.015625)" xlink:href="#DejaVuSans-61"/>
     <use transform="translate(4031.904297 0.015625)" xlink:href="#DejaVuSans-74"/>
     <use transform="translate(4071.113281 0.015625)" xlink:href="#DejaVuSans-69"/>
     <use transform="translate(4098.896484 0.015625)" xlink:href="#DejaVuSans-6e"/>
     <use transform="translate(4162.275391 0.015625)" xlink:href="#DejaVuSans-67"/>
     <use transform="translate(4225.751953 0.015625)" xlink:href="#DejaVuSans-20"/>
     <use transform="translate(4257.539062 0.015625)" xlink:href="#DejaVuSans-63"/>
     <use transform="translate(4312.519531 0.015625)" xlink:href="#DejaVuSans-61"/>
     <use transform="translate(4373.798828 0.015625)" xlink:href="#DejaVuSans-73"/>
     <use transform="translate(4425.898438 0.015625)" xlink:href="#DejaVuSans-65"/>
     <use transform="translate(4487.421875 0.015625)" xlink:href="#DejaVuSans-73"/>
     <use transform="translate(4539.521484 0.015625)" xlink:href="#DejaVuSans-20"/>
     <use transform="translate(4571.308594 0.015625)" xlink:href="#DejaVuSans-6f"/>
     <use transform="translate(4632.490234 0.015625)" xlink:href="#DejaVuSans-6e"/>
     <use transform="translate(4695.869141 0.015625)" xlink:href="#DejaVuSans-6c"/>
     <use transform="translate(4723.652344 0.015625)" xlink:href="#DejaVuSans-79"/>
     <use transform="translate(4782.832031 0.015625)" xlink:href="#DejaVuSans-29"/>
    </g>
    <!-- Latest estimate: $R_\mathrm{eff}=2.35 \pm 1.28$ -->
    <g transform="translate(257.896395 36.576)scale(0.12 -0.12)">
     <defs>
      <path d="M 628 4666 
L 1259 4666 
L 1259 531 
L 3531 531 
L 3531 0 
L 628 0 
L 628 4666 
z
" id="DejaVuSans-4c" transform="scale(0.015625)"/>
      <path d="M 3328 2828 
Q 3544 3216 3844 3400 
Q 4144 3584 4550 3584 
Q 5097 3584 5394 3201 
Q 5691 2819 5691 2113 
L 5691 0 
L 5113 0 
L 5113 2094 
Q 5113 2597 4934 2840 
Q 4756 3084 4391 3084 
Q 3944 3084 3684 2787 
Q 3425 2491 3425 1978 
L 3425 0 
L 2847 0 
L 2847 2094 
Q 2847 2600 2669 2842 
Q 2491 3084 2119 3084 
Q 1678 3084 1418 2786 
Q 1159 2488 1159 1978 
L 1159 0 
L 581 0 
L 581 3500 
L 1159 3500 
L 1159 2956 
Q 1356 3278 1631 3431 
Q 1906 3584 2284 3584 
Q 2666 3584 2933 3390 
Q 3200 3197 3328 2828 
z
" id="DejaVuSans-6d" transform="scale(0.015625)"/>
      <path d="M 750 794 
L 1409 794 
L 1409 0 
L 750 0 
L 750 794 
z
M 750 3309 
L 1409 3309 
L 1409 2516 
L 750 2516 
L 750 3309 
z
" id="DejaVuSans-3a" transform="scale(0.015625)"/>
      <path d="M 678 2906 
L 4684 2906 
L 4684 2381 
L 678 2381 
L 678 2906 
z
M 678 1631 
L 4684 1631 
L 4684 1100 
L 678 1100 
L 678 1631 
z
" id="DejaVuSans-3d" transform="scale(0.015625)"/>
      <path d="M 2944 4013 
L 2944 2803 
L 4684 2803 
L 4684 2272 
L 2944 2272 
L 2944 1063 
L 2419 1063 
L 2419 2272 
L 678 2272 
L 678 2803 
L 2419 2803 
L 2419 4013 
L 2944 4013 
z
M 678 531 
L 4684 531 
L 4684 0 
L 678 0 
L 678 531 
z
" id="DejaVuSans-b1" transform="scale(0.015625)"/>
      <path d="M 2034 2216 
Q 1584 2216 1326 1975 
Q 1069 1734 1069 1313 
Q 1069 891 1326 650 
Q 1584 409 2034 409 
Q 2484 409 2743 651 
Q 3003 894 3003 1313 
Q 3003 1734 2745 1975 
Q 2488 2216 2034 2216 
z
M 1403 2484 
Q 997 2584 770 2862 
Q 544 3141 544 3541 
Q 544 4100 942 4425 
Q 1341 4750 2034 4750 
Q 2731 4750 3128 4425 
Q 3525 4100 3525 3541 
Q 3525 3141 3298 2862 
Q 3072 2584 2669 2484 
Q 3125 2378 3379 2068 
Q 3634 1759 3634 1313 
Q 3634 634 3220 271 
Q 2806 -91 2034 -91 
Q 1263 -91 848 271 
Q 434 634 434 1313 
Q 434 1759 690 2068 
Q 947 2378 1403 2484 
z
M 1172 3481 
Q 1172 3119 1398 2916 
Q 1625 2713 2034 2713 
Q 2441 2713 2670 2916 
Q 2900 3119 2900 3481 
Q 2900 3844 2670 4047 
Q 2441 4250 2034 4250 
Q 1625 4250 1398 4047 
Q 1172 3844 1172 3481 
z
" id="DejaVuSans-38" transform="scale(0.015625)"/>
     </defs>
     <use transform="translate(0 0.015625)" xlink:href="#DejaVuSans-4c"/>
     <use transform="translate(55.712891 0.015625)" xlink:href="#DejaVuSans-61"/>
     <use transform="translate(116.992188 0.015625)" xlink:href="#DejaVuSans-74"/>
     <use transform="translate(156.201172 0.015625)" xlink:href="#DejaVuSans-65"/>
     <use transform="translate(217.724609 0.015625)" xlink:href="#DejaVuSans-73"/>
     <use transform="translate(269.824219 0.015625)" xlink:href="#DejaVuSans-74"/>
     <use transform="translate(309.033203 0.015625)" xlink:href="#DejaVuSans-20"/>
     <use transform="translate(340.820312 0.015625)" xlink:href="#DejaVuSans-65"/>
     <use transform="translate(402.34375 0.015625)" xlink:href="#DejaVuSans-73"/>
     <use transform="translate(454.443359 0.015625)" xlink:href="#DejaVuSans-74"/>
     <use transform="translate(493.652344 0.015625)" xlink:href="#DejaVuSans-69"/>
     <use transform="translate(521.435547 0.015625)" xlink:href="#DejaVuSans-6d"/>
     <use transform="translate(618.847656 0.015625)" xlink:href="#DejaVuSans-61"/>
     <use transform="translate(680.126953 0.015625)" xlink:href="#DejaVuSans-74"/>
     <use transform="translate(719.335938 0.015625)" xlink:href="#DejaVuSans-65"/>
     <use transform="translate(780.859375 0.015625)" xlink:href="#DejaVuSans-3a"/>
     <use transform="translate(814.550781 0.015625)" xlink:href="#DejaVuSans-20"/>
     <use transform="translate(846.337891 0.015625)" xlink:href="#DejaVuSans-Oblique-52"/>
     <use transform="translate(915.820312 -16.390625)scale(0.7)" xlink:href="#DejaVuSans-65"/>
     <use transform="translate(958.886719 -16.390625)scale(0.7)" xlink:href="#DejaVuSans-66"/>
     <use transform="translate(983.530273 -16.390625)scale(0.7)" xlink:href="#DejaVuSans-66"/>
     <use transform="translate(1030.390625 0.015625)" xlink:href="#DejaVuSans-3d"/>
     <use transform="translate(1133.662109 0.015625)" xlink:href="#DejaVuSans-32"/>
     <use transform="translate(1197.285156 0.015625)" xlink:href="#DejaVuSans-2e"/>
     <use transform="translate(1229.072266 0.015625)" xlink:href="#DejaVuSans-33"/>
     <use transform="translate(1292.695312 0.015625)" xlink:href="#DejaVuSans-35"/>
     <use transform="translate(1375.800781 0.015625)" xlink:href="#DejaVuSans-b1"/>
     <use transform="translate(1479.072266 0.015625)" xlink:href="#DejaVuSans-31"/>
     <use transform="translate(1542.695312 0.015625)" xlink:href="#DejaVuSans-2e"/>
     <use transform="translate(1568.982422 0.015625)" xlink:href="#DejaVuSans-32"/>
     <use transform="translate(1632.605469 0.015625)" xlink:href="#DejaVuSans-38"/>
    </g>
   </g>
  </g>
  <g id="axes_2">
   <g id="PolyCollection_17">
    <defs>
     <path d="M 372.376738 -252.581427 
L 372.376738 -172.712112 
L 385.037081 -175.971673 
L 397.697423 -179.199575 
L 410.357766 -182.404934 
L 423.018109 -185.593695 
L 435.678451 -188.769891 
L 448.338794 -191.936352 
L 460.999137 -195.095121 
L 473.659479 -198.247709 
L 486.319822 -201.395256 
L 498.980165 -204.538638 
L 511.640507 -207.678542 
L 524.30085 -210.81551 
L 536.961193 -213.949977 
L 549.621535 -217.082299 
L 562.281878 -220.212763 
L 574.942221 -223.341612 
L 587.602563 -226.469045 
L 600.262906 -229.595231 
L 612.923249 -232.720313 
L 625.583591 -235.844412 
L 638.243934 -238.967635 
L 650.904277 -242.09007 
L 663.564619 -245.211796 
L 676.224962 -248.332881 
L 676.224962 -590.258054 
L 676.224962 -590.258054 
L 663.564619 -576.158415 
L 650.904277 -562.059416 
L 638.243934 -547.961126 
L 625.583591 -533.863624 
L 612.923249 -519.766998 
L 600.262906 -505.671355 
L 587.602563 -491.576816 
L 574.942221 -477.483525 
L 562.281878 -463.391648 
L 549.621535 -449.301388 
L 536.961193 -435.212985 
L 524.30085 -421.126727 
L 511.640507 -407.04297 
L 498.980165 -392.962149 
L 486.319822 -378.884807 
L 473.659479 -364.811629 
L 460.999137 -350.743492 
L 448.338794 -336.681536 
L 435.678451 -322.627272 
L 423.018109 -308.582743 
L 410.357766 -294.550779 
L 397.697423 -280.535414 
L 385.037081 -266.542591 
L 372.376738 -252.581427 
z
" id="m3ada2ea1be"/>
    </defs>
    <g clip-path="url(#p9dfae787c9)">
     <use style="fill:#ff00ff;fill-opacity:0.3;" x="0" xlink:href="#m3ada2ea1be" y="432"/>
    </g>
   </g>
   <g id="matplotlib.axis_3">
    <g id="ytick_14">
     <g id="line2d_48">
      <defs>
       <path d="M 0 0 
L 3.5 0 
" id="m62452294fa" style="stroke:#000000;stroke-width:0.8;"/>
      </defs>
      <g>
       <use style="stroke:#000000;stroke-width:0.8;" x="669.894791" xlink:href="#m62452294fa" y="391.04"/>
      </g>
     </g>
     <g id="text_27">
      <!-- 1 -->
      <g transform="translate(676.894791 394.839219)scale(0.1 -0.1)">
       <use xlink:href="#DejaVuSans-31"/>
      </g>
     </g>
    </g>
    <g id="ytick_15">
     <g id="line2d_49">
      <g>
       <use style="stroke:#000000;stroke-width:0.8;" x="669.894791" xlink:href="#m62452294fa" y="274.885333"/>
      </g>
     </g>
     <g id="text_28">
      <!-- 10 -->
      <g transform="translate(676.894791 278.684552)scale(0.1 -0.1)">
       <use xlink:href="#DejaVuSans-31"/>
       <use x="63.623047" xlink:href="#DejaVuSans-30"/>
      </g>
     </g>
    </g>
    <g id="ytick_16">
     <g id="line2d_50">
      <g>
       <use style="stroke:#000000;stroke-width:0.8;" x="669.894791" xlink:href="#m62452294fa" y="158.730667"/>
      </g>
     </g>
     <g id="text_29">
      <!-- 100 -->
      <g transform="translate(676.894791 162.529885)scale(0.1 -0.1)">
       <use xlink:href="#DejaVuSans-31"/>
       <use x="63.623047" xlink:href="#DejaVuSans-30"/>
       <use x="127.246094" xlink:href="#DejaVuSans-30"/>
      </g>
     </g>
    </g>
    <g id="ytick_17">
     <g id="line2d_51">
      <g>
       <use style="stroke:#000000;stroke-width:0.8;" x="669.894791" xlink:href="#m62452294fa" y="42.576"/>
      </g>
     </g>
     <g id="text_30">
      <!-- 1000 -->
      <g transform="translate(676.894791 46.375219)scale(0.1 -0.1)">
       <use xlink:href="#DejaVuSans-31"/>
       <use x="63.623047" xlink:href="#DejaVuSans-30"/>
       <use x="127.246094" xlink:href="#DejaVuSans-30"/>
       <use x="190.869141" xlink:href="#DejaVuSans-30"/>
      </g>
     </g>
    </g>
    <g id="ytick_18">
     <g id="line2d_52">
      <defs>
       <path d="M 0 0 
L 2 0 
" id="m702ba22eaa" style="stroke:#000000;stroke-width:0.6;"/>
      </defs>
      <g>
       <use style="stroke:#000000;stroke-width:0.6;" x="669.894791" xlink:href="#m702ba22eaa" y="356.073961"/>
      </g>
     </g>
     <g id="text_31">
      <!-- 2 -->
      <g transform="translate(675.294791 358.710619)scale(0.0694 -0.0694)">
       <use xlink:href="#DejaVuSans-32"/>
      </g>
     </g>
    </g>
    <g id="ytick_19">
     <g id="line2d_53">
      <g>
       <use style="stroke:#000000;stroke-width:0.6;" x="669.894791" xlink:href="#m702ba22eaa" y="335.62014"/>
      </g>
     </g>
    </g>
    <g id="ytick_20">
     <g id="line2d_54">
      <g>
       <use style="stroke:#000000;stroke-width:0.6;" x="669.894791" xlink:href="#m702ba22eaa" y="321.107922"/>
      </g>
     </g>
     <g id="text_32">
      <!-- 4 -->
      <g transform="translate(675.294791 323.74458)scale(0.0694 -0.0694)">
       <use xlink:href="#DejaVuSans-34"/>
      </g>
     </g>
    </g>
    <g id="ytick_21">
     <g id="line2d_55">
      <g>
       <use style="stroke:#000000;stroke-width:0.6;" x="669.894791" xlink:href="#m702ba22eaa" y="309.851372"/>
      </g>
     </g>
    </g>
    <g id="ytick_22">
     <g id="line2d_56">
      <g>
       <use style="stroke:#000000;stroke-width:0.6;" x="669.894791" xlink:href="#m702ba22eaa" y="300.654101"/>
      </g>
     </g>
     <g id="text_33">
      <!-- 6 -->
      <g transform="translate(675.294791 303.290759)scale(0.0694 -0.0694)">
       <use xlink:href="#DejaVuSans-36"/>
      </g>
     </g>
    </g>
    <g id="ytick_23">
     <g id="line2d_57">
      <g>
       <use style="stroke:#000000;stroke-width:0.6;" x="669.894791" xlink:href="#m702ba22eaa" y="292.877919"/>
      </g>
     </g>
    </g>
    <g id="ytick_24">
     <g id="line2d_58">
      <g>
       <use style="stroke:#000000;stroke-width:0.6;" x="669.894791" xlink:href="#m702ba22eaa" y="286.141884"/>
      </g>
     </g>
     <g id="text_34">
      <!-- 8 -->
      <g transform="translate(675.294791 288.778541)scale(0.0694 -0.0694)">
       <use xlink:href="#DejaVuSans-38"/>
      </g>
     </g>
    </g>
    <g id="ytick_25">
     <g id="line2d_59">
      <g>
       <use style="stroke:#000000;stroke-width:0.6;" x="669.894791" xlink:href="#m702ba22eaa" y="280.200279"/>
      </g>
     </g>
    </g>
    <g id="ytick_26">
     <g id="line2d_60">
      <g>
       <use style="stroke:#000000;stroke-width:0.6;" x="669.894791" xlink:href="#m702ba22eaa" y="239.919295"/>
      </g>
     </g>
     <g id="text_35">
      <!-- 20 -->
      <g transform="translate(675.294791 242.555952)scale(0.0694 -0.0694)">
       <use xlink:href="#DejaVuSans-32"/>
       <use x="63.623047" xlink:href="#DejaVuSans-30"/>
      </g>
     </g>
    </g>
    <g id="ytick_27">
     <g id="line2d_61">
      <g>
       <use style="stroke:#000000;stroke-width:0.6;" x="669.894791" xlink:href="#m702ba22eaa" y="219.465473"/>
      </g>
     </g>
    </g>
    <g id="ytick_28">
     <g id="line2d_62">
      <g>
       <use style="stroke:#000000;stroke-width:0.6;" x="669.894791" xlink:href="#m702ba22eaa" y="204.953256"/>
      </g>
     </g>
     <g id="text_36">
      <!-- 40 -->
      <g transform="translate(675.294791 207.589914)scale(0.0694 -0.0694)">
       <use xlink:href="#DejaVuSans-34"/>
       <use x="63.623047" xlink:href="#DejaVuSans-30"/>
      </g>
     </g>
    </g>
    <g id="ytick_29">
     <g id="line2d_63">
      <g>
       <use style="stroke:#000000;stroke-width:0.6;" x="669.894791" xlink:href="#m702ba22eaa" y="193.696705"/>
      </g>
     </g>
    </g>
    <g id="ytick_30">
     <g id="line2d_64">
      <g>
       <use style="stroke:#000000;stroke-width:0.6;" x="669.894791" xlink:href="#m702ba22eaa" y="184.499434"/>
      </g>
     </g>
     <g id="text_37">
      <!-- 60 -->
      <g transform="translate(675.294791 187.136092)scale(0.0694 -0.0694)">
       <use xlink:href="#DejaVuSans-36"/>
       <use x="63.623047" xlink:href="#DejaVuSans-30"/>
      </g>
     </g>
    </g>
    <g id="ytick_31">
     <g id="line2d_65">
      <g>
       <use style="stroke:#000000;stroke-width:0.6;" x="669.894791" xlink:href="#m702ba22eaa" y="176.723252"/>
      </g>
     </g>
    </g>
    <g id="ytick_32">
     <g id="line2d_66">
      <g>
       <use style="stroke:#000000;stroke-width:0.6;" x="669.894791" xlink:href="#m702ba22eaa" y="169.987217"/>
      </g>
     </g>
     <g id="text_38">
      <!-- 80 -->
      <g transform="translate(675.294791 172.623875)scale(0.0694 -0.0694)">
       <use xlink:href="#DejaVuSans-38"/>
       <use x="63.623047" xlink:href="#DejaVuSans-30"/>
      </g>
     </g>
    </g>
    <g id="ytick_33">
     <g id="line2d_67">
      <g>
       <use style="stroke:#000000;stroke-width:0.6;" x="669.894791" xlink:href="#m702ba22eaa" y="164.045613"/>
      </g>
     </g>
    </g>
    <g id="ytick_34">
     <g id="line2d_68">
      <g>
       <use style="stroke:#000000;stroke-width:0.6;" x="669.894791" xlink:href="#m702ba22eaa" y="123.764628"/>
      </g>
     </g>
     <g id="text_39">
      <!-- 200 -->
      <g transform="translate(675.294791 126.401286)scale(0.0694 -0.0694)">
       <use xlink:href="#DejaVuSans-32"/>
       <use x="63.623047" xlink:href="#DejaVuSans-30"/>
       <use x="127.246094" xlink:href="#DejaVuSans-30"/>
      </g>
     </g>
    </g>
    <g id="ytick_35">
     <g id="line2d_69">
      <g>
       <use style="stroke:#000000;stroke-width:0.6;" x="669.894791" xlink:href="#m702ba22eaa" y="103.310806"/>
      </g>
     </g>
    </g>
    <g id="ytick_36">
     <g id="line2d_70">
      <g>
       <use style="stroke:#000000;stroke-width:0.6;" x="669.894791" xlink:href="#m702ba22eaa" y="88.798589"/>
      </g>
     </g>
     <g id="text_40">
      <!-- 400 -->
      <g transform="translate(675.294791 91.435247)scale(0.0694 -0.0694)">
       <use xlink:href="#DejaVuSans-34"/>
       <use x="63.623047" xlink:href="#DejaVuSans-30"/>
       <use x="127.246094" xlink:href="#DejaVuSans-30"/>
      </g>
     </g>
    </g>
    <g id="ytick_37">
     <g id="line2d_71">
      <g>
       <use style="stroke:#000000;stroke-width:0.6;" x="669.894791" xlink:href="#m702ba22eaa" y="77.542039"/>
      </g>
     </g>
    </g>
    <g id="ytick_38">
     <g id="line2d_72">
      <g>
       <use style="stroke:#000000;stroke-width:0.6;" x="669.894791" xlink:href="#m702ba22eaa" y="68.344768"/>
      </g>
     </g>
     <g id="text_41">
      <!-- 600 -->
      <g transform="translate(675.294791 70.981425)scale(0.0694 -0.0694)">
       <use xlink:href="#DejaVuSans-36"/>
       <use x="63.623047" xlink:href="#DejaVuSans-30"/>
       <use x="127.246094" xlink:href="#DejaVuSans-30"/>
      </g>
     </g>
    </g>
    <g id="ytick_39">
     <g id="line2d_73">
      <g>
       <use style="stroke:#000000;stroke-width:0.6;" x="669.894791" xlink:href="#m702ba22eaa" y="60.568586"/>
      </g>
     </g>
    </g>
    <g id="ytick_40">
     <g id="line2d_74">
      <g>
       <use style="stroke:#000000;stroke-width:0.6;" x="669.894791" xlink:href="#m702ba22eaa" y="53.83255"/>
      </g>
     </g>
     <g id="text_42">
      <!-- 800 -->
      <g transform="translate(675.294791 56.469208)scale(0.0694 -0.0694)">
       <use xlink:href="#DejaVuSans-38"/>
       <use x="63.623047" xlink:href="#DejaVuSans-30"/>
       <use x="127.246094" xlink:href="#DejaVuSans-30"/>
      </g>
     </g>
    </g>
    <g id="ytick_41">
     <g id="line2d_75">
      <g>
       <use style="stroke:#000000;stroke-width:0.6;" x="669.894791" xlink:href="#m702ba22eaa" y="47.890946"/>
      </g>
     </g>
    </g>
    <g id="text_43">
     <!-- Daily confirmed cases -->
     <g transform="translate(713.943228 271.952531)rotate(-90)scale(0.1 -0.1)">
      <defs>
       <path d="M 1259 4147 
L 1259 519 
L 2022 519 
Q 2988 519 3436 956 
Q 3884 1394 3884 2338 
Q 3884 3275 3436 3711 
Q 2988 4147 2022 4147 
L 1259 4147 
z
M 628 4666 
L 1925 4666 
Q 3281 4666 3915 4102 
Q 4550 3538 4550 2338 
Q 4550 1131 3912 565 
Q 3275 0 1925 0 
L 628 0 
L 628 4666 
z
" id="DejaVuSans-44" transform="scale(0.015625)"/>
      </defs>
      <use xlink:href="#DejaVuSans-44"/>
      <use x="77.001953" xlink:href="#DejaVuSans-61"/>
      <use x="138.28125" xlink:href="#DejaVuSans-69"/>
      <use x="166.064453" xlink:href="#DejaVuSans-6c"/>
      <use x="193.847656" xlink:href="#DejaVuSans-79"/>
      <use x="253.027344" xlink:href="#DejaVuSans-20"/>
      <use x="284.814453" xlink:href="#DejaVuSans-63"/>
      <use x="339.794922" xlink:href="#DejaVuSans-6f"/>
      <use x="400.976562" xlink:href="#DejaVuSans-6e"/>
      <use x="464.355469" xlink:href="#DejaVuSans-66"/>
      <use x="499.560547" xlink:href="#DejaVuSans-69"/>
      <use x="527.34375" xlink:href="#DejaVuSans-72"/>
      <use x="566.707031" xlink:href="#DejaVuSans-6d"/>
      <use x="664.119141" xlink:href="#DejaVuSans-65"/>
      <use x="725.642578" xlink:href="#DejaVuSans-64"/>
      <use x="789.119141" xlink:href="#DejaVuSans-20"/>
      <use x="820.90625" xlink:href="#DejaVuSans-63"/>
      <use x="875.886719" xlink:href="#DejaVuSans-61"/>
      <use x="937.166016" xlink:href="#DejaVuSans-73"/>
      <use x="989.265625" xlink:href="#DejaVuSans-65"/>
      <use x="1050.789062" xlink:href="#DejaVuSans-73"/>
     </g>
    </g>
   </g>
   <g id="line2d_76">
    <path clip-path="url(#p9dfae787c9)" d="M 87.519028 433 
L 87.519028 320.856324 
L 100.179371 320.856324 
L 100.179371 390.04105 
L 112.839713 390.04105 
L 112.839713 355.572013 
L 125.500056 355.572013 
L 125.500056 390.04105 
L 138.160399 390.04105 
L 138.160399 433 
M 150.820741 433 
L 150.820741 355.572013 
L 163.481084 355.572013 
L 163.481084 265.604057 
L 176.141427 265.604057 
L 176.141427 335.284954 
L 188.801769 335.284954 
L 188.801769 280.088303 
L 201.462112 280.088303 
L 201.462112 265.604057 
L 214.122455 265.604057 
L 214.122455 242.453729 
L 226.782797 242.453729 
L 226.782797 261.572733 
L 239.44314 261.572733 
L 239.44314 265.604057 
L 252.103483 265.604057 
L 252.103483 269.985744 
L 264.763825 269.985744 
L 264.763825 254.364296 
L 277.424168 254.364296 
L 277.424168 254.364296 
L 290.084511 254.364296 
L 290.084511 265.604057 
L 302.744853 265.604057 
L 302.744853 335.284954 
L 315.405196 335.284954 
L 315.405196 269.985744 
L 328.065539 269.985744 
L 328.065539 292.733995 
L 340.725881 292.733995 
L 340.725881 257.839867 
L 353.386224 257.839867 
L 353.386224 239.868874 
L 366.046567 239.868874 
L 366.046567 221.14087 
L 378.706909 221.14087 
" style="fill:none;stroke:#800080;stroke-linecap:square;stroke-width:1.5;"/>
   </g>
   <g id="line2d_77">
    <path clip-path="url(#p9dfae787c9)" d="M 30.467183 433 
L 30.547486 432.904269 
L 43.207829 418.380247 
L 55.868171 404.359426 
L 68.528514 390.743728 
L 81.188857 377.442896 
L 93.849199 364.393919 
L 106.509542 351.602 
L 119.169885 339.146413 
L 131.830227 327.197363 
L 144.49057 315.962461 
L 157.150913 305.655119 
L 169.811255 296.454967 
L 182.471598 288.490031 
L 195.131941 281.824098 
L 207.792283 276.457343 
L 220.452626 272.323411 
L 233.112969 269.285809 
L 245.773311 267.12379 
L 258.433654 265.520483 
L 271.093997 264.058438 
L 283.754339 262.243946 
L 296.414682 259.579874 
L 309.075025 255.682784 
L 321.735367 250.393171 
L 334.39571 243.809716 
L 347.056053 236.217382 
L 359.716395 227.963593 
L 372.376738 219.35323 
" style="fill:none;stroke:#ff00ff;stroke-linecap:square;stroke-width:1.5;"/>
   </g>
   <g id="line2d_78">
    <path clip-path="url(#p9dfae787c9)" d="M 372.376738 219.35323 
L 385.037081 210.742868 
L 397.697423 202.132506 
L 410.357766 193.522143 
L 423.018109 184.911781 
L 435.678451 176.301418 
L 448.338794 167.691056 
L 460.999137 159.080693 
L 473.659479 150.470331 
L 486.319822 141.859969 
L 498.980165 133.249606 
L 511.640507 124.639244 
L 524.30085 116.028881 
L 536.961193 107.418519 
L 549.621535 98.808157 
L 562.281878 90.197794 
L 574.942221 81.587432 
L 587.602563 72.977069 
L 600.262906 64.366707 
L 612.923249 55.756345 
L 625.583591 47.145982 
L 638.243934 38.53562 
L 650.904277 29.925257 
L 663.564619 21.314895 
L 676.224962 12.704532 
" style="fill:none;stroke:#ff00ff;stroke-dasharray:5.55,2.4;stroke-dashoffset:0;stroke-width:1.5;"/>
   </g>
   <g id="patch_7">
    <path d="M 49.538 391.04 
L 49.538 42.576 
" style="fill:none;stroke:#000000;stroke-linecap:square;stroke-linejoin:miter;stroke-width:0.8;"/>
   </g>
   <g id="patch_8">
    <path d="M 669.894791 391.04 
L 669.894791 42.576 
" style="fill:none;stroke:#000000;stroke-linecap:square;stroke-linejoin:miter;stroke-width:0.8;"/>
   </g>
   <g id="patch_9">
    <path d="M 49.538 391.04 
L 669.894791 391.04 
" style="fill:none;stroke:#000000;stroke-linecap:square;stroke-linejoin:miter;stroke-width:0.8;"/>
   </g>
   <g id="patch_10">
    <path d="M 49.538 42.576 
L 669.894791 42.576 
" style="fill:none;stroke:#000000;stroke-linecap:square;stroke-linejoin:miter;stroke-width:0.8;"/>
   </g>
   <g id="legend_1">
    <g id="patch_11">
     <path d="M 56.538 123.9885 
L 398.827063 123.9885 
Q 400.827063 123.9885 400.827063 121.9885 
L 400.827063 49.576 
Q 400.827063 47.576 398.827063 47.576 
L 56.538 47.576 
Q 54.538 47.576 54.538 49.576 
L 54.538 121.9885 
Q 54.538 123.9885 56.538 123.9885 
z
" style="fill:#ffffff;opacity:0.8;stroke:#cccccc;stroke-linejoin:miter;"/>
    </g>
    <g id="patch_12">
     <path d="M 58.538 59.174437 
L 78.538 59.174437 
L 78.538 52.174437 
L 58.538 52.174437 
z
" style="fill:#1f77b4;stroke:#1f77b4;stroke-linejoin:miter;"/>
    </g>
    <g id="text_44">
     <!-- $R_\mathrm{eff}$ -->
     <g transform="translate(86.538 59.174437)scale(0.1 -0.1)">
      <use transform="translate(0 0.09375)" xlink:href="#DejaVuSans-Oblique-52"/>
      <use transform="translate(69.482422 -16.3125)scale(0.7)" xlink:href="#DejaVuSans-65"/>
      <use transform="translate(112.548828 -16.3125)scale(0.7)" xlink:href="#DejaVuSans-66"/>
      <use transform="translate(137.192383 -16.3125)scale(0.7)" xlink:href="#DejaVuSans-66"/>
     </g>
    </g>
    <g id="patch_13">
     <path d="M 58.538 73.854125 
L 78.538 73.854125 
L 78.538 66.854125 
L 58.538 66.854125 
z
" style="fill:url(#he0381bdad5);opacity:0.2;stroke:#0000ff;stroke-linejoin:miter;"/>
    </g>
    <g id="text_45">
     <!-- $R_\mathrm{eff}$ uncertainty -->
     <g transform="translate(86.538 73.854125)scale(0.1 -0.1)">
      <use transform="translate(0 0.015625)" xlink:href="#DejaVuSans-Oblique-52"/>
      <use transform="translate(69.482422 -16.390625)scale(0.7)" xlink:href="#DejaVuSans-65"/>
      <use transform="translate(112.548828 -16.390625)scale(0.7)" xlink:href="#DejaVuSans-66"/>
      <use transform="translate(137.192383 -16.390625)scale(0.7)" xlink:href="#DejaVuSans-66"/>
      <use transform="translate(164.570312 0.015625)" xlink:href="#DejaVuSans-20"/>
      <use transform="translate(196.357422 0.015625)" xlink:href="#DejaVuSans-75"/>
      <use transform="translate(259.736328 0.015625)" xlink:href="#DejaVuSans-6e"/>
      <use transform="translate(323.115234 0.015625)" xlink:href="#DejaVuSans-63"/>
      <use transform="translate(378.095703 0.015625)" xlink:href="#DejaVuSans-65"/>
      <use transform="translate(439.619141 0.015625)" xlink:href="#DejaVuSans-72"/>
      <use transform="translate(480.732422 0.015625)" xlink:href="#DejaVuSans-74"/>
      <use transform="translate(519.941406 0.015625)" xlink:href="#DejaVuSans-61"/>
      <use transform="translate(581.220703 0.015625)" xlink:href="#DejaVuSans-69"/>
      <use transform="translate(609.003906 0.015625)" xlink:href="#DejaVuSans-6e"/>
      <use transform="translate(672.382812 0.015625)" xlink:href="#DejaVuSans-74"/>
      <use transform="translate(711.591797 0.015625)" xlink:href="#DejaVuSans-79"/>
     </g>
    </g>
    <g id="line2d_79">
     <path d="M 58.538 85.052562 
L 78.538 85.052562 
" style="fill:none;stroke:#800080;stroke-linecap:square;stroke-width:1.5;"/>
    </g>
    <g id="line2d_80"/>
    <g id="text_46">
     <!-- Daily cases -->
     <g transform="translate(86.538 88.552562)scale(0.1 -0.1)">
      <use xlink:href="#DejaVuSans-44"/>
      <use x="77.001953" xlink:href="#DejaVuSans-61"/>
      <use x="138.28125" xlink:href="#DejaVuSans-69"/>
      <use x="166.064453" xlink:href="#DejaVuSans-6c"/>
      <use x="193.847656" xlink:href="#DejaVuSans-79"/>
      <use x="253.027344" xlink:href="#DejaVuSans-20"/>
      <use x="284.814453" xlink:href="#DejaVuSans-63"/>
      <use x="339.794922" xlink:href="#DejaVuSans-61"/>
      <use x="401.074219" xlink:href="#DejaVuSans-73"/>
      <use x="453.173828" xlink:href="#DejaVuSans-65"/>
      <use x="514.697266" xlink:href="#DejaVuSans-73"/>
     </g>
    </g>
    <g id="line2d_81">
     <path d="M 58.538 99.730687 
L 78.538 99.730687 
" style="fill:none;stroke:#ff00ff;stroke-linecap:square;stroke-width:1.5;"/>
    </g>
    <g id="line2d_82"/>
    <g id="text_47">
     <!-- Daily cases (smoothed) -->
     <g transform="translate(86.538 103.230687)scale(0.1 -0.1)">
      <use xlink:href="#DejaVuSans-44"/>
      <use x="77.001953" xlink:href="#DejaVuSans-61"/>
      <use x="138.28125" xlink:href="#DejaVuSans-69"/>
      <use x="166.064453" xlink:href="#DejaVuSans-6c"/>
      <use x="193.847656" xlink:href="#DejaVuSans-79"/>
      <use x="253.027344" xlink:href="#DejaVuSans-20"/>
      <use x="284.814453" xlink:href="#DejaVuSans-63"/>
      <use x="339.794922" xlink:href="#DejaVuSans-61"/>
      <use x="401.074219" xlink:href="#DejaVuSans-73"/>
      <use x="453.173828" xlink:href="#DejaVuSans-65"/>
      <use x="514.697266" xlink:href="#DejaVuSans-73"/>
      <use x="566.796875" xlink:href="#DejaVuSans-20"/>
      <use x="598.583984" xlink:href="#DejaVuSans-28"/>
      <use x="637.597656" xlink:href="#DejaVuSans-73"/>
      <use x="689.697266" xlink:href="#DejaVuSans-6d"/>
      <use x="787.109375" xlink:href="#DejaVuSans-6f"/>
      <use x="848.291016" xlink:href="#DejaVuSans-6f"/>
      <use x="909.472656" xlink:href="#DejaVuSans-74"/>
      <use x="948.681641" xlink:href="#DejaVuSans-68"/>
      <use x="1012.060547" xlink:href="#DejaVuSans-65"/>
      <use x="1073.583984" xlink:href="#DejaVuSans-64"/>
      <use x="1137.060547" xlink:href="#DejaVuSans-29"/>
     </g>
    </g>
    <g id="line2d_83">
     <path d="M 58.538 114.408812 
L 78.538 114.408812 
" style="fill:none;stroke:#ff00ff;stroke-dasharray:5.55,2.4;stroke-dashoffset:0;stroke-width:1.5;"/>
    </g>
    <g id="line2d_84"/>
    <g id="text_48">
     <!-- Daily cases (trend) -->
     <g transform="translate(86.538 117.908812)scale(0.1 -0.1)">
      <use xlink:href="#DejaVuSans-44"/>
      <use x="77.001953" xlink:href="#DejaVuSans-61"/>
      <use x="138.28125" xlink:href="#DejaVuSans-69"/>
      <use x="166.064453" xlink:href="#DejaVuSans-6c"/>
      <use x="193.847656" xlink:href="#DejaVuSans-79"/>
      <use x="253.027344" xlink:href="#DejaVuSans-20"/>
      <use x="284.814453" xlink:href="#DejaVuSans-63"/>
      <use x="339.794922" xlink:href="#DejaVuSans-61"/>
      <use x="401.074219" xlink:href="#DejaVuSans-73"/>
      <use x="453.173828" xlink:href="#DejaVuSans-65"/>
      <use x="514.697266" xlink:href="#DejaVuSans-73"/>
      <use x="566.796875" xlink:href="#DejaVuSans-20"/>
      <use x="598.583984" xlink:href="#DejaVuSans-28"/>
      <use x="637.597656" xlink:href="#DejaVuSans-74"/>
      <use x="676.806641" xlink:href="#DejaVuSans-72"/>
      <use x="715.669922" xlink:href="#DejaVuSans-65"/>
      <use x="777.193359" xlink:href="#DejaVuSans-6e"/>
      <use x="840.572266" xlink:href="#DejaVuSans-64"/>
      <use x="904.048828" xlink:href="#DejaVuSans-29"/>
     </g>
    </g>
    <g id="patch_14">
     <path d="M 224.145813 59.174437 
L 244.145813 59.174437 
L 244.145813 52.174437 
L 224.145813 52.174437 
z
" style="fill:#ff00ff;opacity:0.3;"/>
    </g>
    <g id="text_49">
     <!-- Smoothing/trend uncertainty -->
     <g transform="translate(252.145813 59.174437)scale(0.1 -0.1)">
      <defs>
       <path d="M 1625 4666 
L 2156 4666 
L 531 -594 
L 0 -594 
L 1625 4666 
z
" id="DejaVuSans-2f" transform="scale(0.015625)"/>
      </defs>
      <use xlink:href="#DejaVuSans-53"/>
      <use x="63.476562" xlink:href="#DejaVuSans-6d"/>
      <use x="160.888672" xlink:href="#DejaVuSans-6f"/>
      <use x="222.070312" xlink:href="#DejaVuSans-6f"/>
      <use x="283.251953" xlink:href="#DejaVuSans-74"/>
      <use x="322.460938" xlink:href="#DejaVuSans-68"/>
      <use x="385.839844" xlink:href="#DejaVuSans-69"/>
      <use x="413.623047" xlink:href="#DejaVuSans-6e"/>
      <use x="477.001953" xlink:href="#DejaVuSans-67"/>
      <use x="540.478516" xlink:href="#DejaVuSans-2f"/>
      <use x="574.169922" xlink:href="#DejaVuSans-74"/>
      <use x="613.378906" xlink:href="#DejaVuSans-72"/>
      <use x="652.242188" xlink:href="#DejaVuSans-65"/>
      <use x="713.765625" xlink:href="#DejaVuSans-6e"/>
      <use x="777.144531" xlink:href="#DejaVuSans-64"/>
      <use x="840.621094" xlink:href="#DejaVuSans-20"/>
      <use x="872.408203" xlink:href="#DejaVuSans-75"/>
      <use x="935.787109" xlink:href="#DejaVuSans-6e"/>
      <use x="999.166016" xlink:href="#DejaVuSans-63"/>
      <use x="1054.146484" xlink:href="#DejaVuSans-65"/>
      <use x="1115.669922" xlink:href="#DejaVuSans-72"/>
      <use x="1156.783203" xlink:href="#DejaVuSans-74"/>
      <use x="1195.992188" xlink:href="#DejaVuSans-61"/>
      <use x="1257.271484" xlink:href="#DejaVuSans-69"/>
      <use x="1285.054688" xlink:href="#DejaVuSans-6e"/>
      <use x="1348.433594" xlink:href="#DejaVuSans-74"/>
      <use x="1387.642578" xlink:href="#DejaVuSans-79"/>
     </g>
    </g>
    <g id="patch_15">
     <path d="M 224.145813 73.852562 
L 244.145813 73.852562 
L 244.145813 66.852562 
L 224.145813 66.852562 
z
" style="fill:#ffff00;opacity:0.5;"/>
    </g>
    <g id="text_50">
     <!-- Initial restrictions -->
     <g transform="translate(252.145813 73.852562)scale(0.1 -0.1)">
      <defs>
       <path d="M 628 4666 
L 1259 4666 
L 1259 0 
L 628 0 
L 628 4666 
z
" id="DejaVuSans-49" transform="scale(0.015625)"/>
      </defs>
      <use xlink:href="#DejaVuSans-49"/>
      <use x="29.492188" xlink:href="#DejaVuSans-6e"/>
      <use x="92.871094" xlink:href="#DejaVuSans-69"/>
      <use x="120.654297" xlink:href="#DejaVuSans-74"/>
      <use x="159.863281" xlink:href="#DejaVuSans-69"/>
      <use x="187.646484" xlink:href="#DejaVuSans-61"/>
      <use x="248.925781" xlink:href="#DejaVuSans-6c"/>
      <use x="276.708984" xlink:href="#DejaVuSans-20"/>
      <use x="308.496094" xlink:href="#DejaVuSans-72"/>
      <use x="347.359375" xlink:href="#DejaVuSans-65"/>
      <use x="408.882812" xlink:href="#DejaVuSans-73"/>
      <use x="460.982422" xlink:href="#DejaVuSans-74"/>
      <use x="500.191406" xlink:href="#DejaVuSans-72"/>
      <use x="541.304688" xlink:href="#DejaVuSans-69"/>
      <use x="569.087891" xlink:href="#DejaVuSans-63"/>
      <use x="624.068359" xlink:href="#DejaVuSans-74"/>
      <use x="663.277344" xlink:href="#DejaVuSans-69"/>
      <use x="691.060547" xlink:href="#DejaVuSans-6f"/>
      <use x="752.242188" xlink:href="#DejaVuSans-6e"/>
      <use x="815.621094" xlink:href="#DejaVuSans-73"/>
     </g>
    </g>
    <g id="patch_16">
     <path d="M 224.145813 88.530687 
L 244.145813 88.530687 
L 244.145813 81.530687 
L 224.145813 81.530687 
z
" style="fill:url(#h9ee7a6a75f);opacity:0.5;"/>
    </g>
    <g id="text_51">
     <!-- East Sydney LGA lockdown -->
     <g transform="translate(252.145813 88.530687)scale(0.1 -0.1)">
      <defs>
       <path d="M 628 4666 
L 3578 4666 
L 3578 4134 
L 1259 4134 
L 1259 2753 
L 3481 2753 
L 3481 2222 
L 1259 2222 
L 1259 531 
L 3634 531 
L 3634 0 
L 628 0 
L 628 4666 
z
" id="DejaVuSans-45" transform="scale(0.015625)"/>
       <path d="M 3809 666 
L 3809 1919 
L 2778 1919 
L 2778 2438 
L 4434 2438 
L 4434 434 
Q 4069 175 3628 42 
Q 3188 -91 2688 -91 
Q 1594 -91 976 548 
Q 359 1188 359 2328 
Q 359 3472 976 4111 
Q 1594 4750 2688 4750 
Q 3144 4750 3555 4637 
Q 3966 4525 4313 4306 
L 4313 3634 
Q 3963 3931 3569 4081 
Q 3175 4231 2741 4231 
Q 1884 4231 1454 3753 
Q 1025 3275 1025 2328 
Q 1025 1384 1454 906 
Q 1884 428 2741 428 
Q 3075 428 3337 486 
Q 3600 544 3809 666 
z
" id="DejaVuSans-47" transform="scale(0.015625)"/>
       <path d="M 581 4863 
L 1159 4863 
L 1159 1991 
L 2875 3500 
L 3609 3500 
L 1753 1863 
L 3688 0 
L 2938 0 
L 1159 1709 
L 1159 0 
L 581 0 
L 581 4863 
z
" id="DejaVuSans-6b" transform="scale(0.015625)"/>
      </defs>
      <use xlink:href="#DejaVuSans-45"/>
      <use x="63.183594" xlink:href="#DejaVuSans-61"/>
      <use x="124.462891" xlink:href="#DejaVuSans-73"/>
      <use x="176.5625" xlink:href="#DejaVuSans-74"/>
      <use x="215.771484" xlink:href="#DejaVuSans-20"/>
      <use x="247.558594" xlink:href="#DejaVuSans-53"/>
      <use x="311.035156" xlink:href="#DejaVuSans-79"/>
      <use x="370.214844" xlink:href="#DejaVuSans-64"/>
      <use x="433.691406" xlink:href="#DejaVuSans-6e"/>
      <use x="497.070312" xlink:href="#DejaVuSans-65"/>
      <use x="558.59375" xlink:href="#DejaVuSans-79"/>
      <use x="617.773438" xlink:href="#DejaVuSans-20"/>
      <use x="649.560547" xlink:href="#DejaVuSans-4c"/>
      <use x="705.273438" xlink:href="#DejaVuSans-47"/>
      <use x="782.763672" xlink:href="#DejaVuSans-41"/>
      <use x="851.171875" xlink:href="#DejaVuSans-20"/>
      <use x="882.958984" xlink:href="#DejaVuSans-6c"/>
      <use x="910.742188" xlink:href="#DejaVuSans-6f"/>
      <use x="971.923828" xlink:href="#DejaVuSans-63"/>
      <use x="1026.904297" xlink:href="#DejaVuSans-6b"/>
      <use x="1084.814453" xlink:href="#DejaVuSans-64"/>
      <use x="1148.291016" xlink:href="#DejaVuSans-6f"/>
      <use x="1209.472656" xlink:href="#DejaVuSans-77"/>
      <use x="1291.259766" xlink:href="#DejaVuSans-6e"/>
     </g>
    </g>
    <g id="patch_17">
     <path d="M 224.145813 103.208812 
L 244.145813 103.208812 
L 244.145813 96.208812 
L 224.145813 96.208812 
z
" style="fill:#ffa500;opacity:0.5;"/>
    </g>
    <g id="text_52">
     <!-- Greater Sydney lockdown -->
     <g transform="translate(252.145813 103.208812)scale(0.1 -0.1)">
      <use xlink:href="#DejaVuSans-47"/>
      <use x="77.490234" xlink:href="#DejaVuSans-72"/>
      <use x="116.353516" xlink:href="#DejaVuSans-65"/>
      <use x="177.876953" xlink:href="#DejaVuSans-61"/>
      <use x="239.15625" xlink:href="#DejaVuSans-74"/>
      <use x="278.365234" xlink:href="#DejaVuSans-65"/>
      <use x="339.888672" xlink:href="#DejaVuSans-72"/>
      <use x="381.001953" xlink:href="#DejaVuSans-20"/>
      <use x="412.789062" xlink:href="#DejaVuSans-53"/>
      <use x="476.265625" xlink:href="#DejaVuSans-79"/>
      <use x="535.445312" xlink:href="#DejaVuSans-64"/>
      <use x="598.921875" xlink:href="#DejaVuSans-6e"/>
      <use x="662.300781" xlink:href="#DejaVuSans-65"/>
      <use x="723.824219" xlink:href="#DejaVuSans-79"/>
      <use x="783.003906" xlink:href="#DejaVuSans-20"/>
      <use x="814.791016" xlink:href="#DejaVuSans-6c"/>
      <use x="842.574219" xlink:href="#DejaVuSans-6f"/>
      <use x="903.755859" xlink:href="#DejaVuSans-63"/>
      <use x="958.736328" xlink:href="#DejaVuSans-6b"/>
      <use x="1016.646484" xlink:href="#DejaVuSans-64"/>
      <use x="1080.123047" xlink:href="#DejaVuSans-6f"/>
      <use x="1141.304688" xlink:href="#DejaVuSans-77"/>
      <use x="1223.091797" xlink:href="#DejaVuSans-6e"/>
     </g>
    </g>
    <g id="patch_18">
     <path d="M 224.145813 117.886937 
L 244.145813 117.886937 
L 244.145813 110.886937 
L 224.145813 110.886937 
z
" style="fill:#ff0000;opacity:0.5;"/>
    </g>
    <g id="text_53">
     <!-- Lockdown tightened -->
     <g transform="translate(252.145813 117.886937)scale(0.1 -0.1)">
      <use xlink:href="#DejaVuSans-4c"/>
      <use x="53.962891" xlink:href="#DejaVuSans-6f"/>
      <use x="115.144531" xlink:href="#DejaVuSans-63"/>
      <use x="170.125" xlink:href="#DejaVuSans-6b"/>
      <use x="228.035156" xlink:href="#DejaVuSans-64"/>
      <use x="291.511719" xlink:href="#DejaVuSans-6f"/>
      <use x="352.693359" xlink:href="#DejaVuSans-77"/>
      <use x="434.480469" xlink:href="#DejaVuSans-6e"/>
      <use x="497.859375" xlink:href="#DejaVuSans-20"/>
      <use x="529.646484" xlink:href="#DejaVuSans-74"/>
      <use x="568.855469" xlink:href="#DejaVuSans-69"/>
      <use x="596.638672" xlink:href="#DejaVuSans-67"/>
      <use x="660.115234" xlink:href="#DejaVuSans-68"/>
      <use x="723.494141" xlink:href="#DejaVuSans-74"/>
      <use x="762.703125" xlink:href="#DejaVuSans-65"/>
      <use x="824.226562" xlink:href="#DejaVuSans-6e"/>
      <use x="887.605469" xlink:href="#DejaVuSans-65"/>
      <use x="949.128906" xlink:href="#DejaVuSans-64"/>
     </g>
    </g>
   </g>
   <g id="PolyCollection_18">
    <defs>
     <path d="M 5.226801 10.209029 
L 5.226801 69.989693 
L 17.887143 45.381243 
L 30.547486 24.900999 
L 43.207829 6.610625 
L 55.868171 -10.378472 
L 68.528514 -26.51314 
L 81.188857 -41.975807 
L 93.849199 -56.803451 
L 106.509542 -70.95265 
L 119.169885 -84.368965 
L 131.830227 -96.976347 
L 144.49057 -108.686739 
L 157.150913 -119.377436 
L 169.811255 -128.916121 
L 182.471598 -137.191562 
L 195.131941 -144.14335 
L 207.792283 -149.771273 
L 220.452626 -154.142724 
L 233.112969 -157.399269 
L 245.773311 -159.771955 
L 258.433654 -161.578402 
L 271.093997 -163.154103 
L 283.754339 -164.647958 
L 296.414682 -165.863384 
L 309.075025 -166.565107 
L 321.735367 -166.598638 
L 334.39571 -165.493976 
L 347.056053 -162.106859 
L 359.716395 -153.894869 
L 372.376738 -133.523247 
L 372.376738 -242.063099 
L 372.376738 -242.063099 
L 359.716395 -228.679844 
L 347.056053 -215.798906 
L 334.39571 -203.787438 
L 321.735367 -193.158639 
L 309.075025 -184.486007 
L 296.414682 -178.221838 
L 283.754339 -174.394133 
L 271.093997 -172.313795 
L 258.433654 -170.946338 
L 245.773311 -169.511123 
L 233.112969 -167.522125 
L 220.452626 -164.662953 
L 207.792283 -160.721012 
L 195.131941 -155.563489 
L 182.471598 -149.124344 
L 169.811255 -141.403163 
L 157.150913 -132.46574 
L 144.49057 -122.452168 
L 131.830227 -111.576222 
L 119.169885 -100.114499 
L 106.509542 -88.350637 
L 93.849199 -76.498454 
L 81.188857 -64.618598 
L 68.528514 -52.650865 
L 55.868171 -40.477862 
L 43.207829 -28.019877 
L 30.547486 -15.29026 
L 17.887143 -2.450142 
L 5.226801 10.209029 
z
" id="m3160fa7184"/>
    </defs>
    <g clip-path="url(#p9dfae787c9)">
     <use style="fill:#ff00ff;fill-opacity:0.3;" x="0" xlink:href="#m3160fa7184" y="432"/>
    </g>
   </g>
  </g>
 </g>
 <defs>
  <clipPath id="p9dfae787c9">
   <rect height="348.464" width="620.356791" x="49.538" y="42.576"/>
  </clipPath>
 </defs>
 <defs>
  <pattern height="72" id="h9ee7a6a75f" patternUnits="userSpaceOnUse" width="72" x="0" y="0">
   <rect fill="#ffff00" height="73" width="73" x="0" y="0"/>
   <path d="M -36 36 
L 36 -36 
M -34 38 
L 38 -34 
M -32 40 
L 40 -32 
M -30 42 
L 42 -30 
M -28 44 
L 44 -28 
M -26 46 
L 46 -26 
M -24 48 
L 48 -24 
M -22 50 
L 50 -22 
M -20 52 
L 52 -20 
M -18 54 
L 54 -18 
M -16 56 
L 56 -16 
M -14 58 
L 58 -14 
M -12 60 
L 60 -12 
M -10 62 
L 62 -10 
M -8 64 
L 64 -8 
M -6 66 
L 66 -6 
M -4 68 
L 68 -4 
M -2 70 
L 70 -2 
M 0 72 
L 72 0 
M 2 74 
L 74 2 
M 4 76 
L 76 4 
M 6 78 
L 78 6 
M 8 80 
L 80 8 
M 10 82 
L 82 10 
M 12 84 
L 84 12 
M 14 86 
L 86 14 
M 16 88 
L 88 16 
M 18 90 
L 90 18 
M 20 92 
L 92 20 
M 22 94 
L 94 22 
M 24 96 
L 96 24 
M 26 98 
L 98 26 
M 28 100 
L 100 28 
M 30 102 
L 102 30 
M 32 104 
L 104 32 
M 34 106 
L 106 34 
M 36 108 
L 108 36 
" style="fill:#ffa500;stroke:#ffa500;stroke-linecap:butt;stroke-linejoin:miter;stroke-opacity:0.5;stroke-width:1.0;"/>
  </pattern>
  <pattern height="72" id="he0381bdad5" patternUnits="userSpaceOnUse" width="72" x="0" y="0">
   <rect fill="#00ffff" height="73" width="73" x="0" y="0"/>
   <path d="M -36 36 
L 36 -36 
M -33 39 
L 39 -33 
M -30 42 
L 42 -30 
M -27 45 
L 45 -27 
M -24 48 
L 48 -24 
M -21 51 
L 51 -21 
M -18 54 
L 54 -18 
M -15 57 
L 57 -15 
M -12 60 
L 60 -12 
M -9 63 
L 63 -9 
M -6 66 
L 66 -6 
M -3 69 
L 69 -3 
M 0 72 
L 72 0 
M 3 75 
L 75 3 
M 6 78 
L 78 6 
M 9 81 
L 81 9 
M 12 84 
L 84 12 
M 15 87 
L 87 15 
M 18 90 
L 90 18 
M 21 93 
L 93 21 
M 24 96 
L 96 24 
M 27 99 
L 99 27 
M 30 102 
L 102 30 
M 33 105 
L 105 33 
M 36 108 
L 108 36 
" style="fill:#0000ff;stroke:#0000ff;stroke-linecap:butt;stroke-linejoin:miter;stroke-opacity:0.2;stroke-width:1.0;"/>
  </pattern>
 </defs>
</svg>
