<?xml version="1.0" encoding="utf-8" standalone="no"?>
<!DOCTYPE svg PUBLIC "-//W3C//DTD SVG 1.1//EN"
  "http://www.w3.org/Graphics/SVG/1.1/DTD/svg11.dtd">
<svg height="432pt" version="1.1" viewBox="0 0 720 432" width="720pt" xmlns="http://www.w3.org/2000/svg" xmlns:xlink="http://www.w3.org/1999/xlink">
 <metadata>
  <rdf:RDF xmlns:cc="http://creativecommons.org/ns#" xmlns:dc="http://purl.org/dc/elements/1.1/" xmlns:rdf="http://www.w3.org/1999/02/22-rdf-syntax-ns#">
   <cc:Work>
    <dc:type rdf:resource="http://purl.org/dc/dcmitype/StillImage"/>
    <dc:date>2021-07-03T17:30:40.740060</dc:date>
    <dc:format>image/svg+xml</dc:format>
    <dc:creator>
     <cc:Agent>
      <dc:title>Matplotlib v3.4.2, https://matplotlib.org/</dc:title>
     </cc:Agent>
    </dc:creator>
   </cc:Work>
  </rdf:RDF>
 </metadata>
 <defs>
  <style type="text/css">*{stroke-linecap:butt;stroke-linejoin:round;}</style>
 </defs>
 <g id="figure_1">
  <g id="patch_1">
   <path d="M 0 432 
L 720 432 
L 720 0 
L 0 0 
z
" style="fill:#ffffff;"/>
  </g>
  <g id="axes_1">
   <g id="patch_2">
    <path d="M 48.413 391.04 
L 670.614791 391.04 
L 670.614791 42.216 
L 48.413 42.216 
z
" style="fill:#ffffff;"/>
   </g>
   <g id="PolyCollection_1">
    <path clip-path="url(#p5b82cbdbfb)" d="M 410.305878 972.413333 
L 403.95688 972.413333 
L 403.95688 -190.333333 
L 410.305878 -190.333333 
L 410.305878 -190.333333 
L 410.305878 972.413333 
z
" style="fill:#ff0000;fill-opacity:0.3;"/>
   </g>
   <g id="PolyCollection_2">
    <path clip-path="url(#p5b82cbdbfb)" d="M 416.654876 972.413333 
L 410.305878 972.413333 
L 410.305878 -190.333333 
L 416.654876 -190.333333 
L 416.654876 -190.333333 
L 416.654876 972.413333 
z
" style="fill:#ff0000;fill-opacity:0.27;"/>
   </g>
   <g id="PolyCollection_3">
    <path clip-path="url(#p5b82cbdbfb)" d="M 423.003874 972.413333 
L 416.654876 972.413333 
L 416.654876 -190.333333 
L 423.003874 -190.333333 
L 423.003874 -190.333333 
L 423.003874 972.413333 
z
" style="fill:#ff0000;fill-opacity:0.24;"/>
   </g>
   <g id="PolyCollection_4">
    <path clip-path="url(#p5b82cbdbfb)" d="M 429.352872 972.413333 
L 423.003874 972.413333 
L 423.003874 -190.333333 
L 429.352872 -190.333333 
L 429.352872 -190.333333 
L 429.352872 972.413333 
z
" style="fill:#ff0000;fill-opacity:0.21;"/>
   </g>
   <g id="PolyCollection_5">
    <path clip-path="url(#p5b82cbdbfb)" d="M 435.70187 972.413333 
L 429.352872 972.413333 
L 429.352872 -190.333333 
L 435.70187 -190.333333 
L 435.70187 -190.333333 
L 435.70187 972.413333 
z
" style="fill:#ff0000;fill-opacity:0.18;"/>
   </g>
   <g id="PolyCollection_6">
    <path clip-path="url(#p5b82cbdbfb)" d="M 442.050868 972.413333 
L 435.70187 972.413333 
L 435.70187 -190.333333 
L 442.050868 -190.333333 
L 442.050868 -190.333333 
L 442.050868 972.413333 
z
" style="fill:#ff0000;fill-opacity:0.15;"/>
   </g>
   <g id="PolyCollection_7">
    <path clip-path="url(#p5b82cbdbfb)" d="M 448.399866 972.413333 
L 442.050868 972.413333 
L 442.050868 -190.333333 
L 448.399866 -190.333333 
L 448.399866 -190.333333 
L 448.399866 972.413333 
z
" style="fill:#ff0000;fill-opacity:0.12;"/>
   </g>
   <g id="PolyCollection_8">
    <path clip-path="url(#p5b82cbdbfb)" d="M 454.748863 972.413333 
L 448.399866 972.413333 
L 448.399866 -190.333333 
L 454.748863 -190.333333 
L 454.748863 -190.333333 
L 454.748863 972.413333 
z
" style="fill:#ff0000;fill-opacity:0.09;"/>
   </g>
   <g id="PolyCollection_9">
    <path clip-path="url(#p5b82cbdbfb)" d="M 461.097861 972.413333 
L 454.748863 972.413333 
L 454.748863 -190.333333 
L 461.097861 -190.333333 
L 461.097861 -190.333333 
L 461.097861 972.413333 
z
" style="fill:#ff0000;fill-opacity:0.06;"/>
   </g>
   <g id="PolyCollection_10">
    <path clip-path="url(#p5b82cbdbfb)" d="M 467.446859 972.413333 
L 461.097861 972.413333 
L 461.097861 -190.333333 
L 467.446859 -190.333333 
L 467.446859 -190.333333 
L 467.446859 972.413333 
z
" style="fill:#ff0000;fill-opacity:0.03;"/>
   </g>
   <g id="PolyCollection_11">
    <path clip-path="url(#p5b82cbdbfb)" d="M 213.486945 972.413333 
L 149.996966 972.413333 
L 149.996966 -190.333333 
L 213.486945 -190.333333 
L 213.486945 -190.333333 
L 213.486945 972.413333 
z
" style="fill:#ffff00;fill-opacity:0.3;"/>
   </g>
   <g id="PolyCollection_12">
    <path clip-path="url(#p5b82cbdbfb)" d="M 226.18494 972.413333 
L 213.486945 972.413333 
L 213.486945 -190.333333 
L 226.18494 -190.333333 
L 226.18494 -190.333333 
L 226.18494 972.413333 
z
" style="fill:#ffa500;fill-opacity:0.3;"/>
   </g>
   <g id="PolyCollection_13">
    <path clip-path="url(#p5b82cbdbfb)" d="M 403.95688 972.413333 
L 226.18494 972.413333 
L 226.18494 -190.333333 
L 403.95688 -190.333333 
L 403.95688 -190.333333 
L 403.95688 972.413333 
z
" style="fill:#ff0000;fill-opacity:0.3;"/>
   </g>
   <g id="PolyCollection_14">
    <defs>
     <path d="M 23.017009 -40.96 
L 23.017009 -321.427417 
L 23.017009 -305.407404 
L 35.715004 -305.407404 
L 35.715004 -291.754464 
L 48.413 -291.754464 
L 48.413 -280.160422 
L 61.110996 -280.160422 
L 61.110996 -270.93165 
L 73.808991 -270.93165 
L 73.808991 -263.464465 
L 86.506987 -263.464465 
L 86.506987 -256.918367 
L 99.204983 -256.918367 
L 99.204983 -250.034644 
L 111.902979 -250.034644 
L 111.902979 -241.333801 
L 124.600974 -241.333801 
L 124.600974 -229.938396 
L 137.29897 -229.938396 
L 137.29897 -215.861174 
L 149.996966 -215.861174 
L 149.996966 -199.943219 
L 162.694962 -199.943219 
L 162.694962 -183.426086 
L 175.392957 -183.426086 
L 175.392957 -167.489005 
L 188.090953 -167.489005 
L 188.090953 -152.980117 
L 200.788949 -152.980117 
L 200.788949 -140.363549 
L 213.486945 -140.363549 
L 213.486945 -129.796197 
L 226.18494 -129.796197 
L 226.18494 -121.207722 
L 238.882936 -121.207722 
L 238.882936 -114.435826 
L 251.580932 -114.435826 
L 251.580932 -109.248758 
L 264.278927 -109.248758 
L 264.278927 -105.39713 
L 276.976923 -105.39713 
L 276.976923 -102.634625 
L 289.674919 -102.634625 
L 289.674919 -100.73063 
L 302.372915 -100.73063 
L 302.372915 -40.96 
L 302.372915 -40.96 
L 289.674919 -40.96 
L 289.674919 -40.96 
L 276.976923 -40.96 
L 276.976923 -40.96 
L 264.278927 -40.96 
L 264.278927 -40.96 
L 251.580932 -40.96 
L 251.580932 -40.96 
L 238.882936 -40.96 
L 238.882936 -40.96 
L 226.18494 -40.96 
L 226.18494 -40.96 
L 213.486945 -40.96 
L 213.486945 -40.96 
L 200.788949 -40.96 
L 200.788949 -40.96 
L 188.090953 -40.96 
L 188.090953 -40.96 
L 175.392957 -40.96 
L 175.392957 -40.96 
L 162.694962 -40.96 
L 162.694962 -40.96 
L 149.996966 -40.96 
L 149.996966 -40.96 
L 137.29897 -40.96 
L 137.29897 -40.96 
L 124.600974 -40.96 
L 124.600974 -40.96 
L 111.902979 -40.96 
L 111.902979 -40.96 
L 99.204983 -40.96 
L 99.204983 -40.96 
L 86.506987 -40.96 
L 86.506987 -40.96 
L 73.808991 -40.96 
L 73.808991 -40.96 
L 61.110996 -40.96 
L 61.110996 -40.96 
L 48.413 -40.96 
L 48.413 -40.96 
L 35.715004 -40.96 
L 35.715004 -40.96 
L 23.017009 -40.96 
L 23.017009 -40.96 
z
" id="m5f290be2b2" style="stroke:#1f77b4;"/>
    </defs>
    <g clip-path="url(#p5b82cbdbfb)">
     <use style="fill:#1f77b4;stroke:#1f77b4;" x="0" xlink:href="#m5f290be2b2" y="432"/>
    </g>
   </g>
   <g id="matplotlib.axis_1">
    <g id="xtick_1">
     <g id="line2d_1">
      <path clip-path="url(#p5b82cbdbfb)" d="M 73.808991 391.04 
L 73.808991 42.216 
" style="fill:none;stroke:#000000;stroke-dasharray:0.8,1.32;stroke-dashoffset:0;stroke-opacity:0.5;stroke-width:0.8;"/>
     </g>
     <g id="line2d_2">
      <defs>
       <path d="M 0 0 
L 0 3.5 
" id="ma3062831cc" style="stroke:#000000;stroke-width:0.8;"/>
      </defs>
      <g>
       <use style="stroke:#000000;stroke-width:0.8;" x="73.808991" xlink:href="#ma3062831cc" y="391.04"/>
      </g>
     </g>
     <g id="text_1">
      <!-- 15 -->
      <g transform="translate(67.446491 405.638438)scale(0.1 -0.1)">
       <defs>
        <path d="M 794 531 
L 1825 531 
L 1825 4091 
L 703 3866 
L 703 4441 
L 1819 4666 
L 2450 4666 
L 2450 531 
L 3481 531 
L 3481 0 
L 794 0 
L 794 531 
z
" id="DejaVuSans-31" transform="scale(0.015625)"/>
        <path d="M 691 4666 
L 3169 4666 
L 3169 4134 
L 1269 4134 
L 1269 2991 
Q 1406 3038 1543 3061 
Q 1681 3084 1819 3084 
Q 2600 3084 3056 2656 
Q 3513 2228 3513 1497 
Q 3513 744 3044 326 
Q 2575 -91 1722 -91 
Q 1428 -91 1123 -41 
Q 819 9 494 109 
L 494 744 
Q 775 591 1075 516 
Q 1375 441 1709 441 
Q 2250 441 2565 725 
Q 2881 1009 2881 1497 
Q 2881 1984 2565 2268 
Q 2250 2553 1709 2553 
Q 1456 2553 1204 2497 
Q 953 2441 691 2322 
L 691 4666 
z
" id="DejaVuSans-35" transform="scale(0.015625)"/>
       </defs>
       <use xlink:href="#DejaVuSans-31"/>
       <use x="63.623047" xlink:href="#DejaVuSans-35"/>
      </g>
     </g>
    </g>
    <g id="xtick_2">
     <g id="line2d_3">
      <path clip-path="url(#p5b82cbdbfb)" d="M 137.29897 391.04 
L 137.29897 42.216 
" style="fill:none;stroke:#000000;stroke-dasharray:0.8,1.32;stroke-dashoffset:0;stroke-opacity:0.5;stroke-width:0.8;"/>
     </g>
     <g id="line2d_4">
      <g>
       <use style="stroke:#000000;stroke-width:0.8;" x="137.29897" xlink:href="#ma3062831cc" y="391.04"/>
      </g>
     </g>
     <g id="text_2">
      <!-- 20 -->
      <g transform="translate(130.93647 405.638438)scale(0.1 -0.1)">
       <defs>
        <path d="M 1228 531 
L 3431 531 
L 3431 0 
L 469 0 
L 469 531 
Q 828 903 1448 1529 
Q 2069 2156 2228 2338 
Q 2531 2678 2651 2914 
Q 2772 3150 2772 3378 
Q 2772 3750 2511 3984 
Q 2250 4219 1831 4219 
Q 1534 4219 1204 4116 
Q 875 4013 500 3803 
L 500 4441 
Q 881 4594 1212 4672 
Q 1544 4750 1819 4750 
Q 2544 4750 2975 4387 
Q 3406 4025 3406 3419 
Q 3406 3131 3298 2873 
Q 3191 2616 2906 2266 
Q 2828 2175 2409 1742 
Q 1991 1309 1228 531 
z
" id="DejaVuSans-32" transform="scale(0.015625)"/>
        <path d="M 2034 4250 
Q 1547 4250 1301 3770 
Q 1056 3291 1056 2328 
Q 1056 1369 1301 889 
Q 1547 409 2034 409 
Q 2525 409 2770 889 
Q 3016 1369 3016 2328 
Q 3016 3291 2770 3770 
Q 2525 4250 2034 4250 
z
M 2034 4750 
Q 2819 4750 3233 4129 
Q 3647 3509 3647 2328 
Q 3647 1150 3233 529 
Q 2819 -91 2034 -91 
Q 1250 -91 836 529 
Q 422 1150 422 2328 
Q 422 3509 836 4129 
Q 1250 4750 2034 4750 
z
" id="DejaVuSans-30" transform="scale(0.015625)"/>
       </defs>
       <use xlink:href="#DejaVuSans-32"/>
       <use x="63.623047" xlink:href="#DejaVuSans-30"/>
      </g>
     </g>
    </g>
    <g id="xtick_3">
     <g id="line2d_5">
      <path clip-path="url(#p5b82cbdbfb)" d="M 200.788949 391.04 
L 200.788949 42.216 
" style="fill:none;stroke:#000000;stroke-dasharray:0.8,1.32;stroke-dashoffset:0;stroke-opacity:0.5;stroke-width:0.8;"/>
     </g>
     <g id="line2d_6">
      <g>
       <use style="stroke:#000000;stroke-width:0.8;" x="200.788949" xlink:href="#ma3062831cc" y="391.04"/>
      </g>
     </g>
     <g id="text_3">
      <!-- 25 -->
      <g transform="translate(194.426449 405.638438)scale(0.1 -0.1)">
       <use xlink:href="#DejaVuSans-32"/>
       <use x="63.623047" xlink:href="#DejaVuSans-35"/>
      </g>
     </g>
    </g>
    <g id="xtick_4">
     <g id="line2d_7">
      <path clip-path="url(#p5b82cbdbfb)" d="M 276.976923 391.04 
L 276.976923 42.216 
" style="fill:none;stroke:#000000;stroke-dasharray:0.8,1.32;stroke-dashoffset:0;stroke-opacity:0.5;stroke-width:0.8;"/>
     </g>
     <g id="line2d_8">
      <g>
       <use style="stroke:#000000;stroke-width:0.8;" x="276.976923" xlink:href="#ma3062831cc" y="391.04"/>
      </g>
     </g>
     <g id="text_4">
      <!-- Jul -->
      <g transform="translate(270.944111 405.638438)scale(0.1 -0.1)">
       <defs>
        <path d="M 628 4666 
L 1259 4666 
L 1259 325 
Q 1259 -519 939 -900 
Q 619 -1281 -91 -1281 
L -331 -1281 
L -331 -750 
L -134 -750 
Q 284 -750 456 -515 
Q 628 -281 628 325 
L 628 4666 
z
" id="DejaVuSans-4a" transform="scale(0.015625)"/>
        <path d="M 544 1381 
L 544 3500 
L 1119 3500 
L 1119 1403 
Q 1119 906 1312 657 
Q 1506 409 1894 409 
Q 2359 409 2629 706 
Q 2900 1003 2900 1516 
L 2900 3500 
L 3475 3500 
L 3475 0 
L 2900 0 
L 2900 538 
Q 2691 219 2414 64 
Q 2138 -91 1772 -91 
Q 1169 -91 856 284 
Q 544 659 544 1381 
z
M 1991 3584 
L 1991 3584 
z
" id="DejaVuSans-75" transform="scale(0.015625)"/>
        <path d="M 603 4863 
L 1178 4863 
L 1178 0 
L 603 0 
L 603 4863 
z
" id="DejaVuSans-6c" transform="scale(0.015625)"/>
       </defs>
       <use xlink:href="#DejaVuSans-4a"/>
       <use x="29.492188" xlink:href="#DejaVuSans-75"/>
       <use x="92.871094" xlink:href="#DejaVuSans-6c"/>
      </g>
     </g>
    </g>
    <g id="xtick_5">
     <g id="line2d_9">
      <path clip-path="url(#p5b82cbdbfb)" d="M 327.768906 391.04 
L 327.768906 42.216 
" style="fill:none;stroke:#000000;stroke-dasharray:0.8,1.32;stroke-dashoffset:0;stroke-opacity:0.5;stroke-width:0.8;"/>
     </g>
     <g id="line2d_10">
      <g>
       <use style="stroke:#000000;stroke-width:0.8;" x="327.768906" xlink:href="#ma3062831cc" y="391.04"/>
      </g>
     </g>
     <g id="text_5">
      <!-- 05 -->
      <g transform="translate(321.406406 405.638438)scale(0.1 -0.1)">
       <use xlink:href="#DejaVuSans-30"/>
       <use x="63.623047" xlink:href="#DejaVuSans-35"/>
      </g>
     </g>
    </g>
    <g id="xtick_6">
     <g id="line2d_11">
      <path clip-path="url(#p5b82cbdbfb)" d="M 391.258885 391.04 
L 391.258885 42.216 
" style="fill:none;stroke:#000000;stroke-dasharray:0.8,1.32;stroke-dashoffset:0;stroke-opacity:0.5;stroke-width:0.8;"/>
     </g>
     <g id="line2d_12">
      <g>
       <use style="stroke:#000000;stroke-width:0.8;" x="391.258885" xlink:href="#ma3062831cc" y="391.04"/>
      </g>
     </g>
     <g id="text_6">
      <!-- 10 -->
      <g transform="translate(384.896385 405.638438)scale(0.1 -0.1)">
       <use xlink:href="#DejaVuSans-31"/>
       <use x="63.623047" xlink:href="#DejaVuSans-30"/>
      </g>
     </g>
    </g>
    <g id="xtick_7">
     <g id="line2d_13">
      <path clip-path="url(#p5b82cbdbfb)" d="M 454.748863 391.04 
L 454.748863 42.216 
" style="fill:none;stroke:#000000;stroke-dasharray:0.8,1.32;stroke-dashoffset:0;stroke-opacity:0.5;stroke-width:0.8;"/>
     </g>
     <g id="line2d_14">
      <g>
       <use style="stroke:#000000;stroke-width:0.8;" x="454.748863" xlink:href="#ma3062831cc" y="391.04"/>
      </g>
     </g>
     <g id="text_7">
      <!-- 15 -->
      <g transform="translate(448.386363 405.638438)scale(0.1 -0.1)">
       <use xlink:href="#DejaVuSans-31"/>
       <use x="63.623047" xlink:href="#DejaVuSans-35"/>
      </g>
     </g>
    </g>
    <g id="xtick_8">
     <g id="line2d_15">
      <path clip-path="url(#p5b82cbdbfb)" d="M 518.238842 391.04 
L 518.238842 42.216 
" style="fill:none;stroke:#000000;stroke-dasharray:0.8,1.32;stroke-dashoffset:0;stroke-opacity:0.5;stroke-width:0.8;"/>
     </g>
     <g id="line2d_16">
      <g>
       <use style="stroke:#000000;stroke-width:0.8;" x="518.238842" xlink:href="#ma3062831cc" y="391.04"/>
      </g>
     </g>
     <g id="text_8">
      <!-- 20 -->
      <g transform="translate(511.876342 405.638438)scale(0.1 -0.1)">
       <use xlink:href="#DejaVuSans-32"/>
       <use x="63.623047" xlink:href="#DejaVuSans-30"/>
      </g>
     </g>
    </g>
    <g id="xtick_9">
     <g id="line2d_17">
      <path clip-path="url(#p5b82cbdbfb)" d="M 581.728821 391.04 
L 581.728821 42.216 
" style="fill:none;stroke:#000000;stroke-dasharray:0.8,1.32;stroke-dashoffset:0;stroke-opacity:0.5;stroke-width:0.8;"/>
     </g>
     <g id="line2d_18">
      <g>
       <use style="stroke:#000000;stroke-width:0.8;" x="581.728821" xlink:href="#ma3062831cc" y="391.04"/>
      </g>
     </g>
     <g id="text_9">
      <!-- 25 -->
      <g transform="translate(575.366321 405.638438)scale(0.1 -0.1)">
       <use xlink:href="#DejaVuSans-32"/>
       <use x="63.623047" xlink:href="#DejaVuSans-35"/>
      </g>
     </g>
    </g>
    <g id="xtick_10">
     <g id="line2d_19">
      <path clip-path="url(#p5b82cbdbfb)" d="M 670.614791 391.04 
L 670.614791 42.216 
" style="fill:none;stroke:#000000;stroke-dasharray:0.8,1.32;stroke-dashoffset:0;stroke-opacity:0.5;stroke-width:0.8;"/>
     </g>
     <g id="line2d_20">
      <g>
       <use style="stroke:#000000;stroke-width:0.8;" x="670.614791" xlink:href="#ma3062831cc" y="391.04"/>
      </g>
     </g>
     <g id="text_10">
      <!-- Aug -->
      <g transform="translate(660.85151 405.638438)scale(0.1 -0.1)">
       <defs>
        <path d="M 2188 4044 
L 1331 1722 
L 3047 1722 
L 2188 4044 
z
M 1831 4666 
L 2547 4666 
L 4325 0 
L 3669 0 
L 3244 1197 
L 1141 1197 
L 716 0 
L 50 0 
L 1831 4666 
z
" id="DejaVuSans-41" transform="scale(0.015625)"/>
        <path d="M 2906 1791 
Q 2906 2416 2648 2759 
Q 2391 3103 1925 3103 
Q 1463 3103 1205 2759 
Q 947 2416 947 1791 
Q 947 1169 1205 825 
Q 1463 481 1925 481 
Q 2391 481 2648 825 
Q 2906 1169 2906 1791 
z
M 3481 434 
Q 3481 -459 3084 -895 
Q 2688 -1331 1869 -1331 
Q 1566 -1331 1297 -1286 
Q 1028 -1241 775 -1147 
L 775 -588 
Q 1028 -725 1275 -790 
Q 1522 -856 1778 -856 
Q 2344 -856 2625 -561 
Q 2906 -266 2906 331 
L 2906 616 
Q 2728 306 2450 153 
Q 2172 0 1784 0 
Q 1141 0 747 490 
Q 353 981 353 1791 
Q 353 2603 747 3093 
Q 1141 3584 1784 3584 
Q 2172 3584 2450 3431 
Q 2728 3278 2906 2969 
L 2906 3500 
L 3481 3500 
L 3481 434 
z
" id="DejaVuSans-67" transform="scale(0.015625)"/>
       </defs>
       <use xlink:href="#DejaVuSans-41"/>
       <use x="68.408203" xlink:href="#DejaVuSans-75"/>
       <use x="131.787109" xlink:href="#DejaVuSans-67"/>
      </g>
     </g>
    </g>
    <g id="text_11">
     <!-- 2021-Aug -->
     <g transform="translate(622.255416 418.316563)scale(0.1 -0.1)">
      <defs>
       <path d="M 313 2009 
L 1997 2009 
L 1997 1497 
L 313 1497 
L 313 2009 
z
" id="DejaVuSans-2d" transform="scale(0.015625)"/>
      </defs>
      <use xlink:href="#DejaVuSans-32"/>
      <use x="63.623047" xlink:href="#DejaVuSans-30"/>
      <use x="127.246094" xlink:href="#DejaVuSans-32"/>
      <use x="190.869141" xlink:href="#DejaVuSans-31"/>
      <use x="254.492188" xlink:href="#DejaVuSans-2d"/>
      <use x="288.326172" xlink:href="#DejaVuSans-41"/>
      <use x="356.734375" xlink:href="#DejaVuSans-75"/>
      <use x="420.113281" xlink:href="#DejaVuSans-67"/>
     </g>
    </g>
   </g>
   <g id="matplotlib.axis_2">
    <g id="ytick_1">
     <g id="line2d_21">
      <path clip-path="url(#p5b82cbdbfb)" d="M 48.413 391.04 
L 670.614791 391.04 
" style="fill:none;stroke:#000000;stroke-dasharray:0.8,1.32;stroke-dashoffset:0;stroke-opacity:0.5;stroke-width:0.8;"/>
     </g>
     <g id="line2d_22">
      <defs>
       <path d="M 0 0 
L -3.5 0 
" id="ma2cd8164ba" style="stroke:#000000;stroke-width:0.8;"/>
      </defs>
      <g>
       <use style="stroke:#000000;stroke-width:0.8;" x="48.413" xlink:href="#ma2cd8164ba" y="391.04"/>
      </g>
     </g>
     <g id="text_12">
      <!-- 0.0 -->
      <g transform="translate(25.509875 394.839219)scale(0.1 -0.1)">
       <defs>
        <path d="M 684 794 
L 1344 794 
L 1344 0 
L 684 0 
L 684 794 
z
" id="DejaVuSans-2e" transform="scale(0.015625)"/>
       </defs>
       <use xlink:href="#DejaVuSans-30"/>
       <use x="63.623047" xlink:href="#DejaVuSans-2e"/>
       <use x="95.410156" xlink:href="#DejaVuSans-30"/>
      </g>
     </g>
    </g>
    <g id="ytick_2">
     <g id="line2d_23">
      <path clip-path="url(#p5b82cbdbfb)" d="M 48.413 361.971333 
L 670.614791 361.971333 
" style="fill:none;stroke:#000000;stroke-dasharray:0.8,1.32;stroke-dashoffset:0;stroke-opacity:0.5;stroke-width:0.8;"/>
     </g>
     <g id="line2d_24">
      <g>
       <use style="stroke:#000000;stroke-width:0.8;" x="48.413" xlink:href="#ma2cd8164ba" y="361.971333"/>
      </g>
     </g>
     <g id="text_13">
      <!-- 0.5 -->
      <g transform="translate(25.509875 365.770552)scale(0.1 -0.1)">
       <use xlink:href="#DejaVuSans-30"/>
       <use x="63.623047" xlink:href="#DejaVuSans-2e"/>
       <use x="95.410156" xlink:href="#DejaVuSans-35"/>
      </g>
     </g>
    </g>
    <g id="ytick_3">
     <g id="line2d_25">
      <path clip-path="url(#p5b82cbdbfb)" d="M 48.413 332.902667 
L 670.614791 332.902667 
" style="fill:none;stroke:#000000;stroke-dasharray:0.8,1.32;stroke-dashoffset:0;stroke-opacity:0.5;stroke-width:0.8;"/>
     </g>
     <g id="line2d_26">
      <g>
       <use style="stroke:#000000;stroke-width:0.8;" x="48.413" xlink:href="#ma2cd8164ba" y="332.902667"/>
      </g>
     </g>
     <g id="text_14">
      <!-- 1.0 -->
      <g transform="translate(25.509875 336.701885)scale(0.1 -0.1)">
       <use xlink:href="#DejaVuSans-31"/>
       <use x="63.623047" xlink:href="#DejaVuSans-2e"/>
       <use x="95.410156" xlink:href="#DejaVuSans-30"/>
      </g>
     </g>
    </g>
    <g id="ytick_4">
     <g id="line2d_27">
      <path clip-path="url(#p5b82cbdbfb)" d="M 48.413 303.834 
L 670.614791 303.834 
" style="fill:none;stroke:#000000;stroke-dasharray:0.8,1.32;stroke-dashoffset:0;stroke-opacity:0.5;stroke-width:0.8;"/>
     </g>
     <g id="line2d_28">
      <g>
       <use style="stroke:#000000;stroke-width:0.8;" x="48.413" xlink:href="#ma2cd8164ba" y="303.834"/>
      </g>
     </g>
     <g id="text_15">
      <!-- 1.5 -->
      <g transform="translate(25.509875 307.633219)scale(0.1 -0.1)">
       <use xlink:href="#DejaVuSans-31"/>
       <use x="63.623047" xlink:href="#DejaVuSans-2e"/>
       <use x="95.410156" xlink:href="#DejaVuSans-35"/>
      </g>
     </g>
    </g>
    <g id="ytick_5">
     <g id="line2d_29">
      <path clip-path="url(#p5b82cbdbfb)" d="M 48.413 274.765333 
L 670.614791 274.765333 
" style="fill:none;stroke:#000000;stroke-dasharray:0.8,1.32;stroke-dashoffset:0;stroke-opacity:0.5;stroke-width:0.8;"/>
     </g>
     <g id="line2d_30">
      <g>
       <use style="stroke:#000000;stroke-width:0.8;" x="48.413" xlink:href="#ma2cd8164ba" y="274.765333"/>
      </g>
     </g>
     <g id="text_16">
      <!-- 2.0 -->
      <g transform="translate(25.509875 278.564552)scale(0.1 -0.1)">
       <use xlink:href="#DejaVuSans-32"/>
       <use x="63.623047" xlink:href="#DejaVuSans-2e"/>
       <use x="95.410156" xlink:href="#DejaVuSans-30"/>
      </g>
     </g>
    </g>
    <g id="ytick_6">
     <g id="line2d_31">
      <path clip-path="url(#p5b82cbdbfb)" d="M 48.413 245.696667 
L 670.614791 245.696667 
" style="fill:none;stroke:#000000;stroke-dasharray:0.8,1.32;stroke-dashoffset:0;stroke-opacity:0.5;stroke-width:0.8;"/>
     </g>
     <g id="line2d_32">
      <g>
       <use style="stroke:#000000;stroke-width:0.8;" x="48.413" xlink:href="#ma2cd8164ba" y="245.696667"/>
      </g>
     </g>
     <g id="text_17">
      <!-- 2.5 -->
      <g transform="translate(25.509875 249.495885)scale(0.1 -0.1)">
       <use xlink:href="#DejaVuSans-32"/>
       <use x="63.623047" xlink:href="#DejaVuSans-2e"/>
       <use x="95.410156" xlink:href="#DejaVuSans-35"/>
      </g>
     </g>
    </g>
    <g id="ytick_7">
     <g id="line2d_33">
      <path clip-path="url(#p5b82cbdbfb)" d="M 48.413 216.628 
L 670.614791 216.628 
" style="fill:none;stroke:#000000;stroke-dasharray:0.8,1.32;stroke-dashoffset:0;stroke-opacity:0.5;stroke-width:0.8;"/>
     </g>
     <g id="line2d_34">
      <g>
       <use style="stroke:#000000;stroke-width:0.8;" x="48.413" xlink:href="#ma2cd8164ba" y="216.628"/>
      </g>
     </g>
     <g id="text_18">
      <!-- 3.0 -->
      <g transform="translate(25.509875 220.427219)scale(0.1 -0.1)">
       <defs>
        <path d="M 2597 2516 
Q 3050 2419 3304 2112 
Q 3559 1806 3559 1356 
Q 3559 666 3084 287 
Q 2609 -91 1734 -91 
Q 1441 -91 1130 -33 
Q 819 25 488 141 
L 488 750 
Q 750 597 1062 519 
Q 1375 441 1716 441 
Q 2309 441 2620 675 
Q 2931 909 2931 1356 
Q 2931 1769 2642 2001 
Q 2353 2234 1838 2234 
L 1294 2234 
L 1294 2753 
L 1863 2753 
Q 2328 2753 2575 2939 
Q 2822 3125 2822 3475 
Q 2822 3834 2567 4026 
Q 2313 4219 1838 4219 
Q 1578 4219 1281 4162 
Q 984 4106 628 3988 
L 628 4550 
Q 988 4650 1302 4700 
Q 1616 4750 1894 4750 
Q 2613 4750 3031 4423 
Q 3450 4097 3450 3541 
Q 3450 3153 3228 2886 
Q 3006 2619 2597 2516 
z
" id="DejaVuSans-33" transform="scale(0.015625)"/>
       </defs>
       <use xlink:href="#DejaVuSans-33"/>
       <use x="63.623047" xlink:href="#DejaVuSans-2e"/>
       <use x="95.410156" xlink:href="#DejaVuSans-30"/>
      </g>
     </g>
    </g>
    <g id="ytick_8">
     <g id="line2d_35">
      <path clip-path="url(#p5b82cbdbfb)" d="M 48.413 187.559333 
L 670.614791 187.559333 
" style="fill:none;stroke:#000000;stroke-dasharray:0.8,1.32;stroke-dashoffset:0;stroke-opacity:0.5;stroke-width:0.8;"/>
     </g>
     <g id="line2d_36">
      <g>
       <use style="stroke:#000000;stroke-width:0.8;" x="48.413" xlink:href="#ma2cd8164ba" y="187.559333"/>
      </g>
     </g>
     <g id="text_19">
      <!-- 3.5 -->
      <g transform="translate(25.509875 191.358552)scale(0.1 -0.1)">
       <use xlink:href="#DejaVuSans-33"/>
       <use x="63.623047" xlink:href="#DejaVuSans-2e"/>
       <use x="95.410156" xlink:href="#DejaVuSans-35"/>
      </g>
     </g>
    </g>
    <g id="ytick_9">
     <g id="line2d_37">
      <path clip-path="url(#p5b82cbdbfb)" d="M 48.413 158.490667 
L 670.614791 158.490667 
" style="fill:none;stroke:#000000;stroke-dasharray:0.8,1.32;stroke-dashoffset:0;stroke-opacity:0.5;stroke-width:0.8;"/>
     </g>
     <g id="line2d_38">
      <g>
       <use style="stroke:#000000;stroke-width:0.8;" x="48.413" xlink:href="#ma2cd8164ba" y="158.490667"/>
      </g>
     </g>
     <g id="text_20">
      <!-- 4.0 -->
      <g transform="translate(25.509875 162.289885)scale(0.1 -0.1)">
       <defs>
        <path d="M 2419 4116 
L 825 1625 
L 2419 1625 
L 2419 4116 
z
M 2253 4666 
L 3047 4666 
L 3047 1625 
L 3713 1625 
L 3713 1100 
L 3047 1100 
L 3047 0 
L 2419 0 
L 2419 1100 
L 313 1100 
L 313 1709 
L 2253 4666 
z
" id="DejaVuSans-34" transform="scale(0.015625)"/>
       </defs>
       <use xlink:href="#DejaVuSans-34"/>
       <use x="63.623047" xlink:href="#DejaVuSans-2e"/>
       <use x="95.410156" xlink:href="#DejaVuSans-30"/>
      </g>
     </g>
    </g>
    <g id="ytick_10">
     <g id="line2d_39">
      <path clip-path="url(#p5b82cbdbfb)" d="M 48.413 129.422 
L 670.614791 129.422 
" style="fill:none;stroke:#000000;stroke-dasharray:0.8,1.32;stroke-dashoffset:0;stroke-opacity:0.5;stroke-width:0.8;"/>
     </g>
     <g id="line2d_40">
      <g>
       <use style="stroke:#000000;stroke-width:0.8;" x="48.413" xlink:href="#ma2cd8164ba" y="129.422"/>
      </g>
     </g>
     <g id="text_21">
      <!-- 4.5 -->
      <g transform="translate(25.509875 133.221219)scale(0.1 -0.1)">
       <use xlink:href="#DejaVuSans-34"/>
       <use x="63.623047" xlink:href="#DejaVuSans-2e"/>
       <use x="95.410156" xlink:href="#DejaVuSans-35"/>
      </g>
     </g>
    </g>
    <g id="ytick_11">
     <g id="line2d_41">
      <path clip-path="url(#p5b82cbdbfb)" d="M 48.413 100.353333 
L 670.614791 100.353333 
" style="fill:none;stroke:#000000;stroke-dasharray:0.8,1.32;stroke-dashoffset:0;stroke-opacity:0.5;stroke-width:0.8;"/>
     </g>
     <g id="line2d_42">
      <g>
       <use style="stroke:#000000;stroke-width:0.8;" x="48.413" xlink:href="#ma2cd8164ba" y="100.353333"/>
      </g>
     </g>
     <g id="text_22">
      <!-- 5.0 -->
      <g transform="translate(25.509875 104.152552)scale(0.1 -0.1)">
       <use xlink:href="#DejaVuSans-35"/>
       <use x="63.623047" xlink:href="#DejaVuSans-2e"/>
       <use x="95.410156" xlink:href="#DejaVuSans-30"/>
      </g>
     </g>
    </g>
    <g id="ytick_12">
     <g id="line2d_43">
      <path clip-path="url(#p5b82cbdbfb)" d="M 48.413 71.284667 
L 670.614791 71.284667 
" style="fill:none;stroke:#000000;stroke-dasharray:0.8,1.32;stroke-dashoffset:0;stroke-opacity:0.5;stroke-width:0.8;"/>
     </g>
     <g id="line2d_44">
      <g>
       <use style="stroke:#000000;stroke-width:0.8;" x="48.413" xlink:href="#ma2cd8164ba" y="71.284667"/>
      </g>
     </g>
     <g id="text_23">
      <!-- 5.5 -->
      <g transform="translate(25.509875 75.083885)scale(0.1 -0.1)">
       <use xlink:href="#DejaVuSans-35"/>
       <use x="63.623047" xlink:href="#DejaVuSans-2e"/>
       <use x="95.410156" xlink:href="#DejaVuSans-35"/>
      </g>
     </g>
    </g>
    <g id="ytick_13">
     <g id="line2d_45">
      <path clip-path="url(#p5b82cbdbfb)" d="M 48.413 42.216 
L 670.614791 42.216 
" style="fill:none;stroke:#000000;stroke-dasharray:0.8,1.32;stroke-dashoffset:0;stroke-opacity:0.5;stroke-width:0.8;"/>
     </g>
     <g id="line2d_46">
      <g>
       <use style="stroke:#000000;stroke-width:0.8;" x="48.413" xlink:href="#ma2cd8164ba" y="42.216"/>
      </g>
     </g>
     <g id="text_24">
      <!-- 6.0 -->
      <g transform="translate(25.509875 46.015219)scale(0.1 -0.1)">
       <defs>
        <path d="M 2113 2584 
Q 1688 2584 1439 2293 
Q 1191 2003 1191 1497 
Q 1191 994 1439 701 
Q 1688 409 2113 409 
Q 2538 409 2786 701 
Q 3034 994 3034 1497 
Q 3034 2003 2786 2293 
Q 2538 2584 2113 2584 
z
M 3366 4563 
L 3366 3988 
Q 3128 4100 2886 4159 
Q 2644 4219 2406 4219 
Q 1781 4219 1451 3797 
Q 1122 3375 1075 2522 
Q 1259 2794 1537 2939 
Q 1816 3084 2150 3084 
Q 2853 3084 3261 2657 
Q 3669 2231 3669 1497 
Q 3669 778 3244 343 
Q 2819 -91 2113 -91 
Q 1303 -91 875 529 
Q 447 1150 447 2328 
Q 447 3434 972 4092 
Q 1497 4750 2381 4750 
Q 2619 4750 2861 4703 
Q 3103 4656 3366 4563 
z
" id="DejaVuSans-36" transform="scale(0.015625)"/>
       </defs>
       <use xlink:href="#DejaVuSans-36"/>
       <use x="63.623047" xlink:href="#DejaVuSans-2e"/>
       <use x="95.410156" xlink:href="#DejaVuSans-30"/>
      </g>
     </g>
    </g>
    <g id="text_25">
     <!-- $R_\mathrm{eff}$ -->
     <g transform="translate(19.430188 224.878)rotate(-90)scale(0.1 -0.1)">
      <defs>
       <path d="M 1613 4147 
L 1294 2491 
L 2106 2491 
Q 2584 2491 2879 2755 
Q 3175 3019 3175 3444 
Q 3175 3784 2976 3965 
Q 2778 4147 2406 4147 
L 1613 4147 
z
M 2772 2241 
Q 2972 2194 3105 2009 
Q 3238 1825 3413 1275 
L 3809 0 
L 3144 0 
L 2778 1197 
Q 2638 1659 2453 1815 
Q 2269 1972 1888 1972 
L 1191 1972 
L 806 0 
L 172 0 
L 1081 4666 
L 2503 4666 
Q 3150 4666 3495 4373 
Q 3841 4081 3841 3531 
Q 3841 3044 3547 2687 
Q 3253 2331 2772 2241 
z
" id="DejaVuSans-Oblique-52" transform="scale(0.015625)"/>
       <path d="M 3597 1894 
L 3597 1613 
L 953 1613 
Q 991 1019 1311 708 
Q 1631 397 2203 397 
Q 2534 397 2845 478 
Q 3156 559 3463 722 
L 3463 178 
Q 3153 47 2828 -22 
Q 2503 -91 2169 -91 
Q 1331 -91 842 396 
Q 353 884 353 1716 
Q 353 2575 817 3079 
Q 1281 3584 2069 3584 
Q 2775 3584 3186 3129 
Q 3597 2675 3597 1894 
z
M 3022 2063 
Q 3016 2534 2758 2815 
Q 2500 3097 2075 3097 
Q 1594 3097 1305 2825 
Q 1016 2553 972 2059 
L 3022 2063 
z
" id="DejaVuSans-65" transform="scale(0.015625)"/>
       <path d="M 2375 4863 
L 2375 4384 
L 1825 4384 
Q 1516 4384 1395 4259 
Q 1275 4134 1275 3809 
L 1275 3500 
L 2222 3500 
L 2222 3053 
L 1275 3053 
L 1275 0 
L 697 0 
L 697 3053 
L 147 3053 
L 147 3500 
L 697 3500 
L 697 3744 
Q 697 4328 969 4595 
Q 1241 4863 1831 4863 
L 2375 4863 
z
" id="DejaVuSans-66" transform="scale(0.015625)"/>
      </defs>
      <use transform="translate(0 0.09375)" xlink:href="#DejaVuSans-Oblique-52"/>
      <use transform="translate(69.482422 -16.3125)scale(0.7)" xlink:href="#DejaVuSans-65"/>
      <use transform="translate(112.548828 -16.3125)scale(0.7)" xlink:href="#DejaVuSans-66"/>
      <use transform="translate(137.192383 -16.3125)scale(0.7)" xlink:href="#DejaVuSans-66"/>
     </g>
    </g>
   </g>
   <g id="PolyCollection_15">
    <path clip-path="url(#p5b82cbdbfb)" d="M 23.017009 12.560351 
L 23.017009 208.584815 
L 23.017009 198.737323 
L 35.715004 198.737323 
L 35.715004 193.969552 
L 48.413 193.969552 
L 48.413 196.55391 
L 61.110996 196.55391 
L 61.110996 204.406667 
L 73.808991 204.406667 
L 73.808991 212.448015 
L 86.506987 212.448015 
L 86.506987 217.769145 
L 99.204983 217.769145 
L 99.204983 220.865423 
L 111.902979 220.865423 
L 111.902979 223.995941 
L 124.600974 223.995941 
L 124.600974 229.292722 
L 137.29897 229.292722 
L 137.29897 237.784844 
L 149.996966 237.784844 
L 149.996966 249.173107 
L 162.694962 249.173107 
L 162.694962 262.28964 
L 175.392957 262.28964 
L 175.392957 275.830499 
L 188.090953 275.830499 
L 188.090953 288.874022 
L 200.788949 288.874022 
L 200.788949 300.971148 
L 213.486945 300.971148 
L 213.486945 311.946469 
L 226.18494 311.946469 
L 226.18494 321.733757 
L 238.882936 321.733757 
L 238.882936 330.294581 
L 251.580932 330.294581 
L 251.580932 337.646778 
L 264.278927 337.646778 
L 264.278927 343.81464 
L 276.976923 343.81464 
L 276.976923 348.812663 
L 289.674919 348.812663 
L 289.674919 352.673502 
L 302.372915 352.673502 
L 302.372915 309.865239 
L 302.372915 309.865239 
L 289.674919 309.865239 
L 289.674919 309.918086 
L 276.976923 309.918086 
L 276.976923 309.391101 
L 264.278927 309.391101 
L 264.278927 307.855705 
L 251.580932 307.855705 
L 251.580932 304.833767 
L 238.882936 304.833767 
L 238.882936 299.8508 
L 226.18494 299.8508 
L 226.18494 292.461136 
L 213.486945 292.461136 
L 213.486945 282.301755 
L 200.788949 282.301755 
L 200.788949 269.165744 
L 188.090953 269.165744 
L 188.090953 253.191492 
L 175.392957 253.191492 
L 175.392957 234.858188 
L 162.694962 234.858188 
L 162.694962 214.940454 
L 149.996966 214.940454 
L 149.996966 194.492808 
L 137.29897 194.492808 
L 137.29897 174.830485 
L 124.600974 174.830485 
L 124.600974 157.336456 
L 111.902979 157.336456 
L 111.902979 143.065289 
L 99.204983 143.065289 
L 99.204983 132.394122 
L 86.506987 132.394122 
L 86.506987 124.623055 
L 73.808991 124.623055 
L 73.808991 117.730033 
L 61.110996 117.730033 
L 61.110996 107.125245 
L 48.413 107.125245 
L 48.413 86.52152 
L 35.715004 86.52152 
L 35.715004 54.44787 
L 23.017009 54.44787 
L 23.017009 12.560351 
z
" style="fill:url(#h50766d0d29);fill-opacity:0.2;stroke:#0000ff;stroke-opacity:0.2;"/>
   </g>
   <g id="line2d_47">
    <path clip-path="url(#p5b82cbdbfb)" d="M 48.413 332.902667 
L 670.614791 332.902667 
" style="fill:none;stroke:#000000;stroke-linecap:square;"/>
   </g>
   <g id="patch_3">
    <path d="M 48.413 391.04 
L 48.413 42.216 
" style="fill:none;stroke:#000000;stroke-linecap:square;stroke-linejoin:miter;stroke-width:0.8;"/>
   </g>
   <g id="patch_4">
    <path d="M 670.614791 391.04 
L 670.614791 42.216 
" style="fill:none;stroke:#000000;stroke-linecap:square;stroke-linejoin:miter;stroke-width:0.8;"/>
   </g>
   <g id="patch_5">
    <path d="M 48.413 391.04 
L 670.614791 391.04 
" style="fill:none;stroke:#000000;stroke-linecap:square;stroke-linejoin:miter;stroke-width:0.8;"/>
   </g>
   <g id="patch_6">
    <path d="M 48.413 42.216 
L 670.614791 42.216 
" style="fill:none;stroke:#000000;stroke-linecap:square;stroke-linejoin:miter;stroke-width:0.8;"/>
   </g>
   <g id="text_26">
    <!-- $R_\mathrm{eff}$ in New South Wales with Sydney restriction levels and daily cases (non-isolating cases only) -->
    <g transform="translate(70.193895 22.75425)scale(0.12 -0.12)">
     <defs>
      <path id="DejaVuSans-20" transform="scale(0.015625)"/>
      <path d="M 603 3500 
L 1178 3500 
L 1178 0 
L 603 0 
L 603 3500 
z
M 603 4863 
L 1178 4863 
L 1178 4134 
L 603 4134 
L 603 4863 
z
" id="DejaVuSans-69" transform="scale(0.015625)"/>
      <path d="M 3513 2113 
L 3513 0 
L 2938 0 
L 2938 2094 
Q 2938 2591 2744 2837 
Q 2550 3084 2163 3084 
Q 1697 3084 1428 2787 
Q 1159 2491 1159 1978 
L 1159 0 
L 581 0 
L 581 3500 
L 1159 3500 
L 1159 2956 
Q 1366 3272 1645 3428 
Q 1925 3584 2291 3584 
Q 2894 3584 3203 3211 
Q 3513 2838 3513 2113 
z
" id="DejaVuSans-6e" transform="scale(0.015625)"/>
      <path d="M 628 4666 
L 1478 4666 
L 3547 763 
L 3547 4666 
L 4159 4666 
L 4159 0 
L 3309 0 
L 1241 3903 
L 1241 0 
L 628 0 
L 628 4666 
z
" id="DejaVuSans-4e" transform="scale(0.015625)"/>
      <path d="M 269 3500 
L 844 3500 
L 1563 769 
L 2278 3500 
L 2956 3500 
L 3675 769 
L 4391 3500 
L 4966 3500 
L 4050 0 
L 3372 0 
L 2619 2869 
L 1863 0 
L 1184 0 
L 269 3500 
z
" id="DejaVuSans-77" transform="scale(0.015625)"/>
      <path d="M 3425 4513 
L 3425 3897 
Q 3066 4069 2747 4153 
Q 2428 4238 2131 4238 
Q 1616 4238 1336 4038 
Q 1056 3838 1056 3469 
Q 1056 3159 1242 3001 
Q 1428 2844 1947 2747 
L 2328 2669 
Q 3034 2534 3370 2195 
Q 3706 1856 3706 1288 
Q 3706 609 3251 259 
Q 2797 -91 1919 -91 
Q 1588 -91 1214 -16 
Q 841 59 441 206 
L 441 856 
Q 825 641 1194 531 
Q 1563 422 1919 422 
Q 2459 422 2753 634 
Q 3047 847 3047 1241 
Q 3047 1584 2836 1778 
Q 2625 1972 2144 2069 
L 1759 2144 
Q 1053 2284 737 2584 
Q 422 2884 422 3419 
Q 422 4038 858 4394 
Q 1294 4750 2059 4750 
Q 2388 4750 2728 4690 
Q 3069 4631 3425 4513 
z
" id="DejaVuSans-53" transform="scale(0.015625)"/>
      <path d="M 1959 3097 
Q 1497 3097 1228 2736 
Q 959 2375 959 1747 
Q 959 1119 1226 758 
Q 1494 397 1959 397 
Q 2419 397 2687 759 
Q 2956 1122 2956 1747 
Q 2956 2369 2687 2733 
Q 2419 3097 1959 3097 
z
M 1959 3584 
Q 2709 3584 3137 3096 
Q 3566 2609 3566 1747 
Q 3566 888 3137 398 
Q 2709 -91 1959 -91 
Q 1206 -91 779 398 
Q 353 888 353 1747 
Q 353 2609 779 3096 
Q 1206 3584 1959 3584 
z
" id="DejaVuSans-6f" transform="scale(0.015625)"/>
      <path d="M 1172 4494 
L 1172 3500 
L 2356 3500 
L 2356 3053 
L 1172 3053 
L 1172 1153 
Q 1172 725 1289 603 
Q 1406 481 1766 481 
L 2356 481 
L 2356 0 
L 1766 0 
Q 1100 0 847 248 
Q 594 497 594 1153 
L 594 3053 
L 172 3053 
L 172 3500 
L 594 3500 
L 594 4494 
L 1172 4494 
z
" id="DejaVuSans-74" transform="scale(0.015625)"/>
      <path d="M 3513 2113 
L 3513 0 
L 2938 0 
L 2938 2094 
Q 2938 2591 2744 2837 
Q 2550 3084 2163 3084 
Q 1697 3084 1428 2787 
Q 1159 2491 1159 1978 
L 1159 0 
L 581 0 
L 581 4863 
L 1159 4863 
L 1159 2956 
Q 1366 3272 1645 3428 
Q 1925 3584 2291 3584 
Q 2894 3584 3203 3211 
Q 3513 2838 3513 2113 
z
" id="DejaVuSans-68" transform="scale(0.015625)"/>
      <path d="M 213 4666 
L 850 4666 
L 1831 722 
L 2809 4666 
L 3519 4666 
L 4500 722 
L 5478 4666 
L 6119 4666 
L 4947 0 
L 4153 0 
L 3169 4050 
L 2175 0 
L 1381 0 
L 213 4666 
z
" id="DejaVuSans-57" transform="scale(0.015625)"/>
      <path d="M 2194 1759 
Q 1497 1759 1228 1600 
Q 959 1441 959 1056 
Q 959 750 1161 570 
Q 1363 391 1709 391 
Q 2188 391 2477 730 
Q 2766 1069 2766 1631 
L 2766 1759 
L 2194 1759 
z
M 3341 1997 
L 3341 0 
L 2766 0 
L 2766 531 
Q 2569 213 2275 61 
Q 1981 -91 1556 -91 
Q 1019 -91 701 211 
Q 384 513 384 1019 
Q 384 1609 779 1909 
Q 1175 2209 1959 2209 
L 2766 2209 
L 2766 2266 
Q 2766 2663 2505 2880 
Q 2244 3097 1772 3097 
Q 1472 3097 1187 3025 
Q 903 2953 641 2809 
L 641 3341 
Q 956 3463 1253 3523 
Q 1550 3584 1831 3584 
Q 2591 3584 2966 3190 
Q 3341 2797 3341 1997 
z
" id="DejaVuSans-61" transform="scale(0.015625)"/>
      <path d="M 2834 3397 
L 2834 2853 
Q 2591 2978 2328 3040 
Q 2066 3103 1784 3103 
Q 1356 3103 1142 2972 
Q 928 2841 928 2578 
Q 928 2378 1081 2264 
Q 1234 2150 1697 2047 
L 1894 2003 
Q 2506 1872 2764 1633 
Q 3022 1394 3022 966 
Q 3022 478 2636 193 
Q 2250 -91 1575 -91 
Q 1294 -91 989 -36 
Q 684 19 347 128 
L 347 722 
Q 666 556 975 473 
Q 1284 391 1588 391 
Q 1994 391 2212 530 
Q 2431 669 2431 922 
Q 2431 1156 2273 1281 
Q 2116 1406 1581 1522 
L 1381 1569 
Q 847 1681 609 1914 
Q 372 2147 372 2553 
Q 372 3047 722 3315 
Q 1072 3584 1716 3584 
Q 2034 3584 2315 3537 
Q 2597 3491 2834 3397 
z
" id="DejaVuSans-73" transform="scale(0.015625)"/>
      <path d="M 2059 -325 
Q 1816 -950 1584 -1140 
Q 1353 -1331 966 -1331 
L 506 -1331 
L 506 -850 
L 844 -850 
Q 1081 -850 1212 -737 
Q 1344 -625 1503 -206 
L 1606 56 
L 191 3500 
L 800 3500 
L 1894 763 
L 2988 3500 
L 3597 3500 
L 2059 -325 
z
" id="DejaVuSans-79" transform="scale(0.015625)"/>
      <path d="M 2906 2969 
L 2906 4863 
L 3481 4863 
L 3481 0 
L 2906 0 
L 2906 525 
Q 2725 213 2448 61 
Q 2172 -91 1784 -91 
Q 1150 -91 751 415 
Q 353 922 353 1747 
Q 353 2572 751 3078 
Q 1150 3584 1784 3584 
Q 2172 3584 2448 3432 
Q 2725 3281 2906 2969 
z
M 947 1747 
Q 947 1113 1208 752 
Q 1469 391 1925 391 
Q 2381 391 2643 752 
Q 2906 1113 2906 1747 
Q 2906 2381 2643 2742 
Q 2381 3103 1925 3103 
Q 1469 3103 1208 2742 
Q 947 2381 947 1747 
z
" id="DejaVuSans-64" transform="scale(0.015625)"/>
      <path d="M 2631 2963 
Q 2534 3019 2420 3045 
Q 2306 3072 2169 3072 
Q 1681 3072 1420 2755 
Q 1159 2438 1159 1844 
L 1159 0 
L 581 0 
L 581 3500 
L 1159 3500 
L 1159 2956 
Q 1341 3275 1631 3429 
Q 1922 3584 2338 3584 
Q 2397 3584 2469 3576 
Q 2541 3569 2628 3553 
L 2631 2963 
z
" id="DejaVuSans-72" transform="scale(0.015625)"/>
      <path d="M 3122 3366 
L 3122 2828 
Q 2878 2963 2633 3030 
Q 2388 3097 2138 3097 
Q 1578 3097 1268 2742 
Q 959 2388 959 1747 
Q 959 1106 1268 751 
Q 1578 397 2138 397 
Q 2388 397 2633 464 
Q 2878 531 3122 666 
L 3122 134 
Q 2881 22 2623 -34 
Q 2366 -91 2075 -91 
Q 1284 -91 818 406 
Q 353 903 353 1747 
Q 353 2603 823 3093 
Q 1294 3584 2113 3584 
Q 2378 3584 2631 3529 
Q 2884 3475 3122 3366 
z
" id="DejaVuSans-63" transform="scale(0.015625)"/>
      <path d="M 191 3500 
L 800 3500 
L 1894 563 
L 2988 3500 
L 3597 3500 
L 2284 0 
L 1503 0 
L 191 3500 
z
" id="DejaVuSans-76" transform="scale(0.015625)"/>
      <path d="M 1984 4856 
Q 1566 4138 1362 3434 
Q 1159 2731 1159 2009 
Q 1159 1288 1364 580 
Q 1569 -128 1984 -844 
L 1484 -844 
Q 1016 -109 783 600 
Q 550 1309 550 2009 
Q 550 2706 781 3412 
Q 1013 4119 1484 4856 
L 1984 4856 
z
" id="DejaVuSans-28" transform="scale(0.015625)"/>
      <path d="M 513 4856 
L 1013 4856 
Q 1481 4119 1714 3412 
Q 1947 2706 1947 2009 
Q 1947 1309 1714 600 
Q 1481 -109 1013 -844 
L 513 -844 
Q 928 -128 1133 580 
Q 1338 1288 1338 2009 
Q 1338 2731 1133 3434 
Q 928 4138 513 4856 
z
" id="DejaVuSans-29" transform="scale(0.015625)"/>
     </defs>
     <use transform="translate(0 0.015625)" xlink:href="#DejaVuSans-Oblique-52"/>
     <use transform="translate(69.482422 -16.390625)scale(0.7)" xlink:href="#DejaVuSans-65"/>
     <use transform="translate(112.548828 -16.390625)scale(0.7)" xlink:href="#DejaVuSans-66"/>
     <use transform="translate(137.192383 -16.390625)scale(0.7)" xlink:href="#DejaVuSans-66"/>
     <use transform="translate(164.570312 0.015625)" xlink:href="#DejaVuSans-20"/>
     <use transform="translate(196.357422 0.015625)" xlink:href="#DejaVuSans-69"/>
     <use transform="translate(224.140625 0.015625)" xlink:href="#DejaVuSans-6e"/>
     <use transform="translate(287.519531 0.015625)" xlink:href="#DejaVuSans-20"/>
     <use transform="translate(319.306641 0.015625)" xlink:href="#DejaVuSans-4e"/>
     <use transform="translate(394.111328 0.015625)" xlink:href="#DejaVuSans-65"/>
     <use transform="translate(455.634766 0.015625)" xlink:href="#DejaVuSans-77"/>
     <use transform="translate(537.421875 0.015625)" xlink:href="#DejaVuSans-20"/>
     <use transform="translate(569.208984 0.015625)" xlink:href="#DejaVuSans-53"/>
     <use transform="translate(632.685547 0.015625)" xlink:href="#DejaVuSans-6f"/>
     <use transform="translate(693.867188 0.015625)" xlink:href="#DejaVuSans-75"/>
     <use transform="translate(757.246094 0.015625)" xlink:href="#DejaVuSans-74"/>
     <use transform="translate(796.455078 0.015625)" xlink:href="#DejaVuSans-68"/>
     <use transform="translate(859.833984 0.015625)" xlink:href="#DejaVuSans-20"/>
     <use transform="translate(891.621094 0.015625)" xlink:href="#DejaVuSans-57"/>
     <use transform="translate(990.498047 0.015625)" xlink:href="#DejaVuSans-61"/>
     <use transform="translate(1051.777344 0.015625)" xlink:href="#DejaVuSans-6c"/>
     <use transform="translate(1079.560547 0.015625)" xlink:href="#DejaVuSans-65"/>
     <use transform="translate(1141.083984 0.015625)" xlink:href="#DejaVuSans-73"/>
     <use transform="translate(1193.183594 0.015625)" xlink:href="#DejaVuSans-20"/>
     <use transform="translate(1224.970703 0.015625)" xlink:href="#DejaVuSans-77"/>
     <use transform="translate(1306.757812 0.015625)" xlink:href="#DejaVuSans-69"/>
     <use transform="translate(1334.541016 0.015625)" xlink:href="#DejaVuSans-74"/>
     <use transform="translate(1373.75 0.015625)" xlink:href="#DejaVuSans-68"/>
     <use transform="translate(1437.128906 0.015625)" xlink:href="#DejaVuSans-20"/>
     <use transform="translate(1468.916016 0.015625)" xlink:href="#DejaVuSans-53"/>
     <use transform="translate(1532.392578 0.015625)" xlink:href="#DejaVuSans-79"/>
     <use transform="translate(1591.572266 0.015625)" xlink:href="#DejaVuSans-64"/>
     <use transform="translate(1655.048828 0.015625)" xlink:href="#DejaVuSans-6e"/>
     <use transform="translate(1718.427734 0.015625)" xlink:href="#DejaVuSans-65"/>
     <use transform="translate(1779.951172 0.015625)" xlink:href="#DejaVuSans-79"/>
     <use transform="translate(1839.130859 0.015625)" xlink:href="#DejaVuSans-20"/>
     <use transform="translate(1870.917969 0.015625)" xlink:href="#DejaVuSans-72"/>
     <use transform="translate(1912.03125 0.015625)" xlink:href="#DejaVuSans-65"/>
     <use transform="translate(1973.554688 0.015625)" xlink:href="#DejaVuSans-73"/>
     <use transform="translate(2025.654297 0.015625)" xlink:href="#DejaVuSans-74"/>
     <use transform="translate(2064.863281 0.015625)" xlink:href="#DejaVuSans-72"/>
     <use transform="translate(2105.976562 0.015625)" xlink:href="#DejaVuSans-69"/>
     <use transform="translate(2133.759766 0.015625)" xlink:href="#DejaVuSans-63"/>
     <use transform="translate(2188.740234 0.015625)" xlink:href="#DejaVuSans-74"/>
     <use transform="translate(2227.949219 0.015625)" xlink:href="#DejaVuSans-69"/>
     <use transform="translate(2255.732422 0.015625)" xlink:href="#DejaVuSans-6f"/>
     <use transform="translate(2316.914062 0.015625)" xlink:href="#DejaVuSans-6e"/>
     <use transform="translate(2380.292969 0.015625)" xlink:href="#DejaVuSans-20"/>
     <use transform="translate(2412.080078 0.015625)" xlink:href="#DejaVuSans-6c"/>
     <use transform="translate(2439.863281 0.015625)" xlink:href="#DejaVuSans-65"/>
     <use transform="translate(2501.386719 0.015625)" xlink:href="#DejaVuSans-76"/>
     <use transform="translate(2560.566406 0.015625)" xlink:href="#DejaVuSans-65"/>
     <use transform="translate(2622.089844 0.015625)" xlink:href="#DejaVuSans-6c"/>
     <use transform="translate(2649.873047 0.015625)" xlink:href="#DejaVuSans-73"/>
     <use transform="translate(2701.972656 0.015625)" xlink:href="#DejaVuSans-20"/>
     <use transform="translate(2733.759766 0.015625)" xlink:href="#DejaVuSans-61"/>
     <use transform="translate(2795.039062 0.015625)" xlink:href="#DejaVuSans-6e"/>
     <use transform="translate(2858.417969 0.015625)" xlink:href="#DejaVuSans-64"/>
     <use transform="translate(2921.894531 0.015625)" xlink:href="#DejaVuSans-20"/>
     <use transform="translate(2953.681641 0.015625)" xlink:href="#DejaVuSans-64"/>
     <use transform="translate(3017.158203 0.015625)" xlink:href="#DejaVuSans-61"/>
     <use transform="translate(3078.4375 0.015625)" xlink:href="#DejaVuSans-69"/>
     <use transform="translate(3106.220703 0.015625)" xlink:href="#DejaVuSans-6c"/>
     <use transform="translate(3134.003906 0.015625)" xlink:href="#DejaVuSans-79"/>
     <use transform="translate(3193.183594 0.015625)" xlink:href="#DejaVuSans-20"/>
     <use transform="translate(3224.970703 0.015625)" xlink:href="#DejaVuSans-63"/>
     <use transform="translate(3279.951172 0.015625)" xlink:href="#DejaVuSans-61"/>
     <use transform="translate(3341.230469 0.015625)" xlink:href="#DejaVuSans-73"/>
     <use transform="translate(3393.330078 0.015625)" xlink:href="#DejaVuSans-65"/>
     <use transform="translate(3454.853516 0.015625)" xlink:href="#DejaVuSans-73"/>
     <use transform="translate(3506.953125 0.015625)" xlink:href="#DejaVuSans-20"/>
     <use transform="translate(3538.740234 0.015625)" xlink:href="#DejaVuSans-28"/>
     <use transform="translate(3577.753906 0.015625)" xlink:href="#DejaVuSans-6e"/>
     <use transform="translate(3641.132812 0.015625)" xlink:href="#DejaVuSans-6f"/>
     <use transform="translate(3702.314453 0.015625)" xlink:href="#DejaVuSans-6e"/>
     <use transform="translate(3765.693359 0.015625)" xlink:href="#DejaVuSans-2d"/>
     <use transform="translate(3801.777344 0.015625)" xlink:href="#DejaVuSans-69"/>
     <use transform="translate(3829.560547 0.015625)" xlink:href="#DejaVuSans-73"/>
     <use transform="translate(3881.660156 0.015625)" xlink:href="#DejaVuSans-6f"/>
     <use transform="translate(3942.841797 0.015625)" xlink:href="#DejaVuSans-6c"/>
     <use transform="translate(3970.625 0.015625)" xlink:href="#DejaVuSans-61"/>
     <use transform="translate(4031.904297 0.015625)" xlink:href="#DejaVuSans-74"/>
     <use transform="translate(4071.113281 0.015625)" xlink:href="#DejaVuSans-69"/>
     <use transform="translate(4098.896484 0.015625)" xlink:href="#DejaVuSans-6e"/>
     <use transform="translate(4162.275391 0.015625)" xlink:href="#DejaVuSans-67"/>
     <use transform="translate(4225.751953 0.015625)" xlink:href="#DejaVuSans-20"/>
     <use transform="translate(4257.539062 0.015625)" xlink:href="#DejaVuSans-63"/>
     <use transform="translate(4312.519531 0.015625)" xlink:href="#DejaVuSans-61"/>
     <use transform="translate(4373.798828 0.015625)" xlink:href="#DejaVuSans-73"/>
     <use transform="translate(4425.898438 0.015625)" xlink:href="#DejaVuSans-65"/>
     <use transform="translate(4487.421875 0.015625)" xlink:href="#DejaVuSans-73"/>
     <use transform="translate(4539.521484 0.015625)" xlink:href="#DejaVuSans-20"/>
     <use transform="translate(4571.308594 0.015625)" xlink:href="#DejaVuSans-6f"/>
     <use transform="translate(4632.490234 0.015625)" xlink:href="#DejaVuSans-6e"/>
     <use transform="translate(4695.869141 0.015625)" xlink:href="#DejaVuSans-6c"/>
     <use transform="translate(4723.652344 0.015625)" xlink:href="#DejaVuSans-79"/>
     <use transform="translate(4782.832031 0.015625)" xlink:href="#DejaVuSans-29"/>
    </g>
    <!-- Latest estimate: $R_\mathrm{eff}=1.03 \pm 0.37$ -->
    <g transform="translate(257.393895 36.216)scale(0.12 -0.12)">
     <defs>
      <path d="M 628 4666 
L 1259 4666 
L 1259 531 
L 3531 531 
L 3531 0 
L 628 0 
L 628 4666 
z
" id="DejaVuSans-4c" transform="scale(0.015625)"/>
      <path d="M 3328 2828 
Q 3544 3216 3844 3400 
Q 4144 3584 4550 3584 
Q 5097 3584 5394 3201 
Q 5691 2819 5691 2113 
L 5691 0 
L 5113 0 
L 5113 2094 
Q 5113 2597 4934 2840 
Q 4756 3084 4391 3084 
Q 3944 3084 3684 2787 
Q 3425 2491 3425 1978 
L 3425 0 
L 2847 0 
L 2847 2094 
Q 2847 2600 2669 2842 
Q 2491 3084 2119 3084 
Q 1678 3084 1418 2786 
Q 1159 2488 1159 1978 
L 1159 0 
L 581 0 
L 581 3500 
L 1159 3500 
L 1159 2956 
Q 1356 3278 1631 3431 
Q 1906 3584 2284 3584 
Q 2666 3584 2933 3390 
Q 3200 3197 3328 2828 
z
" id="DejaVuSans-6d" transform="scale(0.015625)"/>
      <path d="M 750 794 
L 1409 794 
L 1409 0 
L 750 0 
L 750 794 
z
M 750 3309 
L 1409 3309 
L 1409 2516 
L 750 2516 
L 750 3309 
z
" id="DejaVuSans-3a" transform="scale(0.015625)"/>
      <path d="M 678 2906 
L 4684 2906 
L 4684 2381 
L 678 2381 
L 678 2906 
z
M 678 1631 
L 4684 1631 
L 4684 1100 
L 678 1100 
L 678 1631 
z
" id="DejaVuSans-3d" transform="scale(0.015625)"/>
      <path d="M 2944 4013 
L 2944 2803 
L 4684 2803 
L 4684 2272 
L 2944 2272 
L 2944 1063 
L 2419 1063 
L 2419 2272 
L 678 2272 
L 678 2803 
L 2419 2803 
L 2419 4013 
L 2944 4013 
z
M 678 531 
L 4684 531 
L 4684 0 
L 678 0 
L 678 531 
z
" id="DejaVuSans-b1" transform="scale(0.015625)"/>
      <path d="M 525 4666 
L 3525 4666 
L 3525 4397 
L 1831 0 
L 1172 0 
L 2766 4134 
L 525 4134 
L 525 4666 
z
" id="DejaVuSans-37" transform="scale(0.015625)"/>
     </defs>
     <use transform="translate(0 0.015625)" xlink:href="#DejaVuSans-4c"/>
     <use transform="translate(55.712891 0.015625)" xlink:href="#DejaVuSans-61"/>
     <use transform="translate(116.992188 0.015625)" xlink:href="#DejaVuSans-74"/>
     <use transform="translate(156.201172 0.015625)" xlink:href="#DejaVuSans-65"/>
     <use transform="translate(217.724609 0.015625)" xlink:href="#DejaVuSans-73"/>
     <use transform="translate(269.824219 0.015625)" xlink:href="#DejaVuSans-74"/>
     <use transform="translate(309.033203 0.015625)" xlink:href="#DejaVuSans-20"/>
     <use transform="translate(340.820312 0.015625)" xlink:href="#DejaVuSans-65"/>
     <use transform="translate(402.34375 0.015625)" xlink:href="#DejaVuSans-73"/>
     <use transform="translate(454.443359 0.015625)" xlink:href="#DejaVuSans-74"/>
     <use transform="translate(493.652344 0.015625)" xlink:href="#DejaVuSans-69"/>
     <use transform="translate(521.435547 0.015625)" xlink:href="#DejaVuSans-6d"/>
     <use transform="translate(618.847656 0.015625)" xlink:href="#DejaVuSans-61"/>
     <use transform="translate(680.126953 0.015625)" xlink:href="#DejaVuSans-74"/>
     <use transform="translate(719.335938 0.015625)" xlink:href="#DejaVuSans-65"/>
     <use transform="translate(780.859375 0.015625)" xlink:href="#DejaVuSans-3a"/>
     <use transform="translate(814.550781 0.015625)" xlink:href="#DejaVuSans-20"/>
     <use transform="translate(846.337891 0.015625)" xlink:href="#DejaVuSans-Oblique-52"/>
     <use transform="translate(915.820312 -16.390625)scale(0.7)" xlink:href="#DejaVuSans-65"/>
     <use transform="translate(958.886719 -16.390625)scale(0.7)" xlink:href="#DejaVuSans-66"/>
     <use transform="translate(983.530273 -16.390625)scale(0.7)" xlink:href="#DejaVuSans-66"/>
     <use transform="translate(1030.390625 0.015625)" xlink:href="#DejaVuSans-3d"/>
     <use transform="translate(1133.662109 0.015625)" xlink:href="#DejaVuSans-31"/>
     <use transform="translate(1197.285156 0.015625)" xlink:href="#DejaVuSans-2e"/>
     <use transform="translate(1229.072266 0.015625)" xlink:href="#DejaVuSans-30"/>
     <use transform="translate(1292.695312 0.015625)" xlink:href="#DejaVuSans-33"/>
     <use transform="translate(1375.800781 0.015625)" xlink:href="#DejaVuSans-b1"/>
     <use transform="translate(1479.072266 0.015625)" xlink:href="#DejaVuSans-30"/>
     <use transform="translate(1542.695312 0.015625)" xlink:href="#DejaVuSans-2e"/>
     <use transform="translate(1574.482422 0.015625)" xlink:href="#DejaVuSans-33"/>
     <use transform="translate(1638.105469 0.015625)" xlink:href="#DejaVuSans-37"/>
    </g>
   </g>
  </g>
  <g id="axes_2">
   <g id="PolyCollection_16">
    <defs>
     <path d="M 296.023917 -186.49692 
L 296.023917 -154.82071 
L 308.721912 -151.725917 
L 321.419908 -148.556324 
L 334.117904 -145.341509 
L 346.8159 -142.09744 
L 359.513895 -138.833425 
L 372.211891 -135.555227 
L 384.909887 -132.266599 
L 397.607883 -128.970083 
L 410.305878 -125.667459 
L 423.003874 -122.360012 
L 435.70187 -119.048692 
L 448.399866 -115.734215 
L 461.097861 -112.41713 
L 473.795857 -109.097867 
L 486.493853 -105.776767 
L 499.191848 -102.454103 
L 511.889844 -99.130096 
L 524.58784 -95.804929 
L 537.285836 -92.47875 
L 549.983831 -89.151687 
L 562.681827 -85.823844 
L 575.379823 -82.495311 
L 588.077819 -79.166165 
L 600.775814 -75.83647 
L 613.47381 -72.506283 
L 626.171806 -69.175654 
L 638.869801 -65.844624 
L 651.567797 -62.513231 
L 664.265793 -59.181509 
L 676.963789 -55.849485 
L 676.963789 -302.257355 
L 676.963789 -302.257355 
L 664.265793 -298.365691 
L 651.567797 -294.474328 
L 638.869801 -290.583295 
L 626.171806 -286.692625 
L 613.47381 -282.802355 
L 600.775814 -278.912528 
L 588.077819 -275.023193 
L 575.379823 -271.134406 
L 562.681827 -267.246233 
L 549.983831 -263.35875 
L 537.285836 -259.472046 
L 524.58784 -255.586227 
L 511.889844 -251.701419 
L 499.191848 -247.817772 
L 486.493853 -243.935468 
L 473.795857 -240.054727 
L 461.097861 -236.175824 
L 448.399866 -232.299099 
L 435.70187 -228.424981 
L 423.003874 -224.554021 
L 410.305878 -220.686934 
L 397.607883 -216.82467 
L 384.909887 -212.968513 
L 372.211891 -209.120245 
L 359.513895 -205.282407 
L 346.8159 -201.458751 
L 334.117904 -197.655042 
L 321.419908 -193.880586 
L 308.721912 -190.151354 
L 296.023917 -186.49692 
z
" id="ma15f1e5c9c"/>
    </defs>
    <g clip-path="url(#p5b82cbdbfb)">
     <use style="fill:#ff00ff;fill-opacity:0.3;" x="0" xlink:href="#ma15f1e5c9c" y="432"/>
    </g>
   </g>
   <g id="matplotlib.axis_3">
    <g id="ytick_14">
     <g id="line2d_48">
      <defs>
       <path d="M 0 0 
L 3.5 0 
" id="m5756419297" style="stroke:#000000;stroke-width:0.8;"/>
      </defs>
      <g>
       <use style="stroke:#000000;stroke-width:0.8;" x="670.614791" xlink:href="#m5756419297" y="391.04"/>
      </g>
     </g>
     <g id="text_27">
      <!-- 1 -->
      <g transform="translate(677.614791 394.839219)scale(0.1 -0.1)">
       <use xlink:href="#DejaVuSans-31"/>
      </g>
     </g>
    </g>
    <g id="ytick_15">
     <g id="line2d_49">
      <g>
       <use style="stroke:#000000;stroke-width:0.8;" x="670.614791" xlink:href="#m5756419297" y="274.765333"/>
      </g>
     </g>
     <g id="text_28">
      <!-- 10 -->
      <g transform="translate(677.614791 278.564552)scale(0.1 -0.1)">
       <use xlink:href="#DejaVuSans-31"/>
       <use x="63.623047" xlink:href="#DejaVuSans-30"/>
      </g>
     </g>
    </g>
    <g id="ytick_16">
     <g id="line2d_50">
      <g>
       <use style="stroke:#000000;stroke-width:0.8;" x="670.614791" xlink:href="#m5756419297" y="158.490667"/>
      </g>
     </g>
     <g id="text_29">
      <!-- 100 -->
      <g transform="translate(677.614791 162.289885)scale(0.1 -0.1)">
       <use xlink:href="#DejaVuSans-31"/>
       <use x="63.623047" xlink:href="#DejaVuSans-30"/>
       <use x="127.246094" xlink:href="#DejaVuSans-30"/>
      </g>
     </g>
    </g>
    <g id="ytick_17">
     <g id="line2d_51">
      <g>
       <use style="stroke:#000000;stroke-width:0.8;" x="670.614791" xlink:href="#m5756419297" y="42.216"/>
      </g>
     </g>
     <g id="text_30">
      <!-- 1000 -->
      <g transform="translate(677.614791 46.015219)scale(0.1 -0.1)">
       <use xlink:href="#DejaVuSans-31"/>
       <use x="63.623047" xlink:href="#DejaVuSans-30"/>
       <use x="127.246094" xlink:href="#DejaVuSans-30"/>
       <use x="190.869141" xlink:href="#DejaVuSans-30"/>
      </g>
     </g>
    </g>
    <g id="ytick_18">
     <g id="line2d_52">
      <defs>
       <path d="M 0 0 
L 2 0 
" id="mdcb3955b1f" style="stroke:#000000;stroke-width:0.6;"/>
      </defs>
      <g>
       <use style="stroke:#000000;stroke-width:0.6;" x="670.614791" xlink:href="#mdcb3955b1f" y="356.037838"/>
      </g>
     </g>
     <g id="text_31">
      <!-- 2 -->
      <g transform="translate(676.014791 358.674495)scale(0.0694 -0.0694)">
       <use xlink:href="#DejaVuSans-32"/>
      </g>
     </g>
    </g>
    <g id="ytick_19">
     <g id="line2d_53">
      <g>
       <use style="stroke:#000000;stroke-width:0.6;" x="670.614791" xlink:href="#mdcb3955b1f" y="335.562885"/>
      </g>
     </g>
    </g>
    <g id="ytick_20">
     <g id="line2d_54">
      <g>
       <use style="stroke:#000000;stroke-width:0.6;" x="670.614791" xlink:href="#mdcb3955b1f" y="321.035675"/>
      </g>
     </g>
     <g id="text_32">
      <!-- 4 -->
      <g transform="translate(676.014791 323.672333)scale(0.0694 -0.0694)">
       <use xlink:href="#DejaVuSans-34"/>
      </g>
     </g>
    </g>
    <g id="ytick_21">
     <g id="line2d_55">
      <g>
       <use style="stroke:#000000;stroke-width:0.6;" x="670.614791" xlink:href="#mdcb3955b1f" y="309.767496"/>
      </g>
     </g>
    </g>
    <g id="ytick_22">
     <g id="line2d_56">
      <g>
       <use style="stroke:#000000;stroke-width:0.6;" x="670.614791" xlink:href="#mdcb3955b1f" y="300.560723"/>
      </g>
     </g>
     <g id="text_33">
      <!-- 6 -->
      <g transform="translate(676.014791 303.197381)scale(0.0694 -0.0694)">
       <use xlink:href="#DejaVuSans-36"/>
      </g>
     </g>
    </g>
    <g id="ytick_23">
     <g id="line2d_57">
      <g>
       <use style="stroke:#000000;stroke-width:0.6;" x="670.614791" xlink:href="#mdcb3955b1f" y="292.776507"/>
      </g>
     </g>
    </g>
    <g id="ytick_24">
     <g id="line2d_58">
      <g>
       <use style="stroke:#000000;stroke-width:0.6;" x="670.614791" xlink:href="#mdcb3955b1f" y="286.033513"/>
      </g>
     </g>
     <g id="text_34">
      <!-- 8 -->
      <g transform="translate(676.014791 288.670171)scale(0.0694 -0.0694)">
       <defs>
        <path d="M 2034 2216 
Q 1584 2216 1326 1975 
Q 1069 1734 1069 1313 
Q 1069 891 1326 650 
Q 1584 409 2034 409 
Q 2484 409 2743 651 
Q 3003 894 3003 1313 
Q 3003 1734 2745 1975 
Q 2488 2216 2034 2216 
z
M 1403 2484 
Q 997 2584 770 2862 
Q 544 3141 544 3541 
Q 544 4100 942 4425 
Q 1341 4750 2034 4750 
Q 2731 4750 3128 4425 
Q 3525 4100 3525 3541 
Q 3525 3141 3298 2862 
Q 3072 2584 2669 2484 
Q 3125 2378 3379 2068 
Q 3634 1759 3634 1313 
Q 3634 634 3220 271 
Q 2806 -91 2034 -91 
Q 1263 -91 848 271 
Q 434 634 434 1313 
Q 434 1759 690 2068 
Q 947 2378 1403 2484 
z
M 1172 3481 
Q 1172 3119 1398 2916 
Q 1625 2713 2034 2713 
Q 2441 2713 2670 2916 
Q 2900 3119 2900 3481 
Q 2900 3844 2670 4047 
Q 2441 4250 2034 4250 
Q 1625 4250 1398 4047 
Q 1172 3844 1172 3481 
z
" id="DejaVuSans-38" transform="scale(0.015625)"/>
       </defs>
       <use xlink:href="#DejaVuSans-38"/>
      </g>
     </g>
    </g>
    <g id="ytick_25">
     <g id="line2d_59">
      <g>
       <use style="stroke:#000000;stroke-width:0.6;" x="670.614791" xlink:href="#mdcb3955b1f" y="280.08577"/>
      </g>
     </g>
    </g>
    <g id="ytick_26">
     <g id="line2d_60">
      <g>
       <use style="stroke:#000000;stroke-width:0.6;" x="670.614791" xlink:href="#mdcb3955b1f" y="239.763171"/>
      </g>
     </g>
     <g id="text_35">
      <!-- 20 -->
      <g transform="translate(676.014791 242.399829)scale(0.0694 -0.0694)">
       <use xlink:href="#DejaVuSans-32"/>
       <use x="63.623047" xlink:href="#DejaVuSans-30"/>
      </g>
     </g>
    </g>
    <g id="ytick_27">
     <g id="line2d_61">
      <g>
       <use style="stroke:#000000;stroke-width:0.6;" x="670.614791" xlink:href="#mdcb3955b1f" y="219.288218"/>
      </g>
     </g>
    </g>
    <g id="ytick_28">
     <g id="line2d_62">
      <g>
       <use style="stroke:#000000;stroke-width:0.6;" x="670.614791" xlink:href="#mdcb3955b1f" y="204.761009"/>
      </g>
     </g>
     <g id="text_36">
      <!-- 40 -->
      <g transform="translate(676.014791 207.397666)scale(0.0694 -0.0694)">
       <use xlink:href="#DejaVuSans-34"/>
       <use x="63.623047" xlink:href="#DejaVuSans-30"/>
      </g>
     </g>
    </g>
    <g id="ytick_29">
     <g id="line2d_63">
      <g>
       <use style="stroke:#000000;stroke-width:0.6;" x="670.614791" xlink:href="#mdcb3955b1f" y="193.492829"/>
      </g>
     </g>
    </g>
    <g id="ytick_30">
     <g id="line2d_64">
      <g>
       <use style="stroke:#000000;stroke-width:0.6;" x="670.614791" xlink:href="#mdcb3955b1f" y="184.286056"/>
      </g>
     </g>
     <g id="text_37">
      <!-- 60 -->
      <g transform="translate(676.014791 186.922714)scale(0.0694 -0.0694)">
       <use xlink:href="#DejaVuSans-36"/>
       <use x="63.623047" xlink:href="#DejaVuSans-30"/>
      </g>
     </g>
    </g>
    <g id="ytick_31">
     <g id="line2d_65">
      <g>
       <use style="stroke:#000000;stroke-width:0.6;" x="670.614791" xlink:href="#mdcb3955b1f" y="176.50184"/>
      </g>
     </g>
    </g>
    <g id="ytick_32">
     <g id="line2d_66">
      <g>
       <use style="stroke:#000000;stroke-width:0.6;" x="670.614791" xlink:href="#mdcb3955b1f" y="169.758846"/>
      </g>
     </g>
     <g id="text_38">
      <!-- 80 -->
      <g transform="translate(676.014791 172.395504)scale(0.0694 -0.0694)">
       <use xlink:href="#DejaVuSans-38"/>
       <use x="63.623047" xlink:href="#DejaVuSans-30"/>
      </g>
     </g>
    </g>
    <g id="ytick_33">
     <g id="line2d_67">
      <g>
       <use style="stroke:#000000;stroke-width:0.6;" x="670.614791" xlink:href="#mdcb3955b1f" y="163.811104"/>
      </g>
     </g>
    </g>
    <g id="ytick_34">
     <g id="line2d_68">
      <g>
       <use style="stroke:#000000;stroke-width:0.6;" x="670.614791" xlink:href="#mdcb3955b1f" y="123.488504"/>
      </g>
     </g>
     <g id="text_39">
      <!-- 200 -->
      <g transform="translate(676.014791 126.125162)scale(0.0694 -0.0694)">
       <use xlink:href="#DejaVuSans-32"/>
       <use x="63.623047" xlink:href="#DejaVuSans-30"/>
       <use x="127.246094" xlink:href="#DejaVuSans-30"/>
      </g>
     </g>
    </g>
    <g id="ytick_35">
     <g id="line2d_69">
      <g>
       <use style="stroke:#000000;stroke-width:0.6;" x="670.614791" xlink:href="#mdcb3955b1f" y="103.013552"/>
      </g>
     </g>
    </g>
    <g id="ytick_36">
     <g id="line2d_70">
      <g>
       <use style="stroke:#000000;stroke-width:0.6;" x="670.614791" xlink:href="#mdcb3955b1f" y="88.486342"/>
      </g>
     </g>
     <g id="text_40">
      <!-- 400 -->
      <g transform="translate(676.014791 91.123)scale(0.0694 -0.0694)">
       <use xlink:href="#DejaVuSans-34"/>
       <use x="63.623047" xlink:href="#DejaVuSans-30"/>
       <use x="127.246094" xlink:href="#DejaVuSans-30"/>
      </g>
     </g>
    </g>
    <g id="ytick_37">
     <g id="line2d_71">
      <g>
       <use style="stroke:#000000;stroke-width:0.6;" x="670.614791" xlink:href="#mdcb3955b1f" y="77.218162"/>
      </g>
     </g>
    </g>
    <g id="ytick_38">
     <g id="line2d_72">
      <g>
       <use style="stroke:#000000;stroke-width:0.6;" x="670.614791" xlink:href="#mdcb3955b1f" y="68.011389"/>
      </g>
     </g>
     <g id="text_41">
      <!-- 600 -->
      <g transform="translate(676.014791 70.648047)scale(0.0694 -0.0694)">
       <use xlink:href="#DejaVuSans-36"/>
       <use x="63.623047" xlink:href="#DejaVuSans-30"/>
       <use x="127.246094" xlink:href="#DejaVuSans-30"/>
      </g>
     </g>
    </g>
    <g id="ytick_39">
     <g id="line2d_73">
      <g>
       <use style="stroke:#000000;stroke-width:0.6;" x="670.614791" xlink:href="#mdcb3955b1f" y="60.227174"/>
      </g>
     </g>
    </g>
    <g id="ytick_40">
     <g id="line2d_74">
      <g>
       <use style="stroke:#000000;stroke-width:0.6;" x="670.614791" xlink:href="#mdcb3955b1f" y="53.484179"/>
      </g>
     </g>
     <g id="text_42">
      <!-- 800 -->
      <g transform="translate(676.014791 56.120837)scale(0.0694 -0.0694)">
       <use xlink:href="#DejaVuSans-38"/>
       <use x="63.623047" xlink:href="#DejaVuSans-30"/>
       <use x="127.246094" xlink:href="#DejaVuSans-30"/>
      </g>
     </g>
    </g>
    <g id="ytick_41">
     <g id="line2d_75">
      <g>
       <use style="stroke:#000000;stroke-width:0.6;" x="670.614791" xlink:href="#mdcb3955b1f" y="47.536437"/>
      </g>
     </g>
    </g>
    <g id="text_43">
     <!-- Daily confirmed cases -->
     <g transform="translate(714.663228 271.772531)rotate(-90)scale(0.1 -0.1)">
      <defs>
       <path d="M 1259 4147 
L 1259 519 
L 2022 519 
Q 2988 519 3436 956 
Q 3884 1394 3884 2338 
Q 3884 3275 3436 3711 
Q 2988 4147 2022 4147 
L 1259 4147 
z
M 628 4666 
L 1925 4666 
Q 3281 4666 3915 4102 
Q 4550 3538 4550 2338 
Q 4550 1131 3912 565 
Q 3275 0 1925 0 
L 628 0 
L 628 4666 
z
" id="DejaVuSans-44" transform="scale(0.015625)"/>
      </defs>
      <use xlink:href="#DejaVuSans-44"/>
      <use x="77.001953" xlink:href="#DejaVuSans-61"/>
      <use x="138.28125" xlink:href="#DejaVuSans-69"/>
      <use x="166.064453" xlink:href="#DejaVuSans-6c"/>
      <use x="193.847656" xlink:href="#DejaVuSans-79"/>
      <use x="253.027344" xlink:href="#DejaVuSans-20"/>
      <use x="284.814453" xlink:href="#DejaVuSans-63"/>
      <use x="339.794922" xlink:href="#DejaVuSans-6f"/>
      <use x="400.976562" xlink:href="#DejaVuSans-6e"/>
      <use x="464.355469" xlink:href="#DejaVuSans-66"/>
      <use x="499.560547" xlink:href="#DejaVuSans-69"/>
      <use x="527.34375" xlink:href="#DejaVuSans-72"/>
      <use x="566.707031" xlink:href="#DejaVuSans-6d"/>
      <use x="664.119141" xlink:href="#DejaVuSans-65"/>
      <use x="725.642578" xlink:href="#DejaVuSans-64"/>
      <use x="789.119141" xlink:href="#DejaVuSans-20"/>
      <use x="820.90625" xlink:href="#DejaVuSans-63"/>
      <use x="875.886719" xlink:href="#DejaVuSans-61"/>
      <use x="937.166016" xlink:href="#DejaVuSans-73"/>
      <use x="989.265625" xlink:href="#DejaVuSans-65"/>
      <use x="1050.789062" xlink:href="#DejaVuSans-73"/>
     </g>
    </g>
   </g>
   <g id="line2d_76">
    <path clip-path="url(#p5b82cbdbfb)" d="M 86.506987 433 
L 86.506987 320.783817 
L 99.204983 320.783817 
L 99.204983 390.040018 
L 111.902979 390.040018 
L 111.902979 355.535371 
L 124.600974 355.535371 
L 124.600974 390.040018 
L 137.29897 390.040018 
L 137.29897 433 
M 149.996966 433 
L 149.996966 335.227353 
L 162.694962 335.227353 
L 162.694962 265.474468 
L 175.392957 265.474468 
L 175.392957 320.783817 
L 188.090953 320.783817 
L 188.090953 279.973678 
L 200.788949 279.973678 
L 200.788949 265.474468 
L 213.486945 265.474468 
L 213.486945 242.300224 
L 226.18494 242.300224 
L 226.18494 261.438979 
L 238.882936 261.438979 
L 238.882936 265.474468 
L 251.580932 265.474468 
L 251.580932 269.860682 
L 264.278927 269.860682 
L 264.278927 254.223096 
L 276.976923 254.223096 
L 276.976923 254.223096 
L 289.674919 254.223096 
L 289.674919 265.474468 
L 302.372915 265.474468 
" style="fill:none;stroke:#800080;stroke-linecap:square;stroke-width:1.5;"/>
   </g>
   <g id="line2d_77">
    <path clip-path="url(#p5b82cbdbfb)" d="M 28.610208 433 
L 29.366006 432.089383 
L 42.064002 417.32569 
L 54.761998 403.040026 
L 67.459994 389.151733 
L 80.157989 375.596814 
L 92.855985 362.34348 
L 105.553981 349.417312 
L 118.251977 336.920441 
L 130.949972 325.014913 
L 143.647968 313.891204 
L 156.345964 303.731213 
L 169.043959 294.679081 
L 181.741955 286.825077 
L 194.439951 280.20112 
L 207.137947 274.783958 
L 219.835942 270.501915 
L 232.533938 267.246745 
L 245.231934 264.881965 
L 257.92993 263.256582 
L 270.627925 262.217527 
L 283.325921 261.621005 
L 296.023917 261.341185 
" style="fill:none;stroke:#ff00ff;stroke-linecap:square;stroke-width:1.5;"/>
   </g>
   <g id="line2d_78">
    <path clip-path="url(#p5b82cbdbfb)" d="M 296.023917 261.341185 
L 308.721912 261.061365 
L 321.419908 260.781545 
L 334.117904 260.501724 
L 346.8159 260.221904 
L 359.513895 259.942084 
L 372.211891 259.662264 
L 384.909887 259.382444 
L 397.607883 259.102624 
L 410.305878 258.822803 
L 423.003874 258.542983 
L 435.70187 258.263163 
L 448.399866 257.983343 
L 461.097861 257.703523 
L 473.795857 257.423703 
L 486.493853 257.143882 
L 499.191848 256.864062 
L 511.889844 256.584242 
L 524.58784 256.304422 
L 537.285836 256.024602 
L 549.983831 255.744782 
L 562.681827 255.464962 
L 575.379823 255.185141 
L 588.077819 254.905321 
L 600.775814 254.625501 
L 613.47381 254.345681 
L 626.171806 254.065861 
L 638.869801 253.786041 
L 651.567797 253.50622 
L 664.265793 253.2264 
L 676.963789 252.94658 
" style="fill:none;stroke:#ff00ff;stroke-dasharray:5.55,2.4;stroke-dashoffset:0;stroke-width:1.5;"/>
   </g>
   <g id="patch_7">
    <path d="M 48.413 391.04 
L 48.413 42.216 
" style="fill:none;stroke:#000000;stroke-linecap:square;stroke-linejoin:miter;stroke-width:0.8;"/>
   </g>
   <g id="patch_8">
    <path d="M 670.614791 391.04 
L 670.614791 42.216 
" style="fill:none;stroke:#000000;stroke-linecap:square;stroke-linejoin:miter;stroke-width:0.8;"/>
   </g>
   <g id="patch_9">
    <path d="M 48.413 391.04 
L 670.614791 391.04 
" style="fill:none;stroke:#000000;stroke-linecap:square;stroke-linejoin:miter;stroke-width:0.8;"/>
   </g>
   <g id="patch_10">
    <path d="M 48.413 42.216 
L 670.614791 42.216 
" style="fill:none;stroke:#000000;stroke-linecap:square;stroke-linejoin:miter;stroke-width:0.8;"/>
   </g>
   <g id="legend_1">
    <g id="patch_11">
     <path d="M 486.933541 182.341 
L 663.614791 182.341 
Q 665.614791 182.341 665.614791 180.341 
L 665.614791 49.216 
Q 665.614791 47.216 663.614791 47.216 
L 486.933541 47.216 
Q 484.933541 47.216 484.933541 49.216 
L 484.933541 180.341 
Q 484.933541 182.341 486.933541 182.341 
z
" style="fill:#ffffff;opacity:0.8;stroke:#cccccc;stroke-linejoin:miter;"/>
    </g>
    <g id="patch_12">
     <path d="M 488.933541 58.814437 
L 508.933541 58.814437 
L 508.933541 51.814437 
L 488.933541 51.814437 
z
" style="fill:#1f77b4;stroke:#1f77b4;stroke-linejoin:miter;"/>
    </g>
    <g id="text_44">
     <!-- $R_\mathrm{eff}$ -->
     <g transform="translate(516.933541 58.814437)scale(0.1 -0.1)">
      <use transform="translate(0 0.09375)" xlink:href="#DejaVuSans-Oblique-52"/>
      <use transform="translate(69.482422 -16.3125)scale(0.7)" xlink:href="#DejaVuSans-65"/>
      <use transform="translate(112.548828 -16.3125)scale(0.7)" xlink:href="#DejaVuSans-66"/>
      <use transform="translate(137.192383 -16.3125)scale(0.7)" xlink:href="#DejaVuSans-66"/>
     </g>
    </g>
    <g id="patch_13">
     <path d="M 488.933541 73.494125 
L 508.933541 73.494125 
L 508.933541 66.494125 
L 488.933541 66.494125 
z
" style="fill:url(#h50766d0d29);opacity:0.2;stroke:#0000ff;stroke-linejoin:miter;"/>
    </g>
    <g id="text_45">
     <!-- $R_\mathrm{eff}$ uncertainty -->
     <g transform="translate(516.933541 73.494125)scale(0.1 -0.1)">
      <use transform="translate(0 0.015625)" xlink:href="#DejaVuSans-Oblique-52"/>
      <use transform="translate(69.482422 -16.390625)scale(0.7)" xlink:href="#DejaVuSans-65"/>
      <use transform="translate(112.548828 -16.390625)scale(0.7)" xlink:href="#DejaVuSans-66"/>
      <use transform="translate(137.192383 -16.390625)scale(0.7)" xlink:href="#DejaVuSans-66"/>
      <use transform="translate(164.570312 0.015625)" xlink:href="#DejaVuSans-20"/>
      <use transform="translate(196.357422 0.015625)" xlink:href="#DejaVuSans-75"/>
      <use transform="translate(259.736328 0.015625)" xlink:href="#DejaVuSans-6e"/>
      <use transform="translate(323.115234 0.015625)" xlink:href="#DejaVuSans-63"/>
      <use transform="translate(378.095703 0.015625)" xlink:href="#DejaVuSans-65"/>
      <use transform="translate(439.619141 0.015625)" xlink:href="#DejaVuSans-72"/>
      <use transform="translate(480.732422 0.015625)" xlink:href="#DejaVuSans-74"/>
      <use transform="translate(519.941406 0.015625)" xlink:href="#DejaVuSans-61"/>
      <use transform="translate(581.220703 0.015625)" xlink:href="#DejaVuSans-69"/>
      <use transform="translate(609.003906 0.015625)" xlink:href="#DejaVuSans-6e"/>
      <use transform="translate(672.382812 0.015625)" xlink:href="#DejaVuSans-74"/>
      <use transform="translate(711.591797 0.015625)" xlink:href="#DejaVuSans-79"/>
     </g>
    </g>
    <g id="line2d_79">
     <path d="M 488.933541 84.692562 
L 508.933541 84.692562 
" style="fill:none;stroke:#800080;stroke-linecap:square;stroke-width:1.5;"/>
    </g>
    <g id="line2d_80"/>
    <g id="text_46">
     <!-- Daily cases -->
     <g transform="translate(516.933541 88.192562)scale(0.1 -0.1)">
      <use xlink:href="#DejaVuSans-44"/>
      <use x="77.001953" xlink:href="#DejaVuSans-61"/>
      <use x="138.28125" xlink:href="#DejaVuSans-69"/>
      <use x="166.064453" xlink:href="#DejaVuSans-6c"/>
      <use x="193.847656" xlink:href="#DejaVuSans-79"/>
      <use x="253.027344" xlink:href="#DejaVuSans-20"/>
      <use x="284.814453" xlink:href="#DejaVuSans-63"/>
      <use x="339.794922" xlink:href="#DejaVuSans-61"/>
      <use x="401.074219" xlink:href="#DejaVuSans-73"/>
      <use x="453.173828" xlink:href="#DejaVuSans-65"/>
      <use x="514.697266" xlink:href="#DejaVuSans-73"/>
     </g>
    </g>
    <g id="line2d_81">
     <path d="M 488.933541 99.370687 
L 508.933541 99.370687 
" style="fill:none;stroke:#ff00ff;stroke-linecap:square;stroke-width:1.5;"/>
    </g>
    <g id="line2d_82"/>
    <g id="text_47">
     <!-- Daily cases (smoothed) -->
     <g transform="translate(516.933541 102.870687)scale(0.1 -0.1)">
      <use xlink:href="#DejaVuSans-44"/>
      <use x="77.001953" xlink:href="#DejaVuSans-61"/>
      <use x="138.28125" xlink:href="#DejaVuSans-69"/>
      <use x="166.064453" xlink:href="#DejaVuSans-6c"/>
      <use x="193.847656" xlink:href="#DejaVuSans-79"/>
      <use x="253.027344" xlink:href="#DejaVuSans-20"/>
      <use x="284.814453" xlink:href="#DejaVuSans-63"/>
      <use x="339.794922" xlink:href="#DejaVuSans-61"/>
      <use x="401.074219" xlink:href="#DejaVuSans-73"/>
      <use x="453.173828" xlink:href="#DejaVuSans-65"/>
      <use x="514.697266" xlink:href="#DejaVuSans-73"/>
      <use x="566.796875" xlink:href="#DejaVuSans-20"/>
      <use x="598.583984" xlink:href="#DejaVuSans-28"/>
      <use x="637.597656" xlink:href="#DejaVuSans-73"/>
      <use x="689.697266" xlink:href="#DejaVuSans-6d"/>
      <use x="787.109375" xlink:href="#DejaVuSans-6f"/>
      <use x="848.291016" xlink:href="#DejaVuSans-6f"/>
      <use x="909.472656" xlink:href="#DejaVuSans-74"/>
      <use x="948.681641" xlink:href="#DejaVuSans-68"/>
      <use x="1012.060547" xlink:href="#DejaVuSans-65"/>
      <use x="1073.583984" xlink:href="#DejaVuSans-64"/>
      <use x="1137.060547" xlink:href="#DejaVuSans-29"/>
     </g>
    </g>
    <g id="line2d_83">
     <path d="M 488.933541 114.048812 
L 508.933541 114.048812 
" style="fill:none;stroke:#ff00ff;stroke-dasharray:5.55,2.4;stroke-dashoffset:0;stroke-width:1.5;"/>
    </g>
    <g id="line2d_84"/>
    <g id="text_48">
     <!-- Daily cases (trend) -->
     <g transform="translate(516.933541 117.548812)scale(0.1 -0.1)">
      <use xlink:href="#DejaVuSans-44"/>
      <use x="77.001953" xlink:href="#DejaVuSans-61"/>
      <use x="138.28125" xlink:href="#DejaVuSans-69"/>
      <use x="166.064453" xlink:href="#DejaVuSans-6c"/>
      <use x="193.847656" xlink:href="#DejaVuSans-79"/>
      <use x="253.027344" xlink:href="#DejaVuSans-20"/>
      <use x="284.814453" xlink:href="#DejaVuSans-63"/>
      <use x="339.794922" xlink:href="#DejaVuSans-61"/>
      <use x="401.074219" xlink:href="#DejaVuSans-73"/>
      <use x="453.173828" xlink:href="#DejaVuSans-65"/>
      <use x="514.697266" xlink:href="#DejaVuSans-73"/>
      <use x="566.796875" xlink:href="#DejaVuSans-20"/>
      <use x="598.583984" xlink:href="#DejaVuSans-28"/>
      <use x="637.597656" xlink:href="#DejaVuSans-74"/>
      <use x="676.806641" xlink:href="#DejaVuSans-72"/>
      <use x="715.669922" xlink:href="#DejaVuSans-65"/>
      <use x="777.193359" xlink:href="#DejaVuSans-6e"/>
      <use x="840.572266" xlink:href="#DejaVuSans-64"/>
      <use x="904.048828" xlink:href="#DejaVuSans-29"/>
     </g>
    </g>
    <g id="patch_14">
     <path d="M 488.933541 132.226937 
L 508.933541 132.226937 
L 508.933541 125.226937 
L 488.933541 125.226937 
z
" style="fill:#ff00ff;opacity:0.3;"/>
    </g>
    <g id="text_49">
     <!-- Smoothing/trend uncertainty -->
     <g transform="translate(516.933541 132.226937)scale(0.1 -0.1)">
      <defs>
       <path d="M 1625 4666 
L 2156 4666 
L 531 -594 
L 0 -594 
L 1625 4666 
z
" id="DejaVuSans-2f" transform="scale(0.015625)"/>
      </defs>
      <use xlink:href="#DejaVuSans-53"/>
      <use x="63.476562" xlink:href="#DejaVuSans-6d"/>
      <use x="160.888672" xlink:href="#DejaVuSans-6f"/>
      <use x="222.070312" xlink:href="#DejaVuSans-6f"/>
      <use x="283.251953" xlink:href="#DejaVuSans-74"/>
      <use x="322.460938" xlink:href="#DejaVuSans-68"/>
      <use x="385.839844" xlink:href="#DejaVuSans-69"/>
      <use x="413.623047" xlink:href="#DejaVuSans-6e"/>
      <use x="477.001953" xlink:href="#DejaVuSans-67"/>
      <use x="540.478516" xlink:href="#DejaVuSans-2f"/>
      <use x="574.169922" xlink:href="#DejaVuSans-74"/>
      <use x="613.378906" xlink:href="#DejaVuSans-72"/>
      <use x="652.242188" xlink:href="#DejaVuSans-65"/>
      <use x="713.765625" xlink:href="#DejaVuSans-6e"/>
      <use x="777.144531" xlink:href="#DejaVuSans-64"/>
      <use x="840.621094" xlink:href="#DejaVuSans-20"/>
      <use x="872.408203" xlink:href="#DejaVuSans-75"/>
      <use x="935.787109" xlink:href="#DejaVuSans-6e"/>
      <use x="999.166016" xlink:href="#DejaVuSans-63"/>
      <use x="1054.146484" xlink:href="#DejaVuSans-65"/>
      <use x="1115.669922" xlink:href="#DejaVuSans-72"/>
      <use x="1156.783203" xlink:href="#DejaVuSans-74"/>
      <use x="1195.992188" xlink:href="#DejaVuSans-61"/>
      <use x="1257.271484" xlink:href="#DejaVuSans-69"/>
      <use x="1285.054688" xlink:href="#DejaVuSans-6e"/>
      <use x="1348.433594" xlink:href="#DejaVuSans-74"/>
      <use x="1387.642578" xlink:href="#DejaVuSans-79"/>
     </g>
    </g>
    <g id="patch_15">
     <path d="M 488.933541 146.905062 
L 508.933541 146.905062 
L 508.933541 139.905062 
L 488.933541 139.905062 
z
" style="fill:#ffff00;opacity:0.3;"/>
    </g>
    <g id="text_50">
     <!-- Initial restrictions -->
     <g transform="translate(516.933541 146.905062)scale(0.1 -0.1)">
      <defs>
       <path d="M 628 4666 
L 1259 4666 
L 1259 0 
L 628 0 
L 628 4666 
z
" id="DejaVuSans-49" transform="scale(0.015625)"/>
      </defs>
      <use xlink:href="#DejaVuSans-49"/>
      <use x="29.492188" xlink:href="#DejaVuSans-6e"/>
      <use x="92.871094" xlink:href="#DejaVuSans-69"/>
      <use x="120.654297" xlink:href="#DejaVuSans-74"/>
      <use x="159.863281" xlink:href="#DejaVuSans-69"/>
      <use x="187.646484" xlink:href="#DejaVuSans-61"/>
      <use x="248.925781" xlink:href="#DejaVuSans-6c"/>
      <use x="276.708984" xlink:href="#DejaVuSans-20"/>
      <use x="308.496094" xlink:href="#DejaVuSans-72"/>
      <use x="347.359375" xlink:href="#DejaVuSans-65"/>
      <use x="408.882812" xlink:href="#DejaVuSans-73"/>
      <use x="460.982422" xlink:href="#DejaVuSans-74"/>
      <use x="500.191406" xlink:href="#DejaVuSans-72"/>
      <use x="541.304688" xlink:href="#DejaVuSans-69"/>
      <use x="569.087891" xlink:href="#DejaVuSans-63"/>
      <use x="624.068359" xlink:href="#DejaVuSans-74"/>
      <use x="663.277344" xlink:href="#DejaVuSans-69"/>
      <use x="691.060547" xlink:href="#DejaVuSans-6f"/>
      <use x="752.242188" xlink:href="#DejaVuSans-6e"/>
      <use x="815.621094" xlink:href="#DejaVuSans-73"/>
     </g>
    </g>
    <g id="patch_16">
     <path d="M 488.933541 161.583187 
L 508.933541 161.583187 
L 508.933541 154.583187 
L 488.933541 154.583187 
z
" style="fill:#ffa500;opacity:0.3;"/>
    </g>
    <g id="text_51">
     <!-- East Sydney LGA lockdown -->
     <g transform="translate(516.933541 161.583187)scale(0.1 -0.1)">
      <defs>
       <path d="M 628 4666 
L 3578 4666 
L 3578 4134 
L 1259 4134 
L 1259 2753 
L 3481 2753 
L 3481 2222 
L 1259 2222 
L 1259 531 
L 3634 531 
L 3634 0 
L 628 0 
L 628 4666 
z
" id="DejaVuSans-45" transform="scale(0.015625)"/>
       <path d="M 3809 666 
L 3809 1919 
L 2778 1919 
L 2778 2438 
L 4434 2438 
L 4434 434 
Q 4069 175 3628 42 
Q 3188 -91 2688 -91 
Q 1594 -91 976 548 
Q 359 1188 359 2328 
Q 359 3472 976 4111 
Q 1594 4750 2688 4750 
Q 3144 4750 3555 4637 
Q 3966 4525 4313 4306 
L 4313 3634 
Q 3963 3931 3569 4081 
Q 3175 4231 2741 4231 
Q 1884 4231 1454 3753 
Q 1025 3275 1025 2328 
Q 1025 1384 1454 906 
Q 1884 428 2741 428 
Q 3075 428 3337 486 
Q 3600 544 3809 666 
z
" id="DejaVuSans-47" transform="scale(0.015625)"/>
       <path d="M 581 4863 
L 1159 4863 
L 1159 1991 
L 2875 3500 
L 3609 3500 
L 1753 1863 
L 3688 0 
L 2938 0 
L 1159 1709 
L 1159 0 
L 581 0 
L 581 4863 
z
" id="DejaVuSans-6b" transform="scale(0.015625)"/>
      </defs>
      <use xlink:href="#DejaVuSans-45"/>
      <use x="63.183594" xlink:href="#DejaVuSans-61"/>
      <use x="124.462891" xlink:href="#DejaVuSans-73"/>
      <use x="176.5625" xlink:href="#DejaVuSans-74"/>
      <use x="215.771484" xlink:href="#DejaVuSans-20"/>
      <use x="247.558594" xlink:href="#DejaVuSans-53"/>
      <use x="311.035156" xlink:href="#DejaVuSans-79"/>
      <use x="370.214844" xlink:href="#DejaVuSans-64"/>
      <use x="433.691406" xlink:href="#DejaVuSans-6e"/>
      <use x="497.070312" xlink:href="#DejaVuSans-65"/>
      <use x="558.59375" xlink:href="#DejaVuSans-79"/>
      <use x="617.773438" xlink:href="#DejaVuSans-20"/>
      <use x="649.560547" xlink:href="#DejaVuSans-4c"/>
      <use x="705.273438" xlink:href="#DejaVuSans-47"/>
      <use x="782.763672" xlink:href="#DejaVuSans-41"/>
      <use x="851.171875" xlink:href="#DejaVuSans-20"/>
      <use x="882.958984" xlink:href="#DejaVuSans-6c"/>
      <use x="910.742188" xlink:href="#DejaVuSans-6f"/>
      <use x="971.923828" xlink:href="#DejaVuSans-63"/>
      <use x="1026.904297" xlink:href="#DejaVuSans-6b"/>
      <use x="1084.814453" xlink:href="#DejaVuSans-64"/>
      <use x="1148.291016" xlink:href="#DejaVuSans-6f"/>
      <use x="1209.472656" xlink:href="#DejaVuSans-77"/>
      <use x="1291.259766" xlink:href="#DejaVuSans-6e"/>
     </g>
    </g>
    <g id="patch_17">
     <path d="M 488.933541 176.261312 
L 508.933541 176.261312 
L 508.933541 169.261312 
L 488.933541 169.261312 
z
" style="fill:#ff0000;opacity:0.3;"/>
    </g>
    <g id="text_52">
     <!-- Greater Sydney lockdown -->
     <g transform="translate(516.933541 176.261312)scale(0.1 -0.1)">
      <use xlink:href="#DejaVuSans-47"/>
      <use x="77.490234" xlink:href="#DejaVuSans-72"/>
      <use x="116.353516" xlink:href="#DejaVuSans-65"/>
      <use x="177.876953" xlink:href="#DejaVuSans-61"/>
      <use x="239.15625" xlink:href="#DejaVuSans-74"/>
      <use x="278.365234" xlink:href="#DejaVuSans-65"/>
      <use x="339.888672" xlink:href="#DejaVuSans-72"/>
      <use x="381.001953" xlink:href="#DejaVuSans-20"/>
      <use x="412.789062" xlink:href="#DejaVuSans-53"/>
      <use x="476.265625" xlink:href="#DejaVuSans-79"/>
      <use x="535.445312" xlink:href="#DejaVuSans-64"/>
      <use x="598.921875" xlink:href="#DejaVuSans-6e"/>
      <use x="662.300781" xlink:href="#DejaVuSans-65"/>
      <use x="723.824219" xlink:href="#DejaVuSans-79"/>
      <use x="783.003906" xlink:href="#DejaVuSans-20"/>
      <use x="814.791016" xlink:href="#DejaVuSans-6c"/>
      <use x="842.574219" xlink:href="#DejaVuSans-6f"/>
      <use x="903.755859" xlink:href="#DejaVuSans-63"/>
      <use x="958.736328" xlink:href="#DejaVuSans-6b"/>
      <use x="1016.646484" xlink:href="#DejaVuSans-64"/>
      <use x="1080.123047" xlink:href="#DejaVuSans-6f"/>
      <use x="1141.304688" xlink:href="#DejaVuSans-77"/>
      <use x="1223.091797" xlink:href="#DejaVuSans-6e"/>
     </g>
    </g>
   </g>
   <g id="PolyCollection_17">
    <defs>
     <path d="M 3.970015 9.101318 
L 3.970015 71.77469 
L 16.668011 46.465222 
L 29.366006 25.424378 
L 42.064002 6.622931 
L 54.761998 -10.849733 
L 67.459994 -27.441182 
L 80.157989 -43.323063 
L 92.855985 -58.517742 
L 105.553981 -72.967544 
L 118.251977 -86.579122 
L 130.949972 -99.259628 
L 143.647968 -110.919557 
L 156.345964 -121.468894 
L 169.043959 -130.826442 
L 181.741955 -138.937319 
L 194.439951 -145.782157 
L 207.137947 -151.368439 
L 219.835942 -155.703781 
L 232.533938 -158.756861 
L 245.231934 -160.444053 
L 257.92993 -160.665472 
L 270.627925 -159.349497 
L 283.325921 -156.414121 
L 296.023917 -151.653821 
L 296.023917 -184.434682 
L 296.023917 -184.434682 
L 283.325921 -181.306742 
L 270.627925 -178.424669 
L 257.92993 -175.705593 
L 245.231934 -173.012036 
L 232.533938 -170.11258 
L 219.835942 -166.695436 
L 207.137947 -162.456224 
L 194.439951 -157.174433 
L 181.741955 -150.726058 
L 169.043959 -143.074521 
L 156.345964 -134.260741 
L 143.647968 -124.400912 
L 130.949972 -113.683968 
L 118.251977 -102.353132 
L 105.553981 -90.656588 
L 92.855985 -78.776841 
L 80.157989 -66.782782 
L 67.459994 -54.637105 
L 54.761998 -42.261963 
L 42.064002 -29.607696 
L 29.366006 -16.703001 
L 16.668011 -3.707189 
L 3.970015 9.101318 
z
" id="m12cbae0f19"/>
    </defs>
    <g clip-path="url(#p5b82cbdbfb)">
     <use style="fill:#ff00ff;fill-opacity:0.3;" x="0" xlink:href="#m12cbae0f19" y="432"/>
    </g>
   </g>
  </g>
 </g>
 <defs>
  <clipPath id="p5b82cbdbfb">
   <rect height="348.824" width="622.201791" x="48.413" y="42.216"/>
  </clipPath>
 </defs>
 <defs>
  <pattern height="72" id="h50766d0d29" patternUnits="userSpaceOnUse" width="72" x="0" y="0">
   <rect fill="#00ffff" height="73" width="73" x="0" y="0"/>
   <path d="M -36 36 
L 36 -36 
M -33 39 
L 39 -33 
M -30 42 
L 42 -30 
M -27 45 
L 45 -27 
M -24 48 
L 48 -24 
M -21 51 
L 51 -21 
M -18 54 
L 54 -18 
M -15 57 
L 57 -15 
M -12 60 
L 60 -12 
M -9 63 
L 63 -9 
M -6 66 
L 66 -6 
M -3 69 
L 69 -3 
M 0 72 
L 72 0 
M 3 75 
L 75 3 
M 6 78 
L 78 6 
M 9 81 
L 81 9 
M 12 84 
L 84 12 
M 15 87 
L 87 15 
M 18 90 
L 90 18 
M 21 93 
L 93 21 
M 24 96 
L 96 24 
M 27 99 
L 99 27 
M 30 102 
L 102 30 
M 33 105 
L 105 33 
M 36 108 
L 108 36 
" style="fill:#0000ff;stroke:#0000ff;stroke-linecap:butt;stroke-linejoin:miter;stroke-opacity:0.2;stroke-width:1.0;"/>
  </pattern>
 </defs>
</svg>
