<?xml version="1.0" encoding="utf-8" standalone="no"?>
<!DOCTYPE svg PUBLIC "-//W3C//DTD SVG 1.1//EN"
  "http://www.w3.org/Graphics/SVG/1.1/DTD/svg11.dtd">
<svg xmlns:xlink="http://www.w3.org/1999/xlink" width="720pt" height="432pt" viewBox="0 0 720 432" xmlns="http://www.w3.org/2000/svg" version="1.1">
 <metadata>
  <rdf:RDF xmlns:dc="http://purl.org/dc/elements/1.1/" xmlns:cc="http://creativecommons.org/ns#" xmlns:rdf="http://www.w3.org/1999/02/22-rdf-syntax-ns#">
   <cc:Work>
    <dc:type rdf:resource="http://purl.org/dc/dcmitype/StillImage"/>
    <dc:date>2021-12-22T14:34:34.133707</dc:date>
    <dc:format>image/svg+xml</dc:format>
    <dc:creator>
     <cc:Agent>
      <dc:title>Matplotlib v3.5.1, https://matplotlib.org/</dc:title>
     </cc:Agent>
    </dc:creator>
   </cc:Work>
  </rdf:RDF>
 </metadata>
 <defs>
  <style type="text/css">*{stroke-linejoin: round; stroke-linecap: butt}</style>
 </defs>
 <g id="figure_1">
  <g id="patch_1">
   <path d="M 0 432 
L 720 432 
L 720 0 
L 0 0 
z
" style="fill: #ffffff"/>
  </g>
  <g id="axes_1">
   <g id="patch_2">
    <path d="M 62.948 383.84 
L 662.662315 383.84 
L 662.662315 53.664 
L 62.948 53.664 
z
" style="fill: #ffffff"/>
   </g>
   <g id="PolyCollection_1">
    <defs>
     <path id="mf2637a6f6b" d="M 29.630538 -48.16 
L 29.630538 -176.72795 
L 29.630538 -176.079118 
L 40.736359 -176.079118 
L 40.736359 -176.673877 
L 51.842179 -176.673877 
L 51.842179 -178.781077 
L 62.948 -178.781077 
L 62.948 -182.119879 
L 74.053821 -182.119879 
L 74.053821 -185.546957 
L 85.159641 -185.546957 
L 85.159641 -187.313023 
L 96.265462 -187.313023 
L 96.265462 -185.722584 
L 107.371283 -185.722584 
L 107.371283 -179.962497 
L 118.477103 -179.962497 
L 118.477103 -170.924616 
L 129.582924 -170.924616 
L 129.582924 -160.518689 
L 140.688745 -160.518689 
L 140.688745 -151.080799 
L 151.794565 -151.080799 
L 151.794565 -144.604957 
L 162.900386 -144.604957 
L 162.900386 -142.564205 
L 174.006207 -142.564205 
L 174.006207 -146.024671 
L 185.112027 -146.024671 
L 185.112027 -155.704767 
L 196.217848 -155.704767 
L 196.217848 -171.678614 
L 207.323668 -171.678614 
L 207.323668 -192.822069 
L 218.429489 -192.822069 
L 218.429489 -216.770814 
L 229.53531 -216.770814 
L 229.53531 -240.632693 
L 240.64113 -240.632693 
L 240.64113 -262.134332 
L 251.746951 -262.134332 
L 251.746951 -280.194639 
L 262.852772 -280.194639 
L 262.852772 -294.579004 
L 273.958592 -294.579004 
L 273.958592 -305.525185 
L 285.064413 -305.525185 
L 285.064413 -313.317035 
L 296.170234 -313.317035 
L 296.170234 -318.323954 
L 307.276054 -318.323954 
L 307.276054 -321.012511 
L 318.381875 -321.012511 
L 318.381875 -321.754422 
L 329.487696 -321.754422 
L 329.487696 -321.432117 
L 340.593516 -321.432117 
L 340.593516 -320.324328 
L 351.699337 -320.324328 
L 351.699337 -318.591793 
L 362.805158 -318.591793 
L 362.805158 -48.16 
L 362.805158 -48.16 
L 351.699337 -48.16 
L 351.699337 -48.16 
L 340.593516 -48.16 
L 340.593516 -48.16 
L 329.487696 -48.16 
L 329.487696 -48.16 
L 318.381875 -48.16 
L 318.381875 -48.16 
L 307.276054 -48.16 
L 307.276054 -48.16 
L 296.170234 -48.16 
L 296.170234 -48.16 
L 285.064413 -48.16 
L 285.064413 -48.16 
L 273.958592 -48.16 
L 273.958592 -48.16 
L 262.852772 -48.16 
L 262.852772 -48.16 
L 251.746951 -48.16 
L 251.746951 -48.16 
L 240.64113 -48.16 
L 240.64113 -48.16 
L 229.53531 -48.16 
L 229.53531 -48.16 
L 218.429489 -48.16 
L 218.429489 -48.16 
L 207.323668 -48.16 
L 207.323668 -48.16 
L 196.217848 -48.16 
L 196.217848 -48.16 
L 185.112027 -48.16 
L 185.112027 -48.16 
L 174.006207 -48.16 
L 174.006207 -48.16 
L 162.900386 -48.16 
L 162.900386 -48.16 
L 151.794565 -48.16 
L 151.794565 -48.16 
L 140.688745 -48.16 
L 140.688745 -48.16 
L 129.582924 -48.16 
L 129.582924 -48.16 
L 118.477103 -48.16 
L 118.477103 -48.16 
L 107.371283 -48.16 
L 107.371283 -48.16 
L 96.265462 -48.16 
L 96.265462 -48.16 
L 85.159641 -48.16 
L 85.159641 -48.16 
L 74.053821 -48.16 
L 74.053821 -48.16 
L 62.948 -48.16 
L 62.948 -48.16 
L 51.842179 -48.16 
L 51.842179 -48.16 
L 40.736359 -48.16 
L 40.736359 -48.16 
L 29.630538 -48.16 
L 29.630538 -48.16 
z
" style="stroke: #1f77b4"/>
    </defs>
    <g clip-path="url(#p446861ba12)">
     <use xlink:href="#mf2637a6f6b" x="0" y="432" style="fill: #1f77b4; stroke: #1f77b4"/>
    </g>
   </g>
   <g id="matplotlib.axis_1">
    <g id="xtick_1">
     <g id="line2d_1">
      <path d="M 62.948 383.84 
L 62.948 53.664 
" clip-path="url(#p446861ba12)" style="fill: none; stroke-dasharray: 0.8,1.32; stroke-dashoffset: 0; stroke: #000000; stroke-opacity: 0.5; stroke-width: 0.8"/>
     </g>
     <g id="line2d_2">
      <defs>
       <path id="mc64c38d793" d="M 0 0 
L 0 3.5 
" style="stroke: #000000; stroke-width: 0.8"/>
      </defs>
      <g>
       <use xlink:href="#mc64c38d793" x="62.948" y="383.84" style="stroke: #000000; stroke-width: 0.8"/>
      </g>
     </g>
     <g id="text_1">
      <!-- 25 -->
      <g transform="translate(56.5855 398.438437)scale(0.1 -0.1)">
       <defs>
        <path id="DejaVuSans-32" d="M 1228 531 
L 3431 531 
L 3431 0 
L 469 0 
L 469 531 
Q 828 903 1448 1529 
Q 2069 2156 2228 2338 
Q 2531 2678 2651 2914 
Q 2772 3150 2772 3378 
Q 2772 3750 2511 3984 
Q 2250 4219 1831 4219 
Q 1534 4219 1204 4116 
Q 875 4013 500 3803 
L 500 4441 
Q 881 4594 1212 4672 
Q 1544 4750 1819 4750 
Q 2544 4750 2975 4387 
Q 3406 4025 3406 3419 
Q 3406 3131 3298 2873 
Q 3191 2616 2906 2266 
Q 2828 2175 2409 1742 
Q 1991 1309 1228 531 
z
" transform="scale(0.015625)"/>
        <path id="DejaVuSans-35" d="M 691 4666 
L 3169 4666 
L 3169 4134 
L 1269 4134 
L 1269 2991 
Q 1406 3038 1543 3061 
Q 1681 3084 1819 3084 
Q 2600 3084 3056 2656 
Q 3513 2228 3513 1497 
Q 3513 744 3044 326 
Q 2575 -91 1722 -91 
Q 1428 -91 1123 -41 
Q 819 9 494 109 
L 494 744 
Q 775 591 1075 516 
Q 1375 441 1709 441 
Q 2250 441 2565 725 
Q 2881 1009 2881 1497 
Q 2881 1984 2565 2268 
Q 2250 2553 1709 2553 
Q 1456 2553 1204 2497 
Q 953 2441 691 2322 
L 691 4666 
z
" transform="scale(0.015625)"/>
       </defs>
       <use xlink:href="#DejaVuSans-32"/>
       <use xlink:href="#DejaVuSans-35" x="63.623047"/>
      </g>
     </g>
    </g>
    <g id="xtick_2">
     <g id="line2d_3">
      <path d="M 129.582924 383.84 
L 129.582924 53.664 
" clip-path="url(#p446861ba12)" style="fill: none; stroke-dasharray: 0.8,1.32; stroke-dashoffset: 0; stroke: #000000; stroke-opacity: 0.5; stroke-width: 0.8"/>
     </g>
     <g id="line2d_4">
      <g>
       <use xlink:href="#mc64c38d793" x="129.582924" y="383.84" style="stroke: #000000; stroke-width: 0.8"/>
      </g>
     </g>
     <g id="text_2">
      <!-- Dec -->
      <g transform="translate(119.907143 398.438437)scale(0.1 -0.1)">
       <defs>
        <path id="DejaVuSans-44" d="M 1259 4147 
L 1259 519 
L 2022 519 
Q 2988 519 3436 956 
Q 3884 1394 3884 2338 
Q 3884 3275 3436 3711 
Q 2988 4147 2022 4147 
L 1259 4147 
z
M 628 4666 
L 1925 4666 
Q 3281 4666 3915 4102 
Q 4550 3538 4550 2338 
Q 4550 1131 3912 565 
Q 3275 0 1925 0 
L 628 0 
L 628 4666 
z
" transform="scale(0.015625)"/>
        <path id="DejaVuSans-65" d="M 3597 1894 
L 3597 1613 
L 953 1613 
Q 991 1019 1311 708 
Q 1631 397 2203 397 
Q 2534 397 2845 478 
Q 3156 559 3463 722 
L 3463 178 
Q 3153 47 2828 -22 
Q 2503 -91 2169 -91 
Q 1331 -91 842 396 
Q 353 884 353 1716 
Q 353 2575 817 3079 
Q 1281 3584 2069 3584 
Q 2775 3584 3186 3129 
Q 3597 2675 3597 1894 
z
M 3022 2063 
Q 3016 2534 2758 2815 
Q 2500 3097 2075 3097 
Q 1594 3097 1305 2825 
Q 1016 2553 972 2059 
L 3022 2063 
z
" transform="scale(0.015625)"/>
        <path id="DejaVuSans-63" d="M 3122 3366 
L 3122 2828 
Q 2878 2963 2633 3030 
Q 2388 3097 2138 3097 
Q 1578 3097 1268 2742 
Q 959 2388 959 1747 
Q 959 1106 1268 751 
Q 1578 397 2138 397 
Q 2388 397 2633 464 
Q 2878 531 3122 666 
L 3122 134 
Q 2881 22 2623 -34 
Q 2366 -91 2075 -91 
Q 1284 -91 818 406 
Q 353 903 353 1747 
Q 353 2603 823 3093 
Q 1294 3584 2113 3584 
Q 2378 3584 2631 3529 
Q 2884 3475 3122 3366 
z
" transform="scale(0.015625)"/>
       </defs>
       <use xlink:href="#DejaVuSans-44"/>
       <use xlink:href="#DejaVuSans-65" x="77.001953"/>
       <use xlink:href="#DejaVuSans-63" x="138.525391"/>
      </g>
     </g>
    </g>
    <g id="xtick_3">
     <g id="line2d_5">
      <path d="M 174.006207 383.84 
L 174.006207 53.664 
" clip-path="url(#p446861ba12)" style="fill: none; stroke-dasharray: 0.8,1.32; stroke-dashoffset: 0; stroke: #000000; stroke-opacity: 0.5; stroke-width: 0.8"/>
     </g>
     <g id="line2d_6">
      <g>
       <use xlink:href="#mc64c38d793" x="174.006207" y="383.84" style="stroke: #000000; stroke-width: 0.8"/>
      </g>
     </g>
     <g id="text_3">
      <!-- 05 -->
      <g transform="translate(167.643707 398.438437)scale(0.1 -0.1)">
       <defs>
        <path id="DejaVuSans-30" d="M 2034 4250 
Q 1547 4250 1301 3770 
Q 1056 3291 1056 2328 
Q 1056 1369 1301 889 
Q 1547 409 2034 409 
Q 2525 409 2770 889 
Q 3016 1369 3016 2328 
Q 3016 3291 2770 3770 
Q 2525 4250 2034 4250 
z
M 2034 4750 
Q 2819 4750 3233 4129 
Q 3647 3509 3647 2328 
Q 3647 1150 3233 529 
Q 2819 -91 2034 -91 
Q 1250 -91 836 529 
Q 422 1150 422 2328 
Q 422 3509 836 4129 
Q 1250 4750 2034 4750 
z
" transform="scale(0.015625)"/>
       </defs>
       <use xlink:href="#DejaVuSans-30"/>
       <use xlink:href="#DejaVuSans-35" x="63.623047"/>
      </g>
     </g>
    </g>
    <g id="xtick_4">
     <g id="line2d_7">
      <path d="M 229.53531 383.84 
L 229.53531 53.664 
" clip-path="url(#p446861ba12)" style="fill: none; stroke-dasharray: 0.8,1.32; stroke-dashoffset: 0; stroke: #000000; stroke-opacity: 0.5; stroke-width: 0.8"/>
     </g>
     <g id="line2d_8">
      <g>
       <use xlink:href="#mc64c38d793" x="229.53531" y="383.84" style="stroke: #000000; stroke-width: 0.8"/>
      </g>
     </g>
     <g id="text_4">
      <!-- 10 -->
      <g transform="translate(223.17281 398.438437)scale(0.1 -0.1)">
       <defs>
        <path id="DejaVuSans-31" d="M 794 531 
L 1825 531 
L 1825 4091 
L 703 3866 
L 703 4441 
L 1819 4666 
L 2450 4666 
L 2450 531 
L 3481 531 
L 3481 0 
L 794 0 
L 794 531 
z
" transform="scale(0.015625)"/>
       </defs>
       <use xlink:href="#DejaVuSans-31"/>
       <use xlink:href="#DejaVuSans-30" x="63.623047"/>
      </g>
     </g>
    </g>
    <g id="xtick_5">
     <g id="line2d_9">
      <path d="M 285.064413 383.84 
L 285.064413 53.664 
" clip-path="url(#p446861ba12)" style="fill: none; stroke-dasharray: 0.8,1.32; stroke-dashoffset: 0; stroke: #000000; stroke-opacity: 0.5; stroke-width: 0.8"/>
     </g>
     <g id="line2d_10">
      <g>
       <use xlink:href="#mc64c38d793" x="285.064413" y="383.84" style="stroke: #000000; stroke-width: 0.8"/>
      </g>
     </g>
     <g id="text_5">
      <!-- 15 -->
      <g transform="translate(278.701913 398.438437)scale(0.1 -0.1)">
       <use xlink:href="#DejaVuSans-31"/>
       <use xlink:href="#DejaVuSans-35" x="63.623047"/>
      </g>
     </g>
    </g>
    <g id="xtick_6">
     <g id="line2d_11">
      <path d="M 340.593516 383.84 
L 340.593516 53.664 
" clip-path="url(#p446861ba12)" style="fill: none; stroke-dasharray: 0.8,1.32; stroke-dashoffset: 0; stroke: #000000; stroke-opacity: 0.5; stroke-width: 0.8"/>
     </g>
     <g id="line2d_12">
      <g>
       <use xlink:href="#mc64c38d793" x="340.593516" y="383.84" style="stroke: #000000; stroke-width: 0.8"/>
      </g>
     </g>
     <g id="text_6">
      <!-- 20 -->
      <g transform="translate(334.231016 398.438437)scale(0.1 -0.1)">
       <use xlink:href="#DejaVuSans-32"/>
       <use xlink:href="#DejaVuSans-30" x="63.623047"/>
      </g>
     </g>
    </g>
    <g id="xtick_7">
     <g id="line2d_13">
      <path d="M 396.12262 383.84 
L 396.12262 53.664 
" clip-path="url(#p446861ba12)" style="fill: none; stroke-dasharray: 0.8,1.32; stroke-dashoffset: 0; stroke: #000000; stroke-opacity: 0.5; stroke-width: 0.8"/>
     </g>
     <g id="line2d_14">
      <g>
       <use xlink:href="#mc64c38d793" x="396.12262" y="383.84" style="stroke: #000000; stroke-width: 0.8"/>
      </g>
     </g>
     <g id="text_7">
      <!-- 25 -->
      <g transform="translate(389.76012 398.438437)scale(0.1 -0.1)">
       <use xlink:href="#DejaVuSans-32"/>
       <use xlink:href="#DejaVuSans-35" x="63.623047"/>
      </g>
     </g>
    </g>
    <g id="xtick_8">
     <g id="line2d_15">
      <path d="M 473.863364 383.84 
L 473.863364 53.664 
" clip-path="url(#p446861ba12)" style="fill: none; stroke-dasharray: 0.8,1.32; stroke-dashoffset: 0; stroke: #000000; stroke-opacity: 0.5; stroke-width: 0.8"/>
     </g>
     <g id="line2d_16">
      <g>
       <use xlink:href="#mc64c38d793" x="473.863364" y="383.84" style="stroke: #000000; stroke-width: 0.8"/>
      </g>
     </g>
     <g id="text_8">
      <!-- Jan -->
      <g transform="translate(466.155552 398.438437)scale(0.1 -0.1)">
       <defs>
        <path id="DejaVuSans-4a" d="M 628 4666 
L 1259 4666 
L 1259 325 
Q 1259 -519 939 -900 
Q 619 -1281 -91 -1281 
L -331 -1281 
L -331 -750 
L -134 -750 
Q 284 -750 456 -515 
Q 628 -281 628 325 
L 628 4666 
z
" transform="scale(0.015625)"/>
        <path id="DejaVuSans-61" d="M 2194 1759 
Q 1497 1759 1228 1600 
Q 959 1441 959 1056 
Q 959 750 1161 570 
Q 1363 391 1709 391 
Q 2188 391 2477 730 
Q 2766 1069 2766 1631 
L 2766 1759 
L 2194 1759 
z
M 3341 1997 
L 3341 0 
L 2766 0 
L 2766 531 
Q 2569 213 2275 61 
Q 1981 -91 1556 -91 
Q 1019 -91 701 211 
Q 384 513 384 1019 
Q 384 1609 779 1909 
Q 1175 2209 1959 2209 
L 2766 2209 
L 2766 2266 
Q 2766 2663 2505 2880 
Q 2244 3097 1772 3097 
Q 1472 3097 1187 3025 
Q 903 2953 641 2809 
L 641 3341 
Q 956 3463 1253 3523 
Q 1550 3584 1831 3584 
Q 2591 3584 2966 3190 
Q 3341 2797 3341 1997 
z
" transform="scale(0.015625)"/>
        <path id="DejaVuSans-6e" d="M 3513 2113 
L 3513 0 
L 2938 0 
L 2938 2094 
Q 2938 2591 2744 2837 
Q 2550 3084 2163 3084 
Q 1697 3084 1428 2787 
Q 1159 2491 1159 1978 
L 1159 0 
L 581 0 
L 581 3500 
L 1159 3500 
L 1159 2956 
Q 1366 3272 1645 3428 
Q 1925 3584 2291 3584 
Q 2894 3584 3203 3211 
Q 3513 2838 3513 2113 
z
" transform="scale(0.015625)"/>
       </defs>
       <use xlink:href="#DejaVuSans-4a"/>
       <use xlink:href="#DejaVuSans-61" x="29.492188"/>
       <use xlink:href="#DejaVuSans-6e" x="90.771484"/>
      </g>
     </g>
    </g>
    <g id="xtick_9">
     <g id="line2d_17">
      <path d="M 518.286647 383.84 
L 518.286647 53.664 
" clip-path="url(#p446861ba12)" style="fill: none; stroke-dasharray: 0.8,1.32; stroke-dashoffset: 0; stroke: #000000; stroke-opacity: 0.5; stroke-width: 0.8"/>
     </g>
     <g id="line2d_18">
      <g>
       <use xlink:href="#mc64c38d793" x="518.286647" y="383.84" style="stroke: #000000; stroke-width: 0.8"/>
      </g>
     </g>
     <g id="text_9">
      <!-- 05 -->
      <g transform="translate(511.924147 398.438437)scale(0.1 -0.1)">
       <use xlink:href="#DejaVuSans-30"/>
       <use xlink:href="#DejaVuSans-35" x="63.623047"/>
      </g>
     </g>
    </g>
    <g id="xtick_10">
     <g id="line2d_19">
      <path d="M 573.81575 383.84 
L 573.81575 53.664 
" clip-path="url(#p446861ba12)" style="fill: none; stroke-dasharray: 0.8,1.32; stroke-dashoffset: 0; stroke: #000000; stroke-opacity: 0.5; stroke-width: 0.8"/>
     </g>
     <g id="line2d_20">
      <g>
       <use xlink:href="#mc64c38d793" x="573.81575" y="383.84" style="stroke: #000000; stroke-width: 0.8"/>
      </g>
     </g>
     <g id="text_10">
      <!-- 10 -->
      <g transform="translate(567.45325 398.438437)scale(0.1 -0.1)">
       <use xlink:href="#DejaVuSans-31"/>
       <use xlink:href="#DejaVuSans-30" x="63.623047"/>
      </g>
     </g>
    </g>
    <g id="xtick_11">
     <g id="line2d_21">
      <path d="M 629.344853 383.84 
L 629.344853 53.664 
" clip-path="url(#p446861ba12)" style="fill: none; stroke-dasharray: 0.8,1.32; stroke-dashoffset: 0; stroke: #000000; stroke-opacity: 0.5; stroke-width: 0.8"/>
     </g>
     <g id="line2d_22">
      <g>
       <use xlink:href="#mc64c38d793" x="629.344853" y="383.84" style="stroke: #000000; stroke-width: 0.8"/>
      </g>
     </g>
     <g id="text_11">
      <!-- 15 -->
      <g transform="translate(622.982353 398.438437)scale(0.1 -0.1)">
       <use xlink:href="#DejaVuSans-31"/>
       <use xlink:href="#DejaVuSans-35" x="63.623047"/>
      </g>
     </g>
    </g>
   </g>
   <g id="matplotlib.axis_2">
    <g id="ytick_1">
     <g id="line2d_23">
      <path d="M 62.948 383.84 
L 662.662315 383.84 
" clip-path="url(#p446861ba12)" style="fill: none; stroke-dasharray: 0.8,1.32; stroke-dashoffset: 0; stroke: #000000; stroke-opacity: 0.5; stroke-width: 0.8"/>
     </g>
     <g id="line2d_24">
      <defs>
       <path id="mcc8b91d2f7" d="M 0 0 
L -3.5 0 
" style="stroke: #1f77b4; stroke-width: 0.8"/>
      </defs>
      <g>
       <use xlink:href="#mcc8b91d2f7" x="62.948" y="383.84" style="fill: #1f77b4; stroke: #1f77b4; stroke-width: 0.8"/>
      </g>
     </g>
     <g id="text_12">
      <!-- 0.00 -->
      <g style="fill: #1f77b4" transform="translate(33.682375 387.639219)scale(0.1 -0.1)">
       <defs>
        <path id="DejaVuSans-2e" d="M 684 794 
L 1344 794 
L 1344 0 
L 684 0 
L 684 794 
z
" transform="scale(0.015625)"/>
       </defs>
       <use xlink:href="#DejaVuSans-30"/>
       <use xlink:href="#DejaVuSans-2e" x="63.623047"/>
       <use xlink:href="#DejaVuSans-30" x="95.410156"/>
       <use xlink:href="#DejaVuSans-30" x="159.033203"/>
      </g>
     </g>
    </g>
    <g id="ytick_2">
     <g id="line2d_25">
      <path d="M 62.948 367.3312 
L 662.662315 367.3312 
" clip-path="url(#p446861ba12)" style="fill: none; stroke-dasharray: 0.8,1.32; stroke-dashoffset: 0; stroke: #000000; stroke-opacity: 0.5; stroke-width: 0.8"/>
     </g>
     <g id="line2d_26">
      <g>
       <use xlink:href="#mcc8b91d2f7" x="62.948" y="367.3312" style="fill: #1f77b4; stroke: #1f77b4; stroke-width: 0.8"/>
      </g>
     </g>
     <g id="text_13">
      <!-- 0.25 -->
      <g style="fill: #1f77b4" transform="translate(33.682375 371.130419)scale(0.1 -0.1)">
       <use xlink:href="#DejaVuSans-30"/>
       <use xlink:href="#DejaVuSans-2e" x="63.623047"/>
       <use xlink:href="#DejaVuSans-32" x="95.410156"/>
       <use xlink:href="#DejaVuSans-35" x="159.033203"/>
      </g>
     </g>
    </g>
    <g id="ytick_3">
     <g id="line2d_27">
      <path d="M 62.948 350.8224 
L 662.662315 350.8224 
" clip-path="url(#p446861ba12)" style="fill: none; stroke-dasharray: 0.8,1.32; stroke-dashoffset: 0; stroke: #000000; stroke-opacity: 0.5; stroke-width: 0.8"/>
     </g>
     <g id="line2d_28">
      <g>
       <use xlink:href="#mcc8b91d2f7" x="62.948" y="350.8224" style="fill: #1f77b4; stroke: #1f77b4; stroke-width: 0.8"/>
      </g>
     </g>
     <g id="text_14">
      <!-- 0.50 -->
      <g style="fill: #1f77b4" transform="translate(33.682375 354.621619)scale(0.1 -0.1)">
       <use xlink:href="#DejaVuSans-30"/>
       <use xlink:href="#DejaVuSans-2e" x="63.623047"/>
       <use xlink:href="#DejaVuSans-35" x="95.410156"/>
       <use xlink:href="#DejaVuSans-30" x="159.033203"/>
      </g>
     </g>
    </g>
    <g id="ytick_4">
     <g id="line2d_29">
      <path d="M 62.948 334.3136 
L 662.662315 334.3136 
" clip-path="url(#p446861ba12)" style="fill: none; stroke-dasharray: 0.8,1.32; stroke-dashoffset: 0; stroke: #000000; stroke-opacity: 0.5; stroke-width: 0.8"/>
     </g>
     <g id="line2d_30">
      <g>
       <use xlink:href="#mcc8b91d2f7" x="62.948" y="334.3136" style="fill: #1f77b4; stroke: #1f77b4; stroke-width: 0.8"/>
      </g>
     </g>
     <g id="text_15">
      <!-- 0.75 -->
      <g style="fill: #1f77b4" transform="translate(33.682375 338.112819)scale(0.1 -0.1)">
       <defs>
        <path id="DejaVuSans-37" d="M 525 4666 
L 3525 4666 
L 3525 4397 
L 1831 0 
L 1172 0 
L 2766 4134 
L 525 4134 
L 525 4666 
z
" transform="scale(0.015625)"/>
       </defs>
       <use xlink:href="#DejaVuSans-30"/>
       <use xlink:href="#DejaVuSans-2e" x="63.623047"/>
       <use xlink:href="#DejaVuSans-37" x="95.410156"/>
       <use xlink:href="#DejaVuSans-35" x="159.033203"/>
      </g>
     </g>
    </g>
    <g id="ytick_5">
     <g id="line2d_31">
      <path d="M 62.948 317.8048 
L 662.662315 317.8048 
" clip-path="url(#p446861ba12)" style="fill: none; stroke-dasharray: 0.8,1.32; stroke-dashoffset: 0; stroke: #000000; stroke-opacity: 0.5; stroke-width: 0.8"/>
     </g>
     <g id="line2d_32">
      <g>
       <use xlink:href="#mcc8b91d2f7" x="62.948" y="317.8048" style="fill: #1f77b4; stroke: #1f77b4; stroke-width: 0.8"/>
      </g>
     </g>
     <g id="text_16">
      <!-- 1.00 -->
      <g style="fill: #1f77b4" transform="translate(33.682375 321.604019)scale(0.1 -0.1)">
       <use xlink:href="#DejaVuSans-31"/>
       <use xlink:href="#DejaVuSans-2e" x="63.623047"/>
       <use xlink:href="#DejaVuSans-30" x="95.410156"/>
       <use xlink:href="#DejaVuSans-30" x="159.033203"/>
      </g>
     </g>
    </g>
    <g id="ytick_6">
     <g id="line2d_33">
      <path d="M 62.948 301.296 
L 662.662315 301.296 
" clip-path="url(#p446861ba12)" style="fill: none; stroke-dasharray: 0.8,1.32; stroke-dashoffset: 0; stroke: #000000; stroke-opacity: 0.5; stroke-width: 0.8"/>
     </g>
     <g id="line2d_34">
      <g>
       <use xlink:href="#mcc8b91d2f7" x="62.948" y="301.296" style="fill: #1f77b4; stroke: #1f77b4; stroke-width: 0.8"/>
      </g>
     </g>
     <g id="text_17">
      <!-- 1.25 -->
      <g style="fill: #1f77b4" transform="translate(33.682375 305.095219)scale(0.1 -0.1)">
       <use xlink:href="#DejaVuSans-31"/>
       <use xlink:href="#DejaVuSans-2e" x="63.623047"/>
       <use xlink:href="#DejaVuSans-32" x="95.410156"/>
       <use xlink:href="#DejaVuSans-35" x="159.033203"/>
      </g>
     </g>
    </g>
    <g id="ytick_7">
     <g id="line2d_35">
      <path d="M 62.948 284.7872 
L 662.662315 284.7872 
" clip-path="url(#p446861ba12)" style="fill: none; stroke-dasharray: 0.8,1.32; stroke-dashoffset: 0; stroke: #000000; stroke-opacity: 0.5; stroke-width: 0.8"/>
     </g>
     <g id="line2d_36">
      <g>
       <use xlink:href="#mcc8b91d2f7" x="62.948" y="284.7872" style="fill: #1f77b4; stroke: #1f77b4; stroke-width: 0.8"/>
      </g>
     </g>
     <g id="text_18">
      <!-- 1.50 -->
      <g style="fill: #1f77b4" transform="translate(33.682375 288.586419)scale(0.1 -0.1)">
       <use xlink:href="#DejaVuSans-31"/>
       <use xlink:href="#DejaVuSans-2e" x="63.623047"/>
       <use xlink:href="#DejaVuSans-35" x="95.410156"/>
       <use xlink:href="#DejaVuSans-30" x="159.033203"/>
      </g>
     </g>
    </g>
    <g id="ytick_8">
     <g id="line2d_37">
      <path d="M 62.948 268.2784 
L 662.662315 268.2784 
" clip-path="url(#p446861ba12)" style="fill: none; stroke-dasharray: 0.8,1.32; stroke-dashoffset: 0; stroke: #000000; stroke-opacity: 0.5; stroke-width: 0.8"/>
     </g>
     <g id="line2d_38">
      <g>
       <use xlink:href="#mcc8b91d2f7" x="62.948" y="268.2784" style="fill: #1f77b4; stroke: #1f77b4; stroke-width: 0.8"/>
      </g>
     </g>
     <g id="text_19">
      <!-- 1.75 -->
      <g style="fill: #1f77b4" transform="translate(33.682375 272.077619)scale(0.1 -0.1)">
       <use xlink:href="#DejaVuSans-31"/>
       <use xlink:href="#DejaVuSans-2e" x="63.623047"/>
       <use xlink:href="#DejaVuSans-37" x="95.410156"/>
       <use xlink:href="#DejaVuSans-35" x="159.033203"/>
      </g>
     </g>
    </g>
    <g id="ytick_9">
     <g id="line2d_39">
      <path d="M 62.948 251.7696 
L 662.662315 251.7696 
" clip-path="url(#p446861ba12)" style="fill: none; stroke-dasharray: 0.8,1.32; stroke-dashoffset: 0; stroke: #000000; stroke-opacity: 0.5; stroke-width: 0.8"/>
     </g>
     <g id="line2d_40">
      <g>
       <use xlink:href="#mcc8b91d2f7" x="62.948" y="251.7696" style="fill: #1f77b4; stroke: #1f77b4; stroke-width: 0.8"/>
      </g>
     </g>
     <g id="text_20">
      <!-- 2.00 -->
      <g style="fill: #1f77b4" transform="translate(33.682375 255.568819)scale(0.1 -0.1)">
       <use xlink:href="#DejaVuSans-32"/>
       <use xlink:href="#DejaVuSans-2e" x="63.623047"/>
       <use xlink:href="#DejaVuSans-30" x="95.410156"/>
       <use xlink:href="#DejaVuSans-30" x="159.033203"/>
      </g>
     </g>
    </g>
    <g id="ytick_10">
     <g id="line2d_41">
      <path d="M 62.948 235.2608 
L 662.662315 235.2608 
" clip-path="url(#p446861ba12)" style="fill: none; stroke-dasharray: 0.8,1.32; stroke-dashoffset: 0; stroke: #000000; stroke-opacity: 0.5; stroke-width: 0.8"/>
     </g>
     <g id="line2d_42">
      <g>
       <use xlink:href="#mcc8b91d2f7" x="62.948" y="235.2608" style="fill: #1f77b4; stroke: #1f77b4; stroke-width: 0.8"/>
      </g>
     </g>
     <g id="text_21">
      <!-- 2.25 -->
      <g style="fill: #1f77b4" transform="translate(33.682375 239.060019)scale(0.1 -0.1)">
       <use xlink:href="#DejaVuSans-32"/>
       <use xlink:href="#DejaVuSans-2e" x="63.623047"/>
       <use xlink:href="#DejaVuSans-32" x="95.410156"/>
       <use xlink:href="#DejaVuSans-35" x="159.033203"/>
      </g>
     </g>
    </g>
    <g id="ytick_11">
     <g id="line2d_43">
      <path d="M 62.948 218.752 
L 662.662315 218.752 
" clip-path="url(#p446861ba12)" style="fill: none; stroke-dasharray: 0.8,1.32; stroke-dashoffset: 0; stroke: #000000; stroke-opacity: 0.5; stroke-width: 0.8"/>
     </g>
     <g id="line2d_44">
      <g>
       <use xlink:href="#mcc8b91d2f7" x="62.948" y="218.752" style="fill: #1f77b4; stroke: #1f77b4; stroke-width: 0.8"/>
      </g>
     </g>
     <g id="text_22">
      <!-- 2.50 -->
      <g style="fill: #1f77b4" transform="translate(33.682375 222.551219)scale(0.1 -0.1)">
       <use xlink:href="#DejaVuSans-32"/>
       <use xlink:href="#DejaVuSans-2e" x="63.623047"/>
       <use xlink:href="#DejaVuSans-35" x="95.410156"/>
       <use xlink:href="#DejaVuSans-30" x="159.033203"/>
      </g>
     </g>
    </g>
    <g id="ytick_12">
     <g id="line2d_45">
      <path d="M 62.948 202.2432 
L 662.662315 202.2432 
" clip-path="url(#p446861ba12)" style="fill: none; stroke-dasharray: 0.8,1.32; stroke-dashoffset: 0; stroke: #000000; stroke-opacity: 0.5; stroke-width: 0.8"/>
     </g>
     <g id="line2d_46">
      <g>
       <use xlink:href="#mcc8b91d2f7" x="62.948" y="202.2432" style="fill: #1f77b4; stroke: #1f77b4; stroke-width: 0.8"/>
      </g>
     </g>
     <g id="text_23">
      <!-- 2.75 -->
      <g style="fill: #1f77b4" transform="translate(33.682375 206.042419)scale(0.1 -0.1)">
       <use xlink:href="#DejaVuSans-32"/>
       <use xlink:href="#DejaVuSans-2e" x="63.623047"/>
       <use xlink:href="#DejaVuSans-37" x="95.410156"/>
       <use xlink:href="#DejaVuSans-35" x="159.033203"/>
      </g>
     </g>
    </g>
    <g id="ytick_13">
     <g id="line2d_47">
      <path d="M 62.948 185.7344 
L 662.662315 185.7344 
" clip-path="url(#p446861ba12)" style="fill: none; stroke-dasharray: 0.8,1.32; stroke-dashoffset: 0; stroke: #000000; stroke-opacity: 0.5; stroke-width: 0.8"/>
     </g>
     <g id="line2d_48">
      <g>
       <use xlink:href="#mcc8b91d2f7" x="62.948" y="185.7344" style="fill: #1f77b4; stroke: #1f77b4; stroke-width: 0.8"/>
      </g>
     </g>
     <g id="text_24">
      <!-- 3.00 -->
      <g style="fill: #1f77b4" transform="translate(33.682375 189.533619)scale(0.1 -0.1)">
       <defs>
        <path id="DejaVuSans-33" d="M 2597 2516 
Q 3050 2419 3304 2112 
Q 3559 1806 3559 1356 
Q 3559 666 3084 287 
Q 2609 -91 1734 -91 
Q 1441 -91 1130 -33 
Q 819 25 488 141 
L 488 750 
Q 750 597 1062 519 
Q 1375 441 1716 441 
Q 2309 441 2620 675 
Q 2931 909 2931 1356 
Q 2931 1769 2642 2001 
Q 2353 2234 1838 2234 
L 1294 2234 
L 1294 2753 
L 1863 2753 
Q 2328 2753 2575 2939 
Q 2822 3125 2822 3475 
Q 2822 3834 2567 4026 
Q 2313 4219 1838 4219 
Q 1578 4219 1281 4162 
Q 984 4106 628 3988 
L 628 4550 
Q 988 4650 1302 4700 
Q 1616 4750 1894 4750 
Q 2613 4750 3031 4423 
Q 3450 4097 3450 3541 
Q 3450 3153 3228 2886 
Q 3006 2619 2597 2516 
z
" transform="scale(0.015625)"/>
       </defs>
       <use xlink:href="#DejaVuSans-33"/>
       <use xlink:href="#DejaVuSans-2e" x="63.623047"/>
       <use xlink:href="#DejaVuSans-30" x="95.410156"/>
       <use xlink:href="#DejaVuSans-30" x="159.033203"/>
      </g>
     </g>
    </g>
    <g id="ytick_14">
     <g id="line2d_49">
      <path d="M 62.948 169.2256 
L 662.662315 169.2256 
" clip-path="url(#p446861ba12)" style="fill: none; stroke-dasharray: 0.8,1.32; stroke-dashoffset: 0; stroke: #000000; stroke-opacity: 0.5; stroke-width: 0.8"/>
     </g>
     <g id="line2d_50">
      <g>
       <use xlink:href="#mcc8b91d2f7" x="62.948" y="169.2256" style="fill: #1f77b4; stroke: #1f77b4; stroke-width: 0.8"/>
      </g>
     </g>
     <g id="text_25">
      <!-- 3.25 -->
      <g style="fill: #1f77b4" transform="translate(33.682375 173.024819)scale(0.1 -0.1)">
       <use xlink:href="#DejaVuSans-33"/>
       <use xlink:href="#DejaVuSans-2e" x="63.623047"/>
       <use xlink:href="#DejaVuSans-32" x="95.410156"/>
       <use xlink:href="#DejaVuSans-35" x="159.033203"/>
      </g>
     </g>
    </g>
    <g id="ytick_15">
     <g id="line2d_51">
      <path d="M 62.948 152.7168 
L 662.662315 152.7168 
" clip-path="url(#p446861ba12)" style="fill: none; stroke-dasharray: 0.8,1.32; stroke-dashoffset: 0; stroke: #000000; stroke-opacity: 0.5; stroke-width: 0.8"/>
     </g>
     <g id="line2d_52">
      <g>
       <use xlink:href="#mcc8b91d2f7" x="62.948" y="152.7168" style="fill: #1f77b4; stroke: #1f77b4; stroke-width: 0.8"/>
      </g>
     </g>
     <g id="text_26">
      <!-- 3.50 -->
      <g style="fill: #1f77b4" transform="translate(33.682375 156.516019)scale(0.1 -0.1)">
       <use xlink:href="#DejaVuSans-33"/>
       <use xlink:href="#DejaVuSans-2e" x="63.623047"/>
       <use xlink:href="#DejaVuSans-35" x="95.410156"/>
       <use xlink:href="#DejaVuSans-30" x="159.033203"/>
      </g>
     </g>
    </g>
    <g id="ytick_16">
     <g id="line2d_53">
      <path d="M 62.948 136.208 
L 662.662315 136.208 
" clip-path="url(#p446861ba12)" style="fill: none; stroke-dasharray: 0.8,1.32; stroke-dashoffset: 0; stroke: #000000; stroke-opacity: 0.5; stroke-width: 0.8"/>
     </g>
     <g id="line2d_54">
      <g>
       <use xlink:href="#mcc8b91d2f7" x="62.948" y="136.208" style="fill: #1f77b4; stroke: #1f77b4; stroke-width: 0.8"/>
      </g>
     </g>
     <g id="text_27">
      <!-- 3.75 -->
      <g style="fill: #1f77b4" transform="translate(33.682375 140.007219)scale(0.1 -0.1)">
       <use xlink:href="#DejaVuSans-33"/>
       <use xlink:href="#DejaVuSans-2e" x="63.623047"/>
       <use xlink:href="#DejaVuSans-37" x="95.410156"/>
       <use xlink:href="#DejaVuSans-35" x="159.033203"/>
      </g>
     </g>
    </g>
    <g id="ytick_17">
     <g id="line2d_55">
      <path d="M 62.948 119.6992 
L 662.662315 119.6992 
" clip-path="url(#p446861ba12)" style="fill: none; stroke-dasharray: 0.8,1.32; stroke-dashoffset: 0; stroke: #000000; stroke-opacity: 0.5; stroke-width: 0.8"/>
     </g>
     <g id="line2d_56">
      <g>
       <use xlink:href="#mcc8b91d2f7" x="62.948" y="119.6992" style="fill: #1f77b4; stroke: #1f77b4; stroke-width: 0.8"/>
      </g>
     </g>
     <g id="text_28">
      <!-- 4.00 -->
      <g style="fill: #1f77b4" transform="translate(33.682375 123.498419)scale(0.1 -0.1)">
       <defs>
        <path id="DejaVuSans-34" d="M 2419 4116 
L 825 1625 
L 2419 1625 
L 2419 4116 
z
M 2253 4666 
L 3047 4666 
L 3047 1625 
L 3713 1625 
L 3713 1100 
L 3047 1100 
L 3047 0 
L 2419 0 
L 2419 1100 
L 313 1100 
L 313 1709 
L 2253 4666 
z
" transform="scale(0.015625)"/>
       </defs>
       <use xlink:href="#DejaVuSans-34"/>
       <use xlink:href="#DejaVuSans-2e" x="63.623047"/>
       <use xlink:href="#DejaVuSans-30" x="95.410156"/>
       <use xlink:href="#DejaVuSans-30" x="159.033203"/>
      </g>
     </g>
    </g>
    <g id="ytick_18">
     <g id="line2d_57">
      <path d="M 62.948 103.1904 
L 662.662315 103.1904 
" clip-path="url(#p446861ba12)" style="fill: none; stroke-dasharray: 0.8,1.32; stroke-dashoffset: 0; stroke: #000000; stroke-opacity: 0.5; stroke-width: 0.8"/>
     </g>
     <g id="line2d_58">
      <g>
       <use xlink:href="#mcc8b91d2f7" x="62.948" y="103.1904" style="fill: #1f77b4; stroke: #1f77b4; stroke-width: 0.8"/>
      </g>
     </g>
     <g id="text_29">
      <!-- 4.25 -->
      <g style="fill: #1f77b4" transform="translate(33.682375 106.989619)scale(0.1 -0.1)">
       <use xlink:href="#DejaVuSans-34"/>
       <use xlink:href="#DejaVuSans-2e" x="63.623047"/>
       <use xlink:href="#DejaVuSans-32" x="95.410156"/>
       <use xlink:href="#DejaVuSans-35" x="159.033203"/>
      </g>
     </g>
    </g>
    <g id="ytick_19">
     <g id="line2d_59">
      <path d="M 62.948 86.6816 
L 662.662315 86.6816 
" clip-path="url(#p446861ba12)" style="fill: none; stroke-dasharray: 0.8,1.32; stroke-dashoffset: 0; stroke: #000000; stroke-opacity: 0.5; stroke-width: 0.8"/>
     </g>
     <g id="line2d_60">
      <g>
       <use xlink:href="#mcc8b91d2f7" x="62.948" y="86.6816" style="fill: #1f77b4; stroke: #1f77b4; stroke-width: 0.8"/>
      </g>
     </g>
     <g id="text_30">
      <!-- 4.50 -->
      <g style="fill: #1f77b4" transform="translate(33.682375 90.480819)scale(0.1 -0.1)">
       <use xlink:href="#DejaVuSans-34"/>
       <use xlink:href="#DejaVuSans-2e" x="63.623047"/>
       <use xlink:href="#DejaVuSans-35" x="95.410156"/>
       <use xlink:href="#DejaVuSans-30" x="159.033203"/>
      </g>
     </g>
    </g>
    <g id="ytick_20">
     <g id="line2d_61">
      <path d="M 62.948 70.1728 
L 662.662315 70.1728 
" clip-path="url(#p446861ba12)" style="fill: none; stroke-dasharray: 0.8,1.32; stroke-dashoffset: 0; stroke: #000000; stroke-opacity: 0.5; stroke-width: 0.8"/>
     </g>
     <g id="line2d_62">
      <g>
       <use xlink:href="#mcc8b91d2f7" x="62.948" y="70.1728" style="fill: #1f77b4; stroke: #1f77b4; stroke-width: 0.8"/>
      </g>
     </g>
     <g id="text_31">
      <!-- 4.75 -->
      <g style="fill: #1f77b4" transform="translate(33.682375 73.972019)scale(0.1 -0.1)">
       <use xlink:href="#DejaVuSans-34"/>
       <use xlink:href="#DejaVuSans-2e" x="63.623047"/>
       <use xlink:href="#DejaVuSans-37" x="95.410156"/>
       <use xlink:href="#DejaVuSans-35" x="159.033203"/>
      </g>
     </g>
    </g>
    <g id="ytick_21">
     <g id="line2d_63">
      <path d="M 62.948 53.664 
L 662.662315 53.664 
" clip-path="url(#p446861ba12)" style="fill: none; stroke-dasharray: 0.8,1.32; stroke-dashoffset: 0; stroke: #000000; stroke-opacity: 0.5; stroke-width: 0.8"/>
     </g>
     <g id="line2d_64">
      <g>
       <use xlink:href="#mcc8b91d2f7" x="62.948" y="53.664" style="fill: #1f77b4; stroke: #1f77b4; stroke-width: 0.8"/>
      </g>
     </g>
     <g id="text_32">
      <!-- 5.00 -->
      <g style="fill: #1f77b4" transform="translate(33.682375 57.463219)scale(0.1 -0.1)">
       <use xlink:href="#DejaVuSans-35"/>
       <use xlink:href="#DejaVuSans-2e" x="63.623047"/>
       <use xlink:href="#DejaVuSans-30" x="95.410156"/>
       <use xlink:href="#DejaVuSans-30" x="159.033203"/>
      </g>
     </g>
    </g>
    <g id="text_33">
     <!-- $R_\mathrm{eff}$ -->
     <g style="fill: #1f77b4" transform="translate(27.602687 227.002)rotate(-90)scale(0.1 -0.1)">
      <defs>
       <path id="DejaVuSans-Oblique-52" d="M 1613 4147 
L 1294 2491 
L 2106 2491 
Q 2584 2491 2879 2755 
Q 3175 3019 3175 3444 
Q 3175 3784 2976 3965 
Q 2778 4147 2406 4147 
L 1613 4147 
z
M 2772 2241 
Q 2972 2194 3105 2009 
Q 3238 1825 3413 1275 
L 3809 0 
L 3144 0 
L 2778 1197 
Q 2638 1659 2453 1815 
Q 2269 1972 1888 1972 
L 1191 1972 
L 806 0 
L 172 0 
L 1081 4666 
L 2503 4666 
Q 3150 4666 3495 4373 
Q 3841 4081 3841 3531 
Q 3841 3044 3547 2687 
Q 3253 2331 2772 2241 
z
" transform="scale(0.015625)"/>
       <path id="DejaVuSans-66" d="M 2375 4863 
L 2375 4384 
L 1825 4384 
Q 1516 4384 1395 4259 
Q 1275 4134 1275 3809 
L 1275 3500 
L 2222 3500 
L 2222 3053 
L 1275 3053 
L 1275 0 
L 697 0 
L 697 3053 
L 147 3053 
L 147 3500 
L 697 3500 
L 697 3744 
Q 697 4328 969 4595 
Q 1241 4863 1831 4863 
L 2375 4863 
z
" transform="scale(0.015625)"/>
      </defs>
      <use xlink:href="#DejaVuSans-Oblique-52" transform="translate(0 0.09375)"/>
      <use xlink:href="#DejaVuSans-65" transform="translate(69.482422 -16.3125)scale(0.7)"/>
      <use xlink:href="#DejaVuSans-66" transform="translate(112.548828 -16.3125)scale(0.7)"/>
      <use xlink:href="#DejaVuSans-66" transform="translate(137.192383 -16.3125)scale(0.7)"/>
     </g>
    </g>
   </g>
   <g id="PolyCollection_2">
    <path d="M 29.630538 215.312952 
L 29.630538 295.231148 
L 29.630538 294.765287 
L 40.736359 294.765287 
L 40.736359 293.942304 
L 51.842179 293.942304 
L 51.842179 292.327853 
L 62.948 292.327853 
L 62.948 289.624509 
L 74.053821 289.624509 
L 74.053821 286.075729 
L 85.159641 286.075729 
L 85.159641 282.66834 
L 96.265462 282.66834 
L 96.265462 280.848426 
L 107.371283 280.848426 
L 107.371283 281.765527 
L 118.477103 281.765527 
L 118.477103 285.523963 
L 129.582924 285.523963 
L 129.582924 291.394326 
L 140.688745 291.394326 
L 140.688745 298.002949 
L 151.794565 298.002949 
L 151.794565 303.639321 
L 162.900386 303.639321 
L 162.900386 306.382155 
L 174.006207 306.382155 
L 174.006207 304.5002 
L 185.112027 304.5002 
L 185.112027 296.749169 
L 196.217848 296.749169 
L 196.217848 282.630675 
L 207.323668 282.630675 
L 207.323668 262.924468 
L 218.429489 262.924468 
L 218.429489 239.933154 
L 229.53531 239.933154 
L 229.53531 216.854743 
L 240.64113 216.854743 
L 240.64113 196.228343 
L 251.746951 196.228343 
L 251.746951 178.994187 
L 262.852772 178.994187 
L 262.852772 165.111445 
L 273.958592 165.111445 
L 273.958592 154.361542 
L 285.064413 154.361542 
L 285.064413 146.811377 
L 296.170234 146.811377 
L 296.170234 142.625275 
L 307.276054 142.625275 
L 307.276054 141.824151 
L 318.381875 141.824151 
L 318.381875 144.186503 
L 329.487696 144.186503 
L 329.487696 148.697697 
L 340.593516 148.697697 
L 340.593516 154.559568 
L 351.699337 154.559568 
L 351.699337 160.96498 
L 362.805158 160.96498 
L 362.805158 65.851434 
L 362.805158 65.851434 
L 351.699337 65.851434 
L 351.699337 68.791776 
L 340.593516 68.791776 
L 340.593516 72.438068 
L 329.487696 72.438068 
L 329.487696 76.304653 
L 318.381875 76.304653 
L 318.381875 80.150827 
L 307.276054 80.150827 
L 307.276054 84.726817 
L 296.170234 84.726817 
L 296.170234 90.554553 
L 285.064413 90.554553 
L 285.064413 98.588088 
L 273.958592 98.588088 
L 273.958592 109.730548 
L 262.852772 109.730548 
L 262.852772 124.616534 
L 251.746951 124.616534 
L 251.746951 143.502993 
L 240.64113 143.502993 
L 240.64113 165.87987 
L 229.53531 165.87987 
L 229.53531 190.525218 
L 218.429489 190.525218 
L 218.429489 215.431394 
L 207.323668 215.431394 
L 207.323668 238.012096 
L 196.217848 238.012096 
L 196.217848 255.841296 
L 185.112027 255.841296 
L 185.112027 267.450457 
L 174.006207 267.450457 
L 174.006207 272.489434 
L 162.900386 272.489434 
L 162.900386 271.150766 
L 151.794565 271.150766 
L 151.794565 263.835453 
L 140.688745 263.835453 
L 140.688745 251.568296 
L 129.582924 251.568296 
L 129.582924 236.626805 
L 118.477103 236.626805 
L 118.477103 222.309479 
L 107.371283 222.309479 
L 107.371283 211.706407 
L 96.265462 211.706407 
L 96.265462 206.705613 
L 85.159641 206.705613 
L 85.159641 206.830356 
L 74.053821 206.830356 
L 74.053821 210.135733 
L 62.948 210.135733 
L 62.948 214.109993 
L 51.842179 214.109993 
L 51.842179 216.709943 
L 40.736359 216.709943 
L 40.736359 217.076477 
L 29.630538 217.076477 
L 29.630538 215.312952 
z
" clip-path="url(#p446861ba12)" style="fill: url(#h68d1733329); fill-opacity: 0.2; stroke: #0000ff; stroke-opacity: 0.2"/>
   </g>
   <g id="line2d_65">
    <path d="M 62.948 317.8048 
L 662.662315 317.8048 
" clip-path="url(#p446861ba12)" style="fill: none; stroke: #000000; stroke-linecap: square"/>
   </g>
   <g id="patch_3">
    <path d="M 62.948 383.84 
L 62.948 53.664 
" style="fill: none; stroke: #1f77b4; stroke-width: 0.8; stroke-linejoin: miter; stroke-linecap: square"/>
   </g>
   <g id="patch_4">
    <path d="M 662.662315 383.84 
L 662.662315 53.664 
" style="fill: none; stroke: #800080; stroke-width: 0.8; stroke-linejoin: miter; stroke-linecap: square"/>
   </g>
   <g id="patch_5">
    <path d="M 62.948 383.84 
L 662.662315 383.84 
" style="fill: none; stroke: #000000; stroke-width: 0.8; stroke-linejoin: miter; stroke-linecap: square"/>
   </g>
   <g id="patch_6">
    <path d="M 62.948 53.664 
L 662.662315 53.664 
" style="fill: none; stroke: #000000; stroke-width: 0.8; stroke-linejoin: miter; stroke-linecap: square"/>
   </g>
   <g id="text_34">
    <!-- $R_\mathrm{eff}$ in South Australia as of December 22nd, with daily cases -->
    <g transform="translate(179.505158 34.20225)scale(0.12 -0.12)">
     <defs>
      <path id="DejaVuSans-20" transform="scale(0.015625)"/>
      <path id="DejaVuSans-69" d="M 603 3500 
L 1178 3500 
L 1178 0 
L 603 0 
L 603 3500 
z
M 603 4863 
L 1178 4863 
L 1178 4134 
L 603 4134 
L 603 4863 
z
" transform="scale(0.015625)"/>
      <path id="DejaVuSans-53" d="M 3425 4513 
L 3425 3897 
Q 3066 4069 2747 4153 
Q 2428 4238 2131 4238 
Q 1616 4238 1336 4038 
Q 1056 3838 1056 3469 
Q 1056 3159 1242 3001 
Q 1428 2844 1947 2747 
L 2328 2669 
Q 3034 2534 3370 2195 
Q 3706 1856 3706 1288 
Q 3706 609 3251 259 
Q 2797 -91 1919 -91 
Q 1588 -91 1214 -16 
Q 841 59 441 206 
L 441 856 
Q 825 641 1194 531 
Q 1563 422 1919 422 
Q 2459 422 2753 634 
Q 3047 847 3047 1241 
Q 3047 1584 2836 1778 
Q 2625 1972 2144 2069 
L 1759 2144 
Q 1053 2284 737 2584 
Q 422 2884 422 3419 
Q 422 4038 858 4394 
Q 1294 4750 2059 4750 
Q 2388 4750 2728 4690 
Q 3069 4631 3425 4513 
z
" transform="scale(0.015625)"/>
      <path id="DejaVuSans-6f" d="M 1959 3097 
Q 1497 3097 1228 2736 
Q 959 2375 959 1747 
Q 959 1119 1226 758 
Q 1494 397 1959 397 
Q 2419 397 2687 759 
Q 2956 1122 2956 1747 
Q 2956 2369 2687 2733 
Q 2419 3097 1959 3097 
z
M 1959 3584 
Q 2709 3584 3137 3096 
Q 3566 2609 3566 1747 
Q 3566 888 3137 398 
Q 2709 -91 1959 -91 
Q 1206 -91 779 398 
Q 353 888 353 1747 
Q 353 2609 779 3096 
Q 1206 3584 1959 3584 
z
" transform="scale(0.015625)"/>
      <path id="DejaVuSans-75" d="M 544 1381 
L 544 3500 
L 1119 3500 
L 1119 1403 
Q 1119 906 1312 657 
Q 1506 409 1894 409 
Q 2359 409 2629 706 
Q 2900 1003 2900 1516 
L 2900 3500 
L 3475 3500 
L 3475 0 
L 2900 0 
L 2900 538 
Q 2691 219 2414 64 
Q 2138 -91 1772 -91 
Q 1169 -91 856 284 
Q 544 659 544 1381 
z
M 1991 3584 
L 1991 3584 
z
" transform="scale(0.015625)"/>
      <path id="DejaVuSans-74" d="M 1172 4494 
L 1172 3500 
L 2356 3500 
L 2356 3053 
L 1172 3053 
L 1172 1153 
Q 1172 725 1289 603 
Q 1406 481 1766 481 
L 2356 481 
L 2356 0 
L 1766 0 
Q 1100 0 847 248 
Q 594 497 594 1153 
L 594 3053 
L 172 3053 
L 172 3500 
L 594 3500 
L 594 4494 
L 1172 4494 
z
" transform="scale(0.015625)"/>
      <path id="DejaVuSans-68" d="M 3513 2113 
L 3513 0 
L 2938 0 
L 2938 2094 
Q 2938 2591 2744 2837 
Q 2550 3084 2163 3084 
Q 1697 3084 1428 2787 
Q 1159 2491 1159 1978 
L 1159 0 
L 581 0 
L 581 4863 
L 1159 4863 
L 1159 2956 
Q 1366 3272 1645 3428 
Q 1925 3584 2291 3584 
Q 2894 3584 3203 3211 
Q 3513 2838 3513 2113 
z
" transform="scale(0.015625)"/>
      <path id="DejaVuSans-41" d="M 2188 4044 
L 1331 1722 
L 3047 1722 
L 2188 4044 
z
M 1831 4666 
L 2547 4666 
L 4325 0 
L 3669 0 
L 3244 1197 
L 1141 1197 
L 716 0 
L 50 0 
L 1831 4666 
z
" transform="scale(0.015625)"/>
      <path id="DejaVuSans-73" d="M 2834 3397 
L 2834 2853 
Q 2591 2978 2328 3040 
Q 2066 3103 1784 3103 
Q 1356 3103 1142 2972 
Q 928 2841 928 2578 
Q 928 2378 1081 2264 
Q 1234 2150 1697 2047 
L 1894 2003 
Q 2506 1872 2764 1633 
Q 3022 1394 3022 966 
Q 3022 478 2636 193 
Q 2250 -91 1575 -91 
Q 1294 -91 989 -36 
Q 684 19 347 128 
L 347 722 
Q 666 556 975 473 
Q 1284 391 1588 391 
Q 1994 391 2212 530 
Q 2431 669 2431 922 
Q 2431 1156 2273 1281 
Q 2116 1406 1581 1522 
L 1381 1569 
Q 847 1681 609 1914 
Q 372 2147 372 2553 
Q 372 3047 722 3315 
Q 1072 3584 1716 3584 
Q 2034 3584 2315 3537 
Q 2597 3491 2834 3397 
z
" transform="scale(0.015625)"/>
      <path id="DejaVuSans-72" d="M 2631 2963 
Q 2534 3019 2420 3045 
Q 2306 3072 2169 3072 
Q 1681 3072 1420 2755 
Q 1159 2438 1159 1844 
L 1159 0 
L 581 0 
L 581 3500 
L 1159 3500 
L 1159 2956 
Q 1341 3275 1631 3429 
Q 1922 3584 2338 3584 
Q 2397 3584 2469 3576 
Q 2541 3569 2628 3553 
L 2631 2963 
z
" transform="scale(0.015625)"/>
      <path id="DejaVuSans-6c" d="M 603 4863 
L 1178 4863 
L 1178 0 
L 603 0 
L 603 4863 
z
" transform="scale(0.015625)"/>
      <path id="DejaVuSans-6d" d="M 3328 2828 
Q 3544 3216 3844 3400 
Q 4144 3584 4550 3584 
Q 5097 3584 5394 3201 
Q 5691 2819 5691 2113 
L 5691 0 
L 5113 0 
L 5113 2094 
Q 5113 2597 4934 2840 
Q 4756 3084 4391 3084 
Q 3944 3084 3684 2787 
Q 3425 2491 3425 1978 
L 3425 0 
L 2847 0 
L 2847 2094 
Q 2847 2600 2669 2842 
Q 2491 3084 2119 3084 
Q 1678 3084 1418 2786 
Q 1159 2488 1159 1978 
L 1159 0 
L 581 0 
L 581 3500 
L 1159 3500 
L 1159 2956 
Q 1356 3278 1631 3431 
Q 1906 3584 2284 3584 
Q 2666 3584 2933 3390 
Q 3200 3197 3328 2828 
z
" transform="scale(0.015625)"/>
      <path id="DejaVuSans-62" d="M 3116 1747 
Q 3116 2381 2855 2742 
Q 2594 3103 2138 3103 
Q 1681 3103 1420 2742 
Q 1159 2381 1159 1747 
Q 1159 1113 1420 752 
Q 1681 391 2138 391 
Q 2594 391 2855 752 
Q 3116 1113 3116 1747 
z
M 1159 2969 
Q 1341 3281 1617 3432 
Q 1894 3584 2278 3584 
Q 2916 3584 3314 3078 
Q 3713 2572 3713 1747 
Q 3713 922 3314 415 
Q 2916 -91 2278 -91 
Q 1894 -91 1617 61 
Q 1341 213 1159 525 
L 1159 0 
L 581 0 
L 581 4863 
L 1159 4863 
L 1159 2969 
z
" transform="scale(0.015625)"/>
      <path id="DejaVuSans-64" d="M 2906 2969 
L 2906 4863 
L 3481 4863 
L 3481 0 
L 2906 0 
L 2906 525 
Q 2725 213 2448 61 
Q 2172 -91 1784 -91 
Q 1150 -91 751 415 
Q 353 922 353 1747 
Q 353 2572 751 3078 
Q 1150 3584 1784 3584 
Q 2172 3584 2448 3432 
Q 2725 3281 2906 2969 
z
M 947 1747 
Q 947 1113 1208 752 
Q 1469 391 1925 391 
Q 2381 391 2643 752 
Q 2906 1113 2906 1747 
Q 2906 2381 2643 2742 
Q 2381 3103 1925 3103 
Q 1469 3103 1208 2742 
Q 947 2381 947 1747 
z
" transform="scale(0.015625)"/>
      <path id="DejaVuSans-2c" d="M 750 794 
L 1409 794 
L 1409 256 
L 897 -744 
L 494 -744 
L 750 256 
L 750 794 
z
" transform="scale(0.015625)"/>
      <path id="DejaVuSans-77" d="M 269 3500 
L 844 3500 
L 1563 769 
L 2278 3500 
L 2956 3500 
L 3675 769 
L 4391 3500 
L 4966 3500 
L 4050 0 
L 3372 0 
L 2619 2869 
L 1863 0 
L 1184 0 
L 269 3500 
z
" transform="scale(0.015625)"/>
      <path id="DejaVuSans-79" d="M 2059 -325 
Q 1816 -950 1584 -1140 
Q 1353 -1331 966 -1331 
L 506 -1331 
L 506 -850 
L 844 -850 
Q 1081 -850 1212 -737 
Q 1344 -625 1503 -206 
L 1606 56 
L 191 3500 
L 800 3500 
L 1894 763 
L 2988 3500 
L 3597 3500 
L 2059 -325 
z
" transform="scale(0.015625)"/>
     </defs>
     <use xlink:href="#DejaVuSans-Oblique-52" transform="translate(0 0.015625)"/>
     <use xlink:href="#DejaVuSans-65" transform="translate(69.482422 -16.390625)scale(0.7)"/>
     <use xlink:href="#DejaVuSans-66" transform="translate(112.548828 -16.390625)scale(0.7)"/>
     <use xlink:href="#DejaVuSans-66" transform="translate(137.192383 -16.390625)scale(0.7)"/>
     <use xlink:href="#DejaVuSans-20" transform="translate(164.570312 0.015625)"/>
     <use xlink:href="#DejaVuSans-69" transform="translate(196.357422 0.015625)"/>
     <use xlink:href="#DejaVuSans-6e" transform="translate(224.140625 0.015625)"/>
     <use xlink:href="#DejaVuSans-20" transform="translate(287.519531 0.015625)"/>
     <use xlink:href="#DejaVuSans-53" transform="translate(319.306641 0.015625)"/>
     <use xlink:href="#DejaVuSans-6f" transform="translate(382.783203 0.015625)"/>
     <use xlink:href="#DejaVuSans-75" transform="translate(443.964844 0.015625)"/>
     <use xlink:href="#DejaVuSans-74" transform="translate(507.34375 0.015625)"/>
     <use xlink:href="#DejaVuSans-68" transform="translate(546.552734 0.015625)"/>
     <use xlink:href="#DejaVuSans-20" transform="translate(609.931641 0.015625)"/>
     <use xlink:href="#DejaVuSans-41" transform="translate(641.71875 0.015625)"/>
     <use xlink:href="#DejaVuSans-75" transform="translate(710.126953 0.015625)"/>
     <use xlink:href="#DejaVuSans-73" transform="translate(773.505859 0.015625)"/>
     <use xlink:href="#DejaVuSans-74" transform="translate(825.605469 0.015625)"/>
     <use xlink:href="#DejaVuSans-72" transform="translate(864.814453 0.015625)"/>
     <use xlink:href="#DejaVuSans-61" transform="translate(905.927734 0.015625)"/>
     <use xlink:href="#DejaVuSans-6c" transform="translate(967.207031 0.015625)"/>
     <use xlink:href="#DejaVuSans-69" transform="translate(994.990234 0.015625)"/>
     <use xlink:href="#DejaVuSans-61" transform="translate(1022.773438 0.015625)"/>
     <use xlink:href="#DejaVuSans-20" transform="translate(1084.052734 0.015625)"/>
     <use xlink:href="#DejaVuSans-61" transform="translate(1115.839844 0.015625)"/>
     <use xlink:href="#DejaVuSans-73" transform="translate(1177.119141 0.015625)"/>
     <use xlink:href="#DejaVuSans-20" transform="translate(1229.21875 0.015625)"/>
     <use xlink:href="#DejaVuSans-6f" transform="translate(1261.005859 0.015625)"/>
     <use xlink:href="#DejaVuSans-66" transform="translate(1322.1875 0.015625)"/>
     <use xlink:href="#DejaVuSans-20" transform="translate(1357.392578 0.015625)"/>
     <use xlink:href="#DejaVuSans-44" transform="translate(1389.179688 0.015625)"/>
     <use xlink:href="#DejaVuSans-65" transform="translate(1466.181641 0.015625)"/>
     <use xlink:href="#DejaVuSans-63" transform="translate(1527.705078 0.015625)"/>
     <use xlink:href="#DejaVuSans-65" transform="translate(1582.685547 0.015625)"/>
     <use xlink:href="#DejaVuSans-6d" transform="translate(1644.208984 0.015625)"/>
     <use xlink:href="#DejaVuSans-62" transform="translate(1741.621094 0.015625)"/>
     <use xlink:href="#DejaVuSans-65" transform="translate(1805.097656 0.015625)"/>
     <use xlink:href="#DejaVuSans-72" transform="translate(1866.621094 0.015625)"/>
     <use xlink:href="#DejaVuSans-20" transform="translate(1907.734375 0.015625)"/>
     <use xlink:href="#DejaVuSans-32" transform="translate(1939.521484 0.015625)"/>
     <use xlink:href="#DejaVuSans-32" transform="translate(2003.144531 0.015625)"/>
     <use xlink:href="#DejaVuSans-6e" transform="translate(2066.767578 0.015625)"/>
     <use xlink:href="#DejaVuSans-64" transform="translate(2130.146484 0.015625)"/>
     <use xlink:href="#DejaVuSans-2c" transform="translate(2193.623047 0.015625)"/>
     <use xlink:href="#DejaVuSans-20" transform="translate(2225.410156 0.015625)"/>
     <use xlink:href="#DejaVuSans-77" transform="translate(2257.197266 0.015625)"/>
     <use xlink:href="#DejaVuSans-69" transform="translate(2338.984375 0.015625)"/>
     <use xlink:href="#DejaVuSans-74" transform="translate(2366.767578 0.015625)"/>
     <use xlink:href="#DejaVuSans-68" transform="translate(2405.976562 0.015625)"/>
     <use xlink:href="#DejaVuSans-20" transform="translate(2469.355469 0.015625)"/>
     <use xlink:href="#DejaVuSans-64" transform="translate(2501.142578 0.015625)"/>
     <use xlink:href="#DejaVuSans-61" transform="translate(2564.619141 0.015625)"/>
     <use xlink:href="#DejaVuSans-69" transform="translate(2625.898438 0.015625)"/>
     <use xlink:href="#DejaVuSans-6c" transform="translate(2653.681641 0.015625)"/>
     <use xlink:href="#DejaVuSans-79" transform="translate(2681.464844 0.015625)"/>
     <use xlink:href="#DejaVuSans-20" transform="translate(2740.644531 0.015625)"/>
     <use xlink:href="#DejaVuSans-63" transform="translate(2772.431641 0.015625)"/>
     <use xlink:href="#DejaVuSans-61" transform="translate(2827.412109 0.015625)"/>
     <use xlink:href="#DejaVuSans-73" transform="translate(2888.691406 0.015625)"/>
     <use xlink:href="#DejaVuSans-65" transform="translate(2940.791016 0.015625)"/>
     <use xlink:href="#DejaVuSans-73" transform="translate(3002.314453 0.015625)"/>
    </g>
    <!-- Latest estimate: $R_\mathrm{eff}=4.10 \pm 0.72$ -->
    <g transform="translate(261.165158 47.664)scale(0.12 -0.12)">
     <defs>
      <path id="DejaVuSans-4c" d="M 628 4666 
L 1259 4666 
L 1259 531 
L 3531 531 
L 3531 0 
L 628 0 
L 628 4666 
z
" transform="scale(0.015625)"/>
      <path id="DejaVuSans-3a" d="M 750 794 
L 1409 794 
L 1409 0 
L 750 0 
L 750 794 
z
M 750 3309 
L 1409 3309 
L 1409 2516 
L 750 2516 
L 750 3309 
z
" transform="scale(0.015625)"/>
      <path id="DejaVuSans-3d" d="M 678 2906 
L 4684 2906 
L 4684 2381 
L 678 2381 
L 678 2906 
z
M 678 1631 
L 4684 1631 
L 4684 1100 
L 678 1100 
L 678 1631 
z
" transform="scale(0.015625)"/>
      <path id="DejaVuSans-b1" d="M 2944 4013 
L 2944 2803 
L 4684 2803 
L 4684 2272 
L 2944 2272 
L 2944 1063 
L 2419 1063 
L 2419 2272 
L 678 2272 
L 678 2803 
L 2419 2803 
L 2419 4013 
L 2944 4013 
z
M 678 531 
L 4684 531 
L 4684 0 
L 678 0 
L 678 531 
z
" transform="scale(0.015625)"/>
     </defs>
     <use xlink:href="#DejaVuSans-4c" transform="translate(0 0.015625)"/>
     <use xlink:href="#DejaVuSans-61" transform="translate(55.712891 0.015625)"/>
     <use xlink:href="#DejaVuSans-74" transform="translate(116.992188 0.015625)"/>
     <use xlink:href="#DejaVuSans-65" transform="translate(156.201172 0.015625)"/>
     <use xlink:href="#DejaVuSans-73" transform="translate(217.724609 0.015625)"/>
     <use xlink:href="#DejaVuSans-74" transform="translate(269.824219 0.015625)"/>
     <use xlink:href="#DejaVuSans-20" transform="translate(309.033203 0.015625)"/>
     <use xlink:href="#DejaVuSans-65" transform="translate(340.820312 0.015625)"/>
     <use xlink:href="#DejaVuSans-73" transform="translate(402.34375 0.015625)"/>
     <use xlink:href="#DejaVuSans-74" transform="translate(454.443359 0.015625)"/>
     <use xlink:href="#DejaVuSans-69" transform="translate(493.652344 0.015625)"/>
     <use xlink:href="#DejaVuSans-6d" transform="translate(521.435547 0.015625)"/>
     <use xlink:href="#DejaVuSans-61" transform="translate(618.847656 0.015625)"/>
     <use xlink:href="#DejaVuSans-74" transform="translate(680.126953 0.015625)"/>
     <use xlink:href="#DejaVuSans-65" transform="translate(719.335938 0.015625)"/>
     <use xlink:href="#DejaVuSans-3a" transform="translate(780.859375 0.015625)"/>
     <use xlink:href="#DejaVuSans-20" transform="translate(814.550781 0.015625)"/>
     <use xlink:href="#DejaVuSans-Oblique-52" transform="translate(846.337891 0.015625)"/>
     <use xlink:href="#DejaVuSans-65" transform="translate(915.820312 -16.390625)scale(0.7)"/>
     <use xlink:href="#DejaVuSans-66" transform="translate(958.886719 -16.390625)scale(0.7)"/>
     <use xlink:href="#DejaVuSans-66" transform="translate(983.530273 -16.390625)scale(0.7)"/>
     <use xlink:href="#DejaVuSans-3d" transform="translate(1030.390625 0.015625)"/>
     <use xlink:href="#DejaVuSans-34" transform="translate(1133.662109 0.015625)"/>
     <use xlink:href="#DejaVuSans-2e" transform="translate(1197.285156 0.015625)"/>
     <use xlink:href="#DejaVuSans-31" transform="translate(1229.072266 0.015625)"/>
     <use xlink:href="#DejaVuSans-30" transform="translate(1292.695312 0.015625)"/>
     <use xlink:href="#DejaVuSans-b1" transform="translate(1375.800781 0.015625)"/>
     <use xlink:href="#DejaVuSans-30" transform="translate(1479.072266 0.015625)"/>
     <use xlink:href="#DejaVuSans-2e" transform="translate(1542.695312 0.015625)"/>
     <use xlink:href="#DejaVuSans-37" transform="translate(1566.732422 0.015625)"/>
     <use xlink:href="#DejaVuSans-32" transform="translate(1630.355469 0.015625)"/>
    </g>
   </g>
  </g>
  <g id="axes_2">
   <g id="PolyCollection_3">
    <path d="M 357.252247 231.528967 
L 357.252247 264.325725 
L 368.358068 229.967797 
L 379.463889 186.148139 
L 390.569709 130.149037 
L 401.67553 58.520095 
L 412.781351 -33.140552 
L 423.887171 -150.459513 
L 434.992992 -300.634597 
L 446.098813 -492.87668 
L 457.204633 -738.974471 
L 468.310454 -1054.016993 
L 479.416274 -1457.318114 
L 490.522095 -1973.599801 
L 501.627916 -2634.506624 
L 512.733736 -3480.54416 
L 523.839557 -4563.560202 
L 534.945378 -5949.920556 
L 546.051198 -7724.574003 
L 557.157019 -9996.25534 
L 568.26284 -12904.145121 
L 579.36866 -16626.393931 
L 590.474481 -21391.033176 
L 601.580302 -27489.940528 
L 612.686122 -35296.715084 
L 623.791943 -45289.557474 
L 634.897764 -58080.554347 
L 646.003584 -74453.162476 
L 657.109405 -95410.186248 
L 668.215226 -122235.187263 
L 668.215226 -659968.16 
L 668.215226 -659968.16 
L 657.109405 -659968.16 
L 646.003584 -566860.488447 
L 634.897764 -412741.839504 
L 623.791943 -300499.005593 
L 612.686122 -218753.428505 
L 601.580302 -159218.432151 
L 590.474481 -115859.053477 
L 579.36866 -84280.174918 
L 568.26284 -61280.929529 
L 557.157019 -44530.187782 
L 546.051198 -32330.226389 
L 534.945378 -23444.616109 
L 523.839557 -16972.877827 
L 512.733736 -12259.198262 
L 501.627916 -8825.950119 
L 490.522095 -6325.27651 
L 479.416274 -4503.830934 
L 468.310454 -3177.09832 
L 457.204633 -2210.69327 
L 446.098813 -1506.740073 
L 434.992992 -993.953432 
L 423.887171 -620.414454 
L 412.781351 -348.309625 
L 401.67553 -150.099571 
L 390.569709 -5.72941 
L 379.463889 99.401647 
L 368.358068 175.916359 
L 357.252247 231.528967 
z
" clip-path="url(#p446861ba12)" style="fill: #ff00ff; fill-opacity: 0.3"/>
   </g>
   <g id="matplotlib.axis_3">
    <g id="ytick_22">
     <g id="line2d_66">
      <defs>
       <path id="m240a5b029e" d="M 0 0 
L 3.5 0 
" style="stroke: #800080; stroke-width: 0.8"/>
      </defs>
      <g>
       <use xlink:href="#m240a5b029e" x="662.662315" y="383.84" style="fill: #800080; stroke: #800080; stroke-width: 0.8"/>
      </g>
     </g>
     <g id="text_35">
      <!-- 0 -->
      <g style="fill: #800080" transform="translate(669.662315 387.639219)scale(0.1 -0.1)">
       <use xlink:href="#DejaVuSans-30"/>
      </g>
     </g>
    </g>
    <g id="ytick_23">
     <g id="line2d_67">
      <g>
       <use xlink:href="#m240a5b029e" x="662.662315" y="350.8224" style="fill: #800080; stroke: #800080; stroke-width: 0.8"/>
      </g>
     </g>
     <g id="text_36">
      <!-- 50 -->
      <g style="fill: #800080" transform="translate(669.662315 354.621619)scale(0.1 -0.1)">
       <use xlink:href="#DejaVuSans-35"/>
       <use xlink:href="#DejaVuSans-30" x="63.623047"/>
      </g>
     </g>
    </g>
    <g id="ytick_24">
     <g id="line2d_68">
      <g>
       <use xlink:href="#m240a5b029e" x="662.662315" y="317.8048" style="fill: #800080; stroke: #800080; stroke-width: 0.8"/>
      </g>
     </g>
     <g id="text_37">
      <!-- 100 -->
      <g style="fill: #800080" transform="translate(669.662315 321.604019)scale(0.1 -0.1)">
       <use xlink:href="#DejaVuSans-31"/>
       <use xlink:href="#DejaVuSans-30" x="63.623047"/>
       <use xlink:href="#DejaVuSans-30" x="127.246094"/>
      </g>
     </g>
    </g>
    <g id="ytick_25">
     <g id="line2d_69">
      <g>
       <use xlink:href="#m240a5b029e" x="662.662315" y="284.7872" style="fill: #800080; stroke: #800080; stroke-width: 0.8"/>
      </g>
     </g>
     <g id="text_38">
      <!-- 150 -->
      <g style="fill: #800080" transform="translate(669.662315 288.586419)scale(0.1 -0.1)">
       <use xlink:href="#DejaVuSans-31"/>
       <use xlink:href="#DejaVuSans-35" x="63.623047"/>
       <use xlink:href="#DejaVuSans-30" x="127.246094"/>
      </g>
     </g>
    </g>
    <g id="ytick_26">
     <g id="line2d_70">
      <g>
       <use xlink:href="#m240a5b029e" x="662.662315" y="251.7696" style="fill: #800080; stroke: #800080; stroke-width: 0.8"/>
      </g>
     </g>
     <g id="text_39">
      <!-- 200 -->
      <g style="fill: #800080" transform="translate(669.662315 255.568819)scale(0.1 -0.1)">
       <use xlink:href="#DejaVuSans-32"/>
       <use xlink:href="#DejaVuSans-30" x="63.623047"/>
       <use xlink:href="#DejaVuSans-30" x="127.246094"/>
      </g>
     </g>
    </g>
    <g id="ytick_27">
     <g id="line2d_71">
      <g>
       <use xlink:href="#m240a5b029e" x="662.662315" y="218.752" style="fill: #800080; stroke: #800080; stroke-width: 0.8"/>
      </g>
     </g>
     <g id="text_40">
      <!-- 250 -->
      <g style="fill: #800080" transform="translate(669.662315 222.551219)scale(0.1 -0.1)">
       <use xlink:href="#DejaVuSans-32"/>
       <use xlink:href="#DejaVuSans-35" x="63.623047"/>
       <use xlink:href="#DejaVuSans-30" x="127.246094"/>
      </g>
     </g>
    </g>
    <g id="ytick_28">
     <g id="line2d_72">
      <g>
       <use xlink:href="#m240a5b029e" x="662.662315" y="185.7344" style="fill: #800080; stroke: #800080; stroke-width: 0.8"/>
      </g>
     </g>
     <g id="text_41">
      <!-- 300 -->
      <g style="fill: #800080" transform="translate(669.662315 189.533619)scale(0.1 -0.1)">
       <use xlink:href="#DejaVuSans-33"/>
       <use xlink:href="#DejaVuSans-30" x="63.623047"/>
       <use xlink:href="#DejaVuSans-30" x="127.246094"/>
      </g>
     </g>
    </g>
    <g id="ytick_29">
     <g id="line2d_73">
      <g>
       <use xlink:href="#m240a5b029e" x="662.662315" y="152.7168" style="fill: #800080; stroke: #800080; stroke-width: 0.8"/>
      </g>
     </g>
     <g id="text_42">
      <!-- 350 -->
      <g style="fill: #800080" transform="translate(669.662315 156.516019)scale(0.1 -0.1)">
       <use xlink:href="#DejaVuSans-33"/>
       <use xlink:href="#DejaVuSans-35" x="63.623047"/>
       <use xlink:href="#DejaVuSans-30" x="127.246094"/>
      </g>
     </g>
    </g>
    <g id="ytick_30">
     <g id="line2d_74">
      <g>
       <use xlink:href="#m240a5b029e" x="662.662315" y="119.6992" style="fill: #800080; stroke: #800080; stroke-width: 0.8"/>
      </g>
     </g>
     <g id="text_43">
      <!-- 400 -->
      <g style="fill: #800080" transform="translate(669.662315 123.498419)scale(0.1 -0.1)">
       <use xlink:href="#DejaVuSans-34"/>
       <use xlink:href="#DejaVuSans-30" x="63.623047"/>
       <use xlink:href="#DejaVuSans-30" x="127.246094"/>
      </g>
     </g>
    </g>
    <g id="ytick_31">
     <g id="line2d_75">
      <g>
       <use xlink:href="#m240a5b029e" x="662.662315" y="86.6816" style="fill: #800080; stroke: #800080; stroke-width: 0.8"/>
      </g>
     </g>
     <g id="text_44">
      <!-- 450 -->
      <g style="fill: #800080" transform="translate(669.662315 90.480819)scale(0.1 -0.1)">
       <use xlink:href="#DejaVuSans-34"/>
       <use xlink:href="#DejaVuSans-35" x="63.623047"/>
       <use xlink:href="#DejaVuSans-30" x="127.246094"/>
      </g>
     </g>
    </g>
    <g id="ytick_32">
     <g id="line2d_76">
      <g>
       <use xlink:href="#m240a5b029e" x="662.662315" y="53.664" style="fill: #800080; stroke: #800080; stroke-width: 0.8"/>
      </g>
     </g>
     <g id="text_45">
      <!-- 500 -->
      <g style="fill: #800080" transform="translate(669.662315 57.463219)scale(0.1 -0.1)">
       <use xlink:href="#DejaVuSans-35"/>
       <use xlink:href="#DejaVuSans-30" x="63.623047"/>
       <use xlink:href="#DejaVuSans-30" x="127.246094"/>
      </g>
     </g>
    </g>
    <g id="text_46">
     <!-- Daily confirmed cases (linear scale) -->
     <g style="fill: #800080" transform="translate(700.348253 308.002781)rotate(-90)scale(0.1 -0.1)">
      <defs>
       <path id="DejaVuSans-28" d="M 1984 4856 
Q 1566 4138 1362 3434 
Q 1159 2731 1159 2009 
Q 1159 1288 1364 580 
Q 1569 -128 1984 -844 
L 1484 -844 
Q 1016 -109 783 600 
Q 550 1309 550 2009 
Q 550 2706 781 3412 
Q 1013 4119 1484 4856 
L 1984 4856 
z
" transform="scale(0.015625)"/>
       <path id="DejaVuSans-29" d="M 513 4856 
L 1013 4856 
Q 1481 4119 1714 3412 
Q 1947 2706 1947 2009 
Q 1947 1309 1714 600 
Q 1481 -109 1013 -844 
L 513 -844 
Q 928 -128 1133 580 
Q 1338 1288 1338 2009 
Q 1338 2731 1133 3434 
Q 928 4138 513 4856 
z
" transform="scale(0.015625)"/>
      </defs>
      <use xlink:href="#DejaVuSans-44"/>
      <use xlink:href="#DejaVuSans-61" x="77.001953"/>
      <use xlink:href="#DejaVuSans-69" x="138.28125"/>
      <use xlink:href="#DejaVuSans-6c" x="166.064453"/>
      <use xlink:href="#DejaVuSans-79" x="193.847656"/>
      <use xlink:href="#DejaVuSans-20" x="253.027344"/>
      <use xlink:href="#DejaVuSans-63" x="284.814453"/>
      <use xlink:href="#DejaVuSans-6f" x="339.794922"/>
      <use xlink:href="#DejaVuSans-6e" x="400.976562"/>
      <use xlink:href="#DejaVuSans-66" x="464.355469"/>
      <use xlink:href="#DejaVuSans-69" x="499.560547"/>
      <use xlink:href="#DejaVuSans-72" x="527.34375"/>
      <use xlink:href="#DejaVuSans-6d" x="566.707031"/>
      <use xlink:href="#DejaVuSans-65" x="664.119141"/>
      <use xlink:href="#DejaVuSans-64" x="725.642578"/>
      <use xlink:href="#DejaVuSans-20" x="789.119141"/>
      <use xlink:href="#DejaVuSans-63" x="820.90625"/>
      <use xlink:href="#DejaVuSans-61" x="875.886719"/>
      <use xlink:href="#DejaVuSans-73" x="937.166016"/>
      <use xlink:href="#DejaVuSans-65" x="989.265625"/>
      <use xlink:href="#DejaVuSans-73" x="1050.789062"/>
      <use xlink:href="#DejaVuSans-20" x="1102.888672"/>
      <use xlink:href="#DejaVuSans-28" x="1134.675781"/>
      <use xlink:href="#DejaVuSans-6c" x="1173.689453"/>
      <use xlink:href="#DejaVuSans-69" x="1201.472656"/>
      <use xlink:href="#DejaVuSans-6e" x="1229.255859"/>
      <use xlink:href="#DejaVuSans-65" x="1292.634766"/>
      <use xlink:href="#DejaVuSans-61" x="1354.158203"/>
      <use xlink:href="#DejaVuSans-72" x="1415.4375"/>
      <use xlink:href="#DejaVuSans-20" x="1456.550781"/>
      <use xlink:href="#DejaVuSans-73" x="1488.337891"/>
      <use xlink:href="#DejaVuSans-63" x="1540.4375"/>
      <use xlink:href="#DejaVuSans-61" x="1595.417969"/>
      <use xlink:href="#DejaVuSans-6c" x="1656.697266"/>
      <use xlink:href="#DejaVuSans-65" x="1684.480469"/>
      <use xlink:href="#DejaVuSans-29" x="1746.003906"/>
     </g>
    </g>
   </g>
   <g id="line2d_77">
    <path d="M 18.524717 383.826793 
L 18.524717 383.826793 
L 29.630538 383.826793 
L 29.630538 383.826793 
L 40.736359 383.826793 
L 40.736359 383.826793 
L 51.842179 383.826793 
L 51.842179 381.185385 
L 62.948 381.185385 
L 62.948 383.166441 
L 74.053821 383.166441 
L 74.053821 381.845737 
L 85.159641 381.845737 
L 85.159641 383.826793 
L 96.265462 383.826793 
L 96.265462 383.826793 
L 107.371283 383.826793 
L 107.371283 383.826793 
L 118.477103 383.826793 
L 118.477103 383.166441 
L 129.582924 383.166441 
L 129.582924 371.280105 
L 140.688745 371.280105 
L 140.688745 381.185385 
L 151.794565 381.185385 
L 151.794565 380.525033 
L 162.900386 380.525033 
L 162.900386 380.525033 
L 174.006207 380.525033 
L 174.006207 382.506089 
L 185.112027 382.506089 
L 185.112027 381.185385 
L 196.217848 381.185385 
L 196.217848 383.826793 
L 207.323668 383.826793 
L 207.323668 380.525033 
L 218.429489 380.525033 
L 218.429489 379.204329 
L 229.53531 379.204329 
L 229.53531 379.204329 
L 240.64113 379.204329 
L 240.64113 377.223273 
L 251.746951 377.223273 
L 251.746951 377.223273 
L 262.852772 377.223273 
L 262.852772 376.562921 
L 273.958592 376.562921 
L 273.958592 367.317993 
L 285.064413 367.317993 
L 285.064413 368.638697 
L 296.170234 368.638697 
L 296.170234 344.205673 
L 307.276054 344.205673 
L 307.276054 336.281449 
L 318.381875 336.281449 
L 318.381875 330.998633 
L 329.487696 330.998633 
L 329.487696 315.150185 
L 340.593516 315.150185 
L 340.593516 284.113641 
L 351.699337 284.113641 
L 351.699337 253.077097 
L 362.805158 253.077097 
" clip-path="url(#p446861ba12)" style="fill: none; stroke: #800080; stroke-width: 1.5; stroke-linecap: square"/>
   </g>
   <g id="line2d_78">
    <path d="M 12.971807 383.332133 
L 24.077628 383.259741 
L 35.183448 383.177702 
L 46.289269 383.083361 
L 57.39509 382.972767 
L 68.50091 382.840976 
L 79.606731 382.683329 
L 90.712552 382.497379 
L 101.818372 382.285115 
L 112.924193 382.054631 
L 124.030014 381.818902 
L 135.135834 381.592221 
L 146.241655 381.383599 
L 157.347476 381.19028 
L 168.453296 380.993946 
L 179.559117 380.760975 
L 190.664938 380.445498 
L 201.770758 379.992599 
L 212.876579 379.339267 
L 223.982399 378.411183 
L 235.08822 377.116058 
L 246.194041 375.33369 
L 257.299861 372.903039 
L 268.405682 369.607657 
L 279.511503 365.15766 
L 290.617323 359.169566 
L 301.723144 351.140043 
L 312.828965 340.411216 
L 323.934785 326.130938 
L 335.040606 307.173086 
L 346.146427 282.070153 
L 357.252247 248.920236 
" clip-path="url(#p446861ba12)" style="fill: none; stroke: #ff00ff; stroke-width: 1.5; stroke-linecap: square"/>
   </g>
   <g id="line2d_79">
    <path d="M 357.252247 248.920236 
L 368.358068 204.972259 
L 379.463889 146.708924 
L 390.569709 69.46723 
L 398.212107 -1 
" clip-path="url(#p446861ba12)" style="fill: none; stroke-dasharray: 5.55,2.4; stroke-dashoffset: 0; stroke: #ff00ff; stroke-width: 1.5"/>
   </g>
   <g id="patch_7">
    <path d="M 62.948 383.84 
L 62.948 53.664 
" style="fill: none; stroke: #1f77b4; stroke-width: 0.8; stroke-linejoin: miter; stroke-linecap: square"/>
   </g>
   <g id="patch_8">
    <path d="M 662.662315 383.84 
L 662.662315 53.664 
" style="fill: none; stroke: #800080; stroke-width: 0.8; stroke-linejoin: miter; stroke-linecap: square"/>
   </g>
   <g id="patch_9">
    <path d="M 62.948 383.84 
L 662.662315 383.84 
" style="fill: none; stroke: #000000; stroke-width: 0.8; stroke-linejoin: miter; stroke-linecap: square"/>
   </g>
   <g id="patch_10">
    <path d="M 62.948 53.664 
L 662.662315 53.664 
" style="fill: none; stroke: #000000; stroke-width: 0.8; stroke-linejoin: miter; stroke-linecap: square"/>
   </g>
   <g id="legend_1">
    <g id="patch_11">
     <path d="M 68.548 130.5365 
L 219.173 130.5365 
Q 220.773 130.5365 220.773 128.9365 
L 220.773 59.264 
Q 220.773 57.664 219.173 57.664 
L 68.548 57.664 
Q 66.948 57.664 66.948 59.264 
L 66.948 128.9365 
Q 66.948 130.5365 68.548 130.5365 
z
" style="fill: #ffffff; opacity: 0.8; stroke: #cccccc; stroke-linejoin: miter"/>
    </g>
    <g id="patch_12">
     <path d="M 70.148 66.94275 
L 86.148 66.94275 
L 86.148 61.34275 
L 70.148 61.34275 
z
" style="fill: #1f77b4; stroke: #1f77b4; stroke-linejoin: miter"/>
    </g>
    <g id="text_47">
     <!-- $R_\mathrm{eff}$ -->
     <g transform="translate(92.548 66.94275)scale(0.08 -0.08)">
      <use xlink:href="#DejaVuSans-Oblique-52" transform="translate(0 0.09375)"/>
      <use xlink:href="#DejaVuSans-65" transform="translate(69.482422 -16.3125)scale(0.7)"/>
      <use xlink:href="#DejaVuSans-66" transform="translate(112.548828 -16.3125)scale(0.7)"/>
      <use xlink:href="#DejaVuSans-66" transform="translate(137.192383 -16.3125)scale(0.7)"/>
     </g>
    </g>
    <g id="patch_13">
     <path d="M 70.148 78.6865 
L 86.148 78.6865 
L 86.148 73.0865 
L 70.148 73.0865 
z
" style="fill: url(#h68d1733329); fill-opacity: 0.2; stroke: #0000ff; stroke-opacity: 0.2; stroke-linejoin: miter"/>
    </g>
    <g id="text_48">
     <!-- $R_\mathrm{eff}$ uncertainty -->
     <g transform="translate(92.548 78.6865)scale(0.08 -0.08)">
      <use xlink:href="#DejaVuSans-Oblique-52" transform="translate(0 0.015625)"/>
      <use xlink:href="#DejaVuSans-65" transform="translate(69.482422 -16.390625)scale(0.7)"/>
      <use xlink:href="#DejaVuSans-66" transform="translate(112.548828 -16.390625)scale(0.7)"/>
      <use xlink:href="#DejaVuSans-66" transform="translate(137.192383 -16.390625)scale(0.7)"/>
      <use xlink:href="#DejaVuSans-20" transform="translate(164.570312 0.015625)"/>
      <use xlink:href="#DejaVuSans-75" transform="translate(196.357422 0.015625)"/>
      <use xlink:href="#DejaVuSans-6e" transform="translate(259.736328 0.015625)"/>
      <use xlink:href="#DejaVuSans-63" transform="translate(323.115234 0.015625)"/>
      <use xlink:href="#DejaVuSans-65" transform="translate(378.095703 0.015625)"/>
      <use xlink:href="#DejaVuSans-72" transform="translate(439.619141 0.015625)"/>
      <use xlink:href="#DejaVuSans-74" transform="translate(480.732422 0.015625)"/>
      <use xlink:href="#DejaVuSans-61" transform="translate(519.941406 0.015625)"/>
      <use xlink:href="#DejaVuSans-69" transform="translate(581.220703 0.015625)"/>
      <use xlink:href="#DejaVuSans-6e" transform="translate(609.003906 0.015625)"/>
      <use xlink:href="#DejaVuSans-74" transform="translate(672.382812 0.015625)"/>
      <use xlink:href="#DejaVuSans-79" transform="translate(711.591797 0.015625)"/>
     </g>
    </g>
    <g id="line2d_80">
     <path d="M 70.148 87.64525 
L 70.148 87.64525 
L 78.148 87.64525 
L 78.148 87.64525 
L 86.148 87.64525 
" style="fill: none; stroke: #800080; stroke-width: 1.5; stroke-linecap: square"/>
    </g>
    <g id="text_49">
     <!-- Daily cases -->
     <g transform="translate(92.548 90.44525)scale(0.08 -0.08)">
      <use xlink:href="#DejaVuSans-44"/>
      <use xlink:href="#DejaVuSans-61" x="77.001953"/>
      <use xlink:href="#DejaVuSans-69" x="138.28125"/>
      <use xlink:href="#DejaVuSans-6c" x="166.064453"/>
      <use xlink:href="#DejaVuSans-79" x="193.847656"/>
      <use xlink:href="#DejaVuSans-20" x="253.027344"/>
      <use xlink:href="#DejaVuSans-63" x="284.814453"/>
      <use xlink:href="#DejaVuSans-61" x="339.794922"/>
      <use xlink:href="#DejaVuSans-73" x="401.074219"/>
      <use xlink:href="#DejaVuSans-65" x="453.173828"/>
      <use xlink:href="#DejaVuSans-73" x="514.697266"/>
     </g>
    </g>
    <g id="line2d_81">
     <path d="M 70.148 99.38775 
L 78.148 99.38775 
L 86.148 99.38775 
" style="fill: none; stroke: #ff00ff; stroke-width: 1.5; stroke-linecap: square"/>
    </g>
    <g id="text_50">
     <!-- Daily cases (smoothed) -->
     <g transform="translate(92.548 102.18775)scale(0.08 -0.08)">
      <use xlink:href="#DejaVuSans-44"/>
      <use xlink:href="#DejaVuSans-61" x="77.001953"/>
      <use xlink:href="#DejaVuSans-69" x="138.28125"/>
      <use xlink:href="#DejaVuSans-6c" x="166.064453"/>
      <use xlink:href="#DejaVuSans-79" x="193.847656"/>
      <use xlink:href="#DejaVuSans-20" x="253.027344"/>
      <use xlink:href="#DejaVuSans-63" x="284.814453"/>
      <use xlink:href="#DejaVuSans-61" x="339.794922"/>
      <use xlink:href="#DejaVuSans-73" x="401.074219"/>
      <use xlink:href="#DejaVuSans-65" x="453.173828"/>
      <use xlink:href="#DejaVuSans-73" x="514.697266"/>
      <use xlink:href="#DejaVuSans-20" x="566.796875"/>
      <use xlink:href="#DejaVuSans-28" x="598.583984"/>
      <use xlink:href="#DejaVuSans-73" x="637.597656"/>
      <use xlink:href="#DejaVuSans-6d" x="689.697266"/>
      <use xlink:href="#DejaVuSans-6f" x="787.109375"/>
      <use xlink:href="#DejaVuSans-6f" x="848.291016"/>
      <use xlink:href="#DejaVuSans-74" x="909.472656"/>
      <use xlink:href="#DejaVuSans-68" x="948.681641"/>
      <use xlink:href="#DejaVuSans-65" x="1012.060547"/>
      <use xlink:href="#DejaVuSans-64" x="1073.583984"/>
      <use xlink:href="#DejaVuSans-29" x="1137.060547"/>
     </g>
    </g>
    <g id="line2d_82">
     <path d="M 70.148 111.13025 
L 78.148 111.13025 
L 86.148 111.13025 
" style="fill: none; stroke-dasharray: 5.55,2.4; stroke-dashoffset: 0; stroke: #ff00ff; stroke-width: 1.5"/>
    </g>
    <g id="text_51">
     <!-- Daily cases (exponential trend) -->
     <g transform="translate(92.548 113.93025)scale(0.08 -0.08)">
      <defs>
       <path id="DejaVuSans-78" d="M 3513 3500 
L 2247 1797 
L 3578 0 
L 2900 0 
L 1881 1375 
L 863 0 
L 184 0 
L 1544 1831 
L 300 3500 
L 978 3500 
L 1906 2253 
L 2834 3500 
L 3513 3500 
z
" transform="scale(0.015625)"/>
       <path id="DejaVuSans-70" d="M 1159 525 
L 1159 -1331 
L 581 -1331 
L 581 3500 
L 1159 3500 
L 1159 2969 
Q 1341 3281 1617 3432 
Q 1894 3584 2278 3584 
Q 2916 3584 3314 3078 
Q 3713 2572 3713 1747 
Q 3713 922 3314 415 
Q 2916 -91 2278 -91 
Q 1894 -91 1617 61 
Q 1341 213 1159 525 
z
M 3116 1747 
Q 3116 2381 2855 2742 
Q 2594 3103 2138 3103 
Q 1681 3103 1420 2742 
Q 1159 2381 1159 1747 
Q 1159 1113 1420 752 
Q 1681 391 2138 391 
Q 2594 391 2855 752 
Q 3116 1113 3116 1747 
z
" transform="scale(0.015625)"/>
      </defs>
      <use xlink:href="#DejaVuSans-44"/>
      <use xlink:href="#DejaVuSans-61" x="77.001953"/>
      <use xlink:href="#DejaVuSans-69" x="138.28125"/>
      <use xlink:href="#DejaVuSans-6c" x="166.064453"/>
      <use xlink:href="#DejaVuSans-79" x="193.847656"/>
      <use xlink:href="#DejaVuSans-20" x="253.027344"/>
      <use xlink:href="#DejaVuSans-63" x="284.814453"/>
      <use xlink:href="#DejaVuSans-61" x="339.794922"/>
      <use xlink:href="#DejaVuSans-73" x="401.074219"/>
      <use xlink:href="#DejaVuSans-65" x="453.173828"/>
      <use xlink:href="#DejaVuSans-73" x="514.697266"/>
      <use xlink:href="#DejaVuSans-20" x="566.796875"/>
      <use xlink:href="#DejaVuSans-28" x="598.583984"/>
      <use xlink:href="#DejaVuSans-65" x="637.597656"/>
      <use xlink:href="#DejaVuSans-78" x="697.371094"/>
      <use xlink:href="#DejaVuSans-70" x="756.550781"/>
      <use xlink:href="#DejaVuSans-6f" x="820.027344"/>
      <use xlink:href="#DejaVuSans-6e" x="881.208984"/>
      <use xlink:href="#DejaVuSans-65" x="944.587891"/>
      <use xlink:href="#DejaVuSans-6e" x="1006.111328"/>
      <use xlink:href="#DejaVuSans-74" x="1069.490234"/>
      <use xlink:href="#DejaVuSans-69" x="1108.699219"/>
      <use xlink:href="#DejaVuSans-61" x="1136.482422"/>
      <use xlink:href="#DejaVuSans-6c" x="1197.761719"/>
      <use xlink:href="#DejaVuSans-20" x="1225.544922"/>
      <use xlink:href="#DejaVuSans-74" x="1257.332031"/>
      <use xlink:href="#DejaVuSans-72" x="1296.541016"/>
      <use xlink:href="#DejaVuSans-65" x="1335.404297"/>
      <use xlink:href="#DejaVuSans-6e" x="1396.927734"/>
      <use xlink:href="#DejaVuSans-64" x="1460.306641"/>
      <use xlink:href="#DejaVuSans-29" x="1523.783203"/>
     </g>
    </g>
    <g id="patch_14">
     <path d="M 70.148 125.67275 
L 86.148 125.67275 
L 86.148 120.07275 
L 70.148 120.07275 
z
" style="fill: #ff00ff; fill-opacity: 0.3"/>
    </g>
    <g id="text_52">
     <!-- Smoothing/trend uncertainty -->
     <g transform="translate(92.548 125.67275)scale(0.08 -0.08)">
      <defs>
       <path id="DejaVuSans-67" d="M 2906 1791 
Q 2906 2416 2648 2759 
Q 2391 3103 1925 3103 
Q 1463 3103 1205 2759 
Q 947 2416 947 1791 
Q 947 1169 1205 825 
Q 1463 481 1925 481 
Q 2391 481 2648 825 
Q 2906 1169 2906 1791 
z
M 3481 434 
Q 3481 -459 3084 -895 
Q 2688 -1331 1869 -1331 
Q 1566 -1331 1297 -1286 
Q 1028 -1241 775 -1147 
L 775 -588 
Q 1028 -725 1275 -790 
Q 1522 -856 1778 -856 
Q 2344 -856 2625 -561 
Q 2906 -266 2906 331 
L 2906 616 
Q 2728 306 2450 153 
Q 2172 0 1784 0 
Q 1141 0 747 490 
Q 353 981 353 1791 
Q 353 2603 747 3093 
Q 1141 3584 1784 3584 
Q 2172 3584 2450 3431 
Q 2728 3278 2906 2969 
L 2906 3500 
L 3481 3500 
L 3481 434 
z
" transform="scale(0.015625)"/>
       <path id="DejaVuSans-2f" d="M 1625 4666 
L 2156 4666 
L 531 -594 
L 0 -594 
L 1625 4666 
z
" transform="scale(0.015625)"/>
      </defs>
      <use xlink:href="#DejaVuSans-53"/>
      <use xlink:href="#DejaVuSans-6d" x="63.476562"/>
      <use xlink:href="#DejaVuSans-6f" x="160.888672"/>
      <use xlink:href="#DejaVuSans-6f" x="222.070312"/>
      <use xlink:href="#DejaVuSans-74" x="283.251953"/>
      <use xlink:href="#DejaVuSans-68" x="322.460938"/>
      <use xlink:href="#DejaVuSans-69" x="385.839844"/>
      <use xlink:href="#DejaVuSans-6e" x="413.623047"/>
      <use xlink:href="#DejaVuSans-67" x="477.001953"/>
      <use xlink:href="#DejaVuSans-2f" x="540.478516"/>
      <use xlink:href="#DejaVuSans-74" x="574.169922"/>
      <use xlink:href="#DejaVuSans-72" x="613.378906"/>
      <use xlink:href="#DejaVuSans-65" x="652.242188"/>
      <use xlink:href="#DejaVuSans-6e" x="713.765625"/>
      <use xlink:href="#DejaVuSans-64" x="777.144531"/>
      <use xlink:href="#DejaVuSans-20" x="840.621094"/>
      <use xlink:href="#DejaVuSans-75" x="872.408203"/>
      <use xlink:href="#DejaVuSans-6e" x="935.787109"/>
      <use xlink:href="#DejaVuSans-63" x="999.166016"/>
      <use xlink:href="#DejaVuSans-65" x="1054.146484"/>
      <use xlink:href="#DejaVuSans-72" x="1115.669922"/>
      <use xlink:href="#DejaVuSans-74" x="1156.783203"/>
      <use xlink:href="#DejaVuSans-61" x="1195.992188"/>
      <use xlink:href="#DejaVuSans-69" x="1257.271484"/>
      <use xlink:href="#DejaVuSans-6e" x="1285.054688"/>
      <use xlink:href="#DejaVuSans-74" x="1348.433594"/>
      <use xlink:href="#DejaVuSans-79" x="1387.642578"/>
     </g>
    </g>
   </g>
   <g id="PolyCollection_4">
    <defs>
     <path id="m32b4389840" d="M 12.971807 -49.168161 
L 12.971807 -48.167574 
L 24.077628 -48.245963 
L 35.183448 -48.33367 
L 46.289269 -48.434319 
L 57.39509 -48.552649 
L 68.50091 -48.693572 
L 79.606731 -48.860278 
L 90.712552 -49.05214 
L 101.818372 -49.263472 
L 112.924193 -49.484009 
L 124.030014 -49.702106 
L 135.135834 -49.908042 
L 146.241655 -50.0978 
L 157.347476 -50.276179 
L 168.453296 -50.458725 
L 179.559117 -50.671999 
L 190.664938 -50.953101 
L 201.770758 -51.349575 
L 212.876579 -51.920036 
L 223.982399 -52.736531 
L 235.08822 -53.889422 
L 246.194041 -55.496144 
L 257.299861 -57.713926 
L 268.405682 -60.755004 
L 279.511503 -64.905147 
L 290.617323 -70.541829 
L 301.723144 -78.147655 
L 312.828965 -88.301338 
L 323.934785 -101.615677 
L 335.040606 -118.687482 
L 346.146427 -140.137568 
L 357.252247 -166.721492 
L 357.252247 -199.438036 
L 357.252247 -199.438036 
L 346.146427 -159.722126 
L 335.040606 -130.966346 
L 323.934785 -110.122447 
L 312.828965 -94.87623 
L 301.723144 -83.572258 
L 290.617323 -75.119039 
L 279.511503 -68.779532 
L 268.405682 -64.029682 
L 257.299861 -60.479996 
L 246.194041 -57.836476 
L 235.08822 -55.878462 
L 223.982399 -54.441104 
L 212.876579 -53.40143 
L 201.770758 -52.665226 
L 190.664938 -52.155903 
L 179.559117 -51.806052 
L 168.453296 -51.553384 
L 157.347476 -51.343261 
L 146.241655 -51.135001 
L 135.135834 -50.907517 
L 124.030014 -50.660091 
L 112.924193 -50.406729 
L 101.818372 -50.166298 
L 90.712552 -49.953101 
L 79.606731 -49.773064 
L 68.50091 -49.624476 
L 57.39509 -49.501818 
L 46.289269 -49.398958 
L 35.183448 -49.310927 
L 24.077628 -49.234554 
L 12.971807 -49.168161 
z
"/>
    </defs>
    <g clip-path="url(#p446861ba12)">
     <use xlink:href="#m32b4389840" x="0" y="432" style="fill: #ff00ff; fill-opacity: 0.3"/>
    </g>
   </g>
  </g>
  <g id="text_53">
   <g id="patch_15">
    <path d="M 506.5175 429.24625 
L 716.8 429.24625 
L 716.8 413.23875 
L 506.5175 413.23875 
z
" style="fill: #ffffff; opacity: 0.8"/>
   </g>
   <!-- @chrisbilbo | chrisbillington.net/COVID_SA -->
   <g style="fill: #000040; opacity: 0.5" transform="translate(510.5175 423.36)scale(0.08 -0.08)">
    <defs>
     <path id="DejaVuSansMono-40" d="M 3244 1703 
Q 3244 2106 3044 2348 
Q 2844 2591 2509 2591 
Q 2175 2591 1973 2348 
Q 1772 2106 1772 1703 
Q 1772 1297 1973 1055 
Q 2175 813 2509 813 
Q 2844 813 3044 1055 
Q 3244 1297 3244 1703 
z
M 3681 422 
L 3231 422 
L 3231 769 
Q 3116 572 2911 465 
Q 2706 359 2450 359 
Q 1947 359 1617 737 
Q 1288 1116 1288 1703 
Q 1288 2291 1617 2669 
Q 1947 3047 2450 3047 
Q 2700 3047 2909 2937 
Q 3119 2828 3231 2638 
L 3231 2834 
Q 3231 3322 2956 3619 
Q 2681 3916 2228 3916 
Q 1459 3916 1004 3317 
Q 550 2719 550 1697 
Q 550 669 1065 59 
Q 1581 -550 2438 -550 
Q 2606 -550 2775 -519 
Q 2944 -488 3122 -422 
L 3272 -844 
Q 3075 -922 2883 -959 
Q 2691 -997 2509 -997 
Q 1394 -997 739 -269 
Q 84 459 84 1697 
Q 84 2916 671 3637 
Q 1259 4359 2247 4359 
Q 2900 4359 3290 3943 
Q 3681 3528 3681 2828 
L 3681 422 
z
" transform="scale(0.015625)"/>
     <path id="DejaVuSansMono-63" d="M 3316 178 
Q 3084 44 2839 -23 
Q 2594 -91 2338 -91 
Q 1525 -91 1067 396 
Q 609 884 609 1747 
Q 609 2609 1067 3096 
Q 1525 3584 2338 3584 
Q 2591 3584 2831 3518 
Q 3072 3453 3316 3316 
L 3316 2713 
Q 3088 2916 2858 3006 
Q 2628 3097 2338 3097 
Q 1797 3097 1506 2747 
Q 1216 2397 1216 1747 
Q 1216 1100 1508 748 
Q 1800 397 2338 397 
Q 2638 397 2875 489 
Q 3113 581 3316 775 
L 3316 178 
z
" transform="scale(0.015625)"/>
     <path id="DejaVuSansMono-68" d="M 3284 2169 
L 3284 0 
L 2706 0 
L 2706 2169 
Q 2706 2641 2540 2862 
Q 2375 3084 2022 3084 
Q 1619 3084 1401 2798 
Q 1184 2513 1184 1978 
L 1184 0 
L 609 0 
L 609 4863 
L 1184 4863 
L 1184 2975 
Q 1338 3275 1600 3429 
Q 1863 3584 2222 3584 
Q 2756 3584 3020 3232 
Q 3284 2881 3284 2169 
z
" transform="scale(0.015625)"/>
     <path id="DejaVuSansMono-72" d="M 3609 2778 
Q 3425 2922 3234 2987 
Q 3044 3053 2816 3053 
Q 2278 3053 1993 2715 
Q 1709 2378 1709 1741 
L 1709 0 
L 1131 0 
L 1131 3500 
L 1709 3500 
L 1709 2816 
Q 1853 3188 2151 3386 
Q 2450 3584 2859 3584 
Q 3072 3584 3256 3531 
Q 3441 3478 3609 3366 
L 3609 2778 
z
" transform="scale(0.015625)"/>
     <path id="DejaVuSansMono-69" d="M 800 3500 
L 2272 3500 
L 2272 447 
L 3413 447 
L 3413 0 
L 556 0 
L 556 447 
L 1697 447 
L 1697 3053 
L 800 3053 
L 800 3500 
z
M 1697 4863 
L 2272 4863 
L 2272 4134 
L 1697 4134 
L 1697 4863 
z
" transform="scale(0.015625)"/>
     <path id="DejaVuSansMono-73" d="M 3041 3378 
L 3041 2816 
Q 2794 2959 2544 3031 
Q 2294 3103 2034 3103 
Q 1644 3103 1451 2976 
Q 1259 2850 1259 2591 
Q 1259 2356 1403 2240 
Q 1547 2125 2119 2016 
L 2350 1972 
Q 2778 1891 2998 1647 
Q 3219 1403 3219 1013 
Q 3219 494 2850 201 
Q 2481 -91 1825 -91 
Q 1566 -91 1281 -36 
Q 997 19 666 128 
L 666 722 
Q 988 556 1281 473 
Q 1575 391 1838 391 
Q 2219 391 2428 545 
Q 2638 700 2638 978 
Q 2638 1378 1872 1531 
L 1847 1538 
L 1631 1581 
Q 1134 1678 906 1908 
Q 678 2138 678 2534 
Q 678 3038 1018 3311 
Q 1359 3584 1991 3584 
Q 2272 3584 2531 3532 
Q 2791 3481 3041 3378 
z
" transform="scale(0.015625)"/>
     <path id="DejaVuSansMono-62" d="M 2869 1747 
Q 2869 2416 2656 2756 
Q 2444 3097 2028 3097 
Q 1609 3097 1393 2755 
Q 1178 2413 1178 1747 
Q 1178 1084 1393 740 
Q 1609 397 2028 397 
Q 2444 397 2656 737 
Q 2869 1078 2869 1747 
z
M 1178 3053 
Q 1316 3309 1558 3446 
Q 1800 3584 2119 3584 
Q 2750 3584 3112 3098 
Q 3475 2613 3475 1759 
Q 3475 894 3111 401 
Q 2747 -91 2113 -91 
Q 1800 -91 1561 45 
Q 1322 181 1178 441 
L 1178 0 
L 603 0 
L 603 4863 
L 1178 4863 
L 1178 3053 
z
" transform="scale(0.015625)"/>
     <path id="DejaVuSansMono-6c" d="M 1997 1269 
Q 1997 881 2139 684 
Q 2281 488 2559 488 
L 3231 488 
L 3231 0 
L 2503 0 
Q 1988 0 1705 331 
Q 1422 663 1422 1269 
L 1422 4447 
L 500 4447 
L 500 4897 
L 1997 4897 
L 1997 1269 
z
" transform="scale(0.015625)"/>
     <path id="DejaVuSansMono-6f" d="M 1925 3097 
Q 1488 3097 1263 2756 
Q 1038 2416 1038 1747 
Q 1038 1081 1263 739 
Q 1488 397 1925 397 
Q 2366 397 2591 739 
Q 2816 1081 2816 1747 
Q 2816 2416 2591 2756 
Q 2366 3097 1925 3097 
z
M 1925 3584 
Q 2653 3584 3039 3112 
Q 3425 2641 3425 1747 
Q 3425 850 3040 379 
Q 2656 -91 1925 -91 
Q 1197 -91 812 379 
Q 428 850 428 1747 
Q 428 2641 812 3112 
Q 1197 3584 1925 3584 
z
" transform="scale(0.015625)"/>
     <path id="DejaVuSansMono-20" transform="scale(0.015625)"/>
     <path id="DejaVuSansMono-7c" d="M 2194 4891 
L 2194 -1509 
L 1656 -1509 
L 1656 4891 
L 2194 4891 
z
" transform="scale(0.015625)"/>
     <path id="DejaVuSansMono-6e" d="M 3284 2169 
L 3284 0 
L 2706 0 
L 2706 2169 
Q 2706 2641 2540 2862 
Q 2375 3084 2022 3084 
Q 1619 3084 1401 2798 
Q 1184 2513 1184 1978 
L 1184 0 
L 609 0 
L 609 3500 
L 1184 3500 
L 1184 2975 
Q 1338 3275 1600 3429 
Q 1863 3584 2222 3584 
Q 2756 3584 3020 3232 
Q 3284 2881 3284 2169 
z
" transform="scale(0.015625)"/>
     <path id="DejaVuSansMono-67" d="M 2681 1778 
Q 2681 2425 2470 2761 
Q 2259 3097 1856 3097 
Q 1434 3097 1212 2761 
Q 991 2425 991 1778 
Q 991 1131 1214 792 
Q 1438 453 1863 453 
Q 2259 453 2470 793 
Q 2681 1134 2681 1778 
z
M 3256 225 
Q 3256 -563 2884 -969 
Q 2513 -1375 1791 -1375 
Q 1553 -1375 1293 -1331 
Q 1034 -1288 775 -1203 
L 775 -634 
Q 1081 -778 1331 -847 
Q 1581 -916 1791 -916 
Q 2256 -916 2468 -662 
Q 2681 -409 2681 141 
L 2681 166 
L 2681 556 
Q 2544 263 2306 119 
Q 2069 -25 1728 -25 
Q 1116 -25 750 465 
Q 384 956 384 1778 
Q 384 2603 750 3093 
Q 1116 3584 1728 3584 
Q 2066 3584 2300 3450 
Q 2534 3316 2681 3034 
L 2681 3488 
L 3256 3488 
L 3256 225 
z
" transform="scale(0.015625)"/>
     <path id="DejaVuSansMono-74" d="M 1919 4494 
L 1919 3500 
L 3225 3500 
L 3225 3053 
L 1919 3053 
L 1919 1153 
Q 1919 766 2066 612 
Q 2213 459 2578 459 
L 3225 459 
L 3225 0 
L 2522 0 
Q 1875 0 1609 259 
Q 1344 519 1344 1153 
L 1344 3053 
L 409 3053 
L 409 3500 
L 1344 3500 
L 1344 4494 
L 1919 4494 
z
" transform="scale(0.015625)"/>
     <path id="DejaVuSansMono-2e" d="M 1528 953 
L 2316 953 
L 2316 0 
L 1528 0 
L 1528 953 
z
" transform="scale(0.015625)"/>
     <path id="DejaVuSansMono-65" d="M 3475 1894 
L 3475 1613 
L 984 1613 
L 984 1594 
Q 984 1022 1282 709 
Q 1581 397 2125 397 
Q 2400 397 2700 484 
Q 3000 572 3341 750 
L 3341 178 
Q 3013 44 2708 -23 
Q 2403 -91 2119 -91 
Q 1303 -91 843 398 
Q 384 888 384 1747 
Q 384 2584 834 3084 
Q 1284 3584 2034 3584 
Q 2703 3584 3089 3131 
Q 3475 2678 3475 1894 
z
M 2900 2063 
Q 2888 2569 2661 2833 
Q 2434 3097 2009 3097 
Q 1594 3097 1325 2822 
Q 1056 2547 1006 2059 
L 2900 2063 
z
" transform="scale(0.015625)"/>
     <path id="DejaVuSansMono-2f" d="M 2778 4666 
L 3372 4666 
L 916 -594 
L 319 -594 
L 2778 4666 
z
" transform="scale(0.015625)"/>
     <path id="DejaVuSansMono-43" d="M 3353 166 
Q 3113 38 2859 -26 
Q 2606 -91 2322 -91 
Q 1425 -91 929 543 
Q 434 1178 434 2328 
Q 434 3472 932 4111 
Q 1431 4750 2322 4750 
Q 2606 4750 2859 4686 
Q 3113 4622 3353 4494 
L 3353 3847 
Q 3122 4038 2856 4138 
Q 2591 4238 2322 4238 
Q 1706 4238 1400 3763 
Q 1094 3288 1094 2328 
Q 1094 1372 1400 897 
Q 1706 422 2322 422 
Q 2597 422 2861 522 
Q 3125 622 3353 813 
L 3353 166 
z
" transform="scale(0.015625)"/>
     <path id="DejaVuSansMono-4f" d="M 2828 2328 
Q 2828 3356 2617 3797 
Q 2406 4238 1925 4238 
Q 1447 4238 1236 3797 
Q 1025 3356 1025 2328 
Q 1025 1303 1236 862 
Q 1447 422 1925 422 
Q 2406 422 2617 861 
Q 2828 1300 2828 2328 
z
M 3488 2328 
Q 3488 1109 3102 509 
Q 2716 -91 1925 -91 
Q 1134 -91 750 506 
Q 366 1103 366 2328 
Q 366 3550 752 4150 
Q 1138 4750 1925 4750 
Q 2716 4750 3102 4150 
Q 3488 3550 3488 2328 
z
" transform="scale(0.015625)"/>
     <path id="DejaVuSansMono-56" d="M 1925 531 
L 3022 4666 
L 3675 4666 
L 2309 0 
L 1544 0 
L 178 4666 
L 831 4666 
L 1925 531 
z
" transform="scale(0.015625)"/>
     <path id="DejaVuSansMono-49" d="M 628 4666 
L 3219 4666 
L 3219 4134 
L 2241 4134 
L 2241 531 
L 3219 531 
L 3219 0 
L 628 0 
L 628 531 
L 1606 531 
L 1606 4134 
L 628 4134 
L 628 4666 
z
" transform="scale(0.015625)"/>
     <path id="DejaVuSansMono-44" d="M 1363 519 
Q 2159 519 2475 911 
Q 2791 1303 2791 2328 
Q 2791 3363 2477 3755 
Q 2163 4147 1363 4147 
L 1063 4147 
L 1063 519 
L 1363 519 
z
M 1375 4666 
Q 2444 4666 2950 4097 
Q 3456 3528 3456 2328 
Q 3456 1134 2950 567 
Q 2444 0 1375 0 
L 428 0 
L 428 4666 
L 1375 4666 
z
" transform="scale(0.015625)"/>
     <path id="DejaVuSansMono-5f" d="M 3853 -1259 
L 3853 -1509 
L 0 -1509 
L 0 -1259 
L 3853 -1259 
z
" transform="scale(0.015625)"/>
     <path id="DejaVuSansMono-53" d="M 3163 4506 
L 3163 3866 
Q 2875 4050 2586 4144 
Q 2297 4238 2003 4238 
Q 1556 4238 1297 4030 
Q 1038 3822 1038 3469 
Q 1038 3159 1208 2996 
Q 1378 2834 1844 2725 
L 2175 2650 
Q 2831 2497 3131 2169 
Q 3431 1841 3431 1275 
Q 3431 609 3018 259 
Q 2606 -91 1819 -91 
Q 1491 -91 1159 -20 
Q 828 50 494 191 
L 494 863 
Q 853 634 1173 528 
Q 1494 422 1819 422 
Q 2297 422 2562 636 
Q 2828 850 2828 1234 
Q 2828 1584 2645 1768 
Q 2463 1953 2009 2053 
L 1672 2131 
Q 1022 2278 728 2575 
Q 434 2872 434 3372 
Q 434 3997 854 4373 
Q 1275 4750 1972 4750 
Q 2241 4750 2537 4689 
Q 2834 4628 3163 4506 
z
" transform="scale(0.015625)"/>
     <path id="DejaVuSansMono-41" d="M 1925 4109 
L 1259 1722 
L 2591 1722 
L 1925 4109 
z
M 1544 4666 
L 2309 4666 
L 3738 0 
L 3084 0 
L 2741 1216 
L 1106 1216 
L 769 0 
L 116 0 
L 1544 4666 
z
" transform="scale(0.015625)"/>
    </defs>
    <use xlink:href="#DejaVuSansMono-40"/>
    <use xlink:href="#DejaVuSansMono-63" x="60.205078"/>
    <use xlink:href="#DejaVuSansMono-68" x="120.410156"/>
    <use xlink:href="#DejaVuSansMono-72" x="180.615234"/>
    <use xlink:href="#DejaVuSansMono-69" x="240.820312"/>
    <use xlink:href="#DejaVuSansMono-73" x="301.025391"/>
    <use xlink:href="#DejaVuSansMono-62" x="361.230469"/>
    <use xlink:href="#DejaVuSansMono-69" x="421.435547"/>
    <use xlink:href="#DejaVuSansMono-6c" x="481.640625"/>
    <use xlink:href="#DejaVuSansMono-62" x="541.845703"/>
    <use xlink:href="#DejaVuSansMono-6f" x="602.050781"/>
    <use xlink:href="#DejaVuSansMono-20" x="662.255859"/>
    <use xlink:href="#DejaVuSansMono-7c" x="722.460938"/>
    <use xlink:href="#DejaVuSansMono-20" x="782.666016"/>
    <use xlink:href="#DejaVuSansMono-63" x="842.871094"/>
    <use xlink:href="#DejaVuSansMono-68" x="903.076172"/>
    <use xlink:href="#DejaVuSansMono-72" x="963.28125"/>
    <use xlink:href="#DejaVuSansMono-69" x="1023.486328"/>
    <use xlink:href="#DejaVuSansMono-73" x="1083.691406"/>
    <use xlink:href="#DejaVuSansMono-62" x="1143.896484"/>
    <use xlink:href="#DejaVuSansMono-69" x="1204.101562"/>
    <use xlink:href="#DejaVuSansMono-6c" x="1264.306641"/>
    <use xlink:href="#DejaVuSansMono-6c" x="1324.511719"/>
    <use xlink:href="#DejaVuSansMono-69" x="1384.716797"/>
    <use xlink:href="#DejaVuSansMono-6e" x="1444.921875"/>
    <use xlink:href="#DejaVuSansMono-67" x="1505.126953"/>
    <use xlink:href="#DejaVuSansMono-74" x="1565.332031"/>
    <use xlink:href="#DejaVuSansMono-6f" x="1625.537109"/>
    <use xlink:href="#DejaVuSansMono-6e" x="1685.742188"/>
    <use xlink:href="#DejaVuSansMono-2e" x="1745.947266"/>
    <use xlink:href="#DejaVuSansMono-6e" x="1806.152344"/>
    <use xlink:href="#DejaVuSansMono-65" x="1866.357422"/>
    <use xlink:href="#DejaVuSansMono-74" x="1926.5625"/>
    <use xlink:href="#DejaVuSansMono-2f" x="1986.767578"/>
    <use xlink:href="#DejaVuSansMono-43" x="2046.972656"/>
    <use xlink:href="#DejaVuSansMono-4f" x="2107.177734"/>
    <use xlink:href="#DejaVuSansMono-56" x="2167.382812"/>
    <use xlink:href="#DejaVuSansMono-49" x="2227.587891"/>
    <use xlink:href="#DejaVuSansMono-44" x="2287.792969"/>
    <use xlink:href="#DejaVuSansMono-5f" x="2347.998047"/>
    <use xlink:href="#DejaVuSansMono-53" x="2408.203125"/>
    <use xlink:href="#DejaVuSansMono-41" x="2468.408203"/>
   </g>
  </g>
 </g>
 <defs>
  <clipPath id="p446861ba12">
   <rect x="62.948" y="53.664" width="599.714315" height="330.176"/>
  </clipPath>
 </defs>
 <defs>
  <pattern id="h68d1733329" patternUnits="userSpaceOnUse" x="0" y="0" width="72" height="72">
   <rect x="0" y="0" width="73" height="73" fill="#00ffff"/>
   <path d="M -36 36 
L 36 -36 
M -33 39 
L 39 -33 
M -30 42 
L 42 -30 
M -27 45 
L 45 -27 
M -24 48 
L 48 -24 
M -21 51 
L 51 -21 
M -18 54 
L 54 -18 
M -15 57 
L 57 -15 
M -12 60 
L 60 -12 
M -9 63 
L 63 -9 
M -6 66 
L 66 -6 
M -3 69 
L 69 -3 
M 0 72 
L 72 0 
M 3 75 
L 75 3 
M 6 78 
L 78 6 
M 9 81 
L 81 9 
M 12 84 
L 84 12 
M 15 87 
L 87 15 
M 18 90 
L 90 18 
M 21 93 
L 93 21 
M 24 96 
L 96 24 
M 27 99 
L 99 27 
M 30 102 
L 102 30 
M 33 105 
L 105 33 
M 36 108 
L 108 36 
" style="fill: #0000ff; stroke: #0000ff; stroke-width: 1.0; stroke-linecap: butt; stroke-linejoin: miter; stroke-opacity: 0.2"/>
  </pattern>
 </defs>
</svg>
