<?xml version="1.0" encoding="utf-8" standalone="no"?>
<!DOCTYPE svg PUBLIC "-//W3C//DTD SVG 1.1//EN"
  "http://www.w3.org/Graphics/SVG/1.1/DTD/svg11.dtd">
<svg height="360pt" version="1.1" viewBox="0 0 720 360" width="720pt" xmlns="http://www.w3.org/2000/svg" xmlns:xlink="http://www.w3.org/1999/xlink">
 <metadata>
  <rdf:RDF xmlns:cc="http://creativecommons.org/ns#" xmlns:dc="http://purl.org/dc/elements/1.1/" xmlns:rdf="http://www.w3.org/1999/02/22-rdf-syntax-ns#">
   <cc:Work>
    <dc:type rdf:resource="http://purl.org/dc/dcmitype/StillImage"/>
    <dc:date>2021-08-15T15:53:01.335786</dc:date>
    <dc:format>image/svg+xml</dc:format>
    <dc:creator>
     <cc:Agent>
      <dc:title>Matplotlib v3.4.2, https://matplotlib.org/</dc:title>
     </cc:Agent>
    </dc:creator>
   </cc:Work>
  </rdf:RDF>
 </metadata>
 <defs>
  <style type="text/css">*{stroke-linecap:butt;stroke-linejoin:round;}</style>
 </defs>
 <g id="figure_1">
  <g id="patch_1">
   <path d="M 0 360 
L 720 360 
L 720 0 
L 0 0 
z
" style="fill:#ffffff;"/>
  </g>
  <g id="axes_1">
   <g id="patch_2">
    <path d="M 47.765 319.04 
L 353.025 319.04 
L 353.025 26.16 
L 47.765 26.16 
z
" style="fill:#ffffff;"/>
   </g>
   <g id="matplotlib.axis_1">
    <g id="xtick_1">
     <g id="line2d_1">
      <path clip-path="url(#pf0e446ca43)" d="M 47.765 319.04 
L 47.765 26.16 
" style="fill:none;stroke:#000000;stroke-dasharray:0.8,1.32;stroke-dashoffset:0;stroke-opacity:0.5;stroke-width:0.8;"/>
     </g>
     <g id="line2d_2">
      <defs>
       <path d="M 0 0 
L 0 3.5 
" id="m335d5ac038" style="stroke:#000000;stroke-width:0.8;"/>
      </defs>
      <g>
       <use style="stroke:#000000;stroke-width:0.8;" x="47.765" xlink:href="#m335d5ac038" y="319.04"/>
      </g>
     </g>
     <g id="text_1">
      <!-- May -->
      <g transform="translate(37.4275 333.638438)scale(0.1 -0.1)">
       <defs>
        <path d="M 628 4666 
L 1569 4666 
L 2759 1491 
L 3956 4666 
L 4897 4666 
L 4897 0 
L 4281 0 
L 4281 4097 
L 3078 897 
L 2444 897 
L 1241 4097 
L 1241 0 
L 628 0 
L 628 4666 
z
" id="DejaVuSans-4d" transform="scale(0.015625)"/>
        <path d="M 2194 1759 
Q 1497 1759 1228 1600 
Q 959 1441 959 1056 
Q 959 750 1161 570 
Q 1363 391 1709 391 
Q 2188 391 2477 730 
Q 2766 1069 2766 1631 
L 2766 1759 
L 2194 1759 
z
M 3341 1997 
L 3341 0 
L 2766 0 
L 2766 531 
Q 2569 213 2275 61 
Q 1981 -91 1556 -91 
Q 1019 -91 701 211 
Q 384 513 384 1019 
Q 384 1609 779 1909 
Q 1175 2209 1959 2209 
L 2766 2209 
L 2766 2266 
Q 2766 2663 2505 2880 
Q 2244 3097 1772 3097 
Q 1472 3097 1187 3025 
Q 903 2953 641 2809 
L 641 3341 
Q 956 3463 1253 3523 
Q 1550 3584 1831 3584 
Q 2591 3584 2966 3190 
Q 3341 2797 3341 1997 
z
" id="DejaVuSans-61" transform="scale(0.015625)"/>
        <path d="M 2059 -325 
Q 1816 -950 1584 -1140 
Q 1353 -1331 966 -1331 
L 506 -1331 
L 506 -850 
L 844 -850 
Q 1081 -850 1212 -737 
Q 1344 -625 1503 -206 
L 1606 56 
L 191 3500 
L 800 3500 
L 1894 763 
L 2988 3500 
L 3597 3500 
L 2059 -325 
z
" id="DejaVuSans-79" transform="scale(0.015625)"/>
       </defs>
       <use xlink:href="#DejaVuSans-4d"/>
       <use x="86.279297" xlink:href="#DejaVuSans-61"/>
       <use x="147.558594" xlink:href="#DejaVuSans-79"/>
      </g>
     </g>
    </g>
    <g id="xtick_2">
     <g id="line2d_3">
      <path clip-path="url(#pf0e446ca43)" d="M 65.279918 319.04 
L 65.279918 26.16 
" style="fill:none;stroke:#000000;stroke-dasharray:0.8,1.32;stroke-dashoffset:0;stroke-opacity:0.5;stroke-width:0.8;"/>
     </g>
     <g id="line2d_4">
      <g>
       <use style="stroke:#000000;stroke-width:0.8;" x="65.279918" xlink:href="#m335d5ac038" y="319.04"/>
      </g>
     </g>
     <g id="text_2">
      <!-- 15 -->
      <g transform="translate(58.917418 333.638438)scale(0.1 -0.1)">
       <defs>
        <path d="M 794 531 
L 1825 531 
L 1825 4091 
L 703 3866 
L 703 4441 
L 1819 4666 
L 2450 4666 
L 2450 531 
L 3481 531 
L 3481 0 
L 794 0 
L 794 531 
z
" id="DejaVuSans-31" transform="scale(0.015625)"/>
        <path d="M 691 4666 
L 3169 4666 
L 3169 4134 
L 1269 4134 
L 1269 2991 
Q 1406 3038 1543 3061 
Q 1681 3084 1819 3084 
Q 2600 3084 3056 2656 
Q 3513 2228 3513 1497 
Q 3513 744 3044 326 
Q 2575 -91 1722 -91 
Q 1428 -91 1123 -41 
Q 819 9 494 109 
L 494 744 
Q 775 591 1075 516 
Q 1375 441 1709 441 
Q 2250 441 2565 725 
Q 2881 1009 2881 1497 
Q 2881 1984 2565 2268 
Q 2250 2553 1709 2553 
Q 1456 2553 1204 2497 
Q 953 2441 691 2322 
L 691 4666 
z
" id="DejaVuSans-35" transform="scale(0.015625)"/>
       </defs>
       <use xlink:href="#DejaVuSans-31"/>
       <use x="63.623047" xlink:href="#DejaVuSans-35"/>
      </g>
     </g>
    </g>
    <g id="xtick_3">
     <g id="line2d_5">
      <path clip-path="url(#pf0e446ca43)" d="M 86.548033 319.04 
L 86.548033 26.16 
" style="fill:none;stroke:#000000;stroke-dasharray:0.8,1.32;stroke-dashoffset:0;stroke-opacity:0.5;stroke-width:0.8;"/>
     </g>
     <g id="line2d_6">
      <g>
       <use style="stroke:#000000;stroke-width:0.8;" x="86.548033" xlink:href="#m335d5ac038" y="319.04"/>
      </g>
     </g>
     <g id="text_3">
      <!-- Jun -->
      <g transform="translate(78.735533 333.638438)scale(0.1 -0.1)">
       <defs>
        <path d="M 628 4666 
L 1259 4666 
L 1259 325 
Q 1259 -519 939 -900 
Q 619 -1281 -91 -1281 
L -331 -1281 
L -331 -750 
L -134 -750 
Q 284 -750 456 -515 
Q 628 -281 628 325 
L 628 4666 
z
" id="DejaVuSans-4a" transform="scale(0.015625)"/>
        <path d="M 544 1381 
L 544 3500 
L 1119 3500 
L 1119 1403 
Q 1119 906 1312 657 
Q 1506 409 1894 409 
Q 2359 409 2629 706 
Q 2900 1003 2900 1516 
L 2900 3500 
L 3475 3500 
L 3475 0 
L 2900 0 
L 2900 538 
Q 2691 219 2414 64 
Q 2138 -91 1772 -91 
Q 1169 -91 856 284 
Q 544 659 544 1381 
z
M 1991 3584 
L 1991 3584 
z
" id="DejaVuSans-75" transform="scale(0.015625)"/>
        <path d="M 3513 2113 
L 3513 0 
L 2938 0 
L 2938 2094 
Q 2938 2591 2744 2837 
Q 2550 3084 2163 3084 
Q 1697 3084 1428 2787 
Q 1159 2491 1159 1978 
L 1159 0 
L 581 0 
L 581 3500 
L 1159 3500 
L 1159 2956 
Q 1366 3272 1645 3428 
Q 1925 3584 2291 3584 
Q 2894 3584 3203 3211 
Q 3513 2838 3513 2113 
z
" id="DejaVuSans-6e" transform="scale(0.015625)"/>
       </defs>
       <use xlink:href="#DejaVuSans-4a"/>
       <use x="29.492188" xlink:href="#DejaVuSans-75"/>
       <use x="92.871094" xlink:href="#DejaVuSans-6e"/>
      </g>
     </g>
    </g>
    <g id="xtick_4">
     <g id="line2d_7">
      <path clip-path="url(#pf0e446ca43)" d="M 104.062951 319.04 
L 104.062951 26.16 
" style="fill:none;stroke:#000000;stroke-dasharray:0.8,1.32;stroke-dashoffset:0;stroke-opacity:0.5;stroke-width:0.8;"/>
     </g>
     <g id="line2d_8">
      <g>
       <use style="stroke:#000000;stroke-width:0.8;" x="104.062951" xlink:href="#m335d5ac038" y="319.04"/>
      </g>
     </g>
     <g id="text_4">
      <!-- 15 -->
      <g transform="translate(97.700451 333.638438)scale(0.1 -0.1)">
       <use xlink:href="#DejaVuSans-31"/>
       <use x="63.623047" xlink:href="#DejaVuSans-35"/>
      </g>
     </g>
    </g>
    <g id="xtick_5">
     <g id="line2d_9">
      <path clip-path="url(#pf0e446ca43)" d="M 124.08 319.04 
L 124.08 26.16 
" style="fill:none;stroke:#000000;stroke-dasharray:0.8,1.32;stroke-dashoffset:0;stroke-opacity:0.5;stroke-width:0.8;"/>
     </g>
     <g id="line2d_10">
      <g>
       <use style="stroke:#000000;stroke-width:0.8;" x="124.08" xlink:href="#m335d5ac038" y="319.04"/>
      </g>
     </g>
     <g id="text_5">
      <!-- Jul -->
      <g transform="translate(118.047187 333.638438)scale(0.1 -0.1)">
       <defs>
        <path d="M 603 4863 
L 1178 4863 
L 1178 0 
L 603 0 
L 603 4863 
z
" id="DejaVuSans-6c" transform="scale(0.015625)"/>
       </defs>
       <use xlink:href="#DejaVuSans-4a"/>
       <use x="29.492188" xlink:href="#DejaVuSans-75"/>
       <use x="92.871094" xlink:href="#DejaVuSans-6c"/>
      </g>
     </g>
    </g>
    <g id="xtick_6">
     <g id="line2d_11">
      <path clip-path="url(#pf0e446ca43)" d="M 141.594918 319.04 
L 141.594918 26.16 
" style="fill:none;stroke:#000000;stroke-dasharray:0.8,1.32;stroke-dashoffset:0;stroke-opacity:0.5;stroke-width:0.8;"/>
     </g>
     <g id="line2d_12">
      <g>
       <use style="stroke:#000000;stroke-width:0.8;" x="141.594918" xlink:href="#m335d5ac038" y="319.04"/>
      </g>
     </g>
     <g id="text_6">
      <!-- 15 -->
      <g transform="translate(135.232418 333.638438)scale(0.1 -0.1)">
       <use xlink:href="#DejaVuSans-31"/>
       <use x="63.623047" xlink:href="#DejaVuSans-35"/>
      </g>
     </g>
    </g>
    <g id="xtick_7">
     <g id="line2d_13">
      <path clip-path="url(#pf0e446ca43)" d="M 162.863033 319.04 
L 162.863033 26.16 
" style="fill:none;stroke:#000000;stroke-dasharray:0.8,1.32;stroke-dashoffset:0;stroke-opacity:0.5;stroke-width:0.8;"/>
     </g>
     <g id="line2d_14">
      <g>
       <use style="stroke:#000000;stroke-width:0.8;" x="162.863033" xlink:href="#m335d5ac038" y="319.04"/>
      </g>
     </g>
     <g id="text_7">
      <!-- Aug -->
      <g transform="translate(153.099752 333.638438)scale(0.1 -0.1)">
       <defs>
        <path d="M 2188 4044 
L 1331 1722 
L 3047 1722 
L 2188 4044 
z
M 1831 4666 
L 2547 4666 
L 4325 0 
L 3669 0 
L 3244 1197 
L 1141 1197 
L 716 0 
L 50 0 
L 1831 4666 
z
" id="DejaVuSans-41" transform="scale(0.015625)"/>
        <path d="M 2906 1791 
Q 2906 2416 2648 2759 
Q 2391 3103 1925 3103 
Q 1463 3103 1205 2759 
Q 947 2416 947 1791 
Q 947 1169 1205 825 
Q 1463 481 1925 481 
Q 2391 481 2648 825 
Q 2906 1169 2906 1791 
z
M 3481 434 
Q 3481 -459 3084 -895 
Q 2688 -1331 1869 -1331 
Q 1566 -1331 1297 -1286 
Q 1028 -1241 775 -1147 
L 775 -588 
Q 1028 -725 1275 -790 
Q 1522 -856 1778 -856 
Q 2344 -856 2625 -561 
Q 2906 -266 2906 331 
L 2906 616 
Q 2728 306 2450 153 
Q 2172 0 1784 0 
Q 1141 0 747 490 
Q 353 981 353 1791 
Q 353 2603 747 3093 
Q 1141 3584 1784 3584 
Q 2172 3584 2450 3431 
Q 2728 3278 2906 2969 
L 2906 3500 
L 3481 3500 
L 3481 434 
z
" id="DejaVuSans-67" transform="scale(0.015625)"/>
       </defs>
       <use xlink:href="#DejaVuSans-41"/>
       <use x="68.408203" xlink:href="#DejaVuSans-75"/>
       <use x="131.787109" xlink:href="#DejaVuSans-67"/>
      </g>
     </g>
    </g>
    <g id="xtick_8">
     <g id="line2d_15">
      <path clip-path="url(#pf0e446ca43)" d="M 180.377951 319.04 
L 180.377951 26.16 
" style="fill:none;stroke:#000000;stroke-dasharray:0.8,1.32;stroke-dashoffset:0;stroke-opacity:0.5;stroke-width:0.8;"/>
     </g>
     <g id="line2d_16">
      <g>
       <use style="stroke:#000000;stroke-width:0.8;" x="180.377951" xlink:href="#m335d5ac038" y="319.04"/>
      </g>
     </g>
     <g id="text_8">
      <!-- 15 -->
      <g transform="translate(174.015451 333.638438)scale(0.1 -0.1)">
       <use xlink:href="#DejaVuSans-31"/>
       <use x="63.623047" xlink:href="#DejaVuSans-35"/>
      </g>
     </g>
    </g>
    <g id="xtick_9">
     <g id="line2d_17">
      <path clip-path="url(#pf0e446ca43)" d="M 201.646066 319.04 
L 201.646066 26.16 
" style="fill:none;stroke:#000000;stroke-dasharray:0.8,1.32;stroke-dashoffset:0;stroke-opacity:0.5;stroke-width:0.8;"/>
     </g>
     <g id="line2d_18">
      <g>
       <use style="stroke:#000000;stroke-width:0.8;" x="201.646066" xlink:href="#m335d5ac038" y="319.04"/>
      </g>
     </g>
     <g id="text_9">
      <!-- Sep -->
      <g transform="translate(192.221066 333.638438)scale(0.1 -0.1)">
       <defs>
        <path d="M 3425 4513 
L 3425 3897 
Q 3066 4069 2747 4153 
Q 2428 4238 2131 4238 
Q 1616 4238 1336 4038 
Q 1056 3838 1056 3469 
Q 1056 3159 1242 3001 
Q 1428 2844 1947 2747 
L 2328 2669 
Q 3034 2534 3370 2195 
Q 3706 1856 3706 1288 
Q 3706 609 3251 259 
Q 2797 -91 1919 -91 
Q 1588 -91 1214 -16 
Q 841 59 441 206 
L 441 856 
Q 825 641 1194 531 
Q 1563 422 1919 422 
Q 2459 422 2753 634 
Q 3047 847 3047 1241 
Q 3047 1584 2836 1778 
Q 2625 1972 2144 2069 
L 1759 2144 
Q 1053 2284 737 2584 
Q 422 2884 422 3419 
Q 422 4038 858 4394 
Q 1294 4750 2059 4750 
Q 2388 4750 2728 4690 
Q 3069 4631 3425 4513 
z
" id="DejaVuSans-53" transform="scale(0.015625)"/>
        <path d="M 3597 1894 
L 3597 1613 
L 953 1613 
Q 991 1019 1311 708 
Q 1631 397 2203 397 
Q 2534 397 2845 478 
Q 3156 559 3463 722 
L 3463 178 
Q 3153 47 2828 -22 
Q 2503 -91 2169 -91 
Q 1331 -91 842 396 
Q 353 884 353 1716 
Q 353 2575 817 3079 
Q 1281 3584 2069 3584 
Q 2775 3584 3186 3129 
Q 3597 2675 3597 1894 
z
M 3022 2063 
Q 3016 2534 2758 2815 
Q 2500 3097 2075 3097 
Q 1594 3097 1305 2825 
Q 1016 2553 972 2059 
L 3022 2063 
z
" id="DejaVuSans-65" transform="scale(0.015625)"/>
        <path d="M 1159 525 
L 1159 -1331 
L 581 -1331 
L 581 3500 
L 1159 3500 
L 1159 2969 
Q 1341 3281 1617 3432 
Q 1894 3584 2278 3584 
Q 2916 3584 3314 3078 
Q 3713 2572 3713 1747 
Q 3713 922 3314 415 
Q 2916 -91 2278 -91 
Q 1894 -91 1617 61 
Q 1341 213 1159 525 
z
M 3116 1747 
Q 3116 2381 2855 2742 
Q 2594 3103 2138 3103 
Q 1681 3103 1420 2742 
Q 1159 2381 1159 1747 
Q 1159 1113 1420 752 
Q 1681 391 2138 391 
Q 2594 391 2855 752 
Q 3116 1113 3116 1747 
z
" id="DejaVuSans-70" transform="scale(0.015625)"/>
       </defs>
       <use xlink:href="#DejaVuSans-53"/>
       <use x="63.476562" xlink:href="#DejaVuSans-65"/>
       <use x="125" xlink:href="#DejaVuSans-70"/>
      </g>
     </g>
    </g>
    <g id="xtick_10">
     <g id="line2d_19">
      <path clip-path="url(#pf0e446ca43)" d="M 219.160984 319.04 
L 219.160984 26.16 
" style="fill:none;stroke:#000000;stroke-dasharray:0.8,1.32;stroke-dashoffset:0;stroke-opacity:0.5;stroke-width:0.8;"/>
     </g>
     <g id="line2d_20">
      <g>
       <use style="stroke:#000000;stroke-width:0.8;" x="219.160984" xlink:href="#m335d5ac038" y="319.04"/>
      </g>
     </g>
     <g id="text_10">
      <!-- 15 -->
      <g transform="translate(212.798484 333.638438)scale(0.1 -0.1)">
       <use xlink:href="#DejaVuSans-31"/>
       <use x="63.623047" xlink:href="#DejaVuSans-35"/>
      </g>
     </g>
    </g>
    <g id="xtick_11">
     <g id="line2d_21">
      <path clip-path="url(#pf0e446ca43)" d="M 239.178033 319.04 
L 239.178033 26.16 
" style="fill:none;stroke:#000000;stroke-dasharray:0.8,1.32;stroke-dashoffset:0;stroke-opacity:0.5;stroke-width:0.8;"/>
     </g>
     <g id="line2d_22">
      <g>
       <use style="stroke:#000000;stroke-width:0.8;" x="239.178033" xlink:href="#m335d5ac038" y="319.04"/>
      </g>
     </g>
     <g id="text_11">
      <!-- Oct -->
      <g transform="translate(230.53272 333.638438)scale(0.1 -0.1)">
       <defs>
        <path d="M 2522 4238 
Q 1834 4238 1429 3725 
Q 1025 3213 1025 2328 
Q 1025 1447 1429 934 
Q 1834 422 2522 422 
Q 3209 422 3611 934 
Q 4013 1447 4013 2328 
Q 4013 3213 3611 3725 
Q 3209 4238 2522 4238 
z
M 2522 4750 
Q 3503 4750 4090 4092 
Q 4678 3434 4678 2328 
Q 4678 1225 4090 567 
Q 3503 -91 2522 -91 
Q 1538 -91 948 565 
Q 359 1222 359 2328 
Q 359 3434 948 4092 
Q 1538 4750 2522 4750 
z
" id="DejaVuSans-4f" transform="scale(0.015625)"/>
        <path d="M 3122 3366 
L 3122 2828 
Q 2878 2963 2633 3030 
Q 2388 3097 2138 3097 
Q 1578 3097 1268 2742 
Q 959 2388 959 1747 
Q 959 1106 1268 751 
Q 1578 397 2138 397 
Q 2388 397 2633 464 
Q 2878 531 3122 666 
L 3122 134 
Q 2881 22 2623 -34 
Q 2366 -91 2075 -91 
Q 1284 -91 818 406 
Q 353 903 353 1747 
Q 353 2603 823 3093 
Q 1294 3584 2113 3584 
Q 2378 3584 2631 3529 
Q 2884 3475 3122 3366 
z
" id="DejaVuSans-63" transform="scale(0.015625)"/>
        <path d="M 1172 4494 
L 1172 3500 
L 2356 3500 
L 2356 3053 
L 1172 3053 
L 1172 1153 
Q 1172 725 1289 603 
Q 1406 481 1766 481 
L 2356 481 
L 2356 0 
L 1766 0 
Q 1100 0 847 248 
Q 594 497 594 1153 
L 594 3053 
L 172 3053 
L 172 3500 
L 594 3500 
L 594 4494 
L 1172 4494 
z
" id="DejaVuSans-74" transform="scale(0.015625)"/>
       </defs>
       <use xlink:href="#DejaVuSans-4f"/>
       <use x="78.710938" xlink:href="#DejaVuSans-63"/>
       <use x="133.691406" xlink:href="#DejaVuSans-74"/>
      </g>
     </g>
    </g>
    <g id="xtick_12">
     <g id="line2d_23">
      <path clip-path="url(#pf0e446ca43)" d="M 256.692951 319.04 
L 256.692951 26.16 
" style="fill:none;stroke:#000000;stroke-dasharray:0.8,1.32;stroke-dashoffset:0;stroke-opacity:0.5;stroke-width:0.8;"/>
     </g>
     <g id="line2d_24">
      <g>
       <use style="stroke:#000000;stroke-width:0.8;" x="256.692951" xlink:href="#m335d5ac038" y="319.04"/>
      </g>
     </g>
     <g id="text_12">
      <!-- 15 -->
      <g transform="translate(250.330451 333.638438)scale(0.1 -0.1)">
       <use xlink:href="#DejaVuSans-31"/>
       <use x="63.623047" xlink:href="#DejaVuSans-35"/>
      </g>
     </g>
    </g>
    <g id="xtick_13">
     <g id="line2d_25">
      <path clip-path="url(#pf0e446ca43)" d="M 277.961066 319.04 
L 277.961066 26.16 
" style="fill:none;stroke:#000000;stroke-dasharray:0.8,1.32;stroke-dashoffset:0;stroke-opacity:0.5;stroke-width:0.8;"/>
     </g>
     <g id="line2d_26">
      <g>
       <use style="stroke:#000000;stroke-width:0.8;" x="277.961066" xlink:href="#m335d5ac038" y="319.04"/>
      </g>
     </g>
     <g id="text_13">
      <!-- Nov -->
      <g transform="translate(268.201691 333.638438)scale(0.1 -0.1)">
       <defs>
        <path d="M 628 4666 
L 1478 4666 
L 3547 763 
L 3547 4666 
L 4159 4666 
L 4159 0 
L 3309 0 
L 1241 3903 
L 1241 0 
L 628 0 
L 628 4666 
z
" id="DejaVuSans-4e" transform="scale(0.015625)"/>
        <path d="M 1959 3097 
Q 1497 3097 1228 2736 
Q 959 2375 959 1747 
Q 959 1119 1226 758 
Q 1494 397 1959 397 
Q 2419 397 2687 759 
Q 2956 1122 2956 1747 
Q 2956 2369 2687 2733 
Q 2419 3097 1959 3097 
z
M 1959 3584 
Q 2709 3584 3137 3096 
Q 3566 2609 3566 1747 
Q 3566 888 3137 398 
Q 2709 -91 1959 -91 
Q 1206 -91 779 398 
Q 353 888 353 1747 
Q 353 2609 779 3096 
Q 1206 3584 1959 3584 
z
" id="DejaVuSans-6f" transform="scale(0.015625)"/>
        <path d="M 191 3500 
L 800 3500 
L 1894 563 
L 2988 3500 
L 3597 3500 
L 2284 0 
L 1503 0 
L 191 3500 
z
" id="DejaVuSans-76" transform="scale(0.015625)"/>
       </defs>
       <use xlink:href="#DejaVuSans-4e"/>
       <use x="74.804688" xlink:href="#DejaVuSans-6f"/>
       <use x="135.986328" xlink:href="#DejaVuSans-76"/>
      </g>
     </g>
    </g>
    <g id="xtick_14">
     <g id="line2d_27">
      <path clip-path="url(#pf0e446ca43)" d="M 295.475984 319.04 
L 295.475984 26.16 
" style="fill:none;stroke:#000000;stroke-dasharray:0.8,1.32;stroke-dashoffset:0;stroke-opacity:0.5;stroke-width:0.8;"/>
     </g>
     <g id="line2d_28">
      <g>
       <use style="stroke:#000000;stroke-width:0.8;" x="295.475984" xlink:href="#m335d5ac038" y="319.04"/>
      </g>
     </g>
     <g id="text_14">
      <!-- 15 -->
      <g transform="translate(289.113484 333.638438)scale(0.1 -0.1)">
       <use xlink:href="#DejaVuSans-31"/>
       <use x="63.623047" xlink:href="#DejaVuSans-35"/>
      </g>
     </g>
    </g>
    <g id="xtick_15">
     <g id="line2d_29">
      <path clip-path="url(#pf0e446ca43)" d="M 315.493033 319.04 
L 315.493033 26.16 
" style="fill:none;stroke:#000000;stroke-dasharray:0.8,1.32;stroke-dashoffset:0;stroke-opacity:0.5;stroke-width:0.8;"/>
     </g>
     <g id="line2d_30">
      <g>
       <use style="stroke:#000000;stroke-width:0.8;" x="315.493033" xlink:href="#m335d5ac038" y="319.04"/>
      </g>
     </g>
     <g id="text_15">
      <!-- Dec -->
      <g transform="translate(305.817252 333.638438)scale(0.1 -0.1)">
       <defs>
        <path d="M 1259 4147 
L 1259 519 
L 2022 519 
Q 2988 519 3436 956 
Q 3884 1394 3884 2338 
Q 3884 3275 3436 3711 
Q 2988 4147 2022 4147 
L 1259 4147 
z
M 628 4666 
L 1925 4666 
Q 3281 4666 3915 4102 
Q 4550 3538 4550 2338 
Q 4550 1131 3912 565 
Q 3275 0 1925 0 
L 628 0 
L 628 4666 
z
" id="DejaVuSans-44" transform="scale(0.015625)"/>
       </defs>
       <use xlink:href="#DejaVuSans-44"/>
       <use x="77.001953" xlink:href="#DejaVuSans-65"/>
       <use x="138.525391" xlink:href="#DejaVuSans-63"/>
      </g>
     </g>
    </g>
    <g id="xtick_16">
     <g id="line2d_31">
      <path clip-path="url(#pf0e446ca43)" d="M 333.007951 319.04 
L 333.007951 26.16 
" style="fill:none;stroke:#000000;stroke-dasharray:0.8,1.32;stroke-dashoffset:0;stroke-opacity:0.5;stroke-width:0.8;"/>
     </g>
     <g id="line2d_32">
      <g>
       <use style="stroke:#000000;stroke-width:0.8;" x="333.007951" xlink:href="#m335d5ac038" y="319.04"/>
      </g>
     </g>
     <g id="text_16">
      <!-- 15 -->
      <g transform="translate(326.645451 333.638438)scale(0.1 -0.1)">
       <use xlink:href="#DejaVuSans-31"/>
       <use x="63.623047" xlink:href="#DejaVuSans-35"/>
      </g>
     </g>
    </g>
    <g id="text_17">
     <!-- 2021-Dec -->
     <g transform="translate(304.615625 346.316563)scale(0.1 -0.1)">
      <defs>
       <path d="M 1228 531 
L 3431 531 
L 3431 0 
L 469 0 
L 469 531 
Q 828 903 1448 1529 
Q 2069 2156 2228 2338 
Q 2531 2678 2651 2914 
Q 2772 3150 2772 3378 
Q 2772 3750 2511 3984 
Q 2250 4219 1831 4219 
Q 1534 4219 1204 4116 
Q 875 4013 500 3803 
L 500 4441 
Q 881 4594 1212 4672 
Q 1544 4750 1819 4750 
Q 2544 4750 2975 4387 
Q 3406 4025 3406 3419 
Q 3406 3131 3298 2873 
Q 3191 2616 2906 2266 
Q 2828 2175 2409 1742 
Q 1991 1309 1228 531 
z
" id="DejaVuSans-32" transform="scale(0.015625)"/>
       <path d="M 2034 4250 
Q 1547 4250 1301 3770 
Q 1056 3291 1056 2328 
Q 1056 1369 1301 889 
Q 1547 409 2034 409 
Q 2525 409 2770 889 
Q 3016 1369 3016 2328 
Q 3016 3291 2770 3770 
Q 2525 4250 2034 4250 
z
M 2034 4750 
Q 2819 4750 3233 4129 
Q 3647 3509 3647 2328 
Q 3647 1150 3233 529 
Q 2819 -91 2034 -91 
Q 1250 -91 836 529 
Q 422 1150 422 2328 
Q 422 3509 836 4129 
Q 1250 4750 2034 4750 
z
" id="DejaVuSans-30" transform="scale(0.015625)"/>
       <path d="M 313 2009 
L 1997 2009 
L 1997 1497 
L 313 1497 
L 313 2009 
z
" id="DejaVuSans-2d" transform="scale(0.015625)"/>
      </defs>
      <use xlink:href="#DejaVuSans-32"/>
      <use x="63.623047" xlink:href="#DejaVuSans-30"/>
      <use x="127.246094" xlink:href="#DejaVuSans-32"/>
      <use x="190.869141" xlink:href="#DejaVuSans-31"/>
      <use x="254.492188" xlink:href="#DejaVuSans-2d"/>
      <use x="290.576172" xlink:href="#DejaVuSans-44"/>
      <use x="367.578125" xlink:href="#DejaVuSans-65"/>
      <use x="429.101562" xlink:href="#DejaVuSans-63"/>
     </g>
    </g>
   </g>
   <g id="matplotlib.axis_2">
    <g id="ytick_1">
     <g id="line2d_33">
      <path clip-path="url(#pf0e446ca43)" d="M 47.765 319.04 
L 353.025 319.04 
" style="fill:none;stroke:#000000;stroke-dasharray:0.8,1.32;stroke-dashoffset:0;stroke-opacity:0.5;stroke-width:0.8;"/>
     </g>
     <g id="line2d_34">
      <defs>
       <path d="M 0 0 
L -3.5 0 
" id="mba1342eb88" style="stroke:#000000;stroke-width:0.8;"/>
      </defs>
      <g>
       <use style="stroke:#000000;stroke-width:0.8;" x="47.765" xlink:href="#mba1342eb88" y="319.04"/>
      </g>
     </g>
     <g id="text_18">
      <!-- 0.0 -->
      <g transform="translate(24.861875 322.839219)scale(0.1 -0.1)">
       <defs>
        <path d="M 684 794 
L 1344 794 
L 1344 0 
L 684 0 
L 684 794 
z
" id="DejaVuSans-2e" transform="scale(0.015625)"/>
       </defs>
       <use xlink:href="#DejaVuSans-30"/>
       <use x="63.623047" xlink:href="#DejaVuSans-2e"/>
       <use x="95.410156" xlink:href="#DejaVuSans-30"/>
      </g>
     </g>
    </g>
    <g id="ytick_2">
     <g id="line2d_35">
      <path clip-path="url(#pf0e446ca43)" d="M 47.765 284.583529 
L 353.025 284.583529 
" style="fill:none;stroke:#000000;stroke-dasharray:0.8,1.32;stroke-dashoffset:0;stroke-opacity:0.5;stroke-width:0.8;"/>
     </g>
     <g id="line2d_36">
      <g>
       <use style="stroke:#000000;stroke-width:0.8;" x="47.765" xlink:href="#mba1342eb88" y="284.583529"/>
      </g>
     </g>
     <g id="text_19">
      <!-- 0.2 -->
      <g transform="translate(24.861875 288.382748)scale(0.1 -0.1)">
       <use xlink:href="#DejaVuSans-30"/>
       <use x="63.623047" xlink:href="#DejaVuSans-2e"/>
       <use x="95.410156" xlink:href="#DejaVuSans-32"/>
      </g>
     </g>
    </g>
    <g id="ytick_3">
     <g id="line2d_37">
      <path clip-path="url(#pf0e446ca43)" d="M 47.765 250.127059 
L 353.025 250.127059 
" style="fill:none;stroke:#000000;stroke-dasharray:0.8,1.32;stroke-dashoffset:0;stroke-opacity:0.5;stroke-width:0.8;"/>
     </g>
     <g id="line2d_38">
      <g>
       <use style="stroke:#000000;stroke-width:0.8;" x="47.765" xlink:href="#mba1342eb88" y="250.127059"/>
      </g>
     </g>
     <g id="text_20">
      <!-- 0.4 -->
      <g transform="translate(24.861875 253.926278)scale(0.1 -0.1)">
       <defs>
        <path d="M 2419 4116 
L 825 1625 
L 2419 1625 
L 2419 4116 
z
M 2253 4666 
L 3047 4666 
L 3047 1625 
L 3713 1625 
L 3713 1100 
L 3047 1100 
L 3047 0 
L 2419 0 
L 2419 1100 
L 313 1100 
L 313 1709 
L 2253 4666 
z
" id="DejaVuSans-34" transform="scale(0.015625)"/>
       </defs>
       <use xlink:href="#DejaVuSans-30"/>
       <use x="63.623047" xlink:href="#DejaVuSans-2e"/>
       <use x="95.410156" xlink:href="#DejaVuSans-34"/>
      </g>
     </g>
    </g>
    <g id="ytick_4">
     <g id="line2d_39">
      <path clip-path="url(#pf0e446ca43)" d="M 47.765 215.670588 
L 353.025 215.670588 
" style="fill:none;stroke:#000000;stroke-dasharray:0.8,1.32;stroke-dashoffset:0;stroke-opacity:0.5;stroke-width:0.8;"/>
     </g>
     <g id="line2d_40">
      <g>
       <use style="stroke:#000000;stroke-width:0.8;" x="47.765" xlink:href="#mba1342eb88" y="215.670588"/>
      </g>
     </g>
     <g id="text_21">
      <!-- 0.6 -->
      <g transform="translate(24.861875 219.469807)scale(0.1 -0.1)">
       <defs>
        <path d="M 2113 2584 
Q 1688 2584 1439 2293 
Q 1191 2003 1191 1497 
Q 1191 994 1439 701 
Q 1688 409 2113 409 
Q 2538 409 2786 701 
Q 3034 994 3034 1497 
Q 3034 2003 2786 2293 
Q 2538 2584 2113 2584 
z
M 3366 4563 
L 3366 3988 
Q 3128 4100 2886 4159 
Q 2644 4219 2406 4219 
Q 1781 4219 1451 3797 
Q 1122 3375 1075 2522 
Q 1259 2794 1537 2939 
Q 1816 3084 2150 3084 
Q 2853 3084 3261 2657 
Q 3669 2231 3669 1497 
Q 3669 778 3244 343 
Q 2819 -91 2113 -91 
Q 1303 -91 875 529 
Q 447 1150 447 2328 
Q 447 3434 972 4092 
Q 1497 4750 2381 4750 
Q 2619 4750 2861 4703 
Q 3103 4656 3366 4563 
z
" id="DejaVuSans-36" transform="scale(0.015625)"/>
       </defs>
       <use xlink:href="#DejaVuSans-30"/>
       <use x="63.623047" xlink:href="#DejaVuSans-2e"/>
       <use x="95.410156" xlink:href="#DejaVuSans-36"/>
      </g>
     </g>
    </g>
    <g id="ytick_5">
     <g id="line2d_41">
      <path clip-path="url(#pf0e446ca43)" d="M 47.765 181.214118 
L 353.025 181.214118 
" style="fill:none;stroke:#000000;stroke-dasharray:0.8,1.32;stroke-dashoffset:0;stroke-opacity:0.5;stroke-width:0.8;"/>
     </g>
     <g id="line2d_42">
      <g>
       <use style="stroke:#000000;stroke-width:0.8;" x="47.765" xlink:href="#mba1342eb88" y="181.214118"/>
      </g>
     </g>
     <g id="text_22">
      <!-- 0.8 -->
      <g transform="translate(24.861875 185.013336)scale(0.1 -0.1)">
       <defs>
        <path d="M 2034 2216 
Q 1584 2216 1326 1975 
Q 1069 1734 1069 1313 
Q 1069 891 1326 650 
Q 1584 409 2034 409 
Q 2484 409 2743 651 
Q 3003 894 3003 1313 
Q 3003 1734 2745 1975 
Q 2488 2216 2034 2216 
z
M 1403 2484 
Q 997 2584 770 2862 
Q 544 3141 544 3541 
Q 544 4100 942 4425 
Q 1341 4750 2034 4750 
Q 2731 4750 3128 4425 
Q 3525 4100 3525 3541 
Q 3525 3141 3298 2862 
Q 3072 2584 2669 2484 
Q 3125 2378 3379 2068 
Q 3634 1759 3634 1313 
Q 3634 634 3220 271 
Q 2806 -91 2034 -91 
Q 1263 -91 848 271 
Q 434 634 434 1313 
Q 434 1759 690 2068 
Q 947 2378 1403 2484 
z
M 1172 3481 
Q 1172 3119 1398 2916 
Q 1625 2713 2034 2713 
Q 2441 2713 2670 2916 
Q 2900 3119 2900 3481 
Q 2900 3844 2670 4047 
Q 2441 4250 2034 4250 
Q 1625 4250 1398 4047 
Q 1172 3844 1172 3481 
z
" id="DejaVuSans-38" transform="scale(0.015625)"/>
       </defs>
       <use xlink:href="#DejaVuSans-30"/>
       <use x="63.623047" xlink:href="#DejaVuSans-2e"/>
       <use x="95.410156" xlink:href="#DejaVuSans-38"/>
      </g>
     </g>
    </g>
    <g id="ytick_6">
     <g id="line2d_43">
      <path clip-path="url(#pf0e446ca43)" d="M 47.765 146.757647 
L 353.025 146.757647 
" style="fill:none;stroke:#000000;stroke-dasharray:0.8,1.32;stroke-dashoffset:0;stroke-opacity:0.5;stroke-width:0.8;"/>
     </g>
     <g id="line2d_44">
      <g>
       <use style="stroke:#000000;stroke-width:0.8;" x="47.765" xlink:href="#mba1342eb88" y="146.757647"/>
      </g>
     </g>
     <g id="text_23">
      <!-- 1.0 -->
      <g transform="translate(24.861875 150.556866)scale(0.1 -0.1)">
       <use xlink:href="#DejaVuSans-31"/>
       <use x="63.623047" xlink:href="#DejaVuSans-2e"/>
       <use x="95.410156" xlink:href="#DejaVuSans-30"/>
      </g>
     </g>
    </g>
    <g id="ytick_7">
     <g id="line2d_45">
      <path clip-path="url(#pf0e446ca43)" d="M 47.765 112.301176 
L 353.025 112.301176 
" style="fill:none;stroke:#000000;stroke-dasharray:0.8,1.32;stroke-dashoffset:0;stroke-opacity:0.5;stroke-width:0.8;"/>
     </g>
     <g id="line2d_46">
      <g>
       <use style="stroke:#000000;stroke-width:0.8;" x="47.765" xlink:href="#mba1342eb88" y="112.301176"/>
      </g>
     </g>
     <g id="text_24">
      <!-- 1.2 -->
      <g transform="translate(24.861875 116.100395)scale(0.1 -0.1)">
       <use xlink:href="#DejaVuSans-31"/>
       <use x="63.623047" xlink:href="#DejaVuSans-2e"/>
       <use x="95.410156" xlink:href="#DejaVuSans-32"/>
      </g>
     </g>
    </g>
    <g id="ytick_8">
     <g id="line2d_47">
      <path clip-path="url(#pf0e446ca43)" d="M 47.765 77.844706 
L 353.025 77.844706 
" style="fill:none;stroke:#000000;stroke-dasharray:0.8,1.32;stroke-dashoffset:0;stroke-opacity:0.5;stroke-width:0.8;"/>
     </g>
     <g id="line2d_48">
      <g>
       <use style="stroke:#000000;stroke-width:0.8;" x="47.765" xlink:href="#mba1342eb88" y="77.844706"/>
      </g>
     </g>
     <g id="text_25">
      <!-- 1.4 -->
      <g transform="translate(24.861875 81.643925)scale(0.1 -0.1)">
       <use xlink:href="#DejaVuSans-31"/>
       <use x="63.623047" xlink:href="#DejaVuSans-2e"/>
       <use x="95.410156" xlink:href="#DejaVuSans-34"/>
      </g>
     </g>
    </g>
    <g id="ytick_9">
     <g id="line2d_49">
      <path clip-path="url(#pf0e446ca43)" d="M 47.765 43.388235 
L 353.025 43.388235 
" style="fill:none;stroke:#000000;stroke-dasharray:0.8,1.32;stroke-dashoffset:0;stroke-opacity:0.5;stroke-width:0.8;"/>
     </g>
     <g id="line2d_50">
      <g>
       <use style="stroke:#000000;stroke-width:0.8;" x="47.765" xlink:href="#mba1342eb88" y="43.388235"/>
      </g>
     </g>
     <g id="text_26">
      <!-- 1.6 -->
      <g transform="translate(24.861875 47.187454)scale(0.1 -0.1)">
       <use xlink:href="#DejaVuSans-31"/>
       <use x="63.623047" xlink:href="#DejaVuSans-2e"/>
       <use x="95.410156" xlink:href="#DejaVuSans-36"/>
      </g>
     </g>
    </g>
    <g id="text_27">
     <!-- 7d avg doses per hundred population per day -->
     <g transform="translate(18.782188 287.0875)rotate(-90)scale(0.1 -0.1)">
      <defs>
       <path d="M 525 4666 
L 3525 4666 
L 3525 4397 
L 1831 0 
L 1172 0 
L 2766 4134 
L 525 4134 
L 525 4666 
z
" id="DejaVuSans-37" transform="scale(0.015625)"/>
       <path d="M 2906 2969 
L 2906 4863 
L 3481 4863 
L 3481 0 
L 2906 0 
L 2906 525 
Q 2725 213 2448 61 
Q 2172 -91 1784 -91 
Q 1150 -91 751 415 
Q 353 922 353 1747 
Q 353 2572 751 3078 
Q 1150 3584 1784 3584 
Q 2172 3584 2448 3432 
Q 2725 3281 2906 2969 
z
M 947 1747 
Q 947 1113 1208 752 
Q 1469 391 1925 391 
Q 2381 391 2643 752 
Q 2906 1113 2906 1747 
Q 2906 2381 2643 2742 
Q 2381 3103 1925 3103 
Q 1469 3103 1208 2742 
Q 947 2381 947 1747 
z
" id="DejaVuSans-64" transform="scale(0.015625)"/>
       <path id="DejaVuSans-20" transform="scale(0.015625)"/>
       <path d="M 2834 3397 
L 2834 2853 
Q 2591 2978 2328 3040 
Q 2066 3103 1784 3103 
Q 1356 3103 1142 2972 
Q 928 2841 928 2578 
Q 928 2378 1081 2264 
Q 1234 2150 1697 2047 
L 1894 2003 
Q 2506 1872 2764 1633 
Q 3022 1394 3022 966 
Q 3022 478 2636 193 
Q 2250 -91 1575 -91 
Q 1294 -91 989 -36 
Q 684 19 347 128 
L 347 722 
Q 666 556 975 473 
Q 1284 391 1588 391 
Q 1994 391 2212 530 
Q 2431 669 2431 922 
Q 2431 1156 2273 1281 
Q 2116 1406 1581 1522 
L 1381 1569 
Q 847 1681 609 1914 
Q 372 2147 372 2553 
Q 372 3047 722 3315 
Q 1072 3584 1716 3584 
Q 2034 3584 2315 3537 
Q 2597 3491 2834 3397 
z
" id="DejaVuSans-73" transform="scale(0.015625)"/>
       <path d="M 2631 2963 
Q 2534 3019 2420 3045 
Q 2306 3072 2169 3072 
Q 1681 3072 1420 2755 
Q 1159 2438 1159 1844 
L 1159 0 
L 581 0 
L 581 3500 
L 1159 3500 
L 1159 2956 
Q 1341 3275 1631 3429 
Q 1922 3584 2338 3584 
Q 2397 3584 2469 3576 
Q 2541 3569 2628 3553 
L 2631 2963 
z
" id="DejaVuSans-72" transform="scale(0.015625)"/>
       <path d="M 3513 2113 
L 3513 0 
L 2938 0 
L 2938 2094 
Q 2938 2591 2744 2837 
Q 2550 3084 2163 3084 
Q 1697 3084 1428 2787 
Q 1159 2491 1159 1978 
L 1159 0 
L 581 0 
L 581 4863 
L 1159 4863 
L 1159 2956 
Q 1366 3272 1645 3428 
Q 1925 3584 2291 3584 
Q 2894 3584 3203 3211 
Q 3513 2838 3513 2113 
z
" id="DejaVuSans-68" transform="scale(0.015625)"/>
       <path d="M 603 3500 
L 1178 3500 
L 1178 0 
L 603 0 
L 603 3500 
z
M 603 4863 
L 1178 4863 
L 1178 4134 
L 603 4134 
L 603 4863 
z
" id="DejaVuSans-69" transform="scale(0.015625)"/>
      </defs>
      <use xlink:href="#DejaVuSans-37"/>
      <use x="63.623047" xlink:href="#DejaVuSans-64"/>
      <use x="127.099609" xlink:href="#DejaVuSans-20"/>
      <use x="158.886719" xlink:href="#DejaVuSans-61"/>
      <use x="220.166016" xlink:href="#DejaVuSans-76"/>
      <use x="279.345703" xlink:href="#DejaVuSans-67"/>
      <use x="342.822266" xlink:href="#DejaVuSans-20"/>
      <use x="374.609375" xlink:href="#DejaVuSans-64"/>
      <use x="438.085938" xlink:href="#DejaVuSans-6f"/>
      <use x="499.267578" xlink:href="#DejaVuSans-73"/>
      <use x="551.367188" xlink:href="#DejaVuSans-65"/>
      <use x="612.890625" xlink:href="#DejaVuSans-73"/>
      <use x="664.990234" xlink:href="#DejaVuSans-20"/>
      <use x="696.777344" xlink:href="#DejaVuSans-70"/>
      <use x="760.253906" xlink:href="#DejaVuSans-65"/>
      <use x="821.777344" xlink:href="#DejaVuSans-72"/>
      <use x="862.890625" xlink:href="#DejaVuSans-20"/>
      <use x="894.677734" xlink:href="#DejaVuSans-68"/>
      <use x="958.056641" xlink:href="#DejaVuSans-75"/>
      <use x="1021.435547" xlink:href="#DejaVuSans-6e"/>
      <use x="1084.814453" xlink:href="#DejaVuSans-64"/>
      <use x="1148.291016" xlink:href="#DejaVuSans-72"/>
      <use x="1187.154297" xlink:href="#DejaVuSans-65"/>
      <use x="1248.677734" xlink:href="#DejaVuSans-64"/>
      <use x="1312.154297" xlink:href="#DejaVuSans-20"/>
      <use x="1343.941406" xlink:href="#DejaVuSans-70"/>
      <use x="1407.417969" xlink:href="#DejaVuSans-6f"/>
      <use x="1468.599609" xlink:href="#DejaVuSans-70"/>
      <use x="1532.076172" xlink:href="#DejaVuSans-75"/>
      <use x="1595.455078" xlink:href="#DejaVuSans-6c"/>
      <use x="1623.238281" xlink:href="#DejaVuSans-61"/>
      <use x="1684.517578" xlink:href="#DejaVuSans-74"/>
      <use x="1723.726562" xlink:href="#DejaVuSans-69"/>
      <use x="1751.509766" xlink:href="#DejaVuSans-6f"/>
      <use x="1812.691406" xlink:href="#DejaVuSans-6e"/>
      <use x="1876.070312" xlink:href="#DejaVuSans-20"/>
      <use x="1907.857422" xlink:href="#DejaVuSans-70"/>
      <use x="1971.333984" xlink:href="#DejaVuSans-65"/>
      <use x="2032.857422" xlink:href="#DejaVuSans-72"/>
      <use x="2073.970703" xlink:href="#DejaVuSans-20"/>
      <use x="2105.757812" xlink:href="#DejaVuSans-64"/>
      <use x="2169.234375" xlink:href="#DejaVuSans-61"/>
      <use x="2230.513672" xlink:href="#DejaVuSans-79"/>
     </g>
    </g>
   </g>
   <g id="line2d_51">
    <path clip-path="url(#pf0e446ca43)" d="M -1 311.166707 
L 0.224508 311.166707 
L 0.224508 312.609476 
L 1.475574 312.609476 
L 1.475574 307.710933 
L 2.726639 307.710933 
L 2.726639 305.577974 
L 5.22877 305.577974 
L 5.22877 309.57957 
L 6.479836 309.57957 
L 6.479836 310.885206 
L 8.981967 310.885206 
L 8.981967 305.640965 
L 10.233033 305.640965 
L 10.233033 308.443017 
L 11.484098 308.443017 
L 11.484098 310.323107 
L 12.735164 310.323107 
L 12.735164 309.931598 
L 15.237295 309.921953 
L 15.237295 310.800213 
L 16.488361 310.800213 
L 16.488361 308.695283 
L 17.739426 308.695283 
L 17.739426 312.062447 
L 18.990492 312.062447 
L 18.990492 261.22345 
L 20.241557 261.22345 
L 20.241557 255.724834 
L 21.492623 255.724834 
L 21.492623 253.993029 
L 22.743689 253.993029 
L 22.743689 253.398983 
L 23.994754 253.398983 
L 23.994754 248.343113 
L 25.24582 248.343113 
L 25.24582 244.184791 
L 26.496885 244.184791 
L 26.496885 239.898077 
L 27.747951 239.898077 
L 27.747951 287.004018 
L 28.999016 287.004018 
L 28.999016 287.355744 
L 31.501148 287.416625 
L 31.501148 281.514744 
L 32.752213 281.514744 
L 32.752213 280.807977 
L 35.254344 280.819732 
L 35.254344 280.644622 
L 36.50541 280.644622 
L 36.50541 280.503269 
L 39.007541 280.526476 
L 39.007541 280.867653 
L 40.258607 280.867653 
L 40.258607 287.214993 
L 41.509672 287.214993 
L 41.509672 289.11377 
L 42.760738 289.11377 
L 42.760738 290.313917 
L 44.011803 290.313917 
L 44.011803 288.995021 
L 46.513934 289.034503 
L 46.513934 289.183392 
L 47.765 289.183392 
L 47.765 289.361816 
L 49.016066 289.361816 
L 49.016066 289.243972 
L 50.267131 289.243972 
L 50.267131 287.970586 
L 51.518197 287.970586 
L 51.518197 286.350899 
L 52.769262 286.350899 
L 52.769262 287.41331 
L 54.020328 287.41331 
L 54.020328 286.692679 
L 55.271393 286.692679 
L 55.271393 285.413868 
L 56.522459 285.413868 
L 56.522459 284.743871 
L 59.02459 284.682386 
L 59.02459 283.742341 
L 60.275656 283.742341 
L 60.275656 282.925566 
L 61.526721 282.925566 
L 61.526721 281.63922 
L 62.777787 281.63922 
L 62.777787 279.880591 
L 64.028852 279.880591 
L 64.028852 278.406175 
L 65.279918 278.406175 
L 65.279918 276.818436 
L 67.782049 276.787694 
L 67.782049 274.567331 
L 69.033115 274.567331 
L 69.033115 272.742697 
L 70.28418 272.742697 
L 70.28418 271.048566 
L 71.535246 271.048566 
L 71.535246 269.195299 
L 72.786311 269.195299 
L 72.786311 267.563557 
L 74.037377 267.563557 
L 74.037377 267.419491 
L 75.288443 267.419491 
L 75.288443 267.25282 
L 76.539508 267.25282 
L 76.539508 266.900793 
L 77.790574 266.900793 
L 77.790574 265.976119 
L 79.041639 265.976119 
L 79.041639 264.726844 
L 80.292705 264.726844 
L 80.292705 263.667448 
L 81.54377 263.667448 
L 81.54377 262.504673 
L 82.794836 262.504673 
L 82.794836 261.63666 
L 85.296967 261.572162 
L 85.296967 259.775256 
L 86.548033 259.775256 
L 86.548033 258.626044 
L 87.799098 258.626044 
L 87.799098 257.281529 
L 89.050164 257.281529 
L 89.050164 256.030145 
L 91.552295 255.963236 
L 91.552295 255.720916 
L 92.803361 255.720916 
L 92.803361 255.496076 
L 94.054426 255.496076 
L 94.054426 255.254359 
L 95.305492 255.254359 
L 95.305492 254.740484 
L 96.556557 254.740484 
L 96.556557 255.482212 
L 97.807623 255.482212 
L 97.807623 255.608195 
L 100.309754 255.5012 
L 100.309754 256.638658 
L 101.56082 256.638658 
L 101.56082 257.099789 
L 102.811885 257.099789 
L 102.811885 263.806691 
L 104.062951 263.806691 
L 104.062951 263.520368 
L 105.314016 263.520368 
L 105.314016 263.056222 
L 106.565082 263.056222 
L 106.565082 262.909444 
L 107.816148 262.909444 
L 107.816148 262.557718 
L 109.067213 262.557718 
L 109.067213 261.268057 
L 110.318279 261.268057 
L 110.318279 260.923263 
L 111.569344 260.923263 
L 111.569344 253.927325 
L 112.82041 253.927325 
L 112.82041 254.27242 
L 115.322541 254.191044 
L 115.322541 253.824851 
L 116.573607 253.824851 
L 116.573607 254.311903 
L 117.824672 254.311903 
L 117.824672 253.416464 
L 119.075738 253.416464 
L 119.075738 250.31121 
L 120.326803 250.31121 
L 120.326803 250.052012 
L 121.577869 250.052012 
L 121.577869 248.026349 
L 122.828934 248.026349 
L 122.828934 245.393378 
L 124.08 245.393378 
L 124.08 242.415915 
L 125.331066 242.415915 
L 125.331066 238.316064 
L 126.582131 238.316064 
L 126.582131 236.493841 
L 127.833197 236.493841 
L 127.833197 235.048661 
L 129.084262 235.048661 
L 129.084262 232.151369 
L 130.335328 232.151369 
L 130.335328 230.347832 
L 131.586393 230.347832 
L 131.586393 229.688685 
L 132.837459 229.688685 
L 132.837459 228.764011 
L 134.088525 228.764011 
L 134.088525 228.305893 
L 135.33959 228.305893 
L 135.33959 227.471336 
L 136.590656 227.471336 
L 136.590656 227.930056 
L 137.841721 227.930056 
L 137.841721 225.7329 
L 139.092787 225.7329 
L 139.092787 222.278633 
L 140.343852 222.278633 
L 140.343852 219.910286 
L 141.594918 219.910286 
L 141.594918 216.670912 
L 142.845984 216.670912 
L 142.845984 213.162394 
L 144.097049 213.162394 
L 144.097049 210.898932 
L 145.348115 210.898932 
L 145.348115 209.530908 
L 146.59918 209.530908 
L 146.59918 206.504017 
L 147.850246 206.504017 
L 147.850246 205.480486 
L 149.101311 205.480486 
L 149.101311 203.552474 
L 150.352377 203.552474 
L 150.352377 200.854704 
L 151.603443 200.854704 
L 151.603443 198.579788 
L 152.854508 198.579788 
L 152.854508 197.335939 
L 154.105574 197.335939 
L 154.105574 196.43628 
L 155.356639 196.43628 
L 155.356639 194.520927 
L 156.607705 194.520927 
L 156.607705 191.484089 
L 157.85877 191.484089 
L 157.85877 187.139808 
L 159.109836 187.139808 
L 159.109836 184.733184 
L 160.360902 184.733184 
L 160.360902 181.108027 
L 161.611967 181.108027 
L 161.611967 179.561579 
L 162.863033 179.561579 
L 162.863033 178.826481 
L 164.114098 178.826481 
L 164.114098 174.839954 
L 165.365164 174.839954 
L 165.365164 172.543941 
L 166.61623 172.543941 
L 166.61623 171.247649 
L 167.867295 171.247649 
L 167.867295 168.237033 
L 169.118361 168.237033 
L 169.118361 166.043192 
L 170.369426 166.043192 
L 170.369426 162.279997 
L 171.620492 162.279997 
L 171.620492 162.402061 
L 172.871557 162.402061 
L 172.871557 158.296785 
L 174.122623 158.296785 
L 174.122623 151.65197 
L 175.373689 151.65197 
L 175.373689 145.188896 
L 176.624754 145.188896 
L 176.624754 141.359696 
L 177.87582 141.359696 
L 177.87582 136.508472 
L 179.126885 136.508472 
L 179.126885 136.508472 
" style="fill:none;stroke:#1f77b4;stroke-linecap:square;stroke-width:1.5;"/>
   </g>
   <g id="line2d_52">
    <path clip-path="url(#pf0e446ca43)" d="M 179.126885 112.301176 
L 200.395 112.301176 
L 200.395 77.844706 
L 237.926967 77.844706 
L 237.926967 43.388235 
L 429.34 43.388235 
L 429.34 43.388235 
" style="fill:none;stroke:#ff7f0e;stroke-linecap:square;stroke-width:1.5;"/>
   </g>
   <g id="patch_3">
    <path d="M 47.765 319.04 
L 47.765 26.16 
" style="fill:none;stroke:#000000;stroke-linecap:square;stroke-linejoin:miter;stroke-width:0.8;"/>
   </g>
   <g id="patch_4">
    <path d="M 353.025 319.04 
L 353.025 26.16 
" style="fill:none;stroke:#000000;stroke-linecap:square;stroke-linejoin:miter;stroke-width:0.8;"/>
   </g>
   <g id="patch_5">
    <path d="M 47.765 319.04 
L 353.025 319.04 
" style="fill:none;stroke:#000000;stroke-linecap:square;stroke-linejoin:miter;stroke-width:0.8;"/>
   </g>
   <g id="patch_6">
    <path d="M 47.765 26.16 
L 353.025 26.16 
" style="fill:none;stroke:#000000;stroke-linecap:square;stroke-linejoin:miter;stroke-width:0.8;"/>
   </g>
   <g id="text_28">
    <!-- NSW daily vaccinations per capita -->
    <g transform="translate(98.126875 20.16)scale(0.12 -0.12)">
     <defs>
      <path d="M 213 4666 
L 850 4666 
L 1831 722 
L 2809 4666 
L 3519 4666 
L 4500 722 
L 5478 4666 
L 6119 4666 
L 4947 0 
L 4153 0 
L 3169 4050 
L 2175 0 
L 1381 0 
L 213 4666 
z
" id="DejaVuSans-57" transform="scale(0.015625)"/>
     </defs>
     <use xlink:href="#DejaVuSans-4e"/>
     <use x="74.804688" xlink:href="#DejaVuSans-53"/>
     <use x="138.28125" xlink:href="#DejaVuSans-57"/>
     <use x="237.158203" xlink:href="#DejaVuSans-20"/>
     <use x="268.945312" xlink:href="#DejaVuSans-64"/>
     <use x="332.421875" xlink:href="#DejaVuSans-61"/>
     <use x="393.701172" xlink:href="#DejaVuSans-69"/>
     <use x="421.484375" xlink:href="#DejaVuSans-6c"/>
     <use x="449.267578" xlink:href="#DejaVuSans-79"/>
     <use x="508.447266" xlink:href="#DejaVuSans-20"/>
     <use x="540.234375" xlink:href="#DejaVuSans-76"/>
     <use x="599.414062" xlink:href="#DejaVuSans-61"/>
     <use x="660.693359" xlink:href="#DejaVuSans-63"/>
     <use x="715.673828" xlink:href="#DejaVuSans-63"/>
     <use x="770.654297" xlink:href="#DejaVuSans-69"/>
     <use x="798.4375" xlink:href="#DejaVuSans-6e"/>
     <use x="861.816406" xlink:href="#DejaVuSans-61"/>
     <use x="923.095703" xlink:href="#DejaVuSans-74"/>
     <use x="962.304688" xlink:href="#DejaVuSans-69"/>
     <use x="990.087891" xlink:href="#DejaVuSans-6f"/>
     <use x="1051.269531" xlink:href="#DejaVuSans-6e"/>
     <use x="1114.648438" xlink:href="#DejaVuSans-73"/>
     <use x="1166.748047" xlink:href="#DejaVuSans-20"/>
     <use x="1198.535156" xlink:href="#DejaVuSans-70"/>
     <use x="1262.011719" xlink:href="#DejaVuSans-65"/>
     <use x="1323.535156" xlink:href="#DejaVuSans-72"/>
     <use x="1364.648438" xlink:href="#DejaVuSans-20"/>
     <use x="1396.435547" xlink:href="#DejaVuSans-63"/>
     <use x="1451.416016" xlink:href="#DejaVuSans-61"/>
     <use x="1512.695312" xlink:href="#DejaVuSans-70"/>
     <use x="1576.171875" xlink:href="#DejaVuSans-69"/>
     <use x="1603.955078" xlink:href="#DejaVuSans-74"/>
     <use x="1643.164062" xlink:href="#DejaVuSans-61"/>
    </g>
   </g>
   <g id="legend_1">
    <g id="patch_7">
     <path d="M 54.765 63.51625 
L 202.647813 63.51625 
Q 204.647813 63.51625 204.647813 61.51625 
L 204.647813 33.16 
Q 204.647813 31.16 202.647813 31.16 
L 54.765 31.16 
Q 52.765 31.16 52.765 33.16 
L 52.765 61.51625 
Q 52.765 63.51625 54.765 63.51625 
z
" style="fill:#ffffff;opacity:0.8;stroke:#cccccc;stroke-linejoin:miter;"/>
    </g>
    <g id="line2d_53">
     <path d="M 56.765 39.258437 
L 76.765 39.258437 
" style="fill:none;stroke:#1f77b4;stroke-linecap:square;stroke-width:1.5;"/>
    </g>
    <g id="line2d_54"/>
    <g id="text_29">
     <!-- Actual -->
     <g transform="translate(84.765 42.758437)scale(0.1 -0.1)">
      <use xlink:href="#DejaVuSans-41"/>
      <use x="66.658203" xlink:href="#DejaVuSans-63"/>
      <use x="121.638672" xlink:href="#DejaVuSans-74"/>
      <use x="160.847656" xlink:href="#DejaVuSans-75"/>
      <use x="224.226562" xlink:href="#DejaVuSans-61"/>
      <use x="285.505859" xlink:href="#DejaVuSans-6c"/>
     </g>
    </g>
    <g id="line2d_55">
     <path d="M 56.765 53.936562 
L 76.765 53.936562 
" style="fill:none;stroke:#ff7f0e;stroke-linecap:square;stroke-width:1.5;"/>
    </g>
    <g id="line2d_56"/>
    <g id="text_30">
     <!-- Assumed for projection -->
     <g transform="translate(84.765 57.436562)scale(0.1 -0.1)">
      <defs>
       <path d="M 3328 2828 
Q 3544 3216 3844 3400 
Q 4144 3584 4550 3584 
Q 5097 3584 5394 3201 
Q 5691 2819 5691 2113 
L 5691 0 
L 5113 0 
L 5113 2094 
Q 5113 2597 4934 2840 
Q 4756 3084 4391 3084 
Q 3944 3084 3684 2787 
Q 3425 2491 3425 1978 
L 3425 0 
L 2847 0 
L 2847 2094 
Q 2847 2600 2669 2842 
Q 2491 3084 2119 3084 
Q 1678 3084 1418 2786 
Q 1159 2488 1159 1978 
L 1159 0 
L 581 0 
L 581 3500 
L 1159 3500 
L 1159 2956 
Q 1356 3278 1631 3431 
Q 1906 3584 2284 3584 
Q 2666 3584 2933 3390 
Q 3200 3197 3328 2828 
z
" id="DejaVuSans-6d" transform="scale(0.015625)"/>
       <path d="M 2375 4863 
L 2375 4384 
L 1825 4384 
Q 1516 4384 1395 4259 
Q 1275 4134 1275 3809 
L 1275 3500 
L 2222 3500 
L 2222 3053 
L 1275 3053 
L 1275 0 
L 697 0 
L 697 3053 
L 147 3053 
L 147 3500 
L 697 3500 
L 697 3744 
Q 697 4328 969 4595 
Q 1241 4863 1831 4863 
L 2375 4863 
z
" id="DejaVuSans-66" transform="scale(0.015625)"/>
       <path d="M 603 3500 
L 1178 3500 
L 1178 -63 
Q 1178 -731 923 -1031 
Q 669 -1331 103 -1331 
L -116 -1331 
L -116 -844 
L 38 -844 
Q 366 -844 484 -692 
Q 603 -541 603 -63 
L 603 3500 
z
M 603 4863 
L 1178 4863 
L 1178 4134 
L 603 4134 
L 603 4863 
z
" id="DejaVuSans-6a" transform="scale(0.015625)"/>
      </defs>
      <use xlink:href="#DejaVuSans-41"/>
      <use x="68.408203" xlink:href="#DejaVuSans-73"/>
      <use x="120.507812" xlink:href="#DejaVuSans-73"/>
      <use x="172.607422" xlink:href="#DejaVuSans-75"/>
      <use x="235.986328" xlink:href="#DejaVuSans-6d"/>
      <use x="333.398438" xlink:href="#DejaVuSans-65"/>
      <use x="394.921875" xlink:href="#DejaVuSans-64"/>
      <use x="458.398438" xlink:href="#DejaVuSans-20"/>
      <use x="490.185547" xlink:href="#DejaVuSans-66"/>
      <use x="525.390625" xlink:href="#DejaVuSans-6f"/>
      <use x="586.572266" xlink:href="#DejaVuSans-72"/>
      <use x="627.685547" xlink:href="#DejaVuSans-20"/>
      <use x="659.472656" xlink:href="#DejaVuSans-70"/>
      <use x="722.949219" xlink:href="#DejaVuSans-72"/>
      <use x="761.8125" xlink:href="#DejaVuSans-6f"/>
      <use x="822.994141" xlink:href="#DejaVuSans-6a"/>
      <use x="850.777344" xlink:href="#DejaVuSans-65"/>
      <use x="912.300781" xlink:href="#DejaVuSans-63"/>
      <use x="967.28125" xlink:href="#DejaVuSans-74"/>
      <use x="1006.490234" xlink:href="#DejaVuSans-69"/>
      <use x="1034.273438" xlink:href="#DejaVuSans-6f"/>
      <use x="1095.455078" xlink:href="#DejaVuSans-6e"/>
     </g>
    </g>
   </g>
  </g>
  <g id="axes_2">
   <g id="patch_8">
    <path d="M 403.94 319.04 
L 709.2 319.04 
L 709.2 26.16 
L 403.94 26.16 
z
" style="fill:#ffffff;"/>
   </g>
   <g id="matplotlib.axis_3">
    <g id="xtick_17">
     <g id="line2d_57">
      <path clip-path="url(#pe4308e9dd3)" d="M 403.94 319.04 
L 403.94 26.16 
" style="fill:none;stroke:#000000;stroke-dasharray:0.8,1.32;stroke-dashoffset:0;stroke-opacity:0.5;stroke-width:0.8;"/>
     </g>
     <g id="line2d_58">
      <g>
       <use style="stroke:#000000;stroke-width:0.8;" x="403.94" xlink:href="#m335d5ac038" y="319.04"/>
      </g>
     </g>
     <g id="text_31">
      <!-- May -->
      <g transform="translate(393.6025 333.638438)scale(0.1 -0.1)">
       <use xlink:href="#DejaVuSans-4d"/>
       <use x="86.279297" xlink:href="#DejaVuSans-61"/>
       <use x="147.558594" xlink:href="#DejaVuSans-79"/>
      </g>
     </g>
    </g>
    <g id="xtick_18">
     <g id="line2d_59">
      <path clip-path="url(#pe4308e9dd3)" d="M 421.454918 319.04 
L 421.454918 26.16 
" style="fill:none;stroke:#000000;stroke-dasharray:0.8,1.32;stroke-dashoffset:0;stroke-opacity:0.5;stroke-width:0.8;"/>
     </g>
     <g id="line2d_60">
      <g>
       <use style="stroke:#000000;stroke-width:0.8;" x="421.454918" xlink:href="#m335d5ac038" y="319.04"/>
      </g>
     </g>
     <g id="text_32">
      <!-- 15 -->
      <g transform="translate(415.092418 333.638438)scale(0.1 -0.1)">
       <use xlink:href="#DejaVuSans-31"/>
       <use x="63.623047" xlink:href="#DejaVuSans-35"/>
      </g>
     </g>
    </g>
    <g id="xtick_19">
     <g id="line2d_61">
      <path clip-path="url(#pe4308e9dd3)" d="M 442.723033 319.04 
L 442.723033 26.16 
" style="fill:none;stroke:#000000;stroke-dasharray:0.8,1.32;stroke-dashoffset:0;stroke-opacity:0.5;stroke-width:0.8;"/>
     </g>
     <g id="line2d_62">
      <g>
       <use style="stroke:#000000;stroke-width:0.8;" x="442.723033" xlink:href="#m335d5ac038" y="319.04"/>
      </g>
     </g>
     <g id="text_33">
      <!-- Jun -->
      <g transform="translate(434.910533 333.638438)scale(0.1 -0.1)">
       <use xlink:href="#DejaVuSans-4a"/>
       <use x="29.492188" xlink:href="#DejaVuSans-75"/>
       <use x="92.871094" xlink:href="#DejaVuSans-6e"/>
      </g>
     </g>
    </g>
    <g id="xtick_20">
     <g id="line2d_63">
      <path clip-path="url(#pe4308e9dd3)" d="M 460.237951 319.04 
L 460.237951 26.16 
" style="fill:none;stroke:#000000;stroke-dasharray:0.8,1.32;stroke-dashoffset:0;stroke-opacity:0.5;stroke-width:0.8;"/>
     </g>
     <g id="line2d_64">
      <g>
       <use style="stroke:#000000;stroke-width:0.8;" x="460.237951" xlink:href="#m335d5ac038" y="319.04"/>
      </g>
     </g>
     <g id="text_34">
      <!-- 15 -->
      <g transform="translate(453.875451 333.638438)scale(0.1 -0.1)">
       <use xlink:href="#DejaVuSans-31"/>
       <use x="63.623047" xlink:href="#DejaVuSans-35"/>
      </g>
     </g>
    </g>
    <g id="xtick_21">
     <g id="line2d_65">
      <path clip-path="url(#pe4308e9dd3)" d="M 480.255 319.04 
L 480.255 26.16 
" style="fill:none;stroke:#000000;stroke-dasharray:0.8,1.32;stroke-dashoffset:0;stroke-opacity:0.5;stroke-width:0.8;"/>
     </g>
     <g id="line2d_66">
      <g>
       <use style="stroke:#000000;stroke-width:0.8;" x="480.255" xlink:href="#m335d5ac038" y="319.04"/>
      </g>
     </g>
     <g id="text_35">
      <!-- Jul -->
      <g transform="translate(474.222188 333.638438)scale(0.1 -0.1)">
       <use xlink:href="#DejaVuSans-4a"/>
       <use x="29.492188" xlink:href="#DejaVuSans-75"/>
       <use x="92.871094" xlink:href="#DejaVuSans-6c"/>
      </g>
     </g>
    </g>
    <g id="xtick_22">
     <g id="line2d_67">
      <path clip-path="url(#pe4308e9dd3)" d="M 497.769918 319.04 
L 497.769918 26.16 
" style="fill:none;stroke:#000000;stroke-dasharray:0.8,1.32;stroke-dashoffset:0;stroke-opacity:0.5;stroke-width:0.8;"/>
     </g>
     <g id="line2d_68">
      <g>
       <use style="stroke:#000000;stroke-width:0.8;" x="497.769918" xlink:href="#m335d5ac038" y="319.04"/>
      </g>
     </g>
     <g id="text_36">
      <!-- 15 -->
      <g transform="translate(491.407418 333.638438)scale(0.1 -0.1)">
       <use xlink:href="#DejaVuSans-31"/>
       <use x="63.623047" xlink:href="#DejaVuSans-35"/>
      </g>
     </g>
    </g>
    <g id="xtick_23">
     <g id="line2d_69">
      <path clip-path="url(#pe4308e9dd3)" d="M 519.038033 319.04 
L 519.038033 26.16 
" style="fill:none;stroke:#000000;stroke-dasharray:0.8,1.32;stroke-dashoffset:0;stroke-opacity:0.5;stroke-width:0.8;"/>
     </g>
     <g id="line2d_70">
      <g>
       <use style="stroke:#000000;stroke-width:0.8;" x="519.038033" xlink:href="#m335d5ac038" y="319.04"/>
      </g>
     </g>
     <g id="text_37">
      <!-- Aug -->
      <g transform="translate(509.274752 333.638438)scale(0.1 -0.1)">
       <use xlink:href="#DejaVuSans-41"/>
       <use x="68.408203" xlink:href="#DejaVuSans-75"/>
       <use x="131.787109" xlink:href="#DejaVuSans-67"/>
      </g>
     </g>
    </g>
    <g id="xtick_24">
     <g id="line2d_71">
      <path clip-path="url(#pe4308e9dd3)" d="M 536.552951 319.04 
L 536.552951 26.16 
" style="fill:none;stroke:#000000;stroke-dasharray:0.8,1.32;stroke-dashoffset:0;stroke-opacity:0.5;stroke-width:0.8;"/>
     </g>
     <g id="line2d_72">
      <g>
       <use style="stroke:#000000;stroke-width:0.8;" x="536.552951" xlink:href="#m335d5ac038" y="319.04"/>
      </g>
     </g>
     <g id="text_38">
      <!-- 15 -->
      <g transform="translate(530.190451 333.638438)scale(0.1 -0.1)">
       <use xlink:href="#DejaVuSans-31"/>
       <use x="63.623047" xlink:href="#DejaVuSans-35"/>
      </g>
     </g>
    </g>
    <g id="xtick_25">
     <g id="line2d_73">
      <path clip-path="url(#pe4308e9dd3)" d="M 557.821066 319.04 
L 557.821066 26.16 
" style="fill:none;stroke:#000000;stroke-dasharray:0.8,1.32;stroke-dashoffset:0;stroke-opacity:0.5;stroke-width:0.8;"/>
     </g>
     <g id="line2d_74">
      <g>
       <use style="stroke:#000000;stroke-width:0.8;" x="557.821066" xlink:href="#m335d5ac038" y="319.04"/>
      </g>
     </g>
     <g id="text_39">
      <!-- Sep -->
      <g transform="translate(548.396066 333.638438)scale(0.1 -0.1)">
       <use xlink:href="#DejaVuSans-53"/>
       <use x="63.476562" xlink:href="#DejaVuSans-65"/>
       <use x="125" xlink:href="#DejaVuSans-70"/>
      </g>
     </g>
    </g>
    <g id="xtick_26">
     <g id="line2d_75">
      <path clip-path="url(#pe4308e9dd3)" d="M 575.335984 319.04 
L 575.335984 26.16 
" style="fill:none;stroke:#000000;stroke-dasharray:0.8,1.32;stroke-dashoffset:0;stroke-opacity:0.5;stroke-width:0.8;"/>
     </g>
     <g id="line2d_76">
      <g>
       <use style="stroke:#000000;stroke-width:0.8;" x="575.335984" xlink:href="#m335d5ac038" y="319.04"/>
      </g>
     </g>
     <g id="text_40">
      <!-- 15 -->
      <g transform="translate(568.973484 333.638438)scale(0.1 -0.1)">
       <use xlink:href="#DejaVuSans-31"/>
       <use x="63.623047" xlink:href="#DejaVuSans-35"/>
      </g>
     </g>
    </g>
    <g id="xtick_27">
     <g id="line2d_77">
      <path clip-path="url(#pe4308e9dd3)" d="M 595.353033 319.04 
L 595.353033 26.16 
" style="fill:none;stroke:#000000;stroke-dasharray:0.8,1.32;stroke-dashoffset:0;stroke-opacity:0.5;stroke-width:0.8;"/>
     </g>
     <g id="line2d_78">
      <g>
       <use style="stroke:#000000;stroke-width:0.8;" x="595.353033" xlink:href="#m335d5ac038" y="319.04"/>
      </g>
     </g>
     <g id="text_41">
      <!-- Oct -->
      <g transform="translate(586.70772 333.638438)scale(0.1 -0.1)">
       <use xlink:href="#DejaVuSans-4f"/>
       <use x="78.710938" xlink:href="#DejaVuSans-63"/>
       <use x="133.691406" xlink:href="#DejaVuSans-74"/>
      </g>
     </g>
    </g>
    <g id="xtick_28">
     <g id="line2d_79">
      <path clip-path="url(#pe4308e9dd3)" d="M 612.867951 319.04 
L 612.867951 26.16 
" style="fill:none;stroke:#000000;stroke-dasharray:0.8,1.32;stroke-dashoffset:0;stroke-opacity:0.5;stroke-width:0.8;"/>
     </g>
     <g id="line2d_80">
      <g>
       <use style="stroke:#000000;stroke-width:0.8;" x="612.867951" xlink:href="#m335d5ac038" y="319.04"/>
      </g>
     </g>
     <g id="text_42">
      <!-- 15 -->
      <g transform="translate(606.505451 333.638438)scale(0.1 -0.1)">
       <use xlink:href="#DejaVuSans-31"/>
       <use x="63.623047" xlink:href="#DejaVuSans-35"/>
      </g>
     </g>
    </g>
    <g id="xtick_29">
     <g id="line2d_81">
      <path clip-path="url(#pe4308e9dd3)" d="M 634.136066 319.04 
L 634.136066 26.16 
" style="fill:none;stroke:#000000;stroke-dasharray:0.8,1.32;stroke-dashoffset:0;stroke-opacity:0.5;stroke-width:0.8;"/>
     </g>
     <g id="line2d_82">
      <g>
       <use style="stroke:#000000;stroke-width:0.8;" x="634.136066" xlink:href="#m335d5ac038" y="319.04"/>
      </g>
     </g>
     <g id="text_43">
      <!-- Nov -->
      <g transform="translate(624.376691 333.638438)scale(0.1 -0.1)">
       <use xlink:href="#DejaVuSans-4e"/>
       <use x="74.804688" xlink:href="#DejaVuSans-6f"/>
       <use x="135.986328" xlink:href="#DejaVuSans-76"/>
      </g>
     </g>
    </g>
    <g id="xtick_30">
     <g id="line2d_83">
      <path clip-path="url(#pe4308e9dd3)" d="M 651.650984 319.04 
L 651.650984 26.16 
" style="fill:none;stroke:#000000;stroke-dasharray:0.8,1.32;stroke-dashoffset:0;stroke-opacity:0.5;stroke-width:0.8;"/>
     </g>
     <g id="line2d_84">
      <g>
       <use style="stroke:#000000;stroke-width:0.8;" x="651.650984" xlink:href="#m335d5ac038" y="319.04"/>
      </g>
     </g>
     <g id="text_44">
      <!-- 15 -->
      <g transform="translate(645.288484 333.638438)scale(0.1 -0.1)">
       <use xlink:href="#DejaVuSans-31"/>
       <use x="63.623047" xlink:href="#DejaVuSans-35"/>
      </g>
     </g>
    </g>
    <g id="xtick_31">
     <g id="line2d_85">
      <path clip-path="url(#pe4308e9dd3)" d="M 671.668033 319.04 
L 671.668033 26.16 
" style="fill:none;stroke:#000000;stroke-dasharray:0.8,1.32;stroke-dashoffset:0;stroke-opacity:0.5;stroke-width:0.8;"/>
     </g>
     <g id="line2d_86">
      <g>
       <use style="stroke:#000000;stroke-width:0.8;" x="671.668033" xlink:href="#m335d5ac038" y="319.04"/>
      </g>
     </g>
     <g id="text_45">
      <!-- Dec -->
      <g transform="translate(661.992252 333.638438)scale(0.1 -0.1)">
       <use xlink:href="#DejaVuSans-44"/>
       <use x="77.001953" xlink:href="#DejaVuSans-65"/>
       <use x="138.525391" xlink:href="#DejaVuSans-63"/>
      </g>
     </g>
    </g>
    <g id="xtick_32">
     <g id="line2d_87">
      <path clip-path="url(#pe4308e9dd3)" d="M 689.182951 319.04 
L 689.182951 26.16 
" style="fill:none;stroke:#000000;stroke-dasharray:0.8,1.32;stroke-dashoffset:0;stroke-opacity:0.5;stroke-width:0.8;"/>
     </g>
     <g id="line2d_88">
      <g>
       <use style="stroke:#000000;stroke-width:0.8;" x="689.182951" xlink:href="#m335d5ac038" y="319.04"/>
      </g>
     </g>
     <g id="text_46">
      <!-- 15 -->
      <g transform="translate(682.820451 333.638438)scale(0.1 -0.1)">
       <use xlink:href="#DejaVuSans-31"/>
       <use x="63.623047" xlink:href="#DejaVuSans-35"/>
      </g>
     </g>
    </g>
    <g id="text_47">
     <!-- 2021-Dec -->
     <g transform="translate(660.790625 346.316563)scale(0.1 -0.1)">
      <use xlink:href="#DejaVuSans-32"/>
      <use x="63.623047" xlink:href="#DejaVuSans-30"/>
      <use x="127.246094" xlink:href="#DejaVuSans-32"/>
      <use x="190.869141" xlink:href="#DejaVuSans-31"/>
      <use x="254.492188" xlink:href="#DejaVuSans-2d"/>
      <use x="290.576172" xlink:href="#DejaVuSans-44"/>
      <use x="367.578125" xlink:href="#DejaVuSans-65"/>
      <use x="429.101562" xlink:href="#DejaVuSans-63"/>
     </g>
    </g>
   </g>
   <g id="matplotlib.axis_4">
    <g id="ytick_10">
     <g id="line2d_89">
      <path clip-path="url(#pe4308e9dd3)" d="M 403.94 319.04 
L 709.2 319.04 
" style="fill:none;stroke:#000000;stroke-dasharray:0.8,1.32;stroke-dashoffset:0;stroke-opacity:0.5;stroke-width:0.8;"/>
     </g>
     <g id="line2d_90">
      <g>
       <use style="stroke:#000000;stroke-width:0.8;" x="403.94" xlink:href="#mba1342eb88" y="319.04"/>
      </g>
     </g>
     <g id="text_48">
      <!-- 0 -->
      <g transform="translate(390.5775 322.839219)scale(0.1 -0.1)">
       <use xlink:href="#DejaVuSans-30"/>
      </g>
     </g>
    </g>
    <g id="ytick_11">
     <g id="line2d_91">
      <path clip-path="url(#pe4308e9dd3)" d="M 403.94 282.43 
L 709.2 282.43 
" style="fill:none;stroke:#000000;stroke-dasharray:0.8,1.32;stroke-dashoffset:0;stroke-opacity:0.5;stroke-width:0.8;"/>
     </g>
     <g id="line2d_92">
      <g>
       <use style="stroke:#000000;stroke-width:0.8;" x="403.94" xlink:href="#mba1342eb88" y="282.43"/>
      </g>
     </g>
     <g id="text_49">
      <!-- 25 -->
      <g transform="translate(384.215 286.229219)scale(0.1 -0.1)">
       <use xlink:href="#DejaVuSans-32"/>
       <use x="63.623047" xlink:href="#DejaVuSans-35"/>
      </g>
     </g>
    </g>
    <g id="ytick_12">
     <g id="line2d_93">
      <path clip-path="url(#pe4308e9dd3)" d="M 403.94 245.82 
L 709.2 245.82 
" style="fill:none;stroke:#000000;stroke-dasharray:0.8,1.32;stroke-dashoffset:0;stroke-opacity:0.5;stroke-width:0.8;"/>
     </g>
     <g id="line2d_94">
      <g>
       <use style="stroke:#000000;stroke-width:0.8;" x="403.94" xlink:href="#mba1342eb88" y="245.82"/>
      </g>
     </g>
     <g id="text_50">
      <!-- 50 -->
      <g transform="translate(384.215 249.619219)scale(0.1 -0.1)">
       <use xlink:href="#DejaVuSans-35"/>
       <use x="63.623047" xlink:href="#DejaVuSans-30"/>
      </g>
     </g>
    </g>
    <g id="ytick_13">
     <g id="line2d_95">
      <path clip-path="url(#pe4308e9dd3)" d="M 403.94 209.21 
L 709.2 209.21 
" style="fill:none;stroke:#000000;stroke-dasharray:0.8,1.32;stroke-dashoffset:0;stroke-opacity:0.5;stroke-width:0.8;"/>
     </g>
     <g id="line2d_96">
      <g>
       <use style="stroke:#000000;stroke-width:0.8;" x="403.94" xlink:href="#mba1342eb88" y="209.21"/>
      </g>
     </g>
     <g id="text_51">
      <!-- 75 -->
      <g transform="translate(384.215 213.009219)scale(0.1 -0.1)">
       <use xlink:href="#DejaVuSans-37"/>
       <use x="63.623047" xlink:href="#DejaVuSans-35"/>
      </g>
     </g>
    </g>
    <g id="ytick_14">
     <g id="line2d_97">
      <path clip-path="url(#pe4308e9dd3)" d="M 403.94 172.6 
L 709.2 172.6 
" style="fill:none;stroke:#000000;stroke-dasharray:0.8,1.32;stroke-dashoffset:0;stroke-opacity:0.5;stroke-width:0.8;"/>
     </g>
     <g id="line2d_98">
      <g>
       <use style="stroke:#000000;stroke-width:0.8;" x="403.94" xlink:href="#mba1342eb88" y="172.6"/>
      </g>
     </g>
     <g id="text_52">
      <!-- 100 -->
      <g transform="translate(377.8525 176.399219)scale(0.1 -0.1)">
       <use xlink:href="#DejaVuSans-31"/>
       <use x="63.623047" xlink:href="#DejaVuSans-30"/>
       <use x="127.246094" xlink:href="#DejaVuSans-30"/>
      </g>
     </g>
    </g>
    <g id="ytick_15">
     <g id="line2d_99">
      <path clip-path="url(#pe4308e9dd3)" d="M 403.94 135.99 
L 709.2 135.99 
" style="fill:none;stroke:#000000;stroke-dasharray:0.8,1.32;stroke-dashoffset:0;stroke-opacity:0.5;stroke-width:0.8;"/>
     </g>
     <g id="line2d_100">
      <g>
       <use style="stroke:#000000;stroke-width:0.8;" x="403.94" xlink:href="#mba1342eb88" y="135.99"/>
      </g>
     </g>
     <g id="text_53">
      <!-- 125 -->
      <g transform="translate(377.8525 139.789219)scale(0.1 -0.1)">
       <use xlink:href="#DejaVuSans-31"/>
       <use x="63.623047" xlink:href="#DejaVuSans-32"/>
       <use x="127.246094" xlink:href="#DejaVuSans-35"/>
      </g>
     </g>
    </g>
    <g id="ytick_16">
     <g id="line2d_101">
      <path clip-path="url(#pe4308e9dd3)" d="M 403.94 99.38 
L 709.2 99.38 
" style="fill:none;stroke:#000000;stroke-dasharray:0.8,1.32;stroke-dashoffset:0;stroke-opacity:0.5;stroke-width:0.8;"/>
     </g>
     <g id="line2d_102">
      <g>
       <use style="stroke:#000000;stroke-width:0.8;" x="403.94" xlink:href="#mba1342eb88" y="99.38"/>
      </g>
     </g>
     <g id="text_54">
      <!-- 150 -->
      <g transform="translate(377.8525 103.179219)scale(0.1 -0.1)">
       <use xlink:href="#DejaVuSans-31"/>
       <use x="63.623047" xlink:href="#DejaVuSans-35"/>
       <use x="127.246094" xlink:href="#DejaVuSans-30"/>
      </g>
     </g>
    </g>
    <g id="ytick_17">
     <g id="line2d_103">
      <path clip-path="url(#pe4308e9dd3)" d="M 403.94 62.77 
L 709.2 62.77 
" style="fill:none;stroke:#000000;stroke-dasharray:0.8,1.32;stroke-dashoffset:0;stroke-opacity:0.5;stroke-width:0.8;"/>
     </g>
     <g id="line2d_104">
      <g>
       <use style="stroke:#000000;stroke-width:0.8;" x="403.94" xlink:href="#mba1342eb88" y="62.77"/>
      </g>
     </g>
     <g id="text_55">
      <!-- 175 -->
      <g transform="translate(377.8525 66.569219)scale(0.1 -0.1)">
       <use xlink:href="#DejaVuSans-31"/>
       <use x="63.623047" xlink:href="#DejaVuSans-37"/>
       <use x="127.246094" xlink:href="#DejaVuSans-35"/>
      </g>
     </g>
    </g>
    <g id="ytick_18">
     <g id="line2d_105">
      <path clip-path="url(#pe4308e9dd3)" d="M 403.94 26.16 
L 709.2 26.16 
" style="fill:none;stroke:#000000;stroke-dasharray:0.8,1.32;stroke-dashoffset:0;stroke-opacity:0.5;stroke-width:0.8;"/>
     </g>
     <g id="line2d_106">
      <g>
       <use style="stroke:#000000;stroke-width:0.8;" x="403.94" xlink:href="#mba1342eb88" y="26.16"/>
      </g>
     </g>
     <g id="text_56">
      <!-- 200 -->
      <g transform="translate(377.8525 29.959219)scale(0.1 -0.1)">
       <use xlink:href="#DejaVuSans-32"/>
       <use x="63.623047" xlink:href="#DejaVuSans-30"/>
       <use x="127.246094" xlink:href="#DejaVuSans-30"/>
      </g>
     </g>
    </g>
    <g id="text_57">
     <!-- cumulative doses per hundred population -->
     <g transform="translate(371.772813 277.058594)rotate(-90)scale(0.1 -0.1)">
      <use xlink:href="#DejaVuSans-63"/>
      <use x="54.980469" xlink:href="#DejaVuSans-75"/>
      <use x="118.359375" xlink:href="#DejaVuSans-6d"/>
      <use x="215.771484" xlink:href="#DejaVuSans-75"/>
      <use x="279.150391" xlink:href="#DejaVuSans-6c"/>
      <use x="306.933594" xlink:href="#DejaVuSans-61"/>
      <use x="368.212891" xlink:href="#DejaVuSans-74"/>
      <use x="407.421875" xlink:href="#DejaVuSans-69"/>
      <use x="435.205078" xlink:href="#DejaVuSans-76"/>
      <use x="494.384766" xlink:href="#DejaVuSans-65"/>
      <use x="555.908203" xlink:href="#DejaVuSans-20"/>
      <use x="587.695312" xlink:href="#DejaVuSans-64"/>
      <use x="651.171875" xlink:href="#DejaVuSans-6f"/>
      <use x="712.353516" xlink:href="#DejaVuSans-73"/>
      <use x="764.453125" xlink:href="#DejaVuSans-65"/>
      <use x="825.976562" xlink:href="#DejaVuSans-73"/>
      <use x="878.076172" xlink:href="#DejaVuSans-20"/>
      <use x="909.863281" xlink:href="#DejaVuSans-70"/>
      <use x="973.339844" xlink:href="#DejaVuSans-65"/>
      <use x="1034.863281" xlink:href="#DejaVuSans-72"/>
      <use x="1075.976562" xlink:href="#DejaVuSans-20"/>
      <use x="1107.763672" xlink:href="#DejaVuSans-68"/>
      <use x="1171.142578" xlink:href="#DejaVuSans-75"/>
      <use x="1234.521484" xlink:href="#DejaVuSans-6e"/>
      <use x="1297.900391" xlink:href="#DejaVuSans-64"/>
      <use x="1361.376953" xlink:href="#DejaVuSans-72"/>
      <use x="1400.240234" xlink:href="#DejaVuSans-65"/>
      <use x="1461.763672" xlink:href="#DejaVuSans-64"/>
      <use x="1525.240234" xlink:href="#DejaVuSans-20"/>
      <use x="1557.027344" xlink:href="#DejaVuSans-70"/>
      <use x="1620.503906" xlink:href="#DejaVuSans-6f"/>
      <use x="1681.685547" xlink:href="#DejaVuSans-70"/>
      <use x="1745.162109" xlink:href="#DejaVuSans-75"/>
      <use x="1808.541016" xlink:href="#DejaVuSans-6c"/>
      <use x="1836.324219" xlink:href="#DejaVuSans-61"/>
      <use x="1897.603516" xlink:href="#DejaVuSans-74"/>
      <use x="1936.8125" xlink:href="#DejaVuSans-69"/>
      <use x="1964.595703" xlink:href="#DejaVuSans-6f"/>
      <use x="2025.777344" xlink:href="#DejaVuSans-6e"/>
     </g>
    </g>
   </g>
   <g id="line2d_107">
    <path clip-path="url(#pe4308e9dd3)" d="M 310.110082 319.04 
L 322.620738 318.941369 
L 322.620738 318.905503 
L 328.876066 318.817202 
L 328.876066 318.77818 
L 335.131393 318.683243 
L 335.131393 318.649726 
L 338.88459 318.555812 
L 338.88459 318.478467 
L 343.888852 318.379711 
L 343.888852 318.366566 
L 346.390984 318.296789 
L 346.390984 318.200382 
L 352.646311 318.114537 
L 352.646311 317.876442 
L 353.897377 317.876442 
L 353.897377 317.731921 
L 357.650574 317.731921 
L 357.650574 317.440458 
L 358.901639 317.440458 
L 358.901639 317.313547 
L 365.156967 317.246711 
L 365.156967 316.934678 
L 366.408033 316.934678 
L 366.408033 316.809937 
L 372.663361 316.756443 
L 372.663361 316.6312 
L 373.914426 316.6312 
L 373.914426 316.519514 
L 375.165492 316.519514 
L 375.165492 313.369853 
L 376.416557 313.369853 
L 376.416557 313.027639 
L 377.667623 313.027639 
L 377.667623 312.901302 
L 380.169754 312.865382 
L 380.169754 312.549979 
L 381.42082 312.549979 
L 381.42082 312.177315 
L 382.671885 312.177315 
L 382.671885 311.81057 
L 383.922951 311.81057 
L 383.922951 311.463712 
L 385.174016 311.463712 
L 385.174016 311.142426 
L 386.425082 311.142426 
L 386.425082 311.019711 
L 387.676148 311.019711 
L 387.676148 310.63263 
L 388.927213 310.63263 
L 388.927213 310.275173 
L 390.178279 310.275173 
L 390.178279 309.903209 
L 391.429344 309.903209 
L 391.429344 309.526045 
L 392.68041 309.526045 
L 392.68041 309.170776 
L 393.931475 309.170776 
L 393.931475 308.850871 
L 396.433607 308.748456 
L 396.433607 308.739042 
L 397.684672 308.739042 
L 397.684672 308.494563 
L 398.935738 308.494563 
L 398.935738 308.194007 
L 400.186803 308.194007 
L 400.186803 307.738368 
L 401.437869 307.738368 
L 401.437869 307.385449 
L 402.688934 307.385449 
L 402.688934 307.074403 
L 406.442131 306.966178 
L 406.442131 306.645932 
L 407.693197 306.645932 
L 407.693197 306.249006 
L 408.944262 306.249006 
L 408.944262 305.85658 
L 410.195328 305.85658 
L 410.195328 305.460783 
L 411.446393 305.460783 
L 411.446393 305.073648 
L 412.697459 305.073648 
L 412.697459 304.941985 
L 415.19959 304.9219 
L 415.19959 304.545722 
L 416.450656 304.545722 
L 416.450656 304.100197 
L 417.701721 304.100197 
L 417.701721 303.631234 
L 418.952787 303.631234 
L 418.952787 303.130799 
L 420.203852 303.130799 
L 420.203852 302.655936 
L 421.454918 302.655936 
L 421.454918 302.429802 
L 423.957049 302.407888 
L 423.957049 301.899598 
L 425.208115 301.899598 
L 425.208115 301.345507 
L 426.45918 301.345507 
L 426.45918 300.775744 
L 427.710246 300.775744 
L 427.710246 300.165039 
L 428.961311 300.165039 
L 428.961311 299.593087 
L 430.212377 299.593087 
L 430.212377 299.358382 
L 432.714508 299.326551 
L 432.714508 298.797315 
L 433.965574 298.797315 
L 433.965574 298.188206 
L 435.216639 298.188206 
L 435.216639 297.544111 
L 436.467705 297.544111 
L 436.467705 296.870372 
L 437.71877 296.870372 
L 437.71877 296.229235 
L 438.969836 296.229235 
L 438.969836 295.942883 
L 441.471967 295.907214 
L 441.471967 295.271063 
L 442.723033 295.271063 
L 442.723033 294.593576 
L 443.974098 294.593576 
L 443.974098 293.869482 
L 445.225164 293.869482 
L 445.225164 293.121286 
L 446.47623 293.121286 
L 446.47623 292.476168 
L 447.727295 292.476168 
L 447.727295 292.175397 
L 450.229426 292.126351 
L 450.229426 291.475817 
L 451.480492 291.475817 
L 451.480492 290.767755 
L 452.731557 290.767755 
L 452.731557 290.087793 
L 453.982623 290.087793 
L 453.982623 289.347093 
L 455.233689 289.347093 
L 455.233689 288.695609 
L 456.484754 288.695609 
L 456.484754 288.462517 
L 458.986885 288.440908 
L 458.986885 288.189435 
L 460.237951 288.189435 
L 460.237951 287.464337 
L 461.489016 287.464337 
L 461.489016 286.756759 
L 462.740082 286.756759 
L 462.740082 286.007325 
L 463.991148 286.007325 
L 463.991148 285.334913 
L 465.242213 285.334913 
L 465.242213 285.025087 
L 467.744344 284.982962 
L 467.744344 284.315231 
L 468.99541 284.315231 
L 468.99541 283.610666 
L 470.246475 283.610666 
L 470.246475 282.898246 
L 471.497541 282.898246 
L 471.497541 282.127024 
L 472.748607 282.127024 
L 472.748607 281.483592 
L 473.999672 281.483592 
L 473.999672 281.120486 
L 475.250738 281.120486 
L 475.250738 280.893599 
L 476.501803 280.893599 
L 476.501803 280.210446 
L 477.752869 280.210446 
L 477.752869 279.385354 
L 479.003934 279.385354 
L 479.003934 278.516272 
L 480.255 278.516272 
L 480.255 277.567891 
L 481.506066 277.567891 
L 481.506066 276.680517 
L 482.757131 276.680517 
L 482.757131 276.20899 
L 484.008197 276.20899 
L 484.008197 275.896115 
L 485.259262 275.896115 
L 485.259262 275.040572 
L 486.510328 275.040572 
L 486.510328 274.10817 
L 487.761393 274.10817 
L 487.761393 273.199869 
L 489.012459 273.199869 
L 489.012459 272.196469 
L 490.263525 272.196469 
L 490.263525 271.281838 
L 491.51459 271.281838 
L 491.51459 270.760654 
L 492.765656 270.760654 
L 492.765656 270.475073 
L 494.016721 270.475073 
L 494.016721 269.4888 
L 495.267787 269.4888 
L 495.267787 268.350868 
L 496.518852 268.350868 
L 496.518852 267.301651 
L 497.769918 267.301651 
L 497.769918 266.105509 
L 499.020984 266.105509 
L 499.020984 264.982121 
L 500.272049 264.982121 
L 500.272049 264.326261 
L 501.523115 264.326261 
L 501.523115 263.959282 
L 502.77418 263.959282 
L 502.77418 262.792909 
L 504.025246 262.792909 
L 504.025246 261.594077 
L 505.276311 261.594077 
L 505.276311 260.430143 
L 506.527377 260.430143 
L 506.527377 259.073484 
L 507.778443 259.073484 
L 507.778443 257.814738 
L 509.029508 257.814738 
L 509.029508 257.084869 
L 510.280574 257.084869 
L 510.280574 256.664361 
L 511.531639 256.664361 
L 511.531639 255.384024 
L 512.782705 255.384024 
L 512.782705 254.0045 
L 514.03377 254.0045 
L 514.03377 252.582081 
L 515.284836 252.582081 
L 515.284836 251.082228 
L 516.535902 251.082228 
L 516.535902 249.607786 
L 517.786967 249.607786 
L 517.786967 248.785903 
L 519.038033 248.785903 
L 519.038033 248.321656 
L 520.289098 248.321656 
L 520.289098 246.804121 
L 521.540164 246.804121 
L 521.540164 245.287985 
L 522.79123 245.287985 
L 522.79123 243.788436 
L 524.042295 243.788436 
L 524.042295 242.109451 
L 525.293361 242.109451 
L 525.293361 240.504475 
L 526.544426 240.504475 
L 526.544426 239.458683 
L 527.795492 239.458683 
L 527.795492 239.001699 
L 529.046557 239.001699 
L 529.046557 237.2399 
L 530.297623 237.2399 
L 530.297623 235.328397 
L 531.548689 235.328397 
L 531.548689 233.444296 
L 532.799754 233.444296 
L 532.799754 231.537473 
L 534.05082 231.537473 
L 534.05082 229.64385 
L 535.301885 229.64385 
L 535.301885 229.64385 
" style="fill:none;stroke:#1f77b4;stroke-linecap:square;stroke-width:1.5;"/>
   </g>
   <g id="line2d_108">
    <path clip-path="url(#pe4308e9dd3)" d="M 535.301885 227.88657 
L 535.301885 226.12929 
L 536.552951 226.12929 
L 536.552951 224.37201 
L 537.804016 224.37201 
L 537.804016 222.61473 
L 539.055082 222.61473 
L 539.055082 220.85745 
L 540.306148 220.85745 
L 540.306148 219.10017 
L 541.557213 219.10017 
L 541.557213 217.34289 
L 542.808279 217.34289 
L 542.808279 215.58561 
L 544.059344 215.58561 
L 544.059344 213.82833 
L 545.31041 213.82833 
L 545.31041 212.07105 
L 546.561475 212.07105 
L 546.561475 210.31377 
L 547.812541 210.31377 
L 547.812541 208.55649 
L 549.063607 208.55649 
L 549.063607 206.79921 
L 550.314672 206.79921 
L 550.314672 205.04193 
L 551.565738 205.04193 
L 551.565738 203.28465 
L 552.816803 203.28465 
L 552.816803 201.52737 
L 554.067869 201.52737 
L 554.067869 199.77009 
L 555.318934 199.77009 
L 555.318934 198.01281 
L 556.57 198.01281 
L 556.57 195.96265 
L 557.821066 195.96265 
L 557.821066 193.91249 
L 559.072131 193.91249 
L 559.072131 191.86233 
L 560.323197 191.86233 
L 560.323197 189.81217 
L 561.574262 189.81217 
L 561.574262 187.76201 
L 562.825328 187.76201 
L 562.825328 185.71185 
L 564.076393 185.71185 
L 564.076393 183.66169 
L 565.327459 183.66169 
L 565.327459 181.61153 
L 566.578525 181.61153 
L 566.578525 179.56137 
L 567.82959 179.56137 
L 567.82959 177.51121 
L 569.080656 177.51121 
L 569.080656 175.46105 
L 570.331721 175.46105 
L 570.331721 173.41089 
L 571.582787 173.41089 
L 571.582787 171.36073 
L 572.833852 171.36073 
L 572.833852 169.31057 
L 574.084918 169.31057 
L 574.084918 167.26041 
L 575.335984 167.26041 
L 575.335984 165.21025 
L 576.587049 165.21025 
L 576.587049 163.16009 
L 577.838115 163.16009 
L 577.838115 161.10993 
L 579.08918 161.10993 
L 579.08918 159.05977 
L 580.340246 159.05977 
L 580.340246 157.00961 
L 581.591311 157.00961 
L 581.591311 154.95945 
L 582.842377 154.95945 
L 582.842377 152.90929 
L 584.093443 152.90929 
L 584.093443 150.85913 
L 585.344508 150.85913 
L 585.344508 148.80897 
L 586.595574 148.80897 
L 586.595574 146.75881 
L 587.846639 146.75881 
L 587.846639 144.70865 
L 589.097705 144.70865 
L 589.097705 142.65849 
L 590.34877 142.65849 
L 590.34877 140.60833 
L 591.599836 140.60833 
L 591.599836 138.55817 
L 592.850902 138.55817 
L 592.850902 136.50801 
L 594.101967 136.50801 
L 594.101967 134.16497 
L 595.353033 134.16497 
L 595.353033 131.82193 
L 596.604098 131.82193 
L 596.604098 129.47889 
L 597.855164 129.47889 
L 597.855164 127.13585 
L 599.10623 127.13585 
L 599.10623 124.79281 
L 600.357295 124.79281 
L 600.357295 122.44977 
L 601.608361 122.44977 
L 601.608361 120.10673 
L 602.859426 120.10673 
L 602.859426 117.76369 
L 604.110492 117.76369 
L 604.110492 115.42065 
L 605.361557 115.42065 
L 605.361557 113.07761 
L 606.612623 113.07761 
L 606.612623 110.73457 
L 607.863689 110.73457 
L 607.863689 108.39153 
L 609.114754 108.39153 
L 609.114754 106.04849 
L 610.36582 106.04849 
L 610.36582 103.70545 
L 611.616885 103.70545 
L 611.616885 101.36241 
L 612.867951 101.36241 
L 612.867951 99.01937 
L 614.119016 99.01937 
L 614.119016 96.67633 
L 615.370082 96.67633 
L 615.370082 94.33329 
L 616.621148 94.33329 
L 616.621148 91.99025 
L 617.872213 91.99025 
L 617.872213 89.64721 
L 619.123279 89.64721 
L 619.123279 87.30417 
L 620.374344 87.30417 
L 620.374344 84.96113 
L 621.62541 84.96113 
L 621.62541 82.61809 
L 622.876475 82.61809 
L 622.876475 80.27505 
L 624.127541 80.27505 
L 624.127541 77.93201 
L 625.378607 77.93201 
L 625.378607 75.58897 
L 626.629672 75.58897 
L 626.629672 73.24593 
L 627.880738 73.24593 
L 627.880738 70.90289 
L 629.131803 70.90289 
L 629.131803 70.092 
L 721 70.092 
L 721 70.092 
" style="fill:none;stroke:#ff7f0e;stroke-linecap:square;stroke-width:1.5;"/>
   </g>
   <g id="patch_9">
    <path d="M 403.94 319.04 
L 403.94 26.16 
" style="fill:none;stroke:#000000;stroke-linecap:square;stroke-linejoin:miter;stroke-width:0.8;"/>
   </g>
   <g id="patch_10">
    <path d="M 709.2 319.04 
L 709.2 26.16 
" style="fill:none;stroke:#000000;stroke-linecap:square;stroke-linejoin:miter;stroke-width:0.8;"/>
   </g>
   <g id="patch_11">
    <path d="M 403.94 319.04 
L 709.2 319.04 
" style="fill:none;stroke:#000000;stroke-linecap:square;stroke-linejoin:miter;stroke-width:0.8;"/>
   </g>
   <g id="patch_12">
    <path d="M 403.94 26.16 
L 709.2 26.16 
" style="fill:none;stroke:#000000;stroke-linecap:square;stroke-linejoin:miter;stroke-width:0.8;"/>
   </g>
   <g id="text_58">
    <!-- NSW cumulative vaccinations per capita -->
    <g transform="translate(435.318438 20.16)scale(0.12 -0.12)">
     <use xlink:href="#DejaVuSans-4e"/>
     <use x="74.804688" xlink:href="#DejaVuSans-53"/>
     <use x="138.28125" xlink:href="#DejaVuSans-57"/>
     <use x="237.158203" xlink:href="#DejaVuSans-20"/>
     <use x="268.945312" xlink:href="#DejaVuSans-63"/>
     <use x="323.925781" xlink:href="#DejaVuSans-75"/>
     <use x="387.304688" xlink:href="#DejaVuSans-6d"/>
     <use x="484.716797" xlink:href="#DejaVuSans-75"/>
     <use x="548.095703" xlink:href="#DejaVuSans-6c"/>
     <use x="575.878906" xlink:href="#DejaVuSans-61"/>
     <use x="637.158203" xlink:href="#DejaVuSans-74"/>
     <use x="676.367188" xlink:href="#DejaVuSans-69"/>
     <use x="704.150391" xlink:href="#DejaVuSans-76"/>
     <use x="763.330078" xlink:href="#DejaVuSans-65"/>
     <use x="824.853516" xlink:href="#DejaVuSans-20"/>
     <use x="856.640625" xlink:href="#DejaVuSans-76"/>
     <use x="915.820312" xlink:href="#DejaVuSans-61"/>
     <use x="977.099609" xlink:href="#DejaVuSans-63"/>
     <use x="1032.080078" xlink:href="#DejaVuSans-63"/>
     <use x="1087.060547" xlink:href="#DejaVuSans-69"/>
     <use x="1114.84375" xlink:href="#DejaVuSans-6e"/>
     <use x="1178.222656" xlink:href="#DejaVuSans-61"/>
     <use x="1239.501953" xlink:href="#DejaVuSans-74"/>
     <use x="1278.710938" xlink:href="#DejaVuSans-69"/>
     <use x="1306.494141" xlink:href="#DejaVuSans-6f"/>
     <use x="1367.675781" xlink:href="#DejaVuSans-6e"/>
     <use x="1431.054688" xlink:href="#DejaVuSans-73"/>
     <use x="1483.154297" xlink:href="#DejaVuSans-20"/>
     <use x="1514.941406" xlink:href="#DejaVuSans-70"/>
     <use x="1578.417969" xlink:href="#DejaVuSans-65"/>
     <use x="1639.941406" xlink:href="#DejaVuSans-72"/>
     <use x="1681.054688" xlink:href="#DejaVuSans-20"/>
     <use x="1712.841797" xlink:href="#DejaVuSans-63"/>
     <use x="1767.822266" xlink:href="#DejaVuSans-61"/>
     <use x="1829.101562" xlink:href="#DejaVuSans-70"/>
     <use x="1892.578125" xlink:href="#DejaVuSans-69"/>
     <use x="1920.361328" xlink:href="#DejaVuSans-74"/>
     <use x="1959.570312" xlink:href="#DejaVuSans-61"/>
    </g>
   </g>
   <g id="legend_2">
    <g id="patch_13">
     <path d="M 554.317187 63.51625 
L 702.2 63.51625 
Q 704.2 63.51625 704.2 61.51625 
L 704.2 33.16 
Q 704.2 31.16 702.2 31.16 
L 554.317187 31.16 
Q 552.317187 31.16 552.317187 33.16 
L 552.317187 61.51625 
Q 552.317187 63.51625 554.317187 63.51625 
z
" style="fill:#ffffff;opacity:0.8;stroke:#cccccc;stroke-linejoin:miter;"/>
    </g>
    <g id="line2d_109">
     <path d="M 556.317187 39.258437 
L 576.317187 39.258437 
" style="fill:none;stroke:#1f77b4;stroke-linecap:square;stroke-width:1.5;"/>
    </g>
    <g id="line2d_110"/>
    <g id="text_59">
     <!-- Actual -->
     <g transform="translate(584.317187 42.758437)scale(0.1 -0.1)">
      <use xlink:href="#DejaVuSans-41"/>
      <use x="66.658203" xlink:href="#DejaVuSans-63"/>
      <use x="121.638672" xlink:href="#DejaVuSans-74"/>
      <use x="160.847656" xlink:href="#DejaVuSans-75"/>
      <use x="224.226562" xlink:href="#DejaVuSans-61"/>
      <use x="285.505859" xlink:href="#DejaVuSans-6c"/>
     </g>
    </g>
    <g id="line2d_111">
     <path d="M 556.317187 53.936562 
L 576.317187 53.936562 
" style="fill:none;stroke:#ff7f0e;stroke-linecap:square;stroke-width:1.5;"/>
    </g>
    <g id="line2d_112"/>
    <g id="text_60">
     <!-- Assumed for projection -->
     <g transform="translate(584.317187 57.436562)scale(0.1 -0.1)">
      <use xlink:href="#DejaVuSans-41"/>
      <use x="68.408203" xlink:href="#DejaVuSans-73"/>
      <use x="120.507812" xlink:href="#DejaVuSans-73"/>
      <use x="172.607422" xlink:href="#DejaVuSans-75"/>
      <use x="235.986328" xlink:href="#DejaVuSans-6d"/>
      <use x="333.398438" xlink:href="#DejaVuSans-65"/>
      <use x="394.921875" xlink:href="#DejaVuSans-64"/>
      <use x="458.398438" xlink:href="#DejaVuSans-20"/>
      <use x="490.185547" xlink:href="#DejaVuSans-66"/>
      <use x="525.390625" xlink:href="#DejaVuSans-6f"/>
      <use x="586.572266" xlink:href="#DejaVuSans-72"/>
      <use x="627.685547" xlink:href="#DejaVuSans-20"/>
      <use x="659.472656" xlink:href="#DejaVuSans-70"/>
      <use x="722.949219" xlink:href="#DejaVuSans-72"/>
      <use x="761.8125" xlink:href="#DejaVuSans-6f"/>
      <use x="822.994141" xlink:href="#DejaVuSans-6a"/>
      <use x="850.777344" xlink:href="#DejaVuSans-65"/>
      <use x="912.300781" xlink:href="#DejaVuSans-63"/>
      <use x="967.28125" xlink:href="#DejaVuSans-74"/>
      <use x="1006.490234" xlink:href="#DejaVuSans-69"/>
      <use x="1034.273438" xlink:href="#DejaVuSans-6f"/>
      <use x="1095.455078" xlink:href="#DejaVuSans-6e"/>
     </g>
    </g>
   </g>
  </g>
 </g>
 <defs>
  <clipPath id="pf0e446ca43">
   <rect height="292.88" width="305.26" x="47.765" y="26.16"/>
  </clipPath>
  <clipPath id="pe4308e9dd3">
   <rect height="292.88" width="305.26" x="403.94" y="26.16"/>
  </clipPath>
 </defs>
</svg>
