<?xml version="1.0" encoding="utf-8" standalone="no"?>
<!DOCTYPE svg PUBLIC "-//W3C//DTD SVG 1.1//EN"
  "http://www.w3.org/Graphics/SVG/1.1/DTD/svg11.dtd">
<svg xmlns:xlink="http://www.w3.org/1999/xlink" width="720pt" height="360pt" viewBox="0 0 720 360" xmlns="http://www.w3.org/2000/svg" version="1.1">
 <metadata>
  <rdf:RDF xmlns:dc="http://purl.org/dc/elements/1.1/" xmlns:cc="http://creativecommons.org/ns#" xmlns:rdf="http://www.w3.org/1999/02/22-rdf-syntax-ns#">
   <cc:Work>
    <dc:type rdf:resource="http://purl.org/dc/dcmitype/StillImage"/>
    <dc:date>2021-12-14T21:35:22.158248</dc:date>
    <dc:format>image/svg+xml</dc:format>
    <dc:creator>
     <cc:Agent>
      <dc:title>Matplotlib v3.5.1, https://matplotlib.org/</dc:title>
     </cc:Agent>
    </dc:creator>
   </cc:Work>
  </rdf:RDF>
 </metadata>
 <defs>
  <style type="text/css">*{stroke-linejoin: round; stroke-linecap: butt}</style>
 </defs>
 <g id="figure_1">
  <g id="patch_1">
   <path d="M 0 360 
L 720 360 
L 720 0 
L 0 0 
z
" style="fill: #ffffff"/>
  </g>
  <g id="axes_1">
   <g id="patch_2">
    <path d="M 54.2 319.04 
L 356.175 319.04 
L 356.175 25.44 
L 54.2 25.44 
z
" style="fill: #ffffff"/>
   </g>
   <g id="matplotlib.axis_1">
    <g id="xtick_1">
     <g id="line2d_1">
      <path d="M 54.2 319.04 
L 54.2 25.44 
" clip-path="url(#pca966ead96)" style="fill: none; stroke-dasharray: 0.8,1.32; stroke-dashoffset: 0; stroke: #000000; stroke-opacity: 0.5; stroke-width: 0.8"/>
     </g>
     <g id="line2d_2">
      <defs>
       <path id="m5a1b6337ec" d="M 0 0 
L 0 3.5 
" style="stroke: #000000; stroke-width: 0.8"/>
      </defs>
      <g>
       <use xlink:href="#m5a1b6337ec" x="54.2" y="319.04" style="stroke: #000000; stroke-width: 0.8"/>
      </g>
     </g>
     <g id="text_1">
      <!-- May -->
      <g transform="translate(43.8625 333.638438)scale(0.1 -0.1)">
       <defs>
        <path id="DejaVuSans-4d" d="M 628 4666 
L 1569 4666 
L 2759 1491 
L 3956 4666 
L 4897 4666 
L 4897 0 
L 4281 0 
L 4281 4097 
L 3078 897 
L 2444 897 
L 1241 4097 
L 1241 0 
L 628 0 
L 628 4666 
z
" transform="scale(0.015625)"/>
        <path id="DejaVuSans-61" d="M 2194 1759 
Q 1497 1759 1228 1600 
Q 959 1441 959 1056 
Q 959 750 1161 570 
Q 1363 391 1709 391 
Q 2188 391 2477 730 
Q 2766 1069 2766 1631 
L 2766 1759 
L 2194 1759 
z
M 3341 1997 
L 3341 0 
L 2766 0 
L 2766 531 
Q 2569 213 2275 61 
Q 1981 -91 1556 -91 
Q 1019 -91 701 211 
Q 384 513 384 1019 
Q 384 1609 779 1909 
Q 1175 2209 1959 2209 
L 2766 2209 
L 2766 2266 
Q 2766 2663 2505 2880 
Q 2244 3097 1772 3097 
Q 1472 3097 1187 3025 
Q 903 2953 641 2809 
L 641 3341 
Q 956 3463 1253 3523 
Q 1550 3584 1831 3584 
Q 2591 3584 2966 3190 
Q 3341 2797 3341 1997 
z
" transform="scale(0.015625)"/>
        <path id="DejaVuSans-79" d="M 2059 -325 
Q 1816 -950 1584 -1140 
Q 1353 -1331 966 -1331 
L 506 -1331 
L 506 -850 
L 844 -850 
Q 1081 -850 1212 -737 
Q 1344 -625 1503 -206 
L 1606 56 
L 191 3500 
L 800 3500 
L 1894 763 
L 2988 3500 
L 3597 3500 
L 2059 -325 
z
" transform="scale(0.015625)"/>
       </defs>
       <use xlink:href="#DejaVuSans-4d"/>
       <use xlink:href="#DejaVuSans-61" x="86.279297"/>
       <use xlink:href="#DejaVuSans-79" x="147.558594"/>
      </g>
     </g>
    </g>
    <g id="xtick_2">
     <g id="line2d_3">
      <path d="M 71.526434 319.04 
L 71.526434 25.44 
" clip-path="url(#pca966ead96)" style="fill: none; stroke-dasharray: 0.8,1.32; stroke-dashoffset: 0; stroke: #000000; stroke-opacity: 0.5; stroke-width: 0.8"/>
     </g>
     <g id="line2d_4">
      <g>
       <use xlink:href="#m5a1b6337ec" x="71.526434" y="319.04" style="stroke: #000000; stroke-width: 0.8"/>
      </g>
     </g>
     <g id="text_2">
      <!-- 15 -->
      <g transform="translate(65.163934 333.638438)scale(0.1 -0.1)">
       <defs>
        <path id="DejaVuSans-31" d="M 794 531 
L 1825 531 
L 1825 4091 
L 703 3866 
L 703 4441 
L 1819 4666 
L 2450 4666 
L 2450 531 
L 3481 531 
L 3481 0 
L 794 0 
L 794 531 
z
" transform="scale(0.015625)"/>
        <path id="DejaVuSans-35" d="M 691 4666 
L 3169 4666 
L 3169 4134 
L 1269 4134 
L 1269 2991 
Q 1406 3038 1543 3061 
Q 1681 3084 1819 3084 
Q 2600 3084 3056 2656 
Q 3513 2228 3513 1497 
Q 3513 744 3044 326 
Q 2575 -91 1722 -91 
Q 1428 -91 1123 -41 
Q 819 9 494 109 
L 494 744 
Q 775 591 1075 516 
Q 1375 441 1709 441 
Q 2250 441 2565 725 
Q 2881 1009 2881 1497 
Q 2881 1984 2565 2268 
Q 2250 2553 1709 2553 
Q 1456 2553 1204 2497 
Q 953 2441 691 2322 
L 691 4666 
z
" transform="scale(0.015625)"/>
       </defs>
       <use xlink:href="#DejaVuSans-31"/>
       <use xlink:href="#DejaVuSans-35" x="63.623047"/>
      </g>
     </g>
    </g>
    <g id="xtick_3">
     <g id="line2d_5">
      <path d="M 92.565676 319.04 
L 92.565676 25.44 
" clip-path="url(#pca966ead96)" style="fill: none; stroke-dasharray: 0.8,1.32; stroke-dashoffset: 0; stroke: #000000; stroke-opacity: 0.5; stroke-width: 0.8"/>
     </g>
     <g id="line2d_6">
      <g>
       <use xlink:href="#m5a1b6337ec" x="92.565676" y="319.04" style="stroke: #000000; stroke-width: 0.8"/>
      </g>
     </g>
     <g id="text_3">
      <!-- Jun -->
      <g transform="translate(84.753176 333.638438)scale(0.1 -0.1)">
       <defs>
        <path id="DejaVuSans-4a" d="M 628 4666 
L 1259 4666 
L 1259 325 
Q 1259 -519 939 -900 
Q 619 -1281 -91 -1281 
L -331 -1281 
L -331 -750 
L -134 -750 
Q 284 -750 456 -515 
Q 628 -281 628 325 
L 628 4666 
z
" transform="scale(0.015625)"/>
        <path id="DejaVuSans-75" d="M 544 1381 
L 544 3500 
L 1119 3500 
L 1119 1403 
Q 1119 906 1312 657 
Q 1506 409 1894 409 
Q 2359 409 2629 706 
Q 2900 1003 2900 1516 
L 2900 3500 
L 3475 3500 
L 3475 0 
L 2900 0 
L 2900 538 
Q 2691 219 2414 64 
Q 2138 -91 1772 -91 
Q 1169 -91 856 284 
Q 544 659 544 1381 
z
M 1991 3584 
L 1991 3584 
z
" transform="scale(0.015625)"/>
        <path id="DejaVuSans-6e" d="M 3513 2113 
L 3513 0 
L 2938 0 
L 2938 2094 
Q 2938 2591 2744 2837 
Q 2550 3084 2163 3084 
Q 1697 3084 1428 2787 
Q 1159 2491 1159 1978 
L 1159 0 
L 581 0 
L 581 3500 
L 1159 3500 
L 1159 2956 
Q 1366 3272 1645 3428 
Q 1925 3584 2291 3584 
Q 2894 3584 3203 3211 
Q 3513 2838 3513 2113 
z
" transform="scale(0.015625)"/>
       </defs>
       <use xlink:href="#DejaVuSans-4a"/>
       <use xlink:href="#DejaVuSans-75" x="29.492188"/>
       <use xlink:href="#DejaVuSans-6e" x="92.871094"/>
      </g>
     </g>
    </g>
    <g id="xtick_4">
     <g id="line2d_7">
      <path d="M 109.892111 319.04 
L 109.892111 25.44 
" clip-path="url(#pca966ead96)" style="fill: none; stroke-dasharray: 0.8,1.32; stroke-dashoffset: 0; stroke: #000000; stroke-opacity: 0.5; stroke-width: 0.8"/>
     </g>
     <g id="line2d_8">
      <g>
       <use xlink:href="#m5a1b6337ec" x="109.892111" y="319.04" style="stroke: #000000; stroke-width: 0.8"/>
      </g>
     </g>
     <g id="text_4">
      <!-- 15 -->
      <g transform="translate(103.529611 333.638438)scale(0.1 -0.1)">
       <use xlink:href="#DejaVuSans-31"/>
       <use xlink:href="#DejaVuSans-35" x="63.623047"/>
      </g>
     </g>
    </g>
    <g id="xtick_5">
     <g id="line2d_9">
      <path d="M 129.69375 319.04 
L 129.69375 25.44 
" clip-path="url(#pca966ead96)" style="fill: none; stroke-dasharray: 0.8,1.32; stroke-dashoffset: 0; stroke: #000000; stroke-opacity: 0.5; stroke-width: 0.8"/>
     </g>
     <g id="line2d_10">
      <g>
       <use xlink:href="#m5a1b6337ec" x="129.69375" y="319.04" style="stroke: #000000; stroke-width: 0.8"/>
      </g>
     </g>
     <g id="text_5">
      <!-- Jul -->
      <g transform="translate(123.660937 333.638438)scale(0.1 -0.1)">
       <defs>
        <path id="DejaVuSans-6c" d="M 603 4863 
L 1178 4863 
L 1178 0 
L 603 0 
L 603 4863 
z
" transform="scale(0.015625)"/>
       </defs>
       <use xlink:href="#DejaVuSans-4a"/>
       <use xlink:href="#DejaVuSans-75" x="29.492188"/>
       <use xlink:href="#DejaVuSans-6c" x="92.871094"/>
      </g>
     </g>
    </g>
    <g id="xtick_6">
     <g id="line2d_11">
      <path d="M 147.020184 319.04 
L 147.020184 25.44 
" clip-path="url(#pca966ead96)" style="fill: none; stroke-dasharray: 0.8,1.32; stroke-dashoffset: 0; stroke: #000000; stroke-opacity: 0.5; stroke-width: 0.8"/>
     </g>
     <g id="line2d_12">
      <g>
       <use xlink:href="#m5a1b6337ec" x="147.020184" y="319.04" style="stroke: #000000; stroke-width: 0.8"/>
      </g>
     </g>
     <g id="text_6">
      <!-- 15 -->
      <g transform="translate(140.657684 333.638438)scale(0.1 -0.1)">
       <use xlink:href="#DejaVuSans-31"/>
       <use xlink:href="#DejaVuSans-35" x="63.623047"/>
      </g>
     </g>
    </g>
    <g id="xtick_7">
     <g id="line2d_13">
      <path d="M 168.059426 319.04 
L 168.059426 25.44 
" clip-path="url(#pca966ead96)" style="fill: none; stroke-dasharray: 0.8,1.32; stroke-dashoffset: 0; stroke: #000000; stroke-opacity: 0.5; stroke-width: 0.8"/>
     </g>
     <g id="line2d_14">
      <g>
       <use xlink:href="#m5a1b6337ec" x="168.059426" y="319.04" style="stroke: #000000; stroke-width: 0.8"/>
      </g>
     </g>
     <g id="text_7">
      <!-- Aug -->
      <g transform="translate(158.296145 333.638438)scale(0.1 -0.1)">
       <defs>
        <path id="DejaVuSans-41" d="M 2188 4044 
L 1331 1722 
L 3047 1722 
L 2188 4044 
z
M 1831 4666 
L 2547 4666 
L 4325 0 
L 3669 0 
L 3244 1197 
L 1141 1197 
L 716 0 
L 50 0 
L 1831 4666 
z
" transform="scale(0.015625)"/>
        <path id="DejaVuSans-67" d="M 2906 1791 
Q 2906 2416 2648 2759 
Q 2391 3103 1925 3103 
Q 1463 3103 1205 2759 
Q 947 2416 947 1791 
Q 947 1169 1205 825 
Q 1463 481 1925 481 
Q 2391 481 2648 825 
Q 2906 1169 2906 1791 
z
M 3481 434 
Q 3481 -459 3084 -895 
Q 2688 -1331 1869 -1331 
Q 1566 -1331 1297 -1286 
Q 1028 -1241 775 -1147 
L 775 -588 
Q 1028 -725 1275 -790 
Q 1522 -856 1778 -856 
Q 2344 -856 2625 -561 
Q 2906 -266 2906 331 
L 2906 616 
Q 2728 306 2450 153 
Q 2172 0 1784 0 
Q 1141 0 747 490 
Q 353 981 353 1791 
Q 353 2603 747 3093 
Q 1141 3584 1784 3584 
Q 2172 3584 2450 3431 
Q 2728 3278 2906 2969 
L 2906 3500 
L 3481 3500 
L 3481 434 
z
" transform="scale(0.015625)"/>
       </defs>
       <use xlink:href="#DejaVuSans-41"/>
       <use xlink:href="#DejaVuSans-75" x="68.408203"/>
       <use xlink:href="#DejaVuSans-67" x="131.787109"/>
      </g>
     </g>
    </g>
    <g id="xtick_8">
     <g id="line2d_15">
      <path d="M 185.385861 319.04 
L 185.385861 25.44 
" clip-path="url(#pca966ead96)" style="fill: none; stroke-dasharray: 0.8,1.32; stroke-dashoffset: 0; stroke: #000000; stroke-opacity: 0.5; stroke-width: 0.8"/>
     </g>
     <g id="line2d_16">
      <g>
       <use xlink:href="#m5a1b6337ec" x="185.385861" y="319.04" style="stroke: #000000; stroke-width: 0.8"/>
      </g>
     </g>
     <g id="text_8">
      <!-- 15 -->
      <g transform="translate(179.023361 333.638438)scale(0.1 -0.1)">
       <use xlink:href="#DejaVuSans-31"/>
       <use xlink:href="#DejaVuSans-35" x="63.623047"/>
      </g>
     </g>
    </g>
    <g id="xtick_9">
     <g id="line2d_17">
      <path d="M 206.425102 319.04 
L 206.425102 25.44 
" clip-path="url(#pca966ead96)" style="fill: none; stroke-dasharray: 0.8,1.32; stroke-dashoffset: 0; stroke: #000000; stroke-opacity: 0.5; stroke-width: 0.8"/>
     </g>
     <g id="line2d_18">
      <g>
       <use xlink:href="#m5a1b6337ec" x="206.425102" y="319.04" style="stroke: #000000; stroke-width: 0.8"/>
      </g>
     </g>
     <g id="text_9">
      <!-- Sep -->
      <g transform="translate(197.000102 333.638438)scale(0.1 -0.1)">
       <defs>
        <path id="DejaVuSans-53" d="M 3425 4513 
L 3425 3897 
Q 3066 4069 2747 4153 
Q 2428 4238 2131 4238 
Q 1616 4238 1336 4038 
Q 1056 3838 1056 3469 
Q 1056 3159 1242 3001 
Q 1428 2844 1947 2747 
L 2328 2669 
Q 3034 2534 3370 2195 
Q 3706 1856 3706 1288 
Q 3706 609 3251 259 
Q 2797 -91 1919 -91 
Q 1588 -91 1214 -16 
Q 841 59 441 206 
L 441 856 
Q 825 641 1194 531 
Q 1563 422 1919 422 
Q 2459 422 2753 634 
Q 3047 847 3047 1241 
Q 3047 1584 2836 1778 
Q 2625 1972 2144 2069 
L 1759 2144 
Q 1053 2284 737 2584 
Q 422 2884 422 3419 
Q 422 4038 858 4394 
Q 1294 4750 2059 4750 
Q 2388 4750 2728 4690 
Q 3069 4631 3425 4513 
z
" transform="scale(0.015625)"/>
        <path id="DejaVuSans-65" d="M 3597 1894 
L 3597 1613 
L 953 1613 
Q 991 1019 1311 708 
Q 1631 397 2203 397 
Q 2534 397 2845 478 
Q 3156 559 3463 722 
L 3463 178 
Q 3153 47 2828 -22 
Q 2503 -91 2169 -91 
Q 1331 -91 842 396 
Q 353 884 353 1716 
Q 353 2575 817 3079 
Q 1281 3584 2069 3584 
Q 2775 3584 3186 3129 
Q 3597 2675 3597 1894 
z
M 3022 2063 
Q 3016 2534 2758 2815 
Q 2500 3097 2075 3097 
Q 1594 3097 1305 2825 
Q 1016 2553 972 2059 
L 3022 2063 
z
" transform="scale(0.015625)"/>
        <path id="DejaVuSans-70" d="M 1159 525 
L 1159 -1331 
L 581 -1331 
L 581 3500 
L 1159 3500 
L 1159 2969 
Q 1341 3281 1617 3432 
Q 1894 3584 2278 3584 
Q 2916 3584 3314 3078 
Q 3713 2572 3713 1747 
Q 3713 922 3314 415 
Q 2916 -91 2278 -91 
Q 1894 -91 1617 61 
Q 1341 213 1159 525 
z
M 3116 1747 
Q 3116 2381 2855 2742 
Q 2594 3103 2138 3103 
Q 1681 3103 1420 2742 
Q 1159 2381 1159 1747 
Q 1159 1113 1420 752 
Q 1681 391 2138 391 
Q 2594 391 2855 752 
Q 3116 1113 3116 1747 
z
" transform="scale(0.015625)"/>
       </defs>
       <use xlink:href="#DejaVuSans-53"/>
       <use xlink:href="#DejaVuSans-65" x="63.476562"/>
       <use xlink:href="#DejaVuSans-70" x="125"/>
      </g>
     </g>
    </g>
    <g id="xtick_10">
     <g id="line2d_19">
      <path d="M 223.751537 319.04 
L 223.751537 25.44 
" clip-path="url(#pca966ead96)" style="fill: none; stroke-dasharray: 0.8,1.32; stroke-dashoffset: 0; stroke: #000000; stroke-opacity: 0.5; stroke-width: 0.8"/>
     </g>
     <g id="line2d_20">
      <g>
       <use xlink:href="#m5a1b6337ec" x="223.751537" y="319.04" style="stroke: #000000; stroke-width: 0.8"/>
      </g>
     </g>
     <g id="text_10">
      <!-- 15 -->
      <g transform="translate(217.389037 333.638438)scale(0.1 -0.1)">
       <use xlink:href="#DejaVuSans-31"/>
       <use xlink:href="#DejaVuSans-35" x="63.623047"/>
      </g>
     </g>
    </g>
    <g id="xtick_11">
     <g id="line2d_21">
      <path d="M 243.553176 319.04 
L 243.553176 25.44 
" clip-path="url(#pca966ead96)" style="fill: none; stroke-dasharray: 0.8,1.32; stroke-dashoffset: 0; stroke: #000000; stroke-opacity: 0.5; stroke-width: 0.8"/>
     </g>
     <g id="line2d_22">
      <g>
       <use xlink:href="#m5a1b6337ec" x="243.553176" y="319.04" style="stroke: #000000; stroke-width: 0.8"/>
      </g>
     </g>
     <g id="text_11">
      <!-- Oct -->
      <g transform="translate(234.907864 333.638438)scale(0.1 -0.1)">
       <defs>
        <path id="DejaVuSans-4f" d="M 2522 4238 
Q 1834 4238 1429 3725 
Q 1025 3213 1025 2328 
Q 1025 1447 1429 934 
Q 1834 422 2522 422 
Q 3209 422 3611 934 
Q 4013 1447 4013 2328 
Q 4013 3213 3611 3725 
Q 3209 4238 2522 4238 
z
M 2522 4750 
Q 3503 4750 4090 4092 
Q 4678 3434 4678 2328 
Q 4678 1225 4090 567 
Q 3503 -91 2522 -91 
Q 1538 -91 948 565 
Q 359 1222 359 2328 
Q 359 3434 948 4092 
Q 1538 4750 2522 4750 
z
" transform="scale(0.015625)"/>
        <path id="DejaVuSans-63" d="M 3122 3366 
L 3122 2828 
Q 2878 2963 2633 3030 
Q 2388 3097 2138 3097 
Q 1578 3097 1268 2742 
Q 959 2388 959 1747 
Q 959 1106 1268 751 
Q 1578 397 2138 397 
Q 2388 397 2633 464 
Q 2878 531 3122 666 
L 3122 134 
Q 2881 22 2623 -34 
Q 2366 -91 2075 -91 
Q 1284 -91 818 406 
Q 353 903 353 1747 
Q 353 2603 823 3093 
Q 1294 3584 2113 3584 
Q 2378 3584 2631 3529 
Q 2884 3475 3122 3366 
z
" transform="scale(0.015625)"/>
        <path id="DejaVuSans-74" d="M 1172 4494 
L 1172 3500 
L 2356 3500 
L 2356 3053 
L 1172 3053 
L 1172 1153 
Q 1172 725 1289 603 
Q 1406 481 1766 481 
L 2356 481 
L 2356 0 
L 1766 0 
Q 1100 0 847 248 
Q 594 497 594 1153 
L 594 3053 
L 172 3053 
L 172 3500 
L 594 3500 
L 594 4494 
L 1172 4494 
z
" transform="scale(0.015625)"/>
       </defs>
       <use xlink:href="#DejaVuSans-4f"/>
       <use xlink:href="#DejaVuSans-63" x="78.710938"/>
       <use xlink:href="#DejaVuSans-74" x="133.691406"/>
      </g>
     </g>
    </g>
    <g id="xtick_12">
     <g id="line2d_23">
      <path d="M 260.879611 319.04 
L 260.879611 25.44 
" clip-path="url(#pca966ead96)" style="fill: none; stroke-dasharray: 0.8,1.32; stroke-dashoffset: 0; stroke: #000000; stroke-opacity: 0.5; stroke-width: 0.8"/>
     </g>
     <g id="line2d_24">
      <g>
       <use xlink:href="#m5a1b6337ec" x="260.879611" y="319.04" style="stroke: #000000; stroke-width: 0.8"/>
      </g>
     </g>
     <g id="text_12">
      <!-- 15 -->
      <g transform="translate(254.517111 333.638438)scale(0.1 -0.1)">
       <use xlink:href="#DejaVuSans-31"/>
       <use xlink:href="#DejaVuSans-35" x="63.623047"/>
      </g>
     </g>
    </g>
    <g id="xtick_13">
     <g id="line2d_25">
      <path d="M 281.918852 319.04 
L 281.918852 25.44 
" clip-path="url(#pca966ead96)" style="fill: none; stroke-dasharray: 0.8,1.32; stroke-dashoffset: 0; stroke: #000000; stroke-opacity: 0.5; stroke-width: 0.8"/>
     </g>
     <g id="line2d_26">
      <g>
       <use xlink:href="#m5a1b6337ec" x="281.918852" y="319.04" style="stroke: #000000; stroke-width: 0.8"/>
      </g>
     </g>
     <g id="text_13">
      <!-- Nov -->
      <g transform="translate(272.159477 333.638438)scale(0.1 -0.1)">
       <defs>
        <path id="DejaVuSans-4e" d="M 628 4666 
L 1478 4666 
L 3547 763 
L 3547 4666 
L 4159 4666 
L 4159 0 
L 3309 0 
L 1241 3903 
L 1241 0 
L 628 0 
L 628 4666 
z
" transform="scale(0.015625)"/>
        <path id="DejaVuSans-6f" d="M 1959 3097 
Q 1497 3097 1228 2736 
Q 959 2375 959 1747 
Q 959 1119 1226 758 
Q 1494 397 1959 397 
Q 2419 397 2687 759 
Q 2956 1122 2956 1747 
Q 2956 2369 2687 2733 
Q 2419 3097 1959 3097 
z
M 1959 3584 
Q 2709 3584 3137 3096 
Q 3566 2609 3566 1747 
Q 3566 888 3137 398 
Q 2709 -91 1959 -91 
Q 1206 -91 779 398 
Q 353 888 353 1747 
Q 353 2609 779 3096 
Q 1206 3584 1959 3584 
z
" transform="scale(0.015625)"/>
        <path id="DejaVuSans-76" d="M 191 3500 
L 800 3500 
L 1894 563 
L 2988 3500 
L 3597 3500 
L 2284 0 
L 1503 0 
L 191 3500 
z
" transform="scale(0.015625)"/>
       </defs>
       <use xlink:href="#DejaVuSans-4e"/>
       <use xlink:href="#DejaVuSans-6f" x="74.804688"/>
       <use xlink:href="#DejaVuSans-76" x="135.986328"/>
      </g>
     </g>
    </g>
    <g id="xtick_14">
     <g id="line2d_27">
      <path d="M 299.245287 319.04 
L 299.245287 25.44 
" clip-path="url(#pca966ead96)" style="fill: none; stroke-dasharray: 0.8,1.32; stroke-dashoffset: 0; stroke: #000000; stroke-opacity: 0.5; stroke-width: 0.8"/>
     </g>
     <g id="line2d_28">
      <g>
       <use xlink:href="#m5a1b6337ec" x="299.245287" y="319.04" style="stroke: #000000; stroke-width: 0.8"/>
      </g>
     </g>
     <g id="text_14">
      <!-- 15 -->
      <g transform="translate(292.882787 333.638438)scale(0.1 -0.1)">
       <use xlink:href="#DejaVuSans-31"/>
       <use xlink:href="#DejaVuSans-35" x="63.623047"/>
      </g>
     </g>
    </g>
    <g id="xtick_15">
     <g id="line2d_29">
      <path d="M 319.046926 319.04 
L 319.046926 25.44 
" clip-path="url(#pca966ead96)" style="fill: none; stroke-dasharray: 0.8,1.32; stroke-dashoffset: 0; stroke: #000000; stroke-opacity: 0.5; stroke-width: 0.8"/>
     </g>
     <g id="line2d_30">
      <g>
       <use xlink:href="#m5a1b6337ec" x="319.046926" y="319.04" style="stroke: #000000; stroke-width: 0.8"/>
      </g>
     </g>
     <g id="text_15">
      <!-- Dec -->
      <g transform="translate(309.371145 333.638438)scale(0.1 -0.1)">
       <defs>
        <path id="DejaVuSans-44" d="M 1259 4147 
L 1259 519 
L 2022 519 
Q 2988 519 3436 956 
Q 3884 1394 3884 2338 
Q 3884 3275 3436 3711 
Q 2988 4147 2022 4147 
L 1259 4147 
z
M 628 4666 
L 1925 4666 
Q 3281 4666 3915 4102 
Q 4550 3538 4550 2338 
Q 4550 1131 3912 565 
Q 3275 0 1925 0 
L 628 0 
L 628 4666 
z
" transform="scale(0.015625)"/>
       </defs>
       <use xlink:href="#DejaVuSans-44"/>
       <use xlink:href="#DejaVuSans-65" x="77.001953"/>
       <use xlink:href="#DejaVuSans-63" x="138.525391"/>
      </g>
     </g>
    </g>
    <g id="xtick_16">
     <g id="line2d_31">
      <path d="M 336.373361 319.04 
L 336.373361 25.44 
" clip-path="url(#pca966ead96)" style="fill: none; stroke-dasharray: 0.8,1.32; stroke-dashoffset: 0; stroke: #000000; stroke-opacity: 0.5; stroke-width: 0.8"/>
     </g>
     <g id="line2d_32">
      <g>
       <use xlink:href="#m5a1b6337ec" x="336.373361" y="319.04" style="stroke: #000000; stroke-width: 0.8"/>
      </g>
     </g>
     <g id="text_16">
      <!-- 15 -->
      <g transform="translate(330.010861 333.638438)scale(0.1 -0.1)">
       <use xlink:href="#DejaVuSans-31"/>
       <use xlink:href="#DejaVuSans-35" x="63.623047"/>
      </g>
     </g>
    </g>
    <g id="text_17">
     <!-- 2021-Dec -->
     <g transform="translate(307.765625 346.316563)scale(0.1 -0.1)">
      <defs>
       <path id="DejaVuSans-32" d="M 1228 531 
L 3431 531 
L 3431 0 
L 469 0 
L 469 531 
Q 828 903 1448 1529 
Q 2069 2156 2228 2338 
Q 2531 2678 2651 2914 
Q 2772 3150 2772 3378 
Q 2772 3750 2511 3984 
Q 2250 4219 1831 4219 
Q 1534 4219 1204 4116 
Q 875 4013 500 3803 
L 500 4441 
Q 881 4594 1212 4672 
Q 1544 4750 1819 4750 
Q 2544 4750 2975 4387 
Q 3406 4025 3406 3419 
Q 3406 3131 3298 2873 
Q 3191 2616 2906 2266 
Q 2828 2175 2409 1742 
Q 1991 1309 1228 531 
z
" transform="scale(0.015625)"/>
       <path id="DejaVuSans-30" d="M 2034 4250 
Q 1547 4250 1301 3770 
Q 1056 3291 1056 2328 
Q 1056 1369 1301 889 
Q 1547 409 2034 409 
Q 2525 409 2770 889 
Q 3016 1369 3016 2328 
Q 3016 3291 2770 3770 
Q 2525 4250 2034 4250 
z
M 2034 4750 
Q 2819 4750 3233 4129 
Q 3647 3509 3647 2328 
Q 3647 1150 3233 529 
Q 2819 -91 2034 -91 
Q 1250 -91 836 529 
Q 422 1150 422 2328 
Q 422 3509 836 4129 
Q 1250 4750 2034 4750 
z
" transform="scale(0.015625)"/>
       <path id="DejaVuSans-2d" d="M 313 2009 
L 1997 2009 
L 1997 1497 
L 313 1497 
L 313 2009 
z
" transform="scale(0.015625)"/>
      </defs>
      <use xlink:href="#DejaVuSans-32"/>
      <use xlink:href="#DejaVuSans-30" x="63.623047"/>
      <use xlink:href="#DejaVuSans-32" x="127.246094"/>
      <use xlink:href="#DejaVuSans-31" x="190.869141"/>
      <use xlink:href="#DejaVuSans-2d" x="254.492188"/>
      <use xlink:href="#DejaVuSans-44" x="290.576172"/>
      <use xlink:href="#DejaVuSans-65" x="367.578125"/>
      <use xlink:href="#DejaVuSans-63" x="429.101562"/>
     </g>
    </g>
   </g>
   <g id="matplotlib.axis_2">
    <g id="ytick_1">
     <g id="line2d_33">
      <path d="M 54.2 319.04 
L 356.175 319.04 
" clip-path="url(#pca966ead96)" style="fill: none; stroke-dasharray: 0.8,1.32; stroke-dashoffset: 0; stroke: #000000; stroke-opacity: 0.5; stroke-width: 0.8"/>
     </g>
     <g id="line2d_34">
      <defs>
       <path id="m7f21470ee7" d="M 0 0 
L -3.5 0 
" style="stroke: #000000; stroke-width: 0.8"/>
      </defs>
      <g>
       <use xlink:href="#m7f21470ee7" x="54.2" y="319.04" style="stroke: #000000; stroke-width: 0.8"/>
      </g>
     </g>
     <g id="text_18">
      <!-- 0.00 -->
      <g transform="translate(24.934375 322.839219)scale(0.1 -0.1)">
       <defs>
        <path id="DejaVuSans-2e" d="M 684 794 
L 1344 794 
L 1344 0 
L 684 0 
L 684 794 
z
" transform="scale(0.015625)"/>
       </defs>
       <use xlink:href="#DejaVuSans-30"/>
       <use xlink:href="#DejaVuSans-2e" x="63.623047"/>
       <use xlink:href="#DejaVuSans-30" x="95.410156"/>
       <use xlink:href="#DejaVuSans-30" x="159.033203"/>
      </g>
     </g>
    </g>
    <g id="ytick_2">
     <g id="line2d_35">
      <path d="M 54.2 285.676364 
L 356.175 285.676364 
" clip-path="url(#pca966ead96)" style="fill: none; stroke-dasharray: 0.8,1.32; stroke-dashoffset: 0; stroke: #000000; stroke-opacity: 0.5; stroke-width: 0.8"/>
     </g>
     <g id="line2d_36">
      <g>
       <use xlink:href="#m7f21470ee7" x="54.2" y="285.676364" style="stroke: #000000; stroke-width: 0.8"/>
      </g>
     </g>
     <g id="text_19">
      <!-- 0.25 -->
      <g transform="translate(24.934375 289.475582)scale(0.1 -0.1)">
       <use xlink:href="#DejaVuSans-30"/>
       <use xlink:href="#DejaVuSans-2e" x="63.623047"/>
       <use xlink:href="#DejaVuSans-32" x="95.410156"/>
       <use xlink:href="#DejaVuSans-35" x="159.033203"/>
      </g>
     </g>
    </g>
    <g id="ytick_3">
     <g id="line2d_37">
      <path d="M 54.2 252.312727 
L 356.175 252.312727 
" clip-path="url(#pca966ead96)" style="fill: none; stroke-dasharray: 0.8,1.32; stroke-dashoffset: 0; stroke: #000000; stroke-opacity: 0.5; stroke-width: 0.8"/>
     </g>
     <g id="line2d_38">
      <g>
       <use xlink:href="#m7f21470ee7" x="54.2" y="252.312727" style="stroke: #000000; stroke-width: 0.8"/>
      </g>
     </g>
     <g id="text_20">
      <!-- 0.50 -->
      <g transform="translate(24.934375 256.111946)scale(0.1 -0.1)">
       <use xlink:href="#DejaVuSans-30"/>
       <use xlink:href="#DejaVuSans-2e" x="63.623047"/>
       <use xlink:href="#DejaVuSans-35" x="95.410156"/>
       <use xlink:href="#DejaVuSans-30" x="159.033203"/>
      </g>
     </g>
    </g>
    <g id="ytick_4">
     <g id="line2d_39">
      <path d="M 54.2 218.949091 
L 356.175 218.949091 
" clip-path="url(#pca966ead96)" style="fill: none; stroke-dasharray: 0.8,1.32; stroke-dashoffset: 0; stroke: #000000; stroke-opacity: 0.5; stroke-width: 0.8"/>
     </g>
     <g id="line2d_40">
      <g>
       <use xlink:href="#m7f21470ee7" x="54.2" y="218.949091" style="stroke: #000000; stroke-width: 0.8"/>
      </g>
     </g>
     <g id="text_21">
      <!-- 0.75 -->
      <g transform="translate(24.934375 222.74831)scale(0.1 -0.1)">
       <defs>
        <path id="DejaVuSans-37" d="M 525 4666 
L 3525 4666 
L 3525 4397 
L 1831 0 
L 1172 0 
L 2766 4134 
L 525 4134 
L 525 4666 
z
" transform="scale(0.015625)"/>
       </defs>
       <use xlink:href="#DejaVuSans-30"/>
       <use xlink:href="#DejaVuSans-2e" x="63.623047"/>
       <use xlink:href="#DejaVuSans-37" x="95.410156"/>
       <use xlink:href="#DejaVuSans-35" x="159.033203"/>
      </g>
     </g>
    </g>
    <g id="ytick_5">
     <g id="line2d_41">
      <path d="M 54.2 185.585455 
L 356.175 185.585455 
" clip-path="url(#pca966ead96)" style="fill: none; stroke-dasharray: 0.8,1.32; stroke-dashoffset: 0; stroke: #000000; stroke-opacity: 0.5; stroke-width: 0.8"/>
     </g>
     <g id="line2d_42">
      <g>
       <use xlink:href="#m7f21470ee7" x="54.2" y="185.585455" style="stroke: #000000; stroke-width: 0.8"/>
      </g>
     </g>
     <g id="text_22">
      <!-- 1.00 -->
      <g transform="translate(24.934375 189.384673)scale(0.1 -0.1)">
       <use xlink:href="#DejaVuSans-31"/>
       <use xlink:href="#DejaVuSans-2e" x="63.623047"/>
       <use xlink:href="#DejaVuSans-30" x="95.410156"/>
       <use xlink:href="#DejaVuSans-30" x="159.033203"/>
      </g>
     </g>
    </g>
    <g id="ytick_6">
     <g id="line2d_43">
      <path d="M 54.2 152.221818 
L 356.175 152.221818 
" clip-path="url(#pca966ead96)" style="fill: none; stroke-dasharray: 0.8,1.32; stroke-dashoffset: 0; stroke: #000000; stroke-opacity: 0.5; stroke-width: 0.8"/>
     </g>
     <g id="line2d_44">
      <g>
       <use xlink:href="#m7f21470ee7" x="54.2" y="152.221818" style="stroke: #000000; stroke-width: 0.8"/>
      </g>
     </g>
     <g id="text_23">
      <!-- 1.25 -->
      <g transform="translate(24.934375 156.021037)scale(0.1 -0.1)">
       <use xlink:href="#DejaVuSans-31"/>
       <use xlink:href="#DejaVuSans-2e" x="63.623047"/>
       <use xlink:href="#DejaVuSans-32" x="95.410156"/>
       <use xlink:href="#DejaVuSans-35" x="159.033203"/>
      </g>
     </g>
    </g>
    <g id="ytick_7">
     <g id="line2d_45">
      <path d="M 54.2 118.858182 
L 356.175 118.858182 
" clip-path="url(#pca966ead96)" style="fill: none; stroke-dasharray: 0.8,1.32; stroke-dashoffset: 0; stroke: #000000; stroke-opacity: 0.5; stroke-width: 0.8"/>
     </g>
     <g id="line2d_46">
      <g>
       <use xlink:href="#m7f21470ee7" x="54.2" y="118.858182" style="stroke: #000000; stroke-width: 0.8"/>
      </g>
     </g>
     <g id="text_24">
      <!-- 1.50 -->
      <g transform="translate(24.934375 122.657401)scale(0.1 -0.1)">
       <use xlink:href="#DejaVuSans-31"/>
       <use xlink:href="#DejaVuSans-2e" x="63.623047"/>
       <use xlink:href="#DejaVuSans-35" x="95.410156"/>
       <use xlink:href="#DejaVuSans-30" x="159.033203"/>
      </g>
     </g>
    </g>
    <g id="ytick_8">
     <g id="line2d_47">
      <path d="M 54.2 85.494545 
L 356.175 85.494545 
" clip-path="url(#pca966ead96)" style="fill: none; stroke-dasharray: 0.8,1.32; stroke-dashoffset: 0; stroke: #000000; stroke-opacity: 0.5; stroke-width: 0.8"/>
     </g>
     <g id="line2d_48">
      <g>
       <use xlink:href="#m7f21470ee7" x="54.2" y="85.494545" style="stroke: #000000; stroke-width: 0.8"/>
      </g>
     </g>
     <g id="text_25">
      <!-- 1.75 -->
      <g transform="translate(24.934375 89.293764)scale(0.1 -0.1)">
       <use xlink:href="#DejaVuSans-31"/>
       <use xlink:href="#DejaVuSans-2e" x="63.623047"/>
       <use xlink:href="#DejaVuSans-37" x="95.410156"/>
       <use xlink:href="#DejaVuSans-35" x="159.033203"/>
      </g>
     </g>
    </g>
    <g id="ytick_9">
     <g id="line2d_49">
      <path d="M 54.2 52.130909 
L 356.175 52.130909 
" clip-path="url(#pca966ead96)" style="fill: none; stroke-dasharray: 0.8,1.32; stroke-dashoffset: 0; stroke: #000000; stroke-opacity: 0.5; stroke-width: 0.8"/>
     </g>
     <g id="line2d_50">
      <g>
       <use xlink:href="#m7f21470ee7" x="54.2" y="52.130909" style="stroke: #000000; stroke-width: 0.8"/>
      </g>
     </g>
     <g id="text_26">
      <!-- 2.00 -->
      <g transform="translate(24.934375 55.930128)scale(0.1 -0.1)">
       <use xlink:href="#DejaVuSans-32"/>
       <use xlink:href="#DejaVuSans-2e" x="63.623047"/>
       <use xlink:href="#DejaVuSans-30" x="95.410156"/>
       <use xlink:href="#DejaVuSans-30" x="159.033203"/>
      </g>
     </g>
    </g>
    <g id="text_27">
     <!-- 7d avg doses per hundred population per day -->
     <g transform="translate(18.854688 286.7275)rotate(-90)scale(0.1 -0.1)">
      <defs>
       <path id="DejaVuSans-64" d="M 2906 2969 
L 2906 4863 
L 3481 4863 
L 3481 0 
L 2906 0 
L 2906 525 
Q 2725 213 2448 61 
Q 2172 -91 1784 -91 
Q 1150 -91 751 415 
Q 353 922 353 1747 
Q 353 2572 751 3078 
Q 1150 3584 1784 3584 
Q 2172 3584 2448 3432 
Q 2725 3281 2906 2969 
z
M 947 1747 
Q 947 1113 1208 752 
Q 1469 391 1925 391 
Q 2381 391 2643 752 
Q 2906 1113 2906 1747 
Q 2906 2381 2643 2742 
Q 2381 3103 1925 3103 
Q 1469 3103 1208 2742 
Q 947 2381 947 1747 
z
" transform="scale(0.015625)"/>
       <path id="DejaVuSans-20" transform="scale(0.015625)"/>
       <path id="DejaVuSans-73" d="M 2834 3397 
L 2834 2853 
Q 2591 2978 2328 3040 
Q 2066 3103 1784 3103 
Q 1356 3103 1142 2972 
Q 928 2841 928 2578 
Q 928 2378 1081 2264 
Q 1234 2150 1697 2047 
L 1894 2003 
Q 2506 1872 2764 1633 
Q 3022 1394 3022 966 
Q 3022 478 2636 193 
Q 2250 -91 1575 -91 
Q 1294 -91 989 -36 
Q 684 19 347 128 
L 347 722 
Q 666 556 975 473 
Q 1284 391 1588 391 
Q 1994 391 2212 530 
Q 2431 669 2431 922 
Q 2431 1156 2273 1281 
Q 2116 1406 1581 1522 
L 1381 1569 
Q 847 1681 609 1914 
Q 372 2147 372 2553 
Q 372 3047 722 3315 
Q 1072 3584 1716 3584 
Q 2034 3584 2315 3537 
Q 2597 3491 2834 3397 
z
" transform="scale(0.015625)"/>
       <path id="DejaVuSans-72" d="M 2631 2963 
Q 2534 3019 2420 3045 
Q 2306 3072 2169 3072 
Q 1681 3072 1420 2755 
Q 1159 2438 1159 1844 
L 1159 0 
L 581 0 
L 581 3500 
L 1159 3500 
L 1159 2956 
Q 1341 3275 1631 3429 
Q 1922 3584 2338 3584 
Q 2397 3584 2469 3576 
Q 2541 3569 2628 3553 
L 2631 2963 
z
" transform="scale(0.015625)"/>
       <path id="DejaVuSans-68" d="M 3513 2113 
L 3513 0 
L 2938 0 
L 2938 2094 
Q 2938 2591 2744 2837 
Q 2550 3084 2163 3084 
Q 1697 3084 1428 2787 
Q 1159 2491 1159 1978 
L 1159 0 
L 581 0 
L 581 4863 
L 1159 4863 
L 1159 2956 
Q 1366 3272 1645 3428 
Q 1925 3584 2291 3584 
Q 2894 3584 3203 3211 
Q 3513 2838 3513 2113 
z
" transform="scale(0.015625)"/>
       <path id="DejaVuSans-69" d="M 603 3500 
L 1178 3500 
L 1178 0 
L 603 0 
L 603 3500 
z
M 603 4863 
L 1178 4863 
L 1178 4134 
L 603 4134 
L 603 4863 
z
" transform="scale(0.015625)"/>
      </defs>
      <use xlink:href="#DejaVuSans-37"/>
      <use xlink:href="#DejaVuSans-64" x="63.623047"/>
      <use xlink:href="#DejaVuSans-20" x="127.099609"/>
      <use xlink:href="#DejaVuSans-61" x="158.886719"/>
      <use xlink:href="#DejaVuSans-76" x="220.166016"/>
      <use xlink:href="#DejaVuSans-67" x="279.345703"/>
      <use xlink:href="#DejaVuSans-20" x="342.822266"/>
      <use xlink:href="#DejaVuSans-64" x="374.609375"/>
      <use xlink:href="#DejaVuSans-6f" x="438.085938"/>
      <use xlink:href="#DejaVuSans-73" x="499.267578"/>
      <use xlink:href="#DejaVuSans-65" x="551.367188"/>
      <use xlink:href="#DejaVuSans-73" x="612.890625"/>
      <use xlink:href="#DejaVuSans-20" x="664.990234"/>
      <use xlink:href="#DejaVuSans-70" x="696.777344"/>
      <use xlink:href="#DejaVuSans-65" x="760.253906"/>
      <use xlink:href="#DejaVuSans-72" x="821.777344"/>
      <use xlink:href="#DejaVuSans-20" x="862.890625"/>
      <use xlink:href="#DejaVuSans-68" x="894.677734"/>
      <use xlink:href="#DejaVuSans-75" x="958.056641"/>
      <use xlink:href="#DejaVuSans-6e" x="1021.435547"/>
      <use xlink:href="#DejaVuSans-64" x="1084.814453"/>
      <use xlink:href="#DejaVuSans-72" x="1148.291016"/>
      <use xlink:href="#DejaVuSans-65" x="1187.154297"/>
      <use xlink:href="#DejaVuSans-64" x="1248.677734"/>
      <use xlink:href="#DejaVuSans-20" x="1312.154297"/>
      <use xlink:href="#DejaVuSans-70" x="1343.941406"/>
      <use xlink:href="#DejaVuSans-6f" x="1407.417969"/>
      <use xlink:href="#DejaVuSans-70" x="1468.599609"/>
      <use xlink:href="#DejaVuSans-75" x="1532.076172"/>
      <use xlink:href="#DejaVuSans-6c" x="1595.455078"/>
      <use xlink:href="#DejaVuSans-61" x="1623.238281"/>
      <use xlink:href="#DejaVuSans-74" x="1684.517578"/>
      <use xlink:href="#DejaVuSans-69" x="1723.726562"/>
      <use xlink:href="#DejaVuSans-6f" x="1751.509766"/>
      <use xlink:href="#DejaVuSans-6e" x="1812.691406"/>
      <use xlink:href="#DejaVuSans-20" x="1876.070312"/>
      <use xlink:href="#DejaVuSans-70" x="1907.857422"/>
      <use xlink:href="#DejaVuSans-65" x="1971.333984"/>
      <use xlink:href="#DejaVuSans-72" x="2032.857422"/>
      <use xlink:href="#DejaVuSans-20" x="2073.970703"/>
      <use xlink:href="#DejaVuSans-64" x="2105.757812"/>
      <use xlink:href="#DejaVuSans-61" x="2169.234375"/>
      <use xlink:href="#DejaVuSans-79" x="2230.513672"/>
     </g>
    </g>
   </g>
   <g id="line2d_51">
    <path d="M 4.695902 319.04 
L 15.834324 319.04 
L 15.834324 312.08361 
L 17.071926 312.08361 
L 17.071926 311.946565 
L 18.309529 311.946565 
L 18.309529 311.75302 
L 20.784734 311.75302 
L 20.784734 311.616909 
L 22.022336 311.616909 
L 22.022336 310.75775 
L 23.259939 310.75775 
L 23.259939 310.064352 
L 24.497541 310.064352 
L 24.497541 252.177083 
L 25.735143 252.177083 
L 25.735143 247.858873 
L 26.972746 247.858873 
L 26.972746 246.40764 
L 28.210348 246.40764 
L 28.210348 245.940005 
L 29.447951 245.940005 
L 29.447951 241.969895 
L 30.685553 241.969895 
L 30.685553 237.977372 
L 31.923156 237.977372 
L 31.923156 233.896131 
L 33.160758 233.896131 
L 33.160758 294.224066 
L 34.398361 294.224066 
L 34.398361 294.496523 
L 36.873566 294.543683 
L 36.873566 289.971927 
L 38.111168 289.971927 
L 38.111168 289.424447 
L 40.586373 289.433552 
L 40.586373 289.297908 
L 44.29918 289.206388 
L 44.29918 289.470673 
L 45.536783 289.470673 
L 45.536783 294.387493 
L 46.774385 294.387493 
L 46.774385 295.858337 
L 48.011988 295.858337 
L 48.011988 296.788004 
L 49.24959 296.788004 
L 49.24959 295.766351 
L 51.724795 295.796935 
L 51.724795 295.912268 
L 52.962398 295.912268 
L 52.962398 296.050481 
L 55.437602 295.959195 
L 55.437602 294.972796 
L 56.675205 294.972796 
L 56.675205 293.718143 
L 57.912807 293.718143 
L 57.912807 294.541115 
L 59.15041 294.541115 
L 59.15041 293.982895 
L 60.388012 293.982895 
L 60.388012 292.992293 
L 61.625615 292.992293 
L 61.625615 292.473295 
L 64.10082 292.425668 
L 64.10082 291.697484 
L 65.338422 291.697484 
L 65.338422 291.064788 
L 66.576025 291.064788 
L 66.576025 290.068349 
L 67.813627 290.068349 
L 67.813627 288.706068 
L 69.05123 288.706068 
L 69.05123 287.563946 
L 70.288832 287.563946 
L 70.288832 286.334041 
L 72.764037 286.310227 
L 72.764037 284.590274 
L 74.001639 284.590274 
L 74.001639 283.176863 
L 75.239242 283.176863 
L 75.239242 281.864544 
L 76.476844 281.864544 
L 76.476844 280.428954 
L 77.714447 280.428954 
L 77.714447 279.164962 
L 78.952049 279.164962 
L 78.952049 279.053365 
L 80.189652 279.053365 
L 80.189652 278.924258 
L 81.427254 278.924258 
L 81.427254 278.651568 
L 82.664857 278.651568 
L 82.664857 277.93529 
L 83.902459 277.93529 
L 83.902459 276.967569 
L 85.140061 276.967569 
L 85.140061 276.146931 
L 86.377664 276.146931 
L 86.377664 275.246215 
L 87.615266 275.246215 
L 87.615266 274.573829 
L 90.090471 274.523867 
L 90.090471 273.131935 
L 91.328074 273.131935 
L 91.328074 272.241725 
L 92.565676 272.241725 
L 92.565676 271.200227 
L 93.803279 271.200227 
L 93.803279 270.230871 
L 96.278484 270.179042 
L 96.278484 269.991334 
L 97.516086 269.991334 
L 97.516086 269.817167 
L 98.753689 269.817167 
L 98.753689 269.629927 
L 99.991291 269.629927 
L 99.991291 269.231865 
L 101.228893 269.231865 
L 101.228893 269.806428 
L 104.941701 269.821136 
L 104.941701 270.702242 
L 106.179303 270.702242 
L 106.179303 271.059446 
L 107.416906 271.059446 
L 107.416906 276.254793 
L 108.654508 276.254793 
L 108.654508 276.032999 
L 109.892111 276.032999 
L 109.892111 275.67346 
L 111.129713 275.67346 
L 111.129713 275.559761 
L 112.367316 275.559761 
L 112.367316 275.287305 
L 113.604918 275.287305 
L 113.604918 274.288298 
L 114.84252 274.288298 
L 114.84252 274.021212 
L 116.080123 274.021212 
L 116.080123 268.60197 
L 117.317725 268.60197 
L 117.317725 268.86929 
L 119.79293 268.806254 
L 119.79293 268.522591 
L 121.030533 268.522591 
L 121.030533 268.899874 
L 122.268135 268.899874 
L 122.268135 268.206243 
L 123.505738 268.206243 
L 123.505738 265.80083 
L 124.74334 265.80083 
L 124.74334 265.600048 
L 125.980943 265.600048 
L 125.980943 264.030915 
L 127.218545 264.030915 
L 127.218545 261.991345 
L 128.456148 261.991345 
L 128.456148 258.731209 
L 129.69375 258.731209 
L 129.69375 256.764948 
L 130.931352 256.764948 
L 130.931352 253.936025 
L 132.168955 253.936025 
L 132.168955 253.437806 
L 133.406557 253.437806 
L 133.406557 251.447731 
L 134.64416 251.447731 
L 134.64416 249.416099 
L 137.119365 249.391352 
L 137.119365 250.533006 
L 138.356967 250.533006 
L 138.356967 249.488474 
L 139.59457 249.488474 
L 139.59457 249.31921 
L 140.832172 249.31921 
L 140.832172 248.55157 
L 142.069775 248.55157 
L 142.069775 246.704144 
L 143.307377 246.704144 
L 143.307377 243.701055 
L 144.54498 243.701055 
L 144.54498 241.145989 
L 145.782582 241.145989 
L 145.782582 238.249127 
L 147.020184 238.249127 
L 147.020184 235.622621 
L 148.257787 235.622621 
L 148.257787 234.517154 
L 150.732992 234.563614 
L 150.732992 233.050979 
L 151.970594 233.050979 
L 151.970594 233.915509 
L 153.208197 233.915509 
L 153.208197 229.342352 
L 154.445799 229.342352 
L 154.445799 227.611893 
L 155.683402 227.611893 
L 155.683402 225.100953 
L 156.921004 225.100953 
L 156.921004 222.639741 
L 158.158607 222.639741 
L 158.158607 221.164462 
L 159.396209 221.164462 
L 159.396209 221.641202 
L 160.633811 221.641202 
L 160.633811 218.321531 
L 161.871414 218.321531 
L 161.871414 208.552094 
L 163.109016 208.552094 
L 163.109016 206.955412 
L 164.346619 206.955412 
L 164.346619 202.541013 
L 165.584221 202.541013 
L 165.584221 201.995867 
L 166.821824 201.995867 
L 166.821824 201.403561 
L 168.059426 201.403561 
L 168.059426 197.005038 
L 169.297029 197.005038 
L 169.297029 192.985899 
L 170.534631 192.985899 
L 170.534631 200.729541 
L 171.772234 200.729541 
L 171.772234 195.936458 
L 173.009836 195.936458 
L 173.009836 195.141035 
L 174.247439 195.141035 
L 174.247439 190.771229 
L 176.722643 190.837067 
L 176.722643 188.074682 
L 177.960246 188.074682 
L 177.960246 181.947568 
L 179.197848 181.947568 
L 179.197848 177.192774 
L 180.435451 177.192774 
L 180.435451 174.626969 
L 181.673053 174.626969 
L 181.673053 169.6833 
L 182.910656 169.6833 
L 182.910656 170.883322 
L 184.148258 170.883322 
L 184.148258 166.041912 
L 185.385861 166.041912 
L 185.385861 161.867984 
L 186.623463 161.867984 
L 186.623463 164.193318 
L 187.861066 164.193318 
L 187.861066 158.563489 
L 189.098668 158.563489 
L 189.098668 155.829587 
L 190.33627 155.829587 
L 190.33627 152.332482 
L 191.573873 152.332482 
L 191.573873 148.591869 
L 192.811475 148.591869 
L 192.811475 145.696642 
L 194.049078 145.696642 
L 194.049078 141.224811 
L 195.28668 141.224811 
L 195.28668 136.777493 
L 196.524283 136.777493 
L 196.524283 134.472004 
L 197.761885 134.472004 
L 197.761885 130.447963 
L 198.999488 130.447963 
L 198.999488 128.284655 
L 200.23709 128.284655 
L 200.23709 130.664153 
L 201.474693 130.664153 
L 201.474693 127.999125 
L 202.712295 127.999125 
L 202.712295 122.82946 
L 203.949898 122.82946 
L 203.949898 124.696731 
L 205.1875 124.696731 
L 205.1875 125.384058 
L 206.425102 125.384058 
L 206.425102 131.191789 
L 207.662705 131.191789 
L 207.662705 133.511286 
L 208.900307 133.511286 
L 208.900307 127.967607 
L 210.13791 127.967607 
L 210.13791 133.342957 
L 211.375512 133.342957 
L 211.375512 145.049238 
L 212.613115 145.049238 
L 212.613115 148.247038 
L 213.850717 148.247038 
L 213.850717 154.125277 
L 215.08832 154.125277 
L 215.08832 152.724006 
L 216.325922 152.724006 
L 216.325922 154.701707 
L 217.563525 154.701707 
L 217.563525 161.189995 
L 218.801127 161.189995 
L 218.801127 163.251978 
L 220.03873 163.251978 
L 220.03873 151.793172 
L 221.276332 151.793172 
L 221.276332 150.676032 
L 222.513934 150.676032 
L 222.513934 149.438422 
L 223.751537 149.438422 
L 223.751537 151.984615 
L 224.989139 151.984615 
L 224.989139 147.054955 
L 226.226742 147.054955 
L 226.226742 143.170293 
L 227.464344 143.170293 
L 227.464344 141.336641 
L 228.701947 141.336641 
L 228.701947 146.120619 
L 229.939549 146.120619 
L 229.939549 141.817117 
L 231.177152 141.817117 
L 231.177152 140.071249 
L 232.414754 140.071249 
L 232.414754 135.714283 
L 233.652357 135.714283 
L 233.652357 135.983704 
L 234.889959 135.983704 
L 234.889959 135.132483 
L 236.127561 135.132483 
L 236.127561 136.297018 
L 237.365164 136.297018 
L 237.365164 136.147832 
L 238.602766 136.147832 
L 238.602766 136.451106 
L 239.840369 136.451106 
L 239.840369 139.277227 
L 241.077971 139.277227 
L 241.077971 140.485887 
L 242.315574 140.485887 
L 242.315574 143.915988 
L 243.553176 143.915988 
L 243.553176 148.809928 
L 244.790779 148.809928 
L 244.790779 151.400247 
L 246.028381 151.400247 
L 246.028381 175.599827 
L 247.265984 175.599827 
L 247.265984 173.259318 
L 248.503586 173.259318 
L 248.503586 171.72824 
L 249.741189 171.72824 
L 249.741189 173.142117 
L 250.978791 173.142117 
L 250.978791 173.881041 
L 252.216393 173.881041 
L 252.216393 171.200837 
L 253.453996 171.200837 
L 253.453996 168.232301 
L 254.691598 168.232301 
L 254.691598 145.934545 
L 255.929201 145.934545 
L 255.929201 149.557723 
L 257.166803 149.557723 
L 257.166803 151.308494 
L 258.404406 151.308494 
L 258.404406 154.732525 
L 259.642008 154.732525 
L 259.642008 160.778393 
L 260.879611 160.778393 
L 260.879611 167.019206 
L 262.117213 167.019206 
L 262.117213 167.679918 
L 263.354816 167.679918 
L 263.354816 176.681014 
L 264.592418 176.681014 
L 264.592418 188.582707 
L 265.83002 188.582707 
L 265.83002 198.879546 
L 267.067623 198.879546 
L 267.067623 206.703734 
L 268.305225 206.703734 
L 268.305225 213.675066 
L 269.542828 213.675066 
L 269.542828 216.253245 
L 270.78043 216.253245 
L 270.78043 221.888677 
L 272.018033 221.888677 
L 272.018033 229.915514 
L 273.255635 229.915514 
L 273.255635 236.290337 
L 274.493238 236.290337 
L 274.493238 241.614324 
L 275.73084 241.614324 
L 275.73084 246.706712 
L 276.968443 246.706712 
L 276.968443 251.696607 
L 278.206045 251.696607 
L 278.206045 255.06694 
L 279.443648 255.06694 
L 279.443648 256.390933 
L 280.68125 256.390933 
L 280.68125 257.682707 
L 281.918852 257.682707 
L 281.918852 260.178239 
L 283.156455 260.178239 
L 283.156455 263.44608 
L 284.394057 263.44608 
L 284.394057 267.633081 
L 285.63166 267.633081 
L 285.63166 271.018123 
L 286.869262 271.018123 
L 286.869262 273.652801 
L 288.106865 273.652801 
L 288.106865 275.1052 
L 289.344467 275.1052 
L 289.344467 279.342397 
L 290.58207 279.342397 
L 290.58207 282.838102 
L 291.819672 282.838102 
L 291.819672 285.828818 
L 293.057275 285.828818 
L 293.057275 287.811655 
L 294.294877 287.811655 
L 294.294877 290.451936 
L 295.53248 290.451936 
L 295.53248 291.598727 
L 296.770082 291.598727 
L 296.770082 291.90667 
L 298.007684 291.90667 
L 298.007684 294.090056 
L 299.245287 294.090056 
L 299.245287 295.957794 
L 300.482889 295.957794 
L 300.482889 297.447782 
L 301.720492 297.447782 
L 301.720492 299.428051 
L 302.958094 299.428051 
L 302.958094 301.32077 
L 304.195697 301.32077 
L 304.195697 302.137205 
L 305.433299 302.137205 
L 305.433299 302.645697 
L 306.670902 302.645697 
L 306.670902 303.169831 
L 307.908504 303.169831 
L 307.908504 304.04043 
L 309.146107 304.04043 
L 309.146107 305.007451 
L 310.383709 305.007451 
L 310.383709 306.153776 
L 311.621311 306.153776 
L 311.621311 306.678376 
L 312.858914 306.678376 
L 312.858914 307.001729 
L 315.334119 306.988654 
L 315.334119 307.848047 
L 316.571721 307.848047 
L 316.571721 308.267354 
L 317.809324 308.267354 
L 317.809324 309.098965 
L 319.046926 309.098965 
L 319.046926 309.359981 
L 320.284529 309.359981 
L 320.284529 309.728159 
L 321.522131 309.728159 
L 321.522131 309.914232 
L 323.997336 309.944116 
L 323.997336 310.438366 
L 325.234939 310.438366 
L 325.234939 310.946158 
L 327.710143 310.995886 
L 327.710143 311.102347 
L 328.947746 311.102347 
L 328.947746 311.549904 
L 330.185348 311.549904 
L 330.185348 311.681579 
L 331.422951 311.681579 
L 331.422951 311.837302 
L 332.660553 311.837302 
L 332.660553 312.035516 
L 333.898156 312.035516 
L 333.898156 312.035516 
" clip-path="url(#pca966ead96)" style="fill: none; stroke: #1f77b4; stroke-width: 1.5; stroke-linecap: square"/>
   </g>
   <g id="line2d_52">
    <path d="M 333.898156 305.694545 
L 347.511783 305.694545 
L 347.511783 319.04 
L 581.418648 319.04 
L 581.418648 319.04 
" clip-path="url(#pca966ead96)" style="fill: none; stroke: #ff7f0e; stroke-width: 1.5; stroke-linecap: square"/>
   </g>
   <g id="patch_3">
    <path d="M 54.2 319.04 
L 54.2 25.44 
" style="fill: none; stroke: #000000; stroke-width: 0.8; stroke-linejoin: miter; stroke-linecap: square"/>
   </g>
   <g id="patch_4">
    <path d="M 356.175 319.04 
L 356.175 25.44 
" style="fill: none; stroke: #000000; stroke-width: 0.8; stroke-linejoin: miter; stroke-linecap: square"/>
   </g>
   <g id="patch_5">
    <path d="M 54.2 319.04 
L 356.175 319.04 
" style="fill: none; stroke: #000000; stroke-width: 0.8; stroke-linejoin: miter; stroke-linecap: square"/>
   </g>
   <g id="patch_6">
    <path d="M 54.2 25.44 
L 356.175 25.44 
" style="fill: none; stroke: #000000; stroke-width: 0.8; stroke-linejoin: miter; stroke-linecap: square"/>
   </g>
   <g id="text_28">
    <!-- NSW daily vaccinations per capita -->
    <g transform="translate(102.919375 19.44)scale(0.12 -0.12)">
     <defs>
      <path id="DejaVuSans-57" d="M 213 4666 
L 850 4666 
L 1831 722 
L 2809 4666 
L 3519 4666 
L 4500 722 
L 5478 4666 
L 6119 4666 
L 4947 0 
L 4153 0 
L 3169 4050 
L 2175 0 
L 1381 0 
L 213 4666 
z
" transform="scale(0.015625)"/>
     </defs>
     <use xlink:href="#DejaVuSans-4e"/>
     <use xlink:href="#DejaVuSans-53" x="74.804688"/>
     <use xlink:href="#DejaVuSans-57" x="138.28125"/>
     <use xlink:href="#DejaVuSans-20" x="237.158203"/>
     <use xlink:href="#DejaVuSans-64" x="268.945312"/>
     <use xlink:href="#DejaVuSans-61" x="332.421875"/>
     <use xlink:href="#DejaVuSans-69" x="393.701172"/>
     <use xlink:href="#DejaVuSans-6c" x="421.484375"/>
     <use xlink:href="#DejaVuSans-79" x="449.267578"/>
     <use xlink:href="#DejaVuSans-20" x="508.447266"/>
     <use xlink:href="#DejaVuSans-76" x="540.234375"/>
     <use xlink:href="#DejaVuSans-61" x="599.414062"/>
     <use xlink:href="#DejaVuSans-63" x="660.693359"/>
     <use xlink:href="#DejaVuSans-63" x="715.673828"/>
     <use xlink:href="#DejaVuSans-69" x="770.654297"/>
     <use xlink:href="#DejaVuSans-6e" x="798.4375"/>
     <use xlink:href="#DejaVuSans-61" x="861.816406"/>
     <use xlink:href="#DejaVuSans-74" x="923.095703"/>
     <use xlink:href="#DejaVuSans-69" x="962.304688"/>
     <use xlink:href="#DejaVuSans-6f" x="990.087891"/>
     <use xlink:href="#DejaVuSans-6e" x="1051.269531"/>
     <use xlink:href="#DejaVuSans-73" x="1114.648438"/>
     <use xlink:href="#DejaVuSans-20" x="1166.748047"/>
     <use xlink:href="#DejaVuSans-70" x="1198.535156"/>
     <use xlink:href="#DejaVuSans-65" x="1262.011719"/>
     <use xlink:href="#DejaVuSans-72" x="1323.535156"/>
     <use xlink:href="#DejaVuSans-20" x="1364.648438"/>
     <use xlink:href="#DejaVuSans-63" x="1396.435547"/>
     <use xlink:href="#DejaVuSans-61" x="1451.416016"/>
     <use xlink:href="#DejaVuSans-70" x="1512.695312"/>
     <use xlink:href="#DejaVuSans-69" x="1576.171875"/>
     <use xlink:href="#DejaVuSans-74" x="1603.955078"/>
     <use xlink:href="#DejaVuSans-61" x="1643.164062"/>
    </g>
   </g>
   <g id="legend_1">
    <g id="patch_7">
     <path d="M 201.292187 62.79625 
L 349.175 62.79625 
Q 351.175 62.79625 351.175 60.79625 
L 351.175 32.44 
Q 351.175 30.44 349.175 30.44 
L 201.292187 30.44 
Q 199.292187 30.44 199.292187 32.44 
L 199.292187 60.79625 
Q 199.292187 62.79625 201.292187 62.79625 
z
" style="fill: #ffffff; opacity: 0.8; stroke: #cccccc; stroke-linejoin: miter"/>
    </g>
    <g id="line2d_53">
     <path d="M 203.292187 38.538437 
L 203.292187 38.538437 
L 213.292187 38.538437 
L 213.292187 38.538437 
L 223.292187 38.538437 
" style="fill: none; stroke: #1f77b4; stroke-width: 1.5; stroke-linecap: square"/>
    </g>
    <g id="text_29">
     <!-- Actual -->
     <g transform="translate(231.292187 42.038437)scale(0.1 -0.1)">
      <use xlink:href="#DejaVuSans-41"/>
      <use xlink:href="#DejaVuSans-63" x="66.658203"/>
      <use xlink:href="#DejaVuSans-74" x="121.638672"/>
      <use xlink:href="#DejaVuSans-75" x="160.847656"/>
      <use xlink:href="#DejaVuSans-61" x="224.226562"/>
      <use xlink:href="#DejaVuSans-6c" x="285.505859"/>
     </g>
    </g>
    <g id="line2d_54">
     <path d="M 203.292187 53.216563 
L 203.292187 53.216563 
L 213.292187 53.216563 
L 213.292187 53.216563 
L 223.292187 53.216563 
" style="fill: none; stroke: #ff7f0e; stroke-width: 1.5; stroke-linecap: square"/>
    </g>
    <g id="text_30">
     <!-- Assumed for projection -->
     <g transform="translate(231.292187 56.716563)scale(0.1 -0.1)">
      <defs>
       <path id="DejaVuSans-6d" d="M 3328 2828 
Q 3544 3216 3844 3400 
Q 4144 3584 4550 3584 
Q 5097 3584 5394 3201 
Q 5691 2819 5691 2113 
L 5691 0 
L 5113 0 
L 5113 2094 
Q 5113 2597 4934 2840 
Q 4756 3084 4391 3084 
Q 3944 3084 3684 2787 
Q 3425 2491 3425 1978 
L 3425 0 
L 2847 0 
L 2847 2094 
Q 2847 2600 2669 2842 
Q 2491 3084 2119 3084 
Q 1678 3084 1418 2786 
Q 1159 2488 1159 1978 
L 1159 0 
L 581 0 
L 581 3500 
L 1159 3500 
L 1159 2956 
Q 1356 3278 1631 3431 
Q 1906 3584 2284 3584 
Q 2666 3584 2933 3390 
Q 3200 3197 3328 2828 
z
" transform="scale(0.015625)"/>
       <path id="DejaVuSans-66" d="M 2375 4863 
L 2375 4384 
L 1825 4384 
Q 1516 4384 1395 4259 
Q 1275 4134 1275 3809 
L 1275 3500 
L 2222 3500 
L 2222 3053 
L 1275 3053 
L 1275 0 
L 697 0 
L 697 3053 
L 147 3053 
L 147 3500 
L 697 3500 
L 697 3744 
Q 697 4328 969 4595 
Q 1241 4863 1831 4863 
L 2375 4863 
z
" transform="scale(0.015625)"/>
       <path id="DejaVuSans-6a" d="M 603 3500 
L 1178 3500 
L 1178 -63 
Q 1178 -731 923 -1031 
Q 669 -1331 103 -1331 
L -116 -1331 
L -116 -844 
L 38 -844 
Q 366 -844 484 -692 
Q 603 -541 603 -63 
L 603 3500 
z
M 603 4863 
L 1178 4863 
L 1178 4134 
L 603 4134 
L 603 4863 
z
" transform="scale(0.015625)"/>
      </defs>
      <use xlink:href="#DejaVuSans-41"/>
      <use xlink:href="#DejaVuSans-73" x="68.408203"/>
      <use xlink:href="#DejaVuSans-73" x="120.507812"/>
      <use xlink:href="#DejaVuSans-75" x="172.607422"/>
      <use xlink:href="#DejaVuSans-6d" x="235.986328"/>
      <use xlink:href="#DejaVuSans-65" x="333.398438"/>
      <use xlink:href="#DejaVuSans-64" x="394.921875"/>
      <use xlink:href="#DejaVuSans-20" x="458.398438"/>
      <use xlink:href="#DejaVuSans-66" x="490.185547"/>
      <use xlink:href="#DejaVuSans-6f" x="525.390625"/>
      <use xlink:href="#DejaVuSans-72" x="586.572266"/>
      <use xlink:href="#DejaVuSans-20" x="627.685547"/>
      <use xlink:href="#DejaVuSans-70" x="659.472656"/>
      <use xlink:href="#DejaVuSans-72" x="722.949219"/>
      <use xlink:href="#DejaVuSans-6f" x="761.8125"/>
      <use xlink:href="#DejaVuSans-6a" x="822.994141"/>
      <use xlink:href="#DejaVuSans-65" x="850.777344"/>
      <use xlink:href="#DejaVuSans-63" x="912.300781"/>
      <use xlink:href="#DejaVuSans-74" x="967.28125"/>
      <use xlink:href="#DejaVuSans-69" x="1006.490234"/>
      <use xlink:href="#DejaVuSans-6f" x="1034.273438"/>
      <use xlink:href="#DejaVuSans-6e" x="1095.455078"/>
     </g>
    </g>
   </g>
  </g>
  <g id="axes_2">
   <g id="patch_8">
    <path d="M 407.225 319.04 
L 709.2 319.04 
L 709.2 25.44 
L 407.225 25.44 
z
" style="fill: #ffffff"/>
   </g>
   <g id="matplotlib.axis_3">
    <g id="xtick_17">
     <g id="line2d_55">
      <path d="M 407.225 319.04 
L 407.225 25.44 
" clip-path="url(#p9e9d87b8d6)" style="fill: none; stroke-dasharray: 0.8,1.32; stroke-dashoffset: 0; stroke: #000000; stroke-opacity: 0.5; stroke-width: 0.8"/>
     </g>
     <g id="line2d_56">
      <g>
       <use xlink:href="#m5a1b6337ec" x="407.225" y="319.04" style="stroke: #000000; stroke-width: 0.8"/>
      </g>
     </g>
     <g id="text_31">
      <!-- May -->
      <g transform="translate(396.8875 333.638438)scale(0.1 -0.1)">
       <use xlink:href="#DejaVuSans-4d"/>
       <use xlink:href="#DejaVuSans-61" x="86.279297"/>
       <use xlink:href="#DejaVuSans-79" x="147.558594"/>
      </g>
     </g>
    </g>
    <g id="xtick_18">
     <g id="line2d_57">
      <path d="M 424.551434 319.04 
L 424.551434 25.44 
" clip-path="url(#p9e9d87b8d6)" style="fill: none; stroke-dasharray: 0.8,1.32; stroke-dashoffset: 0; stroke: #000000; stroke-opacity: 0.5; stroke-width: 0.8"/>
     </g>
     <g id="line2d_58">
      <g>
       <use xlink:href="#m5a1b6337ec" x="424.551434" y="319.04" style="stroke: #000000; stroke-width: 0.8"/>
      </g>
     </g>
     <g id="text_32">
      <!-- 15 -->
      <g transform="translate(418.188934 333.638438)scale(0.1 -0.1)">
       <use xlink:href="#DejaVuSans-31"/>
       <use xlink:href="#DejaVuSans-35" x="63.623047"/>
      </g>
     </g>
    </g>
    <g id="xtick_19">
     <g id="line2d_59">
      <path d="M 445.590676 319.04 
L 445.590676 25.44 
" clip-path="url(#p9e9d87b8d6)" style="fill: none; stroke-dasharray: 0.8,1.32; stroke-dashoffset: 0; stroke: #000000; stroke-opacity: 0.5; stroke-width: 0.8"/>
     </g>
     <g id="line2d_60">
      <g>
       <use xlink:href="#m5a1b6337ec" x="445.590676" y="319.04" style="stroke: #000000; stroke-width: 0.8"/>
      </g>
     </g>
     <g id="text_33">
      <!-- Jun -->
      <g transform="translate(437.778176 333.638438)scale(0.1 -0.1)">
       <use xlink:href="#DejaVuSans-4a"/>
       <use xlink:href="#DejaVuSans-75" x="29.492188"/>
       <use xlink:href="#DejaVuSans-6e" x="92.871094"/>
      </g>
     </g>
    </g>
    <g id="xtick_20">
     <g id="line2d_61">
      <path d="M 462.917111 319.04 
L 462.917111 25.44 
" clip-path="url(#p9e9d87b8d6)" style="fill: none; stroke-dasharray: 0.8,1.32; stroke-dashoffset: 0; stroke: #000000; stroke-opacity: 0.5; stroke-width: 0.8"/>
     </g>
     <g id="line2d_62">
      <g>
       <use xlink:href="#m5a1b6337ec" x="462.917111" y="319.04" style="stroke: #000000; stroke-width: 0.8"/>
      </g>
     </g>
     <g id="text_34">
      <!-- 15 -->
      <g transform="translate(456.554611 333.638438)scale(0.1 -0.1)">
       <use xlink:href="#DejaVuSans-31"/>
       <use xlink:href="#DejaVuSans-35" x="63.623047"/>
      </g>
     </g>
    </g>
    <g id="xtick_21">
     <g id="line2d_63">
      <path d="M 482.71875 319.04 
L 482.71875 25.44 
" clip-path="url(#p9e9d87b8d6)" style="fill: none; stroke-dasharray: 0.8,1.32; stroke-dashoffset: 0; stroke: #000000; stroke-opacity: 0.5; stroke-width: 0.8"/>
     </g>
     <g id="line2d_64">
      <g>
       <use xlink:href="#m5a1b6337ec" x="482.71875" y="319.04" style="stroke: #000000; stroke-width: 0.8"/>
      </g>
     </g>
     <g id="text_35">
      <!-- Jul -->
      <g transform="translate(476.685938 333.638438)scale(0.1 -0.1)">
       <use xlink:href="#DejaVuSans-4a"/>
       <use xlink:href="#DejaVuSans-75" x="29.492188"/>
       <use xlink:href="#DejaVuSans-6c" x="92.871094"/>
      </g>
     </g>
    </g>
    <g id="xtick_22">
     <g id="line2d_65">
      <path d="M 500.045184 319.04 
L 500.045184 25.44 
" clip-path="url(#p9e9d87b8d6)" style="fill: none; stroke-dasharray: 0.8,1.32; stroke-dashoffset: 0; stroke: #000000; stroke-opacity: 0.5; stroke-width: 0.8"/>
     </g>
     <g id="line2d_66">
      <g>
       <use xlink:href="#m5a1b6337ec" x="500.045184" y="319.04" style="stroke: #000000; stroke-width: 0.8"/>
      </g>
     </g>
     <g id="text_36">
      <!-- 15 -->
      <g transform="translate(493.682684 333.638438)scale(0.1 -0.1)">
       <use xlink:href="#DejaVuSans-31"/>
       <use xlink:href="#DejaVuSans-35" x="63.623047"/>
      </g>
     </g>
    </g>
    <g id="xtick_23">
     <g id="line2d_67">
      <path d="M 521.084426 319.04 
L 521.084426 25.44 
" clip-path="url(#p9e9d87b8d6)" style="fill: none; stroke-dasharray: 0.8,1.32; stroke-dashoffset: 0; stroke: #000000; stroke-opacity: 0.5; stroke-width: 0.8"/>
     </g>
     <g id="line2d_68">
      <g>
       <use xlink:href="#m5a1b6337ec" x="521.084426" y="319.04" style="stroke: #000000; stroke-width: 0.8"/>
      </g>
     </g>
     <g id="text_37">
      <!-- Aug -->
      <g transform="translate(511.321145 333.638438)scale(0.1 -0.1)">
       <use xlink:href="#DejaVuSans-41"/>
       <use xlink:href="#DejaVuSans-75" x="68.408203"/>
       <use xlink:href="#DejaVuSans-67" x="131.787109"/>
      </g>
     </g>
    </g>
    <g id="xtick_24">
     <g id="line2d_69">
      <path d="M 538.410861 319.04 
L 538.410861 25.44 
" clip-path="url(#p9e9d87b8d6)" style="fill: none; stroke-dasharray: 0.8,1.32; stroke-dashoffset: 0; stroke: #000000; stroke-opacity: 0.5; stroke-width: 0.8"/>
     </g>
     <g id="line2d_70">
      <g>
       <use xlink:href="#m5a1b6337ec" x="538.410861" y="319.04" style="stroke: #000000; stroke-width: 0.8"/>
      </g>
     </g>
     <g id="text_38">
      <!-- 15 -->
      <g transform="translate(532.048361 333.638438)scale(0.1 -0.1)">
       <use xlink:href="#DejaVuSans-31"/>
       <use xlink:href="#DejaVuSans-35" x="63.623047"/>
      </g>
     </g>
    </g>
    <g id="xtick_25">
     <g id="line2d_71">
      <path d="M 559.450102 319.04 
L 559.450102 25.44 
" clip-path="url(#p9e9d87b8d6)" style="fill: none; stroke-dasharray: 0.8,1.32; stroke-dashoffset: 0; stroke: #000000; stroke-opacity: 0.5; stroke-width: 0.8"/>
     </g>
     <g id="line2d_72">
      <g>
       <use xlink:href="#m5a1b6337ec" x="559.450102" y="319.04" style="stroke: #000000; stroke-width: 0.8"/>
      </g>
     </g>
     <g id="text_39">
      <!-- Sep -->
      <g transform="translate(550.025102 333.638438)scale(0.1 -0.1)">
       <use xlink:href="#DejaVuSans-53"/>
       <use xlink:href="#DejaVuSans-65" x="63.476562"/>
       <use xlink:href="#DejaVuSans-70" x="125"/>
      </g>
     </g>
    </g>
    <g id="xtick_26">
     <g id="line2d_73">
      <path d="M 576.776537 319.04 
L 576.776537 25.44 
" clip-path="url(#p9e9d87b8d6)" style="fill: none; stroke-dasharray: 0.8,1.32; stroke-dashoffset: 0; stroke: #000000; stroke-opacity: 0.5; stroke-width: 0.8"/>
     </g>
     <g id="line2d_74">
      <g>
       <use xlink:href="#m5a1b6337ec" x="576.776537" y="319.04" style="stroke: #000000; stroke-width: 0.8"/>
      </g>
     </g>
     <g id="text_40">
      <!-- 15 -->
      <g transform="translate(570.414037 333.638438)scale(0.1 -0.1)">
       <use xlink:href="#DejaVuSans-31"/>
       <use xlink:href="#DejaVuSans-35" x="63.623047"/>
      </g>
     </g>
    </g>
    <g id="xtick_27">
     <g id="line2d_75">
      <path d="M 596.578176 319.04 
L 596.578176 25.44 
" clip-path="url(#p9e9d87b8d6)" style="fill: none; stroke-dasharray: 0.8,1.32; stroke-dashoffset: 0; stroke: #000000; stroke-opacity: 0.5; stroke-width: 0.8"/>
     </g>
     <g id="line2d_76">
      <g>
       <use xlink:href="#m5a1b6337ec" x="596.578176" y="319.04" style="stroke: #000000; stroke-width: 0.8"/>
      </g>
     </g>
     <g id="text_41">
      <!-- Oct -->
      <g transform="translate(587.932864 333.638438)scale(0.1 -0.1)">
       <use xlink:href="#DejaVuSans-4f"/>
       <use xlink:href="#DejaVuSans-63" x="78.710938"/>
       <use xlink:href="#DejaVuSans-74" x="133.691406"/>
      </g>
     </g>
    </g>
    <g id="xtick_28">
     <g id="line2d_77">
      <path d="M 613.904611 319.04 
L 613.904611 25.44 
" clip-path="url(#p9e9d87b8d6)" style="fill: none; stroke-dasharray: 0.8,1.32; stroke-dashoffset: 0; stroke: #000000; stroke-opacity: 0.5; stroke-width: 0.8"/>
     </g>
     <g id="line2d_78">
      <g>
       <use xlink:href="#m5a1b6337ec" x="613.904611" y="319.04" style="stroke: #000000; stroke-width: 0.8"/>
      </g>
     </g>
     <g id="text_42">
      <!-- 15 -->
      <g transform="translate(607.542111 333.638438)scale(0.1 -0.1)">
       <use xlink:href="#DejaVuSans-31"/>
       <use xlink:href="#DejaVuSans-35" x="63.623047"/>
      </g>
     </g>
    </g>
    <g id="xtick_29">
     <g id="line2d_79">
      <path d="M 634.943852 319.04 
L 634.943852 25.44 
" clip-path="url(#p9e9d87b8d6)" style="fill: none; stroke-dasharray: 0.8,1.32; stroke-dashoffset: 0; stroke: #000000; stroke-opacity: 0.5; stroke-width: 0.8"/>
     </g>
     <g id="line2d_80">
      <g>
       <use xlink:href="#m5a1b6337ec" x="634.943852" y="319.04" style="stroke: #000000; stroke-width: 0.8"/>
      </g>
     </g>
     <g id="text_43">
      <!-- Nov -->
      <g transform="translate(625.184477 333.638438)scale(0.1 -0.1)">
       <use xlink:href="#DejaVuSans-4e"/>
       <use xlink:href="#DejaVuSans-6f" x="74.804688"/>
       <use xlink:href="#DejaVuSans-76" x="135.986328"/>
      </g>
     </g>
    </g>
    <g id="xtick_30">
     <g id="line2d_81">
      <path d="M 652.270287 319.04 
L 652.270287 25.44 
" clip-path="url(#p9e9d87b8d6)" style="fill: none; stroke-dasharray: 0.8,1.32; stroke-dashoffset: 0; stroke: #000000; stroke-opacity: 0.5; stroke-width: 0.8"/>
     </g>
     <g id="line2d_82">
      <g>
       <use xlink:href="#m5a1b6337ec" x="652.270287" y="319.04" style="stroke: #000000; stroke-width: 0.8"/>
      </g>
     </g>
     <g id="text_44">
      <!-- 15 -->
      <g transform="translate(645.907787 333.638438)scale(0.1 -0.1)">
       <use xlink:href="#DejaVuSans-31"/>
       <use xlink:href="#DejaVuSans-35" x="63.623047"/>
      </g>
     </g>
    </g>
    <g id="xtick_31">
     <g id="line2d_83">
      <path d="M 672.071926 319.04 
L 672.071926 25.44 
" clip-path="url(#p9e9d87b8d6)" style="fill: none; stroke-dasharray: 0.8,1.32; stroke-dashoffset: 0; stroke: #000000; stroke-opacity: 0.5; stroke-width: 0.8"/>
     </g>
     <g id="line2d_84">
      <g>
       <use xlink:href="#m5a1b6337ec" x="672.071926" y="319.04" style="stroke: #000000; stroke-width: 0.8"/>
      </g>
     </g>
     <g id="text_45">
      <!-- Dec -->
      <g transform="translate(662.396145 333.638438)scale(0.1 -0.1)">
       <use xlink:href="#DejaVuSans-44"/>
       <use xlink:href="#DejaVuSans-65" x="77.001953"/>
       <use xlink:href="#DejaVuSans-63" x="138.525391"/>
      </g>
     </g>
    </g>
    <g id="xtick_32">
     <g id="line2d_85">
      <path d="M 689.398361 319.04 
L 689.398361 25.44 
" clip-path="url(#p9e9d87b8d6)" style="fill: none; stroke-dasharray: 0.8,1.32; stroke-dashoffset: 0; stroke: #000000; stroke-opacity: 0.5; stroke-width: 0.8"/>
     </g>
     <g id="line2d_86">
      <g>
       <use xlink:href="#m5a1b6337ec" x="689.398361" y="319.04" style="stroke: #000000; stroke-width: 0.8"/>
      </g>
     </g>
     <g id="text_46">
      <!-- 15 -->
      <g transform="translate(683.035861 333.638438)scale(0.1 -0.1)">
       <use xlink:href="#DejaVuSans-31"/>
       <use xlink:href="#DejaVuSans-35" x="63.623047"/>
      </g>
     </g>
    </g>
    <g id="text_47">
     <!-- 2021-Dec -->
     <g transform="translate(660.790625 346.316563)scale(0.1 -0.1)">
      <use xlink:href="#DejaVuSans-32"/>
      <use xlink:href="#DejaVuSans-30" x="63.623047"/>
      <use xlink:href="#DejaVuSans-32" x="127.246094"/>
      <use xlink:href="#DejaVuSans-31" x="190.869141"/>
      <use xlink:href="#DejaVuSans-2d" x="254.492188"/>
      <use xlink:href="#DejaVuSans-44" x="290.576172"/>
      <use xlink:href="#DejaVuSans-65" x="367.578125"/>
      <use xlink:href="#DejaVuSans-63" x="429.101562"/>
     </g>
    </g>
   </g>
   <g id="matplotlib.axis_4">
    <g id="ytick_10">
     <g id="line2d_87">
      <path d="M 407.225 319.04 
L 709.2 319.04 
" clip-path="url(#p9e9d87b8d6)" style="fill: none; stroke-dasharray: 0.8,1.32; stroke-dashoffset: 0; stroke: #000000; stroke-opacity: 0.5; stroke-width: 0.8"/>
     </g>
     <g id="line2d_88">
      <g>
       <use xlink:href="#m7f21470ee7" x="407.225" y="319.04" style="stroke: #000000; stroke-width: 0.8"/>
      </g>
     </g>
     <g id="text_48">
      <!-- 0 -->
      <g transform="translate(393.8625 322.839219)scale(0.1 -0.1)">
       <use xlink:href="#DejaVuSans-30"/>
      </g>
     </g>
    </g>
    <g id="ytick_11">
     <g id="line2d_89">
      <path d="M 407.225 282.34 
L 709.2 282.34 
" clip-path="url(#p9e9d87b8d6)" style="fill: none; stroke-dasharray: 0.8,1.32; stroke-dashoffset: 0; stroke: #000000; stroke-opacity: 0.5; stroke-width: 0.8"/>
     </g>
     <g id="line2d_90">
      <g>
       <use xlink:href="#m7f21470ee7" x="407.225" y="282.34" style="stroke: #000000; stroke-width: 0.8"/>
      </g>
     </g>
     <g id="text_49">
      <!-- 25 -->
      <g transform="translate(387.5 286.139219)scale(0.1 -0.1)">
       <use xlink:href="#DejaVuSans-32"/>
       <use xlink:href="#DejaVuSans-35" x="63.623047"/>
      </g>
     </g>
    </g>
    <g id="ytick_12">
     <g id="line2d_91">
      <path d="M 407.225 245.64 
L 709.2 245.64 
" clip-path="url(#p9e9d87b8d6)" style="fill: none; stroke-dasharray: 0.8,1.32; stroke-dashoffset: 0; stroke: #000000; stroke-opacity: 0.5; stroke-width: 0.8"/>
     </g>
     <g id="line2d_92">
      <g>
       <use xlink:href="#m7f21470ee7" x="407.225" y="245.64" style="stroke: #000000; stroke-width: 0.8"/>
      </g>
     </g>
     <g id="text_50">
      <!-- 50 -->
      <g transform="translate(387.5 249.439219)scale(0.1 -0.1)">
       <use xlink:href="#DejaVuSans-35"/>
       <use xlink:href="#DejaVuSans-30" x="63.623047"/>
      </g>
     </g>
    </g>
    <g id="ytick_13">
     <g id="line2d_93">
      <path d="M 407.225 208.94 
L 709.2 208.94 
" clip-path="url(#p9e9d87b8d6)" style="fill: none; stroke-dasharray: 0.8,1.32; stroke-dashoffset: 0; stroke: #000000; stroke-opacity: 0.5; stroke-width: 0.8"/>
     </g>
     <g id="line2d_94">
      <g>
       <use xlink:href="#m7f21470ee7" x="407.225" y="208.94" style="stroke: #000000; stroke-width: 0.8"/>
      </g>
     </g>
     <g id="text_51">
      <!-- 75 -->
      <g transform="translate(387.5 212.739219)scale(0.1 -0.1)">
       <use xlink:href="#DejaVuSans-37"/>
       <use xlink:href="#DejaVuSans-35" x="63.623047"/>
      </g>
     </g>
    </g>
    <g id="ytick_14">
     <g id="line2d_95">
      <path d="M 407.225 172.24 
L 709.2 172.24 
" clip-path="url(#p9e9d87b8d6)" style="fill: none; stroke-dasharray: 0.8,1.32; stroke-dashoffset: 0; stroke: #000000; stroke-opacity: 0.5; stroke-width: 0.8"/>
     </g>
     <g id="line2d_96">
      <g>
       <use xlink:href="#m7f21470ee7" x="407.225" y="172.24" style="stroke: #000000; stroke-width: 0.8"/>
      </g>
     </g>
     <g id="text_52">
      <!-- 100 -->
      <g transform="translate(381.1375 176.039219)scale(0.1 -0.1)">
       <use xlink:href="#DejaVuSans-31"/>
       <use xlink:href="#DejaVuSans-30" x="63.623047"/>
       <use xlink:href="#DejaVuSans-30" x="127.246094"/>
      </g>
     </g>
    </g>
    <g id="ytick_15">
     <g id="line2d_97">
      <path d="M 407.225 135.54 
L 709.2 135.54 
" clip-path="url(#p9e9d87b8d6)" style="fill: none; stroke-dasharray: 0.8,1.32; stroke-dashoffset: 0; stroke: #000000; stroke-opacity: 0.5; stroke-width: 0.8"/>
     </g>
     <g id="line2d_98">
      <g>
       <use xlink:href="#m7f21470ee7" x="407.225" y="135.54" style="stroke: #000000; stroke-width: 0.8"/>
      </g>
     </g>
     <g id="text_53">
      <!-- 125 -->
      <g transform="translate(381.1375 139.339219)scale(0.1 -0.1)">
       <use xlink:href="#DejaVuSans-31"/>
       <use xlink:href="#DejaVuSans-32" x="63.623047"/>
       <use xlink:href="#DejaVuSans-35" x="127.246094"/>
      </g>
     </g>
    </g>
    <g id="ytick_16">
     <g id="line2d_99">
      <path d="M 407.225 98.84 
L 709.2 98.84 
" clip-path="url(#p9e9d87b8d6)" style="fill: none; stroke-dasharray: 0.8,1.32; stroke-dashoffset: 0; stroke: #000000; stroke-opacity: 0.5; stroke-width: 0.8"/>
     </g>
     <g id="line2d_100">
      <g>
       <use xlink:href="#m7f21470ee7" x="407.225" y="98.84" style="stroke: #000000; stroke-width: 0.8"/>
      </g>
     </g>
     <g id="text_54">
      <!-- 150 -->
      <g transform="translate(381.1375 102.639219)scale(0.1 -0.1)">
       <use xlink:href="#DejaVuSans-31"/>
       <use xlink:href="#DejaVuSans-35" x="63.623047"/>
       <use xlink:href="#DejaVuSans-30" x="127.246094"/>
      </g>
     </g>
    </g>
    <g id="ytick_17">
     <g id="line2d_101">
      <path d="M 407.225 62.14 
L 709.2 62.14 
" clip-path="url(#p9e9d87b8d6)" style="fill: none; stroke-dasharray: 0.8,1.32; stroke-dashoffset: 0; stroke: #000000; stroke-opacity: 0.5; stroke-width: 0.8"/>
     </g>
     <g id="line2d_102">
      <g>
       <use xlink:href="#m7f21470ee7" x="407.225" y="62.14" style="stroke: #000000; stroke-width: 0.8"/>
      </g>
     </g>
     <g id="text_55">
      <!-- 175 -->
      <g transform="translate(381.1375 65.939219)scale(0.1 -0.1)">
       <use xlink:href="#DejaVuSans-31"/>
       <use xlink:href="#DejaVuSans-37" x="63.623047"/>
       <use xlink:href="#DejaVuSans-35" x="127.246094"/>
      </g>
     </g>
    </g>
    <g id="ytick_18">
     <g id="line2d_103">
      <path d="M 407.225 25.44 
L 709.2 25.44 
" clip-path="url(#p9e9d87b8d6)" style="fill: none; stroke-dasharray: 0.8,1.32; stroke-dashoffset: 0; stroke: #000000; stroke-opacity: 0.5; stroke-width: 0.8"/>
     </g>
     <g id="line2d_104">
      <g>
       <use xlink:href="#m7f21470ee7" x="407.225" y="25.44" style="stroke: #000000; stroke-width: 0.8"/>
      </g>
     </g>
     <g id="text_56">
      <!-- 200 -->
      <g transform="translate(381.1375 29.239219)scale(0.1 -0.1)">
       <use xlink:href="#DejaVuSans-32"/>
       <use xlink:href="#DejaVuSans-30" x="63.623047"/>
       <use xlink:href="#DejaVuSans-30" x="127.246094"/>
      </g>
     </g>
    </g>
    <g id="text_57">
     <!-- cumulative doses per hundred population -->
     <g transform="translate(375.057813 276.698594)rotate(-90)scale(0.1 -0.1)">
      <use xlink:href="#DejaVuSans-63"/>
      <use xlink:href="#DejaVuSans-75" x="54.980469"/>
      <use xlink:href="#DejaVuSans-6d" x="118.359375"/>
      <use xlink:href="#DejaVuSans-75" x="215.771484"/>
      <use xlink:href="#DejaVuSans-6c" x="279.150391"/>
      <use xlink:href="#DejaVuSans-61" x="306.933594"/>
      <use xlink:href="#DejaVuSans-74" x="368.212891"/>
      <use xlink:href="#DejaVuSans-69" x="407.421875"/>
      <use xlink:href="#DejaVuSans-76" x="435.205078"/>
      <use xlink:href="#DejaVuSans-65" x="494.384766"/>
      <use xlink:href="#DejaVuSans-20" x="555.908203"/>
      <use xlink:href="#DejaVuSans-64" x="587.695312"/>
      <use xlink:href="#DejaVuSans-6f" x="651.171875"/>
      <use xlink:href="#DejaVuSans-73" x="712.353516"/>
      <use xlink:href="#DejaVuSans-65" x="764.453125"/>
      <use xlink:href="#DejaVuSans-73" x="825.976562"/>
      <use xlink:href="#DejaVuSans-20" x="878.076172"/>
      <use xlink:href="#DejaVuSans-70" x="909.863281"/>
      <use xlink:href="#DejaVuSans-65" x="973.339844"/>
      <use xlink:href="#DejaVuSans-72" x="1034.863281"/>
      <use xlink:href="#DejaVuSans-20" x="1075.976562"/>
      <use xlink:href="#DejaVuSans-68" x="1107.763672"/>
      <use xlink:href="#DejaVuSans-75" x="1171.142578"/>
      <use xlink:href="#DejaVuSans-6e" x="1234.521484"/>
      <use xlink:href="#DejaVuSans-64" x="1297.900391"/>
      <use xlink:href="#DejaVuSans-72" x="1361.376953"/>
      <use xlink:href="#DejaVuSans-65" x="1400.240234"/>
      <use xlink:href="#DejaVuSans-64" x="1461.763672"/>
      <use xlink:href="#DejaVuSans-20" x="1525.240234"/>
      <use xlink:href="#DejaVuSans-70" x="1557.027344"/>
      <use xlink:href="#DejaVuSans-6f" x="1620.503906"/>
      <use xlink:href="#DejaVuSans-70" x="1681.685547"/>
      <use xlink:href="#DejaVuSans-75" x="1745.162109"/>
      <use xlink:href="#DejaVuSans-6c" x="1808.541016"/>
      <use xlink:href="#DejaVuSans-61" x="1836.324219"/>
      <use xlink:href="#DejaVuSans-74" x="1897.603516"/>
      <use xlink:href="#DejaVuSans-69" x="1936.8125"/>
      <use xlink:href="#DejaVuSans-6f" x="1964.595703"/>
      <use xlink:href="#DejaVuSans-6e" x="2025.777344"/>
     </g>
    </g>
   </g>
   <g id="line2d_105">
    <path d="M 357.720902 319.04 
L 368.859324 319.04 
L 368.859324 318.504358 
L 376.284939 318.402267 
L 376.284939 318.348875 
L 377.522541 318.348875 
L 377.522541 313.355913 
L 378.760143 313.355913 
L 378.760143 313.012859 
L 379.997746 313.012859 
L 379.997746 312.886211 
L 382.472951 312.850203 
L 382.472951 312.534024 
L 383.710553 312.534024 
L 383.710553 312.160444 
L 384.948156 312.160444 
L 384.948156 311.792797 
L 386.185758 311.792797 
L 386.185758 311.445086 
L 387.423361 311.445086 
L 387.423361 311.123011 
L 388.660963 311.123011 
L 388.660963 310.999994 
L 389.898566 310.999994 
L 389.898566 310.611961 
L 391.136168 310.611961 
L 391.136168 310.253626 
L 392.37377 310.253626 
L 392.37377 309.880748 
L 393.611373 309.880748 
L 393.611373 309.502656 
L 394.848975 309.502656 
L 394.848975 309.146514 
L 396.086578 309.146514 
L 396.086578 308.825823 
L 398.561783 308.723156 
L 398.561783 308.713718 
L 399.799385 308.713718 
L 399.799385 308.468638 
L 401.036988 308.468638 
L 401.036988 308.167344 
L 402.27459 308.167344 
L 402.27459 307.710585 
L 403.512193 307.710585 
L 403.512193 307.356798 
L 404.749795 307.356798 
L 404.749795 307.044987 
L 408.462602 306.936496 
L 408.462602 306.615464 
L 409.700205 306.615464 
L 409.700205 306.217561 
L 410.937807 306.217561 
L 410.937807 305.824171 
L 412.17541 305.824171 
L 412.17541 305.427401 
L 413.413012 305.427401 
L 413.413012 305.039314 
L 414.650615 305.039314 
L 414.650615 304.907327 
L 417.12582 304.887193 
L 417.12582 304.51009 
L 418.363422 304.51009 
L 418.363422 304.06347 
L 419.601025 304.06347 
L 419.601025 303.593354 
L 420.838627 303.593354 
L 420.838627 303.091688 
L 422.07623 303.091688 
L 422.07623 302.615658 
L 423.313832 302.615658 
L 423.313832 302.388968 
L 425.789037 302.367 
L 425.789037 301.857461 
L 427.026639 301.857461 
L 427.026639 301.302008 
L 428.264242 301.302008 
L 428.264242 300.730844 
L 429.501844 300.730844 
L 429.501844 300.118638 
L 430.739447 300.118638 
L 430.739447 299.54528 
L 431.977049 299.54528 
L 431.977049 299.309997 
L 434.452254 299.278088 
L 434.452254 298.747552 
L 435.689857 298.747552 
L 435.689857 298.136946 
L 436.927459 298.136946 
L 436.927459 297.491266 
L 438.165061 297.491266 
L 438.165061 296.815871 
L 439.402664 296.815871 
L 439.402664 296.173159 
L 440.640266 296.173159 
L 440.640266 295.886102 
L 443.115471 295.850346 
L 443.115471 295.212631 
L 444.353074 295.212631 
L 444.353074 294.533478 
L 445.590676 294.533478 
L 445.590676 293.807604 
L 446.828279 293.807604 
L 446.828279 293.057569 
L 448.065881 293.057569 
L 448.065881 292.410865 
L 449.303484 292.410865 
L 449.303484 292.109355 
L 451.778689 292.060188 
L 451.778689 291.408055 
L 453.016291 291.408055 
L 453.016291 290.698252 
L 454.253893 290.698252 
L 454.253893 290.016619 
L 455.491496 290.016619 
L 455.491496 289.274098 
L 456.729098 289.274098 
L 456.729098 288.621012 
L 457.966701 288.621012 
L 457.966701 288.387347 
L 460.441906 288.365685 
L 460.441906 288.113594 
L 461.679508 288.113594 
L 461.679508 287.386713 
L 462.917111 287.386713 
L 462.917111 286.677395 
L 464.154713 286.677395 
L 464.154713 285.926119 
L 465.392316 285.926119 
L 465.392316 285.252055 
L 466.629918 285.252055 
L 466.629918 284.941466 
L 469.105123 284.899239 
L 469.105123 284.229866 
L 470.342725 284.229866 
L 470.342725 283.523568 
L 471.580328 283.523568 
L 471.580328 282.809397 
L 472.81793 282.809397 
L 472.81793 282.036279 
L 474.055533 282.036279 
L 474.055533 281.391265 
L 475.293135 281.391265 
L 475.293135 281.027267 
L 476.530738 281.027267 
L 476.530738 280.799822 
L 477.76834 280.799822 
L 477.76834 280.114989 
L 479.005943 280.114989 
L 479.005943 279.287869 
L 480.243545 279.287869 
L 480.243545 278.41665 
L 481.481148 278.41665 
L 481.481148 277.392502 
L 482.71875 277.392502 
L 482.71875 276.596086 
L 483.956352 276.596086 
L 483.956352 276.014261 
L 485.193955 276.014261 
L 485.193955 275.748453 
L 486.431557 275.748453 
L 486.431557 274.910385 
L 487.66916 274.910385 
L 487.66916 273.926828 
L 488.906762 273.926828 
L 488.906762 273.053705 
L 490.144365 273.053705 
L 490.144365 272.117464 
L 491.381967 272.117464 
L 491.381967 271.240618 
L 492.61957 271.240618 
L 492.61957 270.64576 
L 493.857172 270.64576 
L 493.857172 270.320844 
L 495.094775 270.320844 
L 495.094775 269.340524 
L 496.332377 269.340524 
L 496.332377 268.12573 
L 497.56998 268.12573 
L 497.56998 267.055866 
L 498.807582 267.055866 
L 498.807582 265.896566 
L 500.045184 265.896566 
L 500.045184 264.81748 
L 501.282787 264.81748 
L 501.282787 264.137501 
L 502.520389 264.137501 
L 502.520389 263.816163 
L 503.757992 263.816163 
L 503.757992 262.719369 
L 504.995594 262.719369 
L 504.995594 261.571144 
L 506.233197 261.571144 
L 506.233197 260.149147 
L 507.470799 260.149147 
L 507.470799 258.856602 
L 508.708402 258.856602 
L 508.708402 257.584174 
L 509.946004 257.584174 
L 509.946004 256.714681 
L 511.183607 256.714681 
L 511.183607 256.279746 
L 512.421209 256.279746 
L 512.421209 255.219662 
L 513.658811 255.219662 
L 513.658811 253.815822 
L 514.896414 253.815822 
L 514.896414 251.641578 
L 516.134016 251.641578 
L 516.134016 250.226089 
L 517.371619 250.226089 
L 517.371619 248.613752 
L 518.609221 248.613752 
L 518.609221 247.702283 
L 519.846824 247.702283 
L 519.846824 247.22174 
L 521.084426 247.22174 
L 521.084426 245.82297 
L 522.322029 245.82297 
L 522.322029 244.109656 
L 523.559631 244.109656 
L 523.559631 242.531673 
L 524.797234 242.531673 
L 524.797234 240.747116 
L 526.034836 240.747116 
L 526.034836 239.073531 
L 527.272439 239.073531 
L 527.272439 237.825588 
L 528.510041 237.825588 
L 528.510041 237.350114 
L 529.747643 237.350114 
L 529.747643 235.73864 
L 530.985246 235.73864 
L 530.985246 233.553539 
L 532.222848 233.553539 
L 532.222848 231.609436 
L 533.460451 231.609436 
L 533.460451 229.627313 
L 534.698053 229.627313 
L 534.698053 227.573065 
L 535.935656 227.573065 
L 535.935656 226.417523 
L 537.173258 226.417523 
L 537.173258 225.569262 
L 538.410861 225.569262 
L 538.410861 223.636395 
L 539.648463 223.636395 
L 539.648463 221.630344 
L 540.886066 221.630344 
L 540.886066 219.252745 
L 542.123668 219.252745 
L 542.123668 217.060111 
L 543.36127 217.060111 
L 543.36127 214.736587 
L 544.598873 214.736587 
L 544.598873 213.293017 
L 545.836475 213.293017 
L 545.836475 212.221823 
L 547.074078 212.221823 
L 547.074078 209.944625 
L 548.31168 209.944625 
L 548.31168 207.596131 
L 549.549283 207.596131 
L 549.549283 205.041009 
L 550.786885 205.041009 
L 550.786885 202.538524 
L 552.024488 202.538524 
L 552.024488 200.048425 
L 553.26209 200.048425 
L 553.26209 198.788077 
L 554.499693 198.788077 
L 554.499693 197.511676 
L 555.737295 197.511676 
L 555.737295 194.836414 
L 556.974898 194.836414 
L 556.974898 192.631699 
L 558.2125 192.631699 
L 558.2125 190.129502 
L 559.450102 190.129502 
L 559.450102 188.074212 
L 560.687705 188.074212 
L 560.687705 185.762714 
L 561.925307 185.762714 
L 561.925307 184.075503 
L 563.16291 184.075503 
L 563.16291 183.213003 
L 564.400512 183.213003 
L 564.400512 181.439125 
L 565.638115 181.439125 
L 565.638115 179.480641 
L 566.875717 179.480641 
L 566.875717 177.431068 
L 568.11332 177.431068 
L 568.11332 175.26788 
L 569.350922 175.26788 
L 569.350922 173.108666 
L 570.588525 173.108666 
L 570.588525 171.921052 
L 571.826127 171.921052 
L 571.826127 171.217326 
L 573.06373 171.217326 
L 573.06373 168.561119 
L 574.301332 168.561119 
L 574.301332 166.516616 
L 575.538934 166.516616 
L 575.538934 164.371747 
L 576.776537 164.371747 
L 576.776537 162.404616 
L 578.014139 162.404616 
L 578.014139 159.865817 
L 579.251742 159.865817 
L 579.251742 158.379085 
L 580.489344 158.379085 
L 580.489344 157.534167 
L 581.726947 157.534167 
L 581.726947 155.246327 
L 582.964549 155.246327 
L 582.964549 152.870454 
L 584.202152 152.870454 
L 584.202152 150.591153 
L 585.439754 150.591153 
L 585.439754 148.288536 
L 586.677357 148.288536 
L 586.677357 145.770482 
L 587.914959 145.770482 
L 587.914959 144.218206 
L 589.152561 144.218206 
L 589.152561 143.462957 
L 590.390164 143.462957 
L 590.390164 141.16363 
L 591.627766 141.16363 
L 591.627766 138.811109 
L 592.865369 138.811109 
L 592.865369 136.749419 
L 594.102971 136.749419 
L 594.102971 134.539869 
L 595.340574 134.539869 
L 595.340574 132.285933 
L 596.578176 132.285933 
L 596.578176 131.110491 
L 597.815779 131.110491 
L 597.815779 130.554696 
L 599.053381 130.554696 
L 599.053381 130.118737 
L 600.290984 130.118737 
L 600.290984 127.585996 
L 601.528586 127.585996 
L 601.528586 125.406414 
L 602.766189 125.406414 
L 602.766189 123.305732 
L 604.003791 123.305732 
L 604.003791 121.108694 
L 605.241393 121.108694 
L 605.241393 119.726875 
L 606.478996 119.726875 
L 606.478996 118.942504 
L 607.716598 118.942504 
L 607.716598 116.789617 
L 608.954201 116.789617 
L 608.954201 114.535861 
L 610.191803 114.535861 
L 610.191803 112.491088 
L 611.429406 112.491088 
L 611.429406 110.654056 
L 612.667008 110.654056 
L 612.667008 108.92255 
L 613.904611 108.92255 
L 613.904611 108.021274 
L 615.142213 108.021274 
L 615.142213 107.287777 
L 616.379816 107.287777 
L 616.379816 105.827975 
L 617.617418 105.827975 
L 617.617418 104.490649 
L 618.85502 104.490649 
L 618.85502 103.238733 
L 620.092623 103.238733 
L 620.092623 102.004164 
L 621.330225 102.004164 
L 621.330225 100.80945 
L 622.567828 100.80945 
L 622.567828 100.106694 
L 623.80543 100.106694 
L 623.80543 99.807125 
L 625.043033 99.807125 
L 625.043033 98.965389 
L 626.280635 98.965389 
L 626.280635 98.118925 
L 627.518238 98.118925 
L 627.518238 97.276956 
L 628.75584 97.276956 
L 628.75584 96.434501 
L 629.993443 96.434501 
L 629.993443 95.624009 
L 631.231045 95.624009 
L 631.231045 95.180768 
L 632.468648 95.180768 
L 632.468648 94.983147 
L 633.70625 94.983147 
L 633.70625 94.240878 
L 634.943852 94.240878 
L 634.943852 93.58657 
L 636.181455 93.58657 
L 636.181455 92.996224 
L 637.419057 92.996224 
L 637.419057 92.476168 
L 638.65666 92.476168 
L 638.65666 91.926324 
L 639.894262 91.926324 
L 639.894262 91.685954 
L 642.369467 91.600168 
L 642.369467 91.184162 
L 643.60707 91.184162 
L 643.60707 90.799024 
L 644.844672 90.799024 
L 644.844672 90.438963 
L 646.082275 90.438963 
L 646.082275 90.071585 
L 647.319877 90.071585 
L 647.319877 89.725043 
L 648.55748 89.725043 
L 648.55748 89.572976 
L 651.032684 89.510901 
L 651.032684 89.263017 
L 652.270287 89.263017 
L 652.270287 89.021694 
L 653.507889 89.021694 
L 653.507889 88.776362 
L 654.745492 88.776362 
L 654.745492 88.561465 
L 655.983094 88.561465 
L 655.983094 88.360662 
L 658.458299 88.271461 
L 658.458299 88.24854 
L 659.695902 88.24854 
L 659.695902 88.041014 
L 660.933504 88.041014 
L 660.933504 87.866727 
L 662.171107 87.866727 
L 662.171107 87.695856 
L 663.408709 87.695856 
L 663.408709 87.569226 
L 664.646311 87.569226 
L 664.646311 87.408817 
L 668.359119 87.320586 
L 668.359119 87.179233 
L 669.596721 87.179233 
L 669.596721 87.037233 
L 672.071926 86.930396 
L 672.071926 86.823865 
L 673.309529 86.823865 
L 673.309529 86.691806 
L 677.022336 86.620203 
L 677.022336 86.516908 
L 679.497541 86.414007 
L 679.497541 86.310999 
L 681.972746 86.212665 
L 681.972746 86.115068 
L 685.685553 86.065596 
L 685.685553 85.977562 
L 686.923156 85.977562 
L 686.923156 85.977562 
" clip-path="url(#p9e9d87b8d6)" style="fill: none; stroke: #1f77b4; stroke-width: 1.5; stroke-linecap: square"/>
   </g>
   <g id="line2d_106">
    <path d="M 686.923156 85.830762 
L 686.923156 85.683962 
L 688.160758 85.683962 
L 688.160758 85.537162 
L 689.398361 85.537162 
L 689.398361 85.390362 
L 690.635963 85.390362 
L 690.635963 85.243562 
L 691.873566 85.243562 
L 691.873566 85.096762 
L 693.111168 85.096762 
L 693.111168 84.949962 
L 694.34877 84.949962 
L 694.34877 84.803162 
L 695.586373 84.803162 
L 695.586373 84.656362 
L 696.823975 84.656362 
L 696.823975 84.509562 
L 698.061578 84.509562 
L 698.061578 84.362762 
L 699.29918 84.362762 
L 699.29918 84.215962 
L 721 84.215962 
L 721 84.215962 
" clip-path="url(#p9e9d87b8d6)" style="fill: none; stroke: #ff7f0e; stroke-width: 1.5; stroke-linecap: square"/>
   </g>
   <g id="patch_9">
    <path d="M 407.225 319.04 
L 407.225 25.44 
" style="fill: none; stroke: #000000; stroke-width: 0.8; stroke-linejoin: miter; stroke-linecap: square"/>
   </g>
   <g id="patch_10">
    <path d="M 709.2 319.04 
L 709.2 25.44 
" style="fill: none; stroke: #000000; stroke-width: 0.8; stroke-linejoin: miter; stroke-linecap: square"/>
   </g>
   <g id="patch_11">
    <path d="M 407.225 319.04 
L 709.2 319.04 
" style="fill: none; stroke: #000000; stroke-width: 0.8; stroke-linejoin: miter; stroke-linecap: square"/>
   </g>
   <g id="patch_12">
    <path d="M 407.225 25.44 
L 709.2 25.44 
" style="fill: none; stroke: #000000; stroke-width: 0.8; stroke-linejoin: miter; stroke-linecap: square"/>
   </g>
   <g id="text_58">
    <!-- NSW cumulative vaccinations per capita -->
    <g transform="translate(436.960938 19.44)scale(0.12 -0.12)">
     <use xlink:href="#DejaVuSans-4e"/>
     <use xlink:href="#DejaVuSans-53" x="74.804688"/>
     <use xlink:href="#DejaVuSans-57" x="138.28125"/>
     <use xlink:href="#DejaVuSans-20" x="237.158203"/>
     <use xlink:href="#DejaVuSans-63" x="268.945312"/>
     <use xlink:href="#DejaVuSans-75" x="323.925781"/>
     <use xlink:href="#DejaVuSans-6d" x="387.304688"/>
     <use xlink:href="#DejaVuSans-75" x="484.716797"/>
     <use xlink:href="#DejaVuSans-6c" x="548.095703"/>
     <use xlink:href="#DejaVuSans-61" x="575.878906"/>
     <use xlink:href="#DejaVuSans-74" x="637.158203"/>
     <use xlink:href="#DejaVuSans-69" x="676.367188"/>
     <use xlink:href="#DejaVuSans-76" x="704.150391"/>
     <use xlink:href="#DejaVuSans-65" x="763.330078"/>
     <use xlink:href="#DejaVuSans-20" x="824.853516"/>
     <use xlink:href="#DejaVuSans-76" x="856.640625"/>
     <use xlink:href="#DejaVuSans-61" x="915.820312"/>
     <use xlink:href="#DejaVuSans-63" x="977.099609"/>
     <use xlink:href="#DejaVuSans-63" x="1032.080078"/>
     <use xlink:href="#DejaVuSans-69" x="1087.060547"/>
     <use xlink:href="#DejaVuSans-6e" x="1114.84375"/>
     <use xlink:href="#DejaVuSans-61" x="1178.222656"/>
     <use xlink:href="#DejaVuSans-74" x="1239.501953"/>
     <use xlink:href="#DejaVuSans-69" x="1278.710938"/>
     <use xlink:href="#DejaVuSans-6f" x="1306.494141"/>
     <use xlink:href="#DejaVuSans-6e" x="1367.675781"/>
     <use xlink:href="#DejaVuSans-73" x="1431.054688"/>
     <use xlink:href="#DejaVuSans-20" x="1483.154297"/>
     <use xlink:href="#DejaVuSans-70" x="1514.941406"/>
     <use xlink:href="#DejaVuSans-65" x="1578.417969"/>
     <use xlink:href="#DejaVuSans-72" x="1639.941406"/>
     <use xlink:href="#DejaVuSans-20" x="1681.054688"/>
     <use xlink:href="#DejaVuSans-63" x="1712.841797"/>
     <use xlink:href="#DejaVuSans-61" x="1767.822266"/>
     <use xlink:href="#DejaVuSans-70" x="1829.101562"/>
     <use xlink:href="#DejaVuSans-69" x="1892.578125"/>
     <use xlink:href="#DejaVuSans-74" x="1920.361328"/>
     <use xlink:href="#DejaVuSans-61" x="1959.570312"/>
    </g>
   </g>
   <g id="legend_2">
    <g id="patch_13">
     <path d="M 554.317187 62.79625 
L 702.2 62.79625 
Q 704.2 62.79625 704.2 60.79625 
L 704.2 32.44 
Q 704.2 30.44 702.2 30.44 
L 554.317187 30.44 
Q 552.317187 30.44 552.317187 32.44 
L 552.317187 60.79625 
Q 552.317187 62.79625 554.317187 62.79625 
z
" style="fill: #ffffff; opacity: 0.8; stroke: #cccccc; stroke-linejoin: miter"/>
    </g>
    <g id="line2d_107">
     <path d="M 556.317187 38.538437 
L 556.317187 38.538437 
L 566.317187 38.538437 
L 566.317187 38.538437 
L 576.317187 38.538437 
" style="fill: none; stroke: #1f77b4; stroke-width: 1.5; stroke-linecap: square"/>
    </g>
    <g id="text_59">
     <!-- Actual -->
     <g transform="translate(584.317187 42.038437)scale(0.1 -0.1)">
      <use xlink:href="#DejaVuSans-41"/>
      <use xlink:href="#DejaVuSans-63" x="66.658203"/>
      <use xlink:href="#DejaVuSans-74" x="121.638672"/>
      <use xlink:href="#DejaVuSans-75" x="160.847656"/>
      <use xlink:href="#DejaVuSans-61" x="224.226562"/>
      <use xlink:href="#DejaVuSans-6c" x="285.505859"/>
     </g>
    </g>
    <g id="line2d_108">
     <path d="M 556.317187 53.216563 
L 556.317187 53.216563 
L 566.317187 53.216563 
L 566.317187 53.216563 
L 576.317187 53.216563 
" style="fill: none; stroke: #ff7f0e; stroke-width: 1.5; stroke-linecap: square"/>
    </g>
    <g id="text_60">
     <!-- Assumed for projection -->
     <g transform="translate(584.317187 56.716563)scale(0.1 -0.1)">
      <use xlink:href="#DejaVuSans-41"/>
      <use xlink:href="#DejaVuSans-73" x="68.408203"/>
      <use xlink:href="#DejaVuSans-73" x="120.507812"/>
      <use xlink:href="#DejaVuSans-75" x="172.607422"/>
      <use xlink:href="#DejaVuSans-6d" x="235.986328"/>
      <use xlink:href="#DejaVuSans-65" x="333.398438"/>
      <use xlink:href="#DejaVuSans-64" x="394.921875"/>
      <use xlink:href="#DejaVuSans-20" x="458.398438"/>
      <use xlink:href="#DejaVuSans-66" x="490.185547"/>
      <use xlink:href="#DejaVuSans-6f" x="525.390625"/>
      <use xlink:href="#DejaVuSans-72" x="586.572266"/>
      <use xlink:href="#DejaVuSans-20" x="627.685547"/>
      <use xlink:href="#DejaVuSans-70" x="659.472656"/>
      <use xlink:href="#DejaVuSans-72" x="722.949219"/>
      <use xlink:href="#DejaVuSans-6f" x="761.8125"/>
      <use xlink:href="#DejaVuSans-6a" x="822.994141"/>
      <use xlink:href="#DejaVuSans-65" x="850.777344"/>
      <use xlink:href="#DejaVuSans-63" x="912.300781"/>
      <use xlink:href="#DejaVuSans-74" x="967.28125"/>
      <use xlink:href="#DejaVuSans-69" x="1006.490234"/>
      <use xlink:href="#DejaVuSans-6f" x="1034.273438"/>
      <use xlink:href="#DejaVuSans-6e" x="1095.455078"/>
     </g>
    </g>
   </g>
  </g>
 </g>
 <defs>
  <clipPath id="pca966ead96">
   <rect x="54.2" y="25.44" width="301.975" height="293.6"/>
  </clipPath>
  <clipPath id="p9e9d87b8d6">
   <rect x="407.225" y="25.44" width="301.975" height="293.6"/>
  </clipPath>
 </defs>
</svg>
