<?xml version="1.0" encoding="utf-8" standalone="no"?>
<!DOCTYPE svg PUBLIC "-//W3C//DTD SVG 1.1//EN"
  "http://www.w3.org/Graphics/SVG/1.1/DTD/svg11.dtd">
<svg height="360pt" version="1.1" viewBox="0 0 720 360" width="720pt" xmlns="http://www.w3.org/2000/svg" xmlns:xlink="http://www.w3.org/1999/xlink">
 <metadata>
  <rdf:RDF xmlns:cc="http://creativecommons.org/ns#" xmlns:dc="http://purl.org/dc/elements/1.1/" xmlns:rdf="http://www.w3.org/1999/02/22-rdf-syntax-ns#">
   <cc:Work>
    <dc:type rdf:resource="http://purl.org/dc/dcmitype/StillImage"/>
    <dc:date>2021-09-11T11:09:21.393335</dc:date>
    <dc:format>image/svg+xml</dc:format>
    <dc:creator>
     <cc:Agent>
      <dc:title>Matplotlib v3.4.3, https://matplotlib.org/</dc:title>
     </cc:Agent>
    </dc:creator>
   </cc:Work>
  </rdf:RDF>
 </metadata>
 <defs>
  <style type="text/css">*{stroke-linecap:butt;stroke-linejoin:round;}</style>
 </defs>
 <g id="figure_1">
  <g id="patch_1">
   <path d="M 0 360 
L 720 360 
L 720 0 
L 0 0 
z
" style="fill:#ffffff;"/>
  </g>
  <g id="axes_1">
   <g id="patch_2">
    <path d="M 54.2 319.04 
L 356.175 319.04 
L 356.175 25.44 
L 54.2 25.44 
z
" style="fill:#ffffff;"/>
   </g>
   <g id="matplotlib.axis_1">
    <g id="xtick_1">
     <g id="line2d_1">
      <path clip-path="url(#pcd7bdabf12)" d="M 54.2 319.04 
L 54.2 25.44 
" style="fill:none;stroke:#000000;stroke-dasharray:0.8,1.32;stroke-dashoffset:0;stroke-opacity:0.5;stroke-width:0.8;"/>
     </g>
     <g id="line2d_2">
      <defs>
       <path d="M 0 0 
L 0 3.5 
" id="meb8bf231fb" style="stroke:#000000;stroke-width:0.8;"/>
      </defs>
      <g>
       <use style="stroke:#000000;stroke-width:0.8;" x="54.2" xlink:href="#meb8bf231fb" y="319.04"/>
      </g>
     </g>
     <g id="text_1">
      <!-- May -->
      <g transform="translate(43.8625 333.638438)scale(0.1 -0.1)">
       <defs>
        <path d="M 628 4666 
L 1569 4666 
L 2759 1491 
L 3956 4666 
L 4897 4666 
L 4897 0 
L 4281 0 
L 4281 4097 
L 3078 897 
L 2444 897 
L 1241 4097 
L 1241 0 
L 628 0 
L 628 4666 
z
" id="DejaVuSans-4d" transform="scale(0.015625)"/>
        <path d="M 2194 1759 
Q 1497 1759 1228 1600 
Q 959 1441 959 1056 
Q 959 750 1161 570 
Q 1363 391 1709 391 
Q 2188 391 2477 730 
Q 2766 1069 2766 1631 
L 2766 1759 
L 2194 1759 
z
M 3341 1997 
L 3341 0 
L 2766 0 
L 2766 531 
Q 2569 213 2275 61 
Q 1981 -91 1556 -91 
Q 1019 -91 701 211 
Q 384 513 384 1019 
Q 384 1609 779 1909 
Q 1175 2209 1959 2209 
L 2766 2209 
L 2766 2266 
Q 2766 2663 2505 2880 
Q 2244 3097 1772 3097 
Q 1472 3097 1187 3025 
Q 903 2953 641 2809 
L 641 3341 
Q 956 3463 1253 3523 
Q 1550 3584 1831 3584 
Q 2591 3584 2966 3190 
Q 3341 2797 3341 1997 
z
" id="DejaVuSans-61" transform="scale(0.015625)"/>
        <path d="M 2059 -325 
Q 1816 -950 1584 -1140 
Q 1353 -1331 966 -1331 
L 506 -1331 
L 506 -850 
L 844 -850 
Q 1081 -850 1212 -737 
Q 1344 -625 1503 -206 
L 1606 56 
L 191 3500 
L 800 3500 
L 1894 763 
L 2988 3500 
L 3597 3500 
L 2059 -325 
z
" id="DejaVuSans-79" transform="scale(0.015625)"/>
       </defs>
       <use xlink:href="#DejaVuSans-4d"/>
       <use x="86.279297" xlink:href="#DejaVuSans-61"/>
       <use x="147.558594" xlink:href="#DejaVuSans-79"/>
      </g>
     </g>
    </g>
    <g id="xtick_2">
     <g id="line2d_3">
      <path clip-path="url(#pcd7bdabf12)" d="M 71.526434 319.04 
L 71.526434 25.44 
" style="fill:none;stroke:#000000;stroke-dasharray:0.8,1.32;stroke-dashoffset:0;stroke-opacity:0.5;stroke-width:0.8;"/>
     </g>
     <g id="line2d_4">
      <g>
       <use style="stroke:#000000;stroke-width:0.8;" x="71.526434" xlink:href="#meb8bf231fb" y="319.04"/>
      </g>
     </g>
     <g id="text_2">
      <!-- 15 -->
      <g transform="translate(65.163934 333.638438)scale(0.1 -0.1)">
       <defs>
        <path d="M 794 531 
L 1825 531 
L 1825 4091 
L 703 3866 
L 703 4441 
L 1819 4666 
L 2450 4666 
L 2450 531 
L 3481 531 
L 3481 0 
L 794 0 
L 794 531 
z
" id="DejaVuSans-31" transform="scale(0.015625)"/>
        <path d="M 691 4666 
L 3169 4666 
L 3169 4134 
L 1269 4134 
L 1269 2991 
Q 1406 3038 1543 3061 
Q 1681 3084 1819 3084 
Q 2600 3084 3056 2656 
Q 3513 2228 3513 1497 
Q 3513 744 3044 326 
Q 2575 -91 1722 -91 
Q 1428 -91 1123 -41 
Q 819 9 494 109 
L 494 744 
Q 775 591 1075 516 
Q 1375 441 1709 441 
Q 2250 441 2565 725 
Q 2881 1009 2881 1497 
Q 2881 1984 2565 2268 
Q 2250 2553 1709 2553 
Q 1456 2553 1204 2497 
Q 953 2441 691 2322 
L 691 4666 
z
" id="DejaVuSans-35" transform="scale(0.015625)"/>
       </defs>
       <use xlink:href="#DejaVuSans-31"/>
       <use x="63.623047" xlink:href="#DejaVuSans-35"/>
      </g>
     </g>
    </g>
    <g id="xtick_3">
     <g id="line2d_5">
      <path clip-path="url(#pcd7bdabf12)" d="M 92.565676 319.04 
L 92.565676 25.44 
" style="fill:none;stroke:#000000;stroke-dasharray:0.8,1.32;stroke-dashoffset:0;stroke-opacity:0.5;stroke-width:0.8;"/>
     </g>
     <g id="line2d_6">
      <g>
       <use style="stroke:#000000;stroke-width:0.8;" x="92.565676" xlink:href="#meb8bf231fb" y="319.04"/>
      </g>
     </g>
     <g id="text_3">
      <!-- Jun -->
      <g transform="translate(84.753176 333.638438)scale(0.1 -0.1)">
       <defs>
        <path d="M 628 4666 
L 1259 4666 
L 1259 325 
Q 1259 -519 939 -900 
Q 619 -1281 -91 -1281 
L -331 -1281 
L -331 -750 
L -134 -750 
Q 284 -750 456 -515 
Q 628 -281 628 325 
L 628 4666 
z
" id="DejaVuSans-4a" transform="scale(0.015625)"/>
        <path d="M 544 1381 
L 544 3500 
L 1119 3500 
L 1119 1403 
Q 1119 906 1312 657 
Q 1506 409 1894 409 
Q 2359 409 2629 706 
Q 2900 1003 2900 1516 
L 2900 3500 
L 3475 3500 
L 3475 0 
L 2900 0 
L 2900 538 
Q 2691 219 2414 64 
Q 2138 -91 1772 -91 
Q 1169 -91 856 284 
Q 544 659 544 1381 
z
M 1991 3584 
L 1991 3584 
z
" id="DejaVuSans-75" transform="scale(0.015625)"/>
        <path d="M 3513 2113 
L 3513 0 
L 2938 0 
L 2938 2094 
Q 2938 2591 2744 2837 
Q 2550 3084 2163 3084 
Q 1697 3084 1428 2787 
Q 1159 2491 1159 1978 
L 1159 0 
L 581 0 
L 581 3500 
L 1159 3500 
L 1159 2956 
Q 1366 3272 1645 3428 
Q 1925 3584 2291 3584 
Q 2894 3584 3203 3211 
Q 3513 2838 3513 2113 
z
" id="DejaVuSans-6e" transform="scale(0.015625)"/>
       </defs>
       <use xlink:href="#DejaVuSans-4a"/>
       <use x="29.492188" xlink:href="#DejaVuSans-75"/>
       <use x="92.871094" xlink:href="#DejaVuSans-6e"/>
      </g>
     </g>
    </g>
    <g id="xtick_4">
     <g id="line2d_7">
      <path clip-path="url(#pcd7bdabf12)" d="M 109.892111 319.04 
L 109.892111 25.44 
" style="fill:none;stroke:#000000;stroke-dasharray:0.8,1.32;stroke-dashoffset:0;stroke-opacity:0.5;stroke-width:0.8;"/>
     </g>
     <g id="line2d_8">
      <g>
       <use style="stroke:#000000;stroke-width:0.8;" x="109.892111" xlink:href="#meb8bf231fb" y="319.04"/>
      </g>
     </g>
     <g id="text_4">
      <!-- 15 -->
      <g transform="translate(103.529611 333.638438)scale(0.1 -0.1)">
       <use xlink:href="#DejaVuSans-31"/>
       <use x="63.623047" xlink:href="#DejaVuSans-35"/>
      </g>
     </g>
    </g>
    <g id="xtick_5">
     <g id="line2d_9">
      <path clip-path="url(#pcd7bdabf12)" d="M 129.69375 319.04 
L 129.69375 25.44 
" style="fill:none;stroke:#000000;stroke-dasharray:0.8,1.32;stroke-dashoffset:0;stroke-opacity:0.5;stroke-width:0.8;"/>
     </g>
     <g id="line2d_10">
      <g>
       <use style="stroke:#000000;stroke-width:0.8;" x="129.69375" xlink:href="#meb8bf231fb" y="319.04"/>
      </g>
     </g>
     <g id="text_5">
      <!-- Jul -->
      <g transform="translate(123.660937 333.638438)scale(0.1 -0.1)">
       <defs>
        <path d="M 603 4863 
L 1178 4863 
L 1178 0 
L 603 0 
L 603 4863 
z
" id="DejaVuSans-6c" transform="scale(0.015625)"/>
       </defs>
       <use xlink:href="#DejaVuSans-4a"/>
       <use x="29.492188" xlink:href="#DejaVuSans-75"/>
       <use x="92.871094" xlink:href="#DejaVuSans-6c"/>
      </g>
     </g>
    </g>
    <g id="xtick_6">
     <g id="line2d_11">
      <path clip-path="url(#pcd7bdabf12)" d="M 147.020184 319.04 
L 147.020184 25.44 
" style="fill:none;stroke:#000000;stroke-dasharray:0.8,1.32;stroke-dashoffset:0;stroke-opacity:0.5;stroke-width:0.8;"/>
     </g>
     <g id="line2d_12">
      <g>
       <use style="stroke:#000000;stroke-width:0.8;" x="147.020184" xlink:href="#meb8bf231fb" y="319.04"/>
      </g>
     </g>
     <g id="text_6">
      <!-- 15 -->
      <g transform="translate(140.657684 333.638438)scale(0.1 -0.1)">
       <use xlink:href="#DejaVuSans-31"/>
       <use x="63.623047" xlink:href="#DejaVuSans-35"/>
      </g>
     </g>
    </g>
    <g id="xtick_7">
     <g id="line2d_13">
      <path clip-path="url(#pcd7bdabf12)" d="M 168.059426 319.04 
L 168.059426 25.44 
" style="fill:none;stroke:#000000;stroke-dasharray:0.8,1.32;stroke-dashoffset:0;stroke-opacity:0.5;stroke-width:0.8;"/>
     </g>
     <g id="line2d_14">
      <g>
       <use style="stroke:#000000;stroke-width:0.8;" x="168.059426" xlink:href="#meb8bf231fb" y="319.04"/>
      </g>
     </g>
     <g id="text_7">
      <!-- Aug -->
      <g transform="translate(158.296145 333.638438)scale(0.1 -0.1)">
       <defs>
        <path d="M 2188 4044 
L 1331 1722 
L 3047 1722 
L 2188 4044 
z
M 1831 4666 
L 2547 4666 
L 4325 0 
L 3669 0 
L 3244 1197 
L 1141 1197 
L 716 0 
L 50 0 
L 1831 4666 
z
" id="DejaVuSans-41" transform="scale(0.015625)"/>
        <path d="M 2906 1791 
Q 2906 2416 2648 2759 
Q 2391 3103 1925 3103 
Q 1463 3103 1205 2759 
Q 947 2416 947 1791 
Q 947 1169 1205 825 
Q 1463 481 1925 481 
Q 2391 481 2648 825 
Q 2906 1169 2906 1791 
z
M 3481 434 
Q 3481 -459 3084 -895 
Q 2688 -1331 1869 -1331 
Q 1566 -1331 1297 -1286 
Q 1028 -1241 775 -1147 
L 775 -588 
Q 1028 -725 1275 -790 
Q 1522 -856 1778 -856 
Q 2344 -856 2625 -561 
Q 2906 -266 2906 331 
L 2906 616 
Q 2728 306 2450 153 
Q 2172 0 1784 0 
Q 1141 0 747 490 
Q 353 981 353 1791 
Q 353 2603 747 3093 
Q 1141 3584 1784 3584 
Q 2172 3584 2450 3431 
Q 2728 3278 2906 2969 
L 2906 3500 
L 3481 3500 
L 3481 434 
z
" id="DejaVuSans-67" transform="scale(0.015625)"/>
       </defs>
       <use xlink:href="#DejaVuSans-41"/>
       <use x="68.408203" xlink:href="#DejaVuSans-75"/>
       <use x="131.787109" xlink:href="#DejaVuSans-67"/>
      </g>
     </g>
    </g>
    <g id="xtick_8">
     <g id="line2d_15">
      <path clip-path="url(#pcd7bdabf12)" d="M 185.385861 319.04 
L 185.385861 25.44 
" style="fill:none;stroke:#000000;stroke-dasharray:0.8,1.32;stroke-dashoffset:0;stroke-opacity:0.5;stroke-width:0.8;"/>
     </g>
     <g id="line2d_16">
      <g>
       <use style="stroke:#000000;stroke-width:0.8;" x="185.385861" xlink:href="#meb8bf231fb" y="319.04"/>
      </g>
     </g>
     <g id="text_8">
      <!-- 15 -->
      <g transform="translate(179.023361 333.638438)scale(0.1 -0.1)">
       <use xlink:href="#DejaVuSans-31"/>
       <use x="63.623047" xlink:href="#DejaVuSans-35"/>
      </g>
     </g>
    </g>
    <g id="xtick_9">
     <g id="line2d_17">
      <path clip-path="url(#pcd7bdabf12)" d="M 206.425102 319.04 
L 206.425102 25.44 
" style="fill:none;stroke:#000000;stroke-dasharray:0.8,1.32;stroke-dashoffset:0;stroke-opacity:0.5;stroke-width:0.8;"/>
     </g>
     <g id="line2d_18">
      <g>
       <use style="stroke:#000000;stroke-width:0.8;" x="206.425102" xlink:href="#meb8bf231fb" y="319.04"/>
      </g>
     </g>
     <g id="text_9">
      <!-- Sep -->
      <g transform="translate(197.000102 333.638438)scale(0.1 -0.1)">
       <defs>
        <path d="M 3425 4513 
L 3425 3897 
Q 3066 4069 2747 4153 
Q 2428 4238 2131 4238 
Q 1616 4238 1336 4038 
Q 1056 3838 1056 3469 
Q 1056 3159 1242 3001 
Q 1428 2844 1947 2747 
L 2328 2669 
Q 3034 2534 3370 2195 
Q 3706 1856 3706 1288 
Q 3706 609 3251 259 
Q 2797 -91 1919 -91 
Q 1588 -91 1214 -16 
Q 841 59 441 206 
L 441 856 
Q 825 641 1194 531 
Q 1563 422 1919 422 
Q 2459 422 2753 634 
Q 3047 847 3047 1241 
Q 3047 1584 2836 1778 
Q 2625 1972 2144 2069 
L 1759 2144 
Q 1053 2284 737 2584 
Q 422 2884 422 3419 
Q 422 4038 858 4394 
Q 1294 4750 2059 4750 
Q 2388 4750 2728 4690 
Q 3069 4631 3425 4513 
z
" id="DejaVuSans-53" transform="scale(0.015625)"/>
        <path d="M 3597 1894 
L 3597 1613 
L 953 1613 
Q 991 1019 1311 708 
Q 1631 397 2203 397 
Q 2534 397 2845 478 
Q 3156 559 3463 722 
L 3463 178 
Q 3153 47 2828 -22 
Q 2503 -91 2169 -91 
Q 1331 -91 842 396 
Q 353 884 353 1716 
Q 353 2575 817 3079 
Q 1281 3584 2069 3584 
Q 2775 3584 3186 3129 
Q 3597 2675 3597 1894 
z
M 3022 2063 
Q 3016 2534 2758 2815 
Q 2500 3097 2075 3097 
Q 1594 3097 1305 2825 
Q 1016 2553 972 2059 
L 3022 2063 
z
" id="DejaVuSans-65" transform="scale(0.015625)"/>
        <path d="M 1159 525 
L 1159 -1331 
L 581 -1331 
L 581 3500 
L 1159 3500 
L 1159 2969 
Q 1341 3281 1617 3432 
Q 1894 3584 2278 3584 
Q 2916 3584 3314 3078 
Q 3713 2572 3713 1747 
Q 3713 922 3314 415 
Q 2916 -91 2278 -91 
Q 1894 -91 1617 61 
Q 1341 213 1159 525 
z
M 3116 1747 
Q 3116 2381 2855 2742 
Q 2594 3103 2138 3103 
Q 1681 3103 1420 2742 
Q 1159 2381 1159 1747 
Q 1159 1113 1420 752 
Q 1681 391 2138 391 
Q 2594 391 2855 752 
Q 3116 1113 3116 1747 
z
" id="DejaVuSans-70" transform="scale(0.015625)"/>
       </defs>
       <use xlink:href="#DejaVuSans-53"/>
       <use x="63.476562" xlink:href="#DejaVuSans-65"/>
       <use x="125" xlink:href="#DejaVuSans-70"/>
      </g>
     </g>
    </g>
    <g id="xtick_10">
     <g id="line2d_19">
      <path clip-path="url(#pcd7bdabf12)" d="M 223.751537 319.04 
L 223.751537 25.44 
" style="fill:none;stroke:#000000;stroke-dasharray:0.8,1.32;stroke-dashoffset:0;stroke-opacity:0.5;stroke-width:0.8;"/>
     </g>
     <g id="line2d_20">
      <g>
       <use style="stroke:#000000;stroke-width:0.8;" x="223.751537" xlink:href="#meb8bf231fb" y="319.04"/>
      </g>
     </g>
     <g id="text_10">
      <!-- 15 -->
      <g transform="translate(217.389037 333.638438)scale(0.1 -0.1)">
       <use xlink:href="#DejaVuSans-31"/>
       <use x="63.623047" xlink:href="#DejaVuSans-35"/>
      </g>
     </g>
    </g>
    <g id="xtick_11">
     <g id="line2d_21">
      <path clip-path="url(#pcd7bdabf12)" d="M 243.553176 319.04 
L 243.553176 25.44 
" style="fill:none;stroke:#000000;stroke-dasharray:0.8,1.32;stroke-dashoffset:0;stroke-opacity:0.5;stroke-width:0.8;"/>
     </g>
     <g id="line2d_22">
      <g>
       <use style="stroke:#000000;stroke-width:0.8;" x="243.553176" xlink:href="#meb8bf231fb" y="319.04"/>
      </g>
     </g>
     <g id="text_11">
      <!-- Oct -->
      <g transform="translate(234.907864 333.638438)scale(0.1 -0.1)">
       <defs>
        <path d="M 2522 4238 
Q 1834 4238 1429 3725 
Q 1025 3213 1025 2328 
Q 1025 1447 1429 934 
Q 1834 422 2522 422 
Q 3209 422 3611 934 
Q 4013 1447 4013 2328 
Q 4013 3213 3611 3725 
Q 3209 4238 2522 4238 
z
M 2522 4750 
Q 3503 4750 4090 4092 
Q 4678 3434 4678 2328 
Q 4678 1225 4090 567 
Q 3503 -91 2522 -91 
Q 1538 -91 948 565 
Q 359 1222 359 2328 
Q 359 3434 948 4092 
Q 1538 4750 2522 4750 
z
" id="DejaVuSans-4f" transform="scale(0.015625)"/>
        <path d="M 3122 3366 
L 3122 2828 
Q 2878 2963 2633 3030 
Q 2388 3097 2138 3097 
Q 1578 3097 1268 2742 
Q 959 2388 959 1747 
Q 959 1106 1268 751 
Q 1578 397 2138 397 
Q 2388 397 2633 464 
Q 2878 531 3122 666 
L 3122 134 
Q 2881 22 2623 -34 
Q 2366 -91 2075 -91 
Q 1284 -91 818 406 
Q 353 903 353 1747 
Q 353 2603 823 3093 
Q 1294 3584 2113 3584 
Q 2378 3584 2631 3529 
Q 2884 3475 3122 3366 
z
" id="DejaVuSans-63" transform="scale(0.015625)"/>
        <path d="M 1172 4494 
L 1172 3500 
L 2356 3500 
L 2356 3053 
L 1172 3053 
L 1172 1153 
Q 1172 725 1289 603 
Q 1406 481 1766 481 
L 2356 481 
L 2356 0 
L 1766 0 
Q 1100 0 847 248 
Q 594 497 594 1153 
L 594 3053 
L 172 3053 
L 172 3500 
L 594 3500 
L 594 4494 
L 1172 4494 
z
" id="DejaVuSans-74" transform="scale(0.015625)"/>
       </defs>
       <use xlink:href="#DejaVuSans-4f"/>
       <use x="78.710938" xlink:href="#DejaVuSans-63"/>
       <use x="133.691406" xlink:href="#DejaVuSans-74"/>
      </g>
     </g>
    </g>
    <g id="xtick_12">
     <g id="line2d_23">
      <path clip-path="url(#pcd7bdabf12)" d="M 260.879611 319.04 
L 260.879611 25.44 
" style="fill:none;stroke:#000000;stroke-dasharray:0.8,1.32;stroke-dashoffset:0;stroke-opacity:0.5;stroke-width:0.8;"/>
     </g>
     <g id="line2d_24">
      <g>
       <use style="stroke:#000000;stroke-width:0.8;" x="260.879611" xlink:href="#meb8bf231fb" y="319.04"/>
      </g>
     </g>
     <g id="text_12">
      <!-- 15 -->
      <g transform="translate(254.517111 333.638438)scale(0.1 -0.1)">
       <use xlink:href="#DejaVuSans-31"/>
       <use x="63.623047" xlink:href="#DejaVuSans-35"/>
      </g>
     </g>
    </g>
    <g id="xtick_13">
     <g id="line2d_25">
      <path clip-path="url(#pcd7bdabf12)" d="M 281.918852 319.04 
L 281.918852 25.44 
" style="fill:none;stroke:#000000;stroke-dasharray:0.8,1.32;stroke-dashoffset:0;stroke-opacity:0.5;stroke-width:0.8;"/>
     </g>
     <g id="line2d_26">
      <g>
       <use style="stroke:#000000;stroke-width:0.8;" x="281.918852" xlink:href="#meb8bf231fb" y="319.04"/>
      </g>
     </g>
     <g id="text_13">
      <!-- Nov -->
      <g transform="translate(272.159477 333.638438)scale(0.1 -0.1)">
       <defs>
        <path d="M 628 4666 
L 1478 4666 
L 3547 763 
L 3547 4666 
L 4159 4666 
L 4159 0 
L 3309 0 
L 1241 3903 
L 1241 0 
L 628 0 
L 628 4666 
z
" id="DejaVuSans-4e" transform="scale(0.015625)"/>
        <path d="M 1959 3097 
Q 1497 3097 1228 2736 
Q 959 2375 959 1747 
Q 959 1119 1226 758 
Q 1494 397 1959 397 
Q 2419 397 2687 759 
Q 2956 1122 2956 1747 
Q 2956 2369 2687 2733 
Q 2419 3097 1959 3097 
z
M 1959 3584 
Q 2709 3584 3137 3096 
Q 3566 2609 3566 1747 
Q 3566 888 3137 398 
Q 2709 -91 1959 -91 
Q 1206 -91 779 398 
Q 353 888 353 1747 
Q 353 2609 779 3096 
Q 1206 3584 1959 3584 
z
" id="DejaVuSans-6f" transform="scale(0.015625)"/>
        <path d="M 191 3500 
L 800 3500 
L 1894 563 
L 2988 3500 
L 3597 3500 
L 2284 0 
L 1503 0 
L 191 3500 
z
" id="DejaVuSans-76" transform="scale(0.015625)"/>
       </defs>
       <use xlink:href="#DejaVuSans-4e"/>
       <use x="74.804688" xlink:href="#DejaVuSans-6f"/>
       <use x="135.986328" xlink:href="#DejaVuSans-76"/>
      </g>
     </g>
    </g>
    <g id="xtick_14">
     <g id="line2d_27">
      <path clip-path="url(#pcd7bdabf12)" d="M 299.245287 319.04 
L 299.245287 25.44 
" style="fill:none;stroke:#000000;stroke-dasharray:0.8,1.32;stroke-dashoffset:0;stroke-opacity:0.5;stroke-width:0.8;"/>
     </g>
     <g id="line2d_28">
      <g>
       <use style="stroke:#000000;stroke-width:0.8;" x="299.245287" xlink:href="#meb8bf231fb" y="319.04"/>
      </g>
     </g>
     <g id="text_14">
      <!-- 15 -->
      <g transform="translate(292.882787 333.638438)scale(0.1 -0.1)">
       <use xlink:href="#DejaVuSans-31"/>
       <use x="63.623047" xlink:href="#DejaVuSans-35"/>
      </g>
     </g>
    </g>
    <g id="xtick_15">
     <g id="line2d_29">
      <path clip-path="url(#pcd7bdabf12)" d="M 319.046926 319.04 
L 319.046926 25.44 
" style="fill:none;stroke:#000000;stroke-dasharray:0.8,1.32;stroke-dashoffset:0;stroke-opacity:0.5;stroke-width:0.8;"/>
     </g>
     <g id="line2d_30">
      <g>
       <use style="stroke:#000000;stroke-width:0.8;" x="319.046926" xlink:href="#meb8bf231fb" y="319.04"/>
      </g>
     </g>
     <g id="text_15">
      <!-- Dec -->
      <g transform="translate(309.371145 333.638438)scale(0.1 -0.1)">
       <defs>
        <path d="M 1259 4147 
L 1259 519 
L 2022 519 
Q 2988 519 3436 956 
Q 3884 1394 3884 2338 
Q 3884 3275 3436 3711 
Q 2988 4147 2022 4147 
L 1259 4147 
z
M 628 4666 
L 1925 4666 
Q 3281 4666 3915 4102 
Q 4550 3538 4550 2338 
Q 4550 1131 3912 565 
Q 3275 0 1925 0 
L 628 0 
L 628 4666 
z
" id="DejaVuSans-44" transform="scale(0.015625)"/>
       </defs>
       <use xlink:href="#DejaVuSans-44"/>
       <use x="77.001953" xlink:href="#DejaVuSans-65"/>
       <use x="138.525391" xlink:href="#DejaVuSans-63"/>
      </g>
     </g>
    </g>
    <g id="xtick_16">
     <g id="line2d_31">
      <path clip-path="url(#pcd7bdabf12)" d="M 336.373361 319.04 
L 336.373361 25.44 
" style="fill:none;stroke:#000000;stroke-dasharray:0.8,1.32;stroke-dashoffset:0;stroke-opacity:0.5;stroke-width:0.8;"/>
     </g>
     <g id="line2d_32">
      <g>
       <use style="stroke:#000000;stroke-width:0.8;" x="336.373361" xlink:href="#meb8bf231fb" y="319.04"/>
      </g>
     </g>
     <g id="text_16">
      <!-- 15 -->
      <g transform="translate(330.010861 333.638438)scale(0.1 -0.1)">
       <use xlink:href="#DejaVuSans-31"/>
       <use x="63.623047" xlink:href="#DejaVuSans-35"/>
      </g>
     </g>
    </g>
    <g id="text_17">
     <!-- 2021-Dec -->
     <g transform="translate(307.765625 346.316563)scale(0.1 -0.1)">
      <defs>
       <path d="M 1228 531 
L 3431 531 
L 3431 0 
L 469 0 
L 469 531 
Q 828 903 1448 1529 
Q 2069 2156 2228 2338 
Q 2531 2678 2651 2914 
Q 2772 3150 2772 3378 
Q 2772 3750 2511 3984 
Q 2250 4219 1831 4219 
Q 1534 4219 1204 4116 
Q 875 4013 500 3803 
L 500 4441 
Q 881 4594 1212 4672 
Q 1544 4750 1819 4750 
Q 2544 4750 2975 4387 
Q 3406 4025 3406 3419 
Q 3406 3131 3298 2873 
Q 3191 2616 2906 2266 
Q 2828 2175 2409 1742 
Q 1991 1309 1228 531 
z
" id="DejaVuSans-32" transform="scale(0.015625)"/>
       <path d="M 2034 4250 
Q 1547 4250 1301 3770 
Q 1056 3291 1056 2328 
Q 1056 1369 1301 889 
Q 1547 409 2034 409 
Q 2525 409 2770 889 
Q 3016 1369 3016 2328 
Q 3016 3291 2770 3770 
Q 2525 4250 2034 4250 
z
M 2034 4750 
Q 2819 4750 3233 4129 
Q 3647 3509 3647 2328 
Q 3647 1150 3233 529 
Q 2819 -91 2034 -91 
Q 1250 -91 836 529 
Q 422 1150 422 2328 
Q 422 3509 836 4129 
Q 1250 4750 2034 4750 
z
" id="DejaVuSans-30" transform="scale(0.015625)"/>
       <path d="M 313 2009 
L 1997 2009 
L 1997 1497 
L 313 1497 
L 313 2009 
z
" id="DejaVuSans-2d" transform="scale(0.015625)"/>
      </defs>
      <use xlink:href="#DejaVuSans-32"/>
      <use x="63.623047" xlink:href="#DejaVuSans-30"/>
      <use x="127.246094" xlink:href="#DejaVuSans-32"/>
      <use x="190.869141" xlink:href="#DejaVuSans-31"/>
      <use x="254.492188" xlink:href="#DejaVuSans-2d"/>
      <use x="290.576172" xlink:href="#DejaVuSans-44"/>
      <use x="367.578125" xlink:href="#DejaVuSans-65"/>
      <use x="429.101562" xlink:href="#DejaVuSans-63"/>
     </g>
    </g>
   </g>
   <g id="matplotlib.axis_2">
    <g id="ytick_1">
     <g id="line2d_33">
      <path clip-path="url(#pcd7bdabf12)" d="M 54.2 319.04 
L 356.175 319.04 
" style="fill:none;stroke:#000000;stroke-dasharray:0.8,1.32;stroke-dashoffset:0;stroke-opacity:0.5;stroke-width:0.8;"/>
     </g>
     <g id="line2d_34">
      <defs>
       <path d="M 0 0 
L -3.5 0 
" id="m0be6ae651a" style="stroke:#000000;stroke-width:0.8;"/>
      </defs>
      <g>
       <use style="stroke:#000000;stroke-width:0.8;" x="54.2" xlink:href="#m0be6ae651a" y="319.04"/>
      </g>
     </g>
     <g id="text_18">
      <!-- 0.00 -->
      <g transform="translate(24.934375 322.839219)scale(0.1 -0.1)">
       <defs>
        <path d="M 684 794 
L 1344 794 
L 1344 0 
L 684 0 
L 684 794 
z
" id="DejaVuSans-2e" transform="scale(0.015625)"/>
       </defs>
       <use xlink:href="#DejaVuSans-30"/>
       <use x="63.623047" xlink:href="#DejaVuSans-2e"/>
       <use x="95.410156" xlink:href="#DejaVuSans-30"/>
       <use x="159.033203" xlink:href="#DejaVuSans-30"/>
      </g>
     </g>
    </g>
    <g id="ytick_2">
     <g id="line2d_35">
      <path clip-path="url(#pcd7bdabf12)" d="M 54.2 285.676364 
L 356.175 285.676364 
" style="fill:none;stroke:#000000;stroke-dasharray:0.8,1.32;stroke-dashoffset:0;stroke-opacity:0.5;stroke-width:0.8;"/>
     </g>
     <g id="line2d_36">
      <g>
       <use style="stroke:#000000;stroke-width:0.8;" x="54.2" xlink:href="#m0be6ae651a" y="285.676364"/>
      </g>
     </g>
     <g id="text_19">
      <!-- 0.25 -->
      <g transform="translate(24.934375 289.475582)scale(0.1 -0.1)">
       <use xlink:href="#DejaVuSans-30"/>
       <use x="63.623047" xlink:href="#DejaVuSans-2e"/>
       <use x="95.410156" xlink:href="#DejaVuSans-32"/>
       <use x="159.033203" xlink:href="#DejaVuSans-35"/>
      </g>
     </g>
    </g>
    <g id="ytick_3">
     <g id="line2d_37">
      <path clip-path="url(#pcd7bdabf12)" d="M 54.2 252.312727 
L 356.175 252.312727 
" style="fill:none;stroke:#000000;stroke-dasharray:0.8,1.32;stroke-dashoffset:0;stroke-opacity:0.5;stroke-width:0.8;"/>
     </g>
     <g id="line2d_38">
      <g>
       <use style="stroke:#000000;stroke-width:0.8;" x="54.2" xlink:href="#m0be6ae651a" y="252.312727"/>
      </g>
     </g>
     <g id="text_20">
      <!-- 0.50 -->
      <g transform="translate(24.934375 256.111946)scale(0.1 -0.1)">
       <use xlink:href="#DejaVuSans-30"/>
       <use x="63.623047" xlink:href="#DejaVuSans-2e"/>
       <use x="95.410156" xlink:href="#DejaVuSans-35"/>
       <use x="159.033203" xlink:href="#DejaVuSans-30"/>
      </g>
     </g>
    </g>
    <g id="ytick_4">
     <g id="line2d_39">
      <path clip-path="url(#pcd7bdabf12)" d="M 54.2 218.949091 
L 356.175 218.949091 
" style="fill:none;stroke:#000000;stroke-dasharray:0.8,1.32;stroke-dashoffset:0;stroke-opacity:0.5;stroke-width:0.8;"/>
     </g>
     <g id="line2d_40">
      <g>
       <use style="stroke:#000000;stroke-width:0.8;" x="54.2" xlink:href="#m0be6ae651a" y="218.949091"/>
      </g>
     </g>
     <g id="text_21">
      <!-- 0.75 -->
      <g transform="translate(24.934375 222.74831)scale(0.1 -0.1)">
       <defs>
        <path d="M 525 4666 
L 3525 4666 
L 3525 4397 
L 1831 0 
L 1172 0 
L 2766 4134 
L 525 4134 
L 525 4666 
z
" id="DejaVuSans-37" transform="scale(0.015625)"/>
       </defs>
       <use xlink:href="#DejaVuSans-30"/>
       <use x="63.623047" xlink:href="#DejaVuSans-2e"/>
       <use x="95.410156" xlink:href="#DejaVuSans-37"/>
       <use x="159.033203" xlink:href="#DejaVuSans-35"/>
      </g>
     </g>
    </g>
    <g id="ytick_5">
     <g id="line2d_41">
      <path clip-path="url(#pcd7bdabf12)" d="M 54.2 185.585455 
L 356.175 185.585455 
" style="fill:none;stroke:#000000;stroke-dasharray:0.8,1.32;stroke-dashoffset:0;stroke-opacity:0.5;stroke-width:0.8;"/>
     </g>
     <g id="line2d_42">
      <g>
       <use style="stroke:#000000;stroke-width:0.8;" x="54.2" xlink:href="#m0be6ae651a" y="185.585455"/>
      </g>
     </g>
     <g id="text_22">
      <!-- 1.00 -->
      <g transform="translate(24.934375 189.384673)scale(0.1 -0.1)">
       <use xlink:href="#DejaVuSans-31"/>
       <use x="63.623047" xlink:href="#DejaVuSans-2e"/>
       <use x="95.410156" xlink:href="#DejaVuSans-30"/>
       <use x="159.033203" xlink:href="#DejaVuSans-30"/>
      </g>
     </g>
    </g>
    <g id="ytick_6">
     <g id="line2d_43">
      <path clip-path="url(#pcd7bdabf12)" d="M 54.2 152.221818 
L 356.175 152.221818 
" style="fill:none;stroke:#000000;stroke-dasharray:0.8,1.32;stroke-dashoffset:0;stroke-opacity:0.5;stroke-width:0.8;"/>
     </g>
     <g id="line2d_44">
      <g>
       <use style="stroke:#000000;stroke-width:0.8;" x="54.2" xlink:href="#m0be6ae651a" y="152.221818"/>
      </g>
     </g>
     <g id="text_23">
      <!-- 1.25 -->
      <g transform="translate(24.934375 156.021037)scale(0.1 -0.1)">
       <use xlink:href="#DejaVuSans-31"/>
       <use x="63.623047" xlink:href="#DejaVuSans-2e"/>
       <use x="95.410156" xlink:href="#DejaVuSans-32"/>
       <use x="159.033203" xlink:href="#DejaVuSans-35"/>
      </g>
     </g>
    </g>
    <g id="ytick_7">
     <g id="line2d_45">
      <path clip-path="url(#pcd7bdabf12)" d="M 54.2 118.858182 
L 356.175 118.858182 
" style="fill:none;stroke:#000000;stroke-dasharray:0.8,1.32;stroke-dashoffset:0;stroke-opacity:0.5;stroke-width:0.8;"/>
     </g>
     <g id="line2d_46">
      <g>
       <use style="stroke:#000000;stroke-width:0.8;" x="54.2" xlink:href="#m0be6ae651a" y="118.858182"/>
      </g>
     </g>
     <g id="text_24">
      <!-- 1.50 -->
      <g transform="translate(24.934375 122.657401)scale(0.1 -0.1)">
       <use xlink:href="#DejaVuSans-31"/>
       <use x="63.623047" xlink:href="#DejaVuSans-2e"/>
       <use x="95.410156" xlink:href="#DejaVuSans-35"/>
       <use x="159.033203" xlink:href="#DejaVuSans-30"/>
      </g>
     </g>
    </g>
    <g id="ytick_8">
     <g id="line2d_47">
      <path clip-path="url(#pcd7bdabf12)" d="M 54.2 85.494545 
L 356.175 85.494545 
" style="fill:none;stroke:#000000;stroke-dasharray:0.8,1.32;stroke-dashoffset:0;stroke-opacity:0.5;stroke-width:0.8;"/>
     </g>
     <g id="line2d_48">
      <g>
       <use style="stroke:#000000;stroke-width:0.8;" x="54.2" xlink:href="#m0be6ae651a" y="85.494545"/>
      </g>
     </g>
     <g id="text_25">
      <!-- 1.75 -->
      <g transform="translate(24.934375 89.293764)scale(0.1 -0.1)">
       <use xlink:href="#DejaVuSans-31"/>
       <use x="63.623047" xlink:href="#DejaVuSans-2e"/>
       <use x="95.410156" xlink:href="#DejaVuSans-37"/>
       <use x="159.033203" xlink:href="#DejaVuSans-35"/>
      </g>
     </g>
    </g>
    <g id="ytick_9">
     <g id="line2d_49">
      <path clip-path="url(#pcd7bdabf12)" d="M 54.2 52.130909 
L 356.175 52.130909 
" style="fill:none;stroke:#000000;stroke-dasharray:0.8,1.32;stroke-dashoffset:0;stroke-opacity:0.5;stroke-width:0.8;"/>
     </g>
     <g id="line2d_50">
      <g>
       <use style="stroke:#000000;stroke-width:0.8;" x="54.2" xlink:href="#m0be6ae651a" y="52.130909"/>
      </g>
     </g>
     <g id="text_26">
      <!-- 2.00 -->
      <g transform="translate(24.934375 55.930128)scale(0.1 -0.1)">
       <use xlink:href="#DejaVuSans-32"/>
       <use x="63.623047" xlink:href="#DejaVuSans-2e"/>
       <use x="95.410156" xlink:href="#DejaVuSans-30"/>
       <use x="159.033203" xlink:href="#DejaVuSans-30"/>
      </g>
     </g>
    </g>
    <g id="text_27">
     <!-- 7d avg doses per hundred population per day -->
     <g transform="translate(18.854688 286.7275)rotate(-90)scale(0.1 -0.1)">
      <defs>
       <path d="M 2906 2969 
L 2906 4863 
L 3481 4863 
L 3481 0 
L 2906 0 
L 2906 525 
Q 2725 213 2448 61 
Q 2172 -91 1784 -91 
Q 1150 -91 751 415 
Q 353 922 353 1747 
Q 353 2572 751 3078 
Q 1150 3584 1784 3584 
Q 2172 3584 2448 3432 
Q 2725 3281 2906 2969 
z
M 947 1747 
Q 947 1113 1208 752 
Q 1469 391 1925 391 
Q 2381 391 2643 752 
Q 2906 1113 2906 1747 
Q 2906 2381 2643 2742 
Q 2381 3103 1925 3103 
Q 1469 3103 1208 2742 
Q 947 2381 947 1747 
z
" id="DejaVuSans-64" transform="scale(0.015625)"/>
       <path id="DejaVuSans-20" transform="scale(0.015625)"/>
       <path d="M 2834 3397 
L 2834 2853 
Q 2591 2978 2328 3040 
Q 2066 3103 1784 3103 
Q 1356 3103 1142 2972 
Q 928 2841 928 2578 
Q 928 2378 1081 2264 
Q 1234 2150 1697 2047 
L 1894 2003 
Q 2506 1872 2764 1633 
Q 3022 1394 3022 966 
Q 3022 478 2636 193 
Q 2250 -91 1575 -91 
Q 1294 -91 989 -36 
Q 684 19 347 128 
L 347 722 
Q 666 556 975 473 
Q 1284 391 1588 391 
Q 1994 391 2212 530 
Q 2431 669 2431 922 
Q 2431 1156 2273 1281 
Q 2116 1406 1581 1522 
L 1381 1569 
Q 847 1681 609 1914 
Q 372 2147 372 2553 
Q 372 3047 722 3315 
Q 1072 3584 1716 3584 
Q 2034 3584 2315 3537 
Q 2597 3491 2834 3397 
z
" id="DejaVuSans-73" transform="scale(0.015625)"/>
       <path d="M 2631 2963 
Q 2534 3019 2420 3045 
Q 2306 3072 2169 3072 
Q 1681 3072 1420 2755 
Q 1159 2438 1159 1844 
L 1159 0 
L 581 0 
L 581 3500 
L 1159 3500 
L 1159 2956 
Q 1341 3275 1631 3429 
Q 1922 3584 2338 3584 
Q 2397 3584 2469 3576 
Q 2541 3569 2628 3553 
L 2631 2963 
z
" id="DejaVuSans-72" transform="scale(0.015625)"/>
       <path d="M 3513 2113 
L 3513 0 
L 2938 0 
L 2938 2094 
Q 2938 2591 2744 2837 
Q 2550 3084 2163 3084 
Q 1697 3084 1428 2787 
Q 1159 2491 1159 1978 
L 1159 0 
L 581 0 
L 581 4863 
L 1159 4863 
L 1159 2956 
Q 1366 3272 1645 3428 
Q 1925 3584 2291 3584 
Q 2894 3584 3203 3211 
Q 3513 2838 3513 2113 
z
" id="DejaVuSans-68" transform="scale(0.015625)"/>
       <path d="M 603 3500 
L 1178 3500 
L 1178 0 
L 603 0 
L 603 3500 
z
M 603 4863 
L 1178 4863 
L 1178 4134 
L 603 4134 
L 603 4863 
z
" id="DejaVuSans-69" transform="scale(0.015625)"/>
      </defs>
      <use xlink:href="#DejaVuSans-37"/>
      <use x="63.623047" xlink:href="#DejaVuSans-64"/>
      <use x="127.099609" xlink:href="#DejaVuSans-20"/>
      <use x="158.886719" xlink:href="#DejaVuSans-61"/>
      <use x="220.166016" xlink:href="#DejaVuSans-76"/>
      <use x="279.345703" xlink:href="#DejaVuSans-67"/>
      <use x="342.822266" xlink:href="#DejaVuSans-20"/>
      <use x="374.609375" xlink:href="#DejaVuSans-64"/>
      <use x="438.085938" xlink:href="#DejaVuSans-6f"/>
      <use x="499.267578" xlink:href="#DejaVuSans-73"/>
      <use x="551.367188" xlink:href="#DejaVuSans-65"/>
      <use x="612.890625" xlink:href="#DejaVuSans-73"/>
      <use x="664.990234" xlink:href="#DejaVuSans-20"/>
      <use x="696.777344" xlink:href="#DejaVuSans-70"/>
      <use x="760.253906" xlink:href="#DejaVuSans-65"/>
      <use x="821.777344" xlink:href="#DejaVuSans-72"/>
      <use x="862.890625" xlink:href="#DejaVuSans-20"/>
      <use x="894.677734" xlink:href="#DejaVuSans-68"/>
      <use x="958.056641" xlink:href="#DejaVuSans-75"/>
      <use x="1021.435547" xlink:href="#DejaVuSans-6e"/>
      <use x="1084.814453" xlink:href="#DejaVuSans-64"/>
      <use x="1148.291016" xlink:href="#DejaVuSans-72"/>
      <use x="1187.154297" xlink:href="#DejaVuSans-65"/>
      <use x="1248.677734" xlink:href="#DejaVuSans-64"/>
      <use x="1312.154297" xlink:href="#DejaVuSans-20"/>
      <use x="1343.941406" xlink:href="#DejaVuSans-70"/>
      <use x="1407.417969" xlink:href="#DejaVuSans-6f"/>
      <use x="1468.599609" xlink:href="#DejaVuSans-70"/>
      <use x="1532.076172" xlink:href="#DejaVuSans-75"/>
      <use x="1595.455078" xlink:href="#DejaVuSans-6c"/>
      <use x="1623.238281" xlink:href="#DejaVuSans-61"/>
      <use x="1684.517578" xlink:href="#DejaVuSans-74"/>
      <use x="1723.726562" xlink:href="#DejaVuSans-69"/>
      <use x="1751.509766" xlink:href="#DejaVuSans-6f"/>
      <use x="1812.691406" xlink:href="#DejaVuSans-6e"/>
      <use x="1876.070312" xlink:href="#DejaVuSans-20"/>
      <use x="1907.857422" xlink:href="#DejaVuSans-70"/>
      <use x="1971.333984" xlink:href="#DejaVuSans-65"/>
      <use x="2032.857422" xlink:href="#DejaVuSans-72"/>
      <use x="2073.970703" xlink:href="#DejaVuSans-20"/>
      <use x="2105.757812" xlink:href="#DejaVuSans-64"/>
      <use x="2169.234375" xlink:href="#DejaVuSans-61"/>
      <use x="2230.513672" xlink:href="#DejaVuSans-79"/>
     </g>
    </g>
   </g>
   <g id="line2d_51">
    <path clip-path="url(#pcd7bdabf12)" d="M -1 314.214773 
L 0.983094 314.214773 
L 0.983094 315.524152 
L 3.458299 315.524152 
L 3.458299 312.541613 
L 4.695902 312.541613 
L 4.695902 311.550604 
L 5.933504 311.550604 
L 5.933504 312.828834 
L 7.171107 312.828834 
L 7.171107 313.967021 
L 8.408709 313.967021 
L 8.408709 310.102608 
L 9.646311 310.102608 
L 9.646311 308.419936 
L 12.121516 308.419936 
L 12.121516 311.576758 
L 13.359119 311.576758 
L 13.359119 312.606761 
L 15.834324 312.606761 
L 15.834324 308.46963 
L 17.071926 308.46963 
L 17.071926 310.680142 
L 18.309529 310.680142 
L 18.309529 312.163327 
L 19.547131 312.163327 
L 19.547131 311.854469 
L 22.022336 311.84686 
L 22.022336 312.539711 
L 23.259939 312.539711 
L 23.259939 310.879152 
L 24.497541 310.879152 
L 24.497541 313.535475 
L 25.735143 313.535475 
L 25.735143 273.429078 
L 26.972746 273.429078 
L 26.972746 269.091273 
L 28.210348 269.091273 
L 28.210348 267.725068 
L 29.447951 267.725068 
L 29.447951 267.256431 
L 30.685553 267.256431 
L 30.685553 263.267904 
L 31.923156 263.267904 
L 31.923156 259.987444 
L 33.160758 259.987444 
L 33.160758 256.605696 
L 34.398361 256.605696 
L 34.398361 293.767121 
L 35.635963 293.767121 
L 35.635963 294.044594 
L 38.111168 294.092623 
L 38.111168 289.436686 
L 39.34877 289.436686 
L 39.34877 288.879124 
L 41.823975 288.888397 
L 41.823975 288.750255 
L 43.061578 288.750255 
L 43.061578 288.638742 
L 45.536783 288.65705 
L 45.536783 288.926202 
L 46.774385 288.926202 
L 46.774385 293.933557 
L 48.011988 293.933557 
L 48.011988 295.431484 
L 49.24959 295.431484 
L 49.24959 296.378269 
L 50.487193 296.378269 
L 50.487193 295.337804 
L 52.962398 295.368952 
L 52.962398 295.486408 
L 54.2 295.486408 
L 54.2 295.627166 
L 56.675205 295.534199 
L 56.675205 294.529637 
L 57.912807 294.529637 
L 57.912807 293.251882 
L 59.15041 293.251882 
L 59.15041 294.090007 
L 60.388012 294.090007 
L 60.388012 293.521508 
L 61.625615 293.521508 
L 61.625615 292.512667 
L 62.863217 292.512667 
L 62.863217 291.984112 
L 65.338422 291.935608 
L 65.338422 291.194015 
L 66.576025 291.194015 
L 66.576025 290.549669 
L 67.813627 290.549669 
L 67.813627 289.534883 
L 69.05123 289.534883 
L 69.05123 288.147517 
L 70.288832 288.147517 
L 70.288832 286.984365 
L 71.526434 286.984365 
L 71.526434 285.731813 
L 74.001639 285.707561 
L 74.001639 283.955938 
L 75.239242 283.955938 
L 75.239242 282.516501 
L 76.476844 282.516501 
L 76.476844 281.180018 
L 77.714447 281.180018 
L 77.714447 279.717994 
L 78.952049 279.717994 
L 78.952049 278.430728 
L 80.189652 278.430728 
L 80.189652 278.317075 
L 81.427254 278.317075 
L 81.427254 278.185591 
L 82.664857 278.185591 
L 82.664857 277.90788 
L 83.902459 277.90788 
L 83.902459 277.178413 
L 85.140061 277.178413 
L 85.140061 276.192872 
L 86.377664 276.192872 
L 86.377664 275.357124 
L 87.615266 275.357124 
L 87.615266 274.439822 
L 88.852869 274.439822 
L 88.852869 273.755056 
L 91.328074 273.704174 
L 91.328074 272.286612 
L 92.565676 272.286612 
L 92.565676 271.38001 
L 93.803279 271.38001 
L 93.803279 270.319335 
L 95.040881 270.319335 
L 95.040881 269.33213 
L 97.516086 269.279346 
L 97.516086 269.088182 
L 98.753689 269.088182 
L 98.753689 268.910808 
L 99.991291 268.910808 
L 99.991291 268.72012 
L 101.228893 268.72012 
L 101.228893 268.314728 
L 102.466496 268.314728 
L 102.466496 268.899871 
L 106.179303 268.91485 
L 106.179303 269.81218 
L 107.416906 269.81218 
L 107.416906 270.175962 
L 108.654508 270.175962 
L 108.654508 275.466972 
L 109.892111 275.466972 
L 109.892111 275.241094 
L 111.129713 275.241094 
L 111.129713 274.874935 
L 112.367316 274.874935 
L 112.367316 274.759142 
L 113.604918 274.759142 
L 113.604918 274.481669 
L 114.84252 274.481669 
L 114.84252 273.464268 
L 116.080123 273.464268 
L 116.080123 273.192263 
L 117.317725 273.192263 
L 117.317725 267.673235 
L 118.555328 267.673235 
L 118.555328 267.945477 
L 121.030533 267.881281 
L 121.030533 267.592395 
L 122.268135 267.592395 
L 122.268135 267.976625 
L 123.505738 267.976625 
L 123.505738 267.270221 
L 124.74334 267.270221 
L 124.74334 264.820517 
L 125.980943 264.820517 
L 125.980943 264.616038 
L 127.218545 264.616038 
L 127.218545 263.018011 
L 128.456148 263.018011 
L 128.456148 260.940886 
L 129.69375 260.940886 
L 129.69375 258.591994 
L 130.931352 258.591994 
L 130.931352 255.357661 
L 132.168955 255.357661 
L 132.168955 253.920127 
L 133.406557 253.920127 
L 133.406557 252.780038 
L 134.64416 252.780038 
L 134.64416 250.494392 
L 135.881762 250.494392 
L 135.881762 249.071599 
L 137.119365 249.071599 
L 137.119365 248.551604 
L 138.356967 248.551604 
L 138.356967 247.822138 
L 139.59457 247.822138 
L 139.59457 247.460733 
L 140.832172 247.460733 
L 140.832172 246.802359 
L 142.069775 246.802359 
L 142.069775 247.164239 
L 143.307377 247.164239 
L 143.307377 245.430924 
L 144.54498 245.430924 
L 144.54498 242.705885 
L 145.782582 242.705885 
L 145.782582 240.837519 
L 147.020184 240.837519 
L 147.020184 238.282008 
L 148.257787 238.282008 
L 148.257787 235.514172 
L 149.495389 235.514172 
L 149.495389 233.728548 
L 150.732992 233.728548 
L 150.732992 232.649328 
L 151.970594 232.649328 
L 151.970594 230.261442 
L 153.208197 230.261442 
L 153.208197 229.453988 
L 154.445799 229.453988 
L 154.445799 227.932998 
L 155.683402 227.932998 
L 155.683402 225.804753 
L 156.921004 225.804753 
L 156.921004 224.010094 
L 158.158607 224.010094 
L 158.158607 223.028833 
L 159.396209 223.028833 
L 159.396209 222.319101 
L 160.633811 222.319101 
L 160.633811 220.808097 
L 161.871414 220.808097 
L 161.871414 218.412365 
L 163.109016 218.412365 
L 163.109016 214.985204 
L 164.346619 214.985204 
L 164.346619 213.086641 
L 165.584221 213.086641 
L 165.584221 210.226789 
L 166.821824 210.226789 
L 166.821824 209.006811 
L 168.059426 209.006811 
L 168.059426 208.426899 
L 169.297029 208.426899 
L 169.297029 205.281966 
L 170.534631 205.281966 
L 170.534631 203.470664 
L 171.772234 203.470664 
L 171.772234 202.448031 
L 173.009836 202.448031 
L 173.009836 200.072985 
L 174.247439 200.072985 
L 174.247439 198.342285 
L 175.485041 198.342285 
L 175.485041 195.373537 
L 177.960246 195.469832 
L 177.960246 192.231219 
L 179.197848 192.231219 
L 179.197848 186.989189 
L 180.435451 186.989189 
L 180.435451 181.890531 
L 181.673053 181.890531 
L 181.673053 178.869712 
L 182.910656 178.869712 
L 182.910656 175.042628 
L 184.148258 175.042628 
L 184.148258 173.302892 
L 185.385861 173.302892 
L 185.385861 173.139519 
L 186.623463 173.139519 
L 186.623463 171.722607 
L 187.861066 171.722607 
L 187.861066 171.490242 
L 189.098668 171.490242 
L 189.098668 165.550738 
L 190.33627 165.550738 
L 190.33627 162.680939 
L 191.573873 162.680939 
L 191.573873 158.075882 
L 192.811475 158.075882 
L 192.811475 155.148097 
L 194.049078 155.148097 
L 194.049078 147.417062 
L 195.28668 147.417062 
L 195.28668 143.092549 
L 196.524283 143.092549 
L 196.524283 138.135105 
L 197.761885 138.135105 
L 197.761885 135.674827 
L 198.999488 135.674827 
L 198.999488 131.500666 
L 200.23709 131.500666 
L 200.23709 128.832136 
L 201.474693 128.832136 
L 201.474693 131.393972 
L 202.712295 131.393972 
L 202.712295 128.550808 
L 203.949898 128.550808 
L 203.949898 123.028841 
L 205.1875 123.028841 
L 205.1875 125.273395 
L 206.425102 125.273395 
L 206.425102 125.988505 
L 207.662705 125.988505 
L 207.662705 131.529616 
L 208.900307 131.529616 
L 208.900307 133.732613 
L 210.13791 133.732613 
L 210.13791 127.595226 
L 211.375512 127.595226 
L 211.375512 133.173459 
L 212.613115 133.173459 
L 212.613115 145.113441 
L 213.850717 145.113441 
L 213.850717 148.315444 
L 215.08832 148.315444 
L 215.08832 154.350806 
L 216.325922 154.350806 
L 216.325922 152.843541 
L 217.563525 152.843541 
L 217.563525 152.843541 
" style="fill:none;stroke:#1f77b4;stroke-linecap:square;stroke-width:1.5;"/>
   </g>
   <g id="line2d_52">
    <path clip-path="url(#pcd7bdabf12)" d="M 217.563525 105.512727 
L 242.315574 105.512727 
L 242.315574 78.821818 
L 268.305225 78.821818 
L 268.305225 319.04 
L 465.084016 319.04 
L 465.084016 319.04 
" style="fill:none;stroke:#ff7f0e;stroke-linecap:square;stroke-width:1.5;"/>
   </g>
   <g id="patch_3">
    <path d="M 54.2 319.04 
L 54.2 25.44 
" style="fill:none;stroke:#000000;stroke-linecap:square;stroke-linejoin:miter;stroke-width:0.8;"/>
   </g>
   <g id="patch_4">
    <path d="M 356.175 319.04 
L 356.175 25.44 
" style="fill:none;stroke:#000000;stroke-linecap:square;stroke-linejoin:miter;stroke-width:0.8;"/>
   </g>
   <g id="patch_5">
    <path d="M 54.2 319.04 
L 356.175 319.04 
" style="fill:none;stroke:#000000;stroke-linecap:square;stroke-linejoin:miter;stroke-width:0.8;"/>
   </g>
   <g id="patch_6">
    <path d="M 54.2 25.44 
L 356.175 25.44 
" style="fill:none;stroke:#000000;stroke-linecap:square;stroke-linejoin:miter;stroke-width:0.8;"/>
   </g>
   <g id="text_28">
    <!-- NSW daily vaccinations per capita -->
    <g transform="translate(102.919375 19.44)scale(0.12 -0.12)">
     <defs>
      <path d="M 213 4666 
L 850 4666 
L 1831 722 
L 2809 4666 
L 3519 4666 
L 4500 722 
L 5478 4666 
L 6119 4666 
L 4947 0 
L 4153 0 
L 3169 4050 
L 2175 0 
L 1381 0 
L 213 4666 
z
" id="DejaVuSans-57" transform="scale(0.015625)"/>
     </defs>
     <use xlink:href="#DejaVuSans-4e"/>
     <use x="74.804688" xlink:href="#DejaVuSans-53"/>
     <use x="138.28125" xlink:href="#DejaVuSans-57"/>
     <use x="237.158203" xlink:href="#DejaVuSans-20"/>
     <use x="268.945312" xlink:href="#DejaVuSans-64"/>
     <use x="332.421875" xlink:href="#DejaVuSans-61"/>
     <use x="393.701172" xlink:href="#DejaVuSans-69"/>
     <use x="421.484375" xlink:href="#DejaVuSans-6c"/>
     <use x="449.267578" xlink:href="#DejaVuSans-79"/>
     <use x="508.447266" xlink:href="#DejaVuSans-20"/>
     <use x="540.234375" xlink:href="#DejaVuSans-76"/>
     <use x="599.414062" xlink:href="#DejaVuSans-61"/>
     <use x="660.693359" xlink:href="#DejaVuSans-63"/>
     <use x="715.673828" xlink:href="#DejaVuSans-63"/>
     <use x="770.654297" xlink:href="#DejaVuSans-69"/>
     <use x="798.4375" xlink:href="#DejaVuSans-6e"/>
     <use x="861.816406" xlink:href="#DejaVuSans-61"/>
     <use x="923.095703" xlink:href="#DejaVuSans-74"/>
     <use x="962.304688" xlink:href="#DejaVuSans-69"/>
     <use x="990.087891" xlink:href="#DejaVuSans-6f"/>
     <use x="1051.269531" xlink:href="#DejaVuSans-6e"/>
     <use x="1114.648438" xlink:href="#DejaVuSans-73"/>
     <use x="1166.748047" xlink:href="#DejaVuSans-20"/>
     <use x="1198.535156" xlink:href="#DejaVuSans-70"/>
     <use x="1262.011719" xlink:href="#DejaVuSans-65"/>
     <use x="1323.535156" xlink:href="#DejaVuSans-72"/>
     <use x="1364.648438" xlink:href="#DejaVuSans-20"/>
     <use x="1396.435547" xlink:href="#DejaVuSans-63"/>
     <use x="1451.416016" xlink:href="#DejaVuSans-61"/>
     <use x="1512.695312" xlink:href="#DejaVuSans-70"/>
     <use x="1576.171875" xlink:href="#DejaVuSans-69"/>
     <use x="1603.955078" xlink:href="#DejaVuSans-74"/>
     <use x="1643.164062" xlink:href="#DejaVuSans-61"/>
    </g>
   </g>
   <g id="legend_1">
    <g id="patch_7">
     <path d="M 201.292187 62.79625 
L 349.175 62.79625 
Q 351.175 62.79625 351.175 60.79625 
L 351.175 32.44 
Q 351.175 30.44 349.175 30.44 
L 201.292187 30.44 
Q 199.292187 30.44 199.292187 32.44 
L 199.292187 60.79625 
Q 199.292187 62.79625 201.292187 62.79625 
z
" style="fill:#ffffff;opacity:0.8;stroke:#cccccc;stroke-linejoin:miter;"/>
    </g>
    <g id="line2d_53">
     <path d="M 203.292187 38.538437 
L 223.292187 38.538437 
" style="fill:none;stroke:#1f77b4;stroke-linecap:square;stroke-width:1.5;"/>
    </g>
    <g id="line2d_54"/>
    <g id="text_29">
     <!-- Actual -->
     <g transform="translate(231.292187 42.038437)scale(0.1 -0.1)">
      <use xlink:href="#DejaVuSans-41"/>
      <use x="66.658203" xlink:href="#DejaVuSans-63"/>
      <use x="121.638672" xlink:href="#DejaVuSans-74"/>
      <use x="160.847656" xlink:href="#DejaVuSans-75"/>
      <use x="224.226562" xlink:href="#DejaVuSans-61"/>
      <use x="285.505859" xlink:href="#DejaVuSans-6c"/>
     </g>
    </g>
    <g id="line2d_55">
     <path d="M 203.292187 53.216563 
L 223.292187 53.216563 
" style="fill:none;stroke:#ff7f0e;stroke-linecap:square;stroke-width:1.5;"/>
    </g>
    <g id="line2d_56"/>
    <g id="text_30">
     <!-- Assumed for projection -->
     <g transform="translate(231.292187 56.716563)scale(0.1 -0.1)">
      <defs>
       <path d="M 3328 2828 
Q 3544 3216 3844 3400 
Q 4144 3584 4550 3584 
Q 5097 3584 5394 3201 
Q 5691 2819 5691 2113 
L 5691 0 
L 5113 0 
L 5113 2094 
Q 5113 2597 4934 2840 
Q 4756 3084 4391 3084 
Q 3944 3084 3684 2787 
Q 3425 2491 3425 1978 
L 3425 0 
L 2847 0 
L 2847 2094 
Q 2847 2600 2669 2842 
Q 2491 3084 2119 3084 
Q 1678 3084 1418 2786 
Q 1159 2488 1159 1978 
L 1159 0 
L 581 0 
L 581 3500 
L 1159 3500 
L 1159 2956 
Q 1356 3278 1631 3431 
Q 1906 3584 2284 3584 
Q 2666 3584 2933 3390 
Q 3200 3197 3328 2828 
z
" id="DejaVuSans-6d" transform="scale(0.015625)"/>
       <path d="M 2375 4863 
L 2375 4384 
L 1825 4384 
Q 1516 4384 1395 4259 
Q 1275 4134 1275 3809 
L 1275 3500 
L 2222 3500 
L 2222 3053 
L 1275 3053 
L 1275 0 
L 697 0 
L 697 3053 
L 147 3053 
L 147 3500 
L 697 3500 
L 697 3744 
Q 697 4328 969 4595 
Q 1241 4863 1831 4863 
L 2375 4863 
z
" id="DejaVuSans-66" transform="scale(0.015625)"/>
       <path d="M 603 3500 
L 1178 3500 
L 1178 -63 
Q 1178 -731 923 -1031 
Q 669 -1331 103 -1331 
L -116 -1331 
L -116 -844 
L 38 -844 
Q 366 -844 484 -692 
Q 603 -541 603 -63 
L 603 3500 
z
M 603 4863 
L 1178 4863 
L 1178 4134 
L 603 4134 
L 603 4863 
z
" id="DejaVuSans-6a" transform="scale(0.015625)"/>
      </defs>
      <use xlink:href="#DejaVuSans-41"/>
      <use x="68.408203" xlink:href="#DejaVuSans-73"/>
      <use x="120.507812" xlink:href="#DejaVuSans-73"/>
      <use x="172.607422" xlink:href="#DejaVuSans-75"/>
      <use x="235.986328" xlink:href="#DejaVuSans-6d"/>
      <use x="333.398438" xlink:href="#DejaVuSans-65"/>
      <use x="394.921875" xlink:href="#DejaVuSans-64"/>
      <use x="458.398438" xlink:href="#DejaVuSans-20"/>
      <use x="490.185547" xlink:href="#DejaVuSans-66"/>
      <use x="525.390625" xlink:href="#DejaVuSans-6f"/>
      <use x="586.572266" xlink:href="#DejaVuSans-72"/>
      <use x="627.685547" xlink:href="#DejaVuSans-20"/>
      <use x="659.472656" xlink:href="#DejaVuSans-70"/>
      <use x="722.949219" xlink:href="#DejaVuSans-72"/>
      <use x="761.8125" xlink:href="#DejaVuSans-6f"/>
      <use x="822.994141" xlink:href="#DejaVuSans-6a"/>
      <use x="850.777344" xlink:href="#DejaVuSans-65"/>
      <use x="912.300781" xlink:href="#DejaVuSans-63"/>
      <use x="967.28125" xlink:href="#DejaVuSans-74"/>
      <use x="1006.490234" xlink:href="#DejaVuSans-69"/>
      <use x="1034.273438" xlink:href="#DejaVuSans-6f"/>
      <use x="1095.455078" xlink:href="#DejaVuSans-6e"/>
     </g>
    </g>
   </g>
  </g>
  <g id="axes_2">
   <g id="patch_8">
    <path d="M 407.225 319.04 
L 709.2 319.04 
L 709.2 25.44 
L 407.225 25.44 
z
" style="fill:#ffffff;"/>
   </g>
   <g id="matplotlib.axis_3">
    <g id="xtick_17">
     <g id="line2d_57">
      <path clip-path="url(#pf36c4c3612)" d="M 407.225 319.04 
L 407.225 25.44 
" style="fill:none;stroke:#000000;stroke-dasharray:0.8,1.32;stroke-dashoffset:0;stroke-opacity:0.5;stroke-width:0.8;"/>
     </g>
     <g id="line2d_58">
      <g>
       <use style="stroke:#000000;stroke-width:0.8;" x="407.225" xlink:href="#meb8bf231fb" y="319.04"/>
      </g>
     </g>
     <g id="text_31">
      <!-- May -->
      <g transform="translate(396.8875 333.638438)scale(0.1 -0.1)">
       <use xlink:href="#DejaVuSans-4d"/>
       <use x="86.279297" xlink:href="#DejaVuSans-61"/>
       <use x="147.558594" xlink:href="#DejaVuSans-79"/>
      </g>
     </g>
    </g>
    <g id="xtick_18">
     <g id="line2d_59">
      <path clip-path="url(#pf36c4c3612)" d="M 424.551434 319.04 
L 424.551434 25.44 
" style="fill:none;stroke:#000000;stroke-dasharray:0.8,1.32;stroke-dashoffset:0;stroke-opacity:0.5;stroke-width:0.8;"/>
     </g>
     <g id="line2d_60">
      <g>
       <use style="stroke:#000000;stroke-width:0.8;" x="424.551434" xlink:href="#meb8bf231fb" y="319.04"/>
      </g>
     </g>
     <g id="text_32">
      <!-- 15 -->
      <g transform="translate(418.188934 333.638438)scale(0.1 -0.1)">
       <use xlink:href="#DejaVuSans-31"/>
       <use x="63.623047" xlink:href="#DejaVuSans-35"/>
      </g>
     </g>
    </g>
    <g id="xtick_19">
     <g id="line2d_61">
      <path clip-path="url(#pf36c4c3612)" d="M 445.590676 319.04 
L 445.590676 25.44 
" style="fill:none;stroke:#000000;stroke-dasharray:0.8,1.32;stroke-dashoffset:0;stroke-opacity:0.5;stroke-width:0.8;"/>
     </g>
     <g id="line2d_62">
      <g>
       <use style="stroke:#000000;stroke-width:0.8;" x="445.590676" xlink:href="#meb8bf231fb" y="319.04"/>
      </g>
     </g>
     <g id="text_33">
      <!-- Jun -->
      <g transform="translate(437.778176 333.638438)scale(0.1 -0.1)">
       <use xlink:href="#DejaVuSans-4a"/>
       <use x="29.492188" xlink:href="#DejaVuSans-75"/>
       <use x="92.871094" xlink:href="#DejaVuSans-6e"/>
      </g>
     </g>
    </g>
    <g id="xtick_20">
     <g id="line2d_63">
      <path clip-path="url(#pf36c4c3612)" d="M 462.917111 319.04 
L 462.917111 25.44 
" style="fill:none;stroke:#000000;stroke-dasharray:0.8,1.32;stroke-dashoffset:0;stroke-opacity:0.5;stroke-width:0.8;"/>
     </g>
     <g id="line2d_64">
      <g>
       <use style="stroke:#000000;stroke-width:0.8;" x="462.917111" xlink:href="#meb8bf231fb" y="319.04"/>
      </g>
     </g>
     <g id="text_34">
      <!-- 15 -->
      <g transform="translate(456.554611 333.638438)scale(0.1 -0.1)">
       <use xlink:href="#DejaVuSans-31"/>
       <use x="63.623047" xlink:href="#DejaVuSans-35"/>
      </g>
     </g>
    </g>
    <g id="xtick_21">
     <g id="line2d_65">
      <path clip-path="url(#pf36c4c3612)" d="M 482.71875 319.04 
L 482.71875 25.44 
" style="fill:none;stroke:#000000;stroke-dasharray:0.8,1.32;stroke-dashoffset:0;stroke-opacity:0.5;stroke-width:0.8;"/>
     </g>
     <g id="line2d_66">
      <g>
       <use style="stroke:#000000;stroke-width:0.8;" x="482.71875" xlink:href="#meb8bf231fb" y="319.04"/>
      </g>
     </g>
     <g id="text_35">
      <!-- Jul -->
      <g transform="translate(476.685938 333.638438)scale(0.1 -0.1)">
       <use xlink:href="#DejaVuSans-4a"/>
       <use x="29.492188" xlink:href="#DejaVuSans-75"/>
       <use x="92.871094" xlink:href="#DejaVuSans-6c"/>
      </g>
     </g>
    </g>
    <g id="xtick_22">
     <g id="line2d_67">
      <path clip-path="url(#pf36c4c3612)" d="M 500.045184 319.04 
L 500.045184 25.44 
" style="fill:none;stroke:#000000;stroke-dasharray:0.8,1.32;stroke-dashoffset:0;stroke-opacity:0.5;stroke-width:0.8;"/>
     </g>
     <g id="line2d_68">
      <g>
       <use style="stroke:#000000;stroke-width:0.8;" x="500.045184" xlink:href="#meb8bf231fb" y="319.04"/>
      </g>
     </g>
     <g id="text_36">
      <!-- 15 -->
      <g transform="translate(493.682684 333.638438)scale(0.1 -0.1)">
       <use xlink:href="#DejaVuSans-31"/>
       <use x="63.623047" xlink:href="#DejaVuSans-35"/>
      </g>
     </g>
    </g>
    <g id="xtick_23">
     <g id="line2d_69">
      <path clip-path="url(#pf36c4c3612)" d="M 521.084426 319.04 
L 521.084426 25.44 
" style="fill:none;stroke:#000000;stroke-dasharray:0.8,1.32;stroke-dashoffset:0;stroke-opacity:0.5;stroke-width:0.8;"/>
     </g>
     <g id="line2d_70">
      <g>
       <use style="stroke:#000000;stroke-width:0.8;" x="521.084426" xlink:href="#meb8bf231fb" y="319.04"/>
      </g>
     </g>
     <g id="text_37">
      <!-- Aug -->
      <g transform="translate(511.321145 333.638438)scale(0.1 -0.1)">
       <use xlink:href="#DejaVuSans-41"/>
       <use x="68.408203" xlink:href="#DejaVuSans-75"/>
       <use x="131.787109" xlink:href="#DejaVuSans-67"/>
      </g>
     </g>
    </g>
    <g id="xtick_24">
     <g id="line2d_71">
      <path clip-path="url(#pf36c4c3612)" d="M 538.410861 319.04 
L 538.410861 25.44 
" style="fill:none;stroke:#000000;stroke-dasharray:0.8,1.32;stroke-dashoffset:0;stroke-opacity:0.5;stroke-width:0.8;"/>
     </g>
     <g id="line2d_72">
      <g>
       <use style="stroke:#000000;stroke-width:0.8;" x="538.410861" xlink:href="#meb8bf231fb" y="319.04"/>
      </g>
     </g>
     <g id="text_38">
      <!-- 15 -->
      <g transform="translate(532.048361 333.638438)scale(0.1 -0.1)">
       <use xlink:href="#DejaVuSans-31"/>
       <use x="63.623047" xlink:href="#DejaVuSans-35"/>
      </g>
     </g>
    </g>
    <g id="xtick_25">
     <g id="line2d_73">
      <path clip-path="url(#pf36c4c3612)" d="M 559.450102 319.04 
L 559.450102 25.44 
" style="fill:none;stroke:#000000;stroke-dasharray:0.8,1.32;stroke-dashoffset:0;stroke-opacity:0.5;stroke-width:0.8;"/>
     </g>
     <g id="line2d_74">
      <g>
       <use style="stroke:#000000;stroke-width:0.8;" x="559.450102" xlink:href="#meb8bf231fb" y="319.04"/>
      </g>
     </g>
     <g id="text_39">
      <!-- Sep -->
      <g transform="translate(550.025102 333.638438)scale(0.1 -0.1)">
       <use xlink:href="#DejaVuSans-53"/>
       <use x="63.476562" xlink:href="#DejaVuSans-65"/>
       <use x="125" xlink:href="#DejaVuSans-70"/>
      </g>
     </g>
    </g>
    <g id="xtick_26">
     <g id="line2d_75">
      <path clip-path="url(#pf36c4c3612)" d="M 576.776537 319.04 
L 576.776537 25.44 
" style="fill:none;stroke:#000000;stroke-dasharray:0.8,1.32;stroke-dashoffset:0;stroke-opacity:0.5;stroke-width:0.8;"/>
     </g>
     <g id="line2d_76">
      <g>
       <use style="stroke:#000000;stroke-width:0.8;" x="576.776537" xlink:href="#meb8bf231fb" y="319.04"/>
      </g>
     </g>
     <g id="text_40">
      <!-- 15 -->
      <g transform="translate(570.414037 333.638438)scale(0.1 -0.1)">
       <use xlink:href="#DejaVuSans-31"/>
       <use x="63.623047" xlink:href="#DejaVuSans-35"/>
      </g>
     </g>
    </g>
    <g id="xtick_27">
     <g id="line2d_77">
      <path clip-path="url(#pf36c4c3612)" d="M 596.578176 319.04 
L 596.578176 25.44 
" style="fill:none;stroke:#000000;stroke-dasharray:0.8,1.32;stroke-dashoffset:0;stroke-opacity:0.5;stroke-width:0.8;"/>
     </g>
     <g id="line2d_78">
      <g>
       <use style="stroke:#000000;stroke-width:0.8;" x="596.578176" xlink:href="#meb8bf231fb" y="319.04"/>
      </g>
     </g>
     <g id="text_41">
      <!-- Oct -->
      <g transform="translate(587.932864 333.638438)scale(0.1 -0.1)">
       <use xlink:href="#DejaVuSans-4f"/>
       <use x="78.710938" xlink:href="#DejaVuSans-63"/>
       <use x="133.691406" xlink:href="#DejaVuSans-74"/>
      </g>
     </g>
    </g>
    <g id="xtick_28">
     <g id="line2d_79">
      <path clip-path="url(#pf36c4c3612)" d="M 613.904611 319.04 
L 613.904611 25.44 
" style="fill:none;stroke:#000000;stroke-dasharray:0.8,1.32;stroke-dashoffset:0;stroke-opacity:0.5;stroke-width:0.8;"/>
     </g>
     <g id="line2d_80">
      <g>
       <use style="stroke:#000000;stroke-width:0.8;" x="613.904611" xlink:href="#meb8bf231fb" y="319.04"/>
      </g>
     </g>
     <g id="text_42">
      <!-- 15 -->
      <g transform="translate(607.542111 333.638438)scale(0.1 -0.1)">
       <use xlink:href="#DejaVuSans-31"/>
       <use x="63.623047" xlink:href="#DejaVuSans-35"/>
      </g>
     </g>
    </g>
    <g id="xtick_29">
     <g id="line2d_81">
      <path clip-path="url(#pf36c4c3612)" d="M 634.943852 319.04 
L 634.943852 25.44 
" style="fill:none;stroke:#000000;stroke-dasharray:0.8,1.32;stroke-dashoffset:0;stroke-opacity:0.5;stroke-width:0.8;"/>
     </g>
     <g id="line2d_82">
      <g>
       <use style="stroke:#000000;stroke-width:0.8;" x="634.943852" xlink:href="#meb8bf231fb" y="319.04"/>
      </g>
     </g>
     <g id="text_43">
      <!-- Nov -->
      <g transform="translate(625.184477 333.638438)scale(0.1 -0.1)">
       <use xlink:href="#DejaVuSans-4e"/>
       <use x="74.804688" xlink:href="#DejaVuSans-6f"/>
       <use x="135.986328" xlink:href="#DejaVuSans-76"/>
      </g>
     </g>
    </g>
    <g id="xtick_30">
     <g id="line2d_83">
      <path clip-path="url(#pf36c4c3612)" d="M 652.270287 319.04 
L 652.270287 25.44 
" style="fill:none;stroke:#000000;stroke-dasharray:0.8,1.32;stroke-dashoffset:0;stroke-opacity:0.5;stroke-width:0.8;"/>
     </g>
     <g id="line2d_84">
      <g>
       <use style="stroke:#000000;stroke-width:0.8;" x="652.270287" xlink:href="#meb8bf231fb" y="319.04"/>
      </g>
     </g>
     <g id="text_44">
      <!-- 15 -->
      <g transform="translate(645.907787 333.638438)scale(0.1 -0.1)">
       <use xlink:href="#DejaVuSans-31"/>
       <use x="63.623047" xlink:href="#DejaVuSans-35"/>
      </g>
     </g>
    </g>
    <g id="xtick_31">
     <g id="line2d_85">
      <path clip-path="url(#pf36c4c3612)" d="M 672.071926 319.04 
L 672.071926 25.44 
" style="fill:none;stroke:#000000;stroke-dasharray:0.8,1.32;stroke-dashoffset:0;stroke-opacity:0.5;stroke-width:0.8;"/>
     </g>
     <g id="line2d_86">
      <g>
       <use style="stroke:#000000;stroke-width:0.8;" x="672.071926" xlink:href="#meb8bf231fb" y="319.04"/>
      </g>
     </g>
     <g id="text_45">
      <!-- Dec -->
      <g transform="translate(662.396145 333.638438)scale(0.1 -0.1)">
       <use xlink:href="#DejaVuSans-44"/>
       <use x="77.001953" xlink:href="#DejaVuSans-65"/>
       <use x="138.525391" xlink:href="#DejaVuSans-63"/>
      </g>
     </g>
    </g>
    <g id="xtick_32">
     <g id="line2d_87">
      <path clip-path="url(#pf36c4c3612)" d="M 689.398361 319.04 
L 689.398361 25.44 
" style="fill:none;stroke:#000000;stroke-dasharray:0.8,1.32;stroke-dashoffset:0;stroke-opacity:0.5;stroke-width:0.8;"/>
     </g>
     <g id="line2d_88">
      <g>
       <use style="stroke:#000000;stroke-width:0.8;" x="689.398361" xlink:href="#meb8bf231fb" y="319.04"/>
      </g>
     </g>
     <g id="text_46">
      <!-- 15 -->
      <g transform="translate(683.035861 333.638438)scale(0.1 -0.1)">
       <use xlink:href="#DejaVuSans-31"/>
       <use x="63.623047" xlink:href="#DejaVuSans-35"/>
      </g>
     </g>
    </g>
    <g id="text_47">
     <!-- 2021-Dec -->
     <g transform="translate(660.790625 346.316563)scale(0.1 -0.1)">
      <use xlink:href="#DejaVuSans-32"/>
      <use x="63.623047" xlink:href="#DejaVuSans-30"/>
      <use x="127.246094" xlink:href="#DejaVuSans-32"/>
      <use x="190.869141" xlink:href="#DejaVuSans-31"/>
      <use x="254.492188" xlink:href="#DejaVuSans-2d"/>
      <use x="290.576172" xlink:href="#DejaVuSans-44"/>
      <use x="367.578125" xlink:href="#DejaVuSans-65"/>
      <use x="429.101562" xlink:href="#DejaVuSans-63"/>
     </g>
    </g>
   </g>
   <g id="matplotlib.axis_4">
    <g id="ytick_10">
     <g id="line2d_89">
      <path clip-path="url(#pf36c4c3612)" d="M 407.225 319.04 
L 709.2 319.04 
" style="fill:none;stroke:#000000;stroke-dasharray:0.8,1.32;stroke-dashoffset:0;stroke-opacity:0.5;stroke-width:0.8;"/>
     </g>
     <g id="line2d_90">
      <g>
       <use style="stroke:#000000;stroke-width:0.8;" x="407.225" xlink:href="#m0be6ae651a" y="319.04"/>
      </g>
     </g>
     <g id="text_48">
      <!-- 0 -->
      <g transform="translate(393.8625 322.839219)scale(0.1 -0.1)">
       <use xlink:href="#DejaVuSans-30"/>
      </g>
     </g>
    </g>
    <g id="ytick_11">
     <g id="line2d_91">
      <path clip-path="url(#pf36c4c3612)" d="M 407.225 282.34 
L 709.2 282.34 
" style="fill:none;stroke:#000000;stroke-dasharray:0.8,1.32;stroke-dashoffset:0;stroke-opacity:0.5;stroke-width:0.8;"/>
     </g>
     <g id="line2d_92">
      <g>
       <use style="stroke:#000000;stroke-width:0.8;" x="407.225" xlink:href="#m0be6ae651a" y="282.34"/>
      </g>
     </g>
     <g id="text_49">
      <!-- 25 -->
      <g transform="translate(387.5 286.139219)scale(0.1 -0.1)">
       <use xlink:href="#DejaVuSans-32"/>
       <use x="63.623047" xlink:href="#DejaVuSans-35"/>
      </g>
     </g>
    </g>
    <g id="ytick_12">
     <g id="line2d_93">
      <path clip-path="url(#pf36c4c3612)" d="M 407.225 245.64 
L 709.2 245.64 
" style="fill:none;stroke:#000000;stroke-dasharray:0.8,1.32;stroke-dashoffset:0;stroke-opacity:0.5;stroke-width:0.8;"/>
     </g>
     <g id="line2d_94">
      <g>
       <use style="stroke:#000000;stroke-width:0.8;" x="407.225" xlink:href="#m0be6ae651a" y="245.64"/>
      </g>
     </g>
     <g id="text_50">
      <!-- 50 -->
      <g transform="translate(387.5 249.439219)scale(0.1 -0.1)">
       <use xlink:href="#DejaVuSans-35"/>
       <use x="63.623047" xlink:href="#DejaVuSans-30"/>
      </g>
     </g>
    </g>
    <g id="ytick_13">
     <g id="line2d_95">
      <path clip-path="url(#pf36c4c3612)" d="M 407.225 208.94 
L 709.2 208.94 
" style="fill:none;stroke:#000000;stroke-dasharray:0.8,1.32;stroke-dashoffset:0;stroke-opacity:0.5;stroke-width:0.8;"/>
     </g>
     <g id="line2d_96">
      <g>
       <use style="stroke:#000000;stroke-width:0.8;" x="407.225" xlink:href="#m0be6ae651a" y="208.94"/>
      </g>
     </g>
     <g id="text_51">
      <!-- 75 -->
      <g transform="translate(387.5 212.739219)scale(0.1 -0.1)">
       <use xlink:href="#DejaVuSans-37"/>
       <use x="63.623047" xlink:href="#DejaVuSans-35"/>
      </g>
     </g>
    </g>
    <g id="ytick_14">
     <g id="line2d_97">
      <path clip-path="url(#pf36c4c3612)" d="M 407.225 172.24 
L 709.2 172.24 
" style="fill:none;stroke:#000000;stroke-dasharray:0.8,1.32;stroke-dashoffset:0;stroke-opacity:0.5;stroke-width:0.8;"/>
     </g>
     <g id="line2d_98">
      <g>
       <use style="stroke:#000000;stroke-width:0.8;" x="407.225" xlink:href="#m0be6ae651a" y="172.24"/>
      </g>
     </g>
     <g id="text_52">
      <!-- 100 -->
      <g transform="translate(381.1375 176.039219)scale(0.1 -0.1)">
       <use xlink:href="#DejaVuSans-31"/>
       <use x="63.623047" xlink:href="#DejaVuSans-30"/>
       <use x="127.246094" xlink:href="#DejaVuSans-30"/>
      </g>
     </g>
    </g>
    <g id="ytick_15">
     <g id="line2d_99">
      <path clip-path="url(#pf36c4c3612)" d="M 407.225 135.54 
L 709.2 135.54 
" style="fill:none;stroke:#000000;stroke-dasharray:0.8,1.32;stroke-dashoffset:0;stroke-opacity:0.5;stroke-width:0.8;"/>
     </g>
     <g id="line2d_100">
      <g>
       <use style="stroke:#000000;stroke-width:0.8;" x="407.225" xlink:href="#m0be6ae651a" y="135.54"/>
      </g>
     </g>
     <g id="text_53">
      <!-- 125 -->
      <g transform="translate(381.1375 139.339219)scale(0.1 -0.1)">
       <use xlink:href="#DejaVuSans-31"/>
       <use x="63.623047" xlink:href="#DejaVuSans-32"/>
       <use x="127.246094" xlink:href="#DejaVuSans-35"/>
      </g>
     </g>
    </g>
    <g id="ytick_16">
     <g id="line2d_101">
      <path clip-path="url(#pf36c4c3612)" d="M 407.225 98.84 
L 709.2 98.84 
" style="fill:none;stroke:#000000;stroke-dasharray:0.8,1.32;stroke-dashoffset:0;stroke-opacity:0.5;stroke-width:0.8;"/>
     </g>
     <g id="line2d_102">
      <g>
       <use style="stroke:#000000;stroke-width:0.8;" x="407.225" xlink:href="#m0be6ae651a" y="98.84"/>
      </g>
     </g>
     <g id="text_54">
      <!-- 150 -->
      <g transform="translate(381.1375 102.639219)scale(0.1 -0.1)">
       <use xlink:href="#DejaVuSans-31"/>
       <use x="63.623047" xlink:href="#DejaVuSans-35"/>
       <use x="127.246094" xlink:href="#DejaVuSans-30"/>
      </g>
     </g>
    </g>
    <g id="ytick_17">
     <g id="line2d_103">
      <path clip-path="url(#pf36c4c3612)" d="M 407.225 62.14 
L 709.2 62.14 
" style="fill:none;stroke:#000000;stroke-dasharray:0.8,1.32;stroke-dashoffset:0;stroke-opacity:0.5;stroke-width:0.8;"/>
     </g>
     <g id="line2d_104">
      <g>
       <use style="stroke:#000000;stroke-width:0.8;" x="407.225" xlink:href="#m0be6ae651a" y="62.14"/>
      </g>
     </g>
     <g id="text_55">
      <!-- 175 -->
      <g transform="translate(381.1375 65.939219)scale(0.1 -0.1)">
       <use xlink:href="#DejaVuSans-31"/>
       <use x="63.623047" xlink:href="#DejaVuSans-37"/>
       <use x="127.246094" xlink:href="#DejaVuSans-35"/>
      </g>
     </g>
    </g>
    <g id="ytick_18">
     <g id="line2d_105">
      <path clip-path="url(#pf36c4c3612)" d="M 407.225 25.44 
L 709.2 25.44 
" style="fill:none;stroke:#000000;stroke-dasharray:0.8,1.32;stroke-dashoffset:0;stroke-opacity:0.5;stroke-width:0.8;"/>
     </g>
     <g id="line2d_106">
      <g>
       <use style="stroke:#000000;stroke-width:0.8;" x="407.225" xlink:href="#m0be6ae651a" y="25.44"/>
      </g>
     </g>
     <g id="text_56">
      <!-- 200 -->
      <g transform="translate(381.1375 29.239219)scale(0.1 -0.1)">
       <use xlink:href="#DejaVuSans-32"/>
       <use x="63.623047" xlink:href="#DejaVuSans-30"/>
       <use x="127.246094" xlink:href="#DejaVuSans-30"/>
      </g>
     </g>
    </g>
    <g id="text_57">
     <!-- cumulative doses per hundred population -->
     <g transform="translate(375.057813 276.698594)rotate(-90)scale(0.1 -0.1)">
      <use xlink:href="#DejaVuSans-63"/>
      <use x="54.980469" xlink:href="#DejaVuSans-75"/>
      <use x="118.359375" xlink:href="#DejaVuSans-6d"/>
      <use x="215.771484" xlink:href="#DejaVuSans-75"/>
      <use x="279.150391" xlink:href="#DejaVuSans-6c"/>
      <use x="306.933594" xlink:href="#DejaVuSans-61"/>
      <use x="368.212891" xlink:href="#DejaVuSans-74"/>
      <use x="407.421875" xlink:href="#DejaVuSans-69"/>
      <use x="435.205078" xlink:href="#DejaVuSans-76"/>
      <use x="494.384766" xlink:href="#DejaVuSans-65"/>
      <use x="555.908203" xlink:href="#DejaVuSans-20"/>
      <use x="587.695312" xlink:href="#DejaVuSans-64"/>
      <use x="651.171875" xlink:href="#DejaVuSans-6f"/>
      <use x="712.353516" xlink:href="#DejaVuSans-73"/>
      <use x="764.453125" xlink:href="#DejaVuSans-65"/>
      <use x="825.976562" xlink:href="#DejaVuSans-73"/>
      <use x="878.076172" xlink:href="#DejaVuSans-20"/>
      <use x="909.863281" xlink:href="#DejaVuSans-70"/>
      <use x="973.339844" xlink:href="#DejaVuSans-65"/>
      <use x="1034.863281" xlink:href="#DejaVuSans-72"/>
      <use x="1075.976562" xlink:href="#DejaVuSans-20"/>
      <use x="1107.763672" xlink:href="#DejaVuSans-68"/>
      <use x="1171.142578" xlink:href="#DejaVuSans-75"/>
      <use x="1234.521484" xlink:href="#DejaVuSans-6e"/>
      <use x="1297.900391" xlink:href="#DejaVuSans-64"/>
      <use x="1361.376953" xlink:href="#DejaVuSans-72"/>
      <use x="1400.240234" xlink:href="#DejaVuSans-65"/>
      <use x="1461.763672" xlink:href="#DejaVuSans-64"/>
      <use x="1525.240234" xlink:href="#DejaVuSans-20"/>
      <use x="1557.027344" xlink:href="#DejaVuSans-70"/>
      <use x="1620.503906" xlink:href="#DejaVuSans-6f"/>
      <use x="1681.685547" xlink:href="#DejaVuSans-70"/>
      <use x="1745.162109" xlink:href="#DejaVuSans-75"/>
      <use x="1808.541016" xlink:href="#DejaVuSans-6c"/>
      <use x="1836.324219" xlink:href="#DejaVuSans-61"/>
      <use x="1897.603516" xlink:href="#DejaVuSans-74"/>
      <use x="1936.8125" xlink:href="#DejaVuSans-69"/>
      <use x="1964.595703" xlink:href="#DejaVuSans-6f"/>
      <use x="2025.777344" xlink:href="#DejaVuSans-6e"/>
     </g>
    </g>
   </g>
   <g id="line2d_107">
    <path clip-path="url(#pf36c4c3612)" d="M 314.404816 319.04 
L 326.78084 318.939306 
L 326.78084 318.90269 
L 332.968852 318.812541 
L 332.968852 318.772703 
L 339.156865 318.675781 
L 339.156865 318.641563 
L 342.869672 318.545684 
L 342.869672 318.466722 
L 347.820082 318.3659 
L 347.820082 318.35248 
L 350.295287 318.281243 
L 350.295287 318.18282 
L 356.483299 318.095179 
L 356.483299 317.852104 
L 357.720902 317.852104 
L 357.720902 317.70456 
L 361.433709 317.70456 
L 361.433709 317.407 
L 362.671311 317.407 
L 362.671311 317.277434 
L 368.859324 317.209201 
L 368.859324 316.890641 
L 370.096926 316.890641 
L 370.096926 316.763291 
L 376.284939 316.708678 
L 376.284939 316.580815 
L 377.522541 316.580815 
L 377.522541 316.466793 
L 378.760143 316.466793 
L 378.760143 313.25125 
L 379.997746 313.25125 
L 379.997746 312.901879 
L 381.235348 312.901879 
L 381.235348 312.772899 
L 383.710553 312.736228 
L 383.710553 312.414227 
L 384.948156 312.414227 
L 384.948156 312.033768 
L 386.185758 312.033768 
L 386.185758 311.659352 
L 387.423361 311.659352 
L 387.423361 311.305238 
L 388.660963 311.305238 
L 388.660963 310.977232 
L 389.898566 310.977232 
L 389.898566 310.851951 
L 391.136168 310.851951 
L 391.136168 310.456773 
L 392.37377 310.456773 
L 392.37377 310.091839 
L 393.611373 310.091839 
L 393.611373 309.712095 
L 394.848975 309.712095 
L 394.848975 309.327041 
L 396.086578 309.327041 
L 396.086578 308.964342 
L 397.32418 308.964342 
L 397.32418 308.637745 
L 399.799385 308.533188 
L 399.799385 308.523577 
L 401.036988 308.523577 
L 401.036988 308.273984 
L 402.27459 308.273984 
L 402.27459 307.967142 
L 403.512193 307.967142 
L 403.512193 307.501972 
L 404.749795 307.501972 
L 404.749795 307.141671 
L 405.987398 307.141671 
L 405.987398 306.824119 
L 409.700205 306.71363 
L 409.700205 306.386686 
L 410.937807 306.386686 
L 410.937807 305.981457 
L 412.17541 305.981457 
L 412.17541 305.580823 
L 413.413012 305.580823 
L 413.413012 305.176747 
L 414.650615 305.176747 
L 414.650615 304.781514 
L 415.888217 304.781514 
L 415.888217 304.647097 
L 418.363422 304.626592 
L 418.363422 304.242545 
L 419.601025 304.242545 
L 419.601025 303.787701 
L 420.838627 303.787701 
L 420.838627 303.308929 
L 422.07623 303.308929 
L 422.07623 302.798026 
L 423.313832 302.798026 
L 423.313832 302.31323 
L 424.551434 302.31323 
L 424.551434 302.082366 
L 427.026639 302.059994 
L 427.026639 301.541072 
L 428.264242 301.541072 
L 428.264242 300.975392 
L 429.501844 300.975392 
L 429.501844 300.39371 
L 430.739447 300.39371 
L 430.739447 299.770231 
L 431.977049 299.770231 
L 431.977049 299.186316 
L 433.214652 299.186316 
L 433.214652 298.946701 
L 435.689857 298.914204 
L 435.689857 298.373899 
L 436.927459 298.373899 
L 436.927459 297.752049 
L 438.165061 297.752049 
L 438.165061 297.094481 
L 439.402664 297.094481 
L 439.402664 296.40665 
L 440.640266 296.40665 
L 440.640266 295.752102 
L 441.877869 295.752102 
L 441.877869 295.45976 
L 444.353074 295.423346 
L 444.353074 294.773888 
L 445.590676 294.773888 
L 445.590676 294.08223 
L 446.828279 294.08223 
L 446.828279 293.34299 
L 448.065881 293.34299 
L 448.065881 292.579144 
L 449.303484 292.579144 
L 449.303484 291.920532 
L 450.541086 291.920532 
L 450.541086 291.61347 
L 453.016291 291.563398 
L 453.016291 290.899257 
L 454.253893 290.899257 
L 454.253893 290.176384 
L 455.491496 290.176384 
L 455.491496 289.4822 
L 456.729098 289.4822 
L 456.729098 288.726007 
L 457.966701 288.726007 
L 457.966701 288.060895 
L 459.204303 288.060895 
L 459.204303 287.822928 
L 461.679508 287.800867 
L 461.679508 287.544134 
L 462.917111 287.544134 
L 462.917111 286.803869 
L 464.154713 286.803869 
L 464.154713 286.08149 
L 465.392316 286.08149 
L 465.392316 285.316381 
L 466.629918 285.316381 
L 466.629918 284.629904 
L 467.86752 284.629904 
L 467.86752 284.313597 
L 470.342725 284.270591 
L 470.342725 283.588893 
L 471.580328 283.588893 
L 471.580328 282.86959 
L 472.81793 282.86959 
L 472.81793 282.142269 
L 474.055533 282.142269 
L 474.055533 281.354915 
L 475.293135 281.354915 
L 475.293135 280.698024 
L 476.530738 280.698024 
L 476.530738 280.327324 
L 477.76834 280.327324 
L 477.76834 280.095691 
L 479.005943 280.095691 
L 479.005943 279.398248 
L 480.243545 279.398248 
L 480.243545 278.555897 
L 481.481148 278.555897 
L 481.481148 277.668637 
L 482.71875 277.668637 
L 482.71875 276.700419 
L 483.956352 276.700419 
L 483.956352 275.794484 
L 485.193955 275.794484 
L 485.193955 275.313094 
L 486.431557 275.313094 
L 486.431557 274.993674 
L 487.66916 274.993674 
L 487.66916 274.120236 
L 488.906762 274.120236 
L 488.906762 273.16833 
L 490.144365 273.16833 
L 490.144365 272.24103 
L 491.381967 272.24103 
L 491.381967 271.216643 
L 492.61957 271.216643 
L 492.61957 270.28288 
L 493.857172 270.28288 
L 493.857172 269.750795 
L 495.094775 269.750795 
L 495.094775 269.45924 
L 496.332377 269.45924 
L 496.332377 268.452337 
L 497.56998 268.452337 
L 497.56998 267.290603 
L 498.807582 267.290603 
L 498.807582 266.219439 
L 500.045184 266.219439 
L 500.045184 264.998278 
L 501.282787 264.998278 
L 501.282787 263.851392 
L 502.520389 263.851392 
L 502.520389 263.181813 
L 503.757992 263.181813 
L 503.757992 262.807159 
L 504.995594 262.807159 
L 504.995594 261.616388 
L 506.233197 261.616388 
L 506.233197 260.392481 
L 507.470799 260.392481 
L 507.470799 259.2042 
L 508.708402 259.2042 
L 508.708402 257.819164 
L 509.946004 257.819164 
L 509.946004 256.534089 
L 511.183607 256.534089 
L 511.183607 255.788954 
L 512.421209 255.788954 
L 512.421209 255.359649 
L 513.658811 255.359649 
L 513.658811 254.052532 
L 514.896414 254.052532 
L 514.896414 252.644153 
L 516.134016 252.644153 
L 516.134016 251.191981 
L 517.371619 251.191981 
L 517.371619 249.660755 
L 518.609221 249.660755 
L 518.609221 248.155472 
L 519.846824 248.155472 
L 519.846824 247.316398 
L 521.084426 247.316398 
L 521.084426 246.842441 
L 522.322029 246.842441 
L 522.322029 245.293163 
L 523.559631 245.293163 
L 523.559631 243.745314 
L 524.797234 243.745314 
L 524.797234 242.214399 
L 526.034836 242.214399 
L 526.034836 240.500295 
L 527.272439 240.500295 
L 527.272439 238.861748 
L 528.510041 238.861748 
L 528.510041 237.79408 
L 529.747643 237.79408 
L 529.747643 237.327538 
L 530.985246 237.327538 
L 530.985246 235.528887 
L 532.222848 235.528887 
L 532.222848 233.577401 
L 533.460451 233.577401 
L 533.460451 231.65389 
L 534.698053 231.65389 
L 534.698053 229.707183 
L 535.935656 229.707183 
L 535.935656 227.77395 
L 537.173258 227.77395 
L 537.173258 226.572323 
L 538.410861 226.572323 
L 538.410861 226.093201 
L 539.648463 226.093201 
L 539.648463 224.185448 
L 540.886066 224.185448 
L 540.886066 222.21607 
L 542.123668 222.21607 
L 542.123668 219.835217 
L 543.36127 219.835217 
L 543.36127 217.667535 
L 544.598873 217.667535 
L 544.598873 215.379713 
L 545.836475 215.379713 
L 545.836475 213.952647 
L 547.074078 213.952647 
L 547.074078 212.878234 
L 548.31168 212.878234 
L 548.31168 210.637494 
L 549.549283 210.637494 
L 549.549283 208.286393 
L 550.786885 208.286393 
L 550.786885 205.716099 
L 552.024488 205.716099 
L 552.024488 203.227006 
L 553.26209 203.227006 
L 553.26209 200.733707 
L 554.499693 200.733707 
L 554.499693 199.503902 
L 555.737295 199.503902 
L 555.737295 198.210567 
L 556.974898 198.210567 
L 556.974898 195.544635 
L 558.2125 195.544635 
L 558.2125 193.366364 
L 559.450102 193.366364 
L 559.450102 190.851134 
L 560.687705 190.851134 
L 560.687705 188.788707 
L 561.925307 188.788707 
L 561.925307 186.465039 
L 563.16291 186.465039 
L 563.16291 184.762655 
L 564.400512 184.762655 
L 564.400512 183.898843 
L 565.638115 183.898843 
L 565.638115 182.15229 
L 566.875717 182.15229 
L 566.875717 180.220574 
L 568.11332 180.220574 
L 568.11332 178.170066 
L 569.350922 178.170066 
L 569.350922 175.99158 
L 570.588525 175.99158 
L 570.588525 175.99158 
" style="fill:none;stroke:#1f77b4;stroke-linecap:square;stroke-width:1.5;"/>
   </g>
   <g id="line2d_108">
    <path clip-path="url(#pf36c4c3612)" d="M 570.588525 173.64278 
L 570.588525 171.29398 
L 571.826127 171.29398 
L 571.826127 168.94518 
L 573.06373 168.94518 
L 573.06373 166.59638 
L 574.301332 166.59638 
L 574.301332 164.24758 
L 575.538934 164.24758 
L 575.538934 161.89878 
L 576.776537 161.89878 
L 576.776537 159.54998 
L 578.014139 159.54998 
L 578.014139 157.20118 
L 579.251742 157.20118 
L 579.251742 154.85238 
L 580.489344 154.85238 
L 580.489344 152.50358 
L 581.726947 152.50358 
L 581.726947 150.15478 
L 582.964549 150.15478 
L 582.964549 147.80598 
L 584.202152 147.80598 
L 584.202152 145.45718 
L 585.439754 145.45718 
L 585.439754 143.10838 
L 586.677357 143.10838 
L 586.677357 140.75958 
L 587.914959 140.75958 
L 587.914959 138.41078 
L 589.152561 138.41078 
L 589.152561 136.06198 
L 590.390164 136.06198 
L 590.390164 133.71318 
L 591.627766 133.71318 
L 591.627766 131.36438 
L 592.865369 131.36438 
L 592.865369 129.01558 
L 594.102971 129.01558 
L 594.102971 126.66678 
L 595.340574 126.66678 
L 595.340574 124.02438 
L 596.578176 124.02438 
L 596.578176 121.38198 
L 597.815779 121.38198 
L 597.815779 118.73958 
L 599.053381 118.73958 
L 599.053381 116.09718 
L 600.290984 116.09718 
L 600.290984 113.45478 
L 601.528586 113.45478 
L 601.528586 110.81238 
L 602.766189 110.81238 
L 602.766189 108.16998 
L 604.003791 108.16998 
L 604.003791 105.52758 
L 605.241393 105.52758 
L 605.241393 102.88518 
L 606.478996 102.88518 
L 606.478996 100.24278 
L 607.716598 100.24278 
L 607.716598 97.60038 
L 608.954201 97.60038 
L 608.954201 94.95798 
L 610.191803 94.95798 
L 610.191803 92.31558 
L 611.429406 92.31558 
L 611.429406 89.67318 
L 612.667008 89.67318 
L 612.667008 87.03078 
L 613.904611 87.03078 
L 613.904611 84.38838 
L 615.142213 84.38838 
L 615.142213 81.74598 
L 616.379816 81.74598 
L 616.379816 79.10358 
L 617.617418 79.10358 
L 617.617418 76.46118 
L 618.85502 76.46118 
L 618.85502 73.81878 
L 620.092623 73.81878 
L 620.092623 71.17638 
L 721 71.17638 
L 721 71.17638 
" style="fill:none;stroke:#ff7f0e;stroke-linecap:square;stroke-width:1.5;"/>
   </g>
   <g id="patch_9">
    <path d="M 407.225 319.04 
L 407.225 25.44 
" style="fill:none;stroke:#000000;stroke-linecap:square;stroke-linejoin:miter;stroke-width:0.8;"/>
   </g>
   <g id="patch_10">
    <path d="M 709.2 319.04 
L 709.2 25.44 
" style="fill:none;stroke:#000000;stroke-linecap:square;stroke-linejoin:miter;stroke-width:0.8;"/>
   </g>
   <g id="patch_11">
    <path d="M 407.225 319.04 
L 709.2 319.04 
" style="fill:none;stroke:#000000;stroke-linecap:square;stroke-linejoin:miter;stroke-width:0.8;"/>
   </g>
   <g id="patch_12">
    <path d="M 407.225 25.44 
L 709.2 25.44 
" style="fill:none;stroke:#000000;stroke-linecap:square;stroke-linejoin:miter;stroke-width:0.8;"/>
   </g>
   <g id="text_58">
    <!-- NSW cumulative vaccinations per capita -->
    <g transform="translate(436.960938 19.44)scale(0.12 -0.12)">
     <use xlink:href="#DejaVuSans-4e"/>
     <use x="74.804688" xlink:href="#DejaVuSans-53"/>
     <use x="138.28125" xlink:href="#DejaVuSans-57"/>
     <use x="237.158203" xlink:href="#DejaVuSans-20"/>
     <use x="268.945312" xlink:href="#DejaVuSans-63"/>
     <use x="323.925781" xlink:href="#DejaVuSans-75"/>
     <use x="387.304688" xlink:href="#DejaVuSans-6d"/>
     <use x="484.716797" xlink:href="#DejaVuSans-75"/>
     <use x="548.095703" xlink:href="#DejaVuSans-6c"/>
     <use x="575.878906" xlink:href="#DejaVuSans-61"/>
     <use x="637.158203" xlink:href="#DejaVuSans-74"/>
     <use x="676.367188" xlink:href="#DejaVuSans-69"/>
     <use x="704.150391" xlink:href="#DejaVuSans-76"/>
     <use x="763.330078" xlink:href="#DejaVuSans-65"/>
     <use x="824.853516" xlink:href="#DejaVuSans-20"/>
     <use x="856.640625" xlink:href="#DejaVuSans-76"/>
     <use x="915.820312" xlink:href="#DejaVuSans-61"/>
     <use x="977.099609" xlink:href="#DejaVuSans-63"/>
     <use x="1032.080078" xlink:href="#DejaVuSans-63"/>
     <use x="1087.060547" xlink:href="#DejaVuSans-69"/>
     <use x="1114.84375" xlink:href="#DejaVuSans-6e"/>
     <use x="1178.222656" xlink:href="#DejaVuSans-61"/>
     <use x="1239.501953" xlink:href="#DejaVuSans-74"/>
     <use x="1278.710938" xlink:href="#DejaVuSans-69"/>
     <use x="1306.494141" xlink:href="#DejaVuSans-6f"/>
     <use x="1367.675781" xlink:href="#DejaVuSans-6e"/>
     <use x="1431.054688" xlink:href="#DejaVuSans-73"/>
     <use x="1483.154297" xlink:href="#DejaVuSans-20"/>
     <use x="1514.941406" xlink:href="#DejaVuSans-70"/>
     <use x="1578.417969" xlink:href="#DejaVuSans-65"/>
     <use x="1639.941406" xlink:href="#DejaVuSans-72"/>
     <use x="1681.054688" xlink:href="#DejaVuSans-20"/>
     <use x="1712.841797" xlink:href="#DejaVuSans-63"/>
     <use x="1767.822266" xlink:href="#DejaVuSans-61"/>
     <use x="1829.101562" xlink:href="#DejaVuSans-70"/>
     <use x="1892.578125" xlink:href="#DejaVuSans-69"/>
     <use x="1920.361328" xlink:href="#DejaVuSans-74"/>
     <use x="1959.570312" xlink:href="#DejaVuSans-61"/>
    </g>
   </g>
   <g id="legend_2">
    <g id="patch_13">
     <path d="M 554.317187 62.79625 
L 702.2 62.79625 
Q 704.2 62.79625 704.2 60.79625 
L 704.2 32.44 
Q 704.2 30.44 702.2 30.44 
L 554.317187 30.44 
Q 552.317187 30.44 552.317187 32.44 
L 552.317187 60.79625 
Q 552.317187 62.79625 554.317187 62.79625 
z
" style="fill:#ffffff;opacity:0.8;stroke:#cccccc;stroke-linejoin:miter;"/>
    </g>
    <g id="line2d_109">
     <path d="M 556.317187 38.538437 
L 576.317187 38.538437 
" style="fill:none;stroke:#1f77b4;stroke-linecap:square;stroke-width:1.5;"/>
    </g>
    <g id="line2d_110"/>
    <g id="text_59">
     <!-- Actual -->
     <g transform="translate(584.317187 42.038437)scale(0.1 -0.1)">
      <use xlink:href="#DejaVuSans-41"/>
      <use x="66.658203" xlink:href="#DejaVuSans-63"/>
      <use x="121.638672" xlink:href="#DejaVuSans-74"/>
      <use x="160.847656" xlink:href="#DejaVuSans-75"/>
      <use x="224.226562" xlink:href="#DejaVuSans-61"/>
      <use x="285.505859" xlink:href="#DejaVuSans-6c"/>
     </g>
    </g>
    <g id="line2d_111">
     <path d="M 556.317187 53.216563 
L 576.317187 53.216563 
" style="fill:none;stroke:#ff7f0e;stroke-linecap:square;stroke-width:1.5;"/>
    </g>
    <g id="line2d_112"/>
    <g id="text_60">
     <!-- Assumed for projection -->
     <g transform="translate(584.317187 56.716563)scale(0.1 -0.1)">
      <use xlink:href="#DejaVuSans-41"/>
      <use x="68.408203" xlink:href="#DejaVuSans-73"/>
      <use x="120.507812" xlink:href="#DejaVuSans-73"/>
      <use x="172.607422" xlink:href="#DejaVuSans-75"/>
      <use x="235.986328" xlink:href="#DejaVuSans-6d"/>
      <use x="333.398438" xlink:href="#DejaVuSans-65"/>
      <use x="394.921875" xlink:href="#DejaVuSans-64"/>
      <use x="458.398438" xlink:href="#DejaVuSans-20"/>
      <use x="490.185547" xlink:href="#DejaVuSans-66"/>
      <use x="525.390625" xlink:href="#DejaVuSans-6f"/>
      <use x="586.572266" xlink:href="#DejaVuSans-72"/>
      <use x="627.685547" xlink:href="#DejaVuSans-20"/>
      <use x="659.472656" xlink:href="#DejaVuSans-70"/>
      <use x="722.949219" xlink:href="#DejaVuSans-72"/>
      <use x="761.8125" xlink:href="#DejaVuSans-6f"/>
      <use x="822.994141" xlink:href="#DejaVuSans-6a"/>
      <use x="850.777344" xlink:href="#DejaVuSans-65"/>
      <use x="912.300781" xlink:href="#DejaVuSans-63"/>
      <use x="967.28125" xlink:href="#DejaVuSans-74"/>
      <use x="1006.490234" xlink:href="#DejaVuSans-69"/>
      <use x="1034.273438" xlink:href="#DejaVuSans-6f"/>
      <use x="1095.455078" xlink:href="#DejaVuSans-6e"/>
     </g>
    </g>
   </g>
  </g>
 </g>
 <defs>
  <clipPath id="pcd7bdabf12">
   <rect height="293.6" width="301.975" x="54.2" y="25.44"/>
  </clipPath>
  <clipPath id="pf36c4c3612">
   <rect height="293.6" width="301.975" x="407.225" y="25.44"/>
  </clipPath>
 </defs>
</svg>
