<?xml version="1.0" encoding="utf-8" standalone="no"?>
<!DOCTYPE svg PUBLIC "-//W3C//DTD SVG 1.1//EN"
  "http://www.w3.org/Graphics/SVG/1.1/DTD/svg11.dtd">
<svg xmlns:xlink="http://www.w3.org/1999/xlink" width="720pt" height="360pt" viewBox="0 0 720 360" xmlns="http://www.w3.org/2000/svg" version="1.1">
 <metadata>
  <rdf:RDF xmlns:dc="http://purl.org/dc/elements/1.1/" xmlns:cc="http://creativecommons.org/ns#" xmlns:rdf="http://www.w3.org/1999/02/22-rdf-syntax-ns#">
   <cc:Work>
    <dc:type rdf:resource="http://purl.org/dc/dcmitype/StillImage"/>
    <dc:date>2021-11-22T11:30:14.146015</dc:date>
    <dc:format>image/svg+xml</dc:format>
    <dc:creator>
     <cc:Agent>
      <dc:title>Matplotlib v3.5.0, https://matplotlib.org/</dc:title>
     </cc:Agent>
    </dc:creator>
   </cc:Work>
  </rdf:RDF>
 </metadata>
 <defs>
  <style type="text/css">*{stroke-linejoin: round; stroke-linecap: butt}</style>
 </defs>
 <g id="figure_1">
  <g id="patch_1">
   <path d="M 0 360 
L 720 360 
L 720 0 
L 0 0 
z
" style="fill: #ffffff"/>
  </g>
  <g id="axes_1">
   <g id="patch_2">
    <path d="M 54.2 319.04 
L 356.175 319.04 
L 356.175 25.44 
L 54.2 25.44 
z
" style="fill: #ffffff"/>
   </g>
   <g id="matplotlib.axis_1">
    <g id="xtick_1">
     <g id="line2d_1">
      <path d="M 54.2 319.04 
L 54.2 25.44 
" clip-path="url(#pa3169d9ef3)" style="fill: none; stroke-dasharray: 0.8,1.32; stroke-dashoffset: 0; stroke: #000000; stroke-opacity: 0.5; stroke-width: 0.8"/>
     </g>
     <g id="line2d_2">
      <defs>
       <path id="m8ee3f89b02" d="M 0 0 
L 0 3.5 
" style="stroke: #000000; stroke-width: 0.8"/>
      </defs>
      <g>
       <use xlink:href="#m8ee3f89b02" x="54.2" y="319.04" style="stroke: #000000; stroke-width: 0.8"/>
      </g>
     </g>
     <g id="text_1">
      <!-- May -->
      <g transform="translate(43.8625 333.638438)scale(0.1 -0.1)">
       <defs>
        <path id="DejaVuSans-4d" d="M 628 4666 
L 1569 4666 
L 2759 1491 
L 3956 4666 
L 4897 4666 
L 4897 0 
L 4281 0 
L 4281 4097 
L 3078 897 
L 2444 897 
L 1241 4097 
L 1241 0 
L 628 0 
L 628 4666 
z
" transform="scale(0.015625)"/>
        <path id="DejaVuSans-61" d="M 2194 1759 
Q 1497 1759 1228 1600 
Q 959 1441 959 1056 
Q 959 750 1161 570 
Q 1363 391 1709 391 
Q 2188 391 2477 730 
Q 2766 1069 2766 1631 
L 2766 1759 
L 2194 1759 
z
M 3341 1997 
L 3341 0 
L 2766 0 
L 2766 531 
Q 2569 213 2275 61 
Q 1981 -91 1556 -91 
Q 1019 -91 701 211 
Q 384 513 384 1019 
Q 384 1609 779 1909 
Q 1175 2209 1959 2209 
L 2766 2209 
L 2766 2266 
Q 2766 2663 2505 2880 
Q 2244 3097 1772 3097 
Q 1472 3097 1187 3025 
Q 903 2953 641 2809 
L 641 3341 
Q 956 3463 1253 3523 
Q 1550 3584 1831 3584 
Q 2591 3584 2966 3190 
Q 3341 2797 3341 1997 
z
" transform="scale(0.015625)"/>
        <path id="DejaVuSans-79" d="M 2059 -325 
Q 1816 -950 1584 -1140 
Q 1353 -1331 966 -1331 
L 506 -1331 
L 506 -850 
L 844 -850 
Q 1081 -850 1212 -737 
Q 1344 -625 1503 -206 
L 1606 56 
L 191 3500 
L 800 3500 
L 1894 763 
L 2988 3500 
L 3597 3500 
L 2059 -325 
z
" transform="scale(0.015625)"/>
       </defs>
       <use xlink:href="#DejaVuSans-4d"/>
       <use xlink:href="#DejaVuSans-61" x="86.279297"/>
       <use xlink:href="#DejaVuSans-79" x="147.558594"/>
      </g>
     </g>
    </g>
    <g id="xtick_2">
     <g id="line2d_3">
      <path d="M 69.573273 319.04 
L 69.573273 25.44 
" clip-path="url(#pa3169d9ef3)" style="fill: none; stroke-dasharray: 0.8,1.32; stroke-dashoffset: 0; stroke: #000000; stroke-opacity: 0.5; stroke-width: 0.8"/>
     </g>
     <g id="line2d_4">
      <g>
       <use xlink:href="#m8ee3f89b02" x="69.573273" y="319.04" style="stroke: #000000; stroke-width: 0.8"/>
      </g>
     </g>
     <g id="text_2">
      <!-- 15 -->
      <g transform="translate(63.210773 333.638438)scale(0.1 -0.1)">
       <defs>
        <path id="DejaVuSans-31" d="M 794 531 
L 1825 531 
L 1825 4091 
L 703 3866 
L 703 4441 
L 1819 4666 
L 2450 4666 
L 2450 531 
L 3481 531 
L 3481 0 
L 794 0 
L 794 531 
z
" transform="scale(0.015625)"/>
        <path id="DejaVuSans-35" d="M 691 4666 
L 3169 4666 
L 3169 4134 
L 1269 4134 
L 1269 2991 
Q 1406 3038 1543 3061 
Q 1681 3084 1819 3084 
Q 2600 3084 3056 2656 
Q 3513 2228 3513 1497 
Q 3513 744 3044 326 
Q 2575 -91 1722 -91 
Q 1428 -91 1123 -41 
Q 819 9 494 109 
L 494 744 
Q 775 591 1075 516 
Q 1375 441 1709 441 
Q 2250 441 2565 725 
Q 2881 1009 2881 1497 
Q 2881 1984 2565 2268 
Q 2250 2553 1709 2553 
Q 1456 2553 1204 2497 
Q 953 2441 691 2322 
L 691 4666 
z
" transform="scale(0.015625)"/>
       </defs>
       <use xlink:href="#DejaVuSans-31"/>
       <use xlink:href="#DejaVuSans-35" x="63.623047"/>
      </g>
     </g>
    </g>
    <g id="xtick_3">
     <g id="line2d_5">
      <path d="M 88.240818 319.04 
L 88.240818 25.44 
" clip-path="url(#pa3169d9ef3)" style="fill: none; stroke-dasharray: 0.8,1.32; stroke-dashoffset: 0; stroke: #000000; stroke-opacity: 0.5; stroke-width: 0.8"/>
     </g>
     <g id="line2d_6">
      <g>
       <use xlink:href="#m8ee3f89b02" x="88.240818" y="319.04" style="stroke: #000000; stroke-width: 0.8"/>
      </g>
     </g>
     <g id="text_3">
      <!-- Jun -->
      <g transform="translate(80.428318 333.638438)scale(0.1 -0.1)">
       <defs>
        <path id="DejaVuSans-4a" d="M 628 4666 
L 1259 4666 
L 1259 325 
Q 1259 -519 939 -900 
Q 619 -1281 -91 -1281 
L -331 -1281 
L -331 -750 
L -134 -750 
Q 284 -750 456 -515 
Q 628 -281 628 325 
L 628 4666 
z
" transform="scale(0.015625)"/>
        <path id="DejaVuSans-75" d="M 544 1381 
L 544 3500 
L 1119 3500 
L 1119 1403 
Q 1119 906 1312 657 
Q 1506 409 1894 409 
Q 2359 409 2629 706 
Q 2900 1003 2900 1516 
L 2900 3500 
L 3475 3500 
L 3475 0 
L 2900 0 
L 2900 538 
Q 2691 219 2414 64 
Q 2138 -91 1772 -91 
Q 1169 -91 856 284 
Q 544 659 544 1381 
z
M 1991 3584 
L 1991 3584 
z
" transform="scale(0.015625)"/>
        <path id="DejaVuSans-6e" d="M 3513 2113 
L 3513 0 
L 2938 0 
L 2938 2094 
Q 2938 2591 2744 2837 
Q 2550 3084 2163 3084 
Q 1697 3084 1428 2787 
Q 1159 2491 1159 1978 
L 1159 0 
L 581 0 
L 581 3500 
L 1159 3500 
L 1159 2956 
Q 1366 3272 1645 3428 
Q 1925 3584 2291 3584 
Q 2894 3584 3203 3211 
Q 3513 2838 3513 2113 
z
" transform="scale(0.015625)"/>
       </defs>
       <use xlink:href="#DejaVuSans-4a"/>
       <use xlink:href="#DejaVuSans-75" x="29.492188"/>
       <use xlink:href="#DejaVuSans-6e" x="92.871094"/>
      </g>
     </g>
    </g>
    <g id="xtick_4">
     <g id="line2d_7">
      <path d="M 103.614091 319.04 
L 103.614091 25.44 
" clip-path="url(#pa3169d9ef3)" style="fill: none; stroke-dasharray: 0.8,1.32; stroke-dashoffset: 0; stroke: #000000; stroke-opacity: 0.5; stroke-width: 0.8"/>
     </g>
     <g id="line2d_8">
      <g>
       <use xlink:href="#m8ee3f89b02" x="103.614091" y="319.04" style="stroke: #000000; stroke-width: 0.8"/>
      </g>
     </g>
     <g id="text_4">
      <!-- 15 -->
      <g transform="translate(97.251591 333.638438)scale(0.1 -0.1)">
       <use xlink:href="#DejaVuSans-31"/>
       <use xlink:href="#DejaVuSans-35" x="63.623047"/>
      </g>
     </g>
    </g>
    <g id="xtick_5">
     <g id="line2d_9">
      <path d="M 121.183545 319.04 
L 121.183545 25.44 
" clip-path="url(#pa3169d9ef3)" style="fill: none; stroke-dasharray: 0.8,1.32; stroke-dashoffset: 0; stroke: #000000; stroke-opacity: 0.5; stroke-width: 0.8"/>
     </g>
     <g id="line2d_10">
      <g>
       <use xlink:href="#m8ee3f89b02" x="121.183545" y="319.04" style="stroke: #000000; stroke-width: 0.8"/>
      </g>
     </g>
     <g id="text_5">
      <!-- Jul -->
      <g transform="translate(115.150733 333.638438)scale(0.1 -0.1)">
       <defs>
        <path id="DejaVuSans-6c" d="M 603 4863 
L 1178 4863 
L 1178 0 
L 603 0 
L 603 4863 
z
" transform="scale(0.015625)"/>
       </defs>
       <use xlink:href="#DejaVuSans-4a"/>
       <use xlink:href="#DejaVuSans-75" x="29.492188"/>
       <use xlink:href="#DejaVuSans-6c" x="92.871094"/>
      </g>
     </g>
    </g>
    <g id="xtick_6">
     <g id="line2d_11">
      <path d="M 136.556818 319.04 
L 136.556818 25.44 
" clip-path="url(#pa3169d9ef3)" style="fill: none; stroke-dasharray: 0.8,1.32; stroke-dashoffset: 0; stroke: #000000; stroke-opacity: 0.5; stroke-width: 0.8"/>
     </g>
     <g id="line2d_12">
      <g>
       <use xlink:href="#m8ee3f89b02" x="136.556818" y="319.04" style="stroke: #000000; stroke-width: 0.8"/>
      </g>
     </g>
     <g id="text_6">
      <!-- 15 -->
      <g transform="translate(130.194318 333.638438)scale(0.1 -0.1)">
       <use xlink:href="#DejaVuSans-31"/>
       <use xlink:href="#DejaVuSans-35" x="63.623047"/>
      </g>
     </g>
    </g>
    <g id="xtick_7">
     <g id="line2d_13">
      <path d="M 155.224364 319.04 
L 155.224364 25.44 
" clip-path="url(#pa3169d9ef3)" style="fill: none; stroke-dasharray: 0.8,1.32; stroke-dashoffset: 0; stroke: #000000; stroke-opacity: 0.5; stroke-width: 0.8"/>
     </g>
     <g id="line2d_14">
      <g>
       <use xlink:href="#m8ee3f89b02" x="155.224364" y="319.04" style="stroke: #000000; stroke-width: 0.8"/>
      </g>
     </g>
     <g id="text_7">
      <!-- Aug -->
      <g transform="translate(145.461082 333.638438)scale(0.1 -0.1)">
       <defs>
        <path id="DejaVuSans-41" d="M 2188 4044 
L 1331 1722 
L 3047 1722 
L 2188 4044 
z
M 1831 4666 
L 2547 4666 
L 4325 0 
L 3669 0 
L 3244 1197 
L 1141 1197 
L 716 0 
L 50 0 
L 1831 4666 
z
" transform="scale(0.015625)"/>
        <path id="DejaVuSans-67" d="M 2906 1791 
Q 2906 2416 2648 2759 
Q 2391 3103 1925 3103 
Q 1463 3103 1205 2759 
Q 947 2416 947 1791 
Q 947 1169 1205 825 
Q 1463 481 1925 481 
Q 2391 481 2648 825 
Q 2906 1169 2906 1791 
z
M 3481 434 
Q 3481 -459 3084 -895 
Q 2688 -1331 1869 -1331 
Q 1566 -1331 1297 -1286 
Q 1028 -1241 775 -1147 
L 775 -588 
Q 1028 -725 1275 -790 
Q 1522 -856 1778 -856 
Q 2344 -856 2625 -561 
Q 2906 -266 2906 331 
L 2906 616 
Q 2728 306 2450 153 
Q 2172 0 1784 0 
Q 1141 0 747 490 
Q 353 981 353 1791 
Q 353 2603 747 3093 
Q 1141 3584 1784 3584 
Q 2172 3584 2450 3431 
Q 2728 3278 2906 2969 
L 2906 3500 
L 3481 3500 
L 3481 434 
z
" transform="scale(0.015625)"/>
       </defs>
       <use xlink:href="#DejaVuSans-41"/>
       <use xlink:href="#DejaVuSans-75" x="68.408203"/>
       <use xlink:href="#DejaVuSans-67" x="131.787109"/>
      </g>
     </g>
    </g>
    <g id="xtick_8">
     <g id="line2d_15">
      <path d="M 170.597636 319.04 
L 170.597636 25.44 
" clip-path="url(#pa3169d9ef3)" style="fill: none; stroke-dasharray: 0.8,1.32; stroke-dashoffset: 0; stroke: #000000; stroke-opacity: 0.5; stroke-width: 0.8"/>
     </g>
     <g id="line2d_16">
      <g>
       <use xlink:href="#m8ee3f89b02" x="170.597636" y="319.04" style="stroke: #000000; stroke-width: 0.8"/>
      </g>
     </g>
     <g id="text_8">
      <!-- 15 -->
      <g transform="translate(164.235136 333.638438)scale(0.1 -0.1)">
       <use xlink:href="#DejaVuSans-31"/>
       <use xlink:href="#DejaVuSans-35" x="63.623047"/>
      </g>
     </g>
    </g>
    <g id="xtick_9">
     <g id="line2d_17">
      <path d="M 189.265182 319.04 
L 189.265182 25.44 
" clip-path="url(#pa3169d9ef3)" style="fill: none; stroke-dasharray: 0.8,1.32; stroke-dashoffset: 0; stroke: #000000; stroke-opacity: 0.5; stroke-width: 0.8"/>
     </g>
     <g id="line2d_18">
      <g>
       <use xlink:href="#m8ee3f89b02" x="189.265182" y="319.04" style="stroke: #000000; stroke-width: 0.8"/>
      </g>
     </g>
     <g id="text_9">
      <!-- Sep -->
      <g transform="translate(179.840182 333.638438)scale(0.1 -0.1)">
       <defs>
        <path id="DejaVuSans-53" d="M 3425 4513 
L 3425 3897 
Q 3066 4069 2747 4153 
Q 2428 4238 2131 4238 
Q 1616 4238 1336 4038 
Q 1056 3838 1056 3469 
Q 1056 3159 1242 3001 
Q 1428 2844 1947 2747 
L 2328 2669 
Q 3034 2534 3370 2195 
Q 3706 1856 3706 1288 
Q 3706 609 3251 259 
Q 2797 -91 1919 -91 
Q 1588 -91 1214 -16 
Q 841 59 441 206 
L 441 856 
Q 825 641 1194 531 
Q 1563 422 1919 422 
Q 2459 422 2753 634 
Q 3047 847 3047 1241 
Q 3047 1584 2836 1778 
Q 2625 1972 2144 2069 
L 1759 2144 
Q 1053 2284 737 2584 
Q 422 2884 422 3419 
Q 422 4038 858 4394 
Q 1294 4750 2059 4750 
Q 2388 4750 2728 4690 
Q 3069 4631 3425 4513 
z
" transform="scale(0.015625)"/>
        <path id="DejaVuSans-65" d="M 3597 1894 
L 3597 1613 
L 953 1613 
Q 991 1019 1311 708 
Q 1631 397 2203 397 
Q 2534 397 2845 478 
Q 3156 559 3463 722 
L 3463 178 
Q 3153 47 2828 -22 
Q 2503 -91 2169 -91 
Q 1331 -91 842 396 
Q 353 884 353 1716 
Q 353 2575 817 3079 
Q 1281 3584 2069 3584 
Q 2775 3584 3186 3129 
Q 3597 2675 3597 1894 
z
M 3022 2063 
Q 3016 2534 2758 2815 
Q 2500 3097 2075 3097 
Q 1594 3097 1305 2825 
Q 1016 2553 972 2059 
L 3022 2063 
z
" transform="scale(0.015625)"/>
        <path id="DejaVuSans-70" d="M 1159 525 
L 1159 -1331 
L 581 -1331 
L 581 3500 
L 1159 3500 
L 1159 2969 
Q 1341 3281 1617 3432 
Q 1894 3584 2278 3584 
Q 2916 3584 3314 3078 
Q 3713 2572 3713 1747 
Q 3713 922 3314 415 
Q 2916 -91 2278 -91 
Q 1894 -91 1617 61 
Q 1341 213 1159 525 
z
M 3116 1747 
Q 3116 2381 2855 2742 
Q 2594 3103 2138 3103 
Q 1681 3103 1420 2742 
Q 1159 2381 1159 1747 
Q 1159 1113 1420 752 
Q 1681 391 2138 391 
Q 2594 391 2855 752 
Q 3116 1113 3116 1747 
z
" transform="scale(0.015625)"/>
       </defs>
       <use xlink:href="#DejaVuSans-53"/>
       <use xlink:href="#DejaVuSans-65" x="63.476562"/>
       <use xlink:href="#DejaVuSans-70" x="125"/>
      </g>
     </g>
    </g>
    <g id="xtick_10">
     <g id="line2d_19">
      <path d="M 204.638455 319.04 
L 204.638455 25.44 
" clip-path="url(#pa3169d9ef3)" style="fill: none; stroke-dasharray: 0.8,1.32; stroke-dashoffset: 0; stroke: #000000; stroke-opacity: 0.5; stroke-width: 0.8"/>
     </g>
     <g id="line2d_20">
      <g>
       <use xlink:href="#m8ee3f89b02" x="204.638455" y="319.04" style="stroke: #000000; stroke-width: 0.8"/>
      </g>
     </g>
     <g id="text_10">
      <!-- 15 -->
      <g transform="translate(198.275955 333.638438)scale(0.1 -0.1)">
       <use xlink:href="#DejaVuSans-31"/>
       <use xlink:href="#DejaVuSans-35" x="63.623047"/>
      </g>
     </g>
    </g>
    <g id="xtick_11">
     <g id="line2d_21">
      <path d="M 222.207909 319.04 
L 222.207909 25.44 
" clip-path="url(#pa3169d9ef3)" style="fill: none; stroke-dasharray: 0.8,1.32; stroke-dashoffset: 0; stroke: #000000; stroke-opacity: 0.5; stroke-width: 0.8"/>
     </g>
     <g id="line2d_22">
      <g>
       <use xlink:href="#m8ee3f89b02" x="222.207909" y="319.04" style="stroke: #000000; stroke-width: 0.8"/>
      </g>
     </g>
     <g id="text_11">
      <!-- Oct -->
      <g transform="translate(213.562597 333.638438)scale(0.1 -0.1)">
       <defs>
        <path id="DejaVuSans-4f" d="M 2522 4238 
Q 1834 4238 1429 3725 
Q 1025 3213 1025 2328 
Q 1025 1447 1429 934 
Q 1834 422 2522 422 
Q 3209 422 3611 934 
Q 4013 1447 4013 2328 
Q 4013 3213 3611 3725 
Q 3209 4238 2522 4238 
z
M 2522 4750 
Q 3503 4750 4090 4092 
Q 4678 3434 4678 2328 
Q 4678 1225 4090 567 
Q 3503 -91 2522 -91 
Q 1538 -91 948 565 
Q 359 1222 359 2328 
Q 359 3434 948 4092 
Q 1538 4750 2522 4750 
z
" transform="scale(0.015625)"/>
        <path id="DejaVuSans-63" d="M 3122 3366 
L 3122 2828 
Q 2878 2963 2633 3030 
Q 2388 3097 2138 3097 
Q 1578 3097 1268 2742 
Q 959 2388 959 1747 
Q 959 1106 1268 751 
Q 1578 397 2138 397 
Q 2388 397 2633 464 
Q 2878 531 3122 666 
L 3122 134 
Q 2881 22 2623 -34 
Q 2366 -91 2075 -91 
Q 1284 -91 818 406 
Q 353 903 353 1747 
Q 353 2603 823 3093 
Q 1294 3584 2113 3584 
Q 2378 3584 2631 3529 
Q 2884 3475 3122 3366 
z
" transform="scale(0.015625)"/>
        <path id="DejaVuSans-74" d="M 1172 4494 
L 1172 3500 
L 2356 3500 
L 2356 3053 
L 1172 3053 
L 1172 1153 
Q 1172 725 1289 603 
Q 1406 481 1766 481 
L 2356 481 
L 2356 0 
L 1766 0 
Q 1100 0 847 248 
Q 594 497 594 1153 
L 594 3053 
L 172 3053 
L 172 3500 
L 594 3500 
L 594 4494 
L 1172 4494 
z
" transform="scale(0.015625)"/>
       </defs>
       <use xlink:href="#DejaVuSans-4f"/>
       <use xlink:href="#DejaVuSans-63" x="78.710938"/>
       <use xlink:href="#DejaVuSans-74" x="133.691406"/>
      </g>
     </g>
    </g>
    <g id="xtick_12">
     <g id="line2d_23">
      <path d="M 237.581182 319.04 
L 237.581182 25.44 
" clip-path="url(#pa3169d9ef3)" style="fill: none; stroke-dasharray: 0.8,1.32; stroke-dashoffset: 0; stroke: #000000; stroke-opacity: 0.5; stroke-width: 0.8"/>
     </g>
     <g id="line2d_24">
      <g>
       <use xlink:href="#m8ee3f89b02" x="237.581182" y="319.04" style="stroke: #000000; stroke-width: 0.8"/>
      </g>
     </g>
     <g id="text_12">
      <!-- 15 -->
      <g transform="translate(231.218682 333.638438)scale(0.1 -0.1)">
       <use xlink:href="#DejaVuSans-31"/>
       <use xlink:href="#DejaVuSans-35" x="63.623047"/>
      </g>
     </g>
    </g>
    <g id="xtick_13">
     <g id="line2d_25">
      <path d="M 256.248727 319.04 
L 256.248727 25.44 
" clip-path="url(#pa3169d9ef3)" style="fill: none; stroke-dasharray: 0.8,1.32; stroke-dashoffset: 0; stroke: #000000; stroke-opacity: 0.5; stroke-width: 0.8"/>
     </g>
     <g id="line2d_26">
      <g>
       <use xlink:href="#m8ee3f89b02" x="256.248727" y="319.04" style="stroke: #000000; stroke-width: 0.8"/>
      </g>
     </g>
     <g id="text_13">
      <!-- Nov -->
      <g transform="translate(246.489352 333.638438)scale(0.1 -0.1)">
       <defs>
        <path id="DejaVuSans-4e" d="M 628 4666 
L 1478 4666 
L 3547 763 
L 3547 4666 
L 4159 4666 
L 4159 0 
L 3309 0 
L 1241 3903 
L 1241 0 
L 628 0 
L 628 4666 
z
" transform="scale(0.015625)"/>
        <path id="DejaVuSans-6f" d="M 1959 3097 
Q 1497 3097 1228 2736 
Q 959 2375 959 1747 
Q 959 1119 1226 758 
Q 1494 397 1959 397 
Q 2419 397 2687 759 
Q 2956 1122 2956 1747 
Q 2956 2369 2687 2733 
Q 2419 3097 1959 3097 
z
M 1959 3584 
Q 2709 3584 3137 3096 
Q 3566 2609 3566 1747 
Q 3566 888 3137 398 
Q 2709 -91 1959 -91 
Q 1206 -91 779 398 
Q 353 888 353 1747 
Q 353 2609 779 3096 
Q 1206 3584 1959 3584 
z
" transform="scale(0.015625)"/>
        <path id="DejaVuSans-76" d="M 191 3500 
L 800 3500 
L 1894 563 
L 2988 3500 
L 3597 3500 
L 2284 0 
L 1503 0 
L 191 3500 
z
" transform="scale(0.015625)"/>
       </defs>
       <use xlink:href="#DejaVuSans-4e"/>
       <use xlink:href="#DejaVuSans-6f" x="74.804688"/>
       <use xlink:href="#DejaVuSans-76" x="135.986328"/>
      </g>
     </g>
    </g>
    <g id="xtick_14">
     <g id="line2d_27">
      <path d="M 271.622 319.04 
L 271.622 25.44 
" clip-path="url(#pa3169d9ef3)" style="fill: none; stroke-dasharray: 0.8,1.32; stroke-dashoffset: 0; stroke: #000000; stroke-opacity: 0.5; stroke-width: 0.8"/>
     </g>
     <g id="line2d_28">
      <g>
       <use xlink:href="#m8ee3f89b02" x="271.622" y="319.04" style="stroke: #000000; stroke-width: 0.8"/>
      </g>
     </g>
     <g id="text_14">
      <!-- 15 -->
      <g transform="translate(265.2595 333.638438)scale(0.1 -0.1)">
       <use xlink:href="#DejaVuSans-31"/>
       <use xlink:href="#DejaVuSans-35" x="63.623047"/>
      </g>
     </g>
    </g>
    <g id="xtick_15">
     <g id="line2d_29">
      <path d="M 289.191455 319.04 
L 289.191455 25.44 
" clip-path="url(#pa3169d9ef3)" style="fill: none; stroke-dasharray: 0.8,1.32; stroke-dashoffset: 0; stroke: #000000; stroke-opacity: 0.5; stroke-width: 0.8"/>
     </g>
     <g id="line2d_30">
      <g>
       <use xlink:href="#m8ee3f89b02" x="289.191455" y="319.04" style="stroke: #000000; stroke-width: 0.8"/>
      </g>
     </g>
     <g id="text_15">
      <!-- Dec -->
      <g transform="translate(279.515673 333.638438)scale(0.1 -0.1)">
       <defs>
        <path id="DejaVuSans-44" d="M 1259 4147 
L 1259 519 
L 2022 519 
Q 2988 519 3436 956 
Q 3884 1394 3884 2338 
Q 3884 3275 3436 3711 
Q 2988 4147 2022 4147 
L 1259 4147 
z
M 628 4666 
L 1925 4666 
Q 3281 4666 3915 4102 
Q 4550 3538 4550 2338 
Q 4550 1131 3912 565 
Q 3275 0 1925 0 
L 628 0 
L 628 4666 
z
" transform="scale(0.015625)"/>
       </defs>
       <use xlink:href="#DejaVuSans-44"/>
       <use xlink:href="#DejaVuSans-65" x="77.001953"/>
       <use xlink:href="#DejaVuSans-63" x="138.525391"/>
      </g>
     </g>
    </g>
    <g id="xtick_16">
     <g id="line2d_31">
      <path d="M 304.564727 319.04 
L 304.564727 25.44 
" clip-path="url(#pa3169d9ef3)" style="fill: none; stroke-dasharray: 0.8,1.32; stroke-dashoffset: 0; stroke: #000000; stroke-opacity: 0.5; stroke-width: 0.8"/>
     </g>
     <g id="line2d_32">
      <g>
       <use xlink:href="#m8ee3f89b02" x="304.564727" y="319.04" style="stroke: #000000; stroke-width: 0.8"/>
      </g>
     </g>
     <g id="text_16">
      <!-- 15 -->
      <g transform="translate(298.202227 333.638438)scale(0.1 -0.1)">
       <use xlink:href="#DejaVuSans-31"/>
       <use xlink:href="#DejaVuSans-35" x="63.623047"/>
      </g>
     </g>
    </g>
    <g id="xtick_17">
     <g id="line2d_33">
      <path d="M 323.232273 319.04 
L 323.232273 25.44 
" clip-path="url(#pa3169d9ef3)" style="fill: none; stroke-dasharray: 0.8,1.32; stroke-dashoffset: 0; stroke: #000000; stroke-opacity: 0.5; stroke-width: 0.8"/>
     </g>
     <g id="line2d_34">
      <g>
       <use xlink:href="#m8ee3f89b02" x="323.232273" y="319.04" style="stroke: #000000; stroke-width: 0.8"/>
      </g>
     </g>
     <g id="text_17">
      <!-- Jan -->
      <g transform="translate(315.52446 333.638438)scale(0.1 -0.1)">
       <use xlink:href="#DejaVuSans-4a"/>
       <use xlink:href="#DejaVuSans-61" x="29.492188"/>
       <use xlink:href="#DejaVuSans-6e" x="90.771484"/>
      </g>
     </g>
    </g>
    <g id="xtick_18">
     <g id="line2d_35">
      <path d="M 338.605545 319.04 
L 338.605545 25.44 
" clip-path="url(#pa3169d9ef3)" style="fill: none; stroke-dasharray: 0.8,1.32; stroke-dashoffset: 0; stroke: #000000; stroke-opacity: 0.5; stroke-width: 0.8"/>
     </g>
     <g id="line2d_36">
      <g>
       <use xlink:href="#m8ee3f89b02" x="338.605545" y="319.04" style="stroke: #000000; stroke-width: 0.8"/>
      </g>
     </g>
     <g id="text_18">
      <!-- 15 -->
      <g transform="translate(332.243045 333.638438)scale(0.1 -0.1)">
       <use xlink:href="#DejaVuSans-31"/>
       <use xlink:href="#DejaVuSans-35" x="63.623047"/>
      </g>
     </g>
    </g>
    <g id="text_19">
     <!-- 2022-Jan -->
     <g transform="translate(311.139062 346.316563)scale(0.1 -0.1)">
      <defs>
       <path id="DejaVuSans-32" d="M 1228 531 
L 3431 531 
L 3431 0 
L 469 0 
L 469 531 
Q 828 903 1448 1529 
Q 2069 2156 2228 2338 
Q 2531 2678 2651 2914 
Q 2772 3150 2772 3378 
Q 2772 3750 2511 3984 
Q 2250 4219 1831 4219 
Q 1534 4219 1204 4116 
Q 875 4013 500 3803 
L 500 4441 
Q 881 4594 1212 4672 
Q 1544 4750 1819 4750 
Q 2544 4750 2975 4387 
Q 3406 4025 3406 3419 
Q 3406 3131 3298 2873 
Q 3191 2616 2906 2266 
Q 2828 2175 2409 1742 
Q 1991 1309 1228 531 
z
" transform="scale(0.015625)"/>
       <path id="DejaVuSans-30" d="M 2034 4250 
Q 1547 4250 1301 3770 
Q 1056 3291 1056 2328 
Q 1056 1369 1301 889 
Q 1547 409 2034 409 
Q 2525 409 2770 889 
Q 3016 1369 3016 2328 
Q 3016 3291 2770 3770 
Q 2525 4250 2034 4250 
z
M 2034 4750 
Q 2819 4750 3233 4129 
Q 3647 3509 3647 2328 
Q 3647 1150 3233 529 
Q 2819 -91 2034 -91 
Q 1250 -91 836 529 
Q 422 1150 422 2328 
Q 422 3509 836 4129 
Q 1250 4750 2034 4750 
z
" transform="scale(0.015625)"/>
       <path id="DejaVuSans-2d" d="M 313 2009 
L 1997 2009 
L 1997 1497 
L 313 1497 
L 313 2009 
z
" transform="scale(0.015625)"/>
      </defs>
      <use xlink:href="#DejaVuSans-32"/>
      <use xlink:href="#DejaVuSans-30" x="63.623047"/>
      <use xlink:href="#DejaVuSans-32" x="127.246094"/>
      <use xlink:href="#DejaVuSans-32" x="190.869141"/>
      <use xlink:href="#DejaVuSans-2d" x="254.492188"/>
      <use xlink:href="#DejaVuSans-4a" x="296.201172"/>
      <use xlink:href="#DejaVuSans-61" x="325.693359"/>
      <use xlink:href="#DejaVuSans-6e" x="386.972656"/>
     </g>
    </g>
   </g>
   <g id="matplotlib.axis_2">
    <g id="ytick_1">
     <g id="line2d_37">
      <path d="M 54.2 319.04 
L 356.175 319.04 
" clip-path="url(#pa3169d9ef3)" style="fill: none; stroke-dasharray: 0.8,1.32; stroke-dashoffset: 0; stroke: #000000; stroke-opacity: 0.5; stroke-width: 0.8"/>
     </g>
     <g id="line2d_38">
      <defs>
       <path id="m0b9f267d41" d="M 0 0 
L -3.5 0 
" style="stroke: #000000; stroke-width: 0.8"/>
      </defs>
      <g>
       <use xlink:href="#m0b9f267d41" x="54.2" y="319.04" style="stroke: #000000; stroke-width: 0.8"/>
      </g>
     </g>
     <g id="text_20">
      <!-- 0.00 -->
      <g transform="translate(24.934375 322.839219)scale(0.1 -0.1)">
       <defs>
        <path id="DejaVuSans-2e" d="M 684 794 
L 1344 794 
L 1344 0 
L 684 0 
L 684 794 
z
" transform="scale(0.015625)"/>
       </defs>
       <use xlink:href="#DejaVuSans-30"/>
       <use xlink:href="#DejaVuSans-2e" x="63.623047"/>
       <use xlink:href="#DejaVuSans-30" x="95.410156"/>
       <use xlink:href="#DejaVuSans-30" x="159.033203"/>
      </g>
     </g>
    </g>
    <g id="ytick_2">
     <g id="line2d_39">
      <path d="M 54.2 285.676364 
L 356.175 285.676364 
" clip-path="url(#pa3169d9ef3)" style="fill: none; stroke-dasharray: 0.8,1.32; stroke-dashoffset: 0; stroke: #000000; stroke-opacity: 0.5; stroke-width: 0.8"/>
     </g>
     <g id="line2d_40">
      <g>
       <use xlink:href="#m0b9f267d41" x="54.2" y="285.676364" style="stroke: #000000; stroke-width: 0.8"/>
      </g>
     </g>
     <g id="text_21">
      <!-- 0.25 -->
      <g transform="translate(24.934375 289.475582)scale(0.1 -0.1)">
       <use xlink:href="#DejaVuSans-30"/>
       <use xlink:href="#DejaVuSans-2e" x="63.623047"/>
       <use xlink:href="#DejaVuSans-32" x="95.410156"/>
       <use xlink:href="#DejaVuSans-35" x="159.033203"/>
      </g>
     </g>
    </g>
    <g id="ytick_3">
     <g id="line2d_41">
      <path d="M 54.2 252.312727 
L 356.175 252.312727 
" clip-path="url(#pa3169d9ef3)" style="fill: none; stroke-dasharray: 0.8,1.32; stroke-dashoffset: 0; stroke: #000000; stroke-opacity: 0.5; stroke-width: 0.8"/>
     </g>
     <g id="line2d_42">
      <g>
       <use xlink:href="#m0b9f267d41" x="54.2" y="252.312727" style="stroke: #000000; stroke-width: 0.8"/>
      </g>
     </g>
     <g id="text_22">
      <!-- 0.50 -->
      <g transform="translate(24.934375 256.111946)scale(0.1 -0.1)">
       <use xlink:href="#DejaVuSans-30"/>
       <use xlink:href="#DejaVuSans-2e" x="63.623047"/>
       <use xlink:href="#DejaVuSans-35" x="95.410156"/>
       <use xlink:href="#DejaVuSans-30" x="159.033203"/>
      </g>
     </g>
    </g>
    <g id="ytick_4">
     <g id="line2d_43">
      <path d="M 54.2 218.949091 
L 356.175 218.949091 
" clip-path="url(#pa3169d9ef3)" style="fill: none; stroke-dasharray: 0.8,1.32; stroke-dashoffset: 0; stroke: #000000; stroke-opacity: 0.5; stroke-width: 0.8"/>
     </g>
     <g id="line2d_44">
      <g>
       <use xlink:href="#m0b9f267d41" x="54.2" y="218.949091" style="stroke: #000000; stroke-width: 0.8"/>
      </g>
     </g>
     <g id="text_23">
      <!-- 0.75 -->
      <g transform="translate(24.934375 222.74831)scale(0.1 -0.1)">
       <defs>
        <path id="DejaVuSans-37" d="M 525 4666 
L 3525 4666 
L 3525 4397 
L 1831 0 
L 1172 0 
L 2766 4134 
L 525 4134 
L 525 4666 
z
" transform="scale(0.015625)"/>
       </defs>
       <use xlink:href="#DejaVuSans-30"/>
       <use xlink:href="#DejaVuSans-2e" x="63.623047"/>
       <use xlink:href="#DejaVuSans-37" x="95.410156"/>
       <use xlink:href="#DejaVuSans-35" x="159.033203"/>
      </g>
     </g>
    </g>
    <g id="ytick_5">
     <g id="line2d_45">
      <path d="M 54.2 185.585455 
L 356.175 185.585455 
" clip-path="url(#pa3169d9ef3)" style="fill: none; stroke-dasharray: 0.8,1.32; stroke-dashoffset: 0; stroke: #000000; stroke-opacity: 0.5; stroke-width: 0.8"/>
     </g>
     <g id="line2d_46">
      <g>
       <use xlink:href="#m0b9f267d41" x="54.2" y="185.585455" style="stroke: #000000; stroke-width: 0.8"/>
      </g>
     </g>
     <g id="text_24">
      <!-- 1.00 -->
      <g transform="translate(24.934375 189.384673)scale(0.1 -0.1)">
       <use xlink:href="#DejaVuSans-31"/>
       <use xlink:href="#DejaVuSans-2e" x="63.623047"/>
       <use xlink:href="#DejaVuSans-30" x="95.410156"/>
       <use xlink:href="#DejaVuSans-30" x="159.033203"/>
      </g>
     </g>
    </g>
    <g id="ytick_6">
     <g id="line2d_47">
      <path d="M 54.2 152.221818 
L 356.175 152.221818 
" clip-path="url(#pa3169d9ef3)" style="fill: none; stroke-dasharray: 0.8,1.32; stroke-dashoffset: 0; stroke: #000000; stroke-opacity: 0.5; stroke-width: 0.8"/>
     </g>
     <g id="line2d_48">
      <g>
       <use xlink:href="#m0b9f267d41" x="54.2" y="152.221818" style="stroke: #000000; stroke-width: 0.8"/>
      </g>
     </g>
     <g id="text_25">
      <!-- 1.25 -->
      <g transform="translate(24.934375 156.021037)scale(0.1 -0.1)">
       <use xlink:href="#DejaVuSans-31"/>
       <use xlink:href="#DejaVuSans-2e" x="63.623047"/>
       <use xlink:href="#DejaVuSans-32" x="95.410156"/>
       <use xlink:href="#DejaVuSans-35" x="159.033203"/>
      </g>
     </g>
    </g>
    <g id="ytick_7">
     <g id="line2d_49">
      <path d="M 54.2 118.858182 
L 356.175 118.858182 
" clip-path="url(#pa3169d9ef3)" style="fill: none; stroke-dasharray: 0.8,1.32; stroke-dashoffset: 0; stroke: #000000; stroke-opacity: 0.5; stroke-width: 0.8"/>
     </g>
     <g id="line2d_50">
      <g>
       <use xlink:href="#m0b9f267d41" x="54.2" y="118.858182" style="stroke: #000000; stroke-width: 0.8"/>
      </g>
     </g>
     <g id="text_26">
      <!-- 1.50 -->
      <g transform="translate(24.934375 122.657401)scale(0.1 -0.1)">
       <use xlink:href="#DejaVuSans-31"/>
       <use xlink:href="#DejaVuSans-2e" x="63.623047"/>
       <use xlink:href="#DejaVuSans-35" x="95.410156"/>
       <use xlink:href="#DejaVuSans-30" x="159.033203"/>
      </g>
     </g>
    </g>
    <g id="ytick_8">
     <g id="line2d_51">
      <path d="M 54.2 85.494545 
L 356.175 85.494545 
" clip-path="url(#pa3169d9ef3)" style="fill: none; stroke-dasharray: 0.8,1.32; stroke-dashoffset: 0; stroke: #000000; stroke-opacity: 0.5; stroke-width: 0.8"/>
     </g>
     <g id="line2d_52">
      <g>
       <use xlink:href="#m0b9f267d41" x="54.2" y="85.494545" style="stroke: #000000; stroke-width: 0.8"/>
      </g>
     </g>
     <g id="text_27">
      <!-- 1.75 -->
      <g transform="translate(24.934375 89.293764)scale(0.1 -0.1)">
       <use xlink:href="#DejaVuSans-31"/>
       <use xlink:href="#DejaVuSans-2e" x="63.623047"/>
       <use xlink:href="#DejaVuSans-37" x="95.410156"/>
       <use xlink:href="#DejaVuSans-35" x="159.033203"/>
      </g>
     </g>
    </g>
    <g id="ytick_9">
     <g id="line2d_53">
      <path d="M 54.2 52.130909 
L 356.175 52.130909 
" clip-path="url(#pa3169d9ef3)" style="fill: none; stroke-dasharray: 0.8,1.32; stroke-dashoffset: 0; stroke: #000000; stroke-opacity: 0.5; stroke-width: 0.8"/>
     </g>
     <g id="line2d_54">
      <g>
       <use xlink:href="#m0b9f267d41" x="54.2" y="52.130909" style="stroke: #000000; stroke-width: 0.8"/>
      </g>
     </g>
     <g id="text_28">
      <!-- 2.00 -->
      <g transform="translate(24.934375 55.930128)scale(0.1 -0.1)">
       <use xlink:href="#DejaVuSans-32"/>
       <use xlink:href="#DejaVuSans-2e" x="63.623047"/>
       <use xlink:href="#DejaVuSans-30" x="95.410156"/>
       <use xlink:href="#DejaVuSans-30" x="159.033203"/>
      </g>
     </g>
    </g>
    <g id="text_29">
     <!-- 7d avg doses per hundred population per day -->
     <g transform="translate(18.854688 286.7275)rotate(-90)scale(0.1 -0.1)">
      <defs>
       <path id="DejaVuSans-64" d="M 2906 2969 
L 2906 4863 
L 3481 4863 
L 3481 0 
L 2906 0 
L 2906 525 
Q 2725 213 2448 61 
Q 2172 -91 1784 -91 
Q 1150 -91 751 415 
Q 353 922 353 1747 
Q 353 2572 751 3078 
Q 1150 3584 1784 3584 
Q 2172 3584 2448 3432 
Q 2725 3281 2906 2969 
z
M 947 1747 
Q 947 1113 1208 752 
Q 1469 391 1925 391 
Q 2381 391 2643 752 
Q 2906 1113 2906 1747 
Q 2906 2381 2643 2742 
Q 2381 3103 1925 3103 
Q 1469 3103 1208 2742 
Q 947 2381 947 1747 
z
" transform="scale(0.015625)"/>
       <path id="DejaVuSans-20" transform="scale(0.015625)"/>
       <path id="DejaVuSans-73" d="M 2834 3397 
L 2834 2853 
Q 2591 2978 2328 3040 
Q 2066 3103 1784 3103 
Q 1356 3103 1142 2972 
Q 928 2841 928 2578 
Q 928 2378 1081 2264 
Q 1234 2150 1697 2047 
L 1894 2003 
Q 2506 1872 2764 1633 
Q 3022 1394 3022 966 
Q 3022 478 2636 193 
Q 2250 -91 1575 -91 
Q 1294 -91 989 -36 
Q 684 19 347 128 
L 347 722 
Q 666 556 975 473 
Q 1284 391 1588 391 
Q 1994 391 2212 530 
Q 2431 669 2431 922 
Q 2431 1156 2273 1281 
Q 2116 1406 1581 1522 
L 1381 1569 
Q 847 1681 609 1914 
Q 372 2147 372 2553 
Q 372 3047 722 3315 
Q 1072 3584 1716 3584 
Q 2034 3584 2315 3537 
Q 2597 3491 2834 3397 
z
" transform="scale(0.015625)"/>
       <path id="DejaVuSans-72" d="M 2631 2963 
Q 2534 3019 2420 3045 
Q 2306 3072 2169 3072 
Q 1681 3072 1420 2755 
Q 1159 2438 1159 1844 
L 1159 0 
L 581 0 
L 581 3500 
L 1159 3500 
L 1159 2956 
Q 1341 3275 1631 3429 
Q 1922 3584 2338 3584 
Q 2397 3584 2469 3576 
Q 2541 3569 2628 3553 
L 2631 2963 
z
" transform="scale(0.015625)"/>
       <path id="DejaVuSans-68" d="M 3513 2113 
L 3513 0 
L 2938 0 
L 2938 2094 
Q 2938 2591 2744 2837 
Q 2550 3084 2163 3084 
Q 1697 3084 1428 2787 
Q 1159 2491 1159 1978 
L 1159 0 
L 581 0 
L 581 4863 
L 1159 4863 
L 1159 2956 
Q 1366 3272 1645 3428 
Q 1925 3584 2291 3584 
Q 2894 3584 3203 3211 
Q 3513 2838 3513 2113 
z
" transform="scale(0.015625)"/>
       <path id="DejaVuSans-69" d="M 603 3500 
L 1178 3500 
L 1178 0 
L 603 0 
L 603 3500 
z
M 603 4863 
L 1178 4863 
L 1178 4134 
L 603 4134 
L 603 4863 
z
" transform="scale(0.015625)"/>
      </defs>
      <use xlink:href="#DejaVuSans-37"/>
      <use xlink:href="#DejaVuSans-64" x="63.623047"/>
      <use xlink:href="#DejaVuSans-20" x="127.099609"/>
      <use xlink:href="#DejaVuSans-61" x="158.886719"/>
      <use xlink:href="#DejaVuSans-76" x="220.166016"/>
      <use xlink:href="#DejaVuSans-67" x="279.345703"/>
      <use xlink:href="#DejaVuSans-20" x="342.822266"/>
      <use xlink:href="#DejaVuSans-64" x="374.609375"/>
      <use xlink:href="#DejaVuSans-6f" x="438.085938"/>
      <use xlink:href="#DejaVuSans-73" x="499.267578"/>
      <use xlink:href="#DejaVuSans-65" x="551.367188"/>
      <use xlink:href="#DejaVuSans-73" x="612.890625"/>
      <use xlink:href="#DejaVuSans-20" x="664.990234"/>
      <use xlink:href="#DejaVuSans-70" x="696.777344"/>
      <use xlink:href="#DejaVuSans-65" x="760.253906"/>
      <use xlink:href="#DejaVuSans-72" x="821.777344"/>
      <use xlink:href="#DejaVuSans-20" x="862.890625"/>
      <use xlink:href="#DejaVuSans-68" x="894.677734"/>
      <use xlink:href="#DejaVuSans-75" x="958.056641"/>
      <use xlink:href="#DejaVuSans-6e" x="1021.435547"/>
      <use xlink:href="#DejaVuSans-64" x="1084.814453"/>
      <use xlink:href="#DejaVuSans-72" x="1148.291016"/>
      <use xlink:href="#DejaVuSans-65" x="1187.154297"/>
      <use xlink:href="#DejaVuSans-64" x="1248.677734"/>
      <use xlink:href="#DejaVuSans-20" x="1312.154297"/>
      <use xlink:href="#DejaVuSans-70" x="1343.941406"/>
      <use xlink:href="#DejaVuSans-6f" x="1407.417969"/>
      <use xlink:href="#DejaVuSans-70" x="1468.599609"/>
      <use xlink:href="#DejaVuSans-75" x="1532.076172"/>
      <use xlink:href="#DejaVuSans-6c" x="1595.455078"/>
      <use xlink:href="#DejaVuSans-61" x="1623.238281"/>
      <use xlink:href="#DejaVuSans-74" x="1684.517578"/>
      <use xlink:href="#DejaVuSans-69" x="1723.726562"/>
      <use xlink:href="#DejaVuSans-6f" x="1751.509766"/>
      <use xlink:href="#DejaVuSans-6e" x="1812.691406"/>
      <use xlink:href="#DejaVuSans-20" x="1876.070312"/>
      <use xlink:href="#DejaVuSans-70" x="1907.857422"/>
      <use xlink:href="#DejaVuSans-65" x="1971.333984"/>
      <use xlink:href="#DejaVuSans-72" x="2032.857422"/>
      <use xlink:href="#DejaVuSans-20" x="2073.970703"/>
      <use xlink:href="#DejaVuSans-64" x="2105.757812"/>
      <use xlink:href="#DejaVuSans-61" x="2169.234375"/>
      <use xlink:href="#DejaVuSans-79" x="2230.513672"/>
     </g>
    </g>
   </g>
   <g id="line2d_55">
    <path d="M -1 316.205269 
L 1.491636 316.11609 
L 1.491636 315.8028 
L 2.589727 315.8028 
L 2.589727 315.517427 
L 3.687818 315.517427 
L 3.687818 315.249502 
L 4.785909 315.249502 
L 4.785909 314.964516 
L 5.884 314.964516 
L 5.884 314.415483 
L 6.982091 314.415483 
L 6.982091 314.214637 
L 8.080182 314.214637 
L 8.080182 313.828065 
L 9.178273 313.828065 
L 9.178273 313.684603 
L 10.276364 313.684603 
L 10.276364 313.47794 
L 11.374455 313.47794 
L 11.374455 312.878114 
L 12.472545 312.878114 
L 12.472545 312.379486 
L 13.570636 312.379486 
L 13.570636 311.526857 
L 14.668727 311.526857 
L 14.668727 311.234117 
L 15.766818 311.234117 
L 15.766818 311.393088 
L 16.864909 311.393088 
L 16.864909 310.353958 
L 17.963 310.353958 
L 17.963 309.200446 
L 19.061091 309.200446 
L 19.061091 307.944185 
L 20.159182 307.944185 
L 20.159182 306.742981 
L 21.257273 306.742981 
L 21.257273 307.767765 
L 23.453455 307.875555 
L 23.453455 307.960857 
L 24.551545 307.960857 
L 24.551545 309.402456 
L 25.649636 309.402456 
L 25.649636 309.67736 
L 26.747727 309.67736 
L 26.747727 309.494349 
L 27.845818 309.494349 
L 27.845818 308.804181 
L 28.943909 308.804181 
L 28.943909 306.737165 
L 30.042 306.737165 
L 30.042 305.880658 
L 31.140091 305.880658 
L 31.140091 304.871384 
L 32.238182 304.871384 
L 32.238182 302.329392 
L 33.336273 302.329392 
L 33.336273 300.980074 
L 34.434364 300.980074 
L 34.434364 300.638092 
L 35.532455 300.638092 
L 35.532455 300.443837 
L 36.630545 300.443837 
L 36.630545 299.615634 
L 37.728636 299.615634 
L 37.728636 299.194166 
L 38.826727 299.194166 
L 38.826727 299.772667 
L 39.924818 299.772667 
L 39.924818 300.019654 
L 41.022909 300.019654 
L 41.022909 299.769178 
L 42.121 299.769178 
L 42.121 298.979749 
L 43.219091 298.979749 
L 43.219091 298.329905 
L 44.317182 298.329905 
L 44.317182 297.476888 
L 45.415273 297.476888 
L 45.415273 297.628104 
L 46.513364 297.628104 
L 46.513364 297.506743 
L 47.611455 297.506743 
L 47.611455 299.398891 
L 48.709545 299.398891 
L 48.709545 299.040236 
L 49.807636 299.040236 
L 49.807636 298.737414 
L 50.905727 298.737414 
L 50.905727 297.93364 
L 52.003818 297.93364 
L 52.003818 297.267123 
L 53.101909 297.267123 
L 53.101909 296.946466 
L 54.2 296.946466 
L 54.2 296.496693 
L 55.298091 296.496693 
L 55.298091 293.206761 
L 56.396182 293.206761 
L 56.396182 291.801221 
L 57.494273 291.801221 
L 57.494273 290.329379 
L 58.592364 290.329379 
L 58.592364 289.341817 
L 59.690455 289.341817 
L 59.690455 287.99405 
L 60.788545 287.99405 
L 60.788545 287.312024 
L 62.984727 287.38802 
L 62.984727 286.900249 
L 64.082818 286.900249 
L 64.082818 286.324075 
L 65.180909 286.324075 
L 65.180909 286.118963 
L 66.279 286.118963 
L 66.279 285.826611 
L 67.377091 285.826611 
L 67.377091 286.140676 
L 68.475182 286.140676 
L 68.475182 286.531513 
L 69.573273 286.531513 
L 69.573273 286.195347 
L 70.671364 286.195347 
L 70.671364 286.55943 
L 71.769455 286.55943 
L 71.769455 286.688546 
L 75.063727 286.745543 
L 75.063727 286.939798 
L 76.161818 286.939798 
L 76.161818 286.267854 
L 77.259909 286.267854 
L 77.259909 286.424886 
L 78.358 286.424886 
L 78.358 285.675007 
L 79.456091 285.675007 
L 79.456091 284.700241 
L 80.554182 284.700241 
L 80.554182 283.435061 
L 81.652273 283.435061 
L 81.652273 282.892619 
L 82.750364 282.892619 
L 82.750364 280.905089 
L 83.848455 280.905089 
L 83.848455 280.025706 
L 84.946545 280.025706 
L 84.946545 279.483652 
L 86.044636 279.483652 
L 86.044636 278.909417 
L 87.142727 278.909417 
L 87.142727 277.892388 
L 88.240818 277.892388 
L 88.240818 277.019208 
L 89.338909 277.019208 
L 89.338909 274.578416 
L 91.535091 274.672635 
L 91.535091 274.937071 
L 93.731273 274.932806 
L 93.731273 278.485235 
L 94.829364 278.485235 
L 94.829364 277.738844 
L 95.927455 277.738844 
L 95.927455 281.43745 
L 98.123636 281.345169 
L 98.123636 280.915558 
L 99.221727 280.915558 
L 99.221727 279.989259 
L 100.319818 279.989259 
L 100.319818 279.17928 
L 101.417909 279.17928 
L 101.417909 274.289553 
L 102.516 274.289553 
L 102.516 274.141438 
L 103.614091 274.141438 
L 103.614091 269.103208 
L 105.810273 269.148573 
L 105.810273 269.437824 
L 106.908364 269.437824 
L 106.908364 269.307157 
L 109.104545 269.304443 
L 109.104545 269.463802 
L 110.202636 269.463802 
L 110.202636 269.269547 
L 111.300727 269.269547 
L 111.300727 269.044272 
L 112.398818 269.044272 
L 112.398818 268.601479 
L 113.496909 268.601479 
L 113.496909 268.244763 
L 114.595 268.244763 
L 114.595 267.33281 
L 116.791182 267.440988 
L 116.791182 267.87719 
L 117.889273 267.87719 
L 117.889273 268.561542 
L 118.987364 268.561542 
L 118.987364 269.38199 
L 120.085455 269.38199 
L 120.085455 269.955838 
L 121.183545 269.955838 
L 121.183545 270.597927 
L 122.281636 270.597927 
L 122.281636 271.342766 
L 123.379727 271.342766 
L 123.379727 271.58355 
L 124.477818 271.58355 
L 124.477818 271.828986 
L 127.772091 271.745235 
L 127.772091 271.102758 
L 128.870182 271.102758 
L 128.870182 270.512238 
L 129.968273 270.512238 
L 129.968273 269.311422 
L 131.066364 269.311422 
L 131.066364 268.837222 
L 132.164455 268.837222 
L 132.164455 268.064466 
L 133.262545 268.064466 
L 133.262545 267.434396 
L 134.360636 267.434396 
L 134.360636 266.76788 
L 135.458727 266.76788 
L 135.458727 267.09474 
L 137.654909 266.998194 
L 137.654909 266.71825 
L 138.753 266.71825 
L 138.753 266.301047 
L 139.851091 266.301047 
L 139.851091 264.518241 
L 140.949182 264.518241 
L 140.949182 261.36324 
L 142.047273 261.36324 
L 142.047273 257.82632 
L 143.145364 257.82632 
L 143.145364 254.497615 
L 144.243455 254.497615 
L 144.243455 250.92735 
L 145.341545 250.92735 
L 145.341545 247.706822 
L 146.439636 247.706822 
L 146.439636 245.663846 
L 147.537727 245.663846 
L 147.537727 242.489846 
L 148.635818 242.489846 
L 148.635818 239.274359 
L 149.733909 239.274359 
L 149.733909 236.334164 
L 150.832 236.334164 
L 150.832 233.286953 
L 151.930091 233.286953 
L 151.930091 228.994726 
L 153.028182 228.994726 
L 153.028182 223.66298 
L 154.126273 223.66298 
L 154.126273 220.300929 
L 155.224364 220.300929 
L 155.224364 218.513858 
L 156.322455 218.513858 
L 156.322455 217.017976 
L 157.420545 217.017976 
L 157.420545 215.502707 
L 158.518636 215.502707 
L 158.518636 214.696606 
L 160.714818 214.704361 
L 160.714818 215.395693 
L 161.812909 215.395693 
L 161.812909 216.225058 
L 162.911 216.225058 
L 162.911 214.898228 
L 164.009091 214.898228 
L 164.009091 213.256946 
L 165.107182 213.256946 
L 165.107182 211.906464 
L 166.205273 211.906464 
L 166.205273 209.28111 
L 167.303364 209.28111 
L 167.303364 207.36376 
L 168.401455 207.36376 
L 168.401455 204.668225 
L 169.499545 204.668225 
L 169.499545 202.665961 
L 170.597636 202.665961 
L 170.597636 199.6172 
L 171.695727 199.6172 
L 171.695727 196.048874 
L 172.793818 196.048874 
L 172.793818 214.833477 
L 173.891909 214.833477 
L 173.891909 222.087613 
L 174.99 222.087613 
L 174.99 217.447199 
L 176.088091 217.447199 
L 176.088091 213.367838 
L 177.186182 213.367838 
L 177.186182 208.745648 
L 178.284273 208.745648 
L 178.284273 201.004129 
L 179.382364 201.004129 
L 179.382364 190.590339 
L 180.480455 190.590339 
L 180.480455 155.919454 
L 181.578545 155.919454 
L 181.578545 131.461124 
L 182.676636 131.461124 
L 182.676636 118.591032 
L 183.774727 118.591032 
L 183.774727 108.895328 
L 184.872818 108.895328 
L 184.872818 104.631018 
L 185.970909 104.631018 
L 185.970909 99.843652 
L 187.069 99.843652 
L 187.069 98.389646 
L 188.167091 98.389646 
L 188.167091 97.85302 
L 189.265182 97.85302 
L 189.265182 98.964269 
L 190.363273 98.964269 
L 190.363273 100.65208 
L 191.461364 100.65208 
L 191.461364 100.874252 
L 192.559455 100.874252 
L 192.559455 104.570143 
L 193.657545 104.570143 
L 193.657545 109.055075 
L 194.755636 109.055075 
L 194.755636 114.245685 
L 195.853727 114.245685 
L 195.853727 123.503636 
L 196.951818 123.503636 
L 196.951818 134.509885 
L 198.049909 134.509885 
L 198.049909 143.224619 
L 199.148 143.224619 
L 199.148 149.555558 
L 200.246091 149.555558 
L 200.246091 151.463214 
L 201.344182 151.463214 
L 201.344182 155.971023 
L 202.442273 155.971023 
L 202.442273 160.174071 
L 203.540364 160.174071 
L 203.540364 161.78356 
L 204.638455 161.78356 
L 204.638455 162.053811 
L 205.736545 162.053811 
L 205.736545 163.718358 
L 206.834636 163.718358 
L 206.834636 166.977271 
L 207.932727 166.977271 
L 207.932727 169.784086 
L 209.030818 169.784086 
L 209.030818 171.632807 
L 210.128909 171.632807 
L 210.128909 174.826969 
L 211.227 174.826969 
L 211.227 179.924522 
L 212.325091 179.924522 
L 212.325091 184.445126 
L 213.423182 184.445126 
L 213.423182 188.362413 
L 214.521273 188.362413 
L 214.521273 189.173167 
L 215.619364 189.173167 
L 215.619364 189.94825 
L 216.717455 189.94825 
L 216.717455 193.715096 
L 217.815545 193.715096 
L 217.815545 197.39858 
L 218.913636 197.39858 
L 218.913636 200.86183 
L 220.011727 200.86183 
L 220.011727 202.10646 
L 221.109818 202.10646 
L 221.109818 203.294868 
L 222.207909 203.294868 
L 222.207909 203.868328 
L 223.306 203.868328 
L 223.306 202.984292 
L 224.404091 202.984292 
L 224.404091 197.104677 
L 225.502182 197.104677 
L 225.502182 189.639613 
L 226.600273 189.639613 
L 226.600273 178.171572 
L 227.698364 178.171572 
L 227.698364 164.092522 
L 228.796455 164.092522 
L 228.796455 149.214351 
L 229.894545 149.214351 
L 229.894545 136.878946 
L 230.992636 136.878946 
L 230.992636 130.996617 
L 232.090727 130.996617 
L 232.090727 125.779253 
L 233.188818 125.779253 
L 233.188818 122.179521 
L 234.286909 122.179521 
L 234.286909 122.728166 
L 235.385 122.728166 
L 235.385 128.391813 
L 236.483091 128.391813 
L 236.483091 134.752219 
L 237.581182 134.752219 
L 237.581182 115.737302 
L 238.679273 115.737302 
L 238.679273 120.617724 
L 239.777364 120.617724 
L 239.777364 130.984985 
L 240.875455 130.984985 
L 240.875455 142.776785 
L 241.973545 142.776785 
L 241.973545 152.861775 
L 243.071636 152.861775 
L 243.071636 163.20267 
L 244.169727 163.20267 
L 244.169727 172.82199 
L 245.267818 172.82199 
L 245.267818 207.147016 
L 246.365909 207.147016 
L 246.365909 211.284925 
L 247.464 211.284925 
L 247.464 223.771159 
L 248.562091 223.771159 
L 248.562091 224.023574 
L 249.660182 224.023574 
L 249.660182 225.521783 
L 250.758273 225.521783 
L 250.758273 224.060797 
L 251.856364 224.060797 
L 251.856364 224.76376 
L 254.052545 224.695907 
L 254.052545 224.246522 
L 255.150636 224.246522 
L 255.150636 217.67984 
L 256.248727 217.67984 
L 256.248727 222.818493 
L 257.346818 222.818493 
L 257.346818 227.515129 
L 258.444909 227.515129 
L 258.444909 234.916604 
L 259.543 234.916604 
L 259.543 240.771404 
L 260.641091 240.771404 
L 260.641091 244.210615 
L 261.739182 244.210615 
L 261.739182 246.516863 
L 262.837273 246.516863 
L 262.837273 248.914229 
L 263.935364 248.914229 
L 263.935364 251.515544 
L 265.033455 251.515544 
L 265.033455 253.524787 
L 266.131545 253.524787 
L 266.131545 254.80819 
L 267.229636 254.80819 
L 267.229636 256.712745 
L 268.327727 256.712745 
L 268.327727 259.361751 
L 269.425818 259.361751 
L 269.425818 259.224881 
L 271.622 259.211698 
L 271.622 259.753364 
L 272.720091 259.753364 
L 272.720091 260.903774 
L 273.818182 260.903774 
L 273.818182 262.3698 
L 274.916273 262.3698 
L 274.916273 263.929659 
L 276.014364 263.929659 
L 276.014364 267.019908 
L 277.112455 267.019908 
L 277.112455 265.245244 
L 278.210545 265.245244 
L 278.210545 265.245244 
" clip-path="url(#pa3169d9ef3)" style="fill: none; stroke: #1f77b4; stroke-width: 1.5; stroke-linecap: square"/>
   </g>
   <g id="line2d_56">
    <path d="M 278.210545 285.676364 
L 322.134182 285.676364 
L 322.134182 319.04 
L 497.828727 319.04 
L 497.828727 319.04 
" clip-path="url(#pa3169d9ef3)" style="fill: none; stroke: #ff7f0e; stroke-width: 1.5; stroke-linecap: square"/>
   </g>
   <g id="patch_3">
    <path d="M 54.2 319.04 
L 54.2 25.44 
" style="fill: none; stroke: #000000; stroke-width: 0.8; stroke-linejoin: miter; stroke-linecap: square"/>
   </g>
   <g id="patch_4">
    <path d="M 356.175 319.04 
L 356.175 25.44 
" style="fill: none; stroke: #000000; stroke-width: 0.8; stroke-linejoin: miter; stroke-linecap: square"/>
   </g>
   <g id="patch_5">
    <path d="M 54.2 319.04 
L 356.175 319.04 
" style="fill: none; stroke: #000000; stroke-width: 0.8; stroke-linejoin: miter; stroke-linecap: square"/>
   </g>
   <g id="patch_6">
    <path d="M 54.2 25.44 
L 356.175 25.44 
" style="fill: none; stroke: #000000; stroke-width: 0.8; stroke-linejoin: miter; stroke-linecap: square"/>
   </g>
   <g id="text_30">
    <!-- NZ daily vaccinations per capita -->
    <g transform="translate(108.550937 19.44)scale(0.12 -0.12)">
     <defs>
      <path id="DejaVuSans-5a" d="M 359 4666 
L 4025 4666 
L 4025 4184 
L 1075 531 
L 4097 531 
L 4097 0 
L 288 0 
L 288 481 
L 3238 4134 
L 359 4134 
L 359 4666 
z
" transform="scale(0.015625)"/>
     </defs>
     <use xlink:href="#DejaVuSans-4e"/>
     <use xlink:href="#DejaVuSans-5a" x="74.804688"/>
     <use xlink:href="#DejaVuSans-20" x="143.310547"/>
     <use xlink:href="#DejaVuSans-64" x="175.097656"/>
     <use xlink:href="#DejaVuSans-61" x="238.574219"/>
     <use xlink:href="#DejaVuSans-69" x="299.853516"/>
     <use xlink:href="#DejaVuSans-6c" x="327.636719"/>
     <use xlink:href="#DejaVuSans-79" x="355.419922"/>
     <use xlink:href="#DejaVuSans-20" x="414.599609"/>
     <use xlink:href="#DejaVuSans-76" x="446.386719"/>
     <use xlink:href="#DejaVuSans-61" x="505.566406"/>
     <use xlink:href="#DejaVuSans-63" x="566.845703"/>
     <use xlink:href="#DejaVuSans-63" x="621.826172"/>
     <use xlink:href="#DejaVuSans-69" x="676.806641"/>
     <use xlink:href="#DejaVuSans-6e" x="704.589844"/>
     <use xlink:href="#DejaVuSans-61" x="767.96875"/>
     <use xlink:href="#DejaVuSans-74" x="829.248047"/>
     <use xlink:href="#DejaVuSans-69" x="868.457031"/>
     <use xlink:href="#DejaVuSans-6f" x="896.240234"/>
     <use xlink:href="#DejaVuSans-6e" x="957.421875"/>
     <use xlink:href="#DejaVuSans-73" x="1020.800781"/>
     <use xlink:href="#DejaVuSans-20" x="1072.900391"/>
     <use xlink:href="#DejaVuSans-70" x="1104.6875"/>
     <use xlink:href="#DejaVuSans-65" x="1168.164062"/>
     <use xlink:href="#DejaVuSans-72" x="1229.6875"/>
     <use xlink:href="#DejaVuSans-20" x="1270.800781"/>
     <use xlink:href="#DejaVuSans-63" x="1302.587891"/>
     <use xlink:href="#DejaVuSans-61" x="1357.568359"/>
     <use xlink:href="#DejaVuSans-70" x="1418.847656"/>
     <use xlink:href="#DejaVuSans-69" x="1482.324219"/>
     <use xlink:href="#DejaVuSans-74" x="1510.107422"/>
     <use xlink:href="#DejaVuSans-61" x="1549.316406"/>
    </g>
   </g>
   <g id="legend_1">
    <g id="patch_7">
     <path d="M 201.292187 62.79625 
L 349.175 62.79625 
Q 351.175 62.79625 351.175 60.79625 
L 351.175 32.44 
Q 351.175 30.44 349.175 30.44 
L 201.292187 30.44 
Q 199.292187 30.44 199.292187 32.44 
L 199.292187 60.79625 
Q 199.292187 62.79625 201.292187 62.79625 
z
" style="fill: #ffffff; opacity: 0.8; stroke: #cccccc; stroke-linejoin: miter"/>
    </g>
    <g id="line2d_57">
     <path d="M 203.292187 38.538437 
L 203.292187 38.538437 
L 213.292187 38.538437 
L 213.292187 38.538437 
L 223.292187 38.538437 
" style="fill: none; stroke: #1f77b4; stroke-width: 1.5; stroke-linecap: square"/>
    </g>
    <g id="text_31">
     <!-- Actual -->
     <g transform="translate(231.292187 42.038437)scale(0.1 -0.1)">
      <use xlink:href="#DejaVuSans-41"/>
      <use xlink:href="#DejaVuSans-63" x="66.658203"/>
      <use xlink:href="#DejaVuSans-74" x="121.638672"/>
      <use xlink:href="#DejaVuSans-75" x="160.847656"/>
      <use xlink:href="#DejaVuSans-61" x="224.226562"/>
      <use xlink:href="#DejaVuSans-6c" x="285.505859"/>
     </g>
    </g>
    <g id="line2d_58">
     <path d="M 203.292187 53.216563 
L 203.292187 53.216563 
L 213.292187 53.216563 
L 213.292187 53.216563 
L 223.292187 53.216563 
" style="fill: none; stroke: #ff7f0e; stroke-width: 1.5; stroke-linecap: square"/>
    </g>
    <g id="text_32">
     <!-- Assumed for projection -->
     <g transform="translate(231.292187 56.716563)scale(0.1 -0.1)">
      <defs>
       <path id="DejaVuSans-6d" d="M 3328 2828 
Q 3544 3216 3844 3400 
Q 4144 3584 4550 3584 
Q 5097 3584 5394 3201 
Q 5691 2819 5691 2113 
L 5691 0 
L 5113 0 
L 5113 2094 
Q 5113 2597 4934 2840 
Q 4756 3084 4391 3084 
Q 3944 3084 3684 2787 
Q 3425 2491 3425 1978 
L 3425 0 
L 2847 0 
L 2847 2094 
Q 2847 2600 2669 2842 
Q 2491 3084 2119 3084 
Q 1678 3084 1418 2786 
Q 1159 2488 1159 1978 
L 1159 0 
L 581 0 
L 581 3500 
L 1159 3500 
L 1159 2956 
Q 1356 3278 1631 3431 
Q 1906 3584 2284 3584 
Q 2666 3584 2933 3390 
Q 3200 3197 3328 2828 
z
" transform="scale(0.015625)"/>
       <path id="DejaVuSans-66" d="M 2375 4863 
L 2375 4384 
L 1825 4384 
Q 1516 4384 1395 4259 
Q 1275 4134 1275 3809 
L 1275 3500 
L 2222 3500 
L 2222 3053 
L 1275 3053 
L 1275 0 
L 697 0 
L 697 3053 
L 147 3053 
L 147 3500 
L 697 3500 
L 697 3744 
Q 697 4328 969 4595 
Q 1241 4863 1831 4863 
L 2375 4863 
z
" transform="scale(0.015625)"/>
       <path id="DejaVuSans-6a" d="M 603 3500 
L 1178 3500 
L 1178 -63 
Q 1178 -731 923 -1031 
Q 669 -1331 103 -1331 
L -116 -1331 
L -116 -844 
L 38 -844 
Q 366 -844 484 -692 
Q 603 -541 603 -63 
L 603 3500 
z
M 603 4863 
L 1178 4863 
L 1178 4134 
L 603 4134 
L 603 4863 
z
" transform="scale(0.015625)"/>
      </defs>
      <use xlink:href="#DejaVuSans-41"/>
      <use xlink:href="#DejaVuSans-73" x="68.408203"/>
      <use xlink:href="#DejaVuSans-73" x="120.507812"/>
      <use xlink:href="#DejaVuSans-75" x="172.607422"/>
      <use xlink:href="#DejaVuSans-6d" x="235.986328"/>
      <use xlink:href="#DejaVuSans-65" x="333.398438"/>
      <use xlink:href="#DejaVuSans-64" x="394.921875"/>
      <use xlink:href="#DejaVuSans-20" x="458.398438"/>
      <use xlink:href="#DejaVuSans-66" x="490.185547"/>
      <use xlink:href="#DejaVuSans-6f" x="525.390625"/>
      <use xlink:href="#DejaVuSans-72" x="586.572266"/>
      <use xlink:href="#DejaVuSans-20" x="627.685547"/>
      <use xlink:href="#DejaVuSans-70" x="659.472656"/>
      <use xlink:href="#DejaVuSans-72" x="722.949219"/>
      <use xlink:href="#DejaVuSans-6f" x="761.8125"/>
      <use xlink:href="#DejaVuSans-6a" x="822.994141"/>
      <use xlink:href="#DejaVuSans-65" x="850.777344"/>
      <use xlink:href="#DejaVuSans-63" x="912.300781"/>
      <use xlink:href="#DejaVuSans-74" x="967.28125"/>
      <use xlink:href="#DejaVuSans-69" x="1006.490234"/>
      <use xlink:href="#DejaVuSans-6f" x="1034.273438"/>
      <use xlink:href="#DejaVuSans-6e" x="1095.455078"/>
     </g>
    </g>
   </g>
  </g>
  <g id="axes_2">
   <g id="patch_8">
    <path d="M 407.225 319.04 
L 709.2 319.04 
L 709.2 25.44 
L 407.225 25.44 
z
" style="fill: #ffffff"/>
   </g>
   <g id="matplotlib.axis_3">
    <g id="xtick_19">
     <g id="line2d_59">
      <path d="M 407.225 319.04 
L 407.225 25.44 
" clip-path="url(#pa2a7a8ff35)" style="fill: none; stroke-dasharray: 0.8,1.32; stroke-dashoffset: 0; stroke: #000000; stroke-opacity: 0.5; stroke-width: 0.8"/>
     </g>
     <g id="line2d_60">
      <g>
       <use xlink:href="#m8ee3f89b02" x="407.225" y="319.04" style="stroke: #000000; stroke-width: 0.8"/>
      </g>
     </g>
     <g id="text_33">
      <!-- May -->
      <g transform="translate(396.8875 333.638438)scale(0.1 -0.1)">
       <use xlink:href="#DejaVuSans-4d"/>
       <use xlink:href="#DejaVuSans-61" x="86.279297"/>
       <use xlink:href="#DejaVuSans-79" x="147.558594"/>
      </g>
     </g>
    </g>
    <g id="xtick_20">
     <g id="line2d_61">
      <path d="M 422.598273 319.04 
L 422.598273 25.44 
" clip-path="url(#pa2a7a8ff35)" style="fill: none; stroke-dasharray: 0.8,1.32; stroke-dashoffset: 0; stroke: #000000; stroke-opacity: 0.5; stroke-width: 0.8"/>
     </g>
     <g id="line2d_62">
      <g>
       <use xlink:href="#m8ee3f89b02" x="422.598273" y="319.04" style="stroke: #000000; stroke-width: 0.8"/>
      </g>
     </g>
     <g id="text_34">
      <!-- 15 -->
      <g transform="translate(416.235773 333.638438)scale(0.1 -0.1)">
       <use xlink:href="#DejaVuSans-31"/>
       <use xlink:href="#DejaVuSans-35" x="63.623047"/>
      </g>
     </g>
    </g>
    <g id="xtick_21">
     <g id="line2d_63">
      <path d="M 441.265818 319.04 
L 441.265818 25.44 
" clip-path="url(#pa2a7a8ff35)" style="fill: none; stroke-dasharray: 0.8,1.32; stroke-dashoffset: 0; stroke: #000000; stroke-opacity: 0.5; stroke-width: 0.8"/>
     </g>
     <g id="line2d_64">
      <g>
       <use xlink:href="#m8ee3f89b02" x="441.265818" y="319.04" style="stroke: #000000; stroke-width: 0.8"/>
      </g>
     </g>
     <g id="text_35">
      <!-- Jun -->
      <g transform="translate(433.453318 333.638438)scale(0.1 -0.1)">
       <use xlink:href="#DejaVuSans-4a"/>
       <use xlink:href="#DejaVuSans-75" x="29.492188"/>
       <use xlink:href="#DejaVuSans-6e" x="92.871094"/>
      </g>
     </g>
    </g>
    <g id="xtick_22">
     <g id="line2d_65">
      <path d="M 456.639091 319.04 
L 456.639091 25.44 
" clip-path="url(#pa2a7a8ff35)" style="fill: none; stroke-dasharray: 0.8,1.32; stroke-dashoffset: 0; stroke: #000000; stroke-opacity: 0.5; stroke-width: 0.8"/>
     </g>
     <g id="line2d_66">
      <g>
       <use xlink:href="#m8ee3f89b02" x="456.639091" y="319.04" style="stroke: #000000; stroke-width: 0.8"/>
      </g>
     </g>
     <g id="text_36">
      <!-- 15 -->
      <g transform="translate(450.276591 333.638438)scale(0.1 -0.1)">
       <use xlink:href="#DejaVuSans-31"/>
       <use xlink:href="#DejaVuSans-35" x="63.623047"/>
      </g>
     </g>
    </g>
    <g id="xtick_23">
     <g id="line2d_67">
      <path d="M 474.208545 319.04 
L 474.208545 25.44 
" clip-path="url(#pa2a7a8ff35)" style="fill: none; stroke-dasharray: 0.8,1.32; stroke-dashoffset: 0; stroke: #000000; stroke-opacity: 0.5; stroke-width: 0.8"/>
     </g>
     <g id="line2d_68">
      <g>
       <use xlink:href="#m8ee3f89b02" x="474.208545" y="319.04" style="stroke: #000000; stroke-width: 0.8"/>
      </g>
     </g>
     <g id="text_37">
      <!-- Jul -->
      <g transform="translate(468.175733 333.638438)scale(0.1 -0.1)">
       <use xlink:href="#DejaVuSans-4a"/>
       <use xlink:href="#DejaVuSans-75" x="29.492188"/>
       <use xlink:href="#DejaVuSans-6c" x="92.871094"/>
      </g>
     </g>
    </g>
    <g id="xtick_24">
     <g id="line2d_69">
      <path d="M 489.581818 319.04 
L 489.581818 25.44 
" clip-path="url(#pa2a7a8ff35)" style="fill: none; stroke-dasharray: 0.8,1.32; stroke-dashoffset: 0; stroke: #000000; stroke-opacity: 0.5; stroke-width: 0.8"/>
     </g>
     <g id="line2d_70">
      <g>
       <use xlink:href="#m8ee3f89b02" x="489.581818" y="319.04" style="stroke: #000000; stroke-width: 0.8"/>
      </g>
     </g>
     <g id="text_38">
      <!-- 15 -->
      <g transform="translate(483.219318 333.638438)scale(0.1 -0.1)">
       <use xlink:href="#DejaVuSans-31"/>
       <use xlink:href="#DejaVuSans-35" x="63.623047"/>
      </g>
     </g>
    </g>
    <g id="xtick_25">
     <g id="line2d_71">
      <path d="M 508.249364 319.04 
L 508.249364 25.44 
" clip-path="url(#pa2a7a8ff35)" style="fill: none; stroke-dasharray: 0.8,1.32; stroke-dashoffset: 0; stroke: #000000; stroke-opacity: 0.5; stroke-width: 0.8"/>
     </g>
     <g id="line2d_72">
      <g>
       <use xlink:href="#m8ee3f89b02" x="508.249364" y="319.04" style="stroke: #000000; stroke-width: 0.8"/>
      </g>
     </g>
     <g id="text_39">
      <!-- Aug -->
      <g transform="translate(498.486082 333.638438)scale(0.1 -0.1)">
       <use xlink:href="#DejaVuSans-41"/>
       <use xlink:href="#DejaVuSans-75" x="68.408203"/>
       <use xlink:href="#DejaVuSans-67" x="131.787109"/>
      </g>
     </g>
    </g>
    <g id="xtick_26">
     <g id="line2d_73">
      <path d="M 523.622636 319.04 
L 523.622636 25.44 
" clip-path="url(#pa2a7a8ff35)" style="fill: none; stroke-dasharray: 0.8,1.32; stroke-dashoffset: 0; stroke: #000000; stroke-opacity: 0.5; stroke-width: 0.8"/>
     </g>
     <g id="line2d_74">
      <g>
       <use xlink:href="#m8ee3f89b02" x="523.622636" y="319.04" style="stroke: #000000; stroke-width: 0.8"/>
      </g>
     </g>
     <g id="text_40">
      <!-- 15 -->
      <g transform="translate(517.260136 333.638438)scale(0.1 -0.1)">
       <use xlink:href="#DejaVuSans-31"/>
       <use xlink:href="#DejaVuSans-35" x="63.623047"/>
      </g>
     </g>
    </g>
    <g id="xtick_27">
     <g id="line2d_75">
      <path d="M 542.290182 319.04 
L 542.290182 25.44 
" clip-path="url(#pa2a7a8ff35)" style="fill: none; stroke-dasharray: 0.8,1.32; stroke-dashoffset: 0; stroke: #000000; stroke-opacity: 0.5; stroke-width: 0.8"/>
     </g>
     <g id="line2d_76">
      <g>
       <use xlink:href="#m8ee3f89b02" x="542.290182" y="319.04" style="stroke: #000000; stroke-width: 0.8"/>
      </g>
     </g>
     <g id="text_41">
      <!-- Sep -->
      <g transform="translate(532.865182 333.638438)scale(0.1 -0.1)">
       <use xlink:href="#DejaVuSans-53"/>
       <use xlink:href="#DejaVuSans-65" x="63.476562"/>
       <use xlink:href="#DejaVuSans-70" x="125"/>
      </g>
     </g>
    </g>
    <g id="xtick_28">
     <g id="line2d_77">
      <path d="M 557.663455 319.04 
L 557.663455 25.44 
" clip-path="url(#pa2a7a8ff35)" style="fill: none; stroke-dasharray: 0.8,1.32; stroke-dashoffset: 0; stroke: #000000; stroke-opacity: 0.5; stroke-width: 0.8"/>
     </g>
     <g id="line2d_78">
      <g>
       <use xlink:href="#m8ee3f89b02" x="557.663455" y="319.04" style="stroke: #000000; stroke-width: 0.8"/>
      </g>
     </g>
     <g id="text_42">
      <!-- 15 -->
      <g transform="translate(551.300955 333.638438)scale(0.1 -0.1)">
       <use xlink:href="#DejaVuSans-31"/>
       <use xlink:href="#DejaVuSans-35" x="63.623047"/>
      </g>
     </g>
    </g>
    <g id="xtick_29">
     <g id="line2d_79">
      <path d="M 575.232909 319.04 
L 575.232909 25.44 
" clip-path="url(#pa2a7a8ff35)" style="fill: none; stroke-dasharray: 0.8,1.32; stroke-dashoffset: 0; stroke: #000000; stroke-opacity: 0.5; stroke-width: 0.8"/>
     </g>
     <g id="line2d_80">
      <g>
       <use xlink:href="#m8ee3f89b02" x="575.232909" y="319.04" style="stroke: #000000; stroke-width: 0.8"/>
      </g>
     </g>
     <g id="text_43">
      <!-- Oct -->
      <g transform="translate(566.587597 333.638438)scale(0.1 -0.1)">
       <use xlink:href="#DejaVuSans-4f"/>
       <use xlink:href="#DejaVuSans-63" x="78.710938"/>
       <use xlink:href="#DejaVuSans-74" x="133.691406"/>
      </g>
     </g>
    </g>
    <g id="xtick_30">
     <g id="line2d_81">
      <path d="M 590.606182 319.04 
L 590.606182 25.44 
" clip-path="url(#pa2a7a8ff35)" style="fill: none; stroke-dasharray: 0.8,1.32; stroke-dashoffset: 0; stroke: #000000; stroke-opacity: 0.5; stroke-width: 0.8"/>
     </g>
     <g id="line2d_82">
      <g>
       <use xlink:href="#m8ee3f89b02" x="590.606182" y="319.04" style="stroke: #000000; stroke-width: 0.8"/>
      </g>
     </g>
     <g id="text_44">
      <!-- 15 -->
      <g transform="translate(584.243682 333.638438)scale(0.1 -0.1)">
       <use xlink:href="#DejaVuSans-31"/>
       <use xlink:href="#DejaVuSans-35" x="63.623047"/>
      </g>
     </g>
    </g>
    <g id="xtick_31">
     <g id="line2d_83">
      <path d="M 609.273727 319.04 
L 609.273727 25.44 
" clip-path="url(#pa2a7a8ff35)" style="fill: none; stroke-dasharray: 0.8,1.32; stroke-dashoffset: 0; stroke: #000000; stroke-opacity: 0.5; stroke-width: 0.8"/>
     </g>
     <g id="line2d_84">
      <g>
       <use xlink:href="#m8ee3f89b02" x="609.273727" y="319.04" style="stroke: #000000; stroke-width: 0.8"/>
      </g>
     </g>
     <g id="text_45">
      <!-- Nov -->
      <g transform="translate(599.514352 333.638438)scale(0.1 -0.1)">
       <use xlink:href="#DejaVuSans-4e"/>
       <use xlink:href="#DejaVuSans-6f" x="74.804688"/>
       <use xlink:href="#DejaVuSans-76" x="135.986328"/>
      </g>
     </g>
    </g>
    <g id="xtick_32">
     <g id="line2d_85">
      <path d="M 624.647 319.04 
L 624.647 25.44 
" clip-path="url(#pa2a7a8ff35)" style="fill: none; stroke-dasharray: 0.8,1.32; stroke-dashoffset: 0; stroke: #000000; stroke-opacity: 0.5; stroke-width: 0.8"/>
     </g>
     <g id="line2d_86">
      <g>
       <use xlink:href="#m8ee3f89b02" x="624.647" y="319.04" style="stroke: #000000; stroke-width: 0.8"/>
      </g>
     </g>
     <g id="text_46">
      <!-- 15 -->
      <g transform="translate(618.2845 333.638438)scale(0.1 -0.1)">
       <use xlink:href="#DejaVuSans-31"/>
       <use xlink:href="#DejaVuSans-35" x="63.623047"/>
      </g>
     </g>
    </g>
    <g id="xtick_33">
     <g id="line2d_87">
      <path d="M 642.216455 319.04 
L 642.216455 25.44 
" clip-path="url(#pa2a7a8ff35)" style="fill: none; stroke-dasharray: 0.8,1.32; stroke-dashoffset: 0; stroke: #000000; stroke-opacity: 0.5; stroke-width: 0.8"/>
     </g>
     <g id="line2d_88">
      <g>
       <use xlink:href="#m8ee3f89b02" x="642.216455" y="319.04" style="stroke: #000000; stroke-width: 0.8"/>
      </g>
     </g>
     <g id="text_47">
      <!-- Dec -->
      <g transform="translate(632.540673 333.638438)scale(0.1 -0.1)">
       <use xlink:href="#DejaVuSans-44"/>
       <use xlink:href="#DejaVuSans-65" x="77.001953"/>
       <use xlink:href="#DejaVuSans-63" x="138.525391"/>
      </g>
     </g>
    </g>
    <g id="xtick_34">
     <g id="line2d_89">
      <path d="M 657.589727 319.04 
L 657.589727 25.44 
" clip-path="url(#pa2a7a8ff35)" style="fill: none; stroke-dasharray: 0.8,1.32; stroke-dashoffset: 0; stroke: #000000; stroke-opacity: 0.5; stroke-width: 0.8"/>
     </g>
     <g id="line2d_90">
      <g>
       <use xlink:href="#m8ee3f89b02" x="657.589727" y="319.04" style="stroke: #000000; stroke-width: 0.8"/>
      </g>
     </g>
     <g id="text_48">
      <!-- 15 -->
      <g transform="translate(651.227227 333.638438)scale(0.1 -0.1)">
       <use xlink:href="#DejaVuSans-31"/>
       <use xlink:href="#DejaVuSans-35" x="63.623047"/>
      </g>
     </g>
    </g>
    <g id="xtick_35">
     <g id="line2d_91">
      <path d="M 676.257273 319.04 
L 676.257273 25.44 
" clip-path="url(#pa2a7a8ff35)" style="fill: none; stroke-dasharray: 0.8,1.32; stroke-dashoffset: 0; stroke: #000000; stroke-opacity: 0.5; stroke-width: 0.8"/>
     </g>
     <g id="line2d_92">
      <g>
       <use xlink:href="#m8ee3f89b02" x="676.257273" y="319.04" style="stroke: #000000; stroke-width: 0.8"/>
      </g>
     </g>
     <g id="text_49">
      <!-- Jan -->
      <g transform="translate(668.54946 333.638438)scale(0.1 -0.1)">
       <use xlink:href="#DejaVuSans-4a"/>
       <use xlink:href="#DejaVuSans-61" x="29.492188"/>
       <use xlink:href="#DejaVuSans-6e" x="90.771484"/>
      </g>
     </g>
    </g>
    <g id="xtick_36">
     <g id="line2d_93">
      <path d="M 691.630545 319.04 
L 691.630545 25.44 
" clip-path="url(#pa2a7a8ff35)" style="fill: none; stroke-dasharray: 0.8,1.32; stroke-dashoffset: 0; stroke: #000000; stroke-opacity: 0.5; stroke-width: 0.8"/>
     </g>
     <g id="line2d_94">
      <g>
       <use xlink:href="#m8ee3f89b02" x="691.630545" y="319.04" style="stroke: #000000; stroke-width: 0.8"/>
      </g>
     </g>
     <g id="text_50">
      <!-- 15 -->
      <g transform="translate(685.268045 333.638438)scale(0.1 -0.1)">
       <use xlink:href="#DejaVuSans-31"/>
       <use xlink:href="#DejaVuSans-35" x="63.623047"/>
      </g>
     </g>
    </g>
    <g id="text_51">
     <!-- 2022-Jan -->
     <g transform="translate(664.164062 346.316563)scale(0.1 -0.1)">
      <use xlink:href="#DejaVuSans-32"/>
      <use xlink:href="#DejaVuSans-30" x="63.623047"/>
      <use xlink:href="#DejaVuSans-32" x="127.246094"/>
      <use xlink:href="#DejaVuSans-32" x="190.869141"/>
      <use xlink:href="#DejaVuSans-2d" x="254.492188"/>
      <use xlink:href="#DejaVuSans-4a" x="296.201172"/>
      <use xlink:href="#DejaVuSans-61" x="325.693359"/>
      <use xlink:href="#DejaVuSans-6e" x="386.972656"/>
     </g>
    </g>
   </g>
   <g id="matplotlib.axis_4">
    <g id="ytick_10">
     <g id="line2d_95">
      <path d="M 407.225 319.04 
L 709.2 319.04 
" clip-path="url(#pa2a7a8ff35)" style="fill: none; stroke-dasharray: 0.8,1.32; stroke-dashoffset: 0; stroke: #000000; stroke-opacity: 0.5; stroke-width: 0.8"/>
     </g>
     <g id="line2d_96">
      <g>
       <use xlink:href="#m0b9f267d41" x="407.225" y="319.04" style="stroke: #000000; stroke-width: 0.8"/>
      </g>
     </g>
     <g id="text_52">
      <!-- 0 -->
      <g transform="translate(393.8625 322.839219)scale(0.1 -0.1)">
       <use xlink:href="#DejaVuSans-30"/>
      </g>
     </g>
    </g>
    <g id="ytick_11">
     <g id="line2d_97">
      <path d="M 407.225 282.34 
L 709.2 282.34 
" clip-path="url(#pa2a7a8ff35)" style="fill: none; stroke-dasharray: 0.8,1.32; stroke-dashoffset: 0; stroke: #000000; stroke-opacity: 0.5; stroke-width: 0.8"/>
     </g>
     <g id="line2d_98">
      <g>
       <use xlink:href="#m0b9f267d41" x="407.225" y="282.34" style="stroke: #000000; stroke-width: 0.8"/>
      </g>
     </g>
     <g id="text_53">
      <!-- 25 -->
      <g transform="translate(387.5 286.139219)scale(0.1 -0.1)">
       <use xlink:href="#DejaVuSans-32"/>
       <use xlink:href="#DejaVuSans-35" x="63.623047"/>
      </g>
     </g>
    </g>
    <g id="ytick_12">
     <g id="line2d_99">
      <path d="M 407.225 245.64 
L 709.2 245.64 
" clip-path="url(#pa2a7a8ff35)" style="fill: none; stroke-dasharray: 0.8,1.32; stroke-dashoffset: 0; stroke: #000000; stroke-opacity: 0.5; stroke-width: 0.8"/>
     </g>
     <g id="line2d_100">
      <g>
       <use xlink:href="#m0b9f267d41" x="407.225" y="245.64" style="stroke: #000000; stroke-width: 0.8"/>
      </g>
     </g>
     <g id="text_54">
      <!-- 50 -->
      <g transform="translate(387.5 249.439219)scale(0.1 -0.1)">
       <use xlink:href="#DejaVuSans-35"/>
       <use xlink:href="#DejaVuSans-30" x="63.623047"/>
      </g>
     </g>
    </g>
    <g id="ytick_13">
     <g id="line2d_101">
      <path d="M 407.225 208.94 
L 709.2 208.94 
" clip-path="url(#pa2a7a8ff35)" style="fill: none; stroke-dasharray: 0.8,1.32; stroke-dashoffset: 0; stroke: #000000; stroke-opacity: 0.5; stroke-width: 0.8"/>
     </g>
     <g id="line2d_102">
      <g>
       <use xlink:href="#m0b9f267d41" x="407.225" y="208.94" style="stroke: #000000; stroke-width: 0.8"/>
      </g>
     </g>
     <g id="text_55">
      <!-- 75 -->
      <g transform="translate(387.5 212.739219)scale(0.1 -0.1)">
       <use xlink:href="#DejaVuSans-37"/>
       <use xlink:href="#DejaVuSans-35" x="63.623047"/>
      </g>
     </g>
    </g>
    <g id="ytick_14">
     <g id="line2d_103">
      <path d="M 407.225 172.24 
L 709.2 172.24 
" clip-path="url(#pa2a7a8ff35)" style="fill: none; stroke-dasharray: 0.8,1.32; stroke-dashoffset: 0; stroke: #000000; stroke-opacity: 0.5; stroke-width: 0.8"/>
     </g>
     <g id="line2d_104">
      <g>
       <use xlink:href="#m0b9f267d41" x="407.225" y="172.24" style="stroke: #000000; stroke-width: 0.8"/>
      </g>
     </g>
     <g id="text_56">
      <!-- 100 -->
      <g transform="translate(381.1375 176.039219)scale(0.1 -0.1)">
       <use xlink:href="#DejaVuSans-31"/>
       <use xlink:href="#DejaVuSans-30" x="63.623047"/>
       <use xlink:href="#DejaVuSans-30" x="127.246094"/>
      </g>
     </g>
    </g>
    <g id="ytick_15">
     <g id="line2d_105">
      <path d="M 407.225 135.54 
L 709.2 135.54 
" clip-path="url(#pa2a7a8ff35)" style="fill: none; stroke-dasharray: 0.8,1.32; stroke-dashoffset: 0; stroke: #000000; stroke-opacity: 0.5; stroke-width: 0.8"/>
     </g>
     <g id="line2d_106">
      <g>
       <use xlink:href="#m0b9f267d41" x="407.225" y="135.54" style="stroke: #000000; stroke-width: 0.8"/>
      </g>
     </g>
     <g id="text_57">
      <!-- 125 -->
      <g transform="translate(381.1375 139.339219)scale(0.1 -0.1)">
       <use xlink:href="#DejaVuSans-31"/>
       <use xlink:href="#DejaVuSans-32" x="63.623047"/>
       <use xlink:href="#DejaVuSans-35" x="127.246094"/>
      </g>
     </g>
    </g>
    <g id="ytick_16">
     <g id="line2d_107">
      <path d="M 407.225 98.84 
L 709.2 98.84 
" clip-path="url(#pa2a7a8ff35)" style="fill: none; stroke-dasharray: 0.8,1.32; stroke-dashoffset: 0; stroke: #000000; stroke-opacity: 0.5; stroke-width: 0.8"/>
     </g>
     <g id="line2d_108">
      <g>
       <use xlink:href="#m0b9f267d41" x="407.225" y="98.84" style="stroke: #000000; stroke-width: 0.8"/>
      </g>
     </g>
     <g id="text_58">
      <!-- 150 -->
      <g transform="translate(381.1375 102.639219)scale(0.1 -0.1)">
       <use xlink:href="#DejaVuSans-31"/>
       <use xlink:href="#DejaVuSans-35" x="63.623047"/>
       <use xlink:href="#DejaVuSans-30" x="127.246094"/>
      </g>
     </g>
    </g>
    <g id="ytick_17">
     <g id="line2d_109">
      <path d="M 407.225 62.14 
L 709.2 62.14 
" clip-path="url(#pa2a7a8ff35)" style="fill: none; stroke-dasharray: 0.8,1.32; stroke-dashoffset: 0; stroke: #000000; stroke-opacity: 0.5; stroke-width: 0.8"/>
     </g>
     <g id="line2d_110">
      <g>
       <use xlink:href="#m0b9f267d41" x="407.225" y="62.14" style="stroke: #000000; stroke-width: 0.8"/>
      </g>
     </g>
     <g id="text_59">
      <!-- 175 -->
      <g transform="translate(381.1375 65.939219)scale(0.1 -0.1)">
       <use xlink:href="#DejaVuSans-31"/>
       <use xlink:href="#DejaVuSans-37" x="63.623047"/>
       <use xlink:href="#DejaVuSans-35" x="127.246094"/>
      </g>
     </g>
    </g>
    <g id="ytick_18">
     <g id="line2d_111">
      <path d="M 407.225 25.44 
L 709.2 25.44 
" clip-path="url(#pa2a7a8ff35)" style="fill: none; stroke-dasharray: 0.8,1.32; stroke-dashoffset: 0; stroke: #000000; stroke-opacity: 0.5; stroke-width: 0.8"/>
     </g>
     <g id="line2d_112">
      <g>
       <use xlink:href="#m0b9f267d41" x="407.225" y="25.44" style="stroke: #000000; stroke-width: 0.8"/>
      </g>
     </g>
     <g id="text_60">
      <!-- 200 -->
      <g transform="translate(381.1375 29.239219)scale(0.1 -0.1)">
       <use xlink:href="#DejaVuSans-32"/>
       <use xlink:href="#DejaVuSans-30" x="63.623047"/>
       <use xlink:href="#DejaVuSans-30" x="127.246094"/>
      </g>
     </g>
    </g>
    <g id="text_61">
     <!-- cumulative doses per hundred population -->
     <g transform="translate(375.057813 276.698594)rotate(-90)scale(0.1 -0.1)">
      <use xlink:href="#DejaVuSans-63"/>
      <use xlink:href="#DejaVuSans-75" x="54.980469"/>
      <use xlink:href="#DejaVuSans-6d" x="118.359375"/>
      <use xlink:href="#DejaVuSans-75" x="215.771484"/>
      <use xlink:href="#DejaVuSans-6c" x="279.150391"/>
      <use xlink:href="#DejaVuSans-61" x="306.933594"/>
      <use xlink:href="#DejaVuSans-74" x="368.212891"/>
      <use xlink:href="#DejaVuSans-69" x="407.421875"/>
      <use xlink:href="#DejaVuSans-76" x="435.205078"/>
      <use xlink:href="#DejaVuSans-65" x="494.384766"/>
      <use xlink:href="#DejaVuSans-20" x="555.908203"/>
      <use xlink:href="#DejaVuSans-64" x="587.695312"/>
      <use xlink:href="#DejaVuSans-6f" x="651.171875"/>
      <use xlink:href="#DejaVuSans-73" x="712.353516"/>
      <use xlink:href="#DejaVuSans-65" x="764.453125"/>
      <use xlink:href="#DejaVuSans-73" x="825.976562"/>
      <use xlink:href="#DejaVuSans-20" x="878.076172"/>
      <use xlink:href="#DejaVuSans-70" x="909.863281"/>
      <use xlink:href="#DejaVuSans-65" x="973.339844"/>
      <use xlink:href="#DejaVuSans-72" x="1034.863281"/>
      <use xlink:href="#DejaVuSans-20" x="1075.976562"/>
      <use xlink:href="#DejaVuSans-68" x="1107.763672"/>
      <use xlink:href="#DejaVuSans-75" x="1171.142578"/>
      <use xlink:href="#DejaVuSans-6e" x="1234.521484"/>
      <use xlink:href="#DejaVuSans-64" x="1297.900391"/>
      <use xlink:href="#DejaVuSans-72" x="1361.376953"/>
      <use xlink:href="#DejaVuSans-65" x="1400.240234"/>
      <use xlink:href="#DejaVuSans-64" x="1461.763672"/>
      <use xlink:href="#DejaVuSans-20" x="1525.240234"/>
      <use xlink:href="#DejaVuSans-70" x="1557.027344"/>
      <use xlink:href="#DejaVuSans-6f" x="1620.503906"/>
      <use xlink:href="#DejaVuSans-70" x="1681.685547"/>
      <use xlink:href="#DejaVuSans-75" x="1745.162109"/>
      <use xlink:href="#DejaVuSans-6c" x="1808.541016"/>
      <use xlink:href="#DejaVuSans-61" x="1836.324219"/>
      <use xlink:href="#DejaVuSans-74" x="1897.603516"/>
      <use xlink:href="#DejaVuSans-69" x="1936.8125"/>
      <use xlink:href="#DejaVuSans-6f" x="1964.595703"/>
      <use xlink:href="#DejaVuSans-6e" x="2025.777344"/>
     </g>
    </g>
   </g>
   <g id="line2d_113">
    <path d="M 328.162455 319.03997 
L 328.162455 319.039104 
L 335.849091 318.953986 
L 335.849091 318.906068 
L 340.241455 318.797632 
L 340.241455 318.753118 
L 343.535727 318.64519 
L 343.535727 318.606974 
L 349.026182 318.499136 
L 349.026182 318.459816 
L 353.418545 318.366159 
L 353.418545 318.348574 
L 355.614727 318.292416 
L 355.614727 318.227898 
L 357.810909 318.167948 
L 357.810909 318.106176 
L 360.007091 318.032612 
L 360.007091 317.994606 
L 362.203273 317.947255 
L 362.203273 317.88005 
L 364.399455 317.799619 
L 364.399455 317.693482 
L 366.595636 317.593317 
L 366.595636 317.4541 
L 369.889909 317.358443 
L 369.889909 317.211225 
L 370.988 317.211225 
L 370.988 317.041973 
L 372.086091 317.041973 
L 372.086091 316.839105 
L 373.184182 316.839105 
L 373.184182 316.646446 
L 375.380364 316.586138 
L 375.380364 316.533891 
L 378.674636 316.469134 
L 378.674636 316.32105 
L 379.772727 316.32105 
L 379.772727 316.10409 
L 380.870818 316.10409 
L 380.870818 315.858288 
L 381.968909 315.858288 
L 381.968909 315.63882 
L 383.067 315.63882 
L 383.067 315.520622 
L 385.263182 315.414365 
L 385.263182 315.182417 
L 386.361273 315.182417 
L 386.361273 314.930436 
L 387.459364 314.930436 
L 387.459364 314.687143 
L 388.557455 314.687143 
L 388.557455 314.426384 
L 389.655545 314.426384 
L 389.655545 314.143144 
L 390.753636 314.143144 
L 390.753636 313.992492 
L 392.949818 313.930781 
L 392.949818 313.717851 
L 394.047909 313.717851 
L 394.047909 313.446583 
L 395.146 313.446583 
L 395.146 313.142503 
L 396.244091 313.142503 
L 396.244091 312.831706 
L 397.342182 312.831706 
L 397.342182 312.482784 
L 398.440273 312.482784 
L 398.440273 312.343776 
L 400.636455 312.27272 
L 400.636455 312.205485 
L 401.734545 312.205485 
L 401.734545 311.906601 
L 402.832636 311.906601 
L 402.832636 311.579204 
L 403.930727 311.579204 
L 403.930727 311.206517 
L 405.028818 311.206517 
L 405.028818 310.806273 
L 406.126909 310.806273 
L 406.126909 310.642574 
L 408.323091 310.536885 
L 408.323091 310.216326 
L 409.421182 310.216326 
L 409.421182 309.809215 
L 410.519273 309.809215 
L 410.519273 309.368486 
L 411.617364 309.368486 
L 411.617364 308.919757 
L 412.715455 308.919757 
L 412.715455 308.415734 
L 413.813545 308.415734 
L 413.813545 308.19952 
L 416.009727 308.099683 
L 416.009727 307.741565 
L 417.107818 307.741565 
L 417.107818 307.290089 
L 418.205909 307.290089 
L 418.205909 306.833567 
L 419.304 306.833567 
L 419.304 306.362326 
L 420.402091 306.362326 
L 420.402091 305.882486 
L 421.500182 305.882486 
L 421.500182 305.696367 
L 422.598273 305.696367 
L 422.598273 305.570645 
L 423.696364 305.570645 
L 423.696364 305.240561 
L 424.794455 305.240561 
L 424.794455 304.799027 
L 425.892545 304.799027 
L 425.892545 304.337728 
L 426.990636 304.337728 
L 426.990636 303.875653 
L 428.088727 303.875653 
L 428.088727 303.410771 
L 429.186818 303.410771 
L 429.186818 303.172911 
L 430.284909 303.172911 
L 430.284909 303.059281 
L 431.383 303.059281 
L 431.383 302.671457 
L 432.481091 302.671457 
L 432.481091 302.154865 
L 433.579182 302.154865 
L 433.579182 301.596147 
L 434.677273 301.596147 
L 434.677273 301.092304 
L 435.775364 301.092304 
L 435.775364 300.474383 
L 436.873455 300.474383 
L 436.873455 300.168811 
L 437.971545 300.168811 
L 437.971545 300.013442 
L 439.069636 300.013442 
L 439.069636 299.581402 
L 440.167727 299.581402 
L 440.167727 298.986499 
L 441.265818 298.986499 
L 441.265818 298.360546 
L 442.363909 298.360546 
L 442.363909 297.668762 
L 443.462 297.668762 
L 443.462 297.058096 
L 444.560091 297.058096 
L 444.560091 296.772885 
L 445.658182 296.772885 
L 445.658182 296.617188 
L 446.756273 296.617188 
L 446.756273 296.458685 
L 447.854364 296.458685 
L 447.854364 295.80631 
L 448.952455 295.80631 
L 448.952455 295.46515 
L 450.050545 295.46515 
L 450.050545 294.76626 
L 451.148636 294.76626 
L 451.148636 294.122514 
L 452.246727 294.122514 
L 452.246727 293.765978 
L 453.344818 293.765978 
L 453.344818 293.547913 
L 454.442909 293.547913 
L 454.442909 293.0129 
L 455.541 293.0129 
L 455.541 292.349121 
L 456.639091 292.349121 
L 456.639091 291.620017 
L 457.737182 291.620017 
L 457.737182 290.92462 
L 458.835273 290.92462 
L 458.835273 290.303146 
L 459.933364 290.303146 
L 459.933364 289.936549 
L 461.031455 289.936549 
L 461.031455 289.718275 
L 462.129545 289.718275 
L 462.129545 289.195533 
L 463.227636 289.195533 
L 463.227636 288.516796 
L 464.325727 288.516796 
L 464.325727 287.770346 
L 465.423818 287.770346 
L 465.423818 287.040854 
L 466.521909 287.040854 
L 466.521909 286.391913 
L 467.62 286.391913 
L 467.62 285.955096 
L 468.718091 285.955096 
L 468.718091 285.745151 
L 469.816182 285.745151 
L 469.816182 285.255997 
L 470.914273 285.255997 
L 470.914273 284.629955 
L 472.012364 284.629955 
L 472.012364 283.946679 
L 473.110455 283.946679 
L 473.110455 283.261374 
L 474.208545 283.261374 
L 474.208545 282.661873 
L 475.306636 282.661873 
L 475.306636 282.282409 
L 476.404727 282.282409 
L 476.404727 282.091004 
L 477.502818 282.091004 
L 477.502818 281.620749 
L 478.600909 281.620749 
L 478.600909 280.99605 
L 479.699 280.99605 
L 479.699 280.304982 
L 480.797091 280.304982 
L 480.797091 279.570206 
L 481.895182 279.570206 
L 481.895182 278.925236 
L 482.993273 278.925236 
L 482.993273 278.453308 
L 484.091364 278.453308 
L 484.091364 278.22539 
L 485.189455 278.22539 
L 485.189455 277.695633 
L 486.287545 277.695633 
L 486.287545 277.022419 
L 487.385636 277.022419 
L 487.385636 276.280029 
L 488.483727 276.280029 
L 488.483727 275.570421 
L 489.581818 275.570421 
L 489.581818 274.918017 
L 490.679909 274.918017 
L 490.679909 274.424533 
L 491.778 274.424533 
L 491.778 274.164491 
L 492.876091 274.164491 
L 492.876091 273.497457 
L 493.974182 273.497457 
L 493.974182 272.581308 
L 495.072273 272.581308 
L 495.072273 271.566576 
L 496.170364 271.566576 
L 496.170364 270.600657 
L 497.268455 270.600657 
L 497.268455 269.673342 
L 498.366545 269.673342 
L 498.366545 268.931879 
L 499.464636 268.931879 
L 499.464636 268.514527 
L 500.562727 268.514527 
L 500.562727 267.603095 
L 501.660818 267.603095 
L 501.660818 266.439354 
L 502.758909 266.439354 
L 502.758909 265.198226 
L 503.857 265.198226 
L 503.857 263.997673 
L 504.955091 263.997673 
L 504.955091 262.739856 
L 506.053182 262.739856 
L 506.053182 261.587848 
L 507.151273 261.587848 
L 507.151273 260.911619 
L 508.249364 260.911619 
L 508.249364 259.862582 
L 509.347455 259.862582 
L 509.347455 258.583658 
L 510.445545 258.583658 
L 510.445545 257.225855 
L 511.543636 257.225855 
L 511.543636 255.963232 
L 512.641727 255.963232 
L 512.641727 254.706012 
L 513.739818 254.706012 
L 513.739818 253.607236 
L 514.837909 253.607236 
L 514.837909 252.994868 
L 515.936 252.994868 
L 515.936 251.843666 
L 517.034091 251.843666 
L 517.034091 250.438363 
L 518.132182 250.438363 
L 518.132182 248.976573 
L 519.230273 248.976573 
L 519.230273 247.511797 
L 520.328364 247.511797 
L 520.328364 246.106942 
L 521.426455 246.106942 
L 521.426455 244.80061 
L 522.524545 244.80061 
L 522.524545 244.034067 
L 523.622636 244.034067 
L 523.622636 242.64811 
L 524.720727 242.64811 
L 524.720727 240.968046 
L 526.916909 240.95267 
L 526.916909 240.046463 
L 528.015 240.046463 
L 528.015 238.284296 
L 529.113091 238.284296 
L 529.113091 236.663853 
L 530.211182 236.663853 
L 530.211182 235.541402 
L 531.309273 235.541402 
L 531.309273 233.559348 
L 532.407364 233.559348 
L 532.407364 231.077422 
L 533.505455 231.077422 
L 533.505455 228.392388 
L 534.603545 228.392388 
L 534.603545 225.60289 
L 535.701636 225.60289 
L 535.701636 222.849725 
L 536.799727 222.849725 
L 536.799727 220.482714 
L 537.897818 220.482714 
L 537.897818 219.03191 
L 538.995909 219.03191 
L 538.995909 216.681229 
L 540.094 216.681229 
L 540.094 214.087345 
L 541.192091 214.087345 
L 541.192091 211.360991 
L 542.290182 211.360991 
L 542.290182 208.657058 
L 543.388273 208.657058 
L 543.388273 206.033856 
L 544.486364 206.033856 
L 544.486364 203.683951 
L 545.584455 203.683951 
L 545.584455 202.517731 
L 546.682545 202.517731 
L 546.682545 200.51239 
L 547.780636 200.51239 
L 547.780636 198.318183 
L 548.878727 198.318183 
L 548.878727 196.304691 
L 549.976818 196.304691 
L 549.976818 194.44824 
L 551.074909 194.44824 
L 551.074909 192.496071 
L 552.173 192.496071 
L 552.173 190.633649 
L 553.271091 190.633649 
L 553.271091 189.614319 
L 554.369182 189.614319 
L 554.369182 187.956079 
L 555.467273 187.956079 
L 555.467273 186.085506 
L 556.565364 186.085506 
L 556.565364 184.195945 
L 557.663455 184.195945 
L 557.663455 182.360303 
L 558.761545 182.360303 
L 558.761545 180.536305 
L 559.859636 180.536305 
L 559.859636 178.924819 
L 560.957727 178.924819 
L 560.957727 178.121614 
L 562.055818 178.121614 
L 562.055818 176.605725 
L 563.153909 176.605725 
L 563.153909 174.981103 
L 564.252 174.981103 
L 564.252 173.484053 
L 565.350091 173.484053 
L 565.350091 171.996498 
L 566.448182 171.996498 
L 566.448182 170.474131 
L 567.546273 170.474131 
L 567.546273 168.925073 
L 568.644364 168.925073 
L 568.644364 168.181549 
L 569.742455 168.181549 
L 569.742455 166.955708 
L 570.840545 166.955708 
L 570.840545 165.614713 
L 571.938636 165.614713 
L 571.938636 164.384334 
L 573.036727 164.384334 
L 573.036727 162.992615 
L 574.134818 162.992615 
L 574.134818 161.561755 
L 575.232909 161.561755 
L 575.232909 160.056854 
L 576.331 160.056854 
L 576.331 159.245259 
L 577.429091 159.245259 
L 577.429091 157.566688 
L 578.527182 157.566688 
L 578.527182 155.650883 
L 579.625273 155.650883 
L 579.625273 153.537465 
L 580.723364 153.537465 
L 580.723364 151.061659 
L 581.821455 151.061659 
L 581.821455 148.48518 
L 582.919545 148.48518 
L 582.919545 146.030453 
L 584.017636 146.030453 
L 584.017636 144.765919 
L 585.115727 144.765919 
L 585.115727 142.68561 
L 586.213818 142.68561 
L 586.213818 140.492627 
L 587.311909 140.492627 
L 587.311909 138.421454 
L 588.41 138.421454 
L 588.41 136.381749 
L 589.508091 136.381749 
L 589.508091 134.295021 
L 590.606182 134.295021 
L 590.606182 130.376145 
L 591.704273 130.376145 
L 591.704273 129.487403 
L 592.802364 129.487403 
L 592.802364 128.205374 
L 593.900455 128.205374 
L 593.900455 126.920359 
L 594.998545 126.920359 
L 594.998545 125.62573 
L 596.096636 125.62573 
L 596.096636 124.382274 
L 597.194727 124.382274 
L 597.194727 123.036235 
L 598.292818 123.036235 
L 598.292818 121.760385 
L 599.390909 121.760385 
L 599.390909 121.190263 
L 600.489 121.190263 
L 600.489 120.869673 
L 601.587091 120.869673 
L 601.587091 119.604094 
L 602.685182 119.604094 
L 602.685182 118.424828 
L 603.783273 118.424828 
L 603.783273 117.068876 
L 604.881364 117.068876 
L 604.881364 115.776964 
L 605.979455 115.776964 
L 605.979455 114.49589 
L 607.077545 114.49589 
L 607.077545 113.891165 
L 608.175636 113.891165 
L 608.175636 113.064941 
L 609.273727 113.064941 
L 609.273727 112.195038 
L 610.371818 112.195038 
L 610.371818 111.377413 
L 611.469909 111.377413 
L 611.469909 110.591374 
L 612.568 110.591374 
L 612.568 109.750282 
L 613.666091 109.750282 
L 613.666091 108.734027 
L 614.764182 108.734027 
L 614.764182 108.306883 
L 615.862273 108.306883 
L 615.862273 107.665257 
L 616.960364 107.665257 
L 616.960364 106.995655 
L 618.058455 106.995655 
L 618.058455 106.332741 
L 619.156545 106.332741 
L 619.156545 105.645525 
L 620.254636 105.645525 
L 620.254636 104.951084 
L 621.352727 104.951084 
L 621.352727 104.138802 
L 622.450818 104.138802 
L 622.450818 103.701119 
L 623.548909 103.701119 
L 623.548909 103.058477 
L 624.647 103.058477 
L 624.647 102.430584 
L 625.745091 102.430584 
L 625.745091 101.856252 
L 626.843182 101.856252 
L 626.843182 101.28192 
L 627.941273 101.28192 
L 627.941273 100.707587 
L 629.039364 100.707587 
L 629.039364 100.133255 
L 630.137455 100.133255 
L 630.137455 99.558923 
L 631.235545 99.558923 
L 631.235545 99.558923 
" clip-path="url(#pa2a7a8ff35)" style="fill: none; stroke: #1f77b4; stroke-width: 1.5; stroke-linecap: square"/>
   </g>
   <g id="line2d_114">
    <path d="M 631.235545 99.191923 
L 631.235545 98.824923 
L 632.333636 98.824923 
L 632.333636 98.457923 
L 633.431727 98.457923 
L 633.431727 98.090923 
L 634.529818 98.090923 
L 634.529818 97.723923 
L 635.627909 97.723923 
L 635.627909 97.356923 
L 636.726 97.356923 
L 636.726 96.989923 
L 637.824091 96.989923 
L 637.824091 96.622923 
L 638.922182 96.622923 
L 638.922182 96.255923 
L 640.020273 96.255923 
L 640.020273 95.888923 
L 641.118364 95.888923 
L 641.118364 95.521923 
L 642.216455 95.521923 
L 642.216455 95.154923 
L 643.314545 95.154923 
L 643.314545 94.787923 
L 644.412636 94.787923 
L 644.412636 94.420923 
L 645.510727 94.420923 
L 645.510727 94.053923 
L 646.608818 94.053923 
L 646.608818 93.686923 
L 647.706909 93.686923 
L 647.706909 93.319923 
L 648.805 93.319923 
L 648.805 92.952923 
L 649.903091 92.952923 
L 649.903091 92.585923 
L 651.001182 92.585923 
L 651.001182 92.218923 
L 652.099273 92.218923 
L 652.099273 91.851923 
L 653.197364 91.851923 
L 653.197364 91.484923 
L 654.295455 91.484923 
L 654.295455 91.117923 
L 655.393545 91.117923 
L 655.393545 90.750923 
L 656.491636 90.750923 
L 656.491636 90.383923 
L 657.589727 90.383923 
L 657.589727 90.016923 
L 658.687818 90.016923 
L 658.687818 89.649923 
L 659.785909 89.649923 
L 659.785909 89.282923 
L 660.884 89.282923 
L 660.884 88.915923 
L 661.982091 88.915923 
L 661.982091 88.548923 
L 663.080182 88.548923 
L 663.080182 88.181923 
L 664.178273 88.181923 
L 664.178273 87.814923 
L 665.276364 87.814923 
L 665.276364 87.447923 
L 666.374455 87.447923 
L 666.374455 87.080923 
L 667.472545 87.080923 
L 667.472545 86.713923 
L 668.570636 86.713923 
L 668.570636 86.346923 
L 669.668727 86.346923 
L 669.668727 85.979923 
L 670.766818 85.979923 
L 670.766818 85.612923 
L 671.864909 85.612923 
L 671.864909 85.245923 
L 672.963 85.245923 
L 672.963 84.878923 
L 674.061091 84.878923 
L 674.061091 84.511923 
L 721 84.511923 
L 721 84.511923 
" clip-path="url(#pa2a7a8ff35)" style="fill: none; stroke: #ff7f0e; stroke-width: 1.5; stroke-linecap: square"/>
   </g>
   <g id="patch_9">
    <path d="M 407.225 319.04 
L 407.225 25.44 
" style="fill: none; stroke: #000000; stroke-width: 0.8; stroke-linejoin: miter; stroke-linecap: square"/>
   </g>
   <g id="patch_10">
    <path d="M 709.2 319.04 
L 709.2 25.44 
" style="fill: none; stroke: #000000; stroke-width: 0.8; stroke-linejoin: miter; stroke-linecap: square"/>
   </g>
   <g id="patch_11">
    <path d="M 407.225 319.04 
L 709.2 319.04 
" style="fill: none; stroke: #000000; stroke-width: 0.8; stroke-linejoin: miter; stroke-linecap: square"/>
   </g>
   <g id="patch_12">
    <path d="M 407.225 25.44 
L 709.2 25.44 
" style="fill: none; stroke: #000000; stroke-width: 0.8; stroke-linejoin: miter; stroke-linecap: square"/>
   </g>
   <g id="text_62">
    <!-- NZ cumulative vaccinations per capita -->
    <g transform="translate(442.5925 19.44)scale(0.12 -0.12)">
     <use xlink:href="#DejaVuSans-4e"/>
     <use xlink:href="#DejaVuSans-5a" x="74.804688"/>
     <use xlink:href="#DejaVuSans-20" x="143.310547"/>
     <use xlink:href="#DejaVuSans-63" x="175.097656"/>
     <use xlink:href="#DejaVuSans-75" x="230.078125"/>
     <use xlink:href="#DejaVuSans-6d" x="293.457031"/>
     <use xlink:href="#DejaVuSans-75" x="390.869141"/>
     <use xlink:href="#DejaVuSans-6c" x="454.248047"/>
     <use xlink:href="#DejaVuSans-61" x="482.03125"/>
     <use xlink:href="#DejaVuSans-74" x="543.310547"/>
     <use xlink:href="#DejaVuSans-69" x="582.519531"/>
     <use xlink:href="#DejaVuSans-76" x="610.302734"/>
     <use xlink:href="#DejaVuSans-65" x="669.482422"/>
     <use xlink:href="#DejaVuSans-20" x="731.005859"/>
     <use xlink:href="#DejaVuSans-76" x="762.792969"/>
     <use xlink:href="#DejaVuSans-61" x="821.972656"/>
     <use xlink:href="#DejaVuSans-63" x="883.251953"/>
     <use xlink:href="#DejaVuSans-63" x="938.232422"/>
     <use xlink:href="#DejaVuSans-69" x="993.212891"/>
     <use xlink:href="#DejaVuSans-6e" x="1020.996094"/>
     <use xlink:href="#DejaVuSans-61" x="1084.375"/>
     <use xlink:href="#DejaVuSans-74" x="1145.654297"/>
     <use xlink:href="#DejaVuSans-69" x="1184.863281"/>
     <use xlink:href="#DejaVuSans-6f" x="1212.646484"/>
     <use xlink:href="#DejaVuSans-6e" x="1273.828125"/>
     <use xlink:href="#DejaVuSans-73" x="1337.207031"/>
     <use xlink:href="#DejaVuSans-20" x="1389.306641"/>
     <use xlink:href="#DejaVuSans-70" x="1421.09375"/>
     <use xlink:href="#DejaVuSans-65" x="1484.570312"/>
     <use xlink:href="#DejaVuSans-72" x="1546.09375"/>
     <use xlink:href="#DejaVuSans-20" x="1587.207031"/>
     <use xlink:href="#DejaVuSans-63" x="1618.994141"/>
     <use xlink:href="#DejaVuSans-61" x="1673.974609"/>
     <use xlink:href="#DejaVuSans-70" x="1735.253906"/>
     <use xlink:href="#DejaVuSans-69" x="1798.730469"/>
     <use xlink:href="#DejaVuSans-74" x="1826.513672"/>
     <use xlink:href="#DejaVuSans-61" x="1865.722656"/>
    </g>
   </g>
   <g id="legend_2">
    <g id="patch_13">
     <path d="M 554.317187 62.79625 
L 702.2 62.79625 
Q 704.2 62.79625 704.2 60.79625 
L 704.2 32.44 
Q 704.2 30.44 702.2 30.44 
L 554.317187 30.44 
Q 552.317187 30.44 552.317187 32.44 
L 552.317187 60.79625 
Q 552.317187 62.79625 554.317187 62.79625 
z
" style="fill: #ffffff; opacity: 0.8; stroke: #cccccc; stroke-linejoin: miter"/>
    </g>
    <g id="line2d_115">
     <path d="M 556.317187 38.538437 
L 556.317187 38.538437 
L 566.317187 38.538437 
L 566.317187 38.538437 
L 576.317187 38.538437 
" style="fill: none; stroke: #1f77b4; stroke-width: 1.5; stroke-linecap: square"/>
    </g>
    <g id="text_63">
     <!-- Actual -->
     <g transform="translate(584.317187 42.038437)scale(0.1 -0.1)">
      <use xlink:href="#DejaVuSans-41"/>
      <use xlink:href="#DejaVuSans-63" x="66.658203"/>
      <use xlink:href="#DejaVuSans-74" x="121.638672"/>
      <use xlink:href="#DejaVuSans-75" x="160.847656"/>
      <use xlink:href="#DejaVuSans-61" x="224.226562"/>
      <use xlink:href="#DejaVuSans-6c" x="285.505859"/>
     </g>
    </g>
    <g id="line2d_116">
     <path d="M 556.317187 53.216563 
L 556.317187 53.216563 
L 566.317187 53.216563 
L 566.317187 53.216563 
L 576.317187 53.216563 
" style="fill: none; stroke: #ff7f0e; stroke-width: 1.5; stroke-linecap: square"/>
    </g>
    <g id="text_64">
     <!-- Assumed for projection -->
     <g transform="translate(584.317187 56.716563)scale(0.1 -0.1)">
      <use xlink:href="#DejaVuSans-41"/>
      <use xlink:href="#DejaVuSans-73" x="68.408203"/>
      <use xlink:href="#DejaVuSans-73" x="120.507812"/>
      <use xlink:href="#DejaVuSans-75" x="172.607422"/>
      <use xlink:href="#DejaVuSans-6d" x="235.986328"/>
      <use xlink:href="#DejaVuSans-65" x="333.398438"/>
      <use xlink:href="#DejaVuSans-64" x="394.921875"/>
      <use xlink:href="#DejaVuSans-20" x="458.398438"/>
      <use xlink:href="#DejaVuSans-66" x="490.185547"/>
      <use xlink:href="#DejaVuSans-6f" x="525.390625"/>
      <use xlink:href="#DejaVuSans-72" x="586.572266"/>
      <use xlink:href="#DejaVuSans-20" x="627.685547"/>
      <use xlink:href="#DejaVuSans-70" x="659.472656"/>
      <use xlink:href="#DejaVuSans-72" x="722.949219"/>
      <use xlink:href="#DejaVuSans-6f" x="761.8125"/>
      <use xlink:href="#DejaVuSans-6a" x="822.994141"/>
      <use xlink:href="#DejaVuSans-65" x="850.777344"/>
      <use xlink:href="#DejaVuSans-63" x="912.300781"/>
      <use xlink:href="#DejaVuSans-74" x="967.28125"/>
      <use xlink:href="#DejaVuSans-69" x="1006.490234"/>
      <use xlink:href="#DejaVuSans-6f" x="1034.273438"/>
      <use xlink:href="#DejaVuSans-6e" x="1095.455078"/>
     </g>
    </g>
   </g>
  </g>
 </g>
 <defs>
  <clipPath id="pa3169d9ef3">
   <rect x="54.2" y="25.44" width="301.975" height="293.6"/>
  </clipPath>
  <clipPath id="pa2a7a8ff35">
   <rect x="407.225" y="25.44" width="301.975" height="293.6"/>
  </clipPath>
 </defs>
</svg>
