<?xml version="1.0" encoding="utf-8" standalone="no"?>
<!DOCTYPE svg PUBLIC "-//W3C//DTD SVG 1.1//EN"
  "http://www.w3.org/Graphics/SVG/1.1/DTD/svg11.dtd">
<svg height="360pt" version="1.1" viewBox="0 0 720 360" width="720pt" xmlns="http://www.w3.org/2000/svg" xmlns:xlink="http://www.w3.org/1999/xlink">
 <metadata>
  <rdf:RDF xmlns:cc="http://creativecommons.org/ns#" xmlns:dc="http://purl.org/dc/elements/1.1/" xmlns:rdf="http://www.w3.org/1999/02/22-rdf-syntax-ns#">
   <cc:Work>
    <dc:type rdf:resource="http://purl.org/dc/dcmitype/StillImage"/>
    <dc:date>2021-12-09T11:16:31.213648</dc:date>
    <dc:format>image/svg+xml</dc:format>
    <dc:creator>
     <cc:Agent>
      <dc:title>Matplotlib v3.4.3, https://matplotlib.org/</dc:title>
     </cc:Agent>
    </dc:creator>
   </cc:Work>
  </rdf:RDF>
 </metadata>
 <defs>
  <style type="text/css">*{stroke-linecap:butt;stroke-linejoin:round;}</style>
 </defs>
 <g id="figure_1">
  <g id="patch_1">
   <path d="M 0 360 
L 720 360 
L 720 0 
L 0 0 
z
" style="fill:#ffffff;"/>
  </g>
  <g id="axes_1">
   <g id="patch_2">
    <path d="M 54.02 319.04 
L 356.175 319.04 
L 356.175 26.88 
L 54.02 26.88 
z
" style="fill:#ffffff;"/>
   </g>
   <g id="matplotlib.axis_1">
    <g id="xtick_1">
     <g id="line2d_1">
      <path clip-path="url(#p83374b1fdb)" d="M 54.02 319.04 
L 54.02 26.88 
" style="fill:none;stroke:#000000;stroke-dasharray:0.8,1.32;stroke-dashoffset:0;stroke-opacity:0.5;stroke-width:0.8;"/>
     </g>
     <g id="line2d_2">
      <defs>
       <path d="M 0 0 
L 0 3.5 
" id="mad8246019b" style="stroke:#000000;stroke-width:0.8;"/>
      </defs>
      <g>
       <use style="stroke:#000000;stroke-width:0.8;" x="54.02" xlink:href="#mad8246019b" y="319.04"/>
      </g>
     </g>
     <g id="text_1">
      <!-- May -->
      <g transform="translate(43.6825 333.638438)scale(0.1 -0.1)">
       <defs>
        <path d="M 628 4666 
L 1569 4666 
L 2759 1491 
L 3956 4666 
L 4897 4666 
L 4897 0 
L 4281 0 
L 4281 4097 
L 3078 897 
L 2444 897 
L 1241 4097 
L 1241 0 
L 628 0 
L 628 4666 
z
" id="DejaVuSans-4d" transform="scale(0.015625)"/>
        <path d="M 2194 1759 
Q 1497 1759 1228 1600 
Q 959 1441 959 1056 
Q 959 750 1161 570 
Q 1363 391 1709 391 
Q 2188 391 2477 730 
Q 2766 1069 2766 1631 
L 2766 1759 
L 2194 1759 
z
M 3341 1997 
L 3341 0 
L 2766 0 
L 2766 531 
Q 2569 213 2275 61 
Q 1981 -91 1556 -91 
Q 1019 -91 701 211 
Q 384 513 384 1019 
Q 384 1609 779 1909 
Q 1175 2209 1959 2209 
L 2766 2209 
L 2766 2266 
Q 2766 2663 2505 2880 
Q 2244 3097 1772 3097 
Q 1472 3097 1187 3025 
Q 903 2953 641 2809 
L 641 3341 
Q 956 3463 1253 3523 
Q 1550 3584 1831 3584 
Q 2591 3584 2966 3190 
Q 3341 2797 3341 1997 
z
" id="DejaVuSans-61" transform="scale(0.015625)"/>
        <path d="M 2059 -325 
Q 1816 -950 1584 -1140 
Q 1353 -1331 966 -1331 
L 506 -1331 
L 506 -850 
L 844 -850 
Q 1081 -850 1212 -737 
Q 1344 -625 1503 -206 
L 1606 56 
L 191 3500 
L 800 3500 
L 1894 763 
L 2988 3500 
L 3597 3500 
L 2059 -325 
z
" id="DejaVuSans-79" transform="scale(0.015625)"/>
       </defs>
       <use xlink:href="#DejaVuSans-4d"/>
       <use x="86.279297" xlink:href="#DejaVuSans-61"/>
       <use x="147.558594" xlink:href="#DejaVuSans-79"/>
      </g>
     </g>
    </g>
    <g id="xtick_2">
     <g id="line2d_3">
      <path clip-path="url(#p83374b1fdb)" d="M 69.402436 319.04 
L 69.402436 26.88 
" style="fill:none;stroke:#000000;stroke-dasharray:0.8,1.32;stroke-dashoffset:0;stroke-opacity:0.5;stroke-width:0.8;"/>
     </g>
     <g id="line2d_4">
      <g>
       <use style="stroke:#000000;stroke-width:0.8;" x="69.402436" xlink:href="#mad8246019b" y="319.04"/>
      </g>
     </g>
     <g id="text_2">
      <!-- 15 -->
      <g transform="translate(63.039936 333.638438)scale(0.1 -0.1)">
       <defs>
        <path d="M 794 531 
L 1825 531 
L 1825 4091 
L 703 3866 
L 703 4441 
L 1819 4666 
L 2450 4666 
L 2450 531 
L 3481 531 
L 3481 0 
L 794 0 
L 794 531 
z
" id="DejaVuSans-31" transform="scale(0.015625)"/>
        <path d="M 691 4666 
L 3169 4666 
L 3169 4134 
L 1269 4134 
L 1269 2991 
Q 1406 3038 1543 3061 
Q 1681 3084 1819 3084 
Q 2600 3084 3056 2656 
Q 3513 2228 3513 1497 
Q 3513 744 3044 326 
Q 2575 -91 1722 -91 
Q 1428 -91 1123 -41 
Q 819 9 494 109 
L 494 744 
Q 775 591 1075 516 
Q 1375 441 1709 441 
Q 2250 441 2565 725 
Q 2881 1009 2881 1497 
Q 2881 1984 2565 2268 
Q 2250 2553 1709 2553 
Q 1456 2553 1204 2497 
Q 953 2441 691 2322 
L 691 4666 
z
" id="DejaVuSans-35" transform="scale(0.015625)"/>
       </defs>
       <use xlink:href="#DejaVuSans-31"/>
       <use x="63.623047" xlink:href="#DejaVuSans-35"/>
      </g>
     </g>
    </g>
    <g id="xtick_3">
     <g id="line2d_5">
      <path clip-path="url(#p83374b1fdb)" d="M 88.081109 319.04 
L 88.081109 26.88 
" style="fill:none;stroke:#000000;stroke-dasharray:0.8,1.32;stroke-dashoffset:0;stroke-opacity:0.5;stroke-width:0.8;"/>
     </g>
     <g id="line2d_6">
      <g>
       <use style="stroke:#000000;stroke-width:0.8;" x="88.081109" xlink:href="#mad8246019b" y="319.04"/>
      </g>
     </g>
     <g id="text_3">
      <!-- Jun -->
      <g transform="translate(80.268609 333.638438)scale(0.1 -0.1)">
       <defs>
        <path d="M 628 4666 
L 1259 4666 
L 1259 325 
Q 1259 -519 939 -900 
Q 619 -1281 -91 -1281 
L -331 -1281 
L -331 -750 
L -134 -750 
Q 284 -750 456 -515 
Q 628 -281 628 325 
L 628 4666 
z
" id="DejaVuSans-4a" transform="scale(0.015625)"/>
        <path d="M 544 1381 
L 544 3500 
L 1119 3500 
L 1119 1403 
Q 1119 906 1312 657 
Q 1506 409 1894 409 
Q 2359 409 2629 706 
Q 2900 1003 2900 1516 
L 2900 3500 
L 3475 3500 
L 3475 0 
L 2900 0 
L 2900 538 
Q 2691 219 2414 64 
Q 2138 -91 1772 -91 
Q 1169 -91 856 284 
Q 544 659 544 1381 
z
M 1991 3584 
L 1991 3584 
z
" id="DejaVuSans-75" transform="scale(0.015625)"/>
        <path d="M 3513 2113 
L 3513 0 
L 2938 0 
L 2938 2094 
Q 2938 2591 2744 2837 
Q 2550 3084 2163 3084 
Q 1697 3084 1428 2787 
Q 1159 2491 1159 1978 
L 1159 0 
L 581 0 
L 581 3500 
L 1159 3500 
L 1159 2956 
Q 1366 3272 1645 3428 
Q 1925 3584 2291 3584 
Q 2894 3584 3203 3211 
Q 3513 2838 3513 2113 
z
" id="DejaVuSans-6e" transform="scale(0.015625)"/>
       </defs>
       <use xlink:href="#DejaVuSans-4a"/>
       <use x="29.492188" xlink:href="#DejaVuSans-75"/>
       <use x="92.871094" xlink:href="#DejaVuSans-6e"/>
      </g>
     </g>
    </g>
    <g id="xtick_4">
     <g id="line2d_7">
      <path clip-path="url(#p83374b1fdb)" d="M 103.463545 319.04 
L 103.463545 26.88 
" style="fill:none;stroke:#000000;stroke-dasharray:0.8,1.32;stroke-dashoffset:0;stroke-opacity:0.5;stroke-width:0.8;"/>
     </g>
     <g id="line2d_8">
      <g>
       <use style="stroke:#000000;stroke-width:0.8;" x="103.463545" xlink:href="#mad8246019b" y="319.04"/>
      </g>
     </g>
     <g id="text_4">
      <!-- 15 -->
      <g transform="translate(97.101045 333.638438)scale(0.1 -0.1)">
       <use xlink:href="#DejaVuSans-31"/>
       <use x="63.623047" xlink:href="#DejaVuSans-35"/>
      </g>
     </g>
    </g>
    <g id="xtick_5">
     <g id="line2d_9">
      <path clip-path="url(#p83374b1fdb)" d="M 121.043473 319.04 
L 121.043473 26.88 
" style="fill:none;stroke:#000000;stroke-dasharray:0.8,1.32;stroke-dashoffset:0;stroke-opacity:0.5;stroke-width:0.8;"/>
     </g>
     <g id="line2d_10">
      <g>
       <use style="stroke:#000000;stroke-width:0.8;" x="121.043473" xlink:href="#mad8246019b" y="319.04"/>
      </g>
     </g>
     <g id="text_5">
      <!-- Jul -->
      <g transform="translate(115.01066 333.638438)scale(0.1 -0.1)">
       <defs>
        <path d="M 603 4863 
L 1178 4863 
L 1178 0 
L 603 0 
L 603 4863 
z
" id="DejaVuSans-6c" transform="scale(0.015625)"/>
       </defs>
       <use xlink:href="#DejaVuSans-4a"/>
       <use x="29.492188" xlink:href="#DejaVuSans-75"/>
       <use x="92.871094" xlink:href="#DejaVuSans-6c"/>
      </g>
     </g>
    </g>
    <g id="xtick_6">
     <g id="line2d_11">
      <path clip-path="url(#p83374b1fdb)" d="M 136.425909 319.04 
L 136.425909 26.88 
" style="fill:none;stroke:#000000;stroke-dasharray:0.8,1.32;stroke-dashoffset:0;stroke-opacity:0.5;stroke-width:0.8;"/>
     </g>
     <g id="line2d_12">
      <g>
       <use style="stroke:#000000;stroke-width:0.8;" x="136.425909" xlink:href="#mad8246019b" y="319.04"/>
      </g>
     </g>
     <g id="text_6">
      <!-- 15 -->
      <g transform="translate(130.063409 333.638438)scale(0.1 -0.1)">
       <use xlink:href="#DejaVuSans-31"/>
       <use x="63.623047" xlink:href="#DejaVuSans-35"/>
      </g>
     </g>
    </g>
    <g id="xtick_7">
     <g id="line2d_13">
      <path clip-path="url(#p83374b1fdb)" d="M 155.104582 319.04 
L 155.104582 26.88 
" style="fill:none;stroke:#000000;stroke-dasharray:0.8,1.32;stroke-dashoffset:0;stroke-opacity:0.5;stroke-width:0.8;"/>
     </g>
     <g id="line2d_14">
      <g>
       <use style="stroke:#000000;stroke-width:0.8;" x="155.104582" xlink:href="#mad8246019b" y="319.04"/>
      </g>
     </g>
     <g id="text_7">
      <!-- Aug -->
      <g transform="translate(145.341301 333.638438)scale(0.1 -0.1)">
       <defs>
        <path d="M 2188 4044 
L 1331 1722 
L 3047 1722 
L 2188 4044 
z
M 1831 4666 
L 2547 4666 
L 4325 0 
L 3669 0 
L 3244 1197 
L 1141 1197 
L 716 0 
L 50 0 
L 1831 4666 
z
" id="DejaVuSans-41" transform="scale(0.015625)"/>
        <path d="M 2906 1791 
Q 2906 2416 2648 2759 
Q 2391 3103 1925 3103 
Q 1463 3103 1205 2759 
Q 947 2416 947 1791 
Q 947 1169 1205 825 
Q 1463 481 1925 481 
Q 2391 481 2648 825 
Q 2906 1169 2906 1791 
z
M 3481 434 
Q 3481 -459 3084 -895 
Q 2688 -1331 1869 -1331 
Q 1566 -1331 1297 -1286 
Q 1028 -1241 775 -1147 
L 775 -588 
Q 1028 -725 1275 -790 
Q 1522 -856 1778 -856 
Q 2344 -856 2625 -561 
Q 2906 -266 2906 331 
L 2906 616 
Q 2728 306 2450 153 
Q 2172 0 1784 0 
Q 1141 0 747 490 
Q 353 981 353 1791 
Q 353 2603 747 3093 
Q 1141 3584 1784 3584 
Q 2172 3584 2450 3431 
Q 2728 3278 2906 2969 
L 2906 3500 
L 3481 3500 
L 3481 434 
z
" id="DejaVuSans-67" transform="scale(0.015625)"/>
       </defs>
       <use xlink:href="#DejaVuSans-41"/>
       <use x="68.408203" xlink:href="#DejaVuSans-75"/>
       <use x="131.787109" xlink:href="#DejaVuSans-67"/>
      </g>
     </g>
    </g>
    <g id="xtick_8">
     <g id="line2d_15">
      <path clip-path="url(#p83374b1fdb)" d="M 170.487018 319.04 
L 170.487018 26.88 
" style="fill:none;stroke:#000000;stroke-dasharray:0.8,1.32;stroke-dashoffset:0;stroke-opacity:0.5;stroke-width:0.8;"/>
     </g>
     <g id="line2d_16">
      <g>
       <use style="stroke:#000000;stroke-width:0.8;" x="170.487018" xlink:href="#mad8246019b" y="319.04"/>
      </g>
     </g>
     <g id="text_8">
      <!-- 15 -->
      <g transform="translate(164.124518 333.638438)scale(0.1 -0.1)">
       <use xlink:href="#DejaVuSans-31"/>
       <use x="63.623047" xlink:href="#DejaVuSans-35"/>
      </g>
     </g>
    </g>
    <g id="xtick_9">
     <g id="line2d_17">
      <path clip-path="url(#p83374b1fdb)" d="M 189.165691 319.04 
L 189.165691 26.88 
" style="fill:none;stroke:#000000;stroke-dasharray:0.8,1.32;stroke-dashoffset:0;stroke-opacity:0.5;stroke-width:0.8;"/>
     </g>
     <g id="line2d_18">
      <g>
       <use style="stroke:#000000;stroke-width:0.8;" x="189.165691" xlink:href="#mad8246019b" y="319.04"/>
      </g>
     </g>
     <g id="text_9">
      <!-- Sep -->
      <g transform="translate(179.740691 333.638438)scale(0.1 -0.1)">
       <defs>
        <path d="M 3425 4513 
L 3425 3897 
Q 3066 4069 2747 4153 
Q 2428 4238 2131 4238 
Q 1616 4238 1336 4038 
Q 1056 3838 1056 3469 
Q 1056 3159 1242 3001 
Q 1428 2844 1947 2747 
L 2328 2669 
Q 3034 2534 3370 2195 
Q 3706 1856 3706 1288 
Q 3706 609 3251 259 
Q 2797 -91 1919 -91 
Q 1588 -91 1214 -16 
Q 841 59 441 206 
L 441 856 
Q 825 641 1194 531 
Q 1563 422 1919 422 
Q 2459 422 2753 634 
Q 3047 847 3047 1241 
Q 3047 1584 2836 1778 
Q 2625 1972 2144 2069 
L 1759 2144 
Q 1053 2284 737 2584 
Q 422 2884 422 3419 
Q 422 4038 858 4394 
Q 1294 4750 2059 4750 
Q 2388 4750 2728 4690 
Q 3069 4631 3425 4513 
z
" id="DejaVuSans-53" transform="scale(0.015625)"/>
        <path d="M 3597 1894 
L 3597 1613 
L 953 1613 
Q 991 1019 1311 708 
Q 1631 397 2203 397 
Q 2534 397 2845 478 
Q 3156 559 3463 722 
L 3463 178 
Q 3153 47 2828 -22 
Q 2503 -91 2169 -91 
Q 1331 -91 842 396 
Q 353 884 353 1716 
Q 353 2575 817 3079 
Q 1281 3584 2069 3584 
Q 2775 3584 3186 3129 
Q 3597 2675 3597 1894 
z
M 3022 2063 
Q 3016 2534 2758 2815 
Q 2500 3097 2075 3097 
Q 1594 3097 1305 2825 
Q 1016 2553 972 2059 
L 3022 2063 
z
" id="DejaVuSans-65" transform="scale(0.015625)"/>
        <path d="M 1159 525 
L 1159 -1331 
L 581 -1331 
L 581 3500 
L 1159 3500 
L 1159 2969 
Q 1341 3281 1617 3432 
Q 1894 3584 2278 3584 
Q 2916 3584 3314 3078 
Q 3713 2572 3713 1747 
Q 3713 922 3314 415 
Q 2916 -91 2278 -91 
Q 1894 -91 1617 61 
Q 1341 213 1159 525 
z
M 3116 1747 
Q 3116 2381 2855 2742 
Q 2594 3103 2138 3103 
Q 1681 3103 1420 2742 
Q 1159 2381 1159 1747 
Q 1159 1113 1420 752 
Q 1681 391 2138 391 
Q 2594 391 2855 752 
Q 3116 1113 3116 1747 
z
" id="DejaVuSans-70" transform="scale(0.015625)"/>
       </defs>
       <use xlink:href="#DejaVuSans-53"/>
       <use x="63.476562" xlink:href="#DejaVuSans-65"/>
       <use x="125" xlink:href="#DejaVuSans-70"/>
      </g>
     </g>
    </g>
    <g id="xtick_10">
     <g id="line2d_19">
      <path clip-path="url(#p83374b1fdb)" d="M 204.548127 319.04 
L 204.548127 26.88 
" style="fill:none;stroke:#000000;stroke-dasharray:0.8,1.32;stroke-dashoffset:0;stroke-opacity:0.5;stroke-width:0.8;"/>
     </g>
     <g id="line2d_20">
      <g>
       <use style="stroke:#000000;stroke-width:0.8;" x="204.548127" xlink:href="#mad8246019b" y="319.04"/>
      </g>
     </g>
     <g id="text_10">
      <!-- 15 -->
      <g transform="translate(198.185627 333.638438)scale(0.1 -0.1)">
       <use xlink:href="#DejaVuSans-31"/>
       <use x="63.623047" xlink:href="#DejaVuSans-35"/>
      </g>
     </g>
    </g>
    <g id="xtick_11">
     <g id="line2d_21">
      <path clip-path="url(#p83374b1fdb)" d="M 222.128055 319.04 
L 222.128055 26.88 
" style="fill:none;stroke:#000000;stroke-dasharray:0.8,1.32;stroke-dashoffset:0;stroke-opacity:0.5;stroke-width:0.8;"/>
     </g>
     <g id="line2d_22">
      <g>
       <use style="stroke:#000000;stroke-width:0.8;" x="222.128055" xlink:href="#mad8246019b" y="319.04"/>
      </g>
     </g>
     <g id="text_11">
      <!-- Oct -->
      <g transform="translate(213.482742 333.638438)scale(0.1 -0.1)">
       <defs>
        <path d="M 2522 4238 
Q 1834 4238 1429 3725 
Q 1025 3213 1025 2328 
Q 1025 1447 1429 934 
Q 1834 422 2522 422 
Q 3209 422 3611 934 
Q 4013 1447 4013 2328 
Q 4013 3213 3611 3725 
Q 3209 4238 2522 4238 
z
M 2522 4750 
Q 3503 4750 4090 4092 
Q 4678 3434 4678 2328 
Q 4678 1225 4090 567 
Q 3503 -91 2522 -91 
Q 1538 -91 948 565 
Q 359 1222 359 2328 
Q 359 3434 948 4092 
Q 1538 4750 2522 4750 
z
" id="DejaVuSans-4f" transform="scale(0.015625)"/>
        <path d="M 3122 3366 
L 3122 2828 
Q 2878 2963 2633 3030 
Q 2388 3097 2138 3097 
Q 1578 3097 1268 2742 
Q 959 2388 959 1747 
Q 959 1106 1268 751 
Q 1578 397 2138 397 
Q 2388 397 2633 464 
Q 2878 531 3122 666 
L 3122 134 
Q 2881 22 2623 -34 
Q 2366 -91 2075 -91 
Q 1284 -91 818 406 
Q 353 903 353 1747 
Q 353 2603 823 3093 
Q 1294 3584 2113 3584 
Q 2378 3584 2631 3529 
Q 2884 3475 3122 3366 
z
" id="DejaVuSans-63" transform="scale(0.015625)"/>
        <path d="M 1172 4494 
L 1172 3500 
L 2356 3500 
L 2356 3053 
L 1172 3053 
L 1172 1153 
Q 1172 725 1289 603 
Q 1406 481 1766 481 
L 2356 481 
L 2356 0 
L 1766 0 
Q 1100 0 847 248 
Q 594 497 594 1153 
L 594 3053 
L 172 3053 
L 172 3500 
L 594 3500 
L 594 4494 
L 1172 4494 
z
" id="DejaVuSans-74" transform="scale(0.015625)"/>
       </defs>
       <use xlink:href="#DejaVuSans-4f"/>
       <use x="78.710938" xlink:href="#DejaVuSans-63"/>
       <use x="133.691406" xlink:href="#DejaVuSans-74"/>
      </g>
     </g>
    </g>
    <g id="xtick_12">
     <g id="line2d_23">
      <path clip-path="url(#p83374b1fdb)" d="M 237.510491 319.04 
L 237.510491 26.88 
" style="fill:none;stroke:#000000;stroke-dasharray:0.8,1.32;stroke-dashoffset:0;stroke-opacity:0.5;stroke-width:0.8;"/>
     </g>
     <g id="line2d_24">
      <g>
       <use style="stroke:#000000;stroke-width:0.8;" x="237.510491" xlink:href="#mad8246019b" y="319.04"/>
      </g>
     </g>
     <g id="text_12">
      <!-- 15 -->
      <g transform="translate(231.147991 333.638438)scale(0.1 -0.1)">
       <use xlink:href="#DejaVuSans-31"/>
       <use x="63.623047" xlink:href="#DejaVuSans-35"/>
      </g>
     </g>
    </g>
    <g id="xtick_13">
     <g id="line2d_25">
      <path clip-path="url(#p83374b1fdb)" d="M 256.189164 319.04 
L 256.189164 26.88 
" style="fill:none;stroke:#000000;stroke-dasharray:0.8,1.32;stroke-dashoffset:0;stroke-opacity:0.5;stroke-width:0.8;"/>
     </g>
     <g id="line2d_26">
      <g>
       <use style="stroke:#000000;stroke-width:0.8;" x="256.189164" xlink:href="#mad8246019b" y="319.04"/>
      </g>
     </g>
     <g id="text_13">
      <!-- Nov -->
      <g transform="translate(246.429789 333.638438)scale(0.1 -0.1)">
       <defs>
        <path d="M 628 4666 
L 1478 4666 
L 3547 763 
L 3547 4666 
L 4159 4666 
L 4159 0 
L 3309 0 
L 1241 3903 
L 1241 0 
L 628 0 
L 628 4666 
z
" id="DejaVuSans-4e" transform="scale(0.015625)"/>
        <path d="M 1959 3097 
Q 1497 3097 1228 2736 
Q 959 2375 959 1747 
Q 959 1119 1226 758 
Q 1494 397 1959 397 
Q 2419 397 2687 759 
Q 2956 1122 2956 1747 
Q 2956 2369 2687 2733 
Q 2419 3097 1959 3097 
z
M 1959 3584 
Q 2709 3584 3137 3096 
Q 3566 2609 3566 1747 
Q 3566 888 3137 398 
Q 2709 -91 1959 -91 
Q 1206 -91 779 398 
Q 353 888 353 1747 
Q 353 2609 779 3096 
Q 1206 3584 1959 3584 
z
" id="DejaVuSans-6f" transform="scale(0.015625)"/>
        <path d="M 191 3500 
L 800 3500 
L 1894 563 
L 2988 3500 
L 3597 3500 
L 2284 0 
L 1503 0 
L 191 3500 
z
" id="DejaVuSans-76" transform="scale(0.015625)"/>
       </defs>
       <use xlink:href="#DejaVuSans-4e"/>
       <use x="74.804688" xlink:href="#DejaVuSans-6f"/>
       <use x="135.986328" xlink:href="#DejaVuSans-76"/>
      </g>
     </g>
    </g>
    <g id="xtick_14">
     <g id="line2d_27">
      <path clip-path="url(#p83374b1fdb)" d="M 271.5716 319.04 
L 271.5716 26.88 
" style="fill:none;stroke:#000000;stroke-dasharray:0.8,1.32;stroke-dashoffset:0;stroke-opacity:0.5;stroke-width:0.8;"/>
     </g>
     <g id="line2d_28">
      <g>
       <use style="stroke:#000000;stroke-width:0.8;" x="271.5716" xlink:href="#mad8246019b" y="319.04"/>
      </g>
     </g>
     <g id="text_14">
      <!-- 15 -->
      <g transform="translate(265.2091 333.638438)scale(0.1 -0.1)">
       <use xlink:href="#DejaVuSans-31"/>
       <use x="63.623047" xlink:href="#DejaVuSans-35"/>
      </g>
     </g>
    </g>
    <g id="xtick_15">
     <g id="line2d_29">
      <path clip-path="url(#p83374b1fdb)" d="M 289.151527 319.04 
L 289.151527 26.88 
" style="fill:none;stroke:#000000;stroke-dasharray:0.8,1.32;stroke-dashoffset:0;stroke-opacity:0.5;stroke-width:0.8;"/>
     </g>
     <g id="line2d_30">
      <g>
       <use style="stroke:#000000;stroke-width:0.8;" x="289.151527" xlink:href="#mad8246019b" y="319.04"/>
      </g>
     </g>
     <g id="text_15">
      <!-- Dec -->
      <g transform="translate(279.475746 333.638438)scale(0.1 -0.1)">
       <defs>
        <path d="M 1259 4147 
L 1259 519 
L 2022 519 
Q 2988 519 3436 956 
Q 3884 1394 3884 2338 
Q 3884 3275 3436 3711 
Q 2988 4147 2022 4147 
L 1259 4147 
z
M 628 4666 
L 1925 4666 
Q 3281 4666 3915 4102 
Q 4550 3538 4550 2338 
Q 4550 1131 3912 565 
Q 3275 0 1925 0 
L 628 0 
L 628 4666 
z
" id="DejaVuSans-44" transform="scale(0.015625)"/>
       </defs>
       <use xlink:href="#DejaVuSans-44"/>
       <use x="77.001953" xlink:href="#DejaVuSans-65"/>
       <use x="138.525391" xlink:href="#DejaVuSans-63"/>
      </g>
     </g>
    </g>
    <g id="xtick_16">
     <g id="line2d_31">
      <path clip-path="url(#p83374b1fdb)" d="M 304.533964 319.04 
L 304.533964 26.88 
" style="fill:none;stroke:#000000;stroke-dasharray:0.8,1.32;stroke-dashoffset:0;stroke-opacity:0.5;stroke-width:0.8;"/>
     </g>
     <g id="line2d_32">
      <g>
       <use style="stroke:#000000;stroke-width:0.8;" x="304.533964" xlink:href="#mad8246019b" y="319.04"/>
      </g>
     </g>
     <g id="text_16">
      <!-- 15 -->
      <g transform="translate(298.171464 333.638438)scale(0.1 -0.1)">
       <use xlink:href="#DejaVuSans-31"/>
       <use x="63.623047" xlink:href="#DejaVuSans-35"/>
      </g>
     </g>
    </g>
    <g id="xtick_17">
     <g id="line2d_33">
      <path clip-path="url(#p83374b1fdb)" d="M 323.212636 319.04 
L 323.212636 26.88 
" style="fill:none;stroke:#000000;stroke-dasharray:0.8,1.32;stroke-dashoffset:0;stroke-opacity:0.5;stroke-width:0.8;"/>
     </g>
     <g id="line2d_34">
      <g>
       <use style="stroke:#000000;stroke-width:0.8;" x="323.212636" xlink:href="#mad8246019b" y="319.04"/>
      </g>
     </g>
     <g id="text_17">
      <!-- Jan -->
      <g transform="translate(315.504824 333.638438)scale(0.1 -0.1)">
       <use xlink:href="#DejaVuSans-4a"/>
       <use x="29.492188" xlink:href="#DejaVuSans-61"/>
       <use x="90.771484" xlink:href="#DejaVuSans-6e"/>
      </g>
     </g>
    </g>
    <g id="xtick_18">
     <g id="line2d_35">
      <path clip-path="url(#p83374b1fdb)" d="M 338.595073 319.04 
L 338.595073 26.88 
" style="fill:none;stroke:#000000;stroke-dasharray:0.8,1.32;stroke-dashoffset:0;stroke-opacity:0.5;stroke-width:0.8;"/>
     </g>
     <g id="line2d_36">
      <g>
       <use style="stroke:#000000;stroke-width:0.8;" x="338.595073" xlink:href="#mad8246019b" y="319.04"/>
      </g>
     </g>
     <g id="text_18">
      <!-- 15 -->
      <g transform="translate(332.232573 333.638438)scale(0.1 -0.1)">
       <use xlink:href="#DejaVuSans-31"/>
       <use x="63.623047" xlink:href="#DejaVuSans-35"/>
      </g>
     </g>
    </g>
    <g id="text_19">
     <!-- 2022-Jan -->
     <g transform="translate(311.139062 346.316563)scale(0.1 -0.1)">
      <defs>
       <path d="M 1228 531 
L 3431 531 
L 3431 0 
L 469 0 
L 469 531 
Q 828 903 1448 1529 
Q 2069 2156 2228 2338 
Q 2531 2678 2651 2914 
Q 2772 3150 2772 3378 
Q 2772 3750 2511 3984 
Q 2250 4219 1831 4219 
Q 1534 4219 1204 4116 
Q 875 4013 500 3803 
L 500 4441 
Q 881 4594 1212 4672 
Q 1544 4750 1819 4750 
Q 2544 4750 2975 4387 
Q 3406 4025 3406 3419 
Q 3406 3131 3298 2873 
Q 3191 2616 2906 2266 
Q 2828 2175 2409 1742 
Q 1991 1309 1228 531 
z
" id="DejaVuSans-32" transform="scale(0.015625)"/>
       <path d="M 2034 4250 
Q 1547 4250 1301 3770 
Q 1056 3291 1056 2328 
Q 1056 1369 1301 889 
Q 1547 409 2034 409 
Q 2525 409 2770 889 
Q 3016 1369 3016 2328 
Q 3016 3291 2770 3770 
Q 2525 4250 2034 4250 
z
M 2034 4750 
Q 2819 4750 3233 4129 
Q 3647 3509 3647 2328 
Q 3647 1150 3233 529 
Q 2819 -91 2034 -91 
Q 1250 -91 836 529 
Q 422 1150 422 2328 
Q 422 3509 836 4129 
Q 1250 4750 2034 4750 
z
" id="DejaVuSans-30" transform="scale(0.015625)"/>
       <path d="M 313 2009 
L 1997 2009 
L 1997 1497 
L 313 1497 
L 313 2009 
z
" id="DejaVuSans-2d" transform="scale(0.015625)"/>
      </defs>
      <use xlink:href="#DejaVuSans-32"/>
      <use x="63.623047" xlink:href="#DejaVuSans-30"/>
      <use x="127.246094" xlink:href="#DejaVuSans-32"/>
      <use x="190.869141" xlink:href="#DejaVuSans-32"/>
      <use x="254.492188" xlink:href="#DejaVuSans-2d"/>
      <use x="296.201172" xlink:href="#DejaVuSans-4a"/>
      <use x="325.693359" xlink:href="#DejaVuSans-61"/>
      <use x="386.972656" xlink:href="#DejaVuSans-6e"/>
     </g>
    </g>
   </g>
   <g id="matplotlib.axis_2">
    <g id="ytick_1">
     <g id="line2d_37">
      <path clip-path="url(#p83374b1fdb)" d="M 54.02 319.04 
L 356.175 319.04 
" style="fill:none;stroke:#000000;stroke-dasharray:0.8,1.32;stroke-dashoffset:0;stroke-opacity:0.5;stroke-width:0.8;"/>
     </g>
     <g id="line2d_38">
      <defs>
       <path d="M 0 0 
L -3.5 0 
" id="me687030bad" style="stroke:#000000;stroke-width:0.8;"/>
      </defs>
      <g>
       <use style="stroke:#000000;stroke-width:0.8;" x="54.02" xlink:href="#me687030bad" y="319.04"/>
      </g>
     </g>
     <g id="text_20">
      <!-- 0.00 -->
      <g transform="translate(24.754375 322.839219)scale(0.1 -0.1)">
       <defs>
        <path d="M 684 794 
L 1344 794 
L 1344 0 
L 684 0 
L 684 794 
z
" id="DejaVuSans-2e" transform="scale(0.015625)"/>
       </defs>
       <use xlink:href="#DejaVuSans-30"/>
       <use x="63.623047" xlink:href="#DejaVuSans-2e"/>
       <use x="95.410156" xlink:href="#DejaVuSans-30"/>
       <use x="159.033203" xlink:href="#DejaVuSans-30"/>
      </g>
     </g>
    </g>
    <g id="ytick_2">
     <g id="line2d_39">
      <path clip-path="url(#p83374b1fdb)" d="M 54.02 285.84 
L 356.175 285.84 
" style="fill:none;stroke:#000000;stroke-dasharray:0.8,1.32;stroke-dashoffset:0;stroke-opacity:0.5;stroke-width:0.8;"/>
     </g>
     <g id="line2d_40">
      <g>
       <use style="stroke:#000000;stroke-width:0.8;" x="54.02" xlink:href="#me687030bad" y="285.84"/>
      </g>
     </g>
     <g id="text_21">
      <!-- 0.25 -->
      <g transform="translate(24.754375 289.639219)scale(0.1 -0.1)">
       <use xlink:href="#DejaVuSans-30"/>
       <use x="63.623047" xlink:href="#DejaVuSans-2e"/>
       <use x="95.410156" xlink:href="#DejaVuSans-32"/>
       <use x="159.033203" xlink:href="#DejaVuSans-35"/>
      </g>
     </g>
    </g>
    <g id="ytick_3">
     <g id="line2d_41">
      <path clip-path="url(#p83374b1fdb)" d="M 54.02 252.64 
L 356.175 252.64 
" style="fill:none;stroke:#000000;stroke-dasharray:0.8,1.32;stroke-dashoffset:0;stroke-opacity:0.5;stroke-width:0.8;"/>
     </g>
     <g id="line2d_42">
      <g>
       <use style="stroke:#000000;stroke-width:0.8;" x="54.02" xlink:href="#me687030bad" y="252.64"/>
      </g>
     </g>
     <g id="text_22">
      <!-- 0.50 -->
      <g transform="translate(24.754375 256.439219)scale(0.1 -0.1)">
       <use xlink:href="#DejaVuSans-30"/>
       <use x="63.623047" xlink:href="#DejaVuSans-2e"/>
       <use x="95.410156" xlink:href="#DejaVuSans-35"/>
       <use x="159.033203" xlink:href="#DejaVuSans-30"/>
      </g>
     </g>
    </g>
    <g id="ytick_4">
     <g id="line2d_43">
      <path clip-path="url(#p83374b1fdb)" d="M 54.02 219.44 
L 356.175 219.44 
" style="fill:none;stroke:#000000;stroke-dasharray:0.8,1.32;stroke-dashoffset:0;stroke-opacity:0.5;stroke-width:0.8;"/>
     </g>
     <g id="line2d_44">
      <g>
       <use style="stroke:#000000;stroke-width:0.8;" x="54.02" xlink:href="#me687030bad" y="219.44"/>
      </g>
     </g>
     <g id="text_23">
      <!-- 0.75 -->
      <g transform="translate(24.754375 223.239219)scale(0.1 -0.1)">
       <defs>
        <path d="M 525 4666 
L 3525 4666 
L 3525 4397 
L 1831 0 
L 1172 0 
L 2766 4134 
L 525 4134 
L 525 4666 
z
" id="DejaVuSans-37" transform="scale(0.015625)"/>
       </defs>
       <use xlink:href="#DejaVuSans-30"/>
       <use x="63.623047" xlink:href="#DejaVuSans-2e"/>
       <use x="95.410156" xlink:href="#DejaVuSans-37"/>
       <use x="159.033203" xlink:href="#DejaVuSans-35"/>
      </g>
     </g>
    </g>
    <g id="ytick_5">
     <g id="line2d_45">
      <path clip-path="url(#p83374b1fdb)" d="M 54.02 186.24 
L 356.175 186.24 
" style="fill:none;stroke:#000000;stroke-dasharray:0.8,1.32;stroke-dashoffset:0;stroke-opacity:0.5;stroke-width:0.8;"/>
     </g>
     <g id="line2d_46">
      <g>
       <use style="stroke:#000000;stroke-width:0.8;" x="54.02" xlink:href="#me687030bad" y="186.24"/>
      </g>
     </g>
     <g id="text_24">
      <!-- 1.00 -->
      <g transform="translate(24.754375 190.039219)scale(0.1 -0.1)">
       <use xlink:href="#DejaVuSans-31"/>
       <use x="63.623047" xlink:href="#DejaVuSans-2e"/>
       <use x="95.410156" xlink:href="#DejaVuSans-30"/>
       <use x="159.033203" xlink:href="#DejaVuSans-30"/>
      </g>
     </g>
    </g>
    <g id="ytick_6">
     <g id="line2d_47">
      <path clip-path="url(#p83374b1fdb)" d="M 54.02 153.04 
L 356.175 153.04 
" style="fill:none;stroke:#000000;stroke-dasharray:0.8,1.32;stroke-dashoffset:0;stroke-opacity:0.5;stroke-width:0.8;"/>
     </g>
     <g id="line2d_48">
      <g>
       <use style="stroke:#000000;stroke-width:0.8;" x="54.02" xlink:href="#me687030bad" y="153.04"/>
      </g>
     </g>
     <g id="text_25">
      <!-- 1.25 -->
      <g transform="translate(24.754375 156.839219)scale(0.1 -0.1)">
       <use xlink:href="#DejaVuSans-31"/>
       <use x="63.623047" xlink:href="#DejaVuSans-2e"/>
       <use x="95.410156" xlink:href="#DejaVuSans-32"/>
       <use x="159.033203" xlink:href="#DejaVuSans-35"/>
      </g>
     </g>
    </g>
    <g id="ytick_7">
     <g id="line2d_49">
      <path clip-path="url(#p83374b1fdb)" d="M 54.02 119.84 
L 356.175 119.84 
" style="fill:none;stroke:#000000;stroke-dasharray:0.8,1.32;stroke-dashoffset:0;stroke-opacity:0.5;stroke-width:0.8;"/>
     </g>
     <g id="line2d_50">
      <g>
       <use style="stroke:#000000;stroke-width:0.8;" x="54.02" xlink:href="#me687030bad" y="119.84"/>
      </g>
     </g>
     <g id="text_26">
      <!-- 1.50 -->
      <g transform="translate(24.754375 123.639219)scale(0.1 -0.1)">
       <use xlink:href="#DejaVuSans-31"/>
       <use x="63.623047" xlink:href="#DejaVuSans-2e"/>
       <use x="95.410156" xlink:href="#DejaVuSans-35"/>
       <use x="159.033203" xlink:href="#DejaVuSans-30"/>
      </g>
     </g>
    </g>
    <g id="ytick_8">
     <g id="line2d_51">
      <path clip-path="url(#p83374b1fdb)" d="M 54.02 86.64 
L 356.175 86.64 
" style="fill:none;stroke:#000000;stroke-dasharray:0.8,1.32;stroke-dashoffset:0;stroke-opacity:0.5;stroke-width:0.8;"/>
     </g>
     <g id="line2d_52">
      <g>
       <use style="stroke:#000000;stroke-width:0.8;" x="54.02" xlink:href="#me687030bad" y="86.64"/>
      </g>
     </g>
     <g id="text_27">
      <!-- 1.75 -->
      <g transform="translate(24.754375 90.439219)scale(0.1 -0.1)">
       <use xlink:href="#DejaVuSans-31"/>
       <use x="63.623047" xlink:href="#DejaVuSans-2e"/>
       <use x="95.410156" xlink:href="#DejaVuSans-37"/>
       <use x="159.033203" xlink:href="#DejaVuSans-35"/>
      </g>
     </g>
    </g>
    <g id="ytick_9">
     <g id="line2d_53">
      <path clip-path="url(#p83374b1fdb)" d="M 54.02 53.44 
L 356.175 53.44 
" style="fill:none;stroke:#000000;stroke-dasharray:0.8,1.32;stroke-dashoffset:0;stroke-opacity:0.5;stroke-width:0.8;"/>
     </g>
     <g id="line2d_54">
      <g>
       <use style="stroke:#000000;stroke-width:0.8;" x="54.02" xlink:href="#me687030bad" y="53.44"/>
      </g>
     </g>
     <g id="text_28">
      <!-- 2.00 -->
      <g transform="translate(24.754375 57.239219)scale(0.1 -0.1)">
       <use xlink:href="#DejaVuSans-32"/>
       <use x="63.623047" xlink:href="#DejaVuSans-2e"/>
       <use x="95.410156" xlink:href="#DejaVuSans-30"/>
       <use x="159.033203" xlink:href="#DejaVuSans-30"/>
      </g>
     </g>
    </g>
    <g id="text_29">
     <!-- 7d avg doses per hundred population per day -->
     <g transform="translate(18.674688 287.4475)rotate(-90)scale(0.1 -0.1)">
      <defs>
       <path d="M 2906 2969 
L 2906 4863 
L 3481 4863 
L 3481 0 
L 2906 0 
L 2906 525 
Q 2725 213 2448 61 
Q 2172 -91 1784 -91 
Q 1150 -91 751 415 
Q 353 922 353 1747 
Q 353 2572 751 3078 
Q 1150 3584 1784 3584 
Q 2172 3584 2448 3432 
Q 2725 3281 2906 2969 
z
M 947 1747 
Q 947 1113 1208 752 
Q 1469 391 1925 391 
Q 2381 391 2643 752 
Q 2906 1113 2906 1747 
Q 2906 2381 2643 2742 
Q 2381 3103 1925 3103 
Q 1469 3103 1208 2742 
Q 947 2381 947 1747 
z
" id="DejaVuSans-64" transform="scale(0.015625)"/>
       <path id="DejaVuSans-20" transform="scale(0.015625)"/>
       <path d="M 2834 3397 
L 2834 2853 
Q 2591 2978 2328 3040 
Q 2066 3103 1784 3103 
Q 1356 3103 1142 2972 
Q 928 2841 928 2578 
Q 928 2378 1081 2264 
Q 1234 2150 1697 2047 
L 1894 2003 
Q 2506 1872 2764 1633 
Q 3022 1394 3022 966 
Q 3022 478 2636 193 
Q 2250 -91 1575 -91 
Q 1294 -91 989 -36 
Q 684 19 347 128 
L 347 722 
Q 666 556 975 473 
Q 1284 391 1588 391 
Q 1994 391 2212 530 
Q 2431 669 2431 922 
Q 2431 1156 2273 1281 
Q 2116 1406 1581 1522 
L 1381 1569 
Q 847 1681 609 1914 
Q 372 2147 372 2553 
Q 372 3047 722 3315 
Q 1072 3584 1716 3584 
Q 2034 3584 2315 3537 
Q 2597 3491 2834 3397 
z
" id="DejaVuSans-73" transform="scale(0.015625)"/>
       <path d="M 2631 2963 
Q 2534 3019 2420 3045 
Q 2306 3072 2169 3072 
Q 1681 3072 1420 2755 
Q 1159 2438 1159 1844 
L 1159 0 
L 581 0 
L 581 3500 
L 1159 3500 
L 1159 2956 
Q 1341 3275 1631 3429 
Q 1922 3584 2338 3584 
Q 2397 3584 2469 3576 
Q 2541 3569 2628 3553 
L 2631 2963 
z
" id="DejaVuSans-72" transform="scale(0.015625)"/>
       <path d="M 3513 2113 
L 3513 0 
L 2938 0 
L 2938 2094 
Q 2938 2591 2744 2837 
Q 2550 3084 2163 3084 
Q 1697 3084 1428 2787 
Q 1159 2491 1159 1978 
L 1159 0 
L 581 0 
L 581 4863 
L 1159 4863 
L 1159 2956 
Q 1366 3272 1645 3428 
Q 1925 3584 2291 3584 
Q 2894 3584 3203 3211 
Q 3513 2838 3513 2113 
z
" id="DejaVuSans-68" transform="scale(0.015625)"/>
       <path d="M 603 3500 
L 1178 3500 
L 1178 0 
L 603 0 
L 603 3500 
z
M 603 4863 
L 1178 4863 
L 1178 4134 
L 603 4134 
L 603 4863 
z
" id="DejaVuSans-69" transform="scale(0.015625)"/>
      </defs>
      <use xlink:href="#DejaVuSans-37"/>
      <use x="63.623047" xlink:href="#DejaVuSans-64"/>
      <use x="127.099609" xlink:href="#DejaVuSans-20"/>
      <use x="158.886719" xlink:href="#DejaVuSans-61"/>
      <use x="220.166016" xlink:href="#DejaVuSans-76"/>
      <use x="279.345703" xlink:href="#DejaVuSans-67"/>
      <use x="342.822266" xlink:href="#DejaVuSans-20"/>
      <use x="374.609375" xlink:href="#DejaVuSans-64"/>
      <use x="438.085938" xlink:href="#DejaVuSans-6f"/>
      <use x="499.267578" xlink:href="#DejaVuSans-73"/>
      <use x="551.367188" xlink:href="#DejaVuSans-65"/>
      <use x="612.890625" xlink:href="#DejaVuSans-73"/>
      <use x="664.990234" xlink:href="#DejaVuSans-20"/>
      <use x="696.777344" xlink:href="#DejaVuSans-70"/>
      <use x="760.253906" xlink:href="#DejaVuSans-65"/>
      <use x="821.777344" xlink:href="#DejaVuSans-72"/>
      <use x="862.890625" xlink:href="#DejaVuSans-20"/>
      <use x="894.677734" xlink:href="#DejaVuSans-68"/>
      <use x="958.056641" xlink:href="#DejaVuSans-75"/>
      <use x="1021.435547" xlink:href="#DejaVuSans-6e"/>
      <use x="1084.814453" xlink:href="#DejaVuSans-64"/>
      <use x="1148.291016" xlink:href="#DejaVuSans-72"/>
      <use x="1187.154297" xlink:href="#DejaVuSans-65"/>
      <use x="1248.677734" xlink:href="#DejaVuSans-64"/>
      <use x="1312.154297" xlink:href="#DejaVuSans-20"/>
      <use x="1343.941406" xlink:href="#DejaVuSans-70"/>
      <use x="1407.417969" xlink:href="#DejaVuSans-6f"/>
      <use x="1468.599609" xlink:href="#DejaVuSans-70"/>
      <use x="1532.076172" xlink:href="#DejaVuSans-75"/>
      <use x="1595.455078" xlink:href="#DejaVuSans-6c"/>
      <use x="1623.238281" xlink:href="#DejaVuSans-61"/>
      <use x="1684.517578" xlink:href="#DejaVuSans-74"/>
      <use x="1723.726562" xlink:href="#DejaVuSans-69"/>
      <use x="1751.509766" xlink:href="#DejaVuSans-6f"/>
      <use x="1812.691406" xlink:href="#DejaVuSans-6e"/>
      <use x="1876.070312" xlink:href="#DejaVuSans-20"/>
      <use x="1907.857422" xlink:href="#DejaVuSans-70"/>
      <use x="1971.333984" xlink:href="#DejaVuSans-65"/>
      <use x="2032.857422" xlink:href="#DejaVuSans-72"/>
      <use x="2073.970703" xlink:href="#DejaVuSans-20"/>
      <use x="2105.757812" xlink:href="#DejaVuSans-64"/>
      <use x="2169.234375" xlink:href="#DejaVuSans-61"/>
      <use x="2230.513672" xlink:href="#DejaVuSans-79"/>
     </g>
    </g>
   </g>
   <g id="line2d_55">
    <path clip-path="url(#p83374b1fdb)" d="M -1 316.219172 
L 1.280218 316.129659 
L 1.280218 315.817905 
L 2.378964 315.817905 
L 2.378964 315.533546 
L 3.477709 315.533546 
L 3.477709 315.267707 
L 4.576455 315.267707 
L 4.576455 314.984119 
L 5.6752 314.984119 
L 5.6752 314.437779 
L 6.773945 314.437779 
L 6.773945 314.238689 
L 7.872691 314.238689 
L 7.872691 313.853627 
L 8.971436 313.853627 
L 8.971436 313.709326 
L 10.070182 313.709326 
L 10.070182 313.503676 
L 11.168927 313.503676 
L 11.168927 312.906406 
L 12.267673 312.906406 
L 12.267673 312.409839 
L 13.366418 312.409839 
L 13.366418 311.559076 
L 14.465164 311.559076 
L 14.465164 311.266229 
L 15.563909 311.266229 
L 15.563909 311.425192 
L 16.662655 311.425192 
L 16.662655 310.391158 
L 17.7614 310.391158 
L 17.7614 309.243304 
L 18.860145 309.243304 
L 18.860145 307.992432 
L 19.958891 307.992432 
L 19.958891 306.796349 
L 21.057636 306.796349 
L 21.057636 307.818807 
L 23.255127 307.927998 
L 23.255127 308.012881 
L 24.353873 308.012881 
L 24.353873 309.448567 
L 25.452618 309.448567 
L 25.452618 309.721352 
L 26.551364 309.721352 
L 26.551364 309.538081 
L 27.650109 309.538081 
L 27.650109 308.853612 
L 28.748855 308.853612 
L 28.748855 306.795963 
L 29.8476 306.795963 
L 29.8476 305.942885 
L 30.946345 305.942885 
L 30.946345 304.938947 
L 32.045091 304.938947 
L 32.045091 302.409423 
L 33.143836 302.409423 
L 33.143836 301.068266 
L 34.242582 301.068266 
L 34.242582 300.729118 
L 35.341327 300.729118 
L 35.341327 300.53543 
L 36.440073 300.53543 
L 36.440073 299.708589 
L 37.538818 299.708589 
L 37.538818 299.287645 
L 38.637564 299.287645 
L 38.637564 299.860993 
L 39.736309 299.860993 
L 39.736309 300.106769 
L 40.835055 300.106769 
L 40.835055 299.857521 
L 41.9338 299.857521 
L 41.9338 299.073507 
L 43.032545 299.073507 
L 43.032545 298.425307 
L 44.131291 298.425307 
L 44.131291 297.578403 
L 45.230036 297.578403 
L 45.230036 297.730421 
L 46.328782 297.730421 
L 46.328782 297.611584 
L 47.427527 297.611584 
L 47.427527 299.495609 
L 48.526273 299.495609 
L 48.526273 299.137555 
L 49.625018 299.137555 
L 49.625018 298.834676 
L 50.723764 298.834676 
L 50.723764 298.034844 
L 51.822509 298.034844 
L 51.822509 297.373911 
L 52.921255 297.373911 
L 52.921255 297.055984 
L 54.02 297.055984 
L 54.02 296.60726 
L 55.118745 296.60726 
L 55.118745 293.333849 
L 56.217491 293.333849 
L 56.217491 291.934432 
L 57.316236 291.934432 
L 57.316236 290.469808 
L 58.414982 290.469808 
L 58.414982 289.48709 
L 59.513727 289.48709 
L 59.513727 288.142847 
L 60.612473 288.142847 
L 60.612473 287.462237 
L 62.809964 287.539017 
L 62.809964 287.052867 
L 63.908709 287.052867 
L 63.908709 286.479519 
L 65.007455 286.479519 
L 65.007455 286.277342 
L 66.1062 286.277342 
L 66.1062 285.98681 
L 67.204945 285.98681 
L 67.204945 286.303965 
L 68.303691 286.303965 
L 68.303691 286.692885 
L 69.402436 286.692885 
L 69.402436 286.355281 
L 70.501182 286.355281 
L 70.501182 286.717964 
L 71.599927 286.717964 
L 71.599927 286.848376 
L 74.896164 286.903164 
L 74.896164 287.096852 
L 75.994909 287.096852 
L 75.994909 286.428203 
L 77.093655 286.428203 
L 77.093655 286.587552 
L 78.1924 286.587552 
L 78.1924 285.840193 
L 79.291145 285.840193 
L 79.291145 284.866735 
L 80.389891 284.866735 
L 80.389891 283.606217 
L 81.488636 283.606217 
L 81.488636 283.062192 
L 82.587382 283.062192 
L 82.587382 281.080552 
L 83.686127 281.080552 
L 83.686127 280.206639 
L 84.784873 280.206639 
L 84.784873 279.66763 
L 85.883618 279.66763 
L 85.883618 279.096982 
L 86.982364 279.096982 
L 86.982364 278.085327 
L 88.081109 278.085327 
L 88.081109 277.218745 
L 89.179855 277.218745 
L 89.179855 274.796869 
L 91.377345 274.89217 
L 91.377345 275.154537 
L 93.574836 275.149135 
L 93.574836 278.683755 
L 94.673582 278.683755 
L 94.673582 277.942183 
L 95.772327 277.942183 
L 95.772327 281.623034 
L 97.969818 281.52889 
L 97.969818 281.099458 
L 99.068564 281.099458 
L 99.068564 280.177316 
L 100.167309 280.177316 
L 100.167309 279.372082 
L 101.266055 279.372082 
L 101.266055 274.506722 
L 102.3648 274.506722 
L 102.3648 274.360492 
L 103.463545 274.360492 
L 103.463545 269.345043 
L 105.661036 269.390186 
L 105.661036 269.678789 
L 106.759782 269.678789 
L 106.759782 269.547992 
L 108.957273 269.544519 
L 108.957273 269.701167 
L 110.056018 269.701167 
L 110.056018 269.509408 
L 111.154764 269.509408 
L 111.154764 269.286396 
L 112.253509 269.286396 
L 112.253509 268.845775 
L 113.352255 268.845775 
L 113.352255 268.48965 
L 114.451 268.48965 
L 114.451 267.580627 
L 116.648491 267.687503 
L 116.648491 268.124266 
L 117.747236 268.124266 
L 117.747236 268.801404 
L 118.845982 268.801404 
L 118.845982 269.613969 
L 119.944727 269.613969 
L 119.944727 270.183845 
L 121.043473 270.183845 
L 121.043473 270.824328 
L 122.142218 270.824328 
L 122.142218 271.567829 
L 123.240964 271.567829 
L 123.240964 271.809747 
L 124.339709 271.809747 
L 124.339709 272.053594 
L 127.635945 271.975269 
L 127.635945 271.335944 
L 128.734691 271.335944 
L 128.734691 270.75102 
L 129.833436 270.75102 
L 129.833436 269.556094 
L 130.932182 269.556094 
L 130.932182 269.083448 
L 132.030927 269.083448 
L 132.030927 268.315254 
L 133.129673 268.315254 
L 133.129673 267.684802 
L 134.228418 267.684802 
L 134.228418 267.02194 
L 135.327164 267.02194 
L 135.327164 267.347198 
L 137.524655 267.249196 
L 137.524655 266.969853 
L 138.6234 266.969853 
L 138.6234 266.551609 
L 139.722145 266.551609 
L 139.722145 264.775232 
L 140.820891 264.775232 
L 140.820891 261.639178 
L 141.919636 261.639178 
L 141.919636 258.120378 
L 143.018382 258.120378 
L 143.018382 254.80684 
L 144.117127 254.80684 
L 144.117127 251.248685 
L 145.215873 251.248685 
L 145.215873 248.042409 
L 146.314618 248.042409 
L 146.314618 246.011382 
L 147.413364 246.011382 
L 147.413364 242.854493 
L 148.512109 242.854493 
L 148.512109 239.652848 
L 149.610855 239.652848 
L 149.610855 236.725915 
L 150.7096 236.725915 
L 150.7096 233.696351 
L 151.808345 233.696351 
L 151.808345 229.424018 
L 152.907091 229.424018 
L 152.907091 224.120352 
L 154.005836 224.120352 
L 154.005836 220.774405 
L 155.104582 220.774405 
L 155.104582 218.994941 
L 156.203327 218.994941 
L 156.203327 217.509097 
L 157.302073 217.509097 
L 157.302073 215.998945 
L 158.400818 215.998945 
L 158.400818 215.197569 
L 160.598309 215.215703 
L 160.598309 215.902872 
L 161.697055 215.902872 
L 161.697055 216.733957 
L 162.7958 216.733957 
L 162.7958 215.414021 
L 163.894545 215.414021 
L 163.894545 213.780403 
L 164.993291 213.780403 
L 164.993291 212.43886 
L 166.092036 212.43886 
L 166.092036 209.827154 
L 167.190782 209.827154 
L 167.190782 207.912262 
L 168.289527 207.912262 
L 168.289527 205.233035 
L 169.388273 205.233035 
L 169.388273 203.232489 
L 170.487018 203.232489 
L 170.487018 200.199067 
L 171.585764 200.199067 
L 171.585764 196.643612 
L 172.684509 196.643612 
L 172.684509 215.338784 
L 173.783255 215.338784 
L 173.783255 222.555412 
L 174.882 222.555412 
L 174.882 217.942388 
L 175.980745 217.942388 
L 175.980745 213.876861 
L 177.079491 213.876861 
L 177.079491 209.282357 
L 178.178236 209.282357 
L 178.178236 201.59154 
L 179.276982 201.59154 
L 179.276982 191.253905 
L 180.375727 191.253905 
L 180.375727 156.746509 
L 181.474473 156.746509 
L 181.474473 132.407752 
L 182.573218 132.407752 
L 182.573218 119.627792 
L 183.671964 119.627792 
L 183.671964 109.990445 
L 184.770709 109.990445 
L 184.770709 105.747049 
L 185.869455 105.747049 
L 185.869455 100.984707 
L 186.9682 100.984707 
L 186.9682 99.53436 
L 188.066945 99.53436 
L 188.066945 99.016185 
L 189.165691 99.016185 
L 189.165691 100.12044 
L 190.264436 100.12044 
L 190.264436 101.769878 
L 191.363182 101.769878 
L 191.363182 101.987488 
L 192.461927 101.987488 
L 192.461927 105.669111 
L 193.560673 105.669111 
L 193.560673 110.124329 
L 194.659418 110.124329 
L 194.659418 115.27289 
L 195.758164 115.27289 
L 195.758164 124.47656 
L 196.856909 124.47656 
L 196.856909 135.434615 
L 197.955655 135.434615 
L 197.955655 144.109693 
L 199.0544 144.109693 
L 199.0544 150.411896 
L 200.153145 150.411896 
L 200.153145 152.307881 
L 201.251891 152.307881 
L 201.251891 156.790108 
L 202.350636 156.790108 
L 202.350636 160.968684 
L 203.449382 160.968684 
L 203.449382 162.573751 
L 204.548127 162.573751 
L 204.548127 162.840747 
L 205.646873 162.840747 
L 205.646873 164.496358 
L 206.745618 164.496358 
L 206.745618 167.737359 
L 207.844364 167.737359 
L 207.844364 170.526549 
L 208.943109 170.526549 
L 208.943109 172.360029 
L 210.041855 172.360029 
L 210.041855 175.542769 
L 211.1406 175.542769 
L 211.1406 180.613391 
L 212.239345 180.613391 
L 212.239345 185.108351 
L 213.338091 185.108351 
L 213.338091 189.00604 
L 214.436836 189.00604 
L 214.436836 189.813589 
L 215.535582 189.813589 
L 215.535582 190.586799 
L 216.634327 190.586799 
L 216.634327 194.339029 
L 217.733073 194.339029 
L 217.733073 198.006761 
L 218.831818 198.006761 
L 218.831818 201.443765 
L 219.930564 201.443765 
L 219.930564 202.680361 
L 221.029309 202.680361 
L 221.029309 203.862169 
L 222.128055 203.862169 
L 222.128055 204.427415 
L 223.2268 204.427415 
L 223.2268 203.5454 
L 224.325545 203.5454 
L 224.325545 197.688835 
L 225.424291 197.688835 
L 225.424291 190.248037 
L 226.523036 190.248037 
L 226.523036 178.839329 
L 227.621782 178.839329 
L 227.621782 164.822002 
L 228.720527 164.822002 
L 228.720527 150.001755 
L 229.819273 150.001755 
L 229.819273 137.71952 
L 230.918018 137.71952 
L 230.918018 131.863341 
L 232.016764 131.863341 
L 232.016764 126.663078 
L 233.115509 126.663078 
L 233.115509 123.082544 
L 234.214255 123.082544 
L 234.214255 123.630427 
L 235.313 123.630427 
L 235.313 129.265138 
L 236.411745 129.265138 
L 236.411745 135.602066 
L 237.510491 135.602066 
L 237.510491 116.66189 
L 238.609236 116.66189 
L 238.609236 121.519147 
L 239.707982 121.519147 
L 239.707982 131.844049 
L 240.806727 131.844049 
L 240.806727 143.581101 
L 241.905473 143.581101 
L 241.905473 153.616242 
L 243.004218 153.616242 
L 243.004218 163.917608 
L 244.102964 163.917608 
L 244.102964 173.493608 
L 245.201709 173.493608 
L 245.201709 207.675747 
L 246.300455 207.675747 
L 246.300455 211.792975 
L 247.3992 211.792975 
L 247.3992 224.222212 
L 248.497945 224.222212 
L 248.497945 224.477634 
L 249.596691 224.477634 
L 249.596691 225.972738 
L 250.695436 225.972738 
L 250.695436 224.517761 
L 251.794182 224.517761 
L 251.794182 225.21882 
L 253.991673 225.145126 
L 253.991673 224.698331 
L 255.090418 224.698331 
L 255.090418 218.164242 
L 256.189164 218.164242 
L 256.189164 223.274219 
L 257.287909 223.274219 
L 257.287909 227.939331 
L 258.386655 227.939331 
L 258.386655 235.290229 
L 259.4854 235.290229 
L 259.4854 241.103195 
L 260.584145 241.103195 
L 260.584145 244.527467 
L 261.682891 244.527467 
L 261.682891 246.823947 
L 262.781636 246.823947 
L 262.781636 249.199524 
L 263.880382 249.199524 
L 263.880382 251.785765 
L 264.979127 251.785765 
L 264.979127 253.77898 
L 266.077873 253.77898 
L 266.077873 255.045671 
L 267.176618 255.045671 
L 267.176618 256.942814 
L 268.275364 256.942814 
L 268.275364 259.555678 
L 269.374109 259.555678 
L 269.374109 259.414463 
L 271.5716 259.384368 
L 271.5716 259.858557 
L 272.670345 259.858557 
L 272.670345 260.502513 
L 273.769091 260.502513 
L 273.769091 261.340929 
L 274.867836 261.340929 
L 274.867836 261.559311 
L 275.966582 261.559311 
L 275.966582 263.736569 
L 277.065327 263.736569 
L 277.065327 265.584711 
L 278.164073 265.584711 
L 278.164073 267.979193 
L 279.262818 267.979193 
L 279.262818 268.794845 
L 280.361564 268.794845 
L 280.361564 269.483943 
L 281.460309 269.483943 
L 281.460309 270.487882 
L 282.559055 270.487882 
L 282.559055 272.300913 
L 283.6578 272.300913 
L 283.6578 272.566752 
L 284.756545 272.566752 
L 284.756545 271.835984 
L 285.855291 271.835984 
L 285.855291 270.744847 
L 286.954036 270.744847 
L 286.954036 269.622072 
L 288.052782 269.622072 
L 288.052782 268.26008 
L 289.151527 268.26008 
L 289.151527 265.499056 
L 290.250273 265.499056 
L 290.250273 262.849924 
L 291.349018 262.849924 
L 291.349018 263.326814 
L 292.447764 263.326814 
L 292.447764 264.213459 
L 293.546509 264.213459 
L 293.546509 265.335462 
L 294.645255 265.335462 
L 294.645255 268.23963 
L 295.744 268.23963 
L 295.744 271.640752 
L 296.842745 271.640752 
L 296.842745 271.640752 
" style="fill:none;stroke:#1f77b4;stroke-linecap:square;stroke-width:1.5;"/>
   </g>
   <g id="line2d_56">
    <path clip-path="url(#p83374b1fdb)" d="M 296.842745 285.84 
L 313.323927 285.84 
L 313.323927 319.04 
L 516.591836 319.04 
L 516.591836 319.04 
" style="fill:none;stroke:#ff7f0e;stroke-linecap:square;stroke-width:1.5;"/>
   </g>
   <g id="patch_3">
    <path d="M 54.02 319.04 
L 54.02 26.88 
" style="fill:none;stroke:#000000;stroke-linecap:square;stroke-linejoin:miter;stroke-width:0.8;"/>
   </g>
   <g id="patch_4">
    <path d="M 356.175 319.04 
L 356.175 26.88 
" style="fill:none;stroke:#000000;stroke-linecap:square;stroke-linejoin:miter;stroke-width:0.8;"/>
   </g>
   <g id="patch_5">
    <path d="M 54.02 319.04 
L 356.175 319.04 
" style="fill:none;stroke:#000000;stroke-linecap:square;stroke-linejoin:miter;stroke-width:0.8;"/>
   </g>
   <g id="patch_6">
    <path d="M 54.02 26.88 
L 356.175 26.88 
" style="fill:none;stroke:#000000;stroke-linecap:square;stroke-linejoin:miter;stroke-width:0.8;"/>
   </g>
   <g id="text_30">
    <!-- NZ daily vaccinations per capita -->
    <g transform="translate(108.460937 20.88)scale(0.12 -0.12)">
     <defs>
      <path d="M 359 4666 
L 4025 4666 
L 4025 4184 
L 1075 531 
L 4097 531 
L 4097 0 
L 288 0 
L 288 481 
L 3238 4134 
L 359 4134 
L 359 4666 
z
" id="DejaVuSans-5a" transform="scale(0.015625)"/>
     </defs>
     <use xlink:href="#DejaVuSans-4e"/>
     <use x="74.804688" xlink:href="#DejaVuSans-5a"/>
     <use x="143.310547" xlink:href="#DejaVuSans-20"/>
     <use x="175.097656" xlink:href="#DejaVuSans-64"/>
     <use x="238.574219" xlink:href="#DejaVuSans-61"/>
     <use x="299.853516" xlink:href="#DejaVuSans-69"/>
     <use x="327.636719" xlink:href="#DejaVuSans-6c"/>
     <use x="355.419922" xlink:href="#DejaVuSans-79"/>
     <use x="414.599609" xlink:href="#DejaVuSans-20"/>
     <use x="446.386719" xlink:href="#DejaVuSans-76"/>
     <use x="505.566406" xlink:href="#DejaVuSans-61"/>
     <use x="566.845703" xlink:href="#DejaVuSans-63"/>
     <use x="621.826172" xlink:href="#DejaVuSans-63"/>
     <use x="676.806641" xlink:href="#DejaVuSans-69"/>
     <use x="704.589844" xlink:href="#DejaVuSans-6e"/>
     <use x="767.96875" xlink:href="#DejaVuSans-61"/>
     <use x="829.248047" xlink:href="#DejaVuSans-74"/>
     <use x="868.457031" xlink:href="#DejaVuSans-69"/>
     <use x="896.240234" xlink:href="#DejaVuSans-6f"/>
     <use x="957.421875" xlink:href="#DejaVuSans-6e"/>
     <use x="1020.800781" xlink:href="#DejaVuSans-73"/>
     <use x="1072.900391" xlink:href="#DejaVuSans-20"/>
     <use x="1104.6875" xlink:href="#DejaVuSans-70"/>
     <use x="1168.164062" xlink:href="#DejaVuSans-65"/>
     <use x="1229.6875" xlink:href="#DejaVuSans-72"/>
     <use x="1270.800781" xlink:href="#DejaVuSans-20"/>
     <use x="1302.587891" xlink:href="#DejaVuSans-63"/>
     <use x="1357.568359" xlink:href="#DejaVuSans-61"/>
     <use x="1418.847656" xlink:href="#DejaVuSans-70"/>
     <use x="1482.324219" xlink:href="#DejaVuSans-69"/>
     <use x="1510.107422" xlink:href="#DejaVuSans-74"/>
     <use x="1549.316406" xlink:href="#DejaVuSans-61"/>
    </g>
   </g>
   <g id="legend_1">
    <g id="patch_7">
     <path d="M 201.292187 64.23625 
L 349.175 64.23625 
Q 351.175 64.23625 351.175 62.23625 
L 351.175 33.88 
Q 351.175 31.88 349.175 31.88 
L 201.292187 31.88 
Q 199.292187 31.88 199.292187 33.88 
L 199.292187 62.23625 
Q 199.292187 64.23625 201.292187 64.23625 
z
" style="fill:#ffffff;opacity:0.8;stroke:#cccccc;stroke-linejoin:miter;"/>
    </g>
    <g id="line2d_57">
     <path d="M 203.292187 39.978437 
L 223.292187 39.978437 
" style="fill:none;stroke:#1f77b4;stroke-linecap:square;stroke-width:1.5;"/>
    </g>
    <g id="line2d_58"/>
    <g id="text_31">
     <!-- Actual -->
     <g transform="translate(231.292187 43.478437)scale(0.1 -0.1)">
      <use xlink:href="#DejaVuSans-41"/>
      <use x="66.658203" xlink:href="#DejaVuSans-63"/>
      <use x="121.638672" xlink:href="#DejaVuSans-74"/>
      <use x="160.847656" xlink:href="#DejaVuSans-75"/>
      <use x="224.226562" xlink:href="#DejaVuSans-61"/>
      <use x="285.505859" xlink:href="#DejaVuSans-6c"/>
     </g>
    </g>
    <g id="line2d_59">
     <path d="M 203.292187 54.656563 
L 223.292187 54.656563 
" style="fill:none;stroke:#ff7f0e;stroke-linecap:square;stroke-width:1.5;"/>
    </g>
    <g id="line2d_60"/>
    <g id="text_32">
     <!-- Assumed for projection -->
     <g transform="translate(231.292187 58.156563)scale(0.1 -0.1)">
      <defs>
       <path d="M 3328 2828 
Q 3544 3216 3844 3400 
Q 4144 3584 4550 3584 
Q 5097 3584 5394 3201 
Q 5691 2819 5691 2113 
L 5691 0 
L 5113 0 
L 5113 2094 
Q 5113 2597 4934 2840 
Q 4756 3084 4391 3084 
Q 3944 3084 3684 2787 
Q 3425 2491 3425 1978 
L 3425 0 
L 2847 0 
L 2847 2094 
Q 2847 2600 2669 2842 
Q 2491 3084 2119 3084 
Q 1678 3084 1418 2786 
Q 1159 2488 1159 1978 
L 1159 0 
L 581 0 
L 581 3500 
L 1159 3500 
L 1159 2956 
Q 1356 3278 1631 3431 
Q 1906 3584 2284 3584 
Q 2666 3584 2933 3390 
Q 3200 3197 3328 2828 
z
" id="DejaVuSans-6d" transform="scale(0.015625)"/>
       <path d="M 2375 4863 
L 2375 4384 
L 1825 4384 
Q 1516 4384 1395 4259 
Q 1275 4134 1275 3809 
L 1275 3500 
L 2222 3500 
L 2222 3053 
L 1275 3053 
L 1275 0 
L 697 0 
L 697 3053 
L 147 3053 
L 147 3500 
L 697 3500 
L 697 3744 
Q 697 4328 969 4595 
Q 1241 4863 1831 4863 
L 2375 4863 
z
" id="DejaVuSans-66" transform="scale(0.015625)"/>
       <path d="M 603 3500 
L 1178 3500 
L 1178 -63 
Q 1178 -731 923 -1031 
Q 669 -1331 103 -1331 
L -116 -1331 
L -116 -844 
L 38 -844 
Q 366 -844 484 -692 
Q 603 -541 603 -63 
L 603 3500 
z
M 603 4863 
L 1178 4863 
L 1178 4134 
L 603 4134 
L 603 4863 
z
" id="DejaVuSans-6a" transform="scale(0.015625)"/>
      </defs>
      <use xlink:href="#DejaVuSans-41"/>
      <use x="68.408203" xlink:href="#DejaVuSans-73"/>
      <use x="120.507812" xlink:href="#DejaVuSans-73"/>
      <use x="172.607422" xlink:href="#DejaVuSans-75"/>
      <use x="235.986328" xlink:href="#DejaVuSans-6d"/>
      <use x="333.398438" xlink:href="#DejaVuSans-65"/>
      <use x="394.921875" xlink:href="#DejaVuSans-64"/>
      <use x="458.398438" xlink:href="#DejaVuSans-20"/>
      <use x="490.185547" xlink:href="#DejaVuSans-66"/>
      <use x="525.390625" xlink:href="#DejaVuSans-6f"/>
      <use x="586.572266" xlink:href="#DejaVuSans-72"/>
      <use x="627.685547" xlink:href="#DejaVuSans-20"/>
      <use x="659.472656" xlink:href="#DejaVuSans-70"/>
      <use x="722.949219" xlink:href="#DejaVuSans-72"/>
      <use x="761.8125" xlink:href="#DejaVuSans-6f"/>
      <use x="822.994141" xlink:href="#DejaVuSans-6a"/>
      <use x="850.777344" xlink:href="#DejaVuSans-65"/>
      <use x="912.300781" xlink:href="#DejaVuSans-63"/>
      <use x="967.28125" xlink:href="#DejaVuSans-74"/>
      <use x="1006.490234" xlink:href="#DejaVuSans-69"/>
      <use x="1034.273438" xlink:href="#DejaVuSans-6f"/>
      <use x="1095.455078" xlink:href="#DejaVuSans-6e"/>
     </g>
    </g>
   </g>
  </g>
  <g id="axes_2">
   <g id="patch_8">
    <path d="M 407.045 319.04 
L 709.2 319.04 
L 709.2 26.88 
L 407.045 26.88 
z
" style="fill:#ffffff;"/>
   </g>
   <g id="matplotlib.axis_3">
    <g id="xtick_19">
     <g id="line2d_61">
      <path clip-path="url(#pd42d6ed763)" d="M 407.045 319.04 
L 407.045 26.88 
" style="fill:none;stroke:#000000;stroke-dasharray:0.8,1.32;stroke-dashoffset:0;stroke-opacity:0.5;stroke-width:0.8;"/>
     </g>
     <g id="line2d_62">
      <g>
       <use style="stroke:#000000;stroke-width:0.8;" x="407.045" xlink:href="#mad8246019b" y="319.04"/>
      </g>
     </g>
     <g id="text_33">
      <!-- May -->
      <g transform="translate(396.7075 333.638438)scale(0.1 -0.1)">
       <use xlink:href="#DejaVuSans-4d"/>
       <use x="86.279297" xlink:href="#DejaVuSans-61"/>
       <use x="147.558594" xlink:href="#DejaVuSans-79"/>
      </g>
     </g>
    </g>
    <g id="xtick_20">
     <g id="line2d_63">
      <path clip-path="url(#pd42d6ed763)" d="M 422.427436 319.04 
L 422.427436 26.88 
" style="fill:none;stroke:#000000;stroke-dasharray:0.8,1.32;stroke-dashoffset:0;stroke-opacity:0.5;stroke-width:0.8;"/>
     </g>
     <g id="line2d_64">
      <g>
       <use style="stroke:#000000;stroke-width:0.8;" x="422.427436" xlink:href="#mad8246019b" y="319.04"/>
      </g>
     </g>
     <g id="text_34">
      <!-- 15 -->
      <g transform="translate(416.064936 333.638438)scale(0.1 -0.1)">
       <use xlink:href="#DejaVuSans-31"/>
       <use x="63.623047" xlink:href="#DejaVuSans-35"/>
      </g>
     </g>
    </g>
    <g id="xtick_21">
     <g id="line2d_65">
      <path clip-path="url(#pd42d6ed763)" d="M 441.106109 319.04 
L 441.106109 26.88 
" style="fill:none;stroke:#000000;stroke-dasharray:0.8,1.32;stroke-dashoffset:0;stroke-opacity:0.5;stroke-width:0.8;"/>
     </g>
     <g id="line2d_66">
      <g>
       <use style="stroke:#000000;stroke-width:0.8;" x="441.106109" xlink:href="#mad8246019b" y="319.04"/>
      </g>
     </g>
     <g id="text_35">
      <!-- Jun -->
      <g transform="translate(433.293609 333.638438)scale(0.1 -0.1)">
       <use xlink:href="#DejaVuSans-4a"/>
       <use x="29.492188" xlink:href="#DejaVuSans-75"/>
       <use x="92.871094" xlink:href="#DejaVuSans-6e"/>
      </g>
     </g>
    </g>
    <g id="xtick_22">
     <g id="line2d_67">
      <path clip-path="url(#pd42d6ed763)" d="M 456.488545 319.04 
L 456.488545 26.88 
" style="fill:none;stroke:#000000;stroke-dasharray:0.8,1.32;stroke-dashoffset:0;stroke-opacity:0.5;stroke-width:0.8;"/>
     </g>
     <g id="line2d_68">
      <g>
       <use style="stroke:#000000;stroke-width:0.8;" x="456.488545" xlink:href="#mad8246019b" y="319.04"/>
      </g>
     </g>
     <g id="text_36">
      <!-- 15 -->
      <g transform="translate(450.126045 333.638438)scale(0.1 -0.1)">
       <use xlink:href="#DejaVuSans-31"/>
       <use x="63.623047" xlink:href="#DejaVuSans-35"/>
      </g>
     </g>
    </g>
    <g id="xtick_23">
     <g id="line2d_69">
      <path clip-path="url(#pd42d6ed763)" d="M 474.068473 319.04 
L 474.068473 26.88 
" style="fill:none;stroke:#000000;stroke-dasharray:0.8,1.32;stroke-dashoffset:0;stroke-opacity:0.5;stroke-width:0.8;"/>
     </g>
     <g id="line2d_70">
      <g>
       <use style="stroke:#000000;stroke-width:0.8;" x="474.068473" xlink:href="#mad8246019b" y="319.04"/>
      </g>
     </g>
     <g id="text_37">
      <!-- Jul -->
      <g transform="translate(468.03566 333.638438)scale(0.1 -0.1)">
       <use xlink:href="#DejaVuSans-4a"/>
       <use x="29.492188" xlink:href="#DejaVuSans-75"/>
       <use x="92.871094" xlink:href="#DejaVuSans-6c"/>
      </g>
     </g>
    </g>
    <g id="xtick_24">
     <g id="line2d_71">
      <path clip-path="url(#pd42d6ed763)" d="M 489.450909 319.04 
L 489.450909 26.88 
" style="fill:none;stroke:#000000;stroke-dasharray:0.8,1.32;stroke-dashoffset:0;stroke-opacity:0.5;stroke-width:0.8;"/>
     </g>
     <g id="line2d_72">
      <g>
       <use style="stroke:#000000;stroke-width:0.8;" x="489.450909" xlink:href="#mad8246019b" y="319.04"/>
      </g>
     </g>
     <g id="text_38">
      <!-- 15 -->
      <g transform="translate(483.088409 333.638438)scale(0.1 -0.1)">
       <use xlink:href="#DejaVuSans-31"/>
       <use x="63.623047" xlink:href="#DejaVuSans-35"/>
      </g>
     </g>
    </g>
    <g id="xtick_25">
     <g id="line2d_73">
      <path clip-path="url(#pd42d6ed763)" d="M 508.129582 319.04 
L 508.129582 26.88 
" style="fill:none;stroke:#000000;stroke-dasharray:0.8,1.32;stroke-dashoffset:0;stroke-opacity:0.5;stroke-width:0.8;"/>
     </g>
     <g id="line2d_74">
      <g>
       <use style="stroke:#000000;stroke-width:0.8;" x="508.129582" xlink:href="#mad8246019b" y="319.04"/>
      </g>
     </g>
     <g id="text_39">
      <!-- Aug -->
      <g transform="translate(498.366301 333.638438)scale(0.1 -0.1)">
       <use xlink:href="#DejaVuSans-41"/>
       <use x="68.408203" xlink:href="#DejaVuSans-75"/>
       <use x="131.787109" xlink:href="#DejaVuSans-67"/>
      </g>
     </g>
    </g>
    <g id="xtick_26">
     <g id="line2d_75">
      <path clip-path="url(#pd42d6ed763)" d="M 523.512018 319.04 
L 523.512018 26.88 
" style="fill:none;stroke:#000000;stroke-dasharray:0.8,1.32;stroke-dashoffset:0;stroke-opacity:0.5;stroke-width:0.8;"/>
     </g>
     <g id="line2d_76">
      <g>
       <use style="stroke:#000000;stroke-width:0.8;" x="523.512018" xlink:href="#mad8246019b" y="319.04"/>
      </g>
     </g>
     <g id="text_40">
      <!-- 15 -->
      <g transform="translate(517.149518 333.638438)scale(0.1 -0.1)">
       <use xlink:href="#DejaVuSans-31"/>
       <use x="63.623047" xlink:href="#DejaVuSans-35"/>
      </g>
     </g>
    </g>
    <g id="xtick_27">
     <g id="line2d_77">
      <path clip-path="url(#pd42d6ed763)" d="M 542.190691 319.04 
L 542.190691 26.88 
" style="fill:none;stroke:#000000;stroke-dasharray:0.8,1.32;stroke-dashoffset:0;stroke-opacity:0.5;stroke-width:0.8;"/>
     </g>
     <g id="line2d_78">
      <g>
       <use style="stroke:#000000;stroke-width:0.8;" x="542.190691" xlink:href="#mad8246019b" y="319.04"/>
      </g>
     </g>
     <g id="text_41">
      <!-- Sep -->
      <g transform="translate(532.765691 333.638438)scale(0.1 -0.1)">
       <use xlink:href="#DejaVuSans-53"/>
       <use x="63.476562" xlink:href="#DejaVuSans-65"/>
       <use x="125" xlink:href="#DejaVuSans-70"/>
      </g>
     </g>
    </g>
    <g id="xtick_28">
     <g id="line2d_79">
      <path clip-path="url(#pd42d6ed763)" d="M 557.573127 319.04 
L 557.573127 26.88 
" style="fill:none;stroke:#000000;stroke-dasharray:0.8,1.32;stroke-dashoffset:0;stroke-opacity:0.5;stroke-width:0.8;"/>
     </g>
     <g id="line2d_80">
      <g>
       <use style="stroke:#000000;stroke-width:0.8;" x="557.573127" xlink:href="#mad8246019b" y="319.04"/>
      </g>
     </g>
     <g id="text_42">
      <!-- 15 -->
      <g transform="translate(551.210627 333.638438)scale(0.1 -0.1)">
       <use xlink:href="#DejaVuSans-31"/>
       <use x="63.623047" xlink:href="#DejaVuSans-35"/>
      </g>
     </g>
    </g>
    <g id="xtick_29">
     <g id="line2d_81">
      <path clip-path="url(#pd42d6ed763)" d="M 575.153055 319.04 
L 575.153055 26.88 
" style="fill:none;stroke:#000000;stroke-dasharray:0.8,1.32;stroke-dashoffset:0;stroke-opacity:0.5;stroke-width:0.8;"/>
     </g>
     <g id="line2d_82">
      <g>
       <use style="stroke:#000000;stroke-width:0.8;" x="575.153055" xlink:href="#mad8246019b" y="319.04"/>
      </g>
     </g>
     <g id="text_43">
      <!-- Oct -->
      <g transform="translate(566.507742 333.638438)scale(0.1 -0.1)">
       <use xlink:href="#DejaVuSans-4f"/>
       <use x="78.710938" xlink:href="#DejaVuSans-63"/>
       <use x="133.691406" xlink:href="#DejaVuSans-74"/>
      </g>
     </g>
    </g>
    <g id="xtick_30">
     <g id="line2d_83">
      <path clip-path="url(#pd42d6ed763)" d="M 590.535491 319.04 
L 590.535491 26.88 
" style="fill:none;stroke:#000000;stroke-dasharray:0.8,1.32;stroke-dashoffset:0;stroke-opacity:0.5;stroke-width:0.8;"/>
     </g>
     <g id="line2d_84">
      <g>
       <use style="stroke:#000000;stroke-width:0.8;" x="590.535491" xlink:href="#mad8246019b" y="319.04"/>
      </g>
     </g>
     <g id="text_44">
      <!-- 15 -->
      <g transform="translate(584.172991 333.638438)scale(0.1 -0.1)">
       <use xlink:href="#DejaVuSans-31"/>
       <use x="63.623047" xlink:href="#DejaVuSans-35"/>
      </g>
     </g>
    </g>
    <g id="xtick_31">
     <g id="line2d_85">
      <path clip-path="url(#pd42d6ed763)" d="M 609.214164 319.04 
L 609.214164 26.88 
" style="fill:none;stroke:#000000;stroke-dasharray:0.8,1.32;stroke-dashoffset:0;stroke-opacity:0.5;stroke-width:0.8;"/>
     </g>
     <g id="line2d_86">
      <g>
       <use style="stroke:#000000;stroke-width:0.8;" x="609.214164" xlink:href="#mad8246019b" y="319.04"/>
      </g>
     </g>
     <g id="text_45">
      <!-- Nov -->
      <g transform="translate(599.454789 333.638438)scale(0.1 -0.1)">
       <use xlink:href="#DejaVuSans-4e"/>
       <use x="74.804688" xlink:href="#DejaVuSans-6f"/>
       <use x="135.986328" xlink:href="#DejaVuSans-76"/>
      </g>
     </g>
    </g>
    <g id="xtick_32">
     <g id="line2d_87">
      <path clip-path="url(#pd42d6ed763)" d="M 624.5966 319.04 
L 624.5966 26.88 
" style="fill:none;stroke:#000000;stroke-dasharray:0.8,1.32;stroke-dashoffset:0;stroke-opacity:0.5;stroke-width:0.8;"/>
     </g>
     <g id="line2d_88">
      <g>
       <use style="stroke:#000000;stroke-width:0.8;" x="624.5966" xlink:href="#mad8246019b" y="319.04"/>
      </g>
     </g>
     <g id="text_46">
      <!-- 15 -->
      <g transform="translate(618.2341 333.638438)scale(0.1 -0.1)">
       <use xlink:href="#DejaVuSans-31"/>
       <use x="63.623047" xlink:href="#DejaVuSans-35"/>
      </g>
     </g>
    </g>
    <g id="xtick_33">
     <g id="line2d_89">
      <path clip-path="url(#pd42d6ed763)" d="M 642.176527 319.04 
L 642.176527 26.88 
" style="fill:none;stroke:#000000;stroke-dasharray:0.8,1.32;stroke-dashoffset:0;stroke-opacity:0.5;stroke-width:0.8;"/>
     </g>
     <g id="line2d_90">
      <g>
       <use style="stroke:#000000;stroke-width:0.8;" x="642.176527" xlink:href="#mad8246019b" y="319.04"/>
      </g>
     </g>
     <g id="text_47">
      <!-- Dec -->
      <g transform="translate(632.500746 333.638438)scale(0.1 -0.1)">
       <use xlink:href="#DejaVuSans-44"/>
       <use x="77.001953" xlink:href="#DejaVuSans-65"/>
       <use x="138.525391" xlink:href="#DejaVuSans-63"/>
      </g>
     </g>
    </g>
    <g id="xtick_34">
     <g id="line2d_91">
      <path clip-path="url(#pd42d6ed763)" d="M 657.558964 319.04 
L 657.558964 26.88 
" style="fill:none;stroke:#000000;stroke-dasharray:0.8,1.32;stroke-dashoffset:0;stroke-opacity:0.5;stroke-width:0.8;"/>
     </g>
     <g id="line2d_92">
      <g>
       <use style="stroke:#000000;stroke-width:0.8;" x="657.558964" xlink:href="#mad8246019b" y="319.04"/>
      </g>
     </g>
     <g id="text_48">
      <!-- 15 -->
      <g transform="translate(651.196464 333.638438)scale(0.1 -0.1)">
       <use xlink:href="#DejaVuSans-31"/>
       <use x="63.623047" xlink:href="#DejaVuSans-35"/>
      </g>
     </g>
    </g>
    <g id="xtick_35">
     <g id="line2d_93">
      <path clip-path="url(#pd42d6ed763)" d="M 676.237636 319.04 
L 676.237636 26.88 
" style="fill:none;stroke:#000000;stroke-dasharray:0.8,1.32;stroke-dashoffset:0;stroke-opacity:0.5;stroke-width:0.8;"/>
     </g>
     <g id="line2d_94">
      <g>
       <use style="stroke:#000000;stroke-width:0.8;" x="676.237636" xlink:href="#mad8246019b" y="319.04"/>
      </g>
     </g>
     <g id="text_49">
      <!-- Jan -->
      <g transform="translate(668.529824 333.638438)scale(0.1 -0.1)">
       <use xlink:href="#DejaVuSans-4a"/>
       <use x="29.492188" xlink:href="#DejaVuSans-61"/>
       <use x="90.771484" xlink:href="#DejaVuSans-6e"/>
      </g>
     </g>
    </g>
    <g id="xtick_36">
     <g id="line2d_95">
      <path clip-path="url(#pd42d6ed763)" d="M 691.620073 319.04 
L 691.620073 26.88 
" style="fill:none;stroke:#000000;stroke-dasharray:0.8,1.32;stroke-dashoffset:0;stroke-opacity:0.5;stroke-width:0.8;"/>
     </g>
     <g id="line2d_96">
      <g>
       <use style="stroke:#000000;stroke-width:0.8;" x="691.620073" xlink:href="#mad8246019b" y="319.04"/>
      </g>
     </g>
     <g id="text_50">
      <!-- 15 -->
      <g transform="translate(685.257573 333.638438)scale(0.1 -0.1)">
       <use xlink:href="#DejaVuSans-31"/>
       <use x="63.623047" xlink:href="#DejaVuSans-35"/>
      </g>
     </g>
    </g>
    <g id="text_51">
     <!-- 2022-Jan -->
     <g transform="translate(664.164062 346.316563)scale(0.1 -0.1)">
      <use xlink:href="#DejaVuSans-32"/>
      <use x="63.623047" xlink:href="#DejaVuSans-30"/>
      <use x="127.246094" xlink:href="#DejaVuSans-32"/>
      <use x="190.869141" xlink:href="#DejaVuSans-32"/>
      <use x="254.492188" xlink:href="#DejaVuSans-2d"/>
      <use x="296.201172" xlink:href="#DejaVuSans-4a"/>
      <use x="325.693359" xlink:href="#DejaVuSans-61"/>
      <use x="386.972656" xlink:href="#DejaVuSans-6e"/>
     </g>
    </g>
   </g>
   <g id="matplotlib.axis_4">
    <g id="ytick_10">
     <g id="line2d_97">
      <path clip-path="url(#pd42d6ed763)" d="M 407.045 319.04 
L 709.2 319.04 
" style="fill:none;stroke:#000000;stroke-dasharray:0.8,1.32;stroke-dashoffset:0;stroke-opacity:0.5;stroke-width:0.8;"/>
     </g>
     <g id="line2d_98">
      <g>
       <use style="stroke:#000000;stroke-width:0.8;" x="407.045" xlink:href="#me687030bad" y="319.04"/>
      </g>
     </g>
     <g id="text_52">
      <!-- 0 -->
      <g transform="translate(393.6825 322.839219)scale(0.1 -0.1)">
       <use xlink:href="#DejaVuSans-30"/>
      </g>
     </g>
    </g>
    <g id="ytick_11">
     <g id="line2d_99">
      <path clip-path="url(#pd42d6ed763)" d="M 407.045 282.52 
L 709.2 282.52 
" style="fill:none;stroke:#000000;stroke-dasharray:0.8,1.32;stroke-dashoffset:0;stroke-opacity:0.5;stroke-width:0.8;"/>
     </g>
     <g id="line2d_100">
      <g>
       <use style="stroke:#000000;stroke-width:0.8;" x="407.045" xlink:href="#me687030bad" y="282.52"/>
      </g>
     </g>
     <g id="text_53">
      <!-- 25 -->
      <g transform="translate(387.32 286.319219)scale(0.1 -0.1)">
       <use xlink:href="#DejaVuSans-32"/>
       <use x="63.623047" xlink:href="#DejaVuSans-35"/>
      </g>
     </g>
    </g>
    <g id="ytick_12">
     <g id="line2d_101">
      <path clip-path="url(#pd42d6ed763)" d="M 407.045 246 
L 709.2 246 
" style="fill:none;stroke:#000000;stroke-dasharray:0.8,1.32;stroke-dashoffset:0;stroke-opacity:0.5;stroke-width:0.8;"/>
     </g>
     <g id="line2d_102">
      <g>
       <use style="stroke:#000000;stroke-width:0.8;" x="407.045" xlink:href="#me687030bad" y="246"/>
      </g>
     </g>
     <g id="text_54">
      <!-- 50 -->
      <g transform="translate(387.32 249.799219)scale(0.1 -0.1)">
       <use xlink:href="#DejaVuSans-35"/>
       <use x="63.623047" xlink:href="#DejaVuSans-30"/>
      </g>
     </g>
    </g>
    <g id="ytick_13">
     <g id="line2d_103">
      <path clip-path="url(#pd42d6ed763)" d="M 407.045 209.48 
L 709.2 209.48 
" style="fill:none;stroke:#000000;stroke-dasharray:0.8,1.32;stroke-dashoffset:0;stroke-opacity:0.5;stroke-width:0.8;"/>
     </g>
     <g id="line2d_104">
      <g>
       <use style="stroke:#000000;stroke-width:0.8;" x="407.045" xlink:href="#me687030bad" y="209.48"/>
      </g>
     </g>
     <g id="text_55">
      <!-- 75 -->
      <g transform="translate(387.32 213.279219)scale(0.1 -0.1)">
       <use xlink:href="#DejaVuSans-37"/>
       <use x="63.623047" xlink:href="#DejaVuSans-35"/>
      </g>
     </g>
    </g>
    <g id="ytick_14">
     <g id="line2d_105">
      <path clip-path="url(#pd42d6ed763)" d="M 407.045 172.96 
L 709.2 172.96 
" style="fill:none;stroke:#000000;stroke-dasharray:0.8,1.32;stroke-dashoffset:0;stroke-opacity:0.5;stroke-width:0.8;"/>
     </g>
     <g id="line2d_106">
      <g>
       <use style="stroke:#000000;stroke-width:0.8;" x="407.045" xlink:href="#me687030bad" y="172.96"/>
      </g>
     </g>
     <g id="text_56">
      <!-- 100 -->
      <g transform="translate(380.9575 176.759219)scale(0.1 -0.1)">
       <use xlink:href="#DejaVuSans-31"/>
       <use x="63.623047" xlink:href="#DejaVuSans-30"/>
       <use x="127.246094" xlink:href="#DejaVuSans-30"/>
      </g>
     </g>
    </g>
    <g id="ytick_15">
     <g id="line2d_107">
      <path clip-path="url(#pd42d6ed763)" d="M 407.045 136.44 
L 709.2 136.44 
" style="fill:none;stroke:#000000;stroke-dasharray:0.8,1.32;stroke-dashoffset:0;stroke-opacity:0.5;stroke-width:0.8;"/>
     </g>
     <g id="line2d_108">
      <g>
       <use style="stroke:#000000;stroke-width:0.8;" x="407.045" xlink:href="#me687030bad" y="136.44"/>
      </g>
     </g>
     <g id="text_57">
      <!-- 125 -->
      <g transform="translate(380.9575 140.239219)scale(0.1 -0.1)">
       <use xlink:href="#DejaVuSans-31"/>
       <use x="63.623047" xlink:href="#DejaVuSans-32"/>
       <use x="127.246094" xlink:href="#DejaVuSans-35"/>
      </g>
     </g>
    </g>
    <g id="ytick_16">
     <g id="line2d_109">
      <path clip-path="url(#pd42d6ed763)" d="M 407.045 99.92 
L 709.2 99.92 
" style="fill:none;stroke:#000000;stroke-dasharray:0.8,1.32;stroke-dashoffset:0;stroke-opacity:0.5;stroke-width:0.8;"/>
     </g>
     <g id="line2d_110">
      <g>
       <use style="stroke:#000000;stroke-width:0.8;" x="407.045" xlink:href="#me687030bad" y="99.92"/>
      </g>
     </g>
     <g id="text_58">
      <!-- 150 -->
      <g transform="translate(380.9575 103.719219)scale(0.1 -0.1)">
       <use xlink:href="#DejaVuSans-31"/>
       <use x="63.623047" xlink:href="#DejaVuSans-35"/>
       <use x="127.246094" xlink:href="#DejaVuSans-30"/>
      </g>
     </g>
    </g>
    <g id="ytick_17">
     <g id="line2d_111">
      <path clip-path="url(#pd42d6ed763)" d="M 407.045 63.4 
L 709.2 63.4 
" style="fill:none;stroke:#000000;stroke-dasharray:0.8,1.32;stroke-dashoffset:0;stroke-opacity:0.5;stroke-width:0.8;"/>
     </g>
     <g id="line2d_112">
      <g>
       <use style="stroke:#000000;stroke-width:0.8;" x="407.045" xlink:href="#me687030bad" y="63.4"/>
      </g>
     </g>
     <g id="text_59">
      <!-- 175 -->
      <g transform="translate(380.9575 67.199219)scale(0.1 -0.1)">
       <use xlink:href="#DejaVuSans-31"/>
       <use x="63.623047" xlink:href="#DejaVuSans-37"/>
       <use x="127.246094" xlink:href="#DejaVuSans-35"/>
      </g>
     </g>
    </g>
    <g id="ytick_18">
     <g id="line2d_113">
      <path clip-path="url(#pd42d6ed763)" d="M 407.045 26.88 
L 709.2 26.88 
" style="fill:none;stroke:#000000;stroke-dasharray:0.8,1.32;stroke-dashoffset:0;stroke-opacity:0.5;stroke-width:0.8;"/>
     </g>
     <g id="line2d_114">
      <g>
       <use style="stroke:#000000;stroke-width:0.8;" x="407.045" xlink:href="#me687030bad" y="26.88"/>
      </g>
     </g>
     <g id="text_60">
      <!-- 200 -->
      <g transform="translate(380.9575 30.679219)scale(0.1 -0.1)">
       <use xlink:href="#DejaVuSans-32"/>
       <use x="63.623047" xlink:href="#DejaVuSans-30"/>
       <use x="127.246094" xlink:href="#DejaVuSans-30"/>
      </g>
     </g>
    </g>
    <g id="text_61">
     <!-- cumulative doses per hundred population -->
     <g transform="translate(374.877813 277.418594)rotate(-90)scale(0.1 -0.1)">
      <use xlink:href="#DejaVuSans-63"/>
      <use x="54.980469" xlink:href="#DejaVuSans-75"/>
      <use x="118.359375" xlink:href="#DejaVuSans-6d"/>
      <use x="215.771484" xlink:href="#DejaVuSans-75"/>
      <use x="279.150391" xlink:href="#DejaVuSans-6c"/>
      <use x="306.933594" xlink:href="#DejaVuSans-61"/>
      <use x="368.212891" xlink:href="#DejaVuSans-74"/>
      <use x="407.421875" xlink:href="#DejaVuSans-69"/>
      <use x="435.205078" xlink:href="#DejaVuSans-76"/>
      <use x="494.384766" xlink:href="#DejaVuSans-65"/>
      <use x="555.908203" xlink:href="#DejaVuSans-20"/>
      <use x="587.695312" xlink:href="#DejaVuSans-64"/>
      <use x="651.171875" xlink:href="#DejaVuSans-6f"/>
      <use x="712.353516" xlink:href="#DejaVuSans-73"/>
      <use x="764.453125" xlink:href="#DejaVuSans-65"/>
      <use x="825.976562" xlink:href="#DejaVuSans-73"/>
      <use x="878.076172" xlink:href="#DejaVuSans-20"/>
      <use x="909.863281" xlink:href="#DejaVuSans-70"/>
      <use x="973.339844" xlink:href="#DejaVuSans-65"/>
      <use x="1034.863281" xlink:href="#DejaVuSans-72"/>
      <use x="1075.976562" xlink:href="#DejaVuSans-20"/>
      <use x="1107.763672" xlink:href="#DejaVuSans-68"/>
      <use x="1171.142578" xlink:href="#DejaVuSans-75"/>
      <use x="1234.521484" xlink:href="#DejaVuSans-6e"/>
      <use x="1297.900391" xlink:href="#DejaVuSans-64"/>
      <use x="1361.376953" xlink:href="#DejaVuSans-72"/>
      <use x="1400.240234" xlink:href="#DejaVuSans-65"/>
      <use x="1461.763672" xlink:href="#DejaVuSans-64"/>
      <use x="1525.240234" xlink:href="#DejaVuSans-20"/>
      <use x="1557.027344" xlink:href="#DejaVuSans-70"/>
      <use x="1620.503906" xlink:href="#DejaVuSans-6f"/>
      <use x="1681.685547" xlink:href="#DejaVuSans-70"/>
      <use x="1745.162109" xlink:href="#DejaVuSans-75"/>
      <use x="1808.541016" xlink:href="#DejaVuSans-6c"/>
      <use x="1836.324219" xlink:href="#DejaVuSans-61"/>
      <use x="1897.603516" xlink:href="#DejaVuSans-74"/>
      <use x="1936.8125" xlink:href="#DejaVuSans-69"/>
      <use x="1964.595703" xlink:href="#DejaVuSans-6f"/>
      <use x="2025.777344" xlink:href="#DejaVuSans-6e"/>
     </g>
    </g>
   </g>
   <g id="line2d_115">
    <path clip-path="url(#pd42d6ed763)" d="M 323.540345 319.03997 
L 323.540345 319.039941 
L 335.626545 318.954259 
L 335.626545 318.906606 
L 340.021527 318.798672 
L 340.021527 318.754465 
L 343.317764 318.647126 
L 343.317764 318.609098 
L 348.811491 318.501818 
L 348.811491 318.462691 
L 354.305218 318.351906 
L 354.305218 318.296023 
L 356.502709 318.231821 
L 356.502709 318.172225 
L 358.7002 318.110757 
L 358.7002 318.037523 
L 361.996436 317.952555 
L 361.996436 317.885561 
L 364.193927 317.805524 
L 364.193927 317.699938 
L 366.391418 317.600234 
L 366.391418 317.461492 
L 369.687655 317.366215 
L 369.687655 317.2196 
L 370.7864 317.2196 
L 370.7864 317.051179 
L 371.885145 317.051179 
L 371.885145 316.849275 
L 372.983891 316.849275 
L 372.983891 316.657473 
L 375.181382 316.59746 
L 375.181382 316.545529 
L 378.477618 316.48106 
L 378.477618 316.333643 
L 379.576364 316.333643 
L 379.576364 316.117628 
L 380.675109 316.117628 
L 380.675109 315.873121 
L 381.773855 315.873121 
L 381.773855 315.65467 
L 382.8726 315.65467 
L 382.8726 315.537051 
L 385.070091 315.431346 
L 385.070091 315.200505 
L 386.168836 315.200505 
L 386.168836 314.949819 
L 387.267582 314.949819 
L 387.267582 314.70769 
L 388.366327 314.70769 
L 388.366327 314.448269 
L 389.465073 314.448269 
L 389.465073 314.166151 
L 390.563818 314.166151 
L 390.563818 314.01612 
L 392.761309 313.954562 
L 392.761309 313.742647 
L 393.860055 313.742647 
L 393.860055 313.472769 
L 394.9588 313.472769 
L 394.9588 313.17027 
L 396.057545 313.17027 
L 396.057545 312.860938 
L 397.156291 312.860938 
L 397.156291 312.513608 
L 398.255036 312.513608 
L 398.255036 312.375282 
L 400.452527 312.304574 
L 400.452527 312.237729 
L 401.551273 312.237729 
L 401.551273 311.94028 
L 402.650018 311.94028 
L 402.650018 311.61446 
L 403.748764 311.61446 
L 403.748764 311.243541 
L 404.847509 311.243541 
L 404.847509 310.845319 
L 405.946255 310.845319 
L 405.946255 310.682513 
L 408.143745 310.577253 
L 408.143745 310.258355 
L 409.242491 310.258355 
L 409.242491 309.853151 
L 410.341236 309.853151 
L 410.341236 309.414555 
L 411.439982 309.414555 
L 411.439982 308.967967 
L 412.538727 308.967967 
L 412.538727 308.466238 
L 413.637473 308.466238 
L 413.637473 308.251025 
L 415.834964 308.151677 
L 415.834964 307.795346 
L 416.933709 307.795346 
L 416.933709 307.345994 
L 418.032455 307.345994 
L 418.032455 306.89183 
L 419.1312 306.89183 
L 419.1312 306.422871 
L 420.229945 306.422871 
L 420.229945 305.945563 
L 421.328691 305.945563 
L 421.328691 305.760297 
L 422.427436 305.760297 
L 422.427436 305.634954 
L 423.526182 305.634954 
L 423.526182 305.306549 
L 424.624927 305.306549 
L 424.624927 304.867239 
L 425.723673 304.867239 
L 425.723673 304.408144 
L 426.822418 304.408144 
L 426.822418 303.948335 
L 427.921164 303.948335 
L 427.921164 303.485941 
L 429.019909 303.485941 
L 429.019909 303.249189 
L 430.118655 303.249189 
L 430.118655 303.136116 
L 431.2174 303.136116 
L 431.2174 302.750164 
L 432.316145 302.750164 
L 432.316145 302.235898 
L 433.414891 302.235898 
L 433.414891 301.679742 
L 434.513636 301.679742 
L 434.513636 301.178043 
L 435.612382 301.178043 
L 435.612382 300.563064 
L 436.711127 300.563064 
L 436.711127 300.25902 
L 437.809873 300.25902 
L 437.809873 300.104443 
L 438.908618 300.104443 
L 438.908618 299.674551 
L 440.007364 299.674551 
L 440.007364 299.082388 
L 441.106109 299.082388 
L 441.106109 298.459506 
L 442.204855 298.459506 
L 442.204855 297.771322 
L 443.3036 297.771322 
L 443.3036 297.163681 
L 444.402345 297.163681 
L 444.402345 296.879839 
L 445.501091 296.879839 
L 445.501091 296.724847 
L 446.599836 296.724847 
L 446.599836 296.567121 
L 447.698582 296.567121 
L 447.698582 295.917856 
L 448.797327 295.917856 
L 448.797327 295.578399 
L 449.896073 295.578399 
L 449.896073 294.882967 
L 450.994818 294.882967 
L 450.994818 294.242259 
L 452.093564 294.242259 
L 452.093564 293.887413 
L 453.192309 293.887413 
L 453.192309 293.670417 
L 454.291055 293.670417 
L 454.291055 293.138058 
L 455.3898 293.138058 
L 455.3898 292.477534 
L 456.488545 292.477534 
L 456.488545 291.751888 
L 457.587291 291.751888 
L 457.587291 291.059931 
L 458.686036 291.059931 
L 458.686036 290.441446 
L 459.784782 290.441446 
L 459.784782 290.076528 
L 460.883527 290.076528 
L 460.883527 289.859265 
L 461.982273 289.859265 
L 461.982273 289.338968 
L 463.081018 289.338968 
L 463.081018 288.663679 
L 464.179764 288.663679 
L 464.179764 287.92086 
L 465.278509 287.92086 
L 465.278509 287.194976 
L 466.377255 287.194976 
L 466.377255 286.549069 
L 467.476 286.549069 
L 467.476 286.114156 
L 468.574745 286.114156 
L 468.574745 285.905123 
L 469.673491 285.905123 
L 469.673491 285.418457 
L 470.772236 285.418457 
L 470.772236 284.795307 
L 471.870982 284.795307 
L 471.870982 284.115056 
L 472.969727 284.115056 
L 472.969727 283.433052 
L 474.068473 283.433052 
L 474.068473 282.836462 
L 475.167218 282.836462 
L 475.167218 282.458799 
L 476.265964 282.458799 
L 476.265964 282.268393 
L 477.364709 282.268393 
L 477.364709 281.800503 
L 478.463455 281.800503 
L 478.463455 281.178958 
L 479.5622 281.178958 
L 479.5622 280.491071 
L 480.660945 280.491071 
L 480.660945 279.75984 
L 481.759691 279.75984 
L 481.759691 279.118211 
L 482.858436 279.118211 
L 482.858436 278.648538 
L 483.957182 278.648538 
L 483.957182 278.421739 
L 485.055927 278.421739 
L 485.055927 277.894698 
L 486.154673 277.894698 
L 486.154673 277.224607 
L 487.253418 277.224607 
L 487.253418 276.485681 
L 488.352164 276.485681 
L 488.352164 275.779494 
L 489.450909 275.779494 
L 489.450909 275.130319 
L 490.549655 275.130319 
L 490.549655 274.639137 
L 491.6484 274.639137 
L 491.6484 274.380132 
L 492.747145 274.380132 
L 492.747145 273.716311 
L 493.845891 273.716311 
L 493.845891 272.804744 
L 494.944636 272.804744 
L 494.944636 271.79487 
L 496.043382 271.79487 
L 496.043382 270.833541 
L 497.142127 270.833541 
L 497.142127 269.910387 
L 498.240873 269.910387 
L 498.240873 269.172323 
L 499.339618 269.172323 
L 499.339618 268.756929 
L 500.438364 268.756929 
L 500.438364 267.850027 
L 501.537109 267.850027 
L 501.537109 266.691933 
L 502.635855 266.691933 
L 502.635855 265.456685 
L 503.7346 265.456685 
L 503.7346 264.26208 
L 504.833345 264.26208 
L 504.833345 263.009957 
L 505.932091 263.009957 
L 505.932091 261.86351 
L 507.030836 261.86351 
L 507.030836 261.190478 
L 508.129582 261.190478 
L 508.129582 260.146557 
L 509.228327 260.146557 
L 509.228327 258.874054 
L 510.327073 258.874054 
L 510.327073 257.522524 
L 511.425818 257.522524 
L 511.425818 256.266212 
L 512.524564 256.266212 
L 512.524564 255.015486 
L 513.623309 255.015486 
L 513.623309 253.921951 
L 514.722055 253.921951 
L 514.722055 253.312913 
L 515.8208 253.312913 
L 515.8208 252.167357 
L 516.919545 252.167357 
L 516.919545 250.769065 
L 518.018291 250.769065 
L 518.018291 249.314236 
L 519.117036 249.314236 
L 519.117036 247.856823 
L 520.215782 247.856823 
L 520.215782 246.45865 
L 521.314527 246.45865 
L 521.314527 245.158814 
L 522.413273 245.158814 
L 522.413273 244.395734 
L 523.512018 244.395734 
L 523.512018 243.016605 
L 524.610764 243.016605 
L 524.610764 241.344543 
L 526.808255 241.329243 
L 526.808255 240.42751 
L 527.907 240.42751 
L 527.907 238.674134 
L 529.005745 238.674134 
L 529.005745 237.061253 
L 530.104491 237.061253 
L 530.104491 235.944396 
L 531.203236 235.944396 
L 531.203236 233.973073 
L 532.301982 233.973073 
L 532.301982 231.505014 
L 533.400727 231.505014 
L 533.400727 228.832644 
L 534.499473 228.832644 
L 534.499473 226.056827 
L 535.598218 226.056827 
L 535.598218 223.319394 
L 536.696964 223.319394 
L 536.696964 220.964437 
L 537.795709 220.964437 
L 537.795709 219.520839 
L 538.894455 219.520839 
L 538.894455 217.182816 
L 539.9932 217.182816 
L 539.9932 214.603079 
L 541.091945 214.603079 
L 541.091945 211.89081 
L 542.190691 211.89081 
L 542.190691 209.200021 
L 543.289436 209.200021 
L 543.289436 206.589595 
L 544.388182 206.589595 
L 544.388182 204.251394 
L 545.486927 204.251394 
L 545.486927 203.09128 
L 546.585673 203.09128 
L 546.585673 201.096309 
L 547.684418 201.096309 
L 547.684418 198.913012 
L 548.783164 198.913012 
L 548.783164 196.909425 
L 549.881909 196.909425 
L 549.881909 195.062406 
L 550.980655 195.062406 
L 550.980655 193.119961 
L 552.0794 193.119961 
L 552.0794 191.26703 
L 553.178145 191.26703 
L 553.178145 190.252907 
L 554.276891 190.252907 
L 554.276891 188.603068 
L 555.375636 188.603068 
L 555.375636 186.741521 
L 556.474382 186.741521 
L 556.474382 184.861524 
L 557.573127 184.861524 
L 557.573127 183.035064 
L 558.671873 183.035064 
L 558.671873 181.220101 
L 559.770618 181.220101 
L 559.770618 179.616726 
L 560.869364 179.616726 
L 560.869364 178.817371 
L 561.968109 178.817371 
L 561.968109 177.30871 
L 563.066855 177.30871 
L 563.066855 175.692234 
L 564.1656 175.692234 
L 564.1656 174.202675 
L 565.264345 174.202675 
L 565.264345 172.722327 
L 566.363091 172.722327 
L 566.363091 171.207486 
L 567.461836 171.207486 
L 567.461836 169.666293 
L 568.560582 169.666293 
L 568.560582 168.926475 
L 569.659327 168.926475 
L 569.659327 167.706735 
L 570.758073 167.706735 
L 570.758073 166.372674 
L 571.856818 166.372674 
L 571.856818 165.147765 
L 572.955564 165.147765 
L 572.955564 163.762634 
L 574.054309 163.762634 
L 574.054309 162.338793 
L 575.153055 162.338793 
L 575.153055 160.841124 
L 576.2518 160.841124 
L 576.2518 160.033391 
L 577.350545 160.033391 
L 577.350545 158.362695 
L 578.449291 158.362695 
L 578.449291 156.455693 
L 579.548036 156.455693 
L 579.548036 154.352314 
L 580.646782 154.352314 
L 580.646782 151.887849 
L 581.745527 151.887849 
L 581.745527 149.322848 
L 582.844273 149.322848 
L 582.844273 146.879447 
L 583.943018 146.879447 
L 583.943018 145.620788 
L 585.041764 145.620788 
L 585.041764 143.549672 
L 586.140509 143.549672 
L 586.140509 141.366969 
L 587.239255 141.366969 
L 587.239255 139.305776 
L 588.338 139.305776 
L 588.338 137.275184 
L 589.436745 137.275184 
L 589.436745 135.198127 
L 590.535491 135.198127 
L 590.535491 131.296332 
L 591.634236 131.296332 
L 591.634236 130.411682 
L 592.732982 130.411682 
L 592.732982 129.135584 
L 593.831727 129.135584 
L 593.831727 127.856634 
L 594.930473 127.856634 
L 594.930473 126.568147 
L 596.029218 126.568147 
L 596.029218 125.33076 
L 597.127964 125.33076 
L 597.127964 123.991055 
L 598.226709 123.991055 
L 598.226709 122.721285 
L 599.325455 122.721285 
L 599.325455 122.153661 
L 600.4242 122.153661 
L 600.4242 121.834614 
L 601.522945 121.834614 
L 601.522945 120.575332 
L 602.621691 120.575332 
L 602.621691 119.401968 
L 603.720436 119.401968 
L 603.720436 118.052548 
L 604.819182 118.052548 
L 604.819182 116.766824 
L 605.917927 116.766824 
L 605.917927 115.491379 
L 607.016673 115.491379 
L 607.016673 114.889353 
L 608.115418 114.889353 
L 608.115418 114.067181 
L 609.214164 114.067181 
L 609.214164 113.201367 
L 610.312909 113.201367 
L 610.312909 112.387216 
L 611.411655 112.387216 
L 611.411655 111.603815 
L 612.5104 111.603815 
L 612.5104 110.76569 
L 613.609145 110.76569 
L 613.609145 109.753914 
L 614.707891 109.753914 
L 614.707891 109.328717 
L 615.806636 109.328717 
L 615.806636 108.689464 
L 616.905382 108.689464 
L 616.905382 108.022791 
L 618.004127 108.022791 
L 618.004127 107.362118 
L 619.102873 107.362118 
L 619.102873 106.676252 
L 620.201618 106.676252 
L 620.201618 105.984207 
L 621.300364 105.984207 
L 621.300364 105.173621 
L 622.399109 105.173621 
L 622.399109 104.73755 
L 623.497855 104.73755 
L 623.497855 104.095981 
L 624.5966 104.095981 
L 624.5966 103.465819 
L 625.695345 103.465819 
L 625.695345 102.854731 
L 626.794091 102.854731 
L 626.794091 102.233424 
L 627.892836 102.233424 
L 627.892836 101.558193 
L 628.991582 101.558193 
L 628.991582 100.915257 
L 630.090327 100.915257 
L 630.090327 100.621493 
L 631.189073 100.621493 
L 631.189073 100.164299 
L 632.287818 100.164299 
L 632.287818 99.596942 
L 633.386564 99.596942 
L 633.386564 99.038915 
L 634.485309 99.038915 
L 634.485309 98.49491 
L 635.584055 98.49491 
L 635.584055 97.959284 
L 636.6828 97.959284 
L 636.6828 97.336817 
L 637.781545 97.336817 
L 637.781545 96.986784 
L 638.880291 96.986784 
L 638.880291 96.445572 
L 639.979036 96.445572 
L 639.979036 95.791762 
L 641.077782 95.791762 
L 641.077782 95.128861 
L 642.176527 95.128861 
L 642.176527 94.372258 
L 643.275273 94.372258 
L 643.275273 93.632648 
L 644.374018 93.632648 
L 644.374018 93.046902 
L 645.472764 93.046902 
L 645.472764 92.76514 
L 646.571509 92.76514 
L 646.571509 92.310322 
L 647.670255 92.310322 
L 647.670255 91.880134 
L 648.769 91.880134 
L 648.769 91.479119 
L 649.867745 91.479119 
L 649.867745 91.479119 
" style="fill:none;stroke:#1f77b4;stroke-linecap:square;stroke-width:1.5;"/>
   </g>
   <g id="line2d_116">
    <path clip-path="url(#pd42d6ed763)" d="M 649.867745 91.113919 
L 649.867745 90.748719 
L 650.966491 90.748719 
L 650.966491 90.383519 
L 652.065236 90.383519 
L 652.065236 90.018319 
L 653.163982 90.018319 
L 653.163982 89.653119 
L 654.262727 89.653119 
L 654.262727 89.287919 
L 655.361473 89.287919 
L 655.361473 88.922719 
L 656.460218 88.922719 
L 656.460218 88.557519 
L 657.558964 88.557519 
L 657.558964 88.192319 
L 658.657709 88.192319 
L 658.657709 87.827119 
L 659.756455 87.827119 
L 659.756455 87.461919 
L 660.8552 87.461919 
L 660.8552 87.096719 
L 661.953945 87.096719 
L 661.953945 86.731519 
L 663.052691 86.731519 
L 663.052691 86.366319 
L 664.151436 86.366319 
L 664.151436 86.001119 
L 665.250182 86.001119 
L 665.250182 85.635919 
L 721 85.635919 
L 721 85.635919 
" style="fill:none;stroke:#ff7f0e;stroke-linecap:square;stroke-width:1.5;"/>
   </g>
   <g id="patch_9">
    <path d="M 407.045 319.04 
L 407.045 26.88 
" style="fill:none;stroke:#000000;stroke-linecap:square;stroke-linejoin:miter;stroke-width:0.8;"/>
   </g>
   <g id="patch_10">
    <path d="M 709.2 319.04 
L 709.2 26.88 
" style="fill:none;stroke:#000000;stroke-linecap:square;stroke-linejoin:miter;stroke-width:0.8;"/>
   </g>
   <g id="patch_11">
    <path d="M 407.045 319.04 
L 709.2 319.04 
" style="fill:none;stroke:#000000;stroke-linecap:square;stroke-linejoin:miter;stroke-width:0.8;"/>
   </g>
   <g id="patch_12">
    <path d="M 407.045 26.88 
L 709.2 26.88 
" style="fill:none;stroke:#000000;stroke-linecap:square;stroke-linejoin:miter;stroke-width:0.8;"/>
   </g>
   <g id="text_62">
    <!-- NZ cumulative vaccinations per capita -->
    <g transform="translate(442.5025 20.88)scale(0.12 -0.12)">
     <use xlink:href="#DejaVuSans-4e"/>
     <use x="74.804688" xlink:href="#DejaVuSans-5a"/>
     <use x="143.310547" xlink:href="#DejaVuSans-20"/>
     <use x="175.097656" xlink:href="#DejaVuSans-63"/>
     <use x="230.078125" xlink:href="#DejaVuSans-75"/>
     <use x="293.457031" xlink:href="#DejaVuSans-6d"/>
     <use x="390.869141" xlink:href="#DejaVuSans-75"/>
     <use x="454.248047" xlink:href="#DejaVuSans-6c"/>
     <use x="482.03125" xlink:href="#DejaVuSans-61"/>
     <use x="543.310547" xlink:href="#DejaVuSans-74"/>
     <use x="582.519531" xlink:href="#DejaVuSans-69"/>
     <use x="610.302734" xlink:href="#DejaVuSans-76"/>
     <use x="669.482422" xlink:href="#DejaVuSans-65"/>
     <use x="731.005859" xlink:href="#DejaVuSans-20"/>
     <use x="762.792969" xlink:href="#DejaVuSans-76"/>
     <use x="821.972656" xlink:href="#DejaVuSans-61"/>
     <use x="883.251953" xlink:href="#DejaVuSans-63"/>
     <use x="938.232422" xlink:href="#DejaVuSans-63"/>
     <use x="993.212891" xlink:href="#DejaVuSans-69"/>
     <use x="1020.996094" xlink:href="#DejaVuSans-6e"/>
     <use x="1084.375" xlink:href="#DejaVuSans-61"/>
     <use x="1145.654297" xlink:href="#DejaVuSans-74"/>
     <use x="1184.863281" xlink:href="#DejaVuSans-69"/>
     <use x="1212.646484" xlink:href="#DejaVuSans-6f"/>
     <use x="1273.828125" xlink:href="#DejaVuSans-6e"/>
     <use x="1337.207031" xlink:href="#DejaVuSans-73"/>
     <use x="1389.306641" xlink:href="#DejaVuSans-20"/>
     <use x="1421.09375" xlink:href="#DejaVuSans-70"/>
     <use x="1484.570312" xlink:href="#DejaVuSans-65"/>
     <use x="1546.09375" xlink:href="#DejaVuSans-72"/>
     <use x="1587.207031" xlink:href="#DejaVuSans-20"/>
     <use x="1618.994141" xlink:href="#DejaVuSans-63"/>
     <use x="1673.974609" xlink:href="#DejaVuSans-61"/>
     <use x="1735.253906" xlink:href="#DejaVuSans-70"/>
     <use x="1798.730469" xlink:href="#DejaVuSans-69"/>
     <use x="1826.513672" xlink:href="#DejaVuSans-74"/>
     <use x="1865.722656" xlink:href="#DejaVuSans-61"/>
    </g>
   </g>
   <g id="legend_2">
    <g id="patch_13">
     <path d="M 554.317187 64.23625 
L 702.2 64.23625 
Q 704.2 64.23625 704.2 62.23625 
L 704.2 33.88 
Q 704.2 31.88 702.2 31.88 
L 554.317187 31.88 
Q 552.317187 31.88 552.317187 33.88 
L 552.317187 62.23625 
Q 552.317187 64.23625 554.317187 64.23625 
z
" style="fill:#ffffff;opacity:0.8;stroke:#cccccc;stroke-linejoin:miter;"/>
    </g>
    <g id="line2d_117">
     <path d="M 556.317187 39.978437 
L 576.317187 39.978437 
" style="fill:none;stroke:#1f77b4;stroke-linecap:square;stroke-width:1.5;"/>
    </g>
    <g id="line2d_118"/>
    <g id="text_63">
     <!-- Actual -->
     <g transform="translate(584.317187 43.478437)scale(0.1 -0.1)">
      <use xlink:href="#DejaVuSans-41"/>
      <use x="66.658203" xlink:href="#DejaVuSans-63"/>
      <use x="121.638672" xlink:href="#DejaVuSans-74"/>
      <use x="160.847656" xlink:href="#DejaVuSans-75"/>
      <use x="224.226562" xlink:href="#DejaVuSans-61"/>
      <use x="285.505859" xlink:href="#DejaVuSans-6c"/>
     </g>
    </g>
    <g id="line2d_119">
     <path d="M 556.317187 54.656563 
L 576.317187 54.656563 
" style="fill:none;stroke:#ff7f0e;stroke-linecap:square;stroke-width:1.5;"/>
    </g>
    <g id="line2d_120"/>
    <g id="text_64">
     <!-- Assumed for projection -->
     <g transform="translate(584.317187 58.156563)scale(0.1 -0.1)">
      <use xlink:href="#DejaVuSans-41"/>
      <use x="68.408203" xlink:href="#DejaVuSans-73"/>
      <use x="120.507812" xlink:href="#DejaVuSans-73"/>
      <use x="172.607422" xlink:href="#DejaVuSans-75"/>
      <use x="235.986328" xlink:href="#DejaVuSans-6d"/>
      <use x="333.398438" xlink:href="#DejaVuSans-65"/>
      <use x="394.921875" xlink:href="#DejaVuSans-64"/>
      <use x="458.398438" xlink:href="#DejaVuSans-20"/>
      <use x="490.185547" xlink:href="#DejaVuSans-66"/>
      <use x="525.390625" xlink:href="#DejaVuSans-6f"/>
      <use x="586.572266" xlink:href="#DejaVuSans-72"/>
      <use x="627.685547" xlink:href="#DejaVuSans-20"/>
      <use x="659.472656" xlink:href="#DejaVuSans-70"/>
      <use x="722.949219" xlink:href="#DejaVuSans-72"/>
      <use x="761.8125" xlink:href="#DejaVuSans-6f"/>
      <use x="822.994141" xlink:href="#DejaVuSans-6a"/>
      <use x="850.777344" xlink:href="#DejaVuSans-65"/>
      <use x="912.300781" xlink:href="#DejaVuSans-63"/>
      <use x="967.28125" xlink:href="#DejaVuSans-74"/>
      <use x="1006.490234" xlink:href="#DejaVuSans-69"/>
      <use x="1034.273438" xlink:href="#DejaVuSans-6f"/>
      <use x="1095.455078" xlink:href="#DejaVuSans-6e"/>
     </g>
    </g>
   </g>
  </g>
 </g>
 <defs>
  <clipPath id="p83374b1fdb">
   <rect height="292.16" width="302.155" x="54.02" y="26.88"/>
  </clipPath>
  <clipPath id="pd42d6ed763">
   <rect height="292.16" width="302.155" x="407.045" y="26.88"/>
  </clipPath>
 </defs>
</svg>
