<?xml version="1.0" encoding="utf-8" standalone="no"?>
<!DOCTYPE svg PUBLIC "-//W3C//DTD SVG 1.1//EN"
  "http://www.w3.org/Graphics/SVG/1.1/DTD/svg11.dtd">
<svg height="360pt" version="1.1" viewBox="0 0 720 360" width="720pt" xmlns="http://www.w3.org/2000/svg" xmlns:xlink="http://www.w3.org/1999/xlink">
 <metadata>
  <rdf:RDF xmlns:cc="http://creativecommons.org/ns#" xmlns:dc="http://purl.org/dc/elements/1.1/" xmlns:rdf="http://www.w3.org/1999/02/22-rdf-syntax-ns#">
   <cc:Work>
    <dc:type rdf:resource="http://purl.org/dc/dcmitype/StillImage"/>
    <dc:date>2021-08-27T16:40:22.033667</dc:date>
    <dc:format>image/svg+xml</dc:format>
    <dc:creator>
     <cc:Agent>
      <dc:title>Matplotlib v3.4.2, https://matplotlib.org/</dc:title>
     </cc:Agent>
    </dc:creator>
   </cc:Work>
  </rdf:RDF>
 </metadata>
 <defs>
  <style type="text/css">*{stroke-linecap:butt;stroke-linejoin:round;}</style>
 </defs>
 <g id="figure_1">
  <g id="patch_1">
   <path d="M 0 360 
L 720 360 
L 720 0 
L 0 0 
z
" style="fill:#ffffff;"/>
  </g>
  <g id="axes_1">
   <g id="patch_2">
    <path d="M 54.11 319.04 
L 356.1975 319.04 
L 356.1975 26.16 
L 54.11 26.16 
z
" style="fill:#ffffff;"/>
   </g>
   <g id="matplotlib.axis_1">
    <g id="xtick_1">
     <g id="line2d_1">
      <path clip-path="url(#p4af4ae777d)" d="M 54.11 319.04 
L 54.11 26.16 
" style="fill:none;stroke:#000000;stroke-dasharray:0.8,1.32;stroke-dashoffset:0;stroke-opacity:0.5;stroke-width:0.8;"/>
     </g>
     <g id="line2d_2">
      <defs>
       <path d="M 0 0 
L 0 3.5 
" id="m4214854cb8" style="stroke:#000000;stroke-width:0.8;"/>
      </defs>
      <g>
       <use style="stroke:#000000;stroke-width:0.8;" x="54.11" xlink:href="#m4214854cb8" y="319.04"/>
      </g>
     </g>
     <g id="text_1">
      <!-- May -->
      <g transform="translate(43.7725 333.638438)scale(0.1 -0.1)">
       <defs>
        <path d="M 628 4666 
L 1569 4666 
L 2759 1491 
L 3956 4666 
L 4897 4666 
L 4897 0 
L 4281 0 
L 4281 4097 
L 3078 897 
L 2444 897 
L 1241 4097 
L 1241 0 
L 628 0 
L 628 4666 
z
" id="DejaVuSans-4d" transform="scale(0.015625)"/>
        <path d="M 2194 1759 
Q 1497 1759 1228 1600 
Q 959 1441 959 1056 
Q 959 750 1161 570 
Q 1363 391 1709 391 
Q 2188 391 2477 730 
Q 2766 1069 2766 1631 
L 2766 1759 
L 2194 1759 
z
M 3341 1997 
L 3341 0 
L 2766 0 
L 2766 531 
Q 2569 213 2275 61 
Q 1981 -91 1556 -91 
Q 1019 -91 701 211 
Q 384 513 384 1019 
Q 384 1609 779 1909 
Q 1175 2209 1959 2209 
L 2766 2209 
L 2766 2266 
Q 2766 2663 2505 2880 
Q 2244 3097 1772 3097 
Q 1472 3097 1187 3025 
Q 903 2953 641 2809 
L 641 3341 
Q 956 3463 1253 3523 
Q 1550 3584 1831 3584 
Q 2591 3584 2966 3190 
Q 3341 2797 3341 1997 
z
" id="DejaVuSans-61" transform="scale(0.015625)"/>
        <path d="M 2059 -325 
Q 1816 -950 1584 -1140 
Q 1353 -1331 966 -1331 
L 506 -1331 
L 506 -850 
L 844 -850 
Q 1081 -850 1212 -737 
Q 1344 -625 1503 -206 
L 1606 56 
L 191 3500 
L 800 3500 
L 1894 763 
L 2988 3500 
L 3597 3500 
L 2059 -325 
z
" id="DejaVuSans-79" transform="scale(0.015625)"/>
       </defs>
       <use xlink:href="#DejaVuSans-4d"/>
       <use x="86.279297" xlink:href="#DejaVuSans-61"/>
       <use x="147.558594" xlink:href="#DejaVuSans-79"/>
      </g>
     </g>
    </g>
    <g id="xtick_2">
     <g id="line2d_3">
      <path clip-path="url(#p4af4ae777d)" d="M 71.442889 319.04 
L 71.442889 26.16 
" style="fill:none;stroke:#000000;stroke-dasharray:0.8,1.32;stroke-dashoffset:0;stroke-opacity:0.5;stroke-width:0.8;"/>
     </g>
     <g id="line2d_4">
      <g>
       <use style="stroke:#000000;stroke-width:0.8;" x="71.442889" xlink:href="#m4214854cb8" y="319.04"/>
      </g>
     </g>
     <g id="text_2">
      <!-- 15 -->
      <g transform="translate(65.080389 333.638438)scale(0.1 -0.1)">
       <defs>
        <path d="M 794 531 
L 1825 531 
L 1825 4091 
L 703 3866 
L 703 4441 
L 1819 4666 
L 2450 4666 
L 2450 531 
L 3481 531 
L 3481 0 
L 794 0 
L 794 531 
z
" id="DejaVuSans-31" transform="scale(0.015625)"/>
        <path d="M 691 4666 
L 3169 4666 
L 3169 4134 
L 1269 4134 
L 1269 2991 
Q 1406 3038 1543 3061 
Q 1681 3084 1819 3084 
Q 2600 3084 3056 2656 
Q 3513 2228 3513 1497 
Q 3513 744 3044 326 
Q 2575 -91 1722 -91 
Q 1428 -91 1123 -41 
Q 819 9 494 109 
L 494 744 
Q 775 591 1075 516 
Q 1375 441 1709 441 
Q 2250 441 2565 725 
Q 2881 1009 2881 1497 
Q 2881 1984 2565 2268 
Q 2250 2553 1709 2553 
Q 1456 2553 1204 2497 
Q 953 2441 691 2322 
L 691 4666 
z
" id="DejaVuSans-35" transform="scale(0.015625)"/>
       </defs>
       <use xlink:href="#DejaVuSans-31"/>
       <use x="63.623047" xlink:href="#DejaVuSans-35"/>
      </g>
     </g>
    </g>
    <g id="xtick_3">
     <g id="line2d_5">
      <path clip-path="url(#p4af4ae777d)" d="M 92.489969 319.04 
L 92.489969 26.16 
" style="fill:none;stroke:#000000;stroke-dasharray:0.8,1.32;stroke-dashoffset:0;stroke-opacity:0.5;stroke-width:0.8;"/>
     </g>
     <g id="line2d_6">
      <g>
       <use style="stroke:#000000;stroke-width:0.8;" x="92.489969" xlink:href="#m4214854cb8" y="319.04"/>
      </g>
     </g>
     <g id="text_3">
      <!-- Jun -->
      <g transform="translate(84.677469 333.638438)scale(0.1 -0.1)">
       <defs>
        <path d="M 628 4666 
L 1259 4666 
L 1259 325 
Q 1259 -519 939 -900 
Q 619 -1281 -91 -1281 
L -331 -1281 
L -331 -750 
L -134 -750 
Q 284 -750 456 -515 
Q 628 -281 628 325 
L 628 4666 
z
" id="DejaVuSans-4a" transform="scale(0.015625)"/>
        <path d="M 544 1381 
L 544 3500 
L 1119 3500 
L 1119 1403 
Q 1119 906 1312 657 
Q 1506 409 1894 409 
Q 2359 409 2629 706 
Q 2900 1003 2900 1516 
L 2900 3500 
L 3475 3500 
L 3475 0 
L 2900 0 
L 2900 538 
Q 2691 219 2414 64 
Q 2138 -91 1772 -91 
Q 1169 -91 856 284 
Q 544 659 544 1381 
z
M 1991 3584 
L 1991 3584 
z
" id="DejaVuSans-75" transform="scale(0.015625)"/>
        <path d="M 3513 2113 
L 3513 0 
L 2938 0 
L 2938 2094 
Q 2938 2591 2744 2837 
Q 2550 3084 2163 3084 
Q 1697 3084 1428 2787 
Q 1159 2491 1159 1978 
L 1159 0 
L 581 0 
L 581 3500 
L 1159 3500 
L 1159 2956 
Q 1366 3272 1645 3428 
Q 1925 3584 2291 3584 
Q 2894 3584 3203 3211 
Q 3513 2838 3513 2113 
z
" id="DejaVuSans-6e" transform="scale(0.015625)"/>
       </defs>
       <use xlink:href="#DejaVuSans-4a"/>
       <use x="29.492188" xlink:href="#DejaVuSans-75"/>
       <use x="92.871094" xlink:href="#DejaVuSans-6e"/>
      </g>
     </g>
    </g>
    <g id="xtick_4">
     <g id="line2d_7">
      <path clip-path="url(#p4af4ae777d)" d="M 109.822859 319.04 
L 109.822859 26.16 
" style="fill:none;stroke:#000000;stroke-dasharray:0.8,1.32;stroke-dashoffset:0;stroke-opacity:0.5;stroke-width:0.8;"/>
     </g>
     <g id="line2d_8">
      <g>
       <use style="stroke:#000000;stroke-width:0.8;" x="109.822859" xlink:href="#m4214854cb8" y="319.04"/>
      </g>
     </g>
     <g id="text_4">
      <!-- 15 -->
      <g transform="translate(103.460359 333.638438)scale(0.1 -0.1)">
       <use xlink:href="#DejaVuSans-31"/>
       <use x="63.623047" xlink:href="#DejaVuSans-35"/>
      </g>
     </g>
    </g>
    <g id="xtick_5">
     <g id="line2d_9">
      <path clip-path="url(#p4af4ae777d)" d="M 129.631875 319.04 
L 129.631875 26.16 
" style="fill:none;stroke:#000000;stroke-dasharray:0.8,1.32;stroke-dashoffset:0;stroke-opacity:0.5;stroke-width:0.8;"/>
     </g>
     <g id="line2d_10">
      <g>
       <use style="stroke:#000000;stroke-width:0.8;" x="129.631875" xlink:href="#m4214854cb8" y="319.04"/>
      </g>
     </g>
     <g id="text_5">
      <!-- Jul -->
      <g transform="translate(123.599062 333.638438)scale(0.1 -0.1)">
       <defs>
        <path d="M 603 4863 
L 1178 4863 
L 1178 0 
L 603 0 
L 603 4863 
z
" id="DejaVuSans-6c" transform="scale(0.015625)"/>
       </defs>
       <use xlink:href="#DejaVuSans-4a"/>
       <use x="29.492188" xlink:href="#DejaVuSans-75"/>
       <use x="92.871094" xlink:href="#DejaVuSans-6c"/>
      </g>
     </g>
    </g>
    <g id="xtick_6">
     <g id="line2d_11">
      <path clip-path="url(#p4af4ae777d)" d="M 146.964764 319.04 
L 146.964764 26.16 
" style="fill:none;stroke:#000000;stroke-dasharray:0.8,1.32;stroke-dashoffset:0;stroke-opacity:0.5;stroke-width:0.8;"/>
     </g>
     <g id="line2d_12">
      <g>
       <use style="stroke:#000000;stroke-width:0.8;" x="146.964764" xlink:href="#m4214854cb8" y="319.04"/>
      </g>
     </g>
     <g id="text_6">
      <!-- 15 -->
      <g transform="translate(140.602264 333.638438)scale(0.1 -0.1)">
       <use xlink:href="#DejaVuSans-31"/>
       <use x="63.623047" xlink:href="#DejaVuSans-35"/>
      </g>
     </g>
    </g>
    <g id="xtick_7">
     <g id="line2d_13">
      <path clip-path="url(#p4af4ae777d)" d="M 168.011844 319.04 
L 168.011844 26.16 
" style="fill:none;stroke:#000000;stroke-dasharray:0.8,1.32;stroke-dashoffset:0;stroke-opacity:0.5;stroke-width:0.8;"/>
     </g>
     <g id="line2d_14">
      <g>
       <use style="stroke:#000000;stroke-width:0.8;" x="168.011844" xlink:href="#m4214854cb8" y="319.04"/>
      </g>
     </g>
     <g id="text_7">
      <!-- Aug -->
      <g transform="translate(158.248563 333.638438)scale(0.1 -0.1)">
       <defs>
        <path d="M 2188 4044 
L 1331 1722 
L 3047 1722 
L 2188 4044 
z
M 1831 4666 
L 2547 4666 
L 4325 0 
L 3669 0 
L 3244 1197 
L 1141 1197 
L 716 0 
L 50 0 
L 1831 4666 
z
" id="DejaVuSans-41" transform="scale(0.015625)"/>
        <path d="M 2906 1791 
Q 2906 2416 2648 2759 
Q 2391 3103 1925 3103 
Q 1463 3103 1205 2759 
Q 947 2416 947 1791 
Q 947 1169 1205 825 
Q 1463 481 1925 481 
Q 2391 481 2648 825 
Q 2906 1169 2906 1791 
z
M 3481 434 
Q 3481 -459 3084 -895 
Q 2688 -1331 1869 -1331 
Q 1566 -1331 1297 -1286 
Q 1028 -1241 775 -1147 
L 775 -588 
Q 1028 -725 1275 -790 
Q 1522 -856 1778 -856 
Q 2344 -856 2625 -561 
Q 2906 -266 2906 331 
L 2906 616 
Q 2728 306 2450 153 
Q 2172 0 1784 0 
Q 1141 0 747 490 
Q 353 981 353 1791 
Q 353 2603 747 3093 
Q 1141 3584 1784 3584 
Q 2172 3584 2450 3431 
Q 2728 3278 2906 2969 
L 2906 3500 
L 3481 3500 
L 3481 434 
z
" id="DejaVuSans-67" transform="scale(0.015625)"/>
       </defs>
       <use xlink:href="#DejaVuSans-41"/>
       <use x="68.408203" xlink:href="#DejaVuSans-75"/>
       <use x="131.787109" xlink:href="#DejaVuSans-67"/>
      </g>
     </g>
    </g>
    <g id="xtick_8">
     <g id="line2d_15">
      <path clip-path="url(#p4af4ae777d)" d="M 185.344734 319.04 
L 185.344734 26.16 
" style="fill:none;stroke:#000000;stroke-dasharray:0.8,1.32;stroke-dashoffset:0;stroke-opacity:0.5;stroke-width:0.8;"/>
     </g>
     <g id="line2d_16">
      <g>
       <use style="stroke:#000000;stroke-width:0.8;" x="185.344734" xlink:href="#m4214854cb8" y="319.04"/>
      </g>
     </g>
     <g id="text_8">
      <!-- 15 -->
      <g transform="translate(178.982234 333.638438)scale(0.1 -0.1)">
       <use xlink:href="#DejaVuSans-31"/>
       <use x="63.623047" xlink:href="#DejaVuSans-35"/>
      </g>
     </g>
    </g>
    <g id="xtick_9">
     <g id="line2d_17">
      <path clip-path="url(#p4af4ae777d)" d="M 206.391814 319.04 
L 206.391814 26.16 
" style="fill:none;stroke:#000000;stroke-dasharray:0.8,1.32;stroke-dashoffset:0;stroke-opacity:0.5;stroke-width:0.8;"/>
     </g>
     <g id="line2d_18">
      <g>
       <use style="stroke:#000000;stroke-width:0.8;" x="206.391814" xlink:href="#m4214854cb8" y="319.04"/>
      </g>
     </g>
     <g id="text_9">
      <!-- Sep -->
      <g transform="translate(196.966814 333.638438)scale(0.1 -0.1)">
       <defs>
        <path d="M 3425 4513 
L 3425 3897 
Q 3066 4069 2747 4153 
Q 2428 4238 2131 4238 
Q 1616 4238 1336 4038 
Q 1056 3838 1056 3469 
Q 1056 3159 1242 3001 
Q 1428 2844 1947 2747 
L 2328 2669 
Q 3034 2534 3370 2195 
Q 3706 1856 3706 1288 
Q 3706 609 3251 259 
Q 2797 -91 1919 -91 
Q 1588 -91 1214 -16 
Q 841 59 441 206 
L 441 856 
Q 825 641 1194 531 
Q 1563 422 1919 422 
Q 2459 422 2753 634 
Q 3047 847 3047 1241 
Q 3047 1584 2836 1778 
Q 2625 1972 2144 2069 
L 1759 2144 
Q 1053 2284 737 2584 
Q 422 2884 422 3419 
Q 422 4038 858 4394 
Q 1294 4750 2059 4750 
Q 2388 4750 2728 4690 
Q 3069 4631 3425 4513 
z
" id="DejaVuSans-53" transform="scale(0.015625)"/>
        <path d="M 3597 1894 
L 3597 1613 
L 953 1613 
Q 991 1019 1311 708 
Q 1631 397 2203 397 
Q 2534 397 2845 478 
Q 3156 559 3463 722 
L 3463 178 
Q 3153 47 2828 -22 
Q 2503 -91 2169 -91 
Q 1331 -91 842 396 
Q 353 884 353 1716 
Q 353 2575 817 3079 
Q 1281 3584 2069 3584 
Q 2775 3584 3186 3129 
Q 3597 2675 3597 1894 
z
M 3022 2063 
Q 3016 2534 2758 2815 
Q 2500 3097 2075 3097 
Q 1594 3097 1305 2825 
Q 1016 2553 972 2059 
L 3022 2063 
z
" id="DejaVuSans-65" transform="scale(0.015625)"/>
        <path d="M 1159 525 
L 1159 -1331 
L 581 -1331 
L 581 3500 
L 1159 3500 
L 1159 2969 
Q 1341 3281 1617 3432 
Q 1894 3584 2278 3584 
Q 2916 3584 3314 3078 
Q 3713 2572 3713 1747 
Q 3713 922 3314 415 
Q 2916 -91 2278 -91 
Q 1894 -91 1617 61 
Q 1341 213 1159 525 
z
M 3116 1747 
Q 3116 2381 2855 2742 
Q 2594 3103 2138 3103 
Q 1681 3103 1420 2742 
Q 1159 2381 1159 1747 
Q 1159 1113 1420 752 
Q 1681 391 2138 391 
Q 2594 391 2855 752 
Q 3116 1113 3116 1747 
z
" id="DejaVuSans-70" transform="scale(0.015625)"/>
       </defs>
       <use xlink:href="#DejaVuSans-53"/>
       <use x="63.476562" xlink:href="#DejaVuSans-65"/>
       <use x="125" xlink:href="#DejaVuSans-70"/>
      </g>
     </g>
    </g>
    <g id="xtick_10">
     <g id="line2d_19">
      <path clip-path="url(#p4af4ae777d)" d="M 223.724703 319.04 
L 223.724703 26.16 
" style="fill:none;stroke:#000000;stroke-dasharray:0.8,1.32;stroke-dashoffset:0;stroke-opacity:0.5;stroke-width:0.8;"/>
     </g>
     <g id="line2d_20">
      <g>
       <use style="stroke:#000000;stroke-width:0.8;" x="223.724703" xlink:href="#m4214854cb8" y="319.04"/>
      </g>
     </g>
     <g id="text_10">
      <!-- 15 -->
      <g transform="translate(217.362203 333.638438)scale(0.1 -0.1)">
       <use xlink:href="#DejaVuSans-31"/>
       <use x="63.623047" xlink:href="#DejaVuSans-35"/>
      </g>
     </g>
    </g>
    <g id="xtick_11">
     <g id="line2d_21">
      <path clip-path="url(#p4af4ae777d)" d="M 243.533719 319.04 
L 243.533719 26.16 
" style="fill:none;stroke:#000000;stroke-dasharray:0.8,1.32;stroke-dashoffset:0;stroke-opacity:0.5;stroke-width:0.8;"/>
     </g>
     <g id="line2d_22">
      <g>
       <use style="stroke:#000000;stroke-width:0.8;" x="243.533719" xlink:href="#m4214854cb8" y="319.04"/>
      </g>
     </g>
     <g id="text_11">
      <!-- Oct -->
      <g transform="translate(234.888407 333.638438)scale(0.1 -0.1)">
       <defs>
        <path d="M 2522 4238 
Q 1834 4238 1429 3725 
Q 1025 3213 1025 2328 
Q 1025 1447 1429 934 
Q 1834 422 2522 422 
Q 3209 422 3611 934 
Q 4013 1447 4013 2328 
Q 4013 3213 3611 3725 
Q 3209 4238 2522 4238 
z
M 2522 4750 
Q 3503 4750 4090 4092 
Q 4678 3434 4678 2328 
Q 4678 1225 4090 567 
Q 3503 -91 2522 -91 
Q 1538 -91 948 565 
Q 359 1222 359 2328 
Q 359 3434 948 4092 
Q 1538 4750 2522 4750 
z
" id="DejaVuSans-4f" transform="scale(0.015625)"/>
        <path d="M 3122 3366 
L 3122 2828 
Q 2878 2963 2633 3030 
Q 2388 3097 2138 3097 
Q 1578 3097 1268 2742 
Q 959 2388 959 1747 
Q 959 1106 1268 751 
Q 1578 397 2138 397 
Q 2388 397 2633 464 
Q 2878 531 3122 666 
L 3122 134 
Q 2881 22 2623 -34 
Q 2366 -91 2075 -91 
Q 1284 -91 818 406 
Q 353 903 353 1747 
Q 353 2603 823 3093 
Q 1294 3584 2113 3584 
Q 2378 3584 2631 3529 
Q 2884 3475 3122 3366 
z
" id="DejaVuSans-63" transform="scale(0.015625)"/>
        <path d="M 1172 4494 
L 1172 3500 
L 2356 3500 
L 2356 3053 
L 1172 3053 
L 1172 1153 
Q 1172 725 1289 603 
Q 1406 481 1766 481 
L 2356 481 
L 2356 0 
L 1766 0 
Q 1100 0 847 248 
Q 594 497 594 1153 
L 594 3053 
L 172 3053 
L 172 3500 
L 594 3500 
L 594 4494 
L 1172 4494 
z
" id="DejaVuSans-74" transform="scale(0.015625)"/>
       </defs>
       <use xlink:href="#DejaVuSans-4f"/>
       <use x="78.710938" xlink:href="#DejaVuSans-63"/>
       <use x="133.691406" xlink:href="#DejaVuSans-74"/>
      </g>
     </g>
    </g>
    <g id="xtick_12">
     <g id="line2d_23">
      <path clip-path="url(#p4af4ae777d)" d="M 260.866609 319.04 
L 260.866609 26.16 
" style="fill:none;stroke:#000000;stroke-dasharray:0.8,1.32;stroke-dashoffset:0;stroke-opacity:0.5;stroke-width:0.8;"/>
     </g>
     <g id="line2d_24">
      <g>
       <use style="stroke:#000000;stroke-width:0.8;" x="260.866609" xlink:href="#m4214854cb8" y="319.04"/>
      </g>
     </g>
     <g id="text_12">
      <!-- 15 -->
      <g transform="translate(254.504109 333.638438)scale(0.1 -0.1)">
       <use xlink:href="#DejaVuSans-31"/>
       <use x="63.623047" xlink:href="#DejaVuSans-35"/>
      </g>
     </g>
    </g>
    <g id="xtick_13">
     <g id="line2d_25">
      <path clip-path="url(#p4af4ae777d)" d="M 281.913689 319.04 
L 281.913689 26.16 
" style="fill:none;stroke:#000000;stroke-dasharray:0.8,1.32;stroke-dashoffset:0;stroke-opacity:0.5;stroke-width:0.8;"/>
     </g>
     <g id="line2d_26">
      <g>
       <use style="stroke:#000000;stroke-width:0.8;" x="281.913689" xlink:href="#m4214854cb8" y="319.04"/>
      </g>
     </g>
     <g id="text_13">
      <!-- Nov -->
      <g transform="translate(272.154314 333.638438)scale(0.1 -0.1)">
       <defs>
        <path d="M 628 4666 
L 1478 4666 
L 3547 763 
L 3547 4666 
L 4159 4666 
L 4159 0 
L 3309 0 
L 1241 3903 
L 1241 0 
L 628 0 
L 628 4666 
z
" id="DejaVuSans-4e" transform="scale(0.015625)"/>
        <path d="M 1959 3097 
Q 1497 3097 1228 2736 
Q 959 2375 959 1747 
Q 959 1119 1226 758 
Q 1494 397 1959 397 
Q 2419 397 2687 759 
Q 2956 1122 2956 1747 
Q 2956 2369 2687 2733 
Q 2419 3097 1959 3097 
z
M 1959 3584 
Q 2709 3584 3137 3096 
Q 3566 2609 3566 1747 
Q 3566 888 3137 398 
Q 2709 -91 1959 -91 
Q 1206 -91 779 398 
Q 353 888 353 1747 
Q 353 2609 779 3096 
Q 1206 3584 1959 3584 
z
" id="DejaVuSans-6f" transform="scale(0.015625)"/>
        <path d="M 191 3500 
L 800 3500 
L 1894 563 
L 2988 3500 
L 3597 3500 
L 2284 0 
L 1503 0 
L 191 3500 
z
" id="DejaVuSans-76" transform="scale(0.015625)"/>
       </defs>
       <use xlink:href="#DejaVuSans-4e"/>
       <use x="74.804688" xlink:href="#DejaVuSans-6f"/>
       <use x="135.986328" xlink:href="#DejaVuSans-76"/>
      </g>
     </g>
    </g>
    <g id="xtick_14">
     <g id="line2d_27">
      <path clip-path="url(#p4af4ae777d)" d="M 299.246578 319.04 
L 299.246578 26.16 
" style="fill:none;stroke:#000000;stroke-dasharray:0.8,1.32;stroke-dashoffset:0;stroke-opacity:0.5;stroke-width:0.8;"/>
     </g>
     <g id="line2d_28">
      <g>
       <use style="stroke:#000000;stroke-width:0.8;" x="299.246578" xlink:href="#m4214854cb8" y="319.04"/>
      </g>
     </g>
     <g id="text_14">
      <!-- 15 -->
      <g transform="translate(292.884078 333.638438)scale(0.1 -0.1)">
       <use xlink:href="#DejaVuSans-31"/>
       <use x="63.623047" xlink:href="#DejaVuSans-35"/>
      </g>
     </g>
    </g>
    <g id="xtick_15">
     <g id="line2d_29">
      <path clip-path="url(#p4af4ae777d)" d="M 319.055594 319.04 
L 319.055594 26.16 
" style="fill:none;stroke:#000000;stroke-dasharray:0.8,1.32;stroke-dashoffset:0;stroke-opacity:0.5;stroke-width:0.8;"/>
     </g>
     <g id="line2d_30">
      <g>
       <use style="stroke:#000000;stroke-width:0.8;" x="319.055594" xlink:href="#m4214854cb8" y="319.04"/>
      </g>
     </g>
     <g id="text_15">
      <!-- Dec -->
      <g transform="translate(309.379813 333.638438)scale(0.1 -0.1)">
       <defs>
        <path d="M 1259 4147 
L 1259 519 
L 2022 519 
Q 2988 519 3436 956 
Q 3884 1394 3884 2338 
Q 3884 3275 3436 3711 
Q 2988 4147 2022 4147 
L 1259 4147 
z
M 628 4666 
L 1925 4666 
Q 3281 4666 3915 4102 
Q 4550 3538 4550 2338 
Q 4550 1131 3912 565 
Q 3275 0 1925 0 
L 628 0 
L 628 4666 
z
" id="DejaVuSans-44" transform="scale(0.015625)"/>
       </defs>
       <use xlink:href="#DejaVuSans-44"/>
       <use x="77.001953" xlink:href="#DejaVuSans-65"/>
       <use x="138.525391" xlink:href="#DejaVuSans-63"/>
      </g>
     </g>
    </g>
    <g id="xtick_16">
     <g id="line2d_31">
      <path clip-path="url(#p4af4ae777d)" d="M 336.388484 319.04 
L 336.388484 26.16 
" style="fill:none;stroke:#000000;stroke-dasharray:0.8,1.32;stroke-dashoffset:0;stroke-opacity:0.5;stroke-width:0.8;"/>
     </g>
     <g id="line2d_32">
      <g>
       <use style="stroke:#000000;stroke-width:0.8;" x="336.388484" xlink:href="#m4214854cb8" y="319.04"/>
      </g>
     </g>
     <g id="text_16">
      <!-- 15 -->
      <g transform="translate(330.025984 333.638438)scale(0.1 -0.1)">
       <use xlink:href="#DejaVuSans-31"/>
       <use x="63.623047" xlink:href="#DejaVuSans-35"/>
      </g>
     </g>
    </g>
    <g id="text_17">
     <!-- 2021-Dec -->
     <g transform="translate(307.788125 346.316563)scale(0.1 -0.1)">
      <defs>
       <path d="M 1228 531 
L 3431 531 
L 3431 0 
L 469 0 
L 469 531 
Q 828 903 1448 1529 
Q 2069 2156 2228 2338 
Q 2531 2678 2651 2914 
Q 2772 3150 2772 3378 
Q 2772 3750 2511 3984 
Q 2250 4219 1831 4219 
Q 1534 4219 1204 4116 
Q 875 4013 500 3803 
L 500 4441 
Q 881 4594 1212 4672 
Q 1544 4750 1819 4750 
Q 2544 4750 2975 4387 
Q 3406 4025 3406 3419 
Q 3406 3131 3298 2873 
Q 3191 2616 2906 2266 
Q 2828 2175 2409 1742 
Q 1991 1309 1228 531 
z
" id="DejaVuSans-32" transform="scale(0.015625)"/>
       <path d="M 2034 4250 
Q 1547 4250 1301 3770 
Q 1056 3291 1056 2328 
Q 1056 1369 1301 889 
Q 1547 409 2034 409 
Q 2525 409 2770 889 
Q 3016 1369 3016 2328 
Q 3016 3291 2770 3770 
Q 2525 4250 2034 4250 
z
M 2034 4750 
Q 2819 4750 3233 4129 
Q 3647 3509 3647 2328 
Q 3647 1150 3233 529 
Q 2819 -91 2034 -91 
Q 1250 -91 836 529 
Q 422 1150 422 2328 
Q 422 3509 836 4129 
Q 1250 4750 2034 4750 
z
" id="DejaVuSans-30" transform="scale(0.015625)"/>
       <path d="M 313 2009 
L 1997 2009 
L 1997 1497 
L 313 1497 
L 313 2009 
z
" id="DejaVuSans-2d" transform="scale(0.015625)"/>
      </defs>
      <use xlink:href="#DejaVuSans-32"/>
      <use x="63.623047" xlink:href="#DejaVuSans-30"/>
      <use x="127.246094" xlink:href="#DejaVuSans-32"/>
      <use x="190.869141" xlink:href="#DejaVuSans-31"/>
      <use x="254.492188" xlink:href="#DejaVuSans-2d"/>
      <use x="290.576172" xlink:href="#DejaVuSans-44"/>
      <use x="367.578125" xlink:href="#DejaVuSans-65"/>
      <use x="429.101562" xlink:href="#DejaVuSans-63"/>
     </g>
    </g>
   </g>
   <g id="matplotlib.axis_2">
    <g id="ytick_1">
     <g id="line2d_33">
      <path clip-path="url(#p4af4ae777d)" d="M 54.11 319.04 
L 356.1975 319.04 
" style="fill:none;stroke:#000000;stroke-dasharray:0.8,1.32;stroke-dashoffset:0;stroke-opacity:0.5;stroke-width:0.8;"/>
     </g>
     <g id="line2d_34">
      <defs>
       <path d="M 0 0 
L -3.5 0 
" id="md337b20ef1" style="stroke:#000000;stroke-width:0.8;"/>
      </defs>
      <g>
       <use style="stroke:#000000;stroke-width:0.8;" x="54.11" xlink:href="#md337b20ef1" y="319.04"/>
      </g>
     </g>
     <g id="text_18">
      <!-- 0.00 -->
      <g transform="translate(24.844375 322.839219)scale(0.1 -0.1)">
       <defs>
        <path d="M 684 794 
L 1344 794 
L 1344 0 
L 684 0 
L 684 794 
z
" id="DejaVuSans-2e" transform="scale(0.015625)"/>
       </defs>
       <use xlink:href="#DejaVuSans-30"/>
       <use x="63.623047" xlink:href="#DejaVuSans-2e"/>
       <use x="95.410156" xlink:href="#DejaVuSans-30"/>
       <use x="159.033203" xlink:href="#DejaVuSans-30"/>
      </g>
     </g>
    </g>
    <g id="ytick_2">
     <g id="line2d_35">
      <path clip-path="url(#p4af4ae777d)" d="M 54.11 285.758182 
L 356.1975 285.758182 
" style="fill:none;stroke:#000000;stroke-dasharray:0.8,1.32;stroke-dashoffset:0;stroke-opacity:0.5;stroke-width:0.8;"/>
     </g>
     <g id="line2d_36">
      <g>
       <use style="stroke:#000000;stroke-width:0.8;" x="54.11" xlink:href="#md337b20ef1" y="285.758182"/>
      </g>
     </g>
     <g id="text_19">
      <!-- 0.25 -->
      <g transform="translate(24.844375 289.557401)scale(0.1 -0.1)">
       <use xlink:href="#DejaVuSans-30"/>
       <use x="63.623047" xlink:href="#DejaVuSans-2e"/>
       <use x="95.410156" xlink:href="#DejaVuSans-32"/>
       <use x="159.033203" xlink:href="#DejaVuSans-35"/>
      </g>
     </g>
    </g>
    <g id="ytick_3">
     <g id="line2d_37">
      <path clip-path="url(#p4af4ae777d)" d="M 54.11 252.476364 
L 356.1975 252.476364 
" style="fill:none;stroke:#000000;stroke-dasharray:0.8,1.32;stroke-dashoffset:0;stroke-opacity:0.5;stroke-width:0.8;"/>
     </g>
     <g id="line2d_38">
      <g>
       <use style="stroke:#000000;stroke-width:0.8;" x="54.11" xlink:href="#md337b20ef1" y="252.476364"/>
      </g>
     </g>
     <g id="text_20">
      <!-- 0.50 -->
      <g transform="translate(24.844375 256.275582)scale(0.1 -0.1)">
       <use xlink:href="#DejaVuSans-30"/>
       <use x="63.623047" xlink:href="#DejaVuSans-2e"/>
       <use x="95.410156" xlink:href="#DejaVuSans-35"/>
       <use x="159.033203" xlink:href="#DejaVuSans-30"/>
      </g>
     </g>
    </g>
    <g id="ytick_4">
     <g id="line2d_39">
      <path clip-path="url(#p4af4ae777d)" d="M 54.11 219.194545 
L 356.1975 219.194545 
" style="fill:none;stroke:#000000;stroke-dasharray:0.8,1.32;stroke-dashoffset:0;stroke-opacity:0.5;stroke-width:0.8;"/>
     </g>
     <g id="line2d_40">
      <g>
       <use style="stroke:#000000;stroke-width:0.8;" x="54.11" xlink:href="#md337b20ef1" y="219.194545"/>
      </g>
     </g>
     <g id="text_21">
      <!-- 0.75 -->
      <g transform="translate(24.844375 222.993764)scale(0.1 -0.1)">
       <defs>
        <path d="M 525 4666 
L 3525 4666 
L 3525 4397 
L 1831 0 
L 1172 0 
L 2766 4134 
L 525 4134 
L 525 4666 
z
" id="DejaVuSans-37" transform="scale(0.015625)"/>
       </defs>
       <use xlink:href="#DejaVuSans-30"/>
       <use x="63.623047" xlink:href="#DejaVuSans-2e"/>
       <use x="95.410156" xlink:href="#DejaVuSans-37"/>
       <use x="159.033203" xlink:href="#DejaVuSans-35"/>
      </g>
     </g>
    </g>
    <g id="ytick_5">
     <g id="line2d_41">
      <path clip-path="url(#p4af4ae777d)" d="M 54.11 185.912727 
L 356.1975 185.912727 
" style="fill:none;stroke:#000000;stroke-dasharray:0.8,1.32;stroke-dashoffset:0;stroke-opacity:0.5;stroke-width:0.8;"/>
     </g>
     <g id="line2d_42">
      <g>
       <use style="stroke:#000000;stroke-width:0.8;" x="54.11" xlink:href="#md337b20ef1" y="185.912727"/>
      </g>
     </g>
     <g id="text_22">
      <!-- 1.00 -->
      <g transform="translate(24.844375 189.711946)scale(0.1 -0.1)">
       <use xlink:href="#DejaVuSans-31"/>
       <use x="63.623047" xlink:href="#DejaVuSans-2e"/>
       <use x="95.410156" xlink:href="#DejaVuSans-30"/>
       <use x="159.033203" xlink:href="#DejaVuSans-30"/>
      </g>
     </g>
    </g>
    <g id="ytick_6">
     <g id="line2d_43">
      <path clip-path="url(#p4af4ae777d)" d="M 54.11 152.630909 
L 356.1975 152.630909 
" style="fill:none;stroke:#000000;stroke-dasharray:0.8,1.32;stroke-dashoffset:0;stroke-opacity:0.5;stroke-width:0.8;"/>
     </g>
     <g id="line2d_44">
      <g>
       <use style="stroke:#000000;stroke-width:0.8;" x="54.11" xlink:href="#md337b20ef1" y="152.630909"/>
      </g>
     </g>
     <g id="text_23">
      <!-- 1.25 -->
      <g transform="translate(24.844375 156.430128)scale(0.1 -0.1)">
       <use xlink:href="#DejaVuSans-31"/>
       <use x="63.623047" xlink:href="#DejaVuSans-2e"/>
       <use x="95.410156" xlink:href="#DejaVuSans-32"/>
       <use x="159.033203" xlink:href="#DejaVuSans-35"/>
      </g>
     </g>
    </g>
    <g id="ytick_7">
     <g id="line2d_45">
      <path clip-path="url(#p4af4ae777d)" d="M 54.11 119.349091 
L 356.1975 119.349091 
" style="fill:none;stroke:#000000;stroke-dasharray:0.8,1.32;stroke-dashoffset:0;stroke-opacity:0.5;stroke-width:0.8;"/>
     </g>
     <g id="line2d_46">
      <g>
       <use style="stroke:#000000;stroke-width:0.8;" x="54.11" xlink:href="#md337b20ef1" y="119.349091"/>
      </g>
     </g>
     <g id="text_24">
      <!-- 1.50 -->
      <g transform="translate(24.844375 123.14831)scale(0.1 -0.1)">
       <use xlink:href="#DejaVuSans-31"/>
       <use x="63.623047" xlink:href="#DejaVuSans-2e"/>
       <use x="95.410156" xlink:href="#DejaVuSans-35"/>
       <use x="159.033203" xlink:href="#DejaVuSans-30"/>
      </g>
     </g>
    </g>
    <g id="ytick_8">
     <g id="line2d_47">
      <path clip-path="url(#p4af4ae777d)" d="M 54.11 86.067273 
L 356.1975 86.067273 
" style="fill:none;stroke:#000000;stroke-dasharray:0.8,1.32;stroke-dashoffset:0;stroke-opacity:0.5;stroke-width:0.8;"/>
     </g>
     <g id="line2d_48">
      <g>
       <use style="stroke:#000000;stroke-width:0.8;" x="54.11" xlink:href="#md337b20ef1" y="86.067273"/>
      </g>
     </g>
     <g id="text_25">
      <!-- 1.75 -->
      <g transform="translate(24.844375 89.866491)scale(0.1 -0.1)">
       <use xlink:href="#DejaVuSans-31"/>
       <use x="63.623047" xlink:href="#DejaVuSans-2e"/>
       <use x="95.410156" xlink:href="#DejaVuSans-37"/>
       <use x="159.033203" xlink:href="#DejaVuSans-35"/>
      </g>
     </g>
    </g>
    <g id="ytick_9">
     <g id="line2d_49">
      <path clip-path="url(#p4af4ae777d)" d="M 54.11 52.785455 
L 356.1975 52.785455 
" style="fill:none;stroke:#000000;stroke-dasharray:0.8,1.32;stroke-dashoffset:0;stroke-opacity:0.5;stroke-width:0.8;"/>
     </g>
     <g id="line2d_50">
      <g>
       <use style="stroke:#000000;stroke-width:0.8;" x="54.11" xlink:href="#md337b20ef1" y="52.785455"/>
      </g>
     </g>
     <g id="text_26">
      <!-- 2.00 -->
      <g transform="translate(24.844375 56.584673)scale(0.1 -0.1)">
       <use xlink:href="#DejaVuSans-32"/>
       <use x="63.623047" xlink:href="#DejaVuSans-2e"/>
       <use x="95.410156" xlink:href="#DejaVuSans-30"/>
       <use x="159.033203" xlink:href="#DejaVuSans-30"/>
      </g>
     </g>
    </g>
    <g id="text_27">
     <!-- 7d avg doses per hundred population per day -->
     <g transform="translate(18.764688 287.0875)rotate(-90)scale(0.1 -0.1)">
      <defs>
       <path d="M 2906 2969 
L 2906 4863 
L 3481 4863 
L 3481 0 
L 2906 0 
L 2906 525 
Q 2725 213 2448 61 
Q 2172 -91 1784 -91 
Q 1150 -91 751 415 
Q 353 922 353 1747 
Q 353 2572 751 3078 
Q 1150 3584 1784 3584 
Q 2172 3584 2448 3432 
Q 2725 3281 2906 2969 
z
M 947 1747 
Q 947 1113 1208 752 
Q 1469 391 1925 391 
Q 2381 391 2643 752 
Q 2906 1113 2906 1747 
Q 2906 2381 2643 2742 
Q 2381 3103 1925 3103 
Q 1469 3103 1208 2742 
Q 947 2381 947 1747 
z
" id="DejaVuSans-64" transform="scale(0.015625)"/>
       <path id="DejaVuSans-20" transform="scale(0.015625)"/>
       <path d="M 2834 3397 
L 2834 2853 
Q 2591 2978 2328 3040 
Q 2066 3103 1784 3103 
Q 1356 3103 1142 2972 
Q 928 2841 928 2578 
Q 928 2378 1081 2264 
Q 1234 2150 1697 2047 
L 1894 2003 
Q 2506 1872 2764 1633 
Q 3022 1394 3022 966 
Q 3022 478 2636 193 
Q 2250 -91 1575 -91 
Q 1294 -91 989 -36 
Q 684 19 347 128 
L 347 722 
Q 666 556 975 473 
Q 1284 391 1588 391 
Q 1994 391 2212 530 
Q 2431 669 2431 922 
Q 2431 1156 2273 1281 
Q 2116 1406 1581 1522 
L 1381 1569 
Q 847 1681 609 1914 
Q 372 2147 372 2553 
Q 372 3047 722 3315 
Q 1072 3584 1716 3584 
Q 2034 3584 2315 3537 
Q 2597 3491 2834 3397 
z
" id="DejaVuSans-73" transform="scale(0.015625)"/>
       <path d="M 2631 2963 
Q 2534 3019 2420 3045 
Q 2306 3072 2169 3072 
Q 1681 3072 1420 2755 
Q 1159 2438 1159 1844 
L 1159 0 
L 581 0 
L 581 3500 
L 1159 3500 
L 1159 2956 
Q 1341 3275 1631 3429 
Q 1922 3584 2338 3584 
Q 2397 3584 2469 3576 
Q 2541 3569 2628 3553 
L 2631 2963 
z
" id="DejaVuSans-72" transform="scale(0.015625)"/>
       <path d="M 3513 2113 
L 3513 0 
L 2938 0 
L 2938 2094 
Q 2938 2591 2744 2837 
Q 2550 3084 2163 3084 
Q 1697 3084 1428 2787 
Q 1159 2491 1159 1978 
L 1159 0 
L 581 0 
L 581 4863 
L 1159 4863 
L 1159 2956 
Q 1366 3272 1645 3428 
Q 1925 3584 2291 3584 
Q 2894 3584 3203 3211 
Q 3513 2838 3513 2113 
z
" id="DejaVuSans-68" transform="scale(0.015625)"/>
       <path d="M 603 3500 
L 1178 3500 
L 1178 0 
L 603 0 
L 603 3500 
z
M 603 4863 
L 1178 4863 
L 1178 4134 
L 603 4134 
L 603 4863 
z
" id="DejaVuSans-69" transform="scale(0.015625)"/>
      </defs>
      <use xlink:href="#DejaVuSans-37"/>
      <use x="63.623047" xlink:href="#DejaVuSans-64"/>
      <use x="127.099609" xlink:href="#DejaVuSans-20"/>
      <use x="158.886719" xlink:href="#DejaVuSans-61"/>
      <use x="220.166016" xlink:href="#DejaVuSans-76"/>
      <use x="279.345703" xlink:href="#DejaVuSans-67"/>
      <use x="342.822266" xlink:href="#DejaVuSans-20"/>
      <use x="374.609375" xlink:href="#DejaVuSans-64"/>
      <use x="438.085938" xlink:href="#DejaVuSans-6f"/>
      <use x="499.267578" xlink:href="#DejaVuSans-73"/>
      <use x="551.367188" xlink:href="#DejaVuSans-65"/>
      <use x="612.890625" xlink:href="#DejaVuSans-73"/>
      <use x="664.990234" xlink:href="#DejaVuSans-20"/>
      <use x="696.777344" xlink:href="#DejaVuSans-70"/>
      <use x="760.253906" xlink:href="#DejaVuSans-65"/>
      <use x="821.777344" xlink:href="#DejaVuSans-72"/>
      <use x="862.890625" xlink:href="#DejaVuSans-20"/>
      <use x="894.677734" xlink:href="#DejaVuSans-68"/>
      <use x="958.056641" xlink:href="#DejaVuSans-75"/>
      <use x="1021.435547" xlink:href="#DejaVuSans-6e"/>
      <use x="1084.814453" xlink:href="#DejaVuSans-64"/>
      <use x="1148.291016" xlink:href="#DejaVuSans-72"/>
      <use x="1187.154297" xlink:href="#DejaVuSans-65"/>
      <use x="1248.677734" xlink:href="#DejaVuSans-64"/>
      <use x="1312.154297" xlink:href="#DejaVuSans-20"/>
      <use x="1343.941406" xlink:href="#DejaVuSans-70"/>
      <use x="1407.417969" xlink:href="#DejaVuSans-6f"/>
      <use x="1468.599609" xlink:href="#DejaVuSans-70"/>
      <use x="1532.076172" xlink:href="#DejaVuSans-75"/>
      <use x="1595.455078" xlink:href="#DejaVuSans-6c"/>
      <use x="1623.238281" xlink:href="#DejaVuSans-61"/>
      <use x="1684.517578" xlink:href="#DejaVuSans-74"/>
      <use x="1723.726562" xlink:href="#DejaVuSans-69"/>
      <use x="1751.509766" xlink:href="#DejaVuSans-6f"/>
      <use x="1812.691406" xlink:href="#DejaVuSans-6e"/>
      <use x="1876.070312" xlink:href="#DejaVuSans-20"/>
      <use x="1907.857422" xlink:href="#DejaVuSans-70"/>
      <use x="1971.333984" xlink:href="#DejaVuSans-65"/>
      <use x="2032.857422" xlink:href="#DejaVuSans-72"/>
      <use x="2073.970703" xlink:href="#DejaVuSans-20"/>
      <use x="2105.757812" xlink:href="#DejaVuSans-64"/>
      <use x="2169.234375" xlink:href="#DejaVuSans-61"/>
      <use x="2230.513672" xlink:href="#DejaVuSans-79"/>
     </g>
    </g>
   </g>
   <g id="line2d_51">
    <path clip-path="url(#p4af4ae777d)" d="M -1 314.226606 
L 0.873268 314.226606 
L 0.873268 315.532774 
L 3.349395 315.532774 
L 3.349395 312.557549 
L 4.587459 312.557549 
L 4.587459 311.56897 
L 5.825523 311.56897 
L 5.825523 312.844066 
L 7.063586 312.844066 
L 7.063586 313.979462 
L 8.30165 313.979462 
L 8.30165 310.124525 
L 9.539713 310.124525 
L 9.539713 308.44598 
L 12.01584 308.44598 
L 12.01584 311.59506 
L 13.253904 311.59506 
L 13.253904 312.622537 
L 15.730031 312.622537 
L 15.730031 308.495551 
L 16.968094 308.495551 
L 16.968094 310.700643 
L 18.206158 310.700643 
L 18.206158 312.180191 
L 19.444221 312.180191 
L 19.444221 311.87209 
L 21.920348 311.8645 
L 21.920348 312.555652 
L 23.158412 312.555652 
L 23.158412 310.899165 
L 24.396475 310.899165 
L 24.396475 313.548974 
L 25.634539 313.548974 
L 25.634539 273.540931 
L 26.872602 273.540931 
L 26.872602 269.213763 
L 28.110666 269.213763 
L 28.110666 267.850909 
L 29.34873 267.850909 
L 29.34873 267.383421 
L 30.586793 267.383421 
L 30.586793 263.404674 
L 31.824857 263.404674 
L 31.824857 260.132259 
L 33.06292 260.132259 
L 33.06292 256.758804 
L 34.300984 256.758804 
L 34.300984 293.829098 
L 35.539047 293.829098 
L 35.539047 294.105891 
L 38.015174 294.153802 
L 38.015174 289.509282 
L 39.253238 289.509282 
L 39.253238 288.953088 
L 41.729365 288.962338 
L 41.729365 288.824535 
L 42.967428 288.824535 
L 42.967428 288.713296 
L 45.443555 288.731559 
L 45.443555 289.00005 
L 46.681619 289.00005 
L 46.681619 293.995126 
L 47.919682 293.995126 
L 47.919682 295.48938 
L 49.157746 295.48938 
L 49.157746 296.433843 
L 50.395809 296.433843 
L 50.395809 295.395929 
L 52.871936 295.427 
L 52.871936 295.544169 
L 54.11 295.544169 
L 54.11 295.684581 
L 56.586127 295.591843 
L 56.586127 294.589744 
L 57.824191 294.589744 
L 57.824191 293.315122 
L 59.062254 293.315122 
L 59.062254 294.151193 
L 60.300318 294.151193 
L 60.300318 293.584088 
L 61.538381 293.584088 
L 61.538381 292.57772 
L 62.776445 292.57772 
L 62.776445 292.050462 
L 65.252572 292.002077 
L 65.252572 291.262303 
L 66.490635 291.262303 
L 66.490635 290.619536 
L 67.728699 290.619536 
L 67.728699 289.607239 
L 68.966762 289.607239 
L 68.966762 288.223276 
L 70.204826 288.223276 
L 70.204826 287.062976 
L 71.442889 287.062976 
L 71.442889 285.813495 
L 73.919016 285.789303 
L 73.919016 284.041975 
L 75.15708 284.041975 
L 75.15708 282.606069 
L 76.395143 282.606069 
L 76.395143 281.272862 
L 77.633207 281.272862 
L 77.633207 279.814424 
L 78.87127 279.814424 
L 78.87127 278.530314 
L 80.109334 278.530314 
L 80.109334 278.416941 
L 81.347398 278.416941 
L 81.347398 278.285779 
L 82.585461 278.285779 
L 82.585461 278.008749 
L 83.823525 278.008749 
L 83.823525 277.281071 
L 85.061588 277.281071 
L 85.061588 276.297947 
L 86.299652 276.297947 
L 86.299652 275.464249 
L 87.537715 275.464249 
L 87.537715 274.549196 
L 88.775779 274.549196 
L 88.775779 273.866109 
L 91.251906 273.815352 
L 91.251906 272.401266 
L 92.489969 272.401266 
L 92.489969 271.496887 
L 93.728033 271.496887 
L 93.728033 270.438813 
L 94.966096 270.438813 
L 94.966096 269.454029 
L 97.442223 269.401374 
L 97.442223 269.210679 
L 98.680287 269.210679 
L 98.680287 269.033741 
L 99.91835 269.033741 
L 99.91835 268.84352 
L 101.156414 268.84352 
L 101.156414 268.439123 
L 102.394477 268.439123 
L 102.394477 269.02283 
L 106.108668 269.037773 
L 106.108668 269.932902 
L 107.346732 269.932902 
L 107.346732 270.295792 
L 108.584795 270.295792 
L 108.584795 275.573827 
L 109.822859 275.573827 
L 109.822859 275.348503 
L 111.060922 275.348503 
L 111.060922 274.983241 
L 112.298986 274.983241 
L 112.298986 274.867733 
L 113.537049 274.867733 
L 113.537049 274.59094 
L 114.775113 274.59094 
L 114.775113 273.576034 
L 116.013176 273.576034 
L 116.013176 273.304697 
L 117.25124 273.304697 
L 117.25124 267.799203 
L 118.489303 267.799203 
L 118.489303 268.070777 
L 120.96543 268.006738 
L 120.96543 267.71856 
L 122.203494 267.71856 
L 122.203494 268.101848 
L 123.441557 268.101848 
L 123.441557 267.397177 
L 124.679621 267.397177 
L 124.679621 264.95348 
L 125.917684 264.95348 
L 125.917684 264.749502 
L 127.155748 264.749502 
L 127.155748 263.155395 
L 128.393811 263.155395 
L 128.393811 261.083363 
L 129.631875 261.083363 
L 129.631875 258.740232 
L 130.869939 258.740232 
L 130.869939 255.51383 
L 132.108002 255.51383 
L 132.108002 254.079821 
L 133.346066 254.079821 
L 133.346066 252.942528 
L 134.584129 252.942528 
L 134.584129 250.662487 
L 135.822193 250.662487 
L 135.822193 249.243184 
L 137.060256 249.243184 
L 137.060256 248.724464 
L 138.29832 248.724464 
L 138.29832 247.996787 
L 139.536383 247.996787 
L 139.536383 247.636268 
L 140.774447 247.636268 
L 140.774447 246.979508 
L 142.01251 246.979508 
L 142.01251 247.340501 
L 143.250574 247.340501 
L 143.250574 245.611436 
L 144.488637 245.611436 
L 144.488637 242.893081 
L 145.726701 242.893081 
L 145.726701 241.029296 
L 146.964764 241.029296 
L 146.964764 238.480052 
L 148.202828 238.480052 
L 148.202828 235.719004 
L 149.440891 235.719004 
L 149.440891 233.937759 
L 150.678955 233.937759 
L 150.678955 232.861185 
L 151.917018 232.861185 
L 151.917018 230.479155 
L 153.155082 230.479155 
L 153.155082 229.673681 
L 154.393145 229.673681 
L 154.393145 228.156421 
L 155.631209 228.156421 
L 155.631209 226.033395 
L 156.869273 226.033395 
L 156.869273 224.243137 
L 158.107336 224.243137 
L 158.107336 223.264283 
L 159.3454 223.264283 
L 159.3454 222.556291 
L 160.583463 222.556291 
L 160.583463 221.048993 
L 161.821527 221.048993 
L 161.821527 218.659136 
L 163.05959 218.659136 
L 163.05959 215.240379 
L 164.297654 215.240379 
L 164.297654 213.346472 
L 165.535717 213.346472 
L 165.535717 210.493634 
L 166.773781 210.493634 
L 166.773781 209.276647 
L 168.011844 209.276647 
L 168.011844 208.698158 
L 169.249908 208.698158 
L 169.249908 205.560937 
L 170.487971 205.560937 
L 170.487971 203.754076 
L 171.726035 203.754076 
L 171.726035 202.733952 
L 172.964098 202.733952 
L 172.964098 200.36473 
L 174.202162 200.36473 
L 174.202162 198.638274 
L 175.440225 198.638274 
L 175.440225 195.676806 
L 177.916352 195.772865 
L 177.916352 192.542194 
L 179.154416 192.542194 
L 179.154416 187.313019 
L 180.39248 187.313019 
L 180.39248 182.226865 
L 181.630543 182.226865 
L 181.630543 179.213454 
L 182.868607 179.213454 
L 182.868607 175.395755 
L 184.10667 175.395755 
L 184.10667 173.660286 
L 185.344734 173.660286 
L 185.344734 173.497313 
L 186.582797 173.497313 
L 186.582797 172.083876 
L 187.820861 172.083876 
L 187.820861 171.852081 
L 189.058924 171.852081 
L 189.058924 165.927143 
L 190.296988 165.927143 
L 190.296988 163.064381 
L 191.535051 163.064381 
L 191.535051 158.470617 
L 192.773115 158.470617 
L 192.773115 155.550011 
L 194.011178 155.550011 
L 194.011178 147.837936 
L 195.249242 147.837936 
L 195.249242 143.524027 
L 196.487305 143.524027 
L 196.487305 138.578741 
L 197.725369 138.578741 
L 197.725369 136.124497 
L 198.963432 136.124497 
L 198.963432 131.960572 
L 200.201496 131.960572 
L 200.201496 131.960572 
" style="fill:none;stroke:#1f77b4;stroke-linecap:square;stroke-width:1.5;"/>
   </g>
   <g id="line2d_52">
    <path clip-path="url(#p4af4ae777d)" d="M 200.201496 132.661818 
L 205.15375 132.661818 
L 205.15375 106.036364 
L 242.295656 106.036364 
L 242.295656 79.410909 
L 267.056926 79.410909 
L 267.056926 319.04 
L 447.814201 319.04 
L 447.814201 319.04 
" style="fill:none;stroke:#ff7f0e;stroke-linecap:square;stroke-width:1.5;"/>
   </g>
   <g id="patch_3">
    <path d="M 54.11 319.04 
L 54.11 26.16 
" style="fill:none;stroke:#000000;stroke-linecap:square;stroke-linejoin:miter;stroke-width:0.8;"/>
   </g>
   <g id="patch_4">
    <path d="M 356.1975 319.04 
L 356.1975 26.16 
" style="fill:none;stroke:#000000;stroke-linecap:square;stroke-linejoin:miter;stroke-width:0.8;"/>
   </g>
   <g id="patch_5">
    <path d="M 54.11 319.04 
L 356.1975 319.04 
" style="fill:none;stroke:#000000;stroke-linecap:square;stroke-linejoin:miter;stroke-width:0.8;"/>
   </g>
   <g id="patch_6">
    <path d="M 54.11 26.16 
L 356.1975 26.16 
" style="fill:none;stroke:#000000;stroke-linecap:square;stroke-linejoin:miter;stroke-width:0.8;"/>
   </g>
   <g id="text_28">
    <!-- NSW daily vaccinations per capita -->
    <g transform="translate(102.885625 20.16)scale(0.12 -0.12)">
     <defs>
      <path d="M 213 4666 
L 850 4666 
L 1831 722 
L 2809 4666 
L 3519 4666 
L 4500 722 
L 5478 4666 
L 6119 4666 
L 4947 0 
L 4153 0 
L 3169 4050 
L 2175 0 
L 1381 0 
L 213 4666 
z
" id="DejaVuSans-57" transform="scale(0.015625)"/>
     </defs>
     <use xlink:href="#DejaVuSans-4e"/>
     <use x="74.804688" xlink:href="#DejaVuSans-53"/>
     <use x="138.28125" xlink:href="#DejaVuSans-57"/>
     <use x="237.158203" xlink:href="#DejaVuSans-20"/>
     <use x="268.945312" xlink:href="#DejaVuSans-64"/>
     <use x="332.421875" xlink:href="#DejaVuSans-61"/>
     <use x="393.701172" xlink:href="#DejaVuSans-69"/>
     <use x="421.484375" xlink:href="#DejaVuSans-6c"/>
     <use x="449.267578" xlink:href="#DejaVuSans-79"/>
     <use x="508.447266" xlink:href="#DejaVuSans-20"/>
     <use x="540.234375" xlink:href="#DejaVuSans-76"/>
     <use x="599.414062" xlink:href="#DejaVuSans-61"/>
     <use x="660.693359" xlink:href="#DejaVuSans-63"/>
     <use x="715.673828" xlink:href="#DejaVuSans-63"/>
     <use x="770.654297" xlink:href="#DejaVuSans-69"/>
     <use x="798.4375" xlink:href="#DejaVuSans-6e"/>
     <use x="861.816406" xlink:href="#DejaVuSans-61"/>
     <use x="923.095703" xlink:href="#DejaVuSans-74"/>
     <use x="962.304688" xlink:href="#DejaVuSans-69"/>
     <use x="990.087891" xlink:href="#DejaVuSans-6f"/>
     <use x="1051.269531" xlink:href="#DejaVuSans-6e"/>
     <use x="1114.648438" xlink:href="#DejaVuSans-73"/>
     <use x="1166.748047" xlink:href="#DejaVuSans-20"/>
     <use x="1198.535156" xlink:href="#DejaVuSans-70"/>
     <use x="1262.011719" xlink:href="#DejaVuSans-65"/>
     <use x="1323.535156" xlink:href="#DejaVuSans-72"/>
     <use x="1364.648438" xlink:href="#DejaVuSans-20"/>
     <use x="1396.435547" xlink:href="#DejaVuSans-63"/>
     <use x="1451.416016" xlink:href="#DejaVuSans-61"/>
     <use x="1512.695312" xlink:href="#DejaVuSans-70"/>
     <use x="1576.171875" xlink:href="#DejaVuSans-69"/>
     <use x="1603.955078" xlink:href="#DejaVuSans-74"/>
     <use x="1643.164062" xlink:href="#DejaVuSans-61"/>
    </g>
   </g>
   <g id="legend_1">
    <g id="patch_7">
     <path d="M 201.314687 63.51625 
L 349.1975 63.51625 
Q 351.1975 63.51625 351.1975 61.51625 
L 351.1975 33.16 
Q 351.1975 31.16 349.1975 31.16 
L 201.314687 31.16 
Q 199.314687 31.16 199.314687 33.16 
L 199.314687 61.51625 
Q 199.314687 63.51625 201.314687 63.51625 
z
" style="fill:#ffffff;opacity:0.8;stroke:#cccccc;stroke-linejoin:miter;"/>
    </g>
    <g id="line2d_53">
     <path d="M 203.314687 39.258437 
L 223.314687 39.258437 
" style="fill:none;stroke:#1f77b4;stroke-linecap:square;stroke-width:1.5;"/>
    </g>
    <g id="line2d_54"/>
    <g id="text_29">
     <!-- Actual -->
     <g transform="translate(231.314687 42.758437)scale(0.1 -0.1)">
      <use xlink:href="#DejaVuSans-41"/>
      <use x="66.658203" xlink:href="#DejaVuSans-63"/>
      <use x="121.638672" xlink:href="#DejaVuSans-74"/>
      <use x="160.847656" xlink:href="#DejaVuSans-75"/>
      <use x="224.226562" xlink:href="#DejaVuSans-61"/>
      <use x="285.505859" xlink:href="#DejaVuSans-6c"/>
     </g>
    </g>
    <g id="line2d_55">
     <path d="M 203.314687 53.936562 
L 223.314687 53.936562 
" style="fill:none;stroke:#ff7f0e;stroke-linecap:square;stroke-width:1.5;"/>
    </g>
    <g id="line2d_56"/>
    <g id="text_30">
     <!-- Assumed for projection -->
     <g transform="translate(231.314687 57.436562)scale(0.1 -0.1)">
      <defs>
       <path d="M 3328 2828 
Q 3544 3216 3844 3400 
Q 4144 3584 4550 3584 
Q 5097 3584 5394 3201 
Q 5691 2819 5691 2113 
L 5691 0 
L 5113 0 
L 5113 2094 
Q 5113 2597 4934 2840 
Q 4756 3084 4391 3084 
Q 3944 3084 3684 2787 
Q 3425 2491 3425 1978 
L 3425 0 
L 2847 0 
L 2847 2094 
Q 2847 2600 2669 2842 
Q 2491 3084 2119 3084 
Q 1678 3084 1418 2786 
Q 1159 2488 1159 1978 
L 1159 0 
L 581 0 
L 581 3500 
L 1159 3500 
L 1159 2956 
Q 1356 3278 1631 3431 
Q 1906 3584 2284 3584 
Q 2666 3584 2933 3390 
Q 3200 3197 3328 2828 
z
" id="DejaVuSans-6d" transform="scale(0.015625)"/>
       <path d="M 2375 4863 
L 2375 4384 
L 1825 4384 
Q 1516 4384 1395 4259 
Q 1275 4134 1275 3809 
L 1275 3500 
L 2222 3500 
L 2222 3053 
L 1275 3053 
L 1275 0 
L 697 0 
L 697 3053 
L 147 3053 
L 147 3500 
L 697 3500 
L 697 3744 
Q 697 4328 969 4595 
Q 1241 4863 1831 4863 
L 2375 4863 
z
" id="DejaVuSans-66" transform="scale(0.015625)"/>
       <path d="M 603 3500 
L 1178 3500 
L 1178 -63 
Q 1178 -731 923 -1031 
Q 669 -1331 103 -1331 
L -116 -1331 
L -116 -844 
L 38 -844 
Q 366 -844 484 -692 
Q 603 -541 603 -63 
L 603 3500 
z
M 603 4863 
L 1178 4863 
L 1178 4134 
L 603 4134 
L 603 4863 
z
" id="DejaVuSans-6a" transform="scale(0.015625)"/>
      </defs>
      <use xlink:href="#DejaVuSans-41"/>
      <use x="68.408203" xlink:href="#DejaVuSans-73"/>
      <use x="120.507812" xlink:href="#DejaVuSans-73"/>
      <use x="172.607422" xlink:href="#DejaVuSans-75"/>
      <use x="235.986328" xlink:href="#DejaVuSans-6d"/>
      <use x="333.398438" xlink:href="#DejaVuSans-65"/>
      <use x="394.921875" xlink:href="#DejaVuSans-64"/>
      <use x="458.398438" xlink:href="#DejaVuSans-20"/>
      <use x="490.185547" xlink:href="#DejaVuSans-66"/>
      <use x="525.390625" xlink:href="#DejaVuSans-6f"/>
      <use x="586.572266" xlink:href="#DejaVuSans-72"/>
      <use x="627.685547" xlink:href="#DejaVuSans-20"/>
      <use x="659.472656" xlink:href="#DejaVuSans-70"/>
      <use x="722.949219" xlink:href="#DejaVuSans-72"/>
      <use x="761.8125" xlink:href="#DejaVuSans-6f"/>
      <use x="822.994141" xlink:href="#DejaVuSans-6a"/>
      <use x="850.777344" xlink:href="#DejaVuSans-65"/>
      <use x="912.300781" xlink:href="#DejaVuSans-63"/>
      <use x="967.28125" xlink:href="#DejaVuSans-74"/>
      <use x="1006.490234" xlink:href="#DejaVuSans-69"/>
      <use x="1034.273438" xlink:href="#DejaVuSans-6f"/>
      <use x="1095.455078" xlink:href="#DejaVuSans-6e"/>
     </g>
    </g>
   </g>
  </g>
  <g id="axes_2">
   <g id="patch_8">
    <path d="M 407.1125 319.04 
L 709.2 319.04 
L 709.2 26.16 
L 407.1125 26.16 
z
" style="fill:#ffffff;"/>
   </g>
   <g id="matplotlib.axis_3">
    <g id="xtick_17">
     <g id="line2d_57">
      <path clip-path="url(#pb2eccd7ee2)" d="M 407.1125 319.04 
L 407.1125 26.16 
" style="fill:none;stroke:#000000;stroke-dasharray:0.8,1.32;stroke-dashoffset:0;stroke-opacity:0.5;stroke-width:0.8;"/>
     </g>
     <g id="line2d_58">
      <g>
       <use style="stroke:#000000;stroke-width:0.8;" x="407.1125" xlink:href="#m4214854cb8" y="319.04"/>
      </g>
     </g>
     <g id="text_31">
      <!-- May -->
      <g transform="translate(396.775 333.638438)scale(0.1 -0.1)">
       <use xlink:href="#DejaVuSans-4d"/>
       <use x="86.279297" xlink:href="#DejaVuSans-61"/>
       <use x="147.558594" xlink:href="#DejaVuSans-79"/>
      </g>
     </g>
    </g>
    <g id="xtick_18">
     <g id="line2d_59">
      <path clip-path="url(#pb2eccd7ee2)" d="M 424.445389 319.04 
L 424.445389 26.16 
" style="fill:none;stroke:#000000;stroke-dasharray:0.8,1.32;stroke-dashoffset:0;stroke-opacity:0.5;stroke-width:0.8;"/>
     </g>
     <g id="line2d_60">
      <g>
       <use style="stroke:#000000;stroke-width:0.8;" x="424.445389" xlink:href="#m4214854cb8" y="319.04"/>
      </g>
     </g>
     <g id="text_32">
      <!-- 15 -->
      <g transform="translate(418.082889 333.638438)scale(0.1 -0.1)">
       <use xlink:href="#DejaVuSans-31"/>
       <use x="63.623047" xlink:href="#DejaVuSans-35"/>
      </g>
     </g>
    </g>
    <g id="xtick_19">
     <g id="line2d_61">
      <path clip-path="url(#pb2eccd7ee2)" d="M 445.492469 319.04 
L 445.492469 26.16 
" style="fill:none;stroke:#000000;stroke-dasharray:0.8,1.32;stroke-dashoffset:0;stroke-opacity:0.5;stroke-width:0.8;"/>
     </g>
     <g id="line2d_62">
      <g>
       <use style="stroke:#000000;stroke-width:0.8;" x="445.492469" xlink:href="#m4214854cb8" y="319.04"/>
      </g>
     </g>
     <g id="text_33">
      <!-- Jun -->
      <g transform="translate(437.679969 333.638438)scale(0.1 -0.1)">
       <use xlink:href="#DejaVuSans-4a"/>
       <use x="29.492188" xlink:href="#DejaVuSans-75"/>
       <use x="92.871094" xlink:href="#DejaVuSans-6e"/>
      </g>
     </g>
    </g>
    <g id="xtick_20">
     <g id="line2d_63">
      <path clip-path="url(#pb2eccd7ee2)" d="M 462.825359 319.04 
L 462.825359 26.16 
" style="fill:none;stroke:#000000;stroke-dasharray:0.8,1.32;stroke-dashoffset:0;stroke-opacity:0.5;stroke-width:0.8;"/>
     </g>
     <g id="line2d_64">
      <g>
       <use style="stroke:#000000;stroke-width:0.8;" x="462.825359" xlink:href="#m4214854cb8" y="319.04"/>
      </g>
     </g>
     <g id="text_34">
      <!-- 15 -->
      <g transform="translate(456.462859 333.638438)scale(0.1 -0.1)">
       <use xlink:href="#DejaVuSans-31"/>
       <use x="63.623047" xlink:href="#DejaVuSans-35"/>
      </g>
     </g>
    </g>
    <g id="xtick_21">
     <g id="line2d_65">
      <path clip-path="url(#pb2eccd7ee2)" d="M 482.634375 319.04 
L 482.634375 26.16 
" style="fill:none;stroke:#000000;stroke-dasharray:0.8,1.32;stroke-dashoffset:0;stroke-opacity:0.5;stroke-width:0.8;"/>
     </g>
     <g id="line2d_66">
      <g>
       <use style="stroke:#000000;stroke-width:0.8;" x="482.634375" xlink:href="#m4214854cb8" y="319.04"/>
      </g>
     </g>
     <g id="text_35">
      <!-- Jul -->
      <g transform="translate(476.601563 333.638438)scale(0.1 -0.1)">
       <use xlink:href="#DejaVuSans-4a"/>
       <use x="29.492188" xlink:href="#DejaVuSans-75"/>
       <use x="92.871094" xlink:href="#DejaVuSans-6c"/>
      </g>
     </g>
    </g>
    <g id="xtick_22">
     <g id="line2d_67">
      <path clip-path="url(#pb2eccd7ee2)" d="M 499.967264 319.04 
L 499.967264 26.16 
" style="fill:none;stroke:#000000;stroke-dasharray:0.8,1.32;stroke-dashoffset:0;stroke-opacity:0.5;stroke-width:0.8;"/>
     </g>
     <g id="line2d_68">
      <g>
       <use style="stroke:#000000;stroke-width:0.8;" x="499.967264" xlink:href="#m4214854cb8" y="319.04"/>
      </g>
     </g>
     <g id="text_36">
      <!-- 15 -->
      <g transform="translate(493.604764 333.638438)scale(0.1 -0.1)">
       <use xlink:href="#DejaVuSans-31"/>
       <use x="63.623047" xlink:href="#DejaVuSans-35"/>
      </g>
     </g>
    </g>
    <g id="xtick_23">
     <g id="line2d_69">
      <path clip-path="url(#pb2eccd7ee2)" d="M 521.014344 319.04 
L 521.014344 26.16 
" style="fill:none;stroke:#000000;stroke-dasharray:0.8,1.32;stroke-dashoffset:0;stroke-opacity:0.5;stroke-width:0.8;"/>
     </g>
     <g id="line2d_70">
      <g>
       <use style="stroke:#000000;stroke-width:0.8;" x="521.014344" xlink:href="#m4214854cb8" y="319.04"/>
      </g>
     </g>
     <g id="text_37">
      <!-- Aug -->
      <g transform="translate(511.251063 333.638438)scale(0.1 -0.1)">
       <use xlink:href="#DejaVuSans-41"/>
       <use x="68.408203" xlink:href="#DejaVuSans-75"/>
       <use x="131.787109" xlink:href="#DejaVuSans-67"/>
      </g>
     </g>
    </g>
    <g id="xtick_24">
     <g id="line2d_71">
      <path clip-path="url(#pb2eccd7ee2)" d="M 538.347234 319.04 
L 538.347234 26.16 
" style="fill:none;stroke:#000000;stroke-dasharray:0.8,1.32;stroke-dashoffset:0;stroke-opacity:0.5;stroke-width:0.8;"/>
     </g>
     <g id="line2d_72">
      <g>
       <use style="stroke:#000000;stroke-width:0.8;" x="538.347234" xlink:href="#m4214854cb8" y="319.04"/>
      </g>
     </g>
     <g id="text_38">
      <!-- 15 -->
      <g transform="translate(531.984734 333.638438)scale(0.1 -0.1)">
       <use xlink:href="#DejaVuSans-31"/>
       <use x="63.623047" xlink:href="#DejaVuSans-35"/>
      </g>
     </g>
    </g>
    <g id="xtick_25">
     <g id="line2d_73">
      <path clip-path="url(#pb2eccd7ee2)" d="M 559.394314 319.04 
L 559.394314 26.16 
" style="fill:none;stroke:#000000;stroke-dasharray:0.8,1.32;stroke-dashoffset:0;stroke-opacity:0.5;stroke-width:0.8;"/>
     </g>
     <g id="line2d_74">
      <g>
       <use style="stroke:#000000;stroke-width:0.8;" x="559.394314" xlink:href="#m4214854cb8" y="319.04"/>
      </g>
     </g>
     <g id="text_39">
      <!-- Sep -->
      <g transform="translate(549.969314 333.638438)scale(0.1 -0.1)">
       <use xlink:href="#DejaVuSans-53"/>
       <use x="63.476562" xlink:href="#DejaVuSans-65"/>
       <use x="125" xlink:href="#DejaVuSans-70"/>
      </g>
     </g>
    </g>
    <g id="xtick_26">
     <g id="line2d_75">
      <path clip-path="url(#pb2eccd7ee2)" d="M 576.727203 319.04 
L 576.727203 26.16 
" style="fill:none;stroke:#000000;stroke-dasharray:0.8,1.32;stroke-dashoffset:0;stroke-opacity:0.5;stroke-width:0.8;"/>
     </g>
     <g id="line2d_76">
      <g>
       <use style="stroke:#000000;stroke-width:0.8;" x="576.727203" xlink:href="#m4214854cb8" y="319.04"/>
      </g>
     </g>
     <g id="text_40">
      <!-- 15 -->
      <g transform="translate(570.364703 333.638438)scale(0.1 -0.1)">
       <use xlink:href="#DejaVuSans-31"/>
       <use x="63.623047" xlink:href="#DejaVuSans-35"/>
      </g>
     </g>
    </g>
    <g id="xtick_27">
     <g id="line2d_77">
      <path clip-path="url(#pb2eccd7ee2)" d="M 596.536219 319.04 
L 596.536219 26.16 
" style="fill:none;stroke:#000000;stroke-dasharray:0.8,1.32;stroke-dashoffset:0;stroke-opacity:0.5;stroke-width:0.8;"/>
     </g>
     <g id="line2d_78">
      <g>
       <use style="stroke:#000000;stroke-width:0.8;" x="596.536219" xlink:href="#m4214854cb8" y="319.04"/>
      </g>
     </g>
     <g id="text_41">
      <!-- Oct -->
      <g transform="translate(587.890907 333.638438)scale(0.1 -0.1)">
       <use xlink:href="#DejaVuSans-4f"/>
       <use x="78.710938" xlink:href="#DejaVuSans-63"/>
       <use x="133.691406" xlink:href="#DejaVuSans-74"/>
      </g>
     </g>
    </g>
    <g id="xtick_28">
     <g id="line2d_79">
      <path clip-path="url(#pb2eccd7ee2)" d="M 613.869109 319.04 
L 613.869109 26.16 
" style="fill:none;stroke:#000000;stroke-dasharray:0.8,1.32;stroke-dashoffset:0;stroke-opacity:0.5;stroke-width:0.8;"/>
     </g>
     <g id="line2d_80">
      <g>
       <use style="stroke:#000000;stroke-width:0.8;" x="613.869109" xlink:href="#m4214854cb8" y="319.04"/>
      </g>
     </g>
     <g id="text_42">
      <!-- 15 -->
      <g transform="translate(607.506609 333.638438)scale(0.1 -0.1)">
       <use xlink:href="#DejaVuSans-31"/>
       <use x="63.623047" xlink:href="#DejaVuSans-35"/>
      </g>
     </g>
    </g>
    <g id="xtick_29">
     <g id="line2d_81">
      <path clip-path="url(#pb2eccd7ee2)" d="M 634.916189 319.04 
L 634.916189 26.16 
" style="fill:none;stroke:#000000;stroke-dasharray:0.8,1.32;stroke-dashoffset:0;stroke-opacity:0.5;stroke-width:0.8;"/>
     </g>
     <g id="line2d_82">
      <g>
       <use style="stroke:#000000;stroke-width:0.8;" x="634.916189" xlink:href="#m4214854cb8" y="319.04"/>
      </g>
     </g>
     <g id="text_43">
      <!-- Nov -->
      <g transform="translate(625.156814 333.638438)scale(0.1 -0.1)">
       <use xlink:href="#DejaVuSans-4e"/>
       <use x="74.804688" xlink:href="#DejaVuSans-6f"/>
       <use x="135.986328" xlink:href="#DejaVuSans-76"/>
      </g>
     </g>
    </g>
    <g id="xtick_30">
     <g id="line2d_83">
      <path clip-path="url(#pb2eccd7ee2)" d="M 652.249078 319.04 
L 652.249078 26.16 
" style="fill:none;stroke:#000000;stroke-dasharray:0.8,1.32;stroke-dashoffset:0;stroke-opacity:0.5;stroke-width:0.8;"/>
     </g>
     <g id="line2d_84">
      <g>
       <use style="stroke:#000000;stroke-width:0.8;" x="652.249078" xlink:href="#m4214854cb8" y="319.04"/>
      </g>
     </g>
     <g id="text_44">
      <!-- 15 -->
      <g transform="translate(645.886578 333.638438)scale(0.1 -0.1)">
       <use xlink:href="#DejaVuSans-31"/>
       <use x="63.623047" xlink:href="#DejaVuSans-35"/>
      </g>
     </g>
    </g>
    <g id="xtick_31">
     <g id="line2d_85">
      <path clip-path="url(#pb2eccd7ee2)" d="M 672.058094 319.04 
L 672.058094 26.16 
" style="fill:none;stroke:#000000;stroke-dasharray:0.8,1.32;stroke-dashoffset:0;stroke-opacity:0.5;stroke-width:0.8;"/>
     </g>
     <g id="line2d_86">
      <g>
       <use style="stroke:#000000;stroke-width:0.8;" x="672.058094" xlink:href="#m4214854cb8" y="319.04"/>
      </g>
     </g>
     <g id="text_45">
      <!-- Dec -->
      <g transform="translate(662.382313 333.638438)scale(0.1 -0.1)">
       <use xlink:href="#DejaVuSans-44"/>
       <use x="77.001953" xlink:href="#DejaVuSans-65"/>
       <use x="138.525391" xlink:href="#DejaVuSans-63"/>
      </g>
     </g>
    </g>
    <g id="xtick_32">
     <g id="line2d_87">
      <path clip-path="url(#pb2eccd7ee2)" d="M 689.390984 319.04 
L 689.390984 26.16 
" style="fill:none;stroke:#000000;stroke-dasharray:0.8,1.32;stroke-dashoffset:0;stroke-opacity:0.5;stroke-width:0.8;"/>
     </g>
     <g id="line2d_88">
      <g>
       <use style="stroke:#000000;stroke-width:0.8;" x="689.390984" xlink:href="#m4214854cb8" y="319.04"/>
      </g>
     </g>
     <g id="text_46">
      <!-- 15 -->
      <g transform="translate(683.028484 333.638438)scale(0.1 -0.1)">
       <use xlink:href="#DejaVuSans-31"/>
       <use x="63.623047" xlink:href="#DejaVuSans-35"/>
      </g>
     </g>
    </g>
    <g id="text_47">
     <!-- 2021-Dec -->
     <g transform="translate(660.790625 346.316563)scale(0.1 -0.1)">
      <use xlink:href="#DejaVuSans-32"/>
      <use x="63.623047" xlink:href="#DejaVuSans-30"/>
      <use x="127.246094" xlink:href="#DejaVuSans-32"/>
      <use x="190.869141" xlink:href="#DejaVuSans-31"/>
      <use x="254.492188" xlink:href="#DejaVuSans-2d"/>
      <use x="290.576172" xlink:href="#DejaVuSans-44"/>
      <use x="367.578125" xlink:href="#DejaVuSans-65"/>
      <use x="429.101562" xlink:href="#DejaVuSans-63"/>
     </g>
    </g>
   </g>
   <g id="matplotlib.axis_4">
    <g id="ytick_10">
     <g id="line2d_89">
      <path clip-path="url(#pb2eccd7ee2)" d="M 407.1125 319.04 
L 709.2 319.04 
" style="fill:none;stroke:#000000;stroke-dasharray:0.8,1.32;stroke-dashoffset:0;stroke-opacity:0.5;stroke-width:0.8;"/>
     </g>
     <g id="line2d_90">
      <g>
       <use style="stroke:#000000;stroke-width:0.8;" x="407.1125" xlink:href="#md337b20ef1" y="319.04"/>
      </g>
     </g>
     <g id="text_48">
      <!-- 0 -->
      <g transform="translate(393.75 322.839219)scale(0.1 -0.1)">
       <use xlink:href="#DejaVuSans-30"/>
      </g>
     </g>
    </g>
    <g id="ytick_11">
     <g id="line2d_91">
      <path clip-path="url(#pb2eccd7ee2)" d="M 407.1125 282.43 
L 709.2 282.43 
" style="fill:none;stroke:#000000;stroke-dasharray:0.8,1.32;stroke-dashoffset:0;stroke-opacity:0.5;stroke-width:0.8;"/>
     </g>
     <g id="line2d_92">
      <g>
       <use style="stroke:#000000;stroke-width:0.8;" x="407.1125" xlink:href="#md337b20ef1" y="282.43"/>
      </g>
     </g>
     <g id="text_49">
      <!-- 25 -->
      <g transform="translate(387.3875 286.229219)scale(0.1 -0.1)">
       <use xlink:href="#DejaVuSans-32"/>
       <use x="63.623047" xlink:href="#DejaVuSans-35"/>
      </g>
     </g>
    </g>
    <g id="ytick_12">
     <g id="line2d_93">
      <path clip-path="url(#pb2eccd7ee2)" d="M 407.1125 245.82 
L 709.2 245.82 
" style="fill:none;stroke:#000000;stroke-dasharray:0.8,1.32;stroke-dashoffset:0;stroke-opacity:0.5;stroke-width:0.8;"/>
     </g>
     <g id="line2d_94">
      <g>
       <use style="stroke:#000000;stroke-width:0.8;" x="407.1125" xlink:href="#md337b20ef1" y="245.82"/>
      </g>
     </g>
     <g id="text_50">
      <!-- 50 -->
      <g transform="translate(387.3875 249.619219)scale(0.1 -0.1)">
       <use xlink:href="#DejaVuSans-35"/>
       <use x="63.623047" xlink:href="#DejaVuSans-30"/>
      </g>
     </g>
    </g>
    <g id="ytick_13">
     <g id="line2d_95">
      <path clip-path="url(#pb2eccd7ee2)" d="M 407.1125 209.21 
L 709.2 209.21 
" style="fill:none;stroke:#000000;stroke-dasharray:0.8,1.32;stroke-dashoffset:0;stroke-opacity:0.5;stroke-width:0.8;"/>
     </g>
     <g id="line2d_96">
      <g>
       <use style="stroke:#000000;stroke-width:0.8;" x="407.1125" xlink:href="#md337b20ef1" y="209.21"/>
      </g>
     </g>
     <g id="text_51">
      <!-- 75 -->
      <g transform="translate(387.3875 213.009219)scale(0.1 -0.1)">
       <use xlink:href="#DejaVuSans-37"/>
       <use x="63.623047" xlink:href="#DejaVuSans-35"/>
      </g>
     </g>
    </g>
    <g id="ytick_14">
     <g id="line2d_97">
      <path clip-path="url(#pb2eccd7ee2)" d="M 407.1125 172.6 
L 709.2 172.6 
" style="fill:none;stroke:#000000;stroke-dasharray:0.8,1.32;stroke-dashoffset:0;stroke-opacity:0.5;stroke-width:0.8;"/>
     </g>
     <g id="line2d_98">
      <g>
       <use style="stroke:#000000;stroke-width:0.8;" x="407.1125" xlink:href="#md337b20ef1" y="172.6"/>
      </g>
     </g>
     <g id="text_52">
      <!-- 100 -->
      <g transform="translate(381.025 176.399219)scale(0.1 -0.1)">
       <use xlink:href="#DejaVuSans-31"/>
       <use x="63.623047" xlink:href="#DejaVuSans-30"/>
       <use x="127.246094" xlink:href="#DejaVuSans-30"/>
      </g>
     </g>
    </g>
    <g id="ytick_15">
     <g id="line2d_99">
      <path clip-path="url(#pb2eccd7ee2)" d="M 407.1125 135.99 
L 709.2 135.99 
" style="fill:none;stroke:#000000;stroke-dasharray:0.8,1.32;stroke-dashoffset:0;stroke-opacity:0.5;stroke-width:0.8;"/>
     </g>
     <g id="line2d_100">
      <g>
       <use style="stroke:#000000;stroke-width:0.8;" x="407.1125" xlink:href="#md337b20ef1" y="135.99"/>
      </g>
     </g>
     <g id="text_53">
      <!-- 125 -->
      <g transform="translate(381.025 139.789219)scale(0.1 -0.1)">
       <use xlink:href="#DejaVuSans-31"/>
       <use x="63.623047" xlink:href="#DejaVuSans-32"/>
       <use x="127.246094" xlink:href="#DejaVuSans-35"/>
      </g>
     </g>
    </g>
    <g id="ytick_16">
     <g id="line2d_101">
      <path clip-path="url(#pb2eccd7ee2)" d="M 407.1125 99.38 
L 709.2 99.38 
" style="fill:none;stroke:#000000;stroke-dasharray:0.8,1.32;stroke-dashoffset:0;stroke-opacity:0.5;stroke-width:0.8;"/>
     </g>
     <g id="line2d_102">
      <g>
       <use style="stroke:#000000;stroke-width:0.8;" x="407.1125" xlink:href="#md337b20ef1" y="99.38"/>
      </g>
     </g>
     <g id="text_54">
      <!-- 150 -->
      <g transform="translate(381.025 103.179219)scale(0.1 -0.1)">
       <use xlink:href="#DejaVuSans-31"/>
       <use x="63.623047" xlink:href="#DejaVuSans-35"/>
       <use x="127.246094" xlink:href="#DejaVuSans-30"/>
      </g>
     </g>
    </g>
    <g id="ytick_17">
     <g id="line2d_103">
      <path clip-path="url(#pb2eccd7ee2)" d="M 407.1125 62.77 
L 709.2 62.77 
" style="fill:none;stroke:#000000;stroke-dasharray:0.8,1.32;stroke-dashoffset:0;stroke-opacity:0.5;stroke-width:0.8;"/>
     </g>
     <g id="line2d_104">
      <g>
       <use style="stroke:#000000;stroke-width:0.8;" x="407.1125" xlink:href="#md337b20ef1" y="62.77"/>
      </g>
     </g>
     <g id="text_55">
      <!-- 175 -->
      <g transform="translate(381.025 66.569219)scale(0.1 -0.1)">
       <use xlink:href="#DejaVuSans-31"/>
       <use x="63.623047" xlink:href="#DejaVuSans-37"/>
       <use x="127.246094" xlink:href="#DejaVuSans-35"/>
      </g>
     </g>
    </g>
    <g id="ytick_18">
     <g id="line2d_105">
      <path clip-path="url(#pb2eccd7ee2)" d="M 407.1125 26.16 
L 709.2 26.16 
" style="fill:none;stroke:#000000;stroke-dasharray:0.8,1.32;stroke-dashoffset:0;stroke-opacity:0.5;stroke-width:0.8;"/>
     </g>
     <g id="line2d_106">
      <g>
       <use style="stroke:#000000;stroke-width:0.8;" x="407.1125" xlink:href="#md337b20ef1" y="26.16"/>
      </g>
     </g>
     <g id="text_56">
      <!-- 200 -->
      <g transform="translate(381.025 29.959219)scale(0.1 -0.1)">
       <use xlink:href="#DejaVuSans-32"/>
       <use x="63.623047" xlink:href="#DejaVuSans-30"/>
       <use x="127.246094" xlink:href="#DejaVuSans-30"/>
      </g>
     </g>
    </g>
    <g id="text_57">
     <!-- cumulative doses per hundred population -->
     <g transform="translate(374.945313 277.058594)rotate(-90)scale(0.1 -0.1)">
      <use xlink:href="#DejaVuSans-63"/>
      <use x="54.980469" xlink:href="#DejaVuSans-75"/>
      <use x="118.359375" xlink:href="#DejaVuSans-6d"/>
      <use x="215.771484" xlink:href="#DejaVuSans-75"/>
      <use x="279.150391" xlink:href="#DejaVuSans-6c"/>
      <use x="306.933594" xlink:href="#DejaVuSans-61"/>
      <use x="368.212891" xlink:href="#DejaVuSans-74"/>
      <use x="407.421875" xlink:href="#DejaVuSans-69"/>
      <use x="435.205078" xlink:href="#DejaVuSans-76"/>
      <use x="494.384766" xlink:href="#DejaVuSans-65"/>
      <use x="555.908203" xlink:href="#DejaVuSans-20"/>
      <use x="587.695312" xlink:href="#DejaVuSans-64"/>
      <use x="651.171875" xlink:href="#DejaVuSans-6f"/>
      <use x="712.353516" xlink:href="#DejaVuSans-73"/>
      <use x="764.453125" xlink:href="#DejaVuSans-65"/>
      <use x="825.976562" xlink:href="#DejaVuSans-73"/>
      <use x="878.076172" xlink:href="#DejaVuSans-20"/>
      <use x="909.863281" xlink:href="#DejaVuSans-70"/>
      <use x="973.339844" xlink:href="#DejaVuSans-65"/>
      <use x="1034.863281" xlink:href="#DejaVuSans-72"/>
      <use x="1075.976562" xlink:href="#DejaVuSans-20"/>
      <use x="1107.763672" xlink:href="#DejaVuSans-68"/>
      <use x="1171.142578" xlink:href="#DejaVuSans-75"/>
      <use x="1234.521484" xlink:href="#DejaVuSans-6e"/>
      <use x="1297.900391" xlink:href="#DejaVuSans-64"/>
      <use x="1361.376953" xlink:href="#DejaVuSans-72"/>
      <use x="1400.240234" xlink:href="#DejaVuSans-65"/>
      <use x="1461.763672" xlink:href="#DejaVuSans-64"/>
      <use x="1525.240234" xlink:href="#DejaVuSans-20"/>
      <use x="1557.027344" xlink:href="#DejaVuSans-70"/>
      <use x="1620.503906" xlink:href="#DejaVuSans-6f"/>
      <use x="1681.685547" xlink:href="#DejaVuSans-70"/>
      <use x="1745.162109" xlink:href="#DejaVuSans-75"/>
      <use x="1808.541016" xlink:href="#DejaVuSans-6c"/>
      <use x="1836.324219" xlink:href="#DejaVuSans-61"/>
      <use x="1897.603516" xlink:href="#DejaVuSans-74"/>
      <use x="1936.8125" xlink:href="#DejaVuSans-69"/>
      <use x="1964.595703" xlink:href="#DejaVuSans-6f"/>
      <use x="2025.777344" xlink:href="#DejaVuSans-6e"/>
     </g>
    </g>
   </g>
   <g id="line2d_107">
    <path clip-path="url(#pb2eccd7ee2)" d="M 314.257736 319.04 
L 326.638371 318.939553 
L 326.638371 318.903027 
L 332.828689 318.813099 
L 332.828689 318.773359 
L 339.019006 318.676674 
L 339.019006 318.64254 
L 342.733197 318.546896 
L 342.733197 318.468128 
L 347.685451 318.367553 
L 347.685451 318.354166 
L 350.161578 318.283104 
L 350.161578 318.184922 
L 356.351895 318.097496 
L 356.351895 317.855017 
L 357.589959 317.855017 
L 357.589959 317.707835 
L 361.30415 317.707835 
L 361.30415 317.411005 
L 362.542213 317.411005 
L 362.542213 317.281757 
L 368.732531 317.21369 
L 368.732531 316.895912 
L 369.970594 316.895912 
L 369.970594 316.768874 
L 376.160912 316.714395 
L 376.160912 316.586846 
L 377.398975 316.586846 
L 377.398975 316.473103 
L 378.637039 316.473103 
L 378.637039 313.265446 
L 379.875102 313.265446 
L 379.875102 312.916931 
L 381.113166 312.916931 
L 381.113166 312.788268 
L 383.589293 312.751687 
L 383.589293 312.430475 
L 384.827357 312.430475 
L 384.827357 312.05095 
L 386.06542 312.05095 
L 386.06542 311.677451 
L 387.303484 311.677451 
L 387.303484 311.324206 
L 388.541547 311.324206 
L 388.541547 310.997005 
L 389.779611 310.997005 
L 389.779611 310.87203 
L 391.017674 310.87203 
L 391.017674 310.477821 
L 392.255738 310.477821 
L 392.255738 310.113783 
L 393.493801 310.113783 
L 393.493801 309.73497 
L 394.731865 309.73497 
L 394.731865 309.35086 
L 395.969928 309.35086 
L 395.969928 308.98905 
L 397.207992 308.98905 
L 397.207992 308.663255 
L 399.684119 308.558954 
L 399.684119 308.549366 
L 400.922182 308.549366 
L 400.922182 308.300385 
L 402.160246 308.300385 
L 402.160246 307.994296 
L 403.398309 307.994296 
L 403.398309 307.530267 
L 404.636373 307.530267 
L 404.636373 307.170849 
L 405.874436 307.170849 
L 405.874436 306.854076 
L 409.588627 306.743858 
L 409.588627 306.417716 
L 410.826691 306.417716 
L 410.826691 306.01348 
L 412.064754 306.01348 
L 412.064754 305.613829 
L 413.302818 305.613829 
L 413.302818 305.210744 
L 414.540881 305.210744 
L 414.540881 304.81648 
L 415.778945 304.81648 
L 415.778945 304.682393 
L 418.255072 304.661938 
L 418.255072 304.278833 
L 419.493135 304.278833 
L 419.493135 303.825104 
L 420.731199 303.825104 
L 420.731199 303.347506 
L 421.969262 303.347506 
L 421.969262 302.837856 
L 423.207326 302.837856 
L 423.207326 302.354249 
L 424.445389 302.354249 
L 424.445389 302.123952 
L 426.921516 302.101634 
L 426.921516 301.583985 
L 428.15958 301.583985 
L 428.15958 301.019692 
L 429.397643 301.019692 
L 429.397643 300.439437 
L 430.635707 300.439437 
L 430.635707 299.817487 
L 431.87377 299.817487 
L 431.87377 299.235004 
L 433.111834 299.235004 
L 433.111834 298.995976 
L 435.587961 298.963559 
L 435.587961 298.424579 
L 436.826025 298.424579 
L 436.826025 297.804254 
L 438.064088 297.804254 
L 438.064088 297.148299 
L 439.302152 297.148299 
L 439.302152 296.462154 
L 440.540215 296.462154 
L 440.540215 295.809212 
L 441.778279 295.809212 
L 441.778279 295.517587 
L 444.254406 295.481261 
L 444.254406 294.833396 
L 445.492469 294.833396 
L 445.492469 294.143435 
L 446.730533 294.143435 
L 446.730533 293.406007 
L 447.968596 293.406007 
L 447.968596 292.644034 
L 449.20666 292.644034 
L 449.20666 291.987038 
L 450.444723 291.987038 
L 450.444723 291.680729 
L 452.92085 291.630779 
L 452.92085 290.968267 
L 454.158914 290.968267 
L 454.158914 290.247167 
L 455.396977 290.247167 
L 455.396977 289.554685 
L 456.635041 289.554685 
L 456.635041 288.800346 
L 457.873105 288.800346 
L 457.873105 288.136866 
L 459.111168 288.136866 
L 459.111168 287.899482 
L 461.587295 287.877475 
L 461.587295 287.621372 
L 462.825359 287.621372 
L 462.825359 286.882922 
L 464.063422 286.882922 
L 464.063422 286.162315 
L 465.301486 286.162315 
L 465.301486 285.399082 
L 466.539549 285.399082 
L 466.539549 284.714288 
L 467.777613 284.714288 
L 467.777613 284.398757 
L 470.25374 284.355857 
L 470.25374 283.67583 
L 471.491803 283.67583 
L 471.491803 282.958292 
L 472.729867 282.958292 
L 472.729867 282.232753 
L 473.96793 282.232753 
L 473.96793 281.447331 
L 475.205994 281.447331 
L 475.205994 280.792051 
L 476.444057 280.792051 
L 476.444057 280.42226 
L 477.682121 280.42226 
L 477.682121 280.191195 
L 478.920184 280.191195 
L 478.920184 279.495462 
L 480.158248 279.495462 
L 480.158248 278.655177 
L 481.396311 278.655177 
L 481.396311 277.770092 
L 482.634375 277.770092 
L 482.634375 276.804249 
L 483.872439 276.804249 
L 483.872439 275.900536 
L 485.110502 275.900536 
L 485.110502 275.420326 
L 486.348566 275.420326 
L 486.348566 275.10169 
L 487.586629 275.10169 
L 487.586629 274.230394 
L 488.824693 274.230394 
L 488.824693 273.280822 
L 490.062756 273.280822 
L 490.062756 272.355796 
L 491.30082 272.355796 
L 491.30082 271.333921 
L 492.538883 271.333921 
L 492.538883 270.402448 
L 493.776947 270.402448 
L 493.776947 269.871668 
L 495.01501 269.871668 
L 495.01501 269.580828 
L 496.253074 269.580828 
L 496.253074 268.576394 
L 497.491137 268.576394 
L 497.491137 267.417509 
L 498.729201 267.417509 
L 498.729201 266.348972 
L 499.967264 266.348972 
L 499.967264 265.130805 
L 501.205328 265.130805 
L 501.205328 263.986732 
L 502.443391 263.986732 
L 502.443391 263.318795 
L 503.681455 263.318795 
L 503.681455 262.945059 
L 504.919518 262.945059 
L 504.919518 261.757209 
L 506.157582 261.757209 
L 506.157582 260.536303 
L 507.395645 260.536303 
L 507.395645 259.350936 
L 508.633709 259.350936 
L 508.633709 257.969297 
L 509.871773 257.969297 
L 509.871773 256.687373 
L 511.109836 256.687373 
L 511.109836 255.944065 
L 512.3479 255.944065 
L 512.3479 255.515814 
L 513.585963 255.515814 
L 513.585963 254.211902 
L 514.824027 254.211902 
L 514.824027 252.806976 
L 516.06209 252.806976 
L 516.06209 251.358366 
L 517.300154 251.358366 
L 517.300154 249.830895 
L 518.538217 249.830895 
L 518.538217 248.329303 
L 519.776281 248.329303 
L 519.776281 247.492287 
L 521.014344 247.492287 
L 521.014344 247.019492 
L 522.252408 247.019492 
L 522.252408 245.474014 
L 523.490471 245.474014 
L 523.490471 243.92996 
L 524.728535 243.92996 
L 524.728535 242.4028 
L 525.966598 242.4028 
L 525.966598 240.692899 
L 527.204662 240.692899 
L 527.204662 239.05837 
L 528.442725 239.05837 
L 528.442725 237.993321 
L 529.680789 237.993321 
L 529.680789 237.527923 
L 530.918852 237.527923 
L 530.918852 235.733683 
L 532.156916 235.733683 
L 532.156916 233.786983 
L 533.39498 233.786983 
L 533.39498 231.868189 
L 534.633043 231.868189 
L 534.633043 229.926255 
L 535.871107 229.926255 
L 535.871107 227.997763 
L 537.10917 227.997763 
L 537.10917 226.799083 
L 538.347234 226.799083 
L 538.347234 226.321136 
L 539.585297 226.321136 
L 539.585297 224.418061 
L 540.823361 224.418061 
L 540.823361 222.453513 
L 542.061424 222.453513 
L 542.061424 220.078498 
L 543.299488 220.078498 
L 543.299488 217.916132 
L 544.537551 217.916132 
L 544.537551 215.633921 
L 545.775615 215.633921 
L 545.775615 214.210354 
L 547.013678 214.210354 
L 547.013678 213.138577 
L 548.251742 213.138577 
L 548.251742 210.903331 
L 549.489805 210.903331 
L 549.489805 208.557996 
L 550.727869 208.557996 
L 550.727869 205.994005 
L 551.965932 205.994005 
L 551.965932 203.511016 
L 553.203996 203.511016 
L 553.203996 203.511016 
" style="fill:none;stroke:#1f77b4;stroke-linecap:square;stroke-width:1.5;"/>
   </g>
   <g id="line2d_108">
    <path clip-path="url(#pb2eccd7ee2)" d="M 553.203996 201.460856 
L 553.203996 199.410696 
L 554.442059 199.410696 
L 554.442059 197.360536 
L 555.680123 197.360536 
L 555.680123 195.310376 
L 556.918186 195.310376 
L 556.918186 193.260216 
L 558.15625 193.260216 
L 558.15625 190.917176 
L 559.394314 190.917176 
L 559.394314 188.574136 
L 560.632377 188.574136 
L 560.632377 186.231096 
L 561.870441 186.231096 
L 561.870441 183.888056 
L 563.108504 183.888056 
L 563.108504 181.545016 
L 564.346568 181.545016 
L 564.346568 179.201976 
L 565.584631 179.201976 
L 565.584631 176.858936 
L 566.822695 176.858936 
L 566.822695 174.515896 
L 568.060758 174.515896 
L 568.060758 172.172856 
L 569.298822 172.172856 
L 569.298822 169.829816 
L 570.536885 169.829816 
L 570.536885 167.486776 
L 571.774949 167.486776 
L 571.774949 165.143736 
L 573.013012 165.143736 
L 573.013012 162.800696 
L 574.251076 162.800696 
L 574.251076 160.457656 
L 575.489139 160.457656 
L 575.489139 158.114616 
L 576.727203 158.114616 
L 576.727203 155.771576 
L 577.965266 155.771576 
L 577.965266 153.428536 
L 579.20333 153.428536 
L 579.20333 151.085496 
L 580.441393 151.085496 
L 580.441393 148.742456 
L 581.679457 148.742456 
L 581.679457 146.399416 
L 582.91752 146.399416 
L 582.91752 144.056376 
L 584.155584 144.056376 
L 584.155584 141.713336 
L 585.393648 141.713336 
L 585.393648 139.370296 
L 586.631711 139.370296 
L 586.631711 137.027256 
L 587.869775 137.027256 
L 587.869775 134.684216 
L 589.107838 134.684216 
L 589.107838 132.341176 
L 590.345902 132.341176 
L 590.345902 129.998136 
L 591.583965 129.998136 
L 591.583965 127.655096 
L 592.822029 127.655096 
L 592.822029 125.312056 
L 594.060092 125.312056 
L 594.060092 122.969016 
L 595.298156 122.969016 
L 595.298156 120.333096 
L 596.536219 120.333096 
L 596.536219 117.697176 
L 597.774283 117.697176 
L 597.774283 115.061256 
L 599.012346 115.061256 
L 599.012346 112.425336 
L 600.25041 112.425336 
L 600.25041 109.789416 
L 601.488473 109.789416 
L 601.488473 107.153496 
L 602.726537 107.153496 
L 602.726537 104.517576 
L 603.9646 104.517576 
L 603.9646 101.881656 
L 605.202664 101.881656 
L 605.202664 99.245736 
L 606.440727 99.245736 
L 606.440727 96.609816 
L 607.678791 96.609816 
L 607.678791 93.973896 
L 608.916855 93.973896 
L 608.916855 91.337976 
L 610.154918 91.337976 
L 610.154918 88.702056 
L 611.392982 88.702056 
L 611.392982 86.066136 
L 612.631045 86.066136 
L 612.631045 83.430216 
L 613.869109 83.430216 
L 613.869109 80.794296 
L 615.107172 80.794296 
L 615.107172 78.158376 
L 616.345236 78.158376 
L 616.345236 75.522456 
L 617.583299 75.522456 
L 617.583299 72.886536 
L 618.821363 72.886536 
L 618.821363 70.250616 
L 721 70.250616 
L 721 70.250616 
" style="fill:none;stroke:#ff7f0e;stroke-linecap:square;stroke-width:1.5;"/>
   </g>
   <g id="patch_9">
    <path d="M 407.1125 319.04 
L 407.1125 26.16 
" style="fill:none;stroke:#000000;stroke-linecap:square;stroke-linejoin:miter;stroke-width:0.8;"/>
   </g>
   <g id="patch_10">
    <path d="M 709.2 319.04 
L 709.2 26.16 
" style="fill:none;stroke:#000000;stroke-linecap:square;stroke-linejoin:miter;stroke-width:0.8;"/>
   </g>
   <g id="patch_11">
    <path d="M 407.1125 319.04 
L 709.2 319.04 
" style="fill:none;stroke:#000000;stroke-linecap:square;stroke-linejoin:miter;stroke-width:0.8;"/>
   </g>
   <g id="patch_12">
    <path d="M 407.1125 26.16 
L 709.2 26.16 
" style="fill:none;stroke:#000000;stroke-linecap:square;stroke-linejoin:miter;stroke-width:0.8;"/>
   </g>
   <g id="text_58">
    <!-- NSW cumulative vaccinations per capita -->
    <g transform="translate(436.904688 20.16)scale(0.12 -0.12)">
     <use xlink:href="#DejaVuSans-4e"/>
     <use x="74.804688" xlink:href="#DejaVuSans-53"/>
     <use x="138.28125" xlink:href="#DejaVuSans-57"/>
     <use x="237.158203" xlink:href="#DejaVuSans-20"/>
     <use x="268.945312" xlink:href="#DejaVuSans-63"/>
     <use x="323.925781" xlink:href="#DejaVuSans-75"/>
     <use x="387.304688" xlink:href="#DejaVuSans-6d"/>
     <use x="484.716797" xlink:href="#DejaVuSans-75"/>
     <use x="548.095703" xlink:href="#DejaVuSans-6c"/>
     <use x="575.878906" xlink:href="#DejaVuSans-61"/>
     <use x="637.158203" xlink:href="#DejaVuSans-74"/>
     <use x="676.367188" xlink:href="#DejaVuSans-69"/>
     <use x="704.150391" xlink:href="#DejaVuSans-76"/>
     <use x="763.330078" xlink:href="#DejaVuSans-65"/>
     <use x="824.853516" xlink:href="#DejaVuSans-20"/>
     <use x="856.640625" xlink:href="#DejaVuSans-76"/>
     <use x="915.820312" xlink:href="#DejaVuSans-61"/>
     <use x="977.099609" xlink:href="#DejaVuSans-63"/>
     <use x="1032.080078" xlink:href="#DejaVuSans-63"/>
     <use x="1087.060547" xlink:href="#DejaVuSans-69"/>
     <use x="1114.84375" xlink:href="#DejaVuSans-6e"/>
     <use x="1178.222656" xlink:href="#DejaVuSans-61"/>
     <use x="1239.501953" xlink:href="#DejaVuSans-74"/>
     <use x="1278.710938" xlink:href="#DejaVuSans-69"/>
     <use x="1306.494141" xlink:href="#DejaVuSans-6f"/>
     <use x="1367.675781" xlink:href="#DejaVuSans-6e"/>
     <use x="1431.054688" xlink:href="#DejaVuSans-73"/>
     <use x="1483.154297" xlink:href="#DejaVuSans-20"/>
     <use x="1514.941406" xlink:href="#DejaVuSans-70"/>
     <use x="1578.417969" xlink:href="#DejaVuSans-65"/>
     <use x="1639.941406" xlink:href="#DejaVuSans-72"/>
     <use x="1681.054688" xlink:href="#DejaVuSans-20"/>
     <use x="1712.841797" xlink:href="#DejaVuSans-63"/>
     <use x="1767.822266" xlink:href="#DejaVuSans-61"/>
     <use x="1829.101562" xlink:href="#DejaVuSans-70"/>
     <use x="1892.578125" xlink:href="#DejaVuSans-69"/>
     <use x="1920.361328" xlink:href="#DejaVuSans-74"/>
     <use x="1959.570312" xlink:href="#DejaVuSans-61"/>
    </g>
   </g>
   <g id="legend_2">
    <g id="patch_13">
     <path d="M 554.317187 63.51625 
L 702.2 63.51625 
Q 704.2 63.51625 704.2 61.51625 
L 704.2 33.16 
Q 704.2 31.16 702.2 31.16 
L 554.317187 31.16 
Q 552.317187 31.16 552.317187 33.16 
L 552.317187 61.51625 
Q 552.317187 63.51625 554.317187 63.51625 
z
" style="fill:#ffffff;opacity:0.8;stroke:#cccccc;stroke-linejoin:miter;"/>
    </g>
    <g id="line2d_109">
     <path d="M 556.317187 39.258437 
L 576.317187 39.258437 
" style="fill:none;stroke:#1f77b4;stroke-linecap:square;stroke-width:1.5;"/>
    </g>
    <g id="line2d_110"/>
    <g id="text_59">
     <!-- Actual -->
     <g transform="translate(584.317187 42.758437)scale(0.1 -0.1)">
      <use xlink:href="#DejaVuSans-41"/>
      <use x="66.658203" xlink:href="#DejaVuSans-63"/>
      <use x="121.638672" xlink:href="#DejaVuSans-74"/>
      <use x="160.847656" xlink:href="#DejaVuSans-75"/>
      <use x="224.226562" xlink:href="#DejaVuSans-61"/>
      <use x="285.505859" xlink:href="#DejaVuSans-6c"/>
     </g>
    </g>
    <g id="line2d_111">
     <path d="M 556.317187 53.936562 
L 576.317187 53.936562 
" style="fill:none;stroke:#ff7f0e;stroke-linecap:square;stroke-width:1.5;"/>
    </g>
    <g id="line2d_112"/>
    <g id="text_60">
     <!-- Assumed for projection -->
     <g transform="translate(584.317187 57.436562)scale(0.1 -0.1)">
      <use xlink:href="#DejaVuSans-41"/>
      <use x="68.408203" xlink:href="#DejaVuSans-73"/>
      <use x="120.507812" xlink:href="#DejaVuSans-73"/>
      <use x="172.607422" xlink:href="#DejaVuSans-75"/>
      <use x="235.986328" xlink:href="#DejaVuSans-6d"/>
      <use x="333.398438" xlink:href="#DejaVuSans-65"/>
      <use x="394.921875" xlink:href="#DejaVuSans-64"/>
      <use x="458.398438" xlink:href="#DejaVuSans-20"/>
      <use x="490.185547" xlink:href="#DejaVuSans-66"/>
      <use x="525.390625" xlink:href="#DejaVuSans-6f"/>
      <use x="586.572266" xlink:href="#DejaVuSans-72"/>
      <use x="627.685547" xlink:href="#DejaVuSans-20"/>
      <use x="659.472656" xlink:href="#DejaVuSans-70"/>
      <use x="722.949219" xlink:href="#DejaVuSans-72"/>
      <use x="761.8125" xlink:href="#DejaVuSans-6f"/>
      <use x="822.994141" xlink:href="#DejaVuSans-6a"/>
      <use x="850.777344" xlink:href="#DejaVuSans-65"/>
      <use x="912.300781" xlink:href="#DejaVuSans-63"/>
      <use x="967.28125" xlink:href="#DejaVuSans-74"/>
      <use x="1006.490234" xlink:href="#DejaVuSans-69"/>
      <use x="1034.273438" xlink:href="#DejaVuSans-6f"/>
      <use x="1095.455078" xlink:href="#DejaVuSans-6e"/>
     </g>
    </g>
   </g>
  </g>
 </g>
 <defs>
  <clipPath id="p4af4ae777d">
   <rect height="292.88" width="302.0875" x="54.11" y="26.16"/>
  </clipPath>
  <clipPath id="pb2eccd7ee2">
   <rect height="292.88" width="302.0875" x="407.1125" y="26.16"/>
  </clipPath>
 </defs>
</svg>
