<?xml version="1.0" encoding="utf-8" standalone="no"?>
<!DOCTYPE svg PUBLIC "-//W3C//DTD SVG 1.1//EN"
  "http://www.w3.org/Graphics/SVG/1.1/DTD/svg11.dtd">
<svg height="432pt" version="1.1" viewBox="0 0 720 432" width="720pt" xmlns="http://www.w3.org/2000/svg" xmlns:xlink="http://www.w3.org/1999/xlink">
 <metadata>
  <rdf:RDF xmlns:cc="http://creativecommons.org/ns#" xmlns:dc="http://purl.org/dc/elements/1.1/" xmlns:rdf="http://www.w3.org/1999/02/22-rdf-syntax-ns#">
   <cc:Work>
    <dc:type rdf:resource="http://purl.org/dc/dcmitype/StillImage"/>
    <dc:date>2021-08-29T15:28:13.656061</dc:date>
    <dc:format>image/svg+xml</dc:format>
    <dc:creator>
     <cc:Agent>
      <dc:title>Matplotlib v3.4.2, https://matplotlib.org/</dc:title>
     </cc:Agent>
    </dc:creator>
   </cc:Work>
  </rdf:RDF>
 </metadata>
 <defs>
  <style type="text/css">*{stroke-linecap:butt;stroke-linejoin:round;}</style>
 </defs>
 <g id="figure_1">
  <g id="patch_1">
   <path d="M 0 432 
L 720 432 
L 720 0 
L 0 0 
z
" style="fill:#ffffff;"/>
  </g>
  <g id="axes_1">
   <g id="patch_2">
    <path d="M 61.958 383.84 
L 663.302291 383.84 
L 663.302291 49.416 
L 61.958 49.416 
z
" style="fill:#ffffff;"/>
   </g>
   <g id="PolyCollection_1">
    <path clip-path="url(#pfa3385586c)" d="M 462.854194 1219.9 
L 457.965216 1219.9 
L 457.965216 -452.22 
L 462.854194 -452.22 
L 462.854194 -452.22 
L 462.854194 1219.9 
z
" style="fill:#ff5200;fill-opacity:0.45;"/>
   </g>
   <g id="PolyCollection_2">
    <path clip-path="url(#pfa3385586c)" d="M 467.743172 1219.9 
L 462.854194 1219.9 
L 462.854194 -452.22 
L 467.743172 -452.22 
L 467.743172 -452.22 
L 467.743172 1219.9 
z
" style="fill:#ff5200;fill-opacity:0.435;"/>
   </g>
   <g id="PolyCollection_3">
    <path clip-path="url(#pfa3385586c)" d="M 472.63215 1219.9 
L 467.743172 1219.9 
L 467.743172 -452.22 
L 472.63215 -452.22 
L 472.63215 -452.22 
L 472.63215 1219.9 
z
" style="fill:#ff5200;fill-opacity:0.42;"/>
   </g>
   <g id="PolyCollection_4">
    <path clip-path="url(#pfa3385586c)" d="M 477.521128 1219.9 
L 472.63215 1219.9 
L 472.63215 -452.22 
L 477.521128 -452.22 
L 477.521128 -452.22 
L 477.521128 1219.9 
z
" style="fill:#ff5200;fill-opacity:0.405;"/>
   </g>
   <g id="PolyCollection_5">
    <path clip-path="url(#pfa3385586c)" d="M 482.410106 1219.9 
L 477.521128 1219.9 
L 477.521128 -452.22 
L 482.410106 -452.22 
L 482.410106 -452.22 
L 482.410106 1219.9 
z
" style="fill:#ff5200;fill-opacity:0.39;"/>
   </g>
   <g id="PolyCollection_6">
    <path clip-path="url(#pfa3385586c)" d="M 487.299084 1219.9 
L 482.410106 1219.9 
L 482.410106 -452.22 
L 487.299084 -452.22 
L 487.299084 -452.22 
L 487.299084 1219.9 
z
" style="fill:#ff5200;fill-opacity:0.375;"/>
   </g>
   <g id="PolyCollection_7">
    <path clip-path="url(#pfa3385586c)" d="M 492.188062 1219.9 
L 487.299084 1219.9 
L 487.299084 -452.22 
L 492.188062 -452.22 
L 492.188062 -452.22 
L 492.188062 1219.9 
z
" style="fill:#ff5200;fill-opacity:0.36;"/>
   </g>
   <g id="PolyCollection_8">
    <path clip-path="url(#pfa3385586c)" d="M 497.07704 1219.9 
L 492.188062 1219.9 
L 492.188062 -452.22 
L 497.07704 -452.22 
L 497.07704 -452.22 
L 497.07704 1219.9 
z
" style="fill:#ff5200;fill-opacity:0.345;"/>
   </g>
   <g id="PolyCollection_9">
    <path clip-path="url(#pfa3385586c)" d="M 501.966018 1219.9 
L 497.07704 1219.9 
L 497.07704 -452.22 
L 501.966018 -452.22 
L 501.966018 -452.22 
L 501.966018 1219.9 
z
" style="fill:#ff5200;fill-opacity:0.33;"/>
   </g>
   <g id="PolyCollection_10">
    <path clip-path="url(#pfa3385586c)" d="M 506.854996 1219.9 
L 501.966018 1219.9 
L 501.966018 -452.22 
L 506.854996 -452.22 
L 506.854996 -452.22 
L 506.854996 1219.9 
z
" style="fill:#ff5200;fill-opacity:0.315;"/>
   </g>
   <g id="PolyCollection_11">
    <path clip-path="url(#pfa3385586c)" d="M 511.743974 1219.9 
L 506.854996 1219.9 
L 506.854996 -452.22 
L 511.743974 -452.22 
L 511.743974 -452.22 
L 511.743974 1219.9 
z
" style="fill:#ff5200;fill-opacity:0.3;"/>
   </g>
   <g id="PolyCollection_12">
    <path clip-path="url(#pfa3385586c)" d="M 516.632952 1219.9 
L 511.743974 1219.9 
L 511.743974 -452.22 
L 516.632952 -452.22 
L 516.632952 -452.22 
L 516.632952 1219.9 
z
" style="fill:#ff5200;fill-opacity:0.285;"/>
   </g>
   <g id="PolyCollection_13">
    <path clip-path="url(#pfa3385586c)" d="M 521.52193 1219.9 
L 516.632952 1219.9 
L 516.632952 -452.22 
L 521.52193 -452.22 
L 521.52193 -452.22 
L 521.52193 1219.9 
z
" style="fill:#ff5200;fill-opacity:0.27;"/>
   </g>
   <g id="PolyCollection_14">
    <path clip-path="url(#pfa3385586c)" d="M 526.410908 1219.9 
L 521.52193 1219.9 
L 521.52193 -452.22 
L 526.410908 -452.22 
L 526.410908 -452.22 
L 526.410908 1219.9 
z
" style="fill:#ff5200;fill-opacity:0.255;"/>
   </g>
   <g id="PolyCollection_15">
    <path clip-path="url(#pfa3385586c)" d="M 531.299886 1219.9 
L 526.410908 1219.9 
L 526.410908 -452.22 
L 531.299886 -452.22 
L 531.299886 -452.22 
L 531.299886 1219.9 
z
" style="fill:#ff5200;fill-opacity:0.24;"/>
   </g>
   <g id="PolyCollection_16">
    <path clip-path="url(#pfa3385586c)" d="M 536.188863 1219.9 
L 531.299886 1219.9 
L 531.299886 -452.22 
L 536.188863 -452.22 
L 536.188863 -452.22 
L 536.188863 1219.9 
z
" style="fill:#ff5200;fill-opacity:0.225;"/>
   </g>
   <g id="PolyCollection_17">
    <path clip-path="url(#pfa3385586c)" d="M 541.077841 1219.9 
L 536.188863 1219.9 
L 536.188863 -452.22 
L 541.077841 -452.22 
L 541.077841 -452.22 
L 541.077841 1219.9 
z
" style="fill:#ff5200;fill-opacity:0.21;"/>
   </g>
   <g id="PolyCollection_18">
    <path clip-path="url(#pfa3385586c)" d="M 545.966819 1219.9 
L 541.077841 1219.9 
L 541.077841 -452.22 
L 545.966819 -452.22 
L 545.966819 -452.22 
L 545.966819 1219.9 
z
" style="fill:#ff5200;fill-opacity:0.195;"/>
   </g>
   <g id="PolyCollection_19">
    <path clip-path="url(#pfa3385586c)" d="M 550.855797 1219.9 
L 545.966819 1219.9 
L 545.966819 -452.22 
L 550.855797 -452.22 
L 550.855797 -452.22 
L 550.855797 1219.9 
z
" style="fill:#ff5200;fill-opacity:0.18;"/>
   </g>
   <g id="PolyCollection_20">
    <path clip-path="url(#pfa3385586c)" d="M 555.744775 1219.9 
L 550.855797 1219.9 
L 550.855797 -452.22 
L 555.744775 -452.22 
L 555.744775 -452.22 
L 555.744775 1219.9 
z
" style="fill:#ff5200;fill-opacity:0.165;"/>
   </g>
   <g id="PolyCollection_21">
    <path clip-path="url(#pfa3385586c)" d="M 560.633753 1219.9 
L 555.744775 1219.9 
L 555.744775 -452.22 
L 560.633753 -452.22 
L 560.633753 -452.22 
L 560.633753 1219.9 
z
" style="fill:#ff5200;fill-opacity:0.15;"/>
   </g>
   <g id="PolyCollection_22">
    <path clip-path="url(#pfa3385586c)" d="M 565.522731 1219.9 
L 560.633753 1219.9 
L 560.633753 -452.22 
L 565.522731 -452.22 
L 565.522731 -452.22 
L 565.522731 1219.9 
z
" style="fill:#ff5200;fill-opacity:0.135;"/>
   </g>
   <g id="PolyCollection_23">
    <path clip-path="url(#pfa3385586c)" d="M 570.411709 1219.9 
L 565.522731 1219.9 
L 565.522731 -452.22 
L 570.411709 -452.22 
L 570.411709 -452.22 
L 570.411709 1219.9 
z
" style="fill:#ff5200;fill-opacity:0.12;"/>
   </g>
   <g id="PolyCollection_24">
    <path clip-path="url(#pfa3385586c)" d="M 575.300687 1219.9 
L 570.411709 1219.9 
L 570.411709 -452.22 
L 575.300687 -452.22 
L 575.300687 -452.22 
L 575.300687 1219.9 
z
" style="fill:#ff5200;fill-opacity:0.105;"/>
   </g>
   <g id="PolyCollection_25">
    <path clip-path="url(#pfa3385586c)" d="M 580.189665 1219.9 
L 575.300687 1219.9 
L 575.300687 -452.22 
L 580.189665 -452.22 
L 580.189665 -452.22 
L 580.189665 1219.9 
z
" style="fill:#ff5200;fill-opacity:0.09;"/>
   </g>
   <g id="PolyCollection_26">
    <path clip-path="url(#pfa3385586c)" d="M 585.078643 1219.9 
L 580.189665 1219.9 
L 580.189665 -452.22 
L 585.078643 -452.22 
L 585.078643 -452.22 
L 585.078643 1219.9 
z
" style="fill:#ff5200;fill-opacity:0.075;"/>
   </g>
   <g id="PolyCollection_27">
    <path clip-path="url(#pfa3385586c)" d="M 589.967621 1219.9 
L 585.078643 1219.9 
L 585.078643 -452.22 
L 589.967621 -452.22 
L 589.967621 -452.22 
L 589.967621 1219.9 
z
" style="fill:#ff5200;fill-opacity:0.06;"/>
   </g>
   <g id="PolyCollection_28">
    <path clip-path="url(#pfa3385586c)" d="M 594.856599 1219.9 
L 589.967621 1219.9 
L 589.967621 -452.22 
L 594.856599 -452.22 
L 594.856599 -452.22 
L 594.856599 1219.9 
z
" style="fill:#ff5200;fill-opacity:0.045;"/>
   </g>
   <g id="PolyCollection_29">
    <path clip-path="url(#pfa3385586c)" d="M 599.745577 1219.9 
L 594.856599 1219.9 
L 594.856599 -452.22 
L 599.745577 -452.22 
L 599.745577 -452.22 
L 599.745577 1219.9 
z
" style="fill:#ff5200;fill-opacity:0.03;"/>
   </g>
   <g id="PolyCollection_30">
    <path clip-path="url(#pfa3385586c)" d="M 604.634555 1219.9 
L 599.745577 1219.9 
L 599.745577 -452.22 
L 604.634555 -452.22 
L 604.634555 -452.22 
L 604.634555 1219.9 
z
" style="fill:#ff5200;fill-opacity:0.015;"/>
   </g>
   <g id="PolyCollection_31">
    <path clip-path="url(#pfa3385586c)" d="M 76.624934 1219.9 
L -642.054828 1219.9 
L -642.054828 -452.22 
L 76.624934 -452.22 
L 76.624934 -452.22 
L 76.624934 1219.9 
z
" style="fill:#ffffa6;"/>
   </g>
   <g id="PolyCollection_32">
    <path clip-path="url(#pfa3385586c)" d="M 457.965216 1219.9 
L 76.624934 1219.9 
L 76.624934 -452.22 
L 457.965216 -452.22 
L 457.965216 -452.22 
L 457.965216 1219.9 
z
" style="fill:#ff5200;fill-opacity:0.45;"/>
   </g>
   <g id="PolyCollection_33">
    <defs>
     <path d="M 91.291868 -48.16 
L 91.291868 -253.781981 
L 91.291868 -258.86154 
L 105.958802 -258.86154 
L 105.958802 -261.89249 
L 120.625736 -261.89249 
L 120.625736 -262.189186 
L 135.29267 -262.189186 
L 135.29267 -259.414376 
L 149.959604 -259.414376 
L 149.959604 -253.730953 
L 164.626537 -253.730953 
L 164.626537 -245.801386 
L 179.293471 -245.801386 
L 179.293471 -236.62085 
L 193.960405 -236.62085 
L 193.960405 -227.258626 
L 208.627339 -227.258626 
L 208.627339 -218.619867 
L 223.294273 -218.619867 
L 223.294273 -211.305786 
L 237.961207 -211.305786 
L 237.961207 -205.585182 
L 252.628141 -205.585182 
L 252.628141 -201.445002 
L 267.295075 -201.445002 
L 267.295075 -48.16 
L 267.295075 -48.16 
L 252.628141 -48.16 
L 252.628141 -48.16 
L 237.961207 -48.16 
L 237.961207 -48.16 
L 223.294273 -48.16 
L 223.294273 -48.16 
L 208.627339 -48.16 
L 208.627339 -48.16 
L 193.960405 -48.16 
L 193.960405 -48.16 
L 179.293471 -48.16 
L 179.293471 -48.16 
L 164.626537 -48.16 
L 164.626537 -48.16 
L 149.959604 -48.16 
L 149.959604 -48.16 
L 135.29267 -48.16 
L 135.29267 -48.16 
L 120.625736 -48.16 
L 120.625736 -48.16 
L 105.958802 -48.16 
L 105.958802 -48.16 
L 91.291868 -48.16 
L 91.291868 -48.16 
z
" id="m8fbf2a860a" style="stroke:#1f77b4;"/>
    </defs>
    <g clip-path="url(#pfa3385586c)">
     <use style="fill:#1f77b4;stroke:#1f77b4;" x="0" xlink:href="#m8fbf2a860a" y="432"/>
    </g>
   </g>
   <g id="matplotlib.axis_1">
    <g id="xtick_1">
     <g id="line2d_1">
      <path clip-path="url(#pfa3385586c)" d="M 120.625736 383.84 
L 120.625736 49.416 
" style="fill:none;stroke:#000000;stroke-dasharray:0.8,1.32;stroke-dashoffset:0;stroke-opacity:0.5;stroke-width:0.8;"/>
     </g>
     <g id="line2d_2">
      <defs>
       <path d="M 0 0 
L 0 3.5 
" id="mfca08a2d7b" style="stroke:#000000;stroke-width:0.8;"/>
      </defs>
      <g>
       <use style="stroke:#000000;stroke-width:0.8;" x="120.625736" xlink:href="#mfca08a2d7b" y="383.84"/>
      </g>
     </g>
     <g id="text_1">
      <!-- 20 -->
      <g transform="translate(114.263236 398.438437)scale(0.1 -0.1)">
       <defs>
        <path d="M 1228 531 
L 3431 531 
L 3431 0 
L 469 0 
L 469 531 
Q 828 903 1448 1529 
Q 2069 2156 2228 2338 
Q 2531 2678 2651 2914 
Q 2772 3150 2772 3378 
Q 2772 3750 2511 3984 
Q 2250 4219 1831 4219 
Q 1534 4219 1204 4116 
Q 875 4013 500 3803 
L 500 4441 
Q 881 4594 1212 4672 
Q 1544 4750 1819 4750 
Q 2544 4750 2975 4387 
Q 3406 4025 3406 3419 
Q 3406 3131 3298 2873 
Q 3191 2616 2906 2266 
Q 2828 2175 2409 1742 
Q 1991 1309 1228 531 
z
" id="DejaVuSans-32" transform="scale(0.015625)"/>
        <path d="M 2034 4250 
Q 1547 4250 1301 3770 
Q 1056 3291 1056 2328 
Q 1056 1369 1301 889 
Q 1547 409 2034 409 
Q 2525 409 2770 889 
Q 3016 1369 3016 2328 
Q 3016 3291 2770 3770 
Q 2525 4250 2034 4250 
z
M 2034 4750 
Q 2819 4750 3233 4129 
Q 3647 3509 3647 2328 
Q 3647 1150 3233 529 
Q 2819 -91 2034 -91 
Q 1250 -91 836 529 
Q 422 1150 422 2328 
Q 422 3509 836 4129 
Q 1250 4750 2034 4750 
z
" id="DejaVuSans-30" transform="scale(0.015625)"/>
       </defs>
       <use xlink:href="#DejaVuSans-32"/>
       <use x="63.623047" xlink:href="#DejaVuSans-30"/>
      </g>
     </g>
    </g>
    <g id="xtick_2">
     <g id="line2d_3">
      <path clip-path="url(#pfa3385586c)" d="M 193.960405 383.84 
L 193.960405 49.416 
" style="fill:none;stroke:#000000;stroke-dasharray:0.8,1.32;stroke-dashoffset:0;stroke-opacity:0.5;stroke-width:0.8;"/>
     </g>
     <g id="line2d_4">
      <g>
       <use style="stroke:#000000;stroke-width:0.8;" x="193.960405" xlink:href="#mfca08a2d7b" y="383.84"/>
      </g>
     </g>
     <g id="text_2">
      <!-- 25 -->
      <g transform="translate(187.597905 398.438437)scale(0.1 -0.1)">
       <defs>
        <path d="M 691 4666 
L 3169 4666 
L 3169 4134 
L 1269 4134 
L 1269 2991 
Q 1406 3038 1543 3061 
Q 1681 3084 1819 3084 
Q 2600 3084 3056 2656 
Q 3513 2228 3513 1497 
Q 3513 744 3044 326 
Q 2575 -91 1722 -91 
Q 1428 -91 1123 -41 
Q 819 9 494 109 
L 494 744 
Q 775 591 1075 516 
Q 1375 441 1709 441 
Q 2250 441 2565 725 
Q 2881 1009 2881 1497 
Q 2881 1984 2565 2268 
Q 2250 2553 1709 2553 
Q 1456 2553 1204 2497 
Q 953 2441 691 2322 
L 691 4666 
z
" id="DejaVuSans-35" transform="scale(0.015625)"/>
       </defs>
       <use xlink:href="#DejaVuSans-32"/>
       <use x="63.623047" xlink:href="#DejaVuSans-35"/>
      </g>
     </g>
    </g>
    <g id="xtick_3">
     <g id="line2d_5">
      <path clip-path="url(#pfa3385586c)" d="M 296.628943 383.84 
L 296.628943 49.416 
" style="fill:none;stroke:#000000;stroke-dasharray:0.8,1.32;stroke-dashoffset:0;stroke-opacity:0.5;stroke-width:0.8;"/>
     </g>
     <g id="line2d_6">
      <g>
       <use style="stroke:#000000;stroke-width:0.8;" x="296.628943" xlink:href="#mfca08a2d7b" y="383.84"/>
      </g>
     </g>
     <g id="text_3">
      <!-- Sep -->
      <g transform="translate(287.203943 398.438437)scale(0.1 -0.1)">
       <defs>
        <path d="M 3425 4513 
L 3425 3897 
Q 3066 4069 2747 4153 
Q 2428 4238 2131 4238 
Q 1616 4238 1336 4038 
Q 1056 3838 1056 3469 
Q 1056 3159 1242 3001 
Q 1428 2844 1947 2747 
L 2328 2669 
Q 3034 2534 3370 2195 
Q 3706 1856 3706 1288 
Q 3706 609 3251 259 
Q 2797 -91 1919 -91 
Q 1588 -91 1214 -16 
Q 841 59 441 206 
L 441 856 
Q 825 641 1194 531 
Q 1563 422 1919 422 
Q 2459 422 2753 634 
Q 3047 847 3047 1241 
Q 3047 1584 2836 1778 
Q 2625 1972 2144 2069 
L 1759 2144 
Q 1053 2284 737 2584 
Q 422 2884 422 3419 
Q 422 4038 858 4394 
Q 1294 4750 2059 4750 
Q 2388 4750 2728 4690 
Q 3069 4631 3425 4513 
z
" id="DejaVuSans-53" transform="scale(0.015625)"/>
        <path d="M 3597 1894 
L 3597 1613 
L 953 1613 
Q 991 1019 1311 708 
Q 1631 397 2203 397 
Q 2534 397 2845 478 
Q 3156 559 3463 722 
L 3463 178 
Q 3153 47 2828 -22 
Q 2503 -91 2169 -91 
Q 1331 -91 842 396 
Q 353 884 353 1716 
Q 353 2575 817 3079 
Q 1281 3584 2069 3584 
Q 2775 3584 3186 3129 
Q 3597 2675 3597 1894 
z
M 3022 2063 
Q 3016 2534 2758 2815 
Q 2500 3097 2075 3097 
Q 1594 3097 1305 2825 
Q 1016 2553 972 2059 
L 3022 2063 
z
" id="DejaVuSans-65" transform="scale(0.015625)"/>
        <path d="M 1159 525 
L 1159 -1331 
L 581 -1331 
L 581 3500 
L 1159 3500 
L 1159 2969 
Q 1341 3281 1617 3432 
Q 1894 3584 2278 3584 
Q 2916 3584 3314 3078 
Q 3713 2572 3713 1747 
Q 3713 922 3314 415 
Q 2916 -91 2278 -91 
Q 1894 -91 1617 61 
Q 1341 213 1159 525 
z
M 3116 1747 
Q 3116 2381 2855 2742 
Q 2594 3103 2138 3103 
Q 1681 3103 1420 2742 
Q 1159 2381 1159 1747 
Q 1159 1113 1420 752 
Q 1681 391 2138 391 
Q 2594 391 2855 752 
Q 3116 1113 3116 1747 
z
" id="DejaVuSans-70" transform="scale(0.015625)"/>
       </defs>
       <use xlink:href="#DejaVuSans-53"/>
       <use x="63.476562" xlink:href="#DejaVuSans-65"/>
       <use x="125" xlink:href="#DejaVuSans-70"/>
      </g>
     </g>
    </g>
    <g id="xtick_4">
     <g id="line2d_7">
      <path clip-path="url(#pfa3385586c)" d="M 355.296678 383.84 
L 355.296678 49.416 
" style="fill:none;stroke:#000000;stroke-dasharray:0.8,1.32;stroke-dashoffset:0;stroke-opacity:0.5;stroke-width:0.8;"/>
     </g>
     <g id="line2d_8">
      <g>
       <use style="stroke:#000000;stroke-width:0.8;" x="355.296678" xlink:href="#mfca08a2d7b" y="383.84"/>
      </g>
     </g>
     <g id="text_4">
      <!-- 05 -->
      <g transform="translate(348.934178 398.438437)scale(0.1 -0.1)">
       <use xlink:href="#DejaVuSans-30"/>
       <use x="63.623047" xlink:href="#DejaVuSans-35"/>
      </g>
     </g>
    </g>
    <g id="xtick_5">
     <g id="line2d_9">
      <path clip-path="url(#pfa3385586c)" d="M 428.631348 383.84 
L 428.631348 49.416 
" style="fill:none;stroke:#000000;stroke-dasharray:0.8,1.32;stroke-dashoffset:0;stroke-opacity:0.5;stroke-width:0.8;"/>
     </g>
     <g id="line2d_10">
      <g>
       <use style="stroke:#000000;stroke-width:0.8;" x="428.631348" xlink:href="#mfca08a2d7b" y="383.84"/>
      </g>
     </g>
     <g id="text_5">
      <!-- 10 -->
      <g transform="translate(422.268848 398.438437)scale(0.1 -0.1)">
       <defs>
        <path d="M 794 531 
L 1825 531 
L 1825 4091 
L 703 3866 
L 703 4441 
L 1819 4666 
L 2450 4666 
L 2450 531 
L 3481 531 
L 3481 0 
L 794 0 
L 794 531 
z
" id="DejaVuSans-31" transform="scale(0.015625)"/>
       </defs>
       <use xlink:href="#DejaVuSans-31"/>
       <use x="63.623047" xlink:href="#DejaVuSans-30"/>
      </g>
     </g>
    </g>
    <g id="xtick_6">
     <g id="line2d_11">
      <path clip-path="url(#pfa3385586c)" d="M 501.966018 383.84 
L 501.966018 49.416 
" style="fill:none;stroke:#000000;stroke-dasharray:0.8,1.32;stroke-dashoffset:0;stroke-opacity:0.5;stroke-width:0.8;"/>
     </g>
     <g id="line2d_12">
      <g>
       <use style="stroke:#000000;stroke-width:0.8;" x="501.966018" xlink:href="#mfca08a2d7b" y="383.84"/>
      </g>
     </g>
     <g id="text_6">
      <!-- 15 -->
      <g transform="translate(495.603518 398.438437)scale(0.1 -0.1)">
       <use xlink:href="#DejaVuSans-31"/>
       <use x="63.623047" xlink:href="#DejaVuSans-35"/>
      </g>
     </g>
    </g>
    <g id="xtick_7">
     <g id="line2d_13">
      <path clip-path="url(#pfa3385586c)" d="M 575.300687 383.84 
L 575.300687 49.416 
" style="fill:none;stroke:#000000;stroke-dasharray:0.8,1.32;stroke-dashoffset:0;stroke-opacity:0.5;stroke-width:0.8;"/>
     </g>
     <g id="line2d_14">
      <g>
       <use style="stroke:#000000;stroke-width:0.8;" x="575.300687" xlink:href="#mfca08a2d7b" y="383.84"/>
      </g>
     </g>
     <g id="text_7">
      <!-- 20 -->
      <g transform="translate(568.938187 398.438437)scale(0.1 -0.1)">
       <use xlink:href="#DejaVuSans-32"/>
       <use x="63.623047" xlink:href="#DejaVuSans-30"/>
      </g>
     </g>
    </g>
    <g id="xtick_8">
     <g id="line2d_15">
      <path clip-path="url(#pfa3385586c)" d="M 648.635357 383.84 
L 648.635357 49.416 
" style="fill:none;stroke:#000000;stroke-dasharray:0.8,1.32;stroke-dashoffset:0;stroke-opacity:0.5;stroke-width:0.8;"/>
     </g>
     <g id="line2d_16">
      <g>
       <use style="stroke:#000000;stroke-width:0.8;" x="648.635357" xlink:href="#mfca08a2d7b" y="383.84"/>
      </g>
     </g>
     <g id="text_8">
      <!-- 25 -->
      <g transform="translate(642.272857 398.438437)scale(0.1 -0.1)">
       <use xlink:href="#DejaVuSans-32"/>
       <use x="63.623047" xlink:href="#DejaVuSans-35"/>
      </g>
     </g>
    </g>
   </g>
   <g id="matplotlib.axis_2">
    <g id="ytick_1">
     <g id="line2d_17">
      <path clip-path="url(#pfa3385586c)" d="M 61.958 383.84 
L 663.302291 383.84 
" style="fill:none;stroke:#000000;stroke-dasharray:0.8,1.32;stroke-dashoffset:0;stroke-opacity:0.5;stroke-width:0.8;"/>
     </g>
     <g id="line2d_18">
      <defs>
       <path d="M 0 0 
L -3.5 0 
" id="m0aeb254a4d" style="stroke:#000000;stroke-width:0.8;"/>
      </defs>
      <g>
       <use style="stroke:#000000;stroke-width:0.8;" x="61.958" xlink:href="#m0aeb254a4d" y="383.84"/>
      </g>
     </g>
     <g id="text_9">
      <!-- 0.00 -->
      <g transform="translate(32.692375 387.639219)scale(0.1 -0.1)">
       <defs>
        <path d="M 684 794 
L 1344 794 
L 1344 0 
L 684 0 
L 684 794 
z
" id="DejaVuSans-2e" transform="scale(0.015625)"/>
       </defs>
       <use xlink:href="#DejaVuSans-30"/>
       <use x="63.623047" xlink:href="#DejaVuSans-2e"/>
       <use x="95.410156" xlink:href="#DejaVuSans-30"/>
       <use x="159.033203" xlink:href="#DejaVuSans-30"/>
      </g>
     </g>
    </g>
    <g id="ytick_2">
     <g id="line2d_19">
      <path clip-path="url(#pfa3385586c)" d="M 61.958 362.9385 
L 663.302291 362.9385 
" style="fill:none;stroke:#000000;stroke-dasharray:0.8,1.32;stroke-dashoffset:0;stroke-opacity:0.5;stroke-width:0.8;"/>
     </g>
     <g id="line2d_20">
      <g>
       <use style="stroke:#000000;stroke-width:0.8;" x="61.958" xlink:href="#m0aeb254a4d" y="362.9385"/>
      </g>
     </g>
     <g id="text_10">
      <!-- 0.25 -->
      <g transform="translate(32.692375 366.737719)scale(0.1 -0.1)">
       <use xlink:href="#DejaVuSans-30"/>
       <use x="63.623047" xlink:href="#DejaVuSans-2e"/>
       <use x="95.410156" xlink:href="#DejaVuSans-32"/>
       <use x="159.033203" xlink:href="#DejaVuSans-35"/>
      </g>
     </g>
    </g>
    <g id="ytick_3">
     <g id="line2d_21">
      <path clip-path="url(#pfa3385586c)" d="M 61.958 342.037 
L 663.302291 342.037 
" style="fill:none;stroke:#000000;stroke-dasharray:0.8,1.32;stroke-dashoffset:0;stroke-opacity:0.5;stroke-width:0.8;"/>
     </g>
     <g id="line2d_22">
      <g>
       <use style="stroke:#000000;stroke-width:0.8;" x="61.958" xlink:href="#m0aeb254a4d" y="342.037"/>
      </g>
     </g>
     <g id="text_11">
      <!-- 0.50 -->
      <g transform="translate(32.692375 345.836219)scale(0.1 -0.1)">
       <use xlink:href="#DejaVuSans-30"/>
       <use x="63.623047" xlink:href="#DejaVuSans-2e"/>
       <use x="95.410156" xlink:href="#DejaVuSans-35"/>
       <use x="159.033203" xlink:href="#DejaVuSans-30"/>
      </g>
     </g>
    </g>
    <g id="ytick_4">
     <g id="line2d_23">
      <path clip-path="url(#pfa3385586c)" d="M 61.958 321.1355 
L 663.302291 321.1355 
" style="fill:none;stroke:#000000;stroke-dasharray:0.8,1.32;stroke-dashoffset:0;stroke-opacity:0.5;stroke-width:0.8;"/>
     </g>
     <g id="line2d_24">
      <g>
       <use style="stroke:#000000;stroke-width:0.8;" x="61.958" xlink:href="#m0aeb254a4d" y="321.1355"/>
      </g>
     </g>
     <g id="text_12">
      <!-- 0.75 -->
      <g transform="translate(32.692375 324.934719)scale(0.1 -0.1)">
       <defs>
        <path d="M 525 4666 
L 3525 4666 
L 3525 4397 
L 1831 0 
L 1172 0 
L 2766 4134 
L 525 4134 
L 525 4666 
z
" id="DejaVuSans-37" transform="scale(0.015625)"/>
       </defs>
       <use xlink:href="#DejaVuSans-30"/>
       <use x="63.623047" xlink:href="#DejaVuSans-2e"/>
       <use x="95.410156" xlink:href="#DejaVuSans-37"/>
       <use x="159.033203" xlink:href="#DejaVuSans-35"/>
      </g>
     </g>
    </g>
    <g id="ytick_5">
     <g id="line2d_25">
      <path clip-path="url(#pfa3385586c)" d="M 61.958 300.234 
L 663.302291 300.234 
" style="fill:none;stroke:#000000;stroke-dasharray:0.8,1.32;stroke-dashoffset:0;stroke-opacity:0.5;stroke-width:0.8;"/>
     </g>
     <g id="line2d_26">
      <g>
       <use style="stroke:#000000;stroke-width:0.8;" x="61.958" xlink:href="#m0aeb254a4d" y="300.234"/>
      </g>
     </g>
     <g id="text_13">
      <!-- 1.00 -->
      <g transform="translate(32.692375 304.033219)scale(0.1 -0.1)">
       <use xlink:href="#DejaVuSans-31"/>
       <use x="63.623047" xlink:href="#DejaVuSans-2e"/>
       <use x="95.410156" xlink:href="#DejaVuSans-30"/>
       <use x="159.033203" xlink:href="#DejaVuSans-30"/>
      </g>
     </g>
    </g>
    <g id="ytick_6">
     <g id="line2d_27">
      <path clip-path="url(#pfa3385586c)" d="M 61.958 279.3325 
L 663.302291 279.3325 
" style="fill:none;stroke:#000000;stroke-dasharray:0.8,1.32;stroke-dashoffset:0;stroke-opacity:0.5;stroke-width:0.8;"/>
     </g>
     <g id="line2d_28">
      <g>
       <use style="stroke:#000000;stroke-width:0.8;" x="61.958" xlink:href="#m0aeb254a4d" y="279.3325"/>
      </g>
     </g>
     <g id="text_14">
      <!-- 1.25 -->
      <g transform="translate(32.692375 283.131719)scale(0.1 -0.1)">
       <use xlink:href="#DejaVuSans-31"/>
       <use x="63.623047" xlink:href="#DejaVuSans-2e"/>
       <use x="95.410156" xlink:href="#DejaVuSans-32"/>
       <use x="159.033203" xlink:href="#DejaVuSans-35"/>
      </g>
     </g>
    </g>
    <g id="ytick_7">
     <g id="line2d_29">
      <path clip-path="url(#pfa3385586c)" d="M 61.958 258.431 
L 663.302291 258.431 
" style="fill:none;stroke:#000000;stroke-dasharray:0.8,1.32;stroke-dashoffset:0;stroke-opacity:0.5;stroke-width:0.8;"/>
     </g>
     <g id="line2d_30">
      <g>
       <use style="stroke:#000000;stroke-width:0.8;" x="61.958" xlink:href="#m0aeb254a4d" y="258.431"/>
      </g>
     </g>
     <g id="text_15">
      <!-- 1.50 -->
      <g transform="translate(32.692375 262.230219)scale(0.1 -0.1)">
       <use xlink:href="#DejaVuSans-31"/>
       <use x="63.623047" xlink:href="#DejaVuSans-2e"/>
       <use x="95.410156" xlink:href="#DejaVuSans-35"/>
       <use x="159.033203" xlink:href="#DejaVuSans-30"/>
      </g>
     </g>
    </g>
    <g id="ytick_8">
     <g id="line2d_31">
      <path clip-path="url(#pfa3385586c)" d="M 61.958 237.5295 
L 663.302291 237.5295 
" style="fill:none;stroke:#000000;stroke-dasharray:0.8,1.32;stroke-dashoffset:0;stroke-opacity:0.5;stroke-width:0.8;"/>
     </g>
     <g id="line2d_32">
      <g>
       <use style="stroke:#000000;stroke-width:0.8;" x="61.958" xlink:href="#m0aeb254a4d" y="237.5295"/>
      </g>
     </g>
     <g id="text_16">
      <!-- 1.75 -->
      <g transform="translate(32.692375 241.328719)scale(0.1 -0.1)">
       <use xlink:href="#DejaVuSans-31"/>
       <use x="63.623047" xlink:href="#DejaVuSans-2e"/>
       <use x="95.410156" xlink:href="#DejaVuSans-37"/>
       <use x="159.033203" xlink:href="#DejaVuSans-35"/>
      </g>
     </g>
    </g>
    <g id="ytick_9">
     <g id="line2d_33">
      <path clip-path="url(#pfa3385586c)" d="M 61.958 216.628 
L 663.302291 216.628 
" style="fill:none;stroke:#000000;stroke-dasharray:0.8,1.32;stroke-dashoffset:0;stroke-opacity:0.5;stroke-width:0.8;"/>
     </g>
     <g id="line2d_34">
      <g>
       <use style="stroke:#000000;stroke-width:0.8;" x="61.958" xlink:href="#m0aeb254a4d" y="216.628"/>
      </g>
     </g>
     <g id="text_17">
      <!-- 2.00 -->
      <g transform="translate(32.692375 220.427219)scale(0.1 -0.1)">
       <use xlink:href="#DejaVuSans-32"/>
       <use x="63.623047" xlink:href="#DejaVuSans-2e"/>
       <use x="95.410156" xlink:href="#DejaVuSans-30"/>
       <use x="159.033203" xlink:href="#DejaVuSans-30"/>
      </g>
     </g>
    </g>
    <g id="ytick_10">
     <g id="line2d_35">
      <path clip-path="url(#pfa3385586c)" d="M 61.958 195.7265 
L 663.302291 195.7265 
" style="fill:none;stroke:#000000;stroke-dasharray:0.8,1.32;stroke-dashoffset:0;stroke-opacity:0.5;stroke-width:0.8;"/>
     </g>
     <g id="line2d_36">
      <g>
       <use style="stroke:#000000;stroke-width:0.8;" x="61.958" xlink:href="#m0aeb254a4d" y="195.7265"/>
      </g>
     </g>
     <g id="text_18">
      <!-- 2.25 -->
      <g transform="translate(32.692375 199.525719)scale(0.1 -0.1)">
       <use xlink:href="#DejaVuSans-32"/>
       <use x="63.623047" xlink:href="#DejaVuSans-2e"/>
       <use x="95.410156" xlink:href="#DejaVuSans-32"/>
       <use x="159.033203" xlink:href="#DejaVuSans-35"/>
      </g>
     </g>
    </g>
    <g id="ytick_11">
     <g id="line2d_37">
      <path clip-path="url(#pfa3385586c)" d="M 61.958 174.825 
L 663.302291 174.825 
" style="fill:none;stroke:#000000;stroke-dasharray:0.8,1.32;stroke-dashoffset:0;stroke-opacity:0.5;stroke-width:0.8;"/>
     </g>
     <g id="line2d_38">
      <g>
       <use style="stroke:#000000;stroke-width:0.8;" x="61.958" xlink:href="#m0aeb254a4d" y="174.825"/>
      </g>
     </g>
     <g id="text_19">
      <!-- 2.50 -->
      <g transform="translate(32.692375 178.624219)scale(0.1 -0.1)">
       <use xlink:href="#DejaVuSans-32"/>
       <use x="63.623047" xlink:href="#DejaVuSans-2e"/>
       <use x="95.410156" xlink:href="#DejaVuSans-35"/>
       <use x="159.033203" xlink:href="#DejaVuSans-30"/>
      </g>
     </g>
    </g>
    <g id="ytick_12">
     <g id="line2d_39">
      <path clip-path="url(#pfa3385586c)" d="M 61.958 153.9235 
L 663.302291 153.9235 
" style="fill:none;stroke:#000000;stroke-dasharray:0.8,1.32;stroke-dashoffset:0;stroke-opacity:0.5;stroke-width:0.8;"/>
     </g>
     <g id="line2d_40">
      <g>
       <use style="stroke:#000000;stroke-width:0.8;" x="61.958" xlink:href="#m0aeb254a4d" y="153.9235"/>
      </g>
     </g>
     <g id="text_20">
      <!-- 2.75 -->
      <g transform="translate(32.692375 157.722719)scale(0.1 -0.1)">
       <use xlink:href="#DejaVuSans-32"/>
       <use x="63.623047" xlink:href="#DejaVuSans-2e"/>
       <use x="95.410156" xlink:href="#DejaVuSans-37"/>
       <use x="159.033203" xlink:href="#DejaVuSans-35"/>
      </g>
     </g>
    </g>
    <g id="ytick_13">
     <g id="line2d_41">
      <path clip-path="url(#pfa3385586c)" d="M 61.958 133.022 
L 663.302291 133.022 
" style="fill:none;stroke:#000000;stroke-dasharray:0.8,1.32;stroke-dashoffset:0;stroke-opacity:0.5;stroke-width:0.8;"/>
     </g>
     <g id="line2d_42">
      <g>
       <use style="stroke:#000000;stroke-width:0.8;" x="61.958" xlink:href="#m0aeb254a4d" y="133.022"/>
      </g>
     </g>
     <g id="text_21">
      <!-- 3.00 -->
      <g transform="translate(32.692375 136.821219)scale(0.1 -0.1)">
       <defs>
        <path d="M 2597 2516 
Q 3050 2419 3304 2112 
Q 3559 1806 3559 1356 
Q 3559 666 3084 287 
Q 2609 -91 1734 -91 
Q 1441 -91 1130 -33 
Q 819 25 488 141 
L 488 750 
Q 750 597 1062 519 
Q 1375 441 1716 441 
Q 2309 441 2620 675 
Q 2931 909 2931 1356 
Q 2931 1769 2642 2001 
Q 2353 2234 1838 2234 
L 1294 2234 
L 1294 2753 
L 1863 2753 
Q 2328 2753 2575 2939 
Q 2822 3125 2822 3475 
Q 2822 3834 2567 4026 
Q 2313 4219 1838 4219 
Q 1578 4219 1281 4162 
Q 984 4106 628 3988 
L 628 4550 
Q 988 4650 1302 4700 
Q 1616 4750 1894 4750 
Q 2613 4750 3031 4423 
Q 3450 4097 3450 3541 
Q 3450 3153 3228 2886 
Q 3006 2619 2597 2516 
z
" id="DejaVuSans-33" transform="scale(0.015625)"/>
       </defs>
       <use xlink:href="#DejaVuSans-33"/>
       <use x="63.623047" xlink:href="#DejaVuSans-2e"/>
       <use x="95.410156" xlink:href="#DejaVuSans-30"/>
       <use x="159.033203" xlink:href="#DejaVuSans-30"/>
      </g>
     </g>
    </g>
    <g id="ytick_14">
     <g id="line2d_43">
      <path clip-path="url(#pfa3385586c)" d="M 61.958 112.1205 
L 663.302291 112.1205 
" style="fill:none;stroke:#000000;stroke-dasharray:0.8,1.32;stroke-dashoffset:0;stroke-opacity:0.5;stroke-width:0.8;"/>
     </g>
     <g id="line2d_44">
      <g>
       <use style="stroke:#000000;stroke-width:0.8;" x="61.958" xlink:href="#m0aeb254a4d" y="112.1205"/>
      </g>
     </g>
     <g id="text_22">
      <!-- 3.25 -->
      <g transform="translate(32.692375 115.919719)scale(0.1 -0.1)">
       <use xlink:href="#DejaVuSans-33"/>
       <use x="63.623047" xlink:href="#DejaVuSans-2e"/>
       <use x="95.410156" xlink:href="#DejaVuSans-32"/>
       <use x="159.033203" xlink:href="#DejaVuSans-35"/>
      </g>
     </g>
    </g>
    <g id="ytick_15">
     <g id="line2d_45">
      <path clip-path="url(#pfa3385586c)" d="M 61.958 91.219 
L 663.302291 91.219 
" style="fill:none;stroke:#000000;stroke-dasharray:0.8,1.32;stroke-dashoffset:0;stroke-opacity:0.5;stroke-width:0.8;"/>
     </g>
     <g id="line2d_46">
      <g>
       <use style="stroke:#000000;stroke-width:0.8;" x="61.958" xlink:href="#m0aeb254a4d" y="91.219"/>
      </g>
     </g>
     <g id="text_23">
      <!-- 3.50 -->
      <g transform="translate(32.692375 95.018219)scale(0.1 -0.1)">
       <use xlink:href="#DejaVuSans-33"/>
       <use x="63.623047" xlink:href="#DejaVuSans-2e"/>
       <use x="95.410156" xlink:href="#DejaVuSans-35"/>
       <use x="159.033203" xlink:href="#DejaVuSans-30"/>
      </g>
     </g>
    </g>
    <g id="ytick_16">
     <g id="line2d_47">
      <path clip-path="url(#pfa3385586c)" d="M 61.958 70.3175 
L 663.302291 70.3175 
" style="fill:none;stroke:#000000;stroke-dasharray:0.8,1.32;stroke-dashoffset:0;stroke-opacity:0.5;stroke-width:0.8;"/>
     </g>
     <g id="line2d_48">
      <g>
       <use style="stroke:#000000;stroke-width:0.8;" x="61.958" xlink:href="#m0aeb254a4d" y="70.3175"/>
      </g>
     </g>
     <g id="text_24">
      <!-- 3.75 -->
      <g transform="translate(32.692375 74.116719)scale(0.1 -0.1)">
       <use xlink:href="#DejaVuSans-33"/>
       <use x="63.623047" xlink:href="#DejaVuSans-2e"/>
       <use x="95.410156" xlink:href="#DejaVuSans-37"/>
       <use x="159.033203" xlink:href="#DejaVuSans-35"/>
      </g>
     </g>
    </g>
    <g id="ytick_17">
     <g id="line2d_49">
      <path clip-path="url(#pfa3385586c)" d="M 61.958 49.416 
L 663.302291 49.416 
" style="fill:none;stroke:#000000;stroke-dasharray:0.8,1.32;stroke-dashoffset:0;stroke-opacity:0.5;stroke-width:0.8;"/>
     </g>
     <g id="line2d_50">
      <g>
       <use style="stroke:#000000;stroke-width:0.8;" x="61.958" xlink:href="#m0aeb254a4d" y="49.416"/>
      </g>
     </g>
     <g id="text_25">
      <!-- 4.00 -->
      <g transform="translate(32.692375 53.215219)scale(0.1 -0.1)">
       <defs>
        <path d="M 2419 4116 
L 825 1625 
L 2419 1625 
L 2419 4116 
z
M 2253 4666 
L 3047 4666 
L 3047 1625 
L 3713 1625 
L 3713 1100 
L 3047 1100 
L 3047 0 
L 2419 0 
L 2419 1100 
L 313 1100 
L 313 1709 
L 2253 4666 
z
" id="DejaVuSans-34" transform="scale(0.015625)"/>
       </defs>
       <use xlink:href="#DejaVuSans-34"/>
       <use x="63.623047" xlink:href="#DejaVuSans-2e"/>
       <use x="95.410156" xlink:href="#DejaVuSans-30"/>
       <use x="159.033203" xlink:href="#DejaVuSans-30"/>
      </g>
     </g>
    </g>
    <g id="text_26">
     <!-- $R_\mathrm{eff}$ -->
     <g transform="translate(26.612688 224.878)rotate(-90)scale(0.1 -0.1)">
      <defs>
       <path d="M 1613 4147 
L 1294 2491 
L 2106 2491 
Q 2584 2491 2879 2755 
Q 3175 3019 3175 3444 
Q 3175 3784 2976 3965 
Q 2778 4147 2406 4147 
L 1613 4147 
z
M 2772 2241 
Q 2972 2194 3105 2009 
Q 3238 1825 3413 1275 
L 3809 0 
L 3144 0 
L 2778 1197 
Q 2638 1659 2453 1815 
Q 2269 1972 1888 1972 
L 1191 1972 
L 806 0 
L 172 0 
L 1081 4666 
L 2503 4666 
Q 3150 4666 3495 4373 
Q 3841 4081 3841 3531 
Q 3841 3044 3547 2687 
Q 3253 2331 2772 2241 
z
" id="DejaVuSans-Oblique-52" transform="scale(0.015625)"/>
       <path d="M 2375 4863 
L 2375 4384 
L 1825 4384 
Q 1516 4384 1395 4259 
Q 1275 4134 1275 3809 
L 1275 3500 
L 2222 3500 
L 2222 3053 
L 1275 3053 
L 1275 0 
L 697 0 
L 697 3053 
L 147 3053 
L 147 3500 
L 697 3500 
L 697 3744 
Q 697 4328 969 4595 
Q 1241 4863 1831 4863 
L 2375 4863 
z
" id="DejaVuSans-66" transform="scale(0.015625)"/>
      </defs>
      <use transform="translate(0 0.09375)" xlink:href="#DejaVuSans-Oblique-52"/>
      <use transform="translate(69.482422 -16.3125)scale(0.7)" xlink:href="#DejaVuSans-65"/>
      <use transform="translate(112.548828 -16.3125)scale(0.7)" xlink:href="#DejaVuSans-66"/>
      <use transform="translate(137.192383 -16.3125)scale(0.7)" xlink:href="#DejaVuSans-66"/>
     </g>
    </g>
   </g>
   <g id="PolyCollection_34">
    <path clip-path="url(#pfa3385586c)" d="M 91.291868 151.899962 
L 91.291868 204.536076 
L 91.291868 198.325229 
L 105.958802 198.325229 
L 105.958802 193.893625 
L 120.625736 193.893625 
L 120.625736 192.249048 
L 135.29267 192.249048 
L 135.29267 194.219903 
L 149.959604 194.219903 
L 149.959604 200.144627 
L 164.626537 200.144627 
L 164.626537 209.589791 
L 179.293471 209.589791 
L 179.293471 221.373878 
L 193.960405 221.373878 
L 193.960405 233.986034 
L 208.627339 233.986034 
L 208.627339 246.061261 
L 223.294273 246.061261 
L 223.294273 256.638317 
L 237.961207 256.638317 
L 237.961207 265.210426 
L 252.628141 265.210426 
L 252.628141 271.664933 
L 267.295075 271.664933 
L 267.295075 189.445063 
L 267.295075 189.445063 
L 252.628141 189.445063 
L 252.628141 187.61921 
L 237.961207 187.61921 
L 237.961207 184.750111 
L 223.294273 184.750111 
L 223.294273 180.699004 
L 208.627339 180.699004 
L 208.627339 175.496713 
L 193.960405 175.496713 
L 193.960405 169.384422 
L 179.293471 169.384422 
L 179.293471 162.807436 
L 164.626537 162.807436 
L 164.626537 156.393467 
L 149.959604 156.393467 
L 149.959604 150.951345 
L 135.29267 150.951345 
L 135.29267 147.372579 
L 120.625736 147.372579 
L 120.625736 146.321394 
L 105.958802 146.321394 
L 105.958802 147.951692 
L 91.291868 147.951692 
L 91.291868 151.899962 
z
" style="fill:url(#h80575bfa1f);fill-opacity:0.2;stroke:#0000ff;stroke-opacity:0.2;"/>
   </g>
   <g id="line2d_51">
    <path clip-path="url(#pfa3385586c)" d="M 61.958 300.234 
L 663.302291 300.234 
" style="fill:none;stroke:#000000;stroke-linecap:square;"/>
   </g>
   <g id="patch_3">
    <path d="M 61.958 383.84 
L 61.958 49.416 
" style="fill:none;stroke:#000000;stroke-linecap:square;stroke-linejoin:miter;stroke-width:0.8;"/>
   </g>
   <g id="patch_4">
    <path d="M 663.302291 383.84 
L 663.302291 49.416 
" style="fill:none;stroke:#000000;stroke-linecap:square;stroke-linejoin:miter;stroke-width:0.8;"/>
   </g>
   <g id="patch_5">
    <path d="M 61.958 383.84 
L 663.302291 383.84 
" style="fill:none;stroke:#000000;stroke-linecap:square;stroke-linejoin:miter;stroke-width:0.8;"/>
   </g>
   <g id="patch_6">
    <path d="M 61.958 49.416 
L 663.302291 49.416 
" style="fill:none;stroke:#000000;stroke-linecap:square;stroke-linejoin:miter;stroke-width:0.8;"/>
   </g>
   <g id="text_27">
    <!-- $R_\mathrm{eff}$ in New Zealand, with restriction levels and daily cases -->
    <g transform="translate(187.430145 29.95425)scale(0.12 -0.12)">
     <defs>
      <path id="DejaVuSans-20" transform="scale(0.015625)"/>
      <path d="M 603 3500 
L 1178 3500 
L 1178 0 
L 603 0 
L 603 3500 
z
M 603 4863 
L 1178 4863 
L 1178 4134 
L 603 4134 
L 603 4863 
z
" id="DejaVuSans-69" transform="scale(0.015625)"/>
      <path d="M 3513 2113 
L 3513 0 
L 2938 0 
L 2938 2094 
Q 2938 2591 2744 2837 
Q 2550 3084 2163 3084 
Q 1697 3084 1428 2787 
Q 1159 2491 1159 1978 
L 1159 0 
L 581 0 
L 581 3500 
L 1159 3500 
L 1159 2956 
Q 1366 3272 1645 3428 
Q 1925 3584 2291 3584 
Q 2894 3584 3203 3211 
Q 3513 2838 3513 2113 
z
" id="DejaVuSans-6e" transform="scale(0.015625)"/>
      <path d="M 628 4666 
L 1478 4666 
L 3547 763 
L 3547 4666 
L 4159 4666 
L 4159 0 
L 3309 0 
L 1241 3903 
L 1241 0 
L 628 0 
L 628 4666 
z
" id="DejaVuSans-4e" transform="scale(0.015625)"/>
      <path d="M 269 3500 
L 844 3500 
L 1563 769 
L 2278 3500 
L 2956 3500 
L 3675 769 
L 4391 3500 
L 4966 3500 
L 4050 0 
L 3372 0 
L 2619 2869 
L 1863 0 
L 1184 0 
L 269 3500 
z
" id="DejaVuSans-77" transform="scale(0.015625)"/>
      <path d="M 359 4666 
L 4025 4666 
L 4025 4184 
L 1075 531 
L 4097 531 
L 4097 0 
L 288 0 
L 288 481 
L 3238 4134 
L 359 4134 
L 359 4666 
z
" id="DejaVuSans-5a" transform="scale(0.015625)"/>
      <path d="M 2194 1759 
Q 1497 1759 1228 1600 
Q 959 1441 959 1056 
Q 959 750 1161 570 
Q 1363 391 1709 391 
Q 2188 391 2477 730 
Q 2766 1069 2766 1631 
L 2766 1759 
L 2194 1759 
z
M 3341 1997 
L 3341 0 
L 2766 0 
L 2766 531 
Q 2569 213 2275 61 
Q 1981 -91 1556 -91 
Q 1019 -91 701 211 
Q 384 513 384 1019 
Q 384 1609 779 1909 
Q 1175 2209 1959 2209 
L 2766 2209 
L 2766 2266 
Q 2766 2663 2505 2880 
Q 2244 3097 1772 3097 
Q 1472 3097 1187 3025 
Q 903 2953 641 2809 
L 641 3341 
Q 956 3463 1253 3523 
Q 1550 3584 1831 3584 
Q 2591 3584 2966 3190 
Q 3341 2797 3341 1997 
z
" id="DejaVuSans-61" transform="scale(0.015625)"/>
      <path d="M 603 4863 
L 1178 4863 
L 1178 0 
L 603 0 
L 603 4863 
z
" id="DejaVuSans-6c" transform="scale(0.015625)"/>
      <path d="M 2906 2969 
L 2906 4863 
L 3481 4863 
L 3481 0 
L 2906 0 
L 2906 525 
Q 2725 213 2448 61 
Q 2172 -91 1784 -91 
Q 1150 -91 751 415 
Q 353 922 353 1747 
Q 353 2572 751 3078 
Q 1150 3584 1784 3584 
Q 2172 3584 2448 3432 
Q 2725 3281 2906 2969 
z
M 947 1747 
Q 947 1113 1208 752 
Q 1469 391 1925 391 
Q 2381 391 2643 752 
Q 2906 1113 2906 1747 
Q 2906 2381 2643 2742 
Q 2381 3103 1925 3103 
Q 1469 3103 1208 2742 
Q 947 2381 947 1747 
z
" id="DejaVuSans-64" transform="scale(0.015625)"/>
      <path d="M 750 794 
L 1409 794 
L 1409 256 
L 897 -744 
L 494 -744 
L 750 256 
L 750 794 
z
" id="DejaVuSans-2c" transform="scale(0.015625)"/>
      <path d="M 1172 4494 
L 1172 3500 
L 2356 3500 
L 2356 3053 
L 1172 3053 
L 1172 1153 
Q 1172 725 1289 603 
Q 1406 481 1766 481 
L 2356 481 
L 2356 0 
L 1766 0 
Q 1100 0 847 248 
Q 594 497 594 1153 
L 594 3053 
L 172 3053 
L 172 3500 
L 594 3500 
L 594 4494 
L 1172 4494 
z
" id="DejaVuSans-74" transform="scale(0.015625)"/>
      <path d="M 3513 2113 
L 3513 0 
L 2938 0 
L 2938 2094 
Q 2938 2591 2744 2837 
Q 2550 3084 2163 3084 
Q 1697 3084 1428 2787 
Q 1159 2491 1159 1978 
L 1159 0 
L 581 0 
L 581 4863 
L 1159 4863 
L 1159 2956 
Q 1366 3272 1645 3428 
Q 1925 3584 2291 3584 
Q 2894 3584 3203 3211 
Q 3513 2838 3513 2113 
z
" id="DejaVuSans-68" transform="scale(0.015625)"/>
      <path d="M 2631 2963 
Q 2534 3019 2420 3045 
Q 2306 3072 2169 3072 
Q 1681 3072 1420 2755 
Q 1159 2438 1159 1844 
L 1159 0 
L 581 0 
L 581 3500 
L 1159 3500 
L 1159 2956 
Q 1341 3275 1631 3429 
Q 1922 3584 2338 3584 
Q 2397 3584 2469 3576 
Q 2541 3569 2628 3553 
L 2631 2963 
z
" id="DejaVuSans-72" transform="scale(0.015625)"/>
      <path d="M 2834 3397 
L 2834 2853 
Q 2591 2978 2328 3040 
Q 2066 3103 1784 3103 
Q 1356 3103 1142 2972 
Q 928 2841 928 2578 
Q 928 2378 1081 2264 
Q 1234 2150 1697 2047 
L 1894 2003 
Q 2506 1872 2764 1633 
Q 3022 1394 3022 966 
Q 3022 478 2636 193 
Q 2250 -91 1575 -91 
Q 1294 -91 989 -36 
Q 684 19 347 128 
L 347 722 
Q 666 556 975 473 
Q 1284 391 1588 391 
Q 1994 391 2212 530 
Q 2431 669 2431 922 
Q 2431 1156 2273 1281 
Q 2116 1406 1581 1522 
L 1381 1569 
Q 847 1681 609 1914 
Q 372 2147 372 2553 
Q 372 3047 722 3315 
Q 1072 3584 1716 3584 
Q 2034 3584 2315 3537 
Q 2597 3491 2834 3397 
z
" id="DejaVuSans-73" transform="scale(0.015625)"/>
      <path d="M 3122 3366 
L 3122 2828 
Q 2878 2963 2633 3030 
Q 2388 3097 2138 3097 
Q 1578 3097 1268 2742 
Q 959 2388 959 1747 
Q 959 1106 1268 751 
Q 1578 397 2138 397 
Q 2388 397 2633 464 
Q 2878 531 3122 666 
L 3122 134 
Q 2881 22 2623 -34 
Q 2366 -91 2075 -91 
Q 1284 -91 818 406 
Q 353 903 353 1747 
Q 353 2603 823 3093 
Q 1294 3584 2113 3584 
Q 2378 3584 2631 3529 
Q 2884 3475 3122 3366 
z
" id="DejaVuSans-63" transform="scale(0.015625)"/>
      <path d="M 1959 3097 
Q 1497 3097 1228 2736 
Q 959 2375 959 1747 
Q 959 1119 1226 758 
Q 1494 397 1959 397 
Q 2419 397 2687 759 
Q 2956 1122 2956 1747 
Q 2956 2369 2687 2733 
Q 2419 3097 1959 3097 
z
M 1959 3584 
Q 2709 3584 3137 3096 
Q 3566 2609 3566 1747 
Q 3566 888 3137 398 
Q 2709 -91 1959 -91 
Q 1206 -91 779 398 
Q 353 888 353 1747 
Q 353 2609 779 3096 
Q 1206 3584 1959 3584 
z
" id="DejaVuSans-6f" transform="scale(0.015625)"/>
      <path d="M 191 3500 
L 800 3500 
L 1894 563 
L 2988 3500 
L 3597 3500 
L 2284 0 
L 1503 0 
L 191 3500 
z
" id="DejaVuSans-76" transform="scale(0.015625)"/>
      <path d="M 2059 -325 
Q 1816 -950 1584 -1140 
Q 1353 -1331 966 -1331 
L 506 -1331 
L 506 -850 
L 844 -850 
Q 1081 -850 1212 -737 
Q 1344 -625 1503 -206 
L 1606 56 
L 191 3500 
L 800 3500 
L 1894 763 
L 2988 3500 
L 3597 3500 
L 2059 -325 
z
" id="DejaVuSans-79" transform="scale(0.015625)"/>
     </defs>
     <use transform="translate(0 0.015625)" xlink:href="#DejaVuSans-Oblique-52"/>
     <use transform="translate(69.482422 -16.390625)scale(0.7)" xlink:href="#DejaVuSans-65"/>
     <use transform="translate(112.548828 -16.390625)scale(0.7)" xlink:href="#DejaVuSans-66"/>
     <use transform="translate(137.192383 -16.390625)scale(0.7)" xlink:href="#DejaVuSans-66"/>
     <use transform="translate(164.570312 0.015625)" xlink:href="#DejaVuSans-20"/>
     <use transform="translate(196.357422 0.015625)" xlink:href="#DejaVuSans-69"/>
     <use transform="translate(224.140625 0.015625)" xlink:href="#DejaVuSans-6e"/>
     <use transform="translate(287.519531 0.015625)" xlink:href="#DejaVuSans-20"/>
     <use transform="translate(319.306641 0.015625)" xlink:href="#DejaVuSans-4e"/>
     <use transform="translate(394.111328 0.015625)" xlink:href="#DejaVuSans-65"/>
     <use transform="translate(455.634766 0.015625)" xlink:href="#DejaVuSans-77"/>
     <use transform="translate(537.421875 0.015625)" xlink:href="#DejaVuSans-20"/>
     <use transform="translate(569.208984 0.015625)" xlink:href="#DejaVuSans-5a"/>
     <use transform="translate(637.714844 0.015625)" xlink:href="#DejaVuSans-65"/>
     <use transform="translate(699.238281 0.015625)" xlink:href="#DejaVuSans-61"/>
     <use transform="translate(760.517578 0.015625)" xlink:href="#DejaVuSans-6c"/>
     <use transform="translate(788.300781 0.015625)" xlink:href="#DejaVuSans-61"/>
     <use transform="translate(849.580078 0.015625)" xlink:href="#DejaVuSans-6e"/>
     <use transform="translate(912.958984 0.015625)" xlink:href="#DejaVuSans-64"/>
     <use transform="translate(976.435547 0.015625)" xlink:href="#DejaVuSans-2c"/>
     <use transform="translate(1008.222656 0.015625)" xlink:href="#DejaVuSans-20"/>
     <use transform="translate(1040.009766 0.015625)" xlink:href="#DejaVuSans-77"/>
     <use transform="translate(1121.796875 0.015625)" xlink:href="#DejaVuSans-69"/>
     <use transform="translate(1149.580078 0.015625)" xlink:href="#DejaVuSans-74"/>
     <use transform="translate(1188.789062 0.015625)" xlink:href="#DejaVuSans-68"/>
     <use transform="translate(1252.167969 0.015625)" xlink:href="#DejaVuSans-20"/>
     <use transform="translate(1283.955078 0.015625)" xlink:href="#DejaVuSans-72"/>
     <use transform="translate(1325.068359 0.015625)" xlink:href="#DejaVuSans-65"/>
     <use transform="translate(1386.591797 0.015625)" xlink:href="#DejaVuSans-73"/>
     <use transform="translate(1438.691406 0.015625)" xlink:href="#DejaVuSans-74"/>
     <use transform="translate(1477.900391 0.015625)" xlink:href="#DejaVuSans-72"/>
     <use transform="translate(1519.013672 0.015625)" xlink:href="#DejaVuSans-69"/>
     <use transform="translate(1546.796875 0.015625)" xlink:href="#DejaVuSans-63"/>
     <use transform="translate(1601.777344 0.015625)" xlink:href="#DejaVuSans-74"/>
     <use transform="translate(1640.986328 0.015625)" xlink:href="#DejaVuSans-69"/>
     <use transform="translate(1668.769531 0.015625)" xlink:href="#DejaVuSans-6f"/>
     <use transform="translate(1729.951172 0.015625)" xlink:href="#DejaVuSans-6e"/>
     <use transform="translate(1793.330078 0.015625)" xlink:href="#DejaVuSans-20"/>
     <use transform="translate(1825.117188 0.015625)" xlink:href="#DejaVuSans-6c"/>
     <use transform="translate(1852.900391 0.015625)" xlink:href="#DejaVuSans-65"/>
     <use transform="translate(1914.423828 0.015625)" xlink:href="#DejaVuSans-76"/>
     <use transform="translate(1973.603516 0.015625)" xlink:href="#DejaVuSans-65"/>
     <use transform="translate(2035.126953 0.015625)" xlink:href="#DejaVuSans-6c"/>
     <use transform="translate(2062.910156 0.015625)" xlink:href="#DejaVuSans-73"/>
     <use transform="translate(2115.009766 0.015625)" xlink:href="#DejaVuSans-20"/>
     <use transform="translate(2146.796875 0.015625)" xlink:href="#DejaVuSans-61"/>
     <use transform="translate(2208.076172 0.015625)" xlink:href="#DejaVuSans-6e"/>
     <use transform="translate(2271.455078 0.015625)" xlink:href="#DejaVuSans-64"/>
     <use transform="translate(2334.931641 0.015625)" xlink:href="#DejaVuSans-20"/>
     <use transform="translate(2366.71875 0.015625)" xlink:href="#DejaVuSans-64"/>
     <use transform="translate(2430.195312 0.015625)" xlink:href="#DejaVuSans-61"/>
     <use transform="translate(2491.474609 0.015625)" xlink:href="#DejaVuSans-69"/>
     <use transform="translate(2519.257812 0.015625)" xlink:href="#DejaVuSans-6c"/>
     <use transform="translate(2547.041016 0.015625)" xlink:href="#DejaVuSans-79"/>
     <use transform="translate(2606.220703 0.015625)" xlink:href="#DejaVuSans-20"/>
     <use transform="translate(2638.007812 0.015625)" xlink:href="#DejaVuSans-63"/>
     <use transform="translate(2692.988281 0.015625)" xlink:href="#DejaVuSans-61"/>
     <use transform="translate(2754.267578 0.015625)" xlink:href="#DejaVuSans-73"/>
     <use transform="translate(2806.367188 0.015625)" xlink:href="#DejaVuSans-65"/>
     <use transform="translate(2867.890625 0.015625)" xlink:href="#DejaVuSans-73"/>
    </g>
    <!-- Latest estimate: $R_\mathrm{eff}=1.83 \pm 0.49$ -->
    <g transform="translate(260.630145 43.416)scale(0.12 -0.12)">
     <defs>
      <path d="M 628 4666 
L 1259 4666 
L 1259 531 
L 3531 531 
L 3531 0 
L 628 0 
L 628 4666 
z
" id="DejaVuSans-4c" transform="scale(0.015625)"/>
      <path d="M 3328 2828 
Q 3544 3216 3844 3400 
Q 4144 3584 4550 3584 
Q 5097 3584 5394 3201 
Q 5691 2819 5691 2113 
L 5691 0 
L 5113 0 
L 5113 2094 
Q 5113 2597 4934 2840 
Q 4756 3084 4391 3084 
Q 3944 3084 3684 2787 
Q 3425 2491 3425 1978 
L 3425 0 
L 2847 0 
L 2847 2094 
Q 2847 2600 2669 2842 
Q 2491 3084 2119 3084 
Q 1678 3084 1418 2786 
Q 1159 2488 1159 1978 
L 1159 0 
L 581 0 
L 581 3500 
L 1159 3500 
L 1159 2956 
Q 1356 3278 1631 3431 
Q 1906 3584 2284 3584 
Q 2666 3584 2933 3390 
Q 3200 3197 3328 2828 
z
" id="DejaVuSans-6d" transform="scale(0.015625)"/>
      <path d="M 750 794 
L 1409 794 
L 1409 0 
L 750 0 
L 750 794 
z
M 750 3309 
L 1409 3309 
L 1409 2516 
L 750 2516 
L 750 3309 
z
" id="DejaVuSans-3a" transform="scale(0.015625)"/>
      <path d="M 678 2906 
L 4684 2906 
L 4684 2381 
L 678 2381 
L 678 2906 
z
M 678 1631 
L 4684 1631 
L 4684 1100 
L 678 1100 
L 678 1631 
z
" id="DejaVuSans-3d" transform="scale(0.015625)"/>
      <path d="M 2034 2216 
Q 1584 2216 1326 1975 
Q 1069 1734 1069 1313 
Q 1069 891 1326 650 
Q 1584 409 2034 409 
Q 2484 409 2743 651 
Q 3003 894 3003 1313 
Q 3003 1734 2745 1975 
Q 2488 2216 2034 2216 
z
M 1403 2484 
Q 997 2584 770 2862 
Q 544 3141 544 3541 
Q 544 4100 942 4425 
Q 1341 4750 2034 4750 
Q 2731 4750 3128 4425 
Q 3525 4100 3525 3541 
Q 3525 3141 3298 2862 
Q 3072 2584 2669 2484 
Q 3125 2378 3379 2068 
Q 3634 1759 3634 1313 
Q 3634 634 3220 271 
Q 2806 -91 2034 -91 
Q 1263 -91 848 271 
Q 434 634 434 1313 
Q 434 1759 690 2068 
Q 947 2378 1403 2484 
z
M 1172 3481 
Q 1172 3119 1398 2916 
Q 1625 2713 2034 2713 
Q 2441 2713 2670 2916 
Q 2900 3119 2900 3481 
Q 2900 3844 2670 4047 
Q 2441 4250 2034 4250 
Q 1625 4250 1398 4047 
Q 1172 3844 1172 3481 
z
" id="DejaVuSans-38" transform="scale(0.015625)"/>
      <path d="M 2944 4013 
L 2944 2803 
L 4684 2803 
L 4684 2272 
L 2944 2272 
L 2944 1063 
L 2419 1063 
L 2419 2272 
L 678 2272 
L 678 2803 
L 2419 2803 
L 2419 4013 
L 2944 4013 
z
M 678 531 
L 4684 531 
L 4684 0 
L 678 0 
L 678 531 
z
" id="DejaVuSans-b1" transform="scale(0.015625)"/>
      <path d="M 703 97 
L 703 672 
Q 941 559 1184 500 
Q 1428 441 1663 441 
Q 2288 441 2617 861 
Q 2947 1281 2994 2138 
Q 2813 1869 2534 1725 
Q 2256 1581 1919 1581 
Q 1219 1581 811 2004 
Q 403 2428 403 3163 
Q 403 3881 828 4315 
Q 1253 4750 1959 4750 
Q 2769 4750 3195 4129 
Q 3622 3509 3622 2328 
Q 3622 1225 3098 567 
Q 2575 -91 1691 -91 
Q 1453 -91 1209 -44 
Q 966 3 703 97 
z
M 1959 2075 
Q 2384 2075 2632 2365 
Q 2881 2656 2881 3163 
Q 2881 3666 2632 3958 
Q 2384 4250 1959 4250 
Q 1534 4250 1286 3958 
Q 1038 3666 1038 3163 
Q 1038 2656 1286 2365 
Q 1534 2075 1959 2075 
z
" id="DejaVuSans-39" transform="scale(0.015625)"/>
     </defs>
     <use transform="translate(0 0.015625)" xlink:href="#DejaVuSans-4c"/>
     <use transform="translate(55.712891 0.015625)" xlink:href="#DejaVuSans-61"/>
     <use transform="translate(116.992188 0.015625)" xlink:href="#DejaVuSans-74"/>
     <use transform="translate(156.201172 0.015625)" xlink:href="#DejaVuSans-65"/>
     <use transform="translate(217.724609 0.015625)" xlink:href="#DejaVuSans-73"/>
     <use transform="translate(269.824219 0.015625)" xlink:href="#DejaVuSans-74"/>
     <use transform="translate(309.033203 0.015625)" xlink:href="#DejaVuSans-20"/>
     <use transform="translate(340.820312 0.015625)" xlink:href="#DejaVuSans-65"/>
     <use transform="translate(402.34375 0.015625)" xlink:href="#DejaVuSans-73"/>
     <use transform="translate(454.443359 0.015625)" xlink:href="#DejaVuSans-74"/>
     <use transform="translate(493.652344 0.015625)" xlink:href="#DejaVuSans-69"/>
     <use transform="translate(521.435547 0.015625)" xlink:href="#DejaVuSans-6d"/>
     <use transform="translate(618.847656 0.015625)" xlink:href="#DejaVuSans-61"/>
     <use transform="translate(680.126953 0.015625)" xlink:href="#DejaVuSans-74"/>
     <use transform="translate(719.335938 0.015625)" xlink:href="#DejaVuSans-65"/>
     <use transform="translate(780.859375 0.015625)" xlink:href="#DejaVuSans-3a"/>
     <use transform="translate(814.550781 0.015625)" xlink:href="#DejaVuSans-20"/>
     <use transform="translate(846.337891 0.015625)" xlink:href="#DejaVuSans-Oblique-52"/>
     <use transform="translate(915.820312 -16.390625)scale(0.7)" xlink:href="#DejaVuSans-65"/>
     <use transform="translate(958.886719 -16.390625)scale(0.7)" xlink:href="#DejaVuSans-66"/>
     <use transform="translate(983.530273 -16.390625)scale(0.7)" xlink:href="#DejaVuSans-66"/>
     <use transform="translate(1030.390625 0.015625)" xlink:href="#DejaVuSans-3d"/>
     <use transform="translate(1133.662109 0.015625)" xlink:href="#DejaVuSans-31"/>
     <use transform="translate(1197.285156 0.015625)" xlink:href="#DejaVuSans-2e"/>
     <use transform="translate(1226.447266 0.015625)" xlink:href="#DejaVuSans-38"/>
     <use transform="translate(1290.070312 0.015625)" xlink:href="#DejaVuSans-33"/>
     <use transform="translate(1373.175781 0.015625)" xlink:href="#DejaVuSans-b1"/>
     <use transform="translate(1476.447266 0.015625)" xlink:href="#DejaVuSans-30"/>
     <use transform="translate(1540.070312 0.015625)" xlink:href="#DejaVuSans-2e"/>
     <use transform="translate(1571.857422 0.015625)" xlink:href="#DejaVuSans-34"/>
     <use transform="translate(1635.480469 0.015625)" xlink:href="#DejaVuSans-39"/>
    </g>
   </g>
  </g>
  <g id="axes_2">
   <g id="PolyCollection_35">
    <path clip-path="url(#pfa3385586c)" d="M 259.961608 275.801863 
L 259.961608 324.591102 
L 274.628542 320.288246 
L 289.295476 315.717361 
L 303.96241 310.849109 
L 318.629344 305.656212 
L 333.296278 300.111778 
L 347.963211 294.188389 
L 362.630145 287.857558 
L 377.297079 281.089353 
L 391.964013 273.852116 
L 406.630947 266.112232 
L 421.297881 257.833916 
L 435.964815 248.97901 
L 450.631749 239.506788 
L 465.298683 229.373748 
L 479.965617 218.533402 
L 494.632551 206.936057 
L 509.299485 194.528575 
L 523.966419 181.254132 
L 538.633352 167.051951 
L 553.300286 151.857023 
L 567.96722 135.599804 
L 582.634154 118.205902 
L 597.301088 99.595729 
L 611.968022 79.684139 
L 626.634956 58.38004 
L 641.30189 35.585972 
L 655.968824 11.197665 
L 670.635758 -14.896441 
L 685.302692 -42.815702 
L 699.969626 -72.687826 
L 714.63656 -104.649443 
L 729.303493 -138.846738 
L 743.970427 -175.436126 
L 758.637361 -214.584954 
L 773.304295 -256.472268 
L 787.971229 -301.28965 
L 802.638163 -349.242068 
L 817.305097 -400.548828 
L 831.972031 -455.444577 
L 846.638965 -514.180376 
L 861.305899 -577.024831 
L 875.972833 -644.265354 
L 890.639767 -716.209447 
L 905.306701 -793.186121 
L 919.973634 -875.547404 
L 934.640568 -963.669936 
L 949.307502 -1057.956707 
L 963.974436 -1158.838895 
L 978.64137 -1266.777827 
L 993.308304 -1382.267103 
L 1007.975238 -1505.834849 
L 1022.642172 -1638.046122 
L 1037.309106 -1779.505496 
L 1051.97604 -1930.859853 
L 1066.642974 -2092.801302 
L 1081.309908 -2266.070342 
L 1095.976842 -2451.459304 
L 1110.643775 -2649.81591 
L 1125.310709 -2862.047191 
L 1139.977643 -3089.123579 
L 1154.644577 -3332.083428 
L 1169.311511 -3592.03769 
L 1183.978445 -3870.175032 
L 1198.645379 -4167.767234 
L 1213.312313 -4486.17505 
L 1227.979247 -4826.854409 
L 1242.646181 -5191.363041 
L 1257.313115 -5581.367654 
L 1271.980049 -5998.65153 
L 1286.646983 -6445.122665 
L 1301.313916 -6922.82244 
L 1315.98085 -7433.93516 
L 1330.647784 -7980.797792 
L 1345.314718 -8565.910733 
L 1359.981652 -9191.949314 
L 1374.648586 -9861.776001 
L 1389.31552 -10578.453416 
L 1403.982454 -11345.258416 
L 1418.649388 -12165.696984 
L 1433.316322 -13043.520371 
L 1447.983256 -13982.742201 
L 1462.65019 -14987.656732 
L 1477.317124 -16062.858671 
L 1491.984057 -17213.263965 
L 1506.650991 -18444.132504 
L 1521.317925 -19761.091891 
L 1535.984859 -21170.163603 
L 1550.651793 -22677.789856 
L 1565.318727 -24290.863897 
L 1579.985661 -26016.76059 
L 1594.652595 -27863.371026 
L 1609.319529 -29839.13803 
L 1623.986463 -31953.094741 
L 1638.653397 -34214.906466 
L 1653.320331 -36634.914093 
L 1667.987265 -39224.182111 
L 1682.654198 -41994.54855 
L 1697.321132 -44958.679171 
L 1711.988066 -48130.126541 
L 1726.655 -51523.389574 
L 1741.321934 -55153.983182 
L 1755.988868 -59038.505732 
L 1770.655802 -63194.716603 
L 1785.322736 -67641.618525 
L 1799.98967 -72399.541989 
L 1814.656604 -77490.238964 
L 1829.323538 -82936.985473 
L 1843.990472 -88764.681527 
L 1858.657405 -94999.972115 
L 1873.324339 -101671.363656 
L 1887.991273 -108809.355702 
L 1902.658207 -116446.583935 
L 1917.325141 -124617.963905 
L 1931.992075 -133360.854339 
L 1946.659009 -142715.225843 
L 1961.325943 -152723.845026 
L 1975.992877 -163432.467742 
L 1990.659811 -174890.055709 
L 2005.326745 -187148.986062 
L 2019.993679 -200265.309176 
L 2034.660613 -214298.98622 
L 2049.327546 -229314.176642 
L 2063.99448 -245379.529736 
L 2078.661414 -262568.488577 
L 2093.328348 -280959.637656 
L 2107.995282 -300637.059687 
L 2122.662216 -321690.712083 
L 2137.32915 -344216.847715 
L 2151.996084 -368318.451493 
L 2166.663018 -394105.704239 
L 2181.329952 -421696.506237 
L 2195.996886 -451216.991008 
L 2210.66382 -482802.114636 
L 2225.330754 -516596.281467 
L 2239.997687 -552753.985519 
L 2254.664621 -591440.522673 
L 2269.331555 -632832.770094 
L 2283.998489 -677119.945665 
L 2298.665423 -724504.527319 
L 2313.332357 -775203.135289 
L 2327.999291 -829447.546575 
L 2342.666225 -835676.16 
L 2357.333159 -835676.16 
L 2372.000093 -835676.16 
L 2386.667027 -835676.16 
L 2401.333961 -835676.16 
L 2416.000895 -835676.16 
L 2430.667828 -835676.16 
L 2445.334762 -835676.16 
L 2460.001696 -835676.16 
L 2474.66863 -835676.16 
L 2489.335564 -835676.16 
L 2504.002498 -835676.16 
L 2518.669432 -835676.16 
L 2533.336366 -835676.16 
L 2548.0033 -835676.16 
L 2548.0033 -835676.16 
L 2548.0033 -835676.16 
L 2533.336366 -835676.16 
L 2518.669432 -835676.16 
L 2504.002498 -835676.16 
L 2489.335564 -835676.16 
L 2474.66863 -835676.16 
L 2460.001696 -835676.16 
L 2445.334762 -835676.16 
L 2430.667828 -835676.16 
L 2416.000895 -835676.16 
L 2401.333961 -835676.16 
L 2386.667027 -835676.16 
L 2372.000093 -835676.16 
L 2357.333159 -835676.16 
L 2342.666225 -835676.16 
L 2327.999291 -835676.16 
L 2313.332357 -835676.16 
L 2298.665423 -835676.16 
L 2283.998489 -835676.16 
L 2269.331555 -835676.16 
L 2254.664621 -835676.16 
L 2239.997687 -835676.16 
L 2225.330754 -835676.16 
L 2210.66382 -835676.16 
L 2195.996886 -835676.16 
L 2181.329952 -835676.16 
L 2166.663018 -835676.16 
L 2151.996084 -835676.16 
L 2137.32915 -835676.16 
L 2122.662216 -835676.16 
L 2107.995282 -835676.16 
L 2093.328348 -835676.16 
L 2078.661414 -835676.16 
L 2063.99448 -835676.16 
L 2049.327546 -835676.16 
L 2034.660613 -835676.16 
L 2019.993679 -835676.16 
L 2005.326745 -835676.16 
L 1990.659811 -835676.16 
L 1975.992877 -835676.16 
L 1961.325943 -835676.16 
L 1946.659009 -835676.16 
L 1931.992075 -835676.16 
L 1917.325141 -835676.16 
L 1902.658207 -835676.16 
L 1887.991273 -835676.16 
L 1873.324339 -835676.16 
L 1858.657405 -835676.16 
L 1843.990472 -835676.16 
L 1829.323538 -835676.16 
L 1814.656604 -835676.16 
L 1799.98967 -835676.16 
L 1785.322736 -835676.16 
L 1770.655802 -835676.16 
L 1755.988868 -835676.16 
L 1741.321934 -835676.16 
L 1726.655 -835676.16 
L 1711.988066 -835676.16 
L 1697.321132 -835676.16 
L 1682.654198 -835676.16 
L 1667.987265 -835676.16 
L 1653.320331 -835676.16 
L 1638.653397 -835676.16 
L 1623.986463 -835676.16 
L 1609.319529 -835676.16 
L 1594.652595 -835676.16 
L 1579.985661 -835676.16 
L 1565.318727 -835676.16 
L 1550.651793 -835676.16 
L 1535.984859 -835676.16 
L 1521.317925 -835676.16 
L 1506.650991 -835676.16 
L 1491.984057 -835676.16 
L 1477.317124 -835676.16 
L 1462.65019 -835676.16 
L 1447.983256 -835676.16 
L 1433.316322 -835676.16 
L 1418.649388 -835676.16 
L 1403.982454 -835676.16 
L 1389.31552 -835676.16 
L 1374.648586 -835676.16 
L 1359.981652 -835676.16 
L 1345.314718 -835676.16 
L 1330.647784 -835676.16 
L 1315.98085 -835676.16 
L 1301.313916 -835676.16 
L 1286.646983 -835676.16 
L 1271.980049 -835676.16 
L 1257.313115 -835676.16 
L 1242.646181 -835676.16 
L 1227.979247 -835676.16 
L 1213.312313 -835676.16 
L 1198.645379 -835676.16 
L 1183.978445 -835676.16 
L 1169.311511 -835676.16 
L 1154.644577 -835676.16 
L 1139.977643 -835676.16 
L 1125.310709 -835676.16 
L 1110.643775 -835676.16 
L 1095.976842 -835676.16 
L 1081.309908 -835676.16 
L 1066.642974 -835676.16 
L 1051.97604 -835676.16 
L 1037.309106 -835676.16 
L 1022.642172 -835676.16 
L 1007.975238 -794712.106254 
L 993.308304 -667167.539094 
L 978.64137 -560083.507676 
L 963.974436 -470177.692745 
L 949.307502 -394694.338945 
L 934.640568 -331319.778445 
L 919.973634 -278111.51277 
L 905.306701 -233438.665263 
L 890.639767 -195931.988044 
L 875.972833 -164441.892655 
L 861.305899 -138003.209579 
L 846.638965 -115805.603138 
L 831.972031 -97168.733543 
L 817.305097 -81521.399922 
L 802.638163 -68384.034715 
L 787.971229 -57354.002133 
L 773.304295 -48093.256588 
L 758.637361 -40317.981125 
L 743.970427 -33789.888767 
L 729.303493 -28308.917026 
L 714.63656 -23707.097031 
L 699.969626 -19843.404952 
L 685.302692 -16599.439038 
L 670.635758 -13875.790896 
L 655.968824 -11588.998721 
L 641.30189 -9668.988867 
L 626.634956 -8056.928382 
L 611.968022 -6703.421756 
L 597.301088 -5566.997001 
L 582.634154 -4612.834577 
L 567.96722 -3811.700284 
L 553.300286 -3139.049291 
L 538.633352 -2574.273881 
L 523.966419 -2100.071924 
L 509.299485 -1701.916601 
L 494.632551 -1367.611238 
L 479.965617 -1086.915527 
L 465.298683 -851.231726 
L 450.631749 -653.341171 
L 435.964815 -487.183095 
L 421.297881 -347.668894 
L 406.630947 -230.526222 
L 391.964013 -132.168084 
L 377.297079 -49.582945 
L 362.630145 19.757519 
L 347.963211 77.97584 
L 333.296278 126.853724 
L 318.629344 167.886519 
L 303.96241 202.328827 
L 289.295476 231.232571 
L 274.628542 255.478521 
L 259.961608 275.801863 
z
" style="fill:#ff00ff;fill-opacity:0.3;"/>
   </g>
   <g id="matplotlib.axis_3">
    <g id="ytick_18">
     <g id="line2d_52">
      <defs>
       <path d="M 0 0 
L 3.5 0 
" id="m78c073f100" style="stroke:#000000;stroke-width:0.8;"/>
      </defs>
      <g>
       <use style="stroke:#000000;stroke-width:0.8;" x="663.302291" xlink:href="#m78c073f100" y="383.84"/>
      </g>
     </g>
     <g id="text_28">
      <!-- 0 -->
      <g transform="translate(670.302291 387.639219)scale(0.1 -0.1)">
       <use xlink:href="#DejaVuSans-30"/>
      </g>
     </g>
    </g>
    <g id="ytick_19">
     <g id="line2d_53">
      <g>
       <use style="stroke:#000000;stroke-width:0.8;" x="663.302291" xlink:href="#m78c073f100" y="342.037"/>
      </g>
     </g>
     <g id="text_29">
      <!-- 50 -->
      <g transform="translate(670.302291 345.836219)scale(0.1 -0.1)">
       <use xlink:href="#DejaVuSans-35"/>
       <use x="63.623047" xlink:href="#DejaVuSans-30"/>
      </g>
     </g>
    </g>
    <g id="ytick_20">
     <g id="line2d_54">
      <g>
       <use style="stroke:#000000;stroke-width:0.8;" x="663.302291" xlink:href="#m78c073f100" y="300.234"/>
      </g>
     </g>
     <g id="text_30">
      <!-- 100 -->
      <g transform="translate(670.302291 304.033219)scale(0.1 -0.1)">
       <use xlink:href="#DejaVuSans-31"/>
       <use x="63.623047" xlink:href="#DejaVuSans-30"/>
       <use x="127.246094" xlink:href="#DejaVuSans-30"/>
      </g>
     </g>
    </g>
    <g id="ytick_21">
     <g id="line2d_55">
      <g>
       <use style="stroke:#000000;stroke-width:0.8;" x="663.302291" xlink:href="#m78c073f100" y="258.431"/>
      </g>
     </g>
     <g id="text_31">
      <!-- 150 -->
      <g transform="translate(670.302291 262.230219)scale(0.1 -0.1)">
       <use xlink:href="#DejaVuSans-31"/>
       <use x="63.623047" xlink:href="#DejaVuSans-35"/>
       <use x="127.246094" xlink:href="#DejaVuSans-30"/>
      </g>
     </g>
    </g>
    <g id="ytick_22">
     <g id="line2d_56">
      <g>
       <use style="stroke:#000000;stroke-width:0.8;" x="663.302291" xlink:href="#m78c073f100" y="216.628"/>
      </g>
     </g>
     <g id="text_32">
      <!-- 200 -->
      <g transform="translate(670.302291 220.427219)scale(0.1 -0.1)">
       <use xlink:href="#DejaVuSans-32"/>
       <use x="63.623047" xlink:href="#DejaVuSans-30"/>
       <use x="127.246094" xlink:href="#DejaVuSans-30"/>
      </g>
     </g>
    </g>
    <g id="ytick_23">
     <g id="line2d_57">
      <g>
       <use style="stroke:#000000;stroke-width:0.8;" x="663.302291" xlink:href="#m78c073f100" y="174.825"/>
      </g>
     </g>
     <g id="text_33">
      <!-- 250 -->
      <g transform="translate(670.302291 178.624219)scale(0.1 -0.1)">
       <use xlink:href="#DejaVuSans-32"/>
       <use x="63.623047" xlink:href="#DejaVuSans-35"/>
       <use x="127.246094" xlink:href="#DejaVuSans-30"/>
      </g>
     </g>
    </g>
    <g id="ytick_24">
     <g id="line2d_58">
      <g>
       <use style="stroke:#000000;stroke-width:0.8;" x="663.302291" xlink:href="#m78c073f100" y="133.022"/>
      </g>
     </g>
     <g id="text_34">
      <!-- 300 -->
      <g transform="translate(670.302291 136.821219)scale(0.1 -0.1)">
       <use xlink:href="#DejaVuSans-33"/>
       <use x="63.623047" xlink:href="#DejaVuSans-30"/>
       <use x="127.246094" xlink:href="#DejaVuSans-30"/>
      </g>
     </g>
    </g>
    <g id="ytick_25">
     <g id="line2d_59">
      <g>
       <use style="stroke:#000000;stroke-width:0.8;" x="663.302291" xlink:href="#m78c073f100" y="91.219"/>
      </g>
     </g>
     <g id="text_35">
      <!-- 350 -->
      <g transform="translate(670.302291 95.018219)scale(0.1 -0.1)">
       <use xlink:href="#DejaVuSans-33"/>
       <use x="63.623047" xlink:href="#DejaVuSans-35"/>
       <use x="127.246094" xlink:href="#DejaVuSans-30"/>
      </g>
     </g>
    </g>
    <g id="ytick_26">
     <g id="line2d_60">
      <g>
       <use style="stroke:#000000;stroke-width:0.8;" x="663.302291" xlink:href="#m78c073f100" y="49.416"/>
      </g>
     </g>
     <g id="text_36">
      <!-- 400 -->
      <g transform="translate(670.302291 53.215219)scale(0.1 -0.1)">
       <use xlink:href="#DejaVuSans-34"/>
       <use x="63.623047" xlink:href="#DejaVuSans-30"/>
       <use x="127.246094" xlink:href="#DejaVuSans-30"/>
      </g>
     </g>
    </g>
    <g id="text_37">
     <!-- Daily confirmed cases (linear scale) -->
     <g transform="translate(700.988228 305.878781)rotate(-90)scale(0.1 -0.1)">
      <defs>
       <path d="M 1259 4147 
L 1259 519 
L 2022 519 
Q 2988 519 3436 956 
Q 3884 1394 3884 2338 
Q 3884 3275 3436 3711 
Q 2988 4147 2022 4147 
L 1259 4147 
z
M 628 4666 
L 1925 4666 
Q 3281 4666 3915 4102 
Q 4550 3538 4550 2338 
Q 4550 1131 3912 565 
Q 3275 0 1925 0 
L 628 0 
L 628 4666 
z
" id="DejaVuSans-44" transform="scale(0.015625)"/>
       <path d="M 1984 4856 
Q 1566 4138 1362 3434 
Q 1159 2731 1159 2009 
Q 1159 1288 1364 580 
Q 1569 -128 1984 -844 
L 1484 -844 
Q 1016 -109 783 600 
Q 550 1309 550 2009 
Q 550 2706 781 3412 
Q 1013 4119 1484 4856 
L 1984 4856 
z
" id="DejaVuSans-28" transform="scale(0.015625)"/>
       <path d="M 513 4856 
L 1013 4856 
Q 1481 4119 1714 3412 
Q 1947 2706 1947 2009 
Q 1947 1309 1714 600 
Q 1481 -109 1013 -844 
L 513 -844 
Q 928 -128 1133 580 
Q 1338 1288 1338 2009 
Q 1338 2731 1133 3434 
Q 928 4138 513 4856 
z
" id="DejaVuSans-29" transform="scale(0.015625)"/>
      </defs>
      <use xlink:href="#DejaVuSans-44"/>
      <use x="77.001953" xlink:href="#DejaVuSans-61"/>
      <use x="138.28125" xlink:href="#DejaVuSans-69"/>
      <use x="166.064453" xlink:href="#DejaVuSans-6c"/>
      <use x="193.847656" xlink:href="#DejaVuSans-79"/>
      <use x="253.027344" xlink:href="#DejaVuSans-20"/>
      <use x="284.814453" xlink:href="#DejaVuSans-63"/>
      <use x="339.794922" xlink:href="#DejaVuSans-6f"/>
      <use x="400.976562" xlink:href="#DejaVuSans-6e"/>
      <use x="464.355469" xlink:href="#DejaVuSans-66"/>
      <use x="499.560547" xlink:href="#DejaVuSans-69"/>
      <use x="527.34375" xlink:href="#DejaVuSans-72"/>
      <use x="566.707031" xlink:href="#DejaVuSans-6d"/>
      <use x="664.119141" xlink:href="#DejaVuSans-65"/>
      <use x="725.642578" xlink:href="#DejaVuSans-64"/>
      <use x="789.119141" xlink:href="#DejaVuSans-20"/>
      <use x="820.90625" xlink:href="#DejaVuSans-63"/>
      <use x="875.886719" xlink:href="#DejaVuSans-61"/>
      <use x="937.166016" xlink:href="#DejaVuSans-73"/>
      <use x="989.265625" xlink:href="#DejaVuSans-65"/>
      <use x="1050.789062" xlink:href="#DejaVuSans-73"/>
      <use x="1102.888672" xlink:href="#DejaVuSans-20"/>
      <use x="1134.675781" xlink:href="#DejaVuSans-28"/>
      <use x="1173.689453" xlink:href="#DejaVuSans-6c"/>
      <use x="1201.472656" xlink:href="#DejaVuSans-69"/>
      <use x="1229.255859" xlink:href="#DejaVuSans-6e"/>
      <use x="1292.634766" xlink:href="#DejaVuSans-65"/>
      <use x="1354.158203" xlink:href="#DejaVuSans-61"/>
      <use x="1415.4375" xlink:href="#DejaVuSans-72"/>
      <use x="1456.550781" xlink:href="#DejaVuSans-20"/>
      <use x="1488.337891" xlink:href="#DejaVuSans-73"/>
      <use x="1540.4375" xlink:href="#DejaVuSans-63"/>
      <use x="1595.417969" xlink:href="#DejaVuSans-61"/>
      <use x="1656.697266" xlink:href="#DejaVuSans-6c"/>
      <use x="1684.480469" xlink:href="#DejaVuSans-65"/>
      <use x="1746.003906" xlink:href="#DejaVuSans-29"/>
     </g>
    </g>
   </g>
   <g id="line2d_61">
    <path clip-path="url(#pfa3385586c)" d="M 76.624934 383.823279 
L 76.624934 382.987219 
L 91.291868 382.987219 
L 91.291868 376.298739 
L 105.958802 376.298739 
L 105.958802 374.626619 
L 120.625736 374.626619 
L 120.625736 375.462679 
L 135.29267 375.462679 
L 135.29267 367.102079 
L 149.959604 367.102079 
L 149.959604 366.266019 
L 164.626537 366.266019 
L 164.626537 354.561179 
L 179.293471 354.561179 
L 179.293471 349.544819 
L 193.960405 349.544819 
L 193.960405 331.987559 
L 208.627339 331.987559 
L 208.627339 327.807259 
L 223.294273 327.807259 
L 223.294273 325.299079 
L 237.961207 325.299079 
L 237.961207 315.266359 
L 252.628141 315.266359 
L 252.628141 315.266359 
L 267.295075 315.266359 
" style="fill:none;stroke:#800080;stroke-linecap:square;stroke-width:1.5;"/>
   </g>
   <g id="line2d_62">
    <path clip-path="url(#pfa3385586c)" d="M 69.291467 374.206508 
L 83.958401 372.306791 
L 98.625335 369.964897 
L 113.292269 367.099715 
L 127.959203 363.637275 
L 142.626137 359.522237 
L 157.29307 354.728239 
L 171.960004 349.262263 
L 186.626938 343.158842 
L 201.293872 336.463359 
L 215.960806 329.208742 
L 230.62774 321.393387 
L 245.294674 312.967747 
L 259.961608 303.832872 
" style="fill:none;stroke:#ff00ff;stroke-linecap:square;stroke-width:1.5;"/>
   </g>
   <g id="line2d_63">
    <path clip-path="url(#pfa3385586c)" d="M 259.961608 303.832872 
L 274.628542 293.520583 
L 289.295476 281.879121 
L 303.96241 268.737167 
L 318.629344 253.901318 
L 333.296278 237.153245 
L 347.963211 218.246477 
L 362.630145 196.902776 
L 377.297079 172.80804 
L 391.964013 145.607682 
L 406.630947 114.901412 
L 421.297881 80.237346 
L 435.964815 41.105355 
L 449.944335 -1 
L 449.944335 -1 
" style="fill:none;stroke:#ff00ff;stroke-dasharray:5.55,2.4;stroke-dashoffset:0;stroke-width:1.5;"/>
   </g>
   <g id="patch_7">
    <path d="M 61.958 383.84 
L 61.958 49.416 
" style="fill:none;stroke:#000000;stroke-linecap:square;stroke-linejoin:miter;stroke-width:0.8;"/>
   </g>
   <g id="patch_8">
    <path d="M 663.302291 383.84 
L 663.302291 49.416 
" style="fill:none;stroke:#000000;stroke-linecap:square;stroke-linejoin:miter;stroke-width:0.8;"/>
   </g>
   <g id="patch_9">
    <path d="M 61.958 383.84 
L 663.302291 383.84 
" style="fill:none;stroke:#000000;stroke-linecap:square;stroke-linejoin:miter;stroke-width:0.8;"/>
   </g>
   <g id="patch_10">
    <path d="M 61.958 49.416 
L 663.302291 49.416 
" style="fill:none;stroke:#000000;stroke-linecap:square;stroke-linejoin:miter;stroke-width:0.8;"/>
   </g>
   <g id="legend_1">
    <g id="patch_11">
     <path d="M 67.558 102.8035 
L 341.38925 102.8035 
Q 342.98925 102.8035 342.98925 101.2035 
L 342.98925 55.016 
Q 342.98925 53.416 341.38925 53.416 
L 67.558 53.416 
Q 65.958 53.416 65.958 55.016 
L 65.958 101.2035 
Q 65.958 102.8035 67.558 102.8035 
z
" style="fill:#ffffff;opacity:0.8;stroke:#cccccc;stroke-linejoin:miter;"/>
    </g>
    <g id="patch_12">
     <path d="M 69.158 62.69475 
L 85.158 62.69475 
L 85.158 57.09475 
L 69.158 57.09475 
z
" style="fill:#1f77b4;stroke:#1f77b4;stroke-linejoin:miter;"/>
    </g>
    <g id="text_38">
     <!-- $R_\mathrm{eff}$ -->
     <g transform="translate(91.558 62.69475)scale(0.08 -0.08)">
      <use transform="translate(0 0.09375)" xlink:href="#DejaVuSans-Oblique-52"/>
      <use transform="translate(69.482422 -16.3125)scale(0.7)" xlink:href="#DejaVuSans-65"/>
      <use transform="translate(112.548828 -16.3125)scale(0.7)" xlink:href="#DejaVuSans-66"/>
      <use transform="translate(137.192383 -16.3125)scale(0.7)" xlink:href="#DejaVuSans-66"/>
     </g>
    </g>
    <g id="patch_13">
     <path d="M 69.158 74.4385 
L 85.158 74.4385 
L 85.158 68.8385 
L 69.158 68.8385 
z
" style="fill:url(#h80575bfa1f);opacity:0.2;stroke:#0000ff;stroke-linejoin:miter;"/>
    </g>
    <g id="text_39">
     <!-- $R_\mathrm{eff}$ uncertainty -->
     <g transform="translate(91.558 74.4385)scale(0.08 -0.08)">
      <defs>
       <path d="M 544 1381 
L 544 3500 
L 1119 3500 
L 1119 1403 
Q 1119 906 1312 657 
Q 1506 409 1894 409 
Q 2359 409 2629 706 
Q 2900 1003 2900 1516 
L 2900 3500 
L 3475 3500 
L 3475 0 
L 2900 0 
L 2900 538 
Q 2691 219 2414 64 
Q 2138 -91 1772 -91 
Q 1169 -91 856 284 
Q 544 659 544 1381 
z
M 1991 3584 
L 1991 3584 
z
" id="DejaVuSans-75" transform="scale(0.015625)"/>
      </defs>
      <use transform="translate(0 0.015625)" xlink:href="#DejaVuSans-Oblique-52"/>
      <use transform="translate(69.482422 -16.390625)scale(0.7)" xlink:href="#DejaVuSans-65"/>
      <use transform="translate(112.548828 -16.390625)scale(0.7)" xlink:href="#DejaVuSans-66"/>
      <use transform="translate(137.192383 -16.390625)scale(0.7)" xlink:href="#DejaVuSans-66"/>
      <use transform="translate(164.570312 0.015625)" xlink:href="#DejaVuSans-20"/>
      <use transform="translate(196.357422 0.015625)" xlink:href="#DejaVuSans-75"/>
      <use transform="translate(259.736328 0.015625)" xlink:href="#DejaVuSans-6e"/>
      <use transform="translate(323.115234 0.015625)" xlink:href="#DejaVuSans-63"/>
      <use transform="translate(378.095703 0.015625)" xlink:href="#DejaVuSans-65"/>
      <use transform="translate(439.619141 0.015625)" xlink:href="#DejaVuSans-72"/>
      <use transform="translate(480.732422 0.015625)" xlink:href="#DejaVuSans-74"/>
      <use transform="translate(519.941406 0.015625)" xlink:href="#DejaVuSans-61"/>
      <use transform="translate(581.220703 0.015625)" xlink:href="#DejaVuSans-69"/>
      <use transform="translate(609.003906 0.015625)" xlink:href="#DejaVuSans-6e"/>
      <use transform="translate(672.382812 0.015625)" xlink:href="#DejaVuSans-74"/>
      <use transform="translate(711.591797 0.015625)" xlink:href="#DejaVuSans-79"/>
     </g>
    </g>
    <g id="line2d_64">
     <path d="M 69.158 83.39725 
L 85.158 83.39725 
" style="fill:none;stroke:#800080;stroke-linecap:square;stroke-width:1.5;"/>
    </g>
    <g id="line2d_65"/>
    <g id="text_40">
     <!-- Daily cases -->
     <g transform="translate(91.558 86.19725)scale(0.08 -0.08)">
      <use xlink:href="#DejaVuSans-44"/>
      <use x="77.001953" xlink:href="#DejaVuSans-61"/>
      <use x="138.28125" xlink:href="#DejaVuSans-69"/>
      <use x="166.064453" xlink:href="#DejaVuSans-6c"/>
      <use x="193.847656" xlink:href="#DejaVuSans-79"/>
      <use x="253.027344" xlink:href="#DejaVuSans-20"/>
      <use x="284.814453" xlink:href="#DejaVuSans-63"/>
      <use x="339.794922" xlink:href="#DejaVuSans-61"/>
      <use x="401.074219" xlink:href="#DejaVuSans-73"/>
      <use x="453.173828" xlink:href="#DejaVuSans-65"/>
      <use x="514.697266" xlink:href="#DejaVuSans-73"/>
     </g>
    </g>
    <g id="line2d_66">
     <path d="M 69.158 95.13975 
L 85.158 95.13975 
" style="fill:none;stroke:#ff00ff;stroke-linecap:square;stroke-width:1.5;"/>
    </g>
    <g id="line2d_67"/>
    <g id="text_41">
     <!-- Daily cases (smoothed) -->
     <g transform="translate(91.558 97.93975)scale(0.08 -0.08)">
      <use xlink:href="#DejaVuSans-44"/>
      <use x="77.001953" xlink:href="#DejaVuSans-61"/>
      <use x="138.28125" xlink:href="#DejaVuSans-69"/>
      <use x="166.064453" xlink:href="#DejaVuSans-6c"/>
      <use x="193.847656" xlink:href="#DejaVuSans-79"/>
      <use x="253.027344" xlink:href="#DejaVuSans-20"/>
      <use x="284.814453" xlink:href="#DejaVuSans-63"/>
      <use x="339.794922" xlink:href="#DejaVuSans-61"/>
      <use x="401.074219" xlink:href="#DejaVuSans-73"/>
      <use x="453.173828" xlink:href="#DejaVuSans-65"/>
      <use x="514.697266" xlink:href="#DejaVuSans-73"/>
      <use x="566.796875" xlink:href="#DejaVuSans-20"/>
      <use x="598.583984" xlink:href="#DejaVuSans-28"/>
      <use x="637.597656" xlink:href="#DejaVuSans-73"/>
      <use x="689.697266" xlink:href="#DejaVuSans-6d"/>
      <use x="787.109375" xlink:href="#DejaVuSans-6f"/>
      <use x="848.291016" xlink:href="#DejaVuSans-6f"/>
      <use x="909.472656" xlink:href="#DejaVuSans-74"/>
      <use x="948.681641" xlink:href="#DejaVuSans-68"/>
      <use x="1012.060547" xlink:href="#DejaVuSans-65"/>
      <use x="1073.583984" xlink:href="#DejaVuSans-64"/>
      <use x="1137.060547" xlink:href="#DejaVuSans-29"/>
     </g>
    </g>
    <g id="line2d_68">
     <path d="M 201.64425 59.89475 
L 217.64425 59.89475 
" style="fill:none;stroke:#ff00ff;stroke-dasharray:5.55,2.4;stroke-dashoffset:0;stroke-width:1.5;"/>
    </g>
    <g id="line2d_69"/>
    <g id="text_42">
     <!-- Daily cases (trend) -->
     <g transform="translate(224.04425 62.69475)scale(0.08 -0.08)">
      <use xlink:href="#DejaVuSans-44"/>
      <use x="77.001953" xlink:href="#DejaVuSans-61"/>
      <use x="138.28125" xlink:href="#DejaVuSans-69"/>
      <use x="166.064453" xlink:href="#DejaVuSans-6c"/>
      <use x="193.847656" xlink:href="#DejaVuSans-79"/>
      <use x="253.027344" xlink:href="#DejaVuSans-20"/>
      <use x="284.814453" xlink:href="#DejaVuSans-63"/>
      <use x="339.794922" xlink:href="#DejaVuSans-61"/>
      <use x="401.074219" xlink:href="#DejaVuSans-73"/>
      <use x="453.173828" xlink:href="#DejaVuSans-65"/>
      <use x="514.697266" xlink:href="#DejaVuSans-73"/>
      <use x="566.796875" xlink:href="#DejaVuSans-20"/>
      <use x="598.583984" xlink:href="#DejaVuSans-28"/>
      <use x="637.597656" xlink:href="#DejaVuSans-74"/>
      <use x="676.806641" xlink:href="#DejaVuSans-72"/>
      <use x="715.669922" xlink:href="#DejaVuSans-65"/>
      <use x="777.193359" xlink:href="#DejaVuSans-6e"/>
      <use x="840.572266" xlink:href="#DejaVuSans-64"/>
      <use x="904.048828" xlink:href="#DejaVuSans-29"/>
     </g>
    </g>
    <g id="patch_14">
     <path d="M 201.64425 74.43725 
L 217.64425 74.43725 
L 217.64425 68.83725 
L 201.64425 68.83725 
z
" style="fill:#ff00ff;opacity:0.3;"/>
    </g>
    <g id="text_43">
     <!-- Smoothing/trend uncertainty -->
     <g transform="translate(224.04425 74.43725)scale(0.08 -0.08)">
      <defs>
       <path d="M 2906 1791 
Q 2906 2416 2648 2759 
Q 2391 3103 1925 3103 
Q 1463 3103 1205 2759 
Q 947 2416 947 1791 
Q 947 1169 1205 825 
Q 1463 481 1925 481 
Q 2391 481 2648 825 
Q 2906 1169 2906 1791 
z
M 3481 434 
Q 3481 -459 3084 -895 
Q 2688 -1331 1869 -1331 
Q 1566 -1331 1297 -1286 
Q 1028 -1241 775 -1147 
L 775 -588 
Q 1028 -725 1275 -790 
Q 1522 -856 1778 -856 
Q 2344 -856 2625 -561 
Q 2906 -266 2906 331 
L 2906 616 
Q 2728 306 2450 153 
Q 2172 0 1784 0 
Q 1141 0 747 490 
Q 353 981 353 1791 
Q 353 2603 747 3093 
Q 1141 3584 1784 3584 
Q 2172 3584 2450 3431 
Q 2728 3278 2906 2969 
L 2906 3500 
L 3481 3500 
L 3481 434 
z
" id="DejaVuSans-67" transform="scale(0.015625)"/>
       <path d="M 1625 4666 
L 2156 4666 
L 531 -594 
L 0 -594 
L 1625 4666 
z
" id="DejaVuSans-2f" transform="scale(0.015625)"/>
      </defs>
      <use xlink:href="#DejaVuSans-53"/>
      <use x="63.476562" xlink:href="#DejaVuSans-6d"/>
      <use x="160.888672" xlink:href="#DejaVuSans-6f"/>
      <use x="222.070312" xlink:href="#DejaVuSans-6f"/>
      <use x="283.251953" xlink:href="#DejaVuSans-74"/>
      <use x="322.460938" xlink:href="#DejaVuSans-68"/>
      <use x="385.839844" xlink:href="#DejaVuSans-69"/>
      <use x="413.623047" xlink:href="#DejaVuSans-6e"/>
      <use x="477.001953" xlink:href="#DejaVuSans-67"/>
      <use x="540.478516" xlink:href="#DejaVuSans-2f"/>
      <use x="574.169922" xlink:href="#DejaVuSans-74"/>
      <use x="613.378906" xlink:href="#DejaVuSans-72"/>
      <use x="652.242188" xlink:href="#DejaVuSans-65"/>
      <use x="713.765625" xlink:href="#DejaVuSans-6e"/>
      <use x="777.144531" xlink:href="#DejaVuSans-64"/>
      <use x="840.621094" xlink:href="#DejaVuSans-20"/>
      <use x="872.408203" xlink:href="#DejaVuSans-75"/>
      <use x="935.787109" xlink:href="#DejaVuSans-6e"/>
      <use x="999.166016" xlink:href="#DejaVuSans-63"/>
      <use x="1054.146484" xlink:href="#DejaVuSans-65"/>
      <use x="1115.669922" xlink:href="#DejaVuSans-72"/>
      <use x="1156.783203" xlink:href="#DejaVuSans-74"/>
      <use x="1195.992188" xlink:href="#DejaVuSans-61"/>
      <use x="1257.271484" xlink:href="#DejaVuSans-69"/>
      <use x="1285.054688" xlink:href="#DejaVuSans-6e"/>
      <use x="1348.433594" xlink:href="#DejaVuSans-74"/>
      <use x="1387.642578" xlink:href="#DejaVuSans-79"/>
     </g>
    </g>
    <g id="patch_15">
     <path d="M 201.64425 86.17975 
L 217.64425 86.17975 
L 217.64425 80.57975 
L 201.64425 80.57975 
z
" style="fill:#ffffa6;"/>
    </g>
    <g id="text_44">
     <!-- Alert Level 1 -->
     <g transform="translate(224.04425 86.17975)scale(0.08 -0.08)">
      <defs>
       <path d="M 2188 4044 
L 1331 1722 
L 3047 1722 
L 2188 4044 
z
M 1831 4666 
L 2547 4666 
L 4325 0 
L 3669 0 
L 3244 1197 
L 1141 1197 
L 716 0 
L 50 0 
L 1831 4666 
z
" id="DejaVuSans-41" transform="scale(0.015625)"/>
      </defs>
      <use xlink:href="#DejaVuSans-41"/>
      <use x="68.408203" xlink:href="#DejaVuSans-6c"/>
      <use x="96.191406" xlink:href="#DejaVuSans-65"/>
      <use x="157.714844" xlink:href="#DejaVuSans-72"/>
      <use x="198.828125" xlink:href="#DejaVuSans-74"/>
      <use x="238.037109" xlink:href="#DejaVuSans-20"/>
      <use x="269.824219" xlink:href="#DejaVuSans-4c"/>
      <use x="323.787109" xlink:href="#DejaVuSans-65"/>
      <use x="385.310547" xlink:href="#DejaVuSans-76"/>
      <use x="444.490234" xlink:href="#DejaVuSans-65"/>
      <use x="506.013672" xlink:href="#DejaVuSans-6c"/>
      <use x="533.796875" xlink:href="#DejaVuSans-20"/>
      <use x="565.583984" xlink:href="#DejaVuSans-31"/>
     </g>
    </g>
    <g id="patch_16">
     <path d="M 201.64425 97.92225 
L 217.64425 97.92225 
L 217.64425 92.32225 
L 201.64425 92.32225 
z
" style="fill:#ff5200;opacity:0.45;"/>
    </g>
    <g id="text_45">
     <!-- Alert Level 4 -->
     <g transform="translate(224.04425 97.92225)scale(0.08 -0.08)">
      <use xlink:href="#DejaVuSans-41"/>
      <use x="68.408203" xlink:href="#DejaVuSans-6c"/>
      <use x="96.191406" xlink:href="#DejaVuSans-65"/>
      <use x="157.714844" xlink:href="#DejaVuSans-72"/>
      <use x="198.828125" xlink:href="#DejaVuSans-74"/>
      <use x="238.037109" xlink:href="#DejaVuSans-20"/>
      <use x="269.824219" xlink:href="#DejaVuSans-4c"/>
      <use x="323.787109" xlink:href="#DejaVuSans-65"/>
      <use x="385.310547" xlink:href="#DejaVuSans-76"/>
      <use x="444.490234" xlink:href="#DejaVuSans-65"/>
      <use x="506.013672" xlink:href="#DejaVuSans-6c"/>
      <use x="533.796875" xlink:href="#DejaVuSans-20"/>
      <use x="565.583984" xlink:href="#DejaVuSans-34"/>
     </g>
    </g>
   </g>
   <g id="PolyCollection_36">
    <defs>
     <path d="M 69.291467 -59.269716 
L 69.291467 -56.317268 
L 83.958401 -58.115535 
L 98.625335 -60.342084 
L 113.292269 -63.072776 
L 127.959203 -66.372324 
L 142.626137 -70.274066 
L 157.29307 -74.749056 
L 171.960004 -79.671319 
L 186.626938 -84.810548 
L 201.293872 -89.880398 
L 215.960806 -94.59991 
L 230.62774 -98.713389 
L 245.294674 -101.977835 
L 259.961608 -104.1355 
L 259.961608 -152.198757 
L 259.961608 -152.198757 
L 245.294674 -136.086671 
L 230.62774 -122.499837 
L 215.960806 -110.982607 
L 201.293872 -101.192884 
L 186.626938 -92.871767 
L 171.960004 -85.804154 
L 157.29307 -79.794466 
L 142.626137 -74.681459 
L 127.959203 -70.353127 
L 113.292269 -66.727794 
L 98.625335 -63.728122 
L 83.958401 -61.270884 
L 69.291467 -59.269716 
z
" id="made6fa841e"/>
    </defs>
    <g clip-path="url(#pfa3385586c)">
     <use style="fill:#ff00ff;fill-opacity:0.3;" x="0" xlink:href="#made6fa841e" y="432"/>
    </g>
   </g>
  </g>
  <g id="text_46">
   <g id="patch_17">
    <path d="M 506.5175 429.24625 
L 716.8 429.24625 
L 716.8 413.23875 
L 506.5175 413.23875 
z
" style="fill:#ffffff;opacity:0.8;"/>
   </g>
   <!-- @chrisbilbo | chrisbillington.net/COVID_NZ -->
   <g style="fill:#000040;opacity:0.5;" transform="translate(510.5175 423.36)scale(0.08 -0.08)">
    <defs>
     <path d="M 3244 1703 
Q 3244 2106 3044 2348 
Q 2844 2591 2509 2591 
Q 2175 2591 1973 2348 
Q 1772 2106 1772 1703 
Q 1772 1297 1973 1055 
Q 2175 813 2509 813 
Q 2844 813 3044 1055 
Q 3244 1297 3244 1703 
z
M 3681 422 
L 3231 422 
L 3231 769 
Q 3116 572 2911 465 
Q 2706 359 2450 359 
Q 1947 359 1617 737 
Q 1288 1116 1288 1703 
Q 1288 2291 1617 2669 
Q 1947 3047 2450 3047 
Q 2700 3047 2909 2937 
Q 3119 2828 3231 2638 
L 3231 2834 
Q 3231 3322 2956 3619 
Q 2681 3916 2228 3916 
Q 1459 3916 1004 3317 
Q 550 2719 550 1697 
Q 550 669 1065 59 
Q 1581 -550 2438 -550 
Q 2606 -550 2775 -519 
Q 2944 -488 3122 -422 
L 3272 -844 
Q 3075 -922 2883 -959 
Q 2691 -997 2509 -997 
Q 1394 -997 739 -269 
Q 84 459 84 1697 
Q 84 2916 671 3637 
Q 1259 4359 2247 4359 
Q 2900 4359 3290 3943 
Q 3681 3528 3681 2828 
L 3681 422 
z
" id="DejaVuSansMono-40" transform="scale(0.015625)"/>
     <path d="M 3316 178 
Q 3084 44 2839 -23 
Q 2594 -91 2338 -91 
Q 1525 -91 1067 396 
Q 609 884 609 1747 
Q 609 2609 1067 3096 
Q 1525 3584 2338 3584 
Q 2591 3584 2831 3518 
Q 3072 3453 3316 3316 
L 3316 2713 
Q 3088 2916 2858 3006 
Q 2628 3097 2338 3097 
Q 1797 3097 1506 2747 
Q 1216 2397 1216 1747 
Q 1216 1100 1508 748 
Q 1800 397 2338 397 
Q 2638 397 2875 489 
Q 3113 581 3316 775 
L 3316 178 
z
" id="DejaVuSansMono-63" transform="scale(0.015625)"/>
     <path d="M 3284 2169 
L 3284 0 
L 2706 0 
L 2706 2169 
Q 2706 2641 2540 2862 
Q 2375 3084 2022 3084 
Q 1619 3084 1401 2798 
Q 1184 2513 1184 1978 
L 1184 0 
L 609 0 
L 609 4863 
L 1184 4863 
L 1184 2975 
Q 1338 3275 1600 3429 
Q 1863 3584 2222 3584 
Q 2756 3584 3020 3232 
Q 3284 2881 3284 2169 
z
" id="DejaVuSansMono-68" transform="scale(0.015625)"/>
     <path d="M 3609 2778 
Q 3425 2922 3234 2987 
Q 3044 3053 2816 3053 
Q 2278 3053 1993 2715 
Q 1709 2378 1709 1741 
L 1709 0 
L 1131 0 
L 1131 3500 
L 1709 3500 
L 1709 2816 
Q 1853 3188 2151 3386 
Q 2450 3584 2859 3584 
Q 3072 3584 3256 3531 
Q 3441 3478 3609 3366 
L 3609 2778 
z
" id="DejaVuSansMono-72" transform="scale(0.015625)"/>
     <path d="M 800 3500 
L 2272 3500 
L 2272 447 
L 3413 447 
L 3413 0 
L 556 0 
L 556 447 
L 1697 447 
L 1697 3053 
L 800 3053 
L 800 3500 
z
M 1697 4863 
L 2272 4863 
L 2272 4134 
L 1697 4134 
L 1697 4863 
z
" id="DejaVuSansMono-69" transform="scale(0.015625)"/>
     <path d="M 3041 3378 
L 3041 2816 
Q 2794 2959 2544 3031 
Q 2294 3103 2034 3103 
Q 1644 3103 1451 2976 
Q 1259 2850 1259 2591 
Q 1259 2356 1403 2240 
Q 1547 2125 2119 2016 
L 2350 1972 
Q 2778 1891 2998 1647 
Q 3219 1403 3219 1013 
Q 3219 494 2850 201 
Q 2481 -91 1825 -91 
Q 1566 -91 1281 -36 
Q 997 19 666 128 
L 666 722 
Q 988 556 1281 473 
Q 1575 391 1838 391 
Q 2219 391 2428 545 
Q 2638 700 2638 978 
Q 2638 1378 1872 1531 
L 1847 1538 
L 1631 1581 
Q 1134 1678 906 1908 
Q 678 2138 678 2534 
Q 678 3038 1018 3311 
Q 1359 3584 1991 3584 
Q 2272 3584 2531 3532 
Q 2791 3481 3041 3378 
z
" id="DejaVuSansMono-73" transform="scale(0.015625)"/>
     <path d="M 2869 1747 
Q 2869 2416 2656 2756 
Q 2444 3097 2028 3097 
Q 1609 3097 1393 2755 
Q 1178 2413 1178 1747 
Q 1178 1084 1393 740 
Q 1609 397 2028 397 
Q 2444 397 2656 737 
Q 2869 1078 2869 1747 
z
M 1178 3053 
Q 1316 3309 1558 3446 
Q 1800 3584 2119 3584 
Q 2750 3584 3112 3098 
Q 3475 2613 3475 1759 
Q 3475 894 3111 401 
Q 2747 -91 2113 -91 
Q 1800 -91 1561 45 
Q 1322 181 1178 441 
L 1178 0 
L 603 0 
L 603 4863 
L 1178 4863 
L 1178 3053 
z
" id="DejaVuSansMono-62" transform="scale(0.015625)"/>
     <path d="M 1997 1269 
Q 1997 881 2139 684 
Q 2281 488 2559 488 
L 3231 488 
L 3231 0 
L 2503 0 
Q 1988 0 1705 331 
Q 1422 663 1422 1269 
L 1422 4447 
L 500 4447 
L 500 4897 
L 1997 4897 
L 1997 1269 
z
" id="DejaVuSansMono-6c" transform="scale(0.015625)"/>
     <path d="M 1925 3097 
Q 1488 3097 1263 2756 
Q 1038 2416 1038 1747 
Q 1038 1081 1263 739 
Q 1488 397 1925 397 
Q 2366 397 2591 739 
Q 2816 1081 2816 1747 
Q 2816 2416 2591 2756 
Q 2366 3097 1925 3097 
z
M 1925 3584 
Q 2653 3584 3039 3112 
Q 3425 2641 3425 1747 
Q 3425 850 3040 379 
Q 2656 -91 1925 -91 
Q 1197 -91 812 379 
Q 428 850 428 1747 
Q 428 2641 812 3112 
Q 1197 3584 1925 3584 
z
" id="DejaVuSansMono-6f" transform="scale(0.015625)"/>
     <path id="DejaVuSansMono-20" transform="scale(0.015625)"/>
     <path d="M 2194 4891 
L 2194 -1509 
L 1656 -1509 
L 1656 4891 
L 2194 4891 
z
" id="DejaVuSansMono-7c" transform="scale(0.015625)"/>
     <path d="M 3284 2169 
L 3284 0 
L 2706 0 
L 2706 2169 
Q 2706 2641 2540 2862 
Q 2375 3084 2022 3084 
Q 1619 3084 1401 2798 
Q 1184 2513 1184 1978 
L 1184 0 
L 609 0 
L 609 3500 
L 1184 3500 
L 1184 2975 
Q 1338 3275 1600 3429 
Q 1863 3584 2222 3584 
Q 2756 3584 3020 3232 
Q 3284 2881 3284 2169 
z
" id="DejaVuSansMono-6e" transform="scale(0.015625)"/>
     <path d="M 2681 1778 
Q 2681 2425 2470 2761 
Q 2259 3097 1856 3097 
Q 1434 3097 1212 2761 
Q 991 2425 991 1778 
Q 991 1131 1214 792 
Q 1438 453 1863 453 
Q 2259 453 2470 793 
Q 2681 1134 2681 1778 
z
M 3256 225 
Q 3256 -563 2884 -969 
Q 2513 -1375 1791 -1375 
Q 1553 -1375 1293 -1331 
Q 1034 -1288 775 -1203 
L 775 -634 
Q 1081 -778 1331 -847 
Q 1581 -916 1791 -916 
Q 2256 -916 2468 -662 
Q 2681 -409 2681 141 
L 2681 166 
L 2681 556 
Q 2544 263 2306 119 
Q 2069 -25 1728 -25 
Q 1116 -25 750 465 
Q 384 956 384 1778 
Q 384 2603 750 3093 
Q 1116 3584 1728 3584 
Q 2066 3584 2300 3450 
Q 2534 3316 2681 3034 
L 2681 3488 
L 3256 3488 
L 3256 225 
z
" id="DejaVuSansMono-67" transform="scale(0.015625)"/>
     <path d="M 1919 4494 
L 1919 3500 
L 3225 3500 
L 3225 3053 
L 1919 3053 
L 1919 1153 
Q 1919 766 2066 612 
Q 2213 459 2578 459 
L 3225 459 
L 3225 0 
L 2522 0 
Q 1875 0 1609 259 
Q 1344 519 1344 1153 
L 1344 3053 
L 409 3053 
L 409 3500 
L 1344 3500 
L 1344 4494 
L 1919 4494 
z
" id="DejaVuSansMono-74" transform="scale(0.015625)"/>
     <path d="M 1528 953 
L 2316 953 
L 2316 0 
L 1528 0 
L 1528 953 
z
" id="DejaVuSansMono-2e" transform="scale(0.015625)"/>
     <path d="M 3475 1894 
L 3475 1613 
L 984 1613 
L 984 1594 
Q 984 1022 1282 709 
Q 1581 397 2125 397 
Q 2400 397 2700 484 
Q 3000 572 3341 750 
L 3341 178 
Q 3013 44 2708 -23 
Q 2403 -91 2119 -91 
Q 1303 -91 843 398 
Q 384 888 384 1747 
Q 384 2584 834 3084 
Q 1284 3584 2034 3584 
Q 2703 3584 3089 3131 
Q 3475 2678 3475 1894 
z
M 2900 2063 
Q 2888 2569 2661 2833 
Q 2434 3097 2009 3097 
Q 1594 3097 1325 2822 
Q 1056 2547 1006 2059 
L 2900 2063 
z
" id="DejaVuSansMono-65" transform="scale(0.015625)"/>
     <path d="M 2778 4666 
L 3372 4666 
L 916 -594 
L 319 -594 
L 2778 4666 
z
" id="DejaVuSansMono-2f" transform="scale(0.015625)"/>
     <path d="M 3353 166 
Q 3113 38 2859 -26 
Q 2606 -91 2322 -91 
Q 1425 -91 929 543 
Q 434 1178 434 2328 
Q 434 3472 932 4111 
Q 1431 4750 2322 4750 
Q 2606 4750 2859 4686 
Q 3113 4622 3353 4494 
L 3353 3847 
Q 3122 4038 2856 4138 
Q 2591 4238 2322 4238 
Q 1706 4238 1400 3763 
Q 1094 3288 1094 2328 
Q 1094 1372 1400 897 
Q 1706 422 2322 422 
Q 2597 422 2861 522 
Q 3125 622 3353 813 
L 3353 166 
z
" id="DejaVuSansMono-43" transform="scale(0.015625)"/>
     <path d="M 2828 2328 
Q 2828 3356 2617 3797 
Q 2406 4238 1925 4238 
Q 1447 4238 1236 3797 
Q 1025 3356 1025 2328 
Q 1025 1303 1236 862 
Q 1447 422 1925 422 
Q 2406 422 2617 861 
Q 2828 1300 2828 2328 
z
M 3488 2328 
Q 3488 1109 3102 509 
Q 2716 -91 1925 -91 
Q 1134 -91 750 506 
Q 366 1103 366 2328 
Q 366 3550 752 4150 
Q 1138 4750 1925 4750 
Q 2716 4750 3102 4150 
Q 3488 3550 3488 2328 
z
" id="DejaVuSansMono-4f" transform="scale(0.015625)"/>
     <path d="M 1925 531 
L 3022 4666 
L 3675 4666 
L 2309 0 
L 1544 0 
L 178 4666 
L 831 4666 
L 1925 531 
z
" id="DejaVuSansMono-56" transform="scale(0.015625)"/>
     <path d="M 628 4666 
L 3219 4666 
L 3219 4134 
L 2241 4134 
L 2241 531 
L 3219 531 
L 3219 0 
L 628 0 
L 628 531 
L 1606 531 
L 1606 4134 
L 628 4134 
L 628 4666 
z
" id="DejaVuSansMono-49" transform="scale(0.015625)"/>
     <path d="M 1363 519 
Q 2159 519 2475 911 
Q 2791 1303 2791 2328 
Q 2791 3363 2477 3755 
Q 2163 4147 1363 4147 
L 1063 4147 
L 1063 519 
L 1363 519 
z
M 1375 4666 
Q 2444 4666 2950 4097 
Q 3456 3528 3456 2328 
Q 3456 1134 2950 567 
Q 2444 0 1375 0 
L 428 0 
L 428 4666 
L 1375 4666 
z
" id="DejaVuSansMono-44" transform="scale(0.015625)"/>
     <path d="M 3853 -1259 
L 3853 -1509 
L 0 -1509 
L 0 -1259 
L 3853 -1259 
z
" id="DejaVuSansMono-5f" transform="scale(0.015625)"/>
     <path d="M 434 4666 
L 1234 4666 
L 2809 825 
L 2809 4666 
L 3419 4666 
L 3419 0 
L 2619 0 
L 1044 3841 
L 1044 0 
L 434 0 
L 434 4666 
z
" id="DejaVuSansMono-4e" transform="scale(0.015625)"/>
     <path d="M 556 4666 
L 3584 4666 
L 3584 4184 
L 1147 531 
L 3653 531 
L 3653 0 
L 488 0 
L 488 481 
L 2859 4134 
L 556 4134 
L 556 4666 
z
" id="DejaVuSansMono-5a" transform="scale(0.015625)"/>
    </defs>
    <use xlink:href="#DejaVuSansMono-40"/>
    <use x="60.205078" xlink:href="#DejaVuSansMono-63"/>
    <use x="120.410156" xlink:href="#DejaVuSansMono-68"/>
    <use x="180.615234" xlink:href="#DejaVuSansMono-72"/>
    <use x="240.820312" xlink:href="#DejaVuSansMono-69"/>
    <use x="301.025391" xlink:href="#DejaVuSansMono-73"/>
    <use x="361.230469" xlink:href="#DejaVuSansMono-62"/>
    <use x="421.435547" xlink:href="#DejaVuSansMono-69"/>
    <use x="481.640625" xlink:href="#DejaVuSansMono-6c"/>
    <use x="541.845703" xlink:href="#DejaVuSansMono-62"/>
    <use x="602.050781" xlink:href="#DejaVuSansMono-6f"/>
    <use x="662.255859" xlink:href="#DejaVuSansMono-20"/>
    <use x="722.460938" xlink:href="#DejaVuSansMono-7c"/>
    <use x="782.666016" xlink:href="#DejaVuSansMono-20"/>
    <use x="842.871094" xlink:href="#DejaVuSansMono-63"/>
    <use x="903.076172" xlink:href="#DejaVuSansMono-68"/>
    <use x="963.28125" xlink:href="#DejaVuSansMono-72"/>
    <use x="1023.486328" xlink:href="#DejaVuSansMono-69"/>
    <use x="1083.691406" xlink:href="#DejaVuSansMono-73"/>
    <use x="1143.896484" xlink:href="#DejaVuSansMono-62"/>
    <use x="1204.101562" xlink:href="#DejaVuSansMono-69"/>
    <use x="1264.306641" xlink:href="#DejaVuSansMono-6c"/>
    <use x="1324.511719" xlink:href="#DejaVuSansMono-6c"/>
    <use x="1384.716797" xlink:href="#DejaVuSansMono-69"/>
    <use x="1444.921875" xlink:href="#DejaVuSansMono-6e"/>
    <use x="1505.126953" xlink:href="#DejaVuSansMono-67"/>
    <use x="1565.332031" xlink:href="#DejaVuSansMono-74"/>
    <use x="1625.537109" xlink:href="#DejaVuSansMono-6f"/>
    <use x="1685.742188" xlink:href="#DejaVuSansMono-6e"/>
    <use x="1745.947266" xlink:href="#DejaVuSansMono-2e"/>
    <use x="1806.152344" xlink:href="#DejaVuSansMono-6e"/>
    <use x="1866.357422" xlink:href="#DejaVuSansMono-65"/>
    <use x="1926.5625" xlink:href="#DejaVuSansMono-74"/>
    <use x="1986.767578" xlink:href="#DejaVuSansMono-2f"/>
    <use x="2046.972656" xlink:href="#DejaVuSansMono-43"/>
    <use x="2107.177734" xlink:href="#DejaVuSansMono-4f"/>
    <use x="2167.382812" xlink:href="#DejaVuSansMono-56"/>
    <use x="2227.587891" xlink:href="#DejaVuSansMono-49"/>
    <use x="2287.792969" xlink:href="#DejaVuSansMono-44"/>
    <use x="2347.998047" xlink:href="#DejaVuSansMono-5f"/>
    <use x="2408.203125" xlink:href="#DejaVuSansMono-4e"/>
    <use x="2468.408203" xlink:href="#DejaVuSansMono-5a"/>
   </g>
  </g>
 </g>
 <defs>
  <clipPath id="pfa3385586c">
   <rect height="334.424" width="601.344291" x="61.958" y="49.416"/>
  </clipPath>
 </defs>
 <defs>
  <pattern height="72" id="h80575bfa1f" patternUnits="userSpaceOnUse" width="72" x="0" y="0">
   <rect fill="#00ffff" height="73" width="73" x="0" y="0"/>
   <path d="M -36 36 
L 36 -36 
M -33 39 
L 39 -33 
M -30 42 
L 42 -30 
M -27 45 
L 45 -27 
M -24 48 
L 48 -24 
M -21 51 
L 51 -21 
M -18 54 
L 54 -18 
M -15 57 
L 57 -15 
M -12 60 
L 60 -12 
M -9 63 
L 63 -9 
M -6 66 
L 66 -6 
M -3 69 
L 69 -3 
M 0 72 
L 72 0 
M 3 75 
L 75 3 
M 6 78 
L 78 6 
M 9 81 
L 81 9 
M 12 84 
L 84 12 
M 15 87 
L 87 15 
M 18 90 
L 90 18 
M 21 93 
L 93 21 
M 24 96 
L 96 24 
M 27 99 
L 99 27 
M 30 102 
L 102 30 
M 33 105 
L 105 33 
M 36 108 
L 108 36 
" style="fill:#0000ff;stroke:#0000ff;stroke-linecap:butt;stroke-linejoin:miter;stroke-opacity:0.2;stroke-width:1.0;"/>
  </pattern>
 </defs>
</svg>
