<?xml version="1.0" encoding="utf-8" standalone="no"?>
<!DOCTYPE svg PUBLIC "-//W3C//DTD SVG 1.1//EN"
  "http://www.w3.org/Graphics/SVG/1.1/DTD/svg11.dtd">
<svg height="360pt" version="1.1" viewBox="0 0 720 360" width="720pt" xmlns="http://www.w3.org/2000/svg" xmlns:xlink="http://www.w3.org/1999/xlink">
 <metadata>
  <rdf:RDF xmlns:cc="http://creativecommons.org/ns#" xmlns:dc="http://purl.org/dc/elements/1.1/" xmlns:rdf="http://www.w3.org/1999/02/22-rdf-syntax-ns#">
   <cc:Work>
    <dc:type rdf:resource="http://purl.org/dc/dcmitype/StillImage"/>
    <dc:date>2021-09-11T10:27:17.515242</dc:date>
    <dc:format>image/svg+xml</dc:format>
    <dc:creator>
     <cc:Agent>
      <dc:title>Matplotlib v3.4.3, https://matplotlib.org/</dc:title>
     </cc:Agent>
    </dc:creator>
   </cc:Work>
  </rdf:RDF>
 </metadata>
 <defs>
  <style type="text/css">*{stroke-linecap:butt;stroke-linejoin:round;}</style>
 </defs>
 <g id="figure_1">
  <g id="patch_1">
   <path d="M 0 360 
L 720 360 
L 720 0 
L 0 0 
z
" style="fill:#ffffff;"/>
  </g>
  <g id="axes_1">
   <g id="patch_2">
    <path d="M 54.2 319.04 
L 356.175 319.04 
L 356.175 25.44 
L 54.2 25.44 
z
" style="fill:#ffffff;"/>
   </g>
   <g id="matplotlib.axis_1">
    <g id="xtick_1">
     <g id="line2d_1">
      <path clip-path="url(#p011463e1c3)" d="M 54.2 319.04 
L 54.2 25.44 
" style="fill:none;stroke:#000000;stroke-dasharray:0.8,1.32;stroke-dashoffset:0;stroke-opacity:0.5;stroke-width:0.8;"/>
     </g>
     <g id="line2d_2">
      <defs>
       <path d="M 0 0 
L 0 3.5 
" id="madcde33652" style="stroke:#000000;stroke-width:0.8;"/>
      </defs>
      <g>
       <use style="stroke:#000000;stroke-width:0.8;" x="54.2" xlink:href="#madcde33652" y="319.04"/>
      </g>
     </g>
     <g id="text_1">
      <!-- May -->
      <g transform="translate(43.8625 333.638438)scale(0.1 -0.1)">
       <defs>
        <path d="M 628 4666 
L 1569 4666 
L 2759 1491 
L 3956 4666 
L 4897 4666 
L 4897 0 
L 4281 0 
L 4281 4097 
L 3078 897 
L 2444 897 
L 1241 4097 
L 1241 0 
L 628 0 
L 628 4666 
z
" id="DejaVuSans-4d" transform="scale(0.015625)"/>
        <path d="M 2194 1759 
Q 1497 1759 1228 1600 
Q 959 1441 959 1056 
Q 959 750 1161 570 
Q 1363 391 1709 391 
Q 2188 391 2477 730 
Q 2766 1069 2766 1631 
L 2766 1759 
L 2194 1759 
z
M 3341 1997 
L 3341 0 
L 2766 0 
L 2766 531 
Q 2569 213 2275 61 
Q 1981 -91 1556 -91 
Q 1019 -91 701 211 
Q 384 513 384 1019 
Q 384 1609 779 1909 
Q 1175 2209 1959 2209 
L 2766 2209 
L 2766 2266 
Q 2766 2663 2505 2880 
Q 2244 3097 1772 3097 
Q 1472 3097 1187 3025 
Q 903 2953 641 2809 
L 641 3341 
Q 956 3463 1253 3523 
Q 1550 3584 1831 3584 
Q 2591 3584 2966 3190 
Q 3341 2797 3341 1997 
z
" id="DejaVuSans-61" transform="scale(0.015625)"/>
        <path d="M 2059 -325 
Q 1816 -950 1584 -1140 
Q 1353 -1331 966 -1331 
L 506 -1331 
L 506 -850 
L 844 -850 
Q 1081 -850 1212 -737 
Q 1344 -625 1503 -206 
L 1606 56 
L 191 3500 
L 800 3500 
L 1894 763 
L 2988 3500 
L 3597 3500 
L 2059 -325 
z
" id="DejaVuSans-79" transform="scale(0.015625)"/>
       </defs>
       <use xlink:href="#DejaVuSans-4d"/>
       <use x="86.279297" xlink:href="#DejaVuSans-61"/>
       <use x="147.558594" xlink:href="#DejaVuSans-79"/>
      </g>
     </g>
    </g>
    <g id="xtick_2">
     <g id="line2d_3">
      <path clip-path="url(#p011463e1c3)" d="M 71.526434 319.04 
L 71.526434 25.44 
" style="fill:none;stroke:#000000;stroke-dasharray:0.8,1.32;stroke-dashoffset:0;stroke-opacity:0.5;stroke-width:0.8;"/>
     </g>
     <g id="line2d_4">
      <g>
       <use style="stroke:#000000;stroke-width:0.8;" x="71.526434" xlink:href="#madcde33652" y="319.04"/>
      </g>
     </g>
     <g id="text_2">
      <!-- 15 -->
      <g transform="translate(65.163934 333.638438)scale(0.1 -0.1)">
       <defs>
        <path d="M 794 531 
L 1825 531 
L 1825 4091 
L 703 3866 
L 703 4441 
L 1819 4666 
L 2450 4666 
L 2450 531 
L 3481 531 
L 3481 0 
L 794 0 
L 794 531 
z
" id="DejaVuSans-31" transform="scale(0.015625)"/>
        <path d="M 691 4666 
L 3169 4666 
L 3169 4134 
L 1269 4134 
L 1269 2991 
Q 1406 3038 1543 3061 
Q 1681 3084 1819 3084 
Q 2600 3084 3056 2656 
Q 3513 2228 3513 1497 
Q 3513 744 3044 326 
Q 2575 -91 1722 -91 
Q 1428 -91 1123 -41 
Q 819 9 494 109 
L 494 744 
Q 775 591 1075 516 
Q 1375 441 1709 441 
Q 2250 441 2565 725 
Q 2881 1009 2881 1497 
Q 2881 1984 2565 2268 
Q 2250 2553 1709 2553 
Q 1456 2553 1204 2497 
Q 953 2441 691 2322 
L 691 4666 
z
" id="DejaVuSans-35" transform="scale(0.015625)"/>
       </defs>
       <use xlink:href="#DejaVuSans-31"/>
       <use x="63.623047" xlink:href="#DejaVuSans-35"/>
      </g>
     </g>
    </g>
    <g id="xtick_3">
     <g id="line2d_5">
      <path clip-path="url(#p011463e1c3)" d="M 92.565676 319.04 
L 92.565676 25.44 
" style="fill:none;stroke:#000000;stroke-dasharray:0.8,1.32;stroke-dashoffset:0;stroke-opacity:0.5;stroke-width:0.8;"/>
     </g>
     <g id="line2d_6">
      <g>
       <use style="stroke:#000000;stroke-width:0.8;" x="92.565676" xlink:href="#madcde33652" y="319.04"/>
      </g>
     </g>
     <g id="text_3">
      <!-- Jun -->
      <g transform="translate(84.753176 333.638438)scale(0.1 -0.1)">
       <defs>
        <path d="M 628 4666 
L 1259 4666 
L 1259 325 
Q 1259 -519 939 -900 
Q 619 -1281 -91 -1281 
L -331 -1281 
L -331 -750 
L -134 -750 
Q 284 -750 456 -515 
Q 628 -281 628 325 
L 628 4666 
z
" id="DejaVuSans-4a" transform="scale(0.015625)"/>
        <path d="M 544 1381 
L 544 3500 
L 1119 3500 
L 1119 1403 
Q 1119 906 1312 657 
Q 1506 409 1894 409 
Q 2359 409 2629 706 
Q 2900 1003 2900 1516 
L 2900 3500 
L 3475 3500 
L 3475 0 
L 2900 0 
L 2900 538 
Q 2691 219 2414 64 
Q 2138 -91 1772 -91 
Q 1169 -91 856 284 
Q 544 659 544 1381 
z
M 1991 3584 
L 1991 3584 
z
" id="DejaVuSans-75" transform="scale(0.015625)"/>
        <path d="M 3513 2113 
L 3513 0 
L 2938 0 
L 2938 2094 
Q 2938 2591 2744 2837 
Q 2550 3084 2163 3084 
Q 1697 3084 1428 2787 
Q 1159 2491 1159 1978 
L 1159 0 
L 581 0 
L 581 3500 
L 1159 3500 
L 1159 2956 
Q 1366 3272 1645 3428 
Q 1925 3584 2291 3584 
Q 2894 3584 3203 3211 
Q 3513 2838 3513 2113 
z
" id="DejaVuSans-6e" transform="scale(0.015625)"/>
       </defs>
       <use xlink:href="#DejaVuSans-4a"/>
       <use x="29.492188" xlink:href="#DejaVuSans-75"/>
       <use x="92.871094" xlink:href="#DejaVuSans-6e"/>
      </g>
     </g>
    </g>
    <g id="xtick_4">
     <g id="line2d_7">
      <path clip-path="url(#p011463e1c3)" d="M 109.892111 319.04 
L 109.892111 25.44 
" style="fill:none;stroke:#000000;stroke-dasharray:0.8,1.32;stroke-dashoffset:0;stroke-opacity:0.5;stroke-width:0.8;"/>
     </g>
     <g id="line2d_8">
      <g>
       <use style="stroke:#000000;stroke-width:0.8;" x="109.892111" xlink:href="#madcde33652" y="319.04"/>
      </g>
     </g>
     <g id="text_4">
      <!-- 15 -->
      <g transform="translate(103.529611 333.638438)scale(0.1 -0.1)">
       <use xlink:href="#DejaVuSans-31"/>
       <use x="63.623047" xlink:href="#DejaVuSans-35"/>
      </g>
     </g>
    </g>
    <g id="xtick_5">
     <g id="line2d_9">
      <path clip-path="url(#p011463e1c3)" d="M 129.69375 319.04 
L 129.69375 25.44 
" style="fill:none;stroke:#000000;stroke-dasharray:0.8,1.32;stroke-dashoffset:0;stroke-opacity:0.5;stroke-width:0.8;"/>
     </g>
     <g id="line2d_10">
      <g>
       <use style="stroke:#000000;stroke-width:0.8;" x="129.69375" xlink:href="#madcde33652" y="319.04"/>
      </g>
     </g>
     <g id="text_5">
      <!-- Jul -->
      <g transform="translate(123.660937 333.638438)scale(0.1 -0.1)">
       <defs>
        <path d="M 603 4863 
L 1178 4863 
L 1178 0 
L 603 0 
L 603 4863 
z
" id="DejaVuSans-6c" transform="scale(0.015625)"/>
       </defs>
       <use xlink:href="#DejaVuSans-4a"/>
       <use x="29.492188" xlink:href="#DejaVuSans-75"/>
       <use x="92.871094" xlink:href="#DejaVuSans-6c"/>
      </g>
     </g>
    </g>
    <g id="xtick_6">
     <g id="line2d_11">
      <path clip-path="url(#p011463e1c3)" d="M 147.020184 319.04 
L 147.020184 25.44 
" style="fill:none;stroke:#000000;stroke-dasharray:0.8,1.32;stroke-dashoffset:0;stroke-opacity:0.5;stroke-width:0.8;"/>
     </g>
     <g id="line2d_12">
      <g>
       <use style="stroke:#000000;stroke-width:0.8;" x="147.020184" xlink:href="#madcde33652" y="319.04"/>
      </g>
     </g>
     <g id="text_6">
      <!-- 15 -->
      <g transform="translate(140.657684 333.638438)scale(0.1 -0.1)">
       <use xlink:href="#DejaVuSans-31"/>
       <use x="63.623047" xlink:href="#DejaVuSans-35"/>
      </g>
     </g>
    </g>
    <g id="xtick_7">
     <g id="line2d_13">
      <path clip-path="url(#p011463e1c3)" d="M 168.059426 319.04 
L 168.059426 25.44 
" style="fill:none;stroke:#000000;stroke-dasharray:0.8,1.32;stroke-dashoffset:0;stroke-opacity:0.5;stroke-width:0.8;"/>
     </g>
     <g id="line2d_14">
      <g>
       <use style="stroke:#000000;stroke-width:0.8;" x="168.059426" xlink:href="#madcde33652" y="319.04"/>
      </g>
     </g>
     <g id="text_7">
      <!-- Aug -->
      <g transform="translate(158.296145 333.638438)scale(0.1 -0.1)">
       <defs>
        <path d="M 2188 4044 
L 1331 1722 
L 3047 1722 
L 2188 4044 
z
M 1831 4666 
L 2547 4666 
L 4325 0 
L 3669 0 
L 3244 1197 
L 1141 1197 
L 716 0 
L 50 0 
L 1831 4666 
z
" id="DejaVuSans-41" transform="scale(0.015625)"/>
        <path d="M 2906 1791 
Q 2906 2416 2648 2759 
Q 2391 3103 1925 3103 
Q 1463 3103 1205 2759 
Q 947 2416 947 1791 
Q 947 1169 1205 825 
Q 1463 481 1925 481 
Q 2391 481 2648 825 
Q 2906 1169 2906 1791 
z
M 3481 434 
Q 3481 -459 3084 -895 
Q 2688 -1331 1869 -1331 
Q 1566 -1331 1297 -1286 
Q 1028 -1241 775 -1147 
L 775 -588 
Q 1028 -725 1275 -790 
Q 1522 -856 1778 -856 
Q 2344 -856 2625 -561 
Q 2906 -266 2906 331 
L 2906 616 
Q 2728 306 2450 153 
Q 2172 0 1784 0 
Q 1141 0 747 490 
Q 353 981 353 1791 
Q 353 2603 747 3093 
Q 1141 3584 1784 3584 
Q 2172 3584 2450 3431 
Q 2728 3278 2906 2969 
L 2906 3500 
L 3481 3500 
L 3481 434 
z
" id="DejaVuSans-67" transform="scale(0.015625)"/>
       </defs>
       <use xlink:href="#DejaVuSans-41"/>
       <use x="68.408203" xlink:href="#DejaVuSans-75"/>
       <use x="131.787109" xlink:href="#DejaVuSans-67"/>
      </g>
     </g>
    </g>
    <g id="xtick_8">
     <g id="line2d_15">
      <path clip-path="url(#p011463e1c3)" d="M 185.385861 319.04 
L 185.385861 25.44 
" style="fill:none;stroke:#000000;stroke-dasharray:0.8,1.32;stroke-dashoffset:0;stroke-opacity:0.5;stroke-width:0.8;"/>
     </g>
     <g id="line2d_16">
      <g>
       <use style="stroke:#000000;stroke-width:0.8;" x="185.385861" xlink:href="#madcde33652" y="319.04"/>
      </g>
     </g>
     <g id="text_8">
      <!-- 15 -->
      <g transform="translate(179.023361 333.638438)scale(0.1 -0.1)">
       <use xlink:href="#DejaVuSans-31"/>
       <use x="63.623047" xlink:href="#DejaVuSans-35"/>
      </g>
     </g>
    </g>
    <g id="xtick_9">
     <g id="line2d_17">
      <path clip-path="url(#p011463e1c3)" d="M 206.425102 319.04 
L 206.425102 25.44 
" style="fill:none;stroke:#000000;stroke-dasharray:0.8,1.32;stroke-dashoffset:0;stroke-opacity:0.5;stroke-width:0.8;"/>
     </g>
     <g id="line2d_18">
      <g>
       <use style="stroke:#000000;stroke-width:0.8;" x="206.425102" xlink:href="#madcde33652" y="319.04"/>
      </g>
     </g>
     <g id="text_9">
      <!-- Sep -->
      <g transform="translate(197.000102 333.638438)scale(0.1 -0.1)">
       <defs>
        <path d="M 3425 4513 
L 3425 3897 
Q 3066 4069 2747 4153 
Q 2428 4238 2131 4238 
Q 1616 4238 1336 4038 
Q 1056 3838 1056 3469 
Q 1056 3159 1242 3001 
Q 1428 2844 1947 2747 
L 2328 2669 
Q 3034 2534 3370 2195 
Q 3706 1856 3706 1288 
Q 3706 609 3251 259 
Q 2797 -91 1919 -91 
Q 1588 -91 1214 -16 
Q 841 59 441 206 
L 441 856 
Q 825 641 1194 531 
Q 1563 422 1919 422 
Q 2459 422 2753 634 
Q 3047 847 3047 1241 
Q 3047 1584 2836 1778 
Q 2625 1972 2144 2069 
L 1759 2144 
Q 1053 2284 737 2584 
Q 422 2884 422 3419 
Q 422 4038 858 4394 
Q 1294 4750 2059 4750 
Q 2388 4750 2728 4690 
Q 3069 4631 3425 4513 
z
" id="DejaVuSans-53" transform="scale(0.015625)"/>
        <path d="M 3597 1894 
L 3597 1613 
L 953 1613 
Q 991 1019 1311 708 
Q 1631 397 2203 397 
Q 2534 397 2845 478 
Q 3156 559 3463 722 
L 3463 178 
Q 3153 47 2828 -22 
Q 2503 -91 2169 -91 
Q 1331 -91 842 396 
Q 353 884 353 1716 
Q 353 2575 817 3079 
Q 1281 3584 2069 3584 
Q 2775 3584 3186 3129 
Q 3597 2675 3597 1894 
z
M 3022 2063 
Q 3016 2534 2758 2815 
Q 2500 3097 2075 3097 
Q 1594 3097 1305 2825 
Q 1016 2553 972 2059 
L 3022 2063 
z
" id="DejaVuSans-65" transform="scale(0.015625)"/>
        <path d="M 1159 525 
L 1159 -1331 
L 581 -1331 
L 581 3500 
L 1159 3500 
L 1159 2969 
Q 1341 3281 1617 3432 
Q 1894 3584 2278 3584 
Q 2916 3584 3314 3078 
Q 3713 2572 3713 1747 
Q 3713 922 3314 415 
Q 2916 -91 2278 -91 
Q 1894 -91 1617 61 
Q 1341 213 1159 525 
z
M 3116 1747 
Q 3116 2381 2855 2742 
Q 2594 3103 2138 3103 
Q 1681 3103 1420 2742 
Q 1159 2381 1159 1747 
Q 1159 1113 1420 752 
Q 1681 391 2138 391 
Q 2594 391 2855 752 
Q 3116 1113 3116 1747 
z
" id="DejaVuSans-70" transform="scale(0.015625)"/>
       </defs>
       <use xlink:href="#DejaVuSans-53"/>
       <use x="63.476562" xlink:href="#DejaVuSans-65"/>
       <use x="125" xlink:href="#DejaVuSans-70"/>
      </g>
     </g>
    </g>
    <g id="xtick_10">
     <g id="line2d_19">
      <path clip-path="url(#p011463e1c3)" d="M 223.751537 319.04 
L 223.751537 25.44 
" style="fill:none;stroke:#000000;stroke-dasharray:0.8,1.32;stroke-dashoffset:0;stroke-opacity:0.5;stroke-width:0.8;"/>
     </g>
     <g id="line2d_20">
      <g>
       <use style="stroke:#000000;stroke-width:0.8;" x="223.751537" xlink:href="#madcde33652" y="319.04"/>
      </g>
     </g>
     <g id="text_10">
      <!-- 15 -->
      <g transform="translate(217.389037 333.638438)scale(0.1 -0.1)">
       <use xlink:href="#DejaVuSans-31"/>
       <use x="63.623047" xlink:href="#DejaVuSans-35"/>
      </g>
     </g>
    </g>
    <g id="xtick_11">
     <g id="line2d_21">
      <path clip-path="url(#p011463e1c3)" d="M 243.553176 319.04 
L 243.553176 25.44 
" style="fill:none;stroke:#000000;stroke-dasharray:0.8,1.32;stroke-dashoffset:0;stroke-opacity:0.5;stroke-width:0.8;"/>
     </g>
     <g id="line2d_22">
      <g>
       <use style="stroke:#000000;stroke-width:0.8;" x="243.553176" xlink:href="#madcde33652" y="319.04"/>
      </g>
     </g>
     <g id="text_11">
      <!-- Oct -->
      <g transform="translate(234.907864 333.638438)scale(0.1 -0.1)">
       <defs>
        <path d="M 2522 4238 
Q 1834 4238 1429 3725 
Q 1025 3213 1025 2328 
Q 1025 1447 1429 934 
Q 1834 422 2522 422 
Q 3209 422 3611 934 
Q 4013 1447 4013 2328 
Q 4013 3213 3611 3725 
Q 3209 4238 2522 4238 
z
M 2522 4750 
Q 3503 4750 4090 4092 
Q 4678 3434 4678 2328 
Q 4678 1225 4090 567 
Q 3503 -91 2522 -91 
Q 1538 -91 948 565 
Q 359 1222 359 2328 
Q 359 3434 948 4092 
Q 1538 4750 2522 4750 
z
" id="DejaVuSans-4f" transform="scale(0.015625)"/>
        <path d="M 3122 3366 
L 3122 2828 
Q 2878 2963 2633 3030 
Q 2388 3097 2138 3097 
Q 1578 3097 1268 2742 
Q 959 2388 959 1747 
Q 959 1106 1268 751 
Q 1578 397 2138 397 
Q 2388 397 2633 464 
Q 2878 531 3122 666 
L 3122 134 
Q 2881 22 2623 -34 
Q 2366 -91 2075 -91 
Q 1284 -91 818 406 
Q 353 903 353 1747 
Q 353 2603 823 3093 
Q 1294 3584 2113 3584 
Q 2378 3584 2631 3529 
Q 2884 3475 3122 3366 
z
" id="DejaVuSans-63" transform="scale(0.015625)"/>
        <path d="M 1172 4494 
L 1172 3500 
L 2356 3500 
L 2356 3053 
L 1172 3053 
L 1172 1153 
Q 1172 725 1289 603 
Q 1406 481 1766 481 
L 2356 481 
L 2356 0 
L 1766 0 
Q 1100 0 847 248 
Q 594 497 594 1153 
L 594 3053 
L 172 3053 
L 172 3500 
L 594 3500 
L 594 4494 
L 1172 4494 
z
" id="DejaVuSans-74" transform="scale(0.015625)"/>
       </defs>
       <use xlink:href="#DejaVuSans-4f"/>
       <use x="78.710938" xlink:href="#DejaVuSans-63"/>
       <use x="133.691406" xlink:href="#DejaVuSans-74"/>
      </g>
     </g>
    </g>
    <g id="xtick_12">
     <g id="line2d_23">
      <path clip-path="url(#p011463e1c3)" d="M 260.879611 319.04 
L 260.879611 25.44 
" style="fill:none;stroke:#000000;stroke-dasharray:0.8,1.32;stroke-dashoffset:0;stroke-opacity:0.5;stroke-width:0.8;"/>
     </g>
     <g id="line2d_24">
      <g>
       <use style="stroke:#000000;stroke-width:0.8;" x="260.879611" xlink:href="#madcde33652" y="319.04"/>
      </g>
     </g>
     <g id="text_12">
      <!-- 15 -->
      <g transform="translate(254.517111 333.638438)scale(0.1 -0.1)">
       <use xlink:href="#DejaVuSans-31"/>
       <use x="63.623047" xlink:href="#DejaVuSans-35"/>
      </g>
     </g>
    </g>
    <g id="xtick_13">
     <g id="line2d_25">
      <path clip-path="url(#p011463e1c3)" d="M 281.918852 319.04 
L 281.918852 25.44 
" style="fill:none;stroke:#000000;stroke-dasharray:0.8,1.32;stroke-dashoffset:0;stroke-opacity:0.5;stroke-width:0.8;"/>
     </g>
     <g id="line2d_26">
      <g>
       <use style="stroke:#000000;stroke-width:0.8;" x="281.918852" xlink:href="#madcde33652" y="319.04"/>
      </g>
     </g>
     <g id="text_13">
      <!-- Nov -->
      <g transform="translate(272.159477 333.638438)scale(0.1 -0.1)">
       <defs>
        <path d="M 628 4666 
L 1478 4666 
L 3547 763 
L 3547 4666 
L 4159 4666 
L 4159 0 
L 3309 0 
L 1241 3903 
L 1241 0 
L 628 0 
L 628 4666 
z
" id="DejaVuSans-4e" transform="scale(0.015625)"/>
        <path d="M 1959 3097 
Q 1497 3097 1228 2736 
Q 959 2375 959 1747 
Q 959 1119 1226 758 
Q 1494 397 1959 397 
Q 2419 397 2687 759 
Q 2956 1122 2956 1747 
Q 2956 2369 2687 2733 
Q 2419 3097 1959 3097 
z
M 1959 3584 
Q 2709 3584 3137 3096 
Q 3566 2609 3566 1747 
Q 3566 888 3137 398 
Q 2709 -91 1959 -91 
Q 1206 -91 779 398 
Q 353 888 353 1747 
Q 353 2609 779 3096 
Q 1206 3584 1959 3584 
z
" id="DejaVuSans-6f" transform="scale(0.015625)"/>
        <path d="M 191 3500 
L 800 3500 
L 1894 563 
L 2988 3500 
L 3597 3500 
L 2284 0 
L 1503 0 
L 191 3500 
z
" id="DejaVuSans-76" transform="scale(0.015625)"/>
       </defs>
       <use xlink:href="#DejaVuSans-4e"/>
       <use x="74.804688" xlink:href="#DejaVuSans-6f"/>
       <use x="135.986328" xlink:href="#DejaVuSans-76"/>
      </g>
     </g>
    </g>
    <g id="xtick_14">
     <g id="line2d_27">
      <path clip-path="url(#p011463e1c3)" d="M 299.245287 319.04 
L 299.245287 25.44 
" style="fill:none;stroke:#000000;stroke-dasharray:0.8,1.32;stroke-dashoffset:0;stroke-opacity:0.5;stroke-width:0.8;"/>
     </g>
     <g id="line2d_28">
      <g>
       <use style="stroke:#000000;stroke-width:0.8;" x="299.245287" xlink:href="#madcde33652" y="319.04"/>
      </g>
     </g>
     <g id="text_14">
      <!-- 15 -->
      <g transform="translate(292.882787 333.638438)scale(0.1 -0.1)">
       <use xlink:href="#DejaVuSans-31"/>
       <use x="63.623047" xlink:href="#DejaVuSans-35"/>
      </g>
     </g>
    </g>
    <g id="xtick_15">
     <g id="line2d_29">
      <path clip-path="url(#p011463e1c3)" d="M 319.046926 319.04 
L 319.046926 25.44 
" style="fill:none;stroke:#000000;stroke-dasharray:0.8,1.32;stroke-dashoffset:0;stroke-opacity:0.5;stroke-width:0.8;"/>
     </g>
     <g id="line2d_30">
      <g>
       <use style="stroke:#000000;stroke-width:0.8;" x="319.046926" xlink:href="#madcde33652" y="319.04"/>
      </g>
     </g>
     <g id="text_15">
      <!-- Dec -->
      <g transform="translate(309.371145 333.638438)scale(0.1 -0.1)">
       <defs>
        <path d="M 1259 4147 
L 1259 519 
L 2022 519 
Q 2988 519 3436 956 
Q 3884 1394 3884 2338 
Q 3884 3275 3436 3711 
Q 2988 4147 2022 4147 
L 1259 4147 
z
M 628 4666 
L 1925 4666 
Q 3281 4666 3915 4102 
Q 4550 3538 4550 2338 
Q 4550 1131 3912 565 
Q 3275 0 1925 0 
L 628 0 
L 628 4666 
z
" id="DejaVuSans-44" transform="scale(0.015625)"/>
       </defs>
       <use xlink:href="#DejaVuSans-44"/>
       <use x="77.001953" xlink:href="#DejaVuSans-65"/>
       <use x="138.525391" xlink:href="#DejaVuSans-63"/>
      </g>
     </g>
    </g>
    <g id="xtick_16">
     <g id="line2d_31">
      <path clip-path="url(#p011463e1c3)" d="M 336.373361 319.04 
L 336.373361 25.44 
" style="fill:none;stroke:#000000;stroke-dasharray:0.8,1.32;stroke-dashoffset:0;stroke-opacity:0.5;stroke-width:0.8;"/>
     </g>
     <g id="line2d_32">
      <g>
       <use style="stroke:#000000;stroke-width:0.8;" x="336.373361" xlink:href="#madcde33652" y="319.04"/>
      </g>
     </g>
     <g id="text_16">
      <!-- 15 -->
      <g transform="translate(330.010861 333.638438)scale(0.1 -0.1)">
       <use xlink:href="#DejaVuSans-31"/>
       <use x="63.623047" xlink:href="#DejaVuSans-35"/>
      </g>
     </g>
    </g>
    <g id="text_17">
     <!-- 2021-Dec -->
     <g transform="translate(307.765625 346.316563)scale(0.1 -0.1)">
      <defs>
       <path d="M 1228 531 
L 3431 531 
L 3431 0 
L 469 0 
L 469 531 
Q 828 903 1448 1529 
Q 2069 2156 2228 2338 
Q 2531 2678 2651 2914 
Q 2772 3150 2772 3378 
Q 2772 3750 2511 3984 
Q 2250 4219 1831 4219 
Q 1534 4219 1204 4116 
Q 875 4013 500 3803 
L 500 4441 
Q 881 4594 1212 4672 
Q 1544 4750 1819 4750 
Q 2544 4750 2975 4387 
Q 3406 4025 3406 3419 
Q 3406 3131 3298 2873 
Q 3191 2616 2906 2266 
Q 2828 2175 2409 1742 
Q 1991 1309 1228 531 
z
" id="DejaVuSans-32" transform="scale(0.015625)"/>
       <path d="M 2034 4250 
Q 1547 4250 1301 3770 
Q 1056 3291 1056 2328 
Q 1056 1369 1301 889 
Q 1547 409 2034 409 
Q 2525 409 2770 889 
Q 3016 1369 3016 2328 
Q 3016 3291 2770 3770 
Q 2525 4250 2034 4250 
z
M 2034 4750 
Q 2819 4750 3233 4129 
Q 3647 3509 3647 2328 
Q 3647 1150 3233 529 
Q 2819 -91 2034 -91 
Q 1250 -91 836 529 
Q 422 1150 422 2328 
Q 422 3509 836 4129 
Q 1250 4750 2034 4750 
z
" id="DejaVuSans-30" transform="scale(0.015625)"/>
       <path d="M 313 2009 
L 1997 2009 
L 1997 1497 
L 313 1497 
L 313 2009 
z
" id="DejaVuSans-2d" transform="scale(0.015625)"/>
      </defs>
      <use xlink:href="#DejaVuSans-32"/>
      <use x="63.623047" xlink:href="#DejaVuSans-30"/>
      <use x="127.246094" xlink:href="#DejaVuSans-32"/>
      <use x="190.869141" xlink:href="#DejaVuSans-31"/>
      <use x="254.492188" xlink:href="#DejaVuSans-2d"/>
      <use x="290.576172" xlink:href="#DejaVuSans-44"/>
      <use x="367.578125" xlink:href="#DejaVuSans-65"/>
      <use x="429.101562" xlink:href="#DejaVuSans-63"/>
     </g>
    </g>
   </g>
   <g id="matplotlib.axis_2">
    <g id="ytick_1">
     <g id="line2d_33">
      <path clip-path="url(#p011463e1c3)" d="M 54.2 319.04 
L 356.175 319.04 
" style="fill:none;stroke:#000000;stroke-dasharray:0.8,1.32;stroke-dashoffset:0;stroke-opacity:0.5;stroke-width:0.8;"/>
     </g>
     <g id="line2d_34">
      <defs>
       <path d="M 0 0 
L -3.5 0 
" id="m62174d63b5" style="stroke:#000000;stroke-width:0.8;"/>
      </defs>
      <g>
       <use style="stroke:#000000;stroke-width:0.8;" x="54.2" xlink:href="#m62174d63b5" y="319.04"/>
      </g>
     </g>
     <g id="text_18">
      <!-- 0.00 -->
      <g transform="translate(24.934375 322.839219)scale(0.1 -0.1)">
       <defs>
        <path d="M 684 794 
L 1344 794 
L 1344 0 
L 684 0 
L 684 794 
z
" id="DejaVuSans-2e" transform="scale(0.015625)"/>
       </defs>
       <use xlink:href="#DejaVuSans-30"/>
       <use x="63.623047" xlink:href="#DejaVuSans-2e"/>
       <use x="95.410156" xlink:href="#DejaVuSans-30"/>
       <use x="159.033203" xlink:href="#DejaVuSans-30"/>
      </g>
     </g>
    </g>
    <g id="ytick_2">
     <g id="line2d_35">
      <path clip-path="url(#p011463e1c3)" d="M 54.2 285.676364 
L 356.175 285.676364 
" style="fill:none;stroke:#000000;stroke-dasharray:0.8,1.32;stroke-dashoffset:0;stroke-opacity:0.5;stroke-width:0.8;"/>
     </g>
     <g id="line2d_36">
      <g>
       <use style="stroke:#000000;stroke-width:0.8;" x="54.2" xlink:href="#m62174d63b5" y="285.676364"/>
      </g>
     </g>
     <g id="text_19">
      <!-- 0.25 -->
      <g transform="translate(24.934375 289.475582)scale(0.1 -0.1)">
       <use xlink:href="#DejaVuSans-30"/>
       <use x="63.623047" xlink:href="#DejaVuSans-2e"/>
       <use x="95.410156" xlink:href="#DejaVuSans-32"/>
       <use x="159.033203" xlink:href="#DejaVuSans-35"/>
      </g>
     </g>
    </g>
    <g id="ytick_3">
     <g id="line2d_37">
      <path clip-path="url(#p011463e1c3)" d="M 54.2 252.312727 
L 356.175 252.312727 
" style="fill:none;stroke:#000000;stroke-dasharray:0.8,1.32;stroke-dashoffset:0;stroke-opacity:0.5;stroke-width:0.8;"/>
     </g>
     <g id="line2d_38">
      <g>
       <use style="stroke:#000000;stroke-width:0.8;" x="54.2" xlink:href="#m62174d63b5" y="252.312727"/>
      </g>
     </g>
     <g id="text_20">
      <!-- 0.50 -->
      <g transform="translate(24.934375 256.111946)scale(0.1 -0.1)">
       <use xlink:href="#DejaVuSans-30"/>
       <use x="63.623047" xlink:href="#DejaVuSans-2e"/>
       <use x="95.410156" xlink:href="#DejaVuSans-35"/>
       <use x="159.033203" xlink:href="#DejaVuSans-30"/>
      </g>
     </g>
    </g>
    <g id="ytick_4">
     <g id="line2d_39">
      <path clip-path="url(#p011463e1c3)" d="M 54.2 218.949091 
L 356.175 218.949091 
" style="fill:none;stroke:#000000;stroke-dasharray:0.8,1.32;stroke-dashoffset:0;stroke-opacity:0.5;stroke-width:0.8;"/>
     </g>
     <g id="line2d_40">
      <g>
       <use style="stroke:#000000;stroke-width:0.8;" x="54.2" xlink:href="#m62174d63b5" y="218.949091"/>
      </g>
     </g>
     <g id="text_21">
      <!-- 0.75 -->
      <g transform="translate(24.934375 222.74831)scale(0.1 -0.1)">
       <defs>
        <path d="M 525 4666 
L 3525 4666 
L 3525 4397 
L 1831 0 
L 1172 0 
L 2766 4134 
L 525 4134 
L 525 4666 
z
" id="DejaVuSans-37" transform="scale(0.015625)"/>
       </defs>
       <use xlink:href="#DejaVuSans-30"/>
       <use x="63.623047" xlink:href="#DejaVuSans-2e"/>
       <use x="95.410156" xlink:href="#DejaVuSans-37"/>
       <use x="159.033203" xlink:href="#DejaVuSans-35"/>
      </g>
     </g>
    </g>
    <g id="ytick_5">
     <g id="line2d_41">
      <path clip-path="url(#p011463e1c3)" d="M 54.2 185.585455 
L 356.175 185.585455 
" style="fill:none;stroke:#000000;stroke-dasharray:0.8,1.32;stroke-dashoffset:0;stroke-opacity:0.5;stroke-width:0.8;"/>
     </g>
     <g id="line2d_42">
      <g>
       <use style="stroke:#000000;stroke-width:0.8;" x="54.2" xlink:href="#m62174d63b5" y="185.585455"/>
      </g>
     </g>
     <g id="text_22">
      <!-- 1.00 -->
      <g transform="translate(24.934375 189.384673)scale(0.1 -0.1)">
       <use xlink:href="#DejaVuSans-31"/>
       <use x="63.623047" xlink:href="#DejaVuSans-2e"/>
       <use x="95.410156" xlink:href="#DejaVuSans-30"/>
       <use x="159.033203" xlink:href="#DejaVuSans-30"/>
      </g>
     </g>
    </g>
    <g id="ytick_6">
     <g id="line2d_43">
      <path clip-path="url(#p011463e1c3)" d="M 54.2 152.221818 
L 356.175 152.221818 
" style="fill:none;stroke:#000000;stroke-dasharray:0.8,1.32;stroke-dashoffset:0;stroke-opacity:0.5;stroke-width:0.8;"/>
     </g>
     <g id="line2d_44">
      <g>
       <use style="stroke:#000000;stroke-width:0.8;" x="54.2" xlink:href="#m62174d63b5" y="152.221818"/>
      </g>
     </g>
     <g id="text_23">
      <!-- 1.25 -->
      <g transform="translate(24.934375 156.021037)scale(0.1 -0.1)">
       <use xlink:href="#DejaVuSans-31"/>
       <use x="63.623047" xlink:href="#DejaVuSans-2e"/>
       <use x="95.410156" xlink:href="#DejaVuSans-32"/>
       <use x="159.033203" xlink:href="#DejaVuSans-35"/>
      </g>
     </g>
    </g>
    <g id="ytick_7">
     <g id="line2d_45">
      <path clip-path="url(#p011463e1c3)" d="M 54.2 118.858182 
L 356.175 118.858182 
" style="fill:none;stroke:#000000;stroke-dasharray:0.8,1.32;stroke-dashoffset:0;stroke-opacity:0.5;stroke-width:0.8;"/>
     </g>
     <g id="line2d_46">
      <g>
       <use style="stroke:#000000;stroke-width:0.8;" x="54.2" xlink:href="#m62174d63b5" y="118.858182"/>
      </g>
     </g>
     <g id="text_24">
      <!-- 1.50 -->
      <g transform="translate(24.934375 122.657401)scale(0.1 -0.1)">
       <use xlink:href="#DejaVuSans-31"/>
       <use x="63.623047" xlink:href="#DejaVuSans-2e"/>
       <use x="95.410156" xlink:href="#DejaVuSans-35"/>
       <use x="159.033203" xlink:href="#DejaVuSans-30"/>
      </g>
     </g>
    </g>
    <g id="ytick_8">
     <g id="line2d_47">
      <path clip-path="url(#p011463e1c3)" d="M 54.2 85.494545 
L 356.175 85.494545 
" style="fill:none;stroke:#000000;stroke-dasharray:0.8,1.32;stroke-dashoffset:0;stroke-opacity:0.5;stroke-width:0.8;"/>
     </g>
     <g id="line2d_48">
      <g>
       <use style="stroke:#000000;stroke-width:0.8;" x="54.2" xlink:href="#m62174d63b5" y="85.494545"/>
      </g>
     </g>
     <g id="text_25">
      <!-- 1.75 -->
      <g transform="translate(24.934375 89.293764)scale(0.1 -0.1)">
       <use xlink:href="#DejaVuSans-31"/>
       <use x="63.623047" xlink:href="#DejaVuSans-2e"/>
       <use x="95.410156" xlink:href="#DejaVuSans-37"/>
       <use x="159.033203" xlink:href="#DejaVuSans-35"/>
      </g>
     </g>
    </g>
    <g id="ytick_9">
     <g id="line2d_49">
      <path clip-path="url(#p011463e1c3)" d="M 54.2 52.130909 
L 356.175 52.130909 
" style="fill:none;stroke:#000000;stroke-dasharray:0.8,1.32;stroke-dashoffset:0;stroke-opacity:0.5;stroke-width:0.8;"/>
     </g>
     <g id="line2d_50">
      <g>
       <use style="stroke:#000000;stroke-width:0.8;" x="54.2" xlink:href="#m62174d63b5" y="52.130909"/>
      </g>
     </g>
     <g id="text_26">
      <!-- 2.00 -->
      <g transform="translate(24.934375 55.930128)scale(0.1 -0.1)">
       <use xlink:href="#DejaVuSans-32"/>
       <use x="63.623047" xlink:href="#DejaVuSans-2e"/>
       <use x="95.410156" xlink:href="#DejaVuSans-30"/>
       <use x="159.033203" xlink:href="#DejaVuSans-30"/>
      </g>
     </g>
    </g>
    <g id="text_27">
     <!-- 7d avg doses per hundred population per day -->
     <g transform="translate(18.854688 286.7275)rotate(-90)scale(0.1 -0.1)">
      <defs>
       <path d="M 2906 2969 
L 2906 4863 
L 3481 4863 
L 3481 0 
L 2906 0 
L 2906 525 
Q 2725 213 2448 61 
Q 2172 -91 1784 -91 
Q 1150 -91 751 415 
Q 353 922 353 1747 
Q 353 2572 751 3078 
Q 1150 3584 1784 3584 
Q 2172 3584 2448 3432 
Q 2725 3281 2906 2969 
z
M 947 1747 
Q 947 1113 1208 752 
Q 1469 391 1925 391 
Q 2381 391 2643 752 
Q 2906 1113 2906 1747 
Q 2906 2381 2643 2742 
Q 2381 3103 1925 3103 
Q 1469 3103 1208 2742 
Q 947 2381 947 1747 
z
" id="DejaVuSans-64" transform="scale(0.015625)"/>
       <path id="DejaVuSans-20" transform="scale(0.015625)"/>
       <path d="M 2834 3397 
L 2834 2853 
Q 2591 2978 2328 3040 
Q 2066 3103 1784 3103 
Q 1356 3103 1142 2972 
Q 928 2841 928 2578 
Q 928 2378 1081 2264 
Q 1234 2150 1697 2047 
L 1894 2003 
Q 2506 1872 2764 1633 
Q 3022 1394 3022 966 
Q 3022 478 2636 193 
Q 2250 -91 1575 -91 
Q 1294 -91 989 -36 
Q 684 19 347 128 
L 347 722 
Q 666 556 975 473 
Q 1284 391 1588 391 
Q 1994 391 2212 530 
Q 2431 669 2431 922 
Q 2431 1156 2273 1281 
Q 2116 1406 1581 1522 
L 1381 1569 
Q 847 1681 609 1914 
Q 372 2147 372 2553 
Q 372 3047 722 3315 
Q 1072 3584 1716 3584 
Q 2034 3584 2315 3537 
Q 2597 3491 2834 3397 
z
" id="DejaVuSans-73" transform="scale(0.015625)"/>
       <path d="M 2631 2963 
Q 2534 3019 2420 3045 
Q 2306 3072 2169 3072 
Q 1681 3072 1420 2755 
Q 1159 2438 1159 1844 
L 1159 0 
L 581 0 
L 581 3500 
L 1159 3500 
L 1159 2956 
Q 1341 3275 1631 3429 
Q 1922 3584 2338 3584 
Q 2397 3584 2469 3576 
Q 2541 3569 2628 3553 
L 2631 2963 
z
" id="DejaVuSans-72" transform="scale(0.015625)"/>
       <path d="M 3513 2113 
L 3513 0 
L 2938 0 
L 2938 2094 
Q 2938 2591 2744 2837 
Q 2550 3084 2163 3084 
Q 1697 3084 1428 2787 
Q 1159 2491 1159 1978 
L 1159 0 
L 581 0 
L 581 4863 
L 1159 4863 
L 1159 2956 
Q 1366 3272 1645 3428 
Q 1925 3584 2291 3584 
Q 2894 3584 3203 3211 
Q 3513 2838 3513 2113 
z
" id="DejaVuSans-68" transform="scale(0.015625)"/>
       <path d="M 603 3500 
L 1178 3500 
L 1178 0 
L 603 0 
L 603 3500 
z
M 603 4863 
L 1178 4863 
L 1178 4134 
L 603 4134 
L 603 4863 
z
" id="DejaVuSans-69" transform="scale(0.015625)"/>
      </defs>
      <use xlink:href="#DejaVuSans-37"/>
      <use x="63.623047" xlink:href="#DejaVuSans-64"/>
      <use x="127.099609" xlink:href="#DejaVuSans-20"/>
      <use x="158.886719" xlink:href="#DejaVuSans-61"/>
      <use x="220.166016" xlink:href="#DejaVuSans-76"/>
      <use x="279.345703" xlink:href="#DejaVuSans-67"/>
      <use x="342.822266" xlink:href="#DejaVuSans-20"/>
      <use x="374.609375" xlink:href="#DejaVuSans-64"/>
      <use x="438.085938" xlink:href="#DejaVuSans-6f"/>
      <use x="499.267578" xlink:href="#DejaVuSans-73"/>
      <use x="551.367188" xlink:href="#DejaVuSans-65"/>
      <use x="612.890625" xlink:href="#DejaVuSans-73"/>
      <use x="664.990234" xlink:href="#DejaVuSans-20"/>
      <use x="696.777344" xlink:href="#DejaVuSans-70"/>
      <use x="760.253906" xlink:href="#DejaVuSans-65"/>
      <use x="821.777344" xlink:href="#DejaVuSans-72"/>
      <use x="862.890625" xlink:href="#DejaVuSans-20"/>
      <use x="894.677734" xlink:href="#DejaVuSans-68"/>
      <use x="958.056641" xlink:href="#DejaVuSans-75"/>
      <use x="1021.435547" xlink:href="#DejaVuSans-6e"/>
      <use x="1084.814453" xlink:href="#DejaVuSans-64"/>
      <use x="1148.291016" xlink:href="#DejaVuSans-72"/>
      <use x="1187.154297" xlink:href="#DejaVuSans-65"/>
      <use x="1248.677734" xlink:href="#DejaVuSans-64"/>
      <use x="1312.154297" xlink:href="#DejaVuSans-20"/>
      <use x="1343.941406" xlink:href="#DejaVuSans-70"/>
      <use x="1407.417969" xlink:href="#DejaVuSans-6f"/>
      <use x="1468.599609" xlink:href="#DejaVuSans-70"/>
      <use x="1532.076172" xlink:href="#DejaVuSans-75"/>
      <use x="1595.455078" xlink:href="#DejaVuSans-6c"/>
      <use x="1623.238281" xlink:href="#DejaVuSans-61"/>
      <use x="1684.517578" xlink:href="#DejaVuSans-74"/>
      <use x="1723.726562" xlink:href="#DejaVuSans-69"/>
      <use x="1751.509766" xlink:href="#DejaVuSans-6f"/>
      <use x="1812.691406" xlink:href="#DejaVuSans-6e"/>
      <use x="1876.070312" xlink:href="#DejaVuSans-20"/>
      <use x="1907.857422" xlink:href="#DejaVuSans-70"/>
      <use x="1971.333984" xlink:href="#DejaVuSans-65"/>
      <use x="2032.857422" xlink:href="#DejaVuSans-72"/>
      <use x="2073.970703" xlink:href="#DejaVuSans-20"/>
      <use x="2105.757812" xlink:href="#DejaVuSans-64"/>
      <use x="2169.234375" xlink:href="#DejaVuSans-61"/>
      <use x="2230.513672" xlink:href="#DejaVuSans-79"/>
     </g>
    </g>
   </g>
   <g id="line2d_51">
    <path clip-path="url(#p011463e1c3)" d="M -1 313.251277 
L -0.254508 313.251277 
L -0.254508 312.940167 
L 2.220697 312.883602 
L 2.220697 312.745268 
L 3.458299 312.745268 
L 3.458299 312.539168 
L 4.695902 312.539168 
L 4.695902 312.255781 
L 5.933504 312.255781 
L 5.933504 312.054441 
L 7.171107 312.054441 
L 7.171107 311.590436 
L 8.408709 311.590436 
L 8.408709 311.228641 
L 9.646311 311.228641 
L 9.646311 311.083027 
L 10.883914 311.083027 
L 10.883914 310.491049 
L 12.121516 310.491049 
L 12.121516 310.286629 
L 13.359119 310.286629 
L 13.359119 309.727415 
L 14.596721 309.727415 
L 14.596721 309.191163 
L 15.834324 309.191163 
L 15.834324 308.418568 
L 17.071926 308.418568 
L 17.071926 307.992646 
L 18.309529 307.992646 
L 18.309529 309.158119 
L 19.547131 309.158119 
L 19.547131 310.072408 
L 20.784734 310.072408 
L 20.784734 310.528573 
L 22.022336 310.528573 
L 22.022336 312.057521 
L 24.497541 312.125008 
L 24.497541 312.875201 
L 25.735143 312.875201 
L 25.735143 278.163587 
L 26.972746 278.163587 
L 26.972746 274.70637 
L 28.210348 274.70637 
L 28.210348 272.701096 
L 29.447951 272.701096 
L 29.447951 271.837212 
L 30.685553 271.837212 
L 30.685553 268.457003 
L 31.923156 268.457003 
L 31.923156 266.126336 
L 33.160758 266.126336 
L 33.160758 263.661257 
L 34.398361 263.661257 
L 34.398361 296.517131 
L 36.873566 296.586297 
L 36.873566 297.181355 
L 38.111168 297.181355 
L 38.111168 292.91122 
L 39.34877 292.91122 
L 39.34877 291.900042 
L 40.586373 291.900042 
L 40.586373 291.706263 
L 41.823975 291.706263 
L 41.823975 291.046519 
L 43.061578 291.046519 
L 43.061578 289.645543 
L 45.536783 289.537452 
L 45.536783 289.231382 
L 46.774385 289.231382 
L 46.774385 294.178903 
L 48.011988 294.178903 
L 48.011988 295.537315 
L 49.24959 295.537315 
L 49.24959 294.943378 
L 50.487193 294.943378 
L 50.487193 293.948721 
L 51.724795 293.948721 
L 51.724795 294.615186 
L 52.962398 294.615186 
L 52.962398 294.86497 
L 54.2 294.86497 
L 54.2 295.260368 
L 55.437602 295.260368 
L 55.437602 294.932177 
L 56.675205 294.932177 
L 56.675205 292.887698 
L 57.912807 292.887698 
L 57.912807 291.019356 
L 59.15041 291.019356 
L 59.15041 290.44586 
L 60.388012 290.44586 
L 60.388012 288.273129 
L 61.625615 288.273129 
L 61.625615 286.585965 
L 62.863217 286.585965 
L 62.863217 285.748124 
L 64.10082 285.748124 
L 64.10082 285.487138 
L 65.338422 285.487138 
L 65.338422 284.67814 
L 66.576025 284.67814 
L 66.576025 285.825691 
L 67.813627 285.825691 
L 67.813627 285.585988 
L 69.05123 285.585988 
L 69.05123 286.333381 
L 70.288832 286.333381 
L 70.288832 285.934062 
L 72.764037 286.01499 
L 72.764037 285.690998 
L 74.001639 285.690998 
L 74.001639 285.082499 
L 75.239242 285.082499 
L 75.239242 283.572312 
L 76.476844 283.572312 
L 76.476844 283.13323 
L 77.714447 283.13323 
L 77.714447 281.828863 
L 78.952049 281.828863 
L 78.952049 281.328454 
L 80.189652 281.328454 
L 80.189652 280.906173 
L 81.427254 280.906173 
L 81.427254 280.739837 
L 82.664857 280.739837 
L 82.664857 284.322225 
L 83.902459 284.322225 
L 83.902459 282.828 
L 85.140061 282.828 
L 85.140061 281.297651 
L 86.377664 281.297651 
L 86.377664 277.143167 
L 87.615266 277.143167 
L 87.615266 271.061816 
L 88.852869 271.061816 
L 88.852869 265.944879 
L 90.090471 265.944879 
L 90.090471 261.479845 
L 91.328074 261.479845 
L 91.328074 253.368856 
L 92.565676 253.368856 
L 92.565676 247.578453 
L 93.803279 247.578453 
L 93.803279 241.898381 
L 95.040881 241.898381 
L 95.040881 239.986915 
L 96.278484 239.986915 
L 96.278484 237.56636 
L 97.516086 237.56636 
L 97.516086 233.389194 
L 98.753689 233.389194 
L 98.753689 227.320444 
L 99.991291 227.320444 
L 99.991291 224.834363 
L 101.228893 224.834363 
L 101.228893 225.930949 
L 102.466496 225.930949 
L 102.466496 225.752572 
L 103.704098 225.752572 
L 103.704098 225.074346 
L 104.941701 225.074346 
L 104.941701 227.37617 
L 106.179303 227.37617 
L 106.179303 232.736731 
L 107.416906 232.736731 
L 107.416906 239.778295 
L 108.654508 239.778295 
L 108.654508 250.605548 
L 109.892111 250.605548 
L 109.892111 249.532203 
L 111.129713 249.532203 
L 111.129713 252.58002 
L 112.367316 252.58002 
L 112.367316 255.525626 
L 113.604918 255.525626 
L 113.604918 257.547422 
L 114.84252 257.547422 
L 114.84252 258.902754 
L 116.080123 258.902754 
L 116.080123 260.263126 
L 117.317725 260.263126 
L 117.317725 253.011542 
L 118.555328 253.011542 
L 118.555328 255.820775 
L 119.79293 255.820775 
L 119.79293 256.426193 
L 121.030533 256.426193 
L 121.030533 257.654953 
L 122.268135 257.654953 
L 122.268135 258.474873 
L 123.505738 258.474873 
L 123.505738 258.671732 
L 124.74334 258.671732 
L 124.74334 258.069673 
L 125.980943 258.069673 
L 125.980943 257.231832 
L 127.218545 257.231832 
L 127.218545 258.900514 
L 129.69375 258.808945 
L 129.69375 258.323658 
L 130.931352 258.323658 
L 130.931352 257.449973 
L 132.168955 257.449973 
L 132.168955 256.972527 
L 134.64416 257.052054 
L 134.64416 256.516362 
L 135.881762 256.516362 
L 135.881762 253.970355 
L 137.119365 253.970355 
L 137.119365 258.03747 
L 138.356967 258.03747 
L 138.356967 258.926837 
L 139.59457 258.926837 
L 139.59457 260.310171 
L 140.832172 260.310171 
L 140.832172 260.085029 
L 143.307377 259.9873 
L 143.307377 260.368697 
L 144.54498 260.368697 
L 144.54498 263.667137 
L 145.782582 263.667137 
L 145.782582 260.454945 
L 147.020184 260.454945 
L 147.020184 259.530015 
L 148.257787 259.530015 
L 148.257787 257.481896 
L 149.495389 257.481896 
L 149.495389 256.174449 
L 150.732992 256.174449 
L 150.732992 255.627836 
L 151.970594 255.627836 
L 151.970594 254.091046 
L 153.208197 254.091046 
L 153.208197 252.736835 
L 154.445799 252.736835 
L 154.445799 249.689019 
L 155.683402 249.689019 
L 155.683402 246.913109 
L 156.921004 246.913109 
L 156.921004 245.526694 
L 158.158607 245.526694 
L 158.158607 244.522796 
L 159.396209 244.522796 
L 159.396209 243.183146 
L 160.633811 243.183146 
L 160.633811 242.39571 
L 161.871414 242.39571 
L 161.871414 240.75139 
L 163.109016 240.75139 
L 163.109016 241.551148 
L 164.346619 241.551148 
L 164.346619 241.98939 
L 165.584221 241.98939 
L 165.584221 241.68108 
L 168.059426 241.724204 
L 168.059426 242.290139 
L 169.297029 242.290139 
L 169.297029 243.159624 
L 170.534631 243.159624 
L 170.534631 243.539341 
L 171.772234 243.539341 
L 171.772234 242.885197 
L 173.009836 242.885197 
L 173.009836 242.101121 
L 174.247439 242.101121 
L 174.247439 240.747189 
L 175.485041 240.747189 
L 175.485041 239.583676 
L 176.722643 239.583676 
L 176.722643 237.982481 
L 177.960246 237.982481 
L 177.960246 234.538146 
L 179.197848 234.538146 
L 179.197848 230.701213 
L 180.435451 230.701213 
L 180.435451 226.314026 
L 181.673053 226.314026 
L 181.673053 221.965764 
L 182.910656 221.965764 
L 182.910656 217.743513 
L 184.148258 217.743513 
L 184.148258 214.82983 
L 185.385861 214.82983 
L 185.385861 209.332233 
L 186.623463 209.332233 
L 186.623463 202.669257 
L 187.861066 202.669257 
L 187.861066 200.013209 
L 189.098668 200.013209 
L 189.098668 197.650597 
L 190.33627 197.650597 
L 190.33627 195.486678 
L 191.573873 195.486678 
L 191.573873 193.568076 
L 192.811475 193.568076 
L 192.811475 191.453608 
L 194.049078 191.453608 
L 194.049078 193.989036 
L 195.28668 193.989036 
L 195.28668 197.36428 
L 196.524283 197.36428 
L 196.524283 194.408231 
L 197.761885 194.408231 
L 197.761885 191.38769 
L 198.999488 191.38769 
L 198.999488 196.999589 
L 200.23709 196.999589 
L 200.23709 196.075021 
L 201.474693 196.075021 
L 201.474693 185.702452 
L 202.712295 185.702452 
L 202.712295 184.171779 
L 203.949898 184.171779 
L 203.949898 191.674477 
L 205.1875 191.674477 
L 205.1875 182.851416 
L 206.425102 182.851416 
L 206.425102 182.176823 
L 207.662705 182.176823 
L 207.662705 174.286606 
L 208.900307 174.286606 
L 208.900307 172.741949 
L 210.13791 172.741949 
L 210.13791 182.514119 
L 211.375512 182.514119 
L 211.375512 183.838478 
L 212.613115 183.838478 
L 212.613115 174.744038 
L 213.850717 174.744038 
L 213.850717 181.013123 
L 215.08832 181.013123 
L 215.08832 179.893939 
L 216.325922 179.893939 
L 216.325922 177.535149 
L 217.563525 177.535149 
L 217.563525 177.535149 
" style="fill:none;stroke:#1f77b4;stroke-linecap:square;stroke-width:1.5;"/>
   </g>
   <g id="line2d_52">
    <path clip-path="url(#p011463e1c3)" d="M 217.563525 158.894545 
L 242.315574 158.894545 
L 242.315574 132.203636 
L 294.294877 132.203636 
L 294.294877 319.04 
L 465.084016 319.04 
L 465.084016 319.04 
" style="fill:none;stroke:#ff7f0e;stroke-linecap:square;stroke-width:1.5;"/>
   </g>
   <g id="patch_3">
    <path d="M 54.2 319.04 
L 54.2 25.44 
" style="fill:none;stroke:#000000;stroke-linecap:square;stroke-linejoin:miter;stroke-width:0.8;"/>
   </g>
   <g id="patch_4">
    <path d="M 356.175 319.04 
L 356.175 25.44 
" style="fill:none;stroke:#000000;stroke-linecap:square;stroke-linejoin:miter;stroke-width:0.8;"/>
   </g>
   <g id="patch_5">
    <path d="M 54.2 319.04 
L 356.175 319.04 
" style="fill:none;stroke:#000000;stroke-linecap:square;stroke-linejoin:miter;stroke-width:0.8;"/>
   </g>
   <g id="patch_6">
    <path d="M 54.2 25.44 
L 356.175 25.44 
" style="fill:none;stroke:#000000;stroke-linecap:square;stroke-linejoin:miter;stroke-width:0.8;"/>
   </g>
   <g id="text_28">
    <!-- VIC daily vaccinations per capita -->
    <g transform="translate(107.085625 19.44)scale(0.12 -0.12)">
     <defs>
      <path d="M 1831 0 
L 50 4666 
L 709 4666 
L 2188 738 
L 3669 4666 
L 4325 4666 
L 2547 0 
L 1831 0 
z
" id="DejaVuSans-56" transform="scale(0.015625)"/>
      <path d="M 628 4666 
L 1259 4666 
L 1259 0 
L 628 0 
L 628 4666 
z
" id="DejaVuSans-49" transform="scale(0.015625)"/>
      <path d="M 4122 4306 
L 4122 3641 
Q 3803 3938 3442 4084 
Q 3081 4231 2675 4231 
Q 1875 4231 1450 3742 
Q 1025 3253 1025 2328 
Q 1025 1406 1450 917 
Q 1875 428 2675 428 
Q 3081 428 3442 575 
Q 3803 722 4122 1019 
L 4122 359 
Q 3791 134 3420 21 
Q 3050 -91 2638 -91 
Q 1578 -91 968 557 
Q 359 1206 359 2328 
Q 359 3453 968 4101 
Q 1578 4750 2638 4750 
Q 3056 4750 3426 4639 
Q 3797 4528 4122 4306 
z
" id="DejaVuSans-43" transform="scale(0.015625)"/>
     </defs>
     <use xlink:href="#DejaVuSans-56"/>
     <use x="68.408203" xlink:href="#DejaVuSans-49"/>
     <use x="97.900391" xlink:href="#DejaVuSans-43"/>
     <use x="167.724609" xlink:href="#DejaVuSans-20"/>
     <use x="199.511719" xlink:href="#DejaVuSans-64"/>
     <use x="262.988281" xlink:href="#DejaVuSans-61"/>
     <use x="324.267578" xlink:href="#DejaVuSans-69"/>
     <use x="352.050781" xlink:href="#DejaVuSans-6c"/>
     <use x="379.833984" xlink:href="#DejaVuSans-79"/>
     <use x="439.013672" xlink:href="#DejaVuSans-20"/>
     <use x="470.800781" xlink:href="#DejaVuSans-76"/>
     <use x="529.980469" xlink:href="#DejaVuSans-61"/>
     <use x="591.259766" xlink:href="#DejaVuSans-63"/>
     <use x="646.240234" xlink:href="#DejaVuSans-63"/>
     <use x="701.220703" xlink:href="#DejaVuSans-69"/>
     <use x="729.003906" xlink:href="#DejaVuSans-6e"/>
     <use x="792.382812" xlink:href="#DejaVuSans-61"/>
     <use x="853.662109" xlink:href="#DejaVuSans-74"/>
     <use x="892.871094" xlink:href="#DejaVuSans-69"/>
     <use x="920.654297" xlink:href="#DejaVuSans-6f"/>
     <use x="981.835938" xlink:href="#DejaVuSans-6e"/>
     <use x="1045.214844" xlink:href="#DejaVuSans-73"/>
     <use x="1097.314453" xlink:href="#DejaVuSans-20"/>
     <use x="1129.101562" xlink:href="#DejaVuSans-70"/>
     <use x="1192.578125" xlink:href="#DejaVuSans-65"/>
     <use x="1254.101562" xlink:href="#DejaVuSans-72"/>
     <use x="1295.214844" xlink:href="#DejaVuSans-20"/>
     <use x="1327.001953" xlink:href="#DejaVuSans-63"/>
     <use x="1381.982422" xlink:href="#DejaVuSans-61"/>
     <use x="1443.261719" xlink:href="#DejaVuSans-70"/>
     <use x="1506.738281" xlink:href="#DejaVuSans-69"/>
     <use x="1534.521484" xlink:href="#DejaVuSans-74"/>
     <use x="1573.730469" xlink:href="#DejaVuSans-61"/>
    </g>
   </g>
   <g id="legend_1">
    <g id="patch_7">
     <path d="M 201.292187 62.79625 
L 349.175 62.79625 
Q 351.175 62.79625 351.175 60.79625 
L 351.175 32.44 
Q 351.175 30.44 349.175 30.44 
L 201.292187 30.44 
Q 199.292187 30.44 199.292187 32.44 
L 199.292187 60.79625 
Q 199.292187 62.79625 201.292187 62.79625 
z
" style="fill:#ffffff;opacity:0.8;stroke:#cccccc;stroke-linejoin:miter;"/>
    </g>
    <g id="line2d_53">
     <path d="M 203.292187 38.538437 
L 223.292187 38.538437 
" style="fill:none;stroke:#1f77b4;stroke-linecap:square;stroke-width:1.5;"/>
    </g>
    <g id="line2d_54"/>
    <g id="text_29">
     <!-- Actual -->
     <g transform="translate(231.292187 42.038437)scale(0.1 -0.1)">
      <use xlink:href="#DejaVuSans-41"/>
      <use x="66.658203" xlink:href="#DejaVuSans-63"/>
      <use x="121.638672" xlink:href="#DejaVuSans-74"/>
      <use x="160.847656" xlink:href="#DejaVuSans-75"/>
      <use x="224.226562" xlink:href="#DejaVuSans-61"/>
      <use x="285.505859" xlink:href="#DejaVuSans-6c"/>
     </g>
    </g>
    <g id="line2d_55">
     <path d="M 203.292187 53.216563 
L 223.292187 53.216563 
" style="fill:none;stroke:#ff7f0e;stroke-linecap:square;stroke-width:1.5;"/>
    </g>
    <g id="line2d_56"/>
    <g id="text_30">
     <!-- Assumed for projection -->
     <g transform="translate(231.292187 56.716563)scale(0.1 -0.1)">
      <defs>
       <path d="M 3328 2828 
Q 3544 3216 3844 3400 
Q 4144 3584 4550 3584 
Q 5097 3584 5394 3201 
Q 5691 2819 5691 2113 
L 5691 0 
L 5113 0 
L 5113 2094 
Q 5113 2597 4934 2840 
Q 4756 3084 4391 3084 
Q 3944 3084 3684 2787 
Q 3425 2491 3425 1978 
L 3425 0 
L 2847 0 
L 2847 2094 
Q 2847 2600 2669 2842 
Q 2491 3084 2119 3084 
Q 1678 3084 1418 2786 
Q 1159 2488 1159 1978 
L 1159 0 
L 581 0 
L 581 3500 
L 1159 3500 
L 1159 2956 
Q 1356 3278 1631 3431 
Q 1906 3584 2284 3584 
Q 2666 3584 2933 3390 
Q 3200 3197 3328 2828 
z
" id="DejaVuSans-6d" transform="scale(0.015625)"/>
       <path d="M 2375 4863 
L 2375 4384 
L 1825 4384 
Q 1516 4384 1395 4259 
Q 1275 4134 1275 3809 
L 1275 3500 
L 2222 3500 
L 2222 3053 
L 1275 3053 
L 1275 0 
L 697 0 
L 697 3053 
L 147 3053 
L 147 3500 
L 697 3500 
L 697 3744 
Q 697 4328 969 4595 
Q 1241 4863 1831 4863 
L 2375 4863 
z
" id="DejaVuSans-66" transform="scale(0.015625)"/>
       <path d="M 603 3500 
L 1178 3500 
L 1178 -63 
Q 1178 -731 923 -1031 
Q 669 -1331 103 -1331 
L -116 -1331 
L -116 -844 
L 38 -844 
Q 366 -844 484 -692 
Q 603 -541 603 -63 
L 603 3500 
z
M 603 4863 
L 1178 4863 
L 1178 4134 
L 603 4134 
L 603 4863 
z
" id="DejaVuSans-6a" transform="scale(0.015625)"/>
      </defs>
      <use xlink:href="#DejaVuSans-41"/>
      <use x="68.408203" xlink:href="#DejaVuSans-73"/>
      <use x="120.507812" xlink:href="#DejaVuSans-73"/>
      <use x="172.607422" xlink:href="#DejaVuSans-75"/>
      <use x="235.986328" xlink:href="#DejaVuSans-6d"/>
      <use x="333.398438" xlink:href="#DejaVuSans-65"/>
      <use x="394.921875" xlink:href="#DejaVuSans-64"/>
      <use x="458.398438" xlink:href="#DejaVuSans-20"/>
      <use x="490.185547" xlink:href="#DejaVuSans-66"/>
      <use x="525.390625" xlink:href="#DejaVuSans-6f"/>
      <use x="586.572266" xlink:href="#DejaVuSans-72"/>
      <use x="627.685547" xlink:href="#DejaVuSans-20"/>
      <use x="659.472656" xlink:href="#DejaVuSans-70"/>
      <use x="722.949219" xlink:href="#DejaVuSans-72"/>
      <use x="761.8125" xlink:href="#DejaVuSans-6f"/>
      <use x="822.994141" xlink:href="#DejaVuSans-6a"/>
      <use x="850.777344" xlink:href="#DejaVuSans-65"/>
      <use x="912.300781" xlink:href="#DejaVuSans-63"/>
      <use x="967.28125" xlink:href="#DejaVuSans-74"/>
      <use x="1006.490234" xlink:href="#DejaVuSans-69"/>
      <use x="1034.273438" xlink:href="#DejaVuSans-6f"/>
      <use x="1095.455078" xlink:href="#DejaVuSans-6e"/>
     </g>
    </g>
   </g>
  </g>
  <g id="axes_2">
   <g id="patch_8">
    <path d="M 407.225 319.04 
L 709.2 319.04 
L 709.2 25.44 
L 407.225 25.44 
z
" style="fill:#ffffff;"/>
   </g>
   <g id="matplotlib.axis_3">
    <g id="xtick_17">
     <g id="line2d_57">
      <path clip-path="url(#pb40c24dd7b)" d="M 407.225 319.04 
L 407.225 25.44 
" style="fill:none;stroke:#000000;stroke-dasharray:0.8,1.32;stroke-dashoffset:0;stroke-opacity:0.5;stroke-width:0.8;"/>
     </g>
     <g id="line2d_58">
      <g>
       <use style="stroke:#000000;stroke-width:0.8;" x="407.225" xlink:href="#madcde33652" y="319.04"/>
      </g>
     </g>
     <g id="text_31">
      <!-- May -->
      <g transform="translate(396.8875 333.638438)scale(0.1 -0.1)">
       <use xlink:href="#DejaVuSans-4d"/>
       <use x="86.279297" xlink:href="#DejaVuSans-61"/>
       <use x="147.558594" xlink:href="#DejaVuSans-79"/>
      </g>
     </g>
    </g>
    <g id="xtick_18">
     <g id="line2d_59">
      <path clip-path="url(#pb40c24dd7b)" d="M 424.551434 319.04 
L 424.551434 25.44 
" style="fill:none;stroke:#000000;stroke-dasharray:0.8,1.32;stroke-dashoffset:0;stroke-opacity:0.5;stroke-width:0.8;"/>
     </g>
     <g id="line2d_60">
      <g>
       <use style="stroke:#000000;stroke-width:0.8;" x="424.551434" xlink:href="#madcde33652" y="319.04"/>
      </g>
     </g>
     <g id="text_32">
      <!-- 15 -->
      <g transform="translate(418.188934 333.638438)scale(0.1 -0.1)">
       <use xlink:href="#DejaVuSans-31"/>
       <use x="63.623047" xlink:href="#DejaVuSans-35"/>
      </g>
     </g>
    </g>
    <g id="xtick_19">
     <g id="line2d_61">
      <path clip-path="url(#pb40c24dd7b)" d="M 445.590676 319.04 
L 445.590676 25.44 
" style="fill:none;stroke:#000000;stroke-dasharray:0.8,1.32;stroke-dashoffset:0;stroke-opacity:0.5;stroke-width:0.8;"/>
     </g>
     <g id="line2d_62">
      <g>
       <use style="stroke:#000000;stroke-width:0.8;" x="445.590676" xlink:href="#madcde33652" y="319.04"/>
      </g>
     </g>
     <g id="text_33">
      <!-- Jun -->
      <g transform="translate(437.778176 333.638438)scale(0.1 -0.1)">
       <use xlink:href="#DejaVuSans-4a"/>
       <use x="29.492188" xlink:href="#DejaVuSans-75"/>
       <use x="92.871094" xlink:href="#DejaVuSans-6e"/>
      </g>
     </g>
    </g>
    <g id="xtick_20">
     <g id="line2d_63">
      <path clip-path="url(#pb40c24dd7b)" d="M 462.917111 319.04 
L 462.917111 25.44 
" style="fill:none;stroke:#000000;stroke-dasharray:0.8,1.32;stroke-dashoffset:0;stroke-opacity:0.5;stroke-width:0.8;"/>
     </g>
     <g id="line2d_64">
      <g>
       <use style="stroke:#000000;stroke-width:0.8;" x="462.917111" xlink:href="#madcde33652" y="319.04"/>
      </g>
     </g>
     <g id="text_34">
      <!-- 15 -->
      <g transform="translate(456.554611 333.638438)scale(0.1 -0.1)">
       <use xlink:href="#DejaVuSans-31"/>
       <use x="63.623047" xlink:href="#DejaVuSans-35"/>
      </g>
     </g>
    </g>
    <g id="xtick_21">
     <g id="line2d_65">
      <path clip-path="url(#pb40c24dd7b)" d="M 482.71875 319.04 
L 482.71875 25.44 
" style="fill:none;stroke:#000000;stroke-dasharray:0.8,1.32;stroke-dashoffset:0;stroke-opacity:0.5;stroke-width:0.8;"/>
     </g>
     <g id="line2d_66">
      <g>
       <use style="stroke:#000000;stroke-width:0.8;" x="482.71875" xlink:href="#madcde33652" y="319.04"/>
      </g>
     </g>
     <g id="text_35">
      <!-- Jul -->
      <g transform="translate(476.685938 333.638438)scale(0.1 -0.1)">
       <use xlink:href="#DejaVuSans-4a"/>
       <use x="29.492188" xlink:href="#DejaVuSans-75"/>
       <use x="92.871094" xlink:href="#DejaVuSans-6c"/>
      </g>
     </g>
    </g>
    <g id="xtick_22">
     <g id="line2d_67">
      <path clip-path="url(#pb40c24dd7b)" d="M 500.045184 319.04 
L 500.045184 25.44 
" style="fill:none;stroke:#000000;stroke-dasharray:0.8,1.32;stroke-dashoffset:0;stroke-opacity:0.5;stroke-width:0.8;"/>
     </g>
     <g id="line2d_68">
      <g>
       <use style="stroke:#000000;stroke-width:0.8;" x="500.045184" xlink:href="#madcde33652" y="319.04"/>
      </g>
     </g>
     <g id="text_36">
      <!-- 15 -->
      <g transform="translate(493.682684 333.638438)scale(0.1 -0.1)">
       <use xlink:href="#DejaVuSans-31"/>
       <use x="63.623047" xlink:href="#DejaVuSans-35"/>
      </g>
     </g>
    </g>
    <g id="xtick_23">
     <g id="line2d_69">
      <path clip-path="url(#pb40c24dd7b)" d="M 521.084426 319.04 
L 521.084426 25.44 
" style="fill:none;stroke:#000000;stroke-dasharray:0.8,1.32;stroke-dashoffset:0;stroke-opacity:0.5;stroke-width:0.8;"/>
     </g>
     <g id="line2d_70">
      <g>
       <use style="stroke:#000000;stroke-width:0.8;" x="521.084426" xlink:href="#madcde33652" y="319.04"/>
      </g>
     </g>
     <g id="text_37">
      <!-- Aug -->
      <g transform="translate(511.321145 333.638438)scale(0.1 -0.1)">
       <use xlink:href="#DejaVuSans-41"/>
       <use x="68.408203" xlink:href="#DejaVuSans-75"/>
       <use x="131.787109" xlink:href="#DejaVuSans-67"/>
      </g>
     </g>
    </g>
    <g id="xtick_24">
     <g id="line2d_71">
      <path clip-path="url(#pb40c24dd7b)" d="M 538.410861 319.04 
L 538.410861 25.44 
" style="fill:none;stroke:#000000;stroke-dasharray:0.8,1.32;stroke-dashoffset:0;stroke-opacity:0.5;stroke-width:0.8;"/>
     </g>
     <g id="line2d_72">
      <g>
       <use style="stroke:#000000;stroke-width:0.8;" x="538.410861" xlink:href="#madcde33652" y="319.04"/>
      </g>
     </g>
     <g id="text_38">
      <!-- 15 -->
      <g transform="translate(532.048361 333.638438)scale(0.1 -0.1)">
       <use xlink:href="#DejaVuSans-31"/>
       <use x="63.623047" xlink:href="#DejaVuSans-35"/>
      </g>
     </g>
    </g>
    <g id="xtick_25">
     <g id="line2d_73">
      <path clip-path="url(#pb40c24dd7b)" d="M 559.450102 319.04 
L 559.450102 25.44 
" style="fill:none;stroke:#000000;stroke-dasharray:0.8,1.32;stroke-dashoffset:0;stroke-opacity:0.5;stroke-width:0.8;"/>
     </g>
     <g id="line2d_74">
      <g>
       <use style="stroke:#000000;stroke-width:0.8;" x="559.450102" xlink:href="#madcde33652" y="319.04"/>
      </g>
     </g>
     <g id="text_39">
      <!-- Sep -->
      <g transform="translate(550.025102 333.638438)scale(0.1 -0.1)">
       <use xlink:href="#DejaVuSans-53"/>
       <use x="63.476562" xlink:href="#DejaVuSans-65"/>
       <use x="125" xlink:href="#DejaVuSans-70"/>
      </g>
     </g>
    </g>
    <g id="xtick_26">
     <g id="line2d_75">
      <path clip-path="url(#pb40c24dd7b)" d="M 576.776537 319.04 
L 576.776537 25.44 
" style="fill:none;stroke:#000000;stroke-dasharray:0.8,1.32;stroke-dashoffset:0;stroke-opacity:0.5;stroke-width:0.8;"/>
     </g>
     <g id="line2d_76">
      <g>
       <use style="stroke:#000000;stroke-width:0.8;" x="576.776537" xlink:href="#madcde33652" y="319.04"/>
      </g>
     </g>
     <g id="text_40">
      <!-- 15 -->
      <g transform="translate(570.414037 333.638438)scale(0.1 -0.1)">
       <use xlink:href="#DejaVuSans-31"/>
       <use x="63.623047" xlink:href="#DejaVuSans-35"/>
      </g>
     </g>
    </g>
    <g id="xtick_27">
     <g id="line2d_77">
      <path clip-path="url(#pb40c24dd7b)" d="M 596.578176 319.04 
L 596.578176 25.44 
" style="fill:none;stroke:#000000;stroke-dasharray:0.8,1.32;stroke-dashoffset:0;stroke-opacity:0.5;stroke-width:0.8;"/>
     </g>
     <g id="line2d_78">
      <g>
       <use style="stroke:#000000;stroke-width:0.8;" x="596.578176" xlink:href="#madcde33652" y="319.04"/>
      </g>
     </g>
     <g id="text_41">
      <!-- Oct -->
      <g transform="translate(587.932864 333.638438)scale(0.1 -0.1)">
       <use xlink:href="#DejaVuSans-4f"/>
       <use x="78.710938" xlink:href="#DejaVuSans-63"/>
       <use x="133.691406" xlink:href="#DejaVuSans-74"/>
      </g>
     </g>
    </g>
    <g id="xtick_28">
     <g id="line2d_79">
      <path clip-path="url(#pb40c24dd7b)" d="M 613.904611 319.04 
L 613.904611 25.44 
" style="fill:none;stroke:#000000;stroke-dasharray:0.8,1.32;stroke-dashoffset:0;stroke-opacity:0.5;stroke-width:0.8;"/>
     </g>
     <g id="line2d_80">
      <g>
       <use style="stroke:#000000;stroke-width:0.8;" x="613.904611" xlink:href="#madcde33652" y="319.04"/>
      </g>
     </g>
     <g id="text_42">
      <!-- 15 -->
      <g transform="translate(607.542111 333.638438)scale(0.1 -0.1)">
       <use xlink:href="#DejaVuSans-31"/>
       <use x="63.623047" xlink:href="#DejaVuSans-35"/>
      </g>
     </g>
    </g>
    <g id="xtick_29">
     <g id="line2d_81">
      <path clip-path="url(#pb40c24dd7b)" d="M 634.943852 319.04 
L 634.943852 25.44 
" style="fill:none;stroke:#000000;stroke-dasharray:0.8,1.32;stroke-dashoffset:0;stroke-opacity:0.5;stroke-width:0.8;"/>
     </g>
     <g id="line2d_82">
      <g>
       <use style="stroke:#000000;stroke-width:0.8;" x="634.943852" xlink:href="#madcde33652" y="319.04"/>
      </g>
     </g>
     <g id="text_43">
      <!-- Nov -->
      <g transform="translate(625.184477 333.638438)scale(0.1 -0.1)">
       <use xlink:href="#DejaVuSans-4e"/>
       <use x="74.804688" xlink:href="#DejaVuSans-6f"/>
       <use x="135.986328" xlink:href="#DejaVuSans-76"/>
      </g>
     </g>
    </g>
    <g id="xtick_30">
     <g id="line2d_83">
      <path clip-path="url(#pb40c24dd7b)" d="M 652.270287 319.04 
L 652.270287 25.44 
" style="fill:none;stroke:#000000;stroke-dasharray:0.8,1.32;stroke-dashoffset:0;stroke-opacity:0.5;stroke-width:0.8;"/>
     </g>
     <g id="line2d_84">
      <g>
       <use style="stroke:#000000;stroke-width:0.8;" x="652.270287" xlink:href="#madcde33652" y="319.04"/>
      </g>
     </g>
     <g id="text_44">
      <!-- 15 -->
      <g transform="translate(645.907787 333.638438)scale(0.1 -0.1)">
       <use xlink:href="#DejaVuSans-31"/>
       <use x="63.623047" xlink:href="#DejaVuSans-35"/>
      </g>
     </g>
    </g>
    <g id="xtick_31">
     <g id="line2d_85">
      <path clip-path="url(#pb40c24dd7b)" d="M 672.071926 319.04 
L 672.071926 25.44 
" style="fill:none;stroke:#000000;stroke-dasharray:0.8,1.32;stroke-dashoffset:0;stroke-opacity:0.5;stroke-width:0.8;"/>
     </g>
     <g id="line2d_86">
      <g>
       <use style="stroke:#000000;stroke-width:0.8;" x="672.071926" xlink:href="#madcde33652" y="319.04"/>
      </g>
     </g>
     <g id="text_45">
      <!-- Dec -->
      <g transform="translate(662.396145 333.638438)scale(0.1 -0.1)">
       <use xlink:href="#DejaVuSans-44"/>
       <use x="77.001953" xlink:href="#DejaVuSans-65"/>
       <use x="138.525391" xlink:href="#DejaVuSans-63"/>
      </g>
     </g>
    </g>
    <g id="xtick_32">
     <g id="line2d_87">
      <path clip-path="url(#pb40c24dd7b)" d="M 689.398361 319.04 
L 689.398361 25.44 
" style="fill:none;stroke:#000000;stroke-dasharray:0.8,1.32;stroke-dashoffset:0;stroke-opacity:0.5;stroke-width:0.8;"/>
     </g>
     <g id="line2d_88">
      <g>
       <use style="stroke:#000000;stroke-width:0.8;" x="689.398361" xlink:href="#madcde33652" y="319.04"/>
      </g>
     </g>
     <g id="text_46">
      <!-- 15 -->
      <g transform="translate(683.035861 333.638438)scale(0.1 -0.1)">
       <use xlink:href="#DejaVuSans-31"/>
       <use x="63.623047" xlink:href="#DejaVuSans-35"/>
      </g>
     </g>
    </g>
    <g id="text_47">
     <!-- 2021-Dec -->
     <g transform="translate(660.790625 346.316563)scale(0.1 -0.1)">
      <use xlink:href="#DejaVuSans-32"/>
      <use x="63.623047" xlink:href="#DejaVuSans-30"/>
      <use x="127.246094" xlink:href="#DejaVuSans-32"/>
      <use x="190.869141" xlink:href="#DejaVuSans-31"/>
      <use x="254.492188" xlink:href="#DejaVuSans-2d"/>
      <use x="290.576172" xlink:href="#DejaVuSans-44"/>
      <use x="367.578125" xlink:href="#DejaVuSans-65"/>
      <use x="429.101562" xlink:href="#DejaVuSans-63"/>
     </g>
    </g>
   </g>
   <g id="matplotlib.axis_4">
    <g id="ytick_10">
     <g id="line2d_89">
      <path clip-path="url(#pb40c24dd7b)" d="M 407.225 319.04 
L 709.2 319.04 
" style="fill:none;stroke:#000000;stroke-dasharray:0.8,1.32;stroke-dashoffset:0;stroke-opacity:0.5;stroke-width:0.8;"/>
     </g>
     <g id="line2d_90">
      <g>
       <use style="stroke:#000000;stroke-width:0.8;" x="407.225" xlink:href="#m62174d63b5" y="319.04"/>
      </g>
     </g>
     <g id="text_48">
      <!-- 0 -->
      <g transform="translate(393.8625 322.839219)scale(0.1 -0.1)">
       <use xlink:href="#DejaVuSans-30"/>
      </g>
     </g>
    </g>
    <g id="ytick_11">
     <g id="line2d_91">
      <path clip-path="url(#pb40c24dd7b)" d="M 407.225 282.34 
L 709.2 282.34 
" style="fill:none;stroke:#000000;stroke-dasharray:0.8,1.32;stroke-dashoffset:0;stroke-opacity:0.5;stroke-width:0.8;"/>
     </g>
     <g id="line2d_92">
      <g>
       <use style="stroke:#000000;stroke-width:0.8;" x="407.225" xlink:href="#m62174d63b5" y="282.34"/>
      </g>
     </g>
     <g id="text_49">
      <!-- 25 -->
      <g transform="translate(387.5 286.139219)scale(0.1 -0.1)">
       <use xlink:href="#DejaVuSans-32"/>
       <use x="63.623047" xlink:href="#DejaVuSans-35"/>
      </g>
     </g>
    </g>
    <g id="ytick_12">
     <g id="line2d_93">
      <path clip-path="url(#pb40c24dd7b)" d="M 407.225 245.64 
L 709.2 245.64 
" style="fill:none;stroke:#000000;stroke-dasharray:0.8,1.32;stroke-dashoffset:0;stroke-opacity:0.5;stroke-width:0.8;"/>
     </g>
     <g id="line2d_94">
      <g>
       <use style="stroke:#000000;stroke-width:0.8;" x="407.225" xlink:href="#m62174d63b5" y="245.64"/>
      </g>
     </g>
     <g id="text_50">
      <!-- 50 -->
      <g transform="translate(387.5 249.439219)scale(0.1 -0.1)">
       <use xlink:href="#DejaVuSans-35"/>
       <use x="63.623047" xlink:href="#DejaVuSans-30"/>
      </g>
     </g>
    </g>
    <g id="ytick_13">
     <g id="line2d_95">
      <path clip-path="url(#pb40c24dd7b)" d="M 407.225 208.94 
L 709.2 208.94 
" style="fill:none;stroke:#000000;stroke-dasharray:0.8,1.32;stroke-dashoffset:0;stroke-opacity:0.5;stroke-width:0.8;"/>
     </g>
     <g id="line2d_96">
      <g>
       <use style="stroke:#000000;stroke-width:0.8;" x="407.225" xlink:href="#m62174d63b5" y="208.94"/>
      </g>
     </g>
     <g id="text_51">
      <!-- 75 -->
      <g transform="translate(387.5 212.739219)scale(0.1 -0.1)">
       <use xlink:href="#DejaVuSans-37"/>
       <use x="63.623047" xlink:href="#DejaVuSans-35"/>
      </g>
     </g>
    </g>
    <g id="ytick_14">
     <g id="line2d_97">
      <path clip-path="url(#pb40c24dd7b)" d="M 407.225 172.24 
L 709.2 172.24 
" style="fill:none;stroke:#000000;stroke-dasharray:0.8,1.32;stroke-dashoffset:0;stroke-opacity:0.5;stroke-width:0.8;"/>
     </g>
     <g id="line2d_98">
      <g>
       <use style="stroke:#000000;stroke-width:0.8;" x="407.225" xlink:href="#m62174d63b5" y="172.24"/>
      </g>
     </g>
     <g id="text_52">
      <!-- 100 -->
      <g transform="translate(381.1375 176.039219)scale(0.1 -0.1)">
       <use xlink:href="#DejaVuSans-31"/>
       <use x="63.623047" xlink:href="#DejaVuSans-30"/>
       <use x="127.246094" xlink:href="#DejaVuSans-30"/>
      </g>
     </g>
    </g>
    <g id="ytick_15">
     <g id="line2d_99">
      <path clip-path="url(#pb40c24dd7b)" d="M 407.225 135.54 
L 709.2 135.54 
" style="fill:none;stroke:#000000;stroke-dasharray:0.8,1.32;stroke-dashoffset:0;stroke-opacity:0.5;stroke-width:0.8;"/>
     </g>
     <g id="line2d_100">
      <g>
       <use style="stroke:#000000;stroke-width:0.8;" x="407.225" xlink:href="#m62174d63b5" y="135.54"/>
      </g>
     </g>
     <g id="text_53">
      <!-- 125 -->
      <g transform="translate(381.1375 139.339219)scale(0.1 -0.1)">
       <use xlink:href="#DejaVuSans-31"/>
       <use x="63.623047" xlink:href="#DejaVuSans-32"/>
       <use x="127.246094" xlink:href="#DejaVuSans-35"/>
      </g>
     </g>
    </g>
    <g id="ytick_16">
     <g id="line2d_101">
      <path clip-path="url(#pb40c24dd7b)" d="M 407.225 98.84 
L 709.2 98.84 
" style="fill:none;stroke:#000000;stroke-dasharray:0.8,1.32;stroke-dashoffset:0;stroke-opacity:0.5;stroke-width:0.8;"/>
     </g>
     <g id="line2d_102">
      <g>
       <use style="stroke:#000000;stroke-width:0.8;" x="407.225" xlink:href="#m62174d63b5" y="98.84"/>
      </g>
     </g>
     <g id="text_54">
      <!-- 150 -->
      <g transform="translate(381.1375 102.639219)scale(0.1 -0.1)">
       <use xlink:href="#DejaVuSans-31"/>
       <use x="63.623047" xlink:href="#DejaVuSans-35"/>
       <use x="127.246094" xlink:href="#DejaVuSans-30"/>
      </g>
     </g>
    </g>
    <g id="ytick_17">
     <g id="line2d_103">
      <path clip-path="url(#pb40c24dd7b)" d="M 407.225 62.14 
L 709.2 62.14 
" style="fill:none;stroke:#000000;stroke-dasharray:0.8,1.32;stroke-dashoffset:0;stroke-opacity:0.5;stroke-width:0.8;"/>
     </g>
     <g id="line2d_104">
      <g>
       <use style="stroke:#000000;stroke-width:0.8;" x="407.225" xlink:href="#m62174d63b5" y="62.14"/>
      </g>
     </g>
     <g id="text_55">
      <!-- 175 -->
      <g transform="translate(381.1375 65.939219)scale(0.1 -0.1)">
       <use xlink:href="#DejaVuSans-31"/>
       <use x="63.623047" xlink:href="#DejaVuSans-37"/>
       <use x="127.246094" xlink:href="#DejaVuSans-35"/>
      </g>
     </g>
    </g>
    <g id="ytick_18">
     <g id="line2d_105">
      <path clip-path="url(#pb40c24dd7b)" d="M 407.225 25.44 
L 709.2 25.44 
" style="fill:none;stroke:#000000;stroke-dasharray:0.8,1.32;stroke-dashoffset:0;stroke-opacity:0.5;stroke-width:0.8;"/>
     </g>
     <g id="line2d_106">
      <g>
       <use style="stroke:#000000;stroke-width:0.8;" x="407.225" xlink:href="#m62174d63b5" y="25.44"/>
      </g>
     </g>
     <g id="text_56">
      <!-- 200 -->
      <g transform="translate(381.1375 29.239219)scale(0.1 -0.1)">
       <use xlink:href="#DejaVuSans-32"/>
       <use x="63.623047" xlink:href="#DejaVuSans-30"/>
       <use x="127.246094" xlink:href="#DejaVuSans-30"/>
      </g>
     </g>
    </g>
    <g id="text_57">
     <!-- cumulative doses per hundred population -->
     <g transform="translate(375.057813 276.698594)rotate(-90)scale(0.1 -0.1)">
      <use xlink:href="#DejaVuSans-63"/>
      <use x="54.980469" xlink:href="#DejaVuSans-75"/>
      <use x="118.359375" xlink:href="#DejaVuSans-6d"/>
      <use x="215.771484" xlink:href="#DejaVuSans-75"/>
      <use x="279.150391" xlink:href="#DejaVuSans-6c"/>
      <use x="306.933594" xlink:href="#DejaVuSans-61"/>
      <use x="368.212891" xlink:href="#DejaVuSans-74"/>
      <use x="407.421875" xlink:href="#DejaVuSans-69"/>
      <use x="435.205078" xlink:href="#DejaVuSans-76"/>
      <use x="494.384766" xlink:href="#DejaVuSans-65"/>
      <use x="555.908203" xlink:href="#DejaVuSans-20"/>
      <use x="587.695312" xlink:href="#DejaVuSans-64"/>
      <use x="651.171875" xlink:href="#DejaVuSans-6f"/>
      <use x="712.353516" xlink:href="#DejaVuSans-73"/>
      <use x="764.453125" xlink:href="#DejaVuSans-65"/>
      <use x="825.976562" xlink:href="#DejaVuSans-73"/>
      <use x="878.076172" xlink:href="#DejaVuSans-20"/>
      <use x="909.863281" xlink:href="#DejaVuSans-70"/>
      <use x="973.339844" xlink:href="#DejaVuSans-65"/>
      <use x="1034.863281" xlink:href="#DejaVuSans-72"/>
      <use x="1075.976562" xlink:href="#DejaVuSans-20"/>
      <use x="1107.763672" xlink:href="#DejaVuSans-68"/>
      <use x="1171.142578" xlink:href="#DejaVuSans-75"/>
      <use x="1234.521484" xlink:href="#DejaVuSans-6e"/>
      <use x="1297.900391" xlink:href="#DejaVuSans-64"/>
      <use x="1361.376953" xlink:href="#DejaVuSans-72"/>
      <use x="1400.240234" xlink:href="#DejaVuSans-65"/>
      <use x="1461.763672" xlink:href="#DejaVuSans-64"/>
      <use x="1525.240234" xlink:href="#DejaVuSans-20"/>
      <use x="1557.027344" xlink:href="#DejaVuSans-70"/>
      <use x="1620.503906" xlink:href="#DejaVuSans-6f"/>
      <use x="1681.685547" xlink:href="#DejaVuSans-70"/>
      <use x="1745.162109" xlink:href="#DejaVuSans-75"/>
      <use x="1808.541016" xlink:href="#DejaVuSans-6c"/>
      <use x="1836.324219" xlink:href="#DejaVuSans-61"/>
      <use x="1897.603516" xlink:href="#DejaVuSans-74"/>
      <use x="1936.8125" xlink:href="#DejaVuSans-69"/>
      <use x="1964.595703" xlink:href="#DejaVuSans-6f"/>
      <use x="2025.777344" xlink:href="#DejaVuSans-6e"/>
     </g>
    </g>
   </g>
   <g id="line2d_107">
    <path clip-path="url(#pb40c24dd7b)" d="M 314.404816 319.04 
L 332.968852 318.931758 
L 332.968852 318.896051 
L 336.68166 318.804822 
L 336.68166 318.762906 
L 341.63207 318.705917 
L 341.63207 318.644875 
L 344.107275 318.558799 
L 344.107275 318.480507 
L 346.58248 318.386712 
L 346.58248 318.367219 
L 350.295287 318.279246 
L 350.295287 318.200199 
L 352.770492 318.113067 
L 352.770492 318.01082 
L 355.245697 317.912669 
L 355.245697 317.882525 
L 357.720902 317.853589 
L 357.720902 317.756861 
L 360.196107 317.662311 
L 360.196107 317.539451 
L 361.433709 317.539451 
L 361.433709 317.409345 
L 363.908914 317.299982 
L 363.908914 317.224256 
L 366.384119 317.179579 
L 366.384119 317.039792 
L 367.621721 317.039792 
L 367.621721 316.903951 
L 368.859324 316.903951 
L 368.859324 316.7216 
L 370.096926 316.7216 
L 370.096926 316.558699 
L 376.284939 316.502141 
L 376.284939 316.371497 
L 377.522541 316.371497 
L 377.522541 316.246911 
L 378.760143 316.246911 
L 378.760143 313.411215 
L 379.997746 313.411215 
L 379.997746 313.125388 
L 381.235348 313.125388 
L 381.235348 312.965656 
L 383.710553 312.889585 
L 383.710553 312.607251 
L 384.948156 312.607251 
L 384.948156 312.297144 
L 386.185758 312.297144 
L 386.185758 311.982748 
L 387.423361 311.982748 
L 387.423361 311.676954 
L 388.660963 311.676954 
L 388.660963 311.396453 
L 389.898566 311.396453 
L 389.898566 311.28254 
L 391.136168 311.28254 
L 391.136168 310.877669 
L 392.37377 310.877669 
L 392.37377 310.517474 
L 393.611373 310.517474 
L 393.611373 310.192447 
L 394.848975 310.192447 
L 394.848975 309.827249 
L 396.086578 309.827249 
L 396.086578 309.413581 
L 397.32418 309.413581 
L 397.32418 309.124756 
L 398.561783 309.124756 
L 398.561783 308.987276 
L 401.036988 308.963364 
L 401.036988 308.707767 
L 402.27459 308.707767 
L 402.27459 308.337007 
L 403.512193 308.337007 
L 403.512193 307.895221 
L 404.749795 307.895221 
L 404.749795 307.53287 
L 405.987398 307.53287 
L 405.987398 307.263279 
L 408.462602 307.156245 
L 408.462602 307.107062 
L 409.700205 307.107062 
L 409.700205 306.69404 
L 410.937807 306.69404 
L 410.937807 306.179417 
L 412.17541 306.179417 
L 412.17541 305.693472 
L 413.413012 305.693472 
L 413.413012 305.163821 
L 414.650615 305.163821 
L 414.650615 304.764318 
L 415.888217 304.764318 
L 415.888217 304.59277 
L 418.363422 304.523491 
L 418.363422 304.048177 
L 419.601025 304.048177 
L 419.601025 303.621915 
L 420.838627 303.621915 
L 420.838627 303.117513 
L 422.07623 303.117513 
L 422.07623 302.645411 
L 423.313832 302.645411 
L 423.313832 302.215161 
L 424.551434 302.215161 
L 424.551434 302.049845 
L 427.026639 301.955618 
L 427.026639 301.433449 
L 428.264242 301.433449 
L 428.264242 300.890903 
L 429.501844 300.890903 
L 429.501844 300.352692 
L 430.739447 300.352692 
L 430.739447 299.780154 
L 431.977049 299.780154 
L 431.977049 299.311372 
L 433.214652 299.311372 
L 433.214652 299.11354 
L 435.689857 299.006506 
L 435.689857 298.76018 
L 436.927459 298.76018 
L 436.927459 298.102579 
L 438.165061 298.102579 
L 438.165061 297.446531 
L 439.402664 297.446531 
L 439.402664 296.554098 
L 440.640266 296.554098 
L 440.640266 295.617052 
L 441.877869 295.617052 
L 441.877869 295.025216 
L 443.115471 295.025216 
L 443.115471 294.574374 
L 444.353074 294.574374 
L 444.353074 293.703502 
L 445.590676 293.703502 
L 445.590676 292.60004 
L 446.828279 292.60004 
L 446.828279 291.506627 
L 448.065881 291.506627 
L 448.065881 290.46701 
L 449.303484 290.46701 
L 449.303484 289.343582 
L 450.541086 289.343582 
L 450.541086 288.430104 
L 451.778689 288.430104 
L 451.778689 287.511968 
L 453.016291 287.511968 
L 453.016291 286.449668 
L 454.253893 286.449668 
L 454.253893 285.430643 
L 455.491496 285.430643 
L 455.491496 284.323495 
L 456.729098 284.323495 
L 456.729098 283.231655 
L 457.966701 283.231655 
L 457.966701 282.285467 
L 459.204303 282.285467 
L 459.204303 281.784752 
L 460.441906 281.784752 
L 460.441906 281.408817 
L 461.679508 281.408817 
L 461.679508 281.180215 
L 462.917111 281.180215 
L 462.917111 280.078543 
L 464.154713 280.078543 
L 464.154713 279.206076 
L 465.392316 279.206076 
L 465.392316 278.341048 
L 466.629918 278.341048 
L 466.629918 277.550538 
L 467.86752 277.550538 
L 467.86752 277.154184 
L 469.105123 277.154184 
L 469.105123 276.882997 
L 470.342725 276.882997 
L 470.342725 276.096024 
L 471.580328 276.096024 
L 471.580328 275.210663 
L 472.81793 275.210663 
L 472.81793 274.384813 
L 474.055533 274.384813 
L 474.055533 273.614399 
L 475.293135 273.614399 
L 475.293135 272.887024 
L 476.530738 272.887024 
L 476.530738 272.505827 
L 477.76834 272.505827 
L 477.76834 272.188282 
L 479.005943 272.188282 
L 479.005943 271.336795 
L 480.243545 271.336795 
L 480.243545 270.579922 
L 481.481148 270.579922 
L 481.481148 269.747022 
L 482.71875 269.747022 
L 482.71875 268.939241 
L 483.956352 268.939241 
L 483.956352 268.144591 
L 485.193955 268.144591 
L 485.193955 267.726632 
L 486.431557 267.726632 
L 486.431557 267.41521 
L 487.66916 267.41521 
L 487.66916 266.522475 
L 488.906762 266.522475 
L 488.906762 265.56956 
L 490.144365 265.56956 
L 490.144365 265.049827 
L 491.381967 265.049827 
L 491.381967 264.310527 
L 492.61957 264.310527 
L 492.61957 263.622395 
L 493.857172 263.622395 
L 493.857172 263.187099 
L 495.094775 263.187099 
L 495.094775 262.868152 
L 496.332377 262.868152 
L 496.332377 262.004785 
L 497.56998 262.004785 
L 497.56998 261.305849 
L 498.807582 261.305849 
L 498.807582 260.538778 
L 500.045184 260.538778 
L 500.045184 259.728259 
L 501.282787 259.728259 
L 501.282787 258.882421 
L 502.520389 258.882421 
L 502.520389 258.346452 
L 503.757992 258.346452 
L 503.757992 257.985416 
L 504.995594 257.985416 
L 504.995594 257.003715 
L 506.233197 257.003715 
L 506.233197 256.200506 
L 507.470799 256.200506 
L 507.470799 255.198752 
L 508.708402 255.198752 
L 508.708402 254.174488 
L 509.946004 254.174488 
L 509.946004 253.221896 
L 511.183607 253.221896 
L 511.183607 252.608627 
L 512.421209 252.608627 
L 512.421209 252.144438 
L 513.658811 252.144438 
L 513.658811 251.102105 
L 514.896414 251.102105 
L 514.896414 250.172283 
L 516.134016 250.172283 
L 516.134016 249.23211 
L 517.371619 249.23211 
L 517.371619 248.241591 
L 518.609221 248.241591 
L 518.609221 247.265259 
L 519.846824 247.265259 
L 519.846824 246.655311 
L 521.084426 246.655311 
L 521.084426 246.234699 
L 522.322029 246.234699 
L 522.322029 245.259316 
L 523.559631 245.259316 
L 523.559631 244.358732 
L 524.797234 244.358732 
L 524.797234 243.368191 
L 526.034836 243.368191 
L 526.034836 242.317297 
L 527.272439 242.317297 
L 527.272439 241.236713 
L 528.510041 241.236713 
L 528.510041 240.537174 
L 529.747643 240.537174 
L 529.747643 239.99327 
L 530.985246 239.99327 
L 530.985246 238.752673 
L 532.222848 238.752673 
L 532.222848 237.556645 
L 533.460451 237.556645 
L 533.460451 236.228291 
L 534.698053 236.228291 
L 534.698053 234.842581 
L 535.935656 234.842581 
L 535.935656 233.436883 
L 537.173258 233.436883 
L 537.173258 232.512991 
L 538.410861 232.512991 
L 538.410861 231.545772 
L 539.648463 231.545772 
L 539.648463 229.792126 
L 540.886066 229.792126 
L 540.886066 228.391582 
L 542.123668 228.391582 
L 542.123668 226.881307 
L 543.36127 226.881307 
L 543.36127 225.328975 
L 544.598873 225.328975 
L 544.598873 223.775545 
L 545.836475 223.775545 
L 545.836475 222.688838 
L 547.074078 222.688838 
L 547.074078 221.916848 
L 548.31168 221.916848 
L 548.31168 220.423095 
L 549.549283 220.423095 
L 549.549283 218.794936 
L 550.786885 218.794936 
L 550.786885 217.052079 
L 552.024488 217.052079 
L 552.024488 215.931864 
L 553.26209 215.931864 
L 553.26209 214.307242 
L 554.499693 214.307242 
L 554.499693 212.421847 
L 555.737295 212.421847 
L 555.737295 211.531994 
L 556.974898 211.531994 
L 556.974898 210.61595 
L 558.2125 210.61595 
L 558.2125 208.308415 
L 559.450102 208.308415 
L 559.450102 206.513614 
L 560.687705 206.513614 
L 560.687705 204.785852 
L 561.925307 204.785852 
L 561.925307 203.042292 
L 563.16291 203.042292 
L 563.16291 201.909354 
L 564.400512 201.909354 
L 564.400512 201.121477 
L 565.638115 201.121477 
L 565.638115 199.505161 
L 566.875717 199.505161 
L 566.875717 197.680346 
L 568.11332 197.680346 
L 568.11332 195.799368 
L 569.350922 195.799368 
L 569.350922 193.889979 
L 570.588525 193.889979 
L 570.588525 193.889979 
" style="fill:none;stroke:#1f77b4;stroke-linecap:square;stroke-width:1.5;"/>
   </g>
   <g id="line2d_108">
    <path clip-path="url(#pb40c24dd7b)" d="M 570.588525 192.128379 
L 570.588525 190.366779 
L 571.826127 190.366779 
L 571.826127 188.605179 
L 573.06373 188.605179 
L 573.06373 186.843579 
L 574.301332 186.843579 
L 574.301332 185.081979 
L 575.538934 185.081979 
L 575.538934 183.320379 
L 576.776537 183.320379 
L 576.776537 181.558779 
L 578.014139 181.558779 
L 578.014139 179.797179 
L 579.251742 179.797179 
L 579.251742 178.035579 
L 580.489344 178.035579 
L 580.489344 176.273979 
L 581.726947 176.273979 
L 581.726947 174.512379 
L 582.964549 174.512379 
L 582.964549 172.750779 
L 584.202152 172.750779 
L 584.202152 170.989179 
L 585.439754 170.989179 
L 585.439754 169.227579 
L 586.677357 169.227579 
L 586.677357 167.465979 
L 587.914959 167.465979 
L 587.914959 165.704379 
L 589.152561 165.704379 
L 589.152561 163.942779 
L 590.390164 163.942779 
L 590.390164 162.181179 
L 591.627766 162.181179 
L 591.627766 160.419579 
L 592.865369 160.419579 
L 592.865369 158.657979 
L 594.102971 158.657979 
L 594.102971 156.896379 
L 595.340574 156.896379 
L 595.340574 154.841179 
L 596.578176 154.841179 
L 596.578176 152.785979 
L 597.815779 152.785979 
L 597.815779 150.730779 
L 599.053381 150.730779 
L 599.053381 148.675579 
L 600.290984 148.675579 
L 600.290984 146.620379 
L 601.528586 146.620379 
L 601.528586 144.565179 
L 602.766189 144.565179 
L 602.766189 142.509979 
L 604.003791 142.509979 
L 604.003791 140.454779 
L 605.241393 140.454779 
L 605.241393 138.399579 
L 606.478996 138.399579 
L 606.478996 136.344379 
L 607.716598 136.344379 
L 607.716598 134.289179 
L 608.954201 134.289179 
L 608.954201 132.233979 
L 610.191803 132.233979 
L 610.191803 130.178779 
L 611.429406 130.178779 
L 611.429406 128.123579 
L 612.667008 128.123579 
L 612.667008 126.068379 
L 613.904611 126.068379 
L 613.904611 124.013179 
L 615.142213 124.013179 
L 615.142213 121.957979 
L 616.379816 121.957979 
L 616.379816 119.902779 
L 617.617418 119.902779 
L 617.617418 117.847579 
L 618.85502 117.847579 
L 618.85502 115.792379 
L 620.092623 115.792379 
L 620.092623 113.737179 
L 621.330225 113.737179 
L 621.330225 111.681979 
L 622.567828 111.681979 
L 622.567828 109.626779 
L 623.80543 109.626779 
L 623.80543 107.571579 
L 625.043033 107.571579 
L 625.043033 105.516379 
L 626.280635 105.516379 
L 626.280635 103.461179 
L 627.518238 103.461179 
L 627.518238 101.405979 
L 628.75584 101.405979 
L 628.75584 99.350779 
L 629.993443 99.350779 
L 629.993443 97.295579 
L 631.231045 97.295579 
L 631.231045 95.240379 
L 632.468648 95.240379 
L 632.468648 93.185179 
L 633.70625 93.185179 
L 633.70625 91.129979 
L 634.943852 91.129979 
L 634.943852 89.074779 
L 636.181455 89.074779 
L 636.181455 87.019579 
L 637.419057 87.019579 
L 637.419057 84.964379 
L 638.65666 84.964379 
L 638.65666 82.909179 
L 639.894262 82.909179 
L 639.894262 80.853979 
L 641.131865 80.853979 
L 641.131865 78.798779 
L 642.369467 78.798779 
L 642.369467 76.743579 
L 643.60707 76.743579 
L 643.60707 74.688379 
L 644.844672 74.688379 
L 644.844672 72.633179 
L 646.082275 72.633179 
L 646.082275 70.577979 
L 721 70.577979 
L 721 70.577979 
" style="fill:none;stroke:#ff7f0e;stroke-linecap:square;stroke-width:1.5;"/>
   </g>
   <g id="patch_9">
    <path d="M 407.225 319.04 
L 407.225 25.44 
" style="fill:none;stroke:#000000;stroke-linecap:square;stroke-linejoin:miter;stroke-width:0.8;"/>
   </g>
   <g id="patch_10">
    <path d="M 709.2 319.04 
L 709.2 25.44 
" style="fill:none;stroke:#000000;stroke-linecap:square;stroke-linejoin:miter;stroke-width:0.8;"/>
   </g>
   <g id="patch_11">
    <path d="M 407.225 319.04 
L 709.2 319.04 
" style="fill:none;stroke:#000000;stroke-linecap:square;stroke-linejoin:miter;stroke-width:0.8;"/>
   </g>
   <g id="patch_12">
    <path d="M 407.225 25.44 
L 709.2 25.44 
" style="fill:none;stroke:#000000;stroke-linecap:square;stroke-linejoin:miter;stroke-width:0.8;"/>
   </g>
   <g id="text_58">
    <!-- VIC cumulative vaccinations per capita -->
    <g transform="translate(441.127188 19.44)scale(0.12 -0.12)">
     <use xlink:href="#DejaVuSans-56"/>
     <use x="68.408203" xlink:href="#DejaVuSans-49"/>
     <use x="97.900391" xlink:href="#DejaVuSans-43"/>
     <use x="167.724609" xlink:href="#DejaVuSans-20"/>
     <use x="199.511719" xlink:href="#DejaVuSans-63"/>
     <use x="254.492188" xlink:href="#DejaVuSans-75"/>
     <use x="317.871094" xlink:href="#DejaVuSans-6d"/>
     <use x="415.283203" xlink:href="#DejaVuSans-75"/>
     <use x="478.662109" xlink:href="#DejaVuSans-6c"/>
     <use x="506.445312" xlink:href="#DejaVuSans-61"/>
     <use x="567.724609" xlink:href="#DejaVuSans-74"/>
     <use x="606.933594" xlink:href="#DejaVuSans-69"/>
     <use x="634.716797" xlink:href="#DejaVuSans-76"/>
     <use x="693.896484" xlink:href="#DejaVuSans-65"/>
     <use x="755.419922" xlink:href="#DejaVuSans-20"/>
     <use x="787.207031" xlink:href="#DejaVuSans-76"/>
     <use x="846.386719" xlink:href="#DejaVuSans-61"/>
     <use x="907.666016" xlink:href="#DejaVuSans-63"/>
     <use x="962.646484" xlink:href="#DejaVuSans-63"/>
     <use x="1017.626953" xlink:href="#DejaVuSans-69"/>
     <use x="1045.410156" xlink:href="#DejaVuSans-6e"/>
     <use x="1108.789062" xlink:href="#DejaVuSans-61"/>
     <use x="1170.068359" xlink:href="#DejaVuSans-74"/>
     <use x="1209.277344" xlink:href="#DejaVuSans-69"/>
     <use x="1237.060547" xlink:href="#DejaVuSans-6f"/>
     <use x="1298.242188" xlink:href="#DejaVuSans-6e"/>
     <use x="1361.621094" xlink:href="#DejaVuSans-73"/>
     <use x="1413.720703" xlink:href="#DejaVuSans-20"/>
     <use x="1445.507812" xlink:href="#DejaVuSans-70"/>
     <use x="1508.984375" xlink:href="#DejaVuSans-65"/>
     <use x="1570.507812" xlink:href="#DejaVuSans-72"/>
     <use x="1611.621094" xlink:href="#DejaVuSans-20"/>
     <use x="1643.408203" xlink:href="#DejaVuSans-63"/>
     <use x="1698.388672" xlink:href="#DejaVuSans-61"/>
     <use x="1759.667969" xlink:href="#DejaVuSans-70"/>
     <use x="1823.144531" xlink:href="#DejaVuSans-69"/>
     <use x="1850.927734" xlink:href="#DejaVuSans-74"/>
     <use x="1890.136719" xlink:href="#DejaVuSans-61"/>
    </g>
   </g>
   <g id="legend_2">
    <g id="patch_13">
     <path d="M 554.317187 62.79625 
L 702.2 62.79625 
Q 704.2 62.79625 704.2 60.79625 
L 704.2 32.44 
Q 704.2 30.44 702.2 30.44 
L 554.317187 30.44 
Q 552.317187 30.44 552.317187 32.44 
L 552.317187 60.79625 
Q 552.317187 62.79625 554.317187 62.79625 
z
" style="fill:#ffffff;opacity:0.8;stroke:#cccccc;stroke-linejoin:miter;"/>
    </g>
    <g id="line2d_109">
     <path d="M 556.317187 38.538437 
L 576.317187 38.538437 
" style="fill:none;stroke:#1f77b4;stroke-linecap:square;stroke-width:1.5;"/>
    </g>
    <g id="line2d_110"/>
    <g id="text_59">
     <!-- Actual -->
     <g transform="translate(584.317187 42.038437)scale(0.1 -0.1)">
      <use xlink:href="#DejaVuSans-41"/>
      <use x="66.658203" xlink:href="#DejaVuSans-63"/>
      <use x="121.638672" xlink:href="#DejaVuSans-74"/>
      <use x="160.847656" xlink:href="#DejaVuSans-75"/>
      <use x="224.226562" xlink:href="#DejaVuSans-61"/>
      <use x="285.505859" xlink:href="#DejaVuSans-6c"/>
     </g>
    </g>
    <g id="line2d_111">
     <path d="M 556.317187 53.216563 
L 576.317187 53.216563 
" style="fill:none;stroke:#ff7f0e;stroke-linecap:square;stroke-width:1.5;"/>
    </g>
    <g id="line2d_112"/>
    <g id="text_60">
     <!-- Assumed for projection -->
     <g transform="translate(584.317187 56.716563)scale(0.1 -0.1)">
      <use xlink:href="#DejaVuSans-41"/>
      <use x="68.408203" xlink:href="#DejaVuSans-73"/>
      <use x="120.507812" xlink:href="#DejaVuSans-73"/>
      <use x="172.607422" xlink:href="#DejaVuSans-75"/>
      <use x="235.986328" xlink:href="#DejaVuSans-6d"/>
      <use x="333.398438" xlink:href="#DejaVuSans-65"/>
      <use x="394.921875" xlink:href="#DejaVuSans-64"/>
      <use x="458.398438" xlink:href="#DejaVuSans-20"/>
      <use x="490.185547" xlink:href="#DejaVuSans-66"/>
      <use x="525.390625" xlink:href="#DejaVuSans-6f"/>
      <use x="586.572266" xlink:href="#DejaVuSans-72"/>
      <use x="627.685547" xlink:href="#DejaVuSans-20"/>
      <use x="659.472656" xlink:href="#DejaVuSans-70"/>
      <use x="722.949219" xlink:href="#DejaVuSans-72"/>
      <use x="761.8125" xlink:href="#DejaVuSans-6f"/>
      <use x="822.994141" xlink:href="#DejaVuSans-6a"/>
      <use x="850.777344" xlink:href="#DejaVuSans-65"/>
      <use x="912.300781" xlink:href="#DejaVuSans-63"/>
      <use x="967.28125" xlink:href="#DejaVuSans-74"/>
      <use x="1006.490234" xlink:href="#DejaVuSans-69"/>
      <use x="1034.273438" xlink:href="#DejaVuSans-6f"/>
      <use x="1095.455078" xlink:href="#DejaVuSans-6e"/>
     </g>
    </g>
   </g>
  </g>
 </g>
 <defs>
  <clipPath id="p011463e1c3">
   <rect height="293.6" width="301.975" x="54.2" y="25.44"/>
  </clipPath>
  <clipPath id="pb40c24dd7b">
   <rect height="293.6" width="301.975" x="407.225" y="25.44"/>
  </clipPath>
 </defs>
</svg>
