<?xml version="1.0" encoding="utf-8" standalone="no"?>
<!DOCTYPE svg PUBLIC "-//W3C//DTD SVG 1.1//EN"
  "http://www.w3.org/Graphics/SVG/1.1/DTD/svg11.dtd">
<svg height="360pt" version="1.1" viewBox="0 0 720 360" width="720pt" xmlns="http://www.w3.org/2000/svg" xmlns:xlink="http://www.w3.org/1999/xlink">
 <metadata>
  <rdf:RDF xmlns:cc="http://creativecommons.org/ns#" xmlns:dc="http://purl.org/dc/elements/1.1/" xmlns:rdf="http://www.w3.org/1999/02/22-rdf-syntax-ns#">
   <cc:Work>
    <dc:type rdf:resource="http://purl.org/dc/dcmitype/StillImage"/>
    <dc:date>2021-11-13T11:26:42.517427</dc:date>
    <dc:format>image/svg+xml</dc:format>
    <dc:creator>
     <cc:Agent>
      <dc:title>Matplotlib v3.4.3, https://matplotlib.org/</dc:title>
     </cc:Agent>
    </dc:creator>
   </cc:Work>
  </rdf:RDF>
 </metadata>
 <defs>
  <style type="text/css">*{stroke-linecap:butt;stroke-linejoin:round;}</style>
 </defs>
 <g id="figure_1">
  <g id="patch_1">
   <path d="M 0 360 
L 720 360 
L 720 0 
L 0 0 
z
" style="fill:#ffffff;"/>
  </g>
  <g id="axes_1">
   <g id="patch_2">
    <path d="M 54.02 319.04 
L 356.175 319.04 
L 356.175 26.88 
L 54.02 26.88 
z
" style="fill:#ffffff;"/>
   </g>
   <g id="matplotlib.axis_1">
    <g id="xtick_1">
     <g id="line2d_1">
      <path clip-path="url(#pb8211ad5a9)" d="M 54.02 319.04 
L 54.02 26.88 
" style="fill:none;stroke:#000000;stroke-dasharray:0.8,1.32;stroke-dashoffset:0;stroke-opacity:0.5;stroke-width:0.8;"/>
     </g>
     <g id="line2d_2">
      <defs>
       <path d="M 0 0 
L 0 3.5 
" id="m30ba38e505" style="stroke:#000000;stroke-width:0.8;"/>
      </defs>
      <g>
       <use style="stroke:#000000;stroke-width:0.8;" x="54.02" xlink:href="#m30ba38e505" y="319.04"/>
      </g>
     </g>
     <g id="text_1">
      <!-- May -->
      <g transform="translate(43.6825 333.638438)scale(0.1 -0.1)">
       <defs>
        <path d="M 628 4666 
L 1569 4666 
L 2759 1491 
L 3956 4666 
L 4897 4666 
L 4897 0 
L 4281 0 
L 4281 4097 
L 3078 897 
L 2444 897 
L 1241 4097 
L 1241 0 
L 628 0 
L 628 4666 
z
" id="DejaVuSans-4d" transform="scale(0.015625)"/>
        <path d="M 2194 1759 
Q 1497 1759 1228 1600 
Q 959 1441 959 1056 
Q 959 750 1161 570 
Q 1363 391 1709 391 
Q 2188 391 2477 730 
Q 2766 1069 2766 1631 
L 2766 1759 
L 2194 1759 
z
M 3341 1997 
L 3341 0 
L 2766 0 
L 2766 531 
Q 2569 213 2275 61 
Q 1981 -91 1556 -91 
Q 1019 -91 701 211 
Q 384 513 384 1019 
Q 384 1609 779 1909 
Q 1175 2209 1959 2209 
L 2766 2209 
L 2766 2266 
Q 2766 2663 2505 2880 
Q 2244 3097 1772 3097 
Q 1472 3097 1187 3025 
Q 903 2953 641 2809 
L 641 3341 
Q 956 3463 1253 3523 
Q 1550 3584 1831 3584 
Q 2591 3584 2966 3190 
Q 3341 2797 3341 1997 
z
" id="DejaVuSans-61" transform="scale(0.015625)"/>
        <path d="M 2059 -325 
Q 1816 -950 1584 -1140 
Q 1353 -1331 966 -1331 
L 506 -1331 
L 506 -850 
L 844 -850 
Q 1081 -850 1212 -737 
Q 1344 -625 1503 -206 
L 1606 56 
L 191 3500 
L 800 3500 
L 1894 763 
L 2988 3500 
L 3597 3500 
L 2059 -325 
z
" id="DejaVuSans-79" transform="scale(0.015625)"/>
       </defs>
       <use xlink:href="#DejaVuSans-4d"/>
       <use x="86.279297" xlink:href="#DejaVuSans-61"/>
       <use x="147.558594" xlink:href="#DejaVuSans-79"/>
      </g>
     </g>
    </g>
    <g id="xtick_2">
     <g id="line2d_3">
      <path clip-path="url(#pb8211ad5a9)" d="M 71.356762 319.04 
L 71.356762 26.88 
" style="fill:none;stroke:#000000;stroke-dasharray:0.8,1.32;stroke-dashoffset:0;stroke-opacity:0.5;stroke-width:0.8;"/>
     </g>
     <g id="line2d_4">
      <g>
       <use style="stroke:#000000;stroke-width:0.8;" x="71.356762" xlink:href="#m30ba38e505" y="319.04"/>
      </g>
     </g>
     <g id="text_2">
      <!-- 15 -->
      <g transform="translate(64.994262 333.638438)scale(0.1 -0.1)">
       <defs>
        <path d="M 794 531 
L 1825 531 
L 1825 4091 
L 703 3866 
L 703 4441 
L 1819 4666 
L 2450 4666 
L 2450 531 
L 3481 531 
L 3481 0 
L 794 0 
L 794 531 
z
" id="DejaVuSans-31" transform="scale(0.015625)"/>
        <path d="M 691 4666 
L 3169 4666 
L 3169 4134 
L 1269 4134 
L 1269 2991 
Q 1406 3038 1543 3061 
Q 1681 3084 1819 3084 
Q 2600 3084 3056 2656 
Q 3513 2228 3513 1497 
Q 3513 744 3044 326 
Q 2575 -91 1722 -91 
Q 1428 -91 1123 -41 
Q 819 9 494 109 
L 494 744 
Q 775 591 1075 516 
Q 1375 441 1709 441 
Q 2250 441 2565 725 
Q 2881 1009 2881 1497 
Q 2881 1984 2565 2268 
Q 2250 2553 1709 2553 
Q 1456 2553 1204 2497 
Q 953 2441 691 2322 
L 691 4666 
z
" id="DejaVuSans-35" transform="scale(0.015625)"/>
       </defs>
       <use xlink:href="#DejaVuSans-31"/>
       <use x="63.623047" xlink:href="#DejaVuSans-35"/>
      </g>
     </g>
    </g>
    <g id="xtick_3">
     <g id="line2d_5">
      <path clip-path="url(#pb8211ad5a9)" d="M 92.408545 319.04 
L 92.408545 26.88 
" style="fill:none;stroke:#000000;stroke-dasharray:0.8,1.32;stroke-dashoffset:0;stroke-opacity:0.5;stroke-width:0.8;"/>
     </g>
     <g id="line2d_6">
      <g>
       <use style="stroke:#000000;stroke-width:0.8;" x="92.408545" xlink:href="#m30ba38e505" y="319.04"/>
      </g>
     </g>
     <g id="text_3">
      <!-- Jun -->
      <g transform="translate(84.596045 333.638438)scale(0.1 -0.1)">
       <defs>
        <path d="M 628 4666 
L 1259 4666 
L 1259 325 
Q 1259 -519 939 -900 
Q 619 -1281 -91 -1281 
L -331 -1281 
L -331 -750 
L -134 -750 
Q 284 -750 456 -515 
Q 628 -281 628 325 
L 628 4666 
z
" id="DejaVuSans-4a" transform="scale(0.015625)"/>
        <path d="M 544 1381 
L 544 3500 
L 1119 3500 
L 1119 1403 
Q 1119 906 1312 657 
Q 1506 409 1894 409 
Q 2359 409 2629 706 
Q 2900 1003 2900 1516 
L 2900 3500 
L 3475 3500 
L 3475 0 
L 2900 0 
L 2900 538 
Q 2691 219 2414 64 
Q 2138 -91 1772 -91 
Q 1169 -91 856 284 
Q 544 659 544 1381 
z
M 1991 3584 
L 1991 3584 
z
" id="DejaVuSans-75" transform="scale(0.015625)"/>
        <path d="M 3513 2113 
L 3513 0 
L 2938 0 
L 2938 2094 
Q 2938 2591 2744 2837 
Q 2550 3084 2163 3084 
Q 1697 3084 1428 2787 
Q 1159 2491 1159 1978 
L 1159 0 
L 581 0 
L 581 3500 
L 1159 3500 
L 1159 2956 
Q 1366 3272 1645 3428 
Q 1925 3584 2291 3584 
Q 2894 3584 3203 3211 
Q 3513 2838 3513 2113 
z
" id="DejaVuSans-6e" transform="scale(0.015625)"/>
       </defs>
       <use xlink:href="#DejaVuSans-4a"/>
       <use x="29.492188" xlink:href="#DejaVuSans-75"/>
       <use x="92.871094" xlink:href="#DejaVuSans-6e"/>
      </g>
     </g>
    </g>
    <g id="xtick_4">
     <g id="line2d_7">
      <path clip-path="url(#pb8211ad5a9)" d="M 109.745307 319.04 
L 109.745307 26.88 
" style="fill:none;stroke:#000000;stroke-dasharray:0.8,1.32;stroke-dashoffset:0;stroke-opacity:0.5;stroke-width:0.8;"/>
     </g>
     <g id="line2d_8">
      <g>
       <use style="stroke:#000000;stroke-width:0.8;" x="109.745307" xlink:href="#m30ba38e505" y="319.04"/>
      </g>
     </g>
     <g id="text_4">
      <!-- 15 -->
      <g transform="translate(103.382807 333.638438)scale(0.1 -0.1)">
       <use xlink:href="#DejaVuSans-31"/>
       <use x="63.623047" xlink:href="#DejaVuSans-35"/>
      </g>
     </g>
    </g>
    <g id="xtick_5">
     <g id="line2d_9">
      <path clip-path="url(#pb8211ad5a9)" d="M 129.55875 319.04 
L 129.55875 26.88 
" style="fill:none;stroke:#000000;stroke-dasharray:0.8,1.32;stroke-dashoffset:0;stroke-opacity:0.5;stroke-width:0.8;"/>
     </g>
     <g id="line2d_10">
      <g>
       <use style="stroke:#000000;stroke-width:0.8;" x="129.55875" xlink:href="#m30ba38e505" y="319.04"/>
      </g>
     </g>
     <g id="text_5">
      <!-- Jul -->
      <g transform="translate(123.525938 333.638438)scale(0.1 -0.1)">
       <defs>
        <path d="M 603 4863 
L 1178 4863 
L 1178 0 
L 603 0 
L 603 4863 
z
" id="DejaVuSans-6c" transform="scale(0.015625)"/>
       </defs>
       <use xlink:href="#DejaVuSans-4a"/>
       <use x="29.492188" xlink:href="#DejaVuSans-75"/>
       <use x="92.871094" xlink:href="#DejaVuSans-6c"/>
      </g>
     </g>
    </g>
    <g id="xtick_6">
     <g id="line2d_11">
      <path clip-path="url(#pb8211ad5a9)" d="M 146.895512 319.04 
L 146.895512 26.88 
" style="fill:none;stroke:#000000;stroke-dasharray:0.8,1.32;stroke-dashoffset:0;stroke-opacity:0.5;stroke-width:0.8;"/>
     </g>
     <g id="line2d_12">
      <g>
       <use style="stroke:#000000;stroke-width:0.8;" x="146.895512" xlink:href="#m30ba38e505" y="319.04"/>
      </g>
     </g>
     <g id="text_6">
      <!-- 15 -->
      <g transform="translate(140.533012 333.638438)scale(0.1 -0.1)">
       <use xlink:href="#DejaVuSans-31"/>
       <use x="63.623047" xlink:href="#DejaVuSans-35"/>
      </g>
     </g>
    </g>
    <g id="xtick_7">
     <g id="line2d_13">
      <path clip-path="url(#pb8211ad5a9)" d="M 167.947295 319.04 
L 167.947295 26.88 
" style="fill:none;stroke:#000000;stroke-dasharray:0.8,1.32;stroke-dashoffset:0;stroke-opacity:0.5;stroke-width:0.8;"/>
     </g>
     <g id="line2d_14">
      <g>
       <use style="stroke:#000000;stroke-width:0.8;" x="167.947295" xlink:href="#m30ba38e505" y="319.04"/>
      </g>
     </g>
     <g id="text_7">
      <!-- Aug -->
      <g transform="translate(158.184014 333.638438)scale(0.1 -0.1)">
       <defs>
        <path d="M 2188 4044 
L 1331 1722 
L 3047 1722 
L 2188 4044 
z
M 1831 4666 
L 2547 4666 
L 4325 0 
L 3669 0 
L 3244 1197 
L 1141 1197 
L 716 0 
L 50 0 
L 1831 4666 
z
" id="DejaVuSans-41" transform="scale(0.015625)"/>
        <path d="M 2906 1791 
Q 2906 2416 2648 2759 
Q 2391 3103 1925 3103 
Q 1463 3103 1205 2759 
Q 947 2416 947 1791 
Q 947 1169 1205 825 
Q 1463 481 1925 481 
Q 2391 481 2648 825 
Q 2906 1169 2906 1791 
z
M 3481 434 
Q 3481 -459 3084 -895 
Q 2688 -1331 1869 -1331 
Q 1566 -1331 1297 -1286 
Q 1028 -1241 775 -1147 
L 775 -588 
Q 1028 -725 1275 -790 
Q 1522 -856 1778 -856 
Q 2344 -856 2625 -561 
Q 2906 -266 2906 331 
L 2906 616 
Q 2728 306 2450 153 
Q 2172 0 1784 0 
Q 1141 0 747 490 
Q 353 981 353 1791 
Q 353 2603 747 3093 
Q 1141 3584 1784 3584 
Q 2172 3584 2450 3431 
Q 2728 3278 2906 2969 
L 2906 3500 
L 3481 3500 
L 3481 434 
z
" id="DejaVuSans-67" transform="scale(0.015625)"/>
       </defs>
       <use xlink:href="#DejaVuSans-41"/>
       <use x="68.408203" xlink:href="#DejaVuSans-75"/>
       <use x="131.787109" xlink:href="#DejaVuSans-67"/>
      </g>
     </g>
    </g>
    <g id="xtick_8">
     <g id="line2d_15">
      <path clip-path="url(#pb8211ad5a9)" d="M 185.284057 319.04 
L 185.284057 26.88 
" style="fill:none;stroke:#000000;stroke-dasharray:0.8,1.32;stroke-dashoffset:0;stroke-opacity:0.5;stroke-width:0.8;"/>
     </g>
     <g id="line2d_16">
      <g>
       <use style="stroke:#000000;stroke-width:0.8;" x="185.284057" xlink:href="#m30ba38e505" y="319.04"/>
      </g>
     </g>
     <g id="text_8">
      <!-- 15 -->
      <g transform="translate(178.921557 333.638438)scale(0.1 -0.1)">
       <use xlink:href="#DejaVuSans-31"/>
       <use x="63.623047" xlink:href="#DejaVuSans-35"/>
      </g>
     </g>
    </g>
    <g id="xtick_9">
     <g id="line2d_17">
      <path clip-path="url(#pb8211ad5a9)" d="M 206.33584 319.04 
L 206.33584 26.88 
" style="fill:none;stroke:#000000;stroke-dasharray:0.8,1.32;stroke-dashoffset:0;stroke-opacity:0.5;stroke-width:0.8;"/>
     </g>
     <g id="line2d_18">
      <g>
       <use style="stroke:#000000;stroke-width:0.8;" x="206.33584" xlink:href="#m30ba38e505" y="319.04"/>
      </g>
     </g>
     <g id="text_9">
      <!-- Sep -->
      <g transform="translate(196.91084 333.638438)scale(0.1 -0.1)">
       <defs>
        <path d="M 3425 4513 
L 3425 3897 
Q 3066 4069 2747 4153 
Q 2428 4238 2131 4238 
Q 1616 4238 1336 4038 
Q 1056 3838 1056 3469 
Q 1056 3159 1242 3001 
Q 1428 2844 1947 2747 
L 2328 2669 
Q 3034 2534 3370 2195 
Q 3706 1856 3706 1288 
Q 3706 609 3251 259 
Q 2797 -91 1919 -91 
Q 1588 -91 1214 -16 
Q 841 59 441 206 
L 441 856 
Q 825 641 1194 531 
Q 1563 422 1919 422 
Q 2459 422 2753 634 
Q 3047 847 3047 1241 
Q 3047 1584 2836 1778 
Q 2625 1972 2144 2069 
L 1759 2144 
Q 1053 2284 737 2584 
Q 422 2884 422 3419 
Q 422 4038 858 4394 
Q 1294 4750 2059 4750 
Q 2388 4750 2728 4690 
Q 3069 4631 3425 4513 
z
" id="DejaVuSans-53" transform="scale(0.015625)"/>
        <path d="M 3597 1894 
L 3597 1613 
L 953 1613 
Q 991 1019 1311 708 
Q 1631 397 2203 397 
Q 2534 397 2845 478 
Q 3156 559 3463 722 
L 3463 178 
Q 3153 47 2828 -22 
Q 2503 -91 2169 -91 
Q 1331 -91 842 396 
Q 353 884 353 1716 
Q 353 2575 817 3079 
Q 1281 3584 2069 3584 
Q 2775 3584 3186 3129 
Q 3597 2675 3597 1894 
z
M 3022 2063 
Q 3016 2534 2758 2815 
Q 2500 3097 2075 3097 
Q 1594 3097 1305 2825 
Q 1016 2553 972 2059 
L 3022 2063 
z
" id="DejaVuSans-65" transform="scale(0.015625)"/>
        <path d="M 1159 525 
L 1159 -1331 
L 581 -1331 
L 581 3500 
L 1159 3500 
L 1159 2969 
Q 1341 3281 1617 3432 
Q 1894 3584 2278 3584 
Q 2916 3584 3314 3078 
Q 3713 2572 3713 1747 
Q 3713 922 3314 415 
Q 2916 -91 2278 -91 
Q 1894 -91 1617 61 
Q 1341 213 1159 525 
z
M 3116 1747 
Q 3116 2381 2855 2742 
Q 2594 3103 2138 3103 
Q 1681 3103 1420 2742 
Q 1159 2381 1159 1747 
Q 1159 1113 1420 752 
Q 1681 391 2138 391 
Q 2594 391 2855 752 
Q 3116 1113 3116 1747 
z
" id="DejaVuSans-70" transform="scale(0.015625)"/>
       </defs>
       <use xlink:href="#DejaVuSans-53"/>
       <use x="63.476562" xlink:href="#DejaVuSans-65"/>
       <use x="125" xlink:href="#DejaVuSans-70"/>
      </g>
     </g>
    </g>
    <g id="xtick_10">
     <g id="line2d_19">
      <path clip-path="url(#pb8211ad5a9)" d="M 223.672602 319.04 
L 223.672602 26.88 
" style="fill:none;stroke:#000000;stroke-dasharray:0.8,1.32;stroke-dashoffset:0;stroke-opacity:0.5;stroke-width:0.8;"/>
     </g>
     <g id="line2d_20">
      <g>
       <use style="stroke:#000000;stroke-width:0.8;" x="223.672602" xlink:href="#m30ba38e505" y="319.04"/>
      </g>
     </g>
     <g id="text_10">
      <!-- 15 -->
      <g transform="translate(217.310102 333.638438)scale(0.1 -0.1)">
       <use xlink:href="#DejaVuSans-31"/>
       <use x="63.623047" xlink:href="#DejaVuSans-35"/>
      </g>
     </g>
    </g>
    <g id="xtick_11">
     <g id="line2d_21">
      <path clip-path="url(#pb8211ad5a9)" d="M 243.486045 319.04 
L 243.486045 26.88 
" style="fill:none;stroke:#000000;stroke-dasharray:0.8,1.32;stroke-dashoffset:0;stroke-opacity:0.5;stroke-width:0.8;"/>
     </g>
     <g id="line2d_22">
      <g>
       <use style="stroke:#000000;stroke-width:0.8;" x="243.486045" xlink:href="#m30ba38e505" y="319.04"/>
      </g>
     </g>
     <g id="text_11">
      <!-- Oct -->
      <g transform="translate(234.840733 333.638438)scale(0.1 -0.1)">
       <defs>
        <path d="M 2522 4238 
Q 1834 4238 1429 3725 
Q 1025 3213 1025 2328 
Q 1025 1447 1429 934 
Q 1834 422 2522 422 
Q 3209 422 3611 934 
Q 4013 1447 4013 2328 
Q 4013 3213 3611 3725 
Q 3209 4238 2522 4238 
z
M 2522 4750 
Q 3503 4750 4090 4092 
Q 4678 3434 4678 2328 
Q 4678 1225 4090 567 
Q 3503 -91 2522 -91 
Q 1538 -91 948 565 
Q 359 1222 359 2328 
Q 359 3434 948 4092 
Q 1538 4750 2522 4750 
z
" id="DejaVuSans-4f" transform="scale(0.015625)"/>
        <path d="M 3122 3366 
L 3122 2828 
Q 2878 2963 2633 3030 
Q 2388 3097 2138 3097 
Q 1578 3097 1268 2742 
Q 959 2388 959 1747 
Q 959 1106 1268 751 
Q 1578 397 2138 397 
Q 2388 397 2633 464 
Q 2878 531 3122 666 
L 3122 134 
Q 2881 22 2623 -34 
Q 2366 -91 2075 -91 
Q 1284 -91 818 406 
Q 353 903 353 1747 
Q 353 2603 823 3093 
Q 1294 3584 2113 3584 
Q 2378 3584 2631 3529 
Q 2884 3475 3122 3366 
z
" id="DejaVuSans-63" transform="scale(0.015625)"/>
        <path d="M 1172 4494 
L 1172 3500 
L 2356 3500 
L 2356 3053 
L 1172 3053 
L 1172 1153 
Q 1172 725 1289 603 
Q 1406 481 1766 481 
L 2356 481 
L 2356 0 
L 1766 0 
Q 1100 0 847 248 
Q 594 497 594 1153 
L 594 3053 
L 172 3053 
L 172 3500 
L 594 3500 
L 594 4494 
L 1172 4494 
z
" id="DejaVuSans-74" transform="scale(0.015625)"/>
       </defs>
       <use xlink:href="#DejaVuSans-4f"/>
       <use x="78.710938" xlink:href="#DejaVuSans-63"/>
       <use x="133.691406" xlink:href="#DejaVuSans-74"/>
      </g>
     </g>
    </g>
    <g id="xtick_12">
     <g id="line2d_23">
      <path clip-path="url(#pb8211ad5a9)" d="M 260.822807 319.04 
L 260.822807 26.88 
" style="fill:none;stroke:#000000;stroke-dasharray:0.8,1.32;stroke-dashoffset:0;stroke-opacity:0.5;stroke-width:0.8;"/>
     </g>
     <g id="line2d_24">
      <g>
       <use style="stroke:#000000;stroke-width:0.8;" x="260.822807" xlink:href="#m30ba38e505" y="319.04"/>
      </g>
     </g>
     <g id="text_12">
      <!-- 15 -->
      <g transform="translate(254.460307 333.638438)scale(0.1 -0.1)">
       <use xlink:href="#DejaVuSans-31"/>
       <use x="63.623047" xlink:href="#DejaVuSans-35"/>
      </g>
     </g>
    </g>
    <g id="xtick_13">
     <g id="line2d_25">
      <path clip-path="url(#pb8211ad5a9)" d="M 281.87459 319.04 
L 281.87459 26.88 
" style="fill:none;stroke:#000000;stroke-dasharray:0.8,1.32;stroke-dashoffset:0;stroke-opacity:0.5;stroke-width:0.8;"/>
     </g>
     <g id="line2d_26">
      <g>
       <use style="stroke:#000000;stroke-width:0.8;" x="281.87459" xlink:href="#m30ba38e505" y="319.04"/>
      </g>
     </g>
     <g id="text_13">
      <!-- Nov -->
      <g transform="translate(272.115215 333.638438)scale(0.1 -0.1)">
       <defs>
        <path d="M 628 4666 
L 1478 4666 
L 3547 763 
L 3547 4666 
L 4159 4666 
L 4159 0 
L 3309 0 
L 1241 3903 
L 1241 0 
L 628 0 
L 628 4666 
z
" id="DejaVuSans-4e" transform="scale(0.015625)"/>
        <path d="M 1959 3097 
Q 1497 3097 1228 2736 
Q 959 2375 959 1747 
Q 959 1119 1226 758 
Q 1494 397 1959 397 
Q 2419 397 2687 759 
Q 2956 1122 2956 1747 
Q 2956 2369 2687 2733 
Q 2419 3097 1959 3097 
z
M 1959 3584 
Q 2709 3584 3137 3096 
Q 3566 2609 3566 1747 
Q 3566 888 3137 398 
Q 2709 -91 1959 -91 
Q 1206 -91 779 398 
Q 353 888 353 1747 
Q 353 2609 779 3096 
Q 1206 3584 1959 3584 
z
" id="DejaVuSans-6f" transform="scale(0.015625)"/>
        <path d="M 191 3500 
L 800 3500 
L 1894 563 
L 2988 3500 
L 3597 3500 
L 2284 0 
L 1503 0 
L 191 3500 
z
" id="DejaVuSans-76" transform="scale(0.015625)"/>
       </defs>
       <use xlink:href="#DejaVuSans-4e"/>
       <use x="74.804688" xlink:href="#DejaVuSans-6f"/>
       <use x="135.986328" xlink:href="#DejaVuSans-76"/>
      </g>
     </g>
    </g>
    <g id="xtick_14">
     <g id="line2d_27">
      <path clip-path="url(#pb8211ad5a9)" d="M 299.211352 319.04 
L 299.211352 26.88 
" style="fill:none;stroke:#000000;stroke-dasharray:0.8,1.32;stroke-dashoffset:0;stroke-opacity:0.5;stroke-width:0.8;"/>
     </g>
     <g id="line2d_28">
      <g>
       <use style="stroke:#000000;stroke-width:0.8;" x="299.211352" xlink:href="#m30ba38e505" y="319.04"/>
      </g>
     </g>
     <g id="text_14">
      <!-- 15 -->
      <g transform="translate(292.848852 333.638438)scale(0.1 -0.1)">
       <use xlink:href="#DejaVuSans-31"/>
       <use x="63.623047" xlink:href="#DejaVuSans-35"/>
      </g>
     </g>
    </g>
    <g id="xtick_15">
     <g id="line2d_29">
      <path clip-path="url(#pb8211ad5a9)" d="M 319.024795 319.04 
L 319.024795 26.88 
" style="fill:none;stroke:#000000;stroke-dasharray:0.8,1.32;stroke-dashoffset:0;stroke-opacity:0.5;stroke-width:0.8;"/>
     </g>
     <g id="line2d_30">
      <g>
       <use style="stroke:#000000;stroke-width:0.8;" x="319.024795" xlink:href="#m30ba38e505" y="319.04"/>
      </g>
     </g>
     <g id="text_15">
      <!-- Dec -->
      <g transform="translate(309.349014 333.638438)scale(0.1 -0.1)">
       <defs>
        <path d="M 1259 4147 
L 1259 519 
L 2022 519 
Q 2988 519 3436 956 
Q 3884 1394 3884 2338 
Q 3884 3275 3436 3711 
Q 2988 4147 2022 4147 
L 1259 4147 
z
M 628 4666 
L 1925 4666 
Q 3281 4666 3915 4102 
Q 4550 3538 4550 2338 
Q 4550 1131 3912 565 
Q 3275 0 1925 0 
L 628 0 
L 628 4666 
z
" id="DejaVuSans-44" transform="scale(0.015625)"/>
       </defs>
       <use xlink:href="#DejaVuSans-44"/>
       <use x="77.001953" xlink:href="#DejaVuSans-65"/>
       <use x="138.525391" xlink:href="#DejaVuSans-63"/>
      </g>
     </g>
    </g>
    <g id="xtick_16">
     <g id="line2d_31">
      <path clip-path="url(#pb8211ad5a9)" d="M 336.361557 319.04 
L 336.361557 26.88 
" style="fill:none;stroke:#000000;stroke-dasharray:0.8,1.32;stroke-dashoffset:0;stroke-opacity:0.5;stroke-width:0.8;"/>
     </g>
     <g id="line2d_32">
      <g>
       <use style="stroke:#000000;stroke-width:0.8;" x="336.361557" xlink:href="#m30ba38e505" y="319.04"/>
      </g>
     </g>
     <g id="text_16">
      <!-- 15 -->
      <g transform="translate(329.999057 333.638438)scale(0.1 -0.1)">
       <use xlink:href="#DejaVuSans-31"/>
       <use x="63.623047" xlink:href="#DejaVuSans-35"/>
      </g>
     </g>
    </g>
    <g id="text_17">
     <!-- 2021-Dec -->
     <g transform="translate(307.765625 346.316563)scale(0.1 -0.1)">
      <defs>
       <path d="M 1228 531 
L 3431 531 
L 3431 0 
L 469 0 
L 469 531 
Q 828 903 1448 1529 
Q 2069 2156 2228 2338 
Q 2531 2678 2651 2914 
Q 2772 3150 2772 3378 
Q 2772 3750 2511 3984 
Q 2250 4219 1831 4219 
Q 1534 4219 1204 4116 
Q 875 4013 500 3803 
L 500 4441 
Q 881 4594 1212 4672 
Q 1544 4750 1819 4750 
Q 2544 4750 2975 4387 
Q 3406 4025 3406 3419 
Q 3406 3131 3298 2873 
Q 3191 2616 2906 2266 
Q 2828 2175 2409 1742 
Q 1991 1309 1228 531 
z
" id="DejaVuSans-32" transform="scale(0.015625)"/>
       <path d="M 2034 4250 
Q 1547 4250 1301 3770 
Q 1056 3291 1056 2328 
Q 1056 1369 1301 889 
Q 1547 409 2034 409 
Q 2525 409 2770 889 
Q 3016 1369 3016 2328 
Q 3016 3291 2770 3770 
Q 2525 4250 2034 4250 
z
M 2034 4750 
Q 2819 4750 3233 4129 
Q 3647 3509 3647 2328 
Q 3647 1150 3233 529 
Q 2819 -91 2034 -91 
Q 1250 -91 836 529 
Q 422 1150 422 2328 
Q 422 3509 836 4129 
Q 1250 4750 2034 4750 
z
" id="DejaVuSans-30" transform="scale(0.015625)"/>
       <path d="M 313 2009 
L 1997 2009 
L 1997 1497 
L 313 1497 
L 313 2009 
z
" id="DejaVuSans-2d" transform="scale(0.015625)"/>
      </defs>
      <use xlink:href="#DejaVuSans-32"/>
      <use x="63.623047" xlink:href="#DejaVuSans-30"/>
      <use x="127.246094" xlink:href="#DejaVuSans-32"/>
      <use x="190.869141" xlink:href="#DejaVuSans-31"/>
      <use x="254.492188" xlink:href="#DejaVuSans-2d"/>
      <use x="290.576172" xlink:href="#DejaVuSans-44"/>
      <use x="367.578125" xlink:href="#DejaVuSans-65"/>
      <use x="429.101562" xlink:href="#DejaVuSans-63"/>
     </g>
    </g>
   </g>
   <g id="matplotlib.axis_2">
    <g id="ytick_1">
     <g id="line2d_33">
      <path clip-path="url(#pb8211ad5a9)" d="M 54.02 319.04 
L 356.175 319.04 
" style="fill:none;stroke:#000000;stroke-dasharray:0.8,1.32;stroke-dashoffset:0;stroke-opacity:0.5;stroke-width:0.8;"/>
     </g>
     <g id="line2d_34">
      <defs>
       <path d="M 0 0 
L -3.5 0 
" id="ma6c96a68d8" style="stroke:#000000;stroke-width:0.8;"/>
      </defs>
      <g>
       <use style="stroke:#000000;stroke-width:0.8;" x="54.02" xlink:href="#ma6c96a68d8" y="319.04"/>
      </g>
     </g>
     <g id="text_18">
      <!-- 0.00 -->
      <g transform="translate(24.754375 322.839219)scale(0.1 -0.1)">
       <defs>
        <path d="M 684 794 
L 1344 794 
L 1344 0 
L 684 0 
L 684 794 
z
" id="DejaVuSans-2e" transform="scale(0.015625)"/>
       </defs>
       <use xlink:href="#DejaVuSans-30"/>
       <use x="63.623047" xlink:href="#DejaVuSans-2e"/>
       <use x="95.410156" xlink:href="#DejaVuSans-30"/>
       <use x="159.033203" xlink:href="#DejaVuSans-30"/>
      </g>
     </g>
    </g>
    <g id="ytick_2">
     <g id="line2d_35">
      <path clip-path="url(#pb8211ad5a9)" d="M 54.02 285.84 
L 356.175 285.84 
" style="fill:none;stroke:#000000;stroke-dasharray:0.8,1.32;stroke-dashoffset:0;stroke-opacity:0.5;stroke-width:0.8;"/>
     </g>
     <g id="line2d_36">
      <g>
       <use style="stroke:#000000;stroke-width:0.8;" x="54.02" xlink:href="#ma6c96a68d8" y="285.84"/>
      </g>
     </g>
     <g id="text_19">
      <!-- 0.25 -->
      <g transform="translate(24.754375 289.639219)scale(0.1 -0.1)">
       <use xlink:href="#DejaVuSans-30"/>
       <use x="63.623047" xlink:href="#DejaVuSans-2e"/>
       <use x="95.410156" xlink:href="#DejaVuSans-32"/>
       <use x="159.033203" xlink:href="#DejaVuSans-35"/>
      </g>
     </g>
    </g>
    <g id="ytick_3">
     <g id="line2d_37">
      <path clip-path="url(#pb8211ad5a9)" d="M 54.02 252.64 
L 356.175 252.64 
" style="fill:none;stroke:#000000;stroke-dasharray:0.8,1.32;stroke-dashoffset:0;stroke-opacity:0.5;stroke-width:0.8;"/>
     </g>
     <g id="line2d_38">
      <g>
       <use style="stroke:#000000;stroke-width:0.8;" x="54.02" xlink:href="#ma6c96a68d8" y="252.64"/>
      </g>
     </g>
     <g id="text_20">
      <!-- 0.50 -->
      <g transform="translate(24.754375 256.439219)scale(0.1 -0.1)">
       <use xlink:href="#DejaVuSans-30"/>
       <use x="63.623047" xlink:href="#DejaVuSans-2e"/>
       <use x="95.410156" xlink:href="#DejaVuSans-35"/>
       <use x="159.033203" xlink:href="#DejaVuSans-30"/>
      </g>
     </g>
    </g>
    <g id="ytick_4">
     <g id="line2d_39">
      <path clip-path="url(#pb8211ad5a9)" d="M 54.02 219.44 
L 356.175 219.44 
" style="fill:none;stroke:#000000;stroke-dasharray:0.8,1.32;stroke-dashoffset:0;stroke-opacity:0.5;stroke-width:0.8;"/>
     </g>
     <g id="line2d_40">
      <g>
       <use style="stroke:#000000;stroke-width:0.8;" x="54.02" xlink:href="#ma6c96a68d8" y="219.44"/>
      </g>
     </g>
     <g id="text_21">
      <!-- 0.75 -->
      <g transform="translate(24.754375 223.239219)scale(0.1 -0.1)">
       <defs>
        <path d="M 525 4666 
L 3525 4666 
L 3525 4397 
L 1831 0 
L 1172 0 
L 2766 4134 
L 525 4134 
L 525 4666 
z
" id="DejaVuSans-37" transform="scale(0.015625)"/>
       </defs>
       <use xlink:href="#DejaVuSans-30"/>
       <use x="63.623047" xlink:href="#DejaVuSans-2e"/>
       <use x="95.410156" xlink:href="#DejaVuSans-37"/>
       <use x="159.033203" xlink:href="#DejaVuSans-35"/>
      </g>
     </g>
    </g>
    <g id="ytick_5">
     <g id="line2d_41">
      <path clip-path="url(#pb8211ad5a9)" d="M 54.02 186.24 
L 356.175 186.24 
" style="fill:none;stroke:#000000;stroke-dasharray:0.8,1.32;stroke-dashoffset:0;stroke-opacity:0.5;stroke-width:0.8;"/>
     </g>
     <g id="line2d_42">
      <g>
       <use style="stroke:#000000;stroke-width:0.8;" x="54.02" xlink:href="#ma6c96a68d8" y="186.24"/>
      </g>
     </g>
     <g id="text_22">
      <!-- 1.00 -->
      <g transform="translate(24.754375 190.039219)scale(0.1 -0.1)">
       <use xlink:href="#DejaVuSans-31"/>
       <use x="63.623047" xlink:href="#DejaVuSans-2e"/>
       <use x="95.410156" xlink:href="#DejaVuSans-30"/>
       <use x="159.033203" xlink:href="#DejaVuSans-30"/>
      </g>
     </g>
    </g>
    <g id="ytick_6">
     <g id="line2d_43">
      <path clip-path="url(#pb8211ad5a9)" d="M 54.02 153.04 
L 356.175 153.04 
" style="fill:none;stroke:#000000;stroke-dasharray:0.8,1.32;stroke-dashoffset:0;stroke-opacity:0.5;stroke-width:0.8;"/>
     </g>
     <g id="line2d_44">
      <g>
       <use style="stroke:#000000;stroke-width:0.8;" x="54.02" xlink:href="#ma6c96a68d8" y="153.04"/>
      </g>
     </g>
     <g id="text_23">
      <!-- 1.25 -->
      <g transform="translate(24.754375 156.839219)scale(0.1 -0.1)">
       <use xlink:href="#DejaVuSans-31"/>
       <use x="63.623047" xlink:href="#DejaVuSans-2e"/>
       <use x="95.410156" xlink:href="#DejaVuSans-32"/>
       <use x="159.033203" xlink:href="#DejaVuSans-35"/>
      </g>
     </g>
    </g>
    <g id="ytick_7">
     <g id="line2d_45">
      <path clip-path="url(#pb8211ad5a9)" d="M 54.02 119.84 
L 356.175 119.84 
" style="fill:none;stroke:#000000;stroke-dasharray:0.8,1.32;stroke-dashoffset:0;stroke-opacity:0.5;stroke-width:0.8;"/>
     </g>
     <g id="line2d_46">
      <g>
       <use style="stroke:#000000;stroke-width:0.8;" x="54.02" xlink:href="#ma6c96a68d8" y="119.84"/>
      </g>
     </g>
     <g id="text_24">
      <!-- 1.50 -->
      <g transform="translate(24.754375 123.639219)scale(0.1 -0.1)">
       <use xlink:href="#DejaVuSans-31"/>
       <use x="63.623047" xlink:href="#DejaVuSans-2e"/>
       <use x="95.410156" xlink:href="#DejaVuSans-35"/>
       <use x="159.033203" xlink:href="#DejaVuSans-30"/>
      </g>
     </g>
    </g>
    <g id="ytick_8">
     <g id="line2d_47">
      <path clip-path="url(#pb8211ad5a9)" d="M 54.02 86.64 
L 356.175 86.64 
" style="fill:none;stroke:#000000;stroke-dasharray:0.8,1.32;stroke-dashoffset:0;stroke-opacity:0.5;stroke-width:0.8;"/>
     </g>
     <g id="line2d_48">
      <g>
       <use style="stroke:#000000;stroke-width:0.8;" x="54.02" xlink:href="#ma6c96a68d8" y="86.64"/>
      </g>
     </g>
     <g id="text_25">
      <!-- 1.75 -->
      <g transform="translate(24.754375 90.439219)scale(0.1 -0.1)">
       <use xlink:href="#DejaVuSans-31"/>
       <use x="63.623047" xlink:href="#DejaVuSans-2e"/>
       <use x="95.410156" xlink:href="#DejaVuSans-37"/>
       <use x="159.033203" xlink:href="#DejaVuSans-35"/>
      </g>
     </g>
    </g>
    <g id="ytick_9">
     <g id="line2d_49">
      <path clip-path="url(#pb8211ad5a9)" d="M 54.02 53.44 
L 356.175 53.44 
" style="fill:none;stroke:#000000;stroke-dasharray:0.8,1.32;stroke-dashoffset:0;stroke-opacity:0.5;stroke-width:0.8;"/>
     </g>
     <g id="line2d_50">
      <g>
       <use style="stroke:#000000;stroke-width:0.8;" x="54.02" xlink:href="#ma6c96a68d8" y="53.44"/>
      </g>
     </g>
     <g id="text_26">
      <!-- 2.00 -->
      <g transform="translate(24.754375 57.239219)scale(0.1 -0.1)">
       <use xlink:href="#DejaVuSans-32"/>
       <use x="63.623047" xlink:href="#DejaVuSans-2e"/>
       <use x="95.410156" xlink:href="#DejaVuSans-30"/>
       <use x="159.033203" xlink:href="#DejaVuSans-30"/>
      </g>
     </g>
    </g>
    <g id="text_27">
     <!-- 7d avg doses per hundred population per day -->
     <g transform="translate(18.674688 287.4475)rotate(-90)scale(0.1 -0.1)">
      <defs>
       <path d="M 2906 2969 
L 2906 4863 
L 3481 4863 
L 3481 0 
L 2906 0 
L 2906 525 
Q 2725 213 2448 61 
Q 2172 -91 1784 -91 
Q 1150 -91 751 415 
Q 353 922 353 1747 
Q 353 2572 751 3078 
Q 1150 3584 1784 3584 
Q 2172 3584 2448 3432 
Q 2725 3281 2906 2969 
z
M 947 1747 
Q 947 1113 1208 752 
Q 1469 391 1925 391 
Q 2381 391 2643 752 
Q 2906 1113 2906 1747 
Q 2906 2381 2643 2742 
Q 2381 3103 1925 3103 
Q 1469 3103 1208 2742 
Q 947 2381 947 1747 
z
" id="DejaVuSans-64" transform="scale(0.015625)"/>
       <path id="DejaVuSans-20" transform="scale(0.015625)"/>
       <path d="M 2834 3397 
L 2834 2853 
Q 2591 2978 2328 3040 
Q 2066 3103 1784 3103 
Q 1356 3103 1142 2972 
Q 928 2841 928 2578 
Q 928 2378 1081 2264 
Q 1234 2150 1697 2047 
L 1894 2003 
Q 2506 1872 2764 1633 
Q 3022 1394 3022 966 
Q 3022 478 2636 193 
Q 2250 -91 1575 -91 
Q 1294 -91 989 -36 
Q 684 19 347 128 
L 347 722 
Q 666 556 975 473 
Q 1284 391 1588 391 
Q 1994 391 2212 530 
Q 2431 669 2431 922 
Q 2431 1156 2273 1281 
Q 2116 1406 1581 1522 
L 1381 1569 
Q 847 1681 609 1914 
Q 372 2147 372 2553 
Q 372 3047 722 3315 
Q 1072 3584 1716 3584 
Q 2034 3584 2315 3537 
Q 2597 3491 2834 3397 
z
" id="DejaVuSans-73" transform="scale(0.015625)"/>
       <path d="M 2631 2963 
Q 2534 3019 2420 3045 
Q 2306 3072 2169 3072 
Q 1681 3072 1420 2755 
Q 1159 2438 1159 1844 
L 1159 0 
L 581 0 
L 581 3500 
L 1159 3500 
L 1159 2956 
Q 1341 3275 1631 3429 
Q 1922 3584 2338 3584 
Q 2397 3584 2469 3576 
Q 2541 3569 2628 3553 
L 2631 2963 
z
" id="DejaVuSans-72" transform="scale(0.015625)"/>
       <path d="M 3513 2113 
L 3513 0 
L 2938 0 
L 2938 2094 
Q 2938 2591 2744 2837 
Q 2550 3084 2163 3084 
Q 1697 3084 1428 2787 
Q 1159 2491 1159 1978 
L 1159 0 
L 581 0 
L 581 4863 
L 1159 4863 
L 1159 2956 
Q 1366 3272 1645 3428 
Q 1925 3584 2291 3584 
Q 2894 3584 3203 3211 
Q 3513 2838 3513 2113 
z
" id="DejaVuSans-68" transform="scale(0.015625)"/>
       <path d="M 603 3500 
L 1178 3500 
L 1178 0 
L 603 0 
L 603 3500 
z
M 603 4863 
L 1178 4863 
L 1178 4134 
L 603 4134 
L 603 4863 
z
" id="DejaVuSans-69" transform="scale(0.015625)"/>
      </defs>
      <use xlink:href="#DejaVuSans-37"/>
      <use x="63.623047" xlink:href="#DejaVuSans-64"/>
      <use x="127.099609" xlink:href="#DejaVuSans-20"/>
      <use x="158.886719" xlink:href="#DejaVuSans-61"/>
      <use x="220.166016" xlink:href="#DejaVuSans-76"/>
      <use x="279.345703" xlink:href="#DejaVuSans-67"/>
      <use x="342.822266" xlink:href="#DejaVuSans-20"/>
      <use x="374.609375" xlink:href="#DejaVuSans-64"/>
      <use x="438.085938" xlink:href="#DejaVuSans-6f"/>
      <use x="499.267578" xlink:href="#DejaVuSans-73"/>
      <use x="551.367188" xlink:href="#DejaVuSans-65"/>
      <use x="612.890625" xlink:href="#DejaVuSans-73"/>
      <use x="664.990234" xlink:href="#DejaVuSans-20"/>
      <use x="696.777344" xlink:href="#DejaVuSans-70"/>
      <use x="760.253906" xlink:href="#DejaVuSans-65"/>
      <use x="821.777344" xlink:href="#DejaVuSans-72"/>
      <use x="862.890625" xlink:href="#DejaVuSans-20"/>
      <use x="894.677734" xlink:href="#DejaVuSans-68"/>
      <use x="958.056641" xlink:href="#DejaVuSans-75"/>
      <use x="1021.435547" xlink:href="#DejaVuSans-6e"/>
      <use x="1084.814453" xlink:href="#DejaVuSans-64"/>
      <use x="1148.291016" xlink:href="#DejaVuSans-72"/>
      <use x="1187.154297" xlink:href="#DejaVuSans-65"/>
      <use x="1248.677734" xlink:href="#DejaVuSans-64"/>
      <use x="1312.154297" xlink:href="#DejaVuSans-20"/>
      <use x="1343.941406" xlink:href="#DejaVuSans-70"/>
      <use x="1407.417969" xlink:href="#DejaVuSans-6f"/>
      <use x="1468.599609" xlink:href="#DejaVuSans-70"/>
      <use x="1532.076172" xlink:href="#DejaVuSans-75"/>
      <use x="1595.455078" xlink:href="#DejaVuSans-6c"/>
      <use x="1623.238281" xlink:href="#DejaVuSans-61"/>
      <use x="1684.517578" xlink:href="#DejaVuSans-74"/>
      <use x="1723.726562" xlink:href="#DejaVuSans-69"/>
      <use x="1751.509766" xlink:href="#DejaVuSans-6f"/>
      <use x="1812.691406" xlink:href="#DejaVuSans-6e"/>
      <use x="1876.070312" xlink:href="#DejaVuSans-20"/>
      <use x="1907.857422" xlink:href="#DejaVuSans-70"/>
      <use x="1971.333984" xlink:href="#DejaVuSans-65"/>
      <use x="2032.857422" xlink:href="#DejaVuSans-72"/>
      <use x="2073.970703" xlink:href="#DejaVuSans-20"/>
      <use x="2105.757812" xlink:href="#DejaVuSans-64"/>
      <use x="2169.234375" xlink:href="#DejaVuSans-61"/>
      <use x="2230.513672" xlink:href="#DejaVuSans-79"/>
     </g>
    </g>
   </g>
   <g id="line2d_51">
    <path clip-path="url(#pb8211ad5a9)" d="M -1 314.984505 
L -0.466967 314.984505 
L -0.466967 314.438165 
L 0.771373 314.438165 
L 0.771373 314.238303 
L 2.009713 314.238303 
L 2.009713 313.853627 
L 3.248053 313.853627 
L 3.248053 313.711255 
L 4.486393 313.711255 
L 4.486393 313.505606 
L 5.724734 313.505606 
L 5.724734 312.90795 
L 6.963074 312.90795 
L 6.963074 312.411768 
L 8.201414 312.411768 
L 8.201414 311.56332 
L 9.439754 311.56332 
L 9.439754 311.272016 
L 10.678094 311.272016 
L 10.678094 311.430594 
L 11.916434 311.430594 
L 11.916434 310.39656 
L 13.154775 310.39656 
L 13.154775 309.248706 
L 14.393115 309.248706 
L 14.393115 307.999763 
L 15.631455 307.999763 
L 15.631455 306.805223 
L 16.869795 306.805223 
L 16.869795 307.82498 
L 19.346475 307.932628 
L 19.346475 308.017511 
L 20.584816 308.017511 
L 20.584816 309.451268 
L 21.823156 309.451268 
L 21.823156 309.724824 
L 23.061496 309.724824 
L 23.061496 309.542711 
L 24.299836 309.542711 
L 24.299836 308.855541 
L 25.538176 308.855541 
L 25.538176 306.799435 
L 26.776516 306.799435 
L 26.776516 305.946743 
L 28.014857 305.946743 
L 28.014857 304.942033 
L 29.253197 304.942033 
L 29.253197 302.413281 
L 30.491537 302.413281 
L 30.491537 301.071738 
L 31.729877 301.071738 
L 31.729877 300.731433 
L 32.968217 300.731433 
L 32.968217 300.538131 
L 34.206557 300.538131 
L 34.206557 299.714762 
L 35.444898 299.714762 
L 35.444898 299.295361 
L 36.683238 299.295361 
L 36.683238 299.871025 
L 37.921578 299.871025 
L 37.921578 300.116801 
L 39.159918 300.116801 
L 39.159918 299.866395 
L 40.398258 299.866395 
L 40.398258 299.082381 
L 41.636598 299.082381 
L 41.636598 298.43611 
L 42.874939 298.43611 
L 42.874939 297.586505 
L 44.113279 297.586505 
L 44.113279 297.73698 
L 45.351619 297.73698 
L 45.351619 297.616214 
L 46.589959 297.616214 
L 46.589959 299.498695 
L 47.828299 299.498695 
L 47.828299 299.142185 
L 49.066639 299.142185 
L 49.066639 298.83892 
L 50.30498 298.83892 
L 50.30498 298.038702 
L 51.54332 298.038702 
L 51.54332 297.375454 
L 52.78166 297.375454 
L 52.78166 297.056756 
L 54.02 297.056756 
L 54.02 296.609575 
L 55.25834 296.609575 
L 55.25834 293.335778 
L 56.49668 293.335778 
L 56.49668 291.937518 
L 57.73502 291.937518 
L 57.73502 290.47328 
L 58.973361 290.47328 
L 58.973361 289.49172 
L 60.211701 289.49172 
L 60.211701 288.152107 
L 61.450041 288.152107 
L 61.450041 287.473426 
L 63.926721 287.548663 
L 63.926721 287.063671 
L 65.165061 287.063671 
L 65.165061 286.489936 
L 66.403402 286.489936 
L 66.403402 286.286602 
L 67.641742 286.286602 
L 67.641742 285.995298 
L 68.880082 285.995298 
L 68.880082 286.30628 
L 70.118422 286.30628 
L 70.118422 286.6952 
L 71.356762 286.6952 
L 71.356762 286.361068 
L 72.595102 286.361068 
L 72.595102 286.723751 
L 73.833443 286.723751 
L 73.833443 286.85262 
L 77.548463 286.907794 
L 77.548463 287.10264 
L 78.786803 287.10264 
L 78.786803 286.433605 
L 80.025143 286.433605 
L 80.025143 286.589481 
L 81.263484 286.589481 
L 81.263484 285.84328 
L 82.501824 285.84328 
L 82.501824 284.872909 
L 83.740164 284.872909 
L 83.740164 283.613548 
L 84.978504 283.613548 
L 84.978504 283.075697 
L 86.216844 283.075697 
L 86.216844 281.097915 
L 87.455184 281.097915 
L 87.455184 280.222844 
L 88.693525 280.222844 
L 88.693525 279.683449 
L 89.931865 279.683449 
L 89.931865 279.111258 
L 91.170205 279.111258 
L 91.170205 278.099989 
L 92.408545 278.099989 
L 92.408545 277.231478 
L 93.646885 277.231478 
L 93.646885 274.799956 
L 96.123566 274.892942 
L 96.123566 275.156466 
L 98.600246 275.152222 
L 98.600246 278.687613 
L 99.838586 278.687613 
L 99.838586 277.944112 
L 101.076926 277.944112 
L 101.076926 281.624191 
L 103.553607 281.533906 
L 103.553607 281.105631 
L 104.791947 281.105631 
L 104.791947 280.183489 
L 106.030287 280.183489 
L 106.030287 279.377483 
L 107.268627 279.377483 
L 107.268627 274.511352 
L 108.506967 274.511352 
L 108.506967 274.36435 
L 109.745307 274.36435 
L 109.745307 269.351602 
L 112.221988 269.396745 
L 112.221988 269.684577 
L 113.460328 269.684577 
L 113.460328 269.554551 
L 115.937008 269.55185 
L 115.937008 269.710813 
L 117.175348 269.710813 
L 117.175348 269.517125 
L 118.413689 269.517125 
L 118.413689 269.292956 
L 119.652029 269.292956 
L 119.652029 268.851562 
L 120.890369 268.851562 
L 120.890369 268.496595 
L 122.128709 268.496595 
L 122.128709 267.588729 
L 124.605389 267.696377 
L 124.605389 268.13044 
L 125.84373 268.13044 
L 125.84373 268.812593 
L 127.08207 268.812593 
L 127.08207 269.628245 
L 128.32041 269.628245 
L 128.32041 270.199278 
L 129.55875 270.199278 
L 129.55875 270.837447 
L 130.79709 270.837447 
L 130.79709 271.579019 
L 132.03543 271.579019 
L 132.03543 271.818621 
L 133.27377 271.818621 
L 133.27377 272.063625 
L 136.988791 271.978742 
L 136.988791 271.339416 
L 138.227131 271.339416 
L 138.227131 270.752178 
L 139.465471 270.752178 
L 139.465471 269.558023 
L 140.703811 269.558023 
L 140.703811 269.086149 
L 141.942152 269.086149 
L 141.942152 268.316411 
L 143.180492 268.316411 
L 143.180492 267.689046 
L 144.418832 267.689046 
L 144.418832 267.02657 
L 145.657172 267.02657 
L 145.657172 267.351828 
L 148.133852 267.255755 
L 148.133852 266.976798 
L 149.372193 266.976798 
L 149.372193 266.562027 
L 150.610533 266.562027 
L 150.610533 264.788736 
L 151.848873 264.788736 
L 151.848873 261.649982 
L 153.087213 261.649982 
L 153.087213 258.130024 
L 154.325553 258.130024 
L 154.325553 254.818801 
L 155.563893 254.818801 
L 155.563893 251.266433 
L 156.802234 251.266433 
L 156.802234 248.062472 
L 158.040574 248.062472 
L 158.040574 246.029516 
L 159.278914 246.029516 
L 159.278914 242.870698 
L 160.517254 242.870698 
L 160.517254 239.671753 
L 161.755594 239.671753 
L 161.755594 236.747136 
L 162.993934 236.747136 
L 162.993934 233.716029 
L 164.232275 233.716029 
L 164.232275 229.445625 
L 165.470615 229.445625 
L 165.470615 224.141573 
L 166.708955 224.141573 
L 166.708955 220.797169 
L 167.947295 220.797169 
L 167.947295 219.019249 
L 169.185635 219.019249 
L 169.185635 217.531475 
L 170.423975 217.531475 
L 170.423975 216.022481 
L 171.662316 216.022481 
L 171.662316 215.218404 
L 174.138996 215.225349 
L 174.138996 215.911746 
L 175.377336 215.911746 
L 175.377336 216.737816 
L 176.615676 216.737816 
L 176.615676 215.417108 
L 177.854016 215.417108 
L 177.854016 213.782718 
L 179.092357 213.782718 
L 179.092357 212.439246 
L 180.330697 212.439246 
L 180.330697 209.826768 
L 181.569037 209.826768 
L 181.569037 207.924223 
L 182.807377 207.924223 
L 182.807377 205.243067 
L 184.045717 205.243067 
L 184.045717 203.24908 
L 185.284057 203.24908 
L 185.284057 200.214886 
L 186.522398 200.214886 
L 186.522398 196.664833 
L 187.760738 196.664833 
L 187.760738 215.356532 
L 188.999078 215.356532 
L 188.999078 222.577404 
L 190.237418 222.577404 
L 190.237418 217.957049 
L 191.475758 217.957049 
L 191.475758 213.896924 
L 192.714098 213.896924 
L 192.714098 209.296633 
L 193.952439 209.296633 
L 193.952439 201.593855 
L 195.190779 201.593855 
L 195.190779 191.232684 
L 196.429119 191.232684 
L 196.429119 156.734934 
L 197.667459 156.734934 
L 197.667459 132.399263 
L 198.905799 132.399263 
L 198.905799 119.592295 
L 200.144139 119.592295 
L 200.144139 109.948003 
L 201.38248 109.948003 
L 201.38248 105.706922 
L 202.62082 105.706922 
L 202.62082 100.944195 
L 203.85916 100.944195 
L 203.85916 99.497705 
L 205.0975 99.497705 
L 205.0975 98.96294 
L 206.33584 98.96294 
L 206.33584 100.06218 
L 207.57418 100.06218 
L 207.57418 101.742484 
L 208.81252 101.742484 
L 208.81252 101.962795 
L 210.050861 101.962795 
L 210.050861 105.640945 
L 211.289201 105.640945 
L 211.289201 110.10388 
L 212.527541 110.10388 
L 212.527541 115.270961 
L 213.765881 115.270961 
L 213.765881 124.483119 
L 215.004221 124.483119 
L 215.004221 135.438087 
L 216.242561 135.438087 
L 216.242561 144.111236 
L 217.480902 144.111236 
L 217.480902 150.408423 
L 218.719242 150.408423 
L 218.719242 152.304794 
L 219.957582 152.304794 
L 219.957582 156.790494 
L 221.195922 156.790494 
L 221.195922 160.969069 
L 222.434262 160.969069 
L 222.434262 162.571821 
L 223.672602 162.571821 
L 223.672602 162.841133 
L 224.910943 162.841133 
L 224.910943 164.495587 
L 226.149283 164.495587 
L 226.149283 167.742761 
L 227.387623 167.742761 
L 227.387623 170.535809 
L 228.625963 170.535809 
L 228.625963 172.374691 
L 229.864303 172.374691 
L 229.864303 175.553186 
L 231.102643 175.553186 
L 231.102643 180.624581 
L 232.340984 180.624581 
L 232.340984 185.122626 
L 233.579324 185.122626 
L 233.579324 189.01993 
L 234.817664 189.01993 
L 234.817664 189.823235 
L 236.056004 189.823235 
L 236.056004 190.594516 
L 237.294344 190.594516 
L 237.294344 194.344431 
L 238.532684 194.344431 
L 238.532684 198.009076 
L 239.771025 198.009076 
L 239.771025 201.45534 
L 241.009365 201.45534 
L 241.009365 202.693866 
L 242.247705 202.693866 
L 242.247705 203.876831 
L 243.486045 203.876831 
L 243.486045 204.447478 
L 244.724385 204.447478 
L 244.724385 203.569322 
L 245.962725 203.569322 
L 245.962725 197.71893 
L 247.201066 197.71893 
L 247.201066 190.294723 
L 248.439406 190.294723 
L 248.439406 178.884858 
L 249.677746 178.884858 
L 249.677746 164.87679 
L 250.916086 164.87679 
L 250.916086 150.073134 
L 252.154426 150.073134 
L 252.154426 137.802474 
L 253.392766 137.802474 
L 253.392766 131.949381 
L 254.631107 131.949381 
L 254.631107 126.760308 
L 255.869447 126.760308 
L 255.869447 123.178616 
L 257.107787 123.178616 
L 257.107787 123.725728 
L 258.346127 123.725728 
L 258.346127 129.364683 
L 259.584467 129.364683 
L 259.584467 135.69621 
L 260.822807 135.69621 
L 260.822807 116.791916 
L 262.061148 116.791916 
L 262.061148 121.647244 
L 263.299488 121.647244 
L 263.299488 131.961342 
L 264.537828 131.961342 
L 264.537828 143.699938 
L 265.776168 143.699938 
L 265.776168 153.735465 
L 267.014508 153.735465 
L 267.014508 164.026413 
L 268.252848 164.026413 
L 268.252848 173.602798 
L 269.491189 173.602798 
L 269.491189 207.741724 
L 270.729529 207.741724 
L 270.729529 211.858952 
L 271.967869 211.858952 
L 271.967869 224.281245 
L 273.206209 224.281245 
L 273.206209 224.524706 
L 274.444549 224.524706 
L 274.444549 226.013251 
L 275.682889 226.013251 
L 275.682889 224.559816 
L 276.92123 224.559816 
L 276.92123 225.253159 
L 279.39791 225.198371 
L 279.39791 224.761221 
L 280.63625 224.761221 
L 280.63625 218.238322 
L 281.87459 218.238322 
L 281.87459 223.361804 
L 283.11293 223.361804 
L 283.11293 228.05701 
L 284.35127 228.05701 
L 284.35127 235.425271 
L 285.589611 235.425271 
L 285.589611 241.274891 
L 286.827951 241.274891 
L 286.827951 244.690289 
L 288.066291 244.690289 
L 288.066291 246.976737 
L 289.304631 246.976737 
L 289.304631 249.379322 
L 290.542971 249.379322 
L 290.542971 252.051604 
L 291.781311 252.051604 
L 291.781311 253.698727 
L 293.019652 253.698727 
L 293.019652 254.951142 
L 294.257992 254.951142 
L 294.257992 256.897286 
L 295.496332 256.897286 
L 295.496332 256.897286 
" style="fill:none;stroke:#1f77b4;stroke-linecap:square;stroke-width:1.5;"/>
   </g>
   <g id="line2d_52">
    <path clip-path="url(#pb8211ad5a9)" d="M 295.496332 252.64 
L 353.69832 252.64 
L 353.69832 319.04 
L 543.164365 319.04 
L 543.164365 319.04 
" style="fill:none;stroke:#ff7f0e;stroke-linecap:square;stroke-width:1.5;"/>
   </g>
   <g id="patch_3">
    <path d="M 54.02 319.04 
L 54.02 26.88 
" style="fill:none;stroke:#000000;stroke-linecap:square;stroke-linejoin:miter;stroke-width:0.8;"/>
   </g>
   <g id="patch_4">
    <path d="M 356.175 319.04 
L 356.175 26.88 
" style="fill:none;stroke:#000000;stroke-linecap:square;stroke-linejoin:miter;stroke-width:0.8;"/>
   </g>
   <g id="patch_5">
    <path d="M 54.02 319.04 
L 356.175 319.04 
" style="fill:none;stroke:#000000;stroke-linecap:square;stroke-linejoin:miter;stroke-width:0.8;"/>
   </g>
   <g id="patch_6">
    <path d="M 54.02 26.88 
L 356.175 26.88 
" style="fill:none;stroke:#000000;stroke-linecap:square;stroke-linejoin:miter;stroke-width:0.8;"/>
   </g>
   <g id="text_28">
    <!-- NZ daily vaccinations per capita -->
    <g transform="translate(108.460937 20.88)scale(0.12 -0.12)">
     <defs>
      <path d="M 359 4666 
L 4025 4666 
L 4025 4184 
L 1075 531 
L 4097 531 
L 4097 0 
L 288 0 
L 288 481 
L 3238 4134 
L 359 4134 
L 359 4666 
z
" id="DejaVuSans-5a" transform="scale(0.015625)"/>
     </defs>
     <use xlink:href="#DejaVuSans-4e"/>
     <use x="74.804688" xlink:href="#DejaVuSans-5a"/>
     <use x="143.310547" xlink:href="#DejaVuSans-20"/>
     <use x="175.097656" xlink:href="#DejaVuSans-64"/>
     <use x="238.574219" xlink:href="#DejaVuSans-61"/>
     <use x="299.853516" xlink:href="#DejaVuSans-69"/>
     <use x="327.636719" xlink:href="#DejaVuSans-6c"/>
     <use x="355.419922" xlink:href="#DejaVuSans-79"/>
     <use x="414.599609" xlink:href="#DejaVuSans-20"/>
     <use x="446.386719" xlink:href="#DejaVuSans-76"/>
     <use x="505.566406" xlink:href="#DejaVuSans-61"/>
     <use x="566.845703" xlink:href="#DejaVuSans-63"/>
     <use x="621.826172" xlink:href="#DejaVuSans-63"/>
     <use x="676.806641" xlink:href="#DejaVuSans-69"/>
     <use x="704.589844" xlink:href="#DejaVuSans-6e"/>
     <use x="767.96875" xlink:href="#DejaVuSans-61"/>
     <use x="829.248047" xlink:href="#DejaVuSans-74"/>
     <use x="868.457031" xlink:href="#DejaVuSans-69"/>
     <use x="896.240234" xlink:href="#DejaVuSans-6f"/>
     <use x="957.421875" xlink:href="#DejaVuSans-6e"/>
     <use x="1020.800781" xlink:href="#DejaVuSans-73"/>
     <use x="1072.900391" xlink:href="#DejaVuSans-20"/>
     <use x="1104.6875" xlink:href="#DejaVuSans-70"/>
     <use x="1168.164062" xlink:href="#DejaVuSans-65"/>
     <use x="1229.6875" xlink:href="#DejaVuSans-72"/>
     <use x="1270.800781" xlink:href="#DejaVuSans-20"/>
     <use x="1302.587891" xlink:href="#DejaVuSans-63"/>
     <use x="1357.568359" xlink:href="#DejaVuSans-61"/>
     <use x="1418.847656" xlink:href="#DejaVuSans-70"/>
     <use x="1482.324219" xlink:href="#DejaVuSans-69"/>
     <use x="1510.107422" xlink:href="#DejaVuSans-74"/>
     <use x="1549.316406" xlink:href="#DejaVuSans-61"/>
    </g>
   </g>
   <g id="legend_1">
    <g id="patch_7">
     <path d="M 201.292187 64.23625 
L 349.175 64.23625 
Q 351.175 64.23625 351.175 62.23625 
L 351.175 33.88 
Q 351.175 31.88 349.175 31.88 
L 201.292187 31.88 
Q 199.292187 31.88 199.292187 33.88 
L 199.292187 62.23625 
Q 199.292187 64.23625 201.292187 64.23625 
z
" style="fill:#ffffff;opacity:0.8;stroke:#cccccc;stroke-linejoin:miter;"/>
    </g>
    <g id="line2d_53">
     <path d="M 203.292187 39.978437 
L 223.292187 39.978437 
" style="fill:none;stroke:#1f77b4;stroke-linecap:square;stroke-width:1.5;"/>
    </g>
    <g id="line2d_54"/>
    <g id="text_29">
     <!-- Actual -->
     <g transform="translate(231.292187 43.478437)scale(0.1 -0.1)">
      <use xlink:href="#DejaVuSans-41"/>
      <use x="66.658203" xlink:href="#DejaVuSans-63"/>
      <use x="121.638672" xlink:href="#DejaVuSans-74"/>
      <use x="160.847656" xlink:href="#DejaVuSans-75"/>
      <use x="224.226562" xlink:href="#DejaVuSans-61"/>
      <use x="285.505859" xlink:href="#DejaVuSans-6c"/>
     </g>
    </g>
    <g id="line2d_55">
     <path d="M 203.292187 54.656563 
L 223.292187 54.656563 
" style="fill:none;stroke:#ff7f0e;stroke-linecap:square;stroke-width:1.5;"/>
    </g>
    <g id="line2d_56"/>
    <g id="text_30">
     <!-- Assumed for projection -->
     <g transform="translate(231.292187 58.156563)scale(0.1 -0.1)">
      <defs>
       <path d="M 3328 2828 
Q 3544 3216 3844 3400 
Q 4144 3584 4550 3584 
Q 5097 3584 5394 3201 
Q 5691 2819 5691 2113 
L 5691 0 
L 5113 0 
L 5113 2094 
Q 5113 2597 4934 2840 
Q 4756 3084 4391 3084 
Q 3944 3084 3684 2787 
Q 3425 2491 3425 1978 
L 3425 0 
L 2847 0 
L 2847 2094 
Q 2847 2600 2669 2842 
Q 2491 3084 2119 3084 
Q 1678 3084 1418 2786 
Q 1159 2488 1159 1978 
L 1159 0 
L 581 0 
L 581 3500 
L 1159 3500 
L 1159 2956 
Q 1356 3278 1631 3431 
Q 1906 3584 2284 3584 
Q 2666 3584 2933 3390 
Q 3200 3197 3328 2828 
z
" id="DejaVuSans-6d" transform="scale(0.015625)"/>
       <path d="M 2375 4863 
L 2375 4384 
L 1825 4384 
Q 1516 4384 1395 4259 
Q 1275 4134 1275 3809 
L 1275 3500 
L 2222 3500 
L 2222 3053 
L 1275 3053 
L 1275 0 
L 697 0 
L 697 3053 
L 147 3053 
L 147 3500 
L 697 3500 
L 697 3744 
Q 697 4328 969 4595 
Q 1241 4863 1831 4863 
L 2375 4863 
z
" id="DejaVuSans-66" transform="scale(0.015625)"/>
       <path d="M 603 3500 
L 1178 3500 
L 1178 -63 
Q 1178 -731 923 -1031 
Q 669 -1331 103 -1331 
L -116 -1331 
L -116 -844 
L 38 -844 
Q 366 -844 484 -692 
Q 603 -541 603 -63 
L 603 3500 
z
M 603 4863 
L 1178 4863 
L 1178 4134 
L 603 4134 
L 603 4863 
z
" id="DejaVuSans-6a" transform="scale(0.015625)"/>
      </defs>
      <use xlink:href="#DejaVuSans-41"/>
      <use x="68.408203" xlink:href="#DejaVuSans-73"/>
      <use x="120.507812" xlink:href="#DejaVuSans-73"/>
      <use x="172.607422" xlink:href="#DejaVuSans-75"/>
      <use x="235.986328" xlink:href="#DejaVuSans-6d"/>
      <use x="333.398438" xlink:href="#DejaVuSans-65"/>
      <use x="394.921875" xlink:href="#DejaVuSans-64"/>
      <use x="458.398438" xlink:href="#DejaVuSans-20"/>
      <use x="490.185547" xlink:href="#DejaVuSans-66"/>
      <use x="525.390625" xlink:href="#DejaVuSans-6f"/>
      <use x="586.572266" xlink:href="#DejaVuSans-72"/>
      <use x="627.685547" xlink:href="#DejaVuSans-20"/>
      <use x="659.472656" xlink:href="#DejaVuSans-70"/>
      <use x="722.949219" xlink:href="#DejaVuSans-72"/>
      <use x="761.8125" xlink:href="#DejaVuSans-6f"/>
      <use x="822.994141" xlink:href="#DejaVuSans-6a"/>
      <use x="850.777344" xlink:href="#DejaVuSans-65"/>
      <use x="912.300781" xlink:href="#DejaVuSans-63"/>
      <use x="967.28125" xlink:href="#DejaVuSans-74"/>
      <use x="1006.490234" xlink:href="#DejaVuSans-69"/>
      <use x="1034.273438" xlink:href="#DejaVuSans-6f"/>
      <use x="1095.455078" xlink:href="#DejaVuSans-6e"/>
     </g>
    </g>
   </g>
  </g>
  <g id="axes_2">
   <g id="patch_8">
    <path d="M 407.045 319.04 
L 709.2 319.04 
L 709.2 26.88 
L 407.045 26.88 
z
" style="fill:#ffffff;"/>
   </g>
   <g id="matplotlib.axis_3">
    <g id="xtick_17">
     <g id="line2d_57">
      <path clip-path="url(#p2c070c48ca)" d="M 407.045 319.04 
L 407.045 26.88 
" style="fill:none;stroke:#000000;stroke-dasharray:0.8,1.32;stroke-dashoffset:0;stroke-opacity:0.5;stroke-width:0.8;"/>
     </g>
     <g id="line2d_58">
      <g>
       <use style="stroke:#000000;stroke-width:0.8;" x="407.045" xlink:href="#m30ba38e505" y="319.04"/>
      </g>
     </g>
     <g id="text_31">
      <!-- May -->
      <g transform="translate(396.7075 333.638438)scale(0.1 -0.1)">
       <use xlink:href="#DejaVuSans-4d"/>
       <use x="86.279297" xlink:href="#DejaVuSans-61"/>
       <use x="147.558594" xlink:href="#DejaVuSans-79"/>
      </g>
     </g>
    </g>
    <g id="xtick_18">
     <g id="line2d_59">
      <path clip-path="url(#p2c070c48ca)" d="M 424.381762 319.04 
L 424.381762 26.88 
" style="fill:none;stroke:#000000;stroke-dasharray:0.8,1.32;stroke-dashoffset:0;stroke-opacity:0.5;stroke-width:0.8;"/>
     </g>
     <g id="line2d_60">
      <g>
       <use style="stroke:#000000;stroke-width:0.8;" x="424.381762" xlink:href="#m30ba38e505" y="319.04"/>
      </g>
     </g>
     <g id="text_32">
      <!-- 15 -->
      <g transform="translate(418.019262 333.638438)scale(0.1 -0.1)">
       <use xlink:href="#DejaVuSans-31"/>
       <use x="63.623047" xlink:href="#DejaVuSans-35"/>
      </g>
     </g>
    </g>
    <g id="xtick_19">
     <g id="line2d_61">
      <path clip-path="url(#p2c070c48ca)" d="M 445.433545 319.04 
L 445.433545 26.88 
" style="fill:none;stroke:#000000;stroke-dasharray:0.8,1.32;stroke-dashoffset:0;stroke-opacity:0.5;stroke-width:0.8;"/>
     </g>
     <g id="line2d_62">
      <g>
       <use style="stroke:#000000;stroke-width:0.8;" x="445.433545" xlink:href="#m30ba38e505" y="319.04"/>
      </g>
     </g>
     <g id="text_33">
      <!-- Jun -->
      <g transform="translate(437.621045 333.638438)scale(0.1 -0.1)">
       <use xlink:href="#DejaVuSans-4a"/>
       <use x="29.492188" xlink:href="#DejaVuSans-75"/>
       <use x="92.871094" xlink:href="#DejaVuSans-6e"/>
      </g>
     </g>
    </g>
    <g id="xtick_20">
     <g id="line2d_63">
      <path clip-path="url(#p2c070c48ca)" d="M 462.770307 319.04 
L 462.770307 26.88 
" style="fill:none;stroke:#000000;stroke-dasharray:0.8,1.32;stroke-dashoffset:0;stroke-opacity:0.5;stroke-width:0.8;"/>
     </g>
     <g id="line2d_64">
      <g>
       <use style="stroke:#000000;stroke-width:0.8;" x="462.770307" xlink:href="#m30ba38e505" y="319.04"/>
      </g>
     </g>
     <g id="text_34">
      <!-- 15 -->
      <g transform="translate(456.407807 333.638438)scale(0.1 -0.1)">
       <use xlink:href="#DejaVuSans-31"/>
       <use x="63.623047" xlink:href="#DejaVuSans-35"/>
      </g>
     </g>
    </g>
    <g id="xtick_21">
     <g id="line2d_65">
      <path clip-path="url(#p2c070c48ca)" d="M 482.58375 319.04 
L 482.58375 26.88 
" style="fill:none;stroke:#000000;stroke-dasharray:0.8,1.32;stroke-dashoffset:0;stroke-opacity:0.5;stroke-width:0.8;"/>
     </g>
     <g id="line2d_66">
      <g>
       <use style="stroke:#000000;stroke-width:0.8;" x="482.58375" xlink:href="#m30ba38e505" y="319.04"/>
      </g>
     </g>
     <g id="text_35">
      <!-- Jul -->
      <g transform="translate(476.550938 333.638438)scale(0.1 -0.1)">
       <use xlink:href="#DejaVuSans-4a"/>
       <use x="29.492188" xlink:href="#DejaVuSans-75"/>
       <use x="92.871094" xlink:href="#DejaVuSans-6c"/>
      </g>
     </g>
    </g>
    <g id="xtick_22">
     <g id="line2d_67">
      <path clip-path="url(#p2c070c48ca)" d="M 499.920512 319.04 
L 499.920512 26.88 
" style="fill:none;stroke:#000000;stroke-dasharray:0.8,1.32;stroke-dashoffset:0;stroke-opacity:0.5;stroke-width:0.8;"/>
     </g>
     <g id="line2d_68">
      <g>
       <use style="stroke:#000000;stroke-width:0.8;" x="499.920512" xlink:href="#m30ba38e505" y="319.04"/>
      </g>
     </g>
     <g id="text_36">
      <!-- 15 -->
      <g transform="translate(493.558012 333.638438)scale(0.1 -0.1)">
       <use xlink:href="#DejaVuSans-31"/>
       <use x="63.623047" xlink:href="#DejaVuSans-35"/>
      </g>
     </g>
    </g>
    <g id="xtick_23">
     <g id="line2d_69">
      <path clip-path="url(#p2c070c48ca)" d="M 520.972295 319.04 
L 520.972295 26.88 
" style="fill:none;stroke:#000000;stroke-dasharray:0.8,1.32;stroke-dashoffset:0;stroke-opacity:0.5;stroke-width:0.8;"/>
     </g>
     <g id="line2d_70">
      <g>
       <use style="stroke:#000000;stroke-width:0.8;" x="520.972295" xlink:href="#m30ba38e505" y="319.04"/>
      </g>
     </g>
     <g id="text_37">
      <!-- Aug -->
      <g transform="translate(511.209014 333.638438)scale(0.1 -0.1)">
       <use xlink:href="#DejaVuSans-41"/>
       <use x="68.408203" xlink:href="#DejaVuSans-75"/>
       <use x="131.787109" xlink:href="#DejaVuSans-67"/>
      </g>
     </g>
    </g>
    <g id="xtick_24">
     <g id="line2d_71">
      <path clip-path="url(#p2c070c48ca)" d="M 538.309057 319.04 
L 538.309057 26.88 
" style="fill:none;stroke:#000000;stroke-dasharray:0.8,1.32;stroke-dashoffset:0;stroke-opacity:0.5;stroke-width:0.8;"/>
     </g>
     <g id="line2d_72">
      <g>
       <use style="stroke:#000000;stroke-width:0.8;" x="538.309057" xlink:href="#m30ba38e505" y="319.04"/>
      </g>
     </g>
     <g id="text_38">
      <!-- 15 -->
      <g transform="translate(531.946557 333.638438)scale(0.1 -0.1)">
       <use xlink:href="#DejaVuSans-31"/>
       <use x="63.623047" xlink:href="#DejaVuSans-35"/>
      </g>
     </g>
    </g>
    <g id="xtick_25">
     <g id="line2d_73">
      <path clip-path="url(#p2c070c48ca)" d="M 559.36084 319.04 
L 559.36084 26.88 
" style="fill:none;stroke:#000000;stroke-dasharray:0.8,1.32;stroke-dashoffset:0;stroke-opacity:0.5;stroke-width:0.8;"/>
     </g>
     <g id="line2d_74">
      <g>
       <use style="stroke:#000000;stroke-width:0.8;" x="559.36084" xlink:href="#m30ba38e505" y="319.04"/>
      </g>
     </g>
     <g id="text_39">
      <!-- Sep -->
      <g transform="translate(549.93584 333.638438)scale(0.1 -0.1)">
       <use xlink:href="#DejaVuSans-53"/>
       <use x="63.476562" xlink:href="#DejaVuSans-65"/>
       <use x="125" xlink:href="#DejaVuSans-70"/>
      </g>
     </g>
    </g>
    <g id="xtick_26">
     <g id="line2d_75">
      <path clip-path="url(#p2c070c48ca)" d="M 576.697602 319.04 
L 576.697602 26.88 
" style="fill:none;stroke:#000000;stroke-dasharray:0.8,1.32;stroke-dashoffset:0;stroke-opacity:0.5;stroke-width:0.8;"/>
     </g>
     <g id="line2d_76">
      <g>
       <use style="stroke:#000000;stroke-width:0.8;" x="576.697602" xlink:href="#m30ba38e505" y="319.04"/>
      </g>
     </g>
     <g id="text_40">
      <!-- 15 -->
      <g transform="translate(570.335102 333.638438)scale(0.1 -0.1)">
       <use xlink:href="#DejaVuSans-31"/>
       <use x="63.623047" xlink:href="#DejaVuSans-35"/>
      </g>
     </g>
    </g>
    <g id="xtick_27">
     <g id="line2d_77">
      <path clip-path="url(#p2c070c48ca)" d="M 596.511045 319.04 
L 596.511045 26.88 
" style="fill:none;stroke:#000000;stroke-dasharray:0.8,1.32;stroke-dashoffset:0;stroke-opacity:0.5;stroke-width:0.8;"/>
     </g>
     <g id="line2d_78">
      <g>
       <use style="stroke:#000000;stroke-width:0.8;" x="596.511045" xlink:href="#m30ba38e505" y="319.04"/>
      </g>
     </g>
     <g id="text_41">
      <!-- Oct -->
      <g transform="translate(587.865733 333.638438)scale(0.1 -0.1)">
       <use xlink:href="#DejaVuSans-4f"/>
       <use x="78.710938" xlink:href="#DejaVuSans-63"/>
       <use x="133.691406" xlink:href="#DejaVuSans-74"/>
      </g>
     </g>
    </g>
    <g id="xtick_28">
     <g id="line2d_79">
      <path clip-path="url(#p2c070c48ca)" d="M 613.847807 319.04 
L 613.847807 26.88 
" style="fill:none;stroke:#000000;stroke-dasharray:0.8,1.32;stroke-dashoffset:0;stroke-opacity:0.5;stroke-width:0.8;"/>
     </g>
     <g id="line2d_80">
      <g>
       <use style="stroke:#000000;stroke-width:0.8;" x="613.847807" xlink:href="#m30ba38e505" y="319.04"/>
      </g>
     </g>
     <g id="text_42">
      <!-- 15 -->
      <g transform="translate(607.485307 333.638438)scale(0.1 -0.1)">
       <use xlink:href="#DejaVuSans-31"/>
       <use x="63.623047" xlink:href="#DejaVuSans-35"/>
      </g>
     </g>
    </g>
    <g id="xtick_29">
     <g id="line2d_81">
      <path clip-path="url(#p2c070c48ca)" d="M 634.89959 319.04 
L 634.89959 26.88 
" style="fill:none;stroke:#000000;stroke-dasharray:0.8,1.32;stroke-dashoffset:0;stroke-opacity:0.5;stroke-width:0.8;"/>
     </g>
     <g id="line2d_82">
      <g>
       <use style="stroke:#000000;stroke-width:0.8;" x="634.89959" xlink:href="#m30ba38e505" y="319.04"/>
      </g>
     </g>
     <g id="text_43">
      <!-- Nov -->
      <g transform="translate(625.140215 333.638438)scale(0.1 -0.1)">
       <use xlink:href="#DejaVuSans-4e"/>
       <use x="74.804688" xlink:href="#DejaVuSans-6f"/>
       <use x="135.986328" xlink:href="#DejaVuSans-76"/>
      </g>
     </g>
    </g>
    <g id="xtick_30">
     <g id="line2d_83">
      <path clip-path="url(#p2c070c48ca)" d="M 652.236352 319.04 
L 652.236352 26.88 
" style="fill:none;stroke:#000000;stroke-dasharray:0.8,1.32;stroke-dashoffset:0;stroke-opacity:0.5;stroke-width:0.8;"/>
     </g>
     <g id="line2d_84">
      <g>
       <use style="stroke:#000000;stroke-width:0.8;" x="652.236352" xlink:href="#m30ba38e505" y="319.04"/>
      </g>
     </g>
     <g id="text_44">
      <!-- 15 -->
      <g transform="translate(645.873852 333.638438)scale(0.1 -0.1)">
       <use xlink:href="#DejaVuSans-31"/>
       <use x="63.623047" xlink:href="#DejaVuSans-35"/>
      </g>
     </g>
    </g>
    <g id="xtick_31">
     <g id="line2d_85">
      <path clip-path="url(#p2c070c48ca)" d="M 672.049795 319.04 
L 672.049795 26.88 
" style="fill:none;stroke:#000000;stroke-dasharray:0.8,1.32;stroke-dashoffset:0;stroke-opacity:0.5;stroke-width:0.8;"/>
     </g>
     <g id="line2d_86">
      <g>
       <use style="stroke:#000000;stroke-width:0.8;" x="672.049795" xlink:href="#m30ba38e505" y="319.04"/>
      </g>
     </g>
     <g id="text_45">
      <!-- Dec -->
      <g transform="translate(662.374014 333.638438)scale(0.1 -0.1)">
       <use xlink:href="#DejaVuSans-44"/>
       <use x="77.001953" xlink:href="#DejaVuSans-65"/>
       <use x="138.525391" xlink:href="#DejaVuSans-63"/>
      </g>
     </g>
    </g>
    <g id="xtick_32">
     <g id="line2d_87">
      <path clip-path="url(#p2c070c48ca)" d="M 689.386557 319.04 
L 689.386557 26.88 
" style="fill:none;stroke:#000000;stroke-dasharray:0.8,1.32;stroke-dashoffset:0;stroke-opacity:0.5;stroke-width:0.8;"/>
     </g>
     <g id="line2d_88">
      <g>
       <use style="stroke:#000000;stroke-width:0.8;" x="689.386557" xlink:href="#m30ba38e505" y="319.04"/>
      </g>
     </g>
     <g id="text_46">
      <!-- 15 -->
      <g transform="translate(683.024057 333.638438)scale(0.1 -0.1)">
       <use xlink:href="#DejaVuSans-31"/>
       <use x="63.623047" xlink:href="#DejaVuSans-35"/>
      </g>
     </g>
    </g>
    <g id="text_47">
     <!-- 2021-Dec -->
     <g transform="translate(660.790625 346.316563)scale(0.1 -0.1)">
      <use xlink:href="#DejaVuSans-32"/>
      <use x="63.623047" xlink:href="#DejaVuSans-30"/>
      <use x="127.246094" xlink:href="#DejaVuSans-32"/>
      <use x="190.869141" xlink:href="#DejaVuSans-31"/>
      <use x="254.492188" xlink:href="#DejaVuSans-2d"/>
      <use x="290.576172" xlink:href="#DejaVuSans-44"/>
      <use x="367.578125" xlink:href="#DejaVuSans-65"/>
      <use x="429.101562" xlink:href="#DejaVuSans-63"/>
     </g>
    </g>
   </g>
   <g id="matplotlib.axis_4">
    <g id="ytick_10">
     <g id="line2d_89">
      <path clip-path="url(#p2c070c48ca)" d="M 407.045 319.04 
L 709.2 319.04 
" style="fill:none;stroke:#000000;stroke-dasharray:0.8,1.32;stroke-dashoffset:0;stroke-opacity:0.5;stroke-width:0.8;"/>
     </g>
     <g id="line2d_90">
      <g>
       <use style="stroke:#000000;stroke-width:0.8;" x="407.045" xlink:href="#ma6c96a68d8" y="319.04"/>
      </g>
     </g>
     <g id="text_48">
      <!-- 0 -->
      <g transform="translate(393.6825 322.839219)scale(0.1 -0.1)">
       <use xlink:href="#DejaVuSans-30"/>
      </g>
     </g>
    </g>
    <g id="ytick_11">
     <g id="line2d_91">
      <path clip-path="url(#p2c070c48ca)" d="M 407.045 282.52 
L 709.2 282.52 
" style="fill:none;stroke:#000000;stroke-dasharray:0.8,1.32;stroke-dashoffset:0;stroke-opacity:0.5;stroke-width:0.8;"/>
     </g>
     <g id="line2d_92">
      <g>
       <use style="stroke:#000000;stroke-width:0.8;" x="407.045" xlink:href="#ma6c96a68d8" y="282.52"/>
      </g>
     </g>
     <g id="text_49">
      <!-- 25 -->
      <g transform="translate(387.32 286.319219)scale(0.1 -0.1)">
       <use xlink:href="#DejaVuSans-32"/>
       <use x="63.623047" xlink:href="#DejaVuSans-35"/>
      </g>
     </g>
    </g>
    <g id="ytick_12">
     <g id="line2d_93">
      <path clip-path="url(#p2c070c48ca)" d="M 407.045 246 
L 709.2 246 
" style="fill:none;stroke:#000000;stroke-dasharray:0.8,1.32;stroke-dashoffset:0;stroke-opacity:0.5;stroke-width:0.8;"/>
     </g>
     <g id="line2d_94">
      <g>
       <use style="stroke:#000000;stroke-width:0.8;" x="407.045" xlink:href="#ma6c96a68d8" y="246"/>
      </g>
     </g>
     <g id="text_50">
      <!-- 50 -->
      <g transform="translate(387.32 249.799219)scale(0.1 -0.1)">
       <use xlink:href="#DejaVuSans-35"/>
       <use x="63.623047" xlink:href="#DejaVuSans-30"/>
      </g>
     </g>
    </g>
    <g id="ytick_13">
     <g id="line2d_95">
      <path clip-path="url(#p2c070c48ca)" d="M 407.045 209.48 
L 709.2 209.48 
" style="fill:none;stroke:#000000;stroke-dasharray:0.8,1.32;stroke-dashoffset:0;stroke-opacity:0.5;stroke-width:0.8;"/>
     </g>
     <g id="line2d_96">
      <g>
       <use style="stroke:#000000;stroke-width:0.8;" x="407.045" xlink:href="#ma6c96a68d8" y="209.48"/>
      </g>
     </g>
     <g id="text_51">
      <!-- 75 -->
      <g transform="translate(387.32 213.279219)scale(0.1 -0.1)">
       <use xlink:href="#DejaVuSans-37"/>
       <use x="63.623047" xlink:href="#DejaVuSans-35"/>
      </g>
     </g>
    </g>
    <g id="ytick_14">
     <g id="line2d_97">
      <path clip-path="url(#p2c070c48ca)" d="M 407.045 172.96 
L 709.2 172.96 
" style="fill:none;stroke:#000000;stroke-dasharray:0.8,1.32;stroke-dashoffset:0;stroke-opacity:0.5;stroke-width:0.8;"/>
     </g>
     <g id="line2d_98">
      <g>
       <use style="stroke:#000000;stroke-width:0.8;" x="407.045" xlink:href="#ma6c96a68d8" y="172.96"/>
      </g>
     </g>
     <g id="text_52">
      <!-- 100 -->
      <g transform="translate(380.9575 176.759219)scale(0.1 -0.1)">
       <use xlink:href="#DejaVuSans-31"/>
       <use x="63.623047" xlink:href="#DejaVuSans-30"/>
       <use x="127.246094" xlink:href="#DejaVuSans-30"/>
      </g>
     </g>
    </g>
    <g id="ytick_15">
     <g id="line2d_99">
      <path clip-path="url(#p2c070c48ca)" d="M 407.045 136.44 
L 709.2 136.44 
" style="fill:none;stroke:#000000;stroke-dasharray:0.8,1.32;stroke-dashoffset:0;stroke-opacity:0.5;stroke-width:0.8;"/>
     </g>
     <g id="line2d_100">
      <g>
       <use style="stroke:#000000;stroke-width:0.8;" x="407.045" xlink:href="#ma6c96a68d8" y="136.44"/>
      </g>
     </g>
     <g id="text_53">
      <!-- 125 -->
      <g transform="translate(380.9575 140.239219)scale(0.1 -0.1)">
       <use xlink:href="#DejaVuSans-31"/>
       <use x="63.623047" xlink:href="#DejaVuSans-32"/>
       <use x="127.246094" xlink:href="#DejaVuSans-35"/>
      </g>
     </g>
    </g>
    <g id="ytick_16">
     <g id="line2d_101">
      <path clip-path="url(#p2c070c48ca)" d="M 407.045 99.92 
L 709.2 99.92 
" style="fill:none;stroke:#000000;stroke-dasharray:0.8,1.32;stroke-dashoffset:0;stroke-opacity:0.5;stroke-width:0.8;"/>
     </g>
     <g id="line2d_102">
      <g>
       <use style="stroke:#000000;stroke-width:0.8;" x="407.045" xlink:href="#ma6c96a68d8" y="99.92"/>
      </g>
     </g>
     <g id="text_54">
      <!-- 150 -->
      <g transform="translate(380.9575 103.719219)scale(0.1 -0.1)">
       <use xlink:href="#DejaVuSans-31"/>
       <use x="63.623047" xlink:href="#DejaVuSans-35"/>
       <use x="127.246094" xlink:href="#DejaVuSans-30"/>
      </g>
     </g>
    </g>
    <g id="ytick_17">
     <g id="line2d_103">
      <path clip-path="url(#p2c070c48ca)" d="M 407.045 63.4 
L 709.2 63.4 
" style="fill:none;stroke:#000000;stroke-dasharray:0.8,1.32;stroke-dashoffset:0;stroke-opacity:0.5;stroke-width:0.8;"/>
     </g>
     <g id="line2d_104">
      <g>
       <use style="stroke:#000000;stroke-width:0.8;" x="407.045" xlink:href="#ma6c96a68d8" y="63.4"/>
      </g>
     </g>
     <g id="text_55">
      <!-- 175 -->
      <g transform="translate(380.9575 67.199219)scale(0.1 -0.1)">
       <use xlink:href="#DejaVuSans-31"/>
       <use x="63.623047" xlink:href="#DejaVuSans-37"/>
       <use x="127.246094" xlink:href="#DejaVuSans-35"/>
      </g>
     </g>
    </g>
    <g id="ytick_18">
     <g id="line2d_105">
      <path clip-path="url(#p2c070c48ca)" d="M 407.045 26.88 
L 709.2 26.88 
" style="fill:none;stroke:#000000;stroke-dasharray:0.8,1.32;stroke-dashoffset:0;stroke-opacity:0.5;stroke-width:0.8;"/>
     </g>
     <g id="line2d_106">
      <g>
       <use style="stroke:#000000;stroke-width:0.8;" x="407.045" xlink:href="#ma6c96a68d8" y="26.88"/>
      </g>
     </g>
     <g id="text_56">
      <!-- 200 -->
      <g transform="translate(380.9575 30.679219)scale(0.1 -0.1)">
       <use xlink:href="#DejaVuSans-32"/>
       <use x="63.623047" xlink:href="#DejaVuSans-30"/>
       <use x="127.246094" xlink:href="#DejaVuSans-30"/>
      </g>
     </g>
    </g>
    <g id="text_57">
     <!-- cumulative doses per hundred population -->
     <g transform="translate(374.877813 277.418594)rotate(-90)scale(0.1 -0.1)">
      <use xlink:href="#DejaVuSans-63"/>
      <use x="54.980469" xlink:href="#DejaVuSans-75"/>
      <use x="118.359375" xlink:href="#DejaVuSans-6d"/>
      <use x="215.771484" xlink:href="#DejaVuSans-75"/>
      <use x="279.150391" xlink:href="#DejaVuSans-6c"/>
      <use x="306.933594" xlink:href="#DejaVuSans-61"/>
      <use x="368.212891" xlink:href="#DejaVuSans-74"/>
      <use x="407.421875" xlink:href="#DejaVuSans-69"/>
      <use x="435.205078" xlink:href="#DejaVuSans-76"/>
      <use x="494.384766" xlink:href="#DejaVuSans-65"/>
      <use x="555.908203" xlink:href="#DejaVuSans-20"/>
      <use x="587.695312" xlink:href="#DejaVuSans-64"/>
      <use x="651.171875" xlink:href="#DejaVuSans-6f"/>
      <use x="712.353516" xlink:href="#DejaVuSans-73"/>
      <use x="764.453125" xlink:href="#DejaVuSans-65"/>
      <use x="825.976562" xlink:href="#DejaVuSans-73"/>
      <use x="878.076172" xlink:href="#DejaVuSans-20"/>
      <use x="909.863281" xlink:href="#DejaVuSans-70"/>
      <use x="973.339844" xlink:href="#DejaVuSans-65"/>
      <use x="1034.863281" xlink:href="#DejaVuSans-72"/>
      <use x="1075.976562" xlink:href="#DejaVuSans-20"/>
      <use x="1107.763672" xlink:href="#DejaVuSans-68"/>
      <use x="1171.142578" xlink:href="#DejaVuSans-75"/>
      <use x="1234.521484" xlink:href="#DejaVuSans-6e"/>
      <use x="1297.900391" xlink:href="#DejaVuSans-64"/>
      <use x="1361.376953" xlink:href="#DejaVuSans-72"/>
      <use x="1400.240234" xlink:href="#DejaVuSans-65"/>
      <use x="1461.763672" xlink:href="#DejaVuSans-64"/>
      <use x="1525.240234" xlink:href="#DejaVuSans-20"/>
      <use x="1557.027344" xlink:href="#DejaVuSans-70"/>
      <use x="1620.503906" xlink:href="#DejaVuSans-6f"/>
      <use x="1681.685547" xlink:href="#DejaVuSans-70"/>
      <use x="1745.162109" xlink:href="#DejaVuSans-75"/>
      <use x="1808.541016" xlink:href="#DejaVuSans-6c"/>
      <use x="1836.324219" xlink:href="#DejaVuSans-61"/>
      <use x="1897.603516" xlink:href="#DejaVuSans-74"/>
      <use x="1936.8125" xlink:href="#DejaVuSans-69"/>
      <use x="1964.595703" xlink:href="#DejaVuSans-6f"/>
      <use x="2025.777344" xlink:href="#DejaVuSans-6e"/>
     </g>
    </g>
   </g>
   <g id="line2d_107">
    <path clip-path="url(#p2c070c48ca)" d="M 317.884508 319.03997 
L 317.884508 319.039109 
L 326.552889 318.954438 
L 326.552889 318.906784 
L 331.50625 318.79888 
L 331.50625 318.754614 
L 335.22127 318.647185 
L 335.22127 318.609158 
L 341.412971 318.501848 
L 341.412971 318.462721 
L 347.604672 318.352025 
L 347.604672 318.296142 
L 350.081352 318.23194 
L 350.081352 318.172284 
L 352.558033 318.110816 
L 352.558033 318.037613 
L 356.273053 317.952674 
L 356.273053 317.885828 
L 358.749734 317.805792 
L 358.749734 317.700116 
L 361.226414 317.600442 
L 361.226414 317.461908 
L 364.941434 317.36675 
L 364.941434 317.220283 
L 366.179775 317.220283 
L 366.179775 317.051862 
L 367.418115 317.051862 
L 367.418115 316.850018 
L 368.656455 316.850018 
L 368.656455 316.658364 
L 371.133135 316.598352 
L 371.133135 316.54639 
L 374.848156 316.481951 
L 374.848156 316.334594 
L 376.086496 316.334594 
L 376.086496 316.118727 
L 377.324836 316.118727 
L 377.324836 315.874161 
L 378.563176 315.874161 
L 378.563176 315.655828 
L 379.801516 315.655828 
L 379.801516 315.53821 
L 382.278197 315.432475 
L 382.278197 315.201694 
L 383.516537 315.201694 
L 383.516537 314.951037 
L 384.754877 314.951037 
L 384.754877 314.708967 
L 385.993217 314.708967 
L 385.993217 314.449517 
L 387.231557 314.449517 
L 387.231557 314.167785 
L 388.469898 314.167785 
L 388.469898 314.017872 
L 390.946578 313.956464 
L 390.946578 313.744607 
L 392.184918 313.744607 
L 392.184918 313.47467 
L 393.423258 313.47467 
L 393.423258 313.172231 
L 394.661598 313.172231 
L 394.661598 312.863017 
L 395.899939 312.863017 
L 395.899939 312.515866 
L 397.138279 312.515866 
L 397.138279 312.37754 
L 399.614959 312.306832 
L 399.614959 312.239927 
L 400.853299 312.239927 
L 400.853299 311.942538 
L 402.091639 311.942538 
L 402.091639 311.616747 
L 403.32998 311.616747 
L 403.32998 311.245917 
L 404.56832 311.245917 
L 404.56832 310.847696 
L 405.80666 310.847696 
L 405.80666 310.68483 
L 408.28334 310.579689 
L 408.28334 310.260702 
L 409.52168 310.260702 
L 409.52168 309.855647 
L 410.76002 309.855647 
L 410.76002 309.41711 
L 411.998361 309.41711 
L 411.998361 308.9707 
L 413.236701 308.9707 
L 413.236701 308.469328 
L 414.475041 308.469328 
L 414.475041 308.254204 
L 416.951721 308.154856 
L 416.951721 307.798525 
L 418.190061 307.798525 
L 418.190061 307.349292 
L 419.428402 307.349292 
L 419.428402 306.895098 
L 420.666742 306.895098 
L 420.666742 306.426258 
L 421.905082 306.426258 
L 421.905082 305.948831 
L 423.143422 305.948831 
L 423.143422 305.763654 
L 424.381762 305.763654 
L 424.381762 305.638579 
L 425.620102 305.638579 
L 425.620102 305.310173 
L 426.858443 305.310173 
L 426.858443 304.870864 
L 428.096783 304.870864 
L 428.096783 304.411887 
L 429.335123 304.411887 
L 429.335123 303.952078 
L 430.573463 303.952078 
L 430.573463 303.489655 
L 431.811803 303.489655 
L 431.811803 303.252962 
L 433.050143 303.252962 
L 433.050143 303.139889 
L 434.288484 303.139889 
L 434.288484 302.754026 
L 435.526824 302.754026 
L 435.526824 302.239998 
L 436.765164 302.239998 
L 436.765164 301.68405 
L 438.003504 301.68405 
L 438.003504 301.182827 
L 439.241844 301.182827 
L 439.241844 300.568114 
L 440.480184 300.568114 
L 440.480184 300.264041 
L 441.718525 300.264041 
L 441.718525 300.109434 
L 442.956865 300.109434 
L 442.956865 299.679513 
L 444.195205 299.679513 
L 444.195205 299.087617 
L 445.433545 299.087617 
L 445.433545 298.464794 
L 446.671885 298.464794 
L 446.671885 297.776343 
L 447.910225 297.776343 
L 447.910225 297.168791 
L 449.148566 297.168791 
L 449.148566 296.885009 
L 450.386906 296.885009 
L 450.386906 296.730075 
L 451.625246 296.730075 
L 451.625246 296.572379 
L 452.863586 296.572379 
L 452.863586 295.923234 
L 454.101926 295.923234 
L 454.101926 295.583777 
L 455.340266 295.583777 
L 455.340266 294.888374 
L 456.578607 294.888374 
L 456.578607 294.247844 
L 457.816947 294.247844 
L 457.816947 293.893057 
L 459.055287 293.893057 
L 459.055287 293.676062 
L 460.293627 293.676062 
L 460.293627 293.143673 
L 461.531967 293.143673 
L 461.531967 292.483209 
L 462.770307 292.483209 
L 462.770307 291.75777 
L 464.008648 291.75777 
L 464.008648 291.065843 
L 465.246988 291.065843 
L 465.246988 290.447477 
L 466.485328 290.447477 
L 466.485328 290.082678 
L 467.723668 290.082678 
L 467.723668 289.865474 
L 468.962008 289.865474 
L 468.962008 289.345326 
L 470.200348 289.345326 
L 470.200348 288.669947 
L 471.438689 288.669947 
L 471.438689 287.927248 
L 472.677029 287.927248 
L 472.677029 287.201334 
L 473.915369 287.201334 
L 473.915369 286.555635 
L 475.153709 286.555635 
L 475.153709 286.12093 
L 476.392049 286.12093 
L 476.392049 285.912015 
L 477.630389 285.912015 
L 477.630389 285.42529 
L 478.86873 285.42529 
L 478.86873 284.802437 
L 480.10707 284.802437 
L 480.10707 284.122542 
L 481.34541 284.122542 
L 481.34541 283.440598 
L 482.58375 283.440598 
L 482.58375 282.844038 
L 483.82209 282.844038 
L 483.82209 282.466434 
L 485.06043 282.466434 
L 485.06043 282.275969 
L 486.29877 282.275969 
L 486.29877 281.808109 
L 487.537111 281.808109 
L 487.537111 281.186504 
L 488.775451 281.186504 
L 488.775451 280.498826 
L 490.013791 280.498826 
L 490.013791 279.767653 
L 491.252131 279.767653 
L 491.252131 279.125876 
L 492.490471 279.125876 
L 492.490471 278.656322 
L 493.728811 278.656322 
L 493.728811 278.429522 
L 494.967152 278.429522 
L 494.967152 277.902392 
L 496.205492 277.902392 
L 496.205492 277.23248 
L 497.443832 277.23248 
L 497.443832 276.493791 
L 498.682172 276.493791 
L 498.682172 275.787664 
L 499.920512 275.787664 
L 499.920512 275.138489 
L 501.158852 275.138489 
L 501.158852 274.647456 
L 502.397193 274.647456 
L 502.397193 274.388718 
L 503.635533 274.388718 
L 503.635533 273.725045 
L 504.873873 273.725045 
L 504.873873 272.813449 
L 506.112213 272.813449 
L 506.112213 271.803723 
L 507.350553 271.803723 
L 507.350553 270.842632 
L 508.588893 270.842632 
L 508.588893 269.919924 
L 509.827234 269.919924 
L 509.827234 269.182186 
L 511.065574 269.182186 
L 511.065574 268.766911 
L 512.303914 268.766911 
L 512.303914 267.860009 
L 513.542254 267.860009 
L 513.542254 266.702094 
L 514.780594 266.702094 
L 514.780594 265.467173 
L 516.018934 265.467173 
L 516.018934 264.272686 
L 517.257275 264.272686 
L 517.257275 263.021157 
L 518.495615 263.021157 
L 518.495615 261.875007 
L 519.733955 261.875007 
L 519.733955 261.202213 
L 520.972295 261.202213 
L 520.972295 260.158411 
L 522.210635 260.158411 
L 522.210635 258.885938 
L 523.448975 258.885938 
L 523.448975 257.534824 
L 524.687316 257.534824 
L 524.687316 256.278423 
L 525.925656 256.278423 
L 525.925656 255.027429 
L 527.163996 255.027429 
L 527.163996 253.934132 
L 528.402336 253.934132 
L 528.402336 253.324945 
L 529.640676 253.324945 
L 529.640676 252.179448 
L 530.879016 252.179448 
L 530.879016 250.781127 
L 532.117357 250.781127 
L 532.117357 249.326566 
L 533.355697 249.326566 
L 533.355697 247.869004 
L 534.594037 247.869004 
L 534.594037 246.471514 
L 535.832377 246.471514 
L 535.832377 245.171768 
L 537.070717 245.171768 
L 537.070717 244.409044 
L 538.309057 244.409044 
L 538.309057 243.029915 
L 539.547398 243.029915 
L 539.547398 241.358239 
L 542.024078 241.342939 
L 542.024078 240.441384 
L 543.262418 240.441384 
L 543.262418 238.688127 
L 544.500758 238.688127 
L 544.500758 237.075751 
L 545.739098 237.075751 
L 545.739098 235.958805 
L 546.977439 235.958805 
L 546.977439 233.986561 
L 548.215779 233.986561 
L 548.215779 231.517076 
L 549.454119 231.517076 
L 549.454119 228.845449 
L 550.692459 228.845449 
L 550.692459 226.070047 
L 551.930799 226.070047 
L 551.930799 223.330654 
L 553.169139 223.330654 
L 553.169139 220.975667 
L 554.40748 220.975667 
L 554.40748 219.532158 
L 555.64582 219.532158 
L 555.64582 217.193184 
L 556.88416 217.193184 
L 556.88416 214.612319 
L 558.1225 214.612319 
L 558.1225 211.899515 
L 559.36084 211.899515 
L 559.36084 209.208755 
L 560.59918 209.208755 
L 560.59918 206.598745 
L 561.83752 206.598745 
L 561.83752 204.260722 
L 563.075861 204.260722 
L 563.075861 203.100431 
L 564.314201 203.100431 
L 564.314201 201.105103 
L 565.552541 201.105103 
L 565.552541 198.922103 
L 566.790881 198.922103 
L 566.790881 196.918635 
L 568.029221 196.918635 
L 568.029221 195.071408 
L 569.267561 195.071408 
L 569.267561 193.12923 
L 570.505902 193.12923 
L 570.505902 191.276091 
L 571.744242 191.276091 
L 571.744242 190.26182 
L 572.982582 190.26182 
L 572.982582 188.611891 
L 574.220922 188.611891 
L 574.220922 186.750641 
L 575.459262 186.750641 
L 575.459262 184.870585 
L 576.697602 184.870585 
L 576.697602 183.044095 
L 577.935943 183.044095 
L 577.935943 181.22931 
L 579.174283 181.22931 
L 579.174283 179.626203 
L 580.412623 179.626203 
L 580.412623 178.826997 
L 581.650963 178.826997 
L 581.650963 177.318662 
L 582.889303 177.318662 
L 582.889303 175.702157 
L 584.127643 175.702157 
L 584.127643 174.212598 
L 585.365984 174.212598 
L 585.365984 172.732457 
L 586.604324 172.732457 
L 586.604324 171.217765 
L 587.842664 171.217765 
L 587.842664 169.676513 
L 589.081004 169.676513 
L 589.081004 168.936695 
L 590.319344 168.936695 
L 590.319344 167.717104 
L 591.557684 167.717104 
L 591.557684 166.382775 
L 592.796025 166.382775 
L 592.796025 165.158579 
L 594.034365 165.158579 
L 594.034365 163.773805 
L 595.272705 163.773805 
L 595.272705 162.350201 
L 596.511045 162.350201 
L 596.511045 160.852888 
L 597.749385 160.852888 
L 597.749385 160.045453 
L 598.987725 160.045453 
L 598.987725 158.375381 
L 600.226066 158.375381 
L 600.226066 156.469389 
L 601.464406 156.469389 
L 601.464406 154.366633 
L 602.702746 154.366633 
L 602.702746 151.903238 
L 603.941086 151.903238 
L 603.941086 149.339752 
L 605.179426 149.339752 
L 605.179426 146.897599 
L 606.417766 146.897599 
L 606.417766 145.639475 
L 607.656107 145.639475 
L 607.656107 143.569845 
L 608.894447 143.569845 
L 608.894447 141.388063 
L 610.132787 141.388063 
L 610.132787 139.327434 
L 611.371127 139.327434 
L 611.371127 137.298239 
L 612.609467 137.298239 
L 612.609467 135.22228 
L 613.847807 135.22228 
L 613.847807 131.324496 
L 615.086148 131.324496 
L 615.086148 130.440233 
L 616.324488 130.440233 
L 616.324488 129.164788 
L 617.562828 129.164788 
L 617.562828 127.886878 
L 618.801168 127.886878 
L 618.801168 126.598985 
L 620.039508 126.598985 
L 620.039508 125.362192 
L 621.277848 125.362192 
L 621.277848 124.023616 
L 622.516189 124.023616 
L 622.516189 122.754529 
L 623.754529 122.754529 
L 623.754529 122.187292 
L 624.992869 122.187292 
L 624.992869 121.868364 
L 626.231209 121.868364 
L 626.231209 120.6092 
L 627.469549 120.6092 
L 627.469549 119.435926 
L 628.707889 119.435926 
L 628.707889 118.087218 
L 629.94623 118.087218 
L 629.94623 116.802029 
L 631.18457 116.802029 
L 631.18457 115.528724 
L 632.42291 115.528724 
L 632.42291 114.927826 
L 633.66125 114.927826 
L 633.66125 114.106635 
L 634.89959 114.106635 
L 634.89959 113.241979 
L 636.13793 113.241979 
L 636.13793 112.430235 
L 637.37627 112.430235 
L 637.37627 111.648884 
L 638.614611 111.648884 
L 638.614611 110.814116 
L 639.852951 110.814116 
L 639.852951 109.803796 
L 641.091291 109.803796 
L 641.091291 109.378955 
L 642.329631 109.378955 
L 642.329631 108.742763 
L 643.567971 108.742763 
L 643.567971 108.083873 
L 644.806311 108.083873 
L 644.806311 107.398957 
L 646.044652 107.398957 
L 646.044652 106.714042 
L 647.282992 106.714042 
L 647.282992 106.029127 
L 648.521332 106.029127 
L 648.521332 106.029127 
" style="fill:none;stroke:#1f77b4;stroke-linecap:square;stroke-width:1.5;"/>
   </g>
   <g id="line2d_108">
    <path clip-path="url(#p2c070c48ca)" d="M 648.521332 105.298727 
L 648.521332 104.568327 
L 649.759672 104.568327 
L 649.759672 103.837927 
L 650.998012 103.837927 
L 650.998012 103.107527 
L 652.236352 103.107527 
L 652.236352 102.377127 
L 653.474693 102.377127 
L 653.474693 101.646727 
L 654.713033 101.646727 
L 654.713033 100.916327 
L 655.951373 100.916327 
L 655.951373 100.185927 
L 657.189713 100.185927 
L 657.189713 99.455527 
L 658.428053 99.455527 
L 658.428053 98.725127 
L 659.666393 98.725127 
L 659.666393 97.994727 
L 660.904734 97.994727 
L 660.904734 97.264327 
L 662.143074 97.264327 
L 662.143074 96.533927 
L 663.381414 96.533927 
L 663.381414 95.803527 
L 664.619754 95.803527 
L 664.619754 95.073127 
L 665.858094 95.073127 
L 665.858094 94.342727 
L 667.096434 94.342727 
L 667.096434 93.612327 
L 668.334775 93.612327 
L 668.334775 92.881927 
L 669.573115 92.881927 
L 669.573115 92.151527 
L 670.811455 92.151527 
L 670.811455 91.421127 
L 672.049795 91.421127 
L 672.049795 90.690727 
L 673.288135 90.690727 
L 673.288135 89.960327 
L 674.526475 89.960327 
L 674.526475 89.229927 
L 675.764816 89.229927 
L 675.764816 88.499527 
L 677.003156 88.499527 
L 677.003156 87.769127 
L 678.241496 87.769127 
L 678.241496 87.038727 
L 679.479836 87.038727 
L 679.479836 86.308327 
L 680.718176 86.308327 
L 680.718176 85.577927 
L 681.956516 85.577927 
L 681.956516 84.847527 
L 683.194857 84.847527 
L 683.194857 84.117127 
L 684.433197 84.117127 
L 684.433197 83.386727 
L 685.671537 83.386727 
L 685.671537 82.656327 
L 686.909877 82.656327 
L 686.909877 81.925927 
L 688.148217 81.925927 
L 688.148217 81.195527 
L 689.386557 81.195527 
L 689.386557 80.465127 
L 690.624898 80.465127 
L 690.624898 79.734727 
L 691.863238 79.734727 
L 691.863238 79.004327 
L 693.101578 79.004327 
L 693.101578 78.273927 
L 694.339918 78.273927 
L 694.339918 77.543527 
L 695.578258 77.543527 
L 695.578258 76.813127 
L 696.816598 76.813127 
L 696.816598 76.082727 
L 698.054939 76.082727 
L 698.054939 75.352327 
L 699.293279 75.352327 
L 699.293279 74.621927 
L 700.531619 74.621927 
L 700.531619 73.891527 
L 701.769959 73.891527 
L 701.769959 73.161127 
L 703.008299 73.161127 
L 703.008299 72.430727 
L 704.246639 72.430727 
L 704.246639 71.700327 
L 705.48498 71.700327 
L 705.48498 70.969927 
L 721 70.969927 
L 721 70.969927 
" style="fill:none;stroke:#ff7f0e;stroke-linecap:square;stroke-width:1.5;"/>
   </g>
   <g id="patch_9">
    <path d="M 407.045 319.04 
L 407.045 26.88 
" style="fill:none;stroke:#000000;stroke-linecap:square;stroke-linejoin:miter;stroke-width:0.8;"/>
   </g>
   <g id="patch_10">
    <path d="M 709.2 319.04 
L 709.2 26.88 
" style="fill:none;stroke:#000000;stroke-linecap:square;stroke-linejoin:miter;stroke-width:0.8;"/>
   </g>
   <g id="patch_11">
    <path d="M 407.045 319.04 
L 709.2 319.04 
" style="fill:none;stroke:#000000;stroke-linecap:square;stroke-linejoin:miter;stroke-width:0.8;"/>
   </g>
   <g id="patch_12">
    <path d="M 407.045 26.88 
L 709.2 26.88 
" style="fill:none;stroke:#000000;stroke-linecap:square;stroke-linejoin:miter;stroke-width:0.8;"/>
   </g>
   <g id="text_58">
    <!-- NZ cumulative vaccinations per capita -->
    <g transform="translate(442.5025 20.88)scale(0.12 -0.12)">
     <use xlink:href="#DejaVuSans-4e"/>
     <use x="74.804688" xlink:href="#DejaVuSans-5a"/>
     <use x="143.310547" xlink:href="#DejaVuSans-20"/>
     <use x="175.097656" xlink:href="#DejaVuSans-63"/>
     <use x="230.078125" xlink:href="#DejaVuSans-75"/>
     <use x="293.457031" xlink:href="#DejaVuSans-6d"/>
     <use x="390.869141" xlink:href="#DejaVuSans-75"/>
     <use x="454.248047" xlink:href="#DejaVuSans-6c"/>
     <use x="482.03125" xlink:href="#DejaVuSans-61"/>
     <use x="543.310547" xlink:href="#DejaVuSans-74"/>
     <use x="582.519531" xlink:href="#DejaVuSans-69"/>
     <use x="610.302734" xlink:href="#DejaVuSans-76"/>
     <use x="669.482422" xlink:href="#DejaVuSans-65"/>
     <use x="731.005859" xlink:href="#DejaVuSans-20"/>
     <use x="762.792969" xlink:href="#DejaVuSans-76"/>
     <use x="821.972656" xlink:href="#DejaVuSans-61"/>
     <use x="883.251953" xlink:href="#DejaVuSans-63"/>
     <use x="938.232422" xlink:href="#DejaVuSans-63"/>
     <use x="993.212891" xlink:href="#DejaVuSans-69"/>
     <use x="1020.996094" xlink:href="#DejaVuSans-6e"/>
     <use x="1084.375" xlink:href="#DejaVuSans-61"/>
     <use x="1145.654297" xlink:href="#DejaVuSans-74"/>
     <use x="1184.863281" xlink:href="#DejaVuSans-69"/>
     <use x="1212.646484" xlink:href="#DejaVuSans-6f"/>
     <use x="1273.828125" xlink:href="#DejaVuSans-6e"/>
     <use x="1337.207031" xlink:href="#DejaVuSans-73"/>
     <use x="1389.306641" xlink:href="#DejaVuSans-20"/>
     <use x="1421.09375" xlink:href="#DejaVuSans-70"/>
     <use x="1484.570312" xlink:href="#DejaVuSans-65"/>
     <use x="1546.09375" xlink:href="#DejaVuSans-72"/>
     <use x="1587.207031" xlink:href="#DejaVuSans-20"/>
     <use x="1618.994141" xlink:href="#DejaVuSans-63"/>
     <use x="1673.974609" xlink:href="#DejaVuSans-61"/>
     <use x="1735.253906" xlink:href="#DejaVuSans-70"/>
     <use x="1798.730469" xlink:href="#DejaVuSans-69"/>
     <use x="1826.513672" xlink:href="#DejaVuSans-74"/>
     <use x="1865.722656" xlink:href="#DejaVuSans-61"/>
    </g>
   </g>
   <g id="legend_2">
    <g id="patch_13">
     <path d="M 554.317187 64.23625 
L 702.2 64.23625 
Q 704.2 64.23625 704.2 62.23625 
L 704.2 33.88 
Q 704.2 31.88 702.2 31.88 
L 554.317187 31.88 
Q 552.317187 31.88 552.317187 33.88 
L 552.317187 62.23625 
Q 552.317187 64.23625 554.317187 64.23625 
z
" style="fill:#ffffff;opacity:0.8;stroke:#cccccc;stroke-linejoin:miter;"/>
    </g>
    <g id="line2d_109">
     <path d="M 556.317187 39.978437 
L 576.317187 39.978437 
" style="fill:none;stroke:#1f77b4;stroke-linecap:square;stroke-width:1.5;"/>
    </g>
    <g id="line2d_110"/>
    <g id="text_59">
     <!-- Actual -->
     <g transform="translate(584.317187 43.478437)scale(0.1 -0.1)">
      <use xlink:href="#DejaVuSans-41"/>
      <use x="66.658203" xlink:href="#DejaVuSans-63"/>
      <use x="121.638672" xlink:href="#DejaVuSans-74"/>
      <use x="160.847656" xlink:href="#DejaVuSans-75"/>
      <use x="224.226562" xlink:href="#DejaVuSans-61"/>
      <use x="285.505859" xlink:href="#DejaVuSans-6c"/>
     </g>
    </g>
    <g id="line2d_111">
     <path d="M 556.317187 54.656563 
L 576.317187 54.656563 
" style="fill:none;stroke:#ff7f0e;stroke-linecap:square;stroke-width:1.5;"/>
    </g>
    <g id="line2d_112"/>
    <g id="text_60">
     <!-- Assumed for projection -->
     <g transform="translate(584.317187 58.156563)scale(0.1 -0.1)">
      <use xlink:href="#DejaVuSans-41"/>
      <use x="68.408203" xlink:href="#DejaVuSans-73"/>
      <use x="120.507812" xlink:href="#DejaVuSans-73"/>
      <use x="172.607422" xlink:href="#DejaVuSans-75"/>
      <use x="235.986328" xlink:href="#DejaVuSans-6d"/>
      <use x="333.398438" xlink:href="#DejaVuSans-65"/>
      <use x="394.921875" xlink:href="#DejaVuSans-64"/>
      <use x="458.398438" xlink:href="#DejaVuSans-20"/>
      <use x="490.185547" xlink:href="#DejaVuSans-66"/>
      <use x="525.390625" xlink:href="#DejaVuSans-6f"/>
      <use x="586.572266" xlink:href="#DejaVuSans-72"/>
      <use x="627.685547" xlink:href="#DejaVuSans-20"/>
      <use x="659.472656" xlink:href="#DejaVuSans-70"/>
      <use x="722.949219" xlink:href="#DejaVuSans-72"/>
      <use x="761.8125" xlink:href="#DejaVuSans-6f"/>
      <use x="822.994141" xlink:href="#DejaVuSans-6a"/>
      <use x="850.777344" xlink:href="#DejaVuSans-65"/>
      <use x="912.300781" xlink:href="#DejaVuSans-63"/>
      <use x="967.28125" xlink:href="#DejaVuSans-74"/>
      <use x="1006.490234" xlink:href="#DejaVuSans-69"/>
      <use x="1034.273438" xlink:href="#DejaVuSans-6f"/>
      <use x="1095.455078" xlink:href="#DejaVuSans-6e"/>
     </g>
    </g>
   </g>
  </g>
 </g>
 <defs>
  <clipPath id="pb8211ad5a9">
   <rect height="292.16" width="302.155" x="54.02" y="26.88"/>
  </clipPath>
  <clipPath id="p2c070c48ca">
   <rect height="292.16" width="302.155" x="407.045" y="26.88"/>
  </clipPath>
 </defs>
</svg>
