<?xml version="1.0" encoding="utf-8" standalone="no"?>
<!DOCTYPE svg PUBLIC "-//W3C//DTD SVG 1.1//EN"
  "http://www.w3.org/Graphics/SVG/1.1/DTD/svg11.dtd">
<svg height="360pt" version="1.1" viewBox="0 0 720 360" width="720pt" xmlns="http://www.w3.org/2000/svg" xmlns:xlink="http://www.w3.org/1999/xlink">
 <metadata>
  <rdf:RDF xmlns:cc="http://creativecommons.org/ns#" xmlns:dc="http://purl.org/dc/elements/1.1/" xmlns:rdf="http://www.w3.org/1999/02/22-rdf-syntax-ns#">
   <cc:Work>
    <dc:type rdf:resource="http://purl.org/dc/dcmitype/StillImage"/>
    <dc:date>2021-08-16T09:48:27.747503</dc:date>
    <dc:format>image/svg+xml</dc:format>
    <dc:creator>
     <cc:Agent>
      <dc:title>Matplotlib v3.4.2, https://matplotlib.org/</dc:title>
     </cc:Agent>
    </dc:creator>
   </cc:Work>
  </rdf:RDF>
 </metadata>
 <defs>
  <style type="text/css">*{stroke-linecap:butt;stroke-linejoin:round;}</style>
 </defs>
 <g id="figure_1">
  <g id="patch_1">
   <path d="M 0 360 
L 720 360 
L 720 0 
L 0 0 
z
" style="fill:#ffffff;"/>
  </g>
  <g id="axes_1">
   <g id="patch_2">
    <path d="M 47.81 319.04 
L 352.98 319.04 
L 352.98 25.44 
L 47.81 25.44 
z
" style="fill:#ffffff;"/>
   </g>
   <g id="matplotlib.axis_1">
    <g id="xtick_1">
     <g id="line2d_1">
      <path clip-path="url(#pa09d5946d0)" d="M 47.81 319.04 
L 47.81 25.44 
" style="fill:none;stroke:#000000;stroke-dasharray:0.8,1.32;stroke-dashoffset:0;stroke-opacity:0.5;stroke-width:0.8;"/>
     </g>
     <g id="line2d_2">
      <defs>
       <path d="M 0 0 
L 0 3.5 
" id="m93fa963f7f" style="stroke:#000000;stroke-width:0.8;"/>
      </defs>
      <g>
       <use style="stroke:#000000;stroke-width:0.8;" x="47.81" xlink:href="#m93fa963f7f" y="319.04"/>
      </g>
     </g>
     <g id="text_1">
      <!-- May -->
      <g transform="translate(37.4725 333.638438)scale(0.1 -0.1)">
       <defs>
        <path d="M 628 4666 
L 1569 4666 
L 2759 1491 
L 3956 4666 
L 4897 4666 
L 4897 0 
L 4281 0 
L 4281 4097 
L 3078 897 
L 2444 897 
L 1241 4097 
L 1241 0 
L 628 0 
L 628 4666 
z
" id="DejaVuSans-4d" transform="scale(0.015625)"/>
        <path d="M 2194 1759 
Q 1497 1759 1228 1600 
Q 959 1441 959 1056 
Q 959 750 1161 570 
Q 1363 391 1709 391 
Q 2188 391 2477 730 
Q 2766 1069 2766 1631 
L 2766 1759 
L 2194 1759 
z
M 3341 1997 
L 3341 0 
L 2766 0 
L 2766 531 
Q 2569 213 2275 61 
Q 1981 -91 1556 -91 
Q 1019 -91 701 211 
Q 384 513 384 1019 
Q 384 1609 779 1909 
Q 1175 2209 1959 2209 
L 2766 2209 
L 2766 2266 
Q 2766 2663 2505 2880 
Q 2244 3097 1772 3097 
Q 1472 3097 1187 3025 
Q 903 2953 641 2809 
L 641 3341 
Q 956 3463 1253 3523 
Q 1550 3584 1831 3584 
Q 2591 3584 2966 3190 
Q 3341 2797 3341 1997 
z
" id="DejaVuSans-61" transform="scale(0.015625)"/>
        <path d="M 2059 -325 
Q 1816 -950 1584 -1140 
Q 1353 -1331 966 -1331 
L 506 -1331 
L 506 -850 
L 844 -850 
Q 1081 -850 1212 -737 
Q 1344 -625 1503 -206 
L 1606 56 
L 191 3500 
L 800 3500 
L 1894 763 
L 2988 3500 
L 3597 3500 
L 2059 -325 
z
" id="DejaVuSans-79" transform="scale(0.015625)"/>
       </defs>
       <use xlink:href="#DejaVuSans-4d"/>
       <use x="86.279297" xlink:href="#DejaVuSans-61"/>
       <use x="147.558594" xlink:href="#DejaVuSans-79"/>
      </g>
     </g>
    </g>
    <g id="xtick_2">
     <g id="line2d_3">
      <path clip-path="url(#pa09d5946d0)" d="M 65.319754 319.04 
L 65.319754 25.44 
" style="fill:none;stroke:#000000;stroke-dasharray:0.8,1.32;stroke-dashoffset:0;stroke-opacity:0.5;stroke-width:0.8;"/>
     </g>
     <g id="line2d_4">
      <g>
       <use style="stroke:#000000;stroke-width:0.8;" x="65.319754" xlink:href="#m93fa963f7f" y="319.04"/>
      </g>
     </g>
     <g id="text_2">
      <!-- 15 -->
      <g transform="translate(58.957254 333.638438)scale(0.1 -0.1)">
       <defs>
        <path d="M 794 531 
L 1825 531 
L 1825 4091 
L 703 3866 
L 703 4441 
L 1819 4666 
L 2450 4666 
L 2450 531 
L 3481 531 
L 3481 0 
L 794 0 
L 794 531 
z
" id="DejaVuSans-31" transform="scale(0.015625)"/>
        <path d="M 691 4666 
L 3169 4666 
L 3169 4134 
L 1269 4134 
L 1269 2991 
Q 1406 3038 1543 3061 
Q 1681 3084 1819 3084 
Q 2600 3084 3056 2656 
Q 3513 2228 3513 1497 
Q 3513 744 3044 326 
Q 2575 -91 1722 -91 
Q 1428 -91 1123 -41 
Q 819 9 494 109 
L 494 744 
Q 775 591 1075 516 
Q 1375 441 1709 441 
Q 2250 441 2565 725 
Q 2881 1009 2881 1497 
Q 2881 1984 2565 2268 
Q 2250 2553 1709 2553 
Q 1456 2553 1204 2497 
Q 953 2441 691 2322 
L 691 4666 
z
" id="DejaVuSans-35" transform="scale(0.015625)"/>
       </defs>
       <use xlink:href="#DejaVuSans-31"/>
       <use x="63.623047" xlink:href="#DejaVuSans-35"/>
      </g>
     </g>
    </g>
    <g id="xtick_3">
     <g id="line2d_5">
      <path clip-path="url(#pa09d5946d0)" d="M 86.581598 319.04 
L 86.581598 25.44 
" style="fill:none;stroke:#000000;stroke-dasharray:0.8,1.32;stroke-dashoffset:0;stroke-opacity:0.5;stroke-width:0.8;"/>
     </g>
     <g id="line2d_6">
      <g>
       <use style="stroke:#000000;stroke-width:0.8;" x="86.581598" xlink:href="#m93fa963f7f" y="319.04"/>
      </g>
     </g>
     <g id="text_3">
      <!-- Jun -->
      <g transform="translate(78.769098 333.638438)scale(0.1 -0.1)">
       <defs>
        <path d="M 628 4666 
L 1259 4666 
L 1259 325 
Q 1259 -519 939 -900 
Q 619 -1281 -91 -1281 
L -331 -1281 
L -331 -750 
L -134 -750 
Q 284 -750 456 -515 
Q 628 -281 628 325 
L 628 4666 
z
" id="DejaVuSans-4a" transform="scale(0.015625)"/>
        <path d="M 544 1381 
L 544 3500 
L 1119 3500 
L 1119 1403 
Q 1119 906 1312 657 
Q 1506 409 1894 409 
Q 2359 409 2629 706 
Q 2900 1003 2900 1516 
L 2900 3500 
L 3475 3500 
L 3475 0 
L 2900 0 
L 2900 538 
Q 2691 219 2414 64 
Q 2138 -91 1772 -91 
Q 1169 -91 856 284 
Q 544 659 544 1381 
z
M 1991 3584 
L 1991 3584 
z
" id="DejaVuSans-75" transform="scale(0.015625)"/>
        <path d="M 3513 2113 
L 3513 0 
L 2938 0 
L 2938 2094 
Q 2938 2591 2744 2837 
Q 2550 3084 2163 3084 
Q 1697 3084 1428 2787 
Q 1159 2491 1159 1978 
L 1159 0 
L 581 0 
L 581 3500 
L 1159 3500 
L 1159 2956 
Q 1366 3272 1645 3428 
Q 1925 3584 2291 3584 
Q 2894 3584 3203 3211 
Q 3513 2838 3513 2113 
z
" id="DejaVuSans-6e" transform="scale(0.015625)"/>
       </defs>
       <use xlink:href="#DejaVuSans-4a"/>
       <use x="29.492188" xlink:href="#DejaVuSans-75"/>
       <use x="92.871094" xlink:href="#DejaVuSans-6e"/>
      </g>
     </g>
    </g>
    <g id="xtick_4">
     <g id="line2d_7">
      <path clip-path="url(#pa09d5946d0)" d="M 104.091352 319.04 
L 104.091352 25.44 
" style="fill:none;stroke:#000000;stroke-dasharray:0.8,1.32;stroke-dashoffset:0;stroke-opacity:0.5;stroke-width:0.8;"/>
     </g>
     <g id="line2d_8">
      <g>
       <use style="stroke:#000000;stroke-width:0.8;" x="104.091352" xlink:href="#m93fa963f7f" y="319.04"/>
      </g>
     </g>
     <g id="text_4">
      <!-- 15 -->
      <g transform="translate(97.728852 333.638438)scale(0.1 -0.1)">
       <use xlink:href="#DejaVuSans-31"/>
       <use x="63.623047" xlink:href="#DejaVuSans-35"/>
      </g>
     </g>
    </g>
    <g id="xtick_5">
     <g id="line2d_9">
      <path clip-path="url(#pa09d5946d0)" d="M 124.1025 319.04 
L 124.1025 25.44 
" style="fill:none;stroke:#000000;stroke-dasharray:0.8,1.32;stroke-dashoffset:0;stroke-opacity:0.5;stroke-width:0.8;"/>
     </g>
     <g id="line2d_10">
      <g>
       <use style="stroke:#000000;stroke-width:0.8;" x="124.1025" xlink:href="#m93fa963f7f" y="319.04"/>
      </g>
     </g>
     <g id="text_5">
      <!-- Jul -->
      <g transform="translate(118.069688 333.638438)scale(0.1 -0.1)">
       <defs>
        <path d="M 603 4863 
L 1178 4863 
L 1178 0 
L 603 0 
L 603 4863 
z
" id="DejaVuSans-6c" transform="scale(0.015625)"/>
       </defs>
       <use xlink:href="#DejaVuSans-4a"/>
       <use x="29.492188" xlink:href="#DejaVuSans-75"/>
       <use x="92.871094" xlink:href="#DejaVuSans-6c"/>
      </g>
     </g>
    </g>
    <g id="xtick_6">
     <g id="line2d_11">
      <path clip-path="url(#pa09d5946d0)" d="M 141.612254 319.04 
L 141.612254 25.44 
" style="fill:none;stroke:#000000;stroke-dasharray:0.8,1.32;stroke-dashoffset:0;stroke-opacity:0.5;stroke-width:0.8;"/>
     </g>
     <g id="line2d_12">
      <g>
       <use style="stroke:#000000;stroke-width:0.8;" x="141.612254" xlink:href="#m93fa963f7f" y="319.04"/>
      </g>
     </g>
     <g id="text_6">
      <!-- 15 -->
      <g transform="translate(135.249754 333.638438)scale(0.1 -0.1)">
       <use xlink:href="#DejaVuSans-31"/>
       <use x="63.623047" xlink:href="#DejaVuSans-35"/>
      </g>
     </g>
    </g>
    <g id="xtick_7">
     <g id="line2d_13">
      <path clip-path="url(#pa09d5946d0)" d="M 162.874098 319.04 
L 162.874098 25.44 
" style="fill:none;stroke:#000000;stroke-dasharray:0.8,1.32;stroke-dashoffset:0;stroke-opacity:0.5;stroke-width:0.8;"/>
     </g>
     <g id="line2d_14">
      <g>
       <use style="stroke:#000000;stroke-width:0.8;" x="162.874098" xlink:href="#m93fa963f7f" y="319.04"/>
      </g>
     </g>
     <g id="text_7">
      <!-- Aug -->
      <g transform="translate(153.110817 333.638438)scale(0.1 -0.1)">
       <defs>
        <path d="M 2188 4044 
L 1331 1722 
L 3047 1722 
L 2188 4044 
z
M 1831 4666 
L 2547 4666 
L 4325 0 
L 3669 0 
L 3244 1197 
L 1141 1197 
L 716 0 
L 50 0 
L 1831 4666 
z
" id="DejaVuSans-41" transform="scale(0.015625)"/>
        <path d="M 2906 1791 
Q 2906 2416 2648 2759 
Q 2391 3103 1925 3103 
Q 1463 3103 1205 2759 
Q 947 2416 947 1791 
Q 947 1169 1205 825 
Q 1463 481 1925 481 
Q 2391 481 2648 825 
Q 2906 1169 2906 1791 
z
M 3481 434 
Q 3481 -459 3084 -895 
Q 2688 -1331 1869 -1331 
Q 1566 -1331 1297 -1286 
Q 1028 -1241 775 -1147 
L 775 -588 
Q 1028 -725 1275 -790 
Q 1522 -856 1778 -856 
Q 2344 -856 2625 -561 
Q 2906 -266 2906 331 
L 2906 616 
Q 2728 306 2450 153 
Q 2172 0 1784 0 
Q 1141 0 747 490 
Q 353 981 353 1791 
Q 353 2603 747 3093 
Q 1141 3584 1784 3584 
Q 2172 3584 2450 3431 
Q 2728 3278 2906 2969 
L 2906 3500 
L 3481 3500 
L 3481 434 
z
" id="DejaVuSans-67" transform="scale(0.015625)"/>
       </defs>
       <use xlink:href="#DejaVuSans-41"/>
       <use x="68.408203" xlink:href="#DejaVuSans-75"/>
       <use x="131.787109" xlink:href="#DejaVuSans-67"/>
      </g>
     </g>
    </g>
    <g id="xtick_8">
     <g id="line2d_15">
      <path clip-path="url(#pa09d5946d0)" d="M 180.383852 319.04 
L 180.383852 25.44 
" style="fill:none;stroke:#000000;stroke-dasharray:0.8,1.32;stroke-dashoffset:0;stroke-opacity:0.5;stroke-width:0.8;"/>
     </g>
     <g id="line2d_16">
      <g>
       <use style="stroke:#000000;stroke-width:0.8;" x="180.383852" xlink:href="#m93fa963f7f" y="319.04"/>
      </g>
     </g>
     <g id="text_8">
      <!-- 15 -->
      <g transform="translate(174.021352 333.638438)scale(0.1 -0.1)">
       <use xlink:href="#DejaVuSans-31"/>
       <use x="63.623047" xlink:href="#DejaVuSans-35"/>
      </g>
     </g>
    </g>
    <g id="xtick_9">
     <g id="line2d_17">
      <path clip-path="url(#pa09d5946d0)" d="M 201.645697 319.04 
L 201.645697 25.44 
" style="fill:none;stroke:#000000;stroke-dasharray:0.8,1.32;stroke-dashoffset:0;stroke-opacity:0.5;stroke-width:0.8;"/>
     </g>
     <g id="line2d_18">
      <g>
       <use style="stroke:#000000;stroke-width:0.8;" x="201.645697" xlink:href="#m93fa963f7f" y="319.04"/>
      </g>
     </g>
     <g id="text_9">
      <!-- Sep -->
      <g transform="translate(192.220697 333.638438)scale(0.1 -0.1)">
       <defs>
        <path d="M 3425 4513 
L 3425 3897 
Q 3066 4069 2747 4153 
Q 2428 4238 2131 4238 
Q 1616 4238 1336 4038 
Q 1056 3838 1056 3469 
Q 1056 3159 1242 3001 
Q 1428 2844 1947 2747 
L 2328 2669 
Q 3034 2534 3370 2195 
Q 3706 1856 3706 1288 
Q 3706 609 3251 259 
Q 2797 -91 1919 -91 
Q 1588 -91 1214 -16 
Q 841 59 441 206 
L 441 856 
Q 825 641 1194 531 
Q 1563 422 1919 422 
Q 2459 422 2753 634 
Q 3047 847 3047 1241 
Q 3047 1584 2836 1778 
Q 2625 1972 2144 2069 
L 1759 2144 
Q 1053 2284 737 2584 
Q 422 2884 422 3419 
Q 422 4038 858 4394 
Q 1294 4750 2059 4750 
Q 2388 4750 2728 4690 
Q 3069 4631 3425 4513 
z
" id="DejaVuSans-53" transform="scale(0.015625)"/>
        <path d="M 3597 1894 
L 3597 1613 
L 953 1613 
Q 991 1019 1311 708 
Q 1631 397 2203 397 
Q 2534 397 2845 478 
Q 3156 559 3463 722 
L 3463 178 
Q 3153 47 2828 -22 
Q 2503 -91 2169 -91 
Q 1331 -91 842 396 
Q 353 884 353 1716 
Q 353 2575 817 3079 
Q 1281 3584 2069 3584 
Q 2775 3584 3186 3129 
Q 3597 2675 3597 1894 
z
M 3022 2063 
Q 3016 2534 2758 2815 
Q 2500 3097 2075 3097 
Q 1594 3097 1305 2825 
Q 1016 2553 972 2059 
L 3022 2063 
z
" id="DejaVuSans-65" transform="scale(0.015625)"/>
        <path d="M 1159 525 
L 1159 -1331 
L 581 -1331 
L 581 3500 
L 1159 3500 
L 1159 2969 
Q 1341 3281 1617 3432 
Q 1894 3584 2278 3584 
Q 2916 3584 3314 3078 
Q 3713 2572 3713 1747 
Q 3713 922 3314 415 
Q 2916 -91 2278 -91 
Q 1894 -91 1617 61 
Q 1341 213 1159 525 
z
M 3116 1747 
Q 3116 2381 2855 2742 
Q 2594 3103 2138 3103 
Q 1681 3103 1420 2742 
Q 1159 2381 1159 1747 
Q 1159 1113 1420 752 
Q 1681 391 2138 391 
Q 2594 391 2855 752 
Q 3116 1113 3116 1747 
z
" id="DejaVuSans-70" transform="scale(0.015625)"/>
       </defs>
       <use xlink:href="#DejaVuSans-53"/>
       <use x="63.476562" xlink:href="#DejaVuSans-65"/>
       <use x="125" xlink:href="#DejaVuSans-70"/>
      </g>
     </g>
    </g>
    <g id="xtick_10">
     <g id="line2d_19">
      <path clip-path="url(#pa09d5946d0)" d="M 219.155451 319.04 
L 219.155451 25.44 
" style="fill:none;stroke:#000000;stroke-dasharray:0.8,1.32;stroke-dashoffset:0;stroke-opacity:0.5;stroke-width:0.8;"/>
     </g>
     <g id="line2d_20">
      <g>
       <use style="stroke:#000000;stroke-width:0.8;" x="219.155451" xlink:href="#m93fa963f7f" y="319.04"/>
      </g>
     </g>
     <g id="text_10">
      <!-- 15 -->
      <g transform="translate(212.792951 333.638438)scale(0.1 -0.1)">
       <use xlink:href="#DejaVuSans-31"/>
       <use x="63.623047" xlink:href="#DejaVuSans-35"/>
      </g>
     </g>
    </g>
    <g id="xtick_11">
     <g id="line2d_21">
      <path clip-path="url(#pa09d5946d0)" d="M 239.166598 319.04 
L 239.166598 25.44 
" style="fill:none;stroke:#000000;stroke-dasharray:0.8,1.32;stroke-dashoffset:0;stroke-opacity:0.5;stroke-width:0.8;"/>
     </g>
     <g id="line2d_22">
      <g>
       <use style="stroke:#000000;stroke-width:0.8;" x="239.166598" xlink:href="#m93fa963f7f" y="319.04"/>
      </g>
     </g>
     <g id="text_11">
      <!-- Oct -->
      <g transform="translate(230.521286 333.638438)scale(0.1 -0.1)">
       <defs>
        <path d="M 2522 4238 
Q 1834 4238 1429 3725 
Q 1025 3213 1025 2328 
Q 1025 1447 1429 934 
Q 1834 422 2522 422 
Q 3209 422 3611 934 
Q 4013 1447 4013 2328 
Q 4013 3213 3611 3725 
Q 3209 4238 2522 4238 
z
M 2522 4750 
Q 3503 4750 4090 4092 
Q 4678 3434 4678 2328 
Q 4678 1225 4090 567 
Q 3503 -91 2522 -91 
Q 1538 -91 948 565 
Q 359 1222 359 2328 
Q 359 3434 948 4092 
Q 1538 4750 2522 4750 
z
" id="DejaVuSans-4f" transform="scale(0.015625)"/>
        <path d="M 3122 3366 
L 3122 2828 
Q 2878 2963 2633 3030 
Q 2388 3097 2138 3097 
Q 1578 3097 1268 2742 
Q 959 2388 959 1747 
Q 959 1106 1268 751 
Q 1578 397 2138 397 
Q 2388 397 2633 464 
Q 2878 531 3122 666 
L 3122 134 
Q 2881 22 2623 -34 
Q 2366 -91 2075 -91 
Q 1284 -91 818 406 
Q 353 903 353 1747 
Q 353 2603 823 3093 
Q 1294 3584 2113 3584 
Q 2378 3584 2631 3529 
Q 2884 3475 3122 3366 
z
" id="DejaVuSans-63" transform="scale(0.015625)"/>
        <path d="M 1172 4494 
L 1172 3500 
L 2356 3500 
L 2356 3053 
L 1172 3053 
L 1172 1153 
Q 1172 725 1289 603 
Q 1406 481 1766 481 
L 2356 481 
L 2356 0 
L 1766 0 
Q 1100 0 847 248 
Q 594 497 594 1153 
L 594 3053 
L 172 3053 
L 172 3500 
L 594 3500 
L 594 4494 
L 1172 4494 
z
" id="DejaVuSans-74" transform="scale(0.015625)"/>
       </defs>
       <use xlink:href="#DejaVuSans-4f"/>
       <use x="78.710938" xlink:href="#DejaVuSans-63"/>
       <use x="133.691406" xlink:href="#DejaVuSans-74"/>
      </g>
     </g>
    </g>
    <g id="xtick_12">
     <g id="line2d_23">
      <path clip-path="url(#pa09d5946d0)" d="M 256.676352 319.04 
L 256.676352 25.44 
" style="fill:none;stroke:#000000;stroke-dasharray:0.8,1.32;stroke-dashoffset:0;stroke-opacity:0.5;stroke-width:0.8;"/>
     </g>
     <g id="line2d_24">
      <g>
       <use style="stroke:#000000;stroke-width:0.8;" x="256.676352" xlink:href="#m93fa963f7f" y="319.04"/>
      </g>
     </g>
     <g id="text_12">
      <!-- 15 -->
      <g transform="translate(250.313852 333.638438)scale(0.1 -0.1)">
       <use xlink:href="#DejaVuSans-31"/>
       <use x="63.623047" xlink:href="#DejaVuSans-35"/>
      </g>
     </g>
    </g>
    <g id="xtick_13">
     <g id="line2d_25">
      <path clip-path="url(#pa09d5946d0)" d="M 277.938197 319.04 
L 277.938197 25.44 
" style="fill:none;stroke:#000000;stroke-dasharray:0.8,1.32;stroke-dashoffset:0;stroke-opacity:0.5;stroke-width:0.8;"/>
     </g>
     <g id="line2d_26">
      <g>
       <use style="stroke:#000000;stroke-width:0.8;" x="277.938197" xlink:href="#m93fa963f7f" y="319.04"/>
      </g>
     </g>
     <g id="text_13">
      <!-- Nov -->
      <g transform="translate(268.178822 333.638438)scale(0.1 -0.1)">
       <defs>
        <path d="M 628 4666 
L 1478 4666 
L 3547 763 
L 3547 4666 
L 4159 4666 
L 4159 0 
L 3309 0 
L 1241 3903 
L 1241 0 
L 628 0 
L 628 4666 
z
" id="DejaVuSans-4e" transform="scale(0.015625)"/>
        <path d="M 1959 3097 
Q 1497 3097 1228 2736 
Q 959 2375 959 1747 
Q 959 1119 1226 758 
Q 1494 397 1959 397 
Q 2419 397 2687 759 
Q 2956 1122 2956 1747 
Q 2956 2369 2687 2733 
Q 2419 3097 1959 3097 
z
M 1959 3584 
Q 2709 3584 3137 3096 
Q 3566 2609 3566 1747 
Q 3566 888 3137 398 
Q 2709 -91 1959 -91 
Q 1206 -91 779 398 
Q 353 888 353 1747 
Q 353 2609 779 3096 
Q 1206 3584 1959 3584 
z
" id="DejaVuSans-6f" transform="scale(0.015625)"/>
        <path d="M 191 3500 
L 800 3500 
L 1894 563 
L 2988 3500 
L 3597 3500 
L 2284 0 
L 1503 0 
L 191 3500 
z
" id="DejaVuSans-76" transform="scale(0.015625)"/>
       </defs>
       <use xlink:href="#DejaVuSans-4e"/>
       <use x="74.804688" xlink:href="#DejaVuSans-6f"/>
       <use x="135.986328" xlink:href="#DejaVuSans-76"/>
      </g>
     </g>
    </g>
    <g id="xtick_14">
     <g id="line2d_27">
      <path clip-path="url(#pa09d5946d0)" d="M 295.447951 319.04 
L 295.447951 25.44 
" style="fill:none;stroke:#000000;stroke-dasharray:0.8,1.32;stroke-dashoffset:0;stroke-opacity:0.5;stroke-width:0.8;"/>
     </g>
     <g id="line2d_28">
      <g>
       <use style="stroke:#000000;stroke-width:0.8;" x="295.447951" xlink:href="#m93fa963f7f" y="319.04"/>
      </g>
     </g>
     <g id="text_14">
      <!-- 15 -->
      <g transform="translate(289.085451 333.638438)scale(0.1 -0.1)">
       <use xlink:href="#DejaVuSans-31"/>
       <use x="63.623047" xlink:href="#DejaVuSans-35"/>
      </g>
     </g>
    </g>
    <g id="xtick_15">
     <g id="line2d_29">
      <path clip-path="url(#pa09d5946d0)" d="M 315.459098 319.04 
L 315.459098 25.44 
" style="fill:none;stroke:#000000;stroke-dasharray:0.8,1.32;stroke-dashoffset:0;stroke-opacity:0.5;stroke-width:0.8;"/>
     </g>
     <g id="line2d_30">
      <g>
       <use style="stroke:#000000;stroke-width:0.8;" x="315.459098" xlink:href="#m93fa963f7f" y="319.04"/>
      </g>
     </g>
     <g id="text_15">
      <!-- Dec -->
      <g transform="translate(305.783317 333.638438)scale(0.1 -0.1)">
       <defs>
        <path d="M 1259 4147 
L 1259 519 
L 2022 519 
Q 2988 519 3436 956 
Q 3884 1394 3884 2338 
Q 3884 3275 3436 3711 
Q 2988 4147 2022 4147 
L 1259 4147 
z
M 628 4666 
L 1925 4666 
Q 3281 4666 3915 4102 
Q 4550 3538 4550 2338 
Q 4550 1131 3912 565 
Q 3275 0 1925 0 
L 628 0 
L 628 4666 
z
" id="DejaVuSans-44" transform="scale(0.015625)"/>
       </defs>
       <use xlink:href="#DejaVuSans-44"/>
       <use x="77.001953" xlink:href="#DejaVuSans-65"/>
       <use x="138.525391" xlink:href="#DejaVuSans-63"/>
      </g>
     </g>
    </g>
    <g id="xtick_16">
     <g id="line2d_31">
      <path clip-path="url(#pa09d5946d0)" d="M 332.968852 319.04 
L 332.968852 25.44 
" style="fill:none;stroke:#000000;stroke-dasharray:0.8,1.32;stroke-dashoffset:0;stroke-opacity:0.5;stroke-width:0.8;"/>
     </g>
     <g id="line2d_32">
      <g>
       <use style="stroke:#000000;stroke-width:0.8;" x="332.968852" xlink:href="#m93fa963f7f" y="319.04"/>
      </g>
     </g>
     <g id="text_16">
      <!-- 15 -->
      <g transform="translate(326.606352 333.638438)scale(0.1 -0.1)">
       <use xlink:href="#DejaVuSans-31"/>
       <use x="63.623047" xlink:href="#DejaVuSans-35"/>
      </g>
     </g>
    </g>
    <g id="text_17">
     <!-- 2021-Dec -->
     <g transform="translate(304.570625 346.316563)scale(0.1 -0.1)">
      <defs>
       <path d="M 1228 531 
L 3431 531 
L 3431 0 
L 469 0 
L 469 531 
Q 828 903 1448 1529 
Q 2069 2156 2228 2338 
Q 2531 2678 2651 2914 
Q 2772 3150 2772 3378 
Q 2772 3750 2511 3984 
Q 2250 4219 1831 4219 
Q 1534 4219 1204 4116 
Q 875 4013 500 3803 
L 500 4441 
Q 881 4594 1212 4672 
Q 1544 4750 1819 4750 
Q 2544 4750 2975 4387 
Q 3406 4025 3406 3419 
Q 3406 3131 3298 2873 
Q 3191 2616 2906 2266 
Q 2828 2175 2409 1742 
Q 1991 1309 1228 531 
z
" id="DejaVuSans-32" transform="scale(0.015625)"/>
       <path d="M 2034 4250 
Q 1547 4250 1301 3770 
Q 1056 3291 1056 2328 
Q 1056 1369 1301 889 
Q 1547 409 2034 409 
Q 2525 409 2770 889 
Q 3016 1369 3016 2328 
Q 3016 3291 2770 3770 
Q 2525 4250 2034 4250 
z
M 2034 4750 
Q 2819 4750 3233 4129 
Q 3647 3509 3647 2328 
Q 3647 1150 3233 529 
Q 2819 -91 2034 -91 
Q 1250 -91 836 529 
Q 422 1150 422 2328 
Q 422 3509 836 4129 
Q 1250 4750 2034 4750 
z
" id="DejaVuSans-30" transform="scale(0.015625)"/>
       <path d="M 313 2009 
L 1997 2009 
L 1997 1497 
L 313 1497 
L 313 2009 
z
" id="DejaVuSans-2d" transform="scale(0.015625)"/>
      </defs>
      <use xlink:href="#DejaVuSans-32"/>
      <use x="63.623047" xlink:href="#DejaVuSans-30"/>
      <use x="127.246094" xlink:href="#DejaVuSans-32"/>
      <use x="190.869141" xlink:href="#DejaVuSans-31"/>
      <use x="254.492188" xlink:href="#DejaVuSans-2d"/>
      <use x="290.576172" xlink:href="#DejaVuSans-44"/>
      <use x="367.578125" xlink:href="#DejaVuSans-65"/>
      <use x="429.101562" xlink:href="#DejaVuSans-63"/>
     </g>
    </g>
   </g>
   <g id="matplotlib.axis_2">
    <g id="ytick_1">
     <g id="line2d_33">
      <path clip-path="url(#pa09d5946d0)" d="M 47.81 319.04 
L 352.98 319.04 
" style="fill:none;stroke:#000000;stroke-dasharray:0.8,1.32;stroke-dashoffset:0;stroke-opacity:0.5;stroke-width:0.8;"/>
     </g>
     <g id="line2d_34">
      <defs>
       <path d="M 0 0 
L -3.5 0 
" id="m265d3e3e16" style="stroke:#000000;stroke-width:0.8;"/>
      </defs>
      <g>
       <use style="stroke:#000000;stroke-width:0.8;" x="47.81" xlink:href="#m265d3e3e16" y="319.04"/>
      </g>
     </g>
     <g id="text_18">
      <!-- 0.0 -->
      <g transform="translate(24.906875 322.839219)scale(0.1 -0.1)">
       <defs>
        <path d="M 684 794 
L 1344 794 
L 1344 0 
L 684 0 
L 684 794 
z
" id="DejaVuSans-2e" transform="scale(0.015625)"/>
       </defs>
       <use xlink:href="#DejaVuSans-30"/>
       <use x="63.623047" xlink:href="#DejaVuSans-2e"/>
       <use x="95.410156" xlink:href="#DejaVuSans-30"/>
      </g>
     </g>
    </g>
    <g id="ytick_2">
     <g id="line2d_35">
      <path clip-path="url(#pa09d5946d0)" d="M 47.81 284.498824 
L 352.98 284.498824 
" style="fill:none;stroke:#000000;stroke-dasharray:0.8,1.32;stroke-dashoffset:0;stroke-opacity:0.5;stroke-width:0.8;"/>
     </g>
     <g id="line2d_36">
      <g>
       <use style="stroke:#000000;stroke-width:0.8;" x="47.81" xlink:href="#m265d3e3e16" y="284.498824"/>
      </g>
     </g>
     <g id="text_19">
      <!-- 0.2 -->
      <g transform="translate(24.906875 288.298042)scale(0.1 -0.1)">
       <use xlink:href="#DejaVuSans-30"/>
       <use x="63.623047" xlink:href="#DejaVuSans-2e"/>
       <use x="95.410156" xlink:href="#DejaVuSans-32"/>
      </g>
     </g>
    </g>
    <g id="ytick_3">
     <g id="line2d_37">
      <path clip-path="url(#pa09d5946d0)" d="M 47.81 249.957647 
L 352.98 249.957647 
" style="fill:none;stroke:#000000;stroke-dasharray:0.8,1.32;stroke-dashoffset:0;stroke-opacity:0.5;stroke-width:0.8;"/>
     </g>
     <g id="line2d_38">
      <g>
       <use style="stroke:#000000;stroke-width:0.8;" x="47.81" xlink:href="#m265d3e3e16" y="249.957647"/>
      </g>
     </g>
     <g id="text_20">
      <!-- 0.4 -->
      <g transform="translate(24.906875 253.756866)scale(0.1 -0.1)">
       <defs>
        <path d="M 2419 4116 
L 825 1625 
L 2419 1625 
L 2419 4116 
z
M 2253 4666 
L 3047 4666 
L 3047 1625 
L 3713 1625 
L 3713 1100 
L 3047 1100 
L 3047 0 
L 2419 0 
L 2419 1100 
L 313 1100 
L 313 1709 
L 2253 4666 
z
" id="DejaVuSans-34" transform="scale(0.015625)"/>
       </defs>
       <use xlink:href="#DejaVuSans-30"/>
       <use x="63.623047" xlink:href="#DejaVuSans-2e"/>
       <use x="95.410156" xlink:href="#DejaVuSans-34"/>
      </g>
     </g>
    </g>
    <g id="ytick_4">
     <g id="line2d_39">
      <path clip-path="url(#pa09d5946d0)" d="M 47.81 215.416471 
L 352.98 215.416471 
" style="fill:none;stroke:#000000;stroke-dasharray:0.8,1.32;stroke-dashoffset:0;stroke-opacity:0.5;stroke-width:0.8;"/>
     </g>
     <g id="line2d_40">
      <g>
       <use style="stroke:#000000;stroke-width:0.8;" x="47.81" xlink:href="#m265d3e3e16" y="215.416471"/>
      </g>
     </g>
     <g id="text_21">
      <!-- 0.6 -->
      <g transform="translate(24.906875 219.215689)scale(0.1 -0.1)">
       <defs>
        <path d="M 2113 2584 
Q 1688 2584 1439 2293 
Q 1191 2003 1191 1497 
Q 1191 994 1439 701 
Q 1688 409 2113 409 
Q 2538 409 2786 701 
Q 3034 994 3034 1497 
Q 3034 2003 2786 2293 
Q 2538 2584 2113 2584 
z
M 3366 4563 
L 3366 3988 
Q 3128 4100 2886 4159 
Q 2644 4219 2406 4219 
Q 1781 4219 1451 3797 
Q 1122 3375 1075 2522 
Q 1259 2794 1537 2939 
Q 1816 3084 2150 3084 
Q 2853 3084 3261 2657 
Q 3669 2231 3669 1497 
Q 3669 778 3244 343 
Q 2819 -91 2113 -91 
Q 1303 -91 875 529 
Q 447 1150 447 2328 
Q 447 3434 972 4092 
Q 1497 4750 2381 4750 
Q 2619 4750 2861 4703 
Q 3103 4656 3366 4563 
z
" id="DejaVuSans-36" transform="scale(0.015625)"/>
       </defs>
       <use xlink:href="#DejaVuSans-30"/>
       <use x="63.623047" xlink:href="#DejaVuSans-2e"/>
       <use x="95.410156" xlink:href="#DejaVuSans-36"/>
      </g>
     </g>
    </g>
    <g id="ytick_5">
     <g id="line2d_41">
      <path clip-path="url(#pa09d5946d0)" d="M 47.81 180.875294 
L 352.98 180.875294 
" style="fill:none;stroke:#000000;stroke-dasharray:0.8,1.32;stroke-dashoffset:0;stroke-opacity:0.5;stroke-width:0.8;"/>
     </g>
     <g id="line2d_42">
      <g>
       <use style="stroke:#000000;stroke-width:0.8;" x="47.81" xlink:href="#m265d3e3e16" y="180.875294"/>
      </g>
     </g>
     <g id="text_22">
      <!-- 0.8 -->
      <g transform="translate(24.906875 184.674513)scale(0.1 -0.1)">
       <defs>
        <path d="M 2034 2216 
Q 1584 2216 1326 1975 
Q 1069 1734 1069 1313 
Q 1069 891 1326 650 
Q 1584 409 2034 409 
Q 2484 409 2743 651 
Q 3003 894 3003 1313 
Q 3003 1734 2745 1975 
Q 2488 2216 2034 2216 
z
M 1403 2484 
Q 997 2584 770 2862 
Q 544 3141 544 3541 
Q 544 4100 942 4425 
Q 1341 4750 2034 4750 
Q 2731 4750 3128 4425 
Q 3525 4100 3525 3541 
Q 3525 3141 3298 2862 
Q 3072 2584 2669 2484 
Q 3125 2378 3379 2068 
Q 3634 1759 3634 1313 
Q 3634 634 3220 271 
Q 2806 -91 2034 -91 
Q 1263 -91 848 271 
Q 434 634 434 1313 
Q 434 1759 690 2068 
Q 947 2378 1403 2484 
z
M 1172 3481 
Q 1172 3119 1398 2916 
Q 1625 2713 2034 2713 
Q 2441 2713 2670 2916 
Q 2900 3119 2900 3481 
Q 2900 3844 2670 4047 
Q 2441 4250 2034 4250 
Q 1625 4250 1398 4047 
Q 1172 3844 1172 3481 
z
" id="DejaVuSans-38" transform="scale(0.015625)"/>
       </defs>
       <use xlink:href="#DejaVuSans-30"/>
       <use x="63.623047" xlink:href="#DejaVuSans-2e"/>
       <use x="95.410156" xlink:href="#DejaVuSans-38"/>
      </g>
     </g>
    </g>
    <g id="ytick_6">
     <g id="line2d_43">
      <path clip-path="url(#pa09d5946d0)" d="M 47.81 146.334118 
L 352.98 146.334118 
" style="fill:none;stroke:#000000;stroke-dasharray:0.8,1.32;stroke-dashoffset:0;stroke-opacity:0.5;stroke-width:0.8;"/>
     </g>
     <g id="line2d_44">
      <g>
       <use style="stroke:#000000;stroke-width:0.8;" x="47.81" xlink:href="#m265d3e3e16" y="146.334118"/>
      </g>
     </g>
     <g id="text_23">
      <!-- 1.0 -->
      <g transform="translate(24.906875 150.133336)scale(0.1 -0.1)">
       <use xlink:href="#DejaVuSans-31"/>
       <use x="63.623047" xlink:href="#DejaVuSans-2e"/>
       <use x="95.410156" xlink:href="#DejaVuSans-30"/>
      </g>
     </g>
    </g>
    <g id="ytick_7">
     <g id="line2d_45">
      <path clip-path="url(#pa09d5946d0)" d="M 47.81 111.792941 
L 352.98 111.792941 
" style="fill:none;stroke:#000000;stroke-dasharray:0.8,1.32;stroke-dashoffset:0;stroke-opacity:0.5;stroke-width:0.8;"/>
     </g>
     <g id="line2d_46">
      <g>
       <use style="stroke:#000000;stroke-width:0.8;" x="47.81" xlink:href="#m265d3e3e16" y="111.792941"/>
      </g>
     </g>
     <g id="text_24">
      <!-- 1.2 -->
      <g transform="translate(24.906875 115.59216)scale(0.1 -0.1)">
       <use xlink:href="#DejaVuSans-31"/>
       <use x="63.623047" xlink:href="#DejaVuSans-2e"/>
       <use x="95.410156" xlink:href="#DejaVuSans-32"/>
      </g>
     </g>
    </g>
    <g id="ytick_8">
     <g id="line2d_47">
      <path clip-path="url(#pa09d5946d0)" d="M 47.81 77.251765 
L 352.98 77.251765 
" style="fill:none;stroke:#000000;stroke-dasharray:0.8,1.32;stroke-dashoffset:0;stroke-opacity:0.5;stroke-width:0.8;"/>
     </g>
     <g id="line2d_48">
      <g>
       <use style="stroke:#000000;stroke-width:0.8;" x="47.81" xlink:href="#m265d3e3e16" y="77.251765"/>
      </g>
     </g>
     <g id="text_25">
      <!-- 1.4 -->
      <g transform="translate(24.906875 81.050983)scale(0.1 -0.1)">
       <use xlink:href="#DejaVuSans-31"/>
       <use x="63.623047" xlink:href="#DejaVuSans-2e"/>
       <use x="95.410156" xlink:href="#DejaVuSans-34"/>
      </g>
     </g>
    </g>
    <g id="ytick_9">
     <g id="line2d_49">
      <path clip-path="url(#pa09d5946d0)" d="M 47.81 42.710588 
L 352.98 42.710588 
" style="fill:none;stroke:#000000;stroke-dasharray:0.8,1.32;stroke-dashoffset:0;stroke-opacity:0.5;stroke-width:0.8;"/>
     </g>
     <g id="line2d_50">
      <g>
       <use style="stroke:#000000;stroke-width:0.8;" x="47.81" xlink:href="#m265d3e3e16" y="42.710588"/>
      </g>
     </g>
     <g id="text_26">
      <!-- 1.6 -->
      <g transform="translate(24.906875 46.509807)scale(0.1 -0.1)">
       <use xlink:href="#DejaVuSans-31"/>
       <use x="63.623047" xlink:href="#DejaVuSans-2e"/>
       <use x="95.410156" xlink:href="#DejaVuSans-36"/>
      </g>
     </g>
    </g>
    <g id="text_27">
     <!-- 7d avg doses per hundred population per day -->
     <g transform="translate(18.827188 286.7275)rotate(-90)scale(0.1 -0.1)">
      <defs>
       <path d="M 525 4666 
L 3525 4666 
L 3525 4397 
L 1831 0 
L 1172 0 
L 2766 4134 
L 525 4134 
L 525 4666 
z
" id="DejaVuSans-37" transform="scale(0.015625)"/>
       <path d="M 2906 2969 
L 2906 4863 
L 3481 4863 
L 3481 0 
L 2906 0 
L 2906 525 
Q 2725 213 2448 61 
Q 2172 -91 1784 -91 
Q 1150 -91 751 415 
Q 353 922 353 1747 
Q 353 2572 751 3078 
Q 1150 3584 1784 3584 
Q 2172 3584 2448 3432 
Q 2725 3281 2906 2969 
z
M 947 1747 
Q 947 1113 1208 752 
Q 1469 391 1925 391 
Q 2381 391 2643 752 
Q 2906 1113 2906 1747 
Q 2906 2381 2643 2742 
Q 2381 3103 1925 3103 
Q 1469 3103 1208 2742 
Q 947 2381 947 1747 
z
" id="DejaVuSans-64" transform="scale(0.015625)"/>
       <path id="DejaVuSans-20" transform="scale(0.015625)"/>
       <path d="M 2834 3397 
L 2834 2853 
Q 2591 2978 2328 3040 
Q 2066 3103 1784 3103 
Q 1356 3103 1142 2972 
Q 928 2841 928 2578 
Q 928 2378 1081 2264 
Q 1234 2150 1697 2047 
L 1894 2003 
Q 2506 1872 2764 1633 
Q 3022 1394 3022 966 
Q 3022 478 2636 193 
Q 2250 -91 1575 -91 
Q 1294 -91 989 -36 
Q 684 19 347 128 
L 347 722 
Q 666 556 975 473 
Q 1284 391 1588 391 
Q 1994 391 2212 530 
Q 2431 669 2431 922 
Q 2431 1156 2273 1281 
Q 2116 1406 1581 1522 
L 1381 1569 
Q 847 1681 609 1914 
Q 372 2147 372 2553 
Q 372 3047 722 3315 
Q 1072 3584 1716 3584 
Q 2034 3584 2315 3537 
Q 2597 3491 2834 3397 
z
" id="DejaVuSans-73" transform="scale(0.015625)"/>
       <path d="M 2631 2963 
Q 2534 3019 2420 3045 
Q 2306 3072 2169 3072 
Q 1681 3072 1420 2755 
Q 1159 2438 1159 1844 
L 1159 0 
L 581 0 
L 581 3500 
L 1159 3500 
L 1159 2956 
Q 1341 3275 1631 3429 
Q 1922 3584 2338 3584 
Q 2397 3584 2469 3576 
Q 2541 3569 2628 3553 
L 2631 2963 
z
" id="DejaVuSans-72" transform="scale(0.015625)"/>
       <path d="M 3513 2113 
L 3513 0 
L 2938 0 
L 2938 2094 
Q 2938 2591 2744 2837 
Q 2550 3084 2163 3084 
Q 1697 3084 1428 2787 
Q 1159 2491 1159 1978 
L 1159 0 
L 581 0 
L 581 4863 
L 1159 4863 
L 1159 2956 
Q 1366 3272 1645 3428 
Q 1925 3584 2291 3584 
Q 2894 3584 3203 3211 
Q 3513 2838 3513 2113 
z
" id="DejaVuSans-68" transform="scale(0.015625)"/>
       <path d="M 603 3500 
L 1178 3500 
L 1178 0 
L 603 0 
L 603 3500 
z
M 603 4863 
L 1178 4863 
L 1178 4134 
L 603 4134 
L 603 4863 
z
" id="DejaVuSans-69" transform="scale(0.015625)"/>
      </defs>
      <use xlink:href="#DejaVuSans-37"/>
      <use x="63.623047" xlink:href="#DejaVuSans-64"/>
      <use x="127.099609" xlink:href="#DejaVuSans-20"/>
      <use x="158.886719" xlink:href="#DejaVuSans-61"/>
      <use x="220.166016" xlink:href="#DejaVuSans-76"/>
      <use x="279.345703" xlink:href="#DejaVuSans-67"/>
      <use x="342.822266" xlink:href="#DejaVuSans-20"/>
      <use x="374.609375" xlink:href="#DejaVuSans-64"/>
      <use x="438.085938" xlink:href="#DejaVuSans-6f"/>
      <use x="499.267578" xlink:href="#DejaVuSans-73"/>
      <use x="551.367188" xlink:href="#DejaVuSans-65"/>
      <use x="612.890625" xlink:href="#DejaVuSans-73"/>
      <use x="664.990234" xlink:href="#DejaVuSans-20"/>
      <use x="696.777344" xlink:href="#DejaVuSans-70"/>
      <use x="760.253906" xlink:href="#DejaVuSans-65"/>
      <use x="821.777344" xlink:href="#DejaVuSans-72"/>
      <use x="862.890625" xlink:href="#DejaVuSans-20"/>
      <use x="894.677734" xlink:href="#DejaVuSans-68"/>
      <use x="958.056641" xlink:href="#DejaVuSans-75"/>
      <use x="1021.435547" xlink:href="#DejaVuSans-6e"/>
      <use x="1084.814453" xlink:href="#DejaVuSans-64"/>
      <use x="1148.291016" xlink:href="#DejaVuSans-72"/>
      <use x="1187.154297" xlink:href="#DejaVuSans-65"/>
      <use x="1248.677734" xlink:href="#DejaVuSans-64"/>
      <use x="1312.154297" xlink:href="#DejaVuSans-20"/>
      <use x="1343.941406" xlink:href="#DejaVuSans-70"/>
      <use x="1407.417969" xlink:href="#DejaVuSans-6f"/>
      <use x="1468.599609" xlink:href="#DejaVuSans-70"/>
      <use x="1532.076172" xlink:href="#DejaVuSans-75"/>
      <use x="1595.455078" xlink:href="#DejaVuSans-6c"/>
      <use x="1623.238281" xlink:href="#DejaVuSans-61"/>
      <use x="1684.517578" xlink:href="#DejaVuSans-74"/>
      <use x="1723.726562" xlink:href="#DejaVuSans-69"/>
      <use x="1751.509766" xlink:href="#DejaVuSans-6f"/>
      <use x="1812.691406" xlink:href="#DejaVuSans-6e"/>
      <use x="1876.070312" xlink:href="#DejaVuSans-20"/>
      <use x="1907.857422" xlink:href="#DejaVuSans-70"/>
      <use x="1971.333984" xlink:href="#DejaVuSans-65"/>
      <use x="2032.857422" xlink:href="#DejaVuSans-72"/>
      <use x="2073.970703" xlink:href="#DejaVuSans-20"/>
      <use x="2105.757812" xlink:href="#DejaVuSans-64"/>
      <use x="2169.234375" xlink:href="#DejaVuSans-61"/>
      <use x="2230.513672" xlink:href="#DejaVuSans-79"/>
     </g>
    </g>
   </g>
   <g id="line2d_51">
    <path clip-path="url(#pa09d5946d0)" d="M -1 309.523079 
L -0.967172 309.523079 
L -0.967172 311.147351 
L 0.283525 311.147351 
L 0.283525 312.593667 
L 1.534221 312.593667 
L 1.534221 307.683082 
L 2.784918 307.683082 
L 2.784918 305.544879 
L 5.286311 305.544879 
L 5.286311 309.556313 
L 6.537008 309.556313 
L 6.537008 310.865158 
L 9.038402 310.865158 
L 9.038402 305.608025 
L 10.289098 305.608025 
L 10.289098 308.416966 
L 11.539795 308.416966 
L 11.539795 310.301678 
L 12.790492 310.301678 
L 12.790492 309.909206 
L 15.291885 309.899538 
L 15.291885 310.779956 
L 16.542582 310.779956 
L 16.542582 308.669852 
L 17.793279 308.669852 
L 17.793279 312.045294 
L 19.043975 312.045294 
L 19.043975 261.081317 
L 20.294672 261.081317 
L 20.294672 255.569183 
L 21.545369 255.569183 
L 21.545369 253.833121 
L 22.796066 253.833121 
L 22.796066 253.237615 
L 24.046762 253.237615 
L 24.046762 248.169315 
L 25.297459 248.169315 
L 25.297459 244.000772 
L 26.548156 244.000772 
L 26.548156 239.703519 
L 27.798852 239.703519 
L 27.798852 286.925262 
L 29.049549 286.925262 
L 29.049549 287.277853 
L 31.550943 287.338884 
L 31.550943 281.422494 
L 32.801639 281.422494 
L 32.801639 280.71399 
L 35.303033 280.725773 
L 35.303033 280.550233 
L 36.55373 280.550233 
L 36.55373 280.408532 
L 39.055123 280.431797 
L 39.055123 280.773812 
L 40.30582 280.773812 
L 40.30582 287.136756 
L 41.556516 287.136756 
L 41.556516 289.040201 
L 42.807213 289.040201 
L 42.807213 290.243299 
L 44.05791 290.243299 
L 44.05791 288.92116 
L 46.559303 288.96074 
L 46.559303 289.109994 
L 47.81 289.109994 
L 47.81 289.288857 
L 49.060697 289.288857 
L 49.060697 289.170723 
L 50.311393 289.170723 
L 50.311393 287.894206 
L 51.56209 287.894206 
L 51.56209 286.270538 
L 52.812787 286.270538 
L 52.812787 287.33556 
L 54.063484 287.33556 
L 54.063484 286.613158 
L 55.31418 286.613158 
L 55.31418 285.331203 
L 56.564877 285.331203 
L 56.564877 284.659559 
L 59.06627 284.597924 
L 59.06627 283.655567 
L 60.316967 283.655567 
L 60.316967 282.836784 
L 61.567664 282.836784 
L 61.567664 281.547276 
L 62.818361 281.547276 
L 62.818361 279.784323 
L 64.069057 279.784323 
L 64.069057 278.306283 
L 65.319754 278.306283 
L 65.319754 276.714641 
L 67.821148 276.683823 
L 67.821148 274.458002 
L 69.071844 274.458002 
L 69.071844 272.628882 
L 70.322541 272.628882 
L 70.322541 270.930586 
L 71.573238 270.930586 
L 71.573238 269.072764 
L 72.823934 269.072764 
L 72.823934 267.43701 
L 74.074631 267.43701 
L 74.074631 267.29259 
L 75.325328 267.29259 
L 75.325328 267.12551 
L 76.576025 267.12551 
L 76.576025 266.772617 
L 77.826721 266.772617 
L 77.826721 265.84567 
L 79.077418 265.84567 
L 79.077418 264.593324 
L 80.328115 264.593324 
L 80.328115 263.531323 
L 81.578811 263.531323 
L 81.578811 262.365689 
L 82.829508 262.365689 
L 82.829508 261.495543 
L 85.330902 261.430887 
L 85.330902 259.629563 
L 86.581598 259.629563 
L 86.581598 258.477526 
L 87.832295 258.477526 
L 87.832295 257.129706 
L 89.082992 257.129706 
L 89.082992 255.875245 
L 91.584385 255.808171 
L 91.584385 255.565256 
L 92.835082 255.565256 
L 92.835082 255.339864 
L 94.085779 255.339864 
L 94.085779 255.097552 
L 95.336475 255.097552 
L 95.336475 254.582413 
L 96.587172 254.582413 
L 96.587172 255.325965 
L 97.837869 255.325965 
L 97.837869 255.452257 
L 100.339262 255.345 
L 100.339262 256.485254 
L 101.589959 256.485254 
L 101.589959 256.947519 
L 102.840656 256.947519 
L 102.840656 263.670909 
L 104.091352 263.670909 
L 104.091352 263.383881 
L 105.342049 263.383881 
L 105.342049 262.918595 
L 106.592746 262.918595 
L 106.592746 262.771455 
L 107.843443 262.771455 
L 107.843443 262.418865 
L 109.094139 262.418865 
L 109.094139 261.126033 
L 110.344836 261.126033 
L 110.344836 260.780392 
L 111.595533 260.780392 
L 111.595533 253.767256 
L 112.84623 253.767256 
L 112.84623 254.113199 
L 115.347623 254.031623 
L 115.347623 253.66453 
L 116.59832 253.66453 
L 116.59832 254.152779 
L 117.849016 254.152779 
L 117.849016 253.255138 
L 119.099713 253.255138 
L 119.099713 250.142251 
L 120.35041 250.142251 
L 120.35041 249.882416 
L 121.601107 249.882416 
L 121.601107 247.851773 
L 122.851803 247.851773 
L 122.851803 245.212329 
L 124.1025 245.212329 
L 124.1025 242.227547 
L 125.353197 242.227547 
L 125.353197 238.117617 
L 126.603893 238.117617 
L 126.603893 236.290914 
L 127.85459 236.290914 
L 127.85459 234.842181 
L 129.105287 234.842181 
L 129.105287 231.937766 
L 130.355984 231.937766 
L 130.355984 230.129796 
L 131.60668 230.129796 
L 131.60668 229.469029 
L 132.857377 229.469029 
L 132.857377 228.542081 
L 134.108074 228.542081 
L 134.108074 228.082838 
L 135.35877 228.082838 
L 135.35877 227.246228 
L 136.609467 227.246228 
L 136.609467 227.706076 
L 137.860164 227.706076 
L 137.860164 225.503519 
L 139.110861 225.503519 
L 139.110861 222.04076 
L 140.361557 222.04076 
L 140.361557 219.666591 
L 141.612254 219.666591 
L 141.612254 216.419254 
L 142.862951 216.419254 
L 142.862951 212.902111 
L 144.113648 212.902111 
L 144.113648 210.633084 
L 145.364344 210.633084 
L 145.364344 209.261697 
L 146.615041 209.261697 
L 146.615041 206.227365 
L 147.865738 206.227365 
L 147.865738 205.201317 
L 149.116434 205.201317 
L 149.116434 203.268566 
L 150.367131 203.268566 
L 150.367131 200.564164 
L 151.617828 200.564164 
L 151.617828 198.283655 
L 152.868525 198.283655 
L 152.868525 197.036748 
L 154.119221 197.036748 
L 154.119221 196.134878 
L 155.369918 196.134878 
L 155.369918 194.214816 
L 156.620615 194.214816 
L 156.620615 191.170513 
L 157.871311 191.170513 
L 157.871311 186.815552 
L 159.122008 186.815552 
L 159.122008 184.403012 
L 160.372705 184.403012 
L 160.372705 180.768943 
L 161.623402 180.768943 
L 161.623402 179.218693 
L 162.874098 179.218693 
L 162.874098 178.481788 
L 164.124795 178.481788 
L 164.124795 174.48546 
L 165.375492 174.48546 
L 165.375492 172.183803 
L 166.626189 172.183803 
L 166.626189 170.884324 
L 167.876885 170.884324 
L 167.876885 167.866307 
L 169.127582 167.866307 
L 169.127582 165.667073 
L 170.378279 165.667073 
L 170.378279 161.894627 
L 171.628975 161.894627 
L 171.628975 162.016991 
L 172.879672 162.016991 
L 172.879672 157.901623 
L 174.130369 157.901623 
L 174.130369 151.240473 
L 175.381066 151.240473 
L 175.381066 144.76151 
L 176.631762 144.76151 
L 176.631762 140.922896 
L 177.882459 140.922896 
L 177.882459 136.059746 
L 179.133156 136.059746 
L 179.133156 133.849031 
L 180.383852 133.849031 
L 180.383852 133.849031 
" style="fill:none;stroke:#1f77b4;stroke-linecap:square;stroke-width:1.5;"/>
   </g>
   <g id="line2d_52">
    <path clip-path="url(#pa09d5946d0)" d="M 180.383852 111.792941 
L 200.395 111.792941 
L 200.395 77.251765 
L 237.915902 77.251765 
L 237.915902 42.710588 
L 272.93541 42.710588 
L 272.93541 319.04 
L 430.523197 319.04 
L 430.523197 319.04 
" style="fill:none;stroke:#ff7f0e;stroke-linecap:square;stroke-width:1.5;"/>
   </g>
   <g id="patch_3">
    <path d="M 47.81 319.04 
L 47.81 25.44 
" style="fill:none;stroke:#000000;stroke-linecap:square;stroke-linejoin:miter;stroke-width:0.8;"/>
   </g>
   <g id="patch_4">
    <path d="M 352.98 319.04 
L 352.98 25.44 
" style="fill:none;stroke:#000000;stroke-linecap:square;stroke-linejoin:miter;stroke-width:0.8;"/>
   </g>
   <g id="patch_5">
    <path d="M 47.81 319.04 
L 352.98 319.04 
" style="fill:none;stroke:#000000;stroke-linecap:square;stroke-linejoin:miter;stroke-width:0.8;"/>
   </g>
   <g id="patch_6">
    <path d="M 47.81 25.44 
L 352.98 25.44 
" style="fill:none;stroke:#000000;stroke-linecap:square;stroke-linejoin:miter;stroke-width:0.8;"/>
   </g>
   <g id="text_28">
    <!-- NSW daily vaccinations per capita -->
    <g transform="translate(98.126875 19.44)scale(0.12 -0.12)">
     <defs>
      <path d="M 213 4666 
L 850 4666 
L 1831 722 
L 2809 4666 
L 3519 4666 
L 4500 722 
L 5478 4666 
L 6119 4666 
L 4947 0 
L 4153 0 
L 3169 4050 
L 2175 0 
L 1381 0 
L 213 4666 
z
" id="DejaVuSans-57" transform="scale(0.015625)"/>
     </defs>
     <use xlink:href="#DejaVuSans-4e"/>
     <use x="74.804688" xlink:href="#DejaVuSans-53"/>
     <use x="138.28125" xlink:href="#DejaVuSans-57"/>
     <use x="237.158203" xlink:href="#DejaVuSans-20"/>
     <use x="268.945312" xlink:href="#DejaVuSans-64"/>
     <use x="332.421875" xlink:href="#DejaVuSans-61"/>
     <use x="393.701172" xlink:href="#DejaVuSans-69"/>
     <use x="421.484375" xlink:href="#DejaVuSans-6c"/>
     <use x="449.267578" xlink:href="#DejaVuSans-79"/>
     <use x="508.447266" xlink:href="#DejaVuSans-20"/>
     <use x="540.234375" xlink:href="#DejaVuSans-76"/>
     <use x="599.414062" xlink:href="#DejaVuSans-61"/>
     <use x="660.693359" xlink:href="#DejaVuSans-63"/>
     <use x="715.673828" xlink:href="#DejaVuSans-63"/>
     <use x="770.654297" xlink:href="#DejaVuSans-69"/>
     <use x="798.4375" xlink:href="#DejaVuSans-6e"/>
     <use x="861.816406" xlink:href="#DejaVuSans-61"/>
     <use x="923.095703" xlink:href="#DejaVuSans-74"/>
     <use x="962.304688" xlink:href="#DejaVuSans-69"/>
     <use x="990.087891" xlink:href="#DejaVuSans-6f"/>
     <use x="1051.269531" xlink:href="#DejaVuSans-6e"/>
     <use x="1114.648438" xlink:href="#DejaVuSans-73"/>
     <use x="1166.748047" xlink:href="#DejaVuSans-20"/>
     <use x="1198.535156" xlink:href="#DejaVuSans-70"/>
     <use x="1262.011719" xlink:href="#DejaVuSans-65"/>
     <use x="1323.535156" xlink:href="#DejaVuSans-72"/>
     <use x="1364.648438" xlink:href="#DejaVuSans-20"/>
     <use x="1396.435547" xlink:href="#DejaVuSans-63"/>
     <use x="1451.416016" xlink:href="#DejaVuSans-61"/>
     <use x="1512.695312" xlink:href="#DejaVuSans-70"/>
     <use x="1576.171875" xlink:href="#DejaVuSans-69"/>
     <use x="1603.955078" xlink:href="#DejaVuSans-74"/>
     <use x="1643.164062" xlink:href="#DejaVuSans-61"/>
    </g>
   </g>
   <g id="legend_1">
    <g id="patch_7">
     <path d="M 54.81 62.79625 
L 202.692813 62.79625 
Q 204.692813 62.79625 204.692813 60.79625 
L 204.692813 32.44 
Q 204.692813 30.44 202.692813 30.44 
L 54.81 30.44 
Q 52.81 30.44 52.81 32.44 
L 52.81 60.79625 
Q 52.81 62.79625 54.81 62.79625 
z
" style="fill:#ffffff;opacity:0.8;stroke:#cccccc;stroke-linejoin:miter;"/>
    </g>
    <g id="line2d_53">
     <path d="M 56.81 38.538437 
L 76.81 38.538437 
" style="fill:none;stroke:#1f77b4;stroke-linecap:square;stroke-width:1.5;"/>
    </g>
    <g id="line2d_54"/>
    <g id="text_29">
     <!-- Actual -->
     <g transform="translate(84.81 42.038437)scale(0.1 -0.1)">
      <use xlink:href="#DejaVuSans-41"/>
      <use x="66.658203" xlink:href="#DejaVuSans-63"/>
      <use x="121.638672" xlink:href="#DejaVuSans-74"/>
      <use x="160.847656" xlink:href="#DejaVuSans-75"/>
      <use x="224.226562" xlink:href="#DejaVuSans-61"/>
      <use x="285.505859" xlink:href="#DejaVuSans-6c"/>
     </g>
    </g>
    <g id="line2d_55">
     <path d="M 56.81 53.216563 
L 76.81 53.216563 
" style="fill:none;stroke:#ff7f0e;stroke-linecap:square;stroke-width:1.5;"/>
    </g>
    <g id="line2d_56"/>
    <g id="text_30">
     <!-- Assumed for projection -->
     <g transform="translate(84.81 56.716563)scale(0.1 -0.1)">
      <defs>
       <path d="M 3328 2828 
Q 3544 3216 3844 3400 
Q 4144 3584 4550 3584 
Q 5097 3584 5394 3201 
Q 5691 2819 5691 2113 
L 5691 0 
L 5113 0 
L 5113 2094 
Q 5113 2597 4934 2840 
Q 4756 3084 4391 3084 
Q 3944 3084 3684 2787 
Q 3425 2491 3425 1978 
L 3425 0 
L 2847 0 
L 2847 2094 
Q 2847 2600 2669 2842 
Q 2491 3084 2119 3084 
Q 1678 3084 1418 2786 
Q 1159 2488 1159 1978 
L 1159 0 
L 581 0 
L 581 3500 
L 1159 3500 
L 1159 2956 
Q 1356 3278 1631 3431 
Q 1906 3584 2284 3584 
Q 2666 3584 2933 3390 
Q 3200 3197 3328 2828 
z
" id="DejaVuSans-6d" transform="scale(0.015625)"/>
       <path d="M 2375 4863 
L 2375 4384 
L 1825 4384 
Q 1516 4384 1395 4259 
Q 1275 4134 1275 3809 
L 1275 3500 
L 2222 3500 
L 2222 3053 
L 1275 3053 
L 1275 0 
L 697 0 
L 697 3053 
L 147 3053 
L 147 3500 
L 697 3500 
L 697 3744 
Q 697 4328 969 4595 
Q 1241 4863 1831 4863 
L 2375 4863 
z
" id="DejaVuSans-66" transform="scale(0.015625)"/>
       <path d="M 603 3500 
L 1178 3500 
L 1178 -63 
Q 1178 -731 923 -1031 
Q 669 -1331 103 -1331 
L -116 -1331 
L -116 -844 
L 38 -844 
Q 366 -844 484 -692 
Q 603 -541 603 -63 
L 603 3500 
z
M 603 4863 
L 1178 4863 
L 1178 4134 
L 603 4134 
L 603 4863 
z
" id="DejaVuSans-6a" transform="scale(0.015625)"/>
      </defs>
      <use xlink:href="#DejaVuSans-41"/>
      <use x="68.408203" xlink:href="#DejaVuSans-73"/>
      <use x="120.507812" xlink:href="#DejaVuSans-73"/>
      <use x="172.607422" xlink:href="#DejaVuSans-75"/>
      <use x="235.986328" xlink:href="#DejaVuSans-6d"/>
      <use x="333.398438" xlink:href="#DejaVuSans-65"/>
      <use x="394.921875" xlink:href="#DejaVuSans-64"/>
      <use x="458.398438" xlink:href="#DejaVuSans-20"/>
      <use x="490.185547" xlink:href="#DejaVuSans-66"/>
      <use x="525.390625" xlink:href="#DejaVuSans-6f"/>
      <use x="586.572266" xlink:href="#DejaVuSans-72"/>
      <use x="627.685547" xlink:href="#DejaVuSans-20"/>
      <use x="659.472656" xlink:href="#DejaVuSans-70"/>
      <use x="722.949219" xlink:href="#DejaVuSans-72"/>
      <use x="761.8125" xlink:href="#DejaVuSans-6f"/>
      <use x="822.994141" xlink:href="#DejaVuSans-6a"/>
      <use x="850.777344" xlink:href="#DejaVuSans-65"/>
      <use x="912.300781" xlink:href="#DejaVuSans-63"/>
      <use x="967.28125" xlink:href="#DejaVuSans-74"/>
      <use x="1006.490234" xlink:href="#DejaVuSans-69"/>
      <use x="1034.273438" xlink:href="#DejaVuSans-6f"/>
      <use x="1095.455078" xlink:href="#DejaVuSans-6e"/>
     </g>
    </g>
   </g>
  </g>
  <g id="axes_2">
   <g id="patch_8">
    <path d="M 404.03 319.04 
L 709.2 319.04 
L 709.2 25.44 
L 404.03 25.44 
z
" style="fill:#ffffff;"/>
   </g>
   <g id="matplotlib.axis_3">
    <g id="xtick_17">
     <g id="line2d_57">
      <path clip-path="url(#p5da7debb56)" d="M 404.03 319.04 
L 404.03 25.44 
" style="fill:none;stroke:#000000;stroke-dasharray:0.8,1.32;stroke-dashoffset:0;stroke-opacity:0.5;stroke-width:0.8;"/>
     </g>
     <g id="line2d_58">
      <g>
       <use style="stroke:#000000;stroke-width:0.8;" x="404.03" xlink:href="#m93fa963f7f" y="319.04"/>
      </g>
     </g>
     <g id="text_31">
      <!-- May -->
      <g transform="translate(393.6925 333.638438)scale(0.1 -0.1)">
       <use xlink:href="#DejaVuSans-4d"/>
       <use x="86.279297" xlink:href="#DejaVuSans-61"/>
       <use x="147.558594" xlink:href="#DejaVuSans-79"/>
      </g>
     </g>
    </g>
    <g id="xtick_18">
     <g id="line2d_59">
      <path clip-path="url(#p5da7debb56)" d="M 421.539754 319.04 
L 421.539754 25.44 
" style="fill:none;stroke:#000000;stroke-dasharray:0.8,1.32;stroke-dashoffset:0;stroke-opacity:0.5;stroke-width:0.8;"/>
     </g>
     <g id="line2d_60">
      <g>
       <use style="stroke:#000000;stroke-width:0.8;" x="421.539754" xlink:href="#m93fa963f7f" y="319.04"/>
      </g>
     </g>
     <g id="text_32">
      <!-- 15 -->
      <g transform="translate(415.177254 333.638438)scale(0.1 -0.1)">
       <use xlink:href="#DejaVuSans-31"/>
       <use x="63.623047" xlink:href="#DejaVuSans-35"/>
      </g>
     </g>
    </g>
    <g id="xtick_19">
     <g id="line2d_61">
      <path clip-path="url(#p5da7debb56)" d="M 442.801598 319.04 
L 442.801598 25.44 
" style="fill:none;stroke:#000000;stroke-dasharray:0.8,1.32;stroke-dashoffset:0;stroke-opacity:0.5;stroke-width:0.8;"/>
     </g>
     <g id="line2d_62">
      <g>
       <use style="stroke:#000000;stroke-width:0.8;" x="442.801598" xlink:href="#m93fa963f7f" y="319.04"/>
      </g>
     </g>
     <g id="text_33">
      <!-- Jun -->
      <g transform="translate(434.989098 333.638438)scale(0.1 -0.1)">
       <use xlink:href="#DejaVuSans-4a"/>
       <use x="29.492188" xlink:href="#DejaVuSans-75"/>
       <use x="92.871094" xlink:href="#DejaVuSans-6e"/>
      </g>
     </g>
    </g>
    <g id="xtick_20">
     <g id="line2d_63">
      <path clip-path="url(#p5da7debb56)" d="M 460.311352 319.04 
L 460.311352 25.44 
" style="fill:none;stroke:#000000;stroke-dasharray:0.8,1.32;stroke-dashoffset:0;stroke-opacity:0.5;stroke-width:0.8;"/>
     </g>
     <g id="line2d_64">
      <g>
       <use style="stroke:#000000;stroke-width:0.8;" x="460.311352" xlink:href="#m93fa963f7f" y="319.04"/>
      </g>
     </g>
     <g id="text_34">
      <!-- 15 -->
      <g transform="translate(453.948852 333.638438)scale(0.1 -0.1)">
       <use xlink:href="#DejaVuSans-31"/>
       <use x="63.623047" xlink:href="#DejaVuSans-35"/>
      </g>
     </g>
    </g>
    <g id="xtick_21">
     <g id="line2d_65">
      <path clip-path="url(#p5da7debb56)" d="M 480.3225 319.04 
L 480.3225 25.44 
" style="fill:none;stroke:#000000;stroke-dasharray:0.8,1.32;stroke-dashoffset:0;stroke-opacity:0.5;stroke-width:0.8;"/>
     </g>
     <g id="line2d_66">
      <g>
       <use style="stroke:#000000;stroke-width:0.8;" x="480.3225" xlink:href="#m93fa963f7f" y="319.04"/>
      </g>
     </g>
     <g id="text_35">
      <!-- Jul -->
      <g transform="translate(474.289687 333.638438)scale(0.1 -0.1)">
       <use xlink:href="#DejaVuSans-4a"/>
       <use x="29.492188" xlink:href="#DejaVuSans-75"/>
       <use x="92.871094" xlink:href="#DejaVuSans-6c"/>
      </g>
     </g>
    </g>
    <g id="xtick_22">
     <g id="line2d_67">
      <path clip-path="url(#p5da7debb56)" d="M 497.832254 319.04 
L 497.832254 25.44 
" style="fill:none;stroke:#000000;stroke-dasharray:0.8,1.32;stroke-dashoffset:0;stroke-opacity:0.5;stroke-width:0.8;"/>
     </g>
     <g id="line2d_68">
      <g>
       <use style="stroke:#000000;stroke-width:0.8;" x="497.832254" xlink:href="#m93fa963f7f" y="319.04"/>
      </g>
     </g>
     <g id="text_36">
      <!-- 15 -->
      <g transform="translate(491.469754 333.638438)scale(0.1 -0.1)">
       <use xlink:href="#DejaVuSans-31"/>
       <use x="63.623047" xlink:href="#DejaVuSans-35"/>
      </g>
     </g>
    </g>
    <g id="xtick_23">
     <g id="line2d_69">
      <path clip-path="url(#p5da7debb56)" d="M 519.094098 319.04 
L 519.094098 25.44 
" style="fill:none;stroke:#000000;stroke-dasharray:0.8,1.32;stroke-dashoffset:0;stroke-opacity:0.5;stroke-width:0.8;"/>
     </g>
     <g id="line2d_70">
      <g>
       <use style="stroke:#000000;stroke-width:0.8;" x="519.094098" xlink:href="#m93fa963f7f" y="319.04"/>
      </g>
     </g>
     <g id="text_37">
      <!-- Aug -->
      <g transform="translate(509.330817 333.638438)scale(0.1 -0.1)">
       <use xlink:href="#DejaVuSans-41"/>
       <use x="68.408203" xlink:href="#DejaVuSans-75"/>
       <use x="131.787109" xlink:href="#DejaVuSans-67"/>
      </g>
     </g>
    </g>
    <g id="xtick_24">
     <g id="line2d_71">
      <path clip-path="url(#p5da7debb56)" d="M 536.603852 319.04 
L 536.603852 25.44 
" style="fill:none;stroke:#000000;stroke-dasharray:0.8,1.32;stroke-dashoffset:0;stroke-opacity:0.5;stroke-width:0.8;"/>
     </g>
     <g id="line2d_72">
      <g>
       <use style="stroke:#000000;stroke-width:0.8;" x="536.603852" xlink:href="#m93fa963f7f" y="319.04"/>
      </g>
     </g>
     <g id="text_38">
      <!-- 15 -->
      <g transform="translate(530.241352 333.638438)scale(0.1 -0.1)">
       <use xlink:href="#DejaVuSans-31"/>
       <use x="63.623047" xlink:href="#DejaVuSans-35"/>
      </g>
     </g>
    </g>
    <g id="xtick_25">
     <g id="line2d_73">
      <path clip-path="url(#p5da7debb56)" d="M 557.865697 319.04 
L 557.865697 25.44 
" style="fill:none;stroke:#000000;stroke-dasharray:0.8,1.32;stroke-dashoffset:0;stroke-opacity:0.5;stroke-width:0.8;"/>
     </g>
     <g id="line2d_74">
      <g>
       <use style="stroke:#000000;stroke-width:0.8;" x="557.865697" xlink:href="#m93fa963f7f" y="319.04"/>
      </g>
     </g>
     <g id="text_39">
      <!-- Sep -->
      <g transform="translate(548.440697 333.638438)scale(0.1 -0.1)">
       <use xlink:href="#DejaVuSans-53"/>
       <use x="63.476562" xlink:href="#DejaVuSans-65"/>
       <use x="125" xlink:href="#DejaVuSans-70"/>
      </g>
     </g>
    </g>
    <g id="xtick_26">
     <g id="line2d_75">
      <path clip-path="url(#p5da7debb56)" d="M 575.375451 319.04 
L 575.375451 25.44 
" style="fill:none;stroke:#000000;stroke-dasharray:0.8,1.32;stroke-dashoffset:0;stroke-opacity:0.5;stroke-width:0.8;"/>
     </g>
     <g id="line2d_76">
      <g>
       <use style="stroke:#000000;stroke-width:0.8;" x="575.375451" xlink:href="#m93fa963f7f" y="319.04"/>
      </g>
     </g>
     <g id="text_40">
      <!-- 15 -->
      <g transform="translate(569.012951 333.638438)scale(0.1 -0.1)">
       <use xlink:href="#DejaVuSans-31"/>
       <use x="63.623047" xlink:href="#DejaVuSans-35"/>
      </g>
     </g>
    </g>
    <g id="xtick_27">
     <g id="line2d_77">
      <path clip-path="url(#p5da7debb56)" d="M 595.386598 319.04 
L 595.386598 25.44 
" style="fill:none;stroke:#000000;stroke-dasharray:0.8,1.32;stroke-dashoffset:0;stroke-opacity:0.5;stroke-width:0.8;"/>
     </g>
     <g id="line2d_78">
      <g>
       <use style="stroke:#000000;stroke-width:0.8;" x="595.386598" xlink:href="#m93fa963f7f" y="319.04"/>
      </g>
     </g>
     <g id="text_41">
      <!-- Oct -->
      <g transform="translate(586.741286 333.638438)scale(0.1 -0.1)">
       <use xlink:href="#DejaVuSans-4f"/>
       <use x="78.710938" xlink:href="#DejaVuSans-63"/>
       <use x="133.691406" xlink:href="#DejaVuSans-74"/>
      </g>
     </g>
    </g>
    <g id="xtick_28">
     <g id="line2d_79">
      <path clip-path="url(#p5da7debb56)" d="M 612.896352 319.04 
L 612.896352 25.44 
" style="fill:none;stroke:#000000;stroke-dasharray:0.8,1.32;stroke-dashoffset:0;stroke-opacity:0.5;stroke-width:0.8;"/>
     </g>
     <g id="line2d_80">
      <g>
       <use style="stroke:#000000;stroke-width:0.8;" x="612.896352" xlink:href="#m93fa963f7f" y="319.04"/>
      </g>
     </g>
     <g id="text_42">
      <!-- 15 -->
      <g transform="translate(606.533852 333.638438)scale(0.1 -0.1)">
       <use xlink:href="#DejaVuSans-31"/>
       <use x="63.623047" xlink:href="#DejaVuSans-35"/>
      </g>
     </g>
    </g>
    <g id="xtick_29">
     <g id="line2d_81">
      <path clip-path="url(#p5da7debb56)" d="M 634.158197 319.04 
L 634.158197 25.44 
" style="fill:none;stroke:#000000;stroke-dasharray:0.8,1.32;stroke-dashoffset:0;stroke-opacity:0.5;stroke-width:0.8;"/>
     </g>
     <g id="line2d_82">
      <g>
       <use style="stroke:#000000;stroke-width:0.8;" x="634.158197" xlink:href="#m93fa963f7f" y="319.04"/>
      </g>
     </g>
     <g id="text_43">
      <!-- Nov -->
      <g transform="translate(624.398822 333.638438)scale(0.1 -0.1)">
       <use xlink:href="#DejaVuSans-4e"/>
       <use x="74.804688" xlink:href="#DejaVuSans-6f"/>
       <use x="135.986328" xlink:href="#DejaVuSans-76"/>
      </g>
     </g>
    </g>
    <g id="xtick_30">
     <g id="line2d_83">
      <path clip-path="url(#p5da7debb56)" d="M 651.667951 319.04 
L 651.667951 25.44 
" style="fill:none;stroke:#000000;stroke-dasharray:0.8,1.32;stroke-dashoffset:0;stroke-opacity:0.5;stroke-width:0.8;"/>
     </g>
     <g id="line2d_84">
      <g>
       <use style="stroke:#000000;stroke-width:0.8;" x="651.667951" xlink:href="#m93fa963f7f" y="319.04"/>
      </g>
     </g>
     <g id="text_44">
      <!-- 15 -->
      <g transform="translate(645.305451 333.638438)scale(0.1 -0.1)">
       <use xlink:href="#DejaVuSans-31"/>
       <use x="63.623047" xlink:href="#DejaVuSans-35"/>
      </g>
     </g>
    </g>
    <g id="xtick_31">
     <g id="line2d_85">
      <path clip-path="url(#p5da7debb56)" d="M 671.679098 319.04 
L 671.679098 25.44 
" style="fill:none;stroke:#000000;stroke-dasharray:0.8,1.32;stroke-dashoffset:0;stroke-opacity:0.5;stroke-width:0.8;"/>
     </g>
     <g id="line2d_86">
      <g>
       <use style="stroke:#000000;stroke-width:0.8;" x="671.679098" xlink:href="#m93fa963f7f" y="319.04"/>
      </g>
     </g>
     <g id="text_45">
      <!-- Dec -->
      <g transform="translate(662.003317 333.638438)scale(0.1 -0.1)">
       <use xlink:href="#DejaVuSans-44"/>
       <use x="77.001953" xlink:href="#DejaVuSans-65"/>
       <use x="138.525391" xlink:href="#DejaVuSans-63"/>
      </g>
     </g>
    </g>
    <g id="xtick_32">
     <g id="line2d_87">
      <path clip-path="url(#p5da7debb56)" d="M 689.188852 319.04 
L 689.188852 25.44 
" style="fill:none;stroke:#000000;stroke-dasharray:0.8,1.32;stroke-dashoffset:0;stroke-opacity:0.5;stroke-width:0.8;"/>
     </g>
     <g id="line2d_88">
      <g>
       <use style="stroke:#000000;stroke-width:0.8;" x="689.188852" xlink:href="#m93fa963f7f" y="319.04"/>
      </g>
     </g>
     <g id="text_46">
      <!-- 15 -->
      <g transform="translate(682.826352 333.638438)scale(0.1 -0.1)">
       <use xlink:href="#DejaVuSans-31"/>
       <use x="63.623047" xlink:href="#DejaVuSans-35"/>
      </g>
     </g>
    </g>
    <g id="text_47">
     <!-- 2021-Dec -->
     <g transform="translate(660.790625 346.316563)scale(0.1 -0.1)">
      <use xlink:href="#DejaVuSans-32"/>
      <use x="63.623047" xlink:href="#DejaVuSans-30"/>
      <use x="127.246094" xlink:href="#DejaVuSans-32"/>
      <use x="190.869141" xlink:href="#DejaVuSans-31"/>
      <use x="254.492188" xlink:href="#DejaVuSans-2d"/>
      <use x="290.576172" xlink:href="#DejaVuSans-44"/>
      <use x="367.578125" xlink:href="#DejaVuSans-65"/>
      <use x="429.101562" xlink:href="#DejaVuSans-63"/>
     </g>
    </g>
   </g>
   <g id="matplotlib.axis_4">
    <g id="ytick_10">
     <g id="line2d_89">
      <path clip-path="url(#p5da7debb56)" d="M 404.03 319.04 
L 709.2 319.04 
" style="fill:none;stroke:#000000;stroke-dasharray:0.8,1.32;stroke-dashoffset:0;stroke-opacity:0.5;stroke-width:0.8;"/>
     </g>
     <g id="line2d_90">
      <g>
       <use style="stroke:#000000;stroke-width:0.8;" x="404.03" xlink:href="#m265d3e3e16" y="319.04"/>
      </g>
     </g>
     <g id="text_48">
      <!-- 0 -->
      <g transform="translate(390.6675 322.839219)scale(0.1 -0.1)">
       <use xlink:href="#DejaVuSans-30"/>
      </g>
     </g>
    </g>
    <g id="ytick_11">
     <g id="line2d_91">
      <path clip-path="url(#p5da7debb56)" d="M 404.03 282.34 
L 709.2 282.34 
" style="fill:none;stroke:#000000;stroke-dasharray:0.8,1.32;stroke-dashoffset:0;stroke-opacity:0.5;stroke-width:0.8;"/>
     </g>
     <g id="line2d_92">
      <g>
       <use style="stroke:#000000;stroke-width:0.8;" x="404.03" xlink:href="#m265d3e3e16" y="282.34"/>
      </g>
     </g>
     <g id="text_49">
      <!-- 25 -->
      <g transform="translate(384.305 286.139219)scale(0.1 -0.1)">
       <use xlink:href="#DejaVuSans-32"/>
       <use x="63.623047" xlink:href="#DejaVuSans-35"/>
      </g>
     </g>
    </g>
    <g id="ytick_12">
     <g id="line2d_93">
      <path clip-path="url(#p5da7debb56)" d="M 404.03 245.64 
L 709.2 245.64 
" style="fill:none;stroke:#000000;stroke-dasharray:0.8,1.32;stroke-dashoffset:0;stroke-opacity:0.5;stroke-width:0.8;"/>
     </g>
     <g id="line2d_94">
      <g>
       <use style="stroke:#000000;stroke-width:0.8;" x="404.03" xlink:href="#m265d3e3e16" y="245.64"/>
      </g>
     </g>
     <g id="text_50">
      <!-- 50 -->
      <g transform="translate(384.305 249.439219)scale(0.1 -0.1)">
       <use xlink:href="#DejaVuSans-35"/>
       <use x="63.623047" xlink:href="#DejaVuSans-30"/>
      </g>
     </g>
    </g>
    <g id="ytick_13">
     <g id="line2d_95">
      <path clip-path="url(#p5da7debb56)" d="M 404.03 208.94 
L 709.2 208.94 
" style="fill:none;stroke:#000000;stroke-dasharray:0.8,1.32;stroke-dashoffset:0;stroke-opacity:0.5;stroke-width:0.8;"/>
     </g>
     <g id="line2d_96">
      <g>
       <use style="stroke:#000000;stroke-width:0.8;" x="404.03" xlink:href="#m265d3e3e16" y="208.94"/>
      </g>
     </g>
     <g id="text_51">
      <!-- 75 -->
      <g transform="translate(384.305 212.739219)scale(0.1 -0.1)">
       <use xlink:href="#DejaVuSans-37"/>
       <use x="63.623047" xlink:href="#DejaVuSans-35"/>
      </g>
     </g>
    </g>
    <g id="ytick_14">
     <g id="line2d_97">
      <path clip-path="url(#p5da7debb56)" d="M 404.03 172.24 
L 709.2 172.24 
" style="fill:none;stroke:#000000;stroke-dasharray:0.8,1.32;stroke-dashoffset:0;stroke-opacity:0.5;stroke-width:0.8;"/>
     </g>
     <g id="line2d_98">
      <g>
       <use style="stroke:#000000;stroke-width:0.8;" x="404.03" xlink:href="#m265d3e3e16" y="172.24"/>
      </g>
     </g>
     <g id="text_52">
      <!-- 100 -->
      <g transform="translate(377.9425 176.039219)scale(0.1 -0.1)">
       <use xlink:href="#DejaVuSans-31"/>
       <use x="63.623047" xlink:href="#DejaVuSans-30"/>
       <use x="127.246094" xlink:href="#DejaVuSans-30"/>
      </g>
     </g>
    </g>
    <g id="ytick_15">
     <g id="line2d_99">
      <path clip-path="url(#p5da7debb56)" d="M 404.03 135.54 
L 709.2 135.54 
" style="fill:none;stroke:#000000;stroke-dasharray:0.8,1.32;stroke-dashoffset:0;stroke-opacity:0.5;stroke-width:0.8;"/>
     </g>
     <g id="line2d_100">
      <g>
       <use style="stroke:#000000;stroke-width:0.8;" x="404.03" xlink:href="#m265d3e3e16" y="135.54"/>
      </g>
     </g>
     <g id="text_53">
      <!-- 125 -->
      <g transform="translate(377.9425 139.339219)scale(0.1 -0.1)">
       <use xlink:href="#DejaVuSans-31"/>
       <use x="63.623047" xlink:href="#DejaVuSans-32"/>
       <use x="127.246094" xlink:href="#DejaVuSans-35"/>
      </g>
     </g>
    </g>
    <g id="ytick_16">
     <g id="line2d_101">
      <path clip-path="url(#p5da7debb56)" d="M 404.03 98.84 
L 709.2 98.84 
" style="fill:none;stroke:#000000;stroke-dasharray:0.8,1.32;stroke-dashoffset:0;stroke-opacity:0.5;stroke-width:0.8;"/>
     </g>
     <g id="line2d_102">
      <g>
       <use style="stroke:#000000;stroke-width:0.8;" x="404.03" xlink:href="#m265d3e3e16" y="98.84"/>
      </g>
     </g>
     <g id="text_54">
      <!-- 150 -->
      <g transform="translate(377.9425 102.639219)scale(0.1 -0.1)">
       <use xlink:href="#DejaVuSans-31"/>
       <use x="63.623047" xlink:href="#DejaVuSans-35"/>
       <use x="127.246094" xlink:href="#DejaVuSans-30"/>
      </g>
     </g>
    </g>
    <g id="ytick_17">
     <g id="line2d_103">
      <path clip-path="url(#p5da7debb56)" d="M 404.03 62.14 
L 709.2 62.14 
" style="fill:none;stroke:#000000;stroke-dasharray:0.8,1.32;stroke-dashoffset:0;stroke-opacity:0.5;stroke-width:0.8;"/>
     </g>
     <g id="line2d_104">
      <g>
       <use style="stroke:#000000;stroke-width:0.8;" x="404.03" xlink:href="#m265d3e3e16" y="62.14"/>
      </g>
     </g>
     <g id="text_55">
      <!-- 175 -->
      <g transform="translate(377.9425 65.939219)scale(0.1 -0.1)">
       <use xlink:href="#DejaVuSans-31"/>
       <use x="63.623047" xlink:href="#DejaVuSans-37"/>
       <use x="127.246094" xlink:href="#DejaVuSans-35"/>
      </g>
     </g>
    </g>
    <g id="ytick_18">
     <g id="line2d_105">
      <path clip-path="url(#p5da7debb56)" d="M 404.03 25.44 
L 709.2 25.44 
" style="fill:none;stroke:#000000;stroke-dasharray:0.8,1.32;stroke-dashoffset:0;stroke-opacity:0.5;stroke-width:0.8;"/>
     </g>
     <g id="line2d_106">
      <g>
       <use style="stroke:#000000;stroke-width:0.8;" x="404.03" xlink:href="#m265d3e3e16" y="25.44"/>
      </g>
     </g>
     <g id="text_56">
      <!-- 200 -->
      <g transform="translate(377.9425 29.239219)scale(0.1 -0.1)">
       <use xlink:href="#DejaVuSans-32"/>
       <use x="63.623047" xlink:href="#DejaVuSans-30"/>
       <use x="127.246094" xlink:href="#DejaVuSans-30"/>
      </g>
     </g>
    </g>
    <g id="text_57">
     <!-- cumulative doses per hundred population -->
     <g transform="translate(371.862813 276.698594)rotate(-90)scale(0.1 -0.1)">
      <use xlink:href="#DejaVuSans-63"/>
      <use x="54.980469" xlink:href="#DejaVuSans-75"/>
      <use x="118.359375" xlink:href="#DejaVuSans-6d"/>
      <use x="215.771484" xlink:href="#DejaVuSans-75"/>
      <use x="279.150391" xlink:href="#DejaVuSans-6c"/>
      <use x="306.933594" xlink:href="#DejaVuSans-61"/>
      <use x="368.212891" xlink:href="#DejaVuSans-74"/>
      <use x="407.421875" xlink:href="#DejaVuSans-69"/>
      <use x="435.205078" xlink:href="#DejaVuSans-76"/>
      <use x="494.384766" xlink:href="#DejaVuSans-65"/>
      <use x="555.908203" xlink:href="#DejaVuSans-20"/>
      <use x="587.695312" xlink:href="#DejaVuSans-64"/>
      <use x="651.171875" xlink:href="#DejaVuSans-6f"/>
      <use x="712.353516" xlink:href="#DejaVuSans-73"/>
      <use x="764.453125" xlink:href="#DejaVuSans-65"/>
      <use x="825.976562" xlink:href="#DejaVuSans-73"/>
      <use x="878.076172" xlink:href="#DejaVuSans-20"/>
      <use x="909.863281" xlink:href="#DejaVuSans-70"/>
      <use x="973.339844" xlink:href="#DejaVuSans-65"/>
      <use x="1034.863281" xlink:href="#DejaVuSans-72"/>
      <use x="1075.976562" xlink:href="#DejaVuSans-20"/>
      <use x="1107.763672" xlink:href="#DejaVuSans-68"/>
      <use x="1171.142578" xlink:href="#DejaVuSans-75"/>
      <use x="1234.521484" xlink:href="#DejaVuSans-6e"/>
      <use x="1297.900391" xlink:href="#DejaVuSans-64"/>
      <use x="1361.376953" xlink:href="#DejaVuSans-72"/>
      <use x="1400.240234" xlink:href="#DejaVuSans-65"/>
      <use x="1461.763672" xlink:href="#DejaVuSans-64"/>
      <use x="1525.240234" xlink:href="#DejaVuSans-20"/>
      <use x="1557.027344" xlink:href="#DejaVuSans-70"/>
      <use x="1620.503906" xlink:href="#DejaVuSans-6f"/>
      <use x="1681.685547" xlink:href="#DejaVuSans-70"/>
      <use x="1745.162109" xlink:href="#DejaVuSans-75"/>
      <use x="1808.541016" xlink:href="#DejaVuSans-6c"/>
      <use x="1836.324219" xlink:href="#DejaVuSans-61"/>
      <use x="1897.603516" xlink:href="#DejaVuSans-74"/>
      <use x="1936.8125" xlink:href="#DejaVuSans-69"/>
      <use x="1964.595703" xlink:href="#DejaVuSans-6f"/>
      <use x="2025.777344" xlink:href="#DejaVuSans-6e"/>
     </g>
    </g>
   </g>
   <g id="line2d_107">
    <path clip-path="url(#p5da7debb56)" d="M 310.227746 319.04 
L 322.734713 318.941127 
L 322.734713 318.905173 
L 328.988197 318.816654 
L 328.988197 318.777536 
L 335.24168 318.682366 
L 335.24168 318.648767 
L 338.99377 318.554622 
L 338.99377 318.477087 
L 343.996557 318.378088 
L 343.996557 318.364911 
L 346.497951 318.294962 
L 346.497951 318.198318 
L 352.751434 318.112262 
L 352.751434 317.873582 
L 354.002131 317.873582 
L 354.002131 317.728705 
L 357.754221 317.728705 
L 357.754221 317.436525 
L 359.004918 317.436525 
L 359.004918 317.309302 
L 365.258402 317.242302 
L 365.258402 316.929503 
L 366.509098 316.929503 
L 366.509098 316.804455 
L 372.762582 316.75083 
L 372.762582 316.625278 
L 374.013279 316.625278 
L 374.013279 316.513318 
L 375.263975 316.513318 
L 375.263975 313.355913 
L 376.514672 313.355913 
L 376.514672 313.012859 
L 377.765369 313.012859 
L 377.765369 312.886211 
L 380.266762 312.850203 
L 380.266762 312.534024 
L 381.517459 312.534024 
L 381.517459 312.160444 
L 382.768156 312.160444 
L 382.768156 311.792797 
L 384.018852 311.792797 
L 384.018852 311.445086 
L 385.269549 311.445086 
L 385.269549 311.123011 
L 386.520246 311.123011 
L 386.520246 310.999994 
L 387.770943 310.999994 
L 387.770943 310.611961 
L 389.021639 310.611961 
L 389.021639 310.253626 
L 390.272336 310.253626 
L 390.272336 309.880748 
L 391.523033 309.880748 
L 391.523033 309.502656 
L 392.77373 309.502656 
L 392.77373 309.146514 
L 394.024426 309.146514 
L 394.024426 308.825823 
L 396.52582 308.723156 
L 396.52582 308.713718 
L 397.776516 308.713718 
L 397.776516 308.468638 
L 399.027213 308.468638 
L 399.027213 308.167344 
L 400.27791 308.167344 
L 400.27791 307.710585 
L 401.528607 307.710585 
L 401.528607 307.356798 
L 402.779303 307.356798 
L 402.779303 307.044987 
L 406.531393 306.936496 
L 406.531393 306.615464 
L 407.78209 306.615464 
L 407.78209 306.217561 
L 409.032787 306.217561 
L 409.032787 305.824171 
L 410.283484 305.824171 
L 410.283484 305.427401 
L 411.53418 305.427401 
L 411.53418 305.039314 
L 412.784877 305.039314 
L 412.784877 304.907327 
L 415.28627 304.887193 
L 415.28627 304.51009 
L 416.536967 304.51009 
L 416.536967 304.06347 
L 417.787664 304.06347 
L 417.787664 303.593354 
L 419.038361 303.593354 
L 419.038361 303.091688 
L 420.289057 303.091688 
L 420.289057 302.615658 
L 421.539754 302.615658 
L 421.539754 302.388968 
L 424.041148 302.367 
L 424.041148 301.857461 
L 425.291844 301.857461 
L 425.291844 301.302008 
L 426.542541 301.302008 
L 426.542541 300.730844 
L 427.793238 300.730844 
L 427.793238 300.118638 
L 429.043934 300.118638 
L 429.043934 299.54528 
L 430.294631 299.54528 
L 430.294631 299.309997 
L 432.796025 299.278088 
L 432.796025 298.747552 
L 434.046721 298.747552 
L 434.046721 298.136946 
L 435.297418 298.136946 
L 435.297418 297.491266 
L 436.548115 297.491266 
L 436.548115 296.815871 
L 437.798811 296.815871 
L 437.798811 296.173159 
L 439.049508 296.173159 
L 439.049508 295.886102 
L 441.550902 295.850346 
L 441.550902 295.212631 
L 442.801598 295.212631 
L 442.801598 294.533478 
L 444.052295 294.533478 
L 444.052295 293.807604 
L 445.302992 293.807604 
L 445.302992 293.057569 
L 446.553689 293.057569 
L 446.553689 292.410865 
L 447.804385 292.410865 
L 447.804385 292.109355 
L 450.305779 292.060188 
L 450.305779 291.408055 
L 451.556475 291.408055 
L 451.556475 290.698252 
L 452.807172 290.698252 
L 452.807172 290.016619 
L 454.057869 290.016619 
L 454.057869 289.274098 
L 455.308566 289.274098 
L 455.308566 288.621012 
L 456.559262 288.621012 
L 456.559262 288.387347 
L 459.060656 288.365685 
L 459.060656 288.113594 
L 460.311352 288.113594 
L 460.311352 287.386713 
L 461.562049 287.386713 
L 461.562049 286.677395 
L 462.812746 286.677395 
L 462.812746 285.926119 
L 464.063443 285.926119 
L 464.063443 285.252055 
L 465.314139 285.252055 
L 465.314139 284.941466 
L 467.815533 284.899239 
L 467.815533 284.229866 
L 469.06623 284.229866 
L 469.06623 283.523568 
L 470.316926 283.523568 
L 470.316926 282.809397 
L 471.567623 282.809397 
L 471.567623 282.036279 
L 472.81832 282.036279 
L 472.81832 281.391265 
L 474.069016 281.391265 
L 474.069016 281.027267 
L 475.319713 281.027267 
L 475.319713 280.799822 
L 476.57041 280.799822 
L 476.57041 280.114989 
L 477.821107 280.114989 
L 477.821107 279.287869 
L 479.071803 279.287869 
L 479.071803 278.41665 
L 480.3225 278.41665 
L 480.3225 277.465938 
L 481.573197 277.465938 
L 481.573197 276.576383 
L 482.823893 276.576383 
L 482.823893 276.103697 
L 484.07459 276.103697 
L 484.07459 275.790052 
L 485.325287 275.790052 
L 485.325287 274.932407 
L 486.575984 274.932407 
L 486.575984 273.997712 
L 487.82668 273.997712 
L 487.82668 273.087178 
L 489.077377 273.087178 
L 489.077377 272.081312 
L 490.328074 272.081312 
L 490.328074 271.164432 
L 491.57877 271.164432 
L 491.57877 270.641967 
L 492.829467 270.641967 
L 492.829467 270.355684 
L 494.080164 270.355684 
L 494.080164 269.366986 
L 495.330861 269.366986 
L 495.330861 268.226257 
L 496.581557 268.226257 
L 496.581557 267.17446 
L 497.832254 267.17446 
L 497.832254 265.975377 
L 499.082951 265.975377 
L 499.082951 264.849228 
L 500.333648 264.849228 
L 500.333648 264.191756 
L 501.584344 264.191756 
L 501.584344 263.823875 
L 502.835041 263.823875 
L 502.835041 262.654634 
L 504.085738 262.654634 
L 504.085738 261.452855 
L 505.336434 261.452855 
L 505.336434 260.286059 
L 506.587131 260.286059 
L 506.587131 258.926065 
L 507.837828 258.926065 
L 507.837828 257.664225 
L 509.088525 257.664225 
L 509.088525 256.932562 
L 510.339221 256.932562 
L 510.339221 256.51102 
L 511.589918 256.51102 
L 511.589918 255.227536 
L 512.840615 255.227536 
L 512.840615 253.844621 
L 514.091311 253.844621 
L 514.091311 252.418705 
L 515.342008 252.418705 
L 515.342008 250.915164 
L 516.592705 250.915164 
L 516.592705 249.437097 
L 517.843402 249.437097 
L 517.843402 248.613194 
L 519.094098 248.613194 
L 519.094098 248.147806 
L 520.344795 248.147806 
L 520.344795 246.626541 
L 521.595492 246.626541 
L 521.595492 245.106677 
L 522.846189 245.106677 
L 522.846189 243.603442 
L 524.096885 243.603442 
L 524.096885 241.92033 
L 525.347582 241.92033 
L 525.347582 240.311408 
L 526.598279 240.311408 
L 526.598279 239.263045 
L 527.848975 239.263045 
L 527.848975 238.804937 
L 529.099672 238.804937 
L 529.099672 237.038807 
L 530.350369 237.038807 
L 530.350369 235.122605 
L 531.601066 235.122605 
L 531.601066 233.233872 
L 532.851762 233.233872 
L 532.851762 231.322362 
L 534.102459 231.322362 
L 534.102459 229.424083 
L 535.353156 229.424083 
L 535.353156 228.244182 
L 536.603852 228.244182 
L 536.603852 228.244182 
" style="fill:none;stroke:#1f77b4;stroke-linecap:square;stroke-width:1.5;"/>
   </g>
   <g id="line2d_108">
    <path clip-path="url(#p5da7debb56)" d="M 536.603852 226.482582 
L 536.603852 224.720982 
L 537.854549 224.720982 
L 537.854549 222.959382 
L 539.105246 222.959382 
L 539.105246 221.197782 
L 540.355943 221.197782 
L 540.355943 219.436182 
L 541.606639 219.436182 
L 541.606639 217.674582 
L 542.857336 217.674582 
L 542.857336 215.912982 
L 544.108033 215.912982 
L 544.108033 214.151382 
L 545.35873 214.151382 
L 545.35873 212.389782 
L 546.609426 212.389782 
L 546.609426 210.628182 
L 547.860123 210.628182 
L 547.860123 208.866582 
L 549.11082 208.866582 
L 549.11082 207.104982 
L 550.361516 207.104982 
L 550.361516 205.343382 
L 551.612213 205.343382 
L 551.612213 203.581782 
L 552.86291 203.581782 
L 552.86291 201.820182 
L 554.113607 201.820182 
L 554.113607 200.058582 
L 555.364303 200.058582 
L 555.364303 198.296982 
L 556.615 198.296982 
L 556.615 196.241782 
L 557.865697 196.241782 
L 557.865697 194.186582 
L 559.116393 194.186582 
L 559.116393 192.131382 
L 560.36709 192.131382 
L 560.36709 190.076182 
L 561.617787 190.076182 
L 561.617787 188.020982 
L 562.868484 188.020982 
L 562.868484 185.965782 
L 564.11918 185.965782 
L 564.11918 183.910582 
L 565.369877 183.910582 
L 565.369877 181.855382 
L 566.620574 181.855382 
L 566.620574 179.800182 
L 567.87127 179.800182 
L 567.87127 177.744982 
L 569.121967 177.744982 
L 569.121967 175.689782 
L 570.372664 175.689782 
L 570.372664 173.634582 
L 571.623361 173.634582 
L 571.623361 171.579382 
L 572.874057 171.579382 
L 572.874057 169.524182 
L 574.124754 169.524182 
L 574.124754 167.468982 
L 575.375451 167.468982 
L 575.375451 165.413782 
L 576.626148 165.413782 
L 576.626148 163.358582 
L 577.876844 163.358582 
L 577.876844 161.303382 
L 579.127541 161.303382 
L 579.127541 159.248182 
L 580.378238 159.248182 
L 580.378238 157.192982 
L 581.628934 157.192982 
L 581.628934 155.137782 
L 582.879631 155.137782 
L 582.879631 153.082582 
L 584.130328 153.082582 
L 584.130328 151.027382 
L 585.381025 151.027382 
L 585.381025 148.972182 
L 586.631721 148.972182 
L 586.631721 146.916982 
L 587.882418 146.916982 
L 587.882418 144.861782 
L 589.133115 144.861782 
L 589.133115 142.806582 
L 590.383811 142.806582 
L 590.383811 140.751382 
L 591.634508 140.751382 
L 591.634508 138.696182 
L 592.885205 138.696182 
L 592.885205 136.640982 
L 594.135902 136.640982 
L 594.135902 134.292182 
L 595.386598 134.292182 
L 595.386598 131.943382 
L 596.637295 131.943382 
L 596.637295 129.594582 
L 597.887992 129.594582 
L 597.887992 127.245782 
L 599.138689 127.245782 
L 599.138689 124.896982 
L 600.389385 124.896982 
L 600.389385 122.548182 
L 601.640082 122.548182 
L 601.640082 120.199382 
L 602.890779 120.199382 
L 602.890779 117.850582 
L 604.141475 117.850582 
L 604.141475 115.501782 
L 605.392172 115.501782 
L 605.392172 113.152982 
L 606.642869 113.152982 
L 606.642869 110.804182 
L 607.893566 110.804182 
L 607.893566 108.455382 
L 609.144262 108.455382 
L 609.144262 106.106582 
L 610.394959 106.106582 
L 610.394959 103.757782 
L 611.645656 103.757782 
L 611.645656 101.408982 
L 612.896352 101.408982 
L 612.896352 99.060182 
L 614.147049 99.060182 
L 614.147049 96.711382 
L 615.397746 96.711382 
L 615.397746 94.362582 
L 616.648443 94.362582 
L 616.648443 92.013782 
L 617.899139 92.013782 
L 617.899139 89.664982 
L 619.149836 89.664982 
L 619.149836 87.316182 
L 620.400533 87.316182 
L 620.400533 84.967382 
L 621.65123 84.967382 
L 621.65123 82.618582 
L 622.901926 82.618582 
L 622.901926 80.269782 
L 624.152623 80.269782 
L 624.152623 77.920982 
L 625.40332 77.920982 
L 625.40332 75.572182 
L 626.654016 75.572182 
L 626.654016 73.223382 
L 627.904713 73.223382 
L 627.904713 70.874582 
L 721 70.874582 
L 721 70.874582 
" style="fill:none;stroke:#ff7f0e;stroke-linecap:square;stroke-width:1.5;"/>
   </g>
   <g id="patch_9">
    <path d="M 404.03 319.04 
L 404.03 25.44 
" style="fill:none;stroke:#000000;stroke-linecap:square;stroke-linejoin:miter;stroke-width:0.8;"/>
   </g>
   <g id="patch_10">
    <path d="M 709.2 319.04 
L 709.2 25.44 
" style="fill:none;stroke:#000000;stroke-linecap:square;stroke-linejoin:miter;stroke-width:0.8;"/>
   </g>
   <g id="patch_11">
    <path d="M 404.03 319.04 
L 709.2 319.04 
" style="fill:none;stroke:#000000;stroke-linecap:square;stroke-linejoin:miter;stroke-width:0.8;"/>
   </g>
   <g id="patch_12">
    <path d="M 404.03 25.44 
L 709.2 25.44 
" style="fill:none;stroke:#000000;stroke-linecap:square;stroke-linejoin:miter;stroke-width:0.8;"/>
   </g>
   <g id="text_58">
    <!-- NSW cumulative vaccinations per capita -->
    <g transform="translate(435.363438 19.44)scale(0.12 -0.12)">
     <use xlink:href="#DejaVuSans-4e"/>
     <use x="74.804688" xlink:href="#DejaVuSans-53"/>
     <use x="138.28125" xlink:href="#DejaVuSans-57"/>
     <use x="237.158203" xlink:href="#DejaVuSans-20"/>
     <use x="268.945312" xlink:href="#DejaVuSans-63"/>
     <use x="323.925781" xlink:href="#DejaVuSans-75"/>
     <use x="387.304688" xlink:href="#DejaVuSans-6d"/>
     <use x="484.716797" xlink:href="#DejaVuSans-75"/>
     <use x="548.095703" xlink:href="#DejaVuSans-6c"/>
     <use x="575.878906" xlink:href="#DejaVuSans-61"/>
     <use x="637.158203" xlink:href="#DejaVuSans-74"/>
     <use x="676.367188" xlink:href="#DejaVuSans-69"/>
     <use x="704.150391" xlink:href="#DejaVuSans-76"/>
     <use x="763.330078" xlink:href="#DejaVuSans-65"/>
     <use x="824.853516" xlink:href="#DejaVuSans-20"/>
     <use x="856.640625" xlink:href="#DejaVuSans-76"/>
     <use x="915.820312" xlink:href="#DejaVuSans-61"/>
     <use x="977.099609" xlink:href="#DejaVuSans-63"/>
     <use x="1032.080078" xlink:href="#DejaVuSans-63"/>
     <use x="1087.060547" xlink:href="#DejaVuSans-69"/>
     <use x="1114.84375" xlink:href="#DejaVuSans-6e"/>
     <use x="1178.222656" xlink:href="#DejaVuSans-61"/>
     <use x="1239.501953" xlink:href="#DejaVuSans-74"/>
     <use x="1278.710938" xlink:href="#DejaVuSans-69"/>
     <use x="1306.494141" xlink:href="#DejaVuSans-6f"/>
     <use x="1367.675781" xlink:href="#DejaVuSans-6e"/>
     <use x="1431.054688" xlink:href="#DejaVuSans-73"/>
     <use x="1483.154297" xlink:href="#DejaVuSans-20"/>
     <use x="1514.941406" xlink:href="#DejaVuSans-70"/>
     <use x="1578.417969" xlink:href="#DejaVuSans-65"/>
     <use x="1639.941406" xlink:href="#DejaVuSans-72"/>
     <use x="1681.054688" xlink:href="#DejaVuSans-20"/>
     <use x="1712.841797" xlink:href="#DejaVuSans-63"/>
     <use x="1767.822266" xlink:href="#DejaVuSans-61"/>
     <use x="1829.101562" xlink:href="#DejaVuSans-70"/>
     <use x="1892.578125" xlink:href="#DejaVuSans-69"/>
     <use x="1920.361328" xlink:href="#DejaVuSans-74"/>
     <use x="1959.570312" xlink:href="#DejaVuSans-61"/>
    </g>
   </g>
   <g id="legend_2">
    <g id="patch_13">
     <path d="M 554.317188 62.79625 
L 702.2 62.79625 
Q 704.2 62.79625 704.2 60.79625 
L 704.2 32.44 
Q 704.2 30.44 702.2 30.44 
L 554.317188 30.44 
Q 552.317188 30.44 552.317188 32.44 
L 552.317188 60.79625 
Q 552.317188 62.79625 554.317188 62.79625 
z
" style="fill:#ffffff;opacity:0.8;stroke:#cccccc;stroke-linejoin:miter;"/>
    </g>
    <g id="line2d_109">
     <path d="M 556.317188 38.538437 
L 576.317188 38.538437 
" style="fill:none;stroke:#1f77b4;stroke-linecap:square;stroke-width:1.5;"/>
    </g>
    <g id="line2d_110"/>
    <g id="text_59">
     <!-- Actual -->
     <g transform="translate(584.317188 42.038437)scale(0.1 -0.1)">
      <use xlink:href="#DejaVuSans-41"/>
      <use x="66.658203" xlink:href="#DejaVuSans-63"/>
      <use x="121.638672" xlink:href="#DejaVuSans-74"/>
      <use x="160.847656" xlink:href="#DejaVuSans-75"/>
      <use x="224.226562" xlink:href="#DejaVuSans-61"/>
      <use x="285.505859" xlink:href="#DejaVuSans-6c"/>
     </g>
    </g>
    <g id="line2d_111">
     <path d="M 556.317188 53.216563 
L 576.317188 53.216563 
" style="fill:none;stroke:#ff7f0e;stroke-linecap:square;stroke-width:1.5;"/>
    </g>
    <g id="line2d_112"/>
    <g id="text_60">
     <!-- Assumed for projection -->
     <g transform="translate(584.317188 56.716563)scale(0.1 -0.1)">
      <use xlink:href="#DejaVuSans-41"/>
      <use x="68.408203" xlink:href="#DejaVuSans-73"/>
      <use x="120.507812" xlink:href="#DejaVuSans-73"/>
      <use x="172.607422" xlink:href="#DejaVuSans-75"/>
      <use x="235.986328" xlink:href="#DejaVuSans-6d"/>
      <use x="333.398438" xlink:href="#DejaVuSans-65"/>
      <use x="394.921875" xlink:href="#DejaVuSans-64"/>
      <use x="458.398438" xlink:href="#DejaVuSans-20"/>
      <use x="490.185547" xlink:href="#DejaVuSans-66"/>
      <use x="525.390625" xlink:href="#DejaVuSans-6f"/>
      <use x="586.572266" xlink:href="#DejaVuSans-72"/>
      <use x="627.685547" xlink:href="#DejaVuSans-20"/>
      <use x="659.472656" xlink:href="#DejaVuSans-70"/>
      <use x="722.949219" xlink:href="#DejaVuSans-72"/>
      <use x="761.8125" xlink:href="#DejaVuSans-6f"/>
      <use x="822.994141" xlink:href="#DejaVuSans-6a"/>
      <use x="850.777344" xlink:href="#DejaVuSans-65"/>
      <use x="912.300781" xlink:href="#DejaVuSans-63"/>
      <use x="967.28125" xlink:href="#DejaVuSans-74"/>
      <use x="1006.490234" xlink:href="#DejaVuSans-69"/>
      <use x="1034.273438" xlink:href="#DejaVuSans-6f"/>
      <use x="1095.455078" xlink:href="#DejaVuSans-6e"/>
     </g>
    </g>
   </g>
  </g>
 </g>
 <defs>
  <clipPath id="pa09d5946d0">
   <rect height="293.6" width="305.17" x="47.81" y="25.44"/>
  </clipPath>
  <clipPath id="p5da7debb56">
   <rect height="293.6" width="305.17" x="404.03" y="25.44"/>
  </clipPath>
 </defs>
</svg>
