<?xml version="1.0" encoding="utf-8" standalone="no"?>
<!DOCTYPE svg PUBLIC "-//W3C//DTD SVG 1.1//EN"
  "http://www.w3.org/Graphics/SVG/1.1/DTD/svg11.dtd">
<svg xmlns:xlink="http://www.w3.org/1999/xlink" width="720pt" height="432pt" viewBox="0 0 720 432" xmlns="http://www.w3.org/2000/svg" version="1.1">
 <metadata>
  <rdf:RDF xmlns:dc="http://purl.org/dc/elements/1.1/" xmlns:cc="http://creativecommons.org/ns#" xmlns:rdf="http://www.w3.org/1999/02/22-rdf-syntax-ns#">
   <cc:Work>
    <dc:type rdf:resource="http://purl.org/dc/dcmitype/StillImage"/>
    <dc:date>2021-12-26T10:51:45.078124</dc:date>
    <dc:format>image/svg+xml</dc:format>
    <dc:creator>
     <cc:Agent>
      <dc:title>Matplotlib v3.5.1, https://matplotlib.org/</dc:title>
     </cc:Agent>
    </dc:creator>
   </cc:Work>
  </rdf:RDF>
 </metadata>
 <defs>
  <style type="text/css">*{stroke-linejoin: round; stroke-linecap: butt}</style>
 </defs>
 <g id="figure_1">
  <g id="patch_1">
   <path d="M 0 432 
L 720 432 
L 720 0 
L 0 0 
z
" style="fill: #ffffff"/>
  </g>
  <g id="axes_1">
   <g id="patch_2">
    <path d="M 63.128 383.84 
L 662.649791 383.84 
L 662.649791 49.776 
L 63.128 49.776 
z
" style="fill: #ffffff"/>
   </g>
   <g id="PolyCollection_1">
    <path d="M 32.118252 383.84 
L 32.118252 334.304302 
L 32.118252 334.586689 
L 42.454835 334.586689 
L 42.454835 333.643312 
L 52.791417 333.643312 
L 52.791417 331.204788 
L 63.128 331.204788 
L 63.128 327.302116 
L 73.464583 327.302116 
L 73.464583 322.575162 
L 83.801165 322.575162 
L 83.801165 318.394152 
L 94.137748 318.394152 
L 94.137748 316.386242 
L 104.47433 316.386242 
L 104.47433 317.431614 
L 114.810913 317.431614 
L 114.810913 321.172994 
L 125.147496 321.172994 
L 125.147496 326.363969 
L 135.484078 326.363969 
L 135.484078 331.370882 
L 145.820661 331.370882 
L 145.820661 334.863461 
L 156.157243 334.863461 
L 156.157243 335.573685 
L 166.493826 335.573685 
L 166.493826 331.245563 
L 176.830409 331.245563 
L 176.830409 318.865525 
L 187.166991 318.865525 
L 187.166991 291.063022 
L 197.503574 291.063022 
L 197.503574 239.429017 
L 207.840156 239.429017 
L 207.840156 161.168133 
L 218.176739 161.168133 
L 218.176739 73.203894 
L 228.513322 73.203894 
L 228.513322 2.243947 
L 238.849904 2.243947 
L 238.849904 -37.98669 
L 249.186487 -37.98669 
L 249.186487 -51.175548 
L 259.523069 -51.175548 
L 259.523069 -47.410673 
L 269.859652 -47.410673 
L 269.859652 -35.214232 
L 280.196235 -35.214232 
L 280.196235 -19.834355 
L 290.532817 -19.834355 
L 290.532817 -4.077473 
L 300.8694 -4.077473 
L 300.8694 10.6082 
L 311.205982 10.6082 
L 311.205982 23.561239 
L 321.542565 23.561239 
L 321.542565 34.454414 
L 331.879148 34.454414 
L 331.879148 43.187475 
L 342.21573 43.187475 
L 342.21573 50.156982 
L 352.552313 50.156982 
L 352.552313 55.081735 
L 362.888895 55.081735 
L 362.888895 58.476478 
L 373.225478 58.476478 
L 373.225478 60.914524 
L 383.562061 60.914524 
L 383.562061 383.84 
L 383.562061 383.84 
L 373.225478 383.84 
L 373.225478 383.84 
L 362.888895 383.84 
L 362.888895 383.84 
L 352.552313 383.84 
L 352.552313 383.84 
L 342.21573 383.84 
L 342.21573 383.84 
L 331.879148 383.84 
L 331.879148 383.84 
L 321.542565 383.84 
L 321.542565 383.84 
L 311.205982 383.84 
L 311.205982 383.84 
L 300.8694 383.84 
L 300.8694 383.84 
L 290.532817 383.84 
L 290.532817 383.84 
L 280.196235 383.84 
L 280.196235 383.84 
L 269.859652 383.84 
L 269.859652 383.84 
L 259.523069 383.84 
L 259.523069 383.84 
L 249.186487 383.84 
L 249.186487 383.84 
L 238.849904 383.84 
L 238.849904 383.84 
L 228.513322 383.84 
L 228.513322 383.84 
L 218.176739 383.84 
L 218.176739 383.84 
L 207.840156 383.84 
L 207.840156 383.84 
L 197.503574 383.84 
L 197.503574 383.84 
L 187.166991 383.84 
L 187.166991 383.84 
L 176.830409 383.84 
L 176.830409 383.84 
L 166.493826 383.84 
L 166.493826 383.84 
L 156.157243 383.84 
L 156.157243 383.84 
L 145.820661 383.84 
L 145.820661 383.84 
L 135.484078 383.84 
L 135.484078 383.84 
L 125.147496 383.84 
L 125.147496 383.84 
L 114.810913 383.84 
L 114.810913 383.84 
L 104.47433 383.84 
L 104.47433 383.84 
L 94.137748 383.84 
L 94.137748 383.84 
L 83.801165 383.84 
L 83.801165 383.84 
L 73.464583 383.84 
L 73.464583 383.84 
L 63.128 383.84 
L 63.128 383.84 
L 52.791417 383.84 
L 52.791417 383.84 
L 42.454835 383.84 
L 42.454835 383.84 
L 32.118252 383.84 
L 32.118252 383.84 
z
" clip-path="url(#p31733d3c36)" style="fill: #1f77b4; stroke: #1f77b4"/>
   </g>
   <g id="matplotlib.axis_1">
    <g id="xtick_1">
     <g id="line2d_1">
      <path d="M 63.128 383.84 
L 63.128 49.776 
" clip-path="url(#p31733d3c36)" style="fill: none; stroke-dasharray: 0.8,1.32; stroke-dashoffset: 0; stroke: #000000; stroke-opacity: 0.5; stroke-width: 0.8"/>
     </g>
     <g id="line2d_2">
      <defs>
       <path id="m141a549576" d="M 0 0 
L 0 3.5 
" style="stroke: #000000; stroke-width: 0.8"/>
      </defs>
      <g>
       <use xlink:href="#m141a549576" x="63.128" y="383.84" style="stroke: #000000; stroke-width: 0.8"/>
      </g>
     </g>
     <g id="text_1">
      <!-- 25 -->
      <g transform="translate(56.7655 398.438437)scale(0.1 -0.1)">
       <defs>
        <path id="DejaVuSans-32" d="M 1228 531 
L 3431 531 
L 3431 0 
L 469 0 
L 469 531 
Q 828 903 1448 1529 
Q 2069 2156 2228 2338 
Q 2531 2678 2651 2914 
Q 2772 3150 2772 3378 
Q 2772 3750 2511 3984 
Q 2250 4219 1831 4219 
Q 1534 4219 1204 4116 
Q 875 4013 500 3803 
L 500 4441 
Q 881 4594 1212 4672 
Q 1544 4750 1819 4750 
Q 2544 4750 2975 4387 
Q 3406 4025 3406 3419 
Q 3406 3131 3298 2873 
Q 3191 2616 2906 2266 
Q 2828 2175 2409 1742 
Q 1991 1309 1228 531 
z
" transform="scale(0.015625)"/>
        <path id="DejaVuSans-35" d="M 691 4666 
L 3169 4666 
L 3169 4134 
L 1269 4134 
L 1269 2991 
Q 1406 3038 1543 3061 
Q 1681 3084 1819 3084 
Q 2600 3084 3056 2656 
Q 3513 2228 3513 1497 
Q 3513 744 3044 326 
Q 2575 -91 1722 -91 
Q 1428 -91 1123 -41 
Q 819 9 494 109 
L 494 744 
Q 775 591 1075 516 
Q 1375 441 1709 441 
Q 2250 441 2565 725 
Q 2881 1009 2881 1497 
Q 2881 1984 2565 2268 
Q 2250 2553 1709 2553 
Q 1456 2553 1204 2497 
Q 953 2441 691 2322 
L 691 4666 
z
" transform="scale(0.015625)"/>
       </defs>
       <use xlink:href="#DejaVuSans-32"/>
       <use xlink:href="#DejaVuSans-35" x="63.623047"/>
      </g>
     </g>
    </g>
    <g id="xtick_2">
     <g id="line2d_3">
      <path d="M 125.147496 383.84 
L 125.147496 49.776 
" clip-path="url(#p31733d3c36)" style="fill: none; stroke-dasharray: 0.8,1.32; stroke-dashoffset: 0; stroke: #000000; stroke-opacity: 0.5; stroke-width: 0.8"/>
     </g>
     <g id="line2d_4">
      <g>
       <use xlink:href="#m141a549576" x="125.147496" y="383.84" style="stroke: #000000; stroke-width: 0.8"/>
      </g>
     </g>
     <g id="text_2">
      <!-- Dec -->
      <g transform="translate(115.471714 398.438437)scale(0.1 -0.1)">
       <defs>
        <path id="DejaVuSans-44" d="M 1259 4147 
L 1259 519 
L 2022 519 
Q 2988 519 3436 956 
Q 3884 1394 3884 2338 
Q 3884 3275 3436 3711 
Q 2988 4147 2022 4147 
L 1259 4147 
z
M 628 4666 
L 1925 4666 
Q 3281 4666 3915 4102 
Q 4550 3538 4550 2338 
Q 4550 1131 3912 565 
Q 3275 0 1925 0 
L 628 0 
L 628 4666 
z
" transform="scale(0.015625)"/>
        <path id="DejaVuSans-65" d="M 3597 1894 
L 3597 1613 
L 953 1613 
Q 991 1019 1311 708 
Q 1631 397 2203 397 
Q 2534 397 2845 478 
Q 3156 559 3463 722 
L 3463 178 
Q 3153 47 2828 -22 
Q 2503 -91 2169 -91 
Q 1331 -91 842 396 
Q 353 884 353 1716 
Q 353 2575 817 3079 
Q 1281 3584 2069 3584 
Q 2775 3584 3186 3129 
Q 3597 2675 3597 1894 
z
M 3022 2063 
Q 3016 2534 2758 2815 
Q 2500 3097 2075 3097 
Q 1594 3097 1305 2825 
Q 1016 2553 972 2059 
L 3022 2063 
z
" transform="scale(0.015625)"/>
        <path id="DejaVuSans-63" d="M 3122 3366 
L 3122 2828 
Q 2878 2963 2633 3030 
Q 2388 3097 2138 3097 
Q 1578 3097 1268 2742 
Q 959 2388 959 1747 
Q 959 1106 1268 751 
Q 1578 397 2138 397 
Q 2388 397 2633 464 
Q 2878 531 3122 666 
L 3122 134 
Q 2881 22 2623 -34 
Q 2366 -91 2075 -91 
Q 1284 -91 818 406 
Q 353 903 353 1747 
Q 353 2603 823 3093 
Q 1294 3584 2113 3584 
Q 2378 3584 2631 3529 
Q 2884 3475 3122 3366 
z
" transform="scale(0.015625)"/>
       </defs>
       <use xlink:href="#DejaVuSans-44"/>
       <use xlink:href="#DejaVuSans-65" x="77.001953"/>
       <use xlink:href="#DejaVuSans-63" x="138.525391"/>
      </g>
     </g>
    </g>
    <g id="xtick_3">
     <g id="line2d_5">
      <path d="M 166.493826 383.84 
L 166.493826 49.776 
" clip-path="url(#p31733d3c36)" style="fill: none; stroke-dasharray: 0.8,1.32; stroke-dashoffset: 0; stroke: #000000; stroke-opacity: 0.5; stroke-width: 0.8"/>
     </g>
     <g id="line2d_6">
      <g>
       <use xlink:href="#m141a549576" x="166.493826" y="383.84" style="stroke: #000000; stroke-width: 0.8"/>
      </g>
     </g>
     <g id="text_3">
      <!-- 05 -->
      <g transform="translate(160.131326 398.438437)scale(0.1 -0.1)">
       <defs>
        <path id="DejaVuSans-30" d="M 2034 4250 
Q 1547 4250 1301 3770 
Q 1056 3291 1056 2328 
Q 1056 1369 1301 889 
Q 1547 409 2034 409 
Q 2525 409 2770 889 
Q 3016 1369 3016 2328 
Q 3016 3291 2770 3770 
Q 2525 4250 2034 4250 
z
M 2034 4750 
Q 2819 4750 3233 4129 
Q 3647 3509 3647 2328 
Q 3647 1150 3233 529 
Q 2819 -91 2034 -91 
Q 1250 -91 836 529 
Q 422 1150 422 2328 
Q 422 3509 836 4129 
Q 1250 4750 2034 4750 
z
" transform="scale(0.015625)"/>
       </defs>
       <use xlink:href="#DejaVuSans-30"/>
       <use xlink:href="#DejaVuSans-35" x="63.623047"/>
      </g>
     </g>
    </g>
    <g id="xtick_4">
     <g id="line2d_7">
      <path d="M 218.176739 383.84 
L 218.176739 49.776 
" clip-path="url(#p31733d3c36)" style="fill: none; stroke-dasharray: 0.8,1.32; stroke-dashoffset: 0; stroke: #000000; stroke-opacity: 0.5; stroke-width: 0.8"/>
     </g>
     <g id="line2d_8">
      <g>
       <use xlink:href="#m141a549576" x="218.176739" y="383.84" style="stroke: #000000; stroke-width: 0.8"/>
      </g>
     </g>
     <g id="text_4">
      <!-- 10 -->
      <g transform="translate(211.814239 398.438437)scale(0.1 -0.1)">
       <defs>
        <path id="DejaVuSans-31" d="M 794 531 
L 1825 531 
L 1825 4091 
L 703 3866 
L 703 4441 
L 1819 4666 
L 2450 4666 
L 2450 531 
L 3481 531 
L 3481 0 
L 794 0 
L 794 531 
z
" transform="scale(0.015625)"/>
       </defs>
       <use xlink:href="#DejaVuSans-31"/>
       <use xlink:href="#DejaVuSans-30" x="63.623047"/>
      </g>
     </g>
    </g>
    <g id="xtick_5">
     <g id="line2d_9">
      <path d="M 269.859652 383.84 
L 269.859652 49.776 
" clip-path="url(#p31733d3c36)" style="fill: none; stroke-dasharray: 0.8,1.32; stroke-dashoffset: 0; stroke: #000000; stroke-opacity: 0.5; stroke-width: 0.8"/>
     </g>
     <g id="line2d_10">
      <g>
       <use xlink:href="#m141a549576" x="269.859652" y="383.84" style="stroke: #000000; stroke-width: 0.8"/>
      </g>
     </g>
     <g id="text_5">
      <!-- 15 -->
      <g transform="translate(263.497152 398.438437)scale(0.1 -0.1)">
       <use xlink:href="#DejaVuSans-31"/>
       <use xlink:href="#DejaVuSans-35" x="63.623047"/>
      </g>
     </g>
    </g>
    <g id="xtick_6">
     <g id="line2d_11">
      <path d="M 321.542565 383.84 
L 321.542565 49.776 
" clip-path="url(#p31733d3c36)" style="fill: none; stroke-dasharray: 0.8,1.32; stroke-dashoffset: 0; stroke: #000000; stroke-opacity: 0.5; stroke-width: 0.8"/>
     </g>
     <g id="line2d_12">
      <g>
       <use xlink:href="#m141a549576" x="321.542565" y="383.84" style="stroke: #000000; stroke-width: 0.8"/>
      </g>
     </g>
     <g id="text_6">
      <!-- 20 -->
      <g transform="translate(315.180065 398.438437)scale(0.1 -0.1)">
       <use xlink:href="#DejaVuSans-32"/>
       <use xlink:href="#DejaVuSans-30" x="63.623047"/>
      </g>
     </g>
    </g>
    <g id="xtick_7">
     <g id="line2d_13">
      <path d="M 373.225478 383.84 
L 373.225478 49.776 
" clip-path="url(#p31733d3c36)" style="fill: none; stroke-dasharray: 0.8,1.32; stroke-dashoffset: 0; stroke: #000000; stroke-opacity: 0.5; stroke-width: 0.8"/>
     </g>
     <g id="line2d_14">
      <g>
       <use xlink:href="#m141a549576" x="373.225478" y="383.84" style="stroke: #000000; stroke-width: 0.8"/>
      </g>
     </g>
     <g id="text_7">
      <!-- 25 -->
      <g transform="translate(366.862978 398.438437)scale(0.1 -0.1)">
       <use xlink:href="#DejaVuSans-32"/>
       <use xlink:href="#DejaVuSans-35" x="63.623047"/>
      </g>
     </g>
    </g>
    <g id="xtick_8">
     <g id="line2d_15">
      <path d="M 445.581556 383.84 
L 445.581556 49.776 
" clip-path="url(#p31733d3c36)" style="fill: none; stroke-dasharray: 0.8,1.32; stroke-dashoffset: 0; stroke: #000000; stroke-opacity: 0.5; stroke-width: 0.8"/>
     </g>
     <g id="line2d_16">
      <g>
       <use xlink:href="#m141a549576" x="445.581556" y="383.84" style="stroke: #000000; stroke-width: 0.8"/>
      </g>
     </g>
     <g id="text_8">
      <!-- Jan -->
      <g transform="translate(437.873744 398.438437)scale(0.1 -0.1)">
       <defs>
        <path id="DejaVuSans-4a" d="M 628 4666 
L 1259 4666 
L 1259 325 
Q 1259 -519 939 -900 
Q 619 -1281 -91 -1281 
L -331 -1281 
L -331 -750 
L -134 -750 
Q 284 -750 456 -515 
Q 628 -281 628 325 
L 628 4666 
z
" transform="scale(0.015625)"/>
        <path id="DejaVuSans-61" d="M 2194 1759 
Q 1497 1759 1228 1600 
Q 959 1441 959 1056 
Q 959 750 1161 570 
Q 1363 391 1709 391 
Q 2188 391 2477 730 
Q 2766 1069 2766 1631 
L 2766 1759 
L 2194 1759 
z
M 3341 1997 
L 3341 0 
L 2766 0 
L 2766 531 
Q 2569 213 2275 61 
Q 1981 -91 1556 -91 
Q 1019 -91 701 211 
Q 384 513 384 1019 
Q 384 1609 779 1909 
Q 1175 2209 1959 2209 
L 2766 2209 
L 2766 2266 
Q 2766 2663 2505 2880 
Q 2244 3097 1772 3097 
Q 1472 3097 1187 3025 
Q 903 2953 641 2809 
L 641 3341 
Q 956 3463 1253 3523 
Q 1550 3584 1831 3584 
Q 2591 3584 2966 3190 
Q 3341 2797 3341 1997 
z
" transform="scale(0.015625)"/>
        <path id="DejaVuSans-6e" d="M 3513 2113 
L 3513 0 
L 2938 0 
L 2938 2094 
Q 2938 2591 2744 2837 
Q 2550 3084 2163 3084 
Q 1697 3084 1428 2787 
Q 1159 2491 1159 1978 
L 1159 0 
L 581 0 
L 581 3500 
L 1159 3500 
L 1159 2956 
Q 1366 3272 1645 3428 
Q 1925 3584 2291 3584 
Q 2894 3584 3203 3211 
Q 3513 2838 3513 2113 
z
" transform="scale(0.015625)"/>
       </defs>
       <use xlink:href="#DejaVuSans-4a"/>
       <use xlink:href="#DejaVuSans-61" x="29.492188"/>
       <use xlink:href="#DejaVuSans-6e" x="90.771484"/>
      </g>
     </g>
    </g>
    <g id="xtick_9">
     <g id="line2d_17">
      <path d="M 486.927887 383.84 
L 486.927887 49.776 
" clip-path="url(#p31733d3c36)" style="fill: none; stroke-dasharray: 0.8,1.32; stroke-dashoffset: 0; stroke: #000000; stroke-opacity: 0.5; stroke-width: 0.8"/>
     </g>
     <g id="line2d_18">
      <g>
       <use xlink:href="#m141a549576" x="486.927887" y="383.84" style="stroke: #000000; stroke-width: 0.8"/>
      </g>
     </g>
     <g id="text_9">
      <!-- 05 -->
      <g transform="translate(480.565387 398.438437)scale(0.1 -0.1)">
       <use xlink:href="#DejaVuSans-30"/>
       <use xlink:href="#DejaVuSans-35" x="63.623047"/>
      </g>
     </g>
    </g>
    <g id="xtick_10">
     <g id="line2d_19">
      <path d="M 538.6108 383.84 
L 538.6108 49.776 
" clip-path="url(#p31733d3c36)" style="fill: none; stroke-dasharray: 0.8,1.32; stroke-dashoffset: 0; stroke: #000000; stroke-opacity: 0.5; stroke-width: 0.8"/>
     </g>
     <g id="line2d_20">
      <g>
       <use xlink:href="#m141a549576" x="538.6108" y="383.84" style="stroke: #000000; stroke-width: 0.8"/>
      </g>
     </g>
     <g id="text_10">
      <!-- 10 -->
      <g transform="translate(532.2483 398.438437)scale(0.1 -0.1)">
       <use xlink:href="#DejaVuSans-31"/>
       <use xlink:href="#DejaVuSans-30" x="63.623047"/>
      </g>
     </g>
    </g>
    <g id="xtick_11">
     <g id="line2d_21">
      <path d="M 590.293713 383.84 
L 590.293713 49.776 
" clip-path="url(#p31733d3c36)" style="fill: none; stroke-dasharray: 0.8,1.32; stroke-dashoffset: 0; stroke: #000000; stroke-opacity: 0.5; stroke-width: 0.8"/>
     </g>
     <g id="line2d_22">
      <g>
       <use xlink:href="#m141a549576" x="590.293713" y="383.84" style="stroke: #000000; stroke-width: 0.8"/>
      </g>
     </g>
     <g id="text_11">
      <!-- 15 -->
      <g transform="translate(583.931213 398.438437)scale(0.1 -0.1)">
       <use xlink:href="#DejaVuSans-31"/>
       <use xlink:href="#DejaVuSans-35" x="63.623047"/>
      </g>
     </g>
    </g>
    <g id="xtick_12">
     <g id="line2d_23">
      <path d="M 641.976626 383.84 
L 641.976626 49.776 
" clip-path="url(#p31733d3c36)" style="fill: none; stroke-dasharray: 0.8,1.32; stroke-dashoffset: 0; stroke: #000000; stroke-opacity: 0.5; stroke-width: 0.8"/>
     </g>
     <g id="line2d_24">
      <g>
       <use xlink:href="#m141a549576" x="641.976626" y="383.84" style="stroke: #000000; stroke-width: 0.8"/>
      </g>
     </g>
     <g id="text_12">
      <!-- 20 -->
      <g transform="translate(635.614126 398.438437)scale(0.1 -0.1)">
       <use xlink:href="#DejaVuSans-32"/>
       <use xlink:href="#DejaVuSans-30" x="63.623047"/>
      </g>
     </g>
    </g>
   </g>
   <g id="matplotlib.axis_2">
    <g id="ytick_1">
     <g id="line2d_25">
      <path d="M 63.128 383.84 
L 662.649791 383.84 
" clip-path="url(#p31733d3c36)" style="fill: none; stroke-dasharray: 0.8,1.32; stroke-dashoffset: 0; stroke: #000000; stroke-opacity: 0.5; stroke-width: 0.8"/>
     </g>
     <g id="line2d_26">
      <defs>
       <path id="m07dfdd44b2" d="M 0 0 
L -3.5 0 
" style="stroke: #1f77b4; stroke-width: 0.8"/>
      </defs>
      <g>
       <use xlink:href="#m07dfdd44b2" x="63.128" y="383.84" style="fill: #1f77b4; stroke: #1f77b4; stroke-width: 0.8"/>
      </g>
     </g>
     <g id="text_13">
      <!-- 0.00 -->
      <g style="fill: #1f77b4" transform="translate(33.862375 387.639219)scale(0.1 -0.1)">
       <defs>
        <path id="DejaVuSans-2e" d="M 684 794 
L 1344 794 
L 1344 0 
L 684 0 
L 684 794 
z
" transform="scale(0.015625)"/>
       </defs>
       <use xlink:href="#DejaVuSans-30"/>
       <use xlink:href="#DejaVuSans-2e" x="63.623047"/>
       <use xlink:href="#DejaVuSans-30" x="95.410156"/>
       <use xlink:href="#DejaVuSans-30" x="159.033203"/>
      </g>
     </g>
    </g>
    <g id="ytick_2">
     <g id="line2d_27">
      <path d="M 63.128 367.1368 
L 662.649791 367.1368 
" clip-path="url(#p31733d3c36)" style="fill: none; stroke-dasharray: 0.8,1.32; stroke-dashoffset: 0; stroke: #000000; stroke-opacity: 0.5; stroke-width: 0.8"/>
     </g>
     <g id="line2d_28">
      <g>
       <use xlink:href="#m07dfdd44b2" x="63.128" y="367.1368" style="fill: #1f77b4; stroke: #1f77b4; stroke-width: 0.8"/>
      </g>
     </g>
     <g id="text_14">
      <!-- 0.25 -->
      <g style="fill: #1f77b4" transform="translate(33.862375 370.936019)scale(0.1 -0.1)">
       <use xlink:href="#DejaVuSans-30"/>
       <use xlink:href="#DejaVuSans-2e" x="63.623047"/>
       <use xlink:href="#DejaVuSans-32" x="95.410156"/>
       <use xlink:href="#DejaVuSans-35" x="159.033203"/>
      </g>
     </g>
    </g>
    <g id="ytick_3">
     <g id="line2d_29">
      <path d="M 63.128 350.4336 
L 662.649791 350.4336 
" clip-path="url(#p31733d3c36)" style="fill: none; stroke-dasharray: 0.8,1.32; stroke-dashoffset: 0; stroke: #000000; stroke-opacity: 0.5; stroke-width: 0.8"/>
     </g>
     <g id="line2d_30">
      <g>
       <use xlink:href="#m07dfdd44b2" x="63.128" y="350.4336" style="fill: #1f77b4; stroke: #1f77b4; stroke-width: 0.8"/>
      </g>
     </g>
     <g id="text_15">
      <!-- 0.50 -->
      <g style="fill: #1f77b4" transform="translate(33.862375 354.232819)scale(0.1 -0.1)">
       <use xlink:href="#DejaVuSans-30"/>
       <use xlink:href="#DejaVuSans-2e" x="63.623047"/>
       <use xlink:href="#DejaVuSans-35" x="95.410156"/>
       <use xlink:href="#DejaVuSans-30" x="159.033203"/>
      </g>
     </g>
    </g>
    <g id="ytick_4">
     <g id="line2d_31">
      <path d="M 63.128 333.7304 
L 662.649791 333.7304 
" clip-path="url(#p31733d3c36)" style="fill: none; stroke-dasharray: 0.8,1.32; stroke-dashoffset: 0; stroke: #000000; stroke-opacity: 0.5; stroke-width: 0.8"/>
     </g>
     <g id="line2d_32">
      <g>
       <use xlink:href="#m07dfdd44b2" x="63.128" y="333.7304" style="fill: #1f77b4; stroke: #1f77b4; stroke-width: 0.8"/>
      </g>
     </g>
     <g id="text_16">
      <!-- 0.75 -->
      <g style="fill: #1f77b4" transform="translate(33.862375 337.529619)scale(0.1 -0.1)">
       <defs>
        <path id="DejaVuSans-37" d="M 525 4666 
L 3525 4666 
L 3525 4397 
L 1831 0 
L 1172 0 
L 2766 4134 
L 525 4134 
L 525 4666 
z
" transform="scale(0.015625)"/>
       </defs>
       <use xlink:href="#DejaVuSans-30"/>
       <use xlink:href="#DejaVuSans-2e" x="63.623047"/>
       <use xlink:href="#DejaVuSans-37" x="95.410156"/>
       <use xlink:href="#DejaVuSans-35" x="159.033203"/>
      </g>
     </g>
    </g>
    <g id="ytick_5">
     <g id="line2d_33">
      <path d="M 63.128 317.0272 
L 662.649791 317.0272 
" clip-path="url(#p31733d3c36)" style="fill: none; stroke-dasharray: 0.8,1.32; stroke-dashoffset: 0; stroke: #000000; stroke-opacity: 0.5; stroke-width: 0.8"/>
     </g>
     <g id="line2d_34">
      <g>
       <use xlink:href="#m07dfdd44b2" x="63.128" y="317.0272" style="fill: #1f77b4; stroke: #1f77b4; stroke-width: 0.8"/>
      </g>
     </g>
     <g id="text_17">
      <!-- 1.00 -->
      <g style="fill: #1f77b4" transform="translate(33.862375 320.826419)scale(0.1 -0.1)">
       <use xlink:href="#DejaVuSans-31"/>
       <use xlink:href="#DejaVuSans-2e" x="63.623047"/>
       <use xlink:href="#DejaVuSans-30" x="95.410156"/>
       <use xlink:href="#DejaVuSans-30" x="159.033203"/>
      </g>
     </g>
    </g>
    <g id="ytick_6">
     <g id="line2d_35">
      <path d="M 63.128 300.324 
L 662.649791 300.324 
" clip-path="url(#p31733d3c36)" style="fill: none; stroke-dasharray: 0.8,1.32; stroke-dashoffset: 0; stroke: #000000; stroke-opacity: 0.5; stroke-width: 0.8"/>
     </g>
     <g id="line2d_36">
      <g>
       <use xlink:href="#m07dfdd44b2" x="63.128" y="300.324" style="fill: #1f77b4; stroke: #1f77b4; stroke-width: 0.8"/>
      </g>
     </g>
     <g id="text_18">
      <!-- 1.25 -->
      <g style="fill: #1f77b4" transform="translate(33.862375 304.123219)scale(0.1 -0.1)">
       <use xlink:href="#DejaVuSans-31"/>
       <use xlink:href="#DejaVuSans-2e" x="63.623047"/>
       <use xlink:href="#DejaVuSans-32" x="95.410156"/>
       <use xlink:href="#DejaVuSans-35" x="159.033203"/>
      </g>
     </g>
    </g>
    <g id="ytick_7">
     <g id="line2d_37">
      <path d="M 63.128 283.6208 
L 662.649791 283.6208 
" clip-path="url(#p31733d3c36)" style="fill: none; stroke-dasharray: 0.8,1.32; stroke-dashoffset: 0; stroke: #000000; stroke-opacity: 0.5; stroke-width: 0.8"/>
     </g>
     <g id="line2d_38">
      <g>
       <use xlink:href="#m07dfdd44b2" x="63.128" y="283.6208" style="fill: #1f77b4; stroke: #1f77b4; stroke-width: 0.8"/>
      </g>
     </g>
     <g id="text_19">
      <!-- 1.50 -->
      <g style="fill: #1f77b4" transform="translate(33.862375 287.420019)scale(0.1 -0.1)">
       <use xlink:href="#DejaVuSans-31"/>
       <use xlink:href="#DejaVuSans-2e" x="63.623047"/>
       <use xlink:href="#DejaVuSans-35" x="95.410156"/>
       <use xlink:href="#DejaVuSans-30" x="159.033203"/>
      </g>
     </g>
    </g>
    <g id="ytick_8">
     <g id="line2d_39">
      <path d="M 63.128 266.9176 
L 662.649791 266.9176 
" clip-path="url(#p31733d3c36)" style="fill: none; stroke-dasharray: 0.8,1.32; stroke-dashoffset: 0; stroke: #000000; stroke-opacity: 0.5; stroke-width: 0.8"/>
     </g>
     <g id="line2d_40">
      <g>
       <use xlink:href="#m07dfdd44b2" x="63.128" y="266.9176" style="fill: #1f77b4; stroke: #1f77b4; stroke-width: 0.8"/>
      </g>
     </g>
     <g id="text_20">
      <!-- 1.75 -->
      <g style="fill: #1f77b4" transform="translate(33.862375 270.716819)scale(0.1 -0.1)">
       <use xlink:href="#DejaVuSans-31"/>
       <use xlink:href="#DejaVuSans-2e" x="63.623047"/>
       <use xlink:href="#DejaVuSans-37" x="95.410156"/>
       <use xlink:href="#DejaVuSans-35" x="159.033203"/>
      </g>
     </g>
    </g>
    <g id="ytick_9">
     <g id="line2d_41">
      <path d="M 63.128 250.2144 
L 662.649791 250.2144 
" clip-path="url(#p31733d3c36)" style="fill: none; stroke-dasharray: 0.8,1.32; stroke-dashoffset: 0; stroke: #000000; stroke-opacity: 0.5; stroke-width: 0.8"/>
     </g>
     <g id="line2d_42">
      <g>
       <use xlink:href="#m07dfdd44b2" x="63.128" y="250.2144" style="fill: #1f77b4; stroke: #1f77b4; stroke-width: 0.8"/>
      </g>
     </g>
     <g id="text_21">
      <!-- 2.00 -->
      <g style="fill: #1f77b4" transform="translate(33.862375 254.013619)scale(0.1 -0.1)">
       <use xlink:href="#DejaVuSans-32"/>
       <use xlink:href="#DejaVuSans-2e" x="63.623047"/>
       <use xlink:href="#DejaVuSans-30" x="95.410156"/>
       <use xlink:href="#DejaVuSans-30" x="159.033203"/>
      </g>
     </g>
    </g>
    <g id="ytick_10">
     <g id="line2d_43">
      <path d="M 63.128 233.5112 
L 662.649791 233.5112 
" clip-path="url(#p31733d3c36)" style="fill: none; stroke-dasharray: 0.8,1.32; stroke-dashoffset: 0; stroke: #000000; stroke-opacity: 0.5; stroke-width: 0.8"/>
     </g>
     <g id="line2d_44">
      <g>
       <use xlink:href="#m07dfdd44b2" x="63.128" y="233.5112" style="fill: #1f77b4; stroke: #1f77b4; stroke-width: 0.8"/>
      </g>
     </g>
     <g id="text_22">
      <!-- 2.25 -->
      <g style="fill: #1f77b4" transform="translate(33.862375 237.310419)scale(0.1 -0.1)">
       <use xlink:href="#DejaVuSans-32"/>
       <use xlink:href="#DejaVuSans-2e" x="63.623047"/>
       <use xlink:href="#DejaVuSans-32" x="95.410156"/>
       <use xlink:href="#DejaVuSans-35" x="159.033203"/>
      </g>
     </g>
    </g>
    <g id="ytick_11">
     <g id="line2d_45">
      <path d="M 63.128 216.808 
L 662.649791 216.808 
" clip-path="url(#p31733d3c36)" style="fill: none; stroke-dasharray: 0.8,1.32; stroke-dashoffset: 0; stroke: #000000; stroke-opacity: 0.5; stroke-width: 0.8"/>
     </g>
     <g id="line2d_46">
      <g>
       <use xlink:href="#m07dfdd44b2" x="63.128" y="216.808" style="fill: #1f77b4; stroke: #1f77b4; stroke-width: 0.8"/>
      </g>
     </g>
     <g id="text_23">
      <!-- 2.50 -->
      <g style="fill: #1f77b4" transform="translate(33.862375 220.607219)scale(0.1 -0.1)">
       <use xlink:href="#DejaVuSans-32"/>
       <use xlink:href="#DejaVuSans-2e" x="63.623047"/>
       <use xlink:href="#DejaVuSans-35" x="95.410156"/>
       <use xlink:href="#DejaVuSans-30" x="159.033203"/>
      </g>
     </g>
    </g>
    <g id="ytick_12">
     <g id="line2d_47">
      <path d="M 63.128 200.1048 
L 662.649791 200.1048 
" clip-path="url(#p31733d3c36)" style="fill: none; stroke-dasharray: 0.8,1.32; stroke-dashoffset: 0; stroke: #000000; stroke-opacity: 0.5; stroke-width: 0.8"/>
     </g>
     <g id="line2d_48">
      <g>
       <use xlink:href="#m07dfdd44b2" x="63.128" y="200.1048" style="fill: #1f77b4; stroke: #1f77b4; stroke-width: 0.8"/>
      </g>
     </g>
     <g id="text_24">
      <!-- 2.75 -->
      <g style="fill: #1f77b4" transform="translate(33.862375 203.904019)scale(0.1 -0.1)">
       <use xlink:href="#DejaVuSans-32"/>
       <use xlink:href="#DejaVuSans-2e" x="63.623047"/>
       <use xlink:href="#DejaVuSans-37" x="95.410156"/>
       <use xlink:href="#DejaVuSans-35" x="159.033203"/>
      </g>
     </g>
    </g>
    <g id="ytick_13">
     <g id="line2d_49">
      <path d="M 63.128 183.4016 
L 662.649791 183.4016 
" clip-path="url(#p31733d3c36)" style="fill: none; stroke-dasharray: 0.8,1.32; stroke-dashoffset: 0; stroke: #000000; stroke-opacity: 0.5; stroke-width: 0.8"/>
     </g>
     <g id="line2d_50">
      <g>
       <use xlink:href="#m07dfdd44b2" x="63.128" y="183.4016" style="fill: #1f77b4; stroke: #1f77b4; stroke-width: 0.8"/>
      </g>
     </g>
     <g id="text_25">
      <!-- 3.00 -->
      <g style="fill: #1f77b4" transform="translate(33.862375 187.200819)scale(0.1 -0.1)">
       <defs>
        <path id="DejaVuSans-33" d="M 2597 2516 
Q 3050 2419 3304 2112 
Q 3559 1806 3559 1356 
Q 3559 666 3084 287 
Q 2609 -91 1734 -91 
Q 1441 -91 1130 -33 
Q 819 25 488 141 
L 488 750 
Q 750 597 1062 519 
Q 1375 441 1716 441 
Q 2309 441 2620 675 
Q 2931 909 2931 1356 
Q 2931 1769 2642 2001 
Q 2353 2234 1838 2234 
L 1294 2234 
L 1294 2753 
L 1863 2753 
Q 2328 2753 2575 2939 
Q 2822 3125 2822 3475 
Q 2822 3834 2567 4026 
Q 2313 4219 1838 4219 
Q 1578 4219 1281 4162 
Q 984 4106 628 3988 
L 628 4550 
Q 988 4650 1302 4700 
Q 1616 4750 1894 4750 
Q 2613 4750 3031 4423 
Q 3450 4097 3450 3541 
Q 3450 3153 3228 2886 
Q 3006 2619 2597 2516 
z
" transform="scale(0.015625)"/>
       </defs>
       <use xlink:href="#DejaVuSans-33"/>
       <use xlink:href="#DejaVuSans-2e" x="63.623047"/>
       <use xlink:href="#DejaVuSans-30" x="95.410156"/>
       <use xlink:href="#DejaVuSans-30" x="159.033203"/>
      </g>
     </g>
    </g>
    <g id="ytick_14">
     <g id="line2d_51">
      <path d="M 63.128 166.6984 
L 662.649791 166.6984 
" clip-path="url(#p31733d3c36)" style="fill: none; stroke-dasharray: 0.8,1.32; stroke-dashoffset: 0; stroke: #000000; stroke-opacity: 0.5; stroke-width: 0.8"/>
     </g>
     <g id="line2d_52">
      <g>
       <use xlink:href="#m07dfdd44b2" x="63.128" y="166.6984" style="fill: #1f77b4; stroke: #1f77b4; stroke-width: 0.8"/>
      </g>
     </g>
     <g id="text_26">
      <!-- 3.25 -->
      <g style="fill: #1f77b4" transform="translate(33.862375 170.497619)scale(0.1 -0.1)">
       <use xlink:href="#DejaVuSans-33"/>
       <use xlink:href="#DejaVuSans-2e" x="63.623047"/>
       <use xlink:href="#DejaVuSans-32" x="95.410156"/>
       <use xlink:href="#DejaVuSans-35" x="159.033203"/>
      </g>
     </g>
    </g>
    <g id="ytick_15">
     <g id="line2d_53">
      <path d="M 63.128 149.9952 
L 662.649791 149.9952 
" clip-path="url(#p31733d3c36)" style="fill: none; stroke-dasharray: 0.8,1.32; stroke-dashoffset: 0; stroke: #000000; stroke-opacity: 0.5; stroke-width: 0.8"/>
     </g>
     <g id="line2d_54">
      <g>
       <use xlink:href="#m07dfdd44b2" x="63.128" y="149.9952" style="fill: #1f77b4; stroke: #1f77b4; stroke-width: 0.8"/>
      </g>
     </g>
     <g id="text_27">
      <!-- 3.50 -->
      <g style="fill: #1f77b4" transform="translate(33.862375 153.794419)scale(0.1 -0.1)">
       <use xlink:href="#DejaVuSans-33"/>
       <use xlink:href="#DejaVuSans-2e" x="63.623047"/>
       <use xlink:href="#DejaVuSans-35" x="95.410156"/>
       <use xlink:href="#DejaVuSans-30" x="159.033203"/>
      </g>
     </g>
    </g>
    <g id="ytick_16">
     <g id="line2d_55">
      <path d="M 63.128 133.292 
L 662.649791 133.292 
" clip-path="url(#p31733d3c36)" style="fill: none; stroke-dasharray: 0.8,1.32; stroke-dashoffset: 0; stroke: #000000; stroke-opacity: 0.5; stroke-width: 0.8"/>
     </g>
     <g id="line2d_56">
      <g>
       <use xlink:href="#m07dfdd44b2" x="63.128" y="133.292" style="fill: #1f77b4; stroke: #1f77b4; stroke-width: 0.8"/>
      </g>
     </g>
     <g id="text_28">
      <!-- 3.75 -->
      <g style="fill: #1f77b4" transform="translate(33.862375 137.091219)scale(0.1 -0.1)">
       <use xlink:href="#DejaVuSans-33"/>
       <use xlink:href="#DejaVuSans-2e" x="63.623047"/>
       <use xlink:href="#DejaVuSans-37" x="95.410156"/>
       <use xlink:href="#DejaVuSans-35" x="159.033203"/>
      </g>
     </g>
    </g>
    <g id="ytick_17">
     <g id="line2d_57">
      <path d="M 63.128 116.5888 
L 662.649791 116.5888 
" clip-path="url(#p31733d3c36)" style="fill: none; stroke-dasharray: 0.8,1.32; stroke-dashoffset: 0; stroke: #000000; stroke-opacity: 0.5; stroke-width: 0.8"/>
     </g>
     <g id="line2d_58">
      <g>
       <use xlink:href="#m07dfdd44b2" x="63.128" y="116.5888" style="fill: #1f77b4; stroke: #1f77b4; stroke-width: 0.8"/>
      </g>
     </g>
     <g id="text_29">
      <!-- 4.00 -->
      <g style="fill: #1f77b4" transform="translate(33.862375 120.388019)scale(0.1 -0.1)">
       <defs>
        <path id="DejaVuSans-34" d="M 2419 4116 
L 825 1625 
L 2419 1625 
L 2419 4116 
z
M 2253 4666 
L 3047 4666 
L 3047 1625 
L 3713 1625 
L 3713 1100 
L 3047 1100 
L 3047 0 
L 2419 0 
L 2419 1100 
L 313 1100 
L 313 1709 
L 2253 4666 
z
" transform="scale(0.015625)"/>
       </defs>
       <use xlink:href="#DejaVuSans-34"/>
       <use xlink:href="#DejaVuSans-2e" x="63.623047"/>
       <use xlink:href="#DejaVuSans-30" x="95.410156"/>
       <use xlink:href="#DejaVuSans-30" x="159.033203"/>
      </g>
     </g>
    </g>
    <g id="ytick_18">
     <g id="line2d_59">
      <path d="M 63.128 99.8856 
L 662.649791 99.8856 
" clip-path="url(#p31733d3c36)" style="fill: none; stroke-dasharray: 0.8,1.32; stroke-dashoffset: 0; stroke: #000000; stroke-opacity: 0.5; stroke-width: 0.8"/>
     </g>
     <g id="line2d_60">
      <g>
       <use xlink:href="#m07dfdd44b2" x="63.128" y="99.8856" style="fill: #1f77b4; stroke: #1f77b4; stroke-width: 0.8"/>
      </g>
     </g>
     <g id="text_30">
      <!-- 4.25 -->
      <g style="fill: #1f77b4" transform="translate(33.862375 103.684819)scale(0.1 -0.1)">
       <use xlink:href="#DejaVuSans-34"/>
       <use xlink:href="#DejaVuSans-2e" x="63.623047"/>
       <use xlink:href="#DejaVuSans-32" x="95.410156"/>
       <use xlink:href="#DejaVuSans-35" x="159.033203"/>
      </g>
     </g>
    </g>
    <g id="ytick_19">
     <g id="line2d_61">
      <path d="M 63.128 83.1824 
L 662.649791 83.1824 
" clip-path="url(#p31733d3c36)" style="fill: none; stroke-dasharray: 0.8,1.32; stroke-dashoffset: 0; stroke: #000000; stroke-opacity: 0.5; stroke-width: 0.8"/>
     </g>
     <g id="line2d_62">
      <g>
       <use xlink:href="#m07dfdd44b2" x="63.128" y="83.1824" style="fill: #1f77b4; stroke: #1f77b4; stroke-width: 0.8"/>
      </g>
     </g>
     <g id="text_31">
      <!-- 4.50 -->
      <g style="fill: #1f77b4" transform="translate(33.862375 86.981619)scale(0.1 -0.1)">
       <use xlink:href="#DejaVuSans-34"/>
       <use xlink:href="#DejaVuSans-2e" x="63.623047"/>
       <use xlink:href="#DejaVuSans-35" x="95.410156"/>
       <use xlink:href="#DejaVuSans-30" x="159.033203"/>
      </g>
     </g>
    </g>
    <g id="ytick_20">
     <g id="line2d_63">
      <path d="M 63.128 66.4792 
L 662.649791 66.4792 
" clip-path="url(#p31733d3c36)" style="fill: none; stroke-dasharray: 0.8,1.32; stroke-dashoffset: 0; stroke: #000000; stroke-opacity: 0.5; stroke-width: 0.8"/>
     </g>
     <g id="line2d_64">
      <g>
       <use xlink:href="#m07dfdd44b2" x="63.128" y="66.4792" style="fill: #1f77b4; stroke: #1f77b4; stroke-width: 0.8"/>
      </g>
     </g>
     <g id="text_32">
      <!-- 4.75 -->
      <g style="fill: #1f77b4" transform="translate(33.862375 70.278419)scale(0.1 -0.1)">
       <use xlink:href="#DejaVuSans-34"/>
       <use xlink:href="#DejaVuSans-2e" x="63.623047"/>
       <use xlink:href="#DejaVuSans-37" x="95.410156"/>
       <use xlink:href="#DejaVuSans-35" x="159.033203"/>
      </g>
     </g>
    </g>
    <g id="ytick_21">
     <g id="line2d_65">
      <path d="M 63.128 49.776 
L 662.649791 49.776 
" clip-path="url(#p31733d3c36)" style="fill: none; stroke-dasharray: 0.8,1.32; stroke-dashoffset: 0; stroke: #000000; stroke-opacity: 0.5; stroke-width: 0.8"/>
     </g>
     <g id="line2d_66">
      <g>
       <use xlink:href="#m07dfdd44b2" x="63.128" y="49.776" style="fill: #1f77b4; stroke: #1f77b4; stroke-width: 0.8"/>
      </g>
     </g>
     <g id="text_33">
      <!-- 5.00 -->
      <g style="fill: #1f77b4" transform="translate(33.862375 53.575219)scale(0.1 -0.1)">
       <use xlink:href="#DejaVuSans-35"/>
       <use xlink:href="#DejaVuSans-2e" x="63.623047"/>
       <use xlink:href="#DejaVuSans-30" x="95.410156"/>
       <use xlink:href="#DejaVuSans-30" x="159.033203"/>
      </g>
     </g>
    </g>
    <g id="text_34">
     <!-- $R_\mathrm{eff}$ -->
     <g style="fill: #1f77b4" transform="translate(27.782687 225.058)rotate(-90)scale(0.1 -0.1)">
      <defs>
       <path id="DejaVuSans-Oblique-52" d="M 1613 4147 
L 1294 2491 
L 2106 2491 
Q 2584 2491 2879 2755 
Q 3175 3019 3175 3444 
Q 3175 3784 2976 3965 
Q 2778 4147 2406 4147 
L 1613 4147 
z
M 2772 2241 
Q 2972 2194 3105 2009 
Q 3238 1825 3413 1275 
L 3809 0 
L 3144 0 
L 2778 1197 
Q 2638 1659 2453 1815 
Q 2269 1972 1888 1972 
L 1191 1972 
L 806 0 
L 172 0 
L 1081 4666 
L 2503 4666 
Q 3150 4666 3495 4373 
Q 3841 4081 3841 3531 
Q 3841 3044 3547 2687 
Q 3253 2331 2772 2241 
z
" transform="scale(0.015625)"/>
       <path id="DejaVuSans-66" d="M 2375 4863 
L 2375 4384 
L 1825 4384 
Q 1516 4384 1395 4259 
Q 1275 4134 1275 3809 
L 1275 3500 
L 2222 3500 
L 2222 3053 
L 1275 3053 
L 1275 0 
L 697 0 
L 697 3053 
L 147 3053 
L 147 3500 
L 697 3500 
L 697 3744 
Q 697 4328 969 4595 
Q 1241 4863 1831 4863 
L 2375 4863 
z
" transform="scale(0.015625)"/>
      </defs>
      <use xlink:href="#DejaVuSans-Oblique-52" transform="translate(0 0.09375)"/>
      <use xlink:href="#DejaVuSans-65" transform="translate(69.482422 -16.3125)scale(0.7)"/>
      <use xlink:href="#DejaVuSans-66" transform="translate(112.548828 -16.3125)scale(0.7)"/>
      <use xlink:href="#DejaVuSans-66" transform="translate(137.192383 -16.3125)scale(0.7)"/>
     </g>
    </g>
   </g>
   <g id="PolyCollection_2">
    <path d="M 32.118252 306.959815 
L 32.118252 361.64879 
L 32.118252 362.461942 
L 42.454835 362.461942 
L 42.454835 361.301617 
L 52.791417 361.301617 
L 52.791417 357.83517 
L 63.128 357.83517 
L 63.128 352.295324 
L 73.464583 352.295324 
L 73.464583 345.941557 
L 83.801165 345.941557 
L 83.801165 340.757691 
L 94.137748 340.757691 
L 94.137748 338.280715 
L 104.47433 338.280715 
L 104.47433 339.016216 
L 114.810913 339.016216 
L 114.810913 342.894294 
L 125.147496 342.894294 
L 125.147496 349.325774 
L 135.484078 349.325774 
L 135.484078 356.670291 
L 145.820661 356.670291 
L 145.820661 362.741958 
L 156.157243 362.741958 
L 156.157243 365.090269 
L 166.493826 365.090269 
L 166.493826 360.091647 
L 176.830409 360.091647 
L 176.830409 344.31564 
L 187.166991 344.31564 
L 187.166991 319.926326 
L 197.503574 319.926326 
L 197.503574 302.832503 
L 207.840156 302.832503 
L 207.840156 287.702593 
L 218.176739 287.702593 
L 218.176739 268.249406 
L 228.513322 268.249406 
L 228.513322 241.986325 
L 238.849904 241.986325 
L 238.849904 208.818165 
L 249.186487 208.818165 
L 249.186487 171.228885 
L 259.523069 171.228885 
L 259.523069 133.936345 
L 269.859652 133.936345 
L 269.859652 102.377181 
L 280.196235 102.377181 
L 280.196235 80.226031 
L 290.532817 80.226031 
L 290.532817 68.116558 
L 300.8694 68.116558 
L 300.8694 64.64894 
L 311.205982 64.64894 
L 311.205982 68.060894 
L 321.542565 68.060894 
L 321.542565 76.649296 
L 331.879148 76.649296 
L 331.879148 88.565259 
L 342.21573 88.565259 
L 342.21573 102.374214 
L 352.552313 102.374214 
L 352.552313 116.747327 
L 362.888895 116.747327 
L 362.888895 131.33157 
L 373.225478 131.33157 
L 373.225478 145.910764 
L 383.562061 145.910764 
L 383.562061 -24.081715 
L 383.562061 -24.081715 
L 373.225478 -24.081715 
L 373.225478 -14.378613 
L 362.888895 -14.378613 
L 362.888895 -6.583857 
L 352.552313 -6.583857 
L 352.552313 -2.060251 
L 342.21573 -2.060251 
L 342.21573 -2.19031 
L 331.879148 -2.19031 
L 331.879148 -7.740468 
L 321.542565 -7.740468 
L 321.542565 -20.938416 
L 311.205982 -20.938416 
L 311.205982 -43.43254 
L 300.8694 -43.43254 
L 300.8694 -76.271504 
L 290.532817 -76.271504 
L 290.532817 -119.894741 
L 280.196235 -119.894741 
L 280.196235 -172.805646 
L 269.859652 -172.805646 
L 269.859652 -228.757691 
L 259.523069 -228.757691 
L 259.523069 -273.579981 
L 249.186487 -273.579981 
L 249.186487 -284.791545 
L 238.849904 -284.791545 
L 238.849904 -237.498432 
L 228.513322 -237.498432 
L 228.513322 -121.841619 
L 218.176739 -121.841619 
L 218.176739 34.633674 
L 207.840156 34.633674 
L 207.840156 176.02553 
L 197.503574 176.02553 
L 197.503574 262.199719 
L 187.166991 262.199719 
L 187.166991 293.41541 
L 176.830409 293.41541 
L 176.830409 302.399478 
L 166.493826 302.399478 
L 166.493826 306.0571 
L 156.157243 306.0571 
L 156.157243 306.984965 
L 145.820661 306.984965 
L 145.820661 306.071472 
L 135.484078 306.071472 
L 135.484078 303.402164 
L 125.147496 303.402164 
L 125.147496 299.451695 
L 114.810913 299.451695 
L 114.810913 295.847012 
L 104.47433 295.847012 
L 104.47433 294.49177 
L 94.137748 294.49177 
L 94.137748 296.030613 
L 83.801165 296.030613 
L 83.801165 299.208767 
L 73.464583 299.208767 
L 73.464583 302.308908 
L 63.128 302.308908 
L 63.128 304.574407 
L 52.791417 304.574407 
L 52.791417 305.985006 
L 42.454835 305.985006 
L 42.454835 306.711435 
L 32.118252 306.711435 
L 32.118252 306.959815 
z
" clip-path="url(#p31733d3c36)" style="fill: url(#h8d7908bfd5); fill-opacity: 0.2; stroke: #0000ff; stroke-opacity: 0.2"/>
   </g>
   <g id="line2d_67">
    <path d="M 63.128 317.0272 
L 662.649791 317.0272 
" clip-path="url(#p31733d3c36)" style="fill: none; stroke: #000000; stroke-linecap: square"/>
   </g>
   <g id="patch_3">
    <path d="M 63.128 383.84 
L 63.128 49.776 
" style="fill: none; stroke: #1f77b4; stroke-width: 0.8; stroke-linejoin: miter; stroke-linecap: square"/>
   </g>
   <g id="patch_4">
    <path d="M 662.649791 383.84 
L 662.649791 49.776 
" style="fill: none; stroke: #800080; stroke-width: 0.8; stroke-linejoin: miter; stroke-linecap: square"/>
   </g>
   <g id="patch_5">
    <path d="M 63.128 383.84 
L 662.649791 383.84 
" style="fill: none; stroke: #000000; stroke-width: 0.8; stroke-linejoin: miter; stroke-linecap: square"/>
   </g>
   <g id="patch_6">
    <path d="M 63.128 49.776 
L 662.649791 49.776 
" style="fill: none; stroke: #000000; stroke-width: 0.8; stroke-linejoin: miter; stroke-linecap: square"/>
   </g>
   <g id="text_35">
    <!-- $R_\mathrm{eff}$ in South Australia as of December 26th, with daily cases -->
    <g transform="translate(181.028895 30.31425)scale(0.12 -0.12)">
     <defs>
      <path id="DejaVuSans-20" transform="scale(0.015625)"/>
      <path id="DejaVuSans-69" d="M 603 3500 
L 1178 3500 
L 1178 0 
L 603 0 
L 603 3500 
z
M 603 4863 
L 1178 4863 
L 1178 4134 
L 603 4134 
L 603 4863 
z
" transform="scale(0.015625)"/>
      <path id="DejaVuSans-53" d="M 3425 4513 
L 3425 3897 
Q 3066 4069 2747 4153 
Q 2428 4238 2131 4238 
Q 1616 4238 1336 4038 
Q 1056 3838 1056 3469 
Q 1056 3159 1242 3001 
Q 1428 2844 1947 2747 
L 2328 2669 
Q 3034 2534 3370 2195 
Q 3706 1856 3706 1288 
Q 3706 609 3251 259 
Q 2797 -91 1919 -91 
Q 1588 -91 1214 -16 
Q 841 59 441 206 
L 441 856 
Q 825 641 1194 531 
Q 1563 422 1919 422 
Q 2459 422 2753 634 
Q 3047 847 3047 1241 
Q 3047 1584 2836 1778 
Q 2625 1972 2144 2069 
L 1759 2144 
Q 1053 2284 737 2584 
Q 422 2884 422 3419 
Q 422 4038 858 4394 
Q 1294 4750 2059 4750 
Q 2388 4750 2728 4690 
Q 3069 4631 3425 4513 
z
" transform="scale(0.015625)"/>
      <path id="DejaVuSans-6f" d="M 1959 3097 
Q 1497 3097 1228 2736 
Q 959 2375 959 1747 
Q 959 1119 1226 758 
Q 1494 397 1959 397 
Q 2419 397 2687 759 
Q 2956 1122 2956 1747 
Q 2956 2369 2687 2733 
Q 2419 3097 1959 3097 
z
M 1959 3584 
Q 2709 3584 3137 3096 
Q 3566 2609 3566 1747 
Q 3566 888 3137 398 
Q 2709 -91 1959 -91 
Q 1206 -91 779 398 
Q 353 888 353 1747 
Q 353 2609 779 3096 
Q 1206 3584 1959 3584 
z
" transform="scale(0.015625)"/>
      <path id="DejaVuSans-75" d="M 544 1381 
L 544 3500 
L 1119 3500 
L 1119 1403 
Q 1119 906 1312 657 
Q 1506 409 1894 409 
Q 2359 409 2629 706 
Q 2900 1003 2900 1516 
L 2900 3500 
L 3475 3500 
L 3475 0 
L 2900 0 
L 2900 538 
Q 2691 219 2414 64 
Q 2138 -91 1772 -91 
Q 1169 -91 856 284 
Q 544 659 544 1381 
z
M 1991 3584 
L 1991 3584 
z
" transform="scale(0.015625)"/>
      <path id="DejaVuSans-74" d="M 1172 4494 
L 1172 3500 
L 2356 3500 
L 2356 3053 
L 1172 3053 
L 1172 1153 
Q 1172 725 1289 603 
Q 1406 481 1766 481 
L 2356 481 
L 2356 0 
L 1766 0 
Q 1100 0 847 248 
Q 594 497 594 1153 
L 594 3053 
L 172 3053 
L 172 3500 
L 594 3500 
L 594 4494 
L 1172 4494 
z
" transform="scale(0.015625)"/>
      <path id="DejaVuSans-68" d="M 3513 2113 
L 3513 0 
L 2938 0 
L 2938 2094 
Q 2938 2591 2744 2837 
Q 2550 3084 2163 3084 
Q 1697 3084 1428 2787 
Q 1159 2491 1159 1978 
L 1159 0 
L 581 0 
L 581 4863 
L 1159 4863 
L 1159 2956 
Q 1366 3272 1645 3428 
Q 1925 3584 2291 3584 
Q 2894 3584 3203 3211 
Q 3513 2838 3513 2113 
z
" transform="scale(0.015625)"/>
      <path id="DejaVuSans-41" d="M 2188 4044 
L 1331 1722 
L 3047 1722 
L 2188 4044 
z
M 1831 4666 
L 2547 4666 
L 4325 0 
L 3669 0 
L 3244 1197 
L 1141 1197 
L 716 0 
L 50 0 
L 1831 4666 
z
" transform="scale(0.015625)"/>
      <path id="DejaVuSans-73" d="M 2834 3397 
L 2834 2853 
Q 2591 2978 2328 3040 
Q 2066 3103 1784 3103 
Q 1356 3103 1142 2972 
Q 928 2841 928 2578 
Q 928 2378 1081 2264 
Q 1234 2150 1697 2047 
L 1894 2003 
Q 2506 1872 2764 1633 
Q 3022 1394 3022 966 
Q 3022 478 2636 193 
Q 2250 -91 1575 -91 
Q 1294 -91 989 -36 
Q 684 19 347 128 
L 347 722 
Q 666 556 975 473 
Q 1284 391 1588 391 
Q 1994 391 2212 530 
Q 2431 669 2431 922 
Q 2431 1156 2273 1281 
Q 2116 1406 1581 1522 
L 1381 1569 
Q 847 1681 609 1914 
Q 372 2147 372 2553 
Q 372 3047 722 3315 
Q 1072 3584 1716 3584 
Q 2034 3584 2315 3537 
Q 2597 3491 2834 3397 
z
" transform="scale(0.015625)"/>
      <path id="DejaVuSans-72" d="M 2631 2963 
Q 2534 3019 2420 3045 
Q 2306 3072 2169 3072 
Q 1681 3072 1420 2755 
Q 1159 2438 1159 1844 
L 1159 0 
L 581 0 
L 581 3500 
L 1159 3500 
L 1159 2956 
Q 1341 3275 1631 3429 
Q 1922 3584 2338 3584 
Q 2397 3584 2469 3576 
Q 2541 3569 2628 3553 
L 2631 2963 
z
" transform="scale(0.015625)"/>
      <path id="DejaVuSans-6c" d="M 603 4863 
L 1178 4863 
L 1178 0 
L 603 0 
L 603 4863 
z
" transform="scale(0.015625)"/>
      <path id="DejaVuSans-6d" d="M 3328 2828 
Q 3544 3216 3844 3400 
Q 4144 3584 4550 3584 
Q 5097 3584 5394 3201 
Q 5691 2819 5691 2113 
L 5691 0 
L 5113 0 
L 5113 2094 
Q 5113 2597 4934 2840 
Q 4756 3084 4391 3084 
Q 3944 3084 3684 2787 
Q 3425 2491 3425 1978 
L 3425 0 
L 2847 0 
L 2847 2094 
Q 2847 2600 2669 2842 
Q 2491 3084 2119 3084 
Q 1678 3084 1418 2786 
Q 1159 2488 1159 1978 
L 1159 0 
L 581 0 
L 581 3500 
L 1159 3500 
L 1159 2956 
Q 1356 3278 1631 3431 
Q 1906 3584 2284 3584 
Q 2666 3584 2933 3390 
Q 3200 3197 3328 2828 
z
" transform="scale(0.015625)"/>
      <path id="DejaVuSans-62" d="M 3116 1747 
Q 3116 2381 2855 2742 
Q 2594 3103 2138 3103 
Q 1681 3103 1420 2742 
Q 1159 2381 1159 1747 
Q 1159 1113 1420 752 
Q 1681 391 2138 391 
Q 2594 391 2855 752 
Q 3116 1113 3116 1747 
z
M 1159 2969 
Q 1341 3281 1617 3432 
Q 1894 3584 2278 3584 
Q 2916 3584 3314 3078 
Q 3713 2572 3713 1747 
Q 3713 922 3314 415 
Q 2916 -91 2278 -91 
Q 1894 -91 1617 61 
Q 1341 213 1159 525 
L 1159 0 
L 581 0 
L 581 4863 
L 1159 4863 
L 1159 2969 
z
" transform="scale(0.015625)"/>
      <path id="DejaVuSans-36" d="M 2113 2584 
Q 1688 2584 1439 2293 
Q 1191 2003 1191 1497 
Q 1191 994 1439 701 
Q 1688 409 2113 409 
Q 2538 409 2786 701 
Q 3034 994 3034 1497 
Q 3034 2003 2786 2293 
Q 2538 2584 2113 2584 
z
M 3366 4563 
L 3366 3988 
Q 3128 4100 2886 4159 
Q 2644 4219 2406 4219 
Q 1781 4219 1451 3797 
Q 1122 3375 1075 2522 
Q 1259 2794 1537 2939 
Q 1816 3084 2150 3084 
Q 2853 3084 3261 2657 
Q 3669 2231 3669 1497 
Q 3669 778 3244 343 
Q 2819 -91 2113 -91 
Q 1303 -91 875 529 
Q 447 1150 447 2328 
Q 447 3434 972 4092 
Q 1497 4750 2381 4750 
Q 2619 4750 2861 4703 
Q 3103 4656 3366 4563 
z
" transform="scale(0.015625)"/>
      <path id="DejaVuSans-2c" d="M 750 794 
L 1409 794 
L 1409 256 
L 897 -744 
L 494 -744 
L 750 256 
L 750 794 
z
" transform="scale(0.015625)"/>
      <path id="DejaVuSans-77" d="M 269 3500 
L 844 3500 
L 1563 769 
L 2278 3500 
L 2956 3500 
L 3675 769 
L 4391 3500 
L 4966 3500 
L 4050 0 
L 3372 0 
L 2619 2869 
L 1863 0 
L 1184 0 
L 269 3500 
z
" transform="scale(0.015625)"/>
      <path id="DejaVuSans-64" d="M 2906 2969 
L 2906 4863 
L 3481 4863 
L 3481 0 
L 2906 0 
L 2906 525 
Q 2725 213 2448 61 
Q 2172 -91 1784 -91 
Q 1150 -91 751 415 
Q 353 922 353 1747 
Q 353 2572 751 3078 
Q 1150 3584 1784 3584 
Q 2172 3584 2448 3432 
Q 2725 3281 2906 2969 
z
M 947 1747 
Q 947 1113 1208 752 
Q 1469 391 1925 391 
Q 2381 391 2643 752 
Q 2906 1113 2906 1747 
Q 2906 2381 2643 2742 
Q 2381 3103 1925 3103 
Q 1469 3103 1208 2742 
Q 947 2381 947 1747 
z
" transform="scale(0.015625)"/>
      <path id="DejaVuSans-79" d="M 2059 -325 
Q 1816 -950 1584 -1140 
Q 1353 -1331 966 -1331 
L 506 -1331 
L 506 -850 
L 844 -850 
Q 1081 -850 1212 -737 
Q 1344 -625 1503 -206 
L 1606 56 
L 191 3500 
L 800 3500 
L 1894 763 
L 2988 3500 
L 3597 3500 
L 2059 -325 
z
" transform="scale(0.015625)"/>
     </defs>
     <use xlink:href="#DejaVuSans-Oblique-52" transform="translate(0 0.015625)"/>
     <use xlink:href="#DejaVuSans-65" transform="translate(69.482422 -16.390625)scale(0.7)"/>
     <use xlink:href="#DejaVuSans-66" transform="translate(112.548828 -16.390625)scale(0.7)"/>
     <use xlink:href="#DejaVuSans-66" transform="translate(137.192383 -16.390625)scale(0.7)"/>
     <use xlink:href="#DejaVuSans-20" transform="translate(164.570312 0.015625)"/>
     <use xlink:href="#DejaVuSans-69" transform="translate(196.357422 0.015625)"/>
     <use xlink:href="#DejaVuSans-6e" transform="translate(224.140625 0.015625)"/>
     <use xlink:href="#DejaVuSans-20" transform="translate(287.519531 0.015625)"/>
     <use xlink:href="#DejaVuSans-53" transform="translate(319.306641 0.015625)"/>
     <use xlink:href="#DejaVuSans-6f" transform="translate(382.783203 0.015625)"/>
     <use xlink:href="#DejaVuSans-75" transform="translate(443.964844 0.015625)"/>
     <use xlink:href="#DejaVuSans-74" transform="translate(507.34375 0.015625)"/>
     <use xlink:href="#DejaVuSans-68" transform="translate(546.552734 0.015625)"/>
     <use xlink:href="#DejaVuSans-20" transform="translate(609.931641 0.015625)"/>
     <use xlink:href="#DejaVuSans-41" transform="translate(641.71875 0.015625)"/>
     <use xlink:href="#DejaVuSans-75" transform="translate(710.126953 0.015625)"/>
     <use xlink:href="#DejaVuSans-73" transform="translate(773.505859 0.015625)"/>
     <use xlink:href="#DejaVuSans-74" transform="translate(825.605469 0.015625)"/>
     <use xlink:href="#DejaVuSans-72" transform="translate(864.814453 0.015625)"/>
     <use xlink:href="#DejaVuSans-61" transform="translate(905.927734 0.015625)"/>
     <use xlink:href="#DejaVuSans-6c" transform="translate(967.207031 0.015625)"/>
     <use xlink:href="#DejaVuSans-69" transform="translate(994.990234 0.015625)"/>
     <use xlink:href="#DejaVuSans-61" transform="translate(1022.773438 0.015625)"/>
     <use xlink:href="#DejaVuSans-20" transform="translate(1084.052734 0.015625)"/>
     <use xlink:href="#DejaVuSans-61" transform="translate(1115.839844 0.015625)"/>
     <use xlink:href="#DejaVuSans-73" transform="translate(1177.119141 0.015625)"/>
     <use xlink:href="#DejaVuSans-20" transform="translate(1229.21875 0.015625)"/>
     <use xlink:href="#DejaVuSans-6f" transform="translate(1261.005859 0.015625)"/>
     <use xlink:href="#DejaVuSans-66" transform="translate(1322.1875 0.015625)"/>
     <use xlink:href="#DejaVuSans-20" transform="translate(1357.392578 0.015625)"/>
     <use xlink:href="#DejaVuSans-44" transform="translate(1389.179688 0.015625)"/>
     <use xlink:href="#DejaVuSans-65" transform="translate(1466.181641 0.015625)"/>
     <use xlink:href="#DejaVuSans-63" transform="translate(1527.705078 0.015625)"/>
     <use xlink:href="#DejaVuSans-65" transform="translate(1582.685547 0.015625)"/>
     <use xlink:href="#DejaVuSans-6d" transform="translate(1644.208984 0.015625)"/>
     <use xlink:href="#DejaVuSans-62" transform="translate(1741.621094 0.015625)"/>
     <use xlink:href="#DejaVuSans-65" transform="translate(1805.097656 0.015625)"/>
     <use xlink:href="#DejaVuSans-72" transform="translate(1866.621094 0.015625)"/>
     <use xlink:href="#DejaVuSans-20" transform="translate(1907.734375 0.015625)"/>
     <use xlink:href="#DejaVuSans-32" transform="translate(1939.521484 0.015625)"/>
     <use xlink:href="#DejaVuSans-36" transform="translate(2003.144531 0.015625)"/>
     <use xlink:href="#DejaVuSans-74" transform="translate(2066.767578 0.015625)"/>
     <use xlink:href="#DejaVuSans-68" transform="translate(2105.976562 0.015625)"/>
     <use xlink:href="#DejaVuSans-2c" transform="translate(2169.355469 0.015625)"/>
     <use xlink:href="#DejaVuSans-20" transform="translate(2201.142578 0.015625)"/>
     <use xlink:href="#DejaVuSans-77" transform="translate(2232.929688 0.015625)"/>
     <use xlink:href="#DejaVuSans-69" transform="translate(2314.716797 0.015625)"/>
     <use xlink:href="#DejaVuSans-74" transform="translate(2342.5 0.015625)"/>
     <use xlink:href="#DejaVuSans-68" transform="translate(2381.708984 0.015625)"/>
     <use xlink:href="#DejaVuSans-20" transform="translate(2445.087891 0.015625)"/>
     <use xlink:href="#DejaVuSans-64" transform="translate(2476.875 0.015625)"/>
     <use xlink:href="#DejaVuSans-61" transform="translate(2540.351562 0.015625)"/>
     <use xlink:href="#DejaVuSans-69" transform="translate(2601.630859 0.015625)"/>
     <use xlink:href="#DejaVuSans-6c" transform="translate(2629.414062 0.015625)"/>
     <use xlink:href="#DejaVuSans-79" transform="translate(2657.197266 0.015625)"/>
     <use xlink:href="#DejaVuSans-20" transform="translate(2716.376953 0.015625)"/>
     <use xlink:href="#DejaVuSans-63" transform="translate(2748.164062 0.015625)"/>
     <use xlink:href="#DejaVuSans-61" transform="translate(2803.144531 0.015625)"/>
     <use xlink:href="#DejaVuSans-73" transform="translate(2864.423828 0.015625)"/>
     <use xlink:href="#DejaVuSans-65" transform="translate(2916.523438 0.015625)"/>
     <use xlink:href="#DejaVuSans-73" transform="translate(2978.046875 0.015625)"/>
    </g>
    <!-- Latest estimate: $R_\mathrm{eff}=4.83 \pm 1.27$ -->
    <g transform="translate(261.248895 43.776)scale(0.12 -0.12)">
     <defs>
      <path id="DejaVuSans-4c" d="M 628 4666 
L 1259 4666 
L 1259 531 
L 3531 531 
L 3531 0 
L 628 0 
L 628 4666 
z
" transform="scale(0.015625)"/>
      <path id="DejaVuSans-3a" d="M 750 794 
L 1409 794 
L 1409 0 
L 750 0 
L 750 794 
z
M 750 3309 
L 1409 3309 
L 1409 2516 
L 750 2516 
L 750 3309 
z
" transform="scale(0.015625)"/>
      <path id="DejaVuSans-3d" d="M 678 2906 
L 4684 2906 
L 4684 2381 
L 678 2381 
L 678 2906 
z
M 678 1631 
L 4684 1631 
L 4684 1100 
L 678 1100 
L 678 1631 
z
" transform="scale(0.015625)"/>
      <path id="DejaVuSans-38" d="M 2034 2216 
Q 1584 2216 1326 1975 
Q 1069 1734 1069 1313 
Q 1069 891 1326 650 
Q 1584 409 2034 409 
Q 2484 409 2743 651 
Q 3003 894 3003 1313 
Q 3003 1734 2745 1975 
Q 2488 2216 2034 2216 
z
M 1403 2484 
Q 997 2584 770 2862 
Q 544 3141 544 3541 
Q 544 4100 942 4425 
Q 1341 4750 2034 4750 
Q 2731 4750 3128 4425 
Q 3525 4100 3525 3541 
Q 3525 3141 3298 2862 
Q 3072 2584 2669 2484 
Q 3125 2378 3379 2068 
Q 3634 1759 3634 1313 
Q 3634 634 3220 271 
Q 2806 -91 2034 -91 
Q 1263 -91 848 271 
Q 434 634 434 1313 
Q 434 1759 690 2068 
Q 947 2378 1403 2484 
z
M 1172 3481 
Q 1172 3119 1398 2916 
Q 1625 2713 2034 2713 
Q 2441 2713 2670 2916 
Q 2900 3119 2900 3481 
Q 2900 3844 2670 4047 
Q 2441 4250 2034 4250 
Q 1625 4250 1398 4047 
Q 1172 3844 1172 3481 
z
" transform="scale(0.015625)"/>
      <path id="DejaVuSans-b1" d="M 2944 4013 
L 2944 2803 
L 4684 2803 
L 4684 2272 
L 2944 2272 
L 2944 1063 
L 2419 1063 
L 2419 2272 
L 678 2272 
L 678 2803 
L 2419 2803 
L 2419 4013 
L 2944 4013 
z
M 678 531 
L 4684 531 
L 4684 0 
L 678 0 
L 678 531 
z
" transform="scale(0.015625)"/>
     </defs>
     <use xlink:href="#DejaVuSans-4c" transform="translate(0 0.015625)"/>
     <use xlink:href="#DejaVuSans-61" transform="translate(55.712891 0.015625)"/>
     <use xlink:href="#DejaVuSans-74" transform="translate(116.992188 0.015625)"/>
     <use xlink:href="#DejaVuSans-65" transform="translate(156.201172 0.015625)"/>
     <use xlink:href="#DejaVuSans-73" transform="translate(217.724609 0.015625)"/>
     <use xlink:href="#DejaVuSans-74" transform="translate(269.824219 0.015625)"/>
     <use xlink:href="#DejaVuSans-20" transform="translate(309.033203 0.015625)"/>
     <use xlink:href="#DejaVuSans-65" transform="translate(340.820312 0.015625)"/>
     <use xlink:href="#DejaVuSans-73" transform="translate(402.34375 0.015625)"/>
     <use xlink:href="#DejaVuSans-74" transform="translate(454.443359 0.015625)"/>
     <use xlink:href="#DejaVuSans-69" transform="translate(493.652344 0.015625)"/>
     <use xlink:href="#DejaVuSans-6d" transform="translate(521.435547 0.015625)"/>
     <use xlink:href="#DejaVuSans-61" transform="translate(618.847656 0.015625)"/>
     <use xlink:href="#DejaVuSans-74" transform="translate(680.126953 0.015625)"/>
     <use xlink:href="#DejaVuSans-65" transform="translate(719.335938 0.015625)"/>
     <use xlink:href="#DejaVuSans-3a" transform="translate(780.859375 0.015625)"/>
     <use xlink:href="#DejaVuSans-20" transform="translate(814.550781 0.015625)"/>
     <use xlink:href="#DejaVuSans-Oblique-52" transform="translate(846.337891 0.015625)"/>
     <use xlink:href="#DejaVuSans-65" transform="translate(915.820312 -16.390625)scale(0.7)"/>
     <use xlink:href="#DejaVuSans-66" transform="translate(958.886719 -16.390625)scale(0.7)"/>
     <use xlink:href="#DejaVuSans-66" transform="translate(983.530273 -16.390625)scale(0.7)"/>
     <use xlink:href="#DejaVuSans-3d" transform="translate(1030.390625 0.015625)"/>
     <use xlink:href="#DejaVuSans-34" transform="translate(1133.662109 0.015625)"/>
     <use xlink:href="#DejaVuSans-2e" transform="translate(1197.285156 0.015625)"/>
     <use xlink:href="#DejaVuSans-38" transform="translate(1226.447266 0.015625)"/>
     <use xlink:href="#DejaVuSans-33" transform="translate(1290.070312 0.015625)"/>
     <use xlink:href="#DejaVuSans-b1" transform="translate(1373.175781 0.015625)"/>
     <use xlink:href="#DejaVuSans-31" transform="translate(1476.447266 0.015625)"/>
     <use xlink:href="#DejaVuSans-2e" transform="translate(1540.070312 0.015625)"/>
     <use xlink:href="#DejaVuSans-32" transform="translate(1566.357422 0.015625)"/>
     <use xlink:href="#DejaVuSans-37" transform="translate(1629.980469 0.015625)"/>
    </g>
   </g>
  </g>
  <g id="axes_2">
   <g id="PolyCollection_3">
    <path d="M 378.393769 268.540198 
L 378.393769 308.594484 
L 388.730352 285.535692 
L 399.066935 255.612291 
L 409.403517 216.735355 
L 419.7401 166.19937 
L 430.076682 100.491867 
L 440.413265 15.048589 
L 450.749848 -96.063653 
L 461.08643 -240.558748 
L 471.423013 -428.466387 
L 481.759595 -672.827666 
L 492.096178 -990.599428 
L 502.432761 -1403.830061 
L 512.769343 -1941.188265 
L 523.105926 -2639.950744 
L 533.442508 -3548.586617 
L 543.779091 -4730.117729 
L 554.115674 -6266.487648 
L 564.452256 -8264.242297 
L 574.788839 -10861.915828 
L 585.125421 -14239.633863 
L 595.462004 -18631.599431 
L 605.798587 -24342.327093 
L 616.135169 -31767.749793 
L 626.471752 -41422.663612 
L 636.808334 -53976.407535 
L 647.144917 -70299.257383 
L 657.4815 -91522.744291 
L 667.818082 -119118.077705 
L 667.818082 -1669936.16 
L 667.818082 -1669936.16 
L 657.4815 -1669936.16 
L 647.144917 -1603293.591044 
L 636.808334 -1109951.364645 
L 626.471752 -768382.984835 
L 616.135169 -531894.722325 
L 605.798587 -368158.656662 
L 595.462004 -254792.822692 
L 585.125421 -176301.172688 
L 574.788839 -121955.057237 
L 564.452256 -84326.48409 
L 554.115674 -58272.648531 
L 543.779091 -40232.886172 
L 533.442508 -27741.926564 
L 523.105926 -19092.897345 
L 512.769343 -13104.007591 
L 502.432761 -8957.011457 
L 492.096178 -6085.368873 
L 481.759595 -4096.812944 
L 471.423013 -2719.738985 
L 461.08643 -1766.086401 
L 450.749848 -1105.639418 
L 440.413265 -648.233697 
L 430.076682 -331.436734 
L 419.7401 -112.018116 
L 409.403517 39.956115 
L 399.066935 145.211996 
L 388.730352 218.097576 
L 378.393769 268.540198 
z
" clip-path="url(#p31733d3c36)" style="fill: #ff00ff; fill-opacity: 0.3"/>
   </g>
   <g id="matplotlib.axis_3">
    <g id="ytick_22">
     <g id="line2d_68">
      <defs>
       <path id="m685e025802" d="M 0 0 
L 3.5 0 
" style="stroke: #800080; stroke-width: 0.8"/>
      </defs>
      <g>
       <use xlink:href="#m685e025802" x="662.649791" y="383.84" style="fill: #800080; stroke: #800080; stroke-width: 0.8"/>
      </g>
     </g>
     <g id="text_36">
      <!-- 0 -->
      <g style="fill: #800080" transform="translate(669.649791 387.639219)scale(0.1 -0.1)">
       <use xlink:href="#DejaVuSans-30"/>
      </g>
     </g>
    </g>
    <g id="ytick_23">
     <g id="line2d_69">
      <g>
       <use xlink:href="#m685e025802" x="662.649791" y="350.4336" style="fill: #800080; stroke: #800080; stroke-width: 0.8"/>
      </g>
     </g>
     <g id="text_37">
      <!-- 20 -->
      <g style="fill: #800080" transform="translate(669.649791 354.232819)scale(0.1 -0.1)">
       <use xlink:href="#DejaVuSans-32"/>
       <use xlink:href="#DejaVuSans-30" x="63.623047"/>
      </g>
     </g>
    </g>
    <g id="ytick_24">
     <g id="line2d_70">
      <g>
       <use xlink:href="#m685e025802" x="662.649791" y="317.0272" style="fill: #800080; stroke: #800080; stroke-width: 0.8"/>
      </g>
     </g>
     <g id="text_38">
      <!-- 40 -->
      <g style="fill: #800080" transform="translate(669.649791 320.826419)scale(0.1 -0.1)">
       <use xlink:href="#DejaVuSans-34"/>
       <use xlink:href="#DejaVuSans-30" x="63.623047"/>
      </g>
     </g>
    </g>
    <g id="ytick_25">
     <g id="line2d_71">
      <g>
       <use xlink:href="#m685e025802" x="662.649791" y="283.6208" style="fill: #800080; stroke: #800080; stroke-width: 0.8"/>
      </g>
     </g>
     <g id="text_39">
      <!-- 60 -->
      <g style="fill: #800080" transform="translate(669.649791 287.420019)scale(0.1 -0.1)">
       <use xlink:href="#DejaVuSans-36"/>
       <use xlink:href="#DejaVuSans-30" x="63.623047"/>
      </g>
     </g>
    </g>
    <g id="ytick_26">
     <g id="line2d_72">
      <g>
       <use xlink:href="#m685e025802" x="662.649791" y="250.2144" style="fill: #800080; stroke: #800080; stroke-width: 0.8"/>
      </g>
     </g>
     <g id="text_40">
      <!-- 80 -->
      <g style="fill: #800080" transform="translate(669.649791 254.013619)scale(0.1 -0.1)">
       <use xlink:href="#DejaVuSans-38"/>
       <use xlink:href="#DejaVuSans-30" x="63.623047"/>
      </g>
     </g>
    </g>
    <g id="ytick_27">
     <g id="line2d_73">
      <g>
       <use xlink:href="#m685e025802" x="662.649791" y="216.808" style="fill: #800080; stroke: #800080; stroke-width: 0.8"/>
      </g>
     </g>
     <g id="text_41">
      <!-- 100 -->
      <g style="fill: #800080" transform="translate(669.649791 220.607219)scale(0.1 -0.1)">
       <use xlink:href="#DejaVuSans-31"/>
       <use xlink:href="#DejaVuSans-30" x="63.623047"/>
       <use xlink:href="#DejaVuSans-30" x="127.246094"/>
      </g>
     </g>
    </g>
    <g id="ytick_28">
     <g id="line2d_74">
      <g>
       <use xlink:href="#m685e025802" x="662.649791" y="183.4016" style="fill: #800080; stroke: #800080; stroke-width: 0.8"/>
      </g>
     </g>
     <g id="text_42">
      <!-- 120 -->
      <g style="fill: #800080" transform="translate(669.649791 187.200819)scale(0.1 -0.1)">
       <use xlink:href="#DejaVuSans-31"/>
       <use xlink:href="#DejaVuSans-32" x="63.623047"/>
       <use xlink:href="#DejaVuSans-30" x="127.246094"/>
      </g>
     </g>
    </g>
    <g id="ytick_29">
     <g id="line2d_75">
      <g>
       <use xlink:href="#m685e025802" x="662.649791" y="149.9952" style="fill: #800080; stroke: #800080; stroke-width: 0.8"/>
      </g>
     </g>
     <g id="text_43">
      <!-- 140 -->
      <g style="fill: #800080" transform="translate(669.649791 153.794419)scale(0.1 -0.1)">
       <use xlink:href="#DejaVuSans-31"/>
       <use xlink:href="#DejaVuSans-34" x="63.623047"/>
       <use xlink:href="#DejaVuSans-30" x="127.246094"/>
      </g>
     </g>
    </g>
    <g id="ytick_30">
     <g id="line2d_76">
      <g>
       <use xlink:href="#m685e025802" x="662.649791" y="116.5888" style="fill: #800080; stroke: #800080; stroke-width: 0.8"/>
      </g>
     </g>
     <g id="text_44">
      <!-- 160 -->
      <g style="fill: #800080" transform="translate(669.649791 120.388019)scale(0.1 -0.1)">
       <use xlink:href="#DejaVuSans-31"/>
       <use xlink:href="#DejaVuSans-36" x="63.623047"/>
       <use xlink:href="#DejaVuSans-30" x="127.246094"/>
      </g>
     </g>
    </g>
    <g id="ytick_31">
     <g id="line2d_77">
      <g>
       <use xlink:href="#m685e025802" x="662.649791" y="83.1824" style="fill: #800080; stroke: #800080; stroke-width: 0.8"/>
      </g>
     </g>
     <g id="text_45">
      <!-- 180 -->
      <g style="fill: #800080" transform="translate(669.649791 86.981619)scale(0.1 -0.1)">
       <use xlink:href="#DejaVuSans-31"/>
       <use xlink:href="#DejaVuSans-38" x="63.623047"/>
       <use xlink:href="#DejaVuSans-30" x="127.246094"/>
      </g>
     </g>
    </g>
    <g id="ytick_32">
     <g id="line2d_78">
      <g>
       <use xlink:href="#m685e025802" x="662.649791" y="49.776" style="fill: #800080; stroke: #800080; stroke-width: 0.8"/>
      </g>
     </g>
     <g id="text_46">
      <!-- 200 -->
      <g style="fill: #800080" transform="translate(669.649791 53.575219)scale(0.1 -0.1)">
       <use xlink:href="#DejaVuSans-32"/>
       <use xlink:href="#DejaVuSans-30" x="63.623047"/>
       <use xlink:href="#DejaVuSans-30" x="127.246094"/>
      </g>
     </g>
    </g>
    <g id="text_47">
     <!-- Daily confirmed cases (linear scale) -->
     <g style="fill: #800080" transform="translate(700.335728 306.058781)rotate(-90)scale(0.1 -0.1)">
      <defs>
       <path id="DejaVuSans-28" d="M 1984 4856 
Q 1566 4138 1362 3434 
Q 1159 2731 1159 2009 
Q 1159 1288 1364 580 
Q 1569 -128 1984 -844 
L 1484 -844 
Q 1016 -109 783 600 
Q 550 1309 550 2009 
Q 550 2706 781 3412 
Q 1013 4119 1484 4856 
L 1984 4856 
z
" transform="scale(0.015625)"/>
       <path id="DejaVuSans-29" d="M 513 4856 
L 1013 4856 
Q 1481 4119 1714 3412 
Q 1947 2706 1947 2009 
Q 1947 1309 1714 600 
Q 1481 -109 1013 -844 
L 513 -844 
Q 928 -128 1133 580 
Q 1338 1288 1338 2009 
Q 1338 2731 1133 3434 
Q 928 4138 513 4856 
z
" transform="scale(0.015625)"/>
      </defs>
      <use xlink:href="#DejaVuSans-44"/>
      <use xlink:href="#DejaVuSans-61" x="77.001953"/>
      <use xlink:href="#DejaVuSans-69" x="138.28125"/>
      <use xlink:href="#DejaVuSans-6c" x="166.064453"/>
      <use xlink:href="#DejaVuSans-79" x="193.847656"/>
      <use xlink:href="#DejaVuSans-20" x="253.027344"/>
      <use xlink:href="#DejaVuSans-63" x="284.814453"/>
      <use xlink:href="#DejaVuSans-6f" x="339.794922"/>
      <use xlink:href="#DejaVuSans-6e" x="400.976562"/>
      <use xlink:href="#DejaVuSans-66" x="464.355469"/>
      <use xlink:href="#DejaVuSans-69" x="499.560547"/>
      <use xlink:href="#DejaVuSans-72" x="527.34375"/>
      <use xlink:href="#DejaVuSans-6d" x="566.707031"/>
      <use xlink:href="#DejaVuSans-65" x="664.119141"/>
      <use xlink:href="#DejaVuSans-64" x="725.642578"/>
      <use xlink:href="#DejaVuSans-20" x="789.119141"/>
      <use xlink:href="#DejaVuSans-63" x="820.90625"/>
      <use xlink:href="#DejaVuSans-61" x="875.886719"/>
      <use xlink:href="#DejaVuSans-73" x="937.166016"/>
      <use xlink:href="#DejaVuSans-65" x="989.265625"/>
      <use xlink:href="#DejaVuSans-73" x="1050.789062"/>
      <use xlink:href="#DejaVuSans-20" x="1102.888672"/>
      <use xlink:href="#DejaVuSans-28" x="1134.675781"/>
      <use xlink:href="#DejaVuSans-6c" x="1173.689453"/>
      <use xlink:href="#DejaVuSans-69" x="1201.472656"/>
      <use xlink:href="#DejaVuSans-6e" x="1229.255859"/>
      <use xlink:href="#DejaVuSans-65" x="1292.634766"/>
      <use xlink:href="#DejaVuSans-61" x="1354.158203"/>
      <use xlink:href="#DejaVuSans-72" x="1415.4375"/>
      <use xlink:href="#DejaVuSans-20" x="1456.550781"/>
      <use xlink:href="#DejaVuSans-73" x="1488.337891"/>
      <use xlink:href="#DejaVuSans-63" x="1540.4375"/>
      <use xlink:href="#DejaVuSans-61" x="1595.417969"/>
      <use xlink:href="#DejaVuSans-6c" x="1656.697266"/>
      <use xlink:href="#DejaVuSans-65" x="1684.480469"/>
      <use xlink:href="#DejaVuSans-29" x="1746.003906"/>
     </g>
    </g>
   </g>
   <g id="line2d_79">
    <path d="M 21.78167 383.806594 
L 21.78167 382.136274 
L 32.118252 382.136274 
L 32.118252 383.806594 
L 42.454835 383.806594 
L 42.454835 383.806594 
L 52.791417 383.806594 
L 52.791417 383.806594 
L 63.128 383.806594 
L 63.128 383.806594 
L 73.464583 383.806594 
L 73.464583 383.806594 
L 83.801165 383.806594 
L 83.801165 383.806594 
L 94.137748 383.806594 
L 94.137748 383.806594 
L 104.47433 383.806594 
L 104.47433 383.806594 
L 114.810913 383.806594 
L 114.810913 382.136274 
L 125.147496 382.136274 
L 125.147496 385.476914 
L 135.484078 385.476914 
L 135.484078 383.806594 
L 145.820661 383.806594 
L 145.820661 383.806594 
L 156.157243 383.806594 
L 156.157243 383.806594 
L 166.493826 383.806594 
L 166.493826 383.806594 
L 176.830409 383.806594 
L 176.830409 383.806594 
L 187.166991 383.806594 
L 187.166991 383.806594 
L 197.503574 383.806594 
L 197.503574 383.806594 
L 207.840156 383.806594 
L 207.840156 383.806594 
L 218.176739 383.806594 
L 218.176739 383.806594 
L 228.513322 383.806594 
L 228.513322 383.806594 
L 238.849904 383.806594 
L 238.849904 383.806594 
L 249.186487 383.806594 
L 249.186487 383.806594 
L 259.523069 383.806594 
L 259.523069 383.806594 
L 269.859652 383.806594 
L 269.859652 382.136274 
L 280.196235 382.136274 
L 280.196235 380.465954 
L 290.532817 380.465954 
L 290.532817 382.136274 
L 300.8694 382.136274 
L 300.8694 380.465954 
L 311.205982 380.465954 
L 311.205982 378.795634 
L 321.542565 378.795634 
L 321.542565 378.795634 
L 331.879148 378.795634 
L 331.879148 350.400194 
L 342.21573 350.400194 
L 342.21573 362.092434 
L 352.552313 362.092434 
L 352.552313 330.356354 
L 362.888895 330.356354 
L 362.888895 328.686034 
L 373.225478 328.686034 
L 373.225478 305.301554 
L 383.562061 305.301554 
" clip-path="url(#p31733d3c36)" style="fill: none; stroke: #800080; stroke-width: 1.5; stroke-linecap: square"/>
   </g>
   <g id="line2d_80">
    <path d="M 16.613378 383.406237 
L 26.949961 383.431432 
L 37.286543 383.455603 
L 47.623126 383.47697 
L 57.959709 383.493881 
L 68.296291 383.505249 
L 78.632874 383.511003 
L 88.969457 383.51236 
L 99.306039 383.511734 
L 109.642622 383.512132 
L 119.979204 383.516306 
L 130.315787 383.525906 
L 140.65237 383.540726 
L 150.988952 383.558749 
L 161.325535 383.576457 
L 171.662117 383.588772 
L 181.9987 383.59017 
L 192.335283 383.573216 
L 202.671865 383.528751 
L 213.008448 383.444024 
L 223.34503 383.301547 
L 233.681613 383.077049 
L 244.018196 382.737061 
L 254.354778 382.235719 
L 264.691361 381.510544 
L 275.027943 380.476924 
L 285.364526 379.020844 
L 295.701109 376.989112 
L 306.037691 374.175694 
L 316.374274 370.302873 
L 326.710856 364.994158 
L 337.047439 357.736067 
L 347.384022 347.831849 
L 357.720604 334.31731 
L 368.057187 315.871754 
L 378.393769 290.696063 
" clip-path="url(#p31733d3c36)" style="fill: none; stroke: #ff00ff; stroke-width: 1.5; stroke-linecap: square"/>
   </g>
   <g id="line2d_81">
    <path d="M 378.393769 290.696063 
L 388.730352 256.195202 
L 399.066935 208.915095 
L 409.403517 144.122261 
L 419.7401 55.32992 
L 424.525211 -1 
" clip-path="url(#p31733d3c36)" style="fill: none; stroke-dasharray: 5.55,2.4; stroke-dashoffset: 0; stroke: #ff00ff; stroke-width: 1.5"/>
   </g>
   <g id="patch_7">
    <path d="M 63.128 383.84 
L 63.128 49.776 
" style="fill: none; stroke: #1f77b4; stroke-width: 0.8; stroke-linejoin: miter; stroke-linecap: square"/>
   </g>
   <g id="patch_8">
    <path d="M 662.649791 383.84 
L 662.649791 49.776 
" style="fill: none; stroke: #800080; stroke-width: 0.8; stroke-linejoin: miter; stroke-linecap: square"/>
   </g>
   <g id="patch_9">
    <path d="M 63.128 383.84 
L 662.649791 383.84 
" style="fill: none; stroke: #000000; stroke-width: 0.8; stroke-linejoin: miter; stroke-linecap: square"/>
   </g>
   <g id="patch_10">
    <path d="M 63.128 49.776 
L 662.649791 49.776 
" style="fill: none; stroke: #000000; stroke-width: 0.8; stroke-linejoin: miter; stroke-linecap: square"/>
   </g>
   <g id="legend_1">
    <g id="patch_11">
     <path d="M 68.728 126.6485 
L 219.353 126.6485 
Q 220.953 126.6485 220.953 125.0485 
L 220.953 55.376 
Q 220.953 53.776 219.353 53.776 
L 68.728 53.776 
Q 67.128 53.776 67.128 55.376 
L 67.128 125.0485 
Q 67.128 126.6485 68.728 126.6485 
z
" style="fill: #ffffff; opacity: 0.8; stroke: #cccccc; stroke-linejoin: miter"/>
    </g>
    <g id="patch_12">
     <path d="M 70.328 63.05475 
L 86.328 63.05475 
L 86.328 57.45475 
L 70.328 57.45475 
z
" style="fill: #1f77b4; stroke: #1f77b4; stroke-linejoin: miter"/>
    </g>
    <g id="text_48">
     <!-- $R_\mathrm{eff}$ -->
     <g transform="translate(92.728 63.05475)scale(0.08 -0.08)">
      <use xlink:href="#DejaVuSans-Oblique-52" transform="translate(0 0.09375)"/>
      <use xlink:href="#DejaVuSans-65" transform="translate(69.482422 -16.3125)scale(0.7)"/>
      <use xlink:href="#DejaVuSans-66" transform="translate(112.548828 -16.3125)scale(0.7)"/>
      <use xlink:href="#DejaVuSans-66" transform="translate(137.192383 -16.3125)scale(0.7)"/>
     </g>
    </g>
    <g id="patch_13">
     <path d="M 70.328 74.7985 
L 86.328 74.7985 
L 86.328 69.1985 
L 70.328 69.1985 
z
" style="fill: url(#h8d7908bfd5); fill-opacity: 0.2; stroke: #0000ff; stroke-opacity: 0.2; stroke-linejoin: miter"/>
    </g>
    <g id="text_49">
     <!-- $R_\mathrm{eff}$ uncertainty -->
     <g transform="translate(92.728 74.7985)scale(0.08 -0.08)">
      <use xlink:href="#DejaVuSans-Oblique-52" transform="translate(0 0.015625)"/>
      <use xlink:href="#DejaVuSans-65" transform="translate(69.482422 -16.390625)scale(0.7)"/>
      <use xlink:href="#DejaVuSans-66" transform="translate(112.548828 -16.390625)scale(0.7)"/>
      <use xlink:href="#DejaVuSans-66" transform="translate(137.192383 -16.390625)scale(0.7)"/>
      <use xlink:href="#DejaVuSans-20" transform="translate(164.570312 0.015625)"/>
      <use xlink:href="#DejaVuSans-75" transform="translate(196.357422 0.015625)"/>
      <use xlink:href="#DejaVuSans-6e" transform="translate(259.736328 0.015625)"/>
      <use xlink:href="#DejaVuSans-63" transform="translate(323.115234 0.015625)"/>
      <use xlink:href="#DejaVuSans-65" transform="translate(378.095703 0.015625)"/>
      <use xlink:href="#DejaVuSans-72" transform="translate(439.619141 0.015625)"/>
      <use xlink:href="#DejaVuSans-74" transform="translate(480.732422 0.015625)"/>
      <use xlink:href="#DejaVuSans-61" transform="translate(519.941406 0.015625)"/>
      <use xlink:href="#DejaVuSans-69" transform="translate(581.220703 0.015625)"/>
      <use xlink:href="#DejaVuSans-6e" transform="translate(609.003906 0.015625)"/>
      <use xlink:href="#DejaVuSans-74" transform="translate(672.382812 0.015625)"/>
      <use xlink:href="#DejaVuSans-79" transform="translate(711.591797 0.015625)"/>
     </g>
    </g>
    <g id="line2d_82">
     <path d="M 70.328 83.75725 
L 70.328 83.75725 
L 78.328 83.75725 
L 78.328 83.75725 
L 86.328 83.75725 
" style="fill: none; stroke: #800080; stroke-width: 1.5; stroke-linecap: square"/>
    </g>
    <g id="text_50">
     <!-- Daily cases -->
     <g transform="translate(92.728 86.55725)scale(0.08 -0.08)">
      <use xlink:href="#DejaVuSans-44"/>
      <use xlink:href="#DejaVuSans-61" x="77.001953"/>
      <use xlink:href="#DejaVuSans-69" x="138.28125"/>
      <use xlink:href="#DejaVuSans-6c" x="166.064453"/>
      <use xlink:href="#DejaVuSans-79" x="193.847656"/>
      <use xlink:href="#DejaVuSans-20" x="253.027344"/>
      <use xlink:href="#DejaVuSans-63" x="284.814453"/>
      <use xlink:href="#DejaVuSans-61" x="339.794922"/>
      <use xlink:href="#DejaVuSans-73" x="401.074219"/>
      <use xlink:href="#DejaVuSans-65" x="453.173828"/>
      <use xlink:href="#DejaVuSans-73" x="514.697266"/>
     </g>
    </g>
    <g id="line2d_83">
     <path d="M 70.328 95.49975 
L 78.328 95.49975 
L 86.328 95.49975 
" style="fill: none; stroke: #ff00ff; stroke-width: 1.5; stroke-linecap: square"/>
    </g>
    <g id="text_51">
     <!-- Daily cases (smoothed) -->
     <g transform="translate(92.728 98.29975)scale(0.08 -0.08)">
      <use xlink:href="#DejaVuSans-44"/>
      <use xlink:href="#DejaVuSans-61" x="77.001953"/>
      <use xlink:href="#DejaVuSans-69" x="138.28125"/>
      <use xlink:href="#DejaVuSans-6c" x="166.064453"/>
      <use xlink:href="#DejaVuSans-79" x="193.847656"/>
      <use xlink:href="#DejaVuSans-20" x="253.027344"/>
      <use xlink:href="#DejaVuSans-63" x="284.814453"/>
      <use xlink:href="#DejaVuSans-61" x="339.794922"/>
      <use xlink:href="#DejaVuSans-73" x="401.074219"/>
      <use xlink:href="#DejaVuSans-65" x="453.173828"/>
      <use xlink:href="#DejaVuSans-73" x="514.697266"/>
      <use xlink:href="#DejaVuSans-20" x="566.796875"/>
      <use xlink:href="#DejaVuSans-28" x="598.583984"/>
      <use xlink:href="#DejaVuSans-73" x="637.597656"/>
      <use xlink:href="#DejaVuSans-6d" x="689.697266"/>
      <use xlink:href="#DejaVuSans-6f" x="787.109375"/>
      <use xlink:href="#DejaVuSans-6f" x="848.291016"/>
      <use xlink:href="#DejaVuSans-74" x="909.472656"/>
      <use xlink:href="#DejaVuSans-68" x="948.681641"/>
      <use xlink:href="#DejaVuSans-65" x="1012.060547"/>
      <use xlink:href="#DejaVuSans-64" x="1073.583984"/>
      <use xlink:href="#DejaVuSans-29" x="1137.060547"/>
     </g>
    </g>
    <g id="line2d_84">
     <path d="M 70.328 107.24225 
L 78.328 107.24225 
L 86.328 107.24225 
" style="fill: none; stroke-dasharray: 5.55,2.4; stroke-dashoffset: 0; stroke: #ff00ff; stroke-width: 1.5"/>
    </g>
    <g id="text_52">
     <!-- Daily cases (exponential trend) -->
     <g transform="translate(92.728 110.04225)scale(0.08 -0.08)">
      <defs>
       <path id="DejaVuSans-78" d="M 3513 3500 
L 2247 1797 
L 3578 0 
L 2900 0 
L 1881 1375 
L 863 0 
L 184 0 
L 1544 1831 
L 300 3500 
L 978 3500 
L 1906 2253 
L 2834 3500 
L 3513 3500 
z
" transform="scale(0.015625)"/>
       <path id="DejaVuSans-70" d="M 1159 525 
L 1159 -1331 
L 581 -1331 
L 581 3500 
L 1159 3500 
L 1159 2969 
Q 1341 3281 1617 3432 
Q 1894 3584 2278 3584 
Q 2916 3584 3314 3078 
Q 3713 2572 3713 1747 
Q 3713 922 3314 415 
Q 2916 -91 2278 -91 
Q 1894 -91 1617 61 
Q 1341 213 1159 525 
z
M 3116 1747 
Q 3116 2381 2855 2742 
Q 2594 3103 2138 3103 
Q 1681 3103 1420 2742 
Q 1159 2381 1159 1747 
Q 1159 1113 1420 752 
Q 1681 391 2138 391 
Q 2594 391 2855 752 
Q 3116 1113 3116 1747 
z
" transform="scale(0.015625)"/>
      </defs>
      <use xlink:href="#DejaVuSans-44"/>
      <use xlink:href="#DejaVuSans-61" x="77.001953"/>
      <use xlink:href="#DejaVuSans-69" x="138.28125"/>
      <use xlink:href="#DejaVuSans-6c" x="166.064453"/>
      <use xlink:href="#DejaVuSans-79" x="193.847656"/>
      <use xlink:href="#DejaVuSans-20" x="253.027344"/>
      <use xlink:href="#DejaVuSans-63" x="284.814453"/>
      <use xlink:href="#DejaVuSans-61" x="339.794922"/>
      <use xlink:href="#DejaVuSans-73" x="401.074219"/>
      <use xlink:href="#DejaVuSans-65" x="453.173828"/>
      <use xlink:href="#DejaVuSans-73" x="514.697266"/>
      <use xlink:href="#DejaVuSans-20" x="566.796875"/>
      <use xlink:href="#DejaVuSans-28" x="598.583984"/>
      <use xlink:href="#DejaVuSans-65" x="637.597656"/>
      <use xlink:href="#DejaVuSans-78" x="697.371094"/>
      <use xlink:href="#DejaVuSans-70" x="756.550781"/>
      <use xlink:href="#DejaVuSans-6f" x="820.027344"/>
      <use xlink:href="#DejaVuSans-6e" x="881.208984"/>
      <use xlink:href="#DejaVuSans-65" x="944.587891"/>
      <use xlink:href="#DejaVuSans-6e" x="1006.111328"/>
      <use xlink:href="#DejaVuSans-74" x="1069.490234"/>
      <use xlink:href="#DejaVuSans-69" x="1108.699219"/>
      <use xlink:href="#DejaVuSans-61" x="1136.482422"/>
      <use xlink:href="#DejaVuSans-6c" x="1197.761719"/>
      <use xlink:href="#DejaVuSans-20" x="1225.544922"/>
      <use xlink:href="#DejaVuSans-74" x="1257.332031"/>
      <use xlink:href="#DejaVuSans-72" x="1296.541016"/>
      <use xlink:href="#DejaVuSans-65" x="1335.404297"/>
      <use xlink:href="#DejaVuSans-6e" x="1396.927734"/>
      <use xlink:href="#DejaVuSans-64" x="1460.306641"/>
      <use xlink:href="#DejaVuSans-29" x="1523.783203"/>
     </g>
    </g>
    <g id="patch_14">
     <path d="M 70.328 121.78475 
L 86.328 121.78475 
L 86.328 116.18475 
L 70.328 116.18475 
z
" style="fill: #ff00ff; fill-opacity: 0.3"/>
    </g>
    <g id="text_53">
     <!-- Smoothing/trend uncertainty -->
     <g transform="translate(92.728 121.78475)scale(0.08 -0.08)">
      <defs>
       <path id="DejaVuSans-67" d="M 2906 1791 
Q 2906 2416 2648 2759 
Q 2391 3103 1925 3103 
Q 1463 3103 1205 2759 
Q 947 2416 947 1791 
Q 947 1169 1205 825 
Q 1463 481 1925 481 
Q 2391 481 2648 825 
Q 2906 1169 2906 1791 
z
M 3481 434 
Q 3481 -459 3084 -895 
Q 2688 -1331 1869 -1331 
Q 1566 -1331 1297 -1286 
Q 1028 -1241 775 -1147 
L 775 -588 
Q 1028 -725 1275 -790 
Q 1522 -856 1778 -856 
Q 2344 -856 2625 -561 
Q 2906 -266 2906 331 
L 2906 616 
Q 2728 306 2450 153 
Q 2172 0 1784 0 
Q 1141 0 747 490 
Q 353 981 353 1791 
Q 353 2603 747 3093 
Q 1141 3584 1784 3584 
Q 2172 3584 2450 3431 
Q 2728 3278 2906 2969 
L 2906 3500 
L 3481 3500 
L 3481 434 
z
" transform="scale(0.015625)"/>
       <path id="DejaVuSans-2f" d="M 1625 4666 
L 2156 4666 
L 531 -594 
L 0 -594 
L 1625 4666 
z
" transform="scale(0.015625)"/>
      </defs>
      <use xlink:href="#DejaVuSans-53"/>
      <use xlink:href="#DejaVuSans-6d" x="63.476562"/>
      <use xlink:href="#DejaVuSans-6f" x="160.888672"/>
      <use xlink:href="#DejaVuSans-6f" x="222.070312"/>
      <use xlink:href="#DejaVuSans-74" x="283.251953"/>
      <use xlink:href="#DejaVuSans-68" x="322.460938"/>
      <use xlink:href="#DejaVuSans-69" x="385.839844"/>
      <use xlink:href="#DejaVuSans-6e" x="413.623047"/>
      <use xlink:href="#DejaVuSans-67" x="477.001953"/>
      <use xlink:href="#DejaVuSans-2f" x="540.478516"/>
      <use xlink:href="#DejaVuSans-74" x="574.169922"/>
      <use xlink:href="#DejaVuSans-72" x="613.378906"/>
      <use xlink:href="#DejaVuSans-65" x="652.242188"/>
      <use xlink:href="#DejaVuSans-6e" x="713.765625"/>
      <use xlink:href="#DejaVuSans-64" x="777.144531"/>
      <use xlink:href="#DejaVuSans-20" x="840.621094"/>
      <use xlink:href="#DejaVuSans-75" x="872.408203"/>
      <use xlink:href="#DejaVuSans-6e" x="935.787109"/>
      <use xlink:href="#DejaVuSans-63" x="999.166016"/>
      <use xlink:href="#DejaVuSans-65" x="1054.146484"/>
      <use xlink:href="#DejaVuSans-72" x="1115.669922"/>
      <use xlink:href="#DejaVuSans-74" x="1156.783203"/>
      <use xlink:href="#DejaVuSans-61" x="1195.992188"/>
      <use xlink:href="#DejaVuSans-69" x="1257.271484"/>
      <use xlink:href="#DejaVuSans-6e" x="1285.054688"/>
      <use xlink:href="#DejaVuSans-74" x="1348.433594"/>
      <use xlink:href="#DejaVuSans-79" x="1387.642578"/>
     </g>
    </g>
   </g>
   <g id="PolyCollection_4">
    <defs>
     <path id="m7feff3f131" d="M 16.613378 -49.48608 
L 16.613378 -48.16 
L 26.949961 -48.16 
L 37.286543 -48.16 
L 47.623126 -48.16 
L 57.959709 -48.16 
L 68.296291 -48.16 
L 78.632874 -48.16 
L 88.969457 -48.16 
L 99.306039 -48.16 
L 109.642622 -48.16 
L 119.979204 -48.16 
L 130.315787 -48.16 
L 140.65237 -48.16 
L 150.988952 -48.16 
L 161.325535 -48.16 
L 171.662117 -48.16 
L 181.9987 -48.16 
L 192.335283 -48.16 
L 202.671865 -48.16 
L 213.008448 -48.16 
L 223.34503 -48.16 
L 233.681613 -48.16 
L 244.018196 -48.496132 
L 254.354778 -49.021075 
L 264.691361 -49.759932 
L 275.027943 -50.785833 
L 285.364526 -52.198658 
L 295.701109 -54.136076 
L 306.037691 -56.785704 
L 316.374274 -60.392969 
L 326.710856 -65.260305 
L 337.047439 -71.735895 
L 347.384022 -80.196042 
L 357.720604 -91.049727 
L 368.057187 -104.699563 
L 378.393769 -121.427979 
L 378.393769 -161.179896 
L 378.393769 -161.179896 
L 368.057187 -127.556929 
L 357.720604 -104.315654 
L 347.384022 -88.140261 
L 337.047439 -76.791971 
L 326.710856 -68.751379 
L 316.374274 -63.001284 
L 306.037691 -58.862909 
L 295.701109 -55.885701 
L 285.364526 -53.759653 
L 275.027943 -52.260319 
L 264.691361 -51.21898 
L 254.354778 -50.507488 
L 244.018196 -50.029746 
L 233.681613 -49.715013 
L 223.34503 -49.512081 
L 213.008448 -49.38448 
L 202.671865 -49.306731 
L 192.335283 -49.261456 
L 181.9987 -49.237011 
L 171.662117 -49.226088 
L 161.325535 -49.22365 
L 150.988952 -49.226935 
L 140.65237 -49.233548 
L 130.315787 -49.242061 
L 119.979204 -49.25144 
L 109.642622 -49.261197 
L 99.306039 -49.271665 
L 88.969457 -49.28381 
L 78.632874 -49.298999 
L 68.296291 -49.318535 
L 57.959709 -49.343218 
L 47.623126 -49.373147 
L 37.286543 -49.407722 
L 26.949961 -49.445829 
L 16.613378 -49.48608 
z
"/>
    </defs>
    <g clip-path="url(#p31733d3c36)">
     <use xlink:href="#m7feff3f131" x="0" y="432" style="fill: #ff00ff; fill-opacity: 0.3"/>
    </g>
   </g>
  </g>
  <g id="text_54">
   <g id="patch_15">
    <path d="M 501.70125 429.24625 
L 716.8 429.24625 
L 716.8 413.23875 
L 501.70125 413.23875 
z
" style="fill: #ffffff; opacity: 0.8"/>
   </g>
   <!-- @chrisbilbo | chrisbillington.net/COVID_TAS -->
   <g style="fill: #000040; opacity: 0.5" transform="translate(505.70125 423.36)scale(0.08 -0.08)">
    <defs>
     <path id="DejaVuSansMono-40" d="M 3244 1703 
Q 3244 2106 3044 2348 
Q 2844 2591 2509 2591 
Q 2175 2591 1973 2348 
Q 1772 2106 1772 1703 
Q 1772 1297 1973 1055 
Q 2175 813 2509 813 
Q 2844 813 3044 1055 
Q 3244 1297 3244 1703 
z
M 3681 422 
L 3231 422 
L 3231 769 
Q 3116 572 2911 465 
Q 2706 359 2450 359 
Q 1947 359 1617 737 
Q 1288 1116 1288 1703 
Q 1288 2291 1617 2669 
Q 1947 3047 2450 3047 
Q 2700 3047 2909 2937 
Q 3119 2828 3231 2638 
L 3231 2834 
Q 3231 3322 2956 3619 
Q 2681 3916 2228 3916 
Q 1459 3916 1004 3317 
Q 550 2719 550 1697 
Q 550 669 1065 59 
Q 1581 -550 2438 -550 
Q 2606 -550 2775 -519 
Q 2944 -488 3122 -422 
L 3272 -844 
Q 3075 -922 2883 -959 
Q 2691 -997 2509 -997 
Q 1394 -997 739 -269 
Q 84 459 84 1697 
Q 84 2916 671 3637 
Q 1259 4359 2247 4359 
Q 2900 4359 3290 3943 
Q 3681 3528 3681 2828 
L 3681 422 
z
" transform="scale(0.015625)"/>
     <path id="DejaVuSansMono-63" d="M 3316 178 
Q 3084 44 2839 -23 
Q 2594 -91 2338 -91 
Q 1525 -91 1067 396 
Q 609 884 609 1747 
Q 609 2609 1067 3096 
Q 1525 3584 2338 3584 
Q 2591 3584 2831 3518 
Q 3072 3453 3316 3316 
L 3316 2713 
Q 3088 2916 2858 3006 
Q 2628 3097 2338 3097 
Q 1797 3097 1506 2747 
Q 1216 2397 1216 1747 
Q 1216 1100 1508 748 
Q 1800 397 2338 397 
Q 2638 397 2875 489 
Q 3113 581 3316 775 
L 3316 178 
z
" transform="scale(0.015625)"/>
     <path id="DejaVuSansMono-68" d="M 3284 2169 
L 3284 0 
L 2706 0 
L 2706 2169 
Q 2706 2641 2540 2862 
Q 2375 3084 2022 3084 
Q 1619 3084 1401 2798 
Q 1184 2513 1184 1978 
L 1184 0 
L 609 0 
L 609 4863 
L 1184 4863 
L 1184 2975 
Q 1338 3275 1600 3429 
Q 1863 3584 2222 3584 
Q 2756 3584 3020 3232 
Q 3284 2881 3284 2169 
z
" transform="scale(0.015625)"/>
     <path id="DejaVuSansMono-72" d="M 3609 2778 
Q 3425 2922 3234 2987 
Q 3044 3053 2816 3053 
Q 2278 3053 1993 2715 
Q 1709 2378 1709 1741 
L 1709 0 
L 1131 0 
L 1131 3500 
L 1709 3500 
L 1709 2816 
Q 1853 3188 2151 3386 
Q 2450 3584 2859 3584 
Q 3072 3584 3256 3531 
Q 3441 3478 3609 3366 
L 3609 2778 
z
" transform="scale(0.015625)"/>
     <path id="DejaVuSansMono-69" d="M 800 3500 
L 2272 3500 
L 2272 447 
L 3413 447 
L 3413 0 
L 556 0 
L 556 447 
L 1697 447 
L 1697 3053 
L 800 3053 
L 800 3500 
z
M 1697 4863 
L 2272 4863 
L 2272 4134 
L 1697 4134 
L 1697 4863 
z
" transform="scale(0.015625)"/>
     <path id="DejaVuSansMono-73" d="M 3041 3378 
L 3041 2816 
Q 2794 2959 2544 3031 
Q 2294 3103 2034 3103 
Q 1644 3103 1451 2976 
Q 1259 2850 1259 2591 
Q 1259 2356 1403 2240 
Q 1547 2125 2119 2016 
L 2350 1972 
Q 2778 1891 2998 1647 
Q 3219 1403 3219 1013 
Q 3219 494 2850 201 
Q 2481 -91 1825 -91 
Q 1566 -91 1281 -36 
Q 997 19 666 128 
L 666 722 
Q 988 556 1281 473 
Q 1575 391 1838 391 
Q 2219 391 2428 545 
Q 2638 700 2638 978 
Q 2638 1378 1872 1531 
L 1847 1538 
L 1631 1581 
Q 1134 1678 906 1908 
Q 678 2138 678 2534 
Q 678 3038 1018 3311 
Q 1359 3584 1991 3584 
Q 2272 3584 2531 3532 
Q 2791 3481 3041 3378 
z
" transform="scale(0.015625)"/>
     <path id="DejaVuSansMono-62" d="M 2869 1747 
Q 2869 2416 2656 2756 
Q 2444 3097 2028 3097 
Q 1609 3097 1393 2755 
Q 1178 2413 1178 1747 
Q 1178 1084 1393 740 
Q 1609 397 2028 397 
Q 2444 397 2656 737 
Q 2869 1078 2869 1747 
z
M 1178 3053 
Q 1316 3309 1558 3446 
Q 1800 3584 2119 3584 
Q 2750 3584 3112 3098 
Q 3475 2613 3475 1759 
Q 3475 894 3111 401 
Q 2747 -91 2113 -91 
Q 1800 -91 1561 45 
Q 1322 181 1178 441 
L 1178 0 
L 603 0 
L 603 4863 
L 1178 4863 
L 1178 3053 
z
" transform="scale(0.015625)"/>
     <path id="DejaVuSansMono-6c" d="M 1997 1269 
Q 1997 881 2139 684 
Q 2281 488 2559 488 
L 3231 488 
L 3231 0 
L 2503 0 
Q 1988 0 1705 331 
Q 1422 663 1422 1269 
L 1422 4447 
L 500 4447 
L 500 4897 
L 1997 4897 
L 1997 1269 
z
" transform="scale(0.015625)"/>
     <path id="DejaVuSansMono-6f" d="M 1925 3097 
Q 1488 3097 1263 2756 
Q 1038 2416 1038 1747 
Q 1038 1081 1263 739 
Q 1488 397 1925 397 
Q 2366 397 2591 739 
Q 2816 1081 2816 1747 
Q 2816 2416 2591 2756 
Q 2366 3097 1925 3097 
z
M 1925 3584 
Q 2653 3584 3039 3112 
Q 3425 2641 3425 1747 
Q 3425 850 3040 379 
Q 2656 -91 1925 -91 
Q 1197 -91 812 379 
Q 428 850 428 1747 
Q 428 2641 812 3112 
Q 1197 3584 1925 3584 
z
" transform="scale(0.015625)"/>
     <path id="DejaVuSansMono-20" transform="scale(0.015625)"/>
     <path id="DejaVuSansMono-7c" d="M 2194 4891 
L 2194 -1509 
L 1656 -1509 
L 1656 4891 
L 2194 4891 
z
" transform="scale(0.015625)"/>
     <path id="DejaVuSansMono-6e" d="M 3284 2169 
L 3284 0 
L 2706 0 
L 2706 2169 
Q 2706 2641 2540 2862 
Q 2375 3084 2022 3084 
Q 1619 3084 1401 2798 
Q 1184 2513 1184 1978 
L 1184 0 
L 609 0 
L 609 3500 
L 1184 3500 
L 1184 2975 
Q 1338 3275 1600 3429 
Q 1863 3584 2222 3584 
Q 2756 3584 3020 3232 
Q 3284 2881 3284 2169 
z
" transform="scale(0.015625)"/>
     <path id="DejaVuSansMono-67" d="M 2681 1778 
Q 2681 2425 2470 2761 
Q 2259 3097 1856 3097 
Q 1434 3097 1212 2761 
Q 991 2425 991 1778 
Q 991 1131 1214 792 
Q 1438 453 1863 453 
Q 2259 453 2470 793 
Q 2681 1134 2681 1778 
z
M 3256 225 
Q 3256 -563 2884 -969 
Q 2513 -1375 1791 -1375 
Q 1553 -1375 1293 -1331 
Q 1034 -1288 775 -1203 
L 775 -634 
Q 1081 -778 1331 -847 
Q 1581 -916 1791 -916 
Q 2256 -916 2468 -662 
Q 2681 -409 2681 141 
L 2681 166 
L 2681 556 
Q 2544 263 2306 119 
Q 2069 -25 1728 -25 
Q 1116 -25 750 465 
Q 384 956 384 1778 
Q 384 2603 750 3093 
Q 1116 3584 1728 3584 
Q 2066 3584 2300 3450 
Q 2534 3316 2681 3034 
L 2681 3488 
L 3256 3488 
L 3256 225 
z
" transform="scale(0.015625)"/>
     <path id="DejaVuSansMono-74" d="M 1919 4494 
L 1919 3500 
L 3225 3500 
L 3225 3053 
L 1919 3053 
L 1919 1153 
Q 1919 766 2066 612 
Q 2213 459 2578 459 
L 3225 459 
L 3225 0 
L 2522 0 
Q 1875 0 1609 259 
Q 1344 519 1344 1153 
L 1344 3053 
L 409 3053 
L 409 3500 
L 1344 3500 
L 1344 4494 
L 1919 4494 
z
" transform="scale(0.015625)"/>
     <path id="DejaVuSansMono-2e" d="M 1528 953 
L 2316 953 
L 2316 0 
L 1528 0 
L 1528 953 
z
" transform="scale(0.015625)"/>
     <path id="DejaVuSansMono-65" d="M 3475 1894 
L 3475 1613 
L 984 1613 
L 984 1594 
Q 984 1022 1282 709 
Q 1581 397 2125 397 
Q 2400 397 2700 484 
Q 3000 572 3341 750 
L 3341 178 
Q 3013 44 2708 -23 
Q 2403 -91 2119 -91 
Q 1303 -91 843 398 
Q 384 888 384 1747 
Q 384 2584 834 3084 
Q 1284 3584 2034 3584 
Q 2703 3584 3089 3131 
Q 3475 2678 3475 1894 
z
M 2900 2063 
Q 2888 2569 2661 2833 
Q 2434 3097 2009 3097 
Q 1594 3097 1325 2822 
Q 1056 2547 1006 2059 
L 2900 2063 
z
" transform="scale(0.015625)"/>
     <path id="DejaVuSansMono-2f" d="M 2778 4666 
L 3372 4666 
L 916 -594 
L 319 -594 
L 2778 4666 
z
" transform="scale(0.015625)"/>
     <path id="DejaVuSansMono-43" d="M 3353 166 
Q 3113 38 2859 -26 
Q 2606 -91 2322 -91 
Q 1425 -91 929 543 
Q 434 1178 434 2328 
Q 434 3472 932 4111 
Q 1431 4750 2322 4750 
Q 2606 4750 2859 4686 
Q 3113 4622 3353 4494 
L 3353 3847 
Q 3122 4038 2856 4138 
Q 2591 4238 2322 4238 
Q 1706 4238 1400 3763 
Q 1094 3288 1094 2328 
Q 1094 1372 1400 897 
Q 1706 422 2322 422 
Q 2597 422 2861 522 
Q 3125 622 3353 813 
L 3353 166 
z
" transform="scale(0.015625)"/>
     <path id="DejaVuSansMono-4f" d="M 2828 2328 
Q 2828 3356 2617 3797 
Q 2406 4238 1925 4238 
Q 1447 4238 1236 3797 
Q 1025 3356 1025 2328 
Q 1025 1303 1236 862 
Q 1447 422 1925 422 
Q 2406 422 2617 861 
Q 2828 1300 2828 2328 
z
M 3488 2328 
Q 3488 1109 3102 509 
Q 2716 -91 1925 -91 
Q 1134 -91 750 506 
Q 366 1103 366 2328 
Q 366 3550 752 4150 
Q 1138 4750 1925 4750 
Q 2716 4750 3102 4150 
Q 3488 3550 3488 2328 
z
" transform="scale(0.015625)"/>
     <path id="DejaVuSansMono-56" d="M 1925 531 
L 3022 4666 
L 3675 4666 
L 2309 0 
L 1544 0 
L 178 4666 
L 831 4666 
L 1925 531 
z
" transform="scale(0.015625)"/>
     <path id="DejaVuSansMono-49" d="M 628 4666 
L 3219 4666 
L 3219 4134 
L 2241 4134 
L 2241 531 
L 3219 531 
L 3219 0 
L 628 0 
L 628 531 
L 1606 531 
L 1606 4134 
L 628 4134 
L 628 4666 
z
" transform="scale(0.015625)"/>
     <path id="DejaVuSansMono-44" d="M 1363 519 
Q 2159 519 2475 911 
Q 2791 1303 2791 2328 
Q 2791 3363 2477 3755 
Q 2163 4147 1363 4147 
L 1063 4147 
L 1063 519 
L 1363 519 
z
M 1375 4666 
Q 2444 4666 2950 4097 
Q 3456 3528 3456 2328 
Q 3456 1134 2950 567 
Q 2444 0 1375 0 
L 428 0 
L 428 4666 
L 1375 4666 
z
" transform="scale(0.015625)"/>
     <path id="DejaVuSansMono-5f" d="M 3853 -1259 
L 3853 -1509 
L 0 -1509 
L 0 -1259 
L 3853 -1259 
z
" transform="scale(0.015625)"/>
     <path id="DejaVuSansMono-54" d="M 147 4666 
L 3706 4666 
L 3706 4134 
L 2247 4134 
L 2247 0 
L 1613 0 
L 1613 4134 
L 147 4134 
L 147 4666 
z
" transform="scale(0.015625)"/>
     <path id="DejaVuSansMono-41" d="M 1925 4109 
L 1259 1722 
L 2591 1722 
L 1925 4109 
z
M 1544 4666 
L 2309 4666 
L 3738 0 
L 3084 0 
L 2741 1216 
L 1106 1216 
L 769 0 
L 116 0 
L 1544 4666 
z
" transform="scale(0.015625)"/>
     <path id="DejaVuSansMono-53" d="M 3163 4506 
L 3163 3866 
Q 2875 4050 2586 4144 
Q 2297 4238 2003 4238 
Q 1556 4238 1297 4030 
Q 1038 3822 1038 3469 
Q 1038 3159 1208 2996 
Q 1378 2834 1844 2725 
L 2175 2650 
Q 2831 2497 3131 2169 
Q 3431 1841 3431 1275 
Q 3431 609 3018 259 
Q 2606 -91 1819 -91 
Q 1491 -91 1159 -20 
Q 828 50 494 191 
L 494 863 
Q 853 634 1173 528 
Q 1494 422 1819 422 
Q 2297 422 2562 636 
Q 2828 850 2828 1234 
Q 2828 1584 2645 1768 
Q 2463 1953 2009 2053 
L 1672 2131 
Q 1022 2278 728 2575 
Q 434 2872 434 3372 
Q 434 3997 854 4373 
Q 1275 4750 1972 4750 
Q 2241 4750 2537 4689 
Q 2834 4628 3163 4506 
z
" transform="scale(0.015625)"/>
    </defs>
    <use xlink:href="#DejaVuSansMono-40"/>
    <use xlink:href="#DejaVuSansMono-63" x="60.205078"/>
    <use xlink:href="#DejaVuSansMono-68" x="120.410156"/>
    <use xlink:href="#DejaVuSansMono-72" x="180.615234"/>
    <use xlink:href="#DejaVuSansMono-69" x="240.820312"/>
    <use xlink:href="#DejaVuSansMono-73" x="301.025391"/>
    <use xlink:href="#DejaVuSansMono-62" x="361.230469"/>
    <use xlink:href="#DejaVuSansMono-69" x="421.435547"/>
    <use xlink:href="#DejaVuSansMono-6c" x="481.640625"/>
    <use xlink:href="#DejaVuSansMono-62" x="541.845703"/>
    <use xlink:href="#DejaVuSansMono-6f" x="602.050781"/>
    <use xlink:href="#DejaVuSansMono-20" x="662.255859"/>
    <use xlink:href="#DejaVuSansMono-7c" x="722.460938"/>
    <use xlink:href="#DejaVuSansMono-20" x="782.666016"/>
    <use xlink:href="#DejaVuSansMono-63" x="842.871094"/>
    <use xlink:href="#DejaVuSansMono-68" x="903.076172"/>
    <use xlink:href="#DejaVuSansMono-72" x="963.28125"/>
    <use xlink:href="#DejaVuSansMono-69" x="1023.486328"/>
    <use xlink:href="#DejaVuSansMono-73" x="1083.691406"/>
    <use xlink:href="#DejaVuSansMono-62" x="1143.896484"/>
    <use xlink:href="#DejaVuSansMono-69" x="1204.101562"/>
    <use xlink:href="#DejaVuSansMono-6c" x="1264.306641"/>
    <use xlink:href="#DejaVuSansMono-6c" x="1324.511719"/>
    <use xlink:href="#DejaVuSansMono-69" x="1384.716797"/>
    <use xlink:href="#DejaVuSansMono-6e" x="1444.921875"/>
    <use xlink:href="#DejaVuSansMono-67" x="1505.126953"/>
    <use xlink:href="#DejaVuSansMono-74" x="1565.332031"/>
    <use xlink:href="#DejaVuSansMono-6f" x="1625.537109"/>
    <use xlink:href="#DejaVuSansMono-6e" x="1685.742188"/>
    <use xlink:href="#DejaVuSansMono-2e" x="1745.947266"/>
    <use xlink:href="#DejaVuSansMono-6e" x="1806.152344"/>
    <use xlink:href="#DejaVuSansMono-65" x="1866.357422"/>
    <use xlink:href="#DejaVuSansMono-74" x="1926.5625"/>
    <use xlink:href="#DejaVuSansMono-2f" x="1986.767578"/>
    <use xlink:href="#DejaVuSansMono-43" x="2046.972656"/>
    <use xlink:href="#DejaVuSansMono-4f" x="2107.177734"/>
    <use xlink:href="#DejaVuSansMono-56" x="2167.382812"/>
    <use xlink:href="#DejaVuSansMono-49" x="2227.587891"/>
    <use xlink:href="#DejaVuSansMono-44" x="2287.792969"/>
    <use xlink:href="#DejaVuSansMono-5f" x="2347.998047"/>
    <use xlink:href="#DejaVuSansMono-54" x="2408.203125"/>
    <use xlink:href="#DejaVuSansMono-41" x="2468.408203"/>
    <use xlink:href="#DejaVuSansMono-53" x="2528.613281"/>
   </g>
  </g>
 </g>
 <defs>
  <clipPath id="p31733d3c36">
   <rect x="63.128" y="49.776" width="599.521791" height="334.064"/>
  </clipPath>
 </defs>
 <defs>
  <pattern id="h8d7908bfd5" patternUnits="userSpaceOnUse" x="0" y="0" width="72" height="72">
   <rect x="0" y="0" width="73" height="73" fill="#00ffff"/>
   <path d="M -36 36 
L 36 -36 
M -33 39 
L 39 -33 
M -30 42 
L 42 -30 
M -27 45 
L 45 -27 
M -24 48 
L 48 -24 
M -21 51 
L 51 -21 
M -18 54 
L 54 -18 
M -15 57 
L 57 -15 
M -12 60 
L 60 -12 
M -9 63 
L 63 -9 
M -6 66 
L 66 -6 
M -3 69 
L 69 -3 
M 0 72 
L 72 0 
M 3 75 
L 75 3 
M 6 78 
L 78 6 
M 9 81 
L 81 9 
M 12 84 
L 84 12 
M 15 87 
L 87 15 
M 18 90 
L 90 18 
M 21 93 
L 93 21 
M 24 96 
L 96 24 
M 27 99 
L 99 27 
M 30 102 
L 102 30 
M 33 105 
L 105 33 
M 36 108 
L 108 36 
" style="fill: #0000ff; stroke: #0000ff; stroke-width: 1.0; stroke-linecap: butt; stroke-linejoin: miter; stroke-opacity: 0.2"/>
  </pattern>
 </defs>
</svg>
