<?xml version="1.0" encoding="utf-8" standalone="no"?>
<!DOCTYPE svg PUBLIC "-//W3C//DTD SVG 1.1//EN"
  "http://www.w3.org/Graphics/SVG/1.1/DTD/svg11.dtd">
<svg height="432pt" version="1.1" viewBox="0 0 576 432" width="576pt" xmlns="http://www.w3.org/2000/svg" xmlns:xlink="http://www.w3.org/1999/xlink">
 <metadata>
  <rdf:RDF xmlns:cc="http://creativecommons.org/ns#" xmlns:dc="http://purl.org/dc/elements/1.1/" xmlns:rdf="http://www.w3.org/1999/02/22-rdf-syntax-ns#">
   <cc:Work>
    <dc:type rdf:resource="http://purl.org/dc/dcmitype/StillImage"/>
    <dc:date>2021-04-20T15:02:48.939335</dc:date>
    <dc:format>image/svg+xml</dc:format>
    <dc:creator>
     <cc:Agent>
      <dc:title>Matplotlib v3.4.1, https://matplotlib.org/</dc:title>
     </cc:Agent>
    </dc:creator>
   </cc:Work>
  </rdf:RDF>
 </metadata>
 <defs>
  <style type="text/css">*{stroke-linecap:butt;stroke-linejoin:round;}</style>
 </defs>
 <g id="figure_1">
  <g id="patch_1">
   <path d="M 0 432 
L 576 432 
L 576 0 
L 0 0 
z
" style="fill:#ffffff;"/>
  </g>
  <g id="axes_1">
   <g id="patch_2">
    <path d="M 72 384.48 
L 518.4 384.48 
L 518.4 51.84 
L 72 51.84 
z
" style="fill:#ffffff;"/>
   </g>
   <g id="PolyCollection_1">
    <defs>
     <path d="M 196.25567 -47.52 
L 67.397938 -47.52 
L 67.397938 -380.16 
L 196.25567 -380.16 
L 196.25567 -380.16 
L 196.25567 -47.52 
z
" id="m6147d77887"/>
    </defs>
    <g clip-path="url(#p7b3b23d0d4)">
     <use style="fill:#ff0000;fill-opacity:0.5;" x="0" xlink:href="#m6147d77887" y="432"/>
    </g>
   </g>
   <g id="PolyCollection_2">
    <defs>
     <path d="M 467.77732 -47.52 
L 196.25567 -47.52 
L 196.25567 -380.16 
L 467.77732 -380.16 
L 467.77732 -380.16 
L 467.77732 -47.52 
z
" id="m88ecce6cbc"/>
    </defs>
    <g clip-path="url(#p7b3b23d0d4)">
     <use style="fill:#ffa500;fill-opacity:0.5;" x="0" xlink:href="#m88ecce6cbc" y="432"/>
    </g>
   </g>
   <g id="PolyCollection_3">
    <defs>
     <path d="M 472.379381 -47.52 
L 467.77732 -47.52 
L 467.77732 -380.16 
L 472.379381 -380.16 
L 472.379381 -380.16 
L 472.379381 -47.52 
z
" id="ma38358b26e"/>
    </defs>
    <g clip-path="url(#p7b3b23d0d4)">
     <use style="fill:#ffa500;fill-opacity:0.5;" x="0" xlink:href="#ma38358b26e" y="432"/>
    </g>
   </g>
   <g id="PolyCollection_4">
    <defs>
     <path d="M 476.981443 -47.52 
L 472.379381 -47.52 
L 472.379381 -380.16 
L 476.981443 -380.16 
L 476.981443 -380.16 
L 476.981443 -47.52 
z
" id="mdeede0d792"/>
    </defs>
    <g clip-path="url(#p7b3b23d0d4)">
     <use style="fill:#ffa500;fill-opacity:0.45;" x="0" xlink:href="#mdeede0d792" y="432"/>
    </g>
   </g>
   <g id="PolyCollection_5">
    <defs>
     <path d="M 481.583505 -47.52 
L 476.981443 -47.52 
L 476.981443 -380.16 
L 481.583505 -380.16 
L 481.583505 -380.16 
L 481.583505 -47.52 
z
" id="m599dddd103"/>
    </defs>
    <g clip-path="url(#p7b3b23d0d4)">
     <use style="fill:#ffa500;fill-opacity:0.4;" x="0" xlink:href="#m599dddd103" y="432"/>
    </g>
   </g>
   <g id="PolyCollection_6">
    <defs>
     <path d="M 486.185567 -47.52 
L 481.583505 -47.52 
L 481.583505 -380.16 
L 486.185567 -380.16 
L 486.185567 -380.16 
L 486.185567 -47.52 
z
" id="m8a5ab73c1d"/>
    </defs>
    <g clip-path="url(#p7b3b23d0d4)">
     <use style="fill:#ffa500;fill-opacity:0.35;" x="0" xlink:href="#m8a5ab73c1d" y="432"/>
    </g>
   </g>
   <g id="PolyCollection_7">
    <defs>
     <path d="M 490.787629 -47.52 
L 486.185567 -47.52 
L 486.185567 -380.16 
L 490.787629 -380.16 
L 490.787629 -380.16 
L 490.787629 -47.52 
z
" id="m6c0d54918b"/>
    </defs>
    <g clip-path="url(#p7b3b23d0d4)">
     <use style="fill:#ffa500;fill-opacity:0.3;" x="0" xlink:href="#m6c0d54918b" y="432"/>
    </g>
   </g>
   <g id="PolyCollection_8">
    <defs>
     <path d="M 495.389691 -47.52 
L 490.787629 -47.52 
L 490.787629 -380.16 
L 495.389691 -380.16 
L 495.389691 -380.16 
L 495.389691 -47.52 
z
" id="m3a7d9cdf49"/>
    </defs>
    <g clip-path="url(#p7b3b23d0d4)">
     <use style="fill:#ffa500;fill-opacity:0.25;" x="0" xlink:href="#m3a7d9cdf49" y="432"/>
    </g>
   </g>
   <g id="PolyCollection_9">
    <defs>
     <path d="M 499.991753 -47.52 
L 495.389691 -47.52 
L 495.389691 -380.16 
L 499.991753 -380.16 
L 499.991753 -380.16 
L 499.991753 -47.52 
z
" id="m76edd5676c"/>
    </defs>
    <g clip-path="url(#p7b3b23d0d4)">
     <use style="fill:#ffa500;fill-opacity:0.2;" x="0" xlink:href="#m76edd5676c" y="432"/>
    </g>
   </g>
   <g id="PolyCollection_10">
    <defs>
     <path d="M 504.593814 -47.52 
L 499.991753 -47.52 
L 499.991753 -380.16 
L 504.593814 -380.16 
L 504.593814 -380.16 
L 504.593814 -47.52 
z
" id="meb80e2773c"/>
    </defs>
    <g clip-path="url(#p7b3b23d0d4)">
     <use style="fill:#ffa500;fill-opacity:0.15;" x="0" xlink:href="#meb80e2773c" y="432"/>
    </g>
   </g>
   <g id="PolyCollection_11">
    <defs>
     <path d="M 509.195876 -47.52 
L 504.593814 -47.52 
L 504.593814 -380.16 
L 509.195876 -380.16 
L 509.195876 -380.16 
L 509.195876 -47.52 
z
" id="mdb4c7c0b44"/>
    </defs>
    <g clip-path="url(#p7b3b23d0d4)">
     <use style="fill:#ffa500;fill-opacity:0.1;" x="0" xlink:href="#mdb4c7c0b44" y="432"/>
    </g>
   </g>
   <g id="PolyCollection_12">
    <defs>
     <path d="M 513.797938 -47.52 
L 509.195876 -47.52 
L 509.195876 -380.16 
L 513.797938 -380.16 
L 513.797938 -380.16 
L 513.797938 -47.52 
z
" id="m5d05ec0b46"/>
    </defs>
    <g clip-path="url(#p7b3b23d0d4)">
     <use style="fill:#ffa500;fill-opacity:0.05;" x="0" xlink:href="#m5d05ec0b46" y="432"/>
    </g>
   </g>
   <g id="PolyCollection_13">
    <defs>
     <path d="M 72 -47.52 
L 72 -47.52 
L 72 -47.52 
L 76.602062 -47.52 
L 76.602062 -47.52 
L 81.204124 -47.52 
L 81.204124 -47.52 
L 85.806186 -47.52 
L 85.806186 -47.52 
L 90.408247 -47.52 
L 90.408247 -47.52 
L 95.010309 -47.52 
L 95.010309 -47.52 
L 99.612371 -47.52 
L 99.612371 -47.52 
L 104.214433 -47.52 
L 104.214433 -47.52 
L 108.816495 -47.52 
L 108.816495 -47.52 
L 113.418557 -47.52 
L 113.418557 -47.52 
L 118.020619 -47.52 
L 118.020619 -47.52 
L 122.62268 -47.52 
L 122.62268 -47.52 
L 127.224742 -47.52 
L 127.224742 -47.52 
L 131.826804 -47.52 
L 131.826804 -47.52 
L 136.428866 -47.52 
L 136.428866 -47.52 
L 141.030928 -47.52 
L 141.030928 -47.52 
L 145.63299 -47.52 
L 145.63299 -47.52 
L 150.235052 -47.52 
L 150.235052 -47.52 
L 154.837113 -47.52 
L 154.837113 -47.52 
L 159.439175 -47.52 
L 159.439175 -47.52 
L 164.041237 -47.52 
L 164.041237 -47.52 
L 168.643299 -47.52 
L 168.643299 -47.52 
L 173.245361 -47.52 
L 173.245361 -47.52 
L 177.847423 -47.52 
L 177.847423 -47.52 
L 182.449485 -47.52 
L 182.449485 -47.52 
L 187.051546 -47.52 
L 187.051546 -47.52 
L 191.653608 -47.52 
L 191.653608 -47.52 
L 196.25567 -47.52 
L 196.25567 -47.52 
L 200.857732 -47.52 
L 200.857732 -47.52 
L 205.459794 -47.52 
L 205.459794 -47.52 
L 210.061856 -47.52 
L 210.061856 -47.52 
L 214.663918 -47.52 
L 214.663918 -47.52 
L 219.265979 -47.52 
L 219.265979 -47.52 
L 223.868041 -47.52 
L 223.868041 -47.52 
L 228.470103 -47.52 
L 228.470103 -47.52 
L 233.072165 -47.52 
L 233.072165 -47.52 
L 237.674227 -47.52 
L 237.674227 -47.52 
L 242.276289 -47.52 
L 242.276289 -47.52 
L 246.878351 -47.52 
L 246.878351 -47.52 
L 251.480412 -47.52 
L 251.480412 -47.52 
L 256.082474 -47.52 
L 256.082474 -47.52 
L 260.684536 -47.52 
L 260.684536 -47.52 
L 265.286598 -47.52 
L 265.286598 -47.52 
L 269.88866 -47.52 
L 269.88866 -47.52 
L 274.490722 -47.52 
L 274.490722 -47.52 
L 279.092784 -47.52 
L 279.092784 -47.52 
L 283.694845 -47.52 
L 283.694845 -47.52 
L 288.296907 -47.52 
L 288.296907 -47.52 
L 292.898969 -47.52 
L 292.898969 -47.52 
L 297.501031 -47.52 
L 297.501031 -47.52 
L 302.103093 -47.52 
L 302.103093 -47.52 
L 306.705155 -47.52 
L 306.705155 -47.52 
L 311.307216 -47.52 
L 311.307216 -47.52 
L 315.909278 -47.52 
L 315.909278 -47.52 
L 320.51134 -47.52 
L 320.51134 -47.52 
L 325.113402 -47.52 
L 325.113402 -47.52 
L 329.715464 -47.52 
L 329.715464 -47.52 
L 334.317526 -47.52 
L 334.317526 -48.609978 
L 334.317526 -48.609978 
L 329.715464 -48.609978 
L 329.715464 -48.581454 
L 325.113402 -48.581454 
L 325.113402 -48.580539 
L 320.51134 -48.580539 
L 320.51134 -48.580539 
L 315.909278 -48.580539 
L 315.909278 -48.546527 
L 311.307216 -48.546527 
L 311.307216 -48.51451 
L 306.705155 -48.51451 
L 306.705155 -48.478585 
L 302.103093 -48.478585 
L 302.103093 -48.433679 
L 297.501031 -48.433679 
L 297.501031 -48.399666 
L 292.898969 -48.399666 
L 292.898969 -48.398419 
L 288.296907 -48.398419 
L 288.296907 -48.398419 
L 283.694845 -48.398419 
L 283.694845 -48.357421 
L 279.092784 -48.357421 
L 279.092784 -48.318336 
L 274.490722 -48.318336 
L 274.490722 -48.270768 
L 269.88866 -48.270768 
L 269.88866 -48.244906 
L 265.286598 -48.244906 
L 265.286598 -48.239085 
L 260.684536 -48.239085 
L 260.684536 -48.239085 
L 256.082474 -48.239085 
L 256.082474 -48.239085 
L 251.480412 -48.239085 
L 251.480412 -48.239085 
L 246.878351 -48.239085 
L 246.878351 -48.208315 
L 242.276289 -48.208315 
L 242.276289 -48.167733 
L 237.674227 -48.167733 
L 237.674227 -48.13239 
L 233.072165 -48.13239 
L 233.072165 -48.104365 
L 228.470103 -48.104365 
L 228.470103 -48.094719 
L 223.868041 -48.094719 
L 223.868041 -48.094719 
L 219.265979 -48.094719 
L 219.265979 -48.067026 
L 214.663918 -48.067026 
L 214.663918 -48.034428 
L 210.061856 -48.034428 
L 210.061856 -47.992266 
L 205.459794 -47.992266 
L 205.459794 -47.966652 
L 200.857732 -47.966652 
L 200.857732 -47.942702 
L 196.25567 -47.942702 
L 196.25567 -47.942702 
L 191.653608 -47.942702 
L 191.653608 -47.942702 
L 187.051546 -47.942702 
L 187.051546 -47.917837 
L 182.449485 -47.917837 
L 182.449485 -47.891975 
L 177.847423 -47.891975 
L 177.847423 -47.860623 
L 173.245361 -47.860623 
L 173.245361 -47.828939 
L 168.643299 -47.828939 
L 168.643299 -47.81264 
L 164.041237 -47.81264 
L 164.041237 -47.81264 
L 159.439175 -47.81264 
L 159.439175 -47.81264 
L 154.837113 -47.81264 
L 154.837113 -47.791268 
L 150.235052 -47.791268 
L 150.235052 -47.775301 
L 145.63299 -47.775301 
L 145.63299 -47.743201 
L 141.030928 -47.743201 
L 141.030928 -47.715343 
L 136.428866 -47.715343 
L 136.428866 -47.691809 
L 131.826804 -47.691809 
L 131.826804 -47.673014 
L 127.224742 -47.673014 
L 127.224742 -47.673014 
L 122.62268 -47.673014 
L 122.62268 -47.673014 
L 118.020619 -47.673014 
L 118.020619 -47.652058 
L 113.418557 -47.652058 
L 113.418557 -47.622952 
L 108.816495 -47.622952 
L 108.816495 -47.601913 
L 104.214433 -47.601913 
L 104.214433 -47.582204 
L 99.612371 -47.582204 
L 99.612371 -47.568316 
L 95.010309 -47.568316 
L 95.010309 -47.568316 
L 90.408247 -47.568316 
L 90.408247 -47.568316 
L 85.806186 -47.568316 
L 85.806186 -47.527318 
L 81.204124 -47.527318 
L 81.204124 -47.527318 
L 76.602062 -47.527318 
L 76.602062 -47.527318 
L 72 -47.527318 
L 72 -47.52 
z
" id="m0d15a2c0db"/>
    </defs>
    <g clip-path="url(#p7b3b23d0d4)">
     <use style="fill:#bcbd22;" x="0" xlink:href="#m0d15a2c0db" y="432"/>
    </g>
   </g>
   <g id="PolyCollection_14">
    <defs>
     <path d="M 72 -47.52 
L 72 -47.52 
L 72 -47.527318 
L 76.602062 -47.527318 
L 76.602062 -47.527318 
L 81.204124 -47.527318 
L 81.204124 -47.527318 
L 85.806186 -47.527318 
L 85.806186 -47.568316 
L 90.408247 -47.568316 
L 90.408247 -47.568316 
L 95.010309 -47.568316 
L 95.010309 -47.568316 
L 99.612371 -47.568316 
L 99.612371 -47.582204 
L 104.214433 -47.582204 
L 104.214433 -47.601913 
L 108.816495 -47.601913 
L 108.816495 -47.622952 
L 113.418557 -47.622952 
L 113.418557 -47.652058 
L 118.020619 -47.652058 
L 118.020619 -47.673014 
L 122.62268 -47.673014 
L 122.62268 -47.673014 
L 127.224742 -47.673014 
L 127.224742 -47.673014 
L 131.826804 -47.673014 
L 131.826804 -47.691809 
L 136.428866 -47.691809 
L 136.428866 -47.715343 
L 141.030928 -47.715343 
L 141.030928 -47.743201 
L 145.63299 -47.743201 
L 145.63299 -47.775301 
L 150.235052 -47.775301 
L 150.235052 -47.791268 
L 154.837113 -47.791268 
L 154.837113 -47.81264 
L 159.439175 -47.81264 
L 159.439175 -47.81264 
L 164.041237 -47.81264 
L 164.041237 -47.81264 
L 168.643299 -47.81264 
L 168.643299 -47.828939 
L 173.245361 -47.828939 
L 173.245361 -47.860623 
L 177.847423 -47.860623 
L 177.847423 -47.891975 
L 182.449485 -47.891975 
L 182.449485 -47.917837 
L 187.051546 -47.917837 
L 187.051546 -47.942702 
L 191.653608 -47.942702 
L 191.653608 -47.942702 
L 196.25567 -47.942702 
L 196.25567 -47.942702 
L 200.857732 -47.942702 
L 200.857732 -47.966652 
L 205.459794 -47.966652 
L 205.459794 -47.992266 
L 210.061856 -47.992266 
L 210.061856 -48.034428 
L 214.663918 -48.034428 
L 214.663918 -48.067026 
L 219.265979 -48.067026 
L 219.265979 -48.094719 
L 223.868041 -48.094719 
L 223.868041 -48.094719 
L 228.470103 -48.094719 
L 228.470103 -48.104365 
L 233.072165 -48.104365 
L 233.072165 -48.13239 
L 237.674227 -48.13239 
L 237.674227 -48.167733 
L 242.276289 -48.167733 
L 242.276289 -48.208315 
L 246.878351 -48.208315 
L 246.878351 -48.239085 
L 251.480412 -48.239085 
L 251.480412 -48.239085 
L 256.082474 -48.239085 
L 256.082474 -48.239085 
L 260.684536 -48.239085 
L 260.684536 -48.239085 
L 265.286598 -48.239085 
L 265.286598 -48.244906 
L 269.88866 -48.244906 
L 269.88866 -48.270768 
L 274.490722 -48.270768 
L 274.490722 -48.318336 
L 279.092784 -48.318336 
L 279.092784 -48.357421 
L 283.694845 -48.357421 
L 283.694845 -48.398419 
L 288.296907 -48.398419 
L 288.296907 -48.398419 
L 292.898969 -48.398419 
L 292.898969 -48.399666 
L 297.501031 -48.399666 
L 297.501031 -48.433679 
L 302.103093 -48.433679 
L 302.103093 -48.478585 
L 306.705155 -48.478585 
L 306.705155 -48.51451 
L 311.307216 -48.51451 
L 311.307216 -48.546527 
L 315.909278 -48.546527 
L 315.909278 -48.580539 
L 320.51134 -48.580539 
L 320.51134 -48.580539 
L 325.113402 -48.580539 
L 325.113402 -48.581454 
L 329.715464 -48.581454 
L 329.715464 -48.609978 
L 334.317526 -48.609978 
L 334.317526 -50.444155 
L 334.317526 -50.444155 
L 329.715464 -50.444155 
L 329.715464 -50.355423 
L 325.113402 -50.355423 
L 325.113402 -50.314592 
L 320.51134 -50.314592 
L 320.51134 -50.274093 
L 315.909278 -50.274093 
L 315.909278 -50.194176 
L 311.307216 -50.194176 
L 311.307216 -50.114176 
L 306.705155 -50.114176 
L 306.705155 -50.02902 
L 302.103093 -50.02902 
L 302.103093 -49.935465 
L 297.501031 -49.935465 
L 297.501031 -49.851474 
L 292.898969 -49.851474 
L 292.898969 -49.810393 
L 288.296907 -49.810393 
L 288.296907 -49.77031 
L 283.694845 -49.77031 
L 283.694845 -49.673262 
L 279.092784 -49.673262 
L 279.092784 -49.576879 
L 274.490722 -49.576879 
L 274.490722 -49.472015 
L 269.88866 -49.472015 
L 269.88866 -49.390352 
L 265.286598 -49.390352 
L 265.286598 -49.329312 
L 260.684536 -49.329312 
L 260.684536 -49.301703 
L 256.082474 -49.301703 
L 256.082474 -49.272763 
L 251.480412 -49.272763 
L 251.480412 -49.183865 
L 246.878351 -49.183865 
L 246.878351 -49.153096 
L 242.276289 -49.153096 
L 242.276289 -49.067441 
L 237.674227 -49.067441 
L 237.674227 -48.987358 
L 233.072165 -48.987358 
L 233.072165 -48.914843 
L 228.470103 -48.914843 
L 228.470103 -48.878834 
L 223.868041 -48.878834 
L 223.868041 -48.851142 
L 219.265979 -48.851142 
L 219.265979 -48.779126 
L 214.663918 -48.779126 
L 214.663918 -48.702618 
L 210.061856 -48.702618 
L 210.061856 -48.617047 
L 205.459794 -48.617047 
L 205.459794 -48.547442 
L 200.857732 -48.547442 
L 200.857732 -48.486236 
L 196.25567 -48.486236 
L 196.25567 -48.433429 
L 191.653608 -48.433429 
L 191.653608 -48.433429 
L 187.051546 -48.433429 
L 187.051546 -48.365155 
L 182.449485 -48.365155 
L 182.449485 -48.29738 
L 177.847423 -48.29738 
L 177.847423 -48.224282 
L 173.245361 -48.224282 
L 173.245361 -48.150685 
L 168.643299 -48.150685 
L 168.643299 -48.092307 
L 164.041237 -48.092307 
L 164.041237 -48.092307 
L 159.439175 -48.092307 
L 159.439175 -48.092307 
L 154.837113 -48.092307 
L 154.837113 -48.042827 
L 150.235052 -48.042827 
L 150.235052 -47.998752 
L 145.63299 -47.998752 
L 145.63299 -47.941289 
L 141.030928 -47.941289 
L 141.030928 -47.894719 
L 136.428866 -47.894719 
L 136.428866 -47.854054 
L 131.826804 -47.854054 
L 131.826804 -47.835093 
L 127.224742 -47.835093 
L 127.224742 -47.835093 
L 122.62268 -47.835093 
L 122.62268 -47.819127 
L 118.020619 -47.819127 
L 118.020619 -47.782037 
L 113.418557 -47.782037 
L 113.418557 -47.73264 
L 108.816495 -47.73264 
L 108.816495 -47.699459 
L 104.214433 -47.699459 
L 104.214433 -47.663534 
L 99.612371 -47.663534 
L 99.612371 -47.649813 
L 95.010309 -47.649813 
L 95.010309 -47.649813 
L 90.408247 -47.649813 
L 90.408247 -47.633014 
L 85.806186 -47.633014 
L 85.806186 -47.570894 
L 81.204124 -47.570894 
L 81.204124 -47.548108 
L 76.602062 -47.548108 
L 76.602062 -47.531476 
L 72 -47.531476 
L 72 -47.52 
z
" id="mb1d5e6ec38"/>
    </defs>
    <g clip-path="url(#p7b3b23d0d4)">
     <use style="fill:#7f7f7f;" x="0" xlink:href="#mb1d5e6ec38" y="432"/>
    </g>
   </g>
   <g id="PolyCollection_15">
    <defs>
     <path d="M 72 -47.52 
L 72 -47.52 
L 72 -47.531476 
L 76.602062 -47.531476 
L 76.602062 -47.548108 
L 81.204124 -47.548108 
L 81.204124 -47.570894 
L 85.806186 -47.570894 
L 85.806186 -47.633014 
L 90.408247 -47.633014 
L 90.408247 -47.649813 
L 95.010309 -47.649813 
L 95.010309 -47.649813 
L 99.612371 -47.649813 
L 99.612371 -47.663534 
L 104.214433 -47.663534 
L 104.214433 -47.699459 
L 108.816495 -47.699459 
L 108.816495 -47.73264 
L 113.418557 -47.73264 
L 113.418557 -47.782037 
L 118.020619 -47.782037 
L 118.020619 -47.819127 
L 122.62268 -47.819127 
L 122.62268 -47.835093 
L 127.224742 -47.835093 
L 127.224742 -47.835093 
L 131.826804 -47.835093 
L 131.826804 -47.854054 
L 136.428866 -47.854054 
L 136.428866 -47.894719 
L 141.030928 -47.894719 
L 141.030928 -47.941289 
L 145.63299 -47.941289 
L 145.63299 -47.998752 
L 150.235052 -47.998752 
L 150.235052 -48.042827 
L 154.837113 -48.042827 
L 154.837113 -48.092307 
L 159.439175 -48.092307 
L 159.439175 -48.092307 
L 164.041237 -48.092307 
L 164.041237 -48.092307 
L 168.643299 -48.092307 
L 168.643299 -48.150685 
L 173.245361 -48.150685 
L 173.245361 -48.224282 
L 177.847423 -48.224282 
L 177.847423 -48.29738 
L 182.449485 -48.29738 
L 182.449485 -48.365155 
L 187.051546 -48.365155 
L 187.051546 -48.433429 
L 191.653608 -48.433429 
L 191.653608 -48.433429 
L 196.25567 -48.433429 
L 196.25567 -48.486236 
L 200.857732 -48.486236 
L 200.857732 -48.547442 
L 205.459794 -48.547442 
L 205.459794 -48.617047 
L 210.061856 -48.617047 
L 210.061856 -48.702618 
L 214.663918 -48.702618 
L 214.663918 -48.779126 
L 219.265979 -48.779126 
L 219.265979 -48.851142 
L 223.868041 -48.851142 
L 223.868041 -48.878834 
L 228.470103 -48.878834 
L 228.470103 -48.914843 
L 233.072165 -48.914843 
L 233.072165 -48.987358 
L 237.674227 -48.987358 
L 237.674227 -49.067441 
L 242.276289 -49.067441 
L 242.276289 -49.153096 
L 246.878351 -49.153096 
L 246.878351 -49.183865 
L 251.480412 -49.183865 
L 251.480412 -49.272763 
L 256.082474 -49.272763 
L 256.082474 -49.301703 
L 260.684536 -49.301703 
L 260.684536 -49.329312 
L 265.286598 -49.329312 
L 265.286598 -49.390352 
L 269.88866 -49.390352 
L 269.88866 -49.472015 
L 274.490722 -49.472015 
L 274.490722 -49.576879 
L 279.092784 -49.576879 
L 279.092784 -49.673262 
L 283.694845 -49.673262 
L 283.694845 -49.77031 
L 288.296907 -49.77031 
L 288.296907 -49.810393 
L 292.898969 -49.810393 
L 292.898969 -49.851474 
L 297.501031 -49.851474 
L 297.501031 -49.935465 
L 302.103093 -49.935465 
L 302.103093 -50.02902 
L 306.705155 -50.02902 
L 306.705155 -50.114176 
L 311.307216 -50.114176 
L 311.307216 -50.194176 
L 315.909278 -50.194176 
L 315.909278 -50.274093 
L 320.51134 -50.274093 
L 320.51134 -50.314592 
L 325.113402 -50.314592 
L 325.113402 -50.355423 
L 329.715464 -50.355423 
L 329.715464 -50.444155 
L 334.317526 -50.444155 
L 334.317526 -52.890473 
L 334.317526 -52.890473 
L 329.715464 -52.890473 
L 329.715464 -52.761492 
L 325.113402 -52.761492 
L 325.113402 -52.70303 
L 320.51134 -52.70303 
L 320.51134 -52.654964 
L 315.909278 -52.654964 
L 315.909278 -52.526565 
L 311.307216 -52.526565 
L 311.307216 -52.366814 
L 306.705155 -52.366814 
L 306.705155 -52.177209 
L 302.103093 -52.177209 
L 302.103093 -51.982366 
L 297.501031 -51.982366 
L 297.501031 -51.824611 
L 292.898969 -51.824611 
L 292.898969 -51.77064 
L 288.296907 -51.77064 
L 288.296907 -51.673593 
L 283.694845 -51.673593 
L 283.694845 -51.459123 
L 279.092784 -51.459123 
L 279.092784 -51.219289 
L 274.490722 -51.219289 
L 274.490722 -50.928229 
L 269.88866 -50.928229 
L 269.88866 -50.846566 
L 265.286598 -50.846566 
L 265.286598 -50.785527 
L 260.684536 -50.785527 
L 260.684536 -50.757918 
L 256.082474 -50.757918 
L 256.082474 -50.526567 
L 251.480412 -50.526567 
L 251.480412 -50.437669 
L 246.878351 -50.437669 
L 246.878351 -50.406899 
L 242.276289 -50.406899 
L 242.276289 -50.321245 
L 237.674227 -50.321245 
L 237.674227 -50.130808 
L 233.072165 -50.130808 
L 233.072165 -50.00349 
L 228.470103 -50.00349 
L 228.470103 -49.854135 
L 223.868041 -49.854135 
L 223.868041 -49.826443 
L 219.265979 -49.826443 
L 219.265979 -49.754426 
L 214.663918 -49.754426 
L 214.663918 -49.61796 
L 210.061856 -49.61796 
L 210.061856 -49.436505 
L 205.459794 -49.436505 
L 205.459794 -49.282826 
L 200.857732 -49.282826 
L 200.857732 -49.17372 
L 196.25567 -49.17372 
L 196.25567 -49.102452 
L 191.653608 -49.102452 
L 191.653608 -49.068023 
L 187.051546 -49.068023 
L 187.051546 -48.999749 
L 182.449485 -48.999749 
L 182.449485 -48.855799 
L 177.847423 -48.855799 
L 177.847423 -48.703699 
L 173.245361 -48.703699 
L 173.245361 -48.534552 
L 168.643299 -48.534552 
L 168.643299 -48.412723 
L 164.041237 -48.412723 
L 164.041237 -48.397255 
L 159.439175 -48.397255 
L 159.439175 -48.397255 
L 154.837113 -48.397255 
L 154.837113 -48.347276 
L 150.235052 -48.347276 
L 150.235052 -48.269438 
L 145.63299 -48.269438 
L 145.63299 -48.166902 
L 141.030928 -48.166902 
L 141.030928 -48.088232 
L 136.428866 -48.088232 
L 136.428866 -48.047567 
L 131.826804 -48.047567 
L 131.826804 -48.028607 
L 127.224742 -48.028607 
L 127.224742 -48.028607 
L 122.62268 -48.028607 
L 122.62268 -48.01264 
L 118.020619 -48.01264 
L 118.020619 -47.945862 
L 113.418557 -47.945862 
L 113.418557 -47.85738 
L 108.816495 -47.85738 
L 108.816495 -47.796341 
L 104.214433 -47.796341 
L 104.214433 -47.760416 
L 99.612371 -47.760416 
L 99.612371 -47.746195 
L 95.010309 -47.746195 
L 95.010309 -47.746195 
L 90.408247 -47.746195 
L 90.408247 -47.729397 
L 85.806186 -47.729397 
L 85.806186 -47.638004 
L 81.204124 -47.638004 
L 81.204124 -47.579958 
L 76.602062 -47.579958 
L 76.602062 -47.53896 
L 72 -47.53896 
L 72 -47.52 
z
" id="mdb4714ae09"/>
    </defs>
    <g clip-path="url(#p7b3b23d0d4)">
     <use style="fill:#e377c2;" x="0" xlink:href="#mdb4714ae09" y="432"/>
    </g>
   </g>
   <g id="PolyCollection_16">
    <defs>
     <path d="M 72 -47.52 
L 72 -47.52 
L 72 -47.53896 
L 76.602062 -47.53896 
L 76.602062 -47.579958 
L 81.204124 -47.579958 
L 81.204124 -47.638004 
L 85.806186 -47.638004 
L 85.806186 -47.729397 
L 90.408247 -47.729397 
L 90.408247 -47.746195 
L 95.010309 -47.746195 
L 95.010309 -47.746195 
L 99.612371 -47.746195 
L 99.612371 -47.760416 
L 104.214433 -47.760416 
L 104.214433 -47.796341 
L 108.816495 -47.796341 
L 108.816495 -47.85738 
L 113.418557 -47.85738 
L 113.418557 -47.945862 
L 118.020619 -47.945862 
L 118.020619 -48.01264 
L 122.62268 -48.01264 
L 122.62268 -48.028607 
L 127.224742 -48.028607 
L 127.224742 -48.028607 
L 131.826804 -48.028607 
L 131.826804 -48.047567 
L 136.428866 -48.047567 
L 136.428866 -48.088232 
L 141.030928 -48.088232 
L 141.030928 -48.166902 
L 145.63299 -48.166902 
L 145.63299 -48.269438 
L 150.235052 -48.269438 
L 150.235052 -48.347276 
L 154.837113 -48.347276 
L 154.837113 -48.397255 
L 159.439175 -48.397255 
L 159.439175 -48.397255 
L 164.041237 -48.397255 
L 164.041237 -48.412723 
L 168.643299 -48.412723 
L 168.643299 -48.534552 
L 173.245361 -48.534552 
L 173.245361 -48.703699 
L 177.847423 -48.703699 
L 177.847423 -48.855799 
L 182.449485 -48.855799 
L 182.449485 -48.999749 
L 187.051546 -48.999749 
L 187.051546 -49.068023 
L 191.653608 -49.068023 
L 191.653608 -49.102452 
L 196.25567 -49.102452 
L 196.25567 -49.17372 
L 200.857732 -49.17372 
L 200.857732 -49.282826 
L 205.459794 -49.282826 
L 205.459794 -49.436505 
L 210.061856 -49.436505 
L 210.061856 -49.61796 
L 214.663918 -49.61796 
L 214.663918 -49.754426 
L 219.265979 -49.754426 
L 219.265979 -49.826443 
L 223.868041 -49.826443 
L 223.868041 -49.854135 
L 228.470103 -49.854135 
L 228.470103 -50.00349 
L 233.072165 -50.00349 
L 233.072165 -50.130808 
L 237.674227 -50.130808 
L 237.674227 -50.321245 
L 242.276289 -50.321245 
L 242.276289 -50.406899 
L 246.878351 -50.406899 
L 246.878351 -50.437669 
L 251.480412 -50.437669 
L 251.480412 -50.526567 
L 256.082474 -50.526567 
L 256.082474 -50.757918 
L 260.684536 -50.757918 
L 260.684536 -50.785527 
L 265.286598 -50.785527 
L 265.286598 -50.846566 
L 269.88866 -50.846566 
L 269.88866 -50.928229 
L 274.490722 -50.928229 
L 274.490722 -51.219289 
L 279.092784 -51.219289 
L 279.092784 -51.459123 
L 283.694845 -51.459123 
L 283.694845 -51.673593 
L 288.296907 -51.673593 
L 288.296907 -51.77064 
L 292.898969 -51.77064 
L 292.898969 -51.824611 
L 297.501031 -51.824611 
L 297.501031 -51.982366 
L 302.103093 -51.982366 
L 302.103093 -52.177209 
L 306.705155 -52.177209 
L 306.705155 -52.366814 
L 311.307216 -52.366814 
L 311.307216 -52.526565 
L 315.909278 -52.526565 
L 315.909278 -52.654964 
L 320.51134 -52.654964 
L 320.51134 -52.70303 
L 325.113402 -52.70303 
L 325.113402 -52.761492 
L 329.715464 -52.761492 
L 329.715464 -52.890473 
L 334.317526 -52.890473 
L 334.317526 -56.891716 
L 334.317526 -56.891716 
L 329.715464 -56.891716 
L 329.715464 -56.635999 
L 325.113402 -56.635999 
L 325.113402 -56.541197 
L 320.51134 -56.541197 
L 320.51134 -56.437496 
L 315.909278 -56.437496 
L 315.909278 -56.198079 
L 311.307216 -56.198079 
L 311.307216 -55.909513 
L 306.705155 -55.909513 
L 306.705155 -55.56415 
L 302.103093 -55.56415 
L 302.103093 -55.242737 
L 297.501031 -55.242737 
L 297.501031 -54.956084 
L 292.898969 -54.956084 
L 292.898969 -54.840575 
L 288.296907 -54.840575 
L 288.296907 -54.706687 
L 283.694845 -54.706687 
L 283.694845 -54.345357 
L 279.092784 -54.345357 
L 279.092784 -53.933216 
L 274.490722 -53.933216 
L 274.490722 -53.484152 
L 269.88866 -53.484152 
L 269.88866 -53.287728 
L 265.286598 -53.287728 
L 265.286598 -53.191595 
L 260.684536 -53.191595 
L 260.684536 -53.149516 
L 256.082474 -53.149516 
L 256.082474 -52.906107 
L 251.480412 -52.906107 
L 251.480412 -52.794174 
L 246.878351 -52.794174 
L 246.878351 -52.654132 
L 242.276289 -52.654132 
L 242.276289 -52.444735 
L 237.674227 -52.444735 
L 237.674227 -52.138706 
L 233.072165 -52.138706 
L 233.072165 -51.898457 
L 228.470103 -51.898457 
L 228.470103 -51.724985 
L 223.868041 -51.724985 
L 223.868041 -51.678582 
L 219.265979 -51.678582 
L 219.265979 -51.486815 
L 214.663918 -51.486815 
L 214.663918 -51.219206 
L 210.061856 -51.219206 
L 210.061856 -50.912679 
L 205.459794 -50.912679 
L 205.459794 -50.633261 
L 200.857732 -50.633261 
L 200.857732 -50.414134 
L 196.25567 -50.414134 
L 196.25567 -50.297045 
L 191.653608 -50.297045 
L 191.653608 -50.236505 
L 187.051546 -50.236505 
L 187.051546 -50.077586 
L 182.449485 -50.077586 
L 182.449485 -49.800663 
L 177.847423 -49.800663 
L 177.847423 -49.521245 
L 173.245361 -49.521245 
L 173.245361 -49.22478 
L 168.643299 -49.22478 
L 168.643299 -49.017462 
L 164.041237 -49.017462 
L 164.041237 -48.989687 
L 159.439175 -48.989687 
L 159.439175 -48.945279 
L 154.837113 -48.945279 
L 154.837113 -48.831433 
L 150.235052 -48.831433 
L 150.235052 -48.67451 
L 145.63299 -48.67451 
L 145.63299 -48.522327 
L 141.030928 -48.522327 
L 141.030928 -48.406236 
L 136.428866 -48.406236 
L 136.428866 -48.355675 
L 131.826804 -48.355675 
L 131.826804 -48.326735 
L 127.224742 -48.326735 
L 127.224742 -48.315924 
L 122.62268 -48.315924 
L 122.62268 -48.267276 
L 118.020619 -48.267276 
L 118.020619 -48.168897 
L 113.418557 -48.168897 
L 113.418557 -48.05081 
L 108.816495 -48.05081 
L 108.816495 -47.956008 
L 104.214433 -47.956008 
L 104.214433 -47.895966 
L 99.612371 -47.895966 
L 99.612371 -47.869355 
L 95.010309 -47.869355 
L 95.010309 -47.860208 
L 90.408247 -47.860208 
L 90.408247 -47.816964 
L 85.806186 -47.816964 
L 85.806186 -47.699792 
L 81.204124 -47.699792 
L 81.204124 -47.613638 
L 76.602062 -47.613638 
L 76.602062 -47.553098 
L 72 -47.553098 
L 72 -47.52 
z
" id="m5137409376"/>
    </defs>
    <g clip-path="url(#p7b3b23d0d4)">
     <use style="fill:#8c564b;" x="0" xlink:href="#m5137409376" y="432"/>
    </g>
   </g>
   <g id="PolyCollection_17">
    <defs>
     <path d="M 72 -47.52 
L 72 -47.52 
L 72 -47.553098 
L 76.602062 -47.553098 
L 76.602062 -47.613638 
L 81.204124 -47.613638 
L 81.204124 -47.699792 
L 85.806186 -47.699792 
L 85.806186 -47.816964 
L 90.408247 -47.816964 
L 90.408247 -47.860208 
L 95.010309 -47.860208 
L 95.010309 -47.869355 
L 99.612371 -47.869355 
L 99.612371 -47.895966 
L 104.214433 -47.895966 
L 104.214433 -47.956008 
L 108.816495 -47.956008 
L 108.816495 -48.05081 
L 113.418557 -48.05081 
L 113.418557 -48.168897 
L 118.020619 -48.168897 
L 118.020619 -48.267276 
L 122.62268 -48.267276 
L 122.62268 -48.315924 
L 127.224742 -48.315924 
L 127.224742 -48.326735 
L 131.826804 -48.326735 
L 131.826804 -48.355675 
L 136.428866 -48.355675 
L 136.428866 -48.406236 
L 141.030928 -48.406236 
L 141.030928 -48.522327 
L 145.63299 -48.522327 
L 145.63299 -48.67451 
L 150.235052 -48.67451 
L 150.235052 -48.831433 
L 154.837113 -48.831433 
L 154.837113 -48.945279 
L 159.439175 -48.945279 
L 159.439175 -48.989687 
L 164.041237 -48.989687 
L 164.041237 -49.017462 
L 168.643299 -49.017462 
L 168.643299 -49.22478 
L 173.245361 -49.22478 
L 173.245361 -49.521245 
L 177.847423 -49.521245 
L 177.847423 -49.800663 
L 182.449485 -49.800663 
L 182.449485 -50.077586 
L 187.051546 -50.077586 
L 187.051546 -50.236505 
L 191.653608 -50.236505 
L 191.653608 -50.297045 
L 196.25567 -50.297045 
L 196.25567 -50.414134 
L 200.857732 -50.414134 
L 200.857732 -50.633261 
L 205.459794 -50.633261 
L 205.459794 -50.912679 
L 210.061856 -50.912679 
L 210.061856 -51.219206 
L 214.663918 -51.219206 
L 214.663918 -51.486815 
L 219.265979 -51.486815 
L 219.265979 -51.678582 
L 223.868041 -51.678582 
L 223.868041 -51.724985 
L 228.470103 -51.724985 
L 228.470103 -51.898457 
L 233.072165 -51.898457 
L 233.072165 -52.138706 
L 237.674227 -52.138706 
L 237.674227 -52.444735 
L 242.276289 -52.444735 
L 242.276289 -52.654132 
L 246.878351 -52.654132 
L 246.878351 -52.794174 
L 251.480412 -52.794174 
L 251.480412 -52.906107 
L 256.082474 -52.906107 
L 256.082474 -53.149516 
L 260.684536 -53.149516 
L 260.684536 -53.191595 
L 265.286598 -53.191595 
L 265.286598 -53.287728 
L 269.88866 -53.287728 
L 269.88866 -53.484152 
L 274.490722 -53.484152 
L 274.490722 -53.933216 
L 279.092784 -53.933216 
L 279.092784 -54.345357 
L 283.694845 -54.345357 
L 283.694845 -54.706687 
L 288.296907 -54.706687 
L 288.296907 -54.840575 
L 292.898969 -54.840575 
L 292.898969 -54.956084 
L 297.501031 -54.956084 
L 297.501031 -55.242737 
L 302.103093 -55.242737 
L 302.103093 -55.56415 
L 306.705155 -55.56415 
L 306.705155 -55.909513 
L 311.307216 -55.909513 
L 311.307216 -56.198079 
L 315.909278 -56.198079 
L 315.909278 -56.437496 
L 320.51134 -56.437496 
L 320.51134 -56.541197 
L 325.113402 -56.541197 
L 325.113402 -56.635999 
L 329.715464 -56.635999 
L 329.715464 -56.891716 
L 334.317526 -56.891716 
L 334.317526 -63.396076 
L 334.317526 -63.396076 
L 329.715464 -63.396076 
L 329.715464 -62.97645 
L 325.113402 -62.97645 
L 325.113402 -62.868176 
L 320.51134 -62.868176 
L 320.51134 -62.745848 
L 315.909278 -62.745848 
L 315.909278 -62.355744 
L 311.307216 -62.355744 
L 311.307216 -61.918905 
L 306.705155 -61.918905 
L 306.705155 -61.433915 
L 302.103093 -61.433915 
L 302.103093 -60.972045 
L 297.501031 -60.972045 
L 297.501031 -60.539945 
L 292.898969 -60.539945 
L 292.898969 -60.401068 
L 288.296907 -60.401068 
L 288.296907 -60.241734 
L 283.694845 -60.241734 
L 283.694845 -59.731381 
L 279.092784 -59.731381 
L 279.092784 -59.113835 
L 274.490722 -59.113835 
L 274.490722 -58.454209 
L 269.88866 -58.454209 
L 269.88866 -58.066434 
L 265.286598 -58.066434 
L 265.286598 -57.933212 
L 260.684536 -57.933212 
L 260.684536 -57.878992 
L 256.082474 -57.878992 
L 256.082474 -57.617038 
L 251.480412 -57.617038 
L 251.480412 -57.479158 
L 246.878351 -57.479158 
L 246.878351 -57.101695 
L 242.276289 -57.101695 
L 242.276289 -56.663525 
L 237.674227 -56.663525 
L 237.674227 -56.105522 
L 233.072165 -56.105522 
L 233.072165 -55.648225 
L 228.470103 -55.648225 
L 228.470103 -55.429098 
L 223.868041 -55.429098 
L 223.868041 -55.341614 
L 219.265979 -55.341614 
L 219.265979 -54.951677 
L 214.663918 -54.951677 
L 214.663918 -54.483985 
L 210.061856 -54.483985 
L 210.061856 -53.963819 
L 205.459794 -53.963819 
L 205.459794 -53.502614 
L 200.857732 -53.502614 
L 200.857732 -53.084818 
L 196.25567 -53.084818 
L 196.25567 -52.917583 
L 191.653608 -52.917583 
L 191.653608 -52.778789 
L 187.051546 -52.778789 
L 187.051546 -52.417209 
L 182.449485 -52.417209 
L 182.449485 -51.921492 
L 177.847423 -51.921492 
L 177.847423 -51.429268 
L 173.245361 -51.429268 
L 173.245361 -50.933718 
L 168.643299 -50.933718 
L 168.643299 -50.593178 
L 164.041237 -50.593178 
L 164.041237 -50.519082 
L 159.439175 -50.519082 
L 159.439175 -50.416546 
L 154.837113 -50.416546 
L 154.837113 -50.158002 
L 150.235052 -50.158002 
L 150.235052 -49.797004 
L 145.63299 -49.797004 
L 145.63299 -49.468106 
L 141.030928 -49.468106 
L 141.030928 -49.178709 
L 136.428866 -49.178709 
L 136.428866 -49.007649 
L 131.826804 -49.007649 
L 131.826804 -48.898211 
L 127.224742 -48.898211 
L 127.224742 -48.866111 
L 122.62268 -48.866111 
L 122.62268 -48.728481 
L 118.020619 -48.728481 
L 118.020619 -48.530311 
L 113.418557 -48.530311 
L 113.418557 -48.34345 
L 108.816495 -48.34345 
L 108.816495 -48.194012 
L 104.214433 -48.194012 
L 104.214433 -48.135384 
L 99.612371 -48.135384 
L 99.612371 -48.084241 
L 95.010309 -48.084241 
L 95.010309 -48.051392 
L 90.408247 -48.051392 
L 90.408247 -47.954511 
L 85.806186 -47.954511 
L 85.806186 -47.802993 
L 81.204124 -47.802993 
L 81.204124 -47.680166 
L 76.602062 -47.680166 
L 76.602062 -47.584532 
L 72 -47.584532 
L 72 -47.52 
z
" id="me3cb8f5f98"/>
    </defs>
    <g clip-path="url(#p7b3b23d0d4)">
     <use style="fill:#9467bd;" x="0" xlink:href="#me3cb8f5f98" y="432"/>
    </g>
   </g>
   <g id="PolyCollection_18">
    <defs>
     <path d="M 72 -47.52 
L 72 -47.52 
L 72 -47.584532 
L 76.602062 -47.584532 
L 76.602062 -47.680166 
L 81.204124 -47.680166 
L 81.204124 -47.802993 
L 85.806186 -47.802993 
L 85.806186 -47.954511 
L 90.408247 -47.954511 
L 90.408247 -48.051392 
L 95.010309 -48.051392 
L 95.010309 -48.084241 
L 99.612371 -48.084241 
L 99.612371 -48.135384 
L 104.214433 -48.135384 
L 104.214433 -48.194012 
L 108.816495 -48.194012 
L 108.816495 -48.34345 
L 113.418557 -48.34345 
L 113.418557 -48.530311 
L 118.020619 -48.530311 
L 118.020619 -48.728481 
L 122.62268 -48.728481 
L 122.62268 -48.866111 
L 127.224742 -48.866111 
L 127.224742 -48.898211 
L 131.826804 -48.898211 
L 131.826804 -49.007649 
L 136.428866 -49.007649 
L 136.428866 -49.178709 
L 141.030928 -49.178709 
L 141.030928 -49.468106 
L 145.63299 -49.468106 
L 145.63299 -49.797004 
L 150.235052 -49.797004 
L 150.235052 -50.158002 
L 154.837113 -50.158002 
L 154.837113 -50.416546 
L 159.439175 -50.416546 
L 159.439175 -50.519082 
L 164.041237 -50.519082 
L 164.041237 -50.593178 
L 168.643299 -50.593178 
L 168.643299 -50.933718 
L 173.245361 -50.933718 
L 173.245361 -51.429268 
L 177.847423 -51.429268 
L 177.847423 -51.921492 
L 182.449485 -51.921492 
L 182.449485 -52.417209 
L 187.051546 -52.417209 
L 187.051546 -52.778789 
L 191.653608 -52.778789 
L 191.653608 -52.917583 
L 196.25567 -52.917583 
L 196.25567 -53.084818 
L 200.857732 -53.084818 
L 200.857732 -53.502614 
L 205.459794 -53.502614 
L 205.459794 -53.963819 
L 210.061856 -53.963819 
L 210.061856 -54.483985 
L 214.663918 -54.483985 
L 214.663918 -54.951677 
L 219.265979 -54.951677 
L 219.265979 -55.341614 
L 223.868041 -55.341614 
L 223.868041 -55.429098 
L 228.470103 -55.429098 
L 228.470103 -55.648225 
L 233.072165 -55.648225 
L 233.072165 -56.105522 
L 237.674227 -56.105522 
L 237.674227 -56.663525 
L 242.276289 -56.663525 
L 242.276289 -57.101695 
L 246.878351 -57.101695 
L 246.878351 -57.479158 
L 251.480412 -57.479158 
L 251.480412 -57.617038 
L 256.082474 -57.617038 
L 256.082474 -57.878992 
L 260.684536 -57.878992 
L 260.684536 -57.933212 
L 265.286598 -57.933212 
L 265.286598 -58.066434 
L 269.88866 -58.066434 
L 269.88866 -58.454209 
L 274.490722 -58.454209 
L 274.490722 -59.113835 
L 279.092784 -59.113835 
L 279.092784 -59.731381 
L 283.694845 -59.731381 
L 283.694845 -60.241734 
L 288.296907 -60.241734 
L 288.296907 -60.401068 
L 292.898969 -60.401068 
L 292.898969 -60.539945 
L 297.501031 -60.539945 
L 297.501031 -60.972045 
L 302.103093 -60.972045 
L 302.103093 -61.433915 
L 306.705155 -61.433915 
L 306.705155 -61.918905 
L 311.307216 -61.918905 
L 311.307216 -62.355744 
L 315.909278 -62.355744 
L 315.909278 -62.745848 
L 320.51134 -62.745848 
L 320.51134 -62.868176 
L 325.113402 -62.868176 
L 325.113402 -62.97645 
L 329.715464 -62.97645 
L 329.715464 -63.396076 
L 334.317526 -63.396076 
L 334.317526 -73.87515 
L 334.317526 -73.87515 
L 329.715464 -73.87515 
L 329.715464 -73.219184 
L 325.113402 -73.219184 
L 325.113402 -73.11091 
L 320.51134 -73.11091 
L 320.51134 -72.963301 
L 315.909278 -72.963301 
L 315.909278 -72.373031 
L 311.307216 -72.373031 
L 311.307216 -71.712076 
L 306.705155 -71.712076 
L 306.705155 -70.999394 
L 302.103093 -70.999394 
L 302.103093 -70.320809 
L 297.501031 -70.320809 
L 297.501031 -69.630498 
L 292.898969 -69.630498 
L 292.898969 -69.483304 
L 288.296907 -69.483304 
L 288.296907 -69.282972 
L 283.694845 -69.282972 
L 283.694845 -68.486715 
L 279.092784 -68.486715 
L 279.092784 -67.454616 
L 274.490722 -67.454616 
L 274.490722 -66.334617 
L 269.88866 -66.334617 
L 269.88866 -65.49678 
L 265.286598 -65.49678 
L 265.286598 -65.274743 
L 260.684536 -65.274743 
L 260.684536 -65.220523 
L 256.082474 -65.220523 
L 256.082474 -64.955741 
L 251.480412 -64.955741 
L 251.480412 -64.732374 
L 246.878351 -64.732374 
L 246.878351 -63.715743 
L 242.276289 -63.715743 
L 242.276289 -62.646222 
L 237.674227 -62.646222 
L 237.674227 -61.521649 
L 233.072165 -61.521649 
L 233.072165 -60.565143 
L 228.470103 -60.565143 
L 228.470103 -60.329717 
L 223.868041 -60.329717 
L 223.868041 -60.201401 
L 219.265979 -60.201401 
L 219.265979 -59.433418 
L 214.663918 -59.433418 
L 214.663918 -58.597245 
L 210.061856 -58.597245 
L 210.061856 -57.711674 
L 205.459794 -57.711674 
L 205.459794 -56.901363 
L 200.857732 -56.901363 
L 200.857732 -56.161904 
L 196.25567 -56.161904 
L 196.25567 -55.97995 
L 191.653608 -55.97995 
L 191.653608 -55.831094 
L 187.051546 -55.831094 
L 187.051546 -55.122155 
L 182.449485 -55.122155 
L 182.449485 -54.294297 
L 177.847423 -54.294297 
L 177.847423 -53.522655 
L 173.245361 -53.522655 
L 173.245361 -52.751679 
L 168.643299 -52.751679 
L 168.643299 -52.148686 
L 164.041237 -52.148686 
L 164.041237 -52.07459 
L 159.439175 -52.07459 
L 159.439175 -51.947605 
L 154.837113 -51.947605 
L 154.837113 -51.498541 
L 150.235052 -51.498541 
L 150.235052 -50.960329 
L 145.63299 -50.960329 
L 145.63299 -50.465694 
L 141.030928 -50.465694 
L 141.030928 -50.01796 
L 136.428866 -50.01796 
L 136.428866 -49.697877 
L 131.826804 -49.697877 
L 131.826804 -49.588439 
L 127.224742 -49.588439 
L 127.224742 -49.532056 
L 122.62268 -49.532056 
L 122.62268 -49.271849 
L 118.020619 -49.271849 
L 118.020619 -48.980123 
L 113.418557 -48.980123 
L 113.418557 -48.69372 
L 108.816495 -48.69372 
L 108.816495 -48.444323 
L 104.214433 -48.444323 
L 104.214433 -48.304199 
L 99.612371 -48.304199 
L 99.612371 -48.253055 
L 95.010309 -48.253055 
L 95.010309 -48.220207 
L 90.408247 -48.220207 
L 90.408247 -48.069022 
L 85.806186 -48.069022 
L 85.806186 -47.88133 
L 81.204124 -47.88133 
L 81.204124 -47.723991 
L 76.602062 -47.723991 
L 76.602062 -47.601414 
L 72 -47.601414 
L 72 -47.52 
z
" id="m9992977582"/>
    </defs>
    <g clip-path="url(#p7b3b23d0d4)">
     <use style="fill:#d62728;" x="0" xlink:href="#m9992977582" y="432"/>
    </g>
   </g>
   <g id="PolyCollection_19">
    <defs>
     <path d="M 72 -47.52 
L 72 -47.52 
L 72 -47.601414 
L 76.602062 -47.601414 
L 76.602062 -47.723991 
L 81.204124 -47.723991 
L 81.204124 -47.88133 
L 85.806186 -47.88133 
L 85.806186 -48.069022 
L 90.408247 -48.069022 
L 90.408247 -48.220207 
L 95.010309 -48.220207 
L 95.010309 -48.253055 
L 99.612371 -48.253055 
L 99.612371 -48.304199 
L 104.214433 -48.304199 
L 104.214433 -48.444323 
L 108.816495 -48.444323 
L 108.816495 -48.69372 
L 113.418557 -48.69372 
L 113.418557 -48.980123 
L 118.020619 -48.980123 
L 118.020619 -49.271849 
L 122.62268 -49.271849 
L 122.62268 -49.532056 
L 127.224742 -49.532056 
L 127.224742 -49.588439 
L 131.826804 -49.588439 
L 131.826804 -49.697877 
L 136.428866 -49.697877 
L 136.428866 -50.01796 
L 141.030928 -50.01796 
L 141.030928 -50.465694 
L 145.63299 -50.465694 
L 145.63299 -50.960329 
L 150.235052 -50.960329 
L 150.235052 -51.498541 
L 154.837113 -51.498541 
L 154.837113 -51.947605 
L 159.439175 -51.947605 
L 159.439175 -52.07459 
L 164.041237 -52.07459 
L 164.041237 -52.148686 
L 168.643299 -52.148686 
L 168.643299 -52.751679 
L 173.245361 -52.751679 
L 173.245361 -53.522655 
L 177.847423 -53.522655 
L 177.847423 -54.294297 
L 182.449485 -54.294297 
L 182.449485 -55.122155 
L 187.051546 -55.122155 
L 187.051546 -55.831094 
L 191.653608 -55.831094 
L 191.653608 -55.97995 
L 196.25567 -55.97995 
L 196.25567 -56.161904 
L 200.857732 -56.161904 
L 200.857732 -56.901363 
L 205.459794 -56.901363 
L 205.459794 -57.711674 
L 210.061856 -57.711674 
L 210.061856 -58.597245 
L 214.663918 -58.597245 
L 214.663918 -59.433418 
L 219.265979 -59.433418 
L 219.265979 -60.201401 
L 223.868041 -60.201401 
L 223.868041 -60.329717 
L 228.470103 -60.329717 
L 228.470103 -60.565143 
L 233.072165 -60.565143 
L 233.072165 -61.521649 
L 237.674227 -61.521649 
L 237.674227 -62.646222 
L 242.276289 -62.646222 
L 242.276289 -63.715743 
L 246.878351 -63.715743 
L 246.878351 -64.732374 
L 251.480412 -64.732374 
L 251.480412 -64.955741 
L 256.082474 -64.955741 
L 256.082474 -65.220523 
L 260.684536 -65.220523 
L 260.684536 -65.274743 
L 265.286598 -65.274743 
L 265.286598 -65.49678 
L 269.88866 -65.49678 
L 269.88866 -66.334617 
L 274.490722 -66.334617 
L 274.490722 -67.454616 
L 279.092784 -67.454616 
L 279.092784 -68.486715 
L 283.694845 -68.486715 
L 283.694845 -69.282972 
L 288.296907 -69.282972 
L 288.296907 -69.483304 
L 292.898969 -69.483304 
L 292.898969 -69.630498 
L 297.501031 -69.630498 
L 297.501031 -70.320809 
L 302.103093 -70.320809 
L 302.103093 -70.999394 
L 306.705155 -70.999394 
L 306.705155 -71.712076 
L 311.307216 -71.712076 
L 311.307216 -72.373031 
L 315.909278 -72.373031 
L 315.909278 -72.963301 
L 320.51134 -72.963301 
L 320.51134 -73.11091 
L 325.113402 -73.11091 
L 325.113402 -73.219184 
L 329.715464 -73.219184 
L 329.715464 -73.87515 
L 334.317526 -73.87515 
L 334.317526 -87.86682 
L 334.317526 -87.86682 
L 329.715464 -87.86682 
L 329.715464 -86.861166 
L 325.113402 -86.861166 
L 325.113402 -86.628817 
L 320.51134 -86.628817 
L 320.51134 -86.444202 
L 315.909278 -86.444202 
L 315.909278 -85.553725 
L 311.307216 -85.553725 
L 311.307216 -84.679048 
L 306.705155 -84.679048 
L 306.705155 -83.669901 
L 302.103093 -83.669901 
L 302.103093 -82.61169 
L 297.501031 -82.61169 
L 297.501031 -81.632149 
L 292.898969 -81.632149 
L 292.898969 -81.409862 
L 288.296907 -81.409862 
L 288.296907 -81.102503 
L 283.694845 -81.102503 
L 283.694845 -79.906246 
L 279.092784 -79.906246 
L 279.092784 -78.226913 
L 274.490722 -78.226913 
L 274.490722 -76.626416 
L 269.88866 -76.626416 
L 269.88866 -75.284712 
L 265.286598 -75.284712 
L 265.286598 -74.977602 
L 260.684536 -74.977602 
L 260.684536 -74.886542 
L 256.082474 -74.886542 
L 256.082474 -74.60122 
L 251.480412 -74.60122 
L 251.480412 -74.302177 
L 246.878351 -74.302177 
L 246.878351 -72.657272 
L 242.276289 -72.657272 
L 242.276289 -70.884467 
L 237.674227 -70.884467 
L 237.674227 -69.235987 
L 233.072165 -69.235987 
L 233.072165 -67.740354 
L 228.470103 -67.740354 
L 228.470103 -67.332621 
L 223.868041 -67.332621 
L 223.868041 -66.912247 
L 219.265979 -66.912247 
L 219.265979 -65.722477 
L 214.663918 -65.722477 
L 214.663918 -64.384515 
L 210.061856 -64.384515 
L 210.061856 -63.025099 
L 205.459794 -63.025099 
L 205.459794 -61.850131 
L 200.857732 -61.850131 
L 200.857732 -60.737617 
L 196.25567 -60.737617 
L 196.25567 -60.444062 
L 191.653608 -60.444062 
L 191.653608 -60.178948 
L 187.051546 -60.178948 
L 187.051546 -59.091465 
L 182.449485 -59.091465 
L 182.449485 -57.869262 
L 177.847423 -57.869262 
L 177.847423 -56.761571 
L 173.245361 -56.761571 
L 173.245361 -55.68573 
L 168.643299 -55.68573 
L 168.643299 -54.793839 
L 164.041237 -54.793839 
L 164.041237 -54.669348 
L 159.439175 -54.669348 
L 159.439175 -54.467186 
L 154.837113 -54.467186 
L 154.837113 -53.656376 
L 150.235052 -53.656376 
L 150.235052 -52.816211 
L 145.63299 -52.816211 
L 145.63299 -51.989601 
L 141.030928 -51.989601 
L 141.030928 -51.306441 
L 136.428866 -51.306441 
L 136.428866 -50.897211 
L 131.826804 -50.897211 
L 131.826804 -50.717585 
L 127.224742 -50.717585 
L 127.224742 -50.600745 
L 122.62268 -50.600745 
L 122.62268 -50.178875 
L 118.020619 -50.178875 
L 118.020619 -49.699041 
L 113.418557 -49.699041 
L 113.418557 -49.248896 
L 108.816495 -49.248896 
L 108.816495 -48.861787 
L 104.214433 -48.861787 
L 104.214433 -48.625363 
L 99.612371 -48.625363 
L 99.612371 -48.565903 
L 95.010309 -48.565903 
L 95.010309 -48.520664 
L 90.408247 -48.520664 
L 90.408247 -48.310353 
L 85.806186 -48.310353 
L 85.806186 -48.052889 
L 81.204124 -48.052889 
L 81.204124 -47.828357 
L 76.602062 -47.828357 
L 76.602062 -47.649646 
L 72 -47.649646 
L 72 -47.52 
z
" id="m3ec1217401"/>
    </defs>
    <g clip-path="url(#p7b3b23d0d4)">
     <use style="fill:#2ca02c;" x="0" xlink:href="#m3ec1217401" y="432"/>
    </g>
   </g>
   <g id="PolyCollection_20">
    <defs>
     <path d="M 72 -47.521663 
L 72 -47.52 
L 72 -47.649646 
L 76.602062 -47.649646 
L 76.602062 -47.828357 
L 81.204124 -47.828357 
L 81.204124 -48.052889 
L 85.806186 -48.052889 
L 85.806186 -48.310353 
L 90.408247 -48.310353 
L 90.408247 -48.520664 
L 95.010309 -48.520664 
L 95.010309 -48.565903 
L 99.612371 -48.565903 
L 99.612371 -48.625363 
L 104.214433 -48.625363 
L 104.214433 -48.861787 
L 108.816495 -48.861787 
L 108.816495 -49.248896 
L 113.418557 -49.248896 
L 113.418557 -49.699041 
L 118.020619 -49.699041 
L 118.020619 -50.178875 
L 122.62268 -50.178875 
L 122.62268 -50.600745 
L 127.224742 -50.600745 
L 127.224742 -50.717585 
L 131.826804 -50.717585 
L 131.826804 -50.897211 
L 136.428866 -50.897211 
L 136.428866 -51.306441 
L 141.030928 -51.306441 
L 141.030928 -51.989601 
L 145.63299 -51.989601 
L 145.63299 -52.816211 
L 150.235052 -52.816211 
L 150.235052 -53.656376 
L 154.837113 -53.656376 
L 154.837113 -54.467186 
L 159.439175 -54.467186 
L 159.439175 -54.669348 
L 164.041237 -54.669348 
L 164.041237 -54.793839 
L 168.643299 -54.793839 
L 168.643299 -55.68573 
L 173.245361 -55.68573 
L 173.245361 -56.761571 
L 177.847423 -56.761571 
L 177.847423 -57.869262 
L 182.449485 -57.869262 
L 182.449485 -59.091465 
L 187.051546 -59.091465 
L 187.051546 -60.178948 
L 191.653608 -60.178948 
L 191.653608 -60.444062 
L 196.25567 -60.444062 
L 196.25567 -60.737617 
L 200.857732 -60.737617 
L 200.857732 -61.850131 
L 205.459794 -61.850131 
L 205.459794 -63.025099 
L 210.061856 -63.025099 
L 210.061856 -64.384515 
L 214.663918 -64.384515 
L 214.663918 -65.722477 
L 219.265979 -65.722477 
L 219.265979 -66.912247 
L 223.868041 -66.912247 
L 223.868041 -67.332621 
L 228.470103 -67.332621 
L 228.470103 -67.740354 
L 233.072165 -67.740354 
L 233.072165 -69.235987 
L 237.674227 -69.235987 
L 237.674227 -70.884467 
L 242.276289 -70.884467 
L 242.276289 -72.657272 
L 246.878351 -72.657272 
L 246.878351 -74.302177 
L 251.480412 -74.302177 
L 251.480412 -74.60122 
L 256.082474 -74.60122 
L 256.082474 -74.886542 
L 260.684536 -74.886542 
L 260.684536 -74.977602 
L 265.286598 -74.977602 
L 265.286598 -75.284712 
L 269.88866 -75.284712 
L 269.88866 -76.626416 
L 274.490722 -76.626416 
L 274.490722 -78.226913 
L 279.092784 -78.226913 
L 279.092784 -79.906246 
L 283.694845 -79.906246 
L 283.694845 -81.102503 
L 288.296907 -81.102503 
L 288.296907 -81.409862 
L 292.898969 -81.409862 
L 292.898969 -81.632149 
L 297.501031 -81.632149 
L 297.501031 -82.61169 
L 302.103093 -82.61169 
L 302.103093 -83.669901 
L 306.705155 -83.669901 
L 306.705155 -84.679048 
L 311.307216 -84.679048 
L 311.307216 -85.553725 
L 315.909278 -85.553725 
L 315.909278 -86.444202 
L 320.51134 -86.444202 
L 320.51134 -86.628817 
L 325.113402 -86.628817 
L 325.113402 -86.861166 
L 329.715464 -86.861166 
L 329.715464 -87.86682 
L 334.317526 -87.86682 
L 334.317526 -102.647097 
L 334.317526 -102.647097 
L 329.715464 -102.647097 
L 329.715464 -101.318699 
L 325.113402 -101.318699 
L 325.113402 -101.08635 
L 320.51134 -101.08635 
L 320.51134 -100.855997 
L 315.909278 -100.855997 
L 315.909278 -99.631382 
L 311.307216 -99.631382 
L 311.307216 -98.38839 
L 306.705155 -98.38839 
L 306.705155 -97.028474 
L 302.103093 -97.028474 
L 302.103093 -95.575836 
L 297.501031 -95.575836 
L 297.501031 -94.233799 
L 292.898969 -94.233799 
L 292.898969 -94.011513 
L 288.296907 -94.011513 
L 288.296907 -93.670058 
L 283.694845 -93.670058 
L 283.694845 -92.107814 
L 279.092784 -92.107814 
L 279.092784 -89.915134 
L 274.490722 -89.915134 
L 274.490722 -87.796716 
L 269.88866 -87.796716 
L 269.88866 -85.874224 
L 265.286598 -85.874224 
L 265.286598 -85.499505 
L 260.684536 -85.499505 
L 260.684536 -85.405783 
L 256.082474 -85.405783 
L 256.082474 -85.012437 
L 251.480412 -85.012437 
L 251.480412 -84.643622 
L 246.878351 -84.643622 
L 246.878351 -82.420256 
L 242.276289 -82.420256 
L 242.276289 -79.200467 
L 237.674227 -79.200467 
L 237.674227 -77.551987 
L 233.072165 -77.551987 
L 233.072165 -75.746417 
L 228.470103 -75.746417 
L 228.470103 -75.338683 
L 223.868041 -75.338683 
L 223.868041 -74.918309 
L 219.265979 -74.918309 
L 219.265979 -73.140016 
L 214.663918 -73.140016 
L 214.663918 -70.450455 
L 210.061856 -70.450455 
L 210.061856 -69.091039 
L 205.459794 -69.091039 
L 205.459794 -67.916071 
L 200.857732 -67.916071 
L 200.857732 -66.13337 
L 196.25567 -66.13337 
L 196.25567 -64.7357 
L 191.653608 -64.7357 
L 191.653608 -64.470586 
L 187.051546 -64.470586 
L 187.051546 -63.383103 
L 182.449485 -63.383103 
L 182.449485 -62.1609 
L 177.847423 -62.1609 
L 177.847423 -60.655122 
L 173.245361 -60.655122 
L 173.245361 -59.132213 
L 168.643299 -59.132213 
L 168.643299 -57.916746 
L 164.041237 -57.916746 
L 164.041237 -57.7313 
L 159.439175 -57.7313 
L 159.439175 -57.529138 
L 154.837113 -57.529138 
L 154.837113 -56.260365 
L 150.235052 -56.260365 
L 150.235052 -55.4202 
L 145.63299 -55.4202 
L 145.63299 -54.234921 
L 141.030928 -54.234921 
L 141.030928 -53.295878 
L 136.428866 -53.295878 
L 136.428866 -52.707022 
L 131.826804 -52.707022 
L 131.826804 -52.37197 
L 127.224742 -52.37197 
L 127.224742 -52.25513 
L 122.62268 -52.25513 
L 122.62268 -51.83326 
L 118.020619 -51.83326 
L 118.020619 -51.096545 
L 113.418557 -51.096545 
L 113.418557 -50.463032 
L 108.816495 -50.463032 
L 108.816495 -49.894966 
L 104.214433 -49.894966 
L 104.214433 -49.485154 
L 99.612371 -49.485154 
L 99.612371 -49.189603 
L 95.010309 -49.189603 
L 95.010309 -49.144364 
L 90.408247 -49.144364 
L 90.408247 -48.934053 
L 85.806186 -48.934053 
L 85.806186 -48.510269 
L 81.204124 -48.510269 
L 81.204124 -48.094469 
L 76.602062 -48.094469 
L 76.602062 -47.759418 
L 72 -47.759418 
L 72 -47.521663 
z
" id="m5bc72cadce"/>
    </defs>
    <g clip-path="url(#p7b3b23d0d4)">
     <use style="fill:#ff7f0e;" x="0" xlink:href="#m5bc72cadce" y="432"/>
    </g>
   </g>
   <g id="PolyCollection_21">
    <defs>
     <path d="M 72 -47.521663 
L 72 -47.521663 
L 72 -47.759418 
L 76.602062 -47.759418 
L 76.602062 -48.094469 
L 81.204124 -48.094469 
L 81.204124 -48.510269 
L 85.806186 -48.510269 
L 85.806186 -48.934053 
L 90.408247 -48.934053 
L 90.408247 -49.144364 
L 95.010309 -49.144364 
L 95.010309 -49.189603 
L 99.612371 -49.189603 
L 99.612371 -49.485154 
L 104.214433 -49.485154 
L 104.214433 -49.894966 
L 108.816495 -49.894966 
L 108.816495 -50.463032 
L 113.418557 -50.463032 
L 113.418557 -51.096545 
L 118.020619 -51.096545 
L 118.020619 -51.83326 
L 122.62268 -51.83326 
L 122.62268 -52.25513 
L 127.224742 -52.25513 
L 127.224742 -52.37197 
L 131.826804 -52.37197 
L 131.826804 -52.707022 
L 136.428866 -52.707022 
L 136.428866 -53.295878 
L 141.030928 -53.295878 
L 141.030928 -54.234921 
L 145.63299 -54.234921 
L 145.63299 -55.4202 
L 150.235052 -55.4202 
L 150.235052 -56.260365 
L 154.837113 -56.260365 
L 154.837113 -57.529138 
L 159.439175 -57.529138 
L 159.439175 -57.7313 
L 164.041237 -57.7313 
L 164.041237 -57.916746 
L 168.643299 -57.916746 
L 168.643299 -59.132213 
L 173.245361 -59.132213 
L 173.245361 -60.655122 
L 177.847423 -60.655122 
L 177.847423 -62.1609 
L 182.449485 -62.1609 
L 182.449485 -63.383103 
L 187.051546 -63.383103 
L 187.051546 -64.470586 
L 191.653608 -64.470586 
L 191.653608 -64.7357 
L 196.25567 -64.7357 
L 196.25567 -66.13337 
L 200.857732 -66.13337 
L 200.857732 -67.916071 
L 205.459794 -67.916071 
L 205.459794 -69.091039 
L 210.061856 -69.091039 
L 210.061856 -70.450455 
L 214.663918 -70.450455 
L 214.663918 -73.140016 
L 219.265979 -73.140016 
L 219.265979 -74.918309 
L 223.868041 -74.918309 
L 223.868041 -75.338683 
L 228.470103 -75.338683 
L 228.470103 -75.746417 
L 233.072165 -75.746417 
L 233.072165 -77.551987 
L 237.674227 -77.551987 
L 237.674227 -79.200467 
L 242.276289 -79.200467 
L 242.276289 -82.420256 
L 246.878351 -82.420256 
L 246.878351 -84.643622 
L 251.480412 -84.643622 
L 251.480412 -85.012437 
L 256.082474 -85.012437 
L 256.082474 -85.405783 
L 260.684536 -85.405783 
L 260.684536 -85.499505 
L 265.286598 -85.499505 
L 265.286598 -85.874224 
L 269.88866 -85.874224 
L 269.88866 -87.796716 
L 274.490722 -87.796716 
L 274.490722 -89.915134 
L 279.092784 -89.915134 
L 279.092784 -92.107814 
L 283.694845 -92.107814 
L 283.694845 -93.670058 
L 288.296907 -93.670058 
L 288.296907 -94.011513 
L 292.898969 -94.011513 
L 292.898969 -94.233799 
L 297.501031 -94.233799 
L 297.501031 -95.575836 
L 302.103093 -95.575836 
L 302.103093 -97.028474 
L 306.705155 -97.028474 
L 306.705155 -98.38839 
L 311.307216 -98.38839 
L 311.307216 -99.631382 
L 315.909278 -99.631382 
L 315.909278 -100.855997 
L 320.51134 -100.855997 
L 320.51134 -101.08635 
L 325.113402 -101.08635 
L 325.113402 -101.318699 
L 329.715464 -101.318699 
L 329.715464 -102.647097 
L 334.317526 -102.647097 
L 334.317526 -185.007264 
L 334.317526 -185.007264 
L 329.715464 -185.007264 
L 329.715464 -179.457997 
L 325.113402 -179.457997 
L 325.113402 -172.003202 
L 320.51134 -172.003202 
L 320.51134 -170.144243 
L 315.909278 -170.144243 
L 315.909278 -165.655183 
L 311.307216 -165.655183 
L 311.307216 -160.589741 
L 306.705155 -160.589741 
L 306.705155 -155.268084 
L 302.103093 -155.268084 
L 302.103093 -150.196072 
L 297.501031 -150.196072 
L 297.501031 -145.507594 
L 292.898969 -145.507594 
L 292.898969 -144.531795 
L 288.296907 -144.531795 
L 288.296907 -142.228097 
L 283.694845 -142.228097 
L 283.694845 -137.125815 
L 279.092784 -137.125815 
L 279.092784 -130.359418 
L 274.490722 -130.359418 
L 274.490722 -124.054975 
L 269.88866 -124.054975 
L 269.88866 -118.620386 
L 265.286598 -118.620386 
L 265.286598 -117.732736 
L 260.684536 -117.732736 
L 260.684536 -117.639015 
L 256.082474 -117.639015 
L 256.082474 -116.411075 
L 251.480412 -116.411075 
L 251.480412 -116.011491 
L 246.878351 -116.011491 
L 246.878351 -109.418316 
L 242.276289 -109.418316 
L 242.276289 -103.266223 
L 237.674227 -103.266223 
L 237.674227 -97.210013 
L 233.072165 -97.210013 
L 233.072165 -92.572845 
L 228.470103 -92.572845 
L 228.470103 -90.058003 
L 223.868041 -90.058003 
L 223.868041 -89.637629 
L 219.265979 -89.637629 
L 219.265979 -85.78649 
L 214.663918 -85.78649 
L 214.663918 -81.483376 
L 210.061856 -81.483376 
L 210.061856 -77.062923 
L 205.459794 -77.062923 
L 205.459794 -73.093779 
L 200.857732 -73.093779 
L 200.857732 -70.986421 
L 196.25567 -70.986421 
L 196.25567 -68.8937 
L 191.653608 -68.8937 
L 191.653608 -68.628586 
L 187.051546 -68.628586 
L 187.051546 -67.541103 
L 182.449485 -67.541103 
L 182.449485 -66.3189 
L 177.847423 -66.3189 
L 177.847423 -64.4478 
L 173.245361 -64.4478 
L 173.245361 -62.691461 
L 168.643299 -62.691461 
L 168.643299 -61.223188 
L 164.041237 -61.223188 
L 164.041237 -61.037741 
L 159.439175 -61.037741 
L 159.439175 -60.766889 
L 154.837113 -60.766889 
L 154.837113 -58.755165 
L 150.235052 -58.755165 
L 150.235052 -57.915 
L 145.63299 -57.915 
L 145.63299 -56.351592 
L 141.030928 -56.351592 
L 141.030928 -55.412549 
L 136.428866 -55.412549 
L 136.428866 -54.702446 
L 131.826804 -54.702446 
L 131.826804 -54.28465 
L 127.224742 -54.28465 
L 127.224742 -53.91833 
L 122.62268 -53.91833 
L 122.62268 -53.49646 
L 118.020619 -53.49646 
L 118.020619 -52.593425 
L 113.418557 -52.593425 
L 113.418557 -51.747854 
L 108.816495 -51.747854 
L 108.816495 -51.004986 
L 104.214433 -51.004986 
L 104.214433 -50.322658 
L 99.612371 -50.322658 
L 99.612371 -50.172305 
L 95.010309 -50.172305 
L 95.010309 -50.0148 
L 90.408247 -50.0148 
L 90.408247 -49.599 
L 85.806186 -49.599 
L 85.806186 -48.9753 
L 81.204124 -48.9753 
L 81.204124 -48.094469 
L 76.602062 -48.094469 
L 76.602062 -47.759418 
L 72 -47.759418 
L 72 -47.521663 
z
" id="mb2e381bdc1"/>
    </defs>
    <g clip-path="url(#p7b3b23d0d4)">
     <use style="fill:#1f77b4;" x="0" xlink:href="#mb2e381bdc1" y="432"/>
    </g>
   </g>
   <g id="PolyCollection_22">
    <defs>
     <path d="M 334.317526 -47.52 
L 334.317526 -185.007264 
L 334.317526 -190.620979 
L 338.919588 -190.620979 
L 338.919588 -195.742504 
L 343.521649 -195.742504 
L 343.521649 -200.697977 
L 348.123711 -200.697977 
L 348.123711 -203.596206 
L 352.725773 -203.596206 
L 352.725773 -209.177316 
L 357.327835 -209.177316 
L 357.327835 -213.958662 
L 361.929897 -213.958662 
L 361.929897 -218.282832 
L 366.531959 -218.282832 
L 366.531959 -223.275632 
L 371.134021 -223.275632 
L 371.134021 -228.169455 
L 375.736082 -228.169455 
L 375.736082 -232.894972 
L 380.338144 -232.894972 
L 380.338144 -236.879812 
L 384.940206 -236.879812 
L 384.940206 -47.52 
L 384.940206 -47.52 
L 380.338144 -47.52 
L 380.338144 -47.52 
L 375.736082 -47.52 
L 375.736082 -47.52 
L 371.134021 -47.52 
L 371.134021 -47.52 
L 366.531959 -47.52 
L 366.531959 -47.52 
L 361.929897 -47.52 
L 361.929897 -47.52 
L 357.327835 -47.52 
L 357.327835 -47.52 
L 352.725773 -47.52 
L 352.725773 -47.52 
L 348.123711 -47.52 
L 348.123711 -47.52 
L 343.521649 -47.52 
L 343.521649 -47.52 
L 338.919588 -47.52 
L 338.919588 -47.52 
L 334.317526 -47.52 
L 334.317526 -47.52 
z
" id="m4b29174179"/>
    </defs>
    <g clip-path="url(#p7b3b23d0d4)">
     <use style="fill:#00ffff;fill-opacity:0.5;" x="0" xlink:href="#m4b29174179" y="432"/>
    </g>
   </g>
   <g id="matplotlib.axis_1">
    <g id="xtick_1">
     <g id="line2d_1">
      <path clip-path="url(#p7b3b23d0d4)" d="M 99.612371 384.48 
L 99.612371 51.84 
" style="fill:none;stroke:#000000;stroke-dasharray:0.8,1.32;stroke-dashoffset:0;stroke-width:0.8;"/>
     </g>
     <g id="line2d_2">
      <defs>
       <path d="M 0 0 
L 0 3.5 
" id="m3ddff42d07" style="stroke:#000000;stroke-width:0.8;"/>
      </defs>
      <g>
       <use style="stroke:#000000;stroke-width:0.8;" x="99.612371" xlink:href="#m3ddff42d07" y="384.48"/>
      </g>
     </g>
     <g id="text_1">
      <!-- Mar -->
      <g transform="translate(90.178777 399.078438)scale(0.1 -0.1)">
       <defs>
        <path d="M 628 4666 
L 1569 4666 
L 2759 1491 
L 3956 4666 
L 4897 4666 
L 4897 0 
L 4281 0 
L 4281 4097 
L 3078 897 
L 2444 897 
L 1241 4097 
L 1241 0 
L 628 0 
L 628 4666 
z
" id="DejaVuSans-4d" transform="scale(0.015625)"/>
        <path d="M 2194 1759 
Q 1497 1759 1228 1600 
Q 959 1441 959 1056 
Q 959 750 1161 570 
Q 1363 391 1709 391 
Q 2188 391 2477 730 
Q 2766 1069 2766 1631 
L 2766 1759 
L 2194 1759 
z
M 3341 1997 
L 3341 0 
L 2766 0 
L 2766 531 
Q 2569 213 2275 61 
Q 1981 -91 1556 -91 
Q 1019 -91 701 211 
Q 384 513 384 1019 
Q 384 1609 779 1909 
Q 1175 2209 1959 2209 
L 2766 2209 
L 2766 2266 
Q 2766 2663 2505 2880 
Q 2244 3097 1772 3097 
Q 1472 3097 1187 3025 
Q 903 2953 641 2809 
L 641 3341 
Q 956 3463 1253 3523 
Q 1550 3584 1831 3584 
Q 2591 3584 2966 3190 
Q 3341 2797 3341 1997 
z
" id="DejaVuSans-61" transform="scale(0.015625)"/>
        <path d="M 2631 2963 
Q 2534 3019 2420 3045 
Q 2306 3072 2169 3072 
Q 1681 3072 1420 2755 
Q 1159 2438 1159 1844 
L 1159 0 
L 581 0 
L 581 3500 
L 1159 3500 
L 1159 2956 
Q 1341 3275 1631 3429 
Q 1922 3584 2338 3584 
Q 2397 3584 2469 3576 
Q 2541 3569 2628 3553 
L 2631 2963 
z
" id="DejaVuSans-72" transform="scale(0.015625)"/>
       </defs>
       <use xlink:href="#DejaVuSans-4d"/>
       <use x="86.279297" xlink:href="#DejaVuSans-61"/>
       <use x="147.558594" xlink:href="#DejaVuSans-72"/>
      </g>
     </g>
    </g>
    <g id="xtick_2">
     <g id="line2d_3">
      <path clip-path="url(#p7b3b23d0d4)" d="M 242.276289 384.48 
L 242.276289 51.84 
" style="fill:none;stroke:#000000;stroke-dasharray:0.8,1.32;stroke-dashoffset:0;stroke-width:0.8;"/>
     </g>
     <g id="line2d_4">
      <g>
       <use style="stroke:#000000;stroke-width:0.8;" x="242.276289" xlink:href="#m3ddff42d07" y="384.48"/>
      </g>
     </g>
     <g id="text_2">
      <!-- Apr -->
      <g transform="translate(233.626289 399.078438)scale(0.1 -0.1)">
       <defs>
        <path d="M 2188 4044 
L 1331 1722 
L 3047 1722 
L 2188 4044 
z
M 1831 4666 
L 2547 4666 
L 4325 0 
L 3669 0 
L 3244 1197 
L 1141 1197 
L 716 0 
L 50 0 
L 1831 4666 
z
" id="DejaVuSans-41" transform="scale(0.015625)"/>
        <path d="M 1159 525 
L 1159 -1331 
L 581 -1331 
L 581 3500 
L 1159 3500 
L 1159 2969 
Q 1341 3281 1617 3432 
Q 1894 3584 2278 3584 
Q 2916 3584 3314 3078 
Q 3713 2572 3713 1747 
Q 3713 922 3314 415 
Q 2916 -91 2278 -91 
Q 1894 -91 1617 61 
Q 1341 213 1159 525 
z
M 3116 1747 
Q 3116 2381 2855 2742 
Q 2594 3103 2138 3103 
Q 1681 3103 1420 2742 
Q 1159 2381 1159 1747 
Q 1159 1113 1420 752 
Q 1681 391 2138 391 
Q 2594 391 2855 752 
Q 3116 1113 3116 1747 
z
" id="DejaVuSans-70" transform="scale(0.015625)"/>
       </defs>
       <use xlink:href="#DejaVuSans-41"/>
       <use x="68.408203" xlink:href="#DejaVuSans-70"/>
       <use x="131.884766" xlink:href="#DejaVuSans-72"/>
      </g>
     </g>
    </g>
    <g id="xtick_3">
     <g id="line2d_5">
      <path clip-path="url(#p7b3b23d0d4)" d="M 380.338144 384.48 
L 380.338144 51.84 
" style="fill:none;stroke:#000000;stroke-dasharray:0.8,1.32;stroke-dashoffset:0;stroke-width:0.8;"/>
     </g>
     <g id="line2d_6">
      <g>
       <use style="stroke:#000000;stroke-width:0.8;" x="380.338144" xlink:href="#m3ddff42d07" y="384.48"/>
      </g>
     </g>
     <g id="text_3">
      <!-- May -->
      <g transform="translate(370.000644 399.078438)scale(0.1 -0.1)">
       <defs>
        <path d="M 2059 -325 
Q 1816 -950 1584 -1140 
Q 1353 -1331 966 -1331 
L 506 -1331 
L 506 -850 
L 844 -850 
Q 1081 -850 1212 -737 
Q 1344 -625 1503 -206 
L 1606 56 
L 191 3500 
L 800 3500 
L 1894 763 
L 2988 3500 
L 3597 3500 
L 2059 -325 
z
" id="DejaVuSans-79" transform="scale(0.015625)"/>
       </defs>
       <use xlink:href="#DejaVuSans-4d"/>
       <use x="86.279297" xlink:href="#DejaVuSans-61"/>
       <use x="147.558594" xlink:href="#DejaVuSans-79"/>
      </g>
     </g>
    </g>
   </g>
   <g id="matplotlib.axis_2">
    <g id="ytick_1">
     <g id="line2d_7">
      <path clip-path="url(#p7b3b23d0d4)" d="M 72 384.48 
L 518.4 384.48 
" style="fill:none;stroke:#000000;stroke-dasharray:0.8,1.32;stroke-dashoffset:0;stroke-width:0.8;"/>
     </g>
     <g id="line2d_8">
      <defs>
       <path d="M 0 0 
L -3.5 0 
" id="m11535a26c2" style="stroke:#000000;stroke-width:0.8;"/>
      </defs>
      <g>
       <use style="stroke:#000000;stroke-width:0.8;" x="72" xlink:href="#m11535a26c2" y="384.48"/>
      </g>
     </g>
     <g id="text_4">
      <!-- 0 -->
      <g transform="translate(58.6375 388.279219)scale(0.1 -0.1)">
       <defs>
        <path d="M 2034 4250 
Q 1547 4250 1301 3770 
Q 1056 3291 1056 2328 
Q 1056 1369 1301 889 
Q 1547 409 2034 409 
Q 2525 409 2770 889 
Q 3016 1369 3016 2328 
Q 3016 3291 2770 3770 
Q 2525 4250 2034 4250 
z
M 2034 4750 
Q 2819 4750 3233 4129 
Q 3647 3509 3647 2328 
Q 3647 1150 3233 529 
Q 2819 -91 2034 -91 
Q 1250 -91 836 529 
Q 422 1150 422 2328 
Q 422 3509 836 4129 
Q 1250 4750 2034 4750 
z
" id="DejaVuSans-30" transform="scale(0.015625)"/>
       </defs>
       <use xlink:href="#DejaVuSans-30"/>
      </g>
     </g>
    </g>
    <g id="ytick_2">
     <g id="line2d_9">
      <path clip-path="url(#p7b3b23d0d4)" d="M 72 301.32 
L 518.4 301.32 
" style="fill:none;stroke:#000000;stroke-dasharray:0.8,1.32;stroke-dashoffset:0;stroke-width:0.8;"/>
     </g>
     <g id="line2d_10">
      <g>
       <use style="stroke:#000000;stroke-width:0.8;" x="72" xlink:href="#m11535a26c2" y="301.32"/>
      </g>
     </g>
     <g id="text_5">
      <!-- 1 -->
      <g transform="translate(58.6375 305.119219)scale(0.1 -0.1)">
       <defs>
        <path d="M 794 531 
L 1825 531 
L 1825 4091 
L 703 3866 
L 703 4441 
L 1819 4666 
L 2450 4666 
L 2450 531 
L 3481 531 
L 3481 0 
L 794 0 
L 794 531 
z
" id="DejaVuSans-31" transform="scale(0.015625)"/>
       </defs>
       <use xlink:href="#DejaVuSans-31"/>
      </g>
     </g>
    </g>
    <g id="ytick_3">
     <g id="line2d_11">
      <path clip-path="url(#p7b3b23d0d4)" d="M 72 218.16 
L 518.4 218.16 
" style="fill:none;stroke:#000000;stroke-dasharray:0.8,1.32;stroke-dashoffset:0;stroke-width:0.8;"/>
     </g>
     <g id="line2d_12">
      <g>
       <use style="stroke:#000000;stroke-width:0.8;" x="72" xlink:href="#m11535a26c2" y="218.16"/>
      </g>
     </g>
     <g id="text_6">
      <!-- 2 -->
      <g transform="translate(58.6375 221.959219)scale(0.1 -0.1)">
       <defs>
        <path d="M 1228 531 
L 3431 531 
L 3431 0 
L 469 0 
L 469 531 
Q 828 903 1448 1529 
Q 2069 2156 2228 2338 
Q 2531 2678 2651 2914 
Q 2772 3150 2772 3378 
Q 2772 3750 2511 3984 
Q 2250 4219 1831 4219 
Q 1534 4219 1204 4116 
Q 875 4013 500 3803 
L 500 4441 
Q 881 4594 1212 4672 
Q 1544 4750 1819 4750 
Q 2544 4750 2975 4387 
Q 3406 4025 3406 3419 
Q 3406 3131 3298 2873 
Q 3191 2616 2906 2266 
Q 2828 2175 2409 1742 
Q 1991 1309 1228 531 
z
" id="DejaVuSans-32" transform="scale(0.015625)"/>
       </defs>
       <use xlink:href="#DejaVuSans-32"/>
      </g>
     </g>
    </g>
    <g id="ytick_4">
     <g id="line2d_13">
      <path clip-path="url(#p7b3b23d0d4)" d="M 72 135 
L 518.4 135 
" style="fill:none;stroke:#000000;stroke-dasharray:0.8,1.32;stroke-dashoffset:0;stroke-width:0.8;"/>
     </g>
     <g id="line2d_14">
      <g>
       <use style="stroke:#000000;stroke-width:0.8;" x="72" xlink:href="#m11535a26c2" y="135"/>
      </g>
     </g>
     <g id="text_7">
      <!-- 3 -->
      <g transform="translate(58.6375 138.799219)scale(0.1 -0.1)">
       <defs>
        <path d="M 2597 2516 
Q 3050 2419 3304 2112 
Q 3559 1806 3559 1356 
Q 3559 666 3084 287 
Q 2609 -91 1734 -91 
Q 1441 -91 1130 -33 
Q 819 25 488 141 
L 488 750 
Q 750 597 1062 519 
Q 1375 441 1716 441 
Q 2309 441 2620 675 
Q 2931 909 2931 1356 
Q 2931 1769 2642 2001 
Q 2353 2234 1838 2234 
L 1294 2234 
L 1294 2753 
L 1863 2753 
Q 2328 2753 2575 2939 
Q 2822 3125 2822 3475 
Q 2822 3834 2567 4026 
Q 2313 4219 1838 4219 
Q 1578 4219 1281 4162 
Q 984 4106 628 3988 
L 628 4550 
Q 988 4650 1302 4700 
Q 1616 4750 1894 4750 
Q 2613 4750 3031 4423 
Q 3450 4097 3450 3541 
Q 3450 3153 3228 2886 
Q 3006 2619 2597 2516 
z
" id="DejaVuSans-33" transform="scale(0.015625)"/>
       </defs>
       <use xlink:href="#DejaVuSans-33"/>
      </g>
     </g>
    </g>
    <g id="ytick_5">
     <g id="line2d_15">
      <path clip-path="url(#p7b3b23d0d4)" d="M 72 51.84 
L 518.4 51.84 
" style="fill:none;stroke:#000000;stroke-dasharray:0.8,1.32;stroke-dashoffset:0;stroke-width:0.8;"/>
     </g>
     <g id="line2d_16">
      <g>
       <use style="stroke:#000000;stroke-width:0.8;" x="72" xlink:href="#m11535a26c2" y="51.84"/>
      </g>
     </g>
     <g id="text_8">
      <!-- 4 -->
      <g transform="translate(58.6375 55.639219)scale(0.1 -0.1)">
       <defs>
        <path d="M 2419 4116 
L 825 1625 
L 2419 1625 
L 2419 4116 
z
M 2253 4666 
L 3047 4666 
L 3047 1625 
L 3713 1625 
L 3713 1100 
L 3047 1100 
L 3047 0 
L 2419 0 
L 2419 1100 
L 313 1100 
L 313 1709 
L 2253 4666 
z
" id="DejaVuSans-34" transform="scale(0.015625)"/>
       </defs>
       <use xlink:href="#DejaVuSans-34"/>
      </g>
     </g>
    </g>
    <g id="text_9">
     <!-- Cumulative doses (millions) -->
     <g transform="translate(52.557812 287.556094)rotate(-90)scale(0.1 -0.1)">
      <defs>
       <path d="M 4122 4306 
L 4122 3641 
Q 3803 3938 3442 4084 
Q 3081 4231 2675 4231 
Q 1875 4231 1450 3742 
Q 1025 3253 1025 2328 
Q 1025 1406 1450 917 
Q 1875 428 2675 428 
Q 3081 428 3442 575 
Q 3803 722 4122 1019 
L 4122 359 
Q 3791 134 3420 21 
Q 3050 -91 2638 -91 
Q 1578 -91 968 557 
Q 359 1206 359 2328 
Q 359 3453 968 4101 
Q 1578 4750 2638 4750 
Q 3056 4750 3426 4639 
Q 3797 4528 4122 4306 
z
" id="DejaVuSans-43" transform="scale(0.015625)"/>
       <path d="M 544 1381 
L 544 3500 
L 1119 3500 
L 1119 1403 
Q 1119 906 1312 657 
Q 1506 409 1894 409 
Q 2359 409 2629 706 
Q 2900 1003 2900 1516 
L 2900 3500 
L 3475 3500 
L 3475 0 
L 2900 0 
L 2900 538 
Q 2691 219 2414 64 
Q 2138 -91 1772 -91 
Q 1169 -91 856 284 
Q 544 659 544 1381 
z
M 1991 3584 
L 1991 3584 
z
" id="DejaVuSans-75" transform="scale(0.015625)"/>
       <path d="M 3328 2828 
Q 3544 3216 3844 3400 
Q 4144 3584 4550 3584 
Q 5097 3584 5394 3201 
Q 5691 2819 5691 2113 
L 5691 0 
L 5113 0 
L 5113 2094 
Q 5113 2597 4934 2840 
Q 4756 3084 4391 3084 
Q 3944 3084 3684 2787 
Q 3425 2491 3425 1978 
L 3425 0 
L 2847 0 
L 2847 2094 
Q 2847 2600 2669 2842 
Q 2491 3084 2119 3084 
Q 1678 3084 1418 2786 
Q 1159 2488 1159 1978 
L 1159 0 
L 581 0 
L 581 3500 
L 1159 3500 
L 1159 2956 
Q 1356 3278 1631 3431 
Q 1906 3584 2284 3584 
Q 2666 3584 2933 3390 
Q 3200 3197 3328 2828 
z
" id="DejaVuSans-6d" transform="scale(0.015625)"/>
       <path d="M 603 4863 
L 1178 4863 
L 1178 0 
L 603 0 
L 603 4863 
z
" id="DejaVuSans-6c" transform="scale(0.015625)"/>
       <path d="M 1172 4494 
L 1172 3500 
L 2356 3500 
L 2356 3053 
L 1172 3053 
L 1172 1153 
Q 1172 725 1289 603 
Q 1406 481 1766 481 
L 2356 481 
L 2356 0 
L 1766 0 
Q 1100 0 847 248 
Q 594 497 594 1153 
L 594 3053 
L 172 3053 
L 172 3500 
L 594 3500 
L 594 4494 
L 1172 4494 
z
" id="DejaVuSans-74" transform="scale(0.015625)"/>
       <path d="M 603 3500 
L 1178 3500 
L 1178 0 
L 603 0 
L 603 3500 
z
M 603 4863 
L 1178 4863 
L 1178 4134 
L 603 4134 
L 603 4863 
z
" id="DejaVuSans-69" transform="scale(0.015625)"/>
       <path d="M 191 3500 
L 800 3500 
L 1894 563 
L 2988 3500 
L 3597 3500 
L 2284 0 
L 1503 0 
L 191 3500 
z
" id="DejaVuSans-76" transform="scale(0.015625)"/>
       <path d="M 3597 1894 
L 3597 1613 
L 953 1613 
Q 991 1019 1311 708 
Q 1631 397 2203 397 
Q 2534 397 2845 478 
Q 3156 559 3463 722 
L 3463 178 
Q 3153 47 2828 -22 
Q 2503 -91 2169 -91 
Q 1331 -91 842 396 
Q 353 884 353 1716 
Q 353 2575 817 3079 
Q 1281 3584 2069 3584 
Q 2775 3584 3186 3129 
Q 3597 2675 3597 1894 
z
M 3022 2063 
Q 3016 2534 2758 2815 
Q 2500 3097 2075 3097 
Q 1594 3097 1305 2825 
Q 1016 2553 972 2059 
L 3022 2063 
z
" id="DejaVuSans-65" transform="scale(0.015625)"/>
       <path id="DejaVuSans-20" transform="scale(0.015625)"/>
       <path d="M 2906 2969 
L 2906 4863 
L 3481 4863 
L 3481 0 
L 2906 0 
L 2906 525 
Q 2725 213 2448 61 
Q 2172 -91 1784 -91 
Q 1150 -91 751 415 
Q 353 922 353 1747 
Q 353 2572 751 3078 
Q 1150 3584 1784 3584 
Q 2172 3584 2448 3432 
Q 2725 3281 2906 2969 
z
M 947 1747 
Q 947 1113 1208 752 
Q 1469 391 1925 391 
Q 2381 391 2643 752 
Q 2906 1113 2906 1747 
Q 2906 2381 2643 2742 
Q 2381 3103 1925 3103 
Q 1469 3103 1208 2742 
Q 947 2381 947 1747 
z
" id="DejaVuSans-64" transform="scale(0.015625)"/>
       <path d="M 1959 3097 
Q 1497 3097 1228 2736 
Q 959 2375 959 1747 
Q 959 1119 1226 758 
Q 1494 397 1959 397 
Q 2419 397 2687 759 
Q 2956 1122 2956 1747 
Q 2956 2369 2687 2733 
Q 2419 3097 1959 3097 
z
M 1959 3584 
Q 2709 3584 3137 3096 
Q 3566 2609 3566 1747 
Q 3566 888 3137 398 
Q 2709 -91 1959 -91 
Q 1206 -91 779 398 
Q 353 888 353 1747 
Q 353 2609 779 3096 
Q 1206 3584 1959 3584 
z
" id="DejaVuSans-6f" transform="scale(0.015625)"/>
       <path d="M 2834 3397 
L 2834 2853 
Q 2591 2978 2328 3040 
Q 2066 3103 1784 3103 
Q 1356 3103 1142 2972 
Q 928 2841 928 2578 
Q 928 2378 1081 2264 
Q 1234 2150 1697 2047 
L 1894 2003 
Q 2506 1872 2764 1633 
Q 3022 1394 3022 966 
Q 3022 478 2636 193 
Q 2250 -91 1575 -91 
Q 1294 -91 989 -36 
Q 684 19 347 128 
L 347 722 
Q 666 556 975 473 
Q 1284 391 1588 391 
Q 1994 391 2212 530 
Q 2431 669 2431 922 
Q 2431 1156 2273 1281 
Q 2116 1406 1581 1522 
L 1381 1569 
Q 847 1681 609 1914 
Q 372 2147 372 2553 
Q 372 3047 722 3315 
Q 1072 3584 1716 3584 
Q 2034 3584 2315 3537 
Q 2597 3491 2834 3397 
z
" id="DejaVuSans-73" transform="scale(0.015625)"/>
       <path d="M 1984 4856 
Q 1566 4138 1362 3434 
Q 1159 2731 1159 2009 
Q 1159 1288 1364 580 
Q 1569 -128 1984 -844 
L 1484 -844 
Q 1016 -109 783 600 
Q 550 1309 550 2009 
Q 550 2706 781 3412 
Q 1013 4119 1484 4856 
L 1984 4856 
z
" id="DejaVuSans-28" transform="scale(0.015625)"/>
       <path d="M 3513 2113 
L 3513 0 
L 2938 0 
L 2938 2094 
Q 2938 2591 2744 2837 
Q 2550 3084 2163 3084 
Q 1697 3084 1428 2787 
Q 1159 2491 1159 1978 
L 1159 0 
L 581 0 
L 581 3500 
L 1159 3500 
L 1159 2956 
Q 1366 3272 1645 3428 
Q 1925 3584 2291 3584 
Q 2894 3584 3203 3211 
Q 3513 2838 3513 2113 
z
" id="DejaVuSans-6e" transform="scale(0.015625)"/>
       <path d="M 513 4856 
L 1013 4856 
Q 1481 4119 1714 3412 
Q 1947 2706 1947 2009 
Q 1947 1309 1714 600 
Q 1481 -109 1013 -844 
L 513 -844 
Q 928 -128 1133 580 
Q 1338 1288 1338 2009 
Q 1338 2731 1133 3434 
Q 928 4138 513 4856 
z
" id="DejaVuSans-29" transform="scale(0.015625)"/>
      </defs>
      <use xlink:href="#DejaVuSans-43"/>
      <use x="69.824219" xlink:href="#DejaVuSans-75"/>
      <use x="133.203125" xlink:href="#DejaVuSans-6d"/>
      <use x="230.615234" xlink:href="#DejaVuSans-75"/>
      <use x="293.994141" xlink:href="#DejaVuSans-6c"/>
      <use x="321.777344" xlink:href="#DejaVuSans-61"/>
      <use x="383.056641" xlink:href="#DejaVuSans-74"/>
      <use x="422.265625" xlink:href="#DejaVuSans-69"/>
      <use x="450.048828" xlink:href="#DejaVuSans-76"/>
      <use x="509.228516" xlink:href="#DejaVuSans-65"/>
      <use x="570.751953" xlink:href="#DejaVuSans-20"/>
      <use x="602.539062" xlink:href="#DejaVuSans-64"/>
      <use x="666.015625" xlink:href="#DejaVuSans-6f"/>
      <use x="727.197266" xlink:href="#DejaVuSans-73"/>
      <use x="779.296875" xlink:href="#DejaVuSans-65"/>
      <use x="840.820312" xlink:href="#DejaVuSans-73"/>
      <use x="892.919922" xlink:href="#DejaVuSans-20"/>
      <use x="924.707031" xlink:href="#DejaVuSans-28"/>
      <use x="963.720703" xlink:href="#DejaVuSans-6d"/>
      <use x="1061.132812" xlink:href="#DejaVuSans-69"/>
      <use x="1088.916016" xlink:href="#DejaVuSans-6c"/>
      <use x="1116.699219" xlink:href="#DejaVuSans-6c"/>
      <use x="1144.482422" xlink:href="#DejaVuSans-69"/>
      <use x="1172.265625" xlink:href="#DejaVuSans-6f"/>
      <use x="1233.447266" xlink:href="#DejaVuSans-6e"/>
      <use x="1296.826172" xlink:href="#DejaVuSans-73"/>
      <use x="1348.925781" xlink:href="#DejaVuSans-29"/>
     </g>
    </g>
   </g>
   <g id="patch_3">
    <path d="M 72 384.48 
L 72 51.84 
" style="fill:none;stroke:#000000;stroke-linecap:square;stroke-linejoin:miter;stroke-width:0.8;"/>
   </g>
   <g id="patch_4">
    <path d="M 518.4 384.48 
L 518.4 51.84 
" style="fill:none;stroke:#000000;stroke-linecap:square;stroke-linejoin:miter;stroke-width:0.8;"/>
   </g>
   <g id="patch_5">
    <path d="M 72 384.48 
L 518.4 384.48 
" style="fill:none;stroke:#000000;stroke-linecap:square;stroke-linejoin:miter;stroke-width:0.8;"/>
   </g>
   <g id="patch_6">
    <path d="M 72 51.84 
L 518.4 51.84 
" style="fill:none;stroke:#000000;stroke-linecap:square;stroke-linejoin:miter;stroke-width:0.8;"/>
   </g>
   <g id="text_10">
    <!-- AUS cumulative doses. Total to date: 1.65M -->
    <g transform="translate(164.646562 45.84)scale(0.12 -0.12)">
     <defs>
      <path d="M 556 4666 
L 1191 4666 
L 1191 1831 
Q 1191 1081 1462 751 
Q 1734 422 2344 422 
Q 2950 422 3222 751 
Q 3494 1081 3494 1831 
L 3494 4666 
L 4128 4666 
L 4128 1753 
Q 4128 841 3676 375 
Q 3225 -91 2344 -91 
Q 1459 -91 1007 375 
Q 556 841 556 1753 
L 556 4666 
z
" id="DejaVuSans-55" transform="scale(0.015625)"/>
      <path d="M 3425 4513 
L 3425 3897 
Q 3066 4069 2747 4153 
Q 2428 4238 2131 4238 
Q 1616 4238 1336 4038 
Q 1056 3838 1056 3469 
Q 1056 3159 1242 3001 
Q 1428 2844 1947 2747 
L 2328 2669 
Q 3034 2534 3370 2195 
Q 3706 1856 3706 1288 
Q 3706 609 3251 259 
Q 2797 -91 1919 -91 
Q 1588 -91 1214 -16 
Q 841 59 441 206 
L 441 856 
Q 825 641 1194 531 
Q 1563 422 1919 422 
Q 2459 422 2753 634 
Q 3047 847 3047 1241 
Q 3047 1584 2836 1778 
Q 2625 1972 2144 2069 
L 1759 2144 
Q 1053 2284 737 2584 
Q 422 2884 422 3419 
Q 422 4038 858 4394 
Q 1294 4750 2059 4750 
Q 2388 4750 2728 4690 
Q 3069 4631 3425 4513 
z
" id="DejaVuSans-53" transform="scale(0.015625)"/>
      <path d="M 3122 3366 
L 3122 2828 
Q 2878 2963 2633 3030 
Q 2388 3097 2138 3097 
Q 1578 3097 1268 2742 
Q 959 2388 959 1747 
Q 959 1106 1268 751 
Q 1578 397 2138 397 
Q 2388 397 2633 464 
Q 2878 531 3122 666 
L 3122 134 
Q 2881 22 2623 -34 
Q 2366 -91 2075 -91 
Q 1284 -91 818 406 
Q 353 903 353 1747 
Q 353 2603 823 3093 
Q 1294 3584 2113 3584 
Q 2378 3584 2631 3529 
Q 2884 3475 3122 3366 
z
" id="DejaVuSans-63" transform="scale(0.015625)"/>
      <path d="M 684 794 
L 1344 794 
L 1344 0 
L 684 0 
L 684 794 
z
" id="DejaVuSans-2e" transform="scale(0.015625)"/>
      <path d="M -19 4666 
L 3928 4666 
L 3928 4134 
L 2272 4134 
L 2272 0 
L 1638 0 
L 1638 4134 
L -19 4134 
L -19 4666 
z
" id="DejaVuSans-54" transform="scale(0.015625)"/>
      <path d="M 750 794 
L 1409 794 
L 1409 0 
L 750 0 
L 750 794 
z
M 750 3309 
L 1409 3309 
L 1409 2516 
L 750 2516 
L 750 3309 
z
" id="DejaVuSans-3a" transform="scale(0.015625)"/>
      <path d="M 2113 2584 
Q 1688 2584 1439 2293 
Q 1191 2003 1191 1497 
Q 1191 994 1439 701 
Q 1688 409 2113 409 
Q 2538 409 2786 701 
Q 3034 994 3034 1497 
Q 3034 2003 2786 2293 
Q 2538 2584 2113 2584 
z
M 3366 4563 
L 3366 3988 
Q 3128 4100 2886 4159 
Q 2644 4219 2406 4219 
Q 1781 4219 1451 3797 
Q 1122 3375 1075 2522 
Q 1259 2794 1537 2939 
Q 1816 3084 2150 3084 
Q 2853 3084 3261 2657 
Q 3669 2231 3669 1497 
Q 3669 778 3244 343 
Q 2819 -91 2113 -91 
Q 1303 -91 875 529 
Q 447 1150 447 2328 
Q 447 3434 972 4092 
Q 1497 4750 2381 4750 
Q 2619 4750 2861 4703 
Q 3103 4656 3366 4563 
z
" id="DejaVuSans-36" transform="scale(0.015625)"/>
      <path d="M 691 4666 
L 3169 4666 
L 3169 4134 
L 1269 4134 
L 1269 2991 
Q 1406 3038 1543 3061 
Q 1681 3084 1819 3084 
Q 2600 3084 3056 2656 
Q 3513 2228 3513 1497 
Q 3513 744 3044 326 
Q 2575 -91 1722 -91 
Q 1428 -91 1123 -41 
Q 819 9 494 109 
L 494 744 
Q 775 591 1075 516 
Q 1375 441 1709 441 
Q 2250 441 2565 725 
Q 2881 1009 2881 1497 
Q 2881 1984 2565 2268 
Q 2250 2553 1709 2553 
Q 1456 2553 1204 2497 
Q 953 2441 691 2322 
L 691 4666 
z
" id="DejaVuSans-35" transform="scale(0.015625)"/>
     </defs>
     <use xlink:href="#DejaVuSans-41"/>
     <use x="68.408203" xlink:href="#DejaVuSans-55"/>
     <use x="141.601562" xlink:href="#DejaVuSans-53"/>
     <use x="205.078125" xlink:href="#DejaVuSans-20"/>
     <use x="236.865234" xlink:href="#DejaVuSans-63"/>
     <use x="291.845703" xlink:href="#DejaVuSans-75"/>
     <use x="355.224609" xlink:href="#DejaVuSans-6d"/>
     <use x="452.636719" xlink:href="#DejaVuSans-75"/>
     <use x="516.015625" xlink:href="#DejaVuSans-6c"/>
     <use x="543.798828" xlink:href="#DejaVuSans-61"/>
     <use x="605.078125" xlink:href="#DejaVuSans-74"/>
     <use x="644.287109" xlink:href="#DejaVuSans-69"/>
     <use x="672.070312" xlink:href="#DejaVuSans-76"/>
     <use x="731.25" xlink:href="#DejaVuSans-65"/>
     <use x="792.773438" xlink:href="#DejaVuSans-20"/>
     <use x="824.560547" xlink:href="#DejaVuSans-64"/>
     <use x="888.037109" xlink:href="#DejaVuSans-6f"/>
     <use x="949.21875" xlink:href="#DejaVuSans-73"/>
     <use x="1001.318359" xlink:href="#DejaVuSans-65"/>
     <use x="1062.841797" xlink:href="#DejaVuSans-73"/>
     <use x="1114.941406" xlink:href="#DejaVuSans-2e"/>
     <use x="1146.728516" xlink:href="#DejaVuSans-20"/>
     <use x="1178.515625" xlink:href="#DejaVuSans-54"/>
     <use x="1222.599609" xlink:href="#DejaVuSans-6f"/>
     <use x="1283.78125" xlink:href="#DejaVuSans-74"/>
     <use x="1322.990234" xlink:href="#DejaVuSans-61"/>
     <use x="1384.269531" xlink:href="#DejaVuSans-6c"/>
     <use x="1412.052734" xlink:href="#DejaVuSans-20"/>
     <use x="1443.839844" xlink:href="#DejaVuSans-74"/>
     <use x="1483.048828" xlink:href="#DejaVuSans-6f"/>
     <use x="1544.230469" xlink:href="#DejaVuSans-20"/>
     <use x="1576.017578" xlink:href="#DejaVuSans-64"/>
     <use x="1639.494141" xlink:href="#DejaVuSans-61"/>
     <use x="1700.773438" xlink:href="#DejaVuSans-74"/>
     <use x="1739.982422" xlink:href="#DejaVuSans-65"/>
     <use x="1801.505859" xlink:href="#DejaVuSans-3a"/>
     <use x="1835.197266" xlink:href="#DejaVuSans-20"/>
     <use x="1866.984375" xlink:href="#DejaVuSans-31"/>
     <use x="1930.607422" xlink:href="#DejaVuSans-2e"/>
     <use x="1962.394531" xlink:href="#DejaVuSans-36"/>
     <use x="2026.017578" xlink:href="#DejaVuSans-35"/>
     <use x="2089.640625" xlink:href="#DejaVuSans-4d"/>
    </g>
   </g>
   <g id="legend_1">
    <g id="patch_7">
     <path d="M 79 147.90875 
L 286.910937 147.90875 
Q 288.910937 147.90875 288.910937 145.90875 
L 288.910937 58.84 
Q 288.910937 56.84 286.910937 56.84 
L 79 56.84 
Q 77 56.84 77 58.84 
L 77 145.90875 
Q 77 147.90875 79 147.90875 
z
" style="fill:#ffffff;opacity:0.8;stroke:#cccccc;stroke-linejoin:miter;"/>
    </g>
    <g id="patch_8">
     <path d="M 81 68.438437 
L 101 68.438437 
L 101 61.438437 
L 81 61.438437 
z
" style="fill:#1f77b4;"/>
    </g>
    <g id="text_11">
     <!-- FED (990.4k) -->
     <g transform="translate(109 68.438437)scale(0.1 -0.1)">
      <defs>
       <path d="M 628 4666 
L 3309 4666 
L 3309 4134 
L 1259 4134 
L 1259 2759 
L 3109 2759 
L 3109 2228 
L 1259 2228 
L 1259 0 
L 628 0 
L 628 4666 
z
" id="DejaVuSans-46" transform="scale(0.015625)"/>
       <path d="M 628 4666 
L 3578 4666 
L 3578 4134 
L 1259 4134 
L 1259 2753 
L 3481 2753 
L 3481 2222 
L 1259 2222 
L 1259 531 
L 3634 531 
L 3634 0 
L 628 0 
L 628 4666 
z
" id="DejaVuSans-45" transform="scale(0.015625)"/>
       <path d="M 1259 4147 
L 1259 519 
L 2022 519 
Q 2988 519 3436 956 
Q 3884 1394 3884 2338 
Q 3884 3275 3436 3711 
Q 2988 4147 2022 4147 
L 1259 4147 
z
M 628 4666 
L 1925 4666 
Q 3281 4666 3915 4102 
Q 4550 3538 4550 2338 
Q 4550 1131 3912 565 
Q 3275 0 1925 0 
L 628 0 
L 628 4666 
z
" id="DejaVuSans-44" transform="scale(0.015625)"/>
       <path d="M 703 97 
L 703 672 
Q 941 559 1184 500 
Q 1428 441 1663 441 
Q 2288 441 2617 861 
Q 2947 1281 2994 2138 
Q 2813 1869 2534 1725 
Q 2256 1581 1919 1581 
Q 1219 1581 811 2004 
Q 403 2428 403 3163 
Q 403 3881 828 4315 
Q 1253 4750 1959 4750 
Q 2769 4750 3195 4129 
Q 3622 3509 3622 2328 
Q 3622 1225 3098 567 
Q 2575 -91 1691 -91 
Q 1453 -91 1209 -44 
Q 966 3 703 97 
z
M 1959 2075 
Q 2384 2075 2632 2365 
Q 2881 2656 2881 3163 
Q 2881 3666 2632 3958 
Q 2384 4250 1959 4250 
Q 1534 4250 1286 3958 
Q 1038 3666 1038 3163 
Q 1038 2656 1286 2365 
Q 1534 2075 1959 2075 
z
" id="DejaVuSans-39" transform="scale(0.015625)"/>
       <path d="M 581 4863 
L 1159 4863 
L 1159 1991 
L 2875 3500 
L 3609 3500 
L 1753 1863 
L 3688 0 
L 2938 0 
L 1159 1709 
L 1159 0 
L 581 0 
L 581 4863 
z
" id="DejaVuSans-6b" transform="scale(0.015625)"/>
      </defs>
      <use xlink:href="#DejaVuSans-46"/>
      <use x="57.519531" xlink:href="#DejaVuSans-45"/>
      <use x="120.703125" xlink:href="#DejaVuSans-44"/>
      <use x="197.705078" xlink:href="#DejaVuSans-20"/>
      <use x="229.492188" xlink:href="#DejaVuSans-28"/>
      <use x="268.505859" xlink:href="#DejaVuSans-39"/>
      <use x="332.128906" xlink:href="#DejaVuSans-39"/>
      <use x="395.751953" xlink:href="#DejaVuSans-30"/>
      <use x="459.375" xlink:href="#DejaVuSans-2e"/>
      <use x="491.162109" xlink:href="#DejaVuSans-34"/>
      <use x="554.785156" xlink:href="#DejaVuSans-6b"/>
      <use x="612.695312" xlink:href="#DejaVuSans-29"/>
     </g>
    </g>
    <g id="patch_9">
     <path d="M 81 83.116562 
L 101 83.116562 
L 101 76.116562 
L 81 76.116562 
z
" style="fill:#ff7f0e;"/>
    </g>
    <g id="text_12">
     <!-- NSW (177.7k) -->
     <g transform="translate(109 83.116562)scale(0.1 -0.1)">
      <defs>
       <path d="M 628 4666 
L 1478 4666 
L 3547 763 
L 3547 4666 
L 4159 4666 
L 4159 0 
L 3309 0 
L 1241 3903 
L 1241 0 
L 628 0 
L 628 4666 
z
" id="DejaVuSans-4e" transform="scale(0.015625)"/>
       <path d="M 213 4666 
L 850 4666 
L 1831 722 
L 2809 4666 
L 3519 4666 
L 4500 722 
L 5478 4666 
L 6119 4666 
L 4947 0 
L 4153 0 
L 3169 4050 
L 2175 0 
L 1381 0 
L 213 4666 
z
" id="DejaVuSans-57" transform="scale(0.015625)"/>
       <path d="M 525 4666 
L 3525 4666 
L 3525 4397 
L 1831 0 
L 1172 0 
L 2766 4134 
L 525 4134 
L 525 4666 
z
" id="DejaVuSans-37" transform="scale(0.015625)"/>
      </defs>
      <use xlink:href="#DejaVuSans-4e"/>
      <use x="74.804688" xlink:href="#DejaVuSans-53"/>
      <use x="138.28125" xlink:href="#DejaVuSans-57"/>
      <use x="237.158203" xlink:href="#DejaVuSans-20"/>
      <use x="268.945312" xlink:href="#DejaVuSans-28"/>
      <use x="307.958984" xlink:href="#DejaVuSans-31"/>
      <use x="371.582031" xlink:href="#DejaVuSans-37"/>
      <use x="435.205078" xlink:href="#DejaVuSans-37"/>
      <use x="498.828125" xlink:href="#DejaVuSans-2e"/>
      <use x="530.615234" xlink:href="#DejaVuSans-37"/>
      <use x="594.238281" xlink:href="#DejaVuSans-6b"/>
      <use x="652.148438" xlink:href="#DejaVuSans-29"/>
     </g>
    </g>
    <g id="patch_10">
     <path d="M 81 97.794687 
L 101 97.794687 
L 101 90.794687 
L 81 90.794687 
z
" style="fill:#2ca02c;"/>
    </g>
    <g id="text_13">
     <!-- VIC (168.2k) -->
     <g transform="translate(109 97.794687)scale(0.1 -0.1)">
      <defs>
       <path d="M 1831 0 
L 50 4666 
L 709 4666 
L 2188 738 
L 3669 4666 
L 4325 4666 
L 2547 0 
L 1831 0 
z
" id="DejaVuSans-56" transform="scale(0.015625)"/>
       <path d="M 628 4666 
L 1259 4666 
L 1259 0 
L 628 0 
L 628 4666 
z
" id="DejaVuSans-49" transform="scale(0.015625)"/>
       <path d="M 2034 2216 
Q 1584 2216 1326 1975 
Q 1069 1734 1069 1313 
Q 1069 891 1326 650 
Q 1584 409 2034 409 
Q 2484 409 2743 651 
Q 3003 894 3003 1313 
Q 3003 1734 2745 1975 
Q 2488 2216 2034 2216 
z
M 1403 2484 
Q 997 2584 770 2862 
Q 544 3141 544 3541 
Q 544 4100 942 4425 
Q 1341 4750 2034 4750 
Q 2731 4750 3128 4425 
Q 3525 4100 3525 3541 
Q 3525 3141 3298 2862 
Q 3072 2584 2669 2484 
Q 3125 2378 3379 2068 
Q 3634 1759 3634 1313 
Q 3634 634 3220 271 
Q 2806 -91 2034 -91 
Q 1263 -91 848 271 
Q 434 634 434 1313 
Q 434 1759 690 2068 
Q 947 2378 1403 2484 
z
M 1172 3481 
Q 1172 3119 1398 2916 
Q 1625 2713 2034 2713 
Q 2441 2713 2670 2916 
Q 2900 3119 2900 3481 
Q 2900 3844 2670 4047 
Q 2441 4250 2034 4250 
Q 1625 4250 1398 4047 
Q 1172 3844 1172 3481 
z
" id="DejaVuSans-38" transform="scale(0.015625)"/>
      </defs>
      <use xlink:href="#DejaVuSans-56"/>
      <use x="68.408203" xlink:href="#DejaVuSans-49"/>
      <use x="97.900391" xlink:href="#DejaVuSans-43"/>
      <use x="167.724609" xlink:href="#DejaVuSans-20"/>
      <use x="199.511719" xlink:href="#DejaVuSans-28"/>
      <use x="238.525391" xlink:href="#DejaVuSans-31"/>
      <use x="302.148438" xlink:href="#DejaVuSans-36"/>
      <use x="365.771484" xlink:href="#DejaVuSans-38"/>
      <use x="429.394531" xlink:href="#DejaVuSans-2e"/>
      <use x="461.181641" xlink:href="#DejaVuSans-32"/>
      <use x="524.804688" xlink:href="#DejaVuSans-6b"/>
      <use x="582.714844" xlink:href="#DejaVuSans-29"/>
     </g>
    </g>
    <g id="patch_11">
     <path d="M 81 112.472812 
L 101 112.472812 
L 101 105.472812 
L 81 105.472812 
z
" style="fill:#d62728;"/>
    </g>
    <g id="text_14">
     <!-- QLD (126.0k) -->
     <g transform="translate(109 112.472812)scale(0.1 -0.1)">
      <defs>
       <path d="M 2522 4238 
Q 1834 4238 1429 3725 
Q 1025 3213 1025 2328 
Q 1025 1447 1429 934 
Q 1834 422 2522 422 
Q 3209 422 3611 934 
Q 4013 1447 4013 2328 
Q 4013 3213 3611 3725 
Q 3209 4238 2522 4238 
z
M 3406 84 
L 4238 -825 
L 3475 -825 
L 2784 -78 
Q 2681 -84 2626 -87 
Q 2572 -91 2522 -91 
Q 1538 -91 948 567 
Q 359 1225 359 2328 
Q 359 3434 948 4092 
Q 1538 4750 2522 4750 
Q 3503 4750 4090 4092 
Q 4678 3434 4678 2328 
Q 4678 1516 4351 937 
Q 4025 359 3406 84 
z
" id="DejaVuSans-51" transform="scale(0.015625)"/>
       <path d="M 628 4666 
L 1259 4666 
L 1259 531 
L 3531 531 
L 3531 0 
L 628 0 
L 628 4666 
z
" id="DejaVuSans-4c" transform="scale(0.015625)"/>
      </defs>
      <use xlink:href="#DejaVuSans-51"/>
      <use x="78.710938" xlink:href="#DejaVuSans-4c"/>
      <use x="134.423828" xlink:href="#DejaVuSans-44"/>
      <use x="211.425781" xlink:href="#DejaVuSans-20"/>
      <use x="243.212891" xlink:href="#DejaVuSans-28"/>
      <use x="282.226562" xlink:href="#DejaVuSans-31"/>
      <use x="345.849609" xlink:href="#DejaVuSans-32"/>
      <use x="409.472656" xlink:href="#DejaVuSans-36"/>
      <use x="473.095703" xlink:href="#DejaVuSans-2e"/>
      <use x="504.882812" xlink:href="#DejaVuSans-30"/>
      <use x="568.505859" xlink:href="#DejaVuSans-6b"/>
      <use x="626.416016" xlink:href="#DejaVuSans-29"/>
     </g>
    </g>
    <g id="patch_12">
     <path d="M 81 127.150937 
L 101 127.150937 
L 101 120.150937 
L 81 120.150937 
z
" style="fill:#9467bd;"/>
    </g>
    <g id="text_15">
     <!-- WA (78.2k) -->
     <g transform="translate(109 127.150937)scale(0.1 -0.1)">
      <use xlink:href="#DejaVuSans-57"/>
      <use x="93.376953" xlink:href="#DejaVuSans-41"/>
      <use x="161.785156" xlink:href="#DejaVuSans-20"/>
      <use x="193.572266" xlink:href="#DejaVuSans-28"/>
      <use x="232.585938" xlink:href="#DejaVuSans-37"/>
      <use x="296.208984" xlink:href="#DejaVuSans-38"/>
      <use x="359.832031" xlink:href="#DejaVuSans-2e"/>
      <use x="391.619141" xlink:href="#DejaVuSans-32"/>
      <use x="455.242188" xlink:href="#DejaVuSans-6b"/>
      <use x="513.152344" xlink:href="#DejaVuSans-29"/>
     </g>
    </g>
    <g id="patch_13">
     <path d="M 81 141.829062 
L 101 141.829062 
L 101 134.829062 
L 81 134.829062 
z
" style="fill:#8c564b;"/>
    </g>
    <g id="text_16">
     <!-- SA (48.1k) -->
     <g transform="translate(109 141.829062)scale(0.1 -0.1)">
      <use xlink:href="#DejaVuSans-53"/>
      <use x="65.351562" xlink:href="#DejaVuSans-41"/>
      <use x="133.759766" xlink:href="#DejaVuSans-20"/>
      <use x="165.546875" xlink:href="#DejaVuSans-28"/>
      <use x="204.560547" xlink:href="#DejaVuSans-34"/>
      <use x="268.183594" xlink:href="#DejaVuSans-38"/>
      <use x="331.806641" xlink:href="#DejaVuSans-2e"/>
      <use x="363.59375" xlink:href="#DejaVuSans-31"/>
      <use x="427.216797" xlink:href="#DejaVuSans-6b"/>
      <use x="485.126953" xlink:href="#DejaVuSans-29"/>
     </g>
    </g>
    <g id="patch_14">
     <path d="M 198.117188 68.438437 
L 218.117188 68.438437 
L 218.117188 61.438437 
L 198.117188 61.438437 
z
" style="fill:#e377c2;"/>
    </g>
    <g id="text_17">
     <!-- TAS (29.4k) -->
     <g transform="translate(226.117188 68.438437)scale(0.1 -0.1)">
      <use xlink:href="#DejaVuSans-54"/>
      <use x="53.333984" xlink:href="#DejaVuSans-41"/>
      <use x="121.742188" xlink:href="#DejaVuSans-53"/>
      <use x="185.21875" xlink:href="#DejaVuSans-20"/>
      <use x="217.005859" xlink:href="#DejaVuSans-28"/>
      <use x="256.019531" xlink:href="#DejaVuSans-32"/>
      <use x="319.642578" xlink:href="#DejaVuSans-39"/>
      <use x="383.265625" xlink:href="#DejaVuSans-2e"/>
      <use x="415.052734" xlink:href="#DejaVuSans-34"/>
      <use x="478.675781" xlink:href="#DejaVuSans-6b"/>
      <use x="536.585938" xlink:href="#DejaVuSans-29"/>
     </g>
    </g>
    <g id="patch_15">
     <path d="M 198.117188 83.116562 
L 218.117188 83.116562 
L 218.117188 76.116562 
L 198.117188 76.116562 
z
" style="fill:#7f7f7f;"/>
    </g>
    <g id="text_18">
     <!-- ACT (22.1k) -->
     <g transform="translate(226.117188 83.116562)scale(0.1 -0.1)">
      <use xlink:href="#DejaVuSans-41"/>
      <use x="66.658203" xlink:href="#DejaVuSans-43"/>
      <use x="136.482422" xlink:href="#DejaVuSans-54"/>
      <use x="197.566406" xlink:href="#DejaVuSans-20"/>
      <use x="229.353516" xlink:href="#DejaVuSans-28"/>
      <use x="268.367188" xlink:href="#DejaVuSans-32"/>
      <use x="331.990234" xlink:href="#DejaVuSans-32"/>
      <use x="395.613281" xlink:href="#DejaVuSans-2e"/>
      <use x="427.400391" xlink:href="#DejaVuSans-31"/>
      <use x="491.023438" xlink:href="#DejaVuSans-6b"/>
      <use x="548.933594" xlink:href="#DejaVuSans-29"/>
     </g>
    </g>
    <g id="patch_16">
     <path d="M 198.117188 97.794687 
L 218.117188 97.794687 
L 218.117188 90.794687 
L 198.117188 90.794687 
z
" style="fill:#bcbd22;"/>
    </g>
    <g id="text_19">
     <!-- NT (13.1k) -->
     <g transform="translate(226.117188 97.794687)scale(0.1 -0.1)">
      <use xlink:href="#DejaVuSans-4e"/>
      <use x="74.804688" xlink:href="#DejaVuSans-54"/>
      <use x="135.888672" xlink:href="#DejaVuSans-20"/>
      <use x="167.675781" xlink:href="#DejaVuSans-28"/>
      <use x="206.689453" xlink:href="#DejaVuSans-31"/>
      <use x="270.3125" xlink:href="#DejaVuSans-33"/>
      <use x="333.935547" xlink:href="#DejaVuSans-2e"/>
      <use x="365.722656" xlink:href="#DejaVuSans-31"/>
      <use x="429.345703" xlink:href="#DejaVuSans-6b"/>
      <use x="487.255859" xlink:href="#DejaVuSans-29"/>
     </g>
    </g>
    <g id="patch_17">
     <path d="M 198.117188 112.472812 
L 218.117188 112.472812 
L 218.117188 105.472812 
L 198.117188 105.472812 
z
" style="fill:#00ffff;opacity:0.5;"/>
    </g>
    <g id="text_20">
     <!-- Projected -->
     <g transform="translate(226.117188 112.472812)scale(0.1 -0.1)">
      <defs>
       <path d="M 1259 4147 
L 1259 2394 
L 2053 2394 
Q 2494 2394 2734 2622 
Q 2975 2850 2975 3272 
Q 2975 3691 2734 3919 
Q 2494 4147 2053 4147 
L 1259 4147 
z
M 628 4666 
L 2053 4666 
Q 2838 4666 3239 4311 
Q 3641 3956 3641 3272 
Q 3641 2581 3239 2228 
Q 2838 1875 2053 1875 
L 1259 1875 
L 1259 0 
L 628 0 
L 628 4666 
z
" id="DejaVuSans-50" transform="scale(0.015625)"/>
       <path d="M 603 3500 
L 1178 3500 
L 1178 -63 
Q 1178 -731 923 -1031 
Q 669 -1331 103 -1331 
L -116 -1331 
L -116 -844 
L 38 -844 
Q 366 -844 484 -692 
Q 603 -541 603 -63 
L 603 3500 
z
M 603 4863 
L 1178 4863 
L 1178 4134 
L 603 4134 
L 603 4863 
z
" id="DejaVuSans-6a" transform="scale(0.015625)"/>
      </defs>
      <use xlink:href="#DejaVuSans-50"/>
      <use x="58.552734" xlink:href="#DejaVuSans-72"/>
      <use x="97.416016" xlink:href="#DejaVuSans-6f"/>
      <use x="158.597656" xlink:href="#DejaVuSans-6a"/>
      <use x="186.380859" xlink:href="#DejaVuSans-65"/>
      <use x="247.904297" xlink:href="#DejaVuSans-63"/>
      <use x="302.884766" xlink:href="#DejaVuSans-74"/>
      <use x="342.09375" xlink:href="#DejaVuSans-65"/>
      <use x="403.617188" xlink:href="#DejaVuSans-64"/>
     </g>
    </g>
    <g id="patch_18">
     <path d="M 198.117188 127.150937 
L 218.117188 127.150937 
L 218.117188 120.150937 
L 198.117188 120.150937 
z
" style="fill:#ff0000;opacity:0.5;"/>
    </g>
    <g id="text_21">
     <!-- Phase 1a -->
     <g transform="translate(226.117188 127.150937)scale(0.1 -0.1)">
      <defs>
       <path d="M 3513 2113 
L 3513 0 
L 2938 0 
L 2938 2094 
Q 2938 2591 2744 2837 
Q 2550 3084 2163 3084 
Q 1697 3084 1428 2787 
Q 1159 2491 1159 1978 
L 1159 0 
L 581 0 
L 581 4863 
L 1159 4863 
L 1159 2956 
Q 1366 3272 1645 3428 
Q 1925 3584 2291 3584 
Q 2894 3584 3203 3211 
Q 3513 2838 3513 2113 
z
" id="DejaVuSans-68" transform="scale(0.015625)"/>
      </defs>
      <use xlink:href="#DejaVuSans-50"/>
      <use x="60.302734" xlink:href="#DejaVuSans-68"/>
      <use x="123.681641" xlink:href="#DejaVuSans-61"/>
      <use x="184.960938" xlink:href="#DejaVuSans-73"/>
      <use x="237.060547" xlink:href="#DejaVuSans-65"/>
      <use x="298.583984" xlink:href="#DejaVuSans-20"/>
      <use x="330.371094" xlink:href="#DejaVuSans-31"/>
      <use x="393.994141" xlink:href="#DejaVuSans-61"/>
     </g>
    </g>
    <g id="patch_19">
     <path d="M 198.117188 141.829062 
L 218.117188 141.829062 
L 218.117188 134.829062 
L 198.117188 134.829062 
z
" style="fill:#ffa500;opacity:0.5;"/>
    </g>
    <g id="text_22">
     <!-- Phase 1b -->
     <g transform="translate(226.117188 141.829062)scale(0.1 -0.1)">
      <defs>
       <path d="M 3116 1747 
Q 3116 2381 2855 2742 
Q 2594 3103 2138 3103 
Q 1681 3103 1420 2742 
Q 1159 2381 1159 1747 
Q 1159 1113 1420 752 
Q 1681 391 2138 391 
Q 2594 391 2855 752 
Q 3116 1113 3116 1747 
z
M 1159 2969 
Q 1341 3281 1617 3432 
Q 1894 3584 2278 3584 
Q 2916 3584 3314 3078 
Q 3713 2572 3713 1747 
Q 3713 922 3314 415 
Q 2916 -91 2278 -91 
Q 1894 -91 1617 61 
Q 1341 213 1159 525 
L 1159 0 
L 581 0 
L 581 4863 
L 1159 4863 
L 1159 2969 
z
" id="DejaVuSans-62" transform="scale(0.015625)"/>
      </defs>
      <use xlink:href="#DejaVuSans-50"/>
      <use x="60.302734" xlink:href="#DejaVuSans-68"/>
      <use x="123.681641" xlink:href="#DejaVuSans-61"/>
      <use x="184.960938" xlink:href="#DejaVuSans-73"/>
      <use x="237.060547" xlink:href="#DejaVuSans-65"/>
      <use x="298.583984" xlink:href="#DejaVuSans-20"/>
      <use x="330.371094" xlink:href="#DejaVuSans-31"/>
      <use x="393.994141" xlink:href="#DejaVuSans-62"/>
     </g>
    </g>
   </g>
  </g>
 </g>
 <defs>
  <clipPath id="p7b3b23d0d4">
   <rect height="332.64" width="446.4" x="72" y="51.84"/>
  </clipPath>
 </defs>
</svg>
