<?xml version="1.0" encoding="utf-8" standalone="no"?>
<!DOCTYPE svg PUBLIC "-//W3C//DTD SVG 1.1//EN"
  "http://www.w3.org/Graphics/SVG/1.1/DTD/svg11.dtd">
<svg height="432pt" version="1.1" viewBox="0 0 576 432" width="576pt" xmlns="http://www.w3.org/2000/svg" xmlns:xlink="http://www.w3.org/1999/xlink">
 <metadata>
  <rdf:RDF xmlns:cc="http://creativecommons.org/ns#" xmlns:dc="http://purl.org/dc/elements/1.1/" xmlns:rdf="http://www.w3.org/1999/02/22-rdf-syntax-ns#">
   <cc:Work>
    <dc:type rdf:resource="http://purl.org/dc/dcmitype/StillImage"/>
    <dc:date>2021-04-07T15:54:01.575465</dc:date>
    <dc:format>image/svg+xml</dc:format>
    <dc:creator>
     <cc:Agent>
      <dc:title>Matplotlib v3.4.1, https://matplotlib.org/</dc:title>
     </cc:Agent>
    </dc:creator>
   </cc:Work>
  </rdf:RDF>
 </metadata>
 <defs>
  <style type="text/css">*{stroke-linecap:butt;stroke-linejoin:round;}</style>
 </defs>
 <g id="figure_1">
  <g id="patch_1">
   <path d="M 0 432 
L 576 432 
L 576 0 
L 0 0 
z
" style="fill:#ffffff;"/>
  </g>
  <g id="axes_1">
   <g id="patch_2">
    <path d="M 72 384.48 
L 518.4 384.48 
L 518.4 51.84 
L 72 51.84 
z
" style="fill:#ffffff;"/>
   </g>
   <g id="PolyCollection_1">
    <path clip-path="url(#p69dc8bfadb)" d="M 120.404819 384.48 
L 70.207229 384.48 
L 70.207229 -1663199615.52 
L 120.404819 -1663199615.52 
L 120.404819 -1663199615.52 
L 120.404819 384.48 
z
" style="fill:#ff0000;fill-opacity:0.5;"/>
   </g>
   <g id="PolyCollection_2">
    <path clip-path="url(#p69dc8bfadb)" d="M 202.872289 384.48 
L 120.404819 384.48 
L 120.404819 -1663199615.52 
L 202.872289 -1663199615.52 
L 202.872289 -1663199615.52 
L 202.872289 384.48 
z
" style="fill:#ffa500;fill-opacity:0.5;"/>
   </g>
   <g id="PolyCollection_3">
    <path clip-path="url(#p69dc8bfadb)" d="M 204.66506 384.48 
L 202.872289 384.48 
L 202.872289 -1663199615.52 
L 204.66506 -1663199615.52 
L 204.66506 -1663199615.52 
L 204.66506 384.48 
z
" style="fill:#ffa500;fill-opacity:0.5;"/>
   </g>
   <g id="PolyCollection_4">
    <path clip-path="url(#p69dc8bfadb)" d="M 206.457831 384.48 
L 204.66506 384.48 
L 204.66506 -1663199615.52 
L 206.457831 -1663199615.52 
L 206.457831 -1663199615.52 
L 206.457831 384.48 
z
" style="fill:#ffa500;fill-opacity:0.45;"/>
   </g>
   <g id="PolyCollection_5">
    <path clip-path="url(#p69dc8bfadb)" d="M 208.250602 384.48 
L 206.457831 384.48 
L 206.457831 -1663199615.52 
L 208.250602 -1663199615.52 
L 208.250602 -1663199615.52 
L 208.250602 384.48 
z
" style="fill:#ffa500;fill-opacity:0.4;"/>
   </g>
   <g id="PolyCollection_6">
    <path clip-path="url(#p69dc8bfadb)" d="M 210.043373 384.48 
L 208.250602 384.48 
L 208.250602 -1663199615.52 
L 210.043373 -1663199615.52 
L 210.043373 -1663199615.52 
L 210.043373 384.48 
z
" style="fill:#ffa500;fill-opacity:0.35;"/>
   </g>
   <g id="PolyCollection_7">
    <path clip-path="url(#p69dc8bfadb)" d="M 211.836145 384.48 
L 210.043373 384.48 
L 210.043373 -1663199615.52 
L 211.836145 -1663199615.52 
L 211.836145 -1663199615.52 
L 211.836145 384.48 
z
" style="fill:#ffa500;fill-opacity:0.3;"/>
   </g>
   <g id="PolyCollection_8">
    <path clip-path="url(#p69dc8bfadb)" d="M 213.628916 384.48 
L 211.836145 384.48 
L 211.836145 -1663199615.52 
L 213.628916 -1663199615.52 
L 213.628916 -1663199615.52 
L 213.628916 384.48 
z
" style="fill:#ffa500;fill-opacity:0.25;"/>
   </g>
   <g id="PolyCollection_9">
    <path clip-path="url(#p69dc8bfadb)" d="M 215.421687 384.48 
L 213.628916 384.48 
L 213.628916 -1663199615.52 
L 215.421687 -1663199615.52 
L 215.421687 -1663199615.52 
L 215.421687 384.48 
z
" style="fill:#ffa500;fill-opacity:0.2;"/>
   </g>
   <g id="PolyCollection_10">
    <path clip-path="url(#p69dc8bfadb)" d="M 217.214458 384.48 
L 215.421687 384.48 
L 215.421687 -1663199615.52 
L 217.214458 -1663199615.52 
L 217.214458 -1663199615.52 
L 217.214458 384.48 
z
" style="fill:#ffa500;fill-opacity:0.15;"/>
   </g>
   <g id="PolyCollection_11">
    <path clip-path="url(#p69dc8bfadb)" d="M 219.007229 384.48 
L 217.214458 384.48 
L 217.214458 -1663199615.52 
L 219.007229 -1663199615.52 
L 219.007229 -1663199615.52 
L 219.007229 384.48 
z
" style="fill:#ffa500;fill-opacity:0.1;"/>
   </g>
   <g id="PolyCollection_12">
    <path clip-path="url(#p69dc8bfadb)" d="M 220.8 384.48 
L 219.007229 384.48 
L 219.007229 -1663199615.52 
L 220.8 -1663199615.52 
L 220.8 -1663199615.52 
L 220.8 384.48 
z
" style="fill:#ffa500;fill-opacity:0.05;"/>
   </g>
   <g id="matplotlib.axis_1">
    <g id="xtick_1">
     <g id="line2d_1">
      <path clip-path="url(#p69dc8bfadb)" d="M 82.756627 384.48 
L 82.756627 51.84 
" style="fill:none;stroke:#000000;stroke-dasharray:0.8,1.32;stroke-dashoffset:0;stroke-width:0.8;"/>
     </g>
     <g id="line2d_2">
      <defs>
       <path d="M 0 0 
L 0 3.5 
" id="m56a65d13f2" style="stroke:#000000;stroke-width:0.8;"/>
      </defs>
      <g>
       <use style="stroke:#000000;stroke-width:0.8;" x="82.756627" xlink:href="#m56a65d13f2" y="384.48"/>
      </g>
     </g>
     <g id="text_1">
      <!-- Mar -->
      <g transform="translate(73.323033 399.078438)scale(0.1 -0.1)">
       <defs>
        <path d="M 628 4666 
L 1569 4666 
L 2759 1491 
L 3956 4666 
L 4897 4666 
L 4897 0 
L 4281 0 
L 4281 4097 
L 3078 897 
L 2444 897 
L 1241 4097 
L 1241 0 
L 628 0 
L 628 4666 
z
" id="DejaVuSans-4d" transform="scale(0.015625)"/>
        <path d="M 2194 1759 
Q 1497 1759 1228 1600 
Q 959 1441 959 1056 
Q 959 750 1161 570 
Q 1363 391 1709 391 
Q 2188 391 2477 730 
Q 2766 1069 2766 1631 
L 2766 1759 
L 2194 1759 
z
M 3341 1997 
L 3341 0 
L 2766 0 
L 2766 531 
Q 2569 213 2275 61 
Q 1981 -91 1556 -91 
Q 1019 -91 701 211 
Q 384 513 384 1019 
Q 384 1609 779 1909 
Q 1175 2209 1959 2209 
L 2766 2209 
L 2766 2266 
Q 2766 2663 2505 2880 
Q 2244 3097 1772 3097 
Q 1472 3097 1187 3025 
Q 903 2953 641 2809 
L 641 3341 
Q 956 3463 1253 3523 
Q 1550 3584 1831 3584 
Q 2591 3584 2966 3190 
Q 3341 2797 3341 1997 
z
" id="DejaVuSans-61" transform="scale(0.015625)"/>
        <path d="M 2631 2963 
Q 2534 3019 2420 3045 
Q 2306 3072 2169 3072 
Q 1681 3072 1420 2755 
Q 1159 2438 1159 1844 
L 1159 0 
L 581 0 
L 581 3500 
L 1159 3500 
L 1159 2956 
Q 1341 3275 1631 3429 
Q 1922 3584 2338 3584 
Q 2397 3584 2469 3576 
Q 2541 3569 2628 3553 
L 2631 2963 
z
" id="DejaVuSans-72" transform="scale(0.015625)"/>
       </defs>
       <use xlink:href="#DejaVuSans-4d"/>
       <use x="86.279297" xlink:href="#DejaVuSans-61"/>
       <use x="147.558594" xlink:href="#DejaVuSans-72"/>
      </g>
     </g>
    </g>
    <g id="xtick_2">
     <g id="line2d_3">
      <path clip-path="url(#p69dc8bfadb)" d="M 138.33253 384.48 
L 138.33253 51.84 
" style="fill:none;stroke:#000000;stroke-dasharray:0.8,1.32;stroke-dashoffset:0;stroke-width:0.8;"/>
     </g>
     <g id="line2d_4">
      <g>
       <use style="stroke:#000000;stroke-width:0.8;" x="138.33253" xlink:href="#m56a65d13f2" y="384.48"/>
      </g>
     </g>
     <g id="text_2">
      <!-- Apr -->
      <g transform="translate(129.68253 399.078438)scale(0.1 -0.1)">
       <defs>
        <path d="M 2188 4044 
L 1331 1722 
L 3047 1722 
L 2188 4044 
z
M 1831 4666 
L 2547 4666 
L 4325 0 
L 3669 0 
L 3244 1197 
L 1141 1197 
L 716 0 
L 50 0 
L 1831 4666 
z
" id="DejaVuSans-41" transform="scale(0.015625)"/>
        <path d="M 1159 525 
L 1159 -1331 
L 581 -1331 
L 581 3500 
L 1159 3500 
L 1159 2969 
Q 1341 3281 1617 3432 
Q 1894 3584 2278 3584 
Q 2916 3584 3314 3078 
Q 3713 2572 3713 1747 
Q 3713 922 3314 415 
Q 2916 -91 2278 -91 
Q 1894 -91 1617 61 
Q 1341 213 1159 525 
z
M 3116 1747 
Q 3116 2381 2855 2742 
Q 2594 3103 2138 3103 
Q 1681 3103 1420 2742 
Q 1159 2381 1159 1747 
Q 1159 1113 1420 752 
Q 1681 391 2138 391 
Q 2594 391 2855 752 
Q 3116 1113 3116 1747 
z
" id="DejaVuSans-70" transform="scale(0.015625)"/>
       </defs>
       <use xlink:href="#DejaVuSans-41"/>
       <use x="68.408203" xlink:href="#DejaVuSans-70"/>
       <use x="131.884766" xlink:href="#DejaVuSans-72"/>
      </g>
     </g>
    </g>
    <g id="xtick_3">
     <g id="line2d_5">
      <path clip-path="url(#p69dc8bfadb)" d="M 192.115663 384.48 
L 192.115663 51.84 
" style="fill:none;stroke:#000000;stroke-dasharray:0.8,1.32;stroke-dashoffset:0;stroke-width:0.8;"/>
     </g>
     <g id="line2d_6">
      <g>
       <use style="stroke:#000000;stroke-width:0.8;" x="192.115663" xlink:href="#m56a65d13f2" y="384.48"/>
      </g>
     </g>
     <g id="text_3">
      <!-- May -->
      <g transform="translate(181.778163 399.078438)scale(0.1 -0.1)">
       <defs>
        <path d="M 2059 -325 
Q 1816 -950 1584 -1140 
Q 1353 -1331 966 -1331 
L 506 -1331 
L 506 -850 
L 844 -850 
Q 1081 -850 1212 -737 
Q 1344 -625 1503 -206 
L 1606 56 
L 191 3500 
L 800 3500 
L 1894 763 
L 2988 3500 
L 3597 3500 
L 2059 -325 
z
" id="DejaVuSans-79" transform="scale(0.015625)"/>
       </defs>
       <use xlink:href="#DejaVuSans-4d"/>
       <use x="86.279297" xlink:href="#DejaVuSans-61"/>
       <use x="147.558594" xlink:href="#DejaVuSans-79"/>
      </g>
     </g>
    </g>
    <g id="xtick_4">
     <g id="line2d_7">
      <path clip-path="url(#p69dc8bfadb)" d="M 247.691566 384.48 
L 247.691566 51.84 
" style="fill:none;stroke:#000000;stroke-dasharray:0.8,1.32;stroke-dashoffset:0;stroke-width:0.8;"/>
     </g>
     <g id="line2d_8">
      <g>
       <use style="stroke:#000000;stroke-width:0.8;" x="247.691566" xlink:href="#m56a65d13f2" y="384.48"/>
      </g>
     </g>
     <g id="text_4">
      <!-- Jun -->
      <g transform="translate(239.879066 399.078438)scale(0.1 -0.1)">
       <defs>
        <path d="M 628 4666 
L 1259 4666 
L 1259 325 
Q 1259 -519 939 -900 
Q 619 -1281 -91 -1281 
L -331 -1281 
L -331 -750 
L -134 -750 
Q 284 -750 456 -515 
Q 628 -281 628 325 
L 628 4666 
z
" id="DejaVuSans-4a" transform="scale(0.015625)"/>
        <path d="M 544 1381 
L 544 3500 
L 1119 3500 
L 1119 1403 
Q 1119 906 1312 657 
Q 1506 409 1894 409 
Q 2359 409 2629 706 
Q 2900 1003 2900 1516 
L 2900 3500 
L 3475 3500 
L 3475 0 
L 2900 0 
L 2900 538 
Q 2691 219 2414 64 
Q 2138 -91 1772 -91 
Q 1169 -91 856 284 
Q 544 659 544 1381 
z
M 1991 3584 
L 1991 3584 
z
" id="DejaVuSans-75" transform="scale(0.015625)"/>
        <path d="M 3513 2113 
L 3513 0 
L 2938 0 
L 2938 2094 
Q 2938 2591 2744 2837 
Q 2550 3084 2163 3084 
Q 1697 3084 1428 2787 
Q 1159 2491 1159 1978 
L 1159 0 
L 581 0 
L 581 3500 
L 1159 3500 
L 1159 2956 
Q 1366 3272 1645 3428 
Q 1925 3584 2291 3584 
Q 2894 3584 3203 3211 
Q 3513 2838 3513 2113 
z
" id="DejaVuSans-6e" transform="scale(0.015625)"/>
       </defs>
       <use xlink:href="#DejaVuSans-4a"/>
       <use x="29.492188" xlink:href="#DejaVuSans-75"/>
       <use x="92.871094" xlink:href="#DejaVuSans-6e"/>
      </g>
     </g>
    </g>
    <g id="xtick_5">
     <g id="line2d_9">
      <path clip-path="url(#p69dc8bfadb)" d="M 301.474699 384.48 
L 301.474699 51.84 
" style="fill:none;stroke:#000000;stroke-dasharray:0.8,1.32;stroke-dashoffset:0;stroke-width:0.8;"/>
     </g>
     <g id="line2d_10">
      <g>
       <use style="stroke:#000000;stroke-width:0.8;" x="301.474699" xlink:href="#m56a65d13f2" y="384.48"/>
      </g>
     </g>
     <g id="text_5">
      <!-- Jul -->
      <g transform="translate(295.441886 399.078438)scale(0.1 -0.1)">
       <defs>
        <path d="M 603 4863 
L 1178 4863 
L 1178 0 
L 603 0 
L 603 4863 
z
" id="DejaVuSans-6c" transform="scale(0.015625)"/>
       </defs>
       <use xlink:href="#DejaVuSans-4a"/>
       <use x="29.492188" xlink:href="#DejaVuSans-75"/>
       <use x="92.871094" xlink:href="#DejaVuSans-6c"/>
      </g>
     </g>
    </g>
    <g id="xtick_6">
     <g id="line2d_11">
      <path clip-path="url(#p69dc8bfadb)" d="M 357.050602 384.48 
L 357.050602 51.84 
" style="fill:none;stroke:#000000;stroke-dasharray:0.8,1.32;stroke-dashoffset:0;stroke-width:0.8;"/>
     </g>
     <g id="line2d_12">
      <g>
       <use style="stroke:#000000;stroke-width:0.8;" x="357.050602" xlink:href="#m56a65d13f2" y="384.48"/>
      </g>
     </g>
     <g id="text_6">
      <!-- Aug -->
      <g transform="translate(347.287321 399.078438)scale(0.1 -0.1)">
       <defs>
        <path d="M 2906 1791 
Q 2906 2416 2648 2759 
Q 2391 3103 1925 3103 
Q 1463 3103 1205 2759 
Q 947 2416 947 1791 
Q 947 1169 1205 825 
Q 1463 481 1925 481 
Q 2391 481 2648 825 
Q 2906 1169 2906 1791 
z
M 3481 434 
Q 3481 -459 3084 -895 
Q 2688 -1331 1869 -1331 
Q 1566 -1331 1297 -1286 
Q 1028 -1241 775 -1147 
L 775 -588 
Q 1028 -725 1275 -790 
Q 1522 -856 1778 -856 
Q 2344 -856 2625 -561 
Q 2906 -266 2906 331 
L 2906 616 
Q 2728 306 2450 153 
Q 2172 0 1784 0 
Q 1141 0 747 490 
Q 353 981 353 1791 
Q 353 2603 747 3093 
Q 1141 3584 1784 3584 
Q 2172 3584 2450 3431 
Q 2728 3278 2906 2969 
L 2906 3500 
L 3481 3500 
L 3481 434 
z
" id="DejaVuSans-67" transform="scale(0.015625)"/>
       </defs>
       <use xlink:href="#DejaVuSans-41"/>
       <use x="68.408203" xlink:href="#DejaVuSans-75"/>
       <use x="131.787109" xlink:href="#DejaVuSans-67"/>
      </g>
     </g>
    </g>
    <g id="xtick_7">
     <g id="line2d_13">
      <path clip-path="url(#p69dc8bfadb)" d="M 412.626506 384.48 
L 412.626506 51.84 
" style="fill:none;stroke:#000000;stroke-dasharray:0.8,1.32;stroke-dashoffset:0;stroke-width:0.8;"/>
     </g>
     <g id="line2d_14">
      <g>
       <use style="stroke:#000000;stroke-width:0.8;" x="412.626506" xlink:href="#m56a65d13f2" y="384.48"/>
      </g>
     </g>
     <g id="text_7">
      <!-- Sep -->
      <g transform="translate(403.201506 399.078438)scale(0.1 -0.1)">
       <defs>
        <path d="M 3425 4513 
L 3425 3897 
Q 3066 4069 2747 4153 
Q 2428 4238 2131 4238 
Q 1616 4238 1336 4038 
Q 1056 3838 1056 3469 
Q 1056 3159 1242 3001 
Q 1428 2844 1947 2747 
L 2328 2669 
Q 3034 2534 3370 2195 
Q 3706 1856 3706 1288 
Q 3706 609 3251 259 
Q 2797 -91 1919 -91 
Q 1588 -91 1214 -16 
Q 841 59 441 206 
L 441 856 
Q 825 641 1194 531 
Q 1563 422 1919 422 
Q 2459 422 2753 634 
Q 3047 847 3047 1241 
Q 3047 1584 2836 1778 
Q 2625 1972 2144 2069 
L 1759 2144 
Q 1053 2284 737 2584 
Q 422 2884 422 3419 
Q 422 4038 858 4394 
Q 1294 4750 2059 4750 
Q 2388 4750 2728 4690 
Q 3069 4631 3425 4513 
z
" id="DejaVuSans-53" transform="scale(0.015625)"/>
        <path d="M 3597 1894 
L 3597 1613 
L 953 1613 
Q 991 1019 1311 708 
Q 1631 397 2203 397 
Q 2534 397 2845 478 
Q 3156 559 3463 722 
L 3463 178 
Q 3153 47 2828 -22 
Q 2503 -91 2169 -91 
Q 1331 -91 842 396 
Q 353 884 353 1716 
Q 353 2575 817 3079 
Q 1281 3584 2069 3584 
Q 2775 3584 3186 3129 
Q 3597 2675 3597 1894 
z
M 3022 2063 
Q 3016 2534 2758 2815 
Q 2500 3097 2075 3097 
Q 1594 3097 1305 2825 
Q 1016 2553 972 2059 
L 3022 2063 
z
" id="DejaVuSans-65" transform="scale(0.015625)"/>
       </defs>
       <use xlink:href="#DejaVuSans-53"/>
       <use x="63.476562" xlink:href="#DejaVuSans-65"/>
       <use x="125" xlink:href="#DejaVuSans-70"/>
      </g>
     </g>
    </g>
    <g id="xtick_8">
     <g id="line2d_15">
      <path clip-path="url(#p69dc8bfadb)" d="M 466.409639 384.48 
L 466.409639 51.84 
" style="fill:none;stroke:#000000;stroke-dasharray:0.8,1.32;stroke-dashoffset:0;stroke-width:0.8;"/>
     </g>
     <g id="line2d_16">
      <g>
       <use style="stroke:#000000;stroke-width:0.8;" x="466.409639" xlink:href="#m56a65d13f2" y="384.48"/>
      </g>
     </g>
     <g id="text_8">
      <!-- Oct -->
      <g transform="translate(457.764326 399.078438)scale(0.1 -0.1)">
       <defs>
        <path d="M 2522 4238 
Q 1834 4238 1429 3725 
Q 1025 3213 1025 2328 
Q 1025 1447 1429 934 
Q 1834 422 2522 422 
Q 3209 422 3611 934 
Q 4013 1447 4013 2328 
Q 4013 3213 3611 3725 
Q 3209 4238 2522 4238 
z
M 2522 4750 
Q 3503 4750 4090 4092 
Q 4678 3434 4678 2328 
Q 4678 1225 4090 567 
Q 3503 -91 2522 -91 
Q 1538 -91 948 565 
Q 359 1222 359 2328 
Q 359 3434 948 4092 
Q 1538 4750 2522 4750 
z
" id="DejaVuSans-4f" transform="scale(0.015625)"/>
        <path d="M 3122 3366 
L 3122 2828 
Q 2878 2963 2633 3030 
Q 2388 3097 2138 3097 
Q 1578 3097 1268 2742 
Q 959 2388 959 1747 
Q 959 1106 1268 751 
Q 1578 397 2138 397 
Q 2388 397 2633 464 
Q 2878 531 3122 666 
L 3122 134 
Q 2881 22 2623 -34 
Q 2366 -91 2075 -91 
Q 1284 -91 818 406 
Q 353 903 353 1747 
Q 353 2603 823 3093 
Q 1294 3584 2113 3584 
Q 2378 3584 2631 3529 
Q 2884 3475 3122 3366 
z
" id="DejaVuSans-63" transform="scale(0.015625)"/>
        <path d="M 1172 4494 
L 1172 3500 
L 2356 3500 
L 2356 3053 
L 1172 3053 
L 1172 1153 
Q 1172 725 1289 603 
Q 1406 481 1766 481 
L 2356 481 
L 2356 0 
L 1766 0 
Q 1100 0 847 248 
Q 594 497 594 1153 
L 594 3053 
L 172 3053 
L 172 3500 
L 594 3500 
L 594 4494 
L 1172 4494 
z
" id="DejaVuSans-74" transform="scale(0.015625)"/>
       </defs>
       <use xlink:href="#DejaVuSans-4f"/>
       <use x="78.710938" xlink:href="#DejaVuSans-63"/>
       <use x="133.691406" xlink:href="#DejaVuSans-74"/>
      </g>
     </g>
    </g>
   </g>
   <g id="matplotlib.axis_2">
    <g id="ytick_1">
     <g id="line2d_17">
      <path clip-path="url(#p69dc8bfadb)" d="M 72 384.48 
L 518.4 384.48 
" style="fill:none;stroke:#000000;stroke-dasharray:0.8,1.32;stroke-dashoffset:0;stroke-width:0.8;"/>
     </g>
     <g id="line2d_18">
      <defs>
       <path d="M 0 0 
L -3.5 0 
" id="mfef473281b" style="stroke:#000000;stroke-width:0.8;"/>
      </defs>
      <g>
       <use style="stroke:#000000;stroke-width:0.8;" x="72" xlink:href="#mfef473281b" y="384.48"/>
      </g>
     </g>
     <g id="text_9">
      <!-- 0 -->
      <g transform="translate(58.6375 388.279219)scale(0.1 -0.1)">
       <defs>
        <path d="M 2034 4250 
Q 1547 4250 1301 3770 
Q 1056 3291 1056 2328 
Q 1056 1369 1301 889 
Q 1547 409 2034 409 
Q 2525 409 2770 889 
Q 3016 1369 3016 2328 
Q 3016 3291 2770 3770 
Q 2525 4250 2034 4250 
z
M 2034 4750 
Q 2819 4750 3233 4129 
Q 3647 3509 3647 2328 
Q 3647 1150 3233 529 
Q 2819 -91 2034 -91 
Q 1250 -91 836 529 
Q 422 1150 422 2328 
Q 422 3509 836 4129 
Q 1250 4750 2034 4750 
z
" id="DejaVuSans-30" transform="scale(0.015625)"/>
       </defs>
       <use xlink:href="#DejaVuSans-30"/>
      </g>
     </g>
    </g>
    <g id="ytick_2">
     <g id="line2d_19">
      <path clip-path="url(#p69dc8bfadb)" d="M 72 342.9 
L 518.4 342.9 
" style="fill:none;stroke:#000000;stroke-dasharray:0.8,1.32;stroke-dashoffset:0;stroke-width:0.8;"/>
     </g>
     <g id="line2d_20">
      <g>
       <use style="stroke:#000000;stroke-width:0.8;" x="72" xlink:href="#mfef473281b" y="342.9"/>
      </g>
     </g>
     <g id="text_10">
      <!-- 25 -->
      <g transform="translate(52.275 346.699219)scale(0.1 -0.1)">
       <defs>
        <path d="M 1228 531 
L 3431 531 
L 3431 0 
L 469 0 
L 469 531 
Q 828 903 1448 1529 
Q 2069 2156 2228 2338 
Q 2531 2678 2651 2914 
Q 2772 3150 2772 3378 
Q 2772 3750 2511 3984 
Q 2250 4219 1831 4219 
Q 1534 4219 1204 4116 
Q 875 4013 500 3803 
L 500 4441 
Q 881 4594 1212 4672 
Q 1544 4750 1819 4750 
Q 2544 4750 2975 4387 
Q 3406 4025 3406 3419 
Q 3406 3131 3298 2873 
Q 3191 2616 2906 2266 
Q 2828 2175 2409 1742 
Q 1991 1309 1228 531 
z
" id="DejaVuSans-32" transform="scale(0.015625)"/>
        <path d="M 691 4666 
L 3169 4666 
L 3169 4134 
L 1269 4134 
L 1269 2991 
Q 1406 3038 1543 3061 
Q 1681 3084 1819 3084 
Q 2600 3084 3056 2656 
Q 3513 2228 3513 1497 
Q 3513 744 3044 326 
Q 2575 -91 1722 -91 
Q 1428 -91 1123 -41 
Q 819 9 494 109 
L 494 744 
Q 775 591 1075 516 
Q 1375 441 1709 441 
Q 2250 441 2565 725 
Q 2881 1009 2881 1497 
Q 2881 1984 2565 2268 
Q 2250 2553 1709 2553 
Q 1456 2553 1204 2497 
Q 953 2441 691 2322 
L 691 4666 
z
" id="DejaVuSans-35" transform="scale(0.015625)"/>
       </defs>
       <use xlink:href="#DejaVuSans-32"/>
       <use x="63.623047" xlink:href="#DejaVuSans-35"/>
      </g>
     </g>
    </g>
    <g id="ytick_3">
     <g id="line2d_21">
      <path clip-path="url(#p69dc8bfadb)" d="M 72 301.32 
L 518.4 301.32 
" style="fill:none;stroke:#000000;stroke-dasharray:0.8,1.32;stroke-dashoffset:0;stroke-width:0.8;"/>
     </g>
     <g id="line2d_22">
      <g>
       <use style="stroke:#000000;stroke-width:0.8;" x="72" xlink:href="#mfef473281b" y="301.32"/>
      </g>
     </g>
     <g id="text_11">
      <!-- 50 -->
      <g transform="translate(52.275 305.119219)scale(0.1 -0.1)">
       <use xlink:href="#DejaVuSans-35"/>
       <use x="63.623047" xlink:href="#DejaVuSans-30"/>
      </g>
     </g>
    </g>
    <g id="ytick_4">
     <g id="line2d_23">
      <path clip-path="url(#p69dc8bfadb)" d="M 72 259.74 
L 518.4 259.74 
" style="fill:none;stroke:#000000;stroke-dasharray:0.8,1.32;stroke-dashoffset:0;stroke-width:0.8;"/>
     </g>
     <g id="line2d_24">
      <g>
       <use style="stroke:#000000;stroke-width:0.8;" x="72" xlink:href="#mfef473281b" y="259.74"/>
      </g>
     </g>
     <g id="text_12">
      <!-- 75 -->
      <g transform="translate(52.275 263.539219)scale(0.1 -0.1)">
       <defs>
        <path d="M 525 4666 
L 3525 4666 
L 3525 4397 
L 1831 0 
L 1172 0 
L 2766 4134 
L 525 4134 
L 525 4666 
z
" id="DejaVuSans-37" transform="scale(0.015625)"/>
       </defs>
       <use xlink:href="#DejaVuSans-37"/>
       <use x="63.623047" xlink:href="#DejaVuSans-35"/>
      </g>
     </g>
    </g>
    <g id="ytick_5">
     <g id="line2d_25">
      <path clip-path="url(#p69dc8bfadb)" d="M 72 218.16 
L 518.4 218.16 
" style="fill:none;stroke:#000000;stroke-dasharray:0.8,1.32;stroke-dashoffset:0;stroke-width:0.8;"/>
     </g>
     <g id="line2d_26">
      <g>
       <use style="stroke:#000000;stroke-width:0.8;" x="72" xlink:href="#mfef473281b" y="218.16"/>
      </g>
     </g>
     <g id="text_13">
      <!-- 100 -->
      <g transform="translate(45.9125 221.959219)scale(0.1 -0.1)">
       <defs>
        <path d="M 794 531 
L 1825 531 
L 1825 4091 
L 703 3866 
L 703 4441 
L 1819 4666 
L 2450 4666 
L 2450 531 
L 3481 531 
L 3481 0 
L 794 0 
L 794 531 
z
" id="DejaVuSans-31" transform="scale(0.015625)"/>
       </defs>
       <use xlink:href="#DejaVuSans-31"/>
       <use x="63.623047" xlink:href="#DejaVuSans-30"/>
       <use x="127.246094" xlink:href="#DejaVuSans-30"/>
      </g>
     </g>
    </g>
    <g id="ytick_6">
     <g id="line2d_27">
      <path clip-path="url(#p69dc8bfadb)" d="M 72 176.58 
L 518.4 176.58 
" style="fill:none;stroke:#000000;stroke-dasharray:0.8,1.32;stroke-dashoffset:0;stroke-width:0.8;"/>
     </g>
     <g id="line2d_28">
      <g>
       <use style="stroke:#000000;stroke-width:0.8;" x="72" xlink:href="#mfef473281b" y="176.58"/>
      </g>
     </g>
     <g id="text_14">
      <!-- 125 -->
      <g transform="translate(45.9125 180.379219)scale(0.1 -0.1)">
       <use xlink:href="#DejaVuSans-31"/>
       <use x="63.623047" xlink:href="#DejaVuSans-32"/>
       <use x="127.246094" xlink:href="#DejaVuSans-35"/>
      </g>
     </g>
    </g>
    <g id="ytick_7">
     <g id="line2d_29">
      <path clip-path="url(#p69dc8bfadb)" d="M 72 135 
L 518.4 135 
" style="fill:none;stroke:#000000;stroke-dasharray:0.8,1.32;stroke-dashoffset:0;stroke-width:0.8;"/>
     </g>
     <g id="line2d_30">
      <g>
       <use style="stroke:#000000;stroke-width:0.8;" x="72" xlink:href="#mfef473281b" y="135"/>
      </g>
     </g>
     <g id="text_15">
      <!-- 150 -->
      <g transform="translate(45.9125 138.799219)scale(0.1 -0.1)">
       <use xlink:href="#DejaVuSans-31"/>
       <use x="63.623047" xlink:href="#DejaVuSans-35"/>
       <use x="127.246094" xlink:href="#DejaVuSans-30"/>
      </g>
     </g>
    </g>
    <g id="ytick_8">
     <g id="line2d_31">
      <path clip-path="url(#p69dc8bfadb)" d="M 72 93.42 
L 518.4 93.42 
" style="fill:none;stroke:#000000;stroke-dasharray:0.8,1.32;stroke-dashoffset:0;stroke-width:0.8;"/>
     </g>
     <g id="line2d_32">
      <g>
       <use style="stroke:#000000;stroke-width:0.8;" x="72" xlink:href="#mfef473281b" y="93.42"/>
      </g>
     </g>
     <g id="text_16">
      <!-- 175 -->
      <g transform="translate(45.9125 97.219219)scale(0.1 -0.1)">
       <use xlink:href="#DejaVuSans-31"/>
       <use x="63.623047" xlink:href="#DejaVuSans-37"/>
       <use x="127.246094" xlink:href="#DejaVuSans-35"/>
      </g>
     </g>
    </g>
    <g id="ytick_9">
     <g id="line2d_33">
      <path clip-path="url(#p69dc8bfadb)" d="M 72 51.84 
L 518.4 51.84 
" style="fill:none;stroke:#000000;stroke-dasharray:0.8,1.32;stroke-dashoffset:0;stroke-width:0.8;"/>
     </g>
     <g id="line2d_34">
      <g>
       <use style="stroke:#000000;stroke-width:0.8;" x="72" xlink:href="#mfef473281b" y="51.84"/>
      </g>
     </g>
     <g id="text_17">
      <!-- 200 -->
      <g transform="translate(45.9125 55.639219)scale(0.1 -0.1)">
       <use xlink:href="#DejaVuSans-32"/>
       <use x="63.623047" xlink:href="#DejaVuSans-30"/>
       <use x="127.246094" xlink:href="#DejaVuSans-30"/>
      </g>
     </g>
    </g>
    <g id="text_18">
     <!-- Daily doses (thousands) -->
     <g transform="translate(39.832812 278.384219)rotate(-90)scale(0.1 -0.1)">
      <defs>
       <path d="M 1259 4147 
L 1259 519 
L 2022 519 
Q 2988 519 3436 956 
Q 3884 1394 3884 2338 
Q 3884 3275 3436 3711 
Q 2988 4147 2022 4147 
L 1259 4147 
z
M 628 4666 
L 1925 4666 
Q 3281 4666 3915 4102 
Q 4550 3538 4550 2338 
Q 4550 1131 3912 565 
Q 3275 0 1925 0 
L 628 0 
L 628 4666 
z
" id="DejaVuSans-44" transform="scale(0.015625)"/>
       <path d="M 603 3500 
L 1178 3500 
L 1178 0 
L 603 0 
L 603 3500 
z
M 603 4863 
L 1178 4863 
L 1178 4134 
L 603 4134 
L 603 4863 
z
" id="DejaVuSans-69" transform="scale(0.015625)"/>
       <path id="DejaVuSans-20" transform="scale(0.015625)"/>
       <path d="M 2906 2969 
L 2906 4863 
L 3481 4863 
L 3481 0 
L 2906 0 
L 2906 525 
Q 2725 213 2448 61 
Q 2172 -91 1784 -91 
Q 1150 -91 751 415 
Q 353 922 353 1747 
Q 353 2572 751 3078 
Q 1150 3584 1784 3584 
Q 2172 3584 2448 3432 
Q 2725 3281 2906 2969 
z
M 947 1747 
Q 947 1113 1208 752 
Q 1469 391 1925 391 
Q 2381 391 2643 752 
Q 2906 1113 2906 1747 
Q 2906 2381 2643 2742 
Q 2381 3103 1925 3103 
Q 1469 3103 1208 2742 
Q 947 2381 947 1747 
z
" id="DejaVuSans-64" transform="scale(0.015625)"/>
       <path d="M 1959 3097 
Q 1497 3097 1228 2736 
Q 959 2375 959 1747 
Q 959 1119 1226 758 
Q 1494 397 1959 397 
Q 2419 397 2687 759 
Q 2956 1122 2956 1747 
Q 2956 2369 2687 2733 
Q 2419 3097 1959 3097 
z
M 1959 3584 
Q 2709 3584 3137 3096 
Q 3566 2609 3566 1747 
Q 3566 888 3137 398 
Q 2709 -91 1959 -91 
Q 1206 -91 779 398 
Q 353 888 353 1747 
Q 353 2609 779 3096 
Q 1206 3584 1959 3584 
z
" id="DejaVuSans-6f" transform="scale(0.015625)"/>
       <path d="M 2834 3397 
L 2834 2853 
Q 2591 2978 2328 3040 
Q 2066 3103 1784 3103 
Q 1356 3103 1142 2972 
Q 928 2841 928 2578 
Q 928 2378 1081 2264 
Q 1234 2150 1697 2047 
L 1894 2003 
Q 2506 1872 2764 1633 
Q 3022 1394 3022 966 
Q 3022 478 2636 193 
Q 2250 -91 1575 -91 
Q 1294 -91 989 -36 
Q 684 19 347 128 
L 347 722 
Q 666 556 975 473 
Q 1284 391 1588 391 
Q 1994 391 2212 530 
Q 2431 669 2431 922 
Q 2431 1156 2273 1281 
Q 2116 1406 1581 1522 
L 1381 1569 
Q 847 1681 609 1914 
Q 372 2147 372 2553 
Q 372 3047 722 3315 
Q 1072 3584 1716 3584 
Q 2034 3584 2315 3537 
Q 2597 3491 2834 3397 
z
" id="DejaVuSans-73" transform="scale(0.015625)"/>
       <path d="M 1984 4856 
Q 1566 4138 1362 3434 
Q 1159 2731 1159 2009 
Q 1159 1288 1364 580 
Q 1569 -128 1984 -844 
L 1484 -844 
Q 1016 -109 783 600 
Q 550 1309 550 2009 
Q 550 2706 781 3412 
Q 1013 4119 1484 4856 
L 1984 4856 
z
" id="DejaVuSans-28" transform="scale(0.015625)"/>
       <path d="M 3513 2113 
L 3513 0 
L 2938 0 
L 2938 2094 
Q 2938 2591 2744 2837 
Q 2550 3084 2163 3084 
Q 1697 3084 1428 2787 
Q 1159 2491 1159 1978 
L 1159 0 
L 581 0 
L 581 4863 
L 1159 4863 
L 1159 2956 
Q 1366 3272 1645 3428 
Q 1925 3584 2291 3584 
Q 2894 3584 3203 3211 
Q 3513 2838 3513 2113 
z
" id="DejaVuSans-68" transform="scale(0.015625)"/>
       <path d="M 513 4856 
L 1013 4856 
Q 1481 4119 1714 3412 
Q 1947 2706 1947 2009 
Q 1947 1309 1714 600 
Q 1481 -109 1013 -844 
L 513 -844 
Q 928 -128 1133 580 
Q 1338 1288 1338 2009 
Q 1338 2731 1133 3434 
Q 928 4138 513 4856 
z
" id="DejaVuSans-29" transform="scale(0.015625)"/>
      </defs>
      <use xlink:href="#DejaVuSans-44"/>
      <use x="77.001953" xlink:href="#DejaVuSans-61"/>
      <use x="138.28125" xlink:href="#DejaVuSans-69"/>
      <use x="166.064453" xlink:href="#DejaVuSans-6c"/>
      <use x="193.847656" xlink:href="#DejaVuSans-79"/>
      <use x="253.027344" xlink:href="#DejaVuSans-20"/>
      <use x="284.814453" xlink:href="#DejaVuSans-64"/>
      <use x="348.291016" xlink:href="#DejaVuSans-6f"/>
      <use x="409.472656" xlink:href="#DejaVuSans-73"/>
      <use x="461.572266" xlink:href="#DejaVuSans-65"/>
      <use x="523.095703" xlink:href="#DejaVuSans-73"/>
      <use x="575.195312" xlink:href="#DejaVuSans-20"/>
      <use x="606.982422" xlink:href="#DejaVuSans-28"/>
      <use x="645.996094" xlink:href="#DejaVuSans-74"/>
      <use x="685.205078" xlink:href="#DejaVuSans-68"/>
      <use x="748.583984" xlink:href="#DejaVuSans-6f"/>
      <use x="809.765625" xlink:href="#DejaVuSans-75"/>
      <use x="873.144531" xlink:href="#DejaVuSans-73"/>
      <use x="925.244141" xlink:href="#DejaVuSans-61"/>
      <use x="986.523438" xlink:href="#DejaVuSans-6e"/>
      <use x="1049.902344" xlink:href="#DejaVuSans-64"/>
      <use x="1113.378906" xlink:href="#DejaVuSans-73"/>
      <use x="1165.478516" xlink:href="#DejaVuSans-29"/>
     </g>
    </g>
   </g>
   <g id="line2d_35">
    <path clip-path="url(#p69dc8bfadb)" d="M 72 118.368 
L 518.4 118.368 
" style="fill:none;stroke:#000000;stroke-dasharray:5.55,2.4;stroke-dashoffset:0;stroke-width:1.5;"/>
   </g>
   <g id="patch_3">
    <path d="M 72 384.48 
L 72 51.84 
" style="fill:none;stroke:#000000;stroke-linecap:square;stroke-linejoin:miter;stroke-width:0.8;"/>
   </g>
   <g id="patch_4">
    <path d="M 518.4 384.48 
L 518.4 51.84 
" style="fill:none;stroke:#000000;stroke-linecap:square;stroke-linejoin:miter;stroke-width:0.8;"/>
   </g>
   <g id="patch_5">
    <path d="M 72 384.48 
L 518.4 384.48 
" style="fill:none;stroke:#000000;stroke-linecap:square;stroke-linejoin:miter;stroke-width:0.8;"/>
   </g>
   <g id="patch_6">
    <path d="M 72 51.84 
L 518.4 51.84 
" style="fill:none;stroke:#000000;stroke-linecap:square;stroke-linejoin:miter;stroke-width:0.8;"/>
   </g>
   <g id="text_19">
    <!-- Smoothed daily doses by state/territory. Latest national rate: 26.3k/day -->
    <g transform="translate(80.327812 45.84)scale(0.12 -0.12)">
     <defs>
      <path d="M 3328 2828 
Q 3544 3216 3844 3400 
Q 4144 3584 4550 3584 
Q 5097 3584 5394 3201 
Q 5691 2819 5691 2113 
L 5691 0 
L 5113 0 
L 5113 2094 
Q 5113 2597 4934 2840 
Q 4756 3084 4391 3084 
Q 3944 3084 3684 2787 
Q 3425 2491 3425 1978 
L 3425 0 
L 2847 0 
L 2847 2094 
Q 2847 2600 2669 2842 
Q 2491 3084 2119 3084 
Q 1678 3084 1418 2786 
Q 1159 2488 1159 1978 
L 1159 0 
L 581 0 
L 581 3500 
L 1159 3500 
L 1159 2956 
Q 1356 3278 1631 3431 
Q 1906 3584 2284 3584 
Q 2666 3584 2933 3390 
Q 3200 3197 3328 2828 
z
" id="DejaVuSans-6d" transform="scale(0.015625)"/>
      <path d="M 3116 1747 
Q 3116 2381 2855 2742 
Q 2594 3103 2138 3103 
Q 1681 3103 1420 2742 
Q 1159 2381 1159 1747 
Q 1159 1113 1420 752 
Q 1681 391 2138 391 
Q 2594 391 2855 752 
Q 3116 1113 3116 1747 
z
M 1159 2969 
Q 1341 3281 1617 3432 
Q 1894 3584 2278 3584 
Q 2916 3584 3314 3078 
Q 3713 2572 3713 1747 
Q 3713 922 3314 415 
Q 2916 -91 2278 -91 
Q 1894 -91 1617 61 
Q 1341 213 1159 525 
L 1159 0 
L 581 0 
L 581 4863 
L 1159 4863 
L 1159 2969 
z
" id="DejaVuSans-62" transform="scale(0.015625)"/>
      <path d="M 1625 4666 
L 2156 4666 
L 531 -594 
L 0 -594 
L 1625 4666 
z
" id="DejaVuSans-2f" transform="scale(0.015625)"/>
      <path d="M 684 794 
L 1344 794 
L 1344 0 
L 684 0 
L 684 794 
z
" id="DejaVuSans-2e" transform="scale(0.015625)"/>
      <path d="M 628 4666 
L 1259 4666 
L 1259 531 
L 3531 531 
L 3531 0 
L 628 0 
L 628 4666 
z
" id="DejaVuSans-4c" transform="scale(0.015625)"/>
      <path d="M 750 794 
L 1409 794 
L 1409 0 
L 750 0 
L 750 794 
z
M 750 3309 
L 1409 3309 
L 1409 2516 
L 750 2516 
L 750 3309 
z
" id="DejaVuSans-3a" transform="scale(0.015625)"/>
      <path d="M 2113 2584 
Q 1688 2584 1439 2293 
Q 1191 2003 1191 1497 
Q 1191 994 1439 701 
Q 1688 409 2113 409 
Q 2538 409 2786 701 
Q 3034 994 3034 1497 
Q 3034 2003 2786 2293 
Q 2538 2584 2113 2584 
z
M 3366 4563 
L 3366 3988 
Q 3128 4100 2886 4159 
Q 2644 4219 2406 4219 
Q 1781 4219 1451 3797 
Q 1122 3375 1075 2522 
Q 1259 2794 1537 2939 
Q 1816 3084 2150 3084 
Q 2853 3084 3261 2657 
Q 3669 2231 3669 1497 
Q 3669 778 3244 343 
Q 2819 -91 2113 -91 
Q 1303 -91 875 529 
Q 447 1150 447 2328 
Q 447 3434 972 4092 
Q 1497 4750 2381 4750 
Q 2619 4750 2861 4703 
Q 3103 4656 3366 4563 
z
" id="DejaVuSans-36" transform="scale(0.015625)"/>
      <path d="M 2597 2516 
Q 3050 2419 3304 2112 
Q 3559 1806 3559 1356 
Q 3559 666 3084 287 
Q 2609 -91 1734 -91 
Q 1441 -91 1130 -33 
Q 819 25 488 141 
L 488 750 
Q 750 597 1062 519 
Q 1375 441 1716 441 
Q 2309 441 2620 675 
Q 2931 909 2931 1356 
Q 2931 1769 2642 2001 
Q 2353 2234 1838 2234 
L 1294 2234 
L 1294 2753 
L 1863 2753 
Q 2328 2753 2575 2939 
Q 2822 3125 2822 3475 
Q 2822 3834 2567 4026 
Q 2313 4219 1838 4219 
Q 1578 4219 1281 4162 
Q 984 4106 628 3988 
L 628 4550 
Q 988 4650 1302 4700 
Q 1616 4750 1894 4750 
Q 2613 4750 3031 4423 
Q 3450 4097 3450 3541 
Q 3450 3153 3228 2886 
Q 3006 2619 2597 2516 
z
" id="DejaVuSans-33" transform="scale(0.015625)"/>
      <path d="M 581 4863 
L 1159 4863 
L 1159 1991 
L 2875 3500 
L 3609 3500 
L 1753 1863 
L 3688 0 
L 2938 0 
L 1159 1709 
L 1159 0 
L 581 0 
L 581 4863 
z
" id="DejaVuSans-6b" transform="scale(0.015625)"/>
     </defs>
     <use xlink:href="#DejaVuSans-53"/>
     <use x="63.476562" xlink:href="#DejaVuSans-6d"/>
     <use x="160.888672" xlink:href="#DejaVuSans-6f"/>
     <use x="222.070312" xlink:href="#DejaVuSans-6f"/>
     <use x="283.251953" xlink:href="#DejaVuSans-74"/>
     <use x="322.460938" xlink:href="#DejaVuSans-68"/>
     <use x="385.839844" xlink:href="#DejaVuSans-65"/>
     <use x="447.363281" xlink:href="#DejaVuSans-64"/>
     <use x="510.839844" xlink:href="#DejaVuSans-20"/>
     <use x="542.626953" xlink:href="#DejaVuSans-64"/>
     <use x="606.103516" xlink:href="#DejaVuSans-61"/>
     <use x="667.382812" xlink:href="#DejaVuSans-69"/>
     <use x="695.166016" xlink:href="#DejaVuSans-6c"/>
     <use x="722.949219" xlink:href="#DejaVuSans-79"/>
     <use x="782.128906" xlink:href="#DejaVuSans-20"/>
     <use x="813.916016" xlink:href="#DejaVuSans-64"/>
     <use x="877.392578" xlink:href="#DejaVuSans-6f"/>
     <use x="938.574219" xlink:href="#DejaVuSans-73"/>
     <use x="990.673828" xlink:href="#DejaVuSans-65"/>
     <use x="1052.197266" xlink:href="#DejaVuSans-73"/>
     <use x="1104.296875" xlink:href="#DejaVuSans-20"/>
     <use x="1136.083984" xlink:href="#DejaVuSans-62"/>
     <use x="1199.560547" xlink:href="#DejaVuSans-79"/>
     <use x="1258.740234" xlink:href="#DejaVuSans-20"/>
     <use x="1290.527344" xlink:href="#DejaVuSans-73"/>
     <use x="1342.626953" xlink:href="#DejaVuSans-74"/>
     <use x="1381.835938" xlink:href="#DejaVuSans-61"/>
     <use x="1443.115234" xlink:href="#DejaVuSans-74"/>
     <use x="1482.324219" xlink:href="#DejaVuSans-65"/>
     <use x="1543.847656" xlink:href="#DejaVuSans-2f"/>
     <use x="1577.539062" xlink:href="#DejaVuSans-74"/>
     <use x="1616.748047" xlink:href="#DejaVuSans-65"/>
     <use x="1678.271484" xlink:href="#DejaVuSans-72"/>
     <use x="1717.634766" xlink:href="#DejaVuSans-72"/>
     <use x="1758.748047" xlink:href="#DejaVuSans-69"/>
     <use x="1786.53125" xlink:href="#DejaVuSans-74"/>
     <use x="1825.740234" xlink:href="#DejaVuSans-6f"/>
     <use x="1886.921875" xlink:href="#DejaVuSans-72"/>
     <use x="1928.035156" xlink:href="#DejaVuSans-79"/>
     <use x="1972.964844" xlink:href="#DejaVuSans-2e"/>
     <use x="2004.751953" xlink:href="#DejaVuSans-20"/>
     <use x="2036.539062" xlink:href="#DejaVuSans-4c"/>
     <use x="2092.251953" xlink:href="#DejaVuSans-61"/>
     <use x="2153.53125" xlink:href="#DejaVuSans-74"/>
     <use x="2192.740234" xlink:href="#DejaVuSans-65"/>
     <use x="2254.263672" xlink:href="#DejaVuSans-73"/>
     <use x="2306.363281" xlink:href="#DejaVuSans-74"/>
     <use x="2345.572266" xlink:href="#DejaVuSans-20"/>
     <use x="2377.359375" xlink:href="#DejaVuSans-6e"/>
     <use x="2440.738281" xlink:href="#DejaVuSans-61"/>
     <use x="2502.017578" xlink:href="#DejaVuSans-74"/>
     <use x="2541.226562" xlink:href="#DejaVuSans-69"/>
     <use x="2569.009766" xlink:href="#DejaVuSans-6f"/>
     <use x="2630.191406" xlink:href="#DejaVuSans-6e"/>
     <use x="2693.570312" xlink:href="#DejaVuSans-61"/>
     <use x="2754.849609" xlink:href="#DejaVuSans-6c"/>
     <use x="2782.632812" xlink:href="#DejaVuSans-20"/>
     <use x="2814.419922" xlink:href="#DejaVuSans-72"/>
     <use x="2855.533203" xlink:href="#DejaVuSans-61"/>
     <use x="2916.8125" xlink:href="#DejaVuSans-74"/>
     <use x="2956.021484" xlink:href="#DejaVuSans-65"/>
     <use x="3017.544922" xlink:href="#DejaVuSans-3a"/>
     <use x="3051.236328" xlink:href="#DejaVuSans-20"/>
     <use x="3083.023438" xlink:href="#DejaVuSans-32"/>
     <use x="3146.646484" xlink:href="#DejaVuSans-36"/>
     <use x="3210.269531" xlink:href="#DejaVuSans-2e"/>
     <use x="3242.056641" xlink:href="#DejaVuSans-33"/>
     <use x="3305.679688" xlink:href="#DejaVuSans-6b"/>
     <use x="3363.589844" xlink:href="#DejaVuSans-2f"/>
     <use x="3397.28125" xlink:href="#DejaVuSans-64"/>
     <use x="3460.757812" xlink:href="#DejaVuSans-61"/>
     <use x="3522.037109" xlink:href="#DejaVuSans-79"/>
    </g>
   </g>
   <g id="legend_1">
    <g id="patch_7">
     <path d="M 398.828125 379.48 
L 511.4 379.48 
Q 513.4 379.48 513.4 377.48 
L 513.4 202.3425 
Q 513.4 200.3425 511.4 200.3425 
L 398.828125 200.3425 
Q 396.828125 200.3425 396.828125 202.3425 
L 396.828125 377.48 
Q 396.828125 379.48 398.828125 379.48 
z
" style="fill:#ffffff;opacity:0.8;stroke:#cccccc;stroke-linejoin:miter;"/>
    </g>
    <g id="line2d_36">
     <path d="M 400.828125 208.440938 
L 420.828125 208.440938 
" style="fill:none;stroke:#000000;stroke-dasharray:5.55,2.4;stroke-dashoffset:0;stroke-width:1.5;"/>
    </g>
    <g id="line2d_37"/>
    <g id="text_20">
     <!-- Target -->
     <g transform="translate(428.828125 211.940938)scale(0.1 -0.1)">
      <defs>
       <path d="M -19 4666 
L 3928 4666 
L 3928 4134 
L 2272 4134 
L 2272 0 
L 1638 0 
L 1638 4134 
L -19 4134 
L -19 4666 
z
" id="DejaVuSans-54" transform="scale(0.015625)"/>
      </defs>
      <use xlink:href="#DejaVuSans-54"/>
      <use x="44.583984" xlink:href="#DejaVuSans-61"/>
      <use x="105.863281" xlink:href="#DejaVuSans-72"/>
      <use x="145.226562" xlink:href="#DejaVuSans-67"/>
      <use x="208.703125" xlink:href="#DejaVuSans-65"/>
      <use x="270.226562" xlink:href="#DejaVuSans-74"/>
     </g>
    </g>
    <g id="patch_8">
     <path d="M 400.828125 226.619063 
L 420.828125 226.619063 
L 420.828125 219.619063 
L 400.828125 219.619063 
z
" style="fill:#bcbd22;"/>
    </g>
    <g id="text_21">
     <!-- NT (0.0k/day) -->
     <g transform="translate(428.828125 226.619063)scale(0.1 -0.1)">
      <defs>
       <path d="M 628 4666 
L 1478 4666 
L 3547 763 
L 3547 4666 
L 4159 4666 
L 4159 0 
L 3309 0 
L 1241 3903 
L 1241 0 
L 628 0 
L 628 4666 
z
" id="DejaVuSans-4e" transform="scale(0.015625)"/>
      </defs>
      <use xlink:href="#DejaVuSans-4e"/>
      <use x="74.804688" xlink:href="#DejaVuSans-54"/>
      <use x="135.888672" xlink:href="#DejaVuSans-20"/>
      <use x="167.675781" xlink:href="#DejaVuSans-28"/>
      <use x="206.689453" xlink:href="#DejaVuSans-30"/>
      <use x="270.3125" xlink:href="#DejaVuSans-2e"/>
      <use x="302.099609" xlink:href="#DejaVuSans-30"/>
      <use x="365.722656" xlink:href="#DejaVuSans-6b"/>
      <use x="423.632812" xlink:href="#DejaVuSans-2f"/>
      <use x="457.324219" xlink:href="#DejaVuSans-64"/>
      <use x="520.800781" xlink:href="#DejaVuSans-61"/>
      <use x="582.080078" xlink:href="#DejaVuSans-79"/>
      <use x="641.259766" xlink:href="#DejaVuSans-29"/>
     </g>
    </g>
    <g id="patch_9">
     <path d="M 400.828125 241.297188 
L 420.828125 241.297188 
L 420.828125 234.297188 
L 400.828125 234.297188 
z
" style="fill:#7f7f7f;"/>
    </g>
    <g id="text_22">
     <!-- ACT (0.5k/day) -->
     <g transform="translate(428.828125 241.297188)scale(0.1 -0.1)">
      <defs>
       <path d="M 4122 4306 
L 4122 3641 
Q 3803 3938 3442 4084 
Q 3081 4231 2675 4231 
Q 1875 4231 1450 3742 
Q 1025 3253 1025 2328 
Q 1025 1406 1450 917 
Q 1875 428 2675 428 
Q 3081 428 3442 575 
Q 3803 722 4122 1019 
L 4122 359 
Q 3791 134 3420 21 
Q 3050 -91 2638 -91 
Q 1578 -91 968 557 
Q 359 1206 359 2328 
Q 359 3453 968 4101 
Q 1578 4750 2638 4750 
Q 3056 4750 3426 4639 
Q 3797 4528 4122 4306 
z
" id="DejaVuSans-43" transform="scale(0.015625)"/>
      </defs>
      <use xlink:href="#DejaVuSans-41"/>
      <use x="66.658203" xlink:href="#DejaVuSans-43"/>
      <use x="136.482422" xlink:href="#DejaVuSans-54"/>
      <use x="197.566406" xlink:href="#DejaVuSans-20"/>
      <use x="229.353516" xlink:href="#DejaVuSans-28"/>
      <use x="268.367188" xlink:href="#DejaVuSans-30"/>
      <use x="331.990234" xlink:href="#DejaVuSans-2e"/>
      <use x="363.777344" xlink:href="#DejaVuSans-35"/>
      <use x="427.400391" xlink:href="#DejaVuSans-6b"/>
      <use x="485.310547" xlink:href="#DejaVuSans-2f"/>
      <use x="519.001953" xlink:href="#DejaVuSans-64"/>
      <use x="582.478516" xlink:href="#DejaVuSans-61"/>
      <use x="643.757812" xlink:href="#DejaVuSans-79"/>
      <use x="702.9375" xlink:href="#DejaVuSans-29"/>
     </g>
    </g>
    <g id="patch_10">
     <path d="M 400.828125 255.975313 
L 420.828125 255.975313 
L 420.828125 248.975313 
L 400.828125 248.975313 
z
" style="fill:#e377c2;"/>
    </g>
    <g id="text_23">
     <!-- TAS (0.2k/day) -->
     <g transform="translate(428.828125 255.975313)scale(0.1 -0.1)">
      <use xlink:href="#DejaVuSans-54"/>
      <use x="53.333984" xlink:href="#DejaVuSans-41"/>
      <use x="121.742188" xlink:href="#DejaVuSans-53"/>
      <use x="185.21875" xlink:href="#DejaVuSans-20"/>
      <use x="217.005859" xlink:href="#DejaVuSans-28"/>
      <use x="256.019531" xlink:href="#DejaVuSans-30"/>
      <use x="319.642578" xlink:href="#DejaVuSans-2e"/>
      <use x="351.429688" xlink:href="#DejaVuSans-32"/>
      <use x="415.052734" xlink:href="#DejaVuSans-6b"/>
      <use x="472.962891" xlink:href="#DejaVuSans-2f"/>
      <use x="506.654297" xlink:href="#DejaVuSans-64"/>
      <use x="570.130859" xlink:href="#DejaVuSans-61"/>
      <use x="631.410156" xlink:href="#DejaVuSans-79"/>
      <use x="690.589844" xlink:href="#DejaVuSans-29"/>
     </g>
    </g>
    <g id="patch_11">
     <path d="M 400.828125 270.653438 
L 420.828125 270.653438 
L 420.828125 263.653438 
L 400.828125 263.653438 
z
" style="fill:#8c564b;"/>
    </g>
    <g id="text_24">
     <!-- SA (0.6k/day) -->
     <g transform="translate(428.828125 270.653438)scale(0.1 -0.1)">
      <use xlink:href="#DejaVuSans-53"/>
      <use x="65.351562" xlink:href="#DejaVuSans-41"/>
      <use x="133.759766" xlink:href="#DejaVuSans-20"/>
      <use x="165.546875" xlink:href="#DejaVuSans-28"/>
      <use x="204.560547" xlink:href="#DejaVuSans-30"/>
      <use x="268.183594" xlink:href="#DejaVuSans-2e"/>
      <use x="299.970703" xlink:href="#DejaVuSans-36"/>
      <use x="363.59375" xlink:href="#DejaVuSans-6b"/>
      <use x="421.503906" xlink:href="#DejaVuSans-2f"/>
      <use x="455.195312" xlink:href="#DejaVuSans-64"/>
      <use x="518.671875" xlink:href="#DejaVuSans-61"/>
      <use x="579.951172" xlink:href="#DejaVuSans-79"/>
      <use x="639.130859" xlink:href="#DejaVuSans-29"/>
     </g>
    </g>
    <g id="patch_12">
     <path d="M 400.828125 285.331563 
L 420.828125 285.331563 
L 420.828125 278.331563 
L 400.828125 278.331563 
z
" style="fill:#9467bd;"/>
    </g>
    <g id="text_25">
     <!-- WA (0.9k/day) -->
     <g transform="translate(428.828125 285.331563)scale(0.1 -0.1)">
      <defs>
       <path d="M 213 4666 
L 850 4666 
L 1831 722 
L 2809 4666 
L 3519 4666 
L 4500 722 
L 5478 4666 
L 6119 4666 
L 4947 0 
L 4153 0 
L 3169 4050 
L 2175 0 
L 1381 0 
L 213 4666 
z
" id="DejaVuSans-57" transform="scale(0.015625)"/>
       <path d="M 703 97 
L 703 672 
Q 941 559 1184 500 
Q 1428 441 1663 441 
Q 2288 441 2617 861 
Q 2947 1281 2994 2138 
Q 2813 1869 2534 1725 
Q 2256 1581 1919 1581 
Q 1219 1581 811 2004 
Q 403 2428 403 3163 
Q 403 3881 828 4315 
Q 1253 4750 1959 4750 
Q 2769 4750 3195 4129 
Q 3622 3509 3622 2328 
Q 3622 1225 3098 567 
Q 2575 -91 1691 -91 
Q 1453 -91 1209 -44 
Q 966 3 703 97 
z
M 1959 2075 
Q 2384 2075 2632 2365 
Q 2881 2656 2881 3163 
Q 2881 3666 2632 3958 
Q 2384 4250 1959 4250 
Q 1534 4250 1286 3958 
Q 1038 3666 1038 3163 
Q 1038 2656 1286 2365 
Q 1534 2075 1959 2075 
z
" id="DejaVuSans-39" transform="scale(0.015625)"/>
      </defs>
      <use xlink:href="#DejaVuSans-57"/>
      <use x="93.376953" xlink:href="#DejaVuSans-41"/>
      <use x="161.785156" xlink:href="#DejaVuSans-20"/>
      <use x="193.572266" xlink:href="#DejaVuSans-28"/>
      <use x="232.585938" xlink:href="#DejaVuSans-30"/>
      <use x="296.208984" xlink:href="#DejaVuSans-2e"/>
      <use x="327.996094" xlink:href="#DejaVuSans-39"/>
      <use x="391.619141" xlink:href="#DejaVuSans-6b"/>
      <use x="449.529297" xlink:href="#DejaVuSans-2f"/>
      <use x="483.220703" xlink:href="#DejaVuSans-64"/>
      <use x="546.697266" xlink:href="#DejaVuSans-61"/>
      <use x="607.976562" xlink:href="#DejaVuSans-79"/>
      <use x="667.15625" xlink:href="#DejaVuSans-29"/>
     </g>
    </g>
    <g id="patch_13">
     <path d="M 400.828125 300.009688 
L 420.828125 300.009688 
L 420.828125 293.009688 
L 400.828125 293.009688 
z
" style="fill:#d62728;"/>
    </g>
    <g id="text_26">
     <!-- QLD (2.2k/day) -->
     <g transform="translate(428.828125 300.009688)scale(0.1 -0.1)">
      <defs>
       <path d="M 2522 4238 
Q 1834 4238 1429 3725 
Q 1025 3213 1025 2328 
Q 1025 1447 1429 934 
Q 1834 422 2522 422 
Q 3209 422 3611 934 
Q 4013 1447 4013 2328 
Q 4013 3213 3611 3725 
Q 3209 4238 2522 4238 
z
M 3406 84 
L 4238 -825 
L 3475 -825 
L 2784 -78 
Q 2681 -84 2626 -87 
Q 2572 -91 2522 -91 
Q 1538 -91 948 567 
Q 359 1225 359 2328 
Q 359 3434 948 4092 
Q 1538 4750 2522 4750 
Q 3503 4750 4090 4092 
Q 4678 3434 4678 2328 
Q 4678 1516 4351 937 
Q 4025 359 3406 84 
z
" id="DejaVuSans-51" transform="scale(0.015625)"/>
      </defs>
      <use xlink:href="#DejaVuSans-51"/>
      <use x="78.710938" xlink:href="#DejaVuSans-4c"/>
      <use x="134.423828" xlink:href="#DejaVuSans-44"/>
      <use x="211.425781" xlink:href="#DejaVuSans-20"/>
      <use x="243.212891" xlink:href="#DejaVuSans-28"/>
      <use x="282.226562" xlink:href="#DejaVuSans-32"/>
      <use x="345.849609" xlink:href="#DejaVuSans-2e"/>
      <use x="377.636719" xlink:href="#DejaVuSans-32"/>
      <use x="441.259766" xlink:href="#DejaVuSans-6b"/>
      <use x="499.169922" xlink:href="#DejaVuSans-2f"/>
      <use x="532.861328" xlink:href="#DejaVuSans-64"/>
      <use x="596.337891" xlink:href="#DejaVuSans-61"/>
      <use x="657.617188" xlink:href="#DejaVuSans-79"/>
      <use x="716.796875" xlink:href="#DejaVuSans-29"/>
     </g>
    </g>
    <g id="patch_14">
     <path d="M 400.828125 314.687813 
L 420.828125 314.687813 
L 420.828125 307.687813 
L 400.828125 307.687813 
z
" style="fill:#2ca02c;"/>
    </g>
    <g id="text_27">
     <!-- VIC (2.4k/day) -->
     <g transform="translate(428.828125 314.687813)scale(0.1 -0.1)">
      <defs>
       <path d="M 1831 0 
L 50 4666 
L 709 4666 
L 2188 738 
L 3669 4666 
L 4325 4666 
L 2547 0 
L 1831 0 
z
" id="DejaVuSans-56" transform="scale(0.015625)"/>
       <path d="M 628 4666 
L 1259 4666 
L 1259 0 
L 628 0 
L 628 4666 
z
" id="DejaVuSans-49" transform="scale(0.015625)"/>
       <path d="M 2419 4116 
L 825 1625 
L 2419 1625 
L 2419 4116 
z
M 2253 4666 
L 3047 4666 
L 3047 1625 
L 3713 1625 
L 3713 1100 
L 3047 1100 
L 3047 0 
L 2419 0 
L 2419 1100 
L 313 1100 
L 313 1709 
L 2253 4666 
z
" id="DejaVuSans-34" transform="scale(0.015625)"/>
      </defs>
      <use xlink:href="#DejaVuSans-56"/>
      <use x="68.408203" xlink:href="#DejaVuSans-49"/>
      <use x="97.900391" xlink:href="#DejaVuSans-43"/>
      <use x="167.724609" xlink:href="#DejaVuSans-20"/>
      <use x="199.511719" xlink:href="#DejaVuSans-28"/>
      <use x="238.525391" xlink:href="#DejaVuSans-32"/>
      <use x="302.148438" xlink:href="#DejaVuSans-2e"/>
      <use x="333.935547" xlink:href="#DejaVuSans-34"/>
      <use x="397.558594" xlink:href="#DejaVuSans-6b"/>
      <use x="455.46875" xlink:href="#DejaVuSans-2f"/>
      <use x="489.160156" xlink:href="#DejaVuSans-64"/>
      <use x="552.636719" xlink:href="#DejaVuSans-61"/>
      <use x="613.916016" xlink:href="#DejaVuSans-79"/>
      <use x="673.095703" xlink:href="#DejaVuSans-29"/>
     </g>
    </g>
    <g id="patch_15">
     <path d="M 400.828125 329.365938 
L 420.828125 329.365938 
L 420.828125 322.365938 
L 400.828125 322.365938 
z
" style="fill:#ff7f0e;"/>
    </g>
    <g id="text_28">
     <!-- NSW (2.7k/day) -->
     <g transform="translate(428.828125 329.365938)scale(0.1 -0.1)">
      <use xlink:href="#DejaVuSans-4e"/>
      <use x="74.804688" xlink:href="#DejaVuSans-53"/>
      <use x="138.28125" xlink:href="#DejaVuSans-57"/>
      <use x="237.158203" xlink:href="#DejaVuSans-20"/>
      <use x="268.945312" xlink:href="#DejaVuSans-28"/>
      <use x="307.958984" xlink:href="#DejaVuSans-32"/>
      <use x="371.582031" xlink:href="#DejaVuSans-2e"/>
      <use x="403.369141" xlink:href="#DejaVuSans-37"/>
      <use x="466.992188" xlink:href="#DejaVuSans-6b"/>
      <use x="524.902344" xlink:href="#DejaVuSans-2f"/>
      <use x="558.59375" xlink:href="#DejaVuSans-64"/>
      <use x="622.070312" xlink:href="#DejaVuSans-61"/>
      <use x="683.349609" xlink:href="#DejaVuSans-79"/>
      <use x="742.529297" xlink:href="#DejaVuSans-29"/>
     </g>
    </g>
    <g id="patch_16">
     <path d="M 400.828125 344.044062 
L 420.828125 344.044062 
L 420.828125 337.044062 
L 400.828125 337.044062 
z
" style="fill:#1f77b4;"/>
    </g>
    <g id="text_29">
     <!-- FED (16.8k/day) -->
     <g transform="translate(428.828125 344.044062)scale(0.1 -0.1)">
      <defs>
       <path d="M 628 4666 
L 3309 4666 
L 3309 4134 
L 1259 4134 
L 1259 2759 
L 3109 2759 
L 3109 2228 
L 1259 2228 
L 1259 0 
L 628 0 
L 628 4666 
z
" id="DejaVuSans-46" transform="scale(0.015625)"/>
       <path d="M 628 4666 
L 3578 4666 
L 3578 4134 
L 1259 4134 
L 1259 2753 
L 3481 2753 
L 3481 2222 
L 1259 2222 
L 1259 531 
L 3634 531 
L 3634 0 
L 628 0 
L 628 4666 
z
" id="DejaVuSans-45" transform="scale(0.015625)"/>
       <path d="M 2034 2216 
Q 1584 2216 1326 1975 
Q 1069 1734 1069 1313 
Q 1069 891 1326 650 
Q 1584 409 2034 409 
Q 2484 409 2743 651 
Q 3003 894 3003 1313 
Q 3003 1734 2745 1975 
Q 2488 2216 2034 2216 
z
M 1403 2484 
Q 997 2584 770 2862 
Q 544 3141 544 3541 
Q 544 4100 942 4425 
Q 1341 4750 2034 4750 
Q 2731 4750 3128 4425 
Q 3525 4100 3525 3541 
Q 3525 3141 3298 2862 
Q 3072 2584 2669 2484 
Q 3125 2378 3379 2068 
Q 3634 1759 3634 1313 
Q 3634 634 3220 271 
Q 2806 -91 2034 -91 
Q 1263 -91 848 271 
Q 434 634 434 1313 
Q 434 1759 690 2068 
Q 947 2378 1403 2484 
z
M 1172 3481 
Q 1172 3119 1398 2916 
Q 1625 2713 2034 2713 
Q 2441 2713 2670 2916 
Q 2900 3119 2900 3481 
Q 2900 3844 2670 4047 
Q 2441 4250 2034 4250 
Q 1625 4250 1398 4047 
Q 1172 3844 1172 3481 
z
" id="DejaVuSans-38" transform="scale(0.015625)"/>
      </defs>
      <use xlink:href="#DejaVuSans-46"/>
      <use x="57.519531" xlink:href="#DejaVuSans-45"/>
      <use x="120.703125" xlink:href="#DejaVuSans-44"/>
      <use x="197.705078" xlink:href="#DejaVuSans-20"/>
      <use x="229.492188" xlink:href="#DejaVuSans-28"/>
      <use x="268.505859" xlink:href="#DejaVuSans-31"/>
      <use x="332.128906" xlink:href="#DejaVuSans-36"/>
      <use x="395.751953" xlink:href="#DejaVuSans-2e"/>
      <use x="427.539062" xlink:href="#DejaVuSans-38"/>
      <use x="491.162109" xlink:href="#DejaVuSans-6b"/>
      <use x="549.072266" xlink:href="#DejaVuSans-2f"/>
      <use x="582.763672" xlink:href="#DejaVuSans-64"/>
      <use x="646.240234" xlink:href="#DejaVuSans-61"/>
      <use x="707.519531" xlink:href="#DejaVuSans-79"/>
      <use x="766.699219" xlink:href="#DejaVuSans-29"/>
     </g>
    </g>
    <g id="patch_17">
     <path d="M 400.828125 358.722188 
L 420.828125 358.722188 
L 420.828125 351.722188 
L 400.828125 351.722188 
z
" style="fill:#ff0000;opacity:0.5;"/>
    </g>
    <g id="text_30">
     <!-- Phase 1a -->
     <g transform="translate(428.828125 358.722188)scale(0.1 -0.1)">
      <defs>
       <path d="M 1259 4147 
L 1259 2394 
L 2053 2394 
Q 2494 2394 2734 2622 
Q 2975 2850 2975 3272 
Q 2975 3691 2734 3919 
Q 2494 4147 2053 4147 
L 1259 4147 
z
M 628 4666 
L 2053 4666 
Q 2838 4666 3239 4311 
Q 3641 3956 3641 3272 
Q 3641 2581 3239 2228 
Q 2838 1875 2053 1875 
L 1259 1875 
L 1259 0 
L 628 0 
L 628 4666 
z
" id="DejaVuSans-50" transform="scale(0.015625)"/>
      </defs>
      <use xlink:href="#DejaVuSans-50"/>
      <use x="60.302734" xlink:href="#DejaVuSans-68"/>
      <use x="123.681641" xlink:href="#DejaVuSans-61"/>
      <use x="184.960938" xlink:href="#DejaVuSans-73"/>
      <use x="237.060547" xlink:href="#DejaVuSans-65"/>
      <use x="298.583984" xlink:href="#DejaVuSans-20"/>
      <use x="330.371094" xlink:href="#DejaVuSans-31"/>
      <use x="393.994141" xlink:href="#DejaVuSans-61"/>
     </g>
    </g>
    <g id="patch_18">
     <path d="M 400.828125 373.400312 
L 420.828125 373.400312 
L 420.828125 366.400312 
L 400.828125 366.400312 
z
" style="fill:#ffa500;opacity:0.5;"/>
    </g>
    <g id="text_31">
     <!-- Phase 1b -->
     <g transform="translate(428.828125 373.400312)scale(0.1 -0.1)">
      <use xlink:href="#DejaVuSans-50"/>
      <use x="60.302734" xlink:href="#DejaVuSans-68"/>
      <use x="123.681641" xlink:href="#DejaVuSans-61"/>
      <use x="184.960938" xlink:href="#DejaVuSans-73"/>
      <use x="237.060547" xlink:href="#DejaVuSans-65"/>
      <use x="298.583984" xlink:href="#DejaVuSans-20"/>
      <use x="330.371094" xlink:href="#DejaVuSans-31"/>
      <use x="393.994141" xlink:href="#DejaVuSans-62"/>
     </g>
    </g>
   </g>
   <g id="PolyCollection_13">
    <defs>
     <path d="M 72 -47.575752 
L 72 -47.52 
L 72 -47.52 
L 73.792771 -47.52 
L 73.792771 -47.52 
L 75.585542 -47.52 
L 75.585542 -47.52 
L 77.378313 -47.52 
L 77.378313 -47.52 
L 79.171084 -47.52 
L 79.171084 -47.52 
L 80.963855 -47.52 
L 80.963855 -47.52 
L 82.756627 -47.52 
L 82.756627 -47.52 
L 84.549398 -47.52 
L 84.549398 -47.52 
L 86.342169 -47.52 
L 86.342169 -47.52 
L 88.13494 -47.52 
L 88.13494 -47.52 
L 89.927711 -47.52 
L 89.927711 -47.52 
L 91.720482 -47.52 
L 91.720482 -47.52 
L 93.513253 -47.52 
L 93.513253 -47.52 
L 95.306024 -47.52 
L 95.306024 -47.52 
L 97.098795 -47.52 
L 97.098795 -47.52 
L 98.891566 -47.52 
L 98.891566 -47.52 
L 100.684337 -47.52 
L 100.684337 -47.52 
L 102.477108 -47.52 
L 102.477108 -47.52 
L 104.26988 -47.52 
L 104.26988 -47.52 
L 106.062651 -47.52 
L 106.062651 -47.52 
L 107.855422 -47.52 
L 107.855422 -47.52 
L 109.648193 -47.52 
L 109.648193 -47.52 
L 111.440964 -47.52 
L 111.440964 -47.52 
L 113.233735 -47.52 
L 113.233735 -47.52 
L 115.026506 -47.52 
L 115.026506 -47.52 
L 116.819277 -47.52 
L 116.819277 -47.52 
L 118.612048 -47.52 
L 118.612048 -47.52 
L 120.404819 -47.52 
L 120.404819 -47.52 
L 122.19759 -47.52 
L 122.19759 -47.52 
L 123.990361 -47.52 
L 123.990361 -47.52 
L 125.783133 -47.52 
L 125.783133 -47.52 
L 127.575904 -47.52 
L 127.575904 -47.52 
L 129.368675 -47.52 
L 129.368675 -47.52 
L 131.161446 -47.52 
L 131.161446 -47.52 
L 132.954217 -47.52 
L 132.954217 -47.52 
L 134.746988 -47.52 
L 134.746988 -47.52 
L 136.539759 -47.52 
L 136.539759 -47.52 
L 138.33253 -47.52 
L 138.33253 -47.52 
L 140.125301 -47.52 
L 140.125301 -47.52 
L 141.918072 -47.52 
L 141.918072 -47.52 
L 143.710843 -47.52 
L 143.710843 -47.52 
L 145.503614 -47.52 
L 145.503614 -47.52 
L 147.296386 -47.52 
L 147.296386 -47.52 
L 149.089157 -47.52 
L 149.089157 -47.52 
L 150.881928 -47.52 
L 150.881928 -47.553972 
L 150.881928 -47.553972 
L 149.089157 -47.553972 
L 149.089157 -47.575535 
L 147.296386 -47.575535 
L 147.296386 -47.615823 
L 145.503614 -47.615823 
L 145.503614 -47.689863 
L 143.710843 -47.689863 
L 143.710843 -47.799478 
L 141.918072 -47.799478 
L 141.918072 -47.918691 
L 140.125301 -47.918691 
L 140.125301 -48.003373 
L 138.33253 -48.003373 
L 138.33253 -48.023749 
L 136.539759 -48.023749 
L 136.539759 -47.990686 
L 134.746988 -47.990686 
L 134.746988 -47.949482 
L 132.954217 -47.949482 
L 132.954217 -47.943932 
L 131.161446 -47.943932 
L 131.161446 -47.980836 
L 129.368675 -47.980836 
L 129.368675 -48.026247 
L 127.575904 -48.026247 
L 127.575904 -48.036018 
L 125.783133 -48.036018 
L 125.783133 -47.992636 
L 123.990361 -47.992636 
L 123.990361 -47.918851 
L 122.19759 -47.918851 
L 122.19759 -47.860351 
L 120.404819 -47.860351 
L 120.404819 -47.851568 
L 118.612048 -47.851568 
L 118.612048 -47.890087 
L 116.819277 -47.890087 
L 116.819277 -47.939619 
L 115.026506 -47.939619 
L 115.026506 -47.957805 
L 113.233735 -47.957805 
L 113.233735 -47.92633 
L 111.440964 -47.92633 
L 111.440964 -47.862998 
L 109.648193 -47.862998 
L 109.648193 -47.80883 
L 107.855422 -47.80883 
L 107.855422 -47.798496 
L 106.062651 -47.798496 
L 106.062651 -47.836339 
L 104.26988 -47.836339 
L 104.26988 -47.896222 
L 102.477108 -47.896222 
L 102.477108 -47.941143 
L 100.684337 -47.941143 
L 100.684337 -47.945021 
L 98.891566 -47.945021 
L 98.891566 -47.905758 
L 97.098795 -47.905758 
L 97.098795 -47.846752 
L 95.306024 -47.846752 
L 95.306024 -47.804113 
L 93.513253 -47.804113 
L 93.513253 -47.802113 
L 91.720482 -47.802113 
L 91.720482 -47.8339 
L 89.927711 -47.8339 
L 89.927711 -47.867299 
L 88.13494 -47.867299 
L 88.13494 -47.872022 
L 86.342169 -47.872022 
L 86.342169 -47.842723 
L 84.549398 -47.842723 
L 84.549398 -47.799052 
L 82.756627 -47.799052 
L 82.756627 -47.765263 
L 80.963855 -47.765263 
L 80.963855 -47.747636 
L 79.171084 -47.747636 
L 79.171084 -47.731469 
L 77.378313 -47.731469 
L 77.378313 -47.701013 
L 75.585542 -47.701013 
L 75.585542 -47.657099 
L 73.792771 -47.657099 
L 73.792771 -47.612167 
L 72 -47.612167 
L 72 -47.575752 
z
" id="m57e8dc0d9c"/>
    </defs>
    <g clip-path="url(#p69dc8bfadb)">
     <use style="fill:#bcbd22;" x="0" xlink:href="#m57e8dc0d9c" y="432"/>
    </g>
   </g>
   <g id="PolyCollection_14">
    <defs>
     <path d="M 72 -47.684704 
L 72 -47.575752 
L 72 -47.612167 
L 73.792771 -47.612167 
L 73.792771 -47.657099 
L 75.585542 -47.657099 
L 75.585542 -47.701013 
L 77.378313 -47.701013 
L 77.378313 -47.731469 
L 79.171084 -47.731469 
L 79.171084 -47.747636 
L 80.963855 -47.747636 
L 80.963855 -47.765263 
L 82.756627 -47.765263 
L 82.756627 -47.799052 
L 84.549398 -47.799052 
L 84.549398 -47.842723 
L 86.342169 -47.842723 
L 86.342169 -47.872022 
L 88.13494 -47.872022 
L 88.13494 -47.867299 
L 89.927711 -47.867299 
L 89.927711 -47.8339 
L 91.720482 -47.8339 
L 91.720482 -47.802113 
L 93.513253 -47.802113 
L 93.513253 -47.804113 
L 95.306024 -47.804113 
L 95.306024 -47.846752 
L 97.098795 -47.846752 
L 97.098795 -47.905758 
L 98.891566 -47.905758 
L 98.891566 -47.945021 
L 100.684337 -47.945021 
L 100.684337 -47.941143 
L 102.477108 -47.941143 
L 102.477108 -47.896222 
L 104.26988 -47.896222 
L 104.26988 -47.836339 
L 106.062651 -47.836339 
L 106.062651 -47.798496 
L 107.855422 -47.798496 
L 107.855422 -47.80883 
L 109.648193 -47.80883 
L 109.648193 -47.862998 
L 111.440964 -47.862998 
L 111.440964 -47.92633 
L 113.233735 -47.92633 
L 113.233735 -47.957805 
L 115.026506 -47.957805 
L 115.026506 -47.939619 
L 116.819277 -47.939619 
L 116.819277 -47.890087 
L 118.612048 -47.890087 
L 118.612048 -47.851568 
L 120.404819 -47.851568 
L 120.404819 -47.860351 
L 122.19759 -47.860351 
L 122.19759 -47.918851 
L 123.990361 -47.918851 
L 123.990361 -47.992636 
L 125.783133 -47.992636 
L 125.783133 -48.036018 
L 127.575904 -48.036018 
L 127.575904 -48.026247 
L 129.368675 -48.026247 
L 129.368675 -47.980836 
L 131.161446 -47.980836 
L 131.161446 -47.943932 
L 132.954217 -47.943932 
L 132.954217 -47.949482 
L 134.746988 -47.949482 
L 134.746988 -47.990686 
L 136.539759 -47.990686 
L 136.539759 -48.023749 
L 138.33253 -48.023749 
L 138.33253 -48.003373 
L 140.125301 -48.003373 
L 140.125301 -47.918691 
L 141.918072 -47.918691 
L 141.918072 -47.799478 
L 143.710843 -47.799478 
L 143.710843 -47.689863 
L 145.503614 -47.689863 
L 145.503614 -47.615823 
L 147.296386 -47.615823 
L 147.296386 -47.575535 
L 149.089157 -47.575535 
L 149.089157 -47.553972 
L 150.881928 -47.553972 
L 150.881928 -48.340243 
L 150.881928 -48.340243 
L 149.089157 -48.340243 
L 149.089157 -48.495086 
L 147.296386 -48.495086 
L 147.296386 -48.572391 
L 145.503614 -48.572391 
L 145.503614 -48.619527 
L 143.710843 -48.619527 
L 143.710843 -48.678531 
L 141.918072 -48.678531 
L 141.918072 -48.748908 
L 140.125301 -48.748908 
L 140.125301 -48.797529 
L 138.33253 -48.797529 
L 138.33253 -48.793392 
L 136.539759 -48.793392 
L 136.539759 -48.74166 
L 134.746988 -48.74166 
L 134.746988 -48.690307 
L 132.954217 -48.690307 
L 132.954217 -48.692672 
L 131.161446 -48.692672 
L 131.161446 -48.755878 
L 129.368675 -48.755878 
L 129.368675 -48.831 
L 127.575904 -48.831 
L 127.575904 -48.854632 
L 125.783133 -48.854632 
L 125.783133 -48.798626 
L 123.990361 -48.798626 
L 123.990361 -48.688989 
L 122.19759 -48.688989 
L 122.19759 -48.588932 
L 120.404819 -48.588932 
L 120.404819 -48.556351 
L 118.612048 -48.556351 
L 118.612048 -48.598898 
L 116.819277 -48.598898 
L 116.819277 -48.66267 
L 115.026506 -48.66267 
L 115.026506 -48.670185 
L 113.233735 -48.670185 
L 113.233735 -48.57907 
L 111.440964 -48.57907 
L 111.440964 -48.416904 
L 109.648193 -48.416904 
L 109.648193 -48.26537 
L 107.855422 -48.26537 
L 107.855422 -48.199443 
L 106.062651 -48.199443 
L 106.062651 -48.229169 
L 104.26988 -48.229169 
L 104.26988 -48.297388 
L 102.477108 -48.297388 
L 102.477108 -48.330212 
L 100.684337 -48.330212 
L 100.684337 -48.288865 
L 98.891566 -48.288865 
L 98.891566 -48.187569 
L 97.098795 -48.187569 
L 97.098795 -48.079347 
L 95.306024 -48.079347 
L 95.306024 -48.021198 
L 93.513253 -48.021198 
L 93.513253 -48.034968 
L 91.720482 -48.034968 
L 91.720482 -48.091324 
L 89.927711 -48.091324 
L 89.927711 -48.133768 
L 88.13494 -48.133768 
L 88.13494 -48.123352 
L 86.342169 -48.123352 
L 86.342169 -48.066752 
L 84.549398 -48.066752 
L 84.549398 -48.007393 
L 82.756627 -48.007393 
L 82.756627 -47.986788 
L 80.963855 -47.986788 
L 80.963855 -48.005892 
L 79.171084 -48.005892 
L 79.171084 -48.023003 
L 77.378313 -48.023003 
L 77.378313 -47.993301 
L 75.585542 -47.993301 
L 75.585542 -47.907739 
L 73.792771 -47.907739 
L 73.792771 -47.793111 
L 72 -47.793111 
L 72 -47.684704 
z
" id="mee257d6d33"/>
    </defs>
    <g clip-path="url(#p69dc8bfadb)">
     <use style="fill:#7f7f7f;" x="0" xlink:href="#mee257d6d33" y="432"/>
    </g>
   </g>
   <g id="PolyCollection_15">
    <defs>
     <path d="M 72 -47.847907 
L 72 -47.684704 
L 72 -47.793111 
L 73.792771 -47.793111 
L 73.792771 -47.907739 
L 75.585542 -47.907739 
L 75.585542 -47.993301 
L 77.378313 -47.993301 
L 77.378313 -48.023003 
L 79.171084 -48.023003 
L 79.171084 -48.005892 
L 80.963855 -48.005892 
L 80.963855 -47.986788 
L 82.756627 -47.986788 
L 82.756627 -48.007393 
L 84.549398 -48.007393 
L 84.549398 -48.066752 
L 86.342169 -48.066752 
L 86.342169 -48.123352 
L 88.13494 -48.123352 
L 88.13494 -48.133768 
L 89.927711 -48.133768 
L 89.927711 -48.091324 
L 91.720482 -48.091324 
L 91.720482 -48.034968 
L 93.513253 -48.034968 
L 93.513253 -48.021198 
L 95.306024 -48.021198 
L 95.306024 -48.079347 
L 97.098795 -48.079347 
L 97.098795 -48.187569 
L 98.891566 -48.187569 
L 98.891566 -48.288865 
L 100.684337 -48.288865 
L 100.684337 -48.330212 
L 102.477108 -48.330212 
L 102.477108 -48.297388 
L 104.26988 -48.297388 
L 104.26988 -48.229169 
L 106.062651 -48.229169 
L 106.062651 -48.199443 
L 107.855422 -48.199443 
L 107.855422 -48.26537 
L 109.648193 -48.26537 
L 109.648193 -48.416904 
L 111.440964 -48.416904 
L 111.440964 -48.57907 
L 113.233735 -48.57907 
L 113.233735 -48.670185 
L 115.026506 -48.670185 
L 115.026506 -48.66267 
L 116.819277 -48.66267 
L 116.819277 -48.598898 
L 118.612048 -48.598898 
L 118.612048 -48.556351 
L 120.404819 -48.556351 
L 120.404819 -48.588932 
L 122.19759 -48.588932 
L 122.19759 -48.688989 
L 123.990361 -48.688989 
L 123.990361 -48.798626 
L 125.783133 -48.798626 
L 125.783133 -48.854632 
L 127.575904 -48.854632 
L 127.575904 -48.831 
L 129.368675 -48.831 
L 129.368675 -48.755878 
L 131.161446 -48.755878 
L 131.161446 -48.692672 
L 132.954217 -48.692672 
L 132.954217 -48.690307 
L 134.746988 -48.690307 
L 134.746988 -48.74166 
L 136.539759 -48.74166 
L 136.539759 -48.793392 
L 138.33253 -48.793392 
L 138.33253 -48.797529 
L 140.125301 -48.797529 
L 140.125301 -48.748908 
L 141.918072 -48.748908 
L 141.918072 -48.678531 
L 143.710843 -48.678531 
L 143.710843 -48.619527 
L 145.503614 -48.619527 
L 145.503614 -48.572391 
L 147.296386 -48.572391 
L 147.296386 -48.495086 
L 149.089157 -48.495086 
L 149.089157 -48.340243 
L 150.881928 -48.340243 
L 150.881928 -48.613935 
L 150.881928 -48.613935 
L 149.089157 -48.613935 
L 149.089157 -49.009993 
L 147.296386 -49.009993 
L 147.296386 -49.336306 
L 145.503614 -49.336306 
L 145.503614 -49.533578 
L 143.710843 -49.533578 
L 143.710843 -49.61216 
L 141.918072 -49.61216 
L 141.918072 -49.65817 
L 140.125301 -49.65817 
L 140.125301 -49.741754 
L 138.33253 -49.741754 
L 138.33253 -49.830107 
L 136.539759 -49.830107 
L 136.539759 -49.838154 
L 134.746988 -49.838154 
L 134.746988 -49.758318 
L 132.954217 -49.758318 
L 132.954217 -49.6933 
L 131.161446 -49.6933 
L 131.161446 -49.743727 
L 129.368675 -49.743727 
L 129.368675 -49.885775 
L 127.575904 -49.885775 
L 127.575904 -49.982553 
L 125.783133 -49.982553 
L 125.783133 -49.915643 
L 123.990361 -49.915643 
L 123.990361 -49.699502 
L 122.19759 -49.699502 
L 122.19759 -49.474514 
L 120.404819 -49.474514 
L 120.404819 -49.395976 
L 118.612048 -49.395976 
L 118.612048 -49.511811 
L 116.819277 -49.511811 
L 116.819277 -49.719422 
L 115.026506 -49.719422 
L 115.026506 -49.833147 
L 113.233735 -49.833147 
L 113.233735 -49.716833 
L 111.440964 -49.716833 
L 111.440964 -49.386315 
L 109.648193 -49.386315 
L 109.648193 -49.001783 
L 107.855422 -49.001783 
L 107.855422 -48.746689 
L 106.062651 -48.746689 
L 106.062651 -48.689179 
L 104.26988 -48.689179 
L 104.26988 -48.745722 
L 102.477108 -48.745722 
L 102.477108 -48.769314 
L 100.684337 -48.769314 
L 100.684337 -48.671602 
L 98.891566 -48.671602 
L 98.891566 -48.47913 
L 97.098795 -48.47913 
L 97.098795 -48.298378 
L 95.306024 -48.298378 
L 95.306024 -48.230595 
L 93.513253 -48.230595 
L 93.513253 -48.29701 
L 91.720482 -48.29701 
L 91.720482 -48.42328 
L 89.927711 -48.42328 
L 89.927711 -48.49648 
L 88.13494 -48.49648 
L 88.13494 -48.452553 
L 86.342169 -48.452553 
L 86.342169 -48.323367 
L 84.549398 -48.323367 
L 84.549398 -48.20679 
L 82.756627 -48.20679 
L 82.756627 -48.186446 
L 80.963855 -48.186446 
L 80.963855 -48.263699 
L 79.171084 -48.263699 
L 79.171084 -48.356013 
L 77.378313 -48.356013 
L 77.378313 -48.364747 
L 75.585542 -48.364747 
L 75.585542 -48.25125 
L 73.792771 -48.25125 
L 73.792771 -48.054409 
L 72 -48.054409 
L 72 -47.847907 
z
" id="m53aaeb7bfb"/>
    </defs>
    <g clip-path="url(#p69dc8bfadb)">
     <use style="fill:#e377c2;" x="0" xlink:href="#m53aaeb7bfb" y="432"/>
    </g>
   </g>
   <g id="PolyCollection_16">
    <defs>
     <path d="M 72 -48.021935 
L 72 -47.847907 
L 72 -48.054409 
L 73.792771 -48.054409 
L 73.792771 -48.25125 
L 75.585542 -48.25125 
L 75.585542 -48.364747 
L 77.378313 -48.364747 
L 77.378313 -48.356013 
L 79.171084 -48.356013 
L 79.171084 -48.263699 
L 80.963855 -48.263699 
L 80.963855 -48.186446 
L 82.756627 -48.186446 
L 82.756627 -48.20679 
L 84.549398 -48.20679 
L 84.549398 -48.323367 
L 86.342169 -48.323367 
L 86.342169 -48.452553 
L 88.13494 -48.452553 
L 88.13494 -48.49648 
L 89.927711 -48.49648 
L 89.927711 -48.42328 
L 91.720482 -48.42328 
L 91.720482 -48.29701 
L 93.513253 -48.29701 
L 93.513253 -48.230595 
L 95.306024 -48.230595 
L 95.306024 -48.298378 
L 97.098795 -48.298378 
L 97.098795 -48.47913 
L 98.891566 -48.47913 
L 98.891566 -48.671602 
L 100.684337 -48.671602 
L 100.684337 -48.769314 
L 102.477108 -48.769314 
L 102.477108 -48.745722 
L 104.26988 -48.745722 
L 104.26988 -48.689179 
L 106.062651 -48.689179 
L 106.062651 -48.746689 
L 107.855422 -48.746689 
L 107.855422 -49.001783 
L 109.648193 -49.001783 
L 109.648193 -49.386315 
L 111.440964 -49.386315 
L 111.440964 -49.716833 
L 113.233735 -49.716833 
L 113.233735 -49.833147 
L 115.026506 -49.833147 
L 115.026506 -49.719422 
L 116.819277 -49.719422 
L 116.819277 -49.511811 
L 118.612048 -49.511811 
L 118.612048 -49.395976 
L 120.404819 -49.395976 
L 120.404819 -49.474514 
L 122.19759 -49.474514 
L 122.19759 -49.699502 
L 123.990361 -49.699502 
L 123.990361 -49.915643 
L 125.783133 -49.915643 
L 125.783133 -49.982553 
L 127.575904 -49.982553 
L 127.575904 -49.885775 
L 129.368675 -49.885775 
L 129.368675 -49.743727 
L 131.161446 -49.743727 
L 131.161446 -49.6933 
L 132.954217 -49.6933 
L 132.954217 -49.758318 
L 134.746988 -49.758318 
L 134.746988 -49.838154 
L 136.539759 -49.838154 
L 136.539759 -49.830107 
L 138.33253 -49.830107 
L 138.33253 -49.741754 
L 140.125301 -49.741754 
L 140.125301 -49.65817 
L 141.918072 -49.65817 
L 141.918072 -49.61216 
L 143.710843 -49.61216 
L 143.710843 -49.533578 
L 145.503614 -49.533578 
L 145.503614 -49.336306 
L 147.296386 -49.336306 
L 147.296386 -49.009993 
L 149.089157 -49.009993 
L 149.089157 -48.613935 
L 150.881928 -48.613935 
L 150.881928 -49.630319 
L 150.881928 -49.630319 
L 149.089157 -49.630319 
L 149.089157 -50.068498 
L 147.296386 -50.068498 
L 147.296386 -50.357771 
L 145.503614 -50.357771 
L 145.503614 -50.588848 
L 143.710843 -50.588848 
L 143.710843 -50.852546 
L 141.918072 -50.852546 
L 141.918072 -51.171344 
L 140.125301 -51.171344 
L 140.125301 -51.468849 
L 138.33253 -51.468849 
L 138.33253 -51.610381 
L 136.539759 -51.610381 
L 136.539759 -51.537932 
L 134.746988 -51.537932 
L 134.746988 -51.376584 
L 132.954217 -51.376584 
L 132.954217 -51.353548 
L 131.161446 -51.353548 
L 131.161446 -51.577941 
L 129.368675 -51.577941 
L 129.368675 -51.916563 
L 127.575904 -51.916563 
L 127.575904 -52.101834 
L 125.783133 -52.101834 
L 125.783133 -51.961728 
L 123.990361 -51.961728 
L 123.990361 -51.56619 
L 122.19759 -51.56619 
L 122.19759 -51.182416 
L 120.404819 -51.182416 
L 120.404819 -51.077112 
L 118.612048 -51.077112 
L 118.612048 -51.307523 
L 116.819277 -51.307523 
L 116.819277 -51.664941 
L 115.026506 -51.664941 
L 115.026506 -51.823474 
L 113.233735 -51.823474 
L 113.233735 -51.579616 
L 111.440964 -51.579616 
L 111.440964 -50.999269 
L 109.648193 -50.999269 
L 109.648193 -50.361456 
L 107.855422 -50.361456 
L 107.855422 -49.938349 
L 106.062651 -49.938349 
L 106.062651 -49.793541 
L 104.26988 -49.793541 
L 104.26988 -49.77209 
L 102.477108 -49.77209 
L 102.477108 -49.668328 
L 100.684337 -49.668328 
L 100.684337 -49.398793 
L 98.891566 -49.398793 
L 98.891566 -49.044252 
L 97.098795 -49.044252 
L 97.098795 -48.765134 
L 95.306024 -48.765134 
L 95.306024 -48.678171 
L 93.513253 -48.678171 
L 93.513253 -48.777938 
L 91.720482 -48.777938 
L 91.720482 -48.945278 
L 89.927711 -48.945278 
L 89.927711 -49.032555 
L 88.13494 -49.032555 
L 88.13494 -48.965839 
L 86.342169 -48.965839 
L 86.342169 -48.791582 
L 84.549398 -48.791582 
L 84.549398 -48.635121 
L 82.756627 -48.635121 
L 82.756627 -48.601038 
L 80.963855 -48.601038 
L 80.963855 -48.688668 
L 79.171084 -48.688668 
L 79.171084 -48.791437 
L 77.378313 -48.791437 
L 77.378313 -48.782743 
L 75.585542 -48.782743 
L 75.585542 -48.611237 
L 73.792771 -48.611237 
L 73.792771 -48.325076 
L 72 -48.325076 
L 72 -48.021935 
z
" id="m97a9a13fa7"/>
    </defs>
    <g clip-path="url(#p69dc8bfadb)">
     <use style="fill:#8c564b;" x="0" xlink:href="#m97a9a13fa7" y="432"/>
    </g>
   </g>
   <g id="PolyCollection_17">
    <defs>
     <path d="M 72 -48.338139 
L 72 -48.021935 
L 72 -48.325076 
L 73.792771 -48.325076 
L 73.792771 -48.611237 
L 75.585542 -48.611237 
L 75.585542 -48.782743 
L 77.378313 -48.782743 
L 77.378313 -48.791437 
L 79.171084 -48.791437 
L 79.171084 -48.688668 
L 80.963855 -48.688668 
L 80.963855 -48.601038 
L 82.756627 -48.601038 
L 82.756627 -48.635121 
L 84.549398 -48.635121 
L 84.549398 -48.791582 
L 86.342169 -48.791582 
L 86.342169 -48.965839 
L 88.13494 -48.965839 
L 88.13494 -49.032555 
L 89.927711 -49.032555 
L 89.927711 -48.945278 
L 91.720482 -48.945278 
L 91.720482 -48.777938 
L 93.513253 -48.777938 
L 93.513253 -48.678171 
L 95.306024 -48.678171 
L 95.306024 -48.765134 
L 97.098795 -48.765134 
L 97.098795 -49.044252 
L 98.891566 -49.044252 
L 98.891566 -49.398793 
L 100.684337 -49.398793 
L 100.684337 -49.668328 
L 102.477108 -49.668328 
L 102.477108 -49.77209 
L 104.26988 -49.77209 
L 104.26988 -49.793541 
L 106.062651 -49.793541 
L 106.062651 -49.938349 
L 107.855422 -49.938349 
L 107.855422 -50.361456 
L 109.648193 -50.361456 
L 109.648193 -50.999269 
L 111.440964 -50.999269 
L 111.440964 -51.579616 
L 113.233735 -51.579616 
L 113.233735 -51.823474 
L 115.026506 -51.823474 
L 115.026506 -51.664941 
L 116.819277 -51.664941 
L 116.819277 -51.307523 
L 118.612048 -51.307523 
L 118.612048 -51.077112 
L 120.404819 -51.077112 
L 120.404819 -51.182416 
L 122.19759 -51.182416 
L 122.19759 -51.56619 
L 123.990361 -51.56619 
L 123.990361 -51.961728 
L 125.783133 -51.961728 
L 125.783133 -52.101834 
L 127.575904 -52.101834 
L 127.575904 -51.916563 
L 129.368675 -51.916563 
L 129.368675 -51.577941 
L 131.161446 -51.577941 
L 131.161446 -51.353548 
L 132.954217 -51.353548 
L 132.954217 -51.376584 
L 134.746988 -51.376584 
L 134.746988 -51.537932 
L 136.539759 -51.537932 
L 136.539759 -51.610381 
L 138.33253 -51.610381 
L 138.33253 -51.468849 
L 140.125301 -51.468849 
L 140.125301 -51.171344 
L 141.918072 -51.171344 
L 141.918072 -50.852546 
L 143.710843 -50.852546 
L 143.710843 -50.588848 
L 145.503614 -50.588848 
L 145.503614 -50.357771 
L 147.296386 -50.357771 
L 147.296386 -50.068498 
L 149.089157 -50.068498 
L 149.089157 -49.630319 
L 150.881928 -49.630319 
L 150.881928 -51.1978 
L 150.881928 -51.1978 
L 149.089157 -51.1978 
L 149.089157 -51.692662 
L 147.296386 -51.692662 
L 147.296386 -51.969738 
L 145.503614 -51.969738 
L 145.503614 -52.384071 
L 143.710843 -52.384071 
L 143.710843 -53.139527 
L 141.918072 -53.139527 
L 141.918072 -54.098866 
L 140.125301 -54.098866 
L 140.125301 -54.87791 
L 138.33253 -54.87791 
L 138.33253 -55.130536 
L 136.539759 -55.130536 
L 136.539759 -54.844376 
L 134.746988 -54.844376 
L 134.746988 -54.403138 
L 132.954217 -54.403138 
L 132.954217 -54.291126 
L 131.161446 -54.291126 
L 131.161446 -54.670172 
L 129.368675 -54.670172 
L 129.368675 -55.245971 
L 127.575904 -55.245971 
L 127.575904 -55.542783 
L 125.783133 -55.542783 
L 125.783133 -55.303526 
L 123.990361 -55.303526 
L 123.990361 -54.687221 
L 122.19759 -54.687221 
L 122.19759 -54.149249 
L 120.404819 -54.149249 
L 120.404819 -54.093815 
L 118.612048 -54.093815 
L 118.612048 -54.543717 
L 116.819277 -54.543717 
L 116.819277 -55.103386 
L 115.026506 -55.103386 
L 115.026506 -55.257453 
L 113.233735 -55.257453 
L 113.233735 -54.756537 
L 111.440964 -54.756537 
L 111.440964 -53.798487 
L 109.648193 -53.798487 
L 109.648193 -52.881444 
L 107.855422 -52.881444 
L 107.855422 -52.427232 
L 106.062651 -52.427232 
L 106.062651 -52.468047 
L 104.26988 -52.468047 
L 104.26988 -52.664465 
L 102.477108 -52.664465 
L 102.477108 -52.614762 
L 100.684337 -52.614762 
L 100.684337 -52.15667 
L 98.891566 -52.15667 
L 98.891566 -51.437412 
L 97.098795 -51.437412 
L 97.098795 -50.763876 
L 95.306024 -50.763876 
L 95.306024 -50.375166 
L 93.513253 -50.375166 
L 93.513253 -50.287291 
L 91.720482 -50.287291 
L 91.720482 -50.310342 
L 89.927711 -50.310342 
L 89.927711 -50.2201 
L 88.13494 -50.2201 
L 88.13494 -49.937671 
L 86.342169 -49.937671 
L 86.342169 -49.571539 
L 84.549398 -49.571539 
L 84.549398 -49.308465 
L 82.756627 -49.308465 
L 82.756627 -49.259284 
L 80.963855 -49.259284 
L 80.963855 -49.378222 
L 79.171084 -49.378222 
L 79.171084 -49.502873 
L 77.378313 -49.502873 
L 77.378313 -49.470069 
L 75.585542 -49.470069 
L 75.585542 -49.215648 
L 73.792771 -49.215648 
L 73.792771 -48.796146 
L 72 -48.796146 
L 72 -48.338139 
z
" id="mbed94c2905"/>
    </defs>
    <g clip-path="url(#p69dc8bfadb)">
     <use style="fill:#9467bd;" x="0" xlink:href="#mbed94c2905" y="432"/>
    </g>
   </g>
   <g id="PolyCollection_18">
    <defs>
     <path d="M 72 -48.563356 
L 72 -48.338139 
L 72 -48.796146 
L 73.792771 -48.796146 
L 73.792771 -49.215648 
L 75.585542 -49.215648 
L 75.585542 -49.470069 
L 77.378313 -49.470069 
L 77.378313 -49.502873 
L 79.171084 -49.502873 
L 79.171084 -49.378222 
L 80.963855 -49.378222 
L 80.963855 -49.259284 
L 82.756627 -49.259284 
L 82.756627 -49.308465 
L 84.549398 -49.308465 
L 84.549398 -49.571539 
L 86.342169 -49.571539 
L 86.342169 -49.937671 
L 88.13494 -49.937671 
L 88.13494 -50.2201 
L 89.927711 -50.2201 
L 89.927711 -50.310342 
L 91.720482 -50.310342 
L 91.720482 -50.287291 
L 93.513253 -50.287291 
L 93.513253 -50.375166 
L 95.306024 -50.375166 
L 95.306024 -50.763876 
L 97.098795 -50.763876 
L 97.098795 -51.437412 
L 98.891566 -51.437412 
L 98.891566 -52.15667 
L 100.684337 -52.15667 
L 100.684337 -52.614762 
L 102.477108 -52.614762 
L 102.477108 -52.664465 
L 104.26988 -52.664465 
L 104.26988 -52.468047 
L 106.062651 -52.468047 
L 106.062651 -52.427232 
L 107.855422 -52.427232 
L 107.855422 -52.881444 
L 109.648193 -52.881444 
L 109.648193 -53.798487 
L 111.440964 -53.798487 
L 111.440964 -54.756537 
L 113.233735 -54.756537 
L 113.233735 -55.257453 
L 115.026506 -55.257453 
L 115.026506 -55.103386 
L 116.819277 -55.103386 
L 116.819277 -54.543717 
L 118.612048 -54.543717 
L 118.612048 -54.093815 
L 120.404819 -54.093815 
L 120.404819 -54.149249 
L 122.19759 -54.149249 
L 122.19759 -54.687221 
L 123.990361 -54.687221 
L 123.990361 -55.303526 
L 125.783133 -55.303526 
L 125.783133 -55.542783 
L 127.575904 -55.542783 
L 127.575904 -55.245971 
L 129.368675 -55.245971 
L 129.368675 -54.670172 
L 131.161446 -54.670172 
L 131.161446 -54.291126 
L 132.954217 -54.291126 
L 132.954217 -54.403138 
L 134.746988 -54.403138 
L 134.746988 -54.844376 
L 136.539759 -54.844376 
L 136.539759 -55.130536 
L 138.33253 -55.130536 
L 138.33253 -54.87791 
L 140.125301 -54.87791 
L 140.125301 -54.098866 
L 141.918072 -54.098866 
L 141.918072 -53.139527 
L 143.710843 -53.139527 
L 143.710843 -52.384071 
L 145.503614 -52.384071 
L 145.503614 -51.969738 
L 147.296386 -51.969738 
L 147.296386 -51.692662 
L 149.089157 -51.692662 
L 149.089157 -51.1978 
L 150.881928 -51.1978 
L 150.881928 -54.791166 
L 150.881928 -54.791166 
L 149.089157 -54.791166 
L 149.089157 -55.396837 
L 147.296386 -55.396837 
L 147.296386 -55.701079 
L 145.503614 -55.701079 
L 145.503614 -56.713255 
L 143.710843 -56.713255 
L 143.710843 -58.845156 
L 141.918072 -58.845156 
L 141.918072 -61.438685 
L 140.125301 -61.438685 
L 140.125301 -63.253044 
L 138.33253 -63.253044 
L 138.33253 -63.429276 
L 136.539759 -63.429276 
L 136.539759 -62.16576 
L 134.746988 -62.16576 
L 134.746988 -60.585074 
L 132.954217 -60.585074 
L 132.954217 -59.852464 
L 131.161446 -59.852464 
L 131.161446 -60.267805 
L 129.368675 -60.267805 
L 129.368675 -61.145716 
L 127.575904 -61.145716 
L 127.575904 -61.503688 
L 125.783133 -61.503688 
L 125.783133 -60.858901 
L 123.990361 -60.858901 
L 123.990361 -59.547023 
L 122.19759 -59.547023 
L 122.19759 -58.443255 
L 120.404819 -58.443255 
L 120.404819 -58.279031 
L 118.612048 -58.279031 
L 118.612048 -59.036302 
L 116.819277 -59.036302 
L 116.819277 -59.954246 
L 115.026506 -59.954246 
L 115.026506 -60.139476 
L 113.233735 -60.139476 
L 113.233735 -59.217042 
L 111.440964 -59.217042 
L 111.440964 -57.553755 
L 109.648193 -57.553755 
L 109.648193 -55.975542 
L 107.855422 -55.975542 
L 107.855422 -55.167386 
L 106.062651 -55.167386 
L 106.062651 -55.182354 
L 104.26988 -55.182354 
L 104.26988 -55.477417 
L 102.477108 -55.477417 
L 102.477108 -55.411464 
L 100.684337 -55.411464 
L 100.684337 -54.719145 
L 98.891566 -54.719145 
L 98.891566 -53.6204 
L 97.098795 -53.6204 
L 97.098795 -52.595003 
L 95.306024 -52.595003 
L 95.306024 -52.022118 
L 93.513253 -52.022118 
L 93.513253 -51.923151 
L 91.720482 -51.923151 
L 91.720482 -51.991931 
L 89.927711 -51.991931 
L 89.927711 -51.870133 
L 88.13494 -51.870133 
L 88.13494 -51.417999 
L 86.342169 -51.417999 
L 86.342169 -50.780683 
L 84.549398 -50.780683 
L 84.549398 -50.244234 
L 82.756627 -50.244234 
L 82.756627 -50.008524 
L 80.963855 -50.008524 
L 80.963855 -50.044032 
L 79.171084 -50.044032 
L 79.171084 -50.134747 
L 77.378313 -50.134747 
L 77.378313 -50.052009 
L 75.585542 -50.052009 
L 75.585542 -49.70219 
L 73.792771 -49.70219 
L 73.792771 -49.153237 
L 72 -49.153237 
L 72 -48.563356 
z
" id="maed93dcb3e"/>
    </defs>
    <g clip-path="url(#p69dc8bfadb)">
     <use style="fill:#d62728;" x="0" xlink:href="#maed93dcb3e" y="432"/>
    </g>
   </g>
   <g id="PolyCollection_19">
    <defs>
     <path d="M 72 -49.073481 
L 72 -48.563356 
L 72 -49.153237 
L 73.792771 -49.153237 
L 73.792771 -49.70219 
L 75.585542 -49.70219 
L 75.585542 -50.052009 
L 77.378313 -50.052009 
L 77.378313 -50.134747 
L 79.171084 -50.134747 
L 79.171084 -50.044032 
L 80.963855 -50.044032 
L 80.963855 -50.008524 
L 82.756627 -50.008524 
L 82.756627 -50.244234 
L 84.549398 -50.244234 
L 84.549398 -50.780683 
L 86.342169 -50.780683 
L 86.342169 -51.417999 
L 88.13494 -51.417999 
L 88.13494 -51.870133 
L 89.927711 -51.870133 
L 89.927711 -51.991931 
L 91.720482 -51.991931 
L 91.720482 -51.923151 
L 93.513253 -51.923151 
L 93.513253 -52.022118 
L 95.306024 -52.022118 
L 95.306024 -52.595003 
L 97.098795 -52.595003 
L 97.098795 -53.6204 
L 98.891566 -53.6204 
L 98.891566 -54.719145 
L 100.684337 -54.719145 
L 100.684337 -55.411464 
L 102.477108 -55.411464 
L 102.477108 -55.477417 
L 104.26988 -55.477417 
L 104.26988 -55.182354 
L 106.062651 -55.182354 
L 106.062651 -55.167386 
L 107.855422 -55.167386 
L 107.855422 -55.975542 
L 109.648193 -55.975542 
L 109.648193 -57.553755 
L 111.440964 -57.553755 
L 111.440964 -59.217042 
L 113.233735 -59.217042 
L 113.233735 -60.139476 
L 115.026506 -60.139476 
L 115.026506 -59.954246 
L 116.819277 -59.954246 
L 116.819277 -59.036302 
L 118.612048 -59.036302 
L 118.612048 -58.279031 
L 120.404819 -58.279031 
L 120.404819 -58.443255 
L 122.19759 -58.443255 
L 122.19759 -59.547023 
L 123.990361 -59.547023 
L 123.990361 -60.858901 
L 125.783133 -60.858901 
L 125.783133 -61.503688 
L 127.575904 -61.503688 
L 127.575904 -61.145716 
L 129.368675 -61.145716 
L 129.368675 -60.267805 
L 131.161446 -60.267805 
L 131.161446 -59.852464 
L 132.954217 -59.852464 
L 132.954217 -60.585074 
L 134.746988 -60.585074 
L 134.746988 -62.16576 
L 136.539759 -62.16576 
L 136.539759 -63.429276 
L 138.33253 -63.429276 
L 138.33253 -63.253044 
L 140.125301 -63.253044 
L 140.125301 -61.438685 
L 141.918072 -61.438685 
L 141.918072 -58.845156 
L 143.710843 -58.845156 
L 143.710843 -56.713255 
L 145.503614 -56.713255 
L 145.503614 -55.701079 
L 147.296386 -55.701079 
L 147.296386 -55.396837 
L 149.089157 -55.396837 
L 149.089157 -54.791166 
L 150.881928 -54.791166 
L 150.881928 -58.844322 
L 150.881928 -58.844322 
L 149.089157 -58.844322 
L 149.089157 -59.57936 
L 147.296386 -59.57936 
L 147.296386 -59.85795 
L 145.503614 -59.85795 
L 145.503614 -61.390052 
L 143.710843 -61.390052 
L 143.710843 -64.858659 
L 141.918072 -64.858659 
L 141.918072 -69.144244 
L 140.125301 -69.144244 
L 140.125301 -72.200618 
L 138.33253 -72.200618 
L 138.33253 -72.685038 
L 136.539759 -72.685038 
L 136.539759 -70.962023 
L 134.746988 -70.962023 
L 134.746988 -68.740987 
L 132.954217 -68.740987 
L 132.954217 -67.683065 
L 131.161446 -67.683065 
L 131.161446 -68.144342 
L 129.368675 -68.144342 
L 129.368675 -69.117313 
L 127.575904 -69.117313 
L 127.575904 -69.258414 
L 125.783133 -69.258414 
L 125.783133 -67.985262 
L 123.990361 -67.985262 
L 123.990361 -65.860087 
L 122.19759 -65.860087 
L 122.19759 -64.142308 
L 120.404819 -64.142308 
L 120.404819 -63.816855 
L 118.612048 -63.816855 
L 118.612048 -64.783393 
L 116.819277 -64.783393 
L 116.819277 -65.93188 
L 115.026506 -65.93188 
L 115.026506 -66.039959 
L 113.233735 -66.039959 
L 113.233735 -64.665187 
L 111.440964 -64.665187 
L 111.440964 -62.397409 
L 109.648193 -62.397409 
L 109.648193 -60.408811 
L 107.855422 -60.408811 
L 107.855422 -59.587976 
L 106.062651 -59.587976 
L 106.062651 -59.86687 
L 104.26988 -59.86687 
L 104.26988 -60.342549 
L 102.477108 -60.342549 
L 102.477108 -60.072911 
L 100.684337 -60.072911 
L 100.684337 -58.782534 
L 98.891566 -58.782534 
L 98.891566 -56.952966 
L 97.098795 -56.952966 
L 97.098795 -55.383698 
L 95.306024 -55.383698 
L 95.306024 -54.608194 
L 93.513253 -54.608194 
L 93.513253 -54.559666 
L 91.720482 -54.559666 
L 91.720482 -54.700432 
L 89.927711 -54.700432 
L 89.927711 -54.471948 
L 88.13494 -54.471948 
L 88.13494 -53.68318 
L 86.342169 -53.68318 
L 86.342169 -52.581397 
L 84.549398 -52.581397 
L 84.549398 -51.625061 
L 82.756627 -51.625061 
L 82.756627 -51.142547 
L 80.963855 -51.142547 
L 80.963855 -51.114181 
L 79.171084 -51.114181 
L 79.171084 -51.229114 
L 77.378313 -51.229114 
L 77.378313 -51.1388 
L 75.585542 -51.1388 
L 75.585542 -50.678265 
L 73.792771 -50.678265 
L 73.792771 -49.917751 
L 72 -49.917751 
L 72 -49.073481 
z
" id="m9a9e1428b3"/>
    </defs>
    <g clip-path="url(#p69dc8bfadb)">
     <use style="fill:#2ca02c;" x="0" xlink:href="#m9a9e1428b3" y="432"/>
    </g>
   </g>
   <g id="PolyCollection_20">
    <defs>
     <path d="M 72 -50.347811 
L 72 -49.073481 
L 72 -49.917751 
L 73.792771 -49.917751 
L 73.792771 -50.678265 
L 75.585542 -50.678265 
L 75.585542 -51.1388 
L 77.378313 -51.1388 
L 77.378313 -51.229114 
L 79.171084 -51.229114 
L 79.171084 -51.114181 
L 80.963855 -51.114181 
L 80.963855 -51.142547 
L 82.756627 -51.142547 
L 82.756627 -51.625061 
L 84.549398 -51.625061 
L 84.549398 -52.581397 
L 86.342169 -52.581397 
L 86.342169 -53.68318 
L 88.13494 -53.68318 
L 88.13494 -54.471948 
L 89.927711 -54.471948 
L 89.927711 -54.700432 
L 91.720482 -54.700432 
L 91.720482 -54.559666 
L 93.513253 -54.559666 
L 93.513253 -54.608194 
L 95.306024 -54.608194 
L 95.306024 -55.383698 
L 97.098795 -55.383698 
L 97.098795 -56.952966 
L 98.891566 -56.952966 
L 98.891566 -58.782534 
L 100.684337 -58.782534 
L 100.684337 -60.072911 
L 102.477108 -60.072911 
L 102.477108 -60.342549 
L 104.26988 -60.342549 
L 104.26988 -59.86687 
L 106.062651 -59.86687 
L 106.062651 -59.587976 
L 107.855422 -59.587976 
L 107.855422 -60.408811 
L 109.648193 -60.408811 
L 109.648193 -62.397409 
L 111.440964 -62.397409 
L 111.440964 -64.665187 
L 113.233735 -64.665187 
L 113.233735 -66.039959 
L 115.026506 -66.039959 
L 115.026506 -65.93188 
L 116.819277 -65.93188 
L 116.819277 -64.783393 
L 118.612048 -64.783393 
L 118.612048 -63.816855 
L 120.404819 -63.816855 
L 120.404819 -64.142308 
L 122.19759 -64.142308 
L 122.19759 -65.860087 
L 123.990361 -65.860087 
L 123.990361 -67.985262 
L 125.783133 -67.985262 
L 125.783133 -69.258414 
L 127.575904 -69.258414 
L 127.575904 -69.117313 
L 129.368675 -69.117313 
L 129.368675 -68.144342 
L 131.161446 -68.144342 
L 131.161446 -67.683065 
L 132.954217 -67.683065 
L 132.954217 -68.740987 
L 134.746988 -68.740987 
L 134.746988 -70.962023 
L 136.539759 -70.962023 
L 136.539759 -72.685038 
L 138.33253 -72.685038 
L 138.33253 -72.200618 
L 140.125301 -72.200618 
L 140.125301 -69.144244 
L 141.918072 -69.144244 
L 141.918072 -64.858659 
L 143.710843 -64.858659 
L 143.710843 -61.390052 
L 145.503614 -61.390052 
L 145.503614 -59.85795 
L 147.296386 -59.85795 
L 147.296386 -59.57936 
L 149.089157 -59.57936 
L 149.089157 -58.844322 
L 150.881928 -58.844322 
L 150.881928 -63.371656 
L 150.881928 -63.371656 
L 149.089157 -63.371656 
L 149.089157 -64.279891 
L 147.296386 -64.279891 
L 147.296386 -64.632906 
L 145.503614 -64.632906 
L 145.503614 -66.896109 
L 143.710843 -66.896109 
L 143.710843 -71.898246 
L 141.918072 -71.898246 
L 141.918072 -77.735593 
L 140.125301 -77.735593 
L 140.125301 -81.30754 
L 138.33253 -81.30754 
L 138.33253 -80.997248 
L 136.539759 -80.997248 
L 136.539759 -78.012207 
L 134.746988 -78.012207 
L 134.746988 -75.251938 
L 132.954217 -75.251938 
L 132.954217 -74.829433 
L 131.161446 -74.829433 
L 131.161446 -76.487899 
L 129.368675 -76.487899 
L 129.368675 -78.282882 
L 127.575904 -78.282882 
L 127.575904 -78.564632 
L 125.783133 -78.564632 
L 125.783133 -77.086919 
L 123.990361 -77.086919 
L 123.990361 -74.584614 
L 122.19759 -74.584614 
L 122.19759 -72.048205 
L 120.404819 -72.048205 
L 120.404819 -70.405829 
L 118.612048 -70.405829 
L 118.612048 -70.119837 
L 116.819277 -70.119837 
L 116.819277 -70.692485 
L 115.026506 -70.692485 
L 115.026506 -70.863209 
L 113.233735 -70.863209 
L 113.233735 -69.6259 
L 111.440964 -69.6259 
L 111.440964 -67.164112 
L 109.648193 -67.164112 
L 109.648193 -64.755117 
L 107.855422 -64.755117 
L 107.855422 -63.634445 
L 106.062651 -63.634445 
L 106.062651 -63.89554 
L 104.26988 -63.89554 
L 104.26988 -64.505567 
L 102.477108 -64.505567 
L 102.477108 -64.274966 
L 100.684337 -64.274966 
L 100.684337 -62.75223 
L 98.891566 -62.75223 
L 98.891566 -60.419646 
L 97.098795 -60.419646 
L 97.098795 -58.274321 
L 95.306024 -58.274321 
L 95.306024 -57.133149 
L 93.513253 -57.133149 
L 93.513253 -57.091143 
L 91.720482 -57.091143 
L 91.720482 -57.52215 
L 89.927711 -57.52215 
L 89.927711 -57.609656 
L 88.13494 -57.609656 
L 88.13494 -56.931983 
L 86.342169 -56.931983 
L 86.342169 -55.661362 
L 84.549398 -55.661362 
L 84.549398 -54.3552 
L 82.756627 -54.3552 
L 82.756627 -53.555435 
L 80.963855 -53.555435 
L 80.963855 -53.426543 
L 79.171084 -53.426543 
L 79.171084 -53.646061 
L 77.378313 -53.646061 
L 77.378313 -53.647199 
L 75.585542 -53.647199 
L 75.585542 -53.029505 
L 73.792771 -53.029505 
L 73.792771 -51.808753 
L 72 -51.808753 
L 72 -50.347811 
z
" id="mef6912627b"/>
    </defs>
    <g clip-path="url(#p69dc8bfadb)">
     <use style="fill:#ff7f0e;" x="0" xlink:href="#mef6912627b" y="432"/>
    </g>
   </g>
   <g id="PolyCollection_21">
    <defs>
     <path d="M 72 -51.123608 
L 72 -50.347811 
L 72 -51.808753 
L 73.792771 -51.808753 
L 73.792771 -53.029505 
L 75.585542 -53.029505 
L 75.585542 -53.647199 
L 77.378313 -53.647199 
L 77.378313 -53.646061 
L 79.171084 -53.646061 
L 79.171084 -53.426543 
L 80.963855 -53.426543 
L 80.963855 -53.555435 
L 82.756627 -53.555435 
L 82.756627 -54.3552 
L 84.549398 -54.3552 
L 84.549398 -55.661362 
L 86.342169 -55.661362 
L 86.342169 -56.931983 
L 88.13494 -56.931983 
L 88.13494 -57.609656 
L 89.927711 -57.609656 
L 89.927711 -57.52215 
L 91.720482 -57.52215 
L 91.720482 -57.091143 
L 93.513253 -57.091143 
L 93.513253 -57.133149 
L 95.306024 -57.133149 
L 95.306024 -58.274321 
L 97.098795 -58.274321 
L 97.098795 -60.419646 
L 98.891566 -60.419646 
L 98.891566 -62.75223 
L 100.684337 -62.75223 
L 100.684337 -64.274966 
L 102.477108 -64.274966 
L 102.477108 -64.505567 
L 104.26988 -64.505567 
L 104.26988 -63.89554 
L 106.062651 -63.89554 
L 106.062651 -63.634445 
L 107.855422 -63.634445 
L 107.855422 -64.755117 
L 109.648193 -64.755117 
L 109.648193 -67.164112 
L 111.440964 -67.164112 
L 111.440964 -69.6259 
L 113.233735 -69.6259 
L 113.233735 -70.863209 
L 115.026506 -70.863209 
L 115.026506 -70.692485 
L 116.819277 -70.692485 
L 116.819277 -70.119837 
L 118.612048 -70.119837 
L 118.612048 -70.405829 
L 120.404819 -70.405829 
L 120.404819 -72.048205 
L 122.19759 -72.048205 
L 122.19759 -74.584614 
L 123.990361 -74.584614 
L 123.990361 -77.086919 
L 125.783133 -77.086919 
L 125.783133 -78.564632 
L 127.575904 -78.564632 
L 127.575904 -78.282882 
L 129.368675 -78.282882 
L 129.368675 -76.487899 
L 131.161446 -76.487899 
L 131.161446 -74.829433 
L 132.954217 -74.829433 
L 132.954217 -75.251938 
L 134.746988 -75.251938 
L 134.746988 -78.012207 
L 136.539759 -78.012207 
L 136.539759 -80.997248 
L 138.33253 -80.997248 
L 138.33253 -81.30754 
L 140.125301 -81.30754 
L 140.125301 -77.735593 
L 141.918072 -77.735593 
L 141.918072 -71.898246 
L 143.710843 -71.898246 
L 143.710843 -66.896109 
L 145.503614 -66.896109 
L 145.503614 -64.632906 
L 147.296386 -64.632906 
L 147.296386 -64.279891 
L 149.089157 -64.279891 
L 149.089157 -63.371656 
L 150.881928 -63.371656 
L 150.881928 -91.315614 
L 150.881928 -91.315614 
L 149.089157 -91.315614 
L 149.089157 -92.930589 
L 147.296386 -92.930589 
L 147.296386 -92.542331 
L 145.503614 -92.542331 
L 145.503614 -97.084051 
L 143.710843 -97.084051 
L 143.710843 -109.273348 
L 141.918072 -109.273348 
L 141.918072 -124.727915 
L 140.125301 -124.727915 
L 140.125301 -135.581113 
L 138.33253 -135.581113 
L 138.33253 -136.73487 
L 136.539759 -136.73487 
L 136.539759 -129.423704 
L 134.746988 -129.423704 
L 134.746988 -119.772802 
L 132.954217 -119.772802 
L 132.954217 -113.933289 
L 131.161446 -113.933289 
L 131.161446 -113.617455 
L 129.368675 -113.617455 
L 129.368675 -115.55147 
L 127.575904 -115.55147 
L 127.575904 -114.860898 
L 125.783133 -114.860898 
L 125.783133 -108.981121 
L 123.990361 -108.981121 
L 123.990361 -98.980973 
L 122.19759 -98.980973 
L 122.19759 -88.196153 
L 120.404819 -88.196153 
L 120.404819 -79.932845 
L 118.612048 -79.932845 
L 118.612048 -75.689319 
L 116.819277 -75.689319 
L 116.819277 -74.634246 
L 115.026506 -74.634246 
L 115.026506 -74.509732 
L 113.233735 -74.509732 
L 113.233735 -73.405146 
L 111.440964 -73.405146 
L 111.440964 -71.111819 
L 109.648193 -71.111819 
L 109.648193 -68.939867 
L 107.855422 -68.939867 
L 107.855422 -68.153294 
L 106.062651 -68.153294 
L 106.062651 -68.625105 
L 104.26988 -68.625105 
L 104.26988 -69.059566 
L 102.477108 -69.059566 
L 102.477108 -68.272791 
L 100.684337 -68.272791 
L 100.684337 -66.087266 
L 98.891566 -66.087266 
L 98.891566 -63.265929 
L 97.098795 -63.265929 
L 97.098795 -60.904529 
L 95.306024 -60.904529 
L 95.306024 -59.764918 
L 93.513253 -59.764918 
L 93.513253 -59.853434 
L 91.720482 -59.853434 
L 91.720482 -60.455117 
L 89.927711 -60.455117 
L 89.927711 -60.630301 
L 88.13494 -60.630301 
L 88.13494 -59.855185 
L 86.342169 -59.855185 
L 86.342169 -58.362392 
L 84.549398 -58.362392 
L 84.549398 -56.951831 
L 82.756627 -56.951831 
L 82.756627 -56.365288 
L 80.963855 -56.365288 
L 80.963855 -56.667196 
L 79.171084 -56.667196 
L 79.171084 -57.15344 
L 77.378313 -57.15344 
L 77.378313 -56.911962 
L 75.585542 -56.911962 
L 75.585542 -55.537588 
L 73.792771 -55.537588 
L 73.792771 -53.368098 
L 72 -53.368098 
L 72 -51.123608 
z
" id="m055bdc676f"/>
    </defs>
    <g clip-path="url(#p69dc8bfadb)">
     <use style="fill:#1f77b4;" x="0" xlink:href="#m055bdc676f" y="432"/>
    </g>
   </g>
  </g>
 </g>
 <defs>
  <clipPath id="p69dc8bfadb">
   <rect height="332.64" width="446.4" x="72" y="51.84"/>
  </clipPath>
 </defs>
</svg>
