<?xml version="1.0" encoding="utf-8" standalone="no"?>
<!DOCTYPE svg PUBLIC "-//W3C//DTD SVG 1.1//EN"
  "http://www.w3.org/Graphics/SVG/1.1/DTD/svg11.dtd">
<svg height="432pt" version="1.1" viewBox="0 0 576 432" width="576pt" xmlns="http://www.w3.org/2000/svg" xmlns:xlink="http://www.w3.org/1999/xlink">
 <metadata>
  <rdf:RDF xmlns:cc="http://creativecommons.org/ns#" xmlns:dc="http://purl.org/dc/elements/1.1/" xmlns:rdf="http://www.w3.org/1999/02/22-rdf-syntax-ns#">
   <cc:Work>
    <dc:type rdf:resource="http://purl.org/dc/dcmitype/StillImage"/>
    <dc:date>2021-06-11T14:12:12.443584</dc:date>
    <dc:format>image/svg+xml</dc:format>
    <dc:creator>
     <cc:Agent>
      <dc:title>Matplotlib v3.4.1, https://matplotlib.org/</dc:title>
     </cc:Agent>
    </dc:creator>
   </cc:Work>
  </rdf:RDF>
 </metadata>
 <defs>
  <style type="text/css">*{stroke-linecap:butt;stroke-linejoin:round;}</style>
 </defs>
 <g id="figure_1">
  <g id="patch_1">
   <path d="M 0 432 
L 576 432 
L 576 0 
L 0 0 
z
" style="fill:#ffffff;"/>
  </g>
  <g id="axes_1">
   <g id="patch_2">
    <path d="M 72 384.48 
L 518.4 384.48 
L 518.4 51.84 
L 72 51.84 
z
" style="fill:#ffffff;"/>
   </g>
   <g id="PolyCollection_1">
    <defs>
     <path d="M 151.108861 -47.52 
L 69.174684 -47.52 
L 69.174684 -380.16 
L 151.108861 -380.16 
L 151.108861 -380.16 
L 151.108861 -47.52 
z
" id="m6b55ab029e"/>
    </defs>
    <g clip-path="url(#p5778846deb)">
     <use style="fill:#ff0000;fill-opacity:0.35;" x="0" xlink:href="#m6b55ab029e" y="432"/>
    </g>
   </g>
   <g id="PolyCollection_2">
    <defs>
     <path d="M 269.772152 -47.52 
L 151.108861 -47.52 
L 151.108861 -380.16 
L 269.772152 -380.16 
L 269.772152 -380.16 
L 269.772152 -47.52 
z
" id="m054c878919"/>
    </defs>
    <g clip-path="url(#p5778846deb)">
     <use style="fill:#ffa500;fill-opacity:0.35;" x="0" xlink:href="#m054c878919" y="432"/>
    </g>
   </g>
   <g id="PolyCollection_3">
    <defs>
     <path d="M 433.640506 -47.52 
L 269.772152 -47.52 
L 269.772152 -380.16 
L 433.640506 -380.16 
L 433.640506 -380.16 
L 433.640506 -47.52 
z
" id="md8a61b8a6c"/>
    </defs>
    <g clip-path="url(#p5778846deb)">
     <use style="fill:#ffff00;fill-opacity:0.35;" x="0" xlink:href="#md8a61b8a6c" y="432"/>
    </g>
   </g>
   <g id="PolyCollection_4">
    <defs>
     <path d="M 436.465823 -47.52 
L 433.640506 -47.52 
L 433.640506 -380.16 
L 436.465823 -380.16 
L 436.465823 -380.16 
L 436.465823 -47.52 
z
" id="m75afc040c6"/>
    </defs>
    <g clip-path="url(#p5778846deb)">
     <use style="fill:#ffff00;fill-opacity:0.3;" x="0" xlink:href="#m75afc040c6" y="432"/>
    </g>
   </g>
   <g id="PolyCollection_5">
    <defs>
     <path d="M 439.291139 -47.52 
L 436.465823 -47.52 
L 436.465823 -380.16 
L 439.291139 -380.16 
L 439.291139 -380.16 
L 439.291139 -47.52 
z
" id="m1b5da76e58"/>
    </defs>
    <g clip-path="url(#p5778846deb)">
     <use style="fill:#ffff00;fill-opacity:0.27;" x="0" xlink:href="#m1b5da76e58" y="432"/>
    </g>
   </g>
   <g id="PolyCollection_6">
    <defs>
     <path d="M 442.116456 -47.52 
L 439.291139 -47.52 
L 439.291139 -380.16 
L 442.116456 -380.16 
L 442.116456 -380.16 
L 442.116456 -47.52 
z
" id="mb666604134"/>
    </defs>
    <g clip-path="url(#p5778846deb)">
     <use style="fill:#ffff00;fill-opacity:0.24;" x="0" xlink:href="#mb666604134" y="432"/>
    </g>
   </g>
   <g id="PolyCollection_7">
    <defs>
     <path d="M 444.941772 -47.52 
L 442.116456 -47.52 
L 442.116456 -380.16 
L 444.941772 -380.16 
L 444.941772 -380.16 
L 444.941772 -47.52 
z
" id="m036ec591d2"/>
    </defs>
    <g clip-path="url(#p5778846deb)">
     <use style="fill:#ffff00;fill-opacity:0.21;" x="0" xlink:href="#m036ec591d2" y="432"/>
    </g>
   </g>
   <g id="PolyCollection_8">
    <defs>
     <path d="M 447.767089 -47.52 
L 444.941772 -47.52 
L 444.941772 -380.16 
L 447.767089 -380.16 
L 447.767089 -380.16 
L 447.767089 -47.52 
z
" id="mb7012c83f6"/>
    </defs>
    <g clip-path="url(#p5778846deb)">
     <use style="fill:#ffff00;fill-opacity:0.18;" x="0" xlink:href="#mb7012c83f6" y="432"/>
    </g>
   </g>
   <g id="PolyCollection_9">
    <defs>
     <path d="M 450.592405 -47.52 
L 447.767089 -47.52 
L 447.767089 -380.16 
L 450.592405 -380.16 
L 450.592405 -380.16 
L 450.592405 -47.52 
z
" id="mf909e93f5e"/>
    </defs>
    <g clip-path="url(#p5778846deb)">
     <use style="fill:#ffff00;fill-opacity:0.15;" x="0" xlink:href="#mf909e93f5e" y="432"/>
    </g>
   </g>
   <g id="PolyCollection_10">
    <defs>
     <path d="M 453.417722 -47.52 
L 450.592405 -47.52 
L 450.592405 -380.16 
L 453.417722 -380.16 
L 453.417722 -380.16 
L 453.417722 -47.52 
z
" id="mfa932c987b"/>
    </defs>
    <g clip-path="url(#p5778846deb)">
     <use style="fill:#ffff00;fill-opacity:0.12;" x="0" xlink:href="#mfa932c987b" y="432"/>
    </g>
   </g>
   <g id="PolyCollection_11">
    <defs>
     <path d="M 456.243038 -47.52 
L 453.417722 -47.52 
L 453.417722 -380.16 
L 456.243038 -380.16 
L 456.243038 -380.16 
L 456.243038 -47.52 
z
" id="mf4abba4c95"/>
    </defs>
    <g clip-path="url(#p5778846deb)">
     <use style="fill:#ffff00;fill-opacity:0.09;" x="0" xlink:href="#mf4abba4c95" y="432"/>
    </g>
   </g>
   <g id="PolyCollection_12">
    <defs>
     <path d="M 459.068354 -47.52 
L 456.243038 -47.52 
L 456.243038 -380.16 
L 459.068354 -380.16 
L 459.068354 -380.16 
L 459.068354 -47.52 
z
" id="ma11c923b8d"/>
    </defs>
    <g clip-path="url(#p5778846deb)">
     <use style="fill:#ffff00;fill-opacity:0.06;" x="0" xlink:href="#ma11c923b8d" y="432"/>
    </g>
   </g>
   <g id="PolyCollection_13">
    <defs>
     <path d="M 461.893671 -47.52 
L 459.068354 -47.52 
L 459.068354 -380.16 
L 461.893671 -380.16 
L 461.893671 -380.16 
L 461.893671 -47.52 
z
" id="m6c10a1b8ac"/>
    </defs>
    <g clip-path="url(#p5778846deb)">
     <use style="fill:#ffff00;fill-opacity:0.03;" x="0" xlink:href="#m6c10a1b8ac" y="432"/>
    </g>
   </g>
   <g id="PolyCollection_14">
    <defs>
     <path d="M 72 -47.520665 
L 72 -47.52 
L 72 -47.52 
L 74.825316 -47.52 
L 74.825316 -47.52 
L 77.650633 -47.52 
L 77.650633 -47.52 
L 80.475949 -47.52 
L 80.475949 -47.52 
L 83.301266 -47.52 
L 83.301266 -47.52 
L 86.126582 -47.52 
L 86.126582 -47.52 
L 88.951899 -47.52 
L 88.951899 -47.52 
L 91.777215 -47.52 
L 91.777215 -47.52 
L 94.602532 -47.52 
L 94.602532 -47.52 
L 97.427848 -47.52 
L 97.427848 -47.52 
L 100.253165 -47.52 
L 100.253165 -47.52 
L 103.078481 -47.52 
L 103.078481 -47.52 
L 105.903797 -47.52 
L 105.903797 -47.52 
L 108.729114 -47.52 
L 108.729114 -47.52 
L 111.55443 -47.52 
L 111.55443 -47.52 
L 114.379747 -47.52 
L 114.379747 -47.52 
L 117.205063 -47.52 
L 117.205063 -47.52 
L 120.03038 -47.52 
L 120.03038 -47.52 
L 122.855696 -47.52 
L 122.855696 -47.52 
L 125.681013 -47.52 
L 125.681013 -47.52 
L 128.506329 -47.52 
L 128.506329 -47.52 
L 131.331646 -47.52 
L 131.331646 -47.52 
L 134.156962 -47.52 
L 134.156962 -47.52 
L 136.982278 -47.52 
L 136.982278 -47.52 
L 139.807595 -47.52 
L 139.807595 -47.52 
L 142.632911 -47.52 
L 142.632911 -47.52 
L 145.458228 -47.52 
L 145.458228 -47.52 
L 148.283544 -47.52 
L 148.283544 -47.52 
L 151.108861 -47.52 
L 151.108861 -47.52 
L 153.934177 -47.52 
L 153.934177 -47.52 
L 156.759494 -47.52 
L 156.759494 -47.52 
L 159.58481 -47.52 
L 159.58481 -47.52 
L 162.410127 -47.52 
L 162.410127 -47.52 
L 165.235443 -47.52 
L 165.235443 -47.52 
L 168.060759 -47.52 
L 168.060759 -47.52 
L 170.886076 -47.52 
L 170.886076 -47.52 
L 173.711392 -47.52 
L 173.711392 -47.52 
L 176.536709 -47.52 
L 176.536709 -47.52 
L 179.362025 -47.52 
L 179.362025 -47.52 
L 182.187342 -47.52 
L 182.187342 -47.52 
L 185.012658 -47.52 
L 185.012658 -47.52 
L 187.837975 -47.52 
L 187.837975 -47.52 
L 190.663291 -47.52 
L 190.663291 -47.52 
L 193.488608 -47.52 
L 193.488608 -47.52 
L 196.313924 -47.52 
L 196.313924 -47.52 
L 199.139241 -47.52 
L 199.139241 -47.52 
L 201.964557 -47.52 
L 201.964557 -47.52 
L 204.789873 -47.52 
L 204.789873 -47.52 
L 207.61519 -47.52 
L 207.61519 -47.52 
L 210.440506 -47.52 
L 210.440506 -47.52 
L 213.265823 -47.52 
L 213.265823 -47.52 
L 216.091139 -47.52 
L 216.091139 -47.52 
L 218.916456 -47.52 
L 218.916456 -47.52 
L 221.741772 -47.52 
L 221.741772 -47.52 
L 224.567089 -47.52 
L 224.567089 -47.52 
L 227.392405 -47.52 
L 227.392405 -47.52 
L 230.217722 -47.52 
L 230.217722 -47.52 
L 233.043038 -47.52 
L 233.043038 -47.52 
L 235.868354 -47.52 
L 235.868354 -47.52 
L 238.693671 -47.52 
L 238.693671 -47.52 
L 241.518987 -47.52 
L 241.518987 -47.52 
L 244.344304 -47.52 
L 244.344304 -47.52 
L 247.16962 -47.52 
L 247.16962 -47.52 
L 249.994937 -47.52 
L 249.994937 -47.52 
L 252.820253 -47.52 
L 252.820253 -47.52 
L 255.64557 -47.52 
L 255.64557 -47.52 
L 258.470886 -47.52 
L 258.470886 -47.52 
L 261.296203 -47.52 
L 261.296203 -47.52 
L 264.121519 -47.52 
L 264.121519 -47.52 
L 266.946835 -47.52 
L 266.946835 -47.52 
L 269.772152 -47.52 
L 269.772152 -47.52 
L 272.597468 -47.52 
L 272.597468 -47.52 
L 275.422785 -47.52 
L 275.422785 -47.52 
L 278.248101 -47.52 
L 278.248101 -47.52 
L 281.073418 -47.52 
L 281.073418 -47.52 
L 283.898734 -47.52 
L 283.898734 -47.52 
L 286.724051 -47.52 
L 286.724051 -47.52 
L 289.549367 -47.52 
L 289.549367 -47.52 
L 292.374684 -47.52 
L 292.374684 -47.52 
L 295.2 -47.52 
L 295.2 -47.52 
L 298.025316 -47.52 
L 298.025316 -47.52 
L 300.850633 -47.52 
L 300.850633 -47.52 
L 303.675949 -47.52 
L 303.675949 -47.52 
L 306.501266 -47.52 
L 306.501266 -47.52 
L 309.326582 -47.52 
L 309.326582 -47.52 
L 312.151899 -47.52 
L 312.151899 -47.52 
L 314.977215 -47.52 
L 314.977215 -47.52 
L 317.802532 -47.52 
L 317.802532 -47.52 
L 320.627848 -47.52 
L 320.627848 -47.52 
L 323.453165 -47.52 
L 323.453165 -47.52 
L 326.278481 -47.52 
L 326.278481 -47.52 
L 329.103797 -47.52 
L 329.103797 -47.52 
L 331.929114 -47.52 
L 331.929114 -47.52 
L 334.75443 -47.52 
L 334.75443 -47.52 
L 337.579747 -47.52 
L 337.579747 -47.52 
L 340.405063 -47.52 
L 340.405063 -47.52 
L 343.23038 -47.52 
L 343.23038 -47.52 
L 346.055696 -47.52 
L 346.055696 -47.52 
L 348.881013 -47.52 
L 348.881013 -47.52 
L 351.706329 -47.52 
L 351.706329 -47.52 
L 354.531646 -47.52 
L 354.531646 -47.52 
L 357.356962 -47.52 
L 357.356962 -47.52 
L 360.182278 -47.52 
L 360.182278 -47.52 
L 363.007595 -47.52 
L 363.007595 -47.52 
L 365.832911 -47.52 
L 365.832911 -47.52 
L 368.658228 -47.52 
L 368.658228 -47.52 
L 371.483544 -47.52 
L 371.483544 -47.52 
L 374.308861 -47.52 
L 374.308861 -47.52 
L 377.134177 -47.52 
L 377.134177 -47.52 
L 379.959494 -47.52 
L 379.959494 -83.319155 
L 379.959494 -83.319155 
L 377.134177 -83.319155 
L 377.134177 -82.41212 
L 374.308861 -82.41212 
L 374.308861 -81.57288 
L 371.483544 -81.57288 
L 371.483544 -80.769966 
L 368.658228 -80.769966 
L 368.658228 -80.040878 
L 365.832911 -80.040878 
L 365.832911 -79.65099 
L 363.007595 -79.65099 
L 363.007595 -79.118577 
L 360.182278 -79.118577 
L 360.182278 -78.367733 
L 357.356962 -78.367733 
L 357.356962 -77.559151 
L 354.531646 -77.559151 
L 354.531646 -76.795897 
L 351.706329 -76.795897 
L 351.706329 -76.015261 
L 348.881013 -76.015261 
L 348.881013 -75.347396 
L 346.055696 -75.347396 
L 346.055696 -75.150855 
L 343.23038 -75.150855 
L 343.23038 -74.791628 
L 340.405063 -74.791628 
L 340.405063 -74.083109 
L 337.579747 -74.083109 
L 337.579747 -73.361933 
L 334.75443 -73.361933 
L 334.75443 -72.723769 
L 331.929114 -72.723769 
L 331.929114 -72.132023 
L 329.103797 -72.132023 
L 329.103797 -71.629066 
L 326.278481 -71.629066 
L 326.278481 -71.551206 
L 323.453165 -71.551206 
L 323.453165 -71.328112 
L 320.627848 -71.328112 
L 320.627848 -70.810742 
L 317.802532 -70.810742 
L 317.802532 -70.230252 
L 314.977215 -70.230252 
L 314.977215 -69.729286 
L 312.151899 -69.729286 
L 312.151899 -69.181217 
L 309.326582 -69.181217 
L 309.326582 -68.686505 
L 306.501266 -68.686505 
L 306.501266 -68.620318 
L 303.675949 -68.620318 
L 303.675949 -68.413573 
L 300.850633 -68.413573 
L 300.850633 -67.937834 
L 298.025316 -67.937834 
L 298.025316 -67.420811 
L 295.2 -67.420811 
L 295.2 -66.910664 
L 292.374684 -66.910664 
L 292.374684 -66.438697 
L 289.549367 -66.438697 
L 289.549367 -65.999134 
L 286.724051 -65.999134 
L 286.724051 -66.059775 
L 283.898734 -66.059775 
L 283.898734 -65.909907 
L 281.073418 -65.909907 
L 281.073418 -65.489155 
L 278.248101 -65.489155 
L 278.248101 -65.024671 
L 275.422785 -65.024671 
L 275.422785 -64.584037 
L 272.597468 -64.584037 
L 272.597468 -64.129816 
L 269.772152 -64.129816 
L 269.772152 -63.814451 
L 266.946835 -63.814451 
L 266.946835 -63.77736 
L 264.121519 -63.77736 
L 264.121519 -63.670054 
L 261.296203 -63.670054 
L 261.296203 -63.330472 
L 258.470886 -63.330472 
L 258.470886 -62.929801 
L 255.64557 -62.929801 
L 255.64557 -62.398256 
L 252.820253 -62.398256 
L 252.820253 -62.018858 
L 249.994937 -62.018858 
L 249.994937 -61.777608 
L 247.16962 -61.777608 
L 247.16962 -61.751204 
L 244.344304 -61.751204 
L 244.344304 -61.631691 
L 241.518987 -61.631691 
L 241.518987 -61.223414 
L 238.693671 -61.223414 
L 238.693671 -60.841305 
L 235.868354 -60.841305 
L 235.868354 -60.467626 
L 233.043038 -60.467626 
L 233.043038 -60.113491 
L 230.217722 -60.113491 
L 230.217722 -59.725423 
L 227.392405 -59.725423 
L 227.392405 -59.149001 
L 224.567089 -59.149001 
L 224.567089 -59.093856 
L 221.741772 -59.093856 
L 221.741772 -58.989669 
L 218.916456 -58.989669 
L 218.916456 -58.86798 
L 216.091139 -58.86798 
L 216.091139 -58.740161 
L 213.265823 -58.740161 
L 213.265823 -58.616749 
L 210.440506 -58.616749 
L 210.440506 -58.48899 
L 207.61519 -58.48899 
L 207.61519 -58.476857 
L 204.789873 -58.476857 
L 204.789873 -58.303987 
L 201.964557 -58.303987 
L 201.964557 -57.941723 
L 199.139241 -57.941723 
L 199.139241 -57.447405 
L 196.313924 -57.447405 
L 196.313924 -57.007414 
L 193.488608 -57.007414 
L 193.488608 -56.655131 
L 190.663291 -56.655131 
L 190.663291 -56.64508 
L 187.837975 -56.64508 
L 187.837975 -56.64658 
L 185.012658 -56.64658 
L 185.012658 -56.561364 
L 182.187342 -56.561364 
L 182.187342 -56.602217 
L 179.362025 -56.602217 
L 179.362025 -56.12277 
L 176.536709 -56.12277 
L 176.536709 -55.703188 
L 173.711392 -55.703188 
L 173.711392 -55.268753 
L 170.886076 -55.268753 
L 170.886076 -54.935793 
L 168.060759 -54.935793 
L 168.060759 -54.756387 
L 165.235443 -54.756387 
L 165.235443 -54.750039 
L 162.410127 -54.750039 
L 162.410127 -54.34731 
L 159.58481 -54.34731 
L 159.58481 -53.948009 
L 156.759494 -53.948009 
L 156.759494 -53.528179 
L 153.934177 -53.528179 
L 153.934177 -53.149289 
L 151.108861 -53.149289 
L 151.108861 -52.981936 
L 148.283544 -52.981936 
L 148.283544 -52.753826 
L 145.458228 -52.753826 
L 145.458228 -52.727327 
L 142.632911 -52.727327 
L 142.632911 -52.56192 
L 139.807595 -52.56192 
L 139.807595 -52.414535 
L 136.982278 -52.414535 
L 136.982278 -52.170674 
L 134.156962 -52.170674 
L 134.156962 -51.820672 
L 131.331646 -51.820672 
L 131.331646 -51.517649 
L 128.506329 -51.517649 
L 128.506329 -51.472391 
L 125.681013 -51.472391 
L 125.681013 -51.422395 
L 122.855696 -51.422395 
L 122.855696 -51.051058 
L 120.03038 -51.051058 
L 120.03038 -50.895974 
L 117.205063 -50.895974 
L 117.205063 -50.60739 
L 114.379747 -50.60739 
L 114.379747 -50.434055 
L 111.55443 -50.434055 
L 111.55443 -50.30298 
L 108.729114 -50.30298 
L 108.729114 -50.22586 
L 105.903797 -50.22586 
L 105.903797 -50.079332 
L 103.078481 -50.079332 
L 103.078481 -49.910584 
L 100.253165 -49.910584 
L 100.253165 -49.54937 
L 97.427848 -49.54937 
L 97.427848 -49.211142 
L 94.602532 -49.211142 
L 94.602532 -48.913994 
L 91.777215 -48.913994 
L 91.777215 -48.641063 
L 88.951899 -48.641063 
L 88.951899 -48.580922 
L 86.126582 -48.580922 
L 86.126582 -48.51792 
L 83.301266 -48.51792 
L 83.301266 -48.3516 
L 80.475949 -48.3516 
L 80.475949 -48.10212 
L 77.650633 -48.10212 
L 77.650633 -47.749788 
L 74.825316 -47.749788 
L 74.825316 -47.615767 
L 72 -47.615767 
L 72 -47.520665 
z
" id="m862680fa58"/>
    </defs>
    <g clip-path="url(#p5778846deb)">
     <use style="fill:#1f77b4;" x="0" xlink:href="#m862680fa58" y="432"/>
    </g>
   </g>
   <g id="PolyCollection_15">
    <defs>
     <path d="M 72 -49.586526 
L 72 -47.520665 
L 72 -47.615767 
L 74.825316 -47.615767 
L 74.825316 -47.749788 
L 77.650633 -47.749788 
L 77.650633 -48.10212 
L 80.475949 -48.10212 
L 80.475949 -48.3516 
L 83.301266 -48.3516 
L 83.301266 -48.51792 
L 86.126582 -48.51792 
L 86.126582 -48.580922 
L 88.951899 -48.580922 
L 88.951899 -48.641063 
L 91.777215 -48.641063 
L 91.777215 -48.913994 
L 94.602532 -48.913994 
L 94.602532 -49.211142 
L 97.427848 -49.211142 
L 97.427848 -49.54937 
L 100.253165 -49.54937 
L 100.253165 -49.910584 
L 103.078481 -49.910584 
L 103.078481 -50.079332 
L 105.903797 -50.079332 
L 105.903797 -50.22586 
L 108.729114 -50.22586 
L 108.729114 -50.30298 
L 111.55443 -50.30298 
L 111.55443 -50.434055 
L 114.379747 -50.434055 
L 114.379747 -50.60739 
L 117.205063 -50.60739 
L 117.205063 -50.895974 
L 120.03038 -50.895974 
L 120.03038 -51.051058 
L 122.855696 -51.051058 
L 122.855696 -51.422395 
L 125.681013 -51.422395 
L 125.681013 -51.472391 
L 128.506329 -51.472391 
L 128.506329 -51.517649 
L 131.331646 -51.517649 
L 131.331646 -51.820672 
L 134.156962 -51.820672 
L 134.156962 -52.170674 
L 136.982278 -52.170674 
L 136.982278 -52.414535 
L 139.807595 -52.414535 
L 139.807595 -52.56192 
L 142.632911 -52.56192 
L 142.632911 -52.727327 
L 145.458228 -52.727327 
L 145.458228 -52.753826 
L 148.283544 -52.753826 
L 148.283544 -52.981936 
L 151.108861 -52.981936 
L 151.108861 -53.149289 
L 153.934177 -53.149289 
L 153.934177 -53.528179 
L 156.759494 -53.528179 
L 156.759494 -53.948009 
L 159.58481 -53.948009 
L 159.58481 -54.34731 
L 162.410127 -54.34731 
L 162.410127 -54.750039 
L 165.235443 -54.750039 
L 165.235443 -54.756387 
L 168.060759 -54.756387 
L 168.060759 -54.935793 
L 170.886076 -54.935793 
L 170.886076 -55.268753 
L 173.711392 -55.268753 
L 173.711392 -55.703188 
L 176.536709 -55.703188 
L 176.536709 -56.12277 
L 179.362025 -56.12277 
L 179.362025 -56.602217 
L 182.187342 -56.602217 
L 182.187342 -56.561364 
L 185.012658 -56.561364 
L 185.012658 -56.64658 
L 187.837975 -56.64658 
L 187.837975 -56.64508 
L 190.663291 -56.64508 
L 190.663291 -56.655131 
L 193.488608 -56.655131 
L 193.488608 -57.007414 
L 196.313924 -57.007414 
L 196.313924 -57.447405 
L 199.139241 -57.447405 
L 199.139241 -57.941723 
L 201.964557 -57.941723 
L 201.964557 -58.303987 
L 204.789873 -58.303987 
L 204.789873 -58.476857 
L 207.61519 -58.476857 
L 207.61519 -58.48899 
L 210.440506 -58.48899 
L 210.440506 -58.616749 
L 213.265823 -58.616749 
L 213.265823 -58.740161 
L 216.091139 -58.740161 
L 216.091139 -58.86798 
L 218.916456 -58.86798 
L 218.916456 -58.989669 
L 221.741772 -58.989669 
L 221.741772 -59.093856 
L 224.567089 -59.093856 
L 224.567089 -59.149001 
L 227.392405 -59.149001 
L 227.392405 -59.725423 
L 230.217722 -59.725423 
L 230.217722 -60.113491 
L 233.043038 -60.113491 
L 233.043038 -60.467626 
L 235.868354 -60.467626 
L 235.868354 -60.841305 
L 238.693671 -60.841305 
L 238.693671 -61.223414 
L 241.518987 -61.223414 
L 241.518987 -61.631691 
L 244.344304 -61.631691 
L 244.344304 -61.751204 
L 247.16962 -61.751204 
L 247.16962 -61.777608 
L 249.994937 -61.777608 
L 249.994937 -62.018858 
L 252.820253 -62.018858 
L 252.820253 -62.398256 
L 255.64557 -62.398256 
L 255.64557 -62.929801 
L 258.470886 -62.929801 
L 258.470886 -63.330472 
L 261.296203 -63.330472 
L 261.296203 -63.670054 
L 264.121519 -63.670054 
L 264.121519 -63.77736 
L 266.946835 -63.77736 
L 266.946835 -63.814451 
L 269.772152 -63.814451 
L 269.772152 -64.129816 
L 272.597468 -64.129816 
L 272.597468 -64.584037 
L 275.422785 -64.584037 
L 275.422785 -65.024671 
L 278.248101 -65.024671 
L 278.248101 -65.489155 
L 281.073418 -65.489155 
L 281.073418 -65.909907 
L 283.898734 -65.909907 
L 283.898734 -66.059775 
L 286.724051 -66.059775 
L 286.724051 -65.999134 
L 289.549367 -65.999134 
L 289.549367 -66.438697 
L 292.374684 -66.438697 
L 292.374684 -66.910664 
L 295.2 -66.910664 
L 295.2 -67.420811 
L 298.025316 -67.420811 
L 298.025316 -67.937834 
L 300.850633 -67.937834 
L 300.850633 -68.413573 
L 303.675949 -68.413573 
L 303.675949 -68.620318 
L 306.501266 -68.620318 
L 306.501266 -68.686505 
L 309.326582 -68.686505 
L 309.326582 -69.181217 
L 312.151899 -69.181217 
L 312.151899 -69.729286 
L 314.977215 -69.729286 
L 314.977215 -70.230252 
L 317.802532 -70.230252 
L 317.802532 -70.810742 
L 320.627848 -70.810742 
L 320.627848 -71.328112 
L 323.453165 -71.328112 
L 323.453165 -71.551206 
L 326.278481 -71.551206 
L 326.278481 -71.629066 
L 329.103797 -71.629066 
L 329.103797 -72.132023 
L 331.929114 -72.132023 
L 331.929114 -72.723769 
L 334.75443 -72.723769 
L 334.75443 -73.361933 
L 337.579747 -73.361933 
L 337.579747 -74.083109 
L 340.405063 -74.083109 
L 340.405063 -74.791628 
L 343.23038 -74.791628 
L 343.23038 -75.150855 
L 346.055696 -75.150855 
L 346.055696 -75.347396 
L 348.881013 -75.347396 
L 348.881013 -76.015261 
L 351.706329 -76.015261 
L 351.706329 -76.795897 
L 354.531646 -76.795897 
L 354.531646 -77.559151 
L 357.356962 -77.559151 
L 357.356962 -78.367733 
L 360.182278 -78.367733 
L 360.182278 -79.118577 
L 363.007595 -79.118577 
L 363.007595 -79.65099 
L 365.832911 -79.65099 
L 365.832911 -80.040878 
L 368.658228 -80.040878 
L 368.658228 -80.769966 
L 371.483544 -80.769966 
L 371.483544 -81.57288 
L 374.308861 -81.57288 
L 374.308861 -82.41212 
L 377.134177 -82.41212 
L 377.134177 -83.319155 
L 379.959494 -83.319155 
L 379.959494 -94.419808 
L 379.959494 -94.419808 
L 377.134177 -94.419808 
L 377.134177 -94.419808 
L 374.308861 -94.419808 
L 374.308861 -94.419808 
L 371.483544 -94.419808 
L 371.483544 -94.419808 
L 368.658228 -94.419808 
L 368.658228 -94.419808 
L 365.832911 -94.419808 
L 365.832911 -90.07792 
L 363.007595 -90.07792 
L 363.007595 -90.07792 
L 360.182278 -90.07792 
L 360.182278 -90.07792 
L 357.356962 -90.07792 
L 357.356962 -90.07792 
L 354.531646 -90.07792 
L 354.531646 -90.07792 
L 351.706329 -90.07792 
L 351.706329 -90.07792 
L 348.881013 -90.07792 
L 348.881013 -90.07792 
L 346.055696 -90.07792 
L 346.055696 -84.950316 
L 343.23038 -84.950316 
L 343.23038 -84.950316 
L 340.405063 -84.950316 
L 340.405063 -84.950316 
L 337.579747 -84.950316 
L 337.579747 -84.950316 
L 334.75443 -84.950316 
L 334.75443 -84.950316 
L 331.929114 -84.950316 
L 331.929114 -84.950316 
L 329.103797 -84.950316 
L 329.103797 -84.950316 
L 326.278481 -84.950316 
L 326.278481 -79.82766 
L 323.453165 -79.82766 
L 323.453165 -79.82766 
L 320.627848 -79.82766 
L 320.627848 -79.82766 
L 317.802532 -79.82766 
L 317.802532 -79.82766 
L 314.977215 -79.82766 
L 314.977215 -79.82766 
L 312.151899 -79.82766 
L 312.151899 -79.82766 
L 309.326582 -79.82766 
L 309.326582 -79.82766 
L 306.501266 -79.82766 
L 306.501266 -74.719557 
L 303.675949 -74.719557 
L 303.675949 -74.719557 
L 300.850633 -74.719557 
L 300.850633 -74.719557 
L 298.025316 -74.719557 
L 298.025316 -74.719557 
L 295.2 -74.719557 
L 295.2 -74.719557 
L 292.374684 -74.719557 
L 292.374684 -74.719557 
L 289.549367 -74.719557 
L 289.549367 -74.719557 
L 286.724051 -74.719557 
L 286.724051 -69.611454 
L 283.898734 -69.611454 
L 283.898734 -69.611454 
L 281.073418 -69.611454 
L 281.073418 -69.611454 
L 278.248101 -69.611454 
L 278.248101 -69.611454 
L 275.422785 -69.611454 
L 275.422785 -69.611454 
L 272.597468 -69.611454 
L 272.597468 -69.611454 
L 269.772152 -69.611454 
L 269.772152 -69.611454 
L 266.946835 -69.611454 
L 266.946835 -67.093785 
L 264.121519 -67.093785 
L 264.121519 -67.093785 
L 261.296203 -67.093785 
L 261.296203 -67.093785 
L 258.470886 -67.093785 
L 258.470886 -67.093785 
L 255.64557 -67.093785 
L 255.64557 -67.093785 
L 252.820253 -67.093785 
L 252.820253 -67.093785 
L 249.994937 -67.093785 
L 249.994937 -67.093785 
L 247.16962 -67.093785 
L 247.16962 -64.576116 
L 244.344304 -64.576116 
L 244.344304 -64.576116 
L 241.518987 -64.576116 
L 241.518987 -64.576116 
L 238.693671 -64.576116 
L 238.693671 -64.576116 
L 235.868354 -64.576116 
L 235.868354 -64.576116 
L 233.043038 -64.576116 
L 233.043038 -64.576116 
L 230.217722 -64.576116 
L 230.217722 -64.576116 
L 227.392405 -64.576116 
L 227.392405 -60.18111 
L 224.567089 -60.18111 
L 224.567089 -60.18111 
L 221.741772 -60.18111 
L 221.741772 -60.18111 
L 218.916456 -60.18111 
L 218.916456 -60.18111 
L 216.091139 -60.18111 
L 216.091139 -60.18111 
L 213.265823 -60.18111 
L 213.265823 -60.18111 
L 210.440506 -60.18111 
L 210.440506 -60.18111 
L 207.61519 -60.18111 
L 207.61519 -58.449303 
L 204.789873 -58.449303 
L 204.789873 -58.449303 
L 201.964557 -58.449303 
L 201.964557 -58.449303 
L 199.139241 -58.449303 
L 199.139241 -58.449303 
L 196.313924 -58.449303 
L 196.313924 -58.449303 
L 193.488608 -58.449303 
L 193.488608 -58.449303 
L 190.663291 -58.449303 
L 190.663291 -58.449303 
L 187.837975 -58.449303 
L 187.837975 -58.449303 
L 185.012658 -58.449303 
L 185.012658 -58.449303 
L 182.187342 -58.449303 
L 182.187342 -58.449303 
L 179.362025 -58.449303 
L 179.362025 -58.449303 
L 176.536709 -58.449303 
L 176.536709 -58.449303 
L 173.711392 -58.449303 
L 173.711392 -58.449303 
L 170.886076 -58.449303 
L 170.886076 -58.449303 
L 168.060759 -58.449303 
L 168.060759 -56.135376 
L 165.235443 -56.135376 
L 165.235443 -56.135376 
L 162.410127 -56.135376 
L 162.410127 -56.135376 
L 159.58481 -56.135376 
L 159.58481 -56.135376 
L 156.759494 -56.135376 
L 156.759494 -56.135376 
L 153.934177 -56.135376 
L 153.934177 -56.135376 
L 151.108861 -56.135376 
L 151.108861 -56.135376 
L 148.283544 -56.135376 
L 148.283544 -56.135376 
L 145.458228 -56.135376 
L 145.458228 -56.135376 
L 142.632911 -56.135376 
L 142.632911 -56.135376 
L 139.807595 -56.135376 
L 139.807595 -56.135376 
L 136.982278 -56.135376 
L 136.982278 -56.135376 
L 134.156962 -56.135376 
L 134.156962 -56.135376 
L 131.331646 -56.135376 
L 131.331646 -56.135376 
L 128.506329 -56.135376 
L 128.506329 -53.966979 
L 125.681013 -53.966979 
L 125.681013 -53.966979 
L 122.855696 -53.966979 
L 122.855696 -53.966979 
L 120.03038 -53.966979 
L 120.03038 -53.966979 
L 117.205063 -53.966979 
L 117.205063 -53.966979 
L 114.379747 -53.966979 
L 114.379747 -53.966979 
L 111.55443 -53.966979 
L 111.55443 -53.966979 
L 108.729114 -53.966979 
L 108.729114 -52.002324 
L 105.903797 -52.002324 
L 105.903797 -52.002324 
L 103.078481 -52.002324 
L 103.078481 -52.002324 
L 100.253165 -52.002324 
L 100.253165 -52.002324 
L 97.427848 -52.002324 
L 97.427848 -52.002324 
L 94.602532 -52.002324 
L 94.602532 -52.002324 
L 91.777215 -52.002324 
L 91.777215 -52.002324 
L 88.951899 -52.002324 
L 88.951899 -49.586526 
L 86.126582 -49.586526 
L 86.126582 -49.586526 
L 83.301266 -49.586526 
L 83.301266 -49.586526 
L 80.475949 -49.586526 
L 80.475949 -49.586526 
L 77.650633 -49.586526 
L 77.650633 -49.586526 
L 74.825316 -49.586526 
L 74.825316 -49.586526 
L 72 -49.586526 
L 72 -49.586526 
z
" id="mb1cbca6df0"/>
    </defs>
    <g clip-path="url(#p5778846deb)">
     <use style="fill:#2ca02c;" x="0" xlink:href="#mb1cbca6df0" y="432"/>
    </g>
   </g>
   <g id="PolyCollection_16">
    <defs>
     <path d="M 72 -49.586526 
L 72 -49.586526 
L 72 -49.586526 
L 74.825316 -49.586526 
L 74.825316 -49.586526 
L 77.650633 -49.586526 
L 77.650633 -49.586526 
L 80.475949 -49.586526 
L 80.475949 -49.586526 
L 83.301266 -49.586526 
L 83.301266 -49.586526 
L 86.126582 -49.586526 
L 86.126582 -49.586526 
L 88.951899 -49.586526 
L 88.951899 -52.002324 
L 91.777215 -52.002324 
L 91.777215 -52.002324 
L 94.602532 -52.002324 
L 94.602532 -52.002324 
L 97.427848 -52.002324 
L 97.427848 -52.002324 
L 100.253165 -52.002324 
L 100.253165 -52.002324 
L 103.078481 -52.002324 
L 103.078481 -52.002324 
L 105.903797 -52.002324 
L 105.903797 -52.002324 
L 108.729114 -52.002324 
L 108.729114 -53.966979 
L 111.55443 -53.966979 
L 111.55443 -53.966979 
L 114.379747 -53.966979 
L 114.379747 -53.966979 
L 117.205063 -53.966979 
L 117.205063 -53.966979 
L 120.03038 -53.966979 
L 120.03038 -53.966979 
L 122.855696 -53.966979 
L 122.855696 -53.966979 
L 125.681013 -53.966979 
L 125.681013 -53.966979 
L 128.506329 -53.966979 
L 128.506329 -56.135376 
L 131.331646 -56.135376 
L 131.331646 -56.135376 
L 134.156962 -56.135376 
L 134.156962 -56.135376 
L 136.982278 -56.135376 
L 136.982278 -56.135376 
L 139.807595 -56.135376 
L 139.807595 -56.135376 
L 142.632911 -56.135376 
L 142.632911 -56.135376 
L 145.458228 -56.135376 
L 145.458228 -56.135376 
L 148.283544 -56.135376 
L 148.283544 -56.135376 
L 151.108861 -56.135376 
L 151.108861 -56.135376 
L 153.934177 -56.135376 
L 153.934177 -56.135376 
L 156.759494 -56.135376 
L 156.759494 -56.135376 
L 159.58481 -56.135376 
L 159.58481 -56.135376 
L 162.410127 -56.135376 
L 162.410127 -56.135376 
L 165.235443 -56.135376 
L 165.235443 -56.135376 
L 168.060759 -56.135376 
L 168.060759 -58.449303 
L 170.886076 -58.449303 
L 170.886076 -58.449303 
L 173.711392 -58.449303 
L 173.711392 -58.449303 
L 176.536709 -58.449303 
L 176.536709 -58.449303 
L 179.362025 -58.449303 
L 179.362025 -58.449303 
L 182.187342 -58.449303 
L 182.187342 -58.449303 
L 185.012658 -58.449303 
L 185.012658 -58.449303 
L 187.837975 -58.449303 
L 187.837975 -58.449303 
L 190.663291 -58.449303 
L 190.663291 -58.449303 
L 193.488608 -58.449303 
L 193.488608 -58.449303 
L 196.313924 -58.449303 
L 196.313924 -58.449303 
L 199.139241 -58.449303 
L 199.139241 -58.449303 
L 201.964557 -58.449303 
L 201.964557 -58.449303 
L 204.789873 -58.449303 
L 204.789873 -58.449303 
L 207.61519 -58.449303 
L 207.61519 -60.18111 
L 210.440506 -60.18111 
L 210.440506 -60.18111 
L 213.265823 -60.18111 
L 213.265823 -60.18111 
L 216.091139 -60.18111 
L 216.091139 -60.18111 
L 218.916456 -60.18111 
L 218.916456 -60.18111 
L 221.741772 -60.18111 
L 221.741772 -60.18111 
L 224.567089 -60.18111 
L 224.567089 -60.18111 
L 227.392405 -60.18111 
L 227.392405 -64.576116 
L 230.217722 -64.576116 
L 230.217722 -64.576116 
L 233.043038 -64.576116 
L 233.043038 -64.576116 
L 235.868354 -64.576116 
L 235.868354 -64.576116 
L 238.693671 -64.576116 
L 238.693671 -64.576116 
L 241.518987 -64.576116 
L 241.518987 -64.576116 
L 244.344304 -64.576116 
L 244.344304 -64.576116 
L 247.16962 -64.576116 
L 247.16962 -67.093785 
L 249.994937 -67.093785 
L 249.994937 -67.093785 
L 252.820253 -67.093785 
L 252.820253 -67.093785 
L 255.64557 -67.093785 
L 255.64557 -67.093785 
L 258.470886 -67.093785 
L 258.470886 -67.093785 
L 261.296203 -67.093785 
L 261.296203 -67.093785 
L 264.121519 -67.093785 
L 264.121519 -67.093785 
L 266.946835 -67.093785 
L 266.946835 -69.611454 
L 269.772152 -69.611454 
L 269.772152 -69.611454 
L 272.597468 -69.611454 
L 272.597468 -69.611454 
L 275.422785 -69.611454 
L 275.422785 -69.611454 
L 278.248101 -69.611454 
L 278.248101 -69.611454 
L 281.073418 -69.611454 
L 281.073418 -69.611454 
L 283.898734 -69.611454 
L 283.898734 -69.611454 
L 286.724051 -69.611454 
L 286.724051 -74.719557 
L 289.549367 -74.719557 
L 289.549367 -74.719557 
L 292.374684 -74.719557 
L 292.374684 -74.719557 
L 295.2 -74.719557 
L 295.2 -74.719557 
L 298.025316 -74.719557 
L 298.025316 -74.719557 
L 300.850633 -74.719557 
L 300.850633 -74.719557 
L 303.675949 -74.719557 
L 303.675949 -74.719557 
L 306.501266 -74.719557 
L 306.501266 -79.82766 
L 309.326582 -79.82766 
L 309.326582 -79.82766 
L 312.151899 -79.82766 
L 312.151899 -79.82766 
L 314.977215 -79.82766 
L 314.977215 -79.82766 
L 317.802532 -79.82766 
L 317.802532 -79.82766 
L 320.627848 -79.82766 
L 320.627848 -79.82766 
L 323.453165 -79.82766 
L 323.453165 -79.82766 
L 326.278481 -79.82766 
L 326.278481 -84.950316 
L 329.103797 -84.950316 
L 329.103797 -84.950316 
L 331.929114 -84.950316 
L 331.929114 -84.950316 
L 334.75443 -84.950316 
L 334.75443 -84.950316 
L 337.579747 -84.950316 
L 337.579747 -84.950316 
L 340.405063 -84.950316 
L 340.405063 -84.950316 
L 343.23038 -84.950316 
L 343.23038 -84.950316 
L 346.055696 -84.950316 
L 346.055696 -90.07792 
L 348.881013 -90.07792 
L 348.881013 -90.07792 
L 351.706329 -90.07792 
L 351.706329 -90.07792 
L 354.531646 -90.07792 
L 354.531646 -90.07792 
L 357.356962 -90.07792 
L 357.356962 -90.07792 
L 360.182278 -90.07792 
L 360.182278 -90.07792 
L 363.007595 -90.07792 
L 363.007595 -90.07792 
L 365.832911 -90.07792 
L 365.832911 -94.419808 
L 368.658228 -94.419808 
L 368.658228 -94.419808 
L 371.483544 -94.419808 
L 371.483544 -94.419808 
L 374.308861 -94.419808 
L 374.308861 -94.419808 
L 377.134177 -94.419808 
L 377.134177 -94.419808 
L 379.959494 -94.419808 
L 379.959494 -117.71055 
L 379.959494 -117.71055 
L 377.134177 -117.71055 
L 377.134177 -117.130059 
L 374.308861 -117.130059 
L 374.308861 -116.629093 
L 371.483544 -116.629093 
L 371.483544 -116.081024 
L 368.658228 -116.081024 
L 368.658228 -115.586312 
L 365.832911 -115.586312 
L 365.832911 -111.178238 
L 363.007595 -111.178238 
L 363.007595 -110.971493 
L 360.182278 -110.971493 
L 360.182278 -110.495754 
L 357.356962 -110.495754 
L 357.356962 -109.978731 
L 354.531646 -109.978731 
L 354.531646 -109.468584 
L 351.706329 -109.468584 
L 351.706329 -108.996617 
L 348.881013 -108.996617 
L 348.881013 -108.557054 
L 346.055696 -108.557054 
L 346.055696 -103.490091 
L 343.23038 -103.490091 
L 343.23038 -103.340223 
L 340.405063 -103.340223 
L 340.405063 -102.919471 
L 337.579747 -102.919471 
L 337.579747 -102.454987 
L 334.75443 -102.454987 
L 334.75443 -102.014353 
L 331.929114 -102.014353 
L 331.929114 -101.560132 
L 329.103797 -101.560132 
L 329.103797 -101.244767 
L 326.278481 -101.244767 
L 326.278481 -96.08502 
L 323.453165 -96.08502 
L 323.453165 -95.977714 
L 320.627848 -95.977714 
L 320.627848 -95.638132 
L 317.802532 -95.638132 
L 317.802532 -95.237461 
L 314.977215 -95.237461 
L 314.977215 -94.705916 
L 312.151899 -94.705916 
L 312.151899 -94.326518 
L 309.326582 -94.326518 
L 309.326582 -94.085268 
L 306.501266 -94.085268 
L 306.501266 -88.950761 
L 303.675949 -88.950761 
L 303.675949 -88.831248 
L 300.850633 -88.831248 
L 300.850633 -88.422971 
L 298.025316 -88.422971 
L 298.025316 -88.040862 
L 295.2 -88.040862 
L 295.2 -87.667183 
L 292.374684 -87.667183 
L 292.374684 -87.313048 
L 289.549367 -87.313048 
L 289.549367 -86.92498 
L 286.724051 -86.92498 
L 286.724051 -81.240455 
L 283.898734 -81.240455 
L 283.898734 -81.18531 
L 281.073418 -81.18531 
L 281.073418 -81.081123 
L 278.248101 -81.081123 
L 278.248101 -80.959434 
L 275.422785 -80.959434 
L 275.422785 -80.831615 
L 272.597468 -80.831615 
L 272.597468 -80.708203 
L 269.772152 -80.708203 
L 269.772152 -80.580444 
L 266.946835 -80.580444 
L 266.946835 -78.050642 
L 264.121519 -78.050642 
L 264.121519 -77.877772 
L 261.296203 -77.877772 
L 261.296203 -77.515508 
L 258.470886 -77.515508 
L 258.470886 -77.02119 
L 255.64557 -77.02119 
L 255.64557 -76.581199 
L 252.820253 -76.581199 
L 252.820253 -76.228916 
L 249.994937 -76.228916 
L 249.994937 -76.218865 
L 247.16962 -76.218865 
L 247.16962 -73.702696 
L 244.344304 -73.702696 
L 244.344304 -73.61748 
L 241.518987 -73.61748 
L 241.518987 -73.658333 
L 238.693671 -73.658333 
L 238.693671 -73.178886 
L 235.868354 -73.178886 
L 235.868354 -72.759304 
L 233.043038 -72.759304 
L 233.043038 -72.324869 
L 230.217722 -72.324869 
L 230.217722 -71.991909 
L 227.392405 -71.991909 
L 227.392405 -67.417497 
L 224.567089 -67.417497 
L 224.567089 -67.411149 
L 221.741772 -67.411149 
L 221.741772 -67.00842 
L 218.916456 -67.00842 
L 218.916456 -66.609119 
L 216.091139 -66.609119 
L 216.091139 -66.189289 
L 213.265823 -66.189289 
L 213.265823 -65.810399 
L 210.440506 -65.810399 
L 210.440506 -65.643046 
L 207.61519 -65.643046 
L 207.61519 -63.683129 
L 204.789873 -63.683129 
L 204.789873 -63.65663 
L 201.964557 -63.65663 
L 201.964557 -63.491223 
L 199.139241 -63.491223 
L 199.139241 -63.343838 
L 196.313924 -63.343838 
L 196.313924 -63.099977 
L 193.488608 -63.099977 
L 193.488608 -62.749975 
L 190.663291 -62.749975 
L 190.663291 -62.446952 
L 187.837975 -62.446952 
L 187.837975 -62.401694 
L 185.012658 -62.401694 
L 185.012658 -62.351698 
L 182.187342 -62.351698 
L 182.187342 -61.980361 
L 179.362025 -61.980361 
L 179.362025 -61.825277 
L 176.536709 -61.825277 
L 176.536709 -61.536693 
L 173.711392 -61.536693 
L 173.711392 -61.363358 
L 170.886076 -61.363358 
L 170.886076 -61.232283 
L 168.060759 -61.232283 
L 168.060759 -58.841236 
L 165.235443 -58.841236 
L 165.235443 -58.694708 
L 162.410127 -58.694708 
L 162.410127 -58.52596 
L 159.58481 -58.52596 
L 159.58481 -58.164746 
L 156.759494 -58.164746 
L 156.759494 -57.826518 
L 153.934177 -57.826518 
L 153.934177 -57.52937 
L 151.108861 -57.52937 
L 151.108861 -57.256439 
L 148.283544 -57.256439 
L 148.283544 -57.196298 
L 145.458228 -57.196298 
L 145.458228 -57.133296 
L 142.632911 -57.133296 
L 142.632911 -56.966976 
L 139.807595 -56.966976 
L 139.807595 -56.717496 
L 136.982278 -56.717496 
L 136.982278 -56.365164 
L 134.156962 -56.365164 
L 134.156962 -56.231143 
L 131.331646 -56.231143 
L 131.331646 -56.136041 
L 128.506329 -56.136041 
L 128.506329 -53.966979 
L 125.681013 -53.966979 
L 125.681013 -53.966979 
L 122.855696 -53.966979 
L 122.855696 -53.966979 
L 120.03038 -53.966979 
L 120.03038 -53.966979 
L 117.205063 -53.966979 
L 117.205063 -53.966979 
L 114.379747 -53.966979 
L 114.379747 -53.966979 
L 111.55443 -53.966979 
L 111.55443 -53.966979 
L 108.729114 -53.966979 
L 108.729114 -52.002324 
L 105.903797 -52.002324 
L 105.903797 -52.002324 
L 103.078481 -52.002324 
L 103.078481 -52.002324 
L 100.253165 -52.002324 
L 100.253165 -52.002324 
L 97.427848 -52.002324 
L 97.427848 -52.002324 
L 94.602532 -52.002324 
L 94.602532 -52.002324 
L 91.777215 -52.002324 
L 91.777215 -52.002324 
L 88.951899 -52.002324 
L 88.951899 -49.586526 
L 86.126582 -49.586526 
L 86.126582 -49.586526 
L 83.301266 -49.586526 
L 83.301266 -49.586526 
L 80.475949 -49.586526 
L 80.475949 -49.586526 
L 77.650633 -49.586526 
L 77.650633 -49.586526 
L 74.825316 -49.586526 
L 74.825316 -49.586526 
L 72 -49.586526 
L 72 -49.586526 
z
" id="m9557d2cb3a"/>
    </defs>
    <g clip-path="url(#p5778846deb)">
     <use style="fill:#ff7f0e;" x="0" xlink:href="#m9557d2cb3a" y="432"/>
    </g>
   </g>
   <g id="PolyCollection_17">
    <defs>
     <path d="M 72 -51.653052 
L 72 -49.586526 
L 72 -49.586526 
L 74.825316 -49.586526 
L 74.825316 -49.586526 
L 77.650633 -49.586526 
L 77.650633 -49.586526 
L 80.475949 -49.586526 
L 80.475949 -49.586526 
L 83.301266 -49.586526 
L 83.301266 -49.586526 
L 86.126582 -49.586526 
L 86.126582 -49.586526 
L 88.951899 -49.586526 
L 88.951899 -52.002324 
L 91.777215 -52.002324 
L 91.777215 -52.002324 
L 94.602532 -52.002324 
L 94.602532 -52.002324 
L 97.427848 -52.002324 
L 97.427848 -52.002324 
L 100.253165 -52.002324 
L 100.253165 -52.002324 
L 103.078481 -52.002324 
L 103.078481 -52.002324 
L 105.903797 -52.002324 
L 105.903797 -52.002324 
L 108.729114 -52.002324 
L 108.729114 -53.966979 
L 111.55443 -53.966979 
L 111.55443 -53.966979 
L 114.379747 -53.966979 
L 114.379747 -53.966979 
L 117.205063 -53.966979 
L 117.205063 -53.966979 
L 120.03038 -53.966979 
L 120.03038 -53.966979 
L 122.855696 -53.966979 
L 122.855696 -53.966979 
L 125.681013 -53.966979 
L 125.681013 -53.966979 
L 128.506329 -53.966979 
L 128.506329 -56.136041 
L 131.331646 -56.136041 
L 131.331646 -56.231143 
L 134.156962 -56.231143 
L 134.156962 -56.365164 
L 136.982278 -56.365164 
L 136.982278 -56.717496 
L 139.807595 -56.717496 
L 139.807595 -56.966976 
L 142.632911 -56.966976 
L 142.632911 -57.133296 
L 145.458228 -57.133296 
L 145.458228 -57.196298 
L 148.283544 -57.196298 
L 148.283544 -57.256439 
L 151.108861 -57.256439 
L 151.108861 -57.52937 
L 153.934177 -57.52937 
L 153.934177 -57.826518 
L 156.759494 -57.826518 
L 156.759494 -58.164746 
L 159.58481 -58.164746 
L 159.58481 -58.52596 
L 162.410127 -58.52596 
L 162.410127 -58.694708 
L 165.235443 -58.694708 
L 165.235443 -58.841236 
L 168.060759 -58.841236 
L 168.060759 -61.232283 
L 170.886076 -61.232283 
L 170.886076 -61.363358 
L 173.711392 -61.363358 
L 173.711392 -61.536693 
L 176.536709 -61.536693 
L 176.536709 -61.825277 
L 179.362025 -61.825277 
L 179.362025 -61.980361 
L 182.187342 -61.980361 
L 182.187342 -62.351698 
L 185.012658 -62.351698 
L 185.012658 -62.401694 
L 187.837975 -62.401694 
L 187.837975 -62.446952 
L 190.663291 -62.446952 
L 190.663291 -62.749975 
L 193.488608 -62.749975 
L 193.488608 -63.099977 
L 196.313924 -63.099977 
L 196.313924 -63.343838 
L 199.139241 -63.343838 
L 199.139241 -63.491223 
L 201.964557 -63.491223 
L 201.964557 -63.65663 
L 204.789873 -63.65663 
L 204.789873 -63.683129 
L 207.61519 -63.683129 
L 207.61519 -65.643046 
L 210.440506 -65.643046 
L 210.440506 -65.810399 
L 213.265823 -65.810399 
L 213.265823 -66.189289 
L 216.091139 -66.189289 
L 216.091139 -66.609119 
L 218.916456 -66.609119 
L 218.916456 -67.00842 
L 221.741772 -67.00842 
L 221.741772 -67.411149 
L 224.567089 -67.411149 
L 224.567089 -67.417497 
L 227.392405 -67.417497 
L 227.392405 -71.991909 
L 230.217722 -71.991909 
L 230.217722 -72.324869 
L 233.043038 -72.324869 
L 233.043038 -72.759304 
L 235.868354 -72.759304 
L 235.868354 -73.178886 
L 238.693671 -73.178886 
L 238.693671 -73.658333 
L 241.518987 -73.658333 
L 241.518987 -73.61748 
L 244.344304 -73.61748 
L 244.344304 -73.702696 
L 247.16962 -73.702696 
L 247.16962 -76.218865 
L 249.994937 -76.218865 
L 249.994937 -76.228916 
L 252.820253 -76.228916 
L 252.820253 -76.581199 
L 255.64557 -76.581199 
L 255.64557 -77.02119 
L 258.470886 -77.02119 
L 258.470886 -77.515508 
L 261.296203 -77.515508 
L 261.296203 -77.877772 
L 264.121519 -77.877772 
L 264.121519 -78.050642 
L 266.946835 -78.050642 
L 266.946835 -80.580444 
L 269.772152 -80.580444 
L 269.772152 -80.708203 
L 272.597468 -80.708203 
L 272.597468 -80.831615 
L 275.422785 -80.831615 
L 275.422785 -80.959434 
L 278.248101 -80.959434 
L 278.248101 -81.081123 
L 281.073418 -81.081123 
L 281.073418 -81.18531 
L 283.898734 -81.18531 
L 283.898734 -81.240455 
L 286.724051 -81.240455 
L 286.724051 -86.92498 
L 289.549367 -86.92498 
L 289.549367 -87.313048 
L 292.374684 -87.313048 
L 292.374684 -87.667183 
L 295.2 -87.667183 
L 295.2 -88.040862 
L 298.025316 -88.040862 
L 298.025316 -88.422971 
L 300.850633 -88.422971 
L 300.850633 -88.831248 
L 303.675949 -88.831248 
L 303.675949 -88.950761 
L 306.501266 -88.950761 
L 306.501266 -94.085268 
L 309.326582 -94.085268 
L 309.326582 -94.326518 
L 312.151899 -94.326518 
L 312.151899 -94.705916 
L 314.977215 -94.705916 
L 314.977215 -95.237461 
L 317.802532 -95.237461 
L 317.802532 -95.638132 
L 320.627848 -95.638132 
L 320.627848 -95.977714 
L 323.453165 -95.977714 
L 323.453165 -96.08502 
L 326.278481 -96.08502 
L 326.278481 -101.244767 
L 329.103797 -101.244767 
L 329.103797 -101.560132 
L 331.929114 -101.560132 
L 331.929114 -102.014353 
L 334.75443 -102.014353 
L 334.75443 -102.454987 
L 337.579747 -102.454987 
L 337.579747 -102.919471 
L 340.405063 -102.919471 
L 340.405063 -103.340223 
L 343.23038 -103.340223 
L 343.23038 -103.490091 
L 346.055696 -103.490091 
L 346.055696 -108.557054 
L 348.881013 -108.557054 
L 348.881013 -108.996617 
L 351.706329 -108.996617 
L 351.706329 -109.468584 
L 354.531646 -109.468584 
L 354.531646 -109.978731 
L 357.356962 -109.978731 
L 357.356962 -110.495754 
L 360.182278 -110.495754 
L 360.182278 -110.971493 
L 363.007595 -110.971493 
L 363.007595 -111.178238 
L 365.832911 -111.178238 
L 365.832911 -115.586312 
L 368.658228 -115.586312 
L 368.658228 -116.081024 
L 371.483544 -116.081024 
L 371.483544 -116.629093 
L 374.308861 -116.629093 
L 374.308861 -117.130059 
L 377.134177 -117.130059 
L 377.134177 -117.71055 
L 379.959494 -117.71055 
L 379.959494 -141.319615 
L 379.959494 -141.319615 
L 377.134177 -141.319615 
L 377.134177 -141.319615 
L 374.308861 -141.319615 
L 374.308861 -141.319615 
L 371.483544 -141.319615 
L 371.483544 -141.319615 
L 368.658228 -141.319615 
L 368.658228 -141.319615 
L 365.832911 -141.319615 
L 365.832911 -132.63584 
L 363.007595 -132.63584 
L 363.007595 -132.63584 
L 360.182278 -132.63584 
L 360.182278 -132.63584 
L 357.356962 -132.63584 
L 357.356962 -132.63584 
L 354.531646 -132.63584 
L 354.531646 -132.63584 
L 351.706329 -132.63584 
L 351.706329 -132.63584 
L 348.881013 -132.63584 
L 348.881013 -132.63584 
L 346.055696 -132.63584 
L 346.055696 -122.380632 
L 343.23038 -122.380632 
L 343.23038 -122.380632 
L 340.405063 -122.380632 
L 340.405063 -122.380632 
L 337.579747 -122.380632 
L 337.579747 -122.380632 
L 334.75443 -122.380632 
L 334.75443 -122.380632 
L 331.929114 -122.380632 
L 331.929114 -122.380632 
L 329.103797 -122.380632 
L 329.103797 -122.380632 
L 326.278481 -122.380632 
L 326.278481 -112.13532 
L 323.453165 -112.13532 
L 323.453165 -112.13532 
L 320.627848 -112.13532 
L 320.627848 -112.13532 
L 317.802532 -112.13532 
L 317.802532 -112.13532 
L 314.977215 -112.13532 
L 314.977215 -112.13532 
L 312.151899 -112.13532 
L 312.151899 -112.13532 
L 309.326582 -112.13532 
L 309.326582 -112.13532 
L 306.501266 -112.13532 
L 306.501266 -101.919114 
L 303.675949 -101.919114 
L 303.675949 -101.919114 
L 300.850633 -101.919114 
L 300.850633 -101.919114 
L 298.025316 -101.919114 
L 298.025316 -101.919114 
L 295.2 -101.919114 
L 295.2 -101.919114 
L 292.374684 -101.919114 
L 292.374684 -101.919114 
L 289.549367 -101.919114 
L 289.549367 -101.919114 
L 286.724051 -101.919114 
L 286.724051 -91.702908 
L 283.898734 -91.702908 
L 283.898734 -91.702908 
L 281.073418 -91.702908 
L 281.073418 -91.702908 
L 278.248101 -91.702908 
L 278.248101 -91.702908 
L 275.422785 -91.702908 
L 275.422785 -91.702908 
L 272.597468 -91.702908 
L 272.597468 -91.702908 
L 269.772152 -91.702908 
L 269.772152 -91.702908 
L 266.946835 -91.702908 
L 266.946835 -86.66757 
L 264.121519 -86.66757 
L 264.121519 -86.66757 
L 261.296203 -86.66757 
L 261.296203 -86.66757 
L 258.470886 -86.66757 
L 258.470886 -86.66757 
L 255.64557 -86.66757 
L 255.64557 -86.66757 
L 252.820253 -86.66757 
L 252.820253 -86.66757 
L 249.994937 -86.66757 
L 249.994937 -86.66757 
L 247.16962 -86.66757 
L 247.16962 -81.632232 
L 244.344304 -81.632232 
L 244.344304 -81.632232 
L 241.518987 -81.632232 
L 241.518987 -81.632232 
L 238.693671 -81.632232 
L 238.693671 -81.632232 
L 235.868354 -81.632232 
L 235.868354 -81.632232 
L 233.043038 -81.632232 
L 233.043038 -81.632232 
L 230.217722 -81.632232 
L 230.217722 -81.632232 
L 227.392405 -81.632232 
L 227.392405 -72.84222 
L 224.567089 -72.84222 
L 224.567089 -72.84222 
L 221.741772 -72.84222 
L 221.741772 -72.84222 
L 218.916456 -72.84222 
L 218.916456 -72.84222 
L 216.091139 -72.84222 
L 216.091139 -72.84222 
L 213.265823 -72.84222 
L 213.265823 -72.84222 
L 210.440506 -72.84222 
L 210.440506 -72.84222 
L 207.61519 -72.84222 
L 207.61519 -69.378606 
L 204.789873 -69.378606 
L 204.789873 -69.378606 
L 201.964557 -69.378606 
L 201.964557 -69.378606 
L 199.139241 -69.378606 
L 199.139241 -69.378606 
L 196.313924 -69.378606 
L 196.313924 -69.378606 
L 193.488608 -69.378606 
L 193.488608 -69.378606 
L 190.663291 -69.378606 
L 190.663291 -69.378606 
L 187.837975 -69.378606 
L 187.837975 -69.378606 
L 185.012658 -69.378606 
L 185.012658 -69.378606 
L 182.187342 -69.378606 
L 182.187342 -69.378606 
L 179.362025 -69.378606 
L 179.362025 -69.378606 
L 176.536709 -69.378606 
L 176.536709 -69.378606 
L 173.711392 -69.378606 
L 173.711392 -69.378606 
L 170.886076 -69.378606 
L 170.886076 -69.378606 
L 168.060759 -69.378606 
L 168.060759 -64.750752 
L 165.235443 -64.750752 
L 165.235443 -64.750752 
L 162.410127 -64.750752 
L 162.410127 -64.750752 
L 159.58481 -64.750752 
L 159.58481 -64.750752 
L 156.759494 -64.750752 
L 156.759494 -64.750752 
L 153.934177 -64.750752 
L 153.934177 -64.750752 
L 151.108861 -64.750752 
L 151.108861 -64.750752 
L 148.283544 -64.750752 
L 148.283544 -64.750752 
L 145.458228 -64.750752 
L 145.458228 -64.750752 
L 142.632911 -64.750752 
L 142.632911 -64.750752 
L 139.807595 -64.750752 
L 139.807595 -64.750752 
L 136.982278 -64.750752 
L 136.982278 -64.750752 
L 134.156962 -64.750752 
L 134.156962 -64.750752 
L 131.331646 -64.750752 
L 131.331646 -64.750752 
L 128.506329 -64.750752 
L 128.506329 -60.413958 
L 125.681013 -60.413958 
L 125.681013 -60.413958 
L 122.855696 -60.413958 
L 122.855696 -60.413958 
L 120.03038 -60.413958 
L 120.03038 -60.413958 
L 117.205063 -60.413958 
L 117.205063 -60.413958 
L 114.379747 -60.413958 
L 114.379747 -60.413958 
L 111.55443 -60.413958 
L 111.55443 -60.413958 
L 108.729114 -60.413958 
L 108.729114 -56.484648 
L 105.903797 -56.484648 
L 105.903797 -56.484648 
L 103.078481 -56.484648 
L 103.078481 -56.484648 
L 100.253165 -56.484648 
L 100.253165 -56.484648 
L 97.427848 -56.484648 
L 97.427848 -56.484648 
L 94.602532 -56.484648 
L 94.602532 -56.484648 
L 91.777215 -56.484648 
L 91.777215 -56.484648 
L 88.951899 -56.484648 
L 88.951899 -51.653052 
L 86.126582 -51.653052 
L 86.126582 -51.653052 
L 83.301266 -51.653052 
L 83.301266 -51.653052 
L 80.475949 -51.653052 
L 80.475949 -51.653052 
L 77.650633 -51.653052 
L 77.650633 -51.653052 
L 74.825316 -51.653052 
L 74.825316 -51.653052 
L 72 -51.653052 
L 72 -51.653052 
z
" id="mbafcb0e966"/>
    </defs>
    <g clip-path="url(#p5778846deb)">
     <use style="fill:#d62728;" x="0" xlink:href="#mbafcb0e966" y="432"/>
    </g>
   </g>
   <g id="matplotlib.axis_1">
    <g id="xtick_1">
     <g id="line2d_1">
      <path clip-path="url(#p5778846deb)" d="M 91.777215 384.48 
L 91.777215 51.84 
" style="fill:none;stroke:#000000;stroke-dasharray:0.8,1.32;stroke-dashoffset:0;stroke-width:0.8;"/>
     </g>
     <g id="line2d_2">
      <defs>
       <path d="M 0 0 
L 0 3.5 
" id="m55af33cc81" style="stroke:#000000;stroke-width:0.8;"/>
      </defs>
      <g>
       <use style="stroke:#000000;stroke-width:0.8;" x="91.777215" xlink:href="#m55af33cc81" y="384.48"/>
      </g>
     </g>
     <g id="text_1">
      <!-- Mar -->
      <g transform="translate(82.343621 399.078438)scale(0.1 -0.1)">
       <defs>
        <path d="M 628 4666 
L 1569 4666 
L 2759 1491 
L 3956 4666 
L 4897 4666 
L 4897 0 
L 4281 0 
L 4281 4097 
L 3078 897 
L 2444 897 
L 1241 4097 
L 1241 0 
L 628 0 
L 628 4666 
z
" id="DejaVuSans-4d" transform="scale(0.015625)"/>
        <path d="M 2194 1759 
Q 1497 1759 1228 1600 
Q 959 1441 959 1056 
Q 959 750 1161 570 
Q 1363 391 1709 391 
Q 2188 391 2477 730 
Q 2766 1069 2766 1631 
L 2766 1759 
L 2194 1759 
z
M 3341 1997 
L 3341 0 
L 2766 0 
L 2766 531 
Q 2569 213 2275 61 
Q 1981 -91 1556 -91 
Q 1019 -91 701 211 
Q 384 513 384 1019 
Q 384 1609 779 1909 
Q 1175 2209 1959 2209 
L 2766 2209 
L 2766 2266 
Q 2766 2663 2505 2880 
Q 2244 3097 1772 3097 
Q 1472 3097 1187 3025 
Q 903 2953 641 2809 
L 641 3341 
Q 956 3463 1253 3523 
Q 1550 3584 1831 3584 
Q 2591 3584 2966 3190 
Q 3341 2797 3341 1997 
z
" id="DejaVuSans-61" transform="scale(0.015625)"/>
        <path d="M 2631 2963 
Q 2534 3019 2420 3045 
Q 2306 3072 2169 3072 
Q 1681 3072 1420 2755 
Q 1159 2438 1159 1844 
L 1159 0 
L 581 0 
L 581 3500 
L 1159 3500 
L 1159 2956 
Q 1341 3275 1631 3429 
Q 1922 3584 2338 3584 
Q 2397 3584 2469 3576 
Q 2541 3569 2628 3553 
L 2631 2963 
z
" id="DejaVuSans-72" transform="scale(0.015625)"/>
       </defs>
       <use xlink:href="#DejaVuSans-4d"/>
       <use x="86.279297" xlink:href="#DejaVuSans-61"/>
       <use x="147.558594" xlink:href="#DejaVuSans-72"/>
      </g>
     </g>
    </g>
    <g id="xtick_2">
     <g id="line2d_3">
      <path clip-path="url(#p5778846deb)" d="M 131.331646 384.48 
L 131.331646 51.84 
" style="fill:none;stroke:#000000;stroke-dasharray:0.8,1.32;stroke-dashoffset:0;stroke-width:0.8;"/>
     </g>
     <g id="line2d_4">
      <g>
       <use style="stroke:#000000;stroke-width:0.8;" x="131.331646" xlink:href="#m55af33cc81" y="384.48"/>
      </g>
     </g>
     <g id="text_2">
      <!-- 15 -->
      <g transform="translate(124.969146 399.078438)scale(0.1 -0.1)">
       <defs>
        <path d="M 794 531 
L 1825 531 
L 1825 4091 
L 703 3866 
L 703 4441 
L 1819 4666 
L 2450 4666 
L 2450 531 
L 3481 531 
L 3481 0 
L 794 0 
L 794 531 
z
" id="DejaVuSans-31" transform="scale(0.015625)"/>
        <path d="M 691 4666 
L 3169 4666 
L 3169 4134 
L 1269 4134 
L 1269 2991 
Q 1406 3038 1543 3061 
Q 1681 3084 1819 3084 
Q 2600 3084 3056 2656 
Q 3513 2228 3513 1497 
Q 3513 744 3044 326 
Q 2575 -91 1722 -91 
Q 1428 -91 1123 -41 
Q 819 9 494 109 
L 494 744 
Q 775 591 1075 516 
Q 1375 441 1709 441 
Q 2250 441 2565 725 
Q 2881 1009 2881 1497 
Q 2881 1984 2565 2268 
Q 2250 2553 1709 2553 
Q 1456 2553 1204 2497 
Q 953 2441 691 2322 
L 691 4666 
z
" id="DejaVuSans-35" transform="scale(0.015625)"/>
       </defs>
       <use xlink:href="#DejaVuSans-31"/>
       <use x="63.623047" xlink:href="#DejaVuSans-35"/>
      </g>
     </g>
    </g>
    <g id="xtick_3">
     <g id="line2d_5">
      <path clip-path="url(#p5778846deb)" d="M 179.362025 384.48 
L 179.362025 51.84 
" style="fill:none;stroke:#000000;stroke-dasharray:0.8,1.32;stroke-dashoffset:0;stroke-width:0.8;"/>
     </g>
     <g id="line2d_6">
      <g>
       <use style="stroke:#000000;stroke-width:0.8;" x="179.362025" xlink:href="#m55af33cc81" y="384.48"/>
      </g>
     </g>
     <g id="text_3">
      <!-- Apr -->
      <g transform="translate(170.712025 399.078438)scale(0.1 -0.1)">
       <defs>
        <path d="M 2188 4044 
L 1331 1722 
L 3047 1722 
L 2188 4044 
z
M 1831 4666 
L 2547 4666 
L 4325 0 
L 3669 0 
L 3244 1197 
L 1141 1197 
L 716 0 
L 50 0 
L 1831 4666 
z
" id="DejaVuSans-41" transform="scale(0.015625)"/>
        <path d="M 1159 525 
L 1159 -1331 
L 581 -1331 
L 581 3500 
L 1159 3500 
L 1159 2969 
Q 1341 3281 1617 3432 
Q 1894 3584 2278 3584 
Q 2916 3584 3314 3078 
Q 3713 2572 3713 1747 
Q 3713 922 3314 415 
Q 2916 -91 2278 -91 
Q 1894 -91 1617 61 
Q 1341 213 1159 525 
z
M 3116 1747 
Q 3116 2381 2855 2742 
Q 2594 3103 2138 3103 
Q 1681 3103 1420 2742 
Q 1159 2381 1159 1747 
Q 1159 1113 1420 752 
Q 1681 391 2138 391 
Q 2594 391 2855 752 
Q 3116 1113 3116 1747 
z
" id="DejaVuSans-70" transform="scale(0.015625)"/>
       </defs>
       <use xlink:href="#DejaVuSans-41"/>
       <use x="68.408203" xlink:href="#DejaVuSans-70"/>
       <use x="131.884766" xlink:href="#DejaVuSans-72"/>
      </g>
     </g>
    </g>
    <g id="xtick_4">
     <g id="line2d_7">
      <path clip-path="url(#p5778846deb)" d="M 218.916456 384.48 
L 218.916456 51.84 
" style="fill:none;stroke:#000000;stroke-dasharray:0.8,1.32;stroke-dashoffset:0;stroke-width:0.8;"/>
     </g>
     <g id="line2d_8">
      <g>
       <use style="stroke:#000000;stroke-width:0.8;" x="218.916456" xlink:href="#m55af33cc81" y="384.48"/>
      </g>
     </g>
     <g id="text_4">
      <!-- 15 -->
      <g transform="translate(212.553956 399.078438)scale(0.1 -0.1)">
       <use xlink:href="#DejaVuSans-31"/>
       <use x="63.623047" xlink:href="#DejaVuSans-35"/>
      </g>
     </g>
    </g>
    <g id="xtick_5">
     <g id="line2d_9">
      <path clip-path="url(#p5778846deb)" d="M 264.121519 384.48 
L 264.121519 51.84 
" style="fill:none;stroke:#000000;stroke-dasharray:0.8,1.32;stroke-dashoffset:0;stroke-width:0.8;"/>
     </g>
     <g id="line2d_10">
      <g>
       <use style="stroke:#000000;stroke-width:0.8;" x="264.121519" xlink:href="#m55af33cc81" y="384.48"/>
      </g>
     </g>
     <g id="text_5">
      <!-- May -->
      <g transform="translate(253.784019 399.078438)scale(0.1 -0.1)">
       <defs>
        <path d="M 2059 -325 
Q 1816 -950 1584 -1140 
Q 1353 -1331 966 -1331 
L 506 -1331 
L 506 -850 
L 844 -850 
Q 1081 -850 1212 -737 
Q 1344 -625 1503 -206 
L 1606 56 
L 191 3500 
L 800 3500 
L 1894 763 
L 2988 3500 
L 3597 3500 
L 2059 -325 
z
" id="DejaVuSans-79" transform="scale(0.015625)"/>
       </defs>
       <use xlink:href="#DejaVuSans-4d"/>
       <use x="86.279297" xlink:href="#DejaVuSans-61"/>
       <use x="147.558594" xlink:href="#DejaVuSans-79"/>
      </g>
     </g>
    </g>
    <g id="xtick_6">
     <g id="line2d_11">
      <path clip-path="url(#p5778846deb)" d="M 303.675949 384.48 
L 303.675949 51.84 
" style="fill:none;stroke:#000000;stroke-dasharray:0.8,1.32;stroke-dashoffset:0;stroke-width:0.8;"/>
     </g>
     <g id="line2d_12">
      <g>
       <use style="stroke:#000000;stroke-width:0.8;" x="303.675949" xlink:href="#m55af33cc81" y="384.48"/>
      </g>
     </g>
     <g id="text_6">
      <!-- 15 -->
      <g transform="translate(297.313449 399.078438)scale(0.1 -0.1)">
       <use xlink:href="#DejaVuSans-31"/>
       <use x="63.623047" xlink:href="#DejaVuSans-35"/>
      </g>
     </g>
    </g>
    <g id="xtick_7">
     <g id="line2d_13">
      <path clip-path="url(#p5778846deb)" d="M 351.706329 384.48 
L 351.706329 51.84 
" style="fill:none;stroke:#000000;stroke-dasharray:0.8,1.32;stroke-dashoffset:0;stroke-width:0.8;"/>
     </g>
     <g id="line2d_14">
      <g>
       <use style="stroke:#000000;stroke-width:0.8;" x="351.706329" xlink:href="#m55af33cc81" y="384.48"/>
      </g>
     </g>
     <g id="text_7">
      <!-- Jun -->
      <g transform="translate(343.893829 399.078438)scale(0.1 -0.1)">
       <defs>
        <path d="M 628 4666 
L 1259 4666 
L 1259 325 
Q 1259 -519 939 -900 
Q 619 -1281 -91 -1281 
L -331 -1281 
L -331 -750 
L -134 -750 
Q 284 -750 456 -515 
Q 628 -281 628 325 
L 628 4666 
z
" id="DejaVuSans-4a" transform="scale(0.015625)"/>
        <path d="M 544 1381 
L 544 3500 
L 1119 3500 
L 1119 1403 
Q 1119 906 1312 657 
Q 1506 409 1894 409 
Q 2359 409 2629 706 
Q 2900 1003 2900 1516 
L 2900 3500 
L 3475 3500 
L 3475 0 
L 2900 0 
L 2900 538 
Q 2691 219 2414 64 
Q 2138 -91 1772 -91 
Q 1169 -91 856 284 
Q 544 659 544 1381 
z
M 1991 3584 
L 1991 3584 
z
" id="DejaVuSans-75" transform="scale(0.015625)"/>
        <path d="M 3513 2113 
L 3513 0 
L 2938 0 
L 2938 2094 
Q 2938 2591 2744 2837 
Q 2550 3084 2163 3084 
Q 1697 3084 1428 2787 
Q 1159 2491 1159 1978 
L 1159 0 
L 581 0 
L 581 3500 
L 1159 3500 
L 1159 2956 
Q 1366 3272 1645 3428 
Q 1925 3584 2291 3584 
Q 2894 3584 3203 3211 
Q 3513 2838 3513 2113 
z
" id="DejaVuSans-6e" transform="scale(0.015625)"/>
       </defs>
       <use xlink:href="#DejaVuSans-4a"/>
       <use x="29.492188" xlink:href="#DejaVuSans-75"/>
       <use x="92.871094" xlink:href="#DejaVuSans-6e"/>
      </g>
     </g>
    </g>
    <g id="xtick_8">
     <g id="line2d_15">
      <path clip-path="url(#p5778846deb)" d="M 391.260759 384.48 
L 391.260759 51.84 
" style="fill:none;stroke:#000000;stroke-dasharray:0.8,1.32;stroke-dashoffset:0;stroke-width:0.8;"/>
     </g>
     <g id="line2d_16">
      <g>
       <use style="stroke:#000000;stroke-width:0.8;" x="391.260759" xlink:href="#m55af33cc81" y="384.48"/>
      </g>
     </g>
     <g id="text_8">
      <!-- 15 -->
      <g transform="translate(384.898259 399.078438)scale(0.1 -0.1)">
       <use xlink:href="#DejaVuSans-31"/>
       <use x="63.623047" xlink:href="#DejaVuSans-35"/>
      </g>
     </g>
    </g>
    <g id="xtick_9">
     <g id="line2d_17">
      <path clip-path="url(#p5778846deb)" d="M 436.465823 384.48 
L 436.465823 51.84 
" style="fill:none;stroke:#000000;stroke-dasharray:0.8,1.32;stroke-dashoffset:0;stroke-width:0.8;"/>
     </g>
     <g id="line2d_18">
      <g>
       <use style="stroke:#000000;stroke-width:0.8;" x="436.465823" xlink:href="#m55af33cc81" y="384.48"/>
      </g>
     </g>
     <g id="text_9">
      <!-- Jul -->
      <g transform="translate(430.43301 399.078438)scale(0.1 -0.1)">
       <defs>
        <path d="M 603 4863 
L 1178 4863 
L 1178 0 
L 603 0 
L 603 4863 
z
" id="DejaVuSans-6c" transform="scale(0.015625)"/>
       </defs>
       <use xlink:href="#DejaVuSans-4a"/>
       <use x="29.492188" xlink:href="#DejaVuSans-75"/>
       <use x="92.871094" xlink:href="#DejaVuSans-6c"/>
      </g>
     </g>
    </g>
    <g id="xtick_10">
     <g id="line2d_19">
      <path clip-path="url(#p5778846deb)" d="M 476.020253 384.48 
L 476.020253 51.84 
" style="fill:none;stroke:#000000;stroke-dasharray:0.8,1.32;stroke-dashoffset:0;stroke-width:0.8;"/>
     </g>
     <g id="line2d_20">
      <g>
       <use style="stroke:#000000;stroke-width:0.8;" x="476.020253" xlink:href="#m55af33cc81" y="384.48"/>
      </g>
     </g>
     <g id="text_10">
      <!-- 15 -->
      <g transform="translate(469.657753 399.078438)scale(0.1 -0.1)">
       <use xlink:href="#DejaVuSans-31"/>
       <use x="63.623047" xlink:href="#DejaVuSans-35"/>
      </g>
     </g>
    </g>
   </g>
   <g id="matplotlib.axis_2">
    <g id="ytick_1">
     <g id="line2d_21">
      <path clip-path="url(#p5778846deb)" d="M 72 384.48 
L 518.4 384.48 
" style="fill:none;stroke:#000000;stroke-dasharray:0.8,1.32;stroke-dashoffset:0;stroke-width:0.8;"/>
     </g>
     <g id="line2d_22">
      <defs>
       <path d="M 0 0 
L -3.5 0 
" id="m253031e53c" style="stroke:#000000;stroke-width:0.8;"/>
      </defs>
      <g>
       <use style="stroke:#000000;stroke-width:0.8;" x="72" xlink:href="#m253031e53c" y="384.48"/>
      </g>
     </g>
     <g id="text_11">
      <!-- 0 -->
      <g transform="translate(58.6375 388.279219)scale(0.1 -0.1)">
       <defs>
        <path d="M 2034 4250 
Q 1547 4250 1301 3770 
Q 1056 3291 1056 2328 
Q 1056 1369 1301 889 
Q 1547 409 2034 409 
Q 2525 409 2770 889 
Q 3016 1369 3016 2328 
Q 3016 3291 2770 3770 
Q 2525 4250 2034 4250 
z
M 2034 4750 
Q 2819 4750 3233 4129 
Q 3647 3509 3647 2328 
Q 3647 1150 3233 529 
Q 2819 -91 2034 -91 
Q 1250 -91 836 529 
Q 422 1150 422 2328 
Q 422 3509 836 4129 
Q 1250 4750 2034 4750 
z
" id="DejaVuSans-30" transform="scale(0.015625)"/>
       </defs>
       <use xlink:href="#DejaVuSans-30"/>
      </g>
     </g>
    </g>
    <g id="ytick_2">
     <g id="line2d_23">
      <path clip-path="url(#p5778846deb)" d="M 72 351.216 
L 518.4 351.216 
" style="fill:none;stroke:#000000;stroke-dasharray:0.8,1.32;stroke-dashoffset:0;stroke-width:0.8;"/>
     </g>
     <g id="line2d_24">
      <g>
       <use style="stroke:#000000;stroke-width:0.8;" x="72" xlink:href="#m253031e53c" y="351.216"/>
      </g>
     </g>
     <g id="text_12">
      <!-- 1 -->
      <g transform="translate(58.6375 355.015219)scale(0.1 -0.1)">
       <use xlink:href="#DejaVuSans-31"/>
      </g>
     </g>
    </g>
    <g id="ytick_3">
     <g id="line2d_25">
      <path clip-path="url(#p5778846deb)" d="M 72 317.952 
L 518.4 317.952 
" style="fill:none;stroke:#000000;stroke-dasharray:0.8,1.32;stroke-dashoffset:0;stroke-width:0.8;"/>
     </g>
     <g id="line2d_26">
      <g>
       <use style="stroke:#000000;stroke-width:0.8;" x="72" xlink:href="#m253031e53c" y="317.952"/>
      </g>
     </g>
     <g id="text_13">
      <!-- 2 -->
      <g transform="translate(58.6375 321.751219)scale(0.1 -0.1)">
       <defs>
        <path d="M 1228 531 
L 3431 531 
L 3431 0 
L 469 0 
L 469 531 
Q 828 903 1448 1529 
Q 2069 2156 2228 2338 
Q 2531 2678 2651 2914 
Q 2772 3150 2772 3378 
Q 2772 3750 2511 3984 
Q 2250 4219 1831 4219 
Q 1534 4219 1204 4116 
Q 875 4013 500 3803 
L 500 4441 
Q 881 4594 1212 4672 
Q 1544 4750 1819 4750 
Q 2544 4750 2975 4387 
Q 3406 4025 3406 3419 
Q 3406 3131 3298 2873 
Q 3191 2616 2906 2266 
Q 2828 2175 2409 1742 
Q 1991 1309 1228 531 
z
" id="DejaVuSans-32" transform="scale(0.015625)"/>
       </defs>
       <use xlink:href="#DejaVuSans-32"/>
      </g>
     </g>
    </g>
    <g id="ytick_4">
     <g id="line2d_27">
      <path clip-path="url(#p5778846deb)" d="M 72 284.688 
L 518.4 284.688 
" style="fill:none;stroke:#000000;stroke-dasharray:0.8,1.32;stroke-dashoffset:0;stroke-width:0.8;"/>
     </g>
     <g id="line2d_28">
      <g>
       <use style="stroke:#000000;stroke-width:0.8;" x="72" xlink:href="#m253031e53c" y="284.688"/>
      </g>
     </g>
     <g id="text_14">
      <!-- 3 -->
      <g transform="translate(58.6375 288.487219)scale(0.1 -0.1)">
       <defs>
        <path d="M 2597 2516 
Q 3050 2419 3304 2112 
Q 3559 1806 3559 1356 
Q 3559 666 3084 287 
Q 2609 -91 1734 -91 
Q 1441 -91 1130 -33 
Q 819 25 488 141 
L 488 750 
Q 750 597 1062 519 
Q 1375 441 1716 441 
Q 2309 441 2620 675 
Q 2931 909 2931 1356 
Q 2931 1769 2642 2001 
Q 2353 2234 1838 2234 
L 1294 2234 
L 1294 2753 
L 1863 2753 
Q 2328 2753 2575 2939 
Q 2822 3125 2822 3475 
Q 2822 3834 2567 4026 
Q 2313 4219 1838 4219 
Q 1578 4219 1281 4162 
Q 984 4106 628 3988 
L 628 4550 
Q 988 4650 1302 4700 
Q 1616 4750 1894 4750 
Q 2613 4750 3031 4423 
Q 3450 4097 3450 3541 
Q 3450 3153 3228 2886 
Q 3006 2619 2597 2516 
z
" id="DejaVuSans-33" transform="scale(0.015625)"/>
       </defs>
       <use xlink:href="#DejaVuSans-33"/>
      </g>
     </g>
    </g>
    <g id="ytick_5">
     <g id="line2d_29">
      <path clip-path="url(#p5778846deb)" d="M 72 251.424 
L 518.4 251.424 
" style="fill:none;stroke:#000000;stroke-dasharray:0.8,1.32;stroke-dashoffset:0;stroke-width:0.8;"/>
     </g>
     <g id="line2d_30">
      <g>
       <use style="stroke:#000000;stroke-width:0.8;" x="72" xlink:href="#m253031e53c" y="251.424"/>
      </g>
     </g>
     <g id="text_15">
      <!-- 4 -->
      <g transform="translate(58.6375 255.223219)scale(0.1 -0.1)">
       <defs>
        <path d="M 2419 4116 
L 825 1625 
L 2419 1625 
L 2419 4116 
z
M 2253 4666 
L 3047 4666 
L 3047 1625 
L 3713 1625 
L 3713 1100 
L 3047 1100 
L 3047 0 
L 2419 0 
L 2419 1100 
L 313 1100 
L 313 1709 
L 2253 4666 
z
" id="DejaVuSans-34" transform="scale(0.015625)"/>
       </defs>
       <use xlink:href="#DejaVuSans-34"/>
      </g>
     </g>
    </g>
    <g id="ytick_6">
     <g id="line2d_31">
      <path clip-path="url(#p5778846deb)" d="M 72 218.16 
L 518.4 218.16 
" style="fill:none;stroke:#000000;stroke-dasharray:0.8,1.32;stroke-dashoffset:0;stroke-width:0.8;"/>
     </g>
     <g id="line2d_32">
      <g>
       <use style="stroke:#000000;stroke-width:0.8;" x="72" xlink:href="#m253031e53c" y="218.16"/>
      </g>
     </g>
     <g id="text_16">
      <!-- 5 -->
      <g transform="translate(58.6375 221.959219)scale(0.1 -0.1)">
       <use xlink:href="#DejaVuSans-35"/>
      </g>
     </g>
    </g>
    <g id="ytick_7">
     <g id="line2d_33">
      <path clip-path="url(#p5778846deb)" d="M 72 184.896 
L 518.4 184.896 
" style="fill:none;stroke:#000000;stroke-dasharray:0.8,1.32;stroke-dashoffset:0;stroke-width:0.8;"/>
     </g>
     <g id="line2d_34">
      <g>
       <use style="stroke:#000000;stroke-width:0.8;" x="72" xlink:href="#m253031e53c" y="184.896"/>
      </g>
     </g>
     <g id="text_17">
      <!-- 6 -->
      <g transform="translate(58.6375 188.695219)scale(0.1 -0.1)">
       <defs>
        <path d="M 2113 2584 
Q 1688 2584 1439 2293 
Q 1191 2003 1191 1497 
Q 1191 994 1439 701 
Q 1688 409 2113 409 
Q 2538 409 2786 701 
Q 3034 994 3034 1497 
Q 3034 2003 2786 2293 
Q 2538 2584 2113 2584 
z
M 3366 4563 
L 3366 3988 
Q 3128 4100 2886 4159 
Q 2644 4219 2406 4219 
Q 1781 4219 1451 3797 
Q 1122 3375 1075 2522 
Q 1259 2794 1537 2939 
Q 1816 3084 2150 3084 
Q 2853 3084 3261 2657 
Q 3669 2231 3669 1497 
Q 3669 778 3244 343 
Q 2819 -91 2113 -91 
Q 1303 -91 875 529 
Q 447 1150 447 2328 
Q 447 3434 972 4092 
Q 1497 4750 2381 4750 
Q 2619 4750 2861 4703 
Q 3103 4656 3366 4563 
z
" id="DejaVuSans-36" transform="scale(0.015625)"/>
       </defs>
       <use xlink:href="#DejaVuSans-36"/>
      </g>
     </g>
    </g>
    <g id="ytick_8">
     <g id="line2d_35">
      <path clip-path="url(#p5778846deb)" d="M 72 151.632 
L 518.4 151.632 
" style="fill:none;stroke:#000000;stroke-dasharray:0.8,1.32;stroke-dashoffset:0;stroke-width:0.8;"/>
     </g>
     <g id="line2d_36">
      <g>
       <use style="stroke:#000000;stroke-width:0.8;" x="72" xlink:href="#m253031e53c" y="151.632"/>
      </g>
     </g>
     <g id="text_18">
      <!-- 7 -->
      <g transform="translate(58.6375 155.431219)scale(0.1 -0.1)">
       <defs>
        <path d="M 525 4666 
L 3525 4666 
L 3525 4397 
L 1831 0 
L 1172 0 
L 2766 4134 
L 525 4134 
L 525 4666 
z
" id="DejaVuSans-37" transform="scale(0.015625)"/>
       </defs>
       <use xlink:href="#DejaVuSans-37"/>
      </g>
     </g>
    </g>
    <g id="ytick_9">
     <g id="line2d_37">
      <path clip-path="url(#p5778846deb)" d="M 72 118.368 
L 518.4 118.368 
" style="fill:none;stroke:#000000;stroke-dasharray:0.8,1.32;stroke-dashoffset:0;stroke-width:0.8;"/>
     </g>
     <g id="line2d_38">
      <g>
       <use style="stroke:#000000;stroke-width:0.8;" x="72" xlink:href="#m253031e53c" y="118.368"/>
      </g>
     </g>
     <g id="text_19">
      <!-- 8 -->
      <g transform="translate(58.6375 122.167219)scale(0.1 -0.1)">
       <defs>
        <path d="M 2034 2216 
Q 1584 2216 1326 1975 
Q 1069 1734 1069 1313 
Q 1069 891 1326 650 
Q 1584 409 2034 409 
Q 2484 409 2743 651 
Q 3003 894 3003 1313 
Q 3003 1734 2745 1975 
Q 2488 2216 2034 2216 
z
M 1403 2484 
Q 997 2584 770 2862 
Q 544 3141 544 3541 
Q 544 4100 942 4425 
Q 1341 4750 2034 4750 
Q 2731 4750 3128 4425 
Q 3525 4100 3525 3541 
Q 3525 3141 3298 2862 
Q 3072 2584 2669 2484 
Q 3125 2378 3379 2068 
Q 3634 1759 3634 1313 
Q 3634 634 3220 271 
Q 2806 -91 2034 -91 
Q 1263 -91 848 271 
Q 434 634 434 1313 
Q 434 1759 690 2068 
Q 947 2378 1403 2484 
z
M 1172 3481 
Q 1172 3119 1398 2916 
Q 1625 2713 2034 2713 
Q 2441 2713 2670 2916 
Q 2900 3119 2900 3481 
Q 2900 3844 2670 4047 
Q 2441 4250 2034 4250 
Q 1625 4250 1398 4047 
Q 1172 3844 1172 3481 
z
" id="DejaVuSans-38" transform="scale(0.015625)"/>
       </defs>
       <use xlink:href="#DejaVuSans-38"/>
      </g>
     </g>
    </g>
    <g id="ytick_10">
     <g id="line2d_39">
      <path clip-path="url(#p5778846deb)" d="M 72 85.104 
L 518.4 85.104 
" style="fill:none;stroke:#000000;stroke-dasharray:0.8,1.32;stroke-dashoffset:0;stroke-width:0.8;"/>
     </g>
     <g id="line2d_40">
      <g>
       <use style="stroke:#000000;stroke-width:0.8;" x="72" xlink:href="#m253031e53c" y="85.104"/>
      </g>
     </g>
     <g id="text_20">
      <!-- 9 -->
      <g transform="translate(58.6375 88.903219)scale(0.1 -0.1)">
       <defs>
        <path d="M 703 97 
L 703 672 
Q 941 559 1184 500 
Q 1428 441 1663 441 
Q 2288 441 2617 861 
Q 2947 1281 2994 2138 
Q 2813 1869 2534 1725 
Q 2256 1581 1919 1581 
Q 1219 1581 811 2004 
Q 403 2428 403 3163 
Q 403 3881 828 4315 
Q 1253 4750 1959 4750 
Q 2769 4750 3195 4129 
Q 3622 3509 3622 2328 
Q 3622 1225 3098 567 
Q 2575 -91 1691 -91 
Q 1453 -91 1209 -44 
Q 966 3 703 97 
z
M 1959 2075 
Q 2384 2075 2632 2365 
Q 2881 2656 2881 3163 
Q 2881 3666 2632 3958 
Q 2384 4250 1959 4250 
Q 1534 4250 1286 3958 
Q 1038 3666 1038 3163 
Q 1038 2656 1286 2365 
Q 1534 2075 1959 2075 
z
" id="DejaVuSans-39" transform="scale(0.015625)"/>
       </defs>
       <use xlink:href="#DejaVuSans-39"/>
      </g>
     </g>
    </g>
    <g id="ytick_11">
     <g id="line2d_41">
      <path clip-path="url(#p5778846deb)" d="M 72 51.84 
L 518.4 51.84 
" style="fill:none;stroke:#000000;stroke-dasharray:0.8,1.32;stroke-dashoffset:0;stroke-width:0.8;"/>
     </g>
     <g id="line2d_42">
      <g>
       <use style="stroke:#000000;stroke-width:0.8;" x="72" xlink:href="#m253031e53c" y="51.84"/>
      </g>
     </g>
     <g id="text_21">
      <!-- 10 -->
      <g transform="translate(52.275 55.639219)scale(0.1 -0.1)">
       <use xlink:href="#DejaVuSans-31"/>
       <use x="63.623047" xlink:href="#DejaVuSans-30"/>
      </g>
     </g>
    </g>
    <g id="text_22">
     <!-- Cumulative doses (millions) -->
     <g transform="translate(46.195312 287.556094)rotate(-90)scale(0.1 -0.1)">
      <defs>
       <path d="M 4122 4306 
L 4122 3641 
Q 3803 3938 3442 4084 
Q 3081 4231 2675 4231 
Q 1875 4231 1450 3742 
Q 1025 3253 1025 2328 
Q 1025 1406 1450 917 
Q 1875 428 2675 428 
Q 3081 428 3442 575 
Q 3803 722 4122 1019 
L 4122 359 
Q 3791 134 3420 21 
Q 3050 -91 2638 -91 
Q 1578 -91 968 557 
Q 359 1206 359 2328 
Q 359 3453 968 4101 
Q 1578 4750 2638 4750 
Q 3056 4750 3426 4639 
Q 3797 4528 4122 4306 
z
" id="DejaVuSans-43" transform="scale(0.015625)"/>
       <path d="M 3328 2828 
Q 3544 3216 3844 3400 
Q 4144 3584 4550 3584 
Q 5097 3584 5394 3201 
Q 5691 2819 5691 2113 
L 5691 0 
L 5113 0 
L 5113 2094 
Q 5113 2597 4934 2840 
Q 4756 3084 4391 3084 
Q 3944 3084 3684 2787 
Q 3425 2491 3425 1978 
L 3425 0 
L 2847 0 
L 2847 2094 
Q 2847 2600 2669 2842 
Q 2491 3084 2119 3084 
Q 1678 3084 1418 2786 
Q 1159 2488 1159 1978 
L 1159 0 
L 581 0 
L 581 3500 
L 1159 3500 
L 1159 2956 
Q 1356 3278 1631 3431 
Q 1906 3584 2284 3584 
Q 2666 3584 2933 3390 
Q 3200 3197 3328 2828 
z
" id="DejaVuSans-6d" transform="scale(0.015625)"/>
       <path d="M 1172 4494 
L 1172 3500 
L 2356 3500 
L 2356 3053 
L 1172 3053 
L 1172 1153 
Q 1172 725 1289 603 
Q 1406 481 1766 481 
L 2356 481 
L 2356 0 
L 1766 0 
Q 1100 0 847 248 
Q 594 497 594 1153 
L 594 3053 
L 172 3053 
L 172 3500 
L 594 3500 
L 594 4494 
L 1172 4494 
z
" id="DejaVuSans-74" transform="scale(0.015625)"/>
       <path d="M 603 3500 
L 1178 3500 
L 1178 0 
L 603 0 
L 603 3500 
z
M 603 4863 
L 1178 4863 
L 1178 4134 
L 603 4134 
L 603 4863 
z
" id="DejaVuSans-69" transform="scale(0.015625)"/>
       <path d="M 191 3500 
L 800 3500 
L 1894 563 
L 2988 3500 
L 3597 3500 
L 2284 0 
L 1503 0 
L 191 3500 
z
" id="DejaVuSans-76" transform="scale(0.015625)"/>
       <path d="M 3597 1894 
L 3597 1613 
L 953 1613 
Q 991 1019 1311 708 
Q 1631 397 2203 397 
Q 2534 397 2845 478 
Q 3156 559 3463 722 
L 3463 178 
Q 3153 47 2828 -22 
Q 2503 -91 2169 -91 
Q 1331 -91 842 396 
Q 353 884 353 1716 
Q 353 2575 817 3079 
Q 1281 3584 2069 3584 
Q 2775 3584 3186 3129 
Q 3597 2675 3597 1894 
z
M 3022 2063 
Q 3016 2534 2758 2815 
Q 2500 3097 2075 3097 
Q 1594 3097 1305 2825 
Q 1016 2553 972 2059 
L 3022 2063 
z
" id="DejaVuSans-65" transform="scale(0.015625)"/>
       <path id="DejaVuSans-20" transform="scale(0.015625)"/>
       <path d="M 2906 2969 
L 2906 4863 
L 3481 4863 
L 3481 0 
L 2906 0 
L 2906 525 
Q 2725 213 2448 61 
Q 2172 -91 1784 -91 
Q 1150 -91 751 415 
Q 353 922 353 1747 
Q 353 2572 751 3078 
Q 1150 3584 1784 3584 
Q 2172 3584 2448 3432 
Q 2725 3281 2906 2969 
z
M 947 1747 
Q 947 1113 1208 752 
Q 1469 391 1925 391 
Q 2381 391 2643 752 
Q 2906 1113 2906 1747 
Q 2906 2381 2643 2742 
Q 2381 3103 1925 3103 
Q 1469 3103 1208 2742 
Q 947 2381 947 1747 
z
" id="DejaVuSans-64" transform="scale(0.015625)"/>
       <path d="M 1959 3097 
Q 1497 3097 1228 2736 
Q 959 2375 959 1747 
Q 959 1119 1226 758 
Q 1494 397 1959 397 
Q 2419 397 2687 759 
Q 2956 1122 2956 1747 
Q 2956 2369 2687 2733 
Q 2419 3097 1959 3097 
z
M 1959 3584 
Q 2709 3584 3137 3096 
Q 3566 2609 3566 1747 
Q 3566 888 3137 398 
Q 2709 -91 1959 -91 
Q 1206 -91 779 398 
Q 353 888 353 1747 
Q 353 2609 779 3096 
Q 1206 3584 1959 3584 
z
" id="DejaVuSans-6f" transform="scale(0.015625)"/>
       <path d="M 2834 3397 
L 2834 2853 
Q 2591 2978 2328 3040 
Q 2066 3103 1784 3103 
Q 1356 3103 1142 2972 
Q 928 2841 928 2578 
Q 928 2378 1081 2264 
Q 1234 2150 1697 2047 
L 1894 2003 
Q 2506 1872 2764 1633 
Q 3022 1394 3022 966 
Q 3022 478 2636 193 
Q 2250 -91 1575 -91 
Q 1294 -91 989 -36 
Q 684 19 347 128 
L 347 722 
Q 666 556 975 473 
Q 1284 391 1588 391 
Q 1994 391 2212 530 
Q 2431 669 2431 922 
Q 2431 1156 2273 1281 
Q 2116 1406 1581 1522 
L 1381 1569 
Q 847 1681 609 1914 
Q 372 2147 372 2553 
Q 372 3047 722 3315 
Q 1072 3584 1716 3584 
Q 2034 3584 2315 3537 
Q 2597 3491 2834 3397 
z
" id="DejaVuSans-73" transform="scale(0.015625)"/>
       <path d="M 1984 4856 
Q 1566 4138 1362 3434 
Q 1159 2731 1159 2009 
Q 1159 1288 1364 580 
Q 1569 -128 1984 -844 
L 1484 -844 
Q 1016 -109 783 600 
Q 550 1309 550 2009 
Q 550 2706 781 3412 
Q 1013 4119 1484 4856 
L 1984 4856 
z
" id="DejaVuSans-28" transform="scale(0.015625)"/>
       <path d="M 513 4856 
L 1013 4856 
Q 1481 4119 1714 3412 
Q 1947 2706 1947 2009 
Q 1947 1309 1714 600 
Q 1481 -109 1013 -844 
L 513 -844 
Q 928 -128 1133 580 
Q 1338 1288 1338 2009 
Q 1338 2731 1133 3434 
Q 928 4138 513 4856 
z
" id="DejaVuSans-29" transform="scale(0.015625)"/>
      </defs>
      <use xlink:href="#DejaVuSans-43"/>
      <use x="69.824219" xlink:href="#DejaVuSans-75"/>
      <use x="133.203125" xlink:href="#DejaVuSans-6d"/>
      <use x="230.615234" xlink:href="#DejaVuSans-75"/>
      <use x="293.994141" xlink:href="#DejaVuSans-6c"/>
      <use x="321.777344" xlink:href="#DejaVuSans-61"/>
      <use x="383.056641" xlink:href="#DejaVuSans-74"/>
      <use x="422.265625" xlink:href="#DejaVuSans-69"/>
      <use x="450.048828" xlink:href="#DejaVuSans-76"/>
      <use x="509.228516" xlink:href="#DejaVuSans-65"/>
      <use x="570.751953" xlink:href="#DejaVuSans-20"/>
      <use x="602.539062" xlink:href="#DejaVuSans-64"/>
      <use x="666.015625" xlink:href="#DejaVuSans-6f"/>
      <use x="727.197266" xlink:href="#DejaVuSans-73"/>
      <use x="779.296875" xlink:href="#DejaVuSans-65"/>
      <use x="840.820312" xlink:href="#DejaVuSans-73"/>
      <use x="892.919922" xlink:href="#DejaVuSans-20"/>
      <use x="924.707031" xlink:href="#DejaVuSans-28"/>
      <use x="963.720703" xlink:href="#DejaVuSans-6d"/>
      <use x="1061.132812" xlink:href="#DejaVuSans-69"/>
      <use x="1088.916016" xlink:href="#DejaVuSans-6c"/>
      <use x="1116.699219" xlink:href="#DejaVuSans-6c"/>
      <use x="1144.482422" xlink:href="#DejaVuSans-69"/>
      <use x="1172.265625" xlink:href="#DejaVuSans-6f"/>
      <use x="1233.447266" xlink:href="#DejaVuSans-6e"/>
      <use x="1296.826172" xlink:href="#DejaVuSans-73"/>
      <use x="1348.925781" xlink:href="#DejaVuSans-29"/>
     </g>
    </g>
   </g>
   <g id="patch_3">
    <path d="M 72 384.48 
L 72 51.84 
" style="fill:none;stroke:#000000;stroke-linecap:square;stroke-linejoin:miter;stroke-width:0.8;"/>
   </g>
   <g id="patch_4">
    <path d="M 518.4 384.48 
L 518.4 51.84 
" style="fill:none;stroke:#000000;stroke-linecap:square;stroke-linejoin:miter;stroke-width:0.8;"/>
   </g>
   <g id="patch_5">
    <path d="M 72 384.48 
L 518.4 384.48 
" style="fill:none;stroke:#000000;stroke-linecap:square;stroke-linejoin:miter;stroke-width:0.8;"/>
   </g>
   <g id="patch_6">
    <path d="M 72 51.84 
L 518.4 51.84 
" style="fill:none;stroke:#000000;stroke-linecap:square;stroke-linejoin:miter;stroke-width:0.8;"/>
   </g>
   <g id="text_23">
    <!-- Estimated Pfizer vaccine utilisation: first dose utilisation rate: 76.3% -->
    <g transform="translate(89.73 45.84)scale(0.12 -0.12)">
     <defs>
      <path d="M 628 4666 
L 3578 4666 
L 3578 4134 
L 1259 4134 
L 1259 2753 
L 3481 2753 
L 3481 2222 
L 1259 2222 
L 1259 531 
L 3634 531 
L 3634 0 
L 628 0 
L 628 4666 
z
" id="DejaVuSans-45" transform="scale(0.015625)"/>
      <path d="M 1259 4147 
L 1259 2394 
L 2053 2394 
Q 2494 2394 2734 2622 
Q 2975 2850 2975 3272 
Q 2975 3691 2734 3919 
Q 2494 4147 2053 4147 
L 1259 4147 
z
M 628 4666 
L 2053 4666 
Q 2838 4666 3239 4311 
Q 3641 3956 3641 3272 
Q 3641 2581 3239 2228 
Q 2838 1875 2053 1875 
L 1259 1875 
L 1259 0 
L 628 0 
L 628 4666 
z
" id="DejaVuSans-50" transform="scale(0.015625)"/>
      <path d="M 2375 4863 
L 2375 4384 
L 1825 4384 
Q 1516 4384 1395 4259 
Q 1275 4134 1275 3809 
L 1275 3500 
L 2222 3500 
L 2222 3053 
L 1275 3053 
L 1275 0 
L 697 0 
L 697 3053 
L 147 3053 
L 147 3500 
L 697 3500 
L 697 3744 
Q 697 4328 969 4595 
Q 1241 4863 1831 4863 
L 2375 4863 
z
" id="DejaVuSans-66" transform="scale(0.015625)"/>
      <path d="M 353 3500 
L 3084 3500 
L 3084 2975 
L 922 459 
L 3084 459 
L 3084 0 
L 275 0 
L 275 525 
L 2438 3041 
L 353 3041 
L 353 3500 
z
" id="DejaVuSans-7a" transform="scale(0.015625)"/>
      <path d="M 3122 3366 
L 3122 2828 
Q 2878 2963 2633 3030 
Q 2388 3097 2138 3097 
Q 1578 3097 1268 2742 
Q 959 2388 959 1747 
Q 959 1106 1268 751 
Q 1578 397 2138 397 
Q 2388 397 2633 464 
Q 2878 531 3122 666 
L 3122 134 
Q 2881 22 2623 -34 
Q 2366 -91 2075 -91 
Q 1284 -91 818 406 
Q 353 903 353 1747 
Q 353 2603 823 3093 
Q 1294 3584 2113 3584 
Q 2378 3584 2631 3529 
Q 2884 3475 3122 3366 
z
" id="DejaVuSans-63" transform="scale(0.015625)"/>
      <path d="M 750 794 
L 1409 794 
L 1409 0 
L 750 0 
L 750 794 
z
M 750 3309 
L 1409 3309 
L 1409 2516 
L 750 2516 
L 750 3309 
z
" id="DejaVuSans-3a" transform="scale(0.015625)"/>
      <path d="M 684 794 
L 1344 794 
L 1344 0 
L 684 0 
L 684 794 
z
" id="DejaVuSans-2e" transform="scale(0.015625)"/>
      <path d="M 4653 2053 
Q 4381 2053 4226 1822 
Q 4072 1591 4072 1178 
Q 4072 772 4226 539 
Q 4381 306 4653 306 
Q 4919 306 5073 539 
Q 5228 772 5228 1178 
Q 5228 1588 5073 1820 
Q 4919 2053 4653 2053 
z
M 4653 2450 
Q 5147 2450 5437 2106 
Q 5728 1763 5728 1178 
Q 5728 594 5436 251 
Q 5144 -91 4653 -91 
Q 4153 -91 3862 251 
Q 3572 594 3572 1178 
Q 3572 1766 3864 2108 
Q 4156 2450 4653 2450 
z
M 1428 4353 
Q 1159 4353 1004 4120 
Q 850 3888 850 3481 
Q 850 3069 1003 2837 
Q 1156 2606 1428 2606 
Q 1700 2606 1854 2837 
Q 2009 3069 2009 3481 
Q 2009 3884 1853 4118 
Q 1697 4353 1428 4353 
z
M 4250 4750 
L 4750 4750 
L 1831 -91 
L 1331 -91 
L 4250 4750 
z
M 1428 4750 
Q 1922 4750 2215 4408 
Q 2509 4066 2509 3481 
Q 2509 2891 2217 2550 
Q 1925 2209 1428 2209 
Q 931 2209 642 2551 
Q 353 2894 353 3481 
Q 353 4063 643 4406 
Q 934 4750 1428 4750 
z
" id="DejaVuSans-25" transform="scale(0.015625)"/>
     </defs>
     <use xlink:href="#DejaVuSans-45"/>
     <use x="63.183594" xlink:href="#DejaVuSans-73"/>
     <use x="115.283203" xlink:href="#DejaVuSans-74"/>
     <use x="154.492188" xlink:href="#DejaVuSans-69"/>
     <use x="182.275391" xlink:href="#DejaVuSans-6d"/>
     <use x="279.6875" xlink:href="#DejaVuSans-61"/>
     <use x="340.966797" xlink:href="#DejaVuSans-74"/>
     <use x="380.175781" xlink:href="#DejaVuSans-65"/>
     <use x="441.699219" xlink:href="#DejaVuSans-64"/>
     <use x="505.175781" xlink:href="#DejaVuSans-20"/>
     <use x="536.962891" xlink:href="#DejaVuSans-50"/>
     <use x="597.265625" xlink:href="#DejaVuSans-66"/>
     <use x="632.470703" xlink:href="#DejaVuSans-69"/>
     <use x="660.253906" xlink:href="#DejaVuSans-7a"/>
     <use x="712.744141" xlink:href="#DejaVuSans-65"/>
     <use x="774.267578" xlink:href="#DejaVuSans-72"/>
     <use x="815.380859" xlink:href="#DejaVuSans-20"/>
     <use x="847.167969" xlink:href="#DejaVuSans-76"/>
     <use x="906.347656" xlink:href="#DejaVuSans-61"/>
     <use x="967.626953" xlink:href="#DejaVuSans-63"/>
     <use x="1022.607422" xlink:href="#DejaVuSans-63"/>
     <use x="1077.587891" xlink:href="#DejaVuSans-69"/>
     <use x="1105.371094" xlink:href="#DejaVuSans-6e"/>
     <use x="1168.75" xlink:href="#DejaVuSans-65"/>
     <use x="1230.273438" xlink:href="#DejaVuSans-20"/>
     <use x="1262.060547" xlink:href="#DejaVuSans-75"/>
     <use x="1325.439453" xlink:href="#DejaVuSans-74"/>
     <use x="1364.648438" xlink:href="#DejaVuSans-69"/>
     <use x="1392.431641" xlink:href="#DejaVuSans-6c"/>
     <use x="1420.214844" xlink:href="#DejaVuSans-69"/>
     <use x="1447.998047" xlink:href="#DejaVuSans-73"/>
     <use x="1500.097656" xlink:href="#DejaVuSans-61"/>
     <use x="1561.376953" xlink:href="#DejaVuSans-74"/>
     <use x="1600.585938" xlink:href="#DejaVuSans-69"/>
     <use x="1628.369141" xlink:href="#DejaVuSans-6f"/>
     <use x="1689.550781" xlink:href="#DejaVuSans-6e"/>
     <use x="1752.929688" xlink:href="#DejaVuSans-3a"/>
     <use x="1786.621094" xlink:href="#DejaVuSans-20"/>
     <use x="1818.408203" xlink:href="#DejaVuSans-66"/>
     <use x="1853.613281" xlink:href="#DejaVuSans-69"/>
     <use x="1881.396484" xlink:href="#DejaVuSans-72"/>
     <use x="1922.509766" xlink:href="#DejaVuSans-73"/>
     <use x="1974.609375" xlink:href="#DejaVuSans-74"/>
     <use x="2013.818359" xlink:href="#DejaVuSans-20"/>
     <use x="2045.605469" xlink:href="#DejaVuSans-64"/>
     <use x="2109.082031" xlink:href="#DejaVuSans-6f"/>
     <use x="2170.263672" xlink:href="#DejaVuSans-73"/>
     <use x="2222.363281" xlink:href="#DejaVuSans-65"/>
     <use x="2283.886719" xlink:href="#DejaVuSans-20"/>
     <use x="2315.673828" xlink:href="#DejaVuSans-75"/>
     <use x="2379.052734" xlink:href="#DejaVuSans-74"/>
     <use x="2418.261719" xlink:href="#DejaVuSans-69"/>
     <use x="2446.044922" xlink:href="#DejaVuSans-6c"/>
     <use x="2473.828125" xlink:href="#DejaVuSans-69"/>
     <use x="2501.611328" xlink:href="#DejaVuSans-73"/>
     <use x="2553.710938" xlink:href="#DejaVuSans-61"/>
     <use x="2614.990234" xlink:href="#DejaVuSans-74"/>
     <use x="2654.199219" xlink:href="#DejaVuSans-69"/>
     <use x="2681.982422" xlink:href="#DejaVuSans-6f"/>
     <use x="2743.164062" xlink:href="#DejaVuSans-6e"/>
     <use x="2806.542969" xlink:href="#DejaVuSans-20"/>
     <use x="2838.330078" xlink:href="#DejaVuSans-72"/>
     <use x="2879.443359" xlink:href="#DejaVuSans-61"/>
     <use x="2940.722656" xlink:href="#DejaVuSans-74"/>
     <use x="2979.931641" xlink:href="#DejaVuSans-65"/>
     <use x="3041.455078" xlink:href="#DejaVuSans-3a"/>
     <use x="3075.146484" xlink:href="#DejaVuSans-20"/>
     <use x="3106.933594" xlink:href="#DejaVuSans-37"/>
     <use x="3170.556641" xlink:href="#DejaVuSans-36"/>
     <use x="3234.179688" xlink:href="#DejaVuSans-2e"/>
     <use x="3265.966797" xlink:href="#DejaVuSans-33"/>
     <use x="3329.589844" xlink:href="#DejaVuSans-25"/>
    </g>
   </g>
   <g id="legend_1">
    <g id="patch_7">
     <path d="M 77.831 144.092147 
L 274.18602 144.092147 
Q 275.85202 144.092147 275.85202 142.426147 
L 275.85202 57.671 
Q 275.85202 56.005 274.18602 56.005 
L 77.831 56.005 
Q 76.165 56.005 76.165 57.671 
L 76.165 142.426147 
Q 76.165 144.092147 77.831 144.092147 
z
" style="fill:#ffffff;opacity:0.8;stroke:#cccccc;stroke-linejoin:miter;"/>
    </g>
    <g id="patch_8">
     <path d="M 79.497 65.666498 
L 96.157 65.666498 
L 96.157 59.835498 
L 79.497 59.835498 
z
" style="fill:#d62728;"/>
    </g>
    <g id="text_24">
     <!-- Pfizer reserved for second doses (710k) -->
     <g transform="translate(102.821 65.666498)scale(0.0833 -0.0833)">
      <defs>
       <path d="M 581 4863 
L 1159 4863 
L 1159 1991 
L 2875 3500 
L 3609 3500 
L 1753 1863 
L 3688 0 
L 2938 0 
L 1159 1709 
L 1159 0 
L 581 0 
L 581 4863 
z
" id="DejaVuSans-6b" transform="scale(0.015625)"/>
      </defs>
      <use xlink:href="#DejaVuSans-50"/>
      <use x="60.302734" xlink:href="#DejaVuSans-66"/>
      <use x="95.507812" xlink:href="#DejaVuSans-69"/>
      <use x="123.291016" xlink:href="#DejaVuSans-7a"/>
      <use x="175.78125" xlink:href="#DejaVuSans-65"/>
      <use x="237.304688" xlink:href="#DejaVuSans-72"/>
      <use x="278.417969" xlink:href="#DejaVuSans-20"/>
      <use x="310.205078" xlink:href="#DejaVuSans-72"/>
      <use x="349.068359" xlink:href="#DejaVuSans-65"/>
      <use x="410.591797" xlink:href="#DejaVuSans-73"/>
      <use x="462.691406" xlink:href="#DejaVuSans-65"/>
      <use x="524.214844" xlink:href="#DejaVuSans-72"/>
      <use x="565.328125" xlink:href="#DejaVuSans-76"/>
      <use x="624.507812" xlink:href="#DejaVuSans-65"/>
      <use x="686.03125" xlink:href="#DejaVuSans-64"/>
      <use x="749.507812" xlink:href="#DejaVuSans-20"/>
      <use x="781.294922" xlink:href="#DejaVuSans-66"/>
      <use x="816.5" xlink:href="#DejaVuSans-6f"/>
      <use x="877.681641" xlink:href="#DejaVuSans-72"/>
      <use x="918.794922" xlink:href="#DejaVuSans-20"/>
      <use x="950.582031" xlink:href="#DejaVuSans-73"/>
      <use x="1002.681641" xlink:href="#DejaVuSans-65"/>
      <use x="1064.205078" xlink:href="#DejaVuSans-63"/>
      <use x="1119.185547" xlink:href="#DejaVuSans-6f"/>
      <use x="1180.367188" xlink:href="#DejaVuSans-6e"/>
      <use x="1243.746094" xlink:href="#DejaVuSans-64"/>
      <use x="1307.222656" xlink:href="#DejaVuSans-20"/>
      <use x="1339.009766" xlink:href="#DejaVuSans-64"/>
      <use x="1402.486328" xlink:href="#DejaVuSans-6f"/>
      <use x="1463.667969" xlink:href="#DejaVuSans-73"/>
      <use x="1515.767578" xlink:href="#DejaVuSans-65"/>
      <use x="1577.291016" xlink:href="#DejaVuSans-73"/>
      <use x="1629.390625" xlink:href="#DejaVuSans-20"/>
      <use x="1661.177734" xlink:href="#DejaVuSans-28"/>
      <use x="1700.191406" xlink:href="#DejaVuSans-37"/>
      <use x="1763.814453" xlink:href="#DejaVuSans-31"/>
      <use x="1827.4375" xlink:href="#DejaVuSans-30"/>
      <use x="1891.060547" xlink:href="#DejaVuSans-6b"/>
      <use x="1948.970703" xlink:href="#DejaVuSans-29"/>
     </g>
    </g>
    <g id="patch_9">
     <path d="M 79.497 77.893377 
L 96.157 77.893377 
L 96.157 72.062377 
L 79.497 72.062377 
z
" style="fill:#ff7f0e;"/>
    </g>
    <g id="text_25">
     <!-- Pfizer administered second doses (700k) -->
     <g transform="translate(102.821 77.893377)scale(0.0833 -0.0833)">
      <use xlink:href="#DejaVuSans-50"/>
      <use x="60.302734" xlink:href="#DejaVuSans-66"/>
      <use x="95.507812" xlink:href="#DejaVuSans-69"/>
      <use x="123.291016" xlink:href="#DejaVuSans-7a"/>
      <use x="175.78125" xlink:href="#DejaVuSans-65"/>
      <use x="237.304688" xlink:href="#DejaVuSans-72"/>
      <use x="278.417969" xlink:href="#DejaVuSans-20"/>
      <use x="310.205078" xlink:href="#DejaVuSans-61"/>
      <use x="371.484375" xlink:href="#DejaVuSans-64"/>
      <use x="434.960938" xlink:href="#DejaVuSans-6d"/>
      <use x="532.373047" xlink:href="#DejaVuSans-69"/>
      <use x="560.15625" xlink:href="#DejaVuSans-6e"/>
      <use x="623.535156" xlink:href="#DejaVuSans-69"/>
      <use x="651.318359" xlink:href="#DejaVuSans-73"/>
      <use x="703.417969" xlink:href="#DejaVuSans-74"/>
      <use x="742.626953" xlink:href="#DejaVuSans-65"/>
      <use x="804.150391" xlink:href="#DejaVuSans-72"/>
      <use x="843.013672" xlink:href="#DejaVuSans-65"/>
      <use x="904.537109" xlink:href="#DejaVuSans-64"/>
      <use x="968.013672" xlink:href="#DejaVuSans-20"/>
      <use x="999.800781" xlink:href="#DejaVuSans-73"/>
      <use x="1051.900391" xlink:href="#DejaVuSans-65"/>
      <use x="1113.423828" xlink:href="#DejaVuSans-63"/>
      <use x="1168.404297" xlink:href="#DejaVuSans-6f"/>
      <use x="1229.585938" xlink:href="#DejaVuSans-6e"/>
      <use x="1292.964844" xlink:href="#DejaVuSans-64"/>
      <use x="1356.441406" xlink:href="#DejaVuSans-20"/>
      <use x="1388.228516" xlink:href="#DejaVuSans-64"/>
      <use x="1451.705078" xlink:href="#DejaVuSans-6f"/>
      <use x="1512.886719" xlink:href="#DejaVuSans-73"/>
      <use x="1564.986328" xlink:href="#DejaVuSans-65"/>
      <use x="1626.509766" xlink:href="#DejaVuSans-73"/>
      <use x="1678.609375" xlink:href="#DejaVuSans-20"/>
      <use x="1710.396484" xlink:href="#DejaVuSans-28"/>
      <use x="1749.410156" xlink:href="#DejaVuSans-37"/>
      <use x="1813.033203" xlink:href="#DejaVuSans-30"/>
      <use x="1876.65625" xlink:href="#DejaVuSans-30"/>
      <use x="1940.279297" xlink:href="#DejaVuSans-6b"/>
      <use x="1998.189453" xlink:href="#DejaVuSans-29"/>
     </g>
    </g>
    <g id="patch_10">
     <path d="M 79.497 90.120255 
L 96.157 90.120255 
L 96.157 84.289255 
L 79.497 84.289255 
z
" style="fill:#2ca02c;"/>
    </g>
    <g id="text_26">
     <!-- Pfizer available for first doses (334k) -->
     <g transform="translate(102.821 90.120255)scale(0.0833 -0.0833)">
      <defs>
       <path d="M 3116 1747 
Q 3116 2381 2855 2742 
Q 2594 3103 2138 3103 
Q 1681 3103 1420 2742 
Q 1159 2381 1159 1747 
Q 1159 1113 1420 752 
Q 1681 391 2138 391 
Q 2594 391 2855 752 
Q 3116 1113 3116 1747 
z
M 1159 2969 
Q 1341 3281 1617 3432 
Q 1894 3584 2278 3584 
Q 2916 3584 3314 3078 
Q 3713 2572 3713 1747 
Q 3713 922 3314 415 
Q 2916 -91 2278 -91 
Q 1894 -91 1617 61 
Q 1341 213 1159 525 
L 1159 0 
L 581 0 
L 581 4863 
L 1159 4863 
L 1159 2969 
z
" id="DejaVuSans-62" transform="scale(0.015625)"/>
      </defs>
      <use xlink:href="#DejaVuSans-50"/>
      <use x="60.302734" xlink:href="#DejaVuSans-66"/>
      <use x="95.507812" xlink:href="#DejaVuSans-69"/>
      <use x="123.291016" xlink:href="#DejaVuSans-7a"/>
      <use x="175.78125" xlink:href="#DejaVuSans-65"/>
      <use x="237.304688" xlink:href="#DejaVuSans-72"/>
      <use x="278.417969" xlink:href="#DejaVuSans-20"/>
      <use x="310.205078" xlink:href="#DejaVuSans-61"/>
      <use x="371.484375" xlink:href="#DejaVuSans-76"/>
      <use x="430.664062" xlink:href="#DejaVuSans-61"/>
      <use x="491.943359" xlink:href="#DejaVuSans-69"/>
      <use x="519.726562" xlink:href="#DejaVuSans-6c"/>
      <use x="547.509766" xlink:href="#DejaVuSans-61"/>
      <use x="608.789062" xlink:href="#DejaVuSans-62"/>
      <use x="672.265625" xlink:href="#DejaVuSans-6c"/>
      <use x="700.048828" xlink:href="#DejaVuSans-65"/>
      <use x="761.572266" xlink:href="#DejaVuSans-20"/>
      <use x="793.359375" xlink:href="#DejaVuSans-66"/>
      <use x="828.564453" xlink:href="#DejaVuSans-6f"/>
      <use x="889.746094" xlink:href="#DejaVuSans-72"/>
      <use x="930.859375" xlink:href="#DejaVuSans-20"/>
      <use x="962.646484" xlink:href="#DejaVuSans-66"/>
      <use x="997.851562" xlink:href="#DejaVuSans-69"/>
      <use x="1025.634766" xlink:href="#DejaVuSans-72"/>
      <use x="1066.748047" xlink:href="#DejaVuSans-73"/>
      <use x="1118.847656" xlink:href="#DejaVuSans-74"/>
      <use x="1158.056641" xlink:href="#DejaVuSans-20"/>
      <use x="1189.84375" xlink:href="#DejaVuSans-64"/>
      <use x="1253.320312" xlink:href="#DejaVuSans-6f"/>
      <use x="1314.501953" xlink:href="#DejaVuSans-73"/>
      <use x="1366.601562" xlink:href="#DejaVuSans-65"/>
      <use x="1428.125" xlink:href="#DejaVuSans-73"/>
      <use x="1480.224609" xlink:href="#DejaVuSans-20"/>
      <use x="1512.011719" xlink:href="#DejaVuSans-28"/>
      <use x="1551.025391" xlink:href="#DejaVuSans-33"/>
      <use x="1614.648438" xlink:href="#DejaVuSans-33"/>
      <use x="1678.271484" xlink:href="#DejaVuSans-34"/>
      <use x="1741.894531" xlink:href="#DejaVuSans-6b"/>
      <use x="1799.804688" xlink:href="#DejaVuSans-29"/>
     </g>
    </g>
    <g id="patch_11">
     <path d="M 79.497 102.347133 
L 96.157 102.347133 
L 96.157 96.516133 
L 79.497 96.516133 
z
" style="fill:#1f77b4;"/>
    </g>
    <g id="text_27">
     <!-- Pfizer administered first doses (1076k) -->
     <g transform="translate(102.821 102.347133)scale(0.0833 -0.0833)">
      <use xlink:href="#DejaVuSans-50"/>
      <use x="60.302734" xlink:href="#DejaVuSans-66"/>
      <use x="95.507812" xlink:href="#DejaVuSans-69"/>
      <use x="123.291016" xlink:href="#DejaVuSans-7a"/>
      <use x="175.78125" xlink:href="#DejaVuSans-65"/>
      <use x="237.304688" xlink:href="#DejaVuSans-72"/>
      <use x="278.417969" xlink:href="#DejaVuSans-20"/>
      <use x="310.205078" xlink:href="#DejaVuSans-61"/>
      <use x="371.484375" xlink:href="#DejaVuSans-64"/>
      <use x="434.960938" xlink:href="#DejaVuSans-6d"/>
      <use x="532.373047" xlink:href="#DejaVuSans-69"/>
      <use x="560.15625" xlink:href="#DejaVuSans-6e"/>
      <use x="623.535156" xlink:href="#DejaVuSans-69"/>
      <use x="651.318359" xlink:href="#DejaVuSans-73"/>
      <use x="703.417969" xlink:href="#DejaVuSans-74"/>
      <use x="742.626953" xlink:href="#DejaVuSans-65"/>
      <use x="804.150391" xlink:href="#DejaVuSans-72"/>
      <use x="843.013672" xlink:href="#DejaVuSans-65"/>
      <use x="904.537109" xlink:href="#DejaVuSans-64"/>
      <use x="968.013672" xlink:href="#DejaVuSans-20"/>
      <use x="999.800781" xlink:href="#DejaVuSans-66"/>
      <use x="1035.005859" xlink:href="#DejaVuSans-69"/>
      <use x="1062.789062" xlink:href="#DejaVuSans-72"/>
      <use x="1103.902344" xlink:href="#DejaVuSans-73"/>
      <use x="1156.001953" xlink:href="#DejaVuSans-74"/>
      <use x="1195.210938" xlink:href="#DejaVuSans-20"/>
      <use x="1226.998047" xlink:href="#DejaVuSans-64"/>
      <use x="1290.474609" xlink:href="#DejaVuSans-6f"/>
      <use x="1351.65625" xlink:href="#DejaVuSans-73"/>
      <use x="1403.755859" xlink:href="#DejaVuSans-65"/>
      <use x="1465.279297" xlink:href="#DejaVuSans-73"/>
      <use x="1517.378906" xlink:href="#DejaVuSans-20"/>
      <use x="1549.166016" xlink:href="#DejaVuSans-28"/>
      <use x="1588.179688" xlink:href="#DejaVuSans-31"/>
      <use x="1651.802734" xlink:href="#DejaVuSans-30"/>
      <use x="1715.425781" xlink:href="#DejaVuSans-37"/>
      <use x="1779.048828" xlink:href="#DejaVuSans-36"/>
      <use x="1842.671875" xlink:href="#DejaVuSans-6b"/>
      <use x="1900.582031" xlink:href="#DejaVuSans-29"/>
     </g>
    </g>
    <g id="patch_12">
     <path d="M 79.497 114.574011 
L 96.157 114.574011 
L 96.157 108.743011 
L 79.497 108.743011 
z
" style="fill:#ff0000;opacity:0.35;"/>
    </g>
    <g id="text_28">
     <!-- Phase 1a -->
     <g transform="translate(102.821 114.574011)scale(0.0833 -0.0833)">
      <defs>
       <path d="M 3513 2113 
L 3513 0 
L 2938 0 
L 2938 2094 
Q 2938 2591 2744 2837 
Q 2550 3084 2163 3084 
Q 1697 3084 1428 2787 
Q 1159 2491 1159 1978 
L 1159 0 
L 581 0 
L 581 4863 
L 1159 4863 
L 1159 2956 
Q 1366 3272 1645 3428 
Q 1925 3584 2291 3584 
Q 2894 3584 3203 3211 
Q 3513 2838 3513 2113 
z
" id="DejaVuSans-68" transform="scale(0.015625)"/>
      </defs>
      <use xlink:href="#DejaVuSans-50"/>
      <use x="60.302734" xlink:href="#DejaVuSans-68"/>
      <use x="123.681641" xlink:href="#DejaVuSans-61"/>
      <use x="184.960938" xlink:href="#DejaVuSans-73"/>
      <use x="237.060547" xlink:href="#DejaVuSans-65"/>
      <use x="298.583984" xlink:href="#DejaVuSans-20"/>
      <use x="330.371094" xlink:href="#DejaVuSans-31"/>
      <use x="393.994141" xlink:href="#DejaVuSans-61"/>
     </g>
    </g>
    <g id="patch_13">
     <path d="M 79.497 126.800889 
L 96.157 126.800889 
L 96.157 120.969889 
L 79.497 120.969889 
z
" style="fill:#ffa500;opacity:0.35;"/>
    </g>
    <g id="text_29">
     <!-- Phase 1b -->
     <g transform="translate(102.821 126.800889)scale(0.0833 -0.0833)">
      <use xlink:href="#DejaVuSans-50"/>
      <use x="60.302734" xlink:href="#DejaVuSans-68"/>
      <use x="123.681641" xlink:href="#DejaVuSans-61"/>
      <use x="184.960938" xlink:href="#DejaVuSans-73"/>
      <use x="237.060547" xlink:href="#DejaVuSans-65"/>
      <use x="298.583984" xlink:href="#DejaVuSans-20"/>
      <use x="330.371094" xlink:href="#DejaVuSans-31"/>
      <use x="393.994141" xlink:href="#DejaVuSans-62"/>
     </g>
    </g>
    <g id="patch_14">
     <path d="M 79.497 139.027767 
L 96.157 139.027767 
L 96.157 133.196767 
L 79.497 133.196767 
z
" style="fill:#ffff00;opacity:0.35;"/>
    </g>
    <g id="text_30">
     <!-- Phase 2a -->
     <g transform="translate(102.821 139.027767)scale(0.0833 -0.0833)">
      <use xlink:href="#DejaVuSans-50"/>
      <use x="60.302734" xlink:href="#DejaVuSans-68"/>
      <use x="123.681641" xlink:href="#DejaVuSans-61"/>
      <use x="184.960938" xlink:href="#DejaVuSans-73"/>
      <use x="237.060547" xlink:href="#DejaVuSans-65"/>
      <use x="298.583984" xlink:href="#DejaVuSans-20"/>
      <use x="330.371094" xlink:href="#DejaVuSans-32"/>
      <use x="393.994141" xlink:href="#DejaVuSans-61"/>
     </g>
    </g>
   </g>
  </g>
 </g>
 <defs>
  <clipPath id="p5778846deb">
   <rect height="332.64" width="446.4" x="72" y="51.84"/>
  </clipPath>
 </defs>
</svg>
