<?xml version="1.0" encoding="utf-8" standalone="no"?>
<!DOCTYPE svg PUBLIC "-//W3C//DTD SVG 1.1//EN"
  "http://www.w3.org/Graphics/SVG/1.1/DTD/svg11.dtd">
<svg height="432pt" version="1.1" viewBox="0 0 576 432" width="576pt" xmlns="http://www.w3.org/2000/svg" xmlns:xlink="http://www.w3.org/1999/xlink">
 <metadata>
  <rdf:RDF xmlns:cc="http://creativecommons.org/ns#" xmlns:dc="http://purl.org/dc/elements/1.1/" xmlns:rdf="http://www.w3.org/1999/02/22-rdf-syntax-ns#">
   <cc:Work>
    <dc:type rdf:resource="http://purl.org/dc/dcmitype/StillImage"/>
    <dc:date>2021-05-29T14:19:21.696641</dc:date>
    <dc:format>image/svg+xml</dc:format>
    <dc:creator>
     <cc:Agent>
      <dc:title>Matplotlib v3.4.1, https://matplotlib.org/</dc:title>
     </cc:Agent>
    </dc:creator>
   </cc:Work>
  </rdf:RDF>
 </metadata>
 <defs>
  <style type="text/css">*{stroke-linecap:butt;stroke-linejoin:round;}</style>
 </defs>
 <g id="figure_1">
  <g id="patch_1">
   <path d="M 0 432 
L 576 432 
L 576 0 
L 0 0 
z
" style="fill:#ffffff;"/>
  </g>
  <g id="axes_1">
   <g id="patch_2">
    <path d="M 72 384.48 
L 518.4 384.48 
L 518.4 51.84 
L 72 51.84 
z
" style="fill:#ffffff;"/>
   </g>
   <g id="PolyCollection_1">
    <defs>
     <path d="M 158.201379 -47.52 
L 68.921379 -47.52 
L 68.921379 -380.16 
L 158.201379 -380.16 
L 158.201379 -380.16 
L 158.201379 -47.52 
z
" id="m63413e64f5"/>
    </defs>
    <g clip-path="url(#peb916c4a8f)">
     <use style="fill:#ff0000;fill-opacity:0.35;" x="0" xlink:href="#m63413e64f5" y="432"/>
    </g>
   </g>
   <g id="PolyCollection_2">
    <defs>
     <path d="M 287.503448 -47.52 
L 158.201379 -47.52 
L 158.201379 -380.16 
L 287.503448 -380.16 
L 287.503448 -380.16 
L 287.503448 -47.52 
z
" id="md5796545f9"/>
    </defs>
    <g clip-path="url(#peb916c4a8f)">
     <use style="fill:#ffa500;fill-opacity:0.35;" x="0" xlink:href="#md5796545f9" y="432"/>
    </g>
   </g>
   <g id="PolyCollection_3">
    <defs>
     <path d="M 426.041379 -47.52 
L 287.503448 -47.52 
L 287.503448 -380.16 
L 426.041379 -380.16 
L 426.041379 -380.16 
L 426.041379 -47.52 
z
" id="m720e8f06ee"/>
    </defs>
    <g clip-path="url(#peb916c4a8f)">
     <use style="fill:#ffff00;fill-opacity:0.35;" x="0" xlink:href="#m720e8f06ee" y="432"/>
    </g>
   </g>
   <g id="PolyCollection_4">
    <defs>
     <path d="M 429.12 -47.52 
L 426.041379 -47.52 
L 426.041379 -380.16 
L 429.12 -380.16 
L 429.12 -380.16 
L 429.12 -47.52 
z
" id="m6982e2b652"/>
    </defs>
    <g clip-path="url(#peb916c4a8f)">
     <use style="fill:#ffff00;fill-opacity:0.3;" x="0" xlink:href="#m6982e2b652" y="432"/>
    </g>
   </g>
   <g id="PolyCollection_5">
    <defs>
     <path d="M 432.198621 -47.52 
L 429.12 -47.52 
L 429.12 -380.16 
L 432.198621 -380.16 
L 432.198621 -380.16 
L 432.198621 -47.52 
z
" id="m6e7c71cd07"/>
    </defs>
    <g clip-path="url(#peb916c4a8f)">
     <use style="fill:#ffff00;fill-opacity:0.27;" x="0" xlink:href="#m6e7c71cd07" y="432"/>
    </g>
   </g>
   <g id="PolyCollection_6">
    <defs>
     <path d="M 435.277241 -47.52 
L 432.198621 -47.52 
L 432.198621 -380.16 
L 435.277241 -380.16 
L 435.277241 -380.16 
L 435.277241 -47.52 
z
" id="m3b95b03397"/>
    </defs>
    <g clip-path="url(#peb916c4a8f)">
     <use style="fill:#ffff00;fill-opacity:0.24;" x="0" xlink:href="#m3b95b03397" y="432"/>
    </g>
   </g>
   <g id="PolyCollection_7">
    <defs>
     <path d="M 438.355862 -47.52 
L 435.277241 -47.52 
L 435.277241 -380.16 
L 438.355862 -380.16 
L 438.355862 -380.16 
L 438.355862 -47.52 
z
" id="m986e20a4e3"/>
    </defs>
    <g clip-path="url(#peb916c4a8f)">
     <use style="fill:#ffff00;fill-opacity:0.21;" x="0" xlink:href="#m986e20a4e3" y="432"/>
    </g>
   </g>
   <g id="PolyCollection_8">
    <defs>
     <path d="M 441.434483 -47.52 
L 438.355862 -47.52 
L 438.355862 -380.16 
L 441.434483 -380.16 
L 441.434483 -380.16 
L 441.434483 -47.52 
z
" id="mfa2a26313e"/>
    </defs>
    <g clip-path="url(#peb916c4a8f)">
     <use style="fill:#ffff00;fill-opacity:0.18;" x="0" xlink:href="#mfa2a26313e" y="432"/>
    </g>
   </g>
   <g id="PolyCollection_9">
    <defs>
     <path d="M 444.513103 -47.52 
L 441.434483 -47.52 
L 441.434483 -380.16 
L 444.513103 -380.16 
L 444.513103 -380.16 
L 444.513103 -47.52 
z
" id="me207594374"/>
    </defs>
    <g clip-path="url(#peb916c4a8f)">
     <use style="fill:#ffff00;fill-opacity:0.15;" x="0" xlink:href="#me207594374" y="432"/>
    </g>
   </g>
   <g id="PolyCollection_10">
    <defs>
     <path d="M 447.591724 -47.52 
L 444.513103 -47.52 
L 444.513103 -380.16 
L 447.591724 -380.16 
L 447.591724 -380.16 
L 447.591724 -47.52 
z
" id="m6a96f87b8d"/>
    </defs>
    <g clip-path="url(#peb916c4a8f)">
     <use style="fill:#ffff00;fill-opacity:0.12;" x="0" xlink:href="#m6a96f87b8d" y="432"/>
    </g>
   </g>
   <g id="PolyCollection_11">
    <defs>
     <path d="M 450.670345 -47.52 
L 447.591724 -47.52 
L 447.591724 -380.16 
L 450.670345 -380.16 
L 450.670345 -380.16 
L 450.670345 -47.52 
z
" id="m5467ec828e"/>
    </defs>
    <g clip-path="url(#peb916c4a8f)">
     <use style="fill:#ffff00;fill-opacity:0.09;" x="0" xlink:href="#m5467ec828e" y="432"/>
    </g>
   </g>
   <g id="PolyCollection_12">
    <defs>
     <path d="M 453.748966 -47.52 
L 450.670345 -47.52 
L 450.670345 -380.16 
L 453.748966 -380.16 
L 453.748966 -380.16 
L 453.748966 -47.52 
z
" id="m213ff2e9cb"/>
    </defs>
    <g clip-path="url(#peb916c4a8f)">
     <use style="fill:#ffff00;fill-opacity:0.06;" x="0" xlink:href="#m213ff2e9cb" y="432"/>
    </g>
   </g>
   <g id="PolyCollection_13">
    <defs>
     <path d="M 456.827586 -47.52 
L 453.748966 -47.52 
L 453.748966 -380.16 
L 456.827586 -380.16 
L 456.827586 -380.16 
L 456.827586 -47.52 
z
" id="mca155573ca"/>
    </defs>
    <g clip-path="url(#peb916c4a8f)">
     <use style="fill:#ffff00;fill-opacity:0.03;" x="0" xlink:href="#mca155573ca" y="432"/>
    </g>
   </g>
   <g id="PolyCollection_14">
    <defs>
     <path d="M 72 -47.520665 
L 72 -47.52 
L 72 -47.52 
L 75.078621 -47.52 
L 75.078621 -47.52 
L 78.157241 -47.52 
L 78.157241 -47.52 
L 81.235862 -47.52 
L 81.235862 -47.52 
L 84.314483 -47.52 
L 84.314483 -47.52 
L 87.393103 -47.52 
L 87.393103 -47.52 
L 90.471724 -47.52 
L 90.471724 -47.52 
L 93.550345 -47.52 
L 93.550345 -47.52 
L 96.628966 -47.52 
L 96.628966 -47.52 
L 99.707586 -47.52 
L 99.707586 -47.52 
L 102.786207 -47.52 
L 102.786207 -47.52 
L 105.864828 -47.52 
L 105.864828 -47.52 
L 108.943448 -47.52 
L 108.943448 -47.52 
L 112.022069 -47.52 
L 112.022069 -47.52 
L 115.10069 -47.52 
L 115.10069 -47.52 
L 118.17931 -47.52 
L 118.17931 -47.52 
L 121.257931 -47.52 
L 121.257931 -47.52 
L 124.336552 -47.52 
L 124.336552 -47.52 
L 127.415172 -47.52 
L 127.415172 -47.52 
L 130.493793 -47.52 
L 130.493793 -47.52 
L 133.572414 -47.52 
L 133.572414 -47.52 
L 136.651034 -47.52 
L 136.651034 -47.52 
L 139.729655 -47.52 
L 139.729655 -47.52 
L 142.808276 -47.52 
L 142.808276 -47.52 
L 145.886897 -47.52 
L 145.886897 -47.52 
L 148.965517 -47.52 
L 148.965517 -47.52 
L 152.044138 -47.52 
L 152.044138 -47.52 
L 155.122759 -47.52 
L 155.122759 -47.52 
L 158.201379 -47.52 
L 158.201379 -47.52 
L 161.28 -47.52 
L 161.28 -47.52 
L 164.358621 -47.52 
L 164.358621 -47.52 
L 167.437241 -47.52 
L 167.437241 -47.52 
L 170.515862 -47.52 
L 170.515862 -47.52 
L 173.594483 -47.52 
L 173.594483 -47.52 
L 176.673103 -47.52 
L 176.673103 -47.52 
L 179.751724 -47.52 
L 179.751724 -47.52 
L 182.830345 -47.52 
L 182.830345 -47.52 
L 185.908966 -47.52 
L 185.908966 -47.52 
L 188.987586 -47.52 
L 188.987586 -47.52 
L 192.066207 -47.52 
L 192.066207 -47.52 
L 195.144828 -47.52 
L 195.144828 -47.52 
L 198.223448 -47.52 
L 198.223448 -47.52 
L 201.302069 -47.52 
L 201.302069 -47.52 
L 204.38069 -47.52 
L 204.38069 -47.52 
L 207.45931 -47.52 
L 207.45931 -47.52 
L 210.537931 -47.52 
L 210.537931 -47.52 
L 213.616552 -47.52 
L 213.616552 -47.52 
L 216.695172 -47.52 
L 216.695172 -47.52 
L 219.773793 -47.52 
L 219.773793 -47.52 
L 222.852414 -47.52 
L 222.852414 -47.52 
L 225.931034 -47.52 
L 225.931034 -47.52 
L 229.009655 -47.52 
L 229.009655 -47.52 
L 232.088276 -47.52 
L 232.088276 -47.52 
L 235.166897 -47.52 
L 235.166897 -47.52 
L 238.245517 -47.52 
L 238.245517 -47.52 
L 241.324138 -47.52 
L 241.324138 -47.52 
L 244.402759 -47.52 
L 244.402759 -47.52 
L 247.481379 -47.52 
L 247.481379 -47.52 
L 250.56 -47.52 
L 250.56 -47.52 
L 253.638621 -47.52 
L 253.638621 -47.52 
L 256.717241 -47.52 
L 256.717241 -47.52 
L 259.795862 -47.52 
L 259.795862 -47.52 
L 262.874483 -47.52 
L 262.874483 -47.52 
L 265.953103 -47.52 
L 265.953103 -47.52 
L 269.031724 -47.52 
L 269.031724 -47.52 
L 272.110345 -47.52 
L 272.110345 -47.52 
L 275.188966 -47.52 
L 275.188966 -47.52 
L 278.267586 -47.52 
L 278.267586 -47.52 
L 281.346207 -47.52 
L 281.346207 -47.52 
L 284.424828 -47.52 
L 284.424828 -47.52 
L 287.503448 -47.52 
L 287.503448 -47.52 
L 290.582069 -47.52 
L 290.582069 -47.52 
L 293.66069 -47.52 
L 293.66069 -47.52 
L 296.73931 -47.52 
L 296.73931 -47.52 
L 299.817931 -47.52 
L 299.817931 -47.52 
L 302.896552 -47.52 
L 302.896552 -47.52 
L 305.975172 -47.52 
L 305.975172 -47.52 
L 309.053793 -47.52 
L 309.053793 -47.52 
L 312.132414 -47.52 
L 312.132414 -47.52 
L 315.211034 -47.52 
L 315.211034 -47.52 
L 318.289655 -47.52 
L 318.289655 -47.52 
L 321.368276 -47.52 
L 321.368276 -47.52 
L 324.446897 -47.52 
L 324.446897 -47.52 
L 327.525517 -47.52 
L 327.525517 -47.52 
L 330.604138 -47.52 
L 330.604138 -47.52 
L 333.682759 -47.52 
L 333.682759 -47.52 
L 336.761379 -47.52 
L 336.761379 -47.52 
L 339.84 -47.52 
L 339.84 -47.52 
L 342.918621 -47.52 
L 342.918621 -47.52 
L 345.997241 -47.52 
L 345.997241 -47.52 
L 349.075862 -47.52 
L 349.075862 -47.52 
L 352.154483 -47.52 
L 352.154483 -47.52 
L 355.233103 -47.52 
L 355.233103 -47.52 
L 358.311724 -47.52 
L 358.311724 -47.52 
L 361.390345 -47.52 
L 361.390345 -47.52 
L 364.468966 -47.52 
L 364.468966 -47.52 
L 367.547586 -47.52 
L 367.547586 -77.71334 
L 367.547586 -77.71334 
L 364.468966 -77.71334 
L 364.468966 -76.934066 
L 361.390345 -76.934066 
L 361.390345 -76.140985 
L 358.311724 -76.140985 
L 358.311724 -75.439141 
L 355.233103 -75.439141 
L 355.233103 -74.788798 
L 352.154483 -74.788798 
L 352.154483 -74.234689 
L 349.075862 -74.234689 
L 349.075862 -74.148945 
L 345.997241 -74.148945 
L 345.997241 -73.914586 
L 342.918621 -73.914586 
L 342.918621 -73.378404 
L 339.84 -73.378404 
L 339.84 -72.77827 
L 336.761379 -72.77827 
L 336.761379 -72.275206 
L 333.682759 -72.275206 
L 333.682759 -71.708825 
L 330.604138 -71.708825 
L 330.604138 -71.189869 
L 327.525517 -71.189869 
L 327.525517 -71.119972 
L 324.446897 -71.119972 
L 324.446897 -70.887683 
L 321.368276 -70.887683 
L 321.368276 -70.38722 
L 318.289655 -70.38722 
L 318.289655 -69.79421 
L 315.211034 -69.79421 
L 315.211034 -69.228755 
L 312.132414 -69.228755 
L 312.132414 -68.706396 
L 309.053793 -68.706396 
L 309.053793 -68.225899 
L 305.975172 -68.225899 
L 305.975172 -68.355757 
L 302.896552 -68.355757 
L 302.896552 -68.202757 
L 299.817931 -68.202757 
L 299.817931 -67.768178 
L 296.73931 -67.768178 
L 296.73931 -67.289091 
L 293.66069 -67.289091 
L 293.66069 -66.835775 
L 290.582069 -66.835775 
L 290.582069 -66.367702 
L 287.503448 -66.367702 
L 287.503448 -66.046803 
L 284.424828 -66.046803 
L 284.424828 -66.008692 
L 281.346207 -66.008692 
L 281.346207 -65.862094 
L 278.267586 -65.862094 
L 278.267586 -65.39707 
L 275.188966 -65.39707 
L 275.188966 -64.848788 
L 272.110345 -64.848788 
L 272.110345 -64.120139 
L 269.031724 -64.120139 
L 269.031724 -63.600272 
L 265.953103 -63.600272 
L 265.953103 -63.268433 
L 262.874483 -63.268433 
L 262.874483 -63.232097 
L 259.795862 -63.232097 
L 259.795862 -63.065509 
L 256.717241 -63.065509 
L 256.717241 -62.494511 
L 253.638621 -62.494511 
L 253.638621 -61.963005 
L 250.56 -61.963005 
L 250.56 -61.442878 
L 247.481379 -61.442878 
L 247.481379 -60.950213 
L 244.402759 -60.950213 
L 244.402759 -60.409609 
L 241.324138 -60.409609 
L 241.324138 -59.604993 
L 238.245517 -59.604993 
L 238.245517 -59.522084 
L 235.166897 -59.522084 
L 235.166897 -59.366337 
L 232.088276 -59.366337 
L 232.088276 -59.184264 
L 229.009655 -59.184264 
L 229.009655 -58.993019 
L 225.931034 -58.993019 
L 225.931034 -58.808307 
L 222.852414 -58.808307 
L 222.852414 -58.616573 
L 219.773793 -58.616573 
L 219.773793 -58.598851 
L 216.695172 -58.598851 
L 216.695172 -58.422757 
L 213.616552 -58.422757 
L 213.616552 -58.053756 
L 210.537931 -58.053756 
L 210.537931 -57.550231 
L 207.45931 -57.550231 
L 207.45931 -57.102064 
L 204.38069 -57.102064 
L 204.38069 -56.743263 
L 201.302069 -56.743263 
L 201.302069 -56.733078 
L 198.223448 -56.733078 
L 198.223448 -56.734615 
L 195.144828 -56.734615 
L 195.144828 -56.647913 
L 192.066207 -56.647913 
L 192.066207 -56.690312 
L 188.987586 -56.690312 
L 188.987586 -56.202236 
L 185.908966 -56.202236 
L 185.908966 -55.775425 
L 182.830345 -55.775425 
L 182.830345 -55.33324 
L 179.751724 -55.33324 
L 179.751724 -54.994338 
L 176.673103 -54.994338 
L 176.673103 -54.811744 
L 173.594483 -54.811744 
L 173.594483 -54.805266 
L 170.515862 -54.805266 
L 170.515862 -54.394327 
L 167.437241 -54.394327 
L 167.437241 -53.986885 
L 164.358621 -53.986885 
L 164.358621 -53.558496 
L 161.28 -53.558496 
L 161.28 -53.171881 
L 158.201379 -53.171881 
L 158.201379 -53.001116 
L 155.122759 -53.001116 
L 155.122759 -52.768356 
L 152.044138 -52.768356 
L 152.044138 -52.741832 
L 148.965517 -52.741832 
L 148.965517 -52.576275 
L 145.886897 -52.576275 
L 145.886897 -52.428756 
L 142.808276 -52.428756 
L 142.808276 -52.184673 
L 139.729655 -52.184673 
L 139.729655 -51.834352 
L 136.651034 -51.834352 
L 136.651034 -51.531053 
L 133.572414 -51.531053 
L 133.572414 -51.485754 
L 130.493793 -51.485754 
L 130.493793 -51.435222 
L 127.415172 -51.435222 
L 127.415172 -51.059904 
L 124.336552 -51.059904 
L 124.336552 -50.903158 
L 121.257931 -50.903158 
L 121.257931 -50.61148 
L 118.17931 -50.61148 
L 118.17931 -50.436287 
L 115.10069 -50.436287 
L 115.10069 -50.303806 
L 112.022069 -50.303806 
L 112.022069 -50.22586 
L 108.943448 -50.22586 
L 108.943448 -50.079332 
L 105.864828 -50.079332 
L 105.864828 -49.910584 
L 102.786207 -49.910584 
L 102.786207 -49.54937 
L 99.707586 -49.54937 
L 99.707586 -49.211142 
L 96.628966 -49.211142 
L 96.628966 -48.913994 
L 93.550345 -48.913994 
L 93.550345 -48.641063 
L 90.471724 -48.641063 
L 90.471724 -48.580922 
L 87.393103 -48.580922 
L 87.393103 -48.51792 
L 84.314483 -48.51792 
L 84.314483 -48.3516 
L 81.235862 -48.3516 
L 81.235862 -48.10212 
L 78.157241 -48.10212 
L 78.157241 -47.749788 
L 75.078621 -47.749788 
L 75.078621 -47.615767 
L 72 -47.615767 
L 72 -47.520665 
z
" id="mf54ef435ea"/>
    </defs>
    <g clip-path="url(#peb916c4a8f)">
     <use style="fill:#1f77b4;" x="0" xlink:href="#mf54ef435ea" y="432"/>
    </g>
   </g>
   <g id="PolyCollection_15">
    <defs>
     <path d="M 72 -49.64557 
L 72 -47.520665 
L 72 -47.615767 
L 75.078621 -47.615767 
L 75.078621 -47.749788 
L 78.157241 -47.749788 
L 78.157241 -48.10212 
L 81.235862 -48.10212 
L 81.235862 -48.3516 
L 84.314483 -48.3516 
L 84.314483 -48.51792 
L 87.393103 -48.51792 
L 87.393103 -48.580922 
L 90.471724 -48.580922 
L 90.471724 -48.641063 
L 93.550345 -48.641063 
L 93.550345 -48.913994 
L 96.628966 -48.913994 
L 96.628966 -49.211142 
L 99.707586 -49.211142 
L 99.707586 -49.54937 
L 102.786207 -49.54937 
L 102.786207 -49.910584 
L 105.864828 -49.910584 
L 105.864828 -50.079332 
L 108.943448 -50.079332 
L 108.943448 -50.22586 
L 112.022069 -50.22586 
L 112.022069 -50.303806 
L 115.10069 -50.303806 
L 115.10069 -50.436287 
L 118.17931 -50.436287 
L 118.17931 -50.61148 
L 121.257931 -50.61148 
L 121.257931 -50.903158 
L 124.336552 -50.903158 
L 124.336552 -51.059904 
L 127.415172 -51.059904 
L 127.415172 -51.435222 
L 130.493793 -51.435222 
L 130.493793 -51.485754 
L 133.572414 -51.485754 
L 133.572414 -51.531053 
L 136.651034 -51.531053 
L 136.651034 -51.834352 
L 139.729655 -51.834352 
L 139.729655 -52.184673 
L 142.808276 -52.184673 
L 142.808276 -52.428756 
L 145.886897 -52.428756 
L 145.886897 -52.576275 
L 148.965517 -52.576275 
L 148.965517 -52.741832 
L 152.044138 -52.741832 
L 152.044138 -52.768356 
L 155.122759 -52.768356 
L 155.122759 -53.001116 
L 158.201379 -53.001116 
L 158.201379 -53.171881 
L 161.28 -53.171881 
L 161.28 -53.558496 
L 164.358621 -53.558496 
L 164.358621 -53.986885 
L 167.437241 -53.986885 
L 167.437241 -54.394327 
L 170.515862 -54.394327 
L 170.515862 -54.805266 
L 173.594483 -54.805266 
L 173.594483 -54.811744 
L 176.673103 -54.811744 
L 176.673103 -54.994338 
L 179.751724 -54.994338 
L 179.751724 -55.33324 
L 182.830345 -55.33324 
L 182.830345 -55.775425 
L 185.908966 -55.775425 
L 185.908966 -56.202236 
L 188.987586 -56.202236 
L 188.987586 -56.690312 
L 192.066207 -56.690312 
L 192.066207 -56.647913 
L 195.144828 -56.647913 
L 195.144828 -56.734615 
L 198.223448 -56.734615 
L 198.223448 -56.733078 
L 201.302069 -56.733078 
L 201.302069 -56.743263 
L 204.38069 -56.743263 
L 204.38069 -57.102064 
L 207.45931 -57.102064 
L 207.45931 -57.550231 
L 210.537931 -57.550231 
L 210.537931 -58.053756 
L 213.616552 -58.053756 
L 213.616552 -58.422757 
L 216.695172 -58.422757 
L 216.695172 -58.598851 
L 219.773793 -58.598851 
L 219.773793 -58.616573 
L 222.852414 -58.616573 
L 222.852414 -58.808307 
L 225.931034 -58.808307 
L 225.931034 -58.993019 
L 229.009655 -58.993019 
L 229.009655 -59.184264 
L 232.088276 -59.184264 
L 232.088276 -59.366337 
L 235.166897 -59.366337 
L 235.166897 -59.522084 
L 238.245517 -59.522084 
L 238.245517 -59.604993 
L 241.324138 -59.604993 
L 241.324138 -60.409609 
L 244.402759 -60.409609 
L 244.402759 -60.950213 
L 247.481379 -60.950213 
L 247.481379 -61.442878 
L 250.56 -61.442878 
L 250.56 -61.963005 
L 253.638621 -61.963005 
L 253.638621 -62.494511 
L 256.717241 -62.494511 
L 256.717241 -63.065509 
L 259.795862 -63.065509 
L 259.795862 -63.232097 
L 262.874483 -63.232097 
L 262.874483 -63.268433 
L 265.953103 -63.268433 
L 265.953103 -63.600272 
L 269.031724 -63.600272 
L 269.031724 -64.120139 
L 272.110345 -64.120139 
L 272.110345 -64.848788 
L 275.188966 -64.848788 
L 275.188966 -65.39707 
L 278.267586 -65.39707 
L 278.267586 -65.862094 
L 281.346207 -65.862094 
L 281.346207 -66.008692 
L 284.424828 -66.008692 
L 284.424828 -66.046803 
L 287.503448 -66.046803 
L 287.503448 -66.367702 
L 290.582069 -66.367702 
L 290.582069 -66.835775 
L 293.66069 -66.835775 
L 293.66069 -67.289091 
L 296.73931 -67.289091 
L 296.73931 -67.768178 
L 299.817931 -67.768178 
L 299.817931 -68.202757 
L 302.896552 -68.202757 
L 302.896552 -68.355757 
L 305.975172 -68.355757 
L 305.975172 -68.225899 
L 309.053793 -68.225899 
L 309.053793 -68.706396 
L 312.132414 -68.706396 
L 312.132414 -69.228755 
L 315.211034 -69.228755 
L 315.211034 -69.79421 
L 318.289655 -69.79421 
L 318.289655 -70.38722 
L 321.368276 -70.38722 
L 321.368276 -70.887683 
L 324.446897 -70.887683 
L 324.446897 -71.119972 
L 327.525517 -71.119972 
L 327.525517 -71.189869 
L 330.604138 -71.189869 
L 330.604138 -71.708825 
L 333.682759 -71.708825 
L 333.682759 -72.275206 
L 336.761379 -72.275206 
L 336.761379 -72.77827 
L 339.84 -72.77827 
L 339.84 -73.378404 
L 342.918621 -73.378404 
L 342.918621 -73.914586 
L 345.997241 -73.914586 
L 345.997241 -74.148945 
L 349.075862 -74.148945 
L 349.075862 -74.234689 
L 352.154483 -74.234689 
L 352.154483 -74.788798 
L 355.233103 -74.788798 
L 355.233103 -75.439141 
L 358.311724 -75.439141 
L 358.311724 -76.140985 
L 361.390345 -76.140985 
L 361.390345 -76.934066 
L 364.468966 -76.934066 
L 364.468966 -77.71334 
L 367.547586 -77.71334 
L 367.547586 -86.019754 
L 367.547586 -86.019754 
L 364.468966 -86.019754 
L 364.468966 -86.019754 
L 361.390345 -86.019754 
L 361.390345 -86.019754 
L 358.311724 -86.019754 
L 358.311724 -86.019754 
L 355.233103 -86.019754 
L 355.233103 -86.019754 
L 352.154483 -86.019754 
L 352.154483 -86.019754 
L 349.075862 -86.019754 
L 349.075862 -80.750736 
L 345.997241 -80.750736 
L 345.997241 -80.750736 
L 342.918621 -80.750736 
L 342.918621 -80.750736 
L 339.84 -80.750736 
L 339.84 -80.750736 
L 336.761379 -80.750736 
L 336.761379 -80.750736 
L 333.682759 -80.750736 
L 333.682759 -80.750736 
L 330.604138 -80.750736 
L 330.604138 -80.750736 
L 327.525517 -80.750736 
L 327.525517 -75.496687 
L 324.446897 -75.496687 
L 324.446897 -75.496687 
L 321.368276 -75.496687 
L 321.368276 -75.496687 
L 318.289655 -75.496687 
L 318.289655 -75.496687 
L 315.211034 -75.496687 
L 315.211034 -75.496687 
L 312.132414 -75.496687 
L 312.132414 -75.496687 
L 309.053793 -75.496687 
L 309.053793 -75.496687 
L 305.975172 -75.496687 
L 305.975172 -70.242638 
L 302.896552 -70.242638 
L 302.896552 -70.242638 
L 299.817931 -70.242638 
L 299.817931 -70.242638 
L 296.73931 -70.242638 
L 296.73931 -70.242638 
L 293.66069 -70.242638 
L 293.66069 -70.242638 
L 290.582069 -70.242638 
L 290.582069 -70.242638 
L 287.503448 -70.242638 
L 287.503448 -70.242638 
L 284.424828 -70.242638 
L 284.424828 -67.653036 
L 281.346207 -67.653036 
L 281.346207 -67.653036 
L 278.267586 -67.653036 
L 278.267586 -67.653036 
L 275.188966 -67.653036 
L 275.188966 -67.653036 
L 272.110345 -67.653036 
L 272.110345 -67.653036 
L 269.031724 -67.653036 
L 269.031724 -67.653036 
L 265.953103 -67.653036 
L 265.953103 -67.653036 
L 262.874483 -67.653036 
L 262.874483 -65.063434 
L 259.795862 -65.063434 
L 259.795862 -65.063434 
L 256.717241 -65.063434 
L 256.717241 -65.063434 
L 253.638621 -65.063434 
L 253.638621 -65.063434 
L 250.56 -65.063434 
L 250.56 -65.063434 
L 247.481379 -65.063434 
L 247.481379 -65.063434 
L 244.402759 -65.063434 
L 244.402759 -65.063434 
L 241.324138 -65.063434 
L 241.324138 -60.542856 
L 238.245517 -60.542856 
L 238.245517 -60.542856 
L 235.166897 -60.542856 
L 235.166897 -60.542856 
L 232.088276 -60.542856 
L 232.088276 -60.542856 
L 229.009655 -60.542856 
L 229.009655 -60.542856 
L 225.931034 -60.542856 
L 225.931034 -60.542856 
L 222.852414 -60.542856 
L 222.852414 -60.542856 
L 219.773793 -60.542856 
L 219.773793 -58.761569 
L 216.695172 -58.761569 
L 216.695172 -58.761569 
L 213.616552 -58.761569 
L 213.616552 -58.761569 
L 210.537931 -58.761569 
L 210.537931 -58.761569 
L 207.45931 -58.761569 
L 207.45931 -58.761569 
L 204.38069 -58.761569 
L 204.38069 -58.761569 
L 201.302069 -58.761569 
L 201.302069 -58.761569 
L 198.223448 -58.761569 
L 198.223448 -58.761569 
L 195.144828 -58.761569 
L 195.144828 -58.761569 
L 192.066207 -58.761569 
L 192.066207 -58.761569 
L 188.987586 -58.761569 
L 188.987586 -58.761569 
L 185.908966 -58.761569 
L 185.908966 -58.761569 
L 182.830345 -58.761569 
L 182.830345 -58.761569 
L 179.751724 -58.761569 
L 179.751724 -58.761569 
L 176.673103 -58.761569 
L 176.673103 -56.38153 
L 173.594483 -56.38153 
L 173.594483 -56.38153 
L 170.515862 -56.38153 
L 170.515862 -56.38153 
L 167.437241 -56.38153 
L 167.437241 -56.38153 
L 164.358621 -56.38153 
L 164.358621 -56.38153 
L 161.28 -56.38153 
L 161.28 -56.38153 
L 158.201379 -56.38153 
L 158.201379 -56.38153 
L 155.122759 -56.38153 
L 155.122759 -56.38153 
L 152.044138 -56.38153 
L 152.044138 -56.38153 
L 148.965517 -56.38153 
L 148.965517 -56.38153 
L 145.886897 -56.38153 
L 145.886897 -56.38153 
L 142.808276 -56.38153 
L 142.808276 -56.38153 
L 139.729655 -56.38153 
L 139.729655 -56.38153 
L 136.651034 -56.38153 
L 136.651034 -56.38153 
L 133.572414 -56.38153 
L 133.572414 -54.151178 
L 130.493793 -54.151178 
L 130.493793 -54.151178 
L 127.415172 -54.151178 
L 127.415172 -54.151178 
L 124.336552 -54.151178 
L 124.336552 -54.151178 
L 121.257931 -54.151178 
L 121.257931 -54.151178 
L 118.17931 -54.151178 
L 118.17931 -54.151178 
L 115.10069 -54.151178 
L 115.10069 -54.151178 
L 112.022069 -54.151178 
L 112.022069 -52.13039 
L 108.943448 -52.13039 
L 108.943448 -52.13039 
L 105.864828 -52.13039 
L 105.864828 -52.13039 
L 102.786207 -52.13039 
L 102.786207 -52.13039 
L 99.707586 -52.13039 
L 99.707586 -52.13039 
L 96.628966 -52.13039 
L 96.628966 -52.13039 
L 93.550345 -52.13039 
L 93.550345 -52.13039 
L 90.471724 -52.13039 
L 90.471724 -49.64557 
L 87.393103 -49.64557 
L 87.393103 -49.64557 
L 84.314483 -49.64557 
L 84.314483 -49.64557 
L 81.235862 -49.64557 
L 81.235862 -49.64557 
L 78.157241 -49.64557 
L 78.157241 -49.64557 
L 75.078621 -49.64557 
L 75.078621 -49.64557 
L 72 -49.64557 
L 72 -49.64557 
z
" id="mf04e1cb3e7"/>
    </defs>
    <g clip-path="url(#peb916c4a8f)">
     <use style="fill:#2ca02c;" x="0" xlink:href="#mf04e1cb3e7" y="432"/>
    </g>
   </g>
   <g id="PolyCollection_16">
    <defs>
     <path d="M 72 -49.64557 
L 72 -49.64557 
L 72 -49.64557 
L 75.078621 -49.64557 
L 75.078621 -49.64557 
L 78.157241 -49.64557 
L 78.157241 -49.64557 
L 81.235862 -49.64557 
L 81.235862 -49.64557 
L 84.314483 -49.64557 
L 84.314483 -49.64557 
L 87.393103 -49.64557 
L 87.393103 -49.64557 
L 90.471724 -49.64557 
L 90.471724 -52.13039 
L 93.550345 -52.13039 
L 93.550345 -52.13039 
L 96.628966 -52.13039 
L 96.628966 -52.13039 
L 99.707586 -52.13039 
L 99.707586 -52.13039 
L 102.786207 -52.13039 
L 102.786207 -52.13039 
L 105.864828 -52.13039 
L 105.864828 -52.13039 
L 108.943448 -52.13039 
L 108.943448 -52.13039 
L 112.022069 -52.13039 
L 112.022069 -54.151178 
L 115.10069 -54.151178 
L 115.10069 -54.151178 
L 118.17931 -54.151178 
L 118.17931 -54.151178 
L 121.257931 -54.151178 
L 121.257931 -54.151178 
L 124.336552 -54.151178 
L 124.336552 -54.151178 
L 127.415172 -54.151178 
L 127.415172 -54.151178 
L 130.493793 -54.151178 
L 130.493793 -54.151178 
L 133.572414 -54.151178 
L 133.572414 -56.38153 
L 136.651034 -56.38153 
L 136.651034 -56.38153 
L 139.729655 -56.38153 
L 139.729655 -56.38153 
L 142.808276 -56.38153 
L 142.808276 -56.38153 
L 145.886897 -56.38153 
L 145.886897 -56.38153 
L 148.965517 -56.38153 
L 148.965517 -56.38153 
L 152.044138 -56.38153 
L 152.044138 -56.38153 
L 155.122759 -56.38153 
L 155.122759 -56.38153 
L 158.201379 -56.38153 
L 158.201379 -56.38153 
L 161.28 -56.38153 
L 161.28 -56.38153 
L 164.358621 -56.38153 
L 164.358621 -56.38153 
L 167.437241 -56.38153 
L 167.437241 -56.38153 
L 170.515862 -56.38153 
L 170.515862 -56.38153 
L 173.594483 -56.38153 
L 173.594483 -56.38153 
L 176.673103 -56.38153 
L 176.673103 -58.761569 
L 179.751724 -58.761569 
L 179.751724 -58.761569 
L 182.830345 -58.761569 
L 182.830345 -58.761569 
L 185.908966 -58.761569 
L 185.908966 -58.761569 
L 188.987586 -58.761569 
L 188.987586 -58.761569 
L 192.066207 -58.761569 
L 192.066207 -58.761569 
L 195.144828 -58.761569 
L 195.144828 -58.761569 
L 198.223448 -58.761569 
L 198.223448 -58.761569 
L 201.302069 -58.761569 
L 201.302069 -58.761569 
L 204.38069 -58.761569 
L 204.38069 -58.761569 
L 207.45931 -58.761569 
L 207.45931 -58.761569 
L 210.537931 -58.761569 
L 210.537931 -58.761569 
L 213.616552 -58.761569 
L 213.616552 -58.761569 
L 216.695172 -58.761569 
L 216.695172 -58.761569 
L 219.773793 -58.761569 
L 219.773793 -60.542856 
L 222.852414 -60.542856 
L 222.852414 -60.542856 
L 225.931034 -60.542856 
L 225.931034 -60.542856 
L 229.009655 -60.542856 
L 229.009655 -60.542856 
L 232.088276 -60.542856 
L 232.088276 -60.542856 
L 235.166897 -60.542856 
L 235.166897 -60.542856 
L 238.245517 -60.542856 
L 238.245517 -60.542856 
L 241.324138 -60.542856 
L 241.324138 -65.063434 
L 244.402759 -65.063434 
L 244.402759 -65.063434 
L 247.481379 -65.063434 
L 247.481379 -65.063434 
L 250.56 -65.063434 
L 250.56 -65.063434 
L 253.638621 -65.063434 
L 253.638621 -65.063434 
L 256.717241 -65.063434 
L 256.717241 -65.063434 
L 259.795862 -65.063434 
L 259.795862 -65.063434 
L 262.874483 -65.063434 
L 262.874483 -67.653036 
L 265.953103 -67.653036 
L 265.953103 -67.653036 
L 269.031724 -67.653036 
L 269.031724 -67.653036 
L 272.110345 -67.653036 
L 272.110345 -67.653036 
L 275.188966 -67.653036 
L 275.188966 -67.653036 
L 278.267586 -67.653036 
L 278.267586 -67.653036 
L 281.346207 -67.653036 
L 281.346207 -67.653036 
L 284.424828 -67.653036 
L 284.424828 -70.242638 
L 287.503448 -70.242638 
L 287.503448 -70.242638 
L 290.582069 -70.242638 
L 290.582069 -70.242638 
L 293.66069 -70.242638 
L 293.66069 -70.242638 
L 296.73931 -70.242638 
L 296.73931 -70.242638 
L 299.817931 -70.242638 
L 299.817931 -70.242638 
L 302.896552 -70.242638 
L 302.896552 -70.242638 
L 305.975172 -70.242638 
L 305.975172 -75.496687 
L 309.053793 -75.496687 
L 309.053793 -75.496687 
L 312.132414 -75.496687 
L 312.132414 -75.496687 
L 315.211034 -75.496687 
L 315.211034 -75.496687 
L 318.289655 -75.496687 
L 318.289655 -75.496687 
L 321.368276 -75.496687 
L 321.368276 -75.496687 
L 324.446897 -75.496687 
L 324.446897 -75.496687 
L 327.525517 -75.496687 
L 327.525517 -80.750736 
L 330.604138 -80.750736 
L 330.604138 -80.750736 
L 333.682759 -80.750736 
L 333.682759 -80.750736 
L 336.761379 -80.750736 
L 336.761379 -80.750736 
L 339.84 -80.750736 
L 339.84 -80.750736 
L 342.918621 -80.750736 
L 342.918621 -80.750736 
L 345.997241 -80.750736 
L 345.997241 -80.750736 
L 349.075862 -80.750736 
L 349.075862 -86.019754 
L 352.154483 -86.019754 
L 352.154483 -86.019754 
L 355.233103 -86.019754 
L 355.233103 -86.019754 
L 358.311724 -86.019754 
L 358.311724 -86.019754 
L 361.390345 -86.019754 
L 361.390345 -86.019754 
L 364.468966 -86.019754 
L 364.468966 -86.019754 
L 367.547586 -86.019754 
L 367.547586 -106.702511 
L 367.547586 -106.702511 
L 364.468966 -106.702511 
L 364.468966 -106.267931 
L 361.390345 -106.267931 
L 361.390345 -105.788845 
L 358.311724 -105.788845 
L 358.311724 -105.335529 
L 355.233103 -105.335529 
L 355.233103 -104.867456 
L 352.154483 -104.867456 
L 352.154483 -104.546557 
L 349.075862 -104.546557 
L 349.075862 -99.239428 
L 345.997241 -99.239428 
L 345.997241 -99.09283 
L 342.918621 -99.09283 
L 342.918621 -98.627806 
L 339.84 -98.627806 
L 339.84 -98.079524 
L 336.761379 -98.079524 
L 336.761379 -97.350875 
L 333.682759 -97.350875 
L 333.682759 -96.831008 
L 330.604138 -96.831008 
L 330.604138 -96.499169 
L 327.525517 -96.499169 
L 327.525517 -91.208784 
L 324.446897 -91.208784 
L 324.446897 -91.042196 
L 321.368276 -91.042196 
L 321.368276 -90.471198 
L 318.289655 -90.471198 
L 318.289655 -89.939692 
L 315.211034 -89.939692 
L 315.211034 -89.419565 
L 312.132414 -89.419565 
L 312.132414 -88.9269 
L 309.053793 -88.9269 
L 309.053793 -88.386296 
L 305.975172 -88.386296 
L 305.975172 -82.327632 
L 302.896552 -82.327632 
L 302.896552 -82.244723 
L 299.817931 -82.244723 
L 299.817931 -82.088975 
L 296.73931 -82.088975 
L 296.73931 -81.906902 
L 293.66069 -81.906902 
L 293.66069 -81.715657 
L 290.582069 -81.715657 
L 290.582069 -81.530946 
L 287.503448 -81.530946 
L 287.503448 -81.339212 
L 284.424828 -81.339212 
L 284.424828 -78.731887 
L 281.346207 -78.731887 
L 281.346207 -78.555793 
L 278.267586 -78.555793 
L 278.267586 -78.186792 
L 275.188966 -78.186792 
L 275.188966 -77.683267 
L 272.110345 -77.683267 
L 272.110345 -77.2351 
L 269.031724 -77.2351 
L 269.031724 -76.876299 
L 265.953103 -76.876299 
L 265.953103 -76.866114 
L 262.874483 -76.866114 
L 262.874483 -74.278049 
L 259.795862 -74.278049 
L 259.795862 -74.191346 
L 256.717241 -74.191346 
L 256.717241 -74.233746 
L 253.638621 -74.233746 
L 253.638621 -73.74567 
L 250.56 -73.74567 
L 250.56 -73.318859 
L 247.481379 -73.318859 
L 247.481379 -72.876674 
L 244.402759 -72.876674 
L 244.402759 -72.537772 
L 241.324138 -72.537772 
L 241.324138 -67.8346 
L 238.245517 -67.8346 
L 238.245517 -67.828122 
L 235.166897 -67.828122 
L 235.166897 -67.417183 
L 232.088276 -67.417183 
L 232.088276 -67.009741 
L 229.009655 -67.009741 
L 229.009655 -66.581352 
L 225.931034 -66.581352 
L 225.931034 -66.194737 
L 222.852414 -66.194737 
L 222.852414 -66.023972 
L 219.773793 -66.023972 
L 219.773793 -64.009925 
L 216.695172 -64.009925 
L 216.695172 -63.983401 
L 213.616552 -63.983401 
L 213.616552 -63.817844 
L 210.537931 -63.817844 
L 210.537931 -63.670324 
L 207.45931 -63.670324 
L 207.45931 -63.426242 
L 204.38069 -63.426242 
L 204.38069 -63.075921 
L 201.302069 -63.075921 
L 201.302069 -62.772622 
L 198.223448 -62.772622 
L 198.223448 -62.727323 
L 195.144828 -62.727323 
L 195.144828 -62.676791 
L 192.066207 -62.676791 
L 192.066207 -62.301473 
L 188.987586 -62.301473 
L 188.987586 -62.144727 
L 185.908966 -62.144727 
L 185.908966 -61.853049 
L 182.830345 -61.853049 
L 182.830345 -61.677856 
L 179.751724 -61.677856 
L 179.751724 -61.545375 
L 176.673103 -61.545375 
L 176.673103 -59.08739 
L 173.594483 -59.08739 
L 173.594483 -58.940862 
L 170.515862 -58.940862 
L 170.515862 -58.772113 
L 167.437241 -58.772113 
L 167.437241 -58.4109 
L 164.358621 -58.4109 
L 164.358621 -58.072671 
L 161.28 -58.072671 
L 161.28 -57.775524 
L 158.201379 -57.775524 
L 158.201379 -57.502593 
L 155.122759 -57.502593 
L 155.122759 -57.442452 
L 152.044138 -57.442452 
L 152.044138 -57.37945 
L 148.965517 -57.37945 
L 148.965517 -57.21313 
L 145.886897 -57.21313 
L 145.886897 -56.96365 
L 142.808276 -56.96365 
L 142.808276 -56.611317 
L 139.729655 -56.611317 
L 139.729655 -56.477297 
L 136.651034 -56.477297 
L 136.651034 -56.382195 
L 133.572414 -56.382195 
L 133.572414 -54.151178 
L 130.493793 -54.151178 
L 130.493793 -54.151178 
L 127.415172 -54.151178 
L 127.415172 -54.151178 
L 124.336552 -54.151178 
L 124.336552 -54.151178 
L 121.257931 -54.151178 
L 121.257931 -54.151178 
L 118.17931 -54.151178 
L 118.17931 -54.151178 
L 115.10069 -54.151178 
L 115.10069 -54.151178 
L 112.022069 -54.151178 
L 112.022069 -52.13039 
L 108.943448 -52.13039 
L 108.943448 -52.13039 
L 105.864828 -52.13039 
L 105.864828 -52.13039 
L 102.786207 -52.13039 
L 102.786207 -52.13039 
L 99.707586 -52.13039 
L 99.707586 -52.13039 
L 96.628966 -52.13039 
L 96.628966 -52.13039 
L 93.550345 -52.13039 
L 93.550345 -52.13039 
L 90.471724 -52.13039 
L 90.471724 -49.64557 
L 87.393103 -49.64557 
L 87.393103 -49.64557 
L 84.314483 -49.64557 
L 84.314483 -49.64557 
L 81.235862 -49.64557 
L 81.235862 -49.64557 
L 78.157241 -49.64557 
L 78.157241 -49.64557 
L 75.078621 -49.64557 
L 75.078621 -49.64557 
L 72 -49.64557 
L 72 -49.64557 
z
" id="m30027064c6"/>
    </defs>
    <g clip-path="url(#peb916c4a8f)">
     <use style="fill:#ff7f0e;" x="0" xlink:href="#m30027064c6" y="432"/>
    </g>
   </g>
   <g id="PolyCollection_17">
    <defs>
     <path d="M 72 -51.771139 
L 72 -49.64557 
L 72 -49.64557 
L 75.078621 -49.64557 
L 75.078621 -49.64557 
L 78.157241 -49.64557 
L 78.157241 -49.64557 
L 81.235862 -49.64557 
L 81.235862 -49.64557 
L 84.314483 -49.64557 
L 84.314483 -49.64557 
L 87.393103 -49.64557 
L 87.393103 -49.64557 
L 90.471724 -49.64557 
L 90.471724 -52.13039 
L 93.550345 -52.13039 
L 93.550345 -52.13039 
L 96.628966 -52.13039 
L 96.628966 -52.13039 
L 99.707586 -52.13039 
L 99.707586 -52.13039 
L 102.786207 -52.13039 
L 102.786207 -52.13039 
L 105.864828 -52.13039 
L 105.864828 -52.13039 
L 108.943448 -52.13039 
L 108.943448 -52.13039 
L 112.022069 -52.13039 
L 112.022069 -54.151178 
L 115.10069 -54.151178 
L 115.10069 -54.151178 
L 118.17931 -54.151178 
L 118.17931 -54.151178 
L 121.257931 -54.151178 
L 121.257931 -54.151178 
L 124.336552 -54.151178 
L 124.336552 -54.151178 
L 127.415172 -54.151178 
L 127.415172 -54.151178 
L 130.493793 -54.151178 
L 130.493793 -54.151178 
L 133.572414 -54.151178 
L 133.572414 -56.382195 
L 136.651034 -56.382195 
L 136.651034 -56.477297 
L 139.729655 -56.477297 
L 139.729655 -56.611317 
L 142.808276 -56.611317 
L 142.808276 -56.96365 
L 145.886897 -56.96365 
L 145.886897 -57.21313 
L 148.965517 -57.21313 
L 148.965517 -57.37945 
L 152.044138 -57.37945 
L 152.044138 -57.442452 
L 155.122759 -57.442452 
L 155.122759 -57.502593 
L 158.201379 -57.502593 
L 158.201379 -57.775524 
L 161.28 -57.775524 
L 161.28 -58.072671 
L 164.358621 -58.072671 
L 164.358621 -58.4109 
L 167.437241 -58.4109 
L 167.437241 -58.772113 
L 170.515862 -58.772113 
L 170.515862 -58.940862 
L 173.594483 -58.940862 
L 173.594483 -59.08739 
L 176.673103 -59.08739 
L 176.673103 -61.545375 
L 179.751724 -61.545375 
L 179.751724 -61.677856 
L 182.830345 -61.677856 
L 182.830345 -61.853049 
L 185.908966 -61.853049 
L 185.908966 -62.144727 
L 188.987586 -62.144727 
L 188.987586 -62.301473 
L 192.066207 -62.301473 
L 192.066207 -62.676791 
L 195.144828 -62.676791 
L 195.144828 -62.727323 
L 198.223448 -62.727323 
L 198.223448 -62.772622 
L 201.302069 -62.772622 
L 201.302069 -63.075921 
L 204.38069 -63.075921 
L 204.38069 -63.426242 
L 207.45931 -63.426242 
L 207.45931 -63.670324 
L 210.537931 -63.670324 
L 210.537931 -63.817844 
L 213.616552 -63.817844 
L 213.616552 -63.983401 
L 216.695172 -63.983401 
L 216.695172 -64.009925 
L 219.773793 -64.009925 
L 219.773793 -66.023972 
L 222.852414 -66.023972 
L 222.852414 -66.194737 
L 225.931034 -66.194737 
L 225.931034 -66.581352 
L 229.009655 -66.581352 
L 229.009655 -67.009741 
L 232.088276 -67.009741 
L 232.088276 -67.417183 
L 235.166897 -67.417183 
L 235.166897 -67.828122 
L 238.245517 -67.828122 
L 238.245517 -67.8346 
L 241.324138 -67.8346 
L 241.324138 -72.537772 
L 244.402759 -72.537772 
L 244.402759 -72.876674 
L 247.481379 -72.876674 
L 247.481379 -73.318859 
L 250.56 -73.318859 
L 250.56 -73.74567 
L 253.638621 -73.74567 
L 253.638621 -74.233746 
L 256.717241 -74.233746 
L 256.717241 -74.191346 
L 259.795862 -74.191346 
L 259.795862 -74.278049 
L 262.874483 -74.278049 
L 262.874483 -76.866114 
L 265.953103 -76.866114 
L 265.953103 -76.876299 
L 269.031724 -76.876299 
L 269.031724 -77.2351 
L 272.110345 -77.2351 
L 272.110345 -77.683267 
L 275.188966 -77.683267 
L 275.188966 -78.186792 
L 278.267586 -78.186792 
L 278.267586 -78.555793 
L 281.346207 -78.555793 
L 281.346207 -78.731887 
L 284.424828 -78.731887 
L 284.424828 -81.339212 
L 287.503448 -81.339212 
L 287.503448 -81.530946 
L 290.582069 -81.530946 
L 290.582069 -81.715657 
L 293.66069 -81.715657 
L 293.66069 -81.906902 
L 296.73931 -81.906902 
L 296.73931 -82.088975 
L 299.817931 -82.088975 
L 299.817931 -82.244723 
L 302.896552 -82.244723 
L 302.896552 -82.327632 
L 305.975172 -82.327632 
L 305.975172 -88.386296 
L 309.053793 -88.386296 
L 309.053793 -88.9269 
L 312.132414 -88.9269 
L 312.132414 -89.419565 
L 315.211034 -89.419565 
L 315.211034 -89.939692 
L 318.289655 -89.939692 
L 318.289655 -90.471198 
L 321.368276 -90.471198 
L 321.368276 -91.042196 
L 324.446897 -91.042196 
L 324.446897 -91.208784 
L 327.525517 -91.208784 
L 327.525517 -96.499169 
L 330.604138 -96.499169 
L 330.604138 -96.831008 
L 333.682759 -96.831008 
L 333.682759 -97.350875 
L 336.761379 -97.350875 
L 336.761379 -98.079524 
L 339.84 -98.079524 
L 339.84 -98.627806 
L 342.918621 -98.627806 
L 342.918621 -99.09283 
L 345.997241 -99.09283 
L 345.997241 -99.239428 
L 349.075862 -99.239428 
L 349.075862 -104.546557 
L 352.154483 -104.546557 
L 352.154483 -104.867456 
L 355.233103 -104.867456 
L 355.233103 -105.335529 
L 358.311724 -105.335529 
L 358.311724 -105.788845 
L 361.390345 -105.788845 
L 361.390345 -106.267931 
L 364.468966 -106.267931 
L 364.468966 -106.702511 
L 367.547586 -106.702511 
L 367.547586 -124.519507 
L 367.547586 -124.519507 
L 364.468966 -124.519507 
L 364.468966 -124.519507 
L 361.390345 -124.519507 
L 361.390345 -124.519507 
L 358.311724 -124.519507 
L 358.311724 -124.519507 
L 355.233103 -124.519507 
L 355.233103 -124.519507 
L 352.154483 -124.519507 
L 352.154483 -124.519507 
L 349.075862 -124.519507 
L 349.075862 -113.981472 
L 345.997241 -113.981472 
L 345.997241 -113.981472 
L 342.918621 -113.981472 
L 342.918621 -113.981472 
L 339.84 -113.981472 
L 339.84 -113.981472 
L 336.761379 -113.981472 
L 336.761379 -113.981472 
L 333.682759 -113.981472 
L 333.682759 -113.981472 
L 330.604138 -113.981472 
L 330.604138 -113.981472 
L 327.525517 -113.981472 
L 327.525517 -103.473374 
L 324.446897 -103.473374 
L 324.446897 -103.473374 
L 321.368276 -103.473374 
L 321.368276 -103.473374 
L 318.289655 -103.473374 
L 318.289655 -103.473374 
L 315.211034 -103.473374 
L 315.211034 -103.473374 
L 312.132414 -103.473374 
L 312.132414 -103.473374 
L 309.053793 -103.473374 
L 309.053793 -103.473374 
L 305.975172 -103.473374 
L 305.975172 -92.965277 
L 302.896552 -92.965277 
L 302.896552 -92.965277 
L 299.817931 -92.965277 
L 299.817931 -92.965277 
L 296.73931 -92.965277 
L 296.73931 -92.965277 
L 293.66069 -92.965277 
L 293.66069 -92.965277 
L 290.582069 -92.965277 
L 290.582069 -92.965277 
L 287.503448 -92.965277 
L 287.503448 -92.965277 
L 284.424828 -92.965277 
L 284.424828 -87.786072 
L 281.346207 -87.786072 
L 281.346207 -87.786072 
L 278.267586 -87.786072 
L 278.267586 -87.786072 
L 275.188966 -87.786072 
L 275.188966 -87.786072 
L 272.110345 -87.786072 
L 272.110345 -87.786072 
L 269.031724 -87.786072 
L 269.031724 -87.786072 
L 265.953103 -87.786072 
L 265.953103 -87.786072 
L 262.874483 -87.786072 
L 262.874483 -82.606867 
L 259.795862 -82.606867 
L 259.795862 -82.606867 
L 256.717241 -82.606867 
L 256.717241 -82.606867 
L 253.638621 -82.606867 
L 253.638621 -82.606867 
L 250.56 -82.606867 
L 250.56 -82.606867 
L 247.481379 -82.606867 
L 247.481379 -82.606867 
L 244.402759 -82.606867 
L 244.402759 -82.606867 
L 241.324138 -82.606867 
L 241.324138 -73.565712 
L 238.245517 -73.565712 
L 238.245517 -73.565712 
L 235.166897 -73.565712 
L 235.166897 -73.565712 
L 232.088276 -73.565712 
L 232.088276 -73.565712 
L 229.009655 -73.565712 
L 229.009655 -73.565712 
L 225.931034 -73.565712 
L 225.931034 -73.565712 
L 222.852414 -73.565712 
L 222.852414 -73.565712 
L 219.773793 -73.565712 
L 219.773793 -70.003138 
L 216.695172 -70.003138 
L 216.695172 -70.003138 
L 213.616552 -70.003138 
L 213.616552 -70.003138 
L 210.537931 -70.003138 
L 210.537931 -70.003138 
L 207.45931 -70.003138 
L 207.45931 -70.003138 
L 204.38069 -70.003138 
L 204.38069 -70.003138 
L 201.302069 -70.003138 
L 201.302069 -70.003138 
L 198.223448 -70.003138 
L 198.223448 -70.003138 
L 195.144828 -70.003138 
L 195.144828 -70.003138 
L 192.066207 -70.003138 
L 192.066207 -70.003138 
L 188.987586 -70.003138 
L 188.987586 -70.003138 
L 185.908966 -70.003138 
L 185.908966 -70.003138 
L 182.830345 -70.003138 
L 182.830345 -70.003138 
L 179.751724 -70.003138 
L 179.751724 -70.003138 
L 176.673103 -70.003138 
L 176.673103 -65.243059 
L 173.594483 -65.243059 
L 173.594483 -65.243059 
L 170.515862 -65.243059 
L 170.515862 -65.243059 
L 167.437241 -65.243059 
L 167.437241 -65.243059 
L 164.358621 -65.243059 
L 164.358621 -65.243059 
L 161.28 -65.243059 
L 161.28 -65.243059 
L 158.201379 -65.243059 
L 158.201379 -65.243059 
L 155.122759 -65.243059 
L 155.122759 -65.243059 
L 152.044138 -65.243059 
L 152.044138 -65.243059 
L 148.965517 -65.243059 
L 148.965517 -65.243059 
L 145.886897 -65.243059 
L 145.886897 -65.243059 
L 142.808276 -65.243059 
L 142.808276 -65.243059 
L 139.729655 -65.243059 
L 139.729655 -65.243059 
L 136.651034 -65.243059 
L 136.651034 -65.243059 
L 133.572414 -65.243059 
L 133.572414 -60.782357 
L 130.493793 -60.782357 
L 130.493793 -60.782357 
L 127.415172 -60.782357 
L 127.415172 -60.782357 
L 124.336552 -60.782357 
L 124.336552 -60.782357 
L 121.257931 -60.782357 
L 121.257931 -60.782357 
L 118.17931 -60.782357 
L 118.17931 -60.782357 
L 115.10069 -60.782357 
L 115.10069 -60.782357 
L 112.022069 -60.782357 
L 112.022069 -56.740781 
L 108.943448 -56.740781 
L 108.943448 -56.740781 
L 105.864828 -56.740781 
L 105.864828 -56.740781 
L 102.786207 -56.740781 
L 102.786207 -56.740781 
L 99.707586 -56.740781 
L 99.707586 -56.740781 
L 96.628966 -56.740781 
L 96.628966 -56.740781 
L 93.550345 -56.740781 
L 93.550345 -56.740781 
L 90.471724 -56.740781 
L 90.471724 -51.771139 
L 87.393103 -51.771139 
L 87.393103 -51.771139 
L 84.314483 -51.771139 
L 84.314483 -51.771139 
L 81.235862 -51.771139 
L 81.235862 -51.771139 
L 78.157241 -51.771139 
L 78.157241 -51.771139 
L 75.078621 -51.771139 
L 75.078621 -51.771139 
L 72 -51.771139 
L 72 -51.771139 
z
" id="m0140ad07ff"/>
    </defs>
    <g clip-path="url(#peb916c4a8f)">
     <use style="fill:#d62728;" x="0" xlink:href="#m0140ad07ff" y="432"/>
    </g>
   </g>
   <g id="matplotlib.axis_1">
    <g id="xtick_1">
     <g id="line2d_1">
      <path clip-path="url(#peb916c4a8f)" d="M 93.550345 384.48 
L 93.550345 51.84 
" style="fill:none;stroke:#000000;stroke-dasharray:0.8,1.32;stroke-dashoffset:0;stroke-width:0.8;"/>
     </g>
     <g id="line2d_2">
      <defs>
       <path d="M 0 0 
L 0 3.5 
" id="m2229792e03" style="stroke:#000000;stroke-width:0.8;"/>
      </defs>
      <g>
       <use style="stroke:#000000;stroke-width:0.8;" x="93.550345" xlink:href="#m2229792e03" y="384.48"/>
      </g>
     </g>
     <g id="text_1">
      <!-- Mar -->
      <g transform="translate(84.116751 399.078438)scale(0.1 -0.1)">
       <defs>
        <path d="M 628 4666 
L 1569 4666 
L 2759 1491 
L 3956 4666 
L 4897 4666 
L 4897 0 
L 4281 0 
L 4281 4097 
L 3078 897 
L 2444 897 
L 1241 4097 
L 1241 0 
L 628 0 
L 628 4666 
z
" id="DejaVuSans-4d" transform="scale(0.015625)"/>
        <path d="M 2194 1759 
Q 1497 1759 1228 1600 
Q 959 1441 959 1056 
Q 959 750 1161 570 
Q 1363 391 1709 391 
Q 2188 391 2477 730 
Q 2766 1069 2766 1631 
L 2766 1759 
L 2194 1759 
z
M 3341 1997 
L 3341 0 
L 2766 0 
L 2766 531 
Q 2569 213 2275 61 
Q 1981 -91 1556 -91 
Q 1019 -91 701 211 
Q 384 513 384 1019 
Q 384 1609 779 1909 
Q 1175 2209 1959 2209 
L 2766 2209 
L 2766 2266 
Q 2766 2663 2505 2880 
Q 2244 3097 1772 3097 
Q 1472 3097 1187 3025 
Q 903 2953 641 2809 
L 641 3341 
Q 956 3463 1253 3523 
Q 1550 3584 1831 3584 
Q 2591 3584 2966 3190 
Q 3341 2797 3341 1997 
z
" id="DejaVuSans-61" transform="scale(0.015625)"/>
        <path d="M 2631 2963 
Q 2534 3019 2420 3045 
Q 2306 3072 2169 3072 
Q 1681 3072 1420 2755 
Q 1159 2438 1159 1844 
L 1159 0 
L 581 0 
L 581 3500 
L 1159 3500 
L 1159 2956 
Q 1341 3275 1631 3429 
Q 1922 3584 2338 3584 
Q 2397 3584 2469 3576 
Q 2541 3569 2628 3553 
L 2631 2963 
z
" id="DejaVuSans-72" transform="scale(0.015625)"/>
       </defs>
       <use xlink:href="#DejaVuSans-4d"/>
       <use x="86.279297" xlink:href="#DejaVuSans-61"/>
       <use x="147.558594" xlink:href="#DejaVuSans-72"/>
      </g>
     </g>
    </g>
    <g id="xtick_2">
     <g id="line2d_3">
      <path clip-path="url(#peb916c4a8f)" d="M 136.651034 384.48 
L 136.651034 51.84 
" style="fill:none;stroke:#000000;stroke-dasharray:0.8,1.32;stroke-dashoffset:0;stroke-width:0.8;"/>
     </g>
     <g id="line2d_4">
      <g>
       <use style="stroke:#000000;stroke-width:0.8;" x="136.651034" xlink:href="#m2229792e03" y="384.48"/>
      </g>
     </g>
     <g id="text_2">
      <!-- 15 -->
      <g transform="translate(130.288534 399.078438)scale(0.1 -0.1)">
       <defs>
        <path d="M 794 531 
L 1825 531 
L 1825 4091 
L 703 3866 
L 703 4441 
L 1819 4666 
L 2450 4666 
L 2450 531 
L 3481 531 
L 3481 0 
L 794 0 
L 794 531 
z
" id="DejaVuSans-31" transform="scale(0.015625)"/>
        <path d="M 691 4666 
L 3169 4666 
L 3169 4134 
L 1269 4134 
L 1269 2991 
Q 1406 3038 1543 3061 
Q 1681 3084 1819 3084 
Q 2600 3084 3056 2656 
Q 3513 2228 3513 1497 
Q 3513 744 3044 326 
Q 2575 -91 1722 -91 
Q 1428 -91 1123 -41 
Q 819 9 494 109 
L 494 744 
Q 775 591 1075 516 
Q 1375 441 1709 441 
Q 2250 441 2565 725 
Q 2881 1009 2881 1497 
Q 2881 1984 2565 2268 
Q 2250 2553 1709 2553 
Q 1456 2553 1204 2497 
Q 953 2441 691 2322 
L 691 4666 
z
" id="DejaVuSans-35" transform="scale(0.015625)"/>
       </defs>
       <use xlink:href="#DejaVuSans-31"/>
       <use x="63.623047" xlink:href="#DejaVuSans-35"/>
      </g>
     </g>
    </g>
    <g id="xtick_3">
     <g id="line2d_5">
      <path clip-path="url(#peb916c4a8f)" d="M 188.987586 384.48 
L 188.987586 51.84 
" style="fill:none;stroke:#000000;stroke-dasharray:0.8,1.32;stroke-dashoffset:0;stroke-width:0.8;"/>
     </g>
     <g id="line2d_6">
      <g>
       <use style="stroke:#000000;stroke-width:0.8;" x="188.987586" xlink:href="#m2229792e03" y="384.48"/>
      </g>
     </g>
     <g id="text_3">
      <!-- Apr -->
      <g transform="translate(180.337586 399.078438)scale(0.1 -0.1)">
       <defs>
        <path d="M 2188 4044 
L 1331 1722 
L 3047 1722 
L 2188 4044 
z
M 1831 4666 
L 2547 4666 
L 4325 0 
L 3669 0 
L 3244 1197 
L 1141 1197 
L 716 0 
L 50 0 
L 1831 4666 
z
" id="DejaVuSans-41" transform="scale(0.015625)"/>
        <path d="M 1159 525 
L 1159 -1331 
L 581 -1331 
L 581 3500 
L 1159 3500 
L 1159 2969 
Q 1341 3281 1617 3432 
Q 1894 3584 2278 3584 
Q 2916 3584 3314 3078 
Q 3713 2572 3713 1747 
Q 3713 922 3314 415 
Q 2916 -91 2278 -91 
Q 1894 -91 1617 61 
Q 1341 213 1159 525 
z
M 3116 1747 
Q 3116 2381 2855 2742 
Q 2594 3103 2138 3103 
Q 1681 3103 1420 2742 
Q 1159 2381 1159 1747 
Q 1159 1113 1420 752 
Q 1681 391 2138 391 
Q 2594 391 2855 752 
Q 3116 1113 3116 1747 
z
" id="DejaVuSans-70" transform="scale(0.015625)"/>
       </defs>
       <use xlink:href="#DejaVuSans-41"/>
       <use x="68.408203" xlink:href="#DejaVuSans-70"/>
       <use x="131.884766" xlink:href="#DejaVuSans-72"/>
      </g>
     </g>
    </g>
    <g id="xtick_4">
     <g id="line2d_7">
      <path clip-path="url(#peb916c4a8f)" d="M 232.088276 384.48 
L 232.088276 51.84 
" style="fill:none;stroke:#000000;stroke-dasharray:0.8,1.32;stroke-dashoffset:0;stroke-width:0.8;"/>
     </g>
     <g id="line2d_8">
      <g>
       <use style="stroke:#000000;stroke-width:0.8;" x="232.088276" xlink:href="#m2229792e03" y="384.48"/>
      </g>
     </g>
     <g id="text_4">
      <!-- 15 -->
      <g transform="translate(225.725776 399.078438)scale(0.1 -0.1)">
       <use xlink:href="#DejaVuSans-31"/>
       <use x="63.623047" xlink:href="#DejaVuSans-35"/>
      </g>
     </g>
    </g>
    <g id="xtick_5">
     <g id="line2d_9">
      <path clip-path="url(#peb916c4a8f)" d="M 281.346207 384.48 
L 281.346207 51.84 
" style="fill:none;stroke:#000000;stroke-dasharray:0.8,1.32;stroke-dashoffset:0;stroke-width:0.8;"/>
     </g>
     <g id="line2d_10">
      <g>
       <use style="stroke:#000000;stroke-width:0.8;" x="281.346207" xlink:href="#m2229792e03" y="384.48"/>
      </g>
     </g>
     <g id="text_5">
      <!-- May -->
      <g transform="translate(271.008707 399.078438)scale(0.1 -0.1)">
       <defs>
        <path d="M 2059 -325 
Q 1816 -950 1584 -1140 
Q 1353 -1331 966 -1331 
L 506 -1331 
L 506 -850 
L 844 -850 
Q 1081 -850 1212 -737 
Q 1344 -625 1503 -206 
L 1606 56 
L 191 3500 
L 800 3500 
L 1894 763 
L 2988 3500 
L 3597 3500 
L 2059 -325 
z
" id="DejaVuSans-79" transform="scale(0.015625)"/>
       </defs>
       <use xlink:href="#DejaVuSans-4d"/>
       <use x="86.279297" xlink:href="#DejaVuSans-61"/>
       <use x="147.558594" xlink:href="#DejaVuSans-79"/>
      </g>
     </g>
    </g>
    <g id="xtick_6">
     <g id="line2d_11">
      <path clip-path="url(#peb916c4a8f)" d="M 324.446897 384.48 
L 324.446897 51.84 
" style="fill:none;stroke:#000000;stroke-dasharray:0.8,1.32;stroke-dashoffset:0;stroke-width:0.8;"/>
     </g>
     <g id="line2d_12">
      <g>
       <use style="stroke:#000000;stroke-width:0.8;" x="324.446897" xlink:href="#m2229792e03" y="384.48"/>
      </g>
     </g>
     <g id="text_6">
      <!-- 15 -->
      <g transform="translate(318.084397 399.078438)scale(0.1 -0.1)">
       <use xlink:href="#DejaVuSans-31"/>
       <use x="63.623047" xlink:href="#DejaVuSans-35"/>
      </g>
     </g>
    </g>
    <g id="xtick_7">
     <g id="line2d_13">
      <path clip-path="url(#peb916c4a8f)" d="M 376.783448 384.48 
L 376.783448 51.84 
" style="fill:none;stroke:#000000;stroke-dasharray:0.8,1.32;stroke-dashoffset:0;stroke-width:0.8;"/>
     </g>
     <g id="line2d_14">
      <g>
       <use style="stroke:#000000;stroke-width:0.8;" x="376.783448" xlink:href="#m2229792e03" y="384.48"/>
      </g>
     </g>
     <g id="text_7">
      <!-- Jun -->
      <g transform="translate(368.970948 399.078438)scale(0.1 -0.1)">
       <defs>
        <path d="M 628 4666 
L 1259 4666 
L 1259 325 
Q 1259 -519 939 -900 
Q 619 -1281 -91 -1281 
L -331 -1281 
L -331 -750 
L -134 -750 
Q 284 -750 456 -515 
Q 628 -281 628 325 
L 628 4666 
z
" id="DejaVuSans-4a" transform="scale(0.015625)"/>
        <path d="M 544 1381 
L 544 3500 
L 1119 3500 
L 1119 1403 
Q 1119 906 1312 657 
Q 1506 409 1894 409 
Q 2359 409 2629 706 
Q 2900 1003 2900 1516 
L 2900 3500 
L 3475 3500 
L 3475 0 
L 2900 0 
L 2900 538 
Q 2691 219 2414 64 
Q 2138 -91 1772 -91 
Q 1169 -91 856 284 
Q 544 659 544 1381 
z
M 1991 3584 
L 1991 3584 
z
" id="DejaVuSans-75" transform="scale(0.015625)"/>
        <path d="M 3513 2113 
L 3513 0 
L 2938 0 
L 2938 2094 
Q 2938 2591 2744 2837 
Q 2550 3084 2163 3084 
Q 1697 3084 1428 2787 
Q 1159 2491 1159 1978 
L 1159 0 
L 581 0 
L 581 3500 
L 1159 3500 
L 1159 2956 
Q 1366 3272 1645 3428 
Q 1925 3584 2291 3584 
Q 2894 3584 3203 3211 
Q 3513 2838 3513 2113 
z
" id="DejaVuSans-6e" transform="scale(0.015625)"/>
       </defs>
       <use xlink:href="#DejaVuSans-4a"/>
       <use x="29.492188" xlink:href="#DejaVuSans-75"/>
       <use x="92.871094" xlink:href="#DejaVuSans-6e"/>
      </g>
     </g>
    </g>
    <g id="xtick_8">
     <g id="line2d_15">
      <path clip-path="url(#peb916c4a8f)" d="M 419.884138 384.48 
L 419.884138 51.84 
" style="fill:none;stroke:#000000;stroke-dasharray:0.8,1.32;stroke-dashoffset:0;stroke-width:0.8;"/>
     </g>
     <g id="line2d_16">
      <g>
       <use style="stroke:#000000;stroke-width:0.8;" x="419.884138" xlink:href="#m2229792e03" y="384.48"/>
      </g>
     </g>
     <g id="text_8">
      <!-- 15 -->
      <g transform="translate(413.521638 399.078438)scale(0.1 -0.1)">
       <use xlink:href="#DejaVuSans-31"/>
       <use x="63.623047" xlink:href="#DejaVuSans-35"/>
      </g>
     </g>
    </g>
    <g id="xtick_9">
     <g id="line2d_17">
      <path clip-path="url(#peb916c4a8f)" d="M 469.142069 384.48 
L 469.142069 51.84 
" style="fill:none;stroke:#000000;stroke-dasharray:0.8,1.32;stroke-dashoffset:0;stroke-width:0.8;"/>
     </g>
     <g id="line2d_18">
      <g>
       <use style="stroke:#000000;stroke-width:0.8;" x="469.142069" xlink:href="#m2229792e03" y="384.48"/>
      </g>
     </g>
     <g id="text_9">
      <!-- Jul -->
      <g transform="translate(463.109256 399.078438)scale(0.1 -0.1)">
       <defs>
        <path d="M 603 4863 
L 1178 4863 
L 1178 0 
L 603 0 
L 603 4863 
z
" id="DejaVuSans-6c" transform="scale(0.015625)"/>
       </defs>
       <use xlink:href="#DejaVuSans-4a"/>
       <use x="29.492188" xlink:href="#DejaVuSans-75"/>
       <use x="92.871094" xlink:href="#DejaVuSans-6c"/>
      </g>
     </g>
    </g>
    <g id="xtick_10">
     <g id="line2d_19">
      <path clip-path="url(#peb916c4a8f)" d="M 512.242759 384.48 
L 512.242759 51.84 
" style="fill:none;stroke:#000000;stroke-dasharray:0.8,1.32;stroke-dashoffset:0;stroke-width:0.8;"/>
     </g>
     <g id="line2d_20">
      <g>
       <use style="stroke:#000000;stroke-width:0.8;" x="512.242759" xlink:href="#m2229792e03" y="384.48"/>
      </g>
     </g>
     <g id="text_10">
      <!-- 15 -->
      <g transform="translate(505.880259 399.078438)scale(0.1 -0.1)">
       <use xlink:href="#DejaVuSans-31"/>
       <use x="63.623047" xlink:href="#DejaVuSans-35"/>
      </g>
     </g>
    </g>
   </g>
   <g id="matplotlib.axis_2">
    <g id="ytick_1">
     <g id="line2d_21">
      <path clip-path="url(#peb916c4a8f)" d="M 72 384.48 
L 518.4 384.48 
" style="fill:none;stroke:#000000;stroke-dasharray:0.8,1.32;stroke-dashoffset:0;stroke-width:0.8;"/>
     </g>
     <g id="line2d_22">
      <defs>
       <path d="M 0 0 
L -3.5 0 
" id="m3b6e781717" style="stroke:#000000;stroke-width:0.8;"/>
      </defs>
      <g>
       <use style="stroke:#000000;stroke-width:0.8;" x="72" xlink:href="#m3b6e781717" y="384.48"/>
      </g>
     </g>
     <g id="text_11">
      <!-- 0 -->
      <g transform="translate(58.6375 388.279219)scale(0.1 -0.1)">
       <defs>
        <path d="M 2034 4250 
Q 1547 4250 1301 3770 
Q 1056 3291 1056 2328 
Q 1056 1369 1301 889 
Q 1547 409 2034 409 
Q 2525 409 2770 889 
Q 3016 1369 3016 2328 
Q 3016 3291 2770 3770 
Q 2525 4250 2034 4250 
z
M 2034 4750 
Q 2819 4750 3233 4129 
Q 3647 3509 3647 2328 
Q 3647 1150 3233 529 
Q 2819 -91 2034 -91 
Q 1250 -91 836 529 
Q 422 1150 422 2328 
Q 422 3509 836 4129 
Q 1250 4750 2034 4750 
z
" id="DejaVuSans-30" transform="scale(0.015625)"/>
       </defs>
       <use xlink:href="#DejaVuSans-30"/>
      </g>
     </g>
    </g>
    <g id="ytick_2">
     <g id="line2d_23">
      <path clip-path="url(#peb916c4a8f)" d="M 72 351.216 
L 518.4 351.216 
" style="fill:none;stroke:#000000;stroke-dasharray:0.8,1.32;stroke-dashoffset:0;stroke-width:0.8;"/>
     </g>
     <g id="line2d_24">
      <g>
       <use style="stroke:#000000;stroke-width:0.8;" x="72" xlink:href="#m3b6e781717" y="351.216"/>
      </g>
     </g>
     <g id="text_12">
      <!-- 1 -->
      <g transform="translate(58.6375 355.015219)scale(0.1 -0.1)">
       <use xlink:href="#DejaVuSans-31"/>
      </g>
     </g>
    </g>
    <g id="ytick_3">
     <g id="line2d_25">
      <path clip-path="url(#peb916c4a8f)" d="M 72 317.952 
L 518.4 317.952 
" style="fill:none;stroke:#000000;stroke-dasharray:0.8,1.32;stroke-dashoffset:0;stroke-width:0.8;"/>
     </g>
     <g id="line2d_26">
      <g>
       <use style="stroke:#000000;stroke-width:0.8;" x="72" xlink:href="#m3b6e781717" y="317.952"/>
      </g>
     </g>
     <g id="text_13">
      <!-- 2 -->
      <g transform="translate(58.6375 321.751219)scale(0.1 -0.1)">
       <defs>
        <path d="M 1228 531 
L 3431 531 
L 3431 0 
L 469 0 
L 469 531 
Q 828 903 1448 1529 
Q 2069 2156 2228 2338 
Q 2531 2678 2651 2914 
Q 2772 3150 2772 3378 
Q 2772 3750 2511 3984 
Q 2250 4219 1831 4219 
Q 1534 4219 1204 4116 
Q 875 4013 500 3803 
L 500 4441 
Q 881 4594 1212 4672 
Q 1544 4750 1819 4750 
Q 2544 4750 2975 4387 
Q 3406 4025 3406 3419 
Q 3406 3131 3298 2873 
Q 3191 2616 2906 2266 
Q 2828 2175 2409 1742 
Q 1991 1309 1228 531 
z
" id="DejaVuSans-32" transform="scale(0.015625)"/>
       </defs>
       <use xlink:href="#DejaVuSans-32"/>
      </g>
     </g>
    </g>
    <g id="ytick_4">
     <g id="line2d_27">
      <path clip-path="url(#peb916c4a8f)" d="M 72 284.688 
L 518.4 284.688 
" style="fill:none;stroke:#000000;stroke-dasharray:0.8,1.32;stroke-dashoffset:0;stroke-width:0.8;"/>
     </g>
     <g id="line2d_28">
      <g>
       <use style="stroke:#000000;stroke-width:0.8;" x="72" xlink:href="#m3b6e781717" y="284.688"/>
      </g>
     </g>
     <g id="text_14">
      <!-- 3 -->
      <g transform="translate(58.6375 288.487219)scale(0.1 -0.1)">
       <defs>
        <path d="M 2597 2516 
Q 3050 2419 3304 2112 
Q 3559 1806 3559 1356 
Q 3559 666 3084 287 
Q 2609 -91 1734 -91 
Q 1441 -91 1130 -33 
Q 819 25 488 141 
L 488 750 
Q 750 597 1062 519 
Q 1375 441 1716 441 
Q 2309 441 2620 675 
Q 2931 909 2931 1356 
Q 2931 1769 2642 2001 
Q 2353 2234 1838 2234 
L 1294 2234 
L 1294 2753 
L 1863 2753 
Q 2328 2753 2575 2939 
Q 2822 3125 2822 3475 
Q 2822 3834 2567 4026 
Q 2313 4219 1838 4219 
Q 1578 4219 1281 4162 
Q 984 4106 628 3988 
L 628 4550 
Q 988 4650 1302 4700 
Q 1616 4750 1894 4750 
Q 2613 4750 3031 4423 
Q 3450 4097 3450 3541 
Q 3450 3153 3228 2886 
Q 3006 2619 2597 2516 
z
" id="DejaVuSans-33" transform="scale(0.015625)"/>
       </defs>
       <use xlink:href="#DejaVuSans-33"/>
      </g>
     </g>
    </g>
    <g id="ytick_5">
     <g id="line2d_29">
      <path clip-path="url(#peb916c4a8f)" d="M 72 251.424 
L 518.4 251.424 
" style="fill:none;stroke:#000000;stroke-dasharray:0.8,1.32;stroke-dashoffset:0;stroke-width:0.8;"/>
     </g>
     <g id="line2d_30">
      <g>
       <use style="stroke:#000000;stroke-width:0.8;" x="72" xlink:href="#m3b6e781717" y="251.424"/>
      </g>
     </g>
     <g id="text_15">
      <!-- 4 -->
      <g transform="translate(58.6375 255.223219)scale(0.1 -0.1)">
       <defs>
        <path d="M 2419 4116 
L 825 1625 
L 2419 1625 
L 2419 4116 
z
M 2253 4666 
L 3047 4666 
L 3047 1625 
L 3713 1625 
L 3713 1100 
L 3047 1100 
L 3047 0 
L 2419 0 
L 2419 1100 
L 313 1100 
L 313 1709 
L 2253 4666 
z
" id="DejaVuSans-34" transform="scale(0.015625)"/>
       </defs>
       <use xlink:href="#DejaVuSans-34"/>
      </g>
     </g>
    </g>
    <g id="ytick_6">
     <g id="line2d_31">
      <path clip-path="url(#peb916c4a8f)" d="M 72 218.16 
L 518.4 218.16 
" style="fill:none;stroke:#000000;stroke-dasharray:0.8,1.32;stroke-dashoffset:0;stroke-width:0.8;"/>
     </g>
     <g id="line2d_32">
      <g>
       <use style="stroke:#000000;stroke-width:0.8;" x="72" xlink:href="#m3b6e781717" y="218.16"/>
      </g>
     </g>
     <g id="text_16">
      <!-- 5 -->
      <g transform="translate(58.6375 221.959219)scale(0.1 -0.1)">
       <use xlink:href="#DejaVuSans-35"/>
      </g>
     </g>
    </g>
    <g id="ytick_7">
     <g id="line2d_33">
      <path clip-path="url(#peb916c4a8f)" d="M 72 184.896 
L 518.4 184.896 
" style="fill:none;stroke:#000000;stroke-dasharray:0.8,1.32;stroke-dashoffset:0;stroke-width:0.8;"/>
     </g>
     <g id="line2d_34">
      <g>
       <use style="stroke:#000000;stroke-width:0.8;" x="72" xlink:href="#m3b6e781717" y="184.896"/>
      </g>
     </g>
     <g id="text_17">
      <!-- 6 -->
      <g transform="translate(58.6375 188.695219)scale(0.1 -0.1)">
       <defs>
        <path d="M 2113 2584 
Q 1688 2584 1439 2293 
Q 1191 2003 1191 1497 
Q 1191 994 1439 701 
Q 1688 409 2113 409 
Q 2538 409 2786 701 
Q 3034 994 3034 1497 
Q 3034 2003 2786 2293 
Q 2538 2584 2113 2584 
z
M 3366 4563 
L 3366 3988 
Q 3128 4100 2886 4159 
Q 2644 4219 2406 4219 
Q 1781 4219 1451 3797 
Q 1122 3375 1075 2522 
Q 1259 2794 1537 2939 
Q 1816 3084 2150 3084 
Q 2853 3084 3261 2657 
Q 3669 2231 3669 1497 
Q 3669 778 3244 343 
Q 2819 -91 2113 -91 
Q 1303 -91 875 529 
Q 447 1150 447 2328 
Q 447 3434 972 4092 
Q 1497 4750 2381 4750 
Q 2619 4750 2861 4703 
Q 3103 4656 3366 4563 
z
" id="DejaVuSans-36" transform="scale(0.015625)"/>
       </defs>
       <use xlink:href="#DejaVuSans-36"/>
      </g>
     </g>
    </g>
    <g id="ytick_8">
     <g id="line2d_35">
      <path clip-path="url(#peb916c4a8f)" d="M 72 151.632 
L 518.4 151.632 
" style="fill:none;stroke:#000000;stroke-dasharray:0.8,1.32;stroke-dashoffset:0;stroke-width:0.8;"/>
     </g>
     <g id="line2d_36">
      <g>
       <use style="stroke:#000000;stroke-width:0.8;" x="72" xlink:href="#m3b6e781717" y="151.632"/>
      </g>
     </g>
     <g id="text_18">
      <!-- 7 -->
      <g transform="translate(58.6375 155.431219)scale(0.1 -0.1)">
       <defs>
        <path d="M 525 4666 
L 3525 4666 
L 3525 4397 
L 1831 0 
L 1172 0 
L 2766 4134 
L 525 4134 
L 525 4666 
z
" id="DejaVuSans-37" transform="scale(0.015625)"/>
       </defs>
       <use xlink:href="#DejaVuSans-37"/>
      </g>
     </g>
    </g>
    <g id="ytick_9">
     <g id="line2d_37">
      <path clip-path="url(#peb916c4a8f)" d="M 72 118.368 
L 518.4 118.368 
" style="fill:none;stroke:#000000;stroke-dasharray:0.8,1.32;stroke-dashoffset:0;stroke-width:0.8;"/>
     </g>
     <g id="line2d_38">
      <g>
       <use style="stroke:#000000;stroke-width:0.8;" x="72" xlink:href="#m3b6e781717" y="118.368"/>
      </g>
     </g>
     <g id="text_19">
      <!-- 8 -->
      <g transform="translate(58.6375 122.167219)scale(0.1 -0.1)">
       <defs>
        <path d="M 2034 2216 
Q 1584 2216 1326 1975 
Q 1069 1734 1069 1313 
Q 1069 891 1326 650 
Q 1584 409 2034 409 
Q 2484 409 2743 651 
Q 3003 894 3003 1313 
Q 3003 1734 2745 1975 
Q 2488 2216 2034 2216 
z
M 1403 2484 
Q 997 2584 770 2862 
Q 544 3141 544 3541 
Q 544 4100 942 4425 
Q 1341 4750 2034 4750 
Q 2731 4750 3128 4425 
Q 3525 4100 3525 3541 
Q 3525 3141 3298 2862 
Q 3072 2584 2669 2484 
Q 3125 2378 3379 2068 
Q 3634 1759 3634 1313 
Q 3634 634 3220 271 
Q 2806 -91 2034 -91 
Q 1263 -91 848 271 
Q 434 634 434 1313 
Q 434 1759 690 2068 
Q 947 2378 1403 2484 
z
M 1172 3481 
Q 1172 3119 1398 2916 
Q 1625 2713 2034 2713 
Q 2441 2713 2670 2916 
Q 2900 3119 2900 3481 
Q 2900 3844 2670 4047 
Q 2441 4250 2034 4250 
Q 1625 4250 1398 4047 
Q 1172 3844 1172 3481 
z
" id="DejaVuSans-38" transform="scale(0.015625)"/>
       </defs>
       <use xlink:href="#DejaVuSans-38"/>
      </g>
     </g>
    </g>
    <g id="ytick_10">
     <g id="line2d_39">
      <path clip-path="url(#peb916c4a8f)" d="M 72 85.104 
L 518.4 85.104 
" style="fill:none;stroke:#000000;stroke-dasharray:0.8,1.32;stroke-dashoffset:0;stroke-width:0.8;"/>
     </g>
     <g id="line2d_40">
      <g>
       <use style="stroke:#000000;stroke-width:0.8;" x="72" xlink:href="#m3b6e781717" y="85.104"/>
      </g>
     </g>
     <g id="text_20">
      <!-- 9 -->
      <g transform="translate(58.6375 88.903219)scale(0.1 -0.1)">
       <defs>
        <path d="M 703 97 
L 703 672 
Q 941 559 1184 500 
Q 1428 441 1663 441 
Q 2288 441 2617 861 
Q 2947 1281 2994 2138 
Q 2813 1869 2534 1725 
Q 2256 1581 1919 1581 
Q 1219 1581 811 2004 
Q 403 2428 403 3163 
Q 403 3881 828 4315 
Q 1253 4750 1959 4750 
Q 2769 4750 3195 4129 
Q 3622 3509 3622 2328 
Q 3622 1225 3098 567 
Q 2575 -91 1691 -91 
Q 1453 -91 1209 -44 
Q 966 3 703 97 
z
M 1959 2075 
Q 2384 2075 2632 2365 
Q 2881 2656 2881 3163 
Q 2881 3666 2632 3958 
Q 2384 4250 1959 4250 
Q 1534 4250 1286 3958 
Q 1038 3666 1038 3163 
Q 1038 2656 1286 2365 
Q 1534 2075 1959 2075 
z
" id="DejaVuSans-39" transform="scale(0.015625)"/>
       </defs>
       <use xlink:href="#DejaVuSans-39"/>
      </g>
     </g>
    </g>
    <g id="ytick_11">
     <g id="line2d_41">
      <path clip-path="url(#peb916c4a8f)" d="M 72 51.84 
L 518.4 51.84 
" style="fill:none;stroke:#000000;stroke-dasharray:0.8,1.32;stroke-dashoffset:0;stroke-width:0.8;"/>
     </g>
     <g id="line2d_42">
      <g>
       <use style="stroke:#000000;stroke-width:0.8;" x="72" xlink:href="#m3b6e781717" y="51.84"/>
      </g>
     </g>
     <g id="text_21">
      <!-- 10 -->
      <g transform="translate(52.275 55.639219)scale(0.1 -0.1)">
       <use xlink:href="#DejaVuSans-31"/>
       <use x="63.623047" xlink:href="#DejaVuSans-30"/>
      </g>
     </g>
    </g>
    <g id="text_22">
     <!-- Cumulative doses (millions) -->
     <g transform="translate(46.195312 287.556094)rotate(-90)scale(0.1 -0.1)">
      <defs>
       <path d="M 4122 4306 
L 4122 3641 
Q 3803 3938 3442 4084 
Q 3081 4231 2675 4231 
Q 1875 4231 1450 3742 
Q 1025 3253 1025 2328 
Q 1025 1406 1450 917 
Q 1875 428 2675 428 
Q 3081 428 3442 575 
Q 3803 722 4122 1019 
L 4122 359 
Q 3791 134 3420 21 
Q 3050 -91 2638 -91 
Q 1578 -91 968 557 
Q 359 1206 359 2328 
Q 359 3453 968 4101 
Q 1578 4750 2638 4750 
Q 3056 4750 3426 4639 
Q 3797 4528 4122 4306 
z
" id="DejaVuSans-43" transform="scale(0.015625)"/>
       <path d="M 3328 2828 
Q 3544 3216 3844 3400 
Q 4144 3584 4550 3584 
Q 5097 3584 5394 3201 
Q 5691 2819 5691 2113 
L 5691 0 
L 5113 0 
L 5113 2094 
Q 5113 2597 4934 2840 
Q 4756 3084 4391 3084 
Q 3944 3084 3684 2787 
Q 3425 2491 3425 1978 
L 3425 0 
L 2847 0 
L 2847 2094 
Q 2847 2600 2669 2842 
Q 2491 3084 2119 3084 
Q 1678 3084 1418 2786 
Q 1159 2488 1159 1978 
L 1159 0 
L 581 0 
L 581 3500 
L 1159 3500 
L 1159 2956 
Q 1356 3278 1631 3431 
Q 1906 3584 2284 3584 
Q 2666 3584 2933 3390 
Q 3200 3197 3328 2828 
z
" id="DejaVuSans-6d" transform="scale(0.015625)"/>
       <path d="M 1172 4494 
L 1172 3500 
L 2356 3500 
L 2356 3053 
L 1172 3053 
L 1172 1153 
Q 1172 725 1289 603 
Q 1406 481 1766 481 
L 2356 481 
L 2356 0 
L 1766 0 
Q 1100 0 847 248 
Q 594 497 594 1153 
L 594 3053 
L 172 3053 
L 172 3500 
L 594 3500 
L 594 4494 
L 1172 4494 
z
" id="DejaVuSans-74" transform="scale(0.015625)"/>
       <path d="M 603 3500 
L 1178 3500 
L 1178 0 
L 603 0 
L 603 3500 
z
M 603 4863 
L 1178 4863 
L 1178 4134 
L 603 4134 
L 603 4863 
z
" id="DejaVuSans-69" transform="scale(0.015625)"/>
       <path d="M 191 3500 
L 800 3500 
L 1894 563 
L 2988 3500 
L 3597 3500 
L 2284 0 
L 1503 0 
L 191 3500 
z
" id="DejaVuSans-76" transform="scale(0.015625)"/>
       <path d="M 3597 1894 
L 3597 1613 
L 953 1613 
Q 991 1019 1311 708 
Q 1631 397 2203 397 
Q 2534 397 2845 478 
Q 3156 559 3463 722 
L 3463 178 
Q 3153 47 2828 -22 
Q 2503 -91 2169 -91 
Q 1331 -91 842 396 
Q 353 884 353 1716 
Q 353 2575 817 3079 
Q 1281 3584 2069 3584 
Q 2775 3584 3186 3129 
Q 3597 2675 3597 1894 
z
M 3022 2063 
Q 3016 2534 2758 2815 
Q 2500 3097 2075 3097 
Q 1594 3097 1305 2825 
Q 1016 2553 972 2059 
L 3022 2063 
z
" id="DejaVuSans-65" transform="scale(0.015625)"/>
       <path id="DejaVuSans-20" transform="scale(0.015625)"/>
       <path d="M 2906 2969 
L 2906 4863 
L 3481 4863 
L 3481 0 
L 2906 0 
L 2906 525 
Q 2725 213 2448 61 
Q 2172 -91 1784 -91 
Q 1150 -91 751 415 
Q 353 922 353 1747 
Q 353 2572 751 3078 
Q 1150 3584 1784 3584 
Q 2172 3584 2448 3432 
Q 2725 3281 2906 2969 
z
M 947 1747 
Q 947 1113 1208 752 
Q 1469 391 1925 391 
Q 2381 391 2643 752 
Q 2906 1113 2906 1747 
Q 2906 2381 2643 2742 
Q 2381 3103 1925 3103 
Q 1469 3103 1208 2742 
Q 947 2381 947 1747 
z
" id="DejaVuSans-64" transform="scale(0.015625)"/>
       <path d="M 1959 3097 
Q 1497 3097 1228 2736 
Q 959 2375 959 1747 
Q 959 1119 1226 758 
Q 1494 397 1959 397 
Q 2419 397 2687 759 
Q 2956 1122 2956 1747 
Q 2956 2369 2687 2733 
Q 2419 3097 1959 3097 
z
M 1959 3584 
Q 2709 3584 3137 3096 
Q 3566 2609 3566 1747 
Q 3566 888 3137 398 
Q 2709 -91 1959 -91 
Q 1206 -91 779 398 
Q 353 888 353 1747 
Q 353 2609 779 3096 
Q 1206 3584 1959 3584 
z
" id="DejaVuSans-6f" transform="scale(0.015625)"/>
       <path d="M 2834 3397 
L 2834 2853 
Q 2591 2978 2328 3040 
Q 2066 3103 1784 3103 
Q 1356 3103 1142 2972 
Q 928 2841 928 2578 
Q 928 2378 1081 2264 
Q 1234 2150 1697 2047 
L 1894 2003 
Q 2506 1872 2764 1633 
Q 3022 1394 3022 966 
Q 3022 478 2636 193 
Q 2250 -91 1575 -91 
Q 1294 -91 989 -36 
Q 684 19 347 128 
L 347 722 
Q 666 556 975 473 
Q 1284 391 1588 391 
Q 1994 391 2212 530 
Q 2431 669 2431 922 
Q 2431 1156 2273 1281 
Q 2116 1406 1581 1522 
L 1381 1569 
Q 847 1681 609 1914 
Q 372 2147 372 2553 
Q 372 3047 722 3315 
Q 1072 3584 1716 3584 
Q 2034 3584 2315 3537 
Q 2597 3491 2834 3397 
z
" id="DejaVuSans-73" transform="scale(0.015625)"/>
       <path d="M 1984 4856 
Q 1566 4138 1362 3434 
Q 1159 2731 1159 2009 
Q 1159 1288 1364 580 
Q 1569 -128 1984 -844 
L 1484 -844 
Q 1016 -109 783 600 
Q 550 1309 550 2009 
Q 550 2706 781 3412 
Q 1013 4119 1484 4856 
L 1984 4856 
z
" id="DejaVuSans-28" transform="scale(0.015625)"/>
       <path d="M 513 4856 
L 1013 4856 
Q 1481 4119 1714 3412 
Q 1947 2706 1947 2009 
Q 1947 1309 1714 600 
Q 1481 -109 1013 -844 
L 513 -844 
Q 928 -128 1133 580 
Q 1338 1288 1338 2009 
Q 1338 2731 1133 3434 
Q 928 4138 513 4856 
z
" id="DejaVuSans-29" transform="scale(0.015625)"/>
      </defs>
      <use xlink:href="#DejaVuSans-43"/>
      <use x="69.824219" xlink:href="#DejaVuSans-75"/>
      <use x="133.203125" xlink:href="#DejaVuSans-6d"/>
      <use x="230.615234" xlink:href="#DejaVuSans-75"/>
      <use x="293.994141" xlink:href="#DejaVuSans-6c"/>
      <use x="321.777344" xlink:href="#DejaVuSans-61"/>
      <use x="383.056641" xlink:href="#DejaVuSans-74"/>
      <use x="422.265625" xlink:href="#DejaVuSans-69"/>
      <use x="450.048828" xlink:href="#DejaVuSans-76"/>
      <use x="509.228516" xlink:href="#DejaVuSans-65"/>
      <use x="570.751953" xlink:href="#DejaVuSans-20"/>
      <use x="602.539062" xlink:href="#DejaVuSans-64"/>
      <use x="666.015625" xlink:href="#DejaVuSans-6f"/>
      <use x="727.197266" xlink:href="#DejaVuSans-73"/>
      <use x="779.296875" xlink:href="#DejaVuSans-65"/>
      <use x="840.820312" xlink:href="#DejaVuSans-73"/>
      <use x="892.919922" xlink:href="#DejaVuSans-20"/>
      <use x="924.707031" xlink:href="#DejaVuSans-28"/>
      <use x="963.720703" xlink:href="#DejaVuSans-6d"/>
      <use x="1061.132812" xlink:href="#DejaVuSans-69"/>
      <use x="1088.916016" xlink:href="#DejaVuSans-6c"/>
      <use x="1116.699219" xlink:href="#DejaVuSans-6c"/>
      <use x="1144.482422" xlink:href="#DejaVuSans-69"/>
      <use x="1172.265625" xlink:href="#DejaVuSans-6f"/>
      <use x="1233.447266" xlink:href="#DejaVuSans-6e"/>
      <use x="1296.826172" xlink:href="#DejaVuSans-73"/>
      <use x="1348.925781" xlink:href="#DejaVuSans-29"/>
     </g>
    </g>
   </g>
   <g id="patch_3">
    <path d="M 72 384.48 
L 72 51.84 
" style="fill:none;stroke:#000000;stroke-linecap:square;stroke-linejoin:miter;stroke-width:0.8;"/>
   </g>
   <g id="patch_4">
    <path d="M 518.4 384.48 
L 518.4 51.84 
" style="fill:none;stroke:#000000;stroke-linecap:square;stroke-linejoin:miter;stroke-width:0.8;"/>
   </g>
   <g id="patch_5">
    <path d="M 72 384.48 
L 518.4 384.48 
" style="fill:none;stroke:#000000;stroke-linecap:square;stroke-linejoin:miter;stroke-width:0.8;"/>
   </g>
   <g id="patch_6">
    <path d="M 72 51.84 
L 518.4 51.84 
" style="fill:none;stroke:#000000;stroke-linecap:square;stroke-linejoin:miter;stroke-width:0.8;"/>
   </g>
   <g id="text_23">
    <!-- Estimated Pfizer vaccine utilisation: first dose utilisation rate: 78.4% -->
    <g transform="translate(89.73 45.84)scale(0.12 -0.12)">
     <defs>
      <path d="M 628 4666 
L 3578 4666 
L 3578 4134 
L 1259 4134 
L 1259 2753 
L 3481 2753 
L 3481 2222 
L 1259 2222 
L 1259 531 
L 3634 531 
L 3634 0 
L 628 0 
L 628 4666 
z
" id="DejaVuSans-45" transform="scale(0.015625)"/>
      <path d="M 1259 4147 
L 1259 2394 
L 2053 2394 
Q 2494 2394 2734 2622 
Q 2975 2850 2975 3272 
Q 2975 3691 2734 3919 
Q 2494 4147 2053 4147 
L 1259 4147 
z
M 628 4666 
L 2053 4666 
Q 2838 4666 3239 4311 
Q 3641 3956 3641 3272 
Q 3641 2581 3239 2228 
Q 2838 1875 2053 1875 
L 1259 1875 
L 1259 0 
L 628 0 
L 628 4666 
z
" id="DejaVuSans-50" transform="scale(0.015625)"/>
      <path d="M 2375 4863 
L 2375 4384 
L 1825 4384 
Q 1516 4384 1395 4259 
Q 1275 4134 1275 3809 
L 1275 3500 
L 2222 3500 
L 2222 3053 
L 1275 3053 
L 1275 0 
L 697 0 
L 697 3053 
L 147 3053 
L 147 3500 
L 697 3500 
L 697 3744 
Q 697 4328 969 4595 
Q 1241 4863 1831 4863 
L 2375 4863 
z
" id="DejaVuSans-66" transform="scale(0.015625)"/>
      <path d="M 353 3500 
L 3084 3500 
L 3084 2975 
L 922 459 
L 3084 459 
L 3084 0 
L 275 0 
L 275 525 
L 2438 3041 
L 353 3041 
L 353 3500 
z
" id="DejaVuSans-7a" transform="scale(0.015625)"/>
      <path d="M 3122 3366 
L 3122 2828 
Q 2878 2963 2633 3030 
Q 2388 3097 2138 3097 
Q 1578 3097 1268 2742 
Q 959 2388 959 1747 
Q 959 1106 1268 751 
Q 1578 397 2138 397 
Q 2388 397 2633 464 
Q 2878 531 3122 666 
L 3122 134 
Q 2881 22 2623 -34 
Q 2366 -91 2075 -91 
Q 1284 -91 818 406 
Q 353 903 353 1747 
Q 353 2603 823 3093 
Q 1294 3584 2113 3584 
Q 2378 3584 2631 3529 
Q 2884 3475 3122 3366 
z
" id="DejaVuSans-63" transform="scale(0.015625)"/>
      <path d="M 750 794 
L 1409 794 
L 1409 0 
L 750 0 
L 750 794 
z
M 750 3309 
L 1409 3309 
L 1409 2516 
L 750 2516 
L 750 3309 
z
" id="DejaVuSans-3a" transform="scale(0.015625)"/>
      <path d="M 684 794 
L 1344 794 
L 1344 0 
L 684 0 
L 684 794 
z
" id="DejaVuSans-2e" transform="scale(0.015625)"/>
      <path d="M 4653 2053 
Q 4381 2053 4226 1822 
Q 4072 1591 4072 1178 
Q 4072 772 4226 539 
Q 4381 306 4653 306 
Q 4919 306 5073 539 
Q 5228 772 5228 1178 
Q 5228 1588 5073 1820 
Q 4919 2053 4653 2053 
z
M 4653 2450 
Q 5147 2450 5437 2106 
Q 5728 1763 5728 1178 
Q 5728 594 5436 251 
Q 5144 -91 4653 -91 
Q 4153 -91 3862 251 
Q 3572 594 3572 1178 
Q 3572 1766 3864 2108 
Q 4156 2450 4653 2450 
z
M 1428 4353 
Q 1159 4353 1004 4120 
Q 850 3888 850 3481 
Q 850 3069 1003 2837 
Q 1156 2606 1428 2606 
Q 1700 2606 1854 2837 
Q 2009 3069 2009 3481 
Q 2009 3884 1853 4118 
Q 1697 4353 1428 4353 
z
M 4250 4750 
L 4750 4750 
L 1831 -91 
L 1331 -91 
L 4250 4750 
z
M 1428 4750 
Q 1922 4750 2215 4408 
Q 2509 4066 2509 3481 
Q 2509 2891 2217 2550 
Q 1925 2209 1428 2209 
Q 931 2209 642 2551 
Q 353 2894 353 3481 
Q 353 4063 643 4406 
Q 934 4750 1428 4750 
z
" id="DejaVuSans-25" transform="scale(0.015625)"/>
     </defs>
     <use xlink:href="#DejaVuSans-45"/>
     <use x="63.183594" xlink:href="#DejaVuSans-73"/>
     <use x="115.283203" xlink:href="#DejaVuSans-74"/>
     <use x="154.492188" xlink:href="#DejaVuSans-69"/>
     <use x="182.275391" xlink:href="#DejaVuSans-6d"/>
     <use x="279.6875" xlink:href="#DejaVuSans-61"/>
     <use x="340.966797" xlink:href="#DejaVuSans-74"/>
     <use x="380.175781" xlink:href="#DejaVuSans-65"/>
     <use x="441.699219" xlink:href="#DejaVuSans-64"/>
     <use x="505.175781" xlink:href="#DejaVuSans-20"/>
     <use x="536.962891" xlink:href="#DejaVuSans-50"/>
     <use x="597.265625" xlink:href="#DejaVuSans-66"/>
     <use x="632.470703" xlink:href="#DejaVuSans-69"/>
     <use x="660.253906" xlink:href="#DejaVuSans-7a"/>
     <use x="712.744141" xlink:href="#DejaVuSans-65"/>
     <use x="774.267578" xlink:href="#DejaVuSans-72"/>
     <use x="815.380859" xlink:href="#DejaVuSans-20"/>
     <use x="847.167969" xlink:href="#DejaVuSans-76"/>
     <use x="906.347656" xlink:href="#DejaVuSans-61"/>
     <use x="967.626953" xlink:href="#DejaVuSans-63"/>
     <use x="1022.607422" xlink:href="#DejaVuSans-63"/>
     <use x="1077.587891" xlink:href="#DejaVuSans-69"/>
     <use x="1105.371094" xlink:href="#DejaVuSans-6e"/>
     <use x="1168.75" xlink:href="#DejaVuSans-65"/>
     <use x="1230.273438" xlink:href="#DejaVuSans-20"/>
     <use x="1262.060547" xlink:href="#DejaVuSans-75"/>
     <use x="1325.439453" xlink:href="#DejaVuSans-74"/>
     <use x="1364.648438" xlink:href="#DejaVuSans-69"/>
     <use x="1392.431641" xlink:href="#DejaVuSans-6c"/>
     <use x="1420.214844" xlink:href="#DejaVuSans-69"/>
     <use x="1447.998047" xlink:href="#DejaVuSans-73"/>
     <use x="1500.097656" xlink:href="#DejaVuSans-61"/>
     <use x="1561.376953" xlink:href="#DejaVuSans-74"/>
     <use x="1600.585938" xlink:href="#DejaVuSans-69"/>
     <use x="1628.369141" xlink:href="#DejaVuSans-6f"/>
     <use x="1689.550781" xlink:href="#DejaVuSans-6e"/>
     <use x="1752.929688" xlink:href="#DejaVuSans-3a"/>
     <use x="1786.621094" xlink:href="#DejaVuSans-20"/>
     <use x="1818.408203" xlink:href="#DejaVuSans-66"/>
     <use x="1853.613281" xlink:href="#DejaVuSans-69"/>
     <use x="1881.396484" xlink:href="#DejaVuSans-72"/>
     <use x="1922.509766" xlink:href="#DejaVuSans-73"/>
     <use x="1974.609375" xlink:href="#DejaVuSans-74"/>
     <use x="2013.818359" xlink:href="#DejaVuSans-20"/>
     <use x="2045.605469" xlink:href="#DejaVuSans-64"/>
     <use x="2109.082031" xlink:href="#DejaVuSans-6f"/>
     <use x="2170.263672" xlink:href="#DejaVuSans-73"/>
     <use x="2222.363281" xlink:href="#DejaVuSans-65"/>
     <use x="2283.886719" xlink:href="#DejaVuSans-20"/>
     <use x="2315.673828" xlink:href="#DejaVuSans-75"/>
     <use x="2379.052734" xlink:href="#DejaVuSans-74"/>
     <use x="2418.261719" xlink:href="#DejaVuSans-69"/>
     <use x="2446.044922" xlink:href="#DejaVuSans-6c"/>
     <use x="2473.828125" xlink:href="#DejaVuSans-69"/>
     <use x="2501.611328" xlink:href="#DejaVuSans-73"/>
     <use x="2553.710938" xlink:href="#DejaVuSans-61"/>
     <use x="2614.990234" xlink:href="#DejaVuSans-74"/>
     <use x="2654.199219" xlink:href="#DejaVuSans-69"/>
     <use x="2681.982422" xlink:href="#DejaVuSans-6f"/>
     <use x="2743.164062" xlink:href="#DejaVuSans-6e"/>
     <use x="2806.542969" xlink:href="#DejaVuSans-20"/>
     <use x="2838.330078" xlink:href="#DejaVuSans-72"/>
     <use x="2879.443359" xlink:href="#DejaVuSans-61"/>
     <use x="2940.722656" xlink:href="#DejaVuSans-74"/>
     <use x="2979.931641" xlink:href="#DejaVuSans-65"/>
     <use x="3041.455078" xlink:href="#DejaVuSans-3a"/>
     <use x="3075.146484" xlink:href="#DejaVuSans-20"/>
     <use x="3106.933594" xlink:href="#DejaVuSans-37"/>
     <use x="3170.556641" xlink:href="#DejaVuSans-38"/>
     <use x="3234.179688" xlink:href="#DejaVuSans-2e"/>
     <use x="3265.966797" xlink:href="#DejaVuSans-34"/>
     <use x="3329.589844" xlink:href="#DejaVuSans-25"/>
    </g>
   </g>
   <g id="legend_1">
    <g id="patch_7">
     <path d="M 77.831 144.092147 
L 274.18602 144.092147 
Q 275.85202 144.092147 275.85202 142.426147 
L 275.85202 57.671 
Q 275.85202 56.005 274.18602 56.005 
L 77.831 56.005 
Q 76.165 56.005 76.165 57.671 
L 76.165 142.426147 
Q 76.165 144.092147 77.831 144.092147 
z
" style="fill:#ffffff;opacity:0.8;stroke:#cccccc;stroke-linejoin:miter;"/>
    </g>
    <g id="patch_8">
     <path d="M 79.497 65.666498 
L 96.157 65.666498 
L 96.157 59.835498 
L 79.497 59.835498 
z
" style="fill:#d62728;"/>
    </g>
    <g id="text_24">
     <!-- Pfizer reserved for second doses (536k) -->
     <g transform="translate(102.821 65.666498)scale(0.0833 -0.0833)">
      <defs>
       <path d="M 581 4863 
L 1159 4863 
L 1159 1991 
L 2875 3500 
L 3609 3500 
L 1753 1863 
L 3688 0 
L 2938 0 
L 1159 1709 
L 1159 0 
L 581 0 
L 581 4863 
z
" id="DejaVuSans-6b" transform="scale(0.015625)"/>
      </defs>
      <use xlink:href="#DejaVuSans-50"/>
      <use x="60.302734" xlink:href="#DejaVuSans-66"/>
      <use x="95.507812" xlink:href="#DejaVuSans-69"/>
      <use x="123.291016" xlink:href="#DejaVuSans-7a"/>
      <use x="175.78125" xlink:href="#DejaVuSans-65"/>
      <use x="237.304688" xlink:href="#DejaVuSans-72"/>
      <use x="278.417969" xlink:href="#DejaVuSans-20"/>
      <use x="310.205078" xlink:href="#DejaVuSans-72"/>
      <use x="349.068359" xlink:href="#DejaVuSans-65"/>
      <use x="410.591797" xlink:href="#DejaVuSans-73"/>
      <use x="462.691406" xlink:href="#DejaVuSans-65"/>
      <use x="524.214844" xlink:href="#DejaVuSans-72"/>
      <use x="565.328125" xlink:href="#DejaVuSans-76"/>
      <use x="624.507812" xlink:href="#DejaVuSans-65"/>
      <use x="686.03125" xlink:href="#DejaVuSans-64"/>
      <use x="749.507812" xlink:href="#DejaVuSans-20"/>
      <use x="781.294922" xlink:href="#DejaVuSans-66"/>
      <use x="816.5" xlink:href="#DejaVuSans-6f"/>
      <use x="877.681641" xlink:href="#DejaVuSans-72"/>
      <use x="918.794922" xlink:href="#DejaVuSans-20"/>
      <use x="950.582031" xlink:href="#DejaVuSans-73"/>
      <use x="1002.681641" xlink:href="#DejaVuSans-65"/>
      <use x="1064.205078" xlink:href="#DejaVuSans-63"/>
      <use x="1119.185547" xlink:href="#DejaVuSans-6f"/>
      <use x="1180.367188" xlink:href="#DejaVuSans-6e"/>
      <use x="1243.746094" xlink:href="#DejaVuSans-64"/>
      <use x="1307.222656" xlink:href="#DejaVuSans-20"/>
      <use x="1339.009766" xlink:href="#DejaVuSans-64"/>
      <use x="1402.486328" xlink:href="#DejaVuSans-6f"/>
      <use x="1463.667969" xlink:href="#DejaVuSans-73"/>
      <use x="1515.767578" xlink:href="#DejaVuSans-65"/>
      <use x="1577.291016" xlink:href="#DejaVuSans-73"/>
      <use x="1629.390625" xlink:href="#DejaVuSans-20"/>
      <use x="1661.177734" xlink:href="#DejaVuSans-28"/>
      <use x="1700.191406" xlink:href="#DejaVuSans-35"/>
      <use x="1763.814453" xlink:href="#DejaVuSans-33"/>
      <use x="1827.4375" xlink:href="#DejaVuSans-36"/>
      <use x="1891.060547" xlink:href="#DejaVuSans-6b"/>
      <use x="1948.970703" xlink:href="#DejaVuSans-29"/>
     </g>
    </g>
    <g id="patch_9">
     <path d="M 79.497 77.893377 
L 96.157 77.893377 
L 96.157 72.062377 
L 79.497 72.062377 
z
" style="fill:#ff7f0e;"/>
    </g>
    <g id="text_25">
     <!-- Pfizer administered second doses (622k) -->
     <g transform="translate(102.821 77.893377)scale(0.0833 -0.0833)">
      <use xlink:href="#DejaVuSans-50"/>
      <use x="60.302734" xlink:href="#DejaVuSans-66"/>
      <use x="95.507812" xlink:href="#DejaVuSans-69"/>
      <use x="123.291016" xlink:href="#DejaVuSans-7a"/>
      <use x="175.78125" xlink:href="#DejaVuSans-65"/>
      <use x="237.304688" xlink:href="#DejaVuSans-72"/>
      <use x="278.417969" xlink:href="#DejaVuSans-20"/>
      <use x="310.205078" xlink:href="#DejaVuSans-61"/>
      <use x="371.484375" xlink:href="#DejaVuSans-64"/>
      <use x="434.960938" xlink:href="#DejaVuSans-6d"/>
      <use x="532.373047" xlink:href="#DejaVuSans-69"/>
      <use x="560.15625" xlink:href="#DejaVuSans-6e"/>
      <use x="623.535156" xlink:href="#DejaVuSans-69"/>
      <use x="651.318359" xlink:href="#DejaVuSans-73"/>
      <use x="703.417969" xlink:href="#DejaVuSans-74"/>
      <use x="742.626953" xlink:href="#DejaVuSans-65"/>
      <use x="804.150391" xlink:href="#DejaVuSans-72"/>
      <use x="843.013672" xlink:href="#DejaVuSans-65"/>
      <use x="904.537109" xlink:href="#DejaVuSans-64"/>
      <use x="968.013672" xlink:href="#DejaVuSans-20"/>
      <use x="999.800781" xlink:href="#DejaVuSans-73"/>
      <use x="1051.900391" xlink:href="#DejaVuSans-65"/>
      <use x="1113.423828" xlink:href="#DejaVuSans-63"/>
      <use x="1168.404297" xlink:href="#DejaVuSans-6f"/>
      <use x="1229.585938" xlink:href="#DejaVuSans-6e"/>
      <use x="1292.964844" xlink:href="#DejaVuSans-64"/>
      <use x="1356.441406" xlink:href="#DejaVuSans-20"/>
      <use x="1388.228516" xlink:href="#DejaVuSans-64"/>
      <use x="1451.705078" xlink:href="#DejaVuSans-6f"/>
      <use x="1512.886719" xlink:href="#DejaVuSans-73"/>
      <use x="1564.986328" xlink:href="#DejaVuSans-65"/>
      <use x="1626.509766" xlink:href="#DejaVuSans-73"/>
      <use x="1678.609375" xlink:href="#DejaVuSans-20"/>
      <use x="1710.396484" xlink:href="#DejaVuSans-28"/>
      <use x="1749.410156" xlink:href="#DejaVuSans-36"/>
      <use x="1813.033203" xlink:href="#DejaVuSans-32"/>
      <use x="1876.65625" xlink:href="#DejaVuSans-32"/>
      <use x="1940.279297" xlink:href="#DejaVuSans-6b"/>
      <use x="1998.189453" xlink:href="#DejaVuSans-29"/>
     </g>
    </g>
    <g id="patch_10">
     <path d="M 79.497 90.120255 
L 96.157 90.120255 
L 96.157 84.289255 
L 79.497 84.289255 
z
" style="fill:#2ca02c;"/>
    </g>
    <g id="text_26">
     <!-- Pfizer available for first doses (250k) -->
     <g transform="translate(102.821 90.120255)scale(0.0833 -0.0833)">
      <defs>
       <path d="M 3116 1747 
Q 3116 2381 2855 2742 
Q 2594 3103 2138 3103 
Q 1681 3103 1420 2742 
Q 1159 2381 1159 1747 
Q 1159 1113 1420 752 
Q 1681 391 2138 391 
Q 2594 391 2855 752 
Q 3116 1113 3116 1747 
z
M 1159 2969 
Q 1341 3281 1617 3432 
Q 1894 3584 2278 3584 
Q 2916 3584 3314 3078 
Q 3713 2572 3713 1747 
Q 3713 922 3314 415 
Q 2916 -91 2278 -91 
Q 1894 -91 1617 61 
Q 1341 213 1159 525 
L 1159 0 
L 581 0 
L 581 4863 
L 1159 4863 
L 1159 2969 
z
" id="DejaVuSans-62" transform="scale(0.015625)"/>
      </defs>
      <use xlink:href="#DejaVuSans-50"/>
      <use x="60.302734" xlink:href="#DejaVuSans-66"/>
      <use x="95.507812" xlink:href="#DejaVuSans-69"/>
      <use x="123.291016" xlink:href="#DejaVuSans-7a"/>
      <use x="175.78125" xlink:href="#DejaVuSans-65"/>
      <use x="237.304688" xlink:href="#DejaVuSans-72"/>
      <use x="278.417969" xlink:href="#DejaVuSans-20"/>
      <use x="310.205078" xlink:href="#DejaVuSans-61"/>
      <use x="371.484375" xlink:href="#DejaVuSans-76"/>
      <use x="430.664062" xlink:href="#DejaVuSans-61"/>
      <use x="491.943359" xlink:href="#DejaVuSans-69"/>
      <use x="519.726562" xlink:href="#DejaVuSans-6c"/>
      <use x="547.509766" xlink:href="#DejaVuSans-61"/>
      <use x="608.789062" xlink:href="#DejaVuSans-62"/>
      <use x="672.265625" xlink:href="#DejaVuSans-6c"/>
      <use x="700.048828" xlink:href="#DejaVuSans-65"/>
      <use x="761.572266" xlink:href="#DejaVuSans-20"/>
      <use x="793.359375" xlink:href="#DejaVuSans-66"/>
      <use x="828.564453" xlink:href="#DejaVuSans-6f"/>
      <use x="889.746094" xlink:href="#DejaVuSans-72"/>
      <use x="930.859375" xlink:href="#DejaVuSans-20"/>
      <use x="962.646484" xlink:href="#DejaVuSans-66"/>
      <use x="997.851562" xlink:href="#DejaVuSans-69"/>
      <use x="1025.634766" xlink:href="#DejaVuSans-72"/>
      <use x="1066.748047" xlink:href="#DejaVuSans-73"/>
      <use x="1118.847656" xlink:href="#DejaVuSans-74"/>
      <use x="1158.056641" xlink:href="#DejaVuSans-20"/>
      <use x="1189.84375" xlink:href="#DejaVuSans-64"/>
      <use x="1253.320312" xlink:href="#DejaVuSans-6f"/>
      <use x="1314.501953" xlink:href="#DejaVuSans-73"/>
      <use x="1366.601562" xlink:href="#DejaVuSans-65"/>
      <use x="1428.125" xlink:href="#DejaVuSans-73"/>
      <use x="1480.224609" xlink:href="#DejaVuSans-20"/>
      <use x="1512.011719" xlink:href="#DejaVuSans-28"/>
      <use x="1551.025391" xlink:href="#DejaVuSans-32"/>
      <use x="1614.648438" xlink:href="#DejaVuSans-35"/>
      <use x="1678.271484" xlink:href="#DejaVuSans-30"/>
      <use x="1741.894531" xlink:href="#DejaVuSans-6b"/>
      <use x="1799.804688" xlink:href="#DejaVuSans-29"/>
     </g>
    </g>
    <g id="patch_11">
     <path d="M 79.497 102.347133 
L 96.157 102.347133 
L 96.157 96.516133 
L 79.497 96.516133 
z
" style="fill:#1f77b4;"/>
    </g>
    <g id="text_27">
     <!-- Pfizer administered first doses (908k) -->
     <g transform="translate(102.821 102.347133)scale(0.0833 -0.0833)">
      <use xlink:href="#DejaVuSans-50"/>
      <use x="60.302734" xlink:href="#DejaVuSans-66"/>
      <use x="95.507812" xlink:href="#DejaVuSans-69"/>
      <use x="123.291016" xlink:href="#DejaVuSans-7a"/>
      <use x="175.78125" xlink:href="#DejaVuSans-65"/>
      <use x="237.304688" xlink:href="#DejaVuSans-72"/>
      <use x="278.417969" xlink:href="#DejaVuSans-20"/>
      <use x="310.205078" xlink:href="#DejaVuSans-61"/>
      <use x="371.484375" xlink:href="#DejaVuSans-64"/>
      <use x="434.960938" xlink:href="#DejaVuSans-6d"/>
      <use x="532.373047" xlink:href="#DejaVuSans-69"/>
      <use x="560.15625" xlink:href="#DejaVuSans-6e"/>
      <use x="623.535156" xlink:href="#DejaVuSans-69"/>
      <use x="651.318359" xlink:href="#DejaVuSans-73"/>
      <use x="703.417969" xlink:href="#DejaVuSans-74"/>
      <use x="742.626953" xlink:href="#DejaVuSans-65"/>
      <use x="804.150391" xlink:href="#DejaVuSans-72"/>
      <use x="843.013672" xlink:href="#DejaVuSans-65"/>
      <use x="904.537109" xlink:href="#DejaVuSans-64"/>
      <use x="968.013672" xlink:href="#DejaVuSans-20"/>
      <use x="999.800781" xlink:href="#DejaVuSans-66"/>
      <use x="1035.005859" xlink:href="#DejaVuSans-69"/>
      <use x="1062.789062" xlink:href="#DejaVuSans-72"/>
      <use x="1103.902344" xlink:href="#DejaVuSans-73"/>
      <use x="1156.001953" xlink:href="#DejaVuSans-74"/>
      <use x="1195.210938" xlink:href="#DejaVuSans-20"/>
      <use x="1226.998047" xlink:href="#DejaVuSans-64"/>
      <use x="1290.474609" xlink:href="#DejaVuSans-6f"/>
      <use x="1351.65625" xlink:href="#DejaVuSans-73"/>
      <use x="1403.755859" xlink:href="#DejaVuSans-65"/>
      <use x="1465.279297" xlink:href="#DejaVuSans-73"/>
      <use x="1517.378906" xlink:href="#DejaVuSans-20"/>
      <use x="1549.166016" xlink:href="#DejaVuSans-28"/>
      <use x="1588.179688" xlink:href="#DejaVuSans-39"/>
      <use x="1651.802734" xlink:href="#DejaVuSans-30"/>
      <use x="1715.425781" xlink:href="#DejaVuSans-38"/>
      <use x="1779.048828" xlink:href="#DejaVuSans-6b"/>
      <use x="1836.958984" xlink:href="#DejaVuSans-29"/>
     </g>
    </g>
    <g id="patch_12">
     <path d="M 79.497 114.574011 
L 96.157 114.574011 
L 96.157 108.743011 
L 79.497 108.743011 
z
" style="fill:#ff0000;opacity:0.35;"/>
    </g>
    <g id="text_28">
     <!-- Phase 1a -->
     <g transform="translate(102.821 114.574011)scale(0.0833 -0.0833)">
      <defs>
       <path d="M 3513 2113 
L 3513 0 
L 2938 0 
L 2938 2094 
Q 2938 2591 2744 2837 
Q 2550 3084 2163 3084 
Q 1697 3084 1428 2787 
Q 1159 2491 1159 1978 
L 1159 0 
L 581 0 
L 581 4863 
L 1159 4863 
L 1159 2956 
Q 1366 3272 1645 3428 
Q 1925 3584 2291 3584 
Q 2894 3584 3203 3211 
Q 3513 2838 3513 2113 
z
" id="DejaVuSans-68" transform="scale(0.015625)"/>
      </defs>
      <use xlink:href="#DejaVuSans-50"/>
      <use x="60.302734" xlink:href="#DejaVuSans-68"/>
      <use x="123.681641" xlink:href="#DejaVuSans-61"/>
      <use x="184.960938" xlink:href="#DejaVuSans-73"/>
      <use x="237.060547" xlink:href="#DejaVuSans-65"/>
      <use x="298.583984" xlink:href="#DejaVuSans-20"/>
      <use x="330.371094" xlink:href="#DejaVuSans-31"/>
      <use x="393.994141" xlink:href="#DejaVuSans-61"/>
     </g>
    </g>
    <g id="patch_13">
     <path d="M 79.497 126.800889 
L 96.157 126.800889 
L 96.157 120.969889 
L 79.497 120.969889 
z
" style="fill:#ffa500;opacity:0.35;"/>
    </g>
    <g id="text_29">
     <!-- Phase 1b -->
     <g transform="translate(102.821 126.800889)scale(0.0833 -0.0833)">
      <use xlink:href="#DejaVuSans-50"/>
      <use x="60.302734" xlink:href="#DejaVuSans-68"/>
      <use x="123.681641" xlink:href="#DejaVuSans-61"/>
      <use x="184.960938" xlink:href="#DejaVuSans-73"/>
      <use x="237.060547" xlink:href="#DejaVuSans-65"/>
      <use x="298.583984" xlink:href="#DejaVuSans-20"/>
      <use x="330.371094" xlink:href="#DejaVuSans-31"/>
      <use x="393.994141" xlink:href="#DejaVuSans-62"/>
     </g>
    </g>
    <g id="patch_14">
     <path d="M 79.497 139.027767 
L 96.157 139.027767 
L 96.157 133.196767 
L 79.497 133.196767 
z
" style="fill:#ffff00;opacity:0.35;"/>
    </g>
    <g id="text_30">
     <!-- Phase 2a -->
     <g transform="translate(102.821 139.027767)scale(0.0833 -0.0833)">
      <use xlink:href="#DejaVuSans-50"/>
      <use x="60.302734" xlink:href="#DejaVuSans-68"/>
      <use x="123.681641" xlink:href="#DejaVuSans-61"/>
      <use x="184.960938" xlink:href="#DejaVuSans-73"/>
      <use x="237.060547" xlink:href="#DejaVuSans-65"/>
      <use x="298.583984" xlink:href="#DejaVuSans-20"/>
      <use x="330.371094" xlink:href="#DejaVuSans-32"/>
      <use x="393.994141" xlink:href="#DejaVuSans-61"/>
     </g>
    </g>
   </g>
  </g>
 </g>
 <defs>
  <clipPath id="peb916c4a8f">
   <rect height="332.64" width="446.4" x="72" y="51.84"/>
  </clipPath>
 </defs>
</svg>
