<?xml version="1.0" encoding="utf-8" standalone="no"?>
<!DOCTYPE svg PUBLIC "-//W3C//DTD SVG 1.1//EN"
  "http://www.w3.org/Graphics/SVG/1.1/DTD/svg11.dtd">
<svg height="432pt" version="1.1" viewBox="0 0 576 432" width="576pt" xmlns="http://www.w3.org/2000/svg" xmlns:xlink="http://www.w3.org/1999/xlink">
 <metadata>
  <rdf:RDF xmlns:cc="http://creativecommons.org/ns#" xmlns:dc="http://purl.org/dc/elements/1.1/" xmlns:rdf="http://www.w3.org/1999/02/22-rdf-syntax-ns#">
   <cc:Work>
    <dc:type rdf:resource="http://purl.org/dc/dcmitype/StillImage"/>
    <dc:date>2021-04-19T19:36:30.514348</dc:date>
    <dc:format>image/svg+xml</dc:format>
    <dc:creator>
     <cc:Agent>
      <dc:title>Matplotlib v3.4.1, https://matplotlib.org/</dc:title>
     </cc:Agent>
    </dc:creator>
   </cc:Work>
  </rdf:RDF>
 </metadata>
 <defs>
  <style type="text/css">*{stroke-linecap:butt;stroke-linejoin:round;}</style>
 </defs>
 <g id="figure_1">
  <g id="patch_1">
   <path d="M 0 432 
L 576 432 
L 576 0 
L 0 0 
z
" style="fill:#ffffff;"/>
  </g>
  <g id="axes_1">
   <g id="patch_2">
    <path d="M 72 384.48 
L 518.4 384.48 
L 518.4 51.84 
L 72 51.84 
z
" style="fill:#ffffff;"/>
   </g>
   <g id="PolyCollection_1">
    <defs>
     <path d="M 196.25567 -47.52 
L 67.397938 -47.52 
L 67.397938 -380.16 
L 196.25567 -380.16 
L 196.25567 -380.16 
L 196.25567 -47.52 
z
" id="m7553d1fb0c"/>
    </defs>
    <g clip-path="url(#p4bf6eb72fb)">
     <use style="fill:#ff0000;fill-opacity:0.5;" x="0" xlink:href="#m7553d1fb0c" y="432"/>
    </g>
   </g>
   <g id="PolyCollection_2">
    <defs>
     <path d="M 463.175258 -47.52 
L 196.25567 -47.52 
L 196.25567 -380.16 
L 463.175258 -380.16 
L 463.175258 -380.16 
L 463.175258 -47.52 
z
" id="m243004d41c"/>
    </defs>
    <g clip-path="url(#p4bf6eb72fb)">
     <use style="fill:#ffa500;fill-opacity:0.5;" x="0" xlink:href="#m243004d41c" y="432"/>
    </g>
   </g>
   <g id="PolyCollection_3">
    <defs>
     <path d="M 467.77732 -47.52 
L 463.175258 -47.52 
L 463.175258 -380.16 
L 467.77732 -380.16 
L 467.77732 -380.16 
L 467.77732 -47.52 
z
" id="mae7c2550e7"/>
    </defs>
    <g clip-path="url(#p4bf6eb72fb)">
     <use style="fill:#ffa500;fill-opacity:0.5;" x="0" xlink:href="#mae7c2550e7" y="432"/>
    </g>
   </g>
   <g id="PolyCollection_4">
    <defs>
     <path d="M 472.379381 -47.52 
L 467.77732 -47.52 
L 467.77732 -380.16 
L 472.379381 -380.16 
L 472.379381 -380.16 
L 472.379381 -47.52 
z
" id="mb21be5948e"/>
    </defs>
    <g clip-path="url(#p4bf6eb72fb)">
     <use style="fill:#ffa500;fill-opacity:0.45;" x="0" xlink:href="#mb21be5948e" y="432"/>
    </g>
   </g>
   <g id="PolyCollection_5">
    <defs>
     <path d="M 476.981443 -47.52 
L 472.379381 -47.52 
L 472.379381 -380.16 
L 476.981443 -380.16 
L 476.981443 -380.16 
L 476.981443 -47.52 
z
" id="mcdefa03b73"/>
    </defs>
    <g clip-path="url(#p4bf6eb72fb)">
     <use style="fill:#ffa500;fill-opacity:0.4;" x="0" xlink:href="#mcdefa03b73" y="432"/>
    </g>
   </g>
   <g id="PolyCollection_6">
    <defs>
     <path d="M 481.583505 -47.52 
L 476.981443 -47.52 
L 476.981443 -380.16 
L 481.583505 -380.16 
L 481.583505 -380.16 
L 481.583505 -47.52 
z
" id="mef9849a525"/>
    </defs>
    <g clip-path="url(#p4bf6eb72fb)">
     <use style="fill:#ffa500;fill-opacity:0.35;" x="0" xlink:href="#mef9849a525" y="432"/>
    </g>
   </g>
   <g id="PolyCollection_7">
    <defs>
     <path d="M 486.185567 -47.52 
L 481.583505 -47.52 
L 481.583505 -380.16 
L 486.185567 -380.16 
L 486.185567 -380.16 
L 486.185567 -47.52 
z
" id="m3b7ca80e26"/>
    </defs>
    <g clip-path="url(#p4bf6eb72fb)">
     <use style="fill:#ffa500;fill-opacity:0.3;" x="0" xlink:href="#m3b7ca80e26" y="432"/>
    </g>
   </g>
   <g id="PolyCollection_8">
    <defs>
     <path d="M 490.787629 -47.52 
L 486.185567 -47.52 
L 486.185567 -380.16 
L 490.787629 -380.16 
L 490.787629 -380.16 
L 490.787629 -47.52 
z
" id="me2ca730d0d"/>
    </defs>
    <g clip-path="url(#p4bf6eb72fb)">
     <use style="fill:#ffa500;fill-opacity:0.25;" x="0" xlink:href="#me2ca730d0d" y="432"/>
    </g>
   </g>
   <g id="PolyCollection_9">
    <defs>
     <path d="M 495.389691 -47.52 
L 490.787629 -47.52 
L 490.787629 -380.16 
L 495.389691 -380.16 
L 495.389691 -380.16 
L 495.389691 -47.52 
z
" id="ma46538c160"/>
    </defs>
    <g clip-path="url(#p4bf6eb72fb)">
     <use style="fill:#ffa500;fill-opacity:0.2;" x="0" xlink:href="#ma46538c160" y="432"/>
    </g>
   </g>
   <g id="PolyCollection_10">
    <defs>
     <path d="M 499.991753 -47.52 
L 495.389691 -47.52 
L 495.389691 -380.16 
L 499.991753 -380.16 
L 499.991753 -380.16 
L 499.991753 -47.52 
z
" id="m5d91e96b93"/>
    </defs>
    <g clip-path="url(#p4bf6eb72fb)">
     <use style="fill:#ffa500;fill-opacity:0.15;" x="0" xlink:href="#m5d91e96b93" y="432"/>
    </g>
   </g>
   <g id="PolyCollection_11">
    <defs>
     <path d="M 504.593814 -47.52 
L 499.991753 -47.52 
L 499.991753 -380.16 
L 504.593814 -380.16 
L 504.593814 -380.16 
L 504.593814 -47.52 
z
" id="mb1fa04a561"/>
    </defs>
    <g clip-path="url(#p4bf6eb72fb)">
     <use style="fill:#ffa500;fill-opacity:0.1;" x="0" xlink:href="#mb1fa04a561" y="432"/>
    </g>
   </g>
   <g id="PolyCollection_12">
    <defs>
     <path d="M 509.195876 -47.52 
L 504.593814 -47.52 
L 504.593814 -380.16 
L 509.195876 -380.16 
L 509.195876 -380.16 
L 509.195876 -47.52 
z
" id="me60305bcc4"/>
    </defs>
    <g clip-path="url(#p4bf6eb72fb)">
     <use style="fill:#ffa500;fill-opacity:0.05;" x="0" xlink:href="#me60305bcc4" y="432"/>
    </g>
   </g>
   <g id="PolyCollection_13">
    <defs>
     <path d="M 72 -47.521663 
L 72 -47.52 
L 72 -47.52 
L 76.602062 -47.52 
L 76.602062 -47.52 
L 81.204124 -47.52 
L 81.204124 -47.52 
L 85.806186 -47.52 
L 85.806186 -47.52 
L 90.408247 -47.52 
L 90.408247 -47.52 
L 95.010309 -47.52 
L 95.010309 -47.52 
L 99.612371 -47.52 
L 99.612371 -47.52 
L 104.214433 -47.52 
L 104.214433 -47.52 
L 108.816495 -47.52 
L 108.816495 -47.52 
L 113.418557 -47.52 
L 113.418557 -47.52 
L 118.020619 -47.52 
L 118.020619 -47.52 
L 122.62268 -47.52 
L 122.62268 -47.52 
L 127.224742 -47.52 
L 127.224742 -47.52 
L 131.826804 -47.52 
L 131.826804 -47.52 
L 136.428866 -47.52 
L 136.428866 -47.52 
L 141.030928 -47.52 
L 141.030928 -47.52 
L 145.63299 -47.52 
L 145.63299 -47.52 
L 150.235052 -47.52 
L 150.235052 -47.52 
L 154.837113 -47.52 
L 154.837113 -47.52 
L 159.439175 -47.52 
L 159.439175 -47.52 
L 164.041237 -47.52 
L 164.041237 -47.52 
L 168.643299 -47.52 
L 168.643299 -47.52 
L 173.245361 -47.52 
L 173.245361 -47.52 
L 177.847423 -47.52 
L 177.847423 -47.52 
L 182.449485 -47.52 
L 182.449485 -47.52 
L 187.051546 -47.52 
L 187.051546 -47.52 
L 191.653608 -47.52 
L 191.653608 -47.52 
L 196.25567 -47.52 
L 196.25567 -47.52 
L 200.857732 -47.52 
L 200.857732 -47.52 
L 205.459794 -47.52 
L 205.459794 -47.52 
L 210.061856 -47.52 
L 210.061856 -47.52 
L 214.663918 -47.52 
L 214.663918 -47.52 
L 219.265979 -47.52 
L 219.265979 -47.52 
L 223.868041 -47.52 
L 223.868041 -47.52 
L 228.470103 -47.52 
L 228.470103 -47.52 
L 233.072165 -47.52 
L 233.072165 -47.52 
L 237.674227 -47.52 
L 237.674227 -47.52 
L 242.276289 -47.52 
L 242.276289 -47.52 
L 246.878351 -47.52 
L 246.878351 -47.52 
L 251.480412 -47.52 
L 251.480412 -47.52 
L 256.082474 -47.52 
L 256.082474 -47.52 
L 260.684536 -47.52 
L 260.684536 -47.52 
L 265.286598 -47.52 
L 265.286598 -47.52 
L 269.88866 -47.52 
L 269.88866 -47.52 
L 274.490722 -47.52 
L 274.490722 -47.52 
L 279.092784 -47.52 
L 279.092784 -47.52 
L 283.694845 -47.52 
L 283.694845 -47.52 
L 288.296907 -47.52 
L 288.296907 -47.52 
L 292.898969 -47.52 
L 292.898969 -47.52 
L 297.501031 -47.52 
L 297.501031 -47.52 
L 302.103093 -47.52 
L 302.103093 -47.52 
L 306.705155 -47.52 
L 306.705155 -47.52 
L 311.307216 -47.52 
L 311.307216 -47.52 
L 315.909278 -47.52 
L 315.909278 -47.52 
L 320.51134 -47.52 
L 320.51134 -47.52 
L 325.113402 -47.52 
L 325.113402 -47.52 
L 329.715464 -47.52 
L 329.715464 -87.112873 
L 329.715464 -87.112873 
L 325.113402 -87.112873 
L 325.113402 -84.914066 
L 320.51134 -84.914066 
L 320.51134 -84.33494 
L 315.909278 -84.33494 
L 315.909278 -83.638859 
L 311.307216 -83.638859 
L 311.307216 -82.811268 
L 306.705155 -82.811268 
L 306.705155 -81.942069 
L 302.103093 -81.942069 
L 302.103093 -81.09741 
L 297.501031 -81.09741 
L 297.501031 -80.176859 
L 292.898969 -80.176859 
L 292.898969 -80.132973 
L 288.296907 -80.132973 
L 288.296907 -79.627474 
L 283.694845 -79.627474 
L 283.694845 -78.470433 
L 279.092784 -78.470433 
L 279.092784 -76.886913 
L 274.490722 -76.886913 
L 274.490722 -75.484199 
L 269.88866 -75.484199 
L 269.88866 -74.370408 
L 265.286598 -74.370408 
L 265.286598 -74.356249 
L 260.684536 -74.356249 
L 260.684536 -74.363805 
L 256.082474 -74.363805 
L 256.082474 -74.103695 
L 251.480412 -74.103695 
L 251.480412 -74.299489 
L 246.878351 -74.299489 
L 246.878351 -72.78182 
L 242.276289 -72.78182 
L 242.276289 -71.480076 
L 237.674227 -71.480076 
L 237.674227 -70.110563 
L 233.072165 -70.110563 
L 233.072165 -69.060636 
L 228.470103 -69.060636 
L 228.470103 -68.496034 
L 223.868041 -68.496034 
L 223.868041 -68.44517 
L 219.265979 -68.44517 
L 219.265979 -67.068874 
L 214.663918 -67.068874 
L 214.663918 -65.704294 
L 210.061856 -65.704294 
L 210.061856 -64.269559 
L 205.459794 -64.269559 
L 205.459794 -62.974732 
L 200.857732 -62.974732 
L 200.857732 -62.402814 
L 196.25567 -62.402814 
L 196.25567 -61.623268 
L 191.653608 -61.623268 
L 191.653608 -61.580081 
L 187.051546 -61.580081 
L 187.051546 -61.126607 
L 182.449485 -61.126607 
L 182.449485 -60.722539 
L 177.847423 -60.722539 
L 177.847423 -60.053978 
L 173.245361 -60.053978 
L 173.245361 -59.094424 
L 168.643299 -59.094424 
L 168.643299 -58.263663 
L 164.041237 -58.263663 
L 164.041237 -58.139585 
L 159.439175 -58.139585 
L 159.439175 -57.956724 
L 154.837113 -57.956724 
L 154.837113 -56.77047 
L 150.235052 -56.77047 
L 150.235052 -56.275049 
L 145.63299 -56.275049 
L 145.63299 -55.353153 
L 141.030928 -55.353153 
L 141.030928 -54.799427 
L 136.428866 -54.799427 
L 136.428866 -54.3807 
L 131.826804 -54.3807 
L 131.826804 -54.134338 
L 127.224742 -54.134338 
L 127.224742 -53.91833 
L 122.62268 -53.91833 
L 122.62268 -53.49646 
L 118.020619 -53.49646 
L 118.020619 -52.593425 
L 113.418557 -52.593425 
L 113.418557 -51.747854 
L 108.816495 -51.747854 
L 108.816495 -51.004986 
L 104.214433 -51.004986 
L 104.214433 -50.322658 
L 99.612371 -50.322658 
L 99.612371 -50.172305 
L 95.010309 -50.172305 
L 95.010309 -50.0148 
L 90.408247 -50.0148 
L 90.408247 -49.599 
L 85.806186 -49.599 
L 85.806186 -48.9753 
L 81.204124 -48.9753 
L 81.204124 -48.094469 
L 76.602062 -48.094469 
L 76.602062 -47.759418 
L 72 -47.759418 
L 72 -47.521663 
z
" id="m0d8ea80e79"/>
    </defs>
    <g clip-path="url(#p4bf6eb72fb)">
     <use style="fill:#1f77b4;" x="0" xlink:href="#m0d8ea80e79" y="432"/>
    </g>
   </g>
   <g id="PolyCollection_14">
    <defs>
     <path d="M 72 -59.32872 
L 72 -47.521663 
L 72 -47.759418 
L 76.602062 -47.759418 
L 76.602062 -48.094469 
L 81.204124 -48.094469 
L 81.204124 -48.9753 
L 85.806186 -48.9753 
L 85.806186 -49.599 
L 90.408247 -49.599 
L 90.408247 -50.0148 
L 95.010309 -50.0148 
L 95.010309 -50.172305 
L 99.612371 -50.172305 
L 99.612371 -50.322658 
L 104.214433 -50.322658 
L 104.214433 -51.004986 
L 108.816495 -51.004986 
L 108.816495 -51.747854 
L 113.418557 -51.747854 
L 113.418557 -52.593425 
L 118.020619 -52.593425 
L 118.020619 -53.49646 
L 122.62268 -53.49646 
L 122.62268 -53.91833 
L 127.224742 -53.91833 
L 127.224742 -54.134338 
L 131.826804 -54.134338 
L 131.826804 -54.3807 
L 136.428866 -54.3807 
L 136.428866 -54.799427 
L 141.030928 -54.799427 
L 141.030928 -55.353153 
L 145.63299 -55.353153 
L 145.63299 -56.275049 
L 150.235052 -56.275049 
L 150.235052 -56.77047 
L 154.837113 -56.77047 
L 154.837113 -57.956724 
L 159.439175 -57.956724 
L 159.439175 -58.139585 
L 164.041237 -58.139585 
L 164.041237 -58.263663 
L 168.643299 -58.263663 
L 168.643299 -59.094424 
L 173.245361 -59.094424 
L 173.245361 -60.053978 
L 177.847423 -60.053978 
L 177.847423 -60.722539 
L 182.449485 -60.722539 
L 182.449485 -61.126607 
L 187.051546 -61.126607 
L 187.051546 -61.580081 
L 191.653608 -61.580081 
L 191.653608 -61.623268 
L 196.25567 -61.623268 
L 196.25567 -62.402814 
L 200.857732 -62.402814 
L 200.857732 -62.974732 
L 205.459794 -62.974732 
L 205.459794 -64.269559 
L 210.061856 -64.269559 
L 210.061856 -65.704294 
L 214.663918 -65.704294 
L 214.663918 -67.068874 
L 219.265979 -67.068874 
L 219.265979 -68.44517 
L 223.868041 -68.44517 
L 223.868041 -68.496034 
L 228.470103 -68.496034 
L 228.470103 -69.060636 
L 233.072165 -69.060636 
L 233.072165 -70.110563 
L 237.674227 -70.110563 
L 237.674227 -71.480076 
L 242.276289 -71.480076 
L 242.276289 -72.78182 
L 246.878351 -72.78182 
L 246.878351 -74.299489 
L 251.480412 -74.299489 
L 251.480412 -74.103695 
L 256.082474 -74.103695 
L 256.082474 -74.363805 
L 260.684536 -74.363805 
L 260.684536 -74.356249 
L 265.286598 -74.356249 
L 265.286598 -74.370408 
L 269.88866 -74.370408 
L 269.88866 -75.484199 
L 274.490722 -75.484199 
L 274.490722 -76.886913 
L 279.092784 -76.886913 
L 279.092784 -78.470433 
L 283.694845 -78.470433 
L 283.694845 -79.627474 
L 288.296907 -79.627474 
L 288.296907 -80.132973 
L 292.898969 -80.132973 
L 292.898969 -80.176859 
L 297.501031 -80.176859 
L 297.501031 -81.09741 
L 302.103093 -81.09741 
L 302.103093 -81.942069 
L 306.705155 -81.942069 
L 306.705155 -82.811268 
L 311.307216 -82.811268 
L 311.307216 -83.638859 
L 315.909278 -83.638859 
L 315.909278 -84.33494 
L 320.51134 -84.33494 
L 320.51134 -84.914066 
L 325.113402 -84.914066 
L 325.113402 -87.112873 
L 329.715464 -87.112873 
L 329.715464 -102.15612 
L 329.715464 -102.15612 
L 325.113402 -102.15612 
L 325.113402 -102.15612 
L 320.51134 -102.15612 
L 320.51134 -89.59896 
L 315.909278 -89.59896 
L 315.909278 -89.59896 
L 311.307216 -89.59896 
L 311.307216 -89.59896 
L 306.705155 -89.59896 
L 306.705155 -89.59896 
L 302.103093 -89.59896 
L 302.103093 -89.59896 
L 297.501031 -89.59896 
L 297.501031 -89.59896 
L 292.898969 -89.59896 
L 292.898969 -89.59896 
L 288.296907 -89.59896 
L 288.296907 -84.65094 
L 283.694845 -84.65094 
L 283.694845 -84.65094 
L 279.092784 -84.65094 
L 279.092784 -84.65094 
L 274.490722 -84.65094 
L 274.490722 -84.65094 
L 269.88866 -84.65094 
L 269.88866 -84.65094 
L 265.286598 -84.65094 
L 265.286598 -84.65094 
L 260.684536 -84.65094 
L 260.684536 -84.65094 
L 256.082474 -84.65094 
L 256.082474 -84.65094 
L 251.480412 -84.65094 
L 251.480412 -84.65094 
L 246.878351 -84.65094 
L 246.878351 -84.65094 
L 242.276289 -84.65094 
L 242.276289 -84.65094 
L 237.674227 -84.65094 
L 237.674227 -84.65094 
L 233.072165 -84.65094 
L 233.072165 -84.65094 
L 228.470103 -84.65094 
L 228.470103 -84.65094 
L 223.868041 -84.65094 
L 223.868041 -78.03972 
L 219.265979 -78.03972 
L 219.265979 -78.03972 
L 214.663918 -78.03972 
L 214.663918 -78.03972 
L 210.061856 -78.03972 
L 210.061856 -78.03972 
L 205.459794 -78.03972 
L 205.459794 -78.03972 
L 200.857732 -78.03972 
L 200.857732 -78.03972 
L 196.25567 -78.03972 
L 196.25567 -78.03972 
L 191.653608 -78.03972 
L 191.653608 -78.03972 
L 187.051546 -78.03972 
L 187.051546 -78.03972 
L 182.449485 -78.03972 
L 182.449485 -78.03972 
L 177.847423 -78.03972 
L 177.847423 -78.03972 
L 173.245361 -78.03972 
L 173.245361 -78.03972 
L 168.643299 -78.03972 
L 168.643299 -78.03972 
L 164.041237 -78.03972 
L 164.041237 -78.03972 
L 159.439175 -78.03972 
L 159.439175 -71.8443 
L 154.837113 -71.8443 
L 154.837113 -71.8443 
L 150.235052 -71.8443 
L 150.235052 -71.8443 
L 145.63299 -71.8443 
L 145.63299 -71.8443 
L 141.030928 -71.8443 
L 141.030928 -71.8443 
L 136.428866 -71.8443 
L 136.428866 -71.8443 
L 131.826804 -71.8443 
L 131.826804 -71.8443 
L 127.224742 -71.8443 
L 127.224742 -66.231 
L 122.62268 -66.231 
L 122.62268 -66.231 
L 118.020619 -66.231 
L 118.020619 -66.231 
L 113.418557 -66.231 
L 113.418557 -66.231 
L 108.816495 -66.231 
L 108.816495 -66.231 
L 104.214433 -66.231 
L 104.214433 -66.231 
L 99.612371 -66.231 
L 99.612371 -66.231 
L 95.010309 -66.231 
L 95.010309 -59.32872 
L 90.408247 -59.32872 
L 90.408247 -59.32872 
L 85.806186 -59.32872 
L 85.806186 -59.32872 
L 81.204124 -59.32872 
L 81.204124 -59.32872 
L 76.602062 -59.32872 
L 76.602062 -59.32872 
L 72 -59.32872 
L 72 -59.32872 
z
" id="mbc74b0e96e"/>
    </defs>
    <g clip-path="url(#p4bf6eb72fb)">
     <use style="fill:#2ca02c;" x="0" xlink:href="#mbc74b0e96e" y="432"/>
    </g>
   </g>
   <g id="PolyCollection_15">
    <defs>
     <path d="M 72 -59.32872 
L 72 -59.32872 
L 72 -59.32872 
L 76.602062 -59.32872 
L 76.602062 -59.32872 
L 81.204124 -59.32872 
L 81.204124 -59.32872 
L 85.806186 -59.32872 
L 85.806186 -59.32872 
L 90.408247 -59.32872 
L 90.408247 -59.32872 
L 95.010309 -59.32872 
L 95.010309 -66.231 
L 99.612371 -66.231 
L 99.612371 -66.231 
L 104.214433 -66.231 
L 104.214433 -66.231 
L 108.816495 -66.231 
L 108.816495 -66.231 
L 113.418557 -66.231 
L 113.418557 -66.231 
L 118.020619 -66.231 
L 118.020619 -66.231 
L 122.62268 -66.231 
L 122.62268 -66.231 
L 127.224742 -66.231 
L 127.224742 -71.8443 
L 131.826804 -71.8443 
L 131.826804 -71.8443 
L 136.428866 -71.8443 
L 136.428866 -71.8443 
L 141.030928 -71.8443 
L 141.030928 -71.8443 
L 145.63299 -71.8443 
L 145.63299 -71.8443 
L 150.235052 -71.8443 
L 150.235052 -71.8443 
L 154.837113 -71.8443 
L 154.837113 -71.8443 
L 159.439175 -71.8443 
L 159.439175 -78.03972 
L 164.041237 -78.03972 
L 164.041237 -78.03972 
L 168.643299 -78.03972 
L 168.643299 -78.03972 
L 173.245361 -78.03972 
L 173.245361 -78.03972 
L 177.847423 -78.03972 
L 177.847423 -78.03972 
L 182.449485 -78.03972 
L 182.449485 -78.03972 
L 187.051546 -78.03972 
L 187.051546 -78.03972 
L 191.653608 -78.03972 
L 191.653608 -78.03972 
L 196.25567 -78.03972 
L 196.25567 -78.03972 
L 200.857732 -78.03972 
L 200.857732 -78.03972 
L 205.459794 -78.03972 
L 205.459794 -78.03972 
L 210.061856 -78.03972 
L 210.061856 -78.03972 
L 214.663918 -78.03972 
L 214.663918 -78.03972 
L 219.265979 -78.03972 
L 219.265979 -78.03972 
L 223.868041 -78.03972 
L 223.868041 -84.65094 
L 228.470103 -84.65094 
L 228.470103 -84.65094 
L 233.072165 -84.65094 
L 233.072165 -84.65094 
L 237.674227 -84.65094 
L 237.674227 -84.65094 
L 242.276289 -84.65094 
L 242.276289 -84.65094 
L 246.878351 -84.65094 
L 246.878351 -84.65094 
L 251.480412 -84.65094 
L 251.480412 -84.65094 
L 256.082474 -84.65094 
L 256.082474 -84.65094 
L 260.684536 -84.65094 
L 260.684536 -84.65094 
L 265.286598 -84.65094 
L 265.286598 -84.65094 
L 269.88866 -84.65094 
L 269.88866 -84.65094 
L 274.490722 -84.65094 
L 274.490722 -84.65094 
L 279.092784 -84.65094 
L 279.092784 -84.65094 
L 283.694845 -84.65094 
L 283.694845 -84.65094 
L 288.296907 -84.65094 
L 288.296907 -89.59896 
L 292.898969 -89.59896 
L 292.898969 -89.59896 
L 297.501031 -89.59896 
L 297.501031 -89.59896 
L 302.103093 -89.59896 
L 302.103093 -89.59896 
L 306.705155 -89.59896 
L 306.705155 -89.59896 
L 311.307216 -89.59896 
L 311.307216 -89.59896 
L 315.909278 -89.59896 
L 315.909278 -89.59896 
L 320.51134 -89.59896 
L 320.51134 -102.15612 
L 325.113402 -102.15612 
L 325.113402 -102.15612 
L 329.715464 -102.15612 
L 329.715464 -123.696756 
L 329.715464 -123.696756 
L 325.113402 -123.696756 
L 325.113402 -123.132154 
L 320.51134 -123.132154 
L 320.51134 -110.52413 
L 315.909278 -110.52413 
L 315.909278 -109.147834 
L 311.307216 -109.147834 
L 311.307216 -107.783254 
L 306.705155 -107.783254 
L 306.705155 -106.348519 
L 302.103093 -106.348519 
L 302.103093 -105.053692 
L 297.501031 -105.053692 
L 297.501031 -104.481774 
L 292.898969 -104.481774 
L 292.898969 -103.702228 
L 288.296907 -103.702228 
L 288.296907 -98.711021 
L 283.694845 -98.711021 
L 283.694845 -98.257547 
L 279.092784 -98.257547 
L 279.092784 -97.853479 
L 274.490722 -97.853479 
L 274.490722 -97.184918 
L 269.88866 -97.184918 
L 269.88866 -96.225364 
L 265.286598 -96.225364 
L 265.286598 -95.394603 
L 260.684536 -95.394603 
L 260.684536 -95.270525 
L 256.082474 -95.270525 
L 256.082474 -95.087664 
L 251.480412 -95.087664 
L 251.480412 -93.90141 
L 246.878351 -93.90141 
L 246.878351 -93.405989 
L 242.276289 -93.405989 
L 242.276289 -92.484093 
L 237.674227 -92.484093 
L 237.674227 -91.930367 
L 233.072165 -91.930367 
L 233.072165 -91.51164 
L 228.470103 -91.51164 
L 228.470103 -91.265278 
L 223.868041 -91.265278 
L 223.868041 -84.43805 
L 219.265979 -84.43805 
L 219.265979 -84.01618 
L 214.663918 -84.01618 
L 214.663918 -83.113145 
L 210.061856 -83.113145 
L 210.061856 -82.267574 
L 205.459794 -82.267574 
L 205.459794 -81.524706 
L 200.857732 -81.524706 
L 200.857732 -80.842378 
L 196.25567 -80.842378 
L 196.25567 -80.692025 
L 191.653608 -80.692025 
L 191.653608 -80.53452 
L 187.051546 -80.53452 
L 187.051546 -80.11872 
L 182.449485 -80.11872 
L 182.449485 -79.49502 
L 177.847423 -79.49502 
L 177.847423 -78.614189 
L 173.245361 -78.614189 
L 173.245361 -78.279138 
L 168.643299 -78.279138 
L 168.643299 -78.041383 
L 164.041237 -78.041383 
L 164.041237 -78.03972 
L 159.439175 -78.03972 
L 159.439175 -71.8443 
L 154.837113 -71.8443 
L 154.837113 -71.8443 
L 150.235052 -71.8443 
L 150.235052 -71.8443 
L 145.63299 -71.8443 
L 145.63299 -71.8443 
L 141.030928 -71.8443 
L 141.030928 -71.8443 
L 136.428866 -71.8443 
L 136.428866 -71.8443 
L 131.826804 -71.8443 
L 131.826804 -71.8443 
L 127.224742 -71.8443 
L 127.224742 -66.231 
L 122.62268 -66.231 
L 122.62268 -66.231 
L 118.020619 -66.231 
L 118.020619 -66.231 
L 113.418557 -66.231 
L 113.418557 -66.231 
L 108.816495 -66.231 
L 108.816495 -66.231 
L 104.214433 -66.231 
L 104.214433 -66.231 
L 99.612371 -66.231 
L 99.612371 -66.231 
L 95.010309 -66.231 
L 95.010309 -59.32872 
L 90.408247 -59.32872 
L 90.408247 -59.32872 
L 85.806186 -59.32872 
L 85.806186 -59.32872 
L 81.204124 -59.32872 
L 81.204124 -59.32872 
L 76.602062 -59.32872 
L 76.602062 -59.32872 
L 72 -59.32872 
L 72 -59.32872 
z
" id="m0bf49ff157"/>
    </defs>
    <g clip-path="url(#p4bf6eb72fb)">
     <use style="fill:#ff7f0e;" x="0" xlink:href="#m0bf49ff157" y="432"/>
    </g>
   </g>
   <g id="PolyCollection_16">
    <defs>
     <path d="M 72 -59.32872 
L 72 -59.32872 
L 72 -59.32872 
L 76.602062 -59.32872 
L 76.602062 -59.32872 
L 81.204124 -59.32872 
L 81.204124 -59.32872 
L 85.806186 -59.32872 
L 85.806186 -59.32872 
L 90.408247 -59.32872 
L 90.408247 -59.32872 
L 95.010309 -59.32872 
L 95.010309 -66.231 
L 99.612371 -66.231 
L 99.612371 -66.231 
L 104.214433 -66.231 
L 104.214433 -66.231 
L 108.816495 -66.231 
L 108.816495 -66.231 
L 113.418557 -66.231 
L 113.418557 -66.231 
L 118.020619 -66.231 
L 118.020619 -66.231 
L 122.62268 -66.231 
L 122.62268 -66.231 
L 127.224742 -66.231 
L 127.224742 -71.8443 
L 131.826804 -71.8443 
L 131.826804 -71.8443 
L 136.428866 -71.8443 
L 136.428866 -71.8443 
L 141.030928 -71.8443 
L 141.030928 -71.8443 
L 145.63299 -71.8443 
L 145.63299 -71.8443 
L 150.235052 -71.8443 
L 150.235052 -71.8443 
L 154.837113 -71.8443 
L 154.837113 -71.8443 
L 159.439175 -71.8443 
L 159.439175 -78.03972 
L 164.041237 -78.03972 
L 164.041237 -78.041383 
L 168.643299 -78.041383 
L 168.643299 -78.279138 
L 173.245361 -78.279138 
L 173.245361 -78.614189 
L 177.847423 -78.614189 
L 177.847423 -79.49502 
L 182.449485 -79.49502 
L 182.449485 -80.11872 
L 187.051546 -80.11872 
L 187.051546 -80.53452 
L 191.653608 -80.53452 
L 191.653608 -80.692025 
L 196.25567 -80.692025 
L 196.25567 -80.842378 
L 200.857732 -80.842378 
L 200.857732 -81.524706 
L 205.459794 -81.524706 
L 205.459794 -82.267574 
L 210.061856 -82.267574 
L 210.061856 -83.113145 
L 214.663918 -83.113145 
L 214.663918 -84.01618 
L 219.265979 -84.01618 
L 219.265979 -84.43805 
L 223.868041 -84.43805 
L 223.868041 -91.265278 
L 228.470103 -91.265278 
L 228.470103 -91.51164 
L 233.072165 -91.51164 
L 233.072165 -91.930367 
L 237.674227 -91.930367 
L 237.674227 -92.484093 
L 242.276289 -92.484093 
L 242.276289 -93.405989 
L 246.878351 -93.405989 
L 246.878351 -93.90141 
L 251.480412 -93.90141 
L 251.480412 -95.087664 
L 256.082474 -95.087664 
L 256.082474 -95.270525 
L 260.684536 -95.270525 
L 260.684536 -95.394603 
L 265.286598 -95.394603 
L 265.286598 -96.225364 
L 269.88866 -96.225364 
L 269.88866 -97.184918 
L 274.490722 -97.184918 
L 274.490722 -97.853479 
L 279.092784 -97.853479 
L 279.092784 -98.257547 
L 283.694845 -98.257547 
L 283.694845 -98.711021 
L 288.296907 -98.711021 
L 288.296907 -103.702228 
L 292.898969 -103.702228 
L 292.898969 -104.481774 
L 297.501031 -104.481774 
L 297.501031 -105.053692 
L 302.103093 -105.053692 
L 302.103093 -106.348519 
L 306.705155 -106.348519 
L 306.705155 -107.783254 
L 311.307216 -107.783254 
L 311.307216 -109.147834 
L 315.909278 -109.147834 
L 315.909278 -110.52413 
L 320.51134 -110.52413 
L 320.51134 -123.132154 
L 325.113402 -123.132154 
L 325.113402 -123.696756 
L 329.715464 -123.696756 
L 329.715464 -144.98352 
L 329.715464 -144.98352 
L 325.113402 -144.98352 
L 325.113402 -144.98352 
L 320.51134 -144.98352 
L 320.51134 -119.8692 
L 315.909278 -119.8692 
L 315.909278 -119.8692 
L 311.307216 -119.8692 
L 311.307216 -119.8692 
L 306.705155 -119.8692 
L 306.705155 -119.8692 
L 302.103093 -119.8692 
L 302.103093 -119.8692 
L 297.501031 -119.8692 
L 297.501031 -119.8692 
L 292.898969 -119.8692 
L 292.898969 -119.8692 
L 288.296907 -119.8692 
L 288.296907 -109.97316 
L 283.694845 -109.97316 
L 283.694845 -109.97316 
L 279.092784 -109.97316 
L 279.092784 -109.97316 
L 274.490722 -109.97316 
L 274.490722 -109.97316 
L 269.88866 -109.97316 
L 269.88866 -109.97316 
L 265.286598 -109.97316 
L 265.286598 -109.97316 
L 260.684536 -109.97316 
L 260.684536 -109.97316 
L 256.082474 -109.97316 
L 256.082474 -109.97316 
L 251.480412 -109.97316 
L 251.480412 -109.97316 
L 246.878351 -109.97316 
L 246.878351 -109.97316 
L 242.276289 -109.97316 
L 242.276289 -109.97316 
L 237.674227 -109.97316 
L 237.674227 -109.97316 
L 233.072165 -109.97316 
L 233.072165 -109.97316 
L 228.470103 -109.97316 
L 228.470103 -109.97316 
L 223.868041 -109.97316 
L 223.868041 -96.75072 
L 219.265979 -96.75072 
L 219.265979 -96.75072 
L 214.663918 -96.75072 
L 214.663918 -96.75072 
L 210.061856 -96.75072 
L 210.061856 -96.75072 
L 205.459794 -96.75072 
L 205.459794 -96.75072 
L 200.857732 -96.75072 
L 200.857732 -96.75072 
L 196.25567 -96.75072 
L 196.25567 -96.75072 
L 191.653608 -96.75072 
L 191.653608 -96.75072 
L 187.051546 -96.75072 
L 187.051546 -96.75072 
L 182.449485 -96.75072 
L 182.449485 -96.75072 
L 177.847423 -96.75072 
L 177.847423 -96.75072 
L 173.245361 -96.75072 
L 173.245361 -96.75072 
L 168.643299 -96.75072 
L 168.643299 -96.75072 
L 164.041237 -96.75072 
L 164.041237 -96.75072 
L 159.439175 -96.75072 
L 159.439175 -84.35988 
L 154.837113 -84.35988 
L 154.837113 -84.35988 
L 150.235052 -84.35988 
L 150.235052 -84.35988 
L 145.63299 -84.35988 
L 145.63299 -84.35988 
L 141.030928 -84.35988 
L 141.030928 -84.35988 
L 136.428866 -84.35988 
L 136.428866 -84.35988 
L 131.826804 -84.35988 
L 131.826804 -84.35988 
L 127.224742 -84.35988 
L 127.224742 -73.13328 
L 122.62268 -73.13328 
L 122.62268 -73.13328 
L 118.020619 -73.13328 
L 118.020619 -73.13328 
L 113.418557 -73.13328 
L 113.418557 -73.13328 
L 108.816495 -73.13328 
L 108.816495 -73.13328 
L 104.214433 -73.13328 
L 104.214433 -73.13328 
L 99.612371 -73.13328 
L 99.612371 -73.13328 
L 95.010309 -73.13328 
L 95.010309 -59.32872 
L 90.408247 -59.32872 
L 90.408247 -59.32872 
L 85.806186 -59.32872 
L 85.806186 -59.32872 
L 81.204124 -59.32872 
L 81.204124 -59.32872 
L 76.602062 -59.32872 
L 76.602062 -59.32872 
L 72 -59.32872 
L 72 -59.32872 
z
" id="m03569d3334"/>
    </defs>
    <g clip-path="url(#p4bf6eb72fb)">
     <use style="fill:#d62728;" x="0" xlink:href="#m03569d3334" y="432"/>
    </g>
   </g>
   <g id="matplotlib.axis_1">
    <g id="xtick_1">
     <g id="line2d_1">
      <path clip-path="url(#p4bf6eb72fb)" d="M 99.612371 384.48 
L 99.612371 51.84 
" style="fill:none;stroke:#000000;stroke-dasharray:0.8,1.32;stroke-dashoffset:0;stroke-width:0.8;"/>
     </g>
     <g id="line2d_2">
      <defs>
       <path d="M 0 0 
L 0 3.5 
" id="mdbec6e2e0f" style="stroke:#000000;stroke-width:0.8;"/>
      </defs>
      <g>
       <use style="stroke:#000000;stroke-width:0.8;" x="99.612371" xlink:href="#mdbec6e2e0f" y="384.48"/>
      </g>
     </g>
     <g id="text_1">
      <!-- Mar -->
      <g transform="translate(90.178777 399.078438)scale(0.1 -0.1)">
       <defs>
        <path d="M 628 4666 
L 1569 4666 
L 2759 1491 
L 3956 4666 
L 4897 4666 
L 4897 0 
L 4281 0 
L 4281 4097 
L 3078 897 
L 2444 897 
L 1241 4097 
L 1241 0 
L 628 0 
L 628 4666 
z
" id="DejaVuSans-4d" transform="scale(0.015625)"/>
        <path d="M 2194 1759 
Q 1497 1759 1228 1600 
Q 959 1441 959 1056 
Q 959 750 1161 570 
Q 1363 391 1709 391 
Q 2188 391 2477 730 
Q 2766 1069 2766 1631 
L 2766 1759 
L 2194 1759 
z
M 3341 1997 
L 3341 0 
L 2766 0 
L 2766 531 
Q 2569 213 2275 61 
Q 1981 -91 1556 -91 
Q 1019 -91 701 211 
Q 384 513 384 1019 
Q 384 1609 779 1909 
Q 1175 2209 1959 2209 
L 2766 2209 
L 2766 2266 
Q 2766 2663 2505 2880 
Q 2244 3097 1772 3097 
Q 1472 3097 1187 3025 
Q 903 2953 641 2809 
L 641 3341 
Q 956 3463 1253 3523 
Q 1550 3584 1831 3584 
Q 2591 3584 2966 3190 
Q 3341 2797 3341 1997 
z
" id="DejaVuSans-61" transform="scale(0.015625)"/>
        <path d="M 2631 2963 
Q 2534 3019 2420 3045 
Q 2306 3072 2169 3072 
Q 1681 3072 1420 2755 
Q 1159 2438 1159 1844 
L 1159 0 
L 581 0 
L 581 3500 
L 1159 3500 
L 1159 2956 
Q 1341 3275 1631 3429 
Q 1922 3584 2338 3584 
Q 2397 3584 2469 3576 
Q 2541 3569 2628 3553 
L 2631 2963 
z
" id="DejaVuSans-72" transform="scale(0.015625)"/>
       </defs>
       <use xlink:href="#DejaVuSans-4d"/>
       <use x="86.279297" xlink:href="#DejaVuSans-61"/>
       <use x="147.558594" xlink:href="#DejaVuSans-72"/>
      </g>
     </g>
    </g>
    <g id="xtick_2">
     <g id="line2d_3">
      <path clip-path="url(#p4bf6eb72fb)" d="M 242.276289 384.48 
L 242.276289 51.84 
" style="fill:none;stroke:#000000;stroke-dasharray:0.8,1.32;stroke-dashoffset:0;stroke-width:0.8;"/>
     </g>
     <g id="line2d_4">
      <g>
       <use style="stroke:#000000;stroke-width:0.8;" x="242.276289" xlink:href="#mdbec6e2e0f" y="384.48"/>
      </g>
     </g>
     <g id="text_2">
      <!-- Apr -->
      <g transform="translate(233.626289 399.078438)scale(0.1 -0.1)">
       <defs>
        <path d="M 2188 4044 
L 1331 1722 
L 3047 1722 
L 2188 4044 
z
M 1831 4666 
L 2547 4666 
L 4325 0 
L 3669 0 
L 3244 1197 
L 1141 1197 
L 716 0 
L 50 0 
L 1831 4666 
z
" id="DejaVuSans-41" transform="scale(0.015625)"/>
        <path d="M 1159 525 
L 1159 -1331 
L 581 -1331 
L 581 3500 
L 1159 3500 
L 1159 2969 
Q 1341 3281 1617 3432 
Q 1894 3584 2278 3584 
Q 2916 3584 3314 3078 
Q 3713 2572 3713 1747 
Q 3713 922 3314 415 
Q 2916 -91 2278 -91 
Q 1894 -91 1617 61 
Q 1341 213 1159 525 
z
M 3116 1747 
Q 3116 2381 2855 2742 
Q 2594 3103 2138 3103 
Q 1681 3103 1420 2742 
Q 1159 2381 1159 1747 
Q 1159 1113 1420 752 
Q 1681 391 2138 391 
Q 2594 391 2855 752 
Q 3116 1113 3116 1747 
z
" id="DejaVuSans-70" transform="scale(0.015625)"/>
       </defs>
       <use xlink:href="#DejaVuSans-41"/>
       <use x="68.408203" xlink:href="#DejaVuSans-70"/>
       <use x="131.884766" xlink:href="#DejaVuSans-72"/>
      </g>
     </g>
    </g>
    <g id="xtick_3">
     <g id="line2d_5">
      <path clip-path="url(#p4bf6eb72fb)" d="M 380.338144 384.48 
L 380.338144 51.84 
" style="fill:none;stroke:#000000;stroke-dasharray:0.8,1.32;stroke-dashoffset:0;stroke-width:0.8;"/>
     </g>
     <g id="line2d_6">
      <g>
       <use style="stroke:#000000;stroke-width:0.8;" x="380.338144" xlink:href="#mdbec6e2e0f" y="384.48"/>
      </g>
     </g>
     <g id="text_3">
      <!-- May -->
      <g transform="translate(370.000644 399.078438)scale(0.1 -0.1)">
       <defs>
        <path d="M 2059 -325 
Q 1816 -950 1584 -1140 
Q 1353 -1331 966 -1331 
L 506 -1331 
L 506 -850 
L 844 -850 
Q 1081 -850 1212 -737 
Q 1344 -625 1503 -206 
L 1606 56 
L 191 3500 
L 800 3500 
L 1894 763 
L 2988 3500 
L 3597 3500 
L 2059 -325 
z
" id="DejaVuSans-79" transform="scale(0.015625)"/>
       </defs>
       <use xlink:href="#DejaVuSans-4d"/>
       <use x="86.279297" xlink:href="#DejaVuSans-61"/>
       <use x="147.558594" xlink:href="#DejaVuSans-79"/>
      </g>
     </g>
    </g>
   </g>
   <g id="matplotlib.axis_2">
    <g id="ytick_1">
     <g id="line2d_7">
      <path clip-path="url(#p4bf6eb72fb)" d="M 72 384.48 
L 518.4 384.48 
" style="fill:none;stroke:#000000;stroke-dasharray:0.8,1.32;stroke-dashoffset:0;stroke-width:0.8;"/>
     </g>
     <g id="line2d_8">
      <defs>
       <path d="M 0 0 
L -3.5 0 
" id="m895720dfa3" style="stroke:#000000;stroke-width:0.8;"/>
      </defs>
      <g>
       <use style="stroke:#000000;stroke-width:0.8;" x="72" xlink:href="#m895720dfa3" y="384.48"/>
      </g>
     </g>
     <g id="text_4">
      <!-- 0 -->
      <g transform="translate(58.6375 388.279219)scale(0.1 -0.1)">
       <defs>
        <path d="M 2034 4250 
Q 1547 4250 1301 3770 
Q 1056 3291 1056 2328 
Q 1056 1369 1301 889 
Q 1547 409 2034 409 
Q 2525 409 2770 889 
Q 3016 1369 3016 2328 
Q 3016 3291 2770 3770 
Q 2525 4250 2034 4250 
z
M 2034 4750 
Q 2819 4750 3233 4129 
Q 3647 3509 3647 2328 
Q 3647 1150 3233 529 
Q 2819 -91 2034 -91 
Q 1250 -91 836 529 
Q 422 1150 422 2328 
Q 422 3509 836 4129 
Q 1250 4750 2034 4750 
z
" id="DejaVuSans-30" transform="scale(0.015625)"/>
       </defs>
       <use xlink:href="#DejaVuSans-30"/>
      </g>
     </g>
    </g>
    <g id="ytick_2">
     <g id="line2d_9">
      <path clip-path="url(#p4bf6eb72fb)" d="M 72 301.32 
L 518.4 301.32 
" style="fill:none;stroke:#000000;stroke-dasharray:0.8,1.32;stroke-dashoffset:0;stroke-width:0.8;"/>
     </g>
     <g id="line2d_10">
      <g>
       <use style="stroke:#000000;stroke-width:0.8;" x="72" xlink:href="#m895720dfa3" y="301.32"/>
      </g>
     </g>
     <g id="text_5">
      <!-- 1 -->
      <g transform="translate(58.6375 305.119219)scale(0.1 -0.1)">
       <defs>
        <path d="M 794 531 
L 1825 531 
L 1825 4091 
L 703 3866 
L 703 4441 
L 1819 4666 
L 2450 4666 
L 2450 531 
L 3481 531 
L 3481 0 
L 794 0 
L 794 531 
z
" id="DejaVuSans-31" transform="scale(0.015625)"/>
       </defs>
       <use xlink:href="#DejaVuSans-31"/>
      </g>
     </g>
    </g>
    <g id="ytick_3">
     <g id="line2d_11">
      <path clip-path="url(#p4bf6eb72fb)" d="M 72 218.16 
L 518.4 218.16 
" style="fill:none;stroke:#000000;stroke-dasharray:0.8,1.32;stroke-dashoffset:0;stroke-width:0.8;"/>
     </g>
     <g id="line2d_12">
      <g>
       <use style="stroke:#000000;stroke-width:0.8;" x="72" xlink:href="#m895720dfa3" y="218.16"/>
      </g>
     </g>
     <g id="text_6">
      <!-- 2 -->
      <g transform="translate(58.6375 221.959219)scale(0.1 -0.1)">
       <defs>
        <path d="M 1228 531 
L 3431 531 
L 3431 0 
L 469 0 
L 469 531 
Q 828 903 1448 1529 
Q 2069 2156 2228 2338 
Q 2531 2678 2651 2914 
Q 2772 3150 2772 3378 
Q 2772 3750 2511 3984 
Q 2250 4219 1831 4219 
Q 1534 4219 1204 4116 
Q 875 4013 500 3803 
L 500 4441 
Q 881 4594 1212 4672 
Q 1544 4750 1819 4750 
Q 2544 4750 2975 4387 
Q 3406 4025 3406 3419 
Q 3406 3131 3298 2873 
Q 3191 2616 2906 2266 
Q 2828 2175 2409 1742 
Q 1991 1309 1228 531 
z
" id="DejaVuSans-32" transform="scale(0.015625)"/>
       </defs>
       <use xlink:href="#DejaVuSans-32"/>
      </g>
     </g>
    </g>
    <g id="ytick_4">
     <g id="line2d_13">
      <path clip-path="url(#p4bf6eb72fb)" d="M 72 135 
L 518.4 135 
" style="fill:none;stroke:#000000;stroke-dasharray:0.8,1.32;stroke-dashoffset:0;stroke-width:0.8;"/>
     </g>
     <g id="line2d_14">
      <g>
       <use style="stroke:#000000;stroke-width:0.8;" x="72" xlink:href="#m895720dfa3" y="135"/>
      </g>
     </g>
     <g id="text_7">
      <!-- 3 -->
      <g transform="translate(58.6375 138.799219)scale(0.1 -0.1)">
       <defs>
        <path d="M 2597 2516 
Q 3050 2419 3304 2112 
Q 3559 1806 3559 1356 
Q 3559 666 3084 287 
Q 2609 -91 1734 -91 
Q 1441 -91 1130 -33 
Q 819 25 488 141 
L 488 750 
Q 750 597 1062 519 
Q 1375 441 1716 441 
Q 2309 441 2620 675 
Q 2931 909 2931 1356 
Q 2931 1769 2642 2001 
Q 2353 2234 1838 2234 
L 1294 2234 
L 1294 2753 
L 1863 2753 
Q 2328 2753 2575 2939 
Q 2822 3125 2822 3475 
Q 2822 3834 2567 4026 
Q 2313 4219 1838 4219 
Q 1578 4219 1281 4162 
Q 984 4106 628 3988 
L 628 4550 
Q 988 4650 1302 4700 
Q 1616 4750 1894 4750 
Q 2613 4750 3031 4423 
Q 3450 4097 3450 3541 
Q 3450 3153 3228 2886 
Q 3006 2619 2597 2516 
z
" id="DejaVuSans-33" transform="scale(0.015625)"/>
       </defs>
       <use xlink:href="#DejaVuSans-33"/>
      </g>
     </g>
    </g>
    <g id="ytick_5">
     <g id="line2d_15">
      <path clip-path="url(#p4bf6eb72fb)" d="M 72 51.84 
L 518.4 51.84 
" style="fill:none;stroke:#000000;stroke-dasharray:0.8,1.32;stroke-dashoffset:0;stroke-width:0.8;"/>
     </g>
     <g id="line2d_16">
      <g>
       <use style="stroke:#000000;stroke-width:0.8;" x="72" xlink:href="#m895720dfa3" y="51.84"/>
      </g>
     </g>
     <g id="text_8">
      <!-- 4 -->
      <g transform="translate(58.6375 55.639219)scale(0.1 -0.1)">
       <defs>
        <path d="M 2419 4116 
L 825 1625 
L 2419 1625 
L 2419 4116 
z
M 2253 4666 
L 3047 4666 
L 3047 1625 
L 3713 1625 
L 3713 1100 
L 3047 1100 
L 3047 0 
L 2419 0 
L 2419 1100 
L 313 1100 
L 313 1709 
L 2253 4666 
z
" id="DejaVuSans-34" transform="scale(0.015625)"/>
       </defs>
       <use xlink:href="#DejaVuSans-34"/>
      </g>
     </g>
    </g>
    <g id="text_9">
     <!-- Cumulative doses (millions) -->
     <g transform="translate(52.557812 287.556094)rotate(-90)scale(0.1 -0.1)">
      <defs>
       <path d="M 4122 4306 
L 4122 3641 
Q 3803 3938 3442 4084 
Q 3081 4231 2675 4231 
Q 1875 4231 1450 3742 
Q 1025 3253 1025 2328 
Q 1025 1406 1450 917 
Q 1875 428 2675 428 
Q 3081 428 3442 575 
Q 3803 722 4122 1019 
L 4122 359 
Q 3791 134 3420 21 
Q 3050 -91 2638 -91 
Q 1578 -91 968 557 
Q 359 1206 359 2328 
Q 359 3453 968 4101 
Q 1578 4750 2638 4750 
Q 3056 4750 3426 4639 
Q 3797 4528 4122 4306 
z
" id="DejaVuSans-43" transform="scale(0.015625)"/>
       <path d="M 544 1381 
L 544 3500 
L 1119 3500 
L 1119 1403 
Q 1119 906 1312 657 
Q 1506 409 1894 409 
Q 2359 409 2629 706 
Q 2900 1003 2900 1516 
L 2900 3500 
L 3475 3500 
L 3475 0 
L 2900 0 
L 2900 538 
Q 2691 219 2414 64 
Q 2138 -91 1772 -91 
Q 1169 -91 856 284 
Q 544 659 544 1381 
z
M 1991 3584 
L 1991 3584 
z
" id="DejaVuSans-75" transform="scale(0.015625)"/>
       <path d="M 3328 2828 
Q 3544 3216 3844 3400 
Q 4144 3584 4550 3584 
Q 5097 3584 5394 3201 
Q 5691 2819 5691 2113 
L 5691 0 
L 5113 0 
L 5113 2094 
Q 5113 2597 4934 2840 
Q 4756 3084 4391 3084 
Q 3944 3084 3684 2787 
Q 3425 2491 3425 1978 
L 3425 0 
L 2847 0 
L 2847 2094 
Q 2847 2600 2669 2842 
Q 2491 3084 2119 3084 
Q 1678 3084 1418 2786 
Q 1159 2488 1159 1978 
L 1159 0 
L 581 0 
L 581 3500 
L 1159 3500 
L 1159 2956 
Q 1356 3278 1631 3431 
Q 1906 3584 2284 3584 
Q 2666 3584 2933 3390 
Q 3200 3197 3328 2828 
z
" id="DejaVuSans-6d" transform="scale(0.015625)"/>
       <path d="M 603 4863 
L 1178 4863 
L 1178 0 
L 603 0 
L 603 4863 
z
" id="DejaVuSans-6c" transform="scale(0.015625)"/>
       <path d="M 1172 4494 
L 1172 3500 
L 2356 3500 
L 2356 3053 
L 1172 3053 
L 1172 1153 
Q 1172 725 1289 603 
Q 1406 481 1766 481 
L 2356 481 
L 2356 0 
L 1766 0 
Q 1100 0 847 248 
Q 594 497 594 1153 
L 594 3053 
L 172 3053 
L 172 3500 
L 594 3500 
L 594 4494 
L 1172 4494 
z
" id="DejaVuSans-74" transform="scale(0.015625)"/>
       <path d="M 603 3500 
L 1178 3500 
L 1178 0 
L 603 0 
L 603 3500 
z
M 603 4863 
L 1178 4863 
L 1178 4134 
L 603 4134 
L 603 4863 
z
" id="DejaVuSans-69" transform="scale(0.015625)"/>
       <path d="M 191 3500 
L 800 3500 
L 1894 563 
L 2988 3500 
L 3597 3500 
L 2284 0 
L 1503 0 
L 191 3500 
z
" id="DejaVuSans-76" transform="scale(0.015625)"/>
       <path d="M 3597 1894 
L 3597 1613 
L 953 1613 
Q 991 1019 1311 708 
Q 1631 397 2203 397 
Q 2534 397 2845 478 
Q 3156 559 3463 722 
L 3463 178 
Q 3153 47 2828 -22 
Q 2503 -91 2169 -91 
Q 1331 -91 842 396 
Q 353 884 353 1716 
Q 353 2575 817 3079 
Q 1281 3584 2069 3584 
Q 2775 3584 3186 3129 
Q 3597 2675 3597 1894 
z
M 3022 2063 
Q 3016 2534 2758 2815 
Q 2500 3097 2075 3097 
Q 1594 3097 1305 2825 
Q 1016 2553 972 2059 
L 3022 2063 
z
" id="DejaVuSans-65" transform="scale(0.015625)"/>
       <path id="DejaVuSans-20" transform="scale(0.015625)"/>
       <path d="M 2906 2969 
L 2906 4863 
L 3481 4863 
L 3481 0 
L 2906 0 
L 2906 525 
Q 2725 213 2448 61 
Q 2172 -91 1784 -91 
Q 1150 -91 751 415 
Q 353 922 353 1747 
Q 353 2572 751 3078 
Q 1150 3584 1784 3584 
Q 2172 3584 2448 3432 
Q 2725 3281 2906 2969 
z
M 947 1747 
Q 947 1113 1208 752 
Q 1469 391 1925 391 
Q 2381 391 2643 752 
Q 2906 1113 2906 1747 
Q 2906 2381 2643 2742 
Q 2381 3103 1925 3103 
Q 1469 3103 1208 2742 
Q 947 2381 947 1747 
z
" id="DejaVuSans-64" transform="scale(0.015625)"/>
       <path d="M 1959 3097 
Q 1497 3097 1228 2736 
Q 959 2375 959 1747 
Q 959 1119 1226 758 
Q 1494 397 1959 397 
Q 2419 397 2687 759 
Q 2956 1122 2956 1747 
Q 2956 2369 2687 2733 
Q 2419 3097 1959 3097 
z
M 1959 3584 
Q 2709 3584 3137 3096 
Q 3566 2609 3566 1747 
Q 3566 888 3137 398 
Q 2709 -91 1959 -91 
Q 1206 -91 779 398 
Q 353 888 353 1747 
Q 353 2609 779 3096 
Q 1206 3584 1959 3584 
z
" id="DejaVuSans-6f" transform="scale(0.015625)"/>
       <path d="M 2834 3397 
L 2834 2853 
Q 2591 2978 2328 3040 
Q 2066 3103 1784 3103 
Q 1356 3103 1142 2972 
Q 928 2841 928 2578 
Q 928 2378 1081 2264 
Q 1234 2150 1697 2047 
L 1894 2003 
Q 2506 1872 2764 1633 
Q 3022 1394 3022 966 
Q 3022 478 2636 193 
Q 2250 -91 1575 -91 
Q 1294 -91 989 -36 
Q 684 19 347 128 
L 347 722 
Q 666 556 975 473 
Q 1284 391 1588 391 
Q 1994 391 2212 530 
Q 2431 669 2431 922 
Q 2431 1156 2273 1281 
Q 2116 1406 1581 1522 
L 1381 1569 
Q 847 1681 609 1914 
Q 372 2147 372 2553 
Q 372 3047 722 3315 
Q 1072 3584 1716 3584 
Q 2034 3584 2315 3537 
Q 2597 3491 2834 3397 
z
" id="DejaVuSans-73" transform="scale(0.015625)"/>
       <path d="M 1984 4856 
Q 1566 4138 1362 3434 
Q 1159 2731 1159 2009 
Q 1159 1288 1364 580 
Q 1569 -128 1984 -844 
L 1484 -844 
Q 1016 -109 783 600 
Q 550 1309 550 2009 
Q 550 2706 781 3412 
Q 1013 4119 1484 4856 
L 1984 4856 
z
" id="DejaVuSans-28" transform="scale(0.015625)"/>
       <path d="M 3513 2113 
L 3513 0 
L 2938 0 
L 2938 2094 
Q 2938 2591 2744 2837 
Q 2550 3084 2163 3084 
Q 1697 3084 1428 2787 
Q 1159 2491 1159 1978 
L 1159 0 
L 581 0 
L 581 3500 
L 1159 3500 
L 1159 2956 
Q 1366 3272 1645 3428 
Q 1925 3584 2291 3584 
Q 2894 3584 3203 3211 
Q 3513 2838 3513 2113 
z
" id="DejaVuSans-6e" transform="scale(0.015625)"/>
       <path d="M 513 4856 
L 1013 4856 
Q 1481 4119 1714 3412 
Q 1947 2706 1947 2009 
Q 1947 1309 1714 600 
Q 1481 -109 1013 -844 
L 513 -844 
Q 928 -128 1133 580 
Q 1338 1288 1338 2009 
Q 1338 2731 1133 3434 
Q 928 4138 513 4856 
z
" id="DejaVuSans-29" transform="scale(0.015625)"/>
      </defs>
      <use xlink:href="#DejaVuSans-43"/>
      <use x="69.824219" xlink:href="#DejaVuSans-75"/>
      <use x="133.203125" xlink:href="#DejaVuSans-6d"/>
      <use x="230.615234" xlink:href="#DejaVuSans-75"/>
      <use x="293.994141" xlink:href="#DejaVuSans-6c"/>
      <use x="321.777344" xlink:href="#DejaVuSans-61"/>
      <use x="383.056641" xlink:href="#DejaVuSans-74"/>
      <use x="422.265625" xlink:href="#DejaVuSans-69"/>
      <use x="450.048828" xlink:href="#DejaVuSans-76"/>
      <use x="509.228516" xlink:href="#DejaVuSans-65"/>
      <use x="570.751953" xlink:href="#DejaVuSans-20"/>
      <use x="602.539062" xlink:href="#DejaVuSans-64"/>
      <use x="666.015625" xlink:href="#DejaVuSans-6f"/>
      <use x="727.197266" xlink:href="#DejaVuSans-73"/>
      <use x="779.296875" xlink:href="#DejaVuSans-65"/>
      <use x="840.820312" xlink:href="#DejaVuSans-73"/>
      <use x="892.919922" xlink:href="#DejaVuSans-20"/>
      <use x="924.707031" xlink:href="#DejaVuSans-28"/>
      <use x="963.720703" xlink:href="#DejaVuSans-6d"/>
      <use x="1061.132812" xlink:href="#DejaVuSans-69"/>
      <use x="1088.916016" xlink:href="#DejaVuSans-6c"/>
      <use x="1116.699219" xlink:href="#DejaVuSans-6c"/>
      <use x="1144.482422" xlink:href="#DejaVuSans-69"/>
      <use x="1172.265625" xlink:href="#DejaVuSans-6f"/>
      <use x="1233.447266" xlink:href="#DejaVuSans-6e"/>
      <use x="1296.826172" xlink:href="#DejaVuSans-73"/>
      <use x="1348.925781" xlink:href="#DejaVuSans-29"/>
     </g>
    </g>
   </g>
   <g id="patch_3">
    <path d="M 72 384.48 
L 72 51.84 
" style="fill:none;stroke:#000000;stroke-linecap:square;stroke-linejoin:miter;stroke-width:0.8;"/>
   </g>
   <g id="patch_4">
    <path d="M 518.4 384.48 
L 518.4 51.84 
" style="fill:none;stroke:#000000;stroke-linecap:square;stroke-linejoin:miter;stroke-width:0.8;"/>
   </g>
   <g id="patch_5">
    <path d="M 72 384.48 
L 518.4 384.48 
" style="fill:none;stroke:#000000;stroke-linecap:square;stroke-linejoin:miter;stroke-width:0.8;"/>
   </g>
   <g id="patch_6">
    <path d="M 72 51.84 
L 518.4 51.84 
" style="fill:none;stroke:#000000;stroke-linecap:square;stroke-linejoin:miter;stroke-width:0.8;"/>
   </g>
   <g id="text_10">
    <!-- Estimated Pfizer vaccine utilisation: first dose utilisation rate: 72.5% -->
    <g transform="translate(89.73 45.84)scale(0.12 -0.12)">
     <defs>
      <path d="M 628 4666 
L 3578 4666 
L 3578 4134 
L 1259 4134 
L 1259 2753 
L 3481 2753 
L 3481 2222 
L 1259 2222 
L 1259 531 
L 3634 531 
L 3634 0 
L 628 0 
L 628 4666 
z
" id="DejaVuSans-45" transform="scale(0.015625)"/>
      <path d="M 1259 4147 
L 1259 2394 
L 2053 2394 
Q 2494 2394 2734 2622 
Q 2975 2850 2975 3272 
Q 2975 3691 2734 3919 
Q 2494 4147 2053 4147 
L 1259 4147 
z
M 628 4666 
L 2053 4666 
Q 2838 4666 3239 4311 
Q 3641 3956 3641 3272 
Q 3641 2581 3239 2228 
Q 2838 1875 2053 1875 
L 1259 1875 
L 1259 0 
L 628 0 
L 628 4666 
z
" id="DejaVuSans-50" transform="scale(0.015625)"/>
      <path d="M 2375 4863 
L 2375 4384 
L 1825 4384 
Q 1516 4384 1395 4259 
Q 1275 4134 1275 3809 
L 1275 3500 
L 2222 3500 
L 2222 3053 
L 1275 3053 
L 1275 0 
L 697 0 
L 697 3053 
L 147 3053 
L 147 3500 
L 697 3500 
L 697 3744 
Q 697 4328 969 4595 
Q 1241 4863 1831 4863 
L 2375 4863 
z
" id="DejaVuSans-66" transform="scale(0.015625)"/>
      <path d="M 353 3500 
L 3084 3500 
L 3084 2975 
L 922 459 
L 3084 459 
L 3084 0 
L 275 0 
L 275 525 
L 2438 3041 
L 353 3041 
L 353 3500 
z
" id="DejaVuSans-7a" transform="scale(0.015625)"/>
      <path d="M 3122 3366 
L 3122 2828 
Q 2878 2963 2633 3030 
Q 2388 3097 2138 3097 
Q 1578 3097 1268 2742 
Q 959 2388 959 1747 
Q 959 1106 1268 751 
Q 1578 397 2138 397 
Q 2388 397 2633 464 
Q 2878 531 3122 666 
L 3122 134 
Q 2881 22 2623 -34 
Q 2366 -91 2075 -91 
Q 1284 -91 818 406 
Q 353 903 353 1747 
Q 353 2603 823 3093 
Q 1294 3584 2113 3584 
Q 2378 3584 2631 3529 
Q 2884 3475 3122 3366 
z
" id="DejaVuSans-63" transform="scale(0.015625)"/>
      <path d="M 750 794 
L 1409 794 
L 1409 0 
L 750 0 
L 750 794 
z
M 750 3309 
L 1409 3309 
L 1409 2516 
L 750 2516 
L 750 3309 
z
" id="DejaVuSans-3a" transform="scale(0.015625)"/>
      <path d="M 525 4666 
L 3525 4666 
L 3525 4397 
L 1831 0 
L 1172 0 
L 2766 4134 
L 525 4134 
L 525 4666 
z
" id="DejaVuSans-37" transform="scale(0.015625)"/>
      <path d="M 684 794 
L 1344 794 
L 1344 0 
L 684 0 
L 684 794 
z
" id="DejaVuSans-2e" transform="scale(0.015625)"/>
      <path d="M 691 4666 
L 3169 4666 
L 3169 4134 
L 1269 4134 
L 1269 2991 
Q 1406 3038 1543 3061 
Q 1681 3084 1819 3084 
Q 2600 3084 3056 2656 
Q 3513 2228 3513 1497 
Q 3513 744 3044 326 
Q 2575 -91 1722 -91 
Q 1428 -91 1123 -41 
Q 819 9 494 109 
L 494 744 
Q 775 591 1075 516 
Q 1375 441 1709 441 
Q 2250 441 2565 725 
Q 2881 1009 2881 1497 
Q 2881 1984 2565 2268 
Q 2250 2553 1709 2553 
Q 1456 2553 1204 2497 
Q 953 2441 691 2322 
L 691 4666 
z
" id="DejaVuSans-35" transform="scale(0.015625)"/>
      <path d="M 4653 2053 
Q 4381 2053 4226 1822 
Q 4072 1591 4072 1178 
Q 4072 772 4226 539 
Q 4381 306 4653 306 
Q 4919 306 5073 539 
Q 5228 772 5228 1178 
Q 5228 1588 5073 1820 
Q 4919 2053 4653 2053 
z
M 4653 2450 
Q 5147 2450 5437 2106 
Q 5728 1763 5728 1178 
Q 5728 594 5436 251 
Q 5144 -91 4653 -91 
Q 4153 -91 3862 251 
Q 3572 594 3572 1178 
Q 3572 1766 3864 2108 
Q 4156 2450 4653 2450 
z
M 1428 4353 
Q 1159 4353 1004 4120 
Q 850 3888 850 3481 
Q 850 3069 1003 2837 
Q 1156 2606 1428 2606 
Q 1700 2606 1854 2837 
Q 2009 3069 2009 3481 
Q 2009 3884 1853 4118 
Q 1697 4353 1428 4353 
z
M 4250 4750 
L 4750 4750 
L 1831 -91 
L 1331 -91 
L 4250 4750 
z
M 1428 4750 
Q 1922 4750 2215 4408 
Q 2509 4066 2509 3481 
Q 2509 2891 2217 2550 
Q 1925 2209 1428 2209 
Q 931 2209 642 2551 
Q 353 2894 353 3481 
Q 353 4063 643 4406 
Q 934 4750 1428 4750 
z
" id="DejaVuSans-25" transform="scale(0.015625)"/>
     </defs>
     <use xlink:href="#DejaVuSans-45"/>
     <use x="63.183594" xlink:href="#DejaVuSans-73"/>
     <use x="115.283203" xlink:href="#DejaVuSans-74"/>
     <use x="154.492188" xlink:href="#DejaVuSans-69"/>
     <use x="182.275391" xlink:href="#DejaVuSans-6d"/>
     <use x="279.6875" xlink:href="#DejaVuSans-61"/>
     <use x="340.966797" xlink:href="#DejaVuSans-74"/>
     <use x="380.175781" xlink:href="#DejaVuSans-65"/>
     <use x="441.699219" xlink:href="#DejaVuSans-64"/>
     <use x="505.175781" xlink:href="#DejaVuSans-20"/>
     <use x="536.962891" xlink:href="#DejaVuSans-50"/>
     <use x="597.265625" xlink:href="#DejaVuSans-66"/>
     <use x="632.470703" xlink:href="#DejaVuSans-69"/>
     <use x="660.253906" xlink:href="#DejaVuSans-7a"/>
     <use x="712.744141" xlink:href="#DejaVuSans-65"/>
     <use x="774.267578" xlink:href="#DejaVuSans-72"/>
     <use x="815.380859" xlink:href="#DejaVuSans-20"/>
     <use x="847.167969" xlink:href="#DejaVuSans-76"/>
     <use x="906.347656" xlink:href="#DejaVuSans-61"/>
     <use x="967.626953" xlink:href="#DejaVuSans-63"/>
     <use x="1022.607422" xlink:href="#DejaVuSans-63"/>
     <use x="1077.587891" xlink:href="#DejaVuSans-69"/>
     <use x="1105.371094" xlink:href="#DejaVuSans-6e"/>
     <use x="1168.75" xlink:href="#DejaVuSans-65"/>
     <use x="1230.273438" xlink:href="#DejaVuSans-20"/>
     <use x="1262.060547" xlink:href="#DejaVuSans-75"/>
     <use x="1325.439453" xlink:href="#DejaVuSans-74"/>
     <use x="1364.648438" xlink:href="#DejaVuSans-69"/>
     <use x="1392.431641" xlink:href="#DejaVuSans-6c"/>
     <use x="1420.214844" xlink:href="#DejaVuSans-69"/>
     <use x="1447.998047" xlink:href="#DejaVuSans-73"/>
     <use x="1500.097656" xlink:href="#DejaVuSans-61"/>
     <use x="1561.376953" xlink:href="#DejaVuSans-74"/>
     <use x="1600.585938" xlink:href="#DejaVuSans-69"/>
     <use x="1628.369141" xlink:href="#DejaVuSans-6f"/>
     <use x="1689.550781" xlink:href="#DejaVuSans-6e"/>
     <use x="1752.929688" xlink:href="#DejaVuSans-3a"/>
     <use x="1786.621094" xlink:href="#DejaVuSans-20"/>
     <use x="1818.408203" xlink:href="#DejaVuSans-66"/>
     <use x="1853.613281" xlink:href="#DejaVuSans-69"/>
     <use x="1881.396484" xlink:href="#DejaVuSans-72"/>
     <use x="1922.509766" xlink:href="#DejaVuSans-73"/>
     <use x="1974.609375" xlink:href="#DejaVuSans-74"/>
     <use x="2013.818359" xlink:href="#DejaVuSans-20"/>
     <use x="2045.605469" xlink:href="#DejaVuSans-64"/>
     <use x="2109.082031" xlink:href="#DejaVuSans-6f"/>
     <use x="2170.263672" xlink:href="#DejaVuSans-73"/>
     <use x="2222.363281" xlink:href="#DejaVuSans-65"/>
     <use x="2283.886719" xlink:href="#DejaVuSans-20"/>
     <use x="2315.673828" xlink:href="#DejaVuSans-75"/>
     <use x="2379.052734" xlink:href="#DejaVuSans-74"/>
     <use x="2418.261719" xlink:href="#DejaVuSans-69"/>
     <use x="2446.044922" xlink:href="#DejaVuSans-6c"/>
     <use x="2473.828125" xlink:href="#DejaVuSans-69"/>
     <use x="2501.611328" xlink:href="#DejaVuSans-73"/>
     <use x="2553.710938" xlink:href="#DejaVuSans-61"/>
     <use x="2614.990234" xlink:href="#DejaVuSans-74"/>
     <use x="2654.199219" xlink:href="#DejaVuSans-69"/>
     <use x="2681.982422" xlink:href="#DejaVuSans-6f"/>
     <use x="2743.164062" xlink:href="#DejaVuSans-6e"/>
     <use x="2806.542969" xlink:href="#DejaVuSans-20"/>
     <use x="2838.330078" xlink:href="#DejaVuSans-72"/>
     <use x="2879.443359" xlink:href="#DejaVuSans-61"/>
     <use x="2940.722656" xlink:href="#DejaVuSans-74"/>
     <use x="2979.931641" xlink:href="#DejaVuSans-65"/>
     <use x="3041.455078" xlink:href="#DejaVuSans-3a"/>
     <use x="3075.146484" xlink:href="#DejaVuSans-20"/>
     <use x="3106.933594" xlink:href="#DejaVuSans-37"/>
     <use x="3170.556641" xlink:href="#DejaVuSans-32"/>
     <use x="3234.179688" xlink:href="#DejaVuSans-2e"/>
     <use x="3265.966797" xlink:href="#DejaVuSans-35"/>
     <use x="3329.589844" xlink:href="#DejaVuSans-25"/>
    </g>
   </g>
   <g id="legend_1">
    <g id="patch_7">
     <path d="M 79 147.90875 
L 314.720312 147.90875 
Q 316.720312 147.90875 316.720312 145.90875 
L 316.720312 58.84 
Q 316.720312 56.84 314.720312 56.84 
L 79 56.84 
Q 77 56.84 77 58.84 
L 77 145.90875 
Q 77 147.90875 79 147.90875 
z
" style="fill:#ffffff;opacity:0.8;stroke:#cccccc;stroke-linejoin:miter;"/>
    </g>
    <g id="patch_8">
     <path d="M 81 68.438437 
L 101 68.438437 
L 101 61.438437 
L 81 61.438437 
z
" style="fill:#d62728;"/>
    </g>
    <g id="text_11">
     <!-- Pfizer reserved for second doses (256k) -->
     <g transform="translate(109 68.438437)scale(0.1 -0.1)">
      <defs>
       <path d="M 2113 2584 
Q 1688 2584 1439 2293 
Q 1191 2003 1191 1497 
Q 1191 994 1439 701 
Q 1688 409 2113 409 
Q 2538 409 2786 701 
Q 3034 994 3034 1497 
Q 3034 2003 2786 2293 
Q 2538 2584 2113 2584 
z
M 3366 4563 
L 3366 3988 
Q 3128 4100 2886 4159 
Q 2644 4219 2406 4219 
Q 1781 4219 1451 3797 
Q 1122 3375 1075 2522 
Q 1259 2794 1537 2939 
Q 1816 3084 2150 3084 
Q 2853 3084 3261 2657 
Q 3669 2231 3669 1497 
Q 3669 778 3244 343 
Q 2819 -91 2113 -91 
Q 1303 -91 875 529 
Q 447 1150 447 2328 
Q 447 3434 972 4092 
Q 1497 4750 2381 4750 
Q 2619 4750 2861 4703 
Q 3103 4656 3366 4563 
z
" id="DejaVuSans-36" transform="scale(0.015625)"/>
       <path d="M 581 4863 
L 1159 4863 
L 1159 1991 
L 2875 3500 
L 3609 3500 
L 1753 1863 
L 3688 0 
L 2938 0 
L 1159 1709 
L 1159 0 
L 581 0 
L 581 4863 
z
" id="DejaVuSans-6b" transform="scale(0.015625)"/>
      </defs>
      <use xlink:href="#DejaVuSans-50"/>
      <use x="60.302734" xlink:href="#DejaVuSans-66"/>
      <use x="95.507812" xlink:href="#DejaVuSans-69"/>
      <use x="123.291016" xlink:href="#DejaVuSans-7a"/>
      <use x="175.78125" xlink:href="#DejaVuSans-65"/>
      <use x="237.304688" xlink:href="#DejaVuSans-72"/>
      <use x="278.417969" xlink:href="#DejaVuSans-20"/>
      <use x="310.205078" xlink:href="#DejaVuSans-72"/>
      <use x="349.068359" xlink:href="#DejaVuSans-65"/>
      <use x="410.591797" xlink:href="#DejaVuSans-73"/>
      <use x="462.691406" xlink:href="#DejaVuSans-65"/>
      <use x="524.214844" xlink:href="#DejaVuSans-72"/>
      <use x="565.328125" xlink:href="#DejaVuSans-76"/>
      <use x="624.507812" xlink:href="#DejaVuSans-65"/>
      <use x="686.03125" xlink:href="#DejaVuSans-64"/>
      <use x="749.507812" xlink:href="#DejaVuSans-20"/>
      <use x="781.294922" xlink:href="#DejaVuSans-66"/>
      <use x="816.5" xlink:href="#DejaVuSans-6f"/>
      <use x="877.681641" xlink:href="#DejaVuSans-72"/>
      <use x="918.794922" xlink:href="#DejaVuSans-20"/>
      <use x="950.582031" xlink:href="#DejaVuSans-73"/>
      <use x="1002.681641" xlink:href="#DejaVuSans-65"/>
      <use x="1064.205078" xlink:href="#DejaVuSans-63"/>
      <use x="1119.185547" xlink:href="#DejaVuSans-6f"/>
      <use x="1180.367188" xlink:href="#DejaVuSans-6e"/>
      <use x="1243.746094" xlink:href="#DejaVuSans-64"/>
      <use x="1307.222656" xlink:href="#DejaVuSans-20"/>
      <use x="1339.009766" xlink:href="#DejaVuSans-64"/>
      <use x="1402.486328" xlink:href="#DejaVuSans-6f"/>
      <use x="1463.667969" xlink:href="#DejaVuSans-73"/>
      <use x="1515.767578" xlink:href="#DejaVuSans-65"/>
      <use x="1577.291016" xlink:href="#DejaVuSans-73"/>
      <use x="1629.390625" xlink:href="#DejaVuSans-20"/>
      <use x="1661.177734" xlink:href="#DejaVuSans-28"/>
      <use x="1700.191406" xlink:href="#DejaVuSans-32"/>
      <use x="1763.814453" xlink:href="#DejaVuSans-35"/>
      <use x="1827.4375" xlink:href="#DejaVuSans-36"/>
      <use x="1891.060547" xlink:href="#DejaVuSans-6b"/>
      <use x="1948.970703" xlink:href="#DejaVuSans-29"/>
     </g>
    </g>
    <g id="patch_9">
     <path d="M 81 83.116562 
L 101 83.116562 
L 101 76.116562 
L 81 76.116562 
z
" style="fill:#ff7f0e;"/>
    </g>
    <g id="text_12">
     <!-- Pfizer administered second doses (259k) -->
     <g transform="translate(109 83.116562)scale(0.1 -0.1)">
      <defs>
       <path d="M 703 97 
L 703 672 
Q 941 559 1184 500 
Q 1428 441 1663 441 
Q 2288 441 2617 861 
Q 2947 1281 2994 2138 
Q 2813 1869 2534 1725 
Q 2256 1581 1919 1581 
Q 1219 1581 811 2004 
Q 403 2428 403 3163 
Q 403 3881 828 4315 
Q 1253 4750 1959 4750 
Q 2769 4750 3195 4129 
Q 3622 3509 3622 2328 
Q 3622 1225 3098 567 
Q 2575 -91 1691 -91 
Q 1453 -91 1209 -44 
Q 966 3 703 97 
z
M 1959 2075 
Q 2384 2075 2632 2365 
Q 2881 2656 2881 3163 
Q 2881 3666 2632 3958 
Q 2384 4250 1959 4250 
Q 1534 4250 1286 3958 
Q 1038 3666 1038 3163 
Q 1038 2656 1286 2365 
Q 1534 2075 1959 2075 
z
" id="DejaVuSans-39" transform="scale(0.015625)"/>
      </defs>
      <use xlink:href="#DejaVuSans-50"/>
      <use x="60.302734" xlink:href="#DejaVuSans-66"/>
      <use x="95.507812" xlink:href="#DejaVuSans-69"/>
      <use x="123.291016" xlink:href="#DejaVuSans-7a"/>
      <use x="175.78125" xlink:href="#DejaVuSans-65"/>
      <use x="237.304688" xlink:href="#DejaVuSans-72"/>
      <use x="278.417969" xlink:href="#DejaVuSans-20"/>
      <use x="310.205078" xlink:href="#DejaVuSans-61"/>
      <use x="371.484375" xlink:href="#DejaVuSans-64"/>
      <use x="434.960938" xlink:href="#DejaVuSans-6d"/>
      <use x="532.373047" xlink:href="#DejaVuSans-69"/>
      <use x="560.15625" xlink:href="#DejaVuSans-6e"/>
      <use x="623.535156" xlink:href="#DejaVuSans-69"/>
      <use x="651.318359" xlink:href="#DejaVuSans-73"/>
      <use x="703.417969" xlink:href="#DejaVuSans-74"/>
      <use x="742.626953" xlink:href="#DejaVuSans-65"/>
      <use x="804.150391" xlink:href="#DejaVuSans-72"/>
      <use x="843.013672" xlink:href="#DejaVuSans-65"/>
      <use x="904.537109" xlink:href="#DejaVuSans-64"/>
      <use x="968.013672" xlink:href="#DejaVuSans-20"/>
      <use x="999.800781" xlink:href="#DejaVuSans-73"/>
      <use x="1051.900391" xlink:href="#DejaVuSans-65"/>
      <use x="1113.423828" xlink:href="#DejaVuSans-63"/>
      <use x="1168.404297" xlink:href="#DejaVuSans-6f"/>
      <use x="1229.585938" xlink:href="#DejaVuSans-6e"/>
      <use x="1292.964844" xlink:href="#DejaVuSans-64"/>
      <use x="1356.441406" xlink:href="#DejaVuSans-20"/>
      <use x="1388.228516" xlink:href="#DejaVuSans-64"/>
      <use x="1451.705078" xlink:href="#DejaVuSans-6f"/>
      <use x="1512.886719" xlink:href="#DejaVuSans-73"/>
      <use x="1564.986328" xlink:href="#DejaVuSans-65"/>
      <use x="1626.509766" xlink:href="#DejaVuSans-73"/>
      <use x="1678.609375" xlink:href="#DejaVuSans-20"/>
      <use x="1710.396484" xlink:href="#DejaVuSans-28"/>
      <use x="1749.410156" xlink:href="#DejaVuSans-32"/>
      <use x="1813.033203" xlink:href="#DejaVuSans-35"/>
      <use x="1876.65625" xlink:href="#DejaVuSans-39"/>
      <use x="1940.279297" xlink:href="#DejaVuSans-6b"/>
      <use x="1998.189453" xlink:href="#DejaVuSans-29"/>
     </g>
    </g>
    <g id="patch_10">
     <path d="M 81 97.794687 
L 101 97.794687 
L 101 90.794687 
L 81 90.794687 
z
" style="fill:#2ca02c;"/>
    </g>
    <g id="text_13">
     <!-- Pfizer available for first doses (181k) -->
     <g transform="translate(109 97.794687)scale(0.1 -0.1)">
      <defs>
       <path d="M 3116 1747 
Q 3116 2381 2855 2742 
Q 2594 3103 2138 3103 
Q 1681 3103 1420 2742 
Q 1159 2381 1159 1747 
Q 1159 1113 1420 752 
Q 1681 391 2138 391 
Q 2594 391 2855 752 
Q 3116 1113 3116 1747 
z
M 1159 2969 
Q 1341 3281 1617 3432 
Q 1894 3584 2278 3584 
Q 2916 3584 3314 3078 
Q 3713 2572 3713 1747 
Q 3713 922 3314 415 
Q 2916 -91 2278 -91 
Q 1894 -91 1617 61 
Q 1341 213 1159 525 
L 1159 0 
L 581 0 
L 581 4863 
L 1159 4863 
L 1159 2969 
z
" id="DejaVuSans-62" transform="scale(0.015625)"/>
       <path d="M 2034 2216 
Q 1584 2216 1326 1975 
Q 1069 1734 1069 1313 
Q 1069 891 1326 650 
Q 1584 409 2034 409 
Q 2484 409 2743 651 
Q 3003 894 3003 1313 
Q 3003 1734 2745 1975 
Q 2488 2216 2034 2216 
z
M 1403 2484 
Q 997 2584 770 2862 
Q 544 3141 544 3541 
Q 544 4100 942 4425 
Q 1341 4750 2034 4750 
Q 2731 4750 3128 4425 
Q 3525 4100 3525 3541 
Q 3525 3141 3298 2862 
Q 3072 2584 2669 2484 
Q 3125 2378 3379 2068 
Q 3634 1759 3634 1313 
Q 3634 634 3220 271 
Q 2806 -91 2034 -91 
Q 1263 -91 848 271 
Q 434 634 434 1313 
Q 434 1759 690 2068 
Q 947 2378 1403 2484 
z
M 1172 3481 
Q 1172 3119 1398 2916 
Q 1625 2713 2034 2713 
Q 2441 2713 2670 2916 
Q 2900 3119 2900 3481 
Q 2900 3844 2670 4047 
Q 2441 4250 2034 4250 
Q 1625 4250 1398 4047 
Q 1172 3844 1172 3481 
z
" id="DejaVuSans-38" transform="scale(0.015625)"/>
      </defs>
      <use xlink:href="#DejaVuSans-50"/>
      <use x="60.302734" xlink:href="#DejaVuSans-66"/>
      <use x="95.507812" xlink:href="#DejaVuSans-69"/>
      <use x="123.291016" xlink:href="#DejaVuSans-7a"/>
      <use x="175.78125" xlink:href="#DejaVuSans-65"/>
      <use x="237.304688" xlink:href="#DejaVuSans-72"/>
      <use x="278.417969" xlink:href="#DejaVuSans-20"/>
      <use x="310.205078" xlink:href="#DejaVuSans-61"/>
      <use x="371.484375" xlink:href="#DejaVuSans-76"/>
      <use x="430.664062" xlink:href="#DejaVuSans-61"/>
      <use x="491.943359" xlink:href="#DejaVuSans-69"/>
      <use x="519.726562" xlink:href="#DejaVuSans-6c"/>
      <use x="547.509766" xlink:href="#DejaVuSans-61"/>
      <use x="608.789062" xlink:href="#DejaVuSans-62"/>
      <use x="672.265625" xlink:href="#DejaVuSans-6c"/>
      <use x="700.048828" xlink:href="#DejaVuSans-65"/>
      <use x="761.572266" xlink:href="#DejaVuSans-20"/>
      <use x="793.359375" xlink:href="#DejaVuSans-66"/>
      <use x="828.564453" xlink:href="#DejaVuSans-6f"/>
      <use x="889.746094" xlink:href="#DejaVuSans-72"/>
      <use x="930.859375" xlink:href="#DejaVuSans-20"/>
      <use x="962.646484" xlink:href="#DejaVuSans-66"/>
      <use x="997.851562" xlink:href="#DejaVuSans-69"/>
      <use x="1025.634766" xlink:href="#DejaVuSans-72"/>
      <use x="1066.748047" xlink:href="#DejaVuSans-73"/>
      <use x="1118.847656" xlink:href="#DejaVuSans-74"/>
      <use x="1158.056641" xlink:href="#DejaVuSans-20"/>
      <use x="1189.84375" xlink:href="#DejaVuSans-64"/>
      <use x="1253.320312" xlink:href="#DejaVuSans-6f"/>
      <use x="1314.501953" xlink:href="#DejaVuSans-73"/>
      <use x="1366.601562" xlink:href="#DejaVuSans-65"/>
      <use x="1428.125" xlink:href="#DejaVuSans-73"/>
      <use x="1480.224609" xlink:href="#DejaVuSans-20"/>
      <use x="1512.011719" xlink:href="#DejaVuSans-28"/>
      <use x="1551.025391" xlink:href="#DejaVuSans-31"/>
      <use x="1614.648438" xlink:href="#DejaVuSans-38"/>
      <use x="1678.271484" xlink:href="#DejaVuSans-31"/>
      <use x="1741.894531" xlink:href="#DejaVuSans-6b"/>
      <use x="1799.804688" xlink:href="#DejaVuSans-29"/>
     </g>
    </g>
    <g id="patch_11">
     <path d="M 81 112.472812 
L 101 112.472812 
L 101 105.472812 
L 81 105.472812 
z
" style="fill:#1f77b4;"/>
    </g>
    <g id="text_14">
     <!-- Pfizer administered first doses (476k) -->
     <g transform="translate(109 112.472812)scale(0.1 -0.1)">
      <use xlink:href="#DejaVuSans-50"/>
      <use x="60.302734" xlink:href="#DejaVuSans-66"/>
      <use x="95.507812" xlink:href="#DejaVuSans-69"/>
      <use x="123.291016" xlink:href="#DejaVuSans-7a"/>
      <use x="175.78125" xlink:href="#DejaVuSans-65"/>
      <use x="237.304688" xlink:href="#DejaVuSans-72"/>
      <use x="278.417969" xlink:href="#DejaVuSans-20"/>
      <use x="310.205078" xlink:href="#DejaVuSans-61"/>
      <use x="371.484375" xlink:href="#DejaVuSans-64"/>
      <use x="434.960938" xlink:href="#DejaVuSans-6d"/>
      <use x="532.373047" xlink:href="#DejaVuSans-69"/>
      <use x="560.15625" xlink:href="#DejaVuSans-6e"/>
      <use x="623.535156" xlink:href="#DejaVuSans-69"/>
      <use x="651.318359" xlink:href="#DejaVuSans-73"/>
      <use x="703.417969" xlink:href="#DejaVuSans-74"/>
      <use x="742.626953" xlink:href="#DejaVuSans-65"/>
      <use x="804.150391" xlink:href="#DejaVuSans-72"/>
      <use x="843.013672" xlink:href="#DejaVuSans-65"/>
      <use x="904.537109" xlink:href="#DejaVuSans-64"/>
      <use x="968.013672" xlink:href="#DejaVuSans-20"/>
      <use x="999.800781" xlink:href="#DejaVuSans-66"/>
      <use x="1035.005859" xlink:href="#DejaVuSans-69"/>
      <use x="1062.789062" xlink:href="#DejaVuSans-72"/>
      <use x="1103.902344" xlink:href="#DejaVuSans-73"/>
      <use x="1156.001953" xlink:href="#DejaVuSans-74"/>
      <use x="1195.210938" xlink:href="#DejaVuSans-20"/>
      <use x="1226.998047" xlink:href="#DejaVuSans-64"/>
      <use x="1290.474609" xlink:href="#DejaVuSans-6f"/>
      <use x="1351.65625" xlink:href="#DejaVuSans-73"/>
      <use x="1403.755859" xlink:href="#DejaVuSans-65"/>
      <use x="1465.279297" xlink:href="#DejaVuSans-73"/>
      <use x="1517.378906" xlink:href="#DejaVuSans-20"/>
      <use x="1549.166016" xlink:href="#DejaVuSans-28"/>
      <use x="1588.179688" xlink:href="#DejaVuSans-34"/>
      <use x="1651.802734" xlink:href="#DejaVuSans-37"/>
      <use x="1715.425781" xlink:href="#DejaVuSans-36"/>
      <use x="1779.048828" xlink:href="#DejaVuSans-6b"/>
      <use x="1836.958984" xlink:href="#DejaVuSans-29"/>
     </g>
    </g>
    <g id="patch_12">
     <path d="M 81 127.150937 
L 101 127.150937 
L 101 120.150937 
L 81 120.150937 
z
" style="fill:#ff0000;opacity:0.5;"/>
    </g>
    <g id="text_15">
     <!-- Phase 1a -->
     <g transform="translate(109 127.150937)scale(0.1 -0.1)">
      <defs>
       <path d="M 3513 2113 
L 3513 0 
L 2938 0 
L 2938 2094 
Q 2938 2591 2744 2837 
Q 2550 3084 2163 3084 
Q 1697 3084 1428 2787 
Q 1159 2491 1159 1978 
L 1159 0 
L 581 0 
L 581 4863 
L 1159 4863 
L 1159 2956 
Q 1366 3272 1645 3428 
Q 1925 3584 2291 3584 
Q 2894 3584 3203 3211 
Q 3513 2838 3513 2113 
z
" id="DejaVuSans-68" transform="scale(0.015625)"/>
      </defs>
      <use xlink:href="#DejaVuSans-50"/>
      <use x="60.302734" xlink:href="#DejaVuSans-68"/>
      <use x="123.681641" xlink:href="#DejaVuSans-61"/>
      <use x="184.960938" xlink:href="#DejaVuSans-73"/>
      <use x="237.060547" xlink:href="#DejaVuSans-65"/>
      <use x="298.583984" xlink:href="#DejaVuSans-20"/>
      <use x="330.371094" xlink:href="#DejaVuSans-31"/>
      <use x="393.994141" xlink:href="#DejaVuSans-61"/>
     </g>
    </g>
    <g id="patch_13">
     <path d="M 81 141.829062 
L 101 141.829062 
L 101 134.829062 
L 81 134.829062 
z
" style="fill:#ffa500;opacity:0.5;"/>
    </g>
    <g id="text_16">
     <!-- Phase 1b -->
     <g transform="translate(109 141.829062)scale(0.1 -0.1)">
      <use xlink:href="#DejaVuSans-50"/>
      <use x="60.302734" xlink:href="#DejaVuSans-68"/>
      <use x="123.681641" xlink:href="#DejaVuSans-61"/>
      <use x="184.960938" xlink:href="#DejaVuSans-73"/>
      <use x="237.060547" xlink:href="#DejaVuSans-65"/>
      <use x="298.583984" xlink:href="#DejaVuSans-20"/>
      <use x="330.371094" xlink:href="#DejaVuSans-31"/>
      <use x="393.994141" xlink:href="#DejaVuSans-62"/>
     </g>
    </g>
   </g>
  </g>
 </g>
 <defs>
  <clipPath id="p4bf6eb72fb">
   <rect height="332.64" width="446.4" x="72" y="51.84"/>
  </clipPath>
 </defs>
</svg>
