<?xml version="1.0" encoding="utf-8" standalone="no"?>
<!DOCTYPE svg PUBLIC "-//W3C//DTD SVG 1.1//EN"
  "http://www.w3.org/Graphics/SVG/1.1/DTD/svg11.dtd">
<svg height="432pt" version="1.1" viewBox="0 0 576 432" width="576pt" xmlns="http://www.w3.org/2000/svg" xmlns:xlink="http://www.w3.org/1999/xlink">
 <metadata>
  <rdf:RDF xmlns:cc="http://creativecommons.org/ns#" xmlns:dc="http://purl.org/dc/elements/1.1/" xmlns:rdf="http://www.w3.org/1999/02/22-rdf-syntax-ns#">
   <cc:Work>
    <dc:type rdf:resource="http://purl.org/dc/dcmitype/StillImage"/>
    <dc:date>2021-05-21T14:03:10.794192</dc:date>
    <dc:format>image/svg+xml</dc:format>
    <dc:creator>
     <cc:Agent>
      <dc:title>Matplotlib v3.4.1, https://matplotlib.org/</dc:title>
     </cc:Agent>
    </dc:creator>
   </cc:Work>
  </rdf:RDF>
 </metadata>
 <defs>
  <style type="text/css">*{stroke-linecap:butt;stroke-linejoin:round;}</style>
 </defs>
 <g id="figure_1">
  <g id="patch_1">
   <path d="M 0 432 
L 576 432 
L 576 0 
L 0 0 
z
" style="fill:#ffffff;"/>
  </g>
  <g id="axes_1">
   <g id="patch_2">
    <path d="M 72 384.48 
L 518.4 384.48 
L 518.4 51.84 
L 72 51.84 
z
" style="fill:#ffffff;"/>
   </g>
   <g id="PolyCollection_1">
    <defs>
     <path d="M 163.235036 -47.52 
L 68.741606 -47.52 
L 68.741606 -380.16 
L 163.235036 -380.16 
L 163.235036 -380.16 
L 163.235036 -47.52 
z
" id="mdd1fb6396a"/>
    </defs>
    <g clip-path="url(#p90f8789eeb)">
     <use style="fill:#ff0000;fill-opacity:0.35;" x="0" xlink:href="#mdd1fb6396a" y="432"/>
    </g>
   </g>
   <g id="PolyCollection_2">
    <defs>
     <path d="M 300.087591 -47.52 
L 163.235036 -47.52 
L 163.235036 -380.16 
L 300.087591 -380.16 
L 300.087591 -380.16 
L 300.087591 -47.52 
z
" id="mba655b0f98"/>
    </defs>
    <g clip-path="url(#p90f8789eeb)">
     <use style="fill:#ffa500;fill-opacity:0.35;" x="0" xlink:href="#mba655b0f98" y="432"/>
    </g>
   </g>
   <g id="PolyCollection_3">
    <defs>
     <path d="M 420.648175 -47.52 
L 300.087591 -47.52 
L 300.087591 -380.16 
L 420.648175 -380.16 
L 420.648175 -380.16 
L 420.648175 -47.52 
z
" id="m44ff1f3e5a"/>
    </defs>
    <g clip-path="url(#p90f8789eeb)">
     <use style="fill:#ffff00;fill-opacity:0.35;" x="0" xlink:href="#m44ff1f3e5a" y="432"/>
    </g>
   </g>
   <g id="PolyCollection_4">
    <defs>
     <path d="M 423.906569 -47.52 
L 420.648175 -47.52 
L 420.648175 -380.16 
L 423.906569 -380.16 
L 423.906569 -380.16 
L 423.906569 -47.52 
z
" id="m65514d413a"/>
    </defs>
    <g clip-path="url(#p90f8789eeb)">
     <use style="fill:#ffff00;fill-opacity:0.3;" x="0" xlink:href="#m65514d413a" y="432"/>
    </g>
   </g>
   <g id="PolyCollection_5">
    <defs>
     <path d="M 427.164964 -47.52 
L 423.906569 -47.52 
L 423.906569 -380.16 
L 427.164964 -380.16 
L 427.164964 -380.16 
L 427.164964 -47.52 
z
" id="mc567d43a88"/>
    </defs>
    <g clip-path="url(#p90f8789eeb)">
     <use style="fill:#ffff00;fill-opacity:0.27;" x="0" xlink:href="#mc567d43a88" y="432"/>
    </g>
   </g>
   <g id="PolyCollection_6">
    <defs>
     <path d="M 430.423358 -47.52 
L 427.164964 -47.52 
L 427.164964 -380.16 
L 430.423358 -380.16 
L 430.423358 -380.16 
L 430.423358 -47.52 
z
" id="m0f1c259723"/>
    </defs>
    <g clip-path="url(#p90f8789eeb)">
     <use style="fill:#ffff00;fill-opacity:0.24;" x="0" xlink:href="#m0f1c259723" y="432"/>
    </g>
   </g>
   <g id="PolyCollection_7">
    <defs>
     <path d="M 433.681752 -47.52 
L 430.423358 -47.52 
L 430.423358 -380.16 
L 433.681752 -380.16 
L 433.681752 -380.16 
L 433.681752 -47.52 
z
" id="m19c089419d"/>
    </defs>
    <g clip-path="url(#p90f8789eeb)">
     <use style="fill:#ffff00;fill-opacity:0.21;" x="0" xlink:href="#m19c089419d" y="432"/>
    </g>
   </g>
   <g id="PolyCollection_8">
    <defs>
     <path d="M 436.940146 -47.52 
L 433.681752 -47.52 
L 433.681752 -380.16 
L 436.940146 -380.16 
L 436.940146 -380.16 
L 436.940146 -47.52 
z
" id="m84990f2591"/>
    </defs>
    <g clip-path="url(#p90f8789eeb)">
     <use style="fill:#ffff00;fill-opacity:0.18;" x="0" xlink:href="#m84990f2591" y="432"/>
    </g>
   </g>
   <g id="PolyCollection_9">
    <defs>
     <path d="M 440.19854 -47.52 
L 436.940146 -47.52 
L 436.940146 -380.16 
L 440.19854 -380.16 
L 440.19854 -380.16 
L 440.19854 -47.52 
z
" id="mdb2f7e343f"/>
    </defs>
    <g clip-path="url(#p90f8789eeb)">
     <use style="fill:#ffff00;fill-opacity:0.15;" x="0" xlink:href="#mdb2f7e343f" y="432"/>
    </g>
   </g>
   <g id="PolyCollection_10">
    <defs>
     <path d="M 443.456934 -47.52 
L 440.19854 -47.52 
L 440.19854 -380.16 
L 443.456934 -380.16 
L 443.456934 -380.16 
L 443.456934 -47.52 
z
" id="m8a3d64b1b6"/>
    </defs>
    <g clip-path="url(#p90f8789eeb)">
     <use style="fill:#ffff00;fill-opacity:0.12;" x="0" xlink:href="#m8a3d64b1b6" y="432"/>
    </g>
   </g>
   <g id="PolyCollection_11">
    <defs>
     <path d="M 446.715328 -47.52 
L 443.456934 -47.52 
L 443.456934 -380.16 
L 446.715328 -380.16 
L 446.715328 -380.16 
L 446.715328 -47.52 
z
" id="m8c722772fe"/>
    </defs>
    <g clip-path="url(#p90f8789eeb)">
     <use style="fill:#ffff00;fill-opacity:0.09;" x="0" xlink:href="#m8c722772fe" y="432"/>
    </g>
   </g>
   <g id="PolyCollection_12">
    <defs>
     <path d="M 449.973723 -47.52 
L 446.715328 -47.52 
L 446.715328 -380.16 
L 449.973723 -380.16 
L 449.973723 -380.16 
L 449.973723 -47.52 
z
" id="m6409652c93"/>
    </defs>
    <g clip-path="url(#p90f8789eeb)">
     <use style="fill:#ffff00;fill-opacity:0.06;" x="0" xlink:href="#m6409652c93" y="432"/>
    </g>
   </g>
   <g id="PolyCollection_13">
    <defs>
     <path d="M 453.232117 -47.52 
L 449.973723 -47.52 
L 449.973723 -380.16 
L 453.232117 -380.16 
L 453.232117 -380.16 
L 453.232117 -47.52 
z
" id="m3653b607e0"/>
    </defs>
    <g clip-path="url(#p90f8789eeb)">
     <use style="fill:#ffff00;fill-opacity:0.03;" x="0" xlink:href="#m3653b607e0" y="432"/>
    </g>
   </g>
   <g id="PolyCollection_14">
    <defs>
     <path d="M 72 -47.52095 
L 72 -47.52 
L 72 -47.52 
L 75.258394 -47.52 
L 75.258394 -47.52 
L 78.516788 -47.52 
L 78.516788 -47.52 
L 81.775182 -47.52 
L 81.775182 -47.52 
L 85.033577 -47.52 
L 85.033577 -47.52 
L 88.291971 -47.52 
L 88.291971 -47.52 
L 91.550365 -47.52 
L 91.550365 -47.52 
L 94.808759 -47.52 
L 94.808759 -47.52 
L 98.067153 -47.52 
L 98.067153 -47.52 
L 101.325547 -47.52 
L 101.325547 -47.52 
L 104.583942 -47.52 
L 104.583942 -47.52 
L 107.842336 -47.52 
L 107.842336 -47.52 
L 111.10073 -47.52 
L 111.10073 -47.52 
L 114.359124 -47.52 
L 114.359124 -47.52 
L 117.617518 -47.52 
L 117.617518 -47.52 
L 120.875912 -47.52 
L 120.875912 -47.52 
L 124.134307 -47.52 
L 124.134307 -47.52 
L 127.392701 -47.52 
L 127.392701 -47.52 
L 130.651095 -47.52 
L 130.651095 -47.52 
L 133.909489 -47.52 
L 133.909489 -47.52 
L 137.167883 -47.52 
L 137.167883 -47.52 
L 140.426277 -47.52 
L 140.426277 -47.52 
L 143.684672 -47.52 
L 143.684672 -47.52 
L 146.943066 -47.52 
L 146.943066 -47.52 
L 150.20146 -47.52 
L 150.20146 -47.52 
L 153.459854 -47.52 
L 153.459854 -47.52 
L 156.718248 -47.52 
L 156.718248 -47.52 
L 159.976642 -47.52 
L 159.976642 -47.52 
L 163.235036 -47.52 
L 163.235036 -47.52 
L 166.493431 -47.52 
L 166.493431 -47.52 
L 169.751825 -47.52 
L 169.751825 -47.52 
L 173.010219 -47.52 
L 173.010219 -47.52 
L 176.268613 -47.52 
L 176.268613 -47.52 
L 179.527007 -47.52 
L 179.527007 -47.52 
L 182.785401 -47.52 
L 182.785401 -47.52 
L 186.043796 -47.52 
L 186.043796 -47.52 
L 189.30219 -47.52 
L 189.30219 -47.52 
L 192.560584 -47.52 
L 192.560584 -47.52 
L 195.818978 -47.52 
L 195.818978 -47.52 
L 199.077372 -47.52 
L 199.077372 -47.52 
L 202.335766 -47.52 
L 202.335766 -47.52 
L 205.594161 -47.52 
L 205.594161 -47.52 
L 208.852555 -47.52 
L 208.852555 -47.52 
L 212.110949 -47.52 
L 212.110949 -47.52 
L 215.369343 -47.52 
L 215.369343 -47.52 
L 218.627737 -47.52 
L 218.627737 -47.52 
L 221.886131 -47.52 
L 221.886131 -47.52 
L 225.144526 -47.52 
L 225.144526 -47.52 
L 228.40292 -47.52 
L 228.40292 -47.52 
L 231.661314 -47.52 
L 231.661314 -47.52 
L 234.919708 -47.52 
L 234.919708 -47.52 
L 238.178102 -47.52 
L 238.178102 -47.52 
L 241.436496 -47.52 
L 241.436496 -47.52 
L 244.694891 -47.52 
L 244.694891 -47.52 
L 247.953285 -47.52 
L 247.953285 -47.52 
L 251.211679 -47.52 
L 251.211679 -47.52 
L 254.470073 -47.52 
L 254.470073 -47.52 
L 257.728467 -47.52 
L 257.728467 -47.52 
L 260.986861 -47.52 
L 260.986861 -47.52 
L 264.245255 -47.52 
L 264.245255 -47.52 
L 267.50365 -47.52 
L 267.50365 -47.52 
L 270.762044 -47.52 
L 270.762044 -47.52 
L 274.020438 -47.52 
L 274.020438 -47.52 
L 277.278832 -47.52 
L 277.278832 -47.52 
L 280.537226 -47.52 
L 280.537226 -47.52 
L 283.79562 -47.52 
L 283.79562 -47.52 
L 287.054015 -47.52 
L 287.054015 -47.52 
L 290.312409 -47.52 
L 290.312409 -47.52 
L 293.570803 -47.52 
L 293.570803 -47.52 
L 296.829197 -47.52 
L 296.829197 -47.52 
L 300.087591 -47.52 
L 300.087591 -47.52 
L 303.345985 -47.52 
L 303.345985 -47.52 
L 306.60438 -47.52 
L 306.60438 -47.52 
L 309.862774 -47.52 
L 309.862774 -47.52 
L 313.121168 -47.52 
L 313.121168 -47.52 
L 316.379562 -47.52 
L 316.379562 -47.52 
L 319.637956 -47.52 
L 319.637956 -47.52 
L 322.89635 -47.52 
L 322.89635 -47.52 
L 326.154745 -47.52 
L 326.154745 -47.52 
L 329.413139 -47.52 
L 329.413139 -47.52 
L 332.671533 -47.52 
L 332.671533 -47.52 
L 335.929927 -47.52 
L 335.929927 -47.52 
L 339.188321 -47.52 
L 339.188321 -47.52 
L 342.446715 -47.52 
L 342.446715 -47.52 
L 345.705109 -47.52 
L 345.705109 -47.52 
L 348.963504 -47.52 
L 348.963504 -47.52 
L 352.221898 -47.52 
L 352.221898 -47.52 
L 355.480292 -47.52 
L 355.480292 -47.52 
L 358.738686 -47.52 
L 358.738686 -84.460578 
L 358.738686 -84.460578 
L 355.480292 -84.460578 
L 355.480292 -83.603242 
L 352.221898 -83.603242 
L 352.221898 -82.884581 
L 348.963504 -82.884581 
L 348.963504 -82.075465 
L 345.705109 -82.075465 
L 345.705109 -81.334099 
L 342.446715 -81.334099 
L 342.446715 -81.234246 
L 339.188321 -81.234246 
L 339.188321 -80.902404 
L 335.929927 -80.902404 
L 335.929927 -80.187457 
L 332.671533 -80.187457 
L 332.671533 -79.3403 
L 329.413139 -79.3403 
L 329.413139 -78.532507 
L 326.154745 -78.532507 
L 326.154745 -77.786279 
L 322.89635 -77.786279 
L 322.89635 -77.099855 
L 319.637956 -77.099855 
L 319.637956 -77.285367 
L 316.379562 -77.285367 
L 316.379562 -77.066796 
L 313.121168 -77.066796 
L 313.121168 -76.445968 
L 309.862774 -76.445968 
L 309.862774 -75.761559 
L 306.60438 -75.761559 
L 306.60438 -75.113964 
L 303.345985 -75.113964 
L 303.345985 -74.445289 
L 300.087591 -74.445289 
L 300.087591 -73.986862 
L 296.829197 -73.986862 
L 296.829197 -73.932418 
L 293.570803 -73.932418 
L 293.570803 -73.722992 
L 290.312409 -73.722992 
L 290.312409 -73.058672 
L 287.054015 -73.058672 
L 287.054015 -72.275411 
L 283.79562 -72.275411 
L 283.79562 -71.234485 
L 280.537226 -71.234485 
L 280.537226 -70.491817 
L 277.278832 -70.491817 
L 277.278832 -70.017761 
L 274.020438 -70.017761 
L 274.020438 -69.965853 
L 270.762044 -69.965853 
L 270.762044 -69.727869 
L 267.50365 -69.727869 
L 267.50365 -68.912158 
L 264.245255 -68.912158 
L 264.245255 -68.152864 
L 260.986861 -68.152864 
L 260.986861 -67.409826 
L 257.728467 -67.409826 
L 257.728467 -66.706019 
L 254.470073 -66.706019 
L 254.470073 -65.933727 
L 251.211679 -65.933727 
L 251.211679 -64.784276 
L 247.953285 -64.784276 
L 247.953285 -64.665835 
L 244.694891 -64.665835 
L 244.694891 -64.443338 
L 241.436496 -64.443338 
L 241.436496 -64.183234 
L 238.178102 -64.183234 
L 238.178102 -63.910027 
L 234.919708 -63.910027 
L 234.919708 -63.646153 
L 231.661314 -63.646153 
L 231.661314 -63.372248 
L 228.40292 -63.372248 
L 228.40292 -63.34693 
L 225.144526 -63.34693 
L 225.144526 -63.095367 
L 221.886131 -63.095367 
L 221.886131 -62.568222 
L 218.627737 -62.568222 
L 218.627737 -61.848901 
L 215.369343 -61.848901 
L 215.369343 -61.208663 
L 212.110949 -61.208663 
L 212.110949 -60.69609 
L 208.852555 -60.69609 
L 208.852555 -60.681541 
L 205.594161 -60.681541 
L 205.594161 -60.683736 
L 202.335766 -60.683736 
L 202.335766 -60.559875 
L 199.077372 -60.559875 
L 199.077372 -60.620446 
L 195.818978 -60.620446 
L 195.818978 -59.923194 
L 192.560584 -59.923194 
L 192.560584 -59.313464 
L 189.30219 -59.313464 
L 189.30219 -58.681772 
L 186.043796 -58.681772 
L 186.043796 -58.197626 
L 182.785401 -58.197626 
L 182.785401 -57.936777 
L 179.527007 -57.936777 
L 179.527007 -57.927523 
L 176.268613 -57.927523 
L 176.268613 -57.340466 
L 173.010219 -57.340466 
L 173.010219 -56.758407 
L 169.751825 -56.758407 
L 169.751825 -56.146423 
L 166.493431 -56.146423 
L 166.493431 -55.594116 
L 163.235036 -55.594116 
L 163.235036 -55.350166 
L 159.976642 -55.350166 
L 159.976642 -55.017652 
L 156.718248 -55.017652 
L 156.718248 -54.979761 
L 153.459854 -54.979761 
L 153.459854 -54.74325 
L 150.20146 -54.74325 
L 150.20146 -54.532508 
L 146.943066 -54.532508 
L 146.943066 -54.183819 
L 143.684672 -54.183819 
L 143.684672 -53.683361 
L 140.426277 -53.683361 
L 140.426277 -53.250076 
L 137.167883 -53.250076 
L 137.167883 -53.185363 
L 133.909489 -53.185363 
L 133.909489 -53.113174 
L 130.651095 -53.113174 
L 130.651095 -52.577006 
L 127.392701 -52.577006 
L 127.392701 -52.353083 
L 124.134307 -52.353083 
L 124.134307 -51.9364 
L 120.875912 -51.9364 
L 120.875912 -51.686124 
L 117.617518 -51.686124 
L 117.617518 -51.496866 
L 114.359124 -51.496866 
L 114.359124 -51.385514 
L 111.10073 -51.385514 
L 111.10073 -51.176189 
L 107.842336 -51.176189 
L 107.842336 -50.93512 
L 104.583942 -50.93512 
L 104.583942 -50.4191 
L 101.325547 -50.4191 
L 101.325547 -49.935917 
L 98.067153 -49.935917 
L 98.067153 -49.511421 
L 94.808759 -49.511421 
L 94.808759 -49.121519 
L 91.550365 -49.121519 
L 91.550365 -49.035603 
L 88.291971 -49.035603 
L 88.291971 -48.9456 
L 85.033577 -48.9456 
L 85.033577 -48.708 
L 81.775182 -48.708 
L 81.775182 -48.3516 
L 78.516788 -48.3516 
L 78.516788 -47.848268 
L 75.258394 -47.848268 
L 75.258394 -47.65681 
L 72 -47.65681 
L 72 -47.52095 
z
" id="md415f8a6fc"/>
    </defs>
    <g clip-path="url(#p90f8789eeb)">
     <use style="fill:#1f77b4;" x="0" xlink:href="#md415f8a6fc" y="432"/>
    </g>
   </g>
   <g id="PolyCollection_15">
    <defs>
     <path d="M 72 -50.556528 
L 72 -47.52095 
L 72 -47.65681 
L 75.258394 -47.65681 
L 75.258394 -47.848268 
L 78.516788 -47.848268 
L 78.516788 -48.3516 
L 81.775182 -48.3516 
L 81.775182 -48.708 
L 85.033577 -48.708 
L 85.033577 -48.9456 
L 88.291971 -48.9456 
L 88.291971 -49.035603 
L 91.550365 -49.035603 
L 91.550365 -49.121519 
L 94.808759 -49.121519 
L 94.808759 -49.511421 
L 98.067153 -49.511421 
L 98.067153 -49.935917 
L 101.325547 -49.935917 
L 101.325547 -50.4191 
L 104.583942 -50.4191 
L 104.583942 -50.93512 
L 107.842336 -50.93512 
L 107.842336 -51.176189 
L 111.10073 -51.176189 
L 111.10073 -51.385514 
L 114.359124 -51.385514 
L 114.359124 -51.496866 
L 117.617518 -51.496866 
L 117.617518 -51.686124 
L 120.875912 -51.686124 
L 120.875912 -51.9364 
L 124.134307 -51.9364 
L 124.134307 -52.353083 
L 127.392701 -52.353083 
L 127.392701 -52.577006 
L 130.651095 -52.577006 
L 130.651095 -53.113174 
L 133.909489 -53.113174 
L 133.909489 -53.185363 
L 137.167883 -53.185363 
L 137.167883 -53.250076 
L 140.426277 -53.250076 
L 140.426277 -53.683361 
L 143.684672 -53.683361 
L 143.684672 -54.183819 
L 146.943066 -54.183819 
L 146.943066 -54.532508 
L 150.20146 -54.532508 
L 150.20146 -54.74325 
L 153.459854 -54.74325 
L 153.459854 -54.979761 
L 156.718248 -54.979761 
L 156.718248 -55.017652 
L 159.976642 -55.017652 
L 159.976642 -55.350166 
L 163.235036 -55.350166 
L 163.235036 -55.594116 
L 166.493431 -55.594116 
L 166.493431 -56.146423 
L 169.751825 -56.146423 
L 169.751825 -56.758407 
L 173.010219 -56.758407 
L 173.010219 -57.340466 
L 176.268613 -57.340466 
L 176.268613 -57.927523 
L 179.527007 -57.927523 
L 179.527007 -57.936777 
L 182.785401 -57.936777 
L 182.785401 -58.197626 
L 186.043796 -58.197626 
L 186.043796 -58.681772 
L 189.30219 -58.681772 
L 189.30219 -59.313464 
L 192.560584 -59.313464 
L 192.560584 -59.923194 
L 195.818978 -59.923194 
L 195.818978 -60.620446 
L 199.077372 -60.620446 
L 199.077372 -60.559875 
L 202.335766 -60.559875 
L 202.335766 -60.683736 
L 205.594161 -60.683736 
L 205.594161 -60.681541 
L 208.852555 -60.681541 
L 208.852555 -60.69609 
L 212.110949 -60.69609 
L 212.110949 -61.208663 
L 215.369343 -61.208663 
L 215.369343 -61.848901 
L 218.627737 -61.848901 
L 218.627737 -62.568222 
L 221.886131 -62.568222 
L 221.886131 -63.095367 
L 225.144526 -63.095367 
L 225.144526 -63.34693 
L 228.40292 -63.34693 
L 228.40292 -63.372248 
L 231.661314 -63.372248 
L 231.661314 -63.646153 
L 234.919708 -63.646153 
L 234.919708 -63.910027 
L 238.178102 -63.910027 
L 238.178102 -64.183234 
L 241.436496 -64.183234 
L 241.436496 -64.443338 
L 244.694891 -64.443338 
L 244.694891 -64.665835 
L 247.953285 -64.665835 
L 247.953285 -64.784276 
L 251.211679 -64.784276 
L 251.211679 -65.933727 
L 254.470073 -65.933727 
L 254.470073 -66.706019 
L 257.728467 -66.706019 
L 257.728467 -67.409826 
L 260.986861 -67.409826 
L 260.986861 -68.152864 
L 264.245255 -68.152864 
L 264.245255 -68.912158 
L 267.50365 -68.912158 
L 267.50365 -69.727869 
L 270.762044 -69.727869 
L 270.762044 -69.965853 
L 274.020438 -69.965853 
L 274.020438 -70.017761 
L 277.278832 -70.017761 
L 277.278832 -70.491817 
L 280.537226 -70.491817 
L 280.537226 -71.234485 
L 283.79562 -71.234485 
L 283.79562 -72.275411 
L 287.054015 -72.275411 
L 287.054015 -73.058672 
L 290.312409 -73.058672 
L 290.312409 -73.722992 
L 293.570803 -73.722992 
L 293.570803 -73.932418 
L 296.829197 -73.932418 
L 296.829197 -73.986862 
L 300.087591 -73.986862 
L 300.087591 -74.445289 
L 303.345985 -74.445289 
L 303.345985 -75.113964 
L 306.60438 -75.113964 
L 306.60438 -75.761559 
L 309.862774 -75.761559 
L 309.862774 -76.445968 
L 313.121168 -76.445968 
L 313.121168 -77.066796 
L 316.379562 -77.066796 
L 316.379562 -77.285367 
L 319.637956 -77.285367 
L 319.637956 -77.099855 
L 322.89635 -77.099855 
L 322.89635 -77.786279 
L 326.154745 -77.786279 
L 326.154745 -78.532507 
L 329.413139 -78.532507 
L 329.413139 -79.3403 
L 332.671533 -79.3403 
L 332.671533 -80.187457 
L 335.929927 -80.187457 
L 335.929927 -80.902404 
L 339.188321 -80.902404 
L 339.188321 -81.234246 
L 342.446715 -81.234246 
L 342.446715 -81.334099 
L 345.705109 -81.334099 
L 345.705109 -82.075465 
L 348.963504 -82.075465 
L 348.963504 -82.884581 
L 352.221898 -82.884581 
L 352.221898 -83.603242 
L 355.480292 -83.603242 
L 355.480292 -84.460578 
L 358.738686 -84.460578 
L 358.738686 -94.99248 
L 358.738686 -94.99248 
L 355.480292 -94.99248 
L 355.480292 -94.99248 
L 352.221898 -94.99248 
L 352.221898 -94.99248 
L 348.963504 -94.99248 
L 348.963504 -94.99248 
L 345.705109 -94.99248 
L 345.705109 -94.99248 
L 342.446715 -94.99248 
L 342.446715 -87.486696 
L 339.188321 -87.486696 
L 339.188321 -87.486696 
L 335.929927 -87.486696 
L 335.929927 -87.486696 
L 332.671533 -87.486696 
L 332.671533 -87.486696 
L 329.413139 -87.486696 
L 329.413139 -87.486696 
L 326.154745 -87.486696 
L 326.154745 -87.486696 
L 322.89635 -87.486696 
L 322.89635 -87.486696 
L 319.637956 -87.486696 
L 319.637956 -79.980912 
L 316.379562 -79.980912 
L 316.379562 -79.980912 
L 313.121168 -79.980912 
L 313.121168 -79.980912 
L 309.862774 -79.980912 
L 309.862774 -79.980912 
L 306.60438 -79.980912 
L 306.60438 -79.980912 
L 303.345985 -79.980912 
L 303.345985 -79.980912 
L 300.087591 -79.980912 
L 300.087591 -79.980912 
L 296.829197 -79.980912 
L 296.829197 -76.28148 
L 293.570803 -76.28148 
L 293.570803 -76.28148 
L 290.312409 -76.28148 
L 290.312409 -76.28148 
L 287.054015 -76.28148 
L 287.054015 -76.28148 
L 283.79562 -76.28148 
L 283.79562 -76.28148 
L 280.537226 -76.28148 
L 280.537226 -76.28148 
L 277.278832 -76.28148 
L 277.278832 -76.28148 
L 274.020438 -76.28148 
L 274.020438 -72.582048 
L 270.762044 -72.582048 
L 270.762044 -72.582048 
L 267.50365 -72.582048 
L 267.50365 -72.582048 
L 264.245255 -72.582048 
L 264.245255 -72.582048 
L 260.986861 -72.582048 
L 260.986861 -72.582048 
L 257.728467 -72.582048 
L 257.728467 -72.582048 
L 254.470073 -72.582048 
L 254.470073 -72.582048 
L 251.211679 -72.582048 
L 251.211679 -66.12408 
L 247.953285 -66.12408 
L 247.953285 -66.12408 
L 244.694891 -66.12408 
L 244.694891 -66.12408 
L 241.436496 -66.12408 
L 241.436496 -66.12408 
L 238.178102 -66.12408 
L 238.178102 -66.12408 
L 234.919708 -66.12408 
L 234.919708 -66.12408 
L 231.661314 -66.12408 
L 231.661314 -66.12408 
L 228.40292 -66.12408 
L 228.40292 -63.579384 
L 225.144526 -63.579384 
L 225.144526 -63.579384 
L 221.886131 -63.579384 
L 221.886131 -63.579384 
L 218.627737 -63.579384 
L 218.627737 -63.579384 
L 215.369343 -63.579384 
L 215.369343 -63.579384 
L 212.110949 -63.579384 
L 212.110949 -63.579384 
L 208.852555 -63.579384 
L 208.852555 -63.579384 
L 205.594161 -63.579384 
L 205.594161 -63.579384 
L 202.335766 -63.579384 
L 202.335766 -63.579384 
L 199.077372 -63.579384 
L 199.077372 -63.579384 
L 195.818978 -63.579384 
L 195.818978 -63.579384 
L 192.560584 -63.579384 
L 192.560584 -63.579384 
L 189.30219 -63.579384 
L 189.30219 -63.579384 
L 186.043796 -63.579384 
L 186.043796 -63.579384 
L 182.785401 -63.579384 
L 182.785401 -60.179328 
L 179.527007 -60.179328 
L 179.527007 -60.179328 
L 176.268613 -60.179328 
L 176.268613 -60.179328 
L 173.010219 -60.179328 
L 173.010219 -60.179328 
L 169.751825 -60.179328 
L 169.751825 -60.179328 
L 166.493431 -60.179328 
L 166.493431 -60.179328 
L 163.235036 -60.179328 
L 163.235036 -60.179328 
L 159.976642 -60.179328 
L 159.976642 -60.179328 
L 156.718248 -60.179328 
L 156.718248 -60.179328 
L 153.459854 -60.179328 
L 153.459854 -60.179328 
L 150.20146 -60.179328 
L 150.20146 -60.179328 
L 146.943066 -60.179328 
L 146.943066 -60.179328 
L 143.684672 -60.179328 
L 143.684672 -60.179328 
L 140.426277 -60.179328 
L 140.426277 -60.179328 
L 137.167883 -60.179328 
L 137.167883 -56.993112 
L 133.909489 -56.993112 
L 133.909489 -56.993112 
L 130.651095 -56.993112 
L 130.651095 -56.993112 
L 127.392701 -56.993112 
L 127.392701 -56.993112 
L 124.134307 -56.993112 
L 124.134307 -56.993112 
L 120.875912 -56.993112 
L 120.875912 -56.993112 
L 117.617518 -56.993112 
L 117.617518 -56.993112 
L 114.359124 -56.993112 
L 114.359124 -54.106272 
L 111.10073 -54.106272 
L 111.10073 -54.106272 
L 107.842336 -54.106272 
L 107.842336 -54.106272 
L 104.583942 -54.106272 
L 104.583942 -54.106272 
L 101.325547 -54.106272 
L 101.325547 -54.106272 
L 98.067153 -54.106272 
L 98.067153 -54.106272 
L 94.808759 -54.106272 
L 94.808759 -54.106272 
L 91.550365 -54.106272 
L 91.550365 -50.556528 
L 88.291971 -50.556528 
L 88.291971 -50.556528 
L 85.033577 -50.556528 
L 85.033577 -50.556528 
L 81.775182 -50.556528 
L 81.775182 -50.556528 
L 78.516788 -50.556528 
L 78.516788 -50.556528 
L 75.258394 -50.556528 
L 75.258394 -50.556528 
L 72 -50.556528 
L 72 -50.556528 
z
" id="m01d634c5d5"/>
    </defs>
    <g clip-path="url(#p90f8789eeb)">
     <use style="fill:#2ca02c;" x="0" xlink:href="#m01d634c5d5" y="432"/>
    </g>
   </g>
   <g id="PolyCollection_16">
    <defs>
     <path d="M 72 -50.556528 
L 72 -50.556528 
L 72 -50.556528 
L 75.258394 -50.556528 
L 75.258394 -50.556528 
L 78.516788 -50.556528 
L 78.516788 -50.556528 
L 81.775182 -50.556528 
L 81.775182 -50.556528 
L 85.033577 -50.556528 
L 85.033577 -50.556528 
L 88.291971 -50.556528 
L 88.291971 -50.556528 
L 91.550365 -50.556528 
L 91.550365 -54.106272 
L 94.808759 -54.106272 
L 94.808759 -54.106272 
L 98.067153 -54.106272 
L 98.067153 -54.106272 
L 101.325547 -54.106272 
L 101.325547 -54.106272 
L 104.583942 -54.106272 
L 104.583942 -54.106272 
L 107.842336 -54.106272 
L 107.842336 -54.106272 
L 111.10073 -54.106272 
L 111.10073 -54.106272 
L 114.359124 -54.106272 
L 114.359124 -56.993112 
L 117.617518 -56.993112 
L 117.617518 -56.993112 
L 120.875912 -56.993112 
L 120.875912 -56.993112 
L 124.134307 -56.993112 
L 124.134307 -56.993112 
L 127.392701 -56.993112 
L 127.392701 -56.993112 
L 130.651095 -56.993112 
L 130.651095 -56.993112 
L 133.909489 -56.993112 
L 133.909489 -56.993112 
L 137.167883 -56.993112 
L 137.167883 -60.179328 
L 140.426277 -60.179328 
L 140.426277 -60.179328 
L 143.684672 -60.179328 
L 143.684672 -60.179328 
L 146.943066 -60.179328 
L 146.943066 -60.179328 
L 150.20146 -60.179328 
L 150.20146 -60.179328 
L 153.459854 -60.179328 
L 153.459854 -60.179328 
L 156.718248 -60.179328 
L 156.718248 -60.179328 
L 159.976642 -60.179328 
L 159.976642 -60.179328 
L 163.235036 -60.179328 
L 163.235036 -60.179328 
L 166.493431 -60.179328 
L 166.493431 -60.179328 
L 169.751825 -60.179328 
L 169.751825 -60.179328 
L 173.010219 -60.179328 
L 173.010219 -60.179328 
L 176.268613 -60.179328 
L 176.268613 -60.179328 
L 179.527007 -60.179328 
L 179.527007 -60.179328 
L 182.785401 -60.179328 
L 182.785401 -63.579384 
L 186.043796 -63.579384 
L 186.043796 -63.579384 
L 189.30219 -63.579384 
L 189.30219 -63.579384 
L 192.560584 -63.579384 
L 192.560584 -63.579384 
L 195.818978 -63.579384 
L 195.818978 -63.579384 
L 199.077372 -63.579384 
L 199.077372 -63.579384 
L 202.335766 -63.579384 
L 202.335766 -63.579384 
L 205.594161 -63.579384 
L 205.594161 -63.579384 
L 208.852555 -63.579384 
L 208.852555 -63.579384 
L 212.110949 -63.579384 
L 212.110949 -63.579384 
L 215.369343 -63.579384 
L 215.369343 -63.579384 
L 218.627737 -63.579384 
L 218.627737 -63.579384 
L 221.886131 -63.579384 
L 221.886131 -63.579384 
L 225.144526 -63.579384 
L 225.144526 -63.579384 
L 228.40292 -63.579384 
L 228.40292 -66.12408 
L 231.661314 -66.12408 
L 231.661314 -66.12408 
L 234.919708 -66.12408 
L 234.919708 -66.12408 
L 238.178102 -66.12408 
L 238.178102 -66.12408 
L 241.436496 -66.12408 
L 241.436496 -66.12408 
L 244.694891 -66.12408 
L 244.694891 -66.12408 
L 247.953285 -66.12408 
L 247.953285 -66.12408 
L 251.211679 -66.12408 
L 251.211679 -72.582048 
L 254.470073 -72.582048 
L 254.470073 -72.582048 
L 257.728467 -72.582048 
L 257.728467 -72.582048 
L 260.986861 -72.582048 
L 260.986861 -72.582048 
L 264.245255 -72.582048 
L 264.245255 -72.582048 
L 267.50365 -72.582048 
L 267.50365 -72.582048 
L 270.762044 -72.582048 
L 270.762044 -72.582048 
L 274.020438 -72.582048 
L 274.020438 -76.28148 
L 277.278832 -76.28148 
L 277.278832 -76.28148 
L 280.537226 -76.28148 
L 280.537226 -76.28148 
L 283.79562 -76.28148 
L 283.79562 -76.28148 
L 287.054015 -76.28148 
L 287.054015 -76.28148 
L 290.312409 -76.28148 
L 290.312409 -76.28148 
L 293.570803 -76.28148 
L 293.570803 -76.28148 
L 296.829197 -76.28148 
L 296.829197 -79.980912 
L 300.087591 -79.980912 
L 300.087591 -79.980912 
L 303.345985 -79.980912 
L 303.345985 -79.980912 
L 306.60438 -79.980912 
L 306.60438 -79.980912 
L 309.862774 -79.980912 
L 309.862774 -79.980912 
L 313.121168 -79.980912 
L 313.121168 -79.980912 
L 316.379562 -79.980912 
L 316.379562 -79.980912 
L 319.637956 -79.980912 
L 319.637956 -87.486696 
L 322.89635 -87.486696 
L 322.89635 -87.486696 
L 326.154745 -87.486696 
L 326.154745 -87.486696 
L 329.413139 -87.486696 
L 329.413139 -87.486696 
L 332.671533 -87.486696 
L 332.671533 -87.486696 
L 335.929927 -87.486696 
L 335.929927 -87.486696 
L 339.188321 -87.486696 
L 339.188321 -87.486696 
L 342.446715 -87.486696 
L 342.446715 -94.99248 
L 345.705109 -94.99248 
L 345.705109 -94.99248 
L 348.963504 -94.99248 
L 348.963504 -94.99248 
L 352.221898 -94.99248 
L 352.221898 -94.99248 
L 355.480292 -94.99248 
L 355.480292 -94.99248 
L 358.738686 -94.99248 
L 358.738686 -120.531152 
L 358.738686 -120.531152 
L 355.480292 -120.531152 
L 355.480292 -119.747891 
L 352.221898 -119.747891 
L 352.221898 -118.706965 
L 348.963504 -118.706965 
L 348.963504 -117.964297 
L 345.705109 -117.964297 
L 345.705109 -117.490241 
L 342.446715 -117.490241 
L 342.446715 -109.932549 
L 339.188321 -109.932549 
L 339.188321 -109.694565 
L 335.929927 -109.694565 
L 335.929927 -108.878854 
L 332.671533 -108.878854 
L 332.671533 -108.11956 
L 329.413139 -108.11956 
L 329.413139 -107.376522 
L 326.154745 -107.376522 
L 326.154745 -106.672715 
L 322.89635 -106.672715 
L 322.89635 -105.900423 
L 319.637956 -105.900423 
L 319.637956 -97.245188 
L 316.379562 -97.245188 
L 316.379562 -97.126747 
L 313.121168 -97.126747 
L 313.121168 -96.90425 
L 309.862774 -96.90425 
L 309.862774 -96.644146 
L 306.60438 -96.644146 
L 306.60438 -96.370939 
L 303.345985 -96.370939 
L 303.345985 -96.107065 
L 300.087591 -96.107065 
L 300.087591 -95.83316 
L 296.829197 -95.83316 
L 296.829197 -92.10841 
L 293.570803 -92.10841 
L 293.570803 -91.856847 
L 290.312409 -91.856847 
L 290.312409 -91.329702 
L 287.054015 -91.329702 
L 287.054015 -90.610381 
L 283.79562 -90.610381 
L 283.79562 -89.970143 
L 280.537226 -89.970143 
L 280.537226 -89.45757 
L 277.278832 -89.45757 
L 277.278832 -89.443021 
L 274.020438 -89.443021 
L 274.020438 -85.745784 
L 270.762044 -85.745784 
L 270.762044 -85.621923 
L 267.50365 -85.621923 
L 267.50365 -85.682494 
L 264.245255 -85.682494 
L 264.245255 -84.985242 
L 260.986861 -84.985242 
L 260.986861 -84.375512 
L 257.728467 -84.375512 
L 257.728467 -83.74382 
L 254.470073 -83.74382 
L 254.470073 -83.259674 
L 251.211679 -83.259674 
L 251.211679 -76.540857 
L 247.953285 -76.540857 
L 247.953285 -76.531603 
L 244.694891 -76.531603 
L 244.694891 -75.944546 
L 241.436496 -75.944546 
L 241.436496 -75.362487 
L 238.178102 -75.362487 
L 238.178102 -74.750503 
L 234.919708 -74.750503 
L 234.919708 -74.198196 
L 231.661314 -74.198196 
L 231.661314 -73.954246 
L 228.40292 -73.954246 
L 228.40292 -71.077036 
L 225.144526 -71.077036 
L 225.144526 -71.039145 
L 221.886131 -71.039145 
L 221.886131 -70.802634 
L 218.627737 -70.802634 
L 218.627737 -70.591892 
L 215.369343 -70.591892 
L 215.369343 -70.243203 
L 212.110949 -70.243203 
L 212.110949 -69.742745 
L 208.852555 -69.742745 
L 208.852555 -69.30946 
L 205.594161 -69.30946 
L 205.594161 -69.244747 
L 202.335766 -69.244747 
L 202.335766 -69.172558 
L 199.077372 -69.172558 
L 199.077372 -68.63639 
L 195.818978 -68.63639 
L 195.818978 -68.412467 
L 192.560584 -68.412467 
L 192.560584 -67.995784 
L 189.30219 -67.995784 
L 189.30219 -67.745508 
L 186.043796 -67.745508 
L 186.043796 -67.55625 
L 182.785401 -67.55625 
L 182.785401 -64.044842 
L 179.527007 -64.044842 
L 179.527007 -63.835517 
L 176.268613 -63.835517 
L 176.268613 -63.594448 
L 173.010219 -63.594448 
L 173.010219 -63.078428 
L 169.751825 -63.078428 
L 169.751825 -62.595245 
L 166.493431 -62.595245 
L 166.493431 -62.170749 
L 163.235036 -62.170749 
L 163.235036 -61.780847 
L 159.976642 -61.780847 
L 159.976642 -61.694931 
L 156.718248 -61.694931 
L 156.718248 -61.604928 
L 153.459854 -61.604928 
L 153.459854 -61.367328 
L 150.20146 -61.367328 
L 150.20146 -61.010928 
L 146.943066 -61.010928 
L 146.943066 -60.507596 
L 143.684672 -60.507596 
L 143.684672 -60.316138 
L 140.426277 -60.316138 
L 140.426277 -60.180278 
L 137.167883 -60.180278 
L 137.167883 -56.993112 
L 133.909489 -56.993112 
L 133.909489 -56.993112 
L 130.651095 -56.993112 
L 130.651095 -56.993112 
L 127.392701 -56.993112 
L 127.392701 -56.993112 
L 124.134307 -56.993112 
L 124.134307 -56.993112 
L 120.875912 -56.993112 
L 120.875912 -56.993112 
L 117.617518 -56.993112 
L 117.617518 -56.993112 
L 114.359124 -56.993112 
L 114.359124 -54.106272 
L 111.10073 -54.106272 
L 111.10073 -54.106272 
L 107.842336 -54.106272 
L 107.842336 -54.106272 
L 104.583942 -54.106272 
L 104.583942 -54.106272 
L 101.325547 -54.106272 
L 101.325547 -54.106272 
L 98.067153 -54.106272 
L 98.067153 -54.106272 
L 94.808759 -54.106272 
L 94.808759 -54.106272 
L 91.550365 -54.106272 
L 91.550365 -50.556528 
L 88.291971 -50.556528 
L 88.291971 -50.556528 
L 85.033577 -50.556528 
L 85.033577 -50.556528 
L 81.775182 -50.556528 
L 81.775182 -50.556528 
L 78.516788 -50.556528 
L 78.516788 -50.556528 
L 75.258394 -50.556528 
L 75.258394 -50.556528 
L 72 -50.556528 
L 72 -50.556528 
z
" id="m20c5ff1c37"/>
    </defs>
    <g clip-path="url(#p90f8789eeb)">
     <use style="fill:#ff7f0e;" x="0" xlink:href="#m20c5ff1c37" y="432"/>
    </g>
   </g>
   <g id="PolyCollection_17">
    <defs>
     <path d="M 72 -53.593056 
L 72 -50.556528 
L 72 -50.556528 
L 75.258394 -50.556528 
L 75.258394 -50.556528 
L 78.516788 -50.556528 
L 78.516788 -50.556528 
L 81.775182 -50.556528 
L 81.775182 -50.556528 
L 85.033577 -50.556528 
L 85.033577 -50.556528 
L 88.291971 -50.556528 
L 88.291971 -50.556528 
L 91.550365 -50.556528 
L 91.550365 -54.106272 
L 94.808759 -54.106272 
L 94.808759 -54.106272 
L 98.067153 -54.106272 
L 98.067153 -54.106272 
L 101.325547 -54.106272 
L 101.325547 -54.106272 
L 104.583942 -54.106272 
L 104.583942 -54.106272 
L 107.842336 -54.106272 
L 107.842336 -54.106272 
L 111.10073 -54.106272 
L 111.10073 -54.106272 
L 114.359124 -54.106272 
L 114.359124 -56.993112 
L 117.617518 -56.993112 
L 117.617518 -56.993112 
L 120.875912 -56.993112 
L 120.875912 -56.993112 
L 124.134307 -56.993112 
L 124.134307 -56.993112 
L 127.392701 -56.993112 
L 127.392701 -56.993112 
L 130.651095 -56.993112 
L 130.651095 -56.993112 
L 133.909489 -56.993112 
L 133.909489 -56.993112 
L 137.167883 -56.993112 
L 137.167883 -60.180278 
L 140.426277 -60.180278 
L 140.426277 -60.316138 
L 143.684672 -60.316138 
L 143.684672 -60.507596 
L 146.943066 -60.507596 
L 146.943066 -61.010928 
L 150.20146 -61.010928 
L 150.20146 -61.367328 
L 153.459854 -61.367328 
L 153.459854 -61.604928 
L 156.718248 -61.604928 
L 156.718248 -61.694931 
L 159.976642 -61.694931 
L 159.976642 -61.780847 
L 163.235036 -61.780847 
L 163.235036 -62.170749 
L 166.493431 -62.170749 
L 166.493431 -62.595245 
L 169.751825 -62.595245 
L 169.751825 -63.078428 
L 173.010219 -63.078428 
L 173.010219 -63.594448 
L 176.268613 -63.594448 
L 176.268613 -63.835517 
L 179.527007 -63.835517 
L 179.527007 -64.044842 
L 182.785401 -64.044842 
L 182.785401 -67.55625 
L 186.043796 -67.55625 
L 186.043796 -67.745508 
L 189.30219 -67.745508 
L 189.30219 -67.995784 
L 192.560584 -67.995784 
L 192.560584 -68.412467 
L 195.818978 -68.412467 
L 195.818978 -68.63639 
L 199.077372 -68.63639 
L 199.077372 -69.172558 
L 202.335766 -69.172558 
L 202.335766 -69.244747 
L 205.594161 -69.244747 
L 205.594161 -69.30946 
L 208.852555 -69.30946 
L 208.852555 -69.742745 
L 212.110949 -69.742745 
L 212.110949 -70.243203 
L 215.369343 -70.243203 
L 215.369343 -70.591892 
L 218.627737 -70.591892 
L 218.627737 -70.802634 
L 221.886131 -70.802634 
L 221.886131 -71.039145 
L 225.144526 -71.039145 
L 225.144526 -71.077036 
L 228.40292 -71.077036 
L 228.40292 -73.954246 
L 231.661314 -73.954246 
L 231.661314 -74.198196 
L 234.919708 -74.198196 
L 234.919708 -74.750503 
L 238.178102 -74.750503 
L 238.178102 -75.362487 
L 241.436496 -75.362487 
L 241.436496 -75.944546 
L 244.694891 -75.944546 
L 244.694891 -76.531603 
L 247.953285 -76.531603 
L 247.953285 -76.540857 
L 251.211679 -76.540857 
L 251.211679 -83.259674 
L 254.470073 -83.259674 
L 254.470073 -83.74382 
L 257.728467 -83.74382 
L 257.728467 -84.375512 
L 260.986861 -84.375512 
L 260.986861 -84.985242 
L 264.245255 -84.985242 
L 264.245255 -85.682494 
L 267.50365 -85.682494 
L 267.50365 -85.621923 
L 270.762044 -85.621923 
L 270.762044 -85.745784 
L 274.020438 -85.745784 
L 274.020438 -89.443021 
L 277.278832 -89.443021 
L 277.278832 -89.45757 
L 280.537226 -89.45757 
L 280.537226 -89.970143 
L 283.79562 -89.970143 
L 283.79562 -90.610381 
L 287.054015 -90.610381 
L 287.054015 -91.329702 
L 290.312409 -91.329702 
L 290.312409 -91.856847 
L 293.570803 -91.856847 
L 293.570803 -92.10841 
L 296.829197 -92.10841 
L 296.829197 -95.83316 
L 300.087591 -95.83316 
L 300.087591 -96.107065 
L 303.345985 -96.107065 
L 303.345985 -96.370939 
L 306.60438 -96.370939 
L 306.60438 -96.644146 
L 309.862774 -96.644146 
L 309.862774 -96.90425 
L 313.121168 -96.90425 
L 313.121168 -97.126747 
L 316.379562 -97.126747 
L 316.379562 -97.245188 
L 319.637956 -97.245188 
L 319.637956 -105.900423 
L 322.89635 -105.900423 
L 322.89635 -106.672715 
L 326.154745 -106.672715 
L 326.154745 -107.376522 
L 329.413139 -107.376522 
L 329.413139 -108.11956 
L 332.671533 -108.11956 
L 332.671533 -108.878854 
L 335.929927 -108.878854 
L 335.929927 -109.694565 
L 339.188321 -109.694565 
L 339.188321 -109.932549 
L 342.446715 -109.932549 
L 342.446715 -117.490241 
L 345.705109 -117.490241 
L 345.705109 -117.964297 
L 348.963504 -117.964297 
L 348.963504 -118.706965 
L 352.221898 -118.706965 
L 352.221898 -119.747891 
L 355.480292 -119.747891 
L 355.480292 -120.531152 
L 358.738686 -120.531152 
L 358.738686 -142.46496 
L 358.738686 -142.46496 
L 355.480292 -142.46496 
L 355.480292 -142.46496 
L 352.221898 -142.46496 
L 352.221898 -142.46496 
L 348.963504 -142.46496 
L 348.963504 -142.46496 
L 345.705109 -142.46496 
L 345.705109 -142.46496 
L 342.446715 -142.46496 
L 342.446715 -127.453392 
L 339.188321 -127.453392 
L 339.188321 -127.453392 
L 335.929927 -127.453392 
L 335.929927 -127.453392 
L 332.671533 -127.453392 
L 332.671533 -127.453392 
L 329.413139 -127.453392 
L 329.413139 -127.453392 
L 326.154745 -127.453392 
L 326.154745 -127.453392 
L 322.89635 -127.453392 
L 322.89635 -127.453392 
L 319.637956 -127.453392 
L 319.637956 -112.441824 
L 316.379562 -112.441824 
L 316.379562 -112.441824 
L 313.121168 -112.441824 
L 313.121168 -112.441824 
L 309.862774 -112.441824 
L 309.862774 -112.441824 
L 306.60438 -112.441824 
L 306.60438 -112.441824 
L 303.345985 -112.441824 
L 303.345985 -112.441824 
L 300.087591 -112.441824 
L 300.087591 -112.441824 
L 296.829197 -112.441824 
L 296.829197 -105.04296 
L 293.570803 -105.04296 
L 293.570803 -105.04296 
L 290.312409 -105.04296 
L 290.312409 -105.04296 
L 287.054015 -105.04296 
L 287.054015 -105.04296 
L 283.79562 -105.04296 
L 283.79562 -105.04296 
L 280.537226 -105.04296 
L 280.537226 -105.04296 
L 277.278832 -105.04296 
L 277.278832 -105.04296 
L 274.020438 -105.04296 
L 274.020438 -97.644096 
L 270.762044 -97.644096 
L 270.762044 -97.644096 
L 267.50365 -97.644096 
L 267.50365 -97.644096 
L 264.245255 -97.644096 
L 264.245255 -97.644096 
L 260.986861 -97.644096 
L 260.986861 -97.644096 
L 257.728467 -97.644096 
L 257.728467 -97.644096 
L 254.470073 -97.644096 
L 254.470073 -97.644096 
L 251.211679 -97.644096 
L 251.211679 -84.72816 
L 247.953285 -84.72816 
L 247.953285 -84.72816 
L 244.694891 -84.72816 
L 244.694891 -84.72816 
L 241.436496 -84.72816 
L 241.436496 -84.72816 
L 238.178102 -84.72816 
L 238.178102 -84.72816 
L 234.919708 -84.72816 
L 234.919708 -84.72816 
L 231.661314 -84.72816 
L 231.661314 -84.72816 
L 228.40292 -84.72816 
L 228.40292 -79.638768 
L 225.144526 -79.638768 
L 225.144526 -79.638768 
L 221.886131 -79.638768 
L 221.886131 -79.638768 
L 218.627737 -79.638768 
L 218.627737 -79.638768 
L 215.369343 -79.638768 
L 215.369343 -79.638768 
L 212.110949 -79.638768 
L 212.110949 -79.638768 
L 208.852555 -79.638768 
L 208.852555 -79.638768 
L 205.594161 -79.638768 
L 205.594161 -79.638768 
L 202.335766 -79.638768 
L 202.335766 -79.638768 
L 199.077372 -79.638768 
L 199.077372 -79.638768 
L 195.818978 -79.638768 
L 195.818978 -79.638768 
L 192.560584 -79.638768 
L 192.560584 -79.638768 
L 189.30219 -79.638768 
L 189.30219 -79.638768 
L 186.043796 -79.638768 
L 186.043796 -79.638768 
L 182.785401 -79.638768 
L 182.785401 -72.838656 
L 179.527007 -72.838656 
L 179.527007 -72.838656 
L 176.268613 -72.838656 
L 176.268613 -72.838656 
L 173.010219 -72.838656 
L 173.010219 -72.838656 
L 169.751825 -72.838656 
L 169.751825 -72.838656 
L 166.493431 -72.838656 
L 166.493431 -72.838656 
L 163.235036 -72.838656 
L 163.235036 -72.838656 
L 159.976642 -72.838656 
L 159.976642 -72.838656 
L 156.718248 -72.838656 
L 156.718248 -72.838656 
L 153.459854 -72.838656 
L 153.459854 -72.838656 
L 150.20146 -72.838656 
L 150.20146 -72.838656 
L 146.943066 -72.838656 
L 146.943066 -72.838656 
L 143.684672 -72.838656 
L 143.684672 -72.838656 
L 140.426277 -72.838656 
L 140.426277 -72.838656 
L 137.167883 -72.838656 
L 137.167883 -66.466224 
L 133.909489 -66.466224 
L 133.909489 -66.466224 
L 130.651095 -66.466224 
L 130.651095 -66.466224 
L 127.392701 -66.466224 
L 127.392701 -66.466224 
L 124.134307 -66.466224 
L 124.134307 -66.466224 
L 120.875912 -66.466224 
L 120.875912 -66.466224 
L 117.617518 -66.466224 
L 117.617518 -66.466224 
L 114.359124 -66.466224 
L 114.359124 -60.692544 
L 111.10073 -60.692544 
L 111.10073 -60.692544 
L 107.842336 -60.692544 
L 107.842336 -60.692544 
L 104.583942 -60.692544 
L 104.583942 -60.692544 
L 101.325547 -60.692544 
L 101.325547 -60.692544 
L 98.067153 -60.692544 
L 98.067153 -60.692544 
L 94.808759 -60.692544 
L 94.808759 -60.692544 
L 91.550365 -60.692544 
L 91.550365 -53.593056 
L 88.291971 -53.593056 
L 88.291971 -53.593056 
L 85.033577 -53.593056 
L 85.033577 -53.593056 
L 81.775182 -53.593056 
L 81.775182 -53.593056 
L 78.516788 -53.593056 
L 78.516788 -53.593056 
L 75.258394 -53.593056 
L 75.258394 -53.593056 
L 72 -53.593056 
L 72 -53.593056 
z
" id="mb48b4356f3"/>
    </defs>
    <g clip-path="url(#p90f8789eeb)">
     <use style="fill:#d62728;" x="0" xlink:href="#mb48b4356f3" y="432"/>
    </g>
   </g>
   <g id="matplotlib.axis_1">
    <g id="xtick_1">
     <g id="line2d_1">
      <path clip-path="url(#p90f8789eeb)" d="M 94.808759 384.48 
L 94.808759 51.84 
" style="fill:none;stroke:#000000;stroke-dasharray:0.8,1.32;stroke-dashoffset:0;stroke-width:0.8;"/>
     </g>
     <g id="line2d_2">
      <defs>
       <path d="M 0 0 
L 0 3.5 
" id="mb69323e120" style="stroke:#000000;stroke-width:0.8;"/>
      </defs>
      <g>
       <use style="stroke:#000000;stroke-width:0.8;" x="94.808759" xlink:href="#mb69323e120" y="384.48"/>
      </g>
     </g>
     <g id="text_1">
      <!-- Mar -->
      <g transform="translate(85.375165 399.078438)scale(0.1 -0.1)">
       <defs>
        <path d="M 628 4666 
L 1569 4666 
L 2759 1491 
L 3956 4666 
L 4897 4666 
L 4897 0 
L 4281 0 
L 4281 4097 
L 3078 897 
L 2444 897 
L 1241 4097 
L 1241 0 
L 628 0 
L 628 4666 
z
" id="DejaVuSans-4d" transform="scale(0.015625)"/>
        <path d="M 2194 1759 
Q 1497 1759 1228 1600 
Q 959 1441 959 1056 
Q 959 750 1161 570 
Q 1363 391 1709 391 
Q 2188 391 2477 730 
Q 2766 1069 2766 1631 
L 2766 1759 
L 2194 1759 
z
M 3341 1997 
L 3341 0 
L 2766 0 
L 2766 531 
Q 2569 213 2275 61 
Q 1981 -91 1556 -91 
Q 1019 -91 701 211 
Q 384 513 384 1019 
Q 384 1609 779 1909 
Q 1175 2209 1959 2209 
L 2766 2209 
L 2766 2266 
Q 2766 2663 2505 2880 
Q 2244 3097 1772 3097 
Q 1472 3097 1187 3025 
Q 903 2953 641 2809 
L 641 3341 
Q 956 3463 1253 3523 
Q 1550 3584 1831 3584 
Q 2591 3584 2966 3190 
Q 3341 2797 3341 1997 
z
" id="DejaVuSans-61" transform="scale(0.015625)"/>
        <path d="M 2631 2963 
Q 2534 3019 2420 3045 
Q 2306 3072 2169 3072 
Q 1681 3072 1420 2755 
Q 1159 2438 1159 1844 
L 1159 0 
L 581 0 
L 581 3500 
L 1159 3500 
L 1159 2956 
Q 1341 3275 1631 3429 
Q 1922 3584 2338 3584 
Q 2397 3584 2469 3576 
Q 2541 3569 2628 3553 
L 2631 2963 
z
" id="DejaVuSans-72" transform="scale(0.015625)"/>
       </defs>
       <use xlink:href="#DejaVuSans-4d"/>
       <use x="86.279297" xlink:href="#DejaVuSans-61"/>
       <use x="147.558594" xlink:href="#DejaVuSans-72"/>
      </g>
     </g>
    </g>
    <g id="xtick_2">
     <g id="line2d_3">
      <path clip-path="url(#p90f8789eeb)" d="M 140.426277 384.48 
L 140.426277 51.84 
" style="fill:none;stroke:#000000;stroke-dasharray:0.8,1.32;stroke-dashoffset:0;stroke-width:0.8;"/>
     </g>
     <g id="line2d_4">
      <g>
       <use style="stroke:#000000;stroke-width:0.8;" x="140.426277" xlink:href="#mb69323e120" y="384.48"/>
      </g>
     </g>
     <g id="text_2">
      <!-- 15 -->
      <g transform="translate(134.063777 399.078438)scale(0.1 -0.1)">
       <defs>
        <path d="M 794 531 
L 1825 531 
L 1825 4091 
L 703 3866 
L 703 4441 
L 1819 4666 
L 2450 4666 
L 2450 531 
L 3481 531 
L 3481 0 
L 794 0 
L 794 531 
z
" id="DejaVuSans-31" transform="scale(0.015625)"/>
        <path d="M 691 4666 
L 3169 4666 
L 3169 4134 
L 1269 4134 
L 1269 2991 
Q 1406 3038 1543 3061 
Q 1681 3084 1819 3084 
Q 2600 3084 3056 2656 
Q 3513 2228 3513 1497 
Q 3513 744 3044 326 
Q 2575 -91 1722 -91 
Q 1428 -91 1123 -41 
Q 819 9 494 109 
L 494 744 
Q 775 591 1075 516 
Q 1375 441 1709 441 
Q 2250 441 2565 725 
Q 2881 1009 2881 1497 
Q 2881 1984 2565 2268 
Q 2250 2553 1709 2553 
Q 1456 2553 1204 2497 
Q 953 2441 691 2322 
L 691 4666 
z
" id="DejaVuSans-35" transform="scale(0.015625)"/>
       </defs>
       <use xlink:href="#DejaVuSans-31"/>
       <use x="63.623047" xlink:href="#DejaVuSans-35"/>
      </g>
     </g>
    </g>
    <g id="xtick_3">
     <g id="line2d_5">
      <path clip-path="url(#p90f8789eeb)" d="M 195.818978 384.48 
L 195.818978 51.84 
" style="fill:none;stroke:#000000;stroke-dasharray:0.8,1.32;stroke-dashoffset:0;stroke-width:0.8;"/>
     </g>
     <g id="line2d_6">
      <g>
       <use style="stroke:#000000;stroke-width:0.8;" x="195.818978" xlink:href="#mb69323e120" y="384.48"/>
      </g>
     </g>
     <g id="text_3">
      <!-- Apr -->
      <g transform="translate(187.168978 399.078438)scale(0.1 -0.1)">
       <defs>
        <path d="M 2188 4044 
L 1331 1722 
L 3047 1722 
L 2188 4044 
z
M 1831 4666 
L 2547 4666 
L 4325 0 
L 3669 0 
L 3244 1197 
L 1141 1197 
L 716 0 
L 50 0 
L 1831 4666 
z
" id="DejaVuSans-41" transform="scale(0.015625)"/>
        <path d="M 1159 525 
L 1159 -1331 
L 581 -1331 
L 581 3500 
L 1159 3500 
L 1159 2969 
Q 1341 3281 1617 3432 
Q 1894 3584 2278 3584 
Q 2916 3584 3314 3078 
Q 3713 2572 3713 1747 
Q 3713 922 3314 415 
Q 2916 -91 2278 -91 
Q 1894 -91 1617 61 
Q 1341 213 1159 525 
z
M 3116 1747 
Q 3116 2381 2855 2742 
Q 2594 3103 2138 3103 
Q 1681 3103 1420 2742 
Q 1159 2381 1159 1747 
Q 1159 1113 1420 752 
Q 1681 391 2138 391 
Q 2594 391 2855 752 
Q 3116 1113 3116 1747 
z
" id="DejaVuSans-70" transform="scale(0.015625)"/>
       </defs>
       <use xlink:href="#DejaVuSans-41"/>
       <use x="68.408203" xlink:href="#DejaVuSans-70"/>
       <use x="131.884766" xlink:href="#DejaVuSans-72"/>
      </g>
     </g>
    </g>
    <g id="xtick_4">
     <g id="line2d_7">
      <path clip-path="url(#p90f8789eeb)" d="M 241.436496 384.48 
L 241.436496 51.84 
" style="fill:none;stroke:#000000;stroke-dasharray:0.8,1.32;stroke-dashoffset:0;stroke-width:0.8;"/>
     </g>
     <g id="line2d_8">
      <g>
       <use style="stroke:#000000;stroke-width:0.8;" x="241.436496" xlink:href="#mb69323e120" y="384.48"/>
      </g>
     </g>
     <g id="text_4">
      <!-- 15 -->
      <g transform="translate(235.073996 399.078438)scale(0.1 -0.1)">
       <use xlink:href="#DejaVuSans-31"/>
       <use x="63.623047" xlink:href="#DejaVuSans-35"/>
      </g>
     </g>
    </g>
    <g id="xtick_5">
     <g id="line2d_9">
      <path clip-path="url(#p90f8789eeb)" d="M 293.570803 384.48 
L 293.570803 51.84 
" style="fill:none;stroke:#000000;stroke-dasharray:0.8,1.32;stroke-dashoffset:0;stroke-width:0.8;"/>
     </g>
     <g id="line2d_10">
      <g>
       <use style="stroke:#000000;stroke-width:0.8;" x="293.570803" xlink:href="#mb69323e120" y="384.48"/>
      </g>
     </g>
     <g id="text_5">
      <!-- May -->
      <g transform="translate(283.233303 399.078438)scale(0.1 -0.1)">
       <defs>
        <path d="M 2059 -325 
Q 1816 -950 1584 -1140 
Q 1353 -1331 966 -1331 
L 506 -1331 
L 506 -850 
L 844 -850 
Q 1081 -850 1212 -737 
Q 1344 -625 1503 -206 
L 1606 56 
L 191 3500 
L 800 3500 
L 1894 763 
L 2988 3500 
L 3597 3500 
L 2059 -325 
z
" id="DejaVuSans-79" transform="scale(0.015625)"/>
       </defs>
       <use xlink:href="#DejaVuSans-4d"/>
       <use x="86.279297" xlink:href="#DejaVuSans-61"/>
       <use x="147.558594" xlink:href="#DejaVuSans-79"/>
      </g>
     </g>
    </g>
    <g id="xtick_6">
     <g id="line2d_11">
      <path clip-path="url(#p90f8789eeb)" d="M 339.188321 384.48 
L 339.188321 51.84 
" style="fill:none;stroke:#000000;stroke-dasharray:0.8,1.32;stroke-dashoffset:0;stroke-width:0.8;"/>
     </g>
     <g id="line2d_12">
      <g>
       <use style="stroke:#000000;stroke-width:0.8;" x="339.188321" xlink:href="#mb69323e120" y="384.48"/>
      </g>
     </g>
     <g id="text_6">
      <!-- 15 -->
      <g transform="translate(332.825821 399.078438)scale(0.1 -0.1)">
       <use xlink:href="#DejaVuSans-31"/>
       <use x="63.623047" xlink:href="#DejaVuSans-35"/>
      </g>
     </g>
    </g>
    <g id="xtick_7">
     <g id="line2d_13">
      <path clip-path="url(#p90f8789eeb)" d="M 394.581022 384.48 
L 394.581022 51.84 
" style="fill:none;stroke:#000000;stroke-dasharray:0.8,1.32;stroke-dashoffset:0;stroke-width:0.8;"/>
     </g>
     <g id="line2d_14">
      <g>
       <use style="stroke:#000000;stroke-width:0.8;" x="394.581022" xlink:href="#mb69323e120" y="384.48"/>
      </g>
     </g>
     <g id="text_7">
      <!-- Jun -->
      <g transform="translate(386.768522 399.078438)scale(0.1 -0.1)">
       <defs>
        <path d="M 628 4666 
L 1259 4666 
L 1259 325 
Q 1259 -519 939 -900 
Q 619 -1281 -91 -1281 
L -331 -1281 
L -331 -750 
L -134 -750 
Q 284 -750 456 -515 
Q 628 -281 628 325 
L 628 4666 
z
" id="DejaVuSans-4a" transform="scale(0.015625)"/>
        <path d="M 544 1381 
L 544 3500 
L 1119 3500 
L 1119 1403 
Q 1119 906 1312 657 
Q 1506 409 1894 409 
Q 2359 409 2629 706 
Q 2900 1003 2900 1516 
L 2900 3500 
L 3475 3500 
L 3475 0 
L 2900 0 
L 2900 538 
Q 2691 219 2414 64 
Q 2138 -91 1772 -91 
Q 1169 -91 856 284 
Q 544 659 544 1381 
z
M 1991 3584 
L 1991 3584 
z
" id="DejaVuSans-75" transform="scale(0.015625)"/>
        <path d="M 3513 2113 
L 3513 0 
L 2938 0 
L 2938 2094 
Q 2938 2591 2744 2837 
Q 2550 3084 2163 3084 
Q 1697 3084 1428 2787 
Q 1159 2491 1159 1978 
L 1159 0 
L 581 0 
L 581 3500 
L 1159 3500 
L 1159 2956 
Q 1366 3272 1645 3428 
Q 1925 3584 2291 3584 
Q 2894 3584 3203 3211 
Q 3513 2838 3513 2113 
z
" id="DejaVuSans-6e" transform="scale(0.015625)"/>
       </defs>
       <use xlink:href="#DejaVuSans-4a"/>
       <use x="29.492188" xlink:href="#DejaVuSans-75"/>
       <use x="92.871094" xlink:href="#DejaVuSans-6e"/>
      </g>
     </g>
    </g>
    <g id="xtick_8">
     <g id="line2d_15">
      <path clip-path="url(#p90f8789eeb)" d="M 440.19854 384.48 
L 440.19854 51.84 
" style="fill:none;stroke:#000000;stroke-dasharray:0.8,1.32;stroke-dashoffset:0;stroke-width:0.8;"/>
     </g>
     <g id="line2d_16">
      <g>
       <use style="stroke:#000000;stroke-width:0.8;" x="440.19854" xlink:href="#mb69323e120" y="384.48"/>
      </g>
     </g>
     <g id="text_8">
      <!-- 15 -->
      <g transform="translate(433.83604 399.078438)scale(0.1 -0.1)">
       <use xlink:href="#DejaVuSans-31"/>
       <use x="63.623047" xlink:href="#DejaVuSans-35"/>
      </g>
     </g>
    </g>
    <g id="xtick_9">
     <g id="line2d_17">
      <path clip-path="url(#p90f8789eeb)" d="M 492.332847 384.48 
L 492.332847 51.84 
" style="fill:none;stroke:#000000;stroke-dasharray:0.8,1.32;stroke-dashoffset:0;stroke-width:0.8;"/>
     </g>
     <g id="line2d_18">
      <g>
       <use style="stroke:#000000;stroke-width:0.8;" x="492.332847" xlink:href="#mb69323e120" y="384.48"/>
      </g>
     </g>
     <g id="text_9">
      <!-- Jul -->
      <g transform="translate(486.300034 399.078438)scale(0.1 -0.1)">
       <defs>
        <path d="M 603 4863 
L 1178 4863 
L 1178 0 
L 603 0 
L 603 4863 
z
" id="DejaVuSans-6c" transform="scale(0.015625)"/>
       </defs>
       <use xlink:href="#DejaVuSans-4a"/>
       <use x="29.492188" xlink:href="#DejaVuSans-75"/>
       <use x="92.871094" xlink:href="#DejaVuSans-6c"/>
      </g>
     </g>
    </g>
   </g>
   <g id="matplotlib.axis_2">
    <g id="ytick_1">
     <g id="line2d_19">
      <path clip-path="url(#p90f8789eeb)" d="M 72 384.48 
L 518.4 384.48 
" style="fill:none;stroke:#000000;stroke-dasharray:0.8,1.32;stroke-dashoffset:0;stroke-width:0.8;"/>
     </g>
     <g id="line2d_20">
      <defs>
       <path d="M 0 0 
L -3.5 0 
" id="m4422089d75" style="stroke:#000000;stroke-width:0.8;"/>
      </defs>
      <g>
       <use style="stroke:#000000;stroke-width:0.8;" x="72" xlink:href="#m4422089d75" y="384.48"/>
      </g>
     </g>
     <g id="text_10">
      <!-- 0 -->
      <g transform="translate(58.6375 388.279219)scale(0.1 -0.1)">
       <defs>
        <path d="M 2034 4250 
Q 1547 4250 1301 3770 
Q 1056 3291 1056 2328 
Q 1056 1369 1301 889 
Q 1547 409 2034 409 
Q 2525 409 2770 889 
Q 3016 1369 3016 2328 
Q 3016 3291 2770 3770 
Q 2525 4250 2034 4250 
z
M 2034 4750 
Q 2819 4750 3233 4129 
Q 3647 3509 3647 2328 
Q 3647 1150 3233 529 
Q 2819 -91 2034 -91 
Q 1250 -91 836 529 
Q 422 1150 422 2328 
Q 422 3509 836 4129 
Q 1250 4750 2034 4750 
z
" id="DejaVuSans-30" transform="scale(0.015625)"/>
       </defs>
       <use xlink:href="#DejaVuSans-30"/>
      </g>
     </g>
    </g>
    <g id="ytick_2">
     <g id="line2d_21">
      <path clip-path="url(#p90f8789eeb)" d="M 72 336.96 
L 518.4 336.96 
" style="fill:none;stroke:#000000;stroke-dasharray:0.8,1.32;stroke-dashoffset:0;stroke-width:0.8;"/>
     </g>
     <g id="line2d_22">
      <g>
       <use style="stroke:#000000;stroke-width:0.8;" x="72" xlink:href="#m4422089d75" y="336.96"/>
      </g>
     </g>
     <g id="text_11">
      <!-- 1 -->
      <g transform="translate(58.6375 340.759219)scale(0.1 -0.1)">
       <use xlink:href="#DejaVuSans-31"/>
      </g>
     </g>
    </g>
    <g id="ytick_3">
     <g id="line2d_23">
      <path clip-path="url(#p90f8789eeb)" d="M 72 289.44 
L 518.4 289.44 
" style="fill:none;stroke:#000000;stroke-dasharray:0.8,1.32;stroke-dashoffset:0;stroke-width:0.8;"/>
     </g>
     <g id="line2d_24">
      <g>
       <use style="stroke:#000000;stroke-width:0.8;" x="72" xlink:href="#m4422089d75" y="289.44"/>
      </g>
     </g>
     <g id="text_12">
      <!-- 2 -->
      <g transform="translate(58.6375 293.239219)scale(0.1 -0.1)">
       <defs>
        <path d="M 1228 531 
L 3431 531 
L 3431 0 
L 469 0 
L 469 531 
Q 828 903 1448 1529 
Q 2069 2156 2228 2338 
Q 2531 2678 2651 2914 
Q 2772 3150 2772 3378 
Q 2772 3750 2511 3984 
Q 2250 4219 1831 4219 
Q 1534 4219 1204 4116 
Q 875 4013 500 3803 
L 500 4441 
Q 881 4594 1212 4672 
Q 1544 4750 1819 4750 
Q 2544 4750 2975 4387 
Q 3406 4025 3406 3419 
Q 3406 3131 3298 2873 
Q 3191 2616 2906 2266 
Q 2828 2175 2409 1742 
Q 1991 1309 1228 531 
z
" id="DejaVuSans-32" transform="scale(0.015625)"/>
       </defs>
       <use xlink:href="#DejaVuSans-32"/>
      </g>
     </g>
    </g>
    <g id="ytick_4">
     <g id="line2d_25">
      <path clip-path="url(#p90f8789eeb)" d="M 72 241.92 
L 518.4 241.92 
" style="fill:none;stroke:#000000;stroke-dasharray:0.8,1.32;stroke-dashoffset:0;stroke-width:0.8;"/>
     </g>
     <g id="line2d_26">
      <g>
       <use style="stroke:#000000;stroke-width:0.8;" x="72" xlink:href="#m4422089d75" y="241.92"/>
      </g>
     </g>
     <g id="text_13">
      <!-- 3 -->
      <g transform="translate(58.6375 245.719219)scale(0.1 -0.1)">
       <defs>
        <path d="M 2597 2516 
Q 3050 2419 3304 2112 
Q 3559 1806 3559 1356 
Q 3559 666 3084 287 
Q 2609 -91 1734 -91 
Q 1441 -91 1130 -33 
Q 819 25 488 141 
L 488 750 
Q 750 597 1062 519 
Q 1375 441 1716 441 
Q 2309 441 2620 675 
Q 2931 909 2931 1356 
Q 2931 1769 2642 2001 
Q 2353 2234 1838 2234 
L 1294 2234 
L 1294 2753 
L 1863 2753 
Q 2328 2753 2575 2939 
Q 2822 3125 2822 3475 
Q 2822 3834 2567 4026 
Q 2313 4219 1838 4219 
Q 1578 4219 1281 4162 
Q 984 4106 628 3988 
L 628 4550 
Q 988 4650 1302 4700 
Q 1616 4750 1894 4750 
Q 2613 4750 3031 4423 
Q 3450 4097 3450 3541 
Q 3450 3153 3228 2886 
Q 3006 2619 2597 2516 
z
" id="DejaVuSans-33" transform="scale(0.015625)"/>
       </defs>
       <use xlink:href="#DejaVuSans-33"/>
      </g>
     </g>
    </g>
    <g id="ytick_5">
     <g id="line2d_27">
      <path clip-path="url(#p90f8789eeb)" d="M 72 194.4 
L 518.4 194.4 
" style="fill:none;stroke:#000000;stroke-dasharray:0.8,1.32;stroke-dashoffset:0;stroke-width:0.8;"/>
     </g>
     <g id="line2d_28">
      <g>
       <use style="stroke:#000000;stroke-width:0.8;" x="72" xlink:href="#m4422089d75" y="194.4"/>
      </g>
     </g>
     <g id="text_14">
      <!-- 4 -->
      <g transform="translate(58.6375 198.199219)scale(0.1 -0.1)">
       <defs>
        <path d="M 2419 4116 
L 825 1625 
L 2419 1625 
L 2419 4116 
z
M 2253 4666 
L 3047 4666 
L 3047 1625 
L 3713 1625 
L 3713 1100 
L 3047 1100 
L 3047 0 
L 2419 0 
L 2419 1100 
L 313 1100 
L 313 1709 
L 2253 4666 
z
" id="DejaVuSans-34" transform="scale(0.015625)"/>
       </defs>
       <use xlink:href="#DejaVuSans-34"/>
      </g>
     </g>
    </g>
    <g id="ytick_6">
     <g id="line2d_29">
      <path clip-path="url(#p90f8789eeb)" d="M 72 146.88 
L 518.4 146.88 
" style="fill:none;stroke:#000000;stroke-dasharray:0.8,1.32;stroke-dashoffset:0;stroke-width:0.8;"/>
     </g>
     <g id="line2d_30">
      <g>
       <use style="stroke:#000000;stroke-width:0.8;" x="72" xlink:href="#m4422089d75" y="146.88"/>
      </g>
     </g>
     <g id="text_15">
      <!-- 5 -->
      <g transform="translate(58.6375 150.679219)scale(0.1 -0.1)">
       <use xlink:href="#DejaVuSans-35"/>
      </g>
     </g>
    </g>
    <g id="ytick_7">
     <g id="line2d_31">
      <path clip-path="url(#p90f8789eeb)" d="M 72 99.36 
L 518.4 99.36 
" style="fill:none;stroke:#000000;stroke-dasharray:0.8,1.32;stroke-dashoffset:0;stroke-width:0.8;"/>
     </g>
     <g id="line2d_32">
      <g>
       <use style="stroke:#000000;stroke-width:0.8;" x="72" xlink:href="#m4422089d75" y="99.36"/>
      </g>
     </g>
     <g id="text_16">
      <!-- 6 -->
      <g transform="translate(58.6375 103.159219)scale(0.1 -0.1)">
       <defs>
        <path d="M 2113 2584 
Q 1688 2584 1439 2293 
Q 1191 2003 1191 1497 
Q 1191 994 1439 701 
Q 1688 409 2113 409 
Q 2538 409 2786 701 
Q 3034 994 3034 1497 
Q 3034 2003 2786 2293 
Q 2538 2584 2113 2584 
z
M 3366 4563 
L 3366 3988 
Q 3128 4100 2886 4159 
Q 2644 4219 2406 4219 
Q 1781 4219 1451 3797 
Q 1122 3375 1075 2522 
Q 1259 2794 1537 2939 
Q 1816 3084 2150 3084 
Q 2853 3084 3261 2657 
Q 3669 2231 3669 1497 
Q 3669 778 3244 343 
Q 2819 -91 2113 -91 
Q 1303 -91 875 529 
Q 447 1150 447 2328 
Q 447 3434 972 4092 
Q 1497 4750 2381 4750 
Q 2619 4750 2861 4703 
Q 3103 4656 3366 4563 
z
" id="DejaVuSans-36" transform="scale(0.015625)"/>
       </defs>
       <use xlink:href="#DejaVuSans-36"/>
      </g>
     </g>
    </g>
    <g id="ytick_8">
     <g id="line2d_33">
      <path clip-path="url(#p90f8789eeb)" d="M 72 51.84 
L 518.4 51.84 
" style="fill:none;stroke:#000000;stroke-dasharray:0.8,1.32;stroke-dashoffset:0;stroke-width:0.8;"/>
     </g>
     <g id="line2d_34">
      <g>
       <use style="stroke:#000000;stroke-width:0.8;" x="72" xlink:href="#m4422089d75" y="51.84"/>
      </g>
     </g>
     <g id="text_17">
      <!-- 7 -->
      <g transform="translate(58.6375 55.639219)scale(0.1 -0.1)">
       <defs>
        <path d="M 525 4666 
L 3525 4666 
L 3525 4397 
L 1831 0 
L 1172 0 
L 2766 4134 
L 525 4134 
L 525 4666 
z
" id="DejaVuSans-37" transform="scale(0.015625)"/>
       </defs>
       <use xlink:href="#DejaVuSans-37"/>
      </g>
     </g>
    </g>
    <g id="text_18">
     <!-- Cumulative doses (millions) -->
     <g transform="translate(52.557812 287.556094)rotate(-90)scale(0.1 -0.1)">
      <defs>
       <path d="M 4122 4306 
L 4122 3641 
Q 3803 3938 3442 4084 
Q 3081 4231 2675 4231 
Q 1875 4231 1450 3742 
Q 1025 3253 1025 2328 
Q 1025 1406 1450 917 
Q 1875 428 2675 428 
Q 3081 428 3442 575 
Q 3803 722 4122 1019 
L 4122 359 
Q 3791 134 3420 21 
Q 3050 -91 2638 -91 
Q 1578 -91 968 557 
Q 359 1206 359 2328 
Q 359 3453 968 4101 
Q 1578 4750 2638 4750 
Q 3056 4750 3426 4639 
Q 3797 4528 4122 4306 
z
" id="DejaVuSans-43" transform="scale(0.015625)"/>
       <path d="M 3328 2828 
Q 3544 3216 3844 3400 
Q 4144 3584 4550 3584 
Q 5097 3584 5394 3201 
Q 5691 2819 5691 2113 
L 5691 0 
L 5113 0 
L 5113 2094 
Q 5113 2597 4934 2840 
Q 4756 3084 4391 3084 
Q 3944 3084 3684 2787 
Q 3425 2491 3425 1978 
L 3425 0 
L 2847 0 
L 2847 2094 
Q 2847 2600 2669 2842 
Q 2491 3084 2119 3084 
Q 1678 3084 1418 2786 
Q 1159 2488 1159 1978 
L 1159 0 
L 581 0 
L 581 3500 
L 1159 3500 
L 1159 2956 
Q 1356 3278 1631 3431 
Q 1906 3584 2284 3584 
Q 2666 3584 2933 3390 
Q 3200 3197 3328 2828 
z
" id="DejaVuSans-6d" transform="scale(0.015625)"/>
       <path d="M 1172 4494 
L 1172 3500 
L 2356 3500 
L 2356 3053 
L 1172 3053 
L 1172 1153 
Q 1172 725 1289 603 
Q 1406 481 1766 481 
L 2356 481 
L 2356 0 
L 1766 0 
Q 1100 0 847 248 
Q 594 497 594 1153 
L 594 3053 
L 172 3053 
L 172 3500 
L 594 3500 
L 594 4494 
L 1172 4494 
z
" id="DejaVuSans-74" transform="scale(0.015625)"/>
       <path d="M 603 3500 
L 1178 3500 
L 1178 0 
L 603 0 
L 603 3500 
z
M 603 4863 
L 1178 4863 
L 1178 4134 
L 603 4134 
L 603 4863 
z
" id="DejaVuSans-69" transform="scale(0.015625)"/>
       <path d="M 191 3500 
L 800 3500 
L 1894 563 
L 2988 3500 
L 3597 3500 
L 2284 0 
L 1503 0 
L 191 3500 
z
" id="DejaVuSans-76" transform="scale(0.015625)"/>
       <path d="M 3597 1894 
L 3597 1613 
L 953 1613 
Q 991 1019 1311 708 
Q 1631 397 2203 397 
Q 2534 397 2845 478 
Q 3156 559 3463 722 
L 3463 178 
Q 3153 47 2828 -22 
Q 2503 -91 2169 -91 
Q 1331 -91 842 396 
Q 353 884 353 1716 
Q 353 2575 817 3079 
Q 1281 3584 2069 3584 
Q 2775 3584 3186 3129 
Q 3597 2675 3597 1894 
z
M 3022 2063 
Q 3016 2534 2758 2815 
Q 2500 3097 2075 3097 
Q 1594 3097 1305 2825 
Q 1016 2553 972 2059 
L 3022 2063 
z
" id="DejaVuSans-65" transform="scale(0.015625)"/>
       <path id="DejaVuSans-20" transform="scale(0.015625)"/>
       <path d="M 2906 2969 
L 2906 4863 
L 3481 4863 
L 3481 0 
L 2906 0 
L 2906 525 
Q 2725 213 2448 61 
Q 2172 -91 1784 -91 
Q 1150 -91 751 415 
Q 353 922 353 1747 
Q 353 2572 751 3078 
Q 1150 3584 1784 3584 
Q 2172 3584 2448 3432 
Q 2725 3281 2906 2969 
z
M 947 1747 
Q 947 1113 1208 752 
Q 1469 391 1925 391 
Q 2381 391 2643 752 
Q 2906 1113 2906 1747 
Q 2906 2381 2643 2742 
Q 2381 3103 1925 3103 
Q 1469 3103 1208 2742 
Q 947 2381 947 1747 
z
" id="DejaVuSans-64" transform="scale(0.015625)"/>
       <path d="M 1959 3097 
Q 1497 3097 1228 2736 
Q 959 2375 959 1747 
Q 959 1119 1226 758 
Q 1494 397 1959 397 
Q 2419 397 2687 759 
Q 2956 1122 2956 1747 
Q 2956 2369 2687 2733 
Q 2419 3097 1959 3097 
z
M 1959 3584 
Q 2709 3584 3137 3096 
Q 3566 2609 3566 1747 
Q 3566 888 3137 398 
Q 2709 -91 1959 -91 
Q 1206 -91 779 398 
Q 353 888 353 1747 
Q 353 2609 779 3096 
Q 1206 3584 1959 3584 
z
" id="DejaVuSans-6f" transform="scale(0.015625)"/>
       <path d="M 2834 3397 
L 2834 2853 
Q 2591 2978 2328 3040 
Q 2066 3103 1784 3103 
Q 1356 3103 1142 2972 
Q 928 2841 928 2578 
Q 928 2378 1081 2264 
Q 1234 2150 1697 2047 
L 1894 2003 
Q 2506 1872 2764 1633 
Q 3022 1394 3022 966 
Q 3022 478 2636 193 
Q 2250 -91 1575 -91 
Q 1294 -91 989 -36 
Q 684 19 347 128 
L 347 722 
Q 666 556 975 473 
Q 1284 391 1588 391 
Q 1994 391 2212 530 
Q 2431 669 2431 922 
Q 2431 1156 2273 1281 
Q 2116 1406 1581 1522 
L 1381 1569 
Q 847 1681 609 1914 
Q 372 2147 372 2553 
Q 372 3047 722 3315 
Q 1072 3584 1716 3584 
Q 2034 3584 2315 3537 
Q 2597 3491 2834 3397 
z
" id="DejaVuSans-73" transform="scale(0.015625)"/>
       <path d="M 1984 4856 
Q 1566 4138 1362 3434 
Q 1159 2731 1159 2009 
Q 1159 1288 1364 580 
Q 1569 -128 1984 -844 
L 1484 -844 
Q 1016 -109 783 600 
Q 550 1309 550 2009 
Q 550 2706 781 3412 
Q 1013 4119 1484 4856 
L 1984 4856 
z
" id="DejaVuSans-28" transform="scale(0.015625)"/>
       <path d="M 513 4856 
L 1013 4856 
Q 1481 4119 1714 3412 
Q 1947 2706 1947 2009 
Q 1947 1309 1714 600 
Q 1481 -109 1013 -844 
L 513 -844 
Q 928 -128 1133 580 
Q 1338 1288 1338 2009 
Q 1338 2731 1133 3434 
Q 928 4138 513 4856 
z
" id="DejaVuSans-29" transform="scale(0.015625)"/>
      </defs>
      <use xlink:href="#DejaVuSans-43"/>
      <use x="69.824219" xlink:href="#DejaVuSans-75"/>
      <use x="133.203125" xlink:href="#DejaVuSans-6d"/>
      <use x="230.615234" xlink:href="#DejaVuSans-75"/>
      <use x="293.994141" xlink:href="#DejaVuSans-6c"/>
      <use x="321.777344" xlink:href="#DejaVuSans-61"/>
      <use x="383.056641" xlink:href="#DejaVuSans-74"/>
      <use x="422.265625" xlink:href="#DejaVuSans-69"/>
      <use x="450.048828" xlink:href="#DejaVuSans-76"/>
      <use x="509.228516" xlink:href="#DejaVuSans-65"/>
      <use x="570.751953" xlink:href="#DejaVuSans-20"/>
      <use x="602.539062" xlink:href="#DejaVuSans-64"/>
      <use x="666.015625" xlink:href="#DejaVuSans-6f"/>
      <use x="727.197266" xlink:href="#DejaVuSans-73"/>
      <use x="779.296875" xlink:href="#DejaVuSans-65"/>
      <use x="840.820312" xlink:href="#DejaVuSans-73"/>
      <use x="892.919922" xlink:href="#DejaVuSans-20"/>
      <use x="924.707031" xlink:href="#DejaVuSans-28"/>
      <use x="963.720703" xlink:href="#DejaVuSans-6d"/>
      <use x="1061.132812" xlink:href="#DejaVuSans-69"/>
      <use x="1088.916016" xlink:href="#DejaVuSans-6c"/>
      <use x="1116.699219" xlink:href="#DejaVuSans-6c"/>
      <use x="1144.482422" xlink:href="#DejaVuSans-69"/>
      <use x="1172.265625" xlink:href="#DejaVuSans-6f"/>
      <use x="1233.447266" xlink:href="#DejaVuSans-6e"/>
      <use x="1296.826172" xlink:href="#DejaVuSans-73"/>
      <use x="1348.925781" xlink:href="#DejaVuSans-29"/>
     </g>
    </g>
   </g>
   <g id="patch_3">
    <path d="M 72 384.48 
L 72 51.84 
" style="fill:none;stroke:#000000;stroke-linecap:square;stroke-linejoin:miter;stroke-width:0.8;"/>
   </g>
   <g id="patch_4">
    <path d="M 518.4 384.48 
L 518.4 51.84 
" style="fill:none;stroke:#000000;stroke-linecap:square;stroke-linejoin:miter;stroke-width:0.8;"/>
   </g>
   <g id="patch_5">
    <path d="M 72 384.48 
L 518.4 384.48 
" style="fill:none;stroke:#000000;stroke-linecap:square;stroke-linejoin:miter;stroke-width:0.8;"/>
   </g>
   <g id="patch_6">
    <path d="M 72 51.84 
L 518.4 51.84 
" style="fill:none;stroke:#000000;stroke-linecap:square;stroke-linejoin:miter;stroke-width:0.8;"/>
   </g>
   <g id="text_19">
    <!-- Estimated Pfizer vaccine utilisation: first dose utilisation rate: 77.8% -->
    <g transform="translate(89.73 45.84)scale(0.12 -0.12)">
     <defs>
      <path d="M 628 4666 
L 3578 4666 
L 3578 4134 
L 1259 4134 
L 1259 2753 
L 3481 2753 
L 3481 2222 
L 1259 2222 
L 1259 531 
L 3634 531 
L 3634 0 
L 628 0 
L 628 4666 
z
" id="DejaVuSans-45" transform="scale(0.015625)"/>
      <path d="M 1259 4147 
L 1259 2394 
L 2053 2394 
Q 2494 2394 2734 2622 
Q 2975 2850 2975 3272 
Q 2975 3691 2734 3919 
Q 2494 4147 2053 4147 
L 1259 4147 
z
M 628 4666 
L 2053 4666 
Q 2838 4666 3239 4311 
Q 3641 3956 3641 3272 
Q 3641 2581 3239 2228 
Q 2838 1875 2053 1875 
L 1259 1875 
L 1259 0 
L 628 0 
L 628 4666 
z
" id="DejaVuSans-50" transform="scale(0.015625)"/>
      <path d="M 2375 4863 
L 2375 4384 
L 1825 4384 
Q 1516 4384 1395 4259 
Q 1275 4134 1275 3809 
L 1275 3500 
L 2222 3500 
L 2222 3053 
L 1275 3053 
L 1275 0 
L 697 0 
L 697 3053 
L 147 3053 
L 147 3500 
L 697 3500 
L 697 3744 
Q 697 4328 969 4595 
Q 1241 4863 1831 4863 
L 2375 4863 
z
" id="DejaVuSans-66" transform="scale(0.015625)"/>
      <path d="M 353 3500 
L 3084 3500 
L 3084 2975 
L 922 459 
L 3084 459 
L 3084 0 
L 275 0 
L 275 525 
L 2438 3041 
L 353 3041 
L 353 3500 
z
" id="DejaVuSans-7a" transform="scale(0.015625)"/>
      <path d="M 3122 3366 
L 3122 2828 
Q 2878 2963 2633 3030 
Q 2388 3097 2138 3097 
Q 1578 3097 1268 2742 
Q 959 2388 959 1747 
Q 959 1106 1268 751 
Q 1578 397 2138 397 
Q 2388 397 2633 464 
Q 2878 531 3122 666 
L 3122 134 
Q 2881 22 2623 -34 
Q 2366 -91 2075 -91 
Q 1284 -91 818 406 
Q 353 903 353 1747 
Q 353 2603 823 3093 
Q 1294 3584 2113 3584 
Q 2378 3584 2631 3529 
Q 2884 3475 3122 3366 
z
" id="DejaVuSans-63" transform="scale(0.015625)"/>
      <path d="M 750 794 
L 1409 794 
L 1409 0 
L 750 0 
L 750 794 
z
M 750 3309 
L 1409 3309 
L 1409 2516 
L 750 2516 
L 750 3309 
z
" id="DejaVuSans-3a" transform="scale(0.015625)"/>
      <path d="M 684 794 
L 1344 794 
L 1344 0 
L 684 0 
L 684 794 
z
" id="DejaVuSans-2e" transform="scale(0.015625)"/>
      <path d="M 2034 2216 
Q 1584 2216 1326 1975 
Q 1069 1734 1069 1313 
Q 1069 891 1326 650 
Q 1584 409 2034 409 
Q 2484 409 2743 651 
Q 3003 894 3003 1313 
Q 3003 1734 2745 1975 
Q 2488 2216 2034 2216 
z
M 1403 2484 
Q 997 2584 770 2862 
Q 544 3141 544 3541 
Q 544 4100 942 4425 
Q 1341 4750 2034 4750 
Q 2731 4750 3128 4425 
Q 3525 4100 3525 3541 
Q 3525 3141 3298 2862 
Q 3072 2584 2669 2484 
Q 3125 2378 3379 2068 
Q 3634 1759 3634 1313 
Q 3634 634 3220 271 
Q 2806 -91 2034 -91 
Q 1263 -91 848 271 
Q 434 634 434 1313 
Q 434 1759 690 2068 
Q 947 2378 1403 2484 
z
M 1172 3481 
Q 1172 3119 1398 2916 
Q 1625 2713 2034 2713 
Q 2441 2713 2670 2916 
Q 2900 3119 2900 3481 
Q 2900 3844 2670 4047 
Q 2441 4250 2034 4250 
Q 1625 4250 1398 4047 
Q 1172 3844 1172 3481 
z
" id="DejaVuSans-38" transform="scale(0.015625)"/>
      <path d="M 4653 2053 
Q 4381 2053 4226 1822 
Q 4072 1591 4072 1178 
Q 4072 772 4226 539 
Q 4381 306 4653 306 
Q 4919 306 5073 539 
Q 5228 772 5228 1178 
Q 5228 1588 5073 1820 
Q 4919 2053 4653 2053 
z
M 4653 2450 
Q 5147 2450 5437 2106 
Q 5728 1763 5728 1178 
Q 5728 594 5436 251 
Q 5144 -91 4653 -91 
Q 4153 -91 3862 251 
Q 3572 594 3572 1178 
Q 3572 1766 3864 2108 
Q 4156 2450 4653 2450 
z
M 1428 4353 
Q 1159 4353 1004 4120 
Q 850 3888 850 3481 
Q 850 3069 1003 2837 
Q 1156 2606 1428 2606 
Q 1700 2606 1854 2837 
Q 2009 3069 2009 3481 
Q 2009 3884 1853 4118 
Q 1697 4353 1428 4353 
z
M 4250 4750 
L 4750 4750 
L 1831 -91 
L 1331 -91 
L 4250 4750 
z
M 1428 4750 
Q 1922 4750 2215 4408 
Q 2509 4066 2509 3481 
Q 2509 2891 2217 2550 
Q 1925 2209 1428 2209 
Q 931 2209 642 2551 
Q 353 2894 353 3481 
Q 353 4063 643 4406 
Q 934 4750 1428 4750 
z
" id="DejaVuSans-25" transform="scale(0.015625)"/>
     </defs>
     <use xlink:href="#DejaVuSans-45"/>
     <use x="63.183594" xlink:href="#DejaVuSans-73"/>
     <use x="115.283203" xlink:href="#DejaVuSans-74"/>
     <use x="154.492188" xlink:href="#DejaVuSans-69"/>
     <use x="182.275391" xlink:href="#DejaVuSans-6d"/>
     <use x="279.6875" xlink:href="#DejaVuSans-61"/>
     <use x="340.966797" xlink:href="#DejaVuSans-74"/>
     <use x="380.175781" xlink:href="#DejaVuSans-65"/>
     <use x="441.699219" xlink:href="#DejaVuSans-64"/>
     <use x="505.175781" xlink:href="#DejaVuSans-20"/>
     <use x="536.962891" xlink:href="#DejaVuSans-50"/>
     <use x="597.265625" xlink:href="#DejaVuSans-66"/>
     <use x="632.470703" xlink:href="#DejaVuSans-69"/>
     <use x="660.253906" xlink:href="#DejaVuSans-7a"/>
     <use x="712.744141" xlink:href="#DejaVuSans-65"/>
     <use x="774.267578" xlink:href="#DejaVuSans-72"/>
     <use x="815.380859" xlink:href="#DejaVuSans-20"/>
     <use x="847.167969" xlink:href="#DejaVuSans-76"/>
     <use x="906.347656" xlink:href="#DejaVuSans-61"/>
     <use x="967.626953" xlink:href="#DejaVuSans-63"/>
     <use x="1022.607422" xlink:href="#DejaVuSans-63"/>
     <use x="1077.587891" xlink:href="#DejaVuSans-69"/>
     <use x="1105.371094" xlink:href="#DejaVuSans-6e"/>
     <use x="1168.75" xlink:href="#DejaVuSans-65"/>
     <use x="1230.273438" xlink:href="#DejaVuSans-20"/>
     <use x="1262.060547" xlink:href="#DejaVuSans-75"/>
     <use x="1325.439453" xlink:href="#DejaVuSans-74"/>
     <use x="1364.648438" xlink:href="#DejaVuSans-69"/>
     <use x="1392.431641" xlink:href="#DejaVuSans-6c"/>
     <use x="1420.214844" xlink:href="#DejaVuSans-69"/>
     <use x="1447.998047" xlink:href="#DejaVuSans-73"/>
     <use x="1500.097656" xlink:href="#DejaVuSans-61"/>
     <use x="1561.376953" xlink:href="#DejaVuSans-74"/>
     <use x="1600.585938" xlink:href="#DejaVuSans-69"/>
     <use x="1628.369141" xlink:href="#DejaVuSans-6f"/>
     <use x="1689.550781" xlink:href="#DejaVuSans-6e"/>
     <use x="1752.929688" xlink:href="#DejaVuSans-3a"/>
     <use x="1786.621094" xlink:href="#DejaVuSans-20"/>
     <use x="1818.408203" xlink:href="#DejaVuSans-66"/>
     <use x="1853.613281" xlink:href="#DejaVuSans-69"/>
     <use x="1881.396484" xlink:href="#DejaVuSans-72"/>
     <use x="1922.509766" xlink:href="#DejaVuSans-73"/>
     <use x="1974.609375" xlink:href="#DejaVuSans-74"/>
     <use x="2013.818359" xlink:href="#DejaVuSans-20"/>
     <use x="2045.605469" xlink:href="#DejaVuSans-64"/>
     <use x="2109.082031" xlink:href="#DejaVuSans-6f"/>
     <use x="2170.263672" xlink:href="#DejaVuSans-73"/>
     <use x="2222.363281" xlink:href="#DejaVuSans-65"/>
     <use x="2283.886719" xlink:href="#DejaVuSans-20"/>
     <use x="2315.673828" xlink:href="#DejaVuSans-75"/>
     <use x="2379.052734" xlink:href="#DejaVuSans-74"/>
     <use x="2418.261719" xlink:href="#DejaVuSans-69"/>
     <use x="2446.044922" xlink:href="#DejaVuSans-6c"/>
     <use x="2473.828125" xlink:href="#DejaVuSans-69"/>
     <use x="2501.611328" xlink:href="#DejaVuSans-73"/>
     <use x="2553.710938" xlink:href="#DejaVuSans-61"/>
     <use x="2614.990234" xlink:href="#DejaVuSans-74"/>
     <use x="2654.199219" xlink:href="#DejaVuSans-69"/>
     <use x="2681.982422" xlink:href="#DejaVuSans-6f"/>
     <use x="2743.164062" xlink:href="#DejaVuSans-6e"/>
     <use x="2806.542969" xlink:href="#DejaVuSans-20"/>
     <use x="2838.330078" xlink:href="#DejaVuSans-72"/>
     <use x="2879.443359" xlink:href="#DejaVuSans-61"/>
     <use x="2940.722656" xlink:href="#DejaVuSans-74"/>
     <use x="2979.931641" xlink:href="#DejaVuSans-65"/>
     <use x="3041.455078" xlink:href="#DejaVuSans-3a"/>
     <use x="3075.146484" xlink:href="#DejaVuSans-20"/>
     <use x="3106.933594" xlink:href="#DejaVuSans-37"/>
     <use x="3170.556641" xlink:href="#DejaVuSans-37"/>
     <use x="3234.179688" xlink:href="#DejaVuSans-2e"/>
     <use x="3265.966797" xlink:href="#DejaVuSans-38"/>
     <use x="3329.589844" xlink:href="#DejaVuSans-25"/>
    </g>
   </g>
   <g id="legend_1">
    <g id="patch_7">
     <path d="M 77.831 144.092147 
L 274.18602 144.092147 
Q 275.85202 144.092147 275.85202 142.426147 
L 275.85202 57.671 
Q 275.85202 56.005 274.18602 56.005 
L 77.831 56.005 
Q 76.165 56.005 76.165 57.671 
L 76.165 142.426147 
Q 76.165 144.092147 77.831 144.092147 
z
" style="fill:#ffffff;opacity:0.8;stroke:#cccccc;stroke-linejoin:miter;"/>
    </g>
    <g id="patch_8">
     <path d="M 79.497 65.666498 
L 96.157 65.666498 
L 96.157 59.835498 
L 79.497 59.835498 
z
" style="fill:#d62728;"/>
    </g>
    <g id="text_20">
     <!-- Pfizer reserved for second doses (462k) -->
     <g transform="translate(102.821 65.666498)scale(0.0833 -0.0833)">
      <defs>
       <path d="M 581 4863 
L 1159 4863 
L 1159 1991 
L 2875 3500 
L 3609 3500 
L 1753 1863 
L 3688 0 
L 2938 0 
L 1159 1709 
L 1159 0 
L 581 0 
L 581 4863 
z
" id="DejaVuSans-6b" transform="scale(0.015625)"/>
      </defs>
      <use xlink:href="#DejaVuSans-50"/>
      <use x="60.302734" xlink:href="#DejaVuSans-66"/>
      <use x="95.507812" xlink:href="#DejaVuSans-69"/>
      <use x="123.291016" xlink:href="#DejaVuSans-7a"/>
      <use x="175.78125" xlink:href="#DejaVuSans-65"/>
      <use x="237.304688" xlink:href="#DejaVuSans-72"/>
      <use x="278.417969" xlink:href="#DejaVuSans-20"/>
      <use x="310.205078" xlink:href="#DejaVuSans-72"/>
      <use x="349.068359" xlink:href="#DejaVuSans-65"/>
      <use x="410.591797" xlink:href="#DejaVuSans-73"/>
      <use x="462.691406" xlink:href="#DejaVuSans-65"/>
      <use x="524.214844" xlink:href="#DejaVuSans-72"/>
      <use x="565.328125" xlink:href="#DejaVuSans-76"/>
      <use x="624.507812" xlink:href="#DejaVuSans-65"/>
      <use x="686.03125" xlink:href="#DejaVuSans-64"/>
      <use x="749.507812" xlink:href="#DejaVuSans-20"/>
      <use x="781.294922" xlink:href="#DejaVuSans-66"/>
      <use x="816.5" xlink:href="#DejaVuSans-6f"/>
      <use x="877.681641" xlink:href="#DejaVuSans-72"/>
      <use x="918.794922" xlink:href="#DejaVuSans-20"/>
      <use x="950.582031" xlink:href="#DejaVuSans-73"/>
      <use x="1002.681641" xlink:href="#DejaVuSans-65"/>
      <use x="1064.205078" xlink:href="#DejaVuSans-63"/>
      <use x="1119.185547" xlink:href="#DejaVuSans-6f"/>
      <use x="1180.367188" xlink:href="#DejaVuSans-6e"/>
      <use x="1243.746094" xlink:href="#DejaVuSans-64"/>
      <use x="1307.222656" xlink:href="#DejaVuSans-20"/>
      <use x="1339.009766" xlink:href="#DejaVuSans-64"/>
      <use x="1402.486328" xlink:href="#DejaVuSans-6f"/>
      <use x="1463.667969" xlink:href="#DejaVuSans-73"/>
      <use x="1515.767578" xlink:href="#DejaVuSans-65"/>
      <use x="1577.291016" xlink:href="#DejaVuSans-73"/>
      <use x="1629.390625" xlink:href="#DejaVuSans-20"/>
      <use x="1661.177734" xlink:href="#DejaVuSans-28"/>
      <use x="1700.191406" xlink:href="#DejaVuSans-34"/>
      <use x="1763.814453" xlink:href="#DejaVuSans-36"/>
      <use x="1827.4375" xlink:href="#DejaVuSans-32"/>
      <use x="1891.060547" xlink:href="#DejaVuSans-6b"/>
      <use x="1948.970703" xlink:href="#DejaVuSans-29"/>
     </g>
    </g>
    <g id="patch_9">
     <path d="M 79.497 77.893377 
L 96.157 77.893377 
L 96.157 72.062377 
L 79.497 72.062377 
z
" style="fill:#ff7f0e;"/>
    </g>
    <g id="text_21">
     <!-- Pfizer administered second doses (537k) -->
     <g transform="translate(102.821 77.893377)scale(0.0833 -0.0833)">
      <use xlink:href="#DejaVuSans-50"/>
      <use x="60.302734" xlink:href="#DejaVuSans-66"/>
      <use x="95.507812" xlink:href="#DejaVuSans-69"/>
      <use x="123.291016" xlink:href="#DejaVuSans-7a"/>
      <use x="175.78125" xlink:href="#DejaVuSans-65"/>
      <use x="237.304688" xlink:href="#DejaVuSans-72"/>
      <use x="278.417969" xlink:href="#DejaVuSans-20"/>
      <use x="310.205078" xlink:href="#DejaVuSans-61"/>
      <use x="371.484375" xlink:href="#DejaVuSans-64"/>
      <use x="434.960938" xlink:href="#DejaVuSans-6d"/>
      <use x="532.373047" xlink:href="#DejaVuSans-69"/>
      <use x="560.15625" xlink:href="#DejaVuSans-6e"/>
      <use x="623.535156" xlink:href="#DejaVuSans-69"/>
      <use x="651.318359" xlink:href="#DejaVuSans-73"/>
      <use x="703.417969" xlink:href="#DejaVuSans-74"/>
      <use x="742.626953" xlink:href="#DejaVuSans-65"/>
      <use x="804.150391" xlink:href="#DejaVuSans-72"/>
      <use x="843.013672" xlink:href="#DejaVuSans-65"/>
      <use x="904.537109" xlink:href="#DejaVuSans-64"/>
      <use x="968.013672" xlink:href="#DejaVuSans-20"/>
      <use x="999.800781" xlink:href="#DejaVuSans-73"/>
      <use x="1051.900391" xlink:href="#DejaVuSans-65"/>
      <use x="1113.423828" xlink:href="#DejaVuSans-63"/>
      <use x="1168.404297" xlink:href="#DejaVuSans-6f"/>
      <use x="1229.585938" xlink:href="#DejaVuSans-6e"/>
      <use x="1292.964844" xlink:href="#DejaVuSans-64"/>
      <use x="1356.441406" xlink:href="#DejaVuSans-20"/>
      <use x="1388.228516" xlink:href="#DejaVuSans-64"/>
      <use x="1451.705078" xlink:href="#DejaVuSans-6f"/>
      <use x="1512.886719" xlink:href="#DejaVuSans-73"/>
      <use x="1564.986328" xlink:href="#DejaVuSans-65"/>
      <use x="1626.509766" xlink:href="#DejaVuSans-73"/>
      <use x="1678.609375" xlink:href="#DejaVuSans-20"/>
      <use x="1710.396484" xlink:href="#DejaVuSans-28"/>
      <use x="1749.410156" xlink:href="#DejaVuSans-35"/>
      <use x="1813.033203" xlink:href="#DejaVuSans-33"/>
      <use x="1876.65625" xlink:href="#DejaVuSans-37"/>
      <use x="1940.279297" xlink:href="#DejaVuSans-6b"/>
      <use x="1998.189453" xlink:href="#DejaVuSans-29"/>
     </g>
    </g>
    <g id="patch_10">
     <path d="M 79.497 90.120255 
L 96.157 90.120255 
L 96.157 84.289255 
L 79.497 84.289255 
z
" style="fill:#2ca02c;"/>
    </g>
    <g id="text_22">
     <!-- Pfizer available for first doses (222k) -->
     <g transform="translate(102.821 90.120255)scale(0.0833 -0.0833)">
      <defs>
       <path d="M 3116 1747 
Q 3116 2381 2855 2742 
Q 2594 3103 2138 3103 
Q 1681 3103 1420 2742 
Q 1159 2381 1159 1747 
Q 1159 1113 1420 752 
Q 1681 391 2138 391 
Q 2594 391 2855 752 
Q 3116 1113 3116 1747 
z
M 1159 2969 
Q 1341 3281 1617 3432 
Q 1894 3584 2278 3584 
Q 2916 3584 3314 3078 
Q 3713 2572 3713 1747 
Q 3713 922 3314 415 
Q 2916 -91 2278 -91 
Q 1894 -91 1617 61 
Q 1341 213 1159 525 
L 1159 0 
L 581 0 
L 581 4863 
L 1159 4863 
L 1159 2969 
z
" id="DejaVuSans-62" transform="scale(0.015625)"/>
      </defs>
      <use xlink:href="#DejaVuSans-50"/>
      <use x="60.302734" xlink:href="#DejaVuSans-66"/>
      <use x="95.507812" xlink:href="#DejaVuSans-69"/>
      <use x="123.291016" xlink:href="#DejaVuSans-7a"/>
      <use x="175.78125" xlink:href="#DejaVuSans-65"/>
      <use x="237.304688" xlink:href="#DejaVuSans-72"/>
      <use x="278.417969" xlink:href="#DejaVuSans-20"/>
      <use x="310.205078" xlink:href="#DejaVuSans-61"/>
      <use x="371.484375" xlink:href="#DejaVuSans-76"/>
      <use x="430.664062" xlink:href="#DejaVuSans-61"/>
      <use x="491.943359" xlink:href="#DejaVuSans-69"/>
      <use x="519.726562" xlink:href="#DejaVuSans-6c"/>
      <use x="547.509766" xlink:href="#DejaVuSans-61"/>
      <use x="608.789062" xlink:href="#DejaVuSans-62"/>
      <use x="672.265625" xlink:href="#DejaVuSans-6c"/>
      <use x="700.048828" xlink:href="#DejaVuSans-65"/>
      <use x="761.572266" xlink:href="#DejaVuSans-20"/>
      <use x="793.359375" xlink:href="#DejaVuSans-66"/>
      <use x="828.564453" xlink:href="#DejaVuSans-6f"/>
      <use x="889.746094" xlink:href="#DejaVuSans-72"/>
      <use x="930.859375" xlink:href="#DejaVuSans-20"/>
      <use x="962.646484" xlink:href="#DejaVuSans-66"/>
      <use x="997.851562" xlink:href="#DejaVuSans-69"/>
      <use x="1025.634766" xlink:href="#DejaVuSans-72"/>
      <use x="1066.748047" xlink:href="#DejaVuSans-73"/>
      <use x="1118.847656" xlink:href="#DejaVuSans-74"/>
      <use x="1158.056641" xlink:href="#DejaVuSans-20"/>
      <use x="1189.84375" xlink:href="#DejaVuSans-64"/>
      <use x="1253.320312" xlink:href="#DejaVuSans-6f"/>
      <use x="1314.501953" xlink:href="#DejaVuSans-73"/>
      <use x="1366.601562" xlink:href="#DejaVuSans-65"/>
      <use x="1428.125" xlink:href="#DejaVuSans-73"/>
      <use x="1480.224609" xlink:href="#DejaVuSans-20"/>
      <use x="1512.011719" xlink:href="#DejaVuSans-28"/>
      <use x="1551.025391" xlink:href="#DejaVuSans-32"/>
      <use x="1614.648438" xlink:href="#DejaVuSans-32"/>
      <use x="1678.271484" xlink:href="#DejaVuSans-32"/>
      <use x="1741.894531" xlink:href="#DejaVuSans-6b"/>
      <use x="1799.804688" xlink:href="#DejaVuSans-29"/>
     </g>
    </g>
    <g id="patch_11">
     <path d="M 79.497 102.347133 
L 96.157 102.347133 
L 96.157 96.516133 
L 79.497 96.516133 
z
" style="fill:#1f77b4;"/>
    </g>
    <g id="text_23">
     <!-- Pfizer administered first doses (777k) -->
     <g transform="translate(102.821 102.347133)scale(0.0833 -0.0833)">
      <use xlink:href="#DejaVuSans-50"/>
      <use x="60.302734" xlink:href="#DejaVuSans-66"/>
      <use x="95.507812" xlink:href="#DejaVuSans-69"/>
      <use x="123.291016" xlink:href="#DejaVuSans-7a"/>
      <use x="175.78125" xlink:href="#DejaVuSans-65"/>
      <use x="237.304688" xlink:href="#DejaVuSans-72"/>
      <use x="278.417969" xlink:href="#DejaVuSans-20"/>
      <use x="310.205078" xlink:href="#DejaVuSans-61"/>
      <use x="371.484375" xlink:href="#DejaVuSans-64"/>
      <use x="434.960938" xlink:href="#DejaVuSans-6d"/>
      <use x="532.373047" xlink:href="#DejaVuSans-69"/>
      <use x="560.15625" xlink:href="#DejaVuSans-6e"/>
      <use x="623.535156" xlink:href="#DejaVuSans-69"/>
      <use x="651.318359" xlink:href="#DejaVuSans-73"/>
      <use x="703.417969" xlink:href="#DejaVuSans-74"/>
      <use x="742.626953" xlink:href="#DejaVuSans-65"/>
      <use x="804.150391" xlink:href="#DejaVuSans-72"/>
      <use x="843.013672" xlink:href="#DejaVuSans-65"/>
      <use x="904.537109" xlink:href="#DejaVuSans-64"/>
      <use x="968.013672" xlink:href="#DejaVuSans-20"/>
      <use x="999.800781" xlink:href="#DejaVuSans-66"/>
      <use x="1035.005859" xlink:href="#DejaVuSans-69"/>
      <use x="1062.789062" xlink:href="#DejaVuSans-72"/>
      <use x="1103.902344" xlink:href="#DejaVuSans-73"/>
      <use x="1156.001953" xlink:href="#DejaVuSans-74"/>
      <use x="1195.210938" xlink:href="#DejaVuSans-20"/>
      <use x="1226.998047" xlink:href="#DejaVuSans-64"/>
      <use x="1290.474609" xlink:href="#DejaVuSans-6f"/>
      <use x="1351.65625" xlink:href="#DejaVuSans-73"/>
      <use x="1403.755859" xlink:href="#DejaVuSans-65"/>
      <use x="1465.279297" xlink:href="#DejaVuSans-73"/>
      <use x="1517.378906" xlink:href="#DejaVuSans-20"/>
      <use x="1549.166016" xlink:href="#DejaVuSans-28"/>
      <use x="1588.179688" xlink:href="#DejaVuSans-37"/>
      <use x="1651.802734" xlink:href="#DejaVuSans-37"/>
      <use x="1715.425781" xlink:href="#DejaVuSans-37"/>
      <use x="1779.048828" xlink:href="#DejaVuSans-6b"/>
      <use x="1836.958984" xlink:href="#DejaVuSans-29"/>
     </g>
    </g>
    <g id="patch_12">
     <path d="M 79.497 114.574011 
L 96.157 114.574011 
L 96.157 108.743011 
L 79.497 108.743011 
z
" style="fill:#ff0000;opacity:0.35;"/>
    </g>
    <g id="text_24">
     <!-- Phase 1a -->
     <g transform="translate(102.821 114.574011)scale(0.0833 -0.0833)">
      <defs>
       <path d="M 3513 2113 
L 3513 0 
L 2938 0 
L 2938 2094 
Q 2938 2591 2744 2837 
Q 2550 3084 2163 3084 
Q 1697 3084 1428 2787 
Q 1159 2491 1159 1978 
L 1159 0 
L 581 0 
L 581 4863 
L 1159 4863 
L 1159 2956 
Q 1366 3272 1645 3428 
Q 1925 3584 2291 3584 
Q 2894 3584 3203 3211 
Q 3513 2838 3513 2113 
z
" id="DejaVuSans-68" transform="scale(0.015625)"/>
      </defs>
      <use xlink:href="#DejaVuSans-50"/>
      <use x="60.302734" xlink:href="#DejaVuSans-68"/>
      <use x="123.681641" xlink:href="#DejaVuSans-61"/>
      <use x="184.960938" xlink:href="#DejaVuSans-73"/>
      <use x="237.060547" xlink:href="#DejaVuSans-65"/>
      <use x="298.583984" xlink:href="#DejaVuSans-20"/>
      <use x="330.371094" xlink:href="#DejaVuSans-31"/>
      <use x="393.994141" xlink:href="#DejaVuSans-61"/>
     </g>
    </g>
    <g id="patch_13">
     <path d="M 79.497 126.800889 
L 96.157 126.800889 
L 96.157 120.969889 
L 79.497 120.969889 
z
" style="fill:#ffa500;opacity:0.35;"/>
    </g>
    <g id="text_25">
     <!-- Phase 1b -->
     <g transform="translate(102.821 126.800889)scale(0.0833 -0.0833)">
      <use xlink:href="#DejaVuSans-50"/>
      <use x="60.302734" xlink:href="#DejaVuSans-68"/>
      <use x="123.681641" xlink:href="#DejaVuSans-61"/>
      <use x="184.960938" xlink:href="#DejaVuSans-73"/>
      <use x="237.060547" xlink:href="#DejaVuSans-65"/>
      <use x="298.583984" xlink:href="#DejaVuSans-20"/>
      <use x="330.371094" xlink:href="#DejaVuSans-31"/>
      <use x="393.994141" xlink:href="#DejaVuSans-62"/>
     </g>
    </g>
    <g id="patch_14">
     <path d="M 79.497 139.027767 
L 96.157 139.027767 
L 96.157 133.196767 
L 79.497 133.196767 
z
" style="fill:#ffff00;opacity:0.35;"/>
    </g>
    <g id="text_26">
     <!-- Phase 2a -->
     <g transform="translate(102.821 139.027767)scale(0.0833 -0.0833)">
      <use xlink:href="#DejaVuSans-50"/>
      <use x="60.302734" xlink:href="#DejaVuSans-68"/>
      <use x="123.681641" xlink:href="#DejaVuSans-61"/>
      <use x="184.960938" xlink:href="#DejaVuSans-73"/>
      <use x="237.060547" xlink:href="#DejaVuSans-65"/>
      <use x="298.583984" xlink:href="#DejaVuSans-20"/>
      <use x="330.371094" xlink:href="#DejaVuSans-32"/>
      <use x="393.994141" xlink:href="#DejaVuSans-61"/>
     </g>
    </g>
   </g>
  </g>
 </g>
 <defs>
  <clipPath id="p90f8789eeb">
   <rect height="332.64" width="446.4" x="72" y="51.84"/>
  </clipPath>
 </defs>
</svg>
