<?xml version="1.0" encoding="utf-8" standalone="no"?>
<!DOCTYPE svg PUBLIC "-//W3C//DTD SVG 1.1//EN"
  "http://www.w3.org/Graphics/SVG/1.1/DTD/svg11.dtd">
<svg height="432pt" version="1.1" viewBox="0 0 576 432" width="576pt" xmlns="http://www.w3.org/2000/svg" xmlns:xlink="http://www.w3.org/1999/xlink">
 <metadata>
  <rdf:RDF xmlns:cc="http://creativecommons.org/ns#" xmlns:dc="http://purl.org/dc/elements/1.1/" xmlns:rdf="http://www.w3.org/1999/02/22-rdf-syntax-ns#">
   <cc:Work>
    <dc:type rdf:resource="http://purl.org/dc/dcmitype/StillImage"/>
    <dc:date>2021-04-11T12:04:53.233850</dc:date>
    <dc:format>image/svg+xml</dc:format>
    <dc:creator>
     <cc:Agent>
      <dc:title>Matplotlib v3.4.1, https://matplotlib.org/</dc:title>
     </cc:Agent>
    </dc:creator>
   </cc:Work>
  </rdf:RDF>
 </metadata>
 <defs>
  <style type="text/css">*{stroke-linecap:butt;stroke-linejoin:round;}</style>
 </defs>
 <g id="figure_1">
  <g id="patch_1">
   <path d="M 0 432 
L 576 432 
L 576 0 
L 0 0 
z
" style="fill:#ffffff;"/>
  </g>
  <g id="axes_1">
   <g id="patch_2">
    <path d="M 72 384.48 
L 518.4 384.48 
L 518.4 51.84 
L 72 51.84 
z
" style="fill:#ffffff;"/>
   </g>
   <g id="PolyCollection_1">
    <defs>
     <path d="M 169.2 -47.52 
L 68.4 -47.52 
L 68.4 -380.16 
L 169.2 -380.16 
L 169.2 -380.16 
L 169.2 -47.52 
z
" id="mc5ca7afe55"/>
    </defs>
    <g clip-path="url(#pa3bc6cd859)">
     <use style="fill:#ff0000;fill-opacity:0.5;" x="0" xlink:href="#mc5ca7afe55" y="432"/>
    </g>
   </g>
   <g id="PolyCollection_2">
    <defs>
     <path d="M 345.6 -47.52 
L 169.2 -47.52 
L 169.2 -380.16 
L 345.6 -380.16 
L 345.6 -380.16 
L 345.6 -47.52 
z
" id="mafff7480d3"/>
    </defs>
    <g clip-path="url(#pa3bc6cd859)">
     <use style="fill:#ffa500;fill-opacity:0.5;" x="0" xlink:href="#mafff7480d3" y="432"/>
    </g>
   </g>
   <g id="PolyCollection_3">
    <defs>
     <path d="M 349.2 -47.52 
L 345.6 -47.52 
L 345.6 -380.16 
L 349.2 -380.16 
L 349.2 -380.16 
L 349.2 -47.52 
z
" id="md3a2cc2617"/>
    </defs>
    <g clip-path="url(#pa3bc6cd859)">
     <use style="fill:#ffa500;fill-opacity:0.5;" x="0" xlink:href="#md3a2cc2617" y="432"/>
    </g>
   </g>
   <g id="PolyCollection_4">
    <defs>
     <path d="M 352.8 -47.52 
L 349.2 -47.52 
L 349.2 -380.16 
L 352.8 -380.16 
L 352.8 -380.16 
L 352.8 -47.52 
z
" id="mf39732cc8f"/>
    </defs>
    <g clip-path="url(#pa3bc6cd859)">
     <use style="fill:#ffa500;fill-opacity:0.45;" x="0" xlink:href="#mf39732cc8f" y="432"/>
    </g>
   </g>
   <g id="PolyCollection_5">
    <defs>
     <path d="M 356.4 -47.52 
L 352.8 -47.52 
L 352.8 -380.16 
L 356.4 -380.16 
L 356.4 -380.16 
L 356.4 -47.52 
z
" id="m36cc4ac376"/>
    </defs>
    <g clip-path="url(#pa3bc6cd859)">
     <use style="fill:#ffa500;fill-opacity:0.4;" x="0" xlink:href="#m36cc4ac376" y="432"/>
    </g>
   </g>
   <g id="PolyCollection_6">
    <defs>
     <path d="M 360 -47.52 
L 356.4 -47.52 
L 356.4 -380.16 
L 360 -380.16 
L 360 -380.16 
L 360 -47.52 
z
" id="m36072c3e80"/>
    </defs>
    <g clip-path="url(#pa3bc6cd859)">
     <use style="fill:#ffa500;fill-opacity:0.35;" x="0" xlink:href="#m36072c3e80" y="432"/>
    </g>
   </g>
   <g id="PolyCollection_7">
    <defs>
     <path d="M 363.6 -47.52 
L 360 -47.52 
L 360 -380.16 
L 363.6 -380.16 
L 363.6 -380.16 
L 363.6 -47.52 
z
" id="m91e24c1085"/>
    </defs>
    <g clip-path="url(#pa3bc6cd859)">
     <use style="fill:#ffa500;fill-opacity:0.3;" x="0" xlink:href="#m91e24c1085" y="432"/>
    </g>
   </g>
   <g id="PolyCollection_8">
    <defs>
     <path d="M 367.2 -47.52 
L 363.6 -47.52 
L 363.6 -380.16 
L 367.2 -380.16 
L 367.2 -380.16 
L 367.2 -47.52 
z
" id="mfa7e1dd15a"/>
    </defs>
    <g clip-path="url(#pa3bc6cd859)">
     <use style="fill:#ffa500;fill-opacity:0.25;" x="0" xlink:href="#mfa7e1dd15a" y="432"/>
    </g>
   </g>
   <g id="PolyCollection_9">
    <defs>
     <path d="M 370.8 -47.52 
L 367.2 -47.52 
L 367.2 -380.16 
L 370.8 -380.16 
L 370.8 -380.16 
L 370.8 -47.52 
z
" id="m724fcc93f6"/>
    </defs>
    <g clip-path="url(#pa3bc6cd859)">
     <use style="fill:#ffa500;fill-opacity:0.2;" x="0" xlink:href="#m724fcc93f6" y="432"/>
    </g>
   </g>
   <g id="PolyCollection_10">
    <defs>
     <path d="M 374.4 -47.52 
L 370.8 -47.52 
L 370.8 -380.16 
L 374.4 -380.16 
L 374.4 -380.16 
L 374.4 -47.52 
z
" id="mdb7544bacb"/>
    </defs>
    <g clip-path="url(#pa3bc6cd859)">
     <use style="fill:#ffa500;fill-opacity:0.15;" x="0" xlink:href="#mdb7544bacb" y="432"/>
    </g>
   </g>
   <g id="PolyCollection_11">
    <defs>
     <path d="M 378 -47.52 
L 374.4 -47.52 
L 374.4 -380.16 
L 378 -380.16 
L 378 -380.16 
L 378 -47.52 
z
" id="m5fce5aa3be"/>
    </defs>
    <g clip-path="url(#pa3bc6cd859)">
     <use style="fill:#ffa500;fill-opacity:0.1;" x="0" xlink:href="#m5fce5aa3be" y="432"/>
    </g>
   </g>
   <g id="PolyCollection_12">
    <defs>
     <path d="M 381.6 -47.52 
L 378 -47.52 
L 378 -380.16 
L 381.6 -380.16 
L 381.6 -380.16 
L 381.6 -47.52 
z
" id="m45886e2975"/>
    </defs>
    <g clip-path="url(#pa3bc6cd859)">
     <use style="fill:#ffa500;fill-opacity:0.05;" x="0" xlink:href="#m45886e2975" y="432"/>
    </g>
   </g>
   <g id="PolyCollection_13">
    <defs>
     <path d="M 72 -47.521331 
L 72 -47.52 
L 72 -47.52 
L 75.6 -47.52 
L 75.6 -47.52 
L 79.2 -47.52 
L 79.2 -47.52 
L 82.8 -47.52 
L 82.8 -47.52 
L 86.4 -47.52 
L 86.4 -47.52 
L 90 -47.52 
L 90 -47.52 
L 93.6 -47.52 
L 93.6 -47.52 
L 97.2 -47.52 
L 97.2 -47.52 
L 100.8 -47.52 
L 100.8 -47.52 
L 104.4 -47.52 
L 104.4 -47.52 
L 108 -47.52 
L 108 -47.52 
L 111.6 -47.52 
L 111.6 -47.52 
L 115.2 -47.52 
L 115.2 -47.52 
L 118.8 -47.52 
L 118.8 -47.52 
L 122.4 -47.52 
L 122.4 -47.52 
L 126 -47.52 
L 126 -47.52 
L 129.6 -47.52 
L 129.6 -47.52 
L 133.2 -47.52 
L 133.2 -47.52 
L 136.8 -47.52 
L 136.8 -47.52 
L 140.4 -47.52 
L 140.4 -47.52 
L 144 -47.52 
L 144 -47.52 
L 147.6 -47.52 
L 147.6 -47.52 
L 151.2 -47.52 
L 151.2 -47.52 
L 154.8 -47.52 
L 154.8 -47.52 
L 158.4 -47.52 
L 158.4 -47.52 
L 162 -47.52 
L 162 -47.52 
L 165.6 -47.52 
L 165.6 -47.52 
L 169.2 -47.52 
L 169.2 -47.52 
L 172.8 -47.52 
L 172.8 -47.52 
L 176.4 -47.52 
L 176.4 -47.52 
L 180 -47.52 
L 180 -47.52 
L 183.6 -47.52 
L 183.6 -47.52 
L 187.2 -47.52 
L 187.2 -47.52 
L 190.8 -47.52 
L 190.8 -47.52 
L 194.4 -47.52 
L 194.4 -47.52 
L 198 -47.52 
L 198 -47.52 
L 201.6 -47.52 
L 201.6 -47.52 
L 205.2 -47.52 
L 205.2 -47.52 
L 208.8 -47.52 
L 208.8 -47.52 
L 212.4 -47.52 
L 212.4 -47.52 
L 216 -47.52 
L 216 -47.52 
L 219.6 -47.52 
L 219.6 -47.52 
L 223.2 -47.52 
L 223.2 -47.52 
L 226.8 -47.52 
L 226.8 -47.52 
L 230.4 -47.52 
L 230.4 -47.52 
L 234 -47.52 
L 234 -47.52 
L 237.6 -47.52 
L 237.6 -47.52 
L 241.2 -47.52 
L 241.2 -69.758567 
L 241.2 -69.758567 
L 237.6 -69.758567 
L 237.6 -68.864018 
L 234 -68.864018 
L 234 -67.657985 
L 230.4 -67.657985 
L 230.4 -66.563491 
L 226.8 -66.563491 
L 226.8 -65.658325 
L 223.2 -65.658325 
L 223.2 -65.63867 
L 219.6 -65.63867 
L 219.6 -65.643502 
L 216 -65.643502 
L 216 -65.43275 
L 212.4 -65.43275 
L 212.4 -65.610849 
L 208.8 -65.610849 
L 208.8 -64.400507 
L 205.2 -64.400507 
L 205.2 -63.371092 
L 201.6 -63.371092 
L 201.6 -62.280778 
L 198 -62.280778 
L 198 -61.431085 
L 194.4 -61.431085 
L 194.4 -60.973838 
L 190.8 -60.973838 
L 190.8 -60.929703 
L 187.2 -60.929703 
L 187.2 -60.205752 
L 183.6 -60.205752 
L 183.6 -59.443859 
L 180 -59.443859 
L 180 -58.652248 
L 176.4 -58.652248 
L 176.4 -57.939674 
L 172.8 -57.939674 
L 172.8 -57.521947 
L 169.2 -57.521947 
L 169.2 -56.952571 
L 165.6 -56.952571 
L 165.6 -56.921027 
L 162 -56.921027 
L 162 -56.724133 
L 158.4 -56.724133 
L 158.4 -56.548691 
L 154.8 -56.548691 
L 154.8 -56.258409 
L 151.2 -56.258409 
L 151.2 -55.841779 
L 147.6 -55.841779 
L 147.6 -55.210312 
L 144 -55.210312 
L 144 -55.115999 
L 140.4 -55.115999 
L 140.4 -54.977006 
L 136.8 -54.977006 
L 136.8 -53.944646 
L 133.2 -53.944646 
L 133.2 -53.513497 
L 129.6 -53.513497 
L 129.6 -52.7112 
L 126 -52.7112 
L 126 -52.22931 
L 122.4 -52.22931 
L 122.4 -51.919766 
L 118.8 -51.919766 
L 118.8 -51.737642 
L 115.2 -51.737642 
L 115.2 -51.577958 
L 111.6 -51.577958 
L 111.6 -51.394059 
L 108 -51.394059 
L 108 -51.000413 
L 104.4 -51.000413 
L 104.4 -50.631816 
L 100.8 -50.631816 
L 100.8 -50.307989 
L 97.2 -50.307989 
L 97.2 -49.762127 
L 93.6 -49.762127 
L 93.6 -49.641844 
L 90 -49.641844 
L 90 -49.51584 
L 86.4 -49.51584 
L 86.4 -49.1832 
L 82.8 -49.1832 
L 82.8 -48.68424 
L 79.2 -48.68424 
L 79.2 -47.979575 
L 75.6 -47.979575 
L 75.6 -47.711534 
L 72 -47.711534 
L 72 -47.521331 
z
" id="mc9e7c3cf25"/>
    </defs>
    <g clip-path="url(#pa3bc6cd859)">
     <use style="fill:#1f77b4;" x="0" xlink:href="#mc9e7c3cf25" y="432"/>
    </g>
   </g>
   <g id="PolyCollection_14">
    <defs>
     <path d="M 72 -47.521331 
L 72 -47.521331 
L 72 -47.711534 
L 75.6 -47.711534 
L 75.6 -47.979575 
L 79.2 -47.979575 
L 79.2 -48.68424 
L 82.8 -48.68424 
L 82.8 -49.1832 
L 86.4 -49.1832 
L 86.4 -49.51584 
L 90 -49.51584 
L 90 -49.641844 
L 93.6 -49.641844 
L 93.6 -49.762127 
L 97.2 -49.762127 
L 97.2 -50.307989 
L 100.8 -50.307989 
L 100.8 -50.631816 
L 104.4 -50.631816 
L 104.4 -51.000413 
L 108 -51.000413 
L 108 -51.394059 
L 111.6 -51.394059 
L 111.6 -51.577958 
L 115.2 -51.577958 
L 115.2 -51.737642 
L 118.8 -51.737642 
L 118.8 -51.919766 
L 122.4 -51.919766 
L 122.4 -52.22931 
L 126 -52.22931 
L 126 -52.7112 
L 129.6 -52.7112 
L 129.6 -53.513497 
L 133.2 -53.513497 
L 133.2 -53.944646 
L 136.8 -53.944646 
L 136.8 -54.977006 
L 140.4 -54.977006 
L 140.4 -55.115999 
L 144 -55.115999 
L 144 -55.210312 
L 147.6 -55.210312 
L 147.6 -55.841779 
L 151.2 -55.841779 
L 151.2 -56.258409 
L 154.8 -56.258409 
L 154.8 -56.548691 
L 158.4 -56.548691 
L 158.4 -56.724133 
L 162 -56.724133 
L 162 -56.921027 
L 165.6 -56.921027 
L 165.6 -56.952571 
L 169.2 -56.952571 
L 169.2 -57.521947 
L 172.8 -57.521947 
L 172.8 -57.939674 
L 176.4 -57.939674 
L 176.4 -58.652248 
L 180 -58.652248 
L 180 -59.443859 
L 183.6 -59.443859 
L 183.6 -60.205752 
L 187.2 -60.205752 
L 187.2 -60.929703 
L 190.8 -60.929703 
L 190.8 -60.973838 
L 194.4 -60.973838 
L 194.4 -61.431085 
L 198 -61.431085 
L 198 -62.280778 
L 201.6 -62.280778 
L 201.6 -63.371092 
L 205.2 -63.371092 
L 205.2 -64.400507 
L 208.8 -64.400507 
L 208.8 -65.610849 
L 212.4 -65.610849 
L 212.4 -65.43275 
L 216 -65.43275 
L 216 -65.643502 
L 219.6 -65.643502 
L 219.6 -65.63867 
L 223.2 -65.63867 
L 223.2 -65.658325 
L 226.8 -65.658325 
L 226.8 -66.563491 
L 230.4 -66.563491 
L 230.4 -67.657985 
L 234 -67.657985 
L 234 -68.864018 
L 237.6 -68.864018 
L 237.6 -69.758567 
L 241.2 -69.758567 
L 241.2 -79.159594 
L 241.2 -79.159594 
L 237.6 -79.159594 
L 237.6 -78.068152 
L 234 -78.068152 
L 234 -76.686676 
L 230.4 -76.686676 
L 230.4 -75.3019 
L 226.8 -75.3019 
L 226.8 -73.980104 
L 223.2 -73.980104 
L 223.2 -73.328982 
L 219.6 -73.328982 
L 219.6 -73.239502 
L 216 -73.239502 
L 216 -72.889756 
L 212.4 -72.889756 
L 212.4 -72.035495 
L 208.8 -72.035495 
L 208.8 -70.394004 
L 205.2 -70.394004 
L 205.2 -68.562292 
L 201.6 -68.562292 
L 201.6 -66.990088 
L 198 -66.990088 
L 198 -65.830851 
L 194.4 -65.830851 
L 194.4 -65.191481 
L 190.8 -65.191481 
L 190.8 -64.987661 
L 187.2 -64.987661 
L 187.2 -64.079811 
L 183.6 -64.079811 
L 183.6 -62.924272 
L 180 -62.924272 
L 180 -61.764064 
L 176.4 -61.764064 
L 176.4 -60.727662 
L 172.8 -60.727662 
L 172.8 -59.764074 
L 169.2 -59.764074 
L 169.2 -59.074415 
L 165.6 -59.074415 
L 165.6 -58.916867 
L 162 -58.916867 
L 162 -58.387333 
L 158.4 -58.387333 
L 158.4 -57.712931 
L 154.8 -57.712931 
L 154.8 -56.717984 
L 151.2 -56.717984 
L 151.2 -56.033313 
L 147.6 -56.033313 
L 147.6 -55.211643 
L 144 -55.211643 
L 144 -55.115999 
L 140.4 -55.115999 
L 140.4 -54.977006 
L 136.8 -54.977006 
L 136.8 -53.944646 
L 133.2 -53.944646 
L 133.2 -53.513497 
L 129.6 -53.513497 
L 129.6 -52.7112 
L 126 -52.7112 
L 126 -52.22931 
L 122.4 -52.22931 
L 122.4 -51.919766 
L 118.8 -51.919766 
L 118.8 -51.737642 
L 115.2 -51.737642 
L 115.2 -51.577958 
L 111.6 -51.577958 
L 111.6 -51.394059 
L 108 -51.394059 
L 108 -51.000413 
L 104.4 -51.000413 
L 104.4 -50.631816 
L 100.8 -50.631816 
L 100.8 -50.307989 
L 97.2 -50.307989 
L 97.2 -49.762127 
L 93.6 -49.762127 
L 93.6 -49.641844 
L 90 -49.641844 
L 90 -49.51584 
L 86.4 -49.51584 
L 86.4 -49.1832 
L 82.8 -49.1832 
L 82.8 -48.68424 
L 79.2 -48.68424 
L 79.2 -47.979575 
L 75.6 -47.979575 
L 75.6 -47.711534 
L 72 -47.711534 
L 72 -47.521331 
z
" id="mef9b178590"/>
    </defs>
    <g clip-path="url(#pa3bc6cd859)">
     <use style="fill:#ff7f0e;" x="0" xlink:href="#mef9b178590" y="432"/>
    </g>
   </g>
   <g id="PolyCollection_15">
    <defs>
     <path d="M 72 -47.522661 
L 72 -47.521331 
L 72 -47.711534 
L 75.6 -47.711534 
L 75.6 -47.979575 
L 79.2 -47.979575 
L 79.2 -48.68424 
L 82.8 -48.68424 
L 82.8 -49.1832 
L 86.4 -49.1832 
L 86.4 -49.51584 
L 90 -49.51584 
L 90 -49.641844 
L 93.6 -49.641844 
L 93.6 -49.762127 
L 97.2 -49.762127 
L 97.2 -50.307989 
L 100.8 -50.307989 
L 100.8 -50.631816 
L 104.4 -50.631816 
L 104.4 -51.000413 
L 108 -51.000413 
L 108 -51.394059 
L 111.6 -51.394059 
L 111.6 -51.577958 
L 115.2 -51.577958 
L 115.2 -51.737642 
L 118.8 -51.737642 
L 118.8 -51.919766 
L 122.4 -51.919766 
L 122.4 -52.22931 
L 126 -52.22931 
L 126 -52.7112 
L 129.6 -52.7112 
L 129.6 -53.513497 
L 133.2 -53.513497 
L 133.2 -53.944646 
L 136.8 -53.944646 
L 136.8 -54.977006 
L 140.4 -54.977006 
L 140.4 -55.115999 
L 144 -55.115999 
L 144 -55.211643 
L 147.6 -55.211643 
L 147.6 -56.033313 
L 151.2 -56.033313 
L 151.2 -56.717984 
L 154.8 -56.717984 
L 154.8 -57.712931 
L 158.4 -57.712931 
L 158.4 -58.387333 
L 162 -58.387333 
L 162 -58.916867 
L 165.6 -58.916867 
L 165.6 -59.074415 
L 169.2 -59.074415 
L 169.2 -59.764074 
L 172.8 -59.764074 
L 172.8 -60.727662 
L 176.4 -60.727662 
L 176.4 -61.764064 
L 180 -61.764064 
L 180 -62.924272 
L 183.6 -62.924272 
L 183.6 -64.079811 
L 187.2 -64.079811 
L 187.2 -64.987661 
L 190.8 -64.987661 
L 190.8 -65.191481 
L 194.4 -65.191481 
L 194.4 -65.830851 
L 198 -65.830851 
L 198 -66.990088 
L 201.6 -66.990088 
L 201.6 -68.562292 
L 205.2 -68.562292 
L 205.2 -70.394004 
L 208.8 -70.394004 
L 208.8 -72.035495 
L 212.4 -72.035495 
L 212.4 -72.889756 
L 216 -72.889756 
L 216 -73.239502 
L 219.6 -73.239502 
L 219.6 -73.328982 
L 223.2 -73.328982 
L 223.2 -73.980104 
L 226.8 -73.980104 
L 226.8 -75.3019 
L 230.4 -75.3019 
L 230.4 -76.686676 
L 234 -76.686676 
L 234 -78.068152 
L 237.6 -78.068152 
L 237.6 -79.159594 
L 241.2 -79.159594 
L 241.2 -91.997134 
L 241.2 -91.997134 
L 237.6 -91.997134 
L 237.6 -90.208037 
L 234 -90.208037 
L 234 -87.79597 
L 230.4 -87.79597 
L 230.4 -85.606983 
L 226.8 -85.606983 
L 226.8 -83.79665 
L 223.2 -83.79665 
L 223.2 -83.75734 
L 219.6 -83.75734 
L 219.6 -83.767004 
L 216 -83.767004 
L 216 -83.345501 
L 212.4 -83.345501 
L 212.4 -83.701698 
L 208.8 -83.701698 
L 208.8 -81.281014 
L 205.2 -81.281014 
L 205.2 -79.222184 
L 201.6 -79.222184 
L 201.6 -77.041556 
L 198 -77.041556 
L 198 -75.34217 
L 194.4 -75.34217 
L 194.4 -74.427677 
L 190.8 -74.427677 
L 190.8 -74.339406 
L 187.2 -74.339406 
L 187.2 -72.891505 
L 183.6 -72.891505 
L 183.6 -71.367718 
L 180 -71.367718 
L 180 -69.784496 
L 176.4 -69.784496 
L 176.4 -68.359347 
L 172.8 -68.359347 
L 172.8 -67.523895 
L 169.2 -67.523895 
L 169.2 -66.385142 
L 165.6 -66.385142 
L 165.6 -66.322054 
L 162 -66.322054 
L 162 -65.928267 
L 158.4 -65.928267 
L 158.4 -65.577382 
L 154.8 -65.577382 
L 154.8 -64.996817 
L 151.2 -64.996817 
L 151.2 -64.163559 
L 147.6 -64.163559 
L 147.6 -62.900624 
L 144 -62.900624 
L 144 -62.711999 
L 140.4 -62.711999 
L 140.4 -62.434012 
L 136.8 -62.434012 
L 136.8 -60.369292 
L 133.2 -60.369292 
L 133.2 -59.506994 
L 129.6 -59.506994 
L 129.6 -57.9024 
L 126 -57.9024 
L 126 -56.93862 
L 122.4 -56.93862 
L 122.4 -56.319531 
L 118.8 -56.319531 
L 118.8 -55.955285 
L 115.2 -55.955285 
L 115.2 -55.635916 
L 111.6 -55.635916 
L 111.6 -55.268117 
L 108 -55.268117 
L 108 -54.480825 
L 104.4 -54.480825 
L 104.4 -53.743632 
L 100.8 -53.743632 
L 100.8 -53.095978 
L 97.2 -53.095978 
L 97.2 -52.004253 
L 93.6 -52.004253 
L 93.6 -51.763688 
L 90 -51.763688 
L 90 -51.51168 
L 86.4 -51.51168 
L 86.4 -50.8464 
L 82.8 -50.8464 
L 82.8 -49.84848 
L 79.2 -49.84848 
L 79.2 -48.439151 
L 75.6 -48.439151 
L 75.6 -47.903068 
L 72 -47.903068 
L 72 -47.522661 
z
" id="mfd8a45dae0"/>
    </defs>
    <g clip-path="url(#pa3bc6cd859)">
     <use style="fill:#d62728;" x="0" xlink:href="#mfd8a45dae0" y="432"/>
    </g>
   </g>
   <g id="PolyCollection_16">
    <defs>
     <path d="M 72 -56.966976 
L 72 -47.522661 
L 72 -47.903068 
L 75.6 -47.903068 
L 75.6 -48.439151 
L 79.2 -48.439151 
L 79.2 -49.84848 
L 82.8 -49.84848 
L 82.8 -50.8464 
L 86.4 -50.8464 
L 86.4 -51.51168 
L 90 -51.51168 
L 90 -51.763688 
L 93.6 -51.763688 
L 93.6 -52.004253 
L 97.2 -52.004253 
L 97.2 -53.095978 
L 100.8 -53.095978 
L 100.8 -53.743632 
L 104.4 -53.743632 
L 104.4 -54.480825 
L 108 -54.480825 
L 108 -55.268117 
L 111.6 -55.268117 
L 111.6 -55.635916 
L 115.2 -55.635916 
L 115.2 -55.955285 
L 118.8 -55.955285 
L 118.8 -56.319531 
L 122.4 -56.319531 
L 122.4 -56.93862 
L 126 -56.93862 
L 126 -57.9024 
L 129.6 -57.9024 
L 129.6 -59.506994 
L 133.2 -59.506994 
L 133.2 -60.369292 
L 136.8 -60.369292 
L 136.8 -62.434012 
L 140.4 -62.434012 
L 140.4 -62.711999 
L 144 -62.711999 
L 144 -62.900624 
L 147.6 -62.900624 
L 147.6 -64.163559 
L 151.2 -64.163559 
L 151.2 -64.996817 
L 154.8 -64.996817 
L 154.8 -65.577382 
L 158.4 -65.577382 
L 158.4 -65.928267 
L 162 -65.928267 
L 162 -66.322054 
L 165.6 -66.322054 
L 165.6 -66.385142 
L 169.2 -66.385142 
L 169.2 -67.523895 
L 172.8 -67.523895 
L 172.8 -68.359347 
L 176.4 -68.359347 
L 176.4 -69.784496 
L 180 -69.784496 
L 180 -71.367718 
L 183.6 -71.367718 
L 183.6 -72.891505 
L 187.2 -72.891505 
L 187.2 -74.339406 
L 190.8 -74.339406 
L 190.8 -74.427677 
L 194.4 -74.427677 
L 194.4 -75.34217 
L 198 -75.34217 
L 198 -77.041556 
L 201.6 -77.041556 
L 201.6 -79.222184 
L 205.2 -79.222184 
L 205.2 -81.281014 
L 208.8 -81.281014 
L 208.8 -83.701698 
L 212.4 -83.701698 
L 212.4 -83.345501 
L 216 -83.345501 
L 216 -83.767004 
L 219.6 -83.767004 
L 219.6 -83.75734 
L 223.2 -83.75734 
L 223.2 -83.79665 
L 226.8 -83.79665 
L 226.8 -85.606983 
L 230.4 -85.606983 
L 230.4 -87.79597 
L 234 -87.79597 
L 234 -90.208037 
L 237.6 -90.208037 
L 237.6 -91.997134 
L 241.2 -91.997134 
L 241.2 -105.39936 
L 241.2 -105.39936 
L 237.6 -105.39936 
L 237.6 -105.39936 
L 234 -105.39936 
L 234 -105.39936 
L 230.4 -105.39936 
L 230.4 -105.39936 
L 226.8 -105.39936 
L 226.8 -97.482528 
L 223.2 -97.482528 
L 223.2 -97.482528 
L 219.6 -97.482528 
L 219.6 -97.482528 
L 216 -97.482528 
L 216 -97.482528 
L 212.4 -97.482528 
L 212.4 -97.482528 
L 208.8 -97.482528 
L 208.8 -97.482528 
L 205.2 -97.482528 
L 205.2 -97.482528 
L 201.6 -97.482528 
L 201.6 -97.482528 
L 198 -97.482528 
L 198 -97.482528 
L 194.4 -97.482528 
L 194.4 -97.482528 
L 190.8 -97.482528 
L 190.8 -97.482528 
L 187.2 -97.482528 
L 187.2 -97.482528 
L 183.6 -97.482528 
L 183.6 -97.482528 
L 180 -97.482528 
L 180 -97.482528 
L 176.4 -97.482528 
L 176.4 -86.904576 
L 172.8 -86.904576 
L 172.8 -86.904576 
L 169.2 -86.904576 
L 169.2 -86.904576 
L 165.6 -86.904576 
L 165.6 -86.904576 
L 162 -86.904576 
L 162 -86.904576 
L 158.4 -86.904576 
L 158.4 -86.904576 
L 154.8 -86.904576 
L 154.8 -86.904576 
L 151.2 -86.904576 
L 151.2 -86.904576 
L 147.6 -86.904576 
L 147.6 -86.904576 
L 144 -86.904576 
L 144 -86.904576 
L 140.4 -86.904576 
L 140.4 -86.904576 
L 136.8 -86.904576 
L 136.8 -86.904576 
L 133.2 -86.904576 
L 133.2 -86.904576 
L 129.6 -86.904576 
L 129.6 -86.904576 
L 126 -86.904576 
L 126 -76.991904 
L 122.4 -76.991904 
L 122.4 -76.991904 
L 118.8 -76.991904 
L 118.8 -76.991904 
L 115.2 -76.991904 
L 115.2 -76.991904 
L 111.6 -76.991904 
L 111.6 -76.991904 
L 108 -76.991904 
L 108 -76.991904 
L 104.4 -76.991904 
L 104.4 -76.991904 
L 100.8 -76.991904 
L 100.8 -68.010624 
L 97.2 -68.010624 
L 97.2 -68.010624 
L 93.6 -68.010624 
L 93.6 -68.010624 
L 90 -68.010624 
L 90 -68.010624 
L 86.4 -68.010624 
L 86.4 -68.010624 
L 82.8 -68.010624 
L 82.8 -68.010624 
L 79.2 -68.010624 
L 79.2 -68.010624 
L 75.6 -68.010624 
L 75.6 -56.966976 
L 72 -56.966976 
L 72 -56.966976 
z
" id="m3855576bc3"/>
    </defs>
    <g clip-path="url(#pa3bc6cd859)">
     <use style="fill:#2ca02c;" x="0" xlink:href="#m3855576bc3" y="432"/>
    </g>
   </g>
   <g id="matplotlib.axis_1">
    <g id="xtick_1">
     <g id="line2d_1">
      <path clip-path="url(#pa3bc6cd859)" d="M 93.6 384.48 
L 93.6 51.84 
" style="fill:none;stroke:#000000;stroke-dasharray:0.8,1.32;stroke-dashoffset:0;stroke-width:0.8;"/>
     </g>
     <g id="line2d_2">
      <defs>
       <path d="M 0 0 
L 0 3.5 
" id="m9331668123" style="stroke:#000000;stroke-width:0.8;"/>
      </defs>
      <g>
       <use style="stroke:#000000;stroke-width:0.8;" x="93.6" xlink:href="#m9331668123" y="384.48"/>
      </g>
     </g>
     <g id="text_1">
      <!-- Mar -->
      <g transform="translate(84.166406 399.078438)scale(0.1 -0.1)">
       <defs>
        <path d="M 628 4666 
L 1569 4666 
L 2759 1491 
L 3956 4666 
L 4897 4666 
L 4897 0 
L 4281 0 
L 4281 4097 
L 3078 897 
L 2444 897 
L 1241 4097 
L 1241 0 
L 628 0 
L 628 4666 
z
" id="DejaVuSans-4d" transform="scale(0.015625)"/>
        <path d="M 2194 1759 
Q 1497 1759 1228 1600 
Q 959 1441 959 1056 
Q 959 750 1161 570 
Q 1363 391 1709 391 
Q 2188 391 2477 730 
Q 2766 1069 2766 1631 
L 2766 1759 
L 2194 1759 
z
M 3341 1997 
L 3341 0 
L 2766 0 
L 2766 531 
Q 2569 213 2275 61 
Q 1981 -91 1556 -91 
Q 1019 -91 701 211 
Q 384 513 384 1019 
Q 384 1609 779 1909 
Q 1175 2209 1959 2209 
L 2766 2209 
L 2766 2266 
Q 2766 2663 2505 2880 
Q 2244 3097 1772 3097 
Q 1472 3097 1187 3025 
Q 903 2953 641 2809 
L 641 3341 
Q 956 3463 1253 3523 
Q 1550 3584 1831 3584 
Q 2591 3584 2966 3190 
Q 3341 2797 3341 1997 
z
" id="DejaVuSans-61" transform="scale(0.015625)"/>
        <path d="M 2631 2963 
Q 2534 3019 2420 3045 
Q 2306 3072 2169 3072 
Q 1681 3072 1420 2755 
Q 1159 2438 1159 1844 
L 1159 0 
L 581 0 
L 581 3500 
L 1159 3500 
L 1159 2956 
Q 1341 3275 1631 3429 
Q 1922 3584 2338 3584 
Q 2397 3584 2469 3576 
Q 2541 3569 2628 3553 
L 2631 2963 
z
" id="DejaVuSans-72" transform="scale(0.015625)"/>
       </defs>
       <use xlink:href="#DejaVuSans-4d"/>
       <use x="86.279297" xlink:href="#DejaVuSans-61"/>
       <use x="147.558594" xlink:href="#DejaVuSans-72"/>
      </g>
     </g>
    </g>
    <g id="xtick_2">
     <g id="line2d_3">
      <path clip-path="url(#pa3bc6cd859)" d="M 205.2 384.48 
L 205.2 51.84 
" style="fill:none;stroke:#000000;stroke-dasharray:0.8,1.32;stroke-dashoffset:0;stroke-width:0.8;"/>
     </g>
     <g id="line2d_4">
      <g>
       <use style="stroke:#000000;stroke-width:0.8;" x="205.2" xlink:href="#m9331668123" y="384.48"/>
      </g>
     </g>
     <g id="text_2">
      <!-- Apr -->
      <g transform="translate(196.55 399.078438)scale(0.1 -0.1)">
       <defs>
        <path d="M 2188 4044 
L 1331 1722 
L 3047 1722 
L 2188 4044 
z
M 1831 4666 
L 2547 4666 
L 4325 0 
L 3669 0 
L 3244 1197 
L 1141 1197 
L 716 0 
L 50 0 
L 1831 4666 
z
" id="DejaVuSans-41" transform="scale(0.015625)"/>
        <path d="M 1159 525 
L 1159 -1331 
L 581 -1331 
L 581 3500 
L 1159 3500 
L 1159 2969 
Q 1341 3281 1617 3432 
Q 1894 3584 2278 3584 
Q 2916 3584 3314 3078 
Q 3713 2572 3713 1747 
Q 3713 922 3314 415 
Q 2916 -91 2278 -91 
Q 1894 -91 1617 61 
Q 1341 213 1159 525 
z
M 3116 1747 
Q 3116 2381 2855 2742 
Q 2594 3103 2138 3103 
Q 1681 3103 1420 2742 
Q 1159 2381 1159 1747 
Q 1159 1113 1420 752 
Q 1681 391 2138 391 
Q 2594 391 2855 752 
Q 3116 1113 3116 1747 
z
" id="DejaVuSans-70" transform="scale(0.015625)"/>
       </defs>
       <use xlink:href="#DejaVuSans-41"/>
       <use x="68.408203" xlink:href="#DejaVuSans-70"/>
       <use x="131.884766" xlink:href="#DejaVuSans-72"/>
      </g>
     </g>
    </g>
    <g id="xtick_3">
     <g id="line2d_5">
      <path clip-path="url(#pa3bc6cd859)" d="M 313.2 384.48 
L 313.2 51.84 
" style="fill:none;stroke:#000000;stroke-dasharray:0.8,1.32;stroke-dashoffset:0;stroke-width:0.8;"/>
     </g>
     <g id="line2d_6">
      <g>
       <use style="stroke:#000000;stroke-width:0.8;" x="313.2" xlink:href="#m9331668123" y="384.48"/>
      </g>
     </g>
     <g id="text_3">
      <!-- May -->
      <g transform="translate(302.8625 399.078438)scale(0.1 -0.1)">
       <defs>
        <path d="M 2059 -325 
Q 1816 -950 1584 -1140 
Q 1353 -1331 966 -1331 
L 506 -1331 
L 506 -850 
L 844 -850 
Q 1081 -850 1212 -737 
Q 1344 -625 1503 -206 
L 1606 56 
L 191 3500 
L 800 3500 
L 1894 763 
L 2988 3500 
L 3597 3500 
L 2059 -325 
z
" id="DejaVuSans-79" transform="scale(0.015625)"/>
       </defs>
       <use xlink:href="#DejaVuSans-4d"/>
       <use x="86.279297" xlink:href="#DejaVuSans-61"/>
       <use x="147.558594" xlink:href="#DejaVuSans-79"/>
      </g>
     </g>
    </g>
    <g id="xtick_4">
     <g id="line2d_7">
      <path clip-path="url(#pa3bc6cd859)" d="M 424.8 384.48 
L 424.8 51.84 
" style="fill:none;stroke:#000000;stroke-dasharray:0.8,1.32;stroke-dashoffset:0;stroke-width:0.8;"/>
     </g>
     <g id="line2d_8">
      <g>
       <use style="stroke:#000000;stroke-width:0.8;" x="424.8" xlink:href="#m9331668123" y="384.48"/>
      </g>
     </g>
     <g id="text_4">
      <!-- Jun -->
      <g transform="translate(416.9875 399.078438)scale(0.1 -0.1)">
       <defs>
        <path d="M 628 4666 
L 1259 4666 
L 1259 325 
Q 1259 -519 939 -900 
Q 619 -1281 -91 -1281 
L -331 -1281 
L -331 -750 
L -134 -750 
Q 284 -750 456 -515 
Q 628 -281 628 325 
L 628 4666 
z
" id="DejaVuSans-4a" transform="scale(0.015625)"/>
        <path d="M 544 1381 
L 544 3500 
L 1119 3500 
L 1119 1403 
Q 1119 906 1312 657 
Q 1506 409 1894 409 
Q 2359 409 2629 706 
Q 2900 1003 2900 1516 
L 2900 3500 
L 3475 3500 
L 3475 0 
L 2900 0 
L 2900 538 
Q 2691 219 2414 64 
Q 2138 -91 1772 -91 
Q 1169 -91 856 284 
Q 544 659 544 1381 
z
M 1991 3584 
L 1991 3584 
z
" id="DejaVuSans-75" transform="scale(0.015625)"/>
        <path d="M 3513 2113 
L 3513 0 
L 2938 0 
L 2938 2094 
Q 2938 2591 2744 2837 
Q 2550 3084 2163 3084 
Q 1697 3084 1428 2787 
Q 1159 2491 1159 1978 
L 1159 0 
L 581 0 
L 581 3500 
L 1159 3500 
L 1159 2956 
Q 1366 3272 1645 3428 
Q 1925 3584 2291 3584 
Q 2894 3584 3203 3211 
Q 3513 2838 3513 2113 
z
" id="DejaVuSans-6e" transform="scale(0.015625)"/>
       </defs>
       <use xlink:href="#DejaVuSans-4a"/>
       <use x="29.492188" xlink:href="#DejaVuSans-75"/>
       <use x="92.871094" xlink:href="#DejaVuSans-6e"/>
      </g>
     </g>
    </g>
   </g>
   <g id="matplotlib.axis_2">
    <g id="ytick_1">
     <g id="line2d_9">
      <path clip-path="url(#pa3bc6cd859)" d="M 72 384.48 
L 518.4 384.48 
" style="fill:none;stroke:#000000;stroke-dasharray:0.8,1.32;stroke-dashoffset:0;stroke-width:0.8;"/>
     </g>
     <g id="line2d_10">
      <defs>
       <path d="M 0 0 
L -3.5 0 
" id="m6831e8242c" style="stroke:#000000;stroke-width:0.8;"/>
      </defs>
      <g>
       <use style="stroke:#000000;stroke-width:0.8;" x="72" xlink:href="#m6831e8242c" y="384.48"/>
      </g>
     </g>
     <g id="text_5">
      <!-- 0 -->
      <g transform="translate(58.6375 388.279219)scale(0.1 -0.1)">
       <defs>
        <path d="M 2034 4250 
Q 1547 4250 1301 3770 
Q 1056 3291 1056 2328 
Q 1056 1369 1301 889 
Q 1547 409 2034 409 
Q 2525 409 2770 889 
Q 3016 1369 3016 2328 
Q 3016 3291 2770 3770 
Q 2525 4250 2034 4250 
z
M 2034 4750 
Q 2819 4750 3233 4129 
Q 3647 3509 3647 2328 
Q 3647 1150 3233 529 
Q 2819 -91 2034 -91 
Q 1250 -91 836 529 
Q 422 1150 422 2328 
Q 422 3509 836 4129 
Q 1250 4750 2034 4750 
z
" id="DejaVuSans-30" transform="scale(0.015625)"/>
       </defs>
       <use xlink:href="#DejaVuSans-30"/>
      </g>
     </g>
    </g>
    <g id="ytick_2">
     <g id="line2d_11">
      <path clip-path="url(#pa3bc6cd859)" d="M 72 317.952 
L 518.4 317.952 
" style="fill:none;stroke:#000000;stroke-dasharray:0.8,1.32;stroke-dashoffset:0;stroke-width:0.8;"/>
     </g>
     <g id="line2d_12">
      <g>
       <use style="stroke:#000000;stroke-width:0.8;" x="72" xlink:href="#m6831e8242c" y="317.952"/>
      </g>
     </g>
     <g id="text_6">
      <!-- 1000 -->
      <g transform="translate(39.55 321.751219)scale(0.1 -0.1)">
       <defs>
        <path d="M 794 531 
L 1825 531 
L 1825 4091 
L 703 3866 
L 703 4441 
L 1819 4666 
L 2450 4666 
L 2450 531 
L 3481 531 
L 3481 0 
L 794 0 
L 794 531 
z
" id="DejaVuSans-31" transform="scale(0.015625)"/>
       </defs>
       <use xlink:href="#DejaVuSans-31"/>
       <use x="63.623047" xlink:href="#DejaVuSans-30"/>
       <use x="127.246094" xlink:href="#DejaVuSans-30"/>
       <use x="190.869141" xlink:href="#DejaVuSans-30"/>
      </g>
     </g>
    </g>
    <g id="ytick_3">
     <g id="line2d_13">
      <path clip-path="url(#pa3bc6cd859)" d="M 72 251.424 
L 518.4 251.424 
" style="fill:none;stroke:#000000;stroke-dasharray:0.8,1.32;stroke-dashoffset:0;stroke-width:0.8;"/>
     </g>
     <g id="line2d_14">
      <g>
       <use style="stroke:#000000;stroke-width:0.8;" x="72" xlink:href="#m6831e8242c" y="251.424"/>
      </g>
     </g>
     <g id="text_7">
      <!-- 2000 -->
      <g transform="translate(39.55 255.223219)scale(0.1 -0.1)">
       <defs>
        <path d="M 1228 531 
L 3431 531 
L 3431 0 
L 469 0 
L 469 531 
Q 828 903 1448 1529 
Q 2069 2156 2228 2338 
Q 2531 2678 2651 2914 
Q 2772 3150 2772 3378 
Q 2772 3750 2511 3984 
Q 2250 4219 1831 4219 
Q 1534 4219 1204 4116 
Q 875 4013 500 3803 
L 500 4441 
Q 881 4594 1212 4672 
Q 1544 4750 1819 4750 
Q 2544 4750 2975 4387 
Q 3406 4025 3406 3419 
Q 3406 3131 3298 2873 
Q 3191 2616 2906 2266 
Q 2828 2175 2409 1742 
Q 1991 1309 1228 531 
z
" id="DejaVuSans-32" transform="scale(0.015625)"/>
       </defs>
       <use xlink:href="#DejaVuSans-32"/>
       <use x="63.623047" xlink:href="#DejaVuSans-30"/>
       <use x="127.246094" xlink:href="#DejaVuSans-30"/>
       <use x="190.869141" xlink:href="#DejaVuSans-30"/>
      </g>
     </g>
    </g>
    <g id="ytick_4">
     <g id="line2d_15">
      <path clip-path="url(#pa3bc6cd859)" d="M 72 184.896 
L 518.4 184.896 
" style="fill:none;stroke:#000000;stroke-dasharray:0.8,1.32;stroke-dashoffset:0;stroke-width:0.8;"/>
     </g>
     <g id="line2d_16">
      <g>
       <use style="stroke:#000000;stroke-width:0.8;" x="72" xlink:href="#m6831e8242c" y="184.896"/>
      </g>
     </g>
     <g id="text_8">
      <!-- 3000 -->
      <g transform="translate(39.55 188.695219)scale(0.1 -0.1)">
       <defs>
        <path d="M 2597 2516 
Q 3050 2419 3304 2112 
Q 3559 1806 3559 1356 
Q 3559 666 3084 287 
Q 2609 -91 1734 -91 
Q 1441 -91 1130 -33 
Q 819 25 488 141 
L 488 750 
Q 750 597 1062 519 
Q 1375 441 1716 441 
Q 2309 441 2620 675 
Q 2931 909 2931 1356 
Q 2931 1769 2642 2001 
Q 2353 2234 1838 2234 
L 1294 2234 
L 1294 2753 
L 1863 2753 
Q 2328 2753 2575 2939 
Q 2822 3125 2822 3475 
Q 2822 3834 2567 4026 
Q 2313 4219 1838 4219 
Q 1578 4219 1281 4162 
Q 984 4106 628 3988 
L 628 4550 
Q 988 4650 1302 4700 
Q 1616 4750 1894 4750 
Q 2613 4750 3031 4423 
Q 3450 4097 3450 3541 
Q 3450 3153 3228 2886 
Q 3006 2619 2597 2516 
z
" id="DejaVuSans-33" transform="scale(0.015625)"/>
       </defs>
       <use xlink:href="#DejaVuSans-33"/>
       <use x="63.623047" xlink:href="#DejaVuSans-30"/>
       <use x="127.246094" xlink:href="#DejaVuSans-30"/>
       <use x="190.869141" xlink:href="#DejaVuSans-30"/>
      </g>
     </g>
    </g>
    <g id="ytick_5">
     <g id="line2d_17">
      <path clip-path="url(#pa3bc6cd859)" d="M 72 118.368 
L 518.4 118.368 
" style="fill:none;stroke:#000000;stroke-dasharray:0.8,1.32;stroke-dashoffset:0;stroke-width:0.8;"/>
     </g>
     <g id="line2d_18">
      <g>
       <use style="stroke:#000000;stroke-width:0.8;" x="72" xlink:href="#m6831e8242c" y="118.368"/>
      </g>
     </g>
     <g id="text_9">
      <!-- 4000 -->
      <g transform="translate(39.55 122.167219)scale(0.1 -0.1)">
       <defs>
        <path d="M 2419 4116 
L 825 1625 
L 2419 1625 
L 2419 4116 
z
M 2253 4666 
L 3047 4666 
L 3047 1625 
L 3713 1625 
L 3713 1100 
L 3047 1100 
L 3047 0 
L 2419 0 
L 2419 1100 
L 313 1100 
L 313 1709 
L 2253 4666 
z
" id="DejaVuSans-34" transform="scale(0.015625)"/>
       </defs>
       <use xlink:href="#DejaVuSans-34"/>
       <use x="63.623047" xlink:href="#DejaVuSans-30"/>
       <use x="127.246094" xlink:href="#DejaVuSans-30"/>
       <use x="190.869141" xlink:href="#DejaVuSans-30"/>
      </g>
     </g>
    </g>
    <g id="ytick_6">
     <g id="line2d_19">
      <path clip-path="url(#pa3bc6cd859)" d="M 72 51.84 
L 518.4 51.84 
" style="fill:none;stroke:#000000;stroke-dasharray:0.8,1.32;stroke-dashoffset:0;stroke-width:0.8;"/>
     </g>
     <g id="line2d_20">
      <g>
       <use style="stroke:#000000;stroke-width:0.8;" x="72" xlink:href="#m6831e8242c" y="51.84"/>
      </g>
     </g>
     <g id="text_10">
      <!-- 5000 -->
      <g transform="translate(39.55 55.639219)scale(0.1 -0.1)">
       <defs>
        <path d="M 691 4666 
L 3169 4666 
L 3169 4134 
L 1269 4134 
L 1269 2991 
Q 1406 3038 1543 3061 
Q 1681 3084 1819 3084 
Q 2600 3084 3056 2656 
Q 3513 2228 3513 1497 
Q 3513 744 3044 326 
Q 2575 -91 1722 -91 
Q 1428 -91 1123 -41 
Q 819 9 494 109 
L 494 744 
Q 775 591 1075 516 
Q 1375 441 1709 441 
Q 2250 441 2565 725 
Q 2881 1009 2881 1497 
Q 2881 1984 2565 2268 
Q 2250 2553 1709 2553 
Q 1456 2553 1204 2497 
Q 953 2441 691 2322 
L 691 4666 
z
" id="DejaVuSans-35" transform="scale(0.015625)"/>
       </defs>
       <use xlink:href="#DejaVuSans-35"/>
       <use x="63.623047" xlink:href="#DejaVuSans-30"/>
       <use x="127.246094" xlink:href="#DejaVuSans-30"/>
       <use x="190.869141" xlink:href="#DejaVuSans-30"/>
      </g>
     </g>
    </g>
    <g id="text_11">
     <!-- Cumulative doses (thousands) -->
     <g transform="translate(33.470312 294.270156)rotate(-90)scale(0.1 -0.1)">
      <defs>
       <path d="M 4122 4306 
L 4122 3641 
Q 3803 3938 3442 4084 
Q 3081 4231 2675 4231 
Q 1875 4231 1450 3742 
Q 1025 3253 1025 2328 
Q 1025 1406 1450 917 
Q 1875 428 2675 428 
Q 3081 428 3442 575 
Q 3803 722 4122 1019 
L 4122 359 
Q 3791 134 3420 21 
Q 3050 -91 2638 -91 
Q 1578 -91 968 557 
Q 359 1206 359 2328 
Q 359 3453 968 4101 
Q 1578 4750 2638 4750 
Q 3056 4750 3426 4639 
Q 3797 4528 4122 4306 
z
" id="DejaVuSans-43" transform="scale(0.015625)"/>
       <path d="M 3328 2828 
Q 3544 3216 3844 3400 
Q 4144 3584 4550 3584 
Q 5097 3584 5394 3201 
Q 5691 2819 5691 2113 
L 5691 0 
L 5113 0 
L 5113 2094 
Q 5113 2597 4934 2840 
Q 4756 3084 4391 3084 
Q 3944 3084 3684 2787 
Q 3425 2491 3425 1978 
L 3425 0 
L 2847 0 
L 2847 2094 
Q 2847 2600 2669 2842 
Q 2491 3084 2119 3084 
Q 1678 3084 1418 2786 
Q 1159 2488 1159 1978 
L 1159 0 
L 581 0 
L 581 3500 
L 1159 3500 
L 1159 2956 
Q 1356 3278 1631 3431 
Q 1906 3584 2284 3584 
Q 2666 3584 2933 3390 
Q 3200 3197 3328 2828 
z
" id="DejaVuSans-6d" transform="scale(0.015625)"/>
       <path d="M 603 4863 
L 1178 4863 
L 1178 0 
L 603 0 
L 603 4863 
z
" id="DejaVuSans-6c" transform="scale(0.015625)"/>
       <path d="M 1172 4494 
L 1172 3500 
L 2356 3500 
L 2356 3053 
L 1172 3053 
L 1172 1153 
Q 1172 725 1289 603 
Q 1406 481 1766 481 
L 2356 481 
L 2356 0 
L 1766 0 
Q 1100 0 847 248 
Q 594 497 594 1153 
L 594 3053 
L 172 3053 
L 172 3500 
L 594 3500 
L 594 4494 
L 1172 4494 
z
" id="DejaVuSans-74" transform="scale(0.015625)"/>
       <path d="M 603 3500 
L 1178 3500 
L 1178 0 
L 603 0 
L 603 3500 
z
M 603 4863 
L 1178 4863 
L 1178 4134 
L 603 4134 
L 603 4863 
z
" id="DejaVuSans-69" transform="scale(0.015625)"/>
       <path d="M 191 3500 
L 800 3500 
L 1894 563 
L 2988 3500 
L 3597 3500 
L 2284 0 
L 1503 0 
L 191 3500 
z
" id="DejaVuSans-76" transform="scale(0.015625)"/>
       <path d="M 3597 1894 
L 3597 1613 
L 953 1613 
Q 991 1019 1311 708 
Q 1631 397 2203 397 
Q 2534 397 2845 478 
Q 3156 559 3463 722 
L 3463 178 
Q 3153 47 2828 -22 
Q 2503 -91 2169 -91 
Q 1331 -91 842 396 
Q 353 884 353 1716 
Q 353 2575 817 3079 
Q 1281 3584 2069 3584 
Q 2775 3584 3186 3129 
Q 3597 2675 3597 1894 
z
M 3022 2063 
Q 3016 2534 2758 2815 
Q 2500 3097 2075 3097 
Q 1594 3097 1305 2825 
Q 1016 2553 972 2059 
L 3022 2063 
z
" id="DejaVuSans-65" transform="scale(0.015625)"/>
       <path id="DejaVuSans-20" transform="scale(0.015625)"/>
       <path d="M 2906 2969 
L 2906 4863 
L 3481 4863 
L 3481 0 
L 2906 0 
L 2906 525 
Q 2725 213 2448 61 
Q 2172 -91 1784 -91 
Q 1150 -91 751 415 
Q 353 922 353 1747 
Q 353 2572 751 3078 
Q 1150 3584 1784 3584 
Q 2172 3584 2448 3432 
Q 2725 3281 2906 2969 
z
M 947 1747 
Q 947 1113 1208 752 
Q 1469 391 1925 391 
Q 2381 391 2643 752 
Q 2906 1113 2906 1747 
Q 2906 2381 2643 2742 
Q 2381 3103 1925 3103 
Q 1469 3103 1208 2742 
Q 947 2381 947 1747 
z
" id="DejaVuSans-64" transform="scale(0.015625)"/>
       <path d="M 1959 3097 
Q 1497 3097 1228 2736 
Q 959 2375 959 1747 
Q 959 1119 1226 758 
Q 1494 397 1959 397 
Q 2419 397 2687 759 
Q 2956 1122 2956 1747 
Q 2956 2369 2687 2733 
Q 2419 3097 1959 3097 
z
M 1959 3584 
Q 2709 3584 3137 3096 
Q 3566 2609 3566 1747 
Q 3566 888 3137 398 
Q 2709 -91 1959 -91 
Q 1206 -91 779 398 
Q 353 888 353 1747 
Q 353 2609 779 3096 
Q 1206 3584 1959 3584 
z
" id="DejaVuSans-6f" transform="scale(0.015625)"/>
       <path d="M 2834 3397 
L 2834 2853 
Q 2591 2978 2328 3040 
Q 2066 3103 1784 3103 
Q 1356 3103 1142 2972 
Q 928 2841 928 2578 
Q 928 2378 1081 2264 
Q 1234 2150 1697 2047 
L 1894 2003 
Q 2506 1872 2764 1633 
Q 3022 1394 3022 966 
Q 3022 478 2636 193 
Q 2250 -91 1575 -91 
Q 1294 -91 989 -36 
Q 684 19 347 128 
L 347 722 
Q 666 556 975 473 
Q 1284 391 1588 391 
Q 1994 391 2212 530 
Q 2431 669 2431 922 
Q 2431 1156 2273 1281 
Q 2116 1406 1581 1522 
L 1381 1569 
Q 847 1681 609 1914 
Q 372 2147 372 2553 
Q 372 3047 722 3315 
Q 1072 3584 1716 3584 
Q 2034 3584 2315 3537 
Q 2597 3491 2834 3397 
z
" id="DejaVuSans-73" transform="scale(0.015625)"/>
       <path d="M 1984 4856 
Q 1566 4138 1362 3434 
Q 1159 2731 1159 2009 
Q 1159 1288 1364 580 
Q 1569 -128 1984 -844 
L 1484 -844 
Q 1016 -109 783 600 
Q 550 1309 550 2009 
Q 550 2706 781 3412 
Q 1013 4119 1484 4856 
L 1984 4856 
z
" id="DejaVuSans-28" transform="scale(0.015625)"/>
       <path d="M 3513 2113 
L 3513 0 
L 2938 0 
L 2938 2094 
Q 2938 2591 2744 2837 
Q 2550 3084 2163 3084 
Q 1697 3084 1428 2787 
Q 1159 2491 1159 1978 
L 1159 0 
L 581 0 
L 581 4863 
L 1159 4863 
L 1159 2956 
Q 1366 3272 1645 3428 
Q 1925 3584 2291 3584 
Q 2894 3584 3203 3211 
Q 3513 2838 3513 2113 
z
" id="DejaVuSans-68" transform="scale(0.015625)"/>
       <path d="M 513 4856 
L 1013 4856 
Q 1481 4119 1714 3412 
Q 1947 2706 1947 2009 
Q 1947 1309 1714 600 
Q 1481 -109 1013 -844 
L 513 -844 
Q 928 -128 1133 580 
Q 1338 1288 1338 2009 
Q 1338 2731 1133 3434 
Q 928 4138 513 4856 
z
" id="DejaVuSans-29" transform="scale(0.015625)"/>
      </defs>
      <use xlink:href="#DejaVuSans-43"/>
      <use x="69.824219" xlink:href="#DejaVuSans-75"/>
      <use x="133.203125" xlink:href="#DejaVuSans-6d"/>
      <use x="230.615234" xlink:href="#DejaVuSans-75"/>
      <use x="293.994141" xlink:href="#DejaVuSans-6c"/>
      <use x="321.777344" xlink:href="#DejaVuSans-61"/>
      <use x="383.056641" xlink:href="#DejaVuSans-74"/>
      <use x="422.265625" xlink:href="#DejaVuSans-69"/>
      <use x="450.048828" xlink:href="#DejaVuSans-76"/>
      <use x="509.228516" xlink:href="#DejaVuSans-65"/>
      <use x="570.751953" xlink:href="#DejaVuSans-20"/>
      <use x="602.539062" xlink:href="#DejaVuSans-64"/>
      <use x="666.015625" xlink:href="#DejaVuSans-6f"/>
      <use x="727.197266" xlink:href="#DejaVuSans-73"/>
      <use x="779.296875" xlink:href="#DejaVuSans-65"/>
      <use x="840.820312" xlink:href="#DejaVuSans-73"/>
      <use x="892.919922" xlink:href="#DejaVuSans-20"/>
      <use x="924.707031" xlink:href="#DejaVuSans-28"/>
      <use x="963.720703" xlink:href="#DejaVuSans-74"/>
      <use x="1002.929688" xlink:href="#DejaVuSans-68"/>
      <use x="1066.308594" xlink:href="#DejaVuSans-6f"/>
      <use x="1127.490234" xlink:href="#DejaVuSans-75"/>
      <use x="1190.869141" xlink:href="#DejaVuSans-73"/>
      <use x="1242.96875" xlink:href="#DejaVuSans-61"/>
      <use x="1304.248047" xlink:href="#DejaVuSans-6e"/>
      <use x="1367.626953" xlink:href="#DejaVuSans-64"/>
      <use x="1431.103516" xlink:href="#DejaVuSans-73"/>
      <use x="1483.203125" xlink:href="#DejaVuSans-29"/>
     </g>
    </g>
   </g>
   <g id="patch_3">
    <path d="M 72 384.48 
L 72 51.84 
" style="fill:none;stroke:#000000;stroke-linecap:square;stroke-linejoin:miter;stroke-width:0.8;"/>
   </g>
   <g id="patch_4">
    <path d="M 518.4 384.48 
L 518.4 51.84 
" style="fill:none;stroke:#000000;stroke-linecap:square;stroke-linejoin:miter;stroke-width:0.8;"/>
   </g>
   <g id="patch_5">
    <path d="M 72 384.48 
L 518.4 384.48 
" style="fill:none;stroke:#000000;stroke-linecap:square;stroke-linejoin:miter;stroke-width:0.8;"/>
   </g>
   <g id="patch_6">
    <path d="M 72 51.84 
L 518.4 51.84 
" style="fill:none;stroke:#000000;stroke-linecap:square;stroke-linejoin:miter;stroke-width:0.8;"/>
   </g>
   <g id="text_12">
    <!-- Estimated Pfizer vaccine utilisation: latest utilisation rate: 76.8% -->
    <g transform="translate(100.7925 45.84)scale(0.12 -0.12)">
     <defs>
      <path d="M 628 4666 
L 3578 4666 
L 3578 4134 
L 1259 4134 
L 1259 2753 
L 3481 2753 
L 3481 2222 
L 1259 2222 
L 1259 531 
L 3634 531 
L 3634 0 
L 628 0 
L 628 4666 
z
" id="DejaVuSans-45" transform="scale(0.015625)"/>
      <path d="M 1259 4147 
L 1259 2394 
L 2053 2394 
Q 2494 2394 2734 2622 
Q 2975 2850 2975 3272 
Q 2975 3691 2734 3919 
Q 2494 4147 2053 4147 
L 1259 4147 
z
M 628 4666 
L 2053 4666 
Q 2838 4666 3239 4311 
Q 3641 3956 3641 3272 
Q 3641 2581 3239 2228 
Q 2838 1875 2053 1875 
L 1259 1875 
L 1259 0 
L 628 0 
L 628 4666 
z
" id="DejaVuSans-50" transform="scale(0.015625)"/>
      <path d="M 2375 4863 
L 2375 4384 
L 1825 4384 
Q 1516 4384 1395 4259 
Q 1275 4134 1275 3809 
L 1275 3500 
L 2222 3500 
L 2222 3053 
L 1275 3053 
L 1275 0 
L 697 0 
L 697 3053 
L 147 3053 
L 147 3500 
L 697 3500 
L 697 3744 
Q 697 4328 969 4595 
Q 1241 4863 1831 4863 
L 2375 4863 
z
" id="DejaVuSans-66" transform="scale(0.015625)"/>
      <path d="M 353 3500 
L 3084 3500 
L 3084 2975 
L 922 459 
L 3084 459 
L 3084 0 
L 275 0 
L 275 525 
L 2438 3041 
L 353 3041 
L 353 3500 
z
" id="DejaVuSans-7a" transform="scale(0.015625)"/>
      <path d="M 3122 3366 
L 3122 2828 
Q 2878 2963 2633 3030 
Q 2388 3097 2138 3097 
Q 1578 3097 1268 2742 
Q 959 2388 959 1747 
Q 959 1106 1268 751 
Q 1578 397 2138 397 
Q 2388 397 2633 464 
Q 2878 531 3122 666 
L 3122 134 
Q 2881 22 2623 -34 
Q 2366 -91 2075 -91 
Q 1284 -91 818 406 
Q 353 903 353 1747 
Q 353 2603 823 3093 
Q 1294 3584 2113 3584 
Q 2378 3584 2631 3529 
Q 2884 3475 3122 3366 
z
" id="DejaVuSans-63" transform="scale(0.015625)"/>
      <path d="M 750 794 
L 1409 794 
L 1409 0 
L 750 0 
L 750 794 
z
M 750 3309 
L 1409 3309 
L 1409 2516 
L 750 2516 
L 750 3309 
z
" id="DejaVuSans-3a" transform="scale(0.015625)"/>
      <path d="M 525 4666 
L 3525 4666 
L 3525 4397 
L 1831 0 
L 1172 0 
L 2766 4134 
L 525 4134 
L 525 4666 
z
" id="DejaVuSans-37" transform="scale(0.015625)"/>
      <path d="M 2113 2584 
Q 1688 2584 1439 2293 
Q 1191 2003 1191 1497 
Q 1191 994 1439 701 
Q 1688 409 2113 409 
Q 2538 409 2786 701 
Q 3034 994 3034 1497 
Q 3034 2003 2786 2293 
Q 2538 2584 2113 2584 
z
M 3366 4563 
L 3366 3988 
Q 3128 4100 2886 4159 
Q 2644 4219 2406 4219 
Q 1781 4219 1451 3797 
Q 1122 3375 1075 2522 
Q 1259 2794 1537 2939 
Q 1816 3084 2150 3084 
Q 2853 3084 3261 2657 
Q 3669 2231 3669 1497 
Q 3669 778 3244 343 
Q 2819 -91 2113 -91 
Q 1303 -91 875 529 
Q 447 1150 447 2328 
Q 447 3434 972 4092 
Q 1497 4750 2381 4750 
Q 2619 4750 2861 4703 
Q 3103 4656 3366 4563 
z
" id="DejaVuSans-36" transform="scale(0.015625)"/>
      <path d="M 684 794 
L 1344 794 
L 1344 0 
L 684 0 
L 684 794 
z
" id="DejaVuSans-2e" transform="scale(0.015625)"/>
      <path d="M 2034 2216 
Q 1584 2216 1326 1975 
Q 1069 1734 1069 1313 
Q 1069 891 1326 650 
Q 1584 409 2034 409 
Q 2484 409 2743 651 
Q 3003 894 3003 1313 
Q 3003 1734 2745 1975 
Q 2488 2216 2034 2216 
z
M 1403 2484 
Q 997 2584 770 2862 
Q 544 3141 544 3541 
Q 544 4100 942 4425 
Q 1341 4750 2034 4750 
Q 2731 4750 3128 4425 
Q 3525 4100 3525 3541 
Q 3525 3141 3298 2862 
Q 3072 2584 2669 2484 
Q 3125 2378 3379 2068 
Q 3634 1759 3634 1313 
Q 3634 634 3220 271 
Q 2806 -91 2034 -91 
Q 1263 -91 848 271 
Q 434 634 434 1313 
Q 434 1759 690 2068 
Q 947 2378 1403 2484 
z
M 1172 3481 
Q 1172 3119 1398 2916 
Q 1625 2713 2034 2713 
Q 2441 2713 2670 2916 
Q 2900 3119 2900 3481 
Q 2900 3844 2670 4047 
Q 2441 4250 2034 4250 
Q 1625 4250 1398 4047 
Q 1172 3844 1172 3481 
z
" id="DejaVuSans-38" transform="scale(0.015625)"/>
      <path d="M 4653 2053 
Q 4381 2053 4226 1822 
Q 4072 1591 4072 1178 
Q 4072 772 4226 539 
Q 4381 306 4653 306 
Q 4919 306 5073 539 
Q 5228 772 5228 1178 
Q 5228 1588 5073 1820 
Q 4919 2053 4653 2053 
z
M 4653 2450 
Q 5147 2450 5437 2106 
Q 5728 1763 5728 1178 
Q 5728 594 5436 251 
Q 5144 -91 4653 -91 
Q 4153 -91 3862 251 
Q 3572 594 3572 1178 
Q 3572 1766 3864 2108 
Q 4156 2450 4653 2450 
z
M 1428 4353 
Q 1159 4353 1004 4120 
Q 850 3888 850 3481 
Q 850 3069 1003 2837 
Q 1156 2606 1428 2606 
Q 1700 2606 1854 2837 
Q 2009 3069 2009 3481 
Q 2009 3884 1853 4118 
Q 1697 4353 1428 4353 
z
M 4250 4750 
L 4750 4750 
L 1831 -91 
L 1331 -91 
L 4250 4750 
z
M 1428 4750 
Q 1922 4750 2215 4408 
Q 2509 4066 2509 3481 
Q 2509 2891 2217 2550 
Q 1925 2209 1428 2209 
Q 931 2209 642 2551 
Q 353 2894 353 3481 
Q 353 4063 643 4406 
Q 934 4750 1428 4750 
z
" id="DejaVuSans-25" transform="scale(0.015625)"/>
     </defs>
     <use xlink:href="#DejaVuSans-45"/>
     <use x="63.183594" xlink:href="#DejaVuSans-73"/>
     <use x="115.283203" xlink:href="#DejaVuSans-74"/>
     <use x="154.492188" xlink:href="#DejaVuSans-69"/>
     <use x="182.275391" xlink:href="#DejaVuSans-6d"/>
     <use x="279.6875" xlink:href="#DejaVuSans-61"/>
     <use x="340.966797" xlink:href="#DejaVuSans-74"/>
     <use x="380.175781" xlink:href="#DejaVuSans-65"/>
     <use x="441.699219" xlink:href="#DejaVuSans-64"/>
     <use x="505.175781" xlink:href="#DejaVuSans-20"/>
     <use x="536.962891" xlink:href="#DejaVuSans-50"/>
     <use x="597.265625" xlink:href="#DejaVuSans-66"/>
     <use x="632.470703" xlink:href="#DejaVuSans-69"/>
     <use x="660.253906" xlink:href="#DejaVuSans-7a"/>
     <use x="712.744141" xlink:href="#DejaVuSans-65"/>
     <use x="774.267578" xlink:href="#DejaVuSans-72"/>
     <use x="815.380859" xlink:href="#DejaVuSans-20"/>
     <use x="847.167969" xlink:href="#DejaVuSans-76"/>
     <use x="906.347656" xlink:href="#DejaVuSans-61"/>
     <use x="967.626953" xlink:href="#DejaVuSans-63"/>
     <use x="1022.607422" xlink:href="#DejaVuSans-63"/>
     <use x="1077.587891" xlink:href="#DejaVuSans-69"/>
     <use x="1105.371094" xlink:href="#DejaVuSans-6e"/>
     <use x="1168.75" xlink:href="#DejaVuSans-65"/>
     <use x="1230.273438" xlink:href="#DejaVuSans-20"/>
     <use x="1262.060547" xlink:href="#DejaVuSans-75"/>
     <use x="1325.439453" xlink:href="#DejaVuSans-74"/>
     <use x="1364.648438" xlink:href="#DejaVuSans-69"/>
     <use x="1392.431641" xlink:href="#DejaVuSans-6c"/>
     <use x="1420.214844" xlink:href="#DejaVuSans-69"/>
     <use x="1447.998047" xlink:href="#DejaVuSans-73"/>
     <use x="1500.097656" xlink:href="#DejaVuSans-61"/>
     <use x="1561.376953" xlink:href="#DejaVuSans-74"/>
     <use x="1600.585938" xlink:href="#DejaVuSans-69"/>
     <use x="1628.369141" xlink:href="#DejaVuSans-6f"/>
     <use x="1689.550781" xlink:href="#DejaVuSans-6e"/>
     <use x="1752.929688" xlink:href="#DejaVuSans-3a"/>
     <use x="1786.621094" xlink:href="#DejaVuSans-20"/>
     <use x="1818.408203" xlink:href="#DejaVuSans-6c"/>
     <use x="1846.191406" xlink:href="#DejaVuSans-61"/>
     <use x="1907.470703" xlink:href="#DejaVuSans-74"/>
     <use x="1946.679688" xlink:href="#DejaVuSans-65"/>
     <use x="2008.203125" xlink:href="#DejaVuSans-73"/>
     <use x="2060.302734" xlink:href="#DejaVuSans-74"/>
     <use x="2099.511719" xlink:href="#DejaVuSans-20"/>
     <use x="2131.298828" xlink:href="#DejaVuSans-75"/>
     <use x="2194.677734" xlink:href="#DejaVuSans-74"/>
     <use x="2233.886719" xlink:href="#DejaVuSans-69"/>
     <use x="2261.669922" xlink:href="#DejaVuSans-6c"/>
     <use x="2289.453125" xlink:href="#DejaVuSans-69"/>
     <use x="2317.236328" xlink:href="#DejaVuSans-73"/>
     <use x="2369.335938" xlink:href="#DejaVuSans-61"/>
     <use x="2430.615234" xlink:href="#DejaVuSans-74"/>
     <use x="2469.824219" xlink:href="#DejaVuSans-69"/>
     <use x="2497.607422" xlink:href="#DejaVuSans-6f"/>
     <use x="2558.789062" xlink:href="#DejaVuSans-6e"/>
     <use x="2622.167969" xlink:href="#DejaVuSans-20"/>
     <use x="2653.955078" xlink:href="#DejaVuSans-72"/>
     <use x="2695.068359" xlink:href="#DejaVuSans-61"/>
     <use x="2756.347656" xlink:href="#DejaVuSans-74"/>
     <use x="2795.556641" xlink:href="#DejaVuSans-65"/>
     <use x="2857.080078" xlink:href="#DejaVuSans-3a"/>
     <use x="2890.771484" xlink:href="#DejaVuSans-20"/>
     <use x="2922.558594" xlink:href="#DejaVuSans-37"/>
     <use x="2986.181641" xlink:href="#DejaVuSans-36"/>
     <use x="3049.804688" xlink:href="#DejaVuSans-2e"/>
     <use x="3081.591797" xlink:href="#DejaVuSans-38"/>
     <use x="3145.214844" xlink:href="#DejaVuSans-25"/>
    </g>
   </g>
   <g id="legend_1">
    <g id="patch_7">
     <path d="M 312.421875 379.48 
L 511.4 379.48 
Q 513.4 379.48 513.4 377.48 
L 513.4 290.41125 
Q 513.4 288.41125 511.4 288.41125 
L 312.421875 288.41125 
Q 310.421875 288.41125 310.421875 290.41125 
L 310.421875 377.48 
Q 310.421875 379.48 312.421875 379.48 
z
" style="fill:#ffffff;opacity:0.8;stroke:#cccccc;stroke-linejoin:miter;"/>
    </g>
    <g id="patch_8">
     <path d="M 314.421875 300.009688 
L 334.421875 300.009688 
L 334.421875 293.009688 
L 314.421875 293.009688 
z
" style="fill:#2ca02c;"/>
    </g>
    <g id="text_13">
     <!-- Pfizer available (141k doses) -->
     <g transform="translate(342.421875 300.009688)scale(0.1 -0.1)">
      <defs>
       <path d="M 3116 1747 
Q 3116 2381 2855 2742 
Q 2594 3103 2138 3103 
Q 1681 3103 1420 2742 
Q 1159 2381 1159 1747 
Q 1159 1113 1420 752 
Q 1681 391 2138 391 
Q 2594 391 2855 752 
Q 3116 1113 3116 1747 
z
M 1159 2969 
Q 1341 3281 1617 3432 
Q 1894 3584 2278 3584 
Q 2916 3584 3314 3078 
Q 3713 2572 3713 1747 
Q 3713 922 3314 415 
Q 2916 -91 2278 -91 
Q 1894 -91 1617 61 
Q 1341 213 1159 525 
L 1159 0 
L 581 0 
L 581 4863 
L 1159 4863 
L 1159 2969 
z
" id="DejaVuSans-62" transform="scale(0.015625)"/>
       <path d="M 581 4863 
L 1159 4863 
L 1159 1991 
L 2875 3500 
L 3609 3500 
L 1753 1863 
L 3688 0 
L 2938 0 
L 1159 1709 
L 1159 0 
L 581 0 
L 581 4863 
z
" id="DejaVuSans-6b" transform="scale(0.015625)"/>
      </defs>
      <use xlink:href="#DejaVuSans-50"/>
      <use x="60.302734" xlink:href="#DejaVuSans-66"/>
      <use x="95.507812" xlink:href="#DejaVuSans-69"/>
      <use x="123.291016" xlink:href="#DejaVuSans-7a"/>
      <use x="175.78125" xlink:href="#DejaVuSans-65"/>
      <use x="237.304688" xlink:href="#DejaVuSans-72"/>
      <use x="278.417969" xlink:href="#DejaVuSans-20"/>
      <use x="310.205078" xlink:href="#DejaVuSans-61"/>
      <use x="371.484375" xlink:href="#DejaVuSans-76"/>
      <use x="430.664062" xlink:href="#DejaVuSans-61"/>
      <use x="491.943359" xlink:href="#DejaVuSans-69"/>
      <use x="519.726562" xlink:href="#DejaVuSans-6c"/>
      <use x="547.509766" xlink:href="#DejaVuSans-61"/>
      <use x="608.789062" xlink:href="#DejaVuSans-62"/>
      <use x="672.265625" xlink:href="#DejaVuSans-6c"/>
      <use x="700.048828" xlink:href="#DejaVuSans-65"/>
      <use x="761.572266" xlink:href="#DejaVuSans-20"/>
      <use x="793.359375" xlink:href="#DejaVuSans-28"/>
      <use x="832.373047" xlink:href="#DejaVuSans-31"/>
      <use x="895.996094" xlink:href="#DejaVuSans-34"/>
      <use x="959.619141" xlink:href="#DejaVuSans-31"/>
      <use x="1023.242188" xlink:href="#DejaVuSans-6b"/>
      <use x="1081.152344" xlink:href="#DejaVuSans-20"/>
      <use x="1112.939453" xlink:href="#DejaVuSans-64"/>
      <use x="1176.416016" xlink:href="#DejaVuSans-6f"/>
      <use x="1237.597656" xlink:href="#DejaVuSans-73"/>
      <use x="1289.697266" xlink:href="#DejaVuSans-65"/>
      <use x="1351.220703" xlink:href="#DejaVuSans-73"/>
      <use x="1403.320312" xlink:href="#DejaVuSans-29"/>
     </g>
    </g>
    <g id="patch_9">
     <path d="M 314.421875 314.687813 
L 334.421875 314.687813 
L 334.421875 307.687813 
L 314.421875 307.687813 
z
" style="fill:#d62728;"/>
    </g>
    <g id="text_14">
     <!-- Pfizer reserved (218k doses) -->
     <g transform="translate(342.421875 314.687813)scale(0.1 -0.1)">
      <use xlink:href="#DejaVuSans-50"/>
      <use x="60.302734" xlink:href="#DejaVuSans-66"/>
      <use x="95.507812" xlink:href="#DejaVuSans-69"/>
      <use x="123.291016" xlink:href="#DejaVuSans-7a"/>
      <use x="175.78125" xlink:href="#DejaVuSans-65"/>
      <use x="237.304688" xlink:href="#DejaVuSans-72"/>
      <use x="278.417969" xlink:href="#DejaVuSans-20"/>
      <use x="310.205078" xlink:href="#DejaVuSans-72"/>
      <use x="349.068359" xlink:href="#DejaVuSans-65"/>
      <use x="410.591797" xlink:href="#DejaVuSans-73"/>
      <use x="462.691406" xlink:href="#DejaVuSans-65"/>
      <use x="524.214844" xlink:href="#DejaVuSans-72"/>
      <use x="565.328125" xlink:href="#DejaVuSans-76"/>
      <use x="624.507812" xlink:href="#DejaVuSans-65"/>
      <use x="686.03125" xlink:href="#DejaVuSans-64"/>
      <use x="749.507812" xlink:href="#DejaVuSans-20"/>
      <use x="781.294922" xlink:href="#DejaVuSans-28"/>
      <use x="820.308594" xlink:href="#DejaVuSans-32"/>
      <use x="883.931641" xlink:href="#DejaVuSans-31"/>
      <use x="947.554688" xlink:href="#DejaVuSans-38"/>
      <use x="1011.177734" xlink:href="#DejaVuSans-6b"/>
      <use x="1069.087891" xlink:href="#DejaVuSans-20"/>
      <use x="1100.875" xlink:href="#DejaVuSans-64"/>
      <use x="1164.351562" xlink:href="#DejaVuSans-6f"/>
      <use x="1225.533203" xlink:href="#DejaVuSans-73"/>
      <use x="1277.632812" xlink:href="#DejaVuSans-65"/>
      <use x="1339.15625" xlink:href="#DejaVuSans-73"/>
      <use x="1391.255859" xlink:href="#DejaVuSans-29"/>
     </g>
    </g>
    <g id="patch_10">
     <path d="M 314.421875 329.365938 
L 334.421875 329.365938 
L 334.421875 322.365938 
L 314.421875 322.365938 
z
" style="fill:#ff7f0e;"/>
    </g>
    <g id="text_15">
     <!-- Pfizer second doses (362k doses) -->
     <g transform="translate(342.421875 329.365938)scale(0.1 -0.1)">
      <use xlink:href="#DejaVuSans-50"/>
      <use x="60.302734" xlink:href="#DejaVuSans-66"/>
      <use x="95.507812" xlink:href="#DejaVuSans-69"/>
      <use x="123.291016" xlink:href="#DejaVuSans-7a"/>
      <use x="175.78125" xlink:href="#DejaVuSans-65"/>
      <use x="237.304688" xlink:href="#DejaVuSans-72"/>
      <use x="278.417969" xlink:href="#DejaVuSans-20"/>
      <use x="310.205078" xlink:href="#DejaVuSans-73"/>
      <use x="362.304688" xlink:href="#DejaVuSans-65"/>
      <use x="423.828125" xlink:href="#DejaVuSans-63"/>
      <use x="478.808594" xlink:href="#DejaVuSans-6f"/>
      <use x="539.990234" xlink:href="#DejaVuSans-6e"/>
      <use x="603.369141" xlink:href="#DejaVuSans-64"/>
      <use x="666.845703" xlink:href="#DejaVuSans-20"/>
      <use x="698.632812" xlink:href="#DejaVuSans-64"/>
      <use x="762.109375" xlink:href="#DejaVuSans-6f"/>
      <use x="823.291016" xlink:href="#DejaVuSans-73"/>
      <use x="875.390625" xlink:href="#DejaVuSans-65"/>
      <use x="936.914062" xlink:href="#DejaVuSans-73"/>
      <use x="989.013672" xlink:href="#DejaVuSans-20"/>
      <use x="1020.800781" xlink:href="#DejaVuSans-28"/>
      <use x="1059.814453" xlink:href="#DejaVuSans-33"/>
      <use x="1123.4375" xlink:href="#DejaVuSans-36"/>
      <use x="1187.060547" xlink:href="#DejaVuSans-32"/>
      <use x="1250.683594" xlink:href="#DejaVuSans-6b"/>
      <use x="1308.59375" xlink:href="#DejaVuSans-20"/>
      <use x="1340.380859" xlink:href="#DejaVuSans-64"/>
      <use x="1403.857422" xlink:href="#DejaVuSans-6f"/>
      <use x="1465.039062" xlink:href="#DejaVuSans-73"/>
      <use x="1517.138672" xlink:href="#DejaVuSans-65"/>
      <use x="1578.662109" xlink:href="#DejaVuSans-73"/>
      <use x="1630.761719" xlink:href="#DejaVuSans-29"/>
     </g>
    </g>
    <g id="patch_11">
     <path d="M 314.421875 344.044062 
L 334.421875 344.044062 
L 334.421875 337.044062 
L 314.421875 337.044062 
z
" style="fill:#1f77b4;"/>
    </g>
    <g id="text_16">
     <!-- Pfizer first doses (579k doses) -->
     <g transform="translate(342.421875 344.044062)scale(0.1 -0.1)">
      <defs>
       <path d="M 703 97 
L 703 672 
Q 941 559 1184 500 
Q 1428 441 1663 441 
Q 2288 441 2617 861 
Q 2947 1281 2994 2138 
Q 2813 1869 2534 1725 
Q 2256 1581 1919 1581 
Q 1219 1581 811 2004 
Q 403 2428 403 3163 
Q 403 3881 828 4315 
Q 1253 4750 1959 4750 
Q 2769 4750 3195 4129 
Q 3622 3509 3622 2328 
Q 3622 1225 3098 567 
Q 2575 -91 1691 -91 
Q 1453 -91 1209 -44 
Q 966 3 703 97 
z
M 1959 2075 
Q 2384 2075 2632 2365 
Q 2881 2656 2881 3163 
Q 2881 3666 2632 3958 
Q 2384 4250 1959 4250 
Q 1534 4250 1286 3958 
Q 1038 3666 1038 3163 
Q 1038 2656 1286 2365 
Q 1534 2075 1959 2075 
z
" id="DejaVuSans-39" transform="scale(0.015625)"/>
      </defs>
      <use xlink:href="#DejaVuSans-50"/>
      <use x="60.302734" xlink:href="#DejaVuSans-66"/>
      <use x="95.507812" xlink:href="#DejaVuSans-69"/>
      <use x="123.291016" xlink:href="#DejaVuSans-7a"/>
      <use x="175.78125" xlink:href="#DejaVuSans-65"/>
      <use x="237.304688" xlink:href="#DejaVuSans-72"/>
      <use x="278.417969" xlink:href="#DejaVuSans-20"/>
      <use x="310.205078" xlink:href="#DejaVuSans-66"/>
      <use x="345.410156" xlink:href="#DejaVuSans-69"/>
      <use x="373.193359" xlink:href="#DejaVuSans-72"/>
      <use x="414.306641" xlink:href="#DejaVuSans-73"/>
      <use x="466.40625" xlink:href="#DejaVuSans-74"/>
      <use x="505.615234" xlink:href="#DejaVuSans-20"/>
      <use x="537.402344" xlink:href="#DejaVuSans-64"/>
      <use x="600.878906" xlink:href="#DejaVuSans-6f"/>
      <use x="662.060547" xlink:href="#DejaVuSans-73"/>
      <use x="714.160156" xlink:href="#DejaVuSans-65"/>
      <use x="775.683594" xlink:href="#DejaVuSans-73"/>
      <use x="827.783203" xlink:href="#DejaVuSans-20"/>
      <use x="859.570312" xlink:href="#DejaVuSans-28"/>
      <use x="898.583984" xlink:href="#DejaVuSans-35"/>
      <use x="962.207031" xlink:href="#DejaVuSans-37"/>
      <use x="1025.830078" xlink:href="#DejaVuSans-39"/>
      <use x="1089.453125" xlink:href="#DejaVuSans-6b"/>
      <use x="1147.363281" xlink:href="#DejaVuSans-20"/>
      <use x="1179.150391" xlink:href="#DejaVuSans-64"/>
      <use x="1242.626953" xlink:href="#DejaVuSans-6f"/>
      <use x="1303.808594" xlink:href="#DejaVuSans-73"/>
      <use x="1355.908203" xlink:href="#DejaVuSans-65"/>
      <use x="1417.431641" xlink:href="#DejaVuSans-73"/>
      <use x="1469.53125" xlink:href="#DejaVuSans-29"/>
     </g>
    </g>
    <g id="patch_12">
     <path d="M 314.421875 358.722188 
L 334.421875 358.722188 
L 334.421875 351.722188 
L 314.421875 351.722188 
z
" style="fill:#ff0000;opacity:0.5;"/>
    </g>
    <g id="text_17">
     <!-- Phase 1a -->
     <g transform="translate(342.421875 358.722188)scale(0.1 -0.1)">
      <use xlink:href="#DejaVuSans-50"/>
      <use x="60.302734" xlink:href="#DejaVuSans-68"/>
      <use x="123.681641" xlink:href="#DejaVuSans-61"/>
      <use x="184.960938" xlink:href="#DejaVuSans-73"/>
      <use x="237.060547" xlink:href="#DejaVuSans-65"/>
      <use x="298.583984" xlink:href="#DejaVuSans-20"/>
      <use x="330.371094" xlink:href="#DejaVuSans-31"/>
      <use x="393.994141" xlink:href="#DejaVuSans-61"/>
     </g>
    </g>
    <g id="patch_13">
     <path d="M 314.421875 373.400313 
L 334.421875 373.400313 
L 334.421875 366.400313 
L 314.421875 366.400313 
z
" style="fill:#ffa500;opacity:0.5;"/>
    </g>
    <g id="text_18">
     <!-- Phase 1b -->
     <g transform="translate(342.421875 373.400313)scale(0.1 -0.1)">
      <use xlink:href="#DejaVuSans-50"/>
      <use x="60.302734" xlink:href="#DejaVuSans-68"/>
      <use x="123.681641" xlink:href="#DejaVuSans-61"/>
      <use x="184.960938" xlink:href="#DejaVuSans-73"/>
      <use x="237.060547" xlink:href="#DejaVuSans-65"/>
      <use x="298.583984" xlink:href="#DejaVuSans-20"/>
      <use x="330.371094" xlink:href="#DejaVuSans-31"/>
      <use x="393.994141" xlink:href="#DejaVuSans-62"/>
     </g>
    </g>
   </g>
  </g>
 </g>
 <defs>
  <clipPath id="pa3bc6cd859">
   <rect height="332.64" width="446.4" x="72" y="51.84"/>
  </clipPath>
 </defs>
</svg>
