<?xml version="1.0" encoding="utf-8" standalone="no"?>
<!DOCTYPE svg PUBLIC "-//W3C//DTD SVG 1.1//EN"
  "http://www.w3.org/Graphics/SVG/1.1/DTD/svg11.dtd">
<svg height="432pt" version="1.1" viewBox="0 0 576 432" width="576pt" xmlns="http://www.w3.org/2000/svg" xmlns:xlink="http://www.w3.org/1999/xlink">
 <metadata>
  <rdf:RDF xmlns:cc="http://creativecommons.org/ns#" xmlns:dc="http://purl.org/dc/elements/1.1/" xmlns:rdf="http://www.w3.org/1999/02/22-rdf-syntax-ns#">
   <cc:Work>
    <dc:type rdf:resource="http://purl.org/dc/dcmitype/StillImage"/>
    <dc:date>2021-08-02T16:37:18.450316</dc:date>
    <dc:format>image/svg+xml</dc:format>
    <dc:creator>
     <cc:Agent>
      <dc:title>Matplotlib v3.4.2, https://matplotlib.org/</dc:title>
     </cc:Agent>
    </dc:creator>
   </cc:Work>
  </rdf:RDF>
 </metadata>
 <defs>
  <style type="text/css">*{stroke-linecap:butt;stroke-linejoin:round;}</style>
 </defs>
 <g id="figure_1">
  <g id="patch_1">
   <path d="M 0 432 
L 576 432 
L 576 0 
L 0 0 
z
" style="fill:#ffffff;"/>
  </g>
  <g id="axes_1">
   <g id="patch_2">
    <path d="M 72 384.48 
L 518.4 384.48 
L 518.4 51.84 
L 72 51.84 
z
" style="fill:#ffffff;"/>
   </g>
   <g id="PolyCollection_1">
    <defs>
     <path d="M 108.440816 -47.52 
L 70.698542 -47.52 
L 70.698542 -380.16 
L 108.440816 -380.16 
L 108.440816 -380.16 
L 108.440816 -47.52 
z
" id="me81c8e1d5a"/>
    </defs>
    <g clip-path="url(#p7c868e002f)">
     <use style="fill:#ff0000;fill-opacity:0.35;" x="0" xlink:href="#me81c8e1d5a" y="432"/>
    </g>
   </g>
   <g id="PolyCollection_2">
    <defs>
     <path d="M 163.102041 -47.52 
L 108.440816 -47.52 
L 108.440816 -380.16 
L 163.102041 -380.16 
L 163.102041 -380.16 
L 163.102041 -47.52 
z
" id="m1800c196e1"/>
    </defs>
    <g clip-path="url(#p7c868e002f)">
     <use style="fill:#ffa500;fill-opacity:0.35;" x="0" xlink:href="#m1800c196e1" y="432"/>
    </g>
   </g>
   <g id="PolyCollection_3">
    <defs>
     <path d="M 306.262391 -47.52 
L 163.102041 -47.52 
L 163.102041 -380.16 
L 306.262391 -380.16 
L 306.262391 -380.16 
L 306.262391 -47.52 
z
" id="m39c79ee114"/>
    </defs>
    <g clip-path="url(#p7c868e002f)">
     <use style="fill:#ffff00;fill-opacity:0.35;" x="0" xlink:href="#m39c79ee114" y="432"/>
    </g>
   </g>
   <g id="PolyCollection_4">
    <defs>
     <path d="M 307.563848 -47.52 
L 306.262391 -47.52 
L 306.262391 -380.16 
L 307.563848 -380.16 
L 307.563848 -380.16 
L 307.563848 -47.52 
z
" id="m9e6cf8d525"/>
    </defs>
    <g clip-path="url(#p7c868e002f)">
     <use style="fill:#ffff00;fill-opacity:0.3;" x="0" xlink:href="#m9e6cf8d525" y="432"/>
    </g>
   </g>
   <g id="PolyCollection_5">
    <defs>
     <path d="M 308.865306 -47.52 
L 307.563848 -47.52 
L 307.563848 -380.16 
L 308.865306 -380.16 
L 308.865306 -380.16 
L 308.865306 -47.52 
z
" id="m474fa8d3f3"/>
    </defs>
    <g clip-path="url(#p7c868e002f)">
     <use style="fill:#ffff00;fill-opacity:0.27;" x="0" xlink:href="#m474fa8d3f3" y="432"/>
    </g>
   </g>
   <g id="PolyCollection_6">
    <defs>
     <path d="M 310.166764 -47.52 
L 308.865306 -47.52 
L 308.865306 -380.16 
L 310.166764 -380.16 
L 310.166764 -380.16 
L 310.166764 -47.52 
z
" id="m9771b633d4"/>
    </defs>
    <g clip-path="url(#p7c868e002f)">
     <use style="fill:#ffff00;fill-opacity:0.24;" x="0" xlink:href="#m9771b633d4" y="432"/>
    </g>
   </g>
   <g id="PolyCollection_7">
    <defs>
     <path d="M 311.468222 -47.52 
L 310.166764 -47.52 
L 310.166764 -380.16 
L 311.468222 -380.16 
L 311.468222 -380.16 
L 311.468222 -47.52 
z
" id="m3029715feb"/>
    </defs>
    <g clip-path="url(#p7c868e002f)">
     <use style="fill:#ffff00;fill-opacity:0.21;" x="0" xlink:href="#m3029715feb" y="432"/>
    </g>
   </g>
   <g id="PolyCollection_8">
    <defs>
     <path d="M 312.769679 -47.52 
L 311.468222 -47.52 
L 311.468222 -380.16 
L 312.769679 -380.16 
L 312.769679 -380.16 
L 312.769679 -47.52 
z
" id="m7191895f73"/>
    </defs>
    <g clip-path="url(#p7c868e002f)">
     <use style="fill:#ffff00;fill-opacity:0.18;" x="0" xlink:href="#m7191895f73" y="432"/>
    </g>
   </g>
   <g id="PolyCollection_9">
    <defs>
     <path d="M 314.071137 -47.52 
L 312.769679 -47.52 
L 312.769679 -380.16 
L 314.071137 -380.16 
L 314.071137 -380.16 
L 314.071137 -47.52 
z
" id="mc86dd46002"/>
    </defs>
    <g clip-path="url(#p7c868e002f)">
     <use style="fill:#ffff00;fill-opacity:0.15;" x="0" xlink:href="#mc86dd46002" y="432"/>
    </g>
   </g>
   <g id="PolyCollection_10">
    <defs>
     <path d="M 315.372595 -47.52 
L 314.071137 -47.52 
L 314.071137 -380.16 
L 315.372595 -380.16 
L 315.372595 -380.16 
L 315.372595 -47.52 
z
" id="mc19b419291"/>
    </defs>
    <g clip-path="url(#p7c868e002f)">
     <use style="fill:#ffff00;fill-opacity:0.12;" x="0" xlink:href="#mc19b419291" y="432"/>
    </g>
   </g>
   <g id="PolyCollection_11">
    <defs>
     <path d="M 316.674052 -47.52 
L 315.372595 -47.52 
L 315.372595 -380.16 
L 316.674052 -380.16 
L 316.674052 -380.16 
L 316.674052 -47.52 
z
" id="m90f6e590b2"/>
    </defs>
    <g clip-path="url(#p7c868e002f)">
     <use style="fill:#ffff00;fill-opacity:0.09;" x="0" xlink:href="#m90f6e590b2" y="432"/>
    </g>
   </g>
   <g id="PolyCollection_12">
    <defs>
     <path d="M 317.97551 -47.52 
L 316.674052 -47.52 
L 316.674052 -380.16 
L 317.97551 -380.16 
L 317.97551 -380.16 
L 317.97551 -47.52 
z
" id="m194a183299"/>
    </defs>
    <g clip-path="url(#p7c868e002f)">
     <use style="fill:#ffff00;fill-opacity:0.06;" x="0" xlink:href="#m194a183299" y="432"/>
    </g>
   </g>
   <g id="PolyCollection_13">
    <defs>
     <path d="M 319.276968 -47.52 
L 317.97551 -47.52 
L 317.97551 -380.16 
L 319.276968 -380.16 
L 319.276968 -380.16 
L 319.276968 -47.52 
z
" id="m6addf8bf5f"/>
    </defs>
    <g clip-path="url(#p7c868e002f)">
     <use style="fill:#ffff00;fill-opacity:0.03;" x="0" xlink:href="#m6addf8bf5f" y="432"/>
    </g>
   </g>
   <g id="matplotlib.axis_1">
    <g id="xtick_1">
     <g id="line2d_1">
      <path clip-path="url(#p7c868e002f)" d="M 81.110204 384.48 
L 81.110204 51.84 
" style="fill:none;stroke:#000000;stroke-dasharray:0.8,1.32;stroke-dashoffset:0;stroke-width:0.8;"/>
     </g>
     <g id="line2d_2">
      <defs>
       <path d="M 0 0 
L 0 3.5 
" id="ma9921a7ad6" style="stroke:#000000;stroke-width:0.8;"/>
      </defs>
      <g>
       <use style="stroke:#000000;stroke-width:0.8;" x="81.110204" xlink:href="#ma9921a7ad6" y="384.48"/>
      </g>
     </g>
     <g id="text_1">
      <!-- Mar -->
      <g transform="translate(71.67661 399.078438)scale(0.1 -0.1)">
       <defs>
        <path d="M 628 4666 
L 1569 4666 
L 2759 1491 
L 3956 4666 
L 4897 4666 
L 4897 0 
L 4281 0 
L 4281 4097 
L 3078 897 
L 2444 897 
L 1241 4097 
L 1241 0 
L 628 0 
L 628 4666 
z
" id="DejaVuSans-4d" transform="scale(0.015625)"/>
        <path d="M 2194 1759 
Q 1497 1759 1228 1600 
Q 959 1441 959 1056 
Q 959 750 1161 570 
Q 1363 391 1709 391 
Q 2188 391 2477 730 
Q 2766 1069 2766 1631 
L 2766 1759 
L 2194 1759 
z
M 3341 1997 
L 3341 0 
L 2766 0 
L 2766 531 
Q 2569 213 2275 61 
Q 1981 -91 1556 -91 
Q 1019 -91 701 211 
Q 384 513 384 1019 
Q 384 1609 779 1909 
Q 1175 2209 1959 2209 
L 2766 2209 
L 2766 2266 
Q 2766 2663 2505 2880 
Q 2244 3097 1772 3097 
Q 1472 3097 1187 3025 
Q 903 2953 641 2809 
L 641 3341 
Q 956 3463 1253 3523 
Q 1550 3584 1831 3584 
Q 2591 3584 2966 3190 
Q 3341 2797 3341 1997 
z
" id="DejaVuSans-61" transform="scale(0.015625)"/>
        <path d="M 2631 2963 
Q 2534 3019 2420 3045 
Q 2306 3072 2169 3072 
Q 1681 3072 1420 2755 
Q 1159 2438 1159 1844 
L 1159 0 
L 581 0 
L 581 3500 
L 1159 3500 
L 1159 2956 
Q 1341 3275 1631 3429 
Q 1922 3584 2338 3584 
Q 2397 3584 2469 3576 
Q 2541 3569 2628 3553 
L 2631 2963 
z
" id="DejaVuSans-72" transform="scale(0.015625)"/>
       </defs>
       <use xlink:href="#DejaVuSans-4d"/>
       <use x="86.279297" xlink:href="#DejaVuSans-61"/>
       <use x="147.558594" xlink:href="#DejaVuSans-72"/>
      </g>
     </g>
    </g>
    <g id="xtick_2">
     <g id="line2d_3">
      <path clip-path="url(#p7c868e002f)" d="M 121.455394 384.48 
L 121.455394 51.84 
" style="fill:none;stroke:#000000;stroke-dasharray:0.8,1.32;stroke-dashoffset:0;stroke-width:0.8;"/>
     </g>
     <g id="line2d_4">
      <g>
       <use style="stroke:#000000;stroke-width:0.8;" x="121.455394" xlink:href="#ma9921a7ad6" y="384.48"/>
      </g>
     </g>
     <g id="text_2">
      <!-- Apr -->
      <g transform="translate(112.805394 399.078438)scale(0.1 -0.1)">
       <defs>
        <path d="M 2188 4044 
L 1331 1722 
L 3047 1722 
L 2188 4044 
z
M 1831 4666 
L 2547 4666 
L 4325 0 
L 3669 0 
L 3244 1197 
L 1141 1197 
L 716 0 
L 50 0 
L 1831 4666 
z
" id="DejaVuSans-41" transform="scale(0.015625)"/>
        <path d="M 1159 525 
L 1159 -1331 
L 581 -1331 
L 581 3500 
L 1159 3500 
L 1159 2969 
Q 1341 3281 1617 3432 
Q 1894 3584 2278 3584 
Q 2916 3584 3314 3078 
Q 3713 2572 3713 1747 
Q 3713 922 3314 415 
Q 2916 -91 2278 -91 
Q 1894 -91 1617 61 
Q 1341 213 1159 525 
z
M 3116 1747 
Q 3116 2381 2855 2742 
Q 2594 3103 2138 3103 
Q 1681 3103 1420 2742 
Q 1159 2381 1159 1747 
Q 1159 1113 1420 752 
Q 1681 391 2138 391 
Q 2594 391 2855 752 
Q 3116 1113 3116 1747 
z
" id="DejaVuSans-70" transform="scale(0.015625)"/>
       </defs>
       <use xlink:href="#DejaVuSans-41"/>
       <use x="68.408203" xlink:href="#DejaVuSans-70"/>
       <use x="131.884766" xlink:href="#DejaVuSans-72"/>
      </g>
     </g>
    </g>
    <g id="xtick_3">
     <g id="line2d_5">
      <path clip-path="url(#p7c868e002f)" d="M 160.499125 384.48 
L 160.499125 51.84 
" style="fill:none;stroke:#000000;stroke-dasharray:0.8,1.32;stroke-dashoffset:0;stroke-width:0.8;"/>
     </g>
     <g id="line2d_6">
      <g>
       <use style="stroke:#000000;stroke-width:0.8;" x="160.499125" xlink:href="#ma9921a7ad6" y="384.48"/>
      </g>
     </g>
     <g id="text_3">
      <!-- May -->
      <g transform="translate(150.161625 399.078438)scale(0.1 -0.1)">
       <defs>
        <path d="M 2059 -325 
Q 1816 -950 1584 -1140 
Q 1353 -1331 966 -1331 
L 506 -1331 
L 506 -850 
L 844 -850 
Q 1081 -850 1212 -737 
Q 1344 -625 1503 -206 
L 1606 56 
L 191 3500 
L 800 3500 
L 1894 763 
L 2988 3500 
L 3597 3500 
L 2059 -325 
z
" id="DejaVuSans-79" transform="scale(0.015625)"/>
       </defs>
       <use xlink:href="#DejaVuSans-4d"/>
       <use x="86.279297" xlink:href="#DejaVuSans-61"/>
       <use x="147.558594" xlink:href="#DejaVuSans-79"/>
      </g>
     </g>
    </g>
    <g id="xtick_4">
     <g id="line2d_7">
      <path clip-path="url(#p7c868e002f)" d="M 200.844315 384.48 
L 200.844315 51.84 
" style="fill:none;stroke:#000000;stroke-dasharray:0.8,1.32;stroke-dashoffset:0;stroke-width:0.8;"/>
     </g>
     <g id="line2d_8">
      <g>
       <use style="stroke:#000000;stroke-width:0.8;" x="200.844315" xlink:href="#ma9921a7ad6" y="384.48"/>
      </g>
     </g>
     <g id="text_4">
      <!-- Jun -->
      <g transform="translate(193.031815 399.078438)scale(0.1 -0.1)">
       <defs>
        <path d="M 628 4666 
L 1259 4666 
L 1259 325 
Q 1259 -519 939 -900 
Q 619 -1281 -91 -1281 
L -331 -1281 
L -331 -750 
L -134 -750 
Q 284 -750 456 -515 
Q 628 -281 628 325 
L 628 4666 
z
" id="DejaVuSans-4a" transform="scale(0.015625)"/>
        <path d="M 544 1381 
L 544 3500 
L 1119 3500 
L 1119 1403 
Q 1119 906 1312 657 
Q 1506 409 1894 409 
Q 2359 409 2629 706 
Q 2900 1003 2900 1516 
L 2900 3500 
L 3475 3500 
L 3475 0 
L 2900 0 
L 2900 538 
Q 2691 219 2414 64 
Q 2138 -91 1772 -91 
Q 1169 -91 856 284 
Q 544 659 544 1381 
z
M 1991 3584 
L 1991 3584 
z
" id="DejaVuSans-75" transform="scale(0.015625)"/>
        <path d="M 3513 2113 
L 3513 0 
L 2938 0 
L 2938 2094 
Q 2938 2591 2744 2837 
Q 2550 3084 2163 3084 
Q 1697 3084 1428 2787 
Q 1159 2491 1159 1978 
L 1159 0 
L 581 0 
L 581 3500 
L 1159 3500 
L 1159 2956 
Q 1366 3272 1645 3428 
Q 1925 3584 2291 3584 
Q 2894 3584 3203 3211 
Q 3513 2838 3513 2113 
z
" id="DejaVuSans-6e" transform="scale(0.015625)"/>
       </defs>
       <use xlink:href="#DejaVuSans-4a"/>
       <use x="29.492188" xlink:href="#DejaVuSans-75"/>
       <use x="92.871094" xlink:href="#DejaVuSans-6e"/>
      </g>
     </g>
    </g>
    <g id="xtick_5">
     <g id="line2d_9">
      <path clip-path="url(#p7c868e002f)" d="M 239.888047 384.48 
L 239.888047 51.84 
" style="fill:none;stroke:#000000;stroke-dasharray:0.8,1.32;stroke-dashoffset:0;stroke-width:0.8;"/>
     </g>
     <g id="line2d_10">
      <g>
       <use style="stroke:#000000;stroke-width:0.8;" x="239.888047" xlink:href="#ma9921a7ad6" y="384.48"/>
      </g>
     </g>
     <g id="text_5">
      <!-- Jul -->
      <g transform="translate(233.855234 399.078438)scale(0.1 -0.1)">
       <defs>
        <path d="M 603 4863 
L 1178 4863 
L 1178 0 
L 603 0 
L 603 4863 
z
" id="DejaVuSans-6c" transform="scale(0.015625)"/>
       </defs>
       <use xlink:href="#DejaVuSans-4a"/>
       <use x="29.492188" xlink:href="#DejaVuSans-75"/>
       <use x="92.871094" xlink:href="#DejaVuSans-6c"/>
      </g>
     </g>
    </g>
    <g id="xtick_6">
     <g id="line2d_11">
      <path clip-path="url(#p7c868e002f)" d="M 280.233236 384.48 
L 280.233236 51.84 
" style="fill:none;stroke:#000000;stroke-dasharray:0.8,1.32;stroke-dashoffset:0;stroke-width:0.8;"/>
     </g>
     <g id="line2d_12">
      <g>
       <use style="stroke:#000000;stroke-width:0.8;" x="280.233236" xlink:href="#ma9921a7ad6" y="384.48"/>
      </g>
     </g>
     <g id="text_6">
      <!-- Aug -->
      <g transform="translate(270.469955 399.078438)scale(0.1 -0.1)">
       <defs>
        <path d="M 2906 1791 
Q 2906 2416 2648 2759 
Q 2391 3103 1925 3103 
Q 1463 3103 1205 2759 
Q 947 2416 947 1791 
Q 947 1169 1205 825 
Q 1463 481 1925 481 
Q 2391 481 2648 825 
Q 2906 1169 2906 1791 
z
M 3481 434 
Q 3481 -459 3084 -895 
Q 2688 -1331 1869 -1331 
Q 1566 -1331 1297 -1286 
Q 1028 -1241 775 -1147 
L 775 -588 
Q 1028 -725 1275 -790 
Q 1522 -856 1778 -856 
Q 2344 -856 2625 -561 
Q 2906 -266 2906 331 
L 2906 616 
Q 2728 306 2450 153 
Q 2172 0 1784 0 
Q 1141 0 747 490 
Q 353 981 353 1791 
Q 353 2603 747 3093 
Q 1141 3584 1784 3584 
Q 2172 3584 2450 3431 
Q 2728 3278 2906 2969 
L 2906 3500 
L 3481 3500 
L 3481 434 
z
" id="DejaVuSans-67" transform="scale(0.015625)"/>
       </defs>
       <use xlink:href="#DejaVuSans-41"/>
       <use x="68.408203" xlink:href="#DejaVuSans-75"/>
       <use x="131.787109" xlink:href="#DejaVuSans-67"/>
      </g>
     </g>
    </g>
    <g id="xtick_7">
     <g id="line2d_13">
      <path clip-path="url(#p7c868e002f)" d="M 320.578426 384.48 
L 320.578426 51.84 
" style="fill:none;stroke:#000000;stroke-dasharray:0.8,1.32;stroke-dashoffset:0;stroke-width:0.8;"/>
     </g>
     <g id="line2d_14">
      <g>
       <use style="stroke:#000000;stroke-width:0.8;" x="320.578426" xlink:href="#ma9921a7ad6" y="384.48"/>
      </g>
     </g>
     <g id="text_7">
      <!-- Sep -->
      <g transform="translate(311.153426 399.078438)scale(0.1 -0.1)">
       <defs>
        <path d="M 3425 4513 
L 3425 3897 
Q 3066 4069 2747 4153 
Q 2428 4238 2131 4238 
Q 1616 4238 1336 4038 
Q 1056 3838 1056 3469 
Q 1056 3159 1242 3001 
Q 1428 2844 1947 2747 
L 2328 2669 
Q 3034 2534 3370 2195 
Q 3706 1856 3706 1288 
Q 3706 609 3251 259 
Q 2797 -91 1919 -91 
Q 1588 -91 1214 -16 
Q 841 59 441 206 
L 441 856 
Q 825 641 1194 531 
Q 1563 422 1919 422 
Q 2459 422 2753 634 
Q 3047 847 3047 1241 
Q 3047 1584 2836 1778 
Q 2625 1972 2144 2069 
L 1759 2144 
Q 1053 2284 737 2584 
Q 422 2884 422 3419 
Q 422 4038 858 4394 
Q 1294 4750 2059 4750 
Q 2388 4750 2728 4690 
Q 3069 4631 3425 4513 
z
" id="DejaVuSans-53" transform="scale(0.015625)"/>
        <path d="M 3597 1894 
L 3597 1613 
L 953 1613 
Q 991 1019 1311 708 
Q 1631 397 2203 397 
Q 2534 397 2845 478 
Q 3156 559 3463 722 
L 3463 178 
Q 3153 47 2828 -22 
Q 2503 -91 2169 -91 
Q 1331 -91 842 396 
Q 353 884 353 1716 
Q 353 2575 817 3079 
Q 1281 3584 2069 3584 
Q 2775 3584 3186 3129 
Q 3597 2675 3597 1894 
z
M 3022 2063 
Q 3016 2534 2758 2815 
Q 2500 3097 2075 3097 
Q 1594 3097 1305 2825 
Q 1016 2553 972 2059 
L 3022 2063 
z
" id="DejaVuSans-65" transform="scale(0.015625)"/>
       </defs>
       <use xlink:href="#DejaVuSans-53"/>
       <use x="63.476562" xlink:href="#DejaVuSans-65"/>
       <use x="125" xlink:href="#DejaVuSans-70"/>
      </g>
     </g>
    </g>
    <g id="xtick_8">
     <g id="line2d_15">
      <path clip-path="url(#p7c868e002f)" d="M 359.622157 384.48 
L 359.622157 51.84 
" style="fill:none;stroke:#000000;stroke-dasharray:0.8,1.32;stroke-dashoffset:0;stroke-width:0.8;"/>
     </g>
     <g id="line2d_16">
      <g>
       <use style="stroke:#000000;stroke-width:0.8;" x="359.622157" xlink:href="#ma9921a7ad6" y="384.48"/>
      </g>
     </g>
     <g id="text_8">
      <!-- Oct -->
      <g transform="translate(350.976845 399.078438)scale(0.1 -0.1)">
       <defs>
        <path d="M 2522 4238 
Q 1834 4238 1429 3725 
Q 1025 3213 1025 2328 
Q 1025 1447 1429 934 
Q 1834 422 2522 422 
Q 3209 422 3611 934 
Q 4013 1447 4013 2328 
Q 4013 3213 3611 3725 
Q 3209 4238 2522 4238 
z
M 2522 4750 
Q 3503 4750 4090 4092 
Q 4678 3434 4678 2328 
Q 4678 1225 4090 567 
Q 3503 -91 2522 -91 
Q 1538 -91 948 565 
Q 359 1222 359 2328 
Q 359 3434 948 4092 
Q 1538 4750 2522 4750 
z
" id="DejaVuSans-4f" transform="scale(0.015625)"/>
        <path d="M 3122 3366 
L 3122 2828 
Q 2878 2963 2633 3030 
Q 2388 3097 2138 3097 
Q 1578 3097 1268 2742 
Q 959 2388 959 1747 
Q 959 1106 1268 751 
Q 1578 397 2138 397 
Q 2388 397 2633 464 
Q 2878 531 3122 666 
L 3122 134 
Q 2881 22 2623 -34 
Q 2366 -91 2075 -91 
Q 1284 -91 818 406 
Q 353 903 353 1747 
Q 353 2603 823 3093 
Q 1294 3584 2113 3584 
Q 2378 3584 2631 3529 
Q 2884 3475 3122 3366 
z
" id="DejaVuSans-63" transform="scale(0.015625)"/>
        <path d="M 1172 4494 
L 1172 3500 
L 2356 3500 
L 2356 3053 
L 1172 3053 
L 1172 1153 
Q 1172 725 1289 603 
Q 1406 481 1766 481 
L 2356 481 
L 2356 0 
L 1766 0 
Q 1100 0 847 248 
Q 594 497 594 1153 
L 594 3053 
L 172 3053 
L 172 3500 
L 594 3500 
L 594 4494 
L 1172 4494 
z
" id="DejaVuSans-74" transform="scale(0.015625)"/>
       </defs>
       <use xlink:href="#DejaVuSans-4f"/>
       <use x="78.710938" xlink:href="#DejaVuSans-63"/>
       <use x="133.691406" xlink:href="#DejaVuSans-74"/>
      </g>
     </g>
    </g>
    <g id="xtick_9">
     <g id="line2d_17">
      <path clip-path="url(#p7c868e002f)" d="M 399.967347 384.48 
L 399.967347 51.84 
" style="fill:none;stroke:#000000;stroke-dasharray:0.8,1.32;stroke-dashoffset:0;stroke-width:0.8;"/>
     </g>
     <g id="line2d_18">
      <g>
       <use style="stroke:#000000;stroke-width:0.8;" x="399.967347" xlink:href="#ma9921a7ad6" y="384.48"/>
      </g>
     </g>
     <g id="text_9">
      <!-- Nov -->
      <g transform="translate(390.207972 399.078438)scale(0.1 -0.1)">
       <defs>
        <path d="M 628 4666 
L 1478 4666 
L 3547 763 
L 3547 4666 
L 4159 4666 
L 4159 0 
L 3309 0 
L 1241 3903 
L 1241 0 
L 628 0 
L 628 4666 
z
" id="DejaVuSans-4e" transform="scale(0.015625)"/>
        <path d="M 1959 3097 
Q 1497 3097 1228 2736 
Q 959 2375 959 1747 
Q 959 1119 1226 758 
Q 1494 397 1959 397 
Q 2419 397 2687 759 
Q 2956 1122 2956 1747 
Q 2956 2369 2687 2733 
Q 2419 3097 1959 3097 
z
M 1959 3584 
Q 2709 3584 3137 3096 
Q 3566 2609 3566 1747 
Q 3566 888 3137 398 
Q 2709 -91 1959 -91 
Q 1206 -91 779 398 
Q 353 888 353 1747 
Q 353 2609 779 3096 
Q 1206 3584 1959 3584 
z
" id="DejaVuSans-6f" transform="scale(0.015625)"/>
        <path d="M 191 3500 
L 800 3500 
L 1894 563 
L 2988 3500 
L 3597 3500 
L 2284 0 
L 1503 0 
L 191 3500 
z
" id="DejaVuSans-76" transform="scale(0.015625)"/>
       </defs>
       <use xlink:href="#DejaVuSans-4e"/>
       <use x="74.804688" xlink:href="#DejaVuSans-6f"/>
       <use x="135.986328" xlink:href="#DejaVuSans-76"/>
      </g>
     </g>
    </g>
    <g id="xtick_10">
     <g id="line2d_19">
      <path clip-path="url(#p7c868e002f)" d="M 439.011079 384.48 
L 439.011079 51.84 
" style="fill:none;stroke:#000000;stroke-dasharray:0.8,1.32;stroke-dashoffset:0;stroke-width:0.8;"/>
     </g>
     <g id="line2d_20">
      <g>
       <use style="stroke:#000000;stroke-width:0.8;" x="439.011079" xlink:href="#ma9921a7ad6" y="384.48"/>
      </g>
     </g>
     <g id="text_10">
      <!-- Dec -->
      <g transform="translate(429.335297 399.078438)scale(0.1 -0.1)">
       <defs>
        <path d="M 1259 4147 
L 1259 519 
L 2022 519 
Q 2988 519 3436 956 
Q 3884 1394 3884 2338 
Q 3884 3275 3436 3711 
Q 2988 4147 2022 4147 
L 1259 4147 
z
M 628 4666 
L 1925 4666 
Q 3281 4666 3915 4102 
Q 4550 3538 4550 2338 
Q 4550 1131 3912 565 
Q 3275 0 1925 0 
L 628 0 
L 628 4666 
z
" id="DejaVuSans-44" transform="scale(0.015625)"/>
       </defs>
       <use xlink:href="#DejaVuSans-44"/>
       <use x="77.001953" xlink:href="#DejaVuSans-65"/>
       <use x="138.525391" xlink:href="#DejaVuSans-63"/>
      </g>
     </g>
    </g>
    <g id="xtick_11">
     <g id="line2d_21">
      <path clip-path="url(#p7c868e002f)" d="M 479.356268 384.48 
L 479.356268 51.84 
" style="fill:none;stroke:#000000;stroke-dasharray:0.8,1.32;stroke-dashoffset:0;stroke-width:0.8;"/>
     </g>
     <g id="line2d_22">
      <g>
       <use style="stroke:#000000;stroke-width:0.8;" x="479.356268" xlink:href="#ma9921a7ad6" y="384.48"/>
      </g>
     </g>
     <g id="text_11">
      <!-- 2022 -->
      <g transform="translate(466.631268 399.078438)scale(0.1 -0.1)">
       <defs>
        <path d="M 1228 531 
L 3431 531 
L 3431 0 
L 469 0 
L 469 531 
Q 828 903 1448 1529 
Q 2069 2156 2228 2338 
Q 2531 2678 2651 2914 
Q 2772 3150 2772 3378 
Q 2772 3750 2511 3984 
Q 2250 4219 1831 4219 
Q 1534 4219 1204 4116 
Q 875 4013 500 3803 
L 500 4441 
Q 881 4594 1212 4672 
Q 1544 4750 1819 4750 
Q 2544 4750 2975 4387 
Q 3406 4025 3406 3419 
Q 3406 3131 3298 2873 
Q 3191 2616 2906 2266 
Q 2828 2175 2409 1742 
Q 1991 1309 1228 531 
z
" id="DejaVuSans-32" transform="scale(0.015625)"/>
        <path d="M 2034 4250 
Q 1547 4250 1301 3770 
Q 1056 3291 1056 2328 
Q 1056 1369 1301 889 
Q 1547 409 2034 409 
Q 2525 409 2770 889 
Q 3016 1369 3016 2328 
Q 3016 3291 2770 3770 
Q 2525 4250 2034 4250 
z
M 2034 4750 
Q 2819 4750 3233 4129 
Q 3647 3509 3647 2328 
Q 3647 1150 3233 529 
Q 2819 -91 2034 -91 
Q 1250 -91 836 529 
Q 422 1150 422 2328 
Q 422 3509 836 4129 
Q 1250 4750 2034 4750 
z
" id="DejaVuSans-30" transform="scale(0.015625)"/>
       </defs>
       <use xlink:href="#DejaVuSans-32"/>
       <use x="63.623047" xlink:href="#DejaVuSans-30"/>
       <use x="127.246094" xlink:href="#DejaVuSans-32"/>
       <use x="190.869141" xlink:href="#DejaVuSans-32"/>
      </g>
     </g>
    </g>
   </g>
   <g id="matplotlib.axis_2">
    <g id="ytick_1">
     <g id="line2d_23">
      <path clip-path="url(#p7c868e002f)" d="M 72 384.48 
L 518.4 384.48 
" style="fill:none;stroke:#000000;stroke-dasharray:0.8,1.32;stroke-dashoffset:0;stroke-width:0.8;"/>
     </g>
     <g id="line2d_24">
      <defs>
       <path d="M 0 0 
L -3.5 0 
" id="m85787f5cbe" style="stroke:#000000;stroke-width:0.8;"/>
      </defs>
      <g>
       <use style="stroke:#000000;stroke-width:0.8;" x="72" xlink:href="#m85787f5cbe" y="384.48"/>
      </g>
     </g>
     <g id="text_12">
      <!-- 0 -->
      <g transform="translate(58.6375 388.279219)scale(0.1 -0.1)">
       <use xlink:href="#DejaVuSans-30"/>
      </g>
     </g>
    </g>
    <g id="ytick_2">
     <g id="line2d_25">
      <path clip-path="url(#p7c868e002f)" d="M 72 354.035676 
L 518.4 354.035676 
" style="fill:none;stroke:#000000;stroke-dasharray:0.8,1.32;stroke-dashoffset:0;stroke-width:0.8;"/>
     </g>
     <g id="line2d_26">
      <g>
       <use style="stroke:#000000;stroke-width:0.8;" x="72" xlink:href="#m85787f5cbe" y="354.035676"/>
      </g>
     </g>
     <g id="text_13">
      <!-- 2 -->
      <g transform="translate(58.6375 357.834894)scale(0.1 -0.1)">
       <use xlink:href="#DejaVuSans-32"/>
      </g>
     </g>
    </g>
    <g id="ytick_3">
     <g id="line2d_27">
      <path clip-path="url(#p7c868e002f)" d="M 72 323.591351 
L 518.4 323.591351 
" style="fill:none;stroke:#000000;stroke-dasharray:0.8,1.32;stroke-dashoffset:0;stroke-width:0.8;"/>
     </g>
     <g id="line2d_28">
      <g>
       <use style="stroke:#000000;stroke-width:0.8;" x="72" xlink:href="#m85787f5cbe" y="323.591351"/>
      </g>
     </g>
     <g id="text_14">
      <!-- 4 -->
      <g transform="translate(58.6375 327.39057)scale(0.1 -0.1)">
       <defs>
        <path d="M 2419 4116 
L 825 1625 
L 2419 1625 
L 2419 4116 
z
M 2253 4666 
L 3047 4666 
L 3047 1625 
L 3713 1625 
L 3713 1100 
L 3047 1100 
L 3047 0 
L 2419 0 
L 2419 1100 
L 313 1100 
L 313 1709 
L 2253 4666 
z
" id="DejaVuSans-34" transform="scale(0.015625)"/>
       </defs>
       <use xlink:href="#DejaVuSans-34"/>
      </g>
     </g>
    </g>
    <g id="ytick_4">
     <g id="line2d_29">
      <path clip-path="url(#p7c868e002f)" d="M 72 293.147027 
L 518.4 293.147027 
" style="fill:none;stroke:#000000;stroke-dasharray:0.8,1.32;stroke-dashoffset:0;stroke-width:0.8;"/>
     </g>
     <g id="line2d_30">
      <g>
       <use style="stroke:#000000;stroke-width:0.8;" x="72" xlink:href="#m85787f5cbe" y="293.147027"/>
      </g>
     </g>
     <g id="text_15">
      <!-- 6 -->
      <g transform="translate(58.6375 296.946246)scale(0.1 -0.1)">
       <defs>
        <path d="M 2113 2584 
Q 1688 2584 1439 2293 
Q 1191 2003 1191 1497 
Q 1191 994 1439 701 
Q 1688 409 2113 409 
Q 2538 409 2786 701 
Q 3034 994 3034 1497 
Q 3034 2003 2786 2293 
Q 2538 2584 2113 2584 
z
M 3366 4563 
L 3366 3988 
Q 3128 4100 2886 4159 
Q 2644 4219 2406 4219 
Q 1781 4219 1451 3797 
Q 1122 3375 1075 2522 
Q 1259 2794 1537 2939 
Q 1816 3084 2150 3084 
Q 2853 3084 3261 2657 
Q 3669 2231 3669 1497 
Q 3669 778 3244 343 
Q 2819 -91 2113 -91 
Q 1303 -91 875 529 
Q 447 1150 447 2328 
Q 447 3434 972 4092 
Q 1497 4750 2381 4750 
Q 2619 4750 2861 4703 
Q 3103 4656 3366 4563 
z
" id="DejaVuSans-36" transform="scale(0.015625)"/>
       </defs>
       <use xlink:href="#DejaVuSans-36"/>
      </g>
     </g>
    </g>
    <g id="ytick_5">
     <g id="line2d_31">
      <path clip-path="url(#p7c868e002f)" d="M 72 262.702703 
L 518.4 262.702703 
" style="fill:none;stroke:#000000;stroke-dasharray:0.8,1.32;stroke-dashoffset:0;stroke-width:0.8;"/>
     </g>
     <g id="line2d_32">
      <g>
       <use style="stroke:#000000;stroke-width:0.8;" x="72" xlink:href="#m85787f5cbe" y="262.702703"/>
      </g>
     </g>
     <g id="text_16">
      <!-- 8 -->
      <g transform="translate(58.6375 266.501921)scale(0.1 -0.1)">
       <defs>
        <path d="M 2034 2216 
Q 1584 2216 1326 1975 
Q 1069 1734 1069 1313 
Q 1069 891 1326 650 
Q 1584 409 2034 409 
Q 2484 409 2743 651 
Q 3003 894 3003 1313 
Q 3003 1734 2745 1975 
Q 2488 2216 2034 2216 
z
M 1403 2484 
Q 997 2584 770 2862 
Q 544 3141 544 3541 
Q 544 4100 942 4425 
Q 1341 4750 2034 4750 
Q 2731 4750 3128 4425 
Q 3525 4100 3525 3541 
Q 3525 3141 3298 2862 
Q 3072 2584 2669 2484 
Q 3125 2378 3379 2068 
Q 3634 1759 3634 1313 
Q 3634 634 3220 271 
Q 2806 -91 2034 -91 
Q 1263 -91 848 271 
Q 434 634 434 1313 
Q 434 1759 690 2068 
Q 947 2378 1403 2484 
z
M 1172 3481 
Q 1172 3119 1398 2916 
Q 1625 2713 2034 2713 
Q 2441 2713 2670 2916 
Q 2900 3119 2900 3481 
Q 2900 3844 2670 4047 
Q 2441 4250 2034 4250 
Q 1625 4250 1398 4047 
Q 1172 3844 1172 3481 
z
" id="DejaVuSans-38" transform="scale(0.015625)"/>
       </defs>
       <use xlink:href="#DejaVuSans-38"/>
      </g>
     </g>
    </g>
    <g id="ytick_6">
     <g id="line2d_33">
      <path clip-path="url(#p7c868e002f)" d="M 72 232.258378 
L 518.4 232.258378 
" style="fill:none;stroke:#000000;stroke-dasharray:0.8,1.32;stroke-dashoffset:0;stroke-width:0.8;"/>
     </g>
     <g id="line2d_34">
      <g>
       <use style="stroke:#000000;stroke-width:0.8;" x="72" xlink:href="#m85787f5cbe" y="232.258378"/>
      </g>
     </g>
     <g id="text_17">
      <!-- 10 -->
      <g transform="translate(52.275 236.057597)scale(0.1 -0.1)">
       <defs>
        <path d="M 794 531 
L 1825 531 
L 1825 4091 
L 703 3866 
L 703 4441 
L 1819 4666 
L 2450 4666 
L 2450 531 
L 3481 531 
L 3481 0 
L 794 0 
L 794 531 
z
" id="DejaVuSans-31" transform="scale(0.015625)"/>
       </defs>
       <use xlink:href="#DejaVuSans-31"/>
       <use x="63.623047" xlink:href="#DejaVuSans-30"/>
      </g>
     </g>
    </g>
    <g id="ytick_7">
     <g id="line2d_35">
      <path clip-path="url(#p7c868e002f)" d="M 72 201.814054 
L 518.4 201.814054 
" style="fill:none;stroke:#000000;stroke-dasharray:0.8,1.32;stroke-dashoffset:0;stroke-width:0.8;"/>
     </g>
     <g id="line2d_36">
      <g>
       <use style="stroke:#000000;stroke-width:0.8;" x="72" xlink:href="#m85787f5cbe" y="201.814054"/>
      </g>
     </g>
     <g id="text_18">
      <!-- 12 -->
      <g transform="translate(52.275 205.613273)scale(0.1 -0.1)">
       <use xlink:href="#DejaVuSans-31"/>
       <use x="63.623047" xlink:href="#DejaVuSans-32"/>
      </g>
     </g>
    </g>
    <g id="ytick_8">
     <g id="line2d_37">
      <path clip-path="url(#p7c868e002f)" d="M 72 171.36973 
L 518.4 171.36973 
" style="fill:none;stroke:#000000;stroke-dasharray:0.8,1.32;stroke-dashoffset:0;stroke-width:0.8;"/>
     </g>
     <g id="line2d_38">
      <g>
       <use style="stroke:#000000;stroke-width:0.8;" x="72" xlink:href="#m85787f5cbe" y="171.36973"/>
      </g>
     </g>
     <g id="text_19">
      <!-- 14 -->
      <g transform="translate(52.275 175.168949)scale(0.1 -0.1)">
       <use xlink:href="#DejaVuSans-31"/>
       <use x="63.623047" xlink:href="#DejaVuSans-34"/>
      </g>
     </g>
    </g>
    <g id="ytick_9">
     <g id="line2d_39">
      <path clip-path="url(#p7c868e002f)" d="M 72 140.925405 
L 518.4 140.925405 
" style="fill:none;stroke:#000000;stroke-dasharray:0.8,1.32;stroke-dashoffset:0;stroke-width:0.8;"/>
     </g>
     <g id="line2d_40">
      <g>
       <use style="stroke:#000000;stroke-width:0.8;" x="72" xlink:href="#m85787f5cbe" y="140.925405"/>
      </g>
     </g>
     <g id="text_20">
      <!-- 16 -->
      <g transform="translate(52.275 144.724624)scale(0.1 -0.1)">
       <use xlink:href="#DejaVuSans-31"/>
       <use x="63.623047" xlink:href="#DejaVuSans-36"/>
      </g>
     </g>
    </g>
    <g id="ytick_10">
     <g id="line2d_41">
      <path clip-path="url(#p7c868e002f)" d="M 72 110.481081 
L 518.4 110.481081 
" style="fill:none;stroke:#000000;stroke-dasharray:0.8,1.32;stroke-dashoffset:0;stroke-width:0.8;"/>
     </g>
     <g id="line2d_42">
      <g>
       <use style="stroke:#000000;stroke-width:0.8;" x="72" xlink:href="#m85787f5cbe" y="110.481081"/>
      </g>
     </g>
     <g id="text_21">
      <!-- 18 -->
      <g transform="translate(52.275 114.2803)scale(0.1 -0.1)">
       <use xlink:href="#DejaVuSans-31"/>
       <use x="63.623047" xlink:href="#DejaVuSans-38"/>
      </g>
     </g>
    </g>
    <g id="ytick_11">
     <g id="line2d_43">
      <path clip-path="url(#p7c868e002f)" d="M 72 80.036757 
L 518.4 80.036757 
" style="fill:none;stroke:#000000;stroke-dasharray:0.8,1.32;stroke-dashoffset:0;stroke-width:0.8;"/>
     </g>
     <g id="line2d_44">
      <g>
       <use style="stroke:#000000;stroke-width:0.8;" x="72" xlink:href="#m85787f5cbe" y="80.036757"/>
      </g>
     </g>
     <g id="text_22">
      <!-- 20 -->
      <g transform="translate(52.275 83.835976)scale(0.1 -0.1)">
       <use xlink:href="#DejaVuSans-32"/>
       <use x="63.623047" xlink:href="#DejaVuSans-30"/>
      </g>
     </g>
    </g>
    <g id="text_23">
     <!-- Cumulative doses (millions) -->
     <g transform="translate(46.195312 287.556094)rotate(-90)scale(0.1 -0.1)">
      <defs>
       <path d="M 4122 4306 
L 4122 3641 
Q 3803 3938 3442 4084 
Q 3081 4231 2675 4231 
Q 1875 4231 1450 3742 
Q 1025 3253 1025 2328 
Q 1025 1406 1450 917 
Q 1875 428 2675 428 
Q 3081 428 3442 575 
Q 3803 722 4122 1019 
L 4122 359 
Q 3791 134 3420 21 
Q 3050 -91 2638 -91 
Q 1578 -91 968 557 
Q 359 1206 359 2328 
Q 359 3453 968 4101 
Q 1578 4750 2638 4750 
Q 3056 4750 3426 4639 
Q 3797 4528 4122 4306 
z
" id="DejaVuSans-43" transform="scale(0.015625)"/>
       <path d="M 3328 2828 
Q 3544 3216 3844 3400 
Q 4144 3584 4550 3584 
Q 5097 3584 5394 3201 
Q 5691 2819 5691 2113 
L 5691 0 
L 5113 0 
L 5113 2094 
Q 5113 2597 4934 2840 
Q 4756 3084 4391 3084 
Q 3944 3084 3684 2787 
Q 3425 2491 3425 1978 
L 3425 0 
L 2847 0 
L 2847 2094 
Q 2847 2600 2669 2842 
Q 2491 3084 2119 3084 
Q 1678 3084 1418 2786 
Q 1159 2488 1159 1978 
L 1159 0 
L 581 0 
L 581 3500 
L 1159 3500 
L 1159 2956 
Q 1356 3278 1631 3431 
Q 1906 3584 2284 3584 
Q 2666 3584 2933 3390 
Q 3200 3197 3328 2828 
z
" id="DejaVuSans-6d" transform="scale(0.015625)"/>
       <path d="M 603 3500 
L 1178 3500 
L 1178 0 
L 603 0 
L 603 3500 
z
M 603 4863 
L 1178 4863 
L 1178 4134 
L 603 4134 
L 603 4863 
z
" id="DejaVuSans-69" transform="scale(0.015625)"/>
       <path id="DejaVuSans-20" transform="scale(0.015625)"/>
       <path d="M 2906 2969 
L 2906 4863 
L 3481 4863 
L 3481 0 
L 2906 0 
L 2906 525 
Q 2725 213 2448 61 
Q 2172 -91 1784 -91 
Q 1150 -91 751 415 
Q 353 922 353 1747 
Q 353 2572 751 3078 
Q 1150 3584 1784 3584 
Q 2172 3584 2448 3432 
Q 2725 3281 2906 2969 
z
M 947 1747 
Q 947 1113 1208 752 
Q 1469 391 1925 391 
Q 2381 391 2643 752 
Q 2906 1113 2906 1747 
Q 2906 2381 2643 2742 
Q 2381 3103 1925 3103 
Q 1469 3103 1208 2742 
Q 947 2381 947 1747 
z
" id="DejaVuSans-64" transform="scale(0.015625)"/>
       <path d="M 2834 3397 
L 2834 2853 
Q 2591 2978 2328 3040 
Q 2066 3103 1784 3103 
Q 1356 3103 1142 2972 
Q 928 2841 928 2578 
Q 928 2378 1081 2264 
Q 1234 2150 1697 2047 
L 1894 2003 
Q 2506 1872 2764 1633 
Q 3022 1394 3022 966 
Q 3022 478 2636 193 
Q 2250 -91 1575 -91 
Q 1294 -91 989 -36 
Q 684 19 347 128 
L 347 722 
Q 666 556 975 473 
Q 1284 391 1588 391 
Q 1994 391 2212 530 
Q 2431 669 2431 922 
Q 2431 1156 2273 1281 
Q 2116 1406 1581 1522 
L 1381 1569 
Q 847 1681 609 1914 
Q 372 2147 372 2553 
Q 372 3047 722 3315 
Q 1072 3584 1716 3584 
Q 2034 3584 2315 3537 
Q 2597 3491 2834 3397 
z
" id="DejaVuSans-73" transform="scale(0.015625)"/>
       <path d="M 1984 4856 
Q 1566 4138 1362 3434 
Q 1159 2731 1159 2009 
Q 1159 1288 1364 580 
Q 1569 -128 1984 -844 
L 1484 -844 
Q 1016 -109 783 600 
Q 550 1309 550 2009 
Q 550 2706 781 3412 
Q 1013 4119 1484 4856 
L 1984 4856 
z
" id="DejaVuSans-28" transform="scale(0.015625)"/>
       <path d="M 513 4856 
L 1013 4856 
Q 1481 4119 1714 3412 
Q 1947 2706 1947 2009 
Q 1947 1309 1714 600 
Q 1481 -109 1013 -844 
L 513 -844 
Q 928 -128 1133 580 
Q 1338 1288 1338 2009 
Q 1338 2731 1133 3434 
Q 928 4138 513 4856 
z
" id="DejaVuSans-29" transform="scale(0.015625)"/>
      </defs>
      <use xlink:href="#DejaVuSans-43"/>
      <use x="69.824219" xlink:href="#DejaVuSans-75"/>
      <use x="133.203125" xlink:href="#DejaVuSans-6d"/>
      <use x="230.615234" xlink:href="#DejaVuSans-75"/>
      <use x="293.994141" xlink:href="#DejaVuSans-6c"/>
      <use x="321.777344" xlink:href="#DejaVuSans-61"/>
      <use x="383.056641" xlink:href="#DejaVuSans-74"/>
      <use x="422.265625" xlink:href="#DejaVuSans-69"/>
      <use x="450.048828" xlink:href="#DejaVuSans-76"/>
      <use x="509.228516" xlink:href="#DejaVuSans-65"/>
      <use x="570.751953" xlink:href="#DejaVuSans-20"/>
      <use x="602.539062" xlink:href="#DejaVuSans-64"/>
      <use x="666.015625" xlink:href="#DejaVuSans-6f"/>
      <use x="727.197266" xlink:href="#DejaVuSans-73"/>
      <use x="779.296875" xlink:href="#DejaVuSans-65"/>
      <use x="840.820312" xlink:href="#DejaVuSans-73"/>
      <use x="892.919922" xlink:href="#DejaVuSans-20"/>
      <use x="924.707031" xlink:href="#DejaVuSans-28"/>
      <use x="963.720703" xlink:href="#DejaVuSans-6d"/>
      <use x="1061.132812" xlink:href="#DejaVuSans-69"/>
      <use x="1088.916016" xlink:href="#DejaVuSans-6c"/>
      <use x="1116.699219" xlink:href="#DejaVuSans-6c"/>
      <use x="1144.482422" xlink:href="#DejaVuSans-69"/>
      <use x="1172.265625" xlink:href="#DejaVuSans-6f"/>
      <use x="1233.447266" xlink:href="#DejaVuSans-6e"/>
      <use x="1296.826172" xlink:href="#DejaVuSans-73"/>
      <use x="1348.925781" xlink:href="#DejaVuSans-29"/>
     </g>
    </g>
   </g>
   <g id="line2d_45">
    <path clip-path="url(#p7c868e002f)" d="M 72 384.426262 
L 72 384.369125 
L 74.602915 384.308368 
L 74.602915 384.243759 
L 77.205831 384.175055 
L 77.205831 384.102001 
L 79.808746 384.024332 
L 79.808746 383.941774 
L 82.411662 383.854037 
L 82.411662 383.760821 
L 85.014577 383.661811 
L 85.014577 383.556678 
L 86.316035 383.556678 
L 86.316035 383.445079 
L 87.617493 383.445079 
L 87.617493 383.326648 
L 88.91895 383.326648 
L 88.91895 383.200996 
L 90.220408 383.200996 
L 90.220408 383.067702 
L 91.521866 383.067702 
L 91.521866 382.926305 
L 92.823324 382.926305 
L 92.823324 382.776294 
L 94.124781 382.776294 
L 94.124781 382.617093 
L 95.426239 382.617093 
L 95.426239 382.448052 
L 96.727697 382.448052 
L 96.727697 382.268434 
L 98.029155 382.268434 
L 98.029155 382.077406 
L 99.330612 382.077406 
L 99.330612 381.874039 
L 100.63207 381.874039 
L 100.63207 381.657309 
L 101.933528 381.657309 
L 101.933528 381.426118 
L 103.234985 381.426118 
L 103.234985 381.179315 
L 104.536443 381.179315 
L 104.536443 380.91574 
L 105.837901 380.91574 
L 105.837901 380.634264 
L 107.139359 380.634264 
L 107.139359 380.333851 
L 108.440816 380.333851 
L 108.440816 380.013613 
L 109.742274 380.013613 
L 109.742274 379.67288 
L 111.043732 379.67288 
L 111.043732 379.311238 
L 112.34519 379.311238 
L 112.34519 378.928577 
L 113.646647 378.928577 
L 113.646647 378.525101 
L 114.948105 378.525101 
L 114.948105 378.101329 
L 116.249563 378.101329 
L 116.249563 377.658073 
L 117.55102 377.658073 
L 117.55102 377.196386 
L 118.852478 377.196386 
L 118.852478 376.717492 
L 120.153936 376.717492 
L 120.153936 376.22271 
L 121.455394 376.22271 
L 121.455394 375.713368 
L 122.756851 375.713368 
L 122.756851 375.190718 
L 124.058309 375.190718 
L 124.058309 374.655868 
L 125.359767 374.655868 
L 125.359767 374.109723 
L 126.661224 374.109723 
L 126.661224 373.552956 
L 127.962682 373.552956 
L 127.962682 372.986003 
L 129.26414 372.986003 
L 129.26414 372.409075 
L 130.565598 372.409075 
L 130.565598 371.822207 
L 131.867055 371.822207 
L 131.867055 371.22531 
L 133.168513 371.22531 
L 133.168513 370.618242 
L 134.469971 370.618242 
L 134.469971 370.000884 
L 135.771429 370.000884 
L 135.771429 369.373212 
L 137.072886 369.373212 
L 137.072886 368.735356 
L 138.374344 368.735356 
L 138.374344 368.087651 
L 139.675802 368.087651 
L 139.675802 367.430665 
L 140.977259 367.430665 
L 140.977259 366.765204 
L 142.278717 366.765204 
L 142.278717 366.092295 
L 143.580175 366.092295 
L 143.580175 365.413147 
L 144.881633 365.413147 
L 144.881633 364.729093 
L 146.18309 364.729093 
L 146.18309 364.041509 
L 147.484548 364.041509 
L 147.484548 363.351737 
L 148.786006 363.351737 
L 148.786006 362.660984 
L 150.087464 362.660984 
L 150.087464 361.970248 
L 151.388921 361.970248 
L 151.388921 361.280236 
L 152.690379 361.280236 
L 152.690379 360.591316 
L 153.991837 360.591316 
L 153.991837 359.903481 
L 155.293294 359.903481 
L 155.293294 359.216346 
L 156.594752 359.216346 
L 156.594752 358.529172 
L 157.89621 358.529172 
L 157.89621 357.840906 
L 159.197668 357.840906 
L 159.197668 357.150253 
L 160.499125 357.150253 
L 160.499125 356.455749 
L 161.800583 356.455749 
L 161.800583 355.755855 
L 163.102041 355.755855 
L 163.102041 355.049032 
L 164.403499 355.049032 
L 164.403499 354.333818 
L 165.704956 354.333818 
L 165.704956 353.608887 
L 167.006414 353.608887 
L 167.006414 352.873087 
L 168.307872 352.873087 
L 168.307872 352.125459 
L 169.609329 352.125459 
L 169.609329 351.36523 
L 170.910787 351.36523 
L 170.910787 350.591793 
L 172.212245 350.591793 
L 172.212245 349.804665 
L 173.513703 349.804665 
L 173.513703 349.003441 
L 174.81516 349.003441 
L 174.81516 348.187738 
L 176.116618 348.187738 
L 176.116618 347.357137 
L 177.418076 347.357137 
L 177.418076 346.511141 
L 178.719534 346.511141 
L 178.719534 345.649125 
L 180.020991 345.649125 
L 180.020991 344.770318 
L 181.322449 344.770318 
L 181.322449 343.873784 
L 182.623907 343.873784 
L 182.623907 342.958415 
L 183.925364 342.958415 
L 183.925364 342.022957 
L 185.226822 342.022957 
L 185.226822 341.066027 
L 186.52828 341.066027 
L 186.52828 340.086164 
L 187.829738 340.086164 
L 187.829738 339.081868 
L 189.131195 339.081868 
L 189.131195 338.051668 
L 190.432653 338.051668 
L 190.432653 336.994181 
L 191.734111 336.994181 
L 191.734111 335.908191 
L 193.035569 335.908191 
L 193.035569 334.79272 
L 194.337026 334.79272 
L 194.337026 333.647105 
L 195.638484 333.647105 
L 195.638484 332.471064 
L 196.939942 332.471064 
L 196.939942 331.26477 
L 198.241399 331.26477 
L 198.241399 330.028907 
L 199.542857 330.028907 
L 199.542857 328.764715 
L 200.844315 328.764715 
L 200.844315 327.474024 
L 202.145773 327.474024 
L 202.145773 326.159258 
L 203.44723 326.159258 
L 203.44723 324.823427 
L 204.748688 324.823427 
L 204.748688 323.470087 
L 206.050146 323.470087 
L 206.050146 322.103276 
L 207.351603 322.103276 
L 207.351603 320.727422 
L 208.653061 320.727422 
L 208.653061 319.347228 
L 209.954519 319.347228 
L 209.954519 317.967537 
L 211.255977 317.967537 
L 211.255977 316.593182 
L 212.557434 316.593182 
L 212.557434 315.228826 
L 213.858892 315.228826 
L 213.858892 313.878805 
L 215.16035 313.878805 
L 215.16035 312.546981 
L 216.461808 312.546981 
L 216.461808 311.236617 
L 217.763265 311.236617 
L 217.763265 309.950263 
L 219.064723 309.950263 
L 219.064723 308.689697 
L 220.366181 308.689697 
L 220.366181 307.455883 
L 221.667638 307.455883 
L 221.667638 306.248978 
L 222.969096 306.248978 
L 222.969096 305.068375 
L 224.270554 305.068375 
L 224.270554 303.912779 
L 225.572012 303.912779 
L 225.572012 302.780304 
L 226.873469 302.780304 
L 226.873469 301.668607 
L 228.174927 301.668607 
L 228.174927 300.575025 
L 229.476385 300.575025 
L 229.476385 299.496721 
L 230.777843 299.496721 
L 230.777843 298.430822 
L 232.0793 298.430822 
L 232.0793 297.374554 
L 233.380758 297.374554 
L 233.380758 296.325351 
L 234.682216 296.325351 
L 234.682216 295.280944 
L 235.983673 295.280944 
L 235.983673 294.239421 
L 237.285131 294.239421 
L 237.285131 293.199254 
L 238.586589 293.199254 
L 238.586589 292.159288 
L 239.888047 292.159288 
L 239.888047 291.118706 
L 241.189504 291.118706 
L 241.189504 290.076953 
L 242.490962 290.076953 
L 242.490962 289.033647 
L 243.79242 289.033647 
L 243.79242 287.988464 
L 245.093878 287.988464 
L 245.093878 286.941024 
L 246.395335 286.941024 
L 246.395335 285.89077 
L 247.696793 285.89077 
L 247.696793 284.836869 
L 248.998251 284.836869 
L 248.998251 283.778139 
L 250.299708 283.778139 
L 250.299708 282.713001 
L 251.601166 282.713001 
L 251.601166 281.639475 
L 252.902624 281.639475 
L 252.902624 280.555213 
L 254.204082 280.555213 
L 254.204082 279.45758 
L 255.505539 279.45758 
L 255.505539 278.343769 
L 256.806997 278.343769 
L 256.806997 277.210939 
L 258.108455 277.210939 
L 258.108455 276.056368 
L 259.409913 276.056368 
L 259.409913 274.87761 
L 260.71137 274.87761 
L 260.71137 273.672645 
L 262.012828 273.672645 
L 262.012828 272.440001 
L 263.314286 272.440001 
L 263.314286 271.178845 
L 264.615743 271.178845 
L 264.615743 269.889035 
L 265.917201 269.889035 
L 265.917201 268.571129 
L 267.218659 268.571129 
L 267.218659 267.226354 
L 268.520117 267.226354 
L 268.520117 265.85653 
L 269.821574 265.85653 
L 269.821574 264.463973 
L 271.123032 264.463973 
L 271.123032 263.05136 
L 272.42449 263.05136 
L 272.42449 261.621582 
L 273.725948 261.621582 
L 273.725948 260.177593 
L 275.027405 260.177593 
L 275.027405 258.722252 
L 276.328863 258.722252 
L 276.328863 257.258187 
L 277.630321 257.258187 
L 277.630321 255.787675 
L 278.931778 255.787675 
L 278.931778 254.312541 
L 280.233236 254.312541 
L 280.233236 252.834111 
L 281.534694 252.834111 
L 281.534694 251.353184 
L 282.836152 251.353184 
L 282.836152 249.870062 
L 284.137609 249.870062 
L 284.137609 248.384612 
L 285.439067 248.384612 
L 285.439067 246.896365 
L 286.740525 246.896365 
L 286.740525 245.404649 
L 288.041983 245.404649 
L 288.041983 243.908733 
L 289.34344 243.908733 
L 289.34344 242.407975 
L 290.644898 242.407975 
L 290.644898 240.901964 
L 291.946356 240.901964 
L 291.946356 239.390639 
L 293.247813 239.390639 
L 293.247813 237.87437 
L 294.549271 237.87437 
L 294.549271 236.353998 
L 295.850729 236.353998 
L 295.850729 234.830836 
L 297.152187 234.830836 
L 297.152187 233.306623 
L 298.453644 233.306623 
L 298.453644 231.783447 
L 299.755102 231.783447 
L 299.755102 230.263639 
L 301.05656 230.263639 
L 301.05656 228.749655 
L 302.358017 228.749655 
L 302.358017 227.243949 
L 303.659475 227.243949 
L 303.659475 225.748864 
L 304.960933 225.748864 
L 304.960933 224.266533 
L 306.262391 224.266533 
L 306.262391 222.798801 
L 307.563848 222.798801 
L 307.563848 221.347179 
L 308.865306 221.347179 
L 308.865306 219.912815 
L 310.166764 219.912815 
L 310.166764 218.496498 
L 311.468222 218.496498 
L 311.468222 217.098671 
L 312.769679 217.098671 
L 312.769679 215.719468 
L 314.071137 215.719468 
L 314.071137 214.358757 
L 315.372595 214.358757 
L 315.372595 213.016182 
L 316.674052 213.016182 
L 316.674052 211.691215 
L 317.97551 211.691215 
L 317.97551 210.383201 
L 319.276968 210.383201 
L 319.276968 209.091395 
L 320.578426 209.091395 
L 320.578426 207.815002 
L 321.879883 207.815002 
L 321.879883 206.553199 
L 323.181341 206.553199 
L 323.181341 205.305158 
L 324.482799 205.305158 
L 324.482799 204.070066 
L 325.784257 204.070066 
L 325.784257 202.847134 
L 327.085714 202.847134 
L 327.085714 201.6356 
L 328.387172 201.6356 
L 328.387172 200.434737 
L 329.68863 200.434737 
L 329.68863 199.243848 
L 330.990087 199.243848 
L 330.990087 198.062269 
L 332.291545 198.062269 
L 332.291545 196.889366 
L 333.593003 196.889366 
L 333.593003 195.724524 
L 334.894461 195.724524 
L 334.894461 194.567147 
L 336.195918 194.567147 
L 336.195918 193.416641 
L 337.497376 193.416641 
L 337.497376 192.272403 
L 338.798834 192.272403 
L 338.798834 191.133808 
L 340.100292 191.133808 
L 340.100292 190.000183 
L 341.401749 190.000183 
L 341.401749 188.870786 
L 342.703207 188.870786 
L 342.703207 187.744776 
L 344.004665 187.744776 
L 344.004665 186.621179 
L 345.306122 186.621179 
L 345.306122 185.498857 
L 346.60758 185.498857 
L 346.60758 184.376464 
L 347.909038 184.376464 
L 347.909038 183.252422 
L 349.210496 183.252422 
L 349.210496 182.124881 
L 350.511953 182.124881 
L 350.511953 180.991703 
L 351.813411 180.991703 
L 351.813411 179.850449 
L 353.114869 179.850449 
L 353.114869 178.698385 
L 354.416327 178.698385 
L 354.416327 177.532501 
L 355.717784 177.532501 
L 355.717784 176.349553 
L 357.019242 176.349553 
L 357.019242 175.146122 
L 358.3207 175.146122 
L 358.3207 173.918689 
L 359.622157 173.918689 
L 359.622157 172.663725 
L 360.923615 172.663725 
L 360.923615 171.377792 
L 362.225073 171.377792 
L 362.225073 170.05764 
L 363.526531 170.05764 
L 363.526531 168.700308 
L 364.827988 168.700308 
L 364.827988 167.30321 
L 366.129446 167.30321 
L 366.129446 165.864203 
L 367.430904 165.864203 
L 367.430904 164.381643 
L 368.732362 164.381643 
L 368.732362 162.854409 
L 370.033819 162.854409 
L 370.033819 161.28191 
L 371.335277 161.28191 
L 371.335277 159.664067 
L 372.636735 159.664067 
L 372.636735 158.001276 
L 373.938192 158.001276 
L 373.938192 156.294359 
L 375.23965 156.294359 
L 375.23965 154.544498 
L 376.541108 154.544498 
L 376.541108 152.753174 
L 377.842566 152.753174 
L 377.842566 150.92209 
L 379.144023 150.92209 
L 379.144023 149.053113 
L 380.445481 149.053113 
L 380.445481 147.148211 
L 381.746939 147.148211 
L 381.746939 145.209401 
L 383.048397 145.209401 
L 383.048397 143.238703 
L 384.349854 143.238703 
L 384.349854 141.238109 
L 385.651312 141.238109 
L 385.651312 139.209554 
L 386.95277 139.209554 
L 386.95277 137.154898 
L 388.254227 137.154898 
L 388.254227 135.075914 
L 389.555685 135.075914 
L 389.555685 132.974279 
L 390.857143 132.974279 
L 390.857143 130.851571 
L 392.158601 130.851571 
L 392.158601 128.70927 
L 393.460058 128.70927 
L 393.460058 126.548762 
L 394.761516 126.548762 
L 394.761516 124.371337 
L 396.062974 124.371337 
L 396.062974 122.178201 
L 397.364431 122.178201 
L 397.364431 119.970482 
L 398.665889 119.970482 
L 398.665889 117.749237 
L 399.967347 117.749237 
L 399.967347 115.51546 
L 401.268805 115.51546 
L 401.268805 113.270095 
L 402.570262 113.270095 
L 402.570262 111.01405 
L 403.87172 111.01405 
L 403.87172 108.748214 
L 405.173178 108.748214 
L 405.173178 106.473484 
L 406.474636 106.473484 
L 406.474636 104.190795 
L 407.776093 104.190795 
L 407.776093 101.901165 
L 409.077551 101.901165 
L 409.077551 99.605756 
L 410.379009 99.605756 
L 410.379009 97.305937 
L 411.680466 97.305937 
L 411.680466 95.003378 
L 412.981924 95.003378 
L 412.981924 92.700144 
L 414.283382 92.700144 
L 414.283382 90.398821 
L 415.58484 90.398821 
L 415.58484 88.102633 
L 416.886297 88.102633 
L 416.886297 85.815576 
L 418.187755 85.815576 
L 418.187755 83.542539 
L 419.489213 83.542539 
L 419.489213 81.289405 
L 420.790671 81.289405 
L 420.790671 79.063121 
L 422.092128 79.063121 
L 422.092128 76.87171 
L 423.393586 76.87171 
L 423.393586 74.724226 
L 424.695044 74.724226 
L 424.695044 72.630625 
L 425.996501 72.630625 
L 425.996501 70.601552 
L 427.297959 70.601552 
L 427.297959 68.648051 
L 428.599417 68.648051 
L 428.599417 66.781186 
L 429.900875 66.781186 
L 429.900875 65.01162 
L 431.202332 65.01162 
L 431.202332 63.34915 
L 432.50379 63.34915 
L 432.50379 61.802253 
L 433.805248 61.802253 
L 433.805248 60.377659 
L 435.106706 60.377659 
L 435.106706 59.080012 
L 436.408163 59.080012 
L 436.408163 57.911615 
L 437.709621 57.911615 
L 437.709621 56.872319 
L 439.011079 56.872319 
L 439.011079 55.959531 
L 440.312536 55.959531 
L 440.312536 55.168374 
L 441.613994 55.168374 
L 441.613994 54.491955 
L 442.915452 54.491955 
L 442.915452 53.921733 
L 444.21691 53.921733 
L 444.21691 53.447955 
L 445.518367 53.447955 
L 445.518367 53.060117 
L 446.819825 53.060117 
L 446.819825 52.74742 
L 448.121283 52.74742 
L 448.121283 52.499186 
L 449.422741 52.499186 
L 449.422741 52.305214 
L 450.724198 52.305214 
L 450.724198 52.156058 
L 452.025656 52.156058 
L 452.025656 52.04322 
L 454.628571 51.959258 
L 454.628571 51.897822 
L 459.834402 51.800661 
L 459.834402 51.785839 
L 518.4 51.758659 
L 518.4 51.758659 
" style="fill:none;stroke:#1f77b4;stroke-linecap:square;stroke-width:1.5;"/>
   </g>
   <g id="line2d_46">
    <path clip-path="url(#p7c868e002f)" d="M 72 384.479997 
L 72 384.47999 
L 101.933528 384.39057 
L 101.933528 384.367361 
L 107.139359 384.270792 
L 107.139359 384.228712 
L 111.043732 384.128932 
L 111.043732 384.071296 
L 113.646647 384.008692 
L 113.646647 383.941367 
L 116.249563 383.869631 
L 116.249563 383.793839 
L 118.852478 383.71437 
L 118.852478 383.631602 
L 121.455394 383.545899 
L 121.455394 383.457591 
L 124.058309 383.366961 
L 124.058309 383.27424 
L 126.661224 383.179604 
L 126.661224 383.083178 
L 129.26414 382.985043 
L 129.26414 382.885245 
L 131.867055 382.783809 
L 131.867055 382.680752 
L 134.469971 382.576093 
L 134.469971 382.469863 
L 137.072886 382.362117 
L 137.072886 382.25293 
L 139.675802 382.142407 
L 139.675802 382.030683 
L 140.977259 382.030683 
L 140.977259 381.917916 
L 142.278717 381.917916 
L 142.278717 381.804291 
L 143.580175 381.804291 
L 143.580175 381.690014 
L 144.881633 381.690014 
L 144.881633 381.575309 
L 146.18309 381.575309 
L 146.18309 381.460412 
L 147.484548 381.460412 
L 147.484548 381.345567 
L 148.786006 381.345567 
L 148.786006 381.231021 
L 150.087464 381.231021 
L 150.087464 381.117015 
L 151.388921 381.117015 
L 151.388921 381.003778 
L 152.690379 381.003778 
L 152.690379 380.891519 
L 155.293294 380.780418 
L 155.293294 380.670624 
L 157.89621 380.562239 
L 157.89621 380.455323 
L 160.499125 380.34988 
L 160.499125 380.245862 
L 163.102041 380.143163 
L 163.102041 380.041618 
L 165.704956 379.941008 
L 165.704956 379.841055 
L 168.307872 379.741431 
L 168.307872 379.641766 
L 170.910787 379.541651 
L 170.910787 379.440658 
L 173.513703 379.33835 
L 173.513703 379.234296 
L 176.116618 379.128091 
L 176.116618 379.01937 
L 177.418076 379.01937 
L 177.418076 378.907819 
L 178.719534 378.907819 
L 178.719534 378.79318 
L 180.020991 378.79318 
L 180.020991 378.675258 
L 181.322449 378.675258 
L 181.322449 378.55391 
L 182.623907 378.55391 
L 182.623907 378.429035 
L 183.925364 378.429035 
L 183.925364 378.300557 
L 185.226822 378.300557 
L 185.226822 378.168405 
L 186.52828 378.168405 
L 186.52828 378.032492 
L 187.829738 378.032492 
L 187.829738 377.892693 
L 189.131195 377.892693 
L 189.131195 377.748828 
L 190.432653 377.748828 
L 190.432653 377.60065 
L 191.734111 377.60065 
L 191.734111 377.447835 
L 193.035569 377.447835 
L 193.035569 377.289984 
L 194.337026 377.289984 
L 194.337026 377.126629 
L 195.638484 377.126629 
L 195.638484 376.95724 
L 196.939942 376.95724 
L 196.939942 376.781235 
L 198.241399 376.781235 
L 198.241399 376.597995 
L 199.542857 376.597995 
L 199.542857 376.40687 
L 200.844315 376.40687 
L 200.844315 376.207182 
L 202.145773 376.207182 
L 202.145773 375.998227 
L 203.44723 375.998227 
L 203.44723 375.779264 
L 204.748688 375.779264 
L 204.748688 375.549501 
L 206.050146 375.549501 
L 206.050146 375.308084 
L 207.351603 375.308084 
L 207.351603 375.054073 
L 208.653061 375.054073 
L 208.653061 374.786432 
L 209.954519 374.786432 
L 209.954519 374.50402 
L 211.255977 374.50402 
L 211.255977 374.205594 
L 212.557434 374.205594 
L 212.557434 373.889822 
L 213.858892 373.889822 
L 213.858892 373.555315 
L 215.16035 373.555315 
L 215.16035 373.200662 
L 216.461808 373.200662 
L 216.461808 372.824488 
L 217.763265 372.824488 
L 217.763265 372.425513 
L 219.064723 372.425513 
L 219.064723 372.002617 
L 220.366181 372.002617 
L 220.366181 371.554896 
L 221.667638 371.554896 
L 221.667638 371.08171 
L 222.969096 371.08171 
L 222.969096 370.58272 
L 224.270554 370.58272 
L 224.270554 370.057897 
L 225.572012 370.057897 
L 225.572012 369.507521 
L 226.873469 369.507521 
L 226.873469 368.932142 
L 228.174927 368.932142 
L 228.174927 368.332539 
L 229.476385 368.332539 
L 229.476385 367.709648 
L 230.777843 367.709648 
L 230.777843 367.064496 
L 232.0793 367.064496 
L 232.0793 366.398128 
L 233.380758 366.398128 
L 233.380758 365.711535 
L 234.682216 365.711535 
L 234.682216 365.005607 
L 235.983673 365.005607 
L 235.983673 364.281091 
L 237.285131 364.281091 
L 237.285131 363.538581 
L 238.586589 363.538581 
L 238.586589 362.778527 
L 239.888047 362.778527 
L 239.888047 362.001263 
L 241.189504 362.001263 
L 241.189504 361.207058 
L 242.490962 361.207058 
L 242.490962 360.396174 
L 243.79242 360.396174 
L 243.79242 359.568941 
L 245.093878 359.568941 
L 245.093878 358.725818 
L 246.395335 358.725818 
L 246.395335 357.86746 
L 247.696793 357.86746 
L 247.696793 356.994759 
L 248.998251 356.994759 
L 248.998251 356.108878 
L 250.299708 356.108878 
L 250.299708 355.211247 
L 251.601166 355.211247 
L 251.601166 354.303542 
L 252.902624 354.303542 
L 252.902624 353.387636 
L 254.204082 353.387636 
L 254.204082 352.465526 
L 255.505539 352.465526 
L 255.505539 351.539237 
L 256.806997 351.539237 
L 256.806997 350.610723 
L 258.108455 350.610723 
L 258.108455 349.681757 
L 259.409913 349.681757 
L 259.409913 348.753828 
L 260.71137 348.753828 
L 260.71137 347.828065 
L 262.012828 347.828065 
L 262.012828 346.905167 
L 263.314286 346.905167 
L 263.314286 345.985373 
L 264.615743 345.985373 
L 264.615743 345.068465 
L 265.917201 345.068465 
L 265.917201 344.153787 
L 267.218659 344.153787 
L 267.218659 343.240308 
L 268.520117 343.240308 
L 268.520117 342.326687 
L 269.821574 342.326687 
L 269.821574 341.411353 
L 271.123032 341.411353 
L 271.123032 340.492591 
L 272.42449 340.492591 
L 272.42449 339.568606 
L 273.725948 339.568606 
L 273.725948 338.637576 
L 275.027405 338.637576 
L 275.027405 337.697683 
L 276.328863 337.697683 
L 276.328863 336.747119 
L 277.630321 336.747119 
L 277.630321 335.784073 
L 278.931778 335.784073 
L 278.931778 334.806696 
L 280.233236 334.806696 
L 280.233236 333.813063 
L 281.534694 333.813063 
L 281.534694 332.801134 
L 282.836152 332.801134 
L 282.836152 331.768722 
L 284.137609 331.768722 
L 284.137609 330.713482 
L 285.439067 330.713482 
L 285.439067 329.632916 
L 286.740525 329.632916 
L 286.740525 328.524415 
L 288.041983 328.524415 
L 288.041983 327.385324 
L 289.34344 327.385324 
L 289.34344 326.213025 
L 290.644898 326.213025 
L 290.644898 325.005045 
L 291.946356 325.005045 
L 291.946356 323.759157 
L 293.247813 323.759157 
L 293.247813 322.473496 
L 294.549271 322.473496 
L 294.549271 321.146653 
L 295.850729 321.146653 
L 295.850729 319.777751 
L 297.152187 319.777751 
L 297.152187 318.366494 
L 298.453644 318.366494 
L 298.453644 316.913189 
L 299.755102 316.913189 
L 299.755102 315.418736 
L 301.05656 315.418736 
L 301.05656 313.884595 
L 302.358017 313.884595 
L 302.358017 312.312731 
L 303.659475 312.312731 
L 303.659475 310.705536 
L 304.960933 310.705536 
L 304.960933 309.065754 
L 306.262391 309.065754 
L 306.262391 307.396395 
L 307.563848 307.396395 
L 307.563848 305.700664 
L 308.865306 305.700664 
L 308.865306 303.981891 
L 310.166764 303.981891 
L 310.166764 302.243482 
L 311.468222 302.243482 
L 311.468222 300.488875 
L 312.769679 300.488875 
L 312.769679 298.721509 
L 314.071137 298.721509 
L 314.071137 296.944805 
L 315.372595 296.944805 
L 315.372595 295.162145 
L 316.674052 295.162145 
L 316.674052 293.376851 
L 317.97551 293.376851 
L 317.97551 291.592162 
L 319.276968 291.592162 
L 319.276968 289.811191 
L 320.578426 289.811191 
L 320.578426 288.036883 
L 321.879883 288.036883 
L 321.879883 286.271948 
L 323.181341 286.271948 
L 323.181341 284.518794 
L 324.482799 284.518794 
L 324.482799 282.779452 
L 325.784257 282.779452 
L 325.784257 281.0555 
L 327.085714 281.0555 
L 327.085714 279.347998 
L 328.387172 279.347998 
L 328.387172 277.657437 
L 329.68863 277.657437 
L 329.68863 275.983709 
L 330.990087 275.983709 
L 330.990087 274.32611 
L 332.291545 274.32611 
L 332.291545 272.683375 
L 333.593003 272.683375 
L 333.593003 271.053729 
L 334.894461 271.053729 
L 334.894461 269.434983 
L 336.195918 269.434983 
L 336.195918 267.824643 
L 337.497376 267.824643 
L 337.497376 266.220037 
L 338.798834 266.220037 
L 338.798834 264.618446 
L 340.100292 264.618446 
L 340.100292 263.017237 
L 341.401749 263.017237 
L 341.401749 261.41398 
L 342.703207 261.41398 
L 342.703207 259.806551 
L 344.004665 259.806551 
L 344.004665 258.193214 
L 345.306122 258.193214 
L 345.306122 256.57267 
L 346.60758 256.57267 
L 346.60758 254.944087 
L 347.909038 254.944087 
L 347.909038 253.30709 
L 349.210496 253.30709 
L 349.210496 251.661735 
L 350.511953 251.661735 
L 350.511953 250.008457 
L 351.813411 250.008457 
L 351.813411 248.347992 
L 353.114869 248.347992 
L 353.114869 246.681294 
L 354.416327 246.681294 
L 354.416327 245.009441 
L 355.717784 245.009441 
L 355.717784 243.333542 
L 357.019242 243.333542 
L 357.019242 241.654641 
L 358.3207 241.654641 
L 358.3207 239.973642 
L 359.622157 239.973642 
L 359.622157 238.291241 
L 360.923615 238.291241 
L 360.923615 236.607879 
L 362.225073 236.607879 
L 362.225073 234.923713 
L 363.526531 234.923713 
L 363.526531 233.238613 
L 364.827988 233.238613 
L 364.827988 231.552172 
L 366.129446 231.552172 
L 366.129446 229.863737 
L 367.430904 229.863737 
L 367.430904 228.172442 
L 368.732362 228.172442 
L 368.732362 226.47726 
L 370.033819 226.47726 
L 370.033819 224.777042 
L 371.335277 224.777042 
L 371.335277 223.070568 
L 372.636735 223.070568 
L 372.636735 221.356579 
L 373.938192 221.356579 
L 373.938192 219.633802 
L 375.23965 219.633802 
L 375.23965 217.900967 
L 376.541108 217.900967 
L 376.541108 216.156808 
L 377.842566 216.156808 
L 377.842566 214.400055 
L 379.144023 214.400055 
L 379.144023 212.629419 
L 380.445481 212.629419 
L 380.445481 210.843559 
L 381.746939 210.843559 
L 381.746939 209.041054 
L 383.048397 209.041054 
L 383.048397 207.220365 
L 384.349854 207.220365 
L 384.349854 205.379803 
L 385.651312 205.379803 
L 385.651312 203.517507 
L 386.95277 203.517507 
L 386.95277 201.631425 
L 388.254227 201.631425 
L 388.254227 199.719322 
L 389.555685 199.719322 
L 389.555685 197.778807 
L 390.857143 197.778807 
L 390.857143 195.80739 
L 392.158601 195.80739 
L 392.158601 193.802555 
L 393.460058 193.802555 
L 393.460058 191.76187 
L 394.761516 191.76187 
L 394.761516 189.68311 
L 396.062974 189.68311 
L 396.062974 187.564389 
L 397.364431 187.564389 
L 397.364431 185.404294 
L 398.665889 185.404294 
L 398.665889 183.202009 
L 399.967347 183.202009 
L 399.967347 180.957405 
L 401.268805 180.957405 
L 401.268805 178.671107 
L 402.570262 178.671107 
L 402.570262 176.344513 
L 403.87172 176.344513 
L 403.87172 173.979763 
L 405.173178 173.979763 
L 405.173178 171.579675 
L 406.474636 171.579675 
L 406.474636 169.147634 
L 407.776093 169.147634 
L 407.776093 166.687451 
L 409.077551 166.687451 
L 409.077551 164.203216 
L 410.379009 164.203216 
L 410.379009 161.699127 
L 411.680466 161.699127 
L 411.680466 159.179342 
L 412.981924 159.179342 
L 412.981924 156.64784 
L 414.283382 156.64784 
L 414.283382 154.108306 
L 415.58484 154.108306 
L 415.58484 151.564049 
L 416.886297 151.564049 
L 416.886297 149.017949 
L 418.187755 149.017949 
L 418.187755 146.472429 
L 419.489213 146.472429 
L 419.489213 143.929458 
L 420.790671 143.929458 
L 420.790671 141.390576 
L 422.092128 141.390576 
L 422.092128 138.85693 
L 423.393586 138.85693 
L 423.393586 136.329317 
L 424.695044 136.329317 
L 424.695044 133.808245 
L 425.996501 133.808245 
L 425.996501 131.293981 
L 427.297959 131.293981 
L 427.297959 128.7866 
L 428.599417 128.7866 
L 428.599417 126.286035 
L 429.900875 126.286035 
L 429.900875 123.79212 
L 431.202332 123.79212 
L 431.202332 121.304623 
L 432.50379 121.304623 
L 432.50379 118.823274 
L 433.805248 118.823274 
L 433.805248 116.347796 
L 435.106706 116.347796 
L 435.106706 113.877927 
L 436.408163 113.877927 
L 436.408163 111.413447 
L 437.709621 111.413447 
L 437.709621 108.954202 
L 439.011079 108.954202 
L 439.011079 106.500141 
L 440.312536 106.500141 
L 440.312536 104.05136 
L 441.613994 104.05136 
L 441.613994 101.608154 
L 442.915452 101.608154 
L 442.915452 99.17109 
L 444.21691 99.17109 
L 444.21691 96.741084 
L 445.518367 96.741084 
L 445.518367 94.319506 
L 446.819825 94.319506 
L 446.819825 91.90829 
L 448.121283 91.90829 
L 448.121283 89.510059 
L 449.422741 89.510059 
L 449.422741 87.128246 
L 450.724198 87.128246 
L 450.724198 84.767222 
L 452.025656 84.767222 
L 452.025656 82.432387 
L 453.327114 82.432387 
L 453.327114 80.130236 
L 454.628571 80.130236 
L 454.628571 77.868378 
L 455.930029 77.868378 
L 455.930029 75.655479 
L 457.231487 75.655479 
L 457.231487 73.501134 
L 458.532945 73.501134 
L 458.532945 71.415658 
L 459.834402 71.415658 
L 459.834402 69.409781 
L 461.13586 69.409781 
L 461.13586 67.494282 
L 462.437318 67.494282 
L 462.437318 65.679556 
L 463.738776 65.679556 
L 463.738776 63.975152 
L 465.040233 63.975152 
L 465.040233 62.389315 
L 466.341691 62.389315 
L 466.341691 60.928563 
L 467.643149 60.928563 
L 467.643149 59.597341 
L 468.944606 59.597341 
L 468.944606 58.397767 
L 470.246064 58.397767 
L 470.246064 57.32952 
L 471.547522 57.32952 
L 471.547522 56.389851 
L 472.84898 56.389851 
L 472.84898 55.573732 
L 474.150437 55.573732 
L 474.150437 54.874134 
L 475.451895 54.874134 
L 475.451895 54.282388 
L 476.753353 54.282388 
L 476.753353 53.788624 
L 478.05481 53.788624 
L 478.05481 53.382228 
L 479.356268 53.382228 
L 479.356268 53.052298 
L 480.657726 53.052298 
L 480.657726 52.788062 
L 481.959184 52.788062 
L 481.959184 52.579228 
L 483.260641 52.579228 
L 483.260641 52.416266 
L 484.562099 52.416266 
L 484.562099 52.290602 
L 487.165015 52.194724 
L 487.165015 52.122214 
L 491.069388 52.02691 
L 491.069388 51.996303 
L 506.68688 51.888816 
L 506.68688 51.884852 
L 518.4 51.859431 
L 518.4 51.859431 
" style="fill:none;stroke:#ff7f0e;stroke-linecap:square;stroke-width:1.5;"/>
   </g>
   <g id="line2d_47">
    <path clip-path="url(#p7c868e002f)" d="M 281.534694 384.48 
L 281.534694 51.84 
" style="fill:none;stroke:#000000;stroke-dasharray:1.5,2.475;stroke-dashoffset:0;stroke-width:1.5;"/>
   </g>
   <g id="line2d_48">
    <path clip-path="url(#p7c868e002f)" d="M 72 164.899659 
L 518.4 164.899659 
" style="fill:none;stroke:#9467bd;stroke-dasharray:5.55,2.4;stroke-dashoffset:0;stroke-width:1.5;"/>
   </g>
   <g id="line2d_49">
    <path clip-path="url(#p7c868e002f)" d="M 72 133.531039 
L 518.4 133.531039 
" style="fill:none;stroke:#2ca02c;stroke-dasharray:5.55,2.4;stroke-dashoffset:0;stroke-width:1.5;"/>
   </g>
   <g id="patch_3">
    <path d="M 72 384.48 
L 72 51.84 
" style="fill:none;stroke:#000000;stroke-linecap:square;stroke-linejoin:miter;stroke-width:0.8;"/>
   </g>
   <g id="patch_4">
    <path d="M 518.4 384.48 
L 518.4 51.84 
" style="fill:none;stroke:#000000;stroke-linecap:square;stroke-linejoin:miter;stroke-width:0.8;"/>
   </g>
   <g id="patch_5">
    <path d="M 72 384.48 
L 518.4 384.48 
" style="fill:none;stroke:#000000;stroke-linecap:square;stroke-linejoin:miter;stroke-width:0.8;"/>
   </g>
   <g id="patch_6">
    <path d="M 72 51.84 
L 518.4 51.84 
" style="fill:none;stroke:#000000;stroke-linecap:square;stroke-linejoin:miter;stroke-width:0.8;"/>
   </g>
   <g id="text_24">
    <!-- Projected cumulative 1st and 2nd doses -->
    <g transform="translate(174.848437 45.84)scale(0.12 -0.12)">
     <defs>
      <path d="M 1259 4147 
L 1259 2394 
L 2053 2394 
Q 2494 2394 2734 2622 
Q 2975 2850 2975 3272 
Q 2975 3691 2734 3919 
Q 2494 4147 2053 4147 
L 1259 4147 
z
M 628 4666 
L 2053 4666 
Q 2838 4666 3239 4311 
Q 3641 3956 3641 3272 
Q 3641 2581 3239 2228 
Q 2838 1875 2053 1875 
L 1259 1875 
L 1259 0 
L 628 0 
L 628 4666 
z
" id="DejaVuSans-50" transform="scale(0.015625)"/>
      <path d="M 603 3500 
L 1178 3500 
L 1178 -63 
Q 1178 -731 923 -1031 
Q 669 -1331 103 -1331 
L -116 -1331 
L -116 -844 
L 38 -844 
Q 366 -844 484 -692 
Q 603 -541 603 -63 
L 603 3500 
z
M 603 4863 
L 1178 4863 
L 1178 4134 
L 603 4134 
L 603 4863 
z
" id="DejaVuSans-6a" transform="scale(0.015625)"/>
     </defs>
     <use xlink:href="#DejaVuSans-50"/>
     <use x="58.552734" xlink:href="#DejaVuSans-72"/>
     <use x="97.416016" xlink:href="#DejaVuSans-6f"/>
     <use x="158.597656" xlink:href="#DejaVuSans-6a"/>
     <use x="186.380859" xlink:href="#DejaVuSans-65"/>
     <use x="247.904297" xlink:href="#DejaVuSans-63"/>
     <use x="302.884766" xlink:href="#DejaVuSans-74"/>
     <use x="342.09375" xlink:href="#DejaVuSans-65"/>
     <use x="403.617188" xlink:href="#DejaVuSans-64"/>
     <use x="467.09375" xlink:href="#DejaVuSans-20"/>
     <use x="498.880859" xlink:href="#DejaVuSans-63"/>
     <use x="553.861328" xlink:href="#DejaVuSans-75"/>
     <use x="617.240234" xlink:href="#DejaVuSans-6d"/>
     <use x="714.652344" xlink:href="#DejaVuSans-75"/>
     <use x="778.03125" xlink:href="#DejaVuSans-6c"/>
     <use x="805.814453" xlink:href="#DejaVuSans-61"/>
     <use x="867.09375" xlink:href="#DejaVuSans-74"/>
     <use x="906.302734" xlink:href="#DejaVuSans-69"/>
     <use x="934.085938" xlink:href="#DejaVuSans-76"/>
     <use x="993.265625" xlink:href="#DejaVuSans-65"/>
     <use x="1054.789062" xlink:href="#DejaVuSans-20"/>
     <use x="1086.576172" xlink:href="#DejaVuSans-31"/>
     <use x="1150.199219" xlink:href="#DejaVuSans-73"/>
     <use x="1202.298828" xlink:href="#DejaVuSans-74"/>
     <use x="1241.507812" xlink:href="#DejaVuSans-20"/>
     <use x="1273.294922" xlink:href="#DejaVuSans-61"/>
     <use x="1334.574219" xlink:href="#DejaVuSans-6e"/>
     <use x="1397.953125" xlink:href="#DejaVuSans-64"/>
     <use x="1461.429688" xlink:href="#DejaVuSans-20"/>
     <use x="1493.216797" xlink:href="#DejaVuSans-32"/>
     <use x="1556.839844" xlink:href="#DejaVuSans-6e"/>
     <use x="1620.21875" xlink:href="#DejaVuSans-64"/>
     <use x="1683.695312" xlink:href="#DejaVuSans-20"/>
     <use x="1715.482422" xlink:href="#DejaVuSans-64"/>
     <use x="1778.958984" xlink:href="#DejaVuSans-6f"/>
     <use x="1840.140625" xlink:href="#DejaVuSans-73"/>
     <use x="1892.240234" xlink:href="#DejaVuSans-65"/>
     <use x="1953.763672" xlink:href="#DejaVuSans-73"/>
    </g>
   </g>
   <g id="legend_1">
    <g id="patch_7">
     <path d="M 345.881795 380.315 
L 512.569 380.315 
Q 514.235 380.315 514.235 378.649 
L 514.235 281.666975 
Q 514.235 280.000975 512.569 280.000975 
L 345.881795 280.000975 
Q 344.215795 280.000975 344.215795 281.666975 
L 344.215795 378.649 
Q 344.215795 380.315 345.881795 380.315 
z
" style="fill:#ffffff;opacity:0.8;stroke:#cccccc;stroke-linejoin:miter;"/>
    </g>
    <g id="line2d_50">
     <path d="M 347.547795 286.746973 
L 364.207795 286.746973 
" style="fill:none;stroke:#1f77b4;stroke-linecap:square;stroke-width:1.5;"/>
    </g>
    <g id="line2d_51"/>
    <g id="text_25">
     <!-- First doses -->
     <g transform="translate(370.871795 289.662473)scale(0.0833 -0.0833)">
      <defs>
       <path d="M 628 4666 
L 3309 4666 
L 3309 4134 
L 1259 4134 
L 1259 2759 
L 3109 2759 
L 3109 2228 
L 1259 2228 
L 1259 0 
L 628 0 
L 628 4666 
z
" id="DejaVuSans-46" transform="scale(0.015625)"/>
      </defs>
      <use xlink:href="#DejaVuSans-46"/>
      <use x="50.269531" xlink:href="#DejaVuSans-69"/>
      <use x="78.052734" xlink:href="#DejaVuSans-72"/>
      <use x="119.166016" xlink:href="#DejaVuSans-73"/>
      <use x="171.265625" xlink:href="#DejaVuSans-74"/>
      <use x="210.474609" xlink:href="#DejaVuSans-20"/>
      <use x="242.261719" xlink:href="#DejaVuSans-64"/>
      <use x="305.738281" xlink:href="#DejaVuSans-6f"/>
      <use x="366.919922" xlink:href="#DejaVuSans-73"/>
      <use x="419.019531" xlink:href="#DejaVuSans-65"/>
      <use x="480.542969" xlink:href="#DejaVuSans-73"/>
     </g>
    </g>
    <g id="line2d_52">
     <path d="M 347.547795 298.973852 
L 364.207795 298.973852 
" style="fill:none;stroke:#ff7f0e;stroke-linecap:square;stroke-width:1.5;"/>
    </g>
    <g id="line2d_53"/>
    <g id="text_26">
     <!-- Second doses -->
     <g transform="translate(370.871795 301.889352)scale(0.0833 -0.0833)">
      <use xlink:href="#DejaVuSans-53"/>
      <use x="63.476562" xlink:href="#DejaVuSans-65"/>
      <use x="125" xlink:href="#DejaVuSans-63"/>
      <use x="179.980469" xlink:href="#DejaVuSans-6f"/>
      <use x="241.162109" xlink:href="#DejaVuSans-6e"/>
      <use x="304.541016" xlink:href="#DejaVuSans-64"/>
      <use x="368.017578" xlink:href="#DejaVuSans-20"/>
      <use x="399.804688" xlink:href="#DejaVuSans-64"/>
      <use x="463.28125" xlink:href="#DejaVuSans-6f"/>
      <use x="524.462891" xlink:href="#DejaVuSans-73"/>
      <use x="576.5625" xlink:href="#DejaVuSans-65"/>
      <use x="638.085938" xlink:href="#DejaVuSans-73"/>
     </g>
    </g>
    <g id="patch_8">
     <path d="M 347.547795 314.11623 
L 364.207795 314.11623 
L 364.207795 308.28523 
L 347.547795 308.28523 
z
" style="fill:#ff0000;opacity:0.35;"/>
    </g>
    <g id="text_27">
     <!-- Phase 1a -->
     <g transform="translate(370.871795 314.11623)scale(0.0833 -0.0833)">
      <defs>
       <path d="M 3513 2113 
L 3513 0 
L 2938 0 
L 2938 2094 
Q 2938 2591 2744 2837 
Q 2550 3084 2163 3084 
Q 1697 3084 1428 2787 
Q 1159 2491 1159 1978 
L 1159 0 
L 581 0 
L 581 4863 
L 1159 4863 
L 1159 2956 
Q 1366 3272 1645 3428 
Q 1925 3584 2291 3584 
Q 2894 3584 3203 3211 
Q 3513 2838 3513 2113 
z
" id="DejaVuSans-68" transform="scale(0.015625)"/>
      </defs>
      <use xlink:href="#DejaVuSans-50"/>
      <use x="60.302734" xlink:href="#DejaVuSans-68"/>
      <use x="123.681641" xlink:href="#DejaVuSans-61"/>
      <use x="184.960938" xlink:href="#DejaVuSans-73"/>
      <use x="237.060547" xlink:href="#DejaVuSans-65"/>
      <use x="298.583984" xlink:href="#DejaVuSans-20"/>
      <use x="330.371094" xlink:href="#DejaVuSans-31"/>
      <use x="393.994141" xlink:href="#DejaVuSans-61"/>
     </g>
    </g>
    <g id="patch_9">
     <path d="M 347.547795 326.343108 
L 364.207795 326.343108 
L 364.207795 320.512108 
L 347.547795 320.512108 
z
" style="fill:#ffa500;opacity:0.35;"/>
    </g>
    <g id="text_28">
     <!-- Phase 1b -->
     <g transform="translate(370.871795 326.343108)scale(0.0833 -0.0833)">
      <defs>
       <path d="M 3116 1747 
Q 3116 2381 2855 2742 
Q 2594 3103 2138 3103 
Q 1681 3103 1420 2742 
Q 1159 2381 1159 1747 
Q 1159 1113 1420 752 
Q 1681 391 2138 391 
Q 2594 391 2855 752 
Q 3116 1113 3116 1747 
z
M 1159 2969 
Q 1341 3281 1617 3432 
Q 1894 3584 2278 3584 
Q 2916 3584 3314 3078 
Q 3713 2572 3713 1747 
Q 3713 922 3314 415 
Q 2916 -91 2278 -91 
Q 1894 -91 1617 61 
Q 1341 213 1159 525 
L 1159 0 
L 581 0 
L 581 4863 
L 1159 4863 
L 1159 2969 
z
" id="DejaVuSans-62" transform="scale(0.015625)"/>
      </defs>
      <use xlink:href="#DejaVuSans-50"/>
      <use x="60.302734" xlink:href="#DejaVuSans-68"/>
      <use x="123.681641" xlink:href="#DejaVuSans-61"/>
      <use x="184.960938" xlink:href="#DejaVuSans-73"/>
      <use x="237.060547" xlink:href="#DejaVuSans-65"/>
      <use x="298.583984" xlink:href="#DejaVuSans-20"/>
      <use x="330.371094" xlink:href="#DejaVuSans-31"/>
      <use x="393.994141" xlink:href="#DejaVuSans-62"/>
     </g>
    </g>
    <g id="patch_10">
     <path d="M 347.547795 338.569986 
L 364.207795 338.569986 
L 364.207795 332.738986 
L 347.547795 332.738986 
z
" style="fill:#ffff00;opacity:0.35;"/>
    </g>
    <g id="text_29">
     <!-- Phase 2a -->
     <g transform="translate(370.871795 338.569986)scale(0.0833 -0.0833)">
      <use xlink:href="#DejaVuSans-50"/>
      <use x="60.302734" xlink:href="#DejaVuSans-68"/>
      <use x="123.681641" xlink:href="#DejaVuSans-61"/>
      <use x="184.960938" xlink:href="#DejaVuSans-73"/>
      <use x="237.060547" xlink:href="#DejaVuSans-65"/>
      <use x="298.583984" xlink:href="#DejaVuSans-20"/>
      <use x="330.371094" xlink:href="#DejaVuSans-32"/>
      <use x="393.994141" xlink:href="#DejaVuSans-61"/>
     </g>
    </g>
    <g id="line2d_54">
     <path d="M 347.547795 347.881364 
L 364.207795 347.881364 
" style="fill:none;stroke:#9467bd;stroke-dasharray:5.55,2.4;stroke-dashoffset:0;stroke-width:1.5;"/>
    </g>
    <g id="line2d_55"/>
    <g id="text_30">
     <!-- Phase B 70% target (2021-11-09) -->
     <g transform="translate(370.871795 350.796864)scale(0.0833 -0.0833)">
      <defs>
       <path d="M 1259 2228 
L 1259 519 
L 2272 519 
Q 2781 519 3026 730 
Q 3272 941 3272 1375 
Q 3272 1813 3026 2020 
Q 2781 2228 2272 2228 
L 1259 2228 
z
M 1259 4147 
L 1259 2741 
L 2194 2741 
Q 2656 2741 2882 2914 
Q 3109 3088 3109 3444 
Q 3109 3797 2882 3972 
Q 2656 4147 2194 4147 
L 1259 4147 
z
M 628 4666 
L 2241 4666 
Q 2963 4666 3353 4366 
Q 3744 4066 3744 3513 
Q 3744 3084 3544 2831 
Q 3344 2578 2956 2516 
Q 3422 2416 3680 2098 
Q 3938 1781 3938 1306 
Q 3938 681 3513 340 
Q 3088 0 2303 0 
L 628 0 
L 628 4666 
z
" id="DejaVuSans-42" transform="scale(0.015625)"/>
       <path d="M 525 4666 
L 3525 4666 
L 3525 4397 
L 1831 0 
L 1172 0 
L 2766 4134 
L 525 4134 
L 525 4666 
z
" id="DejaVuSans-37" transform="scale(0.015625)"/>
       <path d="M 4653 2053 
Q 4381 2053 4226 1822 
Q 4072 1591 4072 1178 
Q 4072 772 4226 539 
Q 4381 306 4653 306 
Q 4919 306 5073 539 
Q 5228 772 5228 1178 
Q 5228 1588 5073 1820 
Q 4919 2053 4653 2053 
z
M 4653 2450 
Q 5147 2450 5437 2106 
Q 5728 1763 5728 1178 
Q 5728 594 5436 251 
Q 5144 -91 4653 -91 
Q 4153 -91 3862 251 
Q 3572 594 3572 1178 
Q 3572 1766 3864 2108 
Q 4156 2450 4653 2450 
z
M 1428 4353 
Q 1159 4353 1004 4120 
Q 850 3888 850 3481 
Q 850 3069 1003 2837 
Q 1156 2606 1428 2606 
Q 1700 2606 1854 2837 
Q 2009 3069 2009 3481 
Q 2009 3884 1853 4118 
Q 1697 4353 1428 4353 
z
M 4250 4750 
L 4750 4750 
L 1831 -91 
L 1331 -91 
L 4250 4750 
z
M 1428 4750 
Q 1922 4750 2215 4408 
Q 2509 4066 2509 3481 
Q 2509 2891 2217 2550 
Q 1925 2209 1428 2209 
Q 931 2209 642 2551 
Q 353 2894 353 3481 
Q 353 4063 643 4406 
Q 934 4750 1428 4750 
z
" id="DejaVuSans-25" transform="scale(0.015625)"/>
       <path d="M 313 2009 
L 1997 2009 
L 1997 1497 
L 313 1497 
L 313 2009 
z
" id="DejaVuSans-2d" transform="scale(0.015625)"/>
       <path d="M 703 97 
L 703 672 
Q 941 559 1184 500 
Q 1428 441 1663 441 
Q 2288 441 2617 861 
Q 2947 1281 2994 2138 
Q 2813 1869 2534 1725 
Q 2256 1581 1919 1581 
Q 1219 1581 811 2004 
Q 403 2428 403 3163 
Q 403 3881 828 4315 
Q 1253 4750 1959 4750 
Q 2769 4750 3195 4129 
Q 3622 3509 3622 2328 
Q 3622 1225 3098 567 
Q 2575 -91 1691 -91 
Q 1453 -91 1209 -44 
Q 966 3 703 97 
z
M 1959 2075 
Q 2384 2075 2632 2365 
Q 2881 2656 2881 3163 
Q 2881 3666 2632 3958 
Q 2384 4250 1959 4250 
Q 1534 4250 1286 3958 
Q 1038 3666 1038 3163 
Q 1038 2656 1286 2365 
Q 1534 2075 1959 2075 
z
" id="DejaVuSans-39" transform="scale(0.015625)"/>
      </defs>
      <use xlink:href="#DejaVuSans-50"/>
      <use x="60.302734" xlink:href="#DejaVuSans-68"/>
      <use x="123.681641" xlink:href="#DejaVuSans-61"/>
      <use x="184.960938" xlink:href="#DejaVuSans-73"/>
      <use x="237.060547" xlink:href="#DejaVuSans-65"/>
      <use x="298.583984" xlink:href="#DejaVuSans-20"/>
      <use x="330.371094" xlink:href="#DejaVuSans-42"/>
      <use x="398.974609" xlink:href="#DejaVuSans-20"/>
      <use x="430.761719" xlink:href="#DejaVuSans-37"/>
      <use x="494.384766" xlink:href="#DejaVuSans-30"/>
      <use x="558.007812" xlink:href="#DejaVuSans-25"/>
      <use x="653.027344" xlink:href="#DejaVuSans-20"/>
      <use x="684.814453" xlink:href="#DejaVuSans-74"/>
      <use x="724.023438" xlink:href="#DejaVuSans-61"/>
      <use x="785.302734" xlink:href="#DejaVuSans-72"/>
      <use x="824.666016" xlink:href="#DejaVuSans-67"/>
      <use x="888.142578" xlink:href="#DejaVuSans-65"/>
      <use x="949.666016" xlink:href="#DejaVuSans-74"/>
      <use x="988.875" xlink:href="#DejaVuSans-20"/>
      <use x="1020.662109" xlink:href="#DejaVuSans-28"/>
      <use x="1059.675781" xlink:href="#DejaVuSans-32"/>
      <use x="1123.298828" xlink:href="#DejaVuSans-30"/>
      <use x="1186.921875" xlink:href="#DejaVuSans-32"/>
      <use x="1250.544922" xlink:href="#DejaVuSans-31"/>
      <use x="1314.167969" xlink:href="#DejaVuSans-2d"/>
      <use x="1350.251953" xlink:href="#DejaVuSans-31"/>
      <use x="1413.875" xlink:href="#DejaVuSans-31"/>
      <use x="1477.498047" xlink:href="#DejaVuSans-2d"/>
      <use x="1513.582031" xlink:href="#DejaVuSans-30"/>
      <use x="1577.205078" xlink:href="#DejaVuSans-39"/>
      <use x="1640.828125" xlink:href="#DejaVuSans-29"/>
     </g>
    </g>
    <g id="line2d_56">
     <path d="M 347.547795 360.108242 
L 364.207795 360.108242 
" style="fill:none;stroke:#2ca02c;stroke-dasharray:5.55,2.4;stroke-dashoffset:0;stroke-width:1.5;"/>
    </g>
    <g id="line2d_57"/>
    <g id="text_31">
     <!-- Phase C 80% target (2021-11-22) -->
     <g transform="translate(370.871795 363.023742)scale(0.0833 -0.0833)">
      <use xlink:href="#DejaVuSans-50"/>
      <use x="60.302734" xlink:href="#DejaVuSans-68"/>
      <use x="123.681641" xlink:href="#DejaVuSans-61"/>
      <use x="184.960938" xlink:href="#DejaVuSans-73"/>
      <use x="237.060547" xlink:href="#DejaVuSans-65"/>
      <use x="298.583984" xlink:href="#DejaVuSans-20"/>
      <use x="330.371094" xlink:href="#DejaVuSans-43"/>
      <use x="400.195312" xlink:href="#DejaVuSans-20"/>
      <use x="431.982422" xlink:href="#DejaVuSans-38"/>
      <use x="495.605469" xlink:href="#DejaVuSans-30"/>
      <use x="559.228516" xlink:href="#DejaVuSans-25"/>
      <use x="654.248047" xlink:href="#DejaVuSans-20"/>
      <use x="686.035156" xlink:href="#DejaVuSans-74"/>
      <use x="725.244141" xlink:href="#DejaVuSans-61"/>
      <use x="786.523438" xlink:href="#DejaVuSans-72"/>
      <use x="825.886719" xlink:href="#DejaVuSans-67"/>
      <use x="889.363281" xlink:href="#DejaVuSans-65"/>
      <use x="950.886719" xlink:href="#DejaVuSans-74"/>
      <use x="990.095703" xlink:href="#DejaVuSans-20"/>
      <use x="1021.882812" xlink:href="#DejaVuSans-28"/>
      <use x="1060.896484" xlink:href="#DejaVuSans-32"/>
      <use x="1124.519531" xlink:href="#DejaVuSans-30"/>
      <use x="1188.142578" xlink:href="#DejaVuSans-32"/>
      <use x="1251.765625" xlink:href="#DejaVuSans-31"/>
      <use x="1315.388672" xlink:href="#DejaVuSans-2d"/>
      <use x="1351.472656" xlink:href="#DejaVuSans-31"/>
      <use x="1415.095703" xlink:href="#DejaVuSans-31"/>
      <use x="1478.71875" xlink:href="#DejaVuSans-2d"/>
      <use x="1514.802734" xlink:href="#DejaVuSans-32"/>
      <use x="1578.425781" xlink:href="#DejaVuSans-32"/>
      <use x="1642.048828" xlink:href="#DejaVuSans-29"/>
     </g>
    </g>
    <g id="line2d_58">
     <path d="M 347.547795 372.33512 
L 364.207795 372.33512 
" style="fill:none;stroke:#000000;stroke-dasharray:1.5,2.475;stroke-dashoffset:0;stroke-width:1.5;"/>
    </g>
    <g id="line2d_59"/>
    <g id="text_32">
     <!-- Today (2021-08-02) -->
     <g transform="translate(370.871795 375.25062)scale(0.0833 -0.0833)">
      <defs>
       <path d="M -19 4666 
L 3928 4666 
L 3928 4134 
L 2272 4134 
L 2272 0 
L 1638 0 
L 1638 4134 
L -19 4134 
L -19 4666 
z
" id="DejaVuSans-54" transform="scale(0.015625)"/>
      </defs>
      <use xlink:href="#DejaVuSans-54"/>
      <use x="44.083984" xlink:href="#DejaVuSans-6f"/>
      <use x="105.265625" xlink:href="#DejaVuSans-64"/>
      <use x="168.742188" xlink:href="#DejaVuSans-61"/>
      <use x="230.021484" xlink:href="#DejaVuSans-79"/>
      <use x="289.201172" xlink:href="#DejaVuSans-20"/>
      <use x="320.988281" xlink:href="#DejaVuSans-28"/>
      <use x="360.001953" xlink:href="#DejaVuSans-32"/>
      <use x="423.625" xlink:href="#DejaVuSans-30"/>
      <use x="487.248047" xlink:href="#DejaVuSans-32"/>
      <use x="550.871094" xlink:href="#DejaVuSans-31"/>
      <use x="614.494141" xlink:href="#DejaVuSans-2d"/>
      <use x="650.578125" xlink:href="#DejaVuSans-30"/>
      <use x="714.201172" xlink:href="#DejaVuSans-38"/>
      <use x="777.824219" xlink:href="#DejaVuSans-2d"/>
      <use x="813.908203" xlink:href="#DejaVuSans-30"/>
      <use x="877.53125" xlink:href="#DejaVuSans-32"/>
      <use x="941.154297" xlink:href="#DejaVuSans-29"/>
     </g>
    </g>
   </g>
  </g>
  <g id="axes_2">
   <g id="matplotlib.axis_3">
    <g id="ytick_12">
     <g id="line2d_60">
      <defs>
       <path d="M 0 0 
L 3.5 0 
" id="m5c66093574" style="stroke:#000000;stroke-width:0.8;"/>
      </defs>
      <g>
       <use style="stroke:#000000;stroke-width:0.8;" x="518.4" xlink:href="#m5c66093574" y="384.48"/>
      </g>
     </g>
     <g id="text_33">
      <!-- 0 -->
      <g transform="translate(525.4 388.279219)scale(0.1 -0.1)">
       <use xlink:href="#DejaVuSans-30"/>
      </g>
     </g>
    </g>
    <g id="ytick_13">
     <g id="line2d_61">
      <g>
       <use style="stroke:#000000;stroke-width:0.8;" x="518.4" xlink:href="#m5c66093574" y="353.11138"/>
      </g>
     </g>
     <g id="text_34">
      <!-- 10 -->
      <g transform="translate(525.4 356.910599)scale(0.1 -0.1)">
       <use xlink:href="#DejaVuSans-31"/>
       <use x="63.623047" xlink:href="#DejaVuSans-30"/>
      </g>
     </g>
    </g>
    <g id="ytick_14">
     <g id="line2d_62">
      <g>
       <use style="stroke:#000000;stroke-width:0.8;" x="518.4" xlink:href="#m5c66093574" y="321.74276"/>
      </g>
     </g>
     <g id="text_35">
      <!-- 20 -->
      <g transform="translate(525.4 325.541979)scale(0.1 -0.1)">
       <use xlink:href="#DejaVuSans-32"/>
       <use x="63.623047" xlink:href="#DejaVuSans-30"/>
      </g>
     </g>
    </g>
    <g id="ytick_15">
     <g id="line2d_63">
      <g>
       <use style="stroke:#000000;stroke-width:0.8;" x="518.4" xlink:href="#m5c66093574" y="290.37414"/>
      </g>
     </g>
     <g id="text_36">
      <!-- 30 -->
      <g transform="translate(525.4 294.173358)scale(0.1 -0.1)">
       <defs>
        <path d="M 2597 2516 
Q 3050 2419 3304 2112 
Q 3559 1806 3559 1356 
Q 3559 666 3084 287 
Q 2609 -91 1734 -91 
Q 1441 -91 1130 -33 
Q 819 25 488 141 
L 488 750 
Q 750 597 1062 519 
Q 1375 441 1716 441 
Q 2309 441 2620 675 
Q 2931 909 2931 1356 
Q 2931 1769 2642 2001 
Q 2353 2234 1838 2234 
L 1294 2234 
L 1294 2753 
L 1863 2753 
Q 2328 2753 2575 2939 
Q 2822 3125 2822 3475 
Q 2822 3834 2567 4026 
Q 2313 4219 1838 4219 
Q 1578 4219 1281 4162 
Q 984 4106 628 3988 
L 628 4550 
Q 988 4650 1302 4700 
Q 1616 4750 1894 4750 
Q 2613 4750 3031 4423 
Q 3450 4097 3450 3541 
Q 3450 3153 3228 2886 
Q 3006 2619 2597 2516 
z
" id="DejaVuSans-33" transform="scale(0.015625)"/>
       </defs>
       <use xlink:href="#DejaVuSans-33"/>
       <use x="63.623047" xlink:href="#DejaVuSans-30"/>
      </g>
     </g>
    </g>
    <g id="ytick_16">
     <g id="line2d_64">
      <g>
       <use style="stroke:#000000;stroke-width:0.8;" x="518.4" xlink:href="#m5c66093574" y="259.00552"/>
      </g>
     </g>
     <g id="text_37">
      <!-- 40 -->
      <g transform="translate(525.4 262.804738)scale(0.1 -0.1)">
       <use xlink:href="#DejaVuSans-34"/>
       <use x="63.623047" xlink:href="#DejaVuSans-30"/>
      </g>
     </g>
    </g>
    <g id="ytick_17">
     <g id="line2d_65">
      <g>
       <use style="stroke:#000000;stroke-width:0.8;" x="518.4" xlink:href="#m5c66093574" y="227.6369"/>
      </g>
     </g>
     <g id="text_38">
      <!-- 50 -->
      <g transform="translate(525.4 231.436118)scale(0.1 -0.1)">
       <defs>
        <path d="M 691 4666 
L 3169 4666 
L 3169 4134 
L 1269 4134 
L 1269 2991 
Q 1406 3038 1543 3061 
Q 1681 3084 1819 3084 
Q 2600 3084 3056 2656 
Q 3513 2228 3513 1497 
Q 3513 744 3044 326 
Q 2575 -91 1722 -91 
Q 1428 -91 1123 -41 
Q 819 9 494 109 
L 494 744 
Q 775 591 1075 516 
Q 1375 441 1709 441 
Q 2250 441 2565 725 
Q 2881 1009 2881 1497 
Q 2881 1984 2565 2268 
Q 2250 2553 1709 2553 
Q 1456 2553 1204 2497 
Q 953 2441 691 2322 
L 691 4666 
z
" id="DejaVuSans-35" transform="scale(0.015625)"/>
       </defs>
       <use xlink:href="#DejaVuSans-35"/>
       <use x="63.623047" xlink:href="#DejaVuSans-30"/>
      </g>
     </g>
    </g>
    <g id="ytick_18">
     <g id="line2d_66">
      <g>
       <use style="stroke:#000000;stroke-width:0.8;" x="518.4" xlink:href="#m5c66093574" y="196.268279"/>
      </g>
     </g>
     <g id="text_39">
      <!-- 60 -->
      <g transform="translate(525.4 200.067498)scale(0.1 -0.1)">
       <use xlink:href="#DejaVuSans-36"/>
       <use x="63.623047" xlink:href="#DejaVuSans-30"/>
      </g>
     </g>
    </g>
    <g id="ytick_19">
     <g id="line2d_67">
      <g>
       <use style="stroke:#000000;stroke-width:0.8;" x="518.4" xlink:href="#m5c66093574" y="164.899659"/>
      </g>
     </g>
     <g id="text_40">
      <!-- 70 -->
      <g transform="translate(525.4 168.698878)scale(0.1 -0.1)">
       <use xlink:href="#DejaVuSans-37"/>
       <use x="63.623047" xlink:href="#DejaVuSans-30"/>
      </g>
     </g>
    </g>
    <g id="ytick_20">
     <g id="line2d_68">
      <g>
       <use style="stroke:#000000;stroke-width:0.8;" x="518.4" xlink:href="#m5c66093574" y="133.531039"/>
      </g>
     </g>
     <g id="text_41">
      <!-- 80 -->
      <g transform="translate(525.4 137.330258)scale(0.1 -0.1)">
       <use xlink:href="#DejaVuSans-38"/>
       <use x="63.623047" xlink:href="#DejaVuSans-30"/>
      </g>
     </g>
    </g>
    <g id="ytick_21">
     <g id="line2d_69">
      <g>
       <use style="stroke:#000000;stroke-width:0.8;" x="518.4" xlink:href="#m5c66093574" y="102.162419"/>
      </g>
     </g>
     <g id="text_42">
      <!-- 90 -->
      <g transform="translate(525.4 105.961638)scale(0.1 -0.1)">
       <use xlink:href="#DejaVuSans-39"/>
       <use x="63.623047" xlink:href="#DejaVuSans-30"/>
      </g>
     </g>
    </g>
    <g id="ytick_22">
     <g id="line2d_70">
      <g>
       <use style="stroke:#000000;stroke-width:0.8;" x="518.4" xlink:href="#m5c66093574" y="70.793799"/>
      </g>
     </g>
     <g id="text_43">
      <!-- 100 -->
      <g transform="translate(525.4 74.593018)scale(0.1 -0.1)">
       <use xlink:href="#DejaVuSans-31"/>
       <use x="63.623047" xlink:href="#DejaVuSans-30"/>
       <use x="127.246094" xlink:href="#DejaVuSans-30"/>
      </g>
     </g>
    </g>
    <g id="text_44">
     <!-- Percentage of population aged 16+ -->
     <g transform="translate(556.085938 307.106875)rotate(-90)scale(0.1 -0.1)">
      <defs>
       <path d="M 2375 4863 
L 2375 4384 
L 1825 4384 
Q 1516 4384 1395 4259 
Q 1275 4134 1275 3809 
L 1275 3500 
L 2222 3500 
L 2222 3053 
L 1275 3053 
L 1275 0 
L 697 0 
L 697 3053 
L 147 3053 
L 147 3500 
L 697 3500 
L 697 3744 
Q 697 4328 969 4595 
Q 1241 4863 1831 4863 
L 2375 4863 
z
" id="DejaVuSans-66" transform="scale(0.015625)"/>
       <path d="M 2944 4013 
L 2944 2272 
L 4684 2272 
L 4684 1741 
L 2944 1741 
L 2944 0 
L 2419 0 
L 2419 1741 
L 678 1741 
L 678 2272 
L 2419 2272 
L 2419 4013 
L 2944 4013 
z
" id="DejaVuSans-2b" transform="scale(0.015625)"/>
      </defs>
      <use xlink:href="#DejaVuSans-50"/>
      <use x="56.677734" xlink:href="#DejaVuSans-65"/>
      <use x="118.201172" xlink:href="#DejaVuSans-72"/>
      <use x="157.064453" xlink:href="#DejaVuSans-63"/>
      <use x="212.044922" xlink:href="#DejaVuSans-65"/>
      <use x="273.568359" xlink:href="#DejaVuSans-6e"/>
      <use x="336.947266" xlink:href="#DejaVuSans-74"/>
      <use x="376.15625" xlink:href="#DejaVuSans-61"/>
      <use x="437.435547" xlink:href="#DejaVuSans-67"/>
      <use x="500.912109" xlink:href="#DejaVuSans-65"/>
      <use x="562.435547" xlink:href="#DejaVuSans-20"/>
      <use x="594.222656" xlink:href="#DejaVuSans-6f"/>
      <use x="655.404297" xlink:href="#DejaVuSans-66"/>
      <use x="690.609375" xlink:href="#DejaVuSans-20"/>
      <use x="722.396484" xlink:href="#DejaVuSans-70"/>
      <use x="785.873047" xlink:href="#DejaVuSans-6f"/>
      <use x="847.054688" xlink:href="#DejaVuSans-70"/>
      <use x="910.53125" xlink:href="#DejaVuSans-75"/>
      <use x="973.910156" xlink:href="#DejaVuSans-6c"/>
      <use x="1001.693359" xlink:href="#DejaVuSans-61"/>
      <use x="1062.972656" xlink:href="#DejaVuSans-74"/>
      <use x="1102.181641" xlink:href="#DejaVuSans-69"/>
      <use x="1129.964844" xlink:href="#DejaVuSans-6f"/>
      <use x="1191.146484" xlink:href="#DejaVuSans-6e"/>
      <use x="1254.525391" xlink:href="#DejaVuSans-20"/>
      <use x="1286.3125" xlink:href="#DejaVuSans-61"/>
      <use x="1347.591797" xlink:href="#DejaVuSans-67"/>
      <use x="1411.068359" xlink:href="#DejaVuSans-65"/>
      <use x="1472.591797" xlink:href="#DejaVuSans-64"/>
      <use x="1536.068359" xlink:href="#DejaVuSans-20"/>
      <use x="1567.855469" xlink:href="#DejaVuSans-31"/>
      <use x="1631.478516" xlink:href="#DejaVuSans-36"/>
      <use x="1695.101562" xlink:href="#DejaVuSans-2b"/>
     </g>
    </g>
   </g>
   <g id="patch_11">
    <path d="M 72 384.48 
L 72 51.84 
" style="fill:none;stroke:#000000;stroke-linecap:square;stroke-linejoin:miter;stroke-width:0.8;"/>
   </g>
   <g id="patch_12">
    <path d="M 518.4 384.48 
L 518.4 51.84 
" style="fill:none;stroke:#000000;stroke-linecap:square;stroke-linejoin:miter;stroke-width:0.8;"/>
   </g>
   <g id="patch_13">
    <path d="M 72 384.48 
L 518.4 384.48 
" style="fill:none;stroke:#000000;stroke-linecap:square;stroke-linejoin:miter;stroke-width:0.8;"/>
   </g>
   <g id="patch_14">
    <path d="M 72 51.84 
L 518.4 51.84 
" style="fill:none;stroke:#000000;stroke-linecap:square;stroke-linejoin:miter;stroke-width:0.8;"/>
   </g>
  </g>
 </g>
 <defs>
  <clipPath id="p7c868e002f">
   <rect height="332.64" width="446.4" x="72" y="51.84"/>
  </clipPath>
 </defs>
</svg>
