<?xml version="1.0" encoding="utf-8" standalone="no"?>
<!DOCTYPE svg PUBLIC "-//W3C//DTD SVG 1.1//EN"
  "http://www.w3.org/Graphics/SVG/1.1/DTD/svg11.dtd">
<svg height="432pt" version="1.1" viewBox="0 0 576 432" width="576pt" xmlns="http://www.w3.org/2000/svg" xmlns:xlink="http://www.w3.org/1999/xlink">
 <metadata>
  <rdf:RDF xmlns:cc="http://creativecommons.org/ns#" xmlns:dc="http://purl.org/dc/elements/1.1/" xmlns:rdf="http://www.w3.org/1999/02/22-rdf-syntax-ns#">
   <cc:Work>
    <dc:type rdf:resource="http://purl.org/dc/dcmitype/StillImage"/>
    <dc:date>2021-06-12T13:35:10.578126</dc:date>
    <dc:format>image/svg+xml</dc:format>
    <dc:creator>
     <cc:Agent>
      <dc:title>Matplotlib v3.4.1, https://matplotlib.org/</dc:title>
     </cc:Agent>
    </dc:creator>
   </cc:Work>
  </rdf:RDF>
 </metadata>
 <defs>
  <style type="text/css">*{stroke-linecap:butt;stroke-linejoin:round;}</style>
 </defs>
 <g id="figure_1">
  <g id="patch_1">
   <path d="M 0 432 
L 576 432 
L 576 0 
L 0 0 
z
" style="fill:#ffffff;"/>
  </g>
  <g id="axes_1">
   <g id="patch_2">
    <path d="M 72 384.48 
L 518.4 384.48 
L 518.4 51.84 
L 72 51.84 
z
" style="fill:#ffffff;"/>
   </g>
   <g id="PolyCollection_1">
    <defs>
     <path d="M 112.061538 -47.52 
L 70.569231 -47.52 
L 70.569231 -380.16 
L 112.061538 -380.16 
L 112.061538 -380.16 
L 112.061538 -47.52 
z
" id="ma4807faefe"/>
    </defs>
    <g clip-path="url(#p274a693865)">
     <use style="fill:#ff0000;fill-opacity:0.35;" x="0" xlink:href="#ma4807faefe" y="432"/>
    </g>
   </g>
   <g id="PolyCollection_2">
    <defs>
     <path d="M 172.153846 -47.52 
L 112.061538 -47.52 
L 112.061538 -380.16 
L 172.153846 -380.16 
L 172.153846 -380.16 
L 172.153846 -47.52 
z
" id="m3db66308d3"/>
    </defs>
    <g clip-path="url(#p274a693865)">
     <use style="fill:#ffa500;fill-opacity:0.35;" x="0" xlink:href="#m3db66308d3" y="432"/>
    </g>
   </g>
   <g id="PolyCollection_3">
    <defs>
     <path d="M 256.569231 -47.52 
L 172.153846 -47.52 
L 172.153846 -380.16 
L 256.569231 -380.16 
L 256.569231 -380.16 
L 256.569231 -47.52 
z
" id="mf66b452179"/>
    </defs>
    <g clip-path="url(#p274a693865)">
     <use style="fill:#ffff00;fill-opacity:0.35;" x="0" xlink:href="#mf66b452179" y="432"/>
    </g>
   </g>
   <g id="PolyCollection_4">
    <defs>
     <path d="M 258 -47.52 
L 256.569231 -47.52 
L 256.569231 -380.16 
L 258 -380.16 
L 258 -380.16 
L 258 -47.52 
z
" id="m1bf8e50ea6"/>
    </defs>
    <g clip-path="url(#p274a693865)">
     <use style="fill:#ffff00;fill-opacity:0.3;" x="0" xlink:href="#m1bf8e50ea6" y="432"/>
    </g>
   </g>
   <g id="PolyCollection_5">
    <defs>
     <path d="M 259.430769 -47.52 
L 258 -47.52 
L 258 -380.16 
L 259.430769 -380.16 
L 259.430769 -380.16 
L 259.430769 -47.52 
z
" id="m42f822f95c"/>
    </defs>
    <g clip-path="url(#p274a693865)">
     <use style="fill:#ffff00;fill-opacity:0.27;" x="0" xlink:href="#m42f822f95c" y="432"/>
    </g>
   </g>
   <g id="PolyCollection_6">
    <defs>
     <path d="M 260.861538 -47.52 
L 259.430769 -47.52 
L 259.430769 -380.16 
L 260.861538 -380.16 
L 260.861538 -380.16 
L 260.861538 -47.52 
z
" id="m38fab05cc4"/>
    </defs>
    <g clip-path="url(#p274a693865)">
     <use style="fill:#ffff00;fill-opacity:0.24;" x="0" xlink:href="#m38fab05cc4" y="432"/>
    </g>
   </g>
   <g id="PolyCollection_7">
    <defs>
     <path d="M 262.292308 -47.52 
L 260.861538 -47.52 
L 260.861538 -380.16 
L 262.292308 -380.16 
L 262.292308 -380.16 
L 262.292308 -47.52 
z
" id="m8b89ee0614"/>
    </defs>
    <g clip-path="url(#p274a693865)">
     <use style="fill:#ffff00;fill-opacity:0.21;" x="0" xlink:href="#m8b89ee0614" y="432"/>
    </g>
   </g>
   <g id="PolyCollection_8">
    <defs>
     <path d="M 263.723077 -47.52 
L 262.292308 -47.52 
L 262.292308 -380.16 
L 263.723077 -380.16 
L 263.723077 -380.16 
L 263.723077 -47.52 
z
" id="mcc62bc3f40"/>
    </defs>
    <g clip-path="url(#p274a693865)">
     <use style="fill:#ffff00;fill-opacity:0.18;" x="0" xlink:href="#mcc62bc3f40" y="432"/>
    </g>
   </g>
   <g id="PolyCollection_9">
    <defs>
     <path d="M 265.153846 -47.52 
L 263.723077 -47.52 
L 263.723077 -380.16 
L 265.153846 -380.16 
L 265.153846 -380.16 
L 265.153846 -47.52 
z
" id="m665c069540"/>
    </defs>
    <g clip-path="url(#p274a693865)">
     <use style="fill:#ffff00;fill-opacity:0.15;" x="0" xlink:href="#m665c069540" y="432"/>
    </g>
   </g>
   <g id="PolyCollection_10">
    <defs>
     <path d="M 266.584615 -47.52 
L 265.153846 -47.52 
L 265.153846 -380.16 
L 266.584615 -380.16 
L 266.584615 -380.16 
L 266.584615 -47.52 
z
" id="mb010a54758"/>
    </defs>
    <g clip-path="url(#p274a693865)">
     <use style="fill:#ffff00;fill-opacity:0.12;" x="0" xlink:href="#mb010a54758" y="432"/>
    </g>
   </g>
   <g id="PolyCollection_11">
    <defs>
     <path d="M 268.015385 -47.52 
L 266.584615 -47.52 
L 266.584615 -380.16 
L 268.015385 -380.16 
L 268.015385 -380.16 
L 268.015385 -47.52 
z
" id="m1c93f285b4"/>
    </defs>
    <g clip-path="url(#p274a693865)">
     <use style="fill:#ffff00;fill-opacity:0.09;" x="0" xlink:href="#m1c93f285b4" y="432"/>
    </g>
   </g>
   <g id="PolyCollection_12">
    <defs>
     <path d="M 269.446154 -47.52 
L 268.015385 -47.52 
L 268.015385 -380.16 
L 269.446154 -380.16 
L 269.446154 -380.16 
L 269.446154 -47.52 
z
" id="me452afa8c0"/>
    </defs>
    <g clip-path="url(#p274a693865)">
     <use style="fill:#ffff00;fill-opacity:0.06;" x="0" xlink:href="#me452afa8c0" y="432"/>
    </g>
   </g>
   <g id="PolyCollection_13">
    <defs>
     <path d="M 270.876923 -47.52 
L 269.446154 -47.52 
L 269.446154 -380.16 
L 270.876923 -380.16 
L 270.876923 -380.16 
L 270.876923 -47.52 
z
" id="mec656b4bac"/>
    </defs>
    <g clip-path="url(#p274a693865)">
     <use style="fill:#ffff00;fill-opacity:0.03;" x="0" xlink:href="#mec656b4bac" y="432"/>
    </g>
   </g>
   <g id="matplotlib.axis_1">
    <g id="xtick_1">
     <g id="line2d_1">
      <path clip-path="url(#p274a693865)" d="M 82.015385 384.48 
L 82.015385 51.84 
" style="fill:none;stroke:#000000;stroke-dasharray:0.8,1.32;stroke-dashoffset:0;stroke-width:0.8;"/>
     </g>
     <g id="line2d_2">
      <defs>
       <path d="M 0 0 
L 0 3.5 
" id="mc75ba52962" style="stroke:#000000;stroke-width:0.8;"/>
      </defs>
      <g>
       <use style="stroke:#000000;stroke-width:0.8;" x="82.015385" xlink:href="#mc75ba52962" y="384.48"/>
      </g>
     </g>
     <g id="text_1">
      <!-- Mar -->
      <g transform="translate(72.581791 399.078438)scale(0.1 -0.1)">
       <defs>
        <path d="M 628 4666 
L 1569 4666 
L 2759 1491 
L 3956 4666 
L 4897 4666 
L 4897 0 
L 4281 0 
L 4281 4097 
L 3078 897 
L 2444 897 
L 1241 4097 
L 1241 0 
L 628 0 
L 628 4666 
z
" id="DejaVuSans-4d" transform="scale(0.015625)"/>
        <path d="M 2194 1759 
Q 1497 1759 1228 1600 
Q 959 1441 959 1056 
Q 959 750 1161 570 
Q 1363 391 1709 391 
Q 2188 391 2477 730 
Q 2766 1069 2766 1631 
L 2766 1759 
L 2194 1759 
z
M 3341 1997 
L 3341 0 
L 2766 0 
L 2766 531 
Q 2569 213 2275 61 
Q 1981 -91 1556 -91 
Q 1019 -91 701 211 
Q 384 513 384 1019 
Q 384 1609 779 1909 
Q 1175 2209 1959 2209 
L 2766 2209 
L 2766 2266 
Q 2766 2663 2505 2880 
Q 2244 3097 1772 3097 
Q 1472 3097 1187 3025 
Q 903 2953 641 2809 
L 641 3341 
Q 956 3463 1253 3523 
Q 1550 3584 1831 3584 
Q 2591 3584 2966 3190 
Q 3341 2797 3341 1997 
z
" id="DejaVuSans-61" transform="scale(0.015625)"/>
        <path d="M 2631 2963 
Q 2534 3019 2420 3045 
Q 2306 3072 2169 3072 
Q 1681 3072 1420 2755 
Q 1159 2438 1159 1844 
L 1159 0 
L 581 0 
L 581 3500 
L 1159 3500 
L 1159 2956 
Q 1341 3275 1631 3429 
Q 1922 3584 2338 3584 
Q 2397 3584 2469 3576 
Q 2541 3569 2628 3553 
L 2631 2963 
z
" id="DejaVuSans-72" transform="scale(0.015625)"/>
       </defs>
       <use xlink:href="#DejaVuSans-4d"/>
       <use x="86.279297" xlink:href="#DejaVuSans-61"/>
       <use x="147.558594" xlink:href="#DejaVuSans-72"/>
      </g>
     </g>
    </g>
    <g id="xtick_2">
     <g id="line2d_3">
      <path clip-path="url(#p274a693865)" d="M 126.369231 384.48 
L 126.369231 51.84 
" style="fill:none;stroke:#000000;stroke-dasharray:0.8,1.32;stroke-dashoffset:0;stroke-width:0.8;"/>
     </g>
     <g id="line2d_4">
      <g>
       <use style="stroke:#000000;stroke-width:0.8;" x="126.369231" xlink:href="#mc75ba52962" y="384.48"/>
      </g>
     </g>
     <g id="text_2">
      <!-- Apr -->
      <g transform="translate(117.719231 399.078438)scale(0.1 -0.1)">
       <defs>
        <path d="M 2188 4044 
L 1331 1722 
L 3047 1722 
L 2188 4044 
z
M 1831 4666 
L 2547 4666 
L 4325 0 
L 3669 0 
L 3244 1197 
L 1141 1197 
L 716 0 
L 50 0 
L 1831 4666 
z
" id="DejaVuSans-41" transform="scale(0.015625)"/>
        <path d="M 1159 525 
L 1159 -1331 
L 581 -1331 
L 581 3500 
L 1159 3500 
L 1159 2969 
Q 1341 3281 1617 3432 
Q 1894 3584 2278 3584 
Q 2916 3584 3314 3078 
Q 3713 2572 3713 1747 
Q 3713 922 3314 415 
Q 2916 -91 2278 -91 
Q 1894 -91 1617 61 
Q 1341 213 1159 525 
z
M 3116 1747 
Q 3116 2381 2855 2742 
Q 2594 3103 2138 3103 
Q 1681 3103 1420 2742 
Q 1159 2381 1159 1747 
Q 1159 1113 1420 752 
Q 1681 391 2138 391 
Q 2594 391 2855 752 
Q 3116 1113 3116 1747 
z
" id="DejaVuSans-70" transform="scale(0.015625)"/>
       </defs>
       <use xlink:href="#DejaVuSans-41"/>
       <use x="68.408203" xlink:href="#DejaVuSans-70"/>
       <use x="131.884766" xlink:href="#DejaVuSans-72"/>
      </g>
     </g>
    </g>
    <g id="xtick_3">
     <g id="line2d_5">
      <path clip-path="url(#p274a693865)" d="M 169.292308 384.48 
L 169.292308 51.84 
" style="fill:none;stroke:#000000;stroke-dasharray:0.8,1.32;stroke-dashoffset:0;stroke-width:0.8;"/>
     </g>
     <g id="line2d_6">
      <g>
       <use style="stroke:#000000;stroke-width:0.8;" x="169.292308" xlink:href="#mc75ba52962" y="384.48"/>
      </g>
     </g>
     <g id="text_3">
      <!-- May -->
      <g transform="translate(158.954808 399.078438)scale(0.1 -0.1)">
       <defs>
        <path d="M 2059 -325 
Q 1816 -950 1584 -1140 
Q 1353 -1331 966 -1331 
L 506 -1331 
L 506 -850 
L 844 -850 
Q 1081 -850 1212 -737 
Q 1344 -625 1503 -206 
L 1606 56 
L 191 3500 
L 800 3500 
L 1894 763 
L 2988 3500 
L 3597 3500 
L 2059 -325 
z
" id="DejaVuSans-79" transform="scale(0.015625)"/>
       </defs>
       <use xlink:href="#DejaVuSans-4d"/>
       <use x="86.279297" xlink:href="#DejaVuSans-61"/>
       <use x="147.558594" xlink:href="#DejaVuSans-79"/>
      </g>
     </g>
    </g>
    <g id="xtick_4">
     <g id="line2d_7">
      <path clip-path="url(#p274a693865)" d="M 213.646154 384.48 
L 213.646154 51.84 
" style="fill:none;stroke:#000000;stroke-dasharray:0.8,1.32;stroke-dashoffset:0;stroke-width:0.8;"/>
     </g>
     <g id="line2d_8">
      <g>
       <use style="stroke:#000000;stroke-width:0.8;" x="213.646154" xlink:href="#mc75ba52962" y="384.48"/>
      </g>
     </g>
     <g id="text_4">
      <!-- Jun -->
      <g transform="translate(205.833654 399.078438)scale(0.1 -0.1)">
       <defs>
        <path d="M 628 4666 
L 1259 4666 
L 1259 325 
Q 1259 -519 939 -900 
Q 619 -1281 -91 -1281 
L -331 -1281 
L -331 -750 
L -134 -750 
Q 284 -750 456 -515 
Q 628 -281 628 325 
L 628 4666 
z
" id="DejaVuSans-4a" transform="scale(0.015625)"/>
        <path d="M 544 1381 
L 544 3500 
L 1119 3500 
L 1119 1403 
Q 1119 906 1312 657 
Q 1506 409 1894 409 
Q 2359 409 2629 706 
Q 2900 1003 2900 1516 
L 2900 3500 
L 3475 3500 
L 3475 0 
L 2900 0 
L 2900 538 
Q 2691 219 2414 64 
Q 2138 -91 1772 -91 
Q 1169 -91 856 284 
Q 544 659 544 1381 
z
M 1991 3584 
L 1991 3584 
z
" id="DejaVuSans-75" transform="scale(0.015625)"/>
        <path d="M 3513 2113 
L 3513 0 
L 2938 0 
L 2938 2094 
Q 2938 2591 2744 2837 
Q 2550 3084 2163 3084 
Q 1697 3084 1428 2787 
Q 1159 2491 1159 1978 
L 1159 0 
L 581 0 
L 581 3500 
L 1159 3500 
L 1159 2956 
Q 1366 3272 1645 3428 
Q 1925 3584 2291 3584 
Q 2894 3584 3203 3211 
Q 3513 2838 3513 2113 
z
" id="DejaVuSans-6e" transform="scale(0.015625)"/>
       </defs>
       <use xlink:href="#DejaVuSans-4a"/>
       <use x="29.492188" xlink:href="#DejaVuSans-75"/>
       <use x="92.871094" xlink:href="#DejaVuSans-6e"/>
      </g>
     </g>
    </g>
    <g id="xtick_5">
     <g id="line2d_9">
      <path clip-path="url(#p274a693865)" d="M 256.569231 384.48 
L 256.569231 51.84 
" style="fill:none;stroke:#000000;stroke-dasharray:0.8,1.32;stroke-dashoffset:0;stroke-width:0.8;"/>
     </g>
     <g id="line2d_10">
      <g>
       <use style="stroke:#000000;stroke-width:0.8;" x="256.569231" xlink:href="#mc75ba52962" y="384.48"/>
      </g>
     </g>
     <g id="text_5">
      <!-- Jul -->
      <g transform="translate(250.536418 399.078438)scale(0.1 -0.1)">
       <defs>
        <path d="M 603 4863 
L 1178 4863 
L 1178 0 
L 603 0 
L 603 4863 
z
" id="DejaVuSans-6c" transform="scale(0.015625)"/>
       </defs>
       <use xlink:href="#DejaVuSans-4a"/>
       <use x="29.492188" xlink:href="#DejaVuSans-75"/>
       <use x="92.871094" xlink:href="#DejaVuSans-6c"/>
      </g>
     </g>
    </g>
    <g id="xtick_6">
     <g id="line2d_11">
      <path clip-path="url(#p274a693865)" d="M 300.923077 384.48 
L 300.923077 51.84 
" style="fill:none;stroke:#000000;stroke-dasharray:0.8,1.32;stroke-dashoffset:0;stroke-width:0.8;"/>
     </g>
     <g id="line2d_12">
      <g>
       <use style="stroke:#000000;stroke-width:0.8;" x="300.923077" xlink:href="#mc75ba52962" y="384.48"/>
      </g>
     </g>
     <g id="text_6">
      <!-- Aug -->
      <g transform="translate(291.159796 399.078438)scale(0.1 -0.1)">
       <defs>
        <path d="M 2906 1791 
Q 2906 2416 2648 2759 
Q 2391 3103 1925 3103 
Q 1463 3103 1205 2759 
Q 947 2416 947 1791 
Q 947 1169 1205 825 
Q 1463 481 1925 481 
Q 2391 481 2648 825 
Q 2906 1169 2906 1791 
z
M 3481 434 
Q 3481 -459 3084 -895 
Q 2688 -1331 1869 -1331 
Q 1566 -1331 1297 -1286 
Q 1028 -1241 775 -1147 
L 775 -588 
Q 1028 -725 1275 -790 
Q 1522 -856 1778 -856 
Q 2344 -856 2625 -561 
Q 2906 -266 2906 331 
L 2906 616 
Q 2728 306 2450 153 
Q 2172 0 1784 0 
Q 1141 0 747 490 
Q 353 981 353 1791 
Q 353 2603 747 3093 
Q 1141 3584 1784 3584 
Q 2172 3584 2450 3431 
Q 2728 3278 2906 2969 
L 2906 3500 
L 3481 3500 
L 3481 434 
z
" id="DejaVuSans-67" transform="scale(0.015625)"/>
       </defs>
       <use xlink:href="#DejaVuSans-41"/>
       <use x="68.408203" xlink:href="#DejaVuSans-75"/>
       <use x="131.787109" xlink:href="#DejaVuSans-67"/>
      </g>
     </g>
    </g>
    <g id="xtick_7">
     <g id="line2d_13">
      <path clip-path="url(#p274a693865)" d="M 345.276923 384.48 
L 345.276923 51.84 
" style="fill:none;stroke:#000000;stroke-dasharray:0.8,1.32;stroke-dashoffset:0;stroke-width:0.8;"/>
     </g>
     <g id="line2d_14">
      <g>
       <use style="stroke:#000000;stroke-width:0.8;" x="345.276923" xlink:href="#mc75ba52962" y="384.48"/>
      </g>
     </g>
     <g id="text_7">
      <!-- Sep -->
      <g transform="translate(335.851923 399.078438)scale(0.1 -0.1)">
       <defs>
        <path d="M 3425 4513 
L 3425 3897 
Q 3066 4069 2747 4153 
Q 2428 4238 2131 4238 
Q 1616 4238 1336 4038 
Q 1056 3838 1056 3469 
Q 1056 3159 1242 3001 
Q 1428 2844 1947 2747 
L 2328 2669 
Q 3034 2534 3370 2195 
Q 3706 1856 3706 1288 
Q 3706 609 3251 259 
Q 2797 -91 1919 -91 
Q 1588 -91 1214 -16 
Q 841 59 441 206 
L 441 856 
Q 825 641 1194 531 
Q 1563 422 1919 422 
Q 2459 422 2753 634 
Q 3047 847 3047 1241 
Q 3047 1584 2836 1778 
Q 2625 1972 2144 2069 
L 1759 2144 
Q 1053 2284 737 2584 
Q 422 2884 422 3419 
Q 422 4038 858 4394 
Q 1294 4750 2059 4750 
Q 2388 4750 2728 4690 
Q 3069 4631 3425 4513 
z
" id="DejaVuSans-53" transform="scale(0.015625)"/>
        <path d="M 3597 1894 
L 3597 1613 
L 953 1613 
Q 991 1019 1311 708 
Q 1631 397 2203 397 
Q 2534 397 2845 478 
Q 3156 559 3463 722 
L 3463 178 
Q 3153 47 2828 -22 
Q 2503 -91 2169 -91 
Q 1331 -91 842 396 
Q 353 884 353 1716 
Q 353 2575 817 3079 
Q 1281 3584 2069 3584 
Q 2775 3584 3186 3129 
Q 3597 2675 3597 1894 
z
M 3022 2063 
Q 3016 2534 2758 2815 
Q 2500 3097 2075 3097 
Q 1594 3097 1305 2825 
Q 1016 2553 972 2059 
L 3022 2063 
z
" id="DejaVuSans-65" transform="scale(0.015625)"/>
       </defs>
       <use xlink:href="#DejaVuSans-53"/>
       <use x="63.476562" xlink:href="#DejaVuSans-65"/>
       <use x="125" xlink:href="#DejaVuSans-70"/>
      </g>
     </g>
    </g>
    <g id="xtick_8">
     <g id="line2d_15">
      <path clip-path="url(#p274a693865)" d="M 388.2 384.48 
L 388.2 51.84 
" style="fill:none;stroke:#000000;stroke-dasharray:0.8,1.32;stroke-dashoffset:0;stroke-width:0.8;"/>
     </g>
     <g id="line2d_16">
      <g>
       <use style="stroke:#000000;stroke-width:0.8;" x="388.2" xlink:href="#mc75ba52962" y="384.48"/>
      </g>
     </g>
     <g id="text_8">
      <!-- Oct -->
      <g transform="translate(379.554688 399.078438)scale(0.1 -0.1)">
       <defs>
        <path d="M 2522 4238 
Q 1834 4238 1429 3725 
Q 1025 3213 1025 2328 
Q 1025 1447 1429 934 
Q 1834 422 2522 422 
Q 3209 422 3611 934 
Q 4013 1447 4013 2328 
Q 4013 3213 3611 3725 
Q 3209 4238 2522 4238 
z
M 2522 4750 
Q 3503 4750 4090 4092 
Q 4678 3434 4678 2328 
Q 4678 1225 4090 567 
Q 3503 -91 2522 -91 
Q 1538 -91 948 565 
Q 359 1222 359 2328 
Q 359 3434 948 4092 
Q 1538 4750 2522 4750 
z
" id="DejaVuSans-4f" transform="scale(0.015625)"/>
        <path d="M 3122 3366 
L 3122 2828 
Q 2878 2963 2633 3030 
Q 2388 3097 2138 3097 
Q 1578 3097 1268 2742 
Q 959 2388 959 1747 
Q 959 1106 1268 751 
Q 1578 397 2138 397 
Q 2388 397 2633 464 
Q 2878 531 3122 666 
L 3122 134 
Q 2881 22 2623 -34 
Q 2366 -91 2075 -91 
Q 1284 -91 818 406 
Q 353 903 353 1747 
Q 353 2603 823 3093 
Q 1294 3584 2113 3584 
Q 2378 3584 2631 3529 
Q 2884 3475 3122 3366 
z
" id="DejaVuSans-63" transform="scale(0.015625)"/>
        <path d="M 1172 4494 
L 1172 3500 
L 2356 3500 
L 2356 3053 
L 1172 3053 
L 1172 1153 
Q 1172 725 1289 603 
Q 1406 481 1766 481 
L 2356 481 
L 2356 0 
L 1766 0 
Q 1100 0 847 248 
Q 594 497 594 1153 
L 594 3053 
L 172 3053 
L 172 3500 
L 594 3500 
L 594 4494 
L 1172 4494 
z
" id="DejaVuSans-74" transform="scale(0.015625)"/>
       </defs>
       <use xlink:href="#DejaVuSans-4f"/>
       <use x="78.710938" xlink:href="#DejaVuSans-63"/>
       <use x="133.691406" xlink:href="#DejaVuSans-74"/>
      </g>
     </g>
    </g>
    <g id="xtick_9">
     <g id="line2d_17">
      <path clip-path="url(#p274a693865)" d="M 432.553846 384.48 
L 432.553846 51.84 
" style="fill:none;stroke:#000000;stroke-dasharray:0.8,1.32;stroke-dashoffset:0;stroke-width:0.8;"/>
     </g>
     <g id="line2d_18">
      <g>
       <use style="stroke:#000000;stroke-width:0.8;" x="432.553846" xlink:href="#mc75ba52962" y="384.48"/>
      </g>
     </g>
     <g id="text_9">
      <!-- Nov -->
      <g transform="translate(422.794471 399.078438)scale(0.1 -0.1)">
       <defs>
        <path d="M 628 4666 
L 1478 4666 
L 3547 763 
L 3547 4666 
L 4159 4666 
L 4159 0 
L 3309 0 
L 1241 3903 
L 1241 0 
L 628 0 
L 628 4666 
z
" id="DejaVuSans-4e" transform="scale(0.015625)"/>
        <path d="M 1959 3097 
Q 1497 3097 1228 2736 
Q 959 2375 959 1747 
Q 959 1119 1226 758 
Q 1494 397 1959 397 
Q 2419 397 2687 759 
Q 2956 1122 2956 1747 
Q 2956 2369 2687 2733 
Q 2419 3097 1959 3097 
z
M 1959 3584 
Q 2709 3584 3137 3096 
Q 3566 2609 3566 1747 
Q 3566 888 3137 398 
Q 2709 -91 1959 -91 
Q 1206 -91 779 398 
Q 353 888 353 1747 
Q 353 2609 779 3096 
Q 1206 3584 1959 3584 
z
" id="DejaVuSans-6f" transform="scale(0.015625)"/>
        <path d="M 191 3500 
L 800 3500 
L 1894 563 
L 2988 3500 
L 3597 3500 
L 2284 0 
L 1503 0 
L 191 3500 
z
" id="DejaVuSans-76" transform="scale(0.015625)"/>
       </defs>
       <use xlink:href="#DejaVuSans-4e"/>
       <use x="74.804688" xlink:href="#DejaVuSans-6f"/>
       <use x="135.986328" xlink:href="#DejaVuSans-76"/>
      </g>
     </g>
    </g>
    <g id="xtick_10">
     <g id="line2d_19">
      <path clip-path="url(#p274a693865)" d="M 475.476923 384.48 
L 475.476923 51.84 
" style="fill:none;stroke:#000000;stroke-dasharray:0.8,1.32;stroke-dashoffset:0;stroke-width:0.8;"/>
     </g>
     <g id="line2d_20">
      <g>
       <use style="stroke:#000000;stroke-width:0.8;" x="475.476923" xlink:href="#mc75ba52962" y="384.48"/>
      </g>
     </g>
     <g id="text_10">
      <!-- Dec -->
      <g transform="translate(465.801142 399.078438)scale(0.1 -0.1)">
       <defs>
        <path d="M 1259 4147 
L 1259 519 
L 2022 519 
Q 2988 519 3436 956 
Q 3884 1394 3884 2338 
Q 3884 3275 3436 3711 
Q 2988 4147 2022 4147 
L 1259 4147 
z
M 628 4666 
L 1925 4666 
Q 3281 4666 3915 4102 
Q 4550 3538 4550 2338 
Q 4550 1131 3912 565 
Q 3275 0 1925 0 
L 628 0 
L 628 4666 
z
" id="DejaVuSans-44" transform="scale(0.015625)"/>
       </defs>
       <use xlink:href="#DejaVuSans-44"/>
       <use x="77.001953" xlink:href="#DejaVuSans-65"/>
       <use x="138.525391" xlink:href="#DejaVuSans-63"/>
      </g>
     </g>
    </g>
   </g>
   <g id="matplotlib.axis_2">
    <g id="ytick_1">
     <g id="line2d_21">
      <path clip-path="url(#p274a693865)" d="M 72 384.48 
L 518.4 384.48 
" style="fill:none;stroke:#000000;stroke-dasharray:0.8,1.32;stroke-dashoffset:0;stroke-width:0.8;"/>
     </g>
     <g id="line2d_22">
      <defs>
       <path d="M 0 0 
L -3.5 0 
" id="m6a523a1474" style="stroke:#000000;stroke-width:0.8;"/>
      </defs>
      <g>
       <use style="stroke:#000000;stroke-width:0.8;" x="72" xlink:href="#m6a523a1474" y="384.48"/>
      </g>
     </g>
     <g id="text_11">
      <!-- 0.0 -->
      <g transform="translate(49.096875 388.279219)scale(0.1 -0.1)">
       <defs>
        <path d="M 2034 4250 
Q 1547 4250 1301 3770 
Q 1056 3291 1056 2328 
Q 1056 1369 1301 889 
Q 1547 409 2034 409 
Q 2525 409 2770 889 
Q 3016 1369 3016 2328 
Q 3016 3291 2770 3770 
Q 2525 4250 2034 4250 
z
M 2034 4750 
Q 2819 4750 3233 4129 
Q 3647 3509 3647 2328 
Q 3647 1150 3233 529 
Q 2819 -91 2034 -91 
Q 1250 -91 836 529 
Q 422 1150 422 2328 
Q 422 3509 836 4129 
Q 1250 4750 2034 4750 
z
" id="DejaVuSans-30" transform="scale(0.015625)"/>
        <path d="M 684 794 
L 1344 794 
L 1344 0 
L 684 0 
L 684 794 
z
" id="DejaVuSans-2e" transform="scale(0.015625)"/>
       </defs>
       <use xlink:href="#DejaVuSans-30"/>
       <use x="63.623047" xlink:href="#DejaVuSans-2e"/>
       <use x="95.410156" xlink:href="#DejaVuSans-30"/>
      </g>
     </g>
    </g>
    <g id="ytick_2">
     <g id="line2d_23">
      <path clip-path="url(#p274a693865)" d="M 72 342.9 
L 518.4 342.9 
" style="fill:none;stroke:#000000;stroke-dasharray:0.8,1.32;stroke-dashoffset:0;stroke-width:0.8;"/>
     </g>
     <g id="line2d_24">
      <g>
       <use style="stroke:#000000;stroke-width:0.8;" x="72" xlink:href="#m6a523a1474" y="342.9"/>
      </g>
     </g>
     <g id="text_12">
      <!-- 2.5 -->
      <g transform="translate(49.096875 346.699219)scale(0.1 -0.1)">
       <defs>
        <path d="M 1228 531 
L 3431 531 
L 3431 0 
L 469 0 
L 469 531 
Q 828 903 1448 1529 
Q 2069 2156 2228 2338 
Q 2531 2678 2651 2914 
Q 2772 3150 2772 3378 
Q 2772 3750 2511 3984 
Q 2250 4219 1831 4219 
Q 1534 4219 1204 4116 
Q 875 4013 500 3803 
L 500 4441 
Q 881 4594 1212 4672 
Q 1544 4750 1819 4750 
Q 2544 4750 2975 4387 
Q 3406 4025 3406 3419 
Q 3406 3131 3298 2873 
Q 3191 2616 2906 2266 
Q 2828 2175 2409 1742 
Q 1991 1309 1228 531 
z
" id="DejaVuSans-32" transform="scale(0.015625)"/>
        <path d="M 691 4666 
L 3169 4666 
L 3169 4134 
L 1269 4134 
L 1269 2991 
Q 1406 3038 1543 3061 
Q 1681 3084 1819 3084 
Q 2600 3084 3056 2656 
Q 3513 2228 3513 1497 
Q 3513 744 3044 326 
Q 2575 -91 1722 -91 
Q 1428 -91 1123 -41 
Q 819 9 494 109 
L 494 744 
Q 775 591 1075 516 
Q 1375 441 1709 441 
Q 2250 441 2565 725 
Q 2881 1009 2881 1497 
Q 2881 1984 2565 2268 
Q 2250 2553 1709 2553 
Q 1456 2553 1204 2497 
Q 953 2441 691 2322 
L 691 4666 
z
" id="DejaVuSans-35" transform="scale(0.015625)"/>
       </defs>
       <use xlink:href="#DejaVuSans-32"/>
       <use x="63.623047" xlink:href="#DejaVuSans-2e"/>
       <use x="95.410156" xlink:href="#DejaVuSans-35"/>
      </g>
     </g>
    </g>
    <g id="ytick_3">
     <g id="line2d_25">
      <path clip-path="url(#p274a693865)" d="M 72 301.32 
L 518.4 301.32 
" style="fill:none;stroke:#000000;stroke-dasharray:0.8,1.32;stroke-dashoffset:0;stroke-width:0.8;"/>
     </g>
     <g id="line2d_26">
      <g>
       <use style="stroke:#000000;stroke-width:0.8;" x="72" xlink:href="#m6a523a1474" y="301.32"/>
      </g>
     </g>
     <g id="text_13">
      <!-- 5.0 -->
      <g transform="translate(49.096875 305.119219)scale(0.1 -0.1)">
       <use xlink:href="#DejaVuSans-35"/>
       <use x="63.623047" xlink:href="#DejaVuSans-2e"/>
       <use x="95.410156" xlink:href="#DejaVuSans-30"/>
      </g>
     </g>
    </g>
    <g id="ytick_4">
     <g id="line2d_27">
      <path clip-path="url(#p274a693865)" d="M 72 259.74 
L 518.4 259.74 
" style="fill:none;stroke:#000000;stroke-dasharray:0.8,1.32;stroke-dashoffset:0;stroke-width:0.8;"/>
     </g>
     <g id="line2d_28">
      <g>
       <use style="stroke:#000000;stroke-width:0.8;" x="72" xlink:href="#m6a523a1474" y="259.74"/>
      </g>
     </g>
     <g id="text_14">
      <!-- 7.5 -->
      <g transform="translate(49.096875 263.539219)scale(0.1 -0.1)">
       <defs>
        <path d="M 525 4666 
L 3525 4666 
L 3525 4397 
L 1831 0 
L 1172 0 
L 2766 4134 
L 525 4134 
L 525 4666 
z
" id="DejaVuSans-37" transform="scale(0.015625)"/>
       </defs>
       <use xlink:href="#DejaVuSans-37"/>
       <use x="63.623047" xlink:href="#DejaVuSans-2e"/>
       <use x="95.410156" xlink:href="#DejaVuSans-35"/>
      </g>
     </g>
    </g>
    <g id="ytick_5">
     <g id="line2d_29">
      <path clip-path="url(#p274a693865)" d="M 72 218.16 
L 518.4 218.16 
" style="fill:none;stroke:#000000;stroke-dasharray:0.8,1.32;stroke-dashoffset:0;stroke-width:0.8;"/>
     </g>
     <g id="line2d_30">
      <g>
       <use style="stroke:#000000;stroke-width:0.8;" x="72" xlink:href="#m6a523a1474" y="218.16"/>
      </g>
     </g>
     <g id="text_15">
      <!-- 10.0 -->
      <g transform="translate(42.734375 221.959219)scale(0.1 -0.1)">
       <defs>
        <path d="M 794 531 
L 1825 531 
L 1825 4091 
L 703 3866 
L 703 4441 
L 1819 4666 
L 2450 4666 
L 2450 531 
L 3481 531 
L 3481 0 
L 794 0 
L 794 531 
z
" id="DejaVuSans-31" transform="scale(0.015625)"/>
       </defs>
       <use xlink:href="#DejaVuSans-31"/>
       <use x="63.623047" xlink:href="#DejaVuSans-30"/>
       <use x="127.246094" xlink:href="#DejaVuSans-2e"/>
       <use x="159.033203" xlink:href="#DejaVuSans-30"/>
      </g>
     </g>
    </g>
    <g id="ytick_6">
     <g id="line2d_31">
      <path clip-path="url(#p274a693865)" d="M 72 176.58 
L 518.4 176.58 
" style="fill:none;stroke:#000000;stroke-dasharray:0.8,1.32;stroke-dashoffset:0;stroke-width:0.8;"/>
     </g>
     <g id="line2d_32">
      <g>
       <use style="stroke:#000000;stroke-width:0.8;" x="72" xlink:href="#m6a523a1474" y="176.58"/>
      </g>
     </g>
     <g id="text_16">
      <!-- 12.5 -->
      <g transform="translate(42.734375 180.379219)scale(0.1 -0.1)">
       <use xlink:href="#DejaVuSans-31"/>
       <use x="63.623047" xlink:href="#DejaVuSans-32"/>
       <use x="127.246094" xlink:href="#DejaVuSans-2e"/>
       <use x="159.033203" xlink:href="#DejaVuSans-35"/>
      </g>
     </g>
    </g>
    <g id="ytick_7">
     <g id="line2d_33">
      <path clip-path="url(#p274a693865)" d="M 72 135 
L 518.4 135 
" style="fill:none;stroke:#000000;stroke-dasharray:0.8,1.32;stroke-dashoffset:0;stroke-width:0.8;"/>
     </g>
     <g id="line2d_34">
      <g>
       <use style="stroke:#000000;stroke-width:0.8;" x="72" xlink:href="#m6a523a1474" y="135"/>
      </g>
     </g>
     <g id="text_17">
      <!-- 15.0 -->
      <g transform="translate(42.734375 138.799219)scale(0.1 -0.1)">
       <use xlink:href="#DejaVuSans-31"/>
       <use x="63.623047" xlink:href="#DejaVuSans-35"/>
       <use x="127.246094" xlink:href="#DejaVuSans-2e"/>
       <use x="159.033203" xlink:href="#DejaVuSans-30"/>
      </g>
     </g>
    </g>
    <g id="ytick_8">
     <g id="line2d_35">
      <path clip-path="url(#p274a693865)" d="M 72 93.42 
L 518.4 93.42 
" style="fill:none;stroke:#000000;stroke-dasharray:0.8,1.32;stroke-dashoffset:0;stroke-width:0.8;"/>
     </g>
     <g id="line2d_36">
      <g>
       <use style="stroke:#000000;stroke-width:0.8;" x="72" xlink:href="#m6a523a1474" y="93.42"/>
      </g>
     </g>
     <g id="text_18">
      <!-- 17.5 -->
      <g transform="translate(42.734375 97.219219)scale(0.1 -0.1)">
       <use xlink:href="#DejaVuSans-31"/>
       <use x="63.623047" xlink:href="#DejaVuSans-37"/>
       <use x="127.246094" xlink:href="#DejaVuSans-2e"/>
       <use x="159.033203" xlink:href="#DejaVuSans-35"/>
      </g>
     </g>
    </g>
    <g id="ytick_9">
     <g id="line2d_37">
      <path clip-path="url(#p274a693865)" d="M 72 51.84 
L 518.4 51.84 
" style="fill:none;stroke:#000000;stroke-dasharray:0.8,1.32;stroke-dashoffset:0;stroke-width:0.8;"/>
     </g>
     <g id="line2d_38">
      <g>
       <use style="stroke:#000000;stroke-width:0.8;" x="72" xlink:href="#m6a523a1474" y="51.84"/>
      </g>
     </g>
     <g id="text_19">
      <!-- 20.0 -->
      <g transform="translate(42.734375 55.639219)scale(0.1 -0.1)">
       <use xlink:href="#DejaVuSans-32"/>
       <use x="63.623047" xlink:href="#DejaVuSans-30"/>
       <use x="127.246094" xlink:href="#DejaVuSans-2e"/>
       <use x="159.033203" xlink:href="#DejaVuSans-30"/>
      </g>
     </g>
    </g>
    <g id="text_20">
     <!-- Cumulative doses (millions) -->
     <g transform="translate(36.654687 287.556094)rotate(-90)scale(0.1 -0.1)">
      <defs>
       <path d="M 4122 4306 
L 4122 3641 
Q 3803 3938 3442 4084 
Q 3081 4231 2675 4231 
Q 1875 4231 1450 3742 
Q 1025 3253 1025 2328 
Q 1025 1406 1450 917 
Q 1875 428 2675 428 
Q 3081 428 3442 575 
Q 3803 722 4122 1019 
L 4122 359 
Q 3791 134 3420 21 
Q 3050 -91 2638 -91 
Q 1578 -91 968 557 
Q 359 1206 359 2328 
Q 359 3453 968 4101 
Q 1578 4750 2638 4750 
Q 3056 4750 3426 4639 
Q 3797 4528 4122 4306 
z
" id="DejaVuSans-43" transform="scale(0.015625)"/>
       <path d="M 3328 2828 
Q 3544 3216 3844 3400 
Q 4144 3584 4550 3584 
Q 5097 3584 5394 3201 
Q 5691 2819 5691 2113 
L 5691 0 
L 5113 0 
L 5113 2094 
Q 5113 2597 4934 2840 
Q 4756 3084 4391 3084 
Q 3944 3084 3684 2787 
Q 3425 2491 3425 1978 
L 3425 0 
L 2847 0 
L 2847 2094 
Q 2847 2600 2669 2842 
Q 2491 3084 2119 3084 
Q 1678 3084 1418 2786 
Q 1159 2488 1159 1978 
L 1159 0 
L 581 0 
L 581 3500 
L 1159 3500 
L 1159 2956 
Q 1356 3278 1631 3431 
Q 1906 3584 2284 3584 
Q 2666 3584 2933 3390 
Q 3200 3197 3328 2828 
z
" id="DejaVuSans-6d" transform="scale(0.015625)"/>
       <path d="M 603 3500 
L 1178 3500 
L 1178 0 
L 603 0 
L 603 3500 
z
M 603 4863 
L 1178 4863 
L 1178 4134 
L 603 4134 
L 603 4863 
z
" id="DejaVuSans-69" transform="scale(0.015625)"/>
       <path id="DejaVuSans-20" transform="scale(0.015625)"/>
       <path d="M 2906 2969 
L 2906 4863 
L 3481 4863 
L 3481 0 
L 2906 0 
L 2906 525 
Q 2725 213 2448 61 
Q 2172 -91 1784 -91 
Q 1150 -91 751 415 
Q 353 922 353 1747 
Q 353 2572 751 3078 
Q 1150 3584 1784 3584 
Q 2172 3584 2448 3432 
Q 2725 3281 2906 2969 
z
M 947 1747 
Q 947 1113 1208 752 
Q 1469 391 1925 391 
Q 2381 391 2643 752 
Q 2906 1113 2906 1747 
Q 2906 2381 2643 2742 
Q 2381 3103 1925 3103 
Q 1469 3103 1208 2742 
Q 947 2381 947 1747 
z
" id="DejaVuSans-64" transform="scale(0.015625)"/>
       <path d="M 2834 3397 
L 2834 2853 
Q 2591 2978 2328 3040 
Q 2066 3103 1784 3103 
Q 1356 3103 1142 2972 
Q 928 2841 928 2578 
Q 928 2378 1081 2264 
Q 1234 2150 1697 2047 
L 1894 2003 
Q 2506 1872 2764 1633 
Q 3022 1394 3022 966 
Q 3022 478 2636 193 
Q 2250 -91 1575 -91 
Q 1294 -91 989 -36 
Q 684 19 347 128 
L 347 722 
Q 666 556 975 473 
Q 1284 391 1588 391 
Q 1994 391 2212 530 
Q 2431 669 2431 922 
Q 2431 1156 2273 1281 
Q 2116 1406 1581 1522 
L 1381 1569 
Q 847 1681 609 1914 
Q 372 2147 372 2553 
Q 372 3047 722 3315 
Q 1072 3584 1716 3584 
Q 2034 3584 2315 3537 
Q 2597 3491 2834 3397 
z
" id="DejaVuSans-73" transform="scale(0.015625)"/>
       <path d="M 1984 4856 
Q 1566 4138 1362 3434 
Q 1159 2731 1159 2009 
Q 1159 1288 1364 580 
Q 1569 -128 1984 -844 
L 1484 -844 
Q 1016 -109 783 600 
Q 550 1309 550 2009 
Q 550 2706 781 3412 
Q 1013 4119 1484 4856 
L 1984 4856 
z
" id="DejaVuSans-28" transform="scale(0.015625)"/>
       <path d="M 513 4856 
L 1013 4856 
Q 1481 4119 1714 3412 
Q 1947 2706 1947 2009 
Q 1947 1309 1714 600 
Q 1481 -109 1013 -844 
L 513 -844 
Q 928 -128 1133 580 
Q 1338 1288 1338 2009 
Q 1338 2731 1133 3434 
Q 928 4138 513 4856 
z
" id="DejaVuSans-29" transform="scale(0.015625)"/>
      </defs>
      <use xlink:href="#DejaVuSans-43"/>
      <use x="69.824219" xlink:href="#DejaVuSans-75"/>
      <use x="133.203125" xlink:href="#DejaVuSans-6d"/>
      <use x="230.615234" xlink:href="#DejaVuSans-75"/>
      <use x="293.994141" xlink:href="#DejaVuSans-6c"/>
      <use x="321.777344" xlink:href="#DejaVuSans-61"/>
      <use x="383.056641" xlink:href="#DejaVuSans-74"/>
      <use x="422.265625" xlink:href="#DejaVuSans-69"/>
      <use x="450.048828" xlink:href="#DejaVuSans-76"/>
      <use x="509.228516" xlink:href="#DejaVuSans-65"/>
      <use x="570.751953" xlink:href="#DejaVuSans-20"/>
      <use x="602.539062" xlink:href="#DejaVuSans-64"/>
      <use x="666.015625" xlink:href="#DejaVuSans-6f"/>
      <use x="727.197266" xlink:href="#DejaVuSans-73"/>
      <use x="779.296875" xlink:href="#DejaVuSans-65"/>
      <use x="840.820312" xlink:href="#DejaVuSans-73"/>
      <use x="892.919922" xlink:href="#DejaVuSans-20"/>
      <use x="924.707031" xlink:href="#DejaVuSans-28"/>
      <use x="963.720703" xlink:href="#DejaVuSans-6d"/>
      <use x="1061.132812" xlink:href="#DejaVuSans-69"/>
      <use x="1088.916016" xlink:href="#DejaVuSans-6c"/>
      <use x="1116.699219" xlink:href="#DejaVuSans-6c"/>
      <use x="1144.482422" xlink:href="#DejaVuSans-69"/>
      <use x="1172.265625" xlink:href="#DejaVuSans-6f"/>
      <use x="1233.447266" xlink:href="#DejaVuSans-6e"/>
      <use x="1296.826172" xlink:href="#DejaVuSans-73"/>
      <use x="1348.925781" xlink:href="#DejaVuSans-29"/>
     </g>
    </g>
   </g>
   <g id="line2d_39">
    <path clip-path="url(#p274a693865)" d="M 72 384.421334 
L 72 384.358979 
L 74.861538 384.292703 
L 74.861538 384.222268 
L 77.723077 384.14743 
L 77.723077 384.067939 
L 80.584615 383.983544 
L 80.584615 383.893994 
L 83.446154 383.799037 
L 83.446154 383.698428 
L 86.307692 383.591922 
L 86.307692 383.479281 
L 87.738462 383.479281 
L 87.738462 383.36027 
L 89.169231 383.36027 
L 89.169231 383.234648 
L 90.6 383.234648 
L 90.6 383.10216 
L 92.030769 383.10216 
L 92.030769 382.962529 
L 93.461538 382.962529 
L 93.461538 382.815427 
L 94.892308 382.815427 
L 94.892308 382.660459 
L 96.323077 382.660459 
L 96.323077 382.497135 
L 97.753846 382.497135 
L 97.753846 382.32484 
L 99.184615 382.32484 
L 99.184615 382.142811 
L 100.615385 382.142811 
L 100.615385 381.950119 
L 102.046154 381.950119 
L 102.046154 381.745652 
L 103.476923 381.745652 
L 103.476923 381.528121 
L 104.907692 381.528121 
L 104.907692 381.296078 
L 106.338462 381.296078 
L 106.338462 381.047952 
L 107.769231 381.047952 
L 107.769231 380.782099 
L 109.2 380.782099 
L 109.2 380.496877 
L 110.630769 380.496877 
L 110.630769 380.19072 
L 112.061538 380.19072 
L 112.061538 379.862229 
L 113.492308 379.862229 
L 113.492308 379.510263 
L 114.923077 379.510263 
L 114.923077 379.134011 
L 116.353846 379.134011 
L 116.353846 378.733048 
L 117.784615 378.733048 
L 117.784615 378.307367 
L 119.215385 378.307367 
L 119.215385 377.857388 
L 120.646154 377.857388 
L 120.646154 377.383925 
L 122.076923 377.383925 
L 122.076923 376.888131 
L 123.507692 376.888131 
L 123.507692 376.371416 
L 124.938462 376.371416 
L 124.938462 375.835346 
L 126.369231 375.835346 
L 126.369231 375.281538 
L 127.8 375.281538 
L 127.8 374.711559 
L 129.230769 374.711559 
L 129.230769 374.126833 
L 130.661538 374.126833 
L 130.661538 373.528573 
L 132.092308 373.528573 
L 132.092308 372.917741 
L 133.523077 372.917741 
L 133.523077 372.295034 
L 134.953846 372.295034 
L 134.953846 371.660903 
L 136.384615 371.660903 
L 136.384615 371.015592 
L 137.815385 371.015592 
L 137.815385 370.359204 
L 139.246154 370.359204 
L 139.246154 369.691771 
L 140.676923 369.691771 
L 140.676923 369.013328 
L 142.107692 369.013328 
L 142.107692 368.32399 
L 143.538462 368.32399 
L 143.538462 367.624011 
L 144.969231 367.624011 
L 144.969231 366.913831 
L 146.4 366.913831 
L 146.4 366.194102 
L 147.830769 366.194102 
L 147.830769 365.465697 
L 149.261538 365.465697 
L 149.261538 364.729687 
L 150.692308 364.729687 
L 150.692308 363.987314 
L 152.123077 363.987314 
L 152.123077 363.23993 
L 153.553846 363.23993 
L 153.553846 362.488926 
L 154.984615 362.488926 
L 154.984615 361.735654 
L 156.415385 361.735654 
L 156.415385 360.981341 
L 157.846154 360.981341 
L 157.846154 360.227007 
L 159.276923 360.227007 
L 159.276923 359.473391 
L 160.707692 359.473391 
L 160.707692 358.720894 
L 162.138462 358.720894 
L 162.138462 357.969551 
L 163.569231 357.969551 
L 163.569231 357.219015 
L 165 357.219015 
L 165 356.468582 
L 166.430769 356.468582 
L 166.430769 355.717233 
L 167.861538 355.717233 
L 167.861538 354.963697 
L 169.292308 354.963697 
L 169.292308 354.206532 
L 170.723077 354.206532 
L 170.723077 353.444212 
L 172.153846 353.444212 
L 172.153846 352.675205 
L 173.584615 352.675205 
L 173.584615 351.898045 
L 175.015385 351.898045 
L 175.015385 351.111387 
L 176.446154 351.111387 
L 176.446154 350.314038 
L 177.876923 350.314038 
L 177.876923 349.504965 
L 179.307692 349.504965 
L 179.307692 348.683283 
L 180.738462 348.683283 
L 180.738462 347.848224 
L 182.169231 347.848224 
L 182.169231 346.999095 
L 183.6 346.999095 
L 183.6 346.135235 
L 185.030769 346.135235 
L 185.030769 345.255959 
L 186.461538 345.255959 
L 186.461538 344.360521 
L 187.892308 344.360521 
L 187.892308 343.448078 
L 189.323077 343.448078 
L 189.323077 342.517669 
L 190.753846 342.517669 
L 190.753846 341.568201 
L 192.184615 341.568201 
L 192.184615 340.598455 
L 193.615385 340.598455 
L 193.615385 339.607088 
L 195.046154 339.607088 
L 195.046154 338.592659 
L 196.476923 338.592659 
L 196.476923 337.553646 
L 197.907692 337.553646 
L 197.907692 336.488482 
L 199.338462 336.488482 
L 199.338462 335.395584 
L 200.769231 335.395584 
L 200.769231 334.273391 
L 202.2 334.273391 
L 202.2 333.120404 
L 203.630769 333.120404 
L 203.630769 331.93523 
L 205.061538 331.93523 
L 205.061538 330.716631 
L 206.492308 330.716631 
L 206.492308 329.463563 
L 207.923077 329.463563 
L 207.923077 328.175224 
L 209.353846 328.175224 
L 209.353846 326.851095 
L 210.784615 326.851095 
L 210.784615 325.490981 
L 212.215385 325.490981 
L 212.215385 324.095043 
L 213.646154 324.095043 
L 213.646154 322.663825 
L 215.076923 322.663825 
L 215.076923 321.198272 
L 216.507692 321.198272 
L 216.507692 319.69974 
L 217.938462 319.69974 
L 217.938462 318.17 
L 219.369231 318.17 
L 219.369231 316.611225 
L 220.8 316.611225 
L 220.8 315.025969 
L 222.230769 315.025969 
L 222.230769 313.417134 
L 223.661538 313.417134 
L 223.661538 311.787923 
L 225.092308 311.787923 
L 225.092308 310.141774 
L 226.523077 310.141774 
L 226.523077 308.482287 
L 227.953846 308.482287 
L 227.953846 306.813124 
L 229.384615 306.813124 
L 229.384615 305.137917 
L 230.815385 305.137917 
L 230.815385 303.460155 
L 232.246154 303.460155 
L 232.246154 301.783079 
L 233.676923 301.783079 
L 233.676923 300.109583 
L 235.107692 300.109583 
L 235.107692 298.442136 
L 236.538462 298.442136 
L 236.538462 296.782717 
L 237.969231 296.782717 
L 237.969231 295.132787 
L 239.4 295.132787 
L 239.4 293.493287 
L 240.830769 293.493287 
L 240.830769 291.864664 
L 242.261538 291.864664 
L 242.261538 290.246929 
L 243.692308 290.246929 
L 243.692308 288.639726 
L 245.123077 288.639726 
L 245.123077 287.042425 
L 246.553846 287.042425 
L 246.553846 285.454211 
L 247.984615 285.454211 
L 247.984615 283.874174 
L 249.415385 283.874174 
L 249.415385 282.301383 
L 250.846154 282.301383 
L 250.846154 280.734952 
L 252.276923 280.734952 
L 252.276923 279.174082 
L 253.707692 279.174082 
L 253.707692 277.618084 
L 255.138462 277.618084 
L 255.138462 276.066391 
L 256.569231 276.066391 
L 256.569231 274.518549 
L 258 274.518549 
L 258 272.974195 
L 259.430769 272.974195 
L 259.430769 271.433038 
L 260.861538 271.433038 
L 260.861538 269.894827 
L 262.292308 269.894827 
L 262.292308 268.359323 
L 263.723077 268.359323 
L 263.723077 266.826275 
L 265.153846 266.826275 
L 265.153846 265.295394 
L 266.584615 265.295394 
L 266.584615 263.76634 
L 268.015385 263.76634 
L 268.015385 262.238707 
L 269.446154 262.238707 
L 269.446154 260.712023 
L 270.876923 260.712023 
L 270.876923 259.185744 
L 272.307692 259.185744 
L 272.307692 257.659262 
L 273.738462 257.659262 
L 273.738462 256.131909 
L 275.169231 256.131909 
L 275.169231 254.602973 
L 276.6 254.602973 
L 276.6 253.071712 
L 278.030769 253.071712 
L 278.030769 251.537373 
L 279.461538 251.537373 
L 279.461538 249.999217 
L 280.892308 249.999217 
L 280.892308 248.456535 
L 282.323077 248.456535 
L 282.323077 246.908684 
L 283.753846 246.908684 
L 283.753846 245.355105 
L 285.184615 245.355105 
L 285.184615 243.795355 
L 286.615385 243.795355 
L 286.615385 242.229141 
L 288.046154 242.229141 
L 288.046154 240.656342 
L 289.476923 240.656342 
L 289.476923 239.077048 
L 290.907692 239.077048 
L 290.907692 237.491587 
L 292.338462 237.491587 
L 292.338462 235.900552 
L 293.769231 235.900552 
L 293.769231 234.304826 
L 295.2 234.304826 
L 295.2 232.705604 
L 296.630769 232.705604 
L 296.630769 231.104405 
L 298.061538 231.104405 
L 298.061538 229.503075 
L 299.492308 229.503075 
L 299.492308 227.90378 
L 300.923077 227.90378 
L 300.923077 226.308985 
L 302.353846 226.308985 
L 302.353846 224.72142 
L 303.784615 224.72142 
L 303.784615 223.144031 
L 305.215385 223.144031 
L 305.215385 221.579916 
L 306.646154 221.579916 
L 306.646154 220.032254 
L 308.076923 220.032254 
L 308.076923 218.504218 
L 309.507692 218.504218 
L 309.507692 216.998892 
L 310.938462 216.998892 
L 310.938462 215.51918 
L 312.369231 215.51918 
L 312.369231 214.067729 
L 313.8 214.067729 
L 313.8 212.646855 
L 315.230769 212.646855 
L 315.230769 211.258486 
L 316.661538 211.258486 
L 316.661538 209.904128 
L 318.092308 209.904128 
L 318.092308 208.584836 
L 319.523077 208.584836 
L 319.523077 207.301221 
L 320.953846 207.301221 
L 320.953846 206.053461 
L 322.384615 206.053461 
L 322.384615 204.841339 
L 323.815385 204.841339 
L 323.815385 203.664276 
L 325.246154 203.664276 
L 325.246154 202.521396 
L 326.676923 202.521396 
L 326.676923 201.41157 
L 328.107692 201.41157 
L 328.107692 200.333479 
L 329.538462 200.333479 
L 329.538462 199.285667 
L 330.969231 199.285667 
L 330.969231 198.266588 
L 332.4 198.266588 
L 332.4 197.274652 
L 333.830769 197.274652 
L 333.830769 196.308259 
L 335.261538 196.308259 
L 335.261538 195.365827 
L 336.692308 195.365827 
L 336.692308 194.445817 
L 338.123077 194.445817 
L 338.123077 193.546745 
L 339.553846 193.546745 
L 339.553846 192.667198 
L 340.984615 192.667198 
L 340.984615 191.805833 
L 342.415385 191.805833 
L 342.415385 190.961388 
L 343.846154 190.961388 
L 343.846154 190.132676 
L 345.276923 190.132676 
L 345.276923 189.318587 
L 346.707692 189.318587 
L 346.707692 188.518087 
L 348.138462 188.518087 
L 348.138462 187.73021 
L 349.569231 187.73021 
L 349.569231 186.954057 
L 351 186.954057 
L 351 186.188792 
L 352.430769 186.188792 
L 352.430769 185.43364 
L 353.861538 185.43364 
L 353.861538 184.687876 
L 355.292308 184.687876 
L 355.292308 183.950831 
L 356.723077 183.950831 
L 356.723077 183.221882 
L 358.153846 183.221882 
L 358.153846 182.500451 
L 359.584615 182.500451 
L 359.584615 181.786 
L 361.015385 181.786 
L 361.015385 181.07803 
L 362.446154 181.07803 
L 362.446154 180.376073 
L 363.876923 180.376073 
L 363.876923 179.679694 
L 365.307692 179.679694 
L 365.307692 178.988484 
L 366.738462 178.988484 
L 366.738462 178.302055 
L 368.169231 178.302055 
L 368.169231 177.620039 
L 369.6 177.620039 
L 369.6 176.942075 
L 371.030769 176.942075 
L 371.030769 176.267804 
L 372.461538 176.267804 
L 372.461538 175.596858 
L 373.892308 175.596858 
L 373.892308 174.928841 
L 375.323077 174.928841 
L 375.323077 174.263316 
L 376.753846 174.263316 
L 376.753846 173.599777 
L 378.184615 173.599777 
L 378.184615 172.937624 
L 379.615385 172.937624 
L 379.615385 172.27613 
L 381.046154 172.27613 
L 381.046154 171.614401 
L 382.476923 171.614401 
L 382.476923 170.951342 
L 383.907692 170.951342 
L 383.907692 170.28561 
L 385.338462 170.28561 
L 385.338462 169.615579 
L 386.769231 169.615579 
L 386.769231 168.939304 
L 388.2 168.939304 
L 388.2 168.254499 
L 389.630769 168.254499 
L 389.630769 167.558522 
L 391.061538 167.558522 
L 391.061538 166.848383 
L 392.492308 166.848383 
L 392.492308 166.120767 
L 393.923077 166.120767 
L 393.923077 165.372082 
L 395.353846 165.372082 
L 395.353846 164.598529 
L 396.784615 164.598529 
L 396.784615 163.796185 
L 398.215385 163.796185 
L 398.215385 162.961111 
L 399.646154 162.961111 
L 399.646154 162.089462 
L 401.076923 162.089462 
L 401.076923 161.177603 
L 402.507692 161.177603 
L 402.507692 160.222225 
L 403.938462 160.222225 
L 403.938462 159.22044 
L 405.369231 159.22044 
L 405.369231 158.169864 
L 406.8 158.169864 
L 406.8 157.068677 
L 408.230769 157.068677 
L 408.230769 155.915654 
L 409.661538 155.915654 
L 409.661538 154.710172 
L 411.092308 154.710172 
L 411.092308 153.45219 
L 412.523077 153.45219 
L 412.523077 152.142206 
L 413.953846 152.142206 
L 413.953846 150.781203 
L 415.384615 150.781203 
L 415.384615 149.370572 
L 416.815385 149.370572 
L 416.815385 147.912041 
L 418.246154 147.912041 
L 418.246154 146.407596 
L 419.676923 146.407596 
L 419.676923 144.859402 
L 421.107692 144.859402 
L 421.107692 143.269738 
L 422.538462 143.269738 
L 422.538462 141.640938 
L 423.969231 141.640938 
L 423.969231 139.975339 
L 425.4 139.975339 
L 425.4 138.275242 
L 426.830769 138.275242 
L 426.830769 136.542883 
L 428.261538 136.542883 
L 428.261538 134.780409 
L 429.692308 134.780409 
L 429.692308 132.989866 
L 431.123077 132.989866 
L 431.123077 131.173188 
L 432.553846 131.173188 
L 432.553846 129.332199 
L 433.984615 129.332199 
L 433.984615 127.468606 
L 435.415385 127.468606 
L 435.415385 125.584007 
L 436.846154 125.584007 
L 436.846154 123.679891 
L 438.276923 123.679891 
L 438.276923 121.757646 
L 439.707692 121.757646 
L 439.707692 119.818563 
L 441.138462 119.818563 
L 441.138462 117.863844 
L 442.569231 117.863844 
L 442.569231 115.894606 
L 444 115.894606 
L 444 113.911894 
L 445.430769 113.911894 
L 445.430769 111.916685 
L 446.861538 111.916685 
L 446.861538 109.909895 
L 448.292308 109.909895 
L 448.292308 107.892389 
L 449.723077 107.892389 
L 449.723077 105.864996 
L 451.153846 105.864996 
L 451.153846 103.828525 
L 452.584615 103.828525 
L 452.584615 101.783788 
L 454.015385 101.783788 
L 454.015385 99.731621 
L 455.446154 99.731621 
L 455.446154 97.672922 
L 456.876923 97.672922 
L 456.876923 95.608704 
L 458.307692 95.608704 
L 458.307692 93.54015 
L 459.738462 93.54015 
L 459.738462 91.468683 
L 461.169231 91.468683 
L 461.169231 89.39606 
L 462.6 89.39606 
L 462.6 87.324464 
L 464.030769 87.324464 
L 464.030769 85.256616 
L 465.461538 85.256616 
L 465.461538 83.195887 
L 466.892308 83.195887 
L 466.892308 81.146405 
L 468.323077 81.146405 
L 468.323077 79.113151 
L 469.753846 79.113151 
L 469.753846 77.102026 
L 471.184615 77.102026 
L 471.184615 75.119877 
L 472.615385 75.119877 
L 472.615385 73.174472 
L 474.046154 73.174472 
L 474.046154 71.274407 
L 475.476923 71.274407 
L 475.476923 69.428947 
L 476.907692 69.428947 
L 476.907692 67.647788 
L 478.338462 67.647788 
L 478.338462 65.940721 
L 479.769231 65.940721 
L 479.769231 64.317322 
L 481.2 64.317322 
L 481.2 62.786531 
L 482.630769 62.786531 
L 482.630769 61.356251 
L 484.061538 61.356251 
L 484.061538 60.032964 
L 485.492308 60.032964 
L 485.492308 58.8214 
L 486.923077 58.8214 
L 486.923077 57.724287 
L 488.353846 57.724287 
L 488.353846 56.742203 
L 489.784615 56.742203 
L 489.784615 55.873553 
L 491.215385 55.873553 
L 491.215385 55.11466 
L 492.646154 55.11466 
L 492.646154 54.459978 
L 494.076923 54.459978 
L 494.076923 53.902395 
L 495.507692 53.902395 
L 495.507692 53.433607 
L 496.938462 53.433607 
L 496.938462 53.044537 
L 498.369231 53.044537 
L 498.369231 52.72574 
L 499.8 52.72574 
L 499.8 52.467797 
L 501.230769 52.467797 
L 501.230769 52.261643 
L 502.661538 52.261643 
L 502.661538 52.09883 
L 504.092308 52.09883 
L 504.092308 51.971707 
L 506.953846 51.873523 
L 506.953846 51.798468 
L 511.246154 51.699013 
L 511.246154 51.667297 
L 518.4 51.605251 
L 518.4 51.605251 
" style="fill:none;stroke:#1f77b4;stroke-linecap:square;stroke-width:1.5;"/>
   </g>
   <g id="line2d_40">
    <path clip-path="url(#p274a693865)" d="M 72 384.479948 
L 72 384.479867 
L 99.184615 384.380919 
L 99.184615 384.355533 
L 104.907692 384.250044 
L 104.907692 384.204125 
L 109.2 384.095359 
L 109.2 384.03262 
L 112.061538 383.964563 
L 112.061538 383.891496 
L 114.923077 383.81381 
L 114.923077 383.731953 
L 117.784615 383.646411 
L 117.784615 383.557685 
L 120.646154 383.466265 
L 120.646154 383.372608 
L 123.507692 383.277124 
L 123.507692 383.180157 
L 126.369231 383.08198 
L 126.369231 382.982785 
L 129.230769 382.882684 
L 129.230769 382.781714 
L 132.092308 382.679846 
L 132.092308 382.576988 
L 134.953846 382.473008 
L 134.953846 382.367737 
L 137.815385 382.260995 
L 137.815385 382.1526 
L 140.676923 382.042388 
L 140.676923 381.930228 
L 142.107692 381.930228 
L 142.107692 381.816034 
L 143.538462 381.816034 
L 143.538462 381.69978 
L 144.969231 381.69978 
L 144.969231 381.581508 
L 146.4 381.581508 
L 146.4 381.46133 
L 147.830769 381.46133 
L 147.830769 381.339431 
L 149.261538 381.339431 
L 149.261538 381.216059 
L 150.692308 381.216059 
L 150.692308 381.091522 
L 152.123077 381.091522 
L 152.123077 380.966168 
L 153.553846 380.966168 
L 153.553846 380.840369 
L 154.984615 380.840369 
L 154.984615 380.714502 
L 156.415385 380.714502 
L 156.415385 380.588931 
L 157.846154 380.588931 
L 157.846154 380.463989 
L 159.276923 380.463989 
L 159.276923 380.339962 
L 160.707692 380.339962 
L 160.707692 380.217075 
L 162.138462 380.217075 
L 162.138462 380.095488 
L 163.569231 380.095488 
L 163.569231 379.975286 
L 165 379.975286 
L 165 379.856477 
L 166.430769 379.856477 
L 166.430769 379.738996 
L 167.861538 379.738996 
L 167.861538 379.622703 
L 169.292308 379.622703 
L 169.292308 379.507389 
L 170.723077 379.507389 
L 170.723077 379.392782 
L 172.153846 379.392782 
L 172.153846 379.278553 
L 173.584615 379.278553 
L 173.584615 379.164329 
L 175.015385 379.164329 
L 175.015385 379.049703 
L 176.446154 379.049703 
L 176.446154 378.934254 
L 177.876923 378.934254 
L 177.876923 378.81756 
L 179.307692 378.81756 
L 179.307692 378.699216 
L 180.738462 378.699216 
L 180.738462 378.578857 
L 182.169231 378.578857 
L 182.169231 378.456171 
L 183.6 378.456171 
L 183.6 378.330909 
L 185.030769 378.330909 
L 185.030769 378.202892 
L 186.461538 378.202892 
L 186.461538 378.072012 
L 187.892308 378.072012 
L 187.892308 377.938221 
L 189.323077 377.938221 
L 189.323077 377.801519 
L 190.753846 377.801519 
L 190.753846 377.661932 
L 192.184615 377.661932 
L 192.184615 377.519493 
L 193.615385 377.519493 
L 193.615385 377.374211 
L 195.046154 377.374211 
L 195.046154 377.226053 
L 196.476923 377.226053 
L 196.476923 377.074921 
L 197.907692 377.074921 
L 197.907692 376.920639 
L 199.338462 376.920639 
L 199.338462 376.76294 
L 200.769231 376.76294 
L 200.769231 376.601466 
L 202.2 376.601466 
L 202.2 376.435771 
L 203.630769 376.435771 
L 203.630769 376.265329 
L 205.061538 376.265329 
L 205.061538 376.089548 
L 206.492308 376.089548 
L 206.492308 375.907788 
L 207.923077 375.907788 
L 207.923077 375.719378 
L 209.353846 375.719378 
L 209.353846 375.523631 
L 210.784615 375.523631 
L 210.784615 375.31985 
L 212.215385 375.31985 
L 212.215385 375.107341 
L 213.646154 375.107341 
L 213.646154 374.8854 
L 215.076923 374.8854 
L 215.076923 374.653309 
L 216.507692 374.653309 
L 216.507692 374.410311 
L 217.938462 374.410311 
L 217.938462 374.155582 
L 219.369231 374.155582 
L 219.369231 373.888212 
L 220.8 373.888212 
L 220.8 373.607165 
L 222.230769 373.607165 
L 222.230769 373.311265 
L 223.661538 373.311265 
L 223.661538 372.999175 
L 225.092308 372.999175 
L 225.092308 372.669409 
L 226.523077 372.669409 
L 226.523077 372.320341 
L 227.953846 372.320341 
L 227.953846 371.950244 
L 229.384615 371.950244 
L 229.384615 371.557346 
L 230.815385 371.557346 
L 230.815385 371.13989 
L 232.246154 371.13989 
L 232.246154 370.696217 
L 233.676923 370.696217 
L 233.676923 370.224839 
L 235.107692 370.224839 
L 235.107692 369.724509 
L 236.538462 369.724509 
L 236.538462 369.194278 
L 237.969231 369.194278 
L 237.969231 368.633527 
L 239.4 368.633527 
L 239.4 368.041976 
L 240.830769 368.041976 
L 240.830769 367.419664 
L 242.261538 367.419664 
L 242.261538 366.766905 
L 243.692308 366.766905 
L 243.692308 366.084214 
L 245.123077 366.084214 
L 245.123077 365.372227 
L 246.553846 365.372227 
L 246.553846 364.631614 
L 247.984615 364.631614 
L 247.984615 363.863001 
L 249.415385 363.863001 
L 249.415385 363.066901 
L 250.846154 363.066901 
L 250.846154 362.243682 
L 252.276923 362.243682 
L 252.276923 361.39356 
L 253.707692 361.39356 
L 253.707692 360.516627 
L 255.138462 360.516627 
L 255.138462 359.612915 
L 256.569231 359.612915 
L 256.569231 358.68248 
L 258 358.68248 
L 258 357.725507 
L 259.430769 357.725507 
L 259.430769 356.742418 
L 260.861538 356.742418 
L 260.861538 355.733973 
L 262.292308 355.733973 
L 262.292308 354.701352 
L 263.723077 354.701352 
L 263.723077 353.646209 
L 265.153846 353.646209 
L 265.153846 352.570691 
L 266.584615 352.570691 
L 266.584615 351.477411 
L 268.015385 351.477411 
L 268.015385 350.369397 
L 269.446154 350.369397 
L 269.446154 349.24999 
L 270.876923 349.24999 
L 270.876923 348.122726 
L 272.307692 348.122726 
L 272.307692 346.991192 
L 273.738462 346.991192 
L 273.738462 345.858875 
L 275.169231 345.858875 
L 275.169231 344.729014 
L 276.6 344.729014 
L 276.6 343.604461 
L 278.030769 343.604461 
L 278.030769 342.487567 
L 279.461538 342.487567 
L 279.461538 341.380096 
L 280.892308 341.380096 
L 280.892308 340.283168 
L 282.323077 340.283168 
L 282.323077 339.197253 
L 283.753846 339.197253 
L 283.753846 338.122186 
L 285.184615 338.122186 
L 285.184615 337.057225 
L 286.615385 337.057225 
L 286.615385 336.001134 
L 288.046154 336.001134 
L 288.046154 334.952285 
L 289.476923 334.952285 
L 289.476923 333.90877 
L 290.907692 333.90877 
L 290.907692 332.868521 
L 292.338462 332.868521 
L 292.338462 331.829408 
L 293.769231 331.829408 
L 293.769231 330.78933 
L 295.2 330.78933 
L 295.2 329.746284 
L 296.630769 329.746284 
L 296.630769 328.698401 
L 298.061538 328.698401 
L 298.061538 327.643967 
L 299.492308 327.643967 
L 299.492308 326.581411 
L 300.923077 326.581411 
L 300.923077 325.509279 
L 302.353846 325.509279 
L 302.353846 324.426202 
L 303.784615 324.426202 
L 303.784615 323.330848 
L 305.215385 323.330848 
L 305.215385 322.221885 
L 306.646154 322.221885 
L 306.646154 321.097938 
L 308.076923 321.097938 
L 308.076923 319.957571 
L 309.507692 319.957571 
L 309.507692 318.799272 
L 310.938462 318.799272 
L 310.938462 317.621448 
L 312.369231 317.621448 
L 312.369231 316.422442 
L 313.8 316.422442 
L 313.8 315.200547 
L 315.230769 315.200547 
L 315.230769 313.954036 
L 316.661538 313.954036 
L 316.661538 312.681192 
L 318.092308 312.681192 
L 318.092308 311.380345 
L 319.523077 311.380345 
L 319.523077 310.049912 
L 320.953846 310.049912 
L 320.953846 308.688425 
L 322.384615 308.688425 
L 322.384615 307.294577 
L 323.815385 307.294577 
L 323.815385 305.867262 
L 325.246154 305.867262 
L 325.246154 304.405615 
L 326.676923 304.405615 
L 326.676923 302.909048 
L 328.107692 302.909048 
L 328.107692 301.377291 
L 329.538462 301.377291 
L 329.538462 299.81043 
L 330.969231 299.81043 
L 330.969231 298.20894 
L 332.4 298.20894 
L 332.4 296.573715 
L 333.830769 296.573715 
L 333.830769 294.90609 
L 335.261538 294.90609 
L 335.261538 293.207859 
L 336.692308 293.207859 
L 336.692308 291.481268 
L 338.123077 291.481268 
L 338.123077 289.729017 
L 339.553846 289.729017 
L 339.553846 287.954223 
L 340.984615 287.954223 
L 340.984615 286.160379 
L 342.415385 286.160379 
L 342.415385 284.351286 
L 343.846154 284.351286 
L 343.846154 282.53097 
L 345.276923 282.53097 
L 345.276923 280.70357 
L 346.707692 280.70357 
L 346.707692 278.873216 
L 348.138462 278.873216 
L 348.138462 277.043893 
L 349.569231 277.043893 
L 349.569231 275.219296 
L 351 275.219296 
L 351 273.402696 
L 352.430769 273.402696 
L 352.430769 271.596813 
L 353.861538 271.596813 
L 353.861538 269.803718 
L 355.292308 269.803718 
L 355.292308 268.024767 
L 356.723077 268.024767 
L 356.723077 266.260575 
L 358.153846 266.260575 
L 358.153846 264.51103 
L 359.584615 264.51103 
L 359.584615 262.775356 
L 361.015385 262.775356 
L 361.015385 261.052205 
L 362.446154 261.052205 
L 362.446154 259.339784 
L 363.876923 259.339784 
L 363.876923 257.635999 
L 365.307692 257.635999 
L 365.307692 255.938599 
L 366.738462 255.938599 
L 366.738462 254.245323 
L 368.169231 254.245323 
L 368.169231 252.554025 
L 369.6 252.554025 
L 369.6 250.862774 
L 371.030769 250.862774 
L 371.030769 249.169932 
L 372.461538 249.169932 
L 372.461538 247.474188 
L 373.892308 247.474188 
L 373.892308 245.774585 
L 375.323077 245.774585 
L 375.323077 244.070497 
L 376.753846 244.070497 
L 376.753846 242.361608 
L 378.184615 242.361608 
L 378.184615 240.647865 
L 379.615385 240.647865 
L 379.615385 238.929427 
L 381.046154 238.929427 
L 381.046154 237.206614 
L 382.476923 237.206614 
L 382.476923 235.479853 
L 383.907692 235.479853 
L 383.907692 233.749635 
L 385.338462 233.749635 
L 385.338462 232.01647 
L 386.769231 232.01647 
L 386.769231 230.28086 
L 388.2 230.28086 
L 388.2 228.54327 
L 389.630769 228.54327 
L 389.630769 226.804113 
L 391.061538 226.804113 
L 391.061538 225.063735 
L 392.492308 225.063735 
L 392.492308 223.32241 
L 393.923077 223.32241 
L 393.923077 221.580338 
L 395.353846 221.580338 
L 395.353846 219.83765 
L 396.784615 219.83765 
L 396.784615 218.094412 
L 398.215385 218.094412 
L 398.215385 216.350633 
L 399.646154 216.350633 
L 399.646154 214.606278 
L 401.076923 214.606278 
L 401.076923 212.861274 
L 402.507692 212.861274 
L 402.507692 211.115528 
L 403.938462 211.115528 
L 403.938462 209.368926 
L 405.369231 209.368926 
L 405.369231 207.621347 
L 406.8 207.621347 
L 406.8 205.872668 
L 408.230769 205.872668 
L 408.230769 204.122758 
L 409.661538 204.122758 
L 409.661538 202.371484 
L 411.092308 202.371484 
L 411.092308 200.618698 
L 412.523077 200.618698 
L 412.523077 198.864229 
L 413.953846 198.864229 
L 413.953846 197.107868 
L 415.384615 197.107868 
L 415.384615 195.349355 
L 416.815385 195.349355 
L 416.815385 193.588357 
L 418.246154 193.588357 
L 418.246154 191.824461 
L 419.676923 191.824461 
L 419.676923 190.057155 
L 421.107692 190.057155 
L 421.107692 188.285822 
L 422.538462 188.285822 
L 422.538462 186.509742 
L 423.969231 186.509742 
L 423.969231 184.728094 
L 425.4 184.728094 
L 425.4 182.939973 
L 426.830769 182.939973 
L 426.830769 181.144408 
L 428.261538 181.144408 
L 428.261538 179.340393 
L 429.692308 179.340393 
L 429.692308 177.526914 
L 431.123077 177.526914 
L 431.123077 175.702993 
L 432.553846 175.702993 
L 432.553846 173.867713 
L 433.984615 173.867713 
L 433.984615 172.020256 
L 435.415385 172.020256 
L 435.415385 170.159932 
L 436.846154 170.159932 
L 436.846154 168.286195 
L 438.276923 168.286195 
L 438.276923 166.398662 
L 439.707692 166.398662 
L 439.707692 164.497114 
L 441.138462 164.497114 
L 441.138462 162.581496 
L 442.569231 162.581496 
L 442.569231 160.651906 
L 444 160.651906 
L 444 158.708582 
L 445.430769 158.708582 
L 445.430769 156.751879 
L 446.861538 156.751879 
L 446.861538 154.782251 
L 448.292308 154.782251 
L 448.292308 152.800227 
L 449.723077 152.800227 
L 449.723077 150.806389 
L 451.153846 150.806389 
L 451.153846 148.801352 
L 452.584615 148.801352 
L 452.584615 146.78575 
L 454.015385 146.78575 
L 454.015385 144.760219 
L 455.446154 144.760219 
L 455.446154 142.725382 
L 456.876923 142.725382 
L 456.876923 140.681848 
L 458.307692 140.681848 
L 458.307692 138.630199 
L 459.738462 138.630199 
L 459.738462 136.570991 
L 461.169231 136.570991 
L 461.169231 134.504747 
L 462.6 134.504747 
L 462.6 132.431961 
L 464.030769 132.431961 
L 464.030769 130.353094 
L 465.461538 130.353094 
L 465.461538 128.268577 
L 466.892308 128.268577 
L 466.892308 126.178813 
L 468.323077 126.178813 
L 468.323077 124.084174 
L 469.753846 124.084174 
L 469.753846 121.985009 
L 471.184615 121.985009 
L 471.184615 119.88164 
L 472.615385 119.88164 
L 472.615385 117.774371 
L 474.046154 117.774371 
L 474.046154 115.663487 
L 475.476923 115.663487 
L 475.476923 113.549261 
L 476.907692 113.549261 
L 476.907692 111.431954 
L 478.338462 111.431954 
L 478.338462 109.311802 
L 479.769231 109.311802 
L 479.769231 107.189047 
L 481.2 107.189047 
L 481.2 105.063934 
L 482.630769 105.063934 
L 482.630769 102.936723 
L 484.061538 102.936723 
L 484.061538 100.807697 
L 485.492308 100.807697 
L 485.492308 98.677176 
L 486.923077 98.677176 
L 486.923077 96.545539 
L 488.353846 96.545539 
L 488.353846 94.413234 
L 489.784615 94.413234 
L 489.784615 92.280804 
L 491.215385 92.280804 
L 491.215385 90.148904 
L 492.646154 90.148904 
L 492.646154 88.018318 
L 494.076923 88.018318 
L 494.076923 85.889973 
L 495.507692 85.889973 
L 495.507692 83.764944 
L 496.938462 83.764944 
L 496.938462 81.644455 
L 498.369231 81.644455 
L 498.369231 79.529865 
L 499.8 79.529865 
L 499.8 77.422647 
L 501.230769 77.422647 
L 501.230769 75.324359 
L 502.661538 75.324359 
L 502.661538 73.236606 
L 504.092308 73.236606 
L 504.092308 71.160999 
L 505.523077 71.160999 
L 505.523077 69.099113 
L 506.953846 69.099113 
L 506.953846 67.052448 
L 508.384615 67.052448 
L 508.384615 65.022391 
L 509.815385 65.022391 
L 509.815385 63.010192 
L 511.246154 63.010192 
L 511.246154 61.016938 
L 512.676923 61.016938 
L 512.676923 59.043549 
L 514.107692 59.043549 
L 514.107692 57.090764 
L 515.538462 57.090764 
L 515.538462 55.159151 
L 516.969231 55.159151 
L 516.969231 53.249109 
L 518.4 53.249109 
L 518.4 53.249109 
" style="fill:none;stroke:#ff7f0e;stroke-linecap:square;stroke-width:1.5;"/>
   </g>
   <g id="line2d_41">
    <path clip-path="url(#p274a693865)" d="M 229.384615 384.48 
L 229.384615 51.84 
" style="fill:none;stroke:#000000;stroke-dasharray:1.5,2.475;stroke-dashoffset:0;stroke-width:1.5;"/>
   </g>
   <g id="patch_3">
    <path d="M 72 384.48 
L 72 51.84 
" style="fill:none;stroke:#000000;stroke-linecap:square;stroke-linejoin:miter;stroke-width:0.8;"/>
   </g>
   <g id="patch_4">
    <path d="M 518.4 384.48 
L 518.4 51.84 
" style="fill:none;stroke:#000000;stroke-linecap:square;stroke-linejoin:miter;stroke-width:0.8;"/>
   </g>
   <g id="patch_5">
    <path d="M 72 384.48 
L 518.4 384.48 
" style="fill:none;stroke:#000000;stroke-linecap:square;stroke-linejoin:miter;stroke-width:0.8;"/>
   </g>
   <g id="patch_6">
    <path d="M 72 51.84 
L 518.4 51.84 
" style="fill:none;stroke:#000000;stroke-linecap:square;stroke-linejoin:miter;stroke-width:0.8;"/>
   </g>
   <g id="text_21">
    <!-- Projected cumulative 1st and 2nd doses -->
    <g transform="translate(174.848437 45.84)scale(0.12 -0.12)">
     <defs>
      <path d="M 1259 4147 
L 1259 2394 
L 2053 2394 
Q 2494 2394 2734 2622 
Q 2975 2850 2975 3272 
Q 2975 3691 2734 3919 
Q 2494 4147 2053 4147 
L 1259 4147 
z
M 628 4666 
L 2053 4666 
Q 2838 4666 3239 4311 
Q 3641 3956 3641 3272 
Q 3641 2581 3239 2228 
Q 2838 1875 2053 1875 
L 1259 1875 
L 1259 0 
L 628 0 
L 628 4666 
z
" id="DejaVuSans-50" transform="scale(0.015625)"/>
      <path d="M 603 3500 
L 1178 3500 
L 1178 -63 
Q 1178 -731 923 -1031 
Q 669 -1331 103 -1331 
L -116 -1331 
L -116 -844 
L 38 -844 
Q 366 -844 484 -692 
Q 603 -541 603 -63 
L 603 3500 
z
M 603 4863 
L 1178 4863 
L 1178 4134 
L 603 4134 
L 603 4863 
z
" id="DejaVuSans-6a" transform="scale(0.015625)"/>
     </defs>
     <use xlink:href="#DejaVuSans-50"/>
     <use x="58.552734" xlink:href="#DejaVuSans-72"/>
     <use x="97.416016" xlink:href="#DejaVuSans-6f"/>
     <use x="158.597656" xlink:href="#DejaVuSans-6a"/>
     <use x="186.380859" xlink:href="#DejaVuSans-65"/>
     <use x="247.904297" xlink:href="#DejaVuSans-63"/>
     <use x="302.884766" xlink:href="#DejaVuSans-74"/>
     <use x="342.09375" xlink:href="#DejaVuSans-65"/>
     <use x="403.617188" xlink:href="#DejaVuSans-64"/>
     <use x="467.09375" xlink:href="#DejaVuSans-20"/>
     <use x="498.880859" xlink:href="#DejaVuSans-63"/>
     <use x="553.861328" xlink:href="#DejaVuSans-75"/>
     <use x="617.240234" xlink:href="#DejaVuSans-6d"/>
     <use x="714.652344" xlink:href="#DejaVuSans-75"/>
     <use x="778.03125" xlink:href="#DejaVuSans-6c"/>
     <use x="805.814453" xlink:href="#DejaVuSans-61"/>
     <use x="867.09375" xlink:href="#DejaVuSans-74"/>
     <use x="906.302734" xlink:href="#DejaVuSans-69"/>
     <use x="934.085938" xlink:href="#DejaVuSans-76"/>
     <use x="993.265625" xlink:href="#DejaVuSans-65"/>
     <use x="1054.789062" xlink:href="#DejaVuSans-20"/>
     <use x="1086.576172" xlink:href="#DejaVuSans-31"/>
     <use x="1150.199219" xlink:href="#DejaVuSans-73"/>
     <use x="1202.298828" xlink:href="#DejaVuSans-74"/>
     <use x="1241.507812" xlink:href="#DejaVuSans-20"/>
     <use x="1273.294922" xlink:href="#DejaVuSans-61"/>
     <use x="1334.574219" xlink:href="#DejaVuSans-6e"/>
     <use x="1397.953125" xlink:href="#DejaVuSans-64"/>
     <use x="1461.429688" xlink:href="#DejaVuSans-20"/>
     <use x="1493.216797" xlink:href="#DejaVuSans-32"/>
     <use x="1556.839844" xlink:href="#DejaVuSans-6e"/>
     <use x="1620.21875" xlink:href="#DejaVuSans-64"/>
     <use x="1683.695312" xlink:href="#DejaVuSans-20"/>
     <use x="1715.482422" xlink:href="#DejaVuSans-64"/>
     <use x="1778.958984" xlink:href="#DejaVuSans-6f"/>
     <use x="1840.140625" xlink:href="#DejaVuSans-73"/>
     <use x="1892.240234" xlink:href="#DejaVuSans-65"/>
     <use x="1953.763672" xlink:href="#DejaVuSans-73"/>
    </g>
   </g>
   <g id="legend_1">
    <g id="patch_7">
     <path d="M 77.831 131.865269 
L 186.136619 131.865269 
Q 187.802619 131.865269 187.802619 130.199269 
L 187.802619 57.671 
Q 187.802619 56.005 186.136619 56.005 
L 77.831 56.005 
Q 76.165 56.005 76.165 57.671 
L 76.165 130.199269 
Q 76.165 131.865269 77.831 131.865269 
z
" style="fill:#ffffff;opacity:0.8;stroke:#cccccc;stroke-linejoin:miter;"/>
    </g>
    <g id="line2d_42">
     <path d="M 79.497 62.750998 
L 96.157 62.750998 
" style="fill:none;stroke:#1f77b4;stroke-linecap:square;stroke-width:1.5;"/>
    </g>
    <g id="line2d_43"/>
    <g id="text_22">
     <!-- First doses -->
     <g transform="translate(102.821 65.666498)scale(0.0833 -0.0833)">
      <defs>
       <path d="M 628 4666 
L 3309 4666 
L 3309 4134 
L 1259 4134 
L 1259 2759 
L 3109 2759 
L 3109 2228 
L 1259 2228 
L 1259 0 
L 628 0 
L 628 4666 
z
" id="DejaVuSans-46" transform="scale(0.015625)"/>
      </defs>
      <use xlink:href="#DejaVuSans-46"/>
      <use x="50.269531" xlink:href="#DejaVuSans-69"/>
      <use x="78.052734" xlink:href="#DejaVuSans-72"/>
      <use x="119.166016" xlink:href="#DejaVuSans-73"/>
      <use x="171.265625" xlink:href="#DejaVuSans-74"/>
      <use x="210.474609" xlink:href="#DejaVuSans-20"/>
      <use x="242.261719" xlink:href="#DejaVuSans-64"/>
      <use x="305.738281" xlink:href="#DejaVuSans-6f"/>
      <use x="366.919922" xlink:href="#DejaVuSans-73"/>
      <use x="419.019531" xlink:href="#DejaVuSans-65"/>
      <use x="480.542969" xlink:href="#DejaVuSans-73"/>
     </g>
    </g>
    <g id="line2d_44">
     <path d="M 79.497 74.977877 
L 96.157 74.977877 
" style="fill:none;stroke:#ff7f0e;stroke-linecap:square;stroke-width:1.5;"/>
    </g>
    <g id="line2d_45"/>
    <g id="text_23">
     <!-- Second doses -->
     <g transform="translate(102.821 77.893377)scale(0.0833 -0.0833)">
      <use xlink:href="#DejaVuSans-53"/>
      <use x="63.476562" xlink:href="#DejaVuSans-65"/>
      <use x="125" xlink:href="#DejaVuSans-63"/>
      <use x="179.980469" xlink:href="#DejaVuSans-6f"/>
      <use x="241.162109" xlink:href="#DejaVuSans-6e"/>
      <use x="304.541016" xlink:href="#DejaVuSans-64"/>
      <use x="368.017578" xlink:href="#DejaVuSans-20"/>
      <use x="399.804688" xlink:href="#DejaVuSans-64"/>
      <use x="463.28125" xlink:href="#DejaVuSans-6f"/>
      <use x="524.462891" xlink:href="#DejaVuSans-73"/>
      <use x="576.5625" xlink:href="#DejaVuSans-65"/>
      <use x="638.085938" xlink:href="#DejaVuSans-73"/>
     </g>
    </g>
    <g id="patch_8">
     <path d="M 79.497 90.120255 
L 96.157 90.120255 
L 96.157 84.289255 
L 79.497 84.289255 
z
" style="fill:#ff0000;opacity:0.35;"/>
    </g>
    <g id="text_24">
     <!-- Phase 1a -->
     <g transform="translate(102.821 90.120255)scale(0.0833 -0.0833)">
      <defs>
       <path d="M 3513 2113 
L 3513 0 
L 2938 0 
L 2938 2094 
Q 2938 2591 2744 2837 
Q 2550 3084 2163 3084 
Q 1697 3084 1428 2787 
Q 1159 2491 1159 1978 
L 1159 0 
L 581 0 
L 581 4863 
L 1159 4863 
L 1159 2956 
Q 1366 3272 1645 3428 
Q 1925 3584 2291 3584 
Q 2894 3584 3203 3211 
Q 3513 2838 3513 2113 
z
" id="DejaVuSans-68" transform="scale(0.015625)"/>
      </defs>
      <use xlink:href="#DejaVuSans-50"/>
      <use x="60.302734" xlink:href="#DejaVuSans-68"/>
      <use x="123.681641" xlink:href="#DejaVuSans-61"/>
      <use x="184.960938" xlink:href="#DejaVuSans-73"/>
      <use x="237.060547" xlink:href="#DejaVuSans-65"/>
      <use x="298.583984" xlink:href="#DejaVuSans-20"/>
      <use x="330.371094" xlink:href="#DejaVuSans-31"/>
      <use x="393.994141" xlink:href="#DejaVuSans-61"/>
     </g>
    </g>
    <g id="patch_9">
     <path d="M 79.497 102.347133 
L 96.157 102.347133 
L 96.157 96.516133 
L 79.497 96.516133 
z
" style="fill:#ffa500;opacity:0.35;"/>
    </g>
    <g id="text_25">
     <!-- Phase 1b -->
     <g transform="translate(102.821 102.347133)scale(0.0833 -0.0833)">
      <defs>
       <path d="M 3116 1747 
Q 3116 2381 2855 2742 
Q 2594 3103 2138 3103 
Q 1681 3103 1420 2742 
Q 1159 2381 1159 1747 
Q 1159 1113 1420 752 
Q 1681 391 2138 391 
Q 2594 391 2855 752 
Q 3116 1113 3116 1747 
z
M 1159 2969 
Q 1341 3281 1617 3432 
Q 1894 3584 2278 3584 
Q 2916 3584 3314 3078 
Q 3713 2572 3713 1747 
Q 3713 922 3314 415 
Q 2916 -91 2278 -91 
Q 1894 -91 1617 61 
Q 1341 213 1159 525 
L 1159 0 
L 581 0 
L 581 4863 
L 1159 4863 
L 1159 2969 
z
" id="DejaVuSans-62" transform="scale(0.015625)"/>
      </defs>
      <use xlink:href="#DejaVuSans-50"/>
      <use x="60.302734" xlink:href="#DejaVuSans-68"/>
      <use x="123.681641" xlink:href="#DejaVuSans-61"/>
      <use x="184.960938" xlink:href="#DejaVuSans-73"/>
      <use x="237.060547" xlink:href="#DejaVuSans-65"/>
      <use x="298.583984" xlink:href="#DejaVuSans-20"/>
      <use x="330.371094" xlink:href="#DejaVuSans-31"/>
      <use x="393.994141" xlink:href="#DejaVuSans-62"/>
     </g>
    </g>
    <g id="patch_10">
     <path d="M 79.497 114.574011 
L 96.157 114.574011 
L 96.157 108.743011 
L 79.497 108.743011 
z
" style="fill:#ffff00;opacity:0.35;"/>
    </g>
    <g id="text_26">
     <!-- Phase 2a -->
     <g transform="translate(102.821 114.574011)scale(0.0833 -0.0833)">
      <use xlink:href="#DejaVuSans-50"/>
      <use x="60.302734" xlink:href="#DejaVuSans-68"/>
      <use x="123.681641" xlink:href="#DejaVuSans-61"/>
      <use x="184.960938" xlink:href="#DejaVuSans-73"/>
      <use x="237.060547" xlink:href="#DejaVuSans-65"/>
      <use x="298.583984" xlink:href="#DejaVuSans-20"/>
      <use x="330.371094" xlink:href="#DejaVuSans-32"/>
      <use x="393.994141" xlink:href="#DejaVuSans-61"/>
     </g>
    </g>
    <g id="line2d_46">
     <path d="M 79.497 123.885389 
L 96.157 123.885389 
" style="fill:none;stroke:#000000;stroke-dasharray:1.5,2.475;stroke-dashoffset:0;stroke-width:1.5;"/>
    </g>
    <g id="line2d_47"/>
    <g id="text_27">
     <!-- Today (2021-06-12) -->
     <g transform="translate(102.821 126.800889)scale(0.0833 -0.0833)">
      <defs>
       <path d="M -19 4666 
L 3928 4666 
L 3928 4134 
L 2272 4134 
L 2272 0 
L 1638 0 
L 1638 4134 
L -19 4134 
L -19 4666 
z
" id="DejaVuSans-54" transform="scale(0.015625)"/>
       <path d="M 313 2009 
L 1997 2009 
L 1997 1497 
L 313 1497 
L 313 2009 
z
" id="DejaVuSans-2d" transform="scale(0.015625)"/>
       <path d="M 2113 2584 
Q 1688 2584 1439 2293 
Q 1191 2003 1191 1497 
Q 1191 994 1439 701 
Q 1688 409 2113 409 
Q 2538 409 2786 701 
Q 3034 994 3034 1497 
Q 3034 2003 2786 2293 
Q 2538 2584 2113 2584 
z
M 3366 4563 
L 3366 3988 
Q 3128 4100 2886 4159 
Q 2644 4219 2406 4219 
Q 1781 4219 1451 3797 
Q 1122 3375 1075 2522 
Q 1259 2794 1537 2939 
Q 1816 3084 2150 3084 
Q 2853 3084 3261 2657 
Q 3669 2231 3669 1497 
Q 3669 778 3244 343 
Q 2819 -91 2113 -91 
Q 1303 -91 875 529 
Q 447 1150 447 2328 
Q 447 3434 972 4092 
Q 1497 4750 2381 4750 
Q 2619 4750 2861 4703 
Q 3103 4656 3366 4563 
z
" id="DejaVuSans-36" transform="scale(0.015625)"/>
      </defs>
      <use xlink:href="#DejaVuSans-54"/>
      <use x="44.083984" xlink:href="#DejaVuSans-6f"/>
      <use x="105.265625" xlink:href="#DejaVuSans-64"/>
      <use x="168.742188" xlink:href="#DejaVuSans-61"/>
      <use x="230.021484" xlink:href="#DejaVuSans-79"/>
      <use x="289.201172" xlink:href="#DejaVuSans-20"/>
      <use x="320.988281" xlink:href="#DejaVuSans-28"/>
      <use x="360.001953" xlink:href="#DejaVuSans-32"/>
      <use x="423.625" xlink:href="#DejaVuSans-30"/>
      <use x="487.248047" xlink:href="#DejaVuSans-32"/>
      <use x="550.871094" xlink:href="#DejaVuSans-31"/>
      <use x="614.494141" xlink:href="#DejaVuSans-2d"/>
      <use x="650.578125" xlink:href="#DejaVuSans-30"/>
      <use x="714.201172" xlink:href="#DejaVuSans-36"/>
      <use x="777.824219" xlink:href="#DejaVuSans-2d"/>
      <use x="813.908203" xlink:href="#DejaVuSans-31"/>
      <use x="877.53125" xlink:href="#DejaVuSans-32"/>
      <use x="941.154297" xlink:href="#DejaVuSans-29"/>
     </g>
    </g>
   </g>
  </g>
 </g>
 <defs>
  <clipPath id="p274a693865">
   <rect height="332.64" width="446.4" x="72" y="51.84"/>
  </clipPath>
 </defs>
</svg>
