<?xml version="1.0" encoding="utf-8" standalone="no"?>
<!DOCTYPE svg PUBLIC "-//W3C//DTD SVG 1.1//EN"
  "http://www.w3.org/Graphics/SVG/1.1/DTD/svg11.dtd">
<svg height="432pt" version="1.1" viewBox="0 0 576 432" width="576pt" xmlns="http://www.w3.org/2000/svg" xmlns:xlink="http://www.w3.org/1999/xlink">
 <metadata>
  <rdf:RDF xmlns:cc="http://creativecommons.org/ns#" xmlns:dc="http://purl.org/dc/elements/1.1/" xmlns:rdf="http://www.w3.org/1999/02/22-rdf-syntax-ns#">
   <cc:Work>
    <dc:type rdf:resource="http://purl.org/dc/dcmitype/StillImage"/>
    <dc:date>2021-07-09T08:12:43.114309</dc:date>
    <dc:format>image/svg+xml</dc:format>
    <dc:creator>
     <cc:Agent>
      <dc:title>Matplotlib v3.4.2, https://matplotlib.org/</dc:title>
     </cc:Agent>
    </dc:creator>
   </cc:Work>
  </rdf:RDF>
 </metadata>
 <defs>
  <style type="text/css">*{stroke-linecap:butt;stroke-linejoin:round;}</style>
 </defs>
 <g id="figure_1">
  <g id="patch_1">
   <path d="M 0 432 
L 576 432 
L 576 0 
L 0 0 
z
" style="fill:#ffffff;"/>
  </g>
  <g id="axes_1">
   <g id="patch_2">
    <path d="M 72 384.48 
L 518.4 384.48 
L 518.4 51.84 
L 72 51.84 
z
" style="fill:#ffffff;"/>
   </g>
   <g id="PolyCollection_1">
    <defs>
     <path d="M 108.440816 -47.52 
L 70.698542 -47.52 
L 70.698542 -380.16 
L 108.440816 -380.16 
L 108.440816 -380.16 
L 108.440816 -47.52 
z
" id="m5eb9e01724"/>
    </defs>
    <g clip-path="url(#p18011c2b5c)">
     <use style="fill:#ff0000;fill-opacity:0.35;" x="0" xlink:href="#m5eb9e01724" y="432"/>
    </g>
   </g>
   <g id="PolyCollection_2">
    <defs>
     <path d="M 163.102041 -47.52 
L 108.440816 -47.52 
L 108.440816 -380.16 
L 163.102041 -380.16 
L 163.102041 -380.16 
L 163.102041 -47.52 
z
" id="maaba3d909f"/>
    </defs>
    <g clip-path="url(#p18011c2b5c)">
     <use style="fill:#ffa500;fill-opacity:0.35;" x="0" xlink:href="#maaba3d909f" y="432"/>
    </g>
   </g>
   <g id="PolyCollection_3">
    <defs>
     <path d="M 273.725948 -47.52 
L 163.102041 -47.52 
L 163.102041 -380.16 
L 273.725948 -380.16 
L 273.725948 -380.16 
L 273.725948 -47.52 
z
" id="m455a0a3903"/>
    </defs>
    <g clip-path="url(#p18011c2b5c)">
     <use style="fill:#ffff00;fill-opacity:0.35;" x="0" xlink:href="#m455a0a3903" y="432"/>
    </g>
   </g>
   <g id="PolyCollection_4">
    <defs>
     <path d="M 275.027405 -47.52 
L 273.725948 -47.52 
L 273.725948 -380.16 
L 275.027405 -380.16 
L 275.027405 -380.16 
L 275.027405 -47.52 
z
" id="m2d4a1d23af"/>
    </defs>
    <g clip-path="url(#p18011c2b5c)">
     <use style="fill:#ffff00;fill-opacity:0.3;" x="0" xlink:href="#m2d4a1d23af" y="432"/>
    </g>
   </g>
   <g id="PolyCollection_5">
    <defs>
     <path d="M 276.328863 -47.52 
L 275.027405 -47.52 
L 275.027405 -380.16 
L 276.328863 -380.16 
L 276.328863 -380.16 
L 276.328863 -47.52 
z
" id="m43da4abc05"/>
    </defs>
    <g clip-path="url(#p18011c2b5c)">
     <use style="fill:#ffff00;fill-opacity:0.27;" x="0" xlink:href="#m43da4abc05" y="432"/>
    </g>
   </g>
   <g id="PolyCollection_6">
    <defs>
     <path d="M 277.630321 -47.52 
L 276.328863 -47.52 
L 276.328863 -380.16 
L 277.630321 -380.16 
L 277.630321 -380.16 
L 277.630321 -47.52 
z
" id="m4f0671e60d"/>
    </defs>
    <g clip-path="url(#p18011c2b5c)">
     <use style="fill:#ffff00;fill-opacity:0.24;" x="0" xlink:href="#m4f0671e60d" y="432"/>
    </g>
   </g>
   <g id="PolyCollection_7">
    <defs>
     <path d="M 278.931778 -47.52 
L 277.630321 -47.52 
L 277.630321 -380.16 
L 278.931778 -380.16 
L 278.931778 -380.16 
L 278.931778 -47.52 
z
" id="m1bae003b71"/>
    </defs>
    <g clip-path="url(#p18011c2b5c)">
     <use style="fill:#ffff00;fill-opacity:0.21;" x="0" xlink:href="#m1bae003b71" y="432"/>
    </g>
   </g>
   <g id="PolyCollection_8">
    <defs>
     <path d="M 280.233236 -47.52 
L 278.931778 -47.52 
L 278.931778 -380.16 
L 280.233236 -380.16 
L 280.233236 -380.16 
L 280.233236 -47.52 
z
" id="m123bb6ba96"/>
    </defs>
    <g clip-path="url(#p18011c2b5c)">
     <use style="fill:#ffff00;fill-opacity:0.18;" x="0" xlink:href="#m123bb6ba96" y="432"/>
    </g>
   </g>
   <g id="PolyCollection_9">
    <defs>
     <path d="M 281.534694 -47.52 
L 280.233236 -47.52 
L 280.233236 -380.16 
L 281.534694 -380.16 
L 281.534694 -380.16 
L 281.534694 -47.52 
z
" id="m45394e01d6"/>
    </defs>
    <g clip-path="url(#p18011c2b5c)">
     <use style="fill:#ffff00;fill-opacity:0.15;" x="0" xlink:href="#m45394e01d6" y="432"/>
    </g>
   </g>
   <g id="PolyCollection_10">
    <defs>
     <path d="M 282.836152 -47.52 
L 281.534694 -47.52 
L 281.534694 -380.16 
L 282.836152 -380.16 
L 282.836152 -380.16 
L 282.836152 -47.52 
z
" id="mdab96e2212"/>
    </defs>
    <g clip-path="url(#p18011c2b5c)">
     <use style="fill:#ffff00;fill-opacity:0.12;" x="0" xlink:href="#mdab96e2212" y="432"/>
    </g>
   </g>
   <g id="PolyCollection_11">
    <defs>
     <path d="M 284.137609 -47.52 
L 282.836152 -47.52 
L 282.836152 -380.16 
L 284.137609 -380.16 
L 284.137609 -380.16 
L 284.137609 -47.52 
z
" id="m0d5f069656"/>
    </defs>
    <g clip-path="url(#p18011c2b5c)">
     <use style="fill:#ffff00;fill-opacity:0.09;" x="0" xlink:href="#m0d5f069656" y="432"/>
    </g>
   </g>
   <g id="PolyCollection_12">
    <defs>
     <path d="M 285.439067 -47.52 
L 284.137609 -47.52 
L 284.137609 -380.16 
L 285.439067 -380.16 
L 285.439067 -380.16 
L 285.439067 -47.52 
z
" id="m5766e9ced0"/>
    </defs>
    <g clip-path="url(#p18011c2b5c)">
     <use style="fill:#ffff00;fill-opacity:0.06;" x="0" xlink:href="#m5766e9ced0" y="432"/>
    </g>
   </g>
   <g id="PolyCollection_13">
    <defs>
     <path d="M 286.740525 -47.52 
L 285.439067 -47.52 
L 285.439067 -380.16 
L 286.740525 -380.16 
L 286.740525 -380.16 
L 286.740525 -47.52 
z
" id="m4321cbe5b1"/>
    </defs>
    <g clip-path="url(#p18011c2b5c)">
     <use style="fill:#ffff00;fill-opacity:0.03;" x="0" xlink:href="#m4321cbe5b1" y="432"/>
    </g>
   </g>
   <g id="matplotlib.axis_1">
    <g id="xtick_1">
     <g id="line2d_1">
      <path clip-path="url(#p18011c2b5c)" d="M 81.110204 384.48 
L 81.110204 51.84 
" style="fill:none;stroke:#000000;stroke-dasharray:0.8,1.32;stroke-dashoffset:0;stroke-width:0.8;"/>
     </g>
     <g id="line2d_2">
      <defs>
       <path d="M 0 0 
L 0 3.5 
" id="maa0fae9637" style="stroke:#000000;stroke-width:0.8;"/>
      </defs>
      <g>
       <use style="stroke:#000000;stroke-width:0.8;" x="81.110204" xlink:href="#maa0fae9637" y="384.48"/>
      </g>
     </g>
     <g id="text_1">
      <!-- Mar -->
      <g transform="translate(71.67661 399.078438)scale(0.1 -0.1)">
       <defs>
        <path d="M 628 4666 
L 1569 4666 
L 2759 1491 
L 3956 4666 
L 4897 4666 
L 4897 0 
L 4281 0 
L 4281 4097 
L 3078 897 
L 2444 897 
L 1241 4097 
L 1241 0 
L 628 0 
L 628 4666 
z
" id="DejaVuSans-4d" transform="scale(0.015625)"/>
        <path d="M 2194 1759 
Q 1497 1759 1228 1600 
Q 959 1441 959 1056 
Q 959 750 1161 570 
Q 1363 391 1709 391 
Q 2188 391 2477 730 
Q 2766 1069 2766 1631 
L 2766 1759 
L 2194 1759 
z
M 3341 1997 
L 3341 0 
L 2766 0 
L 2766 531 
Q 2569 213 2275 61 
Q 1981 -91 1556 -91 
Q 1019 -91 701 211 
Q 384 513 384 1019 
Q 384 1609 779 1909 
Q 1175 2209 1959 2209 
L 2766 2209 
L 2766 2266 
Q 2766 2663 2505 2880 
Q 2244 3097 1772 3097 
Q 1472 3097 1187 3025 
Q 903 2953 641 2809 
L 641 3341 
Q 956 3463 1253 3523 
Q 1550 3584 1831 3584 
Q 2591 3584 2966 3190 
Q 3341 2797 3341 1997 
z
" id="DejaVuSans-61" transform="scale(0.015625)"/>
        <path d="M 2631 2963 
Q 2534 3019 2420 3045 
Q 2306 3072 2169 3072 
Q 1681 3072 1420 2755 
Q 1159 2438 1159 1844 
L 1159 0 
L 581 0 
L 581 3500 
L 1159 3500 
L 1159 2956 
Q 1341 3275 1631 3429 
Q 1922 3584 2338 3584 
Q 2397 3584 2469 3576 
Q 2541 3569 2628 3553 
L 2631 2963 
z
" id="DejaVuSans-72" transform="scale(0.015625)"/>
       </defs>
       <use xlink:href="#DejaVuSans-4d"/>
       <use x="86.279297" xlink:href="#DejaVuSans-61"/>
       <use x="147.558594" xlink:href="#DejaVuSans-72"/>
      </g>
     </g>
    </g>
    <g id="xtick_2">
     <g id="line2d_3">
      <path clip-path="url(#p18011c2b5c)" d="M 121.455394 384.48 
L 121.455394 51.84 
" style="fill:none;stroke:#000000;stroke-dasharray:0.8,1.32;stroke-dashoffset:0;stroke-width:0.8;"/>
     </g>
     <g id="line2d_4">
      <g>
       <use style="stroke:#000000;stroke-width:0.8;" x="121.455394" xlink:href="#maa0fae9637" y="384.48"/>
      </g>
     </g>
     <g id="text_2">
      <!-- Apr -->
      <g transform="translate(112.805394 399.078438)scale(0.1 -0.1)">
       <defs>
        <path d="M 2188 4044 
L 1331 1722 
L 3047 1722 
L 2188 4044 
z
M 1831 4666 
L 2547 4666 
L 4325 0 
L 3669 0 
L 3244 1197 
L 1141 1197 
L 716 0 
L 50 0 
L 1831 4666 
z
" id="DejaVuSans-41" transform="scale(0.015625)"/>
        <path d="M 1159 525 
L 1159 -1331 
L 581 -1331 
L 581 3500 
L 1159 3500 
L 1159 2969 
Q 1341 3281 1617 3432 
Q 1894 3584 2278 3584 
Q 2916 3584 3314 3078 
Q 3713 2572 3713 1747 
Q 3713 922 3314 415 
Q 2916 -91 2278 -91 
Q 1894 -91 1617 61 
Q 1341 213 1159 525 
z
M 3116 1747 
Q 3116 2381 2855 2742 
Q 2594 3103 2138 3103 
Q 1681 3103 1420 2742 
Q 1159 2381 1159 1747 
Q 1159 1113 1420 752 
Q 1681 391 2138 391 
Q 2594 391 2855 752 
Q 3116 1113 3116 1747 
z
" id="DejaVuSans-70" transform="scale(0.015625)"/>
       </defs>
       <use xlink:href="#DejaVuSans-41"/>
       <use x="68.408203" xlink:href="#DejaVuSans-70"/>
       <use x="131.884766" xlink:href="#DejaVuSans-72"/>
      </g>
     </g>
    </g>
    <g id="xtick_3">
     <g id="line2d_5">
      <path clip-path="url(#p18011c2b5c)" d="M 160.499125 384.48 
L 160.499125 51.84 
" style="fill:none;stroke:#000000;stroke-dasharray:0.8,1.32;stroke-dashoffset:0;stroke-width:0.8;"/>
     </g>
     <g id="line2d_6">
      <g>
       <use style="stroke:#000000;stroke-width:0.8;" x="160.499125" xlink:href="#maa0fae9637" y="384.48"/>
      </g>
     </g>
     <g id="text_3">
      <!-- May -->
      <g transform="translate(150.161625 399.078438)scale(0.1 -0.1)">
       <defs>
        <path d="M 2059 -325 
Q 1816 -950 1584 -1140 
Q 1353 -1331 966 -1331 
L 506 -1331 
L 506 -850 
L 844 -850 
Q 1081 -850 1212 -737 
Q 1344 -625 1503 -206 
L 1606 56 
L 191 3500 
L 800 3500 
L 1894 763 
L 2988 3500 
L 3597 3500 
L 2059 -325 
z
" id="DejaVuSans-79" transform="scale(0.015625)"/>
       </defs>
       <use xlink:href="#DejaVuSans-4d"/>
       <use x="86.279297" xlink:href="#DejaVuSans-61"/>
       <use x="147.558594" xlink:href="#DejaVuSans-79"/>
      </g>
     </g>
    </g>
    <g id="xtick_4">
     <g id="line2d_7">
      <path clip-path="url(#p18011c2b5c)" d="M 200.844315 384.48 
L 200.844315 51.84 
" style="fill:none;stroke:#000000;stroke-dasharray:0.8,1.32;stroke-dashoffset:0;stroke-width:0.8;"/>
     </g>
     <g id="line2d_8">
      <g>
       <use style="stroke:#000000;stroke-width:0.8;" x="200.844315" xlink:href="#maa0fae9637" y="384.48"/>
      </g>
     </g>
     <g id="text_4">
      <!-- Jun -->
      <g transform="translate(193.031815 399.078438)scale(0.1 -0.1)">
       <defs>
        <path d="M 628 4666 
L 1259 4666 
L 1259 325 
Q 1259 -519 939 -900 
Q 619 -1281 -91 -1281 
L -331 -1281 
L -331 -750 
L -134 -750 
Q 284 -750 456 -515 
Q 628 -281 628 325 
L 628 4666 
z
" id="DejaVuSans-4a" transform="scale(0.015625)"/>
        <path d="M 544 1381 
L 544 3500 
L 1119 3500 
L 1119 1403 
Q 1119 906 1312 657 
Q 1506 409 1894 409 
Q 2359 409 2629 706 
Q 2900 1003 2900 1516 
L 2900 3500 
L 3475 3500 
L 3475 0 
L 2900 0 
L 2900 538 
Q 2691 219 2414 64 
Q 2138 -91 1772 -91 
Q 1169 -91 856 284 
Q 544 659 544 1381 
z
M 1991 3584 
L 1991 3584 
z
" id="DejaVuSans-75" transform="scale(0.015625)"/>
        <path d="M 3513 2113 
L 3513 0 
L 2938 0 
L 2938 2094 
Q 2938 2591 2744 2837 
Q 2550 3084 2163 3084 
Q 1697 3084 1428 2787 
Q 1159 2491 1159 1978 
L 1159 0 
L 581 0 
L 581 3500 
L 1159 3500 
L 1159 2956 
Q 1366 3272 1645 3428 
Q 1925 3584 2291 3584 
Q 2894 3584 3203 3211 
Q 3513 2838 3513 2113 
z
" id="DejaVuSans-6e" transform="scale(0.015625)"/>
       </defs>
       <use xlink:href="#DejaVuSans-4a"/>
       <use x="29.492188" xlink:href="#DejaVuSans-75"/>
       <use x="92.871094" xlink:href="#DejaVuSans-6e"/>
      </g>
     </g>
    </g>
    <g id="xtick_5">
     <g id="line2d_9">
      <path clip-path="url(#p18011c2b5c)" d="M 239.888047 384.48 
L 239.888047 51.84 
" style="fill:none;stroke:#000000;stroke-dasharray:0.8,1.32;stroke-dashoffset:0;stroke-width:0.8;"/>
     </g>
     <g id="line2d_10">
      <g>
       <use style="stroke:#000000;stroke-width:0.8;" x="239.888047" xlink:href="#maa0fae9637" y="384.48"/>
      </g>
     </g>
     <g id="text_5">
      <!-- Jul -->
      <g transform="translate(233.855234 399.078438)scale(0.1 -0.1)">
       <defs>
        <path d="M 603 4863 
L 1178 4863 
L 1178 0 
L 603 0 
L 603 4863 
z
" id="DejaVuSans-6c" transform="scale(0.015625)"/>
       </defs>
       <use xlink:href="#DejaVuSans-4a"/>
       <use x="29.492188" xlink:href="#DejaVuSans-75"/>
       <use x="92.871094" xlink:href="#DejaVuSans-6c"/>
      </g>
     </g>
    </g>
    <g id="xtick_6">
     <g id="line2d_11">
      <path clip-path="url(#p18011c2b5c)" d="M 280.233236 384.48 
L 280.233236 51.84 
" style="fill:none;stroke:#000000;stroke-dasharray:0.8,1.32;stroke-dashoffset:0;stroke-width:0.8;"/>
     </g>
     <g id="line2d_12">
      <g>
       <use style="stroke:#000000;stroke-width:0.8;" x="280.233236" xlink:href="#maa0fae9637" y="384.48"/>
      </g>
     </g>
     <g id="text_6">
      <!-- Aug -->
      <g transform="translate(270.469955 399.078438)scale(0.1 -0.1)">
       <defs>
        <path d="M 2906 1791 
Q 2906 2416 2648 2759 
Q 2391 3103 1925 3103 
Q 1463 3103 1205 2759 
Q 947 2416 947 1791 
Q 947 1169 1205 825 
Q 1463 481 1925 481 
Q 2391 481 2648 825 
Q 2906 1169 2906 1791 
z
M 3481 434 
Q 3481 -459 3084 -895 
Q 2688 -1331 1869 -1331 
Q 1566 -1331 1297 -1286 
Q 1028 -1241 775 -1147 
L 775 -588 
Q 1028 -725 1275 -790 
Q 1522 -856 1778 -856 
Q 2344 -856 2625 -561 
Q 2906 -266 2906 331 
L 2906 616 
Q 2728 306 2450 153 
Q 2172 0 1784 0 
Q 1141 0 747 490 
Q 353 981 353 1791 
Q 353 2603 747 3093 
Q 1141 3584 1784 3584 
Q 2172 3584 2450 3431 
Q 2728 3278 2906 2969 
L 2906 3500 
L 3481 3500 
L 3481 434 
z
" id="DejaVuSans-67" transform="scale(0.015625)"/>
       </defs>
       <use xlink:href="#DejaVuSans-41"/>
       <use x="68.408203" xlink:href="#DejaVuSans-75"/>
       <use x="131.787109" xlink:href="#DejaVuSans-67"/>
      </g>
     </g>
    </g>
    <g id="xtick_7">
     <g id="line2d_13">
      <path clip-path="url(#p18011c2b5c)" d="M 320.578426 384.48 
L 320.578426 51.84 
" style="fill:none;stroke:#000000;stroke-dasharray:0.8,1.32;stroke-dashoffset:0;stroke-width:0.8;"/>
     </g>
     <g id="line2d_14">
      <g>
       <use style="stroke:#000000;stroke-width:0.8;" x="320.578426" xlink:href="#maa0fae9637" y="384.48"/>
      </g>
     </g>
     <g id="text_7">
      <!-- Sep -->
      <g transform="translate(311.153426 399.078438)scale(0.1 -0.1)">
       <defs>
        <path d="M 3425 4513 
L 3425 3897 
Q 3066 4069 2747 4153 
Q 2428 4238 2131 4238 
Q 1616 4238 1336 4038 
Q 1056 3838 1056 3469 
Q 1056 3159 1242 3001 
Q 1428 2844 1947 2747 
L 2328 2669 
Q 3034 2534 3370 2195 
Q 3706 1856 3706 1288 
Q 3706 609 3251 259 
Q 2797 -91 1919 -91 
Q 1588 -91 1214 -16 
Q 841 59 441 206 
L 441 856 
Q 825 641 1194 531 
Q 1563 422 1919 422 
Q 2459 422 2753 634 
Q 3047 847 3047 1241 
Q 3047 1584 2836 1778 
Q 2625 1972 2144 2069 
L 1759 2144 
Q 1053 2284 737 2584 
Q 422 2884 422 3419 
Q 422 4038 858 4394 
Q 1294 4750 2059 4750 
Q 2388 4750 2728 4690 
Q 3069 4631 3425 4513 
z
" id="DejaVuSans-53" transform="scale(0.015625)"/>
        <path d="M 3597 1894 
L 3597 1613 
L 953 1613 
Q 991 1019 1311 708 
Q 1631 397 2203 397 
Q 2534 397 2845 478 
Q 3156 559 3463 722 
L 3463 178 
Q 3153 47 2828 -22 
Q 2503 -91 2169 -91 
Q 1331 -91 842 396 
Q 353 884 353 1716 
Q 353 2575 817 3079 
Q 1281 3584 2069 3584 
Q 2775 3584 3186 3129 
Q 3597 2675 3597 1894 
z
M 3022 2063 
Q 3016 2534 2758 2815 
Q 2500 3097 2075 3097 
Q 1594 3097 1305 2825 
Q 1016 2553 972 2059 
L 3022 2063 
z
" id="DejaVuSans-65" transform="scale(0.015625)"/>
       </defs>
       <use xlink:href="#DejaVuSans-53"/>
       <use x="63.476562" xlink:href="#DejaVuSans-65"/>
       <use x="125" xlink:href="#DejaVuSans-70"/>
      </g>
     </g>
    </g>
    <g id="xtick_8">
     <g id="line2d_15">
      <path clip-path="url(#p18011c2b5c)" d="M 359.622157 384.48 
L 359.622157 51.84 
" style="fill:none;stroke:#000000;stroke-dasharray:0.8,1.32;stroke-dashoffset:0;stroke-width:0.8;"/>
     </g>
     <g id="line2d_16">
      <g>
       <use style="stroke:#000000;stroke-width:0.8;" x="359.622157" xlink:href="#maa0fae9637" y="384.48"/>
      </g>
     </g>
     <g id="text_8">
      <!-- Oct -->
      <g transform="translate(350.976845 399.078438)scale(0.1 -0.1)">
       <defs>
        <path d="M 2522 4238 
Q 1834 4238 1429 3725 
Q 1025 3213 1025 2328 
Q 1025 1447 1429 934 
Q 1834 422 2522 422 
Q 3209 422 3611 934 
Q 4013 1447 4013 2328 
Q 4013 3213 3611 3725 
Q 3209 4238 2522 4238 
z
M 2522 4750 
Q 3503 4750 4090 4092 
Q 4678 3434 4678 2328 
Q 4678 1225 4090 567 
Q 3503 -91 2522 -91 
Q 1538 -91 948 565 
Q 359 1222 359 2328 
Q 359 3434 948 4092 
Q 1538 4750 2522 4750 
z
" id="DejaVuSans-4f" transform="scale(0.015625)"/>
        <path d="M 3122 3366 
L 3122 2828 
Q 2878 2963 2633 3030 
Q 2388 3097 2138 3097 
Q 1578 3097 1268 2742 
Q 959 2388 959 1747 
Q 959 1106 1268 751 
Q 1578 397 2138 397 
Q 2388 397 2633 464 
Q 2878 531 3122 666 
L 3122 134 
Q 2881 22 2623 -34 
Q 2366 -91 2075 -91 
Q 1284 -91 818 406 
Q 353 903 353 1747 
Q 353 2603 823 3093 
Q 1294 3584 2113 3584 
Q 2378 3584 2631 3529 
Q 2884 3475 3122 3366 
z
" id="DejaVuSans-63" transform="scale(0.015625)"/>
        <path d="M 1172 4494 
L 1172 3500 
L 2356 3500 
L 2356 3053 
L 1172 3053 
L 1172 1153 
Q 1172 725 1289 603 
Q 1406 481 1766 481 
L 2356 481 
L 2356 0 
L 1766 0 
Q 1100 0 847 248 
Q 594 497 594 1153 
L 594 3053 
L 172 3053 
L 172 3500 
L 594 3500 
L 594 4494 
L 1172 4494 
z
" id="DejaVuSans-74" transform="scale(0.015625)"/>
       </defs>
       <use xlink:href="#DejaVuSans-4f"/>
       <use x="78.710938" xlink:href="#DejaVuSans-63"/>
       <use x="133.691406" xlink:href="#DejaVuSans-74"/>
      </g>
     </g>
    </g>
    <g id="xtick_9">
     <g id="line2d_17">
      <path clip-path="url(#p18011c2b5c)" d="M 399.967347 384.48 
L 399.967347 51.84 
" style="fill:none;stroke:#000000;stroke-dasharray:0.8,1.32;stroke-dashoffset:0;stroke-width:0.8;"/>
     </g>
     <g id="line2d_18">
      <g>
       <use style="stroke:#000000;stroke-width:0.8;" x="399.967347" xlink:href="#maa0fae9637" y="384.48"/>
      </g>
     </g>
     <g id="text_9">
      <!-- Nov -->
      <g transform="translate(390.207972 399.078438)scale(0.1 -0.1)">
       <defs>
        <path d="M 628 4666 
L 1478 4666 
L 3547 763 
L 3547 4666 
L 4159 4666 
L 4159 0 
L 3309 0 
L 1241 3903 
L 1241 0 
L 628 0 
L 628 4666 
z
" id="DejaVuSans-4e" transform="scale(0.015625)"/>
        <path d="M 1959 3097 
Q 1497 3097 1228 2736 
Q 959 2375 959 1747 
Q 959 1119 1226 758 
Q 1494 397 1959 397 
Q 2419 397 2687 759 
Q 2956 1122 2956 1747 
Q 2956 2369 2687 2733 
Q 2419 3097 1959 3097 
z
M 1959 3584 
Q 2709 3584 3137 3096 
Q 3566 2609 3566 1747 
Q 3566 888 3137 398 
Q 2709 -91 1959 -91 
Q 1206 -91 779 398 
Q 353 888 353 1747 
Q 353 2609 779 3096 
Q 1206 3584 1959 3584 
z
" id="DejaVuSans-6f" transform="scale(0.015625)"/>
        <path d="M 191 3500 
L 800 3500 
L 1894 563 
L 2988 3500 
L 3597 3500 
L 2284 0 
L 1503 0 
L 191 3500 
z
" id="DejaVuSans-76" transform="scale(0.015625)"/>
       </defs>
       <use xlink:href="#DejaVuSans-4e"/>
       <use x="74.804688" xlink:href="#DejaVuSans-6f"/>
       <use x="135.986328" xlink:href="#DejaVuSans-76"/>
      </g>
     </g>
    </g>
    <g id="xtick_10">
     <g id="line2d_19">
      <path clip-path="url(#p18011c2b5c)" d="M 439.011079 384.48 
L 439.011079 51.84 
" style="fill:none;stroke:#000000;stroke-dasharray:0.8,1.32;stroke-dashoffset:0;stroke-width:0.8;"/>
     </g>
     <g id="line2d_20">
      <g>
       <use style="stroke:#000000;stroke-width:0.8;" x="439.011079" xlink:href="#maa0fae9637" y="384.48"/>
      </g>
     </g>
     <g id="text_10">
      <!-- Dec -->
      <g transform="translate(429.335297 399.078438)scale(0.1 -0.1)">
       <defs>
        <path d="M 1259 4147 
L 1259 519 
L 2022 519 
Q 2988 519 3436 956 
Q 3884 1394 3884 2338 
Q 3884 3275 3436 3711 
Q 2988 4147 2022 4147 
L 1259 4147 
z
M 628 4666 
L 1925 4666 
Q 3281 4666 3915 4102 
Q 4550 3538 4550 2338 
Q 4550 1131 3912 565 
Q 3275 0 1925 0 
L 628 0 
L 628 4666 
z
" id="DejaVuSans-44" transform="scale(0.015625)"/>
       </defs>
       <use xlink:href="#DejaVuSans-44"/>
       <use x="77.001953" xlink:href="#DejaVuSans-65"/>
       <use x="138.525391" xlink:href="#DejaVuSans-63"/>
      </g>
     </g>
    </g>
    <g id="xtick_11">
     <g id="line2d_21">
      <path clip-path="url(#p18011c2b5c)" d="M 479.356268 384.48 
L 479.356268 51.84 
" style="fill:none;stroke:#000000;stroke-dasharray:0.8,1.32;stroke-dashoffset:0;stroke-width:0.8;"/>
     </g>
     <g id="line2d_22">
      <g>
       <use style="stroke:#000000;stroke-width:0.8;" x="479.356268" xlink:href="#maa0fae9637" y="384.48"/>
      </g>
     </g>
     <g id="text_11">
      <!-- 2022 -->
      <g transform="translate(466.631268 399.078438)scale(0.1 -0.1)">
       <defs>
        <path d="M 1228 531 
L 3431 531 
L 3431 0 
L 469 0 
L 469 531 
Q 828 903 1448 1529 
Q 2069 2156 2228 2338 
Q 2531 2678 2651 2914 
Q 2772 3150 2772 3378 
Q 2772 3750 2511 3984 
Q 2250 4219 1831 4219 
Q 1534 4219 1204 4116 
Q 875 4013 500 3803 
L 500 4441 
Q 881 4594 1212 4672 
Q 1544 4750 1819 4750 
Q 2544 4750 2975 4387 
Q 3406 4025 3406 3419 
Q 3406 3131 3298 2873 
Q 3191 2616 2906 2266 
Q 2828 2175 2409 1742 
Q 1991 1309 1228 531 
z
" id="DejaVuSans-32" transform="scale(0.015625)"/>
        <path d="M 2034 4250 
Q 1547 4250 1301 3770 
Q 1056 3291 1056 2328 
Q 1056 1369 1301 889 
Q 1547 409 2034 409 
Q 2525 409 2770 889 
Q 3016 1369 3016 2328 
Q 3016 3291 2770 3770 
Q 2525 4250 2034 4250 
z
M 2034 4750 
Q 2819 4750 3233 4129 
Q 3647 3509 3647 2328 
Q 3647 1150 3233 529 
Q 2819 -91 2034 -91 
Q 1250 -91 836 529 
Q 422 1150 422 2328 
Q 422 3509 836 4129 
Q 1250 4750 2034 4750 
z
" id="DejaVuSans-30" transform="scale(0.015625)"/>
       </defs>
       <use xlink:href="#DejaVuSans-32"/>
       <use x="63.623047" xlink:href="#DejaVuSans-30"/>
       <use x="127.246094" xlink:href="#DejaVuSans-32"/>
       <use x="190.869141" xlink:href="#DejaVuSans-32"/>
      </g>
     </g>
    </g>
   </g>
   <g id="matplotlib.axis_2">
    <g id="ytick_1">
     <g id="line2d_23">
      <path clip-path="url(#p18011c2b5c)" d="M 72 384.48 
L 518.4 384.48 
" style="fill:none;stroke:#000000;stroke-dasharray:0.8,1.32;stroke-dashoffset:0;stroke-width:0.8;"/>
     </g>
     <g id="line2d_24">
      <defs>
       <path d="M 0 0 
L -3.5 0 
" id="m08dc9e601c" style="stroke:#000000;stroke-width:0.8;"/>
      </defs>
      <g>
       <use style="stroke:#000000;stroke-width:0.8;" x="72" xlink:href="#m08dc9e601c" y="384.48"/>
      </g>
     </g>
     <g id="text_12">
      <!-- 0.0 -->
      <g transform="translate(49.096875 388.279219)scale(0.1 -0.1)">
       <defs>
        <path d="M 684 794 
L 1344 794 
L 1344 0 
L 684 0 
L 684 794 
z
" id="DejaVuSans-2e" transform="scale(0.015625)"/>
       </defs>
       <use xlink:href="#DejaVuSans-30"/>
       <use x="63.623047" xlink:href="#DejaVuSans-2e"/>
       <use x="95.410156" xlink:href="#DejaVuSans-30"/>
      </g>
     </g>
    </g>
    <g id="ytick_2">
     <g id="line2d_25">
      <path clip-path="url(#p18011c2b5c)" d="M 72 345.855974 
L 518.4 345.855974 
" style="fill:none;stroke:#000000;stroke-dasharray:0.8,1.32;stroke-dashoffset:0;stroke-width:0.8;"/>
     </g>
     <g id="line2d_26">
      <g>
       <use style="stroke:#000000;stroke-width:0.8;" x="72" xlink:href="#m08dc9e601c" y="345.855974"/>
      </g>
     </g>
     <g id="text_13">
      <!-- 2.5 -->
      <g transform="translate(49.096875 349.655193)scale(0.1 -0.1)">
       <defs>
        <path d="M 691 4666 
L 3169 4666 
L 3169 4134 
L 1269 4134 
L 1269 2991 
Q 1406 3038 1543 3061 
Q 1681 3084 1819 3084 
Q 2600 3084 3056 2656 
Q 3513 2228 3513 1497 
Q 3513 744 3044 326 
Q 2575 -91 1722 -91 
Q 1428 -91 1123 -41 
Q 819 9 494 109 
L 494 744 
Q 775 591 1075 516 
Q 1375 441 1709 441 
Q 2250 441 2565 725 
Q 2881 1009 2881 1497 
Q 2881 1984 2565 2268 
Q 2250 2553 1709 2553 
Q 1456 2553 1204 2497 
Q 953 2441 691 2322 
L 691 4666 
z
" id="DejaVuSans-35" transform="scale(0.015625)"/>
       </defs>
       <use xlink:href="#DejaVuSans-32"/>
       <use x="63.623047" xlink:href="#DejaVuSans-2e"/>
       <use x="95.410156" xlink:href="#DejaVuSans-35"/>
      </g>
     </g>
    </g>
    <g id="ytick_3">
     <g id="line2d_27">
      <path clip-path="url(#p18011c2b5c)" d="M 72 307.231948 
L 518.4 307.231948 
" style="fill:none;stroke:#000000;stroke-dasharray:0.8,1.32;stroke-dashoffset:0;stroke-width:0.8;"/>
     </g>
     <g id="line2d_28">
      <g>
       <use style="stroke:#000000;stroke-width:0.8;" x="72" xlink:href="#m08dc9e601c" y="307.231948"/>
      </g>
     </g>
     <g id="text_14">
      <!-- 5.0 -->
      <g transform="translate(49.096875 311.031167)scale(0.1 -0.1)">
       <use xlink:href="#DejaVuSans-35"/>
       <use x="63.623047" xlink:href="#DejaVuSans-2e"/>
       <use x="95.410156" xlink:href="#DejaVuSans-30"/>
      </g>
     </g>
    </g>
    <g id="ytick_4">
     <g id="line2d_29">
      <path clip-path="url(#p18011c2b5c)" d="M 72 268.607922 
L 518.4 268.607922 
" style="fill:none;stroke:#000000;stroke-dasharray:0.8,1.32;stroke-dashoffset:0;stroke-width:0.8;"/>
     </g>
     <g id="line2d_30">
      <g>
       <use style="stroke:#000000;stroke-width:0.8;" x="72" xlink:href="#m08dc9e601c" y="268.607922"/>
      </g>
     </g>
     <g id="text_15">
      <!-- 7.5 -->
      <g transform="translate(49.096875 272.407141)scale(0.1 -0.1)">
       <defs>
        <path d="M 525 4666 
L 3525 4666 
L 3525 4397 
L 1831 0 
L 1172 0 
L 2766 4134 
L 525 4134 
L 525 4666 
z
" id="DejaVuSans-37" transform="scale(0.015625)"/>
       </defs>
       <use xlink:href="#DejaVuSans-37"/>
       <use x="63.623047" xlink:href="#DejaVuSans-2e"/>
       <use x="95.410156" xlink:href="#DejaVuSans-35"/>
      </g>
     </g>
    </g>
    <g id="ytick_5">
     <g id="line2d_31">
      <path clip-path="url(#p18011c2b5c)" d="M 72 229.983896 
L 518.4 229.983896 
" style="fill:none;stroke:#000000;stroke-dasharray:0.8,1.32;stroke-dashoffset:0;stroke-width:0.8;"/>
     </g>
     <g id="line2d_32">
      <g>
       <use style="stroke:#000000;stroke-width:0.8;" x="72" xlink:href="#m08dc9e601c" y="229.983896"/>
      </g>
     </g>
     <g id="text_16">
      <!-- 10.0 -->
      <g transform="translate(42.734375 233.783115)scale(0.1 -0.1)">
       <defs>
        <path d="M 794 531 
L 1825 531 
L 1825 4091 
L 703 3866 
L 703 4441 
L 1819 4666 
L 2450 4666 
L 2450 531 
L 3481 531 
L 3481 0 
L 794 0 
L 794 531 
z
" id="DejaVuSans-31" transform="scale(0.015625)"/>
       </defs>
       <use xlink:href="#DejaVuSans-31"/>
       <use x="63.623047" xlink:href="#DejaVuSans-30"/>
       <use x="127.246094" xlink:href="#DejaVuSans-2e"/>
       <use x="159.033203" xlink:href="#DejaVuSans-30"/>
      </g>
     </g>
    </g>
    <g id="ytick_6">
     <g id="line2d_33">
      <path clip-path="url(#p18011c2b5c)" d="M 72 191.35987 
L 518.4 191.35987 
" style="fill:none;stroke:#000000;stroke-dasharray:0.8,1.32;stroke-dashoffset:0;stroke-width:0.8;"/>
     </g>
     <g id="line2d_34">
      <g>
       <use style="stroke:#000000;stroke-width:0.8;" x="72" xlink:href="#m08dc9e601c" y="191.35987"/>
      </g>
     </g>
     <g id="text_17">
      <!-- 12.5 -->
      <g transform="translate(42.734375 195.159089)scale(0.1 -0.1)">
       <use xlink:href="#DejaVuSans-31"/>
       <use x="63.623047" xlink:href="#DejaVuSans-32"/>
       <use x="127.246094" xlink:href="#DejaVuSans-2e"/>
       <use x="159.033203" xlink:href="#DejaVuSans-35"/>
      </g>
     </g>
    </g>
    <g id="ytick_7">
     <g id="line2d_35">
      <path clip-path="url(#p18011c2b5c)" d="M 72 152.735844 
L 518.4 152.735844 
" style="fill:none;stroke:#000000;stroke-dasharray:0.8,1.32;stroke-dashoffset:0;stroke-width:0.8;"/>
     </g>
     <g id="line2d_36">
      <g>
       <use style="stroke:#000000;stroke-width:0.8;" x="72" xlink:href="#m08dc9e601c" y="152.735844"/>
      </g>
     </g>
     <g id="text_18">
      <!-- 15.0 -->
      <g transform="translate(42.734375 156.535063)scale(0.1 -0.1)">
       <use xlink:href="#DejaVuSans-31"/>
       <use x="63.623047" xlink:href="#DejaVuSans-35"/>
       <use x="127.246094" xlink:href="#DejaVuSans-2e"/>
       <use x="159.033203" xlink:href="#DejaVuSans-30"/>
      </g>
     </g>
    </g>
    <g id="ytick_8">
     <g id="line2d_37">
      <path clip-path="url(#p18011c2b5c)" d="M 72 114.111818 
L 518.4 114.111818 
" style="fill:none;stroke:#000000;stroke-dasharray:0.8,1.32;stroke-dashoffset:0;stroke-width:0.8;"/>
     </g>
     <g id="line2d_38">
      <g>
       <use style="stroke:#000000;stroke-width:0.8;" x="72" xlink:href="#m08dc9e601c" y="114.111818"/>
      </g>
     </g>
     <g id="text_19">
      <!-- 17.5 -->
      <g transform="translate(42.734375 117.911036)scale(0.1 -0.1)">
       <use xlink:href="#DejaVuSans-31"/>
       <use x="63.623047" xlink:href="#DejaVuSans-37"/>
       <use x="127.246094" xlink:href="#DejaVuSans-2e"/>
       <use x="159.033203" xlink:href="#DejaVuSans-35"/>
      </g>
     </g>
    </g>
    <g id="ytick_9">
     <g id="line2d_39">
      <path clip-path="url(#p18011c2b5c)" d="M 72 75.487792 
L 518.4 75.487792 
" style="fill:none;stroke:#000000;stroke-dasharray:0.8,1.32;stroke-dashoffset:0;stroke-width:0.8;"/>
     </g>
     <g id="line2d_40">
      <g>
       <use style="stroke:#000000;stroke-width:0.8;" x="72" xlink:href="#m08dc9e601c" y="75.487792"/>
      </g>
     </g>
     <g id="text_20">
      <!-- 20.0 -->
      <g transform="translate(42.734375 79.28701)scale(0.1 -0.1)">
       <use xlink:href="#DejaVuSans-32"/>
       <use x="63.623047" xlink:href="#DejaVuSans-30"/>
       <use x="127.246094" xlink:href="#DejaVuSans-2e"/>
       <use x="159.033203" xlink:href="#DejaVuSans-30"/>
      </g>
     </g>
    </g>
    <g id="text_21">
     <!-- Cumulative doses (millions) -->
     <g transform="translate(36.654687 287.556094)rotate(-90)scale(0.1 -0.1)">
      <defs>
       <path d="M 4122 4306 
L 4122 3641 
Q 3803 3938 3442 4084 
Q 3081 4231 2675 4231 
Q 1875 4231 1450 3742 
Q 1025 3253 1025 2328 
Q 1025 1406 1450 917 
Q 1875 428 2675 428 
Q 3081 428 3442 575 
Q 3803 722 4122 1019 
L 4122 359 
Q 3791 134 3420 21 
Q 3050 -91 2638 -91 
Q 1578 -91 968 557 
Q 359 1206 359 2328 
Q 359 3453 968 4101 
Q 1578 4750 2638 4750 
Q 3056 4750 3426 4639 
Q 3797 4528 4122 4306 
z
" id="DejaVuSans-43" transform="scale(0.015625)"/>
       <path d="M 3328 2828 
Q 3544 3216 3844 3400 
Q 4144 3584 4550 3584 
Q 5097 3584 5394 3201 
Q 5691 2819 5691 2113 
L 5691 0 
L 5113 0 
L 5113 2094 
Q 5113 2597 4934 2840 
Q 4756 3084 4391 3084 
Q 3944 3084 3684 2787 
Q 3425 2491 3425 1978 
L 3425 0 
L 2847 0 
L 2847 2094 
Q 2847 2600 2669 2842 
Q 2491 3084 2119 3084 
Q 1678 3084 1418 2786 
Q 1159 2488 1159 1978 
L 1159 0 
L 581 0 
L 581 3500 
L 1159 3500 
L 1159 2956 
Q 1356 3278 1631 3431 
Q 1906 3584 2284 3584 
Q 2666 3584 2933 3390 
Q 3200 3197 3328 2828 
z
" id="DejaVuSans-6d" transform="scale(0.015625)"/>
       <path d="M 603 3500 
L 1178 3500 
L 1178 0 
L 603 0 
L 603 3500 
z
M 603 4863 
L 1178 4863 
L 1178 4134 
L 603 4134 
L 603 4863 
z
" id="DejaVuSans-69" transform="scale(0.015625)"/>
       <path id="DejaVuSans-20" transform="scale(0.015625)"/>
       <path d="M 2906 2969 
L 2906 4863 
L 3481 4863 
L 3481 0 
L 2906 0 
L 2906 525 
Q 2725 213 2448 61 
Q 2172 -91 1784 -91 
Q 1150 -91 751 415 
Q 353 922 353 1747 
Q 353 2572 751 3078 
Q 1150 3584 1784 3584 
Q 2172 3584 2448 3432 
Q 2725 3281 2906 2969 
z
M 947 1747 
Q 947 1113 1208 752 
Q 1469 391 1925 391 
Q 2381 391 2643 752 
Q 2906 1113 2906 1747 
Q 2906 2381 2643 2742 
Q 2381 3103 1925 3103 
Q 1469 3103 1208 2742 
Q 947 2381 947 1747 
z
" id="DejaVuSans-64" transform="scale(0.015625)"/>
       <path d="M 2834 3397 
L 2834 2853 
Q 2591 2978 2328 3040 
Q 2066 3103 1784 3103 
Q 1356 3103 1142 2972 
Q 928 2841 928 2578 
Q 928 2378 1081 2264 
Q 1234 2150 1697 2047 
L 1894 2003 
Q 2506 1872 2764 1633 
Q 3022 1394 3022 966 
Q 3022 478 2636 193 
Q 2250 -91 1575 -91 
Q 1294 -91 989 -36 
Q 684 19 347 128 
L 347 722 
Q 666 556 975 473 
Q 1284 391 1588 391 
Q 1994 391 2212 530 
Q 2431 669 2431 922 
Q 2431 1156 2273 1281 
Q 2116 1406 1581 1522 
L 1381 1569 
Q 847 1681 609 1914 
Q 372 2147 372 2553 
Q 372 3047 722 3315 
Q 1072 3584 1716 3584 
Q 2034 3584 2315 3537 
Q 2597 3491 2834 3397 
z
" id="DejaVuSans-73" transform="scale(0.015625)"/>
       <path d="M 1984 4856 
Q 1566 4138 1362 3434 
Q 1159 2731 1159 2009 
Q 1159 1288 1364 580 
Q 1569 -128 1984 -844 
L 1484 -844 
Q 1016 -109 783 600 
Q 550 1309 550 2009 
Q 550 2706 781 3412 
Q 1013 4119 1484 4856 
L 1984 4856 
z
" id="DejaVuSans-28" transform="scale(0.015625)"/>
       <path d="M 513 4856 
L 1013 4856 
Q 1481 4119 1714 3412 
Q 1947 2706 1947 2009 
Q 1947 1309 1714 600 
Q 1481 -109 1013 -844 
L 513 -844 
Q 928 -128 1133 580 
Q 1338 1288 1338 2009 
Q 1338 2731 1133 3434 
Q 928 4138 513 4856 
z
" id="DejaVuSans-29" transform="scale(0.015625)"/>
      </defs>
      <use xlink:href="#DejaVuSans-43"/>
      <use x="69.824219" xlink:href="#DejaVuSans-75"/>
      <use x="133.203125" xlink:href="#DejaVuSans-6d"/>
      <use x="230.615234" xlink:href="#DejaVuSans-75"/>
      <use x="293.994141" xlink:href="#DejaVuSans-6c"/>
      <use x="321.777344" xlink:href="#DejaVuSans-61"/>
      <use x="383.056641" xlink:href="#DejaVuSans-74"/>
      <use x="422.265625" xlink:href="#DejaVuSans-69"/>
      <use x="450.048828" xlink:href="#DejaVuSans-76"/>
      <use x="509.228516" xlink:href="#DejaVuSans-65"/>
      <use x="570.751953" xlink:href="#DejaVuSans-20"/>
      <use x="602.539062" xlink:href="#DejaVuSans-64"/>
      <use x="666.015625" xlink:href="#DejaVuSans-6f"/>
      <use x="727.197266" xlink:href="#DejaVuSans-73"/>
      <use x="779.296875" xlink:href="#DejaVuSans-65"/>
      <use x="840.820312" xlink:href="#DejaVuSans-73"/>
      <use x="892.919922" xlink:href="#DejaVuSans-20"/>
      <use x="924.707031" xlink:href="#DejaVuSans-28"/>
      <use x="963.720703" xlink:href="#DejaVuSans-6d"/>
      <use x="1061.132812" xlink:href="#DejaVuSans-69"/>
      <use x="1088.916016" xlink:href="#DejaVuSans-6c"/>
      <use x="1116.699219" xlink:href="#DejaVuSans-6c"/>
      <use x="1144.482422" xlink:href="#DejaVuSans-69"/>
      <use x="1172.265625" xlink:href="#DejaVuSans-6f"/>
      <use x="1233.447266" xlink:href="#DejaVuSans-6e"/>
      <use x="1296.826172" xlink:href="#DejaVuSans-73"/>
      <use x="1348.925781" xlink:href="#DejaVuSans-29"/>
     </g>
    </g>
   </g>
   <g id="line2d_41">
    <path clip-path="url(#p18011c2b5c)" d="M 72 384.425459 
L 72 384.367469 
L 74.602915 384.305804 
L 74.602915 384.240229 
L 77.205831 384.170498 
L 77.205831 384.096353 
L 79.808746 384.017524 
L 79.808746 383.933732 
L 82.411662 383.844684 
L 82.411662 383.750075 
L 85.014577 383.649585 
L 85.014577 383.542882 
L 86.316035 383.542882 
L 86.316035 383.429616 
L 87.617493 383.429616 
L 87.617493 383.309415 
L 88.91895 383.309415 
L 88.91895 383.181885 
L 90.220408 383.181885 
L 90.220408 383.046599 
L 91.521866 383.046599 
L 91.521866 382.90309 
L 92.823324 382.90309 
L 92.823324 382.750837 
L 94.124781 382.750837 
L 94.124781 382.589258 
L 95.426239 382.589258 
L 95.426239 382.417691 
L 96.727697 382.417691 
L 96.727697 382.235389 
L 98.029155 382.235389 
L 98.029155 382.041507 
L 99.330612 382.041507 
L 99.330612 381.8351 
L 100.63207 381.8351 
L 100.63207 381.615132 
L 101.933528 381.615132 
L 101.933528 381.380487 
L 103.234985 381.380487 
L 103.234985 381.129997 
L 104.536443 381.129997 
L 104.536443 380.862483 
L 105.837901 380.862483 
L 105.837901 380.576801 
L 107.139359 380.576801 
L 107.139359 380.271899 
L 108.440816 380.271899 
L 108.440816 379.946877 
L 109.742274 379.946877 
L 109.742274 379.601052 
L 111.043732 379.601052 
L 111.043732 379.234007 
L 112.34519 379.234007 
L 112.34519 378.845628 
L 113.646647 378.845628 
L 113.646647 378.436123 
L 114.948105 378.436123 
L 114.948105 378.006019 
L 116.249563 378.006019 
L 116.249563 377.55614 
L 117.55102 377.55614 
L 117.55102 377.087555 
L 118.852478 377.087555 
L 118.852478 376.601505 
L 120.153936 376.601505 
L 120.153936 376.099331 
L 121.455394 376.099331 
L 121.455394 375.582378 
L 122.756851 375.582378 
L 122.756851 375.051919 
L 124.058309 375.051919 
L 124.058309 374.509076 
L 125.359767 374.509076 
L 125.359767 373.954771 
L 126.661224 373.954771 
L 126.661224 373.389685 
L 127.962682 373.389685 
L 127.962682 372.81426 
L 129.26414 372.81426 
L 129.26414 372.228713 
L 130.565598 372.228713 
L 130.565598 371.633076 
L 131.867055 371.633076 
L 131.867055 371.027259 
L 133.168513 371.027259 
L 133.168513 370.411121 
L 134.469971 370.411121 
L 134.469971 369.784539 
L 135.771429 369.784539 
L 135.771429 369.147488 
L 137.072886 369.147488 
L 137.072886 368.500101 
L 138.374344 368.500101 
L 138.374344 367.842718 
L 139.675802 367.842718 
L 139.675802 367.175916 
L 140.977259 367.175916 
L 140.977259 366.500511 
L 142.278717 366.500511 
L 142.278717 365.817547 
L 143.580175 365.817547 
L 143.580175 365.128252 
L 144.881633 365.128252 
L 144.881633 364.433976 
L 146.18309 364.433976 
L 146.18309 363.736119 
L 147.484548 363.736119 
L 147.484548 363.03604 
L 148.786006 363.03604 
L 148.786006 362.334967 
L 150.087464 362.334967 
L 150.087464 361.633909 
L 151.388921 361.633909 
L 151.388921 360.933587 
L 152.690379 360.933587 
L 152.690379 360.234373 
L 153.991837 360.234373 
L 153.991837 359.536261 
L 155.293294 359.536261 
L 155.293294 358.838859 
L 156.594752 358.838859 
L 156.594752 358.141417 
L 157.89621 358.141417 
L 157.89621 357.442867 
L 159.197668 357.442867 
L 159.197668 356.741894 
L 160.499125 356.741894 
L 160.499125 356.037013 
L 161.800583 356.037013 
L 161.800583 355.326662 
L 163.102041 355.326662 
L 163.102041 354.609277 
L 164.403499 354.609277 
L 164.403499 353.883377 
L 165.704956 353.883377 
L 165.704956 353.147613 
L 167.006414 353.147613 
L 167.006414 352.400819 
L 168.307872 352.400819 
L 168.307872 351.64202 
L 169.609329 351.64202 
L 169.609329 350.870432 
L 170.910787 350.870432 
L 170.910787 350.085438 
L 172.212245 350.085438 
L 172.212245 349.286549 
L 173.513703 349.286549 
L 173.513703 348.473353 
L 174.81516 348.473353 
L 174.81516 347.645462 
L 176.116618 347.645462 
L 176.116618 346.802451 
L 177.418076 346.802451 
L 177.418076 345.943813 
L 178.719534 345.943813 
L 178.719534 345.068918 
L 180.020991 345.068918 
L 180.020991 344.17698 
L 181.322449 344.17698 
L 181.322449 343.267049 
L 182.623907 343.267049 
L 182.623907 342.338003 
L 183.925364 342.338003 
L 183.925364 341.388567 
L 185.226822 341.388567 
L 185.226822 340.417339 
L 186.52828 340.417339 
L 186.52828 339.422835 
L 187.829738 339.422835 
L 187.829738 338.403533 
L 189.131195 338.403533 
L 189.131195 337.35794 
L 190.432653 337.35794 
L 190.432653 336.284652 
L 191.734111 336.284652 
L 191.734111 335.182435 
L 193.035569 335.182435 
L 193.035569 334.050297 
L 194.337026 334.050297 
L 194.337026 332.887564 
L 195.638484 332.887564 
L 195.638484 331.693951 
L 196.939942 331.693951 
L 196.939942 330.469633 
L 198.241399 330.469633 
L 198.241399 329.215303 
L 199.542857 329.215303 
L 199.542857 327.932222 
L 200.844315 327.932222 
L 200.844315 326.622246 
L 202.145773 326.622246 
L 202.145773 325.287835 
L 203.44723 325.287835 
L 203.44723 323.932044 
L 204.748688 323.932044 
L 204.748688 322.558482 
L 206.050146 322.558482 
L 206.050146 321.171249 
L 207.351603 321.171249 
L 207.351603 319.774836 
L 208.653061 319.774836 
L 208.653061 318.374019 
L 209.954519 318.374019 
L 209.954519 316.973713 
L 211.255977 316.973713 
L 211.255977 315.578823 
L 212.557434 315.578823 
L 212.557434 314.194083 
L 213.858892 314.194083 
L 213.858892 312.8239 
L 215.16035 312.8239 
L 215.16035 311.472197 
L 216.461808 311.472197 
L 216.461808 310.142289 
L 217.763265 310.142289 
L 217.763265 308.836777 
L 219.064723 308.836777 
L 219.064723 307.55748 
L 220.366181 307.55748 
L 220.366181 306.305405 
L 221.667638 306.305405 
L 221.667638 305.080751 
L 222.969096 305.080751 
L 222.969096 303.882961 
L 224.270554 303.882961 
L 224.270554 302.710805 
L 225.572012 302.710805 
L 225.572012 301.562492 
L 226.873469 301.562492 
L 226.873469 300.435814 
L 228.174927 300.435814 
L 228.174927 299.328298 
L 229.476385 299.328298 
L 229.476385 298.237368 
L 230.777843 298.237368 
L 230.777843 297.160513 
L 232.0793 297.160513 
L 232.0793 296.095432 
L 233.380758 296.095432 
L 233.380758 295.040173 
L 234.682216 295.040173 
L 234.682216 293.993243 
L 235.983673 293.993243 
L 235.983673 292.953691 
L 237.285131 292.953691 
L 237.285131 291.921152 
L 238.586589 291.921152 
L 238.586589 290.895863 
L 239.888047 290.895863 
L 239.888047 289.878633 
L 241.189504 289.878633 
L 241.189504 288.870785 
L 242.490962 288.870785 
L 242.490962 287.874066 
L 243.79242 287.874066 
L 243.79242 286.89053 
L 245.093878 286.89053 
L 245.093878 285.922408 
L 246.395335 285.922408 
L 246.395335 284.97196 
L 247.696793 284.97196 
L 247.696793 284.041344 
L 248.998251 284.041344 
L 248.998251 283.132474 
L 250.299708 283.132474 
L 250.299708 282.246907 
L 251.601166 282.246907 
L 251.601166 281.38575 
L 252.902624 281.38575 
L 252.902624 280.549587 
L 254.204082 280.549587 
L 254.204082 279.738442 
L 255.505539 279.738442 
L 255.505539 278.951764 
L 256.806997 278.951764 
L 256.806997 278.18845 
L 258.108455 278.18845 
L 258.108455 277.44688 
L 259.409913 277.44688 
L 259.409913 276.724977 
L 260.71137 276.724977 
L 260.71137 276.020287 
L 262.012828 276.020287 
L 262.012828 275.330062 
L 263.314286 275.330062 
L 263.314286 274.651352 
L 264.615743 274.651352 
L 264.615743 273.981094 
L 265.917201 273.981094 
L 265.917201 273.316201 
L 267.218659 273.316201 
L 267.218659 272.653643 
L 268.520117 272.653643 
L 268.520117 271.990514 
L 269.821574 271.990514 
L 269.821574 271.324095 
L 271.123032 271.324095 
L 271.123032 270.651895 
L 272.42449 270.651895 
L 272.42449 269.971681 
L 273.725948 269.971681 
L 273.725948 269.281504 
L 275.027405 269.281504 
L 275.027405 268.579694 
L 276.328863 268.579694 
L 276.328863 267.864866 
L 277.630321 267.864866 
L 277.630321 267.135899 
L 278.931778 267.135899 
L 278.931778 266.391918 
L 280.233236 266.391918 
L 280.233236 265.632271 
L 281.534694 265.632271 
L 281.534694 264.856495 
L 282.836152 264.856495 
L 282.836152 264.064296 
L 284.137609 264.064296 
L 284.137609 263.255517 
L 285.439067 263.255517 
L 285.439067 262.430115 
L 286.740525 262.430115 
L 286.740525 261.588144 
L 288.041983 261.588144 
L 288.041983 260.729739 
L 289.34344 260.729739 
L 289.34344 259.855105 
L 290.644898 259.855105 
L 290.644898 258.964512 
L 291.946356 258.964512 
L 291.946356 258.058282 
L 293.247813 258.058282 
L 293.247813 257.136793 
L 294.549271 257.136793 
L 294.549271 256.200475 
L 295.850729 256.200475 
L 295.850729 255.249807 
L 297.152187 255.249807 
L 297.152187 254.285311 
L 298.453644 254.285311 
L 298.453644 253.307548 
L 299.755102 253.307548 
L 299.755102 252.317117 
L 301.05656 252.317117 
L 301.05656 251.314641 
L 302.358017 251.314641 
L 302.358017 250.300764 
L 303.659475 250.300764 
L 303.659475 249.276146 
L 304.960933 249.276146 
L 304.960933 248.24145 
L 306.262391 248.24145 
L 306.262391 247.197343 
L 307.563848 247.197343 
L 307.563848 246.144488 
L 308.865306 246.144488 
L 308.865306 245.08354 
L 310.166764 245.08354 
L 310.166764 244.015147 
L 311.468222 244.015147 
L 311.468222 242.939944 
L 312.769679 242.939944 
L 312.769679 241.858557 
L 314.071137 241.858557 
L 314.071137 240.771603 
L 315.372595 240.771603 
L 315.372595 239.679686 
L 316.674052 239.679686 
L 316.674052 238.583402 
L 317.97551 238.583402 
L 317.97551 237.483336 
L 319.276968 237.483336 
L 319.276968 236.38006 
L 320.578426 236.38006 
L 320.578426 235.274133 
L 321.879883 235.274133 
L 321.879883 234.166094 
L 323.181341 234.166094 
L 323.181341 233.056461 
L 324.482799 233.056461 
L 324.482799 231.945723 
L 325.784257 231.945723 
L 325.784257 230.834336 
L 327.085714 230.834336 
L 327.085714 229.722717 
L 328.387172 229.722717 
L 328.387172 228.61124 
L 329.68863 228.61124 
L 329.68863 227.500229 
L 330.990087 227.500229 
L 330.990087 226.389956 
L 332.291545 226.389956 
L 332.291545 225.280638 
L 333.593003 225.280638 
L 333.593003 224.17243 
L 334.894461 224.17243 
L 334.894461 223.065424 
L 336.195918 223.065424 
L 336.195918 221.959641 
L 337.497376 221.959641 
L 337.497376 220.855026 
L 338.798834 220.855026 
L 338.798834 219.751435 
L 340.100292 219.751435 
L 340.100292 218.648621 
L 341.401749 218.648621 
L 341.401749 217.546219 
L 342.703207 217.546219 
L 342.703207 216.443717 
L 344.004665 216.443717 
L 344.004665 215.340432 
L 345.306122 215.340432 
L 345.306122 214.23548 
L 346.60758 214.23548 
L 346.60758 213.127743 
L 347.909038 213.127743 
L 347.909038 212.015836 
L 349.210496 212.015836 
L 349.210496 210.898083 
L 350.511953 210.898083 
L 350.511953 209.772494 
L 351.813411 209.772494 
L 351.813411 208.636761 
L 353.114869 208.636761 
L 353.114869 207.488258 
L 354.416327 207.488258 
L 354.416327 206.324071 
L 355.717784 206.324071 
L 355.717784 205.141034 
L 357.019242 205.141034 
L 357.019242 203.935796 
L 358.3207 203.935796 
L 358.3207 202.704893 
L 359.622157 202.704893 
L 359.622157 201.444845 
L 360.923615 201.444845 
L 360.923615 200.152254 
L 362.225073 200.152254 
L 362.225073 198.82391 
L 363.526531 198.82391 
L 363.526531 197.456884 
L 364.827988 197.456884 
L 364.827988 196.048625 
L 366.129446 196.048625 
L 366.129446 194.597028 
L 367.430904 194.597028 
L 367.430904 193.100485 
L 368.732362 193.100485 
L 368.732362 191.557917 
L 370.033819 191.557917 
L 370.033819 189.968778 
L 371.335277 189.968778 
L 371.335277 188.333036 
L 372.636735 188.333036 
L 372.636735 186.651141 
L 373.938192 186.651141 
L 373.938192 184.923968 
L 375.23965 184.923968 
L 375.23965 183.152757 
L 376.541108 183.152757 
L 376.541108 181.339044 
L 377.842566 181.339044 
L 377.842566 179.484595 
L 379.144023 179.484595 
L 379.144023 177.591334 
L 380.445481 177.591334 
L 380.445481 175.661286 
L 381.746939 175.661286 
L 381.746939 173.696524 
L 383.048397 173.696524 
L 383.048397 171.699124 
L 384.349854 171.699124 
L 384.349854 169.67113 
L 385.651312 169.67113 
L 385.651312 167.614526 
L 386.95277 167.614526 
L 386.95277 165.53122 
L 388.254227 165.53122 
L 388.254227 163.423027 
L 389.555685 163.423027 
L 389.555685 161.291666 
L 390.857143 161.291666 
L 390.857143 159.138753 
L 392.158601 159.138753 
L 392.158601 156.965807 
L 393.460058 156.965807 
L 393.460058 154.774243 
L 394.761516 154.774243 
L 394.761516 152.565384 
L 396.062974 152.565384 
L 396.062974 150.340462 
L 397.364431 150.340462 
L 397.364431 148.100623 
L 398.665889 148.100623 
L 398.665889 145.846931 
L 399.967347 145.846931 
L 399.967347 143.580378 
L 401.268805 143.580378 
L 401.268805 141.301885 
L 402.570262 141.301885 
L 402.570262 139.012304 
L 403.87172 139.012304 
L 403.87172 136.71243 
L 405.173178 136.71243 
L 405.173178 134.402999 
L 406.474636 134.402999 
L 406.474636 132.084696 
L 407.776093 132.084696 
L 407.776093 129.758154 
L 409.077551 129.758154 
L 409.077551 127.423963 
L 410.379009 127.423963 
L 410.379009 125.082675 
L 411.680466 125.082675 
L 411.680466 122.734807 
L 412.981924 122.734807 
L 412.981924 120.380847 
L 414.283382 120.380847 
L 414.283382 118.02126 
L 415.58484 118.02126 
L 415.58484 115.656494 
L 416.886297 115.656494 
L 416.886297 113.287002 
L 418.187755 113.287002 
L 418.187755 110.913248 
L 419.489213 110.913248 
L 419.489213 108.535735 
L 420.790671 108.535735 
L 420.790671 106.15503 
L 422.092128 106.15503 
L 422.092128 103.77181 
L 423.393586 103.77181 
L 423.393586 101.386913 
L 424.695044 101.386913 
L 424.695044 99.001407 
L 425.996501 99.001407 
L 425.996501 96.616674 
L 427.297959 96.616674 
L 427.297959 94.234506 
L 428.599417 94.234506 
L 428.599417 91.857218 
L 429.900875 91.857218 
L 429.900875 89.487774 
L 431.202332 89.487774 
L 431.202332 87.12991 
L 432.50379 87.12991 
L 432.50379 84.788252 
L 433.805248 84.788252 
L 433.805248 82.468423 
L 435.106706 82.468423 
L 435.106706 80.177108 
L 436.408163 80.177108 
L 436.408163 77.922074 
L 437.709621 77.922074 
L 437.709621 75.712131 
L 439.011079 75.712131 
L 439.011079 73.557016 
L 440.312536 73.557016 
L 440.312536 71.467191 
L 441.613994 71.467191 
L 441.613994 69.453566 
L 442.915452 69.453566 
L 442.915452 67.52714 
L 444.21691 67.52714 
L 444.21691 65.698588 
L 445.518367 65.698588 
L 445.518367 63.977808 
L 446.819825 63.977808 
L 446.819825 62.37347 
L 448.121283 62.37347 
L 448.121283 60.892585 
L 449.422741 60.892585 
L 449.422741 59.540154 
L 450.724198 59.540154 
L 450.724198 58.318895 
L 452.025656 58.318895 
L 452.025656 57.2291 
L 453.327114 57.2291 
L 453.327114 56.268622 
L 454.628571 56.268622 
L 454.628571 55.432995 
L 455.930029 55.432995 
L 455.930029 54.715673 
L 457.231487 54.715673 
L 457.231487 54.10838 
L 458.532945 54.10838 
L 458.532945 53.60152 
L 459.834402 53.60152 
L 459.834402 53.184634 
L 461.13586 53.184634 
L 461.13586 52.846855 
L 462.437318 52.846855 
L 462.437318 52.577334 
L 463.738776 52.577334 
L 463.738776 52.365613 
L 465.040233 52.365613 
L 465.040233 52.201922 
L 466.341691 52.201922 
L 466.341691 52.077397 
L 468.944606 51.98421 
L 468.944606 51.915629 
L 474.150437 51.806027 
L 474.150437 51.789081 
L 518.4 51.757444 
L 518.4 51.757444 
" style="fill:none;stroke:#1f77b4;stroke-linecap:square;stroke-width:1.5;"/>
   </g>
   <g id="line2d_42">
    <path clip-path="url(#p18011c2b5c)" d="M 72 384.479997 
L 72 384.47999 
L 101.933528 384.389233 
L 101.933528 384.365678 
L 107.139359 384.267666 
L 107.139359 384.224957 
L 111.043732 384.123686 
L 111.043732 384.065189 
L 113.646647 384.001649 
L 113.646647 383.933318 
L 116.249563 383.860511 
L 116.249563 383.783587 
L 118.852478 383.70293 
L 118.852478 383.618925 
L 121.455394 383.531942 
L 121.455394 383.442314 
L 124.058309 383.35033 
L 124.058309 383.256223 
L 126.661224 383.160174 
L 126.661224 383.062307 
L 129.26414 382.962705 
L 129.26414 382.861416 
L 131.867055 382.758465 
L 131.867055 382.653868 
L 134.469971 382.547645 
L 134.469971 382.439828 
L 137.072886 382.330471 
L 137.072886 382.219653 
L 138.374344 382.219653 
L 138.374344 382.107479 
L 139.675802 382.107479 
L 139.675802 381.994085 
L 140.977259 381.994085 
L 140.977259 381.879633 
L 142.278717 381.879633 
L 142.278717 381.764311 
L 143.580175 381.764311 
L 143.580175 381.648326 
L 144.881633 381.648326 
L 144.881633 381.531908 
L 146.18309 381.531908 
L 146.18309 381.415294 
L 147.484548 381.415294 
L 147.484548 381.298733 
L 148.786006 381.298733 
L 148.786006 381.182475 
L 150.087464 381.182475 
L 150.087464 381.066766 
L 151.388921 381.066766 
L 151.388921 380.951836 
L 152.690379 380.951836 
L 152.690379 380.8379 
L 153.991837 380.8379 
L 153.991837 380.72514 
L 155.293294 380.72514 
L 155.293294 380.613704 
L 157.89621 380.503701 
L 157.89621 380.395187 
L 160.499125 380.288168 
L 160.499125 380.182596 
L 163.102041 380.078362 
L 163.102041 379.975301 
L 165.704956 379.873187 
L 165.704956 379.77174 
L 168.307872 379.670628 
L 168.307872 379.569473 
L 170.910787 379.467863 
L 170.910787 379.365361 
L 173.513703 379.261524 
L 173.513703 379.155915 
L 176.116618 379.048124 
L 176.116618 378.937778 
L 177.418076 378.937778 
L 177.418076 378.82456 
L 178.719534 378.82456 
L 178.719534 378.708208 
L 180.020991 378.708208 
L 180.020991 378.588524 
L 181.322449 378.588524 
L 181.322449 378.465363 
L 182.623907 378.465363 
L 182.623907 378.338622 
L 183.925364 378.338622 
L 183.925364 378.208224 
L 185.226822 378.208224 
L 185.226822 378.074098 
L 186.52828 378.074098 
L 186.52828 377.936154 
L 187.829738 377.936154 
L 187.829738 377.794266 
L 189.131195 377.794266 
L 189.131195 377.648252 
L 190.432653 377.648252 
L 190.432653 377.497859 
L 191.734111 377.497859 
L 191.734111 377.342761 
L 193.035569 377.342761 
L 193.035569 377.182552 
L 194.337026 377.182552 
L 194.337026 377.016756 
L 195.638484 377.016756 
L 195.638484 376.844836 
L 196.939942 376.844836 
L 196.939942 376.666201 
L 198.241399 376.666201 
L 198.241399 376.480223 
L 199.542857 376.480223 
L 199.542857 376.286242 
L 200.844315 376.286242 
L 200.844315 376.08357 
L 202.145773 376.08357 
L 202.145773 375.871493 
L 203.44723 375.871493 
L 203.44723 375.649259 
L 204.748688 375.649259 
L 204.748688 375.416063 
L 206.050146 375.416063 
L 206.050146 375.171038 
L 207.351603 375.171038 
L 207.351603 374.913231 
L 208.653061 374.913231 
L 208.653061 374.641591 
L 209.954519 374.641591 
L 209.954519 374.35496 
L 211.255977 374.35496 
L 211.255977 374.052074 
L 212.557434 374.052074 
L 212.557434 373.731585 
L 213.858892 373.731585 
L 213.858892 373.392079 
L 215.16035 373.392079 
L 215.16035 373.032127 
L 216.461808 373.032127 
L 216.461808 372.650332 
L 217.763265 372.650332 
L 217.763265 372.245396 
L 219.064723 372.245396 
L 219.064723 371.816181 
L 220.366181 371.816181 
L 220.366181 371.36177 
L 221.667638 371.36177 
L 221.667638 370.881514 
L 222.969096 370.881514 
L 222.969096 370.375068 
L 224.270554 370.375068 
L 224.270554 369.842404 
L 225.572012 369.842404 
L 225.572012 369.283803 
L 226.873469 369.283803 
L 226.873469 368.699828 
L 228.174927 368.699828 
L 228.174927 368.091265 
L 229.476385 368.091265 
L 229.476385 367.459067 
L 230.777843 367.459067 
L 230.777843 366.804275 
L 232.0793 366.804275 
L 232.0793 366.127949 
L 233.380758 366.127949 
L 233.380758 365.431096 
L 234.682216 365.431096 
L 234.682216 364.714617 
L 235.983673 364.714617 
L 235.983673 363.979268 
L 237.285131 363.979268 
L 237.285131 363.225651 
L 238.586589 363.225651 
L 238.586589 362.454217 
L 239.888047 362.454217 
L 239.888047 361.6653 
L 241.189504 361.6653 
L 241.189504 360.859162 
L 242.490962 360.859162 
L 242.490962 360.036056 
L 243.79242 360.036056 
L 243.79242 359.196294 
L 245.093878 359.196294 
L 245.093878 358.340314 
L 246.395335 358.340314 
L 246.395335 357.468735 
L 247.696793 357.468735 
L 247.696793 356.582407 
L 248.998251 356.582407 
L 248.998251 355.682428 
L 250.299708 355.682428 
L 250.299708 354.770146 
L 251.601166 354.770146 
L 251.601166 353.847128 
L 252.902624 353.847128 
L 252.902624 352.915104 
L 254.204082 352.915104 
L 254.204082 351.975894 
L 255.505539 351.975894 
L 255.505539 351.031302 
L 256.806997 351.031302 
L 256.806997 350.083019 
L 258.108455 350.083019 
L 258.108455 349.132508 
L 259.409913 349.132508 
L 259.409913 348.180913 
L 260.71137 348.180913 
L 260.71137 347.22898 
L 262.012828 347.22898 
L 262.012828 346.277005 
L 263.314286 346.277005 
L 263.314286 345.324826 
L 264.615743 345.324826 
L 264.615743 344.371836 
L 265.917201 344.371836 
L 265.917201 343.417046 
L 267.218659 343.417046 
L 267.218659 342.459162 
L 268.520117 342.459162 
L 268.520117 341.496696 
L 269.821574 341.496696 
L 269.821574 340.52808 
L 271.123032 340.52808 
L 271.123032 339.551787 
L 272.42449 339.551787 
L 272.42449 338.566426 
L 273.725948 338.566426 
L 273.725948 337.570834 
L 275.027405 337.570834 
L 275.027405 336.564125 
L 276.328863 336.564125 
L 276.328863 335.545711 
L 277.630321 335.545711 
L 277.630321 334.515294 
L 278.931778 334.515294 
L 278.931778 333.472819 
L 280.233236 333.472819 
L 280.233236 332.418407 
L 281.534694 332.418407 
L 281.534694 331.352264 
L 282.836152 331.352264 
L 282.836152 330.274593 
L 284.137609 330.274593 
L 284.137609 329.185485 
L 285.439067 329.185485 
L 285.439067 328.084829 
L 286.740525 328.084829 
L 286.740525 326.972232 
L 288.041983 326.972232 
L 288.041983 325.846963 
L 289.34344 325.846963 
L 289.34344 324.707911 
L 290.644898 324.707911 
L 290.644898 323.553576 
L 291.946356 323.553576 
L 291.946356 322.382072 
L 293.247813 322.382072 
L 293.247813 321.19117 
L 294.549271 321.19117 
L 294.549271 319.978351 
L 295.850729 319.978351 
L 295.850729 318.74088 
L 297.152187 318.74088 
L 297.152187 317.475892 
L 298.453644 317.475892 
L 298.453644 316.180497 
L 299.755102 316.180497 
L 299.755102 314.851876 
L 301.05656 314.851876 
L 301.05656 313.487403 
L 302.358017 313.487403 
L 302.358017 312.084747 
L 303.659475 312.084747 
L 303.659475 310.641976 
L 304.960933 310.641976 
L 304.960933 309.157658 
L 306.262391 309.157658 
L 306.262391 307.63094 
L 307.563848 307.63094 
L 307.563848 306.06162 
L 308.865306 306.06162 
L 308.865306 304.450202 
L 310.166764 304.450202 
L 310.166764 302.79792 
L 311.468222 302.79792 
L 311.468222 301.106752 
L 312.769679 301.106752 
L 312.769679 299.379394 
L 314.071137 299.379394 
L 314.071137 297.619219 
L 315.372595 297.619219 
L 315.372595 295.830201 
L 316.674052 295.830201 
L 316.674052 294.016816 
L 317.97551 294.016816 
L 317.97551 292.183917 
L 319.276968 292.183917 
L 319.276968 290.336587 
L 320.578426 290.336587 
L 320.578426 288.479981 
L 321.879883 288.479981 
L 321.879883 286.619152 
L 323.181341 286.619152 
L 323.181341 284.758883 
L 324.482799 284.758883 
L 324.482799 282.903526 
L 325.784257 282.903526 
L 325.784257 281.056852 
L 327.085714 281.056852 
L 327.085714 279.221947 
L 328.387172 279.221947 
L 328.387172 277.401126 
L 329.68863 277.401126 
L 329.68863 275.595897 
L 330.990087 275.595897 
L 330.990087 273.80697 
L 332.291545 273.80697 
L 332.291545 272.034305 
L 333.593003 272.034305 
L 333.593003 270.277206 
L 334.894461 270.277206 
L 334.894461 268.534441 
L 336.195918 268.534441 
L 336.195918 266.804398 
L 337.497376 266.804398 
L 337.497376 265.085244 
L 338.798834 265.085244 
L 338.798834 263.375092 
L 340.100292 263.375092 
L 340.100292 261.672161 
L 341.401749 261.672161 
L 341.401749 259.97492 
L 342.703207 259.97492 
L 342.703207 258.282202 
L 344.004665 258.282202 
L 344.004665 256.593296 
L 345.306122 256.593296 
L 345.306122 254.907997 
L 346.60758 254.907997 
L 346.60758 253.226628 
L 347.909038 253.226628 
L 347.909038 251.550026 
L 349.210496 251.550026 
L 349.210496 249.879494 
L 350.511953 249.879494 
L 350.511953 248.216729 
L 351.813411 248.216729 
L 351.813411 246.563733 
L 353.114869 246.563733 
L 353.114869 244.922701 
L 354.416327 244.922701 
L 354.416327 243.295907 
L 355.717784 243.295907 
L 355.717784 241.685591 
L 357.019242 241.685591 
L 357.019242 240.093851 
L 358.3207 240.093851 
L 358.3207 238.522544 
L 359.622157 238.522544 
L 359.622157 236.973213 
L 360.923615 236.973213 
L 360.923615 235.447027 
L 362.225073 235.447027 
L 362.225073 233.944748 
L 363.526531 233.944748 
L 363.526531 232.466723 
L 364.827988 232.466723 
L 364.827988 231.012888 
L 366.129446 231.012888 
L 366.129446 229.582801 
L 367.430904 229.582801 
L 367.430904 228.175678 
L 368.732362 228.175678 
L 368.732362 226.790448 
L 370.033819 226.790448 
L 370.033819 225.425798 
L 371.335277 225.425798 
L 371.335277 224.080227 
L 372.636735 224.080227 
L 372.636735 222.752085 
L 373.938192 222.752085 
L 373.938192 221.439607 
L 375.23965 221.439607 
L 375.23965 220.140925 
L 376.541108 220.140925 
L 376.541108 218.854078 
L 377.842566 218.854078 
L 377.842566 217.577004 
L 379.144023 217.577004 
L 379.144023 216.307516 
L 380.445481 216.307516 
L 380.445481 215.043278 
L 381.746939 215.043278 
L 381.746939 213.781775 
L 383.048397 213.781775 
L 383.048397 212.520291 
L 384.349854 212.520291 
L 384.349854 211.255881 
L 385.651312 211.255881 
L 385.651312 209.985374 
L 386.95277 209.985374 
L 386.95277 208.705381 
L 388.254227 208.705381 
L 388.254227 207.412326 
L 389.555685 207.412326 
L 389.555685 206.102495 
L 390.857143 206.102495 
L 390.857143 204.772105 
L 392.158601 204.772105 
L 392.158601 203.417392 
L 393.460058 203.417392 
L 393.460058 202.034697 
L 394.761516 202.034697 
L 394.761516 200.620572 
L 396.062974 200.620572 
L 396.062974 199.171872 
L 397.364431 199.171872 
L 397.364431 197.685841 
L 398.665889 197.685841 
L 398.665889 196.160181 
L 399.967347 196.160181 
L 399.967347 194.593107 
L 401.268805 194.593107 
L 401.268805 192.983368 
L 402.570262 192.983368 
L 402.570262 191.330258 
L 403.87172 191.330258 
L 403.87172 189.633592 
L 405.173178 189.633592 
L 405.173178 187.893673 
L 406.474636 187.893673 
L 406.474636 186.11124 
L 407.776093 186.11124 
L 407.776093 184.287399 
L 409.077551 184.287399 
L 409.077551 182.423564 
L 410.379009 182.423564 
L 410.379009 180.521378 
L 411.680466 180.521378 
L 411.680466 178.582654 
L 412.981924 178.582654 
L 412.981924 176.609308 
L 414.283382 176.609308 
L 414.283382 174.60331 
L 415.58484 174.60331 
L 415.58484 172.566637 
L 416.886297 172.566637 
L 416.886297 170.501241 
L 418.187755 170.501241 
L 418.187755 168.409016 
L 419.489213 168.409016 
L 419.489213 166.291784 
L 420.790671 166.291784 
L 420.790671 164.151281 
L 422.092128 164.151281 
L 422.092128 161.989149 
L 423.393586 161.989149 
L 423.393586 159.806931 
L 424.695044 159.806931 
L 424.695044 157.606073 
L 425.996501 157.606073 
L 425.996501 155.387928 
L 427.297959 155.387928 
L 427.297959 153.153754 
L 428.599417 153.153754 
L 428.599417 150.904722 
L 429.900875 150.904722 
L 429.900875 148.641921 
L 431.202332 148.641921 
L 431.202332 146.366361 
L 432.50379 146.366361 
L 432.50379 144.078981 
L 433.805248 144.078981 
L 433.805248 141.780652 
L 435.106706 141.780652 
L 435.106706 139.472181 
L 436.408163 139.472181 
L 436.408163 137.154315 
L 437.709621 137.154315 
L 437.709621 134.82775 
L 439.011079 134.82775 
L 439.011079 132.493128 
L 440.312536 132.493128 
L 440.312536 130.151044 
L 441.613994 130.151044 
L 441.613994 127.802052 
L 442.915452 127.802052 
L 442.915452 125.446667 
L 444.21691 125.446667 
L 444.21691 123.085374 
L 445.518367 123.085374 
L 445.518367 120.718628 
L 446.819825 120.718628 
L 446.819825 118.346864 
L 448.121283 118.346864 
L 448.121283 115.970501 
L 449.422741 115.970501 
L 449.422741 113.589963 
L 450.724198 113.589963 
L 450.724198 111.20569 
L 452.025656 111.20569 
L 452.025656 108.818159 
L 453.327114 108.818159 
L 453.327114 106.427913 
L 454.628571 106.427913 
L 454.628571 104.035606 
L 455.930029 104.035606 
L 455.930029 101.642055 
L 457.231487 101.642055 
L 457.231487 99.248307 
L 458.532945 99.248307 
L 458.532945 96.855725 
L 459.834402 96.855725 
L 459.834402 94.46608 
L 461.13586 94.46608 
L 461.13586 92.081673 
L 462.437318 92.081673 
L 462.437318 89.705449 
L 463.738776 89.705449 
L 463.738776 87.341126 
L 465.040233 87.341126 
L 465.040233 84.993318 
L 466.341691 84.993318 
L 466.341691 82.667632 
L 467.643149 82.667632 
L 467.643149 80.370738 
L 468.944606 80.370738 
L 468.944606 78.110391 
L 470.246064 78.110391 
L 470.246064 75.895389 
L 471.547522 75.895389 
L 471.547522 73.735455 
L 472.84898 73.735455 
L 472.84898 71.64104 
L 474.150437 71.64104 
L 474.150437 69.623044 
L 475.451895 69.623044 
L 475.451895 67.692456 
L 476.753353 67.692456 
L 476.753353 65.859939 
L 478.05481 65.859939 
L 478.05481 64.135384 
L 479.356268 64.135384 
L 479.356268 62.527449 
L 480.657726 62.527449 
L 480.657726 61.04314 
L 481.959184 61.04314 
L 481.959184 59.687421 
L 483.260641 59.687421 
L 483.260641 58.462991 
L 484.562099 58.462991 
L 484.562099 57.370117 
L 485.863557 57.370117 
L 485.863557 56.406623 
L 487.165015 56.406623 
L 487.165015 55.568005 
L 488.466472 55.568005 
L 488.466472 54.847678 
L 489.76793 54.847678 
L 489.76793 54.237321 
L 491.069388 54.237321 
L 491.069388 53.727295 
L 492.370845 53.727295 
L 492.370845 53.307099 
L 493.672303 53.307099 
L 493.672303 52.965835 
L 494.973761 52.965835 
L 494.973761 52.692636 
L 496.275219 52.692636 
L 496.275219 52.477045 
L 497.576676 52.477045 
L 497.576676 52.309313 
L 498.878134 52.309313 
L 498.878134 52.180619 
L 501.48105 52.083197 
L 501.48105 52.010383 
L 505.385423 51.917313 
L 505.385423 51.888863 
L 518.4 51.819272 
L 518.4 51.819272 
" style="fill:none;stroke:#ff7f0e;stroke-linecap:square;stroke-width:1.5;"/>
   </g>
   <g id="line2d_43">
    <path clip-path="url(#p18011c2b5c)" d="M 250.299708 384.48 
L 250.299708 51.84 
" style="fill:none;stroke:#000000;stroke-dasharray:1.5,2.475;stroke-dashoffset:0;stroke-width:1.5;"/>
   </g>
   <g id="patch_3">
    <path d="M 72 384.48 
L 72 51.84 
" style="fill:none;stroke:#000000;stroke-linecap:square;stroke-linejoin:miter;stroke-width:0.8;"/>
   </g>
   <g id="patch_4">
    <path d="M 518.4 384.48 
L 518.4 51.84 
" style="fill:none;stroke:#000000;stroke-linecap:square;stroke-linejoin:miter;stroke-width:0.8;"/>
   </g>
   <g id="patch_5">
    <path d="M 72 384.48 
L 518.4 384.48 
" style="fill:none;stroke:#000000;stroke-linecap:square;stroke-linejoin:miter;stroke-width:0.8;"/>
   </g>
   <g id="patch_6">
    <path d="M 72 51.84 
L 518.4 51.84 
" style="fill:none;stroke:#000000;stroke-linecap:square;stroke-linejoin:miter;stroke-width:0.8;"/>
   </g>
   <g id="text_22">
    <!-- Projected cumulative 1st and 2nd doses -->
    <g transform="translate(174.848437 45.84)scale(0.12 -0.12)">
     <defs>
      <path d="M 1259 4147 
L 1259 2394 
L 2053 2394 
Q 2494 2394 2734 2622 
Q 2975 2850 2975 3272 
Q 2975 3691 2734 3919 
Q 2494 4147 2053 4147 
L 1259 4147 
z
M 628 4666 
L 2053 4666 
Q 2838 4666 3239 4311 
Q 3641 3956 3641 3272 
Q 3641 2581 3239 2228 
Q 2838 1875 2053 1875 
L 1259 1875 
L 1259 0 
L 628 0 
L 628 4666 
z
" id="DejaVuSans-50" transform="scale(0.015625)"/>
      <path d="M 603 3500 
L 1178 3500 
L 1178 -63 
Q 1178 -731 923 -1031 
Q 669 -1331 103 -1331 
L -116 -1331 
L -116 -844 
L 38 -844 
Q 366 -844 484 -692 
Q 603 -541 603 -63 
L 603 3500 
z
M 603 4863 
L 1178 4863 
L 1178 4134 
L 603 4134 
L 603 4863 
z
" id="DejaVuSans-6a" transform="scale(0.015625)"/>
     </defs>
     <use xlink:href="#DejaVuSans-50"/>
     <use x="58.552734" xlink:href="#DejaVuSans-72"/>
     <use x="97.416016" xlink:href="#DejaVuSans-6f"/>
     <use x="158.597656" xlink:href="#DejaVuSans-6a"/>
     <use x="186.380859" xlink:href="#DejaVuSans-65"/>
     <use x="247.904297" xlink:href="#DejaVuSans-63"/>
     <use x="302.884766" xlink:href="#DejaVuSans-74"/>
     <use x="342.09375" xlink:href="#DejaVuSans-65"/>
     <use x="403.617188" xlink:href="#DejaVuSans-64"/>
     <use x="467.09375" xlink:href="#DejaVuSans-20"/>
     <use x="498.880859" xlink:href="#DejaVuSans-63"/>
     <use x="553.861328" xlink:href="#DejaVuSans-75"/>
     <use x="617.240234" xlink:href="#DejaVuSans-6d"/>
     <use x="714.652344" xlink:href="#DejaVuSans-75"/>
     <use x="778.03125" xlink:href="#DejaVuSans-6c"/>
     <use x="805.814453" xlink:href="#DejaVuSans-61"/>
     <use x="867.09375" xlink:href="#DejaVuSans-74"/>
     <use x="906.302734" xlink:href="#DejaVuSans-69"/>
     <use x="934.085938" xlink:href="#DejaVuSans-76"/>
     <use x="993.265625" xlink:href="#DejaVuSans-65"/>
     <use x="1054.789062" xlink:href="#DejaVuSans-20"/>
     <use x="1086.576172" xlink:href="#DejaVuSans-31"/>
     <use x="1150.199219" xlink:href="#DejaVuSans-73"/>
     <use x="1202.298828" xlink:href="#DejaVuSans-74"/>
     <use x="1241.507812" xlink:href="#DejaVuSans-20"/>
     <use x="1273.294922" xlink:href="#DejaVuSans-61"/>
     <use x="1334.574219" xlink:href="#DejaVuSans-6e"/>
     <use x="1397.953125" xlink:href="#DejaVuSans-64"/>
     <use x="1461.429688" xlink:href="#DejaVuSans-20"/>
     <use x="1493.216797" xlink:href="#DejaVuSans-32"/>
     <use x="1556.839844" xlink:href="#DejaVuSans-6e"/>
     <use x="1620.21875" xlink:href="#DejaVuSans-64"/>
     <use x="1683.695312" xlink:href="#DejaVuSans-20"/>
     <use x="1715.482422" xlink:href="#DejaVuSans-64"/>
     <use x="1778.958984" xlink:href="#DejaVuSans-6f"/>
     <use x="1840.140625" xlink:href="#DejaVuSans-73"/>
     <use x="1892.240234" xlink:href="#DejaVuSans-65"/>
     <use x="1953.763672" xlink:href="#DejaVuSans-73"/>
    </g>
   </g>
   <g id="legend_1">
    <g id="patch_7">
     <path d="M 77.831 131.865269 
L 186.136619 131.865269 
Q 187.802619 131.865269 187.802619 130.199269 
L 187.802619 57.671 
Q 187.802619 56.005 186.136619 56.005 
L 77.831 56.005 
Q 76.165 56.005 76.165 57.671 
L 76.165 130.199269 
Q 76.165 131.865269 77.831 131.865269 
z
" style="fill:#ffffff;opacity:0.8;stroke:#cccccc;stroke-linejoin:miter;"/>
    </g>
    <g id="line2d_44">
     <path d="M 79.497 62.750998 
L 96.157 62.750998 
" style="fill:none;stroke:#1f77b4;stroke-linecap:square;stroke-width:1.5;"/>
    </g>
    <g id="line2d_45"/>
    <g id="text_23">
     <!-- First doses -->
     <g transform="translate(102.821 65.666498)scale(0.0833 -0.0833)">
      <defs>
       <path d="M 628 4666 
L 3309 4666 
L 3309 4134 
L 1259 4134 
L 1259 2759 
L 3109 2759 
L 3109 2228 
L 1259 2228 
L 1259 0 
L 628 0 
L 628 4666 
z
" id="DejaVuSans-46" transform="scale(0.015625)"/>
      </defs>
      <use xlink:href="#DejaVuSans-46"/>
      <use x="50.269531" xlink:href="#DejaVuSans-69"/>
      <use x="78.052734" xlink:href="#DejaVuSans-72"/>
      <use x="119.166016" xlink:href="#DejaVuSans-73"/>
      <use x="171.265625" xlink:href="#DejaVuSans-74"/>
      <use x="210.474609" xlink:href="#DejaVuSans-20"/>
      <use x="242.261719" xlink:href="#DejaVuSans-64"/>
      <use x="305.738281" xlink:href="#DejaVuSans-6f"/>
      <use x="366.919922" xlink:href="#DejaVuSans-73"/>
      <use x="419.019531" xlink:href="#DejaVuSans-65"/>
      <use x="480.542969" xlink:href="#DejaVuSans-73"/>
     </g>
    </g>
    <g id="line2d_46">
     <path d="M 79.497 74.977877 
L 96.157 74.977877 
" style="fill:none;stroke:#ff7f0e;stroke-linecap:square;stroke-width:1.5;"/>
    </g>
    <g id="line2d_47"/>
    <g id="text_24">
     <!-- Second doses -->
     <g transform="translate(102.821 77.893377)scale(0.0833 -0.0833)">
      <use xlink:href="#DejaVuSans-53"/>
      <use x="63.476562" xlink:href="#DejaVuSans-65"/>
      <use x="125" xlink:href="#DejaVuSans-63"/>
      <use x="179.980469" xlink:href="#DejaVuSans-6f"/>
      <use x="241.162109" xlink:href="#DejaVuSans-6e"/>
      <use x="304.541016" xlink:href="#DejaVuSans-64"/>
      <use x="368.017578" xlink:href="#DejaVuSans-20"/>
      <use x="399.804688" xlink:href="#DejaVuSans-64"/>
      <use x="463.28125" xlink:href="#DejaVuSans-6f"/>
      <use x="524.462891" xlink:href="#DejaVuSans-73"/>
      <use x="576.5625" xlink:href="#DejaVuSans-65"/>
      <use x="638.085938" xlink:href="#DejaVuSans-73"/>
     </g>
    </g>
    <g id="patch_8">
     <path d="M 79.497 90.120255 
L 96.157 90.120255 
L 96.157 84.289255 
L 79.497 84.289255 
z
" style="fill:#ff0000;opacity:0.35;"/>
    </g>
    <g id="text_25">
     <!-- Phase 1a -->
     <g transform="translate(102.821 90.120255)scale(0.0833 -0.0833)">
      <defs>
       <path d="M 3513 2113 
L 3513 0 
L 2938 0 
L 2938 2094 
Q 2938 2591 2744 2837 
Q 2550 3084 2163 3084 
Q 1697 3084 1428 2787 
Q 1159 2491 1159 1978 
L 1159 0 
L 581 0 
L 581 4863 
L 1159 4863 
L 1159 2956 
Q 1366 3272 1645 3428 
Q 1925 3584 2291 3584 
Q 2894 3584 3203 3211 
Q 3513 2838 3513 2113 
z
" id="DejaVuSans-68" transform="scale(0.015625)"/>
      </defs>
      <use xlink:href="#DejaVuSans-50"/>
      <use x="60.302734" xlink:href="#DejaVuSans-68"/>
      <use x="123.681641" xlink:href="#DejaVuSans-61"/>
      <use x="184.960938" xlink:href="#DejaVuSans-73"/>
      <use x="237.060547" xlink:href="#DejaVuSans-65"/>
      <use x="298.583984" xlink:href="#DejaVuSans-20"/>
      <use x="330.371094" xlink:href="#DejaVuSans-31"/>
      <use x="393.994141" xlink:href="#DejaVuSans-61"/>
     </g>
    </g>
    <g id="patch_9">
     <path d="M 79.497 102.347133 
L 96.157 102.347133 
L 96.157 96.516133 
L 79.497 96.516133 
z
" style="fill:#ffa500;opacity:0.35;"/>
    </g>
    <g id="text_26">
     <!-- Phase 1b -->
     <g transform="translate(102.821 102.347133)scale(0.0833 -0.0833)">
      <defs>
       <path d="M 3116 1747 
Q 3116 2381 2855 2742 
Q 2594 3103 2138 3103 
Q 1681 3103 1420 2742 
Q 1159 2381 1159 1747 
Q 1159 1113 1420 752 
Q 1681 391 2138 391 
Q 2594 391 2855 752 
Q 3116 1113 3116 1747 
z
M 1159 2969 
Q 1341 3281 1617 3432 
Q 1894 3584 2278 3584 
Q 2916 3584 3314 3078 
Q 3713 2572 3713 1747 
Q 3713 922 3314 415 
Q 2916 -91 2278 -91 
Q 1894 -91 1617 61 
Q 1341 213 1159 525 
L 1159 0 
L 581 0 
L 581 4863 
L 1159 4863 
L 1159 2969 
z
" id="DejaVuSans-62" transform="scale(0.015625)"/>
      </defs>
      <use xlink:href="#DejaVuSans-50"/>
      <use x="60.302734" xlink:href="#DejaVuSans-68"/>
      <use x="123.681641" xlink:href="#DejaVuSans-61"/>
      <use x="184.960938" xlink:href="#DejaVuSans-73"/>
      <use x="237.060547" xlink:href="#DejaVuSans-65"/>
      <use x="298.583984" xlink:href="#DejaVuSans-20"/>
      <use x="330.371094" xlink:href="#DejaVuSans-31"/>
      <use x="393.994141" xlink:href="#DejaVuSans-62"/>
     </g>
    </g>
    <g id="patch_10">
     <path d="M 79.497 114.574011 
L 96.157 114.574011 
L 96.157 108.743011 
L 79.497 108.743011 
z
" style="fill:#ffff00;opacity:0.35;"/>
    </g>
    <g id="text_27">
     <!-- Phase 2a -->
     <g transform="translate(102.821 114.574011)scale(0.0833 -0.0833)">
      <use xlink:href="#DejaVuSans-50"/>
      <use x="60.302734" xlink:href="#DejaVuSans-68"/>
      <use x="123.681641" xlink:href="#DejaVuSans-61"/>
      <use x="184.960938" xlink:href="#DejaVuSans-73"/>
      <use x="237.060547" xlink:href="#DejaVuSans-65"/>
      <use x="298.583984" xlink:href="#DejaVuSans-20"/>
      <use x="330.371094" xlink:href="#DejaVuSans-32"/>
      <use x="393.994141" xlink:href="#DejaVuSans-61"/>
     </g>
    </g>
    <g id="line2d_48">
     <path d="M 79.497 123.885389 
L 96.157 123.885389 
" style="fill:none;stroke:#000000;stroke-dasharray:1.5,2.475;stroke-dashoffset:0;stroke-width:1.5;"/>
    </g>
    <g id="line2d_49"/>
    <g id="text_28">
     <!-- Today (2021-07-09) -->
     <g transform="translate(102.821 126.800889)scale(0.0833 -0.0833)">
      <defs>
       <path d="M -19 4666 
L 3928 4666 
L 3928 4134 
L 2272 4134 
L 2272 0 
L 1638 0 
L 1638 4134 
L -19 4134 
L -19 4666 
z
" id="DejaVuSans-54" transform="scale(0.015625)"/>
       <path d="M 313 2009 
L 1997 2009 
L 1997 1497 
L 313 1497 
L 313 2009 
z
" id="DejaVuSans-2d" transform="scale(0.015625)"/>
       <path d="M 703 97 
L 703 672 
Q 941 559 1184 500 
Q 1428 441 1663 441 
Q 2288 441 2617 861 
Q 2947 1281 2994 2138 
Q 2813 1869 2534 1725 
Q 2256 1581 1919 1581 
Q 1219 1581 811 2004 
Q 403 2428 403 3163 
Q 403 3881 828 4315 
Q 1253 4750 1959 4750 
Q 2769 4750 3195 4129 
Q 3622 3509 3622 2328 
Q 3622 1225 3098 567 
Q 2575 -91 1691 -91 
Q 1453 -91 1209 -44 
Q 966 3 703 97 
z
M 1959 2075 
Q 2384 2075 2632 2365 
Q 2881 2656 2881 3163 
Q 2881 3666 2632 3958 
Q 2384 4250 1959 4250 
Q 1534 4250 1286 3958 
Q 1038 3666 1038 3163 
Q 1038 2656 1286 2365 
Q 1534 2075 1959 2075 
z
" id="DejaVuSans-39" transform="scale(0.015625)"/>
      </defs>
      <use xlink:href="#DejaVuSans-54"/>
      <use x="44.083984" xlink:href="#DejaVuSans-6f"/>
      <use x="105.265625" xlink:href="#DejaVuSans-64"/>
      <use x="168.742188" xlink:href="#DejaVuSans-61"/>
      <use x="230.021484" xlink:href="#DejaVuSans-79"/>
      <use x="289.201172" xlink:href="#DejaVuSans-20"/>
      <use x="320.988281" xlink:href="#DejaVuSans-28"/>
      <use x="360.001953" xlink:href="#DejaVuSans-32"/>
      <use x="423.625" xlink:href="#DejaVuSans-30"/>
      <use x="487.248047" xlink:href="#DejaVuSans-32"/>
      <use x="550.871094" xlink:href="#DejaVuSans-31"/>
      <use x="614.494141" xlink:href="#DejaVuSans-2d"/>
      <use x="650.578125" xlink:href="#DejaVuSans-30"/>
      <use x="714.201172" xlink:href="#DejaVuSans-37"/>
      <use x="777.824219" xlink:href="#DejaVuSans-2d"/>
      <use x="813.908203" xlink:href="#DejaVuSans-30"/>
      <use x="877.53125" xlink:href="#DejaVuSans-39"/>
      <use x="941.154297" xlink:href="#DejaVuSans-29"/>
     </g>
    </g>
   </g>
  </g>
 </g>
 <defs>
  <clipPath id="p18011c2b5c">
   <rect height="332.64" width="446.4" x="72" y="51.84"/>
  </clipPath>
 </defs>
</svg>
