<?xml version="1.0" encoding="utf-8" standalone="no"?>
<!DOCTYPE svg PUBLIC "-//W3C//DTD SVG 1.1//EN"
  "http://www.w3.org/Graphics/SVG/1.1/DTD/svg11.dtd">
<svg height="432pt" version="1.1" viewBox="0 0 576 432" width="576pt" xmlns="http://www.w3.org/2000/svg" xmlns:xlink="http://www.w3.org/1999/xlink">
 <metadata>
  <rdf:RDF xmlns:cc="http://creativecommons.org/ns#" xmlns:dc="http://purl.org/dc/elements/1.1/" xmlns:rdf="http://www.w3.org/1999/02/22-rdf-syntax-ns#">
   <cc:Work>
    <dc:type rdf:resource="http://purl.org/dc/dcmitype/StillImage"/>
    <dc:date>2021-07-03T14:44:57.833244</dc:date>
    <dc:format>image/svg+xml</dc:format>
    <dc:creator>
     <cc:Agent>
      <dc:title>Matplotlib v3.4.2, https://matplotlib.org/</dc:title>
     </cc:Agent>
    </dc:creator>
   </cc:Work>
  </rdf:RDF>
 </metadata>
 <defs>
  <style type="text/css">*{stroke-linecap:butt;stroke-linejoin:round;}</style>
 </defs>
 <g id="figure_1">
  <g id="patch_1">
   <path d="M 0 432 
L 576 432 
L 576 0 
L 0 0 
z
" style="fill:#ffffff;"/>
  </g>
  <g id="axes_1">
   <g id="patch_2">
    <path d="M 72 384.48 
L 518.4 384.48 
L 518.4 51.84 
L 72 51.84 
z
" style="fill:#ffffff;"/>
   </g>
   <g id="PolyCollection_1">
    <defs>
     <path d="M 108.440816 -47.52 
L 70.698542 -47.52 
L 70.698542 -380.16 
L 108.440816 -380.16 
L 108.440816 -380.16 
L 108.440816 -47.52 
z
" id="m1674d9a814"/>
    </defs>
    <g clip-path="url(#p45819ffde0)">
     <use style="fill:#ff0000;fill-opacity:0.35;" x="0" xlink:href="#m1674d9a814" y="432"/>
    </g>
   </g>
   <g id="PolyCollection_2">
    <defs>
     <path d="M 163.102041 -47.52 
L 108.440816 -47.52 
L 108.440816 -380.16 
L 163.102041 -380.16 
L 163.102041 -380.16 
L 163.102041 -47.52 
z
" id="ma131c7ebaf"/>
    </defs>
    <g clip-path="url(#p45819ffde0)">
     <use style="fill:#ffa500;fill-opacity:0.35;" x="0" xlink:href="#ma131c7ebaf" y="432"/>
    </g>
   </g>
   <g id="PolyCollection_3">
    <defs>
     <path d="M 267.218659 -47.52 
L 163.102041 -47.52 
L 163.102041 -380.16 
L 267.218659 -380.16 
L 267.218659 -380.16 
L 267.218659 -47.52 
z
" id="mcb64290843"/>
    </defs>
    <g clip-path="url(#p45819ffde0)">
     <use style="fill:#ffff00;fill-opacity:0.35;" x="0" xlink:href="#mcb64290843" y="432"/>
    </g>
   </g>
   <g id="PolyCollection_4">
    <defs>
     <path d="M 268.520117 -47.52 
L 267.218659 -47.52 
L 267.218659 -380.16 
L 268.520117 -380.16 
L 268.520117 -380.16 
L 268.520117 -47.52 
z
" id="mc1987ce21c"/>
    </defs>
    <g clip-path="url(#p45819ffde0)">
     <use style="fill:#ffff00;fill-opacity:0.3;" x="0" xlink:href="#mc1987ce21c" y="432"/>
    </g>
   </g>
   <g id="PolyCollection_5">
    <defs>
     <path d="M 269.821574 -47.52 
L 268.520117 -47.52 
L 268.520117 -380.16 
L 269.821574 -380.16 
L 269.821574 -380.16 
L 269.821574 -47.52 
z
" id="m0509afff17"/>
    </defs>
    <g clip-path="url(#p45819ffde0)">
     <use style="fill:#ffff00;fill-opacity:0.27;" x="0" xlink:href="#m0509afff17" y="432"/>
    </g>
   </g>
   <g id="PolyCollection_6">
    <defs>
     <path d="M 271.123032 -47.52 
L 269.821574 -47.52 
L 269.821574 -380.16 
L 271.123032 -380.16 
L 271.123032 -380.16 
L 271.123032 -47.52 
z
" id="m2a242a194f"/>
    </defs>
    <g clip-path="url(#p45819ffde0)">
     <use style="fill:#ffff00;fill-opacity:0.24;" x="0" xlink:href="#m2a242a194f" y="432"/>
    </g>
   </g>
   <g id="PolyCollection_7">
    <defs>
     <path d="M 272.42449 -47.52 
L 271.123032 -47.52 
L 271.123032 -380.16 
L 272.42449 -380.16 
L 272.42449 -380.16 
L 272.42449 -47.52 
z
" id="m1722d5d503"/>
    </defs>
    <g clip-path="url(#p45819ffde0)">
     <use style="fill:#ffff00;fill-opacity:0.21;" x="0" xlink:href="#m1722d5d503" y="432"/>
    </g>
   </g>
   <g id="PolyCollection_8">
    <defs>
     <path d="M 273.725948 -47.52 
L 272.42449 -47.52 
L 272.42449 -380.16 
L 273.725948 -380.16 
L 273.725948 -380.16 
L 273.725948 -47.52 
z
" id="ma6cb787ea1"/>
    </defs>
    <g clip-path="url(#p45819ffde0)">
     <use style="fill:#ffff00;fill-opacity:0.18;" x="0" xlink:href="#ma6cb787ea1" y="432"/>
    </g>
   </g>
   <g id="PolyCollection_9">
    <defs>
     <path d="M 275.027405 -47.52 
L 273.725948 -47.52 
L 273.725948 -380.16 
L 275.027405 -380.16 
L 275.027405 -380.16 
L 275.027405 -47.52 
z
" id="mf7e2fac525"/>
    </defs>
    <g clip-path="url(#p45819ffde0)">
     <use style="fill:#ffff00;fill-opacity:0.15;" x="0" xlink:href="#mf7e2fac525" y="432"/>
    </g>
   </g>
   <g id="PolyCollection_10">
    <defs>
     <path d="M 276.328863 -47.52 
L 275.027405 -47.52 
L 275.027405 -380.16 
L 276.328863 -380.16 
L 276.328863 -380.16 
L 276.328863 -47.52 
z
" id="m9659340b63"/>
    </defs>
    <g clip-path="url(#p45819ffde0)">
     <use style="fill:#ffff00;fill-opacity:0.12;" x="0" xlink:href="#m9659340b63" y="432"/>
    </g>
   </g>
   <g id="PolyCollection_11">
    <defs>
     <path d="M 277.630321 -47.52 
L 276.328863 -47.52 
L 276.328863 -380.16 
L 277.630321 -380.16 
L 277.630321 -380.16 
L 277.630321 -47.52 
z
" id="mfff48e3635"/>
    </defs>
    <g clip-path="url(#p45819ffde0)">
     <use style="fill:#ffff00;fill-opacity:0.09;" x="0" xlink:href="#mfff48e3635" y="432"/>
    </g>
   </g>
   <g id="PolyCollection_12">
    <defs>
     <path d="M 278.931778 -47.52 
L 277.630321 -47.52 
L 277.630321 -380.16 
L 278.931778 -380.16 
L 278.931778 -380.16 
L 278.931778 -47.52 
z
" id="mde3447df3f"/>
    </defs>
    <g clip-path="url(#p45819ffde0)">
     <use style="fill:#ffff00;fill-opacity:0.06;" x="0" xlink:href="#mde3447df3f" y="432"/>
    </g>
   </g>
   <g id="PolyCollection_13">
    <defs>
     <path d="M 280.233236 -47.52 
L 278.931778 -47.52 
L 278.931778 -380.16 
L 280.233236 -380.16 
L 280.233236 -380.16 
L 280.233236 -47.52 
z
" id="me598d78d48"/>
    </defs>
    <g clip-path="url(#p45819ffde0)">
     <use style="fill:#ffff00;fill-opacity:0.03;" x="0" xlink:href="#me598d78d48" y="432"/>
    </g>
   </g>
   <g id="matplotlib.axis_1">
    <g id="xtick_1">
     <g id="line2d_1">
      <path clip-path="url(#p45819ffde0)" d="M 81.110204 384.48 
L 81.110204 51.84 
" style="fill:none;stroke:#000000;stroke-dasharray:0.8,1.32;stroke-dashoffset:0;stroke-width:0.8;"/>
     </g>
     <g id="line2d_2">
      <defs>
       <path d="M 0 0 
L 0 3.5 
" id="m7cce20b7ab" style="stroke:#000000;stroke-width:0.8;"/>
      </defs>
      <g>
       <use style="stroke:#000000;stroke-width:0.8;" x="81.110204" xlink:href="#m7cce20b7ab" y="384.48"/>
      </g>
     </g>
     <g id="text_1">
      <!-- Mar -->
      <g transform="translate(71.67661 399.078438)scale(0.1 -0.1)">
       <defs>
        <path d="M 628 4666 
L 1569 4666 
L 2759 1491 
L 3956 4666 
L 4897 4666 
L 4897 0 
L 4281 0 
L 4281 4097 
L 3078 897 
L 2444 897 
L 1241 4097 
L 1241 0 
L 628 0 
L 628 4666 
z
" id="DejaVuSans-4d" transform="scale(0.015625)"/>
        <path d="M 2194 1759 
Q 1497 1759 1228 1600 
Q 959 1441 959 1056 
Q 959 750 1161 570 
Q 1363 391 1709 391 
Q 2188 391 2477 730 
Q 2766 1069 2766 1631 
L 2766 1759 
L 2194 1759 
z
M 3341 1997 
L 3341 0 
L 2766 0 
L 2766 531 
Q 2569 213 2275 61 
Q 1981 -91 1556 -91 
Q 1019 -91 701 211 
Q 384 513 384 1019 
Q 384 1609 779 1909 
Q 1175 2209 1959 2209 
L 2766 2209 
L 2766 2266 
Q 2766 2663 2505 2880 
Q 2244 3097 1772 3097 
Q 1472 3097 1187 3025 
Q 903 2953 641 2809 
L 641 3341 
Q 956 3463 1253 3523 
Q 1550 3584 1831 3584 
Q 2591 3584 2966 3190 
Q 3341 2797 3341 1997 
z
" id="DejaVuSans-61" transform="scale(0.015625)"/>
        <path d="M 2631 2963 
Q 2534 3019 2420 3045 
Q 2306 3072 2169 3072 
Q 1681 3072 1420 2755 
Q 1159 2438 1159 1844 
L 1159 0 
L 581 0 
L 581 3500 
L 1159 3500 
L 1159 2956 
Q 1341 3275 1631 3429 
Q 1922 3584 2338 3584 
Q 2397 3584 2469 3576 
Q 2541 3569 2628 3553 
L 2631 2963 
z
" id="DejaVuSans-72" transform="scale(0.015625)"/>
       </defs>
       <use xlink:href="#DejaVuSans-4d"/>
       <use x="86.279297" xlink:href="#DejaVuSans-61"/>
       <use x="147.558594" xlink:href="#DejaVuSans-72"/>
      </g>
     </g>
    </g>
    <g id="xtick_2">
     <g id="line2d_3">
      <path clip-path="url(#p45819ffde0)" d="M 121.455394 384.48 
L 121.455394 51.84 
" style="fill:none;stroke:#000000;stroke-dasharray:0.8,1.32;stroke-dashoffset:0;stroke-width:0.8;"/>
     </g>
     <g id="line2d_4">
      <g>
       <use style="stroke:#000000;stroke-width:0.8;" x="121.455394" xlink:href="#m7cce20b7ab" y="384.48"/>
      </g>
     </g>
     <g id="text_2">
      <!-- Apr -->
      <g transform="translate(112.805394 399.078438)scale(0.1 -0.1)">
       <defs>
        <path d="M 2188 4044 
L 1331 1722 
L 3047 1722 
L 2188 4044 
z
M 1831 4666 
L 2547 4666 
L 4325 0 
L 3669 0 
L 3244 1197 
L 1141 1197 
L 716 0 
L 50 0 
L 1831 4666 
z
" id="DejaVuSans-41" transform="scale(0.015625)"/>
        <path d="M 1159 525 
L 1159 -1331 
L 581 -1331 
L 581 3500 
L 1159 3500 
L 1159 2969 
Q 1341 3281 1617 3432 
Q 1894 3584 2278 3584 
Q 2916 3584 3314 3078 
Q 3713 2572 3713 1747 
Q 3713 922 3314 415 
Q 2916 -91 2278 -91 
Q 1894 -91 1617 61 
Q 1341 213 1159 525 
z
M 3116 1747 
Q 3116 2381 2855 2742 
Q 2594 3103 2138 3103 
Q 1681 3103 1420 2742 
Q 1159 2381 1159 1747 
Q 1159 1113 1420 752 
Q 1681 391 2138 391 
Q 2594 391 2855 752 
Q 3116 1113 3116 1747 
z
" id="DejaVuSans-70" transform="scale(0.015625)"/>
       </defs>
       <use xlink:href="#DejaVuSans-41"/>
       <use x="68.408203" xlink:href="#DejaVuSans-70"/>
       <use x="131.884766" xlink:href="#DejaVuSans-72"/>
      </g>
     </g>
    </g>
    <g id="xtick_3">
     <g id="line2d_5">
      <path clip-path="url(#p45819ffde0)" d="M 160.499125 384.48 
L 160.499125 51.84 
" style="fill:none;stroke:#000000;stroke-dasharray:0.8,1.32;stroke-dashoffset:0;stroke-width:0.8;"/>
     </g>
     <g id="line2d_6">
      <g>
       <use style="stroke:#000000;stroke-width:0.8;" x="160.499125" xlink:href="#m7cce20b7ab" y="384.48"/>
      </g>
     </g>
     <g id="text_3">
      <!-- May -->
      <g transform="translate(150.161625 399.078438)scale(0.1 -0.1)">
       <defs>
        <path d="M 2059 -325 
Q 1816 -950 1584 -1140 
Q 1353 -1331 966 -1331 
L 506 -1331 
L 506 -850 
L 844 -850 
Q 1081 -850 1212 -737 
Q 1344 -625 1503 -206 
L 1606 56 
L 191 3500 
L 800 3500 
L 1894 763 
L 2988 3500 
L 3597 3500 
L 2059 -325 
z
" id="DejaVuSans-79" transform="scale(0.015625)"/>
       </defs>
       <use xlink:href="#DejaVuSans-4d"/>
       <use x="86.279297" xlink:href="#DejaVuSans-61"/>
       <use x="147.558594" xlink:href="#DejaVuSans-79"/>
      </g>
     </g>
    </g>
    <g id="xtick_4">
     <g id="line2d_7">
      <path clip-path="url(#p45819ffde0)" d="M 200.844315 384.48 
L 200.844315 51.84 
" style="fill:none;stroke:#000000;stroke-dasharray:0.8,1.32;stroke-dashoffset:0;stroke-width:0.8;"/>
     </g>
     <g id="line2d_8">
      <g>
       <use style="stroke:#000000;stroke-width:0.8;" x="200.844315" xlink:href="#m7cce20b7ab" y="384.48"/>
      </g>
     </g>
     <g id="text_4">
      <!-- Jun -->
      <g transform="translate(193.031815 399.078438)scale(0.1 -0.1)">
       <defs>
        <path d="M 628 4666 
L 1259 4666 
L 1259 325 
Q 1259 -519 939 -900 
Q 619 -1281 -91 -1281 
L -331 -1281 
L -331 -750 
L -134 -750 
Q 284 -750 456 -515 
Q 628 -281 628 325 
L 628 4666 
z
" id="DejaVuSans-4a" transform="scale(0.015625)"/>
        <path d="M 544 1381 
L 544 3500 
L 1119 3500 
L 1119 1403 
Q 1119 906 1312 657 
Q 1506 409 1894 409 
Q 2359 409 2629 706 
Q 2900 1003 2900 1516 
L 2900 3500 
L 3475 3500 
L 3475 0 
L 2900 0 
L 2900 538 
Q 2691 219 2414 64 
Q 2138 -91 1772 -91 
Q 1169 -91 856 284 
Q 544 659 544 1381 
z
M 1991 3584 
L 1991 3584 
z
" id="DejaVuSans-75" transform="scale(0.015625)"/>
        <path d="M 3513 2113 
L 3513 0 
L 2938 0 
L 2938 2094 
Q 2938 2591 2744 2837 
Q 2550 3084 2163 3084 
Q 1697 3084 1428 2787 
Q 1159 2491 1159 1978 
L 1159 0 
L 581 0 
L 581 3500 
L 1159 3500 
L 1159 2956 
Q 1366 3272 1645 3428 
Q 1925 3584 2291 3584 
Q 2894 3584 3203 3211 
Q 3513 2838 3513 2113 
z
" id="DejaVuSans-6e" transform="scale(0.015625)"/>
       </defs>
       <use xlink:href="#DejaVuSans-4a"/>
       <use x="29.492188" xlink:href="#DejaVuSans-75"/>
       <use x="92.871094" xlink:href="#DejaVuSans-6e"/>
      </g>
     </g>
    </g>
    <g id="xtick_5">
     <g id="line2d_9">
      <path clip-path="url(#p45819ffde0)" d="M 239.888047 384.48 
L 239.888047 51.84 
" style="fill:none;stroke:#000000;stroke-dasharray:0.8,1.32;stroke-dashoffset:0;stroke-width:0.8;"/>
     </g>
     <g id="line2d_10">
      <g>
       <use style="stroke:#000000;stroke-width:0.8;" x="239.888047" xlink:href="#m7cce20b7ab" y="384.48"/>
      </g>
     </g>
     <g id="text_5">
      <!-- Jul -->
      <g transform="translate(233.855234 399.078438)scale(0.1 -0.1)">
       <defs>
        <path d="M 603 4863 
L 1178 4863 
L 1178 0 
L 603 0 
L 603 4863 
z
" id="DejaVuSans-6c" transform="scale(0.015625)"/>
       </defs>
       <use xlink:href="#DejaVuSans-4a"/>
       <use x="29.492188" xlink:href="#DejaVuSans-75"/>
       <use x="92.871094" xlink:href="#DejaVuSans-6c"/>
      </g>
     </g>
    </g>
    <g id="xtick_6">
     <g id="line2d_11">
      <path clip-path="url(#p45819ffde0)" d="M 280.233236 384.48 
L 280.233236 51.84 
" style="fill:none;stroke:#000000;stroke-dasharray:0.8,1.32;stroke-dashoffset:0;stroke-width:0.8;"/>
     </g>
     <g id="line2d_12">
      <g>
       <use style="stroke:#000000;stroke-width:0.8;" x="280.233236" xlink:href="#m7cce20b7ab" y="384.48"/>
      </g>
     </g>
     <g id="text_6">
      <!-- Aug -->
      <g transform="translate(270.469955 399.078438)scale(0.1 -0.1)">
       <defs>
        <path d="M 2906 1791 
Q 2906 2416 2648 2759 
Q 2391 3103 1925 3103 
Q 1463 3103 1205 2759 
Q 947 2416 947 1791 
Q 947 1169 1205 825 
Q 1463 481 1925 481 
Q 2391 481 2648 825 
Q 2906 1169 2906 1791 
z
M 3481 434 
Q 3481 -459 3084 -895 
Q 2688 -1331 1869 -1331 
Q 1566 -1331 1297 -1286 
Q 1028 -1241 775 -1147 
L 775 -588 
Q 1028 -725 1275 -790 
Q 1522 -856 1778 -856 
Q 2344 -856 2625 -561 
Q 2906 -266 2906 331 
L 2906 616 
Q 2728 306 2450 153 
Q 2172 0 1784 0 
Q 1141 0 747 490 
Q 353 981 353 1791 
Q 353 2603 747 3093 
Q 1141 3584 1784 3584 
Q 2172 3584 2450 3431 
Q 2728 3278 2906 2969 
L 2906 3500 
L 3481 3500 
L 3481 434 
z
" id="DejaVuSans-67" transform="scale(0.015625)"/>
       </defs>
       <use xlink:href="#DejaVuSans-41"/>
       <use x="68.408203" xlink:href="#DejaVuSans-75"/>
       <use x="131.787109" xlink:href="#DejaVuSans-67"/>
      </g>
     </g>
    </g>
    <g id="xtick_7">
     <g id="line2d_13">
      <path clip-path="url(#p45819ffde0)" d="M 320.578426 384.48 
L 320.578426 51.84 
" style="fill:none;stroke:#000000;stroke-dasharray:0.8,1.32;stroke-dashoffset:0;stroke-width:0.8;"/>
     </g>
     <g id="line2d_14">
      <g>
       <use style="stroke:#000000;stroke-width:0.8;" x="320.578426" xlink:href="#m7cce20b7ab" y="384.48"/>
      </g>
     </g>
     <g id="text_7">
      <!-- Sep -->
      <g transform="translate(311.153426 399.078438)scale(0.1 -0.1)">
       <defs>
        <path d="M 3425 4513 
L 3425 3897 
Q 3066 4069 2747 4153 
Q 2428 4238 2131 4238 
Q 1616 4238 1336 4038 
Q 1056 3838 1056 3469 
Q 1056 3159 1242 3001 
Q 1428 2844 1947 2747 
L 2328 2669 
Q 3034 2534 3370 2195 
Q 3706 1856 3706 1288 
Q 3706 609 3251 259 
Q 2797 -91 1919 -91 
Q 1588 -91 1214 -16 
Q 841 59 441 206 
L 441 856 
Q 825 641 1194 531 
Q 1563 422 1919 422 
Q 2459 422 2753 634 
Q 3047 847 3047 1241 
Q 3047 1584 2836 1778 
Q 2625 1972 2144 2069 
L 1759 2144 
Q 1053 2284 737 2584 
Q 422 2884 422 3419 
Q 422 4038 858 4394 
Q 1294 4750 2059 4750 
Q 2388 4750 2728 4690 
Q 3069 4631 3425 4513 
z
" id="DejaVuSans-53" transform="scale(0.015625)"/>
        <path d="M 3597 1894 
L 3597 1613 
L 953 1613 
Q 991 1019 1311 708 
Q 1631 397 2203 397 
Q 2534 397 2845 478 
Q 3156 559 3463 722 
L 3463 178 
Q 3153 47 2828 -22 
Q 2503 -91 2169 -91 
Q 1331 -91 842 396 
Q 353 884 353 1716 
Q 353 2575 817 3079 
Q 1281 3584 2069 3584 
Q 2775 3584 3186 3129 
Q 3597 2675 3597 1894 
z
M 3022 2063 
Q 3016 2534 2758 2815 
Q 2500 3097 2075 3097 
Q 1594 3097 1305 2825 
Q 1016 2553 972 2059 
L 3022 2063 
z
" id="DejaVuSans-65" transform="scale(0.015625)"/>
       </defs>
       <use xlink:href="#DejaVuSans-53"/>
       <use x="63.476562" xlink:href="#DejaVuSans-65"/>
       <use x="125" xlink:href="#DejaVuSans-70"/>
      </g>
     </g>
    </g>
    <g id="xtick_8">
     <g id="line2d_15">
      <path clip-path="url(#p45819ffde0)" d="M 359.622157 384.48 
L 359.622157 51.84 
" style="fill:none;stroke:#000000;stroke-dasharray:0.8,1.32;stroke-dashoffset:0;stroke-width:0.8;"/>
     </g>
     <g id="line2d_16">
      <g>
       <use style="stroke:#000000;stroke-width:0.8;" x="359.622157" xlink:href="#m7cce20b7ab" y="384.48"/>
      </g>
     </g>
     <g id="text_8">
      <!-- Oct -->
      <g transform="translate(350.976845 399.078438)scale(0.1 -0.1)">
       <defs>
        <path d="M 2522 4238 
Q 1834 4238 1429 3725 
Q 1025 3213 1025 2328 
Q 1025 1447 1429 934 
Q 1834 422 2522 422 
Q 3209 422 3611 934 
Q 4013 1447 4013 2328 
Q 4013 3213 3611 3725 
Q 3209 4238 2522 4238 
z
M 2522 4750 
Q 3503 4750 4090 4092 
Q 4678 3434 4678 2328 
Q 4678 1225 4090 567 
Q 3503 -91 2522 -91 
Q 1538 -91 948 565 
Q 359 1222 359 2328 
Q 359 3434 948 4092 
Q 1538 4750 2522 4750 
z
" id="DejaVuSans-4f" transform="scale(0.015625)"/>
        <path d="M 3122 3366 
L 3122 2828 
Q 2878 2963 2633 3030 
Q 2388 3097 2138 3097 
Q 1578 3097 1268 2742 
Q 959 2388 959 1747 
Q 959 1106 1268 751 
Q 1578 397 2138 397 
Q 2388 397 2633 464 
Q 2878 531 3122 666 
L 3122 134 
Q 2881 22 2623 -34 
Q 2366 -91 2075 -91 
Q 1284 -91 818 406 
Q 353 903 353 1747 
Q 353 2603 823 3093 
Q 1294 3584 2113 3584 
Q 2378 3584 2631 3529 
Q 2884 3475 3122 3366 
z
" id="DejaVuSans-63" transform="scale(0.015625)"/>
        <path d="M 1172 4494 
L 1172 3500 
L 2356 3500 
L 2356 3053 
L 1172 3053 
L 1172 1153 
Q 1172 725 1289 603 
Q 1406 481 1766 481 
L 2356 481 
L 2356 0 
L 1766 0 
Q 1100 0 847 248 
Q 594 497 594 1153 
L 594 3053 
L 172 3053 
L 172 3500 
L 594 3500 
L 594 4494 
L 1172 4494 
z
" id="DejaVuSans-74" transform="scale(0.015625)"/>
       </defs>
       <use xlink:href="#DejaVuSans-4f"/>
       <use x="78.710938" xlink:href="#DejaVuSans-63"/>
       <use x="133.691406" xlink:href="#DejaVuSans-74"/>
      </g>
     </g>
    </g>
    <g id="xtick_9">
     <g id="line2d_17">
      <path clip-path="url(#p45819ffde0)" d="M 399.967347 384.48 
L 399.967347 51.84 
" style="fill:none;stroke:#000000;stroke-dasharray:0.8,1.32;stroke-dashoffset:0;stroke-width:0.8;"/>
     </g>
     <g id="line2d_18">
      <g>
       <use style="stroke:#000000;stroke-width:0.8;" x="399.967347" xlink:href="#m7cce20b7ab" y="384.48"/>
      </g>
     </g>
     <g id="text_9">
      <!-- Nov -->
      <g transform="translate(390.207972 399.078438)scale(0.1 -0.1)">
       <defs>
        <path d="M 628 4666 
L 1478 4666 
L 3547 763 
L 3547 4666 
L 4159 4666 
L 4159 0 
L 3309 0 
L 1241 3903 
L 1241 0 
L 628 0 
L 628 4666 
z
" id="DejaVuSans-4e" transform="scale(0.015625)"/>
        <path d="M 1959 3097 
Q 1497 3097 1228 2736 
Q 959 2375 959 1747 
Q 959 1119 1226 758 
Q 1494 397 1959 397 
Q 2419 397 2687 759 
Q 2956 1122 2956 1747 
Q 2956 2369 2687 2733 
Q 2419 3097 1959 3097 
z
M 1959 3584 
Q 2709 3584 3137 3096 
Q 3566 2609 3566 1747 
Q 3566 888 3137 398 
Q 2709 -91 1959 -91 
Q 1206 -91 779 398 
Q 353 888 353 1747 
Q 353 2609 779 3096 
Q 1206 3584 1959 3584 
z
" id="DejaVuSans-6f" transform="scale(0.015625)"/>
        <path d="M 191 3500 
L 800 3500 
L 1894 563 
L 2988 3500 
L 3597 3500 
L 2284 0 
L 1503 0 
L 191 3500 
z
" id="DejaVuSans-76" transform="scale(0.015625)"/>
       </defs>
       <use xlink:href="#DejaVuSans-4e"/>
       <use x="74.804688" xlink:href="#DejaVuSans-6f"/>
       <use x="135.986328" xlink:href="#DejaVuSans-76"/>
      </g>
     </g>
    </g>
    <g id="xtick_10">
     <g id="line2d_19">
      <path clip-path="url(#p45819ffde0)" d="M 439.011079 384.48 
L 439.011079 51.84 
" style="fill:none;stroke:#000000;stroke-dasharray:0.8,1.32;stroke-dashoffset:0;stroke-width:0.8;"/>
     </g>
     <g id="line2d_20">
      <g>
       <use style="stroke:#000000;stroke-width:0.8;" x="439.011079" xlink:href="#m7cce20b7ab" y="384.48"/>
      </g>
     </g>
     <g id="text_10">
      <!-- Dec -->
      <g transform="translate(429.335297 399.078438)scale(0.1 -0.1)">
       <defs>
        <path d="M 1259 4147 
L 1259 519 
L 2022 519 
Q 2988 519 3436 956 
Q 3884 1394 3884 2338 
Q 3884 3275 3436 3711 
Q 2988 4147 2022 4147 
L 1259 4147 
z
M 628 4666 
L 1925 4666 
Q 3281 4666 3915 4102 
Q 4550 3538 4550 2338 
Q 4550 1131 3912 565 
Q 3275 0 1925 0 
L 628 0 
L 628 4666 
z
" id="DejaVuSans-44" transform="scale(0.015625)"/>
       </defs>
       <use xlink:href="#DejaVuSans-44"/>
       <use x="77.001953" xlink:href="#DejaVuSans-65"/>
       <use x="138.525391" xlink:href="#DejaVuSans-63"/>
      </g>
     </g>
    </g>
    <g id="xtick_11">
     <g id="line2d_21">
      <path clip-path="url(#p45819ffde0)" d="M 479.356268 384.48 
L 479.356268 51.84 
" style="fill:none;stroke:#000000;stroke-dasharray:0.8,1.32;stroke-dashoffset:0;stroke-width:0.8;"/>
     </g>
     <g id="line2d_22">
      <g>
       <use style="stroke:#000000;stroke-width:0.8;" x="479.356268" xlink:href="#m7cce20b7ab" y="384.48"/>
      </g>
     </g>
     <g id="text_11">
      <!-- 2022 -->
      <g transform="translate(466.631268 399.078438)scale(0.1 -0.1)">
       <defs>
        <path d="M 1228 531 
L 3431 531 
L 3431 0 
L 469 0 
L 469 531 
Q 828 903 1448 1529 
Q 2069 2156 2228 2338 
Q 2531 2678 2651 2914 
Q 2772 3150 2772 3378 
Q 2772 3750 2511 3984 
Q 2250 4219 1831 4219 
Q 1534 4219 1204 4116 
Q 875 4013 500 3803 
L 500 4441 
Q 881 4594 1212 4672 
Q 1544 4750 1819 4750 
Q 2544 4750 2975 4387 
Q 3406 4025 3406 3419 
Q 3406 3131 3298 2873 
Q 3191 2616 2906 2266 
Q 2828 2175 2409 1742 
Q 1991 1309 1228 531 
z
" id="DejaVuSans-32" transform="scale(0.015625)"/>
        <path d="M 2034 4250 
Q 1547 4250 1301 3770 
Q 1056 3291 1056 2328 
Q 1056 1369 1301 889 
Q 1547 409 2034 409 
Q 2525 409 2770 889 
Q 3016 1369 3016 2328 
Q 3016 3291 2770 3770 
Q 2525 4250 2034 4250 
z
M 2034 4750 
Q 2819 4750 3233 4129 
Q 3647 3509 3647 2328 
Q 3647 1150 3233 529 
Q 2819 -91 2034 -91 
Q 1250 -91 836 529 
Q 422 1150 422 2328 
Q 422 3509 836 4129 
Q 1250 4750 2034 4750 
z
" id="DejaVuSans-30" transform="scale(0.015625)"/>
       </defs>
       <use xlink:href="#DejaVuSans-32"/>
       <use x="63.623047" xlink:href="#DejaVuSans-30"/>
       <use x="127.246094" xlink:href="#DejaVuSans-32"/>
       <use x="190.869141" xlink:href="#DejaVuSans-32"/>
      </g>
     </g>
    </g>
   </g>
   <g id="matplotlib.axis_2">
    <g id="ytick_1">
     <g id="line2d_23">
      <path clip-path="url(#p45819ffde0)" d="M 72 384.48 
L 518.4 384.48 
" style="fill:none;stroke:#000000;stroke-dasharray:0.8,1.32;stroke-dashoffset:0;stroke-width:0.8;"/>
     </g>
     <g id="line2d_24">
      <defs>
       <path d="M 0 0 
L -3.5 0 
" id="m4b28065bb6" style="stroke:#000000;stroke-width:0.8;"/>
      </defs>
      <g>
       <use style="stroke:#000000;stroke-width:0.8;" x="72" xlink:href="#m4b28065bb6" y="384.48"/>
      </g>
     </g>
     <g id="text_12">
      <!-- 0.0 -->
      <g transform="translate(49.096875 388.279219)scale(0.1 -0.1)">
       <defs>
        <path d="M 684 794 
L 1344 794 
L 1344 0 
L 684 0 
L 684 794 
z
" id="DejaVuSans-2e" transform="scale(0.015625)"/>
       </defs>
       <use xlink:href="#DejaVuSans-30"/>
       <use x="63.623047" xlink:href="#DejaVuSans-2e"/>
       <use x="95.410156" xlink:href="#DejaVuSans-30"/>
      </g>
     </g>
    </g>
    <g id="ytick_2">
     <g id="line2d_25">
      <path clip-path="url(#p45819ffde0)" d="M 72 345.855974 
L 518.4 345.855974 
" style="fill:none;stroke:#000000;stroke-dasharray:0.8,1.32;stroke-dashoffset:0;stroke-width:0.8;"/>
     </g>
     <g id="line2d_26">
      <g>
       <use style="stroke:#000000;stroke-width:0.8;" x="72" xlink:href="#m4b28065bb6" y="345.855974"/>
      </g>
     </g>
     <g id="text_13">
      <!-- 2.5 -->
      <g transform="translate(49.096875 349.655193)scale(0.1 -0.1)">
       <defs>
        <path d="M 691 4666 
L 3169 4666 
L 3169 4134 
L 1269 4134 
L 1269 2991 
Q 1406 3038 1543 3061 
Q 1681 3084 1819 3084 
Q 2600 3084 3056 2656 
Q 3513 2228 3513 1497 
Q 3513 744 3044 326 
Q 2575 -91 1722 -91 
Q 1428 -91 1123 -41 
Q 819 9 494 109 
L 494 744 
Q 775 591 1075 516 
Q 1375 441 1709 441 
Q 2250 441 2565 725 
Q 2881 1009 2881 1497 
Q 2881 1984 2565 2268 
Q 2250 2553 1709 2553 
Q 1456 2553 1204 2497 
Q 953 2441 691 2322 
L 691 4666 
z
" id="DejaVuSans-35" transform="scale(0.015625)"/>
       </defs>
       <use xlink:href="#DejaVuSans-32"/>
       <use x="63.623047" xlink:href="#DejaVuSans-2e"/>
       <use x="95.410156" xlink:href="#DejaVuSans-35"/>
      </g>
     </g>
    </g>
    <g id="ytick_3">
     <g id="line2d_27">
      <path clip-path="url(#p45819ffde0)" d="M 72 307.231948 
L 518.4 307.231948 
" style="fill:none;stroke:#000000;stroke-dasharray:0.8,1.32;stroke-dashoffset:0;stroke-width:0.8;"/>
     </g>
     <g id="line2d_28">
      <g>
       <use style="stroke:#000000;stroke-width:0.8;" x="72" xlink:href="#m4b28065bb6" y="307.231948"/>
      </g>
     </g>
     <g id="text_14">
      <!-- 5.0 -->
      <g transform="translate(49.096875 311.031167)scale(0.1 -0.1)">
       <use xlink:href="#DejaVuSans-35"/>
       <use x="63.623047" xlink:href="#DejaVuSans-2e"/>
       <use x="95.410156" xlink:href="#DejaVuSans-30"/>
      </g>
     </g>
    </g>
    <g id="ytick_4">
     <g id="line2d_29">
      <path clip-path="url(#p45819ffde0)" d="M 72 268.607922 
L 518.4 268.607922 
" style="fill:none;stroke:#000000;stroke-dasharray:0.8,1.32;stroke-dashoffset:0;stroke-width:0.8;"/>
     </g>
     <g id="line2d_30">
      <g>
       <use style="stroke:#000000;stroke-width:0.8;" x="72" xlink:href="#m4b28065bb6" y="268.607922"/>
      </g>
     </g>
     <g id="text_15">
      <!-- 7.5 -->
      <g transform="translate(49.096875 272.407141)scale(0.1 -0.1)">
       <defs>
        <path d="M 525 4666 
L 3525 4666 
L 3525 4397 
L 1831 0 
L 1172 0 
L 2766 4134 
L 525 4134 
L 525 4666 
z
" id="DejaVuSans-37" transform="scale(0.015625)"/>
       </defs>
       <use xlink:href="#DejaVuSans-37"/>
       <use x="63.623047" xlink:href="#DejaVuSans-2e"/>
       <use x="95.410156" xlink:href="#DejaVuSans-35"/>
      </g>
     </g>
    </g>
    <g id="ytick_5">
     <g id="line2d_31">
      <path clip-path="url(#p45819ffde0)" d="M 72 229.983896 
L 518.4 229.983896 
" style="fill:none;stroke:#000000;stroke-dasharray:0.8,1.32;stroke-dashoffset:0;stroke-width:0.8;"/>
     </g>
     <g id="line2d_32">
      <g>
       <use style="stroke:#000000;stroke-width:0.8;" x="72" xlink:href="#m4b28065bb6" y="229.983896"/>
      </g>
     </g>
     <g id="text_16">
      <!-- 10.0 -->
      <g transform="translate(42.734375 233.783115)scale(0.1 -0.1)">
       <defs>
        <path d="M 794 531 
L 1825 531 
L 1825 4091 
L 703 3866 
L 703 4441 
L 1819 4666 
L 2450 4666 
L 2450 531 
L 3481 531 
L 3481 0 
L 794 0 
L 794 531 
z
" id="DejaVuSans-31" transform="scale(0.015625)"/>
       </defs>
       <use xlink:href="#DejaVuSans-31"/>
       <use x="63.623047" xlink:href="#DejaVuSans-30"/>
       <use x="127.246094" xlink:href="#DejaVuSans-2e"/>
       <use x="159.033203" xlink:href="#DejaVuSans-30"/>
      </g>
     </g>
    </g>
    <g id="ytick_6">
     <g id="line2d_33">
      <path clip-path="url(#p45819ffde0)" d="M 72 191.35987 
L 518.4 191.35987 
" style="fill:none;stroke:#000000;stroke-dasharray:0.8,1.32;stroke-dashoffset:0;stroke-width:0.8;"/>
     </g>
     <g id="line2d_34">
      <g>
       <use style="stroke:#000000;stroke-width:0.8;" x="72" xlink:href="#m4b28065bb6" y="191.35987"/>
      </g>
     </g>
     <g id="text_17">
      <!-- 12.5 -->
      <g transform="translate(42.734375 195.159089)scale(0.1 -0.1)">
       <use xlink:href="#DejaVuSans-31"/>
       <use x="63.623047" xlink:href="#DejaVuSans-32"/>
       <use x="127.246094" xlink:href="#DejaVuSans-2e"/>
       <use x="159.033203" xlink:href="#DejaVuSans-35"/>
      </g>
     </g>
    </g>
    <g id="ytick_7">
     <g id="line2d_35">
      <path clip-path="url(#p45819ffde0)" d="M 72 152.735844 
L 518.4 152.735844 
" style="fill:none;stroke:#000000;stroke-dasharray:0.8,1.32;stroke-dashoffset:0;stroke-width:0.8;"/>
     </g>
     <g id="line2d_36">
      <g>
       <use style="stroke:#000000;stroke-width:0.8;" x="72" xlink:href="#m4b28065bb6" y="152.735844"/>
      </g>
     </g>
     <g id="text_18">
      <!-- 15.0 -->
      <g transform="translate(42.734375 156.535063)scale(0.1 -0.1)">
       <use xlink:href="#DejaVuSans-31"/>
       <use x="63.623047" xlink:href="#DejaVuSans-35"/>
       <use x="127.246094" xlink:href="#DejaVuSans-2e"/>
       <use x="159.033203" xlink:href="#DejaVuSans-30"/>
      </g>
     </g>
    </g>
    <g id="ytick_8">
     <g id="line2d_37">
      <path clip-path="url(#p45819ffde0)" d="M 72 114.111818 
L 518.4 114.111818 
" style="fill:none;stroke:#000000;stroke-dasharray:0.8,1.32;stroke-dashoffset:0;stroke-width:0.8;"/>
     </g>
     <g id="line2d_38">
      <g>
       <use style="stroke:#000000;stroke-width:0.8;" x="72" xlink:href="#m4b28065bb6" y="114.111818"/>
      </g>
     </g>
     <g id="text_19">
      <!-- 17.5 -->
      <g transform="translate(42.734375 117.911036)scale(0.1 -0.1)">
       <use xlink:href="#DejaVuSans-31"/>
       <use x="63.623047" xlink:href="#DejaVuSans-37"/>
       <use x="127.246094" xlink:href="#DejaVuSans-2e"/>
       <use x="159.033203" xlink:href="#DejaVuSans-35"/>
      </g>
     </g>
    </g>
    <g id="ytick_9">
     <g id="line2d_39">
      <path clip-path="url(#p45819ffde0)" d="M 72 75.487792 
L 518.4 75.487792 
" style="fill:none;stroke:#000000;stroke-dasharray:0.8,1.32;stroke-dashoffset:0;stroke-width:0.8;"/>
     </g>
     <g id="line2d_40">
      <g>
       <use style="stroke:#000000;stroke-width:0.8;" x="72" xlink:href="#m4b28065bb6" y="75.487792"/>
      </g>
     </g>
     <g id="text_20">
      <!-- 20.0 -->
      <g transform="translate(42.734375 79.28701)scale(0.1 -0.1)">
       <use xlink:href="#DejaVuSans-32"/>
       <use x="63.623047" xlink:href="#DejaVuSans-30"/>
       <use x="127.246094" xlink:href="#DejaVuSans-2e"/>
       <use x="159.033203" xlink:href="#DejaVuSans-30"/>
      </g>
     </g>
    </g>
    <g id="text_21">
     <!-- Cumulative doses (millions) -->
     <g transform="translate(36.654687 287.556094)rotate(-90)scale(0.1 -0.1)">
      <defs>
       <path d="M 4122 4306 
L 4122 3641 
Q 3803 3938 3442 4084 
Q 3081 4231 2675 4231 
Q 1875 4231 1450 3742 
Q 1025 3253 1025 2328 
Q 1025 1406 1450 917 
Q 1875 428 2675 428 
Q 3081 428 3442 575 
Q 3803 722 4122 1019 
L 4122 359 
Q 3791 134 3420 21 
Q 3050 -91 2638 -91 
Q 1578 -91 968 557 
Q 359 1206 359 2328 
Q 359 3453 968 4101 
Q 1578 4750 2638 4750 
Q 3056 4750 3426 4639 
Q 3797 4528 4122 4306 
z
" id="DejaVuSans-43" transform="scale(0.015625)"/>
       <path d="M 3328 2828 
Q 3544 3216 3844 3400 
Q 4144 3584 4550 3584 
Q 5097 3584 5394 3201 
Q 5691 2819 5691 2113 
L 5691 0 
L 5113 0 
L 5113 2094 
Q 5113 2597 4934 2840 
Q 4756 3084 4391 3084 
Q 3944 3084 3684 2787 
Q 3425 2491 3425 1978 
L 3425 0 
L 2847 0 
L 2847 2094 
Q 2847 2600 2669 2842 
Q 2491 3084 2119 3084 
Q 1678 3084 1418 2786 
Q 1159 2488 1159 1978 
L 1159 0 
L 581 0 
L 581 3500 
L 1159 3500 
L 1159 2956 
Q 1356 3278 1631 3431 
Q 1906 3584 2284 3584 
Q 2666 3584 2933 3390 
Q 3200 3197 3328 2828 
z
" id="DejaVuSans-6d" transform="scale(0.015625)"/>
       <path d="M 603 3500 
L 1178 3500 
L 1178 0 
L 603 0 
L 603 3500 
z
M 603 4863 
L 1178 4863 
L 1178 4134 
L 603 4134 
L 603 4863 
z
" id="DejaVuSans-69" transform="scale(0.015625)"/>
       <path id="DejaVuSans-20" transform="scale(0.015625)"/>
       <path d="M 2906 2969 
L 2906 4863 
L 3481 4863 
L 3481 0 
L 2906 0 
L 2906 525 
Q 2725 213 2448 61 
Q 2172 -91 1784 -91 
Q 1150 -91 751 415 
Q 353 922 353 1747 
Q 353 2572 751 3078 
Q 1150 3584 1784 3584 
Q 2172 3584 2448 3432 
Q 2725 3281 2906 2969 
z
M 947 1747 
Q 947 1113 1208 752 
Q 1469 391 1925 391 
Q 2381 391 2643 752 
Q 2906 1113 2906 1747 
Q 2906 2381 2643 2742 
Q 2381 3103 1925 3103 
Q 1469 3103 1208 2742 
Q 947 2381 947 1747 
z
" id="DejaVuSans-64" transform="scale(0.015625)"/>
       <path d="M 2834 3397 
L 2834 2853 
Q 2591 2978 2328 3040 
Q 2066 3103 1784 3103 
Q 1356 3103 1142 2972 
Q 928 2841 928 2578 
Q 928 2378 1081 2264 
Q 1234 2150 1697 2047 
L 1894 2003 
Q 2506 1872 2764 1633 
Q 3022 1394 3022 966 
Q 3022 478 2636 193 
Q 2250 -91 1575 -91 
Q 1294 -91 989 -36 
Q 684 19 347 128 
L 347 722 
Q 666 556 975 473 
Q 1284 391 1588 391 
Q 1994 391 2212 530 
Q 2431 669 2431 922 
Q 2431 1156 2273 1281 
Q 2116 1406 1581 1522 
L 1381 1569 
Q 847 1681 609 1914 
Q 372 2147 372 2553 
Q 372 3047 722 3315 
Q 1072 3584 1716 3584 
Q 2034 3584 2315 3537 
Q 2597 3491 2834 3397 
z
" id="DejaVuSans-73" transform="scale(0.015625)"/>
       <path d="M 1984 4856 
Q 1566 4138 1362 3434 
Q 1159 2731 1159 2009 
Q 1159 1288 1364 580 
Q 1569 -128 1984 -844 
L 1484 -844 
Q 1016 -109 783 600 
Q 550 1309 550 2009 
Q 550 2706 781 3412 
Q 1013 4119 1484 4856 
L 1984 4856 
z
" id="DejaVuSans-28" transform="scale(0.015625)"/>
       <path d="M 513 4856 
L 1013 4856 
Q 1481 4119 1714 3412 
Q 1947 2706 1947 2009 
Q 1947 1309 1714 600 
Q 1481 -109 1013 -844 
L 513 -844 
Q 928 -128 1133 580 
Q 1338 1288 1338 2009 
Q 1338 2731 1133 3434 
Q 928 4138 513 4856 
z
" id="DejaVuSans-29" transform="scale(0.015625)"/>
      </defs>
      <use xlink:href="#DejaVuSans-43"/>
      <use x="69.824219" xlink:href="#DejaVuSans-75"/>
      <use x="133.203125" xlink:href="#DejaVuSans-6d"/>
      <use x="230.615234" xlink:href="#DejaVuSans-75"/>
      <use x="293.994141" xlink:href="#DejaVuSans-6c"/>
      <use x="321.777344" xlink:href="#DejaVuSans-61"/>
      <use x="383.056641" xlink:href="#DejaVuSans-74"/>
      <use x="422.265625" xlink:href="#DejaVuSans-69"/>
      <use x="450.048828" xlink:href="#DejaVuSans-76"/>
      <use x="509.228516" xlink:href="#DejaVuSans-65"/>
      <use x="570.751953" xlink:href="#DejaVuSans-20"/>
      <use x="602.539062" xlink:href="#DejaVuSans-64"/>
      <use x="666.015625" xlink:href="#DejaVuSans-6f"/>
      <use x="727.197266" xlink:href="#DejaVuSans-73"/>
      <use x="779.296875" xlink:href="#DejaVuSans-65"/>
      <use x="840.820312" xlink:href="#DejaVuSans-73"/>
      <use x="892.919922" xlink:href="#DejaVuSans-20"/>
      <use x="924.707031" xlink:href="#DejaVuSans-28"/>
      <use x="963.720703" xlink:href="#DejaVuSans-6d"/>
      <use x="1061.132812" xlink:href="#DejaVuSans-69"/>
      <use x="1088.916016" xlink:href="#DejaVuSans-6c"/>
      <use x="1116.699219" xlink:href="#DejaVuSans-6c"/>
      <use x="1144.482422" xlink:href="#DejaVuSans-69"/>
      <use x="1172.265625" xlink:href="#DejaVuSans-6f"/>
      <use x="1233.447266" xlink:href="#DejaVuSans-6e"/>
      <use x="1296.826172" xlink:href="#DejaVuSans-73"/>
      <use x="1348.925781" xlink:href="#DejaVuSans-29"/>
     </g>
    </g>
   </g>
   <g id="line2d_41">
    <path clip-path="url(#p45819ffde0)" d="M 72 384.425459 
L 72 384.367469 
L 74.602915 384.305804 
L 74.602915 384.240229 
L 77.205831 384.170498 
L 77.205831 384.096353 
L 79.808746 384.017524 
L 79.808746 383.933732 
L 82.411662 383.844684 
L 82.411662 383.750075 
L 85.014577 383.649585 
L 85.014577 383.542882 
L 86.316035 383.542882 
L 86.316035 383.429616 
L 87.617493 383.429616 
L 87.617493 383.309415 
L 88.91895 383.309415 
L 88.91895 383.181885 
L 90.220408 383.181885 
L 90.220408 383.046599 
L 91.521866 383.046599 
L 91.521866 382.90309 
L 92.823324 382.90309 
L 92.823324 382.750837 
L 94.124781 382.750837 
L 94.124781 382.589258 
L 95.426239 382.589258 
L 95.426239 382.417691 
L 96.727697 382.417691 
L 96.727697 382.235389 
L 98.029155 382.235389 
L 98.029155 382.041507 
L 99.330612 382.041507 
L 99.330612 381.8351 
L 100.63207 381.8351 
L 100.63207 381.615132 
L 101.933528 381.615132 
L 101.933528 381.380487 
L 103.234985 381.380487 
L 103.234985 381.129997 
L 104.536443 381.129997 
L 104.536443 380.862483 
L 105.837901 380.862483 
L 105.837901 380.576801 
L 107.139359 380.576801 
L 107.139359 380.271899 
L 108.440816 380.271899 
L 108.440816 379.946877 
L 109.742274 379.946877 
L 109.742274 379.601052 
L 111.043732 379.601052 
L 111.043732 379.234007 
L 112.34519 379.234007 
L 112.34519 378.845628 
L 113.646647 378.845628 
L 113.646647 378.436123 
L 114.948105 378.436123 
L 114.948105 378.006019 
L 116.249563 378.006019 
L 116.249563 377.55614 
L 117.55102 377.55614 
L 117.55102 377.087555 
L 118.852478 377.087555 
L 118.852478 376.601505 
L 120.153936 376.601505 
L 120.153936 376.099331 
L 121.455394 376.099331 
L 121.455394 375.582378 
L 122.756851 375.582378 
L 122.756851 375.051919 
L 124.058309 375.051919 
L 124.058309 374.509076 
L 125.359767 374.509076 
L 125.359767 373.954771 
L 126.661224 373.954771 
L 126.661224 373.389685 
L 127.962682 373.389685 
L 127.962682 372.81426 
L 129.26414 372.81426 
L 129.26414 372.228713 
L 130.565598 372.228713 
L 130.565598 371.633076 
L 131.867055 371.633076 
L 131.867055 371.027259 
L 133.168513 371.027259 
L 133.168513 370.411121 
L 134.469971 370.411121 
L 134.469971 369.784539 
L 135.771429 369.784539 
L 135.771429 369.147488 
L 137.072886 369.147488 
L 137.072886 368.500101 
L 138.374344 368.500101 
L 138.374344 367.842718 
L 139.675802 367.842718 
L 139.675802 367.175916 
L 140.977259 367.175916 
L 140.977259 366.500511 
L 142.278717 366.500511 
L 142.278717 365.817547 
L 143.580175 365.817547 
L 143.580175 365.128252 
L 144.881633 365.128252 
L 144.881633 364.433976 
L 146.18309 364.433976 
L 146.18309 363.736119 
L 147.484548 363.736119 
L 147.484548 363.03604 
L 148.786006 363.03604 
L 148.786006 362.334967 
L 150.087464 362.334967 
L 150.087464 361.633909 
L 151.388921 361.633909 
L 151.388921 360.933587 
L 152.690379 360.933587 
L 152.690379 360.234373 
L 153.991837 360.234373 
L 153.991837 359.536261 
L 155.293294 359.536261 
L 155.293294 358.838859 
L 156.594752 358.838859 
L 156.594752 358.141417 
L 157.89621 358.141417 
L 157.89621 357.442867 
L 159.197668 357.442867 
L 159.197668 356.741894 
L 160.499125 356.741894 
L 160.499125 356.037013 
L 161.800583 356.037013 
L 161.800583 355.326662 
L 163.102041 355.326662 
L 163.102041 354.609277 
L 164.403499 354.609277 
L 164.403499 353.883377 
L 165.704956 353.883377 
L 165.704956 353.147613 
L 167.006414 353.147613 
L 167.006414 352.400819 
L 168.307872 352.400819 
L 168.307872 351.64202 
L 169.609329 351.64202 
L 169.609329 350.870432 
L 170.910787 350.870432 
L 170.910787 350.085438 
L 172.212245 350.085438 
L 172.212245 349.286549 
L 173.513703 349.286549 
L 173.513703 348.473353 
L 174.81516 348.473353 
L 174.81516 347.645462 
L 176.116618 347.645462 
L 176.116618 346.802451 
L 177.418076 346.802451 
L 177.418076 345.943813 
L 178.719534 345.943813 
L 178.719534 345.068918 
L 180.020991 345.068918 
L 180.020991 344.17698 
L 181.322449 344.17698 
L 181.322449 343.267049 
L 182.623907 343.267049 
L 182.623907 342.338003 
L 183.925364 342.338003 
L 183.925364 341.388567 
L 185.226822 341.388567 
L 185.226822 340.417339 
L 186.52828 340.417339 
L 186.52828 339.422835 
L 187.829738 339.422835 
L 187.829738 338.403533 
L 189.131195 338.403533 
L 189.131195 337.35794 
L 190.432653 337.35794 
L 190.432653 336.284652 
L 191.734111 336.284652 
L 191.734111 335.182435 
L 193.035569 335.182435 
L 193.035569 334.050297 
L 194.337026 334.050297 
L 194.337026 332.887564 
L 195.638484 332.887564 
L 195.638484 331.693951 
L 196.939942 331.693951 
L 196.939942 330.469633 
L 198.241399 330.469633 
L 198.241399 329.215303 
L 199.542857 329.215303 
L 199.542857 327.932222 
L 200.844315 327.932222 
L 200.844315 326.622246 
L 202.145773 326.622246 
L 202.145773 325.287835 
L 203.44723 325.287835 
L 203.44723 323.932044 
L 204.748688 323.932044 
L 204.748688 322.558482 
L 206.050146 322.558482 
L 206.050146 321.171248 
L 207.351603 321.171248 
L 207.351603 319.774833 
L 208.653061 319.774833 
L 208.653061 318.374011 
L 209.954519 318.374011 
L 209.954519 316.973697 
L 211.255977 316.973697 
L 211.255977 315.578795 
L 212.557434 315.578795 
L 212.557434 314.194037 
L 213.858892 314.194037 
L 213.858892 312.823826 
L 215.16035 312.823826 
L 215.16035 311.472084 
L 216.461808 311.472084 
L 216.461808 310.142118 
L 217.763265 310.142118 
L 217.763265 308.836525 
L 219.064723 308.836525 
L 219.064723 307.557116 
L 220.366181 307.557116 
L 220.366181 306.304886 
L 221.667638 306.304886 
L 221.667638 305.080027 
L 222.969096 305.080027 
L 222.969096 303.881975 
L 224.270554 303.881975 
L 224.270554 302.709495 
L 225.572012 302.709495 
L 225.572012 301.560799 
L 226.873469 301.560799 
L 226.873469 300.433691 
L 228.174927 300.433691 
L 228.174927 299.325721 
L 229.476385 299.325721 
L 229.476385 298.234354 
L 230.777843 298.234354 
L 230.777843 297.157129 
L 232.0793 297.157129 
L 232.0793 296.091813 
L 233.380758 296.091813 
L 233.380758 295.036529 
L 234.682216 295.036529 
L 234.682216 293.989857 
L 235.983673 293.989857 
L 235.983673 292.9509 
L 237.285131 292.9509 
L 237.285131 291.91931 
L 238.586589 291.91931 
L 238.586589 290.895275 
L 239.888047 290.895275 
L 239.888047 289.879463 
L 241.189504 289.879463 
L 241.189504 288.872934 
L 242.490962 288.872934 
L 242.490962 287.877022 
L 243.79242 287.877022 
L 243.79242 286.893208 
L 245.093878 286.893208 
L 245.093878 285.922973 
L 246.395335 285.922973 
L 246.395335 284.967675 
L 247.696793 284.967675 
L 247.696793 284.028424 
L 248.998251 284.028424 
L 248.998251 283.106001 
L 250.299708 283.106001 
L 250.299708 282.2008 
L 251.601166 282.2008 
L 251.601166 281.312804 
L 252.902624 281.312804 
L 252.902624 280.441597 
L 254.204082 280.441597 
L 254.204082 279.586409 
L 255.505539 279.586409 
L 255.505539 278.746173 
L 256.806997 278.746173 
L 256.806997 277.919608 
L 258.108455 277.919608 
L 258.108455 277.1053 
L 259.409913 277.1053 
L 259.409913 276.301784 
L 260.71137 276.301784 
L 260.71137 275.507616 
L 262.012828 275.507616 
L 262.012828 274.721431 
L 263.314286 274.721431 
L 263.314286 273.94199 
L 264.615743 273.94199 
L 264.615743 273.168206 
L 265.917201 273.168206 
L 265.917201 272.399154 
L 267.218659 272.399154 
L 267.218659 271.634074 
L 268.520117 271.634074 
L 268.520117 270.872361 
L 269.821574 270.872361 
L 269.821574 270.11355 
L 271.123032 270.11355 
L 271.123032 269.357295 
L 272.42449 269.357295 
L 272.42449 268.603346 
L 273.725948 268.603346 
L 273.725948 267.851531 
L 275.027405 267.851531 
L 275.027405 267.101735 
L 276.328863 267.101735 
L 276.328863 266.353885 
L 277.630321 266.353885 
L 277.630321 265.607937 
L 278.931778 265.607937 
L 278.931778 264.863866 
L 280.233236 264.863866 
L 280.233236 264.121657 
L 281.534694 264.121657 
L 281.534694 263.381302 
L 282.836152 263.381302 
L 282.836152 262.642793 
L 284.137609 262.642793 
L 284.137609 261.906121 
L 285.439067 261.906121 
L 285.439067 261.171276 
L 286.740525 261.171276 
L 286.740525 260.438242 
L 288.041983 260.438242 
L 288.041983 259.707003 
L 289.34344 259.707003 
L 289.34344 258.977537 
L 290.644898 258.977537 
L 290.644898 258.249823 
L 291.946356 258.249823 
L 291.946356 257.52383 
L 293.247813 257.52383 
L 293.247813 256.799528 
L 294.549271 256.799528 
L 294.549271 256.07688 
L 295.850729 256.07688 
L 295.850729 255.355848 
L 297.152187 255.355848 
L 297.152187 254.636384 
L 298.453644 254.636384 
L 298.453644 253.918436 
L 299.755102 253.918436 
L 299.755102 253.201943 
L 301.05656 253.201943 
L 301.05656 252.486829 
L 302.358017 252.486829 
L 302.358017 251.773006 
L 303.659475 251.773006 
L 303.659475 251.060358 
L 304.960933 251.060358 
L 304.960933 250.348746 
L 306.262391 250.348746 
L 306.262391 249.637989 
L 307.563848 249.637989 
L 307.563848 248.927865 
L 308.865306 248.927865 
L 308.865306 248.218092 
L 310.166764 248.218092 
L 310.166764 247.508326 
L 311.468222 247.508326 
L 311.468222 246.798143 
L 312.769679 246.798143 
L 312.769679 246.087038 
L 314.071137 246.087038 
L 314.071137 245.374415 
L 315.372595 245.374415 
L 315.372595 244.659585 
L 316.674052 244.659585 
L 316.674052 243.941765 
L 317.97551 243.941765 
L 317.97551 243.220092 
L 319.276968 243.220092 
L 319.276968 242.493627 
L 320.578426 242.493627 
L 320.578426 241.761377 
L 321.879883 241.761377 
L 321.879883 241.022317 
L 323.181341 241.022317 
L 323.181341 240.275416 
L 324.482799 240.275416 
L 324.482799 239.51967 
L 325.784257 239.51967 
L 325.784257 238.754123 
L 327.085714 238.754123 
L 327.085714 237.977904 
L 328.387172 237.977904 
L 328.387172 237.190247 
L 329.68863 237.190247 
L 329.68863 236.390513 
L 330.990087 236.390513 
L 330.990087 235.578204 
L 332.291545 235.578204 
L 332.291545 234.752966 
L 333.593003 234.752966 
L 333.593003 233.914587 
L 334.894461 233.914587 
L 334.894461 233.062986 
L 336.195918 233.062986 
L 336.195918 232.198194 
L 337.497376 232.198194 
L 337.497376 231.320326 
L 338.798834 231.320326 
L 338.798834 230.42955 
L 340.100292 230.42955 
L 340.100292 229.526045 
L 341.401749 229.526045 
L 341.401749 228.609957 
L 342.703207 228.609957 
L 342.703207 227.681355 
L 344.004665 227.681355 
L 344.004665 226.740179 
L 345.306122 226.740179 
L 345.306122 225.78619 
L 346.60758 225.78619 
L 346.60758 224.818921 
L 347.909038 224.818921 
L 347.909038 223.837638 
L 349.210496 223.837638 
L 349.210496 222.841296 
L 350.511953 222.841296 
L 350.511953 221.828514 
L 351.813411 221.828514 
L 351.813411 220.797567 
L 353.114869 220.797567 
L 353.114869 219.746382 
L 354.416327 219.746382 
L 354.416327 218.672564 
L 355.717784 218.672564 
L 355.717784 217.573437 
L 357.019242 217.573437 
L 357.019242 216.446104 
L 358.3207 216.446104 
L 358.3207 215.28753 
L 359.622157 215.28753 
L 359.622157 214.09463 
L 360.923615 214.09463 
L 360.923615 212.864378 
L 362.225073 212.864378 
L 362.225073 211.593905 
L 363.526531 211.593905 
L 363.526531 210.280604 
L 364.827988 210.280604 
L 364.827988 208.92222 
L 366.129446 208.92222 
L 366.129446 207.516922 
L 367.430904 207.516922 
L 367.430904 206.063361 
L 368.732362 206.063361 
L 368.732362 204.560693 
L 370.033819 204.560693 
L 370.033819 203.008593 
L 371.335277 203.008593 
L 371.335277 201.407236 
L 372.636735 201.407236 
L 372.636735 199.75726 
L 373.938192 199.75726 
L 373.938192 198.059716 
L 375.23965 198.059716 
L 375.23965 196.31601 
L 376.541108 196.31601 
L 376.541108 194.527829 
L 377.842566 194.527829 
L 377.842566 192.69708 
L 379.144023 192.69708 
L 379.144023 190.825819 
L 380.445481 190.825819 
L 380.445481 188.916192 
L 381.746939 188.916192 
L 381.746939 186.970387 
L 383.048397 186.970387 
L 383.048397 184.990583 
L 384.349854 184.990583 
L 384.349854 182.978921 
L 385.651312 182.978921 
L 385.651312 180.937478 
L 386.95277 180.937478 
L 386.95277 178.868244 
L 388.254227 178.868244 
L 388.254227 176.773112 
L 389.555685 176.773112 
L 389.555685 174.653874 
L 390.857143 174.653874 
L 390.857143 172.512215 
L 392.158601 172.512215 
L 392.158601 170.349713 
L 393.460058 170.349713 
L 393.460058 168.167843 
L 394.761516 168.167843 
L 394.761516 165.967982 
L 396.062974 165.967982 
L 396.062974 163.751411 
L 397.364431 163.751411 
L 397.364431 161.519322 
L 398.665889 161.519322 
L 398.665889 159.272824 
L 399.967347 159.272824 
L 399.967347 157.012948 
L 401.268805 157.012948 
L 401.268805 154.74065 
L 402.570262 154.74065 
L 402.570262 152.45682 
L 403.87172 152.45682 
L 403.87172 150.162283 
L 405.173178 150.162283 
L 405.173178 147.857805 
L 406.474636 147.857805 
L 406.474636 145.544097 
L 407.776093 145.544097 
L 407.776093 143.221821 
L 409.077551 143.221821 
L 409.077551 140.891589 
L 410.379009 140.891589 
L 410.379009 138.55397 
L 411.680466 138.55397 
L 411.680466 136.209494 
L 412.981924 136.209494 
L 412.981924 133.858652 
L 414.283382 133.858652 
L 414.283382 131.501898 
L 415.58484 131.501898 
L 415.58484 129.139657 
L 416.886297 129.139657 
L 416.886297 126.772321 
L 418.187755 126.772321 
L 418.187755 124.400261 
L 419.489213 124.400261 
L 419.489213 122.023827 
L 420.790671 122.023827 
L 420.790671 119.643355 
L 422.092128 119.643355 
L 422.092128 117.259168 
L 423.393586 117.259168 
L 423.393586 114.871591 
L 424.695044 114.871591 
L 424.695044 112.480961 
L 425.996501 112.480961 
L 425.996501 110.087651 
L 427.297959 110.087651 
L 427.297959 107.692086 
L 428.599417 107.692086 
L 428.599417 105.294781 
L 429.900875 105.294781 
L 429.900875 102.896389 
L 431.202332 102.896389 
L 431.202332 100.497755 
L 432.50379 100.497755 
L 432.50379 98.099997 
L 433.805248 98.099997 
L 433.805248 95.704591 
L 435.106706 95.704591 
L 435.106706 93.313478 
L 436.408163 93.313478 
L 436.408163 90.929183 
L 437.709621 90.929183 
L 437.709621 88.554939 
L 439.011079 88.554939 
L 439.011079 86.194813 
L 440.312536 86.194813 
L 440.312536 83.853818 
L 441.613994 83.853818 
L 441.613994 81.538007 
L 442.915452 81.538007 
L 442.915452 79.254516 
L 444.21691 79.254516 
L 444.21691 77.011563 
L 445.518367 77.011563 
L 445.518367 74.818371 
L 446.819825 74.818371 
L 446.819825 72.685014 
L 448.121283 72.685014 
L 448.121283 70.622181 
L 449.422741 70.622181 
L 449.422741 68.640856 
L 450.724198 68.640856 
L 450.724198 66.751932 
L 452.025656 66.751932 
L 452.025656 64.965773 
L 453.327114 64.965773 
L 453.327114 63.291762 
L 454.628571 63.291762 
L 454.628571 61.73785 
L 455.930029 61.73785 
L 455.930029 60.310159 
L 457.231487 60.310159 
L 457.231487 59.012663 
L 458.532945 59.012663 
L 458.532945 57.846979 
L 459.834402 57.846979 
L 459.834402 56.812274 
L 461.13586 56.812274 
L 461.13586 55.905324 
L 462.437318 55.905324 
L 462.437318 55.120684 
L 463.738776 55.120684 
L 463.738776 54.450983 
L 465.040233 54.450983 
L 465.040233 53.887303 
L 466.341691 53.887303 
L 466.341691 53.419616 
L 467.643149 53.419616 
L 467.643149 53.037236 
L 468.944606 53.037236 
L 468.944606 52.729269 
L 470.246064 52.729269 
L 470.246064 52.48501 
L 471.547522 52.48501 
L 471.547522 52.294287 
L 472.84898 52.294287 
L 472.84898 52.147716 
L 475.451895 52.036881 
L 475.451895 51.954433 
L 479.356268 51.850725 
L 479.356268 51.820043 
L 518.4 51.757435 
L 518.4 51.757435 
" style="fill:none;stroke:#1f77b4;stroke-linecap:square;stroke-width:1.5;"/>
   </g>
   <g id="line2d_42">
    <path clip-path="url(#p45819ffde0)" d="M 72 384.479997 
L 72 384.47999 
L 101.933528 384.389233 
L 101.933528 384.365678 
L 107.139359 384.267666 
L 107.139359 384.224957 
L 111.043732 384.123686 
L 111.043732 384.065189 
L 113.646647 384.001649 
L 113.646647 383.933318 
L 116.249563 383.860511 
L 116.249563 383.783587 
L 118.852478 383.70293 
L 118.852478 383.618925 
L 121.455394 383.531942 
L 121.455394 383.442314 
L 124.058309 383.35033 
L 124.058309 383.256223 
L 126.661224 383.160174 
L 126.661224 383.062307 
L 129.26414 382.962705 
L 129.26414 382.861416 
L 131.867055 382.758465 
L 131.867055 382.653868 
L 134.469971 382.547645 
L 134.469971 382.439828 
L 137.072886 382.330471 
L 137.072886 382.219653 
L 138.374344 382.219653 
L 138.374344 382.107479 
L 139.675802 382.107479 
L 139.675802 381.994085 
L 140.977259 381.994085 
L 140.977259 381.879633 
L 142.278717 381.879633 
L 142.278717 381.764311 
L 143.580175 381.764311 
L 143.580175 381.648326 
L 144.881633 381.648326 
L 144.881633 381.531908 
L 146.18309 381.531908 
L 146.18309 381.415294 
L 147.484548 381.415294 
L 147.484548 381.298733 
L 148.786006 381.298733 
L 148.786006 381.182475 
L 150.087464 381.182475 
L 150.087464 381.066766 
L 151.388921 381.066766 
L 151.388921 380.951836 
L 152.690379 380.951836 
L 152.690379 380.8379 
L 153.991837 380.8379 
L 153.991837 380.72514 
L 155.293294 380.72514 
L 155.293294 380.613704 
L 157.89621 380.503701 
L 157.89621 380.395187 
L 160.499125 380.288168 
L 160.499125 380.182596 
L 163.102041 380.078362 
L 163.102041 379.975301 
L 165.704956 379.873187 
L 165.704956 379.77174 
L 168.307872 379.670628 
L 168.307872 379.569473 
L 170.910787 379.467863 
L 170.910787 379.365361 
L 173.513703 379.261524 
L 173.513703 379.155915 
L 176.116618 379.048124 
L 176.116618 378.937778 
L 177.418076 378.937778 
L 177.418076 378.82456 
L 178.719534 378.82456 
L 178.719534 378.708208 
L 180.020991 378.708208 
L 180.020991 378.588524 
L 181.322449 378.588524 
L 181.322449 378.465363 
L 182.623907 378.465363 
L 182.623907 378.338622 
L 183.925364 378.338622 
L 183.925364 378.208224 
L 185.226822 378.208224 
L 185.226822 378.074098 
L 186.52828 378.074098 
L 186.52828 377.936154 
L 187.829738 377.936154 
L 187.829738 377.794266 
L 189.131195 377.794266 
L 189.131195 377.648252 
L 190.432653 377.648252 
L 190.432653 377.497859 
L 191.734111 377.497859 
L 191.734111 377.342761 
L 193.035569 377.342761 
L 193.035569 377.182552 
L 194.337026 377.182552 
L 194.337026 377.016756 
L 195.638484 377.016756 
L 195.638484 376.844836 
L 196.939942 376.844836 
L 196.939942 376.666201 
L 198.241399 376.666201 
L 198.241399 376.480223 
L 199.542857 376.480223 
L 199.542857 376.286242 
L 200.844315 376.286242 
L 200.844315 376.08357 
L 202.145773 376.08357 
L 202.145773 375.871493 
L 203.44723 375.871493 
L 203.44723 375.649259 
L 204.748688 375.649259 
L 204.748688 375.416063 
L 206.050146 375.416063 
L 206.050146 375.171038 
L 207.351603 375.171038 
L 207.351603 374.913231 
L 208.653061 374.913231 
L 208.653061 374.641591 
L 209.954519 374.641591 
L 209.954519 374.35496 
L 211.255977 374.35496 
L 211.255977 374.052074 
L 212.557434 374.052074 
L 212.557434 373.731585 
L 213.858892 373.731585 
L 213.858892 373.392079 
L 215.16035 373.392079 
L 215.16035 373.032127 
L 216.461808 373.032127 
L 216.461808 372.650332 
L 217.763265 372.650332 
L 217.763265 372.245396 
L 219.064723 372.245396 
L 219.064723 371.816181 
L 220.366181 371.816181 
L 220.366181 371.36177 
L 221.667638 371.36177 
L 221.667638 370.881514 
L 222.969096 370.881514 
L 222.969096 370.375068 
L 224.270554 370.375068 
L 224.270554 369.842404 
L 225.572012 369.842404 
L 225.572012 369.283803 
L 226.873469 369.283803 
L 226.873469 368.699828 
L 228.174927 368.699828 
L 228.174927 368.091265 
L 229.476385 368.091265 
L 229.476385 367.459067 
L 230.777843 367.459067 
L 230.777843 366.804275 
L 232.0793 366.804275 
L 232.0793 366.127949 
L 233.380758 366.127949 
L 233.380758 365.431096 
L 234.682216 365.431096 
L 234.682216 364.714617 
L 235.983673 364.714617 
L 235.983673 363.979268 
L 237.285131 363.979268 
L 237.285131 363.225651 
L 238.586589 363.225651 
L 238.586589 362.454217 
L 239.888047 362.454217 
L 239.888047 361.665298 
L 241.189504 361.665298 
L 241.189504 360.859155 
L 242.490962 360.859155 
L 242.490962 360.036041 
L 243.79242 360.036041 
L 243.79242 359.196265 
L 245.093878 359.196265 
L 245.093878 358.340261 
L 246.395335 358.340261 
L 246.395335 357.468645 
L 247.696793 357.468645 
L 247.696793 356.582256 
L 248.998251 356.582256 
L 248.998251 355.682184 
L 250.299708 355.682184 
L 250.299708 354.769758 
L 251.601166 354.769758 
L 251.601166 353.846524 
L 252.902624 353.846524 
L 252.902624 352.914181 
L 254.204082 352.914181 
L 254.204082 351.974508 
L 255.505539 351.974508 
L 255.505539 351.029259 
L 256.806997 351.029259 
L 256.806997 350.080059 
L 258.108455 350.080059 
L 258.108455 349.128293 
L 259.409913 349.128293 
L 259.409913 348.175011 
L 260.71137 348.175011 
L 260.71137 347.220849 
L 262.012828 347.220849 
L 262.012828 346.265982 
L 263.314286 346.265982 
L 263.314286 345.310107 
L 264.615743 345.310107 
L 264.615743 344.352467 
L 265.917201 344.352467 
L 265.917201 343.391908 
L 267.218659 343.391908 
L 267.218659 342.426961 
L 268.520117 342.426961 
L 268.520117 341.455949 
L 269.821574 341.455949 
L 269.821574 340.477098 
L 271.123032 340.477098 
L 271.123032 339.488656 
L 272.42449 339.488656 
L 272.42449 338.48898 
L 273.725948 338.48898 
L 273.725948 337.476619 
L 275.027405 337.476619 
L 275.027405 336.450358 
L 276.328863 336.450358 
L 276.328863 335.409237 
L 277.630321 335.409237 
L 277.630321 334.352536 
L 278.931778 334.352536 
L 278.931778 333.279733 
L 280.233236 333.279733 
L 280.233236 332.190451 
L 281.534694 332.190451 
L 281.534694 331.084387 
L 282.836152 331.084387 
L 282.836152 329.961247 
L 284.137609 329.961247 
L 284.137609 328.820675 
L 285.439067 328.820675 
L 285.439067 327.662208 
L 286.740525 327.662208 
L 286.740525 326.485233 
L 288.041983 326.485233 
L 288.041983 325.288975 
L 289.34344 325.288975 
L 289.34344 324.072495 
L 290.644898 324.072495 
L 290.644898 322.834705 
L 291.946356 322.834705 
L 291.946356 321.574399 
L 293.247813 321.574399 
L 293.247813 320.290286 
L 294.549271 320.290286 
L 294.549271 318.981046 
L 295.850729 318.981046 
L 295.850729 317.645369 
L 297.152187 317.645369 
L 297.152187 316.282016 
L 298.453644 316.282016 
L 298.453644 314.88986 
L 299.755102 314.88986 
L 299.755102 313.467948 
L 301.05656 313.467948 
L 301.05656 312.01555 
L 302.358017 312.01555 
L 302.358017 310.532213 
L 303.659475 310.532213 
L 303.659475 309.017812 
L 304.960933 309.017812 
L 304.960933 307.472601 
L 306.262391 307.472601 
L 306.262391 305.897263 
L 307.563848 305.897263 
L 307.563848 304.292953 
L 308.865306 304.292953 
L 308.865306 302.661333 
L 310.166764 302.661333 
L 310.166764 301.004605 
L 311.468222 301.004605 
L 311.468222 299.325514 
L 312.769679 299.325514 
L 312.769679 297.627343 
L 314.071137 297.627343 
L 314.071137 295.913886 
L 315.372595 295.913886 
L 315.372595 294.189392 
L 316.674052 294.189392 
L 316.674052 292.458479 
L 317.97551 292.458479 
L 317.97551 290.726039 
L 319.276968 290.726039 
L 319.276968 288.997098 
L 320.578426 288.997098 
L 320.578426 287.276672 
L 321.879883 287.276672 
L 321.879883 285.569608 
L 323.181341 285.569608 
L 323.181341 283.880417 
L 324.482799 283.880417 
L 324.482799 282.213116 
L 325.784257 282.213116 
L 325.784257 280.571094 
L 327.085714 280.571094 
L 327.085714 278.956997 
L 328.387172 278.956997 
L 328.387172 277.372652 
L 329.68863 277.372652 
L 329.68863 275.819037 
L 330.990087 275.819037 
L 330.990087 274.296293 
L 332.291545 274.296293 
L 332.291545 272.803781 
L 333.593003 272.803781 
L 333.593003 271.340181 
L 334.894461 271.340181 
L 334.894461 269.903621 
L 336.195918 269.903621 
L 336.195918 268.491834 
L 337.497376 268.491834 
L 337.497376 267.102326 
L 338.798834 267.102326 
L 338.798834 265.732539 
L 340.100292 265.732539 
L 340.100292 264.380008 
L 341.401749 264.380008 
L 341.401749 263.042494 
L 342.703207 263.042494 
L 342.703207 261.718086 
L 344.004665 261.718086 
L 344.004665 260.405273 
L 345.306122 260.405273 
L 345.306122 259.102971 
L 346.60758 259.102971 
L 346.60758 257.81052 
L 347.909038 257.81052 
L 347.909038 256.527649 
L 349.210496 256.527649 
L 349.210496 255.254402 
L 350.511953 255.254402 
L 350.511953 253.991057 
L 351.813411 253.991057 
L 351.813411 252.73803 
L 353.114869 252.73803 
L 353.114869 251.495768 
L 354.416327 251.495768 
L 354.416327 250.264666 
L 355.717784 250.264666 
L 355.717784 249.044979 
L 357.019242 249.044979 
L 357.019242 247.836767 
L 358.3207 247.836767 
L 358.3207 246.639863 
L 359.622157 246.639863 
L 359.622157 245.453855 
L 360.923615 245.453855 
L 360.923615 244.278103 
L 362.225073 244.278103 
L 362.225073 243.111765 
L 363.526531 243.111765 
L 363.526531 241.953844 
L 364.827988 241.953844 
L 364.827988 240.803238 
L 366.129446 240.803238 
L 366.129446 239.658794 
L 367.430904 239.658794 
L 367.430904 238.519352 
L 368.732362 238.519352 
L 368.732362 237.383787 
L 370.033819 237.383787 
L 370.033819 236.251031 
L 371.335277 236.251031 
L 371.335277 235.120083 
L 372.636735 235.120083 
L 372.636735 233.990007 
L 373.938192 233.990007 
L 373.938192 232.859905 
L 375.23965 232.859905 
L 375.23965 231.728887 
L 376.541108 231.728887 
L 376.541108 230.596026 
L 377.842566 230.596026 
L 377.842566 229.46031 
L 379.144023 229.46031 
L 379.144023 228.320584 
L 380.445481 228.320584 
L 380.445481 227.175503 
L 381.746939 227.175503 
L 381.746939 226.02348 
L 383.048397 226.02348 
L 383.048397 224.862653 
L 384.349854 224.862653 
L 384.349854 223.69086 
L 385.651312 223.69086 
L 385.651312 222.505637 
L 386.95277 222.505637 
L 386.95277 221.30423 
L 388.254227 221.30423 
L 388.254227 220.083631 
L 389.555685 220.083631 
L 389.555685 218.840637 
L 390.857143 218.840637 
L 390.857143 217.571926 
L 392.158601 217.571926 
L 392.158601 216.274145 
L 393.460058 216.274145 
L 393.460058 214.94401 
L 394.761516 214.94401 
L 394.761516 213.578414 
L 396.062974 213.578414 
L 396.062974 212.17452 
L 397.364431 212.17452 
L 397.364431 210.729857 
L 398.665889 210.729857 
L 398.665889 209.242389 
L 399.967347 209.242389 
L 399.967347 207.71057 
L 401.268805 207.71057 
L 401.268805 206.133371 
L 402.570262 206.133371 
L 402.570262 204.51029 
L 403.87172 204.51029 
L 403.87172 202.841331 
L 405.173178 202.841331 
L 405.173178 201.126972 
L 406.474636 201.126972 
L 406.474636 199.368111 
L 407.776093 199.368111 
L 407.776093 197.566008 
L 409.077551 197.566008 
L 409.077551 195.722211 
L 410.379009 195.722211 
L 410.379009 193.838494 
L 411.680466 193.838494 
L 411.680466 191.916788 
L 412.981924 191.916788 
L 412.981924 189.959118 
L 414.283382 189.959118 
L 414.283382 187.967557 
L 415.58484 187.967557 
L 415.58484 185.944176 
L 416.886297 185.944176 
L 416.886297 183.891013 
L 418.187755 183.891013 
L 418.187755 181.810045 
L 419.489213 181.810045 
L 419.489213 179.703167 
L 420.790671 179.703167 
L 420.790671 177.572185 
L 422.092128 177.572185 
L 422.092128 175.418804 
L 423.393586 175.418804 
L 423.393586 173.244627 
L 424.695044 173.244627 
L 424.695044 171.051155 
L 425.996501 171.051155 
L 425.996501 168.839791 
L 427.297959 168.839791 
L 427.297959 166.61184 
L 428.599417 166.61184 
L 428.599417 164.368517 
L 429.900875 164.368517 
L 429.900875 162.11095 
L 431.202332 162.11095 
L 431.202332 159.840186 
L 432.50379 159.840186 
L 432.50379 157.5572 
L 433.805248 157.5572 
L 433.805248 155.262894 
L 435.106706 155.262894 
L 435.106706 152.958103 
L 436.408163 152.958103 
L 436.408163 150.643602 
L 437.709621 150.643602 
L 437.709621 148.320112 
L 439.011079 148.320112 
L 439.011079 145.988298 
L 440.312536 145.988298 
L 440.312536 143.648776 
L 441.613994 143.648776 
L 441.613994 141.302121 
L 442.915452 141.302121 
L 442.915452 138.948861 
L 444.21691 138.948861 
L 444.21691 136.589488 
L 445.518367 136.589488 
L 445.518367 134.224458 
L 446.819825 134.224458 
L 446.819825 131.854193 
L 448.121283 131.854193 
L 448.121283 129.479083 
L 449.422741 129.479083 
L 449.422741 127.099492 
L 450.724198 127.099492 
L 450.724198 124.71576 
L 452.025656 124.71576 
L 452.025656 122.32821 
L 453.327114 122.32821 
L 453.327114 119.937151 
L 454.628571 119.937151 
L 454.628571 117.542881 
L 455.930029 117.542881 
L 455.930029 115.145701 
L 457.231487 115.145701 
L 457.231487 112.745926 
L 458.532945 112.745926 
L 458.532945 110.343907 
L 459.834402 110.343907 
L 459.834402 107.940047 
L 461.13586 107.940047 
L 461.13586 105.534842 
L 462.437318 105.534842 
L 462.437318 103.128925 
L 463.738776 103.128925 
L 463.738776 100.723126 
L 465.040233 100.723126 
L 465.040233 98.318544 
L 466.341691 98.318544 
L 466.341691 95.916638 
L 467.643149 95.916638 
L 467.643149 93.519336 
L 468.944606 93.519336 
L 468.944606 91.129146 
L 470.246064 91.129146 
L 470.246064 88.749287 
L 471.547522 88.749287 
L 471.547522 86.383814 
L 472.84898 86.383814 
L 472.84898 84.037727 
L 474.150437 84.037727 
L 474.150437 81.717065 
L 475.451895 81.717065 
L 475.451895 79.428955 
L 476.753353 79.428955 
L 476.753353 77.181603 
L 478.05481 77.181603 
L 478.05481 74.984222 
L 479.356268 74.984222 
L 479.356268 72.846875 
L 480.657726 72.846875 
L 480.657726 70.780242 
L 481.959184 70.780242 
L 481.959184 68.79526 
L 483.260641 68.79526 
L 483.260641 66.902789 
L 484.562099 66.902789 
L 484.562099 65.113151 
L 485.863557 65.113151 
L 485.863557 63.435667 
L 487.165015 63.435667 
L 487.165015 61.878206 
L 488.466472 61.878206 
L 488.466472 60.446786 
L 489.76793 60.446786 
L 489.76793 59.145246 
L 491.069388 59.145246 
L 491.069388 57.975041 
L 492.370845 57.975041 
L 492.370845 56.935156 
L 493.672303 56.935156 
L 493.672303 56.02217 
L 494.973761 56.02217 
L 494.973761 55.230444 
L 496.275219 55.230444 
L 496.275219 54.55244 
L 497.576676 54.55244 
L 497.576676 53.97912 
L 498.878134 53.97912 
L 498.878134 53.500406 
L 500.179592 53.500406 
L 500.179592 53.105653 
L 501.48105 53.105653 
L 501.48105 52.784099 
L 502.782507 52.784099 
L 502.782507 52.52527 
L 504.083965 52.52527 
L 504.083965 52.319297 
L 505.385423 52.319297 
L 505.385423 52.157155 
L 506.68688 52.157155 
L 506.68688 52.03081 
L 509.289796 51.933279 
L 509.289796 51.858631 
L 513.194169 51.759132 
L 513.194169 51.727005 
L 518.4 51.67169 
L 518.4 51.67169 
" style="fill:none;stroke:#ff7f0e;stroke-linecap:square;stroke-width:1.5;"/>
   </g>
   <g id="line2d_43">
    <path clip-path="url(#p45819ffde0)" d="M 242.490962 384.48 
L 242.490962 51.84 
" style="fill:none;stroke:#000000;stroke-dasharray:1.5,2.475;stroke-dashoffset:0;stroke-width:1.5;"/>
   </g>
   <g id="patch_3">
    <path d="M 72 384.48 
L 72 51.84 
" style="fill:none;stroke:#000000;stroke-linecap:square;stroke-linejoin:miter;stroke-width:0.8;"/>
   </g>
   <g id="patch_4">
    <path d="M 518.4 384.48 
L 518.4 51.84 
" style="fill:none;stroke:#000000;stroke-linecap:square;stroke-linejoin:miter;stroke-width:0.8;"/>
   </g>
   <g id="patch_5">
    <path d="M 72 384.48 
L 518.4 384.48 
" style="fill:none;stroke:#000000;stroke-linecap:square;stroke-linejoin:miter;stroke-width:0.8;"/>
   </g>
   <g id="patch_6">
    <path d="M 72 51.84 
L 518.4 51.84 
" style="fill:none;stroke:#000000;stroke-linecap:square;stroke-linejoin:miter;stroke-width:0.8;"/>
   </g>
   <g id="text_22">
    <!-- Projected cumulative 1st and 2nd doses -->
    <g transform="translate(174.848437 45.84)scale(0.12 -0.12)">
     <defs>
      <path d="M 1259 4147 
L 1259 2394 
L 2053 2394 
Q 2494 2394 2734 2622 
Q 2975 2850 2975 3272 
Q 2975 3691 2734 3919 
Q 2494 4147 2053 4147 
L 1259 4147 
z
M 628 4666 
L 2053 4666 
Q 2838 4666 3239 4311 
Q 3641 3956 3641 3272 
Q 3641 2581 3239 2228 
Q 2838 1875 2053 1875 
L 1259 1875 
L 1259 0 
L 628 0 
L 628 4666 
z
" id="DejaVuSans-50" transform="scale(0.015625)"/>
      <path d="M 603 3500 
L 1178 3500 
L 1178 -63 
Q 1178 -731 923 -1031 
Q 669 -1331 103 -1331 
L -116 -1331 
L -116 -844 
L 38 -844 
Q 366 -844 484 -692 
Q 603 -541 603 -63 
L 603 3500 
z
M 603 4863 
L 1178 4863 
L 1178 4134 
L 603 4134 
L 603 4863 
z
" id="DejaVuSans-6a" transform="scale(0.015625)"/>
     </defs>
     <use xlink:href="#DejaVuSans-50"/>
     <use x="58.552734" xlink:href="#DejaVuSans-72"/>
     <use x="97.416016" xlink:href="#DejaVuSans-6f"/>
     <use x="158.597656" xlink:href="#DejaVuSans-6a"/>
     <use x="186.380859" xlink:href="#DejaVuSans-65"/>
     <use x="247.904297" xlink:href="#DejaVuSans-63"/>
     <use x="302.884766" xlink:href="#DejaVuSans-74"/>
     <use x="342.09375" xlink:href="#DejaVuSans-65"/>
     <use x="403.617188" xlink:href="#DejaVuSans-64"/>
     <use x="467.09375" xlink:href="#DejaVuSans-20"/>
     <use x="498.880859" xlink:href="#DejaVuSans-63"/>
     <use x="553.861328" xlink:href="#DejaVuSans-75"/>
     <use x="617.240234" xlink:href="#DejaVuSans-6d"/>
     <use x="714.652344" xlink:href="#DejaVuSans-75"/>
     <use x="778.03125" xlink:href="#DejaVuSans-6c"/>
     <use x="805.814453" xlink:href="#DejaVuSans-61"/>
     <use x="867.09375" xlink:href="#DejaVuSans-74"/>
     <use x="906.302734" xlink:href="#DejaVuSans-69"/>
     <use x="934.085938" xlink:href="#DejaVuSans-76"/>
     <use x="993.265625" xlink:href="#DejaVuSans-65"/>
     <use x="1054.789062" xlink:href="#DejaVuSans-20"/>
     <use x="1086.576172" xlink:href="#DejaVuSans-31"/>
     <use x="1150.199219" xlink:href="#DejaVuSans-73"/>
     <use x="1202.298828" xlink:href="#DejaVuSans-74"/>
     <use x="1241.507812" xlink:href="#DejaVuSans-20"/>
     <use x="1273.294922" xlink:href="#DejaVuSans-61"/>
     <use x="1334.574219" xlink:href="#DejaVuSans-6e"/>
     <use x="1397.953125" xlink:href="#DejaVuSans-64"/>
     <use x="1461.429688" xlink:href="#DejaVuSans-20"/>
     <use x="1493.216797" xlink:href="#DejaVuSans-32"/>
     <use x="1556.839844" xlink:href="#DejaVuSans-6e"/>
     <use x="1620.21875" xlink:href="#DejaVuSans-64"/>
     <use x="1683.695312" xlink:href="#DejaVuSans-20"/>
     <use x="1715.482422" xlink:href="#DejaVuSans-64"/>
     <use x="1778.958984" xlink:href="#DejaVuSans-6f"/>
     <use x="1840.140625" xlink:href="#DejaVuSans-73"/>
     <use x="1892.240234" xlink:href="#DejaVuSans-65"/>
     <use x="1953.763672" xlink:href="#DejaVuSans-73"/>
    </g>
   </g>
   <g id="legend_1">
    <g id="patch_7">
     <path d="M 77.831 131.865269 
L 186.136619 131.865269 
Q 187.802619 131.865269 187.802619 130.199269 
L 187.802619 57.671 
Q 187.802619 56.005 186.136619 56.005 
L 77.831 56.005 
Q 76.165 56.005 76.165 57.671 
L 76.165 130.199269 
Q 76.165 131.865269 77.831 131.865269 
z
" style="fill:#ffffff;opacity:0.8;stroke:#cccccc;stroke-linejoin:miter;"/>
    </g>
    <g id="line2d_44">
     <path d="M 79.497 62.750998 
L 96.157 62.750998 
" style="fill:none;stroke:#1f77b4;stroke-linecap:square;stroke-width:1.5;"/>
    </g>
    <g id="line2d_45"/>
    <g id="text_23">
     <!-- First doses -->
     <g transform="translate(102.821 65.666498)scale(0.0833 -0.0833)">
      <defs>
       <path d="M 628 4666 
L 3309 4666 
L 3309 4134 
L 1259 4134 
L 1259 2759 
L 3109 2759 
L 3109 2228 
L 1259 2228 
L 1259 0 
L 628 0 
L 628 4666 
z
" id="DejaVuSans-46" transform="scale(0.015625)"/>
      </defs>
      <use xlink:href="#DejaVuSans-46"/>
      <use x="50.269531" xlink:href="#DejaVuSans-69"/>
      <use x="78.052734" xlink:href="#DejaVuSans-72"/>
      <use x="119.166016" xlink:href="#DejaVuSans-73"/>
      <use x="171.265625" xlink:href="#DejaVuSans-74"/>
      <use x="210.474609" xlink:href="#DejaVuSans-20"/>
      <use x="242.261719" xlink:href="#DejaVuSans-64"/>
      <use x="305.738281" xlink:href="#DejaVuSans-6f"/>
      <use x="366.919922" xlink:href="#DejaVuSans-73"/>
      <use x="419.019531" xlink:href="#DejaVuSans-65"/>
      <use x="480.542969" xlink:href="#DejaVuSans-73"/>
     </g>
    </g>
    <g id="line2d_46">
     <path d="M 79.497 74.977877 
L 96.157 74.977877 
" style="fill:none;stroke:#ff7f0e;stroke-linecap:square;stroke-width:1.5;"/>
    </g>
    <g id="line2d_47"/>
    <g id="text_24">
     <!-- Second doses -->
     <g transform="translate(102.821 77.893377)scale(0.0833 -0.0833)">
      <use xlink:href="#DejaVuSans-53"/>
      <use x="63.476562" xlink:href="#DejaVuSans-65"/>
      <use x="125" xlink:href="#DejaVuSans-63"/>
      <use x="179.980469" xlink:href="#DejaVuSans-6f"/>
      <use x="241.162109" xlink:href="#DejaVuSans-6e"/>
      <use x="304.541016" xlink:href="#DejaVuSans-64"/>
      <use x="368.017578" xlink:href="#DejaVuSans-20"/>
      <use x="399.804688" xlink:href="#DejaVuSans-64"/>
      <use x="463.28125" xlink:href="#DejaVuSans-6f"/>
      <use x="524.462891" xlink:href="#DejaVuSans-73"/>
      <use x="576.5625" xlink:href="#DejaVuSans-65"/>
      <use x="638.085938" xlink:href="#DejaVuSans-73"/>
     </g>
    </g>
    <g id="patch_8">
     <path d="M 79.497 90.120255 
L 96.157 90.120255 
L 96.157 84.289255 
L 79.497 84.289255 
z
" style="fill:#ff0000;opacity:0.35;"/>
    </g>
    <g id="text_25">
     <!-- Phase 1a -->
     <g transform="translate(102.821 90.120255)scale(0.0833 -0.0833)">
      <defs>
       <path d="M 3513 2113 
L 3513 0 
L 2938 0 
L 2938 2094 
Q 2938 2591 2744 2837 
Q 2550 3084 2163 3084 
Q 1697 3084 1428 2787 
Q 1159 2491 1159 1978 
L 1159 0 
L 581 0 
L 581 4863 
L 1159 4863 
L 1159 2956 
Q 1366 3272 1645 3428 
Q 1925 3584 2291 3584 
Q 2894 3584 3203 3211 
Q 3513 2838 3513 2113 
z
" id="DejaVuSans-68" transform="scale(0.015625)"/>
      </defs>
      <use xlink:href="#DejaVuSans-50"/>
      <use x="60.302734" xlink:href="#DejaVuSans-68"/>
      <use x="123.681641" xlink:href="#DejaVuSans-61"/>
      <use x="184.960938" xlink:href="#DejaVuSans-73"/>
      <use x="237.060547" xlink:href="#DejaVuSans-65"/>
      <use x="298.583984" xlink:href="#DejaVuSans-20"/>
      <use x="330.371094" xlink:href="#DejaVuSans-31"/>
      <use x="393.994141" xlink:href="#DejaVuSans-61"/>
     </g>
    </g>
    <g id="patch_9">
     <path d="M 79.497 102.347133 
L 96.157 102.347133 
L 96.157 96.516133 
L 79.497 96.516133 
z
" style="fill:#ffa500;opacity:0.35;"/>
    </g>
    <g id="text_26">
     <!-- Phase 1b -->
     <g transform="translate(102.821 102.347133)scale(0.0833 -0.0833)">
      <defs>
       <path d="M 3116 1747 
Q 3116 2381 2855 2742 
Q 2594 3103 2138 3103 
Q 1681 3103 1420 2742 
Q 1159 2381 1159 1747 
Q 1159 1113 1420 752 
Q 1681 391 2138 391 
Q 2594 391 2855 752 
Q 3116 1113 3116 1747 
z
M 1159 2969 
Q 1341 3281 1617 3432 
Q 1894 3584 2278 3584 
Q 2916 3584 3314 3078 
Q 3713 2572 3713 1747 
Q 3713 922 3314 415 
Q 2916 -91 2278 -91 
Q 1894 -91 1617 61 
Q 1341 213 1159 525 
L 1159 0 
L 581 0 
L 581 4863 
L 1159 4863 
L 1159 2969 
z
" id="DejaVuSans-62" transform="scale(0.015625)"/>
      </defs>
      <use xlink:href="#DejaVuSans-50"/>
      <use x="60.302734" xlink:href="#DejaVuSans-68"/>
      <use x="123.681641" xlink:href="#DejaVuSans-61"/>
      <use x="184.960938" xlink:href="#DejaVuSans-73"/>
      <use x="237.060547" xlink:href="#DejaVuSans-65"/>
      <use x="298.583984" xlink:href="#DejaVuSans-20"/>
      <use x="330.371094" xlink:href="#DejaVuSans-31"/>
      <use x="393.994141" xlink:href="#DejaVuSans-62"/>
     </g>
    </g>
    <g id="patch_10">
     <path d="M 79.497 114.574011 
L 96.157 114.574011 
L 96.157 108.743011 
L 79.497 108.743011 
z
" style="fill:#ffff00;opacity:0.35;"/>
    </g>
    <g id="text_27">
     <!-- Phase 2a -->
     <g transform="translate(102.821 114.574011)scale(0.0833 -0.0833)">
      <use xlink:href="#DejaVuSans-50"/>
      <use x="60.302734" xlink:href="#DejaVuSans-68"/>
      <use x="123.681641" xlink:href="#DejaVuSans-61"/>
      <use x="184.960938" xlink:href="#DejaVuSans-73"/>
      <use x="237.060547" xlink:href="#DejaVuSans-65"/>
      <use x="298.583984" xlink:href="#DejaVuSans-20"/>
      <use x="330.371094" xlink:href="#DejaVuSans-32"/>
      <use x="393.994141" xlink:href="#DejaVuSans-61"/>
     </g>
    </g>
    <g id="line2d_48">
     <path d="M 79.497 123.885389 
L 96.157 123.885389 
" style="fill:none;stroke:#000000;stroke-dasharray:1.5,2.475;stroke-dashoffset:0;stroke-width:1.5;"/>
    </g>
    <g id="line2d_49"/>
    <g id="text_28">
     <!-- Today (2021-07-03) -->
     <g transform="translate(102.821 126.800889)scale(0.0833 -0.0833)">
      <defs>
       <path d="M -19 4666 
L 3928 4666 
L 3928 4134 
L 2272 4134 
L 2272 0 
L 1638 0 
L 1638 4134 
L -19 4134 
L -19 4666 
z
" id="DejaVuSans-54" transform="scale(0.015625)"/>
       <path d="M 313 2009 
L 1997 2009 
L 1997 1497 
L 313 1497 
L 313 2009 
z
" id="DejaVuSans-2d" transform="scale(0.015625)"/>
       <path d="M 2597 2516 
Q 3050 2419 3304 2112 
Q 3559 1806 3559 1356 
Q 3559 666 3084 287 
Q 2609 -91 1734 -91 
Q 1441 -91 1130 -33 
Q 819 25 488 141 
L 488 750 
Q 750 597 1062 519 
Q 1375 441 1716 441 
Q 2309 441 2620 675 
Q 2931 909 2931 1356 
Q 2931 1769 2642 2001 
Q 2353 2234 1838 2234 
L 1294 2234 
L 1294 2753 
L 1863 2753 
Q 2328 2753 2575 2939 
Q 2822 3125 2822 3475 
Q 2822 3834 2567 4026 
Q 2313 4219 1838 4219 
Q 1578 4219 1281 4162 
Q 984 4106 628 3988 
L 628 4550 
Q 988 4650 1302 4700 
Q 1616 4750 1894 4750 
Q 2613 4750 3031 4423 
Q 3450 4097 3450 3541 
Q 3450 3153 3228 2886 
Q 3006 2619 2597 2516 
z
" id="DejaVuSans-33" transform="scale(0.015625)"/>
      </defs>
      <use xlink:href="#DejaVuSans-54"/>
      <use x="44.083984" xlink:href="#DejaVuSans-6f"/>
      <use x="105.265625" xlink:href="#DejaVuSans-64"/>
      <use x="168.742188" xlink:href="#DejaVuSans-61"/>
      <use x="230.021484" xlink:href="#DejaVuSans-79"/>
      <use x="289.201172" xlink:href="#DejaVuSans-20"/>
      <use x="320.988281" xlink:href="#DejaVuSans-28"/>
      <use x="360.001953" xlink:href="#DejaVuSans-32"/>
      <use x="423.625" xlink:href="#DejaVuSans-30"/>
      <use x="487.248047" xlink:href="#DejaVuSans-32"/>
      <use x="550.871094" xlink:href="#DejaVuSans-31"/>
      <use x="614.494141" xlink:href="#DejaVuSans-2d"/>
      <use x="650.578125" xlink:href="#DejaVuSans-30"/>
      <use x="714.201172" xlink:href="#DejaVuSans-37"/>
      <use x="777.824219" xlink:href="#DejaVuSans-2d"/>
      <use x="813.908203" xlink:href="#DejaVuSans-30"/>
      <use x="877.53125" xlink:href="#DejaVuSans-33"/>
      <use x="941.154297" xlink:href="#DejaVuSans-29"/>
     </g>
    </g>
   </g>
  </g>
 </g>
 <defs>
  <clipPath id="p45819ffde0">
   <rect height="332.64" width="446.4" x="72" y="51.84"/>
  </clipPath>
 </defs>
</svg>
