<?xml version="1.0" encoding="utf-8" standalone="no"?>
<!DOCTYPE svg PUBLIC "-//W3C//DTD SVG 1.1//EN"
  "http://www.w3.org/Graphics/SVG/1.1/DTD/svg11.dtd">
<svg height="432pt" version="1.1" viewBox="0 0 576 432" width="576pt" xmlns="http://www.w3.org/2000/svg" xmlns:xlink="http://www.w3.org/1999/xlink">
 <metadata>
  <rdf:RDF xmlns:cc="http://creativecommons.org/ns#" xmlns:dc="http://purl.org/dc/elements/1.1/" xmlns:rdf="http://www.w3.org/1999/02/22-rdf-syntax-ns#">
   <cc:Work>
    <dc:type rdf:resource="http://purl.org/dc/dcmitype/StillImage"/>
    <dc:date>2021-06-07T16:23:30.182780</dc:date>
    <dc:format>image/svg+xml</dc:format>
    <dc:creator>
     <cc:Agent>
      <dc:title>Matplotlib v3.4.1, https://matplotlib.org/</dc:title>
     </cc:Agent>
    </dc:creator>
   </cc:Work>
  </rdf:RDF>
 </metadata>
 <defs>
  <style type="text/css">*{stroke-linecap:butt;stroke-linejoin:round;}</style>
 </defs>
 <g id="figure_1">
  <g id="patch_1">
   <path d="M 0 432 
L 576 432 
L 576 0 
L 0 0 
z
" style="fill:#ffffff;"/>
  </g>
  <g id="axes_1">
   <g id="patch_2">
    <path d="M 72 384.48 
L 518.4 384.48 
L 518.4 51.84 
L 72 51.84 
z
" style="fill:#ffffff;"/>
   </g>
   <g id="PolyCollection_1">
    <defs>
     <path d="M 112.061538 -47.52 
L 70.569231 -47.52 
L 70.569231 -380.16 
L 112.061538 -380.16 
L 112.061538 -380.16 
L 112.061538 -47.52 
z
" id="m3a37a233ec"/>
    </defs>
    <g clip-path="url(#p3424ec7323)">
     <use style="fill:#ff0000;fill-opacity:0.35;" x="0" xlink:href="#m3a37a233ec" y="432"/>
    </g>
   </g>
   <g id="PolyCollection_2">
    <defs>
     <path d="M 172.153846 -47.52 
L 112.061538 -47.52 
L 112.061538 -380.16 
L 172.153846 -380.16 
L 172.153846 -380.16 
L 172.153846 -47.52 
z
" id="m0e5e1018f6"/>
    </defs>
    <g clip-path="url(#p3424ec7323)">
     <use style="fill:#ffa500;fill-opacity:0.35;" x="0" xlink:href="#m0e5e1018f6" y="432"/>
    </g>
   </g>
   <g id="PolyCollection_3">
    <defs>
     <path d="M 249.415385 -47.52 
L 172.153846 -47.52 
L 172.153846 -380.16 
L 249.415385 -380.16 
L 249.415385 -380.16 
L 249.415385 -47.52 
z
" id="mf501ab5c13"/>
    </defs>
    <g clip-path="url(#p3424ec7323)">
     <use style="fill:#ffff00;fill-opacity:0.35;" x="0" xlink:href="#mf501ab5c13" y="432"/>
    </g>
   </g>
   <g id="PolyCollection_4">
    <defs>
     <path d="M 250.846154 -47.52 
L 249.415385 -47.52 
L 249.415385 -380.16 
L 250.846154 -380.16 
L 250.846154 -380.16 
L 250.846154 -47.52 
z
" id="m403084924a"/>
    </defs>
    <g clip-path="url(#p3424ec7323)">
     <use style="fill:#ffff00;fill-opacity:0.3;" x="0" xlink:href="#m403084924a" y="432"/>
    </g>
   </g>
   <g id="PolyCollection_5">
    <defs>
     <path d="M 252.276923 -47.52 
L 250.846154 -47.52 
L 250.846154 -380.16 
L 252.276923 -380.16 
L 252.276923 -380.16 
L 252.276923 -47.52 
z
" id="m9f231a8aa4"/>
    </defs>
    <g clip-path="url(#p3424ec7323)">
     <use style="fill:#ffff00;fill-opacity:0.27;" x="0" xlink:href="#m9f231a8aa4" y="432"/>
    </g>
   </g>
   <g id="PolyCollection_6">
    <defs>
     <path d="M 253.707692 -47.52 
L 252.276923 -47.52 
L 252.276923 -380.16 
L 253.707692 -380.16 
L 253.707692 -380.16 
L 253.707692 -47.52 
z
" id="mbf89715aeb"/>
    </defs>
    <g clip-path="url(#p3424ec7323)">
     <use style="fill:#ffff00;fill-opacity:0.24;" x="0" xlink:href="#mbf89715aeb" y="432"/>
    </g>
   </g>
   <g id="PolyCollection_7">
    <defs>
     <path d="M 255.138462 -47.52 
L 253.707692 -47.52 
L 253.707692 -380.16 
L 255.138462 -380.16 
L 255.138462 -380.16 
L 255.138462 -47.52 
z
" id="m138f35a153"/>
    </defs>
    <g clip-path="url(#p3424ec7323)">
     <use style="fill:#ffff00;fill-opacity:0.21;" x="0" xlink:href="#m138f35a153" y="432"/>
    </g>
   </g>
   <g id="PolyCollection_8">
    <defs>
     <path d="M 256.569231 -47.52 
L 255.138462 -47.52 
L 255.138462 -380.16 
L 256.569231 -380.16 
L 256.569231 -380.16 
L 256.569231 -47.52 
z
" id="m0c0f6a6bc8"/>
    </defs>
    <g clip-path="url(#p3424ec7323)">
     <use style="fill:#ffff00;fill-opacity:0.18;" x="0" xlink:href="#m0c0f6a6bc8" y="432"/>
    </g>
   </g>
   <g id="PolyCollection_9">
    <defs>
     <path d="M 258 -47.52 
L 256.569231 -47.52 
L 256.569231 -380.16 
L 258 -380.16 
L 258 -380.16 
L 258 -47.52 
z
" id="mfd032eaabe"/>
    </defs>
    <g clip-path="url(#p3424ec7323)">
     <use style="fill:#ffff00;fill-opacity:0.15;" x="0" xlink:href="#mfd032eaabe" y="432"/>
    </g>
   </g>
   <g id="PolyCollection_10">
    <defs>
     <path d="M 259.430769 -47.52 
L 258 -47.52 
L 258 -380.16 
L 259.430769 -380.16 
L 259.430769 -380.16 
L 259.430769 -47.52 
z
" id="ma7fdce6fff"/>
    </defs>
    <g clip-path="url(#p3424ec7323)">
     <use style="fill:#ffff00;fill-opacity:0.12;" x="0" xlink:href="#ma7fdce6fff" y="432"/>
    </g>
   </g>
   <g id="PolyCollection_11">
    <defs>
     <path d="M 260.861538 -47.52 
L 259.430769 -47.52 
L 259.430769 -380.16 
L 260.861538 -380.16 
L 260.861538 -380.16 
L 260.861538 -47.52 
z
" id="m446c0bb9e5"/>
    </defs>
    <g clip-path="url(#p3424ec7323)">
     <use style="fill:#ffff00;fill-opacity:0.09;" x="0" xlink:href="#m446c0bb9e5" y="432"/>
    </g>
   </g>
   <g id="PolyCollection_12">
    <defs>
     <path d="M 262.292308 -47.52 
L 260.861538 -47.52 
L 260.861538 -380.16 
L 262.292308 -380.16 
L 262.292308 -380.16 
L 262.292308 -47.52 
z
" id="m059494f54a"/>
    </defs>
    <g clip-path="url(#p3424ec7323)">
     <use style="fill:#ffff00;fill-opacity:0.06;" x="0" xlink:href="#m059494f54a" y="432"/>
    </g>
   </g>
   <g id="PolyCollection_13">
    <defs>
     <path d="M 263.723077 -47.52 
L 262.292308 -47.52 
L 262.292308 -380.16 
L 263.723077 -380.16 
L 263.723077 -380.16 
L 263.723077 -47.52 
z
" id="m1d7fd7093c"/>
    </defs>
    <g clip-path="url(#p3424ec7323)">
     <use style="fill:#ffff00;fill-opacity:0.03;" x="0" xlink:href="#m1d7fd7093c" y="432"/>
    </g>
   </g>
   <g id="matplotlib.axis_1">
    <g id="xtick_1">
     <g id="line2d_1">
      <path clip-path="url(#p3424ec7323)" d="M 82.015385 384.48 
L 82.015385 51.84 
" style="fill:none;stroke:#000000;stroke-dasharray:0.8,1.32;stroke-dashoffset:0;stroke-width:0.8;"/>
     </g>
     <g id="line2d_2">
      <defs>
       <path d="M 0 0 
L 0 3.5 
" id="m9c2330eee6" style="stroke:#000000;stroke-width:0.8;"/>
      </defs>
      <g>
       <use style="stroke:#000000;stroke-width:0.8;" x="82.015385" xlink:href="#m9c2330eee6" y="384.48"/>
      </g>
     </g>
     <g id="text_1">
      <!-- Mar -->
      <g transform="translate(72.581791 399.078438)scale(0.1 -0.1)">
       <defs>
        <path d="M 628 4666 
L 1569 4666 
L 2759 1491 
L 3956 4666 
L 4897 4666 
L 4897 0 
L 4281 0 
L 4281 4097 
L 3078 897 
L 2444 897 
L 1241 4097 
L 1241 0 
L 628 0 
L 628 4666 
z
" id="DejaVuSans-4d" transform="scale(0.015625)"/>
        <path d="M 2194 1759 
Q 1497 1759 1228 1600 
Q 959 1441 959 1056 
Q 959 750 1161 570 
Q 1363 391 1709 391 
Q 2188 391 2477 730 
Q 2766 1069 2766 1631 
L 2766 1759 
L 2194 1759 
z
M 3341 1997 
L 3341 0 
L 2766 0 
L 2766 531 
Q 2569 213 2275 61 
Q 1981 -91 1556 -91 
Q 1019 -91 701 211 
Q 384 513 384 1019 
Q 384 1609 779 1909 
Q 1175 2209 1959 2209 
L 2766 2209 
L 2766 2266 
Q 2766 2663 2505 2880 
Q 2244 3097 1772 3097 
Q 1472 3097 1187 3025 
Q 903 2953 641 2809 
L 641 3341 
Q 956 3463 1253 3523 
Q 1550 3584 1831 3584 
Q 2591 3584 2966 3190 
Q 3341 2797 3341 1997 
z
" id="DejaVuSans-61" transform="scale(0.015625)"/>
        <path d="M 2631 2963 
Q 2534 3019 2420 3045 
Q 2306 3072 2169 3072 
Q 1681 3072 1420 2755 
Q 1159 2438 1159 1844 
L 1159 0 
L 581 0 
L 581 3500 
L 1159 3500 
L 1159 2956 
Q 1341 3275 1631 3429 
Q 1922 3584 2338 3584 
Q 2397 3584 2469 3576 
Q 2541 3569 2628 3553 
L 2631 2963 
z
" id="DejaVuSans-72" transform="scale(0.015625)"/>
       </defs>
       <use xlink:href="#DejaVuSans-4d"/>
       <use x="86.279297" xlink:href="#DejaVuSans-61"/>
       <use x="147.558594" xlink:href="#DejaVuSans-72"/>
      </g>
     </g>
    </g>
    <g id="xtick_2">
     <g id="line2d_3">
      <path clip-path="url(#p3424ec7323)" d="M 126.369231 384.48 
L 126.369231 51.84 
" style="fill:none;stroke:#000000;stroke-dasharray:0.8,1.32;stroke-dashoffset:0;stroke-width:0.8;"/>
     </g>
     <g id="line2d_4">
      <g>
       <use style="stroke:#000000;stroke-width:0.8;" x="126.369231" xlink:href="#m9c2330eee6" y="384.48"/>
      </g>
     </g>
     <g id="text_2">
      <!-- Apr -->
      <g transform="translate(117.719231 399.078438)scale(0.1 -0.1)">
       <defs>
        <path d="M 2188 4044 
L 1331 1722 
L 3047 1722 
L 2188 4044 
z
M 1831 4666 
L 2547 4666 
L 4325 0 
L 3669 0 
L 3244 1197 
L 1141 1197 
L 716 0 
L 50 0 
L 1831 4666 
z
" id="DejaVuSans-41" transform="scale(0.015625)"/>
        <path d="M 1159 525 
L 1159 -1331 
L 581 -1331 
L 581 3500 
L 1159 3500 
L 1159 2969 
Q 1341 3281 1617 3432 
Q 1894 3584 2278 3584 
Q 2916 3584 3314 3078 
Q 3713 2572 3713 1747 
Q 3713 922 3314 415 
Q 2916 -91 2278 -91 
Q 1894 -91 1617 61 
Q 1341 213 1159 525 
z
M 3116 1747 
Q 3116 2381 2855 2742 
Q 2594 3103 2138 3103 
Q 1681 3103 1420 2742 
Q 1159 2381 1159 1747 
Q 1159 1113 1420 752 
Q 1681 391 2138 391 
Q 2594 391 2855 752 
Q 3116 1113 3116 1747 
z
" id="DejaVuSans-70" transform="scale(0.015625)"/>
       </defs>
       <use xlink:href="#DejaVuSans-41"/>
       <use x="68.408203" xlink:href="#DejaVuSans-70"/>
       <use x="131.884766" xlink:href="#DejaVuSans-72"/>
      </g>
     </g>
    </g>
    <g id="xtick_3">
     <g id="line2d_5">
      <path clip-path="url(#p3424ec7323)" d="M 169.292308 384.48 
L 169.292308 51.84 
" style="fill:none;stroke:#000000;stroke-dasharray:0.8,1.32;stroke-dashoffset:0;stroke-width:0.8;"/>
     </g>
     <g id="line2d_6">
      <g>
       <use style="stroke:#000000;stroke-width:0.8;" x="169.292308" xlink:href="#m9c2330eee6" y="384.48"/>
      </g>
     </g>
     <g id="text_3">
      <!-- May -->
      <g transform="translate(158.954808 399.078438)scale(0.1 -0.1)">
       <defs>
        <path d="M 2059 -325 
Q 1816 -950 1584 -1140 
Q 1353 -1331 966 -1331 
L 506 -1331 
L 506 -850 
L 844 -850 
Q 1081 -850 1212 -737 
Q 1344 -625 1503 -206 
L 1606 56 
L 191 3500 
L 800 3500 
L 1894 763 
L 2988 3500 
L 3597 3500 
L 2059 -325 
z
" id="DejaVuSans-79" transform="scale(0.015625)"/>
       </defs>
       <use xlink:href="#DejaVuSans-4d"/>
       <use x="86.279297" xlink:href="#DejaVuSans-61"/>
       <use x="147.558594" xlink:href="#DejaVuSans-79"/>
      </g>
     </g>
    </g>
    <g id="xtick_4">
     <g id="line2d_7">
      <path clip-path="url(#p3424ec7323)" d="M 213.646154 384.48 
L 213.646154 51.84 
" style="fill:none;stroke:#000000;stroke-dasharray:0.8,1.32;stroke-dashoffset:0;stroke-width:0.8;"/>
     </g>
     <g id="line2d_8">
      <g>
       <use style="stroke:#000000;stroke-width:0.8;" x="213.646154" xlink:href="#m9c2330eee6" y="384.48"/>
      </g>
     </g>
     <g id="text_4">
      <!-- Jun -->
      <g transform="translate(205.833654 399.078438)scale(0.1 -0.1)">
       <defs>
        <path d="M 628 4666 
L 1259 4666 
L 1259 325 
Q 1259 -519 939 -900 
Q 619 -1281 -91 -1281 
L -331 -1281 
L -331 -750 
L -134 -750 
Q 284 -750 456 -515 
Q 628 -281 628 325 
L 628 4666 
z
" id="DejaVuSans-4a" transform="scale(0.015625)"/>
        <path d="M 544 1381 
L 544 3500 
L 1119 3500 
L 1119 1403 
Q 1119 906 1312 657 
Q 1506 409 1894 409 
Q 2359 409 2629 706 
Q 2900 1003 2900 1516 
L 2900 3500 
L 3475 3500 
L 3475 0 
L 2900 0 
L 2900 538 
Q 2691 219 2414 64 
Q 2138 -91 1772 -91 
Q 1169 -91 856 284 
Q 544 659 544 1381 
z
M 1991 3584 
L 1991 3584 
z
" id="DejaVuSans-75" transform="scale(0.015625)"/>
        <path d="M 3513 2113 
L 3513 0 
L 2938 0 
L 2938 2094 
Q 2938 2591 2744 2837 
Q 2550 3084 2163 3084 
Q 1697 3084 1428 2787 
Q 1159 2491 1159 1978 
L 1159 0 
L 581 0 
L 581 3500 
L 1159 3500 
L 1159 2956 
Q 1366 3272 1645 3428 
Q 1925 3584 2291 3584 
Q 2894 3584 3203 3211 
Q 3513 2838 3513 2113 
z
" id="DejaVuSans-6e" transform="scale(0.015625)"/>
       </defs>
       <use xlink:href="#DejaVuSans-4a"/>
       <use x="29.492188" xlink:href="#DejaVuSans-75"/>
       <use x="92.871094" xlink:href="#DejaVuSans-6e"/>
      </g>
     </g>
    </g>
    <g id="xtick_5">
     <g id="line2d_9">
      <path clip-path="url(#p3424ec7323)" d="M 256.569231 384.48 
L 256.569231 51.84 
" style="fill:none;stroke:#000000;stroke-dasharray:0.8,1.32;stroke-dashoffset:0;stroke-width:0.8;"/>
     </g>
     <g id="line2d_10">
      <g>
       <use style="stroke:#000000;stroke-width:0.8;" x="256.569231" xlink:href="#m9c2330eee6" y="384.48"/>
      </g>
     </g>
     <g id="text_5">
      <!-- Jul -->
      <g transform="translate(250.536418 399.078438)scale(0.1 -0.1)">
       <defs>
        <path d="M 603 4863 
L 1178 4863 
L 1178 0 
L 603 0 
L 603 4863 
z
" id="DejaVuSans-6c" transform="scale(0.015625)"/>
       </defs>
       <use xlink:href="#DejaVuSans-4a"/>
       <use x="29.492188" xlink:href="#DejaVuSans-75"/>
       <use x="92.871094" xlink:href="#DejaVuSans-6c"/>
      </g>
     </g>
    </g>
    <g id="xtick_6">
     <g id="line2d_11">
      <path clip-path="url(#p3424ec7323)" d="M 300.923077 384.48 
L 300.923077 51.84 
" style="fill:none;stroke:#000000;stroke-dasharray:0.8,1.32;stroke-dashoffset:0;stroke-width:0.8;"/>
     </g>
     <g id="line2d_12">
      <g>
       <use style="stroke:#000000;stroke-width:0.8;" x="300.923077" xlink:href="#m9c2330eee6" y="384.48"/>
      </g>
     </g>
     <g id="text_6">
      <!-- Aug -->
      <g transform="translate(291.159796 399.078438)scale(0.1 -0.1)">
       <defs>
        <path d="M 2906 1791 
Q 2906 2416 2648 2759 
Q 2391 3103 1925 3103 
Q 1463 3103 1205 2759 
Q 947 2416 947 1791 
Q 947 1169 1205 825 
Q 1463 481 1925 481 
Q 2391 481 2648 825 
Q 2906 1169 2906 1791 
z
M 3481 434 
Q 3481 -459 3084 -895 
Q 2688 -1331 1869 -1331 
Q 1566 -1331 1297 -1286 
Q 1028 -1241 775 -1147 
L 775 -588 
Q 1028 -725 1275 -790 
Q 1522 -856 1778 -856 
Q 2344 -856 2625 -561 
Q 2906 -266 2906 331 
L 2906 616 
Q 2728 306 2450 153 
Q 2172 0 1784 0 
Q 1141 0 747 490 
Q 353 981 353 1791 
Q 353 2603 747 3093 
Q 1141 3584 1784 3584 
Q 2172 3584 2450 3431 
Q 2728 3278 2906 2969 
L 2906 3500 
L 3481 3500 
L 3481 434 
z
" id="DejaVuSans-67" transform="scale(0.015625)"/>
       </defs>
       <use xlink:href="#DejaVuSans-41"/>
       <use x="68.408203" xlink:href="#DejaVuSans-75"/>
       <use x="131.787109" xlink:href="#DejaVuSans-67"/>
      </g>
     </g>
    </g>
    <g id="xtick_7">
     <g id="line2d_13">
      <path clip-path="url(#p3424ec7323)" d="M 345.276923 384.48 
L 345.276923 51.84 
" style="fill:none;stroke:#000000;stroke-dasharray:0.8,1.32;stroke-dashoffset:0;stroke-width:0.8;"/>
     </g>
     <g id="line2d_14">
      <g>
       <use style="stroke:#000000;stroke-width:0.8;" x="345.276923" xlink:href="#m9c2330eee6" y="384.48"/>
      </g>
     </g>
     <g id="text_7">
      <!-- Sep -->
      <g transform="translate(335.851923 399.078438)scale(0.1 -0.1)">
       <defs>
        <path d="M 3425 4513 
L 3425 3897 
Q 3066 4069 2747 4153 
Q 2428 4238 2131 4238 
Q 1616 4238 1336 4038 
Q 1056 3838 1056 3469 
Q 1056 3159 1242 3001 
Q 1428 2844 1947 2747 
L 2328 2669 
Q 3034 2534 3370 2195 
Q 3706 1856 3706 1288 
Q 3706 609 3251 259 
Q 2797 -91 1919 -91 
Q 1588 -91 1214 -16 
Q 841 59 441 206 
L 441 856 
Q 825 641 1194 531 
Q 1563 422 1919 422 
Q 2459 422 2753 634 
Q 3047 847 3047 1241 
Q 3047 1584 2836 1778 
Q 2625 1972 2144 2069 
L 1759 2144 
Q 1053 2284 737 2584 
Q 422 2884 422 3419 
Q 422 4038 858 4394 
Q 1294 4750 2059 4750 
Q 2388 4750 2728 4690 
Q 3069 4631 3425 4513 
z
" id="DejaVuSans-53" transform="scale(0.015625)"/>
        <path d="M 3597 1894 
L 3597 1613 
L 953 1613 
Q 991 1019 1311 708 
Q 1631 397 2203 397 
Q 2534 397 2845 478 
Q 3156 559 3463 722 
L 3463 178 
Q 3153 47 2828 -22 
Q 2503 -91 2169 -91 
Q 1331 -91 842 396 
Q 353 884 353 1716 
Q 353 2575 817 3079 
Q 1281 3584 2069 3584 
Q 2775 3584 3186 3129 
Q 3597 2675 3597 1894 
z
M 3022 2063 
Q 3016 2534 2758 2815 
Q 2500 3097 2075 3097 
Q 1594 3097 1305 2825 
Q 1016 2553 972 2059 
L 3022 2063 
z
" id="DejaVuSans-65" transform="scale(0.015625)"/>
       </defs>
       <use xlink:href="#DejaVuSans-53"/>
       <use x="63.476562" xlink:href="#DejaVuSans-65"/>
       <use x="125" xlink:href="#DejaVuSans-70"/>
      </g>
     </g>
    </g>
    <g id="xtick_8">
     <g id="line2d_15">
      <path clip-path="url(#p3424ec7323)" d="M 388.2 384.48 
L 388.2 51.84 
" style="fill:none;stroke:#000000;stroke-dasharray:0.8,1.32;stroke-dashoffset:0;stroke-width:0.8;"/>
     </g>
     <g id="line2d_16">
      <g>
       <use style="stroke:#000000;stroke-width:0.8;" x="388.2" xlink:href="#m9c2330eee6" y="384.48"/>
      </g>
     </g>
     <g id="text_8">
      <!-- Oct -->
      <g transform="translate(379.554688 399.078438)scale(0.1 -0.1)">
       <defs>
        <path d="M 2522 4238 
Q 1834 4238 1429 3725 
Q 1025 3213 1025 2328 
Q 1025 1447 1429 934 
Q 1834 422 2522 422 
Q 3209 422 3611 934 
Q 4013 1447 4013 2328 
Q 4013 3213 3611 3725 
Q 3209 4238 2522 4238 
z
M 2522 4750 
Q 3503 4750 4090 4092 
Q 4678 3434 4678 2328 
Q 4678 1225 4090 567 
Q 3503 -91 2522 -91 
Q 1538 -91 948 565 
Q 359 1222 359 2328 
Q 359 3434 948 4092 
Q 1538 4750 2522 4750 
z
" id="DejaVuSans-4f" transform="scale(0.015625)"/>
        <path d="M 3122 3366 
L 3122 2828 
Q 2878 2963 2633 3030 
Q 2388 3097 2138 3097 
Q 1578 3097 1268 2742 
Q 959 2388 959 1747 
Q 959 1106 1268 751 
Q 1578 397 2138 397 
Q 2388 397 2633 464 
Q 2878 531 3122 666 
L 3122 134 
Q 2881 22 2623 -34 
Q 2366 -91 2075 -91 
Q 1284 -91 818 406 
Q 353 903 353 1747 
Q 353 2603 823 3093 
Q 1294 3584 2113 3584 
Q 2378 3584 2631 3529 
Q 2884 3475 3122 3366 
z
" id="DejaVuSans-63" transform="scale(0.015625)"/>
        <path d="M 1172 4494 
L 1172 3500 
L 2356 3500 
L 2356 3053 
L 1172 3053 
L 1172 1153 
Q 1172 725 1289 603 
Q 1406 481 1766 481 
L 2356 481 
L 2356 0 
L 1766 0 
Q 1100 0 847 248 
Q 594 497 594 1153 
L 594 3053 
L 172 3053 
L 172 3500 
L 594 3500 
L 594 4494 
L 1172 4494 
z
" id="DejaVuSans-74" transform="scale(0.015625)"/>
       </defs>
       <use xlink:href="#DejaVuSans-4f"/>
       <use x="78.710938" xlink:href="#DejaVuSans-63"/>
       <use x="133.691406" xlink:href="#DejaVuSans-74"/>
      </g>
     </g>
    </g>
    <g id="xtick_9">
     <g id="line2d_17">
      <path clip-path="url(#p3424ec7323)" d="M 432.553846 384.48 
L 432.553846 51.84 
" style="fill:none;stroke:#000000;stroke-dasharray:0.8,1.32;stroke-dashoffset:0;stroke-width:0.8;"/>
     </g>
     <g id="line2d_18">
      <g>
       <use style="stroke:#000000;stroke-width:0.8;" x="432.553846" xlink:href="#m9c2330eee6" y="384.48"/>
      </g>
     </g>
     <g id="text_9">
      <!-- Nov -->
      <g transform="translate(422.794471 399.078438)scale(0.1 -0.1)">
       <defs>
        <path d="M 628 4666 
L 1478 4666 
L 3547 763 
L 3547 4666 
L 4159 4666 
L 4159 0 
L 3309 0 
L 1241 3903 
L 1241 0 
L 628 0 
L 628 4666 
z
" id="DejaVuSans-4e" transform="scale(0.015625)"/>
        <path d="M 1959 3097 
Q 1497 3097 1228 2736 
Q 959 2375 959 1747 
Q 959 1119 1226 758 
Q 1494 397 1959 397 
Q 2419 397 2687 759 
Q 2956 1122 2956 1747 
Q 2956 2369 2687 2733 
Q 2419 3097 1959 3097 
z
M 1959 3584 
Q 2709 3584 3137 3096 
Q 3566 2609 3566 1747 
Q 3566 888 3137 398 
Q 2709 -91 1959 -91 
Q 1206 -91 779 398 
Q 353 888 353 1747 
Q 353 2609 779 3096 
Q 1206 3584 1959 3584 
z
" id="DejaVuSans-6f" transform="scale(0.015625)"/>
        <path d="M 191 3500 
L 800 3500 
L 1894 563 
L 2988 3500 
L 3597 3500 
L 2284 0 
L 1503 0 
L 191 3500 
z
" id="DejaVuSans-76" transform="scale(0.015625)"/>
       </defs>
       <use xlink:href="#DejaVuSans-4e"/>
       <use x="74.804688" xlink:href="#DejaVuSans-6f"/>
       <use x="135.986328" xlink:href="#DejaVuSans-76"/>
      </g>
     </g>
    </g>
    <g id="xtick_10">
     <g id="line2d_19">
      <path clip-path="url(#p3424ec7323)" d="M 475.476923 384.48 
L 475.476923 51.84 
" style="fill:none;stroke:#000000;stroke-dasharray:0.8,1.32;stroke-dashoffset:0;stroke-width:0.8;"/>
     </g>
     <g id="line2d_20">
      <g>
       <use style="stroke:#000000;stroke-width:0.8;" x="475.476923" xlink:href="#m9c2330eee6" y="384.48"/>
      </g>
     </g>
     <g id="text_10">
      <!-- Dec -->
      <g transform="translate(465.801142 399.078438)scale(0.1 -0.1)">
       <defs>
        <path d="M 1259 4147 
L 1259 519 
L 2022 519 
Q 2988 519 3436 956 
Q 3884 1394 3884 2338 
Q 3884 3275 3436 3711 
Q 2988 4147 2022 4147 
L 1259 4147 
z
M 628 4666 
L 1925 4666 
Q 3281 4666 3915 4102 
Q 4550 3538 4550 2338 
Q 4550 1131 3912 565 
Q 3275 0 1925 0 
L 628 0 
L 628 4666 
z
" id="DejaVuSans-44" transform="scale(0.015625)"/>
       </defs>
       <use xlink:href="#DejaVuSans-44"/>
       <use x="77.001953" xlink:href="#DejaVuSans-65"/>
       <use x="138.525391" xlink:href="#DejaVuSans-63"/>
      </g>
     </g>
    </g>
   </g>
   <g id="matplotlib.axis_2">
    <g id="ytick_1">
     <g id="line2d_21">
      <path clip-path="url(#p3424ec7323)" d="M 72 384.48 
L 518.4 384.48 
" style="fill:none;stroke:#000000;stroke-dasharray:0.8,1.32;stroke-dashoffset:0;stroke-width:0.8;"/>
     </g>
     <g id="line2d_22">
      <defs>
       <path d="M 0 0 
L -3.5 0 
" id="m380c82b258" style="stroke:#000000;stroke-width:0.8;"/>
      </defs>
      <g>
       <use style="stroke:#000000;stroke-width:0.8;" x="72" xlink:href="#m380c82b258" y="384.48"/>
      </g>
     </g>
     <g id="text_11">
      <!-- 0.0 -->
      <g transform="translate(49.096875 388.279219)scale(0.1 -0.1)">
       <defs>
        <path d="M 2034 4250 
Q 1547 4250 1301 3770 
Q 1056 3291 1056 2328 
Q 1056 1369 1301 889 
Q 1547 409 2034 409 
Q 2525 409 2770 889 
Q 3016 1369 3016 2328 
Q 3016 3291 2770 3770 
Q 2525 4250 2034 4250 
z
M 2034 4750 
Q 2819 4750 3233 4129 
Q 3647 3509 3647 2328 
Q 3647 1150 3233 529 
Q 2819 -91 2034 -91 
Q 1250 -91 836 529 
Q 422 1150 422 2328 
Q 422 3509 836 4129 
Q 1250 4750 2034 4750 
z
" id="DejaVuSans-30" transform="scale(0.015625)"/>
        <path d="M 684 794 
L 1344 794 
L 1344 0 
L 684 0 
L 684 794 
z
" id="DejaVuSans-2e" transform="scale(0.015625)"/>
       </defs>
       <use xlink:href="#DejaVuSans-30"/>
       <use x="63.623047" xlink:href="#DejaVuSans-2e"/>
       <use x="95.410156" xlink:href="#DejaVuSans-30"/>
      </g>
     </g>
    </g>
    <g id="ytick_2">
     <g id="line2d_23">
      <path clip-path="url(#p3424ec7323)" d="M 72 342.9 
L 518.4 342.9 
" style="fill:none;stroke:#000000;stroke-dasharray:0.8,1.32;stroke-dashoffset:0;stroke-width:0.8;"/>
     </g>
     <g id="line2d_24">
      <g>
       <use style="stroke:#000000;stroke-width:0.8;" x="72" xlink:href="#m380c82b258" y="342.9"/>
      </g>
     </g>
     <g id="text_12">
      <!-- 2.5 -->
      <g transform="translate(49.096875 346.699219)scale(0.1 -0.1)">
       <defs>
        <path d="M 1228 531 
L 3431 531 
L 3431 0 
L 469 0 
L 469 531 
Q 828 903 1448 1529 
Q 2069 2156 2228 2338 
Q 2531 2678 2651 2914 
Q 2772 3150 2772 3378 
Q 2772 3750 2511 3984 
Q 2250 4219 1831 4219 
Q 1534 4219 1204 4116 
Q 875 4013 500 3803 
L 500 4441 
Q 881 4594 1212 4672 
Q 1544 4750 1819 4750 
Q 2544 4750 2975 4387 
Q 3406 4025 3406 3419 
Q 3406 3131 3298 2873 
Q 3191 2616 2906 2266 
Q 2828 2175 2409 1742 
Q 1991 1309 1228 531 
z
" id="DejaVuSans-32" transform="scale(0.015625)"/>
        <path d="M 691 4666 
L 3169 4666 
L 3169 4134 
L 1269 4134 
L 1269 2991 
Q 1406 3038 1543 3061 
Q 1681 3084 1819 3084 
Q 2600 3084 3056 2656 
Q 3513 2228 3513 1497 
Q 3513 744 3044 326 
Q 2575 -91 1722 -91 
Q 1428 -91 1123 -41 
Q 819 9 494 109 
L 494 744 
Q 775 591 1075 516 
Q 1375 441 1709 441 
Q 2250 441 2565 725 
Q 2881 1009 2881 1497 
Q 2881 1984 2565 2268 
Q 2250 2553 1709 2553 
Q 1456 2553 1204 2497 
Q 953 2441 691 2322 
L 691 4666 
z
" id="DejaVuSans-35" transform="scale(0.015625)"/>
       </defs>
       <use xlink:href="#DejaVuSans-32"/>
       <use x="63.623047" xlink:href="#DejaVuSans-2e"/>
       <use x="95.410156" xlink:href="#DejaVuSans-35"/>
      </g>
     </g>
    </g>
    <g id="ytick_3">
     <g id="line2d_25">
      <path clip-path="url(#p3424ec7323)" d="M 72 301.32 
L 518.4 301.32 
" style="fill:none;stroke:#000000;stroke-dasharray:0.8,1.32;stroke-dashoffset:0;stroke-width:0.8;"/>
     </g>
     <g id="line2d_26">
      <g>
       <use style="stroke:#000000;stroke-width:0.8;" x="72" xlink:href="#m380c82b258" y="301.32"/>
      </g>
     </g>
     <g id="text_13">
      <!-- 5.0 -->
      <g transform="translate(49.096875 305.119219)scale(0.1 -0.1)">
       <use xlink:href="#DejaVuSans-35"/>
       <use x="63.623047" xlink:href="#DejaVuSans-2e"/>
       <use x="95.410156" xlink:href="#DejaVuSans-30"/>
      </g>
     </g>
    </g>
    <g id="ytick_4">
     <g id="line2d_27">
      <path clip-path="url(#p3424ec7323)" d="M 72 259.74 
L 518.4 259.74 
" style="fill:none;stroke:#000000;stroke-dasharray:0.8,1.32;stroke-dashoffset:0;stroke-width:0.8;"/>
     </g>
     <g id="line2d_28">
      <g>
       <use style="stroke:#000000;stroke-width:0.8;" x="72" xlink:href="#m380c82b258" y="259.74"/>
      </g>
     </g>
     <g id="text_14">
      <!-- 7.5 -->
      <g transform="translate(49.096875 263.539219)scale(0.1 -0.1)">
       <defs>
        <path d="M 525 4666 
L 3525 4666 
L 3525 4397 
L 1831 0 
L 1172 0 
L 2766 4134 
L 525 4134 
L 525 4666 
z
" id="DejaVuSans-37" transform="scale(0.015625)"/>
       </defs>
       <use xlink:href="#DejaVuSans-37"/>
       <use x="63.623047" xlink:href="#DejaVuSans-2e"/>
       <use x="95.410156" xlink:href="#DejaVuSans-35"/>
      </g>
     </g>
    </g>
    <g id="ytick_5">
     <g id="line2d_29">
      <path clip-path="url(#p3424ec7323)" d="M 72 218.16 
L 518.4 218.16 
" style="fill:none;stroke:#000000;stroke-dasharray:0.8,1.32;stroke-dashoffset:0;stroke-width:0.8;"/>
     </g>
     <g id="line2d_30">
      <g>
       <use style="stroke:#000000;stroke-width:0.8;" x="72" xlink:href="#m380c82b258" y="218.16"/>
      </g>
     </g>
     <g id="text_15">
      <!-- 10.0 -->
      <g transform="translate(42.734375 221.959219)scale(0.1 -0.1)">
       <defs>
        <path d="M 794 531 
L 1825 531 
L 1825 4091 
L 703 3866 
L 703 4441 
L 1819 4666 
L 2450 4666 
L 2450 531 
L 3481 531 
L 3481 0 
L 794 0 
L 794 531 
z
" id="DejaVuSans-31" transform="scale(0.015625)"/>
       </defs>
       <use xlink:href="#DejaVuSans-31"/>
       <use x="63.623047" xlink:href="#DejaVuSans-30"/>
       <use x="127.246094" xlink:href="#DejaVuSans-2e"/>
       <use x="159.033203" xlink:href="#DejaVuSans-30"/>
      </g>
     </g>
    </g>
    <g id="ytick_6">
     <g id="line2d_31">
      <path clip-path="url(#p3424ec7323)" d="M 72 176.58 
L 518.4 176.58 
" style="fill:none;stroke:#000000;stroke-dasharray:0.8,1.32;stroke-dashoffset:0;stroke-width:0.8;"/>
     </g>
     <g id="line2d_32">
      <g>
       <use style="stroke:#000000;stroke-width:0.8;" x="72" xlink:href="#m380c82b258" y="176.58"/>
      </g>
     </g>
     <g id="text_16">
      <!-- 12.5 -->
      <g transform="translate(42.734375 180.379219)scale(0.1 -0.1)">
       <use xlink:href="#DejaVuSans-31"/>
       <use x="63.623047" xlink:href="#DejaVuSans-32"/>
       <use x="127.246094" xlink:href="#DejaVuSans-2e"/>
       <use x="159.033203" xlink:href="#DejaVuSans-35"/>
      </g>
     </g>
    </g>
    <g id="ytick_7">
     <g id="line2d_33">
      <path clip-path="url(#p3424ec7323)" d="M 72 135 
L 518.4 135 
" style="fill:none;stroke:#000000;stroke-dasharray:0.8,1.32;stroke-dashoffset:0;stroke-width:0.8;"/>
     </g>
     <g id="line2d_34">
      <g>
       <use style="stroke:#000000;stroke-width:0.8;" x="72" xlink:href="#m380c82b258" y="135"/>
      </g>
     </g>
     <g id="text_17">
      <!-- 15.0 -->
      <g transform="translate(42.734375 138.799219)scale(0.1 -0.1)">
       <use xlink:href="#DejaVuSans-31"/>
       <use x="63.623047" xlink:href="#DejaVuSans-35"/>
       <use x="127.246094" xlink:href="#DejaVuSans-2e"/>
       <use x="159.033203" xlink:href="#DejaVuSans-30"/>
      </g>
     </g>
    </g>
    <g id="ytick_8">
     <g id="line2d_35">
      <path clip-path="url(#p3424ec7323)" d="M 72 93.42 
L 518.4 93.42 
" style="fill:none;stroke:#000000;stroke-dasharray:0.8,1.32;stroke-dashoffset:0;stroke-width:0.8;"/>
     </g>
     <g id="line2d_36">
      <g>
       <use style="stroke:#000000;stroke-width:0.8;" x="72" xlink:href="#m380c82b258" y="93.42"/>
      </g>
     </g>
     <g id="text_18">
      <!-- 17.5 -->
      <g transform="translate(42.734375 97.219219)scale(0.1 -0.1)">
       <use xlink:href="#DejaVuSans-31"/>
       <use x="63.623047" xlink:href="#DejaVuSans-37"/>
       <use x="127.246094" xlink:href="#DejaVuSans-2e"/>
       <use x="159.033203" xlink:href="#DejaVuSans-35"/>
      </g>
     </g>
    </g>
    <g id="ytick_9">
     <g id="line2d_37">
      <path clip-path="url(#p3424ec7323)" d="M 72 51.84 
L 518.4 51.84 
" style="fill:none;stroke:#000000;stroke-dasharray:0.8,1.32;stroke-dashoffset:0;stroke-width:0.8;"/>
     </g>
     <g id="line2d_38">
      <g>
       <use style="stroke:#000000;stroke-width:0.8;" x="72" xlink:href="#m380c82b258" y="51.84"/>
      </g>
     </g>
     <g id="text_19">
      <!-- 20.0 -->
      <g transform="translate(42.734375 55.639219)scale(0.1 -0.1)">
       <use xlink:href="#DejaVuSans-32"/>
       <use x="63.623047" xlink:href="#DejaVuSans-30"/>
       <use x="127.246094" xlink:href="#DejaVuSans-2e"/>
       <use x="159.033203" xlink:href="#DejaVuSans-30"/>
      </g>
     </g>
    </g>
    <g id="text_20">
     <!-- Cumulative doses (millions) -->
     <g transform="translate(36.654687 287.556094)rotate(-90)scale(0.1 -0.1)">
      <defs>
       <path d="M 4122 4306 
L 4122 3641 
Q 3803 3938 3442 4084 
Q 3081 4231 2675 4231 
Q 1875 4231 1450 3742 
Q 1025 3253 1025 2328 
Q 1025 1406 1450 917 
Q 1875 428 2675 428 
Q 3081 428 3442 575 
Q 3803 722 4122 1019 
L 4122 359 
Q 3791 134 3420 21 
Q 3050 -91 2638 -91 
Q 1578 -91 968 557 
Q 359 1206 359 2328 
Q 359 3453 968 4101 
Q 1578 4750 2638 4750 
Q 3056 4750 3426 4639 
Q 3797 4528 4122 4306 
z
" id="DejaVuSans-43" transform="scale(0.015625)"/>
       <path d="M 3328 2828 
Q 3544 3216 3844 3400 
Q 4144 3584 4550 3584 
Q 5097 3584 5394 3201 
Q 5691 2819 5691 2113 
L 5691 0 
L 5113 0 
L 5113 2094 
Q 5113 2597 4934 2840 
Q 4756 3084 4391 3084 
Q 3944 3084 3684 2787 
Q 3425 2491 3425 1978 
L 3425 0 
L 2847 0 
L 2847 2094 
Q 2847 2600 2669 2842 
Q 2491 3084 2119 3084 
Q 1678 3084 1418 2786 
Q 1159 2488 1159 1978 
L 1159 0 
L 581 0 
L 581 3500 
L 1159 3500 
L 1159 2956 
Q 1356 3278 1631 3431 
Q 1906 3584 2284 3584 
Q 2666 3584 2933 3390 
Q 3200 3197 3328 2828 
z
" id="DejaVuSans-6d" transform="scale(0.015625)"/>
       <path d="M 603 3500 
L 1178 3500 
L 1178 0 
L 603 0 
L 603 3500 
z
M 603 4863 
L 1178 4863 
L 1178 4134 
L 603 4134 
L 603 4863 
z
" id="DejaVuSans-69" transform="scale(0.015625)"/>
       <path id="DejaVuSans-20" transform="scale(0.015625)"/>
       <path d="M 2906 2969 
L 2906 4863 
L 3481 4863 
L 3481 0 
L 2906 0 
L 2906 525 
Q 2725 213 2448 61 
Q 2172 -91 1784 -91 
Q 1150 -91 751 415 
Q 353 922 353 1747 
Q 353 2572 751 3078 
Q 1150 3584 1784 3584 
Q 2172 3584 2448 3432 
Q 2725 3281 2906 2969 
z
M 947 1747 
Q 947 1113 1208 752 
Q 1469 391 1925 391 
Q 2381 391 2643 752 
Q 2906 1113 2906 1747 
Q 2906 2381 2643 2742 
Q 2381 3103 1925 3103 
Q 1469 3103 1208 2742 
Q 947 2381 947 1747 
z
" id="DejaVuSans-64" transform="scale(0.015625)"/>
       <path d="M 2834 3397 
L 2834 2853 
Q 2591 2978 2328 3040 
Q 2066 3103 1784 3103 
Q 1356 3103 1142 2972 
Q 928 2841 928 2578 
Q 928 2378 1081 2264 
Q 1234 2150 1697 2047 
L 1894 2003 
Q 2506 1872 2764 1633 
Q 3022 1394 3022 966 
Q 3022 478 2636 193 
Q 2250 -91 1575 -91 
Q 1294 -91 989 -36 
Q 684 19 347 128 
L 347 722 
Q 666 556 975 473 
Q 1284 391 1588 391 
Q 1994 391 2212 530 
Q 2431 669 2431 922 
Q 2431 1156 2273 1281 
Q 2116 1406 1581 1522 
L 1381 1569 
Q 847 1681 609 1914 
Q 372 2147 372 2553 
Q 372 3047 722 3315 
Q 1072 3584 1716 3584 
Q 2034 3584 2315 3537 
Q 2597 3491 2834 3397 
z
" id="DejaVuSans-73" transform="scale(0.015625)"/>
       <path d="M 1984 4856 
Q 1566 4138 1362 3434 
Q 1159 2731 1159 2009 
Q 1159 1288 1364 580 
Q 1569 -128 1984 -844 
L 1484 -844 
Q 1016 -109 783 600 
Q 550 1309 550 2009 
Q 550 2706 781 3412 
Q 1013 4119 1484 4856 
L 1984 4856 
z
" id="DejaVuSans-28" transform="scale(0.015625)"/>
       <path d="M 513 4856 
L 1013 4856 
Q 1481 4119 1714 3412 
Q 1947 2706 1947 2009 
Q 1947 1309 1714 600 
Q 1481 -109 1013 -844 
L 513 -844 
Q 928 -128 1133 580 
Q 1338 1288 1338 2009 
Q 1338 2731 1133 3434 
Q 928 4138 513 4856 
z
" id="DejaVuSans-29" transform="scale(0.015625)"/>
      </defs>
      <use xlink:href="#DejaVuSans-43"/>
      <use x="69.824219" xlink:href="#DejaVuSans-75"/>
      <use x="133.203125" xlink:href="#DejaVuSans-6d"/>
      <use x="230.615234" xlink:href="#DejaVuSans-75"/>
      <use x="293.994141" xlink:href="#DejaVuSans-6c"/>
      <use x="321.777344" xlink:href="#DejaVuSans-61"/>
      <use x="383.056641" xlink:href="#DejaVuSans-74"/>
      <use x="422.265625" xlink:href="#DejaVuSans-69"/>
      <use x="450.048828" xlink:href="#DejaVuSans-76"/>
      <use x="509.228516" xlink:href="#DejaVuSans-65"/>
      <use x="570.751953" xlink:href="#DejaVuSans-20"/>
      <use x="602.539062" xlink:href="#DejaVuSans-64"/>
      <use x="666.015625" xlink:href="#DejaVuSans-6f"/>
      <use x="727.197266" xlink:href="#DejaVuSans-73"/>
      <use x="779.296875" xlink:href="#DejaVuSans-65"/>
      <use x="840.820312" xlink:href="#DejaVuSans-73"/>
      <use x="892.919922" xlink:href="#DejaVuSans-20"/>
      <use x="924.707031" xlink:href="#DejaVuSans-28"/>
      <use x="963.720703" xlink:href="#DejaVuSans-6d"/>
      <use x="1061.132812" xlink:href="#DejaVuSans-69"/>
      <use x="1088.916016" xlink:href="#DejaVuSans-6c"/>
      <use x="1116.699219" xlink:href="#DejaVuSans-6c"/>
      <use x="1144.482422" xlink:href="#DejaVuSans-69"/>
      <use x="1172.265625" xlink:href="#DejaVuSans-6f"/>
      <use x="1233.447266" xlink:href="#DejaVuSans-6e"/>
      <use x="1296.826172" xlink:href="#DejaVuSans-73"/>
      <use x="1348.925781" xlink:href="#DejaVuSans-29"/>
     </g>
    </g>
   </g>
   <g id="line2d_39">
    <path clip-path="url(#p3424ec7323)" d="M 72 384.421334 
L 72 384.358979 
L 74.861538 384.292703 
L 74.861538 384.222268 
L 77.723077 384.14743 
L 77.723077 384.067939 
L 80.584615 383.983544 
L 80.584615 383.893994 
L 83.446154 383.799037 
L 83.446154 383.698428 
L 86.307692 383.591922 
L 86.307692 383.479281 
L 87.738462 383.479281 
L 87.738462 383.36027 
L 89.169231 383.36027 
L 89.169231 383.234648 
L 90.6 383.234648 
L 90.6 383.10216 
L 92.030769 383.10216 
L 92.030769 382.962529 
L 93.461538 382.962529 
L 93.461538 382.815427 
L 94.892308 382.815427 
L 94.892308 382.660459 
L 96.323077 382.660459 
L 96.323077 382.497135 
L 97.753846 382.497135 
L 97.753846 382.32484 
L 99.184615 382.32484 
L 99.184615 382.142811 
L 100.615385 382.142811 
L 100.615385 381.950119 
L 102.046154 381.950119 
L 102.046154 381.745652 
L 103.476923 381.745652 
L 103.476923 381.528121 
L 104.907692 381.528121 
L 104.907692 381.296078 
L 106.338462 381.296078 
L 106.338462 381.047952 
L 107.769231 381.047952 
L 107.769231 380.782099 
L 109.2 380.782099 
L 109.2 380.496877 
L 110.630769 380.496877 
L 110.630769 380.19072 
L 112.061538 380.19072 
L 112.061538 379.862229 
L 113.492308 379.862229 
L 113.492308 379.510263 
L 114.923077 379.510263 
L 114.923077 379.134011 
L 116.353846 379.134011 
L 116.353846 378.733048 
L 117.784615 378.733048 
L 117.784615 378.307367 
L 119.215385 378.307367 
L 119.215385 377.857388 
L 120.646154 377.857388 
L 120.646154 377.383925 
L 122.076923 377.383925 
L 122.076923 376.888131 
L 123.507692 376.888131 
L 123.507692 376.371416 
L 124.938462 376.371416 
L 124.938462 375.835346 
L 126.369231 375.835346 
L 126.369231 375.281538 
L 127.8 375.281538 
L 127.8 374.711559 
L 129.230769 374.711559 
L 129.230769 374.126833 
L 130.661538 374.126833 
L 130.661538 373.528573 
L 132.092308 373.528573 
L 132.092308 372.917741 
L 133.523077 372.917741 
L 133.523077 372.295035 
L 134.953846 372.295035 
L 134.953846 371.660904 
L 136.384615 371.660904 
L 136.384615 371.015596 
L 137.815385 371.015596 
L 137.815385 370.359212 
L 139.246154 370.359212 
L 139.246154 369.691784 
L 140.676923 369.691784 
L 140.676923 369.013353 
L 142.107692 369.013353 
L 142.107692 368.324036 
L 143.538462 368.324036 
L 143.538462 367.624091 
L 144.969231 367.624091 
L 144.969231 366.913966 
L 146.4 366.913966 
L 146.4 366.194324 
L 147.830769 366.194324 
L 147.830769 365.466053 
L 149.261538 365.466053 
L 149.261538 364.73025 
L 150.692308 364.73025 
L 150.692308 363.988184 
L 152.123077 363.988184 
L 152.123077 363.241251 
L 153.553846 363.241251 
L 153.553846 362.490899 
L 154.984615 362.490899 
L 154.984615 361.738552 
L 156.415385 361.738552 
L 156.415385 360.985533 
L 157.846154 360.985533 
L 157.846154 360.23298 
L 159.276923 360.23298 
L 159.276923 359.481777 
L 160.707692 359.481777 
L 160.707692 358.732503 
L 162.138462 358.732503 
L 162.138462 357.985396 
L 163.569231 357.985396 
L 163.569231 357.240351 
L 165 357.240351 
L 165 356.49693 
L 166.430769 356.49693 
L 166.430769 355.754407 
L 167.861538 355.754407 
L 167.861538 355.011825 
L 169.292308 355.011825 
L 169.292308 354.268065 
L 170.723077 354.268065 
L 170.723077 353.521922 
L 172.153846 353.521922 
L 172.153846 352.772171 
L 173.584615 352.772171 
L 173.584615 352.017623 
L 175.015385 352.017623 
L 175.015385 351.257162 
L 176.446154 351.257162 
L 176.446154 350.489765 
L 177.876923 350.489765 
L 177.876923 349.714487 
L 179.307692 349.714487 
L 179.307692 348.930446 
L 180.738462 348.930446 
L 180.738462 348.136771 
L 182.169231 348.136771 
L 182.169231 347.332569 
L 183.6 347.332569 
L 183.6 346.516868 
L 185.030769 346.516868 
L 185.030769 345.688579 
L 186.461538 345.688579 
L 186.461538 344.846458 
L 187.892308 344.846458 
L 187.892308 343.989098 
L 189.323077 343.989098 
L 189.323077 343.114917 
L 190.753846 343.114917 
L 190.753846 342.222175 
L 192.184615 342.222175 
L 192.184615 341.309009 
L 193.615385 341.309009 
L 193.615385 340.373464 
L 195.046154 340.373464 
L 195.046154 339.413556 
L 196.476923 339.413556 
L 196.476923 338.427328 
L 197.907692 338.427328 
L 197.907692 337.41292 
L 199.338462 337.41292 
L 199.338462 336.368641 
L 200.769231 336.368641 
L 200.769231 335.293046 
L 202.2 335.293046 
L 202.2 334.185008 
L 203.630769 334.185008 
L 203.630769 333.043796 
L 205.061538 333.043796 
L 205.061538 331.86914 
L 206.492308 331.86914 
L 206.492308 330.66129 
L 207.923077 330.66129 
L 207.923077 329.421056 
L 209.353846 329.421056 
L 209.353846 328.149826 
L 210.784615 328.149826 
L 210.784615 326.849567 
L 212.215385 326.849567 
L 212.215385 325.52279 
L 213.646154 325.52279 
L 213.646154 324.172483 
L 215.076923 324.172483 
L 215.076923 322.802023 
L 216.507692 322.802023 
L 216.507692 321.415054 
L 217.938462 321.415054 
L 217.938462 320.015349 
L 219.369231 320.015349 
L 219.369231 318.606663 
L 220.8 318.606663 
L 220.8 317.192582 
L 222.230769 317.192582 
L 222.230769 315.776385 
L 223.661538 315.776385 
L 223.661538 314.360931 
L 225.092308 314.360931 
L 225.092308 312.948566 
L 226.523077 312.948566 
L 226.523077 311.541081 
L 227.953846 311.541081 
L 227.953846 310.139692 
L 229.384615 310.139692 
L 229.384615 308.745067 
L 230.815385 308.745067 
L 230.815385 307.357383 
L 232.246154 307.357383 
L 232.246154 305.97641 
L 233.676923 305.97641 
L 233.676923 304.6016 
L 235.107692 304.6016 
L 235.107692 303.232194 
L 236.538462 303.232194 
L 236.538462 301.867319 
L 237.969231 301.867319 
L 237.969231 300.506073 
L 239.4 300.506073 
L 239.4 299.147593 
L 240.830769 299.147593 
L 240.830769 297.791108 
L 242.261538 297.791108 
L 242.261538 296.43596 
L 243.692308 296.43596 
L 243.692308 295.081619 
L 245.123077 295.081619 
L 245.123077 293.727678 
L 246.553846 293.727678 
L 246.553846 292.373829 
L 247.984615 292.373829 
L 247.984615 291.019842 
L 249.415385 291.019842 
L 249.415385 289.665533 
L 250.846154 289.665533 
L 250.846154 288.310736 
L 252.276923 288.310736 
L 252.276923 286.955272 
L 253.707692 286.955272 
L 253.707692 285.598928 
L 255.138462 285.598928 
L 255.138462 284.241436 
L 256.569231 284.241436 
L 256.569231 282.882456 
L 258 282.882456 
L 258 281.521572 
L 259.430769 281.521572 
L 259.430769 280.158282 
L 260.861538 280.158282 
L 260.861538 278.792002 
L 262.292308 278.792002 
L 262.292308 277.422075 
L 263.723077 277.422075 
L 263.723077 276.047779 
L 265.153846 276.047779 
L 265.153846 274.668341 
L 266.584615 274.668341 
L 266.584615 273.282965 
L 268.015385 273.282965 
L 268.015385 271.890846 
L 269.446154 271.890846 
L 269.446154 270.491199 
L 270.876923 270.491199 
L 270.876923 269.083284 
L 272.307692 269.083284 
L 272.307692 267.666426 
L 273.738462 267.666426 
L 273.738462 266.24004 
L 275.169231 266.24004 
L 275.169231 264.803639 
L 276.6 264.803639 
L 276.6 263.356855 
L 278.030769 263.356855 
L 278.030769 261.899441 
L 279.461538 261.899441 
L 279.461538 260.431274 
L 280.892308 260.431274 
L 280.892308 258.952347 
L 282.323077 258.952347 
L 282.323077 257.462768 
L 283.753846 257.462768 
L 283.753846 255.962743 
L 285.184615 255.962743 
L 285.184615 254.452562 
L 286.615385 254.452562 
L 286.615385 252.932587 
L 288.046154 252.932587 
L 288.046154 251.403234 
L 289.476923 251.403234 
L 289.476923 249.864965 
L 290.907692 249.864965 
L 290.907692 248.318272 
L 292.338462 248.318272 
L 292.338462 246.763669 
L 293.769231 246.763669 
L 293.769231 245.201691 
L 295.2 245.201691 
L 295.2 243.632892 
L 296.630769 243.632892 
L 296.630769 242.057843 
L 298.061538 242.057843 
L 298.061538 240.477146 
L 299.492308 240.477146 
L 299.492308 238.891442 
L 300.923077 238.891442 
L 300.923077 237.301423 
L 302.353846 237.301423 
L 302.353846 235.707854 
L 303.784615 235.707854 
L 303.784615 234.111588 
L 305.215385 234.111588 
L 305.215385 232.51359 
L 306.646154 232.51359 
L 306.646154 230.914953 
L 308.076923 230.914953 
L 308.076923 229.316921 
L 309.507692 229.316921 
L 309.507692 227.720899 
L 310.938462 227.720899 
L 310.938462 226.128465 
L 312.369231 226.128465 
L 312.369231 224.54137 
L 313.8 224.54137 
L 313.8 222.961535 
L 315.230769 222.961535 
L 315.230769 221.391034 
L 316.661538 221.391034 
L 316.661538 219.832072 
L 318.092308 219.832072 
L 318.092308 218.286949 
L 319.523077 218.286949 
L 319.523077 216.758024 
L 320.953846 216.758024 
L 320.953846 215.247666 
L 322.384615 215.247666 
L 322.384615 213.758205 
L 323.815385 213.758205 
L 323.815385 212.291877 
L 325.246154 212.291877 
L 325.246154 210.85078 
L 326.676923 210.85078 
L 326.676923 209.436817 
L 328.107692 209.436817 
L 328.107692 208.051661 
L 329.538462 208.051661 
L 329.538462 206.696719 
L 330.969231 206.696719 
L 330.969231 205.373106 
L 332.4 205.373106 
L 332.4 204.081628 
L 333.830769 204.081628 
L 333.830769 202.822777 
L 335.261538 202.822777 
L 335.261538 201.59674 
L 336.692308 201.59674 
L 336.692308 200.403405 
L 338.123077 200.403405 
L 338.123077 199.242386 
L 339.553846 199.242386 
L 339.553846 198.113053 
L 340.984615 198.113053 
L 340.984615 197.01456 
L 342.415385 197.01456 
L 342.415385 195.945883 
L 343.846154 195.945883 
L 343.846154 194.905855 
L 345.276923 194.905855 
L 345.276923 193.893206 
L 346.707692 193.893206 
L 346.707692 192.906591 
L 348.138462 192.906591 
L 348.138462 191.944623 
L 349.569231 191.944623 
L 349.569231 191.005903 
L 351 191.005903 
L 351 190.089041 
L 352.430769 190.089041 
L 352.430769 189.192674 
L 353.861538 189.192674 
L 353.861538 188.315479 
L 355.292308 188.315479 
L 355.292308 187.456189 
L 356.723077 187.456189 
L 356.723077 186.613594 
L 358.153846 186.613594 
L 358.153846 185.78655 
L 359.584615 185.78655 
L 359.584615 184.973977 
L 361.015385 184.973977 
L 361.015385 184.17486 
L 362.446154 184.17486 
L 362.446154 183.388246 
L 363.876923 183.388246 
L 363.876923 182.613243 
L 365.307692 182.613243 
L 365.307692 181.849015 
L 366.738462 181.849015 
L 366.738462 181.094774 
L 368.169231 181.094774 
L 368.169231 180.349777 
L 369.6 180.349777 
L 369.6 179.61331 
L 371.030769 179.61331 
L 371.030769 178.884686 
L 372.461538 178.884686 
L 372.461538 178.163221 
L 373.892308 178.163221 
L 373.892308 177.448221 
L 375.323077 177.448221 
L 375.323077 176.738958 
L 376.753846 176.738958 
L 376.753846 176.03464 
L 378.184615 176.03464 
L 378.184615 175.334381 
L 379.615385 175.334381 
L 379.615385 174.637158 
L 381.046154 174.637158 
L 381.046154 173.94177 
L 382.476923 173.94177 
L 382.476923 173.24679 
L 383.907692 173.24679 
L 383.907692 172.550514 
L 385.338462 172.550514 
L 385.338462 171.850918 
L 386.769231 171.850918 
L 386.769231 171.145618 
L 388.2 171.145618 
L 388.2 170.431838 
L 389.630769 170.431838 
L 389.630769 169.706398 
L 391.061538 169.706398 
L 391.061538 168.965719 
L 392.492308 168.965719 
L 392.492308 168.20585 
L 393.923077 168.20585 
L 393.923077 167.422526 
L 395.353846 167.422526 
L 395.353846 166.611244 
L 396.784615 166.611244 
L 396.784615 165.767364 
L 398.215385 165.767364 
L 398.215385 164.886231 
L 399.646154 164.886231 
L 399.646154 163.963306 
L 401.076923 163.963306 
L 401.076923 162.994298 
L 402.507692 162.994298 
L 402.507692 161.9753 
L 403.938462 161.9753 
L 403.938462 160.902898 
L 405.369231 160.902898 
L 405.369231 159.774271 
L 406.8 159.774271 
L 406.8 158.587255 
L 408.230769 158.587255 
L 408.230769 157.340385 
L 409.661538 157.340385 
L 409.661538 156.032899 
L 411.092308 156.032899 
L 411.092308 154.664713 
L 412.523077 154.664713 
L 412.523077 153.236378 
L 413.953846 153.236378 
L 413.953846 151.749006 
L 415.384615 151.749006 
L 415.384615 150.204192 
L 416.815385 150.204192 
L 416.815385 148.603924 
L 418.246154 148.603924 
L 418.246154 146.950488 
L 419.676923 146.950488 
L 419.676923 145.246386 
L 421.107692 145.246386 
L 421.107692 143.494251 
L 422.538462 143.494251 
L 422.538462 141.696783 
L 423.969231 141.696783 
L 423.969231 139.856686 
L 425.4 139.856686 
L 425.4 137.976624 
L 426.830769 137.976624 
L 426.830769 136.059184 
L 428.261538 136.059184 
L 428.261538 134.106854 
L 429.692308 134.106854 
L 429.692308 132.122003 
L 431.123077 132.122003 
L 431.123077 130.106873 
L 432.553846 130.106873 
L 432.553846 128.063575 
L 433.984615 128.063575 
L 433.984615 125.994088 
L 435.415385 125.994088 
L 435.415385 123.900262 
L 436.846154 123.900262 
L 436.846154 121.783827 
L 438.276923 121.783827 
L 438.276923 119.6464 
L 439.707692 119.6464 
L 439.707692 117.489489 
L 441.138462 117.489489 
L 441.138462 115.314513 
L 442.569231 115.314513 
L 442.569231 113.12281 
L 444 113.12281 
L 444 110.915652 
L 445.430769 110.915652 
L 445.430769 108.694266 
L 446.861538 108.694266 
L 446.861538 106.459861 
L 448.292308 106.459861 
L 448.292308 104.213657 
L 449.723077 104.213657 
L 449.723077 101.956938 
L 451.153846 101.956938 
L 451.153846 99.691099 
L 452.584615 99.691099 
L 452.584615 97.417725 
L 454.015385 97.417725 
L 454.015385 95.138672 
L 455.446154 95.138672 
L 455.446154 92.85617 
L 456.876923 92.85617 
L 456.876923 90.572937 
L 458.307692 90.572937 
L 458.307692 88.292308 
L 459.738462 88.292308 
L 459.738462 86.018359 
L 461.169231 86.018359 
L 461.169231 83.756037 
L 462.6 83.756037 
L 462.6 81.511259 
L 464.030769 81.511259 
L 464.030769 79.290985 
L 465.461538 79.290985 
L 465.461538 77.103243 
L 466.892308 77.103243 
L 466.892308 74.957088 
L 468.323077 74.957088 
L 468.323077 72.862483 
L 469.753846 72.862483 
L 469.753846 70.830103 
L 471.184615 70.830103 
L 471.184615 68.871046 
L 472.615385 68.871046 
L 472.615385 66.996479 
L 474.046154 66.996479 
L 474.046154 65.217209 
L 475.476923 65.217209 
L 475.476923 63.543238 
L 476.907692 63.543238 
L 476.907692 61.983295 
L 478.338462 61.983295 
L 478.338462 60.544392 
L 479.769231 60.544392 
L 479.769231 59.2315 
L 481.2 59.2315 
L 481.2 58.047274 
L 482.630769 58.047274 
L 482.630769 56.991913 
L 484.061538 56.991913 
L 484.061538 56.063159 
L 485.492308 56.063159 
L 485.492308 55.256429 
L 486.923077 55.256429 
L 486.923077 54.565073 
L 488.353846 54.565073 
L 488.353846 53.980736 
L 489.784615 53.980736 
L 489.784615 53.493788 
L 491.215385 53.493788 
L 491.215385 53.093785 
L 492.646154 53.093785 
L 492.646154 52.769942 
L 494.076923 52.769942 
L 494.076923 52.511557 
L 495.507692 52.511557 
L 495.507692 52.308382 
L 496.938462 52.308382 
L 496.938462 52.150914 
L 498.369231 52.150914 
L 498.369231 52.0306 
L 501.230769 51.939949 
L 501.230769 51.872568 
L 506.953846 51.761703 
L 506.953846 51.743572 
L 518.4 51.706319 
L 518.4 51.706319 
" style="fill:none;stroke:#1f77b4;stroke-linecap:square;stroke-width:1.5;"/>
   </g>
   <g id="line2d_40">
    <path clip-path="url(#p3424ec7323)" d="M 72 384.479948 
L 72 384.479867 
L 99.184615 384.380919 
L 99.184615 384.355533 
L 104.907692 384.250044 
L 104.907692 384.204125 
L 109.2 384.095359 
L 109.2 384.03262 
L 112.061538 383.964563 
L 112.061538 383.891496 
L 114.923077 383.81381 
L 114.923077 383.731953 
L 117.784615 383.646411 
L 117.784615 383.557685 
L 120.646154 383.466265 
L 120.646154 383.372608 
L 123.507692 383.277124 
L 123.507692 383.180157 
L 126.369231 383.08198 
L 126.369231 382.982785 
L 129.230769 382.882684 
L 129.230769 382.781714 
L 132.092308 382.679846 
L 132.092308 382.576988 
L 134.953846 382.473007 
L 134.953846 382.367735 
L 137.815385 382.260991 
L 137.815385 382.152593 
L 140.676923 382.042374 
L 140.676923 381.930202 
L 142.107692 381.930202 
L 142.107692 381.815988 
L 143.538462 381.815988 
L 143.538462 381.6997 
L 144.969231 381.6997 
L 144.969231 381.581373 
L 146.4 381.581373 
L 146.4 381.461108 
L 147.830769 381.461108 
L 147.830769 381.339073 
L 149.261538 381.339073 
L 149.261538 381.215496 
L 150.692308 381.215496 
L 150.692308 381.090651 
L 152.123077 381.090651 
L 152.123077 380.964844 
L 153.553846 380.964844 
L 153.553846 380.838392 
L 154.984615 380.838392 
L 154.984615 380.711597 
L 156.415385 380.711597 
L 156.415385 380.584729 
L 157.846154 380.584729 
L 157.846154 380.458001 
L 159.276923 380.458001 
L 159.276923 380.331553 
L 160.707692 380.331553 
L 160.707692 380.205433 
L 162.138462 380.205433 
L 162.138462 380.079593 
L 163.569231 380.079593 
L 163.569231 379.953878 
L 165 379.953878 
L 165 379.828027 
L 166.430769 379.828027 
L 166.430769 379.70168 
L 167.861538 379.70168 
L 167.861538 379.574381 
L 169.292308 379.574381 
L 169.292308 379.445596 
L 170.723077 379.445596 
L 170.723077 379.31473 
L 172.153846 379.31473 
L 172.153846 379.181146 
L 173.584615 379.181146 
L 173.584615 379.044193 
L 175.015385 379.044193 
L 175.015385 378.903235 
L 176.446154 378.903235 
L 176.446154 378.757682 
L 177.876923 378.757682 
L 177.876923 378.607026 
L 179.307692 378.607026 
L 179.307692 378.450866 
L 180.738462 378.450866 
L 180.738462 378.288943 
L 182.169231 378.288943 
L 182.169231 378.121154 
L 183.6 378.121154 
L 183.6 377.947568 
L 185.030769 377.947568 
L 185.030769 377.768425 
L 186.461538 377.768425 
L 186.461538 377.584126 
L 187.892308 377.584126 
L 187.892308 377.395212 
L 189.323077 377.395212 
L 189.323077 377.202326 
L 190.753846 377.202326 
L 190.753846 377.006178 
L 192.184615 377.006178 
L 192.184615 376.807495 
L 193.615385 376.807495 
L 193.615385 376.606971 
L 195.046154 376.606971 
L 195.046154 376.405222 
L 196.476923 376.405222 
L 196.476923 376.20274 
L 197.907692 376.20274 
L 197.907692 375.999861 
L 199.338462 375.999861 
L 199.338462 375.796733 
L 200.769231 375.796733 
L 200.769231 375.593306 
L 202.2 375.593306 
L 202.2 375.389325 
L 203.630769 375.389325 
L 203.630769 375.184334 
L 205.061538 375.184334 
L 205.061538 374.977701 
L 206.492308 374.977701 
L 206.492308 374.768634 
L 207.923077 374.768634 
L 207.923077 374.556219 
L 209.353846 374.556219 
L 209.353846 374.339449 
L 210.784615 374.339449 
L 210.784615 374.117258 
L 212.215385 374.117258 
L 212.215385 373.888544 
L 213.646154 373.888544 
L 213.646154 373.652186 
L 215.076923 373.652186 
L 215.076923 373.407054 
L 216.507692 373.407054 
L 216.507692 373.152003 
L 217.938462 373.152003 
L 217.938462 372.885855 
L 219.369231 372.885855 
L 219.369231 372.607382 
L 220.8 372.607382 
L 220.8 372.315279 
L 222.230769 372.315279 
L 222.230769 372.00814 
L 223.661538 372.00814 
L 223.661538 371.684442 
L 225.092308 371.684442 
L 225.092308 371.342547 
L 226.523077 371.342547 
L 226.523077 370.980714 
L 227.953846 370.980714 
L 227.953846 370.597137 
L 229.384615 370.597137 
L 229.384615 370.190003 
L 230.815385 370.190003 
L 230.815385 369.757562 
L 232.246154 369.757562 
L 232.246154 369.298214 
L 233.676923 369.298214 
L 233.676923 368.810605 
L 235.107692 368.810605 
L 235.107692 368.293708 
L 236.538462 368.293708 
L 236.538462 367.7469 
L 237.969231 367.7469 
L 237.969231 367.170011 
L 239.4 367.170011 
L 239.4 366.56335 
L 240.830769 366.56335 
L 240.830769 365.927702 
L 242.261538 365.927702 
L 242.261538 365.264284 
L 243.692308 365.264284 
L 243.692308 364.574678 
L 245.123077 364.574678 
L 245.123077 363.860744 
L 246.553846 363.860744 
L 246.553846 363.124512 
L 247.984615 363.124512 
L 247.984615 362.368078 
L 249.415385 362.368078 
L 249.415385 361.5935 
L 250.846154 361.5935 
L 250.846154 360.802712 
L 252.276923 360.802712 
L 252.276923 359.997465 
L 253.707692 359.997465 
L 253.707692 359.179289 
L 255.138462 359.179289 
L 255.138462 358.349493 
L 256.569231 358.349493 
L 256.569231 357.509182 
L 258 357.509182 
L 258 356.659304 
L 259.430769 356.659304 
L 259.430769 355.800708 
L 260.861538 355.800708 
L 260.861538 354.934206 
L 262.292308 354.934206 
L 262.292308 354.060638 
L 263.723077 354.060638 
L 263.723077 353.180919 
L 265.153846 353.180919 
L 265.153846 352.296076 
L 266.584615 352.296076 
L 266.584615 351.407259 
L 268.015385 351.407259 
L 268.015385 350.515735 
L 269.446154 350.515735 
L 269.446154 349.62285 
L 270.876923 349.62285 
L 270.876923 348.72998 
L 272.307692 348.72998 
L 272.307692 347.838465 
L 273.738462 347.838465 
L 273.738462 346.949526 
L 275.169231 346.949526 
L 275.169231 346.064188 
L 276.6 346.064188 
L 276.6 345.183202 
L 278.030769 345.183202 
L 278.030769 344.306977 
L 279.461538 344.306977 
L 279.461538 343.43553 
L 280.892308 343.43553 
L 280.892308 342.568461 
L 282.323077 342.568461 
L 282.323077 341.704953 
L 283.753846 341.704953 
L 283.753846 340.843794 
L 285.184615 340.843794 
L 285.184615 339.983428 
L 286.615385 339.983428 
L 286.615385 339.122025 
L 288.046154 339.122025 
L 288.046154 338.257565 
L 289.476923 338.257565 
L 289.476923 337.387933 
L 290.907692 337.387933 
L 290.907692 336.511008 
L 292.338462 336.511008 
L 292.338462 335.624745 
L 293.769231 335.624745 
L 293.769231 334.727236 
L 295.2 334.727236 
L 295.2 333.816758 
L 296.630769 333.816758 
L 296.630769 332.891785 
L 298.061538 332.891785 
L 298.061538 331.950986 
L 299.492308 331.950986 
L 299.492308 330.993196 
L 300.923077 330.993196 
L 300.923077 330.017373 
L 302.353846 330.017373 
L 302.353846 329.022547 
L 303.784615 329.022547 
L 303.784615 328.007771 
L 305.215385 328.007771 
L 305.215385 326.972071 
L 306.646154 326.972071 
L 306.646154 325.91441 
L 308.076923 325.91441 
L 308.076923 324.833666 
L 309.507692 324.833666 
L 309.507692 323.728632 
L 310.938462 323.728632 
L 310.938462 322.598019 
L 312.369231 322.598019 
L 312.369231 321.440489 
L 313.8 321.440489 
L 313.8 320.254688 
L 315.230769 320.254688 
L 315.230769 319.039293 
L 316.661538 319.039293 
L 316.661538 317.793067 
L 318.092308 317.793067 
L 318.092308 316.514912 
L 319.523077 316.514912 
L 319.523077 315.203923 
L 320.953846 315.203923 
L 320.953846 313.859446 
L 322.384615 313.859446 
L 322.384615 312.481124 
L 323.815385 312.481124 
L 323.815385 311.068953 
L 325.246154 311.068953 
L 325.246154 309.623316 
L 326.676923 309.623316 
L 326.676923 308.145017 
L 328.107692 308.145017 
L 328.107692 306.635302 
L 329.538462 306.635302 
L 329.538462 305.095859 
L 330.969231 305.095859 
L 330.969231 303.528808 
L 332.4 303.528808 
L 332.4 301.936662 
L 333.830769 301.936662 
L 333.830769 300.322271 
L 335.261538 300.322271 
L 335.261538 298.688742 
L 336.692308 298.688742 
L 336.692308 297.039342 
L 338.123077 297.039342 
L 338.123077 295.377385 
L 339.553846 295.377385 
L 339.553846 293.706118 
L 340.984615 293.706118 
L 340.984615 292.028601 
L 342.415385 292.028601 
L 342.415385 290.347604 
L 343.846154 290.347604 
L 343.846154 288.665518 
L 345.276923 288.665518 
L 345.276923 286.98429 
L 346.707692 286.98429 
L 346.707692 285.305396 
L 348.138462 285.305396 
L 348.138462 283.62983 
L 349.569231 283.62983 
L 349.569231 281.958137 
L 351 281.958137 
L 351 280.290463 
L 352.430769 280.290463 
L 352.430769 278.626628 
L 353.861538 278.626628 
L 353.861538 276.966204 
L 355.292308 276.966204 
L 355.292308 275.308605 
L 356.723077 275.308605 
L 356.723077 273.653168 
L 358.153846 273.653168 
L 358.153846 271.999219 
L 359.584615 271.999219 
L 359.584615 270.346134 
L 361.015385 270.346134 
L 361.015385 268.693376 
L 362.446154 268.693376 
L 362.446154 267.040516 
L 363.876923 267.040516 
L 363.876923 265.387239 
L 365.307692 265.387239 
L 365.307692 263.733343 
L 366.738462 263.733343 
L 366.738462 262.078721 
L 368.169231 262.078721 
L 368.169231 260.423344 
L 369.6 260.423344 
L 369.6 258.767236 
L 371.030769 258.767236 
L 371.030769 257.110462 
L 372.461538 257.110462 
L 372.461538 255.453102 
L 373.892308 255.453102 
L 373.892308 253.795243 
L 375.323077 253.795243 
L 375.323077 252.136969 
L 376.753846 252.136969 
L 376.753846 250.478352 
L 378.184615 250.478352 
L 378.184615 248.819451 
L 379.615385 248.819451 
L 379.615385 247.160312 
L 381.046154 247.160312 
L 381.046154 245.500968 
L 382.476923 245.500968 
L 382.476923 243.841442 
L 383.907692 243.841442 
L 383.907692 242.181748 
L 385.338462 242.181748 
L 385.338462 240.521893 
L 386.769231 240.521893 
L 386.769231 238.861881 
L 388.2 238.861881 
L 388.2 237.201715 
L 389.630769 237.201715 
L 389.630769 235.541396 
L 391.061538 235.541396 
L 391.061538 233.880923 
L 392.492308 233.880923 
L 392.492308 232.220295 
L 393.923077 232.220295 
L 393.923077 230.559509 
L 395.353846 230.559509 
L 395.353846 228.898555 
L 396.784615 228.898555 
L 396.784615 227.237421 
L 398.215385 227.237421 
L 398.215385 225.57608 
L 399.646154 225.57608 
L 399.646154 223.914492 
L 401.076923 223.914492 
L 401.076923 222.252591 
L 402.507692 222.252591 
L 402.507692 220.590274 
L 403.938462 220.590274 
L 403.938462 218.927389 
L 405.369231 218.927389 
L 405.369231 217.263713 
L 406.8 217.263713 
L 406.8 215.598925 
L 408.230769 215.598925 
L 408.230769 213.932582 
L 409.661538 213.932582 
L 409.661538 212.264079 
L 411.092308 212.264079 
L 411.092308 210.592612 
L 412.523077 210.592612 
L 412.523077 208.917139 
L 413.953846 208.917139 
L 413.953846 207.236334 
L 415.384615 207.236334 
L 415.384615 205.548554 
L 416.815385 205.548554 
L 416.815385 203.851807 
L 418.246154 203.851807 
L 418.246154 202.143739 
L 419.676923 202.143739 
L 419.676923 200.421629 
L 421.107692 200.421629 
L 421.107692 198.682419 
L 422.538462 198.682419 
L 422.538462 196.922755 
L 423.969231 196.922755 
L 423.969231 195.13907 
L 425.4 195.13907 
L 425.4 193.327674 
L 426.830769 193.327674 
L 426.830769 191.484884 
L 428.261538 191.484884 
L 428.261538 189.607156 
L 429.692308 189.607156 
L 429.692308 187.691236 
L 431.123077 187.691236 
L 431.123077 185.734298 
L 432.553846 185.734298 
L 432.553846 183.73408 
L 433.984615 183.73408 
L 433.984615 181.688992 
L 435.415385 181.688992 
L 435.415385 179.598194 
L 436.846154 179.598194 
L 436.846154 177.461644 
L 438.276923 177.461644 
L 438.276923 175.2801 
L 439.707692 175.2801 
L 439.707692 173.055083 
L 441.138462 173.055083 
L 441.138462 170.788812 
L 442.569231 170.788812 
L 442.569231 168.484105 
L 444 168.484105 
L 444 166.144253 
L 445.430769 166.144253 
L 445.430769 163.772893 
L 446.861538 163.772893 
L 446.861538 161.373866 
L 448.292308 161.373866 
L 448.292308 158.951086 
L 449.723077 158.951086 
L 449.723077 156.508417 
L 451.153846 156.508417 
L 451.153846 154.049568 
L 452.584615 154.049568 
L 452.584615 151.578005 
L 454.015385 151.578005 
L 454.015385 149.096893 
L 455.446154 149.096893 
L 455.446154 146.609048 
L 456.876923 146.609048 
L 456.876923 144.116916 
L 458.307692 144.116916 
L 458.307692 141.622571 
L 459.738462 141.622571 
L 459.738462 139.127727 
L 461.169231 139.127727 
L 461.169231 136.633755 
L 462.6 136.633755 
L 462.6 134.14172 
L 464.030769 134.14172 
L 464.030769 131.652414 
L 465.461538 131.652414 
L 465.461538 129.166398 
L 466.892308 129.166398 
L 466.892308 126.684037 
L 468.323077 126.684037 
L 468.323077 124.205546 
L 469.753846 124.205546 
L 469.753846 121.731021 
L 471.184615 121.731021 
L 471.184615 119.260473 
L 472.615385 119.260473 
L 472.615385 116.793864 
L 474.046154 116.793864 
L 474.046154 114.331133 
L 475.476923 114.331133 
L 475.476923 111.872227 
L 476.907692 111.872227 
L 476.907692 109.417135 
L 478.338462 109.417135 
L 478.338462 106.965877 
L 479.769231 106.965877 
L 479.769231 104.518611 
L 481.2 104.518611 
L 481.2 102.075656 
L 482.630769 102.075656 
L 482.630769 99.637544 
L 484.061538 99.637544 
L 484.061538 97.205088 
L 485.492308 97.205088 
L 485.492308 94.779452 
L 486.923077 94.779452 
L 486.923077 92.362224 
L 488.353846 92.362224 
L 488.353846 89.955491 
L 489.784615 89.955491 
L 489.784615 87.561899 
L 491.215385 87.561899 
L 491.215385 85.184698 
L 492.646154 85.184698 
L 492.646154 82.827759 
L 494.076923 82.827759 
L 494.076923 80.495552 
L 495.507692 80.495552 
L 495.507692 78.193085 
L 496.938462 78.193085 
L 496.938462 75.925793 
L 498.369231 75.925793 
L 498.369231 73.699393 
L 499.8 73.699393 
L 499.8 71.519701 
L 501.230769 71.519701 
L 501.230769 69.392437 
L 502.661538 69.392437 
L 502.661538 67.32302 
L 504.092308 67.32302 
L 504.092308 65.316385 
L 505.523077 65.316385 
L 505.523077 63.376824 
L 506.953846 63.376824 
L 506.953846 61.50787 
L 508.384615 61.50787 
L 508.384615 59.712217 
L 509.815385 59.712217 
L 509.815385 57.991702 
L 511.246154 57.991702 
L 511.246154 56.347311 
L 512.676923 56.347311 
L 512.676923 54.779229 
L 514.107692 54.779229 
L 514.107692 53.286915 
L 515.538462 53.286915 
L 515.538462 51.869192 
L 516.969231 51.869192 
L 516.969231 50.524346 
L 518.4 50.524346 
L 518.4 50.524346 
" style="fill:none;stroke:#ff7f0e;stroke-linecap:square;stroke-width:1.5;"/>
   </g>
   <g id="line2d_41">
    <path clip-path="url(#p3424ec7323)" d="M 222.230769 384.48 
L 222.230769 51.84 
" style="fill:none;stroke:#000000;stroke-dasharray:1.5,2.475;stroke-dashoffset:0;stroke-width:1.5;"/>
   </g>
   <g id="patch_3">
    <path d="M 72 384.48 
L 72 51.84 
" style="fill:none;stroke:#000000;stroke-linecap:square;stroke-linejoin:miter;stroke-width:0.8;"/>
   </g>
   <g id="patch_4">
    <path d="M 518.4 384.48 
L 518.4 51.84 
" style="fill:none;stroke:#000000;stroke-linecap:square;stroke-linejoin:miter;stroke-width:0.8;"/>
   </g>
   <g id="patch_5">
    <path d="M 72 384.48 
L 518.4 384.48 
" style="fill:none;stroke:#000000;stroke-linecap:square;stroke-linejoin:miter;stroke-width:0.8;"/>
   </g>
   <g id="patch_6">
    <path d="M 72 51.84 
L 518.4 51.84 
" style="fill:none;stroke:#000000;stroke-linecap:square;stroke-linejoin:miter;stroke-width:0.8;"/>
   </g>
   <g id="text_21">
    <!-- Projected cumulative 1st and 2nd doses -->
    <g transform="translate(174.848437 45.84)scale(0.12 -0.12)">
     <defs>
      <path d="M 1259 4147 
L 1259 2394 
L 2053 2394 
Q 2494 2394 2734 2622 
Q 2975 2850 2975 3272 
Q 2975 3691 2734 3919 
Q 2494 4147 2053 4147 
L 1259 4147 
z
M 628 4666 
L 2053 4666 
Q 2838 4666 3239 4311 
Q 3641 3956 3641 3272 
Q 3641 2581 3239 2228 
Q 2838 1875 2053 1875 
L 1259 1875 
L 1259 0 
L 628 0 
L 628 4666 
z
" id="DejaVuSans-50" transform="scale(0.015625)"/>
      <path d="M 603 3500 
L 1178 3500 
L 1178 -63 
Q 1178 -731 923 -1031 
Q 669 -1331 103 -1331 
L -116 -1331 
L -116 -844 
L 38 -844 
Q 366 -844 484 -692 
Q 603 -541 603 -63 
L 603 3500 
z
M 603 4863 
L 1178 4863 
L 1178 4134 
L 603 4134 
L 603 4863 
z
" id="DejaVuSans-6a" transform="scale(0.015625)"/>
     </defs>
     <use xlink:href="#DejaVuSans-50"/>
     <use x="58.552734" xlink:href="#DejaVuSans-72"/>
     <use x="97.416016" xlink:href="#DejaVuSans-6f"/>
     <use x="158.597656" xlink:href="#DejaVuSans-6a"/>
     <use x="186.380859" xlink:href="#DejaVuSans-65"/>
     <use x="247.904297" xlink:href="#DejaVuSans-63"/>
     <use x="302.884766" xlink:href="#DejaVuSans-74"/>
     <use x="342.09375" xlink:href="#DejaVuSans-65"/>
     <use x="403.617188" xlink:href="#DejaVuSans-64"/>
     <use x="467.09375" xlink:href="#DejaVuSans-20"/>
     <use x="498.880859" xlink:href="#DejaVuSans-63"/>
     <use x="553.861328" xlink:href="#DejaVuSans-75"/>
     <use x="617.240234" xlink:href="#DejaVuSans-6d"/>
     <use x="714.652344" xlink:href="#DejaVuSans-75"/>
     <use x="778.03125" xlink:href="#DejaVuSans-6c"/>
     <use x="805.814453" xlink:href="#DejaVuSans-61"/>
     <use x="867.09375" xlink:href="#DejaVuSans-74"/>
     <use x="906.302734" xlink:href="#DejaVuSans-69"/>
     <use x="934.085938" xlink:href="#DejaVuSans-76"/>
     <use x="993.265625" xlink:href="#DejaVuSans-65"/>
     <use x="1054.789062" xlink:href="#DejaVuSans-20"/>
     <use x="1086.576172" xlink:href="#DejaVuSans-31"/>
     <use x="1150.199219" xlink:href="#DejaVuSans-73"/>
     <use x="1202.298828" xlink:href="#DejaVuSans-74"/>
     <use x="1241.507812" xlink:href="#DejaVuSans-20"/>
     <use x="1273.294922" xlink:href="#DejaVuSans-61"/>
     <use x="1334.574219" xlink:href="#DejaVuSans-6e"/>
     <use x="1397.953125" xlink:href="#DejaVuSans-64"/>
     <use x="1461.429688" xlink:href="#DejaVuSans-20"/>
     <use x="1493.216797" xlink:href="#DejaVuSans-32"/>
     <use x="1556.839844" xlink:href="#DejaVuSans-6e"/>
     <use x="1620.21875" xlink:href="#DejaVuSans-64"/>
     <use x="1683.695312" xlink:href="#DejaVuSans-20"/>
     <use x="1715.482422" xlink:href="#DejaVuSans-64"/>
     <use x="1778.958984" xlink:href="#DejaVuSans-6f"/>
     <use x="1840.140625" xlink:href="#DejaVuSans-73"/>
     <use x="1892.240234" xlink:href="#DejaVuSans-65"/>
     <use x="1953.763672" xlink:href="#DejaVuSans-73"/>
    </g>
   </g>
   <g id="legend_1">
    <g id="patch_7">
     <path d="M 77.831 131.865269 
L 186.136619 131.865269 
Q 187.802619 131.865269 187.802619 130.199269 
L 187.802619 57.671 
Q 187.802619 56.005 186.136619 56.005 
L 77.831 56.005 
Q 76.165 56.005 76.165 57.671 
L 76.165 130.199269 
Q 76.165 131.865269 77.831 131.865269 
z
" style="fill:#ffffff;opacity:0.8;stroke:#cccccc;stroke-linejoin:miter;"/>
    </g>
    <g id="line2d_42">
     <path d="M 79.497 62.750998 
L 96.157 62.750998 
" style="fill:none;stroke:#1f77b4;stroke-linecap:square;stroke-width:1.5;"/>
    </g>
    <g id="line2d_43"/>
    <g id="text_22">
     <!-- First doses -->
     <g transform="translate(102.821 65.666498)scale(0.0833 -0.0833)">
      <defs>
       <path d="M 628 4666 
L 3309 4666 
L 3309 4134 
L 1259 4134 
L 1259 2759 
L 3109 2759 
L 3109 2228 
L 1259 2228 
L 1259 0 
L 628 0 
L 628 4666 
z
" id="DejaVuSans-46" transform="scale(0.015625)"/>
      </defs>
      <use xlink:href="#DejaVuSans-46"/>
      <use x="50.269531" xlink:href="#DejaVuSans-69"/>
      <use x="78.052734" xlink:href="#DejaVuSans-72"/>
      <use x="119.166016" xlink:href="#DejaVuSans-73"/>
      <use x="171.265625" xlink:href="#DejaVuSans-74"/>
      <use x="210.474609" xlink:href="#DejaVuSans-20"/>
      <use x="242.261719" xlink:href="#DejaVuSans-64"/>
      <use x="305.738281" xlink:href="#DejaVuSans-6f"/>
      <use x="366.919922" xlink:href="#DejaVuSans-73"/>
      <use x="419.019531" xlink:href="#DejaVuSans-65"/>
      <use x="480.542969" xlink:href="#DejaVuSans-73"/>
     </g>
    </g>
    <g id="line2d_44">
     <path d="M 79.497 74.977877 
L 96.157 74.977877 
" style="fill:none;stroke:#ff7f0e;stroke-linecap:square;stroke-width:1.5;"/>
    </g>
    <g id="line2d_45"/>
    <g id="text_23">
     <!-- Second doses -->
     <g transform="translate(102.821 77.893377)scale(0.0833 -0.0833)">
      <use xlink:href="#DejaVuSans-53"/>
      <use x="63.476562" xlink:href="#DejaVuSans-65"/>
      <use x="125" xlink:href="#DejaVuSans-63"/>
      <use x="179.980469" xlink:href="#DejaVuSans-6f"/>
      <use x="241.162109" xlink:href="#DejaVuSans-6e"/>
      <use x="304.541016" xlink:href="#DejaVuSans-64"/>
      <use x="368.017578" xlink:href="#DejaVuSans-20"/>
      <use x="399.804688" xlink:href="#DejaVuSans-64"/>
      <use x="463.28125" xlink:href="#DejaVuSans-6f"/>
      <use x="524.462891" xlink:href="#DejaVuSans-73"/>
      <use x="576.5625" xlink:href="#DejaVuSans-65"/>
      <use x="638.085938" xlink:href="#DejaVuSans-73"/>
     </g>
    </g>
    <g id="patch_8">
     <path d="M 79.497 90.120255 
L 96.157 90.120255 
L 96.157 84.289255 
L 79.497 84.289255 
z
" style="fill:#ff0000;opacity:0.35;"/>
    </g>
    <g id="text_24">
     <!-- Phase 1a -->
     <g transform="translate(102.821 90.120255)scale(0.0833 -0.0833)">
      <defs>
       <path d="M 3513 2113 
L 3513 0 
L 2938 0 
L 2938 2094 
Q 2938 2591 2744 2837 
Q 2550 3084 2163 3084 
Q 1697 3084 1428 2787 
Q 1159 2491 1159 1978 
L 1159 0 
L 581 0 
L 581 4863 
L 1159 4863 
L 1159 2956 
Q 1366 3272 1645 3428 
Q 1925 3584 2291 3584 
Q 2894 3584 3203 3211 
Q 3513 2838 3513 2113 
z
" id="DejaVuSans-68" transform="scale(0.015625)"/>
      </defs>
      <use xlink:href="#DejaVuSans-50"/>
      <use x="60.302734" xlink:href="#DejaVuSans-68"/>
      <use x="123.681641" xlink:href="#DejaVuSans-61"/>
      <use x="184.960938" xlink:href="#DejaVuSans-73"/>
      <use x="237.060547" xlink:href="#DejaVuSans-65"/>
      <use x="298.583984" xlink:href="#DejaVuSans-20"/>
      <use x="330.371094" xlink:href="#DejaVuSans-31"/>
      <use x="393.994141" xlink:href="#DejaVuSans-61"/>
     </g>
    </g>
    <g id="patch_9">
     <path d="M 79.497 102.347133 
L 96.157 102.347133 
L 96.157 96.516133 
L 79.497 96.516133 
z
" style="fill:#ffa500;opacity:0.35;"/>
    </g>
    <g id="text_25">
     <!-- Phase 1b -->
     <g transform="translate(102.821 102.347133)scale(0.0833 -0.0833)">
      <defs>
       <path d="M 3116 1747 
Q 3116 2381 2855 2742 
Q 2594 3103 2138 3103 
Q 1681 3103 1420 2742 
Q 1159 2381 1159 1747 
Q 1159 1113 1420 752 
Q 1681 391 2138 391 
Q 2594 391 2855 752 
Q 3116 1113 3116 1747 
z
M 1159 2969 
Q 1341 3281 1617 3432 
Q 1894 3584 2278 3584 
Q 2916 3584 3314 3078 
Q 3713 2572 3713 1747 
Q 3713 922 3314 415 
Q 2916 -91 2278 -91 
Q 1894 -91 1617 61 
Q 1341 213 1159 525 
L 1159 0 
L 581 0 
L 581 4863 
L 1159 4863 
L 1159 2969 
z
" id="DejaVuSans-62" transform="scale(0.015625)"/>
      </defs>
      <use xlink:href="#DejaVuSans-50"/>
      <use x="60.302734" xlink:href="#DejaVuSans-68"/>
      <use x="123.681641" xlink:href="#DejaVuSans-61"/>
      <use x="184.960938" xlink:href="#DejaVuSans-73"/>
      <use x="237.060547" xlink:href="#DejaVuSans-65"/>
      <use x="298.583984" xlink:href="#DejaVuSans-20"/>
      <use x="330.371094" xlink:href="#DejaVuSans-31"/>
      <use x="393.994141" xlink:href="#DejaVuSans-62"/>
     </g>
    </g>
    <g id="patch_10">
     <path d="M 79.497 114.574011 
L 96.157 114.574011 
L 96.157 108.743011 
L 79.497 108.743011 
z
" style="fill:#ffff00;opacity:0.35;"/>
    </g>
    <g id="text_26">
     <!-- Phase 2a -->
     <g transform="translate(102.821 114.574011)scale(0.0833 -0.0833)">
      <use xlink:href="#DejaVuSans-50"/>
      <use x="60.302734" xlink:href="#DejaVuSans-68"/>
      <use x="123.681641" xlink:href="#DejaVuSans-61"/>
      <use x="184.960938" xlink:href="#DejaVuSans-73"/>
      <use x="237.060547" xlink:href="#DejaVuSans-65"/>
      <use x="298.583984" xlink:href="#DejaVuSans-20"/>
      <use x="330.371094" xlink:href="#DejaVuSans-32"/>
      <use x="393.994141" xlink:href="#DejaVuSans-61"/>
     </g>
    </g>
    <g id="line2d_46">
     <path d="M 79.497 123.885389 
L 96.157 123.885389 
" style="fill:none;stroke:#000000;stroke-dasharray:1.5,2.475;stroke-dashoffset:0;stroke-width:1.5;"/>
    </g>
    <g id="line2d_47"/>
    <g id="text_27">
     <!-- Today (2021-06-07) -->
     <g transform="translate(102.821 126.800889)scale(0.0833 -0.0833)">
      <defs>
       <path d="M -19 4666 
L 3928 4666 
L 3928 4134 
L 2272 4134 
L 2272 0 
L 1638 0 
L 1638 4134 
L -19 4134 
L -19 4666 
z
" id="DejaVuSans-54" transform="scale(0.015625)"/>
       <path d="M 313 2009 
L 1997 2009 
L 1997 1497 
L 313 1497 
L 313 2009 
z
" id="DejaVuSans-2d" transform="scale(0.015625)"/>
       <path d="M 2113 2584 
Q 1688 2584 1439 2293 
Q 1191 2003 1191 1497 
Q 1191 994 1439 701 
Q 1688 409 2113 409 
Q 2538 409 2786 701 
Q 3034 994 3034 1497 
Q 3034 2003 2786 2293 
Q 2538 2584 2113 2584 
z
M 3366 4563 
L 3366 3988 
Q 3128 4100 2886 4159 
Q 2644 4219 2406 4219 
Q 1781 4219 1451 3797 
Q 1122 3375 1075 2522 
Q 1259 2794 1537 2939 
Q 1816 3084 2150 3084 
Q 2853 3084 3261 2657 
Q 3669 2231 3669 1497 
Q 3669 778 3244 343 
Q 2819 -91 2113 -91 
Q 1303 -91 875 529 
Q 447 1150 447 2328 
Q 447 3434 972 4092 
Q 1497 4750 2381 4750 
Q 2619 4750 2861 4703 
Q 3103 4656 3366 4563 
z
" id="DejaVuSans-36" transform="scale(0.015625)"/>
      </defs>
      <use xlink:href="#DejaVuSans-54"/>
      <use x="44.083984" xlink:href="#DejaVuSans-6f"/>
      <use x="105.265625" xlink:href="#DejaVuSans-64"/>
      <use x="168.742188" xlink:href="#DejaVuSans-61"/>
      <use x="230.021484" xlink:href="#DejaVuSans-79"/>
      <use x="289.201172" xlink:href="#DejaVuSans-20"/>
      <use x="320.988281" xlink:href="#DejaVuSans-28"/>
      <use x="360.001953" xlink:href="#DejaVuSans-32"/>
      <use x="423.625" xlink:href="#DejaVuSans-30"/>
      <use x="487.248047" xlink:href="#DejaVuSans-32"/>
      <use x="550.871094" xlink:href="#DejaVuSans-31"/>
      <use x="614.494141" xlink:href="#DejaVuSans-2d"/>
      <use x="650.578125" xlink:href="#DejaVuSans-30"/>
      <use x="714.201172" xlink:href="#DejaVuSans-36"/>
      <use x="777.824219" xlink:href="#DejaVuSans-2d"/>
      <use x="813.908203" xlink:href="#DejaVuSans-30"/>
      <use x="877.53125" xlink:href="#DejaVuSans-37"/>
      <use x="941.154297" xlink:href="#DejaVuSans-29"/>
     </g>
    </g>
   </g>
  </g>
 </g>
 <defs>
  <clipPath id="p3424ec7323">
   <rect height="332.64" width="446.4" x="72" y="51.84"/>
  </clipPath>
 </defs>
</svg>
