<?xml version="1.0" encoding="utf-8" standalone="no"?>
<!DOCTYPE svg PUBLIC "-//W3C//DTD SVG 1.1//EN"
  "http://www.w3.org/Graphics/SVG/1.1/DTD/svg11.dtd">
<svg height="432pt" version="1.1" viewBox="0 0 576 432" width="576pt" xmlns="http://www.w3.org/2000/svg" xmlns:xlink="http://www.w3.org/1999/xlink">
 <metadata>
  <rdf:RDF xmlns:cc="http://creativecommons.org/ns#" xmlns:dc="http://purl.org/dc/elements/1.1/" xmlns:rdf="http://www.w3.org/1999/02/22-rdf-syntax-ns#">
   <cc:Work>
    <dc:type rdf:resource="http://purl.org/dc/dcmitype/StillImage"/>
    <dc:date>2021-07-26T17:19:35.407632</dc:date>
    <dc:format>image/svg+xml</dc:format>
    <dc:creator>
     <cc:Agent>
      <dc:title>Matplotlib v3.4.2, https://matplotlib.org/</dc:title>
     </cc:Agent>
    </dc:creator>
   </cc:Work>
  </rdf:RDF>
 </metadata>
 <defs>
  <style type="text/css">*{stroke-linecap:butt;stroke-linejoin:round;}</style>
 </defs>
 <g id="figure_1">
  <g id="patch_1">
   <path d="M 0 432 
L 576 432 
L 576 0 
L 0 0 
z
" style="fill:#ffffff;"/>
  </g>
  <g id="axes_1">
   <g id="patch_2">
    <path d="M 72 384.48 
L 518.4 384.48 
L 518.4 51.84 
L 72 51.84 
z
" style="fill:#ffffff;"/>
   </g>
   <g id="PolyCollection_1">
    <defs>
     <path d="M 108.440816 -47.52 
L 70.698542 -47.52 
L 70.698542 -380.16 
L 108.440816 -380.16 
L 108.440816 -380.16 
L 108.440816 -47.52 
z
" id="m36908addf6"/>
    </defs>
    <g clip-path="url(#pc7f18d2026)">
     <use style="fill:#ff0000;fill-opacity:0.35;" x="0" xlink:href="#m36908addf6" y="432"/>
    </g>
   </g>
   <g id="PolyCollection_2">
    <defs>
     <path d="M 163.102041 -47.52 
L 108.440816 -47.52 
L 108.440816 -380.16 
L 163.102041 -380.16 
L 163.102041 -380.16 
L 163.102041 -47.52 
z
" id="m7924189562"/>
    </defs>
    <g clip-path="url(#pc7f18d2026)">
     <use style="fill:#ffa500;fill-opacity:0.35;" x="0" xlink:href="#m7924189562" y="432"/>
    </g>
   </g>
   <g id="PolyCollection_3">
    <defs>
     <path d="M 297.152187 -47.52 
L 163.102041 -47.52 
L 163.102041 -380.16 
L 297.152187 -380.16 
L 297.152187 -380.16 
L 297.152187 -47.52 
z
" id="mfc3d800a71"/>
    </defs>
    <g clip-path="url(#pc7f18d2026)">
     <use style="fill:#ffff00;fill-opacity:0.35;" x="0" xlink:href="#mfc3d800a71" y="432"/>
    </g>
   </g>
   <g id="PolyCollection_4">
    <defs>
     <path d="M 298.453644 -47.52 
L 297.152187 -47.52 
L 297.152187 -380.16 
L 298.453644 -380.16 
L 298.453644 -380.16 
L 298.453644 -47.52 
z
" id="m761307af55"/>
    </defs>
    <g clip-path="url(#pc7f18d2026)">
     <use style="fill:#ffff00;fill-opacity:0.3;" x="0" xlink:href="#m761307af55" y="432"/>
    </g>
   </g>
   <g id="PolyCollection_5">
    <defs>
     <path d="M 299.755102 -47.52 
L 298.453644 -47.52 
L 298.453644 -380.16 
L 299.755102 -380.16 
L 299.755102 -380.16 
L 299.755102 -47.52 
z
" id="m48fcd61187"/>
    </defs>
    <g clip-path="url(#pc7f18d2026)">
     <use style="fill:#ffff00;fill-opacity:0.27;" x="0" xlink:href="#m48fcd61187" y="432"/>
    </g>
   </g>
   <g id="PolyCollection_6">
    <defs>
     <path d="M 301.05656 -47.52 
L 299.755102 -47.52 
L 299.755102 -380.16 
L 301.05656 -380.16 
L 301.05656 -380.16 
L 301.05656 -47.52 
z
" id="m82a5de2d8d"/>
    </defs>
    <g clip-path="url(#pc7f18d2026)">
     <use style="fill:#ffff00;fill-opacity:0.24;" x="0" xlink:href="#m82a5de2d8d" y="432"/>
    </g>
   </g>
   <g id="PolyCollection_7">
    <defs>
     <path d="M 302.358017 -47.52 
L 301.05656 -47.52 
L 301.05656 -380.16 
L 302.358017 -380.16 
L 302.358017 -380.16 
L 302.358017 -47.52 
z
" id="m614c7169cd"/>
    </defs>
    <g clip-path="url(#pc7f18d2026)">
     <use style="fill:#ffff00;fill-opacity:0.21;" x="0" xlink:href="#m614c7169cd" y="432"/>
    </g>
   </g>
   <g id="PolyCollection_8">
    <defs>
     <path d="M 303.659475 -47.52 
L 302.358017 -47.52 
L 302.358017 -380.16 
L 303.659475 -380.16 
L 303.659475 -380.16 
L 303.659475 -47.52 
z
" id="m94392337d2"/>
    </defs>
    <g clip-path="url(#pc7f18d2026)">
     <use style="fill:#ffff00;fill-opacity:0.18;" x="0" xlink:href="#m94392337d2" y="432"/>
    </g>
   </g>
   <g id="PolyCollection_9">
    <defs>
     <path d="M 304.960933 -47.52 
L 303.659475 -47.52 
L 303.659475 -380.16 
L 304.960933 -380.16 
L 304.960933 -380.16 
L 304.960933 -47.52 
z
" id="m245366b762"/>
    </defs>
    <g clip-path="url(#pc7f18d2026)">
     <use style="fill:#ffff00;fill-opacity:0.15;" x="0" xlink:href="#m245366b762" y="432"/>
    </g>
   </g>
   <g id="PolyCollection_10">
    <defs>
     <path d="M 306.262391 -47.52 
L 304.960933 -47.52 
L 304.960933 -380.16 
L 306.262391 -380.16 
L 306.262391 -380.16 
L 306.262391 -47.52 
z
" id="ma10f6b8b1d"/>
    </defs>
    <g clip-path="url(#pc7f18d2026)">
     <use style="fill:#ffff00;fill-opacity:0.12;" x="0" xlink:href="#ma10f6b8b1d" y="432"/>
    </g>
   </g>
   <g id="PolyCollection_11">
    <defs>
     <path d="M 307.563848 -47.52 
L 306.262391 -47.52 
L 306.262391 -380.16 
L 307.563848 -380.16 
L 307.563848 -380.16 
L 307.563848 -47.52 
z
" id="m47b74a14d5"/>
    </defs>
    <g clip-path="url(#pc7f18d2026)">
     <use style="fill:#ffff00;fill-opacity:0.09;" x="0" xlink:href="#m47b74a14d5" y="432"/>
    </g>
   </g>
   <g id="PolyCollection_12">
    <defs>
     <path d="M 308.865306 -47.52 
L 307.563848 -47.52 
L 307.563848 -380.16 
L 308.865306 -380.16 
L 308.865306 -380.16 
L 308.865306 -47.52 
z
" id="m9f073ee03e"/>
    </defs>
    <g clip-path="url(#pc7f18d2026)">
     <use style="fill:#ffff00;fill-opacity:0.06;" x="0" xlink:href="#m9f073ee03e" y="432"/>
    </g>
   </g>
   <g id="PolyCollection_13">
    <defs>
     <path d="M 310.166764 -47.52 
L 308.865306 -47.52 
L 308.865306 -380.16 
L 310.166764 -380.16 
L 310.166764 -380.16 
L 310.166764 -47.52 
z
" id="mdf5549148a"/>
    </defs>
    <g clip-path="url(#pc7f18d2026)">
     <use style="fill:#ffff00;fill-opacity:0.03;" x="0" xlink:href="#mdf5549148a" y="432"/>
    </g>
   </g>
   <g id="matplotlib.axis_1">
    <g id="xtick_1">
     <g id="line2d_1">
      <path clip-path="url(#pc7f18d2026)" d="M 81.110204 384.48 
L 81.110204 51.84 
" style="fill:none;stroke:#000000;stroke-dasharray:0.8,1.32;stroke-dashoffset:0;stroke-width:0.8;"/>
     </g>
     <g id="line2d_2">
      <defs>
       <path d="M 0 0 
L 0 3.5 
" id="m15d86d6906" style="stroke:#000000;stroke-width:0.8;"/>
      </defs>
      <g>
       <use style="stroke:#000000;stroke-width:0.8;" x="81.110204" xlink:href="#m15d86d6906" y="384.48"/>
      </g>
     </g>
     <g id="text_1">
      <!-- Mar -->
      <g transform="translate(71.67661 399.078438)scale(0.1 -0.1)">
       <defs>
        <path d="M 628 4666 
L 1569 4666 
L 2759 1491 
L 3956 4666 
L 4897 4666 
L 4897 0 
L 4281 0 
L 4281 4097 
L 3078 897 
L 2444 897 
L 1241 4097 
L 1241 0 
L 628 0 
L 628 4666 
z
" id="DejaVuSans-4d" transform="scale(0.015625)"/>
        <path d="M 2194 1759 
Q 1497 1759 1228 1600 
Q 959 1441 959 1056 
Q 959 750 1161 570 
Q 1363 391 1709 391 
Q 2188 391 2477 730 
Q 2766 1069 2766 1631 
L 2766 1759 
L 2194 1759 
z
M 3341 1997 
L 3341 0 
L 2766 0 
L 2766 531 
Q 2569 213 2275 61 
Q 1981 -91 1556 -91 
Q 1019 -91 701 211 
Q 384 513 384 1019 
Q 384 1609 779 1909 
Q 1175 2209 1959 2209 
L 2766 2209 
L 2766 2266 
Q 2766 2663 2505 2880 
Q 2244 3097 1772 3097 
Q 1472 3097 1187 3025 
Q 903 2953 641 2809 
L 641 3341 
Q 956 3463 1253 3523 
Q 1550 3584 1831 3584 
Q 2591 3584 2966 3190 
Q 3341 2797 3341 1997 
z
" id="DejaVuSans-61" transform="scale(0.015625)"/>
        <path d="M 2631 2963 
Q 2534 3019 2420 3045 
Q 2306 3072 2169 3072 
Q 1681 3072 1420 2755 
Q 1159 2438 1159 1844 
L 1159 0 
L 581 0 
L 581 3500 
L 1159 3500 
L 1159 2956 
Q 1341 3275 1631 3429 
Q 1922 3584 2338 3584 
Q 2397 3584 2469 3576 
Q 2541 3569 2628 3553 
L 2631 2963 
z
" id="DejaVuSans-72" transform="scale(0.015625)"/>
       </defs>
       <use xlink:href="#DejaVuSans-4d"/>
       <use x="86.279297" xlink:href="#DejaVuSans-61"/>
       <use x="147.558594" xlink:href="#DejaVuSans-72"/>
      </g>
     </g>
    </g>
    <g id="xtick_2">
     <g id="line2d_3">
      <path clip-path="url(#pc7f18d2026)" d="M 121.455394 384.48 
L 121.455394 51.84 
" style="fill:none;stroke:#000000;stroke-dasharray:0.8,1.32;stroke-dashoffset:0;stroke-width:0.8;"/>
     </g>
     <g id="line2d_4">
      <g>
       <use style="stroke:#000000;stroke-width:0.8;" x="121.455394" xlink:href="#m15d86d6906" y="384.48"/>
      </g>
     </g>
     <g id="text_2">
      <!-- Apr -->
      <g transform="translate(112.805394 399.078438)scale(0.1 -0.1)">
       <defs>
        <path d="M 2188 4044 
L 1331 1722 
L 3047 1722 
L 2188 4044 
z
M 1831 4666 
L 2547 4666 
L 4325 0 
L 3669 0 
L 3244 1197 
L 1141 1197 
L 716 0 
L 50 0 
L 1831 4666 
z
" id="DejaVuSans-41" transform="scale(0.015625)"/>
        <path d="M 1159 525 
L 1159 -1331 
L 581 -1331 
L 581 3500 
L 1159 3500 
L 1159 2969 
Q 1341 3281 1617 3432 
Q 1894 3584 2278 3584 
Q 2916 3584 3314 3078 
Q 3713 2572 3713 1747 
Q 3713 922 3314 415 
Q 2916 -91 2278 -91 
Q 1894 -91 1617 61 
Q 1341 213 1159 525 
z
M 3116 1747 
Q 3116 2381 2855 2742 
Q 2594 3103 2138 3103 
Q 1681 3103 1420 2742 
Q 1159 2381 1159 1747 
Q 1159 1113 1420 752 
Q 1681 391 2138 391 
Q 2594 391 2855 752 
Q 3116 1113 3116 1747 
z
" id="DejaVuSans-70" transform="scale(0.015625)"/>
       </defs>
       <use xlink:href="#DejaVuSans-41"/>
       <use x="68.408203" xlink:href="#DejaVuSans-70"/>
       <use x="131.884766" xlink:href="#DejaVuSans-72"/>
      </g>
     </g>
    </g>
    <g id="xtick_3">
     <g id="line2d_5">
      <path clip-path="url(#pc7f18d2026)" d="M 160.499125 384.48 
L 160.499125 51.84 
" style="fill:none;stroke:#000000;stroke-dasharray:0.8,1.32;stroke-dashoffset:0;stroke-width:0.8;"/>
     </g>
     <g id="line2d_6">
      <g>
       <use style="stroke:#000000;stroke-width:0.8;" x="160.499125" xlink:href="#m15d86d6906" y="384.48"/>
      </g>
     </g>
     <g id="text_3">
      <!-- May -->
      <g transform="translate(150.161625 399.078438)scale(0.1 -0.1)">
       <defs>
        <path d="M 2059 -325 
Q 1816 -950 1584 -1140 
Q 1353 -1331 966 -1331 
L 506 -1331 
L 506 -850 
L 844 -850 
Q 1081 -850 1212 -737 
Q 1344 -625 1503 -206 
L 1606 56 
L 191 3500 
L 800 3500 
L 1894 763 
L 2988 3500 
L 3597 3500 
L 2059 -325 
z
" id="DejaVuSans-79" transform="scale(0.015625)"/>
       </defs>
       <use xlink:href="#DejaVuSans-4d"/>
       <use x="86.279297" xlink:href="#DejaVuSans-61"/>
       <use x="147.558594" xlink:href="#DejaVuSans-79"/>
      </g>
     </g>
    </g>
    <g id="xtick_4">
     <g id="line2d_7">
      <path clip-path="url(#pc7f18d2026)" d="M 200.844315 384.48 
L 200.844315 51.84 
" style="fill:none;stroke:#000000;stroke-dasharray:0.8,1.32;stroke-dashoffset:0;stroke-width:0.8;"/>
     </g>
     <g id="line2d_8">
      <g>
       <use style="stroke:#000000;stroke-width:0.8;" x="200.844315" xlink:href="#m15d86d6906" y="384.48"/>
      </g>
     </g>
     <g id="text_4">
      <!-- Jun -->
      <g transform="translate(193.031815 399.078438)scale(0.1 -0.1)">
       <defs>
        <path d="M 628 4666 
L 1259 4666 
L 1259 325 
Q 1259 -519 939 -900 
Q 619 -1281 -91 -1281 
L -331 -1281 
L -331 -750 
L -134 -750 
Q 284 -750 456 -515 
Q 628 -281 628 325 
L 628 4666 
z
" id="DejaVuSans-4a" transform="scale(0.015625)"/>
        <path d="M 544 1381 
L 544 3500 
L 1119 3500 
L 1119 1403 
Q 1119 906 1312 657 
Q 1506 409 1894 409 
Q 2359 409 2629 706 
Q 2900 1003 2900 1516 
L 2900 3500 
L 3475 3500 
L 3475 0 
L 2900 0 
L 2900 538 
Q 2691 219 2414 64 
Q 2138 -91 1772 -91 
Q 1169 -91 856 284 
Q 544 659 544 1381 
z
M 1991 3584 
L 1991 3584 
z
" id="DejaVuSans-75" transform="scale(0.015625)"/>
        <path d="M 3513 2113 
L 3513 0 
L 2938 0 
L 2938 2094 
Q 2938 2591 2744 2837 
Q 2550 3084 2163 3084 
Q 1697 3084 1428 2787 
Q 1159 2491 1159 1978 
L 1159 0 
L 581 0 
L 581 3500 
L 1159 3500 
L 1159 2956 
Q 1366 3272 1645 3428 
Q 1925 3584 2291 3584 
Q 2894 3584 3203 3211 
Q 3513 2838 3513 2113 
z
" id="DejaVuSans-6e" transform="scale(0.015625)"/>
       </defs>
       <use xlink:href="#DejaVuSans-4a"/>
       <use x="29.492188" xlink:href="#DejaVuSans-75"/>
       <use x="92.871094" xlink:href="#DejaVuSans-6e"/>
      </g>
     </g>
    </g>
    <g id="xtick_5">
     <g id="line2d_9">
      <path clip-path="url(#pc7f18d2026)" d="M 239.888047 384.48 
L 239.888047 51.84 
" style="fill:none;stroke:#000000;stroke-dasharray:0.8,1.32;stroke-dashoffset:0;stroke-width:0.8;"/>
     </g>
     <g id="line2d_10">
      <g>
       <use style="stroke:#000000;stroke-width:0.8;" x="239.888047" xlink:href="#m15d86d6906" y="384.48"/>
      </g>
     </g>
     <g id="text_5">
      <!-- Jul -->
      <g transform="translate(233.855234 399.078438)scale(0.1 -0.1)">
       <defs>
        <path d="M 603 4863 
L 1178 4863 
L 1178 0 
L 603 0 
L 603 4863 
z
" id="DejaVuSans-6c" transform="scale(0.015625)"/>
       </defs>
       <use xlink:href="#DejaVuSans-4a"/>
       <use x="29.492188" xlink:href="#DejaVuSans-75"/>
       <use x="92.871094" xlink:href="#DejaVuSans-6c"/>
      </g>
     </g>
    </g>
    <g id="xtick_6">
     <g id="line2d_11">
      <path clip-path="url(#pc7f18d2026)" d="M 280.233236 384.48 
L 280.233236 51.84 
" style="fill:none;stroke:#000000;stroke-dasharray:0.8,1.32;stroke-dashoffset:0;stroke-width:0.8;"/>
     </g>
     <g id="line2d_12">
      <g>
       <use style="stroke:#000000;stroke-width:0.8;" x="280.233236" xlink:href="#m15d86d6906" y="384.48"/>
      </g>
     </g>
     <g id="text_6">
      <!-- Aug -->
      <g transform="translate(270.469955 399.078438)scale(0.1 -0.1)">
       <defs>
        <path d="M 2906 1791 
Q 2906 2416 2648 2759 
Q 2391 3103 1925 3103 
Q 1463 3103 1205 2759 
Q 947 2416 947 1791 
Q 947 1169 1205 825 
Q 1463 481 1925 481 
Q 2391 481 2648 825 
Q 2906 1169 2906 1791 
z
M 3481 434 
Q 3481 -459 3084 -895 
Q 2688 -1331 1869 -1331 
Q 1566 -1331 1297 -1286 
Q 1028 -1241 775 -1147 
L 775 -588 
Q 1028 -725 1275 -790 
Q 1522 -856 1778 -856 
Q 2344 -856 2625 -561 
Q 2906 -266 2906 331 
L 2906 616 
Q 2728 306 2450 153 
Q 2172 0 1784 0 
Q 1141 0 747 490 
Q 353 981 353 1791 
Q 353 2603 747 3093 
Q 1141 3584 1784 3584 
Q 2172 3584 2450 3431 
Q 2728 3278 2906 2969 
L 2906 3500 
L 3481 3500 
L 3481 434 
z
" id="DejaVuSans-67" transform="scale(0.015625)"/>
       </defs>
       <use xlink:href="#DejaVuSans-41"/>
       <use x="68.408203" xlink:href="#DejaVuSans-75"/>
       <use x="131.787109" xlink:href="#DejaVuSans-67"/>
      </g>
     </g>
    </g>
    <g id="xtick_7">
     <g id="line2d_13">
      <path clip-path="url(#pc7f18d2026)" d="M 320.578426 384.48 
L 320.578426 51.84 
" style="fill:none;stroke:#000000;stroke-dasharray:0.8,1.32;stroke-dashoffset:0;stroke-width:0.8;"/>
     </g>
     <g id="line2d_14">
      <g>
       <use style="stroke:#000000;stroke-width:0.8;" x="320.578426" xlink:href="#m15d86d6906" y="384.48"/>
      </g>
     </g>
     <g id="text_7">
      <!-- Sep -->
      <g transform="translate(311.153426 399.078438)scale(0.1 -0.1)">
       <defs>
        <path d="M 3425 4513 
L 3425 3897 
Q 3066 4069 2747 4153 
Q 2428 4238 2131 4238 
Q 1616 4238 1336 4038 
Q 1056 3838 1056 3469 
Q 1056 3159 1242 3001 
Q 1428 2844 1947 2747 
L 2328 2669 
Q 3034 2534 3370 2195 
Q 3706 1856 3706 1288 
Q 3706 609 3251 259 
Q 2797 -91 1919 -91 
Q 1588 -91 1214 -16 
Q 841 59 441 206 
L 441 856 
Q 825 641 1194 531 
Q 1563 422 1919 422 
Q 2459 422 2753 634 
Q 3047 847 3047 1241 
Q 3047 1584 2836 1778 
Q 2625 1972 2144 2069 
L 1759 2144 
Q 1053 2284 737 2584 
Q 422 2884 422 3419 
Q 422 4038 858 4394 
Q 1294 4750 2059 4750 
Q 2388 4750 2728 4690 
Q 3069 4631 3425 4513 
z
" id="DejaVuSans-53" transform="scale(0.015625)"/>
        <path d="M 3597 1894 
L 3597 1613 
L 953 1613 
Q 991 1019 1311 708 
Q 1631 397 2203 397 
Q 2534 397 2845 478 
Q 3156 559 3463 722 
L 3463 178 
Q 3153 47 2828 -22 
Q 2503 -91 2169 -91 
Q 1331 -91 842 396 
Q 353 884 353 1716 
Q 353 2575 817 3079 
Q 1281 3584 2069 3584 
Q 2775 3584 3186 3129 
Q 3597 2675 3597 1894 
z
M 3022 2063 
Q 3016 2534 2758 2815 
Q 2500 3097 2075 3097 
Q 1594 3097 1305 2825 
Q 1016 2553 972 2059 
L 3022 2063 
z
" id="DejaVuSans-65" transform="scale(0.015625)"/>
       </defs>
       <use xlink:href="#DejaVuSans-53"/>
       <use x="63.476562" xlink:href="#DejaVuSans-65"/>
       <use x="125" xlink:href="#DejaVuSans-70"/>
      </g>
     </g>
    </g>
    <g id="xtick_8">
     <g id="line2d_15">
      <path clip-path="url(#pc7f18d2026)" d="M 359.622157 384.48 
L 359.622157 51.84 
" style="fill:none;stroke:#000000;stroke-dasharray:0.8,1.32;stroke-dashoffset:0;stroke-width:0.8;"/>
     </g>
     <g id="line2d_16">
      <g>
       <use style="stroke:#000000;stroke-width:0.8;" x="359.622157" xlink:href="#m15d86d6906" y="384.48"/>
      </g>
     </g>
     <g id="text_8">
      <!-- Oct -->
      <g transform="translate(350.976845 399.078438)scale(0.1 -0.1)">
       <defs>
        <path d="M 2522 4238 
Q 1834 4238 1429 3725 
Q 1025 3213 1025 2328 
Q 1025 1447 1429 934 
Q 1834 422 2522 422 
Q 3209 422 3611 934 
Q 4013 1447 4013 2328 
Q 4013 3213 3611 3725 
Q 3209 4238 2522 4238 
z
M 2522 4750 
Q 3503 4750 4090 4092 
Q 4678 3434 4678 2328 
Q 4678 1225 4090 567 
Q 3503 -91 2522 -91 
Q 1538 -91 948 565 
Q 359 1222 359 2328 
Q 359 3434 948 4092 
Q 1538 4750 2522 4750 
z
" id="DejaVuSans-4f" transform="scale(0.015625)"/>
        <path d="M 3122 3366 
L 3122 2828 
Q 2878 2963 2633 3030 
Q 2388 3097 2138 3097 
Q 1578 3097 1268 2742 
Q 959 2388 959 1747 
Q 959 1106 1268 751 
Q 1578 397 2138 397 
Q 2388 397 2633 464 
Q 2878 531 3122 666 
L 3122 134 
Q 2881 22 2623 -34 
Q 2366 -91 2075 -91 
Q 1284 -91 818 406 
Q 353 903 353 1747 
Q 353 2603 823 3093 
Q 1294 3584 2113 3584 
Q 2378 3584 2631 3529 
Q 2884 3475 3122 3366 
z
" id="DejaVuSans-63" transform="scale(0.015625)"/>
        <path d="M 1172 4494 
L 1172 3500 
L 2356 3500 
L 2356 3053 
L 1172 3053 
L 1172 1153 
Q 1172 725 1289 603 
Q 1406 481 1766 481 
L 2356 481 
L 2356 0 
L 1766 0 
Q 1100 0 847 248 
Q 594 497 594 1153 
L 594 3053 
L 172 3053 
L 172 3500 
L 594 3500 
L 594 4494 
L 1172 4494 
z
" id="DejaVuSans-74" transform="scale(0.015625)"/>
       </defs>
       <use xlink:href="#DejaVuSans-4f"/>
       <use x="78.710938" xlink:href="#DejaVuSans-63"/>
       <use x="133.691406" xlink:href="#DejaVuSans-74"/>
      </g>
     </g>
    </g>
    <g id="xtick_9">
     <g id="line2d_17">
      <path clip-path="url(#pc7f18d2026)" d="M 399.967347 384.48 
L 399.967347 51.84 
" style="fill:none;stroke:#000000;stroke-dasharray:0.8,1.32;stroke-dashoffset:0;stroke-width:0.8;"/>
     </g>
     <g id="line2d_18">
      <g>
       <use style="stroke:#000000;stroke-width:0.8;" x="399.967347" xlink:href="#m15d86d6906" y="384.48"/>
      </g>
     </g>
     <g id="text_9">
      <!-- Nov -->
      <g transform="translate(390.207972 399.078438)scale(0.1 -0.1)">
       <defs>
        <path d="M 628 4666 
L 1478 4666 
L 3547 763 
L 3547 4666 
L 4159 4666 
L 4159 0 
L 3309 0 
L 1241 3903 
L 1241 0 
L 628 0 
L 628 4666 
z
" id="DejaVuSans-4e" transform="scale(0.015625)"/>
        <path d="M 1959 3097 
Q 1497 3097 1228 2736 
Q 959 2375 959 1747 
Q 959 1119 1226 758 
Q 1494 397 1959 397 
Q 2419 397 2687 759 
Q 2956 1122 2956 1747 
Q 2956 2369 2687 2733 
Q 2419 3097 1959 3097 
z
M 1959 3584 
Q 2709 3584 3137 3096 
Q 3566 2609 3566 1747 
Q 3566 888 3137 398 
Q 2709 -91 1959 -91 
Q 1206 -91 779 398 
Q 353 888 353 1747 
Q 353 2609 779 3096 
Q 1206 3584 1959 3584 
z
" id="DejaVuSans-6f" transform="scale(0.015625)"/>
        <path d="M 191 3500 
L 800 3500 
L 1894 563 
L 2988 3500 
L 3597 3500 
L 2284 0 
L 1503 0 
L 191 3500 
z
" id="DejaVuSans-76" transform="scale(0.015625)"/>
       </defs>
       <use xlink:href="#DejaVuSans-4e"/>
       <use x="74.804688" xlink:href="#DejaVuSans-6f"/>
       <use x="135.986328" xlink:href="#DejaVuSans-76"/>
      </g>
     </g>
    </g>
    <g id="xtick_10">
     <g id="line2d_19">
      <path clip-path="url(#pc7f18d2026)" d="M 439.011079 384.48 
L 439.011079 51.84 
" style="fill:none;stroke:#000000;stroke-dasharray:0.8,1.32;stroke-dashoffset:0;stroke-width:0.8;"/>
     </g>
     <g id="line2d_20">
      <g>
       <use style="stroke:#000000;stroke-width:0.8;" x="439.011079" xlink:href="#m15d86d6906" y="384.48"/>
      </g>
     </g>
     <g id="text_10">
      <!-- Dec -->
      <g transform="translate(429.335297 399.078438)scale(0.1 -0.1)">
       <defs>
        <path d="M 1259 4147 
L 1259 519 
L 2022 519 
Q 2988 519 3436 956 
Q 3884 1394 3884 2338 
Q 3884 3275 3436 3711 
Q 2988 4147 2022 4147 
L 1259 4147 
z
M 628 4666 
L 1925 4666 
Q 3281 4666 3915 4102 
Q 4550 3538 4550 2338 
Q 4550 1131 3912 565 
Q 3275 0 1925 0 
L 628 0 
L 628 4666 
z
" id="DejaVuSans-44" transform="scale(0.015625)"/>
       </defs>
       <use xlink:href="#DejaVuSans-44"/>
       <use x="77.001953" xlink:href="#DejaVuSans-65"/>
       <use x="138.525391" xlink:href="#DejaVuSans-63"/>
      </g>
     </g>
    </g>
    <g id="xtick_11">
     <g id="line2d_21">
      <path clip-path="url(#pc7f18d2026)" d="M 479.356268 384.48 
L 479.356268 51.84 
" style="fill:none;stroke:#000000;stroke-dasharray:0.8,1.32;stroke-dashoffset:0;stroke-width:0.8;"/>
     </g>
     <g id="line2d_22">
      <g>
       <use style="stroke:#000000;stroke-width:0.8;" x="479.356268" xlink:href="#m15d86d6906" y="384.48"/>
      </g>
     </g>
     <g id="text_11">
      <!-- 2022 -->
      <g transform="translate(466.631268 399.078438)scale(0.1 -0.1)">
       <defs>
        <path d="M 1228 531 
L 3431 531 
L 3431 0 
L 469 0 
L 469 531 
Q 828 903 1448 1529 
Q 2069 2156 2228 2338 
Q 2531 2678 2651 2914 
Q 2772 3150 2772 3378 
Q 2772 3750 2511 3984 
Q 2250 4219 1831 4219 
Q 1534 4219 1204 4116 
Q 875 4013 500 3803 
L 500 4441 
Q 881 4594 1212 4672 
Q 1544 4750 1819 4750 
Q 2544 4750 2975 4387 
Q 3406 4025 3406 3419 
Q 3406 3131 3298 2873 
Q 3191 2616 2906 2266 
Q 2828 2175 2409 1742 
Q 1991 1309 1228 531 
z
" id="DejaVuSans-32" transform="scale(0.015625)"/>
        <path d="M 2034 4250 
Q 1547 4250 1301 3770 
Q 1056 3291 1056 2328 
Q 1056 1369 1301 889 
Q 1547 409 2034 409 
Q 2525 409 2770 889 
Q 3016 1369 3016 2328 
Q 3016 3291 2770 3770 
Q 2525 4250 2034 4250 
z
M 2034 4750 
Q 2819 4750 3233 4129 
Q 3647 3509 3647 2328 
Q 3647 1150 3233 529 
Q 2819 -91 2034 -91 
Q 1250 -91 836 529 
Q 422 1150 422 2328 
Q 422 3509 836 4129 
Q 1250 4750 2034 4750 
z
" id="DejaVuSans-30" transform="scale(0.015625)"/>
       </defs>
       <use xlink:href="#DejaVuSans-32"/>
       <use x="63.623047" xlink:href="#DejaVuSans-30"/>
       <use x="127.246094" xlink:href="#DejaVuSans-32"/>
       <use x="190.869141" xlink:href="#DejaVuSans-32"/>
      </g>
     </g>
    </g>
   </g>
   <g id="matplotlib.axis_2">
    <g id="ytick_1">
     <g id="line2d_23">
      <path clip-path="url(#pc7f18d2026)" d="M 72 384.48 
L 518.4 384.48 
" style="fill:none;stroke:#000000;stroke-dasharray:0.8,1.32;stroke-dashoffset:0;stroke-width:0.8;"/>
     </g>
     <g id="line2d_24">
      <defs>
       <path d="M 0 0 
L -3.5 0 
" id="m557b29be90" style="stroke:#000000;stroke-width:0.8;"/>
      </defs>
      <g>
       <use style="stroke:#000000;stroke-width:0.8;" x="72" xlink:href="#m557b29be90" y="384.48"/>
      </g>
     </g>
     <g id="text_12">
      <!-- 0 -->
      <g transform="translate(58.6375 388.279219)scale(0.1 -0.1)">
       <use xlink:href="#DejaVuSans-30"/>
      </g>
     </g>
    </g>
    <g id="ytick_2">
     <g id="line2d_25">
      <path clip-path="url(#pc7f18d2026)" d="M 72 354.035676 
L 518.4 354.035676 
" style="fill:none;stroke:#000000;stroke-dasharray:0.8,1.32;stroke-dashoffset:0;stroke-width:0.8;"/>
     </g>
     <g id="line2d_26">
      <g>
       <use style="stroke:#000000;stroke-width:0.8;" x="72" xlink:href="#m557b29be90" y="354.035676"/>
      </g>
     </g>
     <g id="text_13">
      <!-- 2 -->
      <g transform="translate(58.6375 357.834894)scale(0.1 -0.1)">
       <use xlink:href="#DejaVuSans-32"/>
      </g>
     </g>
    </g>
    <g id="ytick_3">
     <g id="line2d_27">
      <path clip-path="url(#pc7f18d2026)" d="M 72 323.591351 
L 518.4 323.591351 
" style="fill:none;stroke:#000000;stroke-dasharray:0.8,1.32;stroke-dashoffset:0;stroke-width:0.8;"/>
     </g>
     <g id="line2d_28">
      <g>
       <use style="stroke:#000000;stroke-width:0.8;" x="72" xlink:href="#m557b29be90" y="323.591351"/>
      </g>
     </g>
     <g id="text_14">
      <!-- 4 -->
      <g transform="translate(58.6375 327.39057)scale(0.1 -0.1)">
       <defs>
        <path d="M 2419 4116 
L 825 1625 
L 2419 1625 
L 2419 4116 
z
M 2253 4666 
L 3047 4666 
L 3047 1625 
L 3713 1625 
L 3713 1100 
L 3047 1100 
L 3047 0 
L 2419 0 
L 2419 1100 
L 313 1100 
L 313 1709 
L 2253 4666 
z
" id="DejaVuSans-34" transform="scale(0.015625)"/>
       </defs>
       <use xlink:href="#DejaVuSans-34"/>
      </g>
     </g>
    </g>
    <g id="ytick_4">
     <g id="line2d_29">
      <path clip-path="url(#pc7f18d2026)" d="M 72 293.147027 
L 518.4 293.147027 
" style="fill:none;stroke:#000000;stroke-dasharray:0.8,1.32;stroke-dashoffset:0;stroke-width:0.8;"/>
     </g>
     <g id="line2d_30">
      <g>
       <use style="stroke:#000000;stroke-width:0.8;" x="72" xlink:href="#m557b29be90" y="293.147027"/>
      </g>
     </g>
     <g id="text_15">
      <!-- 6 -->
      <g transform="translate(58.6375 296.946246)scale(0.1 -0.1)">
       <defs>
        <path d="M 2113 2584 
Q 1688 2584 1439 2293 
Q 1191 2003 1191 1497 
Q 1191 994 1439 701 
Q 1688 409 2113 409 
Q 2538 409 2786 701 
Q 3034 994 3034 1497 
Q 3034 2003 2786 2293 
Q 2538 2584 2113 2584 
z
M 3366 4563 
L 3366 3988 
Q 3128 4100 2886 4159 
Q 2644 4219 2406 4219 
Q 1781 4219 1451 3797 
Q 1122 3375 1075 2522 
Q 1259 2794 1537 2939 
Q 1816 3084 2150 3084 
Q 2853 3084 3261 2657 
Q 3669 2231 3669 1497 
Q 3669 778 3244 343 
Q 2819 -91 2113 -91 
Q 1303 -91 875 529 
Q 447 1150 447 2328 
Q 447 3434 972 4092 
Q 1497 4750 2381 4750 
Q 2619 4750 2861 4703 
Q 3103 4656 3366 4563 
z
" id="DejaVuSans-36" transform="scale(0.015625)"/>
       </defs>
       <use xlink:href="#DejaVuSans-36"/>
      </g>
     </g>
    </g>
    <g id="ytick_5">
     <g id="line2d_31">
      <path clip-path="url(#pc7f18d2026)" d="M 72 262.702703 
L 518.4 262.702703 
" style="fill:none;stroke:#000000;stroke-dasharray:0.8,1.32;stroke-dashoffset:0;stroke-width:0.8;"/>
     </g>
     <g id="line2d_32">
      <g>
       <use style="stroke:#000000;stroke-width:0.8;" x="72" xlink:href="#m557b29be90" y="262.702703"/>
      </g>
     </g>
     <g id="text_16">
      <!-- 8 -->
      <g transform="translate(58.6375 266.501921)scale(0.1 -0.1)">
       <defs>
        <path d="M 2034 2216 
Q 1584 2216 1326 1975 
Q 1069 1734 1069 1313 
Q 1069 891 1326 650 
Q 1584 409 2034 409 
Q 2484 409 2743 651 
Q 3003 894 3003 1313 
Q 3003 1734 2745 1975 
Q 2488 2216 2034 2216 
z
M 1403 2484 
Q 997 2584 770 2862 
Q 544 3141 544 3541 
Q 544 4100 942 4425 
Q 1341 4750 2034 4750 
Q 2731 4750 3128 4425 
Q 3525 4100 3525 3541 
Q 3525 3141 3298 2862 
Q 3072 2584 2669 2484 
Q 3125 2378 3379 2068 
Q 3634 1759 3634 1313 
Q 3634 634 3220 271 
Q 2806 -91 2034 -91 
Q 1263 -91 848 271 
Q 434 634 434 1313 
Q 434 1759 690 2068 
Q 947 2378 1403 2484 
z
M 1172 3481 
Q 1172 3119 1398 2916 
Q 1625 2713 2034 2713 
Q 2441 2713 2670 2916 
Q 2900 3119 2900 3481 
Q 2900 3844 2670 4047 
Q 2441 4250 2034 4250 
Q 1625 4250 1398 4047 
Q 1172 3844 1172 3481 
z
" id="DejaVuSans-38" transform="scale(0.015625)"/>
       </defs>
       <use xlink:href="#DejaVuSans-38"/>
      </g>
     </g>
    </g>
    <g id="ytick_6">
     <g id="line2d_33">
      <path clip-path="url(#pc7f18d2026)" d="M 72 232.258378 
L 518.4 232.258378 
" style="fill:none;stroke:#000000;stroke-dasharray:0.8,1.32;stroke-dashoffset:0;stroke-width:0.8;"/>
     </g>
     <g id="line2d_34">
      <g>
       <use style="stroke:#000000;stroke-width:0.8;" x="72" xlink:href="#m557b29be90" y="232.258378"/>
      </g>
     </g>
     <g id="text_17">
      <!-- 10 -->
      <g transform="translate(52.275 236.057597)scale(0.1 -0.1)">
       <defs>
        <path d="M 794 531 
L 1825 531 
L 1825 4091 
L 703 3866 
L 703 4441 
L 1819 4666 
L 2450 4666 
L 2450 531 
L 3481 531 
L 3481 0 
L 794 0 
L 794 531 
z
" id="DejaVuSans-31" transform="scale(0.015625)"/>
       </defs>
       <use xlink:href="#DejaVuSans-31"/>
       <use x="63.623047" xlink:href="#DejaVuSans-30"/>
      </g>
     </g>
    </g>
    <g id="ytick_7">
     <g id="line2d_35">
      <path clip-path="url(#pc7f18d2026)" d="M 72 201.814054 
L 518.4 201.814054 
" style="fill:none;stroke:#000000;stroke-dasharray:0.8,1.32;stroke-dashoffset:0;stroke-width:0.8;"/>
     </g>
     <g id="line2d_36">
      <g>
       <use style="stroke:#000000;stroke-width:0.8;" x="72" xlink:href="#m557b29be90" y="201.814054"/>
      </g>
     </g>
     <g id="text_18">
      <!-- 12 -->
      <g transform="translate(52.275 205.613273)scale(0.1 -0.1)">
       <use xlink:href="#DejaVuSans-31"/>
       <use x="63.623047" xlink:href="#DejaVuSans-32"/>
      </g>
     </g>
    </g>
    <g id="ytick_8">
     <g id="line2d_37">
      <path clip-path="url(#pc7f18d2026)" d="M 72 171.36973 
L 518.4 171.36973 
" style="fill:none;stroke:#000000;stroke-dasharray:0.8,1.32;stroke-dashoffset:0;stroke-width:0.8;"/>
     </g>
     <g id="line2d_38">
      <g>
       <use style="stroke:#000000;stroke-width:0.8;" x="72" xlink:href="#m557b29be90" y="171.36973"/>
      </g>
     </g>
     <g id="text_19">
      <!-- 14 -->
      <g transform="translate(52.275 175.168949)scale(0.1 -0.1)">
       <use xlink:href="#DejaVuSans-31"/>
       <use x="63.623047" xlink:href="#DejaVuSans-34"/>
      </g>
     </g>
    </g>
    <g id="ytick_9">
     <g id="line2d_39">
      <path clip-path="url(#pc7f18d2026)" d="M 72 140.925405 
L 518.4 140.925405 
" style="fill:none;stroke:#000000;stroke-dasharray:0.8,1.32;stroke-dashoffset:0;stroke-width:0.8;"/>
     </g>
     <g id="line2d_40">
      <g>
       <use style="stroke:#000000;stroke-width:0.8;" x="72" xlink:href="#m557b29be90" y="140.925405"/>
      </g>
     </g>
     <g id="text_20">
      <!-- 16 -->
      <g transform="translate(52.275 144.724624)scale(0.1 -0.1)">
       <use xlink:href="#DejaVuSans-31"/>
       <use x="63.623047" xlink:href="#DejaVuSans-36"/>
      </g>
     </g>
    </g>
    <g id="ytick_10">
     <g id="line2d_41">
      <path clip-path="url(#pc7f18d2026)" d="M 72 110.481081 
L 518.4 110.481081 
" style="fill:none;stroke:#000000;stroke-dasharray:0.8,1.32;stroke-dashoffset:0;stroke-width:0.8;"/>
     </g>
     <g id="line2d_42">
      <g>
       <use style="stroke:#000000;stroke-width:0.8;" x="72" xlink:href="#m557b29be90" y="110.481081"/>
      </g>
     </g>
     <g id="text_21">
      <!-- 18 -->
      <g transform="translate(52.275 114.2803)scale(0.1 -0.1)">
       <use xlink:href="#DejaVuSans-31"/>
       <use x="63.623047" xlink:href="#DejaVuSans-38"/>
      </g>
     </g>
    </g>
    <g id="ytick_11">
     <g id="line2d_43">
      <path clip-path="url(#pc7f18d2026)" d="M 72 80.036757 
L 518.4 80.036757 
" style="fill:none;stroke:#000000;stroke-dasharray:0.8,1.32;stroke-dashoffset:0;stroke-width:0.8;"/>
     </g>
     <g id="line2d_44">
      <g>
       <use style="stroke:#000000;stroke-width:0.8;" x="72" xlink:href="#m557b29be90" y="80.036757"/>
      </g>
     </g>
     <g id="text_22">
      <!-- 20 -->
      <g transform="translate(52.275 83.835976)scale(0.1 -0.1)">
       <use xlink:href="#DejaVuSans-32"/>
       <use x="63.623047" xlink:href="#DejaVuSans-30"/>
      </g>
     </g>
    </g>
    <g id="text_23">
     <!-- Cumulative doses (millions) -->
     <g transform="translate(46.195312 287.556094)rotate(-90)scale(0.1 -0.1)">
      <defs>
       <path d="M 4122 4306 
L 4122 3641 
Q 3803 3938 3442 4084 
Q 3081 4231 2675 4231 
Q 1875 4231 1450 3742 
Q 1025 3253 1025 2328 
Q 1025 1406 1450 917 
Q 1875 428 2675 428 
Q 3081 428 3442 575 
Q 3803 722 4122 1019 
L 4122 359 
Q 3791 134 3420 21 
Q 3050 -91 2638 -91 
Q 1578 -91 968 557 
Q 359 1206 359 2328 
Q 359 3453 968 4101 
Q 1578 4750 2638 4750 
Q 3056 4750 3426 4639 
Q 3797 4528 4122 4306 
z
" id="DejaVuSans-43" transform="scale(0.015625)"/>
       <path d="M 3328 2828 
Q 3544 3216 3844 3400 
Q 4144 3584 4550 3584 
Q 5097 3584 5394 3201 
Q 5691 2819 5691 2113 
L 5691 0 
L 5113 0 
L 5113 2094 
Q 5113 2597 4934 2840 
Q 4756 3084 4391 3084 
Q 3944 3084 3684 2787 
Q 3425 2491 3425 1978 
L 3425 0 
L 2847 0 
L 2847 2094 
Q 2847 2600 2669 2842 
Q 2491 3084 2119 3084 
Q 1678 3084 1418 2786 
Q 1159 2488 1159 1978 
L 1159 0 
L 581 0 
L 581 3500 
L 1159 3500 
L 1159 2956 
Q 1356 3278 1631 3431 
Q 1906 3584 2284 3584 
Q 2666 3584 2933 3390 
Q 3200 3197 3328 2828 
z
" id="DejaVuSans-6d" transform="scale(0.015625)"/>
       <path d="M 603 3500 
L 1178 3500 
L 1178 0 
L 603 0 
L 603 3500 
z
M 603 4863 
L 1178 4863 
L 1178 4134 
L 603 4134 
L 603 4863 
z
" id="DejaVuSans-69" transform="scale(0.015625)"/>
       <path id="DejaVuSans-20" transform="scale(0.015625)"/>
       <path d="M 2906 2969 
L 2906 4863 
L 3481 4863 
L 3481 0 
L 2906 0 
L 2906 525 
Q 2725 213 2448 61 
Q 2172 -91 1784 -91 
Q 1150 -91 751 415 
Q 353 922 353 1747 
Q 353 2572 751 3078 
Q 1150 3584 1784 3584 
Q 2172 3584 2448 3432 
Q 2725 3281 2906 2969 
z
M 947 1747 
Q 947 1113 1208 752 
Q 1469 391 1925 391 
Q 2381 391 2643 752 
Q 2906 1113 2906 1747 
Q 2906 2381 2643 2742 
Q 2381 3103 1925 3103 
Q 1469 3103 1208 2742 
Q 947 2381 947 1747 
z
" id="DejaVuSans-64" transform="scale(0.015625)"/>
       <path d="M 2834 3397 
L 2834 2853 
Q 2591 2978 2328 3040 
Q 2066 3103 1784 3103 
Q 1356 3103 1142 2972 
Q 928 2841 928 2578 
Q 928 2378 1081 2264 
Q 1234 2150 1697 2047 
L 1894 2003 
Q 2506 1872 2764 1633 
Q 3022 1394 3022 966 
Q 3022 478 2636 193 
Q 2250 -91 1575 -91 
Q 1294 -91 989 -36 
Q 684 19 347 128 
L 347 722 
Q 666 556 975 473 
Q 1284 391 1588 391 
Q 1994 391 2212 530 
Q 2431 669 2431 922 
Q 2431 1156 2273 1281 
Q 2116 1406 1581 1522 
L 1381 1569 
Q 847 1681 609 1914 
Q 372 2147 372 2553 
Q 372 3047 722 3315 
Q 1072 3584 1716 3584 
Q 2034 3584 2315 3537 
Q 2597 3491 2834 3397 
z
" id="DejaVuSans-73" transform="scale(0.015625)"/>
       <path d="M 1984 4856 
Q 1566 4138 1362 3434 
Q 1159 2731 1159 2009 
Q 1159 1288 1364 580 
Q 1569 -128 1984 -844 
L 1484 -844 
Q 1016 -109 783 600 
Q 550 1309 550 2009 
Q 550 2706 781 3412 
Q 1013 4119 1484 4856 
L 1984 4856 
z
" id="DejaVuSans-28" transform="scale(0.015625)"/>
       <path d="M 513 4856 
L 1013 4856 
Q 1481 4119 1714 3412 
Q 1947 2706 1947 2009 
Q 1947 1309 1714 600 
Q 1481 -109 1013 -844 
L 513 -844 
Q 928 -128 1133 580 
Q 1338 1288 1338 2009 
Q 1338 2731 1133 3434 
Q 928 4138 513 4856 
z
" id="DejaVuSans-29" transform="scale(0.015625)"/>
      </defs>
      <use xlink:href="#DejaVuSans-43"/>
      <use x="69.824219" xlink:href="#DejaVuSans-75"/>
      <use x="133.203125" xlink:href="#DejaVuSans-6d"/>
      <use x="230.615234" xlink:href="#DejaVuSans-75"/>
      <use x="293.994141" xlink:href="#DejaVuSans-6c"/>
      <use x="321.777344" xlink:href="#DejaVuSans-61"/>
      <use x="383.056641" xlink:href="#DejaVuSans-74"/>
      <use x="422.265625" xlink:href="#DejaVuSans-69"/>
      <use x="450.048828" xlink:href="#DejaVuSans-76"/>
      <use x="509.228516" xlink:href="#DejaVuSans-65"/>
      <use x="570.751953" xlink:href="#DejaVuSans-20"/>
      <use x="602.539062" xlink:href="#DejaVuSans-64"/>
      <use x="666.015625" xlink:href="#DejaVuSans-6f"/>
      <use x="727.197266" xlink:href="#DejaVuSans-73"/>
      <use x="779.296875" xlink:href="#DejaVuSans-65"/>
      <use x="840.820312" xlink:href="#DejaVuSans-73"/>
      <use x="892.919922" xlink:href="#DejaVuSans-20"/>
      <use x="924.707031" xlink:href="#DejaVuSans-28"/>
      <use x="963.720703" xlink:href="#DejaVuSans-6d"/>
      <use x="1061.132812" xlink:href="#DejaVuSans-69"/>
      <use x="1088.916016" xlink:href="#DejaVuSans-6c"/>
      <use x="1116.699219" xlink:href="#DejaVuSans-6c"/>
      <use x="1144.482422" xlink:href="#DejaVuSans-69"/>
      <use x="1172.265625" xlink:href="#DejaVuSans-6f"/>
      <use x="1233.447266" xlink:href="#DejaVuSans-6e"/>
      <use x="1296.826172" xlink:href="#DejaVuSans-73"/>
      <use x="1348.925781" xlink:href="#DejaVuSans-29"/>
     </g>
    </g>
   </g>
   <g id="line2d_45">
    <path clip-path="url(#pc7f18d2026)" d="M 72 384.426262 
L 72 384.369125 
L 74.602915 384.308368 
L 74.602915 384.243759 
L 77.205831 384.175055 
L 77.205831 384.102001 
L 79.808746 384.024332 
L 79.808746 383.941774 
L 82.411662 383.854037 
L 82.411662 383.760821 
L 85.014577 383.661811 
L 85.014577 383.556678 
L 86.316035 383.556678 
L 86.316035 383.445079 
L 87.617493 383.445079 
L 87.617493 383.326648 
L 88.91895 383.326648 
L 88.91895 383.200996 
L 90.220408 383.200996 
L 90.220408 383.067702 
L 91.521866 383.067702 
L 91.521866 382.926305 
L 92.823324 382.926305 
L 92.823324 382.776294 
L 94.124781 382.776294 
L 94.124781 382.617093 
L 95.426239 382.617093 
L 95.426239 382.448052 
L 96.727697 382.448052 
L 96.727697 382.268434 
L 98.029155 382.268434 
L 98.029155 382.077406 
L 99.330612 382.077406 
L 99.330612 381.874039 
L 100.63207 381.874039 
L 100.63207 381.657309 
L 101.933528 381.657309 
L 101.933528 381.426118 
L 103.234985 381.426118 
L 103.234985 381.179315 
L 104.536443 381.179315 
L 104.536443 380.91574 
L 105.837901 380.91574 
L 105.837901 380.634264 
L 107.139359 380.634264 
L 107.139359 380.333851 
L 108.440816 380.333851 
L 108.440816 380.013613 
L 109.742274 380.013613 
L 109.742274 379.67288 
L 111.043732 379.67288 
L 111.043732 379.311238 
L 112.34519 379.311238 
L 112.34519 378.928577 
L 113.646647 378.928577 
L 113.646647 378.525101 
L 114.948105 378.525101 
L 114.948105 378.101329 
L 116.249563 378.101329 
L 116.249563 377.658073 
L 117.55102 377.658073 
L 117.55102 377.196386 
L 118.852478 377.196386 
L 118.852478 376.717492 
L 120.153936 376.717492 
L 120.153936 376.22271 
L 121.455394 376.22271 
L 121.455394 375.713368 
L 122.756851 375.713368 
L 122.756851 375.190718 
L 124.058309 375.190718 
L 124.058309 374.655868 
L 125.359767 374.655868 
L 125.359767 374.109723 
L 126.661224 374.109723 
L 126.661224 373.552956 
L 127.962682 373.552956 
L 127.962682 372.986003 
L 129.26414 372.986003 
L 129.26414 372.409075 
L 130.565598 372.409075 
L 130.565598 371.822207 
L 131.867055 371.822207 
L 131.867055 371.22531 
L 133.168513 371.22531 
L 133.168513 370.618242 
L 134.469971 370.618242 
L 134.469971 370.000884 
L 135.771429 370.000884 
L 135.771429 369.373212 
L 137.072886 369.373212 
L 137.072886 368.735356 
L 138.374344 368.735356 
L 138.374344 368.087651 
L 139.675802 368.087651 
L 139.675802 367.430665 
L 140.977259 367.430665 
L 140.977259 366.765204 
L 142.278717 366.765204 
L 142.278717 366.092295 
L 143.580175 366.092295 
L 143.580175 365.413147 
L 144.881633 365.413147 
L 144.881633 364.729093 
L 146.18309 364.729093 
L 146.18309 364.041509 
L 147.484548 364.041509 
L 147.484548 363.351737 
L 148.786006 363.351737 
L 148.786006 362.660984 
L 150.087464 362.660984 
L 150.087464 361.970248 
L 151.388921 361.970248 
L 151.388921 361.280236 
L 152.690379 361.280236 
L 152.690379 360.591316 
L 153.991837 360.591316 
L 153.991837 359.903481 
L 155.293294 359.903481 
L 155.293294 359.216346 
L 156.594752 359.216346 
L 156.594752 358.529172 
L 157.89621 358.529172 
L 157.89621 357.840906 
L 159.197668 357.840906 
L 159.197668 357.150253 
L 160.499125 357.150253 
L 160.499125 356.455749 
L 161.800583 356.455749 
L 161.800583 355.755855 
L 163.102041 355.755855 
L 163.102041 355.049032 
L 164.403499 355.049032 
L 164.403499 354.333818 
L 165.704956 354.333818 
L 165.704956 353.608887 
L 167.006414 353.608887 
L 167.006414 352.873087 
L 168.307872 352.873087 
L 168.307872 352.125459 
L 169.609329 352.125459 
L 169.609329 351.36523 
L 170.910787 351.36523 
L 170.910787 350.591793 
L 172.212245 350.591793 
L 172.212245 349.804665 
L 173.513703 349.804665 
L 173.513703 349.003441 
L 174.81516 349.003441 
L 174.81516 348.187738 
L 176.116618 348.187738 
L 176.116618 347.357137 
L 177.418076 347.357137 
L 177.418076 346.511141 
L 178.719534 346.511141 
L 178.719534 345.649125 
L 180.020991 345.649125 
L 180.020991 344.770318 
L 181.322449 344.770318 
L 181.322449 343.873784 
L 182.623907 343.873784 
L 182.623907 342.958415 
L 183.925364 342.958415 
L 183.925364 342.022957 
L 185.226822 342.022957 
L 185.226822 341.066027 
L 186.52828 341.066027 
L 186.52828 340.086164 
L 187.829738 340.086164 
L 187.829738 339.081868 
L 189.131195 339.081868 
L 189.131195 338.051668 
L 190.432653 338.051668 
L 190.432653 336.994181 
L 191.734111 336.994181 
L 191.734111 335.908191 
L 193.035569 335.908191 
L 193.035569 334.79272 
L 194.337026 334.79272 
L 194.337026 333.647105 
L 195.638484 333.647105 
L 195.638484 332.471064 
L 196.939942 332.471064 
L 196.939942 331.26477 
L 198.241399 331.26477 
L 198.241399 330.028907 
L 199.542857 330.028907 
L 199.542857 328.764715 
L 200.844315 328.764715 
L 200.844315 327.474024 
L 202.145773 327.474024 
L 202.145773 326.159258 
L 203.44723 326.159258 
L 203.44723 324.823427 
L 204.748688 324.823427 
L 204.748688 323.470087 
L 206.050146 323.470087 
L 206.050146 322.103276 
L 207.351603 322.103276 
L 207.351603 320.727422 
L 208.653061 320.727422 
L 208.653061 319.347228 
L 209.954519 319.347228 
L 209.954519 317.967537 
L 211.255977 317.967537 
L 211.255977 316.593182 
L 212.557434 316.593182 
L 212.557434 315.228826 
L 213.858892 315.228826 
L 213.858892 313.878805 
L 215.16035 313.878805 
L 215.16035 312.546981 
L 216.461808 312.546981 
L 216.461808 311.236617 
L 217.763265 311.236617 
L 217.763265 309.950263 
L 219.064723 309.950263 
L 219.064723 308.689697 
L 220.366181 308.689697 
L 220.366181 307.455883 
L 221.667638 307.455883 
L 221.667638 306.248978 
L 222.969096 306.248978 
L 222.969096 305.068375 
L 224.270554 305.068375 
L 224.270554 303.912779 
L 225.572012 303.912779 
L 225.572012 302.780304 
L 226.873469 302.780304 
L 226.873469 301.668607 
L 228.174927 301.668607 
L 228.174927 300.575025 
L 229.476385 300.575025 
L 229.476385 299.496721 
L 230.777843 299.496721 
L 230.777843 298.430822 
L 232.0793 298.430822 
L 232.0793 297.374554 
L 233.380758 297.374554 
L 233.380758 296.325351 
L 234.682216 296.325351 
L 234.682216 295.280944 
L 235.983673 295.280944 
L 235.983673 294.239422 
L 237.285131 294.239422 
L 237.285131 293.199261 
L 238.586589 293.199261 
L 238.586589 292.15931 
L 239.888047 292.15931 
L 239.888047 291.11876 
L 241.189504 291.11876 
L 241.189504 290.077072 
L 242.490962 290.077072 
L 242.490962 289.033886 
L 243.79242 289.033886 
L 243.79242 287.98891 
L 245.093878 287.98891 
L 245.093878 286.94181 
L 246.395335 286.94181 
L 246.395335 285.892104 
L 247.696793 285.892104 
L 247.696793 284.839063 
L 248.998251 284.839063 
L 248.998251 283.781656 
L 250.299708 283.781656 
L 250.299708 282.718511 
L 251.601166 282.718511 
L 251.601166 281.647931 
L 252.902624 281.647931 
L 252.902624 280.567947 
L 254.204082 280.567947 
L 254.204082 279.476407 
L 255.505539 279.476407 
L 255.505539 278.371109 
L 256.806997 278.371109 
L 256.806997 277.249942 
L 258.108455 277.249942 
L 258.108455 276.111042 
L 259.409913 276.111042 
L 259.409913 274.952931 
L 260.71137 274.952931 
L 260.71137 273.774634 
L 262.012828 273.774634 
L 262.012828 272.575751 
L 263.314286 272.575751 
L 263.314286 271.356481 
L 264.615743 271.356481 
L 264.615743 270.117586 
L 265.917201 270.117586 
L 265.917201 268.860296 
L 267.218659 268.860296 
L 267.218659 267.586174 
L 268.520117 267.586174 
L 268.520117 266.296941 
L 269.821574 266.296941 
L 269.821574 264.994287 
L 271.123032 264.994287 
L 271.123032 263.67968 
L 272.42449 263.67968 
L 272.42449 262.354208 
L 273.725948 262.354208 
L 273.725948 261.018446 
L 275.027405 261.018446 
L 275.027405 259.672397 
L 276.328863 259.672397 
L 276.328863 258.315474 
L 277.630321 258.315474 
L 277.630321 256.946564 
L 278.931778 256.946564 
L 278.931778 255.564132 
L 280.233236 255.564132 
L 280.233236 254.166381 
L 281.534694 254.166381 
L 281.534694 252.751437 
L 282.836152 252.751437 
L 282.836152 251.317544 
L 284.137609 251.317544 
L 284.137609 249.863258 
L 285.439067 249.863258 
L 285.439067 248.387615 
L 286.740525 248.387615 
L 286.740525 246.890264 
L 288.041983 246.890264 
L 288.041983 245.371551 
L 289.34344 245.371551 
L 289.34344 243.832561 
L 290.644898 243.832561 
L 290.644898 242.275106 
L 291.946356 242.275106 
L 291.946356 240.701665 
L 293.247813 240.701665 
L 293.247813 239.115295 
L 294.549271 239.115295 
L 294.549271 237.519495 
L 295.850729 237.519495 
L 295.850729 235.918071 
L 297.152187 235.918071 
L 297.152187 234.314974 
L 298.453644 234.314974 
L 298.453644 232.714157 
L 299.755102 232.714157 
L 299.755102 231.119432 
L 301.05656 231.119432 
L 301.05656 229.534345 
L 302.358017 229.534345 
L 302.358017 227.96208 
L 303.659475 227.96208 
L 303.659475 226.40539 
L 304.960933 226.40539 
L 304.960933 224.866549 
L 306.262391 224.866549 
L 306.262391 223.347339 
L 307.563848 223.347339 
L 307.563848 221.849053 
L 308.865306 221.849053 
L 308.865306 220.372523 
L 310.166764 220.372523 
L 310.166764 218.918163 
L 311.468222 218.918163 
L 311.468222 217.486021 
L 312.769679 217.486021 
L 312.769679 216.075835 
L 314.071137 216.075835 
L 314.071137 214.687096 
L 315.372595 214.687096 
L 315.372595 213.319107 
L 316.674052 213.319107 
L 316.674052 211.971031 
L 317.97551 211.971031 
L 317.97551 210.641946 
L 319.276968 210.641946 
L 319.276968 209.330873 
L 320.578426 209.330873 
L 320.578426 208.036813 
L 321.879883 208.036813 
L 321.879883 206.758773 
L 323.181341 206.758773 
L 323.181341 205.495779 
L 324.482799 205.495779 
L 324.482799 204.246891 
L 325.784257 204.246891 
L 325.784257 203.01121 
L 327.085714 203.01121 
L 327.085714 201.78788 
L 328.387172 201.78788 
L 328.387172 200.576091 
L 329.68863 200.576091 
L 329.68863 199.375074 
L 330.990087 199.375074 
L 330.990087 198.184104 
L 332.291545 198.184104 
L 332.291545 197.002487 
L 333.593003 197.002487 
L 333.593003 195.829559 
L 334.894461 195.829559 
L 334.894461 194.664676 
L 336.195918 194.664676 
L 336.195918 193.507201 
L 337.497376 193.507201 
L 337.497376 192.356494 
L 338.798834 192.356494 
L 338.798834 191.211891 
L 340.100292 191.211891 
L 340.100292 190.072689 
L 341.401749 190.072689 
L 341.401749 188.938113 
L 342.703207 188.938113 
L 342.703207 187.807293 
L 344.004665 187.807293 
L 344.004665 186.679231 
L 345.306122 186.679231 
L 345.306122 185.552762 
L 346.60758 185.552762 
L 346.60758 184.426519 
L 347.909038 184.426519 
L 347.909038 183.298902 
L 349.210496 183.298902 
L 349.210496 182.16804 
L 350.511953 182.16804 
L 350.511953 181.03178 
L 351.813411 181.03178 
L 351.813411 179.887663 
L 353.114869 179.887663 
L 353.114869 178.732941 
L 354.416327 178.732941 
L 354.416327 177.564589 
L 355.717784 177.564589 
L 355.717784 176.379349 
L 357.019242 176.379349 
L 357.019242 175.17379 
L 358.3207 175.17379 
L 358.3207 173.94438 
L 359.622157 173.94438 
L 359.622157 172.687581 
L 360.923615 172.687581 
L 360.923615 171.399944 
L 362.225073 171.399944 
L 362.225073 170.07821 
L 363.526531 170.07821 
L 363.526531 168.719409 
L 364.827988 168.719409 
L 364.827988 167.320946 
L 366.129446 167.320946 
L 366.129446 165.880672 
L 367.430904 165.880672 
L 367.430904 164.396936 
L 368.732362 164.396936 
L 368.732362 162.868609 
L 370.033819 162.868609 
L 370.033819 161.295096 
L 371.335277 161.295096 
L 371.335277 159.676311 
L 372.636735 159.676311 
L 372.636735 158.012646 
L 373.938192 158.012646 
L 373.938192 156.304916 
L 375.23965 156.304916 
L 375.23965 154.554302 
L 376.541108 154.554302 
L 376.541108 152.762277 
L 377.842566 152.762277 
L 377.842566 150.930543 
L 379.144023 150.930543 
L 379.144023 149.060962 
L 380.445481 149.060962 
L 380.445481 147.1555 
L 381.746939 147.1555 
L 381.746939 145.216169 
L 383.048397 145.216169 
L 383.048397 143.244987 
L 384.349854 143.244987 
L 384.349854 141.243944 
L 385.651312 141.243944 
L 385.651312 139.214973 
L 386.95277 139.214973 
L 386.95277 137.15993 
L 388.254227 137.15993 
L 388.254227 135.080587 
L 389.555685 135.080587 
L 389.555685 132.978618 
L 390.857143 132.978618 
L 390.857143 130.855599 
L 392.158601 130.855599 
L 392.158601 128.713011 
L 393.460058 128.713011 
L 393.460058 126.552236 
L 394.761516 126.552236 
L 394.761516 124.374563 
L 396.062974 124.374563 
L 396.062974 122.181197 
L 397.364431 122.181197 
L 397.364431 119.973264 
L 398.665889 119.973264 
L 398.665889 117.751819 
L 399.967347 117.751819 
L 399.967347 115.517858 
L 401.268805 115.517858 
L 401.268805 113.272322 
L 402.570262 113.272322 
L 402.570262 111.016118 
L 403.87172 111.016118 
L 403.87172 108.750134 
L 405.173178 108.750134 
L 405.173178 106.475267 
L 406.474636 106.475267 
L 406.474636 104.19245 
L 407.776093 104.19245 
L 407.776093 101.902702 
L 409.077551 101.902702 
L 409.077551 99.607183 
L 410.379009 99.607183 
L 410.379009 97.307262 
L 411.680466 97.307262 
L 411.680466 95.004607 
L 412.981924 95.004607 
L 412.981924 92.701285 
L 414.283382 92.701285 
L 414.283382 90.39988 
L 415.58484 90.39988 
L 415.58484 88.103614 
L 416.886297 88.103614 
L 416.886297 85.816486 
L 418.187755 85.816486 
L 418.187755 83.543381 
L 419.489213 83.543381 
L 419.489213 81.290185 
L 420.790671 81.290185 
L 420.790671 79.063841 
L 422.092128 79.063841 
L 422.092128 76.872374 
L 423.393586 76.872374 
L 423.393586 74.724837 
L 424.695044 74.724837 
L 424.695044 72.631186 
L 425.996501 72.631186 
L 425.996501 70.602065 
L 427.297959 70.602065 
L 427.297959 68.648518 
L 428.599417 68.648518 
L 428.599417 66.78161 
L 429.900875 66.78161 
L 429.900875 65.012002 
L 431.202332 65.012002 
L 431.202332 63.349493 
L 432.50379 63.349493 
L 432.50379 61.802558 
L 433.805248 61.802558 
L 433.805248 60.377929 
L 435.106706 60.377929 
L 435.106706 59.080248 
L 436.408163 59.080248 
L 436.408163 57.91182 
L 437.709621 57.91182 
L 437.709621 56.872495 
L 439.011079 56.872495 
L 439.011079 55.959681 
L 440.312536 55.959681 
L 440.312536 55.1685 
L 441.613994 55.1685 
L 441.613994 54.49206 
L 442.915452 54.49206 
L 442.915452 53.921819 
L 444.21691 53.921819 
L 444.21691 53.448024 
L 445.518367 53.448024 
L 445.518367 53.060173 
L 446.819825 53.060173 
L 446.819825 52.747464 
L 448.121283 52.747464 
L 448.121283 52.49922 
L 449.422741 52.49922 
L 449.422741 52.30524 
L 450.724198 52.30524 
L 450.724198 52.156078 
L 452.025656 52.156078 
L 452.025656 52.043235 
L 454.628571 51.959269 
L 454.628571 51.897829 
L 459.834402 51.800663 
L 459.834402 51.785841 
L 518.4 51.758659 
L 518.4 51.758659 
" style="fill:none;stroke:#1f77b4;stroke-linecap:square;stroke-width:1.5;"/>
   </g>
   <g id="line2d_46">
    <path clip-path="url(#pc7f18d2026)" d="M 72 384.479997 
L 72 384.47999 
L 101.933528 384.39057 
L 101.933528 384.367361 
L 107.139359 384.270792 
L 107.139359 384.228712 
L 111.043732 384.128932 
L 111.043732 384.071296 
L 113.646647 384.008692 
L 113.646647 383.941367 
L 116.249563 383.869631 
L 116.249563 383.793839 
L 118.852478 383.71437 
L 118.852478 383.631602 
L 121.455394 383.545899 
L 121.455394 383.457591 
L 124.058309 383.366961 
L 124.058309 383.27424 
L 126.661224 383.179604 
L 126.661224 383.083178 
L 129.26414 382.985043 
L 129.26414 382.885245 
L 131.867055 382.783809 
L 131.867055 382.680752 
L 134.469971 382.576093 
L 134.469971 382.469863 
L 137.072886 382.362117 
L 137.072886 382.25293 
L 139.675802 382.142407 
L 139.675802 382.030683 
L 140.977259 382.030683 
L 140.977259 381.917916 
L 142.278717 381.917916 
L 142.278717 381.804291 
L 143.580175 381.804291 
L 143.580175 381.690014 
L 144.881633 381.690014 
L 144.881633 381.575309 
L 146.18309 381.575309 
L 146.18309 381.460412 
L 147.484548 381.460412 
L 147.484548 381.345567 
L 148.786006 381.345567 
L 148.786006 381.231021 
L 150.087464 381.231021 
L 150.087464 381.117015 
L 151.388921 381.117015 
L 151.388921 381.003778 
L 152.690379 381.003778 
L 152.690379 380.891519 
L 155.293294 380.780418 
L 155.293294 380.670624 
L 157.89621 380.562239 
L 157.89621 380.455323 
L 160.499125 380.34988 
L 160.499125 380.245862 
L 163.102041 380.143163 
L 163.102041 380.041618 
L 165.704956 379.941008 
L 165.704956 379.841055 
L 168.307872 379.741431 
L 168.307872 379.641766 
L 170.910787 379.541651 
L 170.910787 379.440658 
L 173.513703 379.33835 
L 173.513703 379.234296 
L 176.116618 379.128091 
L 176.116618 379.01937 
L 177.418076 379.01937 
L 177.418076 378.907819 
L 178.719534 378.907819 
L 178.719534 378.79318 
L 180.020991 378.79318 
L 180.020991 378.675258 
L 181.322449 378.675258 
L 181.322449 378.55391 
L 182.623907 378.55391 
L 182.623907 378.429035 
L 183.925364 378.429035 
L 183.925364 378.300557 
L 185.226822 378.300557 
L 185.226822 378.168405 
L 186.52828 378.168405 
L 186.52828 378.032492 
L 187.829738 378.032492 
L 187.829738 377.892693 
L 189.131195 377.892693 
L 189.131195 377.748828 
L 190.432653 377.748828 
L 190.432653 377.60065 
L 191.734111 377.60065 
L 191.734111 377.447835 
L 193.035569 377.447835 
L 193.035569 377.289984 
L 194.337026 377.289984 
L 194.337026 377.126629 
L 195.638484 377.126629 
L 195.638484 376.95724 
L 196.939942 376.95724 
L 196.939942 376.781235 
L 198.241399 376.781235 
L 198.241399 376.597995 
L 199.542857 376.597995 
L 199.542857 376.40687 
L 200.844315 376.40687 
L 200.844315 376.207182 
L 202.145773 376.207182 
L 202.145773 375.998227 
L 203.44723 375.998227 
L 203.44723 375.779264 
L 204.748688 375.779264 
L 204.748688 375.549501 
L 206.050146 375.549501 
L 206.050146 375.308084 
L 207.351603 375.308084 
L 207.351603 375.054073 
L 208.653061 375.054073 
L 208.653061 374.786432 
L 209.954519 374.786432 
L 209.954519 374.50402 
L 211.255977 374.50402 
L 211.255977 374.205594 
L 212.557434 374.205594 
L 212.557434 373.889822 
L 213.858892 373.889822 
L 213.858892 373.555315 
L 215.16035 373.555315 
L 215.16035 373.200662 
L 216.461808 373.200662 
L 216.461808 372.824488 
L 217.763265 372.824488 
L 217.763265 372.425513 
L 219.064723 372.425513 
L 219.064723 372.002617 
L 220.366181 372.002617 
L 220.366181 371.554896 
L 221.667638 371.554896 
L 221.667638 371.08171 
L 222.969096 371.08171 
L 222.969096 370.58272 
L 224.270554 370.58272 
L 224.270554 370.057897 
L 225.572012 370.057897 
L 225.572012 369.507521 
L 226.873469 369.507521 
L 226.873469 368.932142 
L 228.174927 368.932142 
L 228.174927 368.332539 
L 229.476385 368.332539 
L 229.476385 367.709648 
L 230.777843 367.709648 
L 230.777843 367.064496 
L 232.0793 367.064496 
L 232.0793 366.398128 
L 233.380758 366.398128 
L 233.380758 365.711535 
L 234.682216 365.711535 
L 234.682216 365.005607 
L 235.983673 365.005607 
L 235.983673 364.281091 
L 237.285131 364.281091 
L 237.285131 363.538581 
L 238.586589 363.538581 
L 238.586589 362.778527 
L 239.888047 362.778527 
L 239.888047 362.001263 
L 241.189504 362.001263 
L 241.189504 361.207058 
L 242.490962 361.207058 
L 242.490962 360.396174 
L 243.79242 360.396174 
L 243.79242 359.568941 
L 245.093878 359.568941 
L 245.093878 358.725818 
L 246.395335 358.725818 
L 246.395335 357.86746 
L 247.696793 357.86746 
L 247.696793 356.994759 
L 248.998251 356.994759 
L 248.998251 356.108878 
L 250.299708 356.108878 
L 250.299708 355.211247 
L 251.601166 355.211247 
L 251.601166 354.303542 
L 252.902624 354.303542 
L 252.902624 353.387636 
L 254.204082 353.387636 
L 254.204082 352.465526 
L 255.505539 352.465526 
L 255.505539 351.539237 
L 256.806997 351.539237 
L 256.806997 350.610723 
L 258.108455 350.610723 
L 258.108455 349.681757 
L 259.409913 349.681757 
L 259.409913 348.753828 
L 260.71137 348.753828 
L 260.71137 347.828065 
L 262.012828 347.828065 
L 262.012828 346.905167 
L 263.314286 346.905167 
L 263.314286 345.985373 
L 264.615743 345.985373 
L 264.615743 345.068465 
L 265.917201 345.068465 
L 265.917201 344.153787 
L 267.218659 344.153787 
L 267.218659 343.240308 
L 268.520117 343.240308 
L 268.520117 342.326687 
L 269.821574 342.326687 
L 269.821574 341.411356 
L 271.123032 341.411356 
L 271.123032 340.492601 
L 272.42449 340.492601 
L 272.42449 339.56863 
L 273.725948 339.56863 
L 273.725948 338.637629 
L 275.027405 338.637629 
L 275.027405 337.697789 
L 276.328863 337.697789 
L 276.328863 336.747316 
L 277.630321 336.747316 
L 277.630321 335.784422 
L 278.931778 335.784422 
L 278.931778 334.807289 
L 280.233236 334.807289 
L 280.233236 333.81404 
L 281.534694 333.81404 
L 281.534694 332.802701 
L 282.836152 332.802701 
L 282.836152 331.77118 
L 284.137609 331.77118 
L 284.137609 330.717259 
L 285.439067 330.717259 
L 285.439067 329.638611 
L 286.740525 329.638611 
L 286.740525 328.532847 
L 288.041983 328.532847 
L 288.041983 327.397584 
L 289.34344 327.397584 
L 289.34344 326.23054 
L 290.644898 326.23054 
L 290.644898 325.029636 
L 291.946356 325.029636 
L 291.946356 323.793092 
L 293.247813 323.793092 
L 293.247813 322.519531 
L 294.549271 322.519531 
L 294.549271 321.208052 
L 295.850729 321.208052 
L 295.850729 319.858278 
L 297.152187 319.858278 
L 297.152187 318.470364 
L 298.453644 318.470364 
L 298.453644 317.044976 
L 299.755102 317.044976 
L 299.755102 315.583235 
L 301.05656 315.583235 
L 301.05656 314.086638 
L 302.358017 314.086638 
L 302.358017 312.556957 
L 303.659475 312.556957 
L 303.659475 310.996143 
L 304.960933 310.996143 
L 304.960933 309.406226 
L 306.262391 309.406226 
L 306.262391 307.789245 
L 307.563848 307.789245 
L 307.563848 306.147203 
L 308.865306 306.147203 
L 308.865306 304.482052 
L 310.166764 304.482052 
L 310.166764 302.79571 
L 311.468222 302.79571 
L 311.468222 301.090103 
L 312.769679 301.090103 
L 312.769679 299.367225 
L 314.071137 299.367225 
L 314.071137 297.629209 
L 315.372595 297.629209 
L 315.372595 295.878375 
L 316.674052 295.878375 
L 316.674052 294.117281 
L 317.97551 294.117281 
L 317.97551 292.348723 
L 319.276968 292.348723 
L 319.276968 290.575715 
L 320.578426 290.575715 
L 320.578426 288.801424 
L 321.879883 288.801424 
L 321.879883 287.029073 
L 323.181341 287.029073 
L 323.181341 285.261814 
L 324.482799 285.261814 
L 324.482799 283.502592 
L 325.784257 283.502592 
L 325.784257 281.754002 
L 327.085714 281.754002 
L 327.085714 280.01815 
L 328.387172 280.01815 
L 328.387172 278.29655 
L 329.68863 278.29655 
L 329.68863 276.590048 
L 330.990087 276.590048 
L 330.990087 274.898786 
L 332.291545 274.898786 
L 332.291545 273.222217 
L 333.593003 273.222217 
L 333.593003 271.559156 
L 334.894461 271.559156 
L 334.894461 269.907865 
L 336.195918 269.907865 
L 336.195918 268.266186 
L 337.497376 268.266186 
L 337.497376 266.631672 
L 338.798834 266.631672 
L 338.798834 265.001744 
L 340.100292 265.001744 
L 340.100292 263.373835 
L 341.401749 263.373835 
L 341.401749 261.745526 
L 342.703207 261.745526 
L 342.703207 260.114668 
L 344.004665 260.114668 
L 344.004665 258.479469 
L 345.306122 258.479469 
L 345.306122 256.83856 
L 346.60758 256.83856 
L 346.60758 255.19103 
L 347.909038 255.19103 
L 347.909038 253.536421 
L 349.210496 253.536421 
L 349.210496 251.87471 
L 350.511953 251.87471 
L 350.511953 250.206258 
L 351.813411 250.206258 
L 351.813411 248.531732 
L 353.114869 248.531732 
L 353.114869 246.85203 
L 354.416327 246.85203 
L 354.416327 245.168186 
L 355.717784 245.168186 
L 355.717784 243.48128 
L 357.019242 243.48128 
L 357.019242 241.792355 
L 358.3207 241.792355 
L 358.3207 240.102338 
L 359.622157 240.102338 
L 359.622157 238.411986 
L 360.923615 238.411986 
L 360.923615 236.721845 
L 362.225073 236.721845 
L 362.225073 235.032232 
L 363.526531 235.032232 
L 363.526531 233.343241 
L 364.827988 233.343241 
L 364.827988 231.654753 
L 366.129446 231.654753 
L 366.129446 229.966475 
L 367.430904 229.966475 
L 367.430904 228.277973 
L 368.732362 228.277973 
L 368.732362 226.588704 
L 370.033819 226.588704 
L 370.033819 224.89805 
L 371.335277 224.89805 
L 371.335277 223.205326 
L 372.636735 223.205326 
L 372.636735 221.509781 
L 373.938192 221.509781 
L 373.938192 219.81057 
L 375.23965 219.81057 
L 375.23965 218.106713 
L 376.541108 218.106713 
L 376.541108 216.39704 
L 377.842566 216.39704 
L 377.842566 214.680127 
L 379.144023 214.680127 
L 379.144023 212.95423 
L 380.445481 212.95423 
L 380.445481 211.21723 
L 381.746939 211.21723 
L 381.746939 209.466596 
L 383.048397 209.466596 
L 383.048397 207.699373 
L 384.349854 207.699373 
L 384.349854 205.912199 
L 385.651312 205.912199 
L 385.651312 204.101366 
L 386.95277 204.101366 
L 386.95277 202.262911 
L 388.254227 202.262911 
L 388.254227 200.392736 
L 389.555685 200.392736 
L 389.555685 198.486766 
L 390.857143 198.486766 
L 390.857143 196.541115 
L 392.158601 196.541115 
L 392.158601 194.552262 
L 393.460058 194.552262 
L 393.460058 192.517224 
L 394.761516 192.517224 
L 394.761516 190.433713 
L 396.062974 190.433713 
L 396.062974 188.300256 
L 397.364431 188.300256 
L 397.364431 186.116292 
L 398.665889 186.116292 
L 398.665889 183.882212 
L 399.967347 183.882212 
L 399.967347 181.599358 
L 401.268805 181.599358 
L 401.268805 179.269979 
L 402.570262 179.269979 
L 402.570262 176.897137 
L 403.87172 176.897137 
L 403.87172 174.484582 
L 405.173178 174.484582 
L 405.173178 172.036593 
L 406.474636 172.036593 
L 406.474636 169.557813 
L 407.776093 169.557813 
L 407.776093 167.053071 
L 409.077551 167.053071 
L 409.077551 164.527209 
L 410.379009 164.527209 
L 410.379009 161.98493 
L 411.680466 161.98493 
L 411.680466 159.430664 
L 412.981924 159.430664 
L 412.981924 156.868461 
L 414.283382 156.868461 
L 414.283382 154.301922 
L 415.58484 154.301922 
L 415.58484 151.73415 
L 416.886297 151.73415 
L 416.886297 149.167739 
L 418.187755 149.167739 
L 418.187755 146.604782 
L 419.489213 146.604782 
L 419.489213 144.046899 
L 420.790671 144.046899 
L 420.790671 141.495286 
L 422.092128 141.495286 
L 422.092128 138.950763 
L 423.393586 138.950763 
L 423.393586 136.413834 
L 424.695044 136.413834 
L 424.695044 133.884746 
L 425.996501 133.884746 
L 425.996501 131.36354 
L 427.297959 131.36354 
L 427.297959 128.850106 
L 428.599417 128.850106 
L 428.599417 126.344223 
L 429.900875 126.344223 
L 429.900875 123.845595 
L 431.202332 123.845595 
L 431.202332 121.353888 
L 432.50379 121.353888 
L 432.50379 118.868753 
L 433.805248 118.868753 
L 433.805248 116.389847 
L 435.106706 116.389847 
L 435.106706 113.916856 
L 436.408163 113.916856 
L 436.408163 111.449519 
L 437.709621 111.449519 
L 437.709621 108.987649 
L 439.011079 108.987649 
L 439.011079 106.531168 
L 440.312536 106.531168 
L 440.312536 104.080152 
L 441.613994 104.080152 
L 441.613994 101.634878 
L 442.915452 101.634878 
L 442.915452 99.195898 
L 444.21691 99.195898 
L 444.21691 96.764116 
L 445.518367 96.764116 
L 445.518367 94.34089 
L 446.819825 94.34089 
L 446.819825 91.928145 
L 448.121283 91.928145 
L 448.121283 89.528493 
L 449.422741 89.528493 
L 449.422741 87.145363 
L 450.724198 87.145363 
L 450.724198 84.783114 
L 452.025656 84.783114 
L 452.025656 82.44714 
L 453.327114 82.44714 
L 453.327114 80.143932 
L 454.628571 80.143932 
L 454.628571 77.881091 
L 455.930029 77.881091 
L 455.930029 75.667278 
L 457.231487 75.667278 
L 457.231487 73.512084 
L 458.532945 73.512084 
L 458.532945 71.425817 
L 459.834402 71.425817 
L 459.834402 69.419206 
L 461.13586 69.419206 
L 461.13586 67.503024 
L 462.437318 67.503024 
L 462.437318 65.687662 
L 463.738776 65.687662 
L 463.738776 63.982666 
L 465.040233 63.982666 
L 465.040233 62.39628 
L 466.341691 62.39628 
L 466.341691 60.935017 
L 467.643149 60.935017 
L 467.643149 59.603319 
L 468.944606 59.603319 
L 468.944606 58.403305 
L 470.246064 58.403305 
L 470.246064 57.334648 
L 471.547522 57.334648 
L 471.547522 56.394598 
L 472.84898 56.394598 
L 472.84898 55.578128 
L 474.150437 55.578128 
L 474.150437 54.878203 
L 475.451895 54.878203 
L 475.451895 54.286155 
L 476.753353 54.286155 
L 476.753353 53.792112 
L 478.05481 53.792112 
L 478.05481 53.385458 
L 479.356268 53.385458 
L 479.356268 53.05529 
L 480.657726 53.05529 
L 480.657726 52.790833 
L 481.959184 52.790833 
L 481.959184 52.581795 
L 483.260641 52.581795 
L 483.260641 52.418646 
L 484.562099 52.418646 
L 484.562099 52.292808 
L 487.165015 52.196769 
L 487.165015 52.124111 
L 491.069388 52.028543 
L 491.069388 51.997817 
L 506.68688 51.88947 
L 506.68688 51.885455 
L 518.4 51.859699 
L 518.4 51.859699 
" style="fill:none;stroke:#ff7f0e;stroke-linecap:square;stroke-width:1.5;"/>
   </g>
   <g id="line2d_47">
    <path clip-path="url(#pc7f18d2026)" d="M 272.42449 384.48 
L 272.42449 51.84 
" style="fill:none;stroke:#000000;stroke-dasharray:1.5,2.475;stroke-dashoffset:0;stroke-width:1.5;"/>
   </g>
   <g id="patch_3">
    <path d="M 72 384.48 
L 72 51.84 
" style="fill:none;stroke:#000000;stroke-linecap:square;stroke-linejoin:miter;stroke-width:0.8;"/>
   </g>
   <g id="patch_4">
    <path d="M 518.4 384.48 
L 518.4 51.84 
" style="fill:none;stroke:#000000;stroke-linecap:square;stroke-linejoin:miter;stroke-width:0.8;"/>
   </g>
   <g id="patch_5">
    <path d="M 72 384.48 
L 518.4 384.48 
" style="fill:none;stroke:#000000;stroke-linecap:square;stroke-linejoin:miter;stroke-width:0.8;"/>
   </g>
   <g id="patch_6">
    <path d="M 72 51.84 
L 518.4 51.84 
" style="fill:none;stroke:#000000;stroke-linecap:square;stroke-linejoin:miter;stroke-width:0.8;"/>
   </g>
   <g id="text_24">
    <!-- Projected cumulative 1st and 2nd doses -->
    <g transform="translate(174.848437 45.84)scale(0.12 -0.12)">
     <defs>
      <path d="M 1259 4147 
L 1259 2394 
L 2053 2394 
Q 2494 2394 2734 2622 
Q 2975 2850 2975 3272 
Q 2975 3691 2734 3919 
Q 2494 4147 2053 4147 
L 1259 4147 
z
M 628 4666 
L 2053 4666 
Q 2838 4666 3239 4311 
Q 3641 3956 3641 3272 
Q 3641 2581 3239 2228 
Q 2838 1875 2053 1875 
L 1259 1875 
L 1259 0 
L 628 0 
L 628 4666 
z
" id="DejaVuSans-50" transform="scale(0.015625)"/>
      <path d="M 603 3500 
L 1178 3500 
L 1178 -63 
Q 1178 -731 923 -1031 
Q 669 -1331 103 -1331 
L -116 -1331 
L -116 -844 
L 38 -844 
Q 366 -844 484 -692 
Q 603 -541 603 -63 
L 603 3500 
z
M 603 4863 
L 1178 4863 
L 1178 4134 
L 603 4134 
L 603 4863 
z
" id="DejaVuSans-6a" transform="scale(0.015625)"/>
     </defs>
     <use xlink:href="#DejaVuSans-50"/>
     <use x="58.552734" xlink:href="#DejaVuSans-72"/>
     <use x="97.416016" xlink:href="#DejaVuSans-6f"/>
     <use x="158.597656" xlink:href="#DejaVuSans-6a"/>
     <use x="186.380859" xlink:href="#DejaVuSans-65"/>
     <use x="247.904297" xlink:href="#DejaVuSans-63"/>
     <use x="302.884766" xlink:href="#DejaVuSans-74"/>
     <use x="342.09375" xlink:href="#DejaVuSans-65"/>
     <use x="403.617188" xlink:href="#DejaVuSans-64"/>
     <use x="467.09375" xlink:href="#DejaVuSans-20"/>
     <use x="498.880859" xlink:href="#DejaVuSans-63"/>
     <use x="553.861328" xlink:href="#DejaVuSans-75"/>
     <use x="617.240234" xlink:href="#DejaVuSans-6d"/>
     <use x="714.652344" xlink:href="#DejaVuSans-75"/>
     <use x="778.03125" xlink:href="#DejaVuSans-6c"/>
     <use x="805.814453" xlink:href="#DejaVuSans-61"/>
     <use x="867.09375" xlink:href="#DejaVuSans-74"/>
     <use x="906.302734" xlink:href="#DejaVuSans-69"/>
     <use x="934.085938" xlink:href="#DejaVuSans-76"/>
     <use x="993.265625" xlink:href="#DejaVuSans-65"/>
     <use x="1054.789062" xlink:href="#DejaVuSans-20"/>
     <use x="1086.576172" xlink:href="#DejaVuSans-31"/>
     <use x="1150.199219" xlink:href="#DejaVuSans-73"/>
     <use x="1202.298828" xlink:href="#DejaVuSans-74"/>
     <use x="1241.507812" xlink:href="#DejaVuSans-20"/>
     <use x="1273.294922" xlink:href="#DejaVuSans-61"/>
     <use x="1334.574219" xlink:href="#DejaVuSans-6e"/>
     <use x="1397.953125" xlink:href="#DejaVuSans-64"/>
     <use x="1461.429688" xlink:href="#DejaVuSans-20"/>
     <use x="1493.216797" xlink:href="#DejaVuSans-32"/>
     <use x="1556.839844" xlink:href="#DejaVuSans-6e"/>
     <use x="1620.21875" xlink:href="#DejaVuSans-64"/>
     <use x="1683.695312" xlink:href="#DejaVuSans-20"/>
     <use x="1715.482422" xlink:href="#DejaVuSans-64"/>
     <use x="1778.958984" xlink:href="#DejaVuSans-6f"/>
     <use x="1840.140625" xlink:href="#DejaVuSans-73"/>
     <use x="1892.240234" xlink:href="#DejaVuSans-65"/>
     <use x="1953.763672" xlink:href="#DejaVuSans-73"/>
    </g>
   </g>
   <g id="legend_1">
    <g id="patch_7">
     <path d="M 77.831 131.865269 
L 186.136619 131.865269 
Q 187.802619 131.865269 187.802619 130.199269 
L 187.802619 57.671 
Q 187.802619 56.005 186.136619 56.005 
L 77.831 56.005 
Q 76.165 56.005 76.165 57.671 
L 76.165 130.199269 
Q 76.165 131.865269 77.831 131.865269 
z
" style="fill:#ffffff;opacity:0.8;stroke:#cccccc;stroke-linejoin:miter;"/>
    </g>
    <g id="line2d_48">
     <path d="M 79.497 62.750998 
L 96.157 62.750998 
" style="fill:none;stroke:#1f77b4;stroke-linecap:square;stroke-width:1.5;"/>
    </g>
    <g id="line2d_49"/>
    <g id="text_25">
     <!-- First doses -->
     <g transform="translate(102.821 65.666498)scale(0.0833 -0.0833)">
      <defs>
       <path d="M 628 4666 
L 3309 4666 
L 3309 4134 
L 1259 4134 
L 1259 2759 
L 3109 2759 
L 3109 2228 
L 1259 2228 
L 1259 0 
L 628 0 
L 628 4666 
z
" id="DejaVuSans-46" transform="scale(0.015625)"/>
      </defs>
      <use xlink:href="#DejaVuSans-46"/>
      <use x="50.269531" xlink:href="#DejaVuSans-69"/>
      <use x="78.052734" xlink:href="#DejaVuSans-72"/>
      <use x="119.166016" xlink:href="#DejaVuSans-73"/>
      <use x="171.265625" xlink:href="#DejaVuSans-74"/>
      <use x="210.474609" xlink:href="#DejaVuSans-20"/>
      <use x="242.261719" xlink:href="#DejaVuSans-64"/>
      <use x="305.738281" xlink:href="#DejaVuSans-6f"/>
      <use x="366.919922" xlink:href="#DejaVuSans-73"/>
      <use x="419.019531" xlink:href="#DejaVuSans-65"/>
      <use x="480.542969" xlink:href="#DejaVuSans-73"/>
     </g>
    </g>
    <g id="line2d_50">
     <path d="M 79.497 74.977877 
L 96.157 74.977877 
" style="fill:none;stroke:#ff7f0e;stroke-linecap:square;stroke-width:1.5;"/>
    </g>
    <g id="line2d_51"/>
    <g id="text_26">
     <!-- Second doses -->
     <g transform="translate(102.821 77.893377)scale(0.0833 -0.0833)">
      <use xlink:href="#DejaVuSans-53"/>
      <use x="63.476562" xlink:href="#DejaVuSans-65"/>
      <use x="125" xlink:href="#DejaVuSans-63"/>
      <use x="179.980469" xlink:href="#DejaVuSans-6f"/>
      <use x="241.162109" xlink:href="#DejaVuSans-6e"/>
      <use x="304.541016" xlink:href="#DejaVuSans-64"/>
      <use x="368.017578" xlink:href="#DejaVuSans-20"/>
      <use x="399.804688" xlink:href="#DejaVuSans-64"/>
      <use x="463.28125" xlink:href="#DejaVuSans-6f"/>
      <use x="524.462891" xlink:href="#DejaVuSans-73"/>
      <use x="576.5625" xlink:href="#DejaVuSans-65"/>
      <use x="638.085938" xlink:href="#DejaVuSans-73"/>
     </g>
    </g>
    <g id="patch_8">
     <path d="M 79.497 90.120255 
L 96.157 90.120255 
L 96.157 84.289255 
L 79.497 84.289255 
z
" style="fill:#ff0000;opacity:0.35;"/>
    </g>
    <g id="text_27">
     <!-- Phase 1a -->
     <g transform="translate(102.821 90.120255)scale(0.0833 -0.0833)">
      <defs>
       <path d="M 3513 2113 
L 3513 0 
L 2938 0 
L 2938 2094 
Q 2938 2591 2744 2837 
Q 2550 3084 2163 3084 
Q 1697 3084 1428 2787 
Q 1159 2491 1159 1978 
L 1159 0 
L 581 0 
L 581 4863 
L 1159 4863 
L 1159 2956 
Q 1366 3272 1645 3428 
Q 1925 3584 2291 3584 
Q 2894 3584 3203 3211 
Q 3513 2838 3513 2113 
z
" id="DejaVuSans-68" transform="scale(0.015625)"/>
      </defs>
      <use xlink:href="#DejaVuSans-50"/>
      <use x="60.302734" xlink:href="#DejaVuSans-68"/>
      <use x="123.681641" xlink:href="#DejaVuSans-61"/>
      <use x="184.960938" xlink:href="#DejaVuSans-73"/>
      <use x="237.060547" xlink:href="#DejaVuSans-65"/>
      <use x="298.583984" xlink:href="#DejaVuSans-20"/>
      <use x="330.371094" xlink:href="#DejaVuSans-31"/>
      <use x="393.994141" xlink:href="#DejaVuSans-61"/>
     </g>
    </g>
    <g id="patch_9">
     <path d="M 79.497 102.347133 
L 96.157 102.347133 
L 96.157 96.516133 
L 79.497 96.516133 
z
" style="fill:#ffa500;opacity:0.35;"/>
    </g>
    <g id="text_28">
     <!-- Phase 1b -->
     <g transform="translate(102.821 102.347133)scale(0.0833 -0.0833)">
      <defs>
       <path d="M 3116 1747 
Q 3116 2381 2855 2742 
Q 2594 3103 2138 3103 
Q 1681 3103 1420 2742 
Q 1159 2381 1159 1747 
Q 1159 1113 1420 752 
Q 1681 391 2138 391 
Q 2594 391 2855 752 
Q 3116 1113 3116 1747 
z
M 1159 2969 
Q 1341 3281 1617 3432 
Q 1894 3584 2278 3584 
Q 2916 3584 3314 3078 
Q 3713 2572 3713 1747 
Q 3713 922 3314 415 
Q 2916 -91 2278 -91 
Q 1894 -91 1617 61 
Q 1341 213 1159 525 
L 1159 0 
L 581 0 
L 581 4863 
L 1159 4863 
L 1159 2969 
z
" id="DejaVuSans-62" transform="scale(0.015625)"/>
      </defs>
      <use xlink:href="#DejaVuSans-50"/>
      <use x="60.302734" xlink:href="#DejaVuSans-68"/>
      <use x="123.681641" xlink:href="#DejaVuSans-61"/>
      <use x="184.960938" xlink:href="#DejaVuSans-73"/>
      <use x="237.060547" xlink:href="#DejaVuSans-65"/>
      <use x="298.583984" xlink:href="#DejaVuSans-20"/>
      <use x="330.371094" xlink:href="#DejaVuSans-31"/>
      <use x="393.994141" xlink:href="#DejaVuSans-62"/>
     </g>
    </g>
    <g id="patch_10">
     <path d="M 79.497 114.574011 
L 96.157 114.574011 
L 96.157 108.743011 
L 79.497 108.743011 
z
" style="fill:#ffff00;opacity:0.35;"/>
    </g>
    <g id="text_29">
     <!-- Phase 2a -->
     <g transform="translate(102.821 114.574011)scale(0.0833 -0.0833)">
      <use xlink:href="#DejaVuSans-50"/>
      <use x="60.302734" xlink:href="#DejaVuSans-68"/>
      <use x="123.681641" xlink:href="#DejaVuSans-61"/>
      <use x="184.960938" xlink:href="#DejaVuSans-73"/>
      <use x="237.060547" xlink:href="#DejaVuSans-65"/>
      <use x="298.583984" xlink:href="#DejaVuSans-20"/>
      <use x="330.371094" xlink:href="#DejaVuSans-32"/>
      <use x="393.994141" xlink:href="#DejaVuSans-61"/>
     </g>
    </g>
    <g id="line2d_52">
     <path d="M 79.497 123.885389 
L 96.157 123.885389 
" style="fill:none;stroke:#000000;stroke-dasharray:1.5,2.475;stroke-dashoffset:0;stroke-width:1.5;"/>
    </g>
    <g id="line2d_53"/>
    <g id="text_30">
     <!-- Today (2021-07-26) -->
     <g transform="translate(102.821 126.800889)scale(0.0833 -0.0833)">
      <defs>
       <path d="M -19 4666 
L 3928 4666 
L 3928 4134 
L 2272 4134 
L 2272 0 
L 1638 0 
L 1638 4134 
L -19 4134 
L -19 4666 
z
" id="DejaVuSans-54" transform="scale(0.015625)"/>
       <path d="M 313 2009 
L 1997 2009 
L 1997 1497 
L 313 1497 
L 313 2009 
z
" id="DejaVuSans-2d" transform="scale(0.015625)"/>
       <path d="M 525 4666 
L 3525 4666 
L 3525 4397 
L 1831 0 
L 1172 0 
L 2766 4134 
L 525 4134 
L 525 4666 
z
" id="DejaVuSans-37" transform="scale(0.015625)"/>
      </defs>
      <use xlink:href="#DejaVuSans-54"/>
      <use x="44.083984" xlink:href="#DejaVuSans-6f"/>
      <use x="105.265625" xlink:href="#DejaVuSans-64"/>
      <use x="168.742188" xlink:href="#DejaVuSans-61"/>
      <use x="230.021484" xlink:href="#DejaVuSans-79"/>
      <use x="289.201172" xlink:href="#DejaVuSans-20"/>
      <use x="320.988281" xlink:href="#DejaVuSans-28"/>
      <use x="360.001953" xlink:href="#DejaVuSans-32"/>
      <use x="423.625" xlink:href="#DejaVuSans-30"/>
      <use x="487.248047" xlink:href="#DejaVuSans-32"/>
      <use x="550.871094" xlink:href="#DejaVuSans-31"/>
      <use x="614.494141" xlink:href="#DejaVuSans-2d"/>
      <use x="650.578125" xlink:href="#DejaVuSans-30"/>
      <use x="714.201172" xlink:href="#DejaVuSans-37"/>
      <use x="777.824219" xlink:href="#DejaVuSans-2d"/>
      <use x="813.908203" xlink:href="#DejaVuSans-32"/>
      <use x="877.53125" xlink:href="#DejaVuSans-36"/>
      <use x="941.154297" xlink:href="#DejaVuSans-29"/>
     </g>
    </g>
   </g>
  </g>
  <g id="axes_2">
   <g id="matplotlib.axis_3">
    <g id="ytick_12">
     <g id="line2d_54">
      <defs>
       <path d="M 0 0 
L 3.5 0 
" id="m365adc0c4a" style="stroke:#000000;stroke-width:0.8;"/>
      </defs>
      <g>
       <use style="stroke:#000000;stroke-width:0.8;" x="518.4" xlink:href="#m365adc0c4a" y="384.48"/>
      </g>
     </g>
     <g id="text_31">
      <!-- 0 -->
      <g transform="translate(525.4 388.279219)scale(0.1 -0.1)">
       <use xlink:href="#DejaVuSans-30"/>
      </g>
     </g>
    </g>
    <g id="ytick_13">
     <g id="line2d_55">
      <g>
       <use style="stroke:#000000;stroke-width:0.8;" x="518.4" xlink:href="#m365adc0c4a" y="351.216"/>
      </g>
     </g>
     <g id="text_32">
      <!-- 10 -->
      <g transform="translate(525.4 355.015219)scale(0.1 -0.1)">
       <use xlink:href="#DejaVuSans-31"/>
       <use x="63.623047" xlink:href="#DejaVuSans-30"/>
      </g>
     </g>
    </g>
    <g id="ytick_14">
     <g id="line2d_56">
      <g>
       <use style="stroke:#000000;stroke-width:0.8;" x="518.4" xlink:href="#m365adc0c4a" y="317.952"/>
      </g>
     </g>
     <g id="text_33">
      <!-- 20 -->
      <g transform="translate(525.4 321.751219)scale(0.1 -0.1)">
       <use xlink:href="#DejaVuSans-32"/>
       <use x="63.623047" xlink:href="#DejaVuSans-30"/>
      </g>
     </g>
    </g>
    <g id="ytick_15">
     <g id="line2d_57">
      <g>
       <use style="stroke:#000000;stroke-width:0.8;" x="518.4" xlink:href="#m365adc0c4a" y="284.688"/>
      </g>
     </g>
     <g id="text_34">
      <!-- 30 -->
      <g transform="translate(525.4 288.487219)scale(0.1 -0.1)">
       <defs>
        <path d="M 2597 2516 
Q 3050 2419 3304 2112 
Q 3559 1806 3559 1356 
Q 3559 666 3084 287 
Q 2609 -91 1734 -91 
Q 1441 -91 1130 -33 
Q 819 25 488 141 
L 488 750 
Q 750 597 1062 519 
Q 1375 441 1716 441 
Q 2309 441 2620 675 
Q 2931 909 2931 1356 
Q 2931 1769 2642 2001 
Q 2353 2234 1838 2234 
L 1294 2234 
L 1294 2753 
L 1863 2753 
Q 2328 2753 2575 2939 
Q 2822 3125 2822 3475 
Q 2822 3834 2567 4026 
Q 2313 4219 1838 4219 
Q 1578 4219 1281 4162 
Q 984 4106 628 3988 
L 628 4550 
Q 988 4650 1302 4700 
Q 1616 4750 1894 4750 
Q 2613 4750 3031 4423 
Q 3450 4097 3450 3541 
Q 3450 3153 3228 2886 
Q 3006 2619 2597 2516 
z
" id="DejaVuSans-33" transform="scale(0.015625)"/>
       </defs>
       <use xlink:href="#DejaVuSans-33"/>
       <use x="63.623047" xlink:href="#DejaVuSans-30"/>
      </g>
     </g>
    </g>
    <g id="ytick_16">
     <g id="line2d_58">
      <g>
       <use style="stroke:#000000;stroke-width:0.8;" x="518.4" xlink:href="#m365adc0c4a" y="251.424"/>
      </g>
     </g>
     <g id="text_35">
      <!-- 40 -->
      <g transform="translate(525.4 255.223219)scale(0.1 -0.1)">
       <use xlink:href="#DejaVuSans-34"/>
       <use x="63.623047" xlink:href="#DejaVuSans-30"/>
      </g>
     </g>
    </g>
    <g id="ytick_17">
     <g id="line2d_59">
      <g>
       <use style="stroke:#000000;stroke-width:0.8;" x="518.4" xlink:href="#m365adc0c4a" y="218.16"/>
      </g>
     </g>
     <g id="text_36">
      <!-- 50 -->
      <g transform="translate(525.4 221.959219)scale(0.1 -0.1)">
       <defs>
        <path d="M 691 4666 
L 3169 4666 
L 3169 4134 
L 1269 4134 
L 1269 2991 
Q 1406 3038 1543 3061 
Q 1681 3084 1819 3084 
Q 2600 3084 3056 2656 
Q 3513 2228 3513 1497 
Q 3513 744 3044 326 
Q 2575 -91 1722 -91 
Q 1428 -91 1123 -41 
Q 819 9 494 109 
L 494 744 
Q 775 591 1075 516 
Q 1375 441 1709 441 
Q 2250 441 2565 725 
Q 2881 1009 2881 1497 
Q 2881 1984 2565 2268 
Q 2250 2553 1709 2553 
Q 1456 2553 1204 2497 
Q 953 2441 691 2322 
L 691 4666 
z
" id="DejaVuSans-35" transform="scale(0.015625)"/>
       </defs>
       <use xlink:href="#DejaVuSans-35"/>
       <use x="63.623047" xlink:href="#DejaVuSans-30"/>
      </g>
     </g>
    </g>
    <g id="ytick_18">
     <g id="line2d_60">
      <g>
       <use style="stroke:#000000;stroke-width:0.8;" x="518.4" xlink:href="#m365adc0c4a" y="184.896"/>
      </g>
     </g>
     <g id="text_37">
      <!-- 60 -->
      <g transform="translate(525.4 188.695219)scale(0.1 -0.1)">
       <use xlink:href="#DejaVuSans-36"/>
       <use x="63.623047" xlink:href="#DejaVuSans-30"/>
      </g>
     </g>
    </g>
    <g id="ytick_19">
     <g id="line2d_61">
      <g>
       <use style="stroke:#000000;stroke-width:0.8;" x="518.4" xlink:href="#m365adc0c4a" y="151.632"/>
      </g>
     </g>
     <g id="text_38">
      <!-- 70 -->
      <g transform="translate(525.4 155.431219)scale(0.1 -0.1)">
       <use xlink:href="#DejaVuSans-37"/>
       <use x="63.623047" xlink:href="#DejaVuSans-30"/>
      </g>
     </g>
    </g>
    <g id="ytick_20">
     <g id="line2d_62">
      <g>
       <use style="stroke:#000000;stroke-width:0.8;" x="518.4" xlink:href="#m365adc0c4a" y="118.368"/>
      </g>
     </g>
     <g id="text_39">
      <!-- 80 -->
      <g transform="translate(525.4 122.167219)scale(0.1 -0.1)">
       <use xlink:href="#DejaVuSans-38"/>
       <use x="63.623047" xlink:href="#DejaVuSans-30"/>
      </g>
     </g>
    </g>
    <g id="ytick_21">
     <g id="line2d_63">
      <g>
       <use style="stroke:#000000;stroke-width:0.8;" x="518.4" xlink:href="#m365adc0c4a" y="85.104"/>
      </g>
     </g>
     <g id="text_40">
      <!-- 90 -->
      <g transform="translate(525.4 88.903219)scale(0.1 -0.1)">
       <defs>
        <path d="M 703 97 
L 703 672 
Q 941 559 1184 500 
Q 1428 441 1663 441 
Q 2288 441 2617 861 
Q 2947 1281 2994 2138 
Q 2813 1869 2534 1725 
Q 2256 1581 1919 1581 
Q 1219 1581 811 2004 
Q 403 2428 403 3163 
Q 403 3881 828 4315 
Q 1253 4750 1959 4750 
Q 2769 4750 3195 4129 
Q 3622 3509 3622 2328 
Q 3622 1225 3098 567 
Q 2575 -91 1691 -91 
Q 1453 -91 1209 -44 
Q 966 3 703 97 
z
M 1959 2075 
Q 2384 2075 2632 2365 
Q 2881 2656 2881 3163 
Q 2881 3666 2632 3958 
Q 2384 4250 1959 4250 
Q 1534 4250 1286 3958 
Q 1038 3666 1038 3163 
Q 1038 2656 1286 2365 
Q 1534 2075 1959 2075 
z
" id="DejaVuSans-39" transform="scale(0.015625)"/>
       </defs>
       <use xlink:href="#DejaVuSans-39"/>
       <use x="63.623047" xlink:href="#DejaVuSans-30"/>
      </g>
     </g>
    </g>
    <g id="ytick_22">
     <g id="line2d_64">
      <g>
       <use style="stroke:#000000;stroke-width:0.8;" x="518.4" xlink:href="#m365adc0c4a" y="51.84"/>
      </g>
     </g>
     <g id="text_41">
      <!-- 100 -->
      <g transform="translate(525.4 55.639219)scale(0.1 -0.1)">
       <use xlink:href="#DejaVuSans-31"/>
       <use x="63.623047" xlink:href="#DejaVuSans-30"/>
       <use x="127.246094" xlink:href="#DejaVuSans-30"/>
      </g>
     </g>
    </g>
    <g id="text_42">
     <!-- Percentage of population aged 12+ -->
     <g transform="translate(556.085938 307.106875)rotate(-90)scale(0.1 -0.1)">
      <defs>
       <path d="M 2375 4863 
L 2375 4384 
L 1825 4384 
Q 1516 4384 1395 4259 
Q 1275 4134 1275 3809 
L 1275 3500 
L 2222 3500 
L 2222 3053 
L 1275 3053 
L 1275 0 
L 697 0 
L 697 3053 
L 147 3053 
L 147 3500 
L 697 3500 
L 697 3744 
Q 697 4328 969 4595 
Q 1241 4863 1831 4863 
L 2375 4863 
z
" id="DejaVuSans-66" transform="scale(0.015625)"/>
       <path d="M 2944 4013 
L 2944 2272 
L 4684 2272 
L 4684 1741 
L 2944 1741 
L 2944 0 
L 2419 0 
L 2419 1741 
L 678 1741 
L 678 2272 
L 2419 2272 
L 2419 4013 
L 2944 4013 
z
" id="DejaVuSans-2b" transform="scale(0.015625)"/>
      </defs>
      <use xlink:href="#DejaVuSans-50"/>
      <use x="56.677734" xlink:href="#DejaVuSans-65"/>
      <use x="118.201172" xlink:href="#DejaVuSans-72"/>
      <use x="157.064453" xlink:href="#DejaVuSans-63"/>
      <use x="212.044922" xlink:href="#DejaVuSans-65"/>
      <use x="273.568359" xlink:href="#DejaVuSans-6e"/>
      <use x="336.947266" xlink:href="#DejaVuSans-74"/>
      <use x="376.15625" xlink:href="#DejaVuSans-61"/>
      <use x="437.435547" xlink:href="#DejaVuSans-67"/>
      <use x="500.912109" xlink:href="#DejaVuSans-65"/>
      <use x="562.435547" xlink:href="#DejaVuSans-20"/>
      <use x="594.222656" xlink:href="#DejaVuSans-6f"/>
      <use x="655.404297" xlink:href="#DejaVuSans-66"/>
      <use x="690.609375" xlink:href="#DejaVuSans-20"/>
      <use x="722.396484" xlink:href="#DejaVuSans-70"/>
      <use x="785.873047" xlink:href="#DejaVuSans-6f"/>
      <use x="847.054688" xlink:href="#DejaVuSans-70"/>
      <use x="910.53125" xlink:href="#DejaVuSans-75"/>
      <use x="973.910156" xlink:href="#DejaVuSans-6c"/>
      <use x="1001.693359" xlink:href="#DejaVuSans-61"/>
      <use x="1062.972656" xlink:href="#DejaVuSans-74"/>
      <use x="1102.181641" xlink:href="#DejaVuSans-69"/>
      <use x="1129.964844" xlink:href="#DejaVuSans-6f"/>
      <use x="1191.146484" xlink:href="#DejaVuSans-6e"/>
      <use x="1254.525391" xlink:href="#DejaVuSans-20"/>
      <use x="1286.3125" xlink:href="#DejaVuSans-61"/>
      <use x="1347.591797" xlink:href="#DejaVuSans-67"/>
      <use x="1411.068359" xlink:href="#DejaVuSans-65"/>
      <use x="1472.591797" xlink:href="#DejaVuSans-64"/>
      <use x="1536.068359" xlink:href="#DejaVuSans-20"/>
      <use x="1567.855469" xlink:href="#DejaVuSans-31"/>
      <use x="1631.478516" xlink:href="#DejaVuSans-32"/>
      <use x="1695.101562" xlink:href="#DejaVuSans-2b"/>
     </g>
    </g>
   </g>
   <g id="patch_11">
    <path d="M 72 384.48 
L 72 51.84 
" style="fill:none;stroke:#000000;stroke-linecap:square;stroke-linejoin:miter;stroke-width:0.8;"/>
   </g>
   <g id="patch_12">
    <path d="M 518.4 384.48 
L 518.4 51.84 
" style="fill:none;stroke:#000000;stroke-linecap:square;stroke-linejoin:miter;stroke-width:0.8;"/>
   </g>
   <g id="patch_13">
    <path d="M 72 384.48 
L 518.4 384.48 
" style="fill:none;stroke:#000000;stroke-linecap:square;stroke-linejoin:miter;stroke-width:0.8;"/>
   </g>
   <g id="patch_14">
    <path d="M 72 51.84 
L 518.4 51.84 
" style="fill:none;stroke:#000000;stroke-linecap:square;stroke-linejoin:miter;stroke-width:0.8;"/>
   </g>
  </g>
 </g>
 <defs>
  <clipPath id="pc7f18d2026">
   <rect height="332.64" width="446.4" x="72" y="51.84"/>
  </clipPath>
 </defs>
</svg>
