<?xml version="1.0" encoding="utf-8" standalone="no"?>
<!DOCTYPE svg PUBLIC "-//W3C//DTD SVG 1.1//EN"
  "http://www.w3.org/Graphics/SVG/1.1/DTD/svg11.dtd">
<svg height="432pt" version="1.1" viewBox="0 0 576 432" width="576pt" xmlns="http://www.w3.org/2000/svg" xmlns:xlink="http://www.w3.org/1999/xlink">
 <metadata>
  <rdf:RDF xmlns:cc="http://creativecommons.org/ns#" xmlns:dc="http://purl.org/dc/elements/1.1/" xmlns:rdf="http://www.w3.org/1999/02/22-rdf-syntax-ns#">
   <cc:Work>
    <dc:type rdf:resource="http://purl.org/dc/dcmitype/StillImage"/>
    <dc:date>2021-07-22T13:58:40.076497</dc:date>
    <dc:format>image/svg+xml</dc:format>
    <dc:creator>
     <cc:Agent>
      <dc:title>Matplotlib v3.4.2, https://matplotlib.org/</dc:title>
     </cc:Agent>
    </dc:creator>
   </cc:Work>
  </rdf:RDF>
 </metadata>
 <defs>
  <style type="text/css">*{stroke-linecap:butt;stroke-linejoin:round;}</style>
 </defs>
 <g id="figure_1">
  <g id="patch_1">
   <path d="M 0 432 
L 576 432 
L 576 0 
L 0 0 
z
" style="fill:#ffffff;"/>
  </g>
  <g id="axes_1">
   <g id="patch_2">
    <path d="M 72 384.48 
L 518.4 384.48 
L 518.4 51.84 
L 72 51.84 
z
" style="fill:#ffffff;"/>
   </g>
   <g id="PolyCollection_1">
    <defs>
     <path d="M 108.440816 -47.52 
L 70.698542 -47.52 
L 70.698542 -380.16 
L 108.440816 -380.16 
L 108.440816 -380.16 
L 108.440816 -47.52 
z
" id="ma3e76865fe"/>
    </defs>
    <g clip-path="url(#p944d46acf3)">
     <use style="fill:#ff0000;fill-opacity:0.35;" x="0" xlink:href="#ma3e76865fe" y="432"/>
    </g>
   </g>
   <g id="PolyCollection_2">
    <defs>
     <path d="M 163.102041 -47.52 
L 108.440816 -47.52 
L 108.440816 -380.16 
L 163.102041 -380.16 
L 163.102041 -380.16 
L 163.102041 -47.52 
z
" id="mccc4fe02ee"/>
    </defs>
    <g clip-path="url(#p944d46acf3)">
     <use style="fill:#ffa500;fill-opacity:0.35;" x="0" xlink:href="#mccc4fe02ee" y="432"/>
    </g>
   </g>
   <g id="PolyCollection_3">
    <defs>
     <path d="M 291.946356 -47.52 
L 163.102041 -47.52 
L 163.102041 -380.16 
L 291.946356 -380.16 
L 291.946356 -380.16 
L 291.946356 -47.52 
z
" id="m2baeb4e666"/>
    </defs>
    <g clip-path="url(#p944d46acf3)">
     <use style="fill:#ffff00;fill-opacity:0.35;" x="0" xlink:href="#m2baeb4e666" y="432"/>
    </g>
   </g>
   <g id="PolyCollection_4">
    <defs>
     <path d="M 293.247813 -47.52 
L 291.946356 -47.52 
L 291.946356 -380.16 
L 293.247813 -380.16 
L 293.247813 -380.16 
L 293.247813 -47.52 
z
" id="ma288715a25"/>
    </defs>
    <g clip-path="url(#p944d46acf3)">
     <use style="fill:#ffff00;fill-opacity:0.3;" x="0" xlink:href="#ma288715a25" y="432"/>
    </g>
   </g>
   <g id="PolyCollection_5">
    <defs>
     <path d="M 294.549271 -47.52 
L 293.247813 -47.52 
L 293.247813 -380.16 
L 294.549271 -380.16 
L 294.549271 -380.16 
L 294.549271 -47.52 
z
" id="m3e82f888ab"/>
    </defs>
    <g clip-path="url(#p944d46acf3)">
     <use style="fill:#ffff00;fill-opacity:0.27;" x="0" xlink:href="#m3e82f888ab" y="432"/>
    </g>
   </g>
   <g id="PolyCollection_6">
    <defs>
     <path d="M 295.850729 -47.52 
L 294.549271 -47.52 
L 294.549271 -380.16 
L 295.850729 -380.16 
L 295.850729 -380.16 
L 295.850729 -47.52 
z
" id="m6be7c55ce3"/>
    </defs>
    <g clip-path="url(#p944d46acf3)">
     <use style="fill:#ffff00;fill-opacity:0.24;" x="0" xlink:href="#m6be7c55ce3" y="432"/>
    </g>
   </g>
   <g id="PolyCollection_7">
    <defs>
     <path d="M 297.152187 -47.52 
L 295.850729 -47.52 
L 295.850729 -380.16 
L 297.152187 -380.16 
L 297.152187 -380.16 
L 297.152187 -47.52 
z
" id="me2f9306ead"/>
    </defs>
    <g clip-path="url(#p944d46acf3)">
     <use style="fill:#ffff00;fill-opacity:0.21;" x="0" xlink:href="#me2f9306ead" y="432"/>
    </g>
   </g>
   <g id="PolyCollection_8">
    <defs>
     <path d="M 298.453644 -47.52 
L 297.152187 -47.52 
L 297.152187 -380.16 
L 298.453644 -380.16 
L 298.453644 -380.16 
L 298.453644 -47.52 
z
" id="m79c3ed6a69"/>
    </defs>
    <g clip-path="url(#p944d46acf3)">
     <use style="fill:#ffff00;fill-opacity:0.18;" x="0" xlink:href="#m79c3ed6a69" y="432"/>
    </g>
   </g>
   <g id="PolyCollection_9">
    <defs>
     <path d="M 299.755102 -47.52 
L 298.453644 -47.52 
L 298.453644 -380.16 
L 299.755102 -380.16 
L 299.755102 -380.16 
L 299.755102 -47.52 
z
" id="m6c245bfb31"/>
    </defs>
    <g clip-path="url(#p944d46acf3)">
     <use style="fill:#ffff00;fill-opacity:0.15;" x="0" xlink:href="#m6c245bfb31" y="432"/>
    </g>
   </g>
   <g id="PolyCollection_10">
    <defs>
     <path d="M 301.05656 -47.52 
L 299.755102 -47.52 
L 299.755102 -380.16 
L 301.05656 -380.16 
L 301.05656 -380.16 
L 301.05656 -47.52 
z
" id="m13288196e6"/>
    </defs>
    <g clip-path="url(#p944d46acf3)">
     <use style="fill:#ffff00;fill-opacity:0.12;" x="0" xlink:href="#m13288196e6" y="432"/>
    </g>
   </g>
   <g id="PolyCollection_11">
    <defs>
     <path d="M 302.358017 -47.52 
L 301.05656 -47.52 
L 301.05656 -380.16 
L 302.358017 -380.16 
L 302.358017 -380.16 
L 302.358017 -47.52 
z
" id="m29ab718e55"/>
    </defs>
    <g clip-path="url(#p944d46acf3)">
     <use style="fill:#ffff00;fill-opacity:0.09;" x="0" xlink:href="#m29ab718e55" y="432"/>
    </g>
   </g>
   <g id="PolyCollection_12">
    <defs>
     <path d="M 303.659475 -47.52 
L 302.358017 -47.52 
L 302.358017 -380.16 
L 303.659475 -380.16 
L 303.659475 -380.16 
L 303.659475 -47.52 
z
" id="mea56fd866e"/>
    </defs>
    <g clip-path="url(#p944d46acf3)">
     <use style="fill:#ffff00;fill-opacity:0.06;" x="0" xlink:href="#mea56fd866e" y="432"/>
    </g>
   </g>
   <g id="PolyCollection_13">
    <defs>
     <path d="M 304.960933 -47.52 
L 303.659475 -47.52 
L 303.659475 -380.16 
L 304.960933 -380.16 
L 304.960933 -380.16 
L 304.960933 -47.52 
z
" id="m3948416b4c"/>
    </defs>
    <g clip-path="url(#p944d46acf3)">
     <use style="fill:#ffff00;fill-opacity:0.03;" x="0" xlink:href="#m3948416b4c" y="432"/>
    </g>
   </g>
   <g id="matplotlib.axis_1">
    <g id="xtick_1">
     <g id="line2d_1">
      <path clip-path="url(#p944d46acf3)" d="M 81.110204 384.48 
L 81.110204 51.84 
" style="fill:none;stroke:#000000;stroke-dasharray:0.8,1.32;stroke-dashoffset:0;stroke-width:0.8;"/>
     </g>
     <g id="line2d_2">
      <defs>
       <path d="M 0 0 
L 0 3.5 
" id="m083d89c78d" style="stroke:#000000;stroke-width:0.8;"/>
      </defs>
      <g>
       <use style="stroke:#000000;stroke-width:0.8;" x="81.110204" xlink:href="#m083d89c78d" y="384.48"/>
      </g>
     </g>
     <g id="text_1">
      <!-- Mar -->
      <g transform="translate(71.67661 399.078438)scale(0.1 -0.1)">
       <defs>
        <path d="M 628 4666 
L 1569 4666 
L 2759 1491 
L 3956 4666 
L 4897 4666 
L 4897 0 
L 4281 0 
L 4281 4097 
L 3078 897 
L 2444 897 
L 1241 4097 
L 1241 0 
L 628 0 
L 628 4666 
z
" id="DejaVuSans-4d" transform="scale(0.015625)"/>
        <path d="M 2194 1759 
Q 1497 1759 1228 1600 
Q 959 1441 959 1056 
Q 959 750 1161 570 
Q 1363 391 1709 391 
Q 2188 391 2477 730 
Q 2766 1069 2766 1631 
L 2766 1759 
L 2194 1759 
z
M 3341 1997 
L 3341 0 
L 2766 0 
L 2766 531 
Q 2569 213 2275 61 
Q 1981 -91 1556 -91 
Q 1019 -91 701 211 
Q 384 513 384 1019 
Q 384 1609 779 1909 
Q 1175 2209 1959 2209 
L 2766 2209 
L 2766 2266 
Q 2766 2663 2505 2880 
Q 2244 3097 1772 3097 
Q 1472 3097 1187 3025 
Q 903 2953 641 2809 
L 641 3341 
Q 956 3463 1253 3523 
Q 1550 3584 1831 3584 
Q 2591 3584 2966 3190 
Q 3341 2797 3341 1997 
z
" id="DejaVuSans-61" transform="scale(0.015625)"/>
        <path d="M 2631 2963 
Q 2534 3019 2420 3045 
Q 2306 3072 2169 3072 
Q 1681 3072 1420 2755 
Q 1159 2438 1159 1844 
L 1159 0 
L 581 0 
L 581 3500 
L 1159 3500 
L 1159 2956 
Q 1341 3275 1631 3429 
Q 1922 3584 2338 3584 
Q 2397 3584 2469 3576 
Q 2541 3569 2628 3553 
L 2631 2963 
z
" id="DejaVuSans-72" transform="scale(0.015625)"/>
       </defs>
       <use xlink:href="#DejaVuSans-4d"/>
       <use x="86.279297" xlink:href="#DejaVuSans-61"/>
       <use x="147.558594" xlink:href="#DejaVuSans-72"/>
      </g>
     </g>
    </g>
    <g id="xtick_2">
     <g id="line2d_3">
      <path clip-path="url(#p944d46acf3)" d="M 121.455394 384.48 
L 121.455394 51.84 
" style="fill:none;stroke:#000000;stroke-dasharray:0.8,1.32;stroke-dashoffset:0;stroke-width:0.8;"/>
     </g>
     <g id="line2d_4">
      <g>
       <use style="stroke:#000000;stroke-width:0.8;" x="121.455394" xlink:href="#m083d89c78d" y="384.48"/>
      </g>
     </g>
     <g id="text_2">
      <!-- Apr -->
      <g transform="translate(112.805394 399.078438)scale(0.1 -0.1)">
       <defs>
        <path d="M 2188 4044 
L 1331 1722 
L 3047 1722 
L 2188 4044 
z
M 1831 4666 
L 2547 4666 
L 4325 0 
L 3669 0 
L 3244 1197 
L 1141 1197 
L 716 0 
L 50 0 
L 1831 4666 
z
" id="DejaVuSans-41" transform="scale(0.015625)"/>
        <path d="M 1159 525 
L 1159 -1331 
L 581 -1331 
L 581 3500 
L 1159 3500 
L 1159 2969 
Q 1341 3281 1617 3432 
Q 1894 3584 2278 3584 
Q 2916 3584 3314 3078 
Q 3713 2572 3713 1747 
Q 3713 922 3314 415 
Q 2916 -91 2278 -91 
Q 1894 -91 1617 61 
Q 1341 213 1159 525 
z
M 3116 1747 
Q 3116 2381 2855 2742 
Q 2594 3103 2138 3103 
Q 1681 3103 1420 2742 
Q 1159 2381 1159 1747 
Q 1159 1113 1420 752 
Q 1681 391 2138 391 
Q 2594 391 2855 752 
Q 3116 1113 3116 1747 
z
" id="DejaVuSans-70" transform="scale(0.015625)"/>
       </defs>
       <use xlink:href="#DejaVuSans-41"/>
       <use x="68.408203" xlink:href="#DejaVuSans-70"/>
       <use x="131.884766" xlink:href="#DejaVuSans-72"/>
      </g>
     </g>
    </g>
    <g id="xtick_3">
     <g id="line2d_5">
      <path clip-path="url(#p944d46acf3)" d="M 160.499125 384.48 
L 160.499125 51.84 
" style="fill:none;stroke:#000000;stroke-dasharray:0.8,1.32;stroke-dashoffset:0;stroke-width:0.8;"/>
     </g>
     <g id="line2d_6">
      <g>
       <use style="stroke:#000000;stroke-width:0.8;" x="160.499125" xlink:href="#m083d89c78d" y="384.48"/>
      </g>
     </g>
     <g id="text_3">
      <!-- May -->
      <g transform="translate(150.161625 399.078438)scale(0.1 -0.1)">
       <defs>
        <path d="M 2059 -325 
Q 1816 -950 1584 -1140 
Q 1353 -1331 966 -1331 
L 506 -1331 
L 506 -850 
L 844 -850 
Q 1081 -850 1212 -737 
Q 1344 -625 1503 -206 
L 1606 56 
L 191 3500 
L 800 3500 
L 1894 763 
L 2988 3500 
L 3597 3500 
L 2059 -325 
z
" id="DejaVuSans-79" transform="scale(0.015625)"/>
       </defs>
       <use xlink:href="#DejaVuSans-4d"/>
       <use x="86.279297" xlink:href="#DejaVuSans-61"/>
       <use x="147.558594" xlink:href="#DejaVuSans-79"/>
      </g>
     </g>
    </g>
    <g id="xtick_4">
     <g id="line2d_7">
      <path clip-path="url(#p944d46acf3)" d="M 200.844315 384.48 
L 200.844315 51.84 
" style="fill:none;stroke:#000000;stroke-dasharray:0.8,1.32;stroke-dashoffset:0;stroke-width:0.8;"/>
     </g>
     <g id="line2d_8">
      <g>
       <use style="stroke:#000000;stroke-width:0.8;" x="200.844315" xlink:href="#m083d89c78d" y="384.48"/>
      </g>
     </g>
     <g id="text_4">
      <!-- Jun -->
      <g transform="translate(193.031815 399.078438)scale(0.1 -0.1)">
       <defs>
        <path d="M 628 4666 
L 1259 4666 
L 1259 325 
Q 1259 -519 939 -900 
Q 619 -1281 -91 -1281 
L -331 -1281 
L -331 -750 
L -134 -750 
Q 284 -750 456 -515 
Q 628 -281 628 325 
L 628 4666 
z
" id="DejaVuSans-4a" transform="scale(0.015625)"/>
        <path d="M 544 1381 
L 544 3500 
L 1119 3500 
L 1119 1403 
Q 1119 906 1312 657 
Q 1506 409 1894 409 
Q 2359 409 2629 706 
Q 2900 1003 2900 1516 
L 2900 3500 
L 3475 3500 
L 3475 0 
L 2900 0 
L 2900 538 
Q 2691 219 2414 64 
Q 2138 -91 1772 -91 
Q 1169 -91 856 284 
Q 544 659 544 1381 
z
M 1991 3584 
L 1991 3584 
z
" id="DejaVuSans-75" transform="scale(0.015625)"/>
        <path d="M 3513 2113 
L 3513 0 
L 2938 0 
L 2938 2094 
Q 2938 2591 2744 2837 
Q 2550 3084 2163 3084 
Q 1697 3084 1428 2787 
Q 1159 2491 1159 1978 
L 1159 0 
L 581 0 
L 581 3500 
L 1159 3500 
L 1159 2956 
Q 1366 3272 1645 3428 
Q 1925 3584 2291 3584 
Q 2894 3584 3203 3211 
Q 3513 2838 3513 2113 
z
" id="DejaVuSans-6e" transform="scale(0.015625)"/>
       </defs>
       <use xlink:href="#DejaVuSans-4a"/>
       <use x="29.492188" xlink:href="#DejaVuSans-75"/>
       <use x="92.871094" xlink:href="#DejaVuSans-6e"/>
      </g>
     </g>
    </g>
    <g id="xtick_5">
     <g id="line2d_9">
      <path clip-path="url(#p944d46acf3)" d="M 239.888047 384.48 
L 239.888047 51.84 
" style="fill:none;stroke:#000000;stroke-dasharray:0.8,1.32;stroke-dashoffset:0;stroke-width:0.8;"/>
     </g>
     <g id="line2d_10">
      <g>
       <use style="stroke:#000000;stroke-width:0.8;" x="239.888047" xlink:href="#m083d89c78d" y="384.48"/>
      </g>
     </g>
     <g id="text_5">
      <!-- Jul -->
      <g transform="translate(233.855234 399.078438)scale(0.1 -0.1)">
       <defs>
        <path d="M 603 4863 
L 1178 4863 
L 1178 0 
L 603 0 
L 603 4863 
z
" id="DejaVuSans-6c" transform="scale(0.015625)"/>
       </defs>
       <use xlink:href="#DejaVuSans-4a"/>
       <use x="29.492188" xlink:href="#DejaVuSans-75"/>
       <use x="92.871094" xlink:href="#DejaVuSans-6c"/>
      </g>
     </g>
    </g>
    <g id="xtick_6">
     <g id="line2d_11">
      <path clip-path="url(#p944d46acf3)" d="M 280.233236 384.48 
L 280.233236 51.84 
" style="fill:none;stroke:#000000;stroke-dasharray:0.8,1.32;stroke-dashoffset:0;stroke-width:0.8;"/>
     </g>
     <g id="line2d_12">
      <g>
       <use style="stroke:#000000;stroke-width:0.8;" x="280.233236" xlink:href="#m083d89c78d" y="384.48"/>
      </g>
     </g>
     <g id="text_6">
      <!-- Aug -->
      <g transform="translate(270.469955 399.078438)scale(0.1 -0.1)">
       <defs>
        <path d="M 2906 1791 
Q 2906 2416 2648 2759 
Q 2391 3103 1925 3103 
Q 1463 3103 1205 2759 
Q 947 2416 947 1791 
Q 947 1169 1205 825 
Q 1463 481 1925 481 
Q 2391 481 2648 825 
Q 2906 1169 2906 1791 
z
M 3481 434 
Q 3481 -459 3084 -895 
Q 2688 -1331 1869 -1331 
Q 1566 -1331 1297 -1286 
Q 1028 -1241 775 -1147 
L 775 -588 
Q 1028 -725 1275 -790 
Q 1522 -856 1778 -856 
Q 2344 -856 2625 -561 
Q 2906 -266 2906 331 
L 2906 616 
Q 2728 306 2450 153 
Q 2172 0 1784 0 
Q 1141 0 747 490 
Q 353 981 353 1791 
Q 353 2603 747 3093 
Q 1141 3584 1784 3584 
Q 2172 3584 2450 3431 
Q 2728 3278 2906 2969 
L 2906 3500 
L 3481 3500 
L 3481 434 
z
" id="DejaVuSans-67" transform="scale(0.015625)"/>
       </defs>
       <use xlink:href="#DejaVuSans-41"/>
       <use x="68.408203" xlink:href="#DejaVuSans-75"/>
       <use x="131.787109" xlink:href="#DejaVuSans-67"/>
      </g>
     </g>
    </g>
    <g id="xtick_7">
     <g id="line2d_13">
      <path clip-path="url(#p944d46acf3)" d="M 320.578426 384.48 
L 320.578426 51.84 
" style="fill:none;stroke:#000000;stroke-dasharray:0.8,1.32;stroke-dashoffset:0;stroke-width:0.8;"/>
     </g>
     <g id="line2d_14">
      <g>
       <use style="stroke:#000000;stroke-width:0.8;" x="320.578426" xlink:href="#m083d89c78d" y="384.48"/>
      </g>
     </g>
     <g id="text_7">
      <!-- Sep -->
      <g transform="translate(311.153426 399.078438)scale(0.1 -0.1)">
       <defs>
        <path d="M 3425 4513 
L 3425 3897 
Q 3066 4069 2747 4153 
Q 2428 4238 2131 4238 
Q 1616 4238 1336 4038 
Q 1056 3838 1056 3469 
Q 1056 3159 1242 3001 
Q 1428 2844 1947 2747 
L 2328 2669 
Q 3034 2534 3370 2195 
Q 3706 1856 3706 1288 
Q 3706 609 3251 259 
Q 2797 -91 1919 -91 
Q 1588 -91 1214 -16 
Q 841 59 441 206 
L 441 856 
Q 825 641 1194 531 
Q 1563 422 1919 422 
Q 2459 422 2753 634 
Q 3047 847 3047 1241 
Q 3047 1584 2836 1778 
Q 2625 1972 2144 2069 
L 1759 2144 
Q 1053 2284 737 2584 
Q 422 2884 422 3419 
Q 422 4038 858 4394 
Q 1294 4750 2059 4750 
Q 2388 4750 2728 4690 
Q 3069 4631 3425 4513 
z
" id="DejaVuSans-53" transform="scale(0.015625)"/>
        <path d="M 3597 1894 
L 3597 1613 
L 953 1613 
Q 991 1019 1311 708 
Q 1631 397 2203 397 
Q 2534 397 2845 478 
Q 3156 559 3463 722 
L 3463 178 
Q 3153 47 2828 -22 
Q 2503 -91 2169 -91 
Q 1331 -91 842 396 
Q 353 884 353 1716 
Q 353 2575 817 3079 
Q 1281 3584 2069 3584 
Q 2775 3584 3186 3129 
Q 3597 2675 3597 1894 
z
M 3022 2063 
Q 3016 2534 2758 2815 
Q 2500 3097 2075 3097 
Q 1594 3097 1305 2825 
Q 1016 2553 972 2059 
L 3022 2063 
z
" id="DejaVuSans-65" transform="scale(0.015625)"/>
       </defs>
       <use xlink:href="#DejaVuSans-53"/>
       <use x="63.476562" xlink:href="#DejaVuSans-65"/>
       <use x="125" xlink:href="#DejaVuSans-70"/>
      </g>
     </g>
    </g>
    <g id="xtick_8">
     <g id="line2d_15">
      <path clip-path="url(#p944d46acf3)" d="M 359.622157 384.48 
L 359.622157 51.84 
" style="fill:none;stroke:#000000;stroke-dasharray:0.8,1.32;stroke-dashoffset:0;stroke-width:0.8;"/>
     </g>
     <g id="line2d_16">
      <g>
       <use style="stroke:#000000;stroke-width:0.8;" x="359.622157" xlink:href="#m083d89c78d" y="384.48"/>
      </g>
     </g>
     <g id="text_8">
      <!-- Oct -->
      <g transform="translate(350.976845 399.078438)scale(0.1 -0.1)">
       <defs>
        <path d="M 2522 4238 
Q 1834 4238 1429 3725 
Q 1025 3213 1025 2328 
Q 1025 1447 1429 934 
Q 1834 422 2522 422 
Q 3209 422 3611 934 
Q 4013 1447 4013 2328 
Q 4013 3213 3611 3725 
Q 3209 4238 2522 4238 
z
M 2522 4750 
Q 3503 4750 4090 4092 
Q 4678 3434 4678 2328 
Q 4678 1225 4090 567 
Q 3503 -91 2522 -91 
Q 1538 -91 948 565 
Q 359 1222 359 2328 
Q 359 3434 948 4092 
Q 1538 4750 2522 4750 
z
" id="DejaVuSans-4f" transform="scale(0.015625)"/>
        <path d="M 3122 3366 
L 3122 2828 
Q 2878 2963 2633 3030 
Q 2388 3097 2138 3097 
Q 1578 3097 1268 2742 
Q 959 2388 959 1747 
Q 959 1106 1268 751 
Q 1578 397 2138 397 
Q 2388 397 2633 464 
Q 2878 531 3122 666 
L 3122 134 
Q 2881 22 2623 -34 
Q 2366 -91 2075 -91 
Q 1284 -91 818 406 
Q 353 903 353 1747 
Q 353 2603 823 3093 
Q 1294 3584 2113 3584 
Q 2378 3584 2631 3529 
Q 2884 3475 3122 3366 
z
" id="DejaVuSans-63" transform="scale(0.015625)"/>
        <path d="M 1172 4494 
L 1172 3500 
L 2356 3500 
L 2356 3053 
L 1172 3053 
L 1172 1153 
Q 1172 725 1289 603 
Q 1406 481 1766 481 
L 2356 481 
L 2356 0 
L 1766 0 
Q 1100 0 847 248 
Q 594 497 594 1153 
L 594 3053 
L 172 3053 
L 172 3500 
L 594 3500 
L 594 4494 
L 1172 4494 
z
" id="DejaVuSans-74" transform="scale(0.015625)"/>
       </defs>
       <use xlink:href="#DejaVuSans-4f"/>
       <use x="78.710938" xlink:href="#DejaVuSans-63"/>
       <use x="133.691406" xlink:href="#DejaVuSans-74"/>
      </g>
     </g>
    </g>
    <g id="xtick_9">
     <g id="line2d_17">
      <path clip-path="url(#p944d46acf3)" d="M 399.967347 384.48 
L 399.967347 51.84 
" style="fill:none;stroke:#000000;stroke-dasharray:0.8,1.32;stroke-dashoffset:0;stroke-width:0.8;"/>
     </g>
     <g id="line2d_18">
      <g>
       <use style="stroke:#000000;stroke-width:0.8;" x="399.967347" xlink:href="#m083d89c78d" y="384.48"/>
      </g>
     </g>
     <g id="text_9">
      <!-- Nov -->
      <g transform="translate(390.207972 399.078438)scale(0.1 -0.1)">
       <defs>
        <path d="M 628 4666 
L 1478 4666 
L 3547 763 
L 3547 4666 
L 4159 4666 
L 4159 0 
L 3309 0 
L 1241 3903 
L 1241 0 
L 628 0 
L 628 4666 
z
" id="DejaVuSans-4e" transform="scale(0.015625)"/>
        <path d="M 1959 3097 
Q 1497 3097 1228 2736 
Q 959 2375 959 1747 
Q 959 1119 1226 758 
Q 1494 397 1959 397 
Q 2419 397 2687 759 
Q 2956 1122 2956 1747 
Q 2956 2369 2687 2733 
Q 2419 3097 1959 3097 
z
M 1959 3584 
Q 2709 3584 3137 3096 
Q 3566 2609 3566 1747 
Q 3566 888 3137 398 
Q 2709 -91 1959 -91 
Q 1206 -91 779 398 
Q 353 888 353 1747 
Q 353 2609 779 3096 
Q 1206 3584 1959 3584 
z
" id="DejaVuSans-6f" transform="scale(0.015625)"/>
        <path d="M 191 3500 
L 800 3500 
L 1894 563 
L 2988 3500 
L 3597 3500 
L 2284 0 
L 1503 0 
L 191 3500 
z
" id="DejaVuSans-76" transform="scale(0.015625)"/>
       </defs>
       <use xlink:href="#DejaVuSans-4e"/>
       <use x="74.804688" xlink:href="#DejaVuSans-6f"/>
       <use x="135.986328" xlink:href="#DejaVuSans-76"/>
      </g>
     </g>
    </g>
    <g id="xtick_10">
     <g id="line2d_19">
      <path clip-path="url(#p944d46acf3)" d="M 439.011079 384.48 
L 439.011079 51.84 
" style="fill:none;stroke:#000000;stroke-dasharray:0.8,1.32;stroke-dashoffset:0;stroke-width:0.8;"/>
     </g>
     <g id="line2d_20">
      <g>
       <use style="stroke:#000000;stroke-width:0.8;" x="439.011079" xlink:href="#m083d89c78d" y="384.48"/>
      </g>
     </g>
     <g id="text_10">
      <!-- Dec -->
      <g transform="translate(429.335297 399.078438)scale(0.1 -0.1)">
       <defs>
        <path d="M 1259 4147 
L 1259 519 
L 2022 519 
Q 2988 519 3436 956 
Q 3884 1394 3884 2338 
Q 3884 3275 3436 3711 
Q 2988 4147 2022 4147 
L 1259 4147 
z
M 628 4666 
L 1925 4666 
Q 3281 4666 3915 4102 
Q 4550 3538 4550 2338 
Q 4550 1131 3912 565 
Q 3275 0 1925 0 
L 628 0 
L 628 4666 
z
" id="DejaVuSans-44" transform="scale(0.015625)"/>
       </defs>
       <use xlink:href="#DejaVuSans-44"/>
       <use x="77.001953" xlink:href="#DejaVuSans-65"/>
       <use x="138.525391" xlink:href="#DejaVuSans-63"/>
      </g>
     </g>
    </g>
    <g id="xtick_11">
     <g id="line2d_21">
      <path clip-path="url(#p944d46acf3)" d="M 479.356268 384.48 
L 479.356268 51.84 
" style="fill:none;stroke:#000000;stroke-dasharray:0.8,1.32;stroke-dashoffset:0;stroke-width:0.8;"/>
     </g>
     <g id="line2d_22">
      <g>
       <use style="stroke:#000000;stroke-width:0.8;" x="479.356268" xlink:href="#m083d89c78d" y="384.48"/>
      </g>
     </g>
     <g id="text_11">
      <!-- 2022 -->
      <g transform="translate(466.631268 399.078438)scale(0.1 -0.1)">
       <defs>
        <path d="M 1228 531 
L 3431 531 
L 3431 0 
L 469 0 
L 469 531 
Q 828 903 1448 1529 
Q 2069 2156 2228 2338 
Q 2531 2678 2651 2914 
Q 2772 3150 2772 3378 
Q 2772 3750 2511 3984 
Q 2250 4219 1831 4219 
Q 1534 4219 1204 4116 
Q 875 4013 500 3803 
L 500 4441 
Q 881 4594 1212 4672 
Q 1544 4750 1819 4750 
Q 2544 4750 2975 4387 
Q 3406 4025 3406 3419 
Q 3406 3131 3298 2873 
Q 3191 2616 2906 2266 
Q 2828 2175 2409 1742 
Q 1991 1309 1228 531 
z
" id="DejaVuSans-32" transform="scale(0.015625)"/>
        <path d="M 2034 4250 
Q 1547 4250 1301 3770 
Q 1056 3291 1056 2328 
Q 1056 1369 1301 889 
Q 1547 409 2034 409 
Q 2525 409 2770 889 
Q 3016 1369 3016 2328 
Q 3016 3291 2770 3770 
Q 2525 4250 2034 4250 
z
M 2034 4750 
Q 2819 4750 3233 4129 
Q 3647 3509 3647 2328 
Q 3647 1150 3233 529 
Q 2819 -91 2034 -91 
Q 1250 -91 836 529 
Q 422 1150 422 2328 
Q 422 3509 836 4129 
Q 1250 4750 2034 4750 
z
" id="DejaVuSans-30" transform="scale(0.015625)"/>
       </defs>
       <use xlink:href="#DejaVuSans-32"/>
       <use x="63.623047" xlink:href="#DejaVuSans-30"/>
       <use x="127.246094" xlink:href="#DejaVuSans-32"/>
       <use x="190.869141" xlink:href="#DejaVuSans-32"/>
      </g>
     </g>
    </g>
   </g>
   <g id="matplotlib.axis_2">
    <g id="ytick_1">
     <g id="line2d_23">
      <path clip-path="url(#p944d46acf3)" d="M 72 384.48 
L 518.4 384.48 
" style="fill:none;stroke:#000000;stroke-dasharray:0.8,1.32;stroke-dashoffset:0;stroke-width:0.8;"/>
     </g>
     <g id="line2d_24">
      <defs>
       <path d="M 0 0 
L -3.5 0 
" id="m9f60c80673" style="stroke:#000000;stroke-width:0.8;"/>
      </defs>
      <g>
       <use style="stroke:#000000;stroke-width:0.8;" x="72" xlink:href="#m9f60c80673" y="384.48"/>
      </g>
     </g>
     <g id="text_12">
      <!-- 0 -->
      <g transform="translate(58.6375 388.279219)scale(0.1 -0.1)">
       <use xlink:href="#DejaVuSans-30"/>
      </g>
     </g>
    </g>
    <g id="ytick_2">
     <g id="line2d_25">
      <path clip-path="url(#p944d46acf3)" d="M 72 353.580779 
L 518.4 353.580779 
" style="fill:none;stroke:#000000;stroke-dasharray:0.8,1.32;stroke-dashoffset:0;stroke-width:0.8;"/>
     </g>
     <g id="line2d_26">
      <g>
       <use style="stroke:#000000;stroke-width:0.8;" x="72" xlink:href="#m9f60c80673" y="353.580779"/>
      </g>
     </g>
     <g id="text_13">
      <!-- 2 -->
      <g transform="translate(58.6375 357.379998)scale(0.1 -0.1)">
       <use xlink:href="#DejaVuSans-32"/>
      </g>
     </g>
    </g>
    <g id="ytick_3">
     <g id="line2d_27">
      <path clip-path="url(#p944d46acf3)" d="M 72 322.681558 
L 518.4 322.681558 
" style="fill:none;stroke:#000000;stroke-dasharray:0.8,1.32;stroke-dashoffset:0;stroke-width:0.8;"/>
     </g>
     <g id="line2d_28">
      <g>
       <use style="stroke:#000000;stroke-width:0.8;" x="72" xlink:href="#m9f60c80673" y="322.681558"/>
      </g>
     </g>
     <g id="text_14">
      <!-- 4 -->
      <g transform="translate(58.6375 326.480777)scale(0.1 -0.1)">
       <defs>
        <path d="M 2419 4116 
L 825 1625 
L 2419 1625 
L 2419 4116 
z
M 2253 4666 
L 3047 4666 
L 3047 1625 
L 3713 1625 
L 3713 1100 
L 3047 1100 
L 3047 0 
L 2419 0 
L 2419 1100 
L 313 1100 
L 313 1709 
L 2253 4666 
z
" id="DejaVuSans-34" transform="scale(0.015625)"/>
       </defs>
       <use xlink:href="#DejaVuSans-34"/>
      </g>
     </g>
    </g>
    <g id="ytick_4">
     <g id="line2d_29">
      <path clip-path="url(#p944d46acf3)" d="M 72 291.782338 
L 518.4 291.782338 
" style="fill:none;stroke:#000000;stroke-dasharray:0.8,1.32;stroke-dashoffset:0;stroke-width:0.8;"/>
     </g>
     <g id="line2d_30">
      <g>
       <use style="stroke:#000000;stroke-width:0.8;" x="72" xlink:href="#m9f60c80673" y="291.782338"/>
      </g>
     </g>
     <g id="text_15">
      <!-- 6 -->
      <g transform="translate(58.6375 295.581556)scale(0.1 -0.1)">
       <defs>
        <path d="M 2113 2584 
Q 1688 2584 1439 2293 
Q 1191 2003 1191 1497 
Q 1191 994 1439 701 
Q 1688 409 2113 409 
Q 2538 409 2786 701 
Q 3034 994 3034 1497 
Q 3034 2003 2786 2293 
Q 2538 2584 2113 2584 
z
M 3366 4563 
L 3366 3988 
Q 3128 4100 2886 4159 
Q 2644 4219 2406 4219 
Q 1781 4219 1451 3797 
Q 1122 3375 1075 2522 
Q 1259 2794 1537 2939 
Q 1816 3084 2150 3084 
Q 2853 3084 3261 2657 
Q 3669 2231 3669 1497 
Q 3669 778 3244 343 
Q 2819 -91 2113 -91 
Q 1303 -91 875 529 
Q 447 1150 447 2328 
Q 447 3434 972 4092 
Q 1497 4750 2381 4750 
Q 2619 4750 2861 4703 
Q 3103 4656 3366 4563 
z
" id="DejaVuSans-36" transform="scale(0.015625)"/>
       </defs>
       <use xlink:href="#DejaVuSans-36"/>
      </g>
     </g>
    </g>
    <g id="ytick_5">
     <g id="line2d_31">
      <path clip-path="url(#p944d46acf3)" d="M 72 260.883117 
L 518.4 260.883117 
" style="fill:none;stroke:#000000;stroke-dasharray:0.8,1.32;stroke-dashoffset:0;stroke-width:0.8;"/>
     </g>
     <g id="line2d_32">
      <g>
       <use style="stroke:#000000;stroke-width:0.8;" x="72" xlink:href="#m9f60c80673" y="260.883117"/>
      </g>
     </g>
     <g id="text_16">
      <!-- 8 -->
      <g transform="translate(58.6375 264.682335)scale(0.1 -0.1)">
       <defs>
        <path d="M 2034 2216 
Q 1584 2216 1326 1975 
Q 1069 1734 1069 1313 
Q 1069 891 1326 650 
Q 1584 409 2034 409 
Q 2484 409 2743 651 
Q 3003 894 3003 1313 
Q 3003 1734 2745 1975 
Q 2488 2216 2034 2216 
z
M 1403 2484 
Q 997 2584 770 2862 
Q 544 3141 544 3541 
Q 544 4100 942 4425 
Q 1341 4750 2034 4750 
Q 2731 4750 3128 4425 
Q 3525 4100 3525 3541 
Q 3525 3141 3298 2862 
Q 3072 2584 2669 2484 
Q 3125 2378 3379 2068 
Q 3634 1759 3634 1313 
Q 3634 634 3220 271 
Q 2806 -91 2034 -91 
Q 1263 -91 848 271 
Q 434 634 434 1313 
Q 434 1759 690 2068 
Q 947 2378 1403 2484 
z
M 1172 3481 
Q 1172 3119 1398 2916 
Q 1625 2713 2034 2713 
Q 2441 2713 2670 2916 
Q 2900 3119 2900 3481 
Q 2900 3844 2670 4047 
Q 2441 4250 2034 4250 
Q 1625 4250 1398 4047 
Q 1172 3844 1172 3481 
z
" id="DejaVuSans-38" transform="scale(0.015625)"/>
       </defs>
       <use xlink:href="#DejaVuSans-38"/>
      </g>
     </g>
    </g>
    <g id="ytick_6">
     <g id="line2d_33">
      <path clip-path="url(#p944d46acf3)" d="M 72 229.983896 
L 518.4 229.983896 
" style="fill:none;stroke:#000000;stroke-dasharray:0.8,1.32;stroke-dashoffset:0;stroke-width:0.8;"/>
     </g>
     <g id="line2d_34">
      <g>
       <use style="stroke:#000000;stroke-width:0.8;" x="72" xlink:href="#m9f60c80673" y="229.983896"/>
      </g>
     </g>
     <g id="text_17">
      <!-- 10 -->
      <g transform="translate(52.275 233.783115)scale(0.1 -0.1)">
       <defs>
        <path d="M 794 531 
L 1825 531 
L 1825 4091 
L 703 3866 
L 703 4441 
L 1819 4666 
L 2450 4666 
L 2450 531 
L 3481 531 
L 3481 0 
L 794 0 
L 794 531 
z
" id="DejaVuSans-31" transform="scale(0.015625)"/>
       </defs>
       <use xlink:href="#DejaVuSans-31"/>
       <use x="63.623047" xlink:href="#DejaVuSans-30"/>
      </g>
     </g>
    </g>
    <g id="ytick_7">
     <g id="line2d_35">
      <path clip-path="url(#p944d46acf3)" d="M 72 199.084675 
L 518.4 199.084675 
" style="fill:none;stroke:#000000;stroke-dasharray:0.8,1.32;stroke-dashoffset:0;stroke-width:0.8;"/>
     </g>
     <g id="line2d_36">
      <g>
       <use style="stroke:#000000;stroke-width:0.8;" x="72" xlink:href="#m9f60c80673" y="199.084675"/>
      </g>
     </g>
     <g id="text_18">
      <!-- 12 -->
      <g transform="translate(52.275 202.883894)scale(0.1 -0.1)">
       <use xlink:href="#DejaVuSans-31"/>
       <use x="63.623047" xlink:href="#DejaVuSans-32"/>
      </g>
     </g>
    </g>
    <g id="ytick_8">
     <g id="line2d_37">
      <path clip-path="url(#p944d46acf3)" d="M 72 168.185454 
L 518.4 168.185454 
" style="fill:none;stroke:#000000;stroke-dasharray:0.8,1.32;stroke-dashoffset:0;stroke-width:0.8;"/>
     </g>
     <g id="line2d_38">
      <g>
       <use style="stroke:#000000;stroke-width:0.8;" x="72" xlink:href="#m9f60c80673" y="168.185454"/>
      </g>
     </g>
     <g id="text_19">
      <!-- 14 -->
      <g transform="translate(52.275 171.984673)scale(0.1 -0.1)">
       <use xlink:href="#DejaVuSans-31"/>
       <use x="63.623047" xlink:href="#DejaVuSans-34"/>
      </g>
     </g>
    </g>
    <g id="ytick_9">
     <g id="line2d_39">
      <path clip-path="url(#p944d46acf3)" d="M 72 137.286233 
L 518.4 137.286233 
" style="fill:none;stroke:#000000;stroke-dasharray:0.8,1.32;stroke-dashoffset:0;stroke-width:0.8;"/>
     </g>
     <g id="line2d_40">
      <g>
       <use style="stroke:#000000;stroke-width:0.8;" x="72" xlink:href="#m9f60c80673" y="137.286233"/>
      </g>
     </g>
     <g id="text_20">
      <!-- 16 -->
      <g transform="translate(52.275 141.085452)scale(0.1 -0.1)">
       <use xlink:href="#DejaVuSans-31"/>
       <use x="63.623047" xlink:href="#DejaVuSans-36"/>
      </g>
     </g>
    </g>
    <g id="ytick_10">
     <g id="line2d_41">
      <path clip-path="url(#p944d46acf3)" d="M 72 106.387013 
L 518.4 106.387013 
" style="fill:none;stroke:#000000;stroke-dasharray:0.8,1.32;stroke-dashoffset:0;stroke-width:0.8;"/>
     </g>
     <g id="line2d_42">
      <g>
       <use style="stroke:#000000;stroke-width:0.8;" x="72" xlink:href="#m9f60c80673" y="106.387013"/>
      </g>
     </g>
     <g id="text_21">
      <!-- 18 -->
      <g transform="translate(52.275 110.186231)scale(0.1 -0.1)">
       <use xlink:href="#DejaVuSans-31"/>
       <use x="63.623047" xlink:href="#DejaVuSans-38"/>
      </g>
     </g>
    </g>
    <g id="ytick_11">
     <g id="line2d_43">
      <path clip-path="url(#p944d46acf3)" d="M 72 75.487792 
L 518.4 75.487792 
" style="fill:none;stroke:#000000;stroke-dasharray:0.8,1.32;stroke-dashoffset:0;stroke-width:0.8;"/>
     </g>
     <g id="line2d_44">
      <g>
       <use style="stroke:#000000;stroke-width:0.8;" x="72" xlink:href="#m9f60c80673" y="75.487792"/>
      </g>
     </g>
     <g id="text_22">
      <!-- 20 -->
      <g transform="translate(52.275 79.28701)scale(0.1 -0.1)">
       <use xlink:href="#DejaVuSans-32"/>
       <use x="63.623047" xlink:href="#DejaVuSans-30"/>
      </g>
     </g>
    </g>
    <g id="text_23">
     <!-- Cumulative doses (millions) -->
     <g transform="translate(46.195312 287.556094)rotate(-90)scale(0.1 -0.1)">
      <defs>
       <path d="M 4122 4306 
L 4122 3641 
Q 3803 3938 3442 4084 
Q 3081 4231 2675 4231 
Q 1875 4231 1450 3742 
Q 1025 3253 1025 2328 
Q 1025 1406 1450 917 
Q 1875 428 2675 428 
Q 3081 428 3442 575 
Q 3803 722 4122 1019 
L 4122 359 
Q 3791 134 3420 21 
Q 3050 -91 2638 -91 
Q 1578 -91 968 557 
Q 359 1206 359 2328 
Q 359 3453 968 4101 
Q 1578 4750 2638 4750 
Q 3056 4750 3426 4639 
Q 3797 4528 4122 4306 
z
" id="DejaVuSans-43" transform="scale(0.015625)"/>
       <path d="M 3328 2828 
Q 3544 3216 3844 3400 
Q 4144 3584 4550 3584 
Q 5097 3584 5394 3201 
Q 5691 2819 5691 2113 
L 5691 0 
L 5113 0 
L 5113 2094 
Q 5113 2597 4934 2840 
Q 4756 3084 4391 3084 
Q 3944 3084 3684 2787 
Q 3425 2491 3425 1978 
L 3425 0 
L 2847 0 
L 2847 2094 
Q 2847 2600 2669 2842 
Q 2491 3084 2119 3084 
Q 1678 3084 1418 2786 
Q 1159 2488 1159 1978 
L 1159 0 
L 581 0 
L 581 3500 
L 1159 3500 
L 1159 2956 
Q 1356 3278 1631 3431 
Q 1906 3584 2284 3584 
Q 2666 3584 2933 3390 
Q 3200 3197 3328 2828 
z
" id="DejaVuSans-6d" transform="scale(0.015625)"/>
       <path d="M 603 3500 
L 1178 3500 
L 1178 0 
L 603 0 
L 603 3500 
z
M 603 4863 
L 1178 4863 
L 1178 4134 
L 603 4134 
L 603 4863 
z
" id="DejaVuSans-69" transform="scale(0.015625)"/>
       <path id="DejaVuSans-20" transform="scale(0.015625)"/>
       <path d="M 2906 2969 
L 2906 4863 
L 3481 4863 
L 3481 0 
L 2906 0 
L 2906 525 
Q 2725 213 2448 61 
Q 2172 -91 1784 -91 
Q 1150 -91 751 415 
Q 353 922 353 1747 
Q 353 2572 751 3078 
Q 1150 3584 1784 3584 
Q 2172 3584 2448 3432 
Q 2725 3281 2906 2969 
z
M 947 1747 
Q 947 1113 1208 752 
Q 1469 391 1925 391 
Q 2381 391 2643 752 
Q 2906 1113 2906 1747 
Q 2906 2381 2643 2742 
Q 2381 3103 1925 3103 
Q 1469 3103 1208 2742 
Q 947 2381 947 1747 
z
" id="DejaVuSans-64" transform="scale(0.015625)"/>
       <path d="M 2834 3397 
L 2834 2853 
Q 2591 2978 2328 3040 
Q 2066 3103 1784 3103 
Q 1356 3103 1142 2972 
Q 928 2841 928 2578 
Q 928 2378 1081 2264 
Q 1234 2150 1697 2047 
L 1894 2003 
Q 2506 1872 2764 1633 
Q 3022 1394 3022 966 
Q 3022 478 2636 193 
Q 2250 -91 1575 -91 
Q 1294 -91 989 -36 
Q 684 19 347 128 
L 347 722 
Q 666 556 975 473 
Q 1284 391 1588 391 
Q 1994 391 2212 530 
Q 2431 669 2431 922 
Q 2431 1156 2273 1281 
Q 2116 1406 1581 1522 
L 1381 1569 
Q 847 1681 609 1914 
Q 372 2147 372 2553 
Q 372 3047 722 3315 
Q 1072 3584 1716 3584 
Q 2034 3584 2315 3537 
Q 2597 3491 2834 3397 
z
" id="DejaVuSans-73" transform="scale(0.015625)"/>
       <path d="M 1984 4856 
Q 1566 4138 1362 3434 
Q 1159 2731 1159 2009 
Q 1159 1288 1364 580 
Q 1569 -128 1984 -844 
L 1484 -844 
Q 1016 -109 783 600 
Q 550 1309 550 2009 
Q 550 2706 781 3412 
Q 1013 4119 1484 4856 
L 1984 4856 
z
" id="DejaVuSans-28" transform="scale(0.015625)"/>
       <path d="M 513 4856 
L 1013 4856 
Q 1481 4119 1714 3412 
Q 1947 2706 1947 2009 
Q 1947 1309 1714 600 
Q 1481 -109 1013 -844 
L 513 -844 
Q 928 -128 1133 580 
Q 1338 1288 1338 2009 
Q 1338 2731 1133 3434 
Q 928 4138 513 4856 
z
" id="DejaVuSans-29" transform="scale(0.015625)"/>
      </defs>
      <use xlink:href="#DejaVuSans-43"/>
      <use x="69.824219" xlink:href="#DejaVuSans-75"/>
      <use x="133.203125" xlink:href="#DejaVuSans-6d"/>
      <use x="230.615234" xlink:href="#DejaVuSans-75"/>
      <use x="293.994141" xlink:href="#DejaVuSans-6c"/>
      <use x="321.777344" xlink:href="#DejaVuSans-61"/>
      <use x="383.056641" xlink:href="#DejaVuSans-74"/>
      <use x="422.265625" xlink:href="#DejaVuSans-69"/>
      <use x="450.048828" xlink:href="#DejaVuSans-76"/>
      <use x="509.228516" xlink:href="#DejaVuSans-65"/>
      <use x="570.751953" xlink:href="#DejaVuSans-20"/>
      <use x="602.539062" xlink:href="#DejaVuSans-64"/>
      <use x="666.015625" xlink:href="#DejaVuSans-6f"/>
      <use x="727.197266" xlink:href="#DejaVuSans-73"/>
      <use x="779.296875" xlink:href="#DejaVuSans-65"/>
      <use x="840.820312" xlink:href="#DejaVuSans-73"/>
      <use x="892.919922" xlink:href="#DejaVuSans-20"/>
      <use x="924.707031" xlink:href="#DejaVuSans-28"/>
      <use x="963.720703" xlink:href="#DejaVuSans-6d"/>
      <use x="1061.132812" xlink:href="#DejaVuSans-69"/>
      <use x="1088.916016" xlink:href="#DejaVuSans-6c"/>
      <use x="1116.699219" xlink:href="#DejaVuSans-6c"/>
      <use x="1144.482422" xlink:href="#DejaVuSans-69"/>
      <use x="1172.265625" xlink:href="#DejaVuSans-6f"/>
      <use x="1233.447266" xlink:href="#DejaVuSans-6e"/>
      <use x="1296.826172" xlink:href="#DejaVuSans-73"/>
      <use x="1348.925781" xlink:href="#DejaVuSans-29"/>
     </g>
    </g>
   </g>
   <g id="line2d_45">
    <path clip-path="url(#p944d46acf3)" d="M 72 384.425459 
L 72 384.367469 
L 74.602915 384.305804 
L 74.602915 384.240229 
L 77.205831 384.170498 
L 77.205831 384.096353 
L 79.808746 384.017524 
L 79.808746 383.933732 
L 82.411662 383.844684 
L 82.411662 383.750075 
L 85.014577 383.649585 
L 85.014577 383.542882 
L 86.316035 383.542882 
L 86.316035 383.429616 
L 87.617493 383.429616 
L 87.617493 383.309415 
L 88.91895 383.309415 
L 88.91895 383.181885 
L 90.220408 383.181885 
L 90.220408 383.046599 
L 91.521866 383.046599 
L 91.521866 382.90309 
L 92.823324 382.90309 
L 92.823324 382.750837 
L 94.124781 382.750837 
L 94.124781 382.589258 
L 95.426239 382.589258 
L 95.426239 382.417691 
L 96.727697 382.417691 
L 96.727697 382.235389 
L 98.029155 382.235389 
L 98.029155 382.041507 
L 99.330612 382.041507 
L 99.330612 381.8351 
L 100.63207 381.8351 
L 100.63207 381.615132 
L 101.933528 381.615132 
L 101.933528 381.380487 
L 103.234985 381.380487 
L 103.234985 381.129997 
L 104.536443 381.129997 
L 104.536443 380.862483 
L 105.837901 380.862483 
L 105.837901 380.576801 
L 107.139359 380.576801 
L 107.139359 380.271899 
L 108.440816 380.271899 
L 108.440816 379.946877 
L 109.742274 379.946877 
L 109.742274 379.601052 
L 111.043732 379.601052 
L 111.043732 379.234007 
L 112.34519 379.234007 
L 112.34519 378.845628 
L 113.646647 378.845628 
L 113.646647 378.436123 
L 114.948105 378.436123 
L 114.948105 378.006019 
L 116.249563 378.006019 
L 116.249563 377.55614 
L 117.55102 377.55614 
L 117.55102 377.087555 
L 118.852478 377.087555 
L 118.852478 376.601505 
L 120.153936 376.601505 
L 120.153936 376.099331 
L 121.455394 376.099331 
L 121.455394 375.582378 
L 122.756851 375.582378 
L 122.756851 375.051919 
L 124.058309 375.051919 
L 124.058309 374.509076 
L 125.359767 374.509076 
L 125.359767 373.954771 
L 126.661224 373.954771 
L 126.661224 373.389685 
L 127.962682 373.389685 
L 127.962682 372.81426 
L 129.26414 372.81426 
L 129.26414 372.228713 
L 130.565598 372.228713 
L 130.565598 371.633076 
L 131.867055 371.633076 
L 131.867055 371.027259 
L 133.168513 371.027259 
L 133.168513 370.411121 
L 134.469971 370.411121 
L 134.469971 369.784539 
L 135.771429 369.784539 
L 135.771429 369.147488 
L 137.072886 369.147488 
L 137.072886 368.500101 
L 138.374344 368.500101 
L 138.374344 367.842718 
L 139.675802 367.842718 
L 139.675802 367.175916 
L 140.977259 367.175916 
L 140.977259 366.500511 
L 142.278717 366.500511 
L 142.278717 365.817547 
L 143.580175 365.817547 
L 143.580175 365.128252 
L 144.881633 365.128252 
L 144.881633 364.433976 
L 146.18309 364.433976 
L 146.18309 363.736119 
L 147.484548 363.736119 
L 147.484548 363.03604 
L 148.786006 363.03604 
L 148.786006 362.334967 
L 150.087464 362.334967 
L 150.087464 361.633909 
L 151.388921 361.633909 
L 151.388921 360.933587 
L 152.690379 360.933587 
L 152.690379 360.234373 
L 153.991837 360.234373 
L 153.991837 359.536261 
L 155.293294 359.536261 
L 155.293294 358.838859 
L 156.594752 358.838859 
L 156.594752 358.141417 
L 157.89621 358.141417 
L 157.89621 357.442867 
L 159.197668 357.442867 
L 159.197668 356.741894 
L 160.499125 356.741894 
L 160.499125 356.037013 
L 161.800583 356.037013 
L 161.800583 355.326662 
L 163.102041 355.326662 
L 163.102041 354.609277 
L 164.403499 354.609277 
L 164.403499 353.883377 
L 165.704956 353.883377 
L 165.704956 353.147613 
L 167.006414 353.147613 
L 167.006414 352.400819 
L 168.307872 352.400819 
L 168.307872 351.64202 
L 169.609329 351.64202 
L 169.609329 350.870432 
L 170.910787 350.870432 
L 170.910787 350.085438 
L 172.212245 350.085438 
L 172.212245 349.286549 
L 173.513703 349.286549 
L 173.513703 348.473353 
L 174.81516 348.473353 
L 174.81516 347.645462 
L 176.116618 347.645462 
L 176.116618 346.802451 
L 177.418076 346.802451 
L 177.418076 345.943813 
L 178.719534 345.943813 
L 178.719534 345.068918 
L 180.020991 345.068918 
L 180.020991 344.17698 
L 181.322449 344.17698 
L 181.322449 343.267049 
L 182.623907 343.267049 
L 182.623907 342.338003 
L 183.925364 342.338003 
L 183.925364 341.388567 
L 185.226822 341.388567 
L 185.226822 340.417339 
L 186.52828 340.417339 
L 186.52828 339.422835 
L 187.829738 339.422835 
L 187.829738 338.403533 
L 189.131195 338.403533 
L 189.131195 337.35794 
L 190.432653 337.35794 
L 190.432653 336.284652 
L 191.734111 336.284652 
L 191.734111 335.182435 
L 193.035569 335.182435 
L 193.035569 334.050297 
L 194.337026 334.050297 
L 194.337026 332.887564 
L 195.638484 332.887564 
L 195.638484 331.693951 
L 196.939942 331.693951 
L 196.939942 330.469633 
L 198.241399 330.469633 
L 198.241399 329.215303 
L 199.542857 329.215303 
L 199.542857 327.932222 
L 200.844315 327.932222 
L 200.844315 326.622246 
L 202.145773 326.622246 
L 202.145773 325.287835 
L 203.44723 325.287835 
L 203.44723 323.932044 
L 204.748688 323.932044 
L 204.748688 322.558482 
L 206.050146 322.558482 
L 206.050146 321.171249 
L 207.351603 321.171249 
L 207.351603 319.774836 
L 208.653061 319.774836 
L 208.653061 318.374019 
L 209.954519 318.374019 
L 209.954519 316.973713 
L 211.255977 316.973713 
L 211.255977 315.578823 
L 212.557434 315.578823 
L 212.557434 314.194081 
L 213.858892 314.194081 
L 213.858892 312.823888 
L 215.16035 312.823888 
L 215.16035 311.472164 
L 216.461808 311.472164 
L 216.461808 310.14222 
L 217.763265 310.14222 
L 217.763265 308.836646 
L 219.064723 308.836646 
L 219.064723 307.557245 
L 220.366181 307.557245 
L 220.366181 306.304995 
L 221.667638 306.304995 
L 221.667638 305.080056 
L 222.969096 305.080056 
L 222.969096 303.881813 
L 224.270554 303.881813 
L 224.270554 302.70895 
L 225.572012 302.70895 
L 225.572012 301.559554 
L 226.873469 301.559554 
L 226.873469 300.431246 
L 228.174927 300.431246 
L 228.174927 299.321324 
L 229.476385 299.321324 
L 229.476385 298.226908 
L 230.777843 298.226908 
L 230.777843 297.145087 
L 232.0793 297.145087 
L 232.0793 296.07305 
L 233.380758 296.07305 
L 233.380758 295.008204 
L 234.682216 295.008204 
L 234.682216 293.948256 
L 235.983673 293.948256 
L 235.983673 292.891289 
L 237.285131 292.891289 
L 237.285131 291.835782 
L 238.586589 291.835782 
L 238.586589 290.780618 
L 239.888047 290.780618 
L 239.888047 289.725041 
L 241.189504 289.725041 
L 241.189504 288.668603 
L 242.490962 288.668603 
L 242.490962 287.611077 
L 243.79242 287.611077 
L 243.79242 286.552364 
L 245.093878 286.552364 
L 245.093878 285.49239 
L 246.395335 285.49239 
L 246.395335 284.431015 
L 247.696793 284.431015 
L 247.696793 283.367946 
L 248.998251 283.367946 
L 248.998251 282.302687 
L 250.299708 282.302687 
L 250.299708 281.234516 
L 251.601166 281.234516 
L 251.601166 280.162486 
L 252.902624 280.162486 
L 252.902624 279.085473 
L 254.204082 279.085473 
L 254.204082 278.002241 
L 255.505539 278.002241 
L 255.505539 276.91153 
L 256.806997 276.91153 
L 256.806997 275.812155 
L 258.108455 275.812155 
L 258.108455 274.703096 
L 259.409913 274.703096 
L 259.409913 273.583579 
L 260.71137 273.583579 
L 260.71137 272.453124 
L 262.012828 272.453124 
L 262.012828 271.311571 
L 263.314286 271.311571 
L 263.314286 270.159071 
L 264.615743 270.159071 
L 264.615743 268.996048 
L 265.917201 268.996048 
L 265.917201 267.823139 
L 267.218659 267.823139 
L 267.218659 266.641122 
L 268.520117 266.641122 
L 268.520117 265.45085 
L 269.821574 265.45085 
L 269.821574 264.253186 
L 271.123032 264.253186 
L 271.123032 263.048956 
L 272.42449 263.048956 
L 272.42449 261.83893 
L 273.725948 261.83893 
L 273.725948 260.623812 
L 275.027405 260.623812 
L 275.027405 259.404259 
L 276.328863 259.404259 
L 276.328863 258.180909 
L 277.630321 258.180909 
L 277.630321 256.954409 
L 278.931778 256.954409 
L 278.931778 255.725447 
L 280.233236 255.725447 
L 280.233236 254.494772 
L 281.534694 254.494772 
L 281.534694 253.2632 
L 282.836152 253.2632 
L 282.836152 252.031609 
L 284.137609 252.031609 
L 284.137609 250.800917 
L 285.439067 250.800917 
L 285.439067 249.572055 
L 286.740525 249.572055 
L 286.740525 248.345931 
L 288.041983 248.345931 
L 288.041983 247.123392 
L 289.34344 247.123392 
L 289.34344 245.905196 
L 290.644898 245.905196 
L 290.644898 244.69198 
L 291.946356 244.69198 
L 291.946356 243.484254 
L 293.247813 243.484254 
L 293.247813 242.282385 
L 294.549271 242.282385 
L 294.549271 241.086607 
L 295.850729 241.086607 
L 295.850729 239.897024 
L 297.152187 239.897024 
L 297.152187 238.713627 
L 298.453644 238.713627 
L 298.453644 237.536317 
L 299.755102 237.536317 
L 299.755102 236.364919 
L 301.05656 236.364919 
L 301.05656 235.199205 
L 302.358017 235.199205 
L 302.358017 234.038907 
L 303.659475 234.038907 
L 303.659475 232.883736 
L 304.960933 232.883736 
L 304.960933 231.733394 
L 306.262391 231.733394 
L 306.262391 230.587581 
L 307.563848 230.587581 
L 307.563848 229.44601 
L 308.865306 229.44601 
L 308.865306 228.308407 
L 310.166764 228.308407 
L 310.166764 227.17451 
L 311.468222 227.17451 
L 311.468222 226.044078 
L 312.769679 226.044078 
L 312.769679 224.916886 
L 314.071137 224.916886 
L 314.071137 223.792731 
L 315.372595 223.792731 
L 315.372595 222.671428 
L 316.674052 222.671428 
L 316.674052 221.552811 
L 317.97551 221.552811 
L 317.97551 220.436726 
L 319.276968 220.436726 
L 319.276968 219.323039 
L 320.578426 219.323039 
L 320.578426 218.211627 
L 321.879883 218.211627 
L 321.879883 217.102382 
L 323.181341 217.102382 
L 323.181341 215.995205 
L 324.482799 215.995205 
L 324.482799 214.890007 
L 325.784257 214.890007 
L 325.784257 213.786704 
L 327.085714 213.786704 
L 327.085714 212.685216 
L 328.387172 212.685216 
L 328.387172 211.585463 
L 329.68863 211.585463 
L 329.68863 210.487366 
L 330.990087 210.487366 
L 330.990087 209.390843 
L 332.291545 209.390843 
L 332.291545 208.295799 
L 333.593003 208.295799 
L 333.593003 207.202132 
L 334.894461 207.202132 
L 334.894461 206.109717 
L 336.195918 206.109717 
L 336.195918 205.018402 
L 337.497376 205.018402 
L 337.497376 203.927995 
L 338.798834 203.927995 
L 338.798834 202.838248 
L 340.100292 202.838248 
L 340.100292 201.748842 
L 341.401749 201.748842 
L 341.401749 200.659359 
L 342.703207 200.659359 
L 342.703207 199.569257 
L 344.004665 199.569257 
L 344.004665 198.477838 
L 345.306122 198.477838 
L 345.306122 197.384214 
L 346.60758 197.384214 
L 346.60758 196.287272 
L 347.909038 196.287272 
L 347.909038 195.18564 
L 349.210496 195.18564 
L 349.210496 194.077656 
L 350.511953 194.077656 
L 350.511953 192.96135 
L 351.813411 192.96135 
L 351.813411 191.834434 
L 353.114869 191.834434 
L 353.114869 190.694304 
L 354.416327 190.694304 
L 354.416327 189.538065 
L 355.717784 189.538065 
L 355.717784 188.362574 
L 357.019242 188.362574 
L 357.019242 187.164499 
L 358.3207 187.164499 
L 358.3207 185.940395 
L 359.622157 185.940395 
L 359.622157 184.686803 
L 360.923615 184.686803 
L 360.923615 183.40034 
L 362.225073 183.40034 
L 362.225073 182.077813 
L 363.526531 182.077813 
L 363.526531 180.716312 
L 364.827988 180.716312 
L 364.827988 179.313298 
L 366.129446 179.313298 
L 366.129446 177.866682 
L 367.430904 177.866682 
L 367.430904 176.374869 
L 368.732362 176.374869 
L 368.732362 174.836793 
L 370.033819 174.836793 
L 370.033819 173.25192 
L 371.335277 173.25192 
L 371.335277 171.620231 
L 372.636735 171.620231 
L 372.636735 169.942186 
L 373.938192 169.942186 
L 373.938192 168.218669 
L 375.23965 168.218669 
L 375.23965 166.450932 
L 376.541108 166.450932 
L 376.541108 164.64052 
L 377.842566 164.64052 
L 377.842566 162.789206 
L 379.144023 162.789206 
L 379.144023 160.898924 
L 380.445481 160.898924 
L 380.445481 158.971708 
L 381.746939 158.971708 
L 381.746939 157.009636 
L 383.048397 157.009636 
L 383.048397 155.014793 
L 384.349854 155.014793 
L 384.349854 152.989229 
L 385.651312 152.989229 
L 385.651312 150.934934 
L 386.95277 150.934934 
L 386.95277 148.853823 
L 388.254227 148.853823 
L 388.254227 146.747716 
L 389.555685 146.747716 
L 389.555685 144.618337 
L 390.857143 144.618337 
L 390.857143 142.46731 
L 392.158601 142.46731 
L 392.158601 140.296155 
L 393.460058 140.296155 
L 393.460058 138.106295 
L 394.761516 138.106295 
L 394.761516 135.899055 
L 396.062974 135.899055 
L 396.062974 133.675673 
L 397.364431 133.675673 
L 397.364431 131.437298 
L 398.665889 131.437298 
L 398.665889 129.184998 
L 399.967347 129.184998 
L 399.967347 126.919769 
L 401.268805 126.919769 
L 401.268805 124.642536 
L 402.570262 124.642536 
L 402.570262 122.354167 
L 403.87172 122.354167 
L 403.87172 120.055472 
L 405.173178 120.055472 
L 405.173178 117.747215 
L 406.474636 117.747215 
L 406.474636 115.430123 
L 407.776093 115.430123 
L 407.776093 113.104901 
L 409.077551 113.104901 
L 409.077551 110.772251 
L 410.379009 110.772251 
L 410.379009 108.432887 
L 411.680466 108.432887 
L 411.680466 106.087571 
L 412.981924 106.087571 
L 412.981924 103.737152 
L 414.283382 103.737152 
L 414.283382 101.382617 
L 415.58484 101.382617 
L 415.58484 99.025163 
L 416.886297 99.025163 
L 416.886297 96.666273 
L 418.187755 96.666273 
L 418.187755 94.307814 
L 419.489213 94.307814 
L 419.489213 91.952153 
L 420.790671 91.952153 
L 420.790671 89.602275 
L 422.092128 89.602275 
L 422.092128 87.261908 
L 423.393586 87.261908 
L 423.393586 84.935652 
L 424.695044 84.935652 
L 424.695044 82.629076 
L 425.996501 82.629076 
L 425.996501 80.348799 
L 427.297959 80.348799 
L 427.297959 78.102516 
L 428.599417 78.102516 
L 428.599417 75.898969 
L 429.900875 75.898969 
L 429.900875 73.747837 
L 431.202332 73.747837 
L 431.202332 71.659558 
L 432.50379 71.659558 
L 432.50379 69.645051 
L 433.805248 69.645051 
L 433.805248 67.715379 
L 435.106706 67.715379 
L 435.106706 65.881334 
L 436.408163 65.881334 
L 436.408163 64.152993 
L 437.709621 64.152993 
L 437.709621 62.539264 
L 439.011079 62.539264 
L 439.011079 61.047454 
L 440.312536 61.047454 
L 440.312536 59.682896 
L 441.613994 59.682896 
L 441.613994 58.448675 
L 442.915452 58.448675 
L 442.915452 57.345459 
L 444.21691 57.345459 
L 444.21691 56.37147 
L 445.518367 56.37147 
L 445.518367 55.522585 
L 446.819825 55.522585 
L 446.819825 54.792564 
L 448.121283 54.792564 
L 448.121283 54.17338 
L 449.422741 54.17338 
L 449.422741 53.655628 
L 450.724198 53.655628 
L 450.724198 53.228976 
L 452.025656 53.228976 
L 452.025656 52.882619 
L 453.327114 52.882619 
L 453.327114 52.605718 
L 454.628571 52.605718 
L 454.628571 52.387775 
L 455.930029 52.387775 
L 455.930029 52.218941 
L 457.231487 52.218941 
L 457.231487 52.090249 
L 459.834402 51.993753 
L 459.834402 51.922593 
L 463.738776 51.834224 
L 463.738776 51.808465 
L 518.4 51.757444 
L 518.4 51.757444 
" style="fill:none;stroke:#1f77b4;stroke-linecap:square;stroke-width:1.5;"/>
   </g>
   <g id="line2d_46">
    <path clip-path="url(#p944d46acf3)" d="M 72 384.479997 
L 72 384.47999 
L 101.933528 384.389233 
L 101.933528 384.365678 
L 107.139359 384.267666 
L 107.139359 384.224957 
L 111.043732 384.123686 
L 111.043732 384.065189 
L 113.646647 384.001649 
L 113.646647 383.933318 
L 116.249563 383.860511 
L 116.249563 383.783587 
L 118.852478 383.70293 
L 118.852478 383.618925 
L 121.455394 383.531942 
L 121.455394 383.442314 
L 124.058309 383.35033 
L 124.058309 383.256223 
L 126.661224 383.160174 
L 126.661224 383.062307 
L 129.26414 382.962705 
L 129.26414 382.861416 
L 131.867055 382.758465 
L 131.867055 382.653868 
L 134.469971 382.547645 
L 134.469971 382.439828 
L 137.072886 382.330471 
L 137.072886 382.219653 
L 138.374344 382.219653 
L 138.374344 382.107479 
L 139.675802 382.107479 
L 139.675802 381.994085 
L 140.977259 381.994085 
L 140.977259 381.879633 
L 142.278717 381.879633 
L 142.278717 381.764311 
L 143.580175 381.764311 
L 143.580175 381.648326 
L 144.881633 381.648326 
L 144.881633 381.531908 
L 146.18309 381.531908 
L 146.18309 381.415294 
L 147.484548 381.415294 
L 147.484548 381.298733 
L 148.786006 381.298733 
L 148.786006 381.182475 
L 150.087464 381.182475 
L 150.087464 381.066766 
L 151.388921 381.066766 
L 151.388921 380.951836 
L 152.690379 380.951836 
L 152.690379 380.8379 
L 153.991837 380.8379 
L 153.991837 380.72514 
L 155.293294 380.72514 
L 155.293294 380.613704 
L 157.89621 380.503701 
L 157.89621 380.395187 
L 160.499125 380.288168 
L 160.499125 380.182596 
L 163.102041 380.078362 
L 163.102041 379.975301 
L 165.704956 379.873187 
L 165.704956 379.77174 
L 168.307872 379.670628 
L 168.307872 379.569473 
L 170.910787 379.467863 
L 170.910787 379.365361 
L 173.513703 379.261524 
L 173.513703 379.155915 
L 176.116618 379.048124 
L 176.116618 378.937778 
L 177.418076 378.937778 
L 177.418076 378.82456 
L 178.719534 378.82456 
L 178.719534 378.708208 
L 180.020991 378.708208 
L 180.020991 378.588524 
L 181.322449 378.588524 
L 181.322449 378.465363 
L 182.623907 378.465363 
L 182.623907 378.338622 
L 183.925364 378.338622 
L 183.925364 378.208224 
L 185.226822 378.208224 
L 185.226822 378.074098 
L 186.52828 378.074098 
L 186.52828 377.936154 
L 187.829738 377.936154 
L 187.829738 377.794266 
L 189.131195 377.794266 
L 189.131195 377.648252 
L 190.432653 377.648252 
L 190.432653 377.497859 
L 191.734111 377.497859 
L 191.734111 377.342761 
L 193.035569 377.342761 
L 193.035569 377.182552 
L 194.337026 377.182552 
L 194.337026 377.016756 
L 195.638484 377.016756 
L 195.638484 376.844836 
L 196.939942 376.844836 
L 196.939942 376.666201 
L 198.241399 376.666201 
L 198.241399 376.480223 
L 199.542857 376.480223 
L 199.542857 376.286242 
L 200.844315 376.286242 
L 200.844315 376.08357 
L 202.145773 376.08357 
L 202.145773 375.871493 
L 203.44723 375.871493 
L 203.44723 375.649259 
L 204.748688 375.649259 
L 204.748688 375.416063 
L 206.050146 375.416063 
L 206.050146 375.171038 
L 207.351603 375.171038 
L 207.351603 374.913231 
L 208.653061 374.913231 
L 208.653061 374.641591 
L 209.954519 374.641591 
L 209.954519 374.35496 
L 211.255977 374.35496 
L 211.255977 374.052074 
L 212.557434 374.052074 
L 212.557434 373.731585 
L 213.858892 373.731585 
L 213.858892 373.392079 
L 215.16035 373.392079 
L 215.16035 373.032127 
L 216.461808 373.032127 
L 216.461808 372.650332 
L 217.763265 372.650332 
L 217.763265 372.245396 
L 219.064723 372.245396 
L 219.064723 371.816181 
L 220.366181 371.816181 
L 220.366181 371.36177 
L 221.667638 371.36177 
L 221.667638 370.881514 
L 222.969096 370.881514 
L 222.969096 370.375068 
L 224.270554 370.375068 
L 224.270554 369.842404 
L 225.572012 369.842404 
L 225.572012 369.283803 
L 226.873469 369.283803 
L 226.873469 368.699828 
L 228.174927 368.699828 
L 228.174927 368.091265 
L 229.476385 368.091265 
L 229.476385 367.459067 
L 230.777843 367.459067 
L 230.777843 366.804275 
L 232.0793 366.804275 
L 232.0793 366.12795 
L 233.380758 366.12795 
L 233.380758 365.431098 
L 234.682216 365.431098 
L 234.682216 364.714622 
L 235.983673 364.714622 
L 235.983673 363.97928 
L 237.285131 363.97928 
L 237.285131 363.225676 
L 238.586589 363.225676 
L 238.586589 362.454266 
L 239.888047 362.454266 
L 239.888047 361.665388 
L 241.189504 361.665388 
L 241.189504 360.859315 
L 242.490962 360.859315 
L 242.490962 360.036316 
L 243.79242 360.036316 
L 243.79242 359.196722 
L 245.093878 359.196722 
L 245.093878 358.341002 
L 246.395335 358.341002 
L 246.395335 357.469817 
L 247.696793 357.469817 
L 247.696793 356.584077 
L 248.998251 356.584077 
L 248.998251 355.684959 
L 250.299708 355.684959 
L 250.299708 354.773915 
L 251.601166 354.773915 
L 251.601166 353.852648 
L 252.902624 353.852648 
L 252.902624 352.923057 
L 254.204082 352.923057 
L 254.204082 351.987168 
L 255.505539 351.987168 
L 255.505539 351.047039 
L 256.806997 351.047039 
L 256.806997 350.104651 
L 258.108455 350.104651 
L 258.108455 349.161804 
L 259.409913 349.161804 
L 259.409913 348.220011 
L 260.71137 348.220011 
L 260.71137 347.280415 
L 262.012828 347.280415 
L 262.012828 346.343727 
L 263.314286 346.343727 
L 263.314286 345.410192 
L 264.615743 345.410192 
L 264.615743 344.479591 
L 265.917201 344.479591 
L 265.917201 343.551266 
L 267.218659 343.551266 
L 267.218659 342.624175 
L 268.520117 342.624175 
L 268.520117 341.69697 
L 269.821574 341.69697 
L 269.821574 340.768076 
L 271.123032 340.768076 
L 271.123032 339.835782 
L 272.42449 339.835782 
L 272.42449 338.898309 
L 273.725948 338.898309 
L 273.725948 337.953873 
L 275.027405 337.953873 
L 275.027405 337.00072 
L 276.328863 337.00072 
L 276.328863 336.037148 
L 277.630321 336.037148 
L 277.630321 335.061495 
L 278.931778 335.061495 
L 278.931778 334.072125 
L 280.233236 334.072125 
L 280.233236 333.067396 
L 281.534694 333.067396 
L 281.534694 332.045633 
L 282.836152 332.045633 
L 282.836152 331.00511 
L 284.137609 331.00511 
L 284.137609 329.944035 
L 285.439067 329.944035 
L 285.439067 328.860564 
L 286.740525 328.860564 
L 286.740525 327.752827 
L 288.041983 327.752827 
L 288.041983 326.618973 
L 289.34344 326.618973 
L 289.34344 325.457226 
L 290.644898 325.457226 
L 290.644898 324.265943 
L 291.946356 324.265943 
L 291.946356 323.043664 
L 293.247813 323.043664 
L 293.247813 321.78916 
L 294.549271 321.78916 
L 294.549271 320.501461 
L 295.850729 320.501461 
L 295.850729 319.17986 
L 297.152187 319.17986 
L 297.152187 317.823902 
L 298.453644 317.823902 
L 298.453644 316.433357 
L 299.755102 316.433357 
L 299.755102 315.008177 
L 301.05656 315.008177 
L 301.05656 313.548468 
L 302.358017 313.548468 
L 302.358017 312.05445 
L 303.659475 312.05445 
L 303.659475 310.526444 
L 304.960933 310.526444 
L 304.960933 308.964873 
L 306.262391 308.964873 
L 306.262391 307.370286 
L 307.563848 307.370286 
L 307.563848 305.743401 
L 308.865306 305.743401 
L 308.865306 304.085174 
L 310.166764 304.085174 
L 310.166764 302.396862 
L 311.468222 302.396862 
L 311.468222 300.680098 
L 312.769679 300.680098 
L 312.769679 298.93695 
L 314.071137 298.93695 
L 314.071137 297.169959 
L 315.372595 297.169959 
L 315.372595 295.38215 
L 316.674052 295.38215 
L 316.674052 293.577005 
L 317.97551 293.577005 
L 317.97551 291.758406 
L 319.276968 291.758406 
L 319.276968 289.930528 
L 320.578426 289.930528 
L 320.578426 288.097712 
L 321.879883 288.097712 
L 321.879883 286.264307 
L 323.181341 286.264307 
L 323.181341 284.434498 
L 324.482799 284.434498 
L 324.482799 282.612138 
L 325.784257 282.612138 
L 325.784257 280.800584 
L 327.085714 280.800584 
L 327.085714 279.002557 
L 328.387172 279.002557 
L 328.387172 277.220041 
L 329.68863 277.220041 
L 329.68863 275.454217 
L 330.990087 275.454217 
L 330.990087 273.705445 
L 332.291545 273.705445 
L 332.291545 271.973299 
L 333.593003 271.973299 
L 333.593003 270.256632 
L 334.894461 270.256632 
L 334.894461 268.553687 
L 336.195918 268.553687 
L 336.195918 266.862239 
L 337.497376 266.862239 
L 337.497376 265.179745 
L 338.798834 265.179745 
L 338.798834 263.503509 
L 340.100292 263.503509 
L 340.100292 261.830842 
L 341.401749 261.830842 
L 341.401749 260.159204 
L 342.703207 260.159204 
L 342.703207 258.486327 
L 344.004665 258.486327 
L 344.004665 256.810309 
L 345.306122 256.810309 
L 345.306122 255.129684 
L 346.60758 255.129684 
L 346.60758 253.443458 
L 347.909038 253.443458 
L 347.909038 251.751114 
L 349.210496 251.751114 
L 349.210496 250.052584 
L 350.511953 250.052584 
L 350.511953 248.348203 
L 351.813411 248.348203 
L 351.813411 246.638646 
L 353.114869 246.638646 
L 353.114869 244.924846 
L 354.416327 244.924846 
L 354.416327 243.207908 
L 355.717784 243.207908 
L 355.717784 241.489021 
L 357.019242 241.489021 
L 357.019242 239.769378 
L 358.3207 239.769378 
L 358.3207 238.050102 
L 359.622157 238.050102 
L 359.622157 236.332193 
L 360.923615 236.332193 
L 360.923615 234.616485 
L 362.225073 234.616485 
L 362.225073 232.903623 
L 363.526531 232.903623 
L 363.526531 231.194059 
L 364.827988 231.194059 
L 364.827988 229.488055 
L 366.129446 229.488055 
L 366.129446 227.785702 
L 367.430904 227.785702 
L 367.430904 226.086938 
L 368.732362 226.086938 
L 368.732362 224.391568 
L 370.033819 224.391568 
L 370.033819 222.699284 
L 371.335277 222.699284 
L 371.335277 221.009672 
L 372.636735 221.009672 
L 372.636735 219.322222 
L 373.938192 219.322222 
L 373.938192 217.636324 
L 375.23965 217.636324 
L 375.23965 215.951261 
L 376.541108 215.951261 
L 376.541108 214.266208 
L 377.842566 214.266208 
L 377.842566 212.580225 
L 379.144023 212.580225 
L 379.144023 210.892256 
L 380.445481 210.892256 
L 380.445481 209.20113 
L 381.746939 209.20113 
L 381.746939 207.505572 
L 383.048397 207.505572 
L 383.048397 205.804213 
L 384.349854 205.804213 
L 384.349854 204.095601 
L 385.651312 204.095601 
L 385.651312 202.378222 
L 386.95277 202.378222 
L 386.95277 200.65051 
L 388.254227 200.65051 
L 388.254227 198.910867 
L 389.555685 198.910867 
L 389.555685 197.157679 
L 390.857143 197.157679 
L 390.857143 195.389336 
L 392.158601 195.389336 
L 392.158601 193.60425 
L 393.460058 193.60425 
L 393.460058 191.800882 
L 394.761516 191.800882 
L 394.761516 189.977771 
L 396.062974 189.977771 
L 396.062974 188.133568 
L 397.364431 188.133568 
L 397.364431 186.267065 
L 398.665889 186.267065 
L 398.665889 184.377233 
L 399.967347 184.377233 
L 399.967347 182.463245 
L 401.268805 182.463245 
L 401.268805 180.524507 
L 402.570262 180.524507 
L 402.570262 178.560668 
L 403.87172 178.560668 
L 403.87172 176.571624 
L 405.173178 176.571624 
L 405.173178 174.557515 
L 406.474636 174.557515 
L 406.474636 172.518707 
L 407.776093 172.518707 
L 407.776093 170.455769 
L 409.077551 170.455769 
L 409.077551 168.369445 
L 410.379009 168.369445 
L 410.379009 166.260618 
L 411.680466 166.260618 
L 411.680466 164.130278 
L 412.981924 164.130278 
L 412.981924 161.979486 
L 414.283382 161.979486 
L 414.283382 159.809347 
L 415.58484 159.809347 
L 415.58484 157.62098 
L 416.886297 157.62098 
L 416.886297 155.415501 
L 418.187755 155.415501 
L 418.187755 153.194001 
L 419.489213 153.194001 
L 419.489213 150.957535 
L 420.790671 150.957535 
L 420.790671 148.707112 
L 422.092128 148.707112 
L 422.092128 146.443689 
L 423.393586 146.443689 
L 423.393586 144.168169 
L 424.695044 144.168169 
L 424.695044 141.881401 
L 425.996501 141.881401 
L 425.996501 139.584179 
L 427.297959 139.584179 
L 427.297959 137.277243 
L 428.599417 137.277243 
L 428.599417 134.961282 
L 429.900875 134.961282 
L 429.900875 132.63694 
L 431.202332 132.63694 
L 431.202332 130.304814 
L 432.50379 130.304814 
L 432.50379 127.965459 
L 433.805248 127.965459 
L 433.805248 125.619396 
L 435.106706 125.619396 
L 435.106706 123.267113 
L 436.408163 123.267113 
L 436.408163 120.909069 
L 437.709621 120.909069 
L 437.709621 118.545702 
L 439.011079 118.545702 
L 439.011079 116.177436 
L 440.312536 116.177436 
L 440.312536 113.804697 
L 441.613994 113.804697 
L 441.613994 111.427922 
L 442.915452 111.427922 
L 442.915452 109.047586 
L 444.21691 109.047586 
L 444.21691 106.664224 
L 445.518367 106.664224 
L 445.518367 104.278477 
L 446.819825 104.278477 
L 446.819825 101.891138 
L 448.121283 101.891138 
L 448.121283 99.503223 
L 449.422741 99.503223 
L 449.422741 97.116046 
L 450.724198 97.116046 
L 450.724198 94.731323 
L 452.025656 94.731323 
L 452.025656 92.351273 
L 453.327114 92.351273 
L 453.327114 89.978747 
L 454.628571 89.978747 
L 454.628571 87.617351 
L 455.930029 87.617351 
L 455.930029 85.271567 
L 457.231487 85.271567 
L 457.231487 82.946859 
L 458.532945 82.946859 
L 458.532945 80.649744 
L 459.834402 80.649744 
L 459.834402 78.387827 
L 461.13586 78.387827 
L 461.13586 76.169762 
L 462.437318 76.169762 
L 462.437318 74.005149 
L 463.738776 74.005149 
L 463.738776 71.904352 
L 465.040233 71.904352 
L 465.040233 69.878222 
L 466.341691 69.878222 
L 466.341691 67.937756 
L 467.643149 67.937756 
L 467.643149 66.093687 
L 468.944606 66.093687 
L 468.944606 64.35604 
L 470.246064 64.35604 
L 470.246064 62.733669 
L 471.547522 62.733669 
L 471.547522 61.233834 
L 472.84898 61.233834 
L 472.84898 59.861825 
L 474.150437 59.861825 
L 474.150437 58.620685 
L 475.451895 58.620685 
L 475.451895 57.511044 
L 476.753353 57.511044 
L 476.753353 56.531089 
L 478.05481 56.531089 
L 478.05481 55.676664 
L 479.356268 55.676664 
L 479.356268 54.941499 
L 480.657726 54.941499 
L 480.657726 54.317538 
L 481.959184 54.317538 
L 481.959184 53.795341 
L 483.260641 53.795341 
L 483.260641 53.364547 
L 484.562099 53.364547 
L 484.562099 53.014327 
L 485.863557 53.014327 
L 485.863557 52.733817 
L 487.165015 52.733817 
L 487.165015 52.512494 
L 488.466472 52.512494 
L 488.466472 52.340492 
L 489.76793 52.340492 
L 489.76793 52.208821 
L 492.370845 52.109519 
L 492.370845 52.035715 
L 496.275219 51.942499 
L 496.275219 51.914526 
L 518.4 51.84252 
L 518.4 51.84252 
" style="fill:none;stroke:#ff7f0e;stroke-linecap:square;stroke-width:1.5;"/>
   </g>
   <g id="line2d_47">
    <path clip-path="url(#p944d46acf3)" d="M 267.218659 384.48 
L 267.218659 51.84 
" style="fill:none;stroke:#000000;stroke-dasharray:1.5,2.475;stroke-dashoffset:0;stroke-width:1.5;"/>
   </g>
   <g id="patch_3">
    <path d="M 72 384.48 
L 72 51.84 
" style="fill:none;stroke:#000000;stroke-linecap:square;stroke-linejoin:miter;stroke-width:0.8;"/>
   </g>
   <g id="patch_4">
    <path d="M 518.4 384.48 
L 518.4 51.84 
" style="fill:none;stroke:#000000;stroke-linecap:square;stroke-linejoin:miter;stroke-width:0.8;"/>
   </g>
   <g id="patch_5">
    <path d="M 72 384.48 
L 518.4 384.48 
" style="fill:none;stroke:#000000;stroke-linecap:square;stroke-linejoin:miter;stroke-width:0.8;"/>
   </g>
   <g id="patch_6">
    <path d="M 72 51.84 
L 518.4 51.84 
" style="fill:none;stroke:#000000;stroke-linecap:square;stroke-linejoin:miter;stroke-width:0.8;"/>
   </g>
   <g id="text_24">
    <!-- Projected cumulative 1st and 2nd doses -->
    <g transform="translate(174.848437 45.84)scale(0.12 -0.12)">
     <defs>
      <path d="M 1259 4147 
L 1259 2394 
L 2053 2394 
Q 2494 2394 2734 2622 
Q 2975 2850 2975 3272 
Q 2975 3691 2734 3919 
Q 2494 4147 2053 4147 
L 1259 4147 
z
M 628 4666 
L 2053 4666 
Q 2838 4666 3239 4311 
Q 3641 3956 3641 3272 
Q 3641 2581 3239 2228 
Q 2838 1875 2053 1875 
L 1259 1875 
L 1259 0 
L 628 0 
L 628 4666 
z
" id="DejaVuSans-50" transform="scale(0.015625)"/>
      <path d="M 603 3500 
L 1178 3500 
L 1178 -63 
Q 1178 -731 923 -1031 
Q 669 -1331 103 -1331 
L -116 -1331 
L -116 -844 
L 38 -844 
Q 366 -844 484 -692 
Q 603 -541 603 -63 
L 603 3500 
z
M 603 4863 
L 1178 4863 
L 1178 4134 
L 603 4134 
L 603 4863 
z
" id="DejaVuSans-6a" transform="scale(0.015625)"/>
     </defs>
     <use xlink:href="#DejaVuSans-50"/>
     <use x="58.552734" xlink:href="#DejaVuSans-72"/>
     <use x="97.416016" xlink:href="#DejaVuSans-6f"/>
     <use x="158.597656" xlink:href="#DejaVuSans-6a"/>
     <use x="186.380859" xlink:href="#DejaVuSans-65"/>
     <use x="247.904297" xlink:href="#DejaVuSans-63"/>
     <use x="302.884766" xlink:href="#DejaVuSans-74"/>
     <use x="342.09375" xlink:href="#DejaVuSans-65"/>
     <use x="403.617188" xlink:href="#DejaVuSans-64"/>
     <use x="467.09375" xlink:href="#DejaVuSans-20"/>
     <use x="498.880859" xlink:href="#DejaVuSans-63"/>
     <use x="553.861328" xlink:href="#DejaVuSans-75"/>
     <use x="617.240234" xlink:href="#DejaVuSans-6d"/>
     <use x="714.652344" xlink:href="#DejaVuSans-75"/>
     <use x="778.03125" xlink:href="#DejaVuSans-6c"/>
     <use x="805.814453" xlink:href="#DejaVuSans-61"/>
     <use x="867.09375" xlink:href="#DejaVuSans-74"/>
     <use x="906.302734" xlink:href="#DejaVuSans-69"/>
     <use x="934.085938" xlink:href="#DejaVuSans-76"/>
     <use x="993.265625" xlink:href="#DejaVuSans-65"/>
     <use x="1054.789062" xlink:href="#DejaVuSans-20"/>
     <use x="1086.576172" xlink:href="#DejaVuSans-31"/>
     <use x="1150.199219" xlink:href="#DejaVuSans-73"/>
     <use x="1202.298828" xlink:href="#DejaVuSans-74"/>
     <use x="1241.507812" xlink:href="#DejaVuSans-20"/>
     <use x="1273.294922" xlink:href="#DejaVuSans-61"/>
     <use x="1334.574219" xlink:href="#DejaVuSans-6e"/>
     <use x="1397.953125" xlink:href="#DejaVuSans-64"/>
     <use x="1461.429688" xlink:href="#DejaVuSans-20"/>
     <use x="1493.216797" xlink:href="#DejaVuSans-32"/>
     <use x="1556.839844" xlink:href="#DejaVuSans-6e"/>
     <use x="1620.21875" xlink:href="#DejaVuSans-64"/>
     <use x="1683.695312" xlink:href="#DejaVuSans-20"/>
     <use x="1715.482422" xlink:href="#DejaVuSans-64"/>
     <use x="1778.958984" xlink:href="#DejaVuSans-6f"/>
     <use x="1840.140625" xlink:href="#DejaVuSans-73"/>
     <use x="1892.240234" xlink:href="#DejaVuSans-65"/>
     <use x="1953.763672" xlink:href="#DejaVuSans-73"/>
    </g>
   </g>
   <g id="legend_1">
    <g id="patch_7">
     <path d="M 77.831 131.865269 
L 186.136619 131.865269 
Q 187.802619 131.865269 187.802619 130.199269 
L 187.802619 57.671 
Q 187.802619 56.005 186.136619 56.005 
L 77.831 56.005 
Q 76.165 56.005 76.165 57.671 
L 76.165 130.199269 
Q 76.165 131.865269 77.831 131.865269 
z
" style="fill:#ffffff;opacity:0.8;stroke:#cccccc;stroke-linejoin:miter;"/>
    </g>
    <g id="line2d_48">
     <path d="M 79.497 62.750998 
L 96.157 62.750998 
" style="fill:none;stroke:#1f77b4;stroke-linecap:square;stroke-width:1.5;"/>
    </g>
    <g id="line2d_49"/>
    <g id="text_25">
     <!-- First doses -->
     <g transform="translate(102.821 65.666498)scale(0.0833 -0.0833)">
      <defs>
       <path d="M 628 4666 
L 3309 4666 
L 3309 4134 
L 1259 4134 
L 1259 2759 
L 3109 2759 
L 3109 2228 
L 1259 2228 
L 1259 0 
L 628 0 
L 628 4666 
z
" id="DejaVuSans-46" transform="scale(0.015625)"/>
      </defs>
      <use xlink:href="#DejaVuSans-46"/>
      <use x="50.269531" xlink:href="#DejaVuSans-69"/>
      <use x="78.052734" xlink:href="#DejaVuSans-72"/>
      <use x="119.166016" xlink:href="#DejaVuSans-73"/>
      <use x="171.265625" xlink:href="#DejaVuSans-74"/>
      <use x="210.474609" xlink:href="#DejaVuSans-20"/>
      <use x="242.261719" xlink:href="#DejaVuSans-64"/>
      <use x="305.738281" xlink:href="#DejaVuSans-6f"/>
      <use x="366.919922" xlink:href="#DejaVuSans-73"/>
      <use x="419.019531" xlink:href="#DejaVuSans-65"/>
      <use x="480.542969" xlink:href="#DejaVuSans-73"/>
     </g>
    </g>
    <g id="line2d_50">
     <path d="M 79.497 74.977877 
L 96.157 74.977877 
" style="fill:none;stroke:#ff7f0e;stroke-linecap:square;stroke-width:1.5;"/>
    </g>
    <g id="line2d_51"/>
    <g id="text_26">
     <!-- Second doses -->
     <g transform="translate(102.821 77.893377)scale(0.0833 -0.0833)">
      <use xlink:href="#DejaVuSans-53"/>
      <use x="63.476562" xlink:href="#DejaVuSans-65"/>
      <use x="125" xlink:href="#DejaVuSans-63"/>
      <use x="179.980469" xlink:href="#DejaVuSans-6f"/>
      <use x="241.162109" xlink:href="#DejaVuSans-6e"/>
      <use x="304.541016" xlink:href="#DejaVuSans-64"/>
      <use x="368.017578" xlink:href="#DejaVuSans-20"/>
      <use x="399.804688" xlink:href="#DejaVuSans-64"/>
      <use x="463.28125" xlink:href="#DejaVuSans-6f"/>
      <use x="524.462891" xlink:href="#DejaVuSans-73"/>
      <use x="576.5625" xlink:href="#DejaVuSans-65"/>
      <use x="638.085938" xlink:href="#DejaVuSans-73"/>
     </g>
    </g>
    <g id="patch_8">
     <path d="M 79.497 90.120255 
L 96.157 90.120255 
L 96.157 84.289255 
L 79.497 84.289255 
z
" style="fill:#ff0000;opacity:0.35;"/>
    </g>
    <g id="text_27">
     <!-- Phase 1a -->
     <g transform="translate(102.821 90.120255)scale(0.0833 -0.0833)">
      <defs>
       <path d="M 3513 2113 
L 3513 0 
L 2938 0 
L 2938 2094 
Q 2938 2591 2744 2837 
Q 2550 3084 2163 3084 
Q 1697 3084 1428 2787 
Q 1159 2491 1159 1978 
L 1159 0 
L 581 0 
L 581 4863 
L 1159 4863 
L 1159 2956 
Q 1366 3272 1645 3428 
Q 1925 3584 2291 3584 
Q 2894 3584 3203 3211 
Q 3513 2838 3513 2113 
z
" id="DejaVuSans-68" transform="scale(0.015625)"/>
      </defs>
      <use xlink:href="#DejaVuSans-50"/>
      <use x="60.302734" xlink:href="#DejaVuSans-68"/>
      <use x="123.681641" xlink:href="#DejaVuSans-61"/>
      <use x="184.960938" xlink:href="#DejaVuSans-73"/>
      <use x="237.060547" xlink:href="#DejaVuSans-65"/>
      <use x="298.583984" xlink:href="#DejaVuSans-20"/>
      <use x="330.371094" xlink:href="#DejaVuSans-31"/>
      <use x="393.994141" xlink:href="#DejaVuSans-61"/>
     </g>
    </g>
    <g id="patch_9">
     <path d="M 79.497 102.347133 
L 96.157 102.347133 
L 96.157 96.516133 
L 79.497 96.516133 
z
" style="fill:#ffa500;opacity:0.35;"/>
    </g>
    <g id="text_28">
     <!-- Phase 1b -->
     <g transform="translate(102.821 102.347133)scale(0.0833 -0.0833)">
      <defs>
       <path d="M 3116 1747 
Q 3116 2381 2855 2742 
Q 2594 3103 2138 3103 
Q 1681 3103 1420 2742 
Q 1159 2381 1159 1747 
Q 1159 1113 1420 752 
Q 1681 391 2138 391 
Q 2594 391 2855 752 
Q 3116 1113 3116 1747 
z
M 1159 2969 
Q 1341 3281 1617 3432 
Q 1894 3584 2278 3584 
Q 2916 3584 3314 3078 
Q 3713 2572 3713 1747 
Q 3713 922 3314 415 
Q 2916 -91 2278 -91 
Q 1894 -91 1617 61 
Q 1341 213 1159 525 
L 1159 0 
L 581 0 
L 581 4863 
L 1159 4863 
L 1159 2969 
z
" id="DejaVuSans-62" transform="scale(0.015625)"/>
      </defs>
      <use xlink:href="#DejaVuSans-50"/>
      <use x="60.302734" xlink:href="#DejaVuSans-68"/>
      <use x="123.681641" xlink:href="#DejaVuSans-61"/>
      <use x="184.960938" xlink:href="#DejaVuSans-73"/>
      <use x="237.060547" xlink:href="#DejaVuSans-65"/>
      <use x="298.583984" xlink:href="#DejaVuSans-20"/>
      <use x="330.371094" xlink:href="#DejaVuSans-31"/>
      <use x="393.994141" xlink:href="#DejaVuSans-62"/>
     </g>
    </g>
    <g id="patch_10">
     <path d="M 79.497 114.574011 
L 96.157 114.574011 
L 96.157 108.743011 
L 79.497 108.743011 
z
" style="fill:#ffff00;opacity:0.35;"/>
    </g>
    <g id="text_29">
     <!-- Phase 2a -->
     <g transform="translate(102.821 114.574011)scale(0.0833 -0.0833)">
      <use xlink:href="#DejaVuSans-50"/>
      <use x="60.302734" xlink:href="#DejaVuSans-68"/>
      <use x="123.681641" xlink:href="#DejaVuSans-61"/>
      <use x="184.960938" xlink:href="#DejaVuSans-73"/>
      <use x="237.060547" xlink:href="#DejaVuSans-65"/>
      <use x="298.583984" xlink:href="#DejaVuSans-20"/>
      <use x="330.371094" xlink:href="#DejaVuSans-32"/>
      <use x="393.994141" xlink:href="#DejaVuSans-61"/>
     </g>
    </g>
    <g id="line2d_52">
     <path d="M 79.497 123.885389 
L 96.157 123.885389 
" style="fill:none;stroke:#000000;stroke-dasharray:1.5,2.475;stroke-dashoffset:0;stroke-width:1.5;"/>
    </g>
    <g id="line2d_53"/>
    <g id="text_30">
     <!-- Today (2021-07-22) -->
     <g transform="translate(102.821 126.800889)scale(0.0833 -0.0833)">
      <defs>
       <path d="M -19 4666 
L 3928 4666 
L 3928 4134 
L 2272 4134 
L 2272 0 
L 1638 0 
L 1638 4134 
L -19 4134 
L -19 4666 
z
" id="DejaVuSans-54" transform="scale(0.015625)"/>
       <path d="M 313 2009 
L 1997 2009 
L 1997 1497 
L 313 1497 
L 313 2009 
z
" id="DejaVuSans-2d" transform="scale(0.015625)"/>
       <path d="M 525 4666 
L 3525 4666 
L 3525 4397 
L 1831 0 
L 1172 0 
L 2766 4134 
L 525 4134 
L 525 4666 
z
" id="DejaVuSans-37" transform="scale(0.015625)"/>
      </defs>
      <use xlink:href="#DejaVuSans-54"/>
      <use x="44.083984" xlink:href="#DejaVuSans-6f"/>
      <use x="105.265625" xlink:href="#DejaVuSans-64"/>
      <use x="168.742188" xlink:href="#DejaVuSans-61"/>
      <use x="230.021484" xlink:href="#DejaVuSans-79"/>
      <use x="289.201172" xlink:href="#DejaVuSans-20"/>
      <use x="320.988281" xlink:href="#DejaVuSans-28"/>
      <use x="360.001953" xlink:href="#DejaVuSans-32"/>
      <use x="423.625" xlink:href="#DejaVuSans-30"/>
      <use x="487.248047" xlink:href="#DejaVuSans-32"/>
      <use x="550.871094" xlink:href="#DejaVuSans-31"/>
      <use x="614.494141" xlink:href="#DejaVuSans-2d"/>
      <use x="650.578125" xlink:href="#DejaVuSans-30"/>
      <use x="714.201172" xlink:href="#DejaVuSans-37"/>
      <use x="777.824219" xlink:href="#DejaVuSans-2d"/>
      <use x="813.908203" xlink:href="#DejaVuSans-32"/>
      <use x="877.53125" xlink:href="#DejaVuSans-32"/>
      <use x="941.154297" xlink:href="#DejaVuSans-29"/>
     </g>
    </g>
   </g>
  </g>
  <g id="axes_2">
   <g id="matplotlib.axis_3">
    <g id="ytick_12">
     <g id="line2d_54">
      <defs>
       <path d="M 0 0 
L 3.5 0 
" id="m507b5ec085" style="stroke:#000000;stroke-width:0.8;"/>
      </defs>
      <g>
       <use style="stroke:#000000;stroke-width:0.8;" x="518.4" xlink:href="#m507b5ec085" y="384.48"/>
      </g>
     </g>
     <g id="text_31">
      <!-- 0 -->
      <g transform="translate(525.4 388.279219)scale(0.1 -0.1)">
       <use xlink:href="#DejaVuSans-30"/>
      </g>
     </g>
    </g>
    <g id="ytick_13">
     <g id="line2d_55">
      <g>
       <use style="stroke:#000000;stroke-width:0.8;" x="518.4" xlink:href="#m507b5ec085" y="353.580779"/>
      </g>
     </g>
     <g id="text_32">
      <!-- 10 -->
      <g transform="translate(525.4 357.379998)scale(0.1 -0.1)">
       <use xlink:href="#DejaVuSans-31"/>
       <use x="63.623047" xlink:href="#DejaVuSans-30"/>
      </g>
     </g>
    </g>
    <g id="ytick_14">
     <g id="line2d_56">
      <g>
       <use style="stroke:#000000;stroke-width:0.8;" x="518.4" xlink:href="#m507b5ec085" y="322.681558"/>
      </g>
     </g>
     <g id="text_33">
      <!-- 20 -->
      <g transform="translate(525.4 326.480777)scale(0.1 -0.1)">
       <use xlink:href="#DejaVuSans-32"/>
       <use x="63.623047" xlink:href="#DejaVuSans-30"/>
      </g>
     </g>
    </g>
    <g id="ytick_15">
     <g id="line2d_57">
      <g>
       <use style="stroke:#000000;stroke-width:0.8;" x="518.4" xlink:href="#m507b5ec085" y="291.782338"/>
      </g>
     </g>
     <g id="text_34">
      <!-- 30 -->
      <g transform="translate(525.4 295.581556)scale(0.1 -0.1)">
       <defs>
        <path d="M 2597 2516 
Q 3050 2419 3304 2112 
Q 3559 1806 3559 1356 
Q 3559 666 3084 287 
Q 2609 -91 1734 -91 
Q 1441 -91 1130 -33 
Q 819 25 488 141 
L 488 750 
Q 750 597 1062 519 
Q 1375 441 1716 441 
Q 2309 441 2620 675 
Q 2931 909 2931 1356 
Q 2931 1769 2642 2001 
Q 2353 2234 1838 2234 
L 1294 2234 
L 1294 2753 
L 1863 2753 
Q 2328 2753 2575 2939 
Q 2822 3125 2822 3475 
Q 2822 3834 2567 4026 
Q 2313 4219 1838 4219 
Q 1578 4219 1281 4162 
Q 984 4106 628 3988 
L 628 4550 
Q 988 4650 1302 4700 
Q 1616 4750 1894 4750 
Q 2613 4750 3031 4423 
Q 3450 4097 3450 3541 
Q 3450 3153 3228 2886 
Q 3006 2619 2597 2516 
z
" id="DejaVuSans-33" transform="scale(0.015625)"/>
       </defs>
       <use xlink:href="#DejaVuSans-33"/>
       <use x="63.623047" xlink:href="#DejaVuSans-30"/>
      </g>
     </g>
    </g>
    <g id="ytick_16">
     <g id="line2d_58">
      <g>
       <use style="stroke:#000000;stroke-width:0.8;" x="518.4" xlink:href="#m507b5ec085" y="260.883117"/>
      </g>
     </g>
     <g id="text_35">
      <!-- 40 -->
      <g transform="translate(525.4 264.682335)scale(0.1 -0.1)">
       <use xlink:href="#DejaVuSans-34"/>
       <use x="63.623047" xlink:href="#DejaVuSans-30"/>
      </g>
     </g>
    </g>
    <g id="ytick_17">
     <g id="line2d_59">
      <g>
       <use style="stroke:#000000;stroke-width:0.8;" x="518.4" xlink:href="#m507b5ec085" y="229.983896"/>
      </g>
     </g>
     <g id="text_36">
      <!-- 50 -->
      <g transform="translate(525.4 233.783115)scale(0.1 -0.1)">
       <defs>
        <path d="M 691 4666 
L 3169 4666 
L 3169 4134 
L 1269 4134 
L 1269 2991 
Q 1406 3038 1543 3061 
Q 1681 3084 1819 3084 
Q 2600 3084 3056 2656 
Q 3513 2228 3513 1497 
Q 3513 744 3044 326 
Q 2575 -91 1722 -91 
Q 1428 -91 1123 -41 
Q 819 9 494 109 
L 494 744 
Q 775 591 1075 516 
Q 1375 441 1709 441 
Q 2250 441 2565 725 
Q 2881 1009 2881 1497 
Q 2881 1984 2565 2268 
Q 2250 2553 1709 2553 
Q 1456 2553 1204 2497 
Q 953 2441 691 2322 
L 691 4666 
z
" id="DejaVuSans-35" transform="scale(0.015625)"/>
       </defs>
       <use xlink:href="#DejaVuSans-35"/>
       <use x="63.623047" xlink:href="#DejaVuSans-30"/>
      </g>
     </g>
    </g>
    <g id="ytick_18">
     <g id="line2d_60">
      <g>
       <use style="stroke:#000000;stroke-width:0.8;" x="518.4" xlink:href="#m507b5ec085" y="199.084675"/>
      </g>
     </g>
     <g id="text_37">
      <!-- 60 -->
      <g transform="translate(525.4 202.883894)scale(0.1 -0.1)">
       <use xlink:href="#DejaVuSans-36"/>
       <use x="63.623047" xlink:href="#DejaVuSans-30"/>
      </g>
     </g>
    </g>
    <g id="ytick_19">
     <g id="line2d_61">
      <g>
       <use style="stroke:#000000;stroke-width:0.8;" x="518.4" xlink:href="#m507b5ec085" y="168.185454"/>
      </g>
     </g>
     <g id="text_38">
      <!-- 70 -->
      <g transform="translate(525.4 171.984673)scale(0.1 -0.1)">
       <use xlink:href="#DejaVuSans-37"/>
       <use x="63.623047" xlink:href="#DejaVuSans-30"/>
      </g>
     </g>
    </g>
    <g id="ytick_20">
     <g id="line2d_62">
      <g>
       <use style="stroke:#000000;stroke-width:0.8;" x="518.4" xlink:href="#m507b5ec085" y="137.286233"/>
      </g>
     </g>
     <g id="text_39">
      <!-- 80 -->
      <g transform="translate(525.4 141.085452)scale(0.1 -0.1)">
       <use xlink:href="#DejaVuSans-38"/>
       <use x="63.623047" xlink:href="#DejaVuSans-30"/>
      </g>
     </g>
    </g>
    <g id="ytick_21">
     <g id="line2d_63">
      <g>
       <use style="stroke:#000000;stroke-width:0.8;" x="518.4" xlink:href="#m507b5ec085" y="106.387013"/>
      </g>
     </g>
     <g id="text_40">
      <!-- 90 -->
      <g transform="translate(525.4 110.186231)scale(0.1 -0.1)">
       <defs>
        <path d="M 703 97 
L 703 672 
Q 941 559 1184 500 
Q 1428 441 1663 441 
Q 2288 441 2617 861 
Q 2947 1281 2994 2138 
Q 2813 1869 2534 1725 
Q 2256 1581 1919 1581 
Q 1219 1581 811 2004 
Q 403 2428 403 3163 
Q 403 3881 828 4315 
Q 1253 4750 1959 4750 
Q 2769 4750 3195 4129 
Q 3622 3509 3622 2328 
Q 3622 1225 3098 567 
Q 2575 -91 1691 -91 
Q 1453 -91 1209 -44 
Q 966 3 703 97 
z
M 1959 2075 
Q 2384 2075 2632 2365 
Q 2881 2656 2881 3163 
Q 2881 3666 2632 3958 
Q 2384 4250 1959 4250 
Q 1534 4250 1286 3958 
Q 1038 3666 1038 3163 
Q 1038 2656 1286 2365 
Q 1534 2075 1959 2075 
z
" id="DejaVuSans-39" transform="scale(0.015625)"/>
       </defs>
       <use xlink:href="#DejaVuSans-39"/>
       <use x="63.623047" xlink:href="#DejaVuSans-30"/>
      </g>
     </g>
    </g>
    <g id="ytick_22">
     <g id="line2d_64">
      <g>
       <use style="stroke:#000000;stroke-width:0.8;" x="518.4" xlink:href="#m507b5ec085" y="75.487792"/>
      </g>
     </g>
     <g id="text_41">
      <!-- 100 -->
      <g transform="translate(525.4 79.28701)scale(0.1 -0.1)">
       <use xlink:href="#DejaVuSans-31"/>
       <use x="63.623047" xlink:href="#DejaVuSans-30"/>
       <use x="127.246094" xlink:href="#DejaVuSans-30"/>
      </g>
     </g>
    </g>
    <g id="text_42">
     <!-- Percentage of adult population -->
     <g transform="translate(556.085938 295.232656)rotate(-90)scale(0.1 -0.1)">
      <defs>
       <path d="M 2375 4863 
L 2375 4384 
L 1825 4384 
Q 1516 4384 1395 4259 
Q 1275 4134 1275 3809 
L 1275 3500 
L 2222 3500 
L 2222 3053 
L 1275 3053 
L 1275 0 
L 697 0 
L 697 3053 
L 147 3053 
L 147 3500 
L 697 3500 
L 697 3744 
Q 697 4328 969 4595 
Q 1241 4863 1831 4863 
L 2375 4863 
z
" id="DejaVuSans-66" transform="scale(0.015625)"/>
      </defs>
      <use xlink:href="#DejaVuSans-50"/>
      <use x="56.677734" xlink:href="#DejaVuSans-65"/>
      <use x="118.201172" xlink:href="#DejaVuSans-72"/>
      <use x="157.064453" xlink:href="#DejaVuSans-63"/>
      <use x="212.044922" xlink:href="#DejaVuSans-65"/>
      <use x="273.568359" xlink:href="#DejaVuSans-6e"/>
      <use x="336.947266" xlink:href="#DejaVuSans-74"/>
      <use x="376.15625" xlink:href="#DejaVuSans-61"/>
      <use x="437.435547" xlink:href="#DejaVuSans-67"/>
      <use x="500.912109" xlink:href="#DejaVuSans-65"/>
      <use x="562.435547" xlink:href="#DejaVuSans-20"/>
      <use x="594.222656" xlink:href="#DejaVuSans-6f"/>
      <use x="655.404297" xlink:href="#DejaVuSans-66"/>
      <use x="690.609375" xlink:href="#DejaVuSans-20"/>
      <use x="722.396484" xlink:href="#DejaVuSans-61"/>
      <use x="783.675781" xlink:href="#DejaVuSans-64"/>
      <use x="847.152344" xlink:href="#DejaVuSans-75"/>
      <use x="910.53125" xlink:href="#DejaVuSans-6c"/>
      <use x="938.314453" xlink:href="#DejaVuSans-74"/>
      <use x="977.523438" xlink:href="#DejaVuSans-20"/>
      <use x="1009.310547" xlink:href="#DejaVuSans-70"/>
      <use x="1072.787109" xlink:href="#DejaVuSans-6f"/>
      <use x="1133.96875" xlink:href="#DejaVuSans-70"/>
      <use x="1197.445312" xlink:href="#DejaVuSans-75"/>
      <use x="1260.824219" xlink:href="#DejaVuSans-6c"/>
      <use x="1288.607422" xlink:href="#DejaVuSans-61"/>
      <use x="1349.886719" xlink:href="#DejaVuSans-74"/>
      <use x="1389.095703" xlink:href="#DejaVuSans-69"/>
      <use x="1416.878906" xlink:href="#DejaVuSans-6f"/>
      <use x="1478.060547" xlink:href="#DejaVuSans-6e"/>
     </g>
    </g>
   </g>
   <g id="patch_11">
    <path d="M 72 384.48 
L 72 51.84 
" style="fill:none;stroke:#000000;stroke-linecap:square;stroke-linejoin:miter;stroke-width:0.8;"/>
   </g>
   <g id="patch_12">
    <path d="M 518.4 384.48 
L 518.4 51.84 
" style="fill:none;stroke:#000000;stroke-linecap:square;stroke-linejoin:miter;stroke-width:0.8;"/>
   </g>
   <g id="patch_13">
    <path d="M 72 384.48 
L 518.4 384.48 
" style="fill:none;stroke:#000000;stroke-linecap:square;stroke-linejoin:miter;stroke-width:0.8;"/>
   </g>
   <g id="patch_14">
    <path d="M 72 51.84 
L 518.4 51.84 
" style="fill:none;stroke:#000000;stroke-linecap:square;stroke-linejoin:miter;stroke-width:0.8;"/>
   </g>
  </g>
 </g>
 <defs>
  <clipPath id="p944d46acf3">
   <rect height="332.64" width="446.4" x="72" y="51.84"/>
  </clipPath>
 </defs>
</svg>
