<?xml version="1.0" encoding="utf-8" standalone="no"?>
<!DOCTYPE svg PUBLIC "-//W3C//DTD SVG 1.1//EN"
  "http://www.w3.org/Graphics/SVG/1.1/DTD/svg11.dtd">
<svg height="432pt" version="1.1" viewBox="0 0 576 432" width="576pt" xmlns="http://www.w3.org/2000/svg" xmlns:xlink="http://www.w3.org/1999/xlink">
 <metadata>
  <rdf:RDF xmlns:cc="http://creativecommons.org/ns#" xmlns:dc="http://purl.org/dc/elements/1.1/" xmlns:rdf="http://www.w3.org/1999/02/22-rdf-syntax-ns#">
   <cc:Work>
    <dc:type rdf:resource="http://purl.org/dc/dcmitype/StillImage"/>
    <dc:date>2021-04-25T13:18:23.553841</dc:date>
    <dc:format>image/svg+xml</dc:format>
    <dc:creator>
     <cc:Agent>
      <dc:title>Matplotlib v3.4.1, https://matplotlib.org/</dc:title>
     </cc:Agent>
    </dc:creator>
   </cc:Work>
  </rdf:RDF>
 </metadata>
 <defs>
  <style type="text/css">*{stroke-linecap:butt;stroke-linejoin:round;}</style>
 </defs>
 <g id="figure_1">
  <g id="patch_1">
   <path d="M 0 432 
L 576 432 
L 576 0 
L 0 0 
z
" style="fill:#ffffff;"/>
  </g>
  <g id="axes_1">
   <g id="patch_2">
    <path d="M 72 384.48 
L 518.4 384.48 
L 518.4 51.84 
L 72 51.84 
z
" style="fill:#ffffff;"/>
   </g>
   <g id="PolyCollection_1">
    <defs>
     <path d="M 180.583784 -47.52 
L 67.978378 -47.52 
L 67.978378 -380.16 
L 180.583784 -380.16 
L 180.583784 -380.16 
L 180.583784 -47.52 
z
" id="mb5a1ac5a68"/>
    </defs>
    <g clip-path="url(#p91f3a5dfde)">
     <use style="fill:#ff0000;fill-opacity:0.35;" x="0" xlink:href="#mb5a1ac5a68" y="432"/>
    </g>
   </g>
   <g id="PolyCollection_2">
    <defs>
     <path d="M 349.491892 -47.52 
L 180.583784 -47.52 
L 180.583784 -380.16 
L 349.491892 -380.16 
L 349.491892 -380.16 
L 349.491892 -47.52 
z
" id="madfec153ad"/>
    </defs>
    <g clip-path="url(#p91f3a5dfde)">
     <use style="fill:#ffa500;fill-opacity:0.35;" x="0" xlink:href="#madfec153ad" y="432"/>
    </g>
   </g>
   <g id="PolyCollection_3">
    <defs>
     <path d="M 429.924324 -47.52 
L 349.491892 -47.52 
L 349.491892 -380.16 
L 429.924324 -380.16 
L 429.924324 -380.16 
L 429.924324 -47.52 
z
" id="m26b0824701"/>
    </defs>
    <g clip-path="url(#p91f3a5dfde)">
     <use style="fill:#ffff00;fill-opacity:0.35;" x="0" xlink:href="#m26b0824701" y="432"/>
    </g>
   </g>
   <g id="PolyCollection_4">
    <defs>
     <path d="M 433.945946 -47.52 
L 429.924324 -47.52 
L 429.924324 -380.16 
L 433.945946 -380.16 
L 433.945946 -380.16 
L 433.945946 -47.52 
z
" id="m9738829ad9"/>
    </defs>
    <g clip-path="url(#p91f3a5dfde)">
     <use style="fill:#ffff00;fill-opacity:0.3;" x="0" xlink:href="#m9738829ad9" y="432"/>
    </g>
   </g>
   <g id="PolyCollection_5">
    <defs>
     <path d="M 437.967568 -47.52 
L 433.945946 -47.52 
L 433.945946 -380.16 
L 437.967568 -380.16 
L 437.967568 -380.16 
L 437.967568 -47.52 
z
" id="m9172ba68b6"/>
    </defs>
    <g clip-path="url(#p91f3a5dfde)">
     <use style="fill:#ffff00;fill-opacity:0.27;" x="0" xlink:href="#m9172ba68b6" y="432"/>
    </g>
   </g>
   <g id="PolyCollection_6">
    <defs>
     <path d="M 441.989189 -47.52 
L 437.967568 -47.52 
L 437.967568 -380.16 
L 441.989189 -380.16 
L 441.989189 -380.16 
L 441.989189 -47.52 
z
" id="md8425959c4"/>
    </defs>
    <g clip-path="url(#p91f3a5dfde)">
     <use style="fill:#ffff00;fill-opacity:0.24;" x="0" xlink:href="#md8425959c4" y="432"/>
    </g>
   </g>
   <g id="PolyCollection_7">
    <defs>
     <path d="M 446.010811 -47.52 
L 441.989189 -47.52 
L 441.989189 -380.16 
L 446.010811 -380.16 
L 446.010811 -380.16 
L 446.010811 -47.52 
z
" id="m6df97be7a0"/>
    </defs>
    <g clip-path="url(#p91f3a5dfde)">
     <use style="fill:#ffff00;fill-opacity:0.21;" x="0" xlink:href="#m6df97be7a0" y="432"/>
    </g>
   </g>
   <g id="PolyCollection_8">
    <defs>
     <path d="M 450.032432 -47.52 
L 446.010811 -47.52 
L 446.010811 -380.16 
L 450.032432 -380.16 
L 450.032432 -380.16 
L 450.032432 -47.52 
z
" id="mf1f6515638"/>
    </defs>
    <g clip-path="url(#p91f3a5dfde)">
     <use style="fill:#ffff00;fill-opacity:0.18;" x="0" xlink:href="#mf1f6515638" y="432"/>
    </g>
   </g>
   <g id="PolyCollection_9">
    <defs>
     <path d="M 454.054054 -47.52 
L 450.032432 -47.52 
L 450.032432 -380.16 
L 454.054054 -380.16 
L 454.054054 -380.16 
L 454.054054 -47.52 
z
" id="m5d854d318a"/>
    </defs>
    <g clip-path="url(#p91f3a5dfde)">
     <use style="fill:#ffff00;fill-opacity:0.15;" x="0" xlink:href="#m5d854d318a" y="432"/>
    </g>
   </g>
   <g id="PolyCollection_10">
    <defs>
     <path d="M 458.075676 -47.52 
L 454.054054 -47.52 
L 454.054054 -380.16 
L 458.075676 -380.16 
L 458.075676 -380.16 
L 458.075676 -47.52 
z
" id="m3e33ef97a8"/>
    </defs>
    <g clip-path="url(#p91f3a5dfde)">
     <use style="fill:#ffff00;fill-opacity:0.12;" x="0" xlink:href="#m3e33ef97a8" y="432"/>
    </g>
   </g>
   <g id="PolyCollection_11">
    <defs>
     <path d="M 462.097297 -47.52 
L 458.075676 -47.52 
L 458.075676 -380.16 
L 462.097297 -380.16 
L 462.097297 -380.16 
L 462.097297 -47.52 
z
" id="m74a89faa77"/>
    </defs>
    <g clip-path="url(#p91f3a5dfde)">
     <use style="fill:#ffff00;fill-opacity:0.09;" x="0" xlink:href="#m74a89faa77" y="432"/>
    </g>
   </g>
   <g id="PolyCollection_12">
    <defs>
     <path d="M 466.118919 -47.52 
L 462.097297 -47.52 
L 462.097297 -380.16 
L 466.118919 -380.16 
L 466.118919 -380.16 
L 466.118919 -47.52 
z
" id="me8e161ea1c"/>
    </defs>
    <g clip-path="url(#p91f3a5dfde)">
     <use style="fill:#ffff00;fill-opacity:0.06;" x="0" xlink:href="#me8e161ea1c" y="432"/>
    </g>
   </g>
   <g id="PolyCollection_13">
    <defs>
     <path d="M 470.140541 -47.52 
L 466.118919 -47.52 
L 466.118919 -380.16 
L 470.140541 -380.16 
L 470.140541 -380.16 
L 470.140541 -47.52 
z
" id="mcd058ec0cc"/>
    </defs>
    <g clip-path="url(#p91f3a5dfde)">
     <use style="fill:#ffff00;fill-opacity:0.03;" x="0" xlink:href="#mcd058ec0cc" y="432"/>
    </g>
   </g>
   <g id="PolyCollection_14">
    <defs>
     <path d="M 72 -47.521663 
L 72 -47.52 
L 72 -47.52 
L 76.021622 -47.52 
L 76.021622 -47.52 
L 80.043243 -47.52 
L 80.043243 -47.52 
L 84.064865 -47.52 
L 84.064865 -47.52 
L 88.086486 -47.52 
L 88.086486 -47.52 
L 92.108108 -47.52 
L 92.108108 -47.52 
L 96.12973 -47.52 
L 96.12973 -47.52 
L 100.151351 -47.52 
L 100.151351 -47.52 
L 104.172973 -47.52 
L 104.172973 -47.52 
L 108.194595 -47.52 
L 108.194595 -47.52 
L 112.216216 -47.52 
L 112.216216 -47.52 
L 116.237838 -47.52 
L 116.237838 -47.52 
L 120.259459 -47.52 
L 120.259459 -47.52 
L 124.281081 -47.52 
L 124.281081 -47.52 
L 128.302703 -47.52 
L 128.302703 -47.52 
L 132.324324 -47.52 
L 132.324324 -47.52 
L 136.345946 -47.52 
L 136.345946 -47.52 
L 140.367568 -47.52 
L 140.367568 -47.52 
L 144.389189 -47.52 
L 144.389189 -47.52 
L 148.410811 -47.52 
L 148.410811 -47.52 
L 152.432432 -47.52 
L 152.432432 -47.52 
L 156.454054 -47.52 
L 156.454054 -47.52 
L 160.475676 -47.52 
L 160.475676 -47.52 
L 164.497297 -47.52 
L 164.497297 -47.52 
L 168.518919 -47.52 
L 168.518919 -47.52 
L 172.540541 -47.52 
L 172.540541 -47.52 
L 176.562162 -47.52 
L 176.562162 -47.52 
L 180.583784 -47.52 
L 180.583784 -47.52 
L 184.605405 -47.52 
L 184.605405 -47.52 
L 188.627027 -47.52 
L 188.627027 -47.52 
L 192.648649 -47.52 
L 192.648649 -47.52 
L 196.67027 -47.52 
L 196.67027 -47.52 
L 200.691892 -47.52 
L 200.691892 -47.52 
L 204.713514 -47.52 
L 204.713514 -47.52 
L 208.735135 -47.52 
L 208.735135 -47.52 
L 212.756757 -47.52 
L 212.756757 -47.52 
L 216.778378 -47.52 
L 216.778378 -47.52 
L 220.8 -47.52 
L 220.8 -47.52 
L 224.821622 -47.52 
L 224.821622 -47.52 
L 228.843243 -47.52 
L 228.843243 -47.52 
L 232.864865 -47.52 
L 232.864865 -47.52 
L 236.886486 -47.52 
L 236.886486 -47.52 
L 240.908108 -47.52 
L 240.908108 -47.52 
L 244.92973 -47.52 
L 244.92973 -47.52 
L 248.951351 -47.52 
L 248.951351 -47.52 
L 252.972973 -47.52 
L 252.972973 -47.52 
L 256.994595 -47.52 
L 256.994595 -47.52 
L 261.016216 -47.52 
L 261.016216 -47.52 
L 265.037838 -47.52 
L 265.037838 -47.52 
L 269.059459 -47.52 
L 269.059459 -47.52 
L 273.081081 -47.52 
L 273.081081 -47.52 
L 277.102703 -47.52 
L 277.102703 -47.52 
L 281.124324 -47.52 
L 281.124324 -47.52 
L 285.145946 -47.52 
L 285.145946 -47.52 
L 289.167568 -47.52 
L 289.167568 -47.52 
L 293.189189 -47.52 
L 293.189189 -47.52 
L 297.210811 -47.52 
L 297.210811 -47.52 
L 301.232432 -47.52 
L 301.232432 -47.52 
L 305.254054 -47.52 
L 305.254054 -47.52 
L 309.275676 -47.52 
L 309.275676 -47.52 
L 313.297297 -47.52 
L 313.297297 -47.52 
L 317.318919 -47.52 
L 317.318919 -47.52 
L 321.340541 -47.52 
L 321.340541 -181.498654 
L 321.340541 -181.498654 
L 317.318919 -181.498654 
L 317.318919 -180.133402 
L 313.297297 -180.133402 
L 313.297297 -175.05229 
L 309.275676 -175.05229 
L 309.275676 -170.726888 
L 305.254054 -170.726888 
L 305.254054 -166.437702 
L 301.232432 -166.437702 
L 301.232432 -162.4167 
L 297.210811 -162.4167 
L 297.210811 -157.917361 
L 293.189189 -157.917361 
L 293.189189 -151.027168 
L 289.167568 -151.027168 
L 289.167568 -149.219074 
L 285.145946 -149.219074 
L 285.145946 -146.106309 
L 281.124324 -146.106309 
L 281.124324 -142.405448 
L 277.102703 -142.405448 
L 277.102703 -138.518525 
L 273.081081 -138.518525 
L 273.081081 -134.74134 
L 269.059459 -134.74134 
L 269.059459 -130.62478 
L 265.037838 -130.62478 
L 265.037838 -130.428527 
L 261.016216 -130.428527 
L 261.016216 -128.168016 
L 256.994595 -128.168016 
L 256.994595 -123.519208 
L 252.972973 -123.519208 
L 252.972973 -117.156879 
L 248.951351 -117.156879 
L 248.951351 -111.520997 
L 244.92973 -111.520997 
L 244.92973 -107.045963 
L 240.908108 -107.045963 
L 240.908108 -106.989074 
L 236.886486 -106.989074 
L 236.886486 -107.01943 
L 232.864865 -107.01943 
L 232.864865 -105.97435 
L 228.843243 -105.97435 
L 228.843243 -106.761021 
L 224.821622 -106.761021 
L 224.821622 -100.663267 
L 220.8 -100.663267 
L 220.8 -95.43307 
L 216.778378 -95.43307 
L 216.778378 -89.930585 
L 212.756757 -89.930585 
L 212.756757 -85.712144 
L 208.735135 -85.712144 
L 208.735135 -83.443665 
L 204.713514 -83.443665 
L 204.713514 -83.239299 
L 200.691892 -83.239299 
L 200.691892 -79.81003 
L 196.67027 -79.81003 
L 196.67027 -76.40995 
L 192.648649 -76.40995 
L 192.648649 -72.835068 
L 188.627027 -72.835068 
L 188.627027 -69.608793 
L 184.605405 -69.608793 
L 184.605405 -68.183763 
L 180.583784 -68.183763 
L 180.583784 -66.241395 
L 176.562162 -66.241395 
L 176.562162 -66.133786 
L 172.540541 -66.133786 
L 172.540541 -65.462103 
L 168.518919 -65.462103 
L 168.518919 -64.8636 
L 164.497297 -64.8636 
L 164.497297 -63.873331 
L 160.475676 -63.873331 
L 160.475676 -62.452043 
L 156.454054 -62.452043 
L 156.454054 -61.221525 
L 152.432432 -61.221525 
L 152.432432 -61.037741 
L 148.410811 -61.037741 
L 148.410811 -60.766889 
L 144.389189 -60.766889 
L 144.389189 -58.755165 
L 140.367568 -58.755165 
L 140.367568 -57.915 
L 136.345946 -57.915 
L 136.345946 -56.351592 
L 132.324324 -56.351592 
L 132.324324 -55.412549 
L 128.302703 -55.412549 
L 128.302703 -54.702446 
L 124.281081 -54.702446 
L 124.281081 -54.28465 
L 120.259459 -54.28465 
L 120.259459 -53.91833 
L 116.237838 -53.91833 
L 116.237838 -53.49646 
L 112.216216 -53.49646 
L 112.216216 -52.593425 
L 108.194595 -52.593425 
L 108.194595 -51.747854 
L 104.172973 -51.747854 
L 104.172973 -51.004986 
L 100.151351 -51.004986 
L 100.151351 -50.322658 
L 96.12973 -50.322658 
L 96.12973 -50.172305 
L 92.108108 -50.172305 
L 92.108108 -50.0148 
L 88.086486 -50.0148 
L 88.086486 -49.599 
L 84.064865 -49.599 
L 84.064865 -48.9753 
L 80.043243 -48.9753 
L 80.043243 -48.094469 
L 76.021622 -48.094469 
L 76.021622 -47.759418 
L 72 -47.759418 
L 72 -47.521663 
z
" id="m565315f4bb"/>
    </defs>
    <g clip-path="url(#p91f3a5dfde)">
     <use style="fill:#1f77b4;" x="0" xlink:href="#m565315f4bb" y="432"/>
    </g>
   </g>
   <g id="PolyCollection_15">
    <defs>
     <path d="M 72 -59.32872 
L 72 -47.521663 
L 72 -47.759418 
L 76.021622 -47.759418 
L 76.021622 -48.094469 
L 80.043243 -48.094469 
L 80.043243 -48.9753 
L 84.064865 -48.9753 
L 84.064865 -49.599 
L 88.086486 -49.599 
L 88.086486 -50.0148 
L 92.108108 -50.0148 
L 92.108108 -50.172305 
L 96.12973 -50.172305 
L 96.12973 -50.322658 
L 100.151351 -50.322658 
L 100.151351 -51.004986 
L 104.172973 -51.004986 
L 104.172973 -51.747854 
L 108.194595 -51.747854 
L 108.194595 -52.593425 
L 112.216216 -52.593425 
L 112.216216 -53.49646 
L 116.237838 -53.49646 
L 116.237838 -53.91833 
L 120.259459 -53.91833 
L 120.259459 -54.28465 
L 124.281081 -54.28465 
L 124.281081 -54.702446 
L 128.302703 -54.702446 
L 128.302703 -55.412549 
L 132.324324 -55.412549 
L 132.324324 -56.351592 
L 136.345946 -56.351592 
L 136.345946 -57.915 
L 140.367568 -57.915 
L 140.367568 -58.755165 
L 144.389189 -58.755165 
L 144.389189 -60.766889 
L 148.410811 -60.766889 
L 148.410811 -61.037741 
L 152.432432 -61.037741 
L 152.432432 -61.221525 
L 156.454054 -61.221525 
L 156.454054 -62.452043 
L 160.475676 -62.452043 
L 160.475676 -63.873331 
L 164.497297 -63.873331 
L 164.497297 -64.8636 
L 168.518919 -64.8636 
L 168.518919 -65.462103 
L 172.540541 -65.462103 
L 172.540541 -66.133786 
L 176.562162 -66.133786 
L 176.562162 -66.241395 
L 180.583784 -66.241395 
L 180.583784 -68.183763 
L 184.605405 -68.183763 
L 184.605405 -69.608793 
L 188.627027 -69.608793 
L 188.627027 -72.835068 
L 192.648649 -72.835068 
L 192.648649 -76.40995 
L 196.67027 -76.40995 
L 196.67027 -79.81003 
L 200.691892 -79.81003 
L 200.691892 -83.239299 
L 204.713514 -83.239299 
L 204.713514 -83.443665 
L 208.735135 -83.443665 
L 208.735135 -85.712144 
L 212.756757 -85.712144 
L 212.756757 -89.930585 
L 216.778378 -89.930585 
L 216.778378 -95.43307 
L 220.8 -95.43307 
L 220.8 -100.663267 
L 224.821622 -100.663267 
L 224.821622 -106.761021 
L 228.843243 -106.761021 
L 228.843243 -105.97435 
L 232.864865 -105.97435 
L 232.864865 -107.01943 
L 236.886486 -107.01943 
L 236.886486 -106.989074 
L 240.908108 -106.989074 
L 240.908108 -107.045963 
L 244.92973 -107.045963 
L 244.92973 -111.520997 
L 248.951351 -111.520997 
L 248.951351 -117.156879 
L 252.972973 -117.156879 
L 252.972973 -123.519208 
L 256.994595 -123.519208 
L 256.994595 -128.168016 
L 261.016216 -128.168016 
L 261.016216 -130.428527 
L 265.037838 -130.428527 
L 265.037838 -130.62478 
L 269.059459 -130.62478 
L 269.059459 -134.74134 
L 273.081081 -134.74134 
L 273.081081 -138.518525 
L 277.102703 -138.518525 
L 277.102703 -142.405448 
L 281.124324 -142.405448 
L 281.124324 -146.106309 
L 285.145946 -146.106309 
L 285.145946 -149.219074 
L 289.167568 -149.219074 
L 289.167568 -151.027168 
L 293.189189 -151.027168 
L 293.189189 -157.917361 
L 297.210811 -157.917361 
L 297.210811 -162.4167 
L 301.232432 -162.4167 
L 301.232432 -166.437702 
L 305.254054 -166.437702 
L 305.254054 -170.726888 
L 309.275676 -170.726888 
L 309.275676 -175.05229 
L 313.297297 -175.05229 
L 313.297297 -180.133402 
L 317.318919 -180.133402 
L 317.318919 -181.498654 
L 321.340541 -181.498654 
L 321.340541 -268.685607 
L 321.340541 -268.685607 
L 317.318919 -268.685607 
L 317.318919 -244.205849 
L 313.297297 -244.205849 
L 313.297297 -244.205849 
L 309.275676 -244.205849 
L 309.275676 -244.205849 
L 305.254054 -244.205849 
L 305.254054 -244.205849 
L 301.232432 -244.205849 
L 301.232432 -244.205849 
L 297.210811 -244.205849 
L 297.210811 -244.205849 
L 293.189189 -244.205849 
L 293.189189 -244.205849 
L 289.167568 -244.205849 
L 289.167568 -231.648689 
L 285.145946 -231.648689 
L 285.145946 -231.648689 
L 281.124324 -231.648689 
L 281.124324 -231.648689 
L 277.102703 -231.648689 
L 277.102703 -231.648689 
L 273.081081 -231.648689 
L 273.081081 -231.648689 
L 269.059459 -231.648689 
L 269.059459 -231.648689 
L 265.037838 -231.648689 
L 265.037838 -231.648689 
L 261.016216 -231.648689 
L 261.016216 -148.3515 
L 256.994595 -148.3515 
L 256.994595 -148.3515 
L 252.972973 -148.3515 
L 252.972973 -148.3515 
L 248.951351 -148.3515 
L 248.951351 -148.3515 
L 244.92973 -148.3515 
L 244.92973 -148.3515 
L 240.908108 -148.3515 
L 240.908108 -148.3515 
L 236.886486 -148.3515 
L 236.886486 -148.3515 
L 232.864865 -148.3515 
L 232.864865 -148.3515 
L 228.843243 -148.3515 
L 228.843243 -148.3515 
L 224.821622 -148.3515 
L 224.821622 -148.3515 
L 220.8 -148.3515 
L 220.8 -148.3515 
L 216.778378 -148.3515 
L 216.778378 -148.3515 
L 212.756757 -148.3515 
L 212.756757 -148.3515 
L 208.735135 -148.3515 
L 208.735135 -148.3515 
L 204.713514 -148.3515 
L 204.713514 -107.14572 
L 200.691892 -107.14572 
L 200.691892 -107.14572 
L 196.67027 -107.14572 
L 196.67027 -107.14572 
L 192.648649 -107.14572 
L 192.648649 -107.14572 
L 188.627027 -107.14572 
L 188.627027 -107.14572 
L 184.605405 -107.14572 
L 184.605405 -107.14572 
L 180.583784 -107.14572 
L 180.583784 -107.14572 
L 176.562162 -107.14572 
L 176.562162 -90.51372 
L 172.540541 -90.51372 
L 172.540541 -90.51372 
L 168.518919 -90.51372 
L 168.518919 -90.51372 
L 164.497297 -90.51372 
L 164.497297 -90.51372 
L 160.475676 -90.51372 
L 160.475676 -90.51372 
L 156.454054 -90.51372 
L 156.454054 -90.51372 
L 152.432432 -90.51372 
L 152.432432 -90.51372 
L 148.410811 -90.51372 
L 148.410811 -84.3183 
L 144.389189 -84.3183 
L 144.389189 -84.3183 
L 140.367568 -84.3183 
L 140.367568 -84.3183 
L 136.345946 -84.3183 
L 136.345946 -84.3183 
L 132.324324 -84.3183 
L 132.324324 -84.3183 
L 128.302703 -84.3183 
L 128.302703 -84.3183 
L 124.281081 -84.3183 
L 124.281081 -84.3183 
L 120.259459 -84.3183 
L 120.259459 -66.231 
L 116.237838 -66.231 
L 116.237838 -66.231 
L 112.216216 -66.231 
L 112.216216 -66.231 
L 108.194595 -66.231 
L 108.194595 -66.231 
L 104.172973 -66.231 
L 104.172973 -66.231 
L 100.151351 -66.231 
L 100.151351 -66.231 
L 96.12973 -66.231 
L 96.12973 -66.231 
L 92.108108 -66.231 
L 92.108108 -59.32872 
L 88.086486 -59.32872 
L 88.086486 -59.32872 
L 84.064865 -59.32872 
L 84.064865 -59.32872 
L 80.043243 -59.32872 
L 80.043243 -59.32872 
L 76.021622 -59.32872 
L 76.021622 -59.32872 
L 72 -59.32872 
L 72 -59.32872 
z
" id="m0c53e41fb9"/>
    </defs>
    <g clip-path="url(#p91f3a5dfde)">
     <use style="fill:#2ca02c;" x="0" xlink:href="#m0c53e41fb9" y="432"/>
    </g>
   </g>
   <g id="PolyCollection_16">
    <defs>
     <path d="M 72 -59.32872 
L 72 -59.32872 
L 72 -59.32872 
L 76.021622 -59.32872 
L 76.021622 -59.32872 
L 80.043243 -59.32872 
L 80.043243 -59.32872 
L 84.064865 -59.32872 
L 84.064865 -59.32872 
L 88.086486 -59.32872 
L 88.086486 -59.32872 
L 92.108108 -59.32872 
L 92.108108 -66.231 
L 96.12973 -66.231 
L 96.12973 -66.231 
L 100.151351 -66.231 
L 100.151351 -66.231 
L 104.172973 -66.231 
L 104.172973 -66.231 
L 108.194595 -66.231 
L 108.194595 -66.231 
L 112.216216 -66.231 
L 112.216216 -66.231 
L 116.237838 -66.231 
L 116.237838 -66.231 
L 120.259459 -66.231 
L 120.259459 -84.3183 
L 124.281081 -84.3183 
L 124.281081 -84.3183 
L 128.302703 -84.3183 
L 128.302703 -84.3183 
L 132.324324 -84.3183 
L 132.324324 -84.3183 
L 136.345946 -84.3183 
L 136.345946 -84.3183 
L 140.367568 -84.3183 
L 140.367568 -84.3183 
L 144.389189 -84.3183 
L 144.389189 -84.3183 
L 148.410811 -84.3183 
L 148.410811 -90.51372 
L 152.432432 -90.51372 
L 152.432432 -90.51372 
L 156.454054 -90.51372 
L 156.454054 -90.51372 
L 160.475676 -90.51372 
L 160.475676 -90.51372 
L 164.497297 -90.51372 
L 164.497297 -90.51372 
L 168.518919 -90.51372 
L 168.518919 -90.51372 
L 172.540541 -90.51372 
L 172.540541 -90.51372 
L 176.562162 -90.51372 
L 176.562162 -107.14572 
L 180.583784 -107.14572 
L 180.583784 -107.14572 
L 184.605405 -107.14572 
L 184.605405 -107.14572 
L 188.627027 -107.14572 
L 188.627027 -107.14572 
L 192.648649 -107.14572 
L 192.648649 -107.14572 
L 196.67027 -107.14572 
L 196.67027 -107.14572 
L 200.691892 -107.14572 
L 200.691892 -107.14572 
L 204.713514 -107.14572 
L 204.713514 -148.3515 
L 208.735135 -148.3515 
L 208.735135 -148.3515 
L 212.756757 -148.3515 
L 212.756757 -148.3515 
L 216.778378 -148.3515 
L 216.778378 -148.3515 
L 220.8 -148.3515 
L 220.8 -148.3515 
L 224.821622 -148.3515 
L 224.821622 -148.3515 
L 228.843243 -148.3515 
L 228.843243 -148.3515 
L 232.864865 -148.3515 
L 232.864865 -148.3515 
L 236.886486 -148.3515 
L 236.886486 -148.3515 
L 240.908108 -148.3515 
L 240.908108 -148.3515 
L 244.92973 -148.3515 
L 244.92973 -148.3515 
L 248.951351 -148.3515 
L 248.951351 -148.3515 
L 252.972973 -148.3515 
L 252.972973 -148.3515 
L 256.994595 -148.3515 
L 256.994595 -148.3515 
L 261.016216 -148.3515 
L 261.016216 -231.648689 
L 265.037838 -231.648689 
L 265.037838 -231.648689 
L 269.059459 -231.648689 
L 269.059459 -231.648689 
L 273.081081 -231.648689 
L 273.081081 -231.648689 
L 277.102703 -231.648689 
L 277.102703 -231.648689 
L 281.124324 -231.648689 
L 281.124324 -231.648689 
L 285.145946 -231.648689 
L 285.145946 -231.648689 
L 289.167568 -231.648689 
L 289.167568 -244.205849 
L 293.189189 -244.205849 
L 293.189189 -244.205849 
L 297.210811 -244.205849 
L 297.210811 -244.205849 
L 301.232432 -244.205849 
L 301.232432 -244.205849 
L 305.254054 -244.205849 
L 305.254054 -244.205849 
L 309.275676 -244.205849 
L 309.275676 -244.205849 
L 313.297297 -244.205849 
L 313.297297 -244.205849 
L 317.318919 -244.205849 
L 317.318919 -268.685607 
L 321.340541 -268.685607 
L 321.340541 -295.529411 
L 321.340541 -295.529411 
L 317.318919 -295.529411 
L 317.318919 -270.789544 
L 313.297297 -270.789544 
L 313.297297 -270.985338 
L 309.275676 -270.985338 
L 309.275676 -269.467669 
L 305.254054 -269.467669 
L 305.254054 -268.165925 
L 301.232432 -268.165925 
L 301.232432 -266.796413 
L 297.210811 -266.796413 
L 297.210811 -265.746485 
L 293.189189 -265.746485 
L 293.189189 -265.181883 
L 289.167568 -265.181883 
L 289.167568 -252.573859 
L 285.145946 -252.573859 
L 285.145946 -251.197564 
L 281.124324 -251.197564 
L 281.124324 -249.832983 
L 277.102703 -249.832983 
L 277.102703 -248.398248 
L 273.081081 -248.398248 
L 273.081081 -247.103422 
L 269.059459 -247.103422 
L 269.059459 -246.531503 
L 265.037838 -246.531503 
L 265.037838 -245.751957 
L 261.016216 -245.751957 
L 261.016216 -162.411581 
L 256.994595 -162.411581 
L 256.994595 -161.958107 
L 252.972973 -161.958107 
L 252.972973 -161.554039 
L 248.951351 -161.554039 
L 248.951351 -160.885478 
L 244.92973 -160.885478 
L 244.92973 -159.925924 
L 240.908108 -159.925924 
L 240.908108 -159.095163 
L 236.886486 -159.095163 
L 236.886486 -158.971085 
L 232.864865 -158.971085 
L 232.864865 -158.788224 
L 228.843243 -158.788224 
L 228.843243 -157.60197 
L 224.821622 -157.60197 
L 224.821622 -157.106549 
L 220.8 -157.106549 
L 220.8 -156.184653 
L 216.778378 -156.184653 
L 216.778378 -155.630927 
L 212.756757 -155.630927 
L 212.756757 -155.2122 
L 208.735135 -155.2122 
L 208.735135 -154.965838 
L 204.713514 -154.965838 
L 204.713514 -113.54405 
L 200.691892 -113.54405 
L 200.691892 -113.12218 
L 196.67027 -113.12218 
L 196.67027 -112.219145 
L 192.648649 -112.219145 
L 192.648649 -111.373574 
L 188.627027 -111.373574 
L 188.627027 -110.630706 
L 184.605405 -110.630706 
L 184.605405 -109.948378 
L 180.583784 -109.948378 
L 180.583784 -109.798025 
L 176.562162 -109.798025 
L 176.562162 -93.00852 
L 172.540541 -93.00852 
L 172.540541 -92.59272 
L 168.518919 -92.59272 
L 168.518919 -91.96902 
L 164.497297 -91.96902 
L 164.497297 -91.088189 
L 160.475676 -91.088189 
L 160.475676 -90.753138 
L 156.454054 -90.753138 
L 156.454054 -90.515383 
L 152.432432 -90.515383 
L 152.432432 -90.51372 
L 148.410811 -90.51372 
L 148.410811 -84.3183 
L 144.389189 -84.3183 
L 144.389189 -84.3183 
L 140.367568 -84.3183 
L 140.367568 -84.3183 
L 136.345946 -84.3183 
L 136.345946 -84.3183 
L 132.324324 -84.3183 
L 132.324324 -84.3183 
L 128.302703 -84.3183 
L 128.302703 -84.3183 
L 124.281081 -84.3183 
L 124.281081 -84.3183 
L 120.259459 -84.3183 
L 120.259459 -66.231 
L 116.237838 -66.231 
L 116.237838 -66.231 
L 112.216216 -66.231 
L 112.216216 -66.231 
L 108.194595 -66.231 
L 108.194595 -66.231 
L 104.172973 -66.231 
L 104.172973 -66.231 
L 100.151351 -66.231 
L 100.151351 -66.231 
L 96.12973 -66.231 
L 96.12973 -66.231 
L 92.108108 -66.231 
L 92.108108 -59.32872 
L 88.086486 -59.32872 
L 88.086486 -59.32872 
L 84.064865 -59.32872 
L 84.064865 -59.32872 
L 80.043243 -59.32872 
L 80.043243 -59.32872 
L 76.021622 -59.32872 
L 76.021622 -59.32872 
L 72 -59.32872 
L 72 -59.32872 
z
" id="m9a70eed064"/>
    </defs>
    <g clip-path="url(#p91f3a5dfde)">
     <use style="fill:#ff7f0e;" x="0" xlink:href="#m9a70eed064" y="432"/>
    </g>
   </g>
   <g id="PolyCollection_17">
    <defs>
     <path d="M 72 -59.32872 
L 72 -59.32872 
L 72 -59.32872 
L 76.021622 -59.32872 
L 76.021622 -59.32872 
L 80.043243 -59.32872 
L 80.043243 -59.32872 
L 84.064865 -59.32872 
L 84.064865 -59.32872 
L 88.086486 -59.32872 
L 88.086486 -59.32872 
L 92.108108 -59.32872 
L 92.108108 -66.231 
L 96.12973 -66.231 
L 96.12973 -66.231 
L 100.151351 -66.231 
L 100.151351 -66.231 
L 104.172973 -66.231 
L 104.172973 -66.231 
L 108.194595 -66.231 
L 108.194595 -66.231 
L 112.216216 -66.231 
L 112.216216 -66.231 
L 116.237838 -66.231 
L 116.237838 -66.231 
L 120.259459 -66.231 
L 120.259459 -84.3183 
L 124.281081 -84.3183 
L 124.281081 -84.3183 
L 128.302703 -84.3183 
L 128.302703 -84.3183 
L 132.324324 -84.3183 
L 132.324324 -84.3183 
L 136.345946 -84.3183 
L 136.345946 -84.3183 
L 140.367568 -84.3183 
L 140.367568 -84.3183 
L 144.389189 -84.3183 
L 144.389189 -84.3183 
L 148.410811 -84.3183 
L 148.410811 -90.51372 
L 152.432432 -90.51372 
L 152.432432 -90.515383 
L 156.454054 -90.515383 
L 156.454054 -90.753138 
L 160.475676 -90.753138 
L 160.475676 -91.088189 
L 164.497297 -91.088189 
L 164.497297 -91.96902 
L 168.518919 -91.96902 
L 168.518919 -92.59272 
L 172.540541 -92.59272 
L 172.540541 -93.00852 
L 176.562162 -93.00852 
L 176.562162 -109.798025 
L 180.583784 -109.798025 
L 180.583784 -109.948378 
L 184.605405 -109.948378 
L 184.605405 -110.630706 
L 188.627027 -110.630706 
L 188.627027 -111.373574 
L 192.648649 -111.373574 
L 192.648649 -112.219145 
L 196.67027 -112.219145 
L 196.67027 -113.12218 
L 200.691892 -113.12218 
L 200.691892 -113.54405 
L 204.713514 -113.54405 
L 204.713514 -154.965838 
L 208.735135 -154.965838 
L 208.735135 -155.2122 
L 212.756757 -155.2122 
L 212.756757 -155.630927 
L 216.778378 -155.630927 
L 216.778378 -156.184653 
L 220.8 -156.184653 
L 220.8 -157.106549 
L 224.821622 -157.106549 
L 224.821622 -157.60197 
L 228.843243 -157.60197 
L 228.843243 -158.788224 
L 232.864865 -158.788224 
L 232.864865 -158.971085 
L 236.886486 -158.971085 
L 236.886486 -159.095163 
L 240.908108 -159.095163 
L 240.908108 -159.925924 
L 244.92973 -159.925924 
L 244.92973 -160.885478 
L 248.951351 -160.885478 
L 248.951351 -161.554039 
L 252.972973 -161.554039 
L 252.972973 -161.958107 
L 256.994595 -161.958107 
L 256.994595 -162.411581 
L 261.016216 -162.411581 
L 261.016216 -245.751957 
L 265.037838 -245.751957 
L 265.037838 -246.531503 
L 269.059459 -246.531503 
L 269.059459 -247.103422 
L 273.081081 -247.103422 
L 273.081081 -248.398248 
L 277.102703 -248.398248 
L 277.102703 -249.832983 
L 281.124324 -249.832983 
L 281.124324 -251.197564 
L 285.145946 -251.197564 
L 285.145946 -252.573859 
L 289.167568 -252.573859 
L 289.167568 -265.181883 
L 293.189189 -265.181883 
L 293.189189 -265.746485 
L 297.210811 -265.746485 
L 297.210811 -266.796413 
L 301.232432 -266.796413 
L 301.232432 -268.165925 
L 305.254054 -268.165925 
L 305.254054 -269.467669 
L 309.275676 -269.467669 
L 309.275676 -270.985338 
L 313.297297 -270.985338 
L 313.297297 -270.789544 
L 317.318919 -270.789544 
L 317.318919 -295.529411 
L 321.340541 -295.529411 
L 321.340541 -364.60908 
L 321.340541 -364.60908 
L 317.318919 -364.60908 
L 317.318919 -311.30352 
L 313.297297 -311.30352 
L 313.297297 -311.30352 
L 309.275676 -311.30352 
L 309.275676 -311.30352 
L 305.254054 -311.30352 
L 305.254054 -311.30352 
L 301.232432 -311.30352 
L 301.232432 -311.30352 
L 297.210811 -311.30352 
L 297.210811 -311.30352 
L 293.189189 -311.30352 
L 293.189189 -311.30352 
L 289.167568 -311.30352 
L 289.167568 -286.1892 
L 285.145946 -286.1892 
L 285.145946 -286.1892 
L 281.124324 -286.1892 
L 281.124324 -286.1892 
L 277.102703 -286.1892 
L 277.102703 -286.1892 
L 273.081081 -286.1892 
L 273.081081 -286.1892 
L 269.059459 -286.1892 
L 269.059459 -286.1892 
L 265.037838 -286.1892 
L 265.037838 -286.1892 
L 261.016216 -286.1892 
L 261.016216 -237.37428 
L 256.994595 -237.37428 
L 256.994595 -237.37428 
L 252.972973 -237.37428 
L 252.972973 -237.37428 
L 248.951351 -237.37428 
L 248.951351 -237.37428 
L 244.92973 -237.37428 
L 244.92973 -237.37428 
L 240.908108 -237.37428 
L 240.908108 -237.37428 
L 236.886486 -237.37428 
L 236.886486 -237.37428 
L 232.864865 -237.37428 
L 232.864865 -237.37428 
L 228.843243 -237.37428 
L 228.843243 -237.37428 
L 224.821622 -237.37428 
L 224.821622 -237.37428 
L 220.8 -237.37428 
L 220.8 -237.37428 
L 216.778378 -237.37428 
L 216.778378 -237.37428 
L 212.756757 -237.37428 
L 212.756757 -237.37428 
L 208.735135 -237.37428 
L 208.735135 -237.37428 
L 204.713514 -237.37428 
L 204.713514 -154.96272 
L 200.691892 -154.96272 
L 200.691892 -154.96272 
L 196.67027 -154.96272 
L 196.67027 -154.96272 
L 192.648649 -154.96272 
L 192.648649 -154.96272 
L 188.627027 -154.96272 
L 188.627027 -154.96272 
L 184.605405 -154.96272 
L 184.605405 -154.96272 
L 180.583784 -154.96272 
L 180.583784 -154.96272 
L 176.562162 -154.96272 
L 176.562162 -121.69872 
L 172.540541 -121.69872 
L 172.540541 -121.69872 
L 168.518919 -121.69872 
L 168.518919 -121.69872 
L 164.497297 -121.69872 
L 164.497297 -121.69872 
L 160.475676 -121.69872 
L 160.475676 -121.69872 
L 156.454054 -121.69872 
L 156.454054 -121.69872 
L 152.432432 -121.69872 
L 152.432432 -121.69872 
L 148.410811 -121.69872 
L 148.410811 -109.30788 
L 144.389189 -109.30788 
L 144.389189 -109.30788 
L 140.367568 -109.30788 
L 140.367568 -109.30788 
L 136.345946 -109.30788 
L 136.345946 -109.30788 
L 132.324324 -109.30788 
L 132.324324 -109.30788 
L 128.302703 -109.30788 
L 128.302703 -109.30788 
L 124.281081 -109.30788 
L 124.281081 -109.30788 
L 120.259459 -109.30788 
L 120.259459 -73.13328 
L 116.237838 -73.13328 
L 116.237838 -73.13328 
L 112.216216 -73.13328 
L 112.216216 -73.13328 
L 108.194595 -73.13328 
L 108.194595 -73.13328 
L 104.172973 -73.13328 
L 104.172973 -73.13328 
L 100.151351 -73.13328 
L 100.151351 -73.13328 
L 96.12973 -73.13328 
L 96.12973 -73.13328 
L 92.108108 -73.13328 
L 92.108108 -59.32872 
L 88.086486 -59.32872 
L 88.086486 -59.32872 
L 84.064865 -59.32872 
L 84.064865 -59.32872 
L 80.043243 -59.32872 
L 80.043243 -59.32872 
L 76.021622 -59.32872 
L 76.021622 -59.32872 
L 72 -59.32872 
L 72 -59.32872 
z
" id="m5c4ca03245"/>
    </defs>
    <g clip-path="url(#p91f3a5dfde)">
     <use style="fill:#d62728;" x="0" xlink:href="#m5c4ca03245" y="432"/>
    </g>
   </g>
   <g id="matplotlib.axis_1">
    <g id="xtick_1">
     <g id="line2d_1">
      <path clip-path="url(#p91f3a5dfde)" d="M 96.12973 384.48 
L 96.12973 51.84 
" style="fill:none;stroke:#000000;stroke-dasharray:0.8,1.32;stroke-dashoffset:0;stroke-width:0.8;"/>
     </g>
     <g id="line2d_2">
      <defs>
       <path d="M 0 0 
L 0 3.5 
" id="mf5c3b89a52" style="stroke:#000000;stroke-width:0.8;"/>
      </defs>
      <g>
       <use style="stroke:#000000;stroke-width:0.8;" x="96.12973" xlink:href="#mf5c3b89a52" y="384.48"/>
      </g>
     </g>
     <g id="text_1">
      <!-- Mar -->
      <g transform="translate(86.696136 399.078438)scale(0.1 -0.1)">
       <defs>
        <path d="M 628 4666 
L 1569 4666 
L 2759 1491 
L 3956 4666 
L 4897 4666 
L 4897 0 
L 4281 0 
L 4281 4097 
L 3078 897 
L 2444 897 
L 1241 4097 
L 1241 0 
L 628 0 
L 628 4666 
z
" id="DejaVuSans-4d" transform="scale(0.015625)"/>
        <path d="M 2194 1759 
Q 1497 1759 1228 1600 
Q 959 1441 959 1056 
Q 959 750 1161 570 
Q 1363 391 1709 391 
Q 2188 391 2477 730 
Q 2766 1069 2766 1631 
L 2766 1759 
L 2194 1759 
z
M 3341 1997 
L 3341 0 
L 2766 0 
L 2766 531 
Q 2569 213 2275 61 
Q 1981 -91 1556 -91 
Q 1019 -91 701 211 
Q 384 513 384 1019 
Q 384 1609 779 1909 
Q 1175 2209 1959 2209 
L 2766 2209 
L 2766 2266 
Q 2766 2663 2505 2880 
Q 2244 3097 1772 3097 
Q 1472 3097 1187 3025 
Q 903 2953 641 2809 
L 641 3341 
Q 956 3463 1253 3523 
Q 1550 3584 1831 3584 
Q 2591 3584 2966 3190 
Q 3341 2797 3341 1997 
z
" id="DejaVuSans-61" transform="scale(0.015625)"/>
        <path d="M 2631 2963 
Q 2534 3019 2420 3045 
Q 2306 3072 2169 3072 
Q 1681 3072 1420 2755 
Q 1159 2438 1159 1844 
L 1159 0 
L 581 0 
L 581 3500 
L 1159 3500 
L 1159 2956 
Q 1341 3275 1631 3429 
Q 1922 3584 2338 3584 
Q 2397 3584 2469 3576 
Q 2541 3569 2628 3553 
L 2631 2963 
z
" id="DejaVuSans-72" transform="scale(0.015625)"/>
       </defs>
       <use xlink:href="#DejaVuSans-4d"/>
       <use x="86.279297" xlink:href="#DejaVuSans-61"/>
       <use x="147.558594" xlink:href="#DejaVuSans-72"/>
      </g>
     </g>
    </g>
    <g id="xtick_2">
     <g id="line2d_3">
      <path clip-path="url(#p91f3a5dfde)" d="M 152.432432 384.48 
L 152.432432 51.84 
" style="fill:none;stroke:#000000;stroke-dasharray:0.8,1.32;stroke-dashoffset:0;stroke-width:0.8;"/>
     </g>
     <g id="line2d_4">
      <g>
       <use style="stroke:#000000;stroke-width:0.8;" x="152.432432" xlink:href="#mf5c3b89a52" y="384.48"/>
      </g>
     </g>
     <g id="text_2">
      <!-- 15 -->
      <g transform="translate(146.069932 399.078438)scale(0.1 -0.1)">
       <defs>
        <path d="M 794 531 
L 1825 531 
L 1825 4091 
L 703 3866 
L 703 4441 
L 1819 4666 
L 2450 4666 
L 2450 531 
L 3481 531 
L 3481 0 
L 794 0 
L 794 531 
z
" id="DejaVuSans-31" transform="scale(0.015625)"/>
        <path d="M 691 4666 
L 3169 4666 
L 3169 4134 
L 1269 4134 
L 1269 2991 
Q 1406 3038 1543 3061 
Q 1681 3084 1819 3084 
Q 2600 3084 3056 2656 
Q 3513 2228 3513 1497 
Q 3513 744 3044 326 
Q 2575 -91 1722 -91 
Q 1428 -91 1123 -41 
Q 819 9 494 109 
L 494 744 
Q 775 591 1075 516 
Q 1375 441 1709 441 
Q 2250 441 2565 725 
Q 2881 1009 2881 1497 
Q 2881 1984 2565 2268 
Q 2250 2553 1709 2553 
Q 1456 2553 1204 2497 
Q 953 2441 691 2322 
L 691 4666 
z
" id="DejaVuSans-35" transform="scale(0.015625)"/>
       </defs>
       <use xlink:href="#DejaVuSans-31"/>
       <use x="63.623047" xlink:href="#DejaVuSans-35"/>
      </g>
     </g>
    </g>
    <g id="xtick_3">
     <g id="line2d_5">
      <path clip-path="url(#p91f3a5dfde)" d="M 220.8 384.48 
L 220.8 51.84 
" style="fill:none;stroke:#000000;stroke-dasharray:0.8,1.32;stroke-dashoffset:0;stroke-width:0.8;"/>
     </g>
     <g id="line2d_6">
      <g>
       <use style="stroke:#000000;stroke-width:0.8;" x="220.8" xlink:href="#mf5c3b89a52" y="384.48"/>
      </g>
     </g>
     <g id="text_3">
      <!-- Apr -->
      <g transform="translate(212.15 399.078438)scale(0.1 -0.1)">
       <defs>
        <path d="M 2188 4044 
L 1331 1722 
L 3047 1722 
L 2188 4044 
z
M 1831 4666 
L 2547 4666 
L 4325 0 
L 3669 0 
L 3244 1197 
L 1141 1197 
L 716 0 
L 50 0 
L 1831 4666 
z
" id="DejaVuSans-41" transform="scale(0.015625)"/>
        <path d="M 1159 525 
L 1159 -1331 
L 581 -1331 
L 581 3500 
L 1159 3500 
L 1159 2969 
Q 1341 3281 1617 3432 
Q 1894 3584 2278 3584 
Q 2916 3584 3314 3078 
Q 3713 2572 3713 1747 
Q 3713 922 3314 415 
Q 2916 -91 2278 -91 
Q 1894 -91 1617 61 
Q 1341 213 1159 525 
z
M 3116 1747 
Q 3116 2381 2855 2742 
Q 2594 3103 2138 3103 
Q 1681 3103 1420 2742 
Q 1159 2381 1159 1747 
Q 1159 1113 1420 752 
Q 1681 391 2138 391 
Q 2594 391 2855 752 
Q 3116 1113 3116 1747 
z
" id="DejaVuSans-70" transform="scale(0.015625)"/>
       </defs>
       <use xlink:href="#DejaVuSans-41"/>
       <use x="68.408203" xlink:href="#DejaVuSans-70"/>
       <use x="131.884766" xlink:href="#DejaVuSans-72"/>
      </g>
     </g>
    </g>
    <g id="xtick_4">
     <g id="line2d_7">
      <path clip-path="url(#p91f3a5dfde)" d="M 277.102703 384.48 
L 277.102703 51.84 
" style="fill:none;stroke:#000000;stroke-dasharray:0.8,1.32;stroke-dashoffset:0;stroke-width:0.8;"/>
     </g>
     <g id="line2d_8">
      <g>
       <use style="stroke:#000000;stroke-width:0.8;" x="277.102703" xlink:href="#mf5c3b89a52" y="384.48"/>
      </g>
     </g>
     <g id="text_4">
      <!-- 15 -->
      <g transform="translate(270.740203 399.078438)scale(0.1 -0.1)">
       <use xlink:href="#DejaVuSans-31"/>
       <use x="63.623047" xlink:href="#DejaVuSans-35"/>
      </g>
     </g>
    </g>
    <g id="xtick_5">
     <g id="line2d_9">
      <path clip-path="url(#p91f3a5dfde)" d="M 341.448649 384.48 
L 341.448649 51.84 
" style="fill:none;stroke:#000000;stroke-dasharray:0.8,1.32;stroke-dashoffset:0;stroke-width:0.8;"/>
     </g>
     <g id="line2d_10">
      <g>
       <use style="stroke:#000000;stroke-width:0.8;" x="341.448649" xlink:href="#mf5c3b89a52" y="384.48"/>
      </g>
     </g>
     <g id="text_5">
      <!-- May -->
      <g transform="translate(331.111149 399.078438)scale(0.1 -0.1)">
       <defs>
        <path d="M 2059 -325 
Q 1816 -950 1584 -1140 
Q 1353 -1331 966 -1331 
L 506 -1331 
L 506 -850 
L 844 -850 
Q 1081 -850 1212 -737 
Q 1344 -625 1503 -206 
L 1606 56 
L 191 3500 
L 800 3500 
L 1894 763 
L 2988 3500 
L 3597 3500 
L 2059 -325 
z
" id="DejaVuSans-79" transform="scale(0.015625)"/>
       </defs>
       <use xlink:href="#DejaVuSans-4d"/>
       <use x="86.279297" xlink:href="#DejaVuSans-61"/>
       <use x="147.558594" xlink:href="#DejaVuSans-79"/>
      </g>
     </g>
    </g>
    <g id="xtick_6">
     <g id="line2d_11">
      <path clip-path="url(#p91f3a5dfde)" d="M 397.751351 384.48 
L 397.751351 51.84 
" style="fill:none;stroke:#000000;stroke-dasharray:0.8,1.32;stroke-dashoffset:0;stroke-width:0.8;"/>
     </g>
     <g id="line2d_12">
      <g>
       <use style="stroke:#000000;stroke-width:0.8;" x="397.751351" xlink:href="#mf5c3b89a52" y="384.48"/>
      </g>
     </g>
     <g id="text_6">
      <!-- 15 -->
      <g transform="translate(391.388851 399.078438)scale(0.1 -0.1)">
       <use xlink:href="#DejaVuSans-31"/>
       <use x="63.623047" xlink:href="#DejaVuSans-35"/>
      </g>
     </g>
    </g>
    <g id="xtick_7">
     <g id="line2d_13">
      <path clip-path="url(#p91f3a5dfde)" d="M 466.118919 384.48 
L 466.118919 51.84 
" style="fill:none;stroke:#000000;stroke-dasharray:0.8,1.32;stroke-dashoffset:0;stroke-width:0.8;"/>
     </g>
     <g id="line2d_14">
      <g>
       <use style="stroke:#000000;stroke-width:0.8;" x="466.118919" xlink:href="#mf5c3b89a52" y="384.48"/>
      </g>
     </g>
     <g id="text_7">
      <!-- Jun -->
      <g transform="translate(458.306419 399.078438)scale(0.1 -0.1)">
       <defs>
        <path d="M 628 4666 
L 1259 4666 
L 1259 325 
Q 1259 -519 939 -900 
Q 619 -1281 -91 -1281 
L -331 -1281 
L -331 -750 
L -134 -750 
Q 284 -750 456 -515 
Q 628 -281 628 325 
L 628 4666 
z
" id="DejaVuSans-4a" transform="scale(0.015625)"/>
        <path d="M 544 1381 
L 544 3500 
L 1119 3500 
L 1119 1403 
Q 1119 906 1312 657 
Q 1506 409 1894 409 
Q 2359 409 2629 706 
Q 2900 1003 2900 1516 
L 2900 3500 
L 3475 3500 
L 3475 0 
L 2900 0 
L 2900 538 
Q 2691 219 2414 64 
Q 2138 -91 1772 -91 
Q 1169 -91 856 284 
Q 544 659 544 1381 
z
M 1991 3584 
L 1991 3584 
z
" id="DejaVuSans-75" transform="scale(0.015625)"/>
        <path d="M 3513 2113 
L 3513 0 
L 2938 0 
L 2938 2094 
Q 2938 2591 2744 2837 
Q 2550 3084 2163 3084 
Q 1697 3084 1428 2787 
Q 1159 2491 1159 1978 
L 1159 0 
L 581 0 
L 581 3500 
L 1159 3500 
L 1159 2956 
Q 1366 3272 1645 3428 
Q 1925 3584 2291 3584 
Q 2894 3584 3203 3211 
Q 3513 2838 3513 2113 
z
" id="DejaVuSans-6e" transform="scale(0.015625)"/>
       </defs>
       <use xlink:href="#DejaVuSans-4a"/>
       <use x="29.492188" xlink:href="#DejaVuSans-75"/>
       <use x="92.871094" xlink:href="#DejaVuSans-6e"/>
      </g>
     </g>
    </g>
   </g>
   <g id="matplotlib.axis_2">
    <g id="ytick_1">
     <g id="line2d_15">
      <path clip-path="url(#p91f3a5dfde)" d="M 72 384.48 
L 518.4 384.48 
" style="fill:none;stroke:#000000;stroke-dasharray:0.8,1.32;stroke-dashoffset:0;stroke-width:0.8;"/>
     </g>
     <g id="line2d_16">
      <defs>
       <path d="M 0 0 
L -3.5 0 
" id="mb3a7a5f55d" style="stroke:#000000;stroke-width:0.8;"/>
      </defs>
      <g>
       <use style="stroke:#000000;stroke-width:0.8;" x="72" xlink:href="#mb3a7a5f55d" y="384.48"/>
      </g>
     </g>
     <g id="text_8">
      <!-- 0 -->
      <g transform="translate(58.6375 388.279219)scale(0.1 -0.1)">
       <defs>
        <path d="M 2034 4250 
Q 1547 4250 1301 3770 
Q 1056 3291 1056 2328 
Q 1056 1369 1301 889 
Q 1547 409 2034 409 
Q 2525 409 2770 889 
Q 3016 1369 3016 2328 
Q 3016 3291 2770 3770 
Q 2525 4250 2034 4250 
z
M 2034 4750 
Q 2819 4750 3233 4129 
Q 3647 3509 3647 2328 
Q 3647 1150 3233 529 
Q 2819 -91 2034 -91 
Q 1250 -91 836 529 
Q 422 1150 422 2328 
Q 422 3509 836 4129 
Q 1250 4750 2034 4750 
z
" id="DejaVuSans-30" transform="scale(0.015625)"/>
       </defs>
       <use xlink:href="#DejaVuSans-30"/>
      </g>
     </g>
    </g>
    <g id="ytick_2">
     <g id="line2d_17">
      <path clip-path="url(#p91f3a5dfde)" d="M 72 301.32 
L 518.4 301.32 
" style="fill:none;stroke:#000000;stroke-dasharray:0.8,1.32;stroke-dashoffset:0;stroke-width:0.8;"/>
     </g>
     <g id="line2d_18">
      <g>
       <use style="stroke:#000000;stroke-width:0.8;" x="72" xlink:href="#mb3a7a5f55d" y="301.32"/>
      </g>
     </g>
     <g id="text_9">
      <!-- 1 -->
      <g transform="translate(58.6375 305.119219)scale(0.1 -0.1)">
       <use xlink:href="#DejaVuSans-31"/>
      </g>
     </g>
    </g>
    <g id="ytick_3">
     <g id="line2d_19">
      <path clip-path="url(#p91f3a5dfde)" d="M 72 218.16 
L 518.4 218.16 
" style="fill:none;stroke:#000000;stroke-dasharray:0.8,1.32;stroke-dashoffset:0;stroke-width:0.8;"/>
     </g>
     <g id="line2d_20">
      <g>
       <use style="stroke:#000000;stroke-width:0.8;" x="72" xlink:href="#mb3a7a5f55d" y="218.16"/>
      </g>
     </g>
     <g id="text_10">
      <!-- 2 -->
      <g transform="translate(58.6375 221.959219)scale(0.1 -0.1)">
       <defs>
        <path d="M 1228 531 
L 3431 531 
L 3431 0 
L 469 0 
L 469 531 
Q 828 903 1448 1529 
Q 2069 2156 2228 2338 
Q 2531 2678 2651 2914 
Q 2772 3150 2772 3378 
Q 2772 3750 2511 3984 
Q 2250 4219 1831 4219 
Q 1534 4219 1204 4116 
Q 875 4013 500 3803 
L 500 4441 
Q 881 4594 1212 4672 
Q 1544 4750 1819 4750 
Q 2544 4750 2975 4387 
Q 3406 4025 3406 3419 
Q 3406 3131 3298 2873 
Q 3191 2616 2906 2266 
Q 2828 2175 2409 1742 
Q 1991 1309 1228 531 
z
" id="DejaVuSans-32" transform="scale(0.015625)"/>
       </defs>
       <use xlink:href="#DejaVuSans-32"/>
      </g>
     </g>
    </g>
    <g id="ytick_4">
     <g id="line2d_21">
      <path clip-path="url(#p91f3a5dfde)" d="M 72 135 
L 518.4 135 
" style="fill:none;stroke:#000000;stroke-dasharray:0.8,1.32;stroke-dashoffset:0;stroke-width:0.8;"/>
     </g>
     <g id="line2d_22">
      <g>
       <use style="stroke:#000000;stroke-width:0.8;" x="72" xlink:href="#mb3a7a5f55d" y="135"/>
      </g>
     </g>
     <g id="text_11">
      <!-- 3 -->
      <g transform="translate(58.6375 138.799219)scale(0.1 -0.1)">
       <defs>
        <path d="M 2597 2516 
Q 3050 2419 3304 2112 
Q 3559 1806 3559 1356 
Q 3559 666 3084 287 
Q 2609 -91 1734 -91 
Q 1441 -91 1130 -33 
Q 819 25 488 141 
L 488 750 
Q 750 597 1062 519 
Q 1375 441 1716 441 
Q 2309 441 2620 675 
Q 2931 909 2931 1356 
Q 2931 1769 2642 2001 
Q 2353 2234 1838 2234 
L 1294 2234 
L 1294 2753 
L 1863 2753 
Q 2328 2753 2575 2939 
Q 2822 3125 2822 3475 
Q 2822 3834 2567 4026 
Q 2313 4219 1838 4219 
Q 1578 4219 1281 4162 
Q 984 4106 628 3988 
L 628 4550 
Q 988 4650 1302 4700 
Q 1616 4750 1894 4750 
Q 2613 4750 3031 4423 
Q 3450 4097 3450 3541 
Q 3450 3153 3228 2886 
Q 3006 2619 2597 2516 
z
" id="DejaVuSans-33" transform="scale(0.015625)"/>
       </defs>
       <use xlink:href="#DejaVuSans-33"/>
      </g>
     </g>
    </g>
    <g id="ytick_5">
     <g id="line2d_23">
      <path clip-path="url(#p91f3a5dfde)" d="M 72 51.84 
L 518.4 51.84 
" style="fill:none;stroke:#000000;stroke-dasharray:0.8,1.32;stroke-dashoffset:0;stroke-width:0.8;"/>
     </g>
     <g id="line2d_24">
      <g>
       <use style="stroke:#000000;stroke-width:0.8;" x="72" xlink:href="#mb3a7a5f55d" y="51.84"/>
      </g>
     </g>
     <g id="text_12">
      <!-- 4 -->
      <g transform="translate(58.6375 55.639219)scale(0.1 -0.1)">
       <defs>
        <path d="M 2419 4116 
L 825 1625 
L 2419 1625 
L 2419 4116 
z
M 2253 4666 
L 3047 4666 
L 3047 1625 
L 3713 1625 
L 3713 1100 
L 3047 1100 
L 3047 0 
L 2419 0 
L 2419 1100 
L 313 1100 
L 313 1709 
L 2253 4666 
z
" id="DejaVuSans-34" transform="scale(0.015625)"/>
       </defs>
       <use xlink:href="#DejaVuSans-34"/>
      </g>
     </g>
    </g>
    <g id="text_13">
     <!-- Cumulative doses (millions) -->
     <g transform="translate(52.557812 287.556094)rotate(-90)scale(0.1 -0.1)">
      <defs>
       <path d="M 4122 4306 
L 4122 3641 
Q 3803 3938 3442 4084 
Q 3081 4231 2675 4231 
Q 1875 4231 1450 3742 
Q 1025 3253 1025 2328 
Q 1025 1406 1450 917 
Q 1875 428 2675 428 
Q 3081 428 3442 575 
Q 3803 722 4122 1019 
L 4122 359 
Q 3791 134 3420 21 
Q 3050 -91 2638 -91 
Q 1578 -91 968 557 
Q 359 1206 359 2328 
Q 359 3453 968 4101 
Q 1578 4750 2638 4750 
Q 3056 4750 3426 4639 
Q 3797 4528 4122 4306 
z
" id="DejaVuSans-43" transform="scale(0.015625)"/>
       <path d="M 3328 2828 
Q 3544 3216 3844 3400 
Q 4144 3584 4550 3584 
Q 5097 3584 5394 3201 
Q 5691 2819 5691 2113 
L 5691 0 
L 5113 0 
L 5113 2094 
Q 5113 2597 4934 2840 
Q 4756 3084 4391 3084 
Q 3944 3084 3684 2787 
Q 3425 2491 3425 1978 
L 3425 0 
L 2847 0 
L 2847 2094 
Q 2847 2600 2669 2842 
Q 2491 3084 2119 3084 
Q 1678 3084 1418 2786 
Q 1159 2488 1159 1978 
L 1159 0 
L 581 0 
L 581 3500 
L 1159 3500 
L 1159 2956 
Q 1356 3278 1631 3431 
Q 1906 3584 2284 3584 
Q 2666 3584 2933 3390 
Q 3200 3197 3328 2828 
z
" id="DejaVuSans-6d" transform="scale(0.015625)"/>
       <path d="M 603 4863 
L 1178 4863 
L 1178 0 
L 603 0 
L 603 4863 
z
" id="DejaVuSans-6c" transform="scale(0.015625)"/>
       <path d="M 1172 4494 
L 1172 3500 
L 2356 3500 
L 2356 3053 
L 1172 3053 
L 1172 1153 
Q 1172 725 1289 603 
Q 1406 481 1766 481 
L 2356 481 
L 2356 0 
L 1766 0 
Q 1100 0 847 248 
Q 594 497 594 1153 
L 594 3053 
L 172 3053 
L 172 3500 
L 594 3500 
L 594 4494 
L 1172 4494 
z
" id="DejaVuSans-74" transform="scale(0.015625)"/>
       <path d="M 603 3500 
L 1178 3500 
L 1178 0 
L 603 0 
L 603 3500 
z
M 603 4863 
L 1178 4863 
L 1178 4134 
L 603 4134 
L 603 4863 
z
" id="DejaVuSans-69" transform="scale(0.015625)"/>
       <path d="M 191 3500 
L 800 3500 
L 1894 563 
L 2988 3500 
L 3597 3500 
L 2284 0 
L 1503 0 
L 191 3500 
z
" id="DejaVuSans-76" transform="scale(0.015625)"/>
       <path d="M 3597 1894 
L 3597 1613 
L 953 1613 
Q 991 1019 1311 708 
Q 1631 397 2203 397 
Q 2534 397 2845 478 
Q 3156 559 3463 722 
L 3463 178 
Q 3153 47 2828 -22 
Q 2503 -91 2169 -91 
Q 1331 -91 842 396 
Q 353 884 353 1716 
Q 353 2575 817 3079 
Q 1281 3584 2069 3584 
Q 2775 3584 3186 3129 
Q 3597 2675 3597 1894 
z
M 3022 2063 
Q 3016 2534 2758 2815 
Q 2500 3097 2075 3097 
Q 1594 3097 1305 2825 
Q 1016 2553 972 2059 
L 3022 2063 
z
" id="DejaVuSans-65" transform="scale(0.015625)"/>
       <path id="DejaVuSans-20" transform="scale(0.015625)"/>
       <path d="M 2906 2969 
L 2906 4863 
L 3481 4863 
L 3481 0 
L 2906 0 
L 2906 525 
Q 2725 213 2448 61 
Q 2172 -91 1784 -91 
Q 1150 -91 751 415 
Q 353 922 353 1747 
Q 353 2572 751 3078 
Q 1150 3584 1784 3584 
Q 2172 3584 2448 3432 
Q 2725 3281 2906 2969 
z
M 947 1747 
Q 947 1113 1208 752 
Q 1469 391 1925 391 
Q 2381 391 2643 752 
Q 2906 1113 2906 1747 
Q 2906 2381 2643 2742 
Q 2381 3103 1925 3103 
Q 1469 3103 1208 2742 
Q 947 2381 947 1747 
z
" id="DejaVuSans-64" transform="scale(0.015625)"/>
       <path d="M 1959 3097 
Q 1497 3097 1228 2736 
Q 959 2375 959 1747 
Q 959 1119 1226 758 
Q 1494 397 1959 397 
Q 2419 397 2687 759 
Q 2956 1122 2956 1747 
Q 2956 2369 2687 2733 
Q 2419 3097 1959 3097 
z
M 1959 3584 
Q 2709 3584 3137 3096 
Q 3566 2609 3566 1747 
Q 3566 888 3137 398 
Q 2709 -91 1959 -91 
Q 1206 -91 779 398 
Q 353 888 353 1747 
Q 353 2609 779 3096 
Q 1206 3584 1959 3584 
z
" id="DejaVuSans-6f" transform="scale(0.015625)"/>
       <path d="M 2834 3397 
L 2834 2853 
Q 2591 2978 2328 3040 
Q 2066 3103 1784 3103 
Q 1356 3103 1142 2972 
Q 928 2841 928 2578 
Q 928 2378 1081 2264 
Q 1234 2150 1697 2047 
L 1894 2003 
Q 2506 1872 2764 1633 
Q 3022 1394 3022 966 
Q 3022 478 2636 193 
Q 2250 -91 1575 -91 
Q 1294 -91 989 -36 
Q 684 19 347 128 
L 347 722 
Q 666 556 975 473 
Q 1284 391 1588 391 
Q 1994 391 2212 530 
Q 2431 669 2431 922 
Q 2431 1156 2273 1281 
Q 2116 1406 1581 1522 
L 1381 1569 
Q 847 1681 609 1914 
Q 372 2147 372 2553 
Q 372 3047 722 3315 
Q 1072 3584 1716 3584 
Q 2034 3584 2315 3537 
Q 2597 3491 2834 3397 
z
" id="DejaVuSans-73" transform="scale(0.015625)"/>
       <path d="M 1984 4856 
Q 1566 4138 1362 3434 
Q 1159 2731 1159 2009 
Q 1159 1288 1364 580 
Q 1569 -128 1984 -844 
L 1484 -844 
Q 1016 -109 783 600 
Q 550 1309 550 2009 
Q 550 2706 781 3412 
Q 1013 4119 1484 4856 
L 1984 4856 
z
" id="DejaVuSans-28" transform="scale(0.015625)"/>
       <path d="M 513 4856 
L 1013 4856 
Q 1481 4119 1714 3412 
Q 1947 2706 1947 2009 
Q 1947 1309 1714 600 
Q 1481 -109 1013 -844 
L 513 -844 
Q 928 -128 1133 580 
Q 1338 1288 1338 2009 
Q 1338 2731 1133 3434 
Q 928 4138 513 4856 
z
" id="DejaVuSans-29" transform="scale(0.015625)"/>
      </defs>
      <use xlink:href="#DejaVuSans-43"/>
      <use x="69.824219" xlink:href="#DejaVuSans-75"/>
      <use x="133.203125" xlink:href="#DejaVuSans-6d"/>
      <use x="230.615234" xlink:href="#DejaVuSans-75"/>
      <use x="293.994141" xlink:href="#DejaVuSans-6c"/>
      <use x="321.777344" xlink:href="#DejaVuSans-61"/>
      <use x="383.056641" xlink:href="#DejaVuSans-74"/>
      <use x="422.265625" xlink:href="#DejaVuSans-69"/>
      <use x="450.048828" xlink:href="#DejaVuSans-76"/>
      <use x="509.228516" xlink:href="#DejaVuSans-65"/>
      <use x="570.751953" xlink:href="#DejaVuSans-20"/>
      <use x="602.539062" xlink:href="#DejaVuSans-64"/>
      <use x="666.015625" xlink:href="#DejaVuSans-6f"/>
      <use x="727.197266" xlink:href="#DejaVuSans-73"/>
      <use x="779.296875" xlink:href="#DejaVuSans-65"/>
      <use x="840.820312" xlink:href="#DejaVuSans-73"/>
      <use x="892.919922" xlink:href="#DejaVuSans-20"/>
      <use x="924.707031" xlink:href="#DejaVuSans-28"/>
      <use x="963.720703" xlink:href="#DejaVuSans-6d"/>
      <use x="1061.132812" xlink:href="#DejaVuSans-69"/>
      <use x="1088.916016" xlink:href="#DejaVuSans-6c"/>
      <use x="1116.699219" xlink:href="#DejaVuSans-6c"/>
      <use x="1144.482422" xlink:href="#DejaVuSans-69"/>
      <use x="1172.265625" xlink:href="#DejaVuSans-6f"/>
      <use x="1233.447266" xlink:href="#DejaVuSans-6e"/>
      <use x="1296.826172" xlink:href="#DejaVuSans-73"/>
      <use x="1348.925781" xlink:href="#DejaVuSans-29"/>
     </g>
    </g>
   </g>
   <g id="patch_3">
    <path d="M 72 384.48 
L 72 51.84 
" style="fill:none;stroke:#000000;stroke-linecap:square;stroke-linejoin:miter;stroke-width:0.8;"/>
   </g>
   <g id="patch_4">
    <path d="M 518.4 384.48 
L 518.4 51.84 
" style="fill:none;stroke:#000000;stroke-linecap:square;stroke-linejoin:miter;stroke-width:0.8;"/>
   </g>
   <g id="patch_5">
    <path d="M 72 384.48 
L 518.4 384.48 
" style="fill:none;stroke:#000000;stroke-linecap:square;stroke-linejoin:miter;stroke-width:0.8;"/>
   </g>
   <g id="patch_6">
    <path d="M 72 51.84 
L 518.4 51.84 
" style="fill:none;stroke:#000000;stroke-linecap:square;stroke-linejoin:miter;stroke-width:0.8;"/>
   </g>
   <g id="text_14">
    <!-- Estimated vaccine utilisation: first dose utilisation rate: 60.6% -->
    <g transform="translate(108.34125 45.84)scale(0.12 -0.12)">
     <defs>
      <path d="M 628 4666 
L 3578 4666 
L 3578 4134 
L 1259 4134 
L 1259 2753 
L 3481 2753 
L 3481 2222 
L 1259 2222 
L 1259 531 
L 3634 531 
L 3634 0 
L 628 0 
L 628 4666 
z
" id="DejaVuSans-45" transform="scale(0.015625)"/>
      <path d="M 3122 3366 
L 3122 2828 
Q 2878 2963 2633 3030 
Q 2388 3097 2138 3097 
Q 1578 3097 1268 2742 
Q 959 2388 959 1747 
Q 959 1106 1268 751 
Q 1578 397 2138 397 
Q 2388 397 2633 464 
Q 2878 531 3122 666 
L 3122 134 
Q 2881 22 2623 -34 
Q 2366 -91 2075 -91 
Q 1284 -91 818 406 
Q 353 903 353 1747 
Q 353 2603 823 3093 
Q 1294 3584 2113 3584 
Q 2378 3584 2631 3529 
Q 2884 3475 3122 3366 
z
" id="DejaVuSans-63" transform="scale(0.015625)"/>
      <path d="M 750 794 
L 1409 794 
L 1409 0 
L 750 0 
L 750 794 
z
M 750 3309 
L 1409 3309 
L 1409 2516 
L 750 2516 
L 750 3309 
z
" id="DejaVuSans-3a" transform="scale(0.015625)"/>
      <path d="M 2375 4863 
L 2375 4384 
L 1825 4384 
Q 1516 4384 1395 4259 
Q 1275 4134 1275 3809 
L 1275 3500 
L 2222 3500 
L 2222 3053 
L 1275 3053 
L 1275 0 
L 697 0 
L 697 3053 
L 147 3053 
L 147 3500 
L 697 3500 
L 697 3744 
Q 697 4328 969 4595 
Q 1241 4863 1831 4863 
L 2375 4863 
z
" id="DejaVuSans-66" transform="scale(0.015625)"/>
      <path d="M 2113 2584 
Q 1688 2584 1439 2293 
Q 1191 2003 1191 1497 
Q 1191 994 1439 701 
Q 1688 409 2113 409 
Q 2538 409 2786 701 
Q 3034 994 3034 1497 
Q 3034 2003 2786 2293 
Q 2538 2584 2113 2584 
z
M 3366 4563 
L 3366 3988 
Q 3128 4100 2886 4159 
Q 2644 4219 2406 4219 
Q 1781 4219 1451 3797 
Q 1122 3375 1075 2522 
Q 1259 2794 1537 2939 
Q 1816 3084 2150 3084 
Q 2853 3084 3261 2657 
Q 3669 2231 3669 1497 
Q 3669 778 3244 343 
Q 2819 -91 2113 -91 
Q 1303 -91 875 529 
Q 447 1150 447 2328 
Q 447 3434 972 4092 
Q 1497 4750 2381 4750 
Q 2619 4750 2861 4703 
Q 3103 4656 3366 4563 
z
" id="DejaVuSans-36" transform="scale(0.015625)"/>
      <path d="M 684 794 
L 1344 794 
L 1344 0 
L 684 0 
L 684 794 
z
" id="DejaVuSans-2e" transform="scale(0.015625)"/>
      <path d="M 4653 2053 
Q 4381 2053 4226 1822 
Q 4072 1591 4072 1178 
Q 4072 772 4226 539 
Q 4381 306 4653 306 
Q 4919 306 5073 539 
Q 5228 772 5228 1178 
Q 5228 1588 5073 1820 
Q 4919 2053 4653 2053 
z
M 4653 2450 
Q 5147 2450 5437 2106 
Q 5728 1763 5728 1178 
Q 5728 594 5436 251 
Q 5144 -91 4653 -91 
Q 4153 -91 3862 251 
Q 3572 594 3572 1178 
Q 3572 1766 3864 2108 
Q 4156 2450 4653 2450 
z
M 1428 4353 
Q 1159 4353 1004 4120 
Q 850 3888 850 3481 
Q 850 3069 1003 2837 
Q 1156 2606 1428 2606 
Q 1700 2606 1854 2837 
Q 2009 3069 2009 3481 
Q 2009 3884 1853 4118 
Q 1697 4353 1428 4353 
z
M 4250 4750 
L 4750 4750 
L 1831 -91 
L 1331 -91 
L 4250 4750 
z
M 1428 4750 
Q 1922 4750 2215 4408 
Q 2509 4066 2509 3481 
Q 2509 2891 2217 2550 
Q 1925 2209 1428 2209 
Q 931 2209 642 2551 
Q 353 2894 353 3481 
Q 353 4063 643 4406 
Q 934 4750 1428 4750 
z
" id="DejaVuSans-25" transform="scale(0.015625)"/>
     </defs>
     <use xlink:href="#DejaVuSans-45"/>
     <use x="63.183594" xlink:href="#DejaVuSans-73"/>
     <use x="115.283203" xlink:href="#DejaVuSans-74"/>
     <use x="154.492188" xlink:href="#DejaVuSans-69"/>
     <use x="182.275391" xlink:href="#DejaVuSans-6d"/>
     <use x="279.6875" xlink:href="#DejaVuSans-61"/>
     <use x="340.966797" xlink:href="#DejaVuSans-74"/>
     <use x="380.175781" xlink:href="#DejaVuSans-65"/>
     <use x="441.699219" xlink:href="#DejaVuSans-64"/>
     <use x="505.175781" xlink:href="#DejaVuSans-20"/>
     <use x="536.962891" xlink:href="#DejaVuSans-76"/>
     <use x="596.142578" xlink:href="#DejaVuSans-61"/>
     <use x="657.421875" xlink:href="#DejaVuSans-63"/>
     <use x="712.402344" xlink:href="#DejaVuSans-63"/>
     <use x="767.382812" xlink:href="#DejaVuSans-69"/>
     <use x="795.166016" xlink:href="#DejaVuSans-6e"/>
     <use x="858.544922" xlink:href="#DejaVuSans-65"/>
     <use x="920.068359" xlink:href="#DejaVuSans-20"/>
     <use x="951.855469" xlink:href="#DejaVuSans-75"/>
     <use x="1015.234375" xlink:href="#DejaVuSans-74"/>
     <use x="1054.443359" xlink:href="#DejaVuSans-69"/>
     <use x="1082.226562" xlink:href="#DejaVuSans-6c"/>
     <use x="1110.009766" xlink:href="#DejaVuSans-69"/>
     <use x="1137.792969" xlink:href="#DejaVuSans-73"/>
     <use x="1189.892578" xlink:href="#DejaVuSans-61"/>
     <use x="1251.171875" xlink:href="#DejaVuSans-74"/>
     <use x="1290.380859" xlink:href="#DejaVuSans-69"/>
     <use x="1318.164062" xlink:href="#DejaVuSans-6f"/>
     <use x="1379.345703" xlink:href="#DejaVuSans-6e"/>
     <use x="1442.724609" xlink:href="#DejaVuSans-3a"/>
     <use x="1476.416016" xlink:href="#DejaVuSans-20"/>
     <use x="1508.203125" xlink:href="#DejaVuSans-66"/>
     <use x="1543.408203" xlink:href="#DejaVuSans-69"/>
     <use x="1571.191406" xlink:href="#DejaVuSans-72"/>
     <use x="1612.304688" xlink:href="#DejaVuSans-73"/>
     <use x="1664.404297" xlink:href="#DejaVuSans-74"/>
     <use x="1703.613281" xlink:href="#DejaVuSans-20"/>
     <use x="1735.400391" xlink:href="#DejaVuSans-64"/>
     <use x="1798.876953" xlink:href="#DejaVuSans-6f"/>
     <use x="1860.058594" xlink:href="#DejaVuSans-73"/>
     <use x="1912.158203" xlink:href="#DejaVuSans-65"/>
     <use x="1973.681641" xlink:href="#DejaVuSans-20"/>
     <use x="2005.46875" xlink:href="#DejaVuSans-75"/>
     <use x="2068.847656" xlink:href="#DejaVuSans-74"/>
     <use x="2108.056641" xlink:href="#DejaVuSans-69"/>
     <use x="2135.839844" xlink:href="#DejaVuSans-6c"/>
     <use x="2163.623047" xlink:href="#DejaVuSans-69"/>
     <use x="2191.40625" xlink:href="#DejaVuSans-73"/>
     <use x="2243.505859" xlink:href="#DejaVuSans-61"/>
     <use x="2304.785156" xlink:href="#DejaVuSans-74"/>
     <use x="2343.994141" xlink:href="#DejaVuSans-69"/>
     <use x="2371.777344" xlink:href="#DejaVuSans-6f"/>
     <use x="2432.958984" xlink:href="#DejaVuSans-6e"/>
     <use x="2496.337891" xlink:href="#DejaVuSans-20"/>
     <use x="2528.125" xlink:href="#DejaVuSans-72"/>
     <use x="2569.238281" xlink:href="#DejaVuSans-61"/>
     <use x="2630.517578" xlink:href="#DejaVuSans-74"/>
     <use x="2669.726562" xlink:href="#DejaVuSans-65"/>
     <use x="2731.25" xlink:href="#DejaVuSans-3a"/>
     <use x="2764.941406" xlink:href="#DejaVuSans-20"/>
     <use x="2796.728516" xlink:href="#DejaVuSans-36"/>
     <use x="2860.351562" xlink:href="#DejaVuSans-30"/>
     <use x="2923.974609" xlink:href="#DejaVuSans-2e"/>
     <use x="2955.761719" xlink:href="#DejaVuSans-36"/>
     <use x="3019.384766" xlink:href="#DejaVuSans-25"/>
    </g>
   </g>
   <g id="legend_1">
    <g id="patch_7">
     <path d="M 77.831 144.092147 
L 248.795139 144.092147 
Q 250.461139 144.092147 250.461139 142.426147 
L 250.461139 57.671 
Q 250.461139 56.005 248.795139 56.005 
L 77.831 56.005 
Q 76.165 56.005 76.165 57.671 
L 76.165 142.426147 
Q 76.165 144.092147 77.831 144.092147 
z
" style="fill:#ffffff;opacity:0.8;stroke:#cccccc;stroke-linejoin:miter;"/>
    </g>
    <g id="patch_8">
     <path d="M 79.497 65.666498 
L 96.157 65.666498 
L 96.157 59.835498 
L 79.497 59.835498 
z
" style="fill:#d62728;"/>
    </g>
    <g id="text_15">
     <!-- Reserved for second doses (831k) -->
     <g transform="translate(102.821 65.666498)scale(0.0833 -0.0833)">
      <defs>
       <path d="M 2841 2188 
Q 3044 2119 3236 1894 
Q 3428 1669 3622 1275 
L 4263 0 
L 3584 0 
L 2988 1197 
Q 2756 1666 2539 1819 
Q 2322 1972 1947 1972 
L 1259 1972 
L 1259 0 
L 628 0 
L 628 4666 
L 2053 4666 
Q 2853 4666 3247 4331 
Q 3641 3997 3641 3322 
Q 3641 2881 3436 2590 
Q 3231 2300 2841 2188 
z
M 1259 4147 
L 1259 2491 
L 2053 2491 
Q 2509 2491 2742 2702 
Q 2975 2913 2975 3322 
Q 2975 3731 2742 3939 
Q 2509 4147 2053 4147 
L 1259 4147 
z
" id="DejaVuSans-52" transform="scale(0.015625)"/>
       <path d="M 2034 2216 
Q 1584 2216 1326 1975 
Q 1069 1734 1069 1313 
Q 1069 891 1326 650 
Q 1584 409 2034 409 
Q 2484 409 2743 651 
Q 3003 894 3003 1313 
Q 3003 1734 2745 1975 
Q 2488 2216 2034 2216 
z
M 1403 2484 
Q 997 2584 770 2862 
Q 544 3141 544 3541 
Q 544 4100 942 4425 
Q 1341 4750 2034 4750 
Q 2731 4750 3128 4425 
Q 3525 4100 3525 3541 
Q 3525 3141 3298 2862 
Q 3072 2584 2669 2484 
Q 3125 2378 3379 2068 
Q 3634 1759 3634 1313 
Q 3634 634 3220 271 
Q 2806 -91 2034 -91 
Q 1263 -91 848 271 
Q 434 634 434 1313 
Q 434 1759 690 2068 
Q 947 2378 1403 2484 
z
M 1172 3481 
Q 1172 3119 1398 2916 
Q 1625 2713 2034 2713 
Q 2441 2713 2670 2916 
Q 2900 3119 2900 3481 
Q 2900 3844 2670 4047 
Q 2441 4250 2034 4250 
Q 1625 4250 1398 4047 
Q 1172 3844 1172 3481 
z
" id="DejaVuSans-38" transform="scale(0.015625)"/>
       <path d="M 581 4863 
L 1159 4863 
L 1159 1991 
L 2875 3500 
L 3609 3500 
L 1753 1863 
L 3688 0 
L 2938 0 
L 1159 1709 
L 1159 0 
L 581 0 
L 581 4863 
z
" id="DejaVuSans-6b" transform="scale(0.015625)"/>
      </defs>
      <use xlink:href="#DejaVuSans-52"/>
      <use x="64.982422" xlink:href="#DejaVuSans-65"/>
      <use x="126.505859" xlink:href="#DejaVuSans-73"/>
      <use x="178.605469" xlink:href="#DejaVuSans-65"/>
      <use x="240.128906" xlink:href="#DejaVuSans-72"/>
      <use x="281.242188" xlink:href="#DejaVuSans-76"/>
      <use x="340.421875" xlink:href="#DejaVuSans-65"/>
      <use x="401.945312" xlink:href="#DejaVuSans-64"/>
      <use x="465.421875" xlink:href="#DejaVuSans-20"/>
      <use x="497.208984" xlink:href="#DejaVuSans-66"/>
      <use x="532.414062" xlink:href="#DejaVuSans-6f"/>
      <use x="593.595703" xlink:href="#DejaVuSans-72"/>
      <use x="634.708984" xlink:href="#DejaVuSans-20"/>
      <use x="666.496094" xlink:href="#DejaVuSans-73"/>
      <use x="718.595703" xlink:href="#DejaVuSans-65"/>
      <use x="780.119141" xlink:href="#DejaVuSans-63"/>
      <use x="835.099609" xlink:href="#DejaVuSans-6f"/>
      <use x="896.28125" xlink:href="#DejaVuSans-6e"/>
      <use x="959.660156" xlink:href="#DejaVuSans-64"/>
      <use x="1023.136719" xlink:href="#DejaVuSans-20"/>
      <use x="1054.923828" xlink:href="#DejaVuSans-64"/>
      <use x="1118.400391" xlink:href="#DejaVuSans-6f"/>
      <use x="1179.582031" xlink:href="#DejaVuSans-73"/>
      <use x="1231.681641" xlink:href="#DejaVuSans-65"/>
      <use x="1293.205078" xlink:href="#DejaVuSans-73"/>
      <use x="1345.304688" xlink:href="#DejaVuSans-20"/>
      <use x="1377.091797" xlink:href="#DejaVuSans-28"/>
      <use x="1416.105469" xlink:href="#DejaVuSans-38"/>
      <use x="1479.728516" xlink:href="#DejaVuSans-33"/>
      <use x="1543.351562" xlink:href="#DejaVuSans-31"/>
      <use x="1606.974609" xlink:href="#DejaVuSans-6b"/>
      <use x="1664.884766" xlink:href="#DejaVuSans-29"/>
     </g>
    </g>
    <g id="patch_9">
     <path d="M 79.497 77.893377 
L 96.157 77.893377 
L 96.157 72.062377 
L 79.497 72.062377 
z
" style="fill:#ff7f0e;"/>
    </g>
    <g id="text_16">
     <!-- Administered second doses (323k) -->
     <g transform="translate(102.821 77.893377)scale(0.0833 -0.0833)">
      <use xlink:href="#DejaVuSans-41"/>
      <use x="66.658203" xlink:href="#DejaVuSans-64"/>
      <use x="130.134766" xlink:href="#DejaVuSans-6d"/>
      <use x="227.546875" xlink:href="#DejaVuSans-69"/>
      <use x="255.330078" xlink:href="#DejaVuSans-6e"/>
      <use x="318.708984" xlink:href="#DejaVuSans-69"/>
      <use x="346.492188" xlink:href="#DejaVuSans-73"/>
      <use x="398.591797" xlink:href="#DejaVuSans-74"/>
      <use x="437.800781" xlink:href="#DejaVuSans-65"/>
      <use x="499.324219" xlink:href="#DejaVuSans-72"/>
      <use x="538.1875" xlink:href="#DejaVuSans-65"/>
      <use x="599.710938" xlink:href="#DejaVuSans-64"/>
      <use x="663.1875" xlink:href="#DejaVuSans-20"/>
      <use x="694.974609" xlink:href="#DejaVuSans-73"/>
      <use x="747.074219" xlink:href="#DejaVuSans-65"/>
      <use x="808.597656" xlink:href="#DejaVuSans-63"/>
      <use x="863.578125" xlink:href="#DejaVuSans-6f"/>
      <use x="924.759766" xlink:href="#DejaVuSans-6e"/>
      <use x="988.138672" xlink:href="#DejaVuSans-64"/>
      <use x="1051.615234" xlink:href="#DejaVuSans-20"/>
      <use x="1083.402344" xlink:href="#DejaVuSans-64"/>
      <use x="1146.878906" xlink:href="#DejaVuSans-6f"/>
      <use x="1208.060547" xlink:href="#DejaVuSans-73"/>
      <use x="1260.160156" xlink:href="#DejaVuSans-65"/>
      <use x="1321.683594" xlink:href="#DejaVuSans-73"/>
      <use x="1373.783203" xlink:href="#DejaVuSans-20"/>
      <use x="1405.570312" xlink:href="#DejaVuSans-28"/>
      <use x="1444.583984" xlink:href="#DejaVuSans-33"/>
      <use x="1508.207031" xlink:href="#DejaVuSans-32"/>
      <use x="1571.830078" xlink:href="#DejaVuSans-33"/>
      <use x="1635.453125" xlink:href="#DejaVuSans-6b"/>
      <use x="1693.363281" xlink:href="#DejaVuSans-29"/>
     </g>
    </g>
    <g id="patch_10">
     <path d="M 79.497 90.120255 
L 96.157 90.120255 
L 96.157 84.289255 
L 79.497 84.289255 
z
" style="fill:#2ca02c;"/>
    </g>
    <g id="text_17">
     <!-- Available for first doses (1048k) -->
     <g transform="translate(102.821 90.120255)scale(0.0833 -0.0833)">
      <defs>
       <path d="M 3116 1747 
Q 3116 2381 2855 2742 
Q 2594 3103 2138 3103 
Q 1681 3103 1420 2742 
Q 1159 2381 1159 1747 
Q 1159 1113 1420 752 
Q 1681 391 2138 391 
Q 2594 391 2855 752 
Q 3116 1113 3116 1747 
z
M 1159 2969 
Q 1341 3281 1617 3432 
Q 1894 3584 2278 3584 
Q 2916 3584 3314 3078 
Q 3713 2572 3713 1747 
Q 3713 922 3314 415 
Q 2916 -91 2278 -91 
Q 1894 -91 1617 61 
Q 1341 213 1159 525 
L 1159 0 
L 581 0 
L 581 4863 
L 1159 4863 
L 1159 2969 
z
" id="DejaVuSans-62" transform="scale(0.015625)"/>
      </defs>
      <use xlink:href="#DejaVuSans-41"/>
      <use x="62.533203" xlink:href="#DejaVuSans-76"/>
      <use x="121.712891" xlink:href="#DejaVuSans-61"/>
      <use x="182.992188" xlink:href="#DejaVuSans-69"/>
      <use x="210.775391" xlink:href="#DejaVuSans-6c"/>
      <use x="238.558594" xlink:href="#DejaVuSans-61"/>
      <use x="299.837891" xlink:href="#DejaVuSans-62"/>
      <use x="363.314453" xlink:href="#DejaVuSans-6c"/>
      <use x="391.097656" xlink:href="#DejaVuSans-65"/>
      <use x="452.621094" xlink:href="#DejaVuSans-20"/>
      <use x="484.408203" xlink:href="#DejaVuSans-66"/>
      <use x="519.613281" xlink:href="#DejaVuSans-6f"/>
      <use x="580.794922" xlink:href="#DejaVuSans-72"/>
      <use x="621.908203" xlink:href="#DejaVuSans-20"/>
      <use x="653.695312" xlink:href="#DejaVuSans-66"/>
      <use x="688.900391" xlink:href="#DejaVuSans-69"/>
      <use x="716.683594" xlink:href="#DejaVuSans-72"/>
      <use x="757.796875" xlink:href="#DejaVuSans-73"/>
      <use x="809.896484" xlink:href="#DejaVuSans-74"/>
      <use x="849.105469" xlink:href="#DejaVuSans-20"/>
      <use x="880.892578" xlink:href="#DejaVuSans-64"/>
      <use x="944.369141" xlink:href="#DejaVuSans-6f"/>
      <use x="1005.550781" xlink:href="#DejaVuSans-73"/>
      <use x="1057.650391" xlink:href="#DejaVuSans-65"/>
      <use x="1119.173828" xlink:href="#DejaVuSans-73"/>
      <use x="1171.273438" xlink:href="#DejaVuSans-20"/>
      <use x="1203.060547" xlink:href="#DejaVuSans-28"/>
      <use x="1242.074219" xlink:href="#DejaVuSans-31"/>
      <use x="1305.697266" xlink:href="#DejaVuSans-30"/>
      <use x="1369.320312" xlink:href="#DejaVuSans-34"/>
      <use x="1432.943359" xlink:href="#DejaVuSans-38"/>
      <use x="1496.566406" xlink:href="#DejaVuSans-6b"/>
      <use x="1554.476562" xlink:href="#DejaVuSans-29"/>
     </g>
    </g>
    <g id="patch_11">
     <path d="M 79.497 102.347133 
L 96.157 102.347133 
L 96.157 96.516133 
L 79.497 96.516133 
z
" style="fill:#1f77b4;"/>
    </g>
    <g id="text_18">
     <!-- Administered first doses (1611k) -->
     <g transform="translate(102.821 102.347133)scale(0.0833 -0.0833)">
      <use xlink:href="#DejaVuSans-41"/>
      <use x="66.658203" xlink:href="#DejaVuSans-64"/>
      <use x="130.134766" xlink:href="#DejaVuSans-6d"/>
      <use x="227.546875" xlink:href="#DejaVuSans-69"/>
      <use x="255.330078" xlink:href="#DejaVuSans-6e"/>
      <use x="318.708984" xlink:href="#DejaVuSans-69"/>
      <use x="346.492188" xlink:href="#DejaVuSans-73"/>
      <use x="398.591797" xlink:href="#DejaVuSans-74"/>
      <use x="437.800781" xlink:href="#DejaVuSans-65"/>
      <use x="499.324219" xlink:href="#DejaVuSans-72"/>
      <use x="538.1875" xlink:href="#DejaVuSans-65"/>
      <use x="599.710938" xlink:href="#DejaVuSans-64"/>
      <use x="663.1875" xlink:href="#DejaVuSans-20"/>
      <use x="694.974609" xlink:href="#DejaVuSans-66"/>
      <use x="730.179688" xlink:href="#DejaVuSans-69"/>
      <use x="757.962891" xlink:href="#DejaVuSans-72"/>
      <use x="799.076172" xlink:href="#DejaVuSans-73"/>
      <use x="851.175781" xlink:href="#DejaVuSans-74"/>
      <use x="890.384766" xlink:href="#DejaVuSans-20"/>
      <use x="922.171875" xlink:href="#DejaVuSans-64"/>
      <use x="985.648438" xlink:href="#DejaVuSans-6f"/>
      <use x="1046.830078" xlink:href="#DejaVuSans-73"/>
      <use x="1098.929688" xlink:href="#DejaVuSans-65"/>
      <use x="1160.453125" xlink:href="#DejaVuSans-73"/>
      <use x="1212.552734" xlink:href="#DejaVuSans-20"/>
      <use x="1244.339844" xlink:href="#DejaVuSans-28"/>
      <use x="1283.353516" xlink:href="#DejaVuSans-31"/>
      <use x="1346.976562" xlink:href="#DejaVuSans-36"/>
      <use x="1410.599609" xlink:href="#DejaVuSans-31"/>
      <use x="1474.222656" xlink:href="#DejaVuSans-31"/>
      <use x="1537.845703" xlink:href="#DejaVuSans-6b"/>
      <use x="1595.755859" xlink:href="#DejaVuSans-29"/>
     </g>
    </g>
    <g id="patch_12">
     <path d="M 79.497 114.574011 
L 96.157 114.574011 
L 96.157 108.743011 
L 79.497 108.743011 
z
" style="fill:#ff0000;opacity:0.35;"/>
    </g>
    <g id="text_19">
     <!-- Phase 1a -->
     <g transform="translate(102.821 114.574011)scale(0.0833 -0.0833)">
      <defs>
       <path d="M 1259 4147 
L 1259 2394 
L 2053 2394 
Q 2494 2394 2734 2622 
Q 2975 2850 2975 3272 
Q 2975 3691 2734 3919 
Q 2494 4147 2053 4147 
L 1259 4147 
z
M 628 4666 
L 2053 4666 
Q 2838 4666 3239 4311 
Q 3641 3956 3641 3272 
Q 3641 2581 3239 2228 
Q 2838 1875 2053 1875 
L 1259 1875 
L 1259 0 
L 628 0 
L 628 4666 
z
" id="DejaVuSans-50" transform="scale(0.015625)"/>
       <path d="M 3513 2113 
L 3513 0 
L 2938 0 
L 2938 2094 
Q 2938 2591 2744 2837 
Q 2550 3084 2163 3084 
Q 1697 3084 1428 2787 
Q 1159 2491 1159 1978 
L 1159 0 
L 581 0 
L 581 4863 
L 1159 4863 
L 1159 2956 
Q 1366 3272 1645 3428 
Q 1925 3584 2291 3584 
Q 2894 3584 3203 3211 
Q 3513 2838 3513 2113 
z
" id="DejaVuSans-68" transform="scale(0.015625)"/>
      </defs>
      <use xlink:href="#DejaVuSans-50"/>
      <use x="60.302734" xlink:href="#DejaVuSans-68"/>
      <use x="123.681641" xlink:href="#DejaVuSans-61"/>
      <use x="184.960938" xlink:href="#DejaVuSans-73"/>
      <use x="237.060547" xlink:href="#DejaVuSans-65"/>
      <use x="298.583984" xlink:href="#DejaVuSans-20"/>
      <use x="330.371094" xlink:href="#DejaVuSans-31"/>
      <use x="393.994141" xlink:href="#DejaVuSans-61"/>
     </g>
    </g>
    <g id="patch_13">
     <path d="M 79.497 126.800889 
L 96.157 126.800889 
L 96.157 120.969889 
L 79.497 120.969889 
z
" style="fill:#ffa500;opacity:0.35;"/>
    </g>
    <g id="text_20">
     <!-- Phase 1b -->
     <g transform="translate(102.821 126.800889)scale(0.0833 -0.0833)">
      <use xlink:href="#DejaVuSans-50"/>
      <use x="60.302734" xlink:href="#DejaVuSans-68"/>
      <use x="123.681641" xlink:href="#DejaVuSans-61"/>
      <use x="184.960938" xlink:href="#DejaVuSans-73"/>
      <use x="237.060547" xlink:href="#DejaVuSans-65"/>
      <use x="298.583984" xlink:href="#DejaVuSans-20"/>
      <use x="330.371094" xlink:href="#DejaVuSans-31"/>
      <use x="393.994141" xlink:href="#DejaVuSans-62"/>
     </g>
    </g>
    <g id="patch_14">
     <path d="M 79.497 139.027767 
L 96.157 139.027767 
L 96.157 133.196767 
L 79.497 133.196767 
z
" style="fill:#ffff00;opacity:0.35;"/>
    </g>
    <g id="text_21">
     <!-- Phase 2a -->
     <g transform="translate(102.821 139.027767)scale(0.0833 -0.0833)">
      <use xlink:href="#DejaVuSans-50"/>
      <use x="60.302734" xlink:href="#DejaVuSans-68"/>
      <use x="123.681641" xlink:href="#DejaVuSans-61"/>
      <use x="184.960938" xlink:href="#DejaVuSans-73"/>
      <use x="237.060547" xlink:href="#DejaVuSans-65"/>
      <use x="298.583984" xlink:href="#DejaVuSans-20"/>
      <use x="330.371094" xlink:href="#DejaVuSans-32"/>
      <use x="393.994141" xlink:href="#DejaVuSans-61"/>
     </g>
    </g>
   </g>
  </g>
 </g>
 <defs>
  <clipPath id="p91f3a5dfde">
   <rect height="332.64" width="446.4" x="72" y="51.84"/>
  </clipPath>
 </defs>
</svg>
