<?xml version="1.0" encoding="utf-8" standalone="no"?>
<!DOCTYPE svg PUBLIC "-//W3C//DTD SVG 1.1//EN"
  "http://www.w3.org/Graphics/SVG/1.1/DTD/svg11.dtd">
<svg height="432pt" version="1.1" viewBox="0 0 576 432" width="576pt" xmlns="http://www.w3.org/2000/svg" xmlns:xlink="http://www.w3.org/1999/xlink">
 <metadata>
  <rdf:RDF xmlns:cc="http://creativecommons.org/ns#" xmlns:dc="http://purl.org/dc/elements/1.1/" xmlns:rdf="http://www.w3.org/1999/02/22-rdf-syntax-ns#">
   <cc:Work>
    <dc:type rdf:resource="http://purl.org/dc/dcmitype/StillImage"/>
    <dc:date>2021-06-07T17:17:47.844589</dc:date>
    <dc:format>image/svg+xml</dc:format>
    <dc:creator>
     <cc:Agent>
      <dc:title>Matplotlib v3.4.1, https://matplotlib.org/</dc:title>
     </cc:Agent>
    </dc:creator>
   </cc:Work>
  </rdf:RDF>
 </metadata>
 <defs>
  <style type="text/css">*{stroke-linecap:butt;stroke-linejoin:round;}</style>
 </defs>
 <g id="figure_1">
  <g id="patch_1">
   <path d="M 0 432 
L 576 432 
L 576 0 
L 0 0 
z
" style="fill:#ffffff;"/>
  </g>
  <g id="axes_1">
   <g id="patch_2">
    <path d="M 72 384.48 
L 518.4 384.48 
L 518.4 51.84 
L 72 51.84 
z
" style="fill:#ffffff;"/>
   </g>
   <g id="PolyCollection_1">
    <defs>
     <path d="M 153.163636 -47.52 
L 69.101299 -47.52 
L 69.101299 -380.16 
L 153.163636 -380.16 
L 153.163636 -380.16 
L 153.163636 -47.52 
z
" id="m47b4da5cea"/>
    </defs>
    <g clip-path="url(#pf830a78d30)">
     <use style="fill:#ff0000;fill-opacity:0.35;" x="0" xlink:href="#m47b4da5cea" y="432"/>
    </g>
   </g>
   <g id="PolyCollection_2">
    <defs>
     <path d="M 274.909091 -47.52 
L 153.163636 -47.52 
L 153.163636 -380.16 
L 274.909091 -380.16 
L 274.909091 -380.16 
L 274.909091 -47.52 
z
" id="m648e7fc7cb"/>
    </defs>
    <g clip-path="url(#pf830a78d30)">
     <use style="fill:#ffa500;fill-opacity:0.35;" x="0" xlink:href="#m648e7fc7cb" y="432"/>
    </g>
   </g>
   <g id="PolyCollection_3">
    <defs>
     <path d="M 431.438961 -47.52 
L 274.909091 -47.52 
L 274.909091 -380.16 
L 431.438961 -380.16 
L 431.438961 -380.16 
L 431.438961 -47.52 
z
" id="mb2478c7a3a"/>
    </defs>
    <g clip-path="url(#pf830a78d30)">
     <use style="fill:#ffff00;fill-opacity:0.35;" x="0" xlink:href="#mb2478c7a3a" y="432"/>
    </g>
   </g>
   <g id="PolyCollection_4">
    <defs>
     <path d="M 434.337662 -47.52 
L 431.438961 -47.52 
L 431.438961 -380.16 
L 434.337662 -380.16 
L 434.337662 -380.16 
L 434.337662 -47.52 
z
" id="m4b079fd668"/>
    </defs>
    <g clip-path="url(#pf830a78d30)">
     <use style="fill:#ffff00;fill-opacity:0.3;" x="0" xlink:href="#m4b079fd668" y="432"/>
    </g>
   </g>
   <g id="PolyCollection_5">
    <defs>
     <path d="M 437.236364 -47.52 
L 434.337662 -47.52 
L 434.337662 -380.16 
L 437.236364 -380.16 
L 437.236364 -380.16 
L 437.236364 -47.52 
z
" id="m1959216c9c"/>
    </defs>
    <g clip-path="url(#pf830a78d30)">
     <use style="fill:#ffff00;fill-opacity:0.27;" x="0" xlink:href="#m1959216c9c" y="432"/>
    </g>
   </g>
   <g id="PolyCollection_6">
    <defs>
     <path d="M 440.135065 -47.52 
L 437.236364 -47.52 
L 437.236364 -380.16 
L 440.135065 -380.16 
L 440.135065 -380.16 
L 440.135065 -47.52 
z
" id="meee988f42b"/>
    </defs>
    <g clip-path="url(#pf830a78d30)">
     <use style="fill:#ffff00;fill-opacity:0.24;" x="0" xlink:href="#meee988f42b" y="432"/>
    </g>
   </g>
   <g id="PolyCollection_7">
    <defs>
     <path d="M 443.033766 -47.52 
L 440.135065 -47.52 
L 440.135065 -380.16 
L 443.033766 -380.16 
L 443.033766 -380.16 
L 443.033766 -47.52 
z
" id="m23d0683339"/>
    </defs>
    <g clip-path="url(#pf830a78d30)">
     <use style="fill:#ffff00;fill-opacity:0.21;" x="0" xlink:href="#m23d0683339" y="432"/>
    </g>
   </g>
   <g id="PolyCollection_8">
    <defs>
     <path d="M 445.932468 -47.52 
L 443.033766 -47.52 
L 443.033766 -380.16 
L 445.932468 -380.16 
L 445.932468 -380.16 
L 445.932468 -47.52 
z
" id="m348cbfa335"/>
    </defs>
    <g clip-path="url(#pf830a78d30)">
     <use style="fill:#ffff00;fill-opacity:0.18;" x="0" xlink:href="#m348cbfa335" y="432"/>
    </g>
   </g>
   <g id="PolyCollection_9">
    <defs>
     <path d="M 448.831169 -47.52 
L 445.932468 -47.52 
L 445.932468 -380.16 
L 448.831169 -380.16 
L 448.831169 -380.16 
L 448.831169 -47.52 
z
" id="mef45fbf497"/>
    </defs>
    <g clip-path="url(#pf830a78d30)">
     <use style="fill:#ffff00;fill-opacity:0.15;" x="0" xlink:href="#mef45fbf497" y="432"/>
    </g>
   </g>
   <g id="PolyCollection_10">
    <defs>
     <path d="M 451.72987 -47.52 
L 448.831169 -47.52 
L 448.831169 -380.16 
L 451.72987 -380.16 
L 451.72987 -380.16 
L 451.72987 -47.52 
z
" id="m73fc7a8285"/>
    </defs>
    <g clip-path="url(#pf830a78d30)">
     <use style="fill:#ffff00;fill-opacity:0.12;" x="0" xlink:href="#m73fc7a8285" y="432"/>
    </g>
   </g>
   <g id="PolyCollection_11">
    <defs>
     <path d="M 454.628571 -47.52 
L 451.72987 -47.52 
L 451.72987 -380.16 
L 454.628571 -380.16 
L 454.628571 -380.16 
L 454.628571 -47.52 
z
" id="m33408f11c6"/>
    </defs>
    <g clip-path="url(#pf830a78d30)">
     <use style="fill:#ffff00;fill-opacity:0.09;" x="0" xlink:href="#m33408f11c6" y="432"/>
    </g>
   </g>
   <g id="PolyCollection_12">
    <defs>
     <path d="M 457.527273 -47.52 
L 454.628571 -47.52 
L 454.628571 -380.16 
L 457.527273 -380.16 
L 457.527273 -380.16 
L 457.527273 -47.52 
z
" id="m82cfcee8f1"/>
    </defs>
    <g clip-path="url(#pf830a78d30)">
     <use style="fill:#ffff00;fill-opacity:0.06;" x="0" xlink:href="#m82cfcee8f1" y="432"/>
    </g>
   </g>
   <g id="PolyCollection_13">
    <defs>
     <path d="M 460.425974 -47.52 
L 457.527273 -47.52 
L 457.527273 -380.16 
L 460.425974 -380.16 
L 460.425974 -380.16 
L 460.425974 -47.52 
z
" id="m4f769a23e6"/>
    </defs>
    <g clip-path="url(#pf830a78d30)">
     <use style="fill:#ffff00;fill-opacity:0.03;" x="0" xlink:href="#m4f769a23e6" y="432"/>
    </g>
   </g>
   <g id="PolyCollection_14">
    <defs>
     <path d="M 72 -47.520665 
L 72 -47.52 
L 72 -47.52 
L 74.898701 -47.52 
L 74.898701 -47.52 
L 77.797403 -47.52 
L 77.797403 -47.52 
L 80.696104 -47.52 
L 80.696104 -47.52 
L 83.594805 -47.52 
L 83.594805 -47.52 
L 86.493506 -47.52 
L 86.493506 -47.52 
L 89.392208 -47.52 
L 89.392208 -47.52 
L 92.290909 -47.52 
L 92.290909 -47.52 
L 95.18961 -47.52 
L 95.18961 -47.52 
L 98.088312 -47.52 
L 98.088312 -47.52 
L 100.987013 -47.52 
L 100.987013 -47.52 
L 103.885714 -47.52 
L 103.885714 -47.52 
L 106.784416 -47.52 
L 106.784416 -47.52 
L 109.683117 -47.52 
L 109.683117 -47.52 
L 112.581818 -47.52 
L 112.581818 -47.52 
L 115.480519 -47.52 
L 115.480519 -47.52 
L 118.379221 -47.52 
L 118.379221 -47.52 
L 121.277922 -47.52 
L 121.277922 -47.52 
L 124.176623 -47.52 
L 124.176623 -47.52 
L 127.075325 -47.52 
L 127.075325 -47.52 
L 129.974026 -47.52 
L 129.974026 -47.52 
L 132.872727 -47.52 
L 132.872727 -47.52 
L 135.771429 -47.52 
L 135.771429 -47.52 
L 138.67013 -47.52 
L 138.67013 -47.52 
L 141.568831 -47.52 
L 141.568831 -47.52 
L 144.467532 -47.52 
L 144.467532 -47.52 
L 147.366234 -47.52 
L 147.366234 -47.52 
L 150.264935 -47.52 
L 150.264935 -47.52 
L 153.163636 -47.52 
L 153.163636 -47.52 
L 156.062338 -47.52 
L 156.062338 -47.52 
L 158.961039 -47.52 
L 158.961039 -47.52 
L 161.85974 -47.52 
L 161.85974 -47.52 
L 164.758442 -47.52 
L 164.758442 -47.52 
L 167.657143 -47.52 
L 167.657143 -47.52 
L 170.555844 -47.52 
L 170.555844 -47.52 
L 173.454545 -47.52 
L 173.454545 -47.52 
L 176.353247 -47.52 
L 176.353247 -47.52 
L 179.251948 -47.52 
L 179.251948 -47.52 
L 182.150649 -47.52 
L 182.150649 -47.52 
L 185.049351 -47.52 
L 185.049351 -47.52 
L 187.948052 -47.52 
L 187.948052 -47.52 
L 190.846753 -47.52 
L 190.846753 -47.52 
L 193.745455 -47.52 
L 193.745455 -47.52 
L 196.644156 -47.52 
L 196.644156 -47.52 
L 199.542857 -47.52 
L 199.542857 -47.52 
L 202.441558 -47.52 
L 202.441558 -47.52 
L 205.34026 -47.52 
L 205.34026 -47.52 
L 208.238961 -47.52 
L 208.238961 -47.52 
L 211.137662 -47.52 
L 211.137662 -47.52 
L 214.036364 -47.52 
L 214.036364 -47.52 
L 216.935065 -47.52 
L 216.935065 -47.52 
L 219.833766 -47.52 
L 219.833766 -47.52 
L 222.732468 -47.52 
L 222.732468 -47.52 
L 225.631169 -47.52 
L 225.631169 -47.52 
L 228.52987 -47.52 
L 228.52987 -47.52 
L 231.428571 -47.52 
L 231.428571 -47.52 
L 234.327273 -47.52 
L 234.327273 -47.52 
L 237.225974 -47.52 
L 237.225974 -47.52 
L 240.124675 -47.52 
L 240.124675 -47.52 
L 243.023377 -47.52 
L 243.023377 -47.52 
L 245.922078 -47.52 
L 245.922078 -47.52 
L 248.820779 -47.52 
L 248.820779 -47.52 
L 251.719481 -47.52 
L 251.719481 -47.52 
L 254.618182 -47.52 
L 254.618182 -47.52 
L 257.516883 -47.52 
L 257.516883 -47.52 
L 260.415584 -47.52 
L 260.415584 -47.52 
L 263.314286 -47.52 
L 263.314286 -47.52 
L 266.212987 -47.52 
L 266.212987 -47.52 
L 269.111688 -47.52 
L 269.111688 -47.52 
L 272.01039 -47.52 
L 272.01039 -47.52 
L 274.909091 -47.52 
L 274.909091 -47.52 
L 277.807792 -47.52 
L 277.807792 -47.52 
L 280.706494 -47.52 
L 280.706494 -47.52 
L 283.605195 -47.52 
L 283.605195 -47.52 
L 286.503896 -47.52 
L 286.503896 -47.52 
L 289.402597 -47.52 
L 289.402597 -47.52 
L 292.301299 -47.52 
L 292.301299 -47.52 
L 295.2 -47.52 
L 295.2 -47.52 
L 298.098701 -47.52 
L 298.098701 -47.52 
L 300.997403 -47.52 
L 300.997403 -47.52 
L 303.896104 -47.52 
L 303.896104 -47.52 
L 306.794805 -47.52 
L 306.794805 -47.52 
L 309.693506 -47.52 
L 309.693506 -47.52 
L 312.592208 -47.52 
L 312.592208 -47.52 
L 315.490909 -47.52 
L 315.490909 -47.52 
L 318.38961 -47.52 
L 318.38961 -47.52 
L 321.288312 -47.52 
L 321.288312 -47.52 
L 324.187013 -47.52 
L 324.187013 -47.52 
L 327.085714 -47.52 
L 327.085714 -47.52 
L 329.984416 -47.52 
L 329.984416 -47.52 
L 332.883117 -47.52 
L 332.883117 -47.52 
L 335.781818 -47.52 
L 335.781818 -47.52 
L 338.680519 -47.52 
L 338.680519 -47.52 
L 341.579221 -47.52 
L 341.579221 -47.52 
L 344.477922 -47.52 
L 344.477922 -47.52 
L 347.376623 -47.52 
L 347.376623 -47.52 
L 350.275325 -47.52 
L 350.275325 -47.52 
L 353.174026 -47.52 
L 353.174026 -47.52 
L 356.072727 -47.52 
L 356.072727 -47.52 
L 358.971429 -47.52 
L 358.971429 -47.52 
L 361.87013 -47.52 
L 361.87013 -47.52 
L 364.768831 -47.52 
L 364.768831 -47.52 
L 367.667532 -47.52 
L 367.667532 -47.52 
L 370.566234 -47.52 
L 370.566234 -47.52 
L 373.464935 -47.52 
L 373.464935 -47.52 
L 376.363636 -47.52 
L 376.363636 -194.040361 
L 376.363636 -194.040361 
L 373.464935 -194.040361 
L 373.464935 -192.136934 
L 370.566234 -192.136934 
L 370.566234 -189.45001 
L 367.667532 -189.45001 
L 367.667532 -185.643646 
L 364.768831 -185.643646 
L 364.768831 -181.58006 
L 361.87013 -181.58006 
L 361.87013 -177.728147 
L 358.971429 -177.728147 
L 358.971429 -173.788514 
L 356.072727 -173.788514 
L 356.072727 -170.418003 
L 353.174026 -170.418003 
L 353.174026 -169.426122 
L 350.275325 -169.426122 
L 350.275325 -167.588465 
L 347.376623 -167.588465 
L 347.376623 -163.963983 
L 344.477922 -163.963983 
L 344.477922 -160.274758 
L 341.579221 -160.274758 
L 341.579221 -157.010181 
L 338.680519 -157.010181 
L 338.680519 -153.983059 
L 335.781818 -153.983059 
L 335.781818 -151.410144 
L 332.883117 -151.410144 
L 332.883117 -151.011843 
L 329.984416 -151.011843 
L 329.984416 -149.87278 
L 327.085714 -149.87278 
L 327.085714 -147.231208 
L 324.187013 -147.231208 
L 324.187013 -144.267359 
L 321.288312 -144.267359 
L 321.288312 -141.709543 
L 318.38961 -141.709543 
L 318.38961 -138.911232 
L 315.490909 -138.911232 
L 315.490909 -136.385349 
L 312.592208 -136.385349 
L 312.592208 -136.047413 
L 309.693506 -136.047413 
L 309.693506 -135.089605 
L 306.794805 -135.089605 
L 306.794805 -132.964728 
L 303.896104 -132.964728 
L 303.896104 -130.490325 
L 300.997403 -130.490325 
L 300.997403 -128.126908 
L 298.098701 -128.126908 
L 298.098701 -125.940372 
L 295.2 -125.940372 
L 295.2 -123.90396 
L 292.301299 -123.90396 
L 292.301299 -124.184899 
L 289.402597 -124.184899 
L 289.402597 -123.354788 
L 286.503896 -123.354788 
L 286.503896 -121.02425 
L 283.605195 -121.02425 
L 283.605195 -118.451488 
L 280.706494 -118.451488 
L 280.706494 -116.010828 
L 277.807792 -116.010828 
L 277.807792 -113.494907 
L 274.909091 -113.494907 
L 274.909091 -111.748107 
L 272.01039 -111.748107 
L 272.01039 -111.542661 
L 269.111688 -111.542661 
L 269.111688 -111.075864 
L 266.212987 -111.075864 
L 266.212987 -109.598629 
L 263.314286 -109.598629 
L 263.314286 -107.855643 
L 260.415584 -107.855643 
L 260.415584 -105.543338 
L 257.516883 -105.543338 
L 257.516883 -103.892895 
L 254.618182 -103.892895 
L 254.618182 -102.843422 
L 251.719481 -102.843422 
L 251.719481 -102.728557 
L 248.820779 -102.728557 
L 248.820779 -102.147495 
L 245.922078 -102.147495 
L 245.922078 -100.162495 
L 243.023377 -100.162495 
L 243.023377 -98.304714 
L 240.124675 -98.304714 
L 240.124675 -96.487924 
L 237.225974 -96.487924 
L 237.225974 -94.766153 
L 234.327273 -94.766153 
L 234.327273 -92.879406 
L 231.428571 -92.879406 
L 231.428571 -90.076893 
L 228.52987 -90.076893 
L 228.52987 -89.339658 
L 225.631169 -89.339658 
L 225.631169 -87.946763 
L 222.732468 -87.946763 
L 222.732468 -86.319888 
L 219.833766 -86.319888 
L 219.833766 -84.611054 
L 216.935065 -84.611054 
L 216.935065 -82.961139 
L 214.036364 -82.961139 
L 214.036364 -81.253102 
L 211.137662 -81.253102 
L 211.137662 -81.090892 
L 208.238961 -81.090892 
L 208.238961 -80.195912 
L 205.34026 -80.195912 
L 205.34026 -78.320406 
L 202.441558 -78.320406 
L 202.441558 -75.761232 
L 199.542857 -75.761232 
L 199.542857 -73.483316 
L 196.644156 -73.483316 
L 196.644156 -71.659482 
L 193.745455 -71.659482 
L 193.745455 -71.607446 
L 190.846753 -71.607446 
L 190.846753 -71.615215 
L 187.948052 -71.615215 
L 187.948052 -71.174035 
L 185.049351 -71.174035 
L 185.049351 -71.385539 
L 182.150649 -71.385539 
L 182.150649 -68.903352 
L 179.251948 -68.903352 
L 179.251948 -66.731099 
L 176.353247 -66.731099 
L 176.353247 -64.48195 
L 173.454545 -64.48195 
L 173.454545 -62.758158 
L 170.555844 -62.758158 
L 170.555844 -61.829341 
L 167.657143 -61.829341 
L 167.657143 -61.80772 
L 164.758442 -61.80772 
L 164.758442 -60.436012 
L 161.85974 -60.436012 
L 161.85974 -59.07598 
L 158.961039 -59.07598 
L 158.961039 -57.646027 
L 156.062338 -57.646027 
L 156.062338 -56.355517 
L 153.163636 -56.355517 
L 153.163636 -55.785505 
L 150.264935 -55.785505 
L 150.264935 -55.008558 
L 147.366234 -55.008558 
L 147.366234 -54.965514 
L 144.467532 -54.965514 
L 144.467532 -54.696841 
L 141.568831 -54.696841 
L 141.568831 -54.45744 
L 138.67013 -54.45744 
L 138.67013 -54.061332 
L 135.771429 -54.061332 
L 135.771429 -53.492817 
L 132.872727 -53.492817 
L 132.872727 -53.00061 
L 129.974026 -53.00061 
L 129.974026 -52.927096 
L 127.075325 -52.927096 
L 127.075325 -52.818756 
L 124.176623 -52.818756 
L 124.176623 -52.014066 
L 121.277922 -52.014066 
L 121.277922 -51.678 
L 118.379221 -51.678 
L 118.379221 -51.052637 
L 115.480519 -51.052637 
L 115.480519 -50.67702 
L 112.581818 -50.67702 
L 112.581818 -50.392978 
L 109.683117 -50.392978 
L 109.683117 -50.22586 
L 106.784416 -50.22586 
L 106.784416 -50.079332 
L 103.885714 -50.079332 
L 103.885714 -49.910584 
L 100.987013 -49.910584 
L 100.987013 -49.54937 
L 98.088312 -49.54937 
L 98.088312 -49.211142 
L 95.18961 -49.211142 
L 95.18961 -48.913994 
L 92.290909 -48.913994 
L 92.290909 -48.641063 
L 89.392208 -48.641063 
L 89.392208 -48.580922 
L 86.493506 -48.580922 
L 86.493506 -48.51792 
L 83.594805 -48.51792 
L 83.594805 -48.3516 
L 80.696104 -48.3516 
L 80.696104 -48.10212 
L 77.797403 -48.10212 
L 77.797403 -47.749788 
L 74.898701 -47.749788 
L 74.898701 -47.615767 
L 72 -47.615767 
L 72 -47.520665 
z
" id="m71acc458e5"/>
    </defs>
    <g clip-path="url(#pf830a78d30)">
     <use style="fill:#1f77b4;" x="0" xlink:href="#m71acc458e5" y="432"/>
    </g>
   </g>
   <g id="PolyCollection_15">
    <defs>
     <path d="M 72 -49.586526 
L 72 -47.520665 
L 72 -47.615767 
L 74.898701 -47.615767 
L 74.898701 -47.749788 
L 77.797403 -47.749788 
L 77.797403 -48.10212 
L 80.696104 -48.10212 
L 80.696104 -48.3516 
L 83.594805 -48.3516 
L 83.594805 -48.51792 
L 86.493506 -48.51792 
L 86.493506 -48.580922 
L 89.392208 -48.580922 
L 89.392208 -48.641063 
L 92.290909 -48.641063 
L 92.290909 -48.913994 
L 95.18961 -48.913994 
L 95.18961 -49.211142 
L 98.088312 -49.211142 
L 98.088312 -49.54937 
L 100.987013 -49.54937 
L 100.987013 -49.910584 
L 103.885714 -49.910584 
L 103.885714 -50.079332 
L 106.784416 -50.079332 
L 106.784416 -50.22586 
L 109.683117 -50.22586 
L 109.683117 -50.392978 
L 112.581818 -50.392978 
L 112.581818 -50.67702 
L 115.480519 -50.67702 
L 115.480519 -51.052637 
L 118.379221 -51.052637 
L 118.379221 -51.678 
L 121.277922 -51.678 
L 121.277922 -52.014066 
L 124.176623 -52.014066 
L 124.176623 -52.818756 
L 127.075325 -52.818756 
L 127.075325 -52.927096 
L 129.974026 -52.927096 
L 129.974026 -53.00061 
L 132.872727 -53.00061 
L 132.872727 -53.492817 
L 135.771429 -53.492817 
L 135.771429 -54.061332 
L 138.67013 -54.061332 
L 138.67013 -54.45744 
L 141.568831 -54.45744 
L 141.568831 -54.696841 
L 144.467532 -54.696841 
L 144.467532 -54.965514 
L 147.366234 -54.965514 
L 147.366234 -55.008558 
L 150.264935 -55.008558 
L 150.264935 -55.785505 
L 153.163636 -55.785505 
L 153.163636 -56.355517 
L 156.062338 -56.355517 
L 156.062338 -57.646027 
L 158.961039 -57.646027 
L 158.961039 -59.07598 
L 161.85974 -59.07598 
L 161.85974 -60.436012 
L 164.758442 -60.436012 
L 164.758442 -61.80772 
L 167.657143 -61.80772 
L 167.657143 -61.829341 
L 170.555844 -61.829341 
L 170.555844 -62.758158 
L 173.454545 -62.758158 
L 173.454545 -64.48195 
L 176.353247 -64.48195 
L 176.353247 -66.731099 
L 179.251948 -66.731099 
L 179.251948 -68.903352 
L 182.150649 -68.903352 
L 182.150649 -71.385539 
L 185.049351 -71.385539 
L 185.049351 -71.174035 
L 187.948052 -71.174035 
L 187.948052 -71.615215 
L 190.846753 -71.615215 
L 190.846753 -71.607446 
L 193.745455 -71.607446 
L 193.745455 -71.659482 
L 196.644156 -71.659482 
L 196.644156 -73.483316 
L 199.542857 -73.483316 
L 199.542857 -75.761232 
L 202.441558 -75.761232 
L 202.441558 -78.320406 
L 205.34026 -78.320406 
L 205.34026 -80.195912 
L 208.238961 -80.195912 
L 208.238961 -81.090892 
L 211.137662 -81.090892 
L 211.137662 -81.253102 
L 214.036364 -81.253102 
L 214.036364 -82.961139 
L 216.935065 -82.961139 
L 216.935065 -84.611054 
L 219.833766 -84.611054 
L 219.833766 -86.319888 
L 222.732468 -86.319888 
L 222.732468 -87.946763 
L 225.631169 -87.946763 
L 225.631169 -89.339658 
L 228.52987 -89.339658 
L 228.52987 -90.076893 
L 231.428571 -90.076893 
L 231.428571 -92.879406 
L 234.327273 -92.879406 
L 234.327273 -94.766153 
L 237.225974 -94.766153 
L 237.225974 -96.487924 
L 240.124675 -96.487924 
L 240.124675 -98.304714 
L 243.023377 -98.304714 
L 243.023377 -100.162495 
L 245.922078 -100.162495 
L 245.922078 -102.147495 
L 248.820779 -102.147495 
L 248.820779 -102.728557 
L 251.719481 -102.728557 
L 251.719481 -102.843422 
L 254.618182 -102.843422 
L 254.618182 -103.892895 
L 257.516883 -103.892895 
L 257.516883 -105.543338 
L 260.415584 -105.543338 
L 260.415584 -107.855643 
L 263.314286 -107.855643 
L 263.314286 -109.598629 
L 266.212987 -109.598629 
L 266.212987 -111.075864 
L 269.111688 -111.075864 
L 269.111688 -111.542661 
L 272.01039 -111.542661 
L 272.01039 -111.748107 
L 274.909091 -111.748107 
L 274.909091 -113.494907 
L 277.807792 -113.494907 
L 277.807792 -116.010828 
L 280.706494 -116.010828 
L 280.706494 -118.451488 
L 283.605195 -118.451488 
L 283.605195 -121.02425 
L 286.503896 -121.02425 
L 286.503896 -123.354788 
L 289.402597 -123.354788 
L 289.402597 -124.184899 
L 292.301299 -124.184899 
L 292.301299 -123.90396 
L 295.2 -123.90396 
L 295.2 -125.940372 
L 298.098701 -125.940372 
L 298.098701 -128.126908 
L 300.997403 -128.126908 
L 300.997403 -130.490325 
L 303.896104 -130.490325 
L 303.896104 -132.964728 
L 306.794805 -132.964728 
L 306.794805 -135.089605 
L 309.693506 -135.089605 
L 309.693506 -136.047413 
L 312.592208 -136.047413 
L 312.592208 -136.385349 
L 315.490909 -136.385349 
L 315.490909 -138.911232 
L 318.38961 -138.911232 
L 318.38961 -141.709543 
L 321.288312 -141.709543 
L 321.288312 -144.267359 
L 324.187013 -144.267359 
L 324.187013 -147.231208 
L 327.085714 -147.231208 
L 327.085714 -149.87278 
L 329.984416 -149.87278 
L 329.984416 -151.011843 
L 332.883117 -151.011843 
L 332.883117 -151.410144 
L 335.781818 -151.410144 
L 335.781818 -153.983059 
L 338.680519 -153.983059 
L 338.680519 -157.010181 
L 341.579221 -157.010181 
L 341.579221 -160.274758 
L 344.477922 -160.274758 
L 344.477922 -163.963983 
L 347.376623 -163.963983 
L 347.376623 -167.588465 
L 350.275325 -167.588465 
L 350.275325 -169.426122 
L 353.174026 -169.426122 
L 353.174026 -170.418003 
L 356.072727 -170.418003 
L 356.072727 -173.788514 
L 358.971429 -173.788514 
L 358.971429 -177.728147 
L 361.87013 -177.728147 
L 361.87013 -181.58006 
L 364.768831 -181.58006 
L 364.768831 -185.643646 
L 367.667532 -185.643646 
L 367.667532 -189.45001 
L 370.566234 -189.45001 
L 370.566234 -192.136934 
L 373.464935 -192.136934 
L 373.464935 -194.040361 
L 376.363636 -194.040361 
L 376.363636 -264.238043 
L 376.363636 -264.238043 
L 373.464935 -264.238043 
L 373.464935 -244.758483 
L 370.566234 -244.758483 
L 370.566234 -244.758483 
L 367.667532 -244.758483 
L 367.667532 -244.758483 
L 364.768831 -244.758483 
L 364.768831 -244.758483 
L 361.87013 -244.758483 
L 361.87013 -244.758483 
L 358.971429 -244.758483 
L 358.971429 -244.758483 
L 356.072727 -244.758483 
L 356.072727 -244.758483 
L 353.174026 -244.758483 
L 353.174026 -219.556005 
L 350.275325 -219.556005 
L 350.275325 -219.556005 
L 347.376623 -219.556005 
L 347.376623 -219.556005 
L 344.477922 -219.556005 
L 344.477922 -219.556005 
L 341.579221 -219.556005 
L 341.579221 -219.556005 
L 338.680519 -219.556005 
L 338.680519 -219.556005 
L 335.781818 -219.556005 
L 335.781818 -219.556005 
L 332.883117 -219.556005 
L 332.883117 -193.269486 
L 329.984416 -193.269486 
L 329.984416 -193.269486 
L 327.085714 -193.269486 
L 327.085714 -193.269486 
L 324.187013 -193.269486 
L 324.187013 -193.269486 
L 321.288312 -193.269486 
L 321.288312 -193.269486 
L 318.38961 -193.269486 
L 318.38961 -193.269486 
L 315.490909 -193.269486 
L 315.490909 -193.269486 
L 312.592208 -193.269486 
L 312.592208 -164.304041 
L 309.693506 -164.304041 
L 309.693506 -164.304041 
L 306.794805 -164.304041 
L 306.794805 -164.304041 
L 303.896104 -164.304041 
L 303.896104 -164.304041 
L 300.997403 -164.304041 
L 300.997403 -164.304041 
L 298.098701 -164.304041 
L 298.098701 -164.304041 
L 295.2 -164.304041 
L 295.2 -164.304041 
L 292.301299 -164.304041 
L 292.301299 -143.857559 
L 289.402597 -143.857559 
L 289.402597 -143.857559 
L 286.503896 -143.857559 
L 286.503896 -143.857559 
L 283.605195 -143.857559 
L 283.605195 -143.857559 
L 280.706494 -143.857559 
L 280.706494 -143.857559 
L 277.807792 -143.857559 
L 277.807792 -143.857559 
L 274.909091 -143.857559 
L 274.909091 -143.857559 
L 272.01039 -143.857559 
L 272.01039 -125.969644 
L 269.111688 -125.969644 
L 269.111688 -125.969644 
L 266.212987 -125.969644 
L 266.212987 -125.969644 
L 263.314286 -125.969644 
L 263.314286 -125.969644 
L 260.415584 -125.969644 
L 260.415584 -125.969644 
L 257.516883 -125.969644 
L 257.516883 -125.969644 
L 254.618182 -125.969644 
L 254.618182 -125.969644 
L 251.719481 -125.969644 
L 251.719481 -116.463011 
L 248.820779 -116.463011 
L 248.820779 -116.463011 
L 245.922078 -116.463011 
L 245.922078 -116.463011 
L 243.023377 -116.463011 
L 243.023377 -116.463011 
L 240.124675 -116.463011 
L 240.124675 -116.463011 
L 237.225974 -116.463011 
L 237.225974 -116.463011 
L 234.327273 -116.463011 
L 234.327273 -116.463011 
L 231.428571 -116.463011 
L 231.428571 -103.875331 
L 228.52987 -103.875331 
L 228.52987 -103.875331 
L 225.631169 -103.875331 
L 225.631169 -103.875331 
L 222.732468 -103.875331 
L 222.732468 -103.875331 
L 219.833766 -103.875331 
L 219.833766 -103.875331 
L 216.935065 -103.875331 
L 216.935065 -103.875331 
L 214.036364 -103.875331 
L 214.036364 -103.875331 
L 211.137662 -103.875331 
L 211.137662 -80.948241 
L 208.238961 -80.948241 
L 208.238961 -80.948241 
L 205.34026 -80.948241 
L 205.34026 -80.948241 
L 202.441558 -80.948241 
L 202.441558 -80.948241 
L 199.542857 -80.948241 
L 199.542857 -80.948241 
L 196.644156 -80.948241 
L 196.644156 -80.948241 
L 193.745455 -80.948241 
L 193.745455 -80.948241 
L 190.846753 -80.948241 
L 190.846753 -80.948241 
L 187.948052 -80.948241 
L 187.948052 -80.948241 
L 185.049351 -80.948241 
L 185.049351 -80.948241 
L 182.150649 -80.948241 
L 182.150649 -80.948241 
L 179.251948 -80.948241 
L 179.251948 -80.948241 
L 176.353247 -80.948241 
L 176.353247 -80.948241 
L 173.454545 -80.948241 
L 173.454545 -80.948241 
L 170.555844 -80.948241 
L 170.555844 -66.526218 
L 167.657143 -66.526218 
L 167.657143 -66.526218 
L 164.758442 -66.526218 
L 164.758442 -66.526218 
L 161.85974 -66.526218 
L 161.85974 -66.526218 
L 158.961039 -66.526218 
L 158.961039 -66.526218 
L 156.062338 -66.526218 
L 156.062338 -66.526218 
L 153.163636 -66.526218 
L 153.163636 -66.526218 
L 150.264935 -66.526218 
L 150.264935 -60.501276 
L 147.366234 -60.501276 
L 147.366234 -60.501276 
L 144.467532 -60.501276 
L 144.467532 -60.501276 
L 141.568831 -60.501276 
L 141.568831 -60.501276 
L 138.67013 -60.501276 
L 138.67013 -60.501276 
L 135.771429 -60.501276 
L 135.771429 -60.501276 
L 132.872727 -60.501276 
L 132.872727 -60.501276 
L 129.974026 -60.501276 
L 129.974026 -58.332879 
L 127.075325 -58.332879 
L 127.075325 -58.332879 
L 124.176623 -58.332879 
L 124.176623 -58.332879 
L 121.277922 -58.332879 
L 121.277922 -58.332879 
L 118.379221 -58.332879 
L 118.379221 -58.332879 
L 115.480519 -58.332879 
L 115.480519 -58.332879 
L 112.581818 -58.332879 
L 112.581818 -58.332879 
L 109.683117 -58.332879 
L 109.683117 -52.002324 
L 106.784416 -52.002324 
L 106.784416 -52.002324 
L 103.885714 -52.002324 
L 103.885714 -52.002324 
L 100.987013 -52.002324 
L 100.987013 -52.002324 
L 98.088312 -52.002324 
L 98.088312 -52.002324 
L 95.18961 -52.002324 
L 95.18961 -52.002324 
L 92.290909 -52.002324 
L 92.290909 -52.002324 
L 89.392208 -52.002324 
L 89.392208 -49.586526 
L 86.493506 -49.586526 
L 86.493506 -49.586526 
L 83.594805 -49.586526 
L 83.594805 -49.586526 
L 80.696104 -49.586526 
L 80.696104 -49.586526 
L 77.797403 -49.586526 
L 77.797403 -49.586526 
L 74.898701 -49.586526 
L 74.898701 -49.586526 
L 72 -49.586526 
L 72 -49.586526 
z
" id="ma3702e74e0"/>
    </defs>
    <g clip-path="url(#pf830a78d30)">
     <use style="fill:#2ca02c;" x="0" xlink:href="#ma3702e74e0" y="432"/>
    </g>
   </g>
   <g id="PolyCollection_16">
    <defs>
     <path d="M 72 -49.586526 
L 72 -49.586526 
L 72 -49.586526 
L 74.898701 -49.586526 
L 74.898701 -49.586526 
L 77.797403 -49.586526 
L 77.797403 -49.586526 
L 80.696104 -49.586526 
L 80.696104 -49.586526 
L 83.594805 -49.586526 
L 83.594805 -49.586526 
L 86.493506 -49.586526 
L 86.493506 -49.586526 
L 89.392208 -49.586526 
L 89.392208 -52.002324 
L 92.290909 -52.002324 
L 92.290909 -52.002324 
L 95.18961 -52.002324 
L 95.18961 -52.002324 
L 98.088312 -52.002324 
L 98.088312 -52.002324 
L 100.987013 -52.002324 
L 100.987013 -52.002324 
L 103.885714 -52.002324 
L 103.885714 -52.002324 
L 106.784416 -52.002324 
L 106.784416 -52.002324 
L 109.683117 -52.002324 
L 109.683117 -58.332879 
L 112.581818 -58.332879 
L 112.581818 -58.332879 
L 115.480519 -58.332879 
L 115.480519 -58.332879 
L 118.379221 -58.332879 
L 118.379221 -58.332879 
L 121.277922 -58.332879 
L 121.277922 -58.332879 
L 124.176623 -58.332879 
L 124.176623 -58.332879 
L 127.075325 -58.332879 
L 127.075325 -58.332879 
L 129.974026 -58.332879 
L 129.974026 -60.501276 
L 132.872727 -60.501276 
L 132.872727 -60.501276 
L 135.771429 -60.501276 
L 135.771429 -60.501276 
L 138.67013 -60.501276 
L 138.67013 -60.501276 
L 141.568831 -60.501276 
L 141.568831 -60.501276 
L 144.467532 -60.501276 
L 144.467532 -60.501276 
L 147.366234 -60.501276 
L 147.366234 -60.501276 
L 150.264935 -60.501276 
L 150.264935 -66.526218 
L 153.163636 -66.526218 
L 153.163636 -66.526218 
L 156.062338 -66.526218 
L 156.062338 -66.526218 
L 158.961039 -66.526218 
L 158.961039 -66.526218 
L 161.85974 -66.526218 
L 161.85974 -66.526218 
L 164.758442 -66.526218 
L 164.758442 -66.526218 
L 167.657143 -66.526218 
L 167.657143 -66.526218 
L 170.555844 -66.526218 
L 170.555844 -80.948241 
L 173.454545 -80.948241 
L 173.454545 -80.948241 
L 176.353247 -80.948241 
L 176.353247 -80.948241 
L 179.251948 -80.948241 
L 179.251948 -80.948241 
L 182.150649 -80.948241 
L 182.150649 -80.948241 
L 185.049351 -80.948241 
L 185.049351 -80.948241 
L 187.948052 -80.948241 
L 187.948052 -80.948241 
L 190.846753 -80.948241 
L 190.846753 -80.948241 
L 193.745455 -80.948241 
L 193.745455 -80.948241 
L 196.644156 -80.948241 
L 196.644156 -80.948241 
L 199.542857 -80.948241 
L 199.542857 -80.948241 
L 202.441558 -80.948241 
L 202.441558 -80.948241 
L 205.34026 -80.948241 
L 205.34026 -80.948241 
L 208.238961 -80.948241 
L 208.238961 -80.948241 
L 211.137662 -80.948241 
L 211.137662 -103.875331 
L 214.036364 -103.875331 
L 214.036364 -103.875331 
L 216.935065 -103.875331 
L 216.935065 -103.875331 
L 219.833766 -103.875331 
L 219.833766 -103.875331 
L 222.732468 -103.875331 
L 222.732468 -103.875331 
L 225.631169 -103.875331 
L 225.631169 -103.875331 
L 228.52987 -103.875331 
L 228.52987 -103.875331 
L 231.428571 -103.875331 
L 231.428571 -116.463011 
L 234.327273 -116.463011 
L 234.327273 -116.463011 
L 237.225974 -116.463011 
L 237.225974 -116.463011 
L 240.124675 -116.463011 
L 240.124675 -116.463011 
L 243.023377 -116.463011 
L 243.023377 -116.463011 
L 245.922078 -116.463011 
L 245.922078 -116.463011 
L 248.820779 -116.463011 
L 248.820779 -116.463011 
L 251.719481 -116.463011 
L 251.719481 -125.969644 
L 254.618182 -125.969644 
L 254.618182 -125.969644 
L 257.516883 -125.969644 
L 257.516883 -125.969644 
L 260.415584 -125.969644 
L 260.415584 -125.969644 
L 263.314286 -125.969644 
L 263.314286 -125.969644 
L 266.212987 -125.969644 
L 266.212987 -125.969644 
L 269.111688 -125.969644 
L 269.111688 -125.969644 
L 272.01039 -125.969644 
L 272.01039 -143.857559 
L 274.909091 -143.857559 
L 274.909091 -143.857559 
L 277.807792 -143.857559 
L 277.807792 -143.857559 
L 280.706494 -143.857559 
L 280.706494 -143.857559 
L 283.605195 -143.857559 
L 283.605195 -143.857559 
L 286.503896 -143.857559 
L 286.503896 -143.857559 
L 289.402597 -143.857559 
L 289.402597 -143.857559 
L 292.301299 -143.857559 
L 292.301299 -164.304041 
L 295.2 -164.304041 
L 295.2 -164.304041 
L 298.098701 -164.304041 
L 298.098701 -164.304041 
L 300.997403 -164.304041 
L 300.997403 -164.304041 
L 303.896104 -164.304041 
L 303.896104 -164.304041 
L 306.794805 -164.304041 
L 306.794805 -164.304041 
L 309.693506 -164.304041 
L 309.693506 -164.304041 
L 312.592208 -164.304041 
L 312.592208 -193.269486 
L 315.490909 -193.269486 
L 315.490909 -193.269486 
L 318.38961 -193.269486 
L 318.38961 -193.269486 
L 321.288312 -193.269486 
L 321.288312 -193.269486 
L 324.187013 -193.269486 
L 324.187013 -193.269486 
L 327.085714 -193.269486 
L 327.085714 -193.269486 
L 329.984416 -193.269486 
L 329.984416 -193.269486 
L 332.883117 -193.269486 
L 332.883117 -219.556005 
L 335.781818 -219.556005 
L 335.781818 -219.556005 
L 338.680519 -219.556005 
L 338.680519 -219.556005 
L 341.579221 -219.556005 
L 341.579221 -219.556005 
L 344.477922 -219.556005 
L 344.477922 -219.556005 
L 347.376623 -219.556005 
L 347.376623 -219.556005 
L 350.275325 -219.556005 
L 350.275325 -219.556005 
L 353.174026 -219.556005 
L 353.174026 -244.758483 
L 356.072727 -244.758483 
L 356.072727 -244.758483 
L 358.971429 -244.758483 
L 358.971429 -244.758483 
L 361.87013 -244.758483 
L 361.87013 -244.758483 
L 364.768831 -244.758483 
L 364.768831 -244.758483 
L 367.667532 -244.758483 
L 367.667532 -244.758483 
L 370.566234 -244.758483 
L 370.566234 -244.758483 
L 373.464935 -244.758483 
L 373.464935 -264.238043 
L 376.363636 -264.238043 
L 376.363636 -286.887509 
L 376.363636 -286.887509 
L 373.464935 -286.887509 
L 373.464935 -267.313507 
L 370.566234 -267.313507 
L 370.566234 -267.048417 
L 367.667532 -267.048417 
L 367.667532 -266.156407 
L 364.768831 -266.156407 
L 364.768831 -265.44132 
L 361.87013 -265.44132 
L 361.87013 -264.594394 
L 358.971429 -264.594394 
L 358.971429 -263.920144 
L 356.072727 -263.920144 
L 356.072727 -263.327616 
L 353.174026 -263.327616 
L 353.174026 -238.095779 
L 350.275325 -238.095779 
L 350.275325 -237.945912 
L 347.376623 -237.945912 
L 347.376623 -237.525159 
L 344.477922 -237.525159 
L 344.477922 -237.060676 
L 341.579221 -237.060676 
L 341.579221 -236.620042 
L 338.680519 -236.620042 
L 338.680519 -236.165821 
L 335.781818 -236.165821 
L 335.781818 -235.850455 
L 332.883117 -235.850455 
L 332.883117 -209.526846 
L 329.984416 -209.526846 
L 329.984416 -209.41954 
L 327.085714 -209.41954 
L 327.085714 -209.079959 
L 324.187013 -209.079959 
L 324.187013 -208.679287 
L 321.288312 -208.679287 
L 321.288312 -208.147742 
L 318.38961 -208.147742 
L 318.38961 -207.768344 
L 315.490909 -207.768344 
L 315.490909 -207.527095 
L 312.592208 -207.527095 
L 312.592208 -178.535244 
L 309.693506 -178.535244 
L 309.693506 -178.415731 
L 306.794805 -178.415731 
L 306.794805 -178.007455 
L 303.896104 -178.007455 
L 303.896104 -177.625345 
L 300.997403 -177.625345 
L 300.997403 -177.251667 
L 298.098701 -177.251667 
L 298.098701 -176.897531 
L 295.2 -176.897531 
L 295.2 -176.509464 
L 292.301299 -176.509464 
L 292.301299 -155.48656 
L 289.402597 -155.48656 
L 289.402597 -155.431415 
L 286.503896 -155.431415 
L 286.503896 -155.327228 
L 283.605195 -155.327228 
L 283.605195 -155.20554 
L 280.706494 -155.20554 
L 280.706494 -155.077721 
L 277.807792 -155.077721 
L 277.807792 -154.954309 
L 274.909091 -154.954309 
L 274.909091 -154.826549 
L 272.01039 -154.826549 
L 272.01039 -136.926501 
L 269.111688 -136.926501 
L 269.111688 -136.753631 
L 266.212987 -136.753631 
L 266.212987 -136.391367 
L 263.314286 -136.391367 
L 263.314286 -135.897049 
L 260.415584 -135.897049 
L 260.415584 -135.457057 
L 257.516883 -135.457057 
L 257.516883 -135.104774 
L 254.618182 -135.104774 
L 254.618182 -135.094723 
L 251.719481 -135.094723 
L 251.719481 -125.589591 
L 248.820779 -125.589591 
L 248.820779 -125.504375 
L 245.922078 -125.504375 
L 245.922078 -125.545228 
L 243.023377 -125.545228 
L 243.023377 -125.06578 
L 240.124675 -125.06578 
L 240.124675 -124.646198 
L 237.225974 -124.646198 
L 237.225974 -124.211763 
L 234.327273 -124.211763 
L 234.327273 -123.878804 
L 231.428571 -123.878804 
L 231.428571 -111.111718 
L 228.52987 -111.111718 
L 228.52987 -111.10537 
L 225.631169 -111.10537 
L 225.631169 -110.702641 
L 222.732468 -110.702641 
L 222.732468 -110.30334 
L 219.833766 -110.30334 
L 219.833766 -109.88351 
L 216.935065 -109.88351 
L 216.935065 -109.50462 
L 214.036364 -109.50462 
L 214.036364 -109.337267 
L 211.137662 -109.337267 
L 211.137662 -86.182067 
L 208.238961 -86.182067 
L 208.238961 -86.155568 
L 205.34026 -86.155568 
L 205.34026 -85.990161 
L 202.441558 -85.990161 
L 202.441558 -85.842776 
L 199.542857 -85.842776 
L 199.542857 -85.598915 
L 196.644156 -85.598915 
L 196.644156 -85.248913 
L 193.745455 -85.248913 
L 193.745455 -84.94589 
L 190.846753 -84.94589 
L 190.846753 -84.900632 
L 187.948052 -84.900632 
L 187.948052 -84.850636 
L 185.049351 -84.850636 
L 185.049351 -84.479299 
L 182.150649 -84.479299 
L 182.150649 -84.324215 
L 179.251948 -84.324215 
L 179.251948 -84.035631 
L 176.353247 -84.035631 
L 176.353247 -83.862296 
L 173.454545 -83.862296 
L 173.454545 -83.731221 
L 170.555844 -83.731221 
L 170.555844 -69.232078 
L 167.657143 -69.232078 
L 167.657143 -69.08555 
L 164.758442 -69.08555 
L 164.758442 -68.916802 
L 161.85974 -68.916802 
L 161.85974 -68.555588 
L 158.961039 -68.555588 
L 158.961039 -68.21736 
L 156.062338 -68.21736 
L 156.062338 -67.920212 
L 153.163636 -67.920212 
L 153.163636 -67.647281 
L 150.264935 -67.647281 
L 150.264935 -61.562198 
L 147.366234 -61.562198 
L 147.366234 -61.499196 
L 144.467532 -61.499196 
L 144.467532 -61.332876 
L 141.568831 -61.332876 
L 141.568831 -61.083396 
L 138.67013 -61.083396 
L 138.67013 -60.731064 
L 135.771429 -60.731064 
L 135.771429 -60.597043 
L 132.872727 -60.597043 
L 132.872727 -60.501941 
L 129.974026 -60.501941 
L 129.974026 -58.332879 
L 127.075325 -58.332879 
L 127.075325 -58.332879 
L 124.176623 -58.332879 
L 124.176623 -58.332879 
L 121.277922 -58.332879 
L 121.277922 -58.332879 
L 118.379221 -58.332879 
L 118.379221 -58.332879 
L 115.480519 -58.332879 
L 115.480519 -58.332879 
L 112.581818 -58.332879 
L 112.581818 -58.332879 
L 109.683117 -58.332879 
L 109.683117 -52.002324 
L 106.784416 -52.002324 
L 106.784416 -52.002324 
L 103.885714 -52.002324 
L 103.885714 -52.002324 
L 100.987013 -52.002324 
L 100.987013 -52.002324 
L 98.088312 -52.002324 
L 98.088312 -52.002324 
L 95.18961 -52.002324 
L 95.18961 -52.002324 
L 92.290909 -52.002324 
L 92.290909 -52.002324 
L 89.392208 -52.002324 
L 89.392208 -49.586526 
L 86.493506 -49.586526 
L 86.493506 -49.586526 
L 83.594805 -49.586526 
L 83.594805 -49.586526 
L 80.696104 -49.586526 
L 80.696104 -49.586526 
L 77.797403 -49.586526 
L 77.797403 -49.586526 
L 74.898701 -49.586526 
L 74.898701 -49.586526 
L 72 -49.586526 
L 72 -49.586526 
z
" id="m3dbdd4a65c"/>
    </defs>
    <g clip-path="url(#pf830a78d30)">
     <use style="fill:#ff7f0e;" x="0" xlink:href="#m3dbdd4a65c" y="432"/>
    </g>
   </g>
   <g id="PolyCollection_17">
    <defs>
     <path d="M 72 -51.653052 
L 72 -49.586526 
L 72 -49.586526 
L 74.898701 -49.586526 
L 74.898701 -49.586526 
L 77.797403 -49.586526 
L 77.797403 -49.586526 
L 80.696104 -49.586526 
L 80.696104 -49.586526 
L 83.594805 -49.586526 
L 83.594805 -49.586526 
L 86.493506 -49.586526 
L 86.493506 -49.586526 
L 89.392208 -49.586526 
L 89.392208 -52.002324 
L 92.290909 -52.002324 
L 92.290909 -52.002324 
L 95.18961 -52.002324 
L 95.18961 -52.002324 
L 98.088312 -52.002324 
L 98.088312 -52.002324 
L 100.987013 -52.002324 
L 100.987013 -52.002324 
L 103.885714 -52.002324 
L 103.885714 -52.002324 
L 106.784416 -52.002324 
L 106.784416 -52.002324 
L 109.683117 -52.002324 
L 109.683117 -58.332879 
L 112.581818 -58.332879 
L 112.581818 -58.332879 
L 115.480519 -58.332879 
L 115.480519 -58.332879 
L 118.379221 -58.332879 
L 118.379221 -58.332879 
L 121.277922 -58.332879 
L 121.277922 -58.332879 
L 124.176623 -58.332879 
L 124.176623 -58.332879 
L 127.075325 -58.332879 
L 127.075325 -58.332879 
L 129.974026 -58.332879 
L 129.974026 -60.501941 
L 132.872727 -60.501941 
L 132.872727 -60.597043 
L 135.771429 -60.597043 
L 135.771429 -60.731064 
L 138.67013 -60.731064 
L 138.67013 -61.083396 
L 141.568831 -61.083396 
L 141.568831 -61.332876 
L 144.467532 -61.332876 
L 144.467532 -61.499196 
L 147.366234 -61.499196 
L 147.366234 -61.562198 
L 150.264935 -61.562198 
L 150.264935 -67.647281 
L 153.163636 -67.647281 
L 153.163636 -67.920212 
L 156.062338 -67.920212 
L 156.062338 -68.21736 
L 158.961039 -68.21736 
L 158.961039 -68.555588 
L 161.85974 -68.555588 
L 161.85974 -68.916802 
L 164.758442 -68.916802 
L 164.758442 -69.08555 
L 167.657143 -69.08555 
L 167.657143 -69.232078 
L 170.555844 -69.232078 
L 170.555844 -83.731221 
L 173.454545 -83.731221 
L 173.454545 -83.862296 
L 176.353247 -83.862296 
L 176.353247 -84.035631 
L 179.251948 -84.035631 
L 179.251948 -84.324215 
L 182.150649 -84.324215 
L 182.150649 -84.479299 
L 185.049351 -84.479299 
L 185.049351 -84.850636 
L 187.948052 -84.850636 
L 187.948052 -84.900632 
L 190.846753 -84.900632 
L 190.846753 -84.94589 
L 193.745455 -84.94589 
L 193.745455 -85.248913 
L 196.644156 -85.248913 
L 196.644156 -85.598915 
L 199.542857 -85.598915 
L 199.542857 -85.842776 
L 202.441558 -85.842776 
L 202.441558 -85.990161 
L 205.34026 -85.990161 
L 205.34026 -86.155568 
L 208.238961 -86.155568 
L 208.238961 -86.182067 
L 211.137662 -86.182067 
L 211.137662 -109.337267 
L 214.036364 -109.337267 
L 214.036364 -109.50462 
L 216.935065 -109.50462 
L 216.935065 -109.88351 
L 219.833766 -109.88351 
L 219.833766 -110.30334 
L 222.732468 -110.30334 
L 222.732468 -110.702641 
L 225.631169 -110.702641 
L 225.631169 -111.10537 
L 228.52987 -111.10537 
L 228.52987 -111.111718 
L 231.428571 -111.111718 
L 231.428571 -123.878804 
L 234.327273 -123.878804 
L 234.327273 -124.211763 
L 237.225974 -124.211763 
L 237.225974 -124.646198 
L 240.124675 -124.646198 
L 240.124675 -125.06578 
L 243.023377 -125.06578 
L 243.023377 -125.545228 
L 245.922078 -125.545228 
L 245.922078 -125.504375 
L 248.820779 -125.504375 
L 248.820779 -125.589591 
L 251.719481 -125.589591 
L 251.719481 -135.094723 
L 254.618182 -135.094723 
L 254.618182 -135.104774 
L 257.516883 -135.104774 
L 257.516883 -135.457057 
L 260.415584 -135.457057 
L 260.415584 -135.897049 
L 263.314286 -135.897049 
L 263.314286 -136.391367 
L 266.212987 -136.391367 
L 266.212987 -136.753631 
L 269.111688 -136.753631 
L 269.111688 -136.926501 
L 272.01039 -136.926501 
L 272.01039 -154.826549 
L 274.909091 -154.826549 
L 274.909091 -154.954309 
L 277.807792 -154.954309 
L 277.807792 -155.077721 
L 280.706494 -155.077721 
L 280.706494 -155.20554 
L 283.605195 -155.20554 
L 283.605195 -155.327228 
L 286.503896 -155.327228 
L 286.503896 -155.431415 
L 289.402597 -155.431415 
L 289.402597 -155.48656 
L 292.301299 -155.48656 
L 292.301299 -176.509464 
L 295.2 -176.509464 
L 295.2 -176.897531 
L 298.098701 -176.897531 
L 298.098701 -177.251667 
L 300.997403 -177.251667 
L 300.997403 -177.625345 
L 303.896104 -177.625345 
L 303.896104 -178.007455 
L 306.794805 -178.007455 
L 306.794805 -178.415731 
L 309.693506 -178.415731 
L 309.693506 -178.535244 
L 312.592208 -178.535244 
L 312.592208 -207.527095 
L 315.490909 -207.527095 
L 315.490909 -207.768344 
L 318.38961 -207.768344 
L 318.38961 -208.147742 
L 321.288312 -208.147742 
L 321.288312 -208.679287 
L 324.187013 -208.679287 
L 324.187013 -209.079959 
L 327.085714 -209.079959 
L 327.085714 -209.41954 
L 329.984416 -209.41954 
L 329.984416 -209.526846 
L 332.883117 -209.526846 
L 332.883117 -235.850455 
L 335.781818 -235.850455 
L 335.781818 -236.165821 
L 338.680519 -236.165821 
L 338.680519 -236.620042 
L 341.579221 -236.620042 
L 341.579221 -237.060676 
L 344.477922 -237.060676 
L 344.477922 -237.525159 
L 347.376623 -237.525159 
L 347.376623 -237.945912 
L 350.275325 -237.945912 
L 350.275325 -238.095779 
L 353.174026 -238.095779 
L 353.174026 -263.327616 
L 356.072727 -263.327616 
L 356.072727 -263.920144 
L 358.971429 -263.920144 
L 358.971429 -264.594394 
L 361.87013 -264.594394 
L 361.87013 -265.44132 
L 364.768831 -265.44132 
L 364.768831 -266.156407 
L 367.667532 -266.156407 
L 367.667532 -267.048417 
L 370.566234 -267.048417 
L 370.566234 -267.313507 
L 373.464935 -267.313507 
L 373.464935 -286.887509 
L 376.363636 -286.887509 
L 376.363636 -385.88278 
L 376.363636 -385.88278 
L 373.464935 -385.88278 
L 373.464935 -349.568679 
L 370.566234 -349.568679 
L 370.566234 -349.568679 
L 367.667532 -349.568679 
L 367.667532 -349.568679 
L 364.768831 -349.568679 
L 364.768831 -349.568679 
L 361.87013 -349.568679 
L 361.87013 -349.568679 
L 358.971429 -349.568679 
L 358.971429 -349.568679 
L 356.072727 -349.568679 
L 356.072727 -349.568679 
L 353.174026 -349.568679 
L 353.174026 -309.430341 
L 350.275325 -309.430341 
L 350.275325 -309.430341 
L 347.376623 -309.430341 
L 347.376623 -309.430341 
L 344.477922 -309.430341 
L 344.477922 -309.430341 
L 341.579221 -309.430341 
L 341.579221 -309.430341 
L 338.680519 -309.430341 
L 338.680519 -309.430341 
L 335.781818 -309.430341 
L 335.781818 -309.430341 
L 332.883117 -309.430341 
L 332.883117 -270.079029 
L 329.984416 -270.079029 
L 329.984416 -270.079029 
L 327.085714 -270.079029 
L 327.085714 -270.079029 
L 324.187013 -270.079029 
L 324.187013 -270.079029 
L 321.288312 -270.079029 
L 321.288312 -270.079029 
L 318.38961 -270.079029 
L 318.38961 -270.079029 
L 315.490909 -270.079029 
L 315.490909 -270.079029 
L 312.592208 -270.079029 
L 312.592208 -229.866179 
L 309.693506 -229.866179 
L 309.693506 -229.866179 
L 306.794805 -229.866179 
L 306.794805 -229.866179 
L 303.896104 -229.866179 
L 303.896104 -229.866179 
L 300.997403 -229.866179 
L 300.997403 -229.866179 
L 298.098701 -229.866179 
L 298.098701 -229.866179 
L 295.2 -229.866179 
L 295.2 -229.866179 
L 292.301299 -229.866179 
L 292.301299 -197.474112 
L 289.402597 -197.474112 
L 289.402597 -197.474112 
L 286.503896 -197.474112 
L 286.503896 -197.474112 
L 283.605195 -197.474112 
L 283.605195 -197.474112 
L 280.706494 -197.474112 
L 280.706494 -197.474112 
L 277.807792 -197.474112 
L 277.807792 -197.474112 
L 274.909091 -197.474112 
L 274.909091 -197.474112 
L 272.01039 -197.474112 
L 272.01039 -172.588482 
L 269.111688 -172.588482 
L 269.111688 -172.588482 
L 266.212987 -172.588482 
L 266.212987 -172.588482 
L 263.314286 -172.588482 
L 263.314286 -172.588482 
L 260.415584 -172.588482 
L 260.415584 -172.588482 
L 257.516883 -172.588482 
L 257.516883 -172.588482 
L 254.618182 -172.588482 
L 254.618182 -172.588482 
L 251.719481 -172.588482 
L 251.719481 -153.931536 
L 248.820779 -153.931536 
L 248.820779 -153.931536 
L 245.922078 -153.931536 
L 245.922078 -153.931536 
L 243.023377 -153.931536 
L 243.023377 -153.931536 
L 240.124675 -153.931536 
L 240.124675 -153.931536 
L 237.225974 -153.931536 
L 237.225974 -153.931536 
L 234.327273 -153.931536 
L 234.327273 -153.931536 
L 231.428571 -153.931536 
L 231.428571 -131.461704 
L 228.52987 -131.461704 
L 228.52987 -131.461704 
L 225.631169 -131.461704 
L 225.631169 -131.461704 
L 222.732468 -131.461704 
L 222.732468 -131.461704 
L 219.833766 -131.461704 
L 219.833766 -131.461704 
L 216.935065 -131.461704 
L 216.935065 -131.461704 
L 214.036364 -131.461704 
L 214.036364 -131.461704 
L 211.137662 -131.461704 
L 211.137662 -114.376482 
L 208.238961 -114.376482 
L 208.238961 -114.376482 
L 205.34026 -114.376482 
L 205.34026 -114.376482 
L 202.441558 -114.376482 
L 202.441558 -114.376482 
L 199.542857 -114.376482 
L 199.542857 -114.376482 
L 196.644156 -114.376482 
L 196.644156 -114.376482 
L 193.745455 -114.376482 
L 193.745455 -114.376482 
L 190.846753 -114.376482 
L 190.846753 -114.376482 
L 187.948052 -114.376482 
L 187.948052 -114.376482 
L 185.049351 -114.376482 
L 185.049351 -114.376482 
L 182.150649 -114.376482 
L 182.150649 -114.376482 
L 179.251948 -114.376482 
L 179.251948 -114.376482 
L 176.353247 -114.376482 
L 176.353247 -114.376482 
L 173.454545 -114.376482 
L 173.454545 -114.376482 
L 170.555844 -114.376482 
L 170.555844 -85.532436 
L 167.657143 -85.532436 
L 167.657143 -85.532436 
L 164.758442 -85.532436 
L 164.758442 -85.532436 
L 161.85974 -85.532436 
L 161.85974 -85.532436 
L 158.961039 -85.532436 
L 158.961039 -85.532436 
L 156.062338 -85.532436 
L 156.062338 -85.532436 
L 153.163636 -85.532436 
L 153.163636 -85.532436 
L 150.264935 -85.532436 
L 150.264935 -73.482552 
L 147.366234 -73.482552 
L 147.366234 -73.482552 
L 144.467532 -73.482552 
L 144.467532 -73.482552 
L 141.568831 -73.482552 
L 141.568831 -73.482552 
L 138.67013 -73.482552 
L 138.67013 -73.482552 
L 135.771429 -73.482552 
L 135.771429 -73.482552 
L 132.872727 -73.482552 
L 132.872727 -73.482552 
L 129.974026 -73.482552 
L 129.974026 -69.145758 
L 127.075325 -69.145758 
L 127.075325 -69.145758 
L 124.176623 -69.145758 
L 124.176623 -69.145758 
L 121.277922 -69.145758 
L 121.277922 -69.145758 
L 118.379221 -69.145758 
L 118.379221 -69.145758 
L 115.480519 -69.145758 
L 115.480519 -69.145758 
L 112.581818 -69.145758 
L 112.581818 -69.145758 
L 109.683117 -69.145758 
L 109.683117 -56.484648 
L 106.784416 -56.484648 
L 106.784416 -56.484648 
L 103.885714 -56.484648 
L 103.885714 -56.484648 
L 100.987013 -56.484648 
L 100.987013 -56.484648 
L 98.088312 -56.484648 
L 98.088312 -56.484648 
L 95.18961 -56.484648 
L 95.18961 -56.484648 
L 92.290909 -56.484648 
L 92.290909 -56.484648 
L 89.392208 -56.484648 
L 89.392208 -51.653052 
L 86.493506 -51.653052 
L 86.493506 -51.653052 
L 83.594805 -51.653052 
L 83.594805 -51.653052 
L 80.696104 -51.653052 
L 80.696104 -51.653052 
L 77.797403 -51.653052 
L 77.797403 -51.653052 
L 74.898701 -51.653052 
L 74.898701 -51.653052 
L 72 -51.653052 
L 72 -51.653052 
z
" id="m3ebba1d192"/>
    </defs>
    <g clip-path="url(#pf830a78d30)">
     <use style="fill:#d62728;" x="0" xlink:href="#m3ebba1d192" y="432"/>
    </g>
   </g>
   <g id="matplotlib.axis_1">
    <g id="xtick_1">
     <g id="line2d_1">
      <path clip-path="url(#pf830a78d30)" d="M 92.290909 384.48 
L 92.290909 51.84 
" style="fill:none;stroke:#000000;stroke-dasharray:0.8,1.32;stroke-dashoffset:0;stroke-width:0.8;"/>
     </g>
     <g id="line2d_2">
      <defs>
       <path d="M 0 0 
L 0 3.5 
" id="m60bbab4baa" style="stroke:#000000;stroke-width:0.8;"/>
      </defs>
      <g>
       <use style="stroke:#000000;stroke-width:0.8;" x="92.290909" xlink:href="#m60bbab4baa" y="384.48"/>
      </g>
     </g>
     <g id="text_1">
      <!-- Mar -->
      <g transform="translate(82.857315 399.078438)scale(0.1 -0.1)">
       <defs>
        <path d="M 628 4666 
L 1569 4666 
L 2759 1491 
L 3956 4666 
L 4897 4666 
L 4897 0 
L 4281 0 
L 4281 4097 
L 3078 897 
L 2444 897 
L 1241 4097 
L 1241 0 
L 628 0 
L 628 4666 
z
" id="DejaVuSans-4d" transform="scale(0.015625)"/>
        <path d="M 2194 1759 
Q 1497 1759 1228 1600 
Q 959 1441 959 1056 
Q 959 750 1161 570 
Q 1363 391 1709 391 
Q 2188 391 2477 730 
Q 2766 1069 2766 1631 
L 2766 1759 
L 2194 1759 
z
M 3341 1997 
L 3341 0 
L 2766 0 
L 2766 531 
Q 2569 213 2275 61 
Q 1981 -91 1556 -91 
Q 1019 -91 701 211 
Q 384 513 384 1019 
Q 384 1609 779 1909 
Q 1175 2209 1959 2209 
L 2766 2209 
L 2766 2266 
Q 2766 2663 2505 2880 
Q 2244 3097 1772 3097 
Q 1472 3097 1187 3025 
Q 903 2953 641 2809 
L 641 3341 
Q 956 3463 1253 3523 
Q 1550 3584 1831 3584 
Q 2591 3584 2966 3190 
Q 3341 2797 3341 1997 
z
" id="DejaVuSans-61" transform="scale(0.015625)"/>
        <path d="M 2631 2963 
Q 2534 3019 2420 3045 
Q 2306 3072 2169 3072 
Q 1681 3072 1420 2755 
Q 1159 2438 1159 1844 
L 1159 0 
L 581 0 
L 581 3500 
L 1159 3500 
L 1159 2956 
Q 1341 3275 1631 3429 
Q 1922 3584 2338 3584 
Q 2397 3584 2469 3576 
Q 2541 3569 2628 3553 
L 2631 2963 
z
" id="DejaVuSans-72" transform="scale(0.015625)"/>
       </defs>
       <use xlink:href="#DejaVuSans-4d"/>
       <use x="86.279297" xlink:href="#DejaVuSans-61"/>
       <use x="147.558594" xlink:href="#DejaVuSans-72"/>
      </g>
     </g>
    </g>
    <g id="xtick_2">
     <g id="line2d_3">
      <path clip-path="url(#pf830a78d30)" d="M 132.872727 384.48 
L 132.872727 51.84 
" style="fill:none;stroke:#000000;stroke-dasharray:0.8,1.32;stroke-dashoffset:0;stroke-width:0.8;"/>
     </g>
     <g id="line2d_4">
      <g>
       <use style="stroke:#000000;stroke-width:0.8;" x="132.872727" xlink:href="#m60bbab4baa" y="384.48"/>
      </g>
     </g>
     <g id="text_2">
      <!-- 15 -->
      <g transform="translate(126.510227 399.078438)scale(0.1 -0.1)">
       <defs>
        <path d="M 794 531 
L 1825 531 
L 1825 4091 
L 703 3866 
L 703 4441 
L 1819 4666 
L 2450 4666 
L 2450 531 
L 3481 531 
L 3481 0 
L 794 0 
L 794 531 
z
" id="DejaVuSans-31" transform="scale(0.015625)"/>
        <path d="M 691 4666 
L 3169 4666 
L 3169 4134 
L 1269 4134 
L 1269 2991 
Q 1406 3038 1543 3061 
Q 1681 3084 1819 3084 
Q 2600 3084 3056 2656 
Q 3513 2228 3513 1497 
Q 3513 744 3044 326 
Q 2575 -91 1722 -91 
Q 1428 -91 1123 -41 
Q 819 9 494 109 
L 494 744 
Q 775 591 1075 516 
Q 1375 441 1709 441 
Q 2250 441 2565 725 
Q 2881 1009 2881 1497 
Q 2881 1984 2565 2268 
Q 2250 2553 1709 2553 
Q 1456 2553 1204 2497 
Q 953 2441 691 2322 
L 691 4666 
z
" id="DejaVuSans-35" transform="scale(0.015625)"/>
       </defs>
       <use xlink:href="#DejaVuSans-31"/>
       <use x="63.623047" xlink:href="#DejaVuSans-35"/>
      </g>
     </g>
    </g>
    <g id="xtick_3">
     <g id="line2d_5">
      <path clip-path="url(#pf830a78d30)" d="M 182.150649 384.48 
L 182.150649 51.84 
" style="fill:none;stroke:#000000;stroke-dasharray:0.8,1.32;stroke-dashoffset:0;stroke-width:0.8;"/>
     </g>
     <g id="line2d_6">
      <g>
       <use style="stroke:#000000;stroke-width:0.8;" x="182.150649" xlink:href="#m60bbab4baa" y="384.48"/>
      </g>
     </g>
     <g id="text_3">
      <!-- Apr -->
      <g transform="translate(173.500649 399.078438)scale(0.1 -0.1)">
       <defs>
        <path d="M 2188 4044 
L 1331 1722 
L 3047 1722 
L 2188 4044 
z
M 1831 4666 
L 2547 4666 
L 4325 0 
L 3669 0 
L 3244 1197 
L 1141 1197 
L 716 0 
L 50 0 
L 1831 4666 
z
" id="DejaVuSans-41" transform="scale(0.015625)"/>
        <path d="M 1159 525 
L 1159 -1331 
L 581 -1331 
L 581 3500 
L 1159 3500 
L 1159 2969 
Q 1341 3281 1617 3432 
Q 1894 3584 2278 3584 
Q 2916 3584 3314 3078 
Q 3713 2572 3713 1747 
Q 3713 922 3314 415 
Q 2916 -91 2278 -91 
Q 1894 -91 1617 61 
Q 1341 213 1159 525 
z
M 3116 1747 
Q 3116 2381 2855 2742 
Q 2594 3103 2138 3103 
Q 1681 3103 1420 2742 
Q 1159 2381 1159 1747 
Q 1159 1113 1420 752 
Q 1681 391 2138 391 
Q 2594 391 2855 752 
Q 3116 1113 3116 1747 
z
" id="DejaVuSans-70" transform="scale(0.015625)"/>
       </defs>
       <use xlink:href="#DejaVuSans-41"/>
       <use x="68.408203" xlink:href="#DejaVuSans-70"/>
       <use x="131.884766" xlink:href="#DejaVuSans-72"/>
      </g>
     </g>
    </g>
    <g id="xtick_4">
     <g id="line2d_7">
      <path clip-path="url(#pf830a78d30)" d="M 222.732468 384.48 
L 222.732468 51.84 
" style="fill:none;stroke:#000000;stroke-dasharray:0.8,1.32;stroke-dashoffset:0;stroke-width:0.8;"/>
     </g>
     <g id="line2d_8">
      <g>
       <use style="stroke:#000000;stroke-width:0.8;" x="222.732468" xlink:href="#m60bbab4baa" y="384.48"/>
      </g>
     </g>
     <g id="text_4">
      <!-- 15 -->
      <g transform="translate(216.369968 399.078438)scale(0.1 -0.1)">
       <use xlink:href="#DejaVuSans-31"/>
       <use x="63.623047" xlink:href="#DejaVuSans-35"/>
      </g>
     </g>
    </g>
    <g id="xtick_5">
     <g id="line2d_9">
      <path clip-path="url(#pf830a78d30)" d="M 269.111688 384.48 
L 269.111688 51.84 
" style="fill:none;stroke:#000000;stroke-dasharray:0.8,1.32;stroke-dashoffset:0;stroke-width:0.8;"/>
     </g>
     <g id="line2d_10">
      <g>
       <use style="stroke:#000000;stroke-width:0.8;" x="269.111688" xlink:href="#m60bbab4baa" y="384.48"/>
      </g>
     </g>
     <g id="text_5">
      <!-- May -->
      <g transform="translate(258.774188 399.078438)scale(0.1 -0.1)">
       <defs>
        <path d="M 2059 -325 
Q 1816 -950 1584 -1140 
Q 1353 -1331 966 -1331 
L 506 -1331 
L 506 -850 
L 844 -850 
Q 1081 -850 1212 -737 
Q 1344 -625 1503 -206 
L 1606 56 
L 191 3500 
L 800 3500 
L 1894 763 
L 2988 3500 
L 3597 3500 
L 2059 -325 
z
" id="DejaVuSans-79" transform="scale(0.015625)"/>
       </defs>
       <use xlink:href="#DejaVuSans-4d"/>
       <use x="86.279297" xlink:href="#DejaVuSans-61"/>
       <use x="147.558594" xlink:href="#DejaVuSans-79"/>
      </g>
     </g>
    </g>
    <g id="xtick_6">
     <g id="line2d_11">
      <path clip-path="url(#pf830a78d30)" d="M 309.693506 384.48 
L 309.693506 51.84 
" style="fill:none;stroke:#000000;stroke-dasharray:0.8,1.32;stroke-dashoffset:0;stroke-width:0.8;"/>
     </g>
     <g id="line2d_12">
      <g>
       <use style="stroke:#000000;stroke-width:0.8;" x="309.693506" xlink:href="#m60bbab4baa" y="384.48"/>
      </g>
     </g>
     <g id="text_6">
      <!-- 15 -->
      <g transform="translate(303.331006 399.078438)scale(0.1 -0.1)">
       <use xlink:href="#DejaVuSans-31"/>
       <use x="63.623047" xlink:href="#DejaVuSans-35"/>
      </g>
     </g>
    </g>
    <g id="xtick_7">
     <g id="line2d_13">
      <path clip-path="url(#pf830a78d30)" d="M 358.971429 384.48 
L 358.971429 51.84 
" style="fill:none;stroke:#000000;stroke-dasharray:0.8,1.32;stroke-dashoffset:0;stroke-width:0.8;"/>
     </g>
     <g id="line2d_14">
      <g>
       <use style="stroke:#000000;stroke-width:0.8;" x="358.971429" xlink:href="#m60bbab4baa" y="384.48"/>
      </g>
     </g>
     <g id="text_7">
      <!-- Jun -->
      <g transform="translate(351.158929 399.078438)scale(0.1 -0.1)">
       <defs>
        <path d="M 628 4666 
L 1259 4666 
L 1259 325 
Q 1259 -519 939 -900 
Q 619 -1281 -91 -1281 
L -331 -1281 
L -331 -750 
L -134 -750 
Q 284 -750 456 -515 
Q 628 -281 628 325 
L 628 4666 
z
" id="DejaVuSans-4a" transform="scale(0.015625)"/>
        <path d="M 544 1381 
L 544 3500 
L 1119 3500 
L 1119 1403 
Q 1119 906 1312 657 
Q 1506 409 1894 409 
Q 2359 409 2629 706 
Q 2900 1003 2900 1516 
L 2900 3500 
L 3475 3500 
L 3475 0 
L 2900 0 
L 2900 538 
Q 2691 219 2414 64 
Q 2138 -91 1772 -91 
Q 1169 -91 856 284 
Q 544 659 544 1381 
z
M 1991 3584 
L 1991 3584 
z
" id="DejaVuSans-75" transform="scale(0.015625)"/>
        <path d="M 3513 2113 
L 3513 0 
L 2938 0 
L 2938 2094 
Q 2938 2591 2744 2837 
Q 2550 3084 2163 3084 
Q 1697 3084 1428 2787 
Q 1159 2491 1159 1978 
L 1159 0 
L 581 0 
L 581 3500 
L 1159 3500 
L 1159 2956 
Q 1366 3272 1645 3428 
Q 1925 3584 2291 3584 
Q 2894 3584 3203 3211 
Q 3513 2838 3513 2113 
z
" id="DejaVuSans-6e" transform="scale(0.015625)"/>
       </defs>
       <use xlink:href="#DejaVuSans-4a"/>
       <use x="29.492188" xlink:href="#DejaVuSans-75"/>
       <use x="92.871094" xlink:href="#DejaVuSans-6e"/>
      </g>
     </g>
    </g>
    <g id="xtick_8">
     <g id="line2d_15">
      <path clip-path="url(#pf830a78d30)" d="M 399.553247 384.48 
L 399.553247 51.84 
" style="fill:none;stroke:#000000;stroke-dasharray:0.8,1.32;stroke-dashoffset:0;stroke-width:0.8;"/>
     </g>
     <g id="line2d_16">
      <g>
       <use style="stroke:#000000;stroke-width:0.8;" x="399.553247" xlink:href="#m60bbab4baa" y="384.48"/>
      </g>
     </g>
     <g id="text_8">
      <!-- 15 -->
      <g transform="translate(393.190747 399.078438)scale(0.1 -0.1)">
       <use xlink:href="#DejaVuSans-31"/>
       <use x="63.623047" xlink:href="#DejaVuSans-35"/>
      </g>
     </g>
    </g>
    <g id="xtick_9">
     <g id="line2d_17">
      <path clip-path="url(#pf830a78d30)" d="M 445.932468 384.48 
L 445.932468 51.84 
" style="fill:none;stroke:#000000;stroke-dasharray:0.8,1.32;stroke-dashoffset:0;stroke-width:0.8;"/>
     </g>
     <g id="line2d_18">
      <g>
       <use style="stroke:#000000;stroke-width:0.8;" x="445.932468" xlink:href="#m60bbab4baa" y="384.48"/>
      </g>
     </g>
     <g id="text_9">
      <!-- Jul -->
      <g transform="translate(439.899655 399.078438)scale(0.1 -0.1)">
       <defs>
        <path d="M 603 4863 
L 1178 4863 
L 1178 0 
L 603 0 
L 603 4863 
z
" id="DejaVuSans-6c" transform="scale(0.015625)"/>
       </defs>
       <use xlink:href="#DejaVuSans-4a"/>
       <use x="29.492188" xlink:href="#DejaVuSans-75"/>
       <use x="92.871094" xlink:href="#DejaVuSans-6c"/>
      </g>
     </g>
    </g>
    <g id="xtick_10">
     <g id="line2d_19">
      <path clip-path="url(#pf830a78d30)" d="M 486.514286 384.48 
L 486.514286 51.84 
" style="fill:none;stroke:#000000;stroke-dasharray:0.8,1.32;stroke-dashoffset:0;stroke-width:0.8;"/>
     </g>
     <g id="line2d_20">
      <g>
       <use style="stroke:#000000;stroke-width:0.8;" x="486.514286" xlink:href="#m60bbab4baa" y="384.48"/>
      </g>
     </g>
     <g id="text_10">
      <!-- 15 -->
      <g transform="translate(480.151786 399.078438)scale(0.1 -0.1)">
       <use xlink:href="#DejaVuSans-31"/>
       <use x="63.623047" xlink:href="#DejaVuSans-35"/>
      </g>
     </g>
    </g>
   </g>
   <g id="matplotlib.axis_2">
    <g id="ytick_1">
     <g id="line2d_21">
      <path clip-path="url(#pf830a78d30)" d="M 72 384.48 
L 518.4 384.48 
" style="fill:none;stroke:#000000;stroke-dasharray:0.8,1.32;stroke-dashoffset:0;stroke-width:0.8;"/>
     </g>
     <g id="line2d_22">
      <defs>
       <path d="M 0 0 
L -3.5 0 
" id="m253dbe1c3f" style="stroke:#000000;stroke-width:0.8;"/>
      </defs>
      <g>
       <use style="stroke:#000000;stroke-width:0.8;" x="72" xlink:href="#m253dbe1c3f" y="384.48"/>
      </g>
     </g>
     <g id="text_11">
      <!-- 0 -->
      <g transform="translate(58.6375 388.279219)scale(0.1 -0.1)">
       <defs>
        <path d="M 2034 4250 
Q 1547 4250 1301 3770 
Q 1056 3291 1056 2328 
Q 1056 1369 1301 889 
Q 1547 409 2034 409 
Q 2525 409 2770 889 
Q 3016 1369 3016 2328 
Q 3016 3291 2770 3770 
Q 2525 4250 2034 4250 
z
M 2034 4750 
Q 2819 4750 3233 4129 
Q 3647 3509 3647 2328 
Q 3647 1150 3233 529 
Q 2819 -91 2034 -91 
Q 1250 -91 836 529 
Q 422 1150 422 2328 
Q 422 3509 836 4129 
Q 1250 4750 2034 4750 
z
" id="DejaVuSans-30" transform="scale(0.015625)"/>
       </defs>
       <use xlink:href="#DejaVuSans-30"/>
      </g>
     </g>
    </g>
    <g id="ytick_2">
     <g id="line2d_23">
      <path clip-path="url(#pf830a78d30)" d="M 72 351.216 
L 518.4 351.216 
" style="fill:none;stroke:#000000;stroke-dasharray:0.8,1.32;stroke-dashoffset:0;stroke-width:0.8;"/>
     </g>
     <g id="line2d_24">
      <g>
       <use style="stroke:#000000;stroke-width:0.8;" x="72" xlink:href="#m253dbe1c3f" y="351.216"/>
      </g>
     </g>
     <g id="text_12">
      <!-- 1 -->
      <g transform="translate(58.6375 355.015219)scale(0.1 -0.1)">
       <use xlink:href="#DejaVuSans-31"/>
      </g>
     </g>
    </g>
    <g id="ytick_3">
     <g id="line2d_25">
      <path clip-path="url(#pf830a78d30)" d="M 72 317.952 
L 518.4 317.952 
" style="fill:none;stroke:#000000;stroke-dasharray:0.8,1.32;stroke-dashoffset:0;stroke-width:0.8;"/>
     </g>
     <g id="line2d_26">
      <g>
       <use style="stroke:#000000;stroke-width:0.8;" x="72" xlink:href="#m253dbe1c3f" y="317.952"/>
      </g>
     </g>
     <g id="text_13">
      <!-- 2 -->
      <g transform="translate(58.6375 321.751219)scale(0.1 -0.1)">
       <defs>
        <path d="M 1228 531 
L 3431 531 
L 3431 0 
L 469 0 
L 469 531 
Q 828 903 1448 1529 
Q 2069 2156 2228 2338 
Q 2531 2678 2651 2914 
Q 2772 3150 2772 3378 
Q 2772 3750 2511 3984 
Q 2250 4219 1831 4219 
Q 1534 4219 1204 4116 
Q 875 4013 500 3803 
L 500 4441 
Q 881 4594 1212 4672 
Q 1544 4750 1819 4750 
Q 2544 4750 2975 4387 
Q 3406 4025 3406 3419 
Q 3406 3131 3298 2873 
Q 3191 2616 2906 2266 
Q 2828 2175 2409 1742 
Q 1991 1309 1228 531 
z
" id="DejaVuSans-32" transform="scale(0.015625)"/>
       </defs>
       <use xlink:href="#DejaVuSans-32"/>
      </g>
     </g>
    </g>
    <g id="ytick_4">
     <g id="line2d_27">
      <path clip-path="url(#pf830a78d30)" d="M 72 284.688 
L 518.4 284.688 
" style="fill:none;stroke:#000000;stroke-dasharray:0.8,1.32;stroke-dashoffset:0;stroke-width:0.8;"/>
     </g>
     <g id="line2d_28">
      <g>
       <use style="stroke:#000000;stroke-width:0.8;" x="72" xlink:href="#m253dbe1c3f" y="284.688"/>
      </g>
     </g>
     <g id="text_14">
      <!-- 3 -->
      <g transform="translate(58.6375 288.487219)scale(0.1 -0.1)">
       <defs>
        <path d="M 2597 2516 
Q 3050 2419 3304 2112 
Q 3559 1806 3559 1356 
Q 3559 666 3084 287 
Q 2609 -91 1734 -91 
Q 1441 -91 1130 -33 
Q 819 25 488 141 
L 488 750 
Q 750 597 1062 519 
Q 1375 441 1716 441 
Q 2309 441 2620 675 
Q 2931 909 2931 1356 
Q 2931 1769 2642 2001 
Q 2353 2234 1838 2234 
L 1294 2234 
L 1294 2753 
L 1863 2753 
Q 2328 2753 2575 2939 
Q 2822 3125 2822 3475 
Q 2822 3834 2567 4026 
Q 2313 4219 1838 4219 
Q 1578 4219 1281 4162 
Q 984 4106 628 3988 
L 628 4550 
Q 988 4650 1302 4700 
Q 1616 4750 1894 4750 
Q 2613 4750 3031 4423 
Q 3450 4097 3450 3541 
Q 3450 3153 3228 2886 
Q 3006 2619 2597 2516 
z
" id="DejaVuSans-33" transform="scale(0.015625)"/>
       </defs>
       <use xlink:href="#DejaVuSans-33"/>
      </g>
     </g>
    </g>
    <g id="ytick_5">
     <g id="line2d_29">
      <path clip-path="url(#pf830a78d30)" d="M 72 251.424 
L 518.4 251.424 
" style="fill:none;stroke:#000000;stroke-dasharray:0.8,1.32;stroke-dashoffset:0;stroke-width:0.8;"/>
     </g>
     <g id="line2d_30">
      <g>
       <use style="stroke:#000000;stroke-width:0.8;" x="72" xlink:href="#m253dbe1c3f" y="251.424"/>
      </g>
     </g>
     <g id="text_15">
      <!-- 4 -->
      <g transform="translate(58.6375 255.223219)scale(0.1 -0.1)">
       <defs>
        <path d="M 2419 4116 
L 825 1625 
L 2419 1625 
L 2419 4116 
z
M 2253 4666 
L 3047 4666 
L 3047 1625 
L 3713 1625 
L 3713 1100 
L 3047 1100 
L 3047 0 
L 2419 0 
L 2419 1100 
L 313 1100 
L 313 1709 
L 2253 4666 
z
" id="DejaVuSans-34" transform="scale(0.015625)"/>
       </defs>
       <use xlink:href="#DejaVuSans-34"/>
      </g>
     </g>
    </g>
    <g id="ytick_6">
     <g id="line2d_31">
      <path clip-path="url(#pf830a78d30)" d="M 72 218.16 
L 518.4 218.16 
" style="fill:none;stroke:#000000;stroke-dasharray:0.8,1.32;stroke-dashoffset:0;stroke-width:0.8;"/>
     </g>
     <g id="line2d_32">
      <g>
       <use style="stroke:#000000;stroke-width:0.8;" x="72" xlink:href="#m253dbe1c3f" y="218.16"/>
      </g>
     </g>
     <g id="text_16">
      <!-- 5 -->
      <g transform="translate(58.6375 221.959219)scale(0.1 -0.1)">
       <use xlink:href="#DejaVuSans-35"/>
      </g>
     </g>
    </g>
    <g id="ytick_7">
     <g id="line2d_33">
      <path clip-path="url(#pf830a78d30)" d="M 72 184.896 
L 518.4 184.896 
" style="fill:none;stroke:#000000;stroke-dasharray:0.8,1.32;stroke-dashoffset:0;stroke-width:0.8;"/>
     </g>
     <g id="line2d_34">
      <g>
       <use style="stroke:#000000;stroke-width:0.8;" x="72" xlink:href="#m253dbe1c3f" y="184.896"/>
      </g>
     </g>
     <g id="text_17">
      <!-- 6 -->
      <g transform="translate(58.6375 188.695219)scale(0.1 -0.1)">
       <defs>
        <path d="M 2113 2584 
Q 1688 2584 1439 2293 
Q 1191 2003 1191 1497 
Q 1191 994 1439 701 
Q 1688 409 2113 409 
Q 2538 409 2786 701 
Q 3034 994 3034 1497 
Q 3034 2003 2786 2293 
Q 2538 2584 2113 2584 
z
M 3366 4563 
L 3366 3988 
Q 3128 4100 2886 4159 
Q 2644 4219 2406 4219 
Q 1781 4219 1451 3797 
Q 1122 3375 1075 2522 
Q 1259 2794 1537 2939 
Q 1816 3084 2150 3084 
Q 2853 3084 3261 2657 
Q 3669 2231 3669 1497 
Q 3669 778 3244 343 
Q 2819 -91 2113 -91 
Q 1303 -91 875 529 
Q 447 1150 447 2328 
Q 447 3434 972 4092 
Q 1497 4750 2381 4750 
Q 2619 4750 2861 4703 
Q 3103 4656 3366 4563 
z
" id="DejaVuSans-36" transform="scale(0.015625)"/>
       </defs>
       <use xlink:href="#DejaVuSans-36"/>
      </g>
     </g>
    </g>
    <g id="ytick_8">
     <g id="line2d_35">
      <path clip-path="url(#pf830a78d30)" d="M 72 151.632 
L 518.4 151.632 
" style="fill:none;stroke:#000000;stroke-dasharray:0.8,1.32;stroke-dashoffset:0;stroke-width:0.8;"/>
     </g>
     <g id="line2d_36">
      <g>
       <use style="stroke:#000000;stroke-width:0.8;" x="72" xlink:href="#m253dbe1c3f" y="151.632"/>
      </g>
     </g>
     <g id="text_18">
      <!-- 7 -->
      <g transform="translate(58.6375 155.431219)scale(0.1 -0.1)">
       <defs>
        <path d="M 525 4666 
L 3525 4666 
L 3525 4397 
L 1831 0 
L 1172 0 
L 2766 4134 
L 525 4134 
L 525 4666 
z
" id="DejaVuSans-37" transform="scale(0.015625)"/>
       </defs>
       <use xlink:href="#DejaVuSans-37"/>
      </g>
     </g>
    </g>
    <g id="ytick_9">
     <g id="line2d_37">
      <path clip-path="url(#pf830a78d30)" d="M 72 118.368 
L 518.4 118.368 
" style="fill:none;stroke:#000000;stroke-dasharray:0.8,1.32;stroke-dashoffset:0;stroke-width:0.8;"/>
     </g>
     <g id="line2d_38">
      <g>
       <use style="stroke:#000000;stroke-width:0.8;" x="72" xlink:href="#m253dbe1c3f" y="118.368"/>
      </g>
     </g>
     <g id="text_19">
      <!-- 8 -->
      <g transform="translate(58.6375 122.167219)scale(0.1 -0.1)">
       <defs>
        <path d="M 2034 2216 
Q 1584 2216 1326 1975 
Q 1069 1734 1069 1313 
Q 1069 891 1326 650 
Q 1584 409 2034 409 
Q 2484 409 2743 651 
Q 3003 894 3003 1313 
Q 3003 1734 2745 1975 
Q 2488 2216 2034 2216 
z
M 1403 2484 
Q 997 2584 770 2862 
Q 544 3141 544 3541 
Q 544 4100 942 4425 
Q 1341 4750 2034 4750 
Q 2731 4750 3128 4425 
Q 3525 4100 3525 3541 
Q 3525 3141 3298 2862 
Q 3072 2584 2669 2484 
Q 3125 2378 3379 2068 
Q 3634 1759 3634 1313 
Q 3634 634 3220 271 
Q 2806 -91 2034 -91 
Q 1263 -91 848 271 
Q 434 634 434 1313 
Q 434 1759 690 2068 
Q 947 2378 1403 2484 
z
M 1172 3481 
Q 1172 3119 1398 2916 
Q 1625 2713 2034 2713 
Q 2441 2713 2670 2916 
Q 2900 3119 2900 3481 
Q 2900 3844 2670 4047 
Q 2441 4250 2034 4250 
Q 1625 4250 1398 4047 
Q 1172 3844 1172 3481 
z
" id="DejaVuSans-38" transform="scale(0.015625)"/>
       </defs>
       <use xlink:href="#DejaVuSans-38"/>
      </g>
     </g>
    </g>
    <g id="ytick_10">
     <g id="line2d_39">
      <path clip-path="url(#pf830a78d30)" d="M 72 85.104 
L 518.4 85.104 
" style="fill:none;stroke:#000000;stroke-dasharray:0.8,1.32;stroke-dashoffset:0;stroke-width:0.8;"/>
     </g>
     <g id="line2d_40">
      <g>
       <use style="stroke:#000000;stroke-width:0.8;" x="72" xlink:href="#m253dbe1c3f" y="85.104"/>
      </g>
     </g>
     <g id="text_20">
      <!-- 9 -->
      <g transform="translate(58.6375 88.903219)scale(0.1 -0.1)">
       <defs>
        <path d="M 703 97 
L 703 672 
Q 941 559 1184 500 
Q 1428 441 1663 441 
Q 2288 441 2617 861 
Q 2947 1281 2994 2138 
Q 2813 1869 2534 1725 
Q 2256 1581 1919 1581 
Q 1219 1581 811 2004 
Q 403 2428 403 3163 
Q 403 3881 828 4315 
Q 1253 4750 1959 4750 
Q 2769 4750 3195 4129 
Q 3622 3509 3622 2328 
Q 3622 1225 3098 567 
Q 2575 -91 1691 -91 
Q 1453 -91 1209 -44 
Q 966 3 703 97 
z
M 1959 2075 
Q 2384 2075 2632 2365 
Q 2881 2656 2881 3163 
Q 2881 3666 2632 3958 
Q 2384 4250 1959 4250 
Q 1534 4250 1286 3958 
Q 1038 3666 1038 3163 
Q 1038 2656 1286 2365 
Q 1534 2075 1959 2075 
z
" id="DejaVuSans-39" transform="scale(0.015625)"/>
       </defs>
       <use xlink:href="#DejaVuSans-39"/>
      </g>
     </g>
    </g>
    <g id="ytick_11">
     <g id="line2d_41">
      <path clip-path="url(#pf830a78d30)" d="M 72 51.84 
L 518.4 51.84 
" style="fill:none;stroke:#000000;stroke-dasharray:0.8,1.32;stroke-dashoffset:0;stroke-width:0.8;"/>
     </g>
     <g id="line2d_42">
      <g>
       <use style="stroke:#000000;stroke-width:0.8;" x="72" xlink:href="#m253dbe1c3f" y="51.84"/>
      </g>
     </g>
     <g id="text_21">
      <!-- 10 -->
      <g transform="translate(52.275 55.639219)scale(0.1 -0.1)">
       <use xlink:href="#DejaVuSans-31"/>
       <use x="63.623047" xlink:href="#DejaVuSans-30"/>
      </g>
     </g>
    </g>
    <g id="text_22">
     <!-- Cumulative doses (millions) -->
     <g transform="translate(46.195312 287.556094)rotate(-90)scale(0.1 -0.1)">
      <defs>
       <path d="M 4122 4306 
L 4122 3641 
Q 3803 3938 3442 4084 
Q 3081 4231 2675 4231 
Q 1875 4231 1450 3742 
Q 1025 3253 1025 2328 
Q 1025 1406 1450 917 
Q 1875 428 2675 428 
Q 3081 428 3442 575 
Q 3803 722 4122 1019 
L 4122 359 
Q 3791 134 3420 21 
Q 3050 -91 2638 -91 
Q 1578 -91 968 557 
Q 359 1206 359 2328 
Q 359 3453 968 4101 
Q 1578 4750 2638 4750 
Q 3056 4750 3426 4639 
Q 3797 4528 4122 4306 
z
" id="DejaVuSans-43" transform="scale(0.015625)"/>
       <path d="M 3328 2828 
Q 3544 3216 3844 3400 
Q 4144 3584 4550 3584 
Q 5097 3584 5394 3201 
Q 5691 2819 5691 2113 
L 5691 0 
L 5113 0 
L 5113 2094 
Q 5113 2597 4934 2840 
Q 4756 3084 4391 3084 
Q 3944 3084 3684 2787 
Q 3425 2491 3425 1978 
L 3425 0 
L 2847 0 
L 2847 2094 
Q 2847 2600 2669 2842 
Q 2491 3084 2119 3084 
Q 1678 3084 1418 2786 
Q 1159 2488 1159 1978 
L 1159 0 
L 581 0 
L 581 3500 
L 1159 3500 
L 1159 2956 
Q 1356 3278 1631 3431 
Q 1906 3584 2284 3584 
Q 2666 3584 2933 3390 
Q 3200 3197 3328 2828 
z
" id="DejaVuSans-6d" transform="scale(0.015625)"/>
       <path d="M 1172 4494 
L 1172 3500 
L 2356 3500 
L 2356 3053 
L 1172 3053 
L 1172 1153 
Q 1172 725 1289 603 
Q 1406 481 1766 481 
L 2356 481 
L 2356 0 
L 1766 0 
Q 1100 0 847 248 
Q 594 497 594 1153 
L 594 3053 
L 172 3053 
L 172 3500 
L 594 3500 
L 594 4494 
L 1172 4494 
z
" id="DejaVuSans-74" transform="scale(0.015625)"/>
       <path d="M 603 3500 
L 1178 3500 
L 1178 0 
L 603 0 
L 603 3500 
z
M 603 4863 
L 1178 4863 
L 1178 4134 
L 603 4134 
L 603 4863 
z
" id="DejaVuSans-69" transform="scale(0.015625)"/>
       <path d="M 191 3500 
L 800 3500 
L 1894 563 
L 2988 3500 
L 3597 3500 
L 2284 0 
L 1503 0 
L 191 3500 
z
" id="DejaVuSans-76" transform="scale(0.015625)"/>
       <path d="M 3597 1894 
L 3597 1613 
L 953 1613 
Q 991 1019 1311 708 
Q 1631 397 2203 397 
Q 2534 397 2845 478 
Q 3156 559 3463 722 
L 3463 178 
Q 3153 47 2828 -22 
Q 2503 -91 2169 -91 
Q 1331 -91 842 396 
Q 353 884 353 1716 
Q 353 2575 817 3079 
Q 1281 3584 2069 3584 
Q 2775 3584 3186 3129 
Q 3597 2675 3597 1894 
z
M 3022 2063 
Q 3016 2534 2758 2815 
Q 2500 3097 2075 3097 
Q 1594 3097 1305 2825 
Q 1016 2553 972 2059 
L 3022 2063 
z
" id="DejaVuSans-65" transform="scale(0.015625)"/>
       <path id="DejaVuSans-20" transform="scale(0.015625)"/>
       <path d="M 2906 2969 
L 2906 4863 
L 3481 4863 
L 3481 0 
L 2906 0 
L 2906 525 
Q 2725 213 2448 61 
Q 2172 -91 1784 -91 
Q 1150 -91 751 415 
Q 353 922 353 1747 
Q 353 2572 751 3078 
Q 1150 3584 1784 3584 
Q 2172 3584 2448 3432 
Q 2725 3281 2906 2969 
z
M 947 1747 
Q 947 1113 1208 752 
Q 1469 391 1925 391 
Q 2381 391 2643 752 
Q 2906 1113 2906 1747 
Q 2906 2381 2643 2742 
Q 2381 3103 1925 3103 
Q 1469 3103 1208 2742 
Q 947 2381 947 1747 
z
" id="DejaVuSans-64" transform="scale(0.015625)"/>
       <path d="M 1959 3097 
Q 1497 3097 1228 2736 
Q 959 2375 959 1747 
Q 959 1119 1226 758 
Q 1494 397 1959 397 
Q 2419 397 2687 759 
Q 2956 1122 2956 1747 
Q 2956 2369 2687 2733 
Q 2419 3097 1959 3097 
z
M 1959 3584 
Q 2709 3584 3137 3096 
Q 3566 2609 3566 1747 
Q 3566 888 3137 398 
Q 2709 -91 1959 -91 
Q 1206 -91 779 398 
Q 353 888 353 1747 
Q 353 2609 779 3096 
Q 1206 3584 1959 3584 
z
" id="DejaVuSans-6f" transform="scale(0.015625)"/>
       <path d="M 2834 3397 
L 2834 2853 
Q 2591 2978 2328 3040 
Q 2066 3103 1784 3103 
Q 1356 3103 1142 2972 
Q 928 2841 928 2578 
Q 928 2378 1081 2264 
Q 1234 2150 1697 2047 
L 1894 2003 
Q 2506 1872 2764 1633 
Q 3022 1394 3022 966 
Q 3022 478 2636 193 
Q 2250 -91 1575 -91 
Q 1294 -91 989 -36 
Q 684 19 347 128 
L 347 722 
Q 666 556 975 473 
Q 1284 391 1588 391 
Q 1994 391 2212 530 
Q 2431 669 2431 922 
Q 2431 1156 2273 1281 
Q 2116 1406 1581 1522 
L 1381 1569 
Q 847 1681 609 1914 
Q 372 2147 372 2553 
Q 372 3047 722 3315 
Q 1072 3584 1716 3584 
Q 2034 3584 2315 3537 
Q 2597 3491 2834 3397 
z
" id="DejaVuSans-73" transform="scale(0.015625)"/>
       <path d="M 1984 4856 
Q 1566 4138 1362 3434 
Q 1159 2731 1159 2009 
Q 1159 1288 1364 580 
Q 1569 -128 1984 -844 
L 1484 -844 
Q 1016 -109 783 600 
Q 550 1309 550 2009 
Q 550 2706 781 3412 
Q 1013 4119 1484 4856 
L 1984 4856 
z
" id="DejaVuSans-28" transform="scale(0.015625)"/>
       <path d="M 513 4856 
L 1013 4856 
Q 1481 4119 1714 3412 
Q 1947 2706 1947 2009 
Q 1947 1309 1714 600 
Q 1481 -109 1013 -844 
L 513 -844 
Q 928 -128 1133 580 
Q 1338 1288 1338 2009 
Q 1338 2731 1133 3434 
Q 928 4138 513 4856 
z
" id="DejaVuSans-29" transform="scale(0.015625)"/>
      </defs>
      <use xlink:href="#DejaVuSans-43"/>
      <use x="69.824219" xlink:href="#DejaVuSans-75"/>
      <use x="133.203125" xlink:href="#DejaVuSans-6d"/>
      <use x="230.615234" xlink:href="#DejaVuSans-75"/>
      <use x="293.994141" xlink:href="#DejaVuSans-6c"/>
      <use x="321.777344" xlink:href="#DejaVuSans-61"/>
      <use x="383.056641" xlink:href="#DejaVuSans-74"/>
      <use x="422.265625" xlink:href="#DejaVuSans-69"/>
      <use x="450.048828" xlink:href="#DejaVuSans-76"/>
      <use x="509.228516" xlink:href="#DejaVuSans-65"/>
      <use x="570.751953" xlink:href="#DejaVuSans-20"/>
      <use x="602.539062" xlink:href="#DejaVuSans-64"/>
      <use x="666.015625" xlink:href="#DejaVuSans-6f"/>
      <use x="727.197266" xlink:href="#DejaVuSans-73"/>
      <use x="779.296875" xlink:href="#DejaVuSans-65"/>
      <use x="840.820312" xlink:href="#DejaVuSans-73"/>
      <use x="892.919922" xlink:href="#DejaVuSans-20"/>
      <use x="924.707031" xlink:href="#DejaVuSans-28"/>
      <use x="963.720703" xlink:href="#DejaVuSans-6d"/>
      <use x="1061.132812" xlink:href="#DejaVuSans-69"/>
      <use x="1088.916016" xlink:href="#DejaVuSans-6c"/>
      <use x="1116.699219" xlink:href="#DejaVuSans-6c"/>
      <use x="1144.482422" xlink:href="#DejaVuSans-69"/>
      <use x="1172.265625" xlink:href="#DejaVuSans-6f"/>
      <use x="1233.447266" xlink:href="#DejaVuSans-6e"/>
      <use x="1296.826172" xlink:href="#DejaVuSans-73"/>
      <use x="1348.925781" xlink:href="#DejaVuSans-29"/>
     </g>
    </g>
   </g>
   <g id="patch_3">
    <path d="M 72 384.48 
L 72 51.84 
" style="fill:none;stroke:#000000;stroke-linecap:square;stroke-linejoin:miter;stroke-width:0.8;"/>
   </g>
   <g id="patch_4">
    <path d="M 518.4 384.48 
L 518.4 51.84 
" style="fill:none;stroke:#000000;stroke-linecap:square;stroke-linejoin:miter;stroke-width:0.8;"/>
   </g>
   <g id="patch_5">
    <path d="M 72 384.48 
L 518.4 384.48 
" style="fill:none;stroke:#000000;stroke-linecap:square;stroke-linejoin:miter;stroke-width:0.8;"/>
   </g>
   <g id="patch_6">
    <path d="M 72 51.84 
L 518.4 51.84 
" style="fill:none;stroke:#000000;stroke-linecap:square;stroke-linejoin:miter;stroke-width:0.8;"/>
   </g>
   <g id="text_23">
    <!-- Estimated vaccine utilisation: first dose utilisation rate: 67.6% -->
    <g transform="translate(108.34125 45.84)scale(0.12 -0.12)">
     <defs>
      <path d="M 628 4666 
L 3578 4666 
L 3578 4134 
L 1259 4134 
L 1259 2753 
L 3481 2753 
L 3481 2222 
L 1259 2222 
L 1259 531 
L 3634 531 
L 3634 0 
L 628 0 
L 628 4666 
z
" id="DejaVuSans-45" transform="scale(0.015625)"/>
      <path d="M 3122 3366 
L 3122 2828 
Q 2878 2963 2633 3030 
Q 2388 3097 2138 3097 
Q 1578 3097 1268 2742 
Q 959 2388 959 1747 
Q 959 1106 1268 751 
Q 1578 397 2138 397 
Q 2388 397 2633 464 
Q 2878 531 3122 666 
L 3122 134 
Q 2881 22 2623 -34 
Q 2366 -91 2075 -91 
Q 1284 -91 818 406 
Q 353 903 353 1747 
Q 353 2603 823 3093 
Q 1294 3584 2113 3584 
Q 2378 3584 2631 3529 
Q 2884 3475 3122 3366 
z
" id="DejaVuSans-63" transform="scale(0.015625)"/>
      <path d="M 750 794 
L 1409 794 
L 1409 0 
L 750 0 
L 750 794 
z
M 750 3309 
L 1409 3309 
L 1409 2516 
L 750 2516 
L 750 3309 
z
" id="DejaVuSans-3a" transform="scale(0.015625)"/>
      <path d="M 2375 4863 
L 2375 4384 
L 1825 4384 
Q 1516 4384 1395 4259 
Q 1275 4134 1275 3809 
L 1275 3500 
L 2222 3500 
L 2222 3053 
L 1275 3053 
L 1275 0 
L 697 0 
L 697 3053 
L 147 3053 
L 147 3500 
L 697 3500 
L 697 3744 
Q 697 4328 969 4595 
Q 1241 4863 1831 4863 
L 2375 4863 
z
" id="DejaVuSans-66" transform="scale(0.015625)"/>
      <path d="M 684 794 
L 1344 794 
L 1344 0 
L 684 0 
L 684 794 
z
" id="DejaVuSans-2e" transform="scale(0.015625)"/>
      <path d="M 4653 2053 
Q 4381 2053 4226 1822 
Q 4072 1591 4072 1178 
Q 4072 772 4226 539 
Q 4381 306 4653 306 
Q 4919 306 5073 539 
Q 5228 772 5228 1178 
Q 5228 1588 5073 1820 
Q 4919 2053 4653 2053 
z
M 4653 2450 
Q 5147 2450 5437 2106 
Q 5728 1763 5728 1178 
Q 5728 594 5436 251 
Q 5144 -91 4653 -91 
Q 4153 -91 3862 251 
Q 3572 594 3572 1178 
Q 3572 1766 3864 2108 
Q 4156 2450 4653 2450 
z
M 1428 4353 
Q 1159 4353 1004 4120 
Q 850 3888 850 3481 
Q 850 3069 1003 2837 
Q 1156 2606 1428 2606 
Q 1700 2606 1854 2837 
Q 2009 3069 2009 3481 
Q 2009 3884 1853 4118 
Q 1697 4353 1428 4353 
z
M 4250 4750 
L 4750 4750 
L 1831 -91 
L 1331 -91 
L 4250 4750 
z
M 1428 4750 
Q 1922 4750 2215 4408 
Q 2509 4066 2509 3481 
Q 2509 2891 2217 2550 
Q 1925 2209 1428 2209 
Q 931 2209 642 2551 
Q 353 2894 353 3481 
Q 353 4063 643 4406 
Q 934 4750 1428 4750 
z
" id="DejaVuSans-25" transform="scale(0.015625)"/>
     </defs>
     <use xlink:href="#DejaVuSans-45"/>
     <use x="63.183594" xlink:href="#DejaVuSans-73"/>
     <use x="115.283203" xlink:href="#DejaVuSans-74"/>
     <use x="154.492188" xlink:href="#DejaVuSans-69"/>
     <use x="182.275391" xlink:href="#DejaVuSans-6d"/>
     <use x="279.6875" xlink:href="#DejaVuSans-61"/>
     <use x="340.966797" xlink:href="#DejaVuSans-74"/>
     <use x="380.175781" xlink:href="#DejaVuSans-65"/>
     <use x="441.699219" xlink:href="#DejaVuSans-64"/>
     <use x="505.175781" xlink:href="#DejaVuSans-20"/>
     <use x="536.962891" xlink:href="#DejaVuSans-76"/>
     <use x="596.142578" xlink:href="#DejaVuSans-61"/>
     <use x="657.421875" xlink:href="#DejaVuSans-63"/>
     <use x="712.402344" xlink:href="#DejaVuSans-63"/>
     <use x="767.382812" xlink:href="#DejaVuSans-69"/>
     <use x="795.166016" xlink:href="#DejaVuSans-6e"/>
     <use x="858.544922" xlink:href="#DejaVuSans-65"/>
     <use x="920.068359" xlink:href="#DejaVuSans-20"/>
     <use x="951.855469" xlink:href="#DejaVuSans-75"/>
     <use x="1015.234375" xlink:href="#DejaVuSans-74"/>
     <use x="1054.443359" xlink:href="#DejaVuSans-69"/>
     <use x="1082.226562" xlink:href="#DejaVuSans-6c"/>
     <use x="1110.009766" xlink:href="#DejaVuSans-69"/>
     <use x="1137.792969" xlink:href="#DejaVuSans-73"/>
     <use x="1189.892578" xlink:href="#DejaVuSans-61"/>
     <use x="1251.171875" xlink:href="#DejaVuSans-74"/>
     <use x="1290.380859" xlink:href="#DejaVuSans-69"/>
     <use x="1318.164062" xlink:href="#DejaVuSans-6f"/>
     <use x="1379.345703" xlink:href="#DejaVuSans-6e"/>
     <use x="1442.724609" xlink:href="#DejaVuSans-3a"/>
     <use x="1476.416016" xlink:href="#DejaVuSans-20"/>
     <use x="1508.203125" xlink:href="#DejaVuSans-66"/>
     <use x="1543.408203" xlink:href="#DejaVuSans-69"/>
     <use x="1571.191406" xlink:href="#DejaVuSans-72"/>
     <use x="1612.304688" xlink:href="#DejaVuSans-73"/>
     <use x="1664.404297" xlink:href="#DejaVuSans-74"/>
     <use x="1703.613281" xlink:href="#DejaVuSans-20"/>
     <use x="1735.400391" xlink:href="#DejaVuSans-64"/>
     <use x="1798.876953" xlink:href="#DejaVuSans-6f"/>
     <use x="1860.058594" xlink:href="#DejaVuSans-73"/>
     <use x="1912.158203" xlink:href="#DejaVuSans-65"/>
     <use x="1973.681641" xlink:href="#DejaVuSans-20"/>
     <use x="2005.46875" xlink:href="#DejaVuSans-75"/>
     <use x="2068.847656" xlink:href="#DejaVuSans-74"/>
     <use x="2108.056641" xlink:href="#DejaVuSans-69"/>
     <use x="2135.839844" xlink:href="#DejaVuSans-6c"/>
     <use x="2163.623047" xlink:href="#DejaVuSans-69"/>
     <use x="2191.40625" xlink:href="#DejaVuSans-73"/>
     <use x="2243.505859" xlink:href="#DejaVuSans-61"/>
     <use x="2304.785156" xlink:href="#DejaVuSans-74"/>
     <use x="2343.994141" xlink:href="#DejaVuSans-69"/>
     <use x="2371.777344" xlink:href="#DejaVuSans-6f"/>
     <use x="2432.958984" xlink:href="#DejaVuSans-6e"/>
     <use x="2496.337891" xlink:href="#DejaVuSans-20"/>
     <use x="2528.125" xlink:href="#DejaVuSans-72"/>
     <use x="2569.238281" xlink:href="#DejaVuSans-61"/>
     <use x="2630.517578" xlink:href="#DejaVuSans-74"/>
     <use x="2669.726562" xlink:href="#DejaVuSans-65"/>
     <use x="2731.25" xlink:href="#DejaVuSans-3a"/>
     <use x="2764.941406" xlink:href="#DejaVuSans-20"/>
     <use x="2796.728516" xlink:href="#DejaVuSans-36"/>
     <use x="2860.351562" xlink:href="#DejaVuSans-37"/>
     <use x="2923.974609" xlink:href="#DejaVuSans-2e"/>
     <use x="2955.761719" xlink:href="#DejaVuSans-36"/>
     <use x="3019.384766" xlink:href="#DejaVuSans-25"/>
    </g>
   </g>
   <g id="legend_1">
    <g id="patch_7">
     <path d="M 77.831 144.092147 
L 251.724956 144.092147 
Q 253.390956 144.092147 253.390956 142.426147 
L 253.390956 57.671 
Q 253.390956 56.005 251.724956 56.005 
L 77.831 56.005 
Q 76.165 56.005 76.165 57.671 
L 76.165 142.426147 
Q 76.165 144.092147 77.831 144.092147 
z
" style="fill:#ffffff;opacity:0.8;stroke:#cccccc;stroke-linejoin:miter;"/>
    </g>
    <g id="patch_8">
     <path d="M 79.497 65.666498 
L 96.157 65.666498 
L 96.157 59.835498 
L 79.497 59.835498 
z
" style="fill:#d62728;"/>
    </g>
    <g id="text_24">
     <!-- Reserved for second doses (2976k) -->
     <g transform="translate(102.821 65.666498)scale(0.0833 -0.0833)">
      <defs>
       <path d="M 2841 2188 
Q 3044 2119 3236 1894 
Q 3428 1669 3622 1275 
L 4263 0 
L 3584 0 
L 2988 1197 
Q 2756 1666 2539 1819 
Q 2322 1972 1947 1972 
L 1259 1972 
L 1259 0 
L 628 0 
L 628 4666 
L 2053 4666 
Q 2853 4666 3247 4331 
Q 3641 3997 3641 3322 
Q 3641 2881 3436 2590 
Q 3231 2300 2841 2188 
z
M 1259 4147 
L 1259 2491 
L 2053 2491 
Q 2509 2491 2742 2702 
Q 2975 2913 2975 3322 
Q 2975 3731 2742 3939 
Q 2509 4147 2053 4147 
L 1259 4147 
z
" id="DejaVuSans-52" transform="scale(0.015625)"/>
       <path d="M 581 4863 
L 1159 4863 
L 1159 1991 
L 2875 3500 
L 3609 3500 
L 1753 1863 
L 3688 0 
L 2938 0 
L 1159 1709 
L 1159 0 
L 581 0 
L 581 4863 
z
" id="DejaVuSans-6b" transform="scale(0.015625)"/>
      </defs>
      <use xlink:href="#DejaVuSans-52"/>
      <use x="64.982422" xlink:href="#DejaVuSans-65"/>
      <use x="126.505859" xlink:href="#DejaVuSans-73"/>
      <use x="178.605469" xlink:href="#DejaVuSans-65"/>
      <use x="240.128906" xlink:href="#DejaVuSans-72"/>
      <use x="281.242188" xlink:href="#DejaVuSans-76"/>
      <use x="340.421875" xlink:href="#DejaVuSans-65"/>
      <use x="401.945312" xlink:href="#DejaVuSans-64"/>
      <use x="465.421875" xlink:href="#DejaVuSans-20"/>
      <use x="497.208984" xlink:href="#DejaVuSans-66"/>
      <use x="532.414062" xlink:href="#DejaVuSans-6f"/>
      <use x="593.595703" xlink:href="#DejaVuSans-72"/>
      <use x="634.708984" xlink:href="#DejaVuSans-20"/>
      <use x="666.496094" xlink:href="#DejaVuSans-73"/>
      <use x="718.595703" xlink:href="#DejaVuSans-65"/>
      <use x="780.119141" xlink:href="#DejaVuSans-63"/>
      <use x="835.099609" xlink:href="#DejaVuSans-6f"/>
      <use x="896.28125" xlink:href="#DejaVuSans-6e"/>
      <use x="959.660156" xlink:href="#DejaVuSans-64"/>
      <use x="1023.136719" xlink:href="#DejaVuSans-20"/>
      <use x="1054.923828" xlink:href="#DejaVuSans-64"/>
      <use x="1118.400391" xlink:href="#DejaVuSans-6f"/>
      <use x="1179.582031" xlink:href="#DejaVuSans-73"/>
      <use x="1231.681641" xlink:href="#DejaVuSans-65"/>
      <use x="1293.205078" xlink:href="#DejaVuSans-73"/>
      <use x="1345.304688" xlink:href="#DejaVuSans-20"/>
      <use x="1377.091797" xlink:href="#DejaVuSans-28"/>
      <use x="1416.105469" xlink:href="#DejaVuSans-32"/>
      <use x="1479.728516" xlink:href="#DejaVuSans-39"/>
      <use x="1543.351562" xlink:href="#DejaVuSans-37"/>
      <use x="1606.974609" xlink:href="#DejaVuSans-36"/>
      <use x="1670.597656" xlink:href="#DejaVuSans-6b"/>
      <use x="1728.507812" xlink:href="#DejaVuSans-29"/>
     </g>
    </g>
    <g id="patch_9">
     <path d="M 79.497 77.893377 
L 96.157 77.893377 
L 96.157 72.062377 
L 79.497 72.062377 
z
" style="fill:#ff7f0e;"/>
    </g>
    <g id="text_25">
     <!-- Administered second doses (681k) -->
     <g transform="translate(102.821 77.893377)scale(0.0833 -0.0833)">
      <use xlink:href="#DejaVuSans-41"/>
      <use x="66.658203" xlink:href="#DejaVuSans-64"/>
      <use x="130.134766" xlink:href="#DejaVuSans-6d"/>
      <use x="227.546875" xlink:href="#DejaVuSans-69"/>
      <use x="255.330078" xlink:href="#DejaVuSans-6e"/>
      <use x="318.708984" xlink:href="#DejaVuSans-69"/>
      <use x="346.492188" xlink:href="#DejaVuSans-73"/>
      <use x="398.591797" xlink:href="#DejaVuSans-74"/>
      <use x="437.800781" xlink:href="#DejaVuSans-65"/>
      <use x="499.324219" xlink:href="#DejaVuSans-72"/>
      <use x="538.1875" xlink:href="#DejaVuSans-65"/>
      <use x="599.710938" xlink:href="#DejaVuSans-64"/>
      <use x="663.1875" xlink:href="#DejaVuSans-20"/>
      <use x="694.974609" xlink:href="#DejaVuSans-73"/>
      <use x="747.074219" xlink:href="#DejaVuSans-65"/>
      <use x="808.597656" xlink:href="#DejaVuSans-63"/>
      <use x="863.578125" xlink:href="#DejaVuSans-6f"/>
      <use x="924.759766" xlink:href="#DejaVuSans-6e"/>
      <use x="988.138672" xlink:href="#DejaVuSans-64"/>
      <use x="1051.615234" xlink:href="#DejaVuSans-20"/>
      <use x="1083.402344" xlink:href="#DejaVuSans-64"/>
      <use x="1146.878906" xlink:href="#DejaVuSans-6f"/>
      <use x="1208.060547" xlink:href="#DejaVuSans-73"/>
      <use x="1260.160156" xlink:href="#DejaVuSans-65"/>
      <use x="1321.683594" xlink:href="#DejaVuSans-73"/>
      <use x="1373.783203" xlink:href="#DejaVuSans-20"/>
      <use x="1405.570312" xlink:href="#DejaVuSans-28"/>
      <use x="1444.583984" xlink:href="#DejaVuSans-36"/>
      <use x="1508.207031" xlink:href="#DejaVuSans-38"/>
      <use x="1571.830078" xlink:href="#DejaVuSans-31"/>
      <use x="1635.453125" xlink:href="#DejaVuSans-6b"/>
      <use x="1693.363281" xlink:href="#DejaVuSans-29"/>
     </g>
    </g>
    <g id="patch_10">
     <path d="M 79.497 90.120255 
L 96.157 90.120255 
L 96.157 84.289255 
L 79.497 84.289255 
z
" style="fill:#2ca02c;"/>
    </g>
    <g id="text_26">
     <!-- Available for first doses (2110k) -->
     <g transform="translate(102.821 90.120255)scale(0.0833 -0.0833)">
      <defs>
       <path d="M 3116 1747 
Q 3116 2381 2855 2742 
Q 2594 3103 2138 3103 
Q 1681 3103 1420 2742 
Q 1159 2381 1159 1747 
Q 1159 1113 1420 752 
Q 1681 391 2138 391 
Q 2594 391 2855 752 
Q 3116 1113 3116 1747 
z
M 1159 2969 
Q 1341 3281 1617 3432 
Q 1894 3584 2278 3584 
Q 2916 3584 3314 3078 
Q 3713 2572 3713 1747 
Q 3713 922 3314 415 
Q 2916 -91 2278 -91 
Q 1894 -91 1617 61 
Q 1341 213 1159 525 
L 1159 0 
L 581 0 
L 581 4863 
L 1159 4863 
L 1159 2969 
z
" id="DejaVuSans-62" transform="scale(0.015625)"/>
      </defs>
      <use xlink:href="#DejaVuSans-41"/>
      <use x="62.533203" xlink:href="#DejaVuSans-76"/>
      <use x="121.712891" xlink:href="#DejaVuSans-61"/>
      <use x="182.992188" xlink:href="#DejaVuSans-69"/>
      <use x="210.775391" xlink:href="#DejaVuSans-6c"/>
      <use x="238.558594" xlink:href="#DejaVuSans-61"/>
      <use x="299.837891" xlink:href="#DejaVuSans-62"/>
      <use x="363.314453" xlink:href="#DejaVuSans-6c"/>
      <use x="391.097656" xlink:href="#DejaVuSans-65"/>
      <use x="452.621094" xlink:href="#DejaVuSans-20"/>
      <use x="484.408203" xlink:href="#DejaVuSans-66"/>
      <use x="519.613281" xlink:href="#DejaVuSans-6f"/>
      <use x="580.794922" xlink:href="#DejaVuSans-72"/>
      <use x="621.908203" xlink:href="#DejaVuSans-20"/>
      <use x="653.695312" xlink:href="#DejaVuSans-66"/>
      <use x="688.900391" xlink:href="#DejaVuSans-69"/>
      <use x="716.683594" xlink:href="#DejaVuSans-72"/>
      <use x="757.796875" xlink:href="#DejaVuSans-73"/>
      <use x="809.896484" xlink:href="#DejaVuSans-74"/>
      <use x="849.105469" xlink:href="#DejaVuSans-20"/>
      <use x="880.892578" xlink:href="#DejaVuSans-64"/>
      <use x="944.369141" xlink:href="#DejaVuSans-6f"/>
      <use x="1005.550781" xlink:href="#DejaVuSans-73"/>
      <use x="1057.650391" xlink:href="#DejaVuSans-65"/>
      <use x="1119.173828" xlink:href="#DejaVuSans-73"/>
      <use x="1171.273438" xlink:href="#DejaVuSans-20"/>
      <use x="1203.060547" xlink:href="#DejaVuSans-28"/>
      <use x="1242.074219" xlink:href="#DejaVuSans-32"/>
      <use x="1305.697266" xlink:href="#DejaVuSans-31"/>
      <use x="1369.320312" xlink:href="#DejaVuSans-31"/>
      <use x="1432.943359" xlink:href="#DejaVuSans-30"/>
      <use x="1496.566406" xlink:href="#DejaVuSans-6b"/>
      <use x="1554.476562" xlink:href="#DejaVuSans-29"/>
     </g>
    </g>
    <g id="patch_11">
     <path d="M 79.497 102.347133 
L 96.157 102.347133 
L 96.157 96.516133 
L 79.497 96.516133 
z
" style="fill:#1f77b4;"/>
    </g>
    <g id="text_27">
     <!-- Administered first doses (4405k) -->
     <g transform="translate(102.821 102.347133)scale(0.0833 -0.0833)">
      <use xlink:href="#DejaVuSans-41"/>
      <use x="66.658203" xlink:href="#DejaVuSans-64"/>
      <use x="130.134766" xlink:href="#DejaVuSans-6d"/>
      <use x="227.546875" xlink:href="#DejaVuSans-69"/>
      <use x="255.330078" xlink:href="#DejaVuSans-6e"/>
      <use x="318.708984" xlink:href="#DejaVuSans-69"/>
      <use x="346.492188" xlink:href="#DejaVuSans-73"/>
      <use x="398.591797" xlink:href="#DejaVuSans-74"/>
      <use x="437.800781" xlink:href="#DejaVuSans-65"/>
      <use x="499.324219" xlink:href="#DejaVuSans-72"/>
      <use x="538.1875" xlink:href="#DejaVuSans-65"/>
      <use x="599.710938" xlink:href="#DejaVuSans-64"/>
      <use x="663.1875" xlink:href="#DejaVuSans-20"/>
      <use x="694.974609" xlink:href="#DejaVuSans-66"/>
      <use x="730.179688" xlink:href="#DejaVuSans-69"/>
      <use x="757.962891" xlink:href="#DejaVuSans-72"/>
      <use x="799.076172" xlink:href="#DejaVuSans-73"/>
      <use x="851.175781" xlink:href="#DejaVuSans-74"/>
      <use x="890.384766" xlink:href="#DejaVuSans-20"/>
      <use x="922.171875" xlink:href="#DejaVuSans-64"/>
      <use x="985.648438" xlink:href="#DejaVuSans-6f"/>
      <use x="1046.830078" xlink:href="#DejaVuSans-73"/>
      <use x="1098.929688" xlink:href="#DejaVuSans-65"/>
      <use x="1160.453125" xlink:href="#DejaVuSans-73"/>
      <use x="1212.552734" xlink:href="#DejaVuSans-20"/>
      <use x="1244.339844" xlink:href="#DejaVuSans-28"/>
      <use x="1283.353516" xlink:href="#DejaVuSans-34"/>
      <use x="1346.976562" xlink:href="#DejaVuSans-34"/>
      <use x="1410.599609" xlink:href="#DejaVuSans-30"/>
      <use x="1474.222656" xlink:href="#DejaVuSans-35"/>
      <use x="1537.845703" xlink:href="#DejaVuSans-6b"/>
      <use x="1595.755859" xlink:href="#DejaVuSans-29"/>
     </g>
    </g>
    <g id="patch_12">
     <path d="M 79.497 114.574011 
L 96.157 114.574011 
L 96.157 108.743011 
L 79.497 108.743011 
z
" style="fill:#ff0000;opacity:0.35;"/>
    </g>
    <g id="text_28">
     <!-- Phase 1a -->
     <g transform="translate(102.821 114.574011)scale(0.0833 -0.0833)">
      <defs>
       <path d="M 1259 4147 
L 1259 2394 
L 2053 2394 
Q 2494 2394 2734 2622 
Q 2975 2850 2975 3272 
Q 2975 3691 2734 3919 
Q 2494 4147 2053 4147 
L 1259 4147 
z
M 628 4666 
L 2053 4666 
Q 2838 4666 3239 4311 
Q 3641 3956 3641 3272 
Q 3641 2581 3239 2228 
Q 2838 1875 2053 1875 
L 1259 1875 
L 1259 0 
L 628 0 
L 628 4666 
z
" id="DejaVuSans-50" transform="scale(0.015625)"/>
       <path d="M 3513 2113 
L 3513 0 
L 2938 0 
L 2938 2094 
Q 2938 2591 2744 2837 
Q 2550 3084 2163 3084 
Q 1697 3084 1428 2787 
Q 1159 2491 1159 1978 
L 1159 0 
L 581 0 
L 581 4863 
L 1159 4863 
L 1159 2956 
Q 1366 3272 1645 3428 
Q 1925 3584 2291 3584 
Q 2894 3584 3203 3211 
Q 3513 2838 3513 2113 
z
" id="DejaVuSans-68" transform="scale(0.015625)"/>
      </defs>
      <use xlink:href="#DejaVuSans-50"/>
      <use x="60.302734" xlink:href="#DejaVuSans-68"/>
      <use x="123.681641" xlink:href="#DejaVuSans-61"/>
      <use x="184.960938" xlink:href="#DejaVuSans-73"/>
      <use x="237.060547" xlink:href="#DejaVuSans-65"/>
      <use x="298.583984" xlink:href="#DejaVuSans-20"/>
      <use x="330.371094" xlink:href="#DejaVuSans-31"/>
      <use x="393.994141" xlink:href="#DejaVuSans-61"/>
     </g>
    </g>
    <g id="patch_13">
     <path d="M 79.497 126.800889 
L 96.157 126.800889 
L 96.157 120.969889 
L 79.497 120.969889 
z
" style="fill:#ffa500;opacity:0.35;"/>
    </g>
    <g id="text_29">
     <!-- Phase 1b -->
     <g transform="translate(102.821 126.800889)scale(0.0833 -0.0833)">
      <use xlink:href="#DejaVuSans-50"/>
      <use x="60.302734" xlink:href="#DejaVuSans-68"/>
      <use x="123.681641" xlink:href="#DejaVuSans-61"/>
      <use x="184.960938" xlink:href="#DejaVuSans-73"/>
      <use x="237.060547" xlink:href="#DejaVuSans-65"/>
      <use x="298.583984" xlink:href="#DejaVuSans-20"/>
      <use x="330.371094" xlink:href="#DejaVuSans-31"/>
      <use x="393.994141" xlink:href="#DejaVuSans-62"/>
     </g>
    </g>
    <g id="patch_14">
     <path d="M 79.497 139.027767 
L 96.157 139.027767 
L 96.157 133.196767 
L 79.497 133.196767 
z
" style="fill:#ffff00;opacity:0.35;"/>
    </g>
    <g id="text_30">
     <!-- Phase 2a -->
     <g transform="translate(102.821 139.027767)scale(0.0833 -0.0833)">
      <use xlink:href="#DejaVuSans-50"/>
      <use x="60.302734" xlink:href="#DejaVuSans-68"/>
      <use x="123.681641" xlink:href="#DejaVuSans-61"/>
      <use x="184.960938" xlink:href="#DejaVuSans-73"/>
      <use x="237.060547" xlink:href="#DejaVuSans-65"/>
      <use x="298.583984" xlink:href="#DejaVuSans-20"/>
      <use x="330.371094" xlink:href="#DejaVuSans-32"/>
      <use x="393.994141" xlink:href="#DejaVuSans-61"/>
     </g>
    </g>
   </g>
  </g>
 </g>
 <defs>
  <clipPath id="pf830a78d30">
   <rect height="332.64" width="446.4" x="72" y="51.84"/>
  </clipPath>
 </defs>
</svg>
