<?xml version="1.0" encoding="utf-8" standalone="no"?>
<!DOCTYPE svg PUBLIC "-//W3C//DTD SVG 1.1//EN"
  "http://www.w3.org/Graphics/SVG/1.1/DTD/svg11.dtd">
<svg height="432pt" version="1.1" viewBox="0 0 576 432" width="576pt" xmlns="http://www.w3.org/2000/svg" xmlns:xlink="http://www.w3.org/1999/xlink">
 <metadata>
  <rdf:RDF xmlns:cc="http://creativecommons.org/ns#" xmlns:dc="http://purl.org/dc/elements/1.1/" xmlns:rdf="http://www.w3.org/1999/02/22-rdf-syntax-ns#">
   <cc:Work>
    <dc:type rdf:resource="http://purl.org/dc/dcmitype/StillImage"/>
    <dc:date>2021-06-06T21:37:13.252435</dc:date>
    <dc:format>image/svg+xml</dc:format>
    <dc:creator>
     <cc:Agent>
      <dc:title>Matplotlib v3.4.1, https://matplotlib.org/</dc:title>
     </cc:Agent>
    </dc:creator>
   </cc:Work>
  </rdf:RDF>
 </metadata>
 <defs>
  <style type="text/css">*{stroke-linecap:butt;stroke-linejoin:round;}</style>
 </defs>
 <g id="figure_1">
  <g id="patch_1">
   <path d="M 0 432 
L 576 432 
L 576 0 
L 0 0 
z
" style="fill:#ffffff;"/>
  </g>
  <g id="axes_1">
   <g id="patch_2">
    <path d="M 72 384.48 
L 518.4 384.48 
L 518.4 51.84 
L 72 51.84 
z
" style="fill:#ffffff;"/>
   </g>
   <g id="PolyCollection_1">
    <defs>
     <path d="M 153.694118 -47.52 
L 69.082353 -47.52 
L 69.082353 -380.16 
L 153.694118 -380.16 
L 153.694118 -380.16 
L 153.694118 -47.52 
z
" id="m437cbf924d"/>
    </defs>
    <g clip-path="url(#pb5f7bb3821)">
     <use style="fill:#ff0000;fill-opacity:0.35;" x="0" xlink:href="#m437cbf924d" y="432"/>
    </g>
   </g>
   <g id="PolyCollection_2">
    <defs>
     <path d="M 276.235294 -47.52 
L 153.694118 -47.52 
L 153.694118 -380.16 
L 276.235294 -380.16 
L 276.235294 -380.16 
L 276.235294 -47.52 
z
" id="md666da8c89"/>
    </defs>
    <g clip-path="url(#pb5f7bb3821)">
     <use style="fill:#ffa500;fill-opacity:0.35;" x="0" xlink:href="#md666da8c89" y="432"/>
    </g>
   </g>
   <g id="PolyCollection_3">
    <defs>
     <path d="M 430.870588 -47.52 
L 276.235294 -47.52 
L 276.235294 -380.16 
L 430.870588 -380.16 
L 430.870588 -380.16 
L 430.870588 -47.52 
z
" id="m41d6999422"/>
    </defs>
    <g clip-path="url(#pb5f7bb3821)">
     <use style="fill:#ffff00;fill-opacity:0.35;" x="0" xlink:href="#m41d6999422" y="432"/>
    </g>
   </g>
   <g id="PolyCollection_4">
    <defs>
     <path d="M 433.788235 -47.52 
L 430.870588 -47.52 
L 430.870588 -380.16 
L 433.788235 -380.16 
L 433.788235 -380.16 
L 433.788235 -47.52 
z
" id="mf104d899a7"/>
    </defs>
    <g clip-path="url(#pb5f7bb3821)">
     <use style="fill:#ffff00;fill-opacity:0.3;" x="0" xlink:href="#mf104d899a7" y="432"/>
    </g>
   </g>
   <g id="PolyCollection_5">
    <defs>
     <path d="M 436.705882 -47.52 
L 433.788235 -47.52 
L 433.788235 -380.16 
L 436.705882 -380.16 
L 436.705882 -380.16 
L 436.705882 -47.52 
z
" id="m001cf16d3e"/>
    </defs>
    <g clip-path="url(#pb5f7bb3821)">
     <use style="fill:#ffff00;fill-opacity:0.27;" x="0" xlink:href="#m001cf16d3e" y="432"/>
    </g>
   </g>
   <g id="PolyCollection_6">
    <defs>
     <path d="M 439.623529 -47.52 
L 436.705882 -47.52 
L 436.705882 -380.16 
L 439.623529 -380.16 
L 439.623529 -380.16 
L 439.623529 -47.52 
z
" id="m3b476f4105"/>
    </defs>
    <g clip-path="url(#pb5f7bb3821)">
     <use style="fill:#ffff00;fill-opacity:0.24;" x="0" xlink:href="#m3b476f4105" y="432"/>
    </g>
   </g>
   <g id="PolyCollection_7">
    <defs>
     <path d="M 442.541176 -47.52 
L 439.623529 -47.52 
L 439.623529 -380.16 
L 442.541176 -380.16 
L 442.541176 -380.16 
L 442.541176 -47.52 
z
" id="m23dcdcfcc5"/>
    </defs>
    <g clip-path="url(#pb5f7bb3821)">
     <use style="fill:#ffff00;fill-opacity:0.21;" x="0" xlink:href="#m23dcdcfcc5" y="432"/>
    </g>
   </g>
   <g id="PolyCollection_8">
    <defs>
     <path d="M 445.458824 -47.52 
L 442.541176 -47.52 
L 442.541176 -380.16 
L 445.458824 -380.16 
L 445.458824 -380.16 
L 445.458824 -47.52 
z
" id="m5b0c5d28fd"/>
    </defs>
    <g clip-path="url(#pb5f7bb3821)">
     <use style="fill:#ffff00;fill-opacity:0.18;" x="0" xlink:href="#m5b0c5d28fd" y="432"/>
    </g>
   </g>
   <g id="PolyCollection_9">
    <defs>
     <path d="M 448.376471 -47.52 
L 445.458824 -47.52 
L 445.458824 -380.16 
L 448.376471 -380.16 
L 448.376471 -380.16 
L 448.376471 -47.52 
z
" id="me30c4e8fc3"/>
    </defs>
    <g clip-path="url(#pb5f7bb3821)">
     <use style="fill:#ffff00;fill-opacity:0.15;" x="0" xlink:href="#me30c4e8fc3" y="432"/>
    </g>
   </g>
   <g id="PolyCollection_10">
    <defs>
     <path d="M 451.294118 -47.52 
L 448.376471 -47.52 
L 448.376471 -380.16 
L 451.294118 -380.16 
L 451.294118 -380.16 
L 451.294118 -47.52 
z
" id="mefe594b33a"/>
    </defs>
    <g clip-path="url(#pb5f7bb3821)">
     <use style="fill:#ffff00;fill-opacity:0.12;" x="0" xlink:href="#mefe594b33a" y="432"/>
    </g>
   </g>
   <g id="PolyCollection_11">
    <defs>
     <path d="M 454.211765 -47.52 
L 451.294118 -47.52 
L 451.294118 -380.16 
L 454.211765 -380.16 
L 454.211765 -380.16 
L 454.211765 -47.52 
z
" id="m132393c38a"/>
    </defs>
    <g clip-path="url(#pb5f7bb3821)">
     <use style="fill:#ffff00;fill-opacity:0.09;" x="0" xlink:href="#m132393c38a" y="432"/>
    </g>
   </g>
   <g id="PolyCollection_12">
    <defs>
     <path d="M 457.129412 -47.52 
L 454.211765 -47.52 
L 454.211765 -380.16 
L 457.129412 -380.16 
L 457.129412 -380.16 
L 457.129412 -47.52 
z
" id="m3a79486f34"/>
    </defs>
    <g clip-path="url(#pb5f7bb3821)">
     <use style="fill:#ffff00;fill-opacity:0.06;" x="0" xlink:href="#m3a79486f34" y="432"/>
    </g>
   </g>
   <g id="PolyCollection_13">
    <defs>
     <path d="M 460.047059 -47.52 
L 457.129412 -47.52 
L 457.129412 -380.16 
L 460.047059 -380.16 
L 460.047059 -380.16 
L 460.047059 -47.52 
z
" id="mad18a4bbdd"/>
    </defs>
    <g clip-path="url(#pb5f7bb3821)">
     <use style="fill:#ffff00;fill-opacity:0.03;" x="0" xlink:href="#mad18a4bbdd" y="432"/>
    </g>
   </g>
   <g id="PolyCollection_14">
    <defs>
     <path d="M 72 -47.520665 
L 72 -47.52 
L 72 -47.52 
L 74.917647 -47.52 
L 74.917647 -47.52 
L 77.835294 -47.52 
L 77.835294 -47.52 
L 80.752941 -47.52 
L 80.752941 -47.52 
L 83.670588 -47.52 
L 83.670588 -47.52 
L 86.588235 -47.52 
L 86.588235 -47.52 
L 89.505882 -47.52 
L 89.505882 -47.52 
L 92.423529 -47.52 
L 92.423529 -47.52 
L 95.341176 -47.52 
L 95.341176 -47.52 
L 98.258824 -47.52 
L 98.258824 -47.52 
L 101.176471 -47.52 
L 101.176471 -47.52 
L 104.094118 -47.52 
L 104.094118 -47.52 
L 107.011765 -47.52 
L 107.011765 -47.52 
L 109.929412 -47.52 
L 109.929412 -47.52 
L 112.847059 -47.52 
L 112.847059 -47.52 
L 115.764706 -47.52 
L 115.764706 -47.52 
L 118.682353 -47.52 
L 118.682353 -47.52 
L 121.6 -47.52 
L 121.6 -47.52 
L 124.517647 -47.52 
L 124.517647 -47.52 
L 127.435294 -47.52 
L 127.435294 -47.52 
L 130.352941 -47.52 
L 130.352941 -47.52 
L 133.270588 -47.52 
L 133.270588 -47.52 
L 136.188235 -47.52 
L 136.188235 -47.52 
L 139.105882 -47.52 
L 139.105882 -47.52 
L 142.023529 -47.52 
L 142.023529 -47.52 
L 144.941176 -47.52 
L 144.941176 -47.52 
L 147.858824 -47.52 
L 147.858824 -47.52 
L 150.776471 -47.52 
L 150.776471 -47.52 
L 153.694118 -47.52 
L 153.694118 -47.52 
L 156.611765 -47.52 
L 156.611765 -47.52 
L 159.529412 -47.52 
L 159.529412 -47.52 
L 162.447059 -47.52 
L 162.447059 -47.52 
L 165.364706 -47.52 
L 165.364706 -47.52 
L 168.282353 -47.52 
L 168.282353 -47.52 
L 171.2 -47.52 
L 171.2 -47.52 
L 174.117647 -47.52 
L 174.117647 -47.52 
L 177.035294 -47.52 
L 177.035294 -47.52 
L 179.952941 -47.52 
L 179.952941 -47.52 
L 182.870588 -47.52 
L 182.870588 -47.52 
L 185.788235 -47.52 
L 185.788235 -47.52 
L 188.705882 -47.52 
L 188.705882 -47.52 
L 191.623529 -47.52 
L 191.623529 -47.52 
L 194.541176 -47.52 
L 194.541176 -47.52 
L 197.458824 -47.52 
L 197.458824 -47.52 
L 200.376471 -47.52 
L 200.376471 -47.52 
L 203.294118 -47.52 
L 203.294118 -47.52 
L 206.211765 -47.52 
L 206.211765 -47.52 
L 209.129412 -47.52 
L 209.129412 -47.52 
L 212.047059 -47.52 
L 212.047059 -47.52 
L 214.964706 -47.52 
L 214.964706 -47.52 
L 217.882353 -47.52 
L 217.882353 -47.52 
L 220.8 -47.52 
L 220.8 -47.52 
L 223.717647 -47.52 
L 223.717647 -47.52 
L 226.635294 -47.52 
L 226.635294 -47.52 
L 229.552941 -47.52 
L 229.552941 -47.52 
L 232.470588 -47.52 
L 232.470588 -47.52 
L 235.388235 -47.52 
L 235.388235 -47.52 
L 238.305882 -47.52 
L 238.305882 -47.52 
L 241.223529 -47.52 
L 241.223529 -47.52 
L 244.141176 -47.52 
L 244.141176 -47.52 
L 247.058824 -47.52 
L 247.058824 -47.52 
L 249.976471 -47.52 
L 249.976471 -47.52 
L 252.894118 -47.52 
L 252.894118 -47.52 
L 255.811765 -47.52 
L 255.811765 -47.52 
L 258.729412 -47.52 
L 258.729412 -47.52 
L 261.647059 -47.52 
L 261.647059 -47.52 
L 264.564706 -47.52 
L 264.564706 -47.52 
L 267.482353 -47.52 
L 267.482353 -47.52 
L 270.4 -47.52 
L 270.4 -47.52 
L 273.317647 -47.52 
L 273.317647 -47.52 
L 276.235294 -47.52 
L 276.235294 -47.52 
L 279.152941 -47.52 
L 279.152941 -47.52 
L 282.070588 -47.52 
L 282.070588 -47.52 
L 284.988235 -47.52 
L 284.988235 -47.52 
L 287.905882 -47.52 
L 287.905882 -47.52 
L 290.823529 -47.52 
L 290.823529 -47.52 
L 293.741176 -47.52 
L 293.741176 -47.52 
L 296.658824 -47.52 
L 296.658824 -47.52 
L 299.576471 -47.52 
L 299.576471 -47.52 
L 302.494118 -47.52 
L 302.494118 -47.52 
L 305.411765 -47.52 
L 305.411765 -47.52 
L 308.329412 -47.52 
L 308.329412 -47.52 
L 311.247059 -47.52 
L 311.247059 -47.52 
L 314.164706 -47.52 
L 314.164706 -47.52 
L 317.082353 -47.52 
L 317.082353 -47.52 
L 320 -47.52 
L 320 -47.52 
L 322.917647 -47.52 
L 322.917647 -47.52 
L 325.835294 -47.52 
L 325.835294 -47.52 
L 328.752941 -47.52 
L 328.752941 -47.52 
L 331.670588 -47.52 
L 331.670588 -47.52 
L 334.588235 -47.52 
L 334.588235 -47.52 
L 337.505882 -47.52 
L 337.505882 -47.52 
L 340.423529 -47.52 
L 340.423529 -47.52 
L 343.341176 -47.52 
L 343.341176 -47.52 
L 346.258824 -47.52 
L 346.258824 -47.52 
L 349.176471 -47.52 
L 349.176471 -47.52 
L 352.094118 -47.52 
L 352.094118 -47.52 
L 355.011765 -47.52 
L 355.011765 -47.52 
L 357.929412 -47.52 
L 357.929412 -47.52 
L 360.847059 -47.52 
L 360.847059 -47.52 
L 363.764706 -47.52 
L 363.764706 -47.52 
L 366.682353 -47.52 
L 366.682353 -47.52 
L 369.6 -47.52 
L 369.6 -47.52 
L 372.517647 -47.52 
L 372.517647 -47.52 
L 375.435294 -47.52 
L 375.435294 -189.650643 
L 375.435294 -189.650643 
L 372.517647 -189.650643 
L 372.517647 -186.988728 
L 369.6 -186.988728 
L 369.6 -183.220188 
L 366.682353 -183.220188 
L 366.682353 -179.213846 
L 363.764706 -179.213846 
L 363.764706 -175.414146 
L 360.847059 -175.414146 
L 360.847059 -171.523047 
L 357.929412 -171.523047 
L 357.929412 -168.192064 
L 355.011765 -168.192064 
L 355.011765 -167.13014 
L 352.094118 -167.13014 
L 352.094118 -165.295616 
L 349.176471 -165.295616 
L 349.176471 -161.68496 
L 346.258824 -161.68496 
L 346.258824 -158.010338 
L 343.341176 -158.010338 
L 343.341176 -154.758444 
L 340.423529 -154.758444 
L 340.423529 -151.745173 
L 337.505882 -151.745173 
L 337.505882 -149.177792 
L 334.588235 -149.177792 
L 334.588235 -148.78051 
L 331.670588 -148.78051 
L 331.670588 -147.680739 
L 328.752941 -147.680739 
L 328.752941 -145.16461 
L 325.835294 -145.16461 
L 325.835294 -142.348372 
L 322.917647 -142.348372 
L 322.917647 -139.98766 
L 320 -139.98766 
L 320 -137.329818 
L 317.082353 -137.329818 
L 317.082353 -134.894524 
L 314.164706 -134.894524 
L 314.164706 -134.566519 
L 311.247059 -134.566519 
L 311.247059 -133.655787 
L 308.329412 -133.655787 
L 308.329412 -131.693631 
L 305.411765 -131.693631 
L 305.411765 -129.368625 
L 302.494118 -129.368625 
L 302.494118 -127.151656 
L 299.576471 -127.151656 
L 299.576471 -125.10365 
L 296.658824 -125.10365 
L 296.658824 -123.219774 
L 293.741176 -123.219774 
L 293.741176 -123.728906 
L 290.823529 -123.728906 
L 290.823529 -122.92656 
L 287.905882 -122.92656 
L 287.905882 -120.647582 
L 284.988235 -120.647582 
L 284.988235 -118.135205 
L 282.070588 -118.135205 
L 282.070588 -115.75797 
L 279.152941 -115.75797 
L 279.152941 -113.303349 
L 276.235294 -113.303349 
L 276.235294 -111.620524 
L 273.317647 -111.620524 
L 273.317647 -111.420666 
L 270.4 -111.420666 
L 270.4 -110.957094 
L 267.482353 -110.957094 
L 267.482353 -109.486596 
L 264.564706 -109.486596 
L 264.564706 -107.752818 
L 261.647059 -107.752818 
L 261.647059 -105.448688 
L 258.729412 -105.448688 
L 258.729412 -103.804763 
L 255.811765 -103.804763 
L 255.811765 -102.755423 
L 252.894118 -102.755423 
L 252.894118 -102.640522 
L 249.976471 -102.640522 
L 249.976471 -102.060947 
L 247.058824 -102.060947 
L 247.058824 -100.0744 
L 244.141176 -100.0744 
L 244.141176 -98.225247 
L 241.223529 -98.225247 
L 241.223529 -96.415686 
L 238.305882 -96.415686 
L 238.305882 -94.701665 
L 235.388235 -94.701665 
L 235.388235 -92.820861 
L 232.470588 -92.820861 
L 232.470588 -90.021537 
L 229.552941 -90.021537 
L 229.552941 -89.284431 
L 226.635294 -89.284431 
L 226.635294 -87.899747 
L 223.717647 -87.899747 
L 223.717647 -86.281012 
L 220.8 -86.281012 
L 220.8 -84.580738 
L 217.882353 -84.580738 
L 217.882353 -82.938547 
L 214.964706 -82.938547 
L 214.964706 -81.233922 
L 212.047059 -81.233922 
L 212.047059 -81.076362 
L 209.129412 -81.076362 
L 209.129412 -80.181406 
L 206.211765 -80.181406 
L 206.211765 -78.306051 
L 203.294118 -78.306051 
L 203.294118 -75.747012 
L 200.376471 -75.747012 
L 200.376471 -73.469317 
L 197.458824 -73.469317 
L 197.458824 -71.645802 
L 194.541176 -71.645802 
L 194.541176 -71.594042 
L 191.623529 -71.594042 
L 191.623529 -71.601852 
L 188.705882 -71.601852 
L 188.705882 -71.161208 
L 185.788235 -71.161208 
L 185.788235 -71.376692 
L 182.870588 -71.376692 
L 182.870588 -68.896169 
L 179.952941 -68.896169 
L 179.952941 -66.727009 
L 177.035294 -66.727009 
L 177.035294 -64.479718 
L 174.117647 -64.479718 
L 174.117647 -62.757332 
L 171.2 -62.757332 
L 171.2 -61.829341 
L 168.282353 -61.829341 
L 168.282353 -61.80772 
L 165.364706 -61.80772 
L 165.364706 -60.436012 
L 162.447059 -60.436012 
L 162.447059 -59.07598 
L 159.529412 -59.07598 
L 159.529412 -57.646027 
L 156.611765 -57.646027 
L 156.611765 -56.355517 
L 153.694118 -56.355517 
L 153.694118 -55.785505 
L 150.776471 -55.785505 
L 150.776471 -55.008558 
L 147.858824 -55.008558 
L 147.858824 -54.965514 
L 144.941176 -54.965514 
L 144.941176 -54.696841 
L 142.023529 -54.696841 
L 142.023529 -54.45744 
L 139.105882 -54.45744 
L 139.105882 -54.061332 
L 136.188235 -54.061332 
L 136.188235 -53.492817 
L 133.270588 -53.492817 
L 133.270588 -53.00061 
L 130.352941 -53.00061 
L 130.352941 -52.927096 
L 127.435294 -52.927096 
L 127.435294 -52.818756 
L 124.517647 -52.818756 
L 124.517647 -52.014066 
L 121.6 -52.014066 
L 121.6 -51.678 
L 118.682353 -51.678 
L 118.682353 -51.052637 
L 115.764706 -51.052637 
L 115.764706 -50.67702 
L 112.847059 -50.67702 
L 112.847059 -50.392978 
L 109.929412 -50.392978 
L 109.929412 -50.22586 
L 107.011765 -50.22586 
L 107.011765 -50.079332 
L 104.094118 -50.079332 
L 104.094118 -49.910584 
L 101.176471 -49.910584 
L 101.176471 -49.54937 
L 98.258824 -49.54937 
L 98.258824 -49.211142 
L 95.341176 -49.211142 
L 95.341176 -48.913994 
L 92.423529 -48.913994 
L 92.423529 -48.641063 
L 89.505882 -48.641063 
L 89.505882 -48.580922 
L 86.588235 -48.580922 
L 86.588235 -48.51792 
L 83.670588 -48.51792 
L 83.670588 -48.3516 
L 80.752941 -48.3516 
L 80.752941 -48.10212 
L 77.835294 -48.10212 
L 77.835294 -47.749788 
L 74.917647 -47.749788 
L 74.917647 -47.615767 
L 72 -47.615767 
L 72 -47.520665 
z
" id="me7946624d2"/>
    </defs>
    <g clip-path="url(#pb5f7bb3821)">
     <use style="fill:#1f77b4;" x="0" xlink:href="#me7946624d2" y="432"/>
    </g>
   </g>
   <g id="PolyCollection_15">
    <defs>
     <path d="M 72 -49.64557 
L 72 -47.520665 
L 72 -47.615767 
L 74.917647 -47.615767 
L 74.917647 -47.749788 
L 77.835294 -47.749788 
L 77.835294 -48.10212 
L 80.752941 -48.10212 
L 80.752941 -48.3516 
L 83.670588 -48.3516 
L 83.670588 -48.51792 
L 86.588235 -48.51792 
L 86.588235 -48.580922 
L 89.505882 -48.580922 
L 89.505882 -48.641063 
L 92.423529 -48.641063 
L 92.423529 -48.913994 
L 95.341176 -48.913994 
L 95.341176 -49.211142 
L 98.258824 -49.211142 
L 98.258824 -49.54937 
L 101.176471 -49.54937 
L 101.176471 -49.910584 
L 104.094118 -49.910584 
L 104.094118 -50.079332 
L 107.011765 -50.079332 
L 107.011765 -50.22586 
L 109.929412 -50.22586 
L 109.929412 -50.392978 
L 112.847059 -50.392978 
L 112.847059 -50.67702 
L 115.764706 -50.67702 
L 115.764706 -51.052637 
L 118.682353 -51.052637 
L 118.682353 -51.678 
L 121.6 -51.678 
L 121.6 -52.014066 
L 124.517647 -52.014066 
L 124.517647 -52.818756 
L 127.435294 -52.818756 
L 127.435294 -52.927096 
L 130.352941 -52.927096 
L 130.352941 -53.00061 
L 133.270588 -53.00061 
L 133.270588 -53.492817 
L 136.188235 -53.492817 
L 136.188235 -54.061332 
L 139.105882 -54.061332 
L 139.105882 -54.45744 
L 142.023529 -54.45744 
L 142.023529 -54.696841 
L 144.941176 -54.696841 
L 144.941176 -54.965514 
L 147.858824 -54.965514 
L 147.858824 -55.008558 
L 150.776471 -55.008558 
L 150.776471 -55.785505 
L 153.694118 -55.785505 
L 153.694118 -56.355517 
L 156.611765 -56.355517 
L 156.611765 -57.646027 
L 159.529412 -57.646027 
L 159.529412 -59.07598 
L 162.447059 -59.07598 
L 162.447059 -60.436012 
L 165.364706 -60.436012 
L 165.364706 -61.80772 
L 168.282353 -61.80772 
L 168.282353 -61.829341 
L 171.2 -61.829341 
L 171.2 -62.757332 
L 174.117647 -62.757332 
L 174.117647 -64.479718 
L 177.035294 -64.479718 
L 177.035294 -66.727009 
L 179.952941 -66.727009 
L 179.952941 -68.896169 
L 182.870588 -68.896169 
L 182.870588 -71.376692 
L 185.788235 -71.376692 
L 185.788235 -71.161208 
L 188.705882 -71.161208 
L 188.705882 -71.601852 
L 191.623529 -71.601852 
L 191.623529 -71.594042 
L 194.541176 -71.594042 
L 194.541176 -71.645802 
L 197.458824 -71.645802 
L 197.458824 -73.469317 
L 200.376471 -73.469317 
L 200.376471 -75.747012 
L 203.294118 -75.747012 
L 203.294118 -78.306051 
L 206.211765 -78.306051 
L 206.211765 -80.181406 
L 209.129412 -80.181406 
L 209.129412 -81.076362 
L 212.047059 -81.076362 
L 212.047059 -81.233922 
L 214.964706 -81.233922 
L 214.964706 -82.938547 
L 217.882353 -82.938547 
L 217.882353 -84.580738 
L 220.8 -84.580738 
L 220.8 -86.281012 
L 223.717647 -86.281012 
L 223.717647 -87.899747 
L 226.635294 -87.899747 
L 226.635294 -89.284431 
L 229.552941 -89.284431 
L 229.552941 -90.021537 
L 232.470588 -90.021537 
L 232.470588 -92.820861 
L 235.388235 -92.820861 
L 235.388235 -94.701665 
L 238.305882 -94.701665 
L 238.305882 -96.415686 
L 241.223529 -96.415686 
L 241.223529 -98.225247 
L 244.141176 -98.225247 
L 244.141176 -100.0744 
L 247.058824 -100.0744 
L 247.058824 -102.060947 
L 249.976471 -102.060947 
L 249.976471 -102.640522 
L 252.894118 -102.640522 
L 252.894118 -102.755423 
L 255.811765 -102.755423 
L 255.811765 -103.804763 
L 258.729412 -103.804763 
L 258.729412 -105.448688 
L 261.647059 -105.448688 
L 261.647059 -107.752818 
L 264.564706 -107.752818 
L 264.564706 -109.486596 
L 267.482353 -109.486596 
L 267.482353 -110.957094 
L 270.4 -110.957094 
L 270.4 -111.420666 
L 273.317647 -111.420666 
L 273.317647 -111.620524 
L 276.235294 -111.620524 
L 276.235294 -113.303349 
L 279.152941 -113.303349 
L 279.152941 -115.75797 
L 282.070588 -115.75797 
L 282.070588 -118.135205 
L 284.988235 -118.135205 
L 284.988235 -120.647582 
L 287.905882 -120.647582 
L 287.905882 -122.92656 
L 290.823529 -122.92656 
L 290.823529 -123.728906 
L 293.741176 -123.728906 
L 293.741176 -123.219774 
L 296.658824 -123.219774 
L 296.658824 -125.10365 
L 299.576471 -125.10365 
L 299.576471 -127.151656 
L 302.494118 -127.151656 
L 302.494118 -129.368625 
L 305.411765 -129.368625 
L 305.411765 -131.693631 
L 308.329412 -131.693631 
L 308.329412 -133.655787 
L 311.247059 -133.655787 
L 311.247059 -134.566519 
L 314.164706 -134.566519 
L 314.164706 -134.894524 
L 317.082353 -134.894524 
L 317.082353 -137.329818 
L 320 -137.329818 
L 320 -139.98766 
L 322.917647 -139.98766 
L 322.917647 -142.348372 
L 325.835294 -142.348372 
L 325.835294 -145.16461 
L 328.752941 -145.16461 
L 328.752941 -147.680739 
L 331.670588 -147.680739 
L 331.670588 -148.78051 
L 334.588235 -148.78051 
L 334.588235 -149.177792 
L 337.505882 -149.177792 
L 337.505882 -151.745173 
L 340.423529 -151.745173 
L 340.423529 -154.758444 
L 343.341176 -154.758444 
L 343.341176 -158.010338 
L 346.258824 -158.010338 
L 346.258824 -161.68496 
L 349.176471 -161.68496 
L 349.176471 -165.295616 
L 352.094118 -165.295616 
L 352.094118 -167.13014 
L 355.011765 -167.13014 
L 355.011765 -168.192064 
L 357.929412 -168.192064 
L 357.929412 -171.523047 
L 360.847059 -171.523047 
L 360.847059 -175.414146 
L 363.764706 -175.414146 
L 363.764706 -179.213846 
L 366.682353 -179.213846 
L 366.682353 -183.220188 
L 369.6 -183.220188 
L 369.6 -186.988728 
L 372.517647 -186.988728 
L 372.517647 -189.650643 
L 375.435294 -189.650643 
L 375.435294 -223.821119 
L 375.435294 -223.821119 
L 372.517647 -223.821119 
L 372.517647 -223.821119 
L 369.6 -223.821119 
L 369.6 -223.821119 
L 366.682353 -223.821119 
L 366.682353 -223.821119 
L 363.764706 -223.821119 
L 363.764706 -223.821119 
L 360.847059 -223.821119 
L 360.847059 -223.821119 
L 357.929412 -223.821119 
L 357.929412 -223.821119 
L 355.011765 -223.821119 
L 355.011765 -203.782175 
L 352.094118 -203.782175 
L 352.094118 -203.782175 
L 349.176471 -203.782175 
L 349.176471 -203.782175 
L 346.258824 -203.782175 
L 346.258824 -203.782175 
L 343.341176 -203.782175 
L 343.341176 -203.782175 
L 340.423529 -203.782175 
L 340.423529 -203.782175 
L 337.505882 -203.782175 
L 337.505882 -203.782175 
L 334.588235 -203.782175 
L 334.588235 -179.760575 
L 331.670588 -179.760575 
L 331.670588 -179.760575 
L 328.752941 -179.760575 
L 328.752941 -179.760575 
L 325.835294 -179.760575 
L 325.835294 -179.760575 
L 322.917647 -179.760575 
L 322.917647 -179.760575 
L 320 -179.760575 
L 320 -179.760575 
L 317.082353 -179.760575 
L 317.082353 -179.760575 
L 314.164706 -179.760575 
L 314.164706 -151.726234 
L 311.247059 -151.726234 
L 311.247059 -151.726234 
L 308.329412 -151.726234 
L 308.329412 -151.726234 
L 305.411765 -151.726234 
L 305.411765 -151.726234 
L 302.494118 -151.726234 
L 302.494118 -151.726234 
L 299.576471 -151.726234 
L 299.576471 -151.726234 
L 296.658824 -151.726234 
L 296.658824 -151.726234 
L 293.741176 -151.726234 
L 293.741176 -133.623903 
L 290.823529 -133.623903 
L 290.823529 -133.623903 
L 287.905882 -133.623903 
L 287.905882 -133.623903 
L 284.988235 -133.623903 
L 284.988235 -133.623903 
L 282.070588 -133.623903 
L 282.070588 -133.623903 
L 279.152941 -133.623903 
L 279.152941 -133.623903 
L 276.235294 -133.623903 
L 276.235294 -133.623903 
L 273.317647 -133.623903 
L 273.317647 -116.620406 
L 270.4 -116.620406 
L 270.4 -116.620406 
L 267.482353 -116.620406 
L 267.482353 -116.620406 
L 264.564706 -116.620406 
L 264.564706 -116.620406 
L 261.647059 -116.620406 
L 261.647059 -116.620406 
L 258.729412 -116.620406 
L 258.729412 -116.620406 
L 255.811765 -116.620406 
L 255.811765 -116.620406 
L 252.894118 -116.620406 
L 252.894118 -109.011888 
L 249.976471 -109.011888 
L 249.976471 -109.011888 
L 247.058824 -109.011888 
L 247.058824 -109.011888 
L 244.141176 -109.011888 
L 244.141176 -109.011888 
L 241.223529 -109.011888 
L 241.223529 -109.011888 
L 238.305882 -109.011888 
L 238.305882 -109.011888 
L 235.388235 -109.011888 
L 235.388235 -109.011888 
L 232.470588 -109.011888 
L 232.470588 -98.359672 
L 229.552941 -98.359672 
L 229.552941 -98.359672 
L 226.635294 -98.359672 
L 226.635294 -98.359672 
L 223.717647 -98.359672 
L 223.717647 -98.359672 
L 220.8 -98.359672 
L 220.8 -98.359672 
L 217.882353 -98.359672 
L 217.882353 -98.359672 
L 214.964706 -98.359672 
L 214.964706 -98.359672 
L 212.047059 -98.359672 
L 212.047059 -81.903334 
L 209.129412 -81.903334 
L 209.129412 -81.903334 
L 206.211765 -81.903334 
L 206.211765 -81.903334 
L 203.294118 -81.903334 
L 203.294118 -81.903334 
L 200.376471 -81.903334 
L 200.376471 -81.903334 
L 197.458824 -81.903334 
L 197.458824 -81.903334 
L 194.541176 -81.903334 
L 194.541176 -81.903334 
L 191.623529 -81.903334 
L 191.623529 -81.903334 
L 188.705882 -81.903334 
L 188.705882 -81.903334 
L 185.788235 -81.903334 
L 185.788235 -81.903334 
L 182.870588 -81.903334 
L 182.870588 -81.903334 
L 179.952941 -81.903334 
L 179.952941 -81.903334 
L 177.035294 -81.903334 
L 177.035294 -81.903334 
L 174.117647 -81.903334 
L 174.117647 -81.903334 
L 171.2 -81.903334 
L 171.2 -67.069253 
L 168.282353 -67.069253 
L 168.282353 -67.069253 
L 165.364706 -67.069253 
L 165.364706 -67.069253 
L 162.447059 -67.069253 
L 162.447059 -67.069253 
L 159.529412 -67.069253 
L 159.529412 -67.069253 
L 156.611765 -67.069253 
L 156.611765 -67.069253 
L 153.694118 -67.069253 
L 153.694118 -67.069253 
L 150.776471 -67.069253 
L 150.776471 -60.87217 
L 147.858824 -60.87217 
L 147.858824 -60.87217 
L 144.941176 -60.87217 
L 144.941176 -60.87217 
L 142.023529 -60.87217 
L 142.023529 -60.87217 
L 139.105882 -60.87217 
L 139.105882 -60.87217 
L 136.188235 -60.87217 
L 136.188235 -60.87217 
L 133.270588 -60.87217 
L 133.270588 -60.87217 
L 130.352941 -60.87217 
L 130.352941 -58.641818 
L 127.435294 -58.641818 
L 127.435294 -58.641818 
L 124.517647 -58.641818 
L 124.517647 -58.641818 
L 121.6 -58.641818 
L 121.6 -58.641818 
L 118.682353 -58.641818 
L 118.682353 -58.641818 
L 115.764706 -58.641818 
L 115.764706 -58.641818 
L 112.847059 -58.641818 
L 112.847059 -58.641818 
L 109.929412 -58.641818 
L 109.929412 -52.13039 
L 107.011765 -52.13039 
L 107.011765 -52.13039 
L 104.094118 -52.13039 
L 104.094118 -52.13039 
L 101.176471 -52.13039 
L 101.176471 -52.13039 
L 98.258824 -52.13039 
L 98.258824 -52.13039 
L 95.341176 -52.13039 
L 95.341176 -52.13039 
L 92.423529 -52.13039 
L 92.423529 -52.13039 
L 89.505882 -52.13039 
L 89.505882 -49.64557 
L 86.588235 -49.64557 
L 86.588235 -49.64557 
L 83.670588 -49.64557 
L 83.670588 -49.64557 
L 80.752941 -49.64557 
L 80.752941 -49.64557 
L 77.835294 -49.64557 
L 77.835294 -49.64557 
L 74.917647 -49.64557 
L 74.917647 -49.64557 
L 72 -49.64557 
L 72 -49.64557 
z
" id="md94ae8bd37"/>
    </defs>
    <g clip-path="url(#pb5f7bb3821)">
     <use style="fill:#2ca02c;" x="0" xlink:href="#md94ae8bd37" y="432"/>
    </g>
   </g>
   <g id="PolyCollection_16">
    <defs>
     <path d="M 72 -49.64557 
L 72 -49.64557 
L 72 -49.64557 
L 74.917647 -49.64557 
L 74.917647 -49.64557 
L 77.835294 -49.64557 
L 77.835294 -49.64557 
L 80.752941 -49.64557 
L 80.752941 -49.64557 
L 83.670588 -49.64557 
L 83.670588 -49.64557 
L 86.588235 -49.64557 
L 86.588235 -49.64557 
L 89.505882 -49.64557 
L 89.505882 -52.13039 
L 92.423529 -52.13039 
L 92.423529 -52.13039 
L 95.341176 -52.13039 
L 95.341176 -52.13039 
L 98.258824 -52.13039 
L 98.258824 -52.13039 
L 101.176471 -52.13039 
L 101.176471 -52.13039 
L 104.094118 -52.13039 
L 104.094118 -52.13039 
L 107.011765 -52.13039 
L 107.011765 -52.13039 
L 109.929412 -52.13039 
L 109.929412 -58.641818 
L 112.847059 -58.641818 
L 112.847059 -58.641818 
L 115.764706 -58.641818 
L 115.764706 -58.641818 
L 118.682353 -58.641818 
L 118.682353 -58.641818 
L 121.6 -58.641818 
L 121.6 -58.641818 
L 124.517647 -58.641818 
L 124.517647 -58.641818 
L 127.435294 -58.641818 
L 127.435294 -58.641818 
L 130.352941 -58.641818 
L 130.352941 -60.87217 
L 133.270588 -60.87217 
L 133.270588 -60.87217 
L 136.188235 -60.87217 
L 136.188235 -60.87217 
L 139.105882 -60.87217 
L 139.105882 -60.87217 
L 142.023529 -60.87217 
L 142.023529 -60.87217 
L 144.941176 -60.87217 
L 144.941176 -60.87217 
L 147.858824 -60.87217 
L 147.858824 -60.87217 
L 150.776471 -60.87217 
L 150.776471 -67.069253 
L 153.694118 -67.069253 
L 153.694118 -67.069253 
L 156.611765 -67.069253 
L 156.611765 -67.069253 
L 159.529412 -67.069253 
L 159.529412 -67.069253 
L 162.447059 -67.069253 
L 162.447059 -67.069253 
L 165.364706 -67.069253 
L 165.364706 -67.069253 
L 168.282353 -67.069253 
L 168.282353 -67.069253 
L 171.2 -67.069253 
L 171.2 -81.903334 
L 174.117647 -81.903334 
L 174.117647 -81.903334 
L 177.035294 -81.903334 
L 177.035294 -81.903334 
L 179.952941 -81.903334 
L 179.952941 -81.903334 
L 182.870588 -81.903334 
L 182.870588 -81.903334 
L 185.788235 -81.903334 
L 185.788235 -81.903334 
L 188.705882 -81.903334 
L 188.705882 -81.903334 
L 191.623529 -81.903334 
L 191.623529 -81.903334 
L 194.541176 -81.903334 
L 194.541176 -81.903334 
L 197.458824 -81.903334 
L 197.458824 -81.903334 
L 200.376471 -81.903334 
L 200.376471 -81.903334 
L 203.294118 -81.903334 
L 203.294118 -81.903334 
L 206.211765 -81.903334 
L 206.211765 -81.903334 
L 209.129412 -81.903334 
L 209.129412 -81.903334 
L 212.047059 -81.903334 
L 212.047059 -98.359672 
L 214.964706 -98.359672 
L 214.964706 -98.359672 
L 217.882353 -98.359672 
L 217.882353 -98.359672 
L 220.8 -98.359672 
L 220.8 -98.359672 
L 223.717647 -98.359672 
L 223.717647 -98.359672 
L 226.635294 -98.359672 
L 226.635294 -98.359672 
L 229.552941 -98.359672 
L 229.552941 -98.359672 
L 232.470588 -98.359672 
L 232.470588 -109.011888 
L 235.388235 -109.011888 
L 235.388235 -109.011888 
L 238.305882 -109.011888 
L 238.305882 -109.011888 
L 241.223529 -109.011888 
L 241.223529 -109.011888 
L 244.141176 -109.011888 
L 244.141176 -109.011888 
L 247.058824 -109.011888 
L 247.058824 -109.011888 
L 249.976471 -109.011888 
L 249.976471 -109.011888 
L 252.894118 -109.011888 
L 252.894118 -116.620406 
L 255.811765 -116.620406 
L 255.811765 -116.620406 
L 258.729412 -116.620406 
L 258.729412 -116.620406 
L 261.647059 -116.620406 
L 261.647059 -116.620406 
L 264.564706 -116.620406 
L 264.564706 -116.620406 
L 267.482353 -116.620406 
L 267.482353 -116.620406 
L 270.4 -116.620406 
L 270.4 -116.620406 
L 273.317647 -116.620406 
L 273.317647 -133.623903 
L 276.235294 -133.623903 
L 276.235294 -133.623903 
L 279.152941 -133.623903 
L 279.152941 -133.623903 
L 282.070588 -133.623903 
L 282.070588 -133.623903 
L 284.988235 -133.623903 
L 284.988235 -133.623903 
L 287.905882 -133.623903 
L 287.905882 -133.623903 
L 290.823529 -133.623903 
L 290.823529 -133.623903 
L 293.741176 -133.623903 
L 293.741176 -151.726234 
L 296.658824 -151.726234 
L 296.658824 -151.726234 
L 299.576471 -151.726234 
L 299.576471 -151.726234 
L 302.494118 -151.726234 
L 302.494118 -151.726234 
L 305.411765 -151.726234 
L 305.411765 -151.726234 
L 308.329412 -151.726234 
L 308.329412 -151.726234 
L 311.247059 -151.726234 
L 311.247059 -151.726234 
L 314.164706 -151.726234 
L 314.164706 -179.760575 
L 317.082353 -179.760575 
L 317.082353 -179.760575 
L 320 -179.760575 
L 320 -179.760575 
L 322.917647 -179.760575 
L 322.917647 -179.760575 
L 325.835294 -179.760575 
L 325.835294 -179.760575 
L 328.752941 -179.760575 
L 328.752941 -179.760575 
L 331.670588 -179.760575 
L 331.670588 -179.760575 
L 334.588235 -179.760575 
L 334.588235 -203.782175 
L 337.505882 -203.782175 
L 337.505882 -203.782175 
L 340.423529 -203.782175 
L 340.423529 -203.782175 
L 343.341176 -203.782175 
L 343.341176 -203.782175 
L 346.258824 -203.782175 
L 346.258824 -203.782175 
L 349.176471 -203.782175 
L 349.176471 -203.782175 
L 352.094118 -203.782175 
L 352.094118 -203.782175 
L 355.011765 -203.782175 
L 355.011765 -223.821119 
L 357.929412 -223.821119 
L 357.929412 -223.821119 
L 360.847059 -223.821119 
L 360.847059 -223.821119 
L 363.764706 -223.821119 
L 363.764706 -223.821119 
L 366.682353 -223.821119 
L 366.682353 -223.821119 
L 369.6 -223.821119 
L 369.6 -223.821119 
L 372.517647 -223.821119 
L 372.517647 -223.821119 
L 375.435294 -223.821119 
L 375.435294 -248.862433 
L 375.435294 -248.862433 
L 372.517647 -248.862433 
L 372.517647 -248.572335 
L 369.6 -248.572335 
L 369.6 -247.642501 
L 366.682353 -247.642501 
L 366.682353 -246.87017 
L 363.764706 -246.87017 
L 363.764706 -245.97103 
L 360.847059 -245.97103 
L 360.847059 -245.248247 
L 357.929412 -245.248247 
L 357.929412 -244.616189 
L 355.011765 -244.616189 
L 355.011765 -224.617932 
L 352.094118 -224.617932 
L 352.094118 -224.464932 
L 349.176471 -224.464932 
L 349.176471 -224.030353 
L 346.258824 -224.030353 
L 346.258824 -223.551266 
L 343.341176 -223.551266 
L 343.341176 -223.09795 
L 340.423529 -223.09795 
L 340.423529 -222.629878 
L 337.505882 -222.629878 
L 337.505882 -222.308979 
L 334.588235 -222.308979 
L 334.588235 -198.249268 
L 331.670588 -198.249268 
L 331.670588 -198.102669 
L 328.752941 -198.102669 
L 328.752941 -197.637645 
L 325.835294 -197.637645 
L 325.835294 -197.089363 
L 322.917647 -197.089363 
L 322.917647 -196.360715 
L 320 -196.360715 
L 320 -195.840847 
L 317.082353 -195.840847 
L 317.082353 -195.509008 
L 314.164706 -195.509008 
L 314.164706 -167.438331 
L 311.247059 -167.438331 
L 311.247059 -167.271742 
L 308.329412 -167.271742 
L 308.329412 -166.700744 
L 305.411765 -166.700744 
L 305.411765 -166.169238 
L 302.494118 -166.169238 
L 302.494118 -165.649112 
L 299.576471 -165.649112 
L 299.576471 -165.156447 
L 296.658824 -165.156447 
L 296.658824 -164.615843 
L 293.741176 -164.615843 
L 293.741176 -145.708896 
L 290.823529 -145.708896 
L 290.823529 -145.625987 
L 287.905882 -145.625987 
L 287.905882 -145.47024 
L 284.988235 -145.47024 
L 284.988235 -145.288166 
L 282.070588 -145.288166 
L 282.070588 -145.096922 
L 279.152941 -145.096922 
L 279.152941 -144.91221 
L 276.235294 -144.91221 
L 276.235294 -144.720476 
L 273.317647 -144.720476 
L 273.317647 -127.699257 
L 270.4 -127.699257 
L 270.4 -127.523163 
L 267.482353 -127.523163 
L 267.482353 -127.154162 
L 264.564706 -127.154162 
L 264.564706 -126.650637 
L 261.647059 -126.650637 
L 261.647059 -126.20247 
L 258.729412 -126.20247 
L 258.729412 -125.843669 
L 255.811765 -125.843669 
L 255.811765 -125.833485 
L 252.894118 -125.833485 
L 252.894118 -118.226503 
L 249.976471 -118.226503 
L 249.976471 -118.139801 
L 247.058824 -118.139801 
L 247.058824 -118.1822 
L 244.141176 -118.1822 
L 244.141176 -117.694124 
L 241.223529 -117.694124 
L 241.223529 -117.267313 
L 238.305882 -117.267313 
L 238.305882 -116.825128 
L 235.388235 -116.825128 
L 235.388235 -116.486226 
L 232.470588 -116.486226 
L 232.470588 -105.651415 
L 229.552941 -105.651415 
L 229.552941 -105.644938 
L 226.635294 -105.644938 
L 226.635294 -105.233998 
L 223.717647 -105.233998 
L 223.717647 -104.826556 
L 220.8 -104.826556 
L 220.8 -104.398167 
L 217.882353 -104.398167 
L 217.882353 -104.011553 
L 214.964706 -104.011553 
L 214.964706 -103.840788 
L 212.047059 -103.840788 
L 212.047059 -87.15169 
L 209.129412 -87.15169 
L 209.129412 -87.125166 
L 206.211765 -87.125166 
L 206.211765 -86.959609 
L 203.294118 -86.959609 
L 203.294118 -86.812089 
L 200.376471 -86.812089 
L 200.376471 -86.568007 
L 197.458824 -86.568007 
L 197.458824 -86.217686 
L 194.541176 -86.217686 
L 194.541176 -85.914387 
L 191.623529 -85.914387 
L 191.623529 -85.869087 
L 188.705882 -85.869087 
L 188.705882 -85.818556 
L 185.788235 -85.818556 
L 185.788235 -85.443238 
L 182.870588 -85.443238 
L 182.870588 -85.286492 
L 179.952941 -85.286492 
L 179.952941 -84.994814 
L 177.035294 -84.994814 
L 177.035294 -84.819621 
L 174.117647 -84.819621 
L 174.117647 -84.68714 
L 171.2 -84.68714 
L 171.2 -69.775113 
L 168.282353 -69.775113 
L 168.282353 -69.628585 
L 165.364706 -69.628585 
L 165.364706 -69.459837 
L 162.447059 -69.459837 
L 162.447059 -69.098623 
L 159.529412 -69.098623 
L 159.529412 -68.760395 
L 156.611765 -68.760395 
L 156.611765 -68.463247 
L 153.694118 -68.463247 
L 153.694118 -68.190316 
L 150.776471 -68.190316 
L 150.776471 -61.933092 
L 147.858824 -61.933092 
L 147.858824 -61.87009 
L 144.941176 -61.87009 
L 144.941176 -61.70377 
L 142.023529 -61.70377 
L 142.023529 -61.45429 
L 139.105882 -61.45429 
L 139.105882 -61.101957 
L 136.188235 -61.101957 
L 136.188235 -60.967937 
L 133.270588 -60.967937 
L 133.270588 -60.872835 
L 130.352941 -60.872835 
L 130.352941 -58.641818 
L 127.435294 -58.641818 
L 127.435294 -58.641818 
L 124.517647 -58.641818 
L 124.517647 -58.641818 
L 121.6 -58.641818 
L 121.6 -58.641818 
L 118.682353 -58.641818 
L 118.682353 -58.641818 
L 115.764706 -58.641818 
L 115.764706 -58.641818 
L 112.847059 -58.641818 
L 112.847059 -58.641818 
L 109.929412 -58.641818 
L 109.929412 -52.13039 
L 107.011765 -52.13039 
L 107.011765 -52.13039 
L 104.094118 -52.13039 
L 104.094118 -52.13039 
L 101.176471 -52.13039 
L 101.176471 -52.13039 
L 98.258824 -52.13039 
L 98.258824 -52.13039 
L 95.341176 -52.13039 
L 95.341176 -52.13039 
L 92.423529 -52.13039 
L 92.423529 -52.13039 
L 89.505882 -52.13039 
L 89.505882 -49.64557 
L 86.588235 -49.64557 
L 86.588235 -49.64557 
L 83.670588 -49.64557 
L 83.670588 -49.64557 
L 80.752941 -49.64557 
L 80.752941 -49.64557 
L 77.835294 -49.64557 
L 77.835294 -49.64557 
L 74.917647 -49.64557 
L 74.917647 -49.64557 
L 72 -49.64557 
L 72 -49.64557 
z
" id="m56f501c20b"/>
    </defs>
    <g clip-path="url(#pb5f7bb3821)">
     <use style="fill:#ff7f0e;" x="0" xlink:href="#m56f501c20b" y="432"/>
    </g>
   </g>
   <g id="PolyCollection_17">
    <defs>
     <path d="M 72 -51.771139 
L 72 -49.64557 
L 72 -49.64557 
L 74.917647 -49.64557 
L 74.917647 -49.64557 
L 77.835294 -49.64557 
L 77.835294 -49.64557 
L 80.752941 -49.64557 
L 80.752941 -49.64557 
L 83.670588 -49.64557 
L 83.670588 -49.64557 
L 86.588235 -49.64557 
L 86.588235 -49.64557 
L 89.505882 -49.64557 
L 89.505882 -52.13039 
L 92.423529 -52.13039 
L 92.423529 -52.13039 
L 95.341176 -52.13039 
L 95.341176 -52.13039 
L 98.258824 -52.13039 
L 98.258824 -52.13039 
L 101.176471 -52.13039 
L 101.176471 -52.13039 
L 104.094118 -52.13039 
L 104.094118 -52.13039 
L 107.011765 -52.13039 
L 107.011765 -52.13039 
L 109.929412 -52.13039 
L 109.929412 -58.641818 
L 112.847059 -58.641818 
L 112.847059 -58.641818 
L 115.764706 -58.641818 
L 115.764706 -58.641818 
L 118.682353 -58.641818 
L 118.682353 -58.641818 
L 121.6 -58.641818 
L 121.6 -58.641818 
L 124.517647 -58.641818 
L 124.517647 -58.641818 
L 127.435294 -58.641818 
L 127.435294 -58.641818 
L 130.352941 -58.641818 
L 130.352941 -60.872835 
L 133.270588 -60.872835 
L 133.270588 -60.967937 
L 136.188235 -60.967937 
L 136.188235 -61.101957 
L 139.105882 -61.101957 
L 139.105882 -61.45429 
L 142.023529 -61.45429 
L 142.023529 -61.70377 
L 144.941176 -61.70377 
L 144.941176 -61.87009 
L 147.858824 -61.87009 
L 147.858824 -61.933092 
L 150.776471 -61.933092 
L 150.776471 -68.190316 
L 153.694118 -68.190316 
L 153.694118 -68.463247 
L 156.611765 -68.463247 
L 156.611765 -68.760395 
L 159.529412 -68.760395 
L 159.529412 -69.098623 
L 162.447059 -69.098623 
L 162.447059 -69.459837 
L 165.364706 -69.459837 
L 165.364706 -69.628585 
L 168.282353 -69.628585 
L 168.282353 -69.775113 
L 171.2 -69.775113 
L 171.2 -84.68714 
L 174.117647 -84.68714 
L 174.117647 -84.819621 
L 177.035294 -84.819621 
L 177.035294 -84.994814 
L 179.952941 -84.994814 
L 179.952941 -85.286492 
L 182.870588 -85.286492 
L 182.870588 -85.443238 
L 185.788235 -85.443238 
L 185.788235 -85.818556 
L 188.705882 -85.818556 
L 188.705882 -85.869087 
L 191.623529 -85.869087 
L 191.623529 -85.914387 
L 194.541176 -85.914387 
L 194.541176 -86.217686 
L 197.458824 -86.217686 
L 197.458824 -86.568007 
L 200.376471 -86.568007 
L 200.376471 -86.812089 
L 203.294118 -86.812089 
L 203.294118 -86.959609 
L 206.211765 -86.959609 
L 206.211765 -87.125166 
L 209.129412 -87.125166 
L 209.129412 -87.15169 
L 212.047059 -87.15169 
L 212.047059 -103.840788 
L 214.964706 -103.840788 
L 214.964706 -104.011553 
L 217.882353 -104.011553 
L 217.882353 -104.398167 
L 220.8 -104.398167 
L 220.8 -104.826556 
L 223.717647 -104.826556 
L 223.717647 -105.233998 
L 226.635294 -105.233998 
L 226.635294 -105.644938 
L 229.552941 -105.644938 
L 229.552941 -105.651415 
L 232.470588 -105.651415 
L 232.470588 -116.486226 
L 235.388235 -116.486226 
L 235.388235 -116.825128 
L 238.305882 -116.825128 
L 238.305882 -117.267313 
L 241.223529 -117.267313 
L 241.223529 -117.694124 
L 244.141176 -117.694124 
L 244.141176 -118.1822 
L 247.058824 -118.1822 
L 247.058824 -118.139801 
L 249.976471 -118.139801 
L 249.976471 -118.226503 
L 252.894118 -118.226503 
L 252.894118 -125.833485 
L 255.811765 -125.833485 
L 255.811765 -125.843669 
L 258.729412 -125.843669 
L 258.729412 -126.20247 
L 261.647059 -126.20247 
L 261.647059 -126.650637 
L 264.564706 -126.650637 
L 264.564706 -127.154162 
L 267.482353 -127.154162 
L 267.482353 -127.523163 
L 270.4 -127.523163 
L 270.4 -127.699257 
L 273.317647 -127.699257 
L 273.317647 -144.720476 
L 276.235294 -144.720476 
L 276.235294 -144.91221 
L 279.152941 -144.91221 
L 279.152941 -145.096922 
L 282.070588 -145.096922 
L 282.070588 -145.288166 
L 284.988235 -145.288166 
L 284.988235 -145.47024 
L 287.905882 -145.47024 
L 287.905882 -145.625987 
L 290.823529 -145.625987 
L 290.823529 -145.708896 
L 293.741176 -145.708896 
L 293.741176 -164.615843 
L 296.658824 -164.615843 
L 296.658824 -165.156447 
L 299.576471 -165.156447 
L 299.576471 -165.649112 
L 302.494118 -165.649112 
L 302.494118 -166.169238 
L 305.411765 -166.169238 
L 305.411765 -166.700744 
L 308.329412 -166.700744 
L 308.329412 -167.271742 
L 311.247059 -167.271742 
L 311.247059 -167.438331 
L 314.164706 -167.438331 
L 314.164706 -195.509008 
L 317.082353 -195.509008 
L 317.082353 -195.840847 
L 320 -195.840847 
L 320 -196.360715 
L 322.917647 -196.360715 
L 322.917647 -197.089363 
L 325.835294 -197.089363 
L 325.835294 -197.637645 
L 328.752941 -197.637645 
L 328.752941 -198.102669 
L 331.670588 -198.102669 
L 331.670588 -198.249268 
L 334.588235 -198.249268 
L 334.588235 -222.308979 
L 337.505882 -222.308979 
L 337.505882 -222.629878 
L 340.423529 -222.629878 
L 340.423529 -223.09795 
L 343.341176 -223.09795 
L 343.341176 -223.551266 
L 346.258824 -223.551266 
L 346.258824 -224.030353 
L 349.176471 -224.030353 
L 349.176471 -224.464932 
L 352.094118 -224.464932 
L 352.094118 -224.617932 
L 355.011765 -224.617932 
L 355.011765 -244.616189 
L 357.929412 -244.616189 
L 357.929412 -245.248247 
L 360.847059 -245.248247 
L 360.847059 -245.97103 
L 363.764706 -245.97103 
L 363.764706 -246.87017 
L 366.682353 -246.87017 
L 366.682353 -247.642501 
L 369.6 -247.642501 
L 369.6 -248.572335 
L 372.517647 -248.572335 
L 372.517647 -248.862433 
L 375.435294 -248.862433 
L 375.435294 -355.832374 
L 375.435294 -355.832374 
L 372.517647 -355.832374 
L 372.517647 -355.832374 
L 369.6 -355.832374 
L 369.6 -355.832374 
L 366.682353 -355.832374 
L 366.682353 -355.832374 
L 363.764706 -355.832374 
L 363.764706 -355.832374 
L 360.847059 -355.832374 
L 360.847059 -355.832374 
L 357.929412 -355.832374 
L 357.929412 -355.832374 
L 355.011765 -355.832374 
L 355.011765 -316.913494 
L 352.094118 -316.913494 
L 352.094118 -316.913494 
L 349.176471 -316.913494 
L 349.176471 -316.913494 
L 346.258824 -316.913494 
L 346.258824 -316.913494 
L 343.341176 -316.913494 
L 343.341176 -316.913494 
L 340.423529 -316.913494 
L 340.423529 -316.913494 
L 337.505882 -316.913494 
L 337.505882 -316.913494 
L 334.588235 -316.913494 
L 334.588235 -276.437858 
L 331.670588 -276.437858 
L 331.670588 -276.437858 
L 328.752941 -276.437858 
L 328.752941 -276.437858 
L 325.835294 -276.437858 
L 325.835294 -276.437858 
L 322.917647 -276.437858 
L 322.917647 -276.437858 
L 320 -276.437858 
L 320 -276.437858 
L 317.082353 -276.437858 
L 317.082353 -276.437858 
L 314.164706 -276.437858 
L 314.164706 -235.07607 
L 311.247059 -235.07607 
L 311.247059 -235.07607 
L 308.329412 -235.07607 
L 308.329412 -235.07607 
L 305.411765 -235.07607 
L 305.411765 -235.07607 
L 302.494118 -235.07607 
L 302.494118 -235.07607 
L 299.576471 -235.07607 
L 299.576471 -235.07607 
L 296.658824 -235.07607 
L 296.658824 -235.07607 
L 293.741176 -235.07607 
L 293.741176 -201.758515 
L 290.823529 -201.758515 
L 290.823529 -201.758515 
L 287.905882 -201.758515 
L 287.905882 -201.758515 
L 284.988235 -201.758515 
L 284.988235 -201.758515 
L 282.070588 -201.758515 
L 282.070588 -201.758515 
L 279.152941 -201.758515 
L 279.152941 -201.758515 
L 276.235294 -201.758515 
L 276.235294 -201.758515 
L 273.317647 -201.758515 
L 273.317647 -176.161867 
L 270.4 -176.161867 
L 270.4 -176.161867 
L 267.482353 -176.161867 
L 267.482353 -176.161867 
L 264.564706 -176.161867 
L 264.564706 -176.161867 
L 261.647059 -176.161867 
L 261.647059 -176.161867 
L 258.729412 -176.161867 
L 258.729412 -176.161867 
L 255.811765 -176.161867 
L 255.811765 -176.161867 
L 252.894118 -176.161867 
L 252.894118 -156.971866 
L 249.976471 -156.971866 
L 249.976471 -156.971866 
L 247.058824 -156.971866 
L 247.058824 -156.971866 
L 244.141176 -156.971866 
L 244.141176 -156.971866 
L 241.223529 -156.971866 
L 241.223529 -156.971866 
L 238.305882 -156.971866 
L 238.305882 -156.971866 
L 235.388235 -156.971866 
L 235.388235 -156.971866 
L 232.470588 -156.971866 
L 232.470588 -133.860038 
L 229.552941 -133.860038 
L 229.552941 -133.860038 
L 226.635294 -133.860038 
L 226.635294 -133.860038 
L 223.717647 -133.860038 
L 223.717647 -133.860038 
L 220.8 -133.860038 
L 220.8 -133.860038 
L 217.882353 -133.860038 
L 217.882353 -133.860038 
L 214.964706 -133.860038 
L 214.964706 -133.860038 
L 212.047059 -133.860038 
L 212.047059 -116.286667 
L 209.129412 -116.286667 
L 209.129412 -116.286667 
L 206.211765 -116.286667 
L 206.211765 -116.286667 
L 203.294118 -116.286667 
L 203.294118 -116.286667 
L 200.376471 -116.286667 
L 200.376471 -116.286667 
L 197.458824 -116.286667 
L 197.458824 -116.286667 
L 194.541176 -116.286667 
L 194.541176 -116.286667 
L 191.623529 -116.286667 
L 191.623529 -116.286667 
L 188.705882 -116.286667 
L 188.705882 -116.286667 
L 185.788235 -116.286667 
L 185.788235 -116.286667 
L 182.870588 -116.286667 
L 182.870588 -116.286667 
L 179.952941 -116.286667 
L 179.952941 -116.286667 
L 177.035294 -116.286667 
L 177.035294 -116.286667 
L 174.117647 -116.286667 
L 174.117647 -116.286667 
L 171.2 -116.286667 
L 171.2 -86.618506 
L 168.282353 -86.618506 
L 168.282353 -86.618506 
L 165.364706 -86.618506 
L 165.364706 -86.618506 
L 162.447059 -86.618506 
L 162.447059 -86.618506 
L 159.529412 -86.618506 
L 159.529412 -86.618506 
L 156.611765 -86.618506 
L 156.611765 -86.618506 
L 153.694118 -86.618506 
L 153.694118 -86.618506 
L 150.776471 -86.618506 
L 150.776471 -74.224339 
L 147.858824 -74.224339 
L 147.858824 -74.224339 
L 144.941176 -74.224339 
L 144.941176 -74.224339 
L 142.023529 -74.224339 
L 142.023529 -74.224339 
L 139.105882 -74.224339 
L 139.105882 -74.224339 
L 136.188235 -74.224339 
L 136.188235 -74.224339 
L 133.270588 -74.224339 
L 133.270588 -74.224339 
L 130.352941 -74.224339 
L 130.352941 -69.763637 
L 127.435294 -69.763637 
L 127.435294 -69.763637 
L 124.517647 -69.763637 
L 124.517647 -69.763637 
L 121.6 -69.763637 
L 121.6 -69.763637 
L 118.682353 -69.763637 
L 118.682353 -69.763637 
L 115.764706 -69.763637 
L 115.764706 -69.763637 
L 112.847059 -69.763637 
L 112.847059 -69.763637 
L 109.929412 -69.763637 
L 109.929412 -56.740781 
L 107.011765 -56.740781 
L 107.011765 -56.740781 
L 104.094118 -56.740781 
L 104.094118 -56.740781 
L 101.176471 -56.740781 
L 101.176471 -56.740781 
L 98.258824 -56.740781 
L 98.258824 -56.740781 
L 95.341176 -56.740781 
L 95.341176 -56.740781 
L 92.423529 -56.740781 
L 92.423529 -56.740781 
L 89.505882 -56.740781 
L 89.505882 -51.771139 
L 86.588235 -51.771139 
L 86.588235 -51.771139 
L 83.670588 -51.771139 
L 83.670588 -51.771139 
L 80.752941 -51.771139 
L 80.752941 -51.771139 
L 77.835294 -51.771139 
L 77.835294 -51.771139 
L 74.917647 -51.771139 
L 74.917647 -51.771139 
L 72 -51.771139 
L 72 -51.771139 
z
" id="mc98f44968f"/>
    </defs>
    <g clip-path="url(#pb5f7bb3821)">
     <use style="fill:#d62728;" x="0" xlink:href="#mc98f44968f" y="432"/>
    </g>
   </g>
   <g id="matplotlib.axis_1">
    <g id="xtick_1">
     <g id="line2d_1">
      <path clip-path="url(#pb5f7bb3821)" d="M 92.423529 384.48 
L 92.423529 51.84 
" style="fill:none;stroke:#000000;stroke-dasharray:0.8,1.32;stroke-dashoffset:0;stroke-width:0.8;"/>
     </g>
     <g id="line2d_2">
      <defs>
       <path d="M 0 0 
L 0 3.5 
" id="m9a9380d96d" style="stroke:#000000;stroke-width:0.8;"/>
      </defs>
      <g>
       <use style="stroke:#000000;stroke-width:0.8;" x="92.423529" xlink:href="#m9a9380d96d" y="384.48"/>
      </g>
     </g>
     <g id="text_1">
      <!-- Mar -->
      <g transform="translate(82.989936 399.078438)scale(0.1 -0.1)">
       <defs>
        <path d="M 628 4666 
L 1569 4666 
L 2759 1491 
L 3956 4666 
L 4897 4666 
L 4897 0 
L 4281 0 
L 4281 4097 
L 3078 897 
L 2444 897 
L 1241 4097 
L 1241 0 
L 628 0 
L 628 4666 
z
" id="DejaVuSans-4d" transform="scale(0.015625)"/>
        <path d="M 2194 1759 
Q 1497 1759 1228 1600 
Q 959 1441 959 1056 
Q 959 750 1161 570 
Q 1363 391 1709 391 
Q 2188 391 2477 730 
Q 2766 1069 2766 1631 
L 2766 1759 
L 2194 1759 
z
M 3341 1997 
L 3341 0 
L 2766 0 
L 2766 531 
Q 2569 213 2275 61 
Q 1981 -91 1556 -91 
Q 1019 -91 701 211 
Q 384 513 384 1019 
Q 384 1609 779 1909 
Q 1175 2209 1959 2209 
L 2766 2209 
L 2766 2266 
Q 2766 2663 2505 2880 
Q 2244 3097 1772 3097 
Q 1472 3097 1187 3025 
Q 903 2953 641 2809 
L 641 3341 
Q 956 3463 1253 3523 
Q 1550 3584 1831 3584 
Q 2591 3584 2966 3190 
Q 3341 2797 3341 1997 
z
" id="DejaVuSans-61" transform="scale(0.015625)"/>
        <path d="M 2631 2963 
Q 2534 3019 2420 3045 
Q 2306 3072 2169 3072 
Q 1681 3072 1420 2755 
Q 1159 2438 1159 1844 
L 1159 0 
L 581 0 
L 581 3500 
L 1159 3500 
L 1159 2956 
Q 1341 3275 1631 3429 
Q 1922 3584 2338 3584 
Q 2397 3584 2469 3576 
Q 2541 3569 2628 3553 
L 2631 2963 
z
" id="DejaVuSans-72" transform="scale(0.015625)"/>
       </defs>
       <use xlink:href="#DejaVuSans-4d"/>
       <use x="86.279297" xlink:href="#DejaVuSans-61"/>
       <use x="147.558594" xlink:href="#DejaVuSans-72"/>
      </g>
     </g>
    </g>
    <g id="xtick_2">
     <g id="line2d_3">
      <path clip-path="url(#pb5f7bb3821)" d="M 133.270588 384.48 
L 133.270588 51.84 
" style="fill:none;stroke:#000000;stroke-dasharray:0.8,1.32;stroke-dashoffset:0;stroke-width:0.8;"/>
     </g>
     <g id="line2d_4">
      <g>
       <use style="stroke:#000000;stroke-width:0.8;" x="133.270588" xlink:href="#m9a9380d96d" y="384.48"/>
      </g>
     </g>
     <g id="text_2">
      <!-- 15 -->
      <g transform="translate(126.908088 399.078438)scale(0.1 -0.1)">
       <defs>
        <path d="M 794 531 
L 1825 531 
L 1825 4091 
L 703 3866 
L 703 4441 
L 1819 4666 
L 2450 4666 
L 2450 531 
L 3481 531 
L 3481 0 
L 794 0 
L 794 531 
z
" id="DejaVuSans-31" transform="scale(0.015625)"/>
        <path d="M 691 4666 
L 3169 4666 
L 3169 4134 
L 1269 4134 
L 1269 2991 
Q 1406 3038 1543 3061 
Q 1681 3084 1819 3084 
Q 2600 3084 3056 2656 
Q 3513 2228 3513 1497 
Q 3513 744 3044 326 
Q 2575 -91 1722 -91 
Q 1428 -91 1123 -41 
Q 819 9 494 109 
L 494 744 
Q 775 591 1075 516 
Q 1375 441 1709 441 
Q 2250 441 2565 725 
Q 2881 1009 2881 1497 
Q 2881 1984 2565 2268 
Q 2250 2553 1709 2553 
Q 1456 2553 1204 2497 
Q 953 2441 691 2322 
L 691 4666 
z
" id="DejaVuSans-35" transform="scale(0.015625)"/>
       </defs>
       <use xlink:href="#DejaVuSans-31"/>
       <use x="63.623047" xlink:href="#DejaVuSans-35"/>
      </g>
     </g>
    </g>
    <g id="xtick_3">
     <g id="line2d_5">
      <path clip-path="url(#pb5f7bb3821)" d="M 182.870588 384.48 
L 182.870588 51.84 
" style="fill:none;stroke:#000000;stroke-dasharray:0.8,1.32;stroke-dashoffset:0;stroke-width:0.8;"/>
     </g>
     <g id="line2d_6">
      <g>
       <use style="stroke:#000000;stroke-width:0.8;" x="182.870588" xlink:href="#m9a9380d96d" y="384.48"/>
      </g>
     </g>
     <g id="text_3">
      <!-- Apr -->
      <g transform="translate(174.220588 399.078438)scale(0.1 -0.1)">
       <defs>
        <path d="M 2188 4044 
L 1331 1722 
L 3047 1722 
L 2188 4044 
z
M 1831 4666 
L 2547 4666 
L 4325 0 
L 3669 0 
L 3244 1197 
L 1141 1197 
L 716 0 
L 50 0 
L 1831 4666 
z
" id="DejaVuSans-41" transform="scale(0.015625)"/>
        <path d="M 1159 525 
L 1159 -1331 
L 581 -1331 
L 581 3500 
L 1159 3500 
L 1159 2969 
Q 1341 3281 1617 3432 
Q 1894 3584 2278 3584 
Q 2916 3584 3314 3078 
Q 3713 2572 3713 1747 
Q 3713 922 3314 415 
Q 2916 -91 2278 -91 
Q 1894 -91 1617 61 
Q 1341 213 1159 525 
z
M 3116 1747 
Q 3116 2381 2855 2742 
Q 2594 3103 2138 3103 
Q 1681 3103 1420 2742 
Q 1159 2381 1159 1747 
Q 1159 1113 1420 752 
Q 1681 391 2138 391 
Q 2594 391 2855 752 
Q 3116 1113 3116 1747 
z
" id="DejaVuSans-70" transform="scale(0.015625)"/>
       </defs>
       <use xlink:href="#DejaVuSans-41"/>
       <use x="68.408203" xlink:href="#DejaVuSans-70"/>
       <use x="131.884766" xlink:href="#DejaVuSans-72"/>
      </g>
     </g>
    </g>
    <g id="xtick_4">
     <g id="line2d_7">
      <path clip-path="url(#pb5f7bb3821)" d="M 223.717647 384.48 
L 223.717647 51.84 
" style="fill:none;stroke:#000000;stroke-dasharray:0.8,1.32;stroke-dashoffset:0;stroke-width:0.8;"/>
     </g>
     <g id="line2d_8">
      <g>
       <use style="stroke:#000000;stroke-width:0.8;" x="223.717647" xlink:href="#m9a9380d96d" y="384.48"/>
      </g>
     </g>
     <g id="text_4">
      <!-- 15 -->
      <g transform="translate(217.355147 399.078438)scale(0.1 -0.1)">
       <use xlink:href="#DejaVuSans-31"/>
       <use x="63.623047" xlink:href="#DejaVuSans-35"/>
      </g>
     </g>
    </g>
    <g id="xtick_5">
     <g id="line2d_9">
      <path clip-path="url(#pb5f7bb3821)" d="M 270.4 384.48 
L 270.4 51.84 
" style="fill:none;stroke:#000000;stroke-dasharray:0.8,1.32;stroke-dashoffset:0;stroke-width:0.8;"/>
     </g>
     <g id="line2d_10">
      <g>
       <use style="stroke:#000000;stroke-width:0.8;" x="270.4" xlink:href="#m9a9380d96d" y="384.48"/>
      </g>
     </g>
     <g id="text_5">
      <!-- May -->
      <g transform="translate(260.0625 399.078438)scale(0.1 -0.1)">
       <defs>
        <path d="M 2059 -325 
Q 1816 -950 1584 -1140 
Q 1353 -1331 966 -1331 
L 506 -1331 
L 506 -850 
L 844 -850 
Q 1081 -850 1212 -737 
Q 1344 -625 1503 -206 
L 1606 56 
L 191 3500 
L 800 3500 
L 1894 763 
L 2988 3500 
L 3597 3500 
L 2059 -325 
z
" id="DejaVuSans-79" transform="scale(0.015625)"/>
       </defs>
       <use xlink:href="#DejaVuSans-4d"/>
       <use x="86.279297" xlink:href="#DejaVuSans-61"/>
       <use x="147.558594" xlink:href="#DejaVuSans-79"/>
      </g>
     </g>
    </g>
    <g id="xtick_6">
     <g id="line2d_11">
      <path clip-path="url(#pb5f7bb3821)" d="M 311.247059 384.48 
L 311.247059 51.84 
" style="fill:none;stroke:#000000;stroke-dasharray:0.8,1.32;stroke-dashoffset:0;stroke-width:0.8;"/>
     </g>
     <g id="line2d_12">
      <g>
       <use style="stroke:#000000;stroke-width:0.8;" x="311.247059" xlink:href="#m9a9380d96d" y="384.48"/>
      </g>
     </g>
     <g id="text_6">
      <!-- 15 -->
      <g transform="translate(304.884559 399.078438)scale(0.1 -0.1)">
       <use xlink:href="#DejaVuSans-31"/>
       <use x="63.623047" xlink:href="#DejaVuSans-35"/>
      </g>
     </g>
    </g>
    <g id="xtick_7">
     <g id="line2d_13">
      <path clip-path="url(#pb5f7bb3821)" d="M 360.847059 384.48 
L 360.847059 51.84 
" style="fill:none;stroke:#000000;stroke-dasharray:0.8,1.32;stroke-dashoffset:0;stroke-width:0.8;"/>
     </g>
     <g id="line2d_14">
      <g>
       <use style="stroke:#000000;stroke-width:0.8;" x="360.847059" xlink:href="#m9a9380d96d" y="384.48"/>
      </g>
     </g>
     <g id="text_7">
      <!-- Jun -->
      <g transform="translate(353.034559 399.078438)scale(0.1 -0.1)">
       <defs>
        <path d="M 628 4666 
L 1259 4666 
L 1259 325 
Q 1259 -519 939 -900 
Q 619 -1281 -91 -1281 
L -331 -1281 
L -331 -750 
L -134 -750 
Q 284 -750 456 -515 
Q 628 -281 628 325 
L 628 4666 
z
" id="DejaVuSans-4a" transform="scale(0.015625)"/>
        <path d="M 544 1381 
L 544 3500 
L 1119 3500 
L 1119 1403 
Q 1119 906 1312 657 
Q 1506 409 1894 409 
Q 2359 409 2629 706 
Q 2900 1003 2900 1516 
L 2900 3500 
L 3475 3500 
L 3475 0 
L 2900 0 
L 2900 538 
Q 2691 219 2414 64 
Q 2138 -91 1772 -91 
Q 1169 -91 856 284 
Q 544 659 544 1381 
z
M 1991 3584 
L 1991 3584 
z
" id="DejaVuSans-75" transform="scale(0.015625)"/>
        <path d="M 3513 2113 
L 3513 0 
L 2938 0 
L 2938 2094 
Q 2938 2591 2744 2837 
Q 2550 3084 2163 3084 
Q 1697 3084 1428 2787 
Q 1159 2491 1159 1978 
L 1159 0 
L 581 0 
L 581 3500 
L 1159 3500 
L 1159 2956 
Q 1366 3272 1645 3428 
Q 1925 3584 2291 3584 
Q 2894 3584 3203 3211 
Q 3513 2838 3513 2113 
z
" id="DejaVuSans-6e" transform="scale(0.015625)"/>
       </defs>
       <use xlink:href="#DejaVuSans-4a"/>
       <use x="29.492188" xlink:href="#DejaVuSans-75"/>
       <use x="92.871094" xlink:href="#DejaVuSans-6e"/>
      </g>
     </g>
    </g>
    <g id="xtick_8">
     <g id="line2d_15">
      <path clip-path="url(#pb5f7bb3821)" d="M 401.694118 384.48 
L 401.694118 51.84 
" style="fill:none;stroke:#000000;stroke-dasharray:0.8,1.32;stroke-dashoffset:0;stroke-width:0.8;"/>
     </g>
     <g id="line2d_16">
      <g>
       <use style="stroke:#000000;stroke-width:0.8;" x="401.694118" xlink:href="#m9a9380d96d" y="384.48"/>
      </g>
     </g>
     <g id="text_8">
      <!-- 15 -->
      <g transform="translate(395.331618 399.078438)scale(0.1 -0.1)">
       <use xlink:href="#DejaVuSans-31"/>
       <use x="63.623047" xlink:href="#DejaVuSans-35"/>
      </g>
     </g>
    </g>
    <g id="xtick_9">
     <g id="line2d_17">
      <path clip-path="url(#pb5f7bb3821)" d="M 448.376471 384.48 
L 448.376471 51.84 
" style="fill:none;stroke:#000000;stroke-dasharray:0.8,1.32;stroke-dashoffset:0;stroke-width:0.8;"/>
     </g>
     <g id="line2d_18">
      <g>
       <use style="stroke:#000000;stroke-width:0.8;" x="448.376471" xlink:href="#m9a9380d96d" y="384.48"/>
      </g>
     </g>
     <g id="text_9">
      <!-- Jul -->
      <g transform="translate(442.343658 399.078438)scale(0.1 -0.1)">
       <defs>
        <path d="M 603 4863 
L 1178 4863 
L 1178 0 
L 603 0 
L 603 4863 
z
" id="DejaVuSans-6c" transform="scale(0.015625)"/>
       </defs>
       <use xlink:href="#DejaVuSans-4a"/>
       <use x="29.492188" xlink:href="#DejaVuSans-75"/>
       <use x="92.871094" xlink:href="#DejaVuSans-6c"/>
      </g>
     </g>
    </g>
    <g id="xtick_10">
     <g id="line2d_19">
      <path clip-path="url(#pb5f7bb3821)" d="M 489.223529 384.48 
L 489.223529 51.84 
" style="fill:none;stroke:#000000;stroke-dasharray:0.8,1.32;stroke-dashoffset:0;stroke-width:0.8;"/>
     </g>
     <g id="line2d_20">
      <g>
       <use style="stroke:#000000;stroke-width:0.8;" x="489.223529" xlink:href="#m9a9380d96d" y="384.48"/>
      </g>
     </g>
     <g id="text_10">
      <!-- 15 -->
      <g transform="translate(482.861029 399.078438)scale(0.1 -0.1)">
       <use xlink:href="#DejaVuSans-31"/>
       <use x="63.623047" xlink:href="#DejaVuSans-35"/>
      </g>
     </g>
    </g>
   </g>
   <g id="matplotlib.axis_2">
    <g id="ytick_1">
     <g id="line2d_21">
      <path clip-path="url(#pb5f7bb3821)" d="M 72 384.48 
L 518.4 384.48 
" style="fill:none;stroke:#000000;stroke-dasharray:0.8,1.32;stroke-dashoffset:0;stroke-width:0.8;"/>
     </g>
     <g id="line2d_22">
      <defs>
       <path d="M 0 0 
L -3.5 0 
" id="m04a9995a42" style="stroke:#000000;stroke-width:0.8;"/>
      </defs>
      <g>
       <use style="stroke:#000000;stroke-width:0.8;" x="72" xlink:href="#m04a9995a42" y="384.48"/>
      </g>
     </g>
     <g id="text_11">
      <!-- 0 -->
      <g transform="translate(58.6375 388.279219)scale(0.1 -0.1)">
       <defs>
        <path d="M 2034 4250 
Q 1547 4250 1301 3770 
Q 1056 3291 1056 2328 
Q 1056 1369 1301 889 
Q 1547 409 2034 409 
Q 2525 409 2770 889 
Q 3016 1369 3016 2328 
Q 3016 3291 2770 3770 
Q 2525 4250 2034 4250 
z
M 2034 4750 
Q 2819 4750 3233 4129 
Q 3647 3509 3647 2328 
Q 3647 1150 3233 529 
Q 2819 -91 2034 -91 
Q 1250 -91 836 529 
Q 422 1150 422 2328 
Q 422 3509 836 4129 
Q 1250 4750 2034 4750 
z
" id="DejaVuSans-30" transform="scale(0.015625)"/>
       </defs>
       <use xlink:href="#DejaVuSans-30"/>
      </g>
     </g>
    </g>
    <g id="ytick_2">
     <g id="line2d_23">
      <path clip-path="url(#pb5f7bb3821)" d="M 72 351.216 
L 518.4 351.216 
" style="fill:none;stroke:#000000;stroke-dasharray:0.8,1.32;stroke-dashoffset:0;stroke-width:0.8;"/>
     </g>
     <g id="line2d_24">
      <g>
       <use style="stroke:#000000;stroke-width:0.8;" x="72" xlink:href="#m04a9995a42" y="351.216"/>
      </g>
     </g>
     <g id="text_12">
      <!-- 1 -->
      <g transform="translate(58.6375 355.015219)scale(0.1 -0.1)">
       <use xlink:href="#DejaVuSans-31"/>
      </g>
     </g>
    </g>
    <g id="ytick_3">
     <g id="line2d_25">
      <path clip-path="url(#pb5f7bb3821)" d="M 72 317.952 
L 518.4 317.952 
" style="fill:none;stroke:#000000;stroke-dasharray:0.8,1.32;stroke-dashoffset:0;stroke-width:0.8;"/>
     </g>
     <g id="line2d_26">
      <g>
       <use style="stroke:#000000;stroke-width:0.8;" x="72" xlink:href="#m04a9995a42" y="317.952"/>
      </g>
     </g>
     <g id="text_13">
      <!-- 2 -->
      <g transform="translate(58.6375 321.751219)scale(0.1 -0.1)">
       <defs>
        <path d="M 1228 531 
L 3431 531 
L 3431 0 
L 469 0 
L 469 531 
Q 828 903 1448 1529 
Q 2069 2156 2228 2338 
Q 2531 2678 2651 2914 
Q 2772 3150 2772 3378 
Q 2772 3750 2511 3984 
Q 2250 4219 1831 4219 
Q 1534 4219 1204 4116 
Q 875 4013 500 3803 
L 500 4441 
Q 881 4594 1212 4672 
Q 1544 4750 1819 4750 
Q 2544 4750 2975 4387 
Q 3406 4025 3406 3419 
Q 3406 3131 3298 2873 
Q 3191 2616 2906 2266 
Q 2828 2175 2409 1742 
Q 1991 1309 1228 531 
z
" id="DejaVuSans-32" transform="scale(0.015625)"/>
       </defs>
       <use xlink:href="#DejaVuSans-32"/>
      </g>
     </g>
    </g>
    <g id="ytick_4">
     <g id="line2d_27">
      <path clip-path="url(#pb5f7bb3821)" d="M 72 284.688 
L 518.4 284.688 
" style="fill:none;stroke:#000000;stroke-dasharray:0.8,1.32;stroke-dashoffset:0;stroke-width:0.8;"/>
     </g>
     <g id="line2d_28">
      <g>
       <use style="stroke:#000000;stroke-width:0.8;" x="72" xlink:href="#m04a9995a42" y="284.688"/>
      </g>
     </g>
     <g id="text_14">
      <!-- 3 -->
      <g transform="translate(58.6375 288.487219)scale(0.1 -0.1)">
       <defs>
        <path d="M 2597 2516 
Q 3050 2419 3304 2112 
Q 3559 1806 3559 1356 
Q 3559 666 3084 287 
Q 2609 -91 1734 -91 
Q 1441 -91 1130 -33 
Q 819 25 488 141 
L 488 750 
Q 750 597 1062 519 
Q 1375 441 1716 441 
Q 2309 441 2620 675 
Q 2931 909 2931 1356 
Q 2931 1769 2642 2001 
Q 2353 2234 1838 2234 
L 1294 2234 
L 1294 2753 
L 1863 2753 
Q 2328 2753 2575 2939 
Q 2822 3125 2822 3475 
Q 2822 3834 2567 4026 
Q 2313 4219 1838 4219 
Q 1578 4219 1281 4162 
Q 984 4106 628 3988 
L 628 4550 
Q 988 4650 1302 4700 
Q 1616 4750 1894 4750 
Q 2613 4750 3031 4423 
Q 3450 4097 3450 3541 
Q 3450 3153 3228 2886 
Q 3006 2619 2597 2516 
z
" id="DejaVuSans-33" transform="scale(0.015625)"/>
       </defs>
       <use xlink:href="#DejaVuSans-33"/>
      </g>
     </g>
    </g>
    <g id="ytick_5">
     <g id="line2d_29">
      <path clip-path="url(#pb5f7bb3821)" d="M 72 251.424 
L 518.4 251.424 
" style="fill:none;stroke:#000000;stroke-dasharray:0.8,1.32;stroke-dashoffset:0;stroke-width:0.8;"/>
     </g>
     <g id="line2d_30">
      <g>
       <use style="stroke:#000000;stroke-width:0.8;" x="72" xlink:href="#m04a9995a42" y="251.424"/>
      </g>
     </g>
     <g id="text_15">
      <!-- 4 -->
      <g transform="translate(58.6375 255.223219)scale(0.1 -0.1)">
       <defs>
        <path d="M 2419 4116 
L 825 1625 
L 2419 1625 
L 2419 4116 
z
M 2253 4666 
L 3047 4666 
L 3047 1625 
L 3713 1625 
L 3713 1100 
L 3047 1100 
L 3047 0 
L 2419 0 
L 2419 1100 
L 313 1100 
L 313 1709 
L 2253 4666 
z
" id="DejaVuSans-34" transform="scale(0.015625)"/>
       </defs>
       <use xlink:href="#DejaVuSans-34"/>
      </g>
     </g>
    </g>
    <g id="ytick_6">
     <g id="line2d_31">
      <path clip-path="url(#pb5f7bb3821)" d="M 72 218.16 
L 518.4 218.16 
" style="fill:none;stroke:#000000;stroke-dasharray:0.8,1.32;stroke-dashoffset:0;stroke-width:0.8;"/>
     </g>
     <g id="line2d_32">
      <g>
       <use style="stroke:#000000;stroke-width:0.8;" x="72" xlink:href="#m04a9995a42" y="218.16"/>
      </g>
     </g>
     <g id="text_16">
      <!-- 5 -->
      <g transform="translate(58.6375 221.959219)scale(0.1 -0.1)">
       <use xlink:href="#DejaVuSans-35"/>
      </g>
     </g>
    </g>
    <g id="ytick_7">
     <g id="line2d_33">
      <path clip-path="url(#pb5f7bb3821)" d="M 72 184.896 
L 518.4 184.896 
" style="fill:none;stroke:#000000;stroke-dasharray:0.8,1.32;stroke-dashoffset:0;stroke-width:0.8;"/>
     </g>
     <g id="line2d_34">
      <g>
       <use style="stroke:#000000;stroke-width:0.8;" x="72" xlink:href="#m04a9995a42" y="184.896"/>
      </g>
     </g>
     <g id="text_17">
      <!-- 6 -->
      <g transform="translate(58.6375 188.695219)scale(0.1 -0.1)">
       <defs>
        <path d="M 2113 2584 
Q 1688 2584 1439 2293 
Q 1191 2003 1191 1497 
Q 1191 994 1439 701 
Q 1688 409 2113 409 
Q 2538 409 2786 701 
Q 3034 994 3034 1497 
Q 3034 2003 2786 2293 
Q 2538 2584 2113 2584 
z
M 3366 4563 
L 3366 3988 
Q 3128 4100 2886 4159 
Q 2644 4219 2406 4219 
Q 1781 4219 1451 3797 
Q 1122 3375 1075 2522 
Q 1259 2794 1537 2939 
Q 1816 3084 2150 3084 
Q 2853 3084 3261 2657 
Q 3669 2231 3669 1497 
Q 3669 778 3244 343 
Q 2819 -91 2113 -91 
Q 1303 -91 875 529 
Q 447 1150 447 2328 
Q 447 3434 972 4092 
Q 1497 4750 2381 4750 
Q 2619 4750 2861 4703 
Q 3103 4656 3366 4563 
z
" id="DejaVuSans-36" transform="scale(0.015625)"/>
       </defs>
       <use xlink:href="#DejaVuSans-36"/>
      </g>
     </g>
    </g>
    <g id="ytick_8">
     <g id="line2d_35">
      <path clip-path="url(#pb5f7bb3821)" d="M 72 151.632 
L 518.4 151.632 
" style="fill:none;stroke:#000000;stroke-dasharray:0.8,1.32;stroke-dashoffset:0;stroke-width:0.8;"/>
     </g>
     <g id="line2d_36">
      <g>
       <use style="stroke:#000000;stroke-width:0.8;" x="72" xlink:href="#m04a9995a42" y="151.632"/>
      </g>
     </g>
     <g id="text_18">
      <!-- 7 -->
      <g transform="translate(58.6375 155.431219)scale(0.1 -0.1)">
       <defs>
        <path d="M 525 4666 
L 3525 4666 
L 3525 4397 
L 1831 0 
L 1172 0 
L 2766 4134 
L 525 4134 
L 525 4666 
z
" id="DejaVuSans-37" transform="scale(0.015625)"/>
       </defs>
       <use xlink:href="#DejaVuSans-37"/>
      </g>
     </g>
    </g>
    <g id="ytick_9">
     <g id="line2d_37">
      <path clip-path="url(#pb5f7bb3821)" d="M 72 118.368 
L 518.4 118.368 
" style="fill:none;stroke:#000000;stroke-dasharray:0.8,1.32;stroke-dashoffset:0;stroke-width:0.8;"/>
     </g>
     <g id="line2d_38">
      <g>
       <use style="stroke:#000000;stroke-width:0.8;" x="72" xlink:href="#m04a9995a42" y="118.368"/>
      </g>
     </g>
     <g id="text_19">
      <!-- 8 -->
      <g transform="translate(58.6375 122.167219)scale(0.1 -0.1)">
       <defs>
        <path d="M 2034 2216 
Q 1584 2216 1326 1975 
Q 1069 1734 1069 1313 
Q 1069 891 1326 650 
Q 1584 409 2034 409 
Q 2484 409 2743 651 
Q 3003 894 3003 1313 
Q 3003 1734 2745 1975 
Q 2488 2216 2034 2216 
z
M 1403 2484 
Q 997 2584 770 2862 
Q 544 3141 544 3541 
Q 544 4100 942 4425 
Q 1341 4750 2034 4750 
Q 2731 4750 3128 4425 
Q 3525 4100 3525 3541 
Q 3525 3141 3298 2862 
Q 3072 2584 2669 2484 
Q 3125 2378 3379 2068 
Q 3634 1759 3634 1313 
Q 3634 634 3220 271 
Q 2806 -91 2034 -91 
Q 1263 -91 848 271 
Q 434 634 434 1313 
Q 434 1759 690 2068 
Q 947 2378 1403 2484 
z
M 1172 3481 
Q 1172 3119 1398 2916 
Q 1625 2713 2034 2713 
Q 2441 2713 2670 2916 
Q 2900 3119 2900 3481 
Q 2900 3844 2670 4047 
Q 2441 4250 2034 4250 
Q 1625 4250 1398 4047 
Q 1172 3844 1172 3481 
z
" id="DejaVuSans-38" transform="scale(0.015625)"/>
       </defs>
       <use xlink:href="#DejaVuSans-38"/>
      </g>
     </g>
    </g>
    <g id="ytick_10">
     <g id="line2d_39">
      <path clip-path="url(#pb5f7bb3821)" d="M 72 85.104 
L 518.4 85.104 
" style="fill:none;stroke:#000000;stroke-dasharray:0.8,1.32;stroke-dashoffset:0;stroke-width:0.8;"/>
     </g>
     <g id="line2d_40">
      <g>
       <use style="stroke:#000000;stroke-width:0.8;" x="72" xlink:href="#m04a9995a42" y="85.104"/>
      </g>
     </g>
     <g id="text_20">
      <!-- 9 -->
      <g transform="translate(58.6375 88.903219)scale(0.1 -0.1)">
       <defs>
        <path d="M 703 97 
L 703 672 
Q 941 559 1184 500 
Q 1428 441 1663 441 
Q 2288 441 2617 861 
Q 2947 1281 2994 2138 
Q 2813 1869 2534 1725 
Q 2256 1581 1919 1581 
Q 1219 1581 811 2004 
Q 403 2428 403 3163 
Q 403 3881 828 4315 
Q 1253 4750 1959 4750 
Q 2769 4750 3195 4129 
Q 3622 3509 3622 2328 
Q 3622 1225 3098 567 
Q 2575 -91 1691 -91 
Q 1453 -91 1209 -44 
Q 966 3 703 97 
z
M 1959 2075 
Q 2384 2075 2632 2365 
Q 2881 2656 2881 3163 
Q 2881 3666 2632 3958 
Q 2384 4250 1959 4250 
Q 1534 4250 1286 3958 
Q 1038 3666 1038 3163 
Q 1038 2656 1286 2365 
Q 1534 2075 1959 2075 
z
" id="DejaVuSans-39" transform="scale(0.015625)"/>
       </defs>
       <use xlink:href="#DejaVuSans-39"/>
      </g>
     </g>
    </g>
    <g id="ytick_11">
     <g id="line2d_41">
      <path clip-path="url(#pb5f7bb3821)" d="M 72 51.84 
L 518.4 51.84 
" style="fill:none;stroke:#000000;stroke-dasharray:0.8,1.32;stroke-dashoffset:0;stroke-width:0.8;"/>
     </g>
     <g id="line2d_42">
      <g>
       <use style="stroke:#000000;stroke-width:0.8;" x="72" xlink:href="#m04a9995a42" y="51.84"/>
      </g>
     </g>
     <g id="text_21">
      <!-- 10 -->
      <g transform="translate(52.275 55.639219)scale(0.1 -0.1)">
       <use xlink:href="#DejaVuSans-31"/>
       <use x="63.623047" xlink:href="#DejaVuSans-30"/>
      </g>
     </g>
    </g>
    <g id="text_22">
     <!-- Cumulative doses (millions) -->
     <g transform="translate(46.195312 287.556094)rotate(-90)scale(0.1 -0.1)">
      <defs>
       <path d="M 4122 4306 
L 4122 3641 
Q 3803 3938 3442 4084 
Q 3081 4231 2675 4231 
Q 1875 4231 1450 3742 
Q 1025 3253 1025 2328 
Q 1025 1406 1450 917 
Q 1875 428 2675 428 
Q 3081 428 3442 575 
Q 3803 722 4122 1019 
L 4122 359 
Q 3791 134 3420 21 
Q 3050 -91 2638 -91 
Q 1578 -91 968 557 
Q 359 1206 359 2328 
Q 359 3453 968 4101 
Q 1578 4750 2638 4750 
Q 3056 4750 3426 4639 
Q 3797 4528 4122 4306 
z
" id="DejaVuSans-43" transform="scale(0.015625)"/>
       <path d="M 3328 2828 
Q 3544 3216 3844 3400 
Q 4144 3584 4550 3584 
Q 5097 3584 5394 3201 
Q 5691 2819 5691 2113 
L 5691 0 
L 5113 0 
L 5113 2094 
Q 5113 2597 4934 2840 
Q 4756 3084 4391 3084 
Q 3944 3084 3684 2787 
Q 3425 2491 3425 1978 
L 3425 0 
L 2847 0 
L 2847 2094 
Q 2847 2600 2669 2842 
Q 2491 3084 2119 3084 
Q 1678 3084 1418 2786 
Q 1159 2488 1159 1978 
L 1159 0 
L 581 0 
L 581 3500 
L 1159 3500 
L 1159 2956 
Q 1356 3278 1631 3431 
Q 1906 3584 2284 3584 
Q 2666 3584 2933 3390 
Q 3200 3197 3328 2828 
z
" id="DejaVuSans-6d" transform="scale(0.015625)"/>
       <path d="M 1172 4494 
L 1172 3500 
L 2356 3500 
L 2356 3053 
L 1172 3053 
L 1172 1153 
Q 1172 725 1289 603 
Q 1406 481 1766 481 
L 2356 481 
L 2356 0 
L 1766 0 
Q 1100 0 847 248 
Q 594 497 594 1153 
L 594 3053 
L 172 3053 
L 172 3500 
L 594 3500 
L 594 4494 
L 1172 4494 
z
" id="DejaVuSans-74" transform="scale(0.015625)"/>
       <path d="M 603 3500 
L 1178 3500 
L 1178 0 
L 603 0 
L 603 3500 
z
M 603 4863 
L 1178 4863 
L 1178 4134 
L 603 4134 
L 603 4863 
z
" id="DejaVuSans-69" transform="scale(0.015625)"/>
       <path d="M 191 3500 
L 800 3500 
L 1894 563 
L 2988 3500 
L 3597 3500 
L 2284 0 
L 1503 0 
L 191 3500 
z
" id="DejaVuSans-76" transform="scale(0.015625)"/>
       <path d="M 3597 1894 
L 3597 1613 
L 953 1613 
Q 991 1019 1311 708 
Q 1631 397 2203 397 
Q 2534 397 2845 478 
Q 3156 559 3463 722 
L 3463 178 
Q 3153 47 2828 -22 
Q 2503 -91 2169 -91 
Q 1331 -91 842 396 
Q 353 884 353 1716 
Q 353 2575 817 3079 
Q 1281 3584 2069 3584 
Q 2775 3584 3186 3129 
Q 3597 2675 3597 1894 
z
M 3022 2063 
Q 3016 2534 2758 2815 
Q 2500 3097 2075 3097 
Q 1594 3097 1305 2825 
Q 1016 2553 972 2059 
L 3022 2063 
z
" id="DejaVuSans-65" transform="scale(0.015625)"/>
       <path id="DejaVuSans-20" transform="scale(0.015625)"/>
       <path d="M 2906 2969 
L 2906 4863 
L 3481 4863 
L 3481 0 
L 2906 0 
L 2906 525 
Q 2725 213 2448 61 
Q 2172 -91 1784 -91 
Q 1150 -91 751 415 
Q 353 922 353 1747 
Q 353 2572 751 3078 
Q 1150 3584 1784 3584 
Q 2172 3584 2448 3432 
Q 2725 3281 2906 2969 
z
M 947 1747 
Q 947 1113 1208 752 
Q 1469 391 1925 391 
Q 2381 391 2643 752 
Q 2906 1113 2906 1747 
Q 2906 2381 2643 2742 
Q 2381 3103 1925 3103 
Q 1469 3103 1208 2742 
Q 947 2381 947 1747 
z
" id="DejaVuSans-64" transform="scale(0.015625)"/>
       <path d="M 1959 3097 
Q 1497 3097 1228 2736 
Q 959 2375 959 1747 
Q 959 1119 1226 758 
Q 1494 397 1959 397 
Q 2419 397 2687 759 
Q 2956 1122 2956 1747 
Q 2956 2369 2687 2733 
Q 2419 3097 1959 3097 
z
M 1959 3584 
Q 2709 3584 3137 3096 
Q 3566 2609 3566 1747 
Q 3566 888 3137 398 
Q 2709 -91 1959 -91 
Q 1206 -91 779 398 
Q 353 888 353 1747 
Q 353 2609 779 3096 
Q 1206 3584 1959 3584 
z
" id="DejaVuSans-6f" transform="scale(0.015625)"/>
       <path d="M 2834 3397 
L 2834 2853 
Q 2591 2978 2328 3040 
Q 2066 3103 1784 3103 
Q 1356 3103 1142 2972 
Q 928 2841 928 2578 
Q 928 2378 1081 2264 
Q 1234 2150 1697 2047 
L 1894 2003 
Q 2506 1872 2764 1633 
Q 3022 1394 3022 966 
Q 3022 478 2636 193 
Q 2250 -91 1575 -91 
Q 1294 -91 989 -36 
Q 684 19 347 128 
L 347 722 
Q 666 556 975 473 
Q 1284 391 1588 391 
Q 1994 391 2212 530 
Q 2431 669 2431 922 
Q 2431 1156 2273 1281 
Q 2116 1406 1581 1522 
L 1381 1569 
Q 847 1681 609 1914 
Q 372 2147 372 2553 
Q 372 3047 722 3315 
Q 1072 3584 1716 3584 
Q 2034 3584 2315 3537 
Q 2597 3491 2834 3397 
z
" id="DejaVuSans-73" transform="scale(0.015625)"/>
       <path d="M 1984 4856 
Q 1566 4138 1362 3434 
Q 1159 2731 1159 2009 
Q 1159 1288 1364 580 
Q 1569 -128 1984 -844 
L 1484 -844 
Q 1016 -109 783 600 
Q 550 1309 550 2009 
Q 550 2706 781 3412 
Q 1013 4119 1484 4856 
L 1984 4856 
z
" id="DejaVuSans-28" transform="scale(0.015625)"/>
       <path d="M 513 4856 
L 1013 4856 
Q 1481 4119 1714 3412 
Q 1947 2706 1947 2009 
Q 1947 1309 1714 600 
Q 1481 -109 1013 -844 
L 513 -844 
Q 928 -128 1133 580 
Q 1338 1288 1338 2009 
Q 1338 2731 1133 3434 
Q 928 4138 513 4856 
z
" id="DejaVuSans-29" transform="scale(0.015625)"/>
      </defs>
      <use xlink:href="#DejaVuSans-43"/>
      <use x="69.824219" xlink:href="#DejaVuSans-75"/>
      <use x="133.203125" xlink:href="#DejaVuSans-6d"/>
      <use x="230.615234" xlink:href="#DejaVuSans-75"/>
      <use x="293.994141" xlink:href="#DejaVuSans-6c"/>
      <use x="321.777344" xlink:href="#DejaVuSans-61"/>
      <use x="383.056641" xlink:href="#DejaVuSans-74"/>
      <use x="422.265625" xlink:href="#DejaVuSans-69"/>
      <use x="450.048828" xlink:href="#DejaVuSans-76"/>
      <use x="509.228516" xlink:href="#DejaVuSans-65"/>
      <use x="570.751953" xlink:href="#DejaVuSans-20"/>
      <use x="602.539062" xlink:href="#DejaVuSans-64"/>
      <use x="666.015625" xlink:href="#DejaVuSans-6f"/>
      <use x="727.197266" xlink:href="#DejaVuSans-73"/>
      <use x="779.296875" xlink:href="#DejaVuSans-65"/>
      <use x="840.820312" xlink:href="#DejaVuSans-73"/>
      <use x="892.919922" xlink:href="#DejaVuSans-20"/>
      <use x="924.707031" xlink:href="#DejaVuSans-28"/>
      <use x="963.720703" xlink:href="#DejaVuSans-6d"/>
      <use x="1061.132812" xlink:href="#DejaVuSans-69"/>
      <use x="1088.916016" xlink:href="#DejaVuSans-6c"/>
      <use x="1116.699219" xlink:href="#DejaVuSans-6c"/>
      <use x="1144.482422" xlink:href="#DejaVuSans-69"/>
      <use x="1172.265625" xlink:href="#DejaVuSans-6f"/>
      <use x="1233.447266" xlink:href="#DejaVuSans-6e"/>
      <use x="1296.826172" xlink:href="#DejaVuSans-73"/>
      <use x="1348.925781" xlink:href="#DejaVuSans-29"/>
     </g>
    </g>
   </g>
   <g id="patch_3">
    <path d="M 72 384.48 
L 72 51.84 
" style="fill:none;stroke:#000000;stroke-linecap:square;stroke-linejoin:miter;stroke-width:0.8;"/>
   </g>
   <g id="patch_4">
    <path d="M 518.4 384.48 
L 518.4 51.84 
" style="fill:none;stroke:#000000;stroke-linecap:square;stroke-linejoin:miter;stroke-width:0.8;"/>
   </g>
   <g id="patch_5">
    <path d="M 72 384.48 
L 518.4 384.48 
" style="fill:none;stroke:#000000;stroke-linecap:square;stroke-linejoin:miter;stroke-width:0.8;"/>
   </g>
   <g id="patch_6">
    <path d="M 72 51.84 
L 518.4 51.84 
" style="fill:none;stroke:#000000;stroke-linecap:square;stroke-linejoin:miter;stroke-width:0.8;"/>
   </g>
   <g id="text_23">
    <!-- Estimated vaccine utilisation: first dose utilisation rate: 80.6% -->
    <g transform="translate(108.34125 45.84)scale(0.12 -0.12)">
     <defs>
      <path d="M 628 4666 
L 3578 4666 
L 3578 4134 
L 1259 4134 
L 1259 2753 
L 3481 2753 
L 3481 2222 
L 1259 2222 
L 1259 531 
L 3634 531 
L 3634 0 
L 628 0 
L 628 4666 
z
" id="DejaVuSans-45" transform="scale(0.015625)"/>
      <path d="M 3122 3366 
L 3122 2828 
Q 2878 2963 2633 3030 
Q 2388 3097 2138 3097 
Q 1578 3097 1268 2742 
Q 959 2388 959 1747 
Q 959 1106 1268 751 
Q 1578 397 2138 397 
Q 2388 397 2633 464 
Q 2878 531 3122 666 
L 3122 134 
Q 2881 22 2623 -34 
Q 2366 -91 2075 -91 
Q 1284 -91 818 406 
Q 353 903 353 1747 
Q 353 2603 823 3093 
Q 1294 3584 2113 3584 
Q 2378 3584 2631 3529 
Q 2884 3475 3122 3366 
z
" id="DejaVuSans-63" transform="scale(0.015625)"/>
      <path d="M 750 794 
L 1409 794 
L 1409 0 
L 750 0 
L 750 794 
z
M 750 3309 
L 1409 3309 
L 1409 2516 
L 750 2516 
L 750 3309 
z
" id="DejaVuSans-3a" transform="scale(0.015625)"/>
      <path d="M 2375 4863 
L 2375 4384 
L 1825 4384 
Q 1516 4384 1395 4259 
Q 1275 4134 1275 3809 
L 1275 3500 
L 2222 3500 
L 2222 3053 
L 1275 3053 
L 1275 0 
L 697 0 
L 697 3053 
L 147 3053 
L 147 3500 
L 697 3500 
L 697 3744 
Q 697 4328 969 4595 
Q 1241 4863 1831 4863 
L 2375 4863 
z
" id="DejaVuSans-66" transform="scale(0.015625)"/>
      <path d="M 684 794 
L 1344 794 
L 1344 0 
L 684 0 
L 684 794 
z
" id="DejaVuSans-2e" transform="scale(0.015625)"/>
      <path d="M 4653 2053 
Q 4381 2053 4226 1822 
Q 4072 1591 4072 1178 
Q 4072 772 4226 539 
Q 4381 306 4653 306 
Q 4919 306 5073 539 
Q 5228 772 5228 1178 
Q 5228 1588 5073 1820 
Q 4919 2053 4653 2053 
z
M 4653 2450 
Q 5147 2450 5437 2106 
Q 5728 1763 5728 1178 
Q 5728 594 5436 251 
Q 5144 -91 4653 -91 
Q 4153 -91 3862 251 
Q 3572 594 3572 1178 
Q 3572 1766 3864 2108 
Q 4156 2450 4653 2450 
z
M 1428 4353 
Q 1159 4353 1004 4120 
Q 850 3888 850 3481 
Q 850 3069 1003 2837 
Q 1156 2606 1428 2606 
Q 1700 2606 1854 2837 
Q 2009 3069 2009 3481 
Q 2009 3884 1853 4118 
Q 1697 4353 1428 4353 
z
M 4250 4750 
L 4750 4750 
L 1831 -91 
L 1331 -91 
L 4250 4750 
z
M 1428 4750 
Q 1922 4750 2215 4408 
Q 2509 4066 2509 3481 
Q 2509 2891 2217 2550 
Q 1925 2209 1428 2209 
Q 931 2209 642 2551 
Q 353 2894 353 3481 
Q 353 4063 643 4406 
Q 934 4750 1428 4750 
z
" id="DejaVuSans-25" transform="scale(0.015625)"/>
     </defs>
     <use xlink:href="#DejaVuSans-45"/>
     <use x="63.183594" xlink:href="#DejaVuSans-73"/>
     <use x="115.283203" xlink:href="#DejaVuSans-74"/>
     <use x="154.492188" xlink:href="#DejaVuSans-69"/>
     <use x="182.275391" xlink:href="#DejaVuSans-6d"/>
     <use x="279.6875" xlink:href="#DejaVuSans-61"/>
     <use x="340.966797" xlink:href="#DejaVuSans-74"/>
     <use x="380.175781" xlink:href="#DejaVuSans-65"/>
     <use x="441.699219" xlink:href="#DejaVuSans-64"/>
     <use x="505.175781" xlink:href="#DejaVuSans-20"/>
     <use x="536.962891" xlink:href="#DejaVuSans-76"/>
     <use x="596.142578" xlink:href="#DejaVuSans-61"/>
     <use x="657.421875" xlink:href="#DejaVuSans-63"/>
     <use x="712.402344" xlink:href="#DejaVuSans-63"/>
     <use x="767.382812" xlink:href="#DejaVuSans-69"/>
     <use x="795.166016" xlink:href="#DejaVuSans-6e"/>
     <use x="858.544922" xlink:href="#DejaVuSans-65"/>
     <use x="920.068359" xlink:href="#DejaVuSans-20"/>
     <use x="951.855469" xlink:href="#DejaVuSans-75"/>
     <use x="1015.234375" xlink:href="#DejaVuSans-74"/>
     <use x="1054.443359" xlink:href="#DejaVuSans-69"/>
     <use x="1082.226562" xlink:href="#DejaVuSans-6c"/>
     <use x="1110.009766" xlink:href="#DejaVuSans-69"/>
     <use x="1137.792969" xlink:href="#DejaVuSans-73"/>
     <use x="1189.892578" xlink:href="#DejaVuSans-61"/>
     <use x="1251.171875" xlink:href="#DejaVuSans-74"/>
     <use x="1290.380859" xlink:href="#DejaVuSans-69"/>
     <use x="1318.164062" xlink:href="#DejaVuSans-6f"/>
     <use x="1379.345703" xlink:href="#DejaVuSans-6e"/>
     <use x="1442.724609" xlink:href="#DejaVuSans-3a"/>
     <use x="1476.416016" xlink:href="#DejaVuSans-20"/>
     <use x="1508.203125" xlink:href="#DejaVuSans-66"/>
     <use x="1543.408203" xlink:href="#DejaVuSans-69"/>
     <use x="1571.191406" xlink:href="#DejaVuSans-72"/>
     <use x="1612.304688" xlink:href="#DejaVuSans-73"/>
     <use x="1664.404297" xlink:href="#DejaVuSans-74"/>
     <use x="1703.613281" xlink:href="#DejaVuSans-20"/>
     <use x="1735.400391" xlink:href="#DejaVuSans-64"/>
     <use x="1798.876953" xlink:href="#DejaVuSans-6f"/>
     <use x="1860.058594" xlink:href="#DejaVuSans-73"/>
     <use x="1912.158203" xlink:href="#DejaVuSans-65"/>
     <use x="1973.681641" xlink:href="#DejaVuSans-20"/>
     <use x="2005.46875" xlink:href="#DejaVuSans-75"/>
     <use x="2068.847656" xlink:href="#DejaVuSans-74"/>
     <use x="2108.056641" xlink:href="#DejaVuSans-69"/>
     <use x="2135.839844" xlink:href="#DejaVuSans-6c"/>
     <use x="2163.623047" xlink:href="#DejaVuSans-69"/>
     <use x="2191.40625" xlink:href="#DejaVuSans-73"/>
     <use x="2243.505859" xlink:href="#DejaVuSans-61"/>
     <use x="2304.785156" xlink:href="#DejaVuSans-74"/>
     <use x="2343.994141" xlink:href="#DejaVuSans-69"/>
     <use x="2371.777344" xlink:href="#DejaVuSans-6f"/>
     <use x="2432.958984" xlink:href="#DejaVuSans-6e"/>
     <use x="2496.337891" xlink:href="#DejaVuSans-20"/>
     <use x="2528.125" xlink:href="#DejaVuSans-72"/>
     <use x="2569.238281" xlink:href="#DejaVuSans-61"/>
     <use x="2630.517578" xlink:href="#DejaVuSans-74"/>
     <use x="2669.726562" xlink:href="#DejaVuSans-65"/>
     <use x="2731.25" xlink:href="#DejaVuSans-3a"/>
     <use x="2764.941406" xlink:href="#DejaVuSans-20"/>
     <use x="2796.728516" xlink:href="#DejaVuSans-38"/>
     <use x="2860.351562" xlink:href="#DejaVuSans-30"/>
     <use x="2923.974609" xlink:href="#DejaVuSans-2e"/>
     <use x="2955.761719" xlink:href="#DejaVuSans-36"/>
     <use x="3019.384766" xlink:href="#DejaVuSans-25"/>
    </g>
   </g>
   <g id="legend_1">
    <g id="patch_7">
     <path d="M 77.831 144.092147 
L 251.724956 144.092147 
Q 253.390956 144.092147 253.390956 142.426147 
L 253.390956 57.671 
Q 253.390956 56.005 251.724956 56.005 
L 77.831 56.005 
Q 76.165 56.005 76.165 57.671 
L 76.165 142.426147 
Q 76.165 144.092147 77.831 144.092147 
z
" style="fill:#ffffff;opacity:0.8;stroke:#cccccc;stroke-linejoin:miter;"/>
    </g>
    <g id="patch_8">
     <path d="M 79.497 65.666498 
L 96.157 65.666498 
L 96.157 59.835498 
L 79.497 59.835498 
z
" style="fill:#d62728;"/>
    </g>
    <g id="text_24">
     <!-- Reserved for second doses (3216k) -->
     <g transform="translate(102.821 65.666498)scale(0.0833 -0.0833)">
      <defs>
       <path d="M 2841 2188 
Q 3044 2119 3236 1894 
Q 3428 1669 3622 1275 
L 4263 0 
L 3584 0 
L 2988 1197 
Q 2756 1666 2539 1819 
Q 2322 1972 1947 1972 
L 1259 1972 
L 1259 0 
L 628 0 
L 628 4666 
L 2053 4666 
Q 2853 4666 3247 4331 
Q 3641 3997 3641 3322 
Q 3641 2881 3436 2590 
Q 3231 2300 2841 2188 
z
M 1259 4147 
L 1259 2491 
L 2053 2491 
Q 2509 2491 2742 2702 
Q 2975 2913 2975 3322 
Q 2975 3731 2742 3939 
Q 2509 4147 2053 4147 
L 1259 4147 
z
" id="DejaVuSans-52" transform="scale(0.015625)"/>
       <path d="M 581 4863 
L 1159 4863 
L 1159 1991 
L 2875 3500 
L 3609 3500 
L 1753 1863 
L 3688 0 
L 2938 0 
L 1159 1709 
L 1159 0 
L 581 0 
L 581 4863 
z
" id="DejaVuSans-6b" transform="scale(0.015625)"/>
      </defs>
      <use xlink:href="#DejaVuSans-52"/>
      <use x="64.982422" xlink:href="#DejaVuSans-65"/>
      <use x="126.505859" xlink:href="#DejaVuSans-73"/>
      <use x="178.605469" xlink:href="#DejaVuSans-65"/>
      <use x="240.128906" xlink:href="#DejaVuSans-72"/>
      <use x="281.242188" xlink:href="#DejaVuSans-76"/>
      <use x="340.421875" xlink:href="#DejaVuSans-65"/>
      <use x="401.945312" xlink:href="#DejaVuSans-64"/>
      <use x="465.421875" xlink:href="#DejaVuSans-20"/>
      <use x="497.208984" xlink:href="#DejaVuSans-66"/>
      <use x="532.414062" xlink:href="#DejaVuSans-6f"/>
      <use x="593.595703" xlink:href="#DejaVuSans-72"/>
      <use x="634.708984" xlink:href="#DejaVuSans-20"/>
      <use x="666.496094" xlink:href="#DejaVuSans-73"/>
      <use x="718.595703" xlink:href="#DejaVuSans-65"/>
      <use x="780.119141" xlink:href="#DejaVuSans-63"/>
      <use x="835.099609" xlink:href="#DejaVuSans-6f"/>
      <use x="896.28125" xlink:href="#DejaVuSans-6e"/>
      <use x="959.660156" xlink:href="#DejaVuSans-64"/>
      <use x="1023.136719" xlink:href="#DejaVuSans-20"/>
      <use x="1054.923828" xlink:href="#DejaVuSans-64"/>
      <use x="1118.400391" xlink:href="#DejaVuSans-6f"/>
      <use x="1179.582031" xlink:href="#DejaVuSans-73"/>
      <use x="1231.681641" xlink:href="#DejaVuSans-65"/>
      <use x="1293.205078" xlink:href="#DejaVuSans-73"/>
      <use x="1345.304688" xlink:href="#DejaVuSans-20"/>
      <use x="1377.091797" xlink:href="#DejaVuSans-28"/>
      <use x="1416.105469" xlink:href="#DejaVuSans-33"/>
      <use x="1479.728516" xlink:href="#DejaVuSans-32"/>
      <use x="1543.351562" xlink:href="#DejaVuSans-31"/>
      <use x="1606.974609" xlink:href="#DejaVuSans-36"/>
      <use x="1670.597656" xlink:href="#DejaVuSans-6b"/>
      <use x="1728.507812" xlink:href="#DejaVuSans-29"/>
     </g>
    </g>
    <g id="patch_9">
     <path d="M 79.497 77.893377 
L 96.157 77.893377 
L 96.157 72.062377 
L 79.497 72.062377 
z
" style="fill:#ff7f0e;"/>
    </g>
    <g id="text_25">
     <!-- Administered second doses (753k) -->
     <g transform="translate(102.821 77.893377)scale(0.0833 -0.0833)">
      <use xlink:href="#DejaVuSans-41"/>
      <use x="66.658203" xlink:href="#DejaVuSans-64"/>
      <use x="130.134766" xlink:href="#DejaVuSans-6d"/>
      <use x="227.546875" xlink:href="#DejaVuSans-69"/>
      <use x="255.330078" xlink:href="#DejaVuSans-6e"/>
      <use x="318.708984" xlink:href="#DejaVuSans-69"/>
      <use x="346.492188" xlink:href="#DejaVuSans-73"/>
      <use x="398.591797" xlink:href="#DejaVuSans-74"/>
      <use x="437.800781" xlink:href="#DejaVuSans-65"/>
      <use x="499.324219" xlink:href="#DejaVuSans-72"/>
      <use x="538.1875" xlink:href="#DejaVuSans-65"/>
      <use x="599.710938" xlink:href="#DejaVuSans-64"/>
      <use x="663.1875" xlink:href="#DejaVuSans-20"/>
      <use x="694.974609" xlink:href="#DejaVuSans-73"/>
      <use x="747.074219" xlink:href="#DejaVuSans-65"/>
      <use x="808.597656" xlink:href="#DejaVuSans-63"/>
      <use x="863.578125" xlink:href="#DejaVuSans-6f"/>
      <use x="924.759766" xlink:href="#DejaVuSans-6e"/>
      <use x="988.138672" xlink:href="#DejaVuSans-64"/>
      <use x="1051.615234" xlink:href="#DejaVuSans-20"/>
      <use x="1083.402344" xlink:href="#DejaVuSans-64"/>
      <use x="1146.878906" xlink:href="#DejaVuSans-6f"/>
      <use x="1208.060547" xlink:href="#DejaVuSans-73"/>
      <use x="1260.160156" xlink:href="#DejaVuSans-65"/>
      <use x="1321.683594" xlink:href="#DejaVuSans-73"/>
      <use x="1373.783203" xlink:href="#DejaVuSans-20"/>
      <use x="1405.570312" xlink:href="#DejaVuSans-28"/>
      <use x="1444.583984" xlink:href="#DejaVuSans-37"/>
      <use x="1508.207031" xlink:href="#DejaVuSans-35"/>
      <use x="1571.830078" xlink:href="#DejaVuSans-33"/>
      <use x="1635.453125" xlink:href="#DejaVuSans-6b"/>
      <use x="1693.363281" xlink:href="#DejaVuSans-29"/>
     </g>
    </g>
    <g id="patch_10">
     <path d="M 79.497 90.120255 
L 96.157 90.120255 
L 96.157 84.289255 
L 79.497 84.289255 
z
" style="fill:#2ca02c;"/>
    </g>
    <g id="text_26">
     <!-- Available for first doses (1027k) -->
     <g transform="translate(102.821 90.120255)scale(0.0833 -0.0833)">
      <defs>
       <path d="M 3116 1747 
Q 3116 2381 2855 2742 
Q 2594 3103 2138 3103 
Q 1681 3103 1420 2742 
Q 1159 2381 1159 1747 
Q 1159 1113 1420 752 
Q 1681 391 2138 391 
Q 2594 391 2855 752 
Q 3116 1113 3116 1747 
z
M 1159 2969 
Q 1341 3281 1617 3432 
Q 1894 3584 2278 3584 
Q 2916 3584 3314 3078 
Q 3713 2572 3713 1747 
Q 3713 922 3314 415 
Q 2916 -91 2278 -91 
Q 1894 -91 1617 61 
Q 1341 213 1159 525 
L 1159 0 
L 581 0 
L 581 4863 
L 1159 4863 
L 1159 2969 
z
" id="DejaVuSans-62" transform="scale(0.015625)"/>
      </defs>
      <use xlink:href="#DejaVuSans-41"/>
      <use x="62.533203" xlink:href="#DejaVuSans-76"/>
      <use x="121.712891" xlink:href="#DejaVuSans-61"/>
      <use x="182.992188" xlink:href="#DejaVuSans-69"/>
      <use x="210.775391" xlink:href="#DejaVuSans-6c"/>
      <use x="238.558594" xlink:href="#DejaVuSans-61"/>
      <use x="299.837891" xlink:href="#DejaVuSans-62"/>
      <use x="363.314453" xlink:href="#DejaVuSans-6c"/>
      <use x="391.097656" xlink:href="#DejaVuSans-65"/>
      <use x="452.621094" xlink:href="#DejaVuSans-20"/>
      <use x="484.408203" xlink:href="#DejaVuSans-66"/>
      <use x="519.613281" xlink:href="#DejaVuSans-6f"/>
      <use x="580.794922" xlink:href="#DejaVuSans-72"/>
      <use x="621.908203" xlink:href="#DejaVuSans-20"/>
      <use x="653.695312" xlink:href="#DejaVuSans-66"/>
      <use x="688.900391" xlink:href="#DejaVuSans-69"/>
      <use x="716.683594" xlink:href="#DejaVuSans-72"/>
      <use x="757.796875" xlink:href="#DejaVuSans-73"/>
      <use x="809.896484" xlink:href="#DejaVuSans-74"/>
      <use x="849.105469" xlink:href="#DejaVuSans-20"/>
      <use x="880.892578" xlink:href="#DejaVuSans-64"/>
      <use x="944.369141" xlink:href="#DejaVuSans-6f"/>
      <use x="1005.550781" xlink:href="#DejaVuSans-73"/>
      <use x="1057.650391" xlink:href="#DejaVuSans-65"/>
      <use x="1119.173828" xlink:href="#DejaVuSans-73"/>
      <use x="1171.273438" xlink:href="#DejaVuSans-20"/>
      <use x="1203.060547" xlink:href="#DejaVuSans-28"/>
      <use x="1242.074219" xlink:href="#DejaVuSans-31"/>
      <use x="1305.697266" xlink:href="#DejaVuSans-30"/>
      <use x="1369.320312" xlink:href="#DejaVuSans-32"/>
      <use x="1432.943359" xlink:href="#DejaVuSans-37"/>
      <use x="1496.566406" xlink:href="#DejaVuSans-6b"/>
      <use x="1554.476562" xlink:href="#DejaVuSans-29"/>
     </g>
    </g>
    <g id="patch_11">
     <path d="M 79.497 102.347133 
L 96.157 102.347133 
L 96.157 96.516133 
L 79.497 96.516133 
z
" style="fill:#1f77b4;"/>
    </g>
    <g id="text_27">
     <!-- Administered first doses (4273k) -->
     <g transform="translate(102.821 102.347133)scale(0.0833 -0.0833)">
      <use xlink:href="#DejaVuSans-41"/>
      <use x="66.658203" xlink:href="#DejaVuSans-64"/>
      <use x="130.134766" xlink:href="#DejaVuSans-6d"/>
      <use x="227.546875" xlink:href="#DejaVuSans-69"/>
      <use x="255.330078" xlink:href="#DejaVuSans-6e"/>
      <use x="318.708984" xlink:href="#DejaVuSans-69"/>
      <use x="346.492188" xlink:href="#DejaVuSans-73"/>
      <use x="398.591797" xlink:href="#DejaVuSans-74"/>
      <use x="437.800781" xlink:href="#DejaVuSans-65"/>
      <use x="499.324219" xlink:href="#DejaVuSans-72"/>
      <use x="538.1875" xlink:href="#DejaVuSans-65"/>
      <use x="599.710938" xlink:href="#DejaVuSans-64"/>
      <use x="663.1875" xlink:href="#DejaVuSans-20"/>
      <use x="694.974609" xlink:href="#DejaVuSans-66"/>
      <use x="730.179688" xlink:href="#DejaVuSans-69"/>
      <use x="757.962891" xlink:href="#DejaVuSans-72"/>
      <use x="799.076172" xlink:href="#DejaVuSans-73"/>
      <use x="851.175781" xlink:href="#DejaVuSans-74"/>
      <use x="890.384766" xlink:href="#DejaVuSans-20"/>
      <use x="922.171875" xlink:href="#DejaVuSans-64"/>
      <use x="985.648438" xlink:href="#DejaVuSans-6f"/>
      <use x="1046.830078" xlink:href="#DejaVuSans-73"/>
      <use x="1098.929688" xlink:href="#DejaVuSans-65"/>
      <use x="1160.453125" xlink:href="#DejaVuSans-73"/>
      <use x="1212.552734" xlink:href="#DejaVuSans-20"/>
      <use x="1244.339844" xlink:href="#DejaVuSans-28"/>
      <use x="1283.353516" xlink:href="#DejaVuSans-34"/>
      <use x="1346.976562" xlink:href="#DejaVuSans-32"/>
      <use x="1410.599609" xlink:href="#DejaVuSans-37"/>
      <use x="1474.222656" xlink:href="#DejaVuSans-33"/>
      <use x="1537.845703" xlink:href="#DejaVuSans-6b"/>
      <use x="1595.755859" xlink:href="#DejaVuSans-29"/>
     </g>
    </g>
    <g id="patch_12">
     <path d="M 79.497 114.574011 
L 96.157 114.574011 
L 96.157 108.743011 
L 79.497 108.743011 
z
" style="fill:#ff0000;opacity:0.35;"/>
    </g>
    <g id="text_28">
     <!-- Phase 1a -->
     <g transform="translate(102.821 114.574011)scale(0.0833 -0.0833)">
      <defs>
       <path d="M 1259 4147 
L 1259 2394 
L 2053 2394 
Q 2494 2394 2734 2622 
Q 2975 2850 2975 3272 
Q 2975 3691 2734 3919 
Q 2494 4147 2053 4147 
L 1259 4147 
z
M 628 4666 
L 2053 4666 
Q 2838 4666 3239 4311 
Q 3641 3956 3641 3272 
Q 3641 2581 3239 2228 
Q 2838 1875 2053 1875 
L 1259 1875 
L 1259 0 
L 628 0 
L 628 4666 
z
" id="DejaVuSans-50" transform="scale(0.015625)"/>
       <path d="M 3513 2113 
L 3513 0 
L 2938 0 
L 2938 2094 
Q 2938 2591 2744 2837 
Q 2550 3084 2163 3084 
Q 1697 3084 1428 2787 
Q 1159 2491 1159 1978 
L 1159 0 
L 581 0 
L 581 4863 
L 1159 4863 
L 1159 2956 
Q 1366 3272 1645 3428 
Q 1925 3584 2291 3584 
Q 2894 3584 3203 3211 
Q 3513 2838 3513 2113 
z
" id="DejaVuSans-68" transform="scale(0.015625)"/>
      </defs>
      <use xlink:href="#DejaVuSans-50"/>
      <use x="60.302734" xlink:href="#DejaVuSans-68"/>
      <use x="123.681641" xlink:href="#DejaVuSans-61"/>
      <use x="184.960938" xlink:href="#DejaVuSans-73"/>
      <use x="237.060547" xlink:href="#DejaVuSans-65"/>
      <use x="298.583984" xlink:href="#DejaVuSans-20"/>
      <use x="330.371094" xlink:href="#DejaVuSans-31"/>
      <use x="393.994141" xlink:href="#DejaVuSans-61"/>
     </g>
    </g>
    <g id="patch_13">
     <path d="M 79.497 126.800889 
L 96.157 126.800889 
L 96.157 120.969889 
L 79.497 120.969889 
z
" style="fill:#ffa500;opacity:0.35;"/>
    </g>
    <g id="text_29">
     <!-- Phase 1b -->
     <g transform="translate(102.821 126.800889)scale(0.0833 -0.0833)">
      <use xlink:href="#DejaVuSans-50"/>
      <use x="60.302734" xlink:href="#DejaVuSans-68"/>
      <use x="123.681641" xlink:href="#DejaVuSans-61"/>
      <use x="184.960938" xlink:href="#DejaVuSans-73"/>
      <use x="237.060547" xlink:href="#DejaVuSans-65"/>
      <use x="298.583984" xlink:href="#DejaVuSans-20"/>
      <use x="330.371094" xlink:href="#DejaVuSans-31"/>
      <use x="393.994141" xlink:href="#DejaVuSans-62"/>
     </g>
    </g>
    <g id="patch_14">
     <path d="M 79.497 139.027767 
L 96.157 139.027767 
L 96.157 133.196767 
L 79.497 133.196767 
z
" style="fill:#ffff00;opacity:0.35;"/>
    </g>
    <g id="text_30">
     <!-- Phase 2a -->
     <g transform="translate(102.821 139.027767)scale(0.0833 -0.0833)">
      <use xlink:href="#DejaVuSans-50"/>
      <use x="60.302734" xlink:href="#DejaVuSans-68"/>
      <use x="123.681641" xlink:href="#DejaVuSans-61"/>
      <use x="184.960938" xlink:href="#DejaVuSans-73"/>
      <use x="237.060547" xlink:href="#DejaVuSans-65"/>
      <use x="298.583984" xlink:href="#DejaVuSans-20"/>
      <use x="330.371094" xlink:href="#DejaVuSans-32"/>
      <use x="393.994141" xlink:href="#DejaVuSans-61"/>
     </g>
    </g>
   </g>
  </g>
 </g>
 <defs>
  <clipPath id="pb5f7bb3821">
   <rect height="332.64" width="446.4" x="72" y="51.84"/>
  </clipPath>
 </defs>
</svg>
